<?xml version="1.0" encoding="UTF-8" standalone="no"?>
<svg xmlns:xlink="http://www.w3.org/1999/xlink" height="90.2px" width="196.1px" xmlns="http://www.w3.org/2000/svg">
  <g transform="matrix(1.0, 0.0, 0.0, 1.0, 111.45, 139.65)">
    <path d="M-111.45 -60.45 L-111.05 -63.9 Q-110.9 -66.4 -110.35 -68.85 L-109.6 -73.2 Q-106.2 -90.7 -97.15 -105.95 -88.75 -120.55 -64.65 -129.45 -42.55 -137.95 -13.8 -139.35 14.05 -140.85 36.8 -134.9 60.35 -129.05 68.55 -117.1 77.85 -103.4 83.05 -84.3 L84.15 -79.75 Q79.55 -92.1 72.95 -101.8 64.4 -114.3 39.9 -120.35 16.25 -126.5 -12.75 -124.9 -42.6 -123.45 -65.6 -114.65 -90.7 -105.35 -99.35 -90.2 -107.75 -76.2 -111.45 -60.45" fill="#ffcc33" fill-opacity="0.3019608" fill-rule="evenodd" stroke="none">
      <animate attributeName="fill" dur="2s" repeatCount="indefinite" values="#ffcc33;#ffcc34"/>
      <animate attributeName="fill-opacity" dur="2s" repeatCount="indefinite" values="0.3019608;0.3019608"/>
      <animate attributeName="d" dur="2s" repeatCount="indefinite" values="M-111.45 -60.45 L-111.05 -63.9 Q-110.9 -66.4 -110.35 -68.85 L-109.6 -73.2 Q-106.2 -90.7 -97.15 -105.95 -88.75 -120.55 -64.65 -129.45 -42.55 -137.95 -13.8 -139.35 14.05 -140.85 36.8 -134.9 60.35 -129.05 68.55 -117.1 77.85 -103.4 83.05 -84.3 L84.15 -79.75 Q79.55 -92.1 72.95 -101.8 64.4 -114.3 39.9 -120.35 16.25 -126.5 -12.75 -124.9 -42.6 -123.45 -65.6 -114.65 -90.7 -105.35 -99.35 -90.2 -107.75 -76.2 -111.45 -60.45;M-110.95 -49.45 L-110.55 -52.9 Q-110.4 -55.4 -109.85 -57.85 L-109.1 -62.2 Q-105.7 -79.7 -96.65 -94.95 -88.25 -109.55 -64.15 -118.45 -42.05 -126.95 -13.3 -128.35 14.55 -129.85 37.3 -123.9 60.85 -118.05 69.05 -106.1 78.35 -92.4 83.55 -73.3 L84.65 -68.75 Q80.05 -81.1 73.45 -90.8 64.9 -103.3 40.4 -109.35 16.75 -115.5 -12.25 -113.9 -42.1 -112.45 -65.1 -103.65 -90.2 -94.35 -98.85 -79.2 -107.25 -65.2 -110.95 -49.45"/>
    </path>
    <path d="M-111.45 -60.45 Q-107.75 -76.2 -99.35 -90.2 -90.7 -105.35 -65.6 -114.65 -42.6 -123.45 -12.75 -124.9 16.25 -126.5 39.9 -120.35 64.4 -114.3 72.95 -101.8 79.55 -92.1 84.15 -79.75 L83.05 -84.3 Q77.85 -103.4 68.55 -117.1 60.35 -129.05 36.8 -134.9 14.05 -140.85 -13.8 -139.35 -42.55 -137.95 -64.65 -129.45 -88.75 -120.55 -97.15 -105.95 -106.2 -90.7 -109.6 -73.2 L-110.35 -68.85 Q-110.9 -66.4 -111.05 -63.9 L-111.45 -60.45" fill="none" stroke="#000000" stroke-linecap="round" stroke-linejoin="round" stroke-opacity="0.0" stroke-width="1.0">
      <animate attributeName="stroke" dur="2s" repeatCount="indefinite" values="#000000;#000001"/>
      <animate attributeName="stroke-width" dur="2s" repeatCount="indefinite" values="0.0;0.0"/>
      <animate attributeName="fill-opacity" dur="2s" repeatCount="indefinite" values="0.0;0.0"/>
      <animate attributeName="d" dur="2s" repeatCount="indefinite" values="M-111.45 -60.45 Q-107.75 -76.2 -99.35 -90.2 -90.7 -105.35 -65.6 -114.65 -42.6 -123.45 -12.75 -124.9 16.25 -126.5 39.9 -120.35 64.4 -114.3 72.95 -101.8 79.55 -92.1 84.15 -79.75 L83.05 -84.3 Q77.85 -103.4 68.55 -117.1 60.35 -129.05 36.8 -134.9 14.05 -140.85 -13.8 -139.35 -42.55 -137.95 -64.65 -129.45 -88.75 -120.55 -97.15 -105.95 -106.2 -90.7 -109.6 -73.2 L-110.35 -68.85 Q-110.9 -66.4 -111.05 -63.9 L-111.45 -60.45;M-110.95 -49.45 Q-107.25 -65.2 -98.85 -79.2 -90.2 -94.35 -65.1 -103.65 -42.1 -112.45 -12.25 -113.9 16.75 -115.5 40.4 -109.35 64.9 -103.3 73.45 -90.8 80.05 -81.1 84.65 -68.75 L83.55 -73.3 Q78.35 -92.4 69.05 -106.1 60.85 -118.05 37.3 -123.9 14.55 -129.85 -13.3 -128.35 -42.05 -126.95 -64.15 -118.45 -88.25 -109.55 -96.65 -94.95 -105.7 -79.7 -109.1 -62.2 L-109.85 -57.85 Q-110.4 -55.4 -110.55 -52.9 L-110.95 -49.45"/>
    </path>
  </g>
</svg>
