<?xml version="1.0" encoding="UTF-8" standalone="no"?>
<svg xmlns:xlink="http://www.w3.org/1999/xlink" height="62.65px" width="87.1px" xmlns="http://www.w3.org/2000/svg">
  <g transform="matrix(1.0, 0.0, 0.0, 1.0, 129.1, -33.45)">
    <path d="M-129.1 60.3 Q-129.1 71.4 -116.4 79.25 -103.6 87.1 -85.55 87.1 -67.5 87.1 -54.75 79.25 -42.0 71.4 -42.0 60.3 -42.0 49.15 -54.75 41.3 -67.5 33.45 -85.55 33.45 -103.6 33.45 -116.4 41.3 -129.1 49.15 -129.1 60.3" fill="#bf7926" fill-rule="evenodd" stroke="none">
      <animate attributeName="fill" dur="2s" repeatCount="indefinite" values="#bf7926;#bf7927"/>
      <animate attributeName="fill-opacity" dur="2s" repeatCount="indefinite" values="1.0;1.0"/>
      <animate attributeName="d" dur="2s" repeatCount="indefinite" values="M-129.1 60.3 Q-129.1 71.4 -116.4 79.25 -103.6 87.1 -85.55 87.1 -67.5 87.1 -54.75 79.25 -42.0 71.4 -42.0 60.3 -42.0 49.15 -54.75 41.3 -67.5 33.45 -85.55 33.45 -103.6 33.45 -116.4 41.3 -129.1 49.15 -129.1 60.3;M-129.1 69.3 Q-129.1 80.4 -116.4 88.25 -103.6 96.1 -85.55 96.1 -67.5 96.1 -54.75 88.25 -42.0 80.4 -42.0 69.3 -42.0 58.15 -54.75 50.3 -67.5 42.45 -85.55 42.45 -103.6 42.45 -116.4 50.3 -129.1 58.15 -129.1 69.3"/>
    </path>
    <path d="M-129.1 60.3 Q-129.1 49.15 -116.4 41.3 -103.6 33.45 -85.55 33.45 -67.5 33.45 -54.75 41.3 -42.0 49.15 -42.0 60.3 -42.0 71.4 -54.75 79.25 -67.5 87.1 -85.55 87.1 -103.6 87.1 -116.4 79.25 -129.1 71.4 -129.1 60.3" fill="none" stroke="#000000" stroke-linecap="round" stroke-linejoin="round" stroke-opacity="0.0" stroke-width="1.0">
      <animate attributeName="stroke" dur="2s" repeatCount="indefinite" values="#000000;#000001"/>
      <animate attributeName="stroke-width" dur="2s" repeatCount="indefinite" values="0.0;0.0"/>
      <animate attributeName="fill-opacity" dur="2s" repeatCount="indefinite" values="0.0;0.0"/>
      <animate attributeName="d" dur="2s" repeatCount="indefinite" values="M-129.1 60.3 Q-129.1 49.15 -116.4 41.3 -103.6 33.45 -85.55 33.45 -67.5 33.45 -54.75 41.3 -42.0 49.15 -42.0 60.3 -42.0 71.4 -54.75 79.25 -67.5 87.1 -85.55 87.1 -103.6 87.1 -116.4 79.25 -129.1 71.4 -129.1 60.3;M-129.1 69.3 Q-129.1 58.15 -116.4 50.3 -103.6 42.45 -85.55 42.45 -67.5 42.45 -54.75 50.3 -42.0 58.15 -42.0 69.3 -42.0 80.4 -54.75 88.25 -67.5 96.1 -85.55 96.1 -103.6 96.1 -116.4 88.25 -129.1 80.4 -129.1 69.3"/>
    </path>
  </g>
</svg>
