<?xml version="1.0" encoding="UTF-8" standalone="no"?>
<svg xmlns:xlink="http://www.w3.org/1999/xlink" height="32.8px" width="3.65px" xmlns="http://www.w3.org/2000/svg">
  <g transform="matrix(1.0, 0.0, 0.0, 1.0, -2.75, 52.4)">
    <path d="M2.75 -30.55 Q2.75 -26.95 3.65 -24.75 4.55 -22.55 4.55 -20.05 4.55 -19.75 4.9 -19.6 5.65 -19.6 6.1 -22.35 L6.4 -25.1 5.75 -30.45 Q5.1 -34.05 5.1 -37.25 5.1 -40.4 3.2 -33.0 L2.75 -30.55" fill="#ffcc00" fill-rule="evenodd" stroke="none">
      <animate attributeName="fill" dur="2s" repeatCount="indefinite" values="#ffcc00;#ff9901"/>
      <animate attributeName="fill-opacity" dur="2s" repeatCount="indefinite" values="1.0;0.0"/>
      <animate attributeName="d" dur="2s" repeatCount="indefinite" values="M2.75 -30.55 Q2.75 -26.95 3.65 -24.75 4.55 -22.55 4.55 -20.05 4.55 -19.75 4.9 -19.6 5.65 -19.6 6.1 -22.35 L6.4 -25.1 5.75 -30.45 Q5.1 -34.05 5.1 -37.25 5.1 -40.4 3.2 -33.0 L2.75 -30.55;M3.55 -47.6 Q3.55 -45.4 4.1 -44.1 4.65 -42.8 4.65 -41.25 4.8 -41.15 4.9 -41.05 5.35 -41.1 5.65 -42.8 L5.8 -44.45 5.4 -47.75 Q5.0 -49.9 5.0 -51.85 5.0 -53.75 3.85 -49.15 L3.55 -47.6"/>
    </path>
    <path d="M2.75 -30.55 L3.2 -33.0 Q5.1 -40.4 5.1 -37.25 5.1 -34.05 5.75 -30.45 L6.4 -25.1 6.1 -22.35 Q5.65 -19.6 4.9 -19.6 4.55 -19.75 4.55 -20.05 4.55 -22.55 3.65 -24.75 2.75 -26.95 2.75 -30.55" fill="none" stroke="#000000" stroke-linecap="round" stroke-linejoin="round" stroke-opacity="0.0" stroke-width="1.0">
      <animate attributeName="stroke" dur="2s" repeatCount="indefinite" values="#000000;#000001"/>
      <animate attributeName="stroke-width" dur="2s" repeatCount="indefinite" values="0.0;0.0"/>
      <animate attributeName="fill-opacity" dur="2s" repeatCount="indefinite" values="0.0;0.0"/>
      <animate attributeName="d" dur="2s" repeatCount="indefinite" values="M2.75 -30.55 L3.2 -33.0 Q5.1 -40.4 5.1 -37.25 5.1 -34.05 5.75 -30.45 L6.4 -25.1 6.1 -22.35 Q5.65 -19.6 4.9 -19.6 4.55 -19.75 4.55 -20.05 4.55 -22.55 3.65 -24.75 2.75 -26.95 2.75 -30.55;M3.55 -47.6 L3.85 -49.15 Q5.0 -53.75 5.0 -51.85 5.0 -49.9 5.4 -47.75 L5.8 -44.45 5.65 -42.8 Q5.35 -41.1 4.9 -41.05 4.8 -41.15 4.65 -41.25 4.65 -42.8 4.1 -44.1 3.55 -45.4 3.55 -47.6"/>
    </path>
  </g>
</svg>
