<?xml version="1.0" encoding="UTF-8" standalone="no"?>
<svg xmlns:xlink="http://www.w3.org/1999/xlink" height="97.6px" width="157.05px" xmlns="http://www.w3.org/2000/svg">
  <g transform="matrix(1.0, 0.0, 0.0, 1.0, -41.9, 158.65)">
    <path d="M41.9 -90.65 L50.25 -64.65 Q77.7 -103.25 111.7 -124.8 142.6 -101.3 169.2 -61.05 L179.3 -86.5 Q164.25 -107.4 146.8 -126.4 128.65 -146.2 112.7 -158.65 94.5 -147.7 75.3 -129.25 56.25 -110.95 41.9 -90.65" fill="#ffcc33" fill-rule="evenodd" stroke="none">
      <animate attributeName="fill" dur="2s" repeatCount="indefinite" values="#ffcc33;#ffcc34"/>
      <animate attributeName="fill-opacity" dur="2s" repeatCount="indefinite" values="1.0;1.0"/>
      <animate attributeName="d" dur="2s" repeatCount="indefinite" values="M41.9 -90.65 L50.25 -64.65 Q77.7 -103.25 111.7 -124.8 142.6 -101.3 169.2 -61.05 L179.3 -86.5 Q164.25 -107.4 146.8 -126.4 128.65 -146.2 112.7 -158.65 94.5 -147.7 75.3 -129.25 56.25 -110.95 41.9 -90.65;M61.55 -90.65 L69.9 -64.65 Q97.35 -103.25 131.35 -124.8 162.25 -101.3 188.85 -61.05 L198.95 -86.5 Q183.9 -107.4 166.45 -126.4 148.3 -146.2 132.35 -158.65 114.15 -147.7 94.95 -129.25 75.9 -110.95 61.55 -90.65"/>
    </path>
    <path d="M41.9 -90.65 Q56.25 -110.95 75.3 -129.25 94.5 -147.7 112.7 -158.65 128.65 -146.2 146.8 -126.4 164.25 -107.4 179.3 -86.5 L169.2 -61.05 Q142.6 -101.3 111.7 -124.8 77.7 -103.25 50.25 -64.65 L41.9 -90.65" fill="none" stroke="#000000" stroke-linecap="round" stroke-linejoin="round" stroke-opacity="0.0" stroke-width="1.0">
      <animate attributeName="stroke" dur="2s" repeatCount="indefinite" values="#000000;#000001"/>
      <animate attributeName="stroke-width" dur="2s" repeatCount="indefinite" values="0.0;0.0"/>
      <animate attributeName="fill-opacity" dur="2s" repeatCount="indefinite" values="0.0;0.0"/>
      <animate attributeName="d" dur="2s" repeatCount="indefinite" values="M41.9 -90.65 Q56.25 -110.95 75.3 -129.25 94.5 -147.7 112.7 -158.65 128.65 -146.2 146.8 -126.4 164.25 -107.4 179.3 -86.5 L169.2 -61.05 Q142.6 -101.3 111.7 -124.8 77.7 -103.25 50.25 -64.65 L41.9 -90.65;M61.55 -90.65 Q75.9 -110.95 94.95 -129.25 114.15 -147.7 132.35 -158.65 148.3 -146.2 166.45 -126.4 183.9 -107.4 198.95 -86.5 L188.85 -61.05 Q162.25 -101.3 131.35 -124.8 97.35 -103.25 69.9 -64.65 L61.55 -90.65"/>
    </path>
  </g>
</svg>
