<?xml version="1.0" encoding="UTF-8" standalone="no"?>
<svg xmlns:xlink="http://www.w3.org/1999/xlink" height="345.1px" width="536.55px" xmlns="http://www.w3.org/2000/svg">
  <g transform="matrix(1.0, 0.0, 0.0, 1.0, 248.85, 249.45)">
    <path d="M-238.6 -249.45 L-238.6 95.65 -51.1 95.65 -51.1 60.4 Q-39.05 60.25 -33.55 56.3 L-33.4 56.2 Q-24.9 51.25 -21.5 39.25 L-21.5 39.2 Q-19.85 33.5 -19.0 21.55 -18.35 11.0 -17.5 6.95 L-17.5 7.0 Q-16.6 2.4 -14.5 0.1 7.75 -19.25 60.85 -22.25 L88.4 -23.3 88.4 95.65 287.7 95.65 287.7 -249.45 -238.6 -249.45" fill="#ffff00" fill-rule="evenodd" stroke="none">
      <animate attributeName="fill" dur="2s" repeatCount="indefinite" values="#ffff00;#ffff01"/>
      <animate attributeName="fill-opacity" dur="2s" repeatCount="indefinite" values="1.0;1.0"/>
      <animate attributeName="d" dur="2s" repeatCount="indefinite" values="M-238.6 -249.45 L-238.6 95.65 -51.1 95.65 -51.1 60.4 Q-39.05 60.25 -33.55 56.3 L-33.4 56.2 Q-24.9 51.25 -21.5 39.25 L-21.5 39.2 Q-19.85 33.5 -19.0 21.55 -18.35 11.0 -17.5 6.95 L-17.5 7.0 Q-16.6 2.4 -14.5 0.1 7.75 -19.25 60.85 -22.25 L88.4 -23.3 88.4 95.65 287.7 95.65 287.7 -249.45 -238.6 -249.45;M-248.85 -249.45 L-248.85 95.65 -61.35 95.65 -61.35 60.4 Q-49.3 60.25 -43.8 56.3 L-43.65 56.2 Q-35.15 51.25 -31.75 39.25 L-31.75 39.2 Q-30.1 33.5 -29.25 21.55 -28.6 11.0 -27.75 6.95 L-27.75 7.0 Q-26.85 2.4 -24.75 0.1 -2.5 -19.25 50.6 -22.25 L78.15 -23.3 78.15 95.65 277.45 95.65 277.45 -249.45 -248.85 -249.45"/>
    </path>
    <path d="M-238.6 -249.45 L287.7 -249.45 287.7 95.65 88.4 95.65 88.4 -23.3 60.85 -22.25 Q7.75 -19.25 -14.5 0.1 -16.6 2.4 -17.5 7.0 L-17.5 6.95 Q-18.35 11.0 -19.0 21.55 -19.85 33.5 -21.5 39.2 L-21.5 39.25 Q-24.9 51.25 -33.4 56.2 L-33.55 56.3 Q-39.05 60.25 -51.1 60.4 L-51.1 95.65 -238.6 95.65 -238.6 -249.45" fill="none" stroke="#000000" stroke-linecap="round" stroke-linejoin="round" stroke-opacity="0.0" stroke-width="1.0">
      <animate attributeName="stroke" dur="2s" repeatCount="indefinite" values="#000000;#000001"/>
      <animate attributeName="stroke-width" dur="2s" repeatCount="indefinite" values="0.0;0.0"/>
      <animate attributeName="fill-opacity" dur="2s" repeatCount="indefinite" values="0.0;0.0"/>
      <animate attributeName="d" dur="2s" repeatCount="indefinite" values="M-238.6 -249.45 L287.7 -249.45 287.7 95.65 88.4 95.65 88.4 -23.3 60.85 -22.25 Q7.75 -19.25 -14.5 0.1 -16.6 2.4 -17.5 7.0 L-17.5 6.95 Q-18.35 11.0 -19.0 21.55 -19.85 33.5 -21.5 39.2 L-21.5 39.25 Q-24.9 51.25 -33.4 56.2 L-33.55 56.3 Q-39.05 60.25 -51.1 60.4 L-51.1 95.65 -238.6 95.65 -238.6 -249.45;M-248.85 -249.45 L277.45 -249.45 277.45 95.65 78.15 95.65 78.15 -23.3 50.6 -22.25 Q-2.5 -19.25 -24.75 0.1 -26.85 2.4 -27.75 7.0 L-27.75 6.95 Q-28.6 11.0 -29.25 21.55 -30.1 33.5 -31.75 39.2 L-31.75 39.25 Q-35.15 51.25 -43.65 56.2 L-43.8 56.3 Q-49.3 60.25 -61.35 60.4 L-61.35 95.65 -248.85 95.65 -248.85 -249.45"/>
    </path>
  </g>
</svg>
