<?xml version="1.0" encoding="UTF-8" standalone="no"?>
<svg xmlns:xlink="http://www.w3.org/1999/xlink" height="21.7px" width="20.85px" xmlns="http://www.w3.org/2000/svg">
  <g transform="matrix(1.0, 0.0, 0.0, 1.0, 14.3, 3.3)">
    <path d="M-14.3 4.7 L-10.3 18.4 -7.75 15.65 Q-4.9 12.95 -3.3 13.3 -0.75 13.45 1.8 13.55 4.3 12.9 5.95 9.75 7.65 6.55 4.6 3.35 1.8 0.45 -1.75 0.3 -6.55 0.1 -10.95 2.4 -13.1 3.55 -14.3 4.7" fill="#d74533" fill-rule="evenodd" stroke="none">
      <animate attributeName="fill" dur="2s" repeatCount="indefinite" values="#d74533;#d74534"/>
      <animate attributeName="fill-opacity" dur="2s" repeatCount="indefinite" values="1.0;1.0"/>
      <animate attributeName="d" dur="2s" repeatCount="indefinite" values="M-14.3 4.7 L-10.3 18.4 -7.75 15.65 Q-4.9 12.95 -3.3 13.3 -0.75 13.45 1.8 13.55 4.3 12.9 5.95 9.75 7.65 6.55 4.6 3.35 1.8 0.45 -1.75 0.3 -6.55 0.1 -10.95 2.4 -13.1 3.55 -14.3 4.7;M-14.3 4.7 L-10.3 17.3 -7.75 13.85 Q-4.9 10.4 -3.3 10.3 0.0 10.1 1.8 9.2 4.3 7.85 5.95 4.25 7.65 0.6 4.6 -1.8 1.8 -3.9 -1.75 -3.1 -6.55 -2.0 -10.95 1.5 -13.1 3.2 -14.3 4.7"/>
    </path>
    <path d="M-14.3 4.7 Q-13.1 3.55 -10.95 2.4 -6.55 0.1 -1.75 0.3 1.8 0.45 4.6 3.35 7.65 6.55 5.95 9.75 4.3 12.9 1.8 13.55 -0.75 13.45 -3.3 13.3 -4.9 12.95 -7.75 15.65 L-10.3 18.4 -14.3 4.7" fill="none" stroke="#000000" stroke-linecap="round" stroke-linejoin="round" stroke-opacity="0.0" stroke-width="1.0">
      <animate attributeName="stroke" dur="2s" repeatCount="indefinite" values="#000000;#000001"/>
      <animate attributeName="stroke-width" dur="2s" repeatCount="indefinite" values="0.0;0.0"/>
      <animate attributeName="fill-opacity" dur="2s" repeatCount="indefinite" values="0.0;0.0"/>
      <animate attributeName="d" dur="2s" repeatCount="indefinite" values="M-14.3 4.7 Q-13.1 3.55 -10.95 2.4 -6.55 0.1 -1.75 0.3 1.8 0.45 4.6 3.35 7.65 6.55 5.95 9.75 4.3 12.9 1.8 13.55 -0.75 13.45 -3.3 13.3 -4.9 12.95 -7.75 15.65 L-10.3 18.4 -14.3 4.7;M-14.3 4.7 Q-13.1 3.2 -10.95 1.5 -6.55 -2.0 -1.75 -3.1 1.8 -3.9 4.6 -1.8 7.65 0.6 5.95 4.25 4.3 7.85 1.8 9.2 0.0 10.1 -3.3 10.3 -4.9 10.4 -7.75 13.85 L-10.3 17.3 -14.3 4.7"/>
    </path>
  </g>
</svg>
