<?xml version="1.0" encoding="UTF-8" standalone="no"?>
<svg xmlns:xlink="http://www.w3.org/1999/xlink" height="83.9px" width="195.6px" xmlns="http://www.w3.org/2000/svg">
  <g transform="matrix(1.0, 0.0, 0.0, 1.0, 111.45, 139.65)">
    <path d="M-103.85 -55.75 L-103.45 -59.35 Q-103.1 -61.9 -102.8 -64.45 L-102.1 -68.95 Q-99.0 -87.1 -90.6 -102.9 -82.85 -118.0 -60.55 -127.25 -40.15 -136.05 -13.55 -137.5 12.2 -139.05 33.2 -132.85 55.0 -126.8 62.55 -114.45 71.15 -100.25 76.0 -80.45 L77.0 -75.75 Q72.75 -88.55 66.65 -98.6 58.75 -111.55 36.1 -117.8 14.2 -124.15 -12.6 -122.5 -40.2 -121.0 -61.45 -111.9 -84.65 -102.25 -92.65 -86.6 -100.4 -72.1 -103.85 -55.75" fill="#ffcc33" fill-opacity="0.3019608" fill-rule="evenodd" stroke="none">
      <animate attributeName="fill" dur="2s" repeatCount="indefinite" values="#ffcc33;#ffcc34"/>
      <animate attributeName="fill-opacity" dur="2s" repeatCount="indefinite" values="0.3019608;0.3019608"/>
      <animate attributeName="d" dur="2s" repeatCount="indefinite" values="M-103.85 -55.75 L-103.45 -59.35 Q-103.1 -61.9 -102.8 -64.45 L-102.1 -68.95 Q-99.0 -87.1 -90.6 -102.9 -82.85 -118.0 -60.55 -127.25 -40.15 -136.05 -13.55 -137.5 12.2 -139.05 33.2 -132.85 55.0 -126.8 62.55 -114.45 71.15 -100.25 76.0 -80.45 L77.0 -75.75 Q72.75 -88.55 66.65 -98.6 58.75 -111.55 36.1 -117.8 14.2 -124.15 -12.6 -122.5 -40.2 -121.0 -61.45 -111.9 -84.65 -102.25 -92.65 -86.6 -100.4 -72.1 -103.85 -55.75;M-111.45 -60.45 L-111.05 -63.9 Q-110.9 -66.4 -110.35 -68.85 L-109.6 -73.2 Q-106.2 -90.7 -97.15 -105.95 -88.75 -120.55 -64.65 -129.45 -42.55 -137.95 -13.8 -139.35 14.05 -140.85 36.8 -134.9 60.35 -129.05 68.55 -117.1 77.85 -103.4 83.05 -84.3 L84.15 -79.75 Q79.55 -92.1 72.95 -101.8 64.4 -114.3 39.9 -120.35 16.25 -126.5 -12.75 -124.9 -42.6 -123.45 -65.6 -114.65 -90.7 -105.35 -99.35 -90.2 -107.75 -76.2 -111.45 -60.45"/>
    </path>
    <path d="M-103.85 -55.75 Q-100.4 -72.1 -92.65 -86.6 -84.65 -102.25 -61.45 -111.9 -40.2 -121.0 -12.6 -122.5 14.2 -124.15 36.1 -117.8 58.75 -111.55 66.65 -98.6 72.75 -88.55 77.0 -75.75 L76.0 -80.45 Q71.15 -100.25 62.55 -114.45 55.0 -126.8 33.2 -132.85 12.2 -139.05 -13.55 -137.5 -40.15 -136.05 -60.55 -127.25 -82.85 -118.0 -90.6 -102.9 -99.0 -87.1 -102.1 -68.95 L-102.8 -64.45 Q-103.1 -61.9 -103.45 -59.35 L-103.85 -55.75" fill="none" stroke="#000000" stroke-linecap="round" stroke-linejoin="round" stroke-opacity="0.0" stroke-width="1.0">
      <animate attributeName="stroke" dur="2s" repeatCount="indefinite" values="#000000;#000001"/>
      <animate attributeName="stroke-width" dur="2s" repeatCount="indefinite" values="0.0;0.0"/>
      <animate attributeName="fill-opacity" dur="2s" repeatCount="indefinite" values="0.0;0.0"/>
      <animate attributeName="d" dur="2s" repeatCount="indefinite" values="M-103.85 -55.75 Q-100.4 -72.1 -92.65 -86.6 -84.65 -102.25 -61.45 -111.9 -40.2 -121.0 -12.6 -122.5 14.2 -124.15 36.1 -117.8 58.75 -111.55 66.65 -98.6 72.75 -88.55 77.0 -75.75 L76.0 -80.45 Q71.15 -100.25 62.55 -114.45 55.0 -126.8 33.2 -132.85 12.2 -139.05 -13.55 -137.5 -40.15 -136.05 -60.55 -127.25 -82.85 -118.0 -90.6 -102.9 -99.0 -87.1 -102.1 -68.95 L-102.8 -64.45 Q-103.1 -61.9 -103.45 -59.35 L-103.85 -55.75;M-111.45 -60.45 Q-107.75 -76.2 -99.35 -90.2 -90.7 -105.35 -65.6 -114.65 -42.6 -123.45 -12.75 -124.9 16.25 -126.5 39.9 -120.35 64.4 -114.3 72.95 -101.8 79.55 -92.1 84.15 -79.75 L83.05 -84.3 Q77.85 -103.4 68.55 -117.1 60.35 -129.05 36.8 -134.9 14.05 -140.85 -13.8 -139.35 -42.55 -137.95 -64.65 -129.45 -88.75 -120.55 -97.15 -105.95 -106.2 -90.7 -109.6 -73.2 L-110.35 -68.85 Q-110.9 -66.4 -111.05 -63.9 L-111.45 -60.45"/>
    </path>
  </g>
</svg>
