<?xml version="1.0" encoding="UTF-8" standalone="no"?>
<svg xmlns:xlink="http://www.w3.org/1999/xlink" height="243.5px" width="171.5px" xmlns="http://www.w3.org/2000/svg">
  <g transform="matrix(1.0, 0.0, 0.0, 1.0, 85.75, 121.9)">
    <path d="M-52.65 -52.3 L-52.65 60.15 -49.45 69.05 -44.1 71.45 -35.2 73.5 -3.5 73.5 14.55 74.55 45.65 70.75 50.4 65.25 52.3 58.75 52.6 48.15 51.05 -6.35 51.35 -58.45 49.15 -67.75 46.3 -71.5 38.65 -73.9 16.8 -74.9 -8.9 -74.25 -24.75 -72.85 -38.35 -72.85 -48.5 -68.75 -50.75 -62.6 -52.65 -52.3" fill="#8337de" fill-opacity="0.6" fill-rule="evenodd" stroke="none">
      <animate attributeName="fill" dur="2s" repeatCount="indefinite" values="#8337de;#8337df"/>
      <animate attributeName="fill-opacity" dur="2s" repeatCount="indefinite" values="0.6;0.0"/>
      <animate attributeName="d" dur="2s" repeatCount="indefinite" values="M-52.65 -52.3 L-52.65 60.15 -49.45 69.05 -44.1 71.45 -35.2 73.5 -3.5 73.5 14.55 74.55 45.65 70.75 50.4 65.25 52.3 58.75 52.6 48.15 51.05 -6.35 51.35 -58.45 49.15 -67.75 46.3 -71.5 38.65 -73.9 16.8 -74.9 -8.9 -74.25 -24.75 -72.85 -38.35 -72.85 -48.5 -68.75 -50.75 -62.6 -52.65 -52.3;M-85.75 -85.05 L-85.75 98.15 -80.5 112.65 -71.8 116.55 -57.3 119.9 -5.65 119.9 23.75 121.6 74.4 115.4 82.15 106.45 85.25 95.85 85.75 78.6 83.2 -10.2 83.7 -95.1 80.1 -110.25 75.5 -116.35 63.0 -120.25 27.4 -121.9 -14.45 -120.8 -40.25 -118.55 -62.45 -118.55 -78.95 -111.85 -82.65 -101.85 -85.75 -85.05"/>
    </path>
    <path d="M-52.65 -52.3 L-50.75 -62.6 -48.5 -68.75 -38.35 -72.85 -24.75 -72.85 -8.9 -74.25 16.8 -74.9 38.65 -73.9 46.3 -71.5 49.15 -67.75 51.35 -58.45 51.05 -6.35 52.6 48.15 52.3 58.75 50.4 65.25 45.65 70.75 14.55 74.55 -3.5 73.5 -35.2 73.5 -44.1 71.45 -49.45 69.05 -52.65 60.15 -52.65 -52.3" fill="none" stroke="#000000" stroke-linecap="round" stroke-linejoin="round" stroke-opacity="0.0" stroke-width="1.0">
      <animate attributeName="stroke" dur="2s" repeatCount="indefinite" values="#000000;#000001"/>
      <animate attributeName="stroke-width" dur="2s" repeatCount="indefinite" values="0.0;0.0"/>
      <animate attributeName="fill-opacity" dur="2s" repeatCount="indefinite" values="0.0;0.0"/>
      <animate attributeName="d" dur="2s" repeatCount="indefinite" values="M-52.65 -52.3 L-50.75 -62.6 -48.5 -68.75 -38.35 -72.85 -24.75 -72.85 -8.9 -74.25 16.8 -74.9 38.65 -73.9 46.3 -71.5 49.15 -67.75 51.35 -58.45 51.05 -6.35 52.6 48.15 52.3 58.75 50.4 65.25 45.65 70.75 14.55 74.55 -3.5 73.5 -35.2 73.5 -44.1 71.45 -49.45 69.05 -52.65 60.15 -52.65 -52.3;M-85.75 -85.05 L-82.65 -101.85 -78.95 -111.85 -62.45 -118.55 -40.25 -118.55 -14.45 -120.8 27.4 -121.9 63.0 -120.25 75.5 -116.35 80.1 -110.25 83.7 -95.1 83.2 -10.2 85.75 78.6 85.25 95.85 82.15 106.45 74.4 115.4 23.75 121.6 -5.65 119.9 -57.3 119.9 -71.8 116.55 -80.5 112.65 -85.75 98.15 -85.75 -85.05"/>
    </path>
  </g>
</svg>
