<?xml version="1.0" encoding="UTF-8" standalone="no"?>
<svg xmlns:xlink="http://www.w3.org/1999/xlink" height="189.1px" width="182.2px" xmlns="http://www.w3.org/2000/svg">
  <g transform="matrix(1.0, 0.0, 0.0, 1.0, 99.7, 122.35)">
    <path d="M-95.5 -69.0 Q-105.4 -35.15 -92.1 8.2 -86.7 25.8 -78.75 39.8 -71.1 53.3 -64.0 58.5 -57.3 63.4 -38.3 65.5 -20.45 67.45 1.15 66.3 23.3 65.15 39.4 61.25 57.2 56.9 61.45 50.5 66.35 43.15 71.15 29.4 76.55 14.05 79.5 -3.3 87.05 -47.85 75.45 -82.5 67.8 -105.35 41.85 -114.95 18.6 -123.55 -12.3 -119.6 -42.1 -115.8 -65.3 -102.3 -89.9 -88.0 -95.5 -69.0" fill="#70381f" fill-rule="evenodd" stroke="none">
      <animate attributeName="fill" dur="2s" repeatCount="indefinite" values="#70381f;#703820"/>
      <animate attributeName="fill-opacity" dur="2s" repeatCount="indefinite" values="1.0;1.0"/>
      <animate attributeName="d" dur="2s" repeatCount="indefinite" values="M-95.5 -69.0 Q-105.4 -35.15 -92.1 8.2 -86.7 25.8 -78.75 39.8 -71.1 53.3 -64.0 58.5 -57.3 63.4 -38.3 65.5 -20.45 67.45 1.15 66.3 23.3 65.15 39.4 61.25 57.2 56.9 61.45 50.5 66.35 43.15 71.15 29.4 76.55 14.05 79.5 -3.3 87.05 -47.85 75.45 -82.5 67.8 -105.35 41.85 -114.95 18.6 -123.55 -12.3 -119.6 -42.1 -115.8 -65.3 -102.3 -89.9 -88.0 -95.5 -69.0;M-95.5 -70.5 Q-105.4 -36.65 -92.1 6.7 -86.7 24.3 -78.75 38.3 -71.1 51.8 -64.0 57.0 -57.3 61.9 -38.3 64.0 -20.45 65.95 1.15 64.8 23.3 63.65 39.4 59.75 57.2 55.4 61.45 49.0 66.35 41.65 71.15 27.9 76.55 12.55 79.5 -4.8 87.05 -49.35 75.45 -84.0 67.8 -106.85 41.85 -116.45 18.6 -125.05 -12.3 -121.1 -42.1 -117.3 -65.3 -103.8 -89.9 -89.5 -95.5 -70.5"/>
    </path>
    <path d="M-95.5 -69.0 Q-89.9 -88.0 -65.3 -102.3 -42.1 -115.8 -12.3 -119.6 18.6 -123.55 41.85 -114.95 67.8 -105.35 75.45 -82.5 87.05 -47.85 79.5 -3.3 76.55 14.05 71.15 29.4 66.35 43.15 61.45 50.5 57.2 56.9 39.4 61.25 23.3 65.15 1.15 66.3 -20.45 67.45 -38.3 65.5 -57.3 63.4 -64.0 58.5 -71.1 53.3 -78.75 39.8 -86.7 25.8 -92.1 8.2 -105.4 -35.15 -95.5 -69.0" fill="none" stroke="#000000" stroke-linecap="round" stroke-linejoin="round" stroke-opacity="0.0" stroke-width="1.0">
      <animate attributeName="stroke" dur="2s" repeatCount="indefinite" values="#000000;#000001"/>
      <animate attributeName="stroke-width" dur="2s" repeatCount="indefinite" values="0.0;0.0"/>
      <animate attributeName="fill-opacity" dur="2s" repeatCount="indefinite" values="0.0;0.0"/>
      <animate attributeName="d" dur="2s" repeatCount="indefinite" values="M-95.5 -69.0 Q-89.9 -88.0 -65.3 -102.3 -42.1 -115.8 -12.3 -119.6 18.6 -123.55 41.85 -114.95 67.8 -105.35 75.45 -82.5 87.05 -47.85 79.5 -3.3 76.55 14.05 71.15 29.4 66.35 43.15 61.45 50.5 57.2 56.9 39.4 61.25 23.3 65.15 1.15 66.3 -20.45 67.45 -38.3 65.5 -57.3 63.4 -64.0 58.5 -71.1 53.3 -78.75 39.8 -86.7 25.8 -92.1 8.2 -105.4 -35.15 -95.5 -69.0;M-95.5 -70.5 Q-89.9 -89.5 -65.3 -103.8 -42.1 -117.3 -12.3 -121.1 18.6 -125.05 41.85 -116.45 67.8 -106.85 75.45 -84.0 87.05 -49.35 79.5 -4.8 76.55 12.55 71.15 27.9 66.35 41.65 61.45 49.0 57.2 55.4 39.4 59.75 23.3 63.65 1.15 64.8 -20.45 65.95 -38.3 64.0 -57.3 61.9 -64.0 57.0 -71.1 51.8 -78.75 38.3 -86.7 24.3 -92.1 6.7 -105.4 -36.65 -95.5 -70.5"/>
    </path>
  </g>
</svg>
