<?xml version="1.0" encoding="UTF-8" standalone="no"?>
<svg xmlns:xlink="http://www.w3.org/1999/xlink" height="31.7px" width="182.65px" xmlns="http://www.w3.org/2000/svg">
  <g transform="matrix(1.0, 0.0, 0.0, 1.0, 101.25, 56.05)">
    <path d="M-101.25 -24.35 L-99.1 -25.15 Q-63.65 -38.25 -12.65 -40.65 38.35 -43.05 74.9 -33.3 L81.4 -31.4 Q74.25 -39.75 56.85 -45.9 28.1 -56.1 -11.8 -54.25 -51.7 -52.35 -79.3 -39.55 -94.6 -32.45 -101.25 -24.35" fill="#ffcc33" fill-opacity="0.3019608" fill-rule="evenodd" stroke="none">
      <animate attributeName="fill" dur="2s" repeatCount="indefinite" values="#ffcc33;#ffcc34"/>
      <animate attributeName="fill-opacity" dur="2s" repeatCount="indefinite" values="0.3019608;0.3019608"/>
      <animate attributeName="d" dur="2s" repeatCount="indefinite" values="M-101.25 -24.35 L-99.1 -25.15 Q-63.65 -38.25 -12.65 -40.65 38.35 -43.05 74.9 -33.3 L81.4 -31.4 Q74.25 -39.75 56.85 -45.9 28.1 -56.1 -11.8 -54.25 -51.7 -52.35 -79.3 -39.55 -94.6 -32.45 -101.25 -24.35;M-101.25 -25.85 L-99.1 -26.65 Q-63.65 -39.75 -12.65 -42.15 38.35 -44.55 74.9 -34.8 L81.4 -32.9 Q74.25 -41.25 56.85 -47.4 28.1 -57.6 -11.8 -55.75 -51.7 -53.85 -79.3 -41.05 -94.6 -33.95 -101.25 -25.85"/>
    </path>
    <path d="M-101.25 -24.35 Q-94.6 -32.45 -79.3 -39.55 -51.7 -52.35 -11.8 -54.25 28.1 -56.1 56.85 -45.9 74.25 -39.75 81.4 -31.4 L74.9 -33.3 Q38.35 -43.05 -12.65 -40.65 -63.65 -38.25 -99.1 -25.15 L-101.25 -24.35" fill="none" stroke="#000000" stroke-linecap="round" stroke-linejoin="round" stroke-opacity="0.0" stroke-width="1.0">
      <animate attributeName="stroke" dur="2s" repeatCount="indefinite" values="#000000;#000001"/>
      <animate attributeName="stroke-width" dur="2s" repeatCount="indefinite" values="0.0;0.0"/>
      <animate attributeName="fill-opacity" dur="2s" repeatCount="indefinite" values="0.0;0.0"/>
      <animate attributeName="d" dur="2s" repeatCount="indefinite" values="M-101.25 -24.35 Q-94.6 -32.45 -79.3 -39.55 -51.7 -52.35 -11.8 -54.25 28.1 -56.1 56.85 -45.9 74.25 -39.75 81.4 -31.4 L74.9 -33.3 Q38.35 -43.05 -12.65 -40.65 -63.65 -38.25 -99.1 -25.15 L-101.25 -24.35;M-101.25 -25.85 Q-94.6 -33.95 -79.3 -41.05 -51.7 -53.85 -11.8 -55.75 28.1 -57.6 56.85 -47.4 74.25 -41.25 81.4 -32.9 L74.9 -34.8 Q38.35 -44.55 -12.65 -42.15 -63.65 -39.75 -99.1 -26.65 L-101.25 -25.85"/>
    </path>
  </g>
</svg>
