<?xml version="1.0" encoding="UTF-8" standalone="no"?>
<svg xmlns:xlink="http://www.w3.org/1999/xlink" height="20.95px" width="24.6px" xmlns="http://www.w3.org/2000/svg">
  <g transform="matrix(1.0, 0.0, 0.0, 1.0, -19.8, -19.2)">
    <path d="M19.8 29.7 Q20.05 33.85 23.35 36.85 27.0 40.15 32.1 40.15 37.2 40.15 40.8 36.85 44.15 33.85 44.4 29.7 44.15 25.55 40.8 22.5 37.2 19.2 32.1 19.2 27.0 19.2 23.35 22.5 20.05 25.55 19.8 29.7" fill="#e7fffe" fill-rule="evenodd" stroke="none">
      <animate attributeName="fill" dur="2s" repeatCount="indefinite" values="#e7fffe;#85c2c1"/>
      <animate attributeName="fill-opacity" dur="2s" repeatCount="indefinite" values="1.0;1.0"/>
      <animate attributeName="d" dur="2s" repeatCount="indefinite" values="M19.8 29.7 Q20.05 33.85 23.35 36.85 27.0 40.15 32.1 40.15 37.2 40.15 40.8 36.85 44.15 33.85 44.4 29.7 44.15 25.55 40.8 22.5 37.2 19.2 32.1 19.2 27.0 19.2 23.35 22.5 20.05 25.55 19.8 29.7;M19.8 29.7 Q20.05 33.85 23.35 36.85 27.0 40.15 32.1 40.15 37.2 40.15 40.8 36.85 44.15 33.85 44.4 29.7 44.15 25.55 40.8 22.5 37.2 19.2 32.1 19.2 27.0 19.2 23.35 22.5 20.05 25.55 19.8 29.7"/>
    </path>
    <path d="M19.8 29.7 Q20.05 25.55 23.35 22.5 27.0 19.2 32.1 19.2 37.2 19.2 40.8 22.5 44.15 25.55 44.4 29.7 44.15 33.85 40.8 36.85 37.2 40.15 32.1 40.15 27.0 40.15 23.35 36.85 20.05 33.85 19.8 29.7" fill="none" stroke="#000000" stroke-linecap="round" stroke-linejoin="round" stroke-opacity="0.0" stroke-width="1.0">
      <animate attributeName="stroke" dur="2s" repeatCount="indefinite" values="#000000;#000001"/>
      <animate attributeName="stroke-width" dur="2s" repeatCount="indefinite" values="0.0;0.0"/>
      <animate attributeName="fill-opacity" dur="2s" repeatCount="indefinite" values="0.0;0.0"/>
      <animate attributeName="d" dur="2s" repeatCount="indefinite" values="M19.8 29.7 Q20.05 25.55 23.35 22.5 27.0 19.2 32.1 19.2 37.2 19.2 40.8 22.5 44.15 25.55 44.4 29.7 44.15 33.85 40.8 36.85 37.2 40.15 32.1 40.15 27.0 40.15 23.35 36.85 20.05 33.85 19.8 29.7;M19.8 29.7 Q20.05 25.55 23.35 22.5 27.0 19.2 32.1 19.2 37.2 19.2 40.8 22.5 44.15 25.55 44.4 29.7 44.15 33.85 40.8 36.85 37.2 40.15 32.1 40.15 27.0 40.15 23.35 36.85 20.05 33.85 19.8 29.7"/>
    </path>
  </g>
</svg>
