<?xml version="1.0" encoding="UTF-8" standalone="no"?>
<svg xmlns:xlink="http://www.w3.org/1999/xlink" height="32.75px" width="42.05px" xmlns="http://www.w3.org/2000/svg">
  <g transform="matrix(1.0, 0.0, 0.0, 1.0, -24.0, 24.95)">
    <path d="M33.3 -8.6 Q33.3 -1.8 38.1 3.0 42.9 7.8 49.65 7.8 56.45 7.8 61.25 3.0 66.05 -1.8 66.05 -8.55 66.05 -15.35 61.25 -20.15 56.45 -24.95 49.65 -24.95 42.9 -24.95 38.1 -20.15 33.3 -15.35 33.3 -8.6" fill="#000000" fill-rule="evenodd" stroke="none">
      <animate attributeName="fill" dur="2s" repeatCount="indefinite" values="#000000;#000001"/>
      <animate attributeName="fill-opacity" dur="2s" repeatCount="indefinite" values="1.0;1.0"/>
      <animate attributeName="d" dur="2s" repeatCount="indefinite" values="M33.3 -8.6 Q33.3 -1.8 38.1 3.0 42.9 7.8 49.65 7.8 56.45 7.8 61.25 3.0 66.05 -1.8 66.05 -8.55 66.05 -15.35 61.25 -20.15 56.45 -24.95 49.65 -24.95 42.9 -24.95 38.1 -20.15 33.3 -15.35 33.3 -8.6;M24.0 -8.6 Q24.0 -1.8 28.8 3.0 33.6 7.8 40.35 7.8 47.15 7.8 51.95 3.0 56.75 -1.8 56.75 -8.55 56.75 -15.35 51.95 -20.15 47.15 -24.95 40.35 -24.95 33.6 -24.95 28.8 -20.15 24.0 -15.35 24.0 -8.6"/>
    </path>
    <path d="M33.3 -8.6 Q33.3 -15.35 38.1 -20.15 42.9 -24.95 49.65 -24.95 56.45 -24.95 61.25 -20.15 66.05 -15.35 66.05 -8.55 66.05 -1.8 61.25 3.0 56.45 7.8 49.65 7.8 42.9 7.8 38.1 3.0 33.3 -1.8 33.3 -8.6" fill="none" stroke="#000000" stroke-linecap="round" stroke-linejoin="round" stroke-opacity="0.0" stroke-width="1.0">
      <animate attributeName="stroke" dur="2s" repeatCount="indefinite" values="#000000;#000001"/>
      <animate attributeName="stroke-width" dur="2s" repeatCount="indefinite" values="0.0;0.0"/>
      <animate attributeName="fill-opacity" dur="2s" repeatCount="indefinite" values="0.0;0.0"/>
      <animate attributeName="d" dur="2s" repeatCount="indefinite" values="M33.3 -8.6 Q33.3 -15.35 38.1 -20.15 42.9 -24.95 49.65 -24.95 56.45 -24.95 61.25 -20.15 66.05 -15.35 66.05 -8.55 66.05 -1.8 61.25 3.0 56.45 7.8 49.65 7.8 42.9 7.8 38.1 3.0 33.3 -1.8 33.3 -8.6;M24.0 -8.6 Q24.0 -15.35 28.8 -20.15 33.6 -24.95 40.35 -24.95 47.15 -24.95 51.95 -20.15 56.75 -15.35 56.75 -8.55 56.75 -1.8 51.95 3.0 47.15 7.8 40.35 7.8 33.6 7.8 28.8 3.0 24.0 -1.8 24.0 -8.6"/>
    </path>
  </g>
</svg>
