<?xml version="1.0" encoding="UTF-8" standalone="no"?>
<svg xmlns:xlink="http://www.w3.org/1999/xlink" height="154.6px" width="88.55px" xmlns="http://www.w3.org/2000/svg">
  <g transform="matrix(1.0, 0.0, 0.0, 1.0, 246.05, 32.75)">
    <path d="M-184.65 72.2 L-184.25 75.95 -171.85 100.25 -158.35 76.55 -157.75 72.8 Q-157.25 68.3 -157.85 64.55 -159.5 52.5 -170.75 52.25 -182.0 52.0 -184.3 63.95 -184.95 67.7 -184.65 72.2 M-223.85 42.9 Q-222.95 45.75 -221.2 48.75 L-219.55 51.15 -202.45 63.5 Q-202.0 52.95 -202.45 39.65 -203.7 36.35 -205.45 33.95 -210.85 26.3 -218.7 30.1 -226.5 33.9 -223.85 42.9 M-230.8 93.25 Q-229.6 97.15 -227.15 101.35 L-224.9 104.75 -201.1 121.85 -199.9 92.6 -201.15 88.7 Q-202.85 84.15 -205.25 80.85 -212.8 70.15 -223.65 75.45 -234.5 80.75 -230.8 93.25" fill="#b5f0ff" fill-rule="evenodd" stroke="none">
      <animate attributeName="fill" dur="2s" repeatCount="indefinite" values="#b5f0ff;#b5f0ff"/>
      <animate attributeName="fill-opacity" dur="2s" repeatCount="indefinite" values="1.0;0.0"/>
      <animate attributeName="d" dur="2s" repeatCount="indefinite" values="M-184.65 72.2 L-184.25 75.95 -171.85 100.25 -158.35 76.55 -157.75 72.8 Q-157.25 68.3 -157.85 64.55 -159.5 52.5 -170.75 52.25 -182.0 52.0 -184.3 63.95 -184.95 67.7 -184.65 72.2 M-223.85 42.9 Q-222.95 45.75 -221.2 48.75 L-219.55 51.15 -202.45 63.5 Q-202.0 52.95 -202.45 39.65 -203.7 36.35 -205.45 33.95 -210.85 26.3 -218.7 30.1 -226.5 33.9 -223.85 42.9 M-230.8 93.25 Q-229.6 97.15 -227.15 101.35 L-224.9 104.75 -201.1 121.85 -199.9 92.6 -201.15 88.7 Q-202.85 84.15 -205.25 80.85 -212.8 70.15 -223.65 75.45 -234.5 80.75 -230.8 93.25;M-198.95 10.6 L-198.55 14.35 -186.15 38.65 -172.65 14.95 -172.05 11.2 Q-171.55 6.7 -172.15 2.95 -173.8 -9.1 -185.05 -9.35 -196.3 -9.6 -198.6 2.35 -199.25 6.1 -198.95 10.6 M-238.15 -18.7 Q-237.25 -15.85 -235.5 -12.85 L-233.85 -10.45 -216.75 1.9 Q-216.3 -8.65 -216.75 -21.95 -218.0 -25.25 -219.75 -27.65 -225.15 -35.3 -233.0 -31.5 -240.8 -27.7 -238.15 -18.7 M-245.1 31.65 Q-243.9 35.55 -241.45 39.75 L-239.2 43.15 -215.4 60.25 -214.2 31.0 -215.45 27.1 Q-217.15 22.55 -219.55 19.25 -227.1 8.55 -237.95 13.85 -248.8 19.15 -245.1 31.65"/>
    </path>
    <path d="M-230.8 93.25 Q-234.5 80.75 -223.65 75.45 -212.8 70.15 -205.25 80.85 -202.85 84.15 -201.15 88.7 L-199.9 92.6 -201.1 121.85 -224.9 104.75 -227.15 101.35 Q-229.6 97.15 -230.8 93.25 M-223.85 42.9 Q-226.5 33.9 -218.7 30.1 -210.85 26.3 -205.45 33.95 -203.7 36.35 -202.45 39.65 -202.0 52.95 -202.45 63.5 L-219.55 51.15 -221.2 48.75 Q-222.95 45.75 -223.85 42.9 M-184.65 72.2 Q-184.95 67.7 -184.3 63.95 -182.0 52.0 -170.75 52.25 -159.5 52.5 -157.85 64.55 -157.25 68.3 -157.75 72.8 L-158.35 76.55 -171.85 100.25 -184.25 75.95 -184.65 72.2" fill="none" stroke="#000000" stroke-linecap="round" stroke-linejoin="round" stroke-opacity="0.0" stroke-width="1.0">
      <animate attributeName="stroke" dur="2s" repeatCount="indefinite" values="#000000;#000001"/>
      <animate attributeName="stroke-width" dur="2s" repeatCount="indefinite" values="0.0;0.0"/>
      <animate attributeName="fill-opacity" dur="2s" repeatCount="indefinite" values="0.0;0.0"/>
      <animate attributeName="d" dur="2s" repeatCount="indefinite" values="M-230.8 93.25 Q-234.5 80.75 -223.65 75.45 -212.8 70.15 -205.25 80.85 -202.85 84.15 -201.15 88.7 L-199.9 92.6 -201.1 121.85 -224.9 104.75 -227.15 101.35 Q-229.6 97.15 -230.8 93.25 M-223.85 42.9 Q-226.5 33.9 -218.7 30.1 -210.85 26.3 -205.45 33.95 -203.7 36.35 -202.45 39.65 -202.0 52.95 -202.45 63.5 L-219.55 51.15 -221.2 48.75 Q-222.95 45.75 -223.85 42.9 M-184.65 72.2 Q-184.95 67.7 -184.3 63.95 -182.0 52.0 -170.75 52.25 -159.5 52.5 -157.85 64.55 -157.25 68.3 -157.75 72.8 L-158.35 76.55 -171.85 100.25 -184.25 75.95 -184.65 72.2;M-245.1 31.65 Q-248.8 19.15 -237.95 13.85 -227.1 8.55 -219.55 19.25 -217.15 22.55 -215.45 27.1 L-214.2 31.0 -215.4 60.25 -239.2 43.15 -241.45 39.75 Q-243.9 35.55 -245.1 31.65 M-238.15 -18.7 Q-240.8 -27.7 -233.0 -31.5 -225.15 -35.3 -219.75 -27.65 -218.0 -25.25 -216.75 -21.95 -216.3 -8.65 -216.75 1.9 L-233.85 -10.45 -235.5 -12.85 Q-237.25 -15.85 -238.15 -18.7 M-198.95 10.6 Q-199.25 6.1 -198.6 2.35 -196.3 -9.6 -185.05 -9.35 -173.8 -9.1 -172.15 2.95 -171.55 6.7 -172.05 11.2 L-172.65 14.95 -186.15 38.65 -198.55 14.35 -198.95 10.6"/>
    </path>
  </g>
</svg>
