<?xml version="1.0" encoding="UTF-8" standalone="no"?>
<svg xmlns:xlink="http://www.w3.org/1999/xlink" height="20.3px" width="9.7px" xmlns="http://www.w3.org/2000/svg">
  <g transform="matrix(1.0, 0.0, 0.0, 1.0, -30.35, -23.8)">
    <path d="M30.35 27.75 Q30.95 28.2 31.85 28.5 L32.05 28.55 Q32.15 29.1 33.7 30.1 L33.7 30.1 Q35.65 31.3 37.75 31.3 L38.2 31.25 Q39.05 31.1 39.55 30.35 L39.85 29.65 39.95 28.9 40.0 27.65 39.85 26.55 39.2 25.25 38.7 24.95 38.3 24.75 37.75 24.35 36.95 23.8 36.55 24.0 36.5 24.0 36.15 24.1 35.55 24.3 33.45 25.0 32.8 25.5 32.6 25.75 32.1 26.6 30.55 27.75 30.35 27.75" fill="#ffffff" fill-rule="evenodd" stroke="none">
      <animate attributeName="fill" dur="2s" repeatCount="indefinite" values="#ffffff;#ffffff"/>
      <animate attributeName="fill-opacity" dur="2s" repeatCount="indefinite" values="1.0;1.0"/>
      <animate attributeName="d" dur="2s" repeatCount="indefinite" values="M30.35 27.75 Q30.95 28.2 31.85 28.5 L32.05 28.55 Q32.15 29.1 33.7 30.1 L33.7 30.1 Q35.65 31.3 37.75 31.3 L38.2 31.25 Q39.05 31.1 39.55 30.35 L39.85 29.65 39.95 28.9 40.0 27.65 39.85 26.55 39.2 25.25 38.7 24.95 38.3 24.75 37.75 24.35 36.95 23.8 36.55 24.0 36.5 24.0 36.15 24.1 35.55 24.3 33.45 25.0 32.8 25.5 32.6 25.75 32.1 26.6 30.55 27.75 30.35 27.75;M30.5 31.35 Q30.55 32.35 31.0 33.6 L30.9 33.85 Q30.65 34.6 30.95 36.8 L31.05 37.1 Q31.55 40.1 33.2 42.4 L33.7 43.0 Q34.55 44.1 35.6 44.1 L36.6 43.85 37.45 43.3 38.3 42.15 39.2 40.8 39.85 39.05 40.0 38.1 40.05 37.3 39.8 36.6 39.5 35.65 39.15 34.8 39.15 34.7 38.9 34.0 38.45 33.7 35.95 32.35 35.25 31.95 34.7 31.8 33.35 31.95 30.7 31.65 30.5 31.35"/>
    </path>
    <path d="M30.35 27.75 L30.55 27.75 32.1 26.6 32.6 25.75 32.8 25.5 33.45 25.0 35.55 24.3 36.15 24.1 36.5 24.0 36.55 24.0 36.95 23.8 37.75 24.35 38.3 24.75 38.7 24.95 39.2 25.25 39.85 26.55 40.0 27.65 39.95 28.9 39.85 29.65 39.55 30.35 Q39.05 31.1 38.2 31.25 L37.75 31.3 Q35.65 31.3 33.7 30.1 L33.7 30.1 Q32.15 29.1 32.05 28.55 L31.85 28.5 Q30.95 28.2 30.35 27.75" fill="none" stroke="#000000" stroke-linecap="round" stroke-linejoin="round" stroke-opacity="0.0" stroke-width="1.0">
      <animate attributeName="stroke" dur="2s" repeatCount="indefinite" values="#000000;#000001"/>
      <animate attributeName="stroke-width" dur="2s" repeatCount="indefinite" values="0.0;0.0"/>
      <animate attributeName="fill-opacity" dur="2s" repeatCount="indefinite" values="0.0;0.0"/>
      <animate attributeName="d" dur="2s" repeatCount="indefinite" values="M30.35 27.75 L30.55 27.75 32.1 26.6 32.6 25.75 32.8 25.5 33.45 25.0 35.55 24.3 36.15 24.1 36.5 24.0 36.55 24.0 36.95 23.8 37.75 24.35 38.3 24.75 38.7 24.95 39.2 25.25 39.85 26.55 40.0 27.65 39.95 28.9 39.85 29.65 39.55 30.35 Q39.05 31.1 38.2 31.25 L37.75 31.3 Q35.65 31.3 33.7 30.1 L33.7 30.1 Q32.15 29.1 32.05 28.55 L31.85 28.5 Q30.95 28.2 30.35 27.75;M30.5 31.35 L30.7 31.65 33.35 31.95 34.7 31.8 35.25 31.95 35.95 32.35 38.45 33.7 38.9 34.0 39.15 34.7 39.15 34.8 39.5 35.65 39.8 36.6 40.05 37.3 40.0 38.1 39.85 39.05 39.2 40.8 38.3 42.15 37.45 43.3 36.6 43.85 35.6 44.1 Q34.55 44.1 33.7 43.0 L33.2 42.4 Q31.55 40.1 31.05 37.1 L30.95 36.8 Q30.65 34.6 30.9 33.85 L31.0 33.6 Q30.55 32.35 30.5 31.35"/>
    </path>
  </g>
</svg>
