<?xml version="1.0" encoding="UTF-8" standalone="no"?>
<svg xmlns:xlink="http://www.w3.org/1999/xlink" height="23.05px" width="9.7px" xmlns="http://www.w3.org/2000/svg">
  <g transform="matrix(1.0, 0.0, 0.0, 1.0, -30.35, -21.05)">
    <path d="M30.5 31.35 Q30.55 32.35 31.0 33.6 L30.9 33.85 Q30.65 34.6 30.95 36.8 L31.05 37.1 Q31.55 40.1 33.2 42.4 L33.7 43.0 Q34.55 44.1 35.6 44.1 L36.6 43.85 37.45 43.3 38.3 42.15 39.2 40.8 39.85 39.05 40.0 38.1 40.05 37.3 39.8 36.6 39.5 35.65 39.15 34.8 39.15 34.7 38.9 34.0 38.45 33.7 35.95 32.35 35.25 31.95 34.7 31.8 33.35 31.95 30.7 31.65 30.5 31.35" fill="#ffffff" fill-rule="evenodd" stroke="none">
      <animate attributeName="fill" dur="2s" repeatCount="indefinite" values="#ffffff;#ffffff"/>
      <animate attributeName="fill-opacity" dur="2s" repeatCount="indefinite" values="1.0;1.0"/>
      <animate attributeName="d" dur="2s" repeatCount="indefinite" values="M30.5 31.35 Q30.55 32.35 31.0 33.6 L30.9 33.85 Q30.65 34.6 30.95 36.8 L31.05 37.1 Q31.55 40.1 33.2 42.4 L33.7 43.0 Q34.55 44.1 35.6 44.1 L36.6 43.85 37.45 43.3 38.3 42.15 39.2 40.8 39.85 39.05 40.0 38.1 40.05 37.3 39.8 36.6 39.5 35.65 39.15 34.8 39.15 34.7 38.9 34.0 38.45 33.7 35.95 32.35 35.25 31.95 34.7 31.8 33.35 31.95 30.7 31.65 30.5 31.35;M30.35 25.0 Q30.95 25.45 31.85 25.75 L32.05 25.8 Q32.15 26.35 33.7 27.35 L33.7 27.35 Q35.65 28.55 37.75 28.55 L38.2 28.5 Q39.05 28.35 39.55 27.6 L39.85 26.9 39.95 26.15 40.0 24.9 39.85 23.8 39.2 22.5 38.7 22.2 38.3 22.0 37.75 21.6 36.95 21.05 36.55 21.25 36.5 21.25 36.15 21.35 35.55 21.55 33.45 22.25 32.8 22.75 32.6 23.0 32.1 23.85 30.55 25.0 30.35 25.0"/>
    </path>
    <path d="M30.5 31.35 L30.7 31.65 33.35 31.95 34.7 31.8 35.25 31.95 35.95 32.35 38.45 33.7 38.9 34.0 39.15 34.7 39.15 34.8 39.5 35.65 39.8 36.6 40.05 37.3 40.0 38.1 39.85 39.05 39.2 40.8 38.3 42.15 37.45 43.3 36.6 43.85 35.6 44.1 Q34.55 44.1 33.7 43.0 L33.2 42.4 Q31.55 40.1 31.05 37.1 L30.95 36.8 Q30.65 34.6 30.9 33.85 L31.0 33.6 Q30.55 32.35 30.5 31.35" fill="none" stroke="#000000" stroke-linecap="round" stroke-linejoin="round" stroke-opacity="0.0" stroke-width="1.0">
      <animate attributeName="stroke" dur="2s" repeatCount="indefinite" values="#000000;#000001"/>
      <animate attributeName="stroke-width" dur="2s" repeatCount="indefinite" values="0.0;0.0"/>
      <animate attributeName="fill-opacity" dur="2s" repeatCount="indefinite" values="0.0;0.0"/>
      <animate attributeName="d" dur="2s" repeatCount="indefinite" values="M30.5 31.35 L30.7 31.65 33.35 31.95 34.7 31.8 35.25 31.95 35.95 32.35 38.45 33.7 38.9 34.0 39.15 34.7 39.15 34.8 39.5 35.65 39.8 36.6 40.05 37.3 40.0 38.1 39.85 39.05 39.2 40.8 38.3 42.15 37.45 43.3 36.6 43.85 35.6 44.1 Q34.55 44.1 33.7 43.0 L33.2 42.4 Q31.55 40.1 31.05 37.1 L30.95 36.8 Q30.65 34.6 30.9 33.85 L31.0 33.6 Q30.55 32.35 30.5 31.35;M30.35 25.0 L30.55 25.0 32.1 23.85 32.6 23.0 32.8 22.75 33.45 22.25 35.55 21.55 36.15 21.35 36.5 21.25 36.55 21.25 36.95 21.05 37.75 21.6 38.3 22.0 38.7 22.2 39.2 22.5 39.85 23.8 40.0 24.9 39.95 26.15 39.85 26.9 39.55 27.6 Q39.05 28.35 38.2 28.5 L37.75 28.55 Q35.65 28.55 33.7 27.35 L33.7 27.35 Q32.15 26.35 32.05 25.8 L31.85 25.75 Q30.95 25.45 30.35 25.0"/>
    </path>
  </g>
</svg>
