<?xml version="1.0" encoding="UTF-8" standalone="no"?>
<svg xmlns:xlink="http://www.w3.org/1999/xlink" height="25.6px" width="61.0px" xmlns="http://www.w3.org/2000/svg">
  <g transform="matrix(1.0, 0.0, 0.0, 1.0, 0.0, 0.0)">
    <path d="M3.75 11.65 Q3.75 16.1 11.6 19.2 19.4 22.35 30.5 22.35 41.65 22.35 49.4 19.2 57.25 16.1 57.25 11.65 57.25 7.2 49.4 4.1 41.65 0.95 30.5 0.95 19.4 0.95 11.6 4.1 3.75 7.2 3.75 11.65 M0.0 12.8 Q0.0 18.1 8.9 21.85 17.85 25.6 30.5 25.6 43.15 25.6 52.05 21.85 61.0 18.1 61.0 12.8 61.0 7.5 52.05 3.75 43.15 0.0 30.5 0.0 17.85 0.0 8.9 3.75 0.0 7.5 0.0 12.8" fill="url(#gradient0)" fill-rule="evenodd" stroke="none">
      <animate attributeName="d" dur="2s" repeatCount="indefinite" values="M3.75 11.65 Q3.75 16.1 11.6 19.2 19.4 22.35 30.5 22.35 41.65 22.35 49.4 19.2 57.25 16.1 57.25 11.65 57.25 7.2 49.4 4.1 41.65 0.95 30.5 0.95 19.4 0.95 11.6 4.1 3.75 7.2 3.75 11.65 M0.0 12.8 Q0.0 18.1 8.9 21.85 17.85 25.6 30.5 25.6 43.15 25.6 52.05 21.85 61.0 18.1 61.0 12.8 61.0 7.5 52.05 3.75 43.15 0.0 30.5 0.0 17.85 0.0 8.9 3.75 0.0 7.5 0.0 12.8;M3.75 11.65 Q3.75 16.1 11.6 19.2 19.4 22.35 30.5 22.35 41.65 22.35 49.4 19.2 57.25 16.1 57.25 11.65 57.25 7.2 49.4 4.1 41.65 0.95 30.5 0.95 19.4 0.95 11.6 4.1 3.75 7.2 3.75 11.65 M0.0 12.8 Q0.0 18.1 8.9 21.85 17.85 25.6 30.5 25.6 43.15 25.6 52.05 21.85 61.0 18.1 61.0 12.8 61.0 7.5 52.05 3.75 43.15 0.0 30.5 0.0 17.85 0.0 8.9 3.75 0.0 7.5 0.0 12.8"/>
    </path>
    <path d="M0.0 12.8 Q0.0 7.5 8.9 3.75 17.85 0.0 30.5 0.0 43.15 0.0 52.05 3.75 61.0 7.5 61.0 12.8 61.0 18.1 52.05 21.85 43.15 25.6 30.5 25.6 17.85 25.6 8.9 21.85 0.0 18.1 0.0 12.8 M3.75 11.65 Q3.75 7.2 11.6 4.1 19.4 0.95 30.5 0.95 41.65 0.95 49.4 4.1 57.25 7.2 57.25 11.65 57.25 16.1 49.4 19.2 41.65 22.35 30.5 22.35 19.4 22.35 11.6 19.2 3.75 16.1 3.75 11.65" fill="none" stroke="#000000" stroke-linecap="round" stroke-linejoin="round" stroke-opacity="0.0" stroke-width="1.0">
      <animate attributeName="stroke" dur="2s" repeatCount="indefinite" values="#000000;#000001"/>
      <animate attributeName="stroke-width" dur="2s" repeatCount="indefinite" values="0.0;0.0"/>
      <animate attributeName="fill-opacity" dur="2s" repeatCount="indefinite" values="0.0;0.0"/>
      <animate attributeName="d" dur="2s" repeatCount="indefinite" values="M0.0 12.8 Q0.0 7.5 8.9 3.75 17.85 0.0 30.5 0.0 43.15 0.0 52.05 3.75 61.0 7.5 61.0 12.8 61.0 18.1 52.05 21.85 43.15 25.6 30.5 25.6 17.85 25.6 8.9 21.85 0.0 18.1 0.0 12.8 M3.75 11.65 Q3.75 7.2 11.6 4.1 19.4 0.95 30.5 0.95 41.65 0.95 49.4 4.1 57.25 7.2 57.25 11.65 57.25 16.1 49.4 19.2 41.65 22.35 30.5 22.35 19.4 22.35 11.6 19.2 3.75 16.1 3.75 11.65;M0.0 12.8 Q0.0 7.5 8.9 3.75 17.85 0.0 30.5 0.0 43.15 0.0 52.05 3.75 61.0 7.5 61.0 12.8 61.0 18.1 52.05 21.85 43.15 25.6 30.5 25.6 17.85 25.6 8.9 21.85 0.0 18.1 0.0 12.8 M3.75 11.65 Q3.75 7.2 11.6 4.1 19.4 0.95 30.5 0.95 41.65 0.95 49.4 4.1 57.25 7.2 57.25 11.65 57.25 16.1 49.4 19.2 41.65 22.35 30.5 22.35 19.4 22.35 11.6 19.2 3.75 16.1 3.75 11.65"/>
    </path>
  </g>
  <defs>
    <radialGradient cx="0" cy="0" gradientTransform="matrix(0.0268, 0.0, 0.0, 0.0268, 43.3, 2.3)" gradientUnits="userSpaceOnUse" id="gradient0" r="819.2" spreadMethod="pad">
      <animateTransform additive="replace" attributeName="gradientTransform" dur="2s" from="1" repeatCount="indefinite" to="1" type="scale"/>
      <animateTransform additive="sum" attributeName="gradientTransform" dur="2s" from="43.3 2.3" repeatCount="indefinite" to="18.55 1.3" type="translate"/>
      <animateTransform additive="sum" attributeName="gradientTransform" dur="2s" from="0.0" repeatCount="indefinite" to="0.0" type="rotate"/>
      <animateTransform additive="sum" attributeName="gradientTransform" dur="2s" from="0.0268 0.0268" repeatCount="indefinite" to="0.0268 0.0268" type="scale"/>
      <animateTransform additive="sum" attributeName="gradientTransform" dur="2s" from="0.0" repeatCount="indefinite" to="0.0" type="skewX"/>
      <stop offset="0.0" stop-color="#ffffff" stop-opacity="0.3019608">
        <animate attributeName="offset" dur="2s" repeatCount="indefinite" values="0.0;0.0"/>
        <animate attributeName="stop-color" dur="2s" repeatCount="indefinite" values="#ffffff;#ffffff"/>
        <animate attributeName="stop-opacity" dur="2s" repeatCount="indefinite" values="0.3019608;0.30980393"/>
      </stop>
      <stop offset="1.0" stop-color="#ffffff" stop-opacity="0.0">
        <animate attributeName="offset" dur="2s" repeatCount="indefinite" values="1.0;1.0"/>
        <animate attributeName="stop-color" dur="2s" repeatCount="indefinite" values="#ffffff;#ffffff"/>
        <animate attributeName="stop-opacity" dur="2s" repeatCount="indefinite" values="0.0;0.0"/>
      </stop>
    </radialGradient>
  </defs>
</svg>
