<?xml version="1.0" encoding="UTF-8" standalone="no"?>
<svg xmlns:xlink="http://www.w3.org/1999/xlink" height="27.65px" width="14.9px" xmlns="http://www.w3.org/2000/svg">
  <g transform="matrix(1.0, 0.0, 0.0, 1.0, 15.25, 23.6)">
    <path d="M-15.25 1.6 Q-14.85 4.05 -11.85 4.05 -4.7 4.05 -1.9 -1.15 -0.6 -3.85 -0.35 -8.8 -0.2 -10.85 -2.4 -11.25 -4.5 -11.65 -7.45 -10.4 -10.45 -9.15 -12.6 -6.85 -15.0 -4.2 -15.15 -0.95 L-15.25 1.6" fill="#b1e939" fill-rule="evenodd" stroke="none">
      <animate attributeName="fill" dur="2s" repeatCount="indefinite" values="#b1e939;#b1e93a"/>
      <animate attributeName="fill-opacity" dur="2s" repeatCount="indefinite" values="1.0;0.0"/>
      <animate attributeName="d" dur="2s" repeatCount="indefinite" values="M-15.25 1.6 Q-14.85 4.05 -11.85 4.05 -4.7 4.05 -1.9 -1.15 -0.6 -3.85 -0.35 -8.8 -0.2 -10.85 -2.4 -11.25 -4.5 -11.65 -7.45 -10.4 -10.45 -9.15 -12.6 -6.85 -15.0 -4.2 -15.15 -0.95 L-15.25 1.6;M-11.95 -16.35 Q-11.75 -15.0 -10.05 -15.0 -6.05 -15.0 -4.5 -17.9 -3.8 -19.4 -3.65 -22.15 -3.55 -23.3 -4.8 -23.55 -5.95 -23.75 -7.6 -23.05 -9.3 -22.35 -10.5 -21.1 -11.85 -19.6 -11.9 -17.8 L-11.95 -16.35"/>
    </path>
    <path d="M-15.25 1.6 L-15.15 -0.95 Q-15.0 -4.2 -12.6 -6.85 -10.45 -9.15 -7.45 -10.4 -4.5 -11.65 -2.4 -11.25 -0.2 -10.85 -0.35 -8.8 -0.6 -3.85 -1.9 -1.15 -4.7 4.05 -11.85 4.05 -14.85 4.05 -15.25 1.6" fill="none" stroke="#000000" stroke-linecap="round" stroke-linejoin="round" stroke-opacity="0.0" stroke-width="1.0">
      <animate attributeName="stroke" dur="2s" repeatCount="indefinite" values="#000000;#000001"/>
      <animate attributeName="stroke-width" dur="2s" repeatCount="indefinite" values="0.0;0.0"/>
      <animate attributeName="fill-opacity" dur="2s" repeatCount="indefinite" values="0.0;0.0"/>
      <animate attributeName="d" dur="2s" repeatCount="indefinite" values="M-15.25 1.6 L-15.15 -0.95 Q-15.0 -4.2 -12.6 -6.85 -10.45 -9.15 -7.45 -10.4 -4.5 -11.65 -2.4 -11.25 -0.2 -10.85 -0.35 -8.8 -0.6 -3.85 -1.9 -1.15 -4.7 4.05 -11.85 4.05 -14.85 4.05 -15.25 1.6;M-11.95 -16.35 L-11.9 -17.8 Q-11.85 -19.6 -10.5 -21.1 -9.3 -22.35 -7.6 -23.05 -5.95 -23.75 -4.8 -23.55 -3.55 -23.3 -3.65 -22.15 -3.8 -19.4 -4.5 -17.9 -6.05 -15.0 -10.05 -15.0 -11.75 -15.0 -11.95 -16.35"/>
    </path>
  </g>
</svg>
