<?xml version="1.0" encoding="UTF-8" standalone="no"?>
<svg xmlns:xlink="http://www.w3.org/1999/xlink" height="25.1px" width="14.9px" xmlns="http://www.w3.org/2000/svg">
  <g transform="matrix(1.0, 0.0, 0.0, 1.0, -32.7, 1.0)">
    <path d="M32.7 21.65 Q33.1 24.1 36.1 24.1 43.25 24.1 46.05 18.9 47.35 16.2 47.6 11.25 47.75 9.2 45.55 8.8 43.45 8.4 40.5 9.65 37.5 10.9 35.35 13.2 32.95 15.85 32.8 19.1 L32.7 21.65" fill="#b1e939" fill-rule="evenodd" stroke="none">
      <animate attributeName="fill" dur="2s" repeatCount="indefinite" values="#b1e939;#b1e93a"/>
      <animate attributeName="fill-opacity" dur="2s" repeatCount="indefinite" values="1.0;0.0"/>
      <animate attributeName="d" dur="2s" repeatCount="indefinite" values="M32.7 21.65 Q33.1 24.1 36.1 24.1 43.25 24.1 46.05 18.9 47.35 16.2 47.6 11.25 47.75 9.2 45.55 8.8 43.45 8.4 40.5 9.65 37.5 10.9 35.35 13.2 32.95 15.85 32.8 19.1 L32.7 21.65;M32.7 11.95 Q33.1 14.4 36.1 14.4 43.25 14.4 46.05 9.2 47.35 6.5 47.6 1.55 47.75 -0.5 45.55 -0.9 43.45 -1.3 40.5 -0.05 37.5 1.2 35.35 3.5 32.95 6.15 32.8 9.4 L32.7 11.95"/>
    </path>
    <path d="M32.7 21.65 L32.8 19.1 Q32.95 15.85 35.35 13.2 37.5 10.9 40.5 9.65 43.45 8.4 45.55 8.8 47.75 9.2 47.6 11.25 47.35 16.2 46.05 18.9 43.25 24.1 36.1 24.1 33.1 24.1 32.7 21.65" fill="none" stroke="#000000" stroke-linecap="round" stroke-linejoin="round" stroke-opacity="0.0" stroke-width="1.0">
      <animate attributeName="stroke" dur="2s" repeatCount="indefinite" values="#000000;#000001"/>
      <animate attributeName="stroke-width" dur="2s" repeatCount="indefinite" values="0.0;0.0"/>
      <animate attributeName="fill-opacity" dur="2s" repeatCount="indefinite" values="0.0;0.0"/>
      <animate attributeName="d" dur="2s" repeatCount="indefinite" values="M32.7 21.65 L32.8 19.1 Q32.95 15.85 35.35 13.2 37.5 10.9 40.5 9.65 43.45 8.4 45.55 8.8 47.75 9.2 47.6 11.25 47.35 16.2 46.05 18.9 43.25 24.1 36.1 24.1 33.1 24.1 32.7 21.65;M32.7 11.95 L32.8 9.4 Q32.95 6.15 35.35 3.5 37.5 1.2 40.5 -0.05 43.45 -1.3 45.55 -0.9 47.75 -0.5 47.6 1.55 47.35 6.5 46.05 9.2 43.25 14.4 36.1 14.4 33.1 14.4 32.7 11.95"/>
    </path>
  </g>
</svg>
