<?xml version="1.0" encoding="UTF-8" standalone="no"?>
<svg xmlns:xlink="http://www.w3.org/1999/xlink" height="68.15px" width="87.1px" xmlns="http://www.w3.org/2000/svg">
  <g transform="matrix(1.0, 0.0, 0.0, 1.0, 45.65, -23.95)">
    <path d="M-45.65 65.3 Q-45.65 76.4 -32.95 84.25 -20.15 92.1 -2.1 92.1 15.95 92.1 28.7 84.25 41.45 76.4 41.45 65.3 41.45 54.15 28.7 46.3 15.95 38.45 -2.1 38.45 -20.15 38.45 -32.95 46.3 -45.65 54.15 -45.65 65.3" fill="#bf7926" fill-rule="evenodd" stroke="none">
      <animate attributeName="fill" dur="2s" repeatCount="indefinite" values="#bf7926;#bf7927"/>
      <animate attributeName="fill-opacity" dur="2s" repeatCount="indefinite" values="1.0;1.0"/>
      <animate attributeName="d" dur="2s" repeatCount="indefinite" values="M-45.65 65.3 Q-45.65 76.4 -32.95 84.25 -20.15 92.1 -2.1 92.1 15.95 92.1 28.7 84.25 41.45 76.4 41.45 65.3 41.45 54.15 28.7 46.3 15.95 38.45 -2.1 38.45 -20.15 38.45 -32.95 46.3 -45.65 54.15 -45.65 65.3;M-45.65 50.8 Q-45.65 61.9 -32.95 69.75 -20.15 77.6 -2.1 77.6 15.95 77.6 28.7 69.75 41.45 61.9 41.45 50.8 41.45 39.65 28.7 31.8 15.95 23.95 -2.1 23.95 -20.15 23.95 -32.95 31.8 -45.65 39.65 -45.65 50.8"/>
    </path>
    <path d="M-45.65 65.3 Q-45.65 54.15 -32.95 46.3 -20.15 38.45 -2.1 38.45 15.95 38.45 28.7 46.3 41.45 54.15 41.45 65.3 41.45 76.4 28.7 84.25 15.95 92.1 -2.1 92.1 -20.15 92.1 -32.95 84.25 -45.65 76.4 -45.65 65.3" fill="none" stroke="#000000" stroke-linecap="round" stroke-linejoin="round" stroke-opacity="0.0" stroke-width="1.0">
      <animate attributeName="stroke" dur="2s" repeatCount="indefinite" values="#000000;#000001"/>
      <animate attributeName="stroke-width" dur="2s" repeatCount="indefinite" values="0.0;0.0"/>
      <animate attributeName="fill-opacity" dur="2s" repeatCount="indefinite" values="0.0;0.0"/>
      <animate attributeName="d" dur="2s" repeatCount="indefinite" values="M-45.65 65.3 Q-45.65 54.15 -32.95 46.3 -20.15 38.45 -2.1 38.45 15.95 38.45 28.7 46.3 41.45 54.15 41.45 65.3 41.45 76.4 28.7 84.25 15.95 92.1 -2.1 92.1 -20.15 92.1 -32.95 84.25 -45.65 76.4 -45.65 65.3;M-45.65 50.8 Q-45.65 39.65 -32.95 31.8 -20.15 23.95 -2.1 23.95 15.95 23.95 28.7 31.8 41.45 39.65 41.45 50.8 41.45 61.9 28.7 69.75 15.95 77.6 -2.1 77.6 -20.15 77.6 -32.95 69.75 -45.65 61.9 -45.65 50.8"/>
    </path>
  </g>
</svg>
