<?xml version="1.0" encoding="UTF-8" standalone="no"?>
<svg xmlns:xlink="http://www.w3.org/1999/xlink" height="32.75px" width="163.05px" xmlns="http://www.w3.org/2000/svg">
  <g transform="matrix(1.0, 0.0, 0.0, 1.0, 93.45, 24.85)">
    <path d="M36.85 -8.5 Q36.85 -1.7 41.65 3.1 46.45 7.9 53.2 7.9 60.0 7.9 64.8 3.1 69.6 -1.7 69.6 -8.45 69.6 -15.25 64.8 -20.05 60.0 -24.85 53.2 -24.85 46.45 -24.85 41.65 -20.05 36.85 -15.25 36.85 -8.5 M-80.95 -8.5 Q-80.95 -1.7 -76.15 3.1 -71.35 7.9 -64.6 7.9 -57.8 7.9 -53.0 3.1 -48.2 -1.7 -48.2 -8.45 -48.2 -15.25 -53.0 -20.05 -57.8 -24.85 -64.6 -24.85 -71.35 -24.85 -76.15 -20.05 -80.95 -15.25 -80.95 -8.5" fill="#000000" fill-rule="evenodd" stroke="none">
      <animate attributeName="fill" dur="2s" repeatCount="indefinite" values="#000000;#000001"/>
      <animate attributeName="fill-opacity" dur="2s" repeatCount="indefinite" values="1.0;1.0"/>
      <animate attributeName="d" dur="2s" repeatCount="indefinite" values="M36.85 -8.5 Q36.85 -1.7 41.65 3.1 46.45 7.9 53.2 7.9 60.0 7.9 64.8 3.1 69.6 -1.7 69.6 -8.45 69.6 -15.25 64.8 -20.05 60.0 -24.85 53.2 -24.85 46.45 -24.85 41.65 -20.05 36.85 -15.25 36.85 -8.5 M-80.95 -8.5 Q-80.95 -1.7 -76.15 3.1 -71.35 7.9 -64.6 7.9 -57.8 7.9 -53.0 3.1 -48.2 -1.7 -48.2 -8.45 -48.2 -15.25 -53.0 -20.05 -57.8 -24.85 -64.6 -24.85 -71.35 -24.85 -76.15 -20.05 -80.95 -15.25 -80.95 -8.5;M24.35 -8.5 Q24.35 -1.7 29.15 3.1 33.95 7.9 40.7 7.9 47.5 7.9 52.3 3.1 57.1 -1.7 57.1 -8.45 57.1 -15.25 52.3 -20.05 47.5 -24.85 40.7 -24.85 33.95 -24.85 29.15 -20.05 24.35 -15.25 24.35 -8.5 M-93.45 -8.5 Q-93.45 -1.7 -88.65 3.1 -83.85 7.9 -77.1 7.9 -70.3 7.9 -65.5 3.1 -60.7 -1.7 -60.7 -8.45 -60.7 -15.25 -65.5 -20.05 -70.3 -24.85 -77.1 -24.85 -83.85 -24.85 -88.65 -20.05 -93.45 -15.25 -93.45 -8.5"/>
    </path>
    <path d="M-80.95 -8.5 Q-80.95 -15.25 -76.15 -20.05 -71.35 -24.85 -64.6 -24.85 -57.8 -24.85 -53.0 -20.05 -48.2 -15.25 -48.2 -8.45 -48.2 -1.7 -53.0 3.1 -57.8 7.9 -64.6 7.9 -71.35 7.9 -76.15 3.1 -80.95 -1.7 -80.95 -8.5 M36.85 -8.5 Q36.85 -15.25 41.65 -20.05 46.45 -24.85 53.2 -24.85 60.0 -24.85 64.8 -20.05 69.6 -15.25 69.6 -8.45 69.6 -1.7 64.8 3.1 60.0 7.9 53.2 7.9 46.45 7.9 41.65 3.1 36.85 -1.7 36.85 -8.5" fill="none" stroke="#000000" stroke-linecap="round" stroke-linejoin="round" stroke-opacity="0.0" stroke-width="1.0">
      <animate attributeName="stroke" dur="2s" repeatCount="indefinite" values="#000000;#000001"/>
      <animate attributeName="stroke-width" dur="2s" repeatCount="indefinite" values="0.0;0.0"/>
      <animate attributeName="fill-opacity" dur="2s" repeatCount="indefinite" values="0.0;0.0"/>
      <animate attributeName="d" dur="2s" repeatCount="indefinite" values="M-80.95 -8.5 Q-80.95 -15.25 -76.15 -20.05 -71.35 -24.85 -64.6 -24.85 -57.8 -24.85 -53.0 -20.05 -48.2 -15.25 -48.2 -8.45 -48.2 -1.7 -53.0 3.1 -57.8 7.9 -64.6 7.9 -71.35 7.9 -76.15 3.1 -80.95 -1.7 -80.95 -8.5 M36.85 -8.5 Q36.85 -15.25 41.65 -20.05 46.45 -24.85 53.2 -24.85 60.0 -24.85 64.8 -20.05 69.6 -15.25 69.6 -8.45 69.6 -1.7 64.8 3.1 60.0 7.9 53.2 7.9 46.45 7.9 41.65 3.1 36.85 -1.7 36.85 -8.5;M-93.45 -8.5 Q-93.45 -15.25 -88.65 -20.05 -83.85 -24.85 -77.1 -24.85 -70.3 -24.85 -65.5 -20.05 -60.7 -15.25 -60.7 -8.45 -60.7 -1.7 -65.5 3.1 -70.3 7.9 -77.1 7.9 -83.85 7.9 -88.65 3.1 -93.45 -1.7 -93.45 -8.5 M24.35 -8.5 Q24.35 -15.25 29.15 -20.05 33.95 -24.85 40.7 -24.85 47.5 -24.85 52.3 -20.05 57.1 -15.25 57.1 -8.45 57.1 -1.7 52.3 3.1 47.5 7.9 40.7 7.9 33.95 7.9 29.15 3.1 24.35 -1.7 24.35 -8.5"/>
    </path>
  </g>
</svg>
