<?xml version="1.0" encoding="UTF-8" standalone="no"?>
<svg xmlns:xlink="http://www.w3.org/1999/xlink" height="71.65px" width="55.65px" xmlns="http://www.w3.org/2000/svg">
  <g transform="matrix(1.0, 0.0, 0.0, 1.0, 21.65, 12.25)">
    <path d="M5.15 -11.0 Q19.8 -14.15 32.25 -9.3 L34.0 3.05 26.65 2.6 Q10.05 2.15 9.1 9.1 8.15 16.05 9.1 21.85 9.6 24.8 10.3 26.3 L9.7 34.95 Q11.25 46.2 14.15 56.1 L5.65 59.4 2.7 56.15 -4.95 58.8 -9.7 55.75 -15.8 56.25 Q-22.5 44.3 -21.5 27.3 -20.75 14.55 -16.25 2.75 -14.55 -1.75 -8.7 -5.5 -2.85 -9.25 5.15 -11.0" fill="#3d91af" fill-rule="evenodd" stroke="none"/>
    <path d="M31.3 -9.65 L32.25 -9.3 34.0 3.05 32.9 2.95 32.35 2.9 26.65 2.6 Q17.45 2.35 13.05 4.4 9.5 6.0 9.1 9.1 8.15 16.05 9.1 21.85 9.6 24.8 10.3 26.3 L10.0 30.65 8.55 32.6 Q6.4 29.2 4.75 23.55 4.95 31.55 3.55 39.55 -2.6 34.6 -5.85 27.65 -4.6 36.5 -6.75 45.15 -12.1 40.05 -14.7 32.65 -14.9 40.15 -17.45 45.65 L-21.0 40.45 Q-21.9 34.3 -21.5 27.3 -20.75 14.55 -16.25 2.75 -14.55 -1.75 -8.7 -5.5 -2.85 -9.25 5.15 -11.0 19.25 -14.05 31.3 -9.65" fill="#ffffff" fill-rule="evenodd" stroke="none"/>
  </g>
</svg>
