<?xml version="1.0" encoding="UTF-8" standalone="no"?>
<svg xmlns:xlink="http://www.w3.org/1999/xlink" height="82.85px" width="64.0px" xmlns="http://www.w3.org/2000/svg">
  <g transform="matrix(1.0, 0.0, 0.0, 1.0, 0.0, 19.3)">
    <path d="M0.0 63.5 L0.0 16.6 64.0 16.6 64.0 63.5 46.65 63.5 46.65 63.55 22.2 63.55 22.2 63.5 0.0 63.5" fill="#8f8f8f" fill-rule="evenodd" stroke="none"/>
    <path d="M64.0 17.35 L64.0 21.75 7.05 63.5 1.05 63.5 64.0 17.35 M64.0 26.15 L64.0 30.55 19.05 63.5 13.05 63.5 64.0 26.15 M64.0 34.95 L64.0 39.35 31.0 63.55 25.0 63.55 64.0 34.95 M64.0 43.75 L64.0 48.15 43.0 63.55 37.0 63.55 64.0 43.75 M64.0 52.55 L64.0 56.95 55.05 63.5 49.05 63.5 64.0 52.55 M64.0 61.35 L64.0 63.5 61.05 63.5 64.0 61.35 M0.0 59.9 L0.0 55.5 53.05 16.6 59.05 16.6 0.0 59.9 M0.0 51.1 L0.0 46.7 41.05 16.6 47.05 16.6 0.0 51.1 M0.0 42.3 L0.0 37.9 29.05 16.6 35.05 16.6 0.0 42.3 M0.0 33.5 L0.0 29.1 17.05 16.6 23.05 16.6 0.0 33.5 M0.0 24.7 L0.0 20.3 5.05 16.6 11.05 16.6 0.0 24.7" fill="#8f8f8f" fill-rule="evenodd" stroke="none"/>
    <path d="M59.05 16.6 L64.0 16.6 64.0 17.35 1.05 63.5 0.0 63.5 0.0 59.9 59.05 16.6 M64.0 21.75 L64.0 26.15 13.05 63.5 7.05 63.5 64.0 21.75 M64.0 30.55 L64.0 34.95 25.0 63.55 22.2 63.55 22.2 63.5 19.05 63.5 64.0 30.55 M64.0 39.35 L64.0 43.75 37.0 63.55 31.0 63.55 64.0 39.35 M64.0 48.15 L64.0 52.55 49.05 63.5 46.65 63.5 46.65 63.55 43.0 63.55 64.0 48.15 M64.0 56.95 L64.0 61.35 61.05 63.5 55.05 63.5 64.0 56.95 M0.0 55.5 L0.0 51.1 47.05 16.6 53.05 16.6 0.0 55.5 M0.0 46.7 L0.0 42.3 35.05 16.6 41.05 16.6 0.0 46.7 M0.0 37.9 L0.0 33.5 23.05 16.6 29.05 16.6 0.0 37.9 M0.0 29.1 L0.0 24.7 11.05 16.6 17.05 16.6 0.0 29.1 M0.0 20.3 L0.0 16.6 5.05 16.6 0.0 20.3" fill="#ffcc00" fill-rule="evenodd" stroke="none"/>
    <path d="M57.85 52.3 L6.55 52.3 6.55 17.15 57.85 17.15 57.85 52.3" fill="#8f8f8f" fill-rule="evenodd" stroke="none"/>
    <path d="M57.85 52.3 L6.55 52.3 6.55 17.15 57.85 17.15 57.85 52.3 Z" fill="none" stroke="#ffcc00" stroke-linecap="round" stroke-linejoin="round" stroke-width="1.5"/>
    <path d="M40.35 -9.75 L59.95 -9.75 59.95 3.25 59.85 3.25 59.15 20.85 2.8 20.6 2.4 15.2 2.55 15.2 2.55 2.85 40.35 2.85 40.35 -9.75" fill="#666666" fill-rule="evenodd" stroke="none"/>
    <path d="M40.35 -9.75 L40.35 2.85 2.55 2.85 2.55 15.2 2.4 15.2 2.8 20.6 59.15 20.85 59.85 3.25 59.95 3.25 59.95 -9.75 40.35 -9.75 Z" fill="none" stroke="#333333" stroke-linecap="round" stroke-linejoin="round" stroke-width="2.0"/>
    <path d="M40.5 2.8 L59.9 2.8 59.15 20.85 2.8 20.6 2.4 15.2 40.2 9.85 40.5 2.8" fill="#999999" fill-rule="evenodd" stroke="none"/>
    <path d="M55.7 19.45 L55.7 16.05 57.3 16.05 57.3 19.45 55.7 19.45 M41.5 10.55 L43.1 10.55 43.1 13.95 41.5 13.95 41.5 10.55 M53.75 8.45 L53.75 5.05 55.35 5.05 55.35 8.45 53.75 8.45 M56.75 8.45 L56.75 5.05 58.35 5.05 58.35 8.45 56.75 8.45" fill="#666666" fill-rule="evenodd" stroke="none"/>
    <path d="M40.35 -9.75 L59.95 -9.75 59.95 3.25 40.55 3.25 40.55 15.85 2.55 15.85 2.55 2.85 40.35 2.85 40.35 -9.75" fill="#cccccc" fill-rule="evenodd" stroke="none"/>
    <path d="M3.75 -18.3 L23.15 -18.3 23.15 12.25 4.55 12.3 3.85 -5.3 3.75 -5.3 3.75 -18.3" fill="#666666" fill-rule="evenodd" stroke="none"/>
    <path d="M3.75 -18.3 L23.15 -18.3 23.15 12.25 4.55 12.3 3.85 -5.3 3.75 -5.3 3.75 -18.3 Z" fill="none" stroke="#333333" stroke-linecap="round" stroke-linejoin="round" stroke-width="2.0"/>
    <path d="M23.15 -5.75 L23.15 12.25 4.55 12.3 3.8 -5.75 23.15 -5.75" fill="#999999" fill-rule="evenodd" stroke="none"/>
    <path d="M5.35 -0.1 L5.35 -3.5 6.95 -3.5 6.95 -0.1 5.35 -0.1 M8.35 -0.1 L8.35 -3.5 9.95 -3.5 9.95 -0.1 8.35 -0.1 M22.2 5.4 L20.6 5.4 20.6 2.0 22.2 2.0 22.2 5.4 M6.4 7.5 L8.0 7.5 8.0 10.9 6.4 10.9 6.4 7.5" fill="#666666" fill-rule="evenodd" stroke="none"/>
    <path d="M3.75 -18.3 L23.15 -18.3 23.15 -5.3 3.75 -5.3 3.75 -18.3" fill="#cccccc" fill-rule="evenodd" stroke="none"/>
    <path d="M56.0 -13.05 L55.5 0.2 46.8 0.25 46.75 -7.4 46.7 -7.4 46.95 -13.05 56.0 -13.05" fill="#666666" fill-rule="evenodd" stroke="none"/>
    <path d="M56.0 -13.05 L55.5 0.2 46.8 0.25 46.75 -7.4 46.7 -7.4 46.95 -13.05 56.0 -13.05 Z" fill="none" stroke="#333333" stroke-linecap="round" stroke-linejoin="round" stroke-width="2.0"/>
    <path d="M55.8 -7.6 L55.5 0.2 46.8 0.25 46.75 -7.6 55.8 -7.6" fill="#999999" fill-rule="evenodd" stroke="none"/>
    <path d="M56.0 -13.05 L55.75 -7.4 46.7 -7.4 46.95 -13.05 56.0 -13.05" fill="#cccccc" fill-rule="evenodd" stroke="none"/>
  </g>
</svg>
