<?xml version="1.0" encoding="UTF-8" standalone="no"?>
<svg xmlns:xlink="http://www.w3.org/1999/xlink" height="52.05px" width="59.8px" xmlns="http://www.w3.org/2000/svg">
  <g transform="matrix(1.0, 0.0, 0.0, 1.0, 30.0, 22.3)">
    <path d="M24.55 -19.2 L28.8 -17.5 28.8 23.8 Q26.7 22.0 24.55 20.7 L24.55 -19.2 M-23.5 26.95 Q-26.3 25.75 -29.0 23.8 L-29.0 -17.5 Q-26.25 -15.7 -23.5 -14.5 L-23.5 26.95" fill="#e8cb00" fill-rule="evenodd" stroke="none"/>
    <path d="M9.1 -20.85 Q16.25 -22.25 24.55 -19.2 L24.55 20.7 Q16.4 15.7 9.1 18.2 L9.1 -20.85 M-12.8 28.7 Q-18.35 29.1 -23.5 26.95 L-23.5 -14.5 Q-18.05 -12.35 -12.8 -12.5 L-12.8 5.45 -12.8 5.6 -12.8 28.7" fill="#6bcd1b" fill-rule="evenodd" stroke="none"/>
    <path d="M9.1 18.2 Q4.85 19.7 0.85 23.8 L0.4 24.15 0.4 10.85 0.15 10.85 0.4 10.45 0.4 -17.1 0.85 -17.5 Q4.8 -20.0 9.1 -20.85 L9.1 18.2" fill="#333333" fill-rule="evenodd" stroke="none"/>
    <path d="M0.4 24.15 Q-3.45 26.4 -7.1 27.6 L-7.1 -13.5 Q-3.3 -14.65 0.4 -17.1 L0.4 10.45 0.15 10.85 0.4 10.85 0.4 24.15" fill="#4a4a4a" fill-rule="evenodd" stroke="none"/>
    <path d="M-7.1 27.6 L-12.8 28.7 -12.8 5.6 -12.8 5.45 -12.8 -12.5 Q-9.95 -12.65 -7.1 -13.5 L-7.1 27.6" fill="#84e534" fill-rule="evenodd" stroke="none"/>
    <path d="M9.1 -20.85 Q16.25 -22.25 24.55 -19.2 L28.8 -17.5 28.8 23.8 Q26.7 22.0 24.55 20.7 16.4 15.7 9.1 18.2 4.85 19.7 0.85 23.8 L0.4 24.15 Q-3.45 26.4 -7.1 27.6 L-12.8 28.7 Q-18.35 29.1 -23.5 26.95 -26.3 25.75 -29.0 23.8 L-29.0 -17.5 Q-26.25 -15.7 -23.5 -14.5 -18.05 -12.35 -12.8 -12.5 -9.95 -12.65 -7.1 -13.5 -3.3 -14.65 0.4 -17.1 L0.85 -17.5 Q4.8 -20.0 9.1 -20.85 Z" fill="none" stroke="#c9890e" stroke-linecap="round" stroke-linejoin="round" stroke-width="2.0"/>
  </g>
</svg>
