<?xml version="1.0" encoding="UTF-8" standalone="no"?>
<svg xmlns:xlink="http://www.w3.org/1999/xlink" height="62.6px" width="46.8px" xmlns="http://www.w3.org/2000/svg">
  <g transform="matrix(1.0, 0.0, 0.0, 1.0, 23.4, 31.3)">
    <path d="M-0.65 14.1 L-2.3 14.1 -5.55 16.2 -7.95 18.35 -9.15 19.35 -10.55 20.45 -11.35 21.45 -12.25 22.6 -13.5 23.75 -14.3 24.75 -15.6 25.8 -16.9 26.85 -19.4 29.85 Q-20.3 30.9 -21.35 30.9 -22.05 30.9 -22.35 30.15 L-22.65 28.95 Q-23.4 27.7 -23.4 27.1 L-22.75 23.75 -22.0 21.15 Q-21.6 20.25 -21.5 18.15 L-21.25 15.3 Q-21.25 14.85 -21.8 13.55 L-22.3 12.0 -22.25 11.7 -22.5 10.45 -22.3 9.3 Q-22.15 8.8 -22.15 7.7 L-21.9 5.05 -20.75 2.45 -20.2 -0.15 -21.0 -2.25 -22.2 -3.45 -22.4 -4.25 -22.25 -5.15 -22.1 -5.9 -22.25 -6.95 -22.45 -8.1 -22.35 -9.85 -21.8 -11.45 -20.7 -13.0 -19.4 -14.6 -18.55 -15.4 -17.4 -16.25 -15.6 -17.55 -14.1 -19.05 Q-12.6 -20.2 -12.2 -20.85 L-11.25 -21.6 -10.1 -22.55 -9.85 -22.8 -9.95 -22.75 -9.65 -23.1 -8.6 -24.35 Q-6.6 -26.7 -4.95 -27.85 L-4.6 -28.1 -3.05 -29.55 -1.2 -30.9 -0.75 -31.3 -0.65 -31.25 -0.65 14.1" fill="#e2e2e2" fill-rule="evenodd" stroke="none"/>
    <path d="M-0.65 -31.25 L-0.45 -31.25 0.65 -30.45 1.25 -30.05 1.8 -29.8 2.7 -28.9 Q4.0 -27.6 4.9 -27.2 7.05 -26.05 9.25 -23.95 L11.25 -22.4 13.7 -20.5 15.25 -18.65 Q16.15 -17.55 16.75 -17.0 L17.85 -16.25 19.1 -15.5 20.35 -13.7 20.6 -13.3 21.1 -12.85 22.35 -12.1 22.85 -11.3 22.85 -10.45 Q23.4 -8.45 23.4 -3.4 L23.2 -1.3 22.65 1.55 Q22.45 2.75 22.35 6.55 L22.1 11.5 Q22.0 12.45 22.05 14.0 L22.1 16.35 Q22.1 18.05 21.25 19.6 20.4 21.2 20.4 22.25 20.4 24.55 22.1 26.15 L23.4 29.9 Q23.4 31.3 22.75 31.3 L22.5 31.3 22.35 31.3 22.05 31.25 Q20.85 30.4 19.5 29.0 L17.2 26.75 12.75 22.35 8.35 17.95 5.2 15.7 4.55 15.15 3.45 14.6 2.7 14.25 1.1 14.05 -0.65 14.1 -0.65 -31.25" fill="#ffffff" fill-rule="evenodd" stroke="none"/>
    <path d="M15.3 -8.85 L15.25 -8.6 15.1 -8.05 14.95 -7.2 Q15.75 -6.0 15.8 -4.4 15.8 -2.8 16.15 -1.7 L16.15 7.15 16.35 8.8 16.15 12.75 Q15.75 14.95 14.55 15.65 L13.3 15.3 12.45 14.3 Q11.75 13.55 11.2 13.45 10.2 13.25 9.65 12.7 L8.15 11.95 Q4.15 9.55 2.3 8.25 1.05 7.95 -0.75 8.7 L-3.0 9.85 -6.25 11.5 -7.75 12.4 Q-8.55 12.9 -9.7 13.15 L-12.45 13.9 Q-13.3 14.7 -14.35 14.7 L-15.0 14.65 Q-16.0 13.9 -16.05 12.75 -16.0 11.45 -16.1 10.8 L-16.25 8.5 -16.25 6.95 -16.1 1.95 -16.1 -2.9 -16.05 -3.15 -16.25 -6.0 -16.15 -8.35 Q-15.95 -9.7 -15.3 -10.0 L-12.15 -13.1 Q-10.8 -14.25 -8.55 -16.7 L-4.75 -20.25 -1.7 -22.55 1.3 -22.65 3.15 -20.85 Q4.35 -19.75 5.6 -19.2 L8.15 -17.65 9.5 -15.85 10.9 -14.15 12.1 -12.3 Q12.4 -11.65 13.95 -10.55 L14.6 -10.0 14.85 -10.05 15.05 -9.95 15.25 -9.15 15.3 -8.85" fill="#000000" fill-opacity="0.2509804" fill-rule="evenodd" stroke="none"/>
  </g>
</svg>
