<?xml version="1.0" encoding="UTF-8" standalone="no"?>
<svg xmlns:xlink="http://www.w3.org/1999/xlink" height="77.0px" width="83.75px" xmlns="http://www.w3.org/2000/svg">
  <g transform="matrix(1.0, 0.0, 0.0, 1.0, 41.8, 39.05)">
    <path d="M-31.8 -29.05 L31.95 -29.05 39.95 -22.4 -39.8 -22.4 -31.8 -29.05" fill="#5e7e34" fill-rule="evenodd" stroke="none"/>
    <path d="M-31.8 -29.05 L31.95 -29.05 39.95 -22.4 -39.8 -22.4 -31.8 -29.05 Z" fill="none" stroke="#5a5029" stroke-linecap="round" stroke-linejoin="round" stroke-width="4.0"/>
    <path d="M-39.8 35.95 L-39.8 -22.35 39.95 -22.35 39.95 35.95 -39.8 35.95" fill="#5a5029" fill-rule="evenodd" stroke="none"/>
    <path d="M-39.8 35.95 L-39.8 -22.35 39.95 -22.35 39.95 35.95 -39.8 35.95 Z" fill="none" stroke="#5a5029" stroke-linecap="round" stroke-linejoin="round" stroke-width="4.0"/>
    <path d="M-31.8 -29.05 L31.95 -29.05 39.95 -22.4 -39.8 -22.4 -31.8 -29.05" fill="#8dbd4f" fill-rule="evenodd" stroke="none"/>
    <path d="M39.95 30.25 L-39.8 30.25 -39.8 1.3 39.95 1.3 39.95 30.25" fill="#d7a200" fill-rule="evenodd" stroke="none"/>
    <path d="M1.6 19.55 Q1.6 18.95 2.05 18.5 2.5 18.05 3.15 18.05 L10.35 18.0 Q11.0 18.0 11.45 18.45 11.85 18.95 11.85 19.5 L11.9 26.65 11.45 27.7 Q11.0 28.15 10.4 28.15 L6.8 28.2 Q6.2 28.2 5.75 27.75 5.25 27.25 5.25 26.7 L5.25 23.15 Q5.25 22.5 5.7 22.05 6.15 21.6 6.75 21.6 7.4 21.6 7.85 22.05 L8.3 23.15 8.35 25.1 8.85 25.1 8.85 21.1 4.65 21.1 4.65 30.3 1.6 30.3 1.6 19.55" fill="#5a5029" fill-rule="evenodd" stroke="none"/>
    <path d="M-2.6 19.55 L-2.6 30.3 -5.7 30.3 -5.7 21.1 -9.85 21.1 -9.85 25.1 -9.35 25.1 -9.3 23.15 -8.85 22.05 Q-8.4 21.6 -7.8 21.6 -7.15 21.6 -6.7 22.05 -6.25 22.5 -6.25 23.15 L-6.25 26.7 Q-6.25 27.25 -6.75 27.75 L-7.85 28.2 -11.4 28.15 Q-12.05 28.15 -12.5 27.7 L-12.95 26.65 -12.9 19.5 Q-12.9 18.95 -12.5 18.45 L-12.45 18.45 Q-12.0 18.0 -11.35 18.0 L-4.15 18.05 Q-3.55 18.05 -3.1 18.5 -2.6 18.95 -2.6 19.55" fill="#5a5029" fill-rule="evenodd" stroke="none"/>
    <path d="M2.6 19.55 L2.8 19.2 Q2.9 19.05 3.15 19.05 L10.35 19.05 10.7 19.15 10.85 19.5 10.9 26.65 10.7 27.0 10.35 27.15 6.8 27.2 Q6.6 27.2 6.45 27.0 L6.3 26.65 6.25 23.15 Q6.25 22.9 6.4 22.8 L6.75 22.6 7.15 22.8 7.25 23.15 7.3 26.15 9.85 26.1 9.85 20.05 3.65 20.05 3.65 30.3 2.6 30.3 2.6 19.55" fill="#799e49" fill-rule="evenodd" stroke="none"/>
    <path d="M-3.6 19.55 L-3.6 30.3 -4.65 30.3 -4.65 20.05 -10.85 20.05 -10.85 26.1 -8.3 26.15 -8.3 23.15 -8.15 22.8 -7.8 22.6 Q-7.55 22.6 -7.4 22.8 -7.25 22.9 -7.25 23.15 L-7.3 26.65 -7.45 27.0 Q-7.6 27.2 -7.85 27.2 L-11.35 27.15 -11.7 27.0 -11.9 26.65 -11.85 19.5 -11.7 19.15 -11.35 19.05 -4.15 19.05 Q-3.95 19.05 -3.8 19.2 L-3.6 19.55" fill="#799e49" fill-rule="evenodd" stroke="none"/>
    <path d="M-39.8 -16.85 L39.95 -16.85 39.95 0.0 -39.8 0.0 -39.8 -16.85" fill="#d7a200" fill-rule="evenodd" stroke="none"/>
    <path d="M-16.6 29.0 L-39.8 29.0 -39.8 24.9 -18.9 24.9 -18.85 11.95 -31.0 11.9 -31.1 18.6 -27.25 18.65 -27.2 15.5 Q-27.2 14.45 -26.4 13.9 L-26.45 13.95 Q-25.85 13.4 -24.95 13.4 -24.05 13.4 -23.35 14.0 -22.7 14.6 -22.7 15.5 L-22.8 20.8 Q-22.8 21.6 -23.45 22.2 L-23.55 22.3 -23.55 22.35 Q-24.15 22.8 -25.0 22.8 L-33.4 22.75 Q-34.25 22.75 -34.9 22.1 -35.6 21.5 -35.6 20.65 L-35.5 9.85 Q-35.5 9.0 -34.85 8.35 -34.15 7.8 -33.25 7.8 L-16.6 7.8 Q-15.7 7.8 -15.0 8.45 -14.3 9.1 -14.3 9.9 L-14.35 26.95 Q-14.35 27.75 -15.05 28.4 -15.7 29.0 -16.6 29.0" fill="#5a5029" fill-rule="evenodd" stroke="none"/>
    <path d="M21.15 -10.8 L21.15 -10.65 21.95 -10.8 21.15 -10.8 M34.6 -2.65 Q33.8 -2.65 33.2 -3.25 32.6 -3.8 32.6 -4.65 L32.6 -10.8 31.6 -10.8 31.6 -4.65 Q31.6 -3.8 30.95 -3.25 30.35 -2.65 29.55 -2.65 L19.15 -2.65 Q18.3 -2.65 17.75 -3.25 17.1 -3.8 17.1 -4.65 L17.1 -12.8 Q17.1 -13.65 17.75 -14.2 18.3 -14.85 19.15 -14.85 L24.4 -14.85 Q25.2 -14.85 25.85 -14.2 26.45 -13.65 26.45 -12.8 L26.45 -8.8 Q26.45 -8.05 25.85 -7.4 25.2 -6.8 24.4 -6.8 L22.05 -6.8 21.15 -7.0 21.15 -6.65 27.55 -6.65 27.55 -12.8 Q27.55 -13.65 28.15 -14.2 28.75 -14.85 29.55 -14.85 L34.6 -14.85 Q35.45 -14.85 36.0 -14.2 36.6 -13.65 36.6 -12.8 L36.6 -6.65 39.95 -6.65 39.95 -2.65 34.6 -2.65" fill="#5a5029" fill-rule="evenodd" stroke="none"/>
    <path d="M-35.6 -2.65 L-39.8 -2.65 -39.8 -6.65 -37.55 -6.65 -37.55 -12.8 Q-37.55 -13.65 -37.0 -14.2 -36.4 -14.85 -35.6 -14.85 L-30.55 -14.85 Q-29.7 -14.85 -29.15 -14.2 -28.5 -13.65 -28.5 -12.8 L-28.5 -6.65 -22.1 -6.65 -22.1 -7.0 -23.0 -6.8 -25.4 -6.8 Q-26.2 -6.8 -26.8 -7.4 -27.4 -8.05 -27.4 -8.8 L-27.4 -12.8 Q-27.4 -13.65 -26.8 -14.2 -26.2 -14.85 -25.4 -14.85 L-20.1 -14.85 Q-19.3 -14.85 -18.7 -14.2 -18.1 -13.65 -18.1 -12.8 L-18.1 -4.65 Q-18.1 -3.8 -18.7 -3.25 -19.3 -2.65 -20.1 -2.65 L-30.55 -2.65 Q-31.35 -2.65 -31.9 -3.25 -32.55 -3.8 -32.55 -4.65 L-32.55 -10.8 -33.55 -10.8 -33.55 -4.65 Q-33.55 -3.8 -34.15 -3.25 -34.8 -2.65 -35.6 -2.65 M-22.1 -10.8 L-22.9 -10.8 -22.1 -10.65 -22.1 -10.8" fill="#5a5029" fill-rule="evenodd" stroke="none"/>
    <path d="M-39.8 -22.4 L39.95 -22.4 39.95 -18.05 -39.8 -18.05 -39.8 -22.4" fill="#799e49" fill-rule="evenodd" stroke="none"/>
    <path d="M-39.8 31.6 L39.95 31.6 39.95 35.95 -39.8 35.95 -39.8 31.6" fill="#799e49" fill-rule="evenodd" stroke="none"/>
    <path d="M27.45 2.1 Q28.25 2.1 28.8 2.6 L29.25 3.2 29.7 2.6 Q30.2 2.1 31.0 2.1 L32.7 2.1 Q33.5 2.1 34.05 2.6 34.6 3.1 34.6 3.8 L34.6 5.4 Q34.6 6.1 34.1 6.6 L34.05 6.65 32.7 7.1 31.0 7.1 Q30.2 7.1 29.7 6.6 L29.25 6.0 28.85 6.6 28.8 6.65 27.45 7.1 25.75 7.1 Q24.95 7.1 24.45 6.6 L24.0 6.0 23.6 6.6 23.55 6.65 22.2 7.1 20.5 7.1 Q19.7 7.1 19.2 6.6 L18.75 6.0 18.35 6.6 18.3 6.65 16.95 7.1 15.25 7.1 Q14.45 7.1 13.95 6.6 13.35 6.1 13.35 5.4 L13.35 3.8 Q13.35 3.1 13.95 2.6 14.45 2.1 15.25 2.1 L16.95 2.1 Q17.75 2.1 18.3 2.6 L18.75 3.2 19.2 2.6 Q19.7 2.1 20.5 2.1 L22.2 2.1 Q23.0 2.1 23.55 2.6 L24.0 3.2 24.45 2.6 Q24.95 2.1 25.75 2.1 L27.45 2.1" fill="#5a5029" fill-rule="evenodd" stroke="none"/>
    <path d="M18.75 -29.25 L18.95 -29.2 19.0 -29.05 Q19.0 -28.8 18.65 -28.45 L18.05 -27.85 17.25 -27.85 16.95 -28.35 Q16.95 -28.7 17.55 -29.1 L18.75 -29.25 M21.95 -29.75 L22.3 -29.5 18.65 -25.65 18.35 -25.75 19.45 -27.7 20.65 -29.2 21.45 -29.25 21.65 -29.4 21.95 -29.75 M17.4 -28.4 L17.4 -28.25 Q18.2 -28.25 18.45 -28.7 L18.45 -28.8 17.7 -28.75 17.4 -28.4 M25.75 -26.4 L26.0 -25.75 26.1 -25.75 25.95 -26.15 25.75 -26.4 M26.5 -26.6 Q26.35 -26.5 26.45 -25.85 26.5 -25.35 26.05 -25.35 25.65 -25.35 25.5 -25.8 L25.4 -26.3 Q25.4 -27.3 26.5 -26.6 M28.35 -25.05 L28.3 -24.95 27.1 -26.35 27.2 -26.55 27.9 -25.85 28.35 -25.05 M34.9 -22.25 L34.3 -20.7 33.35 -19.0 33.15 -19.6 33.45 -20.85 33.7 -22.1 Q33.7 -22.55 31.2 -24.2 L29.6 -25.05 Q28.8 -25.5 28.65 -26.0 29.5 -25.85 30.35 -25.3 L31.95 -24.35 Q34.9 -22.8 34.9 -22.25 M35.05 -24.05 L36.3 -23.4 37.4 -22.45 Q36.85 -20.4 36.4 -20.1 L36.35 -20.8 36.65 -22.55 34.95 -23.9 35.05 -24.05 M38.75 -17.4 L39.3 -17.4 39.35 -17.15 Q39.35 -16.8 38.15 -15.55 37.55 -14.15 37.0 -14.15 L36.8 -14.2 36.7 -14.4 Q36.7 -14.95 38.75 -17.4 M38.75 0.65 L38.9 0.8 38.85 0.9 Q39.55 0.5 39.95 0.45 L39.95 0.8 39.25 1.5 38.05 2.5 37.85 2.2 Q37.85 1.8 38.2 1.45 L37.95 1.55 Q37.2 1.9 37.0 2.3 L36.25 3.1 35.4 3.7 35.2 3.65 35.15 3.45 Q37.3 0.8 37.5 0.8 37.65 0.8 37.65 0.9 L37.75 1.0 38.1 0.85 38.75 0.65 M13.05 -3.55 L13.4 -3.2 13.4 -2.9 15.0 -3.95 12.8 -1.9 10.9 -0.8 10.85 -0.95 11.8 -1.8 11.4 -1.8 11.3 -2.05 11.6 -2.8 11.95 -3.3 13.05 -3.55 M15.7 -2.85 L15.75 -2.7 14.85 -2.15 14.05 -1.45 12.9 -1.0 11.9 -0.5 13.5 -2.0 14.1 -2.4 14.55 -2.7 15.7 -2.85 M38.4 19.9 L36.25 18.15 Q36.15 17.6 35.15 16.6 L33.9 15.35 35.35 15.75 37.95 17.15 39.45 17.95 39.95 18.25 39.95 21.15 38.4 19.9 M37.7 15.8 Q38.05 15.3 38.8 15.7 L39.85 16.35 39.95 16.4 39.95 17.4 37.7 15.8 M-32.8 -24.75 Q-33.05 -24.0 -33.85 -23.15 L-34.55 -22.3 -33.95 -21.0 -33.35 -19.55 -33.4 -19.3 Q-33.4 -19.15 -33.65 -19.15 -34.25 -19.15 -35.5 -22.45 L-34.35 -23.6 -32.8 -24.75 M-30.5 -24.45 L-31.45 -23.25 -32.2 -22.5 Q-32.2 -22.05 -32.5 -21.6 L-32.8 -21.6 -32.85 -22.25 -32.9 -22.4 -31.75 -23.65 -31.1 -24.1 -30.5 -24.45 M-19.35 -29.35 L-20.25 -28.8 -20.95 -28.35 -21.25 -28.45 -20.35 -29.45 Q-19.55 -30.1 -19.35 -29.35 M-21.0 -29.65 L-22.8 -28.1 -25.2 -26.85 -25.4 -26.9 -25.5 -27.15 -24.8 -28.0 -23.5 -29.05 -21.95 -30.1 Q-21.0 -30.45 -21.0 -29.65 M-17.35 -17.85 Q-17.35 -17.4 -17.65 -17.4 -18.15 -17.4 -18.15 -17.65 L-18.2 -17.5 -18.4 -17.55 Q-18.65 -18.25 -19.4 -19.15 L-20.05 -20.1 -20.0 -20.3 Q-19.1 -20.35 -17.35 -17.85 M-37.8 15.85 Q-37.8 16.15 -38.55 16.8 L-39.5 17.65 -39.8 18.0 -39.8 16.35 -39.4 16.15 -38.5 15.5 Q-37.8 15.05 -37.8 15.85 M-36.5 17.65 L-36.45 17.9 Q-36.45 18.7 -39.6 21.15 L-39.8 21.3 -39.8 19.2 -39.75 19.15 -37.9 18.25 -36.5 17.65 M-15.15 -0.65 L-14.95 -0.4 -15.95 0.25 -17.2 0.7 -17.5 0.7 -16.4 -0.05 -15.15 -0.65 M-12.3 -3.2 L-12.25 -3.0 Q-12.25 -2.85 -13.45 -2.3 L-15.7 -1.15 -17.8 -0.15 -19.4 0.6 -19.65 0.3 -20.4 0.5 -20.5 0.35 -18.35 -0.7 -16.65 -1.35 -14.7 -2.55 Q-13.55 -3.25 -12.3 -3.2 M-18.65 -17.6 L-18.8 -17.5 -19.45 -17.9 -19.95 -18.75 Q-19.65 -18.9 -19.15 -18.35 L-18.65 -17.6 M-27.9 -2.1 L-27.85 -1.9 Q-27.85 -1.25 -31.15 -0.5 L-31.3 -0.5 -31.25 -0.55 -31.4 -0.6 Q-29.1 -2.0 -27.9 -2.1 M-31.1 -1.3 L-31.8 -0.5 -32.35 -0.5 Q-32.7 -0.65 -32.7 -1.0 -32.7 -1.65 -31.9 -1.85 -31.1 -2.05 -31.1 -1.3 M-0.05 24.05 Q-1.7 22.9 -2.9 20.75 -2.35 20.8 -2.0 21.25 L-1.35 22.25 -0.05 24.05 M1.5 27.5 L1.5 27.6 -1.2 24.9 -3.25 22.25 -3.2 22.05 -3.15 22.0 Q-1.3 23.15 1.5 27.5 M-3.3 32.05 L-4.65 35.95 -5.85 35.95 -4.8 33.85 -4.2 32.4 Q-4.1 31.85 -3.7 31.65 -3.3 31.4 -3.3 32.05 M-5.85 33.6 L-5.6 33.9 -6.2 35.55 -6.4 35.95 -7.55 35.95 -7.15 35.25 Q-6.5 34.2 -5.85 33.6 M20.1 30.85 L20.2 30.9 20.25 31.05 17.25 35.95 16.1 35.95 17.7 33.45 Q19.25 31.3 20.1 30.85 M21.6 31.2 L21.7 31.7 Q21.7 32.5 20.65 33.55 L18.6 35.35 Q21.2 31.5 21.6 31.2" fill="#5a5029" fill-rule="evenodd" stroke="none"/>
    <path d="M-28.3 2.1 Q-29.1 2.1 -29.65 2.6 L-30.1 3.2 Q-30.25 2.85 -30.55 2.6 -31.05 2.1 -31.85 2.1 L-33.55 2.1 Q-34.35 2.1 -34.9 2.6 -35.45 3.1 -35.45 3.8 L-35.45 5.4 Q-35.45 6.1 -34.95 6.6 L-34.9 6.65 -33.55 7.1 -31.85 7.1 Q-31.05 7.1 -30.55 6.6 L-30.1 6.0 -29.7 6.6 -29.65 6.65 -28.3 7.1 -26.6 7.1 Q-25.8 7.1 -25.3 6.6 L-24.85 6.0 -24.45 6.6 -24.4 6.65 -23.05 7.1 -21.35 7.1 Q-20.55 7.1 -20.05 6.6 L-19.6 6.0 -19.2 6.6 -19.15 6.65 -17.8 7.1 -16.1 7.1 Q-15.3 7.1 -14.8 6.6 -14.2 6.1 -14.2 5.4 L-14.2 3.8 Q-14.2 3.1 -14.8 2.6 -15.3 2.1 -16.1 2.1 L-17.8 2.1 Q-18.6 2.1 -19.15 2.6 L-19.6 3.2 -20.05 2.6 Q-20.55 2.1 -21.35 2.1 L-23.05 2.1 Q-23.85 2.1 -24.4 2.6 L-24.85 3.2 Q-25.0 2.85 -25.3 2.6 -25.8 2.1 -26.6 2.1 L-28.3 2.1" fill="#5a5029" fill-rule="evenodd" stroke="none"/>
    <path d="M-7.5 13.75 L-9.2 13.75 -9.2 15.35 -7.5 15.35 -7.5 13.75 M-2.25 13.75 L-3.95 13.75 -3.95 15.35 -2.25 15.35 -2.25 13.75 M3.0 13.75 L1.3 13.75 1.3 15.35 3.0 15.35 3.0 13.75 M8.25 13.75 L6.55 13.75 6.55 15.35 8.25 15.35 8.25 13.75" fill="#5a5029" fill-rule="evenodd" stroke="none"/>
    <path d="M-7.5 13.75 L-9.2 13.75 -9.2 15.35 -7.5 15.35 -7.5 13.75 M-2.25 13.75 L-3.95 13.75 -3.95 15.35 -2.25 15.35 -2.25 13.75 M3.0 13.75 L1.3 13.75 1.3 15.35 3.0 15.35 3.0 13.75 M8.25 13.75 L6.55 13.75 6.55 15.35 8.25 15.35 8.25 13.75" fill="none" stroke="#5a5029" stroke-linecap="round" stroke-linejoin="round" stroke-width="4.0"/>
    <path d="M15.75 29.0 Q14.85 29.0 14.15 28.4 13.5 27.75 13.5 26.95 L13.45 9.9 Q13.45 9.1 14.1 8.45 14.85 7.8 15.75 7.8 L32.4 7.8 Q33.3 7.8 33.95 8.35 34.6 9.0 34.6 9.85 L34.7 20.65 Q34.7 21.5 34.05 22.1 33.35 22.75 32.5 22.75 L24.15 22.8 Q23.3 22.8 22.65 22.35 L22.65 22.3 22.6 22.2 Q21.9 21.6 21.9 20.8 L21.8 15.5 Q21.8 14.6 22.5 14.0 23.15 13.4 24.05 13.4 24.95 13.4 25.6 13.95 L25.55 13.9 Q26.35 14.45 26.35 15.5 L26.4 18.65 30.25 18.6 30.15 11.9 17.95 11.95 18.0 24.9 39.95 24.9 39.95 29.0 15.75 29.0" fill="#5a5029" fill-rule="evenodd" stroke="none"/>
    <path d="M15.75 27.6 Q15.45 27.6 15.25 27.4 L15.0 26.95 14.95 9.9 Q14.95 9.6 15.2 9.4 15.4 9.2 15.75 9.2 L32.4 9.1 32.85 9.35 33.1 9.85 33.25 20.65 33.0 21.15 32.45 21.35 24.15 21.45 Q23.85 21.45 23.6 21.25 L23.4 20.75 23.35 15.5 23.55 15.0 24.05 14.75 24.6 15.0 24.8 15.5 24.9 20.05 31.7 19.95 31.6 10.5 16.45 10.6 16.5 26.25 39.95 26.25 39.95 27.6 15.75 27.6" fill="#e05f3b" fill-rule="evenodd" stroke="none"/>
    <path d="M16.95 3.45 L17.25 3.55 17.35 3.8 17.35 5.4 17.25 5.65 16.95 5.75 15.25 5.75 15.0 5.65 14.85 5.4 14.85 3.8 15.0 3.55 15.25 3.45 16.95 3.45 M32.7 3.45 L33.0 3.55 33.1 3.8 33.1 5.4 33.0 5.65 32.7 5.75 31.0 5.75 30.75 5.65 30.6 5.4 30.6 3.8 30.75 3.55 31.0 3.45 32.7 3.45 M27.45 3.45 L27.75 3.55 27.85 3.8 27.85 5.4 27.75 5.65 27.45 5.75 25.75 5.75 25.5 5.65 25.35 5.4 25.35 3.8 25.5 3.55 25.75 3.45 27.45 3.45 M22.2 3.45 L22.5 3.55 22.6 3.8 22.6 5.4 22.5 5.65 22.2 5.75 20.5 5.75 20.25 5.65 20.1 5.4 20.1 3.8 20.25 3.55 20.5 3.45 22.2 3.45" fill="#3bb7e0" fill-rule="evenodd" stroke="none"/>
    <path d="M-16.6 27.6 L-39.8 27.6 -39.8 26.25 -17.35 26.25 -17.3 10.6 -32.5 10.5 -32.6 19.95 -25.8 20.05 -25.7 15.5 -25.45 15.0 -24.95 14.75 Q-24.65 14.75 -24.45 15.0 L-24.2 15.5 -24.25 20.75 -24.5 21.25 -25.0 21.45 -33.35 21.35 -33.9 21.15 -34.1 20.65 -34.0 9.85 -33.75 9.35 -33.25 9.1 -16.6 9.2 -16.05 9.4 -15.85 9.9 -15.9 26.95 -16.1 27.4 Q-16.35 27.6 -16.6 27.6" fill="#e05f3b" fill-rule="evenodd" stroke="none"/>
    <path d="M-17.8 3.45 L-18.1 3.55 -18.2 3.8 -18.2 5.4 -18.1 5.65 -17.8 5.75 -16.1 5.75 -15.85 5.65 -15.7 5.4 -15.7 3.8 -15.85 3.55 -16.1 3.45 -17.8 3.45 M-33.55 3.45 L-33.85 3.55 -33.95 3.8 -33.95 5.4 -33.85 5.65 -33.55 5.75 -31.85 5.75 -31.6 5.65 -31.45 5.4 -31.45 3.8 -31.6 3.55 -31.85 3.45 -33.55 3.45 M-28.3 3.45 L-28.6 3.55 -28.7 3.8 -28.7 5.4 -28.6 5.65 -28.3 5.75 -26.6 5.75 -26.35 5.65 -26.2 5.4 -26.2 3.8 -26.35 3.55 -26.6 3.45 -28.3 3.45 M-23.05 3.45 L-23.35 3.55 -23.45 3.8 -23.45 5.4 -23.35 5.65 -23.05 5.75 -21.35 5.75 -21.1 5.65 -20.95 5.4 -20.95 3.8 -21.1 3.55 -21.35 3.45 -23.05 3.45" fill="#3bb7e0" fill-rule="evenodd" stroke="none"/>
    <path d="M-7.5 13.75 L-9.2 13.75 -9.2 15.35 -7.5 15.35 -7.5 13.75 M-2.25 13.75 L-3.95 13.75 -3.95 15.35 -2.25 15.35 -2.25 13.75 M3.0 13.75 L1.3 13.75 1.3 15.35 3.0 15.35 3.0 13.75 M8.25 13.75 L6.55 13.75 6.55 15.35 8.25 15.35 8.25 13.75" fill="#3bb7e0" fill-rule="evenodd" stroke="none"/>
    <path d="M-7.5 13.75 L-9.2 13.75 -9.2 15.35 -7.5 15.35 -7.5 13.75 M-2.25 13.75 L-3.95 13.75 -3.95 15.35 -2.25 15.35 -2.25 13.75 M3.0 13.75 L1.3 13.75 1.3 15.35 3.0 15.35 3.0 13.75 M8.25 13.75 L6.55 13.75 6.55 15.35 8.25 15.35 8.25 13.75" fill="none" stroke="#3bb7e0" stroke-linecap="round" stroke-linejoin="round" stroke-width="1.0"/>
    <path d="M34.6 -3.8 L34.05 -4.1 Q33.8 -4.3 33.8 -4.65 L33.8 -12.0 30.35 -12.0 30.35 -4.65 30.1 -4.1 Q29.85 -3.8 29.55 -3.8 L19.15 -3.8 Q18.8 -3.8 18.6 -4.1 18.3 -4.3 18.3 -4.65 L18.3 -12.8 Q18.3 -13.15 18.6 -13.35 18.8 -13.65 19.15 -13.65 L24.4 -13.65 25.0 -13.35 25.2 -12.8 25.2 -8.8 25.0 -8.25 24.4 -8.05 22.05 -8.05 21.45 -8.25 21.25 -8.8 21.45 -9.35 Q21.7 -9.6 22.05 -9.6 L23.6 -9.6 23.6 -12.0 19.95 -12.0 19.95 -5.45 28.75 -5.45 28.75 -12.8 Q28.75 -13.15 29.0 -13.35 L29.55 -13.65 34.6 -13.65 Q34.95 -13.65 35.15 -13.35 L35.45 -12.8 35.45 -5.45 39.95 -5.45 39.95 -3.8 34.6 -3.8" fill="#e05f3b" fill-rule="evenodd" stroke="none"/>
    <path d="M-35.6 -3.8 L-39.8 -3.8 -39.8 -5.45 -36.4 -5.45 -36.4 -12.8 -36.15 -13.35 -35.6 -13.65 -30.55 -13.65 -29.95 -13.35 -29.7 -12.8 -29.7 -5.45 -20.9 -5.45 -20.9 -12.0 -24.55 -12.0 -24.55 -9.6 -23.0 -9.6 -22.4 -9.35 -22.2 -8.8 -22.4 -8.25 -23.0 -8.05 -25.4 -8.05 -25.95 -8.25 -26.2 -8.8 -26.2 -12.8 -25.95 -13.35 -25.4 -13.65 -20.1 -13.65 -19.55 -13.35 -19.3 -12.8 -19.3 -4.65 Q-19.3 -4.3 -19.55 -4.1 -19.8 -3.8 -20.1 -3.8 L-30.55 -3.8 Q-30.85 -3.8 -31.05 -4.1 -31.35 -4.3 -31.35 -4.65 L-31.35 -12.0 -34.8 -12.0 -34.8 -4.65 -35.0 -4.1 Q-35.3 -3.8 -35.6 -3.8" fill="#e05f3b" fill-rule="evenodd" stroke="none"/>
    <path d="M-9.55 4.85 Q-9.0 -2.15 -10.7 -9.15 L-0.95 -9.15 -0.05 -9.15 9.7 -9.15 Q8.0 -2.15 8.55 4.85 L-0.05 4.85 -0.95 4.85 -9.55 4.85" fill="#c2421e" fill-rule="evenodd" stroke="none"/>
    <path d="M-9.55 4.85 Q-9.0 -2.15 -10.7 -9.15 L-0.95 -9.15 -0.05 -9.15 9.7 -9.15 Q8.0 -2.15 8.55 4.85 L-0.05 4.85 -0.95 4.85 -9.55 4.85 Z" fill="none" stroke="#385123" stroke-linecap="round" stroke-linejoin="round" stroke-width="4.0"/>
    <path d="M-9.55 4.85 Q-9.0 -2.15 -10.7 -9.15 L-0.95 -9.15 -0.05 -9.15 9.7 -9.15 Q8.0 -2.15 8.55 4.85 L-0.05 4.85 -0.95 4.85 -9.55 4.85" fill="#c2421e" fill-rule="evenodd" stroke="none"/>
    <path d="M-6.8 -5.2 L5.85 -5.2 5.85 4.6 -6.8 4.6 -6.8 -5.2" fill="#3bb7e0" fill-rule="evenodd" stroke="none"/>
    <path d="M-6.8 -5.2 L5.85 -5.2 5.85 4.6 -6.8 4.6 -6.8 -5.2 Z" fill="none" stroke="#1a4e5d" stroke-linecap="round" stroke-linejoin="round" stroke-width="4.0"/>
    <path d="M-6.8 -5.2 L5.85 -5.2 5.85 4.6 -6.8 4.6 -6.8 -5.2" fill="#3bb7e0" fill-rule="evenodd" stroke="none"/>
    <path d="M1.9 -1.2 Q1.9 -0.15 1.15 0.55 L0.4 1.1 0.4 3.9 -1.6 3.9 -1.6 1.1 -2.35 0.55 Q-3.1 -0.15 -3.1 -1.2 -3.1 -2.25 -2.35 -2.95 -1.6 -3.7 -0.6 -3.7 0.45 -3.7 1.15 -2.95 1.9 -2.25 1.9 -1.2" fill="#1a4e5d" fill-rule="evenodd" stroke="none"/>
    <path d="M5.85 -5.2 L5.85 4.6 3.95 4.6 3.95 -5.2 5.85 -5.2 M-6.8 -5.2 L-4.9 -5.2 -4.9 4.6 -6.8 4.6 -6.8 -5.2" fill="#2c90b1" fill-rule="evenodd" stroke="none"/>
    <path d="M-1.6 1.1 L-2.35 0.55 Q-3.1 -0.15 -3.1 -1.2 L-3.0 -1.85 -2.35 -0.75 -1.6 -0.2 -1.6 1.1 M0.4 3.9 L-1.6 3.9 -1.6 2.6 0.4 2.6 0.4 3.9 M1.9 -1.2 Q1.9 -0.15 1.15 0.55 L0.4 1.1 0.4 -0.2 Q0.85 -0.4 1.15 -0.75 L1.85 -1.85 1.9 -1.2" fill="#2c90b1" fill-rule="evenodd" stroke="none"/>
    <path d="M10.95 7.65 Q9.8 9.85 8.85 10.65 8.0 11.35 5.3 11.8 L-0.3 12.0 -6.0 11.8 Q-8.75 11.35 -9.55 10.65 -10.55 9.85 -11.65 7.65 L-12.05 6.85 11.35 6.85 10.95 7.65" fill="#799e49" fill-rule="evenodd" stroke="none"/>
    <path d="M10.95 7.65 Q9.8 9.85 8.85 10.65 8.0 11.35 5.3 11.8 L-0.3 12.0 -6.0 11.8 Q-8.75 11.35 -9.55 10.65 -10.55 9.85 -11.65 7.65 L-12.05 6.85 11.35 6.85 10.95 7.65 Z" fill="none" stroke="#385123" stroke-linecap="round" stroke-linejoin="round" stroke-width="4.0"/>
    <path d="M-14.15 -13.4 L-14.05 -13.35 Q-14.4 -15.55 -14.25 -17.6 -14.0 -21.2 -12.3 -24.05 -10.6 -26.9 -7.1 -28.35 L-4.65 -29.1 Q-7.75 -30.5 -7.5 -36.7 L-3.35 -37.05 Q-4.85 -32.25 -4.1 -29.35 -4.5 -32.2 0.05 -34.65 L2.05 -31.85 Q-1.9 -30.95 -3.6 -29.3 L-0.35 -29.55 Q3.45 -29.55 6.4 -28.35 9.85 -26.9 11.6 -24.05 13.3 -21.2 13.55 -17.6 L13.4 -13.55 Q14.85 -14.15 16.2 -13.2 17.9 -12.05 17.25 -10.0 16.7 -8.4 15.3 -7.2 14.35 -6.4 12.6 -6.5 L11.45 -6.65 11.4 -6.65 11.35 -6.55 -12.05 -6.55 -12.15 -6.75 -12.6 -6.65 -13.75 -6.5 Q-15.5 -6.4 -16.45 -7.2 -17.85 -8.4 -18.4 -10.0 -19.05 -12.05 -17.35 -13.2 -15.8 -14.25 -14.15 -13.4" fill="#9e8b49" fill-rule="evenodd" stroke="none"/>
    <path d="M-14.15 -13.4 Q-15.8 -14.25 -17.35 -13.2 -19.05 -12.05 -18.4 -10.0 -17.85 -8.4 -16.45 -7.2 -15.5 -6.4 -13.75 -6.5 L-12.6 -6.65 -12.15 -6.75 -12.05 -6.55 11.35 -6.55 11.4 -6.65 11.45 -6.65 12.6 -6.5 Q14.35 -6.4 15.3 -7.2 16.7 -8.4 17.25 -10.0 17.9 -12.05 16.2 -13.2 14.85 -14.15 13.4 -13.55 L13.55 -17.6 Q13.3 -21.2 11.6 -24.05 9.85 -26.9 6.4 -28.35 3.45 -29.55 -0.35 -29.55 L-3.6 -29.3 Q-1.9 -30.95 2.05 -31.85 L0.05 -34.65 Q-4.5 -32.2 -4.1 -29.35 -4.85 -32.25 -3.35 -37.05 L-7.5 -36.7 Q-7.75 -30.5 -4.65 -29.1 L-7.1 -28.35 Q-10.6 -26.9 -12.3 -24.05 -14.0 -21.2 -14.25 -17.6 -14.4 -15.55 -14.05 -13.35 L-14.15 -13.4 Z" fill="none" stroke="#385123" stroke-linecap="round" stroke-linejoin="round" stroke-width="4.0"/>
    <path d="M10.95 7.65 Q9.8 9.85 8.85 10.65 8.0 11.35 5.3 11.8 L-0.3 12.0 -6.0 11.8 Q-8.75 11.35 -9.55 10.65 -10.55 9.85 -11.65 7.65 L-12.05 6.85 11.35 6.85 10.95 7.65" fill="#799e49" fill-rule="evenodd" stroke="none"/>
    <path d="M6.1 9.65 L-6.8 9.65 -5.65 6.85 4.95 6.85 6.1 9.65" fill="#e05f3b" fill-rule="evenodd" stroke="none"/>
    <path d="M4.3 9.5 L2.6 9.6 3.05 9.55 3.05 6.85 3.95 6.85 Q4.3 8.0 4.3 9.4 L4.3 9.5 M2.35 9.6 L-0.05 9.6 -0.05 6.85 2.35 6.85 2.35 9.6 M-5.1 9.5 L-5.1 9.4 Q-5.1 8.0 -4.75 6.85 L-3.8 6.85 -3.8 9.55 -5.1 9.5 M-0.75 9.6 L-3.1 9.6 -3.1 6.85 -0.75 6.85 -0.75 9.6" fill="#e2dbcc" fill-rule="evenodd" stroke="none"/>
    <path d="M-7.05 9.5 L0.6 9.15 8.15 9.75 9.45 10.05 8.85 10.65 Q8.0 11.35 5.3 11.8 L-0.3 12.0 -6.0 11.8 Q-8.75 11.35 -9.55 10.65 L-9.9 10.3 Q-9.25 9.8 -7.05 9.5" fill="#000000" fill-opacity="0.3019608" fill-rule="evenodd" stroke="none"/>
    <path d="M-13.15 -12.7 L-14.15 -13.4 Q-15.8 -14.25 -17.35 -13.2 -19.05 -12.05 -18.4 -10.0 -17.85 -8.4 -16.45 -7.2 -15.5 -6.4 -13.75 -6.5 L-12.6 -6.65 -12.15 -6.75 -12.8 -12.3 -13.15 -12.7" fill="#799e49" fill-rule="evenodd" stroke="none"/>
    <path d="M-13.1 -11.1 L-15.45 -10.95 Q-16.65 -10.15 -16.15 -8.65 -15.75 -7.45 -14.75 -6.6 L-14.65 -6.55 -13.7 -6.5 -12.6 -6.65 -12.1 -6.75 -12.6 -10.75 -13.1 -11.1" fill="#e05f3b" fill-rule="evenodd" stroke="none"/>
    <path d="M13.0 -13.4 Q14.65 -14.25 16.2 -13.2 17.9 -12.05 17.25 -10.0 16.7 -8.4 15.3 -7.2 14.35 -6.4 12.6 -6.5 L11.45 -6.65 11.0 -6.75 11.65 -12.3 12.0 -12.7 13.0 -13.4" fill="#799e49" fill-rule="evenodd" stroke="none"/>
    <path d="M11.95 -11.1 L14.3 -10.95 Q15.5 -10.15 15.0 -8.65 14.6 -7.45 13.6 -6.6 L13.5 -6.55 12.55 -6.5 11.45 -6.65 10.95 -6.75 11.45 -10.75 11.95 -11.1" fill="#e05f3b" fill-rule="evenodd" stroke="none"/>
    <path d="M-7.5 -36.7 L-3.35 -37.05 Q-5.0 -31.8 -3.95 -28.85 -7.8 -29.85 -7.5 -36.7" fill="#799e49" fill-rule="evenodd" stroke="none"/>
    <path d="M0.05 -34.65 L2.05 -31.85 Q-2.4 -30.85 -4.0 -28.85 -4.9 -32.0 0.05 -34.65" fill="#799e49" fill-rule="evenodd" stroke="none"/>
    <path d="M13.55 -17.6 Q13.75 -14.5 12.9 -11.1 12.3 -8.7 11.35 -6.55 L-12.05 -6.55 Q-13.05 -8.7 -13.65 -11.1 -14.45 -14.5 -14.25 -17.6 -14.0 -21.2 -12.3 -24.05 -10.6 -26.9 -7.1 -28.35 -4.2 -29.55 -0.35 -29.55 3.45 -29.55 6.4 -28.35 9.85 -26.9 11.6 -24.05 13.3 -21.2 13.55 -17.6" fill="#799e49" fill-rule="evenodd" stroke="none"/>
    <path d="M9.7 -23.2 L12.95 -20.95 Q13.45 -19.35 13.55 -17.6 13.75 -14.5 12.9 -11.1 L12.45 -9.45 Q9.5 -7.85 6.55 -8.4 L3.7 -9.55 4.95 -6.55 -5.65 -6.55 -4.4 -9.55 -7.25 -8.4 Q-10.25 -7.85 -13.2 -9.5 L-13.65 -11.1 Q-14.45 -14.5 -14.25 -17.6 -14.15 -19.35 -13.65 -20.95 L-10.4 -23.2 Q-6.55 -25.6 -2.95 -22.3 -1.4 -20.8 -0.35 -19.0 0.7 -20.8 2.25 -22.3 5.85 -25.6 9.7 -23.2" fill="#e05f3b" fill-rule="evenodd" stroke="none"/>
    <path d="M-12.6 -14.75 L-4.5 -14.75 -4.5 -13.1 -12.6 -13.1 -12.6 -14.75" fill="#3a5616" fill-rule="evenodd" stroke="none"/>
    <path d="M3.55 -14.75 L11.65 -14.75 11.65 -13.1 3.55 -13.1 3.55 -14.75" fill="#3a5616" fill-rule="evenodd" stroke="none"/>
    <path d="M-0.05 -10.6 Q1.3 -10.5 2.35 -9.35 L2.35 -6.55 -0.05 -6.55 -0.05 -10.6 M3.05 -8.45 L3.95 -6.55 3.05 -6.55 3.05 -8.45 M-3.8 -6.55 L-4.75 -6.55 -3.8 -8.55 -3.8 -6.55 M-3.1 -9.45 Q-2.05 -10.5 -0.75 -10.6 L-0.75 -6.55 -3.1 -6.55 -3.1 -9.45" fill="#e2dbcc" fill-rule="evenodd" stroke="none"/>
    <path d="M3.8 -26.15 Q4.05 -24.85 2.25 -23.6 0.4 -22.25 -2.45 -21.7 -5.25 -21.1 -7.4 -21.6 -9.6 -22.0 -9.85 -23.3 -10.15 -24.6 -8.35 -26.0 -6.5 -27.25 -3.7 -27.85 L1.3 -28.0 Q3.5 -27.45 3.8 -26.15" fill="#ffff99" fill-opacity="0.3019608" fill-rule="evenodd" stroke="none"/>
  </g>
</svg>
