<?xml version="1.0" encoding="UTF-8" standalone="no"?>
<svg xmlns:xlink="http://www.w3.org/1999/xlink" height="157.45px" width="111.6px" xmlns="http://www.w3.org/2000/svg">
  <g transform="matrix(1.0, 0.0, 0.0, 1.0, 57.2, 77.1)">
    <path d="M-45.5 -69.9 L-47.3 -67.25 -53.9 -72.15 -53.7 -72.85 -50.55 -76.9 -49.95 -77.1 -45.5 -69.9 M-56.4 -62.4 L-48.8 -57.8 -48.15 -42.4 -55.95 -41.9 -56.1 -62.2 -56.4 -62.4 M-49.65 3.4 L-49.5 15.9 -56.3 10.9 -56.05 1.75 -49.65 3.4 M34.85 71.25 L47.5 66.1 54.4 73.9 54.2 74.45 48.3 77.1 38.6 79.25 37.6 79.25 34.85 71.25 M-50.5 57.4 L-49.1 61.4 -55.35 69.45 -57.15 63.4 -57.2 62.05 -50.5 57.4 M-12.75 70.85 L-4.85 71.65 -7.55 79.85 -16.15 80.35 -12.75 70.85 M-44.5 68.05 L-29.95 71.65 -36.4 77.9 -49.85 76.3 -50.35 75.75 -44.5 68.05" fill="#80713c" fill-rule="evenodd" stroke="none"/>
  </g>
</svg>
