<?xml version="1.0" encoding="UTF-8" standalone="no"?>
<svg xmlns:xlink="http://www.w3.org/1999/xlink" height="31.0px" width="8.7px" xmlns="http://www.w3.org/2000/svg">
  <g transform="matrix(1.0, 0.0, 0.0, 1.0, 4.8, 15.0)">
    <path d="M1.35 -11.85 L1.35 12.8 -2.15 12.8 -2.15 -11.85 1.35 -11.85" fill="#ce9b00" fill-rule="evenodd" stroke="none"/>
    <path d="M1.4 -15.0 Q2.5 -15.0 3.25 -14.2 3.9 -13.55 3.9 -12.45 L3.9 13.45 Q3.9 14.55 3.25 15.25 2.5 16.0 1.4 16.0 L-2.25 16.0 Q-3.35 16.0 -4.0 15.25 -4.8 14.55 -4.8 13.45 L-4.8 -12.45 Q-4.8 -13.55 -4.0 -14.2 -3.35 -15.0 -2.25 -15.0 L1.4 -15.0 M1.35 -11.85 L-2.15 -11.85 -2.15 12.8 1.35 12.8 1.35 -11.85" fill="#624900" fill-rule="evenodd" stroke="none"/>
  </g>
</svg>
