<?xml version="1.0" encoding="UTF-8" standalone="no"?>
<svg xmlns:xlink="http://www.w3.org/1999/xlink" height="16.8px" width="16.8px" xmlns="http://www.w3.org/2000/svg">
  <g transform="matrix(1.0, 0.0, 0.0, 1.0, 8.4, 8.4)">
    <path d="M5.95 6.3 L0.4 0.75 2.0 8.4 0.0 0.85 -2.45 8.3 -0.45 0.75 -6.25 5.95 -0.75 0.4 -8.4 2.05 -0.85 0.0 -8.3 -2.45 -0.7 -0.4 -5.95 -6.25 -0.4 -0.7 -2.0 -8.4 0.0 -0.8 2.45 -8.25 0.45 -0.7 6.25 -5.95 0.75 -0.35 8.4 -2.0 0.85 0.05 8.3 2.5 0.7 0.45 5.95 6.3" fill="url(#gradient0)" fill-rule="evenodd" stroke="none"/>
    <path d="M-0.25 6.8 L-6.25 3.35 -6.25 -3.55 -0.25 -7.0 5.75 -3.55 5.75 3.35 -0.25 6.8" fill="url(#gradient1)" fill-rule="evenodd" stroke="none"/>
    <path d="M-0.25 3.8 L-3.65 1.85 -3.65 -2.05 -0.25 -4.0 3.15 -2.05 3.15 1.85 -0.25 3.8" fill="url(#gradient2)" fill-rule="evenodd" stroke="none"/>
  </g>
  <defs>
    <radialGradient cx="0" cy="0" gradientTransform="matrix(0.0106, 0.0, 0.0, 0.0106, 0.0, 0.0)" gradientUnits="userSpaceOnUse" id="gradient0" r="819.2" spreadMethod="pad">
      <stop offset="0.47058823529411764" stop-color="#ffffff"/>
      <stop offset="1.0" stop-color="#ffff00" stop-opacity="0.0"/>
    </radialGradient>
    <radialGradient cx="0" cy="0" gradientTransform="matrix(0.0085, 0.0, 0.0, 0.0085, -0.25, -0.1)" gradientUnits="userSpaceOnUse" id="gradient1" r="819.2" spreadMethod="pad">
      <stop offset="0.0" stop-color="#ffffff" stop-opacity="0.3019608"/>
      <stop offset="1.0" stop-color="#ffff9e" stop-opacity="0.0"/>
    </radialGradient>
    <radialGradient cx="0" cy="0" gradientTransform="matrix(0.0048, 0.0, 0.0, 0.0048, -0.25, -0.1)" gradientUnits="userSpaceOnUse" id="gradient2" r="819.2" spreadMethod="pad">
      <stop offset="0.47058823529411764" stop-color="#ffffff"/>
      <stop offset="1.0" stop-color="#ffff00" stop-opacity="0.0"/>
    </radialGradient>
  </defs>
</svg>
