<?xml version="1.0" encoding="UTF-8" standalone="no"?>
<svg xmlns:xlink="http://www.w3.org/1999/xlink" height="27.7px" width="27.7px" xmlns="http://www.w3.org/2000/svg">
  <g transform="matrix(1.0, 0.0, 0.0, 1.0, 13.85, 13.85)">
    <path d="M9.8 10.4 L0.65 1.25 3.3 13.85 0.0 1.4 -4.05 13.7 -0.75 1.25 -10.3 9.8 -1.25 0.65 -13.85 3.4 -1.4 0.0 -13.7 -4.05 -1.15 -0.65 -9.8 -10.3 -0.65 -1.15 -3.3 -13.85 0.0 -1.3 4.05 -13.6 0.75 -1.15 10.3 -9.8 1.25 -0.6 13.85 -3.3 1.4 0.1 13.7 4.1 1.15 0.75 9.8 10.4" fill="url(#gradient0)" fill-rule="evenodd" stroke="none"/>
    <path d="M-0.25 6.8 L-6.25 3.35 -6.25 -3.55 -0.25 -7.0 5.75 -3.55 5.75 3.35 -0.25 6.8" fill="url(#gradient1)" fill-rule="evenodd" stroke="none"/>
    <path d="M-0.25 11.15 L-10.05 5.5 -10.05 -5.75 -0.25 -11.35 9.5 -5.75 9.5 5.5 -0.25 11.15" fill="url(#gradient2)" fill-rule="evenodd" stroke="none"/>
    <path d="M-0.25 3.8 L-3.65 1.85 -3.65 -2.05 -0.25 -4.0 3.15 -2.05 3.15 1.85 -0.25 3.8" fill="url(#gradient3)" fill-rule="evenodd" stroke="none"/>
  </g>
  <defs>
    <radialGradient cx="0" cy="0" gradientTransform="matrix(0.0174, 0.0, 0.0, 0.0174, 0.0, 0.0)" gradientUnits="userSpaceOnUse" id="gradient0" r="819.2" spreadMethod="pad">
      <stop offset="0.47058823529411764" stop-color="#ffffff"/>
      <stop offset="1.0" stop-color="#00ccff" stop-opacity="0.0"/>
    </radialGradient>
    <radialGradient cx="0" cy="0" gradientTransform="matrix(0.0085, 0.0, 0.0, 0.0085, -0.25, -0.1)" gradientUnits="userSpaceOnUse" id="gradient1" r="819.2" spreadMethod="pad">
      <stop offset="0.0" stop-color="#00ffff" stop-opacity="0.3019608"/>
      <stop offset="1.0" stop-color="#00ffff" stop-opacity="0.0"/>
    </radialGradient>
    <radialGradient cx="0" cy="0" gradientTransform="matrix(0.0138, 0.0, 0.0, 0.0138, -0.25, -0.1)" gradientUnits="userSpaceOnUse" id="gradient2" r="819.2" spreadMethod="pad">
      <stop offset="0.0" stop-color="#00ffff" stop-opacity="0.3019608"/>
      <stop offset="1.0" stop-color="#00ffff" stop-opacity="0.0"/>
    </radialGradient>
    <radialGradient cx="0" cy="0" gradientTransform="matrix(0.0048, 0.0, 0.0, 0.0048, -0.25, -0.1)" gradientUnits="userSpaceOnUse" id="gradient3" r="819.2" spreadMethod="pad">
      <stop offset="0.47058823529411764" stop-color="#ffffff"/>
      <stop offset="1.0" stop-color="#00ffff" stop-opacity="0.0"/>
    </radialGradient>
  </defs>
</svg>
