<?xml version="1.0" encoding="UTF-8" standalone="no"?>
<svg xmlns:xlink="http://www.w3.org/1999/xlink" height="63.9px" width="28.35px" xmlns="http://www.w3.org/2000/svg">
  <g transform="matrix(1.0, 0.0, 0.0, 1.0, -41.4, 78.5)">
    <path d="M65.05 -70.7 Q65.05 -70.0 63.7 -68.3 L62.0 -66.25 Q60.05 -63.45 57.25 -61.9 57.8 -61.15 60.7 -58.95 63.3 -57.0 63.65 -56.05 L65.75 -50.4 65.4 -49.4 Q65.0 -48.7 64.35 -48.55 L60.4 -48.4 55.1 -48.25 53.75 -44.6 Q52.65 -41.2 52.65 -40.05 52.65 -39.55 57.6 -38.05 62.5 -36.55 62.5 -34.8 62.5 -32.35 61.4 -31.65 56.35 -28.6 54.75 -27.35 L54.05 -26.8 Q56.9 -22.5 57.5 -18.8 L57.5 -18.6 Q56.65 -19.1 54.9 -22.55 53.55 -25.25 53.3 -26.2 L46.0 -20.35 45.55 -20.5 Q45.4 -20.6 45.4 -21.0 45.4 -21.55 47.9 -24.0 L51.4 -27.25 54.9 -30.3 Q57.05 -32.1 59.75 -33.5 L60.25 -34.9 Q60.25 -35.15 55.75 -36.85 51.25 -38.5 51.25 -39.1 51.25 -40.45 52.9 -45.5 L53.2 -47.0 53.5 -48.65 Q53.85 -49.85 54.4 -50.0 L62.35 -50.65 62.9 -50.9 61.95 -53.8 Q61.4 -55.45 60.15 -56.5 L57.35 -58.85 Q54.75 -61.15 54.75 -61.95 54.75 -62.75 56.8 -64.1 L59.9 -66.25 61.45 -68.3 63.0 -70.4 59.45 -72.2 Q57.5 -73.2 57.5 -73.8 L57.6 -74.5 Q58.5 -74.6 61.8 -72.95 65.05 -71.3 65.05 -70.7" fill="#ffffff" fill-rule="evenodd" stroke="none"/>
    <path d="M65.05 -70.7 Q65.05 -70.0 63.7 -68.3 L62.0 -66.25 Q60.05 -63.45 57.25 -61.9 57.8 -61.15 60.7 -58.95 63.3 -57.0 63.65 -56.05 L65.75 -50.4 65.4 -49.4 Q65.0 -48.7 64.35 -48.55 L60.4 -48.4 55.1 -48.25 53.75 -44.6 Q52.65 -41.2 52.65 -40.05 52.65 -39.55 57.6 -38.05 62.5 -36.55 62.5 -34.8 62.5 -32.35 61.4 -31.65 56.35 -28.6 54.75 -27.35 L54.05 -26.8 Q56.9 -22.5 57.5 -18.8 L57.5 -18.6 Q56.65 -19.1 54.9 -22.55 53.55 -25.25 53.3 -26.2 L46.0 -20.35 45.55 -20.5 Q45.4 -20.6 45.4 -21.0 45.4 -21.55 47.9 -24.0 L51.4 -27.25 54.9 -30.3 Q57.05 -32.1 59.75 -33.5 L60.25 -34.9 Q60.25 -35.15 55.75 -36.85 51.25 -38.5 51.25 -39.1 51.25 -40.45 52.9 -45.5 L53.2 -47.0 53.5 -48.65 Q53.85 -49.85 54.4 -50.0 L62.35 -50.65 62.9 -50.9 61.95 -53.8 Q61.4 -55.45 60.15 -56.5 L57.35 -58.85 Q54.75 -61.15 54.75 -61.95 54.75 -62.75 56.8 -64.1 L59.9 -66.25 61.45 -68.3 63.0 -70.4 59.45 -72.2 Q57.5 -73.2 57.5 -73.8 L57.6 -74.5 Q58.5 -74.6 61.8 -72.95 65.05 -71.3 65.05 -70.7 Z" fill="none" stroke="#8337de" stroke-linecap="round" stroke-linejoin="round" stroke-width="8.0"/>
  </g>
</svg>
