<?xml version="1.0" encoding="UTF-8" standalone="no"?>
<svg xmlns:xlink="http://www.w3.org/1999/xlink" height="242.55px" width="504.5px" xmlns="http://www.w3.org/2000/svg">
  <g transform="matrix(1.0, 0.0, 0.0, 1.0, 0.0, 0.0)">
    <path d="M496.05 11.2 L496.05 18.85 494.75 18.8 Q495.05 20.45 494.5 24.5 494.4 27.6 496.05 29.75 L496.1 34.65 496.05 70.2 Q495.25 73.05 495.25 74.85 L496.05 79.6 496.05 79.65 494.75 79.65 494.75 104.85 495.25 104.85 495.45 111.55 Q495.6 113.5 496.05 115.05 L496.05 126.6 Q495.2 129.4 494.25 136.25 493.3 143.65 493.3 147.6 493.3 149.45 494.65 154.4 495.9 159.0 496.05 161.15 L496.05 179.75 495.55 183.55 493.95 193.5 493.95 201.85 496.05 201.9 496.05 211.55 Q494.95 214.5 493.85 220.6 492.6 228.35 492.6 232.7 L492.7 234.35 415.25 234.35 415.25 233.35 394.6 234.35 356.45 234.35 356.45 233.35 348.8 233.25 348.75 234.1 346.8 234.05 346.9 234.35 305.8 234.35 304.7 233.75 304.7 229.85 303.9 229.85 303.9 228.35 296.35 228.3 295.85 228.7 Q295.25 228.9 295.0 229.2 L295.0 231.5 294.3 231.5 293.85 232.2 292.9 232.95 292.9 233.35 Q282.8 233.25 281.6 233.45 281.75 233.85 279.0 234.05 L279.0 234.35 211.65 234.35 211.3 234.2 210.7 233.8 205.1 233.55 205.1 230.95 197.5 230.85 Q197.5 231.85 197.65 232.6 L193.45 232.6 190.3 234.35 10.95 234.35 10.3 233.75 10.3 231.2 Q8.15 229.25 7.35 226.55 L7.35 210.2 8.15 210.2 8.15 181.15 7.35 178.2 7.35 163.8 8.15 155.7 8.15 142.8 8.85 142.8 8.85 132.8 Q8.15 131.75 8.15 129.6 L7.35 129.6 7.35 127.9 9.6 127.9 9.6 123.95 Q8.85 122.45 8.5 120.0 8.15 118.2 8.15 117.1 L8.4 114.45 8.85 110.9 8.85 84.2 7.35 84.2 7.35 82.55 8.85 82.65 8.85 66.15 7.35 60.05 7.35 49.75 8.15 49.75 Q8.15 48.35 8.85 47.25 L8.85 34.25 Q8.9 32.3 9.6 31.4 L9.6 18.8 Q9.0 16.45 8.9 11.95 10.55 10.1 12.25 8.9 L17.8 8.9 17.8 9.65 37.9 9.75 46.15 9.25 50.4 8.9 55.25 8.9 55.25 9.65 67.05 9.65 86.2 9.9 Q86.2 10.05 99.45 10.2 L114.0 10.55 121.85 9.55 130.45 8.9 287.95 8.9 287.95 10.1 303.25 10.1 305.25 9.9 337.05 9.75 337.05 8.9 368.85 8.9 368.85 10.1 382.7 10.1 389.3 9.8 395.1 9.5 432.4 9.4 436.35 9.05 440.45 8.95 464.25 9.0 464.25 10.1 471.1 10.1 475.8 9.75 490.45 9.45 490.45 10.8 493.1 11.2 496.05 11.2" fill="#000000" fill-opacity="0.3019608" fill-rule="evenodd" stroke="none"/>
    <path d="M498.3 9.65 L498.3 17.3 496.95 17.25 Q497.2 18.95 496.7 22.9 496.65 26.1 498.3 28.25 L498.35 33.1 498.3 68.65 Q497.55 71.5 497.55 73.35 L498.3 78.1 498.3 78.2 496.95 78.2 496.95 103.35 497.55 103.35 Q497.55 108.2 497.7 110.0 497.8 111.95 498.3 113.65 L498.3 125.0 Q497.5 127.85 496.45 134.75 495.5 142.15 495.5 146.05 495.5 148.0 496.9 152.9 498.15 157.45 498.3 159.6 L498.3 178.25 497.75 182.0 496.25 191.95 496.25 200.4 498.3 200.4 498.3 209.95 Q497.15 213.0 496.1 219.1 494.8 226.85 494.8 231.1 L494.9 232.9 417.45 232.9 417.45 231.85 396.8 232.9 358.7 232.9 358.7 231.85 351.05 231.75 351.0 232.55 349.1 232.55 349.15 232.9 308.0 232.9 306.85 232.15 306.85 228.2 306.15 228.2 306.15 226.85 298.65 226.8 298.05 227.05 297.25 227.65 297.25 229.95 296.55 229.9 296.05 230.7 295.15 231.4 295.15 231.85 Q285.0 231.75 283.85 232.0 284.0 232.35 281.3 232.55 L281.3 232.9 213.85 232.9 213.5 232.7 212.9 232.2 207.35 232.0 207.35 229.3 199.75 229.3 199.85 231.1 195.65 231.1 192.6 232.9 13.2 232.9 12.45 232.15 12.45 229.7 Q10.45 227.7 9.6 225.05 L9.6 208.7 10.45 208.7 10.45 179.55 Q9.9 178.4 9.6 176.65 L9.6 162.25 Q9.95 157.2 10.45 154.2 L10.45 141.2 11.05 141.2 11.05 131.25 Q10.45 130.2 10.45 128.1 L9.6 128.1 9.6 126.35 11.85 126.35 11.85 122.4 Q11.05 120.95 10.7 118.5 L10.45 115.6 10.55 112.9 11.05 109.4 11.05 82.65 9.6 82.65 9.6 81.15 11.05 81.15 11.05 64.6 9.6 58.5 9.6 48.2 10.45 48.2 Q10.45 46.85 11.05 45.8 L11.05 32.75 Q11.1 30.85 11.85 29.9 L11.85 17.25 Q11.25 14.9 11.1 10.5 12.8 8.6 14.45 7.25 L20.05 7.25 20.05 8.15 40.2 8.25 48.35 7.8 52.6 7.25 57.5 7.25 57.5 8.15 69.25 8.15 88.45 8.35 101.7 8.7 116.25 9.0 124.1 8.1 132.7 7.25 290.2 7.25 290.2 8.5 305.45 8.6 307.5 8.35 339.2 8.25 339.2 7.25 371.1 7.25 371.1 8.5 384.9 8.6 391.5 8.35 397.35 7.95 434.6 7.85 438.6 7.6 442.7 7.45 466.45 7.45 466.45 8.5 473.3 8.6 478.0 8.25 Q483.35 7.95 492.7 7.9 L492.7 9.35 495.25 9.65 498.3 9.65" fill="#ce9d46" fill-rule="evenodd" stroke="none"/>
    <path d="M501.4 28.15 L501.75 29.15 500.2 30.7 Q498.75 31.4 496.05 31.4 493.35 31.4 491.65 30.8 L491.5 30.15 Q494.5 29.9 497.8 28.95 L501.4 28.15 M500.7 36.8 L499.5 37.05 495.95 36.55 Q493.35 36.2 493.1 35.85 494.4 35.2 496.95 35.05 499.35 34.65 500.85 35.05 L501.1 36.1 500.7 36.8 M498.5 86.45 L494.75 85.4 Q494.4 86.25 494.4 84.55 494.4 80.6 503.25 85.85 L503.05 86.8 Q502.65 87.25 501.8 87.25 L498.5 86.45 M491.3 161.0 Q491.35 160.95 491.4 161.05 L497.7 160.8 498.9 160.95 500.85 161.1 501.1 162.15 Q500.65 163.0 500.1 163.1 L491.35 163.1 Q491.1 163.05 491.1 162.1 491.1 161.05 491.3 161.0 M494.2 169.9 L495.15 169.8 Q497.25 168.6 499.35 168.7 501.1 168.75 504.25 170.25 L504.5 171.35 Q503.95 172.55 502.05 172.55 L498.15 172.3 494.9 172.3 Q491.9 171.7 491.65 171.2 492.75 170.25 494.2 169.9 M475.9 8.75 L474.45 12.15 473.65 12.3 Q473.25 11.7 473.15 10.9 L473.05 8.95 Q473.05 7.85 473.9 6.1 474.75 4.5 475.65 3.65 L476.55 4.0 Q476.9 4.15 476.9 5.2 476.9 6.6 475.9 8.75 M407.45 4.8 L407.55 4.6 408.05 4.6 409.15 7.4 410.05 10.05 Q410.05 11.75 409.75 10.85 L409.15 11.7 Q408.5 10.95 407.95 9.35 407.3 7.55 407.3 6.1 407.3 5.05 407.45 4.8 M387.5 9.85 Q386.6 6.3 386.6 5.65 386.6 4.55 387.15 4.2 L387.85 4.1 Q389.95 6.2 390.7 12.3 L390.7 12.4 388.4 12.4 Q387.9 11.45 387.5 9.85 M387.1 13.6 Q386.9 13.95 385.95 13.95 385.55 13.95 385.0 12.4 L387.35 12.4 387.1 13.6 M337.95 7.4 Q339.05 10.05 339.05 10.95 L339.0 11.9 338.45 11.8 Q337.2 10.95 336.8 8.65 L335.9 4.8 336.15 4.35 Q336.8 4.6 337.95 7.4 M475.15 242.0 Q473.85 241.35 473.55 239.85 473.4 239.5 473.4 237.85 473.3 235.55 473.55 233.55 473.95 229.3 475.45 228.45 475.95 229.45 476.25 232.6 L476.25 240.85 475.15 242.0 M433.0 229.05 L433.1 230.05 432.7 233.0 Q432.15 235.2 432.15 236.0 L431.85 237.85 Q431.45 238.9 431.4 239.5 L430.2 239.85 429.15 239.5 Q428.85 240.25 428.85 238.65 428.85 236.65 429.75 233.75 430.7 229.85 432.5 228.85 L433.0 229.05 M392.7 233.25 Q393.2 230.75 394.05 229.9 395.25 231.0 395.25 233.75 L394.3 237.1 393.0 240.15 Q392.5 239.45 392.4 238.8 L392.3 237.05 Q392.3 235.35 392.7 233.25 M337.9 228.9 L338.9 233.7 339.3 237.75 Q339.3 238.75 339.1 238.9 L338.95 239.0 Q339.55 239.35 338.2 239.35 336.75 239.35 336.45 237.8 L336.45 236.0 Q336.1 234.5 336.15 232.9 336.2 229.9 337.9 228.9 M497.25 217.3 Q495.5 216.25 495.05 215.65 496.25 213.6 498.4 214.6 500.05 215.5 501.15 217.3 501.1 218.75 500.1 219.2 L497.25 217.3 M266.55 0.35 L267.25 0.75 267.5 2.3 Q267.5 4.2 263.9 12.4 L262.9 12.4 Q262.75 11.95 262.75 10.45 262.75 9.4 264.35 5.05 265.9 0.75 266.55 0.35 M260.55 12.4 L260.5 12.55 259.5 12.55 259.5 12.4 260.55 12.4 M185.8 10.6 Q185.4 11.45 184.8 11.7 183.7 10.25 182.95 7.9 182.3 5.95 182.3 4.4 182.3 3.4 182.75 3.3 L183.1 3.3 Q184.6 4.55 184.95 6.75 L185.8 10.6 M171.25 0.25 L173.7 10.95 Q173.3 12.0 172.65 12.3 172.2 12.1 171.1 8.2 169.85 4.2 169.85 3.45 169.85 0.7 171.25 0.25 M92.3 12.0 Q92.05 12.3 91.65 12.4 L90.5 12.4 Q89.55 7.25 89.55 4.0 L89.55 2.7 89.75 2.3 90.6 2.3 Q91.95 3.65 91.85 7.15 91.75 11.0 92.3 12.0 M87.2 12.75 L87.15 12.4 88.25 12.4 87.2 12.75 M71.25 6.5 Q71.25 8.2 70.7 11.7 L69.7 11.8 69.45 11.35 69.4 10.05 Q69.4 9.25 69.75 7.25 L70.1 4.5 71.0 4.5 71.2 5.05 71.25 6.5 M33.75 5.5 Q33.75 9.45 33.1 13.15 L32.65 13.55 31.8 14.0 Q30.9 13.45 30.75 13.0 30.5 12.7 30.5 11.4 30.5 1.85 32.4 0.0 33.05 0.95 33.4 2.9 L33.75 5.5 M14.9 31.2 Q14.2 31.75 13.25 31.75 L9.65 31.4 6.6 30.8 Q9.85 27.4 15.2 29.3 L15.65 30.45 14.9 31.2 M13.85 70.9 L14.0 72.15 Q14.0 73.1 11.1 73.95 8.4 74.8 5.45 74.8 L4.45 74.55 4.45 74.45 Q4.15 75.3 4.15 73.6 4.15 72.3 6.7 71.5 9.45 70.6 13.75 71.0 L13.85 70.9 M6.3 90.05 Q5.95 90.0 5.95 88.8 5.95 87.6 8.25 86.95 L12.05 86.85 12.35 88.0 12.05 89.35 9.9 89.6 7.5 90.1 6.3 90.05 M12.65 164.1 L12.8 165.25 1.15 172.2 0.0 171.35 Q0.65 170.05 5.35 166.95 10.55 163.45 12.5 164.15 L12.65 164.1 M1.6 194.45 L1.6 194.3 Q1.25 195.1 1.25 193.5 1.25 192.75 5.95 190.25 10.6 187.8 12.2 187.95 L12.35 188.25 12.4 189.15 Q12.4 191.85 2.55 194.65 L1.6 194.45 M130.85 231.3 Q131.8 227.3 132.45 227.0 132.9 228.2 132.9 230.85 L132.75 235.35 Q132.3 237.95 130.85 239.3 130.4 239.1 130.3 238.9 130.05 238.65 130.05 237.55 130.05 235.35 130.85 231.3 M159.95 234.55 Q159.45 231.4 159.45 230.35 159.45 229.3 159.95 229.3 L160.5 229.25 161.85 229.25 162.45 233.85 163.55 238.9 163.1 239.8 Q162.8 240.25 161.9 240.25 L160.8 240.15 160.75 239.85 159.95 234.55 M113.6 228.5 Q114.85 229.9 115.4 233.3 116.2 237.25 116.85 238.75 L116.6 239.6 Q116.2 240.1 115.3 240.1 114.2 240.1 112.4 230.7 112.4 229.45 112.75 229.15 112.9 228.85 113.6 228.5 M105.05 233.9 L105.3 240.95 104.25 241.95 103.5 241.55 Q103.25 241.25 103.25 240.1 L103.1 232.6 Q103.15 228.2 104.6 227.0 L105.05 233.9 M55.7 228.9 Q57.9 230.25 58.95 235.55 L59.4 238.9 59.5 240.65 59.4 241.95 59.35 242.2 58.5 242.55 Q57.1 240.55 56.4 236.45 55.95 231.75 55.4 229.45 L55.7 228.9 M18.05 233.45 Q19.4 228.1 20.2 227.25 21.0 227.5 21.15 227.7 L21.35 229.3 Q21.35 231.3 20.25 235.25 L18.85 240.95 Q18.5 241.3 17.95 241.4 L16.9 241.15 Q16.75 240.95 16.75 239.8 16.75 238.4 18.05 233.45" fill="#a88335" fill-rule="evenodd" stroke="none"/>
  </g>
</svg>
