<?xml version="1.0" encoding="UTF-8" standalone="no"?>
<svg xmlns:xlink="http://www.w3.org/1999/xlink" height="207.65px" width="180.9px" xmlns="http://www.w3.org/2000/svg">
  <g transform="matrix(1.0, 0.0, 0.0, 1.0, 65.4, 99.0)">
    <path d="M111.85 -5.0 L113.3 -0.7 Q114.2 2.0 114.5 3.75 115.5 9.85 115.5 20.7 110.65 14.0 101.1 7.05 106.95 0.95 111.3 -6.65 L111.85 -5.0 M-59.4 90.0 L-65.4 88.45 -62.25 86.85 -54.8 82.0 -54.65 81.8 Q-55.15 83.8 -55.15 88.3 -55.15 94.75 -53.85 99.0 L-54.55 97.35 Q-55.5 95.0 -55.5 93.4 L-55.35 90.85 -59.4 90.0" fill="#0066ff" fill-rule="evenodd" stroke="none"/>
    <path d="M55.75 -89.25 L56.25 -88.75 55.75 -88.25 55.25 -88.5 Q55.25 -88.95 55.75 -89.25 M40.75 -99.0 L41.25 -98.5 40.75 -98.0 40.25 -98.25 Q40.25 -98.7 40.75 -99.0 M59.85 -77.4 Q60.0 -77.65 60.0 -77.05 L60.0 -76.65 59.9 -76.65 59.75 -76.5 59.55 -76.55 59.5 -76.95 59.5 -77.4 59.85 -77.4 M65.1 -60.0 Q65.3 -59.95 64.95 -59.6 64.6 -59.3 64.35 -59.3 L63.8 -59.4 63.65 -59.5 63.6 -59.7 63.5 -60.25 Q63.5 -60.85 64.05 -60.85 L65.1 -60.0 M95.75 5.5 L96.1 5.7 96.25 6.25 95.5 7.5 94.85 7.5 Q94.65 7.55 94.65 6.9 94.65 6.5 95.15 6.0 L95.75 5.5 M108.25 35.15 L108.4 35.9 108.15 36.5 107.75 36.65 107.0 35.9 Q107.0 34.8 108.25 35.15 M36.25 90.65 L36.25 91.05 36.0 92.15 Q35.35 92.35 35.25 92.15 L35.65 90.5 36.1 90.5 36.25 90.65 M34.25 96.0 L33.65 97.15 Q33.25 97.75 32.5 98.1 L32.0 98.0 31.9 97.65 32.95 96.55 Q33.55 95.95 34.25 96.0 M25.35 102.5 L25.5 102.75 Q24.65 103.9 23.6 104.0 L24.3 103.2 Q24.95 102.6 25.35 102.5 M17.35 108.25 L17.4 108.6 17.0 108.65 16.75 108.25 16.95 108.1 17.35 108.25 M-9.0 -42.05 L-8.25 -41.75 -8.6 -41.35 Q-8.9 -41.15 -9.15 -41.15 L-9.2 -41.1 -9.3 -41.55 -9.2 -42.0 -9.0 -42.05 M-18.0 -44.05 L-18.0 -43.9 -18.5 -43.55 -18.8 -44.25 -18.0 -44.05 M-7.15 61.0 L-7.3 61.25 -7.9 61.25 -8.0 60.5 -7.55 60.5 -7.15 61.0 M-12.15 58.35 L-12.15 58.5 Q-14.0 58.25 -14.0 56.8 L-14.0 56.5 Q-13.55 56.65 -13.0 57.3 L-12.15 58.35" fill="#0099ff" fill-rule="evenodd" stroke="none"/>
  </g>
</svg>
