<?xml version="1.0" encoding="UTF-8" standalone="no"?>
<svg xmlns:xlink="http://www.w3.org/1999/xlink" height="49.1px" width="743.4px" xmlns="http://www.w3.org/2000/svg">
  <g transform="matrix(1.0, 0.0, 0.0, 1.0, -17.7, -86.2)">
    <path d="M761.1 116.15 Q761.1 124.1 755.5 129.7 749.9 135.3 741.95 135.3 734.05 135.3 728.45 129.7 722.85 124.1 722.85 116.15 722.85 108.25 728.45 102.65 734.05 97.05 741.95 97.05 749.9 97.05 755.5 102.65 761.1 108.25 761.1 116.15" fill="#d1b863" fill-rule="evenodd" stroke="none"/>
    <path d="M262.0 92.5 L262.55 92.4 271.9 92.35 273.1 91.9 308.65 91.9 309.9 93.05 Q312.25 94.9 314.9 95.25 L314.9 110.45 Q313.7 111.3 313.7 112.75 313.7 114.25 314.45 116.25 L314.9 117.45 314.9 122.3 Q314.05 123.4 314.05 125.7 L314.1 126.45 313.45 129.35 311.3 129.0 Q309.6 129.05 308.45 130.0 307.65 130.6 307.3 131.5 L303.2 131.0 295.7 131.3 Q293.6 131.7 292.85 132.55 L250.6 132.55 Q249.75 132.05 248.45 131.65 L205.05 131.55 190.7 132.55 167.0 132.55 163.5 132.2 153.75 131.35 Q147.65 131.7 143.7 131.4 141.65 131.5 140.6 132.55 L115.9 132.55 Q115.45 132.1 114.65 131.75 L112.15 131.2 103.4 131.75 98.25 131.7 97.1 131.7 Q93.5 132.05 91.85 132.55 L67.35 132.55 Q66.5 131.85 65.0 131.45 L57.7 131.4 54.85 131.35 43.65 132.55 43.45 132.55 38.3 132.3 33.05 132.05 Q30.35 132.05 28.9 132.55 L22.5 132.55 Q22.3 130.45 21.2 128.65 L20.15 127.2 20.15 125.45 20.8 123.9 20.9 120.7 Q20.9 118.55 20.55 116.7 L20.15 114.45 20.15 106.9 20.6 105.4 20.2 99.2 20.15 97.75 20.15 97.05 20.25 96.95 20.2 96.65 Q20.2 95.7 20.9 95.25 L21.55 94.9 22.35 93.85 23.3 92.55 25.7 92.45 25.85 92.45 27.15 91.9 30.75 91.9 35.7 91.7 53.5 91.65 59.5 91.55 108.6 91.55 110.7 91.85 110.95 91.9 148.05 91.9 148.5 92.25 148.75 92.4 169.6 92.4 178.95 92.95 179.7 92.95 180.1 92.55 184.45 92.9 195.2 91.9 226.95 91.9 230.45 92.6 235.8 92.65 250.45 92.4 250.8 92.35 261.5 92.35 262.0 92.5" fill="#000000" fill-opacity="0.4" fill-rule="evenodd" stroke="none"/>
    <path d="M262.7 90.5 L263.25 90.35 272.6 90.3 273.75 89.9 309.35 89.9 310.65 91.0 Q312.95 92.85 315.65 93.2 L315.65 108.4 Q314.45 109.25 314.45 110.7 314.45 112.2 315.15 114.25 L315.65 115.4 315.65 120.25 Q314.8 121.4 314.8 123.7 L314.85 124.4 314.2 127.3 312.0 127.0 Q310.3 127.05 309.2 127.95 308.4 128.6 308.05 129.5 L303.9 128.95 296.45 129.3 Q294.35 129.65 293.6 130.5 L251.3 130.5 Q250.45 130.0 249.2 129.6 L205.75 129.5 191.4 130.5 167.75 130.5 164.25 130.2 154.45 129.35 Q148.3 129.65 144.45 129.4 142.4 129.5 141.3 130.5 L116.65 130.5 115.35 129.7 112.9 129.15 104.15 129.7 99.0 129.65 97.8 129.65 92.55 130.5 68.05 130.5 Q67.2 129.8 65.7 129.45 L58.4 129.4 55.6 129.35 44.4 130.5 44.15 130.5 39.0 130.3 33.8 130.0 29.65 130.5 23.2 130.5 Q23.05 128.45 21.95 126.6 L20.9 125.15 20.9 123.4 21.55 121.85 21.6 118.65 21.3 114.65 20.9 112.4 20.9 104.9 Q21.35 104.15 21.35 103.4 L20.95 97.15 20.9 95.7 20.9 95.0 21.0 94.9 20.95 94.65 Q20.95 93.7 21.6 93.2 L22.25 92.85 23.05 91.8 24.0 90.55 26.4 90.45 26.6 90.45 27.85 89.9 31.55 89.9 36.45 89.7 54.25 89.6 60.2 89.5 109.35 89.5 111.45 89.8 111.7 89.9 148.85 89.9 149.2 90.2 149.45 90.35 170.3 90.35 179.7 90.9 180.45 90.9 180.85 90.55 185.2 90.85 195.9 89.9 227.65 89.9 231.15 90.6 236.5 90.65 251.15 90.35 251.5 90.3 262.25 90.3 262.7 90.5" fill="#3cadc6" fill-rule="evenodd" stroke="none"/>
    <path d="M282.6 91.15 Q282.6 91.65 281.9 91.65 281.5 91.65 281.25 90.6 L281.1 89.45 281.25 87.5 Q282.6 87.4 282.6 91.15 M287.05 90.6 Q287.05 91.5 286.45 91.5 286.2 91.5 285.9 90.5 L285.75 89.5 Q285.75 87.8 286.35 88.3 287.05 88.75 287.05 90.6 M311.25 88.5 L309.9 90.35 308.05 92.35 307.55 91.95 Q307.55 91.35 309.45 89.0 311.25 86.75 311.25 88.5 M191.1 90.35 L190.2 87.85 190.25 87.45 Q192.05 87.55 193.25 89.75 L194.1 92.0 Q194.1 92.85 193.1 92.85 192.1 92.85 191.1 90.35 M209.45 92.35 Q209.45 90.3 210.9 88.15 212.35 86.0 212.35 88.85 211.25 93.5 210.5 93.5 L209.95 93.45 209.55 93.3 209.45 92.35 M241.3 93.9 L241.15 94.3 240.35 94.55 Q239.85 94.55 239.55 93.7 L239.3 92.7 239.5 89.7 Q239.8 86.95 240.55 88.55 240.75 89.0 240.75 90.7 L240.85 92.6 241.3 93.9 M235.45 131.75 L234.6 131.9 Q233.4 131.9 232.85 129.9 L232.35 127.2 Q234.0 127.15 234.6 128.6 L235.5 131.2 235.45 131.75 M187.55 132.7 L187.3 133.05 Q187.05 133.4 186.55 133.4 185.35 133.4 185.1 131.65 L185.1 129.85 185.2 127.8 Q186.75 127.9 187.3 130.2 187.6 131.35 187.55 132.7 M312.1 109.5 L312.1 109.45 Q312.1 109.05 314.6 108.65 L315.5 108.5 316.0 108.45 Q320.1 107.7 320.1 108.95 320.1 109.3 317.5 109.8 L313.4 110.35 Q312.1 110.35 311.65 109.85 L312.1 109.5 M315.7 122.0 Q319.15 122.1 319.15 122.95 L318.8 123.45 318.25 123.7 316.25 123.7 314.8 123.7 312.8 123.55 312.75 123.3 312.6 123.25 Q312.3 123.15 312.3 122.65 312.3 121.95 315.7 122.0 M294.8 129.65 L294.95 127.2 Q296.95 127.15 297.0 129.4 L296.65 131.7 296.5 132.35 295.9 132.5 Q295.05 132.5 294.8 131.1 L294.8 129.65 M309.7 130.65 Q309.05 130.65 308.25 129.0 L307.65 127.45 Q307.65 125.4 308.95 127.15 L310.45 130.05 310.4 130.45 309.7 130.65 M306.3 128.3 L306.9 130.2 306.8 130.5 306.65 130.7 305.85 131.15 Q304.9 131.15 304.4 129.0 L304.05 126.8 304.3 125.95 Q304.45 125.2 304.9 124.95 305.75 125.7 306.3 128.3 M274.7 132.75 L273.95 132.9 Q273.2 132.9 272.8 131.65 272.5 130.75 272.5 130.2 L272.75 128.2 Q273.95 128.15 274.3 129.65 L274.35 130.05 Q274.95 131.25 274.95 131.9 L274.9 132.2 274.8 132.35 274.7 132.75 M266.3 133.55 Q265.6 133.55 265.45 133.1 L265.45 132.65 Q265.45 131.55 266.05 129.8 266.95 127.35 268.4 127.3 L268.45 128.1 267.75 131.05 Q266.9 133.55 266.3 133.55 M90.85 91.5 Q90.6 91.75 90.15 91.85 88.95 91.05 88.95 87.85 88.95 86.65 89.65 86.2 90.1 86.55 90.65 88.35 L91.1 91.05 90.85 91.5 M84.35 87.8 L84.85 88.45 Q85.35 88.7 85.5 89.6 L85.8 90.5 85.7 91.0 85.55 91.15 85.05 91.3 Q84.6 91.3 84.1 90.15 L83.6 89.0 83.9 88.3 84.35 87.8 M128.85 90.95 Q128.85 89.85 129.8 88.1 130.7 86.35 130.7 89.0 L130.35 91.85 129.7 92.1 Q129.0 92.1 128.85 91.55 L128.85 90.95 M146.3 92.3 L145.55 92.55 Q145.35 92.55 145.1 91.95 144.75 91.85 144.6 90.85 L144.6 90.75 144.35 90.05 143.65 87.6 Q143.65 85.4 145.1 87.65 146.55 89.95 146.55 91.7 L146.3 92.3 M21.35 92.85 Q23.9 94.05 23.9 94.45 23.9 94.9 23.4 95.1 L22.8 95.35 Q22.05 95.35 20.15 94.4 18.1 93.3 17.7 92.35 L17.85 91.65 Q18.8 91.6 21.35 92.85 M25.85 91.5 L25.75 91.7 25.4 91.85 Q24.65 91.85 24.0 90.5 L23.55 89.0 Q23.55 88.6 23.95 88.45 L24.95 89.9 25.85 91.5 M40.0 90.45 L39.85 91.0 39.65 91.1 Q39.45 91.0 39.15 89.8 L38.9 88.45 Q38.9 87.95 39.3 87.85 L39.8 89.15 40.0 90.45 M37.4 89.55 L37.6 91.5 36.95 91.9 36.7 91.85 36.5 91.7 36.2 88.6 36.25 88.35 36.7 87.85 Q37.3 88.45 37.4 89.55 M64.9 128.35 L65.05 128.1 Q66.25 125.75 66.25 129.05 66.15 132.9 64.9 132.9 L64.4 132.8 64.0 132.6 63.95 132.0 Q63.8 131.0 64.4 129.55 L64.4 129.5 Q64.4 128.6 64.8 128.2 L64.9 128.35 M20.35 117.75 Q20.35 117.35 21.8 117.1 L23.65 117.25 Q23.15 117.9 22.0 118.05 L20.7 118.25 Q20.35 118.1 20.35 117.75 M17.85 119.5 Q17.85 119.05 18.45 118.95 L23.15 118.65 Q24.0 119.0 24.0 119.5 L23.75 120.0 23.55 120.15 23.3 120.35 22.3 120.4 21.0 120.35 20.8 120.15 20.55 120.15 17.9 120.0 17.85 119.5 M22.8 111.35 L22.8 111.6 Q22.7 112.35 20.1 112.35 L18.9 112.1 Q19.5 111.35 21.1 111.25 L22.75 111.4 22.8 111.35 M31.55 128.65 Q31.55 125.95 33.05 128.55 34.5 131.1 34.5 131.9 34.5 132.8 33.6 132.8 32.7 132.8 32.05 130.7 L31.55 128.65 M24.1 126.95 L23.3 128.2 Q22.25 129.85 21.5 129.85 21.05 129.85 20.85 129.35 L20.75 128.8 Q23.05 125.8 23.65 125.5 L24.0 125.8 24.25 126.25 24.1 126.95 M123.75 132.7 Q123.75 132.05 124.3 130.45 124.85 128.8 125.1 128.65 125.8 129.5 125.8 131.25 L125.6 132.25 125.35 133.5 124.6 133.7 124.1 133.65 123.85 133.5 123.75 132.7 M127.75 130.0 Q127.75 128.5 128.5 128.0 L129.1 130.15 Q129.35 131.7 129.7 132.25 L129.55 132.7 Q129.5 132.9 128.8 132.9 L128.5 132.7 Q128.25 132.7 128.05 131.85 L127.9 130.9 127.75 130.0 M95.2 133.05 Q94.3 133.05 94.0 131.45 L93.75 129.8 Q93.75 125.45 95.15 128.3 96.45 131.2 96.45 132.25 L96.15 132.8 95.2 133.05" fill="#226573" fill-rule="evenodd" stroke="none"/>
  </g>
</svg>
