<?xml version="1.0" encoding="UTF-8" standalone="no"?>
<svg xmlns:xlink="http://www.w3.org/1999/xlink" height="348.35px" width="440.1px" xmlns="http://www.w3.org/2000/svg">
  <g transform="matrix(1.0, 0.0, 0.0, 1.0, 236.35, 187.75)">
    <path d="M-213.85 59.85 L-214.85 63.85 -214.75 63.6 Q-211.3 55.4 -204.85 53.0 -203.45 47.15 -195.8 35.5 -198.35 34.4 -200.65 32.3 -202.8 30.3 -205.75 26.75 L-215.8 16.55 Q-222.25 9.8 -224.5 5.0 L-235.55 -19.15 Q-236.3 -21.9 -236.35 -25.85 L-236.25 -37.35 Q-236.25 -53.2 -233.8 -63.9 -230.5 -78.15 -221.8 -90.1 -201.15 -118.55 -142.25 -142.75 -119.2 -152.2 -95.9 -158.55 L-56.5 -168.25 Q-33.25 -174.8 -17.0 -178.8 13.15 -186.25 37.0 -187.75 78.2 -187.9 100.55 -175.75 108.4 -171.45 116.35 -164.25 124.7 -156.2 129.0 -152.5 139.05 -142.3 147.2 -128.7 L159.75 -105.25 Q171.95 -82.05 180.95 -59.15 193.5 -27.2 193.5 -10.35 193.5 -3.15 192.15 7.35 190.5 20.0 188.25 23.0 175.05 40.65 170.25 44.3 166.8 46.95 161.4 48.05 164.8 53.65 164.8 58.1 L164.7 62.95 164.4 64.65 Q172.5 62.75 176.8 67.8 177.85 69.0 178.6 70.35 L179.4 71.55 179.55 72.45 179.65 72.75 179.7 72.85 179.7 72.9 179.8 73.15 179.85 73.4 Q180.25 75.0 180.25 76.7 L180.15 79.55 179.85 80.45 Q182.0 81.75 183.2 84.05 186.4 82.7 190.5 83.65 195.95 84.9 199.6 89.5 203.75 94.7 203.75 102.5 203.75 106.9 202.3 110.05 L201.35 111.7 Q202.0 115.1 202.0 119.0 202.0 127.7 198.0 134.0 190.8 145.25 172.5 145.25 165.2 145.25 160.35 141.65 L157.75 141.95 157.65 141.95 157.75 143.85 Q157.75 145.9 156.5 148.35 155.15 151.15 152.8 151.85 L152.15 152.45 Q148.9 154.95 142.7 154.95 136.4 154.95 133.2 151.55 L131.95 149.85 Q130.7 151.8 128.05 153.55 120.25 158.85 106.4 158.85 102.8 158.85 96.65 156.5 L89.25 153.35 Q88.6 155.2 85.6 157.4 81.25 160.6 75.25 160.6 65.6 160.6 61.6 155.15 60.5 153.7 59.7 151.2 57.3 153.5 51.65 155.5 44.15 158.1 40.55 158.1 26.55 158.1 16.85 149.45 13.85 146.8 11.8 143.8 10.7 146.6 8.45 149.7 2.7 157.35 -6.6 157.35 -16.9 157.35 -23.25 149.35 -25.9 151.7 -29.3 153.95 -36.05 158.45 -40.7 158.45 -52.2 158.45 -56.4 152.3 -57.8 150.3 -58.5 147.4 L-59.1 144.45 -64.95 145.0 -70.75 145.45 Q-84.85 145.45 -91.45 139.55 -96.4 135.2 -96.4 128.55 L-96.4 127.95 -96.45 127.75 -96.65 127.35 -100.05 128.95 Q-102.15 129.95 -106.05 129.95 -112.8 129.95 -117.55 127.5 L-119.55 129.95 Q-124.7 135.35 -138.0 141.1 L-164.6 141.1 Q-170.5 145.35 -179.5 145.35 -188.0 145.35 -193.75 143.85 -203.3 141.35 -203.5 135.1 L-205.0 135.1 Q-227.25 135.1 -233.85 122.1 -237.2 115.5 -236.1 108.25 -236.1 97.25 -230.25 89.6 -225.95 83.9 -219.6 81.4 L-219.35 80.65 -219.4 80.3 Q-219.4 75.7 -218.9 73.75 -218.55 72.35 -217.9 71.45 -217.8 69.05 -217.4 67.6 -216.7 64.6 -213.85 59.85" fill="#ff0000" fill-rule="evenodd" stroke="none"/>
  </g>
</svg>
