<?xml version="1.0" encoding="UTF-8" standalone="no"?>
<svg xmlns:xlink="http://www.w3.org/1999/xlink" height="60.5px" width="110.4px" xmlns="http://www.w3.org/2000/svg">
  <g transform="matrix(1.0, 0.0, 0.0, 1.0, 56.5, 40.4)">
    <path d="M-32.25 -16.2 Q-35.7 -12.75 -40.45 -12.75 -45.15 -12.75 -48.6 -16.2 -52.0 -19.65 -52.0 -24.35 -52.0 -29.05 -48.6 -32.5 -45.15 -35.9 -40.45 -35.9 -35.7 -35.9 -32.25 -32.5 -28.85 -29.05 -28.85 -24.3 -28.85 -19.65 -32.25 -16.2" fill="#ab601e" fill-rule="evenodd" stroke="none"/>
    <path d="M-32.25 -16.2 Q-35.7 -12.75 -40.45 -12.75 -45.15 -12.75 -48.6 -16.2 -52.0 -19.65 -52.0 -24.35 -52.0 -29.05 -48.6 -32.5 -45.15 -35.9 -40.45 -35.9 -35.7 -35.9 -32.25 -32.5 -28.85 -29.05 -28.85 -24.3 -28.85 -19.65 -32.25 -16.2 Z" fill="none" stroke="#a15800" stroke-linecap="round" stroke-linejoin="round" stroke-width="9.0"/>
    <path d="M29.65 -16.2 Q33.1 -12.75 37.85 -12.75 42.55 -12.75 46.0 -16.2 49.4 -19.65 49.4 -24.35 49.4 -29.05 46.0 -32.5 42.55 -35.9 37.85 -35.9 33.1 -35.9 29.65 -32.5 26.25 -29.05 26.25 -24.3 26.25 -19.65 29.65 -16.2" fill="#ab601e" fill-rule="evenodd" stroke="none"/>
    <path d="M29.65 -16.2 Q33.1 -12.75 37.85 -12.75 42.55 -12.75 46.0 -16.2 49.4 -19.65 49.4 -24.35 49.4 -29.05 46.0 -32.5 42.55 -35.9 37.85 -35.9 33.1 -35.9 29.65 -32.5 26.25 -29.05 26.25 -24.3 26.25 -19.65 29.65 -16.2 Z" fill="none" stroke="#a15800" stroke-linecap="round" stroke-linejoin="round" stroke-width="9.0"/>
    <path d="M-25.9 -3.4 Q-29.35 0.05 -34.1 0.05 -38.8 0.05 -42.25 -3.4 -45.65 -6.85 -45.65 -11.55 -45.65 -16.25 -42.25 -19.7 -38.8 -23.1 -34.1 -23.1 -29.35 -23.1 -25.9 -19.7 -22.5 -16.25 -22.5 -11.5 -22.5 -6.85 -25.9 -3.4" fill="#ab601e" fill-rule="evenodd" stroke="none"/>
    <path d="M-25.9 -3.4 Q-29.35 0.05 -34.1 0.05 -38.8 0.05 -42.25 -3.4 -45.65 -6.85 -45.65 -11.55 -45.65 -16.25 -42.25 -19.7 -38.8 -23.1 -34.1 -23.1 -29.35 -23.1 -25.9 -19.7 -22.5 -16.25 -22.5 -11.5 -22.5 -6.85 -25.9 -3.4 Z" fill="none" stroke="#a15800" stroke-linecap="round" stroke-linejoin="round" stroke-width="9.0"/>
    <path d="M-11.25 5.55 Q-14.7 9.0 -19.45 9.0 -24.15 9.0 -27.6 5.55 -31.0 2.1 -31.0 -2.6 -31.0 -7.3 -27.6 -10.75 -24.15 -14.15 -19.45 -14.15 -14.7 -14.15 -11.25 -10.75 -7.85 -7.3 -7.85 -2.55 -7.85 2.1 -11.25 5.55" fill="#ab601e" fill-rule="evenodd" stroke="none"/>
    <path d="M-11.25 5.55 Q-14.7 9.0 -19.45 9.0 -24.15 9.0 -27.6 5.55 -31.0 2.1 -31.0 -2.6 -31.0 -7.3 -27.6 -10.75 -24.15 -14.15 -19.45 -14.15 -14.7 -14.15 -11.25 -10.75 -7.85 -7.3 -7.85 -2.55 -7.85 2.1 -11.25 5.55 Z" fill="none" stroke="#a15800" stroke-linecap="round" stroke-linejoin="round" stroke-width="9.0"/>
    <path d="M23.3 -3.4 Q26.75 0.05 31.5 0.05 36.2 0.05 39.65 -3.4 43.05 -6.85 43.05 -11.55 43.05 -16.25 39.65 -19.7 36.2 -23.1 31.5 -23.1 26.75 -23.1 23.3 -19.7 19.9 -16.25 19.9 -11.5 19.9 -6.85 23.3 -3.4" fill="#ab601e" fill-rule="evenodd" stroke="none"/>
    <path d="M23.3 -3.4 Q26.75 0.05 31.5 0.05 36.2 0.05 39.65 -3.4 43.05 -6.85 43.05 -11.55 43.05 -16.25 39.65 -19.7 36.2 -23.1 31.5 -23.1 26.75 -23.1 23.3 -19.7 19.9 -16.25 19.9 -11.5 19.9 -6.85 23.3 -3.4 Z" fill="none" stroke="#a15800" stroke-linecap="round" stroke-linejoin="round" stroke-width="9.0"/>
    <path d="M8.65 5.55 Q12.1 9.0 16.85 9.0 21.55 9.0 25.0 5.55 28.4 2.1 28.4 -2.6 28.4 -7.3 25.0 -10.75 21.55 -14.15 16.85 -14.15 12.1 -14.15 8.65 -10.75 5.25 -7.3 5.25 -2.55 5.25 2.1 8.65 5.55" fill="#ab601e" fill-rule="evenodd" stroke="none"/>
    <path d="M8.65 5.55 Q12.1 9.0 16.85 9.0 21.55 9.0 25.0 5.55 28.4 2.1 28.4 -2.6 28.4 -7.3 25.0 -10.75 21.55 -14.15 16.85 -14.15 12.1 -14.15 8.65 -10.75 5.25 -7.3 5.25 -2.55 5.25 2.1 8.65 5.55 Z" fill="none" stroke="#a15800" stroke-linecap="round" stroke-linejoin="round" stroke-width="9.0"/>
    <path d="M6.25 12.75 Q2.6 15.9 -2.15 15.55 -6.85 15.2 -10.05 11.55 -13.1 7.85 -12.8 3.15 -12.45 -1.55 -8.85 -4.7 -5.1 -7.9 -0.4 -7.55 4.35 -7.2 7.45 -3.5 10.65 0.15 10.3 4.9 10.0 9.55 6.25 12.75" fill="#ab601e" fill-rule="evenodd" stroke="none"/>
    <path d="M6.25 12.75 Q2.6 15.9 -2.15 15.55 -6.85 15.2 -10.05 11.55 -13.1 7.85 -12.8 3.15 -12.45 -1.55 -8.85 -4.7 -5.1 -7.9 -0.4 -7.55 4.35 -7.2 7.45 -3.5 10.65 0.15 10.3 4.9 10.0 9.55 6.25 12.75 Z" fill="none" stroke="#a15800" stroke-linecap="round" stroke-linejoin="round" stroke-width="9.0"/>
    <path d="M-32.25 -16.2 Q-35.7 -12.75 -40.45 -12.75 -45.15 -12.75 -48.6 -16.2 -52.0 -19.65 -52.0 -24.35 -52.0 -29.05 -48.6 -32.5 -45.15 -35.9 -40.45 -35.9 -35.7 -35.9 -32.25 -32.5 -28.85 -29.05 -28.85 -24.3 -28.85 -19.65 -32.25 -16.2" fill="#ab601e" fill-rule="evenodd" stroke="none"/>
    <path d="M-36.85 -23.3 Q-38.9 -21.25 -41.65 -21.25 -44.45 -21.25 -46.5 -23.3 -48.5 -25.3 -48.5 -28.1 -48.5 -30.85 -46.5 -32.9 -44.45 -34.9 -41.65 -34.9 -38.9 -34.9 -36.85 -32.9 -34.8 -30.85 -34.8 -28.05 -34.8 -25.3 -36.85 -23.3" fill="#bf7926" fill-rule="evenodd" stroke="none"/>
    <path d="M-25.9 -3.4 Q-29.35 0.05 -34.1 0.05 -38.8 0.05 -42.25 -3.4 -45.65 -6.85 -45.65 -11.55 -45.65 -16.25 -42.25 -19.7 -38.8 -23.1 -34.1 -23.1 -29.35 -23.1 -25.9 -19.7 -22.5 -16.25 -22.5 -11.5 -22.5 -6.85 -25.9 -3.4" fill="#ab601e" fill-rule="evenodd" stroke="none"/>
    <path d="M-30.5 -10.5 Q-32.55 -8.45 -35.3 -8.45 -38.1 -8.45 -40.15 -10.5 -42.15 -12.5 -42.15 -15.3 -42.15 -18.05 -40.15 -20.1 -38.1 -22.1 -35.3 -22.1 -32.55 -22.1 -30.5 -20.1 -28.45 -18.05 -28.45 -15.25 -28.45 -12.5 -30.5 -10.5" fill="#bf7926" fill-rule="evenodd" stroke="none"/>
    <path d="M-11.25 5.55 Q-14.7 9.0 -19.45 9.0 -24.15 9.0 -27.6 5.55 -31.0 2.1 -31.0 -2.6 -31.0 -7.3 -27.6 -10.75 -24.15 -14.15 -19.45 -14.15 -14.7 -14.15 -11.25 -10.75 -7.85 -7.3 -7.85 -2.55 -7.85 2.1 -11.25 5.55" fill="#ab601e" fill-rule="evenodd" stroke="none"/>
    <path d="M-15.8 -1.5 Q-17.85 0.55 -20.6 0.55 -23.4 0.55 -25.45 -1.5 -27.45 -3.5 -27.45 -6.3 -27.45 -9.05 -25.45 -11.1 -23.4 -13.1 -20.6 -13.1 -17.85 -13.1 -15.8 -11.1 -13.75 -9.05 -13.75 -6.25 -13.75 -3.5 -15.8 -1.5" fill="#bf7926" fill-rule="evenodd" stroke="none"/>
    <path d="M29.65 -16.2 Q33.1 -12.75 37.85 -12.75 42.55 -12.75 46.0 -16.2 49.4 -19.65 49.4 -24.35 49.4 -29.05 46.0 -32.5 42.55 -35.9 37.85 -35.9 33.1 -35.9 29.65 -32.5 26.25 -29.05 26.25 -24.3 26.25 -19.65 29.65 -16.2" fill="#ab601e" fill-rule="evenodd" stroke="none"/>
    <path d="M34.25 -23.3 Q36.3 -21.25 39.05 -21.25 41.85 -21.25 43.9 -23.3 45.9 -25.3 45.9 -28.1 45.9 -30.85 43.9 -32.9 41.85 -34.9 39.05 -34.9 36.3 -34.9 34.25 -32.9 32.2 -30.85 32.2 -28.05 32.2 -25.3 34.25 -23.3" fill="#bf7926" fill-rule="evenodd" stroke="none"/>
    <path d="M23.3 -3.4 Q26.75 0.05 31.5 0.05 36.2 0.05 39.65 -3.4 43.05 -6.85 43.05 -11.55 43.05 -16.25 39.65 -19.7 36.2 -23.1 31.5 -23.1 26.75 -23.1 23.3 -19.7 19.9 -16.25 19.9 -11.5 19.9 -6.85 23.3 -3.4" fill="#ab601e" fill-rule="evenodd" stroke="none"/>
    <path d="M27.9 -10.5 Q29.95 -8.45 32.7 -8.45 35.5 -8.45 37.55 -10.5 39.55 -12.5 39.55 -15.3 39.55 -18.05 37.55 -20.1 35.5 -22.1 32.7 -22.1 29.95 -22.1 27.9 -20.1 25.85 -18.05 25.85 -15.25 25.85 -12.5 27.9 -10.5" fill="#bf7926" fill-rule="evenodd" stroke="none"/>
    <path d="M8.65 5.55 Q12.1 9.0 16.85 9.0 21.55 9.0 25.0 5.55 28.4 2.1 28.4 -2.6 28.4 -7.3 25.0 -10.75 21.55 -14.15 16.85 -14.15 12.1 -14.15 8.65 -10.75 5.25 -7.3 5.25 -2.55 5.25 2.1 8.65 5.55" fill="#ab601e" fill-rule="evenodd" stroke="none"/>
    <path d="M13.2 -1.5 Q15.25 0.55 18.0 0.55 20.8 0.55 22.85 -1.5 24.85 -3.5 24.85 -6.3 24.85 -9.05 22.85 -11.1 20.8 -13.1 18.0 -13.1 15.25 -13.1 13.2 -11.1 11.15 -9.05 11.15 -6.25 11.15 -3.5 13.2 -1.5" fill="#bf7926" fill-rule="evenodd" stroke="none"/>
    <path d="M6.25 12.75 Q2.6 15.9 -2.15 15.55 -6.85 15.2 -10.05 11.55 -13.1 7.85 -12.8 3.15 -12.45 -1.55 -8.85 -4.7 -5.1 -7.9 -0.4 -7.55 4.35 -7.2 7.45 -3.5 10.65 0.15 10.3 4.9 10.0 9.55 6.25 12.75" fill="#ab601e" fill-rule="evenodd" stroke="none"/>
    <path d="M2.25 5.35 Q0.05 7.2 -2.7 7.0 -5.5 6.75 -7.4 4.6 -9.2 2.5 -9.0 -0.3 -8.8 -3.05 -6.7 -5.0 -4.5 -6.85 -1.7 -6.6 1.05 -6.4 2.95 -4.25 4.8 -2.05 4.6 0.7 4.4 3.5 2.25 5.35" fill="#bf7926" fill-rule="evenodd" stroke="none"/>
  </g>
</svg>
