<?xml version="1.0" encoding="UTF-8" standalone="no"?>
<svg xmlns:xlink="http://www.w3.org/1999/xlink" height="74.85px" width="61.65px" xmlns="http://www.w3.org/2000/svg">
  <g transform="matrix(1.0, 0.0, 0.0, 1.0, -1.0, 11.6)">
    <path d="M55.95 5.8 L55.9 5.85 55.45 5.9 55.95 5.8 M21.2 11.45 L21.15 11.5 21.1 11.65 20.95 11.85 21.1 11.9 21.2 11.95 21.25 12.05 21.3 12.0 21.35 11.95 21.4 11.9 21.55 11.9 21.7 11.95 21.8 12.0 21.9 12.15 21.9 12.2 25.4 12.05 28.0 12.05 28.0 11.45 28.05 11.4 28.15 11.3 28.25 11.25 28.45 11.2 28.65 11.2 28.7 11.2 28.75 11.15 28.75 11.1 28.75 11.0 28.8 10.95 28.85 10.85 28.95 10.75 29.05 10.75 29.2 10.7 Q30.0 10.65 30.6 11.15 L30.65 11.1 30.75 11.1 30.9 11.15 31.0 11.2 31.1 11.25 31.2 11.4 31.2 11.5 31.3 11.55 31.35 11.6 31.45 11.7 31.5 11.8 31.75 11.7 31.95 11.6 32.15 11.65 32.35 11.7 32.4 11.7 32.45 11.6 32.7 11.45 32.8 11.45 32.95 11.5 33.05 11.55 33.1 11.65 33.15 11.7 33.1 11.8 33.1 11.9 33.05 11.95 33.0 12.0 32.9 12.1 34.05 12.1 34.05 11.95 34.05 11.75 34.1 11.7 34.2 11.65 34.3 11.6 34.45 11.55 34.6 11.6 34.7 11.7 34.8 11.75 34.85 11.9 34.85 12.0 34.85 12.1 35.3 12.1 35.3 12.05 35.3 11.95 35.35 11.9 35.35 11.8 35.4 11.75 35.7 11.6 35.9 11.55 36.4 11.6 36.55 11.6 36.65 11.7 36.7 11.75 36.75 11.85 36.8 11.95 36.85 12.0 36.85 12.1 36.85 12.15 39.7 12.2 39.7 12.15 39.65 12.1 39.65 12.0 39.65 11.95 39.65 11.85 39.7 11.8 39.75 11.7 39.8 11.6 39.65 11.55 39.35 11.45 39.25 11.4 39.2 11.35 39.15 11.25 39.15 11.2 39.2 11.05 39.3 10.9 39.4 10.85 39.8 10.75 40.75 10.7 41.3 10.75 41.8 10.85 42.3 10.9 42.75 11.2 42.8 11.25 43.35 11.2 43.65 11.2 43.85 11.25 43.95 11.3 44.05 11.4 44.05 11.45 44.1 11.55 44.1 11.6 44.1 11.7 44.1 11.75 44.1 11.85 44.05 11.95 44.0 12.0 43.9 12.05 43.75 12.15 43.75 12.25 44.2 12.25 44.2 12.15 44.2 12.1 44.25 12.0 44.25 11.95 44.35 11.85 44.45 11.8 44.65 11.75 44.65 11.7 44.9 11.75 45.2 11.8 45.35 11.85 45.55 12.05 45.6 12.15 45.75 12.0 45.85 11.95 46.0 11.9 46.15 12.0 46.25 12.05 46.3 11.95 46.4 11.9 46.45 11.85 46.5 11.8 46.65 11.75 46.75 11.8 46.9 11.85 47.0 11.9 47.1 12.05 47.1 12.15 47.1 12.2 47.1 12.3 47.1 12.35 49.95 12.4 49.95 12.3 49.45 11.9 49.4 11.5 Q49.65 11.0 50.2 10.95 L50.7 10.9 50.95 11.0 51.1 11.1 51.3 11.3 51.35 11.5 51.35 11.6 51.75 11.95 Q52.0 11.8 52.2 11.8 52.3 11.65 52.5 11.65 52.9 11.7 53.0 11.95 L53.25 11.9 Q53.9 12.0 53.95 12.5 L54.35 12.5 54.25 12.2 Q54.3 11.8 54.65 11.7 L54.95 11.65 55.35 11.85 55.55 12.25 55.65 12.6 55.85 12.75 55.95 12.7 56.15 12.75 56.25 12.8 56.35 12.95 56.4 13.1 56.4 13.2 56.25 13.4 55.95 13.55 55.85 13.7 55.75 13.75 55.7 13.8 55.55 13.8 55.5 13.8 55.4 13.8 55.45 13.85 55.5 13.9 55.5 14.05 55.45 14.2 55.45 14.4 55.9 14.15 56.1 14.2 56.1 14.05 56.15 13.95 56.25 13.9 56.35 13.9 56.35 13.85 56.55 14.0 56.6 14.25 56.35 14.35 56.45 14.7 Q56.45 15.15 55.9 15.15 L55.8 15.15 Q56.1 15.45 56.0 15.8 L55.85 16.5 55.9 16.5 56.3 16.95 56.3 17.0 56.35 17.1 56.4 17.25 56.35 17.3 56.35 17.4 56.3 17.45 56.25 17.55 56.05 17.95 56.15 17.95 56.35 18.0 56.45 18.05 56.6 18.15 56.75 18.3 56.8 18.45 56.8 18.6 56.75 18.9 56.4 19.35 56.3 19.4 56.35 19.45 56.35 19.5 56.4 19.4 56.55 19.35 56.75 19.3 57.15 19.5 57.25 19.95 57.2 20.05 Q57.55 20.1 57.7 20.35 L57.95 20.4 58.05 20.45 58.05 20.4 58.3 20.25 58.4 20.2 58.55 20.3 58.65 20.35 58.75 20.5 58.8 20.65 58.8 20.75 58.75 20.8 58.7 20.9 58.6 20.95 58.55 21.0 58.3 21.05 58.2 21.0 58.25 21.4 58.4 21.4 58.5 21.5 58.55 21.65 58.6 21.8 58.6 21.85 58.55 21.95 58.4 22.1 58.5 22.05 58.7 22.0 58.7 21.95 58.9 22.05 59.0 22.1 59.05 22.25 59.15 22.4 59.1 22.5 59.0 22.7 58.65 22.85 58.75 23.0 58.7 23.25 58.65 23.3 58.65 23.4 58.55 23.45 58.65 23.5 58.75 23.55 58.8 23.65 58.8 23.8 58.85 23.85 58.8 23.95 58.7 24.05 58.6 24.15 58.65 25.25 58.75 25.55 58.75 25.85 58.7 26.05 58.75 26.9 59.0 26.8 59.4 27.15 59.6 27.25 59.85 27.45 60.1 27.75 60.3 28.1 60.3 28.3 60.2 28.6 59.85 29.15 59.65 29.3 59.6 29.4 59.6 29.55 59.75 29.85 59.7 30.3 59.55 30.55 59.55 30.6 59.45 30.8 59.4 30.8 58.95 31.15 58.75 31.1 58.75 31.25 58.85 31.2 58.85 31.15 59.0 31.25 59.1 31.3 59.15 31.4 59.25 31.55 59.25 31.6 59.25 31.7 59.2 31.85 58.95 32.05 59.0 32.1 59.05 32.15 59.05 32.2 59.05 32.3 59.05 32.35 59.0 32.45 59.0 32.5 59.15 32.4 59.45 32.35 59.55 32.35 Q59.9 32.45 59.8 32.9 L59.55 33.4 59.15 33.5 59.05 33.5 59.0 33.75 58.75 33.95 58.7 34.0 58.7 34.7 58.9 34.6 59.15 34.75 59.35 34.8 59.3 34.75 59.2 34.7 59.2 34.6 59.15 34.45 59.15 34.3 59.2 34.2 59.25 34.15 59.35 34.1 59.55 34.05 59.55 34.0 59.7 34.1 59.8 34.15 59.85 34.2 59.9 34.3 59.9 34.35 59.9 34.55 59.8 34.75 59.55 34.9 59.6 34.9 59.75 35.05 59.85 35.2 59.85 35.45 59.85 35.5 59.8 35.55 59.55 35.65 59.2 35.6 59.1 35.6 58.65 35.65 58.65 35.8 58.7 35.75 58.8 35.75 58.95 35.8 59.05 35.9 59.15 35.95 59.15 36.0 59.3 36.2 59.2 36.45 59.0 36.7 59.0 36.75 59.0 36.9 58.95 37.05 59.45 36.75 59.45 36.7 59.65 36.8 59.75 36.85 59.8 36.95 59.85 37.0 59.85 37.05 59.9 37.05 59.95 37.1 60.05 37.2 60.05 37.3 60.05 37.45 60.2 37.55 60.4 37.85 60.45 38.1 60.4 38.25 60.25 38.55 60.3 38.55 60.4 38.6 60.65 38.7 60.8 38.85 60.85 38.95 60.6 39.25 59.55 39.35 59.5 39.35 59.5 39.8 59.35 40.6 59.35 40.65 59.2 41.0 59.15 41.1 59.3 41.45 Q59.3 41.75 58.95 41.85 L58.8 41.95 58.9 41.95 59.0 42.0 59.05 42.1 59.1 42.15 59.1 42.3 59.1 42.55 59.1 42.75 59.1 42.95 59.1 43.05 59.05 43.15 59.1 43.15 59.3 43.25 59.4 43.35 59.5 43.6 59.55 43.65 59.55 43.7 59.5 43.8 59.5 43.85 59.45 43.9 59.35 44.0 59.2 44.1 58.9 44.05 58.7 43.95 58.7 44.4 58.9 44.2 59.4 44.45 Q59.7 44.6 59.6 44.85 L59.3 45.35 59.5 45.6 Q59.7 46.1 59.15 46.2 L59.15 46.25 59.05 46.4 58.85 46.55 58.7 46.55 58.7 47.1 59.0 47.05 59.0 47.0 59.3 47.1 59.65 47.4 59.65 47.75 59.65 47.85 59.85 48.0 Q60.1 48.25 59.95 48.5 59.75 48.85 59.45 48.75 59.15 48.7 58.95 48.5 L58.85 48.4 58.85 48.25 58.85 48.2 58.8 48.15 58.75 48.15 58.75 48.5 58.75 48.75 58.75 49.0 Q59.1 49.05 59.3 49.4 L59.35 49.65 58.9 49.95 58.8 49.95 58.8 50.0 59.05 50.05 59.25 50.15 59.4 50.25 59.5 50.4 59.35 50.8 Q59.1 51.15 58.75 51.1 L58.75 51.45 59.15 51.6 59.35 51.7 59.45 51.75 59.5 51.6 59.5 51.5 59.5 51.35 59.6 51.2 59.75 51.0 59.8 51.0 60.1 50.7 60.8 50.4 60.85 50.3 61.25 50.5 61.55 50.65 61.8 50.95 61.95 51.35 61.95 51.5 61.95 51.65 61.8 52.05 61.55 52.3 60.85 52.6 60.3 52.5 60.1 52.35 59.9 52.15 59.8 52.2 59.85 52.4 59.85 52.55 59.85 52.75 59.7 53.1 59.45 53.35 59.35 53.45 58.75 53.75 58.5 53.7 58.5 54.0 58.6 53.9 58.9 53.75 59.3 54.05 59.35 54.1 59.4 54.55 59.35 54.65 59.15 54.75 58.65 54.75 58.4 54.6 58.35 54.95 58.45 54.95 58.5 54.95 58.75 54.85 58.75 54.8 59.15 55.15 Q59.4 55.35 59.3 55.6 L58.9 55.9 58.8 56.0 58.35 56.1 58.4 56.1 58.5 56.2 58.65 56.35 58.7 56.5 58.7 56.6 58.65 56.75 58.6 56.9 58.65 57.05 58.7 57.25 58.6 57.5 58.4 57.65 58.35 57.7 58.25 57.7 58.2 57.75 58.1 57.95 57.95 58.2 57.85 58.25 57.7 58.25 57.5 58.25 57.6 58.3 57.65 58.4 57.7 58.45 57.7 58.6 57.7 58.85 57.65 59.1 57.55 59.25 57.5 59.3 57.4 59.4 57.2 59.45 57.15 59.5 57.1 59.55 56.8 59.7 56.6 59.65 56.4 59.5 56.3 59.35 56.25 59.15 56.25 59.05 56.25 59.0 56.3 58.9 56.4 58.85 56.7 58.75 56.7 58.7 56.85 58.8 56.85 58.65 56.9 58.5 56.95 58.35 57.05 58.3 57.15 58.25 57.3 58.2 57.5 58.25 57.4 58.15 57.3 58.1 57.25 58.0 57.25 57.95 57.2 57.8 57.2 57.65 57.25 57.45 57.3 57.25 57.35 57.2 57.5 57.15 57.7 57.1 57.7 57.05 57.75 57.1 57.75 57.0 57.8 56.9 57.85 56.9 57.75 56.8 57.7 56.55 57.7 56.45 57.75 56.35 57.8 56.3 57.9 56.2 57.8 56.2 57.75 56.15 57.65 56.2 57.65 56.25 57.1 56.35 56.9 56.1 56.8 55.8 56.65 55.95 56.65 56.05 56.85 56.35 56.95 56.65 56.95 56.7 56.95 56.8 56.9 56.85 56.85 56.95 56.8 57.0 56.6 57.15 56.5 57.15 56.5 57.2 56.6 57.3 56.7 57.45 56.7 57.55 56.7 57.6 56.6 57.75 56.5 57.9 56.45 57.95 56.5 57.95 56.6 57.95 56.75 58.0 56.85 58.1 56.85 58.15 56.85 58.3 56.8 58.45 56.65 58.65 56.2 58.75 56.1 58.65 56.05 58.6 56.0 58.5 56.0 58.45 56.0 58.35 56.0 58.3 56.0 58.2 56.05 58.15 56.1 58.1 56.2 58.05 55.95 58.0 55.85 57.9 Q55.65 58.4 54.7 58.9 L53.8 59.3 53.85 59.35 53.95 59.3 54.1 59.2 54.2 59.2 54.35 59.3 54.45 59.35 54.5 59.5 54.55 59.55 54.5 59.7 54.2 59.9 53.9 59.8 53.85 59.8 53.55 60.0 Q53.25 60.0 53.1 59.75 L53.05 59.6 53.05 59.55 52.45 59.65 52.35 59.7 52.15 59.7 52.05 59.7 52.1 59.75 52.15 59.85 52.15 59.9 52.15 60.0 52.15 60.05 52.0 60.2 51.75 60.35 51.5 60.3 51.55 60.4 51.55 60.55 51.45 60.75 Q51.3 61.0 51.05 60.95 L50.85 60.95 50.75 60.85 50.7 60.8 50.65 60.7 50.5 60.75 50.3 60.8 50.25 60.8 50.15 60.9 50.1 60.95 49.95 60.95 49.75 60.95 49.65 60.85 49.55 60.7 49.55 60.55 49.55 60.35 49.6 60.2 49.7 60.1 49.8 60.1 49.95 60.05 50.05 60.0 50.25 59.95 50.35 59.95 50.55 60.0 50.8 60.1 50.9 60.1 51.05 60.05 51.25 60.1 51.35 60.15 51.4 60.2 51.4 60.1 51.4 60.05 51.4 59.95 51.55 59.8 51.65 59.75 50.95 59.75 Q50.5 59.75 50.4 59.55 L50.25 59.6 50.2 59.65 49.8 59.75 49.85 59.75 49.9 59.8 48.05 60.45 48.1 60.5 48.25 60.6 48.45 60.45 48.75 60.35 48.9 60.4 49.0 60.5 49.05 60.55 49.1 60.65 49.15 60.7 49.15 60.8 49.1 60.85 49.05 61.0 48.9 61.15 48.8 61.25 48.65 61.25 48.35 61.15 48.2 61.05 47.95 61.15 47.6 61.15 47.4 61.35 46.85 61.6 46.45 61.4 46.35 61.2 46.25 61.1 46.15 61.0 46.15 60.95 46.1 60.85 46.1 60.8 46.1 60.7 45.2 60.85 45.2 60.9 45.15 61.05 44.9 61.3 44.05 61.35 43.95 61.25 43.9 61.2 43.85 61.1 43.65 61.15 43.6 61.2 43.55 61.25 43.5 61.3 43.45 61.35 43.35 61.35 43.15 61.35 43.0 61.3 42.9 61.25 41.85 61.45 41.85 61.5 41.7 61.65 41.4 61.65 40.95 61.6 40.7 61.6 Q38.85 61.85 37.55 61.0 L36.4 60.75 35.85 60.85 35.15 61.0 35.55 61.05 Q35.9 61.1 35.6 61.3 35.05 61.7 34.35 61.75 L34.35 61.8 34.35 61.85 34.35 61.95 34.45 62.0 34.55 62.0 34.65 62.05 33.55 62.3 33.4 62.35 33.15 62.65 33.0 63.15 33.0 63.25 32.9 63.15 32.85 63.05 32.8 63.0 32.8 62.9 32.8 62.85 32.8 62.75 32.8 62.7 32.85 62.65 33.0 62.45 33.2 62.4 33.3 62.35 33.2 62.15 33.15 62.15 33.15 62.1 33.0 62.05 32.75 61.9 32.7 61.95 32.5 62.15 32.45 62.35 32.4 62.4 32.35 62.45 32.3 62.5 32.15 62.5 32.0 62.55 31.65 62.5 31.55 62.45 31.5 62.3 31.45 62.15 Q31.4 61.95 31.5 61.8 L31.75 61.55 31.95 61.45 31.8 61.35 31.75 61.25 31.75 61.15 31.75 61.05 31.2 60.65 31.1 60.65 30.8 60.6 30.45 60.45 30.4 60.2 30.4 60.15 30.3 60.2 30.15 60.1 30.05 60.05 29.9 59.9 29.4 59.7 29.2 59.6 29.2 59.5 29.15 59.45 29.15 59.35 29.15 59.2 29.15 59.1 28.95 59.25 28.7 59.2 28.6 59.15 28.6 59.1 28.65 58.95 28.8 58.75 28.85 58.7 28.95 58.65 29.15 58.8 29.15 58.75 29.25 58.65 29.3 58.6 29.35 58.55 29.3 58.55 29.25 58.6 29.2 58.6 28.9 58.6 28.0 58.65 25.4 59.55 Q25.2 60.1 24.65 59.95 L24.3 59.8 24.15 59.8 24.05 59.9 23.75 60.1 23.55 60.2 23.35 60.1 23.2 60.05 23.15 60.0 22.0 60.1 22.05 60.15 22.15 60.2 22.15 60.3 22.2 60.45 22.2 60.55 22.1 60.8 21.95 60.95 21.75 60.95 21.55 60.95 21.45 60.85 21.4 60.8 21.35 60.7 21.3 60.65 21.3 60.6 21.3 60.5 21.3 60.45 21.3 60.35 21.35 60.3 21.4 60.2 21.45 60.15 20.95 60.2 20.95 60.35 20.7 60.65 20.15 60.6 20.0 60.45 20.0 60.4 19.95 60.3 19.95 60.25 20.0 60.2 18.8 60.15 17.7 60.1 17.75 60.35 17.55 60.55 17.4 60.6 17.25 60.55 17.15 60.45 17.1 60.5 16.9 60.7 16.3 60.65 16.2 60.45 16.2 60.35 16.2 60.25 15.65 60.45 15.45 60.5 Q14.55 60.7 13.75 60.5 L13.75 60.55 13.75 60.65 13.65 60.9 13.5 61.05 13.3 61.05 13.1 61.05 13.0 60.95 12.95 60.9 12.9 60.8 12.85 60.75 12.85 60.7 12.85 60.6 12.85 60.55 12.85 60.45 12.9 60.4 12.95 60.3 13.0 60.25 13.05 60.25 12.7 60.05 12.25 59.65 Q11.4 59.4 11.95 58.7 L11.25 58.55 Q11.0 58.5 11.1 58.2 L11.6 57.75 11.55 57.55 11.45 57.55 Q11.05 57.55 11.1 57.1 11.15 56.7 11.5 56.7 L11.65 56.8 Q12.05 56.4 12.6 56.35 L13.3 56.15 13.25 55.55 13.35 55.35 13.2 55.3 13.2 55.35 13.05 55.45 12.95 55.55 12.8 55.55 12.6 55.45 12.35 55.3 12.3 55.15 12.1 55.1 12.1 55.15 12.05 55.3 12.0 55.35 11.95 55.4 11.9 55.45 11.85 55.5 11.55 55.55 11.15 55.45 10.85 55.3 10.8 55.1 10.15 55.25 10.25 55.3 9.9 55.85 9.95 56.1 9.95 56.6 9.6 56.9 9.15 56.7 9.1 56.6 9.1 56.35 9.1 56.2 9.1 56.05 9.05 56.05 9.0 56.1 8.6 56.7 8.2 57.15 7.9 57.25 7.5 56.95 7.05 57.05 Q6.5 56.95 6.25 56.5 L6.25 56.2 6.2 56.15 6.15 56.15 6.2 56.35 Q6.25 56.85 5.75 56.7 L5.4 56.25 Q5.3 55.85 5.7 55.9 L6.05 56.05 6.05 55.85 Q6.15 55.55 6.4 55.6 L6.6 55.8 6.6 55.75 6.75 55.65 6.6 55.35 6.5 55.4 6.1 55.25 5.9 55.1 5.85 55.05 5.45 55.15 Q4.75 55.15 4.4 54.65 L4.25 54.4 4.15 54.4 4.05 54.0 3.55 54.05 Q2.8 53.9 3.05 53.2 3.15 52.7 3.7 52.6 4.25 52.75 4.4 53.15 L4.45 53.1 Q4.6 52.9 4.9 52.75 5.3 52.8 5.3 53.15 L5.25 53.7 5.6 54.0 5.7 54.1 5.65 52.7 5.6 52.7 5.2 52.55 5.0 52.5 4.85 52.5 4.65 52.4 4.65 52.3 4.6 52.25 4.6 52.15 4.6 52.05 4.6 51.95 4.65 51.9 4.7 51.8 4.75 51.7 4.85 51.7 4.9 51.65 5.0 51.65 5.25 51.7 5.6 51.6 5.35 51.5 5.25 51.3 5.25 51.05 5.25 50.9 5.3 50.75 5.4 50.7 5.6 50.65 5.6 50.2 5.15 50.15 4.75 49.9 4.7 49.85 4.7 49.7 4.7 49.6 4.7 49.55 4.75 49.45 4.75 49.4 4.6 49.3 4.55 49.2 4.55 49.15 4.6 49.05 4.6 49.0 4.8 48.9 4.9 48.85 4.95 48.85 5.05 48.9 5.1 48.95 5.15 48.9 5.3 48.95 5.4 49.05 5.45 49.1 5.5 49.2 5.55 49.2 5.55 48.5 5.5 48.55 5.25 48.7 Q4.75 48.75 4.7 48.35 L4.7 48.2 4.7 47.95 4.75 47.8 4.55 47.8 Q4.05 47.85 4.05 47.45 4.0 46.85 4.55 46.85 L4.95 47.35 4.95 47.6 5.0 47.55 5.25 47.5 5.55 47.65 5.55 47.4 5.55 46.45 5.45 46.45 4.95 46.25 4.85 46.35 3.9 46.45 3.55 46.2 3.55 46.05 3.65 45.7 3.95 45.4 4.55 45.1 4.85 45.2 5.0 45.35 5.05 45.4 5.45 45.2 5.55 45.2 5.6 45.2 5.6 45.05 5.15 44.95 4.85 44.7 4.75 44.55 4.75 44.4 4.75 44.2 4.85 44.05 5.2 43.8 5.3 43.75 4.95 42.9 4.55 42.95 4.45 42.95 Q4.2 43.25 4.25 43.65 L4.15 44.35 3.6 44.85 Q3.35 44.85 3.2 44.65 L3.1 44.4 3.1 44.35 3.15 44.2 3.25 43.9 3.25 43.8 3.2 43.7 3.15 43.65 3.15 43.55 3.15 43.5 3.1 43.4 3.1 43.35 3.1 43.25 3.1 43.2 2.85 43.0 2.8 43.0 2.6 43.0 2.35 42.85 Q2.2 42.5 2.5 42.4 L2.65 42.35 2.65 42.3 2.7 42.25 2.8 42.1 3.1 41.9 3.4 41.8 3.5 41.85 3.5 41.75 3.55 41.65 3.6 41.6 3.7 41.5 3.85 41.35 4.05 41.3 4.05 41.25 4.2 41.25 4.3 41.3 4.45 41.35 4.55 41.45 4.6 41.6 4.6 41.75 4.5 41.85 4.4 42.0 4.55 41.9 4.75 42.05 4.55 40.2 4.15 40.2 4.1 40.35 3.85 40.55 3.55 40.35 3.55 40.1 3.35 40.15 3.15 40.1 2.95 39.9 2.85 39.6 2.95 39.3 3.0 39.2 3.1 39.15 3.2 39.1 3.35 39.1 3.35 39.05 3.55 39.15 3.7 39.2 3.75 39.25 3.85 39.5 3.8 39.8 3.7 39.95 3.9 39.9 Q3.75 39.4 4.2 39.3 L4.6 39.3 4.6 38.85 4.55 38.85 4.45 38.85 Q4.25 39.25 3.7 38.7 L3.6 38.55 3.55 38.55 3.5 38.6 3.45 38.65 3.4 38.7 3.25 38.7 2.9 38.65 2.65 38.45 2.65 38.3 2.65 38.2 2.7 38.15 2.8 38.1 2.9 38.05 3.05 38.0 3.05 37.95 3.25 38.0 3.45 38.05 Q3.4 37.8 3.5 37.55 L3.65 37.0 3.05 36.3 Q2.85 35.9 3.1 35.5 3.4 35.05 3.85 34.75 L3.85 34.65 Q3.9 34.35 4.1 34.2 L3.75 33.9 3.65 33.75 3.55 33.6 3.55 33.35 3.55 33.2 3.55 33.05 3.7 32.9 3.85 32.7 4.15 32.55 4.45 32.5 4.65 32.2 4.55 32.2 4.45 32.1 4.4 32.05 4.35 31.85 4.25 31.45 4.25 31.4 4.05 31.35 3.85 31.4 3.75 31.5 3.7 31.65 3.55 31.75 3.55 31.8 Q3.15 32.05 2.85 31.65 L2.6 31.2 2.5 30.9 Q2.4 30.45 2.8 30.3 L3.15 30.2 3.15 30.15 3.35 30.2 3.35 30.15 3.4 30.0 3.5 29.85 3.85 29.55 Q4.15 29.35 4.55 29.25 L4.55 29.2 4.95 29.35 5.0 29.35 5.0 29.05 4.85 29.05 4.55 29.0 4.4 28.85 4.35 28.75 4.35 28.6 4.55 28.25 4.7 28.15 4.85 28.0 4.95 27.95 4.95 27.7 4.75 27.7 Q4.3 27.7 4.25 27.3 L4.25 27.15 4.15 26.95 4.15 26.75 4.15 26.65 4.2 26.6 4.3 26.55 4.35 26.45 4.4 26.45 4.3 26.15 Q4.3 25.95 4.45 25.85 L4.35 25.75 4.3 25.7 4.0 25.85 Q3.55 25.95 3.5 25.5 L3.45 25.35 3.45 25.2 3.5 25.0 3.55 24.85 3.7 24.7 4.0 24.6 4.0 24.55 4.4 24.75 4.35 24.6 4.4 24.55 4.45 24.45 4.5 24.4 4.6 24.35 4.75 24.3 4.8 24.35 4.75 23.7 4.65 23.75 4.45 23.75 4.25 23.7 4.05 23.6 4.0 23.5 4.0 23.45 4.0 23.3 4.0 23.15 4.05 23.0 4.1 22.9 4.15 22.85 4.2 22.8 Q3.8 22.75 3.75 22.35 L3.75 22.2 3.8 22.0 3.9 21.9 4.0 21.85 4.2 21.8 3.9 21.45 3.8 21.15 3.8 20.95 3.85 20.8 4.0 20.65 4.1 20.5 4.2 20.45 4.5 20.45 4.5 20.4 4.55 20.35 4.55 20.3 4.7 20.15 5.0 20.05 5.15 20.1 5.25 20.2 5.35 20.3 5.85 19.4 5.75 19.35 5.75 19.25 5.65 19.25 5.4 19.1 5.2 19.3 4.9 19.4 4.7 19.35 4.6 19.35 Q4.35 19.35 4.25 19.15 L4.25 19.1 4.25 19.0 4.25 18.95 4.25 18.85 4.3 18.75 4.4 18.75 4.4 18.6 Q4.45 18.2 4.75 18.2 5.15 18.3 5.05 18.7 L5.1 18.7 5.25 18.75 5.3 18.75 5.3 18.65 5.4 18.4 5.35 18.3 5.35 18.25 5.4 18.15 5.45 18.1 5.25 18.05 5.2 18.0 5.15 17.9 Q4.75 17.95 4.55 17.6 L4.5 17.3 4.55 17.15 4.15 17.05 4.0 16.9 3.9 16.7 3.9 16.55 3.9 16.2 3.95 15.85 4.2 15.6 4.55 15.5 4.55 15.45 4.85 15.6 5.0 15.85 5.0 15.75 5.0 15.7 5.0 15.45 Q5.0 15.2 5.15 15.05 L5.55 14.85 5.95 14.8 6.25 14.8 6.35 14.8 6.35 14.55 Q6.1 14.85 5.5 14.55 L5.2 14.25 5.05 14.15 5.0 14.1 5.0 14.0 5.0 13.95 5.05 13.85 5.15 13.8 5.25 13.75 5.6 13.3 6.3 13.3 Q6.25 13.05 6.35 12.8 L6.05 12.8 6.05 12.75 6.0 12.55 6.0 12.4 6.05 12.3 6.25 12.2 6.45 12.35 6.5 12.4 6.7 12.3 7.1 12.2 Q7.65 12.1 8.05 12.5 L8.4 13.05 8.4 13.0 8.5 12.85 8.55 12.8 8.8 12.8 8.8 12.75 8.95 12.8 9.15 12.85 9.25 13.0 9.3 12.8 9.25 12.65 9.25 12.55 9.05 12.5 8.45 12.5 8.3 12.5 8.1 12.45 8.0 12.35 7.9 12.3 7.9 12.2 7.85 12.15 7.85 12.05 7.85 11.9 7.85 11.8 7.85 11.75 7.95 11.65 8.0 11.6 8.1 11.55 8.15 11.5 8.4 11.5 8.4 11.45 9.05 11.5 9.25 11.5 9.2 11.45 9.15 11.4 9.15 11.3 9.15 11.25 9.15 11.15 9.15 11.1 9.2 11.0 9.25 10.9 9.35 10.85 9.45 10.8 9.55 10.8 9.55 10.75 9.7 10.85 9.9 11.0 9.95 11.15 9.95 11.35 9.95 11.45 9.85 11.55 10.25 11.75 10.3 11.85 10.45 11.85 10.55 11.8 10.7 11.8 10.9 11.8 11.2 11.95 11.3 12.0 12.05 12.05 12.25 12.05 12.35 12.15 12.4 12.2 12.45 12.35 12.55 12.6 12.65 12.75 12.7 12.9 12.7 12.95 14.4 12.85 14.4 12.7 14.4 12.65 14.4 12.55 14.45 12.45 14.5 12.4 14.65 12.35 14.95 12.2 Q14.55 12.3 14.35 12.0 14.25 11.75 14.45 11.55 L15.55 10.85 16.15 10.7 16.35 10.7 17.4 10.65 Q18.4 10.65 18.05 11.5 L18.0 11.65 18.05 11.65 18.25 11.7 18.4 11.85 18.45 11.95 18.5 11.85 18.5 11.8 18.6 11.7 18.75 11.65 18.85 11.65 18.85 11.6 19.1 11.65 19.25 11.6 19.4 11.65 19.55 11.8 19.6 11.85 19.8 12.0 20.35 12.0 20.75 11.85 20.45 11.65 20.45 11.6 20.4 11.5 20.4 11.45 20.4 11.35 20.45 11.3 20.5 11.2 20.6 11.15 20.8 11.1 20.95 11.15 21.05 11.2 21.1 11.3 21.15 11.35 21.2 11.45 21.3 11.25 21.55 11.15 21.7 11.2 21.75 11.3 21.85 11.35 21.9 11.45 21.85 11.5 21.85 11.6 21.8 11.65 21.75 11.75 21.7 11.8 21.65 11.8 21.55 11.85 21.3 11.7 21.2 11.5 21.2 11.45 M54.95 13.05 L55.0 13.55 55.15 13.7 55.25 13.7 55.2 13.6 55.15 13.55 55.1 13.4 55.1 13.25 55.1 13.05 54.95 13.05 M57.2 12.55 L57.35 12.5 57.5 12.6 57.6 12.65 57.7 12.8 57.75 12.95 57.7 13.05 57.65 13.1 57.6 13.2 57.55 13.25 57.5 13.25 57.35 13.3 57.15 13.25 57.05 13.15 56.95 13.0 56.9 12.95 56.8 12.95 56.5 12.75 56.45 12.65 56.4 12.55 57.15 12.6 57.2 12.55 M60.55 18.7 L60.8 19.05 61.0 19.35 61.0 19.55 60.95 19.7 60.8 20.05 60.5 20.3 59.8 20.7 59.6 20.65 59.6 21.0 59.45 21.15 59.3 21.0 Q59.15 20.75 59.35 20.6 L59.4 20.6 59.35 20.5 59.1 20.35 58.85 20.05 58.7 19.7 58.7 19.35 58.75 19.2 58.8 19.05 58.85 19.0 58.7 18.95 58.5 18.8 58.5 18.7 58.45 18.65 58.45 18.55 58.45 18.5 58.5 18.4 58.5 18.35 58.6 18.25 58.7 18.2 58.9 18.15 58.9 18.1 59.1 18.2 59.2 18.25 59.3 18.4 59.35 18.55 59.35 18.6 59.65 18.4 59.8 18.45 59.8 18.4 60.3 18.55 60.55 18.7 M57.35 13.65 L57.2 13.65 57.2 13.55 57.25 13.5 57.35 13.55 57.35 13.65 M58.4 16.3 L58.55 16.15 58.7 16.1 58.8 16.1 58.95 16.15 59.05 16.2 59.1 16.3 59.15 16.35 59.1 16.5 58.85 16.8 58.45 16.7 58.35 16.5 58.35 16.45 58.35 16.35 58.4 16.3 M55.15 14.8 L55.05 14.85 55.05 14.95 55.45 15.0 55.4 14.65 55.35 14.7 55.25 14.75 55.15 14.8 M57.25 15.25 L57.25 15.5 57.05 15.65 56.75 15.7 56.65 15.6 56.6 15.55 56.6 15.45 56.6 15.4 56.65 15.3 56.75 15.25 56.85 15.15 56.9 15.1 57.05 15.1 57.25 15.25 M57.15 17.9 L57.35 17.75 57.6 17.65 57.8 17.7 58.0 17.8 58.15 17.9 58.25 18.05 58.3 18.1 58.25 18.25 57.95 18.55 57.95 18.65 57.9 18.8 57.75 18.95 57.35 18.85 57.3 18.8 57.25 18.7 57.25 18.65 57.25 18.55 57.25 18.5 57.3 18.4 57.15 18.2 57.1 18.1 57.1 18.05 57.1 17.95 57.15 17.9 M59.75 22.05 L59.8 22.4 59.65 22.55 59.45 22.4 Q59.35 22.2 59.5 22.15 L59.75 22.05 M59.35 23.35 L59.0 23.5 58.85 23.15 Q58.9 22.9 59.3 22.95 59.5 23.1 59.35 23.35 M59.35 25.45 Q58.95 25.3 59.0 24.85 59.05 24.45 59.55 24.5 59.85 24.75 59.8 25.2 59.8 25.65 59.35 25.45 M60.4 20.95 L60.35 21.05 59.95 21.05 59.9 20.85 60.15 20.6 60.25 20.6 60.4 20.95 M61.4 22.3 L61.0 22.05 Q60.85 21.8 61.2 21.75 L61.2 21.7 61.6 22.05 61.4 22.3 M61.75 23.95 Q62.15 24.1 62.1 24.6 62.1 24.95 61.75 25.0 61.25 25.0 61.25 24.6 61.2 24.05 61.75 24.0 L61.75 23.95 M60.2 29.5 L59.8 29.65 59.75 29.6 60.05 29.1 60.25 29.05 60.2 29.5 M60.4 31.6 L60.45 31.8 60.5 32.15 60.15 32.25 Q59.7 32.25 59.45 31.9 L59.4 31.6 59.55 31.35 Q59.65 31.2 59.8 31.15 L60.1 31.3 60.25 31.45 60.4 31.6 M59.55 26.05 L59.65 26.25 59.65 26.5 59.45 26.75 59.15 26.75 58.8 26.45 58.75 26.15 58.85 25.85 58.9 25.8 59.1 25.75 59.4 25.85 59.55 26.05 M58.65 37.65 L58.65 37.9 58.85 37.75 58.8 37.5 58.65 37.65 M60.45 39.45 L60.6 39.7 60.7 39.85 60.85 40.0 60.85 40.15 60.9 40.35 60.9 40.45 61.0 40.75 60.9 40.85 60.65 40.85 60.35 40.9 Q59.75 40.9 59.8 40.35 L59.85 40.0 Q59.85 39.75 60.15 39.55 L60.45 39.45 M60.95 41.4 L60.95 41.7 60.95 42.25 60.85 42.75 60.5 42.9 60.25 42.85 60.1 42.45 60.1 42.15 Q60.15 41.8 60.4 41.6 L60.85 41.4 60.95 41.4 M60.85 47.85 Q61.2 47.9 61.15 48.35 L60.85 48.65 Q60.35 48.6 60.45 48.25 60.5 47.85 60.85 47.85 M60.25 53.3 L60.45 53.85 60.35 53.95 59.9 53.75 Q59.75 53.55 59.95 53.45 L60.25 53.3 M60.95 54.6 Q61.2 54.8 61.1 55.1 L60.9 55.35 Q60.45 55.55 60.4 55.15 L60.65 54.65 60.95 54.6 M59.75 56.65 L59.9 56.6 60.2 56.75 60.45 57.0 60.45 57.4 60.2 57.65 60.15 57.7 60.05 57.7 60.15 57.85 60.2 58.0 60.1 58.15 59.8 58.35 59.1 58.25 59.0 58.2 59.0 58.1 59.2 57.95 59.45 57.9 59.45 57.8 59.5 57.75 59.55 57.65 59.65 57.6 59.7 57.6 59.6 57.5 59.55 57.45 59.55 57.35 59.5 57.3 59.45 57.15 59.45 57.0 59.5 56.85 59.55 56.75 59.65 56.7 59.7 56.65 59.75 56.65 M57.85 59.7 L57.9 59.65 58.1 59.55 58.25 59.6 58.35 59.65 58.4 59.75 58.45 59.9 58.45 59.95 58.4 60.05 58.2 60.1 57.95 60.1 57.8 60.0 57.8 59.9 57.8 59.85 57.8 59.75 57.85 59.7 M59.1 59.15 L59.2 59.1 59.35 59.15 59.45 59.2 59.55 59.35 59.6 59.5 59.6 59.6 59.55 59.65 59.5 59.8 59.35 59.9 59.0 59.9 58.9 59.85 58.85 59.75 58.8 59.6 58.8 59.45 58.85 59.3 58.9 59.25 59.0 59.15 59.1 59.15 M55.2 59.05 L55.25 59.0 55.4 59.0 55.55 59.05 55.65 59.1 55.7 59.2 55.75 59.35 55.8 59.55 55.85 59.5 56.0 59.5 56.0 59.45 56.1 59.45 56.25 59.55 56.4 59.65 56.45 59.8 56.45 59.95 56.4 60.1 56.1 60.3 Q55.8 60.3 55.65 60.05 L55.6 59.9 55.55 59.95 55.4 59.95 55.2 59.9 55.1 59.85 55.05 59.75 55.0 59.7 55.0 59.6 55.0 59.45 55.05 59.3 55.05 59.15 55.15 59.1 55.2 59.05 M56.5 60.95 L56.6 60.9 56.8 60.85 57.0 60.9 57.1 60.95 57.15 61.1 57.2 61.25 57.2 61.35 57.05 61.55 56.6 61.65 56.4 61.4 56.35 61.35 56.35 61.25 56.35 61.2 56.4 61.1 56.4 61.05 56.5 60.95 M61.3 60.5 L61.4 60.55 61.4 60.65 61.45 60.8 61.5 61.0 61.4 61.25 61.15 61.45 61.0 61.45 60.75 61.4 60.7 61.3 60.55 61.15 60.5 60.95 60.5 60.75 60.55 60.6 60.65 60.5 60.75 60.45 60.85 60.4 61.0 60.35 61.2 60.4 61.3 60.5 M45.85 61.3 L46.1 61.5 46.0 61.75 45.85 61.9 45.55 61.9 45.5 61.85 45.45 61.8 45.4 61.7 45.4 61.65 45.4 61.55 45.45 61.5 45.55 61.4 45.6 61.35 45.75 61.3 45.85 61.3 M54.05 57.5 L54.1 57.5 54.05 57.45 54.05 57.5 M52.2 60.65 L52.25 60.6 52.3 60.6 52.45 60.55 52.6 60.65 52.85 60.75 53.0 60.85 53.2 61.1 53.2 61.15 53.1 61.35 52.65 61.5 52.1 61.2 52.05 60.95 52.05 60.9 52.1 60.8 52.15 60.75 52.2 60.65 M54.3 60.3 L54.4 60.45 54.45 60.6 54.45 60.7 54.45 60.75 54.4 60.85 54.35 60.95 54.15 61.1 54.0 61.1 53.8 61.05 53.6 60.9 53.55 60.85 53.55 60.8 53.55 60.7 53.55 60.65 53.55 60.55 53.55 60.5 53.6 60.4 53.65 60.35 53.75 60.25 53.85 60.2 54.0 60.2 54.2 60.25 54.3 60.3 M43.4 62.25 L43.35 62.15 43.45 62.05 43.5 62.05 43.55 62.2 43.55 62.25 43.4 62.25 M28.9 9.85 Q28.75 9.8 28.9 9.7 L28.95 9.7 29.1 9.75 29.1 9.85 28.9 9.85 M26.85 11.25 L26.95 11.2 27.1 11.15 27.25 11.25 27.4 11.35 27.5 11.5 27.55 11.65 27.55 11.75 27.45 11.9 27.05 12.0 Q26.8 11.95 26.7 11.7 L26.7 11.45 26.7 11.4 26.75 11.3 26.85 11.25 M25.2 11.05 L25.3 11.2 25.35 11.25 25.25 11.4 25.1 11.55 24.65 11.55 24.5 11.45 24.45 11.35 24.45 11.3 24.45 11.2 24.5 11.15 24.5 11.05 24.6 11.0 24.65 10.9 24.7 10.9 24.85 10.9 24.85 10.85 24.95 10.9 25.1 10.95 25.2 11.05 M32.6 10.0 L32.65 9.9 32.7 9.85 32.75 9.85 32.9 9.8 33.0 9.8 33.15 9.9 33.25 9.95 33.25 10.0 33.3 10.15 33.2 10.3 33.0 10.45 32.65 10.3 32.6 10.05 32.6 10.0 M30.5 10.15 L30.4 10.05 30.4 9.95 30.45 9.9 30.45 9.8 30.5 9.75 30.65 9.7 30.8 9.8 30.85 10.05 30.85 10.1 30.95 10.05 31.15 10.2 31.15 10.4 Q31.1 10.55 30.95 10.5 L30.7 10.4 30.7 10.3 30.7 10.2 30.5 10.15 M31.25 12.05 L31.15 12.05 31.0 12.05 30.95 12.1 31.25 12.1 31.25 12.05 M18.9 12.45 L18.85 12.45 18.4 12.35 18.35 12.35 18.35 12.4 18.45 12.5 18.9 12.5 18.9 12.45 M22.6 11.0 L22.7 11.15 22.7 11.25 22.7 11.3 22.7 11.4 22.65 11.45 22.6 11.55 22.5 11.6 22.45 11.6 22.35 11.65 22.05 11.55 21.9 11.4 21.85 11.3 21.85 11.2 21.85 11.15 21.9 11.05 22.05 10.95 22.25 10.9 22.25 10.85 22.35 10.9 22.5 10.95 22.6 11.0 M6.85 10.0 L6.75 10.2 6.55 10.4 6.35 10.3 6.25 10.25 6.2 10.1 6.15 9.95 6.2 9.85 6.25 9.8 6.35 9.75 6.55 9.65 6.75 9.8 6.85 10.0 M4.35 11.3 L4.4 11.35 4.45 11.45 4.4 11.5 4.4 11.65 4.25 11.85 3.9 11.85 3.8 11.8 3.75 11.7 3.7 11.65 3.7 11.55 3.7 11.5 3.7 11.4 3.7 11.35 3.75 11.25 3.8 11.2 3.9 11.15 3.95 11.1 4.05 11.1 4.2 11.15 4.3 11.2 4.35 11.3 M4.25 12.8 L4.45 12.75 4.55 12.75 4.75 12.8 4.85 12.85 4.95 13.0 5.0 13.1 5.0 13.15 4.95 13.2 4.9 13.35 4.7 13.55 4.45 13.7 4.3 13.65 4.2 13.6 4.1 13.45 4.0 13.25 4.05 13.0 4.1 12.95 4.15 12.85 4.25 12.8 M10.5 13.1 L10.6 13.1 10.65 13.05 10.7 12.95 10.5 12.95 10.5 13.1 M3.35 13.15 L3.5 13.25 3.6 13.3 3.65 13.4 3.65 13.55 3.65 13.6 3.6 13.65 3.45 13.8 Q3.25 13.9 3.1 13.7 L3.0 13.55 3.0 13.5 3.0 13.4 3.05 13.35 3.2 13.2 3.35 13.15 M3.15 17.4 L3.55 17.75 Q3.8 17.95 3.65 18.2 L3.15 18.55 Q2.65 18.55 2.65 18.15 L2.65 18.0 2.7 17.8 2.75 17.65 2.85 17.55 2.95 17.45 3.15 17.4 M1.85 19.1 L2.25 18.9 2.55 19.05 2.7 19.2 2.8 19.35 2.85 19.55 2.85 19.65 2.95 19.7 3.05 19.75 3.15 19.8 3.2 19.9 3.15 20.0 2.95 20.15 2.55 20.2 2.35 20.1 Q1.85 20.25 1.65 19.65 L1.65 19.4 1.85 19.1 M3.0 21.1 L3.0 21.15 2.9 21.4 2.65 21.5 2.3 21.45 2.1 21.35 2.1 21.25 2.1 21.15 2.1 21.1 2.15 21.0 2.15 20.95 2.3 20.9 2.45 20.8 2.65 20.85 2.75 20.9 2.9 20.95 3.0 21.1 M3.2 23.1 L3.3 23.2 3.45 23.4 3.55 23.55 3.75 23.9 3.3 24.2 Q2.75 24.25 2.5 23.85 2.35 23.55 2.5 23.25 2.65 22.95 2.95 22.95 L3.2 23.1 M5.1 15.95 L5.2 16.35 5.35 16.25 5.35 16.15 5.25 16.1 5.15 16.0 5.1 15.95 M7.45 18.05 L7.4 17.95 7.4 18.1 7.45 18.2 7.45 18.05 M5.05 19.85 L4.95 20.0 4.8 20.0 4.75 19.75 4.8 19.7 Q5.0 19.7 5.05 19.85 M4.8 21.85 L4.7 21.95 4.75 21.95 4.8 22.0 4.85 21.85 4.8 21.85 M4.9 26.55 L4.85 26.55 4.9 26.6 4.9 26.55 M4.8 34.15 L5.0 34.25 5.0 34.1 4.8 34.15 M1.8 28.35 L1.9 28.15 2.2 27.9 2.95 27.6 2.95 27.55 3.35 27.7 3.65 27.85 3.9 28.15 4.05 28.5 4.05 28.65 4.05 28.8 3.9 29.2 3.65 29.45 2.95 29.85 2.4 29.65 2.2 29.5 1.9 29.2 1.8 28.85 1.75 28.5 1.8 28.35 M3.4 31.9 Q3.85 32.2 3.7 32.6 L3.15 32.95 Q2.6 32.95 2.75 32.4 2.85 31.9 3.3 31.9 L3.4 31.9 M2.0 34.45 L2.4 34.75 Q2.6 34.95 2.4 35.25 L1.9 35.6 1.4 35.65 1.25 35.55 1.2 35.4 1.2 35.25 1.2 35.1 1.25 34.9 1.4 34.7 1.65 34.6 1.95 34.45 2.0 34.45 M1.1 36.25 L1.2 36.1 1.3 36.0 1.4 35.95 1.7 35.9 2.0 36.0 2.25 36.15 2.3 36.3 2.35 36.7 2.3 36.85 2.2 37.0 1.95 37.1 1.3 37.05 1.05 36.75 1.0 36.4 1.1 36.25 M2.8 37.2 L2.85 37.0 2.95 36.95 3.05 36.9 3.15 36.9 3.25 36.85 3.4 36.9 3.5 37.0 3.55 37.05 3.55 37.1 3.55 37.25 3.5 37.5 3.4 37.7 3.3 37.8 3.15 37.8 3.0 37.75 2.9 37.7 2.8 37.6 2.8 37.55 2.8 37.45 2.8 37.3 2.8 37.2 M2.5 38.65 L2.55 38.7 2.55 38.85 2.55 38.95 2.5 39.0 2.35 39.15 2.0 39.05 1.9 38.9 1.9 38.8 1.9 38.75 1.95 38.65 2.1 38.55 2.25 38.5 2.4 38.55 2.5 38.65 M2.25 40.15 L2.05 40.25 1.65 40.25 1.5 40.1 1.5 40.05 1.5 39.95 1.55 39.9 1.6 39.8 1.65 39.75 1.85 39.7 1.95 39.7 2.05 39.7 2.2 39.8 2.3 39.85 2.35 40.0 2.25 40.15 M2.2 40.65 L2.35 40.6 2.55 40.6 2.8 40.7 2.95 40.75 2.95 40.7 3.15 40.65 3.15 40.6 3.3 40.75 3.3 40.7 3.45 40.55 3.6 40.7 3.65 40.9 3.55 41.1 3.35 41.2 3.25 41.2 3.2 41.1 3.15 41.1 3.05 41.3 2.7 41.5 Q2.25 41.6 1.95 41.3 L1.9 41.1 1.9 41.0 1.9 40.95 1.95 40.85 2.0 40.8 2.05 40.7 2.2 40.65 M2.25 46.45 L2.5 46.65 2.7 46.8 2.8 46.95 2.8 47.1 2.8 47.35 2.75 47.45 2.5 47.8 Q2.1 48.25 1.7 47.9 L1.5 47.65 1.5 47.5 1.55 47.35 1.7 46.95 1.9 46.7 2.25 46.55 2.25 46.45 M3.55 46.45 L3.7 46.4 3.85 46.45 3.95 46.55 4.05 46.7 4.05 46.85 4.05 46.9 3.95 47.05 3.7 47.15 3.4 47.05 3.35 46.95 3.3 46.9 3.3 46.8 3.3 46.75 3.35 46.65 3.35 46.6 3.45 46.5 3.5 46.45 3.55 46.45 M1.5 49.9 L1.35 49.75 1.25 49.45 1.25 49.4 1.25 49.25 1.5 49.9 M3.6 48.9 L3.65 48.9 3.8 48.85 3.95 48.9 4.05 49.0 4.15 49.15 4.2 49.3 4.15 49.35 4.05 49.5 3.8 49.6 3.5 49.5 3.55 49.55 3.65 49.7 3.65 49.75 3.65 49.85 3.45 50.1 3.1 50.25 Q2.85 50.25 2.75 50.1 L2.75 50.05 2.7 49.95 2.7 49.85 2.75 49.8 2.75 49.7 2.8 49.65 2.95 49.55 3.1 49.45 3.25 49.4 3.45 49.45 3.4 49.35 3.4 49.25 3.4 49.2 3.45 49.1 3.45 49.05 3.55 48.95 3.6 48.9 M7.5 42.55 L7.55 43.35 7.6 43.1 7.6 42.6 7.5 42.55 M7.65 43.95 L7.55 43.85 7.55 43.9 7.65 44.1 7.65 43.95 M7.55 44.85 L7.6 45.35 7.65 45.25 7.65 44.6 7.6 44.7 7.55 44.85 M30.15 55.75 L30.25 55.6 29.2 55.6 Q29.55 55.75 29.4 56.0 L29.25 56.15 29.5 56.15 30.15 55.75 M31.75 55.65 L31.75 55.6 30.85 55.6 31.15 55.75 31.4 55.9 Q31.65 55.9 31.7 56.1 L31.55 56.2 31.1 56.35 31.25 56.35 31.8 56.5 32.35 56.65 32.5 56.75 32.55 56.8 32.6 56.9 32.65 56.95 32.65 57.0 32.75 57.05 Q33.1 57.2 32.8 57.5 L32.6 57.7 32.6 57.75 32.65 57.8 32.85 57.85 33.05 57.4 34.0 56.8 34.1 56.8 34.1 56.75 34.2 56.65 Q34.15 56.4 34.25 56.25 L33.95 56.2 33.8 56.15 33.6 56.15 33.5 56.2 32.95 56.4 Q32.55 56.6 32.25 56.4 L31.8 56.25 31.75 56.15 31.75 56.1 31.7 56.0 31.75 55.85 31.75 55.65 M32.7 55.85 L32.8 55.8 33.3 55.65 32.7 55.65 32.7 55.85 M27.85 58.8 L28.05 58.75 28.05 58.7 28.2 58.75 28.3 58.8 28.4 58.9 28.45 58.95 28.45 59.1 28.45 59.2 28.4 59.25 28.3 59.3 28.05 59.35 27.8 59.25 27.75 59.2 27.75 59.1 27.75 58.95 27.85 58.8 M29.1 61.0 L29.1 60.9 29.3 60.8 29.4 60.75 29.55 60.8 29.65 60.9 29.7 60.95 29.75 61.1 29.7 61.2 29.65 61.25 29.5 61.4 29.15 61.3 29.05 61.15 29.05 61.05 29.1 61.0 M33.15 58.75 L32.9 58.95 33.0 59.05 33.05 59.1 33.05 59.2 33.7 59.15 33.8 59.1 33.9 59.05 33.85 59.05 33.3 58.8 33.2 58.75 33.15 58.75 M30.3 61.6 L30.45 61.65 30.5 61.75 30.6 61.85 30.7 61.95 30.55 62.1 30.4 62.15 30.15 62.1 30.0 61.95 29.95 61.9 30.0 61.8 30.0 61.75 30.05 61.7 30.2 61.6 30.3 61.6 M16.0 60.5 L16.2 60.65 16.2 60.85 16.0 60.95 15.8 60.9 15.75 60.85 15.75 60.75 15.75 60.7 15.8 60.6 15.85 60.55 16.0 60.5 M15.6 61.2 L15.6 61.25 15.6 61.35 15.55 61.4 15.5 61.5 15.45 61.55 15.35 61.6 15.2 61.65 14.8 61.55 14.6 61.35 14.55 61.3 14.55 61.2 14.6 61.15 14.6 61.1 14.65 61.0 14.75 60.9 14.85 60.9 15.0 60.85 15.2 60.85 15.4 60.9 15.55 61.05 15.6 61.2 M16.65 61.05 L16.75 60.95 16.9 60.9 16.9 60.85 17.1 61.05 17.2 61.3 17.0 61.5 16.75 61.5 16.65 61.4 16.65 61.25 16.65 61.05 M18.05 60.4 L18.05 60.3 18.1 60.25 18.2 60.2 18.4 60.35 18.35 60.55 18.2 60.7 18.05 60.55 18.05 60.45 18.05 60.4 M18.65 60.9 L18.7 60.8 18.75 60.75 18.9 60.7 19.1 60.85 19.1 61.05 18.9 61.15 18.7 61.1 18.65 61.0 18.65 60.9 M19.25 60.65 L19.35 60.55 19.45 60.5 19.55 60.45 19.65 60.45 19.9 60.65 19.8 60.85 19.45 61.0 19.2 60.8 19.25 60.7 19.25 60.65 M17.15 60.05 L17.0 60.05 17.05 60.15 17.1 60.1 17.15 60.05 M23.05 57.75 L22.95 57.75 22.85 57.8 23.0 57.8 23.05 57.75 M23.5 60.55 L23.5 60.7 23.45 60.75 23.4 60.8 23.25 60.95 23.05 60.95 22.85 60.95 22.75 60.85 22.7 60.8 22.65 60.7 22.6 60.6 22.6 60.45 22.65 60.35 22.7 60.3 22.8 60.2 22.9 60.15 23.05 60.1 23.25 60.15 23.35 60.25 23.45 60.4 23.5 60.55 M10.3 55.65 L10.5 55.6 10.55 55.55 Q11.0 55.5 11.2 55.85 L11.15 56.35 10.55 56.75 Q10.05 56.75 10.0 56.3 L10.0 56.15 10.0 56.0 10.05 55.85 10.15 55.75 10.3 55.65 M12.35 55.65 L12.55 55.6 12.6 55.95 12.35 56.05 12.15 55.9 12.35 55.65 M8.6 55.2 L8.55 55.35 8.6 55.35 8.6 55.2 M5.15 58.7 L5.2 58.85 5.15 59.05 4.95 59.15 4.8 59.2 Q3.9 59.35 3.8 58.65 L3.85 58.6 4.2 58.5 4.2 58.45 4.9 58.55 5.15 58.7 M6.5 58.95 Q6.85 59.05 7.0 59.25 7.2 59.45 7.0 59.8 L6.6 60.0 6.05 59.75 6.0 59.6 6.0 59.4 6.0 59.25 6.15 59.1 6.3 59.0 6.5 58.95 M10.0 57.9 Q10.05 58.45 9.55 58.45 9.05 58.45 9.05 57.9 9.05 57.4 9.55 57.35 10.0 57.45 10.0 57.9 M13.2 61.2 Q13.4 61.2 13.5 61.35 L13.45 61.6 13.2 61.7 13.0 61.45 13.0 61.35 13.05 61.3 13.1 61.25 13.2 61.25 13.2 61.2 M12.3 60.75 L12.35 60.85 12.45 60.8 12.5 60.8 12.6 60.75 12.75 60.8 12.8 60.9 12.85 60.95 12.9 61.1 12.85 61.15 12.8 61.25 12.7 61.3 12.45 61.25 12.25 61.15 12.25 61.05 12.1 61.1 11.95 61.0 11.85 60.85 11.85 60.8 11.9 60.7 11.95 60.65 12.0 60.65 12.1 60.6 12.3 60.75 M3.55 50.85 Q3.7 50.3 4.2 50.25 4.95 50.4 4.9 51.15 4.8 51.8 4.1 51.7 L3.55 51.4 3.55 51.45 Q3.35 51.5 3.25 51.3 L3.15 51.0 3.1 50.75 3.2 50.6 3.2 50.55 3.4 50.75 3.45 50.9 3.5 51.05 3.55 50.85 M3.0 51.8 L3.0 51.9 3.0 52.0 2.85 51.95 2.1 52.05 Q1.4 51.8 1.8 51.05 2.0 50.65 2.5 50.65 3.25 50.8 3.05 51.55 L3.0 51.8 M2.25 54.45 Q2.6 54.5 2.6 54.85 L2.4 55.3 Q1.9 55.6 1.75 55.15 1.65 54.75 2.0 54.5 L2.25 54.45 M2.35 56.25 Q2.65 56.5 2.6 56.8 L2.4 56.95 2.0 56.75 Q1.75 56.5 2.05 56.3 L2.35 56.25 M4.0 56.4 L4.1 56.35 4.1 56.75 4.05 56.85 3.8 56.85 Q3.7 56.8 3.75 56.65 L4.0 56.4 M3.45 57.55 L3.75 57.5 3.8 57.8 3.65 57.95 Q3.45 57.95 3.35 57.8 3.25 57.6 3.45 57.55" fill="#333333" fill-rule="evenodd" stroke="none"/>
    <path d="M46.25 29.65 L46.0 30.0 45.6 30.35 Q43.85 31.5 43.15 31.5 41.5 31.5 41.5 30.75 L41.65 29.65 41.85 28.8 Q42.0 28.1 42.4 27.85 43.15 27.35 45.3 27.3 L46.2 27.95 46.35 28.7 46.25 29.65 M43.6 45.1 L46.2 45.5 46.45 46.25 Q46.45 46.8 45.85 47.75 45.2 48.85 45.1 49.2 L44.65 50.7 Q44.05 52.0 42.9 52.0 41.75 52.0 39.9 51.25 38.1 50.5 38.1 50.1 38.1 48.75 38.65 47.25 L39.45 45.0 41.4 44.7 43.6 45.1 M57.35 42.25 L57.65 42.55 57.7 43.05 Q57.45 47.6 56.05 47.6 L55.45 47.4 53.55 46.9 Q52.15 46.5 52.15 45.8 52.15 45.25 53.55 44.0 54.85 42.8 55.55 42.65 L55.25 42.65 55.7 42.3 56.95 42.1 57.35 42.25 M20.75 22.6 L21.05 23.55 20.75 24.2 Q20.35 24.7 19.65 24.7 18.85 24.7 18.4 24.2 L18.1 23.6 18.5 22.55 18.85 21.65 Q18.85 21.0 19.35 20.85 19.95 20.7 20.4 21.7 L20.75 22.6 M31.35 23.8 L32.45 22.6 32.15 22.5 33.2 22.2 Q33.5 22.2 34.75 24.0 L34.1 25.15 31.35 24.2 31.35 23.8 M19.55 33.1 L22.4 33.1 Q23.2 33.45 23.45 34.15 L23.6 35.4 23.7 37.9 Q23.7 41.55 23.35 42.85 23.2 43.3 22.2 43.75 L20.3 44.65 Q19.5 45.05 18.6 46.0 17.9 46.75 17.35 46.75 L12.8 45.9 10.5 45.1 Q10.15 44.95 10.15 44.2 L10.35 42.5 10.55 41.0 Q10.8 39.2 11.55 37.9 12.2 36.6 13.75 34.9 14.3 34.25 16.55 33.7 L19.55 33.1 M27.7 55.55 L27.55 57.15 26.55 58.6 26.15 58.6 25.7 58.55 25.0 58.55 25.0 58.45 Q23.45 58.7 23.45 56.55 L23.45 55.9 Q23.55 55.55 24.0 55.35 L24.85 54.75 Q25.45 54.4 26.1 54.4 26.9 54.4 27.35 54.8 27.7 55.1 27.7 55.55" fill="#464646" fill-rule="evenodd" stroke="none"/>
    <path d="M40.75 23.25 Q40.25 24.35 38.6 24.35 37.85 24.35 35.9 23.05 34.0 21.8 34.0 21.4 L34.75 17.55 Q35.1 14.6 35.35 14.3 L37.45 14.1 38.45 14.0 38.85 13.85 40.15 13.85 Q41.75 14.2 41.75 14.9 L41.25 20.0 40.75 23.25 M57.3 29.85 Q57.3 30.7 56.9 31.0 55.9 31.45 54.8 32.0 L54.3 32.0 52.45 30.45 Q51.35 29.45 51.35 28.8 51.35 28.0 53.35 26.4 55.45 24.7 56.55 25.25 56.9 25.55 57.15 27.55 L57.3 29.85 M40.5 36.75 Q40.4 37.0 39.3 37.45 L37.65 38.1 36.15 38.25 33.4 37.65 30.1 36.75 Q28.3 36.1 28.05 35.75 L28.0 34.45 27.9 33.0 Q27.9 31.75 28.9 28.75 L29.2 27.55 Q29.4 26.8 29.7 26.6 30.4 26.1 32.85 25.65 L34.85 25.65 35.05 25.6 35.3 25.6 Q38.2 25.6 39.35 26.35 40.05 26.8 40.35 28.0 40.75 30.0 40.75 31.55 L40.65 35.05 40.5 36.75 M47.75 47.6 L52.9 47.65 53.05 47.6 52.85 47.5 52.85 47.4 54.75 47.9 Q56.0 48.3 56.25 48.7 L56.65 49.75 56.8 50.95 56.6 52.65 56.35 53.65 55.6 55.1 54.65 56.55 54.15 57.25 53.6 57.8 50.55 58.55 48.4 58.55 45.25 57.95 Q44.35 57.75 44.35 57.1 44.35 56.4 44.7 54.4 L45.15 52.2 Q45.1 51.7 45.35 50.95 L45.8 49.7 Q46.35 47.4 47.7 47.65 L47.75 47.6 M22.75 16.4 L22.1 17.3 Q21.55 17.95 20.5 17.95 19.85 17.95 19.5 17.45 L18.85 16.4 Q17.85 15.4 17.85 14.75 17.85 13.2 22.2 13.2 L22.4 13.25 Q23.4 12.95 23.7 13.65 L23.8 14.5 23.7 15.35 22.75 16.4 M16.85 27.85 L16.95 28.7 Q16.95 29.65 16.75 29.9 16.2 30.55 15.75 31.7 L15.25 32.4 14.1 33.05 11.3 33.9 9.05 33.9 Q8.25 33.75 8.0 33.4 L7.85 32.75 8.05 29.2 Q8.3 27.75 8.7 27.5 9.8 26.75 13.45 27.55 L15.4 27.55 Q16.55 27.1 16.85 27.85 M6.95 46.75 Q7.0 46.2 8.25 45.85 L9.65 45.55 Q10.75 45.4 10.75 47.1 L10.3 48.9 9.3 50.55 7.35 50.55 6.65 50.25 6.5 49.95 Q6.5 49.05 6.65 48.45 L6.95 46.75 M26.55 41.15 L27.1 41.0 27.95 40.8 28.1 40.75 28.75 40.75 31.05 41.1 34.45 41.4 Q36.45 41.4 37.2 42.0 L37.55 42.95 37.8 45.0 Q37.8 46.6 37.2 49.75 L36.65 52.05 36.5 52.65 36.2 53.2 34.8 53.9 32.75 54.1 32.0 54.5 30.05 54.5 29.15 54.4 26.6 53.6 Q25.1 53.15 24.8 52.6 24.45 52.0 24.45 49.9 L24.45 47.95 24.85 45.05 Q24.95 43.95 25.4 42.65 25.55 41.95 26.25 41.4 L26.55 41.15" fill="#6d6d6d" fill-rule="evenodd" stroke="none"/>
    <path d="M40.95 41.5 L40.9 42.2 39.85 42.8 39.25 42.8 38.0 41.55 37.55 40.85 37.25 40.15 Q37.25 39.55 38.2 39.15 L40.4 38.45 40.75 38.45 41.2 40.0 40.95 41.5 M19.45 27.85 Q19.8 26.65 22.2 25.2 L23.6 25.2 Q24.3 24.95 26.15 25.65 27.95 26.3 27.95 26.65 L27.0 29.5 25.6 32.45 24.85 32.45 24.75 32.4 23.3 32.4 22.55 32.25 Q19.05 31.75 19.05 30.95 L19.35 29.4 19.45 27.85" fill="#c4c4c4" fill-rule="evenodd" stroke="none"/>
    <path d="M43.05 21.55 L43.05 18.25 43.3 15.95 44.15 14.8 Q44.95 14.25 47.7 14.25 L50.55 14.3 Q52.3 14.4 52.7 15.55 L53.2 17.45 54.05 19.35 54.65 21.05 Q54.65 22.25 53.45 24.4 52.25 26.55 51.55 26.65 L50.5 26.65 50.4 26.6 48.75 26.6 43.95 25.75 Q42.9 25.25 42.9 22.95 42.9 21.85 43.05 21.55 M55.35 36.15 L55.0 38.0 54.4 39.9 53.8 41.8 53.15 43.2 52.7 43.35 52.3 43.5 48.45 43.65 48.2 43.6 47.85 43.6 47.8 43.55 45.4 43.25 43.9 42.65 42.7 42.2 Q42.05 41.9 42.25 41.5 L42.25 39.6 Q42.1 39.35 42.1 38.55 42.1 37.8 42.5 36.55 L43.1 34.75 Q43.8 32.0 47.2 31.5 L49.9 31.5 51.9 31.15 52.95 31.3 53.6 32.35 Q53.8 32.9 54.45 33.65 L55.05 35.0 55.35 36.15 M28.95 14.1 Q30.1 14.1 31.9 15.6 33.6 17.05 33.6 17.8 33.6 19.0 32.55 20.9 31.4 22.95 30.25 23.5 L28.65 23.5 Q22.8 22.5 22.8 21.15 22.8 20.3 23.8 17.3 23.95 16.05 24.85 15.35 25.6 14.6 25.85 14.55 L27.25 14.3 28.95 14.1 M9.15 16.6 Q10.35 15.35 11.5 15.45 L11.4 15.35 10.95 15.25 14.2 15.15 Q15.85 15.15 17.0 15.8 18.25 16.5 18.25 17.75 L17.55 22.25 Q16.8 25.8 16.2 26.0 L14.9 26.0 14.8 25.95 10.4 25.95 7.2 25.1 Q7.0 24.9 7.0 23.75 7.0 22.0 7.65 19.25 7.95 17.85 9.15 16.6 M11.15 36.55 L10.4 38.75 9.2 41.4 8.7 41.4 Q6.55 40.85 6.15 40.45 5.9 40.2 5.9 39.05 L6.2 37.15 6.6 36.2 Q6.8 35.75 7.45 35.65 L8.25 35.5 10.8 35.85 Q11.15 36.0 11.15 36.55 M19.75 47.7 L20.4 47.45 20.85 47.45 22.4 47.45 Q22.9 47.6 23.2 48.65 L23.4 50.3 23.1 53.95 Q22.85 56.05 22.35 56.6 21.85 57.15 20.35 57.15 L19.25 57.0 18.1 56.8 17.2 56.9 17.0 56.95 16.5 56.75 Q16.35 56.5 15.75 56.45 L14.35 56.05 12.75 54.65 10.9 53.1 Q10.6 52.75 10.6 51.85 10.6 47.3 14.05 47.7 L19.75 47.7 M26.6 36.4 Q26.9 36.4 27.25 36.95 L27.65 37.65 28.3 38.5 28.45 39.0 Q28.45 39.8 28.1 40.3 L25.15 40.65 24.1 40.45 24.1 40.15 24.6 38.1 24.8 37.15 Q24.8 36.85 25.45 36.6 L26.6 36.4 M35.65 56.6 L36.15 55.1 Q37.0 53.1 37.95 52.65 L40.05 52.5 41.9 52.85 41.75 52.7 Q43.65 53.05 43.65 53.9 L43.75 55.85 43.6 58.05 Q43.05 60.0 41.25 60.0 L39.05 59.75 37.6 59.45 36.2 58.95 Q35.3 58.6 35.3 58.25 L35.65 56.6" fill="#959595" fill-rule="evenodd" stroke="none"/>
    <path d="M45.15 -1.0 L58.15 14.75 58.1 14.85 54.25 40.75 43.45 52.9 43.45 57.75 20.7 57.75 20.7 52.95 9.85 40.8 9.8 40.7 6.1 14.75 6.15 14.75 19.1 -1.0 45.15 -1.0" fill="#333333" fill-rule="evenodd" stroke="none"/>
    <path d="M45.15 -1.0 L58.15 14.75 58.1 14.85 54.25 40.75 43.45 52.9 43.45 57.75 20.7 57.75 20.7 52.95 9.85 40.8 9.8 40.7 6.1 14.75 6.15 14.75 19.1 -1.0 45.15 -1.0 Z" fill="none" stroke="#333333" stroke-linecap="round" stroke-linejoin="round" stroke-width="2.0"/>
    <path d="M45.15 -1.0 L58.15 14.75 58.1 14.85 54.25 40.75 43.2 53.2 20.95 53.2 9.85 40.8 9.8 40.7 6.1 14.75 6.15 14.75 19.1 -1.0 45.15 -1.0" fill="#8d4424" fill-rule="evenodd" stroke="none"/>
    <path d="M43.25 53.15 L20.9 53.15 18.35 20.55 45.85 20.55 43.25 53.15" fill="#c96134" fill-rule="evenodd" stroke="none"/>
    <path d="M57.85 16.55 L55.0 35.7 37.2 31.3 37.2 31.25 Q34.75 28.9 32.1 28.9 29.4 28.95 26.75 31.3 L9.1 35.65 6.1 14.75 6.15 14.75 9.8 10.35 26.75 6.2 Q29.4 3.85 32.1 3.8 34.8 3.75 37.25 6.2 L54.6 10.45 57.85 14.4 57.85 16.55" fill="#8d4424" fill-rule="evenodd" stroke="none"/>
    <path d="M54.25 40.75 L43.2 53.2 20.95 53.2 9.85 40.8 9.8 40.7 9.25 36.65 20.5 49.2 43.65 49.2 54.9 36.5 54.25 40.75" fill="#b0b0b0" fill-rule="evenodd" stroke="none"/>
    <path d="M37.7 49.4 L26.3 49.4 24.95 32.75 39.0 32.75 37.7 49.4" fill="#ebebeb" fill-rule="evenodd" stroke="none"/>
    <path d="M36.1 49.15 L27.75 49.15 26.8 34.65 37.1 34.65 36.1 49.15" fill="#191919" fill-rule="evenodd" stroke="none"/>
    <path d="M43.25 53.15 L20.9 53.15 20.6 49.2 43.6 49.2 43.25 53.15" fill="#cccccc" fill-rule="evenodd" stroke="none"/>
    <path d="M43.45 57.7 L20.7 57.7 20.7 56.0 43.45 56.0 43.45 57.7" fill="#cccccc" fill-rule="evenodd" stroke="none"/>
    <path d="M43.45 56.15 L20.7 56.15 20.7 54.45 43.45 54.45 43.45 56.15" fill="#b0b0b0" fill-rule="evenodd" stroke="none"/>
    <path d="M43.45 54.55 L20.7 54.55 20.7 52.85 43.45 52.85 43.45 54.55" fill="#cccccc" fill-rule="evenodd" stroke="none"/>
    <path d="M43.45 52.95 L20.7 52.95 20.7 51.25 43.45 51.25 43.45 52.95" fill="#b0b0b0" fill-rule="evenodd" stroke="none"/>
    <path d="M48.4 25.25 L54.35 25.25 53.45 34.25 47.15 40.85 47.15 40.6 48.4 25.25" fill="#ebebeb" fill-rule="evenodd" stroke="none"/>
    <path d="M49.1 27.75 L53.15 27.75 52.55 33.85 48.3 38.35 48.3 38.15 49.1 27.75" fill="#191919" fill-rule="evenodd" stroke="none"/>
    <path d="M15.65 25.25 L9.7 25.25 10.6 34.25 16.9 40.85 16.9 40.6 15.65 25.25" fill="#ebebeb" fill-rule="evenodd" stroke="none"/>
    <path d="M14.95 27.65 L10.85 27.65 11.45 33.9 15.8 38.45 15.8 38.25 14.95 27.65" fill="#191919" fill-rule="evenodd" stroke="none"/>
    <path d="M2.35 26.75 L2.35 -2.05 26.0 -7.85 Q29.1 -10.55 32.1 -10.6 35.25 -10.65 38.0 -7.85 L61.65 -2.05 61.65 26.75 38.0 20.95 38.0 20.9 Q35.2 18.15 32.1 18.2 29.1 18.25 26.0 20.95 L2.35 26.75 26.0 20.95 Q29.1 18.25 32.1 18.2 35.2 18.15 38.0 20.9 L38.0 20.95 61.65 26.75 58.65 29.05 57.85 28.85 57.85 29.95 57.85 31.25 57.85 32.5 57.85 33.8 37.2 28.75 37.2 28.7 Q34.75 26.35 32.1 26.35 29.4 26.4 26.75 28.75 L6.05 33.8 6.05 32.5 6.05 31.25 6.05 29.95 6.05 28.85 5.35 29.05 2.35 26.75 M57.85 32.5 L37.2 27.45 37.2 27.4 Q34.75 25.05 32.1 25.05 29.4 25.1 26.75 27.45 L6.05 32.5 26.75 27.45 Q29.4 25.1 32.1 25.05 34.75 25.05 37.2 27.4 L37.2 27.45 57.85 32.5 M57.85 28.85 L38.0 23.85 38.0 23.8 Q35.2 21.1 32.1 21.15 29.1 21.15 26.0 23.85 L6.05 28.85 26.0 23.85 Q29.1 21.15 32.1 21.15 35.2 21.1 38.0 23.8 L38.0 23.85 57.85 28.85 M57.85 31.25 L37.2 26.2 37.2 26.15 Q34.75 23.8 32.1 23.8 29.4 23.8 26.75 26.2 L6.05 31.25 26.75 26.2 Q29.4 23.8 32.1 23.8 34.75 23.8 37.2 26.15 L37.2 26.2 57.85 31.25 M6.05 29.95 L26.75 24.9 Q29.4 22.55 32.1 22.5 34.75 22.5 37.2 24.85 L37.2 24.9 57.85 29.95 37.2 24.9 37.2 24.85 Q34.75 22.5 32.1 22.5 29.4 22.55 26.75 24.9 L6.05 29.95" fill="#322210" fill-rule="evenodd" stroke="none"/>
    <path d="M61.65 26.75 L61.65 -2.05 38.0 -7.85 Q35.25 -10.65 32.1 -10.6 29.1 -10.55 26.0 -7.85 L2.35 -2.05 2.35 26.75 26.0 20.95 Q29.1 18.25 32.1 18.2 35.2 18.15 38.0 20.9 L38.0 20.95 61.65 26.75 58.65 29.05 57.85 28.85 57.85 29.95 57.85 31.25 57.85 32.5 57.85 33.8 37.2 28.75 37.2 28.7 Q34.75 26.35 32.1 26.35 29.4 26.4 26.75 28.75 L6.05 33.8 6.05 32.5 6.05 31.25 6.05 29.95 6.05 28.85 5.35 29.05 2.35 26.75 M57.85 29.95 L37.2 24.9 37.2 24.85 Q34.75 22.5 32.1 22.5 29.4 22.55 26.75 24.9 L6.05 29.95 M6.05 31.25 L26.75 26.2 Q29.4 23.8 32.1 23.8 34.75 23.8 37.2 26.15 L37.2 26.2 57.85 31.25 M6.05 28.85 L26.0 23.85 Q29.1 21.15 32.1 21.15 35.2 21.1 38.0 23.8 L38.0 23.85 57.85 28.85 M6.05 32.5 L26.75 27.45 Q29.4 25.1 32.1 25.05 34.75 25.05 37.2 27.4 L37.2 27.45 57.85 32.5" fill="none" stroke="#322210" stroke-linecap="round" stroke-linejoin="round" stroke-width="2.0"/>
    <path d="M26.75 3.6 Q29.45 1.25 32.1 1.2 34.85 1.2 37.25 3.6 L57.9 8.65 57.9 33.8 37.25 28.75 37.25 28.7 Q34.8 26.3 32.1 26.35 29.45 26.4 26.75 28.75 L6.1 33.8 6.1 8.65 26.75 3.6" fill="#afafaf" fill-rule="evenodd" stroke="none"/>
    <path d="M26.75 2.3 Q29.45 -0.05 32.1 -0.1 34.85 -0.1 37.25 2.3 L57.9 7.35 57.9 32.5 37.25 27.45 37.25 27.4 Q34.8 25.0 32.1 25.05 29.45 25.1 26.75 27.45 L6.1 32.5 6.1 7.35 26.75 2.3" fill="#dadada" fill-rule="evenodd" stroke="none"/>
    <path d="M26.75 1.0 Q29.45 -1.35 32.1 -1.4 34.85 -1.4 37.25 1.0 L57.9 6.05 57.9 31.2 37.25 26.15 37.25 26.1 Q34.8 23.7 32.1 23.75 29.45 23.8 26.75 26.15 L6.1 31.2 6.1 6.05 26.75 1.0" fill="#afafaf" fill-rule="evenodd" stroke="none"/>
    <path d="M26.75 -0.3 Q29.45 -2.65 32.1 -2.7 34.85 -2.7 37.25 -0.3 L57.9 4.75 57.9 29.9 37.25 24.85 37.25 24.8 Q34.8 22.4 32.1 22.45 29.45 22.5 26.75 24.85 L6.1 29.9 6.1 4.75 26.75 -0.3" fill="#dadada" fill-rule="evenodd" stroke="none"/>
    <path d="M32.1 -10.6 Q35.25 -10.65 38.0 -7.85 L61.65 -2.05 61.65 26.75 38.0 20.95 38.0 20.9 Q35.2 18.15 32.1 18.2 29.1 18.25 26.0 20.95 L2.35 26.75 2.35 -2.05 26.0 -7.85 Q29.1 -10.55 32.1 -10.6" fill="#dd0000" fill-rule="evenodd" stroke="none"/>
    <path d="M37.95 23.85 L37.95 23.8 Q35.2 21.1 32.1 21.15 29.05 21.15 26.0 23.85 L5.3 29.05 2.3 26.75 26.0 20.95 Q29.05 18.25 32.1 18.2 35.2 18.15 37.95 20.9 L37.95 20.95 61.65 26.75 58.65 29.05 37.95 23.85" fill="#aa0000" fill-rule="evenodd" stroke="none"/>
    <path d="M61.65 -2.1 L61.65 26.7 37.95 20.95 37.95 -7.85 61.65 -2.1" fill="#dd0000" fill-rule="evenodd" stroke="none"/>
    <path d="M2.3 -2.1 L2.3 26.7 26.0 20.95 26.0 -7.85 2.3 -2.1" fill="#dd0000" fill-rule="evenodd" stroke="none"/>
    <path d="M24.1 -7.35 L26.0 -7.85 26.0 20.95 24.1 21.45 24.1 12.7 24.1 11.25 24.1 10.35 24.1 10.15 24.1 2.15 24.1 -7.35 M40.0 -7.35 L40.0 11.25 40.0 12.7 40.0 21.45 37.95 20.95 37.95 -7.85 40.0 -7.35" fill="#ca0000" fill-rule="evenodd" stroke="none"/>
    <path d="M38.0 -7.9 L38.0 9.7 38.0 10.8 38.0 20.9 Q35.2 18.1 32.1 18.15 29.05 18.2 25.95 20.9 L25.95 10.8 25.95 9.7 25.95 9.05 25.95 8.85 25.95 2.85 25.95 -7.9 Q29.05 -10.6 32.1 -10.65 35.2 -10.65 38.0 -7.9" fill="#dd0000" fill-rule="evenodd" stroke="none"/>
    <path d="M32.1 -7.15 Q35.25 -7.2 38.0 -4.4 L38.0 -0.8 Q35.25 -3.55 32.1 -3.5 29.1 -3.5 26.0 -0.8 L26.0 -4.4 Q29.1 -7.1 32.1 -7.15 M38.0 11.2 L38.0 14.85 Q35.25 12.05 32.1 12.1 29.1 12.15 26.0 14.85 L26.0 11.2 Q29.1 8.5 32.1 8.45 35.25 8.4 38.0 11.2" fill="#e8c22d" fill-rule="evenodd" stroke="none"/>
  </g>
</svg>
