<?xml version="1.0" encoding="UTF-8" standalone="no"?>
<svg xmlns:xlink="http://www.w3.org/1999/xlink" height="29.8px" width="37.3px" xmlns="http://www.w3.org/2000/svg">
  <g transform="matrix(1.0, 0.0, 0.0, 1.0, 4.85, 6.45)">
    <path d="M24.35 -3.7 L24.6 -3.15 24.65 -2.55 24.65 -2.15 24.65 -2.1 25.05 -2.2 Q25.6 -2.65 26.35 -2.55 L26.45 -2.5 26.65 -2.25 26.8 -1.95 26.8 -1.65 26.75 -1.4 26.7 -1.3 25.7 -0.9 24.4 -0.65 24.35 -0.6 24.45 -0.55 25.35 -0.55 25.45 -0.55 25.65 -0.3 26.1 0.15 26.25 0.65 26.25 1.05 26.2 1.1 Q25.6 1.55 24.9 1.4 24.35 1.25 24.0 0.9 L23.9 0.8 23.8 0.7 23.75 0.7 23.7 0.8 23.65 0.85 23.6 0.95 23.55 1.05 Q23.5 1.45 24.05 1.5 L24.3 1.55 24.65 1.75 25.25 2.55 25.35 3.25 25.35 3.35 24.85 3.75 Q24.2 3.95 23.75 3.4 L23.05 2.8 23.0 2.8 22.95 2.9 22.95 3.05 22.9 3.1 22.85 3.2 22.8 3.3 22.75 3.35 22.8 3.4 23.85 4.0 24.0 4.1 Q24.45 4.4 24.5 4.95 L24.2 5.85 24.1 6.0 22.8 5.95 22.4 5.8 22.3 5.7 22.05 5.8 22.0 5.85 22.0 5.9 21.95 6.0 21.9 6.05 Q21.85 6.45 22.25 6.4 L23.0 6.5 23.25 6.65 23.7 7.5 23.65 8.25 23.6 8.35 23.25 8.5 21.7 8.85 21.65 8.9 Q21.55 9.35 22.5 9.4 L23.1 9.4 23.15 9.45 23.35 9.85 23.45 10.25 23.55 10.65 23.55 11.0 23.55 11.05 23.35 11.35 Q22.3 12.75 20.4 12.45 L19.15 12.35 18.9 12.25 17.85 11.15 17.7 10.85 17.5 10.3 Q17.35 9.65 17.85 9.15 L18.2 8.85 19.65 8.9 Q20.0 9.0 20.05 8.75 L20.1 8.65 20.15 8.55 19.6 8.35 19.2 8.15 18.3 7.35 17.75 6.8 17.7 6.75 17.7 6.6 17.65 6.35 17.6 6.1 17.6 5.85 17.65 5.7 17.65 5.6 19.75 5.45 20.7 5.5 20.7 5.45 Q20.85 5.25 20.5 5.15 19.85 5.05 19.35 4.55 18.65 3.8 19.05 2.85 19.5 1.75 20.55 2.25 L21.7 2.85 20.6 1.8 20.1 1.2 Q19.65 0.5 20.25 0.0 20.85 -0.55 21.4 -0.55 L21.2 -1.05 21.15 -1.5 21.2 -2.0 21.45 -2.4 21.55 -2.5 22.45 -2.5 22.75 -2.4 22.8 -2.4 22.7 -2.7 22.65 -3.1 22.7 -3.5 22.9 -3.8 22.95 -3.9 23.1 -3.95 23.95 -3.95 24.35 -3.7" fill="#009726" fill-rule="evenodd" stroke="none"/>
    <path d="M24.35 -3.7 L23.95 -3.95 23.1 -3.95 22.95 -3.9 22.9 -3.8 22.7 -3.5 22.65 -3.1 22.7 -2.7 22.8 -2.4 22.75 -2.4 22.45 -2.5 21.55 -2.5 21.45 -2.4 21.2 -2.0 21.15 -1.5 21.2 -1.05 21.4 -0.55 Q20.85 -0.55 20.25 0.0 19.65 0.5 20.1 1.2 L20.6 1.8 21.7 2.85 20.55 2.25 Q19.5 1.75 19.05 2.85 18.65 3.8 19.35 4.55 19.85 5.05 20.5 5.15 20.85 5.25 20.7 5.45 L20.7 5.5 19.75 5.45 17.65 5.6 17.65 5.7 17.6 5.85 17.6 6.1 17.65 6.35 17.7 6.6 17.7 6.75 17.75 6.8 18.3 7.35 19.2 8.15 19.6 8.35 20.15 8.55 20.1 8.65 20.05 8.75 Q20.0 9.0 19.65 8.9 L18.2 8.85 17.85 9.15 Q17.35 9.65 17.5 10.3 L17.7 10.85 17.85 11.15 18.9 12.25 19.15 12.35 20.4 12.45 Q22.3 12.75 23.35 11.35 L23.55 11.05 23.55 11.0 23.55 10.65 23.45 10.25 23.35 9.85 23.15 9.45 23.1 9.4 22.5 9.4 Q21.55 9.35 21.65 8.9 L21.7 8.85 23.25 8.5 23.6 8.35 23.65 8.25 23.7 7.5 23.25 6.65 23.0 6.5 22.25 6.4 Q21.85 6.45 21.9 6.05 L21.95 6.0 22.0 5.9 22.0 5.85 22.05 5.8 22.3 5.7 22.4 5.8 22.8 5.95 24.1 6.0 24.2 5.85 24.5 4.95 Q24.45 4.4 24.0 4.1 L23.85 4.0 22.8 3.4 22.75 3.35 22.8 3.3 22.85 3.2 22.9 3.1 22.95 3.05 22.95 2.9 23.0 2.8 23.05 2.8 23.75 3.4 Q24.2 3.95 24.85 3.75 L25.35 3.35 25.35 3.25 25.25 2.55 24.65 1.75 24.3 1.55 24.05 1.5 Q23.5 1.45 23.55 1.05 L23.6 0.95 23.65 0.85 23.7 0.8 23.75 0.7 23.8 0.7 23.9 0.8 24.0 0.9 Q24.35 1.25 24.9 1.4 25.6 1.55 26.2 1.1 L26.25 1.05 26.25 0.65 26.1 0.15 25.65 -0.3 25.45 -0.55 25.35 -0.55 24.45 -0.55 24.35 -0.6 24.4 -0.65 25.7 -0.9 26.7 -1.3 26.75 -1.4 26.8 -1.65 26.8 -1.95 26.65 -2.25 26.45 -2.5 26.35 -2.55 Q25.6 -2.65 25.05 -2.2 L24.65 -2.1 24.65 -2.15 24.65 -2.55 24.6 -3.15 24.35 -3.7 Z" fill="none" stroke="#00641a" stroke-linecap="round" stroke-linejoin="round" stroke-width="0.5"/>
    <path d="M12.5 -4.95 L15.25 -1.85 16.1 -0.7 16.1 -0.6 15.9 -0.15 15.7 0.25 15.6 0.8 15.75 0.85 16.45 0.8 16.85 0.75 17.1 0.75 19.4 4.75 19.9 5.75 20.3 7.1 Q20.75 9.35 19.7 12.2 L18.1 15.35 16.1 16.4 13.55 14.9 Q10.65 12.6 9.35 8.25 L9.15 7.6 9.2 7.55 10.1 7.3 10.5 7.0 10.25 6.6 9.6 6.45 9.1 6.2 9.05 6.15 Q9.0 4.2 9.75 1.65 L10.15 1.75 10.95 1.8 11.65 1.65 11.3 1.25 10.65 0.7 10.2 0.25 10.35 -0.15 Q11.35 -2.85 12.5 -4.95" fill="#597205" fill-rule="evenodd" stroke="none"/>
    <path d="M12.5 -4.95 Q11.35 -2.85 10.35 -0.15 L10.2 0.25 10.65 0.7 11.3 1.25 11.65 1.65 10.95 1.8 10.15 1.75 9.75 1.65 Q9.0 4.2 9.05 6.15 L9.1 6.2 9.6 6.45 10.25 6.6 10.5 7.0 10.1 7.3 9.2 7.55 9.15 7.6 9.35 8.25 Q10.65 12.6 13.55 14.9 L16.1 16.4 18.1 15.35 19.7 12.2 Q20.75 9.35 20.3 7.1 L19.9 5.75 19.4 4.75 17.1 0.75 16.85 0.75 16.45 0.8 15.75 0.85 15.6 0.8 15.7 0.25 15.9 -0.15 16.1 -0.6 16.1 -0.7 15.25 -1.85 12.5 -4.95 Z" fill="none" stroke="#00641a" stroke-linecap="round" stroke-linejoin="round" stroke-width="3.0"/>
    <path d="M16.2 16.35 Q15.55 14.75 15.15 12.95 L14.4 9.85 Q13.45 6.4 13.15 2.9 L12.5 -4.8 12.5 -4.95 15.25 -1.85 16.1 -0.7 16.1 -0.6 15.9 -0.15 15.7 0.25 15.6 0.8 15.75 0.85 16.45 0.8 16.85 0.75 17.1 0.75 Q18.8 3.3 19.9 5.75 21.0 8.4 19.7 12.2 L18.1 15.35 16.2 16.35" fill="#00b72e" fill-rule="evenodd" stroke="none"/>
    <path d="M16.2 16.35 L16.1 16.4 13.55 14.9 Q10.65 12.6 9.35 8.25 L9.15 7.6 9.2 7.55 10.1 7.3 10.5 7.0 10.25 6.6 9.6 6.45 9.1 6.2 9.05 6.15 Q9.0 4.2 9.75 1.65 L10.15 1.75 10.95 1.8 11.65 1.65 11.3 1.25 10.65 0.7 10.2 0.25 10.35 -0.15 Q11.35 -2.85 12.5 -4.95 L12.5 -4.8 13.15 2.9 Q13.45 6.4 14.4 9.85 L15.15 12.95 Q15.55 14.75 16.2 16.35" fill="#00c431" fill-rule="evenodd" stroke="none"/>
    <path d="M10.2 10.05 L8.3 11.95 Q8.15 12.1 8.3 12.25 9.15 13.15 10.05 12.15 10.9 11.25 12.05 11.2 13.8 11.15 13.25 12.7 12.95 13.65 11.75 13.75 10.55 13.8 10.3 14.9 L10.3 15.0 10.35 15.05 10.4 15.1 10.4 15.15 10.45 15.2 10.5 15.25 10.55 15.35 Q11.75 15.15 12.65 14.2 13.1 13.65 13.85 13.85 14.55 14.05 14.75 14.8 15.0 16.15 13.6 16.45 12.55 16.7 12.8 17.65 L13.3 18.75 13.6 19.1 13.6 19.2 13.55 19.2 13.55 19.3 13.55 19.4 13.55 19.5 13.5 19.55 13.4 19.55 13.15 19.55 13.05 19.6 13.0 19.55 12.9 19.35 12.8 18.9 12.6 18.3 12.25 17.75 12.15 17.65 11.7 17.7 11.6 17.7 11.55 18.7 Q11.6 19.5 11.2 20.05 L10.35 21.0 Q9.85 21.55 9.05 21.4 L9.0 21.35 8.95 21.35 8.9 21.35 8.85 21.3 8.85 21.25 8.8 21.2 8.7 21.1 8.65 21.1 Q8.55 20.6 8.7 20.1 8.9 19.3 9.4 18.75 L10.15 17.8 Q10.5 17.35 10.25 16.8 L10.2 16.6 10.2 16.5 9.8 16.5 9.7 16.6 Q9.25 17.9 8.3 19.0 7.75 19.6 6.85 19.2 5.85 18.9 6.4 17.9 6.6 17.5 6.95 17.2 7.95 16.4 8.55 15.3 L8.55 14.6 Q7.55 14.4 7.25 15.3 L6.65 16.5 Q6.2 17.15 5.5 17.45 L4.9 17.35 4.7 17.3 4.4 17.2 4.2 17.1 4.3 16.3 Q4.5 15.55 5.1 15.05 L6.4 13.95 6.8 13.6 6.8 13.55 6.85 13.5 6.85 13.35 6.85 13.2 6.75 13.1 6.7 13.05 6.0 13.05 5.95 13.05 3.9 15.2 Q2.65 16.3 2.05 15.0 1.9 14.65 2.15 14.3 3.0 12.95 4.5 12.2 L4.85 11.95 4.85 11.9 4.8 11.6 Q3.95 11.45 3.3 12.0 2.65 12.5 2.15 13.15 L1.55 13.85 1.5 13.85 0.75 13.95 0.65 13.85 0.55 13.75 0.4 13.65 0.2 13.45 0.2 13.4 0.25 12.6 Q0.5 11.85 1.25 11.55 L2.5 10.55 2.55 10.05 Q1.05 10.35 0.2 11.65 -0.45 12.75 -1.3 11.95 L-1.4 11.4 Q-1.0 10.1 0.2 9.55 L0.7 9.05 0.65 8.85 0.6 8.75 0.5 8.65 0.4 8.65 Q-0.25 8.8 -0.65 9.2 L-2.0 10.3 -3.25 10.35 -3.35 9.8 Q-3.35 9.25 -3.0 8.85 -2.55 8.45 -1.95 8.35 L-1.35 8.1 -1.45 7.95 -2.0 7.75 -2.6 7.35 -2.95 7.1 -2.95 6.95 -3.0 6.85 -3.0 6.6 -2.85 6.3 -2.6 5.95 -1.75 6.0 -1.2 6.5 -0.8 7.2 -0.7 7.35 -0.3 7.1 0.1 6.25 0.4 5.5 0.9 4.9 1.1 4.9 1.3 5.0 1.4 5.05 1.6 5.15 1.65 5.2 1.7 5.55 1.65 6.3 1.5 6.95 1.35 7.65 1.4 7.85 Q1.75 7.95 2.0 7.65 L2.55 7.05 2.85 6.4 3.05 6.15 Q3.5 6.0 3.65 6.45 L3.75 7.3 3.65 8.2 Q3.6 8.7 3.85 9.0 4.85 8.85 5.35 7.75 5.95 6.45 7.25 7.25 L7.5 7.65 Q7.45 8.5 6.85 9.2 5.55 9.7 6.6 10.5 L6.9 10.5 8.4 9.0 Q9.1 7.95 10.2 8.8 10.9 9.3 10.2 10.05" fill="#597205" fill-rule="evenodd" stroke="none"/>
    <path d="M10.2 10.05 L8.3 11.95 Q8.15 12.1 8.3 12.25 9.15 13.15 10.05 12.15 10.9 11.25 12.05 11.2 13.8 11.15 13.25 12.7 12.95 13.65 11.75 13.75 10.55 13.8 10.3 14.9 L10.3 15.0 10.35 15.05 10.4 15.1 10.4 15.15 10.45 15.2 10.5 15.25 10.55 15.35 Q11.75 15.15 12.65 14.2 13.1 13.65 13.85 13.85 14.55 14.05 14.75 14.8 15.0 16.15 13.6 16.45 12.55 16.7 12.8 17.65 L13.3 18.75 13.6 19.1 13.6 19.2 13.55 19.2 13.55 19.3 13.55 19.4 13.55 19.5 13.5 19.55 13.4 19.55 13.15 19.55 13.05 19.6 13.0 19.55 12.9 19.35 12.8 18.9 12.6 18.3 12.25 17.75 12.15 17.65 11.7 17.7 11.6 17.7 11.55 18.7 Q11.6 19.5 11.2 20.05 L10.35 21.0 Q9.85 21.55 9.05 21.4 L9.0 21.35 8.95 21.35 8.9 21.35 8.85 21.3 8.85 21.25 8.8 21.2 8.7 21.1 8.65 21.1 Q8.55 20.6 8.7 20.1 8.9 19.3 9.4 18.75 L10.15 17.8 Q10.5 17.35 10.25 16.8 L10.2 16.6 10.2 16.5 9.8 16.5 9.7 16.6 Q9.25 17.9 8.3 19.0 7.75 19.6 6.85 19.2 5.85 18.9 6.4 17.9 6.6 17.5 6.95 17.2 7.95 16.4 8.55 15.3 L8.55 14.6 Q7.55 14.4 7.25 15.3 L6.65 16.5 Q6.2 17.15 5.5 17.45 L4.9 17.35 4.7 17.3 4.4 17.2 4.2 17.1 4.3 16.3 Q4.5 15.55 5.1 15.05 L6.4 13.95 6.8 13.6 6.8 13.55 6.85 13.5 6.85 13.35 6.85 13.2 6.75 13.1 6.7 13.05 6.0 13.05 5.95 13.05 3.9 15.2 Q2.65 16.3 2.05 15.0 1.9 14.65 2.15 14.3 3.0 12.95 4.5 12.2 L4.85 11.95 4.85 11.9 4.8 11.6 Q3.95 11.45 3.3 12.0 2.65 12.5 2.15 13.15 L1.55 13.85 1.5 13.85 0.75 13.95 0.65 13.85 0.55 13.75 0.4 13.65 0.2 13.45 0.2 13.4 0.25 12.6 Q0.5 11.85 1.25 11.55 L2.5 10.55 2.55 10.05 Q1.05 10.35 0.2 11.65 -0.45 12.75 -1.3 11.95 L-1.4 11.4 Q-1.0 10.1 0.2 9.55 L0.7 9.05 0.65 8.85 0.6 8.75 0.5 8.65 0.4 8.65 Q-0.25 8.8 -0.65 9.2 L-2.0 10.3 -3.25 10.35 -3.35 9.8 Q-3.35 9.25 -3.0 8.85 -2.55 8.45 -1.95 8.35 L-1.35 8.1 -1.45 7.95 -2.0 7.75 -2.6 7.35 -2.95 7.1 -2.95 6.95 -3.0 6.85 -3.0 6.6 -2.85 6.3 -2.6 5.95 -1.75 6.0 -1.2 6.5 -0.8 7.2 -0.7 7.35 -0.3 7.1 0.1 6.25 0.4 5.5 0.9 4.9 1.1 4.9 1.3 5.0 1.4 5.05 1.6 5.15 1.65 5.2 1.7 5.55 1.65 6.3 1.5 6.95 1.35 7.65 1.4 7.85 Q1.75 7.95 2.0 7.65 L2.55 7.05 2.85 6.4 3.05 6.15 Q3.5 6.0 3.65 6.45 L3.75 7.3 3.65 8.2 Q3.6 8.7 3.85 9.0 4.85 8.85 5.35 7.75 5.95 6.45 7.25 7.25 L7.5 7.65 Q7.45 8.5 6.85 9.2 5.55 9.7 6.6 10.5 L6.9 10.5 8.4 9.0 Q9.1 7.95 10.2 8.8 10.9 9.3 10.2 10.05 Z" fill="none" stroke="#597205" stroke-linecap="round" stroke-linejoin="round" stroke-width="3.0"/>
    <path d="M10.2 10.05 L8.3 11.95 Q8.15 12.1 8.3 12.25 9.15 13.15 10.05 12.15 10.9 11.25 12.05 11.2 13.8 11.15 13.25 12.7 12.95 13.65 11.75 13.75 10.55 13.8 10.3 14.9 L10.3 15.0 10.35 15.05 10.4 15.1 10.4 15.15 10.45 15.2 10.5 15.25 10.55 15.35 Q11.75 15.15 12.65 14.2 13.1 13.65 13.85 13.85 14.55 14.05 14.75 14.8 15.0 16.15 13.6 16.45 12.55 16.7 12.8 17.65 L13.3 18.75 13.6 19.1 13.6 19.2 13.55 19.2 13.55 19.3 13.55 19.4 13.55 19.5 13.5 19.55 13.4 19.55 13.15 19.55 13.05 19.6 13.0 19.55 12.9 19.35 12.8 18.9 12.6 18.3 12.25 17.75 12.15 17.65 11.7 17.7 11.6 17.7 11.55 18.7 Q11.6 19.5 11.2 20.05 L10.35 21.0 Q9.85 21.55 9.05 21.4 L9.0 21.35 8.95 21.35 8.9 21.35 8.85 21.3 8.85 21.25 8.8 21.2 8.7 21.1 8.65 21.1 Q8.55 20.6 8.7 20.1 8.9 19.3 9.4 18.75 L10.15 17.8 Q10.5 17.35 10.25 16.8 L10.2 16.6 10.2 16.5 9.8 16.5 9.7 16.6 Q9.25 17.9 8.3 19.0 7.75 19.6 6.85 19.2 5.85 18.9 6.4 17.9 6.6 17.5 6.95 17.2 7.95 16.4 8.55 15.3 L8.55 14.6 Q7.55 14.4 7.25 15.3 L6.65 16.5 Q6.2 17.15 5.5 17.45 L4.9 17.35 4.7 17.3 4.4 17.2 4.2 17.1 4.3 16.3 Q4.5 15.55 5.1 15.05 L6.4 13.95 6.8 13.6 6.8 13.55 6.85 13.5 6.85 13.35 6.85 13.2 6.75 13.1 6.7 13.05 6.0 13.05 5.95 13.05 3.9 15.2 Q2.65 16.3 2.05 15.0 1.9 14.65 2.15 14.3 3.0 12.95 4.5 12.2 L4.85 11.95 4.85 11.9 4.8 11.6 Q3.95 11.45 3.3 12.0 2.65 12.5 2.15 13.15 L1.55 13.85 1.5 13.85 0.75 13.95 0.65 13.85 0.55 13.75 0.4 13.65 0.2 13.45 0.2 13.4 0.25 12.6 Q0.5 11.85 1.25 11.55 L2.5 10.55 2.55 10.05 Q1.05 10.35 0.2 11.65 -0.45 12.75 -1.3 11.95 L-1.4 11.4 Q-1.0 10.1 0.2 9.55 L0.7 9.05 0.65 8.85 0.6 8.75 0.5 8.65 0.4 8.65 Q-0.25 8.8 -0.65 9.2 L-2.0 10.3 -3.25 10.35 -3.35 9.8 Q-3.35 9.25 -3.0 8.85 -2.55 8.45 -1.95 8.35 L-1.35 8.1 -1.45 7.95 -2.0 7.75 -2.6 7.35 -2.95 7.1 -2.95 6.95 -3.0 6.85 -3.0 6.6 -2.85 6.3 -2.6 5.95 -1.75 6.0 -1.2 6.5 -0.8 7.2 -0.7 7.35 -0.3 7.1 0.1 6.25 0.4 5.5 0.9 4.9 1.1 4.9 1.3 5.0 1.4 5.05 1.6 5.15 1.65 5.2 1.7 5.55 1.65 6.3 1.5 6.95 1.35 7.65 1.4 7.85 Q1.75 7.95 2.0 7.65 L2.55 7.05 2.85 6.4 3.05 6.15 Q3.5 6.0 3.65 6.45 L3.75 7.3 3.65 8.2 Q3.6 8.7 3.85 9.0 4.85 8.85 5.35 7.75 5.95 6.45 7.25 7.25 L7.5 7.65 Q7.45 8.5 6.85 9.2 5.55 9.7 6.6 10.5 L6.9 10.5 8.4 9.0 Q9.1 7.95 10.2 8.8 10.9 9.3 10.2 10.05" fill="#a2ce09" fill-rule="evenodd" stroke="none"/>
    <path d="M30.95 6.7 L30.95 6.75 29.7 10.65 29.15 11.95 29.0 11.95 28.55 12.1 28.1 12.1 Q27.75 12.15 27.65 12.3 L27.65 12.5 28.05 13.0 28.3 13.4 28.4 13.55 Q27.35 15.8 26.1 17.6 L25.5 18.5 24.55 19.55 Q22.8 21.05 19.9 21.65 L16.4 21.85 14.5 20.8 14.45 20.7 Q14.1 19.6 14.4 17.75 14.95 14.1 17.95 10.7 L18.45 10.2 18.5 10.25 19.15 10.9 Q19.35 11.15 19.65 11.1 L19.8 10.65 19.65 10.05 19.6 9.45 19.65 9.35 Q21.25 8.35 23.85 7.7 L24.0 8.0 24.3 8.8 24.8 9.35 25.05 8.8 25.2 7.95 25.3 7.4 25.7 7.3 30.95 6.7" fill="#597205" fill-rule="evenodd" stroke="none"/>
    <path d="M30.95 6.7 L25.7 7.3 25.3 7.4 25.2 7.95 25.05 8.8 24.8 9.35 24.3 8.8 24.0 8.0 23.85 7.7 Q21.25 8.35 19.65 9.35 L19.6 9.45 19.65 10.05 19.8 10.65 19.65 11.1 Q19.35 11.15 19.15 10.9 L18.5 10.25 18.45 10.2 17.95 10.7 Q14.95 14.1 14.4 17.75 14.1 19.6 14.45 20.7 L14.5 20.8 16.4 21.85 19.9 21.65 Q22.8 21.05 24.55 19.55 L25.5 18.5 26.1 17.6 Q27.35 15.8 28.4 13.55 L28.3 13.4 28.05 13.0 27.65 12.5 27.65 12.3 Q27.75 12.15 28.1 12.1 L28.55 12.1 29.0 11.95 29.15 11.95 29.7 10.65 30.95 6.75 30.95 6.7 Z" fill="none" stroke="#00641a" stroke-linecap="round" stroke-linejoin="round" stroke-width="3.0"/>
    <path d="M14.5 20.8 L14.45 20.7 Q14.1 19.6 14.4 17.75 14.95 14.1 17.95 10.7 L18.45 10.2 18.5 10.25 19.15 10.9 Q19.35 11.15 19.65 11.1 L19.8 10.65 19.65 10.05 19.6 9.45 19.65 9.35 Q21.25 8.35 23.85 7.7 L24.0 8.0 24.3 8.8 24.8 9.35 25.05 8.8 25.2 7.95 25.3 7.4 25.7 7.3 30.95 6.7 30.95 6.75 30.8 6.8 24.5 11.25 Q21.65 13.35 19.2 15.9 L16.9 18.15 Q15.55 19.4 14.5 20.8" fill="#00c431" fill-rule="evenodd" stroke="none"/>
    <path d="M14.5 20.8 Q15.55 19.4 16.9 18.15 L19.2 15.9 Q21.65 13.35 24.5 11.25 L30.8 6.8 30.95 6.75 29.7 10.65 29.15 11.95 29.0 11.95 28.55 12.1 28.1 12.1 Q27.75 12.15 27.65 12.3 L27.65 12.5 28.05 13.0 28.3 13.4 28.4 13.55 Q27.1 16.3 25.5 18.5 23.8 20.85 19.9 21.65 L16.4 21.85 14.5 20.8" fill="#00b72e" fill-rule="evenodd" stroke="none"/>
  </g>
</svg>
