<?xml version="1.0" encoding="UTF-8" standalone="no"?>
<svg xmlns:xlink="http://www.w3.org/1999/xlink" height="31.2px" width="23.2px" xmlns="http://www.w3.org/2000/svg">
  <g transform="matrix(1.0, 0.0, 0.0, 1.0, 11.6, 15.6)">
    <path d="M-1.3 10.6 L-1.55 10.5 -1.4 10.5 -1.3 10.6" fill="#cc0000" fill-rule="evenodd" stroke="none"/>
    <path d="M10.6 -2.95 Q10.6 -0.3 9.05 3.2 7.85 6.1 5.95 8.7 3.25 12.35 0.9 12.7 L1.85 14.45 Q-0.55 15.05 -2.1 13.15 L-0.6 12.6 Q-2.85 12.0 -5.4 9.0 -7.85 6.15 -8.9 3.55 -10.6 -0.3 -10.6 -2.95 L-10.6 -3.05 Q-10.55 -7.85 -7.55 -11.2 -4.35 -14.6 0.0 -14.6 4.4 -14.6 7.5 -11.2 10.6 -7.85 10.6 -3.05 L10.6 -2.95 Z" fill="none" stroke="#296900" stroke-linecap="round" stroke-linejoin="round" stroke-width="2.0"/>
    <path d="M0.55 12.1 L1.85 14.45 Q-0.55 15.05 -2.1 13.15 L0.55 12.1" fill="#517900" fill-rule="evenodd" stroke="none"/>
    <path d="M10.6 -2.95 Q10.6 -0.3 9.05 3.2 7.85 6.1 5.95 8.7 3.0 12.7 0.4 12.7 -2.25 12.7 -5.4 9.0 -7.85 6.15 -8.9 3.55 -10.6 -0.3 -10.6 -2.95 L-10.6 -3.05 Q-10.55 -7.85 -7.55 -11.2 -4.35 -14.6 0.0 -14.6 4.4 -14.6 7.5 -11.2 10.6 -7.85 10.6 -3.05 L10.6 -2.95" fill="#7ab400" fill-rule="evenodd" stroke="none"/>
    <path d="M0.65 -13.15 Q3.95 -13.15 6.25 -10.45 8.55 -7.8 8.55 -4.05 L8.55 -3.95 Q8.55 -1.85 7.4 0.9 L6.4 3.1 Q7.15 0.65 7.15 -1.35 L7.15 -1.45 Q7.15 -6.55 4.1 -10.1 2.25 -12.25 -0.05 -13.1 L0.65 -13.15" fill="#ffffff" fill-rule="evenodd" stroke="none"/>
    <path d="M-4.25 7.4 Q-1.0 11.1 1.7 11.1 L3.2 10.8 Q1.7 12.1 0.3 12.1 -2.05 12.1 -4.85 8.8 -7.05 6.25 -8.0 3.95 -9.5 0.5 -9.5 -1.85 L-9.5 -1.95 -9.35 -3.4 Q-9.1 -1.15 -7.75 1.8 -6.7 4.5 -4.25 7.4" fill="#517900" fill-rule="evenodd" stroke="none"/>
  </g>
</svg>
