<?xml version="1.0" encoding="UTF-8" standalone="no"?>
<svg xmlns:xlink="http://www.w3.org/1999/xlink" height="8.95px" width="14.9px" xmlns="http://www.w3.org/2000/svg">
  <g transform="matrix(1.0, 0.0, 0.0, 1.0, -7.9, 3.4)">
    <path d="M17.5 -3.4 L18.2 5.55 9.0 4.2 Q7.9 2.7 7.9 1.4 7.9 0.1 8.85 -1.1 L17.5 -3.4" fill="#000000" fill-rule="evenodd" stroke="none"/>
    <path d="M20.55 -2.7 L21.35 -2.85 22.25 -3.15 22.3 -2.75 22.35 -2.7 22.3 -2.65 22.75 4.7 22.8 4.8 22.8 4.95 22.45 5.25 22.0 5.15 21.3 5.1 20.95 5.1 20.15 4.9 19.2 4.85 19.15 4.65 15.7 4.0 Q14.9 2.6 14.9 1.35 14.9 0.15 15.6 -1.0 L19.35 -2.2 Q19.6 -2.45 20.55 -2.7" fill="#000000" fill-rule="evenodd" stroke="none"/>
  </g>
</svg>
