<?xml version="1.0" encoding="UTF-8" standalone="no"?>
<svg xmlns:xlink="http://www.w3.org/1999/xlink" height="8.45px" width="11.2px" xmlns="http://www.w3.org/2000/svg">
  <g transform="matrix(1.0, 0.0, 0.0, 1.0, 2.1, 2.75)">
    <path d="M8.15 -0.75 L8.7 -0.2 8.75 0.05 9.1 2.1 9.05 2.75 9.0 2.85 8.7 3.8 8.65 3.9 8.55 4.15 7.75 4.65 4.15 5.7 4.5 -2.75 8.15 -0.75" fill="#000000" fill-rule="evenodd" stroke="none"/>
    <path d="M2.9 -0.75 L3.6 -0.2 3.65 0.05 Q4.0 0.6 4.1 2.1 L4.0 2.75 3.95 2.85 3.6 3.8 3.5 3.9 3.4 4.15 Q2.7 4.35 2.4 4.65 L-2.1 5.7 -1.7 -2.75 2.9 -0.75" fill="#000000" fill-rule="evenodd" stroke="none"/>
  </g>
</svg>
