<?xml version="1.0" encoding="UTF-8" standalone="no"?>
<svg xmlns:xlink="http://www.w3.org/1999/xlink" height="27.5px" width="37.85px" xmlns="http://www.w3.org/2000/svg">
  <g transform="matrix(1.0, 0.0, 0.0, 1.0, 40.45, 10.75)">
    <path d="M-12.6 -10.25 Q-8.8 -10.05 -6.0 -6.35 -5.05 -5.0 -4.35 -3.4 -3.75 -1.95 -3.4 -0.35 -3.1 1.25 -3.1 3.0 -3.1 8.55 -6.0 12.4 -8.9 16.25 -13.0 16.25 L-13.2 16.25 -14.15 16.25 Q-17.5 15.7 -20.0 12.4 -21.5 10.3 -22.25 7.8 -22.85 5.6 -22.85 3.0 -22.85 -0.55 -21.65 -3.4 L-20.0 -6.35 Q-17.75 -9.35 -14.75 -10.0 L-12.6 -10.25 M-7.25 -0.35 Q-7.7 -1.65 -8.5 -2.75 L-9.0 -3.4 Q-10.45 -4.9 -12.35 -5.0 L-12.55 -5.0 -13.6 -4.85 Q-15.0 -4.55 -16.05 -3.4 L-16.6 -2.75 Q-17.45 -1.65 -17.85 -0.35 -18.35 1.1 -18.35 2.7 -18.35 5.9 -16.6 8.2 -15.2 10.15 -13.25 10.4 L-12.7 10.45 -12.55 10.45 Q-10.2 10.45 -8.5 8.2 -6.8 5.9 -6.8 2.7 -6.8 1.1 -7.25 -0.35" fill="#ff673c" fill-rule="evenodd" stroke="none"/>
    <path d="M-17.85 -0.35 Q-17.45 -1.65 -16.6 -2.75 L-16.05 -3.4 Q-15.0 -4.55 -13.6 -4.85 L-12.55 -5.0 -12.35 -5.0 Q-10.45 -4.9 -9.0 -3.4 L-8.5 -2.75 Q-7.7 -1.65 -7.25 -0.35 L-17.85 -0.35" fill="#7e0701" fill-rule="evenodd" stroke="none"/>
    <path d="M-14.75 -10.0 L-13.0 -10.25 -12.6 -10.25 -14.75 -10.0" fill="#ff4e00" fill-rule="evenodd" stroke="none"/>
    <path d="M-29.25 -7.6 L-27.65 -8.9 -14.75 -10.0 Q-17.75 -9.35 -20.0 -6.35 L-21.65 -3.4 Q-22.85 -0.55 -22.85 3.0 -22.85 5.6 -22.25 7.8 L-32.5 7.8 -32.9 6.4 -32.95 5.85 -33.2 3.5 -33.2 3.0 Q-33.2 1.1 -32.8 -0.65 L-32.05 -3.15 -31.95 -3.4 -31.4 -4.65 -30.3 -6.35 -29.25 -7.6" fill="#f73600" fill-rule="evenodd" stroke="none"/>
    <path d="M-14.15 16.25 L-27.55 15.05 -29.1 13.8 -30.3 12.4 -31.2 10.95 -31.9 9.5 -32.0 9.35 -32.5 7.8 -22.25 7.8 Q-21.5 10.3 -20.0 12.4 -17.5 15.7 -14.15 16.25 M-7.25 -0.35 Q-6.8 1.1 -6.8 2.7 -6.8 5.9 -8.5 8.2 -10.2 10.45 -12.55 10.45 L-12.7 10.45 -13.25 10.4 Q-15.2 10.15 -16.6 8.2 -18.35 5.9 -18.35 2.7 -18.35 1.1 -17.85 -0.35 L-7.25 -0.35" fill="#b60902" fill-rule="evenodd" stroke="none"/>
    <path d="M-39.95 -0.65 L-39.95 -2.8 -32.05 -3.15 -32.8 -0.65 -39.95 -0.65 M-39.95 -4.65 L-39.95 -6.75 -29.25 -7.6 -30.3 -6.35 -31.4 -4.65 -39.95 -4.65 M-39.95 10.95 L-39.95 8.95 -32.0 9.35 -31.9 9.5 -31.2 10.95 -39.95 10.95 M-39.95 5.85 L-39.95 3.0 -33.2 3.0 -33.2 3.5 -32.95 5.85 -39.95 5.85" fill="#dcdee0" fill-rule="evenodd" stroke="none"/>
    <path d="M-39.95 -2.8 L-39.95 -4.65 -31.4 -4.65 -31.95 -3.4 -32.05 -3.15 -39.95 -2.8 M-29.1 13.8 L-39.95 12.95 -39.95 10.95 -31.2 10.95 -30.3 12.4 -29.1 13.8 M-39.95 8.95 L-39.95 5.85 -32.95 5.85 -32.9 6.4 -32.5 7.8 -32.0 9.35 -39.95 8.95 M-39.95 3.0 L-39.95 -0.65 -32.8 -0.65 Q-33.2 1.1 -33.2 3.0 L-39.95 3.0" fill="#9bafc4" fill-rule="evenodd" stroke="none"/>
    <path d="M-29.25 -7.6 L-27.65 -8.9 -14.75 -10.0 -13.0 -10.25 -12.6 -10.25 Q-8.8 -10.05 -6.0 -6.35 -5.05 -5.0 -4.35 -3.4 -3.75 -1.95 -3.4 -0.35 -3.1 1.25 -3.1 3.0 -3.1 8.55 -6.0 12.4 -8.9 16.25 -13.0 16.25 L-13.2 16.25 -14.15 16.25 -27.55 15.05 -29.1 13.8 -30.3 12.4 -31.2 10.95 -31.9 9.5 -32.0 9.35 -32.5 7.8 -32.9 6.4 -32.95 5.85 -33.2 3.5 -33.2 3.0 Q-33.2 1.1 -32.8 -0.65 L-32.05 -3.15 -31.95 -3.4 -31.4 -4.65 -30.3 -6.35 -29.25 -7.6" fill="none" stroke="#6d1800" stroke-linecap="round" stroke-linejoin="round" stroke-width="1.0"/>
    <path d="M-39.95 -6.75 L-29.25 -7.6 M-29.1 13.8 L-39.95 12.95 M-32.05 -3.15 L-39.95 -2.8 M-12.6 -10.25 L-14.75 -10.0 M-33.2 3.0 L-39.95 3.0 M-32.0 9.35 L-39.95 8.95" fill="none" stroke="#455b72" stroke-linecap="round" stroke-linejoin="round" stroke-width="1.0"/>
  </g>
</svg>
