<?xml version="1.0" encoding="UTF-8" standalone="no"?>
<svg xmlns:xlink="http://www.w3.org/1999/xlink" height="60.25px" width="60.1px" xmlns="http://www.w3.org/2000/svg">
  <g transform="matrix(1.0, 0.0, 0.0, 1.0, -2.0, -1.95)">
    <path d="M20.7 58.2 Q21.15 58.2 21.45 58.55 L21.75 59.3 21.45 60.1 20.65 60.4 20.5 60.4 20.15 60.35 19.75 60.25 19.8 60.25 18.25 59.9 17.5 59.45 Q17.25 59.05 17.3 58.6 L17.75 57.9 Q18.15 57.65 18.55 57.7 L20.45 58.15 20.5 58.15 20.7 58.2 M15.4 57.5 L16.2 57.5 Q16.65 57.5 17.0 57.85 L17.3 58.6 17.0 59.4 Q16.65 59.7 16.2 59.7 L15.4 59.7 13.95 59.8 13.15 59.55 Q12.8 59.25 12.8 58.75 12.7 58.3 13.0 58.0 13.3 57.6 13.75 57.6 L15.4 57.5 M8.45 58.9 Q8.3 58.45 8.55 58.05 L9.15 57.5 10.0 57.6 10.7 57.95 11.1 57.95 11.45 57.9 12.3 58.1 12.7 58.8 12.55 59.6 11.8 60.05 11.4 60.15 11.2 60.15 10.35 60.15 9.75 59.95 9.0 59.55 8.45 58.9 M4.5 54.05 L4.45 53.6 Q4.45 52.95 4.75 51.7 L4.75 51.75 4.75 51.5 Q4.85 51.05 5.2 50.8 L6.05 50.6 Q6.5 50.65 6.75 51.0 L6.95 51.85 6.9 52.05 6.9 52.15 6.7 53.6 6.7 53.85 6.45 54.65 6.1 54.95 6.5 55.0 7.15 55.55 7.9 56.85 8.35 57.25 8.45 58.05 7.95 58.75 7.1 58.85 7.0 58.85 6.35 58.45 5.15 56.55 Q4.95 56.1 5.1 55.7 5.25 55.25 5.65 55.05 L5.7 55.05 Q5.25 55.1 4.9 54.8 4.55 54.5 4.5 54.05 M6.35 46.25 L6.8 47.0 6.85 47.55 6.85 47.5 7.1 49.3 6.85 50.1 Q6.55 50.5 6.1 50.55 5.65 50.6 5.3 50.3 4.95 50.05 4.9 49.55 L4.65 47.85 4.65 47.8 4.6 47.3 Q4.5 46.85 4.8 46.5 5.05 46.1 5.5 46.05 L6.35 46.25 M6.8 38.85 L6.7 40.55 6.35 41.3 5.55 41.6 Q6.0 41.65 6.3 42.0 6.65 42.3 6.6 42.8 L6.55 43.3 6.65 44.9 6.35 45.65 Q6.0 46.0 5.6 46.0 5.1 46.05 4.8 45.7 4.45 45.4 4.4 44.95 L4.35 43.3 4.35 43.2 4.4 42.65 Q4.4 42.15 4.75 41.9 5.1 41.6 5.5 41.6 L4.8 41.25 Q4.45 40.9 4.5 40.45 L4.6 38.75 4.6 38.3 Q4.6 37.85 4.9 37.5 5.25 37.2 5.7 37.2 6.15 37.2 6.5 37.5 L6.8 38.3 6.8 38.8 6.8 38.85 M4.6 19.55 L5.4 19.85 5.7 20.65 5.7 22.85 5.4 23.65 4.6 23.95 Q5.05 23.95 5.4 24.3 L5.7 25.05 5.7 25.4 6.15 26.8 6.15 27.0 6.15 27.25 5.85 28.0 5.1 28.35 Q5.55 28.35 5.9 28.65 L6.2 29.4 6.25 30.85 6.3 31.65 6.0 32.45 5.4 32.75 6.05 33.05 6.45 33.8 6.55 34.8 6.55 34.85 6.65 35.95 6.4 36.75 Q6.1 37.1 5.65 37.15 L4.85 36.9 Q4.5 36.6 4.45 36.15 L4.35 35.05 4.25 33.95 Q4.2 33.5 4.5 33.15 4.75 32.85 5.1 32.8 4.75 32.75 4.45 32.5 4.1 32.2 4.05 31.75 L4.05 30.9 4.05 30.85 4.0 29.45 Q4.0 29.0 4.35 28.7 4.6 28.35 5.05 28.35 4.6 28.35 4.3 28.0 3.95 27.7 3.95 27.25 L3.95 27.1 3.65 26.25 3.5 25.7 3.5 25.05 Q3.5 24.6 3.85 24.3 4.15 23.95 4.6 23.95 4.15 23.95 3.85 23.65 3.5 23.3 3.5 22.85 L3.5 20.65 Q3.5 20.2 3.85 19.85 4.15 19.55 4.6 19.55 M5.9 11.0 L6.15 11.8 5.85 14.1 5.45 14.85 5.0 15.05 5.5 15.35 Q5.85 15.65 5.85 16.1 L5.85 16.25 5.9 18.4 5.6 19.2 4.8 19.5 Q4.35 19.5 4.05 19.2 3.7 18.85 3.7 18.4 L3.65 16.4 3.65 16.35 3.65 16.1 Q3.65 15.65 3.95 15.35 L4.5 15.05 3.9 14.65 Q3.6 14.25 3.65 13.8 L3.95 11.55 Q4.0 11.1 4.35 10.85 4.7 10.55 5.15 10.6 5.6 10.65 5.9 11.0 M5.55 7.3 L5.6 7.3 5.75 6.95 6.4 6.45 7.2 6.5 7.15 6.5 Q6.8 6.2 6.8 5.75 6.75 5.25 7.05 4.95 L7.45 4.55 Q7.6 4.35 7.9 4.25 L9.5 3.8 9.65 3.75 10.45 3.9 10.9 4.35 Q10.95 4.0 11.2 3.8 11.5 3.45 11.95 3.45 L14.15 3.45 Q14.65 3.45 14.95 3.8 15.3 4.1 15.3 4.55 L14.95 5.35 14.15 5.65 11.95 5.65 Q11.5 5.65 11.2 5.35 L10.95 5.05 10.85 5.4 10.15 5.9 10.0 5.95 8.85 6.3 8.7 6.4 7.95 6.8 7.45 6.7 7.75 7.2 Q7.9 7.65 7.65 8.05 L7.55 8.3 6.8 10.0 6.15 10.6 5.3 10.6 Q4.9 10.4 4.75 10.0 4.55 9.55 4.75 9.15 L5.55 7.3 M19.4 4.65 L19.7 5.45 Q19.7 5.9 19.35 6.2 L18.55 6.5 16.0 6.1 15.35 5.55 Q15.15 5.15 15.3 4.7 15.45 4.3 15.85 4.05 L16.7 4.0 18.65 4.3 Q19.1 4.3 19.4 4.65 M23.15 4.15 Q23.6 4.15 23.95 4.5 L24.25 5.25 23.9 6.0 Q23.6 6.35 23.1 6.35 L20.95 6.4 20.15 6.1 Q19.8 5.8 19.8 5.35 19.75 4.9 20.05 4.55 20.4 4.2 20.85 4.2 L23.15 4.15 M35.75 57.9 L38.0 58.5 38.65 59.05 38.8 59.45 Q38.8 59.1 39.1 58.85 39.4 58.5 39.85 58.5 L42.05 58.5 Q42.55 58.5 42.85 58.85 43.2 59.15 43.2 59.6 43.2 59.15 43.5 58.85 43.8 58.5 44.25 58.5 L46.05 58.15 46.25 58.1 46.85 58.2 Q47.25 58.35 47.5 58.75 L47.6 59.05 47.75 58.85 Q48.05 58.5 48.5 58.5 L50.7 58.5 Q51.2 58.5 51.5 58.85 51.85 59.15 51.85 59.6 51.85 59.15 52.15 58.85 52.45 58.5 52.95 58.5 L53.65 58.5 53.7 58.5 54.55 58.0 55.4 57.9 56.05 58.45 56.15 59.3 55.6 59.95 54.75 60.45 54.7 60.45 54.5 60.55 53.95 60.7 52.95 60.7 52.15 60.4 Q51.85 60.05 51.85 59.6 L51.5 60.4 Q51.2 60.7 50.7 60.7 L48.5 60.7 Q48.05 60.7 47.75 60.4 L47.45 59.85 47.0 60.25 46.3 60.35 44.6 60.7 44.35 60.7 44.3 60.7 43.5 60.4 Q43.2 60.05 43.2 59.6 L42.85 60.4 42.05 60.7 39.85 60.7 Q39.4 60.7 39.1 60.4 L38.8 59.75 38.75 59.9 38.2 60.55 37.35 60.6 35.25 60.05 34.55 59.55 34.4 59.05 34.15 59.45 33.35 59.75 32.8 59.6 Q32.8 60.1 32.45 60.4 L31.7 60.7 Q31.2 60.7 30.9 60.4 L30.55 59.7 30.15 60.4 29.35 60.6 27.1 60.3 26.4 59.9 26.15 59.5 25.9 60.0 25.1 60.3 22.9 60.3 22.1 60.0 Q21.8 59.65 21.8 59.2 21.8 58.75 22.1 58.45 22.45 58.1 22.9 58.1 L25.1 58.1 Q25.55 58.1 25.9 58.45 L26.15 58.95 26.55 58.35 Q26.95 58.05 27.35 58.15 L29.65 58.4 Q30.1 58.5 30.35 58.85 L30.6 59.35 Q30.6 57.5 33.4 57.55 33.85 57.55 34.2 57.9 L34.45 58.55 34.95 58.0 35.75 57.9 M58.75 34.15 Q59.05 33.8 59.5 33.8 59.95 33.8 60.3 34.15 L60.6 34.9 60.6 36.2 60.6 36.25 60.55 37.2 60.2 37.95 59.45 38.25 Q59.85 38.3 60.15 38.65 L60.35 39.45 60.15 41.6 59.8 42.35 59.4 42.6 59.8 42.8 Q60.15 43.05 60.15 43.55 L60.55 45.4 60.6 45.7 60.6 45.8 60.3 46.6 59.5 46.9 Q59.95 46.9 60.3 47.25 L60.6 48.0 60.6 49.6 60.55 49.9 60.4 50.5 59.95 51.15 59.45 51.35 Q59.6 51.4 59.8 51.6 L60.1 52.35 60.1 52.5 60.35 54.45 60.1 55.25 59.55 55.65 59.8 55.85 Q60.1 56.2 60.05 56.65 L59.65 57.45 57.8 58.75 57.0 58.9 Q56.5 58.8 56.3 58.4 56.05 58.0 56.15 57.6 56.25 57.15 56.65 56.9 L58.25 55.75 58.65 55.5 58.55 55.45 Q58.2 55.15 58.15 54.7 L57.9 52.7 57.9 52.55 57.9 52.35 Q57.9 51.9 58.25 51.6 58.55 51.3 58.95 51.25 58.6 51.15 58.4 50.8 58.15 50.45 58.25 50.0 L58.4 49.45 58.4 48.0 Q58.4 47.55 58.75 47.25 59.05 46.9 59.5 46.9 59.05 46.9 58.75 46.6 L58.4 45.9 57.95 43.75 Q57.9 43.3 58.2 42.95 58.45 42.65 58.75 42.6 L58.25 42.25 Q57.95 41.9 57.95 41.45 L58.2 39.2 Q58.2 38.75 58.6 38.45 58.9 38.2 59.25 38.2 L58.6 37.85 Q58.3 37.5 58.35 37.05 L58.4 36.15 58.4 34.9 Q58.4 34.45 58.75 34.15 M36.15 4.15 L36.95 4.35 37.4 5.05 37.4 4.95 Q37.4 4.5 37.7 4.15 38.05 3.85 38.5 3.85 L40.7 3.85 Q41.15 3.85 41.5 4.15 L41.8 4.95 41.5 5.75 40.7 6.05 38.5 6.05 37.7 5.75 37.4 5.15 37.2 5.9 36.45 6.35 34.2 6.6 Q33.75 6.65 33.4 6.35 L33.05 5.85 32.8 6.4 32.05 6.75 29.8 6.85 Q29.3 6.85 29.0 6.55 28.65 6.25 28.65 5.8 L28.35 6.55 27.55 6.85 26.3 6.85 25.15 6.8 24.45 6.35 Q24.15 5.95 24.25 5.5 24.3 5.05 24.7 4.8 L25.5 4.6 26.3 4.65 27.55 4.65 Q28.0 4.65 28.35 5.0 L28.65 5.75 Q28.65 5.3 28.95 5.0 29.25 4.65 29.7 4.65 L31.9 4.55 Q32.35 4.55 32.7 4.85 L33.0 5.3 33.25 4.8 Q33.5 4.45 34.0 4.4 L36.15 4.15 M51.6 3.65 L53.95 3.85 54.65 4.3 Q54.9 4.7 54.8 5.15 L55.1 4.85 55.9 4.65 55.95 4.65 56.55 4.85 57.05 5.05 57.4 5.25 58.25 5.9 Q58.6 6.15 58.65 6.65 L58.45 7.35 58.6 7.3 59.45 7.4 60.0 8.0 60.05 8.1 60.1 8.35 60.3 9.05 60.35 9.3 60.35 9.7 60.35 9.85 60.3 10.8 59.9 11.55 59.35 11.8 59.7 12.0 60.1 12.75 60.3 14.95 60.05 15.75 59.45 16.15 Q59.8 16.15 60.1 16.4 L60.5 17.2 60.6 19.4 Q60.65 19.85 60.35 20.2 L59.65 20.55 60.35 21.0 60.55 21.8 60.3 23.1 60.1 23.95 59.65 24.7 59.1 24.9 Q59.4 24.95 59.65 25.15 60.0 25.45 60.0 25.9 L60.2 27.7 60.2 27.75 60.2 28.15 59.95 28.95 59.6 29.25 59.95 29.4 60.45 30.1 60.5 30.4 60.6 32.6 60.3 33.4 59.5 33.75 Q59.05 33.75 58.75 33.45 58.4 33.1 58.4 32.65 L58.25 30.6 58.25 30.55 Q58.2 30.1 58.45 29.75 58.6 29.45 58.9 29.3 L58.4 29.1 Q58.05 28.8 58.0 28.35 L58.0 27.95 57.8 26.05 Q57.75 25.6 58.1 25.3 58.4 24.95 58.8 24.9 L58.1 24.45 Q57.85 24.1 57.9 23.65 L58.15 22.5 58.35 21.5 Q58.4 21.05 58.8 20.75 L59.3 20.55 58.75 20.3 Q58.4 20.0 58.4 19.5 L58.25 17.3 Q58.25 16.85 58.55 16.5 58.8 16.2 59.15 16.15 L58.45 15.9 Q58.1 15.6 58.1 15.15 L57.9 12.95 Q57.85 12.45 58.15 12.15 58.45 11.8 58.85 11.75 L58.35 11.4 Q58.05 11.05 58.05 10.6 L58.15 9.7 58.2 9.65 58.15 9.6 57.95 8.85 57.95 8.8 57.9 8.7 Q57.75 8.25 58.0 7.85 L58.05 7.75 57.7 7.85 56.85 7.65 56.2 7.1 55.65 6.85 55.55 6.85 54.85 6.4 Q54.55 6.0 54.65 5.55 L54.35 5.85 53.55 6.0 51.5 5.85 Q51.05 5.8 50.7 5.5 L50.45 4.9 50.2 5.45 Q49.9 5.8 49.45 5.8 L48.3 6.1 48.35 6.1 47.6 6.45 46.75 6.35 46.2 5.7 45.75 6.35 44.95 6.55 43.85 6.35 43.8 6.3 42.65 6.0 41.95 5.5 Q41.75 5.1 41.85 4.7 41.95 4.25 42.35 4.0 L43.2 3.9 44.35 4.2 45.3 4.35 Q45.75 4.4 46.0 4.8 L46.2 5.1 46.25 4.85 46.9 4.3 47.35 4.15 47.4 4.15 Q48.3 3.7 49.25 3.6 49.7 3.6 50.05 3.9 L50.45 4.55 Q50.5 4.2 50.8 3.95 51.15 3.6 51.6 3.65" fill="#cdcdcd" fill-rule="evenodd" stroke="none"/>
    <path d="M51.6 3.65 Q51.15 3.6 50.8 3.95 50.5 4.2 50.45 4.55 L50.05 3.9 Q49.7 3.6 49.25 3.6 48.3 3.7 47.4 4.15 L47.35 4.15 46.9 4.3 46.25 4.85 46.2 5.1 46.0 4.8 Q45.75 4.4 45.3 4.35 L44.35 4.2 43.2 3.9 42.35 4.0 Q41.95 4.25 41.85 4.7 41.75 5.1 41.95 5.5 L42.65 6.0 43.8 6.3 43.85 6.35 44.95 6.55 45.75 6.35 46.2 5.7 46.75 6.35 47.6 6.45 48.35 6.1 48.3 6.1 49.45 5.8 Q49.9 5.8 50.2 5.45 L50.45 4.9 50.7 5.5 Q51.05 5.8 51.5 5.85 L53.55 6.0 54.35 5.85 54.65 5.55 Q54.55 6.0 54.85 6.4 L55.55 6.85 55.65 6.85 56.2 7.1 56.85 7.65 57.7 7.85 58.05 7.75 58.0 7.85 Q57.75 8.25 57.9 8.7 L57.95 8.8 57.95 8.85 58.15 9.6 58.2 9.65 58.15 9.7 58.05 10.6 Q58.05 11.05 58.35 11.4 L58.85 11.75 Q58.45 11.8 58.15 12.15 57.85 12.45 57.9 12.95 L58.1 15.15 Q58.1 15.6 58.45 15.9 L59.15 16.15 Q58.8 16.2 58.55 16.5 58.25 16.85 58.25 17.3 L58.4 19.5 Q58.4 20.0 58.75 20.3 L59.3 20.55 58.8 20.75 Q58.4 21.05 58.35 21.5 L58.15 22.5 57.9 23.65 Q57.85 24.1 58.1 24.45 L58.8 24.9 Q58.4 24.95 58.1 25.3 57.75 25.6 57.8 26.05 L58.0 27.95 58.0 28.35 Q58.05 28.8 58.4 29.1 L58.9 29.3 Q58.6 29.45 58.45 29.75 58.2 30.1 58.25 30.55 L58.25 30.6 58.4 32.65 Q58.4 33.1 58.75 33.45 59.05 33.75 59.5 33.75 L60.3 33.4 60.6 32.6 60.5 30.4 60.45 30.1 59.95 29.4 59.6 29.25 59.95 28.95 60.2 28.15 60.2 27.75 60.2 27.7 60.0 25.9 Q60.0 25.45 59.65 25.15 59.4 24.95 59.1 24.9 L59.65 24.7 60.1 23.95 60.3 23.1 60.55 21.8 60.35 21.0 59.65 20.55 60.35 20.2 Q60.65 19.85 60.6 19.4 L60.5 17.2 60.1 16.4 Q59.8 16.15 59.45 16.15 L60.05 15.75 60.3 14.95 60.1 12.75 59.7 12.0 59.35 11.8 59.9 11.55 60.3 10.8 60.35 9.85 60.35 9.7 60.35 9.3 60.3 9.05 60.1 8.35 60.05 8.1 60.0 8.0 59.45 7.4 58.6 7.3 58.45 7.35 58.65 6.65 Q58.6 6.15 58.25 5.9 L57.4 5.25 57.05 5.05 56.55 4.85 55.95 4.65 55.9 4.65 55.1 4.85 54.8 5.15 Q54.9 4.7 54.65 4.3 L53.95 3.85 51.6 3.65 M36.15 4.15 L34.0 4.4 Q33.5 4.45 33.25 4.8 L33.0 5.3 32.7 4.85 Q32.35 4.55 31.9 4.55 L29.7 4.65 Q29.25 4.65 28.95 5.0 28.65 5.3 28.65 5.75 L28.35 5.0 Q28.0 4.65 27.55 4.65 L26.3 4.65 25.5 4.6 24.7 4.8 Q24.3 5.05 24.25 5.5 24.15 5.95 24.45 6.35 L25.15 6.8 26.3 6.85 27.55 6.85 28.35 6.55 28.65 5.8 Q28.65 6.25 29.0 6.55 29.3 6.85 29.8 6.85 L32.05 6.75 32.8 6.4 33.05 5.85 33.4 6.35 Q33.75 6.65 34.2 6.6 L36.45 6.35 37.2 5.9 37.4 5.15 37.7 5.75 38.5 6.05 40.7 6.05 41.5 5.75 41.8 4.95 41.5 4.15 Q41.15 3.85 40.7 3.85 L38.5 3.85 Q38.05 3.85 37.7 4.15 37.4 4.5 37.4 4.95 L37.4 5.05 36.95 4.35 36.15 4.15 M58.75 34.15 Q58.4 34.45 58.4 34.9 L58.4 36.15 58.35 37.05 Q58.3 37.5 58.6 37.85 L59.25 38.2 Q58.9 38.2 58.6 38.45 58.2 38.75 58.2 39.2 L57.95 41.45 Q57.95 41.9 58.25 42.25 L58.75 42.6 Q58.45 42.65 58.2 42.95 57.9 43.3 57.95 43.75 L58.4 45.9 58.75 46.6 Q59.05 46.9 59.5 46.9 59.05 46.9 58.75 47.25 58.4 47.55 58.4 48.0 L58.4 49.45 58.25 50.0 Q58.15 50.45 58.4 50.8 58.6 51.15 58.95 51.25 58.55 51.3 58.25 51.6 57.9 51.9 57.9 52.35 L57.9 52.55 57.9 52.7 58.15 54.7 Q58.2 55.15 58.55 55.45 L58.65 55.5 58.25 55.75 56.65 56.9 Q56.25 57.15 56.15 57.6 56.05 58.0 56.3 58.4 56.5 58.8 57.0 58.9 L57.8 58.75 59.65 57.45 60.05 56.65 Q60.1 56.2 59.8 55.85 L59.55 55.65 60.1 55.25 60.35 54.45 60.1 52.5 60.1 52.35 59.8 51.6 Q59.6 51.4 59.45 51.35 L59.95 51.15 60.4 50.5 60.55 49.9 60.6 49.6 60.6 48.0 60.3 47.25 Q59.95 46.9 59.5 46.9 L60.3 46.6 60.6 45.8 60.6 45.7 60.55 45.4 60.15 43.55 Q60.15 43.05 59.8 42.8 L59.4 42.6 59.8 42.35 60.15 41.6 60.35 39.45 60.15 38.65 Q59.85 38.3 59.45 38.25 L60.2 37.95 60.55 37.2 60.6 36.25 60.6 36.2 60.6 34.9 60.3 34.15 Q59.95 33.8 59.5 33.8 59.05 33.8 58.75 34.15 M35.75 57.9 L34.95 58.0 34.45 58.55 34.2 57.9 Q33.85 57.55 33.4 57.55 30.6 57.5 30.6 59.35 L30.35 58.85 Q30.1 58.5 29.65 58.4 L27.35 58.15 Q26.95 58.05 26.55 58.35 L26.15 58.95 25.9 58.45 Q25.55 58.1 25.1 58.1 L22.9 58.1 Q22.45 58.1 22.1 58.45 21.8 58.75 21.8 59.2 21.8 59.65 22.1 60.0 L22.9 60.3 25.1 60.3 25.9 60.0 26.15 59.5 26.4 59.9 27.1 60.3 29.35 60.6 30.15 60.4 30.55 59.7 30.9 60.4 Q31.2 60.7 31.7 60.7 L32.45 60.4 Q32.8 60.1 32.8 59.6 L33.35 59.75 34.15 59.45 34.4 59.05 34.55 59.55 35.25 60.05 37.35 60.6 38.2 60.55 38.75 59.9 38.8 59.75 39.1 60.4 Q39.4 60.7 39.85 60.7 L42.05 60.7 42.85 60.4 43.2 59.6 Q43.2 60.05 43.5 60.4 L44.3 60.7 44.35 60.7 44.6 60.7 46.3 60.35 47.0 60.25 47.45 59.85 47.75 60.4 Q48.05 60.7 48.5 60.7 L50.7 60.7 Q51.2 60.7 51.5 60.4 L51.85 59.6 Q51.85 60.05 52.15 60.4 L52.95 60.7 53.95 60.7 54.5 60.55 54.7 60.45 54.75 60.45 55.6 59.95 56.15 59.3 56.05 58.45 55.4 57.9 54.55 58.0 53.7 58.5 53.65 58.5 52.95 58.5 Q52.45 58.5 52.15 58.85 51.85 59.15 51.85 59.6 51.85 59.15 51.5 58.85 51.2 58.5 50.7 58.5 L48.5 58.5 Q48.05 58.5 47.75 58.85 L47.6 59.05 47.5 58.75 Q47.25 58.35 46.85 58.2 L46.25 58.1 46.05 58.15 44.25 58.5 Q43.8 58.5 43.5 58.85 43.2 59.15 43.2 59.6 43.2 59.15 42.85 58.85 42.55 58.5 42.05 58.5 L39.85 58.5 Q39.4 58.5 39.1 58.85 38.8 59.1 38.8 59.45 L38.65 59.05 38.0 58.5 35.75 57.9 M23.15 4.15 L20.85 4.2 Q20.4 4.2 20.05 4.55 19.75 4.9 19.8 5.35 19.8 5.8 20.15 6.1 L20.95 6.4 23.1 6.35 Q23.6 6.35 23.9 6.0 L24.25 5.25 23.95 4.5 Q23.6 4.15 23.15 4.15 M19.4 4.65 Q19.1 4.3 18.65 4.3 L16.7 4.0 15.85 4.05 Q15.45 4.3 15.3 4.7 15.15 5.15 15.35 5.55 L16.0 6.1 18.55 6.5 19.35 6.2 Q19.7 5.9 19.7 5.45 L19.4 4.65 M5.55 7.3 L4.75 9.15 Q4.55 9.55 4.75 10.0 4.9 10.4 5.3 10.6 L6.15 10.6 6.8 10.0 7.55 8.3 7.65 8.05 Q7.9 7.65 7.75 7.2 L7.45 6.7 7.95 6.8 8.7 6.4 8.85 6.3 10.0 5.95 10.15 5.9 10.85 5.4 10.95 5.05 11.2 5.35 Q11.5 5.65 11.95 5.65 L14.15 5.65 14.95 5.35 15.3 4.55 Q15.3 4.1 14.95 3.8 14.65 3.45 14.15 3.45 L11.95 3.45 Q11.5 3.45 11.2 3.8 10.95 4.0 10.9 4.35 L10.45 3.9 9.65 3.75 9.5 3.8 7.9 4.25 Q7.6 4.35 7.45 4.55 L7.05 4.95 Q6.75 5.25 6.8 5.75 6.8 6.2 7.15 6.5 L7.2 6.5 6.4 6.45 5.75 6.95 5.6 7.3 5.55 7.3 M5.9 11.0 Q5.6 10.65 5.15 10.6 4.7 10.55 4.35 10.85 4.0 11.1 3.95 11.55 L3.65 13.8 Q3.6 14.25 3.9 14.65 L4.5 15.05 3.95 15.35 Q3.65 15.65 3.65 16.1 L3.65 16.35 3.65 16.4 3.7 18.4 Q3.7 18.85 4.05 19.2 4.35 19.5 4.8 19.5 L5.6 19.2 5.9 18.4 5.85 16.25 5.85 16.1 Q5.85 15.65 5.5 15.35 L5.0 15.05 5.45 14.85 5.85 14.1 6.15 11.8 5.9 11.0 M4.6 19.55 Q4.15 19.55 3.85 19.85 3.5 20.2 3.5 20.65 L3.5 22.85 Q3.5 23.3 3.85 23.65 4.15 23.95 4.6 23.95 4.15 23.95 3.85 24.3 3.5 24.6 3.5 25.05 L3.5 25.7 3.65 26.25 3.95 27.1 3.95 27.25 Q3.95 27.7 4.3 28.0 4.6 28.35 5.05 28.35 4.6 28.35 4.35 28.7 4.0 29.0 4.0 29.45 L4.05 30.85 4.05 30.9 4.05 31.75 Q4.1 32.2 4.45 32.5 4.75 32.75 5.1 32.8 4.75 32.85 4.5 33.15 4.2 33.5 4.25 33.95 L4.35 35.05 4.45 36.15 Q4.5 36.6 4.85 36.9 L5.65 37.15 Q6.1 37.1 6.4 36.75 L6.65 35.95 6.55 34.85 6.55 34.8 6.45 33.8 6.05 33.05 5.4 32.75 6.0 32.45 6.3 31.65 6.25 30.85 6.2 29.4 5.9 28.65 Q5.55 28.35 5.1 28.35 L5.85 28.0 6.15 27.25 6.15 27.0 6.15 26.8 5.7 25.4 5.7 25.05 5.4 24.3 Q5.05 23.95 4.6 23.95 L5.4 23.65 5.7 22.85 5.7 20.65 5.4 19.85 4.6 19.55 M6.8 38.85 L6.8 38.8 6.8 38.3 6.5 37.5 Q6.15 37.2 5.7 37.2 5.25 37.2 4.9 37.5 4.6 37.85 4.6 38.3 L4.6 38.75 4.5 40.45 Q4.45 40.9 4.8 41.25 L5.5 41.6 Q5.1 41.6 4.75 41.9 4.4 42.15 4.4 42.65 L4.35 43.2 4.35 43.3 4.4 44.95 Q4.45 45.4 4.8 45.7 5.1 46.05 5.6 46.0 6.0 46.0 6.35 45.65 L6.65 44.9 6.55 43.3 6.6 42.8 Q6.65 42.3 6.3 42.0 6.0 41.65 5.55 41.6 L6.35 41.3 6.7 40.55 6.8 38.85 M6.35 46.25 L5.5 46.05 Q5.05 46.1 4.8 46.5 4.5 46.85 4.6 47.3 L4.65 47.8 4.65 47.85 4.9 49.55 Q4.95 50.05 5.3 50.3 5.65 50.6 6.1 50.55 6.55 50.5 6.85 50.1 L7.1 49.3 6.85 47.5 6.85 47.55 6.8 47.0 6.35 46.25 M4.5 54.05 Q4.55 54.5 4.9 54.8 5.25 55.1 5.7 55.05 L5.65 55.05 Q5.25 55.25 5.1 55.7 4.95 56.1 5.15 56.55 L6.35 58.45 7.0 58.85 7.1 58.85 7.95 58.75 8.45 58.05 8.35 57.25 7.9 56.85 7.15 55.55 6.5 55.0 6.1 54.95 6.45 54.65 6.7 53.85 6.7 53.6 6.9 52.15 6.9 52.05 6.95 51.85 6.75 51.0 Q6.5 50.65 6.05 50.6 L5.2 50.8 Q4.85 51.05 4.75 51.5 L4.75 51.75 4.75 51.7 Q4.45 52.95 4.45 53.6 L4.5 54.05 M8.45 58.9 L9.0 59.55 9.75 59.95 10.35 60.15 11.2 60.15 11.4 60.15 11.8 60.05 12.55 59.6 12.7 58.8 12.3 58.1 11.45 57.9 11.1 57.95 10.7 57.95 10.0 57.6 9.15 57.5 8.55 58.05 Q8.3 58.45 8.45 58.9 M15.4 57.5 L13.75 57.6 Q13.3 57.6 13.0 58.0 12.7 58.3 12.8 58.75 12.8 59.25 13.15 59.55 L13.95 59.8 15.4 59.7 16.2 59.7 Q16.65 59.7 17.0 59.4 L17.3 58.6 17.0 57.85 Q16.65 57.5 16.2 57.5 L15.4 57.5 M20.7 58.2 L20.5 58.15 20.45 58.15 18.55 57.7 Q18.15 57.65 17.75 57.9 L17.3 58.6 Q17.25 59.05 17.5 59.45 L18.25 59.9 19.8 60.25 19.75 60.25 20.15 60.35 20.5 60.4 20.65 60.4 21.45 60.1 21.75 59.3 21.45 58.55 Q21.15 58.2 20.7 58.2" fill="none" stroke="#9a9a9a" stroke-linecap="round" stroke-linejoin="round" stroke-width="3.0"/>
    <path d="M47.85 5.1 Q48.7 4.7 49.65 4.7 53.65 4.7 54.7 5.25 55.0 5.35 55.25 5.6 L55.95 5.75 56.7 6.1 57.65 6.8 Q58.6 7.6 59.0 8.45 L59.25 9.4 59.25 9.7 59.0 12.85 59.25 15.8 59.5 19.85 59.5 20.95 59.5 21.05 59.2 22.8 Q58.9 23.85 58.9 25.15 L59.1 27.85 59.35 30.5 59.5 33.25 59.5 34.4 59.5 36.2 59.25 39.3 59.0 42.7 Q59.0 44.15 59.5 45.7 L59.5 49.6 Q59.0 51.45 59.0 52.55 L59.35 56.2 Q58.45 57.1 57.05 57.9 L54.2 59.45 53.95 59.6 47.0 59.6 Q46.75 59.2 46.25 59.2 L44.35 59.6 37.85 59.6 34.8 58.8 Q31.75 58.25 31.7 59.6 L30.05 59.6 27.25 59.2 21.5 59.2 21.05 59.3 20.5 59.3 20.15 59.2 15.4 58.6 11.2 59.05 10.35 59.05 Q9.65 58.5 8.45 58.1 L7.25 57.75 Q5.6 55.6 5.6 53.6 L5.8 51.9 6.05 50.25 5.75 47.65 5.6 46.55 5.45 43.25 5.7 38.8 5.45 34.9 Q5.15 32.35 5.15 30.85 L5.05 27.0 4.6 25.7 4.6 20.6 Q4.9 19.1 4.75 16.35 L4.65 14.65 5.05 11.6 5.05 11.55 5.35 10.55 6.55 7.8 7.25 6.4 8.25 5.3 9.75 4.85 10.3 4.55 15.1 4.55 16.25 5.0 19.25 5.4 20.8 5.3 23.65 5.25 24.55 5.5 26.3 5.75 33.3 5.6 38.0 4.95 42.85 4.95 44.1 5.25 46.15 5.55 47.85 5.1" fill="#afafaf" fill-rule="evenodd" stroke="none"/>
    <path d="M20.7 58.2 Q21.15 58.2 21.45 58.55 L21.75 59.3 21.45 60.1 20.65 60.4 20.5 60.4 20.15 60.35 19.75 60.25 19.8 60.25 18.25 59.9 17.5 59.45 Q17.25 59.05 17.3 58.6 L17.75 57.9 Q18.15 57.65 18.55 57.7 L20.45 58.15 20.5 58.15 20.7 58.2 M15.4 57.5 L16.2 57.5 Q16.65 57.5 17.0 57.85 L17.3 58.6 17.0 59.4 Q16.65 59.7 16.2 59.7 L15.4 59.7 13.95 59.8 13.15 59.55 Q12.8 59.25 12.8 58.75 12.7 58.3 13.0 58.0 13.3 57.6 13.75 57.6 L15.4 57.5 M8.45 58.9 Q8.3 58.45 8.55 58.05 L9.15 57.5 10.0 57.6 10.7 57.95 11.1 57.95 11.45 57.9 12.3 58.1 12.7 58.8 12.55 59.6 11.8 60.05 11.4 60.15 11.2 60.15 10.35 60.15 9.75 59.95 9.0 59.55 8.45 58.9 M4.5 54.05 L4.45 53.6 Q4.45 52.95 4.75 51.7 L4.75 51.75 4.75 51.5 Q4.85 51.05 5.2 50.8 L6.05 50.6 Q6.5 50.65 6.75 51.0 L6.95 51.85 6.9 52.05 6.9 52.15 6.7 53.6 6.7 53.85 6.45 54.65 6.1 54.95 6.5 55.0 7.15 55.55 7.9 56.85 8.35 57.25 8.45 58.05 7.95 58.75 7.1 58.85 7.0 58.85 6.35 58.45 5.15 56.55 Q4.95 56.1 5.1 55.7 5.25 55.25 5.65 55.05 L5.7 55.05 Q5.25 55.1 4.9 54.8 4.55 54.5 4.5 54.05 M6.35 46.25 L6.8 47.0 6.85 47.55 6.85 47.5 7.1 49.3 6.85 50.1 Q6.55 50.5 6.1 50.55 5.65 50.6 5.3 50.3 4.95 50.05 4.9 49.55 L4.65 47.85 4.65 47.8 4.6 47.3 Q4.5 46.85 4.8 46.5 5.05 46.1 5.5 46.05 L6.35 46.25 M6.8 38.85 L6.7 40.55 6.35 41.3 5.55 41.6 Q6.0 41.65 6.3 42.0 6.65 42.3 6.6 42.8 L6.55 43.3 6.65 44.9 6.35 45.65 Q6.0 46.0 5.6 46.0 5.1 46.05 4.8 45.7 4.45 45.4 4.4 44.95 L4.35 43.3 4.35 43.2 4.4 42.65 Q4.4 42.15 4.75 41.9 5.1 41.6 5.5 41.6 L4.8 41.25 Q4.45 40.9 4.5 40.45 L4.6 38.75 4.6 38.3 Q4.6 37.85 4.9 37.5 5.25 37.2 5.7 37.2 6.15 37.2 6.5 37.5 L6.8 38.3 6.8 38.8 6.8 38.85 M4.6 19.55 L5.4 19.85 5.7 20.65 5.7 22.85 5.4 23.65 4.6 23.95 Q5.05 23.95 5.4 24.3 L5.7 25.05 5.7 25.4 6.15 26.8 6.15 27.0 6.15 27.25 5.85 28.0 5.1 28.35 Q5.55 28.35 5.9 28.65 L6.2 29.4 6.25 30.85 6.3 31.65 6.0 32.45 5.4 32.75 6.05 33.05 6.45 33.8 6.55 34.8 6.55 34.85 6.65 35.95 6.4 36.75 Q6.1 37.1 5.65 37.15 L4.85 36.9 Q4.5 36.6 4.45 36.15 L4.35 35.05 4.25 33.95 Q4.2 33.5 4.5 33.15 4.75 32.85 5.1 32.8 4.75 32.75 4.45 32.5 4.1 32.2 4.05 31.75 L4.05 30.9 4.05 30.85 4.0 29.45 Q4.0 29.0 4.35 28.7 4.6 28.35 5.05 28.35 4.6 28.35 4.3 28.0 3.95 27.7 3.95 27.25 L3.95 27.1 3.65 26.25 3.5 25.7 3.5 25.05 Q3.5 24.6 3.85 24.3 4.15 23.95 4.6 23.95 4.15 23.95 3.85 23.65 3.5 23.3 3.5 22.85 L3.5 20.65 Q3.5 20.2 3.85 19.85 4.15 19.55 4.6 19.55 M5.9 11.0 L6.15 11.8 5.85 14.1 5.45 14.85 5.0 15.05 5.5 15.35 Q5.85 15.65 5.85 16.1 L5.85 16.25 5.9 18.4 5.6 19.2 4.8 19.5 Q4.35 19.5 4.05 19.2 3.7 18.85 3.7 18.4 L3.65 16.4 3.65 16.35 3.65 16.1 Q3.65 15.65 3.95 15.35 L4.5 15.05 3.9 14.65 Q3.6 14.25 3.65 13.8 L3.95 11.55 Q4.0 11.1 4.35 10.85 4.7 10.55 5.15 10.6 5.6 10.65 5.9 11.0 M5.55 7.3 L5.6 7.3 5.75 6.95 6.4 6.45 7.2 6.5 7.15 6.5 Q6.8 6.2 6.8 5.75 6.75 5.25 7.05 4.95 L7.45 4.55 Q7.6 4.35 7.9 4.25 L9.5 3.8 9.65 3.75 10.45 3.9 10.9 4.35 Q10.95 4.0 11.2 3.8 11.5 3.45 11.95 3.45 L14.15 3.45 Q14.65 3.45 14.95 3.8 15.3 4.1 15.3 4.55 L14.95 5.35 14.15 5.65 11.95 5.65 Q11.5 5.65 11.2 5.35 L10.95 5.05 10.85 5.4 10.15 5.9 10.0 5.95 8.85 6.3 8.7 6.4 7.95 6.8 7.45 6.7 7.75 7.2 Q7.9 7.65 7.65 8.05 L7.55 8.3 6.8 10.0 6.15 10.6 5.3 10.6 Q4.9 10.4 4.75 10.0 4.55 9.55 4.75 9.15 L5.55 7.3 M19.4 4.65 L19.7 5.45 Q19.7 5.9 19.35 6.2 L18.55 6.5 16.0 6.1 15.35 5.55 Q15.15 5.15 15.3 4.7 15.45 4.3 15.85 4.05 L16.7 4.0 18.65 4.3 Q19.1 4.3 19.4 4.65 M23.15 4.15 Q23.6 4.15 23.95 4.5 L24.25 5.25 23.9 6.0 Q23.6 6.35 23.1 6.35 L20.95 6.4 20.15 6.1 Q19.8 5.8 19.8 5.35 19.75 4.9 20.05 4.55 20.4 4.2 20.85 4.2 L23.15 4.15 M35.75 57.9 L38.0 58.5 38.65 59.05 38.8 59.45 Q38.8 59.1 39.1 58.85 39.4 58.5 39.85 58.5 L42.05 58.5 Q42.55 58.5 42.85 58.85 43.2 59.15 43.2 59.6 43.2 59.15 43.5 58.85 43.8 58.5 44.25 58.5 L46.05 58.15 46.25 58.1 46.85 58.2 Q47.25 58.35 47.5 58.75 L47.6 59.05 47.75 58.85 Q48.05 58.5 48.5 58.5 L50.7 58.5 Q51.2 58.5 51.5 58.85 51.85 59.15 51.85 59.6 51.85 59.15 52.15 58.85 52.45 58.5 52.95 58.5 L53.65 58.5 53.7 58.5 54.55 58.0 55.4 57.9 56.05 58.45 56.15 59.3 55.6 59.95 54.75 60.45 54.7 60.45 54.5 60.55 53.95 60.7 52.95 60.7 52.15 60.4 Q51.85 60.05 51.85 59.6 L51.5 60.4 Q51.2 60.7 50.7 60.7 L48.5 60.7 Q48.05 60.7 47.75 60.4 L47.45 59.85 47.0 60.25 46.3 60.35 44.6 60.7 44.35 60.7 44.3 60.7 43.5 60.4 Q43.2 60.05 43.2 59.6 L42.85 60.4 42.05 60.7 39.85 60.7 Q39.4 60.7 39.1 60.4 L38.8 59.75 38.75 59.9 38.2 60.55 37.35 60.6 35.25 60.05 34.55 59.55 34.4 59.05 34.15 59.45 33.35 59.75 32.8 59.6 Q32.8 60.1 32.45 60.4 L31.7 60.7 Q31.2 60.7 30.9 60.4 L30.55 59.7 30.15 60.4 29.35 60.6 27.1 60.3 26.4 59.9 26.15 59.5 25.9 60.0 25.1 60.3 22.9 60.3 22.1 60.0 Q21.8 59.65 21.8 59.2 21.8 58.75 22.1 58.45 22.45 58.1 22.9 58.1 L25.1 58.1 Q25.55 58.1 25.9 58.45 L26.15 58.95 26.55 58.35 Q26.95 58.05 27.35 58.15 L29.65 58.4 Q30.1 58.5 30.35 58.85 L30.6 59.35 Q30.6 57.5 33.4 57.55 33.85 57.55 34.2 57.9 L34.45 58.55 34.95 58.0 35.75 57.9 M58.75 34.15 Q59.05 33.8 59.5 33.8 59.95 33.8 60.3 34.15 L60.6 34.9 60.6 36.2 60.6 36.25 60.55 37.2 60.2 37.95 59.45 38.25 Q59.85 38.3 60.15 38.65 L60.35 39.45 60.15 41.6 59.8 42.35 59.4 42.6 59.8 42.8 Q60.15 43.05 60.15 43.55 L60.55 45.4 60.6 45.7 60.6 45.8 60.3 46.6 59.5 46.9 Q59.95 46.9 60.3 47.25 L60.6 48.0 60.6 49.6 60.55 49.9 60.4 50.5 59.95 51.15 59.45 51.35 Q59.6 51.4 59.8 51.6 L60.1 52.35 60.1 52.5 60.35 54.45 60.1 55.25 59.55 55.65 59.8 55.85 Q60.1 56.2 60.05 56.65 L59.65 57.45 57.8 58.75 57.0 58.9 Q56.5 58.8 56.3 58.4 56.05 58.0 56.15 57.6 56.25 57.15 56.65 56.9 L58.25 55.75 58.65 55.5 58.55 55.45 Q58.2 55.15 58.15 54.7 L57.9 52.7 57.9 52.55 57.9 52.35 Q57.9 51.9 58.25 51.6 58.55 51.3 58.95 51.25 58.6 51.15 58.4 50.8 58.15 50.45 58.25 50.0 L58.4 49.45 58.4 48.0 Q58.4 47.55 58.75 47.25 59.05 46.9 59.5 46.9 59.05 46.9 58.75 46.6 L58.4 45.9 57.95 43.75 Q57.9 43.3 58.2 42.95 58.45 42.65 58.75 42.6 L58.25 42.25 Q57.95 41.9 57.95 41.45 L58.2 39.2 Q58.2 38.75 58.6 38.45 58.9 38.2 59.25 38.2 L58.6 37.85 Q58.3 37.5 58.35 37.05 L58.4 36.15 58.4 34.9 Q58.4 34.45 58.75 34.15 M36.15 4.15 L36.95 4.35 37.4 5.05 37.4 4.95 Q37.4 4.5 37.7 4.15 38.05 3.85 38.5 3.85 L40.7 3.85 Q41.15 3.85 41.5 4.15 L41.8 4.95 41.5 5.75 40.7 6.05 38.5 6.05 37.7 5.75 37.4 5.15 37.2 5.9 36.45 6.35 34.2 6.6 Q33.75 6.65 33.4 6.35 L33.05 5.85 32.8 6.4 32.05 6.75 29.8 6.85 Q29.3 6.85 29.0 6.55 28.65 6.25 28.65 5.8 L28.35 6.55 27.55 6.85 26.3 6.85 25.15 6.8 24.45 6.35 Q24.15 5.95 24.25 5.5 24.3 5.05 24.7 4.8 L25.5 4.6 26.3 4.65 27.55 4.65 Q28.0 4.65 28.35 5.0 L28.65 5.75 Q28.65 5.3 28.95 5.0 29.25 4.65 29.7 4.65 L31.9 4.55 Q32.35 4.55 32.7 4.85 L33.0 5.3 33.25 4.8 Q33.5 4.45 34.0 4.4 L36.15 4.15 M51.6 3.65 L53.95 3.85 54.65 4.3 Q54.9 4.7 54.8 5.15 L55.1 4.85 55.9 4.65 55.95 4.65 56.55 4.85 57.05 5.05 57.4 5.25 58.25 5.9 Q58.6 6.15 58.65 6.65 L58.45 7.35 58.6 7.3 59.45 7.4 60.0 8.0 60.05 8.1 60.1 8.35 60.3 9.05 60.35 9.3 60.35 9.7 60.35 9.85 60.3 10.8 59.9 11.55 59.35 11.8 59.7 12.0 60.1 12.75 60.3 14.95 60.05 15.75 59.45 16.15 Q59.8 16.15 60.1 16.4 L60.5 17.2 60.6 19.4 Q60.65 19.85 60.35 20.2 L59.65 20.55 60.35 21.0 60.55 21.8 60.3 23.1 60.1 23.95 59.65 24.7 59.1 24.9 Q59.4 24.95 59.65 25.15 60.0 25.45 60.0 25.9 L60.2 27.7 60.2 27.75 60.2 28.15 59.95 28.95 59.6 29.25 59.95 29.4 60.45 30.1 60.5 30.4 60.6 32.6 60.3 33.4 59.5 33.75 Q59.05 33.75 58.75 33.45 58.4 33.1 58.4 32.65 L58.25 30.6 58.25 30.55 Q58.2 30.1 58.45 29.75 58.6 29.45 58.9 29.3 L58.4 29.1 Q58.05 28.8 58.0 28.35 L58.0 27.95 57.8 26.05 Q57.75 25.6 58.1 25.3 58.4 24.95 58.8 24.9 L58.1 24.45 Q57.85 24.1 57.9 23.65 L58.15 22.5 58.35 21.5 Q58.4 21.05 58.8 20.75 L59.3 20.55 58.75 20.3 Q58.4 20.0 58.4 19.5 L58.25 17.3 Q58.25 16.85 58.55 16.5 58.8 16.2 59.15 16.15 L58.45 15.9 Q58.1 15.6 58.1 15.15 L57.9 12.95 Q57.85 12.45 58.15 12.15 58.45 11.8 58.85 11.75 L58.35 11.4 Q58.05 11.05 58.05 10.6 L58.15 9.7 58.2 9.65 58.15 9.6 57.95 8.85 57.95 8.8 57.9 8.7 Q57.75 8.25 58.0 7.85 L58.05 7.75 57.7 7.85 56.85 7.65 56.2 7.1 55.65 6.85 55.55 6.85 54.85 6.4 Q54.55 6.0 54.65 5.55 L54.35 5.85 53.55 6.0 51.5 5.85 Q51.05 5.8 50.7 5.5 L50.45 4.9 50.2 5.45 Q49.9 5.8 49.45 5.8 L48.3 6.1 48.35 6.1 47.6 6.45 46.75 6.35 46.2 5.7 45.75 6.35 44.95 6.55 43.85 6.35 43.8 6.3 42.65 6.0 41.95 5.5 Q41.75 5.1 41.85 4.7 41.95 4.25 42.35 4.0 L43.2 3.9 44.35 4.2 45.3 4.35 Q45.75 4.4 46.0 4.8 L46.2 5.1 46.25 4.85 46.9 4.3 47.35 4.15 47.4 4.15 Q48.3 3.7 49.25 3.6 49.7 3.6 50.05 3.9 L50.45 4.55 Q50.5 4.2 50.8 3.95 51.15 3.6 51.6 3.65" fill="#cdcdcd" fill-rule="evenodd" stroke="none"/>
  </g>
</svg>
