<?xml version="1.0" encoding="UTF-8" standalone="no"?>
<svg xmlns:xlink="http://www.w3.org/1999/xlink" height="37.7px" width="22.15px" xmlns="http://www.w3.org/2000/svg">
  <g transform="matrix(1.0, 0.0, 0.0, 1.0, -1.2, 23.55)">
    <path d="M13.4 -22.35 L13.5 -22.35 13.6 -22.25 13.75 -22.1 14.05 -21.8 14.2 -21.55 14.9 -20.25 15.05 -19.4 15.1 -19.25 15.6 -16.7 15.6 -16.6 15.9 -14.05 Q16.1 -9.65 15.95 -5.15 L16.85 -5.3 17.25 -5.4 17.65 -5.65 Q18.4 -6.05 18.95 -6.85 19.75 -7.85 19.65 -9.15 L19.6 -9.45 19.6 -9.75 Q19.5 -10.4 19.7 -10.85 L19.7 -10.95 20.1 -11.45 20.6 -11.75 21.05 -11.9 21.1 -11.9 21.2 -11.95 21.3 -11.95 21.4 -11.95 21.5 -11.95 21.7 -11.75 22.3 -10.8 22.45 -10.1 22.55 -9.6 22.5 -6.75 22.45 -6.3 22.1 -5.05 22.0 -4.85 21.6 -4.1 21.55 -4.05 21.45 -3.85 21.05 -3.35 21.1 -3.45 21.05 -3.4 20.6 -2.85 20.55 -2.8 20.45 -2.7 20.35 -2.6 19.4 -2.1 19.25 -2.0 19.1 -1.95 17.5 -1.4 17.0 -1.3 16.95 -1.3 16.5 -1.3 16.1 -1.3 16.05 -1.3 15.85 -1.3 15.8 1.5 15.85 2.5 16.0 5.15 16.0 6.2 15.95 7.8 15.5 10.05 15.35 10.65 14.4 12.35 13.6 13.3 13.45 13.3 13.4 13.3 13.3 13.4 13.2 13.4 12.15 13.4 11.6 13.3 11.55 13.3 Q10.2 12.95 9.55 12.0 L9.55 12.05 9.45 11.9 9.4 11.8 9.35 11.7 Q8.95 10.9 9.0 9.75 L8.7 7.2 Q8.6 5.25 8.85 3.45 L8.9 3.3 9.05 -4.55 9.1 -8.5 9.15 -9.1 9.15 -9.35 9.15 -9.45 9.1 -9.4 8.9 -9.35 6.35 -9.4 Q1.75 -10.6 1.95 -15.3 2.0 -16.95 2.8 -18.3 L2.9 -18.4 2.9 -18.45 3.1 -18.6 3.85 -19.2 4.55 -19.0 4.6 -19.0 Q6.1 -18.3 5.75 -16.0 5.5 -14.4 6.7 -13.35 L7.65 -12.6 8.8 -12.6 9.35 -12.6 9.35 -12.65 9.4 -13.25 10.5 -21.3 Q10.65 -22.0 11.1 -22.3 11.35 -22.65 11.8 -22.8 L12.7 -22.65 12.9 -22.6 13.05 -22.55 13.1 -22.6 13.4 -22.35 Z" fill="none" stroke="#2e5a01" stroke-linecap="round" stroke-linejoin="round" stroke-width="1.5"/>
    <path d="M9.35 -12.65 L9.4 -12.65 Q9.55 -12.55 9.75 -12.55 L9.95 -12.6 10.05 -12.65 10.3 -13.25 Q10.8 -14.85 10.8 -16.55 L10.9 -19.85 10.95 -20.0 11.35 -21.0 11.45 -21.2 11.6 -21.3 11.95 -21.65 Q11.75 -19.0 11.95 -16.15 L12.15 -13.45 12.05 -21.7 12.8 -22.4 13.05 -22.5 13.05 -22.55 13.1 -22.6 13.4 -22.35 13.5 -22.35 13.6 -22.25 13.75 -22.1 14.05 -21.8 14.2 -21.55 14.9 -20.25 15.05 -19.4 15.1 -19.25 15.6 -16.7 15.6 -16.6 15.9 -14.05 Q16.1 -9.65 15.95 -5.15 L16.85 -5.3 17.25 -5.4 Q17.7 -5.4 18.3 -5.8 19.4 -6.55 19.8 -7.75 20.3 -8.95 20.15 -10.2 20.1 -11.1 20.6 -11.75 L21.05 -11.9 21.1 -11.9 21.2 -11.95 21.3 -11.95 Q20.9 -11.7 20.95 -11.1 L20.95 -9.5 20.55 -7.75 Q20.25 -6.85 19.55 -6.15 L19.5 -6.05 18.2 -4.9 Q17.05 -4.2 15.75 -3.95 L17.55 -4.25 Q18.95 -4.95 19.9 -6.2 20.8 -7.5 21.0 -8.95 L21.25 -11.75 21.3 -11.8 21.4 -11.85 21.45 -11.9 21.5 -11.95 21.7 -11.75 21.85 -11.6 21.75 -10.75 21.5 -8.15 Q21.3 -6.9 20.55 -5.8 18.9 -3.3 15.85 -2.65 L15.85 -2.6 16.1 -2.55 18.35 -3.4 Q20.0 -4.1 20.75 -5.65 21.6 -7.15 21.75 -8.9 L22.0 -11.45 22.25 -10.95 22.2 -9.8 22.2 -7.5 Q22.05 -5.7 20.9 -4.35 19.7 -3.05 18.25 -2.3 L18.0 -2.3 Q16.85 -2.15 16.0 -1.65 L15.95 -1.65 15.85 -1.55 15.85 -1.45 Q15.8 -1.35 15.9 -1.35 L16.05 -1.3 15.85 -1.3 15.8 1.5 15.85 2.5 16.0 5.15 16.0 6.2 15.95 7.8 15.5 10.05 15.35 10.65 14.4 12.35 13.6 13.3 13.45 13.3 13.4 13.3 13.3 13.05 13.4 12.75 13.45 12.4 13.3 12.05 13.45 12.0 13.7 8.1 14.1 -2.35 14.1 -3.95 14.15 -5.75 14.1 -11.3 Q13.95 -14.1 13.45 -16.75 L13.1 -22.05 13.05 -22.1 Q13.0 -19.2 13.45 -16.2 L13.55 -15.35 13.55 -15.6 13.8 -13.0 14.1 -7.5 14.1 -4.75 14.1 -4.35 13.9 -1.85 Q13.55 0.9 13.65 3.5 L13.95 0.65 13.7 4.85 13.25 12.1 13.2 12.25 13.2 12.65 13.15 13.05 13.2 13.4 12.15 13.4 11.6 13.3 11.55 13.25 11.9 6.9 12.05 3.0 12.45 -0.35 12.6 -5.65 12.5 -10.8 12.2 -16.0 Q12.05 -14.4 12.25 -12.55 12.5 -9.95 12.35 -7.25 12.2 -4.7 12.2 -2.0 L12.05 2.7 12.15 0.0 11.9 3.6 11.55 13.25 Q10.7 11.9 10.3 10.3 10.0 8.9 9.85 7.45 L10.75 0.95 Q11.15 -2.5 11.0 -6.1 L10.45 -13.15 10.6 -10.6 10.4 -10.75 10.1 -10.55 10.05 -10.55 10.05 -10.6 10.15 -12.05 9.65 -11.6 10.0 -11.85 10.05 -11.75 10.0 -10.55 8.25 -10.45 Q5.8 -10.3 4.1 -11.95 2.55 -13.4 2.75 -15.4 2.95 -17.25 3.65 -18.95 L3.55 -19.05 3.85 -19.2 4.55 -19.0 4.25 -18.25 Q4.0 -17.25 4.05 -16.05 4.1 -14.75 4.6 -13.7 4.2 -14.85 4.25 -16.15 4.25 -17.85 4.6 -19.0 6.1 -18.3 5.75 -16.0 5.5 -14.4 6.7 -13.35 L7.65 -12.6 8.8 -12.6 9.35 -12.6 9.35 -12.65 M19.65 -9.15 L19.6 -9.45 19.6 -9.75 Q19.5 -10.4 19.7 -10.85 L19.7 -10.75 19.65 -9.15 M22.45 -6.3 L22.1 -5.05 21.7 -4.55 Q22.25 -5.35 22.45 -6.3 M20.5 -2.75 L20.45 -2.7 20.35 -2.6 20.5 -2.75 M9.85 -8.75 L9.85 -8.9 9.85 -9.0 10.3 -9.5 10.65 -9.95 10.75 -8.45 10.85 -1.5 Q10.7 2.2 9.9 5.75 L9.8 6.35 9.8 3.7 10.0 -2.9 9.85 -8.75 M7.15 -11.35 L6.4 -11.55 9.1 -11.4 7.15 -11.35 M15.35 10.65 L15.45 4.9 15.6 -3.95 15.55 -12.7 Q15.5 -17.15 14.35 -21.2 L14.5 -19.95 Q15.35 -15.65 15.4 -11.1 L15.4 -2.25 15.15 6.45 Q15.1 8.7 15.35 10.65" fill="#55a901" fill-rule="evenodd" stroke="none"/>
    <path d="M9.35 -12.65 L9.4 -13.25 10.5 -21.3 Q10.65 -22.0 11.1 -22.3 11.35 -22.65 11.8 -22.8 L12.7 -22.65 12.9 -22.6 13.05 -22.55 13.05 -22.5 12.8 -22.4 12.05 -21.7 12.15 -13.45 11.95 -16.15 Q11.75 -19.0 11.95 -21.65 L11.6 -21.3 11.45 -21.2 11.35 -21.0 10.95 -20.0 10.9 -19.85 10.8 -16.55 Q10.8 -14.85 10.3 -13.25 L10.05 -12.65 9.95 -12.6 9.75 -12.55 Q9.55 -12.55 9.4 -12.65 L9.35 -12.65 M17.25 -5.4 L17.65 -5.65 Q18.4 -6.05 18.95 -6.85 19.75 -7.85 19.65 -9.15 L19.7 -10.75 19.7 -10.85 19.7 -10.95 20.1 -11.45 20.6 -11.75 Q20.1 -11.1 20.15 -10.2 20.3 -8.95 19.8 -7.75 19.4 -6.55 18.3 -5.8 17.7 -5.4 17.25 -5.4 M21.3 -11.95 L21.4 -11.95 21.5 -11.95 21.45 -11.9 21.4 -11.85 21.3 -11.8 21.25 -11.75 21.0 -8.95 Q20.8 -7.5 19.9 -6.2 18.95 -4.95 17.55 -4.25 L15.75 -3.95 Q17.05 -4.2 18.2 -4.9 L19.5 -6.05 19.55 -6.15 Q20.25 -6.85 20.55 -7.75 L20.95 -9.5 20.95 -11.1 Q20.9 -11.7 21.3 -11.95 M21.85 -11.6 L21.85 -11.65 22.0 -11.5 22.0 -11.45 21.75 -8.9 Q21.6 -7.15 20.75 -5.65 20.0 -4.1 18.35 -3.4 L16.1 -2.55 15.85 -2.6 15.85 -2.65 Q18.9 -3.3 20.55 -5.8 21.3 -6.9 21.5 -8.15 L21.75 -10.75 21.85 -11.6 M22.25 -10.95 L22.3 -10.8 22.45 -10.1 22.55 -9.6 22.5 -6.75 22.45 -6.3 Q22.25 -5.35 21.7 -4.55 L22.1 -5.05 22.0 -4.85 21.6 -4.1 21.55 -4.05 21.45 -3.85 21.05 -3.35 21.1 -3.45 21.05 -3.4 20.6 -2.85 20.55 -2.8 20.5 -2.75 20.35 -2.6 19.4 -2.1 19.25 -2.0 19.1 -1.95 17.5 -1.4 17.0 -1.3 16.95 -1.3 16.5 -1.3 16.1 -1.3 16.05 -1.3 15.9 -1.35 Q15.8 -1.35 15.85 -1.45 L15.85 -1.55 15.95 -1.65 16.0 -1.65 Q16.85 -2.15 18.0 -2.3 L18.25 -2.3 Q19.7 -3.05 20.9 -4.35 22.05 -5.7 22.2 -7.5 L22.2 -9.8 22.25 -10.95 M13.4 13.3 L13.3 13.4 13.2 13.4 13.15 13.05 13.2 12.65 13.2 12.25 13.25 12.1 13.7 4.85 13.95 0.65 13.65 3.5 Q13.55 0.9 13.9 -1.85 L14.1 -4.35 14.1 -4.75 14.1 -7.5 13.8 -13.0 13.55 -15.6 13.55 -15.35 13.45 -16.2 Q13.0 -19.2 13.05 -22.1 L13.1 -22.05 13.45 -16.75 Q13.95 -14.1 14.1 -11.3 L14.15 -5.75 14.1 -3.95 14.1 -2.35 13.7 8.1 13.45 12.0 13.3 12.05 13.45 12.4 13.4 12.75 13.3 13.05 13.4 13.3 M11.6 13.3 L11.55 13.3 Q10.2 12.95 9.55 12.0 L9.55 12.05 9.45 11.9 9.4 11.8 9.35 11.7 Q8.95 10.9 9.0 9.75 L8.7 7.2 Q8.6 5.25 8.85 3.45 L8.9 3.3 9.05 -4.55 9.1 -8.5 9.15 -9.1 9.15 -9.35 9.15 -9.45 9.1 -9.4 8.9 -9.35 6.35 -9.4 Q1.75 -10.6 1.95 -15.3 2.0 -16.95 2.8 -18.3 L2.9 -18.4 2.9 -18.45 3.1 -18.6 3.15 -18.65 3.2 -18.7 3.4 -18.9 3.55 -19.05 3.65 -18.95 Q2.95 -17.25 2.75 -15.4 2.55 -13.4 4.1 -11.95 5.8 -10.3 8.25 -10.45 L10.0 -10.55 10.05 -11.75 10.0 -11.85 9.65 -11.6 10.15 -12.05 10.05 -10.6 10.05 -10.55 10.1 -10.55 10.4 -10.75 10.6 -10.6 10.45 -13.15 11.0 -6.1 Q11.15 -2.5 10.75 0.95 L9.85 7.45 Q10.0 8.9 10.3 10.3 10.7 11.9 11.55 13.25 L11.9 3.6 12.15 0.0 12.05 2.7 12.2 -2.0 Q12.2 -4.7 12.35 -7.25 12.5 -9.95 12.25 -12.55 12.05 -14.4 12.2 -16.0 L12.5 -10.8 12.6 -5.65 12.45 -0.35 12.05 3.0 11.9 6.9 11.55 13.25 11.6 13.3 M4.55 -19.0 L4.6 -19.0 Q4.25 -17.85 4.25 -16.15 4.2 -14.85 4.6 -13.7 4.1 -14.75 4.05 -16.05 4.0 -17.25 4.25 -18.25 L4.55 -19.0 M15.35 10.65 Q15.1 8.7 15.15 6.45 L15.4 -2.25 15.4 -11.1 Q15.35 -15.65 14.5 -19.95 L14.35 -21.2 Q15.5 -17.15 15.55 -12.7 L15.6 -3.95 15.45 4.9 15.35 10.65 M7.15 -11.35 L9.1 -11.4 6.4 -11.55 7.15 -11.35 M9.85 -8.75 L10.0 -2.9 9.8 3.7 9.8 6.35 9.9 5.75 Q10.7 2.2 10.85 -1.5 L10.75 -8.45 10.65 -9.95 10.3 -9.5 9.85 -9.0 9.85 -8.9 9.85 -8.75 M19.7 -8.05 L19.7 -7.95 19.7 -8.0 19.7 -8.05" fill="#418101" fill-rule="evenodd" stroke="none"/>
  </g>
</svg>
