<?xml version="1.0" encoding="UTF-8" standalone="no"?>
<svg xmlns:xlink="http://www.w3.org/1999/xlink" height="37.4px" width="31.85px" xmlns="http://www.w3.org/2000/svg">
  <g transform="matrix(1.0, 0.0, 0.0, 1.0, 0.1, 0.05)">
    <path d="M17.0 -0.05 L25.6 0.0 31.05 0.0 31.5 0.0 31.55 0.05 31.65 0.15 31.65 0.25 31.75 0.3 31.75 0.4 31.7 0.5 31.6 0.6 31.55 0.6 31.45 0.6 31.25 0.65 31.15 0.65 31.05 0.75 30.9 0.8 30.7 0.85 30.9 0.95 31.05 1.0 31.25 1.15 31.6 1.5 31.7 1.7 31.65 1.85 31.6 1.9 31.3 2.0 31.05 2.0 30.9 2.0 30.45 1.95 30.05 1.8 30.0 1.75 30.0 1.85 29.95 2.1 29.95 2.25 29.65 2.4 29.25 2.45 28.8 2.4 28.4 2.2 28.35 2.15 28.35 2.4 28.3 2.8 28.05 2.95 27.65 3.0 27.25 2.95 26.9 2.8 26.25 3.15 25.7 3.05 25.4 3.2 25.45 3.25 25.45 3.4 25.4 3.55 25.25 3.65 25.0 3.75 24.7 3.7 24.9 3.8 25.45 4.25 25.7 4.75 25.7 5.0 25.65 5.15 25.5 5.25 25.05 5.25 24.55 5.15 24.1 5.05 23.9 5.0 23.9 5.05 23.9 5.15 23.9 5.95 23.85 6.05 23.75 6.1 23.55 6.15 23.3 6.15 23.1 6.15 Q23.05 7.15 22.1 7.15 21.15 7.1 20.95 6.1 L20.8 6.1 20.7 6.1 Q20.85 6.75 20.4 7.15 L20.15 7.3 20.1 7.25 19.95 7.2 19.75 7.05 19.45 6.95 19.35 6.9 19.25 6.95 19.1 6.95 19.15 7.0 19.6 7.2 19.75 7.3 19.8 7.3 20.15 7.6 20.45 8.15 20.2 8.45 19.75 8.55 19.7 8.55 19.25 8.55 18.75 8.45 18.25 8.35 18.25 8.4 18.15 9.25 18.1 9.4 18.05 9.45 18.0 9.5 17.9 9.55 17.7 9.6 17.4 9.55 17.35 9.55 17.3 9.5 17.25 9.7 Q17.55 10.7 17.15 11.5 L16.5 11.4 15.85 10.75 15.15 9.7 15.25 10.0 15.2 10.4 15.0 10.75 14.65 10.85 14.3 10.75 14.25 10.75 Q14.3 11.3 13.9 11.65 L13.35 11.8 13.2 11.8 13.0 11.8 12.95 11.8 12.9 12.05 12.9 12.2 12.85 12.3 12.75 12.35 12.7 12.35 12.6 12.4 12.5 12.4 12.3 12.4 12.1 12.4 12.1 12.45 12.0 12.6 11.75 12.95 11.6 13.05 12.05 13.1 13.25 13.4 14.0 13.95 14.15 14.25 14.1 14.35 14.05 14.5 14.05 14.55 13.45 14.65 12.65 14.7 11.9 14.7 11.15 14.7 12.2 15.95 Q12.95 17.25 11.65 16.95 11.05 16.8 10.55 16.45 10.4 16.4 10.55 16.6 L10.75 17.25 10.7 17.55 10.45 17.7 10.05 17.75 9.65 17.6 9.3 17.3 Q9.35 18.15 8.9 18.9 8.65 19.3 8.2 19.15 L8.15 19.1 Q7.5 18.25 7.15 17.25 L7.05 17.35 7.0 17.5 6.9 17.6 6.85 17.6 6.8 17.7 6.85 17.75 6.9 17.85 7.05 17.95 7.15 18.05 7.2 18.15 7.2 18.25 7.15 18.5 7.05 18.65 6.85 18.75 6.7 18.85 6.6 18.9 6.65 19.55 6.3 20.05 6.1 20.15 5.95 20.15 5.8 20.2 5.4 20.55 5.0 20.65 4.95 20.75 5.9 20.7 6.85 20.85 7.6 21.2 7.7 21.3 7.75 21.35 7.75 21.4 7.75 21.5 7.8 21.5 7.8 21.55 7.75 21.7 7.35 21.95 6.8 22.05 6.2 22.1 5.6 22.1 5.55 22.1 5.85 22.45 6.45 22.8 6.85 23.45 6.75 23.75 6.55 23.75 6.25 23.8 6.0 23.8 5.9 23.8 5.7 23.8 5.4 23.8 5.65 24.2 6.05 24.95 6.0 25.5 4.7 25.4 3.4 24.35 3.3 24.55 3.2 24.85 3.35 25.0 3.9 26.0 4.0 26.6 3.95 26.75 3.9 26.85 3.85 26.9 3.65 26.95 3.35 26.9 3.05 26.75 2.75 26.55 2.65 26.5 2.6 26.7 2.6 26.9 2.6 27.05 2.4 27.25 2.45 27.25 2.95 27.25 3.8 27.25 4.6 27.45 4.75 27.7 4.75 27.8 4.7 27.95 4.55 28.1 4.2 28.25 3.85 28.35 3.5 28.45 3.4 28.45 3.65 28.65 4.05 29.0 4.4 29.35 4.45 29.75 4.35 29.9 4.15 29.95 3.95 29.95 3.7 29.95 3.45 29.95 3.4 29.95 3.55 30.25 4.05 30.85 4.1 31.55 3.15 31.6 2.05 30.7 1.5 30.2 1.45 30.3 1.5 30.3 1.8 30.55 1.95 30.75 2.0 30.85 2.05 31.0 2.05 31.45 2.05 31.6 1.95 31.65 1.9 31.7 1.85 31.75 1.75 31.75 1.6 31.75 1.5 31.75 1.45 32.35 1.35 32.4 1.05 32.6 0.85 32.6 0.8 32.8 0.85 32.8 1.7 33.05 2.55 33.35 3.15 34.0 3.1 34.15 3.1 34.3 Q2.75 34.6 2.3 34.5 L1.4 34.15 0.85 33.85 1.15 34.3 1.4 34.8 1.5 35.1 1.5 35.25 1.45 35.35 1.4 35.45 1.05 35.5 0.5 35.1 0.35 34.9 -0.05 37.35 0.0 33.1 0.0 31.85 0.05 0.45 -0.1 0.4 -0.1 0.3 -0.1 0.15 -0.05 0.05 0.05 0.0 0.4 -0.05 0.9 0.0 8.45 -0.05 17.0 -0.05 M28.75 1.6 L28.9 1.65 28.85 1.6 28.75 1.6 M13.4 11.05 L13.4 10.95 13.3 11.05 13.4 11.05 M9.2 16.3 L9.3 16.35 9.15 16.2 9.2 16.3 M5.95 19.1 L5.9 19.05 5.85 19.1 5.95 19.1 M2.4 30.05 L2.45 30.1 2.5 30.15 2.55 30.25 2.7 30.35 2.7 30.3 2.6 30.25 2.55 30.2 2.5 30.1 2.4 30.0 2.4 30.05 M2.9 30.5 L2.95 30.65 3.05 30.7 3.05 30.65 2.95 30.55 2.9 30.5" fill="#55a901" fill-rule="evenodd" stroke="none"/>
  </g>
</svg>
