<?xml version="1.0" encoding="UTF-8" standalone="no"?>
<svg xmlns:xlink="http://www.w3.org/1999/xlink" height="25.15px" width="45.8px" xmlns="http://www.w3.org/2000/svg">
  <g transform="matrix(1.0, 0.0, 0.0, 1.0, -7.05, -19.75)">
    <path d="M25.95 19.75 L25.9 19.85 25.75 19.8 25.95 19.75" fill="#000000" fill-opacity="0.12156863" fill-rule="evenodd" stroke="none"/>
    <path d="M48.9 41.7 L48.85 41.65 48.15 41.7 47.1 41.45 46.25 41.0 46.25 40.9 35.5 40.9 35.35 40.85 35.1 40.85 33.6 40.9 31.95 40.9 31.75 40.9 31.55 40.9 30.75 41.7 29.5 42.95 Q28.5 43.85 28.7 42.5 28.85 41.6 29.55 40.95 L29.55 40.9 14.15 40.9 12.4 42.45 11.15 43.25 Q9.9 43.65 10.45 42.5 L11.0 41.3 11.2 40.9 10.5 40.9 10.5 31.5 10.4 31.5 10.3 31.5 10.15 31.4 9.9 30.3 9.85 30.3 9.75 30.15 9.65 30.0 9.5 29.75 9.4 29.65 9.15 29.65 8.7 29.5 8.65 28.8 Q8.4 26.7 7.05 25.6 L7.05 25.25 7.1 25.2 Q7.5 24.85 8.0 24.65 L8.85 23.95 10.3 23.75 11.65 23.9 12.25 24.35 13.3 25.15 Q13.8 25.55 13.95 26.05 L16.85 26.05 16.65 25.75 Q16.3 25.35 16.3 24.95 16.35 24.6 16.65 24.6 L17.35 25.1 17.8 26.0 17.85 26.05 24.25 26.05 Q24.6 28.0 25.6 26.3 L25.75 26.05 35.3 26.05 35.25 25.95 35.0 25.65 34.75 25.5 34.65 25.6 34.55 25.65 34.45 25.65 34.4 25.7 34.3 25.65 34.25 25.65 34.1 25.35 34.1 25.2 34.1 25.05 34.1 25.0 34.3 25.0 35.3 25.05 35.65 25.05 36.3 26.05 38.35 26.05 Q38.8 27.85 39.6 26.2 L39.7 26.05 51.95 26.05 51.95 40.35 52.2 41.05 52.85 42.55 Q52.4 42.9 52.1 43.5 L52.05 43.65 52.0 43.6 51.7 43.4 51.7 43.55 51.6 43.65 51.55 43.75 51.55 43.85 51.55 43.95 51.6 44.05 51.75 44.35 51.75 44.45 51.6 44.75 51.45 44.85 51.35 44.9 50.45 44.1 49.6 42.95 48.9 41.7 M11.0 26.05 L12.0 26.05 11.75 25.9 10.95 25.3 11.0 26.05" fill="#000000" fill-opacity="0.2509804" fill-rule="evenodd" stroke="none"/>
  </g>
</svg>
