<?xml version="1.0" encoding="UTF-8" standalone="no"?>
<svg xmlns:xlink="http://www.w3.org/1999/xlink" height="25.95px" width="13.85px" xmlns="http://www.w3.org/2000/svg">
  <g transform="matrix(1.0, 0.0, 0.0, 1.0, 7.15, 12.45)">
    <path d="M1.4 -12.4 Q4.15 -12.8 5.65 -7.7 6.7 -4.3 6.7 0.45 6.7 5.25 5.65 8.65 L5.65 8.7 Q4.3 13.3 2.0 13.3 L1.85 13.35 -0.5 13.45 -1.85 13.35 Q-4.45 13.85 -6.1 8.7 -7.15 5.3 -7.15 0.45 -7.15 -4.35 -6.1 -7.7 -4.45 -12.85 -1.85 -12.4 L-0.4 -12.4 1.1 -12.35 1.4 -12.4" fill="#423200" fill-rule="evenodd" stroke="none"/>
    <path d="M1.15 -9.75 L1.35 -9.8 Q2.6 -9.8 3.5 -6.8 4.4 -3.8 4.4 0.45 4.4 4.7 3.5 7.7 2.65 10.5 1.55 10.7 L1.35 10.7 Q0.05 10.7 -0.85 7.7 -1.75 4.7 -1.75 0.45 -1.75 -3.8 -0.85 -6.8 0.0 -9.55 1.15 -9.75 M3.0 -5.05 Q2.3 -7.3 1.35 -7.3 0.35 -7.3 -0.3 -5.05 -1.0 -2.75 -1.0 0.45 -1.0 3.65 -0.3 6.0 0.35 8.2 1.35 8.2 2.3 8.2 3.0 6.0 3.6 3.65 3.6 0.45 3.6 -2.75 3.0 -5.05" fill="url(#gradient0)" fill-rule="evenodd" stroke="none"/>
    <path d="M1.2 -6.35 L1.15 -6.6 1.0 -6.6 0.85 -6.45 0.8 -6.05 0.85 -5.3 Q0.55 -4.8 0.4 -3.95 L0.3 -2.3 Q0.35 -1.5 0.55 -0.8 L0.95 0.4 1.35 1.55 1.6 2.6 1.55 3.4 1.35 3.8 1.2 3.8 1.15 3.6 1.0 3.15 0.95 2.55 0.85 2.0 0.75 2.0 Q0.55 2.05 0.5 2.8 L0.4 4.15 0.8 6.05 Q1.05 6.75 1.5 6.6 L1.55 7.45 1.65 7.75 1.8 7.55 1.85 7.15 1.85 6.3 2.3 5.1 2.4 4.0 2.4 2.3 2.15 0.55 1.8 -0.7 1.4 -1.65 1.2 -2.6 1.25 -3.35 1.4 -3.75 1.6 -3.7 Q1.7 -3.6 1.75 -3.65 L1.85 -4.6 Q1.8 -5.95 1.25 -5.65 L1.2 -5.65 1.2 -6.35 M3.0 -5.05 Q3.6 -2.75 3.6 0.45 3.6 3.65 3.0 6.0 2.3 8.2 1.35 8.2 0.35 8.2 -0.3 6.0 -1.0 3.65 -1.0 0.45 -1.0 -2.75 -0.3 -5.05 0.35 -7.3 1.35 -7.3 2.3 -7.3 3.0 -5.05" fill="#ffcc33" fill-rule="evenodd" stroke="none"/>
    <path d="M1.2 -6.35 L1.2 -5.65 1.25 -5.65 Q1.8 -5.95 1.85 -4.6 L1.75 -3.65 Q1.7 -3.6 1.6 -3.7 L1.4 -3.75 1.25 -3.35 1.2 -2.6 1.4 -1.65 1.8 -0.7 2.15 0.55 2.4 2.3 2.4 4.0 2.3 5.1 1.85 6.3 1.85 7.15 1.8 7.55 1.65 7.75 1.55 7.45 1.5 6.6 Q1.05 6.75 0.8 6.05 L0.4 4.15 0.5 2.8 Q0.55 2.05 0.75 2.0 L0.85 2.0 0.95 2.55 1.0 3.15 1.15 3.6 1.2 3.8 1.35 3.8 1.55 3.4 1.6 2.6 1.35 1.55 0.95 0.4 0.55 -0.8 Q0.35 -1.5 0.3 -2.3 L0.4 -3.95 Q0.55 -4.8 0.85 -5.3 L0.8 -6.05 0.85 -6.45 1.0 -6.6 1.15 -6.6 1.2 -6.35 M1.55 10.7 L1.35 10.75 -0.4 10.8 -1.75 10.7 Q-2.95 10.7 -3.85 7.7 -4.8 4.7 -4.8 0.45 -4.8 -3.8 -3.85 -6.8 -2.95 -9.8 -1.75 -9.8 L-0.4 -9.8 1.15 -9.75 Q0.0 -9.55 -0.85 -6.8 -1.75 -3.8 -1.75 0.45 -1.75 4.7 -0.85 7.7 0.05 10.7 1.35 10.7 L1.55 10.7" fill="#ce9b00" fill-rule="evenodd" stroke="none"/>
  </g>
  <defs>
    <linearGradient gradientTransform="matrix(0.0034, -0.0175, 0.0031, 0.0068, 0.85, 4.0)" gradientUnits="userSpaceOnUse" id="gradient0" spreadMethod="pad" x1="-819.2" x2="819.2">
      <stop offset="0.0" stop-color="#ffcc33"/>
      <stop offset="1.0" stop-color="#ffe9a4"/>
    </linearGradient>
  </defs>
</svg>
