<?xml version="1.0" encoding="UTF-8" standalone="no"?>
<svg xmlns:xlink="http://www.w3.org/1999/xlink" height="29.2px" width="29.2px" xmlns="http://www.w3.org/2000/svg">
  <g transform="matrix(1.0, 0.0, 0.0, 1.0, 0.0, 0.0)">
    <path d="M25.2 10.15 L28.1 8.95 28.95 11.8 29.2 14.6 26.05 14.6 Q26.05 16.9 25.25 18.85 L28.2 20.05 26.8 22.7 24.9 24.9 22.7 22.7 Q21.05 24.3 19.15 25.15 L20.4 28.05 17.55 28.95 14.6 29.2 14.6 26.05 Q12.3 26.05 10.3 25.25 L9.15 28.2 Q7.8 27.65 6.6 26.85 5.4 26.05 4.35 25.0 L6.55 22.8 6.45 22.7 Q4.85 21.05 4.05 19.15 L1.15 20.35 Q0.55 19.05 0.3 17.6 0.0 16.15 0.0 14.6 L3.15 14.6 Q3.15 12.25 3.95 10.25 L1.05 9.1 Q1.55 7.75 2.4 6.55 3.15 5.35 4.25 4.25 L6.45 6.45 Q8.15 4.8 10.15 4.0 L8.95 1.1 Q10.25 0.55 11.7 0.3 L14.6 0.0 14.6 3.15 Q16.9 3.15 18.95 3.95 L20.1 1.05 Q21.45 1.55 22.7 2.45 L24.9 4.25 25.0 4.35 22.8 6.55 Q24.35 8.2 25.2 10.15 M14.6 9.6 Q12.55 9.6 11.05 11.05 9.6 12.55 9.6 14.6 9.6 16.65 11.05 18.15 12.55 19.6 14.6 19.6 16.65 19.6 18.15 18.15 19.6 16.65 19.6 14.6 19.6 12.55 18.15 11.05 16.65 9.6 14.6 9.6" fill="#cccccc" fill-rule="evenodd" stroke="none"/>
  </g>
</svg>
