<?xml version="1.0" encoding="UTF-8" standalone="no"?>
<svg xmlns:xlink="http://www.w3.org/1999/xlink" height="83.0px" width="20.05px" xmlns="http://www.w3.org/2000/svg">
  <g transform="matrix(1.0, 0.0, 0.0, 1.0, -0.05, 0.1)">
    <path d="M20.1 -0.1 L20.1 82.9 0.05 82.9 0.05 -0.1 20.1 -0.1" fill="#663300" fill-opacity="0.007843138" fill-rule="evenodd" stroke="none"/>
    <path d="M6.2 4.2 L12.15 3.55 16.1 10.8 16.65 76.15 12.1 82.9 11.85 82.9 3.6 81.2 2.2 78.8 Q0.8 76.45 0.9 76.3 L0.9 11.7 3.25 7.3 4.7 4.4 6.2 4.2" fill="#000000" fill-opacity="0.3019608" fill-rule="evenodd" stroke="none"/>
    <path d="M5.0 6.5 L6.3 3.75 7.55 3.6 12.6 2.9 15.95 9.9 16.4 72.4 12.5 78.9 12.3 78.85 5.3 77.25 4.15 75.0 3.05 72.55 3.05 10.75 5.0 6.5" fill="#895721" fill-rule="evenodd" stroke="none"/>
    <path d="M5.0 6.5 L6.3 3.75 7.55 3.6 12.6 2.9 15.95 9.9 16.4 72.4 12.5 78.9 12.3 78.85 5.3 77.25 4.15 75.0 3.05 72.55 3.05 10.75 5.0 6.5 Z" fill="none" stroke="#35220d" stroke-linecap="round" stroke-linejoin="round" stroke-width="5.0"/>
    <path d="M5.0 6.5 L6.3 3.75 7.55 3.6 12.6 2.9 15.95 9.9 16.4 72.4 12.5 78.9 12.3 78.85 14.0 76.0 14.45 75.25 14.0 12.75 10.65 5.75 6.25 6.35 5.0 6.5" fill="#895721" fill-rule="evenodd" stroke="none"/>
    <path d="M12.3 78.85 L5.3 77.25 4.15 75.0 3.05 72.55 3.05 10.75 5.0 6.5 6.25 6.35 5.45 8.05 5.45 69.9 6.55 72.3 7.7 74.6 14.0 76.0 12.3 78.85" fill="#603e17" fill-rule="evenodd" stroke="none"/>
    <path d="M6.25 6.35 L10.65 5.75 14.0 12.75 14.45 75.25 14.0 76.0 7.7 74.6 6.55 72.3 5.45 69.9 5.45 8.05 6.25 6.35" fill="#6d461b" fill-rule="evenodd" stroke="none"/>
    <path d="M12.15 8.95 Q10.65 8.95 10.15 14.8 9.9 17.75 9.95 20.75 L9.95 24.35 Q10.05 26.55 10.4 27.8 L11.7 31.3 12.8 34.9 13.45 41.7 13.7 48.9 Q13.7 53.1 13.0 61.5 12.3 69.9 12.3 74.0 L12.35 76.2 12.6 78.1 12.5 78.2 Q12.0 77.45 12.0 74.0 12.0 69.8 12.7 61.35 13.4 52.95 13.4 48.8 13.4 39.85 12.45 34.75 12.25 33.7 11.25 31.2 L10.05 27.7 Q9.65 25.1 9.6 23.9 L9.65 20.75 Q9.65 16.9 10.1 12.5 10.2 11.4 10.75 10.15 11.4 8.65 12.15 8.6 13.0 8.8 13.2 10.45 L13.3 12.75 13.05 18.0 Q12.6 23.0 11.4 23.0 10.6 23.0 10.4 20.9 L10.35 18.75 10.6 14.4 Q10.9 11.25 11.3 10.75 L11.45 10.7 10.9 14.6 10.65 18.85 10.65 20.8 Q10.75 22.65 11.25 22.65 12.35 22.65 12.8 17.75 L13.05 12.7 12.95 10.75 Q12.75 8.95 12.15 8.95 M13.1 3.35 L14.45 9.15 Q15.0 11.6 15.0 14.05 15.0 18.15 13.95 22.15 L12.95 26.1 Q12.95 27.75 13.65 30.15 L13.6 30.3 Q13.25 29.85 12.95 28.3 L12.7 25.95 13.7 22.15 Q14.7 18.1 14.7 14.0 14.7 11.5 13.8 7.8 L12.9 4.15 Q12.9 3.5 13.1 3.35 M10.75 3.55 Q9.65 6.25 8.9 10.9 8.15 15.25 8.15 18.65 8.15 25.1 9.9 34.4 11.55 43.6 11.55 47.05 11.55 52.75 10.6 60.05 9.65 67.35 9.65 71.1 9.65 72.7 9.95 74.65 L10.55 78.4 10.4 78.45 Q9.45 74.1 9.45 71.05 9.45 68.35 10.4 60.3 11.3 52.25 11.3 47.35 11.3 44.0 9.6 34.6 7.85 25.25 7.85 18.7 7.85 14.9 8.55 10.8 9.3 6.15 10.65 3.3 L10.75 3.55 M8.1 7.3 L8.15 7.35 8.15 7.6 7.75 11.35 7.35 16.3 7.1 20.6 6.9 24.85 Q6.9 27.0 7.9 35.25 8.9 43.4 8.9 47.8 8.9 50.75 7.5 59.55 6.05 68.3 6.05 69.9 6.05 72.8 6.2 74.0 6.55 76.65 7.65 77.85 L7.5 78.15 Q6.5 77.5 6.05 75.25 5.75 73.65 5.75 71.9 5.75 68.15 7.2 59.6 8.6 51.0 8.6 47.85 8.6 44.7 7.6 35.8 6.6 26.85 6.6 24.9 6.6 23.55 7.15 16.0 L7.9 7.3 8.1 7.3 M4.4 16.35 L4.35 22.55 Q4.35 27.15 5.85 35.5 7.35 43.9 7.35 48.25 7.35 50.85 6.15 57.85 L4.7 66.35 4.55 66.4 5.95 57.8 Q7.1 51.0 7.1 48.2 7.1 43.6 5.65 35.95 4.2 28.3 4.2 22.55 4.2 18.45 4.35 16.35 L4.4 16.35 M5.0 43.9 L4.9 47.15 4.25 51.1 3.85 55.0 Q3.55 57.4 2.8 57.95 L4.0 50.75 Q4.7 46.65 4.7 43.95 4.7 40.75 4.2 37.95 L4.3 37.95 Q5.0 39.8 5.0 43.9" fill="#563715" fill-rule="evenodd" stroke="none"/>
  </g>
</svg>
