<?xml version="1.0" encoding="UTF-8" standalone="no"?>
<svg xmlns:xlink="http://www.w3.org/1999/xlink" height="22.1px" width="25.35px" xmlns="http://www.w3.org/2000/svg">
  <g transform="matrix(1.0, 0.0, 0.0, 1.0, -5.1, 20.7)">
    <path d="M16.0 -17.3 Q20.85 -19.15 22.3 -19.4 L25.0 -19.0 Q27.25 -18.1 28.35 -16.1 29.95 -13.15 28.5 -10.0 L23.7 -5.85 18.1 -1.5 Q15.2 0.3 13.3 0.15 11.65 0.05 10.4 -0.65 8.4 -1.85 7.2 -4.65 5.95 -7.25 6.5 -9.75 6.65 -11.1 7.55 -12.6 8.45 -14.15 10.25 -15.1 L16.0 -17.3 Z" fill="none" stroke="#292929" stroke-linecap="round" stroke-linejoin="round" stroke-width="2.5"/>
    <path d="M13.95 -16.6 L16.0 -17.3 18.1 -18.1 19.0 -17.7 Q21.4 -16.6 22.8 -14.15 24.4 -11.55 24.15 -8.9 23.9 -6.65 22.55 -4.85 L20.65 -3.35 Q21.95 -5.0 22.1 -7.15 22.3 -9.9 20.75 -12.4 19.35 -14.95 16.9 -15.95 15.45 -16.7 13.95 -16.6 M19.45 -18.55 L21.15 -19.1 21.55 -18.9 Q23.9 -17.8 25.45 -15.3 26.95 -12.8 26.7 -10.05 L26.2 -7.9 24.7 -6.65 Q25.3 -7.85 25.45 -9.4 25.7 -12.05 24.2 -14.6 22.7 -17.15 20.3 -18.2 L19.45 -18.55 M22.8 -19.35 L25.0 -19.0 Q27.25 -18.1 28.35 -16.1 29.95 -13.15 28.5 -10.0 L27.8 -9.3 28.0 -10.55 Q28.3 -13.15 26.8 -15.8 25.25 -18.25 22.9 -19.3 L22.8 -19.35" fill="#595959" fill-rule="evenodd" stroke="none"/>
    <path d="M18.1 -18.1 L19.45 -18.55 20.3 -18.2 Q22.7 -17.15 24.2 -14.6 25.7 -12.05 25.45 -9.4 25.3 -7.85 24.7 -6.65 L23.7 -5.85 22.55 -4.85 Q23.9 -6.65 24.15 -8.9 24.4 -11.55 22.8 -14.15 21.4 -16.6 19.0 -17.7 L18.1 -18.1 M21.15 -19.1 L22.3 -19.4 22.8 -19.35 22.9 -19.3 Q25.25 -18.25 26.8 -15.8 28.3 -13.15 28.0 -10.55 L27.8 -9.3 26.2 -7.9 26.7 -10.05 Q26.95 -12.8 25.45 -15.3 23.9 -17.8 21.55 -18.9 L21.15 -19.1 M20.65 -3.35 L18.1 -1.5 Q16.9 -0.75 15.85 -0.35 17.6 -2.15 17.85 -4.75 18.0 -7.35 16.5 -10.0 15.0 -12.4 12.8 -13.55 L8.4 -13.7 10.25 -15.1 13.95 -16.6 Q15.45 -16.7 16.9 -15.95 19.35 -14.95 20.75 -12.4 22.3 -9.9 22.1 -7.15 21.95 -5.0 20.65 -3.35" fill="#70bf1c" fill-rule="evenodd" stroke="none"/>
    <path d="M17.6 -5.65 L17.7 -6.3 18.15 -6.45 21.0 -7.9 23.7 -9.9 26.4 -11.85 Q28.25 -13.0 28.65 -13.95 L28.7 -14.2 Q29.25 -12.0 28.25 -9.8 L27.5 -9.1 25.9 -7.6 24.45 -6.4 23.4 -5.6 22.25 -4.6 20.35 -3.1 17.8 -1.25 Q16.65 -0.5 15.55 -0.1 15.3 0.05 15.1 0.15 16.3 -0.85 17.0 -2.75 L17.6 -5.65" fill="#000000" fill-opacity="0.2" fill-rule="evenodd" stroke="none"/>
    <path d="M13.85 -14.15 Q16.4 -15.3 20.3 -16.65 L23.85 -17.7 Q24.95 -18.1 25.4 -18.45 L26.8 -17.55 26.65 -17.5 25.2 -16.8 Q22.9 -15.7 20.9 -14.2 L18.65 -12.7 16.45 -11.6 14.6 -10.75 Q13.75 -11.5 12.35 -12.3 L11.0 -12.85 13.85 -14.15" fill="#ffffff" fill-opacity="0.4" fill-rule="evenodd" stroke="none"/>
    <path d="M9.15 -6.3 L9.05 -6.55 9.25 -6.4 9.15 -6.3 M10.6 -9.6 L12.3 -8.35 11.8 -8.05 10.6 -9.6" fill="#ffffff" fill-rule="evenodd" stroke="none"/>
    <path d="M7.55 -12.6 L8.4 -13.7 12.8 -13.55 Q15.0 -12.4 16.5 -10.0 18.0 -7.35 17.85 -4.75 17.6 -2.15 15.85 -0.35 14.4 0.3 13.3 0.15 11.65 0.05 10.4 -0.65 8.4 -1.85 7.2 -4.65 5.95 -7.25 6.5 -9.75 6.65 -11.1 7.55 -12.6" fill="#86df24" fill-rule="evenodd" stroke="none"/>
    <path d="M9.6 -10.65 L12.25 -10.55 Q13.6 -9.8 14.3 -8.3 14.9 -6.8 14.6 -5.3 14.2 -3.85 12.95 -3.35 L10.4 -3.5 Q9.05 -4.15 8.35 -5.7 7.65 -7.2 8.05 -8.65 8.45 -10.1 9.6 -10.65" fill="#487a12" fill-rule="evenodd" stroke="none"/>
  </g>
</svg>
