<?xml version="1.0" encoding="UTF-8" standalone="no"?>
<svg xmlns:xlink="http://www.w3.org/1999/xlink" height="29.8px" width="41.45px" xmlns="http://www.w3.org/2000/svg">
  <g transform="matrix(1.0, 0.0, 0.0, 1.0, -6.4, 7.2)">
    <path d="M19.3 12.15 L18.95 11.65 14.25 6.2 13.75 5.85 13.05 5.5 Q13.1 4.95 12.75 4.5 L10.05 1.35 10.1 1.3 Q11.85 -1.7 15.5 -3.15 18.8 -4.6 22.8 -4.45 L25.75 -4.2 26.0 -4.1 Q27.4 -3.7 35.55 0.2 L42.1 3.45 42.2 3.45 42.65 3.85 43.2 4.3 44.4 5.45 44.55 5.75 Q45.05 6.75 44.8 8.15 L44.8 8.2 44.55 9.5 44.55 9.45 Q43.7 11.8 42.0 13.95 L42.0 14.0 37.55 18.65 Q37.3 18.35 36.8 18.2 35.7 17.9 35.0 19.3 L34.95 19.75 22.4 14.7 22.65 14.05 22.45 13.45 22.45 13.15 Q22.35 11.95 21.1 11.9 L19.3 12.15 M12.75 5.7 L12.25 5.05 12.8 5.4 12.8 5.55 12.75 5.7" fill="#8d602e" fill-rule="evenodd" stroke="none"/>
    <path d="M19.3 12.15 L19.3 12.7 Q18.55 12.5 17.65 12.7 L15.9 12.9 11.9 8.2 10.75 7.7 Q10.1 7.3 9.95 6.8 L9.7 6.0 9.6 5.65 7.25 2.9 7.1 2.9 6.5 2.05 6.4 1.65 Q6.35 1.3 6.55 1.15 L7.15 -0.05 7.45 -0.35 Q9.7 -3.95 14.1 -5.65 L14.15 -5.65 Q18.1 -7.4 22.75 -7.2 L22.8 -7.2 23.55 -7.2 26.4 -6.8 26.9 -6.6 Q28.9 -6.05 36.9 -2.15 L43.45 1.15 43.4 1.1 44.8 2.05 44.85 2.1 45.05 2.3 46.85 4.05 46.8 4.05 47.1 4.55 Q47.8 5.75 47.85 7.3 L47.8 7.9 47.75 8.85 47.4 10.4 Q46.4 13.15 44.4 15.8 L44.35 15.8 38.1 22.25 37.4 22.6 37.8 19.4 37.55 18.65 42.0 14.0 42.0 13.95 Q43.7 11.8 44.55 9.45 L44.55 9.5 44.8 8.2 44.8 8.15 Q45.05 6.75 44.55 5.75 L44.4 5.45 43.2 4.3 42.65 3.85 42.2 3.45 42.1 3.45 35.55 0.2 Q27.4 -3.7 26.0 -4.1 L25.75 -4.2 22.8 -4.45 Q18.8 -4.6 15.5 -3.15 11.85 -1.7 10.1 1.3 L10.05 1.35 12.75 4.5 Q13.1 4.95 13.05 5.5 L13.75 5.85 14.25 6.2 18.95 11.65 19.3 12.15 M12.75 5.7 L12.8 5.55 12.8 5.4 12.25 5.05 12.75 5.7" fill="#432e16" fill-rule="evenodd" stroke="none"/>
    <path d="M36.65 20.45 L17.4 12.95 8.2 1.7 25.0 8.35 36.65 20.45" fill="#ffcc33" fill-rule="evenodd" stroke="none"/>
    <path d="M15.65 -2.75 L14.95 -2.25 12.45 -0.15 12.15 0.2 12.0 0.3 11.0 1.75 24.1 7.95 25.2 6.7 25.75 6.2 Q27.0 4.95 28.65 3.95 L29.05 3.7 29.25 3.5 Q30.95 2.25 33.25 1.75 L34.15 1.5 37.05 1.15 37.4 1.1 24.75 -4.8 24.7 -4.8 21.15 -4.55 20.1 -4.35 Q18.5 -4.1 17.2 -3.5 L15.65 -2.75 M27.2 9.45 L25.75 10.05 25.75 10.1 23.3 8.95 8.0 1.7 Q8.15 1.15 8.6 0.7 L8.65 0.7 Q10.7 -2.85 14.85 -4.4 18.45 -5.95 22.75 -5.8 L26.15 -5.4 26.3 -5.35 Q27.8 -5.0 36.2 -0.95 L42.7 2.25 Q43.35 2.55 43.8 2.95 L43.85 3.0 43.95 3.2 43.05 3.35 41.6 2.6 39.7 2.5 36.2 2.8 35.9 2.85 35.85 2.9 34.1 3.7 31.5 5.05 Q28.85 7.8 27.7 7.8 L27.4 7.8 27.1 8.1 26.45 9.0 27.2 9.45" fill="#f4b800" fill-rule="evenodd" stroke="none"/>
    <path d="M15.65 -2.75 L17.2 -3.5 Q18.5 -4.1 20.1 -4.35 L33.25 1.75 Q30.95 2.25 29.25 3.5 L15.65 -2.75 M21.15 -4.55 L24.7 -4.8 24.75 -4.8 37.4 1.1 37.05 1.15 34.15 1.5 21.15 -4.55 M28.65 3.95 Q27.0 4.95 25.75 6.2 L12.45 -0.15 14.95 -2.25 28.65 3.95 M25.2 6.7 L24.1 7.95 11.0 1.75 12.0 0.3 25.2 6.7 M27.2 9.45 L26.45 9.0 27.1 8.1 27.4 7.8 27.7 7.8 Q28.85 7.8 31.5 5.05 L34.1 3.7 35.85 2.9 35.9 2.9 36.2 2.8 39.7 2.5 41.6 2.6 43.05 3.35 41.7 3.9 27.2 9.45" fill="#a87337" fill-rule="evenodd" stroke="none"/>
    <path d="M14.95 -2.25 L15.65 -2.75 29.25 3.5 29.05 3.7 28.65 3.95 14.95 -2.25 M20.1 -4.35 L21.15 -4.55 34.15 1.5 33.25 1.75 20.1 -4.35 M25.75 6.2 L25.2 6.7 12.0 0.3 12.15 0.2 12.45 -0.15 25.75 6.2 M35.85 2.9 L35.9 2.85 36.2 2.8 35.9 2.9 35.85 2.9" fill="#875b2c" fill-rule="evenodd" stroke="none"/>
    <path d="M22.15 9.55 L18.8 12.2 18.65 12.3 18.35 12.1 18.25 12.0 18.15 11.8 17.85 11.55 17.6 11.2 12.6 5.1 22.15 9.55" fill="#644420" fill-rule="evenodd" stroke="none"/>
    <path d="M22.15 9.55 L23.25 10.1 32.2 17.85 18.7 12.4 18.35 12.1 18.65 12.3 18.8 12.2 22.15 9.55" fill="url(#gradient0)" fill-rule="evenodd" stroke="none"/>
    <path d="M35.8 3.65 Q38.25 2.85 40.45 3.2 43.0 3.45 44.3 5.35 L44.5 5.65 Q45.1 6.75 44.85 8.5 L44.6 9.8 43.85 11.3 35.8 3.65 M43.4 12.2 L42.25 13.85 40.2 16.05 30.3 6.65 Q32.65 4.9 34.75 3.95 L34.9 4.15 43.4 12.2 M39.45 16.85 L37.05 19.15 26.85 9.5 29.35 7.25 29.45 7.2 39.45 16.85" fill="#8d602e" fill-rule="evenodd" stroke="none"/>
    <path d="M45.75 5.05 Q46.6 6.5 46.25 8.45 L45.95 9.95 Q45.05 12.55 43.15 14.9 L37.05 21.2 24.85 9.8 Q26.1 8.5 27.9 7.1 31.35 4.35 34.4 3.15 38.05 1.7 41.1 2.15 44.1 2.6 45.6 4.8 L45.75 5.05 M43.85 11.3 L44.6 9.8 44.85 8.5 Q45.1 6.75 44.5 5.65 L44.3 5.35 Q43.0 3.45 40.45 3.2 38.25 2.85 35.8 3.65 L34.9 3.95 34.75 3.95 Q32.65 4.9 30.3 6.65 L29.45 7.2 29.35 7.25 26.85 9.5 37.05 19.15 39.45 16.85 40.2 16.05 42.25 13.85 43.4 12.2 43.85 11.3" fill="#dda600" fill-rule="evenodd" stroke="none"/>
    <path d="M43.85 11.3 L43.4 12.2 34.9 4.15 34.75 3.95 34.9 3.95 35.8 3.65 43.85 11.3 M40.2 16.05 L39.45 16.85 29.45 7.2 30.3 6.65 40.2 16.05" fill="#644420" fill-rule="evenodd" stroke="none"/>
    <path d="M17.95 9.35 L17.85 9.4 11.5 6.35 11.2 5.5 16.4 1.85 22.1 3.65 22.45 4.4 17.95 9.35" fill="#f4b800" fill-rule="evenodd" stroke="none"/>
    <path d="M16.15 1.0 L22.15 3.65 17.7 8.5 17.55 8.55 11.2 5.55 16.15 1.0" fill="#ffcc33" fill-rule="evenodd" stroke="none"/>
    <path d="M16.25 6.4 L15.2 5.85 15.45 5.65 16.4 4.95 16.8 4.6 Q16.75 4.5 16.9 4.55 L16.55 4.3 16.85 3.75 17.0 3.55 Q17.45 3.2 17.95 3.15 L18.15 3.2 18.2 3.2 18.4 3.4 Q18.55 3.65 18.3 4.0 L17.55 4.55 17.15 4.75 16.25 6.4" fill="#432e16" fill-rule="evenodd" stroke="none"/>
    <path d="M18.15 3.2 L17.95 3.15 Q17.45 3.2 17.0 3.55 L16.85 3.75 16.55 4.3 16.9 4.55 Q16.75 4.5 16.8 4.6 L16.4 4.95 15.45 5.65 15.2 5.85 16.25 6.4 16.0 6.7 14.45 6.0 16.35 4.6 16.25 4.5 Q16.15 4.1 16.35 3.85 L17.0 3.25 17.85 3.1 17.95 3.1 18.15 3.2" fill="#b98b00" fill-rule="evenodd" stroke="none"/>
  </g>
  <defs>
    <linearGradient gradientTransform="matrix(0.007, -0.0039, 0.0027, 0.0047, 25.75, 12.15)" gradientUnits="userSpaceOnUse" id="gradient0" spreadMethod="pad" x1="-819.2" x2="819.2">
      <stop offset="0.0" stop-color="#8d602e"/>
      <stop offset="1.0" stop-color="#644420"/>
    </linearGradient>
  </defs>
</svg>
