<?xml version="1.0" encoding="UTF-8" standalone="no"?>
<svg xmlns:xlink="http://www.w3.org/1999/xlink" height="90.25px" width="64.65px" xmlns="http://www.w3.org/2000/svg">
  <g transform="matrix(1.0, 0.0, 0.0, 1.0, 0.5, 26.25)">
    <path d="M0.0 0.0 L64.0 0.0 64.0 64.0 0.0 64.0 0.0 0.0" fill="url(#gradient0)" fill-rule="evenodd" stroke="none"/>
    <path d="M61.6 4.35 Q60.85 4.6 60.3 4.15 L60.2 4.0 60.2 3.85 60.2 3.7 60.2 3.55 60.3 3.25 60.5 3.0 60.8 2.85 61.0 2.85 61.35 2.95 61.65 3.1 62.0 3.45 62.2 3.85 62.0 4.1 61.6 4.35 M62.2 16.55 L62.2 16.7 62.1 16.85 61.8 17.15 Q61.45 17.4 61.15 17.15 L60.9 16.9 60.85 16.75 60.85 16.6 60.9 16.45 61.1 16.25 61.6 16.05 61.6 16.0 61.9 16.15 62.05 16.25 62.15 16.4 62.2 16.55 M61.95 32.65 L62.2 32.55 62.5 32.65 62.7 32.8 62.8 32.95 62.85 33.25 62.8 33.4 62.75 33.55 62.45 33.75 Q62.0 33.95 61.7 33.6 L61.55 33.3 61.55 33.15 61.55 33.0 61.65 32.85 61.95 32.65 M4.5 3.7 L4.7 3.9 4.9 4.15 4.9 4.3 4.8 4.45 4.5 4.65 Q3.9 4.95 3.25 4.65 L3.0 4.25 3.0 4.1 3.05 3.95 3.15 3.8 3.25 3.7 3.35 3.65 3.6 3.65 3.6 3.6 4.2 3.65 4.5 3.7 M1.85 22.65 L2.55 22.1 3.2 21.9 3.4 21.95 3.7 22.1 3.85 22.2 3.9 22.35 3.9 22.5 3.9 22.8 3.95 23.1 3.9 23.4 3.8 23.55 3.65 23.65 3.0 23.9 Q2.35 24.1 1.9 23.7 L1.65 23.4 1.7 23.1 1.85 22.65 M2.4 36.35 L2.8 36.55 3.2 36.85 3.35 37.3 3.25 37.6 2.9 38.05 1.1 38.15 0.75 37.95 0.7 37.8 0.65 37.5 0.65 37.2 Q0.7 36.85 1.0 36.6 L1.8 36.35 1.8 36.3 2.4 36.35 M6.8 38.4 L7.0 38.35 7.2 38.35 7.2 38.3 Q7.55 38.4 7.65 38.7 L7.55 39.15 7.0 39.4 6.5 39.35 6.35 39.25 6.3 39.1 6.3 38.95 6.35 38.8 6.45 38.65 6.65 38.5 6.8 38.4 M2.5 42.05 L2.6 41.9 2.75 41.75 2.9 41.65 3.0 41.6 3.2 41.6 3.2 41.55 3.6 41.75 3.8 42.15 3.55 42.6 3.2 42.7 2.8 42.65 2.6 42.5 2.5 42.35 2.5 42.2 2.5 42.05 M2.8 46.0 L3.1 46.15 3.25 46.25 3.35 46.4 3.35 46.7 3.3 46.85 3.25 47.0 3.05 47.1 2.5 47.0 2.25 46.8 2.2 46.5 2.25 46.35 2.35 46.2 2.45 46.1 2.55 46.05 2.8 46.05 2.8 46.0 M20.4 62.0 L20.0 61.8 19.9 61.7 19.9 61.55 19.95 61.4 20.05 61.25 20.2 61.2 20.4 61.15 20.4 61.1 20.8 61.4 Q21.0 61.55 20.85 61.8 20.7 62.1 20.4 62.0 M14.15 58.75 L14.4 58.95 14.45 59.05 14.5 59.2 14.45 59.35 14.1 59.6 Q13.55 59.95 13.3 59.35 L13.3 59.05 13.5 58.8 13.8 58.65 14.15 58.75 M12.0 56.1 Q12.35 56.2 12.45 56.5 L12.3 56.9 12.0 57.05 11.6 57.0 11.2 56.8 11.15 56.65 11.15 56.5 11.2 56.35 11.3 56.25 11.4 56.2 11.6 56.15 12.0 56.15 12.0 56.1 M13.9 61.15 L13.95 61.1 14.2 61.05 14.6 61.15 14.85 61.3 15.1 61.55 15.3 61.85 15.35 62.0 15.05 62.4 13.7 62.35 Q13.4 62.2 13.45 61.85 L13.45 61.7 13.5 61.55 13.6 61.4 13.75 61.25 13.9 61.15 M17.8 56.25 L18.4 56.3 18.75 56.35 18.95 56.55 19.1 56.8 19.1 56.95 18.95 57.2 Q18.5 57.7 17.8 57.6 L17.25 57.15 17.25 57.0 17.25 56.85 17.25 56.7 17.3 56.55 17.4 56.4 17.55 56.35 17.8 56.3 17.8 56.25 M3.2 55.45 L3.8 55.45 4.2 55.55 4.7 55.8 4.95 56.2 4.95 56.35 4.9 56.5 4.7 56.7 3.0 56.95 Q2.4 56.85 2.45 56.25 L2.45 56.1 2.5 55.95 2.6 55.8 2.75 55.65 2.9 55.55 3.2 55.5 3.2 55.45 M4.4 59.6 L4.55 59.45 4.7 59.35 4.75 59.3 5.0 59.25 5.4 59.25 5.55 59.25 5.8 59.25 5.8 59.2 6.0 59.2 6.3 59.35 6.45 59.45 6.55 59.6 6.6 59.75 6.6 59.9 6.55 60.05 6.5 60.2 6.3 60.5 6.1 60.65 4.8 60.7 Q4.4 60.75 4.3 60.35 L4.25 60.05 4.25 59.9 4.3 59.75 4.4 59.6 M61.0 61.45 L60.6 61.65 Q60.35 61.65 60.05 61.45 L59.95 61.35 59.95 61.2 59.95 61.05 60.05 60.9 60.25 60.8 60.6 60.7 60.6 60.65 61.0 60.95 Q61.2 61.2 61.0 61.45 M58.4 52.4 L58.7 52.55 58.85 52.65 58.95 52.8 58.95 53.1 58.9 53.25 58.85 53.4 58.65 53.5 58.1 53.4 57.85 53.2 57.8 52.9 57.85 52.75 57.95 52.6 58.05 52.5 58.15 52.45 58.4 52.45 58.4 52.4 M60.2 55.5 L60.6 55.8 Q60.8 55.95 60.65 56.2 60.5 56.5 60.2 56.4 L59.8 56.2 59.7 56.1 59.7 55.95 59.75 55.8 59.85 55.65 60.0 55.6 60.2 55.55 60.2 55.5 M52.75 53.05 L52.9 52.95 52.95 52.9 53.2 52.8 53.35 52.75 53.6 52.7 53.6 52.65 54.2 52.7 54.6 52.75 54.8 52.9 55.05 53.15 55.0 53.3 54.95 53.45 54.85 53.6 54.8 53.7 54.5 53.95 54.3 54.25 54.0 54.3 52.85 54.2 52.75 54.1 52.65 53.95 52.65 53.8 52.65 53.65 52.65 53.5 52.65 53.35 52.65 53.2 52.75 53.05 M55.65 61.2 L55.75 61.05 55.9 60.9 56.05 60.8 56.4 60.7 56.4 60.65 56.8 60.7 57.4 60.75 57.8 60.85 58.2 61.1 58.4 61.35 58.3 61.65 58.1 61.9 57.4 62.3 Q56.45 62.6 55.75 62.1 L55.65 61.95 55.65 61.8 55.65 61.65 55.65 61.5 55.65 61.35 55.65 61.2 M48.05 62.25 L48.3 62.65 48.0 63.0 47.6 63.05 47.3 63.0 47.15 62.85 47.1 62.7 47.1 62.55 47.3 62.3 47.6 62.15 47.6 62.1 48.05 62.25" fill="#aeaeae" fill-rule="evenodd" stroke="none"/>
    <path d="M4.5 -0.25 L4.7 0.4 4.9 0.95 5.15 1.5 4.65 0.95 4.4 0.3 4.2 -0.4 Q4.1 -0.7 4.3 -0.85 L4.35 -0.85 4.5 -0.25 M5.0 -0.85 Q5.4 -0.7 5.25 -0.3 5.15 0.0 5.2 0.35 L5.4 1.0 5.35 1.55 5.05 1.0 4.95 0.35 4.75 -0.3 Q4.6 -0.7 5.0 -0.85 M5.75 -0.3 L5.75 0.3 5.75 0.9 5.55 1.4 5.45 0.75 5.45 0.2 5.45 -0.4 Q5.4 -0.75 5.6 -0.9 L5.65 -0.9 5.75 -0.3 M6.25 -0.1 L6.2 0.5 6.15 1.1 6.05 1.55 Q5.8 1.4 5.9 1.05 L6.0 0.35 5.95 -0.25 Q5.9 -0.6 6.1 -0.7 L6.15 -0.7 6.25 -0.1 M6.65 -0.15 L6.65 0.0 6.65 0.05 6.75 0.15 6.85 0.2 6.8 0.6 6.8 0.8 6.8 1.1 6.85 1.45 6.8 1.55 6.65 1.35 6.65 1.15 6.65 1.05 6.65 0.8 6.65 0.65 6.6 0.6 6.45 0.5 6.4 0.4 6.35 0.35 6.4 0.25 6.55 -0.05 6.55 -0.1 6.55 -0.25 6.55 -0.3 6.65 -0.3 6.65 -0.15 M7.2 -0.2 L7.2 0.3 7.2 0.8 7.25 1.3 7.05 0.8 7.05 0.25 7.0 -0.35 7.15 -0.75 7.2 -0.2 M7.9 -0.2 L7.95 -0.3 8.05 -0.4 8.05 -0.5 8.15 -0.5 8.15 -0.4 8.25 -0.3 8.3 -0.2 8.35 -0.15 8.25 0.05 8.1 0.4 8.1 0.6 8.05 0.9 8.0 1.05 7.9 0.85 7.9 0.6 7.95 0.4 7.95 0.05 7.85 -0.05 7.9 -0.2 M8.7 -0.15 L8.65 0.15 8.7 0.45 8.6 0.75 8.5 0.45 8.55 0.15 8.55 -0.15 8.55 -0.4 8.65 -0.45 8.7 -0.15 M7.8 -0.3 L7.8 0.35 7.65 0.95 7.6 0.25 7.6 -0.4 7.55 -1.1 7.75 -1.65 7.8 -0.95 7.8 -0.3 M56.75 -0.5 L57.0 0.2 57.25 0.9 57.45 1.5 56.9 0.9 56.6 0.05 56.4 -0.7 Q56.25 -1.1 56.55 -1.2 L56.75 -0.5 M57.4 -1.1 L57.45 -1.1 57.6 -0.4 57.7 0.25 57.75 0.95 57.65 1.55 Q57.4 1.35 57.4 0.95 L57.35 0.2 57.3 -0.55 Q57.2 -0.95 57.4 -1.1 M59.35 -1.2 L59.25 -0.6 59.0 0.0 58.9 0.7 58.65 1.15 Q58.5 0.85 58.6 0.55 L58.75 -0.05 58.9 -0.75 59.35 -1.2 M58.3 -0.1 L58.2 0.75 58.1 1.45 Q57.8 1.4 57.85 0.9 L58.0 0.0 58.15 -0.9 Q58.15 -1.35 58.5 -1.55 58.95 -1.3 58.65 -0.8 L58.3 -0.1 M59.65 -0.5 L59.75 -0.5 59.75 -0.4 59.85 -0.3 59.9 -0.2 59.95 -0.15 59.85 0.2 59.8 0.45 59.8 0.75 59.8 1.05 59.85 1.15 59.6 0.9 59.6 0.6 59.6 0.3 59.45 -0.05 59.5 -0.2 59.55 -0.3 59.65 -0.4 59.65 -0.5 M60.5 -0.05 L60.5 0.3 60.55 0.65 60.45 0.95 60.3 0.55 60.35 0.2 60.3 -0.2 60.4 -0.45 60.45 -0.45 60.5 -0.05 M61.15 -0.55 L61.1 -0.2 61.05 0.25 61.05 0.65 Q60.9 0.55 60.9 0.25 L61.0 -0.2 61.05 -0.65 61.1 -1.0 61.15 -1.0 61.15 -0.55 M61.9 -0.55 L61.85 0.15 61.7 0.8 61.45 1.45 Q61.4 1.1 61.5 0.75 L61.7 0.1 61.75 -0.6 61.9 -1.2 61.95 -1.2 61.9 -0.55 M62.45 -0.25 L62.2 0.35 62.05 0.95 61.9 1.55 61.85 0.95 62.05 0.25 62.25 -0.4 62.55 -0.85 62.45 -0.25 M62.85 0.05 L62.8 0.5 62.65 0.95 62.55 1.35 62.4 1.75 62.3 1.3 62.45 0.85 62.6 0.4 62.75 0.05 62.85 0.05 M63.05 1.25 L63.15 1.25 63.15 1.5 63.1 1.7 63.1 1.95 63.05 2.15 63.05 2.25 62.9 2.1 62.95 1.75 63.0 1.45 63.05 1.25 M61.35 1.35 L61.4 1.65 61.25 2.0 61.2 2.35 61.05 2.65 60.95 2.25 61.0 1.85 61.1 1.5 Q61.15 1.3 61.35 1.35 M61.65 2.7 L61.65 3.15 61.5 3.6 61.4 4.15 61.35 4.55 Q61.15 4.4 61.2 4.1 L61.35 3.6 61.45 3.0 61.65 2.7 M61.0 3.2 L61.2 2.95 61.15 3.35 61.0 3.7 60.9 4.1 60.7 4.3 60.8 3.95 60.9 3.6 61.0 3.2 M61.85 4.25 L61.9 4.4 61.85 4.55 61.85 4.7 61.8 4.85 61.75 4.75 61.75 4.6 61.75 4.45 61.8 4.3 61.85 4.25 M62.0 4.95 L62.05 4.9 62.05 4.85 62.1 4.8 62.1 4.7 62.15 4.7 62.25 4.7 62.35 4.75 62.4 4.8 62.45 4.9 62.5 4.95 62.45 5.05 62.45 5.1 62.35 5.15 62.25 5.15 62.15 5.15 62.1 5.1 62.05 5.05 62.0 5.0 62.0 4.95 M62.65 7.65 L62.65 8.05 62.65 8.4 62.65 8.65 Q62.4 8.65 62.4 8.35 L62.45 7.95 62.45 7.5 62.55 7.35 62.65 7.65 M63.2 6.9 L63.25 7.2 63.25 7.6 63.2 7.95 63.05 8.2 62.95 7.9 63.05 7.5 63.05 7.1 63.15 6.9 63.2 6.9 M61.0 7.05 L61.0 7.5 60.85 8.0 60.75 8.5 60.55 8.9 60.55 8.45 60.6 7.95 60.75 7.4 Q60.8 7.15 61.0 7.05 M61.65 8.15 L61.75 8.2 61.8 8.25 61.85 8.3 61.85 8.35 61.85 8.5 61.7 8.75 61.7 9.0 61.7 9.25 61.65 9.35 61.55 9.3 61.5 9.15 61.5 8.95 61.5 8.7 61.55 8.6 61.5 8.6 61.45 8.55 61.45 8.5 61.4 8.45 61.4 8.35 61.45 8.3 61.45 8.25 61.5 8.2 61.55 8.2 61.65 8.15 M61.35 7.85 Q61.55 7.95 61.4 8.2 L61.25 8.6 61.2 9.0 61.0 9.3 Q60.8 9.25 60.9 9.0 L61.05 8.55 61.15 8.15 61.35 7.85 M62.25 8.85 L62.25 9.1 62.3 9.3 62.25 9.55 Q62.0 9.55 62.05 9.35 L62.05 9.0 62.0 8.75 Q62.0 8.6 62.1 8.6 L62.25 8.85 M1.2 17.75 L1.15 18.2 1.05 18.55 0.9 18.1 0.9 18.0 0.8 18.05 0.8 18.1 0.3 17.5 0.05 16.75 -0.15 16.05 -0.05 15.75 0.15 16.35 0.4 16.95 0.7 17.6 0.75 17.65 0.7 17.55 0.65 17.1 0.6 16.65 Q0.6 16.4 0.75 16.35 L0.6 15.4 Q0.55 14.75 0.75 14.2 L0.65 14.05 0.6 14.45 0.55 14.5 0.35 14.25 0.35 13.85 0.35 13.35 0.25 12.95 0.3 12.9 0.3 12.85 0.35 12.8 0.4 12.8 0.5 12.75 0.6 12.8 0.65 12.8 0.7 12.75 0.8 12.75 0.8 12.7 0.9 12.75 0.95 12.8 1.0 12.85 1.05 12.85 1.25 13.15 1.3 13.15 1.45 13.25 Q3.0 12.25 5.05 12.25 L6.3 12.3 Q17.4 12.55 28.5 10.7 L38.5 9.1 46.7 9.7 49.15 9.85 57.75 9.85 Q60.75 9.85 62.8 11.45 L62.8 11.2 63.0 10.9 63.05 10.5 63.25 10.1 63.3 10.7 63.15 11.3 63.15 11.4 63.25 11.15 63.45 10.85 63.4 11.25 63.45 11.25 63.45 11.65 63.35 11.9 63.4 11.9 63.55 12.15 63.55 12.5 63.55 12.8 63.55 13.05 Q63.4 13.15 63.35 12.85 L63.3 12.5 63.3 12.1 63.25 12.45 63.1 12.75 63.0 12.65 62.9 12.9 62.95 12.9 62.95 13.25 Q62.85 13.4 62.9 13.6 L62.9 14.05 62.7 14.35 62.65 14.1 62.65 13.85 62.7 13.65 62.7 13.4 62.7 13.35 62.8 13.2 62.8 13.1 62.6 13.45 62.5 13.9 62.45 14.3 Q62.3 14.25 62.3 14.0 L62.35 13.95 62.05 14.3 62.1 14.4 62.15 14.75 Q61.95 14.85 61.85 14.55 L61.6 14.85 61.65 14.95 61.85 15.2 Q61.55 15.3 61.45 15.0 L61.15 15.25 61.2 15.55 60.9 15.5 60.65 15.7 Q60.55 15.85 60.6 16.05 L60.55 16.4 Q60.3 16.35 60.35 16.0 L60.35 15.9 60.2 16.0 60.2 16.15 60.25 16.3 60.3 16.5 60.25 16.65 60.2 16.7 59.95 16.45 59.95 16.25 59.95 16.15 59.65 16.35 59.7 16.55 59.75 16.9 59.85 17.2 59.55 16.9 59.45 16.55 59.4 16.45 57.65 17.1 57.05 17.15 56.5 17.2 51.65 17.55 51.5 17.6 49.55 17.9 Q48.85 18.05 48.8 18.45 50.65 19.5 53.15 19.6 L55.95 19.55 56.0 19.6 56.75 19.7 56.85 19.8 Q59.45 20.2 61.45 21.9 62.7 22.9 63.15 24.3 L63.25 24.05 63.4 23.45 63.55 22.9 63.85 22.5 63.8 23.05 63.6 23.6 63.5 23.9 63.7 23.55 63.95 23.2 63.95 23.6 64.05 23.65 64.1 23.7 64.15 23.75 64.15 23.85 63.95 24.2 63.75 24.5 Q63.8 24.4 63.9 24.4 L64.0 24.7 63.95 25.0 63.95 25.35 63.8 25.6 63.75 25.55 63.65 25.65 63.55 25.9 63.5 26.25 Q63.35 26.4 63.35 26.65 L63.5 26.9 63.55 27.3 63.6 27.65 63.55 27.95 63.25 27.65 63.2 27.25 63.2 27.15 63.15 27.2 62.85 27.45 62.85 27.35 62.65 27.6 62.6 27.75 62.55 28.05 62.45 28.4 62.4 28.15 62.3 28.5 62.25 29.05 62.1 29.45 62.1 29.8 62.1 30.2 62.1 30.55 62.15 30.7 62.25 30.8 62.1 30.9 Q61.8 30.75 61.85 30.35 L61.9 30.0 61.65 29.65 61.7 29.0 61.7 28.65 61.5 28.8 61.5 28.85 61.55 29.25 61.55 29.5 61.4 29.5 61.45 29.8 61.55 30.25 61.6 30.6 61.4 30.15 61.3 29.7 61.15 29.25 61.1 29.1 61.0 29.15 61.0 29.25 61.05 29.25 61.15 29.6 61.25 29.95 61.35 30.35 61.5 30.75 61.55 30.8 61.2 30.45 61.05 30.0 61.05 29.95 60.75 29.65 60.75 29.3 60.45 29.5 60.45 29.55 60.5 29.9 60.45 30.2 60.2 29.95 60.15 29.65 59.95 29.75 59.95 30.1 59.85 30.4 59.65 30.15 59.65 29.85 59.45 29.95 59.35 30.2 59.25 30.6 59.15 30.95 Q58.95 30.95 58.95 30.65 L59.0 30.35 58.95 30.45 58.85 30.75 58.7 31.05 Q58.5 31.0 58.6 30.75 L58.75 30.35 58.85 30.15 58.5 30.2 55.8 30.75 55.25 30.65 55.1 30.7 55.05 30.7 50.3 32.15 Q47.0 33.3 46.55 36.35 46.5 36.55 46.75 36.75 50.5 39.6 55.35 39.75 L57.4 40.2 58.6 40.75 Q61.3 41.45 63.05 43.2 L63.25 43.85 63.25 43.95 63.4 43.5 63.4 43.05 63.6 42.65 63.6 42.75 63.65 42.6 63.95 42.2 63.95 42.25 63.95 42.35 63.95 42.45 64.0 42.5 64.0 42.55 Q63.8 42.75 63.7 43.1 L63.65 43.3 63.95 43.05 63.8 43.6 63.5 44.2 63.35 44.8 63.3 45.0 63.3 45.05 63.3 45.1 63.45 44.75 63.65 44.15 63.95 43.75 63.9 44.3 63.8 44.5 Q63.9 44.4 64.05 44.35 L63.9 44.8 63.65 45.25 63.5 45.7 63.3 46.0 63.35 46.25 63.45 46.15 63.5 46.55 63.55 47.0 63.55 47.4 63.5 47.8 63.35 47.35 63.35 46.9 63.35 46.6 63.15 46.85 63.1 47.35 63.1 47.85 63.0 48.25 62.9 47.8 62.9 47.25 62.9 46.75 Q62.85 46.45 63.05 46.4 L63.0 45.9 62.9 46.35 Q62.8 46.7 62.85 47.05 L62.7 47.6 62.7 48.2 62.7 48.3 62.7 48.5 62.7 48.75 62.75 48.7 62.85 49.4 62.9 50.15 63.0 50.9 63.1 51.5 62.75 51.15 62.7 51.2 62.7 51.4 62.7 51.45 62.75 51.55 62.85 51.7 62.6 52.25 62.5 52.9 62.4 53.55 62.15 54.05 62.15 53.45 62.25 52.8 62.35 52.25 62.35 51.65 62.45 51.5 62.55 51.4 62.65 51.3 62.65 51.15 62.7 51.1 62.75 51.1 62.7 50.75 62.6 49.9 62.5 49.1 62.55 48.9 62.5 48.75 62.5 48.5 62.5 48.45 62.4 48.45 62.5 47.95 62.45 47.45 62.45 47.3 62.3 47.55 62.3 47.6 62.2 47.95 62.15 48.15 62.2 48.45 62.2 48.75 62.3 48.95 62.35 49.25 62.1 49.0 62.05 48.85 61.85 49.15 61.75 49.25 61.6 48.9 61.6 48.55 61.35 48.8 61.35 49.05 61.35 49.15 61.4 49.15 61.45 49.5 61.45 49.9 61.45 50.25 61.35 50.55 61.35 51.05 61.3 51.5 61.35 51.95 61.25 52.2 61.25 52.4 61.15 52.95 61.1 52.9 61.05 53.45 60.75 54.0 60.7 53.75 60.6 54.25 60.55 54.9 60.45 55.45 Q60.2 55.25 60.2 54.85 L60.3 54.1 60.35 53.5 60.3 53.3 Q59.85 53.15 59.75 52.55 L59.65 52.15 59.65 52.2 59.75 52.8 59.9 53.4 59.95 54.0 59.85 53.95 59.85 54.0 59.85 54.5 59.9 55.05 59.85 55.45 Q59.65 55.3 59.6 55.0 L59.55 54.45 59.55 53.95 59.65 53.6 59.6 53.4 59.45 52.75 59.3 52.1 Q59.3 51.75 59.55 51.65 L59.5 51.55 59.35 51.2 59.2 51.15 59.05 50.95 59.05 50.8 59.05 50.75 59.05 50.55 59.05 50.5 58.75 50.7 58.75 50.75 58.85 51.0 58.95 51.25 58.75 51.25 58.7 51.4 58.6 51.8 Q58.35 51.7 58.45 51.3 L58.55 50.95 58.5 50.8 58.2 50.95 58.2 51.0 58.25 51.05 58.25 51.1 58.3 51.15 58.15 51.35 58.05 51.5 58.1 51.7 58.1 51.75 58.05 52.0 57.95 52.25 57.9 52.45 57.8 52.65 57.75 52.4 57.85 52.15 57.9 52.0 57.85 52.05 57.65 52.1 57.6 52.25 57.6 52.3 57.65 52.85 57.55 53.65 57.55 53.75 57.75 53.6 57.85 54.05 57.9 54.1 57.95 54.2 57.95 54.4 57.95 54.45 58.05 54.65 58.2 54.85 58.35 55.1 58.45 55.25 58.15 55.0 58.0 54.7 57.95 54.6 57.85 54.8 57.85 54.85 Q58.15 55.0 58.05 55.45 L58.0 56.1 57.9 56.65 57.95 56.6 58.1 56.8 58.15 57.05 58.15 57.35 58.15 57.6 58.0 57.45 57.95 57.15 57.85 56.85 57.7 57.35 57.6 56.75 57.65 56.25 57.6 56.4 57.6 56.65 57.5 57.05 57.45 57.4 57.45 57.7 Q57.25 57.6 57.3 57.3 L57.35 56.95 57.35 56.55 57.45 56.4 57.4 56.05 57.45 55.9 57.4 55.55 57.45 55.2 57.45 54.8 57.45 54.25 57.4 54.4 57.15 54.75 57.15 55.05 57.2 55.35 57.25 55.65 57.15 55.65 57.05 55.35 57.0 55.8 Q57.3 55.85 57.2 56.25 L57.2 56.9 57.2 57.55 57.05 58.05 56.95 58.0 56.85 58.45 56.85 58.5 56.85 58.55 57.0 58.25 57.05 58.25 57.1 58.85 57.1 59.45 57.15 60.0 56.95 60.4 56.85 59.8 56.9 59.2 56.85 58.6 56.85 58.55 56.85 58.6 56.7 59.15 56.55 59.75 Q56.25 59.5 56.35 59.05 L56.45 58.7 56.45 58.65 56.4 58.6 56.4 58.5 56.4 58.45 56.45 58.35 56.5 58.3 56.5 58.1 56.45 58.0 56.5 58.0 56.5 58.05 56.55 58.1 56.55 58.2 56.65 57.65 56.6 57.75 56.5 57.6 56.6 57.85 56.55 57.9 56.5 57.9 56.35 57.9 56.25 57.85 56.05 57.3 56.05 57.15 55.95 56.9 55.95 56.6 56.0 56.3 55.95 56.15 55.95 56.25 55.95 56.4 55.95 56.45 Q55.8 56.5 55.75 56.35 L55.75 56.1 55.75 55.95 55.7 55.95 55.65 56.2 55.75 56.85 55.95 57.5 56.05 57.55 56.1 57.6 56.15 57.65 56.15 57.7 56.2 57.75 56.2 57.8 56.15 57.85 56.15 57.9 56.05 57.95 56.0 58.0 55.95 58.05 55.95 58.1 55.95 58.25 56.0 58.3 56.1 58.4 56.15 58.55 56.15 58.6 56.15 58.7 56.15 58.75 56.1 58.8 56.0 58.9 55.95 59.0 55.95 59.2 55.9 59.4 55.8 59.7 55.8 59.95 55.65 60.15 55.6 59.95 55.6 59.8 55.55 59.6 55.6 59.35 55.65 59.2 55.7 59.1 55.65 59.0 55.6 58.95 55.55 58.85 55.45 58.75 55.45 58.7 55.3 58.9 55.3 58.55 55.4 58.15 55.5 57.7 55.55 57.6 55.5 57.0 55.4 56.85 55.35 56.5 55.25 56.15 55.25 55.95 55.1 56.15 55.0 56.5 55.0 56.9 55.0 57.0 55.05 57.0 55.05 57.1 55.05 57.15 55.1 57.25 55.15 57.25 55.15 57.05 55.3 56.85 55.35 56.85 55.35 57.15 55.3 57.55 55.3 57.9 55.25 58.15 55.25 58.35 55.25 58.8 55.25 59.0 55.25 59.4 55.15 60.0 Q54.85 59.8 54.85 59.4 L54.75 58.55 54.6 58.0 54.55 58.15 54.55 58.35 54.6 58.7 54.7 59.2 54.8 59.55 54.5 59.3 54.5 59.5 54.6 59.9 54.5 60.05 Q54.15 59.9 54.15 59.4 L54.0 58.7 53.95 58.5 53.9 58.6 53.85 58.6 Q53.65 58.5 53.75 58.25 L53.85 58.0 53.8 58.1 53.7 58.4 53.8 59.05 53.95 59.85 54.0 60.6 Q53.65 60.4 53.6 59.75 L53.45 58.95 53.3 59.05 53.25 58.85 53.1 59.2 52.8 59.6 Q52.65 59.25 52.8 58.95 L52.7 59.05 52.65 59.35 52.55 59.85 Q52.3 59.7 52.35 59.25 L52.35 59.2 52.25 59.3 52.15 59.9 52.0 60.4 Q51.8 60.15 51.9 59.8 L52.0 59.4 51.8 59.5 51.7 59.85 51.55 60.3 51.5 60.2 51.55 60.15 51.55 60.05 51.5 59.95 51.5 59.9 51.65 59.55 51.2 59.7 51.1 60.05 50.8 60.35 50.9 59.85 50.95 59.75 50.9 59.75 50.55 59.85 50.5 59.9 50.45 60.1 50.45 60.15 50.55 60.2 50.65 60.25 50.7 60.35 50.75 60.4 50.75 60.5 50.75 60.55 50.7 60.7 50.55 60.85 50.5 60.95 50.5 61.1 50.5 61.4 50.45 61.6 50.5 61.85 50.35 62.0 50.15 61.75 50.15 61.4 50.15 61.1 50.15 60.9 49.95 60.95 49.95 60.65 50.05 60.55 50.05 60.45 50.05 60.35 50.15 60.3 50.2 60.0 50.25 59.95 49.95 60.0 49.85 60.2 49.9 60.6 49.75 61.15 49.65 61.8 49.45 62.4 Q49.1 62.3 49.15 61.85 L49.25 61.15 49.35 60.9 49.2 60.9 49.3 60.75 49.3 60.45 49.45 60.1 49.3 60.15 49.25 60.25 49.15 60.6 49.05 60.85 49.0 61.0 48.95 61.4 48.9 61.75 48.85 61.85 48.6 61.45 48.65 61.2 48.55 61.1 48.55 60.95 48.6 60.9 48.55 60.8 48.45 60.35 48.35 60.4 48.3 60.5 48.3 60.9 48.3 60.95 48.3 61.4 48.3 61.85 48.25 61.95 Q47.85 62.0 47.9 61.55 L47.9 60.95 47.85 60.5 47.8 60.75 47.85 61.1 Q47.85 61.35 47.65 61.4 L47.6 61.05 47.6 60.85 47.6 60.55 47.45 60.6 47.5 60.95 Q47.45 61.2 47.55 61.35 L47.65 61.75 Q47.35 61.9 47.15 61.5 L47.15 61.45 46.95 61.05 47.0 60.85 47.0 60.7 46.75 60.75 46.75 60.8 46.75 61.0 46.75 61.05 46.85 61.4 46.85 61.8 Q46.55 61.85 46.45 61.6 L46.35 61.25 46.2 61.55 46.15 61.2 46.2 60.9 46.05 60.9 46.05 60.95 46.05 61.4 45.95 61.8 45.85 61.35 45.85 60.95 45.4 61.05 45.45 61.45 45.5 61.8 45.25 61.4 45.2 61.1 45.0 61.1 45.0 61.15 44.95 61.2 44.95 61.25 44.9 61.3 44.85 61.35 44.8 61.4 44.8 61.65 44.75 61.7 44.75 61.65 44.7 61.65 44.7 61.4 44.65 61.35 44.6 61.3 44.55 61.25 44.55 61.2 43.95 61.3 43.9 61.5 43.9 61.8 43.95 62.05 43.9 62.1 43.8 62.05 43.7 61.9 43.7 61.7 43.7 61.45 43.7 61.35 43.65 61.35 43.35 61.4 43.3 61.5 43.15 61.65 43.1 61.7 43.1 61.8 43.1 61.9 43.0 61.9 43.0 61.85 43.0 61.7 42.95 61.6 42.9 61.5 42.5 61.55 42.5 61.85 42.4 62.2 Q42.2 62.1 42.3 61.8 L42.35 61.55 41.9 61.65 41.95 62.05 Q42.0 62.4 41.75 62.35 L41.7 61.85 41.7 61.65 41.2 61.75 41.25 61.85 41.5 62.1 41.45 62.15 41.3 62.15 41.25 62.1 41.05 61.75 39.05 62.0 39.05 62.25 39.05 62.6 Q38.9 62.6 38.85 62.3 L38.85 62.05 38.55 62.05 38.55 62.3 38.5 62.7 Q38.3 62.6 38.35 62.35 L38.35 62.05 38.05 62.1 38.0 62.45 Q37.8 62.45 37.85 62.15 L37.85 62.1 37.6 62.15 37.5 62.5 37.4 62.9 Q37.15 62.85 37.2 62.55 L37.3 62.15 37.0 62.2 37.0 62.4 36.95 62.7 Q36.75 62.65 36.75 62.4 L36.75 62.2 36.55 62.25 36.45 62.4 36.3 62.25 35.8 62.3 35.9 62.4 35.6 62.3 34.35 62.35 34.4 62.55 34.4 62.7 34.2 62.5 34.2 62.35 33.65 62.35 33.65 62.4 33.65 62.7 33.6 62.7 33.5 62.55 33.45 62.35 33.1 62.35 33.05 62.45 33.05 62.85 33.05 63.15 32.8 62.8 32.9 62.4 32.95 62.35 32.6 62.35 32.6 62.65 32.55 62.95 Q32.3 62.95 32.35 62.6 L32.4 62.35 32.2 62.35 32.25 62.6 32.15 63.0 Q31.9 62.95 31.95 62.6 L32.0 62.35 31.45 62.3 31.7 62.65 31.8 62.95 31.3 62.6 31.15 62.3 29.7 62.25 29.7 62.3 29.55 62.25 29.0 62.2 29.0 62.4 29.0 62.45 28.8 62.3 28.8 62.2 28.35 62.15 28.35 62.2 28.4 62.35 28.35 62.5 Q28.15 62.55 28.15 62.4 L28.15 62.15 27.8 62.1 27.8 62.15 27.85 62.25 27.85 62.3 27.95 62.4 28.0 62.55 27.7 62.45 27.65 62.3 27.55 62.1 27.25 62.05 27.25 62.1 27.2 62.1 27.2 62.4 27.2 62.7 27.05 62.4 27.1 62.1 27.0 62.05 26.6 62.0 26.75 62.45 26.85 62.9 Q26.6 62.85 26.5 62.45 L26.4 61.95 25.9 61.9 25.7 61.9 25.85 62.25 26.0 62.55 25.6 62.25 25.45 61.85 24.65 61.75 24.7 61.95 24.7 62.35 24.45 62.05 24.45 61.7 24.0 61.6 24.2 61.9 24.3 62.2 23.9 62.05 Q23.55 62.15 23.3 61.75 L23.1 61.35 22.55 61.2 22.65 61.65 22.75 62.0 Q22.5 62.1 22.45 61.7 L22.35 61.2 22.35 61.15 22.15 61.1 22.15 61.35 22.15 61.8 22.1 62.1 22.0 61.75 21.95 61.3 21.95 61.0 21.8 60.95 21.8 61.25 21.85 61.75 22.0 62.25 22.05 62.65 21.8 62.25 21.65 61.65 21.55 61.15 21.55 61.05 21.4 61.05 21.1 60.9 20.85 60.65 20.8 60.6 20.55 60.45 20.5 60.5 Q20.35 60.65 20.25 60.4 L20.2 60.3 19.65 60.05 19.7 60.15 19.7 60.45 19.45 60.2 Q19.2 60.4 19.1 59.95 19.0 59.75 19.05 59.55 L18.9 59.15 18.8 58.45 18.65 57.8 18.5 57.2 18.55 57.15 18.55 57.1 18.6 57.1 18.7 57.05 18.75 57.05 18.85 57.05 18.95 57.15 18.95 57.2 19.0 57.25 19.0 57.3 18.95 57.35 18.95 57.4 18.9 57.45 19.0 57.9 19.05 58.5 19.1 58.8 19.15 58.35 19.1 57.7 19.3 57.4 19.4 58.0 19.35 58.6 19.35 58.75 19.5 58.5 19.5 58.45 19.5 57.95 19.7 57.6 19.8 58.05 19.8 58.25 20.05 58.15 19.95 57.8 Q19.85 57.5 20.05 57.35 L20.25 57.85 20.3 58.05 20.35 58.05 20.5 58.05 20.5 57.95 20.55 57.85 24.0 56.35 26.55 55.0 20.95 54.95 20.9 55.3 20.9 55.8 20.85 56.15 20.8 56.15 20.75 56.5 20.45 56.0 20.4 55.4 20.35 54.9 20.25 54.9 20.2 55.2 20.2 55.3 20.25 55.55 20.25 55.9 20.35 56.25 20.35 56.55 20.1 56.25 20.0 55.9 19.95 55.45 20.0 55.35 20.0 55.15 20.05 54.9 19.8 54.9 19.75 55.05 19.6 55.4 19.5 55.05 19.55 54.9 19.3 54.85 19.3 54.95 19.3 55.15 19.25 55.2 19.1 54.95 19.1 54.85 18.9 54.85 18.85 55.05 18.6 54.85 18.35 54.8 18.3 54.9 18.2 54.8 18.0 54.8 18.0 55.0 18.05 55.2 18.0 55.4 18.0 55.5 17.75 55.45 17.7 55.25 Q17.5 55.2 17.55 54.95 L17.6 54.8 17.4 54.8 17.35 54.95 17.3 55.0 17.2 54.9 17.2 54.75 17.0 54.75 17.0 54.95 17.0 55.3 16.95 55.6 16.85 55.7 Q16.55 55.7 16.6 55.4 L16.6 54.95 16.55 54.7 16.25 54.7 16.25 54.75 16.35 55.0 16.25 55.0 16.15 54.95 16.1 55.2 16.2 55.55 16.25 55.95 15.75 55.65 15.65 55.1 15.7 54.7 15.7 54.65 15.65 54.65 15.55 54.95 15.45 54.95 15.5 55.05 15.6 55.45 15.5 55.45 15.4 55.45 15.25 55.4 15.05 55.3 14.95 54.95 14.95 54.65 14.95 54.55 14.7 54.55 14.7 54.6 14.85 54.95 14.85 55.35 Q14.5 55.4 14.35 55.05 L14.35 54.9 14.3 54.85 14.2 54.5 13.85 54.45 13.85 54.75 13.85 54.8 14.0 55.15 14.0 55.55 Q13.65 55.6 13.55 55.2 L13.45 54.7 13.4 54.4 13.05 54.35 13.05 54.4 13.05 54.45 13.05 54.5 13.0 54.6 12.95 54.7 12.9 54.75 12.95 54.9 13.0 55.2 13.0 55.4 13.05 55.65 13.0 55.9 Q12.75 55.9 12.65 55.7 L12.55 55.25 12.45 54.85 12.4 54.75 12.4 55.0 12.4 55.5 12.2 55.95 Q11.95 55.8 12.0 55.5 L12.0 55.0 12.0 54.65 11.9 55.1 11.9 55.7 11.7 56.1 Q11.4 55.95 11.45 55.55 L11.5 55.0 11.55 54.5 11.4 54.9 11.4 55.3 11.35 55.7 11.3 55.95 11.0 55.7 11.0 55.25 10.9 54.8 10.85 54.35 10.85 54.25 10.9 54.2 11.0 54.1 10.0 54.0 9.95 54.2 9.75 54.05 9.75 53.95 9.35 53.9 9.4 53.95 9.5 54.1 9.75 54.55 9.85 55.05 10.1 55.45 10.15 55.85 Q9.8 55.9 9.65 55.55 L9.4 55.0 Q9.25 54.75 9.25 54.5 L9.3 54.3 9.1 54.1 9.0 53.85 8.7 53.8 8.8 53.9 9.05 54.15 Q8.75 54.35 8.45 53.95 L8.3 53.7 6.75 53.45 6.25 53.35 6.4 53.5 6.55 53.75 Q6.35 53.9 6.15 53.65 L5.9 53.3 5.9 53.25 5.45 53.1 5.45 53.15 5.5 53.3 5.5 53.45 5.55 53.6 5.5 53.7 5.35 53.65 5.25 53.5 5.25 53.4 5.25 53.2 5.25 53.1 5.25 53.05 5.2 53.0 5.15 53.0 4.85 52.8 4.8 52.9 4.8 53.35 4.7 53.65 4.5 53.3 4.6 52.85 4.65 52.7 4.4 52.6 4.4 52.75 4.45 53.15 4.35 53.45 4.2 53.1 4.2 52.7 4.2 52.45 3.4 51.8 3.35 51.75 3.35 52.05 3.1 51.7 3.15 51.45 3.05 50.75 2.8 50.45 2.7 50.4 2.7 50.6 2.75 51.0 2.85 51.4 2.85 51.75 2.6 51.4 2.55 51.0 2.45 50.55 2.6 50.25 2.45 50.0 2.3 49.75 2.3 49.55 2.45 49.75 2.6 50.0 2.7 50.2 2.75 50.35 2.75 50.3 2.65 49.6 2.45 49.0 Q2.35 48.7 2.55 48.6 L2.8 49.15 2.95 49.75 3.1 50.35 3.1 50.1 3.05 49.5 2.95 48.9 Q2.9 48.65 3.1 48.55 L3.25 49.05 3.3 49.6 3.35 49.85 3.4 49.8 3.4 49.5 3.4 48.95 Q3.4 48.75 3.55 48.65 L3.7 49.1 3.7 49.5 3.95 49.3 3.85 49.05 Q3.75 48.8 3.8 48.55 L3.8 48.5 3.85 48.5 3.95 48.45 4.0 48.45 4.1 48.45 4.2 48.55 4.2 48.6 4.25 48.65 4.25 48.75 4.2 48.8 4.15 48.9 4.2 49.2 4.3 49.15 4.45 49.2 4.6 49.25 Q6.3 47.85 8.8 47.15 13.1 45.9 16.85 43.6 18.25 42.75 18.6 41.15 L18.6 40.4 17.65 40.0 Q16.95 39.8 16.45 39.3 L16.0 38.75 15.8 38.55 13.9 38.3 11.6 37.6 11.6 37.75 11.5 37.9 11.5 38.0 11.45 38.2 11.45 38.3 11.3 38.15 11.3 37.95 11.25 37.85 11.25 37.75 11.2 37.75 11.15 37.95 11.15 38.1 11.15 38.2 11.0 38.35 10.9 38.2 10.85 38.25 Q10.65 38.3 10.55 38.1 L10.5 37.8 10.45 37.8 10.25 37.4 10.3 37.15 9.9 37.0 9.9 37.05 9.9 37.45 9.8 37.75 9.65 37.45 9.65 37.05 9.7 36.9 9.45 36.85 9.45 37.05 Q9.4 37.25 9.5 37.45 L9.45 37.8 9.15 37.5 9.15 37.0 9.15 36.75 8.85 36.6 8.85 36.75 9.0 37.2 9.1 37.5 Q8.8 37.6 8.65 37.25 L8.5 36.7 8.5 36.45 8.05 36.3 8.1 36.55 8.25 37.0 8.35 37.05 8.4 37.15 8.45 37.2 8.45 37.35 8.35 37.7 8.3 37.95 8.25 38.3 8.15 38.5 7.95 38.3 7.95 37.95 7.85 37.7 7.75 37.3 7.75 37.2 7.75 37.15 7.85 37.05 7.9 37.05 7.85 36.95 7.75 36.4 7.75 36.15 7.35 35.95 7.35 36.3 7.4 36.7 7.4 36.75 7.45 36.7 7.55 36.7 7.7 37.15 7.7 37.6 7.75 38.0 Q7.85 38.3 7.55 38.35 7.25 38.2 7.3 37.85 L7.3 37.45 7.3 37.0 7.25 36.95 7.1 36.9 7.1 36.85 7.05 36.5 7.05 36.15 7.0 35.8 6.95 35.8 6.8 35.9 6.75 36.1 6.75 36.35 6.75 36.65 6.75 36.7 6.8 36.75 6.85 36.8 6.85 36.85 6.8 36.9 6.8 36.95 6.75 36.95 6.6 37.0 6.45 37.0 6.4 36.65 6.45 36.25 6.5 35.9 6.55 35.7 6.5 35.55 6.15 35.4 6.0 35.35 6.15 35.45 6.2 35.5 6.2 35.7 6.15 35.7 6.15 35.75 6.2 35.8 6.3 36.05 6.2 36.35 6.2 36.75 6.2 37.1 6.15 37.15 5.95 37.0 5.9 36.6 5.85 36.2 5.85 35.85 5.9 35.8 5.9 35.75 5.75 35.7 5.75 35.4 5.75 35.2 5.5 35.05 5.5 35.4 5.4 35.65 5.35 35.65 5.5 36.0 5.5 36.5 5.7 36.95 5.75 37.25 Q5.45 37.25 5.35 36.9 L5.25 36.35 5.15 35.9 5.3 35.6 5.2 35.35 5.25 34.95 5.3 34.9 Q4.45 34.2 4.05 33.2 L4.05 33.3 4.0 33.45 4.0 33.5 3.8 33.25 3.7 32.9 3.65 32.7 3.5 33.1 3.35 32.6 3.35 32.0 3.3 31.45 3.5 31.15 3.65 31.6 3.65 32.15 3.65 32.65 3.7 32.45 3.7 32.4 3.75 32.35 3.8 32.35 3.75 30.75 3.7 30.85 Q3.45 30.9 3.3 30.6 L3.15 30.2 3.05 29.8 Q3.0 29.6 3.2 29.55 L3.35 29.85 3.45 30.2 3.65 30.55 3.75 30.7 3.8 30.6 3.45 30.1 Q3.3 29.85 3.55 29.75 L3.85 30.1 3.9 29.95 Q4.0 29.6 4.25 29.4 L4.2 29.35 4.3 29.35 Q4.45 29.15 4.7 29.1 L4.7 29.2 Q6.9 28.4 9.45 28.3 L11.6 28.15 Q14.95 27.85 16.8 25.45 17.3 24.8 17.1 24.05 15.35 23.3 13.3 23.5 12.3 23.6 11.5 23.15 L11.05 22.9 10.95 22.9 Q9.6 23.1 8.0 22.5 L8.0 22.55 7.95 22.7 7.9 22.85 7.8 23.0 7.75 22.95 7.7 22.85 7.65 22.75 7.55 23.1 7.45 23.45 7.35 23.0 7.3 22.65 7.3 22.8 7.35 23.3 7.25 23.7 7.2 23.7 7.2 23.75 7.15 24.05 6.95 23.7 6.9 23.7 6.95 23.8 6.95 24.0 7.05 24.2 7.1 24.4 7.0 24.55 6.9 24.35 6.8 24.1 6.7 23.85 6.6 23.55 6.55 23.5 6.6 23.45 6.6 23.35 6.75 23.3 6.8 23.25 6.85 23.3 6.75 23.05 Q6.6 22.9 6.6 22.6 L6.65 22.15 6.65 22.1 6.65 21.9 6.45 21.8 6.45 22.0 6.4 22.45 6.4 22.9 6.55 23.35 6.45 23.35 6.35 23.3 6.3 23.25 6.25 23.15 6.1 23.4 6.05 23.1 6.05 22.8 6.05 22.45 6.05 22.2 6.1 22.15 6.1 22.05 6.15 21.9 6.2 21.8 6.15 21.65 5.95 21.55 5.9 22.0 5.8 22.4 5.75 22.55 5.8 22.75 5.8 23.2 5.9 23.7 5.85 24.0 5.65 23.65 5.6 23.15 5.5 22.7 5.6 22.4 5.6 22.35 5.65 21.95 5.65 21.5 5.65 21.4 5.55 21.35 5.5 21.85 5.5 22.35 5.35 22.75 5.3 22.3 5.3 21.8 5.25 21.3 5.25 21.2 5.0 21.05 5.05 21.1 5.1 21.15 5.15 21.2 5.15 21.25 5.15 21.35 5.15 21.45 5.15 21.5 5.15 21.6 5.1 21.65 4.95 21.65 5.0 21.8 5.05 22.3 5.05 22.7 4.85 22.3 4.75 21.75 4.65 21.4 Q4.4 21.4 4.45 21.1 L4.5 20.8 4.1 20.55 4.1 20.8 4.05 21.15 4.05 21.45 4.0 21.6 Q3.75 21.6 3.8 21.3 L3.85 20.9 3.9 20.4 3.75 20.3 3.7 20.8 3.7 21.3 3.7 21.8 Q3.4 21.75 3.45 21.3 L3.5 20.75 3.45 20.2 3.45 20.1 3.25 19.9 3.25 19.95 3.25 20.1 3.2 20.2 Q2.95 20.25 2.8 20.0 L2.7 19.7 2.7 19.45 2.15 18.85 2.2 19.15 2.15 19.35 2.0 19.15 2.0 18.8 2.0 18.7 1.95 18.65 1.95 18.75 1.8 19.05 1.75 18.85 1.75 18.5 1.8 18.4 1.55 18.1 1.55 18.15 1.55 18.35 1.55 18.55 1.45 18.7 1.35 18.6 1.35 18.5 1.35 18.35 1.35 18.25 1.35 18.1 1.3 18.05 1.25 18.0 1.25 17.95 1.2 17.9 1.2 17.75 1.25 17.7 1.3 17.7 1.2 17.55 1.2 17.7 1.2 17.75 M63.25 11.5 L63.15 11.65 63.1 11.7 63.2 11.85 63.25 11.5 M63.85 12.25 L63.85 12.45 63.85 12.6 63.85 12.8 63.75 12.95 63.7 12.8 63.75 12.55 63.75 12.4 63.75 12.25 63.85 12.25 M63.3 13.85 L63.3 14.2 63.2 14.5 63.1 14.2 63.1 13.85 63.1 13.45 Q63.1 13.25 63.25 13.2 L63.3 13.55 63.3 13.85 M62.2 16.85 Q62.05 17.0 62.05 17.2 L61.95 17.6 61.9 17.9 61.75 17.65 61.85 17.2 61.95 16.8 62.25 16.5 62.2 16.85 M60.9 16.85 L61.05 17.1 61.1 17.35 61.2 17.6 61.25 17.9 60.95 17.75 60.85 17.4 60.8 17.05 Q60.75 16.9 60.9 16.9 L60.9 16.85 M61.35 16.95 L61.4 16.9 61.45 16.8 61.5 16.8 61.55 16.85 61.6 16.9 61.7 16.95 61.7 17.05 61.65 17.25 Q61.55 17.35 61.6 17.5 L61.65 17.75 61.55 18.0 61.4 17.85 61.4 17.6 61.35 17.4 61.25 17.1 61.3 17.0 61.35 16.95 M61.0 18.55 L61.05 18.6 61.0 18.65 61.0 18.7 60.95 18.75 61.0 19.0 61.05 19.25 61.15 19.6 61.25 19.95 Q61.0 19.95 60.9 19.75 L60.8 19.3 60.65 18.9 60.55 18.55 60.6 18.5 60.6 18.45 60.65 18.4 60.7 18.4 60.8 18.35 60.9 18.4 60.95 18.45 61.0 18.5 61.0 18.55 M62.7 17.4 L62.6 17.6 62.55 17.7 62.5 17.85 62.4 17.95 62.4 17.9 62.4 17.75 62.35 17.65 62.35 17.55 62.3 17.45 62.25 17.3 62.3 17.25 62.3 17.2 62.35 17.15 62.4 17.15 62.5 17.1 62.6 17.15 62.65 17.2 62.7 17.25 62.7 17.3 62.7 17.4 M63.0 17.45 L63.0 17.65 63.05 17.85 62.95 17.95 62.85 17.8 62.85 17.6 62.8 17.45 62.85 17.35 62.95 17.35 63.0 17.45 M62.3 19.25 L62.35 19.55 62.4 19.6 62.4 19.5 62.65 19.15 Q62.85 19.3 62.7 19.55 L62.45 19.95 62.35 20.4 62.25 20.8 Q62.05 20.7 62.1 20.4 L62.2 19.95 62.3 19.85 62.2 19.7 62.1 19.45 62.0 19.6 61.9 20.0 61.8 20.35 61.7 19.95 61.85 19.55 62.0 19.05 62.05 18.9 Q62.05 18.7 62.2 18.65 62.35 18.7 62.3 18.9 L62.3 19.0 62.3 19.25 M62.75 20.05 L62.85 20.25 62.8 20.55 62.75 20.8 62.65 21.0 62.55 20.8 62.6 20.55 62.6 20.25 62.7 20.1 62.75 20.05 M61.8 18.65 L61.85 18.7 61.85 18.75 61.8 19.05 61.7 19.4 61.7 19.8 61.6 20.2 61.45 20.05 61.45 19.75 61.45 19.45 61.5 19.1 61.5 19.0 61.5 18.95 61.45 18.9 61.45 18.85 61.4 18.8 61.4 18.75 61.45 18.7 61.5 18.65 61.55 18.6 61.65 18.55 61.75 18.6 61.8 18.65 M63.25 24.5 L63.3 24.5 63.25 24.5 M63.7 24.6 L63.55 24.95 63.55 25.0 63.6 25.05 63.6 25.2 63.65 25.2 63.65 25.0 63.7 24.65 63.7 24.6 M59.75 1.35 L59.8 1.7 59.8 2.05 59.9 2.45 60.05 2.75 59.7 2.55 59.6 2.1 59.6 1.65 59.65 1.35 59.75 1.35 M60.55 1.45 L60.6 1.8 60.55 2.25 60.5 2.7 60.4 3.05 60.3 2.6 60.35 2.2 60.35 1.75 60.5 1.45 60.55 1.45 M58.25 2.8 L58.15 3.05 58.3 2.9 58.35 3.4 58.15 3.9 58.0 4.5 57.7 4.85 Q57.6 4.6 57.75 4.3 L57.95 3.85 58.05 3.3 58.0 3.45 57.8 4.1 57.45 4.5 57.55 3.9 57.8 3.25 58.0 2.6 Q58.05 2.3 58.25 2.2 L58.25 2.8 M57.7 2.8 L57.5 3.35 57.3 3.9 57.1 4.25 Q57.05 4.0 57.15 3.7 L57.3 3.15 57.5 2.6 57.8 2.2 57.7 2.8 M58.2 3.9 L58.4 3.65 58.5 3.95 58.4 4.3 58.4 4.7 58.25 5.0 58.15 4.65 58.15 4.3 58.2 3.9 M60.3 3.75 L60.35 3.9 60.3 4.1 60.25 4.3 60.25 4.5 60.3 4.5 60.25 4.55 60.15 4.65 60.1 4.75 60.05 4.7 60.05 4.55 60.1 4.5 60.1 4.45 60.1 4.25 60.15 4.1 60.15 3.9 60.25 3.75 60.3 3.75 M58.8 4.3 L58.8 4.65 58.8 4.95 58.8 5.3 58.6 4.95 58.6 4.55 58.6 4.2 58.7 4.0 58.8 4.3 M59.3 4.25 Q59.3 4.15 59.4 4.2 L59.5 4.4 59.5 4.65 59.5 4.9 59.5 5.1 59.3 4.85 59.3 4.55 59.3 4.25 M60.45 6.4 L60.5 6.95 60.45 7.45 60.3 7.95 60.2 8.35 60.15 7.85 60.3 7.35 60.35 6.85 60.45 6.4 M60.15 33.65 L59.85 33.35 59.7 32.85 59.6 32.4 Q59.55 32.2 59.75 32.15 L59.9 32.55 59.95 32.9 60.05 33.3 60.15 33.65 60.15 33.1 60.2 32.6 Q60.2 32.35 60.35 32.25 L60.45 32.7 60.4 33.2 60.4 33.4 60.5 32.85 Q60.55 32.55 60.75 32.5 L60.75 33.0 60.6 33.5 60.55 34.05 60.45 34.45 60.35 34.05 60.25 34.15 60.15 33.65 M60.7 35.55 L60.75 35.55 60.8 35.8 60.8 36.0 60.8 36.25 60.8 36.5 60.65 36.3 60.7 36.0 60.7 35.75 60.7 35.55 M64.05 25.5 L64.1 25.6 64.1 25.7 64.15 25.85 64.1 25.95 64.1 26.0 63.95 25.95 63.9 25.75 63.9 25.6 63.95 25.5 64.05 25.5 M63.4 25.4 L63.4 25.45 63.45 25.4 63.4 25.4 M62.15 28.2 L62.0 28.35 62.0 28.6 61.95 28.75 61.95 28.9 61.95 29.15 62.0 29.1 62.0 28.9 62.1 28.35 62.15 28.2 M63.05 29.0 L63.15 29.1 63.2 29.2 63.25 29.25 63.1 29.65 62.95 30.0 62.95 30.45 62.75 30.8 62.65 30.45 62.65 30.2 62.7 29.85 62.75 29.5 62.75 29.3 62.75 29.2 62.85 29.15 62.9 29.05 62.95 28.95 62.95 28.9 63.05 28.9 63.05 29.0 M61.3 29.15 L61.3 28.95 61.25 29.0 61.3 29.15 M63.75 29.0 L63.85 29.15 63.9 29.35 63.85 29.5 63.7 29.65 63.65 29.8 63.55 29.8 63.55 29.75 63.55 29.6 63.5 29.45 63.45 29.35 63.45 29.25 63.5 29.15 63.6 29.05 63.65 29.0 63.75 29.0 M61.6 33.1 L61.6 33.4 61.6 33.65 61.55 33.9 Q61.4 33.85 61.4 33.65 L61.4 33.35 61.4 33.0 61.5 32.8 61.55 32.8 61.6 33.1 M61.95 32.85 L62.05 32.7 62.1 32.7 62.1 32.95 62.1 33.2 62.1 33.4 62.1 33.65 61.95 33.4 62.0 33.15 61.95 32.85 M61.25 32.75 L61.25 33.05 61.1 33.45 61.05 33.8 61.0 34.1 60.85 33.85 60.85 33.4 60.95 33.0 61.25 32.75 M62.1 35.5 L62.05 35.65 62.0 35.8 61.95 36.0 61.9 36.05 61.85 36.0 61.85 35.85 61.8 35.8 61.8 35.75 61.9 35.6 61.95 35.5 62.0 35.35 62.0 35.3 62.1 35.3 62.1 35.5 M62.5 35.55 L62.55 35.7 62.6 35.95 62.6 36.2 62.5 36.05 62.45 35.9 62.4 35.75 62.35 35.6 62.35 35.5 62.35 35.4 62.35 35.35 62.4 35.3 62.45 35.3 62.5 35.55 M61.35 35.45 L61.3 35.8 61.3 36.1 61.25 36.4 61.15 36.1 61.15 35.75 61.15 35.35 61.25 35.15 61.35 35.45 M61.75 35.3 L61.8 35.25 61.8 35.5 61.7 35.75 61.6 36.0 61.55 36.2 61.5 36.25 61.4 36.0 61.45 35.75 61.55 35.45 61.75 35.3 M63.95 45.55 L63.85 45.95 63.75 46.3 63.7 46.65 Q63.55 46.55 63.55 46.25 L63.65 45.85 63.7 45.4 63.95 45.2 63.95 45.55 M61.95 48.1 L61.8 48.3 61.8 48.6 61.85 49.0 61.85 49.05 61.9 48.6 61.95 48.1 M61.05 49.3 L60.95 49.4 60.9 49.55 60.9 49.8 60.95 49.95 60.95 50.15 60.85 50.2 60.95 50.55 60.65 50.35 60.6 50.15 60.5 50.35 60.35 50.1 60.2 50.25 60.15 50.45 60.05 50.6 60.0 50.7 59.85 50.6 59.85 50.75 59.9 51.0 59.6 50.9 59.85 51.75 60.2 52.6 60.25 52.85 60.25 52.4 60.25 51.8 60.35 51.4 60.3 51.0 Q60.25 50.55 60.55 50.5 L60.7 51.3 60.65 52.15 60.75 52.9 60.85 52.5 60.95 51.95 61.0 51.95 61.0 51.9 60.95 51.8 60.85 51.65 60.9 51.5 61.0 51.4 61.0 50.85 Q60.95 50.45 61.25 50.4 L61.25 50.15 61.25 49.8 61.25 49.65 61.15 49.6 61.1 49.4 61.05 49.3 M8.85 0.3 L8.85 0.5 8.8 0.65 Q8.7 0.75 8.75 0.55 L8.75 0.3 8.85 0.3 M6.05 2.35 L6.15 2.35 6.2 2.5 6.3 2.65 6.3 2.8 6.35 2.95 6.2 2.85 6.15 2.7 6.1 2.6 6.05 2.4 6.05 2.35 M7.15 2.0 L7.15 2.15 7.15 2.2 7.2 2.25 7.3 2.35 7.35 2.5 7.3 2.65 7.25 2.75 7.25 2.85 7.25 3.05 7.1 2.95 7.0 2.8 6.95 2.75 6.85 2.55 6.85 2.5 6.9 2.35 7.05 2.2 7.05 2.15 7.05 2.0 7.15 2.0 M5.55 3.9 L5.55 4.1 5.45 4.35 5.4 4.55 5.3 4.8 5.25 4.55 5.35 4.35 5.4 4.1 5.55 3.9 M5.1 4.2 L5.05 4.25 5.0 4.3 4.95 4.35 4.9 4.4 4.9 4.5 4.85 4.55 4.85 4.75 Q4.75 4.85 4.75 4.7 L4.7 4.6 4.7 4.4 4.7 4.3 4.7 4.15 4.65 4.05 4.75 3.95 4.8 3.9 4.9 3.85 4.95 3.75 4.95 3.85 5.0 3.85 5.05 3.95 5.1 4.0 5.15 4.1 5.1 4.2 M5.95 4.2 L5.95 4.15 6.0 4.15 6.15 4.35 6.25 4.5 6.3 4.7 6.3 4.8 6.2 4.85 6.05 4.7 6.0 4.45 5.95 4.3 5.95 4.2 M4.15 1.4 L4.25 1.75 4.4 2.1 4.55 2.5 4.15 2.15 3.95 1.7 3.85 1.25 Q3.8 1.0 4.05 1.0 L4.15 1.4 M2.95 1.25 L2.9 1.75 2.95 2.25 2.85 2.8 Q2.6 2.7 2.65 2.25 L2.65 1.7 2.65 1.1 Q2.6 0.75 2.8 0.7 L2.85 0.7 2.95 1.25 M3.55 1.35 L3.55 1.8 3.55 2.25 3.55 2.65 Q3.25 2.6 3.25 2.2 L3.3 1.7 3.25 1.15 Q3.2 0.9 3.45 0.9 L3.55 1.35 M2.2 0.65 Q2.6 0.85 2.45 1.25 L2.4 1.95 2.5 2.65 2.45 3.2 2.15 2.65 2.1 1.9 1.95 1.2 Q1.8 0.8 2.2 0.65 M0.95 1.75 L1.1 2.1 1.2 2.5 1.45 2.8 1.65 3.25 1.25 2.9 1.0 2.4 0.85 1.95 Q0.7 1.75 0.95 1.75 M1.85 2.15 L2.05 2.75 2.25 3.3 Q1.9 3.25 1.8 2.8 L1.55 2.15 1.3 1.5 Q1.15 1.15 1.45 1.1 L1.6 1.65 1.85 2.15 M3.9 3.75 L3.95 3.9 4.0 4.1 4.0 4.3 4.05 4.45 4.05 4.5 4.15 4.6 4.15 4.65 4.05 4.7 3.95 4.65 3.85 4.55 3.85 4.35 3.8 4.15 3.75 4.0 3.8 3.8 3.9 3.75 M4.15 6.95 L4.15 7.25 4.2 7.45 4.2 7.7 3.95 7.55 3.9 7.25 3.8 6.95 Q3.8 6.8 3.95 6.8 L4.15 6.95 M4.35 7.1 Q4.35 6.95 4.5 6.95 L4.55 7.15 4.6 7.35 4.65 7.55 4.65 7.75 4.6 7.8 4.5 7.65 4.4 7.4 4.35 7.1 M3.15 6.75 L3.1 6.8 3.1 6.9 3.25 7.05 3.25 7.1 3.2 7.4 3.15 7.65 3.15 7.95 3.0 8.2 2.85 8.0 2.85 7.85 2.85 7.65 2.9 7.5 2.9 7.4 2.9 7.35 2.85 7.3 2.85 7.25 2.8 7.2 2.8 7.1 2.9 7.0 3.0 6.9 3.05 6.8 3.1 6.7 3.15 6.75 M3.7 7.45 L3.65 7.85 3.6 8.1 3.45 7.85 3.45 7.45 3.45 7.1 3.6 6.8 3.7 7.1 3.7 7.45 M2.8 8.25 L2.45 7.8 2.2 7.35 1.95 6.9 Q1.8 6.6 2.05 6.55 L2.25 7.0 2.5 7.45 2.75 7.9 2.8 8.25 M0.95 11.25 L1.15 10.95 1.25 11.5 1.35 12.05 1.55 12.6 1.6 12.05 1.65 11.5 Q1.6 11.2 1.8 11.05 L1.95 11.55 1.85 12.05 1.85 12.6 1.75 13.05 1.6 12.95 1.55 13.0 Q1.25 12.85 1.2 12.45 L1.05 11.85 0.95 11.25 M2.25 11.55 L2.2 11.9 2.15 12.3 2.0 12.55 1.95 12.25 2.0 11.9 2.0 11.5 Q2.0 11.3 2.15 11.2 L2.25 11.55 M2.45 11.95 L2.45 12.25 2.4 12.5 2.35 12.75 2.25 12.55 2.25 12.2 2.25 11.9 2.35 11.7 2.45 11.95 M0.05 12.95 L0.15 13.0 0.2 13.05 0.25 13.15 0.25 13.2 0.25 13.3 0.15 13.4 0.2 13.7 0.25 14.0 0.3 14.4 0.35 14.75 0.35 14.8 Q0.15 14.8 0.15 14.5 L0.05 14.05 -0.05 13.6 -0.2 13.2 -0.15 13.1 -0.15 13.05 -0.1 13.0 -0.05 12.95 0.0 12.9 0.0 12.85 0.05 12.95 M0.65 13.3 L0.6 13.65 0.65 14.0 0.65 13.65 0.65 13.3 M1.0 13.35 L0.95 13.55 0.95 13.6 1.0 13.55 1.0 13.5 1.0 13.35 M0.85 16.8 L0.9 17.25 0.95 17.7 0.95 17.6 0.95 17.1 0.95 17.05 0.85 16.8 M3.15 19.85 L3.05 19.75 3.05 19.8 3.15 19.95 3.15 19.85 M2.6 20.5 L2.55 20.25 2.65 20.15 2.8 20.45 2.85 20.8 3.05 21.1 3.15 21.3 2.7 21.0 2.7 20.9 2.65 20.9 Q2.25 20.9 2.1 20.55 L2.05 20.0 2.0 19.6 Q1.95 19.5 2.05 19.45 L2.15 19.4 2.35 19.75 2.4 20.2 2.55 20.5 2.6 20.5 M4.9 21.0 L4.75 20.9 4.9 21.1 4.9 21.05 4.9 21.0 M1.55 20.0 L1.7 20.45 1.8 20.9 2.05 21.2 2.1 21.55 Q1.75 21.55 1.6 21.2 L1.45 20.75 1.35 20.3 1.45 20.05 1.55 20.0 M2.25 22.3 Q2.2 22.2 2.3 22.15 L2.4 22.3 2.4 22.55 2.45 22.7 2.55 22.9 2.55 22.95 2.4 22.8 2.3 22.55 2.25 22.3 M1.25 24.2 L1.4 23.9 1.5 24.2 1.4 24.55 1.3 24.95 1.25 25.25 1.2 24.95 1.2 24.6 1.25 24.2 M4.1 21.7 Q4.05 21.45 4.25 21.4 L4.4 21.8 4.5 22.2 4.65 22.6 4.75 22.95 4.4 22.65 4.2 22.15 4.1 21.7 M4.0 22.15 L4.0 22.55 4.05 23.0 4.1 23.1 Q4.15 22.85 4.35 22.85 L4.4 23.4 4.55 24.0 4.6 24.1 4.7 24.4 4.8 24.6 4.95 25.0 4.75 24.95 4.75 25.0 4.9 25.5 4.9 25.95 4.75 25.9 4.75 26.15 4.75 26.65 4.7 27.2 Q4.35 27.15 4.4 26.65 L4.45 26.1 4.45 25.65 4.3 25.45 4.05 25.1 3.9 24.7 Q3.85 24.55 4.05 24.55 L4.2 24.85 4.3 25.15 4.4 25.35 4.55 25.15 4.5 24.95 4.45 24.55 4.4 24.45 4.15 23.8 4.15 23.95 4.25 24.25 4.35 24.55 4.05 24.2 4.0 23.85 3.9 23.5 4.0 23.3 4.05 23.3 Q3.8 23.2 3.8 22.9 L3.8 22.45 3.75 21.95 Q3.75 21.75 3.9 21.7 L4.0 22.15 M4.85 23.05 L4.95 23.3 5.0 23.5 5.05 23.75 5.1 23.9 5.2 23.75 5.3 24.2 5.2 24.75 5.25 25.1 5.35 25.6 5.25 26.2 5.25 26.8 4.95 27.2 4.85 26.7 4.95 26.1 4.95 25.5 5.0 25.3 5.0 24.7 5.0 24.1 5.05 24.05 4.95 23.8 4.85 23.5 4.75 23.25 Q4.7 23.1 4.8 23.05 L4.85 23.05 M3.45 22.0 L3.55 22.3 3.55 22.7 3.55 23.05 3.5 23.4 3.3 23.05 3.35 22.65 3.35 22.2 3.45 22.0 M3.05 23.0 L3.15 23.4 Q2.95 23.5 2.85 23.05 L2.8 22.5 2.7 21.95 Q2.7 21.75 2.85 21.65 L3.0 22.05 3.0 22.5 3.05 23.0 M3.35 24.05 L3.35 24.5 3.45 24.9 3.5 25.05 Q3.9 25.2 3.75 25.6 3.65 25.85 3.7 26.15 L3.9 26.75 4.1 27.3 Q3.7 27.25 3.55 26.8 L3.4 26.1 3.3 25.4 Q3.25 25.2 3.35 25.1 L3.25 24.85 3.2 24.4 3.1 23.95 Q3.05 23.7 3.25 23.7 L3.35 24.05 M6.9 22.0 L6.85 22.1 6.9 22.35 7.0 22.65 7.0 22.5 7.0 22.25 6.95 22.0 6.9 22.0 M7.0 23.05 L7.05 23.35 7.1 23.55 7.1 23.45 7.1 23.3 7.1 23.2 7.1 23.05 7.0 23.05 M5.55 24.5 L5.55 24.1 Q5.55 23.9 5.7 23.95 L5.75 24.3 5.75 24.65 5.75 24.7 Q6.05 24.8 5.9 25.1 L5.85 25.3 5.9 25.6 6.05 25.9 6.15 26.2 5.85 26.0 5.8 25.9 5.75 26.15 5.75 26.2 5.85 26.35 5.95 26.6 5.75 26.55 5.7 26.6 Q5.4 26.6 5.4 26.2 L5.45 26.0 5.4 25.7 5.5 25.45 5.6 25.5 5.6 25.35 5.55 25.3 5.55 25.1 5.5 25.0 Q5.45 24.8 5.55 24.7 L5.55 24.5 M6.2 24.25 L6.2 24.6 6.2 24.55 6.25 24.5 6.35 24.4 6.4 24.4 6.35 24.3 6.25 23.95 6.35 23.75 6.4 23.7 6.55 23.95 6.55 24.15 6.65 24.4 6.65 24.7 6.7 24.75 6.8 24.9 6.8 24.95 6.75 24.95 6.55 24.95 6.5 25.15 6.45 25.4 6.35 25.7 6.3 25.7 6.3 25.55 6.25 25.4 6.25 25.25 6.25 25.1 6.0 24.9 5.95 24.55 5.95 24.25 Q5.9 24.1 6.0 24.0 L6.05 24.0 6.2 24.25 M2.65 25.65 Q2.6 25.3 2.85 25.25 L2.9 25.75 2.95 26.3 3.1 26.8 3.25 27.2 Q2.95 27.35 2.85 26.8 L2.75 26.2 2.65 25.65 M3.25 27.3 L3.35 27.75 3.35 28.2 3.35 28.65 3.25 29.0 Q3.1 28.85 3.1 28.55 L3.15 28.1 3.1 27.65 Q3.1 27.4 3.25 27.3 M3.95 27.7 L3.85 28.15 3.8 28.6 3.65 29.0 3.5 28.6 3.6 28.15 3.65 27.65 3.85 27.25 3.95 27.7 M1.9 25.2 L1.85 24.85 2.0 24.65 2.1 25.0 2.1 25.3 2.15 25.65 2.0 25.85 1.95 25.5 1.9 25.2 M2.35 26.85 L2.65 27.35 2.8 27.9 2.95 28.5 3.0 28.95 2.6 28.45 2.45 27.85 2.25 27.2 Q2.15 26.95 2.35 26.85 M1.8 27.2 L2.0 27.7 2.15 28.25 Q1.8 28.1 1.75 27.7 L1.55 27.1 1.45 26.55 Q1.4 26.2 1.65 26.15 L1.7 26.65 1.8 27.2 M2.5 29.85 L2.65 29.75 2.75 29.8 2.85 29.85 2.85 29.9 2.9 29.95 2.9 30.05 2.85 30.05 2.85 30.1 2.8 30.15 2.75 30.2 2.75 30.3 2.75 30.5 2.75 30.65 2.75 30.75 2.7 30.95 2.7 31.0 2.6 30.95 2.6 30.75 2.6 30.65 2.6 30.5 2.6 30.3 2.6 30.25 2.55 30.2 2.45 30.1 2.45 29.9 2.5 29.85 M1.35 30.55 L1.4 30.55 1.5 30.75 1.6 30.9 1.75 31.1 1.8 31.3 1.8 31.35 1.55 31.25 1.4 31.0 1.3 30.75 Q1.25 30.6 1.35 30.55 M2.15 30.65 L2.25 31.05 2.35 31.4 2.0 31.1 1.9 30.6 1.85 30.15 2.0 29.85 2.15 30.25 2.15 30.65 M4.6 28.45 L4.6 28.7 4.55 28.95 4.5 29.1 4.45 28.9 4.4 28.65 4.4 28.4 4.5 28.3 4.55 28.3 4.6 28.45 M4.4 28.1 L4.45 28.25 4.4 28.35 4.35 28.45 4.35 28.5 4.35 28.6 4.35 28.75 4.35 28.9 4.25 29.0 4.1 28.75 4.2 28.5 4.25 28.2 Q4.2 28.1 4.3 28.05 L4.4 28.0 4.4 28.1 M3.2 31.5 L3.15 31.5 3.15 31.55 3.1 31.6 3.05 31.65 3.15 31.9 3.25 32.2 3.3 32.5 3.3 32.8 3.25 32.85 3.05 32.55 2.95 32.2 2.8 31.8 2.7 31.4 2.75 31.35 2.8 31.3 2.85 31.25 2.95 31.2 3.05 31.25 3.1 31.3 3.15 31.35 3.15 31.4 3.2 31.45 3.2 31.5 M2.75 32.25 L2.95 32.55 2.95 32.85 Q2.75 32.8 2.7 32.55 L2.55 32.2 2.35 31.85 Q2.3 31.7 2.4 31.65 L2.5 31.6 2.6 31.95 2.75 32.25 M1.55 33.85 L1.55 34.45 1.6 35.0 1.75 35.5 1.35 35.0 1.25 34.35 1.25 33.75 Q1.25 33.4 1.55 33.35 L1.55 33.85 M2.35 34.05 Q2.3 33.75 2.55 33.75 L2.6 34.2 2.8 34.35 2.95 34.55 3.05 34.75 3.15 34.95 3.2 35.1 2.8 35.0 2.6 34.8 2.6 34.85 2.6 35.45 2.45 35.85 2.4 35.25 2.4 34.65 2.35 34.05 M4.7 34.55 L4.75 34.75 4.8 34.95 4.8 35.15 4.85 35.15 4.95 35.2 5.0 35.25 5.05 35.3 5.05 35.4 5.05 35.45 5.0 35.55 4.95 35.65 4.95 35.7 4.85 35.65 4.7 35.55 4.65 35.5 4.6 35.4 4.6 35.3 4.65 35.25 4.7 35.2 4.75 35.15 4.7 35.0 4.7 34.8 4.65 34.6 4.65 34.4 4.7 34.55 M3.9 34.55 L3.8 34.25 Q3.75 34.15 3.85 34.1 L3.95 34.1 4.1 34.3 4.15 34.55 4.2 34.8 4.25 35.0 4.25 35.1 4.1 35.05 4.25 35.2 4.4 35.45 4.0 35.3 3.8 34.95 3.7 34.65 3.8 34.5 3.9 34.6 3.9 34.55 M4.0 34.85 L3.95 34.7 4.05 34.95 4.0 34.85 M4.4 35.85 L4.6 36.15 4.7 36.4 4.85 36.7 5.05 36.95 5.1 37.0 5.1 37.15 5.15 37.2 4.7 36.85 4.5 36.45 4.35 36.1 Q4.2 35.9 4.4 35.85 M9.15 38.5 L9.15 38.65 9.15 38.9 9.15 39.3 9.25 39.65 9.2 39.85 8.95 39.55 8.95 39.15 8.95 38.8 8.95 38.75 8.65 38.7 8.55 38.65 8.45 38.6 8.45 38.5 8.45 38.45 8.45 38.35 8.45 38.3 8.5 38.2 8.55 38.15 8.65 38.05 8.75 38.0 8.75 37.9 8.75 37.85 8.75 37.75 8.75 37.7 8.75 37.6 8.85 37.6 8.85 37.65 8.85 37.75 8.85 37.8 8.85 37.9 8.85 37.95 9.0 38.1 9.1 38.25 9.15 38.4 9.15 38.5 M9.7 38.3 L9.8 38.6 9.7 38.9 9.7 39.3 9.6 39.6 9.4 39.3 9.4 38.9 9.5 38.5 9.7 38.3 M10.0 38.25 L10.0 38.2 10.05 38.15 10.05 38.1 10.1 38.05 10.2 38.05 10.25 38.05 10.25 38.0 10.35 38.05 10.4 38.1 10.45 38.15 10.45 38.2 10.45 38.3 10.4 38.5 10.45 38.7 10.5 38.95 10.45 39.0 10.3 38.95 10.2 38.7 10.1 38.5 10.0 38.25 M8.45 39.35 L8.6 39.6 8.65 39.9 8.7 39.95 8.75 40.0 8.7 40.0 8.35 39.75 8.2 39.35 8.1 38.95 8.2 38.8 8.35 39.05 8.45 39.35 M6.8 37.15 L7.0 37.4 6.95 37.75 7.0 38.1 7.0 38.4 Q6.7 38.45 6.65 38.1 L6.65 37.65 6.65 37.3 Q6.65 37.1 6.8 37.15 M6.0 37.85 L6.0 38.15 6.05 38.45 6.05 38.8 Q5.75 38.9 5.7 38.55 L5.7 38.2 5.65 37.8 5.7 37.6 5.85 37.6 6.0 37.85 M5.1 39.15 Q4.7 39.3 4.45 38.95 L4.3 38.5 4.35 38.05 4.45 38.0 4.6 38.3 4.7 38.6 4.9 38.9 5.15 39.15 5.1 39.15 M6.7 40.95 L6.9 41.35 6.8 41.9 6.8 42.4 6.6 42.85 Q6.35 42.7 6.4 42.4 L6.45 41.9 6.45 41.35 6.7 40.95 M7.55 41.6 L7.55 41.8 7.5 41.95 Q7.4 42.05 7.45 41.85 L7.45 41.6 7.55 41.6 M5.6 41.3 L5.7 41.2 5.8 41.15 5.9 41.15 6.05 41.2 6.15 41.25 6.2 41.35 6.25 41.4 6.25 41.6 6.1 42.0 6.1 42.4 6.05 42.8 6.0 43.0 5.7 42.8 5.7 42.35 5.6 41.9 5.55 41.45 5.55 41.35 5.6 41.3 M5.25 42.8 Q5.0 42.95 4.9 42.6 L4.85 42.05 4.8 41.55 Q4.65 41.25 4.95 41.2 L5.15 41.6 5.1 42.0 5.15 42.4 5.25 42.8 M3.95 38.35 L4.0 38.85 4.0 39.4 4.05 39.9 4.25 40.45 3.8 39.9 3.8 39.3 3.75 38.7 Q3.75 38.4 3.9 38.35 L3.95 38.35 M2.9 38.2 L2.85 38.95 2.8 39.7 2.7 40.35 2.6 39.55 2.65 38.8 2.65 37.95 Q2.6 37.5 2.85 37.45 L2.9 38.2 M3.3 38.3 L3.3 39.0 3.3 39.65 3.2 40.25 3.1 39.6 3.1 38.85 3.05 38.1 Q3.0 37.7 3.25 37.65 L3.3 38.3 M1.7 38.5 L1.9 39.45 2.15 40.25 2.25 40.95 1.75 40.05 1.5 39.1 1.35 38.2 Q1.3 37.75 1.55 37.65 L1.7 38.5 M2.25 38.2 L2.25 39.1 2.4 40.0 2.4 40.65 Q2.1 40.3 2.1 39.75 L2.0 38.8 1.95 37.9 Q1.95 37.45 2.25 37.3 L2.25 38.2 M0.75 39.25 L0.95 39.9 1.25 40.5 1.5 41.1 1.75 41.65 1.1 41.05 0.8 40.35 0.6 39.65 Q0.5 39.3 0.75 39.25 M4.2 41.35 L4.35 41.85 4.55 42.4 4.7 42.85 Q4.3 42.85 4.15 42.4 L3.95 41.75 3.75 41.15 Q3.7 40.85 3.95 40.9 L4.2 41.35 M4.1 44.45 L4.1 44.9 4.1 45.35 3.9 45.65 3.7 45.3 3.7 44.85 3.7 44.4 Q3.7 44.2 3.85 44.1 L3.95 44.1 4.1 44.45 M4.65 44.2 L4.8 44.65 4.8 45.1 4.85 45.5 Q4.95 45.8 4.65 45.85 4.35 45.7 4.4 45.35 L4.4 44.95 4.4 44.5 Q4.4 44.3 4.55 44.2 L4.65 44.2 M3.3 44.65 L3.35 45.05 3.4 45.4 3.35 45.75 Q3.0 45.65 3.05 45.3 L3.0 44.9 2.95 44.4 Q2.95 44.25 3.1 44.3 L3.15 44.3 3.3 44.65 M2.15 44.5 L2.2 44.9 2.3 45.25 2.35 45.55 1.9 45.25 1.75 44.8 1.7 44.4 1.9 44.25 2.15 44.5 M5.55 44.35 L5.6 44.8 5.6 45.25 5.5 45.55 Q5.2 45.6 5.2 45.3 L5.2 44.85 5.1 44.3 Q5.05 44.05 5.3 44.0 L5.55 44.35 M11.2 37.5 L11.25 37.45 11.2 37.45 11.2 37.5 M10.9 37.35 L10.75 37.3 10.75 37.4 10.75 37.7 10.9 38.0 10.85 37.9 10.8 37.75 10.8 37.65 10.8 37.55 10.85 37.5 10.9 37.45 10.9 37.4 10.9 37.35 M20.7 55.2 L20.7 55.1 20.7 55.05 20.7 55.2 M21.5 60.9 L21.6 61.0 21.65 60.9 21.45 60.85 21.5 60.9 M20.55 61.7 L20.75 62.15 21.05 62.5 21.3 62.9 20.8 62.5 20.5 62.0 20.25 61.6 Q20.05 61.4 20.25 61.35 L20.55 61.7 M20.95 61.25 Q20.8 61.0 21.05 60.9 L21.25 61.45 21.45 62.0 21.65 62.5 21.8 62.9 21.3 62.45 21.15 61.8 20.95 61.25 M23.55 61.5 L23.6 61.55 23.6 61.5 23.55 61.5 M39.8 62.4 L39.75 62.45 39.75 62.4 39.75 62.3 39.8 62.4 M34.9 62.35 L35.0 62.45 35.0 62.55 34.9 62.45 34.9 62.35 M18.35 55.65 L18.45 55.7 18.45 55.75 18.5 55.8 18.45 55.95 18.4 56.15 18.45 56.4 18.55 56.65 18.5 56.75 18.4 56.75 18.3 56.6 18.2 56.4 18.2 56.2 18.2 56.1 18.1 56.05 18.05 56.0 18.05 55.95 18.05 55.85 18.05 55.75 18.1 55.7 18.25 55.65 18.35 55.65 M19.75 55.65 L19.85 55.65 19.95 55.75 19.95 55.8 19.95 56.0 19.85 56.2 19.9 56.5 20.0 56.8 20.0 56.85 19.75 56.8 19.65 56.45 19.6 56.15 19.5 55.8 19.55 55.75 19.55 55.7 19.6 55.7 19.7 55.65 19.75 55.65 M10.45 54.2 L10.65 54.55 10.65 55.0 10.8 55.35 10.85 55.85 Q10.5 55.8 10.4 55.5 L10.25 55.0 10.2 54.55 10.4 54.2 10.45 54.2 M11.5 54.25 L11.55 54.3 11.6 54.2 11.5 54.2 11.5 54.25 M14.5 56.35 L14.8 56.95 14.95 57.75 15.15 58.4 15.45 59.0 Q14.95 58.95 14.75 58.4 L14.5 57.7 14.45 57.55 14.3 56.75 Q14.25 56.4 14.5 56.35 M13.5 56.75 L13.9 57.3 14.1 57.9 14.45 58.5 14.65 59.05 13.95 58.5 13.6 57.85 13.3 57.2 Q13.2 56.85 13.5 56.75 M12.9 57.75 L13.05 57.85 13.2 58.05 13.3 58.2 13.4 58.45 13.45 58.55 13.05 58.55 12.85 58.2 12.75 57.9 12.8 57.8 12.9 57.75 M12.7 58.65 L12.35 58.6 12.2 58.35 12.15 58.15 12.2 58.0 12.3 58.0 12.35 58.0 12.45 58.1 12.55 58.3 12.65 58.4 12.7 58.6 12.7 58.65 M15.0 57.0 Q15.05 56.7 15.3 56.7 L15.65 57.15 15.65 57.8 15.65 58.4 15.5 58.75 15.2 58.25 15.05 57.65 15.0 57.0 M11.2 57.7 L11.4 57.5 11.6 57.8 11.65 58.0 11.7 57.9 11.85 57.9 11.95 58.05 12.0 58.15 12.05 58.35 12.0 58.45 12.0 58.55 11.8 58.55 11.7 58.35 11.7 58.5 11.6 58.9 Q11.25 58.95 11.3 58.6 L11.25 58.15 11.2 57.7 M10.5 57.75 L10.75 58.0 10.95 58.35 11.1 58.75 11.15 59.15 10.75 58.9 10.55 58.45 10.35 57.95 10.5 57.75 M10.65 61.05 L10.75 61.35 10.8 61.65 10.85 61.95 10.6 61.7 10.55 61.3 10.4 60.95 10.45 60.75 10.55 60.75 10.65 61.05 M11.05 61.15 L11.0 60.5 Q10.95 60.15 11.25 60.1 L11.4 60.7 11.4 61.3 11.45 61.9 11.45 62.45 Q11.1 62.25 11.1 61.85 L11.05 61.15 M11.85 61.3 L11.85 61.65 11.85 62.0 11.8 62.4 11.75 62.45 11.55 62.1 11.6 61.65 11.55 61.2 11.7 60.9 11.75 60.9 11.85 61.3 M12.35 61.85 L12.4 62.0 12.5 62.15 12.55 62.3 12.6 62.45 12.25 62.3 12.15 62.1 12.1 61.85 12.15 61.75 12.25 61.7 12.35 61.85 M19.45 55.95 L19.35 56.15 19.3 56.4 19.3 56.65 19.35 56.95 19.3 57.1 19.1 56.9 19.1 56.6 19.05 56.3 18.95 55.95 19.0 55.9 19.05 55.85 19.15 55.8 19.2 55.75 19.25 55.8 19.35 55.85 19.4 55.85 19.4 55.9 19.45 55.95 M18.85 56.2 L18.85 56.55 18.75 56.85 Q18.55 56.8 18.6 56.55 L18.6 56.2 18.6 55.85 Q18.6 55.6 18.75 55.55 L18.85 55.85 18.85 56.2 M17.8 55.85 L17.85 55.9 17.85 55.95 17.9 56.0 17.9 56.05 17.85 56.05 17.85 56.2 17.95 56.3 18.0 56.4 18.1 56.55 18.15 56.65 18.15 56.7 17.95 56.65 17.7 56.45 17.55 56.25 17.4 56.0 17.45 55.95 17.45 55.9 17.5 55.85 17.55 55.8 17.6 55.8 17.6 55.75 17.65 55.75 17.75 55.8 17.8 55.85 M18.15 57.95 L18.4 58.5 18.65 59.05 18.7 59.1 18.75 59.05 18.8 59.05 18.85 59.3 18.85 59.35 18.9 59.4 18.9 59.45 18.85 59.45 18.85 59.6 18.85 59.85 18.9 60.1 Q18.6 60.15 18.6 59.85 L18.65 59.5 18.7 59.35 18.65 59.35 18.35 58.8 18.1 58.3 17.8 58.25 17.45 57.95 17.15 57.55 Q17.05 57.3 17.3 57.3 L17.55 57.4 17.8 57.6 17.9 57.4 18.15 57.95 M17.9 58.45 L17.95 58.65 18.0 58.95 18.1 59.2 18.2 59.45 18.2 59.5 18.4 59.8 18.2 59.75 18.2 59.8 18.2 60.05 18.0 59.85 17.95 59.5 17.95 59.4 17.75 59.05 17.55 58.7 Q17.45 58.5 17.6 58.45 L17.65 58.4 17.75 58.6 Q17.75 58.45 17.9 58.45 M16.35 57.55 L16.45 57.5 16.6 57.4 16.65 57.4 16.7 57.45 16.85 57.55 16.9 57.6 16.95 57.7 17.0 57.75 16.95 57.8 16.95 57.9 16.9 57.95 16.85 58.05 16.85 58.1 16.8 58.3 16.8 58.4 16.85 58.65 17.0 59.0 17.05 59.3 16.85 58.95 16.65 58.6 16.65 58.55 16.5 58.5 16.45 58.3 16.35 58.05 16.25 57.85 16.25 58.15 16.1 58.5 16.0 58.6 15.75 58.25 15.75 57.75 15.75 57.35 Q15.75 57.0 16.0 56.9 L16.25 57.25 16.25 57.65 16.35 57.55 M16.45 60.65 L16.55 60.8 16.65 61.0 16.7 61.25 16.7 61.45 16.75 61.55 16.55 61.4 16.45 61.1 16.35 60.8 Q16.2 60.65 16.4 60.65 L16.45 60.65 M17.45 61.05 L17.5 61.35 17.5 61.65 17.4 61.85 17.35 61.95 17.1 61.7 17.15 61.35 17.1 61.05 17.3 60.85 17.45 61.05 M19.4 59.9 L19.35 59.85 19.4 59.9 M18.2 61.2 L18.2 61.55 18.2 61.9 18.1 62.3 Q17.8 62.35 17.8 62.0 L17.8 61.6 17.8 61.15 Q17.8 60.9 18.0 60.9 L18.2 61.2 M8.15 54.2 L8.4 54.55 8.65 54.95 8.95 55.25 9.1 55.55 8.5 55.2 8.2 54.85 8.0 54.45 Q7.9 54.25 8.1 54.2 L8.15 54.2 M3.65 52.3 L3.75 52.55 3.95 52.8 4.05 53.05 3.75 52.85 3.55 52.5 3.4 52.2 3.5 52.05 3.65 52.3 M1.4 49.75 Q1.25 49.55 1.45 49.45 L1.75 49.8 1.95 50.2 2.15 50.6 2.3 50.9 1.9 50.65 1.65 50.2 1.4 49.75 M3.1 53.7 L3.3 53.8 3.45 53.95 3.5 54.2 3.6 54.4 3.6 54.5 3.35 54.55 3.05 54.2 2.95 53.9 3.1 53.7 M3.95 57.1 L3.95 57.15 4.0 57.25 4.0 57.35 4.05 57.45 4.05 57.55 4.05 57.6 4.1 57.6 4.25 57.7 4.35 57.75 4.4 57.85 4.45 57.9 4.45 58.05 4.4 58.2 4.4 58.35 4.45 58.5 Q4.3 58.75 4.05 58.5 L3.8 58.2 3.75 58.05 3.75 57.9 3.9 57.65 3.9 57.45 3.9 57.3 3.85 57.25 3.85 57.1 3.95 57.1 M5.05 56.9 L5.15 56.95 5.2 57.05 5.25 57.1 5.25 57.25 5.15 57.6 5.1 57.8 5.05 58.05 5.0 58.3 Q4.75 58.4 4.75 58.15 L4.75 57.8 4.65 57.5 4.55 57.15 4.55 57.05 4.6 57.0 4.7 56.9 4.8 56.85 4.9 56.85 5.05 56.9 M3.2 57.85 L3.6 58.25 Q3.85 58.55 3.65 58.75 L3.05 58.5 2.7 57.9 2.4 57.45 Q2.15 57.1 2.6 57.0 L2.95 57.45 3.2 57.85 M6.75 57.2 L6.9 57.4 7.05 57.65 7.2 57.85 7.35 58.1 7.35 58.15 6.9 58.1 6.7 57.8 6.55 57.4 6.6 57.2 6.75 57.2 M6.05 57.5 L6.15 57.55 6.2 57.65 6.25 57.7 6.25 57.8 6.25 57.85 6.2 58.0 6.15 58.15 6.1 58.3 5.95 58.3 5.8 58.2 5.55 57.95 5.55 57.8 5.55 57.75 5.55 57.65 5.6 57.6 5.8 57.45 5.9 57.45 6.05 57.5 M6.9 60.9 L7.25 61.3 7.45 61.85 7.8 62.25 7.95 62.85 Q7.55 62.8 7.3 62.4 L7.0 61.75 6.75 61.1 Q6.6 60.9 6.9 60.9 M8.0 60.6 Q8.3 60.75 8.25 61.1 L8.25 61.7 8.4 62.3 Q8.6 62.6 8.45 62.85 8.05 62.75 7.95 62.3 L7.85 61.65 7.75 60.95 Q7.75 60.65 8.0 60.6 M8.9 61.55 L8.9 62.1 8.95 62.5 8.85 62.85 Q8.5 62.75 8.5 62.45 L8.55 61.9 8.5 61.4 8.7 61.15 8.9 61.55 M10.0 61.55 L10.2 61.7 10.3 61.95 10.45 62.25 10.45 62.55 10.15 62.5 10.0 62.1 9.85 61.7 Q9.85 61.55 10.0 61.55 M9.75 62.4 L9.8 62.45 9.7 62.65 9.6 62.7 9.4 62.75 9.05 62.6 9.05 62.35 9.05 62.3 9.15 62.15 9.25 61.95 9.3 61.9 9.35 61.9 9.4 62.0 9.55 62.1 9.7 62.25 9.75 62.4 M62.35 49.7 L62.4 49.9 62.3 50.05 62.2 50.25 62.1 50.3 62.1 50.15 62.15 49.95 62.2 49.85 62.25 49.7 62.35 49.7 M62.05 50.25 L62.0 50.5 62.0 50.6 62.1 50.4 62.15 50.4 62.1 50.75 62.05 51.15 62.0 51.5 62.1 51.8 62.15 51.9 62.1 52.1 62.1 52.4 61.95 52.9 61.9 53.45 61.8 53.95 61.7 53.45 61.7 53.4 61.65 53.35 61.6 54.0 61.65 54.75 61.6 55.1 61.65 55.1 61.65 55.35 61.55 55.55 61.5 55.8 61.35 56.0 61.3 55.95 61.3 55.8 61.25 55.75 61.35 55.55 61.45 55.35 61.5 55.3 61.35 54.95 61.25 55.15 61.1 55.45 61.0 55.75 60.8 56.05 60.8 56.0 60.7 56.15 60.6 55.8 60.6 55.45 60.6 55.05 60.75 54.85 60.8 55.15 60.8 55.55 60.8 55.8 60.9 55.45 61.05 55.05 Q61.15 54.85 61.35 54.85 L61.35 54.6 61.4 53.85 61.35 53.05 Q61.25 52.6 61.55 52.5 L61.6 52.6 61.65 52.35 61.65 51.95 61.65 51.9 61.9 51.4 61.95 50.95 61.95 50.9 61.85 50.95 61.8 50.7 61.85 50.45 61.85 50.25 62.0 50.05 62.05 50.05 62.05 50.25 M62.95 52.1 L62.95 52.25 62.95 52.4 62.95 52.45 63.05 52.55 63.15 52.6 63.1 53.0 63.05 53.3 63.05 53.65 62.95 54.0 62.85 54.05 62.75 53.65 62.8 53.45 62.8 53.15 62.65 52.75 62.65 52.65 62.7 52.55 62.8 52.45 62.85 52.4 62.85 52.35 62.85 52.25 62.85 52.2 62.85 52.1 62.95 52.1 M61.85 52.75 L61.9 52.55 61.85 52.65 61.85 52.75 M62.0 55.15 L62.0 54.9 Q61.95 54.75 62.15 54.75 L62.2 55.0 62.2 55.25 62.2 55.45 62.1 55.65 62.0 55.45 62.0 55.15 M62.65 55.15 L62.7 55.7 62.75 56.35 62.75 56.85 62.4 56.25 62.4 55.6 62.35 54.9 Q62.3 54.55 62.55 54.55 L62.65 55.15 M61.95 56.75 L62.05 57.25 61.95 57.8 61.85 58.3 61.8 58.6 61.85 58.65 61.95 58.8 61.8 59.2 61.75 59.45 61.75 59.75 61.55 60.1 61.45 59.75 61.5 59.55 61.5 59.25 61.45 58.95 61.45 58.8 61.45 58.75 61.5 58.65 61.6 58.55 61.65 58.55 61.65 58.3 61.65 58.2 61.7 58.2 61.8 57.7 61.8 57.1 Q61.7 56.75 61.95 56.75 M60.9 57.8 L60.9 58.25 60.9 58.7 60.8 59.05 60.7 58.6 60.7 58.15 60.7 57.7 60.75 57.35 60.85 57.35 60.9 57.8 M62.75 58.6 L62.75 59.15 62.75 59.65 62.55 60.0 62.45 59.5 62.45 59.0 62.45 58.45 62.6 58.1 62.65 58.1 62.75 58.6 M63.2 60.05 L63.35 60.0 63.45 60.25 63.35 60.55 63.3 60.75 63.15 60.95 63.05 61.0 63.05 60.75 63.1 60.45 63.15 60.2 63.2 60.05 M61.75 60.65 L61.8 60.9 61.8 61.1 61.9 61.3 61.95 61.4 Q61.7 61.45 61.65 61.25 L61.55 60.9 61.5 60.6 61.6 60.45 61.65 60.45 61.75 60.65 M62.75 60.85 L62.8 61.15 62.75 61.45 62.7 61.75 62.6 61.45 62.6 61.15 62.5 60.85 62.55 60.65 62.65 60.65 62.75 60.85 M62.75 62.6 L62.75 62.75 62.75 62.85 62.65 62.8 62.55 62.75 62.5 62.7 62.4 62.5 62.35 62.45 62.35 62.4 62.35 62.3 62.45 62.25 62.5 62.15 62.55 62.1 62.65 62.1 62.75 62.25 62.8 62.45 62.75 62.6 M61.7 62.5 L61.65 62.7 61.7 62.9 61.75 63.15 61.75 63.25 61.55 63.0 61.5 62.7 61.5 62.5 61.55 62.25 61.65 62.25 61.7 62.5 M60.45 49.6 L60.5 49.65 60.5 49.6 60.45 49.6 M59.6 50.2 L59.4 50.3 59.55 50.65 59.55 50.25 59.6 50.2 M60.1 50.05 L60.15 49.95 60.1 49.9 60.1 49.85 60.05 49.9 60.0 50.1 60.0 50.2 60.0 50.25 60.05 50.15 60.1 50.05 M56.85 51.8 L56.85 52.15 56.9 52.25 56.9 52.3 56.9 52.1 57.0 51.75 57.15 51.6 57.15 51.55 57.2 51.45 57.2 51.4 56.85 51.55 56.85 51.8 M56.4 51.75 L56.1 51.85 56.1 51.9 56.2 51.95 56.3 52.0 56.4 51.75 M56.05 52.0 L56.05 51.9 55.35 52.1 55.35 52.3 55.45 52.6 55.45 52.85 55.3 52.75 55.25 53.35 55.3 54.0 55.35 54.4 55.4 54.35 55.45 54.35 55.45 54.4 55.5 53.95 Q55.5 53.75 55.65 53.7 L55.6 53.5 55.7 53.15 55.65 52.8 Q55.6 52.35 55.85 52.25 L55.9 52.35 Q55.85 52.1 56.05 52.05 L56.05 52.0 M56.55 51.95 L56.45 52.2 56.4 52.3 56.45 52.4 56.45 52.5 56.35 52.45 56.3 52.55 56.3 52.8 56.3 53.4 56.45 53.3 56.55 53.6 56.55 53.25 56.5 52.25 Q56.45 52.05 56.55 52.0 L56.55 51.95 M57.6 51.4 L57.65 51.45 57.65 51.5 57.7 51.55 57.7 51.6 57.65 51.65 57.75 51.65 57.75 51.55 57.8 51.25 57.85 51.2 57.85 51.15 57.6 51.25 57.6 51.3 57.6 51.35 57.6 51.4 M57.55 51.75 L57.5 51.85 57.5 51.95 57.55 51.8 57.55 51.75 M57.3 52.2 L57.4 52.15 57.35 52.15 57.3 52.2 M57.45 52.15 L57.5 52.1 57.45 52.1 57.45 52.15 57.4 52.15 57.45 52.2 57.45 52.15 M57.1 52.3 L57.05 52.45 57.0 52.55 56.95 52.65 56.9 52.75 56.85 53.3 56.85 53.9 56.85 54.05 56.9 54.1 56.95 53.75 Q57.0 53.3 57.25 53.1 L57.15 52.75 Q57.05 52.45 57.2 52.3 L57.1 52.3 M55.9 53.2 L55.95 53.65 55.95 53.7 56.0 53.85 56.0 53.5 55.9 52.5 55.9 52.9 55.9 53.2 M56.55 54.7 L56.5 55.35 56.5 55.9 56.7 55.5 56.75 55.55 56.8 54.9 56.55 54.7 M56.1 55.0 L56.1 54.95 56.1 55.1 56.1 55.0 M55.75 55.4 L55.85 55.35 55.95 55.4 55.8 54.95 55.7 54.25 55.6 54.65 55.6 54.8 55.6 54.75 55.7 55.05 55.65 55.4 55.65 55.5 55.7 55.45 55.75 55.4 M56.3 55.7 L56.25 55.5 56.15 55.3 56.1 55.55 56.3 55.7 M59.2 53.75 L59.25 53.75 59.35 54.05 59.35 54.4 59.4 54.75 59.55 55.05 59.55 55.1 59.3 54.85 59.2 54.45 59.15 54.1 Q59.05 53.85 59.2 53.75 M58.75 54.1 L58.8 54.55 58.85 55.05 59.05 55.6 59.15 56.0 58.9 55.9 58.8 56.55 58.7 57.35 58.5 57.85 58.4 57.25 58.45 56.5 58.45 56.4 58.35 55.95 58.45 55.4 58.55 55.05 58.5 54.95 58.45 54.4 58.7 54.1 58.75 54.1 M59.45 55.4 L59.45 55.6 59.45 55.85 59.4 56.05 59.35 56.25 59.35 56.45 59.25 56.2 59.3 55.9 59.3 55.6 59.4 55.4 59.45 55.4 M60.1 55.15 L60.25 55.25 60.25 55.4 60.3 55.55 60.35 55.7 60.35 55.8 60.15 55.65 60.1 55.45 60.05 55.2 60.1 55.15 M53.85 52.55 L53.9 52.55 53.9 52.5 53.85 52.55 M54.55 52.55 L54.6 52.35 54.2 52.45 54.15 52.55 54.15 52.85 54.2 52.85 54.25 52.9 54.25 52.85 Q54.3 52.5 54.55 52.45 L54.55 52.55 54.5 53.05 54.6 53.55 54.6 53.6 54.65 53.7 54.8 53.5 54.75 53.4 54.75 53.25 54.65 53.3 54.65 52.95 54.65 52.85 54.55 52.55 M55.0 52.4 L55.05 52.2 54.95 52.25 54.95 52.35 54.95 52.5 54.95 52.55 55.0 52.6 55.0 52.4 M52.95 53.9 L53.0 53.95 53.0 53.85 53.1 53.25 53.1 53.1 53.1 52.85 53.2 52.65 52.85 52.75 52.8 53.05 52.8 53.1 52.85 53.35 52.85 53.4 52.9 53.5 52.95 53.9 52.9 53.9 52.9 53.95 52.95 54.15 52.95 54.0 52.95 53.9 M52.25 52.8 L52.2 53.0 52.25 53.0 52.4 53.1 52.35 52.95 52.35 52.8 52.25 52.8 M52.35 54.0 L52.35 53.7 52.35 53.35 52.25 53.75 52.35 54.0 52.25 53.95 52.3 54.4 52.35 54.15 52.35 54.0 M51.1 53.1 L51.1 53.5 51.2 53.65 51.25 53.75 51.25 53.3 51.2 53.1 51.15 53.0 51.1 53.1 M51.75 53.45 L51.75 53.6 51.75 53.55 51.75 53.45 M53.5 52.75 L53.5 52.95 53.55 52.85 53.65 52.6 53.7 52.55 53.5 52.6 53.5 52.75 M53.65 55.5 L53.6 55.35 53.5 55.45 53.5 55.6 53.65 55.75 53.65 55.7 53.7 55.6 53.65 55.5 M54.6 54.65 L54.65 55.05 54.65 55.1 54.7 55.3 54.75 55.25 54.8 55.2 54.9 55.15 54.95 55.1 55.0 55.15 55.0 55.2 55.05 55.3 55.1 55.3 55.0 55.05 54.9 54.25 54.85 53.95 54.7 54.25 54.7 54.4 54.65 54.4 54.6 54.65 M55.05 55.55 L55.0 55.6 55.05 55.6 55.05 55.55 55.1 55.6 55.1 55.55 55.05 55.55 M55.3 55.6 L55.2 55.5 55.2 55.6 55.2 55.65 55.25 55.7 55.25 55.65 55.3 55.6 M55.25 55.9 L55.35 55.85 55.3 55.85 55.25 55.9 M54.8 55.9 L54.75 56.1 54.7 56.1 54.65 56.25 54.55 56.55 54.55 56.65 54.65 56.9 54.7 56.6 54.85 56.2 54.85 55.8 54.8 55.9 M54.45 55.95 L54.4 56.2 54.45 56.3 54.45 56.25 54.55 56.05 54.5 56.0 54.45 55.95 M55.0 57.0 L55.0 57.15 55.0 57.1 55.0 57.0 M53.85 55.9 L54.0 56.15 54.1 55.95 54.05 55.6 53.95 55.7 53.9 55.75 53.85 55.9 M54.35 57.5 L54.45 57.5 54.4 57.15 54.3 57.45 54.35 57.5 M55.05 57.9 L55.05 57.8 55.05 57.7 55.05 57.75 55.05 57.9 M55.6 58.35 L55.75 58.15 55.75 58.0 55.7 57.95 55.6 58.2 55.6 58.35 M52.75 60.15 L52.85 60.5 52.9 60.85 52.9 61.25 52.85 61.55 Q52.65 61.5 52.65 61.25 L52.6 60.85 52.55 60.5 52.65 60.15 52.75 60.15 M51.05 61.65 L51.05 61.55 51.05 61.5 51.15 61.35 51.35 61.2 51.45 61.2 51.5 61.25 51.65 61.35 51.7 61.4 51.75 61.5 51.8 61.55 51.75 61.6 51.75 61.7 51.65 61.85 51.6 62.1 51.6 62.2 51.6 62.35 51.5 62.3 51.4 62.25 51.4 62.2 51.4 62.1 51.4 62.0 51.25 61.9 51.15 61.85 51.05 61.75 51.05 61.65 M52.2 61.0 L52.3 61.35 52.35 61.75 52.45 62.15 52.15 61.85 52.05 61.4 51.9 60.95 Q51.8 60.7 52.05 60.7 L52.2 61.0 M53.75 60.55 L53.8 60.85 53.75 61.15 53.7 61.35 53.6 61.6 53.55 61.65 53.6 61.35 53.65 61.0 53.65 60.8 53.65 60.6 53.75 60.55 M54.2 61.35 L54.2 60.85 Q54.25 60.65 54.45 60.65 L54.45 61.0 Q54.35 61.2 54.4 61.45 L54.4 61.9 54.25 62.25 54.2 61.8 54.2 61.35 M60.15 58.65 L59.8 58.1 59.7 57.5 59.65 56.9 Q59.6 56.6 59.85 56.6 L59.95 57.15 59.95 57.65 60.05 58.2 60.15 58.65 Q60.1 58.35 60.35 58.3 L60.45 58.75 60.45 59.2 60.45 59.25 60.45 59.65 60.4 59.8 60.45 60.05 60.35 60.05 60.25 60.0 60.15 59.65 60.15 59.35 60.05 58.9 60.15 58.65 M59.05 58.6 L58.9 59.2 58.8 59.8 58.55 60.2 58.45 59.55 58.6 58.95 58.7 58.35 58.9 58.0 58.95 58.0 59.05 58.6 M59.6 58.4 L59.65 58.4 59.65 58.85 59.7 59.25 59.75 59.75 59.45 59.95 59.45 59.5 59.5 59.05 59.55 58.65 59.6 58.4 M56.4 56.05 L56.4 56.7 56.45 57.0 56.45 56.55 56.5 55.95 56.4 55.9 56.4 56.05 M56.85 57.15 L56.85 56.85 56.85 56.75 56.85 56.65 56.75 56.4 56.7 56.65 56.65 57.25 56.7 57.4 Q56.7 57.2 56.85 57.15 M57.8 58.0 L57.75 58.45 57.65 58.85 57.5 59.3 57.45 59.35 57.45 58.9 57.55 58.35 57.55 57.9 57.65 57.55 57.75 57.55 57.8 58.0 M58.0 58.9 L58.15 58.6 58.25 58.55 58.2 58.95 58.05 59.3 57.95 59.75 57.8 60.1 57.75 60.15 57.75 59.75 57.85 59.4 58.0 58.9 M50.5 53.0 L50.45 53.5 50.45 53.55 50.6 53.35 50.65 53.15 50.6 53.0 50.6 52.95 50.5 52.95 50.5 53.0 M49.55 52.95 L49.45 52.95 49.55 53.0 49.55 52.95 M-0.2 13.6 L-0.15 14.0 -0.05 14.35 0.05 14.75 -0.3 14.4 -0.35 13.9 -0.45 13.45 -0.4 13.25 -0.2 13.6" fill="#448701" fill-opacity="0.69411767" fill-rule="evenodd" stroke="none"/>
    <path d="M40.25 -21.7 Q42.45 -21.95 43.1 -20.6 46.85 -12.45 53.25 -2.7 56.4 2.15 62.9 11.15 63.3 11.75 60.35 13.85 57.15 16.1 52.55 18.35 40.05 24.4 30.5 23.95 20.85 23.5 10.65 19.15 1.8 15.35 1.4 13.4 1.15 12.2 12.05 -4.05 21.4 -17.95 26.7 -25.05 28.65 -27.65 31.7 -24.65 35.45 -20.95 36.2 -21.0 L40.25 -21.7" fill="url(#gradient1)" fill-rule="evenodd" stroke="none"/>
    <path d="M18.9 -11.1 L18.3 -10.6 16.4 -8.8 Q15.55 -7.9 14.9 -7.95 L16.2 -9.5 16.25 -9.6 14.9 -8.1 14.85 -8.15 15.45 -9.05 15.8 -9.55 24.9 -22.6 26.7 -25.05 Q28.65 -27.65 31.7 -24.65 35.45 -20.95 36.2 -21.0 L40.25 -21.7 41.65 -21.65 Q42.7 -21.45 43.1 -20.6 L43.2 -20.35 44.35 -18.0 45.85 -15.2 46.45 -13.9 46.9 -13.1 46.9 -13.05 48.2 -10.55 49.85 -7.05 49.9 -7.0 Q49.0 -7.45 48.4 -8.7 L47.3 -10.65 46.2 -12.25 46.2 -12.15 46.05 -12.05 46.0 -11.95 45.9 -11.85 45.8 -10.15 46.5 -8.4 47.55 -6.25 Q48.3 -4.9 48.4 -3.55 L48.35 -3.5 Q47.0 -4.35 46.05 -6.05 L44.2 -9.1 42.85 -11.05 43.0 -10.6 Q43.25 -9.85 42.95 -9.1 42.4 -9.25 42.2 -9.95 L41.8 -11.1 41.1 -12.25 41.05 -12.35 41.1 -12.1 41.4 -11.2 41.8 -8.95 42.0 -7.3 42.15 -6.85 42.65 -5.15 43.0 -3.45 43.3 -1.9 Q43.4 -1.55 43.1 -1.35 42.15 -2.1 41.35 -3.55 L39.95 -6.1 39.45 -6.95 39.3 -6.65 Q38.7 -6.7 38.35 -7.35 L38.3 -7.5 Q37.9 -7.8 37.75 -8.25 L37.65 -8.6 37.6 -8.45 37.15 -9.3 36.55 -10.4 35.95 -9.15 35.4 -7.45 34.85 -6.05 34.65 -6.05 34.45 -6.1 34.35 -6.15 33.9 -7.05 33.4 -8.15 32.95 -9.15 32.7 -9.75 32.45 -9.85 32.2 -9.2 30.85 -4.95 29.55 -0.7 28.6 2.3 28.45 2.3 28.25 2.25 28.15 2.15 28.1 2.0 28.25 -1.75 28.45 -4.05 28.65 -6.7 28.8 -9.45 28.9 -11.35 28.75 -11.2 27.0 -8.9 25.35 -6.5 24.1 -4.75 Q23.45 -5.4 23.75 -6.45 L24.15 -8.15 24.25 -9.85 24.25 -10.75 22.3 -8.35 19.1 -3.85 16.1 0.8 Q15.55 1.75 14.8 2.05 L14.6 2.2 14.55 2.15 14.2 2.35 14.4 1.75 15.15 -0.05 15.2 -0.2 16.15 -2.45 17.65 -6.75 18.8 -10.85 18.9 -11.1 M30.45 -6.15 L30.4 -5.9 30.45 -6.15 M46.0 -7.75 L45.9 -7.85 46.25 -7.15 46.0 -8.0 45.95 -8.0 46.0 -7.75" fill="url(#gradient2)" fill-rule="evenodd" stroke="none"/>
    <path d="M63.55 24.4 Q63.0 25.8 57.75 27.55 51.5 29.6 44.65 29.5 37.8 29.4 31.9 27.7 26.95 26.3 26.65 25.3 26.3 24.1 34.1 12.65 42.2 0.7 45.15 0.55 48.2 0.4 56.25 11.85 64.1 22.95 63.55 24.4" fill="url(#gradient3)" fill-rule="evenodd" stroke="none"/>
    <path d="M50.75 4.7 L50.85 4.85 50.7 4.75 50.75 4.7 M51.8 5.95 L56.25 11.85 Q64.1 22.95 63.55 24.4 63.0 25.8 57.75 27.55 51.5 29.6 44.65 29.5 37.8 29.4 31.9 27.7 26.95 26.3 26.65 25.3 26.3 24.1 34.1 12.65 L36.85 8.75 37.5 8.55 38.6 7.85 39.65 6.85 40.1 6.6 40.05 6.65 39.7 7.45 39.5 8.2 39.3 8.9 39.4 9.35 39.65 9.45 40.55 9.5 40.6 9.45 40.95 9.15 41.8 8.15 42.7 7.15 43.4 6.6 43.15 7.4 42.95 8.55 42.85 9.45 Q42.7 10.15 42.7 10.85 L42.75 12.1 42.85 12.15 42.95 12.25 43.05 12.35 43.25 12.4 Q44.25 12.3 44.7 11.3 L45.1 10.25 45.6 8.85 46.0 7.6 46.2 8.85 46.55 10.0 47.25 11.35 Q47.85 12.4 49.0 12.5 L49.3 11.85 49.35 10.85 49.35 10.0 49.2 8.7 48.9 7.65 50.3 8.45 Q51.1 8.8 51.85 8.45 L52.0 8.0 Q52.05 7.45 51.7 7.1 L51.1 6.3 50.65 5.75 50.75 5.75 51.25 5.95 51.55 5.95 51.75 5.95 51.8 5.95" fill="url(#gradient4)" fill-rule="evenodd" stroke="none"/>
    <path d="M50.75 4.7 L50.7 4.75 50.85 4.85 51.5 5.6 51.8 5.95 51.75 5.95 51.55 5.95 51.25 5.95 50.75 5.75 50.65 5.75 51.1 6.3 51.7 7.1 Q52.05 7.45 52.0 8.0 L51.85 8.45 Q51.1 8.8 50.3 8.45 L48.9 7.65 49.2 8.7 49.35 10.0 49.35 10.85 49.3 11.85 49.0 12.5 Q47.85 12.4 47.25 11.35 L46.55 10.0 46.2 8.85 46.0 7.6 45.6 8.85 45.1 10.25 44.7 11.3 Q44.25 12.3 43.25 12.4 L43.05 12.35 42.95 12.25 42.85 12.15 42.75 12.1 42.7 10.85 Q42.7 10.15 42.85 9.45 L42.95 8.55 43.15 7.4 43.4 6.6 42.7 7.15 41.8 8.15 40.95 9.15 40.6 9.45 40.55 9.5 39.65 9.45 39.4 9.35 39.3 8.9 39.5 8.2 39.7 7.45 40.05 6.65 40.1 6.6 39.65 6.85 38.6 7.85 37.5 8.55 36.85 8.75 37.05 8.5 37.1 8.4 37.4 8.05 Q39.45 5.25 41.1 3.5 43.7 0.6 45.15 0.55 46.65 0.5 49.4 3.25 L50.75 4.7" fill="url(#gradient5)" fill-rule="evenodd" stroke="none"/>
    <path d="M21.65 34.5 Q14.8 34.4 8.9 32.7 3.95 31.3 3.65 30.3 3.3 29.1 11.1 17.65 19.2 5.7 22.15 5.55 25.2 5.4 33.25 16.85 41.1 27.95 40.55 29.4 40.0 30.8 34.75 32.55 28.5 34.6 21.65 34.5" fill="url(#gradient6)" fill-rule="evenodd" stroke="none"/>
    <path d="M13.1 14.8 L13.15 14.75 14.85 13.6 16.45 12.3 18.0 11.3 18.0 11.4 17.95 11.5 17.9 11.65 17.9 11.85 17.9 12.05 17.9 12.25 17.9 12.3 17.95 12.4 18.2 12.55 18.85 12.35 19.25 11.95 19.6 11.35 19.9 11.0 19.8 12.05 19.55 13.35 19.35 14.85 19.3 16.05 Q19.25 16.65 19.5 17.15 L19.75 17.3 20.15 17.3 20.3 17.25 20.8 16.65 21.5 15.2 22.1 13.8 22.65 12.5 23.1 11.35 23.25 11.6 23.5 12.35 23.85 12.85 24.3 13.45 Q24.7 13.85 25.2 13.7 L25.35 13.45 25.4 12.9 25.45 12.4 25.45 11.95 25.45 11.5 25.45 11.0 25.8 11.2 26.35 11.8 27.05 12.4 Q27.65 12.9 28.25 12.6 L28.3 12.5 28.3 12.3 28.3 12.15 28.3 11.95 28.25 11.75 28.25 11.65 28.25 11.6 28.2 11.55 28.5 11.6 28.95 11.65 29.25 11.55 29.3 11.55 33.25 16.85 Q41.1 27.95 40.55 29.4 40.0 30.8 34.75 32.55 28.5 34.6 21.65 34.5 14.8 34.4 8.9 32.7 3.95 31.3 3.65 30.3 3.3 29.1 11.1 17.65 L13.1 14.8 M14.0 13.55 L14.05 13.55 14.0 13.55 13.55 14.2 14.0 13.55" fill="url(#gradient7)" fill-rule="evenodd" stroke="none"/>
    <path d="M29.3 11.55 L29.25 11.55 28.95 11.65 28.5 11.6 28.2 11.55 28.25 11.6 28.25 11.65 28.25 11.75 28.3 11.95 28.3 12.15 28.3 12.3 28.3 12.5 28.25 12.6 Q27.65 12.9 27.05 12.4 L26.35 11.8 25.8 11.2 25.45 11.0 25.45 11.5 25.45 11.95 25.45 12.4 25.4 12.9 25.35 13.45 25.2 13.7 Q24.7 13.85 24.3 13.45 L23.85 12.85 23.5 12.35 23.25 11.6 23.1 11.35 22.65 12.5 22.1 13.8 21.5 15.2 20.8 16.65 20.3 17.25 20.15 17.3 19.75 17.3 19.5 17.15 Q19.25 16.65 19.3 16.05 L19.35 14.85 19.55 13.35 19.8 12.05 19.9 11.0 19.6 11.35 19.25 11.95 18.85 12.35 18.2 12.55 17.95 12.4 17.9 12.3 17.9 12.25 17.9 12.05 17.9 11.85 17.9 11.65 17.95 11.5 18.0 11.4 18.0 11.3 16.45 12.3 14.85 13.6 13.15 14.75 13.1 14.8 13.2 14.7 13.4 14.4 13.55 14.2 14.0 13.55 14.05 13.55 14.0 13.55 Q16.05 10.7 17.7 8.9 20.6 5.65 22.15 5.55 24.15 5.45 28.3 10.35 L29.3 11.55" fill="url(#gradient8)" fill-rule="evenodd" stroke="none"/>
    <path d="M37.0 33.55 L37.0 33.6 38.15 35.95 39.15 38.4 39.65 39.75 39.7 40.0 39.95 40.65 40.0 40.8 40.0 40.85 40.05 40.9 41.4 43.9 Q42.5 46.15 43.95 48.2 45.7 50.6 47.75 52.85 L49.45 54.15 50.65 55.25 Q52.45 56.75 51.9 57.0 L46.1 59.25 Q40.2 61.2 35.15 61.35 L25.8 60.55 Q21.75 59.8 20.3 59.0 19.45 58.55 20.45 56.45 21.5 54.35 21.2 54.15 L12.1 53.05 Q3.6 51.85 3.65 49.9 3.7 47.35 11.95 36.8 20.45 26.0 24.0 24.7 27.15 23.55 32.4 28.5 35.0 30.9 37.0 33.55" fill="url(#gradient9)" fill-rule="evenodd" stroke="none"/>
    <path d="M37.0 33.55 L37.05 33.65 37.3 33.05 Q38.95 29.15 41.2 25.2 46.0 16.75 49.35 16.75 54.75 16.75 63.5 43.2 63.4 44.9 61.9 46.95 59.65 49.95 55.45 50.65 L49.65 51.5 Q48.8 51.7 48.65 52.85 L48.65 53.05 48.75 53.25 49.5 54.2 49.45 54.15 47.75 52.85 Q45.7 50.6 43.95 48.2 42.5 46.15 41.4 43.9 L40.05 40.9 40.0 40.85 40.0 40.8 39.95 40.65 39.7 40.0 39.65 39.75 39.15 38.4 38.15 35.95 37.0 33.6 37.0 33.55" fill="url(#gradient10)" fill-rule="evenodd" stroke="none"/>
    <path d="M56.3 24.75 L56.55 25.25 57.35 26.95 58.3 29.05 58.55 29.65 57.7 29.45 Q56.85 29.05 56.4 28.3 L56.35 28.2 56.85 30.75 57.75 34.1 57.9 34.55 Q58.1 35.55 57.8 36.6 L57.75 36.55 Q56.8 35.95 56.2 34.6 L56.1 34.45 Q55.5 32.9 54.45 31.65 L53.85 30.85 52.75 29.35 52.9 30.25 53.45 32.75 Q53.75 33.7 53.5 34.6 L53.45 34.7 Q52.75 34.65 52.3 33.85 L51.4 32.4 51.15 32.05 50.9 33.55 Q50.8 34.6 50.85 35.6 L50.65 37.0 Q49.95 36.45 49.85 35.05 L49.8 34.35 49.5 32.75 49.45 32.6 48.95 30.5 48.9 30.15 48.85 30.2 48.35 31.2 48.05 31.9 47.9 32.2 47.5 32.95 Q46.9 34.3 46.45 35.75 L45.7 37.7 45.35 37.5 45.25 37.65 45.25 37.35 Q44.85 36.95 44.7 36.25 L44.25 34.55 43.55 32.9 43.55 32.85 42.6 34.4 40.95 37.25 39.85 39.25 39.8 38.9 Q39.7 39.45 40.0 39.85 L40.0 40.0 40.0 40.15 40.0 40.2 40.05 40.5 40.3 41.3 40.4 41.5 40.45 41.65 41.15 43.2 41.4 43.8 42.4 45.3 43.8 47.6 44.0 47.95 44.55 49.3 43.25 47.55 43.0 47.45 43.0 47.5 42.5 46.95 42.45 47.15 Q41.6 47.15 40.85 46.25 L39.5 44.7 38.7 43.9 38.7 44.25 Q38.5 44.3 38.3 44.0 L38.1 43.55 38.0 43.6 38.0 43.7 38.15 44.25 38.1 44.2 37.6 43.5 37.5 43.45 37.5 43.5 37.45 43.5 37.55 44.15 37.85 45.6 38.1 46.6 38.05 46.7 38.05 46.75 37.95 46.85 37.8 47.0 37.75 47.05 37.8 47.35 37.95 47.7 38.0 47.85 38.05 48.0 38.3 49.2 37.75 48.9 37.45 48.4 37.0 47.25 36.5 46.15 Q36.25 45.6 36.05 45.6 35.6 46.0 35.4 45.45 L35.05 44.8 34.9 44.65 34.3 44.5 34.2 44.6 34.15 44.45 34.1 44.4 34.05 44.35 33.9 44.3 33.65 44.2 Q33.05 44.4 32.7 45.1 L31.85 46.7 30.8 48.4 30.75 48.45 30.7 48.55 30.65 48.7 30.25 49.7 30.2 49.5 30.1 49.65 30.05 49.55 30.05 49.5 30.05 49.4 30.0 49.3 30.0 49.2 29.95 49.1 30.25 48.5 30.25 48.4 30.2 47.2 30.25 45.5 30.05 44.2 29.95 44.1 29.8 44.05 29.55 43.95 29.3 44.05 29.15 44.1 29.05 44.2 28.95 44.6 28.1 45.45 26.85 47.3 25.45 48.95 25.2 49.15 24.05 50.4 24.45 49.65 25.05 48.6 26.3 46.5 26.75 45.1 27.2 44.35 27.7 43.3 28.15 42.5 29.0 40.3 29.2 39.9 30.15 38.3 30.2 38.25 30.0 38.1 29.65 37.85 29.4 37.55 29.4 37.0 29.45 36.35 29.5 35.65 29.55 35.05 29.55 35.0 29.5 35.05 28.45 36.25 27.65 37.6 Q27.3 38.3 26.6 38.25 26.3 37.9 26.4 37.4 L26.5 36.55 26.55 36.45 26.4 36.3 26.2 35.8 26.25 35.35 26.25 35.2 25.5 36.15 23.8 38.15 22.1 40.15 Q21.35 41.05 20.4 41.3 20.0 40.45 20.4 39.55 L20.95 37.95 21.05 37.45 21.1 36.7 21.3 35.85 21.35 35.5 20.0 36.95 18.95 37.85 17.9 38.95 Q17.35 39.5 16.8 39.7 L15.25 41.1 Q14.55 41.8 13.9 41.85 L12.45 42.7 Q12.25 42.8 12.2 42.55 12.7 41.05 13.6 39.6 L15.35 36.8 16.1 35.55 13.85 37.15 13.6 37.35 12.6 38.25 12.1 38.55 11.4 39.15 Q10.4 40.05 9.3 40.35 L9.5 40.15 9.65 39.85 10.15 39.05 10.55 38.65 11.3 37.65 11.6 37.3 11.95 36.8 12.65 35.9 13.2 35.25 13.1 35.4 14.0 34.3 14.0 34.25 Q20.9 25.85 24.0 24.7 27.15 23.55 32.4 28.5 35.0 30.9 36.95 33.55 L37.05 33.65 37.15 33.4 37.95 31.6 Q39.4 28.4 41.2 25.2 46.0 16.75 49.35 16.75 52.3 16.75 56.3 24.75 M36.65 44.65 L36.7 44.8 36.65 44.6 36.65 44.65" fill="url(#gradient11)" fill-rule="evenodd" stroke="none"/>
  </g>
  <defs>
    <radialGradient cx="0" cy="0" gradientTransform="matrix(0.0382, 0.0, 0.0, 0.0382, 32.0, 32.0)" gradientUnits="userSpaceOnUse" id="gradient0" r="819.2" spreadMethod="pad">
      <stop offset="0.0" stop-color="#7e9261"/>
      <stop offset="1.0" stop-color="#7e9261" stop-opacity="0.0"/>
    </radialGradient>
    <linearGradient gradientTransform="matrix(0.008, -0.0182, 0.0134, 0.0059, 81.5, 22.3)" gradientUnits="userSpaceOnUse" id="gradient1" spreadMethod="pad" x1="-819.2" x2="819.2">
      <stop offset="0.0" stop-color="#666666"/>
      <stop offset="1.0" stop-color="#cccccc"/>
    </linearGradient>
    <linearGradient gradientTransform="matrix(0.0135, -0.0073, 0.0083, 0.0153, 37.15, -17.65)" gradientUnits="userSpaceOnUse" id="gradient2" spreadMethod="pad" x1="-819.2" x2="819.2">
      <stop offset="0.0" stop-color="#e9def5"/>
      <stop offset="1.0" stop-color="#ffffff"/>
    </linearGradient>
    <linearGradient gradientTransform="matrix(0.0088, -0.027, 0.0139, 0.0045, 76.9, 33.9)" gradientUnits="userSpaceOnUse" id="gradient3" spreadMethod="pad" x1="-819.2" x2="819.2">
      <stop offset="0.0" stop-color="#666666"/>
      <stop offset="1.0" stop-color="#cccccc"/>
    </linearGradient>
    <linearGradient gradientTransform="matrix(0.0088, -0.027, 0.0139, 0.0045, 76.9, 33.9)" gradientUnits="userSpaceOnUse" id="gradient4" spreadMethod="pad" x1="-819.2" x2="819.2">
      <stop offset="0.0" stop-color="#666666"/>
      <stop offset="1.0" stop-color="#cccccc"/>
    </linearGradient>
    <linearGradient gradientTransform="matrix(0.0076, -0.0028, 0.0025, 0.0068, 47.25, 4.55)" gradientUnits="userSpaceOnUse" id="gradient5" spreadMethod="pad" x1="-819.2" x2="819.2">
      <stop offset="0.0" stop-color="#e9def5"/>
      <stop offset="1.0" stop-color="#ffffff"/>
    </linearGradient>
    <linearGradient gradientTransform="matrix(0.0126, -0.0169, 0.0117, 0.0088, 65.7, 53.9)" gradientUnits="userSpaceOnUse" id="gradient6" spreadMethod="pad" x1="-819.2" x2="819.2">
      <stop offset="0.0" stop-color="#666666"/>
      <stop offset="1.0" stop-color="#cccccc"/>
    </linearGradient>
    <linearGradient gradientTransform="matrix(0.0126, -0.0169, 0.0117, 0.0088, 65.7, 53.9)" gradientUnits="userSpaceOnUse" id="gradient7" spreadMethod="pad" x1="-819.2" x2="819.2">
      <stop offset="0.0" stop-color="#666666"/>
      <stop offset="1.0" stop-color="#cccccc"/>
    </linearGradient>
    <linearGradient gradientTransform="matrix(0.0092, -0.0037, 0.0027, 0.0066, 24.3, 10.15)" gradientUnits="userSpaceOnUse" id="gradient8" spreadMethod="pad" x1="-819.2" x2="819.2">
      <stop offset="0.0" stop-color="#e9def5"/>
      <stop offset="1.0" stop-color="#ffffff"/>
    </linearGradient>
    <linearGradient gradientTransform="matrix(0.0213, -0.0309, 0.012, 0.0083, 73.45, 75.2)" gradientUnits="userSpaceOnUse" id="gradient9" spreadMethod="pad" x1="-819.2" x2="819.2">
      <stop offset="0.0" stop-color="#666666"/>
      <stop offset="1.0" stop-color="#cccccc"/>
    </linearGradient>
    <linearGradient gradientTransform="matrix(0.0093, -0.0212, 0.0209, 0.0091, 49.0, 39.6)" gradientUnits="userSpaceOnUse" id="gradient10" spreadMethod="pad" x1="-819.2" x2="819.2">
      <stop offset="0.0" stop-color="#666666"/>
      <stop offset="1.0" stop-color="#cccccc"/>
    </linearGradient>
    <linearGradient gradientTransform="matrix(0.0193, -0.0229, 0.0157, 0.0132, 41.0, 26.45)" gradientUnits="userSpaceOnUse" id="gradient11" spreadMethod="pad" x1="-819.2" x2="819.2">
      <stop offset="0.0" stop-color="#e9def5"/>
      <stop offset="1.0" stop-color="#ffffff"/>
    </linearGradient>
  </defs>
</svg>
