<?xml version="1.0" encoding="UTF-8" standalone="no"?>
<svg xmlns:xlink="http://www.w3.org/1999/xlink" height="63.1px" width="42.35px" xmlns="http://www.w3.org/2000/svg">
  <g transform="matrix(1.0, 0.0, 0.0, 1.0, -11.4, 20.0)">
    <path d="M52.75 42.1 L12.4 42.1 12.4 16.8 52.75 16.8 52.75 42.1" fill="#7e5629" fill-rule="evenodd" stroke="none"/>
    <path d="M52.75 42.1 L12.4 42.1 12.4 16.8 52.75 16.8 52.75 42.1 Z" fill="none" stroke="#593d1e" stroke-linecap="round" stroke-linejoin="round" stroke-width="2.0"/>
    <path d="M52.75 42.1 L12.4 42.1 12.4 18.75 52.75 18.75 52.75 42.1" fill="#6a4822" fill-rule="evenodd" stroke="none"/>
    <path d="M52.75 40.15 L12.4 40.15 12.4 16.8 52.75 16.8 52.75 40.15" fill="#9a6832" fill-opacity="0.9882353" fill-rule="evenodd" stroke="none"/>
    <path d="M20.6 40.05 L20.1 40.05 20.2 16.7 20.7 16.7 20.6 40.05 M16.15 16.7 L16.65 16.7 16.65 40.05 16.15 40.05 16.15 16.7 M27.35 16.7 L27.85 16.7 27.5 40.05 27.0 40.05 27.35 16.7 M23.85 16.7 L24.35 16.7 24.35 40.05 23.85 40.05 23.85 16.7 M38.3 16.7 L38.8 16.7 38.9 40.05 38.4 40.05 38.3 16.7 M34.9 16.7 L35.4 16.7 35.4 40.05 34.9 40.05 34.9 16.7 M31.05 16.7 L31.55 16.7 31.35 40.05 30.85 40.05 31.05 16.7 M49.15 16.85 L49.25 17.05 49.35 40.05 49.25 40.3 49.1 40.4 48.9 40.3 48.85 40.05 48.75 17.05 48.8 16.85 49.0 16.7 49.15 16.85 M42.1 16.7 L42.6 16.7 42.6 40.05 42.1 40.05 42.1 16.7 M45.45 16.7 L45.95 16.7 45.95 40.05 45.45 40.05 45.45 16.7" fill="#775228" fill-rule="evenodd" stroke="none"/>
    <path d="M42.65 -18.55 L42.75 -18.75 42.95 -18.8 43.1 -18.7 Q47.25 -13.6 42.95 20.05 L42.85 20.2 42.7 20.25 42.5 20.15 42.45 20.0 Q46.75 -13.3 42.7 -18.4 L42.65 -18.55" fill="#452f16" fill-rule="evenodd" stroke="none"/>
    <path d="M43.35 -19.75 L44.2 19.4 41.0 19.25 41.95 -19.75 43.35 -19.75" fill="#7e5629" fill-rule="evenodd" stroke="none"/>
    <path d="M43.35 -19.75 L44.2 19.4 41.0 19.25 41.95 -19.75 43.35 -19.75 Z" fill="none" stroke="#593d1e" stroke-linecap="round" stroke-linejoin="round" stroke-width="0.5"/>
  </g>
</svg>
