<?xml version="1.0" encoding="UTF-8" standalone="no"?>
<svg xmlns:xlink="http://www.w3.org/1999/xlink" height="4.05px" width="4.05px" xmlns="http://www.w3.org/2000/svg">
  <g transform="matrix(1.0, 0.0, 0.0, 1.0, 0.15, 0.2)">
    <path d="M2.0 -0.15 L2.1 -0.05 2.2 0.85 2.2 1.2 2.45 0.95 3.25 0.2 3.3 0.3 3.35 0.3 3.4 0.35 3.4 0.45 2.85 1.25 2.5 1.55 3.3 1.5 Q3.8 1.4 3.9 1.85 L3.85 1.9 3.85 2.0 3.8 2.0 3.65 2.1 3.3 2.1 2.4 2.2 2.9 2.65 Q3.25 3.0 3.15 3.5 L2.95 3.5 2.85 3.5 2.2 2.75 2.1 3.0 2.0 3.85 Q1.6 3.65 1.6 2.95 L1.6 2.4 1.25 2.85 0.7 3.35 Q0.3 2.95 0.95 2.4 L1.1 2.25 -0.05 2.0 -0.15 1.9 -0.15 1.6 -0.05 1.6 0.0 1.55 0.1 1.5 0.3 1.5 0.65 1.5 1.25 1.55 0.95 1.1 Q0.45 0.6 0.7 0.2 L1.5 1.0 1.6 1.25 1.6 0.8 1.7 0.0 1.7 -0.05 1.75 -0.15 1.85 -0.15 1.9 -0.2 2.0 -0.15" fill="#ffffff" fill-rule="evenodd" stroke="none"/>
  </g>
</svg>
