<?xml version="1.0" encoding="UTF-8" standalone="no"?>
<svg xmlns:xlink="http://www.w3.org/1999/xlink" height="36.85px" width="44.9px" xmlns="http://www.w3.org/2000/svg">
  <g transform="matrix(1.0, 0.0, 0.0, 1.0, 1.0, 6.7)">
    <path d="M36.85 19.6 L6.05 19.6 6.05 2.2 36.85 2.2 36.85 19.6" fill="#d0a067" fill-rule="evenodd" stroke="none"/>
    <path d="M38.1 -5.7 L36.85 2.15 42.9 -4.35 42.9 13.15 36.9 19.65 39.65 25.75 35.85 25.75 35.3 29.15 7.6 29.15 7.05 25.75 3.25 25.75 6.05 19.65 0.0 13.15 0.0 -4.35 6.0 2.1 4.8 -5.7 38.1 -5.7 M36.85 19.6 L36.85 2.2 6.05 2.2 6.05 19.6 36.85 19.6" fill="#bd8d53" fill-rule="evenodd" stroke="none"/>
    <path d="M38.1 -5.7 L36.85 2.15 42.9 -4.35 42.9 13.15 36.9 19.65 39.65 25.75 35.85 25.75 35.3 29.15 7.6 29.15 7.05 25.75 3.25 25.75 6.05 19.65 0.0 13.15 0.0 -4.35 6.0 2.1 4.8 -5.7 38.1 -5.7 M36.85 19.6 L6.05 19.6 6.05 2.2 36.85 2.2 36.85 19.6" fill="none" stroke="#855a27" stroke-linecap="round" stroke-linejoin="round" stroke-width="2.0"/>
    <path d="M6.05 2.15 L36.85 2.15 36.85 19.65 6.05 19.65 6.05 2.15" fill="#d0a067" fill-rule="evenodd" stroke="none"/>
    <path d="M34.55 17.8 L8.35 17.8 8.35 3.95 34.55 3.95 34.55 17.8" fill="#a37743" fill-rule="evenodd" stroke="none"/>
    <path d="M6.05 19.65 L36.85 19.65 35.3 29.15 7.6 29.15 6.05 19.65" fill="#bd8d53" fill-rule="evenodd" stroke="none"/>
    <path d="M36.85 19.65 L36.85 2.15 42.9 -4.35 42.9 13.15 36.85 19.65 M6.05 19.65 L0.0 13.15 0.0 -4.35 6.05 2.15 6.05 19.65" fill="#bd8d53" fill-rule="evenodd" stroke="none"/>
    <path d="M7.2 26.55 L6.2 20.4 36.75 20.4 35.75 26.55 7.2 26.55" fill="#a37743" fill-rule="evenodd" stroke="none"/>
    <path d="M3.25 25.75 L6.05 19.6 36.85 19.6 39.65 25.75 3.25 25.75" fill="#bd8d53" fill-rule="evenodd" stroke="none"/>
    <path d="M6.0 2.2 L4.8 -5.7 38.1 -5.7 36.85 2.2 6.0 2.2" fill="#bd8d53" fill-rule="evenodd" stroke="none"/>
  </g>
</svg>
