<?xml version="1.0" encoding="UTF-8" standalone="no"?>
<svg xmlns:xlink="http://www.w3.org/1999/xlink" height="56.55px" width="52.35px" xmlns="http://www.w3.org/2000/svg">
  <g transform="matrix(1.0, 0.0, 0.0, 1.0, -70.55, -18.4)">
    <path d="M92.2 20.85 L93.7 20.9 Q94.45 20.85 94.8 21.45 L95.15 22.4 95.95 24.2 96.4 26.0 96.8 30.3 96.85 33.2 97.05 35.3 97.25 37.6 Q97.25 38.2 97.75 38.9 L98.5 39.85 98.65 40.9 98.85 42.05 98.85 45.5 99.6 49.15 100.3 53.55 100.9 56.0 101.0 56.55 100.2 57.85 99.2 59.1 97.55 60.2 95.1 60.85 Q94.4 60.9 91.0 62.1 L87.2 63.3 Q84.95 63.3 80.65 61.65 77.05 60.35 75.5 59.35 73.95 59.35 73.15 58.65 L72.55 57.65 Q72.55 57.4 72.9 56.75 L73.35 56.05 73.4 56.1 73.8 53.25 73.75 50.65 73.95 48.45 74.35 46.2 75.3 45.0 76.25 43.9 76.45 42.9 76.6 41.7 Q77.2 39.3 77.25 37.1 L77.2 32.85 Q77.2 31.6 77.65 29.05 L78.15 25.55 Q78.65 22.9 79.7 22.15 81.7 20.7 88.85 20.4 L89.75 20.4 92.2 20.85" fill="#d08e50" fill-rule="evenodd" stroke="none"/>
    <path d="M92.2 20.85 L93.7 20.9 Q94.45 20.85 94.8 21.45 L95.15 22.4 95.95 24.2 96.4 26.0 96.8 30.3 96.85 33.2 97.05 35.3 97.25 37.6 Q97.25 38.2 97.75 38.9 L98.5 39.85 98.65 40.9 98.85 42.05 98.85 45.5 99.6 49.15 100.3 53.55 100.9 56.0 101.0 56.55 100.2 57.85 99.2 59.1 97.55 60.2 95.1 60.85 Q94.4 60.9 91.0 62.1 L87.2 63.3 Q84.95 63.3 80.65 61.65 77.05 60.35 75.5 59.35 73.95 59.35 73.15 58.65 L72.55 57.65 Q72.55 57.4 72.9 56.75 L73.35 56.05 73.4 56.1 73.8 53.25 73.75 50.65 73.95 48.45 74.35 46.2 75.3 45.0 76.25 43.9 76.45 42.9 76.6 41.7 Q77.2 39.3 77.25 37.1 L77.2 32.85 Q77.2 31.6 77.65 29.05 L78.15 25.55 Q78.65 22.9 79.7 22.15 81.7 20.7 88.85 20.4 L89.75 20.4 92.2 20.85 Z" fill="none" stroke="#79461e" stroke-linecap="round" stroke-linejoin="round" stroke-width="4.0"/>
    <path d="M95.05 22.45 L95.9 24.2 96.35 26.05 96.8 30.35 96.8 33.25 97.05 35.4 97.3 37.7 Q97.3 38.3 97.75 38.95 L98.45 39.85 98.6 40.9 98.8 42.05 98.8 45.55 99.65 49.2 100.35 53.65 100.95 56.05 100.95 56.55 100.25 57.9 99.15 59.15 97.55 60.3 Q96.45 60.8 95.05 60.9 L90.95 62.15 87.2 63.4 Q84.95 63.4 80.6 61.75 77.0 60.4 75.45 59.45 73.95 59.45 73.1 58.75 72.5 58.2 72.5 57.7 72.5 57.5 72.85 56.75 L73.35 56.15 73.8 53.35 73.7 50.75 73.95 48.45 Q74.15 46.6 74.3 46.2 L75.35 45.05 76.3 44.0 76.4 42.95 76.65 41.75 Q77.2 39.35 77.2 37.15 L77.2 32.9 Q77.2 31.65 77.55 29.1 L78.15 25.65 Q78.6 22.95 79.7 22.25 81.7 20.8 88.85 20.45 L89.8 20.45 92.15 20.9 93.65 21.0 Q94.45 20.9 94.7 21.5 L95.05 22.45" fill="#c47b35" fill-rule="evenodd" stroke="none"/>
    <path d="M79.7 22.15 Q81.7 20.7 88.85 20.4 L89.75 20.4 92.2 20.85 93.7 20.9 Q94.45 20.85 94.8 21.45 L95.15 22.4 95.5 23.3 95.9 22.75 95.05 23.9 93.15 26.15 Q92.25 27.4 90.5 28.1 88.95 28.7 86.95 28.75 L86.05 28.75 Q84.95 28.7 84.0 28.25 83.2 27.55 82.75 27.45 82.05 27.2 81.05 26.45 L79.95 25.45 78.7 23.6 Q79.1 22.6 79.7 22.15" fill="#e29d4a" fill-rule="evenodd" stroke="none"/>
    <path d="M95.25 23.05 L95.7 24.0 96.15 25.85 96.6 30.15 96.65 33.05 96.8 35.15 97.05 37.45 Q97.05 38.1 97.55 38.75 L98.25 39.75 98.45 40.75 98.65 41.9 98.65 45.4 99.4 49.05 100.1 53.4 Q100.1 53.85 100.65 55.85 L100.75 56.4 100.0 57.7 98.95 59.0 97.35 60.1 Q96.3 60.6 94.85 60.7 L90.75 61.95 87.0 63.2 85.0 62.95 85.8 60.85 85.3 59.8 Q84.75 58.8 84.75 57.85 84.75 57.15 85.45 54.75 L86.25 51.75 Q86.7 50.1 87.55 48.3 L87.85 45.6 87.15 43.35 Q86.35 41.1 86.25 40.0 86.2 38.85 85.75 37.2 L85.05 34.35 85.0 34.15 85.0 30.5 85.3 29.1 85.6 28.6 86.25 28.65 Q87.75 28.65 88.85 28.0 90.0 28.0 91.25 26.95 92.55 25.95 93.2 24.75 L93.7 23.85 95.25 23.05" fill="#945727" fill-rule="evenodd" stroke="none"/>
    <path d="M113.85 23.95 L115.05 24.0 Q115.65 23.95 115.9 24.65 L116.2 25.75 116.85 27.8 117.2 29.9 117.55 34.85 117.6 38.2 117.75 40.65 117.9 43.25 Q117.9 44.0 118.3 44.75 L118.9 45.9 119.05 47.05 119.15 48.4 119.15 52.4 119.8 56.65 120.35 61.7 120.85 64.55 120.9 65.15 120.3 66.65 119.45 68.1 118.15 69.4 Q117.35 70.0 116.15 70.15 115.6 70.2 112.85 71.6 L109.85 72.95 Q108.0 72.95 104.55 71.05 101.65 69.55 100.4 68.4 99.2 68.4 98.5 67.6 L98.05 66.45 98.3 65.35 98.7 64.6 98.75 64.65 99.05 61.35 99.0 58.4 99.2 55.8 99.5 53.2 100.25 51.85 101.0 50.55 101.15 49.4 101.3 48.05 Q101.8 45.2 101.8 42.7 L101.75 37.8 102.15 33.4 102.55 29.4 Q102.95 26.3 103.75 25.45 105.4 23.8 111.15 23.45 L111.9 23.45 113.85 23.95" fill="#d08e50" fill-rule="evenodd" stroke="none"/>
    <path d="M113.85 23.95 L115.05 24.0 Q115.65 23.95 115.9 24.65 L116.2 25.75 116.85 27.8 117.2 29.9 117.55 34.85 117.6 38.2 117.75 40.65 117.9 43.25 Q117.9 44.0 118.3 44.75 L118.9 45.9 119.05 47.05 119.15 48.4 119.15 52.4 119.8 56.65 120.35 61.7 120.85 64.55 120.9 65.15 120.3 66.65 119.45 68.1 118.15 69.4 Q117.35 70.0 116.15 70.15 115.6 70.2 112.85 71.6 L109.85 72.95 Q108.0 72.95 104.55 71.05 101.65 69.55 100.4 68.4 99.2 68.4 98.5 67.6 L98.05 66.45 98.3 65.35 98.7 64.6 98.75 64.65 99.05 61.35 99.0 58.4 99.2 55.8 99.5 53.2 100.25 51.85 101.0 50.55 101.15 49.4 101.3 48.05 Q101.8 45.2 101.8 42.7 L101.75 37.8 102.15 33.4 102.55 29.4 Q102.95 26.3 103.75 25.45 105.4 23.8 111.15 23.45 L111.9 23.45 113.85 23.95 Z" fill="none" stroke="#79461e" stroke-linecap="round" stroke-linejoin="round" stroke-width="4.0"/>
    <path d="M116.25 25.8 L116.9 27.85 117.25 30.0 117.65 34.9 117.65 38.25 117.85 40.75 118.0 43.4 Q118.0 44.1 118.4 44.85 L118.95 45.9 119.05 47.1 119.25 48.45 119.25 52.5 119.9 56.7 120.5 61.85 120.95 64.6 120.95 65.2 120.4 66.75 119.55 68.2 118.2 69.5 116.25 70.2 Q115.65 70.35 112.95 71.65 L109.9 73.1 Q108.1 73.1 104.6 71.15 101.7 69.6 100.45 68.55 99.25 68.55 98.6 67.7 98.1 67.1 98.1 66.5 L98.4 65.45 98.75 64.7 99.15 61.5 99.05 58.5 99.25 55.85 99.5 53.2 100.35 51.9 101.15 50.7 101.2 49.5 101.4 48.05 Q101.9 45.3 101.9 42.8 L101.9 37.9 102.15 33.45 102.65 29.5 Q103.0 26.4 103.85 25.55 105.45 23.9 111.25 23.55 L112.0 23.55 113.85 24.0 115.1 24.15 Q115.75 24.0 115.95 24.75 L116.25 25.8" fill="#c47b35" fill-rule="evenodd" stroke="none"/>
    <path d="M103.75 25.45 Q105.4 23.8 111.15 23.45 L111.9 23.45 113.85 23.95 115.05 24.0 Q115.65 23.95 115.9 24.65 L116.2 25.75 116.5 26.8 116.8 26.15 116.1 27.5 114.6 30.05 Q113.85 31.5 112.45 32.35 111.2 33.0 109.65 33.1 L108.9 33.1 Q108.0 33.05 107.25 32.5 L106.25 31.55 104.9 30.4 104.0 29.25 103.0 27.15 Q103.3 25.95 103.75 25.45" fill="#e29d4a" fill-rule="evenodd" stroke="none"/>
    <path d="M115.25 28.7 L115.65 27.6 116.9 26.7 117.3 27.8 117.65 29.95 118.0 34.9 118.0 38.25 118.2 40.65 118.35 43.3 Q118.35 44.05 118.75 44.8 L119.35 45.95 119.45 47.1 119.6 48.45 119.6 52.45 120.25 56.65 120.8 61.75 121.25 64.6 121.35 65.15 120.75 66.65 119.85 68.15 118.6 69.45 Q117.75 70.0 116.6 70.15 116.05 70.25 113.3 71.6 L110.3 73.0 108.65 72.75 109.35 70.3 108.9 69.1 Q108.45 67.95 108.45 66.9 108.45 66.0 109.0 63.3 L109.7 59.8 Q110.05 57.95 110.7 55.8 L111.0 52.75 110.4 50.1 Q109.8 47.55 109.7 46.25 L109.3 43.05 108.7 39.75 108.65 39.45 108.65 35.3 108.9 33.7 109.15 33.1 109.7 33.2 Q110.9 33.2 111.75 32.4 112.65 32.4 113.7 31.2 114.7 30.05 115.25 28.7" fill="#945727" fill-rule="evenodd" stroke="none"/>
  </g>
</svg>
