<?xml version="1.0" encoding="UTF-8" standalone="no"?>
<svg xmlns:xlink="http://www.w3.org/1999/xlink" height="9.05px" width="21.2px" xmlns="http://www.w3.org/2000/svg">
  <g transform="matrix(1.0, 0.0, 0.0, 1.0, 13.0, -7.7)">
    <path d="M5.1 10.6 Q8.2 11.65 8.2 13.15 8.2 14.65 5.1 15.7 2.0 16.75 -2.4 16.75 -6.8 16.75 -9.9 15.7 -13.0 14.65 -13.0 13.15 L-13.0 13.1 Q-12.9 11.6 -9.9 10.6 -6.8 9.55 -2.4 9.55 L1.8 9.85 5.1 10.6" fill="#000000" fill-opacity="0.3019608" fill-rule="evenodd" stroke="none"/>
    <path d="M-2.15 9.2 L-4.8 10.1 -1.5 11.05 -4.65 12.0 -1.55 13.55 -4.85 13.55" fill="none" stroke="#000000" stroke-linecap="round" stroke-linejoin="round" stroke-width="3.0"/>
    <path d="M-2.15 9.2 L-4.8 10.1 -1.5 11.05 -4.65 12.0 -1.55 13.55 -4.85 13.55" fill="none" stroke="#666666" stroke-linecap="round" stroke-linejoin="round" stroke-width="1.0"/>
  </g>
</svg>
