<?xml version="1.0" encoding="UTF-8" standalone="no"?>
<svg xmlns:xlink="http://www.w3.org/1999/xlink" height="34.35px" width="60.55px" xmlns="http://www.w3.org/2000/svg">
  <g transform="matrix(1.0, 0.0, 0.0, 1.0, -1.75, -28.9)">
    <path d="M41.9 42.4 Q41.8 43.8 41.25 43.8 L35.55 43.8 Q34.75 43.5 34.85 42.4 34.6 39.1 35.55 38.75 L40.85 38.75 Q42.05 38.4 41.9 42.4" fill="#934313" fill-rule="evenodd" stroke="none"/>
    <path d="M41.9 42.4 Q41.8 43.8 41.25 43.8 L35.55 43.8 Q34.75 43.5 34.85 42.4 34.6 39.1 35.55 38.75 L40.85 38.75 Q42.05 38.4 41.9 42.4 Z" fill="none" stroke="#351806" stroke-linecap="round" stroke-linejoin="round" stroke-width="2.0"/>
    <path d="M34.8 42.4 Q34.7 43.8 34.15 43.8 L28.45 43.8 Q27.65 43.5 27.75 42.4 27.5 39.1 28.45 38.75 L33.75 38.75 Q34.95 38.4 34.8 42.4" fill="#934313" fill-rule="evenodd" stroke="none"/>
    <path d="M34.8 42.4 Q34.7 43.8 34.15 43.8 L28.45 43.8 Q27.65 43.5 27.75 42.4 27.5 39.1 28.45 38.75 L33.75 38.75 Q34.95 38.4 34.8 42.4 Z" fill="none" stroke="#351806" stroke-linecap="round" stroke-linejoin="round" stroke-width="2.0"/>
    <path d="M21.1 42.4 Q21.0 43.8 20.45 43.8 L14.75 43.8 Q13.95 43.5 14.05 42.4 13.8 39.1 14.75 38.75 L20.05 38.75 Q21.25 38.4 21.1 42.4" fill="#934313" fill-rule="evenodd" stroke="none"/>
    <path d="M21.1 42.4 Q21.0 43.8 20.45 43.8 L14.75 43.8 Q13.95 43.5 14.05 42.4 13.8 39.1 14.75 38.75 L20.05 38.75 Q21.25 38.4 21.1 42.4 Z" fill="none" stroke="#351806" stroke-linecap="round" stroke-linejoin="round" stroke-width="2.0"/>
    <path d="M27.5 42.4 Q27.4 43.8 26.85 43.8 L21.15 43.8 Q20.35 43.5 20.45 42.4 20.2 39.1 21.15 38.75 L26.45 38.75 Q27.65 38.4 27.5 42.4" fill="#934313" fill-rule="evenodd" stroke="none"/>
    <path d="M27.5 42.4 Q27.4 43.8 26.85 43.8 L21.15 43.8 Q20.35 43.5 20.45 42.4 20.2 39.1 21.15 38.75 L26.45 38.75 Q27.65 38.4 27.5 42.4 Z" fill="none" stroke="#351806" stroke-linecap="round" stroke-linejoin="round" stroke-width="2.0"/>
    <path d="M44.65 43.45 L42.55 43.45 Q42.0 43.05 42.0 42.0 41.95 38.8 42.55 38.35 L44.55 38.35 Q45.25 38.3 45.3 42.0 45.25 43.4 44.65 43.45" fill="#934313" fill-rule="evenodd" stroke="none"/>
    <path d="M44.65 43.45 L42.55 43.45 Q42.0 43.05 42.0 42.0 41.95 38.8 42.55 38.35 L44.55 38.35 Q45.25 38.3 45.3 42.0 45.25 43.4 44.65 43.45 Z" fill="none" stroke="#351806" stroke-linecap="round" stroke-linejoin="round" stroke-width="2.0"/>
    <path d="M13.75 42.4 Q13.65 43.8 13.1 43.8 L7.4 43.8 Q6.6 43.5 6.7 42.4 6.45 39.1 7.4 38.75 L12.7 38.75 Q13.9 38.4 13.75 42.4" fill="#934313" fill-rule="evenodd" stroke="none"/>
    <path d="M13.75 42.4 Q13.65 43.8 13.1 43.8 L7.4 43.8 Q6.6 43.5 6.7 42.4 6.45 39.1 7.4 38.75 L12.7 38.75 Q13.9 38.4 13.75 42.4 Z" fill="none" stroke="#351806" stroke-linecap="round" stroke-linejoin="round" stroke-width="2.0"/>
    <path d="M5.4 43.45 L3.3 43.45 Q2.75 43.05 2.75 42.0 2.7 38.8 3.3 38.35 L5.3 38.35 Q6.0 38.3 6.05 42.0 6.0 43.4 5.4 43.45" fill="#934313" fill-rule="evenodd" stroke="none"/>
    <path d="M5.4 43.45 L3.3 43.45 Q2.75 43.05 2.75 42.0 2.7 38.8 3.3 38.35 L5.3 38.35 Q6.0 38.3 6.05 42.0 6.0 43.4 5.4 43.45 Z" fill="none" stroke="#351806" stroke-linecap="round" stroke-linejoin="round" stroke-width="2.0"/>
    <path d="M41.9 42.4 Q41.8 43.8 41.25 43.8 L35.55 43.8 Q34.75 43.5 34.85 42.4 L41.9 42.4" fill="#56270c" fill-rule="evenodd" stroke="none"/>
    <path d="M34.85 42.4 Q34.6 39.1 35.55 38.75 L40.85 38.75 Q42.05 38.4 41.9 42.4 L34.85 42.4" fill="#934313" fill-rule="evenodd" stroke="none"/>
    <path d="M34.8 42.4 Q34.7 43.8 34.15 43.8 L28.45 43.8 Q27.65 43.5 27.75 42.4 L34.8 42.4" fill="#533509" fill-rule="evenodd" stroke="none"/>
    <path d="M27.75 42.4 Q27.5 39.1 28.45 38.75 L33.75 38.75 Q34.95 38.4 34.8 42.4 L27.75 42.4" fill="#97610f" fill-rule="evenodd" stroke="none"/>
    <path d="M21.1 42.4 Q21.0 43.8 20.45 43.8 L14.75 43.8 Q13.95 43.5 14.05 42.4 L21.1 42.4" fill="#533509" fill-rule="evenodd" stroke="none"/>
    <path d="M14.05 42.4 Q13.8 39.1 14.75 38.75 L20.05 38.75 Q21.25 38.4 21.1 42.4 L14.05 42.4" fill="#97610f" fill-rule="evenodd" stroke="none"/>
    <path d="M27.5 42.4 Q27.4 43.8 26.85 43.8 L21.15 43.8 Q20.35 43.5 20.45 42.4 L27.5 42.4" fill="#56270c" fill-rule="evenodd" stroke="none"/>
    <path d="M20.45 42.4 Q20.2 39.1 21.15 38.75 L26.45 38.75 Q27.65 38.4 27.5 42.4 L20.45 42.4" fill="#934313" fill-rule="evenodd" stroke="none"/>
    <path d="M45.3 42.0 Q45.25 43.4 44.65 43.45 L42.55 43.45 Q42.0 43.05 42.0 42.0 L45.3 42.0" fill="#56270c" fill-rule="evenodd" stroke="none"/>
    <path d="M42.0 42.0 Q41.95 38.8 42.55 38.35 L44.55 38.35 Q45.25 38.3 45.3 42.0 L42.0 42.0" fill="#934313" fill-rule="evenodd" stroke="none"/>
    <path d="M13.75 42.4 Q13.65 43.8 13.1 43.8 L7.4 43.8 Q6.6 43.5 6.7 42.4 L13.75 42.4" fill="#56270c" fill-rule="evenodd" stroke="none"/>
    <path d="M6.7 42.4 Q6.45 39.1 7.4 38.75 L12.7 38.75 Q13.9 38.4 13.75 42.4 L6.7 42.4" fill="#934313" fill-rule="evenodd" stroke="none"/>
    <path d="M6.05 42.0 Q6.0 43.4 5.4 43.45 L3.3 43.45 Q2.75 43.05 2.75 42.0 L6.05 42.0" fill="#56270c" fill-rule="evenodd" stroke="none"/>
    <path d="M2.75 42.0 Q2.7 38.8 3.3 38.35 L5.3 38.35 Q6.0 38.3 6.05 42.0 L2.75 42.0" fill="#934313" fill-rule="evenodd" stroke="none"/>
    <path d="M45.2 40.35 Q45.1 41.75 44.65 41.75 L40.3 41.75 Q39.7 41.45 39.75 40.35 39.55 37.05 40.3 36.7 L44.4 36.7 Q45.3 36.35 45.2 40.35" fill="#934313" fill-rule="evenodd" stroke="none"/>
    <path d="M45.2 40.35 Q45.1 41.75 44.65 41.75 L40.3 41.75 Q39.7 41.45 39.75 40.35 39.55 37.05 40.3 36.7 L44.4 36.7 Q45.3 36.35 45.2 40.35 Z" fill="none" stroke="#351806" stroke-linecap="round" stroke-linejoin="round" stroke-width="2.0"/>
    <path d="M40.15 40.35 Q40.05 41.75 39.5 41.75 L33.8 41.75 Q33.0 41.45 33.1 40.35 32.85 37.05 33.8 36.7 L39.1 36.7 Q40.3 36.35 40.15 40.35" fill="#934313" fill-rule="evenodd" stroke="none"/>
    <path d="M40.15 40.35 Q40.05 41.75 39.5 41.75 L33.8 41.75 Q33.0 41.45 33.1 40.35 32.85 37.05 33.8 36.7 L39.1 36.7 Q40.3 36.35 40.15 40.35 Z" fill="none" stroke="#351806" stroke-linecap="round" stroke-linejoin="round" stroke-width="2.0"/>
    <path d="M32.75 40.35 Q32.65 41.75 32.1 41.75 L26.4 41.75 Q25.6 41.45 25.7 40.35 25.45 37.05 26.4 36.7 L31.7 36.7 Q32.9 36.35 32.75 40.35" fill="#934313" fill-rule="evenodd" stroke="none"/>
    <path d="M32.75 40.35 Q32.65 41.75 32.1 41.75 L26.4 41.75 Q25.6 41.45 25.7 40.35 25.45 37.05 26.4 36.7 L31.7 36.7 Q32.9 36.35 32.75 40.35 Z" fill="none" stroke="#351806" stroke-linecap="round" stroke-linejoin="round" stroke-width="2.0"/>
    <path d="M18.35 40.35 Q18.25 41.75 17.7 41.75 L12.0 41.75 Q11.2 41.45 11.3 40.35 11.05 37.05 12.0 36.7 L17.3 36.7 Q18.5 36.35 18.35 40.35" fill="#934313" fill-rule="evenodd" stroke="none"/>
    <path d="M18.35 40.35 Q18.25 41.75 17.7 41.75 L12.0 41.75 Q11.2 41.45 11.3 40.35 11.05 37.05 12.0 36.7 L17.3 36.7 Q18.5 36.35 18.35 40.35 Z" fill="none" stroke="#351806" stroke-linecap="round" stroke-linejoin="round" stroke-width="2.0"/>
    <path d="M25.9 40.35 Q25.8 41.75 25.25 41.75 L19.55 41.75 Q18.75 41.45 18.85 40.35 18.6 37.05 19.55 36.7 L24.85 36.7 Q26.05 36.35 25.9 40.35" fill="#934313" fill-rule="evenodd" stroke="none"/>
    <path d="M25.9 40.35 Q25.8 41.75 25.25 41.75 L19.55 41.75 Q18.75 41.45 18.85 40.35 18.6 37.05 19.55 36.7 L24.85 36.7 Q26.05 36.35 25.9 40.35 Z" fill="none" stroke="#351806" stroke-linecap="round" stroke-linejoin="round" stroke-width="2.0"/>
    <path d="M11.7 40.35 Q11.6 41.75 11.05 41.75 L5.35 41.75 Q4.55 41.45 4.65 40.35 4.4 37.05 5.35 36.7 L10.65 36.7 Q11.85 36.35 11.7 40.35" fill="#934313" fill-rule="evenodd" stroke="none"/>
    <path d="M11.7 40.35 Q11.6 41.75 11.05 41.75 L5.35 41.75 Q4.55 41.45 4.65 40.35 4.4 37.05 5.35 36.7 L10.65 36.7 Q11.85 36.35 11.7 40.35 Z" fill="none" stroke="#351806" stroke-linecap="round" stroke-linejoin="round" stroke-width="2.0"/>
    <path d="M45.2 40.35 Q45.1 41.75 44.65 41.75 L40.3 41.75 Q39.7 41.45 39.75 40.35 L45.2 40.35" fill="#56270c" fill-rule="evenodd" stroke="none"/>
    <path d="M39.75 40.35 Q39.55 37.05 40.3 36.7 L44.4 36.7 Q45.3 36.35 45.2 40.35 L39.75 40.35" fill="#934313" fill-rule="evenodd" stroke="none"/>
    <path d="M40.15 40.35 Q40.05 41.75 39.5 41.75 L33.8 41.75 Q33.0 41.45 33.1 40.35 L40.15 40.35" fill="#56270c" fill-rule="evenodd" stroke="none"/>
    <path d="M33.1 40.35 Q32.85 37.05 33.8 36.7 L39.1 36.7 Q40.3 36.35 40.15 40.35 L33.1 40.35" fill="#934313" fill-rule="evenodd" stroke="none"/>
    <path d="M32.75 40.35 Q32.65 41.75 32.1 41.75 L26.4 41.75 Q25.6 41.45 25.7 40.35 L32.75 40.35" fill="#56270c" fill-rule="evenodd" stroke="none"/>
    <path d="M25.7 40.35 Q25.45 37.05 26.4 36.7 L31.7 36.7 Q32.9 36.35 32.75 40.35 L25.7 40.35" fill="#934313" fill-rule="evenodd" stroke="none"/>
    <path d="M18.35 40.35 Q18.25 41.75 17.7 41.75 L12.0 41.75 Q11.2 41.45 11.3 40.35 L18.35 40.35" fill="#56270c" fill-rule="evenodd" stroke="none"/>
    <path d="M11.3 40.35 Q11.05 37.05 12.0 36.7 L17.3 36.7 Q18.5 36.35 18.35 40.35 L11.3 40.35" fill="#934313" fill-rule="evenodd" stroke="none"/>
    <path d="M25.9 40.35 Q25.8 41.75 25.25 41.75 L19.55 41.75 Q18.75 41.45 18.85 40.35 L25.9 40.35" fill="#533509" fill-rule="evenodd" stroke="none"/>
    <path d="M18.85 40.35 Q18.6 37.05 19.55 36.7 L24.85 36.7 Q26.05 36.35 25.9 40.35 L18.85 40.35" fill="#97610f" fill-rule="evenodd" stroke="none"/>
    <path d="M11.7 40.35 Q11.6 41.75 11.05 41.75 L5.35 41.75 Q4.55 41.45 4.65 40.35 L11.7 40.35" fill="#533509" fill-rule="evenodd" stroke="none"/>
    <path d="M4.65 40.35 Q4.4 37.05 5.35 36.7 L10.65 36.7 Q11.85 36.35 11.7 40.35 L4.65 40.35" fill="#97610f" fill-rule="evenodd" stroke="none"/>
    <path d="M41.9 38.8 Q41.8 40.2 41.25 40.2 L35.55 40.2 Q34.75 39.9 34.85 38.8 34.6 35.5 35.55 35.15 L40.85 35.15 Q42.05 34.8 41.9 38.8" fill="#934313" fill-rule="evenodd" stroke="none"/>
    <path d="M41.9 38.8 Q41.8 40.2 41.25 40.2 L35.55 40.2 Q34.75 39.9 34.85 38.8 34.6 35.5 35.55 35.15 L40.85 35.15 Q42.05 34.8 41.9 38.8 Z" fill="none" stroke="#351806" stroke-linecap="round" stroke-linejoin="round" stroke-width="2.0"/>
    <path d="M35.0 38.8 Q34.9 40.2 34.35 40.2 L28.65 40.2 Q27.85 39.9 27.95 38.8 27.7 35.5 28.65 35.15 L33.95 35.15 Q35.15 34.8 35.0 38.8" fill="#934313" fill-rule="evenodd" stroke="none"/>
    <path d="M35.0 38.8 Q34.9 40.2 34.35 40.2 L28.65 40.2 Q27.85 39.9 27.95 38.8 27.7 35.5 28.65 35.15 L33.95 35.15 Q35.15 34.8 35.0 38.8 Z" fill="none" stroke="#351806" stroke-linecap="round" stroke-linejoin="round" stroke-width="2.0"/>
    <path d="M21.1 38.8 Q21.0 40.2 20.45 40.2 L14.75 40.2 Q13.95 39.9 14.05 38.8 13.8 35.5 14.75 35.15 L20.05 35.15 Q21.25 34.8 21.1 38.8" fill="#934313" fill-rule="evenodd" stroke="none"/>
    <path d="M21.1 38.8 Q21.0 40.2 20.45 40.2 L14.75 40.2 Q13.95 39.9 14.05 38.8 13.8 35.5 14.75 35.15 L20.05 35.15 Q21.25 34.8 21.1 38.8 Z" fill="none" stroke="#351806" stroke-linecap="round" stroke-linejoin="round" stroke-width="2.0"/>
    <path d="M28.55 38.8 Q28.45 40.2 27.9 40.2 L22.2 40.2 Q21.4 39.9 21.5 38.8 21.25 35.5 22.2 35.15 L27.5 35.15 Q28.7 34.8 28.55 38.8" fill="#934313" fill-rule="evenodd" stroke="none"/>
    <path d="M28.55 38.8 Q28.45 40.2 27.9 40.2 L22.2 40.2 Q21.4 39.9 21.5 38.8 21.25 35.5 22.2 35.15 L27.5 35.15 Q28.7 34.8 28.55 38.8 Z" fill="none" stroke="#351806" stroke-linecap="round" stroke-linejoin="round" stroke-width="2.0"/>
    <path d="M5.4 40.3 L3.3 40.3 Q2.75 39.9 2.75 38.85 2.7 35.65 3.3 35.2 L5.3 35.2 Q6.0 35.15 6.05 38.85 6.0 40.25 5.4 40.3" fill="#934313" fill-rule="evenodd" stroke="none"/>
    <path d="M5.4 40.3 L3.3 40.3 Q2.75 39.9 2.75 38.85 2.7 35.65 3.3 35.2 L5.3 35.2 Q6.0 35.15 6.05 38.85 6.0 40.25 5.4 40.3 Z" fill="none" stroke="#351806" stroke-linecap="round" stroke-linejoin="round" stroke-width="2.0"/>
    <path d="M41.9 38.8 Q41.8 40.2 41.25 40.2 L35.55 40.2 Q34.75 39.9 34.85 38.8 L41.9 38.8" fill="#56270c" fill-rule="evenodd" stroke="none"/>
    <path d="M34.85 38.8 Q34.6 35.5 35.55 35.15 L40.85 35.15 Q42.05 34.8 41.9 38.8 L34.85 38.8" fill="#934313" fill-rule="evenodd" stroke="none"/>
    <path d="M35.0 38.8 Q34.9 40.2 34.35 40.2 L28.65 40.2 Q27.85 39.9 27.95 38.8 L35.0 38.8" fill="#56270c" fill-rule="evenodd" stroke="none"/>
    <path d="M27.95 38.8 Q27.7 35.5 28.65 35.15 L33.95 35.15 Q35.15 34.8 35.0 38.8 L27.95 38.8" fill="#934313" fill-rule="evenodd" stroke="none"/>
    <path d="M21.1 38.8 Q21.0 40.2 20.45 40.2 L14.75 40.2 Q13.95 39.9 14.05 38.8 L21.1 38.8" fill="#56270c" fill-rule="evenodd" stroke="none"/>
    <path d="M14.05 38.8 Q13.8 35.5 14.75 35.15 L20.05 35.15 Q21.25 34.8 21.1 38.8 L14.05 38.8" fill="#934313" fill-rule="evenodd" stroke="none"/>
    <path d="M28.55 38.8 Q28.45 40.2 27.9 40.2 L22.2 40.2 Q21.4 39.9 21.5 38.8 L28.55 38.8" fill="#56270c" fill-rule="evenodd" stroke="none"/>
    <path d="M21.5 38.8 Q21.25 35.5 22.2 35.15 L27.5 35.15 Q28.7 34.8 28.55 38.8 L21.5 38.8" fill="#934313" fill-rule="evenodd" stroke="none"/>
    <path d="M46.0 37.2 Q45.9 38.6 45.35 38.6 L39.65 38.6 Q38.85 38.3 38.95 37.2 L46.0 37.2" fill="#56270c" fill-rule="evenodd" stroke="none"/>
    <path d="M38.95 37.2 Q38.7 33.9 39.65 33.55 L44.95 33.55 Q46.15 33.2 46.0 37.2 L38.95 37.2" fill="#934313" fill-rule="evenodd" stroke="none"/>
    <path d="M38.95 37.2 Q38.7 33.9 39.65 33.55 L44.95 33.55 Q46.15 33.2 46.0 37.2 45.9 38.6 45.35 38.6 L39.65 38.6 Q38.85 38.3 38.95 37.2 L46.0 37.2" fill="none" stroke="#351806" stroke-linecap="round" stroke-linejoin="round" stroke-width="2.0"/>
    <path d="M38.35 37.2 Q38.25 38.6 37.7 38.6 L32.0 38.6 Q31.2 38.3 31.3 37.2 L38.35 37.2" fill="#56270c" fill-rule="evenodd" stroke="none"/>
    <path d="M31.3 37.2 Q31.05 33.9 32.0 33.55 L37.3 33.55 Q38.5 33.2 38.35 37.2 L31.3 37.2" fill="#934313" fill-rule="evenodd" stroke="none"/>
    <path d="M31.3 37.2 Q31.05 33.9 32.0 33.55 L37.3 33.55 Q38.5 33.2 38.35 37.2 38.25 38.6 37.7 38.6 L32.0 38.6 Q31.2 38.3 31.3 37.2 L38.35 37.2" fill="none" stroke="#351806" stroke-linecap="round" stroke-linejoin="round" stroke-width="2.0"/>
    <path d="M24.25 37.2 Q24.15 38.6 23.6 38.6 L17.9 38.6 Q17.1 38.3 17.2 37.2 L24.25 37.2" fill="#56270c" fill-rule="evenodd" stroke="none"/>
    <path d="M17.2 37.2 Q16.95 33.9 17.9 33.55 L23.2 33.55 Q24.4 33.2 24.25 37.2 L17.2 37.2" fill="#934313" fill-rule="evenodd" stroke="none"/>
    <path d="M17.2 37.2 Q16.95 33.9 17.9 33.55 L23.2 33.55 Q24.4 33.2 24.25 37.2 24.15 38.6 23.6 38.6 L17.9 38.6 Q17.1 38.3 17.2 37.2 L24.25 37.2" fill="none" stroke="#351806" stroke-linecap="round" stroke-linejoin="round" stroke-width="2.0"/>
    <path d="M46.0 37.2 Q45.9 38.6 45.35 38.6 L39.65 38.6 Q38.85 38.3 38.95 37.2 L46.0 37.2" fill="#56270c" fill-rule="evenodd" stroke="none"/>
    <path d="M38.95 37.2 Q38.7 33.9 39.65 33.55 L44.95 33.55 Q46.15 33.2 46.0 37.2 L38.95 37.2" fill="#934313" fill-rule="evenodd" stroke="none"/>
    <path d="M38.35 37.2 Q38.25 38.6 37.7 38.6 L32.0 38.6 Q31.2 38.3 31.3 37.2 L38.35 37.2" fill="#533509" fill-rule="evenodd" stroke="none"/>
    <path d="M31.3 37.2 Q31.05 33.9 32.0 33.55 L37.3 33.55 Q38.5 33.2 38.35 37.2 L31.3 37.2" fill="#97610f" fill-rule="evenodd" stroke="none"/>
    <path d="M17.2 37.2 Q16.95 33.9 17.9 33.55 L23.2 33.55 Q24.4 33.2 24.25 37.2 L17.2 37.2" fill="#97610f" fill-rule="evenodd" stroke="none"/>
    <path d="M24.25 37.2 Q24.15 38.6 23.6 38.6 L17.9 38.6 Q17.1 38.3 17.2 37.2 L24.25 37.2" fill="#533509" fill-rule="evenodd" stroke="none"/>
    <path d="M42.65 35.25 Q42.55 36.65 41.95 36.7 L36.25 36.7 Q35.5 36.35 35.6 35.25 35.35 31.95 36.25 31.6 L41.6 31.6 Q42.8 31.25 42.65 35.25" fill="#934313" fill-rule="evenodd" stroke="none"/>
    <path d="M42.65 35.25 Q42.55 36.65 41.95 36.7 L36.25 36.7 Q35.5 36.35 35.6 35.25 35.35 31.95 36.25 31.6 L41.6 31.6 Q42.8 31.25 42.65 35.25 Z" fill="none" stroke="#351806" stroke-linecap="round" stroke-linejoin="round" stroke-width="2.0"/>
    <path d="M35.0 35.65 Q34.9 37.05 34.35 37.05 L28.65 37.05 Q27.85 36.75 27.95 35.65 27.7 32.35 28.65 32.0 L33.95 32.0 Q35.15 31.65 35.0 35.65" fill="#934313" fill-rule="evenodd" stroke="none"/>
    <path d="M35.0 35.65 Q34.9 37.05 34.35 37.05 L28.65 37.05 Q27.85 36.75 27.95 35.65 27.7 32.35 28.65 32.0 L33.95 32.0 Q35.15 31.65 35.0 35.65 Z" fill="none" stroke="#351806" stroke-linecap="round" stroke-linejoin="round" stroke-width="2.0"/>
    <path d="M28.55 35.65 Q28.45 37.05 27.9 37.05 L22.2 37.05 Q21.4 36.75 21.5 35.65 21.25 32.35 22.2 32.0 L27.5 32.0 Q28.7 31.65 28.55 35.65" fill="#934313" fill-rule="evenodd" stroke="none"/>
    <path d="M28.55 35.65 Q28.45 37.05 27.9 37.05 L22.2 37.05 Q21.4 36.75 21.5 35.65 21.25 32.35 22.2 32.0 L27.5 32.0 Q28.7 31.65 28.55 35.65 Z" fill="none" stroke="#351806" stroke-linecap="round" stroke-linejoin="round" stroke-width="2.0"/>
    <path d="M45.05 36.7 L42.95 36.7 Q42.4 36.3 42.4 35.25 42.35 32.05 42.95 31.6 L44.95 31.6 Q45.65 31.55 45.7 35.25 45.65 36.65 45.05 36.7" fill="#934313" fill-rule="evenodd" stroke="none"/>
    <path d="M45.05 36.7 L42.95 36.7 Q42.4 36.3 42.4 35.25 42.35 32.05 42.95 31.6 L44.95 31.6 Q45.65 31.55 45.7 35.25 45.65 36.65 45.05 36.7 Z" fill="none" stroke="#351806" stroke-linecap="round" stroke-linejoin="round" stroke-width="2.0"/>
    <path d="M42.65 35.25 Q42.55 36.65 41.95 36.7 L36.25 36.7 Q35.5 36.35 35.6 35.25 L42.65 35.25" fill="#56270c" fill-rule="evenodd" stroke="none"/>
    <path d="M42.65 35.25 L35.6 35.25 Q35.35 31.95 36.25 31.6 L41.6 31.6 Q42.8 31.25 42.65 35.25" fill="#934313" fill-rule="evenodd" stroke="none"/>
    <path d="M35.0 35.65 Q34.9 37.05 34.35 37.05 L28.65 37.05 Q27.85 36.75 27.95 35.65 L35.0 35.65" fill="#533509" fill-rule="evenodd" stroke="none"/>
    <path d="M27.95 35.65 Q27.7 32.35 28.65 32.0 L33.95 32.0 Q35.15 31.65 35.0 35.65 L27.95 35.65" fill="#97610f" fill-rule="evenodd" stroke="none"/>
    <path d="M28.55 35.65 Q28.45 37.05 27.9 37.05 L22.2 37.05 Q21.4 36.75 21.5 35.65 L28.55 35.65" fill="#56270c" fill-rule="evenodd" stroke="none"/>
    <path d="M21.5 35.65 Q21.25 32.35 22.2 32.0 L27.5 32.0 Q28.7 31.65 28.55 35.65 L21.5 35.65" fill="#934313" fill-rule="evenodd" stroke="none"/>
    <path d="M45.7 35.25 Q45.65 36.65 45.05 36.7 L42.95 36.7 Q42.4 36.3 42.4 35.25 L45.7 35.25" fill="#56270c" fill-rule="evenodd" stroke="none"/>
    <path d="M42.4 35.25 Q42.35 32.05 42.95 31.6 L44.95 31.6 Q45.65 31.55 45.7 35.25 L42.4 35.25" fill="#934313" fill-rule="evenodd" stroke="none"/>
    <path d="M45.35 35.0 L39.65 35.0 Q38.85 34.7 38.95 33.6 38.7 30.3 39.65 29.95 L44.95 29.95 Q46.15 29.6 46.0 33.6 45.9 35.0 45.35 35.0" fill="#56270c" fill-rule="evenodd" stroke="none"/>
    <path d="M45.35 35.0 L39.65 35.0 Q38.85 34.7 38.95 33.6 38.7 30.3 39.65 29.95 L44.95 29.95 Q46.15 29.6 46.0 33.6 45.9 35.0 45.35 35.0 Z" fill="none" stroke="#351806" stroke-linecap="round" stroke-linejoin="round" stroke-width="2.0"/>
    <path d="M38.35 33.6 Q38.25 35.0 37.7 35.0 L32.0 35.0 Q31.2 34.7 31.3 33.6 31.05 30.3 32.0 29.95 L37.3 29.95 Q38.5 29.6 38.35 33.6" fill="#56270c" fill-rule="evenodd" stroke="none"/>
    <path d="M38.35 33.6 Q38.25 35.0 37.7 35.0 L32.0 35.0 Q31.2 34.7 31.3 33.6 31.05 30.3 32.0 29.95 L37.3 29.95 Q38.5 29.6 38.35 33.6 Z" fill="none" stroke="#351806" stroke-linecap="round" stroke-linejoin="round" stroke-width="2.0"/>
    <path d="M31.5 33.6 Q31.4 35.0 30.85 35.0 L25.15 35.0 Q24.35 34.7 24.45 33.6 24.2 30.3 25.15 29.95 L30.45 29.95 Q31.65 29.6 31.5 33.6" fill="#56270c" fill-rule="evenodd" stroke="none"/>
    <path d="M31.5 33.6 Q31.4 35.0 30.85 35.0 L25.15 35.0 Q24.35 34.7 24.45 33.6 24.2 30.3 25.15 29.95 L30.45 29.95 Q31.65 29.6 31.5 33.6 Z" fill="none" stroke="#351806" stroke-linecap="round" stroke-linejoin="round" stroke-width="2.0"/>
    <path d="M46.0 34.15 Q45.9 35.55 45.3 35.55 L39.6 35.55 Q38.85 35.25 38.9 34.15 L46.0 34.15" fill="#533509" fill-rule="evenodd" stroke="none"/>
    <path d="M38.9 34.15 Q38.7 30.85 39.6 30.5 L44.95 30.5 Q46.15 30.15 46.0 34.15 L38.9 34.15" fill="#97610f" fill-rule="evenodd" stroke="none"/>
    <path d="M31.3 33.6 Q31.05 30.3 32.0 29.95 L37.3 29.95 Q38.5 29.6 38.35 33.6 L31.3 33.6" fill="#934313" fill-rule="evenodd" stroke="none"/>
    <path d="M38.35 33.6 Q38.25 35.0 37.7 35.0 L32.0 35.0 Q31.2 34.7 31.3 33.6 L38.35 33.6" fill="#56270c" fill-rule="evenodd" stroke="none"/>
    <path d="M24.45 33.6 Q24.2 30.3 25.15 29.95 L30.45 29.95 Q31.65 29.6 31.5 33.6 L24.45 33.6" fill="#934313" fill-rule="evenodd" stroke="none"/>
    <path d="M31.5 33.6 Q31.4 35.0 30.85 35.0 L25.15 35.0 Q24.35 34.7 24.45 33.6 L31.5 33.6" fill="#56270c" fill-rule="evenodd" stroke="none"/>
    <path d="M6.05 38.85 Q6.0 40.25 5.4 40.3 L3.3 40.3 Q2.75 39.9 2.75 38.85 L6.05 38.85" fill="#56270c" fill-rule="evenodd" stroke="none"/>
    <path d="M2.75 38.85 Q2.7 35.65 3.3 35.2 L5.3 35.2 Q6.0 35.15 6.05 38.85 L2.75 38.85" fill="#934313" fill-rule="evenodd" stroke="none"/>
    <path d="M12.05 45.3 Q11.95 46.2 11.3 46.75 10.6 47.35 9.7 47.3 8.8 47.25 8.3 46.6 7.7 45.95 7.8 45.05 7.9 44.15 8.65 43.6 9.3 42.95 10.2 43.0 10.85 43.05 11.35 43.45 L11.65 43.75 Q12.15 44.4 12.05 45.3" fill="#232222" fill-rule="evenodd" stroke="none"/>
    <path d="M12.05 45.3 Q11.95 46.2 11.3 46.75 10.6 47.35 9.7 47.3 8.8 47.25 8.3 46.6 7.7 45.95 7.8 45.05 7.9 44.15 8.65 43.6 9.3 42.95 10.2 43.0 10.85 43.05 11.35 43.45 L11.65 43.75 Q12.15 44.4 12.05 45.3 Z" fill="none" stroke="#000000" stroke-linecap="round" stroke-linejoin="round" stroke-width="2.0"/>
    <path d="M10.2 43.25 Q9.6 43.25 9.1 43.55 11.35 44.05 11.5 46.2 L11.85 45.3 Q11.95 44.5 11.4 43.9 10.95 43.3 10.2 43.25 M11.35 43.45 L11.65 43.75 Q12.15 44.4 12.05 45.3 11.95 46.2 11.3 46.75 10.6 47.35 9.7 47.3 8.8 47.25 8.3 46.6 7.7 45.95 7.8 45.05 7.9 44.15 8.65 43.6 9.3 42.95 10.2 43.0 10.85 43.05 11.35 43.45" fill="#232222" fill-rule="evenodd" stroke="none"/>
    <path d="M10.2 43.25 Q10.95 43.3 11.4 43.9 11.95 44.5 11.85 45.3 L11.5 46.2 Q11.35 44.05 9.1 43.55 9.6 43.25 10.2 43.25" fill="#7e7f8c" fill-rule="evenodd" stroke="none"/>
    <path d="M16.45 46.55 Q15.75 47.15 14.85 47.1 13.95 47.05 13.45 46.4 12.85 45.75 12.95 44.85 13.05 43.95 13.8 43.4 14.45 42.75 15.35 42.8 16.0 42.85 16.5 43.25 L16.8 43.55 Q17.3 44.2 17.2 45.1 17.1 46.0 16.45 46.55" fill="#232222" fill-rule="evenodd" stroke="none"/>
    <path d="M16.45 46.55 Q15.75 47.15 14.85 47.1 13.95 47.05 13.45 46.4 12.85 45.75 12.95 44.85 13.05 43.95 13.8 43.4 14.45 42.75 15.35 42.8 16.0 42.85 16.5 43.25 L16.8 43.55 Q17.3 44.2 17.2 45.1 17.1 46.0 16.45 46.55 Z" fill="none" stroke="#000000" stroke-linecap="round" stroke-linejoin="round" stroke-width="2.0"/>
    <path d="M16.5 43.25 L16.8 43.55 Q17.3 44.2 17.2 45.1 17.1 46.0 16.45 46.55 15.75 47.15 14.85 47.1 13.95 47.05 13.45 46.4 12.85 45.75 12.95 44.85 13.05 43.95 13.8 43.4 14.45 42.75 15.35 42.8 16.0 42.85 16.5 43.25 M15.35 43.05 Q14.75 43.05 14.25 43.35 16.5 43.85 16.65 46.0 L17.0 45.1 Q17.1 44.3 16.55 43.7 16.1 43.1 15.35 43.05" fill="#232222" fill-rule="evenodd" stroke="none"/>
    <path d="M15.35 43.05 Q16.1 43.1 16.55 43.7 17.1 44.3 17.0 45.1 L16.65 46.0 Q16.5 43.85 14.25 43.35 14.75 43.05 15.35 43.05" fill="#7e7f8c" fill-rule="evenodd" stroke="none"/>
    <path d="M19.8 47.4 Q18.9 47.35 18.4 46.7 17.8 46.05 17.9 45.15 18.0 44.25 18.75 43.7 19.4 43.05 20.3 43.1 20.95 43.15 21.45 43.55 L21.75 43.85 Q22.25 44.5 22.15 45.4 22.05 46.3 21.4 46.85 20.7 47.45 19.8 47.4" fill="#232222" fill-rule="evenodd" stroke="none"/>
    <path d="M19.8 47.4 Q18.9 47.35 18.4 46.7 17.8 46.05 17.9 45.15 18.0 44.25 18.75 43.7 19.4 43.05 20.3 43.1 20.95 43.15 21.45 43.55 L21.75 43.85 Q22.25 44.5 22.15 45.4 22.05 46.3 21.4 46.85 20.7 47.45 19.8 47.4 Z" fill="none" stroke="#000000" stroke-linecap="round" stroke-linejoin="round" stroke-width="2.0"/>
    <path d="M20.3 43.35 Q19.7 43.35 19.2 43.65 21.45 44.15 21.6 46.3 L21.95 45.4 Q22.05 44.6 21.5 44.0 21.05 43.4 20.3 43.35 M21.45 43.55 L21.75 43.85 Q22.25 44.5 22.15 45.4 22.05 46.3 21.4 46.85 20.7 47.45 19.8 47.4 18.9 47.35 18.4 46.7 17.8 46.05 17.9 45.15 18.0 44.25 18.75 43.7 19.4 43.05 20.3 43.1 20.95 43.15 21.45 43.55" fill="#232222" fill-rule="evenodd" stroke="none"/>
    <path d="M20.3 43.35 Q21.05 43.4 21.5 44.0 22.05 44.6 21.95 45.4 L21.6 46.3 Q21.45 44.15 19.2 43.65 19.7 43.35 20.3 43.35" fill="#7e7f8c" fill-rule="evenodd" stroke="none"/>
    <path d="M11.65 47.75 Q12.15 48.4 12.05 49.3 11.95 50.2 11.3 50.75 10.6 51.35 9.7 51.3 8.8 51.25 8.3 50.6 7.7 49.95 7.8 49.05 7.9 48.15 8.65 47.6 9.3 46.95 10.2 47.0 10.85 47.05 11.35 47.45 L11.65 47.75" fill="#232222" fill-rule="evenodd" stroke="none"/>
    <path d="M11.65 47.75 Q12.15 48.4 12.05 49.3 11.95 50.2 11.3 50.75 10.6 51.35 9.7 51.3 8.8 51.25 8.3 50.6 7.7 49.95 7.8 49.05 7.9 48.15 8.65 47.6 9.3 46.95 10.2 47.0 10.85 47.05 11.35 47.45 L11.65 47.75 Z" fill="none" stroke="#000000" stroke-linecap="round" stroke-linejoin="round" stroke-width="2.0"/>
    <path d="M11.35 47.45 L11.65 47.75 Q12.15 48.4 12.05 49.3 11.95 50.2 11.3 50.75 10.6 51.35 9.7 51.3 8.8 51.25 8.3 50.6 7.7 49.95 7.8 49.05 7.9 48.15 8.65 47.6 9.3 46.95 10.2 47.0 10.85 47.05 11.35 47.45 M10.2 47.25 Q9.6 47.25 9.1 47.55 11.35 48.05 11.5 50.2 L11.85 49.3 Q11.95 48.5 11.4 47.9 10.95 47.3 10.2 47.25" fill="#232222" fill-rule="evenodd" stroke="none"/>
    <path d="M10.2 47.25 Q10.95 47.3 11.4 47.9 11.95 48.5 11.85 49.3 L11.5 50.2 Q11.35 48.05 9.1 47.55 9.6 47.25 10.2 47.25" fill="#7e7f8c" fill-rule="evenodd" stroke="none"/>
    <path d="M17.2 49.1 Q17.1 50.0 16.45 50.55 15.75 51.15 14.85 51.1 13.95 51.05 13.45 50.4 12.85 49.75 12.95 48.85 13.05 47.95 13.8 47.4 14.45 46.75 15.35 46.8 16.0 46.85 16.5 47.25 L16.8 47.55 Q17.3 48.2 17.2 49.1" fill="#232222" fill-rule="evenodd" stroke="none"/>
    <path d="M17.2 49.1 Q17.1 50.0 16.45 50.55 15.75 51.15 14.85 51.1 13.95 51.05 13.45 50.4 12.85 49.75 12.95 48.85 13.05 47.95 13.8 47.4 14.45 46.75 15.35 46.8 16.0 46.85 16.5 47.25 L16.8 47.55 Q17.3 48.2 17.2 49.1 Z" fill="none" stroke="#000000" stroke-linecap="round" stroke-linejoin="round" stroke-width="2.0"/>
    <path d="M15.35 47.05 Q14.75 47.05 14.25 47.35 16.5 47.85 16.65 50.0 L17.0 49.1 Q17.1 48.3 16.55 47.7 16.1 47.1 15.35 47.05 M16.5 47.25 L16.8 47.55 Q17.3 48.2 17.2 49.1 17.1 50.0 16.45 50.55 15.75 51.15 14.85 51.1 13.95 51.05 13.45 50.4 12.85 49.75 12.95 48.85 13.05 47.95 13.8 47.4 14.45 46.75 15.35 46.8 16.0 46.85 16.5 47.25" fill="#232222" fill-rule="evenodd" stroke="none"/>
    <path d="M15.35 47.05 Q16.1 47.1 16.55 47.7 17.1 48.3 17.0 49.1 L16.65 50.0 Q16.5 47.85 14.25 47.35 14.75 47.05 15.35 47.05" fill="#7e7f8c" fill-rule="evenodd" stroke="none"/>
    <path d="M21.4 50.85 Q20.7 51.45 19.8 51.4 18.9 51.35 18.4 50.7 17.8 50.05 17.9 49.15 18.0 48.25 18.75 47.7 19.4 47.05 20.3 47.1 20.95 47.15 21.45 47.55 L21.75 47.85 Q22.25 48.5 22.15 49.4 22.05 50.3 21.4 50.85" fill="#232222" fill-rule="evenodd" stroke="none"/>
    <path d="M21.4 50.85 Q20.7 51.45 19.8 51.4 18.9 51.35 18.4 50.7 17.8 50.05 17.9 49.15 18.0 48.25 18.75 47.7 19.4 47.05 20.3 47.1 20.95 47.15 21.45 47.55 L21.75 47.85 Q22.25 48.5 22.15 49.4 22.05 50.3 21.4 50.85 Z" fill="none" stroke="#000000" stroke-linecap="round" stroke-linejoin="round" stroke-width="2.0"/>
    <path d="M21.45 47.55 L21.75 47.85 Q22.25 48.5 22.15 49.4 22.05 50.3 21.4 50.85 20.7 51.45 19.8 51.4 18.9 51.35 18.4 50.7 17.8 50.05 17.9 49.15 18.0 48.25 18.75 47.7 19.4 47.05 20.3 47.1 20.95 47.15 21.45 47.55 M20.3 47.35 Q19.7 47.35 19.2 47.65 21.45 48.15 21.6 50.3 L21.95 49.4 Q22.05 48.6 21.5 48.0 21.05 47.4 20.3 47.35" fill="#232222" fill-rule="evenodd" stroke="none"/>
    <path d="M20.3 47.35 Q21.05 47.4 21.5 48.0 22.05 48.6 21.95 49.4 L21.6 50.3 Q21.45 48.15 19.2 47.65 19.7 47.35 20.3 47.35" fill="#7e7f8c" fill-rule="evenodd" stroke="none"/>
    <path d="M11.35 50.95 L11.65 51.25 Q12.15 51.9 12.05 52.8 11.95 53.7 11.3 54.25 10.6 54.85 9.7 54.8 8.8 54.75 8.3 54.1 7.7 53.45 7.8 52.55 7.9 51.65 8.65 51.1 9.3 50.45 10.2 50.5 10.85 50.55 11.35 50.95" fill="#232222" fill-rule="evenodd" stroke="none"/>
    <path d="M11.35 50.95 L11.65 51.25 Q12.15 51.9 12.05 52.8 11.95 53.7 11.3 54.25 10.6 54.85 9.7 54.8 8.8 54.75 8.3 54.1 7.7 53.45 7.8 52.55 7.9 51.65 8.65 51.1 9.3 50.45 10.2 50.5 10.85 50.55 11.35 50.95 Z" fill="none" stroke="#000000" stroke-linecap="round" stroke-linejoin="round" stroke-width="2.0"/>
    <path d="M10.2 50.75 Q9.6 50.75 9.1 51.05 11.35 51.55 11.5 53.7 L11.85 52.8 Q11.95 52.0 11.4 51.4 10.95 50.8 10.2 50.75 M11.35 50.95 L11.65 51.25 Q12.15 51.9 12.05 52.8 11.95 53.7 11.3 54.25 10.6 54.85 9.7 54.8 8.8 54.75 8.3 54.1 7.7 53.45 7.8 52.55 7.9 51.65 8.65 51.1 9.3 50.45 10.2 50.5 10.85 50.55 11.35 50.95" fill="#232222" fill-rule="evenodd" stroke="none"/>
    <path d="M10.2 50.75 Q10.95 50.8 11.4 51.4 11.95 52.0 11.85 52.8 L11.5 53.7 Q11.35 51.55 9.1 51.05 9.6 50.75 10.2 50.75" fill="#7e7f8c" fill-rule="evenodd" stroke="none"/>
    <path d="M16.8 51.05 Q17.3 51.7 17.2 52.6 17.1 53.5 16.45 54.05 15.75 54.65 14.85 54.6 13.95 54.55 13.45 53.9 12.85 53.25 12.95 52.35 13.05 51.45 13.8 50.9 14.45 50.25 15.35 50.3 16.0 50.35 16.5 50.75 L16.8 51.05" fill="#232222" fill-rule="evenodd" stroke="none"/>
    <path d="M16.8 51.05 Q17.3 51.7 17.2 52.6 17.1 53.5 16.45 54.05 15.75 54.65 14.85 54.6 13.95 54.55 13.45 53.9 12.85 53.25 12.95 52.35 13.05 51.45 13.8 50.9 14.45 50.25 15.35 50.3 16.0 50.35 16.5 50.75 L16.8 51.05 Z" fill="none" stroke="#000000" stroke-linecap="round" stroke-linejoin="round" stroke-width="2.0"/>
    <path d="M16.5 50.75 L16.8 51.05 Q17.3 51.7 17.2 52.6 17.1 53.5 16.45 54.05 15.75 54.65 14.85 54.6 13.95 54.55 13.45 53.9 12.85 53.25 12.95 52.35 13.05 51.45 13.8 50.9 14.45 50.25 15.35 50.3 16.0 50.35 16.5 50.75 M15.35 50.55 Q14.75 50.55 14.25 50.85 16.5 51.35 16.65 53.5 L17.0 52.6 Q17.1 51.8 16.55 51.2 16.1 50.6 15.35 50.55" fill="#232222" fill-rule="evenodd" stroke="none"/>
    <path d="M15.35 50.55 Q16.1 50.6 16.55 51.2 17.1 51.8 17.0 52.6 L16.65 53.5 Q16.5 51.35 14.25 50.85 14.75 50.55 15.35 50.55" fill="#7e7f8c" fill-rule="evenodd" stroke="none"/>
    <path d="M22.15 52.9 Q22.05 53.8 21.4 54.35 20.7 54.95 19.8 54.9 18.9 54.85 18.4 54.2 17.8 53.55 17.9 52.65 18.0 51.75 18.75 51.2 19.4 50.55 20.3 50.6 20.95 50.65 21.45 51.05 L21.75 51.35 Q22.25 52.0 22.15 52.9" fill="#232222" fill-rule="evenodd" stroke="none"/>
    <path d="M22.15 52.9 Q22.05 53.8 21.4 54.35 20.7 54.95 19.8 54.9 18.9 54.85 18.4 54.2 17.8 53.55 17.9 52.65 18.0 51.75 18.75 51.2 19.4 50.55 20.3 50.6 20.95 50.65 21.45 51.05 L21.75 51.35 Q22.25 52.0 22.15 52.9 Z" fill="none" stroke="#000000" stroke-linecap="round" stroke-linejoin="round" stroke-width="2.0"/>
    <path d="M20.3 50.85 Q19.7 50.85 19.2 51.15 21.45 51.65 21.6 53.8 L21.95 52.9 Q22.05 52.1 21.5 51.5 21.05 50.9 20.3 50.85 M21.45 51.05 L21.75 51.35 Q22.25 52.0 22.15 52.9 22.05 53.8 21.4 54.35 20.7 54.95 19.8 54.9 18.9 54.85 18.4 54.2 17.8 53.55 17.9 52.65 18.0 51.75 18.75 51.2 19.4 50.55 20.3 50.6 20.95 50.65 21.45 51.05" fill="#232222" fill-rule="evenodd" stroke="none"/>
    <path d="M20.3 50.85 Q21.05 50.9 21.5 51.5 22.05 52.1 21.95 52.9 L21.6 53.8 Q21.45 51.65 19.2 51.15 19.7 50.85 20.3 50.85" fill="#7e7f8c" fill-rule="evenodd" stroke="none"/>
    <path d="M13.4 46.35 Q12.7 46.95 11.8 46.9 10.9 46.85 10.4 46.2 9.8 45.55 9.9 44.65 10.0 43.75 10.75 43.2 11.4 42.55 12.3 42.6 12.95 42.65 13.45 43.05 L13.75 43.35 Q14.25 44.0 14.15 44.9 14.05 45.8 13.4 46.35" fill="#232222" fill-rule="evenodd" stroke="none"/>
    <path d="M13.4 46.35 Q12.7 46.95 11.8 46.9 10.9 46.85 10.4 46.2 9.8 45.55 9.9 44.65 10.0 43.75 10.75 43.2 11.4 42.55 12.3 42.6 12.95 42.65 13.45 43.05 L13.75 43.35 Q14.25 44.0 14.15 44.9 14.05 45.8 13.4 46.35 Z" fill="none" stroke="#000000" stroke-linecap="round" stroke-linejoin="round" stroke-width="2.0"/>
    <path d="M13.45 43.05 L13.75 43.35 Q14.25 44.0 14.15 44.9 14.05 45.8 13.4 46.35 12.7 46.95 11.8 46.9 10.9 46.85 10.4 46.2 9.8 45.55 9.9 44.65 10.0 43.75 10.75 43.2 11.4 42.55 12.3 42.6 12.95 42.65 13.45 43.05 M12.3 42.85 Q11.7 42.85 11.2 43.15 13.45 43.65 13.6 45.8 L13.95 44.9 Q14.05 44.1 13.5 43.5 13.05 42.9 12.3 42.85" fill="#232222" fill-rule="evenodd" stroke="none"/>
    <path d="M12.3 42.85 Q13.05 42.9 13.5 43.5 14.05 44.1 13.95 44.9 L13.6 45.8 Q13.45 43.65 11.2 43.15 11.7 42.85 12.3 42.85" fill="#7e7f8c" fill-rule="evenodd" stroke="none"/>
    <path d="M16.8 46.9 Q15.9 46.85 15.4 46.2 14.8 45.55 14.9 44.65 15.0 43.75 15.75 43.2 16.4 42.55 17.3 42.6 17.95 42.65 18.45 43.05 L18.75 43.35 Q19.25 44.0 19.15 44.9 19.05 45.8 18.4 46.35 17.7 46.95 16.8 46.9" fill="#232222" fill-rule="evenodd" stroke="none"/>
    <path d="M16.8 46.9 Q15.9 46.85 15.4 46.2 14.8 45.55 14.9 44.65 15.0 43.75 15.75 43.2 16.4 42.55 17.3 42.6 17.95 42.65 18.45 43.05 L18.75 43.35 Q19.25 44.0 19.15 44.9 19.05 45.8 18.4 46.35 17.7 46.95 16.8 46.9 Z" fill="none" stroke="#000000" stroke-linecap="round" stroke-linejoin="round" stroke-width="2.0"/>
    <path d="M17.3 42.85 Q16.7 42.85 16.2 43.15 18.45 43.65 18.6 45.8 L18.95 44.9 Q19.05 44.1 18.5 43.5 18.05 42.9 17.3 42.85 M18.45 43.05 L18.75 43.35 Q19.25 44.0 19.15 44.9 19.05 45.8 18.4 46.35 17.7 46.95 16.8 46.9 15.9 46.85 15.4 46.2 14.8 45.55 14.9 44.65 15.0 43.75 15.75 43.2 16.4 42.55 17.3 42.6 17.95 42.65 18.45 43.05" fill="#232222" fill-rule="evenodd" stroke="none"/>
    <path d="M17.3 42.85 Q18.05 42.9 18.5 43.5 19.05 44.1 18.95 44.9 L18.6 45.8 Q18.45 43.65 16.2 43.15 16.7 42.85 17.3 42.85" fill="#7e7f8c" fill-rule="evenodd" stroke="none"/>
    <path d="M14.15 48.9 Q14.05 49.8 13.4 50.35 12.7 50.95 11.8 50.9 10.9 50.85 10.4 50.2 9.8 49.55 9.9 48.65 10.0 47.75 10.75 47.2 11.4 46.55 12.3 46.6 12.95 46.65 13.45 47.05 L13.75 47.35 Q14.25 48.0 14.15 48.9" fill="#232222" fill-rule="evenodd" stroke="none"/>
    <path d="M14.15 48.9 Q14.05 49.8 13.4 50.35 12.7 50.95 11.8 50.9 10.9 50.85 10.4 50.2 9.8 49.55 9.9 48.65 10.0 47.75 10.75 47.2 11.4 46.55 12.3 46.6 12.95 46.65 13.45 47.05 L13.75 47.35 Q14.25 48.0 14.15 48.9 Z" fill="none" stroke="#000000" stroke-linecap="round" stroke-linejoin="round" stroke-width="2.0"/>
    <path d="M12.3 46.85 Q11.7 46.85 11.2 47.15 13.45 47.65 13.6 49.8 L13.95 48.9 Q14.05 48.1 13.5 47.5 13.05 46.9 12.3 46.85 M13.45 47.05 L13.75 47.35 Q14.25 48.0 14.15 48.9 14.05 49.8 13.4 50.35 12.7 50.95 11.8 50.9 10.9 50.85 10.4 50.2 9.8 49.55 9.9 48.65 10.0 47.75 10.75 47.2 11.4 46.55 12.3 46.6 12.95 46.65 13.45 47.05" fill="#232222" fill-rule="evenodd" stroke="none"/>
    <path d="M12.3 46.85 Q13.05 46.9 13.5 47.5 14.05 48.1 13.95 48.9 L13.6 49.8 Q13.45 47.65 11.2 47.15 11.7 46.85 12.3 46.85" fill="#7e7f8c" fill-rule="evenodd" stroke="none"/>
    <path d="M18.4 50.35 Q17.7 50.95 16.8 50.9 15.9 50.85 15.4 50.2 14.8 49.55 14.9 48.65 15.0 47.75 15.75 47.2 16.4 46.55 17.3 46.6 17.95 46.65 18.45 47.05 L18.75 47.35 Q19.25 48.0 19.15 48.9 19.05 49.8 18.4 50.35" fill="#232222" fill-rule="evenodd" stroke="none"/>
    <path d="M18.4 50.35 Q17.7 50.95 16.8 50.9 15.9 50.85 15.4 50.2 14.8 49.55 14.9 48.65 15.0 47.75 15.75 47.2 16.4 46.55 17.3 46.6 17.95 46.65 18.45 47.05 L18.75 47.35 Q19.25 48.0 19.15 48.9 19.05 49.8 18.4 50.35 Z" fill="none" stroke="#000000" stroke-linecap="round" stroke-linejoin="round" stroke-width="2.0"/>
    <path d="M18.45 47.05 L18.75 47.35 Q19.25 48.0 19.15 48.9 19.05 49.8 18.4 50.35 17.7 50.95 16.8 50.9 15.9 50.85 15.4 50.2 14.8 49.55 14.9 48.65 15.0 47.75 15.75 47.2 16.4 46.55 17.3 46.6 17.95 46.65 18.45 47.05 M17.3 46.85 Q16.7 46.85 16.2 47.15 18.45 47.65 18.6 49.8 L18.95 48.9 Q19.05 48.1 18.5 47.5 18.05 46.9 17.3 46.85" fill="#232222" fill-rule="evenodd" stroke="none"/>
    <path d="M17.3 46.85 Q18.05 46.9 18.5 47.5 19.05 48.1 18.95 48.9 L18.6 49.8 Q18.45 47.65 16.2 47.15 16.7 46.85 17.3 46.85" fill="#7e7f8c" fill-rule="evenodd" stroke="none"/>
    <path d="M16.45 44.85 Q16.35 45.75 15.7 46.3 15.0 46.9 14.1 46.85 13.2 46.8 12.7 46.15 12.1 45.5 12.2 44.6 12.3 43.7 13.05 43.15 13.7 42.5 14.6 42.55 15.25 42.6 15.75 43.0 L16.05 43.3 Q16.55 43.95 16.45 44.85" fill="#232222" fill-rule="evenodd" stroke="none"/>
    <path d="M16.45 44.85 Q16.35 45.75 15.7 46.3 15.0 46.9 14.1 46.85 13.2 46.8 12.7 46.15 12.1 45.5 12.2 44.6 12.3 43.7 13.05 43.15 13.7 42.5 14.6 42.55 15.25 42.6 15.75 43.0 L16.05 43.3 Q16.55 43.95 16.45 44.85 Z" fill="none" stroke="#000000" stroke-linecap="round" stroke-linejoin="round" stroke-width="2.0"/>
    <path d="M14.6 42.8 Q14.0 42.8 13.5 43.1 15.75 43.6 15.9 45.75 L16.25 44.85 Q16.35 44.05 15.8 43.45 15.35 42.85 14.6 42.8 M15.75 43.0 L16.05 43.3 Q16.55 43.95 16.45 44.85 16.35 45.75 15.7 46.3 15.0 46.9 14.1 46.85 13.2 46.8 12.7 46.15 12.1 45.5 12.2 44.6 12.3 43.7 13.05 43.15 13.7 42.5 14.6 42.55 15.25 42.6 15.75 43.0" fill="#232222" fill-rule="evenodd" stroke="none"/>
    <path d="M14.6 42.8 Q15.35 42.85 15.8 43.45 16.35 44.05 16.25 44.85 L15.9 45.75 Q15.75 43.6 13.5 43.1 14.0 42.8 14.6 42.8" fill="#7e7f8c" fill-rule="evenodd" stroke="none"/>
    <path d="M30.45 49.8 Q29.75 50.4 28.85 50.35 27.95 50.3 27.45 49.65 26.85 49.0 26.95 48.1 27.05 47.2 27.8 46.65 28.45 46.0 29.35 46.05 30.0 46.1 30.5 46.5 L30.8 46.8 Q31.3 47.45 31.2 48.35 31.1 49.25 30.45 49.8" fill="#232222" fill-rule="evenodd" stroke="none"/>
    <path d="M30.45 49.8 Q29.75 50.4 28.85 50.35 27.95 50.3 27.45 49.65 26.85 49.0 26.95 48.1 27.05 47.2 27.8 46.65 28.45 46.0 29.35 46.05 30.0 46.1 30.5 46.5 L30.8 46.8 Q31.3 47.45 31.2 48.35 31.1 49.25 30.45 49.8 Z" fill="none" stroke="#000000" stroke-linecap="round" stroke-linejoin="round" stroke-width="2.0"/>
    <path d="M30.5 46.5 L30.8 46.8 Q31.3 47.45 31.2 48.35 31.1 49.25 30.45 49.8 29.75 50.4 28.85 50.35 27.95 50.3 27.45 49.65 26.85 49.0 26.95 48.1 27.05 47.2 27.8 46.65 28.45 46.0 29.35 46.05 30.0 46.1 30.5 46.5 M29.35 46.3 L28.25 46.6 Q30.5 47.1 30.65 49.25 L31.0 48.35 Q31.1 47.55 30.55 46.95 30.1 46.35 29.35 46.3" fill="#232222" fill-rule="evenodd" stroke="none"/>
    <path d="M29.35 46.3 Q30.1 46.35 30.55 46.95 31.1 47.55 31.0 48.35 L30.65 49.25 Q30.5 47.1 28.25 46.6 L29.35 46.3" fill="#7e7f8c" fill-rule="evenodd" stroke="none"/>
    <path d="M39.0 54.1 Q38.1 54.05 37.6 53.4 37.0 52.75 37.1 51.85 37.2 50.95 37.95 50.4 38.6 49.75 39.5 49.8 40.15 49.85 40.65 50.25 L40.95 50.55 Q41.45 51.2 41.35 52.1 41.25 53.0 40.6 53.55 39.9 54.15 39.0 54.1" fill="#232222" fill-rule="evenodd" stroke="none"/>
    <path d="M39.0 54.1 Q38.1 54.05 37.6 53.4 37.0 52.75 37.1 51.85 37.2 50.95 37.95 50.4 38.6 49.75 39.5 49.8 40.15 49.85 40.65 50.25 L40.95 50.55 Q41.45 51.2 41.35 52.1 41.25 53.0 40.6 53.55 39.9 54.15 39.0 54.1 Z" fill="none" stroke="#000000" stroke-linecap="round" stroke-linejoin="round" stroke-width="2.0"/>
    <path d="M39.5 50.05 Q38.9 50.05 38.4 50.35 40.65 50.85 40.8 53.0 L41.15 52.1 Q41.25 51.3 40.7 50.7 40.25 50.1 39.5 50.05 M40.65 50.25 L40.95 50.55 Q41.45 51.2 41.35 52.1 41.25 53.0 40.6 53.55 39.9 54.15 39.0 54.1 38.1 54.05 37.6 53.4 37.0 52.75 37.1 51.85 37.2 50.95 37.95 50.4 38.6 49.75 39.5 49.8 40.15 49.85 40.65 50.25" fill="#232222" fill-rule="evenodd" stroke="none"/>
    <path d="M39.5 50.05 Q40.25 50.1 40.7 50.7 41.25 51.3 41.15 52.1 L40.8 53.0 Q40.65 50.85 38.4 50.35 38.9 50.05 39.5 50.05" fill="#7e7f8c" fill-rule="evenodd" stroke="none"/>
    <path d="M60.15 37.5 L60.75 44.5 60.2 45.85 60.9 46.5 61.3 51.1 60.75 52.55 53.45 53.15 54.55 60.7 54.0 61.95 51.25 62.25 49.75 53.45 42.25 54.1 40.75 45.05 41.7 44.1 40.55 43.7 40.05 40.65 40.9 39.5 60.15 37.5" fill="#6e4617" fill-rule="evenodd" stroke="none"/>
    <path d="M60.15 37.5 L60.75 44.5 60.2 45.85 60.9 46.5 61.3 51.1 60.75 52.55 53.45 53.15 54.55 60.7 54.0 61.95 51.25 62.25 49.75 53.45 42.25 54.1 40.75 45.05 41.7 44.1 40.55 43.7 40.05 40.65 40.9 39.5 60.15 37.5 Z" fill="none" stroke="#3e270d" stroke-linecap="round" stroke-linejoin="round" stroke-width="2.0"/>
    <path d="M53.45 42.5 Q53.15 41.65 52.35 41.05 51.3 40.25 49.85 40.15 48.7 40.1 47.85 40.55 L47.65 40.7 Q46.3 41.5 46.2 43.35 L41.15 43.9 40.55 43.7 40.05 40.65 59.6 38.6 59.85 41.8 53.45 42.5 M46.3 44.0 L46.5 44.65 Q46.8 45.65 47.5 46.0 L49.05 46.65 49.1 47.25 47.25 47.45 46.8 47.25 Q46.05 46.25 45.65 46.5 45.4 46.65 45.8 47.15 L45.75 47.2 45.45 47.3 45.3 47.4 45.3 47.6 41.25 48.0 40.75 45.05 41.25 44.6 46.3 44.0 M49.65 48.0 L49.7 48.0 49.95 47.95 51.45 47.8 51.65 47.85 51.8 47.75 52.65 47.65 50.7 48.9 48.85 48.1 49.65 48.0 M50.45 47.1 L50.5 46.8 50.75 46.8 50.9 47.1 50.45 47.1 M52.25 46.95 L52.25 46.8 52.25 46.3 52.65 45.95 Q53.6 45.1 53.65 43.85 L53.65 43.15 59.9 42.45 60.15 45.1 60.1 45.2 59.35 46.25 55.75 46.6 55.8 46.5 Q55.75 46.25 55.1 46.25 55.3 45.7 54.95 45.75 54.5 45.85 54.3 46.4 L54.05 46.8 52.25 46.95 M60.75 52.55 L53.45 53.15 49.75 53.45 42.25 54.1 41.9 52.05 47.05 51.55 46.8 51.75 Q45.55 51.9 45.55 52.35 45.6 52.65 46.25 52.6 L46.15 52.95 46.2 53.1 46.45 53.25 47.5 51.95 48.25 51.45 53.2 50.95 54.2 51.5 54.8 51.9 Q55.55 52.55 55.8 52.4 56.05 52.25 55.7 51.65 56.3 51.6 56.05 51.3 55.75 50.95 55.2 51.05 L54.5 50.95 54.35 50.85 60.55 50.25 60.75 52.55 M54.0 61.95 L51.25 62.25 50.0 54.95 52.9 54.65 54.0 61.95 M41.8 51.35 L41.4 48.9 47.6 48.2 48.35 48.55 50.1 49.3 Q49.4 49.75 48.05 50.75 L48.0 50.8 41.8 51.35 M49.15 50.7 L50.7 49.5 52.3 50.45 49.15 50.7 M53.45 50.35 L51.25 49.2 53.0 48.2 54.1 47.5 59.7 46.85 60.35 47.65 60.5 49.7 53.45 50.35" fill="#935e1f" fill-rule="evenodd" stroke="none"/>
    <path d="M46.2 43.35 L46.3 44.0 41.25 44.6 41.7 44.1 41.15 43.9 46.2 43.35 M49.1 47.25 L49.25 47.65 49.65 48.0 48.85 48.1 48.3 47.85 47.25 47.45 49.1 47.25 M49.95 47.95 L50.3 47.5 50.45 47.1 50.9 47.1 51.0 47.3 51.45 47.8 49.95 47.95 M51.8 47.75 L51.95 47.6 52.15 47.25 52.25 46.95 54.05 46.8 53.85 46.9 53.15 47.3 52.65 47.65 51.8 47.75 M53.65 43.15 L53.45 42.5 59.85 41.8 60.45 41.1 60.55 41.9 59.9 42.45 53.65 43.15 M60.75 44.5 L60.2 45.85 59.7 46.85 54.1 47.5 54.2 47.4 54.85 47.15 Q55.65 46.85 55.75 46.6 L59.35 46.25 60.1 45.2 60.75 44.5 M61.1 48.7 L61.2 49.75 60.55 50.25 54.35 50.85 53.8 50.5 53.45 50.35 60.5 49.7 61.1 48.7 M41.9 52.05 L41.8 51.35 48.0 50.8 47.05 51.55 41.9 52.05 M41.4 48.9 L41.25 48.0 45.3 47.6 45.35 47.7 47.0 47.95 47.6 48.2 41.4 48.9 M48.25 51.45 L48.7 51.05 49.15 50.7 52.3 50.45 52.95 50.8 53.2 50.95 48.25 51.45" fill="#663e10" fill-rule="evenodd" stroke="none"/>
    <path d="M53.45 53.15 L53.65 54.35 52.9 54.65 50.0 54.95 49.75 53.45 53.45 53.15" fill="#6e4617" fill-rule="evenodd" stroke="none"/>
    <path d="M59.85 41.8 L59.6 38.6 40.05 40.65 40.9 39.5 60.15 37.5 60.45 41.1 59.85 41.8 M60.55 41.9 L60.75 44.5 60.1 45.2 60.15 45.1 59.9 42.45 60.55 41.9 M60.2 45.85 L60.9 46.5 61.1 48.7 60.5 49.7 60.35 47.65 59.7 46.85 60.2 45.85 M61.2 49.75 L61.3 51.1 60.75 52.55 60.55 50.25 61.2 49.75 M53.65 54.35 L54.55 60.7 54.0 61.95 52.9 54.65 53.65 54.35" fill="#d2903f" fill-rule="evenodd" stroke="none"/>
    <path d="M46.2 43.35 Q46.3 41.5 47.65 40.7 L47.85 40.55 Q48.7 40.1 49.85 40.15 51.3 40.25 52.35 41.05 53.15 41.65 53.45 42.5 L53.65 43.15 53.65 43.85 Q53.6 45.1 52.65 45.95 L52.25 46.3 52.25 46.8 52.25 46.95 52.15 47.25 51.95 47.6 51.8 47.75 51.65 47.85 51.45 47.8 51.0 47.3 50.9 47.1 50.75 46.8 50.5 46.8 50.45 47.1 50.3 47.5 49.95 47.95 49.7 48.0 49.65 48.0 49.25 47.65 49.1 47.25 49.05 46.65 47.5 46.0 Q46.8 45.65 46.5 44.65 L46.3 44.0 46.2 43.35 M48.05 43.35 L48.0 43.35 47.6 43.85 47.6 43.9 47.5 44.35 Q47.5 44.95 47.85 45.4 48.25 45.85 48.8 45.9 49.5 45.9 49.95 45.4 L50.35 44.45 Q50.4 44.0 49.9 43.6 L49.85 43.6 Q49.35 43.15 48.75 43.1 L48.3 43.2 Q48.15 43.25 48.05 43.35 M45.3 47.6 L45.3 47.4 45.45 47.3 45.75 47.2 45.8 47.15 Q45.4 46.65 45.65 46.5 46.05 46.25 46.8 47.25 L47.25 47.45 48.3 47.85 48.85 48.1 50.7 48.9 52.65 47.65 53.15 47.3 53.85 46.9 54.05 46.8 54.3 46.4 Q54.5 45.85 54.95 45.75 55.3 45.7 55.1 46.25 55.75 46.25 55.8 46.5 L55.75 46.6 Q55.65 46.85 54.85 47.15 L54.2 47.4 54.1 47.5 53.0 48.2 51.25 49.2 53.45 50.35 53.8 50.5 54.35 50.85 54.5 50.95 55.2 51.05 Q55.75 50.95 56.05 51.3 56.3 51.6 55.7 51.65 56.05 52.25 55.8 52.4 55.55 52.55 54.8 51.9 L54.2 51.5 53.2 50.95 52.95 50.8 52.3 50.45 50.7 49.5 49.15 50.7 48.7 51.05 48.25 51.45 47.5 51.95 46.45 53.25 46.2 53.1 46.15 52.95 46.25 52.6 Q45.6 52.65 45.55 52.35 45.55 51.9 46.8 51.75 L47.05 51.55 48.0 50.8 48.05 50.75 Q49.4 49.75 50.1 49.3 L48.35 48.55 47.6 48.2 47.0 47.95 45.35 47.7 45.3 47.6 M51.25 43.45 Q50.75 43.9 50.75 44.35 50.7 44.9 51.2 45.25 L51.8 45.5 Q52.45 45.55 52.85 45.15 L53.25 44.25 52.8 43.4 52.65 43.3 52.15 43.05 52.0 43.05 51.35 43.4 51.25 43.45 M50.4 46.6 L50.6 46.2 50.75 46.45 51.25 46.55 51.3 46.5 51.3 46.45 51.1 46.05 50.85 45.85 50.4 45.25 50.15 46.1 Q49.85 46.55 50.1 46.7 L50.4 46.6" fill="#cccccc" fill-rule="evenodd" stroke="none"/>
    <path d="M48.05 43.35 Q48.15 43.25 48.3 43.2 L48.75 43.1 Q49.35 43.15 49.85 43.6 L49.9 43.6 Q50.4 44.0 50.35 44.45 L49.95 45.4 Q49.5 45.9 48.8 45.9 48.25 45.85 47.85 45.4 47.5 44.95 47.5 44.35 L47.6 43.9 47.6 43.85 48.0 43.35 48.05 43.35 M50.4 46.6 L50.1 46.7 Q49.85 46.55 50.15 46.1 L50.4 45.25 50.85 45.85 51.1 46.05 51.3 46.45 51.3 46.5 51.25 46.55 50.75 46.45 50.6 46.2 50.4 46.6 M51.25 43.45 L51.35 43.4 52.0 43.05 52.15 43.05 52.65 43.3 52.8 43.4 53.25 44.25 52.85 45.15 Q52.45 45.55 51.8 45.5 L51.2 45.25 Q50.7 44.9 50.75 44.35 50.75 43.9 51.25 43.45" fill="#333333" fill-rule="evenodd" stroke="none"/>
  </g>
</svg>
