<?xml version="1.0" encoding="UTF-8" standalone="no"?>
<svg xmlns:xlink="http://www.w3.org/1999/xlink" height="10.9px" width="40.95px" xmlns="http://www.w3.org/2000/svg">
  <g transform="matrix(1.0, 0.0, 0.0, 1.0, -12.3, -38.3)">
    <path d="M24.15 45.1 L24.0 45.8 24.1 46.7 Q24.2 47.1 24.8 47.1 L25.15 45.15 25.0 44.85 25.6 44.8 27.0 45.1 Q27.65 45.5 28.05 46.75 L28.1 46.95 27.75 47.4 26.6 47.65 23.55 47.35 Q22.8 47.05 22.8 46.2 22.8 45.6 24.15 45.1" fill="#743d07" fill-rule="evenodd" stroke="none"/>
    <path d="M24.15 45.1 L22.8 43.0 21.35 40.45 20.7 39.9 20.55 40.15 20.25 40.25 Q19.8 40.25 19.8 39.75 19.8 38.5 20.8 38.5 21.35 38.5 21.95 39.25 L22.15 39.6 22.3 39.85 23.15 41.5 25.0 44.85 25.15 45.15 24.8 47.1 Q24.2 47.1 24.1 46.7 L24.0 45.8 24.15 45.1" fill="#5b3714" fill-rule="evenodd" stroke="none"/>
    <path d="M25.0 44.85 L23.15 41.5 22.3 39.85 22.15 39.6 21.95 39.25 Q21.35 38.5 20.8 38.5 19.8 38.5 19.8 39.75 19.8 40.25 20.25 40.25 L20.55 40.15 20.7 39.9 21.35 40.45 22.8 43.0 24.15 45.1 24.0 45.8 24.1 46.7 Q24.2 47.1 24.8 47.1 L25.15 45.15 25.0 44.85 25.6 44.8 27.0 45.1 Q27.65 45.5 28.05 46.75 L28.1 46.95 27.75 47.4 26.6 47.65 23.55 47.35 Q22.8 47.05 22.8 46.2 22.8 45.6 24.15 45.1 M21.95 39.25 L22.3 39.1 M22.3 39.85 L22.65 39.7 M21.35 40.45 L20.8 40.6" fill="none" stroke="#4f2020" stroke-linecap="round" stroke-linejoin="round" stroke-width="0.4"/>
    <path d="M13.3 42.3 L15.45 41.9 Q16.1 41.9 16.55 42.85 L13.7 43.2 13.3 42.3 M16.75 43.3 L16.95 44.0 17.1 44.7 14.2 45.3 13.85 43.75 16.75 43.3 M17.25 45.55 L17.3 46.65 Q17.3 47.5 16.65 47.75 L14.9 47.95 14.4 47.95 14.35 46.1 17.25 45.55" fill="#272727" fill-rule="evenodd" stroke="none"/>
    <path d="M16.55 42.85 L16.75 43.3 13.85 43.75 13.8 43.65 13.7 43.2 16.55 42.85 M17.1 44.7 L17.25 45.55 14.35 46.1 14.3 45.75 14.2 45.3 17.1 44.7" fill="#747474" fill-rule="evenodd" stroke="none"/>
    <path d="M12.75 47.55 L12.7 47.45 12.65 47.05 12.5 45.55 Q12.5 42.6 13.1 42.3 L13.3 42.3 13.7 43.2 13.8 43.65 13.85 43.75 14.2 45.3 14.3 45.75 14.35 46.1 14.4 47.95 12.75 47.55" fill="#d0d0d0" fill-rule="evenodd" stroke="none"/>
    <path d="M13.3 42.3 L15.45 41.9 Q16.1 41.9 16.55 42.85 L16.75 43.3 16.95 44.0 17.1 44.7 17.25 45.55 17.3 46.65 Q17.3 47.5 16.65 47.75 L14.9 47.95 14.4 47.95 14.4 48.15 Q14.4 48.95 13.95 48.95 13.4 48.95 12.95 48.1 L12.75 47.65 12.75 47.55 12.7 47.45 12.65 47.05 12.5 45.55 Q12.5 42.6 13.1 42.3 L13.25 42.25 13.3 42.3 13.7 43.2 16.55 42.85 M13.1 42.3 L13.3 42.3 M13.7 43.2 L13.8 43.65 13.85 43.75 16.75 43.3 M14.2 45.3 L14.3 45.75 14.35 46.1 17.25 45.55 M13.85 43.75 L14.2 45.3 17.1 44.7 M14.4 47.95 L12.75 47.55 M14.35 46.1 L14.4 47.95" fill="none" stroke="#3a3a3a" stroke-linecap="round" stroke-linejoin="round" stroke-width="0.4"/>
    <path d="M52.0 45.6 L52.05 45.45 52.2 45.4 52.35 45.45 52.4 45.6 52.05 48.75 52.0 48.85 51.85 48.9 51.7 48.85 51.65 48.7 52.0 45.6 M51.7 43.5 L51.85 43.45 51.95 43.55 52.0 43.7 51.45 48.05 51.45 48.35 51.4 48.5 51.25 48.55 51.1 48.5 51.05 48.35 51.05 48.05 51.6 43.65 51.7 43.5 M50.5 47.6 L50.45 47.45 50.8 42.25 50.9 42.1 51.0 42.05 51.15 42.15 51.2 42.25 50.85 47.5 50.8 47.6 50.65 47.65 50.5 47.6 M49.5 40.35 L49.55 40.5 49.3 45.6 49.4 46.45 49.4 46.55 49.2 47.15 49.1 47.25 48.95 47.25 48.85 47.15 48.8 47.0 49.0 46.4 48.9 45.65 48.9 45.6 49.15 40.45 49.25 40.3 49.4 40.25 49.5 40.35 M50.2 41.0 L50.35 41.05 50.4 41.2 50.35 42.65 50.1 47.55 50.0 47.7 49.85 47.7 49.75 47.6 49.7 47.45 49.95 42.65 50.0 41.2 50.05 41.05 50.2 41.0" fill="#c9c9c9" fill-rule="evenodd" stroke="none"/>
    <path d="M49.35 40.4 L48.6 40.0 48.6 46.35 49.0 47.0 49.55 47.9 Q50.1 48.85 50.8 48.85 L51.85 48.65 52.65 47.65 52.85 46.75 52.9 46.3 51.8 43.6 51.5 43.05 51.0 42.2 50.2 41.15 49.35 40.4 Z" fill="none" stroke="#8a8100" stroke-linecap="round" stroke-linejoin="round" stroke-width="0.7000000000000001"/>
  </g>
</svg>
