<?xml version="1.0" encoding="UTF-8" standalone="no"?>
<svg xmlns:xlink="http://www.w3.org/1999/xlink" height="197.6px" width="249.25px" xmlns="http://www.w3.org/2000/svg">
  <g transform="matrix(1.0, 0.0, 0.0, 1.0, 178.9, 95.45)">
    <path d="M-141.4 -38.6 Q-135.8 -57.6 -111.2 -71.9 -88.0 -85.4 -58.2 -89.2 -27.3 -93.15 -4.05 -84.55 21.9 -74.95 29.55 -52.1 41.15 -17.45 33.6 27.1 L32.0 35.65 Q36.05 34.5 40.75 34.75 50.9 35.3 58.15 42.2 65.5 49.1 65.35 58.35 65.2 67.55 57.6 73.4 50.05 79.05 39.85 78.15 29.75 77.0 23.0 70.05 L21.85 68.8 Q18.7 76.15 15.55 80.9 11.3 87.3 -6.5 91.65 -22.6 95.55 -44.75 96.7 -66.35 97.85 -84.2 95.9 -103.2 93.8 -109.9 88.9 -116.1 84.35 -122.75 73.4 -125.0 77.85 -128.8 81.65 -137.65 90.55 -149.3 90.6 -160.75 90.6 -167.9 82.1 -174.85 73.8 -173.75 62.2 -172.75 50.85 -164.55 42.6 -156.4 34.35 -145.55 33.75 L-139.3 34.1 Q-150.8 -6.55 -141.4 -38.6" fill="#102c4d" fill-rule="evenodd" stroke="none"/>
    <path d="M-141.4 -38.6 Q-150.8 -6.55 -139.3 34.1 L-145.55 33.75 Q-156.4 34.35 -164.55 42.6 -172.75 50.85 -173.75 62.2 -174.85 73.8 -167.9 82.1 -160.75 90.6 -149.3 90.6 -137.65 90.55 -128.8 81.65 -125.0 77.85 -122.75 73.4 -116.1 84.35 -109.9 88.9 -103.2 93.8 -84.2 95.9 -66.35 97.85 -44.75 96.7 -22.6 95.55 -6.5 91.65 11.3 87.3 15.55 80.9 18.7 76.15 21.85 68.8 L23.0 70.05 Q29.75 77.0 39.85 78.15 50.05 79.05 57.6 73.4 65.2 67.55 65.35 58.35 65.5 49.1 58.15 42.2 50.9 35.3 40.75 34.75 36.05 34.5 32.0 35.65 L33.6 27.1 Q41.15 -17.45 29.55 -52.1 21.9 -74.95 -4.05 -84.55 -27.3 -93.15 -58.2 -89.2 -88.0 -85.4 -111.2 -71.9 -135.8 -57.6 -141.4 -38.6 Z" fill="none" stroke="#102c4d" stroke-linecap="round" stroke-linejoin="round" stroke-width="10.0"/>
    <path d="M-145.55 33.75 Q-134.55 33.05 -126.9 40.7 -119.05 48.55 -119.5 60.5 -119.95 72.7 -128.8 81.65 -137.65 90.55 -149.3 90.6 -160.75 90.6 -167.9 82.1 -174.85 73.8 -173.75 62.2 -172.75 50.85 -164.55 42.6 -156.4 34.35 -145.55 33.75" fill="#137bf0" fill-rule="evenodd" stroke="none"/>
    <path d="M-138.15 43.15 Q-130.6 42.65 -125.3 47.95 -119.95 53.3 -120.25 61.55 -120.55 69.95 -126.65 76.1 -132.7 82.2 -140.7 82.25 -148.6 82.25 -153.5 76.4 -158.3 70.7 -157.55 62.7 -156.85 54.9 -151.2 49.25 -145.6 43.55 -138.15 43.15" fill="#bf7926" fill-rule="evenodd" stroke="none"/>
    <path d="M40.75 34.75 Q50.9 35.3 58.15 42.2 65.5 49.1 65.35 58.35 65.2 67.55 57.6 73.4 50.05 79.05 39.85 78.15 29.75 77.0 23.0 70.05 16.3 63.2 16.5 54.45 16.5 53.25 16.75 52.15 17.65 44.9 23.7 40.05 30.75 34.2 40.75 34.75" fill="#137bf0" fill-rule="evenodd" stroke="none"/>
    <path d="M48.7 46.25 Q54.1 51.3 53.95 58.05 53.85 64.75 48.3 69.05 42.8 73.15 35.4 72.5 28.0 71.6 23.1 66.55 18.2 61.55 18.35 55.2 L18.55 53.55 Q19.2 48.2 23.6 44.65 28.75 40.45 36.05 40.85 43.45 41.2 48.7 46.25" fill="#bf7926" fill-rule="evenodd" stroke="none"/>
    <path d="M37.3 34.75 Q34.3 49.55 29.65 62.95 L25.55 73.5 25.9 72.65 23.0 70.05 Q16.3 63.2 16.5 54.45 16.5 53.25 16.75 52.15 17.65 44.9 23.7 40.05 29.5 35.25 37.3 34.75 M-142.65 40.6 L-144.6 33.7 Q-134.25 33.35 -126.9 40.7 -119.05 48.55 -119.5 60.5 -119.85 70.55 -125.9 78.35 L-128.55 73.9 Q-136.95 59.15 -142.65 40.6" fill="#620000" fill-opacity="0.2" fill-rule="evenodd" stroke="none"/>
    <path d="M29.55 -52.1 Q41.15 -17.45 33.6 27.1 30.65 44.45 25.25 59.8 20.45 73.55 15.55 80.9 11.3 87.3 -6.5 91.65 -22.6 95.55 -44.75 96.7 -66.35 97.85 -84.2 95.9 -103.2 93.8 -109.9 88.9 -117.0 83.7 -124.65 70.2 -132.6 56.2 -138.0 38.6 -151.3 -4.75 -141.4 -38.6 -135.8 -57.6 -111.2 -71.9 -88.0 -85.4 -58.2 -89.2 -27.3 -93.15 -4.05 -84.55 21.9 -74.95 29.55 -52.1" fill="#137bf0" fill-rule="evenodd" stroke="none"/>
    <path d="M29.6 3.1 Q27.65 11.2 25.05 16.45 22.0 22.85 14.55 27.35 L7.65 30.65 11.3 33.45 Q15.5 37.7 18.05 44.55 20.05 49.7 19.35 55.05 17.75 61.4 12.65 66.6 8.45 70.95 4.35 72.4 -3.2 74.95 -9.6 76.35 L-26.65 79.4 -46.55 82.0 -64.75 82.6 Q-79.95 82.05 -93.6 69.2 -101.5 61.15 -101.85 54.2 -102.2 47.05 -95.2 40.3 -91.85 36.95 -88.3 35.0 L-101.4 34.5 Q-115.35 32.0 -120.7 21.75 -124.3 14.85 -125.1 3.65 -126.0 -9.25 -122.3 -20.55 -117.85 -34.1 -107.35 -42.3 -95.0 -52.0 -75.35 -53.25 -57.4 -54.35 -42.9 -25.9 -35.65 -11.7 -32.05 2.75 -30.65 -15.65 -24.85 -32.1 -13.15 -65.05 8.95 -55.4 31.75 -45.45 32.15 -17.45 32.3 -7.7 29.6 3.1" fill="#bf7926" fill-rule="evenodd" stroke="none"/>
    <path d="M-57.15 6.8 Q-56.55 15.8 -63.2 22.65 -69.85 29.5 -79.8 30.15 -89.75 30.8 -97.2 24.85 -104.6 18.9 -105.2 9.9 -105.8 0.85 -99.2 -6.0 -92.55 -12.8 -82.6 -13.45 -72.65 -14.1 -65.2 -8.2 -57.75 -2.25 -57.15 6.8" fill="#ffffff" fill-rule="evenodd" stroke="none"/>
    <path d="M-57.15 6.8 Q-56.55 15.8 -63.2 22.65 -69.85 29.5 -79.8 30.15 -89.75 30.8 -97.2 24.85 -104.6 18.9 -105.2 9.9 -105.8 0.85 -99.2 -6.0 -92.55 -12.8 -82.6 -13.45 -72.65 -14.1 -65.2 -8.2 -57.75 -2.25 -57.15 6.8 Z" fill="none" stroke="#a8620f" stroke-linecap="round" stroke-linejoin="round" stroke-width="8.0"/>
    <path d="M-20.55 4.45 Q-19.95 13.45 -13.45 19.45 -6.95 25.45 1.65 24.9 10.3 24.3 16.0 17.5 21.7 10.75 21.1 1.75 20.5 -7.3 14.0 -13.35 7.5 -19.3 -1.15 -18.7 -9.75 -18.15 -15.45 -11.4 -21.15 -4.6 -20.55 4.45" fill="#ffffff" fill-rule="evenodd" stroke="none"/>
    <path d="M-20.55 4.45 Q-19.95 13.45 -13.45 19.45 -6.95 25.45 1.65 24.9 10.3 24.3 16.0 17.5 21.7 10.75 21.1 1.75 20.5 -7.3 14.0 -13.35 7.5 -19.3 -1.15 -18.7 -9.75 -18.15 -15.45 -11.4 -21.15 -4.6 -20.55 4.45 Z" fill="none" stroke="#a8620f" stroke-linecap="round" stroke-linejoin="round" stroke-width="8.0"/>
    <path d="M-57.15 6.8 Q-56.55 15.8 -63.2 22.65 -69.85 29.5 -79.8 30.15 -89.75 30.8 -97.2 24.85 -104.6 18.9 -105.2 9.9 -105.8 0.85 -99.2 -6.0 -92.55 -12.8 -82.6 -13.45 -72.65 -14.1 -65.2 -8.2 -57.75 -2.25 -57.15 6.8" fill="#ffffff" fill-rule="evenodd" stroke="none"/>
    <path d="M-20.55 4.45 Q-19.95 13.45 -13.45 19.45 -6.95 25.45 1.65 24.9 10.3 24.3 16.0 17.5 21.7 10.75 21.1 1.75 20.5 -7.3 14.0 -13.35 7.5 -19.3 -1.15 -18.7 -9.75 -18.15 -15.45 -11.4 -21.15 -4.6 -20.55 4.45" fill="#ffffff" fill-rule="evenodd" stroke="none"/>
  </g>
</svg>
