<?xml version="1.0" encoding="UTF-8" standalone="no"?>
<svg xmlns:xlink="http://www.w3.org/1999/xlink" height="42.35px" width="27.75px" xmlns="http://www.w3.org/2000/svg">
  <g transform="matrix(1.0, 0.0, 0.0, 1.0, 10.65, 52.55)">
    <path d="M13.3 -51.3 Q15.7 -50.1 15.9 -47.25 L16.8 -34.75 Q17.35 -28.4 16.9 -22.1 L16.45 -19.25 Q16.2 -16.25 14.75 -13.6 14.05 -12.25 12.9 -11.6 10.95 -9.55 8.2 -10.85 7.6 -11.15 7.3 -11.6 L6.15 -11.95 Q4.0 -12.55 2.45 -10.9 2.15 -10.6 1.85 -10.6 L-1.3 -10.55 Q-2.75 -11.2 -2.75 -12.15 L-3.3 -12.75 -4.4 -14.45 -5.3 -16.4 Q-6.6 -18.2 -7.4 -20.4 -11.55 -31.8 -10.4 -44.3 -9.9 -49.45 -5.2 -51.1 L-1.85 -51.65 5.1 -52.2 Q9.55 -53.25 13.3 -51.3 M-3.45 -15.75 L-3.55 -16.55 -3.65 -16.3 -3.45 -15.75" fill="#ff0000" fill-rule="evenodd" stroke="none"/>
  </g>
</svg>
