<?xml version="1.0" encoding="UTF-8" standalone="no"?>
<svg xmlns:xlink="http://www.w3.org/1999/xlink" height="20.55px" width="10.65px" xmlns="http://www.w3.org/2000/svg">
  <g transform="matrix(1.0, 0.0, 0.0, 1.0, 4.5, 25.65)">
    <path d="M2.0 -25.6 L2.2 -25.55 2.35 -25.55 Q3.8 -25.55 5.0 -24.4 L4.45 -23.95 Q3.45 -23.45 2.6 -22.15 1.95 -21.35 1.55 -20.3 0.75 -18.5 0.7 -16.2 L0.65 -15.3 Q0.8 -12.45 1.95 -10.4 L2.2 -10.0 Q3.5 -7.75 5.35 -7.7 L6.1 -7.8 6.15 -7.8 6.05 -7.05 Q4.8 -5.3 3.1 -5.1 L2.1 -5.15 1.15 -5.2 Q0.8 -5.25 0.55 -5.45 L0.4 -5.6 0.3 -5.7 Q-2.2 -7.3 -3.3 -10.0 L-3.75 -11.5 Q-4.65 -13.65 -4.45 -16.1 L-4.45 -16.2 -4.3 -17.1 Q-4.05 -19.95 -2.55 -22.3 L-1.15 -24.25 Q0.05 -25.5 1.75 -25.65 L2.0 -25.6" fill="#ffcc00" fill-rule="evenodd" stroke="none"/>
  </g>
</svg>
