<?xml version="1.0" encoding="UTF-8" standalone="no"?>
<svg xmlns:xlink="http://www.w3.org/1999/xlink" height="33.75px" width="42.55px" xmlns="http://www.w3.org/2000/svg">
  <g transform="matrix(1.0, 0.0, 0.0, 1.0, -10.1, -9.85)">
    <path d="M52.15 25.6 Q53.45 32.95 51.4 40.25 L49.9 40.25 Q51.2 33.45 50.5 26.6 L52.15 25.6 M11.8 32.5 L14.0 32.5 Q15.05 38.5 18.85 42.25 L17.0 43.6 Q12.95 39.55 11.8 32.5" fill="#000000" fill-opacity="0.2509804" fill-rule="evenodd" stroke="none"/>
    <path d="M38.75 15.1 Q45.7 16.25 48.9 24.85 45.6 21.3 37.2 19.95 28.8 18.55 18.05 20.1 25.35 15.2 34.55 14.6 L38.75 15.1" fill="#ffffff" fill-opacity="0.49803922" fill-rule="evenodd" stroke="none"/>
    <path d="M11.8 32.5 L10.5 32.25 Q8.25 19.6 19.4 13.7 25.0 10.75 29.8 10.15 42.65 8.35 48.55 16.75 51.5 21.0 52.15 25.6 L50.4 26.0 Q48.85 15.5 39.7 12.95 36.85 12.15 33.6 12.25 L30.9 12.5 Q17.55 14.5 14.45 23.65 12.9 28.2 14.0 32.35 L14.0 32.5 11.8 32.5" fill="#000000" fill-opacity="0.08627451" fill-rule="evenodd" stroke="none"/>
  </g>
</svg>
