<?xml version="1.0" encoding="UTF-8" standalone="no"?>
<svg xmlns:xlink="http://www.w3.org/1999/xlink" height="30.6px" width="31.8px" xmlns="http://www.w3.org/2000/svg">
  <g transform="matrix(1.0, 0.0, 0.0, 1.0, 3.55, 2.5)">
    <path d="M13.55 25.6 L10.6 25.6 Q5.8 25.6 2.35 21.85 -1.05 18.1 -1.05 12.8 -1.05 7.5 2.35 3.75 5.8 0.0 10.6 0.0 L13.45 0.05 Q9.0 0.25 5.8 3.75 2.4 7.5 2.4 12.8 2.4 18.1 5.8 21.85 9.05 25.4 13.55 25.6 M15.4 0.1 L15.7 0.1 Q17.1 0.3 18.15 0.8 16.85 0.25 15.4 0.1 M12.35 4.15 L12.85 3.95 13.3 4.0 13.55 4.3 13.7 5.15 13.95 5.15 Q15.8 4.8 16.05 6.45 16.25 7.55 15.7 7.65 L15.1 7.6 14.4 7.55 Q14.0 7.65 13.75 8.05 13.55 8.45 13.65 8.95 13.75 9.5 14.45 10.15 L15.8 11.35 Q16.6 11.8 17.3 12.9 18.05 13.95 18.25 15.1 L18.3 17.25 17.75 18.6 Q17.05 19.6 16.05 20.1 L16.2 21.15 16.0 21.65 15.4 21.9 Q14.95 22.0 14.9 21.55 L14.7 20.5 Q13.15 20.65 12.05 19.8 10.95 19.0 10.7 17.4 10.55 16.55 10.85 15.7 11.15 14.8 11.85 14.7 L12.3 14.75 12.6 15.4 12.9 16.15 13.3 16.7 13.7 16.95 14.15 17.0 14.9 16.5 15.05 15.5 14.2 14.15 Q13.5 13.35 12.65 12.7 L11.15 11.2 Q10.4 10.35 10.25 9.35 10.05 8.4 10.65 7.3 11.15 6.2 12.3 5.6 L12.15 4.65 Q12.1 4.35 12.35 4.15" fill="#ce9b00" fill-rule="evenodd" stroke="none"/>
    <path d="M13.25 -2.45 L14.05 -2.5 16.0 -2.35 16.1 -2.35 18.8 -1.65 18.95 -1.6 Q21.85 -0.5 24.2 2.1 28.25 6.5 28.25 12.8 28.25 19.1 24.2 23.55 20.0 28.1 14.05 28.1 L13.55 28.1 10.6 28.1 Q4.7 28.15 0.5 23.55 -3.55 19.1 -3.55 12.8 -3.55 6.5 0.5 2.1 L0.5 2.05 Q4.7 -2.55 10.6 -2.5 L13.25 -2.45 M13.55 25.6 L14.05 25.6 Q18.9 25.6 22.35 21.85 25.75 18.1 25.75 12.8 25.75 7.5 22.35 3.75 20.45 1.7 18.15 0.8 17.1 0.3 15.7 0.1 L15.4 0.1 14.05 0.0 13.45 0.05 10.6 0.0 Q5.8 0.0 2.35 3.75 -1.05 7.5 -1.05 12.8 -1.05 18.1 2.35 21.85 5.8 25.6 10.6 25.6 L13.55 25.6" fill="#000000" fill-rule="evenodd" stroke="none"/>
    <path d="M20.35 19.7 Q22.9 16.8 22.9 12.8 22.9 8.8 20.35 5.9 17.75 3.1 14.05 3.1 10.4 3.1 7.8 5.9 5.25 8.8 5.25 12.8 5.25 16.8 7.8 19.7 10.4 22.5 14.05 22.5 17.75 22.5 20.35 19.7 M18.15 0.8 Q20.45 1.7 22.35 3.75 25.75 7.5 25.75 12.8 25.75 18.1 22.35 21.85 18.9 25.6 14.05 25.6 L13.55 25.6 Q9.05 25.4 5.8 21.85 2.4 18.1 2.4 12.8 2.4 7.5 5.8 3.75 9.0 0.25 13.45 0.05 L14.05 0.0 15.4 0.1 Q16.85 0.25 18.15 0.8" fill="url(#gradient0)" fill-rule="evenodd" stroke="none"/>
    <path d="M20.35 19.7 Q17.75 22.5 14.05 22.5 10.4 22.5 7.8 19.7 5.25 16.8 5.25 12.8 5.25 8.8 7.8 5.9 10.4 3.1 14.05 3.1 17.75 3.1 20.35 5.9 22.9 8.8 22.9 12.8 22.9 16.8 20.35 19.7 M12.35 4.15 Q12.1 4.35 12.15 4.65 L12.3 5.6 Q11.15 6.2 10.65 7.3 10.05 8.4 10.25 9.35 10.4 10.35 11.15 11.2 L12.65 12.7 Q13.5 13.35 14.2 14.15 L15.05 15.5 14.9 16.5 14.15 17.0 13.7 16.95 13.3 16.7 12.9 16.15 12.6 15.4 12.3 14.75 11.85 14.7 Q11.15 14.8 10.85 15.7 10.55 16.55 10.7 17.4 10.95 19.0 12.05 19.8 13.15 20.65 14.7 20.5 L14.9 21.55 Q14.95 22.0 15.4 21.9 L16.0 21.65 16.2 21.15 16.05 20.1 Q17.05 19.6 17.75 18.6 L18.3 17.25 18.25 15.1 Q18.05 13.95 17.3 12.9 16.6 11.8 15.8 11.35 L14.45 10.15 Q13.75 9.5 13.65 8.95 13.55 8.45 13.75 8.05 14.0 7.65 14.4 7.55 L15.1 7.6 15.7 7.65 Q16.25 7.55 16.05 6.45 15.8 4.8 13.95 5.15 L13.7 5.15 13.55 4.3 13.3 4.0 12.85 3.95 12.35 4.15" fill="#ffcc33" fill-rule="evenodd" stroke="none"/>
  </g>
  <defs>
    <linearGradient gradientTransform="matrix(0.0128, -0.0218, 0.012, 0.0085, 12.25, 17.2)" gradientUnits="userSpaceOnUse" id="gradient0" spreadMethod="pad" x1="-819.2" x2="819.2">
      <stop offset="0.0" stop-color="#ffcc33"/>
      <stop offset="1.0" stop-color="#ffe9a4"/>
    </linearGradient>
  </defs>
</svg>
