<?xml version="1.0" encoding="UTF-8" standalone="no"?>
<svg xmlns:xlink="http://www.w3.org/1999/xlink" height="10.25px" width="12.35px" xmlns="http://www.w3.org/2000/svg">
  <g transform="matrix(1.0, 0.0, 0.0, 1.0, 6.7, 6.55)">
    <path d="M-5.95 -6.55 Q-5.8 -5.05 -4.55 -1.85 -3.7 0.6 -2.8 1.5 -2.05 2.25 -0.85 2.25 0.8 2.25 2.15 0.5 L3.65 -1.9 4.7 -4.05 5.45 -6.15 5.5 -6.15 5.65 -4.05 Q5.65 -2.9 4.0 -0.05 1.85 3.7 -0.85 3.7 -2.95 3.7 -4.1 2.25 -4.75 1.45 -5.45 -0.65 L-6.15 -2.95 -6.7 -5.3 -6.65 -6.1 -6.55 -6.45 -5.95 -6.55" fill="#000000" fill-rule="evenodd" stroke="none"/>
  </g>
</svg>
