<?xml version="1.0" encoding="UTF-8" standalone="no"?>
<svg xmlns:xlink="http://www.w3.org/1999/xlink" height="63.85px" width="61.65px" xmlns="http://www.w3.org/2000/svg">
  <g transform="matrix(1.0, 0.0, 0.0, 1.0, 60.4, 27.05)">
    <path d="M-28.2 -2.0 L-30.45 -5.3 Q-32.8 -9.35 -33.45 -13.15 -33.8 -6.55 -31.15 0.3 -29.8 3.75 -28.4 5.85 -23.65 7.95 -19.7 11.45 -16.2 14.55 -12.75 19.35 L-17.5 25.7 -24.35 16.75 Q-28.3 12.5 -33.45 11.6 -27.45 15.35 -23.6 20.0 -20.3 23.95 -17.1 30.55 L-22.65 36.8 -27.25 33.2 -24.0 30.2 Q-27.95 22.8 -37.9 18.0 L-31.7 24.15 Q-28.7 27.4 -27.5 30.3 L-33.55 34.25 -42.6 26.55 -46.15 28.05 Q-50.25 29.4 -52.9 28.8 -55.8 28.15 -57.7 25.8 -59.25 23.9 -59.5 21.8 -62.1 1.45 -57.25 -16.55 -52.6 -33.65 -25.2 -22.95 -11.5 -17.55 1.25 -8.8 L-1.1 9.75 Q-4.45 7.25 -9.55 4.55 -19.7 -0.85 -28.2 -2.0" fill="#bf7926" fill-rule="evenodd" stroke="none"/>
    <path d="M-58.7 -10.35 L-57.25 -16.55 Q-52.6 -33.65 -25.2 -22.95 -11.5 -17.55 1.25 -8.8 L-1.1 9.75 Q-4.45 7.25 -9.55 4.55 -16.9 0.65 -23.35 -1.0 L-28.2 -2.0 -30.45 -5.3 Q-32.8 -9.35 -33.45 -13.15 -33.8 -6.55 -31.15 0.3 -29.8 3.75 -28.4 5.85 -27.15 6.4 -25.95 7.05 L-26.05 7.35 Q-32.4 7.85 -37.0 4.95 -34.7 8.1 -34.7 12.8 -41.75 12.0 -46.8 8.85 -43.25 12.3 -41.6 16.5 L-53.8 15.85 Q-51.6 20.65 -51.8 26.0 L-56.25 27.25 -57.7 25.8 Q-59.25 23.9 -59.5 21.8 -61.7 4.55 -58.55 -11.0 L-58.7 -10.35" fill="#70381f" fill-rule="evenodd" stroke="none"/>
  </g>
</svg>
