<?xml version="1.0" encoding="UTF-8" standalone="no"?>
<svg xmlns:xlink="http://www.w3.org/1999/xlink" height="46.15px" width="35.8px" xmlns="http://www.w3.org/2000/svg">
  <g transform="matrix(1.0, 0.0, 0.0, 1.0, 17.9, 23.05)">
    <path d="M4.1 -13.05 Q8.6 -13.05 12.55 -14.25 12.9 -11.3 12.9 -8.1 12.9 2.75 9.05 10.4 5.3 18.1 0.0 18.1 -5.35 18.1 -9.15 10.4 -12.9 2.75 -12.9 -8.1 -12.9 -13.5 -11.95 -18.05 -4.95 -13.05 4.1 -13.05" fill="#8a1d00" fill-rule="evenodd" stroke="none"/>
    <path d="M4.1 -13.05 Q-4.95 -13.05 -11.95 -18.05 -12.9 -13.5 -12.9 -8.1 -12.9 2.75 -9.15 10.4 -5.35 18.1 0.0 18.1 5.3 18.1 9.05 10.4 12.9 2.75 12.9 -8.1 12.9 -11.3 12.55 -14.25 8.6 -13.05 4.1 -13.05 Z" fill="none" stroke="#a8620f" stroke-linecap="round" stroke-linejoin="round" stroke-width="10.0"/>
    <path d="M4.1 -13.05 Q8.6 -13.05 12.55 -14.25 12.9 -11.3 12.9 -8.1 12.9 2.75 9.05 10.4 5.3 18.1 0.0 18.1 -5.35 18.1 -9.15 10.4 -12.9 2.75 -12.9 -8.1 -12.9 -13.5 -11.95 -18.05 -4.95 -13.05 4.1 -13.05" fill="#8a1d00" fill-rule="evenodd" stroke="none"/>
    <path d="M3.85 -0.2 L2.7 -0.35 Q0.25 -1.0 -1.4 -3.85 -4.2 -0.25 -7.55 -0.2 L-9.0 -0.35 Q-11.05 -0.8 -12.6 -2.4 L-12.9 -8.1 Q-12.9 -13.5 -11.95 -18.05 -4.95 -13.05 4.1 -13.05 8.4 -13.05 12.25 -14.15 11.7 -8.1 9.15 -4.05 6.75 -0.25 3.85 -0.2" fill="#ffffff" fill-rule="evenodd" stroke="none"/>
    <path d="M4.7 16.4 Q2.5 18.1 0.0 18.1 -5.35 18.1 -9.15 10.4 -11.0 6.6 -11.95 1.95 -6.05 2.65 -1.1 7.4 3.0 11.35 4.7 16.4" fill="#d74533" fill-rule="evenodd" stroke="none"/>
  </g>
</svg>
