<?xml version="1.0" encoding="UTF-8" standalone="no"?>
<svg xmlns:xlink="http://www.w3.org/1999/xlink" height="14.3px" width="21.05px" xmlns="http://www.w3.org/2000/svg">
  <g transform="matrix(1.0, 0.0, 0.0, 1.0, -21.5, 10.15)">
    <path d="M29.45 -9.9 L30.3 -10.15 31.1 -9.9 32.0 -9.7 32.05 -9.7 32.95 -9.9 33.75 -10.15 34.6 -9.9 35.5 -9.7 35.55 -9.7 36.45 -9.9 37.3 -10.15 38.1 -9.9 39.0 -9.7 39.05 -9.7 39.95 -9.9 40.8 -10.15 41.6 -9.9 42.5 -9.7 42.35 -9.7 42.55 -9.5 42.55 4.15 32.05 -4.45 21.5 4.15 21.5 -9.5 21.7 -9.7 21.55 -9.7 22.45 -9.9 23.3 -10.15 24.1 -9.9 25.0 -9.7 25.05 -9.7 25.95 -9.9 26.8 -10.15 27.6 -9.9 28.5 -9.7 28.55 -9.7 29.45 -9.9" fill="#000000" fill-opacity="0.5019608" fill-rule="evenodd" stroke="none"/>
  </g>
</svg>
