<?xml version="1.0" encoding="UTF-8" standalone="no"?>
<svg xmlns:xlink="http://www.w3.org/1999/xlink" height="59.4px" width="59.4px" xmlns="http://www.w3.org/2000/svg">
  <g transform="matrix(1.0, 0.0, 0.0, 1.0, 29.7, 29.7)">
    <path d="M-17.8 -17.8 Q-10.4 -25.2 0.0 -25.2 10.45 -25.2 17.85 -17.8 25.2 -10.4 25.2 0.0 25.2 10.45 17.85 17.85 10.45 25.2 0.0 25.2 -10.4 25.2 -17.8 17.85 -25.2 10.45 -25.2 0.0 -25.2 -10.4 -17.8 -17.8" fill="#d4f6ff" fill-rule="evenodd" stroke="none"/>
    <path d="M-17.8 -17.8 Q-10.4 -25.2 0.0 -25.2 10.45 -25.2 17.85 -17.8 25.2 -10.4 25.2 0.0 25.2 10.45 17.85 17.85 10.45 25.2 0.0 25.2 -10.4 25.2 -17.8 17.85 -25.2 10.45 -25.2 0.0 -25.2 -10.4 -17.8 -17.8 Z" fill="none" stroke="#2e2d2d" stroke-linecap="round" stroke-linejoin="round" stroke-width="9.0"/>
    <path d="M-17.8 -17.8 Q-10.4 -25.2 0.0 -25.2 10.45 -25.2 17.85 -17.8 25.2 -10.4 25.2 0.0 25.2 10.45 17.85 17.85 10.45 25.2 0.0 25.2 -10.4 25.2 -17.8 17.85 -25.2 10.45 -25.2 0.0 -25.2 -10.4 -17.8 -17.8" fill="#d4f6ff" fill-rule="evenodd" stroke="none"/>
    <path d="M-21.1 6.15 L-21.0 6.15 Q-19.8 8.65 -13.65 9.05 -6.9 9.5 1.85 7.15 10.65 4.85 16.3 1.2 21.45 -2.2 21.3 -4.9 L21.25 -5.3 21.3 -5.3 21.4 -4.9 Q21.9 -2.55 21.9 0.1 21.9 9.15 15.45 15.55 9.05 22.0 0.0 22.0 -9.05 22.0 -15.5 15.55 -19.65 11.4 -21.1 6.15" fill="#82bd06" fill-rule="evenodd" stroke="none"/>
    <path d="M-16.35 -1.0 Q-10.65 -4.75 -1.9 -7.05 6.85 -9.35 13.65 -8.9 20.4 -8.45 21.2 -5.5 21.95 -2.5 16.3 1.15 10.6 4.9 1.85 7.2 -6.9 9.5 -13.7 9.05 -20.45 8.65 -21.2 5.65 -22.0 2.7 -16.35 -1.0" fill="#9bd919" fill-rule="evenodd" stroke="none"/>
    <path d="M16.3 6.65 Q16.8 7.15 16.8 7.85 16.8 8.6 16.3 9.05 15.8 9.6 15.1 9.6 14.35 9.6 13.85 9.05 13.35 8.6 13.35 7.85 13.35 7.15 13.85 6.65 14.35 6.15 15.1 6.15 15.8 6.15 16.3 6.65 M0.75 17.05 Q0.75 18.5 -0.35 19.55 -1.4 20.65 -2.85 20.65 -4.35 20.65 -5.45 19.55 -6.5 18.5 -6.5 17.05 -6.5 15.55 -5.45 14.45 -4.35 13.4 -2.85 13.4 -1.4 13.4 -0.35 14.45 0.75 15.55 0.75 17.05" fill="#9bd919" fill-rule="evenodd" stroke="none"/>
    <path d="M17.2 2.45 L17.1 4.05 M-5.6 -15.9 L-1.2 -16.4 Q6.45 -16.4 11.85 -11.0 13.65 -9.2 14.85 -7.15" fill="none" stroke="#ffffff" stroke-linecap="round" stroke-linejoin="round" stroke-width="9.0"/>
  </g>
</svg>
