<?xml version="1.0" encoding="UTF-8" standalone="no"?>
<svg xmlns:xlink="http://www.w3.org/1999/xlink" height="59.65px" width="46.85px" xmlns="http://www.w3.org/2000/svg">
  <g transform="matrix(1.0, 0.0, 0.0, 1.0, 12.5, 11.55)">
    <path d="M-4.8 -11.55 L13.5 1.6 Q13.3 2.2 13.25 2.85 L13.25 2.9 Q13.2 4.35 13.65 5.7 14.85 9.15 19.55 12.05 22.8 14.1 26.4 15.6 L26.75 16.2 26.75 16.25 29.7 21.6 31.9 25.7 34.35 30.85 28.2 36.45 25.15 24.55 25.1 24.35 24.9 23.65 25.0 24.4 25.2 25.75 25.3 26.3 25.9 30.1 26.15 31.3 26.4 32.5 Q27.2 36.7 28.25 40.7 L28.9 43.2 29.05 43.65 29.2 44.2 29.3 44.65 29.35 44.8 28.4 45.2 27.25 45.65 20.85 48.1 17.9 44.85 10.25 47.5 5.5 44.45 -0.6 44.95 -0.8 44.55 -1.45 43.35 Q-2.3 41.75 -3.45 36.85 L-4.9 31.0 Q-8.8 25.05 -10.9 18.0 -15.05 4.2 -8.4 -6.95 L-5.65 -10.65 -4.8 -11.55" fill="#bf7926" fill-rule="evenodd" stroke="none"/>
    <path d="M-4.8 -11.55 L13.5 1.6 13.85 0.95 Q13.3 1.8 13.25 2.85 13.2 4.2 13.6 5.45 L13.65 5.7 13.9 6.25 Q15.25 9.4 19.55 12.05 L19.75 12.2 19.95 12.3 Q20.15 20.3 18.75 28.25 12.6 23.3 9.35 16.35 10.6 25.2 8.45 33.85 3.1 28.75 0.5 21.35 0.4 24.65 -0.85 28.2 L-3.4 34.0 -4.35 33.0 -4.9 31.0 Q-8.8 25.05 -10.9 18.0 -15.05 4.2 -8.4 -6.95 L-8.1 -7.45 -6.15 -10.1 -5.05 -11.3 -4.8 -11.55 M26.75 16.2 L26.75 16.25 27.6 17.7 27.8 18.1 23.75 21.3 Q21.6 17.95 20.0 12.35 L21.4 13.15 20.7 12.75 Q23.4 14.35 26.4 15.6 L26.75 16.2" fill="#70381f" fill-rule="evenodd" stroke="none"/>
  </g>
</svg>
