<?xml version="1.0" encoding="UTF-8" standalone="no"?>
<svg xmlns:xlink="http://www.w3.org/1999/xlink" height="22.3px" width="125.9px" xmlns="http://www.w3.org/2000/svg">
  <g transform="matrix(1.0, 0.0, 0.0, 1.0, -350.0, -61.9)">
    <path d="M351.55 68.85 Q350.5 67.7 350.5 66.15 350.5 64.6 351.55 63.45 352.8 62.4 354.35 62.4 355.9 62.4 356.95 63.45 358.2 64.6 358.2 66.15 358.2 67.7 356.95 68.85 355.9 70.0 354.35 70.0 352.8 70.0 351.55 68.85" fill="#999999" fill-rule="evenodd" stroke="none"/>
    <path d="M351.55 68.85 Q350.5 67.7 350.5 66.15 350.5 64.6 351.55 63.45 352.8 62.4 354.35 62.4 355.9 62.4 356.95 63.45 358.2 64.6 358.2 66.15 358.2 67.7 356.95 68.85 355.9 70.0 354.35 70.0 352.8 70.0 351.55 68.85 Z" fill="none" stroke="#333333" stroke-linecap="round" stroke-linejoin="round" stroke-width="1.0"/>
    <path d="M468.75 82.55 Q467.7 81.4 467.7 79.85 467.7 78.3 468.75 77.15 470.0 76.1 471.55 76.1 473.1 76.1 474.15 77.15 475.4 78.3 475.4 79.85 475.4 81.4 474.15 82.55 473.1 83.7 471.55 83.7 470.0 83.7 468.75 82.55" fill="#999999" fill-rule="evenodd" stroke="none"/>
    <path d="M468.75 82.55 Q467.7 81.4 467.7 79.85 467.7 78.3 468.75 77.15 470.0 76.1 471.55 76.1 473.1 76.1 474.15 77.15 475.4 78.3 475.4 79.85 475.4 81.4 474.15 82.55 473.1 83.7 471.55 83.7 470.0 83.7 468.75 82.55 Z" fill="none" stroke="#333333" stroke-linecap="round" stroke-linejoin="round" stroke-width="1.0"/>
  </g>
</svg>
