<?xml version="1.0" encoding="UTF-8" standalone="no"?>
<svg xmlns:xlink="http://www.w3.org/1999/xlink" height="70.05px" width="246.7px" xmlns="http://www.w3.org/2000/svg">
  <g transform="matrix(1.0, 0.0, 0.0, 1.0, 138.05, -51.7)">
    <path d="M71.45 79.15 Q74.4 80.65 82.65 83.25 92.5 86.4 95.6 87.65 102.15 90.15 103.45 92.25 104.85 94.4 103.5 94.85 L99.35 94.55 93.65 93.75 Q90.45 93.6 89.0 94.75 87.6 95.9 87.95 97.5 L89.3 100.55 Q90.3 102.6 90.2 104.0 90.15 106.05 88.0 107.95 83.45 111.95 71.45 114.55 60.3 116.95 47.4 117.25 L34.4 116.15 19.8 113.35 Q-1.65 108.9 -14.65 108.35 L-38.75 109.25 -67.3 111.6 -91.75 112.65 Q-102.3 112.35 -103.35 109.6 -104.45 106.9 -102.4 105.5 -101.1 104.65 -97.2 103.85 -92.9 102.9 -91.3 102.1 -88.5 100.7 -88.4 98.05 -88.35 95.4 -96.35 93.7 L-113.4 91.3 Q-124.75 89.8 -129.1 88.35 -135.35 86.25 -132.8 82.75 -128.25 76.75 -111.05 76.75 L-99.05 76.95 Q-93.3 76.9 -92.05 75.75 -90.7 74.5 -91.55 73.4 L-94.0 71.6 Q-95.95 70.45 -96.3 69.75 -96.95 68.7 -95.2 67.45 -93.55 66.25 -87.55 66.6 L-74.4 67.95 Q-53.85 70.2 -44.05 67.5 -37.9 65.8 -36.75 64.75 -35.9 63.95 -37.7 63.1 L-40.75 61.5 Q-41.95 60.4 -39.8 58.9 -35.3 55.7 -6.45 56.3 L14.0 57.3 Q23.35 58.05 24.7 58.9 25.9 59.6 25.55 60.1 25.4 60.35 24.25 60.75 23.2 61.1 23.1 61.4 22.95 61.85 24.55 62.55 L34.6 63.05 52.6 62.45 Q78.45 61.75 82.8 64.6 85.4 66.4 84.6 67.75 83.9 68.8 80.7 70.0 L74.4 72.25 Q70.6 73.75 68.9 75.3 67.1 77.0 71.45 79.15" fill="#9bd919" fill-rule="evenodd" stroke="none"/>
    <path d="M71.45 79.15 Q74.4 80.65 82.65 83.25 92.5 86.4 95.6 87.65 102.15 90.15 103.45 92.25 104.85 94.4 103.5 94.85 L99.35 94.55 93.65 93.75 Q90.45 93.6 89.0 94.75 87.6 95.9 87.95 97.5 L89.3 100.55 Q90.3 102.6 90.2 104.0 90.15 106.05 88.0 107.95 83.45 111.95 71.45 114.55 60.3 116.95 47.4 117.25 L34.4 116.15 19.8 113.35 Q-1.65 108.9 -14.65 108.35 L-38.75 109.25 -67.3 111.6 -91.75 112.65 Q-102.3 112.35 -103.35 109.6 -104.45 106.9 -102.4 105.5 -101.1 104.65 -97.2 103.85 -92.9 102.9 -91.3 102.1 -88.5 100.7 -88.4 98.05 -88.35 95.4 -96.35 93.7 L-113.4 91.3 Q-124.75 89.8 -129.1 88.35 -135.35 86.25 -132.8 82.75 -128.25 76.75 -111.05 76.75 L-99.05 76.95 Q-93.3 76.9 -92.05 75.75 -90.7 74.5 -91.55 73.4 L-94.0 71.6 Q-95.95 70.45 -96.3 69.75 -96.95 68.7 -95.2 67.45 -93.55 66.25 -87.55 66.6 L-74.4 67.95 Q-53.85 70.2 -44.05 67.5 -37.9 65.8 -36.75 64.75 -35.9 63.95 -37.7 63.1 L-40.75 61.5 Q-41.95 60.4 -39.8 58.9 -35.3 55.7 -6.45 56.3 L14.0 57.3 Q23.35 58.05 24.7 58.9 25.9 59.6 25.55 60.1 25.4 60.35 24.25 60.75 23.2 61.1 23.1 61.4 22.95 61.85 24.55 62.55 L34.6 63.05 52.6 62.45 Q78.45 61.75 82.8 64.6 85.4 66.4 84.6 67.75 83.9 68.8 80.7 70.0 L74.4 72.25 Q70.6 73.75 68.9 75.3 67.1 77.0 71.45 79.15 Z" fill="none" stroke="#5b8700" stroke-linecap="round" stroke-linejoin="round" stroke-width="9.0"/>
    <path d="M71.45 79.15 Q74.4 80.65 82.65 83.25 92.5 86.4 95.6 87.65 102.15 90.15 103.45 92.25 104.85 94.4 103.5 94.85 L99.35 94.55 93.65 93.75 Q90.45 93.6 89.0 94.75 87.6 95.9 87.95 97.5 L89.3 100.55 Q90.3 102.6 90.2 104.0 90.15 106.05 88.0 107.95 83.45 111.95 71.45 114.55 60.3 116.95 47.4 117.25 L34.4 116.15 19.8 113.35 Q-1.65 108.9 -14.65 108.35 L-38.75 109.25 -67.3 111.6 -91.75 112.65 Q-102.3 112.35 -103.35 109.6 -104.45 106.9 -102.4 105.5 -101.1 104.65 -97.2 103.85 -92.9 102.9 -91.3 102.1 -88.5 100.7 -88.4 98.05 -88.35 95.4 -96.35 93.7 L-113.4 91.3 Q-124.75 89.8 -129.1 88.35 -135.35 86.25 -132.8 82.75 -128.25 76.75 -111.05 76.75 L-99.05 76.95 Q-93.3 76.9 -92.05 75.75 -90.7 74.5 -91.55 73.4 L-94.0 71.6 Q-95.95 70.45 -96.3 69.75 -96.95 68.7 -95.2 67.45 -93.55 66.25 -87.55 66.6 L-74.4 67.95 Q-53.85 70.2 -44.05 67.5 -37.9 65.8 -36.75 64.75 -35.9 63.95 -37.7 63.1 L-40.75 61.5 Q-41.95 60.4 -39.8 58.9 -35.3 55.7 -6.45 56.3 L14.0 57.3 Q23.35 58.05 24.7 58.9 25.9 59.6 25.55 60.1 25.4 60.35 24.25 60.75 23.2 61.1 23.1 61.4 22.95 61.85 24.55 62.55 L34.6 63.05 52.6 62.45 Q78.45 61.75 82.8 64.6 85.4 66.4 84.6 67.75 83.9 68.8 80.7 70.0 L74.4 72.25 Q70.6 73.75 68.9 75.3 67.1 77.0 71.45 79.15" fill="#9bd919" fill-rule="evenodd" stroke="none"/>
  </g>
</svg>
