<?xml version="1.0" encoding="UTF-8" standalone="no"?>
<svg xmlns:xlink="http://www.w3.org/1999/xlink" height="24.7px" width="60.35px" xmlns="http://www.w3.org/2000/svg">
  <g transform="matrix(1.0, 0.0, 0.0, 1.0, -1.55, -25.2)">
    <path d="M13.45 35.4 Q12.65 36.25 12.25 37.55 11.4 39.6 11.4 42.2 L11.6 43.4 11.7 43.45 Q13.2 44.55 13.15 45.85 13.05 47.3 11.45 48.1 9.85 49.05 7.7 48.9 5.45 48.75 4.05 47.7 2.65 46.75 2.55 45.3 2.7 44.05 4.05 43.2 L4.0 40.95 Q4.1 37.8 4.95 35.7 6.45 32.55 8.0 30.65 L10.0 28.9 10.45 27.9 Q11.6 26.8 13.35 26.65 15.0 26.65 16.4 27.9 17.8 29.1 17.85 31.0 18.1 32.8 16.95 34.05 15.8 35.4 14.1 35.4 L13.45 35.4" fill="#666666" fill-rule="evenodd" stroke="none"/>
    <path d="M13.45 35.4 Q12.65 36.25 12.25 37.55 11.4 39.6 11.4 42.2 L11.6 43.4 11.7 43.45 Q13.2 44.55 13.15 45.85 13.05 47.3 11.45 48.1 9.85 49.05 7.7 48.9 5.45 48.75 4.05 47.7 2.65 46.75 2.55 45.3 2.7 44.05 4.05 43.2 L4.0 40.95 Q4.1 37.8 4.95 35.7 6.45 32.55 8.0 30.65 L10.0 28.9 10.45 27.9 Q11.6 26.8 13.35 26.65 15.0 26.65 16.4 27.9 17.8 29.1 17.85 31.0 18.1 32.8 16.95 34.05 15.8 35.4 14.1 35.4 L13.45 35.4 Z" fill="none" stroke="#333333" stroke-linecap="round" stroke-linejoin="round" stroke-width="2.0"/>
    <path d="M11.05 34.2 Q9.75 32.9 9.55 31.35 9.45 29.35 10.45 27.9 11.6 26.8 13.35 26.65 15.0 26.65 16.4 27.9 17.8 29.1 17.85 31.0 18.1 32.8 16.95 34.05 15.8 35.4 14.1 35.4 12.35 35.45 11.05 34.2 M4.25 43.15 Q5.8 42.25 8.05 42.35 10.2 42.55 11.7 43.45 13.2 44.55 13.15 45.85 13.05 47.3 11.45 48.1 9.85 49.05 7.7 48.9 5.45 48.75 4.05 47.7 2.65 46.75 2.55 45.3 2.65 44.0 4.25 43.15" fill="#666666" fill-rule="evenodd" stroke="none"/>
    <path d="M15.95 30.95 Q16.35 32.3 15.65 33.6 15.65 33.8 14.1 34.7 12.9 35.65 12.25 37.55 11.4 39.6 11.4 42.2 L11.7 44.65 Q11.75 45.4 11.3 45.95 10.25 46.9 8.0 47.0 5.75 47.15 4.85 45.9 4.2 45.25 4.1 44.25 L4.0 40.95 Q4.1 37.8 4.95 35.7 6.45 32.55 8.0 30.65 L10.1 28.85 Q11.15 28.0 12.35 28.05 13.6 28.0 14.55 28.85 15.65 29.7 15.95 30.95" fill="#b2b2b2" fill-rule="evenodd" stroke="none"/>
    <path d="M4.0 40.95 L4.2 39.3 11.6 39.9 11.4 42.2 11.6 42.85 4.05 42.55 4.0 40.95 M8.0 47.0 Q5.75 47.15 4.85 45.9 4.2 45.25 4.1 44.25 L4.1 43.4 11.65 43.8 11.7 44.65 Q11.75 45.4 11.3 45.95 10.25 46.9 8.0 47.0 M4.95 35.7 L5.45 34.75 Q8.95 34.8 12.7 36.25 L12.25 37.55 11.7 39.0 4.2 38.5 Q4.5 36.9 4.95 35.7 M14.1 34.7 L13.45 35.45 Q9.45 34.05 5.9 33.85 6.85 31.95 8.0 30.65 L8.4 30.2 Q12.4 30.5 15.0 34.1 L14.1 34.7 M12.35 28.05 Q13.6 28.0 14.55 28.85 15.65 29.7 15.95 30.95 16.35 32.3 15.65 33.6 L15.5 33.75 Q13.15 29.95 9.3 29.45 L10.1 28.85 Q11.15 28.0 12.35 28.05" fill="#cccccc" fill-rule="evenodd" stroke="none"/>
    <path d="M53.45 28.4 L55.4 30.2 Q57.0 32.05 58.5 35.25 59.3 37.35 59.45 40.45 L59.4 42.75 Q60.7 43.6 60.9 44.85 60.75 46.25 59.4 47.3 57.95 48.25 55.7 48.45 53.6 48.6 51.95 47.6 50.4 46.8 50.25 45.35 50.25 44.05 51.75 42.95 L51.8 42.9 52.0 41.75 Q52.0 39.15 51.2 37.1 50.75 35.85 49.95 34.9 L49.3 34.9 Q47.65 34.9 46.5 33.6 45.35 32.35 45.6 30.55 45.65 28.7 47.0 27.45 48.4 26.2 50.1 26.2 51.8 26.35 53.0 27.45 L53.45 28.4" fill="#666666" fill-rule="evenodd" stroke="none"/>
    <path d="M53.45 28.4 L53.0 27.45 Q51.8 26.35 50.1 26.2 48.4 26.2 47.0 27.45 45.65 28.7 45.6 30.55 45.35 32.35 46.5 33.6 47.65 34.9 49.3 34.9 L49.95 34.9 Q50.75 35.85 51.2 37.1 52.0 39.15 52.0 41.75 L51.8 42.9 51.75 42.95 Q50.25 44.05 50.25 45.35 50.4 46.8 51.95 47.6 53.6 48.6 55.7 48.45 57.95 48.25 59.4 47.3 60.75 46.25 60.9 44.85 60.7 43.6 59.4 42.75 L59.45 40.45 Q59.3 37.35 58.5 35.25 57.0 32.05 55.4 30.2 L53.45 28.4 Z" fill="none" stroke="#333333" stroke-linecap="round" stroke-linejoin="round" stroke-width="2.0"/>
    <path d="M51.75 42.95 Q53.2 42.1 55.4 41.9 57.65 41.8 59.15 42.7 60.75 43.55 60.9 44.85 60.75 46.25 59.4 47.3 57.95 48.25 55.7 48.45 53.6 48.6 51.95 47.6 50.4 46.8 50.25 45.35 50.25 44.05 51.75 42.95 M53.85 30.85 Q53.7 32.45 52.35 33.75 51.1 35.0 49.3 34.9 47.65 34.9 46.5 33.6 45.35 32.35 45.6 30.55 45.65 28.7 47.0 27.45 48.4 26.2 50.1 26.2 51.8 26.35 53.0 27.45 54.0 28.9 53.85 30.85" fill="#666666" fill-rule="evenodd" stroke="none"/>
    <path d="M58.5 35.25 Q59.3 37.35 59.45 40.45 L59.3 43.8 Q59.2 44.8 58.6 45.45 57.7 46.75 55.4 46.5 53.15 46.4 52.15 45.5 51.7 44.9 51.75 44.2 51.8 42.9 52.0 41.75 52.0 39.15 51.2 37.1 50.55 35.2 49.3 34.25 L47.8 33.1 Q47.05 31.85 47.5 30.5 47.8 29.25 48.9 28.35 49.8 27.55 51.1 27.6 52.3 27.55 53.3 28.35 L55.4 30.2 Q57.0 32.05 58.5 35.25" fill="#b2b2b2" fill-rule="evenodd" stroke="none"/>
    <path d="M57.95 34.25 L58.5 35.25 59.2 37.95 51.75 38.55 51.2 37.1 50.7 35.8 Q54.45 34.3 57.95 34.25 M53.3 28.35 L54.15 29.0 Q50.25 29.45 47.95 33.25 L47.8 33.1 Q47.05 31.85 47.5 30.5 47.8 29.25 48.9 28.35 49.8 27.55 51.1 27.6 52.3 27.55 53.3 28.35 M55.4 30.2 Q56.6 31.5 57.55 33.35 54.0 33.6 49.95 35.0 L49.3 34.25 48.4 33.7 Q51.05 30.05 55.05 29.7 L55.4 30.2 M59.45 40.45 L59.4 42.1 51.8 42.4 52.0 41.75 51.8 39.4 59.2 38.85 59.45 40.45 M51.75 44.2 L51.75 43.35 59.3 42.9 59.3 43.8 Q59.2 44.8 58.6 45.45 57.7 46.75 55.4 46.5 53.15 46.4 52.15 45.5 51.7 44.9 51.75 44.2" fill="#cccccc" fill-rule="evenodd" stroke="none"/>
  </g>
</svg>
