<?xml version="1.0" encoding="UTF-8" standalone="no"?>
<svg xmlns:xlink="http://www.w3.org/1999/xlink" height="12.1px" width="52.05px" xmlns="http://www.w3.org/2000/svg">
  <g transform="matrix(1.0, 0.0, 0.0, 1.0, -0.35, -45.2)">
    <path d="M50.0 46.0 L50.1 46.2 50.6 46.15 Q51.1 46.2 51.4 46.4 51.95 46.45 52.1 46.9 52.4 46.95 52.4 47.35 52.4 47.85 51.95 47.85 L51.9 47.85 51.25 48.2 51.1 48.2 51.1 48.35 50.95 48.75 50.6 48.95 Q50.25 48.95 50.1 48.75 L50.0 48.75 49.95 48.75 49.45 49.2 49.0 48.9 49.0 48.85 48.75 48.85 Q47.9 48.85 47.5 48.3 L47.4 48.15 Q46.6 48.15 46.6 47.15 46.6 46.65 47.0 46.05 47.55 45.2 48.5 45.2 49.5 45.2 50.0 46.0 M1.0 47.15 Q1.75 46.4 2.65 46.4 3.45 46.4 3.8 46.7 L4.7 46.75 Q5.8 47.3 5.8 48.35 5.85 49.3 5.15 49.3 L5.0 49.3 5.0 49.35 4.9 49.4 4.95 49.4 Q5.35 49.4 5.35 49.8 L4.95 50.2 4.6 50.1 4.55 49.8 4.6 49.6 4.15 49.85 3.2 50.2 3.3 51.05 Q3.3 51.8 2.55 51.8 1.55 51.8 1.8 50.75 L1.9 50.2 Q1.05 49.95 1.1 49.1 L1.1 49.05 Q0.3 49.0 0.35 48.1 0.35 47.75 1.0 47.15 M11.4 48.8 Q11.4 47.0 14.1 47.05 L15.75 47.35 16.4 47.25 Q17.7 47.25 18.1 49.55 18.1 50.15 17.7 50.45 L16.95 50.9 16.4 51.65 15.5 52.8 15.65 53.45 Q15.7 54.85 14.7 54.85 14.1 54.85 13.8 53.25 L13.6 51.55 13.5 50.8 12.05 50.65 11.75 50.0 12.0 49.7 11.5 49.25 11.4 48.8 M23.25 47.3 Q23.8 46.75 25.5 46.6 25.85 46.15 26.55 46.15 L29.25 47.2 29.95 47.75 Q30.55 46.8 32.75 46.95 35.1 47.1 35.6 48.4 35.9 48.05 36.6 48.25 36.75 47.9 37.3 47.9 L37.9 48.1 38.25 48.05 Q38.85 48.05 38.95 48.5 L39.0 48.5 Q39.05 48.0 39.5 48.05 39.95 48.1 39.95 48.6 L39.85 49.05 39.85 49.1 Q40.05 48.9 40.4 48.9 41.15 48.9 41.15 49.55 41.15 50.3 40.4 50.3 L39.95 50.2 Q39.7 50.8 38.75 50.8 L38.5 50.75 38.4 50.9 Q38.3 51.45 37.55 51.45 37.0 51.45 36.85 51.05 L36.8 50.75 36.1 50.6 Q35.5 50.6 35.35 50.1 L35.25 50.2 35.1 50.35 35.1 50.5 Q35.1 51.45 34.35 51.45 L33.75 51.2 33.65 51.35 33.65 51.55 33.3 52.2 33.1 52.35 33.3 52.75 33.0 53.15 32.65 53.05 32.6 52.75 32.7 52.5 32.45 52.5 Q31.9 52.5 31.7 52.05 L31.6 51.6 Q31.6 50.95 32.05 50.8 L31.45 50.75 Q30.65 50.75 30.1 49.65 L30.0 49.3 29.9 49.35 29.25 50.05 29.25 50.3 28.9 51.25 28.15 51.95 28.2 52.6 Q28.2 53.8 27.3 53.8 26.6 53.8 26.45 53.15 L26.45 52.3 26.2 51.75 24.9 51.2 24.5 50.9 23.85 51.6 Q22.6 52.8 21.1 52.8 L19.45 52.5 18.65 52.2 Q18.05 52.2 17.85 51.6 L17.75 51.0 Q17.75 50.5 18.15 49.85 18.75 48.85 20.0 48.85 L20.65 49.05 Q20.85 48.3 22.0 48.3 22.6 48.3 23.0 48.65 L22.95 48.25 Q22.95 47.6 23.25 47.3 M31.95 54.35 Q31.95 53.95 32.35 54.05 L32.7 54.4 Q32.7 54.8 32.35 54.8 31.95 54.8 31.95 54.35 M9.85 51.55 Q10.7 51.3 10.7 52.45 10.7 53.7 9.7 53.7 L9.45 53.7 Q9.45 54.55 8.75 54.55 8.3 54.55 8.15 54.15 L7.75 54.25 Q7.0 54.25 6.6 53.6 L6.35 53.15 Q5.8 53.15 5.65 52.7 L5.6 52.25 Q5.6 50.65 7.8 50.75 9.35 50.8 9.85 51.55 M7.65 56.35 L7.4 56.15 7.35 55.85 Q7.35 55.2 7.85 55.2 8.3 55.2 8.3 55.85 L8.2 56.25 Q8.6 56.3 8.6 56.75 8.5 57.3 8.05 57.3 7.7 57.3 7.55 57.05 L7.45 56.75 7.65 56.35 M50.8 50.45 L50.55 50.55 Q50.25 50.55 50.15 50.25 L50.1 50.05 Q50.1 49.65 50.55 49.65 51.0 49.65 51.0 50.1 L50.8 50.45 M45.15 50.0 L45.45 50.0 Q46.7 50.0 46.9 51.45 46.9 51.75 45.5 52.5 L45.5 52.7 Q45.5 53.35 44.9 53.35 L44.35 53.05 44.05 53.2 44.05 53.25 43.9 53.7 43.85 53.8 Q44.15 53.85 44.15 54.25 L43.95 54.6 43.75 54.7 Q43.3 54.7 43.25 54.45 L43.25 54.25 43.3 54.05 42.85 53.7 42.8 53.35 Q42.8 52.95 43.2 52.85 L42.15 52.55 41.85 52.6 Q41.5 52.6 41.3 52.2 L41.2 51.8 40.8 51.4 40.7 50.9 Q40.7 50.3 41.4 49.7 42.15 49.0 43.2 49.0 44.05 49.0 44.7 49.55 L45.15 50.0" fill="#ffffff" fill-rule="evenodd" stroke="none"/>
  </g>
</svg>
