<?xml version="1.0" encoding="UTF-8" standalone="no"?>
<svg xmlns:xlink="http://www.w3.org/1999/xlink" height="64.25px" width="41.95px" xmlns="http://www.w3.org/2000/svg">
  <g transform="matrix(1.0, 0.0, 0.0, 1.0, 7.8, 33.7)">
    <path d="M30.0 -25.75 Q27.0 -14.75 22.25 -8.8 L18.4 -9.9 Q24.05 -17.6 23.65 -29.15 L30.0 -25.75" fill="#a35d0d" fill-rule="evenodd" stroke="none"/>
    <path d="M14.15 -10.45 L7.5 -5.8 13.95 -11.25 17.55 -10.0 Q24.15 -18.65 22.7 -32.45 L8.8 -33.7 Q8.5 -6.7 1.25 1.5 -2.65 5.95 -7.8 9.35 L-7.3 9.0 Q-7.55 13.6 -6.8 17.1 -6.0 21.4 0.4 27.2 L4.3 30.55 Q8.05 29.6 11.3 28.1 18.9 24.75 20.75 20.05 21.85 17.1 18.8 8.55 L15.55 0.65 Q20.1 6.9 21.5 13.25 L26.8 11.95 Q27.35 9.0 27.7 5.15 28.4 -2.45 27.35 -6.6 L14.15 -10.45" fill="#bf7926" fill-rule="evenodd" stroke="none"/>
    <path d="M-4.4 6.9 L-7.3 9.0 Q-7.55 13.6 -6.8 17.1 -6.0 21.4 0.4 27.2 L4.3 30.55 9.85 28.75 Q6.45 27.7 5.35 25.65 4.2 23.45 6.45 19.9 L8.85 16.75 5.1 19.5 Q1.15 21.6 0.25 19.1 -0.7 16.55 3.7 12.75 L8.3 9.4 2.95 11.25 Q-2.55 12.8 -3.15 10.95 L-4.4 6.9" fill="#70381f" fill-rule="evenodd" stroke="none"/>
    <path d="M21.6 14.3 L27.65 12.8 27.85 12.15 28.7 5.25 28.7 5.35 28.85 3.45 34.15 5.85 29.7 22.05 21.35 21.85 21.25 21.5 21.7 20.5 Q22.55 18.55 21.6 14.3" fill="#a35d0d" fill-rule="evenodd" stroke="none"/>
  </g>
</svg>
