<?xml version="1.0" encoding="UTF-8" standalone="no"?>
<svg xmlns:xlink="http://www.w3.org/1999/xlink" height="127.35px" width="246.15px" xmlns="http://www.w3.org/2000/svg">
  <g transform="matrix(1.0, 0.0, 0.0, 1.0, 160.95, 198.65)">
    <path d="M9.8 -114.75 Q10.85 -109.35 9.35 -105.1 L8.5 -102.7 Q-15.95 -106.15 -36.0 -118.35 -34.9 -123.35 -31.75 -130.8 -12.35 -119.35 9.7 -115.1 L9.8 -114.75" fill="#ff0000" fill-rule="evenodd" stroke="none"/>
    <path d="M-44.7 -93.9 Q-34.0 -94.25 -23.15 -99.4 -15.15 -103.25 -4.25 -111.35 -11.35 -90.4 -44.9 -81.95 L-44.7 -93.9" fill="#ff0000" fill-rule="evenodd" stroke="none"/>
    <path d="M-13.35 -96.35 Q-9.3 -100.8 -6.8 -105.4 -4.65 -109.3 -4.95 -110.55 -2.0 -100.55 -8.75 -90.7 -15.65 -80.7 -32.4 -71.3 L-40.85 -81.25 Q-24.9 -83.8 -13.35 -96.35" fill="#ff0000" fill-rule="evenodd" stroke="none"/>
    <path d="M71.95 -129.85 Q66.9 -124.45 57.45 -121.3 27.25 -111.15 -36.15 -126.75 -82.4 -138.25 -103.6 -151.8 -120.55 -162.65 -120.8 -174.4 -120.9 -182.8 -112.7 -190.75 -110.15 -193.25 -107.0 -195.45 L-104.45 -197.1 Q-108.4 -190.4 -105.1 -182.65 -102.0 -175.3 -92.8 -167.55 -74.85 -152.45 -41.95 -140.55 -8.6 -128.45 22.5 -126.2 57.0 -123.6 75.05 -134.6 74.45 -132.55 71.95 -129.85" fill="#ffffff" fill-rule="evenodd" stroke="none"/>
    <path d="M40.0 -105.9 Q57.4 -109.45 71.65 -116.6 78.85 -120.15 82.6 -123.0 79.45 -119.05 72.95 -114.1 60.0 -104.15 42.85 -99.0 18.85 -91.75 -9.9 -95.1 -45.85 -99.35 -87.25 -119.95 -118.85 -135.7 -130.1 -151.55 -139.2 -164.25 -134.85 -176.45 -131.8 -185.15 -122.4 -192.8 L-116.25 -197.1 -113.6 -198.65 -115.55 -196.9 -120.05 -191.85 Q-126.7 -183.25 -128.05 -174.25 -129.95 -161.65 -120.7 -150.0 -109.25 -135.4 -81.1 -123.2 -45.15 -107.45 -11.35 -103.85 15.6 -100.95 40.0 -105.9" fill="#ffffff" fill-rule="evenodd" stroke="none"/>
    <path d="M-107.45 -133.3 Q-109.95 -134.3 -113.05 -134.45 -116.2 -134.55 -118.4 -133.7 -120.55 -132.85 -120.25 -131.4 -120.05 -129.95 -117.35 -128.85 -114.7 -127.75 -111.3 -127.7 -108.0 -127.65 -106.05 -128.6 -104.1 -129.55 -104.6 -130.95 -105.0 -132.3 -107.45 -133.3 M-74.15 -115.45 L-110.1 -123.25 -154.95 -112.05 -130.55 -131.7 -150.1 -146.8 -113.95 -137.9 -88.6 -141.7 -96.25 -130.6 -74.15 -115.45" fill="#555c72" fill-rule="evenodd" stroke="none"/>
    <path d="M-107.45 -133.3 Q-105.0 -132.3 -104.6 -130.95 -104.1 -129.55 -106.05 -128.6 -108.0 -127.65 -111.3 -127.7 -114.7 -127.75 -117.35 -128.85 -120.05 -129.95 -120.25 -131.4 -120.55 -132.85 -118.4 -133.7 -116.2 -134.55 -113.05 -134.45 -109.95 -134.3 -107.45 -133.3 M-74.15 -115.45 L-110.1 -123.25 -154.95 -112.05 -130.55 -131.7 -150.1 -146.8 -113.95 -137.9 -88.6 -141.7 -96.25 -130.6 -74.15 -115.45" fill="none" stroke="#191c1e" stroke-linecap="square" stroke-linejoin="round" stroke-width="9.0"/>
    <path d="M59.75 -103.1 Q59.2 -103.8 57.7 -104.25 L54.85 -104.7 52.6 -104.25 Q51.85 -103.8 52.2 -103.1 52.6 -102.4 54.05 -101.85 55.55 -101.3 57.2 -101.3 58.9 -101.3 59.65 -101.85 60.35 -102.4 59.75 -103.1 M79.2 -103.15 L64.5 -100.25 68.1 -85.95 51.6 -100.25 32.8 -103.05 49.1 -105.45 50.8 -110.5 59.65 -105.45 79.2 -103.15" fill="#555c72" fill-rule="evenodd" stroke="none"/>
    <path d="M59.75 -103.1 Q60.35 -102.4 59.65 -101.85 58.9 -101.3 57.2 -101.3 55.55 -101.3 54.05 -101.85 52.6 -102.4 52.2 -103.1 51.85 -103.8 52.6 -104.25 L54.85 -104.7 57.7 -104.25 Q59.2 -103.8 59.75 -103.1 M79.2 -103.15 L64.5 -100.25 68.1 -85.95 51.6 -100.25 32.8 -103.05 49.1 -105.45 50.8 -110.5 59.65 -105.45 79.2 -103.15" fill="none" stroke="#191c1e" stroke-linecap="square" stroke-linejoin="round" stroke-width="9.0"/>
    <path d="M-107.45 -133.3 Q-109.95 -134.3 -113.05 -134.45 -116.2 -134.55 -118.4 -133.7 -120.55 -132.85 -120.25 -131.4 -120.05 -129.95 -117.35 -128.85 -114.7 -127.75 -111.3 -127.7 -108.0 -127.65 -106.05 -128.6 -104.1 -129.55 -104.6 -130.95 -105.0 -132.3 -107.45 -133.3 M-74.15 -115.45 L-110.1 -123.25 -154.95 -112.05 -130.55 -131.7 -150.1 -146.8 -113.95 -137.9 -88.6 -141.7 -96.25 -130.6 -74.15 -115.45" fill="#555c72" fill-rule="evenodd" stroke="none"/>
    <path d="M59.75 -103.1 Q59.2 -103.8 57.7 -104.25 L54.85 -104.7 52.6 -104.25 Q51.85 -103.8 52.2 -103.1 52.6 -102.4 54.05 -101.85 55.55 -101.3 57.2 -101.3 58.9 -101.3 59.65 -101.85 60.35 -102.4 59.75 -103.1 M79.2 -103.15 L64.5 -100.25 68.1 -85.95 51.6 -100.25 32.8 -103.05 49.1 -105.45 50.8 -110.5 59.65 -105.45 79.2 -103.15" fill="#555c72" fill-rule="evenodd" stroke="none"/>
  </g>
</svg>
