<?xml version="1.0" encoding="UTF-8" standalone="no"?>
<svg xmlns:xlink="http://www.w3.org/1999/xlink" height="71.65px" width="64.7px" xmlns="http://www.w3.org/2000/svg">
  <g transform="matrix(1.0, 0.0, 0.0, 1.0, 21.65, 12.25)">
    <path d="M5.15 -11.0 Q24.15 -15.1 39.4 -5.7 L43.05 4.4 Q34.95 2.8 26.65 2.6 10.05 2.15 9.1 9.1 8.15 16.05 9.1 21.85 9.6 24.8 10.3 26.3 13.6 30.95 16.7 37.0 L19.15 42.15 13.0 47.75 9.7 34.95 Q11.25 46.2 14.15 56.1 L5.65 59.4 2.7 56.15 -4.95 58.8 -9.7 55.75 -15.8 56.25 Q-22.5 44.3 -21.5 27.3 -20.75 14.55 -16.25 2.75 -14.55 -1.75 -8.7 -5.5 -2.85 -9.25 5.15 -11.0" fill="#bf7926" fill-rule="evenodd" stroke="none"/>
    <path d="M5.15 -11.0 Q14.2 -12.95 22.45 -11.8 L21.15 2.7 Q16.0 3.0 13.05 4.4 9.5 6.0 9.1 9.1 8.15 16.05 9.1 21.85 9.6 24.8 10.3 26.3 L10.45 26.5 11.25 27.7 11.4 27.9 11.45 27.95 Q10.15 30.75 8.55 32.6 6.4 29.2 4.75 23.55 4.95 31.55 3.55 39.55 -2.6 34.6 -5.85 27.65 -4.6 36.5 -6.75 45.15 -12.1 40.05 -14.7 32.65 -14.9 40.15 -17.45 45.65 L-21.0 40.45 Q-21.9 34.3 -21.5 27.3 -20.75 14.55 -16.25 2.75 -14.55 -1.75 -8.7 -5.5 -2.85 -9.25 5.15 -11.0" fill="#70381f" fill-rule="evenodd" stroke="none"/>
    <path d="M5.15 -11.0 Q24.15 -15.1 39.4 -5.7 L43.05 4.4 Q34.95 2.8 26.65 2.6 10.05 2.15 9.1 9.1 8.15 16.05 9.1 21.85 9.6 24.8 10.3 26.3 L13.55 31.35 Q-4.1 32.7 -21.3 37.9 -21.85 32.85 -21.5 27.3 -20.75 14.55 -16.25 2.75 -14.55 -1.75 -8.7 -5.5 -2.85 -9.25 5.15 -11.0" fill="#fff6ec" fill-rule="evenodd" stroke="none"/>
  </g>
</svg>
