<?xml version="1.0" encoding="UTF-8" standalone="no"?>
<svg xmlns:xlink="http://www.w3.org/1999/xlink" height="29.6px" width="34.05px" xmlns="http://www.w3.org/2000/svg">
  <g transform="matrix(1.0, 0.0, 0.0, 1.0, 0.0, -34.45)">
    <path d="M1.65 34.85 L1.75 34.55 2.0 34.45 2.2 34.55 2.25 34.65 2.2 34.8 2.05 34.95 1.9 35.0 1.65 34.85 M0.9 36.9 L0.85 37.0 1.0 37.05 1.05 37.1 1.05 37.2 1.05 37.25 1.0 37.35 0.95 37.4 0.9 37.45 0.8 37.5 0.55 37.3 Q0.5 37.15 0.6 37.05 L0.55 36.9 Q0.55 36.75 0.7 36.75 0.9 36.75 0.9 36.9 M2.25 35.7 Q2.25 35.55 2.4 35.55 L2.55 35.7 2.4 35.85 2.25 35.7 M2.45 36.9 L2.4 36.7 2.5 36.6 2.65 36.8 2.5 36.9 2.45 36.9 M3.75 36.4 L3.7 36.25 3.7 36.2 3.85 36.2 3.9 36.3 3.8 36.4 3.75 36.4 M6.3 42.3 L6.5 42.2 6.7 42.25 6.75 42.3 6.75 42.4 6.75 42.45 6.7 42.55 6.65 42.6 6.5 42.65 6.3 42.5 6.3 42.3 M6.75 43.2 L6.85 43.05 Q7.1 42.9 7.25 43.15 L7.3 43.3 7.3 43.4 7.3 43.5 7.25 43.55 7.15 43.65 7.0 43.7 6.85 43.65 6.8 43.55 6.75 43.5 6.7 43.35 6.7 43.25 6.75 43.2 M2.75 37.7 L2.6 37.85 2.45 37.7 Q2.45 37.55 2.6 37.55 L2.75 37.7 M1.6 38.6 L1.4 38.8 1.2 38.5 Q1.2 38.35 1.4 38.35 L1.6 38.6 M1.45 37.15 L1.5 37.1 1.6 37.15 1.55 37.3 1.45 37.3 1.45 37.15 M0.55 38.3 L0.35 38.35 0.3 38.2 0.45 38.15 0.55 38.3 M0.7 39.25 L0.7 39.55 0.85 39.9 0.95 40.15 0.9 40.3 0.85 40.35 0.8 40.45 0.7 40.5 0.6 40.6 0.65 40.65 0.75 40.8 0.75 40.85 0.95 40.9 1.05 40.95 1.15 41.15 1.2 41.4 1.2 41.55 1.25 41.6 1.5 41.55 1.7 41.5 1.9 41.6 1.95 41.65 1.95 41.7 1.95 41.8 1.95 41.85 1.85 42.0 1.8 42.1 1.75 42.15 1.65 42.2 1.6 42.25 1.5 42.25 1.35 42.2 1.25 42.2 1.2 42.25 1.1 42.25 1.2 42.3 1.35 42.55 1.35 42.75 1.3 42.9 1.45 43.0 1.7 42.85 2.4 42.75 2.6 42.95 2.6 43.0 2.6 43.15 2.55 43.3 2.55 43.35 2.45 43.5 2.4 43.5 2.3 43.55 2.2 43.55 1.95 43.6 1.9 43.65 1.8 43.7 1.85 43.8 1.85 44.15 1.8 44.2 1.7 44.3 1.9 44.35 1.95 44.4 1.95 44.5 1.95 44.55 1.95 44.65 1.85 44.8 1.7 44.85 1.45 44.65 Q1.4 44.5 1.5 44.4 L1.4 44.35 1.4 44.45 1.4 44.55 1.35 44.6 1.3 44.7 1.25 44.7 1.75 45.1 2.0 45.6 1.9 46.05 1.6 46.35 1.5 46.35 1.75 47.05 2.15 47.3 2.35 47.05 2.5 47.05 2.65 47.1 2.8 47.25 2.85 47.4 2.85 47.45 2.85 47.55 2.85 47.65 2.85 47.7 2.8 47.75 2.75 47.85 2.8 48.05 2.8 48.1 2.8 48.2 2.75 48.25 2.7 48.35 2.65 48.35 2.75 48.55 2.8 48.9 Q3.05 48.75 3.25 48.75 L3.2 48.65 3.15 48.6 3.1 48.55 3.05 48.45 3.05 48.35 3.15 48.25 3.3 48.1 3.35 48.0 3.4 47.95 3.6 47.85 3.9 47.95 3.95 48.0 3.95 48.1 3.95 48.15 3.9 48.25 3.85 48.3 3.7 48.35 3.7 48.45 3.7 48.5 3.7 48.6 3.65 48.65 3.55 48.75 3.4 48.75 3.5 48.8 3.8 48.9 3.85 49.0 3.85 49.05 3.9 49.15 3.9 49.25 3.9 49.35 3.9 49.45 3.85 49.5 3.8 49.6 3.7 49.65 3.5 49.7 3.3 49.75 3.2 49.7 3.8 50.6 3.85 50.6 3.85 50.45 3.9 50.25 3.95 50.2 3.9 50.2 3.85 50.05 3.8 49.9 3.85 49.85 3.9 49.8 4.3 49.7 4.5 49.9 4.5 50.0 Q4.7 49.95 4.8 50.15 L4.9 50.3 4.9 50.45 4.8 50.7 4.6 50.9 4.4 51.05 4.3 51.05 4.2 51.05 4.15 51.05 4.55 51.55 5.0 51.85 5.05 51.95 5.4 52.0 5.5 52.0 5.55 51.95 5.55 51.9 5.6 51.8 5.65 51.7 5.8 51.65 6.0 51.6 6.2 51.65 Q6.4 51.8 6.4 52.1 L6.15 52.8 5.75 53.1 5.85 53.15 6.05 53.15 6.05 53.05 6.15 53.0 6.4 52.9 6.8 52.95 7.05 53.05 7.15 53.25 7.2 53.55 7.3 53.6 7.3 53.55 7.4 53.4 7.4 53.35 7.45 53.2 7.7 53.15 7.8 53.1 8.0 53.15 8.1 53.25 8.25 53.4 8.3 53.55 8.3 53.65 8.25 53.75 8.25 53.8 8.1 53.95 7.8 54.1 7.6 54.05 7.5 53.95 7.4 53.9 7.4 53.95 7.35 54.05 7.2 54.15 7.15 54.1 7.15 54.15 6.95 54.4 7.0 54.45 7.2 54.3 7.55 54.25 7.65 54.35 7.75 54.45 7.75 54.5 7.75 54.6 7.95 54.75 8.05 54.85 8.05 54.95 8.05 55.05 8.05 55.1 8.05 55.2 8.05 55.25 7.95 55.35 7.9 55.4 9.55 56.85 9.55 56.8 9.6 56.75 9.65 56.7 9.8 56.55 9.75 56.5 9.7 56.35 9.7 56.25 9.75 56.2 9.85 56.05 10.0 56.0 9.9 55.85 9.9 55.75 9.9 55.65 10.0 55.6 10.35 55.65 10.4 55.95 10.35 56.05 10.2 56.1 10.25 56.15 10.3 56.3 10.3 56.4 10.3 56.5 10.25 56.55 10.35 56.65 10.4 56.75 10.4 56.85 10.5 57.0 10.6 57.2 10.55 57.35 10.55 57.45 10.75 57.3 10.7 57.25 10.65 57.15 10.6 57.1 10.65 57.0 10.7 56.95 10.9 56.85 11.2 56.95 11.25 57.0 11.25 57.1 11.25 57.15 11.2 57.2 11.3 57.25 11.5 57.3 11.5 57.25 11.4 57.1 11.35 56.95 11.35 56.9 11.4 56.85 11.6 56.7 11.95 56.8 12.0 56.95 12.0 57.05 12.1 57.1 12.3 57.2 12.35 57.25 12.35 57.3 12.35 57.4 12.35 57.45 12.25 57.6 12.2 57.6 12.1 57.65 11.9 57.45 11.85 57.3 11.8 57.35 11.7 57.4 11.55 57.35 11.65 57.45 11.75 57.6 11.75 57.9 11.7 58.0 11.8 58.0 12.0 58.05 12.1 58.15 12.15 58.2 12.2 58.35 12.2 58.4 12.2 58.5 12.15 58.65 12.65 58.95 12.75 58.9 13.05 58.85 13.15 59.05 13.2 59.2 13.45 59.35 Q14.1 58.85 14.9 59.6 L14.95 59.5 Q15.2 59.3 15.5 59.25 L15.95 59.3 16.05 59.4 16.1 59.5 16.15 59.55 16.2 59.6 16.25 59.75 16.3 59.75 16.5 59.6 16.75 59.55 16.8 59.65 16.85 59.75 16.85 59.85 16.8 59.95 16.75 60.0 16.7 60.1 16.6 60.15 16.5 60.15 16.35 60.05 16.35 60.15 16.3 60.25 16.55 60.4 16.6 60.45 16.65 60.55 16.65 60.65 16.6 60.8 17.45 61.2 17.45 61.1 17.5 61.05 17.65 60.9 17.9 60.7 18.1 60.6 18.3 60.65 18.4 60.75 18.45 60.8 18.45 60.85 18.5 60.95 18.5 61.0 18.5 61.1 18.45 61.15 18.45 61.25 18.4 61.4 18.3 61.55 18.95 61.75 18.85 61.6 18.8 61.5 18.85 61.45 18.85 61.4 18.9 61.3 18.95 61.25 19.0 61.15 19.1 61.15 19.2 61.15 19.3 61.15 19.35 61.1 19.5 60.95 19.7 60.9 19.65 60.8 19.6 60.65 19.65 60.6 19.75 60.45 20.0 60.35 20.25 60.45 20.35 60.5 20.35 60.6 20.35 60.65 20.35 60.75 20.35 60.8 20.3 60.9 20.25 60.95 20.15 61.0 20.1 61.05 20.0 61.05 20.0 61.15 20.0 61.2 19.95 61.35 19.9 61.4 20.0 61.4 20.1 61.5 20.15 61.55 20.35 61.7 20.4 61.75 20.45 61.7 20.45 61.65 20.35 61.6 20.3 61.55 20.25 61.45 20.2 61.4 20.25 61.35 20.35 61.2 Q20.55 61.05 20.75 61.2 L20.9 61.3 20.9 61.35 20.9 61.45 20.85 61.5 20.9 61.6 21.0 61.85 20.9 62.15 20.7 62.25 20.6 62.15 20.6 62.25 20.85 62.3 21.0 62.3 21.35 62.4 21.4 62.3 21.5 62.25 21.65 62.2 21.6 62.15 21.6 62.1 21.55 62.2 21.4 62.25 21.2 62.1 21.1 61.9 21.15 61.7 21.25 61.55 21.4 61.5 21.65 61.65 21.9 61.55 22.35 61.65 22.45 61.8 22.45 62.1 22.4 62.25 22.75 62.4 22.7 62.25 22.65 62.15 22.7 62.1 22.7 62.0 22.75 61.95 22.85 61.85 23.0 61.8 23.15 61.8 23.3 62.0 23.35 62.15 23.35 62.35 23.2 62.5 23.1 62.5 23.0 62.5 22.85 62.45 22.75 62.4 22.9 62.55 23.0 62.75 23.6 62.85 23.65 62.85 23.7 62.75 23.8 62.7 23.85 62.6 23.95 62.55 24.0 62.45 24.0 62.4 24.0 62.3 24.0 62.2 24.05 62.15 24.1 62.1 24.1 62.0 24.3 62.0 24.55 62.1 24.65 62.2 24.8 62.25 Q25.05 62.3 25.15 62.45 L25.2 62.65 25.2 62.75 25.2 62.85 25.2 63.0 25.0 63.25 25.6 63.35 25.6 63.3 25.55 63.25 25.55 63.1 25.55 62.95 25.6 62.8 25.65 62.7 25.75 62.7 25.75 62.65 26.05 62.7 26.25 62.8 26.25 62.9 26.25 62.95 26.25 63.05 26.25 63.1 26.25 63.2 26.25 63.25 26.2 63.35 26.1 63.4 26.05 63.45 26.4 63.5 26.4 63.45 26.4 63.3 Q26.4 63.15 26.6 63.15 L26.7 63.15 27.0 62.8 27.35 62.8 27.45 62.85 27.5 62.95 27.85 63.15 27.85 63.25 27.9 63.25 28.1 63.2 28.35 63.3 28.4 63.35 28.4 63.45 28.4 63.5 28.35 63.65 28.25 63.75 28.75 63.8 28.9 63.95 29.0 64.05 0.05 64.05 0.05 39.85 0.1 39.8 0.05 39.55 0.05 39.15 0.1 39.05 0.2 39.0 0.4 39.0 0.65 39.1 0.7 39.25 M2.6 42.2 L2.8 41.95 Q3.0 41.95 3.0 42.1 L2.8 42.35 2.6 42.2 M4.75 42.0 L4.6 42.15 4.45 42.0 Q4.45 41.85 4.6 41.85 L4.75 42.0 M4.85 44.85 L4.85 44.9 4.85 45.0 4.75 45.05 4.7 45.1 4.6 45.15 4.4 45.0 Q4.3 44.9 4.35 44.8 L4.6 44.7 4.8 44.8 4.85 44.85 M2.85 44.7 L2.8 44.6 2.85 44.55 2.85 44.4 3.05 44.2 3.35 44.15 3.45 44.25 3.55 44.35 3.55 44.5 3.55 44.6 3.55 44.75 3.45 44.85 3.35 44.9 3.2 44.95 3.05 44.9 2.95 44.85 2.9 44.75 2.85 44.7 M2.65 45.3 L2.65 45.35 2.55 45.5 2.5 45.5 2.4 45.55 2.2 45.35 2.2 45.05 2.4 45.0 2.6 45.1 2.65 45.15 2.65 45.2 2.65 45.3 M3.1 45.8 L3.2 46.0 3.15 46.2 3.0 46.35 2.9 46.4 2.8 46.4 2.65 46.35 2.6 46.25 2.55 46.2 2.55 46.25 2.5 46.35 2.45 46.4 2.35 46.5 2.2 46.55 1.95 46.4 1.9 46.2 1.95 46.0 2.2 45.85 2.35 45.9 2.45 46.0 2.5 46.05 2.6 45.9 2.7 45.75 2.8 45.7 2.9 45.65 3.1 45.8 M0.9 44.1 L0.9 44.25 0.95 44.2 1.0 44.1 0.9 44.1 M3.65 47.15 L3.6 47.25 3.45 47.4 3.3 47.45 3.2 47.45 3.05 47.4 2.95 47.3 2.85 47.15 2.8 47.1 2.9 46.95 Q3.0 46.75 3.2 46.75 3.4 46.75 3.55 46.9 L3.65 47.0 3.65 47.1 3.65 47.15 M4.45 48.45 L4.35 48.4 4.3 48.3 4.3 48.15 4.3 48.1 4.35 48.05 4.5 47.9 4.85 48.0 4.9 48.15 4.9 48.2 4.9 48.3 4.85 48.35 4.7 48.5 4.6 48.5 4.45 48.45 M5.0 48.85 L4.95 48.8 5.0 48.75 5.05 48.65 5.1 48.6 5.2 48.6 5.35 48.6 5.4 48.7 5.45 48.85 5.5 49.0 5.45 49.1 5.3 49.2 5.2 49.15 5.1 49.1 5.05 49.0 5.0 48.85 M6.7 47.3 L7.05 47.3 7.15 47.6 7.1 47.75 7.0 47.8 6.9 47.75 6.8 47.75 6.7 47.7 6.6 47.6 6.55 47.45 6.55 47.4 6.7 47.3 M6.25 47.9 L6.25 48.0 6.15 48.05 6.1 48.1 6.0 48.15 5.75 47.95 5.75 47.65 6.0 47.55 6.25 47.6 6.3 47.7 6.3 47.75 6.3 47.85 6.25 47.9 M5.95 49.45 L5.95 49.5 5.95 49.6 5.95 49.65 5.85 49.8 5.8 49.8 5.7 49.85 5.5 49.65 5.5 49.35 5.7 49.3 5.9 49.4 5.95 49.45 M8.25 48.7 L8.1 48.75 7.95 48.7 7.9 48.65 7.85 48.55 7.8 48.5 7.75 48.4 7.8 48.35 7.85 48.2 8.25 48.15 8.4 48.25 8.4 48.35 8.4 48.4 8.35 48.55 8.25 48.7 M10.45 47.55 L10.3 47.6 10.15 47.5 10.1 47.3 10.2 47.15 10.45 47.15 10.5 47.25 10.5 47.35 10.5 47.4 10.5 47.5 10.45 47.55 M12.3 48.95 L12.45 49.1 12.3 49.25 12.15 49.1 Q12.15 48.95 12.3 48.95 M32.55 61.5 L32.7 61.3 Q32.9 61.3 32.95 61.45 L32.8 61.7 32.7 61.7 32.55 61.5 M20.6 52.5 L20.8 52.6 20.8 52.65 20.8 52.75 20.8 52.8 20.7 52.9 20.6 52.95 20.5 53.0 20.45 53.0 20.35 52.8 20.45 52.55 20.6 52.5 M22.4 53.15 L22.5 53.1 22.65 53.15 22.75 53.2 22.8 53.3 22.8 53.45 22.8 53.7 22.7 53.85 22.5 53.95 22.3 53.8 22.2 53.65 22.2 53.4 22.3 53.15 22.4 53.15 M23.65 54.6 L23.75 54.5 23.9 54.6 23.85 54.75 23.75 54.75 23.65 54.6 M23.0 56.6 L23.2 56.4 23.4 56.6 23.2 56.8 23.0 56.6 M23.95 58.5 L23.8 58.55 23.6 58.4 23.6 58.2 23.8 58.1 24.0 58.15 24.05 58.2 24.05 58.3 24.05 58.35 24.0 58.45 23.95 58.5 M21.7 60.3 L21.6 60.35 21.8 60.3 21.7 60.3 M21.9 60.05 L21.9 60.15 21.9 60.2 21.8 60.3 22.0 60.4 22.0 60.5 22.0 60.55 21.9 60.7 21.7 60.8 21.55 60.7 21.5 60.5 21.6 60.35 21.4 60.2 Q21.3 60.1 21.35 60.0 L21.6 59.9 21.85 59.95 21.9 60.05 M23.85 61.0 L24.1 60.9 24.3 61.0 24.35 61.05 24.35 61.1 24.35 61.2 24.25 61.25 24.2 61.3 24.1 61.35 23.9 61.2 23.85 61.0 M23.6 61.75 L23.85 61.8 23.95 61.9 24.0 62.05 23.95 62.1 23.9 62.2 23.85 62.25 23.8 62.25 23.7 62.3 23.55 62.25 23.5 62.15 23.45 62.1 23.4 61.95 23.45 61.85 23.5 61.8 23.6 61.75 M26.6 60.3 L26.55 60.35 26.4 60.4 26.25 60.3 26.2 60.1 26.3 59.95 26.55 59.95 26.6 60.05 26.6 60.15 26.6 60.2 26.6 60.3 M26.0 61.1 L25.95 61.15 25.8 61.2 25.65 61.1 25.6 60.9 25.7 60.75 25.95 60.75 26.0 60.85 26.0 60.95 26.0 61.0 26.0 61.1 M25.8 61.7 L26.0 61.75 26.05 61.8 26.05 61.9 26.05 61.95 26.0 62.05 25.95 62.1 25.8 62.15 25.6 62.0 25.6 61.8 25.8 61.7 M27.55 61.35 L27.7 61.6 27.5 61.8 27.7 62.0 27.5 62.2 27.3 62.0 27.45 61.8 27.35 61.5 Q27.35 61.25 27.55 61.35 M29.6 62.6 L29.8 62.65 29.95 62.75 30.0 62.8 30.05 62.85 30.05 62.95 30.05 63.0 30.05 63.1 30.05 63.15 30.05 63.25 30.0 63.3 29.9 63.4 29.8 63.45 29.7 63.45 29.6 63.45 29.45 63.4 29.35 63.35 29.25 63.2 29.2 63.1 29.2 63.0 29.2 62.9 29.25 62.85 29.4 62.7 29.45 62.6 29.6 62.6 M27.65 63.6 L27.5 63.65 27.85 63.7 27.75 63.6 27.75 63.55 27.65 63.6 M22.0 62.55 L21.95 62.6 22.15 62.65 22.1 62.5 22.0 62.55 M33.5 62.7 L33.65 62.6 Q33.95 62.45 34.05 62.75 L34.05 62.85 33.95 63.0 33.8 63.05 33.65 63.0 33.6 62.95 33.55 62.85 33.5 62.8 33.5 62.7 M32.05 63.05 L32.1 63.0 32.2 62.95 32.45 63.0 32.55 63.1 32.6 63.25 32.55 63.3 32.5 63.4 32.45 63.45 32.4 63.45 32.3 63.5 32.15 63.45 32.1 63.35 32.05 63.3 32.0 63.15 32.05 63.05 M17.6 53.6 L17.85 53.6 17.9 53.65 17.95 53.75 18.0 53.75 18.2 53.9 18.0 54.15 17.85 54.1 17.8 54.15 17.7 54.15 17.5 54.0 17.45 53.75 17.6 53.6 M16.4 54.3 Q16.6 54.25 16.65 54.45 L16.65 54.5 16.65 54.6 16.6 54.65 16.55 54.75 16.5 54.8 16.4 54.8 16.15 54.65 16.25 54.35 16.4 54.3 M18.25 55.4 L18.15 55.25 18.15 55.1 18.2 55.0 18.25 55.0 18.4 54.95 18.65 55.0 18.75 55.1 18.8 55.25 18.8 55.3 18.8 55.4 18.75 55.45 18.65 55.55 18.5 55.6 18.35 55.55 18.25 55.4 M13.55 50.95 L13.6 51.05 13.6 51.15 13.6 51.2 13.6 51.3 13.55 51.35 13.4 51.4 13.25 51.3 13.2 51.1 13.3 50.95 13.55 50.95 M13.2 50.1 L13.0 50.3 12.8 50.1 13.0 49.9 13.2 50.1 M11.6 51.0 L11.5 51.1 11.45 51.1 11.4 51.0 11.2 51.2 11.05 51.0 Q11.05 50.85 11.2 50.85 L11.35 50.9 11.4 50.9 11.55 50.9 11.6 51.0 M10.65 49.8 L10.55 49.8 10.55 49.65 10.6 49.6 10.7 49.65 10.65 49.8 M12.35 54.0 Q12.65 53.85 12.75 54.15 L12.75 54.25 12.65 54.4 12.5 54.45 12.35 54.4 12.2 54.35 12.15 54.25 12.15 54.2 12.15 54.1 12.35 54.0 M11.25 54.9 L11.5 54.8 11.7 54.9 11.75 54.95 11.75 55.0 11.75 55.1 11.65 55.15 11.6 55.2 11.5 55.25 11.3 55.1 11.25 54.9 M14.95 56.0 L15.2 55.9 15.4 56.0 15.45 56.05 15.45 56.1 15.45 56.2 15.35 56.25 15.3 56.3 15.2 56.35 15.0 56.2 Q14.9 56.1 14.95 56.0 M12.9 56.95 L13.25 57.05 13.3 57.25 13.3 57.35 13.25 57.4 13.2 57.45 13.15 57.55 13.1 57.55 13.0 57.55 12.85 57.5 12.75 57.45 12.7 57.35 12.65 57.2 12.65 57.05 12.75 57.0 12.9 56.95 M12.9 57.75 L13.05 57.8 13.1 57.9 13.15 57.95 13.15 58.0 13.05 58.15 12.9 58.25 12.7 58.2 12.55 58.0 12.7 57.8 12.9 57.75 M15.15 58.5 L15.15 58.6 15.2 58.7 15.15 58.85 15.1 59.0 15.05 59.1 14.95 59.15 14.8 59.2 14.65 59.15 14.55 59.1 14.5 59.0 14.45 58.95 14.45 58.85 14.4 58.8 14.4 58.7 14.4 58.65 14.4 58.55 14.5 58.5 14.65 58.4 15.0 58.4 15.1 58.4 15.15 58.5 M19.2 58.05 L19.0 57.9 Q18.9 57.8 18.95 57.7 L19.2 57.6 19.4 57.7 19.45 57.75 19.45 57.8 19.45 57.9 19.35 57.95 19.3 58.0 19.2 58.05 M17.05 56.1 L17.05 56.25 16.95 56.3 16.85 56.15 16.85 56.05 17.05 56.1 M17.6 57.6 L17.6 57.65 17.55 57.7 17.5 57.8 17.45 57.85 17.4 57.85 17.3 57.9 17.2 57.9 17.05 57.85 17.0 57.75 16.95 57.7 16.9 57.55 16.95 57.45 17.0 57.4 17.05 57.35 17.1 57.35 17.2 57.3 17.3 57.3 17.45 57.35 17.55 57.45 17.6 57.6 M17.7 59.55 L17.7 59.65 17.7 59.7 17.7 59.85 17.65 59.9 17.7 59.9 17.95 59.9 18.05 59.95 18.1 60.05 18.15 60.1 18.15 60.2 18.15 60.25 18.15 60.35 18.15 60.4 18.1 60.5 18.05 60.55 17.95 60.6 17.9 60.65 17.8 60.65 17.7 60.65 17.55 60.6 17.4 60.55 17.3 60.4 17.25 60.3 17.3 60.2 17.35 60.1 17.25 60.05 17.15 59.95 17.1 59.9 17.0 59.75 17.0 59.65 17.05 59.6 17.15 59.45 Q17.35 59.3 17.55 59.45 L17.7 59.55 M15.55 60.2 L15.55 60.1 15.5 60.05 15.4 60.05 15.55 60.2 M19.85 59.55 L19.8 59.65 19.75 59.7 19.6 59.75 19.4 59.6 19.4 59.4 19.6 59.3 19.8 59.35 19.85 59.4 19.85 59.5 19.85 59.55 M7.95 51.75 L8.1 51.95 8.1 52.05 8.1 52.15 8.05 52.2 8.0 52.25 7.95 52.35 7.9 52.35 7.8 52.35 7.65 52.3 7.55 52.25 7.45 52.1 7.4 51.95 7.45 51.85 7.5 51.8 7.6 51.75 7.95 51.75 M9.4 52.25 L9.4 52.5 9.3 52.6 9.2 52.65 9.1 52.6 9.0 52.5 8.9 52.35 8.9 52.25 8.9 52.15 9.0 52.05 Q9.25 51.95 9.4 52.25 M9.95 53.1 L10.0 53.15 10.05 53.25 10.05 53.35 10.05 53.5 9.9 53.65 9.8 53.65 9.6 53.5 9.55 53.25 9.7 53.1 9.95 53.1 M9.75 54.9 L9.65 54.95 9.6 55.0 9.5 55.05 9.25 54.85 9.2 54.7 9.0 54.8 8.8 54.6 9.0 54.4 9.2 54.6 9.2 54.65 9.25 54.55 9.5 54.45 9.75 54.5 9.8 54.6 9.8 54.65 9.8 54.75 9.75 54.8 9.75 54.9 M9.2 56.15 L9.0 56.0 9.2 55.75 9.4 55.9 9.2 56.15" fill="#ecd26f" fill-rule="evenodd" stroke="none"/>
  </g>
</svg>
