<?xml version="1.0" encoding="UTF-8" standalone="no"?>
<svg xmlns:xlink="http://www.w3.org/1999/xlink" height="53.65px" width="75.75px" xmlns="http://www.w3.org/2000/svg">
  <g transform="matrix(1.0, 0.0, 0.0, 1.0, 37.45, 27.9)">
    <path d="M36.8 -1.05 Q28.8 -15.55 10.0 -21.95 -9.05 -28.4 -35.9 -25.45 L-35.9 -1.05 -35.9 23.35 Q-9.05 26.25 10.0 19.8 28.8 13.4 36.8 -1.05 Z" fill="none" stroke="#5d3c16" stroke-linecap="round" stroke-linejoin="round" stroke-width="3.0"/>
    <path d="M36.8 -1.05 Q28.8 13.4 10.0 19.8 -9.05 26.25 -35.9 23.35 L-35.9 -1.05 -35.9 -25.45 Q-9.05 -28.4 10.0 -21.95 28.8 -15.55 36.8 -1.05" fill="#d0a067" fill-rule="evenodd" stroke="none"/>
    <path d="M14.0 -20.45 L14.9 -20.05 7.95 -19.9 -10.45 -19.3 -28.4 -18.35 -35.9 -17.75 -35.9 -18.1 -29.4 -18.65 -25.4 -18.9 -3.15 -20.0 14.55 -20.45 14.0 -20.45 M10.4 -21.8 L11.15 -21.55 Q-12.55 -21.55 -35.9 -20.95 L-35.9 -21.35 -30.65 -21.45 -7.55 -21.75 10.4 -21.8 M19.7 -15.55 L17.2 -15.35 -5.5 -15.35 -11.65 -15.75 Q-12.7 -15.85 -12.1 -16.0 -8.6 -17.1 -1.1 -17.4 L-1.2 -17.4 -1.1 -17.45 -0.85 -17.45 0.25 -17.5 9.9 -17.35 9.95 -17.35 10.2 -17.3 10.7 -17.3 11.1 -17.25 11.25 -17.25 10.3 -17.2 9.9 -17.2 16.95 -16.5 Q20.35 -16.15 19.7 -15.55 M20.5 -17.3 L21.3 -16.85 16.2 -17.15 13.35 -17.35 Q0.3 -18.3 -11.65 -17.1 L-12.8 -16.9 -14.05 -16.6 -14.25 -16.55 -14.3 -16.5 -14.55 -16.5 -14.95 -16.5 -15.2 -16.5 -15.25 -16.45 -15.6 -16.45 -15.7 -16.4 -15.95 -16.4 Q-15.95 -16.35 -16.05 -16.35 L-16.5 -16.35 -16.5 -16.3 -16.7 -16.3 -16.8 -16.25 -17.2 -16.25 -17.4 -16.2 -18.0 -16.1 -18.25 -16.05 -18.45 -16.05 -18.7 -16.0 -21.25 -15.85 -35.9 -15.05 -35.9 -15.2 -18.9 -16.25 -17.6 -16.5 -14.95 -16.95 -14.25 -17.05 -13.85 -17.15 -13.15 -17.3 -11.25 -17.5 -10.95 -17.55 -10.7 -17.6 -10.45 -17.65 -9.75 -17.65 -8.05 -17.75 -7.7 -17.75 -7.25 -17.8 -7.1 -17.8 -6.9 -17.8 -6.7 -17.8 -3.55 -17.95 5.4 -18.05 7.95 -17.95 13.9 -17.7 18.25 -17.45 20.5 -17.3 M18.25 -15.75 L18.25 -15.85 18.25 -15.9 Q18.15 -15.9 18.15 -15.95 L15.25 -16.3 5.6 -17.1 -3.25 -16.9 -3.45 -16.9 -3.65 -16.85 -5.05 -16.6 -6.2 -16.55 -6.3 -16.5 -6.5 -16.5 -7.65 -16.45 -8.05 -16.4 -8.3 -16.3 -9.25 -16.15 -9.95 -16.05 -6.5 -15.8 Q6.1 -15.55 18.25 -15.75 M7.1 -22.85 L5.15 -22.85 -9.85 -22.65 -16.1 -22.55 -23.45 -22.45 -35.9 -22.45 -35.9 -22.6 -30.9 -22.65 -16.4 -22.85 -6.05 -23.1 6.5 -23.3 5.6 -23.25 7.1 -22.85 M18.95 -7.85 L12.1 -7.8 Q-4.2 -7.55 -20.6 -7.45 L-23.65 -7.45 -35.9 -7.45 -35.9 -7.65 -35.45 -7.65 -30.5 -7.7 -7.95 -7.85 12.85 -8.3 31.6 -8.5 31.95 -8.05 18.95 -7.85 M9.8 -16.3 L9.9 -16.2 9.95 -16.15 10.2 -16.1 10.2 -16.05 9.8 -15.95 9.05 -15.8 Q2.85 -15.55 -3.3 -15.85 L-3.75 -15.95 -4.05 -16.0 -4.2 -16.05 -4.25 -16.1 -4.25 -16.15 -4.2 -16.15 -3.85 -16.25 -3.55 -16.3 -3.3 -16.3 -3.25 -16.35 Q-3.15 -16.35 -3.15 -16.4 L-2.95 -16.45 -1.55 -16.55 1.1 -16.8 1.2 -16.85 1.35 -16.85 2.05 -16.9 2.45 -16.9 9.55 -16.35 9.8 -16.3 M8.65 -16.05 L8.75 -16.05 8.65 -16.1 8.6 -16.2 7.45 -16.35 4.65 -16.5 -0.7 -16.35 -0.9 -16.35 -1.7 -16.25 -2.65 -16.05 Q3.05 -15.8 8.65 -16.05 M25.7 -13.85 L26.05 -13.65 27.05 -13.6 -0.85 -14.0 -26.3 -14.2 -36.85 -13.95 -35.9 -14.0 -35.9 -14.3 Q-27.05 -14.65 -17.8 -14.5 L23.85 -13.9 25.7 -13.85 M33.2 4.4 L33.1 4.55 18.0 4.0 0.05 3.3 -26.8 2.05 -29.35 2.0 -29.55 1.95 -29.75 1.9 -30.1 1.85 -30.6 1.75 -30.85 1.7 -31.25 1.7 -31.35 1.65 -31.55 1.65 -31.55 1.6 -32.0 1.6 -32.1 1.55 -32.35 1.55 -32.4 1.55 -32.8 1.55 -32.9 1.5 -33.1 1.5 -33.5 1.45 -33.7 1.45 -33.8 1.4 -34.05 1.35 -35.3 1.1 -35.9 0.95 -35.9 0.55 -34.9 0.65 -34.25 0.8 -33.8 0.9 -33.1 1.05 -30.45 1.5 -29.15 1.7 -8.4 2.8 6.3 3.3 22.25 3.95 33.2 4.4 M33.9 2.4 L33.9 2.6 29.25 2.45 8.6 1.55 -19.6 -0.45 -35.9 -1.3 -35.9 -1.7 -36.3 -1.7 -22.65 -0.95 -18.6 -0.65 2.9 0.75 25.2 2.0 33.9 2.4 M33.9 -5.4 L33.9 -5.05 -18.7 -5.25 -19.3 -5.25 -35.9 -5.05 -35.9 -5.55 -26.4 -5.65 -4.05 -5.75 29.3 -5.5 33.9 -5.4 M27.65 -1.8 L25.75 -1.9 23.1 -1.95 12.5 -2.3 -7.7 -2.9 -35.9 -3.4 -35.9 -3.75 -17.35 -3.5 5.55 -2.85 27.65 -2.1 33.9 -1.95 33.9 -1.65 27.65 -1.8 M28.4 -11.65 L28.7 -11.4 7.15 -11.65 -22.9 -12.1 -35.9 -12.25 -35.9 -12.5 -34.05 -12.5 -15.25 -12.25 21.6 -11.75 28.4 -11.65 M30.15 -10.05 L27.1 -10.0 Q21.35 -9.95 16.0 -10.05 L-0.1 -10.5 -23.45 -11.4 -25.9 -11.45 -36.65 -11.35 -35.9 -11.4 -35.9 -11.8 -33.3 -11.85 -18.8 -11.45 -15.7 -11.35 -5.7 -10.85 -3.45 -10.8 1.55 -10.7 13.55 -10.35 29.95 -10.25 30.15 -10.05 M26.6 6.85 L19.15 6.55 1.55 5.9 Q-11.6 5.5 -25.2 5.8 L-36.85 5.95 -35.9 5.95 -35.9 5.7 -32.8 5.65 -13.95 5.45 Q-2.5 5.4 8.4 5.9 L27.1 6.8 31.05 6.9 30.9 7.0 31.5 7.05 26.6 6.85 M29.75 5.65 L32.05 5.75 31.9 5.95 13.6 5.2 -2.3 4.4 -21.7 3.75 -35.9 3.75 -35.9 3.5 -30.25 3.4 Q-18.5 3.3 -7.5 3.75 L2.6 4.35 7.2 4.65 29.75 5.65 M29.4 8.55 L28.85 9.05 20.9 8.6 3.1 7.25 -22.15 6.45 -24.55 6.5 -35.9 6.85 -35.9 6.65 -32.35 6.55 -29.25 6.45 -14.7 6.05 7.5 7.05 11.7 7.35 29.4 8.55 M23.25 12.95 Q13.85 12.85 4.1 12.9 L-28.7 12.65 -29.35 12.65 -35.9 12.65 -35.9 12.1 -21.6 12.2 0.35 12.4 23.4 12.6 24.4 12.6 24.0 12.95 23.25 12.95 M26.9 10.6 L27.05 10.6 26.85 10.8 19.25 10.6 11.55 10.5 -24.4 10.45 -27.45 10.45 -35.9 10.4 -35.9 10.05 -17.5 10.25 -12.55 10.3 11.45 10.35 Q19.25 10.4 26.9 10.6 M5.45 19.6 L5.25 19.6 5.2 19.55 5.1 19.55 5.1 19.5 4.95 19.5 4.9 19.45 4.8 19.45 4.75 19.4 4.6 19.4 4.55 19.35 4.45 19.35 4.2 19.3 4.15 19.3 4.1 19.25 4.0 19.2 3.45 19.0 2.95 18.75 Q-2.4 17.5 -8.25 18.55 L-9.55 18.7 -15.0 19.4 -26.75 20.45 -33.2 20.75 -34.95 20.8 -36.35 20.8 -35.9 20.8 -35.9 20.45 -28.1 20.1 -24.1 19.85 -10.5 18.4 -8.6 18.15 -5.85 17.85 -4.7 17.8 -0.7 17.85 0.7 18.0 0.8 18.0 0.9 18.05 0.95 18.05 1.15 18.1 1.3 18.1 2.1 18.2 2.45 18.25 2.5 18.3 2.65 18.3 2.8 18.35 3.65 18.6 3.9 18.7 4.1 18.8 4.45 18.95 5.6 19.35 6.2 19.6 9.15 20.05 8.75 20.2 7.25 20.0 6.1 19.85 6.0 19.8 5.95 19.75 5.8 19.7 5.5 19.6 5.45 19.6 M-35.9 -25.4 L-35.9 -25.5 -33.35 -25.75 Q-27.4 -25.8 -21.45 -26.0 L-15.7 -26.1 -15.45 -26.15 -12.45 -26.2 -8.8 -25.85 -19.2 -25.65 -24.6 -25.55 -24.9 -25.55 -35.9 -25.4 M20.75 14.95 L20.15 15.3 15.85 15.0 Q-1.5 14.0 -19.1 14.4 -28.05 14.7 -36.85 14.3 L-35.9 14.35 -35.9 14.1 -36.85 14.05 -32.45 14.15 -26.65 14.2 -16.95 14.15 -7.55 14.05 1.1 14.15 11.5 14.35 20.75 14.95 M9.1 16.95 L10.95 17.2 14.9 17.9 14.3 18.15 10.5 17.45 2.45 16.55 -5.85 16.0 -17.85 15.3 -24.45 15.35 -27.3 15.5 -36.3 15.85 -35.9 15.8 -35.9 15.45 -21.6 14.8 -11.15 15.2 -0.9 15.85 9.1 16.95 M-9.95 19.35 L-6.75 18.7 -6.9 18.7 -7.3 18.65 -7.25 18.65 -7.1 18.6 -6.85 18.6 -6.8 18.55 -6.75 18.55 -2.4 18.35 -1.95 18.4 -1.8 18.4 -1.75 18.45 -1.8 18.5 Q1.55 18.75 3.15 19.85 L2.95 20.05 0.2 20.5 -10.05 20.5 -11.2 20.3 Q-11.45 19.65 -9.95 19.35 M-10.5 20.05 Q-5.05 20.3 0.65 20.05 L2.2 19.8 1.9 19.65 1.45 19.55 1.3 19.45 1.1 19.4 0.65 19.3 0.55 19.3 0.5 19.25 0.0 19.2 -0.65 19.05 -0.75 19.0 -0.9 19.0 -4.8 18.75 -9.15 19.55 -10.45 19.9 -10.5 19.95 -10.5 20.0 -10.5 20.05 M-6.85 19.7 L-6.8 19.65 -6.75 19.6 -6.7 19.55 -6.6 19.5 Q-5.25 19.0 -3.35 19.0 L-3.25 19.0 -2.85 19.05 -2.8 19.1 -1.6 19.25 -1.0 19.4 -0.9 19.45 -0.9 19.5 -0.85 19.55 -0.7 19.55 -0.55 19.6 -0.4 19.65 -0.35 19.65 -0.35 19.7 -0.4 19.8 -0.45 19.85 -0.65 19.9 -0.85 20.0 Q-3.6 20.3 -6.4 20.05 L-6.7 19.9 -6.85 19.75 -6.85 19.7 M-6.2 19.8 Q-3.7 20.05 -1.1 19.75 L-1.55 19.6 -1.9 19.5 -1.95 19.5 -4.4 19.35 -5.65 19.5 -6.15 19.6 -6.2 19.7 -6.25 19.75 -6.2 19.8 M3.3 21.7 L4.1 21.7 -1.95 21.8 Q-14.8 22.4 -27.7 22.15 L-35.8 21.85 Q-30.0 21.75 -24.15 21.9 -18.55 22.1 -13.05 21.9 L4.9 21.4 4.45 21.4 3.3 21.7 M-35.9 2.0 Q-35.5 2.0 -35.9 2.1 L-35.9 2.0" fill="#8a5c28" fill-rule="evenodd" stroke="none"/>
    <path d="M27.9 -1.15 Q21.55 -11.75 6.7 -16.45 -8.3 -21.2 -29.5 -19.05 L-29.5 -1.15 -29.5 16.8 Q-8.3 18.95 6.7 14.2 21.55 9.5 27.9 -1.15 Z" fill="none" stroke="#5d3c16" stroke-linecap="round" stroke-linejoin="round" stroke-width="3.0"/>
    <path d="M27.9 -1.15 Q21.55 9.5 6.7 14.2 -8.3 18.95 -29.5 16.8 L-29.5 -1.15 -29.5 -19.05 Q-8.3 -21.2 6.7 -16.45 21.55 -11.75 27.9 -1.15" fill="#724c20" fill-rule="evenodd" stroke="none"/>
    <path d="M0.15 -13.0 L0.75 -13.0 1.15 -13.0 7.7 -12.55 7.85 -12.5 7.95 -12.4 8.05 -12.35 8.25 -12.3 8.25 -12.25 7.85 -12.1 7.2 -12.05 Q1.55 -11.75 -4.2 -12.1 L-4.6 -12.1 -4.8 -12.15 -4.95 -12.2 -5.05 -12.3 -5.05 -12.35 -4.95 -12.35 -4.65 -12.45 -4.35 -12.5 -4.2 -12.5 -4.1 -12.55 -4.0 -12.55 -3.8 -12.6 -2.5 -12.7 -0.1 -12.95 0.0 -13.0 0.15 -13.0 M2.85 -17.5 L3.75 -17.3 Q-13.0 -17.25 -29.55 -16.85 L-29.55 -17.2 -29.25 -17.2 -8.05 -17.45 2.85 -17.5 M11.65 -13.75 L13.8 -13.65 14.65 -13.2 13.8 -13.25 11.15 -13.4 Q-0.8 -14.3 -11.85 -13.2 L-12.85 -13.0 -14.0 -12.75 -14.2 -12.7 -14.3 -12.65 -14.45 -12.65 -14.85 -12.6 -15.05 -12.6 -15.15 -12.6 -15.45 -12.6 -15.55 -12.55 -15.75 -12.55 -15.85 -12.55 -16.25 -12.55 -16.25 -12.5 -16.45 -12.5 -16.5 -12.45 -16.9 -12.45 -17.05 -12.4 -17.65 -12.3 -17.85 -12.25 -18.05 -12.2 -18.25 -12.15 -20.6 -12.1 -29.55 -11.55 -29.55 -11.7 -18.45 -12.45 -17.3 -12.6 -14.85 -13.05 -14.2 -13.15 -13.85 -13.25 -13.2 -13.4 -11.45 -13.6 -11.2 -13.6 -10.9 -13.65 -10.75 -13.7 -10.05 -13.7 -8.5 -13.8 -8.2 -13.8 -7.75 -13.85 -7.65 -13.85 -7.45 -13.85 -7.25 -13.85 -4.35 -14.0 3.8 -14.1 6.2 -14.0 11.65 -13.75 M7.6 -16.15 L8.6 -15.8 6.2 -15.75 -10.75 -15.2 -27.2 -14.35 -29.55 -14.15 -29.55 -14.45 -28.1 -14.6 -24.45 -14.85 -4.0 -15.9 7.55 -16.15 7.6 -16.15 M23.65 4.4 L23.45 4.65 6.8 3.9 -19.1 2.05 -29.55 1.5 -29.55 1.15 -29.75 1.15 -21.85 1.6 -18.2 1.9 1.55 3.2 22.0 4.3 23.65 4.4 M24.3 0.85 L22.5 0.75 20.05 0.65 10.35 0.4 -8.2 -0.2 -29.55 -0.6 -29.55 -0.9 -17.0 -0.7 4.0 -0.15 24.3 0.55 26.8 0.65 26.6 0.95 24.3 0.85 M25.8 -2.55 L27.0 -2.55 27.25 -2.1 -18.25 -2.35 -18.85 -2.35 -29.55 -2.2 -29.55 -2.65 -25.35 -2.7 -4.8 -2.8 25.8 -2.55 M21.95 -8.25 L22.25 -8.05 5.45 -8.2 -22.15 -8.6 -29.55 -8.75 -29.55 -8.95 -15.15 -8.75 18.7 -8.3 21.95 -8.25 M0.25 -7.3 L11.3 -7.0 23.4 -6.9 23.6 -6.7 Q18.45 -6.65 13.55 -6.75 L-1.2 -7.15 -22.65 -8.0 -24.85 -8.05 -29.55 -8.05 -29.55 -8.35 -18.35 -8.05 -15.55 -7.95 -6.35 -7.5 -4.3 -7.4 0.25 -7.3 M16.3 -4.7 L10.0 -4.65 -20.05 -4.35 -22.85 -4.35 -29.55 -4.35 -29.55 -4.6 -29.1 -4.6 -8.4 -4.7 10.7 -5.1 24.9 -5.3 25.25 -4.9 16.3 -4.7 M19.4 -10.3 L19.7 -10.05 -1.9 -10.35 -25.3 -10.55 -29.55 -10.45 -29.55 -10.8 -17.4 -10.8 19.4 -10.3 M15.65 -12.0 L15.65 -12.1 15.55 -12.1 12.9 -12.5 4.05 -13.2 -4.1 -13.0 -4.3 -13.0 -4.45 -13.0 -5.8 -12.75 -6.8 -12.7 -6.85 -12.65 -7.1 -12.65 -8.15 -12.6 -8.5 -12.55 -8.75 -12.5 -9.6 -12.35 -10.3 -12.2 -7.1 -12.05 Q4.5 -11.75 15.65 -12.0 M7.95 -13.4 L8.25 -13.4 8.7 -13.4 9.05 -13.35 9.2 -13.35 8.3 -13.3 7.95 -13.3 14.45 -12.6 Q17.35 -12.35 17.05 -11.85 L16.95 -11.75 14.7 -11.6 -6.15 -11.6 -11.85 -12.0 Q-12.8 -12.1 -12.25 -12.15 -9.0 -13.2 -2.15 -13.45 L-2.25 -13.5 -2.15 -13.55 -1.9 -13.55 -0.9 -13.6 7.95 -13.4 M6.75 -12.4 L5.75 -12.55 3.2 -12.6 -1.8 -12.55 -1.95 -12.55 -2.7 -12.45 -3.55 -12.25 Q1.7 -12.05 6.85 -12.2 L6.9 -12.25 6.85 -12.3 6.75 -12.4 M21.55 6.4 L15.4 6.15 -1.1 5.5 -25.75 4.4 -28.05 4.3 -28.25 4.25 -28.4 4.2 -28.75 4.2 -29.25 4.1 -29.4 4.05 -29.55 4.05 -29.55 3.8 -29.05 3.85 -27.9 4.05 -8.85 5.05 4.65 5.5 19.3 6.1 21.75 6.25 21.55 6.4 M18.65 8.6 L16.45 8.5 0.3 7.9 Q-11.75 7.5 -24.25 7.8 L-29.55 7.95 -29.55 7.7 -30.4 7.7 -13.9 7.5 Q-3.4 7.45 6.6 7.9 L18.85 8.45 18.65 8.6 M12.15 12.15 L9.45 12.1 -23.5 12.1 -26.3 12.1 -29.55 12.1 -29.55 11.75 -17.2 11.9 -12.6 11.95 9.4 12.0 12.5 12.05 12.15 12.15 M16.05 10.25 L1.7 9.1 Q-9.25 8.3 -21.4 8.45 L-23.65 8.5 -29.55 8.65 -29.55 8.5 -27.95 8.45 -14.6 8.05 5.75 9.0 9.65 9.25 16.85 9.8 16.05 10.25 M-11.35 16.5 L-5.55 16.85 -7.85 17.05 -17.45 16.5 -23.55 16.55 -26.2 16.7 -29.25 16.85 -29.55 16.8 -29.55 16.5 -20.9 16.1 -11.35 16.5 M-29.55 -18.3 L-29.45 -18.3 Q-22.75 -18.25 -16.15 -18.5 L-6.7 -18.7 -3.55 -18.75 -1.45 -18.4 -10.15 -18.3 -15.9 -18.2 -22.65 -18.15 -29.55 -18.15 -29.55 -18.3 M1.85 15.55 L0.85 15.75 Q-8.85 15.5 -18.65 15.7 L-29.55 15.8 -29.55 15.55 -25.6 15.55 -16.65 15.5 -8.05 15.4 -0.15 15.5 1.85 15.55 M7.5 13.95 L6.75 14.2 6.4 14.3 2.65 14.3 -27.45 14.1 -28.05 14.1 -29.55 14.1 -29.55 13.65 -20.9 13.7 -0.8 13.9 7.5 13.95 M20.0 7.65 L11.35 7.3 -3.25 6.5 -21.0 5.95 -29.55 5.95 -29.55 5.6 -28.9 5.6 Q-18.1 5.5 -8.0 5.95 L1.25 6.45 5.5 6.75 20.25 7.45 20.0 7.65" fill="#5d3c16" fill-rule="evenodd" stroke="none"/>
    <path d="M-31.5 7.7 L20.35 7.7 M-30.1 -10.6 L18.6 -10.6" fill="none" stroke="#432a0d" stroke-linecap="square" stroke-linejoin="miter" stroke-miterlimit="3.0" stroke-width="1.0"/>
    <path d="M-14.25 17.45 L-4.25 16.65 -4.25 -18.9 -14.25 -19.7 -14.25 17.45 Z" fill="none" stroke="#5d3c16" stroke-linecap="round" stroke-linejoin="round" stroke-width="3.0"/>
    <path d="M-4.25 -18.9 L-4.25 16.65 -14.25 17.45 -14.25 -19.7 -4.25 -18.9" fill="#8a5c28" fill-rule="evenodd" stroke="none"/>
    <path d="M-29.2 23.95 L-35.95 23.35 -35.95 -1.1 -35.95 -25.5 -29.2 -26.05 -29.2 -1.1 -29.2 23.95 Z" fill="none" stroke="#5d3c16" stroke-linecap="round" stroke-linejoin="round" stroke-width="3.0"/>
    <path d="M-29.2 23.95 L-35.95 23.35 -35.95 -1.1 -35.95 -25.5 -29.2 -26.05 -29.2 -1.1 -29.2 23.95" fill="#d0a067" fill-rule="evenodd" stroke="none"/>
    <path d="M-32.8 -25.8 L-34.5 -15.6 Q-35.15 -11.7 -35.4 -7.55 L-35.95 0.7 -35.95 -1.1 -35.95 -5.95 -35.0 -14.25 -34.75 -16.05 Q-33.85 -20.8 -33.25 -25.7 L-33.25 -25.75 -32.8 -25.8 M-32.15 -11.15 L-32.2 -11.05 -32.25 -10.9 -32.35 -10.65 -32.35 -10.55 -32.35 -10.35 -32.4 -10.35 -32.4 -10.25 -32.45 -10.25 -32.45 -10.05 -32.5 -10.0 -32.5 -9.9 -32.55 -9.9 -32.55 -9.7 -32.6 -9.65 -32.6 -9.55 -32.65 -9.35 -32.65 -9.25 -32.7 -9.2 -32.75 -9.1 -32.95 -8.55 -33.2 -8.1 Q-34.45 -2.7 -33.4 3.15 L-33.25 4.45 -32.55 9.9 Q-31.9 15.65 -31.5 21.65 L-31.45 23.75 -31.8 23.75 -31.85 23.0 -32.1 19.0 Q-32.6 12.05 -33.55 5.4 L-33.8 3.45 -34.1 0.7 -34.15 -0.4 -34.1 -4.4 -33.95 -5.85 -33.95 -5.95 -33.9 -6.0 -33.9 -6.05 -33.85 -6.3 -33.85 -6.4 -33.75 -7.25 -33.7 -7.55 -33.7 -7.65 -33.65 -7.75 -33.6 -7.9 -33.35 -8.75 -33.25 -9.0 -33.15 -9.2 -33.0 -9.55 -32.6 -10.75 -32.35 -11.3 Q-31.6 -15.75 -31.2 -20.65 L-30.8 -25.95 -30.55 -26.0 -30.5 -26.45 -30.65 -24.35 Q-31.15 -18.25 -31.95 -12.4 L-32.1 -11.2 -32.15 -11.15 M-31.9 -8.1 Q-31.5 -6.8 -31.5 -5.3 L-31.5 4.95 Q-31.5 5.6 -31.65 6.05 -32.3 6.35 -32.6 4.85 L-33.25 1.6 -33.25 1.8 -33.3 2.2 -33.3 2.15 -33.35 2.0 -33.35 1.75 -33.4 1.65 -33.4 1.6 -33.6 -2.75 -33.55 -3.2 -33.55 -3.3 -33.5 -3.35 -33.45 -3.3 Q-33.2 -6.7 -32.1 -8.25 -31.95 -8.55 -31.9 -8.1 M-32.55 -6.25 L-32.65 -5.75 -32.65 -5.65 -32.7 -5.6 -32.75 -5.1 -32.9 -4.45 -32.95 -4.35 -32.95 -4.2 -33.2 -0.3 Q-33.0 2.0 -32.4 4.05 L-32.05 5.35 -32.0 5.4 -31.95 5.4 -31.9 5.4 Q-31.65 -0.1 -31.9 -5.75 -31.95 -6.6 -32.15 -7.3 L-32.3 -7.0 -32.4 -6.55 -32.5 -6.4 -32.55 -6.25 M-32.1 -4.65 L-32.05 -4.5 -31.95 -4.25 Q-31.65 -1.55 -31.9 1.25 L-32.05 1.55 -32.2 1.75 -32.25 1.75 -32.3 1.65 -32.35 1.6 -32.4 1.55 -32.45 1.5 Q-32.95 0.15 -32.95 -1.75 L-32.95 -1.9 -32.9 -2.25 -32.9 -2.3 -32.85 -2.35 -32.7 -3.5 -32.55 -4.15 -32.5 -4.2 -32.45 -4.2 -32.4 -4.25 -32.4 -4.4 -32.35 -4.6 -32.3 -4.7 -32.3 -4.75 -32.25 -4.75 -32.15 -4.7 -32.1 -4.65 M-32.45 -3.25 L-32.45 -3.15 Q-32.7 -2.05 -32.6 -0.7 L-32.45 0.55 -32.35 1.05 -32.25 1.1 -32.2 1.1 -32.15 1.1 Q-31.9 -1.45 -32.2 -4.0 L-32.35 -3.6 -32.45 -3.25 M-29.6 -26.05 L-29.25 -26.1 -29.65 -23.4 Q-30.25 -19.15 -30.3 -14.7 L-30.15 -3.2 Q-29.55 9.7 -29.8 22.6 L-29.8 23.9 -30.15 23.9 -30.05 19.05 Q-29.85 13.45 -30.05 7.95 L-30.6 -10.8 Q-30.7 -16.1 -30.3 -21.05 L-29.7 -25.55 -29.6 -26.05" fill="#8a5c28" fill-rule="evenodd" stroke="none"/>
  </g>
</svg>
