<?xml version="1.0" encoding="UTF-8" standalone="no"?>
<svg xmlns:xlink="http://www.w3.org/1999/xlink" height="43.85px" width="55.35px" xmlns="http://www.w3.org/2000/svg">
  <g transform="matrix(1.0, 0.0, 0.0, 1.0, -4.5, 13.85)">
    <path d="M50.3 -3.6 Q50.25 -4.25 49.5 -5.0 L51.05 -4.7 53.0 -4.0 Q52.5 -4.0 52.5 -2.5 L50.5 -2.5 50.3 -3.6" fill="#63899a" fill-rule="evenodd" stroke="none"/>
    <path d="M52.4 16.6 L57.0 15.25 56.85 16.6 55.5 16.6 52.4 16.6" fill="#639a77" fill-rule="evenodd" stroke="none"/>
    <path d="M38.5 7.15 L38.5 6.5 42.75 6.0 47.0 5.5 47.0 -7.0 Q46.0 -8.0 46.0 -9.5 L48.0 -9.8 49.0 -10.1 49.0 -8.5 52.5 -8.5 52.25 -9.75 52.05 -10.5 54.5 -10.5 54.5 -8.5 58.0 -8.5 57.75 -10.3 57.75 -10.5 59.55 -10.5 57.0 15.25 52.4 16.6 41.95 16.6 40.45 14.0 39.0 11.2 38.5 10.25 38.5 7.15 M50.3 -3.6 L50.5 -2.5 52.5 -2.5 Q52.5 -4.0 53.0 -4.0 L51.05 -4.7 49.5 -5.0 Q50.25 -4.25 50.3 -3.6" fill="#a3a3a3" fill-rule="evenodd" stroke="none"/>
    <path d="M59.55 -10.5 L57.75 -10.5 57.75 -10.3 58.0 -8.5 54.5 -8.5 54.5 -10.5 52.05 -10.5 52.25 -9.75 52.5 -8.5 49.0 -8.5 49.0 -10.1 48.0 -9.8 46.0 -9.5 Q46.0 -8.0 47.0 -7.0 L47.0 5.5 42.75 6.0 38.5 6.5 38.5 7.15 36.8 6.5 32.75 5.0 Q32.35 5.0 29.8 6.5 L27.25 8.0 Q26.75 8.0 17.75 4.0 16.35 4.0 9.85 7.75 L8.0 8.8 4.5 -13.85 59.85 -13.85 59.55 -10.5" fill="#10a1e2" fill-rule="evenodd" stroke="none"/>
    <path d="M38.5 7.15 L38.5 10.25 39.0 11.2 40.45 14.0 41.95 16.6 9.2 16.6 8.0 8.8 9.85 7.75 Q16.35 4.0 17.75 4.0 26.75 8.0 27.25 8.0 L29.8 6.5 Q32.35 5.0 32.75 5.0 L36.8 6.5 38.5 7.15" fill="#00c648" fill-rule="evenodd" stroke="none"/>
    <path d="M7.5 24.5 L6.9 24.5 7.9 9.5 57.45 9.5 58.95 24.5 7.5 24.5" fill="#986e3a" fill-rule="evenodd" stroke="none"/>
    <path d="M58.95 24.5 L57.95 30.0 7.9 30.0 7.5 24.5 58.95 24.5" fill="#58360c" fill-rule="evenodd" stroke="none"/>
    <path d="M44.6 12.3 L44.55 12.4 44.45 12.7 Q44.35 12.7 44.3 12.8 L44.25 12.9 44.3 13.05 44.45 13.2 44.55 13.3 44.65 13.3 44.75 13.25 44.8 13.2 45.1 13.45 45.15 13.95 44.85 14.2 44.5 14.25 Q43.55 13.95 43.45 13.75 43.3 13.5 43.3 12.85 43.3 12.1 43.8 11.65 L43.85 11.6 Q44.35 10.95 45.3 10.95 46.7 10.95 47.25 11.55 L47.3 11.6 47.35 11.6 Q47.95 12.1 47.95 13.65 48.0 15.2 46.4 16.4 44.85 17.4 42.45 17.4 37.45 17.4 34.85 15.1 L34.65 14.7 Q34.65 14.45 34.8 14.3 34.95 14.1 35.15 14.1 L35.6 14.25 Q37.95 16.3 42.45 16.3 44.45 16.3 45.75 15.5 L45.8 15.45 Q46.8 14.7 46.85 13.65 46.85 12.7 46.55 12.4 L46.55 12.35 Q46.15 12.05 45.3 12.05 44.85 12.05 44.6 12.3 M44.6 12.8 L44.55 12.85 44.6 12.75 44.6 12.8" fill="#844806" fill-rule="evenodd" stroke="none"/>
    <path d="M44.6 12.3 Q44.85 12.05 45.3 12.05 46.15 12.05 46.55 12.35 L46.55 12.4 Q46.85 12.7 46.85 13.65 46.8 14.7 45.8 15.45 L45.75 15.5 Q44.45 16.3 42.45 16.3 37.95 16.3 35.6 14.25 L35.15 14.1 Q34.95 14.1 34.8 14.3 34.65 14.45 34.65 14.7 L34.85 15.1 Q37.45 17.4 42.45 17.4 44.85 17.4 46.4 16.4 48.0 15.2 47.95 13.65 47.95 12.1 47.35 11.6 L47.3 11.6 47.25 11.55 Q46.7 10.95 45.3 10.95 44.35 10.95 43.85 11.6 L43.8 11.65 Q43.3 12.1 43.3 12.85 43.3 13.5 43.45 13.75 43.55 13.95 44.5 14.25 L44.85 14.2 45.15 13.95 45.1 13.45 44.8 13.2 44.75 13.25 44.65 13.3 44.55 13.3 44.45 13.2 44.3 13.05 44.25 12.9 44.3 12.8 Q44.35 12.7 44.45 12.7 L44.55 12.4 44.6 12.3 M43.5 11.3 L43.6 11.25 Q44.2 10.55 45.3 10.55 46.9 10.55 47.55 11.3 L47.55 11.25 47.6 11.3 Q48.35 11.9 48.35 13.65 48.4 15.4 46.65 16.7 L46.6 16.75 Q44.95 17.8 42.45 17.8 37.25 17.8 34.6 15.4 L34.55 15.4 Q34.25 15.1 34.25 14.7 34.25 14.35 34.5 14.05 34.75 13.7 35.15 13.7 L35.85 13.95 Q38.15 15.9 42.45 15.9 44.35 15.9 45.55 15.15 46.4 14.5 46.45 13.65 L46.25 12.65 46.3 12.7 45.3 12.45 Q45.1 12.45 44.95 12.6 L44.85 12.7 44.8 12.8 44.95 12.85 44.9 12.8 45.45 13.25 45.55 14.0 45.55 14.05 45.05 14.55 44.35 14.65 Q43.2 14.25 43.1 13.95 L42.9 12.85 Q42.9 11.9 43.5 11.3 M44.6 12.75 L44.55 12.85 44.6 12.8 44.65 12.8 44.6 12.75" fill="#000000" fill-rule="evenodd" stroke="none"/>
    <path d="M30.7 4.95 L31.4 5.15 32.8 5.2 Q36.0 5.2 36.4 2.65 36.6 1.4 37.85 0.9 39.0 0.5 39.0 -1.05 39.0 -2.3 38.05 -3.1 37.1 -3.85 35.75 -3.85 L34.35 -3.6 32.9 -3.0 32.3 -3.55 Q33.65 -4.4 35.35 -4.4 37.75 -4.4 39.45 -2.7 L40.05 -2.0 40.25 -2.2 Q40.65 -2.6 40.65 -2.9 L41.45 -2.1 40.45 -1.4 40.05 -2.0 40.45 -1.4 40.75 -0.85 42.3 -1.45 42.35 -1.4 42.35 -1.1 Q42.4 -0.1 42.0 0.0 L41.05 -0.05 41.2 1.45 Q42.4 1.45 42.3 3.75 41.35 5.9 39.9 5.1 L39.45 5.55 37.8 6.8 35.35 7.3 32.95 6.8 33.2 6.4 32.1 6.3 31.2 5.55 30.7 4.95 M43.95 11.5 Q43.55 12.1 41.65 12.95 L41.65 11.0 Q42.8 9.95 43.95 11.5 M37.8 17.0 L39.0 18.9 37.5 19.4 36.45 17.6 37.8 17.0 M32.6 16.95 L32.3 18.3 31.05 18.4 31.5 16.65 32.6 16.95 M25.85 7.5 L23.65 4.65 23.7 4.6 23.7 4.45 25.4 3.95 27.45 5.5 Q27.5 7.6 25.85 7.5 M39.9 -1.8 L39.85 -1.8 39.85 -1.75 39.9 -1.8 M41.05 -0.05 L40.75 -0.85 41.05 -0.05 M40.6 2.25 Q39.8 2.25 39.8 3.3 39.8 3.6 40.3 3.8 L40.65 3.95 40.85 3.95 Q41.1 3.95 41.35 3.65 L41.6 3.1 41.55 2.7 41.35 2.5 41.2 2.4 41.15 2.35 40.6 2.25 M39.4 4.7 L39.9 5.1 39.4 4.7 M40.15 1.75 L41.2 1.45 40.15 1.75" fill="#844806" fill-rule="evenodd" stroke="none"/>
    <path d="M18.35 1.95 L18.05 0.65 19.05 2.45 18.85 0.45 19.85 0.55 20.05 2.65 20.95 2.95 21.25 1.05 22.25 1.25 22.25 2.35 22.25 3.45 24.35 3.25 25.25 3.85 25.4 3.95 23.7 4.45 23.6 4.35 23.45 4.3 22.35 4.65 19.05 3.8 18.6 2.1 18.5 2.0 18.35 1.95 M29.75 -0.2 L29.9 -0.05 30.4 0.15 30.9 -0.05 31.35 -0.55 30.9 -0.05 30.4 0.15 29.9 -0.05 29.75 -0.2 Q30.15 -1.6 31.2 -2.7 L32.3 -3.55 32.9 -3.0 34.35 -3.6 35.75 -3.85 Q37.1 -3.85 38.05 -3.1 39.0 -2.3 39.0 -1.05 39.0 0.5 37.85 0.9 36.6 1.4 36.4 2.65 36.0 5.2 32.8 5.2 L31.4 5.15 30.7 4.95 Q29.5 3.45 29.5 1.45 29.5 0.55 29.75 -0.2 M41.65 12.95 L39.7 12.55 38.85 13.2 37.75 12.5 37.75 12.45 38.3 12.1 37.85 11.45 38.2 10.7 38.2 10.65 38.55 9.85 38.75 9.95 39.05 10.3 39.45 10.25 39.85 10.3 40.4 10.7 41.65 11.0 41.65 12.95 M40.6 2.25 L41.15 2.35 41.2 2.4 41.35 2.5 41.55 2.7 41.6 3.1 41.35 3.65 Q41.1 3.95 40.85 3.95 L40.65 3.95 40.3 3.8 Q39.8 3.6 39.8 3.3 39.8 2.25 40.6 2.25 M32.55 2.6 Q32.35 1.55 31.7 1.35 L31.45 1.3 Q31.1 1.45 31.1 1.85 L31.05 2.5 30.95 3.2 Q30.95 3.6 31.6 3.6 32.6 3.6 32.6 2.85 L32.55 2.6 M39.0 11.35 L38.5 12.2 38.55 12.15 Q39.15 11.75 39.0 11.35 M36.75 11.25 L37.45 9.65 38.35 9.95 37.75 11.45 36.75 11.25 M35.9 -0.25 Q35.6 0.15 34.95 0.15 34.05 0.15 33.8 -0.65 34.05 0.15 34.95 0.15 35.6 0.15 35.9 -0.25" fill="#c07714" fill-rule="evenodd" stroke="none"/>
    <path d="M25.45 -0.85 L25.15 0.15 Q24.9 0.55 24.5 0.55 L23.8 0.15 Q23.55 -0.25 23.55 -0.85 23.55 -1.45 23.8 -1.85 24.1 -2.25 24.5 -2.25 24.9 -2.25 25.15 -1.85 L25.45 -0.85 M18.3 2.0 L18.35 1.95 18.5 2.0 18.6 2.1 19.05 3.8 22.35 4.65 23.45 4.3 23.6 4.35 23.7 4.45 23.7 4.6 23.65 4.65 23.6 4.7 22.45 5.05 22.3 5.05 18.8 4.15 18.7 4.1 18.65 4.0 18.2 2.2 18.25 2.05 18.3 2.0 M32.55 2.6 L31.6 2.8 31.05 2.5 31.1 1.85 Q31.1 1.45 31.45 1.3 L31.7 1.35 Q32.35 1.55 32.55 2.6" fill="#000000" fill-rule="evenodd" stroke="none"/>
    <path d="M31.05 2.5 L31.6 2.8 32.55 2.6 32.6 2.85 Q32.6 3.6 31.6 3.6 30.95 3.6 30.95 3.2 L31.05 2.5" fill="#6d6d6d" fill-rule="evenodd" stroke="none"/>
    <path d="M22.25 2.35 L23.75 0.85 24.55 2.75 25.9 2.2 25.25 3.85 24.35 3.25 22.25 3.45 22.25 2.35" fill="#9a9a9a" fill-rule="evenodd" stroke="none"/>
    <path d="M25.45 -0.85 L25.15 -1.85 Q24.9 -2.25 24.5 -2.25 24.1 -2.25 23.8 -1.85 23.55 -1.45 23.55 -0.85 23.55 -0.25 23.8 0.15 L24.5 0.55 Q24.9 0.55 25.15 0.15 L25.45 -0.85 M18.3 2.0 L16.95 0.15 Q16.05 -2.65 18.25 -4.25 21.95 -5.9 25.05 -3.85 26.25 -2.35 26.05 -0.45 L26.65 0.65 26.15 2.25 25.9 2.2 24.55 2.75 23.75 0.85 22.25 2.35 22.25 1.25 21.25 1.05 20.95 2.95 20.05 2.65 19.85 0.55 18.85 0.45 19.05 2.45 18.05 0.65 18.35 1.95 18.3 2.0" fill="#d9d9d9" fill-rule="evenodd" stroke="none"/>
    <path d="M39.0 18.9 L39.45 18.75 40.05 20.85 Q42.95 22.55 41.65 23.35 39.9 24.25 38.55 22.05 L37.05 19.55 37.5 19.4 39.0 18.9 M32.3 18.3 L32.95 18.15 33.85 20.75 Q31.5 22.05 29.45 22.15 L29.35 21.05 31.25 20.05 30.8 19.2 30.35 18.45 31.05 18.4 32.3 18.3" fill="#931800" fill-rule="evenodd" stroke="none"/>
    <path d="M37.8 6.8 Q41.8 7.25 43.95 10.85 44.15 11.15 43.95 11.5 42.8 9.95 41.65 11.0 L40.4 10.7 39.85 10.3 39.45 10.25 39.05 10.3 38.75 9.95 38.55 9.85 38.2 10.65 38.2 10.7 37.85 11.45 38.3 12.1 37.75 12.45 37.55 12.5 37.15 12.5 37.3 12.6 37.05 12.65 37.7 12.85 37.5 14.7 37.55 14.7 38.15 16.75 37.8 17.0 36.45 17.6 34.55 17.55 32.6 16.95 31.5 16.65 31.1 16.55 29.95 16.05 30.95 14.2 30.65 14.05 Q29.8 11.7 30.1 9.85 27.1 10.15 25.85 7.5 27.5 7.6 27.45 5.5 L32.05 6.35 32.1 6.3 32.95 6.8 35.35 7.3 37.8 6.8 M30.1 9.85 Q30.35 7.8 32.05 6.35 30.35 7.8 30.1 9.85 M36.75 11.25 L37.75 11.45 38.35 9.95 37.45 9.65 36.75 11.25 M39.0 11.35 Q39.15 11.75 38.55 12.15 L38.5 12.2 39.0 11.35 M37.45 8.25 L38.75 9.95 37.45 8.25 M31.55 14.45 L30.95 14.2 31.55 14.45 Q30.9 10.15 32.95 6.8 30.9 10.15 31.55 14.45 L31.9 14.55 37.5 14.7 31.9 14.55 31.55 14.45 M31.9 14.55 L31.1 16.55 31.9 14.55" fill="#2e4b7e" fill-rule="evenodd" stroke="none"/>
    <path d="M25.45 -0.85 L25.15 0.15 Q24.9 0.55 24.5 0.55 L23.8 0.15 Q23.55 -0.25 23.55 -0.85 23.55 -1.45 23.8 -1.85 24.1 -2.25 24.5 -2.25 24.9 -2.25 25.15 -1.85 L25.45 -0.85 M25.9 2.2 L26.15 2.25 M31.35 -0.55 L30.9 -0.05 30.4 0.15 29.9 -0.05 29.75 -0.2 Q29.5 0.55 29.5 1.45 29.5 3.45 30.7 4.95 L31.2 5.55 32.1 6.3 32.05 6.35 Q30.35 7.8 30.1 9.85 27.1 10.15 25.85 7.5 L23.65 4.65 M32.3 -3.55 L31.2 -2.7 Q30.15 -1.6 29.75 -0.2 M40.05 -2.0 L39.45 -2.7 Q37.75 -4.4 35.35 -4.4 33.65 -4.4 32.3 -3.55 M40.45 -1.4 L41.45 -2.1 40.65 -2.9 Q40.65 -2.6 40.25 -2.2 L40.05 -2.0 40.45 -1.4 40.75 -0.85 42.3 -1.45 42.35 -1.4 42.35 -1.1 Q42.4 -0.1 42.0 0.0 L41.05 -0.05 41.2 1.45 Q42.4 1.45 42.3 3.75 41.35 5.9 39.9 5.1 L39.45 5.55 37.8 6.8 Q41.8 7.25 43.95 10.85 44.15 11.15 43.95 11.5 43.55 12.1 41.65 12.95 M37.75 12.45 L37.55 12.5 37.3 12.6 37.05 12.65 M37.7 12.85 L37.5 14.7 37.55 14.7 38.15 16.75 37.8 17.0 39.0 18.9 M37.5 19.4 L36.45 17.6 34.55 17.55 32.6 16.95 32.3 18.3 M31.05 18.4 L31.5 16.65 31.1 16.55 29.95 16.05 30.95 14.2 30.65 14.05 Q29.8 11.7 30.1 9.85 M40.75 -0.85 L41.05 -0.05 M41.65 11.0 Q42.8 9.95 43.95 11.5 M38.75 9.95 L38.55 9.85 M39.9 5.1 L39.4 4.7 M31.05 2.5 L31.6 2.8 32.55 2.6 Q32.35 1.55 31.7 1.35 L31.45 1.3 Q31.1 1.45 31.1 1.85 L31.05 2.5 30.95 3.2 Q30.95 3.6 31.6 3.6 32.6 3.6 32.6 2.85 L32.55 2.6 M32.95 6.8 L35.35 7.3 37.8 6.8 M32.95 6.8 L32.1 6.3 M38.75 9.95 L37.45 8.25 M27.45 5.5 L25.4 3.95 M25.25 3.85 L25.9 2.2 M25.85 7.5 Q27.5 7.6 27.45 5.5 L32.05 6.35 M36.45 17.6 L37.8 17.0 M32.95 6.8 Q30.9 10.15 31.55 14.45 L31.9 14.55 37.5 14.7 M30.95 14.2 L31.55 14.45 M32.6 16.95 L31.5 16.65 M31.1 16.55 L31.9 14.55 M41.2 1.45 L40.15 1.75 M33.8 -0.65 Q34.05 0.15 34.95 0.15 35.6 0.15 35.9 -0.25" fill="none" stroke="#0e0e0e" stroke-linecap="round" stroke-linejoin="round" stroke-width="0.5"/>
    <path d="M26.15 2.25 L26.65 0.65 26.05 -0.45 Q26.25 -2.35 25.05 -3.85 21.95 -5.9 18.25 -4.25 16.05 -2.65 16.95 0.15 L18.3 2.0 M22.25 2.35 L23.75 0.85 24.55 2.75 25.9 2.2" fill="none" stroke="#646464" stroke-linecap="round" stroke-linejoin="round" stroke-width="0.5"/>
    <path d="M39.0 18.9 L39.45 18.75 40.05 20.85 Q42.95 22.55 41.65 23.35 39.9 24.25 38.55 22.05 L37.05 19.55 37.5 19.4 39.0 18.9 M32.3 18.3 L32.95 18.15 33.85 20.75 Q31.5 22.05 29.45 22.15 L29.35 21.05 31.25 20.05 30.8 19.2 30.35 18.45 31.05 18.4 M32.3 18.3 L31.05 18.4" fill="none" stroke="#481414" stroke-linecap="round" stroke-linejoin="round" stroke-width="0.5"/>
    <path d="M41.65 12.95 L39.7 12.55 38.85 13.2 37.75 12.5 37.75 12.45" fill="none" stroke="#000000" stroke-linecap="round" stroke-linejoin="round" stroke-width="0.4"/>
    <path d="M13.45 -8.15 L11.5 -6.25 Q6.0 -0.75 6.0 0.8 L6.05 1.15 Q6.55 3.55 15.0 9.05 L15.0 10.05 13.0 10.05 Q13.25 10.65 12.8 11.55 12.35 12.55 11.5 12.55 10.95 12.55 10.0 11.9 8.95 11.15 8.5 11.05 L8.0 12.05 7.5 13.05 5.1 12.35 5.0 12.3 5.0 -10.45 15.85 -10.45 13.45 -8.15 M47.5 -10.45 L59.5 -10.45 59.5 11.45 58.95 11.85 Q58.0 12.55 57.5 12.55 L57.25 12.2 Q56.9 12.05 55.5 13.05 L53.0 13.05 53.0 12.05 Q53.5 12.05 53.5 11.05 L50.0 11.05 50.0 10.05 54.75 6.35 Q59.0 2.85 59.0 1.3 L58.95 0.85 58.15 -0.55 Q56.8 -2.45 53.3 -5.6 L50.55 -7.9 47.5 -10.45" fill="#6f1800" fill-rule="evenodd" stroke="none"/>
    <path d="M13.45 -8.15 L15.85 -10.45 47.5 -10.45 50.55 -7.9 47.5 -7.45 Q46.9 -7.45 46.15 -7.95 45.4 -8.45 44.75 -8.45 L42.5 -7.95 40.25 -7.45 38.25 -7.95 36.25 -8.45 34.25 -7.7 32.5 -6.95 27.15 -7.35 Q22.65 -7.95 21.5 -8.95 L20.9 -8.25 Q20.55 -7.95 19.75 -7.95 19.15 -7.95 18.25 -8.45 L16.75 -8.95 14.5 -8.45 13.45 -8.15" fill="#521100" fill-rule="evenodd" stroke="none"/>
  </g>
</svg>
