<?xml version="1.0" encoding="UTF-8" standalone="no"?>
<svg xmlns:xlink="http://www.w3.org/1999/xlink" height="16.05px" width="14.8px" xmlns="http://www.w3.org/2000/svg">
  <g transform="matrix(1.0, 0.0, 0.0, 1.0, -7.05, -9.1)">
    <path d="M13.55 10.4 Q13.9 10.1 14.35 10.1 14.8 10.1 15.1 10.4 15.45 10.75 15.45 11.2 15.45 11.65 15.1 11.95 L14.8 12.2 Q15.8 12.3 16.85 13.05 17.95 13.9 18.2 14.8 L18.6 18.2 18.75 20.15 18.95 20.2 Q20.85 20.9 20.85 21.8 20.85 22.75 18.95 23.45 17.1 24.15 14.45 24.15 11.8 24.15 9.9 23.45 8.05 22.75 8.05 21.8 8.05 20.9 9.9 20.2 L10.25 20.1 10.3 18.55 10.55 15.45 Q10.75 14.45 11.75 13.45 12.75 12.4 14.0 12.25 L13.55 11.95 Q13.25 11.65 13.25 11.2 13.25 10.75 13.55 10.4" fill="#000000" fill-rule="evenodd" stroke="none"/>
    <path d="M13.55 10.4 Q13.9 10.1 14.35 10.1 14.8 10.1 15.1 10.4 15.45 10.75 15.45 11.2 15.45 11.65 15.1 11.95 L14.8 12.2 Q15.8 12.3 16.85 13.05 17.95 13.9 18.2 14.8 L18.6 18.2 18.75 20.15 18.95 20.2 Q20.85 20.9 20.85 21.8 20.85 22.75 18.95 23.45 17.1 24.15 14.45 24.15 11.8 24.15 9.9 23.45 8.05 22.75 8.05 21.8 8.05 20.9 9.9 20.2 L10.25 20.1 10.3 18.55 10.55 15.45 Q10.75 14.45 11.75 13.45 12.75 12.4 14.0 12.25 L13.55 11.95 Q13.25 11.65 13.25 11.2 13.25 10.75 13.55 10.4 Z" fill="none" stroke="#3a250e" stroke-linecap="round" stroke-linejoin="round" stroke-width="2.0"/>
  </g>
</svg>
