<?xml version="1.0" encoding="UTF-8" standalone="no"?>
<svg xmlns:xlink="http://www.w3.org/1999/xlink" height="90.6px" width="53.55px" xmlns="http://www.w3.org/2000/svg">
  <g transform="matrix(1.0, 0.0, 0.0, 1.0, -5.85, 26.7)">
    <path d="M55.95 35.6 L56.05 35.65 52.85 53.0 52.15 56.7 48.45 56.75 48.45 56.7 39.1 56.65 39.0 57.0 39.1 57.0 39.45 60.3 39.45 60.35 39.45 60.45 38.95 62.65 25.85 62.65 25.1 60.3 25.05 60.3 25.05 60.25 25.45 57.0 25.6 57.0 25.5 56.6 16.05 56.55 16.05 56.75 12.55 56.7 11.95 52.95 9.1 35.15 8.75 33.3 8.8 33.2 30.35 0.25 55.95 35.6" fill="#eaeaea" fill-rule="evenodd" stroke="none"/>
    <path d="M55.95 35.6 L30.35 0.25 8.8 33.2 8.75 33.3 9.1 35.15 11.95 52.95 12.55 56.7 16.05 56.75 16.05 56.55 25.5 56.6 25.6 57.0 25.45 57.0 25.05 60.25 25.05 60.3 25.1 60.3 25.85 62.65 38.95 62.65 39.45 60.45 39.45 60.35 39.45 60.3 39.1 57.0 39.0 57.0 39.1 56.65 48.45 56.7 48.45 56.75 52.15 56.7 52.85 53.0 56.05 35.65 55.95 35.6 Z" fill="none" stroke="#282828" stroke-linecap="round" stroke-linejoin="round" stroke-width="2.5"/>
    <path d="M12.5 52.5 L10.4 41.8 8.75 33.3 30.35 0.25 56.0 35.65 54.55 41.8 51.95 52.5 12.5 52.5" fill="#eaeaea" fill-rule="evenodd" stroke="none"/>
    <path d="M12.5 52.5 L51.95 52.5 50.9 56.7 13.3 56.55 12.5 52.5" fill="#b4b4b4" fill-rule="evenodd" stroke="none"/>
    <path d="M8.8 33.2 Q11.2 32.1 12.45 30.45 L16.05 56.75 12.55 56.7 11.95 52.95 8.8 33.2 M52.2 32.75 L56.05 35.65 52.85 53.0 52.15 56.7 48.45 56.75 52.2 32.75" fill="#ffffff" fill-rule="evenodd" stroke="none"/>
    <path d="M24.35 53.25 L20.6 31.65 42.5 31.8 40.2 53.25 24.35 53.25" fill="#7cb421" fill-rule="evenodd" stroke="none"/>
    <path d="M24.35 53.25 L20.6 31.65 42.5 31.8 40.2 53.25 24.35 53.25" fill="#ffffff" fill-rule="evenodd" stroke="none"/>
    <path d="M24.35 53.25 L20.6 31.65 42.5 31.8 40.2 53.25 24.35 53.25 Z" fill="none" stroke="#b9b9b9" stroke-linecap="round" stroke-linejoin="round" stroke-width="1.0"/>
    <path d="M25.4 43.9 L24.5 35.15 39.2 35.5 38.5 51.3 38.45 51.85 26.15 51.5 25.4 43.9" fill="#9b5ce9" fill-rule="evenodd" stroke="none"/>
    <path d="M56.0 37.25 L54.0 46.55 50.75 43.15 48.75 56.55 44.95 56.55 48.0 40.25 31.95 23.5 10.7 45.0 9.4 38.1 31.2 5.3 56.0 37.25" fill="#000000" fill-opacity="0.29803923" fill-rule="evenodd" stroke="none"/>
    <path d="M48.2 56.8 L51.0 38.3 M13.5 37.0 L16.6 56.35" fill="none" stroke="#5c5c5c" stroke-linecap="round" stroke-linejoin="round" stroke-width="1.0"/>
    <path d="M39.0 57.0 L39.1 57.0 39.45 60.3 39.45 60.35 39.45 60.45 25.1 60.3 25.05 60.3 25.05 60.25 25.45 57.0 25.6 57.0 39.0 57.0 M25.0 54.8 L24.95 54.8 25.0 54.65 25.0 54.55 25.4 51.5 39.05 51.5 39.4 54.8 39.4 54.9 39.4 54.95 25.0 54.8" fill="#ffffff" fill-rule="evenodd" stroke="none"/>
    <path d="M39.4 54.95 L39.0 57.0 25.6 57.0 25.0 54.8 39.4 54.95 M39.45 60.45 L38.95 62.65 25.85 62.65 25.1 60.3 39.45 60.45" fill="#cecece" fill-rule="evenodd" stroke="none"/>
    <path d="M24.95 51.9 L25.0 51.9 25.0 52.0 24.95 51.9" fill="#cccccc" fill-rule="evenodd" stroke="none"/>
    <path d="M31.55 -25.2 L55.45 -3.35 56.65 23.9 56.95 31.15 57.35 39.25 57.35 39.3 57.35 39.65 57.2 39.5 56.0 41.2 32.0 18.1 10.4 40.35 8.2 38.9 8.05 39.05 8.05 38.8 8.0 38.75 8.05 38.7 8.2 9.65 8.2 3.9 8.25 -2.85 31.55 -25.2" fill="#412910" fill-rule="evenodd" stroke="none"/>
    <path d="M31.55 -25.2 L55.45 -3.35 56.65 23.9 56.95 31.15 57.35 39.25 57.35 39.3 57.35 39.65 57.2 39.5 56.0 41.2 32.0 18.1 10.4 40.35 8.2 38.9 8.05 39.05 8.05 38.8 8.0 38.75 8.05 38.7 8.2 9.65 8.2 3.9 8.25 -2.85 31.55 -25.2 Z" fill="none" stroke="#282828" stroke-linecap="round" stroke-linejoin="round" stroke-width="3.0"/>
    <path d="M35.5 -11.65 L35.7 -11.55 35.25 -11.45 35.5 -11.65 M26.9 -3.9 L26.9 -3.95 Q27.1 -3.8 26.7 -3.3 L26.55 -3.55 26.9 -3.9" fill="#d2764f" fill-rule="evenodd" stroke="none"/>
    <path d="M31.35 -4.65 L31.65 -4.75 31.65 -4.1 31.35 -4.65 M31.65 -3.1 L31.6 -3.35 31.65 -3.65 31.65 -3.1" fill="#b1552e" fill-rule="evenodd" stroke="none"/>
    <path d="M57.35 39.3 L57.35 39.25 57.35 39.3 M8.05 38.7 L8.05 38.8 8.0 38.75 8.05 38.7" fill="#ffffff" fill-rule="evenodd" stroke="none"/>
    <path d="M31.6 -16.85 L31.6 -15.4 31.65 -7.0 31.65 -6.7 31.65 -6.3 31.65 -4.75 31.35 -4.65 31.65 -4.1 31.65 -3.65 31.6 -3.35 31.65 -3.1 31.7 4.2 31.75 10.5 31.75 13.95 31.75 14.9 Q28.95 18.55 15.25 32.05 L14.2 33.1 8.2 38.9 8.05 39.05 8.05 38.8 8.05 38.7 8.05 37.0 8.2 3.9 8.25 -2.85 25.0 -18.9 31.55 -25.2 31.6 -16.85 M26.7 -3.3 Q27.1 -3.8 26.9 -3.95 L26.9 -3.9 26.55 -3.55 26.7 -3.3" fill="#6531d2" fill-rule="evenodd" stroke="none"/>
    <path d="M8.3 39.05 L7.9 38.55 7.9 32.7 7.45 32.35 Q6.85 31.75 6.85 30.9 6.85 30.05 7.45 29.4 8.1 28.8 8.95 28.8 9.8 28.8 10.4 29.4 11.05 30.05 11.05 30.9 11.05 31.75 10.4 32.35 L10.15 32.6 10.15 38.2 9.75 39.05 8.3 39.05" fill="#ffffff" fill-rule="evenodd" stroke="none"/>
    <path d="M8.3 39.05 L7.9 38.55 7.9 32.7 7.45 32.35 Q6.85 31.75 6.85 30.9 6.85 30.05 7.45 29.4 8.1 28.8 8.95 28.8 9.8 28.8 10.4 29.4 11.05 30.05 11.05 30.9 11.05 31.75 10.4 32.35 L10.15 32.6 10.15 38.2 9.75 39.05" fill="none" stroke="#282828" stroke-linecap="round" stroke-linejoin="round" stroke-width="2.0"/>
    <path d="M8.95 39.0 L8.25 39.0 7.9 38.55 7.9 31.05 8.95 31.05 8.95 39.0" fill="#dadada" fill-rule="evenodd" stroke="none"/>
    <path d="M8.95 31.05 L10.15 31.05 10.15 38.2 9.8 39.0 8.95 39.0 8.95 31.05" fill="#ffffff" fill-rule="evenodd" stroke="none"/>
    <path d="M11.05 30.9 Q11.05 31.75 10.4 32.35 9.8 33.0 8.95 33.0 8.1 33.0 7.45 32.35 6.85 31.75 6.85 30.9 6.85 30.05 7.45 29.4 8.1 28.8 8.95 28.8 9.8 28.8 10.4 29.4 11.05 30.05 11.05 30.9" fill="#ffffff" fill-rule="evenodd" stroke="none"/>
    <path d="M31.6 -16.85 L31.55 -25.2 34.3 -22.65 34.65 -22.35 35.25 -21.85 55.45 -3.35 56.65 23.9 56.95 31.15 57.35 39.25 57.35 39.3 57.35 39.65 57.2 39.5 32.15 15.1 Q32.1 14.5 31.75 14.9 L31.75 13.95 31.75 10.5 31.7 4.2 31.65 -3.1 31.65 -6.3 31.65 -6.7 31.65 -7.0 31.6 -15.4 31.6 -16.85 M35.5 -11.65 L35.25 -11.45 35.7 -11.55 35.5 -11.65" fill="#9b5ce9" fill-rule="evenodd" stroke="none"/>
    <path d="M55.65 39.7 L55.25 39.2 55.25 33.35 54.8 33.0 Q54.2 32.4 54.2 31.55 54.2 30.7 54.8 30.05 55.45 29.45 56.3 29.45 57.15 29.45 57.75 30.05 58.4 30.7 58.4 31.55 58.4 32.4 57.75 33.0 L57.5 33.25 57.5 38.85 57.1 39.7 55.65 39.7" fill="#ffffff" fill-rule="evenodd" stroke="none"/>
    <path d="M55.65 39.7 L55.25 39.2 55.25 33.35 54.8 33.0 Q54.2 32.4 54.2 31.55 54.2 30.7 54.8 30.05 55.45 29.45 56.3 29.45 57.15 29.45 57.75 30.05 58.4 30.7 58.4 31.55 58.4 32.4 57.75 33.0 L57.5 33.25 57.5 38.85 57.1 39.7" fill="none" stroke="#282828" stroke-linecap="round" stroke-linejoin="round" stroke-width="2.0"/>
    <path d="M56.3 31.7 L57.5 31.7 57.5 38.85 57.15 39.65 56.3 39.65 56.3 31.7" fill="#ffffff" fill-rule="evenodd" stroke="none"/>
    <path d="M56.3 39.65 L55.6 39.65 55.25 39.2 55.25 31.7 56.3 31.7 56.3 39.65" fill="#dadada" fill-rule="evenodd" stroke="none"/>
    <path d="M58.4 31.55 Q58.4 32.4 57.75 33.0 57.15 33.65 56.3 33.65 55.45 33.65 54.8 33.0 54.2 32.4 54.2 31.55 54.2 30.7 54.8 30.05 55.45 29.45 56.3 29.45 57.15 29.45 57.75 30.05 58.4 30.7 58.4 31.55" fill="#ffffff" fill-rule="evenodd" stroke="none"/>
    <path d="M56.0 41.2 L32.0 18.1 10.4 40.35 8.2 38.9 14.2 33.1 15.25 32.05 Q28.95 18.55 31.75 14.9 32.1 14.5 32.15 15.1 L57.2 39.5 56.0 41.2" fill="#ffffff" fill-rule="evenodd" stroke="none"/>
  </g>
</svg>
