<?xml version="1.0" encoding="UTF-8" standalone="no"?>
<svg xmlns:xlink="http://www.w3.org/1999/xlink" height="96.0px" width="70.8px" xmlns="http://www.w3.org/2000/svg">
  <g transform="matrix(1.0, 0.0, 0.0, 1.0, 35.45, 74.65)">
    <path d="M-31.4 -43.4 L-21.55 -43.4 -19.65 -14.65 -19.7 -15.25 -28.7 -15.25 -31.4 -43.4 M-17.85 -43.35 L-8.05 -43.35 -7.35 -15.25 -16.3 -15.25 -17.85 -43.35 M5.2 -43.35 L4.8 -15.25 -4.15 -15.25 -4.6 -43.35 5.2 -43.35 M8.6 -43.35 L18.45 -43.35 16.9 -15.25 7.95 -15.25 7.9 -14.7 8.6 -43.35 M22.15 -43.4 L31.95 -43.4 29.25 -14.5 29.3 -15.25 20.35 -15.25 20.3 -14.65 22.15 -43.4" fill="#b7bad5" fill-rule="evenodd" stroke="none"/>
    <path d="M19.4 -55.1 Q18.2 -49.25 13.25 -45.4 7.8 -41.15 0.65 -40.95 L-1.2 -40.95 Q-7.5 -41.25 -12.55 -44.7 -18.5 -48.8 -19.7 -55.3 -20.85 -62.45 -15.75 -68.2 -10.0 -74.25 -0.8 -74.65 8.2 -74.7 14.55 -69.0 20.25 -63.55 19.6 -56.5 L19.4 -55.1" fill="#4a3800" fill-rule="evenodd" stroke="none"/>
    <path d="M2.65 -62.2 Q2.8 -63.65 2.2 -64.2 1.5 -64.7 -0.15 -64.85 -1.6 -65.25 -4.55 -64.0 L-7.3 -62.85 -9.0 -65.0 -10.05 -63.9 Q-13.5 -60.5 -12.95 -55.9 -12.2 -51.55 -8.4 -48.75 L-5.7 -47.25 -7.3 -61.6 -2.75 -61.8 -2.55 -58.85 -1.6 -58.7 -0.15 -58.7 Q0.85 -58.9 1.6 -59.85 2.6 -60.7 2.65 -62.2 M9.1 -64.5 Q7.7 -65.85 5.8 -66.8 6.55 -65.4 6.55 -63.35 6.35 -62.05 5.75 -60.6 L4.85 -59.3 Q4.55 -59.1 4.25 -59.05 L6.55 -58.3 Q8.75 -57.35 9.55 -55.75 10.35 -54.1 10.1 -52.75 9.9 -51.55 9.15 -50.6 8.3 -49.05 6.8 -47.85 L8.7 -49.25 Q12.3 -52.2 12.7 -56.5 12.9 -61.2 9.1 -64.5 M4.65 -54.5 L3.05 -55.75 Q1.3 -56.5 -0.75 -56.3 L-2.4 -55.95 -1.7 -48.2 Q-1.15 -47.95 -0.3 -47.85 2.0 -47.95 3.85 -49.0 4.95 -49.6 5.45 -50.65 5.8 -51.55 5.55 -52.55 5.35 -53.75 4.65 -54.5 M15.25 -56.55 Q14.85 -51.45 10.45 -47.95 6.0 -44.7 0.45 -44.5 -5.45 -44.2 -9.85 -47.45 -14.55 -50.65 -15.35 -55.75 -16.2 -61.4 -12.15 -65.65 -7.7 -70.4 -0.8 -70.6 6.35 -70.7 11.15 -66.25 15.5 -62.25 15.25 -56.55" fill="#ffbf1e" fill-rule="evenodd" stroke="none"/>
    <path d="M9.1 -64.5 Q12.9 -61.2 12.7 -56.5 12.3 -52.2 8.7 -49.25 L6.8 -47.85 Q8.3 -49.05 9.15 -50.6 9.9 -51.55 10.1 -52.75 10.35 -54.1 9.55 -55.75 8.75 -57.35 6.55 -58.3 L4.25 -59.05 Q4.55 -59.1 4.85 -59.3 L5.75 -60.6 Q6.35 -62.05 6.55 -63.35 6.55 -65.4 5.8 -66.8 7.7 -65.85 9.1 -64.5 M2.65 -62.2 Q2.6 -60.7 1.6 -59.85 0.85 -58.9 -0.15 -58.7 L-1.6 -58.7 -2.55 -58.85 -2.75 -61.8 -7.3 -61.6 -5.7 -47.25 -8.4 -48.75 Q-12.2 -51.55 -12.95 -55.9 -13.5 -60.5 -10.05 -63.9 L-9.0 -65.0 -7.3 -62.85 -4.55 -64.0 Q-1.6 -65.25 -0.15 -64.85 1.5 -64.7 2.2 -64.2 2.8 -63.65 2.65 -62.2 M4.65 -54.5 Q5.35 -53.75 5.55 -52.55 5.8 -51.55 5.45 -50.65 4.95 -49.6 3.85 -49.0 2.0 -47.95 -0.3 -47.85 -1.15 -47.95 -1.7 -48.2 L-2.4 -55.95 -0.75 -56.3 Q1.3 -56.5 3.05 -55.75 L4.65 -54.5 M16.7 -55.5 Q15.85 -50.6 11.35 -47.15 6.75 -43.45 0.45 -43.3 L-1.15 -43.45 Q-6.45 -43.65 -10.85 -46.45 -16.15 -50.05 -17.0 -55.7 -18.0 -62.0 -13.6 -66.85 -8.65 -72.1 -0.8 -72.35 7.0 -72.55 12.5 -67.65 17.4 -62.95 16.85 -56.7 L16.7 -55.5 M15.25 -56.55 Q15.5 -62.25 11.15 -66.25 6.35 -70.7 -0.8 -70.6 -7.7 -70.4 -12.15 -65.65 -16.2 -61.4 -15.35 -55.75 -14.55 -50.65 -9.85 -47.45 -5.45 -44.2 0.45 -44.5 6.0 -44.7 10.45 -47.95 14.85 -51.45 15.25 -56.55" fill="#ff0000" fill-rule="evenodd" stroke="none"/>
    <path d="M30.75 15.05 L31.85 3.65 33.05 14.4 Q33.85 21.2 28.5 21.35 L-28.3 21.35 Q-33.7 21.2 -32.9 14.4 L-31.65 3.5 -30.5 15.05 30.75 15.05 M34.0 -29.1 L35.25 -17.15 Q36.1 -9.35 30.15 -9.35 L-30.2 -9.35 Q-36.25 -9.35 -35.35 -17.15 L-34.0 -29.4 -32.8 -16.75 32.85 -16.75 34.0 -29.1" fill="url(#gradient0)" fill-rule="evenodd" stroke="none"/>
  </g>
  <defs>
    <linearGradient gradientTransform="matrix(0.0, 0.0237, 0.0503, 0.0, 206.6, 27.8)" gradientUnits="userSpaceOnUse" id="gradient0" spreadMethod="pad" x1="-819.2" x2="819.2">
      <stop offset="0.0" stop-color="#ffffff" stop-opacity="0.0"/>
      <stop offset="1.0" stop-color="#ffffff" stop-opacity="0.8"/>
    </linearGradient>
  </defs>
</svg>
