<?xml version="1.0" encoding="UTF-8" standalone="no"?>
<svg xmlns:xlink="http://www.w3.org/1999/xlink" height="6.3px" width="5.2px" xmlns="http://www.w3.org/2000/svg">
  <g transform="matrix(1.0, 0.0, 0.0, 1.0, 0.0, 0.0)">
    <path d="M2.85 2.7 L2.55 3.15 Q2.85 2.85 3.0 2.85 L3.8 1.75 3.8 1.9 5.2 0.0 3.15 3.0 3.3 3.0 3.3 3.65 4.1 3.65 3.45 3.8 3.3 3.8 3.3 3.95 3.15 4.1 5.05 6.15 5.05 6.3 3.15 4.4 3.8 5.35 3.65 5.5 2.55 4.4 2.7 5.7 2.55 5.7 2.35 4.4 2.05 4.6 0.8 6.3 0.65 6.3 0.95 5.7 1.75 4.25 1.6 3.95 0.8 3.95 0.5 3.8 0.95 3.65 1.6 3.65 1.75 3.3 1.25 2.85 Q0.65 2.55 0.5 1.9 L1.75 3.15 1.75 3.0 0.0 1.25 2.05 3.0 2.35 3.0 2.35 2.05 2.55 2.85 2.85 2.7" fill="#ffffff" fill-rule="evenodd" stroke="none"/>
  </g>
</svg>
