<?xml version="1.0" encoding="UTF-8" standalone="no"?>
<svg xmlns:xlink="http://www.w3.org/1999/xlink" height="60.0px" width="65.4px" xmlns="http://www.w3.org/2000/svg">
  <g transform="matrix(1.0, 0.0, 0.0, 1.0, 2.65, -3.55)">
    <path d="M61.6 10.8 L61.45 11.35 61.1 11.35 61.15 11.5 61.25 11.8 60.9 11.85 59.9 11.75 59.85 12.0 60.6 12.65 60.8 12.25 61.2 12.25 61.35 12.5 60.95 13.0 61.45 13.6 61.55 14.1 61.9 14.15 62.5 14.6 62.55 14.6 62.65 15.5 62.4 15.75 62.15 15.65 62.05 15.65 Q61.7 15.65 61.5 15.45 L61.25 16.4 61.55 16.5 61.65 16.9 61.6 17.3 62.15 17.8 62.4 17.8 Q62.6 17.9 62.6 18.3 L62.3 18.85 61.7 19.15 61.2 19.1 Q61.15 20.05 60.15 20.05 L59.65 19.95 59.45 19.75 59.45 19.5 59.25 19.35 59.2 19.35 59.1 19.5 Q59.45 19.75 59.45 20.25 L59.4 21.0 59.3 21.15 58.9 21.25 Q58.55 21.25 58.3 20.7 58.2 21.45 57.7 22.0 57.25 22.65 55.5 23.05 L54.9 23.0 54.7 22.85 54.7 22.5 54.25 22.35 54.05 22.45 54.05 22.85 53.85 23.35 Q54.6 23.55 54.6 24.4 L54.45 25.05 Q54.8 25.35 54.8 26.3 54.8 27.8 53.45 27.8 52.5 27.8 52.2 27.25 L52.1 26.65 Q52.1 25.9 52.55 25.5 L52.0 25.2 Q51.85 25.5 51.3 25.5 50.85 25.5 50.55 25.05 L50.4 24.55 50.45 24.0 49.15 24.5 Q50.05 24.85 50.05 26.4 L49.7 27.3 49.7 27.35 49.55 27.8 48.35 28.05 48.25 27.8 48.2 27.8 48.45 28.8 Q49.3 30.35 50.55 30.8 51.45 31.05 51.45 32.0 51.45 33.3 50.65 34.5 L48.7 37.0 Q50.6 38.0 51.15 39.15 51.45 39.75 51.45 41.4 L51.45 41.85 52.1 41.85 Q53.0 41.9 53.35 42.5 53.65 41.95 54.5 42.05 55.75 42.25 55.75 43.65 55.75 44.8 54.45 44.8 53.8 44.8 53.45 44.45 L52.85 44.8 52.9 45.15 52.85 45.6 Q52.85 45.8 52.25 45.8 L51.75 45.7 51.6 45.5 Q51.5 45.75 51.5 45.15 51.5 44.85 52.3 44.8 L51.35 44.25 50.6 45.0 49.95 45.25 49.9 45.25 49.15 45.25 49.0 45.3 49.05 45.3 Q50.2 45.45 50.2 46.3 L49.95 47.0 49.35 47.25 48.95 47.25 48.95 47.55 48.55 48.4 Q48.15 48.9 47.6 48.9 46.8 48.9 46.65 48.25 L46.55 47.6 46.75 46.9 46.4 46.4 46.35 46.0 46.05 46.05 45.85 46.85 Q46.55 47.2 46.55 48.35 46.55 49.6 45.25 49.6 L44.9 49.55 44.45 50.75 Q43.15 54.55 43.15 56.0 43.15 56.9 39.0 58.25 L35.0 59.35 35.1 59.45 35.15 59.9 35.15 60.4 34.55 60.65 34.1 60.45 34.05 59.9 34.15 59.5 33.45 59.6 33.05 60.3 33.75 60.65 33.45 61.15 32.95 61.3 Q31.75 61.3 31.25 60.3 L30.9 59.85 30.85 59.45 29.8 59.2 29.3 59.25 28.4 59.05 27.75 58.75 27.75 58.4 Q27.75 58.0 28.1 57.9 L28.65 57.9 28.75 57.4 28.5 57.4 Q28.05 57.4 27.75 57.1 L27.75 56.75 28.25 56.3 28.95 56.1 28.85 55.45 Q28.4 55.3 28.25 54.7 L28.15 53.85 28.5 53.75 28.45 53.3 28.15 53.3 27.9 53.45 27.65 53.6 Q28.25 53.9 28.25 55.05 28.25 56.55 27.15 56.55 26.3 56.55 26.1 55.75 L26.05 55.05 26.05 55.0 25.95 55.0 25.05 54.65 24.85 55.05 24.95 56.0 Q24.9 56.3 24.3 56.3 L23.8 56.25 23.75 56.15 23.65 55.55 23.65 55.45 23.65 55.4 23.1 55.5 22.55 55.25 22.3 54.9 Q22.3 54.35 22.65 54.25 L22.9 54.25 22.9 54.05 22.95 53.8 22.45 53.65 22.4 53.8 21.75 53.85 21.65 53.55 21.75 53.35 21.3 53.2 20.75 53.25 20.35 53.2 20.6 53.95 Q20.6 54.95 19.8 55.1 L19.75 55.3 19.65 55.45 19.2 55.5 18.55 55.4 18.45 54.7 18.45 54.65 18.4 54.55 18.3 53.95 Q18.3 53.35 18.55 53.1 L18.2 53.25 17.7 52.65 17.65 52.65 Q17.0 53.25 15.95 53.3 L16.0 53.55 15.8 54.05 15.65 54.15 14.55 54.6 14.15 54.5 14.05 54.0 Q14.05 53.65 14.75 53.25 L14.9 53.2 14.4 53.05 13.65 52.85 13.1 52.75 13.05 52.75 13.2 52.85 13.55 53.25 13.4 53.75 13.35 53.8 13.3 54.0 13.25 54.05 13.55 54.8 13.45 55.3 Q13.6 55.5 13.0 55.5 12.55 55.5 12.3 55.1 L12.2 54.65 Q12.2 54.25 12.45 54.15 L12.25 54.05 12.2 54.05 12.1 54.4 Q12.0 54.6 11.45 54.6 L10.9 54.55 10.65 54.3 10.65 54.0 Q10.65 53.6 11.1 53.55 L10.0 52.95 9.85 52.85 9.55 52.65 9.45 52.85 9.6 52.85 9.7 52.95 9.75 53.3 10.1 53.25 10.65 53.75 10.45 54.25 10.1 54.4 9.55 54.15 9.5 53.8 9.5 53.7 8.9 54.05 8.95 54.05 9.05 54.55 Q9.05 55.5 8.05 55.5 L7.65 55.4 Q7.5 55.3 7.5 54.9 L7.55 54.7 7.4 54.7 Q7.1 55.15 6.25 55.15 5.35 55.15 5.0 54.6 3.5 54.25 2.4 53.35 L1.95 52.85 1.4 52.15 Q0.25 52.05 0.4 51.0 0.4 49.75 2.0 49.65 L2.05 49.65 2.0 49.25 2.05 48.8 1.4 49.05 1.35 49.05 1.1 49.35 0.65 49.75 0.2 49.55 0.1 49.3 -0.05 49.3 -0.55 49.25 -0.7 49.1 -0.75 48.65 Q-0.75 48.1 0.0 47.8 0.6 47.6 0.75 48.2 L0.9 48.2 1.25 47.95 2.05 47.75 2.25 47.8 2.3 48.15 2.3 48.35 Q2.55 47.95 3.2 47.85 L4.0 47.95 4.9 46.8 4.4 45.7 Q3.95 44.85 3.95 44.25 3.95 42.25 5.55 43.65 7.15 45.0 7.15 46.75 7.15 47.9 6.95 48.3 6.4 49.2 4.35 50.0 L4.75 51.15 Q5.1 51.95 6.05 52.3 L7.05 50.6 Q7.8 49.15 8.95 49.15 10.15 49.15 10.25 50.1 10.3 51.0 11.15 51.0 L11.9 50.65 Q12.45 50.3 13.15 50.3 14.3 50.3 15.05 51.0 16.25 51.0 16.75 50.25 L17.2 49.8 14.85 49.55 Q12.0 49.35 12.0 46.65 12.0 44.95 10.05 42.5 8.05 40.1 8.05 38.5 L9.2 32.35 Q10.35 26.45 10.3 24.55 10.1 20.2 12.75 18.0 16.5 14.85 26.9 13.75 26.9 11.15 28.4 8.35 30.85 3.9 35.85 3.9 37.8 3.9 38.35 4.25 L40.85 4.55 44.7 4.0 47.9 3.55 Q51.2 3.85 52.9 10.75 L55.55 9.6 Q56.8 9.05 57.9 9.05 60.0 9.05 60.05 10.35 L60.05 10.55 60.7 10.65 60.45 11.0 60.05 11.0 60.0 11.15 60.95 11.15 60.85 10.8 61.45 10.65 61.6 10.8 M60.8 17.5 L60.05 18.45 60.55 18.55 60.65 18.5 61.0 18.55 61.2 18.4 Q60.85 18.2 60.85 17.65 L60.85 17.5 60.8 17.5 M62.75 21.65 Q62.75 22.2 62.1 22.35 L61.5 21.9 Q61.8 21.4 62.4 21.3 L62.75 21.65 M61.3 23.3 L60.6 23.55 59.95 23.3 59.65 23.0 Q59.9 22.4 60.25 22.4 L61.25 22.75 61.3 23.3 M52.05 23.55 L52.0 23.35 50.65 23.9 Q51.1 23.95 51.45 24.3 L51.7 24.6 51.65 24.4 Q51.65 23.8 52.05 23.55 M56.75 21.1 L56.55 21.2 56.75 21.15 56.75 21.1 M57.5 24.0 Q58.05 24.3 58.05 25.0 L57.5 25.5 57.05 25.3 Q56.9 25.15 56.9 24.75 56.9 24.3 57.05 24.15 L57.5 24.0 M60.3 22.0 L60.0 22.25 59.75 22.1 59.85 21.75 Q60.15 21.75 60.3 22.0 M58.75 27.8 L58.6 27.9 58.15 28.0 57.75 27.9 57.65 27.75 57.6 27.3 Q57.6 27.15 58.15 26.8 L58.75 27.3 58.75 27.8 M51.75 29.15 Q51.45 29.55 50.75 29.75 50.5 29.6 50.5 29.0 L51.55 29.0 51.75 29.15 M52.5 28.25 Q52.5 27.55 53.35 28.05 L52.75 28.5 Q52.5 28.85 52.5 28.25 M53.15 47.5 L52.6 48.0 52.15 47.8 Q52.0 47.65 52.0 47.25 52.0 46.8 52.15 46.65 L52.6 46.5 Q53.15 46.8 53.15 47.5 M52.5 48.1 L53.35 48.15 53.25 48.5 52.6 48.5 52.5 48.1 M1.45 42.65 L1.6 42.6 Q2.65 42.4 2.65 43.5 L2.35 44.3 2.35 44.4 2.6 44.35 Q3.8 44.35 3.8 45.55 3.8 46.8 2.55 46.8 L2.3 47.1 1.7 47.4 1.25 47.3 1.05 47.2 1.0 46.8 Q1.0 46.1 1.4 45.9 L1.35 45.55 Q0.9 45.5 0.75 45.1 0.75 44.8 1.0 44.6 L1.0 44.45 0.5 44.1 0.5 43.65 0.6 43.3 Q-0.1 43.2 -0.65 41.8 -0.65 40.65 0.45 40.95 1.5 41.3 1.5 42.15 L1.45 42.65 M40.45 60.05 Q41.75 60.05 41.75 61.25 L41.5 61.9 Q41.15 62.35 40.45 62.35 39.55 62.35 39.25 61.75 L39.15 61.25 Q39.15 60.05 40.45 60.05 M21.75 54.75 L21.5 54.35 22.05 54.5 21.75 54.75 M23.0 57.9 L22.4 58.05 21.7 57.8 21.35 57.5 21.85 56.9 Q22.05 56.75 22.2 56.75 L22.9 57.0 23.25 57.5 23.0 57.9 M27.85 61.6 Q27.6 62.15 26.9 62.15 L26.8 61.9 Q27.1 61.5 27.65 61.5 L27.85 61.6 M18.7 52.45 L18.65 52.95 Q18.95 52.7 19.5 52.75 20.0 52.85 20.3 53.15 L20.1 52.9 20.1 52.75 18.7 52.15 18.7 52.45 M17.25 53.3 L17.6 53.85 17.35 54.15 16.8 53.9 16.85 53.3 17.25 53.3 M11.55 53.5 L11.55 53.45 11.5 53.5 11.55 53.5 M14.35 57.05 L13.85 57.4 13.45 57.25 Q13.3 57.15 13.3 56.75 13.3 56.35 13.5 56.3 L13.85 56.25 14.5 56.75 14.35 57.05 M17.35 59.35 L17.05 59.0 17.6 59.05 17.35 59.35 M16.25 57.25 L15.75 57.3 15.4 56.8 Q15.55 56.45 16.05 56.55 L16.25 56.75 16.25 57.25 M0.65 54.6 Q0.65 53.4 1.95 53.5 3.25 53.55 3.25 54.8 L3.0 55.6 Q2.65 56.1 2.05 56.1 1.1 56.1 0.75 55.35 L0.65 54.6 M0.25 52.95 L0.3 53.4 0.25 53.9 Q0.35 54.15 -0.25 54.15 L-0.65 53.85 -1.05 53.3 -1.0 52.85 0.15 52.85 0.25 52.95 M4.2 55.5 L4.25 55.9 Q4.25 56.75 3.5 56.75 L3.05 56.65 3.0 56.55 2.85 56.45 2.8 56.05 3.15 55.65 Q3.55 55.4 4.1 55.4 L4.2 55.5 M6.9 57.85 Q6.5 57.85 6.15 57.2 L5.85 56.35 Q7.5 55.75 7.5 57.55 L7.4 57.7 6.9 57.85 M51.0 50.05 L50.65 50.25 50.1 50.15 50.0 50.05 49.9 49.5 Q49.9 48.85 50.4 49.0 50.8 49.05 51.3 49.5 L51.0 50.05 M49.65 52.25 L49.5 52.05 49.95 51.6 50.35 51.65 49.65 52.25 M49.75 54.05 L50.35 54.25 50.05 54.5 Q49.75 54.35 49.75 54.05 M45.85 57.5 L45.35 57.05 Q45.6 56.7 46.15 57.25 L45.85 57.5 M48.75 56.35 L48.4 56.75 47.9 56.5 47.9 56.15 48.55 56.15 48.75 56.35 M-0.45 45.05 Q-0.2 45.3 -0.3 45.8 L-1.0 46.05 -1.65 46.0 -1.75 45.35 Q-1.75 44.95 -1.55 44.8 L-1.1 44.6 -0.45 45.05 M-2.65 47.1 L-1.55 47.3 -1.8 47.65 -2.65 47.4 -2.65 47.1 M-0.3 51.05 Q-0.5 51.05 -0.9 51.35 L-1.35 51.15 -1.5 50.55 Q-1.5 49.9 -0.9 49.75 -0.2 50.45 -0.3 51.05" fill="#e9c572" fill-rule="evenodd" stroke="none"/>
    <path d="M50.1 6.95 L61.0 8.45 60.55 11.6 59.05 21.7 48.9 20.35 48.6 17.9 48.6 17.85 50.1 6.95 M47.25 39.8 L48.75 28.9 59.65 30.4 58.15 41.35 58.15 41.3 57.7 43.65 47.55 42.3 47.25 39.8 47.25 39.85 47.25 39.8 M44.05 59.4 L44.1 59.4 44.2 59.2 44.05 59.4 M35.0 57.75 L34.45 54.65 39.0 45.05 48.65 49.7 48.2 53.3 43.9 62.2 35.0 57.75" fill="#7e7e7e" fill-rule="evenodd" stroke="none"/>
    <path d="M50.1 6.95 L61.0 8.45 60.55 11.6 59.05 21.7 48.9 20.35 48.6 17.9 48.6 17.85 50.1 6.95 M47.25 39.8 L48.75 28.9 59.65 30.4 58.15 41.35 58.15 41.3 57.7 43.65 47.55 42.3 47.25 39.8 47.25 39.85 47.25 39.8 M35.0 57.75 L43.9 62.2 48.2 53.3 48.65 49.7 39.0 45.05 34.45 54.65 35.0 57.75 M44.05 59.4 L44.2 59.2 44.1 59.4 44.05 59.4" fill="none" stroke="#624326" stroke-linecap="square" stroke-linejoin="miter" stroke-miterlimit="3.0" stroke-width="2.0"/>
    <path d="M47.9 27.6 L47.7 27.7 46.85 31.1 46.9 31.25 37.75 34.4 37.7 34.4 34.5 25.2 34.15 20.8 44.35 17.3 47.9 27.6" fill="#7e7e7e" fill-rule="evenodd" stroke="none"/>
    <path d="M47.9 27.6 L47.7 27.7 46.85 31.1 46.9 31.25 37.75 34.4 37.7 34.4 34.5 25.2 34.15 20.8 44.35 17.3 47.9 27.6 Z" fill="none" stroke="#624326" stroke-linecap="square" stroke-linejoin="miter" stroke-miterlimit="3.0" stroke-width="2.0"/>
    <path d="M59.7 11.45 L59.95 9.3 50.9 8.05 49.65 17.15 50.25 17.25 58.75 18.4 59.7 11.45 M48.6 17.85 L50.1 6.95 61.0 8.45 59.5 19.4 59.45 19.35 48.6 17.85 M56.15 31.6 L57.8 31.9 58.1 30.2 59.65 30.4 58.15 41.35 58.15 41.3 56.3 41.05 56.6 39.3 57.45 34.0 50.95 38.6 49.15 38.4 48.95 40.0 47.25 39.8 48.75 28.9 50.4 29.15 50.2 30.6 49.5 35.85 56.15 31.6 M43.3 49.05 L42.1 48.45 38.35 46.45 39.0 45.05 48.65 49.7 48.65 49.9 47.9 51.5 46.1 50.55 45.05 49.95 43.3 49.05 M37.75 54.55 L39.6 55.35 41.35 56.1 44.95 57.65 44.2 59.2 44.05 59.4 34.5 54.8 34.45 54.65 35.05 53.4 36.7 54.1 37.75 54.55" fill="#d0a067" fill-rule="evenodd" stroke="none"/>
    <path d="M59.45 19.35 L59.05 21.7 48.9 20.35 48.55 17.85 48.6 17.9 48.6 17.85 59.45 19.35 M58.15 41.3 L57.7 43.65 47.55 42.3 47.25 39.8 47.25 39.85 47.25 39.8 48.95 40.0 56.3 41.05 58.15 41.3 M49.2 42.05 L50.8 42.3 49.15 41.3 49.2 42.05 M56.1 42.6 L56.15 41.9 52.05 41.25 56.1 42.6 M34.5 54.8 L44.05 59.4 43.9 62.2 34.9 57.9 35.0 57.75 34.5 54.8 M36.45 57.55 L40.75 58.4 36.4 56.4 36.45 57.55 M42.75 61.2 L42.8 59.8 38.9 59.15 42.75 61.2" fill="#8c612b" fill-rule="evenodd" stroke="none"/>
    <path d="M47.9 51.5 L48.65 49.9 48.15 53.15 48.2 53.2 43.9 62.2 44.05 59.4 44.1 59.4 44.2 59.2 44.95 57.65 47.9 51.5 M49.2 42.05 L49.15 41.3 50.8 42.3 49.2 42.05 M56.1 42.6 L52.05 41.25 56.15 41.9 56.1 42.6 M36.45 57.55 L36.4 56.4 40.75 58.4 36.45 57.55 M42.75 61.2 L38.9 59.15 42.8 59.8 42.75 61.2" fill="#6b491d" fill-rule="evenodd" stroke="none"/>
    <path d="M58.1 30.2 L57.8 31.9 56.15 31.6 50.2 30.6 50.4 29.15 58.1 30.2 M46.1 50.55 L47.9 51.5 44.95 57.65 41.35 56.1 40.55 53.35 39.75 50.55 39.25 48.85 36.7 54.1 35.05 53.4 38.35 46.45 42.1 48.45 42.55 50.65 43.15 53.4 43.55 55.45 46.1 50.55 M48.95 40.0 L49.15 38.4 50.95 38.6 56.6 39.3 56.3 41.05 48.95 40.0" fill="#bd8d53" fill-rule="evenodd" stroke="none"/>
    <path d="M50.2 30.6 L56.15 31.6 49.5 35.85 50.2 30.6 M42.1 48.45 L43.3 49.05 42.55 50.65 42.1 48.45 M45.05 49.95 L46.1 50.55 43.55 55.45 43.15 53.4 45.05 49.95 M56.6 39.3 L50.95 38.6 57.45 34.0 56.6 39.3 M39.75 50.55 L37.75 54.55 36.7 54.1 39.25 48.85 39.75 50.55 M39.6 55.35 L40.55 53.35 41.35 56.1 39.6 55.35" fill="#a37743" fill-rule="evenodd" stroke="none"/>
    <path d="M43.3 49.05 L45.05 49.95 43.15 53.4 42.55 50.65 43.3 49.05 M37.75 54.55 L39.75 50.55 40.55 53.35 39.6 55.35 37.75 54.55" fill="#9c7342" fill-rule="evenodd" stroke="none"/>
    <path d="M50.25 17.25 L49.65 17.15 50.9 8.05 59.95 9.3 59.7 11.45 51.4 10.35 50.25 17.25" fill="#5d3e17" fill-rule="evenodd" stroke="none"/>
    <path d="M50.25 17.25 L51.4 10.35 59.7 11.45 58.75 18.4 50.25 17.25" fill="#31200b" fill-rule="evenodd" stroke="none"/>
    <path d="M43.95 23.15 L41.65 23.65 39.15 22.5 43.35 21.55 43.95 23.15 M40.6 25.6 L42.8 26.9 38.4 28.3 37.7 26.2 40.6 25.6 M37.2 24.85 L36.65 23.3 38.65 24.45 37.2 24.85" fill="#a37743" fill-rule="evenodd" stroke="none"/>
    <path d="M41.65 23.65 L43.95 23.15 44.6 25.05 41.65 23.65 M43.35 21.55 L39.15 22.5 37.3 21.65 42.75 19.85 43.35 21.55 M37.7 26.2 L37.2 24.85 38.65 24.45 40.6 25.6 37.7 26.2" fill="#bd8d53" fill-rule="evenodd" stroke="none"/>
    <path d="M43.95 23.15 L43.35 21.55 42.75 19.85 37.3 21.65 39.15 22.5 41.65 23.65 44.6 25.05 43.95 23.15 M34.2 21.2 L34.15 20.8 44.35 17.3 47.9 27.6 47.7 27.7 37.6 31.1 37.55 31.0 34.2 21.2 M37.7 26.2 L38.4 28.3 42.8 26.9 40.6 25.6 38.65 24.45 36.65 23.3 37.2 24.85 37.7 26.2" fill="#d0a067" fill-rule="evenodd" stroke="none"/>
    <path d="M47.7 27.7 L46.85 31.1 46.9 31.25 37.75 34.4 37.55 31.0 37.6 31.1 47.7 27.7 M45.85 30.05 L42.45 31.9 45.75 30.75 45.85 30.05 M38.75 32.7 L44.45 29.6 38.75 31.45 38.75 32.7" fill="#8c612b" fill-rule="evenodd" stroke="none"/>
    <path d="M37.75 34.4 L37.7 34.4 34.5 25.2 34.6 25.2 34.2 21.2 37.55 31.0 37.75 34.4 M45.85 30.05 L45.75 30.75 42.45 31.9 45.85 30.05 M38.75 32.7 L38.75 31.45 44.45 29.6 38.75 32.7" fill="#6b491d" fill-rule="evenodd" stroke="none"/>
  </g>
</svg>
