<?xml version="1.0" encoding="UTF-8" standalone="no"?>
<svg xmlns:xlink="http://www.w3.org/1999/xlink" height="95.25px" width="89.65px" xmlns="http://www.w3.org/2000/svg">
  <g transform="matrix(1.0, 0.0, 0.0, 1.0, 44.8, 47.6)">
    <path d="M35.85 -27.6 L-34.7 -3.7 -39.8 -18.7 30.75 -42.6 35.85 -27.6" fill="#2a2a2a" fill-rule="evenodd" stroke="none"/>
    <path d="M35.85 -27.6 L-34.7 -3.7 -39.8 -18.7 30.75 -42.6 35.85 -27.6 Z" fill="none" stroke="#000000" stroke-linecap="round" stroke-linejoin="round" stroke-width="10.0"/>
    <path d="M39.85 42.65 L-34.7 42.65 -34.7 -3.65 39.85 -3.65 39.85 42.65" fill="#2a2a2a" fill-rule="evenodd" stroke="none"/>
    <path d="M39.85 42.65 L-34.7 42.65 -34.7 -3.65 39.85 -3.65 39.85 42.65 Z" fill="none" stroke="#000000" stroke-linecap="round" stroke-linejoin="round" stroke-width="10.0"/>
    <path d="M35.85 -27.6 L-34.7 -3.7 -39.8 -18.7 30.75 -42.6 35.85 -27.6" fill="#2a2a2a" fill-rule="evenodd" stroke="none"/>
    <path d="M39.85 42.65 L-34.7 42.65 -34.7 -3.65 39.85 -3.65 39.85 42.65" fill="#2a2a2a" fill-rule="evenodd" stroke="none"/>
    <path d="M10.4 -35.7 L23.6 -40.2 25.0 -23.95 11.85 -19.5 10.4 -35.7 M-2.8 -31.25 L-1.4 -15.0 -14.55 -10.55 -16.0 -26.75 -2.8 -31.25 M-27.8 -6.05 L-34.7 -3.7 -39.8 -18.7 -29.2 -22.3 -27.8 -6.05" fill="#ffffff" fill-rule="evenodd" stroke="none"/>
    <path d="M-27.1 -3.7 L-23.2 12.15 -9.3 12.15 -13.15 -3.7 -27.1 -3.7 M4.65 12.15 L18.55 12.15 14.7 -3.7 0.75 -3.7 4.65 12.15 M32.55 12.15 L39.85 12.15 39.85 -3.7 28.65 -3.7 32.55 12.15" fill="#ffffff" fill-rule="evenodd" stroke="none"/>
  </g>
</svg>
