<?xml version="1.0" encoding="UTF-8" standalone="no"?>
<svg xmlns:xlink="http://www.w3.org/1999/xlink" height="62.2px" width="53.65px" xmlns="http://www.w3.org/2000/svg">
  <g transform="matrix(1.0, 0.0, 0.0, 1.0, 26.85, 31.1)">
    <path d="M19.0 -29.1 L19.0 22.85 -19.4 22.85 -19.4 -29.1 19.0 -29.1" fill="#727272" fill-rule="evenodd" stroke="none"/>
    <path d="M11.25 -28.4 L11.25 23.5 13.1 23.5 13.1 -28.4 11.25 -28.4 M-0.75 -28.4 L-0.75 23.5 6.8 23.5 6.8 -28.4 -0.75 -28.4" fill="#ffffff" fill-opacity="0.65882355" fill-rule="evenodd" stroke="none"/>
    <path d="M-10.65 -28.4 L-10.65 23.5 -19.4 23.5 -19.4 -28.4 -10.65 -28.4" fill="#564f4f" fill-rule="evenodd" stroke="none"/>
    <path d="M19.0 -29.1 L19.0 22.85 -19.4 22.85 -19.4 -29.1 19.0 -29.1 Z" fill="none" stroke="#2e2d2d" stroke-linecap="round" stroke-linejoin="round" stroke-width="4.0"/>
    <path d="M24.8 -1.95 L24.8 29.1 -24.85 29.1 -24.85 -1.95 24.8 -1.95" fill="#fc65af" fill-rule="evenodd" stroke="none"/>
    <path d="M16.6 -2.35 L16.6 28.75 19.0 28.75 19.0 -2.35 16.6 -2.35 M1.05 -2.35 L1.05 28.75 10.8 28.75 10.8 -2.35 1.05 -2.35" fill="#ffffff" fill-opacity="0.65882355" fill-rule="evenodd" stroke="none"/>
    <path d="M-13.55 -2.35 L-13.55 28.75 -24.85 28.75 -24.85 -2.35 -13.55 -2.35" fill="#b13d78" fill-rule="evenodd" stroke="none"/>
    <path d="M24.8 -1.95 L24.8 29.1 -24.85 29.1 -24.85 -1.95 24.8 -1.95 Z" fill="none" stroke="#560b30" stroke-linecap="round" stroke-linejoin="round" stroke-width="4.0"/>
  </g>
</svg>
