<?xml version="1.0" encoding="UTF-8" standalone="no"?>
<svg xmlns:xlink="http://www.w3.org/1999/xlink" height="51.45px" width="45.1px" xmlns="http://www.w3.org/2000/svg">
  <g transform="matrix(1.0, 0.0, 0.0, 1.0, 22.55, 20.85)">
    <path d="M-8.3 5.75 Q-7.6 5.25 -6.4 4.95 -3.7 4.2 0.05 4.2 3.95 4.2 6.65 4.95 L8.25 5.55 9.05 7.25 Q8.4 7.95 6.65 8.45 L0.05 9.15 -6.4 8.45 Q-8.45 7.9 -8.9 7.15 L-8.3 5.75 M-6.8 9.7 Q-5.85 10.05 -5.85 10.85 -5.85 11.85 -6.75 11.85 -7.6 11.85 -7.8 11.15 L-7.8 10.6 Q-7.8 9.4 -6.8 9.7 M-3.5 7.95 Q-2.8 7.95 -3.0 7.8 L-2.75 6.85 Q-2.75 6.15 -3.5 6.3 -4.3 6.4 -4.3 7.0 L-4.15 7.8 -3.5 7.95 M-0.85 13.75 L-1.0 13.15 -2.25 13.15 -2.35 13.6 -2.1 14.2 -1.45 14.7 Q-0.8 14.7 -0.9 14.35 L-0.85 13.75 M-0.6 13.55 L-0.8 14.95 Q-1.1 15.5 -1.9 15.5 -2.8 15.5 -3.05 14.7 L-3.25 13.85 Q-3.25 13.15 -1.9 12.9 -0.6 12.75 -0.6 13.55 M-7.05 16.65 L-7.25 17.25 Q-7.55 17.7 -8.45 17.7 L-9.55 17.6 -9.7 15.6 -9.65 14.95 -8.75 14.8 -9.0 15.6 -8.95 16.15 Q-8.65 16.9 -7.65 16.9 -7.0 16.9 -7.1 16.65 L-7.05 16.65 M-7.75 14.9 L-7.2 15.05 Q-7.05 15.3 -7.05 16.05 -7.1 15.2 -7.75 14.9 M-5.35 21.8 L-5.85 21.2 Q-6.45 20.85 -7.05 20.85 L-7.1 21.45 -6.7 22.0 -5.95 22.55 -5.4 22.35 -5.35 22.25 Q-5.35 23.05 -5.5 23.25 -5.7 23.55 -6.45 23.55 -7.6 23.55 -7.85 22.55 L-7.9 21.75 Q-7.9 20.7 -6.55 20.7 -5.5 20.6 -5.35 21.8 M5.0 13.15 L4.75 13.3 3.5 12.55 Q3.95 11.4 4.6 11.75 4.05 11.95 3.75 12.35 L4.3 12.85 5.0 13.15 M9.6 15.3 L9.05 15.35 Q8.5 15.35 8.15 14.8 L7.95 14.2 Q7.95 13.35 8.6 13.35 9.35 13.35 9.75 14.35 L9.75 14.45 9.7 14.35 Q9.35 14.35 9.15 14.55 9.15 15.2 9.6 15.3 M2.6 22.85 L2.2 23.6 1.5 23.9 Q0.75 23.9 0.45 23.55 L0.15 22.9 0.2 22.35 1.4 22.25 2.3 22.9 2.6 22.85 M7.8 19.0 L7.95 19.0 8.05 19.2 7.8 19.0 M8.1 19.5 Q8.1 20.3 7.15 20.85 L6.4 19.9 Q6.4 19.2 6.65 19.05 L6.75 19.0 Q6.75 19.75 7.45 19.9 L8.1 19.5" fill="#9bd919" fill-rule="evenodd" stroke="none"/>
    <path d="M9.05 7.25 L15.85 22.5 Q15.9 21.95 16.15 22.3 L16.5 23.15 Q16.5 25.0 11.65 26.3 6.8 27.4 0.0 27.35 L-0.55 27.35 Q-7.05 27.3 -11.7 26.05 -16.55 24.75 -16.55 23.0 L-16.1 21.95 -15.35 21.45 -8.9 7.15 Q-8.45 7.9 -6.4 8.45 L0.05 9.15 6.65 8.45 Q8.4 7.95 9.05 7.25 M-6.8 9.7 Q-7.8 9.4 -7.8 10.6 L-7.8 11.15 Q-7.6 11.85 -6.75 11.85 -5.85 11.85 -5.85 10.85 -5.85 10.05 -6.8 9.7 M-8.75 14.8 L-9.65 14.95 -9.7 15.6 -9.55 17.6 -8.45 17.7 Q-7.55 17.7 -7.25 17.25 L-7.05 16.65 -7.05 16.15 -7.05 16.05 Q-7.05 15.3 -7.2 15.05 L-7.75 14.9 -8.05 14.75 -8.75 14.8 M-0.6 13.55 Q-0.6 12.75 -1.9 12.9 -3.25 13.15 -3.25 13.85 L-3.05 14.7 Q-2.8 15.5 -1.9 15.5 -1.1 15.5 -0.8 14.95 L-0.6 13.55 M-5.35 21.8 Q-5.5 20.6 -6.55 20.7 -7.9 20.7 -7.9 21.75 L-7.85 22.55 Q-7.6 23.55 -6.45 23.55 -5.7 23.55 -5.5 23.25 -5.35 23.05 -5.35 22.25 L-5.25 22.0 -5.35 21.8 M5.0 13.15 L5.4 13.05 5.55 12.05 5.45 11.55 4.6 11.75 Q3.95 11.4 3.5 12.55 L4.75 13.3 5.0 13.15 M9.75 14.45 L9.75 14.35 Q9.35 13.35 8.6 13.35 7.95 13.35 7.95 14.2 L8.15 14.8 Q8.5 15.35 9.05 15.35 L9.6 15.3 9.95 14.95 9.75 14.45 M1.4 22.25 L0.2 22.35 0.15 22.9 0.45 23.55 Q0.75 23.9 1.5 23.9 L2.2 23.6 2.6 22.85 2.9 22.7 2.95 22.2 2.85 21.7 Q1.4 21.45 1.4 22.2 L1.4 22.25 M9.3 20.6 L8.9 21.1 9.1 21.7 9.6 21.8 10.15 21.55 10.5 20.85 10.4 20.35 9.3 20.6 M8.05 19.2 L7.95 19.0 7.8 19.0 7.45 18.6 6.8 19.0 6.75 19.0 6.65 19.05 Q6.4 19.2 6.4 19.9 L7.15 20.85 Q8.1 20.3 8.1 19.5 L8.15 19.35 8.05 19.2" fill="#719f12" fill-rule="evenodd" stroke="none"/>
    <path d="M5.45 -17.4 L5.6 -7.0 21.05 24.05 Q21.55 24.45 21.55 25.0 21.55 26.95 15.25 28.25 8.95 29.6 0.0 29.6 L-0.65 29.6 Q-9.15 29.55 -15.3 28.25 -21.55 26.95 -21.55 25.0 -21.55 24.4 -20.95 23.9 L-5.4 -7.0 -5.4 -17.0 -4.7 -16.75 -0.3 -16.25 4.0 -16.75 Q5.05 -17.1 5.45 -17.4 M8.25 5.55 L3.3 -5.5 3.3 -14.85 Q-1.35 -13.3 -3.25 -14.9 L-3.25 -5.5 -8.3 5.75 -8.9 7.15 -15.35 21.45 -16.1 21.95 -16.55 23.0 Q-16.55 24.75 -11.7 26.05 -7.05 27.3 -0.55 27.35 L0.0 27.35 Q6.8 27.4 11.65 26.3 16.5 25.0 16.5 23.15 L16.15 22.3 Q15.9 21.95 15.85 22.5 L9.05 7.25 8.25 5.55" fill="#d4f6ff" fill-rule="evenodd" stroke="none"/>
    <path d="M-5.4 -17.0 Q-6.45 -17.4 -6.45 -18.05 -6.45 -18.65 -5.4 -19.05 L-4.7 -19.3 -0.3 -19.85 4.0 -19.3 4.75 -19.05 Q5.8 -18.65 5.8 -18.05 5.8 -17.7 5.45 -17.4 5.05 -17.1 4.0 -16.75 L-0.3 -16.25 -4.7 -16.75 -5.4 -17.0 M2.6 -17.55 L3.55 -17.85 3.85 -18.05 3.0 -18.45 2.6 -18.5 -0.4 -18.7 -3.35 -18.5 -3.75 -18.45 -4.55 -18.05 Q-4.55 -17.85 -3.75 -17.65 L-3.35 -17.55 -0.4 -17.35 2.6 -17.55" fill="#f0fcff" fill-rule="evenodd" stroke="none"/>
    <path d="M2.6 -17.55 L-0.4 -17.35 -3.35 -17.55 -3.75 -17.65 Q-4.55 -17.85 -4.55 -18.05 L-3.75 -18.45 -3.35 -18.5 -0.4 -18.7 2.6 -18.5 3.0 -18.45 3.85 -18.05 3.55 -17.85 2.6 -17.55" fill="#9bbdc8" fill-rule="evenodd" stroke="none"/>
    <path d="M-3.5 7.95 L-4.15 7.8 -4.3 7.0 Q-4.3 6.4 -3.5 6.3 -2.75 6.15 -2.75 6.85 L-3.0 7.8 Q-2.8 7.95 -3.5 7.95" fill="#6c9302" fill-rule="evenodd" stroke="none"/>
    <path d="M-0.85 13.75 L-0.9 14.35 Q-0.8 14.7 -1.45 14.7 L-2.1 14.2 -2.35 13.6 -2.25 13.15 -1.0 13.15 -0.85 13.75 M-8.75 14.8 L-8.05 14.75 -7.75 14.9 Q-7.1 15.2 -7.05 16.05 L-7.05 16.15 -7.05 16.65 -7.1 16.65 Q-7.0 16.9 -7.65 16.9 -8.65 16.9 -8.95 16.15 L-9.0 15.6 -8.75 14.8 M-5.35 22.25 L-5.4 22.35 -5.95 22.55 -6.7 22.0 -7.1 21.45 -7.05 20.85 Q-6.45 20.85 -5.85 21.2 L-5.35 21.8 -5.25 22.0 -5.35 22.25 M4.6 11.75 L5.45 11.55 5.55 12.05 5.4 13.05 5.0 13.15 4.3 12.85 3.75 12.35 Q4.05 11.95 4.6 11.75 M9.75 14.45 L9.95 14.95 9.6 15.3 Q9.15 15.2 9.15 14.55 9.35 14.35 9.7 14.35 L9.75 14.45 M2.6 22.85 L2.3 22.9 1.4 22.25 1.4 22.2 Q1.4 21.45 2.85 21.7 L2.95 22.2 2.9 22.7 2.6 22.85 M9.3 20.6 L10.4 20.35 10.5 20.85 10.15 21.55 9.6 21.8 9.1 21.7 8.9 21.1 9.3 20.6 M7.8 19.0 L8.05 19.2 8.15 19.35 8.1 19.5 7.45 19.9 Q6.75 19.75 6.75 19.0 L6.8 19.0 7.45 18.6 7.8 19.0" fill="#afe839" fill-rule="evenodd" stroke="none"/>
    <path d="M-8.3 5.75 L-3.25 -5.5 -3.25 -14.9 Q-1.35 -13.3 3.3 -14.85 L3.3 -5.5 8.25 5.55 6.65 4.95 Q3.95 4.2 0.05 4.2 -3.7 4.2 -6.4 4.95 -7.6 5.25 -8.3 5.75" fill="url(#gradient0)" fill-rule="evenodd" stroke="none"/>
    <path d="M-5.4 -17.0 Q-6.45 -17.4 -6.45 -18.05 -6.45 -18.65 -5.4 -19.05 L-4.7 -19.3 -0.3 -19.85 4.0 -19.3 4.75 -19.05 Q5.8 -18.65 5.8 -18.05 5.8 -17.7 5.45 -17.4 L5.6 -7.0 21.05 24.05 Q21.55 24.45 21.55 25.0 21.55 26.95 15.25 28.25 8.95 29.6 0.0 29.6 L-0.65 29.6 Q-9.15 29.55 -15.3 28.25 -21.55 26.95 -21.55 25.0 -21.55 24.4 -20.95 23.9 L-5.4 -7.0 -5.4 -17.0 Z" fill="none" stroke="#2e2d2d" stroke-linecap="round" stroke-linejoin="round" stroke-width="2.0"/>
  </g>
  <defs>
    <linearGradient gradientTransform="matrix(0.0101, 0.0, 0.0, 0.0126, 0.0, -4.6)" gradientUnits="userSpaceOnUse" id="gradient0" spreadMethod="pad" x1="-819.2" x2="819.2">
      <stop offset="0.0" stop-color="#b0efff"/>
      <stop offset="0.00392156862745098" stop-color="#b0efff"/>
      <stop offset="0.00392156862745098" stop-color="#8cefff"/>
      <stop offset="0.8901960784313725" stop-color="#e6faff"/>
      <stop offset="1.0" stop-color="#8fefff"/>
    </linearGradient>
  </defs>
</svg>
