<?xml version="1.0" encoding="UTF-8" standalone="no"?>
<svg xmlns:xlink="http://www.w3.org/1999/xlink" height="28.35px" width="28.85px" xmlns="http://www.w3.org/2000/svg">
  <g transform="matrix(1.0, 0.0, 0.0, 1.0, 14.4, 14.15)">
    <path d="M-12.15 -8.0 L-12.15 -11.0 Q0.45 -13.25 12.45 -11.0 L12.45 -8.05 Q-0.1 -6.2 -12.15 -8.0" fill="#9d8637" fill-rule="evenodd" stroke="none"/>
    <path d="M12.45 -8.05 L12.45 11.0 Q0.05 13.4 -12.4 11.0 L-12.4 -8.05 -12.15 -8.0 Q-0.1 -6.2 12.45 -8.05 M3.0 6.0 L1.5 0.7 2.05 0.2 Q2.9 -0.6 2.9 -1.8 2.9 -3.0 2.05 -3.85 1.25 -4.65 0.05 -4.65 -1.15 -4.65 -2.0 -3.85 -2.8 -3.0 -2.8 -1.8 -2.8 -0.6 -2.0 0.2 L-1.2 0.8 -2.55 6.1 -3.2 8.4 3.7 8.45 3.0 6.0" fill="#c6ab42" fill-rule="evenodd" stroke="none"/>
    <path d="M-2.55 6.1 L-1.2 0.8 -2.0 0.2 Q-2.8 -0.6 -2.8 -1.8 -2.8 -3.0 -2.0 -3.85 -1.15 -4.65 0.05 -4.65 1.25 -4.65 2.05 -3.85 2.9 -3.0 2.9 -1.8 2.9 -0.6 2.05 0.2 L1.5 0.7 3.0 6.0 -2.55 6.1" fill="#302810" fill-rule="evenodd" stroke="none"/>
    <path d="M-2.55 6.1 L3.0 6.0 3.7 8.45 -3.2 8.4 -2.55 6.1" fill="#766529" fill-rule="evenodd" stroke="none"/>
    <path d="M-12.15 -8.0 L-12.15 -11.0 Q0.45 -13.25 12.45 -11.0 L12.45 -8.05 12.45 11.0 Q0.05 13.4 -12.4 11.0 L-12.4 -8.05 -12.15 -8.0 Q-0.1 -6.2 12.45 -8.05 M3.0 6.0 L1.5 0.7 2.05 0.2 Q2.9 -0.6 2.9 -1.8 2.9 -3.0 2.05 -3.85 1.25 -4.65 0.05 -4.65 -1.15 -4.65 -2.0 -3.85 -2.8 -3.0 -2.8 -1.8 -2.8 -0.6 -2.0 0.2 L-1.2 0.8 -2.55 6.1 3.0 6.0 3.7 8.45 -3.2 8.4 -2.55 6.1" fill="none" stroke="#000000" stroke-linecap="round" stroke-linejoin="round" stroke-width="4.0"/>
    <path d="M-12.15 -8.0 L-12.15 -11.0 Q0.45 -13.25 12.45 -11.0 L12.45 -8.05 Q-0.1 -6.2 -12.15 -8.0" fill="#9d8637" fill-rule="evenodd" stroke="none"/>
    <path d="M12.45 -8.05 L12.45 11.0 Q0.05 13.4 -12.4 11.0 L-12.4 -8.05 -12.15 -8.0 Q-0.1 -6.2 12.45 -8.05 M3.0 6.0 L1.5 0.7 2.05 0.2 Q2.9 -0.6 2.9 -1.8 2.9 -3.0 2.05 -3.85 1.25 -4.65 0.05 -4.65 -1.15 -4.65 -2.0 -3.85 -2.8 -3.0 -2.8 -1.8 -2.8 -0.6 -2.0 0.2 L-1.2 0.8 -2.55 6.1 -3.2 8.4 3.7 8.45 3.0 6.0" fill="#c6ab42" fill-rule="evenodd" stroke="none"/>
    <path d="M-2.55 6.1 L-1.2 0.8 -2.0 0.2 Q-2.8 -0.6 -2.8 -1.8 -2.8 -3.0 -2.0 -3.85 -1.15 -4.65 0.05 -4.65 1.25 -4.65 2.05 -3.85 2.9 -3.0 2.9 -1.8 2.9 -0.6 2.05 0.2 L1.5 0.7 3.0 6.0 -2.55 6.1" fill="#302810" fill-rule="evenodd" stroke="none"/>
    <path d="M-2.55 6.1 L3.0 6.0 3.7 8.45 -3.2 8.4 -2.55 6.1" fill="#766529" fill-rule="evenodd" stroke="none"/>
  </g>
</svg>
