<?xml version="1.0" encoding="UTF-8" standalone="no"?>
<svg xmlns:xlink="http://www.w3.org/1999/xlink" height="213.9px" width="351.85px" xmlns="http://www.w3.org/2000/svg">
  <g transform="matrix(1.0, 0.0, 0.0, 1.0, 400.3, 70.8)">
    <path d="M-395.05 24.85 L-142.95 24.85 Q-141.55 28.85 -141.05 32.95 -137.25 32.8 -133.25 33.8 L-129.5 35.0 Q-126.25 29.55 -120.45 26.05 -116.3 23.55 -111.9 22.7 L-111.9 104.35 -65.5 104.35 Q-68.55 111.75 -75.0 116.7 L-75.55 119.35 Q-78.1 129.55 -87.15 134.95 -96.2 140.35 -106.4 137.75 -116.55 135.2 -121.9 126.15 -123.35 123.85 -124.2 121.45 L-127.6 123.8 Q-137.8 129.85 -149.3 126.95 -160.8 124.05 -166.85 113.9 L-168.6 110.5 Q-172.9 116.6 -179.8 120.7 -192.7 128.4 -207.25 124.75 -221.8 121.1 -229.5 108.2 -232.15 103.75 -233.45 99.15 L-235.65 100.6 Q-243.95 105.55 -253.35 103.2 -262.7 100.85 -267.6 92.55 -271.75 85.6 -270.8 77.95 -279.1 80.95 -288.2 78.65 -299.05 75.9 -305.3 67.05 -309.5 72.0 -315.5 75.55 -329.55 83.95 -345.4 79.95 -361.2 75.95 -369.6 61.9 -375.45 52.1 -375.25 41.5 -387.8 37.1 -394.85 25.25 L-395.05 24.85" fill="#66676b" fill-rule="evenodd" stroke="none"/>
    <path d="M-65.5 104.35 Q-68.55 111.75 -75.0 116.7 L-75.55 119.35 Q-78.1 129.55 -87.15 134.95 -96.2 140.35 -106.4 137.75 -116.55 135.2 -121.9 126.15 -123.35 123.85 -124.2 121.45 L-127.6 123.8 Q-137.8 129.85 -149.3 126.95 -160.8 124.05 -166.85 113.9 L-168.6 110.5 Q-172.9 116.6 -179.8 120.7 -192.7 128.4 -207.25 124.75 -221.8 121.1 -229.5 108.2 -232.15 103.75 -233.45 99.15 L-235.65 100.6 Q-243.95 105.55 -253.35 103.2 -262.7 100.85 -267.6 92.55 -271.75 85.6 -270.8 77.95 -279.1 80.95 -288.2 78.65 -299.05 75.9 -305.3 67.05 -309.5 72.0 -315.5 75.55 -329.55 83.95 -345.4 79.95 -361.2 75.95 -369.6 61.9 -375.45 52.1 -375.25 41.5 -387.8 37.1 -394.85 25.25 L-395.05 24.85" fill="none" stroke="#000000" stroke-linecap="round" stroke-linejoin="round" stroke-width="9.0"/>
    <path d="M-207.0 -47.85 Q-193.4 -56.0 -178.05 -52.1 -162.65 -48.2 -154.6 -34.65 -146.45 -21.05 -150.35 -5.7 -152.1 1.25 -155.75 6.7 -150.35 11.0 -146.45 17.5 -142.0 24.95 -141.05 32.95 -137.25 32.8 -133.25 33.8 L-129.5 35.0 Q-126.25 29.55 -120.45 26.05 -110.95 20.4 -100.3 23.1 L-99.55 23.35 -98.5 22.7 Q-86.75 15.7 -73.5 19.05 -60.25 22.4 -53.2 34.1 -46.2 45.9 -49.55 59.15 -52.9 72.4 -64.65 79.4 L-65.65 79.95 Q-61.45 89.4 -64.05 99.85 -66.7 110.35 -75.0 116.7 L-75.55 119.35 Q-78.1 129.55 -87.15 134.95 -96.2 140.35 -106.4 137.75 -116.55 135.2 -121.9 126.15 -123.35 123.85 -124.2 121.45 L-127.6 123.8 Q-137.8 129.85 -149.3 126.95 -160.8 124.05 -166.85 113.9 L-168.6 110.5 Q-172.9 116.6 -179.8 120.7 -192.7 128.4 -207.25 124.75 -221.8 121.1 -229.5 108.2 -232.15 103.75 -233.45 99.15 L-235.65 100.6 Q-243.95 105.55 -253.35 103.2 -262.7 100.85 -267.6 92.55 -271.75 85.6 -270.8 77.95 -279.1 80.95 -288.2 78.65 -299.05 75.9 -305.3 67.05 -309.5 72.0 -315.5 75.55 -329.55 83.95 -345.4 79.95 -361.2 75.95 -369.6 61.9 -375.45 52.1 -375.25 41.5 -387.8 37.1 -394.85 25.25 -402.9 11.8 -399.1 -3.35 -395.25 -18.55 -381.8 -26.6 -368.35 -34.6 -353.15 -30.75 -349.95 -29.95 -347.05 -28.75 -342.7 -37.8 -333.55 -43.35 -320.9 -50.8 -306.7 -47.2 -301.45 -45.9 -297.15 -43.35 -296.95 -46.2 -296.2 -49.15 -293.35 -60.6 -283.2 -66.7 -273.05 -72.75 -261.6 -69.85 -254.5 -68.1 -249.4 -63.45 -247.6 -65.2 -245.3 -66.55 -236.4 -71.8 -226.4 -69.3 -216.35 -66.75 -211.1 -57.95 -208.1 -52.85 -207.55 -47.5 L-207.0 -47.85" fill="#66676b" fill-rule="evenodd" stroke="none"/>
    <path d="M-286.75 -14.3 Q-280.15 -16.45 -273.0 -14.65 -262.8 -12.05 -257.45 -3.1 -256.0 -0.65 -255.1 1.85 -253.1 -0.25 -250.45 -1.85 -243.05 -6.3 -234.75 -4.2 -226.45 -2.1 -222.05 5.3 -217.9 12.3 -219.55 20.15 -225.85 19.9 -231.7 23.4 -235.9 25.85 -238.5 29.45 -242.65 26.55 -247.95 25.2 -259.35 22.3 -269.45 28.4 -279.55 34.4 -282.45 45.8 L-282.85 47.8 Q-286.5 48.75 -290.4 47.8 -296.5 46.25 -299.8 40.75 -301.45 37.9 -301.85 34.9 -303.95 39.9 -308.9 42.85 -315.05 46.5 -321.95 44.75 -328.9 43.0 -332.65 36.85 -336.2 30.85 -334.6 24.05 -339.8 20.4 -343.35 14.45 -350.05 3.15 -346.85 -9.65 -343.65 -22.4 -332.35 -29.15 -321.05 -35.9 -308.3 -32.65 -295.55 -29.45 -288.75 -18.2 L-286.75 -14.3" fill="#75777f" fill-rule="evenodd" stroke="none"/>
    <path d="M-260.1 40.75 Q-252.9 36.5 -244.85 38.5 -238.85 40.05 -234.95 44.35 L-234.6 42.35 Q-233.25 37.0 -228.55 34.15 -223.85 31.4 -218.5 32.7 -213.15 34.05 -210.35 38.75 -207.5 43.45 -208.85 48.8 -209.95 53.2 -213.3 55.9 -210.25 58.15 -208.15 61.65 -203.95 68.75 -205.95 76.75 -207.95 84.75 -215.05 88.95 -222.15 93.2 -230.15 91.15 -238.15 89.15 -242.35 82.05 -243.75 79.8 -244.45 77.45 -249.35 78.85 -254.7 77.5 -262.75 75.5 -267.05 68.3 -271.3 61.15 -269.3 53.1 -267.25 45.0 -260.1 40.75" fill="#75777f" fill-rule="evenodd" stroke="none"/>
    <path d="M-155.25 7.2 Q-150.15 11.35 -146.5 17.5 -142.05 25.0 -141.05 32.95 -137.25 32.85 -133.3 33.85 -131.35 34.35 -129.55 35.0 -126.3 29.6 -120.4 26.05 -110.95 20.45 -100.3 23.15 L-99.6 23.3 -98.55 22.65 Q-86.8 15.7 -73.55 19.05 -60.25 22.4 -53.25 34.1 -48.8 41.6 -48.5 49.65 -50.4 51.6 -52.9 53.0 -58.2 56.2 -64.05 55.95 -62.8 60.75 -64.1 65.85 -66.15 73.95 -73.3 78.2 -75.35 79.4 -77.5 80.15 L-76.95 81.05 Q-72.65 88.25 -74.7 96.35 -76.75 104.45 -83.95 108.7 L-84.3 108.9 -86.0 105.6 Q-92.0 95.65 -103.2 92.8 -114.45 90.0 -124.4 95.95 -128.2 98.2 -130.95 101.35 -131.8 101.05 -132.6 100.85 -136.1 99.95 -139.35 100.1 -140.3 97.35 -141.9 94.65 -147.7 85.0 -158.6 82.25 -168.1 79.85 -176.55 83.9 -174.8 80.8 -173.9 77.2 -171.35 67.05 -176.75 58.05 -179.35 53.55 -183.3 50.7 -179.0 47.3 -177.6 41.75 -175.9 34.95 -179.5 28.95 -183.1 23.0 -189.85 21.3 L-193.65 20.7 Q-190.35 12.5 -182.4 7.75 -172.7 1.95 -161.7 4.75 -158.2 5.6 -155.25 7.2" fill="#75777f" fill-rule="evenodd" stroke="none"/>
    <path d="M-211.15 -57.9 Q-208.1 -52.9 -207.6 -47.5 L-207.0 -47.85 Q-193.45 -56.0 -178.1 -52.1 -162.7 -48.25 -154.55 -34.65 -148.2 -24.0 -149.25 -12.25 -152.5 -9.1 -156.75 -6.6 L-157.85 -5.9 -161.45 -9.3 Q-164.4 -10.9 -167.9 -11.8 -178.9 -14.55 -188.6 -8.75 L-191.1 -7.05 -191.95 -8.65 Q-196.4 -16.05 -204.7 -18.15 -213.0 -20.25 -220.35 -15.8 -223.05 -14.25 -225.0 -12.1 -225.9 -14.6 -227.35 -17.05 -232.75 -26.05 -242.9 -28.65 -250.1 -30.45 -256.7 -28.3 L-258.7 -32.15 Q-264.35 -41.65 -274.25 -45.4 -272.25 -52.2 -266.1 -55.85 -259.55 -59.8 -252.1 -57.9 -245.15 -56.15 -241.25 -50.35 -237.8 -56.25 -231.45 -60.1 -224.15 -64.45 -216.2 -64.1 -213.25 -61.5 -211.15 -57.9" fill="#75777f" fill-rule="evenodd" stroke="none"/>
  </g>
</svg>
