<?xml version="1.0" encoding="UTF-8" standalone="no"?>
<svg xmlns:xlink="http://www.w3.org/1999/xlink" height="51.55px" width="56.85px" xmlns="http://www.w3.org/2000/svg">
  <g transform="matrix(1.0, 0.0, 0.0, 1.0, 28.4, 25.75)">
    <path d="M-0.15 -21.7 Q10.0 -21.15 17.25 -14.25 24.6 -7.35 24.45 1.9 24.3 11.1 16.7 16.95 9.15 22.6 -1.05 21.7 -11.15 20.55 -17.9 13.6 -24.6 6.75 -24.4 -2.0 L-24.15 -4.3 Q-23.25 -11.55 -17.2 -16.4 -10.15 -22.25 -0.15 -21.7" fill="#70381f" fill-rule="evenodd" stroke="none"/>
    <path d="M-0.15 -21.7 Q10.0 -21.15 17.25 -14.25 24.6 -7.35 24.45 1.9 24.3 11.1 16.7 16.95 9.15 22.6 -1.05 21.7 -11.15 20.55 -17.9 13.6 -24.6 6.75 -24.4 -2.0 L-24.15 -4.3 Q-23.25 -11.55 -17.2 -16.4 -10.15 -22.25 -0.15 -21.7 Z" fill="none" stroke="#954900" stroke-linecap="round" stroke-linejoin="round" stroke-width="8.0"/>
    <path d="M-0.15 -21.7 Q10.0 -21.15 17.25 -14.25 24.6 -7.35 24.45 1.9 24.3 11.1 16.7 16.95 9.15 22.6 -1.05 21.7 -11.15 20.55 -17.9 13.6 -24.6 6.75 -24.4 -2.0 L-24.15 -4.3 Q-23.25 -11.55 -17.2 -16.4 -10.15 -22.25 -0.15 -21.7" fill="#d99209" fill-rule="evenodd" stroke="none"/>
    <path d="M7.8 -10.2 Q13.2 -5.15 13.05 1.6 12.95 8.3 7.4 12.6 1.9 16.7 -5.5 16.05 -12.9 15.15 -17.8 10.1 -22.7 5.1 -22.55 -1.25 L-22.35 -2.9 Q-21.7 -8.25 -17.3 -11.8 -12.15 -16.0 -4.85 -15.6 2.55 -15.25 7.8 -10.2" fill="#bf7926" fill-rule="evenodd" stroke="none"/>
    <path d="M-15.35 17.05 L-15.0 16.2 -17.9 13.6 Q-24.6 6.75 -24.4 -2.0 L-24.15 -4.3 Q-23.25 -11.55 -17.2 -16.4 -11.4 -21.2 -3.6 -21.7 -6.6 -6.9 -11.25 6.5 L-15.35 17.05" fill="#620000" fill-opacity="0.2" fill-rule="evenodd" stroke="none"/>
  </g>
</svg>
