<?xml version="1.0" encoding="UTF-8" standalone="no"?>
<svg xmlns:xlink="http://www.w3.org/1999/xlink" height="189.6px" width="182.6px" xmlns="http://www.w3.org/2000/svg">
  <g transform="matrix(1.0, 0.0, 0.0, 1.0, 97.95, 121.85)">
    <path d="M73.8 -88.4 Q87.9 -54.7 83.65 -9.7 82.0 7.85 77.8 23.55 74.0 37.6 69.65 45.3 65.95 51.95 48.5 57.65 32.7 62.75 10.75 65.55 -10.75 68.3 -28.7 67.65 -47.8 66.95 -54.85 62.55 -62.3 57.95 -70.95 45.0 -79.9 31.65 -86.6 14.5 -103.05 -27.75 -95.7 -62.25 -91.5 -81.6 -68.1 -97.7 -45.95 -112.85 -16.5 -118.85 14.05 -125.1 37.8 -118.25 64.45 -110.6 73.8 -88.4" fill="#70381f" fill-rule="evenodd" stroke="none"/>
  </g>
</svg>
