<?xml version="1.0" encoding="UTF-8" standalone="no"?>
<svg xmlns:xlink="http://www.w3.org/1999/xlink" height="73.3px" width="62.4px" xmlns="http://www.w3.org/2000/svg">
  <g transform="matrix(1.0, 0.0, 0.0, 1.0, -0.8, 12.45)">
    <path d="M60.0 32.8 L56.25 32.8 56.25 37.05 60.0 37.05 60.0 32.8 M1.85 -3.8 Q1.85 -12.45 13.6 -12.45 L20.35 -12.45 50.45 -12.45 Q62.2 -12.45 62.2 -3.8 L62.2 54.45 60.0 54.45 60.0 51.5 Q57.1 56.25 50.45 56.25 L49.65 56.25 49.65 59.85 47.5 59.85 47.5 56.25 33.4 56.25 33.3 56.25 33.3 59.85 31.15 59.85 31.15 56.05 29.3 55.65 28.75 55.6 28.7 55.6 Q25.7 54.55 23.1 52.65 L18.65 54.95 17.95 55.25 16.45 55.8 16.45 59.85 14.3 59.85 14.3 56.25 13.6 56.25 Q6.8 56.25 3.95 51.3 L3.95 54.45 1.8 54.45 1.8 40.85 1.85 40.85 1.85 24.75 1.85 24.55 1.85 11.45 1.85 10.15 1.85 3.2 1.85 2.25 1.85 -3.8 M17.3 -3.5 L13.3 -2.95 13.3 0.6 11.15 0.6 11.15 -1.75 9.65 1.7 9.65 1.95 9.65 2.1 9.65 2.25 9.65 3.2 9.65 10.15 9.65 11.45 9.7 21.45 9.7 22.95 9.7 24.55 9.7 24.8 9.7 32.8 9.65 32.8 9.65 37.0 Q9.65 44.6 14.55 46.1 L16.9 46.5 17.1 46.5 17.35 46.5 16.0 44.25 Q12.55 40.8 12.55 36.4 12.55 30.55 18.8 26.3 23.05 23.5 28.75 22.6 L29.3 22.5 31.45 22.25 32.0 22.25 33.8 22.2 35.8 22.25 35.85 22.25 Q41.9 22.65 46.45 25.7 48.25 26.95 49.45 28.35 51.1 30.25 51.6 32.45 L51.6 35.95 51.4 36.9 51.35 37.2 50.55 38.8 48.8 41.0 48.0 41.7 47.15 42.4 46.65 42.8 46.45 42.9 46.15 43.15 45.3 43.65 44.7 44.0 44.25 44.25 41.15 46.5 46.8 46.5 Q54.5 46.5 54.5 37.0 L54.5 1.95 Q54.45 -0.55 52.85 -1.85 L52.85 0.6 50.65 0.6 50.65 -3.0 46.8 -3.5 40.65 -3.5 40.65 -0.9 38.5 -0.9 38.5 -3.5 25.35 -3.5 25.35 -0.9 23.15 -0.9 23.15 -3.5 17.3 -3.5 M46.1 28.75 Q47.3 30.15 47.7 31.95 L49.2 31.95 Q48.55 30.0 46.8 28.25 L46.1 28.75 M48.4 38.4 L45.9 38.4 45.15 39.2 43.65 40.3 43.6 40.4 43.5 40.45 43.35 40.5 45.1 41.7 Q47.25 40.2 48.4 38.4 M47.85 33.4 L47.85 33.5 Q47.85 35.35 46.95 37.0 L49.1 37.0 Q49.55 35.75 49.55 34.3 L49.5 33.4 47.85 33.4 M42.4 27.4 L40.8 26.5 40.65 26.45 39.8 26.05 38.85 25.7 37.15 25.35 37.3 25.35 36.75 25.2 35.1 25.0 34.85 25.0 34.2 24.95 33.65 24.95 33.45 24.95 32.25 25.0 32.05 25.0 31.85 25.0 31.7 25.0 30.25 25.15 29.85 25.25 Q25.75 25.85 22.7 27.95 18.25 30.95 18.25 35.15 18.25 39.4 22.7 42.4 L22.9 42.55 23.35 42.8 24.2 43.25 25.05 43.75 Q30.35 41.9 33.45 42.05 L33.5 42.05 Q38.7 42.05 42.4 39.45 L45.6 36.0 45.75 35.6 46.05 34.55 46.1 33.9 46.1 33.75 46.1 33.65 46.1 33.5 46.1 33.4 46.1 33.1 46.05 32.65 45.5 30.75 44.95 29.85 44.45 29.2 42.4 27.4 M44.9 26.75 L44.15 26.25 Q40.5 24.1 35.75 23.7 L35.7 23.7 35.5 23.7 34.65 23.7 33.8 23.7 32.25 23.7 32.0 23.7 31.75 23.75 31.55 23.75 29.75 23.9 29.7 23.9 29.25 24.0 Q24.15 24.8 20.3 27.35 L20.05 27.55 20.5 27.8 21.45 27.1 Q24.9 24.8 29.45 24.1 L29.9 24.0 31.65 23.8 32.0 23.8 33.45 23.75 34.05 23.75 34.4 23.75 Q38.9 23.95 42.4 25.85 L43.1 26.05 42.5 25.9 43.65 26.55 44.85 27.5 45.4 27.15 44.9 26.75 M40.7 41.95 L39.7 42.3 38.7 42.55 37.55 42.9 37.55 45.1 39.7 44.25 Q41.7 43.65 43.5 42.75 L41.7 41.5 40.7 41.95 M49.65 48.3 L49.65 53.5 49.9 53.5 49.9 48.25 49.65 48.3 M46.8 48.65 L44.45 48.65 44.45 53.5 47.5 53.5 47.5 48.65 46.8 48.65 M14.75 36.4 L14.8 37.0 16.7 37.0 16.5 35.15 16.7 33.45 15.25 33.45 Q14.75 34.8 14.75 36.4 M19.15 29.0 L18.65 28.65 Q16.85 30.15 15.9 31.95 L17.15 31.95 Q17.8 30.35 19.15 29.0 M54.15 45.35 L52.1 47.35 52.1 53.4 Q56.0 52.95 57.95 50.1 L54.15 45.35 M60.0 42.2 L60.0 42.1 60.0 41.65 60.0 39.65 56.1 39.65 Q55.9 41.65 55.35 43.05 L59.15 47.8 Q59.75 45.95 59.95 43.6 L60.0 42.2 M4.05 37.05 L7.9 37.05 7.9 32.8 4.05 32.8 4.05 37.05 M7.95 39.65 L4.05 39.65 4.05 41.65 Q4.05 45.15 4.9 47.65 L8.75 42.9 8.45 41.9 8.05 39.6 7.95 39.65 M17.3 48.65 L16.45 48.65 16.45 52.95 17.2 52.65 16.95 52.15 17.2 52.55 18.8 51.9 18.8 48.45 17.3 48.65 M14.3 48.25 L14.05 48.2 14.05 53.5 14.3 53.4 14.3 48.25 M19.7 41.9 L17.65 43.25 18.65 44.25 19.85 45.95 22.8 44.65 23.1 44.25 21.45 43.25 19.7 41.9 M18.2 40.25 L17.2 38.4 15.0 38.4 Q15.4 40.25 16.6 41.95 L17.55 41.3 18.55 40.65 18.2 40.25 M9.95 45.3 L6.05 50.0 Q8.0 52.9 11.85 53.4 L11.85 47.2 Q10.75 46.4 9.95 45.3 M24.9 45.8 Q24.85 45.8 24.75 45.9 L22.4 48.85 23.2 49.5 23.65 49.15 25.8 48.05 26.8 47.45 26.95 47.4 27.05 47.35 27.05 47.15 24.9 45.8 M30.25 46.1 Q32.25 45.5 33.8 45.65 L33.85 45.65 35.35 45.55 35.35 43.15 33.6 43.2 33.45 43.2 33.4 43.2 Q31.7 43.2 29.25 43.75 L29.25 45.8 29.85 46.0 30.25 46.1 M27.05 44.5 L26.85 44.65 27.05 44.8 27.05 44.5 M29.25 49.35 L29.25 52.75 29.2 52.9 29.7 53.05 31.15 53.3 31.15 48.75 29.75 49.15 29.25 49.35 M36.6 48.65 L36.6 53.5 42.25 53.5 42.25 48.65 36.6 48.65 M25.55 51.2 L27.05 52.05 27.05 50.35 25.55 51.2 M34.35 48.65 L33.3 48.65 33.3 53.5 33.4 53.5 34.35 53.5 34.35 48.65" fill="#000000" fill-opacity="0.3019608" fill-rule="evenodd" stroke="none"/>
    <path d="M12.3 -2.3 L12.95 -2.3 12.95 2.3 11.15 3.2 12.95 2.3 12.95 -2.3 12.95 -2.35 12.3 -2.3 11.15 -2.15 12.3 -2.3 M11.15 3.2 L11.15 -2.15 Q8.45 -1.75 6.75 -0.25 L10.6 3.6 10.6 3.65 11.15 3.2 M38.5 -2.35 L33.3 -2.35 33.3 1.6 38.5 1.6 40.05 1.6 40.05 -2.35 38.5 -2.35 40.05 -2.35 40.05 1.6 38.5 1.6 38.5 -2.35 M25.35 1.6 L31.1 1.6 31.1 -2.35 25.35 -2.35 23.85 -2.35 23.85 1.6 25.35 1.6 23.85 1.6 23.85 -2.35 25.35 -2.35 25.35 1.6 M21.7 -2.35 L15.15 -2.35 15.15 1.75 17.3 1.6 21.7 1.6 21.7 -2.35 M51.9 -2.3 L51.0 -2.35 51.0 -2.3 51.9 -2.3 52.85 -2.15 51.9 -2.3 M52.85 3.1 L53.45 3.55 57.25 -0.3 Q55.55 -1.75 52.85 -2.15 L52.85 3.1 Q52.0 2.55 50.95 2.2 L51.0 2.1 51.0 -2.3 51.0 2.1 50.95 2.2 Q52.0 2.55 52.85 3.1 M1.85 44.5 L1.85 7.25 Q1.85 -4.5 13.6 -4.5 L50.45 -4.5 Q62.2 -4.5 62.2 7.25 L62.2 45.75 Q62.05 50.4 60.0 53.15 62.05 50.4 62.2 45.75 L62.2 55.5 60.0 55.5 60.0 53.15 Q57.1 56.95 50.45 56.95 L49.65 56.95 47.5 56.95 49.65 56.95 49.65 59.85 47.5 59.85 47.5 56.95 33.4 56.95 33.3 56.95 31.15 56.8 33.3 56.95 33.3 59.85 31.15 59.85 31.15 56.8 29.3 56.5 28.75 56.4 28.7 56.4 Q25.7 55.6 23.1 54.05 20.8 52.65 18.8 50.65 L17.35 49.05 18.8 50.65 Q20.8 52.65 23.1 54.05 L18.65 55.9 16.45 56.55 14.3 56.95 16.45 56.55 16.45 59.85 14.3 59.85 14.3 56.95 13.6 56.95 Q6.8 56.95 3.95 53.0 1.85 50.1 1.85 45.1 L1.85 44.5 1.85 45.1 Q1.85 50.1 3.95 53.0 L3.95 55.5 1.8 55.5 1.8 44.5 1.85 44.5 M48.8 -2.35 L42.25 -2.35 42.25 1.6 46.8 1.6 48.8 1.75 48.8 -2.35 M17.2 54.05 L18.65 55.9 17.2 54.05 16.55 53.05 17.2 54.0 18.8 53.45 18.8 50.65 17.3 50.8 16.45 50.8 15.3 50.7 16.45 50.8 16.45 54.3 17.2 54.05 M14.3 54.7 L16.45 54.3 14.3 54.7 14.3 50.5 14.05 50.45 14.05 54.75 14.3 54.7 M14.55 48.75 L15.3 50.7 14.3 50.5 15.3 50.7 14.55 48.75 16.9 49.05 17.1 49.05 17.2 49.05 17.3 49.05 17.35 49.05 Q12.55 43.3 12.55 35.65 12.55 26.95 18.8 20.7 23.05 16.45 28.75 15.1 L29.3 15.0 31.45 14.65 32.0 14.6 33.8 14.5 35.8 14.6 35.85 14.6 Q41.9 15.25 46.45 19.8 48.25 21.6 49.45 23.65 47.0 21.7 44.15 20.6 47.0 21.7 49.45 23.65 51.8 27.65 51.8 32.55 51.8 35.4 51.0 37.95 L48.65 42.7 47.65 44.0 46.45 45.25 44.15 47.3 46.45 45.25 47.65 44.0 46.45 45.3 44.15 47.3 41.15 49.05 46.8 49.05 Q54.5 49.05 54.5 41.35 L54.5 11.0 Q54.5 7.45 52.85 5.55 52.0 4.55 50.65 4.0 52.0 4.55 52.85 5.55 L52.85 8.95 50.65 8.95 50.65 4.0 Q49.05 3.35 46.8 3.35 L40.65 3.35 38.5 3.35 40.65 3.35 40.65 6.85 38.5 6.85 38.5 3.35 25.35 3.35 23.15 3.35 25.35 3.35 25.35 6.85 23.15 6.85 23.15 3.35 17.3 3.35 Q14.95 3.35 13.3 4.1 12.0 4.65 11.15 5.75 12.0 4.65 13.3 4.1 L13.3 8.95 11.15 8.95 11.15 5.75 Q9.65 7.6 9.65 11.0 L9.65 41.35 Q9.65 47.5 14.55 48.75 M30.25 48.75 L33.15 49.05 41.15 49.05 33.15 49.05 30.25 48.75 33.8 48.35 33.85 48.35 35.35 48.3 35.35 45.65 33.6 45.75 33.45 45.75 33.4 45.75 Q31.7 45.7 29.25 46.55 L29.25 48.5 29.85 48.65 29.8 48.65 30.25 48.75 M27.05 47.65 L29.25 48.5 27.05 47.65 27.05 47.45 26.85 47.55 27.05 47.65 M25.05 46.5 L26.85 47.55 25.05 46.5 Q30.35 43.8 33.45 44.0 L33.5 44.0 Q38.7 44.0 42.4 40.25 L45.6 35.05 Q46.15 33.25 46.15 31.25 46.15 28.65 45.2 26.45 46.15 28.65 46.15 31.25 46.15 33.25 45.6 35.05 46.1 33.25 46.1 31.3 46.1 28.7 45.2 26.45 44.25 24.2 42.4 22.3 L40.8 20.9 39.1 19.9 37.15 19.15 37.3 19.15 35.1 18.7 34.85 18.7 34.0 18.6 33.45 18.6 32.25 18.7 32.05 18.7 31.85 18.75 31.7 18.75 30.25 18.95 29.85 19.05 Q25.75 19.95 22.7 23.05 18.25 27.55 18.25 33.8 18.25 40.1 22.7 44.55 L25.05 46.5 M42.4 20.0 Q39.95 19.3 37.3 19.15 39.95 19.3 42.4 20.0 L43.1 20.25 42.5 20.05 43.65 21.1 44.85 22.45 45.4 21.9 44.9 21.35 44.15 20.6 Q40.5 17.35 35.75 16.8 L35.5 16.8 34.65 16.75 33.8 16.7 32.25 16.8 32.0 16.8 31.75 16.85 31.55 16.85 29.75 17.1 29.7 17.1 Q29.45 17.1 29.25 17.25 24.15 18.4 20.3 22.25 L20.05 22.5 20.5 22.9 21.45 21.85 Q24.9 18.4 29.45 17.35 L29.9 17.25 31.65 17.0 32.0 16.95 33.45 16.85 34.4 16.9 Q38.9 17.15 42.4 20.0 M54.85 5.2 Q55.5 6.2 55.85 7.55 L55.95 7.45 60.0 7.45 60.0 7.25 Q60.0 3.65 58.65 1.4 L54.9 5.15 54.85 5.2 M56.2 9.65 L56.25 11.0 56.25 14.25 60.0 14.25 60.0 9.65 56.2 9.65 M46.1 24.25 Q47.3 26.45 47.7 29.0 L49.2 29.0 Q48.55 26.05 46.8 23.55 L46.1 24.25 M48.4 38.65 L45.9 38.65 45.15 39.75 43.65 41.45 43.6 41.5 43.5 41.6 43.35 41.8 45.1 43.55 Q47.25 41.3 48.4 38.65 M49.55 32.55 L49.5 31.15 47.85 31.15 47.85 31.25 47.85 31.3 Q47.85 34.1 46.95 36.5 L49.1 36.5 49.55 32.55 M60.0 30.0 L56.25 30.0 56.25 34.6 60.0 34.6 60.0 30.0 M60.0 36.8 L56.25 36.8 56.25 41.4 60.0 41.4 60.0 36.8 M60.0 16.5 L56.25 16.5 56.25 21.1 60.0 21.1 60.0 16.5 M60.0 23.25 L56.25 23.25 56.25 27.85 60.0 27.85 60.0 23.25 M39.7 44.35 L42.75 42.35 41.7 43.2 42.75 42.35 39.7 44.35 37.55 45.2 37.55 47.95 Q40.8 47.15 43.5 45.0 L41.7 43.2 39.7 44.35 M4.05 21.1 L7.9 21.1 7.9 16.5 4.05 16.5 4.05 21.1 M9.05 5.15 L5.4 1.45 Q4.05 3.7 4.05 7.25 L4.05 7.45 8.35 7.45 Q8.65 6.15 9.3 5.2 L9.05 5.15 M7.9 11.0 L7.95 9.65 4.05 9.65 4.05 14.25 7.9 14.25 7.9 11.0 M60.0 43.55 L56.1 43.55 Q55.9 45.1 55.35 46.3 L59.15 50.1 Q59.95 48.15 60.0 45.5 L60.0 43.55 M4.05 23.25 L4.05 27.85 7.9 27.85 7.9 23.25 4.05 23.25 M4.05 34.6 L7.9 34.6 7.9 30.0 4.05 30.0 4.05 34.6 M14.75 35.65 L14.8 36.5 16.7 36.5 16.5 33.8 16.7 31.2 15.25 31.2 Q14.75 33.35 14.75 35.65 M19.15 24.65 L18.65 24.15 Q16.85 26.4 15.9 29.0 L17.15 29.0 Q17.8 26.7 19.15 24.65 M4.05 36.8 L4.05 41.4 7.9 41.4 7.9 36.8 4.05 36.8 M22.8 47.55 L23.1 47.25 21.45 45.8 19.7 43.75 17.65 45.85 19.85 48.6 20.3 49.1 20.75 49.55 22.8 47.55 20.75 49.55 20.3 49.1 19.85 48.6 22.8 47.55 M18.55 41.95 Q17.65 40.35 17.2 38.65 L15.0 38.65 Q15.4 41.45 16.6 43.9 L18.55 41.95 M4.05 43.55 L4.05 45.1 Q4.05 48.0 4.9 50.0 L8.75 46.15 Q8.25 44.95 8.05 43.5 L7.95 43.55 4.05 43.55 M24.75 48.55 L24.75 48.4 24.9 48.5 24.75 48.4 24.75 48.55 22.4 50.95 23.2 51.5 Q24.3 52.25 25.55 52.85 24.3 52.25 23.2 51.5 L25.15 50.6 Q26.1 50.1 27.05 49.75 L27.05 49.6 24.9 48.5 24.75 48.55 M27.05 52.2 L27.05 49.9 Q27.05 49.75 27.35 49.75 L27.05 49.6 27.35 49.75 Q27.05 49.75 27.05 49.9 L27.05 52.2 25.55 52.85 27.05 53.55 27.05 52.2 M36.6 50.8 L36.6 54.75 42.25 54.75 42.25 50.8 36.6 50.8 M33.3 50.8 L33.15 50.8 31.95 50.75 29.9 50.45 29.45 50.4 29.4 50.4 29.25 50.35 29.25 51.4 29.25 50.35 29.4 50.4 29.45 50.4 29.9 50.45 31.95 50.75 33.15 50.8 33.3 50.8 33.3 54.75 33.4 54.75 34.35 54.75 34.35 50.8 33.3 50.8 M31.15 54.55 L33.3 54.75 31.15 54.55 31.15 50.9 29.25 51.4 29.25 54.15 29.2 54.25 29.25 54.25 29.2 54.25 29.7 54.35 31.15 54.55 M31.95 50.75 L31.15 50.9 31.95 50.75 M11.85 49.65 L9.95 48.1 6.05 51.9 Q8.0 54.25 11.85 54.65 L11.85 49.65 M52.1 54.7 Q56.0 54.3 57.95 51.95 L54.15 48.15 52.1 49.75 52.1 54.7 M49.65 50.55 L47.5 50.8 49.65 50.55 49.65 54.75 49.9 54.75 49.9 50.5 49.65 50.55 M47.5 54.75 L49.65 54.75 47.5 54.75 47.5 50.8 46.8 50.8 44.45 50.8 44.45 54.75 47.5 54.75" fill="#999999" fill-rule="evenodd" stroke="none"/>
    <path d="M12.95 -2.3 L12.3 -2.3 11.15 -2.15 11.15 3.2 12.95 2.3 12.95 -2.3 12.95 -2.35 12.3 -2.3 M11.15 3.2 L10.6 3.65 10.6 3.6 6.75 -0.25 Q8.45 -1.75 11.15 -2.15 M38.5 1.6 L33.3 1.6 33.3 -2.35 38.5 -2.35 40.05 -2.35 40.05 1.6 38.5 1.6 38.5 -2.35 M25.35 -2.35 L31.1 -2.35 31.1 1.6 25.35 1.6 23.85 1.6 23.85 -2.35 25.35 -2.35 25.35 1.6 M21.7 -2.35 L21.7 1.6 17.3 1.6 15.15 1.75 15.15 -2.35 21.7 -2.35 M51.9 -2.3 L51.0 -2.35 51.0 -2.3 51.9 -2.3 52.85 -2.15 Q55.55 -1.75 57.25 -0.3 L53.45 3.55 52.85 3.1 Q52.0 2.55 50.95 2.2 L51.0 2.1 51.0 -2.3 M48.8 -2.35 L48.8 1.75 46.8 1.6 42.25 1.6 42.25 -2.35 48.8 -2.35 M62.2 45.75 L62.2 7.25 Q62.2 -4.5 50.45 -4.5 L13.6 -4.5 Q1.85 -4.5 1.85 7.25 L1.85 44.5 1.85 45.1 Q1.85 50.1 3.95 53.0 6.8 56.95 13.6 56.95 L14.3 56.95 16.45 56.55 18.65 55.9 17.2 54.05 16.45 54.3 14.3 54.7 14.05 54.75 14.05 50.45 14.3 50.5 15.3 50.7 14.55 48.75 Q9.65 47.5 9.65 41.35 L9.65 11.0 Q9.65 7.6 11.15 5.75 12.0 4.65 13.3 4.1 14.95 3.35 17.3 3.35 L23.15 3.35 25.35 3.35 38.5 3.35 40.65 3.35 46.8 3.35 Q49.05 3.35 50.65 4.0 52.0 4.55 52.85 5.55 54.5 7.45 54.5 11.0 L54.5 41.35 Q54.5 49.05 46.8 49.05 L41.15 49.05 33.15 49.05 30.25 48.75 29.8 48.65 29.85 48.65 29.25 48.5 27.05 47.65 26.85 47.55 25.05 46.5 22.7 44.55 Q18.25 40.1 18.25 33.8 18.25 27.55 22.7 23.05 25.75 19.95 29.85 19.05 L30.25 18.95 31.7 18.75 31.85 18.75 32.05 18.7 32.25 18.7 33.45 18.6 34.0 18.6 34.85 18.7 35.1 18.7 37.3 19.15 Q39.95 19.3 42.4 20.0 38.9 17.15 34.4 16.9 L33.45 16.85 32.0 16.95 31.65 17.0 29.9 17.25 29.45 17.35 Q24.9 18.4 21.45 21.85 L20.5 22.9 20.05 22.5 20.3 22.25 Q24.15 18.4 29.25 17.25 29.45 17.1 29.7 17.1 L29.75 17.1 31.55 16.85 31.75 16.85 32.0 16.8 32.25 16.8 33.8 16.7 34.65 16.75 35.5 16.8 35.75 16.8 Q40.5 17.35 44.15 20.6 47.0 21.7 49.45 23.65 48.25 21.6 46.45 19.8 41.9 15.25 35.85 14.6 L35.8 14.6 33.8 14.5 32.0 14.6 31.45 14.65 29.3 15.0 28.75 15.1 Q23.05 16.45 18.8 20.7 12.55 26.95 12.55 35.65 12.55 43.3 17.35 49.05 L18.8 50.65 Q20.8 52.65 23.1 54.05 25.7 55.6 28.7 56.4 L28.75 56.4 29.3 56.5 31.15 56.8 33.3 56.95 33.4 56.95 47.5 56.95 49.65 56.95 50.45 56.95 Q57.1 56.95 60.0 53.15 62.05 50.4 62.2 45.75 L62.2 55.5 60.0 55.5 60.0 53.15 M54.85 5.2 Q55.5 6.2 55.85 7.55 L55.95 7.45 60.0 7.45 60.0 7.25 Q60.0 3.65 58.65 1.4 L54.9 5.15 54.85 5.2 M52.85 5.55 L52.85 8.95 50.65 8.95 50.65 4.0 M56.2 9.65 L60.0 9.65 60.0 14.25 56.25 14.25 56.25 11.0 56.2 9.65 M38.5 3.35 L38.5 6.85 40.65 6.85 40.65 3.35 M37.3 19.15 L37.15 19.15 39.1 19.9 40.8 20.9 42.4 22.3 Q44.25 24.2 45.2 26.45 46.15 28.65 46.15 31.25 46.15 33.25 45.6 35.05 L42.4 40.25 Q38.7 44.0 33.5 44.0 L33.45 44.0 Q30.35 43.8 25.05 46.5 M44.15 20.6 L44.9 21.35 45.4 21.9 44.85 22.45 43.65 21.1 42.5 20.05 43.1 20.25 42.4 20.0 M47.65 44.0 L48.65 42.7 51.0 37.95 Q51.8 35.4 51.8 32.55 51.8 27.65 49.45 23.65 M46.1 24.25 Q47.3 26.45 47.7 29.0 L49.2 29.0 Q48.55 26.05 46.8 23.55 L46.1 24.25 M60.0 23.25 L60.0 27.85 56.25 27.85 56.25 23.25 60.0 23.25 M60.0 16.5 L60.0 21.1 56.25 21.1 56.25 16.5 60.0 16.5 M60.0 36.8 L60.0 41.4 56.25 41.4 56.25 36.8 60.0 36.8 M60.0 30.0 L60.0 34.6 56.25 34.6 56.25 30.0 60.0 30.0 M49.55 32.55 L49.1 36.5 46.95 36.5 Q47.85 34.1 47.85 31.3 L47.85 31.25 47.85 31.15 49.5 31.15 49.55 32.55 M45.2 26.45 Q46.1 28.7 46.1 31.3 46.1 33.25 45.6 35.05 M48.4 38.65 Q47.25 41.3 45.1 43.55 L43.35 41.8 43.5 41.6 43.6 41.5 43.65 41.45 45.15 39.75 45.9 38.65 48.4 38.65 M41.7 43.2 L42.75 42.35 39.7 44.35 41.7 43.2 43.5 45.0 Q40.8 47.15 37.55 47.95 L37.55 45.2 39.7 44.35 M41.15 49.05 L44.15 47.3 46.45 45.25 47.65 44.0 46.45 45.3 44.15 47.3 M60.0 43.55 L60.0 45.5 Q59.95 48.15 59.15 50.1 L55.35 46.3 Q55.9 45.1 56.1 43.55 L60.0 43.55 M23.15 3.35 L23.15 6.85 25.35 6.85 25.35 3.35 M11.15 5.75 L11.15 8.95 13.3 8.95 13.3 4.1 M7.9 11.0 L7.9 14.25 4.05 14.25 4.05 9.65 7.95 9.65 7.9 11.0 M9.05 5.15 L9.3 5.2 Q8.65 6.15 8.35 7.45 L4.05 7.45 4.05 7.25 Q4.05 3.7 5.4 1.45 L9.05 5.15 M4.05 21.1 L4.05 16.5 7.9 16.5 7.9 21.1 4.05 21.1 M4.05 23.25 L4.05 27.85 7.9 27.85 7.9 23.25 4.05 23.25 M19.15 24.65 Q17.8 26.7 17.15 29.0 L15.9 29.0 Q16.85 26.4 18.65 24.15 L19.15 24.65 M14.75 35.65 Q14.75 33.35 15.25 31.2 L16.7 31.2 16.5 33.8 16.7 36.5 14.8 36.5 14.75 35.65 M4.05 34.6 L4.05 30.0 7.9 30.0 7.9 34.6 4.05 34.6 M4.05 36.8 L4.05 41.4 7.9 41.4 7.9 36.8 4.05 36.8 M4.05 43.55 L7.95 43.55 8.05 43.5 Q8.25 44.95 8.75 46.15 L4.9 50.0 Q4.05 48.0 4.05 45.1 L4.05 43.55 M1.85 44.5 L1.8 44.5 1.8 55.5 3.95 55.5 3.95 53.0 M18.55 41.95 L16.6 43.9 Q15.4 41.45 15.0 38.65 L17.2 38.65 Q17.65 40.35 18.55 41.95 M19.85 48.6 L17.65 45.85 19.7 43.75 21.45 45.8 23.1 47.25 22.8 47.55 20.75 49.55 20.3 49.1 19.85 48.6 22.8 47.55 M17.35 49.05 L17.3 49.05 17.2 49.05 17.1 49.05 16.9 49.05 14.55 48.75 M24.9 48.5 L24.75 48.4 24.75 48.55 24.9 48.5 27.05 49.6 27.35 49.75 Q27.05 49.75 27.05 49.9 L27.05 52.2 27.05 53.55 25.55 52.85 Q24.3 52.25 23.2 51.5 L22.4 50.95 24.75 48.55 M27.05 47.65 L27.05 47.45 26.85 47.55 M30.25 48.75 L33.8 48.35 33.85 48.35 35.35 48.3 35.35 45.65 33.6 45.75 33.45 45.75 33.4 45.75 Q31.7 45.7 29.25 46.55 L29.25 48.5 M36.6 50.8 L42.25 50.8 42.25 54.75 36.6 54.75 36.6 50.8 M29.25 51.4 L29.25 50.35 29.4 50.4 29.45 50.4 29.9 50.45 31.95 50.75 33.15 50.8 33.3 50.8 34.35 50.8 34.35 54.75 33.4 54.75 33.3 54.75 31.15 54.55 29.7 54.35 29.2 54.25 29.25 54.25 29.2 54.25 29.25 54.15 29.25 51.4 31.15 50.9 31.95 50.75 M31.15 54.55 L31.15 50.9 M33.3 50.8 L33.3 54.75 M33.3 56.95 L33.3 59.85 31.15 59.85 31.15 56.8 M23.2 51.5 L25.15 50.6 Q26.1 50.1 27.05 49.75 L27.05 49.6 M25.55 52.85 L27.05 52.2 M16.45 50.8 L17.3 50.8 18.8 50.65 18.8 53.45 17.2 54.0 16.55 53.05 17.2 54.05 M15.3 50.7 L16.45 50.8 16.45 54.3 M11.85 49.65 L9.95 48.1 6.05 51.9 Q8.0 54.25 11.85 54.65 L11.85 49.65 M14.3 50.5 L14.3 54.7 M14.3 56.95 L14.3 59.85 16.45 59.85 16.45 56.55 M18.65 55.9 L23.1 54.05 M52.1 54.7 L52.1 49.75 54.15 48.15 57.95 51.95 Q56.0 54.3 52.1 54.7 M47.5 50.8 L49.65 50.55 49.9 50.5 49.9 54.75 49.65 54.75 47.5 54.75 44.45 54.75 44.45 50.8 46.8 50.8 47.5 50.8 47.5 54.75 M49.65 50.55 L49.65 54.75 M49.65 56.95 L49.65 59.85 47.5 59.85 47.5 56.95 M52.85 -2.15 L52.85 3.1" fill="none" stroke="#999999" stroke-linecap="round" stroke-linejoin="round" stroke-width="2.0"/>
    <path d="M54.5 10.75 L54.5 6.6 Q54.5 -1.05 46.8 -1.05 L17.3 -1.05 Q9.65 -1.05 9.65 6.6 L9.65 10.45 9.65 6.6 Q9.65 -1.05 17.3 -1.05 L46.8 -1.05 Q54.5 -1.05 54.5 6.6 L54.5 10.75 Q54.35 3.35 46.8 3.35 L17.3 3.35 Q9.95 3.35 9.65 10.45 L9.65 10.75 9.7 31.25 9.7 37.95 8.25 37.95 1.85 37.95 1.85 31.25 1.85 2.85 Q1.85 -8.9 13.6 -8.9 L50.45 -8.9 Q62.2 -8.9 62.2 2.85 L62.2 29.95 62.2 37.95 56.25 37.95 54.5 37.95 54.5 29.95 54.5 10.75" fill="#9a0000" fill-rule="evenodd" stroke="none"/>
    <path d="M9.65 10.45 L9.65 6.6 Q9.65 -1.05 17.3 -1.05 L46.8 -1.05 Q54.5 -1.05 54.5 6.6 L54.5 10.75 54.5 29.95 54.5 37.95 56.25 37.95 62.2 37.95 62.2 29.95 62.2 2.85 Q62.2 -8.9 50.45 -8.9 L13.6 -8.9 Q1.85 -8.9 1.85 2.85 L1.85 31.25 1.85 37.95 8.25 37.95 9.7 37.95 9.7 31.25 9.65 10.75 9.65 10.45 Q9.95 3.35 17.3 3.35 L46.8 3.35 Q54.35 3.35 54.5 10.75" fill="none" stroke="#9a0000" stroke-linecap="round" stroke-linejoin="round" stroke-width="2.0"/>
    <path d="M60.0 44.5 L62.2 44.5 62.2 55.5 60.0 55.5 60.0 44.5 M38.5 -4.4 L40.65 -4.4 40.65 6.85 38.5 6.85 38.5 -4.4 M23.15 -4.4 L25.35 -4.4 25.35 6.85 23.15 6.85 23.15 -4.4 M50.65 -2.3 L52.85 -2.3 52.85 8.95 50.65 8.95 50.65 -2.3 M13.3 -2.3 L13.3 8.95 11.15 8.95 11.15 -2.3 13.3 -2.3 M1.8 44.5 L3.95 44.5 3.95 55.5 1.8 55.5 1.8 44.5 M33.3 49.45 L33.3 59.85 31.15 59.85 31.15 49.45 33.3 49.45 M14.3 59.85 L14.3 49.45 16.45 49.45 16.45 59.85 14.3 59.85 M47.5 59.85 L47.5 49.45 49.65 49.45 49.65 59.85 47.5 59.85" fill="#e0e0e0" fill-rule="evenodd" stroke="none"/>
    <path d="M38.5 -4.4 L40.65 -4.4 40.65 2.6 38.5 2.6 38.5 -4.4 M23.15 -4.4 L25.35 -4.4 25.35 2.6 23.15 2.6 23.15 -4.4 M50.65 -2.3 L52.85 -2.3 52.85 3.8 50.65 3.8 50.65 -2.3 M16.45 49.45 L16.45 55.25 14.3 55.25 14.3 49.45 16.45 49.45 M13.3 -2.3 L13.3 3.8 11.15 3.8 11.15 -2.3 13.3 -2.3 M31.15 49.45 L33.3 49.45 33.3 55.25 31.15 55.25 31.15 49.45 M47.5 49.45 L49.65 49.45 49.65 55.25 47.5 55.25 47.5 49.45" fill="#cdcdcd" fill-rule="evenodd" stroke="none"/>
    <path d="M13.3 -3.3 L14.05 -3.4 14.85 -3.3 15.15 -3.1 15.15 2.35 14.85 2.6 14.05 2.7 13.3 2.6 12.95 2.35 12.95 -3.1 Q12.95 -3.2 13.3 -3.3 M5.1 -0.3 L5.8 -0.75 6.15 -0.85 10.6 3.6 10.55 4.0 10.15 4.65 9.45 5.1 9.05 5.15 4.65 0.7 4.7 0.35 5.1 -0.3 M22.0 -2.55 L22.8 -2.65 23.55 -2.55 23.85 -2.4 23.85 1.85 23.55 2.1 22.8 2.15 22.0 2.1 21.7 1.85 21.7 -2.4 22.0 -2.55 M40.05 -2.4 L40.4 -2.55 41.15 -2.65 41.9 -2.55 42.25 -2.4 42.25 1.85 41.9 2.1 41.15 2.15 40.4 2.1 40.05 1.85 40.05 -2.4 M31.1 -2.4 L31.4 -2.55 32.2 -2.65 32.95 -2.55 33.3 -2.4 33.3 1.85 32.95 2.1 32.2 2.15 31.4 2.1 31.1 1.85 31.1 -2.4 M58.15 -0.75 L58.8 -0.3 59.2 0.35 59.35 0.7 54.9 5.15 54.45 5.1 53.85 4.65 53.4 4.0 53.35 3.6 57.8 -0.85 58.15 -0.75 M60.45 7.8 L60.5 8.5 60.45 9.3 60.25 9.65 55.95 9.65 55.8 9.3 55.7 8.5 55.8 7.8 55.95 7.45 60.25 7.45 60.45 7.8 M50.65 -3.4 L51.0 -3.2 51.0 2.1 50.65 2.35 49.9 2.45 49.15 2.35 48.8 2.1 48.8 -3.2 Q48.8 -3.3 49.15 -3.4 L49.9 -3.5 50.65 -3.4 M55.7 35.7 L55.8 34.95 55.95 34.6 60.25 34.6 60.45 34.95 60.5 35.7 60.45 36.5 60.25 36.8 55.95 36.8 55.8 36.5 55.7 35.7 M55.8 29.7 L55.7 28.95 55.8 28.15 55.95 27.85 60.25 27.85 60.45 28.15 60.5 28.95 60.45 29.7 60.25 30.0 55.95 30.0 55.8 29.7 M60.25 21.1 L60.45 21.4 60.5 22.15 60.45 22.95 60.25 23.25 55.95 23.25 55.8 22.95 55.7 22.15 55.8 21.4 55.95 21.1 60.25 21.1 M60.25 14.25 L60.45 14.6 60.5 15.4 60.45 16.1 60.25 16.5 55.95 16.5 55.8 16.1 55.7 15.4 55.8 14.6 55.95 14.25 60.25 14.25 M53.75 47.3 L54.15 46.65 Q54.45 46.3 54.85 46.2 L54.95 46.15 55.2 46.15 59.65 50.6 59.6 50.95 59.1 51.6 58.5 52.05 58.1 52.1 53.7 47.7 53.75 47.3 M51.0 49.15 L51.8 49.25 52.1 49.55 52.1 55.35 51.8 55.55 51.0 55.65 50.25 55.55 49.9 55.35 49.9 49.55 50.25 49.25 51.0 49.15 M60.45 41.7 L60.5 42.5 60.45 43.25 60.25 43.55 55.95 43.55 55.8 43.25 55.7 42.5 55.8 41.7 55.95 41.4 60.25 41.4 60.45 41.7 M3.4 8.5 L3.5 7.8 3.75 7.45 8.6 7.45 8.8 7.8 8.9 8.5 8.8 9.3 8.6 9.65 3.75 9.65 3.5 9.3 3.4 8.5 M8.1 14.6 L8.25 15.4 8.1 16.1 7.95 16.5 3.7 16.5 3.5 16.1 3.4 15.4 3.5 14.6 3.7 14.25 7.95 14.25 8.1 14.6 M3.4 22.15 L3.5 21.4 3.7 21.1 7.95 21.1 8.1 21.4 8.25 22.15 8.1 22.95 7.95 23.25 3.7 23.25 3.5 22.95 3.4 22.15 M8.1 28.15 L8.25 28.95 8.1 29.7 7.95 30.0 3.7 30.0 3.5 29.7 3.4 28.95 3.5 28.15 3.7 27.85 7.95 27.85 8.1 28.15 M3.5 34.95 L3.7 34.6 7.95 34.6 8.1 34.95 8.25 35.7 8.1 36.5 7.95 36.8 3.7 36.8 3.5 36.5 3.4 35.7 3.5 34.95 M8.25 42.5 L8.1 43.25 7.95 43.55 3.7 43.55 3.5 43.25 3.4 42.5 3.5 41.7 3.7 41.4 7.95 41.4 8.1 41.7 8.25 42.5 M9.75 46.65 L10.25 47.3 10.3 47.7 5.85 52.1 5.45 52.05 4.8 51.6 4.35 50.95 4.3 50.6 8.75 46.15 9.15 46.2 9.75 46.65 M13.7 49.4 L14.05 49.65 14.05 55.1 13.7 55.3 12.95 55.4 12.2 55.3 11.85 55.1 11.85 49.65 Q11.85 49.5 12.2 49.4 L12.95 49.3 13.7 49.4 M36.6 50.65 L36.6 54.9 36.25 55.15 35.45 55.2 34.75 55.15 34.35 54.9 34.35 50.65 34.75 50.5 35.45 50.4 36.25 50.5 36.6 50.65 M44.15 50.5 L44.45 50.65 44.45 54.9 44.15 55.15 43.35 55.2 42.6 55.15 Q42.25 55.05 42.25 54.9 L42.25 50.65 Q42.25 50.55 42.6 50.5 L43.35 50.4 44.15 50.5" fill="#ffffff" fill-rule="evenodd" stroke="none"/>
    <path d="M44.75 24.05 L44.25 23.45 Q44.05 23.2 44.15 23.15 L45.65 21.6 45.9 21.75 46.5 22.25 47.05 22.9 47.2 23.15 45.65 24.65 45.3 24.55 44.75 24.05 M49.45 36.5 L49.6 36.8 49.65 37.55 49.6 38.35 49.45 38.65 45.8 38.65 45.65 38.35 45.55 37.55 45.65 36.8 45.8 36.5 49.45 36.5 M47.1 29.0 L49.95 29.0 50.1 29.3 50.15 30.05 50.1 30.85 49.95 31.15 47.1 31.15 46.9 30.85 46.85 30.05 46.9 29.3 47.1 29.0 M41.75 41.7 L42.35 41.25 42.7 41.15 45.7 44.15 45.65 44.5 45.15 45.1 Q44.8 45.4 44.55 45.65 L44.2 45.7 41.15 42.65 41.3 42.3 41.75 41.7 M28.15 45.95 L28.9 46.05 29.25 46.2 29.25 50.5 28.9 50.7 28.15 50.75 27.4 50.7 27.05 50.5 27.05 46.2 Q27.05 46.1 27.4 46.05 L28.15 45.95 M35.35 44.55 Q35.35 44.45 35.7 44.4 L36.45 44.3 37.2 44.4 37.55 44.55 37.55 48.85 37.2 49.05 36.45 49.1 35.7 49.05 Q35.35 48.95 35.35 48.85 L35.35 44.55 M21.0 53.9 L20.65 54.15 19.9 54.2 19.1 54.15 18.8 53.9 18.8 49.65 Q18.8 49.55 19.1 49.5 L19.9 49.4 20.65 49.5 Q21.0 49.55 21.0 49.65 L21.0 53.9" fill="#c9c9c9" fill-rule="evenodd" stroke="none"/>
    <path d="M33.6 -3.45 L33.3 -2.65 Q32.95 -2.35 32.55 -2.35 L13.6 -2.35 Q4.05 -2.35 4.05 7.25 L4.05 45.1 Q4.05 54.75 13.6 54.75 16.8 54.7 23.05 51.55 29.85 48.2 33.8 48.4 L33.85 48.4 Q40.3 48.4 44.95 43.75 49.6 39.1 49.6 32.55 49.6 26.0 44.95 21.35 40.3 16.7 33.8 16.7 L32.25 16.8 31.45 16.6 Q31.05 16.3 31.0 15.85 30.95 15.4 31.2 15.05 31.5 14.65 32.0 14.6 L33.8 14.5 Q41.15 14.5 46.45 19.8 51.75 25.1 51.75 32.55 51.75 40.0 46.45 45.3 41.15 50.6 33.8 50.6 L33.75 50.6 Q30.25 50.5 24.05 53.55 17.1 57.0 13.6 56.95 1.85 56.95 1.85 45.1 L1.85 7.25 Q1.85 -4.5 13.6 -4.5 L32.55 -4.5 33.3 -4.2 33.6 -3.45" fill="#ffffff" fill-rule="evenodd" stroke="none"/>
    <path d="M33.35 2.5 L33.05 3.1 32.45 3.35 17.3 3.35 Q9.65 3.35 9.65 11.0 L9.65 41.35 Q9.65 49.05 17.3 49.05 19.85 49.0 24.9 46.55 30.3 43.8 33.45 44.0 L33.5 44.0 Q38.7 44.0 42.4 40.25 46.1 36.55 46.1 31.3 46.1 26.05 42.4 22.3 38.7 18.6 33.45 18.6 L32.25 18.7 31.6 18.5 31.25 17.95 Q31.2 17.55 31.4 17.3 31.65 17.0 32.0 16.95 L33.45 16.85 Q39.4 16.85 43.6 21.1 47.85 25.35 47.85 31.3 47.85 37.25 43.6 41.5 39.4 45.75 33.45 45.75 L33.4 45.75 Q30.6 45.65 25.7 48.1 20.1 50.85 17.3 50.8 7.9 50.8 7.9 41.35 L7.9 11.0 Q7.9 1.6 17.3 1.6 L32.45 1.6 Q32.8 1.6 33.05 1.85 L33.35 2.5" fill="#ffffff" fill-rule="evenodd" stroke="none"/>
    <path d="M43.65 21.1 Q47.85 25.3 47.85 31.25 47.85 37.25 43.65 41.45 39.35 45.75 33.45 45.75 L33.4 45.75 Q30.6 45.65 25.7 48.1 20.1 50.85 17.3 50.8 L15.3 50.7 14.55 48.75 17.3 49.05 Q19.85 49.0 24.9 46.55 30.35 43.8 33.45 44.0 L33.5 44.0 Q38.7 44.0 42.4 40.25 46.15 36.55 46.15 31.25 46.15 26.05 42.4 22.3 40.05 19.95 37.15 19.15 40.3 19.3 43.1 20.25 L42.5 20.05 43.65 21.1" fill="#c9c9c9" fill-rule="evenodd" stroke="none"/>
    <path d="M44.9 21.35 L44.15 20.6 Q47.0 21.7 49.45 23.65 51.8 27.65 51.8 32.55 51.8 40.0 46.45 45.25 41.15 50.6 33.8 50.6 L33.75 50.6 Q30.25 50.5 24.05 53.55 21.0 55.1 18.65 55.9 L16.55 53.05 17.2 54.0 Q19.7 53.25 23.05 51.55 29.8 48.15 33.8 48.35 L33.85 48.35 Q40.25 48.35 44.9 43.75 49.55 39.1 49.55 32.55 49.55 26.0 44.9 21.35" fill="#c9c9c9" fill-rule="evenodd" stroke="none"/>
    <path d="M54.5 11.0 Q54.5 3.35 46.8 3.35 L17.3 3.35 Q9.65 3.35 9.65 11.0 L9.65 37.05 7.9 37.05 7.9 11.0 Q7.9 1.6 17.3 1.6 L46.8 1.6 Q56.25 1.6 56.25 11.0 L56.25 37.05 54.5 37.05 54.5 11.0 M50.45 -2.35 L13.6 -2.35 Q4.05 -2.35 4.05 7.25 L4.05 37.05 1.85 37.05 1.85 7.25 Q1.85 -4.5 13.6 -4.5 L50.45 -4.5 Q62.2 -4.5 62.2 7.25 L62.2 37.05 60.0 37.05 60.0 7.25 Q60.0 -2.35 50.45 -2.35" fill="#00ffff" fill-rule="evenodd" stroke="none"/>
    <path d="M47.45 -1.3 Q54.2 -1.3 55.3 4.45 L55.45 6.7 55.45 11.0 Q55.4 10.0 54.95 10.3 L54.5 10.75 Q54.35 3.35 46.8 3.35 L17.3 3.35 Q9.8 3.35 9.65 10.75 L9.2 10.3 Q8.75 10.0 8.7 11.0 L8.7 6.7 8.9 4.4 Q9.95 -1.3 16.7 -1.3 L47.45 -1.3" fill="#dd0000" fill-rule="evenodd" stroke="none"/>
    <path d="M13.6 -8.9 L50.45 -8.9 Q62.2 -8.9 62.2 2.85 L62.2 29.95 62.2 37.95 56.25 37.95 54.5 37.95 54.5 29.95 54.5 6.6 Q54.5 -1.05 46.8 -1.05 L17.3 -1.05 Q9.65 -1.05 9.65 6.6 L9.7 31.25 9.7 37.95 8.25 37.95 1.85 37.95 1.85 31.25 1.85 2.85 Q1.85 -8.9 13.6 -8.9" fill="#ff3535" fill-rule="evenodd" stroke="none"/>
    <path d="M1.85 31.55 Q1.85 29.95 3.0 28.8 4.15 27.65 5.75 27.65 7.4 27.65 8.55 28.8 9.7 29.95 9.7 31.55 L9.7 37.95 8.25 37.95 1.85 37.95 1.85 31.55 M54.5 31.55 Q54.5 29.95 55.65 28.8 56.75 27.65 58.35 27.65 59.95 27.65 61.1 28.8 62.2 29.95 62.2 31.55 L62.2 37.95 60.8 37.95 54.5 37.95 54.5 31.55" fill="#9a0000" fill-rule="evenodd" stroke="none"/>
    <path d="M1.85 31.55 Q1.85 29.95 3.0 28.8 4.15 27.65 5.75 27.65 7.4 27.65 8.55 28.8 9.7 29.95 9.7 31.55 L9.7 37.95 8.25 37.95 1.85 37.95 1.85 31.55 M54.5 31.55 Q54.5 29.95 55.65 28.8 56.75 27.65 58.35 27.65 59.95 27.65 61.1 28.8 62.2 29.95 62.2 31.55 L62.2 37.95 60.8 37.95 54.5 37.95 54.5 31.55" fill="#2a2a2a" fill-rule="evenodd" stroke="none"/>
  </g>
</svg>
