<?xml version="1.0" encoding="UTF-8" standalone="no"?>
<svg xmlns:xlink="http://www.w3.org/1999/xlink" height="17.95px" width="14.7px" xmlns="http://www.w3.org/2000/svg">
  <g transform="matrix(1.0, 0.0, 0.0, 1.0, 1.5, 4.75)">
    <path d="M4.0 -2.35 Q4.9 -3.25 6.2 -3.25 7.5 -3.25 8.4 -2.35 9.3 -1.45 9.3 -0.15 9.3 1.15 8.4 2.05 7.5 2.95 6.2 2.95 4.9 2.95 4.0 2.05 3.1 1.15 3.1 -0.15 3.1 -1.45 4.0 -2.35 Z" fill="none" stroke="#7d4b00" stroke-linecap="round" stroke-linejoin="round" stroke-width="3.0"/>
    <path d="M5.85 11.7 Q3.45 11.7 1.7 9.95 0.0 8.25 0.0 5.85 0.0 3.45 1.7 1.7 3.45 0.0 5.85 0.0 8.25 0.0 9.95 1.7 11.7 3.45 11.7 5.85 11.7 8.25 9.95 9.95 8.25 11.7 5.85 11.7 Z" fill="none" stroke="#7d4b00" stroke-linecap="round" stroke-linejoin="round" stroke-width="3.0"/>
    <path d="M5.85 11.7 Q3.45 11.7 1.7 9.95 0.0 8.25 0.0 5.85 0.0 3.45 1.7 1.7 3.45 0.0 5.85 0.0 8.25 0.0 9.95 1.7 11.7 3.45 11.7 5.85 11.7 8.25 9.95 9.95 8.25 11.7 5.85 11.7" fill="#ff9900" fill-rule="evenodd" stroke="none"/>
    <path d="M9.25 0.95 L9.8 1.5 9.2 2.85 9.0 3.1 Q8.15 4.35 6.35 4.35 4.7 4.35 3.75 3.4 2.95 2.6 2.95 1.4 L2.95 1.2 2.95 1.05 2.95 0.85 2.95 0.75 3.45 0.3 3.8 -0.3 4.25 0.05 Q4.45 0.15 4.45 0.6 L4.45 0.95 4.9 1.35 Q5.5 1.75 6.15 1.75 7.2 1.75 7.65 0.85 8.0 0.15 8.35 0.0 L8.45 0.25 9.25 0.95 M10.35 6.45 Q11.2 5.1 11.35 3.75 11.7 4.75 11.7 5.85 11.7 8.25 9.95 9.95 8.25 11.7 5.85 11.7 3.45 11.7 1.7 9.95 0.0 8.25 0.0 5.85 L0.05 5.0 0.1 5.1 Q0.3 6.0 1.0 6.9 2.55 8.95 5.6 8.95 8.8 8.95 10.35 6.45" fill="#c67700" fill-rule="evenodd" stroke="none"/>
    <path d="M4.0 -2.35 Q4.9 -3.25 6.2 -3.25 7.5 -3.25 8.4 -2.35 9.3 -1.45 9.3 -0.15 9.3 1.15 8.4 2.05 7.5 2.95 6.2 2.95 4.9 2.95 4.0 2.05 3.1 1.15 3.1 -0.15 3.1 -1.45 4.0 -2.35" fill="#ff9900" fill-rule="evenodd" stroke="none"/>
    <path d="M5.3 -1.05 Q5.7 -1.4 6.2 -1.4 6.7 -1.4 7.1 -1.05 7.45 -0.7 7.45 -0.15 L7.1 0.75 Q6.7 1.1 6.2 1.1 5.7 1.1 5.3 0.75 4.95 0.35 4.95 -0.15 4.95 -0.7 5.3 -1.05" fill="#7d4b00" fill-rule="evenodd" stroke="none"/>
    <path d="M5.3 6.05 L5.15 6.35 4.8 6.55 Q4.4 6.55 4.4 6.1 4.4 5.65 4.9 5.65 L5.2 5.85 5.3 6.05 M2.75 3.7 Q3.35 3.7 3.7 4.2 L3.9 4.85 3.7 5.55 Q3.4 6.05 2.8 6.05 1.95 6.05 1.75 5.55 L1.65 4.85 Q1.65 3.7 2.75 3.7" fill="#ffd08a" fill-rule="evenodd" stroke="none"/>
  </g>
</svg>
