<?xml version="1.0" encoding="UTF-8" standalone="no"?>
<svg xmlns:xlink="http://www.w3.org/1999/xlink" height="73.35px" width="52.9px" xmlns="http://www.w3.org/2000/svg">
  <g transform="matrix(1.0, 0.0, 0.0, 1.0, -3.55, 15.4)">
    <path d="M29.45 3.4 L40.8 39.45 19.9 39.45 14.35 51.35 3.8 41.9 3.55 12.5 29.45 3.4" fill="url(#gradient0)" fill-rule="evenodd" stroke="none"/>
    <path d="M38.65 56.2 L38.6 56.2 38.3 56.95 26.4 56.95 26.0 56.2 25.9 56.2 25.9 52.7 19.3 52.7 20.25 55.75 18.0 55.75 17.05 52.7 14.2 52.7 13.5 51.7 13.35 51.7 13.35 10.3 51.1 10.3 51.1 51.7 50.95 51.7 50.35 52.7 48.25 52.7 47.6 55.75 45.3 55.75 46.0 52.7 38.65 52.7 38.65 56.2" fill="#333333" fill-rule="evenodd" stroke="none"/>
    <path d="M38.65 56.2 L38.6 56.2 38.3 56.95 26.4 56.95 26.0 56.2 25.9 56.2 25.9 52.7 19.3 52.7 20.25 55.75 18.0 55.75 17.05 52.7 14.2 52.7 13.5 51.7 13.35 51.7 13.35 10.3 51.1 10.3 51.1 51.7 50.95 51.7 50.35 52.7 48.25 52.7 47.6 55.75 45.3 55.75 46.0 52.7 38.65 52.7 38.65 56.2 Z" fill="none" stroke="#432e16" stroke-linecap="round" stroke-linejoin="round" stroke-width="2.0"/>
    <path d="M33.1 51.75 L33.1 55.75 30.85 55.75 30.85 51.75 33.1 51.75 M18.0 55.75 L16.75 51.75 19.0 51.75 20.25 55.75 18.0 55.75 M48.45 51.75 L47.6 55.75 45.3 55.75 46.15 51.75 48.45 51.75" fill="#593d1e" fill-rule="evenodd" stroke="none"/>
    <path d="M38.3 56.95 L26.4 56.95 25.9 56.05 38.6 56.05 38.3 56.95" fill="#593d1e" fill-rule="evenodd" stroke="none"/>
    <path d="M38.65 56.2 L25.9 56.2 25.9 52.7 38.65 52.7 38.65 56.2" fill="#755026" fill-rule="evenodd" stroke="none"/>
    <path d="M13.35 51.55 L51.05 51.55 50.35 52.7 14.2 52.7 13.35 51.55" fill="#593d1e" fill-rule="evenodd" stroke="none"/>
    <path d="M51.1 51.7 L13.35 51.7 13.35 10.3 51.1 10.3 51.1 51.7" fill="#755026" fill-rule="evenodd" stroke="none"/>
    <path d="M38.1 12.95 L17.05 49.65 12.8 46.3 12.8 10.9 38.1 12.95" fill="#000000" fill-opacity="0.2" fill-rule="evenodd" stroke="none"/>
    <path d="M40.75 29.25 L22.0 29.25 22.0 27.3 40.75 27.3 40.75 29.25" fill="#5f411f" fill-rule="evenodd" stroke="none"/>
    <path d="M47.1 46.2 L46.8 49.05 17.25 49.05 16.95 46.2 47.1 46.2" fill="#593d1e" fill-rule="evenodd" stroke="none"/>
    <path d="M16.95 46.2 L15.05 30.15 49.0 30.15 47.1 46.2 16.95 46.2" fill="#cccccc" fill-rule="evenodd" stroke="none"/>
    <path d="M47.1 46.2 L46.8 49.05 17.25 49.05 16.95 46.2 15.05 30.15 49.0 30.15 47.1 46.2 Z" fill="none" stroke="#432e16" stroke-linecap="round" stroke-linejoin="round" stroke-width="2.0"/>
    <path d="M16.95 46.2 L15.05 30.15 49.0 30.15 47.1 46.2 16.95 46.2" fill="#cccccc" fill-rule="evenodd" stroke="none"/>
    <path d="M47.1 46.2 L46.8 49.05 17.25 49.05 16.95 46.2 47.1 46.2" fill="#593d1e" fill-rule="evenodd" stroke="none"/>
    <path d="M28.05 39.2 L32.05 39.2 32.05 35.85 27.95 35.85 28.05 39.2 M36.15 39.65 L32.45 39.65 32.35 43.35 35.85 43.35 36.15 39.65 M36.7 39.2 L40.4 39.2 40.65 35.85 36.9 35.85 36.7 39.2 M40.35 39.65 L36.65 39.65 36.4 43.35 39.95 43.35 40.35 39.65 M28.05 39.65 L28.1 43.35 31.9 43.35 32.0 39.65 28.05 39.65 M27.55 39.65 L23.95 39.65 24.2 43.35 27.6 43.35 27.55 39.65 M27.45 35.85 L23.65 35.85 23.9 39.2 27.55 39.2 27.45 35.85 M36.45 35.85 L32.55 35.85 32.5 39.2 36.2 39.2 36.45 35.85 M19.25 35.85 L19.7 39.2 23.45 39.2 23.2 35.85 19.25 35.85 M19.75 39.65 L20.15 43.35 23.7 43.35 23.5 39.65 19.75 39.65 M44.5 39.65 L40.8 39.65 40.45 43.35 44.05 43.35 44.5 39.65 M45.0 35.85 L41.15 35.85 40.85 39.2 44.55 39.2 45.0 35.85 M45.35 32.6 L45.45 32.4 45.65 32.35 45.8 32.45 45.85 32.65 45.5 35.4 48.55 35.4 48.75 35.5 48.8 35.65 48.75 35.8 48.55 35.85 45.45 35.85 45.05 39.2 47.95 39.2 48.15 39.3 48.2 39.45 48.15 39.6 47.95 39.65 45.0 39.65 44.5 43.35 47.4 43.35 47.6 43.45 47.65 43.6 47.6 43.8 47.4 43.85 44.4 43.85 44.15 46.1 44.05 46.25 43.9 46.3 43.7 46.2 43.65 46.1 43.95 43.85 40.4 43.85 40.15 46.3 40.05 46.45 39.9 46.5 39.7 46.4 39.65 46.25 39.9 43.85 36.35 43.85 36.15 46.3 36.1 46.45 35.9 46.5 35.75 46.45 35.7 46.25 35.85 43.85 32.35 43.85 32.25 46.1 32.2 46.25 32.05 46.3 31.9 46.25 31.8 46.1 31.9 43.85 28.1 43.85 28.1 46.35 28.05 46.55 27.85 46.6 27.7 46.55 27.6 46.35 27.6 43.85 24.25 43.85 24.4 46.25 24.35 46.45 24.2 46.5 24.0 46.45 23.9 46.3 23.75 43.85 20.2 43.85 20.5 46.25 20.45 46.4 20.3 46.5 20.1 46.45 20.0 46.3 19.75 43.85 16.45 43.85 16.3 43.8 16.2 43.6 16.3 43.45 16.45 43.35 19.7 43.35 19.2 39.65 15.9 39.65 15.75 39.6 15.65 39.45 15.75 39.3 Q15.8 39.2 15.9 39.2 L19.15 39.2 18.75 35.85 15.3 35.85 15.2 35.8 15.1 35.65 15.2 35.5 15.3 35.4 18.7 35.4 18.3 32.35 18.35 32.15 18.55 32.05 18.7 32.1 18.8 32.3 19.15 35.4 23.2 35.4 22.9 32.05 22.95 31.85 23.15 31.75 23.35 31.8 23.4 32.0 23.65 35.4 27.45 35.4 27.4 32.3 27.5 32.15 Q27.55 32.05 27.65 32.05 L27.85 32.15 27.9 32.3 27.95 35.4 32.1 35.4 32.15 32.6 32.25 32.45 Q32.3 32.35 32.4 32.35 L32.6 32.45 32.65 32.6 32.6 35.4 36.5 35.4 36.65 33.25 36.7 33.05 36.9 33.0 37.05 33.1 37.1 33.3 36.95 35.4 40.7 35.4 41.0 32.3 41.1 32.1 41.3 32.05 41.4 32.15 41.45 32.35 41.2 35.4 45.05 35.4 45.35 32.6" fill="#755026" fill-rule="evenodd" stroke="none"/>
    <path d="M41.0 41.35 L41.0 41.45 40.95 41.6 40.85 42.0 Q40.4 44.6 37.55 46.35 L37.6 46.35 Q35.0 47.95 31.75 47.95 28.4 47.95 25.9 46.35 23.05 44.6 22.65 42.0 L22.6 41.6 Q22.2 38.9 24.7 36.7 27.4 34.15 31.75 34.2 36.0 34.15 38.75 36.7 41.1 38.75 41.0 41.35 M23.95 41.65 L24.0 42.0 Q24.3 44.15 26.6 45.6 L26.65 45.6 Q28.8 47.0 31.75 47.05 34.6 47.0 36.8 45.6 39.05 44.15 39.5 42.0 L39.5 41.95 39.5 41.75 39.5 41.65 Q39.6 40.4 39.0 39.2 L38.95 39.15 38.85 39.0 38.6 38.6 38.5 38.6 38.45 38.45 38.2 38.25 38.05 38.05 38.0 38.0 37.65 37.75 Q35.3 35.65 31.75 35.75 28.1 35.65 25.8 37.75 23.8 39.5 23.95 41.6 L23.95 41.65" fill="#990000" fill-rule="evenodd" stroke="none"/>
    <path d="M41.0 41.35 Q41.1 38.75 38.75 36.7 36.0 34.15 31.75 34.2 27.4 34.15 24.7 36.7 22.2 38.9 22.6 41.6 L22.55 41.35 Q21.95 38.25 24.55 35.8 27.35 33.25 31.75 33.25 36.1 33.25 38.85 35.8 41.45 38.25 41.0 41.35 M39.5 41.95 L39.5 42.0 Q39.05 44.15 36.8 45.6 34.6 47.0 31.75 47.05 28.8 47.0 26.65 45.6 L26.6 45.6 Q24.3 44.15 24.0 42.0 L23.95 41.65 Q24.4 43.65 26.6 45.05 28.8 46.5 31.75 46.5 34.65 46.5 36.9 45.05 L36.95 45.05 Q38.9 43.75 39.5 41.95" fill="#710000" fill-rule="evenodd" stroke="none"/>
    <path d="M23.95 41.65 L23.95 41.6 Q23.8 39.5 25.8 37.75 28.1 35.65 31.75 35.75 35.3 35.65 37.65 37.75 L38.0 38.0 38.05 38.05 38.2 38.25 38.45 38.45 38.5 38.6 38.6 38.6 38.85 39.0 38.95 39.15 39.0 39.2 Q39.6 40.4 39.5 41.65 L39.5 41.75 39.5 41.95 Q38.9 43.75 36.95 45.05 L36.9 45.05 Q34.65 46.5 31.75 46.5 28.8 46.5 26.6 45.05 24.4 43.65 23.95 41.65" fill="url(#gradient1)" fill-rule="evenodd" stroke="none"/>
    <path d="M47.7 40.6 L16.4 41.7 15.35 33.05 48.8 32.85 47.7 40.6" fill="#000000" fill-opacity="0.4" fill-rule="evenodd" stroke="none"/>
    <path d="M14.0 -1.3 L12.85 -0.9 12.85 30.45 13.95 30.05 13.3 30.8 16.4 30.8 46.95 31.05 46.05 30.8 50.9 30.8 50.45 30.2 51.5 30.45 51.5 -0.85 51.5 30.45 50.45 30.2 50.9 30.8 46.05 30.8 46.95 31.05 16.4 30.8 13.3 30.8 13.95 30.05 12.85 30.45 12.85 -0.9 14.0 -1.3 Q23.9 -4.8 30.05 -12.3 30.1 -13.2 30.55 -13.75 31.1 -14.4 31.8 -14.4 32.5 -14.4 33.0 -13.75 33.55 -13.15 33.55 -12.2 L33.55 -11.05 Q40.8 -4.15 51.5 -0.9 L51.5 -0.85 55.45 -0.7 55.45 35.05 55.45 35.8 53.55 35.8 49.5 35.8 53.55 35.8 53.65 36.4 Q53.65 37.0 52.9 37.4 52.35 37.85 51.5 37.85 50.65 37.85 49.9 37.4 49.35 37.0 49.35 36.4 L49.5 35.8 46.4 35.8 42.35 35.8 46.4 35.8 46.55 36.4 Q46.55 37.0 45.85 37.4 L44.4 37.85 Q43.5 37.85 42.8 37.4 42.25 37.0 42.25 36.4 L42.35 35.8 39.05 35.8 35.0 35.8 39.05 35.8 39.2 36.4 Q39.2 37.0 38.45 37.4 L37.0 37.85 35.45 37.4 Q34.85 37.0 34.85 36.4 L35.0 35.8 30.95 35.8 26.9 35.8 30.95 35.8 31.1 36.4 Q31.1 37.0 30.35 37.4 29.8 37.85 28.9 37.85 L27.35 37.4 Q26.75 37.0 26.75 36.4 L26.9 35.8 23.1 35.8 19.05 35.8 23.1 35.8 23.25 36.4 Q23.25 37.0 22.55 37.4 L21.1 37.85 Q20.2 37.85 19.5 37.4 18.9 37.0 18.9 36.4 L19.05 35.8 15.5 35.8 11.45 35.8 15.5 35.8 15.65 36.4 Q15.65 37.0 14.95 37.4 14.35 37.85 13.5 37.85 12.6 37.85 11.9 37.4 11.35 37.0 11.35 36.4 L11.45 35.8 8.8 35.8 8.8 -0.7 14.0 -1.3 M32.6 16.35 L32.45 16.4 31.55 16.2 30.85 16.1 30.25 16.1 30.05 15.0 30.05 -12.2 30.05 -12.3 30.05 -12.2 30.05 15.0 30.25 16.1 30.85 16.1 31.55 16.2 32.45 16.4 32.6 16.35 32.65 16.25 32.75 16.2 32.8 16.15 32.95 16.1 33.15 16.05 33.35 16.0 33.55 15.0 33.55 -11.05 33.55 15.0 33.35 16.0 33.15 16.05 32.95 16.1 32.8 16.15 32.75 16.2 32.65 16.25 32.6 16.35 Q40.05 27.3 50.45 30.2 40.05 27.3 32.6 16.35 M13.95 30.05 Q24.45 25.5 31.15 16.75 L31.55 16.2 31.15 16.75 Q24.45 25.5 13.95 30.05 M46.05 30.8 Q41.75 29.55 38.35 26.85 35.45 24.65 31.7 20.0 24.0 29.3 16.4 30.8 24.0 29.3 31.7 20.0 35.45 24.65 38.35 26.85 41.75 29.55 46.05 30.8" fill="#000000" fill-rule="evenodd" stroke="none"/>
    <path d="M51.5 -0.85 L51.5 30.45 50.45 30.2 50.9 30.8 46.05 30.8 46.95 31.05 16.4 30.8 13.3 30.8 13.95 30.05 12.85 30.45 12.85 -0.9 14.0 -1.3 8.8 -0.7 8.8 35.8 11.45 35.8 15.5 35.8 19.05 35.8 23.1 35.8 26.9 35.8 30.95 35.8 35.0 35.8 39.05 35.8 42.35 35.8 46.4 35.8 49.5 35.8 53.55 35.8 55.45 35.8 55.45 35.05 55.45 -0.7 51.5 -0.85 51.5 -0.9 Q40.8 -4.15 33.55 -11.05 L33.55 15.0 33.35 16.0 33.15 16.05 32.95 16.1 32.8 16.15 32.75 16.2 32.65 16.25 32.6 16.35 Q40.05 27.3 50.45 30.2 M30.05 -12.3 L30.05 -12.2 30.05 15.0 30.25 16.1 30.85 16.1 31.55 16.2 32.45 16.4 32.6 16.35 M33.55 -11.05 L33.55 -12.2 Q33.55 -13.15 33.0 -13.75 32.5 -14.4 31.8 -14.4 31.1 -14.4 30.55 -13.75 30.1 -13.2 30.05 -12.3 23.9 -4.8 14.0 -1.3 M49.5 35.8 L49.35 36.4 Q49.35 37.0 49.9 37.4 50.65 37.85 51.5 37.85 52.35 37.85 52.9 37.4 53.65 37.0 53.65 36.4 L53.55 35.8 M42.35 35.8 L42.25 36.4 Q42.25 37.0 42.8 37.4 43.5 37.85 44.4 37.85 L45.85 37.4 Q46.55 37.0 46.55 36.4 L46.4 35.8 M31.55 16.2 L31.15 16.75 Q24.45 25.5 13.95 30.05 M11.45 35.8 L11.35 36.4 Q11.35 37.0 11.9 37.4 12.6 37.85 13.5 37.85 14.35 37.85 14.95 37.4 15.65 37.0 15.65 36.4 L15.5 35.8 M19.05 35.8 L18.9 36.4 Q18.9 37.0 19.5 37.4 20.2 37.85 21.1 37.85 L22.55 37.4 Q23.25 37.0 23.25 36.4 L23.1 35.8 M26.9 35.8 L26.75 36.4 Q26.75 37.0 27.35 37.4 L28.9 37.85 Q29.8 37.85 30.35 37.4 31.1 37.0 31.1 36.4 L30.95 35.8 M35.0 35.8 L34.85 36.4 Q34.85 37.0 35.45 37.4 L37.0 37.85 38.45 37.4 Q39.2 37.0 39.2 36.4 L39.05 35.8 M16.4 30.8 Q24.0 29.3 31.7 20.0 35.45 24.65 38.35 26.85 41.75 29.55 46.05 30.8" fill="none" stroke="#432e16" stroke-linecap="round" stroke-linejoin="round" stroke-width="2.0"/>
    <path d="M53.65 36.4 Q53.65 37.0 52.9 37.4 52.35 37.85 51.5 37.85 50.65 37.85 49.9 37.4 49.35 37.0 49.35 36.4 49.35 35.75 49.9 35.25 L51.5 34.85 Q52.35 34.85 52.9 35.25 53.65 35.75 53.65 36.4 M46.55 36.4 Q46.55 37.0 45.85 37.4 L44.4 37.85 Q43.5 37.85 42.8 37.4 42.25 37.0 42.25 36.4 42.25 35.75 42.8 35.25 43.5 34.85 44.4 34.85 45.25 34.85 45.85 35.25 46.55 35.75 46.55 36.4 M15.65 36.4 Q15.65 37.0 14.95 37.4 14.35 37.85 13.5 37.85 12.6 37.85 11.9 37.4 11.35 37.0 11.35 36.4 11.35 35.75 11.9 35.25 L13.5 34.85 Q14.35 34.85 14.95 35.25 15.65 35.75 15.65 36.4 M19.5 35.25 L21.1 34.85 Q21.95 34.85 22.55 35.25 23.25 35.75 23.25 36.4 23.25 37.0 22.55 37.4 L21.1 37.85 Q20.2 37.85 19.5 37.4 18.9 37.0 18.9 36.4 18.9 35.75 19.5 35.25 M37.0 34.85 Q37.9 34.85 38.45 35.25 39.2 35.75 39.2 36.4 39.2 37.0 38.45 37.4 L37.0 37.85 35.45 37.4 Q34.85 37.0 34.85 36.4 34.85 35.75 35.45 35.25 36.15 34.85 37.0 34.85 M30.35 35.25 Q31.1 35.75 31.1 36.4 31.1 37.0 30.35 37.4 29.8 37.85 28.9 37.85 L27.35 37.4 Q26.75 37.0 26.75 36.4 26.75 35.75 27.35 35.25 28.05 34.85 28.9 34.85 29.8 34.85 30.35 35.25" fill="#593d1e" fill-rule="evenodd" stroke="none"/>
    <path d="M9.3 35.8 L8.8 35.8 8.8 -0.7 Q16.95 -1.1 24.3 -4.5 L24.95 11.7 25.3 19.45 9.3 35.8" fill="#840000" fill-rule="evenodd" stroke="none"/>
    <path d="M55.45 35.05 L55.45 35.8 9.3 35.8 25.3 19.45 24.95 11.7 35.95 11.7 55.45 35.05" fill="#aa0000" fill-rule="evenodd" stroke="none"/>
    <path d="M24.3 -4.5 Q27.35 -5.95 30.25 -7.9 41.8 -0.8 55.45 -0.7 L55.45 35.05 35.95 11.7 24.95 11.7 24.3 -4.5" fill="url(#gradient2)" fill-rule="evenodd" stroke="none"/>
    <path d="M32.1 7.7 L51.4 30.5 12.85 30.5 32.1 7.7" fill="#b70000" fill-rule="evenodd" stroke="none"/>
    <path d="M22.15 30.85 Q26.55 28.1 31.0 22.7 34.75 27.35 37.65 29.55 L39.6 31.0 22.15 30.85" fill="#755026" fill-rule="evenodd" stroke="none"/>
    <path d="M39.6 31.0 L37.65 29.55 Q34.75 27.35 31.0 22.7 26.55 28.1 22.15 30.85 L16.4 30.8 Q24.0 29.3 31.7 20.0 35.45 24.65 38.35 26.85 42.1 29.85 46.95 31.05 L39.6 31.0" fill="#593d1e" fill-rule="evenodd" stroke="none"/>
    <path d="M28.1 20.35 Q21.75 26.85 12.85 30.45 L12.85 -0.9 Q22.0 -3.9 28.1 -10.1 L28.1 20.35" fill="#990000" fill-rule="evenodd" stroke="none"/>
    <path d="M28.1 -10.1 L31.1 -13.65 31.15 -13.55 31.15 16.75 28.1 20.35 28.1 -10.1" fill="#840000" fill-rule="evenodd" stroke="none"/>
    <path d="M31.15 -13.55 Q39.0 -4.65 51.5 -0.9 L51.5 30.45 Q40.05 27.75 32.05 15.55 L31.15 16.75 31.15 -13.55" fill="url(#gradient3)" fill-rule="evenodd" stroke="none"/>
    <path d="M33.0 -13.75 Q33.55 -13.15 33.55 -12.2 L33.55 15.0 33.35 16.0 33.15 16.05 32.95 16.1 32.8 16.15 32.75 16.2 32.65 16.25 32.45 16.4 30.85 16.1 30.25 16.1 30.05 15.0 30.05 -12.2 Q30.05 -13.15 30.55 -13.75 31.1 -14.4 31.8 -14.4 32.5 -14.4 33.0 -13.75" fill="url(#gradient4)" fill-rule="evenodd" stroke="none"/>
    <path d="M32.95 16.45 Q32.5 16.85 31.85 16.85 31.15 16.85 30.65 16.45 30.2 16.2 30.2 15.8 30.2 15.3 30.65 15.05 L31.85 14.75 32.95 15.05 Q33.45 15.3 33.45 15.8 33.45 16.2 32.95 16.45" fill="#755026" fill-rule="evenodd" stroke="none"/>
  </g>
  <defs>
    <linearGradient gradientTransform="matrix(0.0108, 0.0, 0.0, 0.0293, 9.15, 26.35)" gradientUnits="userSpaceOnUse" id="gradient0" spreadMethod="pad" x1="-819.2" x2="819.2">
      <stop offset="0.0" stop-color="#000000" stop-opacity="0.0"/>
      <stop offset="1.0" stop-color="#000000" stop-opacity="0.49803922"/>
    </linearGradient>
    <linearGradient gradientTransform="matrix(4.0E-4, -0.012, 0.007, 2.0E-4, 31.85, 42.65)" gradientUnits="userSpaceOnUse" id="gradient1" spreadMethod="pad" x1="-819.2" x2="819.2">
      <stop offset="0.0" stop-color="#432e16"/>
      <stop offset="1.0" stop-color="#000000"/>
    </linearGradient>
    <linearGradient gradientTransform="matrix(0.0177, -0.0283, 0.0222, 0.0139, 51.85, -2.7)" gradientUnits="userSpaceOnUse" id="gradient2" spreadMethod="pad" x1="-819.2" x2="819.2">
      <stop offset="0.0" stop-color="#b00000"/>
      <stop offset="1.0" stop-color="#e80000"/>
    </linearGradient>
    <linearGradient gradientTransform="matrix(0.0158, -0.013, 0.0171, 0.0207, 44.3, 5.45)" gradientUnits="userSpaceOnUse" id="gradient3" spreadMethod="pad" x1="-819.2" x2="819.2">
      <stop offset="0.0" stop-color="#c10000"/>
      <stop offset="1.0" stop-color="#e80000"/>
    </linearGradient>
    <linearGradient gradientTransform="matrix(0.0021, 0.0, 0.0, 0.0193, 31.8, 1.4)" gradientUnits="userSpaceOnUse" id="gradient4" spreadMethod="pad" x1="-819.2" x2="819.2">
      <stop offset="0.0" stop-color="#9a6832"/>
      <stop offset="1.0" stop-color="#c0833f"/>
    </linearGradient>
  </defs>
</svg>
