<?xml version="1.0" encoding="UTF-8" standalone="no"?>
<svg xmlns:xlink="http://www.w3.org/1999/xlink" height="52.9px" width="60.95px" xmlns="http://www.w3.org/2000/svg">
  <g transform="matrix(1.0, 0.0, 0.0, 1.0, 8.0, 22.4)">
    <path d="M2.45 -13.55 L4.7 -15.6 12.55 -11.6 11.7 -8.9 13.55 -11.15 18.05 -8.75 17.45 -7.05 18.95 -8.3 20.95 -7.3 21.1 -7.55 21.65 -7.15 18.4 -1.9 17.35 -0.15 17.3 -0.1 19.3 0.85 19.35 0.85 Q20.65 -0.25 22.5 -0.25 L24.6 0.2 38.65 -22.4 40.5 -21.55 40.35 -21.25 49.2 -16.7 48.65 -16.25 48.35 -16.4 45.6 -12.15 42.7 -13.35 45.05 -11.4 40.5 -4.6 37.35 -5.3 39.95 -3.75 37.2 0.25 35.25 -0.25 36.6 1.0 36.05 1.85 35.5 2.7 35.55 2.7 35.8 2.85 35.35 3.4 29.3 0.55 28.8 0.3 27.3 -0.4 27.25 -0.4 26.15 1.35 Q27.1 2.35 27.1 3.75 27.1 4.85 26.55 5.75 39.75 11.95 52.95 18.1 L52.0 19.75 51.6 19.6 50.95 20.55 46.35 27.3 45.8 26.85 46.0 26.6 41.1 24.2 42.5 21.65 40.25 23.7 32.4 19.7 33.25 17.0 31.4 19.25 26.9 16.85 27.5 15.15 26.0 16.4 24.0 15.4 23.85 15.65 23.3 15.25 26.55 10.0 27.65 8.25 27.65 8.2 25.25 7.05 25.2 7.05 Q24.0 7.8 22.5 7.8 L20.65 7.5 6.3 30.5 4.45 29.65 4.65 29.35 4.7 29.25 -3.7 24.95 -3.4 24.5 -0.65 20.25 2.25 21.45 -0.1 19.5 4.45 12.7 7.6 13.4 5.0 11.85 7.75 7.85 9.7 8.35 8.35 7.1 9.45 5.4 9.15 5.25 9.6 4.7 15.65 7.55 16.15 7.8 17.7 8.55 17.7 8.5 19.0 6.45 Q17.85 5.3 17.85 3.75 17.85 2.95 18.2 2.25 L-8.0 -10.0 -7.05 -11.65 -6.65 -11.45 -6.0 -12.45 -1.4 -19.2 -0.85 -18.75 -1.0 -18.45 3.85 -16.1 2.45 -13.55" fill="#000000" fill-opacity="0.21960784" fill-rule="evenodd" stroke="none"/>
  </g>
</svg>
