<?xml version="1.0" encoding="UTF-8" standalone="no"?>
<svg xmlns:xlink="http://www.w3.org/1999/xlink" height="54.4px" width="62.55px" xmlns="http://www.w3.org/2000/svg">
  <g transform="matrix(1.0, 0.0, 0.0, 1.0, 8.8, 23.15)">
    <path d="M1.4 -12.65 L3.6 -14.75 11.65 -11.15 10.95 -8.4 12.65 -10.75 17.3 -8.6 16.8 -6.8 18.2 -8.1 20.25 -7.2 20.3 -7.2 20.4 -7.45 21.0 -7.1 18.1 -1.65 17.1 0.15 17.55 0.35 17.7 0.45 17.85 0.5 19.15 1.0 19.2 0.95 Q20.55 -0.25 22.5 -0.25 L24.4 0.1 37.0 -23.15 38.95 -22.35 38.8 -22.05 41.35 -20.85 42.2 -20.45 47.9 -17.9 47.45 -17.4 47.1 -17.55 44.6 -13.15 41.6 -14.3 44.1 -12.4 39.95 -5.35 36.75 -5.95 39.45 -4.5 37.0 -0.45 34.95 -0.8 36.45 0.35 36.2 0.8 35.45 2.15 35.7 2.25 35.25 2.8 29.05 0.25 28.55 0.0 27.0 -0.6 26.0 1.2 Q27.1 2.25 27.1 3.75 27.1 4.75 26.65 5.55 L53.75 16.7 52.85 18.4 52.5 18.25 52.45 18.25 47.7 26.2 47.15 25.75 47.35 25.45 47.3 25.45 42.25 23.3 43.55 20.75 41.35 22.85 33.3 19.25 34.0 16.5 32.3 18.85 27.65 16.7 28.15 14.9 26.75 16.2 24.7 15.35 24.55 15.55 23.95 15.2 27.4 8.85 27.9 7.95 25.45 6.9 25.4 6.95 Q24.15 7.8 22.5 7.8 L20.85 7.55 7.95 31.25 6.0 30.45 6.2 30.1 6.3 30.0 -2.4 26.1 -2.15 25.65 0.35 21.25 3.35 22.4 0.85 20.5 5.0 13.45 8.2 14.05 5.5 12.6 7.95 8.55 10.0 8.9 8.5 7.75 9.55 6.0 9.25 5.85 9.7 5.3 15.9 7.9 16.45 8.1 18.0 8.75 19.15 6.6 Q17.85 5.4 17.85 3.75 17.85 3.05 18.1 2.5 L-8.8 -8.6 -7.9 -10.3 -7.5 -10.1 -7.5 -10.15 -2.75 -18.1 -2.2 -17.65 -2.35 -17.35 2.7 -15.2 1.4 -12.65" fill="#000000" fill-opacity="0.21960784" fill-rule="evenodd" stroke="none"/>
  </g>
</svg>
