<?xml version="1.0" encoding="UTF-8" standalone="no"?>
<svg xmlns:xlink="http://www.w3.org/1999/xlink" height="41.5px" width="46.4px" xmlns="http://www.w3.org/2000/svg">
  <g transform="matrix(1.0, 0.0, 0.0, 1.0, 6.8, 1.15)">
    <path d="M31.05 23.2 L37.35 29.5 Q37.9 30.3 37.25 32.3 L37.3 32.35 37.1 32.9 Q36.4 34.55 35.15 35.75 33.7 37.25 31.95 38.0 L29.25 38.05 23.25 32.05 16.75 25.3 Q15.75 24.1 15.5 21.85 15.25 19.9 15.55 19.3 L15.8 19.25 9.65 13.1 8.75 13.2 Q8.05 13.2 7.5 12.8 6.85 13.0 6.5 13.35 L6.25 13.8 6.0 14.35 5.9 15.15 5.9 15.25 5.85 15.3 5.85 15.65 5.8 16.05 6.8 17.35 Q6.9 17.75 5.05 19.8 3.15 21.8 2.55 21.8 1.9 21.75 -1.35 18.5 -4.55 15.3 -4.8 14.55 -5.0 13.95 -3.05 12.1 -1.1 10.35 -0.35 10.3 -0.1 10.25 0.8 11.05 L0.95 10.95 1.45 10.9 2.1 10.75 Q2.85 10.6 3.1 10.25 L3.9 8.85 3.8 8.25 Q3.75 7.1 4.55 6.3 L4.6 6.25 4.5 6.25 6.75 4.1 Q9.55 1.8 11.8 1.05 14.15 0.4 17.2 2.05 19.95 3.5 19.8 4.15 L19.75 4.6 19.35 5.0 17.2 4.55 Q15.2 4.15 13.45 5.8 12.15 6.9 12.0 8.75 L12.25 9.7 12.25 10.5 18.15 16.4 Q18.3 16.0 20.45 16.0 22.85 15.95 24.15 16.9 L31.05 23.2" fill="#000000" fill-rule="evenodd" stroke="none"/>
    <path d="M31.05 23.2 L37.35 29.5 Q37.9 30.3 37.25 32.3 L37.3 32.35 37.1 32.9 Q36.4 34.55 35.15 35.75 33.7 37.25 31.95 38.0 L29.25 38.05 23.25 32.05 16.75 25.3 Q15.75 24.1 15.5 21.85 15.25 19.9 15.55 19.3 L15.8 19.25 9.65 13.1 8.75 13.2 Q8.05 13.2 7.5 12.8 6.85 13.0 6.5 13.35 L6.25 13.8 6.0 14.35 5.9 15.15 5.9 15.25 5.85 15.3 5.85 15.65 5.8 16.05 6.8 17.35 Q6.9 17.75 5.05 19.8 3.15 21.8 2.55 21.8 1.9 21.75 -1.35 18.5 -4.55 15.3 -4.8 14.55 -5.0 13.95 -3.05 12.1 -1.1 10.35 -0.35 10.3 -0.1 10.25 0.8 11.05 L0.95 10.95 1.45 10.9 2.1 10.75 Q2.85 10.6 3.1 10.25 L3.9 8.85 3.8 8.25 Q3.75 7.1 4.55 6.3 L4.6 6.25 4.5 6.25 6.75 4.1 Q9.55 1.8 11.8 1.05 14.15 0.4 17.2 2.05 19.95 3.5 19.8 4.15 L19.75 4.6 19.35 5.0 17.2 4.55 Q15.2 4.15 13.45 5.8 12.15 6.9 12.0 8.75 L12.25 9.7 12.25 10.5 18.15 16.4 Q18.3 16.0 20.45 16.0 22.85 15.95 24.15 16.9 L31.05 23.2 Z" fill="none" stroke="#000000" stroke-linecap="round" stroke-linejoin="round" stroke-width="4.0"/>
    <path d="M2.1 10.75 Q2.85 10.6 3.1 10.25 3.7 9.6 4.7 6.65 L9.45 12.5 8.65 12.6 8.4 12.15 Q7.55 11.3 5.85 12.7 L5.1 13.45 2.1 10.75 M0.95 11.7 L0.3 11.05 0.5 11.05 0.95 11.7" fill="#cccccc" fill-rule="evenodd" stroke="none"/>
    <path d="M8.65 12.6 L8.45 12.6 Q7.05 12.8 6.5 13.35 L6.25 13.8 6.0 14.35 5.9 15.15 5.9 15.25 5.85 15.3 5.85 15.65 5.8 16.55 0.95 11.7 0.5 11.05 0.95 10.95 1.45 10.9 2.1 10.75 5.1 13.45 5.85 12.7 Q7.55 11.3 8.4 12.15 L8.65 12.6" fill="#999999" fill-rule="evenodd" stroke="none"/>
    <path d="M18.9 17.15 L22.35 20.6 Q22.75 21.0 22.7 21.75 22.6 22.45 22.1 22.95 21.55 23.5 20.85 23.6 20.15 23.6 19.75 23.2 L10.8 14.25 11.85 13.4 12.8 12.15 15.2 14.75 Q18.8 18.65 19.3 18.15 19.5 17.95 18.9 17.15 M9.35 12.6 L9.3 12.05 Q9.4 11.35 9.95 10.8 10.45 10.3 11.15 10.2 L11.75 10.2 9.35 12.6 M13.45 14.8 Q12.9 14.25 12.45 14.3 12.3 14.85 13.7 16.25 L15.6 17.65 Q15.65 16.95 13.45 14.8" fill="#cccccc" fill-rule="evenodd" stroke="none"/>
    <path d="M18.9 17.15 Q19.5 17.95 19.3 18.15 18.8 18.65 15.2 14.75 L12.8 12.15 11.85 13.4 10.8 14.25 9.7 13.15 9.35 12.6 11.75 10.2 12.3 10.55 18.9 17.15" fill="#999999" fill-rule="evenodd" stroke="none"/>
    <path d="M13.45 14.8 Q15.65 16.95 15.6 17.65 L13.7 16.25 Q12.3 14.85 12.45 14.3 12.9 14.25 13.45 14.8" fill="#e8e8e8" fill-rule="evenodd" stroke="none"/>
    <path d="M19.8 4.15 L19.75 4.6 19.35 5.0 17.2 4.55 Q15.2 4.15 13.45 5.8 12.15 6.9 12.0 8.75 L12.25 9.7 12.25 10.5 12.2 10.75 12.15 10.7 11.55 11.65 10.75 12.45 Q9.95 13.25 8.75 13.2 7.6 13.15 6.7 12.25 L4.75 10.3 Q3.9 9.45 3.8 8.25 3.75 7.1 4.55 6.3 L4.6 6.25 4.5 6.25 6.75 4.1 Q9.55 1.8 11.8 1.05 14.15 0.4 17.2 2.05 19.95 3.5 19.8 4.15" fill="#cccccc" fill-rule="evenodd" stroke="none"/>
    <path d="M37.1 32.9 L36.8 33.45 35.3 32.05 29.2 26.1 24.1 21.45 21.5 19.2 19.3 18.45 17.75 18.1 17.9 17.85 18.1 17.25 18.15 17.2 18.15 16.5 Q18.1 16.05 20.45 16.0 22.85 15.95 24.15 16.9 L31.05 23.2 37.35 29.5 Q37.9 30.3 37.25 32.3 L37.3 32.35 37.1 32.9" fill="#7d5528" fill-rule="evenodd" stroke="none"/>
    <path d="M17.75 18.1 L19.3 18.45 21.5 19.2 24.1 21.45 29.2 26.1 35.3 32.05 36.8 33.45 37.1 32.9 Q36.4 34.55 35.15 35.75 33.7 37.25 31.95 38.0 L29.25 38.05 23.25 32.05 16.75 25.3 Q15.75 24.1 15.5 21.85 15.25 19.9 15.55 19.3 16.85 19.1 17.6 18.25 L17.75 18.1" fill="#a87337" fill-rule="evenodd" stroke="none"/>
    <path d="M24.15 16.9 L31.05 23.2 37.35 29.5 Q37.9 30.3 37.25 32.3 L37.3 32.35 37.1 32.9 36.8 33.45 35.3 32.05 29.2 26.1 24.1 21.45 21.5 19.2 19.3 18.45 17.75 18.1 17.9 17.85 18.1 17.25 18.15 17.2 18.15 16.5 Q18.1 16.05 20.45 16.0 22.85 15.95 24.15 16.9" fill="#7d5528" fill-rule="evenodd" stroke="none"/>
    <path d="M5.05 19.8 Q3.15 21.8 2.55 21.8 1.9 21.75 -1.35 18.5 -4.55 15.3 -4.8 14.55 -5.0 13.95 -3.05 12.1 -1.1 10.35 -0.35 10.3 0.2 10.25 3.45 13.6 L6.8 17.35 Q6.9 17.75 5.05 19.8" fill="#cccccc" fill-rule="evenodd" stroke="none"/>
    <path d="M10.15 10.25 L9.7 10.75 Q8.8 11.35 7.95 11.2 7.35 11.1 6.95 10.7 L6.4 9.8 Q6.0 8.95 6.1 8.65 L6.2 8.55 6.35 8.6 7.15 10.0 Q7.5 10.35 8.05 10.5 8.8 10.6 9.45 10.0 L9.8 9.55 10.05 9.0 10.1 8.95 10.25 9.0 10.25 9.6 10.15 10.25 M14.1 2.65 Q14.55 3.1 14.25 3.4 12.25 3.2 11.95 3.4 L10.1 4.75 8.25 5.9 Q8.65 3.9 11.0 2.85 13.25 1.8 14.1 2.65 M0.35 18.3 L-0.9 17.35 Q-3.95 14.3 1.1 18.25 L1.65 19.1 0.35 18.3 M-3.25 14.0 Q-3.3 13.35 -2.9 12.95 L-2.05 12.9 Q-1.8 13.15 -2.0 13.25 L-2.4 13.45 Q-2.6 13.65 -2.6 14.85 L-3.15 14.6 -3.25 14.0" fill="#e8e8e8" fill-rule="evenodd" stroke="none"/>
    <path d="M20.6 23.35 L20.1 22.85 Q19.25 22.0 19.95 21.0 20.7 20.05 21.9 21.25 22.8 22.1 21.95 22.95 21.25 23.65 20.6 23.35 M33.65 34.2 Q33.05 34.8 32.5 34.55 L32.2 34.4 31.7 33.95 Q30.85 33.1 31.65 32.25 32.2 31.75 32.8 31.9 33.2 31.85 33.65 32.25 34.6 33.25 33.65 34.2" fill="#cccccc" fill-rule="evenodd" stroke="none"/>
  </g>
</svg>
