<?xml version="1.0" encoding="UTF-8" standalone="no"?>
<svg xmlns:xlink="http://www.w3.org/1999/xlink" height="22.9px" width="14.25px" xmlns="http://www.w3.org/2000/svg">
  <g transform="matrix(1.0, 0.0, 0.0, 1.0, -67.4, 44.05)">
    <path d="M80.4 -30.2 L80.45 -31.55 Q80.55 -32.7 79.9 -33.2 79.2 -33.7 78.95 -35.2 L78.55 -37.4 Q77.45 -39.85 75.35 -41.35 73.7 -42.45 72.0 -42.45 71.45 -42.45 70.1 -41.85 68.65 -41.2 68.65 -40.75 68.65 -40.35 70.25 -38.75 71.95 -37.1 72.15 -35.75 72.6 -32.85 73.7 -31.65 M73.8 -30.9 L73.9 -29.05 Q73.9 -28.0 73.55 -27.65 73.2 -27.3 73.2 -26.65 73.2 -24.75 74.9 -23.8 75.9 -23.25 78.75 -22.15 L80.0 -22.15 80.0 -22.45 M76.4 -23.7 Q76.95 -25.05 78.6 -26.15 L80.3 -27.1" fill="none" stroke="#ffffff" stroke-linecap="round" stroke-linejoin="miter" stroke-miterlimit="3.0" stroke-width="2.0"/>
  </g>
</svg>
