<?xml version="1.0" encoding="UTF-8" standalone="no"?>
<svg xmlns:xlink="http://www.w3.org/1999/xlink" height="25.15px" width="45.8px" xmlns="http://www.w3.org/2000/svg">
  <g transform="matrix(1.0, 0.0, 0.0, 1.0, -15.4, -19.75)">
    <path d="M42.35 19.85 L42.3 19.75 42.5 19.8 42.35 19.85" fill="#000000" fill-opacity="0.12941177" fill-rule="evenodd" stroke="none"/>
    <path d="M56.0 24.35 L56.6 23.9 57.95 23.75 59.4 23.95 60.25 24.65 Q60.75 24.85 61.15 25.2 L61.2 25.25 61.2 25.6 Q59.85 26.7 59.6 28.8 L59.55 29.5 59.1 29.65 58.85 29.65 58.75 29.75 58.6 30.0 58.5 30.15 58.4 30.3 58.35 30.3 58.1 31.4 57.95 31.5 57.85 31.5 57.75 31.5 57.75 40.9 57.05 40.9 57.25 41.3 57.8 42.5 Q58.35 43.65 57.1 43.25 L55.85 42.45 54.1 40.9 38.7 40.9 38.7 40.95 Q39.4 41.6 39.55 42.5 39.75 43.85 38.75 42.95 L37.5 41.7 36.7 40.9 36.5 40.9 36.3 40.9 34.65 40.9 33.15 40.85 32.9 40.85 32.75 40.9 22.0 40.9 22.0 41.0 21.15 41.45 20.1 41.7 19.4 41.65 19.35 41.7 18.65 42.95 17.8 44.1 16.9 44.9 16.8 44.85 16.65 44.75 16.5 44.45 16.5 44.35 16.65 44.05 16.7 43.95 16.7 43.85 16.7 43.75 16.65 43.65 16.55 43.55 16.55 43.4 Q16.4 43.4 16.25 43.6 L16.2 43.65 16.15 43.5 15.4 42.55 16.05 41.05 16.3 40.35 16.3 26.05 28.55 26.05 28.65 26.2 Q29.45 27.85 29.9 26.05 L31.95 26.05 Q32.2 25.45 32.6 25.05 L32.95 25.05 33.95 25.0 34.15 25.0 34.15 25.05 34.15 25.2 34.15 25.35 34.0 25.65 33.95 25.65 33.85 25.7 33.8 25.65 33.7 25.65 33.6 25.6 33.5 25.5 33.25 25.65 33.0 25.95 32.95 26.05 42.5 26.05 42.65 26.3 Q43.65 28.0 44.0 26.05 L50.4 26.05 50.45 26.0 50.9 25.1 51.6 24.6 51.95 24.95 51.6 25.75 51.4 26.05 54.3 26.05 Q54.45 25.55 54.95 25.15 L56.0 24.35 M56.5 25.9 L56.25 26.05 57.25 26.05 57.3 25.3 56.5 25.9" fill="#000000" fill-opacity="0.2509804" fill-rule="evenodd" stroke="none"/>
  </g>
</svg>
