<?xml version="1.0" encoding="UTF-8" standalone="no"?>
<svg xmlns:xlink="http://www.w3.org/1999/xlink" height="62.3px" width="69.6px" xmlns="http://www.w3.org/2000/svg">
  <g transform="matrix(1.0, 0.0, 0.0, 1.0, 51.5, 13.55)">
    <path d="M-4.75 -5.3 Q4.8 -1.25 13.6 4.8 L0.6 19.3 Q-2.15 15.05 -5.2 11.0 -11.2 2.9 -12.5 3.85 -13.8 4.8 -10.4 15.4 L-6.75 25.75 -25.1 44.25 -39.85 42.3 -26.85 31.2 -38.25 39.3 -47.0 37.1 -36.1 30.2 -43.6 33.75 -46.25 31.0 -30.85 22.0 -29.9 11.65 Q-28.65 0.45 -27.2 -3.75 -23.75 -13.5 -4.75 -5.3" fill="#3c190a" fill-rule="evenodd" stroke="none"/>
    <path d="M-4.75 -5.3 Q4.8 -1.25 13.6 4.8 L0.6 19.3 Q-2.15 15.05 -5.2 11.0 -11.2 2.9 -12.5 3.85 -13.8 4.8 -10.4 15.4 L-6.75 25.75 -25.1 44.25 -39.85 42.3 -26.85 31.2 -38.25 39.3 -47.0 37.1 -36.1 30.2 -43.6 33.75 -46.25 31.0 -30.85 22.0 -29.9 11.65 Q-28.65 0.45 -27.2 -3.75 -23.75 -13.5 -4.75 -5.3 Z" fill="none" stroke="#3c190a" stroke-linecap="round" stroke-linejoin="round" stroke-width="9.0"/>
    <path d="M-4.75 -5.3 Q4.8 -1.25 13.6 4.8 L0.6 19.3 Q-2.15 15.05 -5.2 11.0 -11.2 2.9 -12.5 3.85 -13.8 4.8 -10.4 15.4 L-6.75 25.75 -25.1 44.25 -39.85 42.3 -26.85 31.2 -38.25 39.3 -47.0 37.1 -36.1 30.2 -43.6 33.75 -46.25 31.0 -30.85 22.0 -29.9 11.65 Q-28.65 0.45 -27.2 -3.75 -23.75 -13.5 -4.75 -5.3" fill="#bf7926" fill-rule="evenodd" stroke="none"/>
    <path d="M-4.75 -5.3 Q4.8 -1.25 13.6 4.8 L0.6 19.3 Q-2.15 15.05 -5.2 11.0 -11.2 2.9 -12.5 3.85 -13.8 4.8 -10.4 15.4 L-6.75 25.75 -15.3 34.35 Q-14.75 30.85 -13.4 27.3 -18.15 31.55 -24.2 34.55 -23.75 30.25 -21.8 26.15 -26.95 30.45 -33.15 33.15 -31.35 28.95 -27.8 25.45 -32.55 27.7 -38.15 29.05 -37.4 26.85 -35.95 25.0 L-30.85 22.0 -30.8 21.7 -30.8 21.4 -30.8 21.35 -29.9 11.65 Q-28.65 0.45 -27.2 -3.75 -23.75 -13.5 -4.75 -5.3" fill="#70381f" fill-rule="evenodd" stroke="none"/>
  </g>
</svg>
