<?xml version="1.0" encoding="UTF-8" standalone="no"?>
<svg xmlns:xlink="http://www.w3.org/1999/xlink" height="228.0px" width="411.2px" xmlns="http://www.w3.org/2000/svg">
  <g transform="matrix(1.0, 0.0, 0.0, 1.0, 216.6, -8.55)">
    <path d="M-102.9 49.45 Q-30.1 69.75 33.25 115.35 37.85 186.4 87.55 186.55 L83.95 228.85 -90.0 205.7 -115.85 192.35 Q-149.3 126.95 -132.3 50.35 L-102.9 49.45" fill="#ffffff" fill-rule="evenodd" stroke="none"/>
    <path d="M-102.9 49.45 Q-30.1 69.75 33.25 115.35 37.85 186.4 87.55 186.55 L83.95 228.85 -90.0 205.7 -115.85 192.35 Q-149.3 126.95 -132.3 50.35 L-102.9 49.45 Z" fill="none" stroke="#5d3c16" stroke-linecap="round" stroke-linejoin="round" stroke-width="8.0"/>
    <path d="M-102.9 49.45 Q-30.1 69.75 33.25 115.35 37.85 186.4 87.55 186.55 L83.95 228.85 -90.0 205.7 -115.85 192.35 Q-149.3 126.95 -132.3 50.35 L-102.9 49.45" fill="#bd8a4e" fill-rule="evenodd" stroke="none"/>
    <path d="M-103.95 91.4 L-105.7 91.2 -105.3 87.65 -103.6 87.85 Q-28.8 95.65 39.1 148.75 L41.45 155.2 Q-27.6 99.4 -103.95 91.4" fill="#8c6130" fill-rule="evenodd" stroke="none"/>
    <path d="M-103.55 134.15 L-105.3 133.85 -104.85 130.35 -103.05 130.6 Q-21.35 142.4 89.8 195.75 L91.4 196.55 89.85 199.8 88.25 199.0 Q-22.3 145.9 -103.55 134.15" fill="#8c6130" fill-rule="evenodd" stroke="none"/>
    <path d="M-133.1 24.95 L-131.85 20.55 -101.6 12.55 -90.45 37.9 Q-102.0 110.25 -83.35 191.45 L-89.55 193.7 Q-135.2 147.75 -138.15 79.55 -139.05 58.2 -135.6 37.3 -134.5 30.65 -133.1 24.95" fill="#ffffff" fill-rule="evenodd" stroke="none"/>
    <path d="M-133.1 24.95 Q-134.5 30.65 -135.6 37.3 -139.05 58.2 -138.15 79.55 -135.2 147.75 -89.55 193.7 L-83.35 191.45 Q-102.0 110.25 -90.45 37.9 L-101.6 12.55 -131.85 20.55 -133.1 24.95 Z" fill="none" stroke="#622d0d" stroke-linecap="round" stroke-linejoin="round" stroke-width="8.0"/>
    <path d="M-133.1 24.95 L-131.85 20.55 -101.6 12.55 -90.45 37.9 Q-102.0 110.25 -83.35 191.45 L-89.55 193.7 Q-135.2 147.75 -138.15 79.55 -139.05 58.2 -135.6 37.3 -134.5 30.65 -133.1 24.95" fill="#854e2d" fill-rule="evenodd" stroke="none"/>
    <path d="M-102.15 12.7 L-101.6 12.55 -90.45 37.9 Q-102.0 110.25 -83.35 191.45 L-85.5 192.25 Q-131.25 91.45 -102.15 12.7" fill="#773812" fill-rule="evenodd" stroke="none"/>
    <path d="M-207.45 219.95 L-207.65 219.75 -208.65 218.55 Q-214.4 211.05 -207.75 205.1 -201.8 199.75 -183.95 202.4 L-172.25 204.1 Q-166.95 204.6 -166.0 202.95 -165.1 201.3 -171.2 197.25 L-184.65 189.05 Q-193.45 183.6 -196.85 180.1 -201.5 175.2 -198.35 172.0 -192.95 166.8 -180.05 170.25 L-170.45 172.85 Q-165.4 173.9 -162.75 172.7 -160.25 171.55 -165.0 166.25 L-175.95 154.7 Q-182.95 146.9 -184.25 141.7 -185.95 134.6 -178.3 130.6 -164.45 123.25 -142.35 146.9 -136.7 153.0 -126.6 165.75 -118.2 176.35 -115.55 178.5 -112.0 181.4 -109.4 181.05 -107.55 180.8 -104.7 178.4 -101.0 175.3 -98.9 174.15 -94.8 171.9 -89.4 171.95 -83.9 171.95 -80.2 174.15 -77.8 175.7 -75.25 178.95 -72.65 182.25 -71.45 183.0 -69.1 184.5 -65.65 183.5 -62.5 182.6 -56.8 178.1 -49.8 172.4 -45.7 169.4 -30.1 157.9 -16.75 158.55 -9.3 158.9 -1.8 168.45 2.25 173.45 11.5 189.25 20.1 204.05 25.75 210.55 34.55 220.5 43.95 221.55 56.1 223.0 62.4 212.2 66.65 205.05 70.3 186.7 74.7 165.0 77.3 157.9 82.7 143.2 92.8 139.0 100.2 135.85 103.25 141.65 105.65 146.2 105.85 157.4 L105.55 177.15 Q105.55 188.0 107.6 191.9 111.5 199.3 142.9 215.25 L164.85 226.0 Q170.9 228.95 173.8 230.6" fill="none" stroke="#ffffff" stroke-linecap="square" stroke-linejoin="round" stroke-width="8.0"/>
    <path d="M105.5 177.05 Q105.5 188.0 107.55 191.85 111.5 199.2 142.85 215.2 L164.8 225.95 Q175.1 231.0 176.3 232.1 178.7 234.5 177.65 235.75 L176.15 236.55 -201.6 224.85 Q-205.8 222.3 -208.65 218.5 -214.45 211.0 -207.8 205.05 -201.85 199.7 -184.0 202.35 L-172.3 204.05 Q-167.0 204.5 -166.05 202.9 -165.15 201.3 -171.25 197.25 L-184.7 189.0 Q-193.5 183.55 -196.85 180.0 -201.5 175.15 -198.35 171.95 -193.0 166.8 -180.1 170.2 L-170.45 172.8 -162.8 172.6 Q-160.25 171.5 -165.0 166.2 L-175.95 154.7 Q-183.0 146.85 -184.25 141.65 -186.0 134.6 -178.35 130.55 -164.5 123.2 -142.4 146.85 -136.75 152.95 -126.65 165.65 -118.25 176.25 -115.6 178.45 -112.05 181.35 -109.4 181.05 -107.6 180.8 -104.75 178.3 -101.05 175.2 -98.95 174.1 -94.8 171.8 -89.4 171.9 -83.9 171.9 -80.25 174.15 -77.8 175.6 -75.25 178.9 -72.65 182.2 -71.5 182.95 -69.15 184.5 -65.7 183.45 -62.5 182.55 -56.85 178.1 L-45.75 169.4 Q-30.15 157.85 -16.8 158.5 -9.35 158.9 -1.85 168.4 2.2 173.4 11.45 189.2 20.05 204.0 25.7 210.5 34.5 220.45 43.95 221.5 56.05 222.95 62.4 212.15 66.6 205.0 70.3 186.65 74.65 165.0 77.25 157.85 82.7 143.15 92.75 138.95 100.2 135.8 103.2 141.65 105.6 146.15 105.8 157.35 L105.5 177.05" fill="#5fd6ff" fill-rule="evenodd" stroke="none"/>
    <path d="M169.35 22.9 Q170.2 23.7 169.7 25.45 169.3 27.2 167.7 28.9 166.15 30.55 164.4 31.15 162.7 31.75 161.85 30.95 160.95 30.15 161.45 28.4 161.95 26.65 163.5 25.0 165.1 23.3 166.75 22.7 168.45 22.1 169.35 22.9 M181.4 36.65 Q182.15 35.65 183.6 35.1 L186.25 34.85 Q187.55 35.1 187.85 36.0 188.2 36.9 187.4 37.95 186.65 38.95 185.25 39.5 L182.55 39.75 Q181.3 39.5 180.95 38.6 180.65 37.7 181.4 36.65 M187.05 65.7 L188.7 65.65 Q189.35 66.1 189.3 67.2 189.3 68.3 188.6 69.4 187.9 70.5 186.9 70.95 L185.3 71.0 Q184.6 70.6 184.65 69.45 184.7 68.45 185.4 67.35 186.1 66.25 187.05 65.7 M179.75 53.55 Q183.1 54.75 180.8 62.75 180.05 65.2 177.0 69.1 L167.6 80.75 Q161.15 88.45 156.6 92.75 152.0 97.05 149.35 96.1 146.85 95.15 147.05 91.05 147.25 86.65 150.55 80.15 154.65 71.95 161.35 64.55 170.2 54.75 176.55 53.5 178.5 53.05 179.75 53.55 M143.55 71.95 Q141.05 73.5 139.3 72.5 137.5 71.5 137.55 68.55 137.55 65.65 139.35 62.45 141.1 59.3 143.65 57.8 146.1 56.25 147.9 57.25 149.65 58.25 149.65 61.2 149.55 64.1 147.8 67.25 146.0 70.45 143.55 71.95 M150.9 118.15 Q150.9 114.75 152.5 111.9 154.1 109.3 156.1 108.85 158.0 108.5 159.35 110.45 160.5 112.35 160.4 115.5 160.35 118.55 159.0 121.2 157.6 123.9 155.7 124.6 L155.0 124.75 Q153.4 124.95 152.3 123.5 150.8 121.6 150.9 118.15 M-207.2 61.65 Q-204.45 59.25 -197.75 64.05 -193.15 67.25 -190.1 71.95 -187.9 75.35 -187.5 78.0 -187.2 80.25 -188.15 81.45 -189.2 82.55 -191.4 82.35 -194.05 81.95 -197.5 79.65 -200.15 77.8 -202.3 75.5 -204.15 73.6 -205.65 71.2 -210.2 64.15 -207.2 61.65 M-198.1 91.1 Q-195.65 92.1 -193.55 94.65 -191.4 97.25 -190.9 99.85 -190.35 102.4 -191.65 103.5 -192.95 104.55 -195.4 103.55 -197.8 102.5 -199.95 99.9 -202.05 97.35 -202.6 94.8 -203.1 92.2 -201.8 91.15 -200.5 90.05 -198.1 91.1 M-190.05 134.65 Q-190.7 135.5 -192.35 135.3 -193.9 135.15 -195.5 134.0 -197.1 132.8 -197.8 131.35 -198.4 129.85 -197.75 129.0 -197.1 128.1 -195.55 128.3 -193.95 128.45 -192.35 129.65 -190.75 130.8 -190.1 132.25 -189.4 133.75 -190.05 134.65 M-203.1 155.35 Q-203.55 156.25 -204.35 156.3 -205.15 156.4 -205.8 155.6 -206.45 154.85 -206.55 153.65 -206.65 152.45 -206.15 151.6 -205.7 150.7 -204.9 150.6 -204.1 150.55 -203.45 151.35 -202.85 152.1 -202.75 153.3 -202.65 154.5 -203.1 155.35" fill="#ffffff" fill-rule="evenodd" stroke="none"/>
    <path d="M169.35 22.9 Q170.2 23.7 169.7 25.45 169.3 27.2 167.7 28.9 166.15 30.55 164.4 31.15 162.7 31.75 161.85 30.95 160.95 30.15 161.45 28.4 161.95 26.65 163.5 25.0 165.1 23.3 166.75 22.7 168.45 22.1 169.35 22.9 M181.4 36.65 Q182.15 35.65 183.6 35.1 L186.25 34.85 Q187.55 35.1 187.85 36.0 188.2 36.9 187.4 37.95 186.65 38.95 185.25 39.5 L182.55 39.75 Q181.3 39.5 180.95 38.6 180.65 37.7 181.4 36.65 M187.05 65.7 L188.7 65.65 Q189.35 66.1 189.3 67.2 189.3 68.3 188.6 69.4 187.9 70.5 186.9 70.95 L185.3 71.0 Q184.6 70.6 184.65 69.45 184.7 68.45 185.4 67.35 186.1 66.25 187.05 65.7 M179.75 53.55 Q183.1 54.75 180.8 62.75 180.05 65.2 177.0 69.1 L167.6 80.75 Q161.15 88.45 156.6 92.75 152.0 97.05 149.35 96.1 146.85 95.15 147.05 91.05 147.25 86.65 150.55 80.15 154.65 71.95 161.35 64.55 170.2 54.75 176.55 53.5 178.5 53.05 179.75 53.55 M143.55 71.95 Q141.05 73.5 139.3 72.5 137.5 71.5 137.55 68.55 137.55 65.65 139.35 62.45 141.1 59.3 143.65 57.8 146.1 56.25 147.9 57.25 149.65 58.25 149.65 61.2 149.55 64.1 147.8 67.25 146.0 70.45 143.55 71.95 M150.9 118.15 Q150.9 114.75 152.5 111.9 154.1 109.3 156.1 108.85 158.0 108.5 159.35 110.45 160.5 112.35 160.4 115.5 160.35 118.55 159.0 121.2 157.6 123.9 155.7 124.6 L155.0 124.75 Q153.4 124.95 152.3 123.5 150.8 121.6 150.9 118.15 M-207.2 61.65 Q-204.45 59.25 -197.75 64.05 -193.15 67.25 -190.1 71.95 -187.9 75.35 -187.5 78.0 -187.2 80.25 -188.15 81.45 -189.2 82.55 -191.4 82.35 -194.05 81.95 -197.5 79.65 -200.15 77.8 -202.3 75.5 -204.15 73.6 -205.65 71.2 -210.2 64.15 -207.2 61.65 M-198.1 91.1 Q-195.65 92.1 -193.55 94.65 -191.4 97.25 -190.9 99.85 -190.35 102.4 -191.65 103.5 -192.95 104.55 -195.4 103.55 -197.8 102.5 -199.95 99.9 -202.05 97.35 -202.6 94.8 -203.1 92.2 -201.8 91.15 -200.5 90.05 -198.1 91.1 M-190.05 134.65 Q-190.7 135.5 -192.35 135.3 -193.9 135.15 -195.5 134.0 -197.1 132.8 -197.8 131.35 -198.4 129.85 -197.75 129.0 -197.1 128.1 -195.55 128.3 -193.95 128.45 -192.35 129.65 -190.75 130.8 -190.1 132.25 -189.4 133.75 -190.05 134.65 M-203.1 155.35 Q-203.55 156.25 -204.35 156.3 -205.15 156.4 -205.8 155.6 -206.45 154.85 -206.55 153.65 -206.65 152.45 -206.15 151.6 -205.7 150.7 -204.9 150.6 -204.1 150.55 -203.45 151.35 -202.85 152.1 -202.75 153.3 -202.65 154.5 -203.1 155.35" fill="none" stroke="#ffffff" stroke-linecap="square" stroke-linejoin="round" stroke-width="8.0"/>
    <path d="M169.35 22.9 Q170.2 23.7 169.7 25.45 169.3 27.2 167.7 28.9 166.15 30.55 164.4 31.15 162.7 31.75 161.85 30.95 160.95 30.15 161.45 28.4 161.95 26.65 163.5 25.0 165.1 23.3 166.75 22.7 168.45 22.1 169.35 22.9 M181.4 36.65 Q182.15 35.65 183.6 35.1 L186.25 34.85 Q187.55 35.1 187.85 36.0 188.2 36.9 187.4 37.95 186.65 38.95 185.25 39.5 L182.55 39.75 Q181.3 39.5 180.95 38.6 180.65 37.7 181.4 36.65 M187.05 65.7 L188.7 65.65 Q189.35 66.1 189.3 67.2 189.3 68.3 188.6 69.4 187.9 70.5 186.9 70.95 L185.3 71.0 Q184.6 70.6 184.65 69.45 184.7 68.45 185.4 67.35 186.1 66.25 187.05 65.7 M179.75 53.55 Q183.1 54.75 180.8 62.75 180.05 65.2 177.0 69.1 L167.6 80.75 Q161.15 88.45 156.6 92.75 152.0 97.05 149.35 96.1 146.85 95.15 147.05 91.05 147.25 86.65 150.55 80.15 154.65 71.95 161.35 64.55 170.2 54.75 176.55 53.5 178.5 53.05 179.75 53.55 M143.55 71.95 Q141.05 73.5 139.3 72.5 137.5 71.5 137.55 68.55 137.55 65.65 139.35 62.45 141.1 59.3 143.65 57.8 146.1 56.25 147.9 57.25 149.65 58.25 149.65 61.2 149.55 64.1 147.8 67.25 146.0 70.45 143.55 71.95 M150.9 118.15 Q150.9 114.75 152.5 111.9 154.1 109.3 156.1 108.85 158.0 108.5 159.35 110.45 160.5 112.35 160.4 115.5 160.35 118.55 159.0 121.2 157.6 123.9 155.7 124.6 L155.0 124.75 Q153.4 124.95 152.3 123.5 150.8 121.6 150.9 118.15 M-207.2 61.65 Q-204.45 59.25 -197.75 64.05 -193.15 67.25 -190.1 71.95 -187.9 75.35 -187.5 78.0 -187.2 80.25 -188.15 81.45 -189.2 82.55 -191.4 82.35 -194.05 81.95 -197.5 79.65 -200.15 77.8 -202.3 75.5 -204.15 73.6 -205.65 71.2 -210.2 64.15 -207.2 61.65 M-198.1 91.1 Q-195.65 92.1 -193.55 94.65 -191.4 97.25 -190.9 99.85 -190.35 102.4 -191.65 103.5 -192.95 104.55 -195.4 103.55 -197.8 102.5 -199.95 99.9 -202.05 97.35 -202.6 94.8 -203.1 92.2 -201.8 91.15 -200.5 90.05 -198.1 91.1 M-190.05 134.65 Q-190.7 135.5 -192.35 135.3 -193.9 135.15 -195.5 134.0 -197.1 132.8 -197.8 131.35 -198.4 129.85 -197.75 129.0 -197.1 128.1 -195.55 128.3 -193.95 128.45 -192.35 129.65 -190.75 130.8 -190.1 132.25 -189.4 133.75 -190.05 134.65 M-203.1 155.35 Q-203.55 156.25 -204.35 156.3 -205.15 156.4 -205.8 155.6 -206.45 154.85 -206.55 153.65 -206.65 152.45 -206.15 151.6 -205.7 150.7 -204.9 150.6 -204.1 150.55 -203.45 151.35 -202.85 152.1 -202.75 153.3 -202.65 154.5 -203.1 155.35" fill="#5fd6ff" fill-rule="evenodd" stroke="none"/>
  </g>
</svg>
