<?xml version="1.0" encoding="UTF-8" standalone="no"?>
<svg xmlns:xlink="http://www.w3.org/1999/xlink" height="51.9px" width="42.55px" xmlns="http://www.w3.org/2000/svg">
  <g transform="matrix(1.0, 0.0, 0.0, 1.0, -14.95, -8.95)">
    <path d="M55.2 24.2 Q52.45 31.75 45.15 39.05 37.8 46.4 30.2 49.2 22.7 52.0 19.3 48.6 L18.65 47.85 17.85 47.15 Q14.45 43.75 17.2 36.2 20.05 28.65 27.4 21.3 34.7 14.0 42.2 11.2 49.8 8.4 53.2 11.8 L53.9 12.6 54.65 13.25 Q58.05 16.65 55.2 24.2 M51.25 23.45 Q53.6 17.8 51.8 15.0 49.05 13.25 43.45 15.65 37.05 18.15 30.65 24.55 24.25 30.95 21.7 37.4 19.35 42.95 21.1 45.7 23.9 47.5 29.5 45.2 35.85 42.55 42.25 36.15 48.65 29.75 51.25 23.45" fill="#8b5f2d" fill-rule="evenodd" stroke="none"/>
    <path d="M55.2 24.2 Q52.45 31.75 45.15 39.05 37.8 46.4 30.2 49.2 22.7 52.0 19.3 48.6 L18.65 47.85 17.85 47.15 Q14.45 43.75 17.2 36.2 20.05 28.65 27.4 21.3 34.7 14.0 42.2 11.2 49.8 8.4 53.2 11.8 L53.9 12.6 54.65 13.25 Q58.05 16.65 55.2 24.2 Z" fill="none" stroke="#4a3217" stroke-linecap="round" stroke-linejoin="round" stroke-width="2.0"/>
    <path d="M43.7 37.6 Q36.35 44.95 28.75 47.75 21.25 50.55 17.85 47.15 14.45 43.75 17.2 36.2 20.05 28.65 27.4 21.3 34.7 14.0 42.2 11.2 49.8 8.4 53.2 11.8 56.6 15.2 53.75 22.75 51.0 30.3 43.7 37.6 M42.25 36.15 Q48.65 29.75 51.25 23.45 53.95 16.95 51.2 14.2 48.45 11.45 42.0 14.2 35.6 16.7 29.2 23.1 22.8 29.5 20.25 35.95 17.55 42.35 20.3 45.1 23.05 47.85 29.5 45.2 35.85 42.55 42.25 36.15" fill="#8b5f2d" fill-rule="evenodd" stroke="none"/>
    <path d="M45.15 39.05 Q37.8 46.4 30.2 49.2 22.7 52.0 19.3 48.6 15.9 45.2 18.65 37.65 21.5 30.1 28.85 22.75 36.15 15.45 43.65 12.65 51.25 9.85 54.65 13.25 58.05 16.65 55.2 24.2 52.45 31.75 45.15 39.05 M43.7 37.6 Q50.1 31.2 52.7 24.9 55.4 18.4 52.65 15.65 49.9 12.9 43.45 15.65 37.05 18.15 30.65 24.55 24.25 30.95 21.7 37.4 19.0 43.8 21.75 46.55 24.5 49.3 30.95 46.65 37.3 44.0 43.7 37.6" fill="#714d24" fill-rule="evenodd" stroke="none"/>
    <path d="M39.55 29.95 Q39.3 31.1 38.25 32.15 37.25 33.15 36.1 33.4 34.9 33.7 34.25 33.05 33.65 32.45 33.9 31.2 34.2 30.1 35.2 29.1 36.25 28.05 37.35 27.75 38.55 27.55 39.15 28.15 39.8 28.8 39.55 29.95" fill="#8a5e2d" fill-rule="evenodd" stroke="none"/>
    <path d="M40.15 30.55 Q39.9 31.7 38.85 32.75 37.85 33.75 36.7 34.0 35.55 34.35 34.9 33.7 34.25 33.05 34.55 31.85 34.85 30.75 35.85 29.75 36.9 28.7 38.0 28.4 39.15 28.15 39.8 28.8 40.45 29.45 40.15 30.55" fill="#684721" fill-rule="evenodd" stroke="none"/>
    <path d="M43.1 35.6 Q43.15 36.15 42.8 36.5 42.45 36.85 41.85 36.85 41.35 36.85 41.0 36.5 L37.35 32.85 Q37.0 32.5 36.95 31.95 37.0 31.4 37.35 31.05 37.7 30.7 38.2 30.7 38.75 30.75 39.1 31.1 L42.75 34.75 Q43.1 35.1 43.1 35.6" fill="#8a5e2d" fill-rule="evenodd" stroke="none"/>
    <path d="M46.0 31.45 L46.35 31.7 46.8 32.05 47.05 32.3 Q48.2 33.3 48.9 34.65 49.6 35.35 49.85 36.55 L50.65 41.5 50.65 41.55 51.05 43.25 Q51.4 44.2 52.05 45.05 L52.75 46.5 53.0 46.8 53.1 47.45 53.1 48.15 53.05 48.4 52.9 48.95 Q52.85 49.6 52.35 50.1 50.85 51.75 48.7 52.85 45.95 54.25 43.05 55.45 L41.65 55.75 40.9 55.9 40.8 55.95 39.9 56.2 38.7 56.35 38.1 56.2 37.9 56.2 Q37.15 56.05 36.55 55.6 L36.35 55.45 35.55 54.8 33.45 52.8 33.4 52.5 33.45 52.25 33.35 49.8 Q33.6 45.75 36.45 42.45 L36.6 42.05 Q37.25 37.85 38.9 33.85 39.85 31.45 42.7 31.3 L43.3 31.3 44.9 31.25 46.0 31.45 M38.75 56.05 L38.8 56.0 38.7 56.0 38.75 56.05" fill="#999999" fill-rule="evenodd" stroke="none"/>
    <path d="M46.0 31.45 L46.35 31.7 46.8 32.05 47.05 32.3 Q48.2 33.3 48.9 34.65 49.6 35.35 49.85 36.55 L50.65 41.5 50.65 41.55 51.05 43.25 Q51.4 44.2 52.05 45.05 L52.75 46.5 53.0 46.8 53.1 47.45 53.1 48.15 53.05 48.4 52.9 48.95 Q52.85 49.6 52.35 50.1 50.85 51.75 48.7 52.85 45.95 54.25 43.05 55.45 L41.65 55.75 40.9 55.9 40.8 55.95 39.9 56.2 38.7 56.35 38.1 56.2 37.9 56.2 Q37.15 56.05 36.55 55.6 L36.35 55.45 35.55 54.8 33.45 52.8 33.4 52.5 33.45 52.25 33.35 49.8 Q33.6 45.75 36.45 42.45 L36.6 42.05 Q37.25 37.85 38.9 33.85 39.85 31.45 42.7 31.3 L43.3 31.3 44.9 31.25 46.0 31.45 Z" fill="none" stroke="#4f4f4f" stroke-linecap="round" stroke-linejoin="round" stroke-width="2.5"/>
    <path d="M38.1 56.2 L37.9 56.2 Q37.15 56.05 36.55 55.6 L36.35 55.45 35.55 54.8 33.45 52.8 33.4 52.5 33.45 52.25 33.35 49.8 Q33.6 45.75 36.45 42.45 L36.6 42.05 Q37.25 37.85 38.9 33.85 39.85 31.45 42.7 31.3 L43.3 31.3 44.9 31.25 46.0 31.45 46.35 31.7 46.8 32.05 47.05 32.3 Q48.2 33.3 48.9 34.65 47.9 33.6 45.95 33.55 44.7 33.7 43.6 34.35 L41.75 35.75 41.45 36.8 Q40.3 38.75 40.05 40.9 39.9 42.2 39.25 43.3 L39.0 43.45 37.45 43.95 37.15 44.2 36.55 44.85 38.85 47.0 Q39.3 47.35 39.15 47.9 L38.85 48.75 37.85 50.2 37.8 50.35 37.9 50.5 38.05 50.7 38.15 50.95 37.85 51.35 37.55 51.3 37.4 51.2 37.3 51.05 37.25 50.85 36.6 50.9 Q36.85 52.55 37.6 54.1 L38.15 56.0 38.1 56.2 M50.65 41.5 L51.05 43.25 50.65 41.55 50.65 41.5" fill="#999999" fill-rule="evenodd" stroke="none"/>
    <path d="M38.1 56.2 L38.15 56.0 37.6 54.1 Q36.85 52.55 36.6 50.9 L37.25 50.85 37.3 51.05 37.4 51.2 37.55 51.3 37.85 51.35 38.15 50.95 38.05 50.7 37.9 50.5 37.8 50.35 37.85 50.2 38.85 48.75 39.15 47.9 Q39.3 47.35 38.85 47.0 L36.55 44.85 37.15 44.2 37.45 43.95 39.0 43.45 39.25 43.3 Q39.9 42.2 40.05 40.9 40.3 38.75 41.45 36.8 L41.75 35.75 43.6 34.35 Q44.7 33.7 45.95 33.55 47.9 33.6 48.9 34.65 49.6 35.35 49.85 36.55 L50.65 41.5 50.65 41.55 51.05 43.25 Q51.4 44.2 52.05 45.05 L52.75 46.5 53.0 46.8 53.1 47.45 53.1 48.15 53.05 48.4 52.9 48.95 Q52.85 49.6 52.35 50.1 50.85 51.75 48.7 52.85 45.95 54.25 43.05 55.45 L41.65 55.75 40.9 55.9 40.8 55.95 39.9 56.2 38.7 56.35 38.1 56.2 M38.75 56.05 L38.8 56.0 38.7 56.0 38.75 56.05" fill="#737373" fill-rule="evenodd" stroke="none"/>
    <path d="M42.95 41.75 L42.5 41.5 Q41.9 40.9 42.15 39.65 42.45 38.55 43.45 37.55 44.5 36.5 45.6 36.2 46.8 36.0 47.4 36.6 L47.7 37.0 46.25 36.85 Q45.15 37.15 44.1 38.2 43.1 39.2 42.8 40.3 42.6 41.2 42.95 41.75" fill="#8a5e2d" fill-rule="evenodd" stroke="none"/>
    <path d="M47.7 37.0 Q47.85 37.05 48.05 37.25 48.7 37.9 48.4 39.0 48.15 40.15 47.1 41.2 46.1 42.2 44.95 42.45 43.8 42.8 43.15 42.15 L42.95 41.75 Q42.6 41.2 42.8 40.3 43.1 39.2 44.1 38.2 45.15 37.15 46.25 36.85 L47.7 37.0" fill="#684721" fill-rule="evenodd" stroke="none"/>
    <path d="M46.5 39.1 L46.65 39.65 46.25 40.35 45.55 40.75 45.0 40.6 44.9 40.1 45.3 39.4 Q45.6 39.1 46.0 39.0 L46.5 39.1" fill="#8a5e2d" fill-rule="evenodd" stroke="none"/>
    <path d="M32.4 53.35 L32.3 53.3 32.05 53.2 31.95 53.25 31.8 53.25 31.7 53.3 31.6 53.35 31.55 53.45 31.45 53.6 31.4 53.8 31.4 53.95 31.45 54.1 31.5 54.2 31.55 54.3 31.85 54.4 32.3 54.4 32.35 54.3 32.45 54.2 32.45 54.05 32.5 53.85 32.55 53.7 32.5 53.55 32.45 53.45 32.4 53.35 M32.35 52.95 Q33.5 53.5 33.55 54.75 L34.2 54.25 34.85 54.1 Q37.45 55.15 37.8 58.05 38.0 59.65 36.0 60.0 32.8 60.55 31.6 58.05 31.25 57.3 31.7 56.65 L32.0 56.25 Q30.5 56.4 30.4 55.0 30.3 53.65 31.8 53.15 L32.35 52.95 M33.5 57.45 L33.25 57.2 32.9 57.05 32.75 57.1 32.45 57.25 32.35 57.3 32.35 57.4 32.3 57.5 Q32.25 57.65 32.35 57.8 L32.7 58.25 Q32.9 58.6 33.25 58.45 L33.5 58.35 33.6 58.25 33.65 57.8 33.5 57.45 M33.35 55.25 L33.05 55.55 Q32.85 56.25 33.3 56.8 33.9 57.65 35.1 57.4 36.15 57.1 36.05 55.85 35.95 54.8 34.9 54.75 L34.9 54.7 34.85 54.65 34.85 54.55 34.7 54.5 34.5 54.4 34.4 54.4 34.25 54.45 33.75 54.8 33.6 54.95 33.35 55.25 M30.85 57.15 L30.95 57.5 30.8 58.25 Q30.35 59.15 29.2 58.9 L28.4 58.5 28.3 58.45 28.3 58.35 28.25 58.1 28.35 57.8 28.65 57.15 Q28.9 56.75 29.45 56.65 L29.9 56.7 30.25 56.8 30.6 57.0 30.85 57.15 M51.55 52.9 L51.35 52.7 51.1 52.6 50.9 52.65 50.75 52.7 50.7 52.7 50.6 52.8 50.5 52.9 50.45 53.05 50.45 53.15 50.45 53.25 50.5 53.4 50.6 53.5 50.95 53.65 51.4 53.6 51.5 53.5 51.6 53.4 51.65 53.15 51.55 52.9 M53.5 51.75 L53.3 50.8 52.75 50.05 Q52.3 49.7 51.75 49.8 L51.4 49.9 51.0 50.05 50.85 50.2 50.7 50.3 50.6 50.4 50.55 50.65 Q50.45 51.2 50.6 51.75 50.8 52.4 51.45 52.55 L53.05 52.45 Q53.45 52.2 53.5 51.75 M29.7 57.1 L29.55 57.15 29.3 57.25 29.15 57.4 29.05 57.55 29.05 57.65 29.15 57.9 29.4 58.1 29.85 58.2 29.95 58.1 30.05 57.8 30.1 57.5 29.95 57.3 29.7 57.1 M40.15 55.7 L40.1 56.2 40.15 56.35 40.2 56.45 40.5 56.5 41.55 56.55 42.0 56.25 Q42.2 55.75 41.95 55.3 41.65 54.9 41.05 54.95 L41.05 55.0 Q40.8 54.95 40.6 55.15 L40.15 55.7 M51.7 54.9 Q48.95 54.5 49.8 51.65 50.2 50.45 51.1 49.6 51.6 49.1 52.25 49.15 54.45 50.3 54.35 52.8 54.3 55.25 51.7 54.9 M41.4 57.95 Q39.25 58.35 39.55 56.4 39.85 54.95 41.05 54.35 42.85 54.55 42.85 56.35 42.95 57.65 41.4 57.95" fill="#737373" fill-rule="evenodd" stroke="none"/>
    <path d="M32.4 53.35 L32.45 53.45 32.5 53.55 32.55 53.7 32.5 53.85 32.45 54.05 32.45 54.2 32.35 54.3 32.3 54.4 31.85 54.4 31.55 54.3 31.5 54.2 31.45 54.1 31.4 53.95 31.4 53.8 31.45 53.6 31.55 53.45 31.6 53.35 31.7 53.3 31.8 53.25 31.95 53.25 32.05 53.2 32.3 53.3 32.4 53.35 M33.35 55.25 L33.6 54.95 33.75 54.8 34.25 54.45 34.4 54.4 34.5 54.4 34.7 54.5 34.85 54.55 34.85 54.65 34.9 54.7 34.9 54.75 Q35.95 54.8 36.05 55.85 36.15 57.1 35.1 57.4 33.9 57.65 33.3 56.8 32.85 56.25 33.05 55.55 L33.35 55.25 M33.5 57.45 L33.65 57.8 33.6 58.25 33.5 58.35 33.25 58.45 Q32.9 58.6 32.7 58.25 L32.35 57.8 Q32.25 57.65 32.3 57.5 L32.35 57.4 32.35 57.3 32.45 57.25 32.75 57.1 32.9 57.05 33.25 57.2 33.5 57.45 M40.15 55.7 L40.6 55.15 Q40.8 54.95 41.05 55.0 L41.05 54.95 Q41.65 54.9 41.95 55.3 42.2 55.75 42.0 56.25 L41.55 56.55 40.5 56.5 40.2 56.45 40.15 56.35 40.1 56.2 40.15 55.7 M29.7 57.1 L29.95 57.3 30.1 57.5 30.05 57.8 29.95 58.1 29.85 58.2 29.4 58.1 29.15 57.9 29.05 57.65 29.05 57.55 29.15 57.4 29.3 57.25 29.55 57.15 29.7 57.1 M53.5 51.75 Q53.45 52.2 53.05 52.45 L51.45 52.55 Q50.8 52.4 50.6 51.75 50.45 51.2 50.55 50.65 L50.6 50.4 50.7 50.3 50.85 50.2 51.0 50.05 51.4 49.9 51.75 49.8 Q52.3 49.7 52.75 50.05 L53.3 50.8 53.5 51.75 M51.55 52.9 L51.65 53.15 51.6 53.4 51.5 53.5 51.4 53.6 50.95 53.65 50.6 53.5 50.5 53.4 50.45 53.25 50.45 53.15 50.45 53.05 50.5 52.9 50.6 52.8 50.7 52.7 50.75 52.7 50.9 52.65 51.1 52.6 51.35 52.7 51.55 52.9" fill="#999999" fill-rule="evenodd" stroke="none"/>
    <path d="M32.35 52.95 Q33.5 53.5 33.55 54.75 L34.2 54.25 34.85 54.1 Q37.45 55.15 37.8 58.05 38.0 59.65 36.0 60.0 32.8 60.55 31.6 58.05 31.25 57.3 31.7 56.65 L32.0 56.25 Q30.5 56.4 30.4 55.0 30.3 53.65 31.8 53.15 L32.35 52.95 M30.85 57.15 L30.95 57.5 30.8 58.25 Q30.35 59.15 29.2 58.9 L28.4 58.5 28.3 58.45 28.3 58.35 28.25 58.1 28.35 57.8 28.65 57.15 Q28.9 56.75 29.45 56.65 L29.9 56.7 30.25 56.8 30.6 57.0 30.85 57.15 M51.7 54.9 Q48.95 54.5 49.8 51.65 50.2 50.45 51.1 49.6 51.6 49.1 52.25 49.15 54.45 50.3 54.35 52.8 54.3 55.25 51.7 54.9 M41.4 57.95 Q39.25 58.35 39.55 56.4 39.85 54.95 41.05 54.35 42.85 54.55 42.85 56.35 42.95 57.65 41.4 57.95" fill="none" stroke="#4f4f4f" stroke-linecap="round" stroke-linejoin="round" stroke-width="1.5"/>
    <path d="M32.4 53.35 L32.3 53.3 32.05 53.2 31.95 53.25 31.8 53.25 31.7 53.3 31.6 53.35 31.55 53.45 31.45 53.6 31.4 53.8 31.4 53.95 31.45 54.1 31.5 54.2 31.55 54.3 31.85 54.4 32.3 54.4 32.35 54.3 32.45 54.2 32.45 54.05 32.5 53.85 32.55 53.7 32.5 53.55 32.45 53.45 32.4 53.35 M32.35 52.95 Q33.5 53.5 33.55 54.75 L34.2 54.25 34.85 54.1 Q37.45 55.15 37.8 58.05 38.0 59.65 36.0 60.0 32.8 60.55 31.6 58.05 31.25 57.3 31.7 56.65 L32.0 56.25 Q30.5 56.4 30.4 55.0 30.3 53.65 31.8 53.15 L32.35 52.95 M33.65 57.8 L33.5 57.45 33.25 57.2 32.9 57.05 32.75 57.1 32.45 57.25 32.35 57.3 32.35 57.4 32.3 57.5 Q32.25 57.65 32.35 57.8 L32.7 58.25 Q32.9 58.6 33.25 58.45 L33.5 58.35 33.6 58.25 33.65 57.8 M33.75 54.8 L33.6 54.95 33.35 55.25 33.05 55.55 Q32.85 56.25 33.3 56.8 33.9 57.65 35.1 57.4 36.15 57.1 36.05 55.85 35.95 54.8 34.9 54.75 L34.9 54.7 34.85 54.65 34.85 54.55 34.7 54.5 34.5 54.4 34.4 54.4 34.25 54.45 33.75 54.8 M30.85 57.15 L30.95 57.5 30.8 58.25 Q30.35 59.15 29.2 58.9 L28.4 58.5 28.3 58.45 28.3 58.35 28.25 58.1 28.35 57.8 28.65 57.15 Q28.9 56.75 29.45 56.65 L29.9 56.7 30.25 56.8 30.6 57.0 30.85 57.15 M51.55 52.9 L51.35 52.7 51.1 52.6 50.9 52.65 50.75 52.7 50.7 52.7 50.6 52.8 50.5 52.9 50.45 53.05 50.45 53.15 50.45 53.25 50.5 53.4 50.6 53.5 50.95 53.65 51.4 53.6 51.5 53.5 51.6 53.4 51.65 53.15 51.55 52.9 M53.5 51.75 L53.3 50.8 52.75 50.05 Q52.3 49.7 51.75 49.8 L51.4 49.9 51.0 50.05 50.85 50.2 50.7 50.3 50.6 50.4 50.55 50.65 Q50.45 51.2 50.6 51.75 50.8 52.4 51.45 52.55 L53.05 52.45 Q53.45 52.2 53.5 51.75 M29.7 57.1 L29.55 57.15 29.3 57.25 29.15 57.4 29.05 57.55 29.05 57.65 29.15 57.9 29.4 58.1 29.85 58.2 29.95 58.1 30.05 57.8 30.1 57.5 29.95 57.3 29.7 57.1 M40.15 55.7 L40.1 56.2 40.15 56.35 40.2 56.45 40.5 56.5 41.55 56.55 42.0 56.25 Q42.2 55.75 41.95 55.3 41.65 54.9 41.05 54.95 L41.05 55.0 Q40.8 54.95 40.6 55.15 L40.15 55.7 M51.7 54.9 Q48.95 54.5 49.8 51.65 50.2 50.45 51.1 49.6 51.6 49.1 52.25 49.15 54.45 50.3 54.35 52.8 54.3 55.25 51.7 54.9 M41.4 57.95 Q39.25 58.35 39.55 56.4 39.85 54.95 41.05 54.35 42.85 54.55 42.85 56.35 42.95 57.65 41.4 57.95" fill="#737373" fill-rule="evenodd" stroke="none"/>
    <path d="M32.4 53.35 L32.45 53.45 32.5 53.55 32.55 53.7 32.5 53.85 32.45 54.05 32.45 54.2 32.35 54.3 32.3 54.4 31.85 54.4 31.55 54.3 31.5 54.2 31.45 54.1 31.4 53.95 31.4 53.8 31.45 53.6 31.55 53.45 31.6 53.35 31.7 53.3 31.8 53.25 31.95 53.25 32.05 53.2 32.3 53.3 32.4 53.35 M33.75 54.8 L34.25 54.45 34.4 54.4 34.5 54.4 34.7 54.5 34.85 54.55 34.85 54.65 34.9 54.7 34.9 54.75 Q35.95 54.8 36.05 55.85 36.15 57.1 35.1 57.4 33.9 57.65 33.3 56.8 32.85 56.25 33.05 55.55 L33.35 55.25 33.6 54.95 33.75 54.8 M33.65 57.8 L33.6 58.25 33.5 58.35 33.25 58.45 Q32.9 58.6 32.7 58.25 L32.35 57.8 Q32.25 57.65 32.3 57.5 L32.35 57.4 32.35 57.3 32.45 57.25 32.75 57.1 32.9 57.05 33.25 57.2 33.5 57.45 33.65 57.8 M40.15 55.7 L40.6 55.15 Q40.8 54.95 41.05 55.0 L41.05 54.95 Q41.65 54.9 41.95 55.3 42.2 55.75 42.0 56.25 L41.55 56.55 40.5 56.5 40.2 56.45 40.15 56.35 40.1 56.2 40.15 55.7 M29.7 57.1 L29.95 57.3 30.1 57.5 30.05 57.8 29.95 58.1 29.85 58.2 29.4 58.1 29.15 57.9 29.05 57.65 29.05 57.55 29.15 57.4 29.3 57.25 29.55 57.15 29.7 57.1 M53.5 51.75 Q53.45 52.2 53.05 52.45 L51.45 52.55 Q50.8 52.4 50.6 51.75 50.45 51.2 50.55 50.65 L50.6 50.4 50.7 50.3 50.85 50.2 51.0 50.05 51.4 49.9 51.75 49.8 Q52.3 49.7 52.75 50.05 L53.3 50.8 53.5 51.75 M51.55 52.9 L51.65 53.15 51.6 53.4 51.5 53.5 51.4 53.6 50.95 53.65 50.6 53.5 50.5 53.4 50.45 53.25 50.45 53.15 50.45 53.05 50.5 52.9 50.6 52.8 50.7 52.7 50.75 52.7 50.9 52.65 51.1 52.6 51.35 52.7 51.55 52.9" fill="#999999" fill-rule="evenodd" stroke="none"/>
  </g>
</svg>
