<?xml version="1.0" encoding="UTF-8" standalone="no"?>
<svg xmlns:xlink="http://www.w3.org/1999/xlink" height="9.5px" width="13.3px" xmlns="http://www.w3.org/2000/svg">
  <g transform="matrix(1.0, 0.0, 0.0, 1.0, -12.25, 0.65)">
    <path d="M24.5 5.9 L24.75 6.4 Q24.75 7.05 24.15 7.3 L23.5 7.75 21.65 8.05 21.45 8.1 20.7 8.25 20.65 8.25 20.4 8.35 17.05 8.35 Q15.15 8.35 14.25 7.8 L13.75 7.35 Q13.3 7.05 13.0 6.15 L12.75 4.7 Q12.75 3.35 14.35 3.8 14.35 3.1 14.5 2.45 14.85 1.2 15.85 1.2 L16.6 1.45 16.9 1.95 Q19.25 -2.45 20.2 2.4 L20.2 2.5 21.05 2.2 Q21.85 1.85 22.15 1.85 23.05 1.85 23.2 2.5 L23.2 3.25 Q25.05 2.8 25.05 4.35 L24.8 5.3 24.55 5.8 24.5 5.9 Z" fill="none" stroke="#005e00" stroke-linecap="round" stroke-linejoin="round" stroke-width="1.0"/>
    <path d="M24.5 5.9 L24.75 6.4 Q24.75 7.05 24.15 7.3 L23.5 7.75 21.65 8.05 21.45 8.1 20.7 8.25 20.65 8.25 20.4 8.35 17.05 8.35 Q15.15 8.35 14.25 7.8 L13.75 7.35 Q13.3 7.05 13.0 6.15 L12.75 4.7 Q12.75 3.35 14.35 3.8 14.35 3.1 14.5 2.45 14.85 1.2 15.85 1.2 L16.6 1.45 16.9 1.95 Q19.25 -2.45 20.2 2.4 L20.2 2.5 21.05 2.2 Q21.85 1.85 22.15 1.85 23.05 1.85 23.2 2.5 L23.2 3.25 Q25.05 2.8 25.05 4.35 L24.8 5.3 24.55 5.8 24.5 5.9" fill="#109b00" fill-rule="evenodd" stroke="none"/>
  </g>
</svg>
