<?xml version="1.0" encoding="UTF-8" standalone="no"?>
<svg xmlns:xlink="http://www.w3.org/1999/xlink" height="96.3px" width="84.85px" xmlns="http://www.w3.org/2000/svg">
  <g transform="matrix(1.0, 0.0, 0.0, 1.0, 266.3, 15.75)">
    <path d="M-181.45 23.55 Q-181.65 23.85 -185.75 20.9 L-186.5 27.55 -195.1 20.85 -193.6 34.25 -205.05 35.9 -194.4 44.25 -197.2 50.65 -189.2 47.75 -206.65 80.55 Q-207.6 72.2 -208.7 63.8 L-236.85 62.45 -206.95 43.2 -241.9 35.45 -207.2 23.3 -223.05 -2.35 -195.8 10.6 -195.9 -15.75 -181.45 23.55" fill="#f73600" fill-rule="evenodd" stroke="none"/>
    <path d="M-219.15 39.3 Q-221.8 43.05 -224.65 43.0 -227.6 42.95 -228.9 39.3 -230.0 36.5 -229.65 32.75 L-243.3 28.5 Q-261.45 22.65 -261.3 21.9 -261.1 21.15 -242.1 23.45 L-227.95 25.3 Q-227.1 23.2 -225.85 21.4 -223.25 17.7 -220.35 17.7 -217.4 17.8 -216.15 21.5 -214.7 25.2 -215.6 30.45 -216.5 35.65 -219.15 39.3" fill="#000000" fill-rule="evenodd" stroke="none"/>
    <path d="M-219.15 39.3 Q-221.8 43.05 -224.65 43.0 -227.6 42.95 -228.9 39.3 -230.0 36.5 -229.65 32.75 L-243.3 28.5 Q-261.45 22.65 -261.3 21.9 -261.1 21.15 -242.1 23.45 L-227.95 25.3 Q-227.1 23.2 -225.85 21.4 -223.25 17.7 -220.35 17.7 -217.4 17.8 -216.15 21.5 -214.7 25.2 -215.6 30.45 -216.5 35.65 -219.15 39.3 Z" fill="none" stroke="#000000" stroke-linecap="round" stroke-linejoin="round" stroke-width="10.0"/>
    <path d="M-219.15 39.3 Q-221.85 43.0 -224.75 43.05 -227.55 43.0 -228.95 39.3 -230.3 35.55 -229.4 30.35 -228.5 25.15 -225.9 21.45 -223.2 17.75 -220.35 17.75 -217.5 17.8 -216.15 21.45 -214.75 25.2 -215.6 30.4 -216.55 35.65 -219.15 39.3" fill="#4f4f4f" fill-rule="evenodd" stroke="none"/>
    <path d="M-221.7 38.25 Q-224.05 41.5 -226.6 41.5 L-228.0 41.2 -228.95 39.3 Q-230.3 35.55 -229.4 30.35 -228.5 25.15 -225.9 21.45 L-224.25 19.55 -222.75 19.25 Q-220.2 19.3 -219.0 22.5 -217.75 25.8 -218.55 30.45 -219.4 35.0 -221.7 38.25" fill="#272727" fill-rule="evenodd" stroke="none"/>
    <path d="M-225.25 34.15 L-243.4 28.5 Q-261.6 22.7 -261.4 21.9 -261.2 21.15 -242.15 23.45 L-223.2 25.9 Q-219.6 30.6 -225.25 34.15" fill="#4f4f4f" fill-rule="evenodd" stroke="none"/>
  </g>
</svg>
