<?xml version="1.0" encoding="UTF-8" standalone="no"?>
<svg xmlns:xlink="http://www.w3.org/1999/xlink" height="263.35px" width="444.25px" xmlns="http://www.w3.org/2000/svg">
  <g transform="matrix(1.0, 0.0, 0.0, 1.0, -47.3, -92.7)">
    <path d="M343.95 157.3 L343.95 156.5 371.95 156.5 371.95 157.55 384.15 157.6 389.95 157.35 395.1 157.05 427.95 156.95 431.4 156.7 435.05 156.6 455.95 156.65 455.95 157.55 462.0 157.6 466.15 157.3 479.05 157.0 479.05 158.2 481.35 158.5 483.95 158.5 483.95 165.1 482.8 165.05 Q483.05 166.5 482.6 169.95 482.55 172.65 483.95 174.5 L484.0 178.7 483.95 209.35 Q483.3 211.85 483.3 213.4 L483.95 217.5 483.95 217.55 482.8 217.55 482.8 239.25 483.3 239.25 Q483.3 243.5 483.45 245.0 L483.95 248.1 483.95 257.95 Q483.25 260.45 482.4 266.35 481.55 272.7 481.55 276.1 481.55 277.75 482.75 282.0 483.85 285.95 483.95 287.8 L483.95 303.85 483.55 307.1 482.15 315.65 482.15 322.85 483.95 322.9 483.95 331.2 Q483.0 333.75 482.05 339.05 480.9 345.7 480.9 349.45 L481.0 350.9 412.85 350.9 412.85 350.05 394.65 350.9 361.05 350.9 361.05 350.05 354.35 349.95 354.3 350.65 352.55 350.6 352.65 350.9 316.45 350.9 315.45 350.35 315.45 346.95 314.8 346.95 314.8 345.7 308.15 345.65 307.7 345.95 Q307.15 346.2 306.95 346.45 L306.95 348.45 306.35 348.4 305.95 349.05 305.1 349.65 305.1 350.05 Q296.2 349.95 295.15 350.15 L292.9 350.6 292.9 350.9 233.55 350.9 233.25 350.75 232.7 350.4 227.8 350.2 227.8 347.9 221.15 347.85 221.2 349.4 217.5 349.4 214.8 350.9 56.85 350.9 56.25 350.35 56.25 348.2 Q54.4 346.5 53.65 344.2 L53.65 330.05 54.4 330.05 54.4 305.0 Q53.95 303.95 53.65 302.45 L53.65 290.05 Q54.0 285.65 54.4 283.1 L54.4 271.95 55.0 271.95 55.0 263.35 Q54.4 262.45 54.4 260.55 L53.65 260.55 53.65 259.15 55.65 259.15 55.65 255.7 Q55.0 254.45 54.65 252.35 L54.4 249.8 54.55 247.5 55.0 244.5 55.0 221.4 53.65 221.4 53.65 220.05 55.0 220.1 55.0 205.9 53.65 200.6 53.65 191.7 54.4 191.7 Q54.4 190.55 55.0 189.65 L55.0 178.4 Q55.05 176.75 55.65 175.95 L55.65 165.05 Q55.15 163.0 55.05 159.2 56.5 157.6 57.95 156.5 L62.9 156.5 62.9 157.2 80.6 157.3 87.85 156.85 91.6 156.5 95.85 156.5 95.85 157.2 106.2 157.2 123.15 157.4 134.75 157.7 147.55 157.95 154.5 157.15 162.05 156.5 300.75 156.5 300.75 157.55 314.2 157.6 316.0 157.4 343.95 157.3" fill="#000000" fill-opacity="0.3019608" fill-rule="evenodd" stroke="none"/>
    <path d="M345.95 155.3 L345.95 154.5 373.95 154.5 373.95 155.55 386.15 155.6 391.95 155.35 397.1 155.05 429.95 154.95 433.4 154.7 437.05 154.6 457.95 154.65 457.95 155.55 464.0 155.6 468.15 155.3 481.05 155.0 481.05 156.2 483.35 156.5 485.95 156.5 485.95 163.1 484.8 163.05 Q485.05 164.5 484.6 167.95 484.55 170.65 485.95 172.5 L486.0 176.7 485.95 207.35 Q485.3 209.85 485.3 211.4 L485.95 215.5 485.95 215.55 484.8 215.55 484.8 237.25 485.3 237.25 Q485.3 241.5 485.45 243.0 L485.95 246.1 485.95 255.95 Q485.25 258.45 484.4 264.35 483.55 270.7 483.55 274.1 483.55 275.75 484.75 280.0 485.85 283.95 485.95 285.8 L485.95 301.85 485.55 305.1 484.15 313.65 484.15 320.85 485.95 320.9 485.95 329.2 Q485.0 331.75 484.05 337.05 482.9 343.7 482.9 347.45 L483.0 348.9 414.85 348.9 414.85 348.05 396.65 348.9 363.05 348.9 363.05 348.05 356.35 347.95 356.3 348.65 354.55 348.6 354.65 348.9 318.45 348.9 317.45 348.35 317.45 344.95 316.8 344.95 316.8 343.7 310.15 343.65 309.7 343.95 Q309.15 344.2 308.95 344.45 L308.95 346.45 308.35 346.4 307.95 347.05 307.1 347.65 307.1 348.05 Q298.2 347.95 297.15 348.15 L294.9 348.6 294.9 348.9 235.55 348.9 235.25 348.75 234.7 348.4 229.8 348.2 229.8 345.9 223.15 345.85 223.2 347.4 219.5 347.4 216.8 348.9 58.85 348.9 58.25 348.35 58.25 346.2 Q56.4 344.5 55.65 342.2 L55.65 328.05 56.4 328.05 56.4 303.0 Q55.95 301.95 55.65 300.45 L55.65 288.05 Q56.0 283.65 56.4 281.1 L56.4 269.95 57.0 269.95 57.0 261.35 Q56.4 260.45 56.4 258.55 L55.65 258.55 55.65 257.15 57.65 257.15 57.65 253.7 Q57.0 252.45 56.65 250.35 L56.4 247.8 56.55 245.5 57.0 242.5 57.0 219.4 55.65 219.4 55.65 218.05 57.0 218.1 57.0 203.9 55.65 198.6 55.65 189.7 56.4 189.7 Q56.4 188.55 57.0 187.65 L57.0 176.4 Q57.05 174.75 57.65 173.95 L57.65 163.05 Q57.15 161.0 57.05 157.2 58.5 155.6 59.95 154.5 L64.9 154.5 64.9 155.2 82.6 155.3 89.85 154.85 93.6 154.5 97.85 154.5 97.85 155.2 108.2 155.2 125.15 155.4 136.75 155.7 149.55 155.95 156.5 155.15 164.05 154.5 302.75 154.5 302.75 155.55 316.2 155.6 318.0 155.4 345.95 155.3" fill="#ce9d46" fill-rule="evenodd" stroke="none"/>
    <path d="M488.55 175.7 L488.2 176.3 487.1 176.45 483.95 176.15 481.45 175.55 Q482.6 175.1 484.85 174.9 486.95 174.7 488.3 174.9 L488.55 175.7 M489.05 170.6 L487.7 171.75 Q486.45 172.3 484.05 172.3 L480.2 171.8 480.05 171.35 485.65 170.45 488.8 169.8 489.05 170.6 M345.8 157.75 L345.3 157.7 Q344.2 157.05 343.8 155.35 L343.05 152.45 343.3 152.1 Q343.8 152.35 344.85 154.35 345.9 156.35 345.9 157.05 L345.8 157.75 M388.2 152.05 L388.85 151.95 Q390.65 153.5 391.3 158.1 L391.3 158.15 389.25 158.15 388.55 156.25 Q387.7 153.55 387.7 153.05 387.7 152.25 388.2 152.05 M388.15 159.0 Q387.95 159.3 387.15 159.3 386.75 159.3 386.25 158.15 L388.3 158.15 388.15 159.0 M407.55 154.35 L408.3 156.35 Q408.3 157.6 408.15 156.95 L407.55 157.55 Q407.0 157.05 406.5 155.8 405.95 154.5 405.95 153.45 L406.05 152.45 406.1 152.35 406.6 152.35 407.55 154.35 M466.9 151.85 Q467.2 152.0 467.2 152.8 467.2 153.75 466.35 155.45 L465.05 157.95 464.4 158.1 Q464.0 157.55 463.9 157.0 L463.8 155.6 Q463.8 154.75 464.55 153.45 465.3 152.2 466.15 151.6 L466.9 151.85 M482.6 211.85 Q482.6 208.95 490.4 212.8 L490.2 213.5 Q489.9 213.85 489.1 213.85 L486.2 213.25 482.9 212.45 Q482.6 213.1 482.6 211.85 M479.95 260.55 L485.55 260.4 486.65 260.45 488.3 260.65 488.55 261.4 487.6 262.15 479.9 262.15 Q479.7 262.1 479.7 261.35 479.7 260.55 479.85 260.5 L479.95 260.55 M482.4 267.2 L487.1 266.9 487.85 267.05 488.1 267.9 488.05 268.65 487.7 268.95 483.05 268.95 Q480.45 268.55 480.2 268.15 481.15 267.45 482.4 267.2 M341.65 351.1 Q341.4 350.05 341.45 348.85 341.5 346.55 342.95 345.85 L343.8 349.4 344.2 352.4 344.05 353.3 343.85 353.4 Q344.45 353.65 343.2 353.65 341.9 353.65 341.65 352.45 L341.65 351.1 M392.7 350.95 Q392.7 349.7 393.05 348.15 393.5 346.25 394.2 345.6 395.3 346.5 395.3 348.55 L394.45 351.0 Q393.6 353.2 393.35 353.3 L392.8 352.3 392.7 350.95 M483.15 335.05 Q484.2 333.45 486.1 334.25 487.55 334.9 488.6 336.3 488.55 337.35 487.6 337.7 L485.15 336.3 483.15 335.05 M481.2 310.05 Q484.1 307.85 486.95 307.95 488.55 308.0 491.3 309.1 L491.55 309.9 Q491.0 310.8 489.35 310.8 L484.95 310.55 481.2 310.05 M428.65 345.8 L428.25 348.0 427.8 350.2 427.55 351.55 427.15 352.8 426.1 353.05 425.2 352.8 Q424.95 353.4 424.95 352.15 424.95 350.7 425.65 348.55 426.55 345.55 428.15 344.85 L428.55 345.0 428.65 345.8 M464.25 348.35 Q464.6 345.25 465.9 344.6 466.4 345.35 466.7 347.65 L466.7 353.8 465.65 354.65 Q464.5 354.15 464.25 353.1 L464.15 351.55 Q464.05 349.9 464.25 348.35 M197.9 154.95 Q196.9 152.05 196.9 151.45 196.9 149.45 198.05 149.05 L200.2 157.05 Q199.9 157.85 199.3 158.1 198.95 157.9 197.9 154.95 M210.2 153.95 L210.9 156.8 210.05 157.55 Q209.0 156.55 208.35 154.85 207.8 153.35 207.8 152.15 207.8 151.4 208.2 151.3 L208.55 151.3 Q209.8 152.25 210.2 153.95 M282.85 150.6 Q282.85 152.05 279.7 158.15 L278.8 158.15 Q278.65 157.8 278.65 156.65 278.65 155.85 280.05 152.65 281.45 149.5 281.95 149.15 L282.65 149.5 282.85 150.6 M276.7 158.15 L276.65 158.2 275.8 158.2 275.8 158.15 276.7 158.15 M76.45 158.7 L76.05 158.95 75.3 159.35 74.35 158.6 74.15 157.4 Q74.15 150.3 75.85 148.9 76.4 149.6 76.7 151.1 L76.95 152.95 Q76.95 155.9 76.45 158.7 M58.95 172.55 L55.75 172.3 53.1 171.8 Q55.95 169.3 60.65 170.7 L61.05 171.55 60.4 172.15 Q59.8 172.55 58.95 172.55 M109.05 152.2 L109.8 152.2 110.0 152.65 110.05 153.7 109.55 157.55 108.6 157.7 108.4 157.35 108.35 156.35 Q108.35 155.75 108.7 154.3 L109.05 152.2 M128.2 154.2 Q128.1 157.1 128.55 157.85 L128.0 158.15 127.0 158.15 Q126.1 154.3 126.1 151.85 L126.15 150.9 126.35 150.55 127.1 150.55 Q128.25 151.6 128.2 154.2 M125.0 158.15 L124.05 158.35 124.0 158.15 125.0 158.15 M57.1 203.95 L52.1 204.55 51.2 204.45 51.2 204.3 Q50.95 204.95 50.95 203.7 50.95 202.75 53.2 202.15 L59.35 201.7 59.5 201.65 59.65 202.55 Q59.65 203.3 57.1 203.95 M50.95 231.2 Q50.95 230.7 55.05 228.85 59.25 226.95 60.55 227.1 L60.7 227.3 60.8 228.05 Q60.8 230.05 52.1 232.05 L51.2 231.95 51.2 231.8 Q50.95 232.45 50.95 231.2 M53.9 291.4 L52.8 291.35 Q52.55 291.25 52.55 290.4 52.55 289.5 54.55 289.0 56.5 288.55 57.85 288.95 L58.1 289.8 57.85 290.8 56.0 291.0 53.9 291.4 M52.35 299.4 Q50.95 299.15 50.55 298.8 53.0 296.0 54.0 295.95 54.8 295.95 57.6 297.4 L57.85 298.15 Q57.25 299.1 56.45 299.4 L52.35 299.4 M52.0 326.25 Q56.6 323.65 58.35 324.15 L58.5 324.1 58.6 324.95 Q58.6 325.15 48.3 330.15 47.65 329.9 47.3 329.55 47.9 328.55 52.0 326.25 M66.05 346.15 Q66.05 347.65 65.15 350.55 L63.85 354.8 63.05 355.15 62.2 354.95 Q62.05 354.8 62.05 353.95 62.05 352.95 63.15 349.25 64.35 345.25 65.1 344.6 65.7 344.8 65.85 345.0 L66.05 346.15 M147.3 345.6 Q148.45 346.55 148.95 349.1 149.6 352.1 150.2 353.15 L149.9 353.8 Q149.6 354.15 148.8 354.15 147.8 354.15 146.3 347.15 146.3 346.3 146.55 346.0 L147.3 345.6 M96.35 345.85 Q98.25 346.85 99.15 350.85 L99.6 353.3 99.7 354.65 99.6 355.55 99.5 355.75 98.8 356.05 Q97.55 354.55 96.95 351.5 96.5 347.95 96.05 346.3 L96.35 345.85 M138.2 354.15 L138.05 348.6 Q138.1 345.3 139.35 344.45 L139.8 349.65 140.05 354.8 Q139.65 355.4 139.1 355.55 L138.4 355.25 Q138.2 355.0 138.2 354.15 M188.6 346.1 L189.8 346.1 Q189.9 347.35 190.35 349.6 L191.3 353.3 190.95 353.95 Q190.65 354.3 189.85 354.3 L188.9 354.2 188.85 354.05 188.15 350.1 187.7 346.95 Q187.7 346.2 188.15 346.15 L188.6 346.1 M162.55 353.55 L162.0 353.3 161.8 352.3 Q161.8 350.65 162.55 347.65 163.35 344.65 163.85 344.45 164.35 345.3 164.35 347.3 L164.15 350.65 Q163.75 352.6 162.55 353.55" fill="#a88335" fill-rule="evenodd" stroke="none"/>
    <path d="M391.95 100.8 L403.6 100.7 405.05 100.25 449.3 100.25 450.9 101.5 Q453.7 103.55 457.1 103.95 L457.1 120.55 457.05 120.6 Q455.6 121.55 455.6 123.15 455.6 124.75 456.5 127.0 L457.1 128.35 457.1 133.65 Q456.05 134.9 456.05 137.4 L456.1 138.25 455.2 141.35 452.6 141.05 Q450.5 141.1 449.05 142.1 448.1 142.8 447.65 143.75 L442.55 143.2 433.25 143.55 Q430.6 144.0 429.65 144.95 L377.15 144.95 Q376.1 144.35 374.45 143.9 L320.45 143.8 302.7 144.95 273.25 144.95 268.85 144.55 256.8 143.65 Q249.15 144.0 244.3 143.7 241.7 143.75 240.35 144.95 L209.75 144.95 Q209.15 144.45 208.2 144.05 L205.05 143.4 194.25 144.05 187.8 144.0 186.3 143.95 179.85 144.95 149.35 144.95 Q148.35 144.15 146.4 143.75 L137.35 143.7 133.85 143.6 119.95 144.95 119.7 144.95 113.25 144.65 106.8 144.35 101.55 144.95 93.6 144.95 Q93.4 142.6 92.0 140.65 L90.75 139.05 90.75 137.1 Q91.3 136.5 91.5 135.45 L91.65 131.9 Q91.65 129.55 91.2 127.5 L90.75 125.05 90.75 116.75 Q91.3 115.95 91.3 115.1 91.3 112.95 90.75 108.25 L90.75 106.65 90.75 105.9 90.85 105.75 90.75 105.5 Q90.75 104.4 91.65 103.9 L92.4 103.55 93.45 102.35 94.65 101.0 97.6 100.85 97.8 100.85 99.4 100.25 103.95 100.25 110.05 100.05 132.25 99.95 139.6 99.85 200.6 99.85 203.3 100.2 203.55 100.25 249.75 100.25 250.2 100.65 250.5 100.8 276.45 100.8 288.05 101.4 289.05 101.4 289.55 101.0 294.95 101.35 308.25 100.25 347.75 100.25 352.1 101.05 358.7 101.1 376.95 100.8 377.35 100.7 390.7 100.7 391.3 100.95 391.95 100.8" fill="#000000" fill-opacity="0.4" fill-rule="evenodd" stroke="none"/>
    <path d="M405.6 97.7 L407.05 97.25 451.3 97.25 452.9 98.5 Q455.7 100.55 459.1 100.95 L459.1 117.55 459.05 117.6 Q457.6 118.55 457.6 120.15 457.6 121.75 458.5 124.0 L459.1 125.35 459.1 130.65 Q458.05 131.9 458.05 134.4 L458.1 135.25 457.2 138.35 454.6 138.05 Q452.5 138.1 451.05 139.1 450.1 139.8 449.65 140.75 L444.55 140.2 435.25 140.55 Q432.6 141.0 431.65 141.95 L379.15 141.95 Q378.1 141.35 376.45 140.9 L322.45 140.8 304.7 141.95 275.25 141.95 270.85 141.55 258.8 140.65 Q251.15 141.0 246.3 140.7 243.7 140.75 242.35 141.95 L211.75 141.95 Q211.15 141.45 210.2 141.05 L207.05 140.4 196.25 141.05 189.8 141.0 188.3 140.95 181.85 141.95 151.35 141.95 Q150.35 141.15 148.4 140.75 L139.35 140.7 135.85 140.6 121.95 141.95 121.7 141.95 115.25 141.65 108.8 141.35 103.55 141.95 95.6 141.95 Q95.4 139.6 94.0 137.65 L92.75 136.05 92.75 134.1 Q93.3 133.5 93.5 132.45 L93.65 128.9 Q93.65 126.55 93.2 124.5 L92.75 122.05 92.75 113.75 Q93.3 112.95 93.3 112.1 L92.75 105.25 92.75 103.65 92.75 102.9 92.85 102.75 92.75 102.5 Q92.75 101.4 93.65 100.9 L94.4 100.55 95.45 99.35 96.65 98.0 99.6 97.85 99.8 97.85 101.4 97.25 105.95 97.25 112.05 97.05 134.25 96.95 141.6 96.85 202.6 96.85 205.3 97.2 205.55 97.25 251.75 97.25 252.2 97.65 252.5 97.8 278.45 97.8 290.05 98.4 291.05 98.4 291.55 98.0 296.95 98.35 310.25 97.25 349.75 97.25 354.1 98.05 360.7 98.1 378.95 97.8 379.35 97.7 392.7 97.7 393.3 97.95 393.95 97.8 405.6 97.7" fill="#71b632" fill-rule="evenodd" stroke="none"/>
    <path d="M454.6 94.4 L453.85 95.85 453.3 96.85 451.2 100.05 Q450.8 100.05 450.7 99.75 L450.65 99.65 450.6 99.55 Q450.6 98.85 452.25 96.3 453.05 95.05 453.45 94.95 454.6 93.4 454.6 94.4 M357.7 96.45 L357.95 100.6 357.9 101.1 Q357.75 101.3 357.4 101.3 356.8 101.3 356.7 100.45 L356.7 99.6 Q356.7 98.1 356.85 96.95 357.1 94.75 357.7 96.45 M393.7 94.65 Q394.9 94.5 394.9 98.65 394.9 99.25 394.3 99.25 393.95 99.25 393.7 98.05 L393.6 96.85 393.7 94.65 M398.85 95.85 L399.25 98.75 Q399.25 99.45 398.8 99.45 398.45 99.45 398.25 99.05 L397.85 97.95 397.7 96.85 397.8 95.7 Q397.85 94.9 398.3 94.45 398.8 93.9 398.85 95.85 M365.35 139.4 L366.3 141.65 367.2 144.6 367.05 145.0 366.6 145.25 Q366.15 145.25 365.6 143.3 L365.5 142.95 365.4 142.55 364.85 139.8 Q364.85 138.65 365.35 139.4 M402.6 142.8 L402.5 143.4 402.25 143.5 Q401.8 143.25 401.7 142.7 L401.65 141.75 Q401.65 138.3 402.15 139.45 402.6 140.6 402.6 142.8 M329.75 141.6 L329.5 140.2 329.5 140.15 329.35 139.35 Q329.35 138.1 329.95 138.4 330.45 138.6 330.65 140.0 L330.75 140.5 331.15 142.2 331.65 143.45 Q331.65 144.05 331.0 144.05 330.45 144.05 329.95 142.2 L329.75 141.6 M360.65 139.2 Q360.25 144.55 359.75 144.55 359.3 144.55 359.2 143.95 L359.2 143.45 359.15 143.3 359.1 142.7 359.15 141.7 359.25 141.4 359.45 139.6 Q359.85 137.4 360.3 137.65 360.65 137.85 360.65 139.2 M455.1 118.4 L455.4 118.3 Q462.05 115.8 462.05 117.2 462.05 117.5 459.0 118.3 L459.0 118.35 Q459.0 118.8 458.4 118.95 L455.3 119.25 454.75 119.2 454.7 119.1 Q454.25 119.0 454.25 118.7 L455.1 118.4 M459.55 134.1 L459.4 134.2 457.0 134.4 455.25 134.3 455.15 134.05 454.15 133.85 Q453.7 133.8 453.7 133.4 453.7 133.15 454.05 133.05 L455.1 133.0 460.9 133.0 461.35 133.3 461.45 133.55 461.05 134.1 459.55 134.1 M448.5 135.6 Q449.2 136.85 449.75 139.0 L450.45 141.25 451.1 143.45 Q451.1 144.2 450.65 144.2 450.25 144.2 449.55 142.1 449.05 142.05 448.75 140.3 L448.6 138.75 447.8 135.5 Q447.8 134.4 448.5 135.6 M450.95 138.6 L451.2 137.7 452.1 139.4 452.8 141.3 Q452.8 141.85 452.25 141.85 451.95 141.85 451.45 140.25 L450.95 138.6 M251.05 93.95 Q251.2 93.15 251.85 93.6 252.2 94.15 252.05 95.6 L252.4 97.55 252.6 99.55 Q252.6 100.25 252.0 100.25 251.55 100.25 251.35 99.4 L251.05 98.35 250.9 97.25 251.0 95.25 251.0 95.1 251.05 93.95 M292.6 97.65 L292.4 96.45 Q292.4 94.8 293.15 96.15 293.9 97.5 293.9 98.35 293.9 98.9 293.3 98.9 292.9 98.9 292.6 97.65 M308.8 97.25 L309.2 95.65 309.55 94.15 Q309.7 93.4 310.25 93.3 310.8 93.2 310.8 93.8 L310.25 96.45 310.3 97.25 310.15 98.35 309.7 98.55 309.1 99.65 Q308.65 99.65 308.55 99.25 L308.5 98.85 308.8 97.25 M202.3 95.6 Q202.6 94.25 203.0 94.2 203.35 94.1 203.35 95.15 L203.2 98.0 Q203.2 98.8 202.6 98.8 202.15 98.8 202.05 98.4 L202.05 98.0 Q202.05 96.55 202.3 95.6 M198.65 98.3 Q198.7 98.45 198.35 98.45 197.95 98.45 197.6 97.15 L197.4 95.9 197.5 95.5 Q198.75 95.5 198.7 97.95 L198.65 98.3 M238.0 95.75 Q238.95 93.8 238.95 95.65 237.9 99.45 237.6 99.45 L237.05 99.1 237.05 98.75 Q237.05 97.7 238.0 95.75 M207.15 137.3 Q207.75 137.4 207.75 142.75 207.75 143.35 207.3 143.35 206.7 143.35 206.55 142.75 L206.55 142.3 206.4 141.7 206.35 140.55 Q206.35 140.0 206.6 139.75 206.7 137.2 207.15 137.3 M233.5 142.0 L233.6 140.4 Q233.6 139.1 234.1 139.35 234.6 139.65 234.6 140.7 L234.7 143.1 Q234.55 146.35 233.85 146.35 233.35 146.35 233.25 145.85 L233.25 145.3 233.35 144.0 233.2 143.35 233.45 142.2 233.5 142.0 M236.7 140.8 L237.0 142.0 237.15 143.45 237.05 144.2 Q237.1 144.35 236.75 144.35 236.55 144.35 236.4 143.35 L236.25 142.35 236.35 141.65 236.7 140.8 M180.75 140.7 L181.35 142.95 181.1 143.4 180.7 143.55 Q180.1 143.55 179.95 142.6 L179.75 141.1 179.35 138.8 Q179.35 136.8 180.3 139.45 L180.3 139.4 180.7 140.55 180.75 140.7 M287.0 139.9 Q287.0 137.9 288.15 140.15 289.3 142.45 289.3 143.25 L289.15 143.65 288.7 143.9 288.45 143.75 288.4 143.75 288.1 143.9 Q287.7 143.9 287.6 143.3 L287.6 142.7 287.65 141.8 287.0 139.9 M93.85 96.3 Q93.85 95.85 94.2 95.7 L95.1 97.25 95.85 99.05 95.8 99.3 95.5 99.4 Q94.85 99.4 94.3 97.9 L93.85 96.3 M156.0 96.9 L156.2 99.05 155.65 99.5 155.35 99.45 155.25 99.3 155.2 98.75 Q154.9 98.0 154.55 96.1 L154.05 93.35 Q154.05 92.65 154.35 92.7 L154.95 93.5 155.3 95.1 155.35 95.05 Q155.9 95.7 156.0 96.9 M158.0 98.6 Q157.8 98.5 157.6 97.2 L157.4 95.65 Q157.4 95.15 157.7 95.05 L158.15 96.45 158.35 97.85 158.2 98.5 158.0 98.6 M151.55 140.5 L151.6 139.85 151.3 138.6 Q151.3 137.95 151.8 138.0 152.25 138.0 152.45 138.85 L152.95 140.5 153.8 143.8 Q153.8 144.45 153.25 144.45 152.7 144.45 152.45 143.5 L152.4 143.5 Q152.1 143.5 151.8 142.0 L151.55 140.5 M93.2 101.7 L93.35 101.75 Q94.8 102.35 94.8 102.85 94.8 103.3 94.25 103.3 93.0 103.3 90.85 101.8 88.85 100.4 88.85 99.9 88.85 98.8 90.05 99.7 L91.2 100.75 92.45 101.25 Q92.9 101.5 93.2 101.7 M88.7 121.7 Q88.7 121.35 91.6 120.6 94.45 119.85 94.45 120.8 94.45 121.15 93.0 121.5 L90.75 121.95 89.1 122.2 Q88.7 122.2 88.7 121.7 M92.45 128.25 L91.3 128.4 Q90.95 128.3 90.95 127.9 90.95 127.45 92.25 127.2 L93.95 127.35 Q93.5 128.05 92.45 128.25 M93.35 129.75 Q93.9 129.75 93.9 130.25 L93.65 130.75 92.75 130.8 91.55 130.75 91.3 130.4 91.5 129.85 93.35 129.75 M94.0 137.0 Q96.65 133.5 96.65 135.15 92.35 141.45 91.95 141.45 91.5 141.45 91.35 141.15 L91.3 140.85 92.25 139.45 92.75 138.45 93.35 137.9 94.0 137.0" fill="#558925" fill-rule="evenodd" stroke="none"/>
  </g>
</svg>
