<?xml version="1.0" encoding="UTF-8" standalone="no"?>
<svg xmlns:xlink="http://www.w3.org/1999/xlink" height="33.35px" width="37.25px" xmlns="http://www.w3.org/2000/svg">
  <g transform="matrix(1.0, 0.0, 0.0, 1.0, -14.0, -0.55)">
    <path d="M48.1 1.05 L47.65 1.05 47.65 1.6 49.2 3.5 50.75 5.65 50.75 5.9 48.35 5.9 42.65 4.55 37.05 3.35 36.4 3.35 Q37.9 4.45 42.95 7.35 L48.0 10.5 46.3 10.6 36.25 9.7 36.05 9.55 38.15 11.3 Q40.1 12.65 40.3 13.35 L37.4 13.5 34.2 13.35 35.8 14.75 Q36.4 15.35 36.4 15.9 L35.9 16.2 Q35.1 16.4 34.3 17.15 L33.9 17.9 33.05 19.0 31.65 20.05 31.25 20.55 31.1 20.95 31.1 20.85 31.25 20.55 M47.8 32.35 L48.55 31.55 49.15 30.3 Q47.15 32.05 44.45 33.4 L45.05 30.25 Q45.65 27.6 46.05 26.95 L46.05 26.5 42.35 28.25 Q40.35 28.9 39.25 29.35 L39.5 24.7 39.25 22.9 37.2 24.1 35.0 25.45 34.55 23.35 Q34.1 21.9 34.1 21.1 L33.15 21.1 32.25 21.3 31.1 21.1 Q30.85 20.85 30.75 20.05 M31.2 19.25 L31.2 18.65 Q31.1 18.2 30.5 18.2 30.35 18.2 29.55 18.55 L28.55 18.9 28.45 16.3 28.5 15.5 Q28.6 14.7 29.0 14.4 L29.0 14.05 22.1 18.9 22.0 18.9 22.75 17.75 24.2 14.5 Q24.6 13.3 25.95 11.25 L27.65 8.75 27.65 7.95 27.4 7.85 26.65 8.45 Q25.45 9.6 22.7 11.4 20.75 12.65 18.4 13.6 L18.3 13.7 18.3 13.6 18.4 13.6 22.9 5.55 22.45 5.55 Q21.5 6.1 19.6 6.1 L18.55 6.1 Q18.4 6.05 18.4 5.7 L18.9 4.55 19.55 3.25 Q17.95 3.55 17.0 2.5 L16.2 1.3 16.0 1.3 16.0 1.15 16.2 1.3 M14.75 31.75 L14.5 30.25 14.75 25.75 Q19.4 28.75 20.1 28.75 22.0 26.55 23.9 25.3 L23.0 24.15 22.05 23.25 24.7 22.9 27.15 23.0 Q26.65 20.0 29.5 20.0" fill="none" stroke="#ffffff" stroke-linecap="round" stroke-linejoin="round" stroke-width="1.0"/>
  </g>
</svg>
