<?xml version="1.0" encoding="UTF-8" standalone="no"?>
<svg xmlns:xlink="http://www.w3.org/1999/xlink" height="26.55px" width="28.4px" xmlns="http://www.w3.org/2000/svg">
  <g transform="matrix(1.0, 0.0, 0.0, 1.0, -7.45, -4.1)">
    <path d="M12.3 26.05 Q8.45 22.45 8.45 17.35 8.45 12.3 12.3 8.7 16.2 5.1 21.65 5.1 27.1 5.1 30.95 8.7 34.85 12.3 34.85 17.35 34.85 22.45 30.95 26.05 27.1 29.65 21.65 29.65 16.2 29.65 12.3 26.05" fill="#ffc311" fill-rule="evenodd" stroke="none"/>
    <path d="M12.3 26.05 Q8.45 22.45 8.45 17.35 8.45 12.3 12.3 8.7 16.2 5.1 21.65 5.1 27.1 5.1 30.95 8.7 34.85 12.3 34.85 17.35 34.85 22.45 30.95 26.05 27.1 29.65 21.65 29.65 16.2 29.65 12.3 26.05 Z" fill="none" stroke="#322210" stroke-linecap="round" stroke-linejoin="round" stroke-width="2.0"/>
    <path d="M11.9 17.1 L11.8 15.85 Q11.8 12.05 14.65 9.35 17.55 6.7 21.65 6.7 25.7 6.7 28.6 9.35 31.5 12.05 31.5 15.85 L31.45 17.1 Q31.0 14.1 28.6 11.85 25.7 9.2 21.65 9.2 17.55 9.2 14.65 11.85 12.3 14.1 11.9 17.1" fill="#c49300" fill-rule="evenodd" stroke="none"/>
    <path d="M31.45 17.1 L31.5 15.85 Q31.5 12.05 28.6 9.35 25.7 6.7 21.65 6.7 17.55 6.7 14.65 9.35 11.8 12.05 11.8 15.85 L11.9 17.1 Q12.3 20.1 14.65 22.3 17.55 25.0 21.65 25.0 25.7 25.0 28.6 22.3 31.0 20.1 31.45 17.1 M30.95 8.7 Q34.85 12.3 34.85 17.35 34.85 22.45 30.95 26.05 27.1 29.65 21.65 29.65 16.2 29.65 12.3 26.05 8.45 22.45 8.45 17.35 8.45 12.3 12.3 8.7 16.2 5.1 21.65 5.1 27.1 5.1 30.95 8.7" fill="url(#gradient0)" fill-rule="evenodd" stroke="none"/>
    <path d="M11.9 17.1 Q12.3 14.1 14.65 11.85 17.55 9.2 21.65 9.2 25.7 9.2 28.6 11.85 31.0 14.1 31.45 17.1 31.0 20.1 28.6 22.3 25.7 25.0 21.65 25.0 17.55 25.0 14.65 22.3 12.3 20.1 11.9 17.1" fill="#3399ff" fill-rule="evenodd" stroke="none"/>
  </g>
  <defs>
    <linearGradient gradientTransform="matrix(0.0121, -0.0106, 0.0099, 0.0112, 21.65, 17.35)" gradientUnits="userSpaceOnUse" id="gradient0" spreadMethod="pad" x1="-819.2" x2="819.2">
      <stop offset="0.0" stop-color="#ffc311"/>
      <stop offset="1.0" stop-color="#ffe79b"/>
    </linearGradient>
  </defs>
</svg>
