<?xml version="1.0" encoding="UTF-8" standalone="no"?>
<svg xmlns:xlink="http://www.w3.org/1999/xlink" height="414.15px" width="421.55px" xmlns="http://www.w3.org/2000/svg">
  <g transform="matrix(1.0, 0.0, 0.0, 1.0, 211.6, 206.55)">
    <path d="M12.5 120.7 L12.7 120.45 12.4 120.05 5.85 113.2 Q5.8 113.05 5.6 113.05 L5.35 112.85 4.85 112.7 4.45 112.65 -1.55 116.6 Q-14.7 117.15 -24.15 121.3 -29.55 123.6 -33.4 127.0 -38.65 131.1 -41.4 137.25 -52.5 159.75 -28.05 178.95 -21.75 183.85 -13.55 187.7 L-12.85 188.0 -11.7 187.55 -7.1 184.4 Q-6.35 184.15 -5.95 183.45 L-5.4 182.25 -5.8 180.9 -6.15 179.8 -7.05 176.8 Q2.45 182.35 15.1 183.5 L15.55 183.45 16.2 183.15 18.55 179.7 18.8 178.7 18.85 177.65 Q18.6 176.9 18.3 177.0 L17.8 176.05 16.3 174.2 Q24.4 175.7 32.85 173.85 L33.05 173.7 33.2 173.55 33.3 173.25 34.0 170.25 34.0 169.5 33.8 168.65 33.25 168.1 32.65 167.65 Q24.95 162.05 15.6 148.8 3.9 131.95 5.5 120.85 L12.25 120.9 12.5 120.7 Z" fill="none" stroke="#856301" stroke-linecap="round" stroke-linejoin="round" stroke-width="6.0"/>
    <path d="M6.75 154.65 L4.35 148.95 Q-2.0 129.95 3.95 120.75 L4.8 120.7 Q3.15 131.9 15.2 149.3 L28.65 165.5 32.8 168.85 Q18.4 169.05 6.95 155.3 L6.75 154.65 M-9.75 152.55 L-9.7 152.35 -9.5 145.7 Q-8.05 127.55 1.35 120.65 L1.95 120.75 2.8 120.8 Q-2.85 130.1 3.2 149.25 L13.1 171.2 Q14.9 174.35 17.25 177.15 L16.85 176.8 Q-2.2 171.65 -9.55 152.8 L-9.75 152.55 M-7.75 180.85 Q-28.3 167.1 -26.85 145.55 -25.45 124.25 -1.15 117.2 L0.45 119.95 0.6 120.05 Q-9.25 126.95 -10.85 145.8 L-10.0 172.3 Q-9.05 176.8 -7.6 180.95 L-7.75 180.85" fill="#ffcc33" fill-rule="evenodd" stroke="none"/>
    <path d="M6.75 154.65 L6.95 155.3 Q18.4 169.05 32.8 168.85 L33.2 169.2 32.45 172.2 Q23.6 174.35 15.1 171.95 10.35 164.7 6.75 154.65 M16.85 176.8 L17.85 178.0 15.55 181.4 Q1.95 179.75 -7.7 173.25 -9.95 163.7 -9.75 152.55 L-9.55 152.8 Q-2.2 171.65 16.85 176.8 M-7.75 180.85 Q-7.5 181.1 -7.3 182.1 L-11.8 185.0 Q-19.7 181.15 -25.7 176.5 -48.6 158.65 -39.0 137.2 -36.45 131.35 -31.35 127.25 -27.85 124.1 -22.95 121.95 -13.95 117.75 -1.3 117.05 L-1.15 117.2 Q-25.45 124.25 -26.85 145.55 -28.3 167.1 -7.75 180.85 M-0.3 116.95 L5.6 113.2 12.05 120.1 1.5 120.0 -0.3 116.95" fill="#cd960d" fill-rule="evenodd" stroke="none"/>
    <path d="M32.8 168.85 L28.65 165.5 15.2 149.3 Q3.15 131.9 4.8 120.7 L3.95 120.75 Q-2.0 129.95 4.35 148.95 L6.75 154.65 Q10.35 164.7 15.1 171.95 23.6 174.35 32.45 172.2 L33.2 169.2 32.8 168.85 M33.0 167.45 L33.55 167.85 34.1 168.5 34.3 169.35 34.25 170.2 33.6 173.1 33.4 173.4 33.35 173.5 33.15 173.65 Q24.65 175.5 16.7 174.0 L18.05 175.9 18.65 176.9 Q18.85 176.75 19.05 177.6 L19.1 178.55 18.8 179.55 16.45 183.0 Q16.2 183.05 15.8 183.25 L15.4 183.3 Q2.7 182.25 -6.8 176.75 L-5.9 179.6 -5.5 180.7 -5.05 182.05 -5.65 183.35 Q-6.1 184.1 -6.85 184.3 L-11.4 187.4 -12.55 187.75 -13.25 187.55 Q-21.5 183.7 -27.75 178.85 -52.3 159.55 -41.1 137.1 -38.35 131.0 -33.1 126.85 -29.3 123.4 -23.95 121.2 -14.55 117.05 -1.3 116.4 L4.75 112.55 5.1 112.6 5.6 112.65 5.9 112.9 6.2 113.1 12.65 119.9 12.95 120.3 12.7 120.6 12.5 120.85 5.75 120.65 Q4.2 131.8 15.8 148.65 25.25 161.85 33.0 167.45 M16.85 176.8 L17.25 177.15 Q14.9 174.35 13.1 171.2 L3.2 149.25 Q-2.85 130.1 2.8 120.8 L1.95 120.75 1.35 120.65 Q-8.05 127.55 -9.5 145.7 L-9.7 152.35 -9.75 152.55 Q-9.95 163.7 -7.7 173.25 1.95 179.75 15.55 181.4 L17.85 178.0 16.85 176.8 M-1.15 117.2 L-1.3 117.05 Q-13.95 117.75 -22.95 121.95 -27.85 124.1 -31.35 127.25 -36.45 131.35 -39.0 137.2 -48.6 158.65 -25.7 176.5 -19.7 181.15 -11.8 185.0 L-7.3 182.1 Q-7.5 181.1 -7.75 180.85 L-7.6 180.95 Q-9.05 176.8 -10.0 172.3 L-10.85 145.8 Q-9.25 126.95 0.6 120.05 L0.45 119.95 -1.15 117.2 M-0.3 116.95 L1.5 120.0 12.05 120.1 5.6 113.2 -0.3 116.95" fill="#856301" fill-rule="evenodd" stroke="none"/>
    <path d="M-131.15 51.85 Q-129.0 48.55 -127.45 47.25 -125.45 45.55 -120.75 43.7 -116.6 42.05 -111.85 42.8 -109.45 43.15 -107.9 43.85 -101.6 46.1 -99.85 50.65 -97.7 54.9 -100.05 61.25 L-100.1 61.25 Q-101.95 66.25 -105.75 70.6 -107.0 72.0 -108.85 72.1 -110.75 72.2 -112.1 71.0 -113.55 69.75 -113.65 67.9 -113.75 66.05 -112.5 64.65 -109.85 61.55 -108.5 58.1 -107.7 55.8 -108.1 54.3 -108.85 53.05 -110.9 52.35 -114.45 51.05 -117.9 52.25 L-117.9 52.2 Q-121.45 53.45 -123.6 56.8 L-123.65 56.8 Q-129.5 66.35 -122.5 82.3 -115.55 97.35 -91.9 100.35 -75.3 102.4 -56.95 98.95 -50.1 97.25 -45.7 87.05 L-45.7 87.0 Q-44.15 83.3 -43.05 79.1 L-43.1 79.3 -42.3 75.45 Q-41.95 73.65 -40.35 72.6 -38.8 71.55 -37.0 71.95 -35.2 72.3 -34.15 73.9 -33.1 75.45 -33.5 77.25 L-34.3 81.25 -34.3 81.3 Q-35.55 86.3 -37.45 90.6 -44.1 106.05 -55.3 107.8 -75.1 111.5 -93.0 109.3 -122.55 105.55 -130.75 85.9 -140.1 64.65 -131.15 51.85" fill="#ffffff" fill-rule="evenodd" stroke="none"/>
    <path d="M-131.15 51.85 Q-140.1 64.65 -130.75 85.9 -122.55 105.55 -93.0 109.3 -75.1 111.5 -55.3 107.8 -44.1 106.05 -37.45 90.6 -35.55 86.3 -34.3 81.3 L-34.3 81.25 -33.5 77.25 Q-33.1 75.45 -34.15 73.9 -35.2 72.3 -37.0 71.95 -38.8 71.55 -40.35 72.6 -41.95 73.65 -42.3 75.45 L-43.1 79.3 -43.05 79.1 Q-44.15 83.3 -45.7 87.0 L-45.7 87.05 Q-50.1 97.25 -56.95 98.95 -75.3 102.4 -91.9 100.35 -115.55 97.35 -122.5 82.3 -129.5 66.35 -123.65 56.8 L-123.6 56.8 Q-121.45 53.45 -117.9 52.2 L-117.9 52.25 Q-114.45 51.05 -110.9 52.35 -108.85 53.05 -108.1 54.3 -107.7 55.8 -108.5 58.1 -109.85 61.55 -112.5 64.65 -113.75 66.05 -113.65 67.9 -113.55 69.75 -112.1 71.0 -110.75 72.2 -108.85 72.1 -107.0 72.0 -105.75 70.6 -101.95 66.25 -100.1 61.25 L-100.05 61.25 Q-97.7 54.9 -99.85 50.65 -101.6 46.1 -107.9 43.85 -109.45 43.15 -111.85 42.8 -116.6 42.05 -120.75 43.7 -125.45 45.55 -127.45 47.25 -129.0 48.55 -131.15 51.85 Z" fill="none" stroke="#3c190a" stroke-linecap="round" stroke-linejoin="miter" stroke-miterlimit="3.0" stroke-width="9.0"/>
    <path d="M-43.1 79.3 L-42.3 75.45 Q-41.95 73.65 -40.35 72.6 -38.8 71.55 -37.0 71.95 -35.2 72.3 -34.15 73.9 -33.1 75.45 -33.5 77.25 L-34.3 81.25 -34.3 81.3 Q-35.55 86.3 -37.45 90.6 -44.1 106.05 -55.3 107.8 -75.1 111.5 -93.0 109.3 -122.55 105.55 -130.75 85.9 -140.1 64.65 -131.15 51.85 -127.25 45.85 -120.8 43.7 L-120.75 43.7 Q-114.35 41.55 -107.85 43.9 L-107.9 43.85 Q-101.6 46.1 -99.85 50.65 -97.7 54.9 -100.05 61.25 L-100.1 61.25 Q-101.95 66.25 -105.75 70.6 -107.0 72.0 -108.85 72.1 -110.75 72.2 -112.1 71.0 -113.55 69.75 -113.65 67.9 -113.75 66.05 -112.5 64.65 -109.85 61.55 -108.5 58.1 -107.7 55.8 -108.1 54.3 -108.85 53.05 -110.9 52.35 -114.45 51.05 -117.9 52.25 L-117.9 52.2 Q-121.45 53.45 -123.6 56.8 L-123.65 56.8 Q-129.5 66.35 -122.5 82.3 -115.55 97.35 -91.9 100.35 -75.3 102.4 -56.95 98.95 -50.1 97.25 -45.7 87.05 L-45.7 87.0 Q-44.2 83.4 -43.1 79.3" fill="#884426" fill-rule="evenodd" stroke="none"/>
    <path d="M33.75 108.7 L33.7 108.3 34.35 108.05 45.95 103.95 46.35 103.9 Q46.6 103.7 46.75 103.8 47.2 103.75 47.5 104.0 L47.95 104.15 52.6 112.2 Q67.6 120.75 76.1 131.15 81.0 136.95 83.45 143.25 87.1 151.1 86.7 159.9 86.3 192.55 46.5 200.4 36.35 202.35 24.45 202.0 L23.45 201.9 22.4 200.7 18.95 194.35 Q18.25 193.65 18.15 192.5 L18.25 190.85 19.5 189.45 20.6 188.4 23.4 185.5 Q9.05 186.3 -6.35 180.15 L-6.8 179.8 -7.35 179.1 -8.15 173.75 -7.85 172.45 -7.2 171.2 Q-6.5 170.5 -6.2 170.7 L-5.05 169.95 -2.25 168.65 Q-12.5 165.6 -21.25 158.45 L-21.4 158.2 -21.45 157.9 -21.4 157.5 -20.45 153.65 Q-20.35 152.9 -20.05 152.7 L-19.25 151.9 Q-18.75 151.5 -18.3 151.55 L-17.35 151.35 Q-5.15 149.4 13.65 139.6 37.2 126.9 41.95 113.05 L34.0 109.1 Q33.7 108.9 33.75 108.7 Z" fill="none" stroke="#856301" stroke-linecap="round" stroke-linejoin="round" stroke-width="6.0"/>
    <path d="M-18.2 152.6 Q-1.6 161.35 19.85 152.1 L20.5 151.5 26.6 146.3 Q45.2 128.0 43.75 113.75 L42.8 113.2 Q38.05 127.15 13.85 140.25 L-11.35 151.15 -18.2 152.6 M-4.4 171.25 Q20.8 176.55 40.4 158.95 L40.85 158.8 40.95 158.55 44.65 150.75 Q53.75 128.75 46.85 115.15 L46.1 114.95 45.1 114.55 Q46.15 128.65 27.8 147.35 L3.25 167.0 Q-0.7 169.6 -5.05 171.35 L-4.4 171.25 M51.8 112.65 L48.3 114.85 48.1 114.9 Q55.4 128.75 46.1 151.65 L29.5 181.95 Q25.7 186.55 21.6 190.6 L21.85 190.55 Q53.85 186.65 64.95 160.75 75.8 135.2 51.8 112.65" fill="#ffcc33" fill-rule="evenodd" stroke="none"/>
    <path d="M20.5 151.5 L19.85 152.1 Q-1.6 161.35 -18.2 152.6 L-18.9 152.7 -19.8 156.7 Q-10.8 164.45 0.5 166.6 10.3 161.0 20.5 151.5 M-4.4 171.25 L-6.3 172.05 -5.55 177.4 Q11.25 183.45 26.25 181.65 34.5 171.85 40.85 158.8 L40.4 158.95 Q20.8 176.55 -4.4 171.25 M21.85 190.55 Q21.35 190.7 20.5 191.7 L24.05 197.8 Q35.55 197.95 45.25 196.05 82.4 188.85 83.95 158.25 84.5 149.95 80.95 142.15 78.8 136.45 74.35 131.1 66.3 120.85 52.0 112.6 L51.8 112.65 Q75.8 135.2 64.95 160.75 53.85 186.65 21.85 190.55 M50.95 111.85 L46.35 104.0 34.7 108.15 47.05 114.25 50.95 111.85" fill="#cd960d" fill-rule="evenodd" stroke="none"/>
    <path d="M13.55 139.15 Q-5.3 148.95 -17.6 150.8 L-18.5 151.0 Q-18.95 151.1 -19.45 151.45 L-20.3 152.3 -20.65 153.3 -21.6 157.05 -21.6 157.5 -21.6 157.65 -21.4 158.0 Q-12.7 165.15 -2.55 168.1 L-5.2 169.45 -6.45 170.35 Q-6.7 170.0 -7.45 170.9 L-8.05 171.95 -8.25 173.3 -7.6 178.7 -7.0 179.3 -6.55 179.7 Q8.85 185.95 23.15 185.2 L20.35 187.95 19.25 189.0 18.0 190.35 17.85 192.25 Q17.95 193.3 18.7 194.0 L22.15 200.25 23.3 201.35 Q23.75 201.65 24.2 201.55 36.1 201.95 46.25 199.95 86.15 192.1 86.4 159.45 86.85 150.7 83.2 142.8 80.8 136.5 75.9 130.8 67.4 120.4 52.5 111.8 L47.7 103.75 47.2 103.6 Q46.9 103.3 46.55 103.35 L46.1 103.45 45.65 103.55 34.15 107.7 33.6 107.9 33.7 108.35 Q33.5 108.5 33.8 108.8 L41.75 112.6 Q36.95 126.45 13.55 139.15 M-18.2 152.6 L-11.35 151.15 13.85 140.25 Q38.05 127.15 42.8 113.2 L43.75 113.75 Q45.2 128.0 26.6 146.3 L20.5 151.5 Q10.3 161.0 0.5 166.6 -10.8 164.45 -19.8 156.7 L-18.9 152.7 -18.2 152.6 M40.85 158.8 Q34.5 171.85 26.25 181.65 11.25 183.45 -5.55 177.4 L-6.3 172.05 -4.4 171.25 -5.05 171.35 Q-0.7 169.6 3.25 167.0 L27.8 147.35 Q46.15 128.65 45.1 114.55 L46.1 114.95 46.85 115.15 Q53.75 128.75 44.65 150.75 L40.95 158.55 40.85 158.8 M51.8 112.65 L52.0 112.6 Q66.3 120.85 74.35 131.1 78.8 136.45 80.95 142.15 84.5 149.95 83.95 158.25 82.4 188.85 45.25 196.05 35.55 197.95 24.05 197.8 L20.5 191.7 Q21.35 190.7 21.85 190.55 L21.6 190.6 Q25.7 186.55 29.5 181.95 L46.1 151.65 Q55.4 128.75 48.1 114.9 L48.3 114.85 51.8 112.65 M50.95 111.85 L47.05 114.25 34.7 108.15 46.35 104.0 50.95 111.85" fill="#856301" fill-rule="evenodd" stroke="none"/>
    <path d="M103.6 -47.15 L99.85 -17.4 Q59.1 5.1 9.6 9.1 -14.8 34.15 -9.4 66.6 L-2.1 66.05 Q5.9 66.4 9.35 70.6 12.8 74.8 14.4 94.9 15.25 104.9 15.35 114.1 17.3 111.0 16.85 103.85 34.65 103.7 55.85 94.1 L58.35 111.6 39.85 118.6 60.85 113.6 59.6 137.6 Q22.85 144.85 -6.15 138.35 -5.4 126.1 -5.3 113.45 -5.1 88.15 -8.4 86.1 -10.5 84.8 -16.8 83.2 -23.65 81.45 -30.85 80.6 -50.3 78.35 -56.9 84.1 -63.15 89.55 -60.4 116.75 -59.0 130.35 -56.4 142.85 -62.6 174.75 -78.15 201.6 L-107.9 192.1 -92.15 171.1 -108.4 187.1 -130.15 172.35 Q-104.8 155.2 -81.15 130.35 -82.35 126.75 -83.55 121.2 -86.0 110.15 -86.15 100.6 -86.3 92.45 -81.5 76.15 -75.9 56.8 -74.65 47.35 -72.95 34.25 -78.0 11.5 L-83.4 -8.65 26.1 -20.65 Q55.45 -17.7 84.85 -49.9 L103.6 -47.15" fill="#ffffff" fill-rule="evenodd" stroke="none"/>
    <path d="M103.6 -47.15 L99.85 -17.4 Q59.1 5.1 9.6 9.1 -14.8 34.15 -9.4 66.6 L-2.1 66.05 Q5.9 66.4 9.35 70.6 12.8 74.8 14.4 94.9 15.25 104.9 15.35 114.1 17.3 111.0 16.85 103.85 34.65 103.7 55.85 94.1 L58.35 111.6 39.85 118.6 60.85 113.6 59.6 137.6 Q22.85 144.85 -6.15 138.35 -5.4 126.1 -5.3 113.45 -5.1 88.15 -8.4 86.1 -10.5 84.8 -16.8 83.2 -23.65 81.45 -30.85 80.6 -50.3 78.35 -56.9 84.1 -63.15 89.55 -60.4 116.75 -59.0 130.35 -56.4 142.85 -62.6 174.75 -78.15 201.6 L-107.9 192.1 -92.15 171.1 -108.4 187.1 -130.15 172.35 Q-104.8 155.2 -81.15 130.35 -82.35 126.75 -83.55 121.2 -86.0 110.15 -86.15 100.6 -86.3 92.45 -81.5 76.15 -75.9 56.8 -74.65 47.35 -72.95 34.25 -78.0 11.5 L-83.4 -8.65 26.1 -20.65 Q55.45 -17.7 84.85 -49.9 L103.6 -47.15 Z" fill="none" stroke="#3c190a" stroke-linecap="square" stroke-linejoin="miter" stroke-miterlimit="3.0" stroke-width="9.0"/>
    <path d="M99.85 -17.4 Q59.1 5.1 9.6 9.1 -14.8 34.15 -9.4 66.6 L-2.1 66.05 Q5.9 66.4 9.35 70.6 12.8 74.8 14.4 94.9 15.25 104.9 15.35 114.1 17.3 111.0 16.85 103.85 34.65 103.7 55.85 94.1 L58.35 111.6 39.85 118.6 60.85 113.6 59.6 137.6 Q22.85 144.85 -6.15 138.35 -5.4 126.1 -5.3 113.45 -5.1 88.15 -8.4 86.1 -10.5 84.8 -16.8 83.2 -23.65 81.45 -30.85 80.6 -50.3 78.35 -56.9 84.1 -63.15 89.55 -60.4 116.75 -59.0 130.35 -56.4 142.85 -62.6 174.75 -78.15 201.6 L-107.9 192.1 -92.15 171.1 -108.4 187.1 -130.15 172.35 Q-104.8 155.2 -81.15 130.35 -82.35 126.75 -83.55 121.2 -86.0 110.15 -86.15 100.6 -86.3 92.45 -81.5 76.15 -75.9 56.8 -74.65 47.35 -72.95 34.25 -78.0 11.5 L-83.4 -8.65 26.1 -20.65 Q55.45 -17.7 84.85 -49.9 L103.6 -47.15 99.85 -17.4" fill="#884426" fill-rule="evenodd" stroke="none"/>
    <path d="M103.6 -47.15 L99.85 -17.4 Q92.55 -13.4 85.05 -9.95 L79.6 -11.15 83.35 -18.65 74.35 -18.65 78.6 -29.65 68.35 -28.15 73.4 -38.65 Q79.1 -43.6 84.85 -49.9 L103.6 -47.15" fill="#bf7926" fill-rule="evenodd" stroke="none"/>
    <path d="M-64.5 -15.65 Q-63.4 -19.3 -52.15 -21.75 -41.5 -24.1 -28.5 -24.1 -14.7 -24.2 -7.45 -21.55 0.9 -18.5 -3.15 -12.75 -9.65 -3.7 -12.45 28.95 L-14.25 50.75 Q-15.4 60.9 -17.25 63.4 -21.3 68.8 -25.8 71.0 -29.75 72.95 -36.4 73.3 -44.65 73.75 -49.5 71.05 -56.9 67.0 -60.9 54.75 -65.15 41.65 -66.1 16.65 -67.05 -7.4 -64.5 -15.65" fill="#bf7926" fill-rule="evenodd" stroke="none"/>
    <path d="M135.1 -95.4 Q136.9 -93.05 141.0 -91.3 148.05 -88.25 162.9 -107.9 L172.6 -121.45 Q176.85 -127.55 177.35 -127.2 178.1 -126.6 174.8 -118.55 171.05 -109.7 165.9 -101.5 150.95 -77.55 139.0 -82.8 133.6 -85.25 131.8 -89.8 L92.55 -23.8 Q59.2 31.9 25.45 87.45 L25.2 88.0 Q23.8 90.45 19.65 90.45 15.4 90.5 10.85 88.05 6.3 85.65 4.1 82.2 3.15 80.75 3.05 78.4 2.95 76.5 3.15 76.25 L3.25 76.1 Q41.05 22.65 79.25 -30.6 L122.75 -90.95 Q117.95 -90.1 114.65 -93.6 109.85 -98.7 110.15 -106.3 110.5 -115.1 117.6 -127.35 122.3 -135.4 128.15 -141.75 133.55 -147.7 134.95 -147.0 135.15 -146.9 131.6 -140.95 126.55 -132.8 123.75 -127.4 112.9 -106.85 118.5 -101.2 121.2 -98.45 127.8 -99.65 L129.35 -99.95 Q156.4 -136.85 157.55 -136.4 158.8 -135.9 135.1 -95.4" fill="#ffffff" fill-rule="evenodd" stroke="none"/>
    <path d="M135.1 -95.4 Q136.9 -93.05 141.0 -91.3 148.05 -88.25 162.9 -107.9 L172.6 -121.45 Q176.85 -127.55 177.35 -127.2 178.1 -126.6 174.8 -118.55 171.05 -109.7 165.9 -101.5 150.95 -77.55 139.0 -82.8 133.6 -85.25 131.8 -89.8 L92.55 -23.8 Q59.2 31.9 25.45 87.45 L25.2 88.0 Q23.8 90.45 19.65 90.45 15.4 90.5 10.85 88.05 6.3 85.65 4.1 82.2 3.15 80.75 3.05 78.4 2.95 76.5 3.15 76.25 L3.25 76.1 Q41.05 22.65 79.25 -30.6 L122.75 -90.95 Q117.95 -90.1 114.65 -93.6 109.85 -98.7 110.15 -106.3 110.5 -115.1 117.6 -127.35 122.3 -135.4 128.15 -141.75 133.55 -147.7 134.95 -147.0 135.15 -146.9 131.6 -140.95 126.55 -132.8 123.75 -127.4 112.9 -106.85 118.5 -101.2 121.2 -98.45 127.8 -99.65 L129.35 -99.95 Q156.4 -136.85 157.55 -136.4 158.8 -135.9 135.1 -95.4 Z" fill="none" stroke="#000000" stroke-linecap="square" stroke-linejoin="miter" stroke-miterlimit="3.0" stroke-width="9.0"/>
    <path d="M92.55 -23.8 L25.2 87.85 14.15 82.05 Q3.1 76.25 3.25 76.1 41.05 22.65 79.25 -30.6 155.55 -137.2 157.55 -136.4 159.55 -135.6 92.55 -23.8" fill="#333333" fill-rule="evenodd" stroke="none"/>
    <path d="M84.55 -22.95 L89.85 -37.0 108.65 -27.75 103.35 -13.15 84.55 -22.95" fill="#ffffff" fill-rule="evenodd" stroke="none"/>
    <path d="M84.55 -22.95 L103.35 -13.15 108.65 -27.75 89.85 -37.0 84.55 -22.95 Z" fill="none" stroke="#3c190a" stroke-linecap="square" stroke-linejoin="miter" stroke-miterlimit="3.0" stroke-width="9.0"/>
    <path d="M123.75 -127.4 Q112.9 -106.85 118.5 -101.2 121.25 -98.45 127.75 -99.65 131.0 -100.2 133.75 -101.35 L133.45 -100.3 Q133.3 -99.05 133.75 -97.9 134.9 -93.95 140.95 -91.3 148.0 -88.25 162.9 -107.9 L172.6 -121.45 Q176.85 -127.55 177.35 -127.2 178.1 -126.6 174.75 -118.55 171.05 -109.7 165.9 -101.5 150.95 -77.55 139.0 -82.8 133.2 -85.45 131.55 -90.5 L131.1 -95.05 Q128.65 -92.9 125.4 -91.7 118.8 -89.2 114.6 -93.6 109.85 -98.7 110.15 -106.3 110.45 -115.1 117.6 -127.35 122.25 -135.4 128.15 -141.75 133.5 -147.7 134.95 -147.0 135.2 -146.9 131.6 -140.95 126.5 -132.8 123.75 -127.4" fill="#333333" fill-rule="evenodd" stroke="none"/>
    <path d="M58.1 50.35 L54.1 37.85 56.85 63.6 45.6 75.1 41.1 76.6 Q42.1 73.85 41.9 70.55 41.45 64.0 35.35 61.35 29.25 58.7 21.8 60.9 L15.6 63.6 Q11.35 63.75 2.8 61.55 -14.35 57.25 -35.9 45.85 -57.45 34.45 -73.85 13.5 -78.95 7.0 -82.95 0.25 L-85.9 -5.15 -69.65 -1.7 -53.4 1.6 Q-19.9 23.35 19.85 21.1 59.65 5.0 79.6 41.85 L70.85 56.35 58.1 50.35" fill="#ffffff" fill-rule="evenodd" stroke="none"/>
    <path d="M58.1 50.35 L70.85 56.35 79.6 41.85 Q59.65 5.0 19.85 21.1 -19.9 23.35 -53.4 1.6 L-69.65 -1.7 -85.9 -5.15 -82.95 0.25 Q-78.95 7.0 -73.85 13.5 -57.45 34.45 -35.9 45.85 -14.35 57.25 2.8 61.55 11.35 63.75 15.6 63.6 L21.8 60.9 Q29.25 58.7 35.35 61.35 41.45 64.0 41.9 70.55 42.1 73.85 41.1 76.6 L45.6 75.1 56.85 63.6 54.1 37.85 58.1 50.35 Z" fill="none" stroke="#3c190a" stroke-linecap="square" stroke-linejoin="miter" stroke-miterlimit="3.0" stroke-width="9.0"/>
    <path d="M19.6 90.45 Q15.45 90.5 10.85 88.05 6.3 85.65 4.05 82.2 1.85 78.8 3.25 76.35 4.65 73.85 8.8 73.8 13.0 73.8 17.55 76.2 22.15 78.65 24.35 82.05 26.6 85.5 25.2 88.0 23.8 90.45 19.6 90.45" fill="#232222" fill-rule="evenodd" stroke="none"/>
    <path d="M102.3 -57.3 L117.5 -50.3 115.25 -36.4 96.2 -43.9 102.3 -57.3" fill="#ffffff" fill-rule="evenodd" stroke="none"/>
    <path d="M102.3 -57.3 L96.2 -43.9 115.25 -36.4 117.5 -50.3 102.3 -57.3 Z" fill="none" stroke="#3c190a" stroke-linecap="square" stroke-linejoin="miter" stroke-miterlimit="3.0" stroke-width="9.0"/>
    <path d="M102.3 -57.3 L117.5 -50.3 115.25 -36.4 96.2 -43.9 102.3 -57.3" fill="#bf7926" fill-rule="evenodd" stroke="none"/>
    <path d="M84.55 -22.95 L89.85 -37.0 108.65 -27.75 103.35 -13.15 84.55 -22.95" fill="#bf7926" fill-rule="evenodd" stroke="none"/>
    <path d="M112.1 -22.15 Q101.25 -27.45 90.35 -32.8 L95.95 -46.3 117.4 -36.2 112.1 -22.15" fill="#ffffff" fill-rule="evenodd" stroke="none"/>
    <path d="M112.1 -22.15 L117.4 -36.2 95.95 -46.3 90.35 -32.8 Q101.25 -27.45 112.1 -22.15 Z" fill="none" stroke="#3c190a" stroke-linecap="square" stroke-linejoin="miter" stroke-miterlimit="3.0" stroke-width="9.0"/>
    <path d="M117.4 -36.2 Q117.65 -36.2 112.1 -22.15 101.25 -27.5 90.35 -32.8 L95.95 -46.3 117.4 -36.2" fill="#bf7926" fill-rule="evenodd" stroke="none"/>
    <path d="M79.55 -51.15 L92.8 -58.3 96.65 -39.85 87.0 -36.0 79.55 -51.15" fill="#ffffff" fill-rule="evenodd" stroke="none"/>
    <path d="M79.55 -51.15 L87.0 -36.0 96.65 -39.85 92.8 -58.3 79.55 -51.15 Z" fill="none" stroke="#3c190a" stroke-linecap="square" stroke-linejoin="miter" stroke-miterlimit="3.0" stroke-width="9.0"/>
    <path d="M79.55 -51.15 L92.8 -58.3 96.65 -39.85 87.0 -36.0 79.55 -51.15" fill="#bf7926" fill-rule="evenodd" stroke="none"/>
    <path d="M58.1 50.35 L54.1 37.85 56.85 63.6 45.6 75.1 38.85 77.6 Q40.4 74.6 40.75 71.05 41.45 64.0 35.35 61.35 29.25 58.7 21.8 60.9 L15.6 63.6 Q11.35 63.75 2.8 61.55 -14.35 57.25 -35.9 45.85 -57.45 34.45 -73.85 13.5 -78.95 7.0 -82.95 0.25 L-85.9 -5.15 -69.65 -1.7 -53.4 1.6 Q-19.9 23.35 19.85 21.1 59.65 5.0 79.6 41.85 L70.85 56.35 58.1 50.35" fill="#bf7926" fill-rule="evenodd" stroke="none"/>
    <path d="M-85.9 -5.15 L-69.65 -1.7 -53.4 1.6 Q-19.9 23.35 19.85 21.1 26.9 18.25 33.4 17.05 39.1 19.25 44.85 23.1 34.05 24.55 22.35 31.35 L44.6 45.1 17.1 45.85 32.35 55.35 2.6 54.1 6.15 62.35 2.8 61.55 Q-14.35 57.25 -35.9 45.85 -57.45 34.45 -73.85 13.5 -78.95 7.0 -82.95 0.25 L-85.9 -5.15" fill="#884426" fill-rule="evenodd" stroke="none"/>
    <path d="M41.65 -76.85 L44.35 -78.25 Q47.75 -79.75 51.15 -80.15 62.0 -81.55 68.65 -72.05 75.95 -61.65 68.05 -43.0 64.85 -35.45 60.2 -29.75 55.4 -24.0 50.9 -22.45 43.3 -19.85 38.9 -21.8 37.5 -22.45 36.6 -23.45 L35.95 -24.35 Q35.7 -24.4 41.65 -76.85" fill="#ffffff" fill-rule="evenodd" stroke="none"/>
    <path d="M41.65 -76.85 Q35.7 -24.4 35.95 -24.35 L36.6 -23.45 Q37.5 -22.45 38.9 -21.8 43.3 -19.85 50.9 -22.45 55.4 -24.0 60.2 -29.75 64.85 -35.45 68.05 -43.0 75.95 -61.65 68.65 -72.05 62.0 -81.55 51.15 -80.15 47.75 -79.75 44.35 -78.25 L41.65 -76.85 Z" fill="none" stroke="#3c190a" stroke-linecap="square" stroke-linejoin="miter" stroke-miterlimit="3.0" stroke-width="9.0"/>
    <path d="M41.65 -76.85 L44.35 -78.25 Q47.75 -79.75 51.15 -80.15 62.0 -81.55 68.65 -72.05 75.95 -61.65 68.05 -43.0 64.85 -35.45 60.2 -29.75 55.4 -24.0 50.9 -22.45 43.3 -19.85 38.9 -21.8 37.5 -22.45 36.6 -23.45 L35.95 -24.35 Q35.7 -24.4 41.65 -76.85" fill="#70381f" fill-rule="evenodd" stroke="none"/>
    <path d="M47.4 -55.15 Q61.25 -69.1 71.2 -66.8 74.1 -57.3 68.05 -43.0 64.85 -35.45 60.2 -29.75 55.4 -24.0 50.9 -22.45 43.3 -19.85 38.9 -21.8 37.5 -22.45 36.6 -23.45 L35.95 -24.35 37.15 -36.65 38.25 -44.1 40.6 -47.3 Q43.85 -51.55 47.4 -55.15" fill="#bf7926" fill-rule="evenodd" stroke="none"/>
    <path d="M48.1 -119.9 Q47.95 -97.75 46.2 -73.9 42.65 -26.15 34.75 -17.4 25.9 -7.6 8.35 -1.3 -7.75 4.5 -27.45 6.15 -46.65 7.8 -63.1 5.1 -80.3 2.3 -88.95 -4.4 L-89.55 -4.85 -90.25 -4.25 Q-96.8 1.0 -106.3 0.3 -112.35 -0.2 -119.55 -4.75 -127.35 -9.65 -132.85 -17.0 -141.05 -28.0 -141.05 -39.05 -141.1 -47.1 -136.75 -55.05 -131.15 -65.45 -120.7 -63.4 L-118.05 -62.75 -122.95 -77.3 -126.4 -88.65 -89.45 -118.4 48.1 -119.9" fill="#ffffff" fill-rule="evenodd" stroke="none"/>
    <path d="M48.1 -119.9 L-89.45 -118.4 -126.4 -88.65 -122.95 -77.3 -118.05 -62.75 -120.7 -63.4 Q-131.15 -65.45 -136.75 -55.05 -141.1 -47.1 -141.05 -39.05 -141.05 -28.0 -132.85 -17.0 -127.35 -9.65 -119.55 -4.75 -112.35 -0.2 -106.3 0.3 -96.8 1.0 -90.25 -4.25 L-89.55 -4.85 -88.95 -4.4 Q-80.3 2.3 -63.1 5.1 -46.65 7.8 -27.45 6.15 -7.75 4.5 8.35 -1.3 25.9 -7.6 34.75 -17.4 42.65 -26.15 46.2 -73.9 47.95 -97.75 48.1 -119.9 Z" fill="none" stroke="#3c190a" stroke-linecap="square" stroke-linejoin="miter" stroke-miterlimit="3.0" stroke-width="9.0"/>
    <path d="M-111.5 -59.4 L-85.65 -9.65 Q-87.05 -6.9 -90.25 -4.25 -96.8 1.0 -106.3 0.3 -112.35 -0.2 -119.55 -4.75 -127.35 -9.65 -132.85 -17.0 -141.05 -28.0 -141.05 -39.05 -141.1 -47.1 -136.75 -55.05 -131.15 -65.45 -120.7 -63.4 -115.55 -62.4 -111.5 -59.4" fill="#70381f" fill-rule="evenodd" stroke="none"/>
    <path d="M-90.25 -4.25 Q-96.8 1.0 -106.3 0.3 -112.35 -0.2 -119.55 -4.75 -127.35 -9.65 -132.85 -17.0 -137.0 -22.55 -139.05 -28.1 -137.85 -32.85 -134.75 -37.35 -128.3 -47.15 -115.9 -44.45 -109.65 -43.1 -104.8 -39.85 L-85.7 -9.55 Q-87.1 -6.85 -90.25 -4.25" fill="#bf7926" fill-rule="evenodd" stroke="none"/>
    <path d="M34.75 -17.4 Q25.9 -7.6 8.35 -1.3 -7.75 4.5 -27.45 6.15 -46.65 7.8 -63.1 5.1 -80.3 2.3 -88.95 -4.4 -99.45 -12.5 -114.0 -51.4 -118.5 -63.55 -122.95 -77.3 L-126.4 -88.65 -89.45 -118.4 48.1 -119.9 Q47.95 -97.75 46.2 -73.9 42.65 -26.15 34.75 -17.4" fill="#884426" fill-rule="evenodd" stroke="none"/>
    <path d="M42.2 -91.75 Q43.2 -83.0 43.45 -75.15 44.2 -50.0 37.3 -43.15 30.4 -36.25 23.45 -33.9 21.3 -33.15 19.35 -32.95 L17.9 -32.9 24.0 -8.6 Q17.3 -4.5 8.35 -1.3 -7.75 4.5 -27.45 6.15 -46.65 7.8 -63.1 5.1 L-68.65 4.05 -60.8 -23.9 Q-63.55 -22.45 -68.85 -22.05 -79.4 -21.25 -91.95 -26.4 -104.55 -31.55 -109.4 -56.85 -110.95 -64.75 -111.6 -73.75 L-111.85 -81.15 -35.2 -90.1 41.3 -98.9 42.2 -91.75" fill="#bf7926" fill-rule="evenodd" stroke="none"/>
    <path d="M-68.5 -54.65 Q-66.8 -58.9 -64.2 -58.9 -61.6 -58.9 -59.6 -54.65 -57.6 -50.4 -57.4 -44.4 -57.2 -38.4 -58.95 -34.15 -60.65 -29.9 -63.25 -29.9 -65.85 -29.9 -67.85 -34.15 -69.8 -38.4 -70.0 -44.4 -70.2 -50.4 -68.5 -54.65" fill="#000000" fill-rule="evenodd" stroke="none"/>
    <path d="M-60.4 -44.55 Q-60.95 -42.9 -61.8 -42.9 -62.65 -42.9 -63.25 -44.55 -63.8 -46.2 -63.8 -48.55 -63.8 -50.9 -63.25 -52.55 -62.65 -54.2 -61.8 -54.2 -60.95 -54.2 -60.4 -52.55 -59.8 -50.9 -59.8 -48.55 -59.8 -46.2 -60.4 -44.55" fill="#ffffff" fill-rule="evenodd" stroke="none"/>
    <path d="M12.75 -63.95 Q14.25 -67.95 16.7 -67.95 19.15 -67.95 21.1 -63.95 23.1 -59.95 23.45 -54.3 23.8 -48.65 22.3 -44.65 20.85 -40.7 18.4 -40.7 15.95 -40.7 13.95 -44.65 12.0 -48.65 11.65 -54.3 11.3 -59.95 12.75 -63.95" fill="#000000" fill-rule="evenodd" stroke="none"/>
    <path d="M20.55 -54.45 Q20.1 -52.9 19.3 -52.9 18.5 -52.9 17.85 -54.45 17.3 -56.0 17.25 -58.2 17.15 -60.4 17.6 -61.95 18.2 -63.5 19.0 -63.5 19.8 -63.5 20.3 -61.95 20.9 -60.4 21.0 -58.2 21.05 -56.0 20.55 -54.45" fill="#ffffff" fill-rule="evenodd" stroke="none"/>
    <path d="M-10.0 -20.9 Q-12.2 -13.35 -16.7 -6.35 -25.7 7.55 -37.15 4.6 -48.6 1.65 -47.05 -13.3 -46.55 -18.0 -44.85 -23.3 L-43.2 -27.65 Q-30.55 -12.5 -10.0 -20.9" fill="#8a1d00" fill-rule="evenodd" stroke="none"/>
    <path d="M-43.2 -27.65 Q-31.55 -13.7 -13.3 -19.65 -15.15 -14.2 -18.3 -9.15 -35.2 -6.55 -46.4 -17.45 L-44.85 -23.3 -43.2 -27.65" fill="#ffffff" fill-rule="evenodd" stroke="none"/>
    <path d="M-37.15 4.6 Q-46.5 2.2 -47.15 -8.2 -42.7 -8.45 -37.4 -6.75 -29.65 -4.35 -24.75 0.65 L-23.75 1.7 Q-29.95 6.45 -37.15 4.6" fill="#d74533" fill-rule="evenodd" stroke="none"/>
    <path d="M-138.7 -61.2 L-128.3 -66.4 -131.5 -67.2 -138.7 -61.2 M83.65 -142.7 L98.1 -147.75 100.7 -140.15 87.3 -135.5 87.6 -134.65 88.65 -130.6 106.05 -140.85 110.1 -133.95 88.5 -121.25 Q87.35 -116.05 83.85 -111.05 L100.05 -114.05 101.5 -106.2 74.45 -101.15 Q68.4 -96.2 59.85 -91.4 L81.0 -90.75 80.75 -82.75 44.5 -83.9 Q35.1 -79.85 24.4 -76.45 L43.75 -69.55 41.05 -62.0 11.2 -72.65 Q0.8 -70.0 -10.55 -67.85 L9.0 -51.05 3.8 -45.0 -20.8 -66.05 -29.75 -64.75 -33.45 -64.25 -19.65 -40.7 -26.55 -36.65 -42.1 -63.2 -49.05 -62.5 -36.0 -36.6 -43.15 -33.0 -57.7 -61.85 -72.2 -61.2 -77.05 -48.25 -84.55 -51.05 -80.75 -61.15 -84.9 -61.25 -94.55 -41.55 -101.75 -45.05 -93.65 -61.6 -96.75 -61.8 -104.2 -40.55 -111.75 -43.2 -104.95 -62.5 -115.45 -63.9 -143.15 -50.0 -145.8 -55.3 -154.9 -47.75 -160.0 -53.9 -140.7 -69.9 Q-144.15 -71.1 -147.25 -72.45 L-160.75 -55.5 -167.0 -60.5 -154.6 -76.1 Q-157.45 -77.75 -159.85 -79.5 L-185.05 -61.55 -189.7 -68.05 -166.0 -84.95 Q-169.55 -88.8 -171.6 -93.2 L-201.05 -74.1 -205.4 -80.8 -174.15 -101.1 -174.15 -101.15 Q-175.25 -107.4 -174.4 -112.35 L-195.3 -114.6 -194.45 -122.55 -171.4 -120.05 Q-169.1 -123.6 -165.2 -126.1 -157.1 -131.25 -141.0 -132.65 L-153.5 -138.8 -149.95 -146.0 -126.1 -134.15 -135.25 -146.15 -128.9 -151.0 -122.35 -142.45 -127.4 -150.7 -120.55 -154.9 -106.95 -132.5 -106.2 -132.45 -121.3 -159.95 -114.3 -163.8 -96.8 -131.95 -87.95 -131.4 Q-57.15 -129.4 -42.15 -130.15 -24.7 -131.0 0.1 -137.9 L5.85 -139.5 29.15 -169.75 35.45 -164.85 18.8 -143.2 24.05 -144.75 47.85 -168.8 53.5 -163.15 39.85 -149.35 45.8 -150.7 70.15 -165.9 74.35 -159.1 63.9 -152.6 69.4 -151.95 Q71.5 -151.5 73.4 -150.75 L89.3 -158.2 92.7 -150.95 81.25 -145.6 83.65 -142.7" fill="#ffffff" fill-rule="evenodd" stroke="none"/>
    <path d="M83.65 -142.7 L81.25 -145.6 92.7 -150.95 89.3 -158.2 73.4 -150.75 Q71.5 -151.5 69.4 -151.95 L63.9 -152.6 74.35 -159.1 70.15 -165.9 45.8 -150.7 39.85 -149.35 53.5 -163.15 47.85 -168.8 24.05 -144.75 18.8 -143.2 35.45 -164.85 29.15 -169.75 5.85 -139.5 0.1 -137.9 Q-24.7 -131.0 -42.15 -130.15 -57.15 -129.4 -87.95 -131.4 L-96.8 -131.95 -114.3 -163.8 -121.3 -159.95 -106.2 -132.45 -106.95 -132.5 -120.55 -154.9 -127.4 -150.7 -122.35 -142.45 -128.9 -151.0 -135.25 -146.15 -126.1 -134.15 -149.95 -146.0 -153.5 -138.8 -141.0 -132.65 Q-157.1 -131.25 -165.2 -126.1 -169.1 -123.6 -171.4 -120.05 L-194.45 -122.55 -195.3 -114.6 -174.4 -112.35 Q-175.25 -107.4 -174.15 -101.15 L-174.15 -101.1 -205.4 -80.8 -201.05 -74.1 -171.6 -93.2 Q-169.55 -88.8 -166.0 -84.95 L-189.7 -68.05 -185.05 -61.55 -159.85 -79.5 Q-157.45 -77.75 -154.6 -76.1 L-167.0 -60.5 -160.75 -55.5 -147.25 -72.45 Q-144.15 -71.1 -140.7 -69.9 L-160.0 -53.9 -154.9 -47.75 -145.8 -55.3 -143.15 -50.0 -115.45 -63.9 -104.95 -62.5 -111.75 -43.2 -104.2 -40.55 -96.75 -61.8 -93.65 -61.6 -101.75 -45.05 -94.55 -41.55 -84.9 -61.25 -80.75 -61.15 -84.55 -51.05 -77.05 -48.25 -72.2 -61.2 -57.7 -61.85 -43.15 -33.0 -36.0 -36.6 -49.05 -62.5 -42.1 -63.2 -26.55 -36.65 -19.65 -40.7 -33.45 -64.25 -29.75 -64.75 -20.8 -66.05 3.8 -45.0 9.0 -51.05 -10.55 -67.85 Q0.8 -70.0 11.2 -72.65 L41.05 -62.0 43.75 -69.55 24.4 -76.45 Q35.1 -79.85 44.5 -83.9 L80.75 -82.75 81.0 -90.75 59.85 -91.4 Q68.4 -96.2 74.45 -101.15 L101.5 -106.2 100.05 -114.05 83.85 -111.05 Q87.35 -116.05 88.5 -121.25 L110.1 -133.95 106.05 -140.85 88.65 -130.6 87.6 -134.65 87.3 -135.5 100.7 -140.15 98.1 -147.75 83.65 -142.7 M-138.7 -61.2 L-131.5 -67.2 -128.3 -66.4 -138.7 -61.2" fill="none" stroke="#80541e" stroke-linecap="square" stroke-linejoin="miter" stroke-miterlimit="3.0" stroke-width="9.0"/>
    <path d="M-138.7 -61.2 L-128.3 -66.4 -131.5 -67.2 -138.7 -61.2 M83.65 -142.7 L98.1 -147.75 100.7 -140.15 87.3 -135.5 87.6 -134.65 88.65 -130.6 106.05 -140.85 110.1 -133.95 88.5 -121.25 Q87.35 -116.05 83.85 -111.05 L100.05 -114.05 101.5 -106.2 74.45 -101.15 Q68.4 -96.2 59.85 -91.4 L81.0 -90.75 80.75 -82.75 44.5 -83.9 Q35.1 -79.85 24.4 -76.45 L43.75 -69.55 41.05 -62.0 11.2 -72.65 Q0.8 -70.0 -10.55 -67.85 L9.0 -51.05 3.8 -45.0 -20.8 -66.05 -29.75 -64.75 -33.45 -64.25 -19.65 -40.7 -26.55 -36.65 -42.1 -63.2 -49.05 -62.5 -36.0 -36.6 -43.15 -33.0 -57.7 -61.85 -72.2 -61.2 -77.05 -48.25 -84.55 -51.05 -80.75 -61.15 -84.9 -61.25 -94.55 -41.55 -101.75 -45.05 -93.65 -61.6 -96.75 -61.8 -104.2 -40.55 -111.75 -43.2 -104.95 -62.5 -115.45 -63.9 -143.15 -50.0 -145.8 -55.3 -154.9 -47.75 -160.0 -53.9 -140.7 -69.9 Q-144.15 -71.1 -147.25 -72.45 L-160.75 -55.5 -167.0 -60.5 -154.6 -76.1 Q-157.45 -77.75 -159.85 -79.5 L-185.05 -61.55 -189.7 -68.05 -166.0 -84.95 Q-169.55 -88.8 -171.6 -93.2 L-201.05 -74.1 -205.4 -80.8 -174.15 -101.1 -174.15 -101.15 Q-175.25 -107.4 -174.4 -112.35 L-195.3 -114.6 -194.45 -122.55 -171.4 -120.05 Q-169.1 -123.6 -165.2 -126.1 -157.1 -131.25 -141.0 -132.65 L-153.5 -138.8 -149.95 -146.0 -126.1 -134.15 -135.25 -146.15 -128.9 -151.0 -122.35 -142.45 -127.4 -150.7 -120.55 -154.9 -106.95 -132.5 -106.2 -132.45 -121.3 -159.95 -114.3 -163.8 -96.8 -131.95 -87.95 -131.4 Q-57.15 -129.4 -42.15 -130.15 -24.7 -131.0 0.1 -137.9 L5.85 -139.5 29.15 -169.75 35.45 -164.85 18.8 -143.2 24.05 -144.75 47.85 -168.8 53.5 -163.15 39.85 -149.35 45.8 -150.7 70.15 -165.9 74.35 -159.1 63.9 -152.6 69.4 -151.95 Q71.5 -151.5 73.4 -150.75 L89.3 -158.2 92.7 -150.95 81.25 -145.6 83.65 -142.7" fill="#d0a067" fill-rule="evenodd" stroke="none"/>
    <path d="M41.45 -158.45 L45.9 -151.8 28.85 -140.3 31.15 -134.85 52.6 -133.65 52.15 -125.65 34.4 -126.65 Q37.0 -119.75 39.1 -112.9 -58.75 -70.45 -123.9 -100.4 -122.15 -109.05 -119.85 -117.9 L-140.7 -121.05 -139.5 -128.95 -117.75 -125.65 -117.6 -126.2 -127.55 -136.5 -121.8 -142.05 -114.95 -134.95 -113.65 -138.9 -123.7 -161.15 -116.4 -164.45 -109.6 -149.4 Q-104.55 -160.75 -99.9 -162.65 L-98.25 -163.25 -96.9 -187.85 -88.9 -187.4 -90.15 -164.45 -87.55 -164.3 Q-83.6 -163.85 -76.4 -161.35 L-74.4 -160.65 -65.05 -180.45 -57.8 -177.05 -60.6 -171.1 -54.0 -173.15 -49.5 -158.65 -45.2 -159.85 -37.2 -178.15 -29.85 -174.95 -34.8 -163.7 -24.55 -167.95 Q-19.45 -169.85 -14.25 -170.85 L-25.55 -181.45 -20.05 -187.3 -3.8 -172.0 5.1 -171.65 Q10.7 -171.05 17.05 -162.15 L37.2 -174.4 41.35 -167.55 21.35 -155.4 25.45 -147.65 41.45 -158.45 M-57.5 -157.45 L-61.3 -169.7 -66.65 -158.35 -64.65 -157.95 -57.5 -157.45" fill="#ffffff" fill-rule="evenodd" stroke="none"/>
    <path d="M41.45 -158.45 L25.45 -147.65 21.35 -155.4 41.35 -167.55 37.2 -174.4 17.05 -162.15 Q10.7 -171.05 5.1 -171.65 L-3.8 -172.0 -20.05 -187.3 -25.55 -181.45 -14.25 -170.85 Q-19.45 -169.85 -24.55 -167.95 L-34.8 -163.7 -29.85 -174.95 -37.2 -178.15 -45.2 -159.85 -49.5 -158.65 -54.0 -173.15 -60.6 -171.1 -57.8 -177.05 -65.05 -180.45 -74.4 -160.65 -76.4 -161.35 Q-83.6 -163.85 -87.55 -164.3 L-90.15 -164.45 -88.9 -187.4 -96.9 -187.85 -98.25 -163.25 -99.9 -162.65 Q-104.55 -160.75 -109.6 -149.4 L-116.4 -164.45 -123.7 -161.15 -113.65 -138.9 -114.95 -134.95 -121.8 -142.05 -127.55 -136.5 -117.6 -126.2 -117.75 -125.65 -139.5 -128.95 -140.7 -121.05 -119.85 -117.9 Q-122.15 -109.05 -123.9 -100.4 -58.75 -70.45 39.1 -112.9 37.0 -119.75 34.4 -126.65 L52.15 -125.65 52.6 -133.65 31.15 -134.85 28.85 -140.3 45.9 -151.8 41.45 -158.45 M-57.5 -157.45 L-61.3 -169.7 -66.65 -158.35 -64.65 -157.95 -57.5 -157.45" fill="none" stroke="#80541e" stroke-linecap="square" stroke-linejoin="miter" stroke-miterlimit="3.0" stroke-width="9.0"/>
    <path d="M41.45 -158.45 L45.9 -151.8 28.85 -140.3 31.15 -134.85 52.6 -133.65 52.15 -125.65 34.4 -126.65 Q37.0 -119.75 39.1 -112.9 -58.75 -70.45 -123.9 -100.4 -122.15 -109.05 -119.85 -117.9 L-140.7 -121.05 -139.5 -128.95 -117.75 -125.65 -117.6 -126.2 -127.55 -136.5 -121.8 -142.05 -114.95 -134.95 -113.65 -138.9 -123.7 -161.15 -116.4 -164.45 -109.6 -149.4 Q-104.55 -160.75 -99.9 -162.65 L-98.25 -163.25 -96.9 -187.85 -88.9 -187.4 -90.15 -164.45 -87.55 -164.3 Q-83.6 -163.85 -76.4 -161.35 L-74.4 -160.65 -65.05 -180.45 -57.8 -177.05 -60.6 -171.1 -54.0 -173.15 -49.5 -158.65 -45.2 -159.85 -37.2 -178.15 -29.85 -174.95 -34.8 -163.7 -24.55 -167.95 Q-19.45 -169.85 -14.25 -170.85 L-25.55 -181.45 -20.05 -187.3 -3.8 -172.0 5.1 -171.65 Q10.7 -171.05 17.05 -162.15 L37.2 -174.4 41.35 -167.55 21.35 -155.4 25.45 -147.65 41.45 -158.45 M-57.5 -157.45 L-61.3 -169.7 -66.65 -158.35 -64.65 -157.95 -57.5 -157.45" fill="#d0a067" fill-rule="evenodd" stroke="none"/>
    <path d="M-120.45 -115.55 Q-57.35 -98.45 32.85 -130.65 36.35 -121.75 39.1 -112.9 -58.75 -70.45 -123.9 -100.4 L-120.45 -115.55" fill="#70381f" fill-rule="evenodd" stroke="none"/>
    <path d="M14.3 -165.7 Q6.3 -160.55 -3.3 -155.1 -31.75 -139.05 -49.4 -136.4 -67.05 -133.75 -90.0 -145.45 -97.15 -149.1 -104.0 -153.75 L-106.5 -155.55 Q-103.1 -161.35 -99.9 -162.65 -93.85 -165.05 -87.55 -164.3 -83.6 -163.85 -76.4 -161.35 -68.65 -158.65 -64.65 -157.95 L-50.65 -158.4 Q-44.25 -159.9 -36.7 -162.95 L-24.55 -167.95 Q-10.25 -173.3 5.1 -171.65 9.45 -171.2 14.3 -165.7" fill="#e9b26f" fill-rule="evenodd" stroke="none"/>
    <path d="M-82.25 126.55 L-79.9 123.1 -76.9 142.6 -68.65 128.85 -64.65 145.6 -57.9 135.05 -56.4 142.85 Q-62.6 174.75 -78.15 201.6 L-107.9 192.1 -92.15 171.1 -108.4 187.1 -130.15 172.35 Q-104.8 155.2 -81.15 130.35 L-82.25 126.55" fill="#bf7926" fill-rule="evenodd" stroke="none"/>
    <path d="M39.85 118.6 L60.85 113.6 59.6 137.6 Q22.85 144.85 -6.15 138.35 L-5.55 125.5 -1.4 117.1 8.35 130.35 8.6 111.85 15.85 117.1 16.15 112.45 Q17.2 109.35 16.85 103.85 34.65 103.7 55.85 94.1 L58.35 111.6 39.85 118.6" fill="#bf7926" fill-rule="evenodd" stroke="none"/>
    <path d="M175.45 -178.1 L174.85 -176.1 168.65 -174.4 171.45 -179.45 175.45 -178.1 M189.65 -140.85 L189.75 -141.7 189.7 -141.6 189.75 -147.05 186.1 -162.75 Q182.25 -173.65 175.4 -176.2 L175.5 -176.25 176.0 -178.15 176.05 -178.2 189.6 -178.7 Q192.8 -178.2 195.3 -176.9 199.0 -175.3 201.35 -172.2 210.3 -161.1 199.6 -147.05 196.85 -143.4 192.8 -139.85 L189.65 -140.85" fill="#ffffff" fill-rule="evenodd" stroke="none"/>
    <path d="M189.65 -140.85 L192.8 -139.85 Q196.85 -143.4 199.6 -147.05 210.3 -161.1 201.35 -172.2 199.0 -175.3 195.3 -176.9 192.8 -178.2 189.6 -178.7 L176.05 -178.2 176.0 -178.15 175.5 -176.25 175.4 -176.2 Q182.25 -173.65 186.1 -162.75 L189.75 -147.05 189.7 -141.6 189.75 -141.7 189.65 -140.85 M175.45 -178.1 L171.45 -179.45 168.65 -174.4 174.85 -176.1 175.45 -178.1" fill="none" stroke="#856301" stroke-linecap="round" stroke-linejoin="round" stroke-width="9.0"/>
    <path d="M189.75 -141.7 L189.7 -141.6 189.75 -147.05 186.1 -162.75 Q182.25 -173.65 175.4 -176.2 L175.5 -176.25 176.0 -178.15 Q191.35 -177.75 195.5 -165.45 199.7 -152.95 189.75 -141.7" fill="#ffcc33" fill-rule="evenodd" stroke="none"/>
    <path d="M176.0 -178.15 L176.05 -178.2 189.6 -178.7 Q192.8 -178.2 195.3 -176.9 199.0 -175.3 201.35 -172.2 210.3 -161.1 199.6 -147.05 196.85 -143.4 192.8 -139.85 L189.65 -140.85 189.75 -141.7 Q199.7 -152.95 195.5 -165.45 191.35 -177.75 176.0 -178.15 M174.85 -176.1 L168.65 -174.4 171.45 -179.45 175.45 -178.1 174.85 -176.1" fill="#cd960d" fill-rule="evenodd" stroke="none"/>
    <path d="M156.35 -160.4 L157.95 -161.8 164.15 -160.0 159.15 -157.15 156.35 -160.4 M163.7 -199.55 L163.2 -198.9 163.3 -198.95 160.35 -194.3 155.3 -179.05 Q152.95 -167.75 157.45 -162.0 L157.35 -161.95 155.9 -160.65 155.8 -160.65 Q148.55 -163.2 144.05 -167.25 141.55 -169.35 140.05 -171.8 137.75 -175.05 137.35 -178.95 135.55 -193.1 152.0 -199.5 156.3 -201.15 161.55 -202.05 L163.7 -199.55" fill="#ffffff" fill-rule="evenodd" stroke="none"/>
    <path d="M163.7 -199.55 L161.55 -202.05 Q156.3 -201.15 152.0 -199.5 135.55 -193.1 137.35 -178.95 137.75 -175.05 140.05 -171.8 141.55 -169.35 144.05 -167.25 148.55 -163.2 155.8 -160.65 L155.9 -160.65 157.35 -161.95 157.45 -162.0 Q152.95 -167.75 155.3 -179.05 L160.35 -194.3 163.3 -198.95 163.2 -198.9 163.7 -199.55 M156.35 -160.4 L159.15 -157.15 164.15 -160.0 157.95 -161.8 156.35 -160.4" fill="none" stroke="#856301" stroke-linecap="round" stroke-linejoin="round" stroke-width="9.0"/>
    <path d="M163.2 -198.9 L163.3 -198.95 160.35 -194.3 155.3 -179.05 Q152.95 -167.75 157.45 -162.0 L157.35 -161.95 155.9 -160.65 Q143.0 -169.0 145.9 -181.65 148.85 -194.45 163.2 -198.9" fill="#ffcc33" fill-rule="evenodd" stroke="none"/>
    <path d="M155.9 -160.65 L155.8 -160.65 Q148.55 -163.2 144.05 -167.25 141.55 -169.35 140.05 -171.8 137.75 -175.05 137.35 -178.95 135.55 -193.1 152.0 -199.5 156.3 -201.15 161.55 -202.05 L163.7 -199.55 163.2 -198.9 Q148.85 -194.45 145.9 -181.65 143.0 -169.0 155.9 -160.65 M157.95 -161.8 L164.15 -160.0 159.15 -157.15 156.35 -160.4 157.95 -161.8" fill="#cd960d" fill-rule="evenodd" stroke="none"/>
  </g>
</svg>
