<?xml version="1.0" encoding="UTF-8" standalone="no"?>
<svg xmlns:xlink="http://www.w3.org/1999/xlink" height="628.2px" width="549.85px" xmlns="http://www.w3.org/2000/svg">
  <g transform="matrix(1.0, 0.0, 0.0, 1.0, 289.3, 334.0)">
    <path d="M88.35 -4.1 L95.0 -4.05 Q107.05 -3.65 123.1 -0.9 132.4 0.7 143.3 6.85 153.5 12.55 163.3 21.15 172.85 29.55 179.85 38.65 187.0 48.05 189.7 55.95 194.3 69.35 196.35 88.0 198.15 104.75 197.7 123.55 197.25 140.95 194.95 156.15 192.7 171.1 189.4 179.45 184.6 191.45 175.55 200.3 166.75 208.9 151.85 216.65 139.55 223.0 117.4 225.7 L103.4 226.9 97.7 227.15 86.2 -3.95 88.35 -4.1" fill="#ffffff" fill-rule="evenodd" stroke="none"/>
    <path d="M88.35 -4.1 L86.2 -3.95 97.7 227.15 103.4 226.9 117.4 225.7 Q139.55 223.0 151.85 216.65 166.75 208.9 175.55 200.3 184.6 191.45 189.4 179.45 192.7 171.1 194.95 156.15 197.25 140.95 197.7 123.55 198.15 104.75 196.35 88.0 194.3 69.35 189.7 55.95 187.0 48.05 179.85 38.65 172.85 29.55 163.3 21.15 153.5 12.55 143.3 6.85 132.4 0.7 123.1 -0.9 107.05 -3.65 95.0 -4.05 L88.35 -4.1 Z" fill="none" stroke="#3c190a" stroke-linecap="round" stroke-linejoin="miter" stroke-miterlimit="3.0" stroke-width="9.0"/>
    <path d="M88.35 -4.1 L95.0 -4.05 Q107.05 -3.65 123.1 -0.9 132.4 0.7 143.3 6.85 153.5 12.55 163.3 21.15 172.85 29.55 179.85 38.65 187.0 48.05 189.7 55.95 194.3 69.35 196.35 88.0 198.15 104.75 197.7 123.55 197.25 140.95 194.95 156.15 192.7 171.1 189.4 179.45 184.6 191.45 175.55 200.3 166.75 208.9 151.85 216.65 139.55 223.0 117.4 225.7 L103.4 226.9 97.7 227.15 86.2 -3.95 88.35 -4.1" fill="#70381f" fill-rule="evenodd" stroke="none"/>
    <path d="M-92.6 73.45 Q-89.7 74.7 -79.8 79.75 -71.6 83.95 -66.45 85.5 -58.9 87.7 -52.35 86.4 -40.2 83.95 -20.55 69.55 -10.75 62.4 -3.3 55.6 L-7.9 86.45 -12.45 117.55 -92.85 161.35 -108.2 125.7 Q-102.4 124.35 -96.9 116.9 L-97.6 119.5 Q-98.25 122.55 -97.4 125.05 -96.6 127.55 -88.15 128.9 L-79.85 129.75 -87.0 128.2 Q-94.35 126.0 -95.2 122.9 -95.8 120.55 -92.85 111.15 -90.8 104.8 -87.8 96.9 -90.7 103.65 -94.4 109.75 -104.55 126.25 -112.25 120.55 -116.75 117.25 -118.7 109.1 -120.55 101.45 -119.55 92.7 -118.5 83.7 -114.95 77.85 -110.95 71.3 -105.1 70.95 -99.65 70.65 -92.6 73.45" fill="#ffffff" fill-rule="evenodd" stroke="none"/>
    <path d="M-92.6 73.45 Q-99.65 70.65 -105.1 70.95 -110.95 71.3 -114.95 77.85 -118.5 83.7 -119.55 92.7 -120.55 101.45 -118.7 109.1 -116.75 117.25 -112.25 120.55 -104.55 126.25 -94.4 109.75 -90.7 103.65 -87.8 96.9 -90.8 104.8 -92.85 111.15 -95.8 120.55 -95.2 122.9 -94.35 126.0 -87.0 128.2 L-79.85 129.75 -88.15 128.9 Q-96.6 127.55 -97.4 125.05 -98.25 122.55 -97.6 119.5 L-96.9 116.9 Q-102.4 124.35 -108.2 125.7 L-92.85 161.35 -12.45 117.55 -7.9 86.45 -3.3 55.6 Q-10.75 62.4 -20.55 69.55 -40.2 83.95 -52.35 86.4 -58.9 87.7 -66.45 85.5 -71.6 83.95 -79.8 79.75 -89.7 74.7 -92.6 73.45 Z" fill="none" stroke="#416409" stroke-linecap="round" stroke-linejoin="miter" stroke-miterlimit="3.0" stroke-width="9.0"/>
    <path d="M-92.6 73.45 Q-89.7 74.7 -79.8 79.75 -71.6 83.95 -66.45 85.5 -58.9 87.7 -52.35 86.4 -40.2 83.95 -20.55 69.55 -10.75 62.4 -3.3 55.6 L-7.9 86.45 -12.45 117.55 -92.85 161.35 -108.2 125.7 Q-102.4 124.35 -96.9 116.9 L-97.6 119.5 Q-98.25 122.55 -97.4 125.05 -96.6 127.55 -88.15 128.9 L-79.85 129.75 -87.0 128.2 Q-94.35 126.0 -95.2 122.9 -95.8 120.55 -92.85 111.15 -90.8 104.8 -87.8 96.9 -90.7 103.65 -94.4 109.75 -104.55 126.25 -112.25 120.55 -116.75 117.25 -118.7 109.1 -120.55 101.45 -119.55 92.7 -118.5 83.7 -114.95 77.85 -110.95 71.3 -105.1 70.95 -99.65 70.65 -92.6 73.45" fill="#7cb421" fill-rule="evenodd" stroke="none"/>
    <path d="M-58.2 86.9 L-52.35 86.4 Q-40.9 84.1 -22.8 71.2 -19.75 75.1 -19.45 80.2 -19.0 87.55 -24.5 93.05 -30.0 98.6 -38.15 99.1 -46.35 99.55 -52.45 94.7 -56.65 91.4 -58.2 86.9 M-39.55 132.3 L-71.1 149.5 -71.0 147.35 Q-70.3 137.25 -64.9 129.85 -59.6 122.4 -52.7 122.0 -45.85 121.55 -41.5 128.45 -40.35 130.2 -39.55 132.3" fill="#3f9306" fill-rule="evenodd" stroke="none"/>
    <path d="M-185.8 -22.1 Q-188.65 -27.9 -191.45 -31.0 -193.45 -32.95 -196.0 -33.15 -198.2 -32.6 -200.2 -30.5 -202.95 -27.25 -205.25 -21.0 -207.45 -14.65 -209.0 -8.3 -210.4 -1.5 -211.45 6.35 L-212.1 14.55 Q-213.05 35.7 -207.95 47.3 -202.3 61.1 -191.85 60.7 -181.1 60.0 -176.8 46.2 -172.45 34.15 -175.5 13.0 L-177.0 4.7 Q-178.25 -2.5 -180.95 -10.05 -183.0 -16.35 -185.8 -22.1" fill="#ffffff" fill-rule="evenodd" stroke="none"/>
    <path d="M-185.8 -22.1 Q-188.65 -27.9 -191.45 -31.0 -193.45 -32.95 -196.0 -33.15 -198.2 -32.6 -200.2 -30.5 -202.95 -27.25 -205.25 -21.0 -207.45 -14.65 -209.0 -8.3 -210.4 -1.5 -211.45 6.35 L-212.1 14.55 Q-213.05 35.7 -207.95 47.3 -202.3 61.1 -191.85 60.7 -181.1 60.0 -176.8 46.2 -172.45 34.15 -175.5 13.0 L-177.0 4.7 Q-178.25 -2.5 -180.95 -10.05 -183.0 -16.35 -185.8 -22.1 Z" fill="none" stroke="#23608e" stroke-linecap="square" stroke-linejoin="miter" stroke-miterlimit="3.0" stroke-width="9.0"/>
    <path d="M-191.45 -31.0 Q-193.45 -32.95 -196.0 -33.15 -198.2 -32.6 -200.2 -30.5 -202.95 -27.25 -205.25 -21.0 -207.45 -14.65 -209.0 -8.3 -210.4 -1.5 -211.45 6.35 L-212.1 14.55 Q-213.05 35.7 -207.95 47.3 -202.3 61.1 -191.85 60.7 -181.1 60.0 -176.8 46.2 -172.45 34.15 -175.5 13.0 L-177.0 4.7 Q-178.25 -2.5 -180.95 -10.05 -183.0 -16.35 -185.8 -22.1 -188.65 -27.9 -191.45 -31.0" fill="#339fff" fill-rule="evenodd" stroke="none"/>
    <path d="M-195.6 -41.25 L-196.4 -41.2 Q-198.8 -8.4 -195.6 25.5 L-190.8 25.3 Q-191.15 -8.05 -195.6 -41.25" fill="#2579c4" fill-rule="evenodd" stroke="none"/>
    <path d="M-198.5 -39.75 Q-199.15 -42.7 -201.0 -44.7 -203.05 -45.7 -205.7 -45.4 -209.5 -44.6 -214.4 -41.05 -219.3 -37.3 -223.65 -33.15 L-232.8 -22.75 -237.4 -16.45 Q-248.6 0.45 -250.2 13.5 -252.5 28.85 -243.95 35.8 -235.05 42.65 -224.8 34.1 -215.4 27.25 -207.4 7.7 L-204.5 -0.3 Q-202.0 -7.1 -200.45 -15.15 -198.95 -21.8 -198.35 -28.5 -197.8 -35.25 -198.5 -39.75" fill="#ffffff" fill-rule="evenodd" stroke="none"/>
    <path d="M-198.5 -39.75 Q-199.15 -42.7 -201.0 -44.7 -203.05 -45.7 -205.7 -45.4 -209.5 -44.6 -214.4 -41.05 -219.3 -37.3 -223.65 -33.15 L-232.8 -22.75 -237.4 -16.45 Q-248.6 0.45 -250.2 13.5 -252.5 28.85 -243.95 35.8 -235.05 42.65 -224.8 34.1 -215.4 27.25 -207.4 7.7 L-204.5 -0.3 Q-202.0 -7.1 -200.45 -15.15 -198.95 -21.8 -198.35 -28.5 -197.8 -35.25 -198.5 -39.75 Z" fill="none" stroke="#856301" stroke-linecap="square" stroke-linejoin="miter" stroke-miterlimit="3.0" stroke-width="9.0"/>
    <path d="M-214.4 -41.05 Q-219.3 -37.3 -223.65 -33.15 L-232.8 -22.75 -237.4 -16.45 Q-248.6 0.45 -250.2 13.5 -252.5 28.85 -243.95 35.8 -235.05 42.65 -224.8 34.1 -215.4 27.25 -207.4 7.7 L-204.5 -0.3 Q-202.0 -7.1 -200.45 -15.15 -198.95 -21.8 -198.35 -28.5 -197.8 -35.25 -198.5 -39.75 -199.15 -42.7 -201.0 -44.7 -203.05 -45.7 -205.7 -45.4 -209.5 -44.6 -214.4 -41.05" fill="#ffcc33" fill-rule="evenodd" stroke="none"/>
    <path d="M-195.8 -51.35 L-196.45 -51.9 Q-214.5 -26.4 -228.65 3.75 L-224.7 6.9 Q-208.55 -20.85 -195.8 -51.35" fill="#cd960d" fill-rule="evenodd" stroke="none"/>
    <path d="M-205.5 -63.5 L-87.65 231.05 Q-64.7 237.45 -55.55 217.5 L-184.45 -72.4 -205.5 -63.5" fill="#ffffff" fill-rule="evenodd" stroke="none"/>
    <path d="M-205.5 -63.5 L-87.65 231.05 Q-64.7 237.45 -55.55 217.5 L-184.45 -72.4 -205.5 -63.5 Z" fill="none" stroke="#5d3c16" stroke-linecap="square" stroke-linejoin="miter" stroke-miterlimit="3.0" stroke-width="9.0"/>
    <path d="M-205.5 -63.5 L-87.65 231.05 Q-64.7 237.45 -55.55 217.5 L-184.45 -72.4 -205.5 -63.5" fill="#d0a067" fill-rule="evenodd" stroke="none"/>
    <path d="M-184.35 -72.5 L-185.45 -72.05 -185.75 -72.8 Q-180.65 -63.15 -175.75 -52.9 L-184.35 -72.5 M-203.5 -64.4 L-183.45 -18.2 -108.1 155.35 Q-91.0 193.95 -74.7 232.6 L-73.9 232.55 -79.45 219.35 -126.05 110.9 Q-164.2 22.45 -202.4 -64.9 L-203.5 -64.4 M-173.5 -41.8 Q-174.05 -43.05 -174.25 -42.95 -174.7 -42.75 -173.9 -40.2 L-172.55 -35.8 Q-158.4 0.25 -141.95 35.95 L-140.85 38.15 -139.85 39.75 -139.3 40.4 -138.85 40.8 -138.65 40.7 -138.85 40.2 -139.35 38.4 Q-139.7 37.65 -139.75 36.2 L-140.15 35.2 -140.4 34.7 Q-140.6 34.2 -140.4 34.1 L-140.65 32.75 Q-142.45 28.5 -143.7 24.35 -145.55 17.5 -149.3 8.5 L-149.45 7.65 -149.65 7.15 -151.35 3.15 -152.4 0.65 Q-162.15 -22.5 -171.75 -39.65 L-172.3 -40.9 Q-172.75 -40.7 -173.05 -41.4 L-173.5 -41.8 M-189.1 -70.5 L-138.55 49.2 Q-130.0 68.8 -122.1 84.25 -119.05 90.3 -120.05 86.65 -123.2 70.35 -133.45 42.35 L-147.45 10.35 Q-142.75 22.15 -138.4 33.85 L-137.95 34.85 -137.55 35.85 Q-135.95 40.15 -134.85 44.7 L-132.35 51.3 -132.35 51.9 -131.85 53.15 -129.2 59.9 -128.4 62.5 -127.95 64.1 -126.45 69.65 -125.1 74.1 Q-129.55 65.35 -134.55 54.25 -162.15 -9.3 -187.95 -71.0 L-189.1 -70.5 M-195.4 -67.85 L-155.1 24.45 Q-122.9 98.15 -92.1 171.8 -79.4 201.95 -68.2 231.0 L-66.85 230.45 Q-87.7 177.3 -111.7 121.55 L-194.05 -68.4 -195.4 -67.85 M-112.45 90.8 L-114.35 85.1 -122.05 68.1 -116.95 82.05 Q-115.8 85.4 -115.0 89.2 -113.75 92.8 -112.85 96.85 L-112.65 97.9 Q-112.45 98.4 -112.7 98.5 L-112.15 99.75 -111.3 102.3 -110.8 103.55 -110.45 104.3 -109.6 106.3 -109.65 106.9 -109.15 108.15 Q-109.35 108.25 -109.0 109.0 L-108.05 111.25 -107.55 112.5 -107.8 113.2 -106.75 115.7 -106.3 116.7 -105.2 120.6 -104.55 122.1 Q-104.25 122.85 -104.25 123.45 -103.95 124.2 -103.95 124.8 L-98.1 139.9 Q-81.6 184.1 -64.35 228.8 L-63.65 228.5 Q-84.35 175.0 -102.65 125.4 -103.15 122.35 -104.8 117.75 -107.7 109.05 -109.5 101.55 -110.1 98.85 -110.85 97.1 L-111.45 94.5 Q-111.45 93.9 -112.45 90.8 M-170.55 -34.25 Q-170.05 -33.6 -169.8 -33.7 -168.05 -30.9 -166.6 -27.4 -162.9 -19.9 -159.3 -11.4 -151.4 6.15 -146.6 19.95 L-146.3 20.7 Q-145.2 23.2 -144.75 25.65 L-142.75 31.6 Q-157.9 -1.1 -170.8 -34.15 -171.0 -34.65 -170.75 -34.75 L-170.55 -34.25 M-103.4 173.9 Q-90.5 204.05 -78.95 232.6 L-77.0 232.7 -83.5 216.05 Q-102.05 173.35 -120.9 132.5 L-128.6 114.9 Q-142.05 83.6 -154.95 57.6 L-160.75 44.5 -173.4 15.7 -177.95 5.6 -176.45 9.05 -170.4 24.15 -169.85 25.4 -109.5 159.45 -103.4 173.9 M-62.1 202.6 L-63.35 199.6 -54.05 224.75 Q-55.1 221.7 -56.25 218.95 L-55.5 217.45 -62.1 202.6" fill="#8a5c28" fill-rule="evenodd" stroke="none"/>
    <path d="M-188.05 -109.45 L-143.35 -120.4 Q-272.4 -258.4 -275.15 -257.25 -277.65 -256.2 -267.45 -71.3 L-230.2 -95.5 -228.2 -50.2 Q-182.9 -33.8 -163.25 -75.25 L-188.05 -109.45" fill="#ffffff" fill-rule="evenodd" stroke="none"/>
    <path d="M-188.05 -109.45 L-163.25 -75.25 Q-182.9 -33.8 -228.2 -50.2 L-230.2 -95.5 -267.45 -71.3 Q-277.65 -256.2 -275.15 -257.25 -272.4 -258.4 -143.35 -120.4 L-188.05 -109.45 Z" fill="none" stroke="#333333" stroke-linecap="square" stroke-linejoin="miter" stroke-miterlimit="3.0" stroke-width="9.0"/>
    <path d="M-188.05 -109.45 L-143.35 -120.4 Q-272.4 -258.4 -275.15 -257.25 -277.65 -256.2 -267.45 -71.3 L-230.2 -95.5 -228.2 -50.2 Q-182.9 -33.8 -163.25 -75.25 L-188.05 -109.45" fill="#9c9c9c" fill-rule="evenodd" stroke="none"/>
    <path d="M-249.4 -82.95 Q-256.15 -207.85 -254.15 -208.7 -252.15 -209.55 -164.15 -115.1 L-143.4 -120.3 Q-272.45 -258.3 -275.2 -257.15 -277.7 -256.1 -267.45 -71.2 L-249.4 -82.95" fill="#9c9c9c" fill-rule="evenodd" stroke="none"/>
    <path d="M-249.4 -82.95 L-230.2 -95.45 -229.6 -80.1 -228.2 -50.15 Q-182.95 -33.7 -163.3 -75.25 L-180.6 -98.8 -180.35 -98.9 -188.05 -109.45 -164.15 -115.1 Q-252.15 -209.55 -254.15 -208.7 -256.15 -207.85 -249.4 -82.95" fill="#666666" fill-rule="evenodd" stroke="none"/>
    <path d="M-90.0 74.65 L-79.8 79.75 -78.1 80.6 -75.4 124.75 -92.7 125.8 Q-94.75 124.5 -95.2 122.9 -95.8 120.55 -92.85 111.15 -90.8 104.8 -87.8 96.9 -90.7 103.65 -94.4 109.75 -104.55 126.25 -112.25 120.55 -116.75 117.25 -118.7 109.1 -120.55 101.45 -119.55 92.7 -118.5 83.7 -114.95 77.85 -110.95 71.3 -105.1 70.95 -99.65 70.65 -92.6 73.45 L-90.0 74.65" fill="#ffffff" fill-rule="evenodd" stroke="none"/>
    <path d="M-90.0 74.65 L-92.6 73.45 Q-99.65 70.65 -105.1 70.95 -110.95 71.3 -114.95 77.85 -118.5 83.7 -119.55 92.7 -120.55 101.45 -118.7 109.1 -116.75 117.25 -112.25 120.55 -104.55 126.25 -94.4 109.75 -90.7 103.65 -87.8 96.9" fill="none" stroke="#416409" stroke-linecap="round" stroke-linejoin="miter" stroke-miterlimit="3.0" stroke-width="9.0"/>
    <path d="M-92.6 73.45 Q-89.7 74.7 -79.8 79.75 L-78.1 80.6 -75.4 124.75 -92.7 125.8 Q-94.75 124.5 -95.2 122.9 -95.8 120.55 -92.85 111.15 -90.8 104.8 -87.8 96.9 -90.7 103.65 -94.4 109.75 -104.55 126.25 -112.25 120.55 -116.75 117.25 -118.7 109.1 -120.55 101.45 -119.55 92.7 -118.5 83.7 -114.95 77.85 -110.95 71.3 -105.1 70.95 -99.65 70.65 -92.6 73.45" fill="#7cb421" fill-rule="evenodd" stroke="none"/>
    <path d="M-109.6 86.8 Q-100.5 86.25 -93.7 92.25 -90.4 95.1 -88.6 98.7 -91.2 104.45 -94.4 109.75 -104.55 126.25 -112.25 120.55 -116.75 117.25 -118.7 109.1 -120.55 101.45 -119.55 92.7 L-119.05 89.55 Q-114.85 87.1 -109.6 86.8" fill="#f3dabd" fill-rule="evenodd" stroke="none"/>
    <path d="M-167.95 84.1 Q-162.6 80.25 -154.35 79.95 L-150.4 80.0 Q-140.4 80.55 -132.2 85.0 -123.7 89.65 -123.15 95.3 -122.65 101.0 -130.35 107.45 -137.8 113.65 -147.8 116.5 L-153.0 117.65 Q-160.45 118.75 -165.85 116.4 -174.3 112.65 -175.0 101.15 -175.7 89.55 -167.95 84.1" fill="#ffffff" fill-rule="evenodd" stroke="none"/>
    <path d="M-167.95 84.1 Q-175.7 89.55 -175.0 101.15 -174.3 112.65 -165.85 116.4 -160.45 118.75 -153.0 117.65 L-147.8 116.5 Q-137.8 113.65 -130.35 107.45 -122.65 101.0 -123.15 95.3 -123.7 89.65 -132.2 85.0 -140.4 80.55 -150.4 80.0 L-154.35 79.95 Q-162.6 80.25 -167.95 84.1 Z" fill="none" stroke="#416409" stroke-linecap="round" stroke-linejoin="miter" stroke-miterlimit="3.0" stroke-width="9.0"/>
    <path d="M-175.0 101.15 Q-175.7 89.55 -167.95 84.1 -161.35 79.35 -150.4 80.0 -140.4 80.55 -132.2 85.0 -123.7 89.65 -123.15 95.3 -122.65 101.0 -130.35 107.45 -137.8 113.65 -147.8 116.5 -158.65 119.55 -165.85 116.4 -174.3 112.65 -175.0 101.15" fill="#7cb421" fill-rule="evenodd" stroke="none"/>
    <path d="M-156.8 100.3 Q-157.55 87.85 -154.35 79.95 L-150.4 80.0 Q-140.4 80.55 -132.2 85.0 -123.7 89.65 -123.15 95.3 -122.65 101.0 -130.35 107.45 -137.8 113.65 -147.8 116.5 L-153.0 117.65 Q-156.15 111.0 -156.8 100.3" fill="#f3dabd" fill-rule="evenodd" stroke="none"/>
    <path d="M-146.0 135.45 Q-141.7 131.05 -134.2 129.4 L-130.5 128.8 Q-121.15 127.75 -112.9 130.5 -104.4 133.4 -102.95 138.55 -101.5 143.65 -107.6 150.85 -113.45 157.75 -122.15 162.0 -124.55 163.15 -126.8 163.9 -133.45 166.15 -138.8 164.85 -147.2 162.85 -149.7 152.3 -152.25 141.8 -146.0 135.45" fill="#ffffff" fill-rule="evenodd" stroke="none"/>
    <path d="M-146.0 135.45 Q-152.25 141.8 -149.7 152.3 -147.2 162.85 -138.8 164.85 -133.45 166.15 -126.8 163.9 -124.55 163.15 -122.15 162.0 -113.45 157.75 -107.6 150.85 -101.5 143.65 -102.95 138.55 -104.4 133.4 -112.9 130.5 -121.15 127.75 -130.5 128.8 L-134.2 129.4 Q-141.7 131.05 -146.0 135.45 Z" fill="none" stroke="#416409" stroke-linecap="round" stroke-linejoin="miter" stroke-miterlimit="3.0" stroke-width="9.0"/>
    <path d="M-149.7 152.3 Q-152.25 141.8 -146.0 135.45 -140.65 130.0 -130.5 128.8 -121.15 127.75 -112.9 130.5 -104.4 133.4 -102.95 138.55 -101.5 143.65 -107.6 150.85 -113.45 157.75 -122.15 162.0 -131.65 166.55 -138.8 164.85 -147.2 162.85 -149.7 152.3" fill="#7cb421" fill-rule="evenodd" stroke="none"/>
    <path d="M-133.1 148.55 Q-135.8 137.2 -134.2 129.4 L-130.5 128.8 Q-121.15 127.75 -112.9 130.5 -104.4 133.4 -102.95 138.55 -101.5 143.65 -107.6 150.85 -113.45 157.75 -122.15 162.0 -124.55 163.15 -126.8 163.9 -130.75 158.35 -133.1 148.55" fill="#f3dabd" fill-rule="evenodd" stroke="none"/>
    <path d="M-22.4 180.45 L-7.5 171.65 10.95 188.2 29.35 204.45 Q16.0 208.5 4.0 223.1 L-5.5 214.6 -1.15 221.55 Q4.05 229.95 8.15 237.3 21.35 260.9 18.85 265.35 13.3 275.45 -0.9 280.55 -13.15 284.9 -29.55 285.0 -44.2 285.05 -56.7 281.8 -69.05 278.65 -72.1 274.15 -73.8 271.65 -71.45 260.4 -69.3 250.0 -64.6 236.2 -59.85 222.25 -54.8 211.55 -49.25 199.75 -45.4 196.35 -38.6 190.45 -22.4 180.45" fill="#ffffff" fill-rule="evenodd" stroke="none"/>
    <path d="M-22.4 180.45 Q-38.6 190.45 -45.4 196.35 -49.25 199.75 -54.8 211.55 -59.85 222.25 -64.6 236.2 -69.3 250.0 -71.45 260.4 -73.8 271.65 -72.1 274.15 -69.05 278.65 -56.7 281.8 -44.2 285.05 -29.55 285.0 -13.15 284.9 -0.9 280.55 13.3 275.45 18.85 265.35 21.35 260.9 8.15 237.3 4.05 229.95 -1.15 221.55 L-5.5 214.6 4.0 223.1 Q16.0 208.5 29.35 204.45 L10.95 188.2 -7.5 171.65 -22.4 180.45 Z" fill="none" stroke="#416409" stroke-linecap="round" stroke-linejoin="miter" stroke-miterlimit="3.0" stroke-width="9.0"/>
    <path d="M-22.4 180.45 L-7.5 171.65 10.95 188.2 29.35 204.45 Q16.0 208.5 4.0 223.1 L-5.5 214.6 -1.15 221.55 Q4.05 229.95 8.15 237.3 21.35 260.9 18.85 265.35 13.3 275.45 -0.9 280.55 -13.15 284.9 -29.55 285.0 -44.2 285.05 -56.7 281.8 -69.05 278.65 -72.1 274.15 -73.8 271.65 -71.45 260.4 -69.3 250.0 -64.6 236.2 -59.85 222.25 -54.8 211.55 -49.25 199.75 -45.4 196.35 -38.6 190.45 -22.4 180.45" fill="#7cb421" fill-rule="evenodd" stroke="none"/>
    <path d="M80.3 -14.4 Q107.65 -9.05 133.25 12.3 159.7 34.35 168.7 69.95 171.95 82.65 173.25 98.45 L174.0 111.15 174.5 122.25 175.65 141.2 Q176.05 151.4 174.65 158.75 172.85 168.05 167.7 176.75 161.95 186.5 151.15 197.05 139.75 208.2 129.65 215.25 119.3 222.45 109.15 226.2 99.05 229.95 88.0 230.7 77.35 231.45 64.55 229.5 43.6 226.35 31.35 216.6 27.5 213.55 25.0 210.25 L23.3 207.5 Q22.95 207.5 19.9 145.6 L58.1 -15.45 59.65 -15.65 64.1 -15.9 Q71.75 -16.05 80.3 -14.4" fill="#ffffff" fill-rule="evenodd" stroke="none"/>
    <path d="M80.3 -14.4 Q71.75 -16.05 64.1 -15.9 L59.65 -15.65 58.1 -15.45 19.9 145.6 Q22.95 207.5 23.3 207.5 L25.0 210.25 Q27.5 213.55 31.35 216.6 43.6 226.35 64.55 229.5 77.35 231.45 88.0 230.7 99.05 229.95 109.15 226.2 119.3 222.45 129.65 215.25 139.75 208.2 151.15 197.05 161.95 186.5 167.7 176.75 172.85 168.05 174.65 158.75 176.05 151.4 175.65 141.2 L174.5 122.25 174.0 111.15 173.25 98.45 Q171.95 82.65 168.7 69.95 159.7 34.35 133.25 12.3 107.65 -9.05 80.3 -14.4 Z" fill="none" stroke="#3c190a" stroke-linecap="round" stroke-linejoin="miter" stroke-miterlimit="3.0" stroke-width="9.0"/>
    <path d="M80.3 -14.4 Q107.65 -9.05 133.25 12.3 159.7 34.35 168.7 69.95 171.95 82.65 173.25 98.45 L174.0 111.15 174.5 122.25 175.65 141.2 Q176.05 151.4 174.65 158.75 172.85 168.05 167.7 176.75 161.95 186.5 151.15 197.05 139.75 208.2 129.65 215.25 119.3 222.45 109.15 226.2 99.05 229.95 88.0 230.7 77.35 231.45 64.55 229.5 43.6 226.35 31.35 216.6 27.5 213.55 25.0 210.25 L23.3 207.5 Q22.95 207.5 19.9 145.6 L58.1 -15.45 59.65 -15.65 64.1 -15.9 Q71.75 -16.05 80.3 -14.4" fill="#70381f" fill-rule="evenodd" stroke="none"/>
    <path d="M103.05 -7.2 Q88.6 -1.05 89.75 10.45 89.85 11.05 89.45 11.55 89.05 12.05 88.45 12.15 87.8 12.2 87.3 11.8 86.8 11.4 86.75 10.8 85.15 -1.75 99.15 -8.75 L99.1 -8.75 102.85 -7.15 103.05 -7.2 M146.25 25.2 L148.5 27.9 Q134.85 30.85 122.7 52.4 L121.8 53.1 120.65 53.0 119.95 52.05 Q119.75 51.45 120.05 50.9 132.35 29.05 146.25 25.2 M175.2 134.4 L175.45 137.8 Q159.5 131.0 131.05 134.25 130.4 134.35 129.9 133.95 129.4 133.55 129.35 132.95 129.25 132.3 129.7 131.8 130.05 131.3 130.7 131.25 159.3 127.95 175.75 134.6 L175.2 134.4 M64.15 200.95 Q63.95 200.35 64.2 199.8 64.45 199.2 65.05 199.0 65.65 198.75 66.2 199.0 L67.0 199.85 Q74.1 218.5 84.6 230.9 L80.65 230.9 Q70.95 218.65 64.15 200.95" fill="#54230d" fill-rule="evenodd" stroke="none"/>
    <path d="M99.2 29.35 L99.05 29.6 99.1 29.55 99.2 29.35 M117.3 32.8 L121.3 37.8 124.4 42.35 125.65 44.25 125.75 44.4 130.2 51.55 Q135.6 60.45 140.7 86.2 143.35 99.75 146.2 120.25 L147.6 120.9 Q149.85 144.95 143.35 164.05 L142.05 163.65 142.0 163.7 Q140.15 167.55 134.85 174.4 129.75 180.95 123.4 187.75 116.8 194.8 111.45 199.35 105.55 204.45 102.75 204.95 100.15 207.15 88.75 209.25 78.2 211.2 64.3 212.35 L39.6 213.35 37.7 213.3 37.3 213.25 36.25 213.25 35.3 213.2 26.3 211.9 24.8 211.25 Q21.0 208.9 14.05 202.3 5.9 194.45 -1.25 185.4 -21.05 160.5 -22.4 140.7 -23.65 121.65 -17.65 100.35 -15.8 93.7 -13.4 87.6 L-11.4 82.85 Q-12.55 81.55 -13.5 78.75 -15.45 73.1 -14.6 65.6 -14.05 60.7 -8.95 49.5 -6.25 43.55 -2.15 35.7 3.6 24.55 9.25 14.85 L40.0 7.3 70.8 -0.4 Q95.65 7.75 114.7 29.7 L117.3 32.8" fill="#ffffff" fill-rule="evenodd" stroke="none"/>
    <path d="M99.2 29.35 L99.1 29.55 99.05 29.6 99.2 29.35 M117.3 32.8 L121.3 37.8 124.4 42.35 125.65 44.25 125.75 44.4 130.2 51.55 Q135.6 60.45 140.7 86.2 143.35 99.75 146.2 120.25 L147.6 120.9 Q149.85 144.95 143.35 164.05 L142.05 163.65 142.0 163.7 Q140.15 167.55 134.85 174.4 129.75 180.95 123.4 187.75 116.8 194.8 111.45 199.35 105.55 204.45 102.75 204.95 100.15 207.15 88.75 209.25 78.2 211.2 64.3 212.35 L39.6 213.35 37.7 213.3 37.3 213.25 36.25 213.25 35.3 213.2 26.3 211.9 24.8 211.25 Q21.0 208.9 14.05 202.3 5.9 194.45 -1.25 185.4 -21.05 160.5 -22.4 140.7 -23.65 121.65 -17.65 100.35 -15.8 93.7 -13.4 87.6 L-11.4 82.85 Q-12.55 81.55 -13.5 78.75 -15.45 73.1 -14.6 65.6 -14.05 60.7 -8.95 49.5 -6.25 43.55 -2.15 35.7 3.6 24.55 9.25 14.85 L40.0 7.3 70.8 -0.4 Q95.65 7.75 114.7 29.7 L117.3 32.8" fill="none" stroke="#856301" stroke-linecap="round" stroke-linejoin="miter" stroke-miterlimit="3.0" stroke-width="9.0"/>
    <path d="M68.9 3.1 Q68.9 18.2 53.75 28.85 38.65 39.5 17.3 39.5 -4.05 39.5 -19.2 28.85 -34.25 18.2 -34.25 3.1 -34.25 -12.0 -19.2 -22.6 -4.05 -33.3 17.3 -33.3 38.65 -33.3 53.75 -22.6 68.9 -12.0 68.9 3.1" fill="#ffffff" fill-rule="evenodd" stroke="none"/>
    <path d="M143.35 164.05 Q137.05 162.0 131.95 164.4 121.75 169.2 115.8 176.2 111.3 181.5 107.55 193.1 L105.1 200.65 Q103.85 204.05 102.75 204.95 100.15 207.15 88.75 209.25 78.2 211.2 64.3 212.35 L39.6 213.35 Q27.85 213.1 24.8 211.25 21.0 208.9 14.05 202.3 5.9 194.45 -1.25 185.4 -21.05 160.5 -22.4 140.7 -23.65 121.65 -17.65 100.35 -15.8 93.7 -13.4 87.6 L-11.4 82.85 Q-12.55 81.55 -13.5 78.75 -15.45 73.1 -14.6 65.6 -13.8 58.1 -2.15 35.7 3.6 24.55 9.25 14.85 L40.0 7.3 70.8 -0.4 Q106.55 11.35 130.2 51.55 105.75 101.4 147.6 120.9 149.85 144.95 143.35 164.05 M92.0 39.2 Q96.1 34.7 98.75 30.15 L100.6 26.5 Q99.5 25.0 97.25 22.85 92.8 18.6 87.1 15.6 68.95 6.1 45.6 13.0 22.25 19.85 8.0 34.9 3.55 39.6 0.55 44.5 L-1.6 48.5 -0.55 49.75 2.55 52.8 Q7.9 57.7 14.3 61.05 34.55 71.7 56.8 62.7 78.95 53.75 92.0 39.2" fill="#ffcc33" fill-rule="evenodd" stroke="none"/>
    <path d="M99.05 29.6 L99.1 29.55 114.55 29.55 121.3 37.8 Q124.3 41.9 130.2 51.55 135.6 60.45 140.7 86.2 143.35 99.85 146.25 120.55 147.75 131.4 146.75 143.2 145.65 156.1 142.0 163.7 140.15 167.55 134.85 174.4 129.75 180.95 123.4 187.75 116.8 194.8 111.45 199.35 105.55 204.45 102.75 204.95 L88.5 207.35 64.1 210.65 Q30.25 214.6 24.8 211.25 21.0 208.9 14.05 202.3 5.9 194.45 -1.25 185.4 -21.05 160.5 -22.4 140.7 -23.65 121.65 -17.65 100.35 -15.8 93.7 -13.4 87.6 L-11.4 82.85 Q-12.55 81.55 -13.5 78.75 -15.45 73.1 -14.6 65.6 -14.05 60.7 -8.95 49.5 L-0.75 49.5 -1.6 48.5 0.55 44.5 Q3.55 39.6 8.0 34.9 22.25 19.85 45.6 13.0 68.95 6.1 87.1 15.6 92.8 18.6 97.25 22.85 99.5 25.0 100.6 26.5 L99.05 29.6" fill="#cd960d" fill-rule="evenodd" stroke="none"/>
    <path d="M214.5 144.65 L213.4 140.55 Q213.2 140.55 216.85 137.3 L220.5 134.1 241.85 150.0 Q239.4 157.6 236.15 164.35 229.75 177.8 225.95 173.35 222.1 168.9 217.4 154.3 L214.5 144.65" fill="#ffffff" fill-rule="evenodd" stroke="none"/>
    <path d="M214.5 144.65 L217.4 154.3 Q222.1 168.9 225.95 173.35 229.75 177.8 236.15 164.35 239.4 157.6 241.85 150.0 L220.5 134.1 216.85 137.3 Q213.2 140.55 213.4 140.55 L214.5 144.65 Z" fill="none" stroke="#416409" stroke-linecap="round" stroke-linejoin="miter" stroke-miterlimit="3.0" stroke-width="9.0"/>
    <path d="M214.5 144.65 L213.4 140.55 Q213.2 140.55 216.85 137.3 L220.5 134.1 241.85 150.0 Q239.4 157.6 236.15 164.35 229.75 177.8 225.95 173.35 222.1 168.9 217.4 154.3 L214.5 144.65" fill="#f3dabd" fill-rule="evenodd" stroke="none"/>
    <path d="M134.9 159.15 L146.15 169.55 171.55 193.6 Q209.25 229.9 214.75 238.95 216.2 241.4 220.55 247.45 224.6 253.4 226.4 257.85 231.7 271.3 221.15 281.6 215.35 287.3 202.5 288.15 191.45 288.9 177.05 286.0 164.25 283.45 153.45 279.05 142.9 274.7 140.3 271.1 139.25 269.6 137.55 264.85 L133.95 254.25 Q128.3 237.4 123.75 228.15 118.15 216.8 109.75 205.45 L104.5 198.75 102.45 196.35 105.15 163.85 134.9 159.15" fill="#ffffff" fill-rule="evenodd" stroke="none"/>
    <path d="M134.9 159.15 L105.15 163.85 102.45 196.35 104.5 198.75 109.75 205.45 Q118.15 216.8 123.75 228.15 128.3 237.4 133.95 254.25 L137.55 264.85 Q139.25 269.6 140.3 271.1 142.9 274.7 153.45 279.05 164.25 283.45 177.05 286.0 191.45 288.9 202.5 288.15 215.35 287.3 221.15 281.6 231.7 271.3 226.4 257.85 224.6 253.4 220.55 247.45 216.2 241.4 214.75 238.95 209.25 229.9 171.55 193.6 L146.15 169.55 134.9 159.15 Z" fill="none" stroke="#416409" stroke-linecap="round" stroke-linejoin="miter" stroke-miterlimit="3.0" stroke-width="9.0"/>
    <path d="M134.9 159.15 L146.15 169.55 171.55 193.6 Q209.25 229.9 214.75 238.95 216.2 241.4 220.55 247.45 224.6 253.4 226.4 257.85 231.7 271.3 221.15 281.6 215.35 287.3 202.5 288.15 191.45 288.9 177.05 286.0 164.25 283.45 153.45 279.05 142.9 274.7 140.3 271.1 139.25 269.6 137.55 264.85 L133.95 254.25 Q128.3 237.4 123.75 228.15 118.15 216.8 109.75 205.45 L104.5 198.75 102.45 196.35 105.15 163.85 134.9 159.15" fill="#7cb421" fill-rule="evenodd" stroke="none"/>
    <path d="M-11.05 -5.75 Q-10.35 -5.8 -9.75 -5.25 10.2 12.35 15.45 31.6 15.65 32.35 15.3 33.0 14.95 33.65 14.2 33.85 L12.85 33.65 Q12.15 33.3 11.95 32.55 6.85 14.25 -12.15 -2.55 -12.75 -3.05 -12.8 -3.8 -12.8 -4.55 -12.3 -5.1 -11.85 -5.7 -11.05 -5.75 M8.4 -10.35 L9.8 -10.5 Q42.95 -0.95 48.25 17.0 48.45 17.7 48.1 18.4 L47.05 19.25 45.65 19.15 Q45.0 18.8 44.75 18.05 39.55 1.8 8.75 -7.0 8.05 -7.25 7.7 -7.9 7.3 -8.55 7.55 -9.25 7.75 -10.0 8.4 -10.35" fill="#a6a6a6" fill-rule="evenodd" stroke="none"/>
    <path d="M-4.85 -209.05 Q-14.75 -245.25 -10.15 -269.4 -4.95 -296.6 7.15 -310.85 17.8 -323.3 31.85 -324.05 38.15 -324.35 43.35 -321.25 48.3 -318.35 51.8 -312.55 55.15 -306.95 56.7 -299.25 58.25 -291.5 57.75 -282.6 56.9 -267.7 39.0 -222.0 33.35 -207.7 26.7 -192.1 L21.2 -179.3 13.5 -178.4 5.95 -177.65 2.4 -186.6 Q-1.75 -197.75 -4.85 -209.05" fill="#ffffff" fill-rule="evenodd" stroke="none"/>
    <path d="M-4.85 -209.05 Q-14.75 -245.25 -10.15 -269.4 -4.95 -296.6 7.15 -310.85 17.8 -323.3 31.85 -324.05 38.15 -324.35 43.35 -321.25 48.3 -318.35 51.8 -312.55 55.15 -306.95 56.7 -299.25 58.25 -291.5 57.75 -282.6 56.9 -267.7 39.0 -222.0 33.35 -207.7 26.7 -192.1 L21.2 -179.3 13.5 -178.4 5.95 -177.65 2.4 -186.6 Q-1.75 -197.75 -4.85 -209.05 Z" fill="none" stroke="#856301" stroke-linecap="round" stroke-linejoin="miter" stroke-miterlimit="3.0" stroke-width="9.0"/>
    <path d="M-4.85 -209.05 Q-14.75 -245.25 -10.15 -269.4 -4.95 -296.6 7.15 -310.85 17.8 -323.3 31.85 -324.05 38.15 -324.35 43.35 -321.25 48.3 -318.35 51.8 -312.55 55.15 -306.95 56.7 -299.25 58.25 -291.5 57.75 -282.6 56.9 -267.7 39.0 -222.0 33.35 -207.7 26.7 -192.1 L21.2 -179.3 13.5 -178.4 5.95 -177.65 2.4 -186.6 Q-1.75 -197.75 -4.85 -209.05" fill="#ffcc33" fill-rule="evenodd" stroke="none"/>
    <path d="M24.25 -206.9 Q22.6 -252.2 32.85 -272.25 48.2 -298.7 73.9 -317.45 94.95 -332.45 111.65 -328.3 119.0 -326.45 123.55 -320.75 127.9 -315.3 129.4 -307.15 130.85 -299.1 129.15 -289.55 127.45 -280.0 122.45 -270.6 118.2 -262.75 105.45 -250.05 92.2 -238.95 74.9 -215.15 64.45 -198.65 52.7 -177.75 47.7 -169.45 42.5 -161.6 L33.75 -162.65 Q25.05 -164.25 25.25 -164.45 L24.7 -176.6 Q24.25 -191.95 24.25 -206.9" fill="#ffffff" fill-rule="evenodd" stroke="none"/>
    <path d="M24.25 -206.9 Q22.6 -252.2 32.85 -272.25 48.2 -298.7 73.9 -317.45 94.95 -332.45 111.65 -328.3 119.0 -326.45 123.55 -320.75 127.9 -315.3 129.4 -307.15 130.85 -299.1 129.15 -289.55 127.45 -280.0 122.45 -270.6 118.2 -262.75 105.45 -250.05 92.2 -238.95 74.9 -215.15 64.45 -198.65 52.7 -177.75 47.7 -169.45 42.5 -161.6 L33.75 -162.65 Q25.05 -164.25 25.25 -164.45 L24.7 -176.6 Q24.25 -191.95 24.25 -206.9 Z" fill="none" stroke="#23608e" stroke-linecap="round" stroke-linejoin="miter" stroke-miterlimit="3.0" stroke-width="9.0"/>
    <path d="M24.25 -206.9 Q22.6 -252.2 32.85 -272.25 48.2 -298.7 73.9 -317.45 94.95 -332.45 111.65 -328.3 119.0 -326.45 123.55 -320.75 127.9 -315.3 129.4 -307.15 130.85 -299.1 129.15 -289.55 127.45 -280.0 122.45 -270.6 118.2 -262.75 105.45 -250.05 92.2 -238.95 74.9 -215.15 64.45 -198.65 52.7 -177.75 47.7 -169.45 42.5 -161.6 L33.75 -162.65 Q25.05 -164.25 25.25 -164.45 L24.7 -176.6 Q24.25 -191.95 24.25 -206.9" fill="#339fff" fill-rule="evenodd" stroke="none"/>
    <path d="M63.0 -202.85 Q90.2 -239.45 116.75 -253.1 146.7 -268.5 169.4 -267.6 189.25 -266.8 200.5 -253.9 205.55 -248.1 206.5 -240.85 207.4 -233.9 204.5 -226.3 201.6 -218.8 195.4 -211.55 189.15 -204.25 180.25 -198.1 165.35 -187.7 108.25 -170.65 90.4 -165.3 70.45 -159.9 L54.05 -155.6 47.45 -162.3 Q40.9 -168.95 41.1 -168.95 L46.95 -179.05 Q54.5 -191.4 63.0 -202.85" fill="#ffffff" fill-rule="evenodd" stroke="none"/>
    <path d="M63.0 -202.85 Q90.2 -239.45 116.75 -253.1 146.7 -268.5 169.4 -267.6 189.25 -266.8 200.5 -253.9 205.55 -248.1 206.5 -240.85 207.4 -233.9 204.5 -226.3 201.6 -218.8 195.4 -211.55 189.15 -204.25 180.25 -198.1 165.35 -187.7 108.25 -170.65 90.4 -165.3 70.45 -159.9 L54.05 -155.6 47.45 -162.3 Q40.9 -168.95 41.1 -168.95 L46.95 -179.05 Q54.5 -191.4 63.0 -202.85 Z" fill="none" stroke="#6d1800" stroke-linecap="round" stroke-linejoin="miter" stroke-miterlimit="3.0" stroke-width="9.0"/>
    <path d="M63.0 -202.85 Q90.2 -239.45 116.75 -253.1 146.7 -268.5 169.4 -267.6 189.25 -266.8 200.5 -253.9 205.55 -248.1 206.5 -240.85 207.4 -233.9 204.5 -226.3 201.6 -218.8 195.4 -211.55 189.15 -204.25 180.25 -198.1 165.35 -187.7 108.25 -170.65 90.4 -165.3 70.45 -159.9 L54.05 -155.6 47.45 -162.3 Q40.9 -168.95 41.1 -168.95 L46.95 -179.05 Q54.5 -191.4 63.0 -202.85" fill="#f73600" fill-rule="evenodd" stroke="none"/>
    <path d="M26.85 -302.5 Q26.9 -301.75 26.4 -301.2 -0.05 -272.0 17.95 -179.0 L18.0 -178.8 14.4 -178.4 Q-4.1 -273.75 23.7 -303.65 24.2 -304.2 24.95 -304.25 25.7 -304.25 26.3 -303.75 L26.85 -302.5" fill="#cd960d" fill-rule="evenodd" stroke="none"/>
    <path d="M51.2 -158.6 Q111.55 -232.65 193.3 -250.4 L194.7 -250.15 Q195.3 -249.75 195.5 -249.0 195.65 -248.3 195.25 -247.65 194.8 -247.0 194.1 -246.85 113.35 -229.25 53.75 -156.0 L51.2 -158.6" fill="#ad0303" fill-rule="evenodd" stroke="none"/>
    <path d="M26.3 -164.1 Q36.6 -267.05 93.45 -315.15 94.0 -315.65 94.75 -315.55 95.5 -315.5 96.0 -314.95 96.5 -314.35 96.45 -313.6 96.35 -312.85 95.8 -312.35 39.95 -264.9 29.85 -163.35 L26.3 -164.1" fill="#2579c4" fill-rule="evenodd" stroke="none"/>
    <path d="M15.65 -189.6 Q32.9 -187.15 47.95 -171.45 61.3 -157.5 71.3 -135.1 80.35 -114.7 84.6 -92.2 88.65 -70.45 86.8 -54.55 83.8 -28.5 85.8 29.25 86.8 58.15 88.45 81.8 83.25 114.4 23.3 91.55 L30.3 79.45 Q37.45 66.55 38.3 61.95 39.2 57.4 37.4 44.85 L35.4 33.15 35.6 45.9 Q35.6 59.55 34.5 64.0 33.3 68.4 31.25 71.75 L29.4 74.1 30.4 70.7 Q31.35 66.8 31.05 64.6 30.25 60.05 22.6 50.8 15.2 41.85 6.75 34.9 12.75 41.1 17.45 47.85 20.8 52.65 25.75 61.2 23.15 58.05 19.6 54.45 12.5 47.3 7.95 44.95 3.4 42.75 -21.9 40.6 L-46.25 38.95 -44.5 36.9 -39.35 32.15 Q-30.45 24.85 -20.35 22.35 -15.45 21.1 -3.55 19.7 L18.4 17.2 Q46.85 13.6 53.7 8.2 56.95 5.6 58.05 1.25 59.05 -3.05 57.45 -7.25 55.7 -11.8 51.5 -14.65 46.8 -17.8 39.95 -18.1 35.95 -18.3 27.55 -13.15 22.85 -10.3 9.85 -1.1 -3.3 8.35 -11.0 13.05 -23.2 20.55 -32.75 23.95 -45.15 28.3 -54.45 37.3 -57.3 40.1 -59.55 43.0 L-61.2 45.4 Q-67.45 44.45 -74.95 41.7 L-80.55 39.45 Q-86.4 37.0 -91.55 34.0 L-93.15 33.05 Q-98.9 29.55 -103.7 25.4 -109.65 20.15 -114.2 13.85 -125.55 -1.8 -133.2 -22.1 -141.05 -43.05 -143.25 -64.5 -145.55 -87.5 -140.75 -107.45 -135.55 -129.25 -122.25 -145.1 -114.7 -154.2 -97.3 -163.35 -80.95 -172.0 -59.85 -178.75 -38.75 -185.5 -19.1 -188.45 1.7 -191.6 15.65 -189.6" fill="#ffffff" fill-rule="evenodd" stroke="none"/>
    <path d="M15.65 -189.6 Q1.7 -191.6 -19.1 -188.45 -38.75 -185.5 -59.85 -178.75 -80.95 -172.0 -97.3 -163.35 -114.7 -154.2 -122.25 -145.1 -135.55 -129.25 -140.75 -107.45 -145.55 -87.5 -143.25 -64.5 -141.05 -43.05 -133.2 -22.1 -125.55 -1.8 -114.2 13.85 -109.65 20.15 -103.7 25.4 -98.9 29.55 -93.15 33.05 L-91.55 34.0 Q-86.4 37.0 -80.55 39.45 L-74.95 41.7 Q-67.45 44.45 -61.2 45.4 L-59.55 43.0 Q-57.3 40.1 -54.45 37.3 -45.15 28.3 -32.75 23.95 -23.2 20.55 -11.0 13.05 -3.3 8.35 9.85 -1.1 22.85 -10.3 27.55 -13.15 35.95 -18.3 39.95 -18.1 46.8 -17.8 51.5 -14.65 55.7 -11.8 57.45 -7.25 59.05 -3.05 58.05 1.25 56.95 5.6 53.7 8.2 46.85 13.6 18.4 17.2 L-3.55 19.7 Q-15.45 21.1 -20.35 22.35 -30.45 24.85 -39.35 32.15 L-44.5 36.9 -46.25 38.95 -21.9 40.6 Q3.4 42.75 7.95 44.95 12.5 47.3 19.6 54.45 23.15 58.05 25.75 61.2 20.8 52.65 17.45 47.85 12.75 41.1 6.75 34.9 15.2 41.85 22.6 50.8 30.25 60.05 31.05 64.6 31.35 66.8 30.4 70.7 L29.4 74.1 31.25 71.75 Q33.3 68.4 34.5 64.0 35.6 59.55 35.6 45.9 L35.4 33.15 37.4 44.85 Q39.2 57.4 38.3 61.95 37.45 66.55 30.3 79.45 L23.3 91.55 Q83.25 114.4 88.45 81.8 86.8 58.15 85.8 29.25 83.8 -28.5 86.8 -54.55 88.65 -70.45 84.6 -92.2 80.35 -114.7 71.3 -135.1 61.3 -157.5 47.95 -171.45 32.9 -187.15 15.65 -189.6 Z" fill="none" stroke="#416409" stroke-linecap="round" stroke-linejoin="miter" stroke-miterlimit="3.0" stroke-width="9.0"/>
    <path d="M-140.7 -107.4 Q-135.5 -129.25 -122.2 -145.1 -114.6 -154.15 -97.2 -163.35 -80.85 -171.95 -59.75 -178.75 -38.7 -185.5 -19.0 -188.45 1.8 -191.55 15.75 -189.6 33.0 -187.15 48.05 -171.45 61.4 -157.5 71.4 -135.1 80.45 -114.65 84.7 -92.2 88.8 -70.4 86.9 -54.5 83.9 -28.45 85.9 29.3 86.9 58.15 88.55 81.85 83.35 114.45 23.4 91.55 L30.4 79.5 Q37.5 66.55 38.4 62.0 39.3 57.45 35.6 39.85 L31.7 23.2 33.8 40.95 Q35.7 59.6 34.55 64.05 33.4 68.45 31.35 71.75 L29.5 74.15 30.5 70.7 Q31.45 66.8 31.1 64.65 30.35 60.05 22.7 50.8 15.3 41.85 6.85 34.9 12.8 41.15 17.55 47.9 20.9 52.7 25.85 61.2 L19.65 54.5 Q12.6 47.3 8.05 45.0 3.5 42.75 -21.8 40.65 L-46.15 38.95 -44.4 36.95 Q-42.05 34.45 -39.25 32.2 -30.4 24.9 -20.25 22.35 -15.3 21.15 -3.5 19.75 L18.5 17.2 Q46.95 13.6 53.75 8.2 57.05 5.6 58.1 1.25 59.1 -3.0 57.5 -7.25 55.8 -11.75 51.6 -14.6 46.9 -17.8 40.0 -18.05 36.05 -18.25 27.65 -13.15 L9.95 -1.05 Q-3.25 8.35 -10.9 13.05 -23.15 20.6 -32.65 23.95 -45.05 28.3 -54.35 37.3 -57.25 40.1 -59.45 43.05 L-61.1 45.4 Q-67.35 44.45 -74.9 41.7 L-80.45 39.5 Q-86.35 37.05 -91.45 34.05 L-93.05 33.1 Q-98.8 29.55 -103.6 25.4 -109.55 20.15 -114.1 13.85 -125.45 -1.8 -133.1 -22.05 -140.95 -43.05 -143.15 -64.45 -145.45 -87.5 -140.7 -107.4" fill="#7cb421" fill-rule="evenodd" stroke="none"/>
    <path d="M130.6 56.3 Q142.2 56.1 154.3 58.2 171.25 61.1 186.75 68.2 206.15 77.15 222.2 92.15 238.45 107.3 247.05 122.15 254.2 134.45 255.65 145.8 256.85 154.85 254.35 161.95 252.3 167.7 249.3 169.3 247.2 170.35 242.75 166.3 L238.25 161.9 233.1 156.7 Q226.4 150.0 221.1 146.9 213.85 142.65 207.3 143.55 204.9 143.9 203.4 148.9 202.35 152.4 201.5 159.85 L200.05 170.95 Q199.05 176.15 197.5 176.7 193.8 178.05 190.35 175.8 186.65 173.25 182.95 166.2 181.85 164.05 180.05 155.9 178.0 146.5 176.2 141.55 173.5 134.1 168.45 124.9 L164.0 117.15 169.65 122.1 178.55 129.35 154.2 99.6 Q163.2 113.35 160.95 115.8 143.15 106.3 123.1 104.65 103.1 86.8 121.4 56.95 L123.8 56.65 130.6 56.3" fill="#ffffff" fill-rule="evenodd" stroke="none"/>
    <path d="M130.6 56.3 L123.8 56.65 121.4 56.95 Q103.1 86.8 123.1 104.65 143.15 106.3 160.95 115.8 163.2 113.35 154.2 99.6 L178.55 129.35 169.65 122.1 164.0 117.15 168.45 124.9 Q173.5 134.1 176.2 141.55 178.0 146.5 180.05 155.9 181.85 164.05 182.95 166.2 186.65 173.25 190.35 175.8 193.8 178.05 197.5 176.7 199.05 176.15 200.05 170.95 L201.5 159.85 Q202.35 152.4 203.4 148.9 204.9 143.9 207.3 143.55 213.85 142.65 221.1 146.9 226.4 150.0 233.1 156.7 L238.25 161.9 242.75 166.3 Q247.2 170.35 249.3 169.3 252.3 167.7 254.35 161.95 256.85 154.85 255.65 145.8 254.2 134.45 247.05 122.15 238.45 107.3 222.2 92.15 206.15 77.15 186.75 68.2 171.25 61.1 154.3 58.2 142.2 56.1 130.6 56.3 Z" fill="none" stroke="#416409" stroke-linecap="round" stroke-linejoin="miter" stroke-miterlimit="3.0" stroke-width="9.0"/>
    <path d="M130.6 56.3 Q142.2 56.1 154.3 58.2 171.25 61.1 186.75 68.2 206.15 77.15 222.2 92.15 238.45 107.3 247.05 122.15 254.2 134.45 255.65 145.8 256.85 154.85 254.35 161.95 252.3 167.7 249.3 169.3 247.2 170.35 242.75 166.3 L238.25 161.9 233.1 156.7 Q226.4 150.0 221.1 146.9 213.85 142.65 207.3 143.55 204.9 143.9 203.4 148.9 202.35 152.4 201.5 159.85 L200.05 170.95 Q199.05 176.15 197.5 176.7 193.8 178.05 190.35 175.8 186.65 173.25 182.95 166.2 181.85 164.05 180.05 155.9 178.0 146.5 176.2 141.55 173.5 134.1 168.45 124.9 L164.0 117.15 169.65 122.1 178.55 129.35 154.2 99.6 Q163.2 113.35 160.95 115.8 143.15 106.3 123.1 104.65 103.1 86.8 121.4 56.95 L123.8 56.65 130.6 56.3" fill="#7cb421" fill-rule="evenodd" stroke="none"/>
    <path d="M98.75 30.15 L99.1 29.55 114.55 29.55 Q122.95 39.2 130.2 51.55 105.75 101.4 147.6 120.9 149.85 144.95 143.35 164.05 137.05 162.0 131.95 164.4 121.75 169.2 115.8 176.2 111.3 181.5 107.55 193.1 L105.1 200.65 Q103.85 204.05 102.75 204.95 100.15 207.15 88.75 209.25 78.2 211.2 64.3 212.35 L39.6 213.35 Q27.85 213.1 24.8 211.25 21.0 208.9 14.05 202.3 5.9 194.45 -1.25 185.4 -21.05 160.5 -22.4 140.7 -23.65 121.65 -17.65 100.35 -15.8 93.7 -13.4 87.6 L-11.4 82.85 Q-12.55 81.55 -13.5 78.75 -15.45 73.1 -14.6 65.6 -14.05 60.7 -8.95 49.5 L-0.75 49.5 -0.55 49.75 2.55 52.8 Q7.9 57.7 14.3 61.05 34.55 71.7 56.8 62.7 78.95 53.75 92.0 39.2 96.1 34.7 98.75 30.15" fill="#ffcc33" fill-rule="evenodd" stroke="none"/>
    <path d="M222.7 250.75 Q225.1 254.65 226.4 257.85 231.7 271.3 221.15 281.6 215.35 287.3 202.5 288.15 191.45 288.9 177.05 286.0 L169.95 284.4 Q170.45 279.6 171.85 274.7 175.45 261.95 183.3 261.3 187.05 261.0 189.75 268.5 191.55 273.4 192.75 281.25 193.55 270.0 196.25 261.9 200.1 250.45 206.95 249.1 215.65 247.45 222.7 250.75" fill="#f3dabd" fill-rule="evenodd" stroke="none"/>
    <path d="M183.5 217.55 L183.9 215.7 183.95 214.95 184.25 216.15 184.75 218.85 Q185.1 223.0 182.25 225.1 180.75 226.2 178.15 226.75 L172.65 227.05 Q165.7 226.4 162.65 222.05 157.9 215.3 159.95 208.7 161.45 203.8 165.35 201.1 168.4 198.95 171.75 200.3 173.4 201.0 174.5 202.1 170.25 202.5 166.9 204.7 160.1 209.0 164.35 217.65 166.7 222.5 172.15 223.45 174.4 223.85 176.65 223.45 178.75 223.05 180.25 222.05 182.6 220.5 183.5 217.55" fill="#416409" fill-rule="evenodd" stroke="none"/>
    <path d="M173.05 209.1 Q171.55 209.1 170.45 209.75 168.2 211.05 170.1 214.4 171.2 216.2 173.3 216.6 175.15 216.9 176.35 216.05 177.15 215.45 177.25 214.7 L177.15 214.05 177.3 214.45 177.6 215.5 Q177.9 217.1 176.85 217.9 176.35 218.3 175.35 218.5 L173.25 218.6 Q170.6 218.4 169.3 216.75 167.25 214.15 167.75 211.6 168.15 209.75 169.55 208.75 170.6 207.95 171.95 208.45 172.6 208.7 173.05 209.1" fill="#416409" fill-rule="evenodd" stroke="none"/>
    <path d="M186.0 231.5 Q182.35 233.65 176.75 231.9 174.9 231.3 173.2 230.4 L171.8 229.5 Q185.3 232.75 190.4 224.1 L190.55 224.8 190.35 226.55 Q189.6 229.4 186.0 231.5" fill="#416409" fill-rule="evenodd" stroke="none"/>
    <path d="M50.1 -99.4 L52.4 -94.25 Q55.0 -87.85 56.35 -81.55 60.85 -61.45 51.7 -50.05 41.75 -37.6 28.3 -35.95 22.7 -35.3 17.6 -36.7 12.85 -38.05 9.65 -40.75 4.6 -45.05 1.15 -59.9 0.1 -64.55 -0.7 -69.7 L-1.25 -73.9 Q22.95 -92.6 50.1 -99.4" fill="#000000" fill-rule="evenodd" stroke="none"/>
    <path d="M40.0 -92.3 Q40.0 -85.7 36.5 -81.0 33.0 -76.35 28.05 -76.35 23.15 -76.35 19.65 -81.0 17.9 -83.3 17.05 -86.1 28.05 -92.35 39.65 -96.3 40.0 -94.4 40.0 -92.3" fill="#ffffff" fill-rule="evenodd" stroke="none"/>
    <path d="M29.3 -60.3 Q27.45 -58.5 24.85 -58.5 22.25 -58.5 20.4 -60.3 18.55 -62.1 18.55 -64.6 18.55 -67.15 20.4 -68.9 22.25 -70.7 24.85 -70.7 27.45 -70.7 29.3 -68.9 31.1 -67.15 31.1 -64.6 31.1 -62.1 29.3 -60.3" fill="#ffffff" fill-rule="evenodd" stroke="none"/>
    <path d="M-75.8 -173.05 Q-68.15 -176.05 -59.75 -178.75 -39.85 -185.1 -21.15 -188.1 L-21.2 -188.5 Q-19.55 -176.95 -26.4 -163.15 -33.5 -148.95 -45.6 -140.7 -57.7 -132.4 -67.65 -134.95 -77.65 -137.5 -79.7 -149.4 -81.55 -160.25 -75.8 -173.05 M-82.15 -145.9 Q-78.45 -142.35 -79.95 -135.65 -81.45 -128.9 -87.25 -122.95 -93.05 -117.0 -99.7 -115.35 -106.4 -113.65 -110.1 -117.2 -113.75 -120.8 -112.2 -127.5 -110.7 -134.2 -104.95 -140.15 -99.15 -146.1 -92.45 -147.8 -85.8 -149.5 -82.15 -145.9 M-60.55 -127.85 Q-56.35 -132.6 -51.2 -133.9 -46.05 -135.25 -42.9 -132.45 -39.75 -129.65 -40.55 -124.4 -41.25 -119.1 -45.45 -114.4 -49.65 -109.7 -54.8 -108.35 -59.95 -107.0 -63.1 -109.8 -66.25 -112.6 -65.5 -117.85 -64.75 -123.15 -60.55 -127.85 M42.45 -176.7 L48.05 -171.45 Q61.4 -157.5 71.4 -135.1 76.7 -123.1 80.35 -110.4 75.85 -107.45 70.65 -107.2 58.8 -106.65 52.65 -120.6 49.25 -128.3 49.15 -137.5 49.05 -142.6 50.0 -148.15 L50.05 -148.5 47.95 -146.65 Q41.05 -141.1 36.9 -143.4 32.8 -145.7 33.85 -154.45 34.9 -163.25 40.45 -173.35 L42.45 -176.7" fill="#3f9306" fill-rule="evenodd" stroke="none"/>
    <path d="M58.0 -19.5 Q60.3 -17.6 62.15 -15.15 68.05 -7.5 67.25 2.05 66.4 11.55 61.3 14.85 59.75 15.9 57.9 16.15 L56.4 16.25 Q73.5 2.95 56.05 -20.95 L58.0 -19.5" fill="#416409" fill-rule="evenodd" stroke="none"/>
    <path d="M-11.35 -98.15 Q-22.85 -76.25 -11.35 -66.6 -13.7 -65.7 -16.0 -66.9 -20.65 -69.35 -20.65 -79.95 -20.65 -90.6 -16.15 -95.3 -14.75 -96.75 -13.0 -97.55 L-11.35 -98.15" fill="#416409" fill-rule="evenodd" stroke="none"/>
    <path d="M114.4 178.0 Q113.2 179.75 112.05 181.95 41.35 203.6 0.85 188.05 L-1.25 185.4 -3.15 183.0 Q38.0 202.1 114.4 178.0 M123.2 69.75 L122.3 73.7 Q44.95 115.25 -11.75 83.2 L-11.55 83.3 -11.4 82.85 Q-12.55 81.55 -13.5 78.75 L-13.55 78.55 Q43.8 113.35 123.2 69.75 M131.3 109.8 L133.5 111.9 Q119.0 126.45 99.6 136.15 76.65 147.55 50.95 150.4 25.5 153.15 2.85 146.9 -11.3 143.0 -22.6 136.0 L-22.6 132.4 Q-11.1 139.85 3.65 143.95 25.75 150.0 50.6 147.35 75.8 144.6 98.25 133.4 117.2 123.95 131.3 109.8" fill="#cd960d" fill-rule="evenodd" stroke="none"/>
    <path d="M180.05 155.9 L179.7 154.4 Q192.0 154.6 200.75 162.3 L201.15 162.65 200.05 170.95 Q199.05 176.15 197.5 176.7 193.8 178.05 190.35 175.8 186.65 173.25 182.95 166.2 181.85 164.05 180.05 155.9 M232.55 147.35 Q236.65 139.55 243.55 139.7 250.1 139.8 255.8 147.05 256.65 155.35 254.35 161.95 252.3 167.7 249.3 169.3 247.2 170.35 242.75 166.3 L238.25 161.9 233.1 156.7 230.15 153.8 Q230.95 150.3 232.55 147.35" fill="#f3dabd" fill-rule="evenodd" stroke="none"/>
    <path d="M156.55 84.7 Q150.1 84.7 145.55 78.9 141.0 73.1 141.0 64.9 141.0 60.45 142.35 56.7 L154.3 58.2 Q170.65 61.0 185.65 67.75 L185.65 68.65 Q185.65 74.3 183.05 78.3 180.4 82.35 176.7 82.35 173.0 82.35 170.35 78.3 L169.25 76.35 167.55 78.9 Q163.0 84.7 156.55 84.7 M214.65 84.8 L214.05 85.1 222.2 92.15 Q229.0 98.45 234.4 104.75 L233.25 105.8 Q228.75 109.75 222.35 109.75 216.0 109.75 211.5 105.8 206.95 101.9 206.95 96.4 206.95 90.85 211.5 86.9 212.95 85.65 214.65 84.8" fill="#3f9306" fill-rule="evenodd" stroke="none"/>
    <path d="M-11.5 283.7 L-11.6 283.4 Q-19.85 284.95 -29.55 285.0 -44.2 285.05 -56.7 281.8 -69.05 278.65 -72.1 274.15 -73.8 271.65 -71.45 260.4 L-71.35 260.05 -67.45 254.35 Q-58.2 242.55 -50.8 245.05 -43.4 247.6 -40.45 263.0 -39.0 270.5 -39.0 277.5 -38.85 271.35 -37.45 265.4 -34.6 253.15 -27.8 254.2 -21.05 255.25 -14.8 273.1 -12.9 278.45 -11.5 283.7" fill="#f3dabd" fill-rule="evenodd" stroke="none"/>
    <path d="M-27.5 205.5 L-25.65 206.5 Q-23.65 207.85 -22.75 209.5 -19.85 214.85 -29.15 221.4 -38.45 227.95 -43.35 224.1 -44.9 222.95 -45.8 220.85 L-46.45 219.0 -45.9 219.85 Q-45.2 220.8 -43.95 221.35 -39.95 223.1 -32.5 220.35 -25.1 217.6 -25.55 211.25 -25.65 209.3 -26.6 207.2 L-27.5 205.5" fill="#416409" fill-rule="evenodd" stroke="none"/>
    <path d="M-36.05 216.2 L-37.95 216.7 -41.75 216.9 Q-42.95 216.75 -43.8 216.2 -46.4 214.65 -44.3 209.5 -42.4 204.95 -39.2 202.95 -37.25 201.8 -34.95 201.5 L-31.05 201.75 -29.45 202.25 -30.35 202.2 -32.85 202.5 Q-37.0 203.65 -41.1 208.4 -44.95 212.85 -40.8 215.05 -39.5 215.7 -37.65 216.0 L-36.05 216.2" fill="#416409" fill-rule="evenodd" stroke="none"/>
  </g>
</svg>
