<?xml version="1.0" encoding="UTF-8" standalone="no"?>
<svg xmlns:xlink="http://www.w3.org/1999/xlink" height="473.25px" width="557.6px" xmlns="http://www.w3.org/2000/svg">
  <g transform="matrix(1.0, 0.0, 0.0, 1.0, 294.05, 239.6)">
    <path d="M79.85 -101.25 L76.95 -75.15 89.3 -92.9 101.45 -77.4 Q96.0 -72.9 90.7 -67.65 80.1 -57.1 80.95 -53.35 81.85 -49.55 89.25 -47.35 92.95 -46.2 96.5 -45.9 L87.7 -29.45 63.9 -37.15 24.75 -10.8 21.1 -26.05 17.3 -41.4 47.25 -65.5 43.85 -87.3 57.8 -91.35 59.6 -73.55 59.4 -98.75 79.85 -101.25" fill="#ffffff" fill-rule="evenodd" stroke="none"/>
    <path d="M79.85 -101.25 L76.95 -75.15 89.3 -92.9 101.45 -77.4 Q96.0 -72.9 90.7 -67.65 80.1 -57.1 80.95 -53.35 81.85 -49.55 89.25 -47.35 92.95 -46.2 96.5 -45.9 L87.7 -29.45 63.9 -37.15 24.75 -10.8 21.1 -26.05 17.3 -41.4 47.25 -65.5 43.85 -87.3 57.8 -91.35 59.6 -73.55 59.4 -98.75 79.85 -101.25 Z" fill="none" stroke="#7b361c" stroke-linecap="square" stroke-linejoin="round" stroke-width="9.0"/>
    <path d="M79.85 -101.25 L76.95 -75.15 89.3 -92.9 101.45 -77.4 Q96.0 -72.9 90.7 -67.65 80.1 -57.1 80.95 -53.35 81.85 -49.55 89.25 -47.35 92.95 -46.2 96.5 -45.9 L87.7 -29.45 63.9 -37.15 24.75 -10.8 21.1 -26.05 17.3 -41.4 47.25 -65.5 43.85 -87.3 57.8 -91.35 59.6 -73.55 59.4 -98.75 79.85 -101.25" fill="#e96600" fill-rule="evenodd" stroke="none"/>
    <path d="M79.85 -101.25 L76.95 -75.15 89.3 -92.9 101.45 -77.4 Q96.0 -72.9 90.7 -67.65 80.1 -57.1 80.95 -53.35 81.85 -49.55 89.25 -47.35 92.95 -46.2 96.5 -45.9 L87.7 -29.45 64.85 -36.8 69.05 -41.2 Q74.15 -47.1 74.7 -51.1 75.4 -56.1 74.35 -61.5 73.3 -67.3 70.85 -69.1 68.55 -70.8 62.15 -71.5 L52.65 -71.8 Q50.0 -71.5 46.75 -68.65 L43.85 -87.3 57.8 -91.35 59.6 -73.55 59.4 -98.75 79.85 -101.25" fill="#ffc580" fill-rule="evenodd" stroke="none"/>
    <path d="M-126.5 -232.55 Q-110.1 -229.9 -91.65 -220.15 -80.45 -214.25 -59.2 -200.0 -32.5 -182.15 -17.4 -120.45 -9.9 -89.6 -7.7 -62.3 -197.1 124.0 -197.1 123.5 -204.05 118.85 -214.05 110.7 -233.95 94.45 -249.05 76.95 -270.1 52.4 -278.55 29.0 -289.0 -0.35 -279.0 -26.3 -260.7 -73.65 -236.1 -90.75 -228.85 -95.85 -216.25 -101.1 -203.3 -106.5 -198.0 -110.0 -183.65 -119.55 -172.95 -136.2 -167.6 -144.5 -165.15 -150.95 -169.65 -144.75 -176.15 -137.2 -189.15 -122.0 -199.15 -114.95 -209.15 -107.95 -226.4 -99.7 -235.0 -95.6 -241.65 -92.9 -244.0 -96.5 -246.5 -102.7 -251.45 -115.15 -252.15 -128.3 -254.15 -170.3 -212.15 -203.6 -167.3 -239.2 -126.5 -232.55" fill="#ffffff" fill-rule="evenodd" stroke="none"/>
    <path d="M-126.5 -232.55 Q-110.1 -229.9 -91.65 -220.15 -80.45 -214.25 -59.2 -200.0 -32.5 -182.15 -17.4 -120.45 -9.9 -89.6 -7.7 -62.3 -197.1 124.0 -197.1 123.5 -204.05 118.85 -214.05 110.7 -233.95 94.45 -249.05 76.95 -270.1 52.4 -278.55 29.0 -289.0 -0.35 -279.0 -26.3 -260.7 -73.65 -236.1 -90.75 -228.85 -95.85 -216.25 -101.1 -203.3 -106.5 -198.0 -110.0 -183.65 -119.55 -172.95 -136.2 -167.6 -144.5 -165.15 -150.95 -169.65 -144.75 -176.15 -137.2 -189.15 -122.0 -199.15 -114.95 -209.15 -107.95 -226.4 -99.7 -235.0 -95.6 -241.65 -92.9 -244.0 -96.5 -246.5 -102.7 -251.45 -115.15 -252.15 -128.3 -254.15 -170.3 -212.15 -203.6 -167.3 -239.2 -126.5 -232.55 Z" fill="none" stroke="#3c190a" stroke-linecap="square" stroke-linejoin="round" stroke-width="9.0"/>
    <path d="M-126.5 -232.55 Q-110.1 -229.9 -91.65 -220.15 -80.45 -214.25 -59.2 -200.0 -32.5 -182.15 -17.4 -120.45 -9.9 -89.6 -7.7 -62.3 -197.1 124.0 -197.1 123.5 -204.05 118.85 -214.05 110.7 -233.95 94.45 -249.05 76.95 -270.1 52.4 -278.55 29.0 -289.0 -0.35 -279.0 -26.3 -260.7 -73.65 -236.1 -90.75 -228.85 -95.85 -216.25 -101.1 -203.3 -106.5 -198.0 -110.0 -183.65 -119.55 -172.95 -136.2 -167.6 -144.5 -165.15 -150.95 -169.65 -144.75 -176.15 -137.2 -189.15 -122.0 -199.15 -114.95 -209.15 -107.95 -226.4 -99.7 -235.0 -95.6 -241.65 -92.9 -244.0 -96.5 -246.5 -102.7 -251.45 -115.15 -252.15 -128.3 -254.15 -170.3 -212.15 -203.6 -167.3 -239.2 -126.5 -232.55" fill="#70381f" fill-rule="evenodd" stroke="none"/>
    <path d="M10.0 -112.6 Q16.85 -102.25 17.75 -87.95 18.3 -78.4 13.9 -71.8 12.5 -69.7 10.85 -68.2 L9.4 -67.05 -1.8 -77.1 Q-13.0 -87.15 -12.85 -87.3 -16.0 -92.3 -17.15 -98.65 -19.4 -111.25 -9.25 -117.9 1.65 -125.05 10.0 -112.6" fill="#ffffff" fill-rule="evenodd" stroke="none"/>
    <path d="M10.0 -112.6 Q16.85 -102.25 17.75 -87.95 18.3 -78.4 13.9 -71.8 12.5 -69.7 10.85 -68.2 L9.4 -67.05 -1.8 -77.1 Q-13.0 -87.15 -12.85 -87.3 -16.0 -92.3 -17.15 -98.65 -19.4 -111.25 -9.25 -117.9 1.65 -125.05 10.0 -112.6 Z" fill="none" stroke="#7b361c" stroke-linecap="square" stroke-linejoin="round" stroke-width="9.0"/>
    <path d="M10.0 -112.6 Q16.85 -102.25 17.75 -87.95 18.3 -78.4 13.9 -71.8 12.5 -69.7 10.85 -68.2 L9.4 -67.05 -1.8 -77.1 Q-13.0 -87.15 -12.85 -87.3 -16.0 -92.3 -17.15 -98.65 -19.4 -111.25 -9.25 -117.9 1.65 -125.05 10.0 -112.6" fill="#e96600" fill-rule="evenodd" stroke="none"/>
    <path d="M10.85 -68.2 L9.4 -67.05 1.9 -73.75 1.5 -81.95 Q1.15 -96.55 4.25 -101.9 7.35 -107.25 13.05 -93.4 15.55 -87.3 17.65 -80.4 L17.45 -81.05 Q16.6 -75.85 13.9 -71.8 12.5 -69.7 10.85 -68.2" fill="#ffc580" fill-rule="evenodd" stroke="none"/>
    <path d="M-221.4 -32.4 L-211.85 -24.1 Q-201.95 -14.75 -200.7 -9.7 -199.2 -3.6 -206.9 25.7 -214.55 55.1 -223.9 78.55 -204.7 40.45 -199.35 0.0 -192.2 -3.8 -183.85 -6.05 -167.1 -10.5 -160.9 -2.7 -154.7 5.15 -167.3 30.45 -173.6 43.15 -181.15 54.2 -158.25 58.15 -138.85 42.75 L-81.0 91.8 Q-93.4 95.7 -122.05 110.7 -154.0 127.4 -174.15 135.15 -186.55 139.95 -210.0 156.35 L-233.8 173.05 Q-237.0 174.5 -241.4 170.45 -245.7 166.55 -248.6 159.95 -253.0 149.9 -255.65 134.1 -256.1 142.55 -254.6 149.8 -253.0 157.8 -249.05 163.6 L-255.4 167.4 -269.15 154.8 -261.25 143.55 -276.35 161.1 Q-287.95 152.55 -288.05 130.75 -275.55 125.6 -262.25 120.8 -235.6 111.15 -231.1 112.7 -226.6 114.25 -223.75 120.3 -222.35 123.3 -221.85 126.0 -228.65 134.45 -239.6 144.45 -233.85 140.55 -227.2 134.85 -213.9 123.45 -209.25 114.75 -203.8 104.5 -198.4 82.85 -193.15 61.9 -191.5 45.0 L-195.55 54.7 Q-200.8 66.35 -206.9 76.0 -226.35 106.85 -246.65 106.0 -251.95 105.75 -259.5 94.25 -266.05 84.25 -268.0 76.95 -269.05 73.1 -263.25 52.35 -257.5 31.85 -258.75 28.6 -260.7 23.4 -263.65 20.7 -267.1 17.55 -276.35 13.25 L-240.95 -39.6 -230.4 -23.4 -250.4 4.9 -231.55 26.35 -247.95 5.15 -221.4 -32.4" fill="#ffffff" fill-rule="evenodd" stroke="none"/>
    <path d="M-221.4 -32.4 L-247.95 5.15 -231.55 26.35 -250.4 4.9 -230.4 -23.4 -240.95 -39.6 -276.35 13.25 Q-267.1 17.55 -263.65 20.7 -260.7 23.4 -258.75 28.6 -257.5 31.85 -263.25 52.35 -269.05 73.1 -268.0 76.95 -266.05 84.25 -259.5 94.25 -251.95 105.75 -246.65 106.0 -226.35 106.85 -206.9 76.0 -200.8 66.35 -195.55 54.7 L-191.5 45.0 Q-193.15 61.9 -198.4 82.85 -203.8 104.5 -209.25 114.75 -213.9 123.45 -227.2 134.85 -233.85 140.55 -239.6 144.45 -228.65 134.45 -221.85 126.0 -222.35 123.3 -223.75 120.3 -226.6 114.25 -231.1 112.7 -235.6 111.15 -262.25 120.8 -275.55 125.6 -288.05 130.75 -287.95 152.55 -276.35 161.1 L-261.25 143.55 -269.15 154.8 -255.4 167.4 -249.05 163.6 Q-253.0 157.8 -254.6 149.8 -256.1 142.55 -255.65 134.1 -253.0 149.9 -248.6 159.95 -245.7 166.55 -241.4 170.45 -237.0 174.5 -233.8 173.05 L-210.0 156.35 Q-186.55 139.95 -174.15 135.15 -154.0 127.4 -122.05 110.7 -93.4 95.7 -81.0 91.8 L-138.85 42.75 Q-158.25 58.15 -181.15 54.2 -173.6 43.15 -167.3 30.45 -154.7 5.15 -160.9 -2.7 -167.1 -10.5 -183.85 -6.05 -192.2 -3.8 -199.35 0.0 -204.7 40.45 -223.9 78.55 -214.55 55.1 -206.9 25.7 -199.2 -3.6 -200.7 -9.7 -201.95 -14.75 -211.85 -24.1 L-221.4 -32.4 Z" fill="none" stroke="#7b361c" stroke-linecap="square" stroke-linejoin="round" stroke-width="9.0"/>
    <path d="M-221.4 -32.4 L-211.85 -24.1 Q-201.95 -14.75 -200.7 -9.7 -199.2 -3.6 -206.9 25.7 -214.55 55.1 -223.9 78.55 -204.7 40.45 -199.35 0.0 -192.2 -3.8 -183.85 -6.05 -167.1 -10.5 -160.9 -2.7 -154.7 5.15 -167.3 30.45 -173.6 43.15 -181.15 54.2 -158.25 58.15 -138.85 42.75 L-81.0 91.8 Q-93.4 95.7 -122.05 110.7 -154.0 127.4 -174.15 135.15 -186.55 139.95 -210.0 156.35 L-233.8 173.05 Q-237.0 174.5 -241.4 170.45 -245.7 166.55 -248.6 159.95 -253.0 149.9 -255.65 134.1 -256.1 142.55 -254.6 149.8 -253.0 157.8 -249.05 163.6 L-255.4 167.4 -269.15 154.8 -261.25 143.55 -276.35 161.1 Q-287.95 152.55 -288.05 130.75 -275.55 125.6 -262.25 120.8 -235.6 111.15 -231.1 112.7 -226.6 114.25 -223.75 120.3 -222.35 123.3 -221.85 126.0 -228.65 134.45 -239.6 144.45 -233.85 140.55 -227.2 134.85 -213.9 123.45 -209.25 114.75 -203.8 104.5 -198.4 82.85 -193.15 61.9 -191.5 45.0 L-195.55 54.7 Q-200.8 66.35 -206.9 76.0 -226.35 106.85 -246.65 106.0 -251.95 105.75 -259.5 94.25 -266.05 84.25 -268.0 76.95 -269.05 73.1 -263.25 52.35 -257.5 31.85 -258.75 28.6 -260.7 23.4 -263.65 20.7 -267.1 17.55 -276.35 13.25 L-240.95 -39.6 -230.4 -23.4 -250.4 4.9 -231.55 26.35 -247.95 5.15 -221.4 -32.4" fill="#e96600" fill-rule="evenodd" stroke="none"/>
    <path d="M-135.7 66.65 L-102.85 83.35 -83.3 93.2 -84.05 92.85 Q-96.65 97.4 -122.05 110.7 -154.0 127.4 -174.15 135.15 -181.35 137.95 -192.35 144.7 -195.9 142.75 -196.65 140.9 -198.25 137.2 -195.2 125.45 -192.0 113.15 -186.75 104.9 -182.25 97.7 -158.5 81.45 -146.7 73.35 -135.7 66.65" fill="#ffc580" fill-rule="evenodd" stroke="none"/>
    <path d="M-144.0 69.3 Q-61.3 128.7 55.55 137.65 L62.3 151.15 85.7 149.35 Q91.05 130.0 78.95 113.85 90.0 121.15 102.8 138.55 L113.15 121.0 Q109.6 105.25 96.05 99.45 110.45 102.2 113.15 115.2 L120.8 99.9 Q117.75 88.65 98.75 79.2 L71.75 84.15 84.35 79.2 74.45 69.3 Q53.3 73.8 36.2 89.1 -50.05 82.35 -118.1 42.75" fill="none" stroke="#7b361c" stroke-linecap="square" stroke-linejoin="round" stroke-width="9.0"/>
    <path d="M96.05 99.4 Q109.6 105.2 113.15 121.0 L102.8 138.55 Q90.05 121.15 78.95 113.8 91.05 130.0 85.7 149.35 L62.35 151.15 55.6 137.65 Q-64.35 128.45 -148.25 66.1 L-118.1 42.75 Q-50.05 82.3 36.25 89.05 53.35 73.75 74.45 69.25 L84.35 79.15 71.75 84.1 98.75 79.15 Q117.75 88.6 120.8 99.85 L113.15 115.15 Q110.45 102.2 96.05 99.4" fill="#e96600" fill-rule="evenodd" stroke="none"/>
    <path d="M71.95 120.8 Q71.95 114.65 77.4 110.9 L80.95 108.0 Q82.55 106.1 82.3 103.3 81.75 96.55 78.55 92.95 75.05 88.95 66.55 86.35 59.25 84.1 47.0 86.6 L36.2 89.5 35.95 89.05 36.25 89.05 Q53.35 73.75 74.45 69.25 L84.35 79.15 71.75 84.1 98.75 79.15 Q117.75 88.6 120.8 99.85 L113.15 115.15 Q110.45 102.2 96.05 99.4 109.6 105.2 113.15 121.0 L102.8 138.55 Q90.05 121.15 78.95 113.8 91.05 130.0 85.7 149.35 L62.35 151.15 55.6 137.65 55.35 137.65 61.85 134.3 Q71.95 128.15 71.95 120.8" fill="#ffc580" fill-rule="evenodd" stroke="none"/>
    <path d="M120.3 119.7 Q118.3 142.85 108.35 162.7 94.5 190.45 66.9 207.6 32.35 229.15 -21.8 232.85 -75.95 236.6 -117.45 223.2 -150.7 212.5 -174.3 191.45 -191.3 176.3 -201.5 157.7 -204.75 151.65 -206.75 146.3 -208.4 141.95 -208.05 141.95 -44.55 263.5 120.4 100.55 L120.75 105.8 Q121.0 112.55 120.3 119.7" fill="#ffffff" fill-rule="evenodd" stroke="none"/>
    <path d="M107.7 171.65 L98.5 172.1 112.75 163.95 Q112.0 155.25 113.9 144.05 117.75 121.7 131.15 109.6 144.5 97.5 160.25 95.35 168.1 94.3 173.25 95.65 224.15 122.9 208.95 188.1 205.7 189.95 198.85 191.4 185.1 194.3 166.8 192.15 148.75 190.05 136.0 182.7 L127.75 177.2 Q123.65 174.25 121.95 173.5 117.7 171.6 107.7 171.65" fill="#ffffff" fill-rule="evenodd" stroke="none"/>
    <path d="M107.7 171.65 L98.5 172.1 112.75 163.95 Q112.0 155.25 113.9 144.05 117.75 121.7 131.15 109.6 144.5 97.5 160.25 95.35 168.1 94.3 173.25 95.65 224.15 122.9 208.95 188.1 205.7 189.95 198.85 191.4 185.1 194.3 166.8 192.15 148.75 190.05 136.0 182.7 L127.75 177.2 Q123.65 174.25 121.95 173.5 117.7 171.6 107.7 171.65 Z" fill="none" stroke="#79460b" stroke-linecap="square" stroke-linejoin="round" stroke-width="9.0"/>
    <path d="M-52.15 -98.75 Q-35.6 -98.85 -21.05 -94.85 -6.4 -90.75 0.4 -84.15 14.85 -70.05 23.9 -34.4 28.45 -16.6 30.1 -1.55 L32.05 -1.25 Q34.35 -0.75 36.5 0.35 43.1 3.7 44.5 11.25 48.05 30.5 31.75 46.55 23.65 54.6 14.8 58.7 13.7 64.3 8.8 70.7 -0.9 83.45 -19.6 87.5 -38.3 91.55 -56.7 82.45 -62.45 79.55 -67.45 75.75 L-71.35 72.45 Q-91.15 72.6 -111.4 68.1 -151.95 59.1 -154.4 36.0 -156.25 19.15 -144.25 8.75 -138.3 3.55 -132.1 1.8 -132.15 -9.6 -129.1 -25.25 L-127.55 -32.35 Q-132.95 -34.4 -139.05 -37.45 -156.65 -46.3 -163.4 -57.6 -166.2 -62.35 -166.85 -69.9 -167.45 -77.5 -165.6 -84.7 -163.55 -92.5 -159.2 -97.25 -154.25 -102.6 -147.15 -102.8 -134.65 -103.2 -118.25 -88.9 -112.05 -83.45 -107.3 -78.0 -99.45 -88.35 -83.95 -93.75 -69.9 -98.7 -52.15 -98.75" fill="#ffffff" fill-rule="evenodd" stroke="none"/>
    <path d="M-52.15 -98.75 Q-35.6 -98.85 -21.05 -94.85 -6.4 -90.75 0.4 -84.15 14.85 -70.05 23.9 -34.4 28.45 -16.6 30.1 -1.55 L32.05 -1.25 Q34.35 -0.75 36.5 0.35 43.1 3.7 44.5 11.25 48.05 30.5 31.75 46.55 23.65 54.6 14.8 58.7 13.7 64.3 8.8 70.7 -0.9 83.45 -19.6 87.5 -38.3 91.55 -56.7 82.45 -62.45 79.55 -67.45 75.75 L-71.35 72.45 Q-91.15 72.6 -111.4 68.1 -151.95 59.1 -154.4 36.0 -156.25 19.15 -144.25 8.75 -138.3 3.55 -132.1 1.8 -132.15 -9.6 -129.1 -25.25 L-127.55 -32.35 Q-132.95 -34.4 -139.05 -37.45 -156.65 -46.3 -163.4 -57.6 -166.2 -62.35 -166.85 -69.9 -167.45 -77.5 -165.6 -84.7 -163.55 -92.5 -159.2 -97.25 -154.25 -102.6 -147.15 -102.8 -134.65 -103.2 -118.25 -88.9 -112.05 -83.45 -107.3 -78.0 -99.45 -88.35 -83.95 -93.75 -69.9 -98.7 -52.15 -98.75 Z" fill="none" stroke="#7b361c" stroke-linecap="square" stroke-linejoin="round" stroke-width="9.0"/>
    <path d="M-165.6 -84.7 Q-163.55 -92.5 -159.2 -97.25 -154.25 -102.6 -147.15 -102.8 -134.65 -103.2 -118.25 -88.9 -110.05 -81.7 -104.4 -74.45 L-122.85 -30.8 Q-130.25 -33.0 -139.05 -37.45 -156.65 -46.3 -163.4 -57.6 -166.2 -62.35 -166.85 -69.9 -167.45 -77.5 -165.6 -84.7" fill="#e96600" fill-rule="evenodd" stroke="none"/>
    <path d="M-161.8 -54.95 Q-160.8 -60.35 -157.55 -64.05 -154.0 -68.0 -149.3 -68.25 -144.0 -68.6 -138.4 -63.9 -128.55 -55.65 -121.75 -44.75 L-119.0 -39.95 -122.85 -30.8 Q-130.25 -33.0 -139.05 -37.45 -154.7 -45.35 -161.75 -55.15 L-161.8 -54.95" fill="#ffc580" fill-rule="evenodd" stroke="none"/>
    <path d="M-21.05 -94.85 Q-6.4 -90.75 0.4 -84.15 14.85 -70.05 23.9 -34.4 28.45 -16.6 30.1 -1.55 L32.05 -1.25 Q34.35 -0.75 36.5 0.35 43.1 3.7 44.5 11.25 48.05 30.5 31.75 46.55 23.65 54.6 14.8 58.7 13.7 64.3 8.8 70.7 -0.9 83.45 -19.6 87.5 -38.3 91.55 -56.7 82.45 -62.45 79.55 -67.45 75.75 L-71.35 72.45 Q-91.15 72.6 -111.4 68.1 -151.95 59.1 -154.4 36.0 -156.25 19.15 -144.25 8.75 -138.3 3.55 -132.1 1.8 -132.15 -9.6 -129.1 -25.25 -123.05 -56.55 -107.55 -77.6 -99.75 -88.25 -83.95 -93.75 -69.9 -98.7 -52.15 -98.75 -35.6 -98.85 -21.05 -94.85" fill="#ff8c1c" fill-rule="evenodd" stroke="none"/>
    <path d="M-89.5 -17.85 Q-87.9 -23.25 -83.55 -24.8 -79.15 -26.3 -74.6 -23.05 -69.95 -19.65 -67.8 -13.45 -65.6 -7.25 -67.2 -1.85 -68.7 3.7 -73.1 5.2 -77.45 6.75 -82.1 3.35 -86.7 0.05 -88.9 -6.15 -91.05 -12.35 -89.5 -17.85" fill="#1c1a17" fill-rule="evenodd" stroke="none"/>
    <path d="M17.4 -20.8 Q19.75 -17.4 20.55 -12.25 21.35 -7.1 20.1 -3.15 18.85 0.8 16.3 1.2 13.7 1.6 11.3 -1.8 8.9 -5.2 8.1 -10.35 7.3 -15.5 8.6 -19.45 9.85 -23.4 12.45 -23.8 15.0 -24.2 17.4 -20.8" fill="#1c1a17" fill-rule="evenodd" stroke="none"/>
    <path d="M-63.0 1.95 Q-44.9 -18.45 -17.15 -19.8 1.6 -20.75 9.5 -3.7 13.45 4.8 13.7 13.5 28.05 11.15 30.05 -1.85 L30.1 -1.55 32.05 -1.25 Q34.35 -0.75 36.5 0.35 43.1 3.7 44.5 11.25 48.05 30.5 31.75 46.55 23.65 54.6 14.8 58.7 13.7 64.3 8.8 70.7 -0.9 83.45 -19.6 87.5 -38.3 91.55 -56.7 82.45 -62.45 79.55 -67.45 75.75 L-71.35 72.45 Q-91.15 72.6 -111.4 68.1 -151.95 59.1 -154.4 36.0 -156.25 19.15 -144.25 8.75 -138.3 3.55 -132.1 1.8 L-132.1 1.5 Q-102.1 21.2 -75.6 22.05 -72.1 12.1 -63.0 1.95" fill="#ffc580" fill-rule="evenodd" stroke="none"/>
    <path d="M-73.3 -10.05 Q-74.35 -8.15 -75.85 -8.15 -77.35 -8.15 -78.4 -10.05 -79.45 -11.9 -79.45 -14.45 -79.45 -17.05 -78.4 -18.9 -77.35 -20.75 -75.85 -20.75 -74.35 -20.75 -73.3 -18.9 -72.25 -17.05 -72.25 -14.45 -72.25 -11.9 -73.3 -10.05" fill="#ffffff" fill-rule="evenodd" stroke="none"/>
    <path d="M15.8 -11.75 Q14.95 -10.35 13.75 -10.35 12.5 -10.35 11.65 -11.75 10.8 -13.2 10.8 -15.2 10.8 -17.2 11.65 -18.6 12.5 -20.05 13.75 -20.05 14.95 -20.05 15.8 -18.6 16.65 -17.2 16.65 -15.2 16.65 -13.2 15.8 -11.75" fill="#ffffff" fill-rule="evenodd" stroke="none"/>
    <path d="M14.5 -62.55 Q10.6 -63.35 6.95 -60.55 -0.2 -55.05 -0.75 -30.9 -1.0 -18.85 0.2 -7.85 L-16.4 -9.9 -32.9 -12.15 Q-33.45 -16.15 -36.4 -22.9 -42.2 -36.4 -53.8 -50.2 -63.4 -61.55 -75.0 -66.75 -86.7 -72.0 -98.0 -69.85 -109.95 -67.6 -119.35 -57.55 L-118.95 -57.95 Q-114.1 -68.7 -107.55 -77.6 -99.75 -88.25 -83.95 -93.75 -69.9 -98.7 -52.15 -98.75 -35.6 -98.85 -21.05 -94.85 -6.4 -90.75 0.4 -84.15 8.25 -76.5 14.5 -62.55" fill="#e96600" fill-rule="evenodd" stroke="none"/>
    <path d="M-15.7 66.95 Q-20.25 71.7 -23.2 73.6 -25.7 75.2 -31.6 74.9 -37.25 74.7 -43.6 72.9 -59.0 68.55 -60.75 61.7 -61.65 58.15 -56.7 53.0 -51.85 48.05 -43.75 43.8 -35.3 39.25 -26.85 37.4 -17.4 35.4 -10.6 37.35 1.8 41.0 -7.2 56.0 -10.45 61.4 -15.7 66.95" fill="#8a1d00" fill-rule="evenodd" stroke="none"/>
    <path d="M-3.45 43.9 Q-2.6 53.5 -5.65 64.4 -27.3 70.4 -40.95 42.35 -33.9 38.95 -26.85 37.4 -17.4 35.4 -10.6 37.35 -4.4 39.2 -3.55 43.85 L-3.45 43.9" fill="#ffffff" fill-rule="evenodd" stroke="none"/>
    <path d="M-32.55 -20.2 Q-24.35 -22.85 -15.45 -22.15 -7.0 -21.55 -0.45 -18.15 6.2 -14.7 8.75 -9.5 13.35 0.1 7.1 10.55 1.95 19.2 -9.05 26.3 -19.5 1.15 -48.15 -10.85 -41.7 -17.3 -32.55 -20.2" fill="#7b361c" fill-rule="evenodd" stroke="none"/>
    <path d="M-26.2 -21.65 L-15.45 -22.1 Q-7.0 -21.5 -0.45 -18.1 2.75 -16.45 5.0 -14.4 L4.95 -14.25 Q4.7 -11.3 -0.8 -9.65 -6.25 -8.05 -13.75 -8.65 -21.25 -9.35 -26.3 -11.85 -31.45 -14.4 -31.15 -17.35 -30.9 -20.05 -26.2 -21.65" fill="#ffffff" fill-rule="evenodd" stroke="none"/>
    <path d="M-11.85 37.05 Q-8.3 51.0 -11.4 65.4 L-14.1 65.45 Q-10.85 50.7 -14.75 36.55 L-11.85 37.05" fill="#a6a6a6" fill-rule="evenodd" stroke="none"/>
    <path d="M-212.65 30.4 Q-212.65 33.5 -232.5 70.75 L-250.8 104.4 Q-254.7 101.6 -259.5 94.25 -266.05 84.25 -268.0 76.95 -269.05 73.1 -263.25 52.35 -257.5 31.85 -258.75 28.6 -260.7 23.4 -263.65 20.7 -265.7 18.85 -269.75 16.55 L-264.55 12.1 Q-257.45 6.45 -254.9 6.3 -252.4 6.2 -247.9 8.85 -246.8 9.45 -245.85 10.1 L-231.55 26.35 -246.65 6.85 -247.0 7.1 Q-242.4 4.15 -237.4 1.3 -227.1 -4.45 -225.0 -4.05 -222.65 -3.6 -217.55 11.6 -212.65 26.1 -212.65 30.4" fill="#ffc580" fill-rule="evenodd" stroke="none"/>
    <path d="M257.55 119.3 Q246.4 124.0 233.4 123.7 L232.95 121.75 232.55 119.65 Q240.25 116.25 246.0 109.6 253.7 113.15 257.55 119.3" fill="#ffffff" fill-rule="evenodd" stroke="none"/>
    <path d="M257.55 119.3 Q246.4 124.0 233.4 123.7 L232.95 121.75 232.55 119.65 Q240.25 116.25 246.0 109.6 253.7 113.15 257.55 119.3 Z" fill="none" stroke="#150901" stroke-linecap="square" stroke-linejoin="round" stroke-width="9.0"/>
    <path d="M257.55 119.3 Q246.4 124.0 233.4 123.7 L232.95 121.75 232.55 119.65 Q240.25 116.25 246.0 109.6 253.7 113.15 257.55 119.3" fill="#562a07" fill-rule="evenodd" stroke="none"/>
    <path d="M159.1 89.6 Q162.35 85.9 166.45 83.8 173.05 80.35 186.45 82.05 201.25 83.9 211.0 91.25 216.2 95.2 223.15 104.3 230.1 113.3 236.3 124.2 251.1 150.15 250.4 164.3 249.7 177.75 236.0 186.95 225.9 193.7 209.6 197.65 204.65 198.85 197.85 196.8 L187.35 192.9 Q191.9 177.05 193.15 166.45 195.4 147.45 190.25 133.4 185.65 120.7 174.0 109.65 165.2 101.3 155.25 96.2 155.95 93.15 159.1 89.6" fill="#ffffff" fill-rule="evenodd" stroke="none"/>
    <path d="M159.1 89.6 Q162.35 85.9 166.45 83.8 173.05 80.35 186.45 82.05 201.25 83.9 211.0 91.25 216.2 95.2 223.15 104.3 230.1 113.3 236.3 124.2 251.1 150.15 250.4 164.3 249.7 177.75 236.0 186.95 225.9 193.7 209.6 197.65 204.65 198.85 197.85 196.8 L187.35 192.9 Q191.9 177.05 193.15 166.45 195.4 147.45 190.25 133.4 185.65 120.7 174.0 109.65 165.2 101.3 155.25 96.2 155.95 93.15 159.1 89.6 Z" fill="none" stroke="#150901" stroke-linecap="square" stroke-linejoin="round" stroke-width="9.0"/>
    <path d="M107.7 171.65 L98.5 172.1 112.75 163.95 Q112.0 155.25 113.9 144.05 117.75 121.7 131.15 109.6 144.5 97.5 160.25 95.35 168.1 94.3 173.25 95.65 224.15 122.9 208.95 188.1 205.7 189.95 198.85 191.4 185.1 194.3 166.8 192.15 148.75 190.05 136.0 182.7 L127.75 177.2 Q123.65 174.25 121.95 173.5 117.7 171.6 107.7 171.65" fill="#af7c3e" fill-rule="evenodd" stroke="none"/>
    <path d="M159.1 89.6 Q162.35 85.9 166.45 83.8 173.05 80.35 186.45 82.05 201.25 83.9 211.0 91.25 216.2 95.2 223.15 104.3 230.1 113.3 236.3 124.2 251.1 150.15 250.4 164.3 249.7 177.75 236.0 186.95 225.9 193.7 209.6 197.65 204.65 198.85 197.85 196.8 L187.35 192.9 Q191.9 177.05 193.15 166.45 195.4 147.45 190.25 133.4 185.65 120.7 174.0 109.65 165.2 101.3 155.25 96.2 155.95 93.15 159.1 89.6" fill="#562a07" fill-rule="evenodd" stroke="none"/>
  </g>
</svg>
