<?xml version="1.0" encoding="UTF-8" standalone="no"?>
<svg xmlns:xlink="http://www.w3.org/1999/xlink" height="13.4px" width="24.0px" xmlns="http://www.w3.org/2000/svg">
  <g transform="matrix(1.0, 0.0, 0.0, 1.0, 28.95, 9.5)">
    <path d="M-22.0 -3.7 L-23.9 -1.9 -23.55 -1.7 -24.35 -1.05 -25.15 -0.45 -25.3 -0.75 -24.95 -1.35 -25.05 -1.55 -25.15 -1.4 -25.3 -1.7 -25.05 -2.0 -25.15 -2.3 -24.2 -3.3 -22.95 -4.2 -22.85 -3.85 -22.15 -3.85 -22.0 -3.7 M-15.5 -0.25 L-15.2 -0.15 -13.2 -0.75 Q-12.75 -0.85 -12.2 -0.45 -11.75 -0.15 -11.75 0.15 L-12.1 0.5 -11.95 0.8 -12.2 1.2 -12.3 1.3 -11.65 1.35 -11.45 1.65 -12.3 1.95 -12.3 1.9 -12.9 0.7 -12.9 0.4 -12.0 -0.2 -14.8 0.4 -17.0 0.5 -18.9 0.8 Q-19.45 0.75 -19.9 1.5 -20.4 2.15 -20.4 2.75 L-20.3 2.85 -20.4 2.85 -20.45 3.1 -20.15 3.45 -20.1 3.45 -20.4 3.6 -20.85 3.3 -21.0 3.0 -20.8 2.65 -20.8 2.55 Q-21.25 2.55 -21.6 2.15 -22.0 1.7 -21.7 1.35 -22.2 1.4 -22.15 0.95 L-21.2 0.15 -20.9 0.3 -20.5 0.05 -19.7 0.35 -19.25 0.3 -17.95 -0.25 -17.75 -0.15 Q-17.6 0.0 -17.35 0.0 L-16.75 -0.35 -16.15 -0.65 Q-15.85 -0.65 -15.85 -0.15 L-15.5 -0.25 M-11.45 -4.65 L-12.1 -3.55 -12.95 -2.4 -13.1 -2.7 -12.9 -3.1 -12.9 -3.15 -13.35 -2.85 -13.7 -3.45 -13.3 -4.1 -12.8 -4.6 -12.2 -5.3 -11.65 -5.25 -11.25 -5.4 -11.15 -5.25 -11.45 -4.65 M-13.2 0.8 L-13.1 0.8 -13.0 0.95 -13.2 1.0 -13.2 0.8 M-18.5 3.5 L-16.35 2.85 -13.1 2.3 Q-17.05 3.85 -18.0 3.85 -18.35 3.85 -18.5 3.5 M-18.7 3.6 L-18.9 3.7 -19.55 3.9 -19.85 3.6 -19.45 3.65 -18.7 3.6" fill="#bf7926" fill-rule="evenodd" stroke="none"/>
    <path d="M-25.15 -5.4 Q-25.7 -2.85 -24.2 -0.75 L-23.0 -0.85 Q-20.9 -1.15 -19.15 -1.75 -16.85 -2.55 -15.05 -3.9 L-14.65 -4.2 -14.3 -4.25 -13.55 -4.05 -13.0 -3.7 -10.95 -2.7 Q-9.2 -2.0 -7.55 -2.1 L-7.5 -2.1 -6.95 -2.1 Q-6.2 -4.85 -7.1 -7.5 L-8.15 -7.6 -10.25 -7.8 -12.3 -7.9 -14.7 -7.8 -18.5 -7.4 -25.05 -6.05 -25.1 -5.95 -25.15 -5.4 M-5.85 -0.8 L-7.55 -0.65 Q-9.5 -0.65 -11.6 -1.5 -12.7 -1.95 -13.75 -2.55 L-14.3 -2.9 Q-16.85 -0.85 -20.45 0.0 L-24.0 0.6 -24.65 0.6 -24.9 0.55 Q-27.45 -2.35 -26.4 -6.25 L-26.2 -7.2 Q-16.4 -9.75 -9.5 -9.15 L-6.05 -8.7 Q-4.5 -4.85 -5.85 -0.8" fill="#ffcc33" fill-rule="evenodd" stroke="none"/>
    <path d="M-25.15 -5.4 L-25.1 -5.95 -25.05 -6.05 -18.5 -7.4 -14.7 -7.8 -12.3 -7.9 -10.25 -7.8 -8.15 -7.6 -7.1 -7.5 Q-6.2 -4.85 -6.95 -2.1 L-7.5 -2.1 -7.55 -2.1 Q-7.0 -4.2 -7.7 -6.8 L-8.5 -6.95 -10.65 -7.2 -12.7 -7.3 -15.25 -7.1 -19.05 -6.6 -25.15 -5.4 M-5.85 -0.8 L-7.85 0.4 -7.9 0.5 -8.05 0.55 -8.55 0.6 -12.55 0.15 Q-14.35 -0.4 -16.25 -1.55 -19.7 1.0 -24.75 1.65 L-26.85 1.85 Q-29.75 -1.4 -28.15 -5.85 L-26.2 -7.2 -26.4 -6.25 Q-27.45 -2.35 -24.9 0.55 L-24.65 0.6 -24.0 0.6 -20.45 0.0 Q-16.85 -0.85 -14.3 -2.9 L-13.75 -2.55 Q-12.7 -1.95 -11.6 -1.5 -9.5 -0.65 -7.55 -0.65 L-5.85 -0.8" fill="#cd960d" fill-rule="evenodd" stroke="none"/>
    <path d="M-23.0 -0.85 L-24.2 -0.75 Q-25.7 -2.85 -25.15 -5.4 L-19.05 -6.6 -23.0 -0.85 M-7.55 -2.1 Q-9.2 -2.0 -10.95 -2.7 L-13.0 -3.7 -10.65 -7.2 -8.5 -6.95 -7.7 -6.8 Q-7.0 -4.2 -7.55 -2.1 M-14.65 -4.2 L-15.05 -3.9 Q-16.85 -2.55 -19.15 -1.75 L-15.25 -7.1 -12.7 -7.3 -14.65 -4.2" fill="#ff0000" fill-rule="evenodd" stroke="none"/>
    <path d="M-13.0 -3.7 L-13.55 -4.05 -14.3 -4.25 -14.65 -4.2 -12.7 -7.3 -10.65 -7.2 -13.0 -3.7 M-19.15 -1.75 Q-20.9 -1.15 -23.0 -0.85 L-19.05 -6.6 -15.25 -7.1 -19.15 -1.75" fill="#ffffff" fill-rule="evenodd" stroke="none"/>
    <path d="M-26.2 -7.2 L-28.15 -5.85 Q-29.75 -1.4 -26.85 1.85 L-24.75 1.65 Q-19.7 1.0 -16.25 -1.55 -14.35 -0.4 -12.55 0.15 L-8.55 0.6 -8.05 0.55 -7.9 0.5 -7.85 0.4 -5.85 -0.8 M-26.2 -7.2 Q-16.4 -9.75 -9.5 -9.15 L-6.05 -8.7 Q-4.5 -4.85 -5.85 -0.8" fill="none" stroke="#856301" stroke-linecap="round" stroke-linejoin="round" stroke-width="0.5"/>
  </g>
</svg>
