<?xml version="1.0" encoding="UTF-8" standalone="no"?>
<svg xmlns:xlink="http://www.w3.org/1999/xlink" height="45.0px" width="51.55px" xmlns="http://www.w3.org/2000/svg">
  <g transform="matrix(1.0, 0.0, 0.0, 1.0, -15.55, -26.7)">
    <path d="M19.35 29.8 L63.9 29.8 63.9 69.2 19.35 69.2 19.35 29.8" fill="#694823" fill-rule="evenodd" stroke="none"/>
    <path d="M51.0 32.6 L51.05 32.95 50.7 33.1 50.35 32.95 50.35 32.9 50.35 32.8 50.35 32.6 50.45 32.5 50.55 32.45 50.7 32.4 51.0 32.6 M54.15 36.7 L54.2 36.8 54.25 36.9 54.25 37.15 54.2 37.4 54.1 37.55 53.8 37.75 53.65 37.75 53.4 37.65 53.3 37.55 53.15 37.45 53.15 37.35 53.15 37.25 53.15 36.95 53.2 36.75 53.4 36.65 53.65 36.55 53.65 36.45 53.8 36.55 54.0 36.6 54.15 36.7 M56.2 33.7 L56.2 33.55 56.3 33.5 56.55 33.25 56.7 33.2 56.9 33.3 57.1 33.45 57.15 33.55 57.25 33.75 57.2 33.85 57.15 33.95 56.9 34.15 Q56.6 34.3 56.4 34.05 L56.2 33.8 56.2 33.7 M41.0 31.7 L41.25 31.95 41.0 32.35 Q40.65 32.35 40.6 32.05 40.6 31.7 41.0 31.7 M48.7 32.4 L49.0 32.6 49.05 32.95 48.7 33.1 48.35 32.95 48.35 32.9 48.35 32.8 48.35 32.6 48.45 32.5 48.55 32.45 48.7 32.4 M46.5 33.7 L46.5 33.5 46.5 33.1 46.5 33.05 46.6 32.9 46.75 32.85 46.95 32.7 47.3 32.7 47.55 32.85 47.75 32.9 47.8 33.05 47.8 33.1 47.85 33.25 47.85 33.4 47.85 33.5 47.85 33.6 47.8 33.7 47.75 33.8 47.5 34.1 47.2 34.2 46.7 34.2 46.6 34.05 46.5 33.9 46.5 33.7 M49.75 35.4 L49.8 35.6 49.8 35.7 49.5 35.7 49.45 35.55 49.65 35.4 49.75 35.4 M48.25 34.65 Q48.25 34.35 48.55 34.35 L48.8 34.65 48.55 34.9 48.25 34.65 M47.6 42.4 L47.3 42.55 46.95 42.4 46.85 42.35 46.85 42.2 46.9 42.1 46.95 41.95 47.1 41.9 47.3 41.8 47.3 41.75 47.6 42.0 Q47.8 42.2 47.6 42.4 M42.85 40.5 L43.1 40.3 43.25 40.25 43.45 40.25 43.65 40.3 43.8 40.4 43.9 40.5 44.0 40.6 44.05 40.75 44.1 40.8 44.05 41.1 44.0 41.3 43.85 41.55 43.75 41.6 43.6 41.6 43.45 41.6 43.05 41.35 42.95 41.25 42.9 41.15 42.85 41.05 42.85 40.8 42.85 40.5 M45.5 40.8 Q45.4 41.05 45.1 41.0 L44.8 40.8 44.8 40.75 44.8 40.6 44.8 40.5 44.85 40.4 45.0 40.35 45.1 40.3 45.45 40.5 45.5 40.8 M43.9 42.35 Q43.85 41.95 44.2 41.95 L44.2 41.9 44.45 42.35 44.2 42.6 43.9 42.35 M45.45 42.95 L45.3 42.85 45.35 42.75 45.55 42.65 45.55 42.9 45.45 42.95 M45.3 44.65 L45.45 44.65 Q45.7 44.7 45.75 44.9 L45.65 45.35 45.25 45.4 45.05 45.05 45.05 44.95 45.05 44.85 45.15 44.7 45.3 44.65 M43.5 45.4 L43.65 45.5 43.7 45.6 43.75 45.7 43.75 45.85 43.65 45.95 43.45 46.15 43.05 46.15 42.9 45.95 42.85 45.85 42.85 45.7 42.85 45.6 42.9 45.5 43.05 45.4 43.25 45.35 43.25 45.3 43.5 45.4 M42.6 47.1 L42.6 47.4 42.5 47.6 42.35 47.8 42.25 47.85 42.05 47.85 41.9 47.9 41.65 47.8 41.5 47.7 41.35 47.55 41.35 47.45 41.3 47.35 41.3 47.25 41.3 47.15 41.3 47.0 41.35 46.85 41.35 46.8 41.4 46.65 41.55 46.55 41.7 46.5 41.9 46.45 42.15 46.55 42.4 46.75 42.6 47.1 M44.95 47.95 L44.7 48.2 44.4 47.95 Q44.4 47.6 44.7 47.6 L44.95 47.95 M43.6 47.1 L43.85 47.3 43.9 47.55 43.6 47.8 43.25 47.6 43.2 47.55 43.2 47.4 43.2 47.3 43.35 47.2 43.45 47.15 43.6 47.1 M54.25 41.9 Q54.55 41.95 54.45 42.25 L54.25 42.45 54.0 42.2 54.25 41.9 M55.0 40.6 L54.75 40.35 Q54.75 40.05 55.0 40.05 L55.3 40.35 55.0 40.6 M55.2 45.6 Q54.85 45.65 54.85 45.35 54.8 44.95 55.2 44.95 L55.45 45.3 55.2 45.6 M34.65 33.2 L34.95 33.4 34.95 33.7 34.8 33.85 34.45 33.85 34.25 33.7 34.25 33.6 34.25 33.5 34.3 33.4 34.4 33.25 34.65 33.2 M31.1 34.8 Q30.75 34.8 30.8 34.45 30.8 34.2 31.1 34.2 L31.35 34.45 31.1 34.8 M39.25 35.2 L39.0 34.95 39.25 34.65 39.55 34.95 39.25 35.2 M39.15 32.9 Q38.8 32.9 38.8 32.6 38.8 32.35 39.15 32.35 L39.4 32.6 39.15 32.9 M24.45 33.25 L24.65 33.45 24.85 33.6 24.9 33.95 24.85 34.2 24.65 34.35 24.6 34.4 24.2 34.3 23.95 34.15 23.85 33.9 23.85 33.8 23.9 33.7 24.1 33.5 24.25 33.3 24.45 33.25 M28.0 35.8 L27.7 35.55 Q27.7 35.3 28.0 35.3 L28.25 35.55 28.0 35.8 M27.2 33.25 Q27.2 32.9 27.55 32.9 L27.85 33.2 27.55 33.55 27.2 33.25 M27.45 39.4 L27.65 39.15 27.9 39.45 27.65 39.7 Q27.4 39.7 27.45 39.4 M23.25 45.25 L23.35 45.15 23.6 45.5 23.35 45.7 23.25 45.7 23.25 45.25 M28.95 48.1 L29.0 48.2 29.0 48.45 29.0 48.55 28.95 48.7 28.8 48.75 28.35 48.7 28.15 48.5 28.15 48.35 28.2 48.2 28.25 48.05 28.3 48.0 28.45 48.0 28.6 47.95 28.8 48.0 28.95 48.1 M37.15 40.8 L37.4 41.1 37.4 41.5 37.15 41.65 36.75 41.5 36.7 41.4 36.7 41.25 36.7 41.15 36.75 41.05 36.85 41.0 37.15 40.9 37.15 40.8 M34.7 45.6 L34.9 45.55 34.9 45.75 34.8 45.9 34.65 45.75 Q34.55 45.65 34.7 45.6 M35.1 49.4 L34.95 49.35 Q34.9 49.25 35.0 49.2 L35.15 49.15 35.15 49.35 35.1 49.4 M38.2 50.65 L37.9 50.95 Q37.55 50.95 37.5 50.55 37.45 50.25 37.9 50.3 L37.9 50.25 38.2 50.65 M33.55 61.8 L33.65 61.9 33.75 62.15 33.8 62.35 33.75 62.45 33.6 62.7 33.25 62.8 32.85 62.7 32.7 62.55 32.65 62.45 32.65 62.3 32.65 62.25 32.7 62.1 32.8 62.0 32.9 61.85 33.0 61.8 33.05 61.75 33.25 61.75 33.25 61.7 33.55 61.8 M25.55 55.55 L25.8 55.8 Q26.0 55.95 25.85 56.1 L25.65 56.25 25.4 56.25 25.15 56.1 25.15 56.0 25.15 55.9 25.15 55.8 25.35 55.65 25.55 55.55 M25.6 53.65 L25.2 53.8 24.95 53.65 24.85 53.5 24.85 53.4 24.9 53.3 25.0 53.15 25.05 53.15 25.2 53.1 25.5 53.3 25.6 53.65 M29.15 55.5 L29.15 55.45 29.2 55.3 29.2 55.2 29.3 55.05 29.4 55.0 29.5 54.95 29.7 54.95 29.7 54.9 29.95 55.0 30.1 55.15 30.2 55.35 30.3 55.55 30.2 55.65 30.05 55.9 29.7 56.0 29.3 55.9 29.2 55.8 29.15 55.65 29.15 55.5 M23.85 52.3 L23.55 52.3 23.55 51.55 23.7 51.5 23.85 51.6 24.0 51.65 24.1 51.8 24.1 52.05 24.1 52.15 24.0 52.25 23.85 52.3 M23.7 54.25 L23.95 54.6 23.7 54.85 23.65 54.85 23.6 54.3 23.7 54.25 M24.45 60.9 Q24.15 60.95 24.1 60.6 24.1 60.25 24.45 60.25 L24.75 60.55 24.45 60.9 M28.5 58.9 Q28.5 58.6 28.75 58.6 L29.0 58.9 28.75 59.25 Q28.45 59.25 28.5 58.9 M28.5 65.35 L28.75 65.65 28.75 65.8 28.1 65.55 Q28.15 65.35 28.5 65.35 M35.9 63.25 L36.15 63.55 35.9 63.85 Q35.55 63.85 35.6 63.55 35.6 63.25 35.9 63.25 M36.45 66.1 Q36.55 65.85 36.8 65.85 L37.15 66.1 37.15 66.35 36.45 66.25 36.45 66.1 M35.75 65.1 Q35.75 64.8 36.05 64.75 L36.3 65.1 36.05 65.35 35.75 65.1 M39.15 65.65 L39.15 66.0 38.8 66.15 38.5 66.0 38.45 65.95 38.45 65.85 38.45 65.65 38.55 65.55 38.65 65.5 38.8 65.45 39.15 65.65 M34.7 65.85 L34.65 65.65 34.8 65.5 34.9 65.5 34.95 65.75 34.95 65.85 34.7 65.85 M33.35 65.1 Q33.3 64.75 33.7 64.75 L33.95 65.0 Q34.05 65.4 33.7 65.4 33.35 65.4 33.35 65.1 M55.95 52.75 Q55.9 52.35 56.25 52.35 L56.55 52.7 56.25 53.0 55.95 52.75 M52.1 51.0 L52.1 51.15 52.05 51.2 51.8 51.45 51.45 51.45 51.25 51.2 51.2 51.15 51.2 51.0 51.2 50.9 51.25 50.8 51.35 50.7 51.65 50.6 51.65 50.55 51.85 50.65 51.95 50.8 52.1 50.9 52.1 51.0 M54.95 56.45 Q54.95 56.15 55.2 56.0 L55.5 55.8 55.7 55.9 55.9 55.95 55.95 56.1 56.0 56.3 56.0 56.65 55.7 56.95 55.5 57.1 55.2 56.85 54.95 56.45 M51.0 58.55 L51.0 58.9 51.0 59.25 50.9 59.6 50.7 59.65 50.55 59.7 50.4 59.7 50.1 59.6 50.0 59.55 49.9 59.35 49.9 59.3 49.85 59.05 49.8 58.8 49.8 58.6 49.9 58.5 50.0 58.35 50.1 58.3 50.55 58.15 50.55 58.1 50.75 58.2 50.9 58.3 51.0 58.55 M58.05 58.2 Q58.1 58.6 57.8 58.6 L57.45 58.3 Q57.45 57.95 57.8 57.95 L58.05 58.2 M40.6 61.65 L40.6 61.6 40.6 61.5 40.6 61.4 40.7 61.2 40.8 61.15 41.0 61.15 41.25 61.3 41.3 61.65 41.0 61.85 40.6 61.65 M46.7 57.7 Q46.35 57.7 46.35 57.35 46.3 57.05 46.7 57.05 L46.95 57.3 46.7 57.7 M47.15 59.8 L46.85 60.05 Q46.55 60.05 46.6 59.8 46.6 59.55 46.85 59.55 L47.15 59.8 M58.6 62.35 Q58.3 62.35 58.35 62.1 58.4 61.85 58.6 61.85 58.8 61.9 58.8 62.2 L58.6 62.35 M56.0 63.0 L55.95 63.25 55.85 63.4 55.65 63.45 55.25 63.4 55.05 63.15 55.0 63.0 55.05 62.9 55.2 62.75 55.25 62.7 55.3 62.7 55.5 62.65 55.5 62.55 55.7 62.7 55.9 62.8 56.0 63.0 M50.7 66.1 L50.95 66.2 50.55 66.15 50.7 66.1" fill="#956531" fill-rule="evenodd" stroke="none"/>
    <path d="M52.75 45.05 Q53.45 44.7 54.05 45.4 L55.25 46.3 56.8 46.55 57.7 46.35 57.7 46.5 Q57.35 46.65 57.15 46.9 56.3 47.45 55.25 47.4 54.3 47.4 53.55 46.7 L52.5 45.3 52.6 45.15 52.7 45.1 52.75 45.05 M55.5 48.35 L55.35 48.25 55.5 48.25 55.5 48.35" fill="#f1da32" fill-rule="evenodd" stroke="none"/>
    <path d="M57.7 46.35 L57.7 46.3 57.75 46.25 57.8 46.2 57.9 46.2 57.95 46.2 57.95 46.3 57.95 46.5 57.95 46.65 57.9 46.65 57.8 46.7 57.7 46.65 57.7 46.6 57.7 46.5 57.7 46.35 M52.5 45.25 L52.45 45.15 52.4 45.0 52.3 44.85 52.25 44.75 52.25 44.7 52.25 44.6 52.3 44.6 52.35 44.45 52.4 44.45 52.45 44.5 52.45 44.45 52.5 44.5 52.5 44.65 52.55 44.7 52.6 44.8 52.7 44.9 52.75 45.0 52.75 45.05 52.7 45.1 52.6 45.15 52.5 45.3 52.5 45.25" fill="#635707" fill-rule="evenodd" stroke="none"/>
    <path d="M57.95 46.65 Q57.95 47.7 56.5 48.15 L55.65 48.35 55.55 48.25 55.5 48.35 55.5 48.25 55.35 48.25 Q54.4 48.25 53.55 47.7 52.9 47.2 52.6 46.5 L52.35 45.85 Q52.25 45.55 52.4 45.35 L52.45 45.35 52.5 45.25 52.5 45.3 53.55 46.7 Q54.3 47.4 55.25 47.4 56.3 47.45 57.15 46.9 57.35 46.65 57.7 46.5 L57.7 46.6 57.7 46.65 57.8 46.7 57.9 46.65 57.95 46.65" fill="#c7af0e" fill-rule="evenodd" stroke="none"/>
    <path d="M53.6 57.5 L53.5 57.45 53.45 57.35 53.35 57.15 53.3 57.05 53.3 56.95 53.3 56.85 53.35 56.85 53.4 56.75 53.45 56.75 53.5 56.8 53.55 56.75 53.6 56.8 53.6 56.9 53.65 56.95 53.7 57.1 53.75 57.2 53.8 57.35 53.8 57.4 53.75 57.45 53.7 57.45 53.6 57.55 53.6 57.5 M58.75 58.7 L58.75 58.55 58.8 58.5 58.95 58.5 59.0 58.5 59.05 58.5 59.05 58.6 59.05 58.8 59.0 58.95 58.95 58.95 58.8 59.0 58.75 58.95 58.75 58.8 58.75 58.7" fill="#635707" fill-rule="evenodd" stroke="none"/>
    <path d="M59.0 58.95 Q59.0 60.0 57.5 60.45 L56.75 60.6 56.65 60.55 56.6 60.6 56.6 60.55 56.45 60.55 Q55.45 60.55 54.65 59.95 54.0 59.5 53.7 58.8 L53.4 58.1 Q53.3 57.85 53.45 57.65 L53.5 57.65 53.6 57.5 53.6 57.55 54.65 59.0 Q55.35 59.7 56.3 59.7 57.4 59.75 58.15 59.2 L58.75 58.8 58.75 58.95 58.8 59.0 58.95 58.95 59.0 58.95" fill="#c7af0e" fill-rule="evenodd" stroke="none"/>
    <path d="M53.8 57.4 Q54.55 56.95 55.1 57.7 55.6 58.35 56.3 58.6 L57.9 58.8 58.75 58.7 58.75 58.8 58.15 59.2 Q57.4 59.75 56.3 59.7 55.35 59.7 54.65 59.0 L53.6 57.55 53.7 57.45 53.75 57.45 53.8 57.4 M56.6 60.6 L56.45 60.55 56.6 60.55 56.6 60.6" fill="#f1da32" fill-rule="evenodd" stroke="none"/>
    <path d="M47.4 53.4 L47.35 53.3 47.35 53.15 47.4 53.15 47.45 53.1 47.5 53.05 47.55 53.05 47.6 53.1 47.75 53.35 47.75 53.45 47.75 53.5 47.7 53.6 47.55 53.6 47.5 53.55 47.45 53.5 47.4 53.4 M42.4 55.0 L42.3 55.0 42.2 54.95 41.95 54.8 41.85 54.75 41.85 54.7 41.8 54.6 41.85 54.6 41.8 54.4 41.85 54.4 41.95 54.4 42.05 54.4 42.15 54.45 42.25 54.6 42.35 54.65 42.45 54.75 42.5 54.8 42.45 54.9 42.45 55.05 42.4 55.0" fill="#635707" fill-rule="evenodd" stroke="none"/>
    <path d="M46.55 56.15 L46.35 56.15 46.5 56.1 46.55 56.15 M42.5 54.8 Q42.9 54.1 43.75 54.4 L45.3 54.45 Q46.05 54.4 46.75 53.95 L47.4 53.4 47.45 53.5 47.2 54.1 Q46.8 54.95 45.85 55.45 45.0 55.95 44.05 55.8 43.1 55.55 42.45 55.05 L42.45 54.9 42.5 54.8" fill="#f1da32" fill-rule="evenodd" stroke="none"/>
    <path d="M47.75 53.45 Q48.25 54.35 47.25 55.5 L46.7 56.05 46.55 56.05 46.55 56.15 46.5 56.1 46.35 56.15 Q45.55 56.65 44.5 56.55 43.7 56.55 43.1 56.05 L42.5 55.65 Q42.25 55.4 42.3 55.2 L42.35 55.15 42.4 55.0 42.45 55.05 Q43.1 55.55 44.05 55.8 45.0 55.95 45.85 55.45 46.8 54.95 47.2 54.1 L47.45 53.5 47.5 53.55 47.55 53.6 47.7 53.6 47.75 53.5 47.75 53.45" fill="#c7af0e" fill-rule="evenodd" stroke="none"/>
    <path d="M60.35 29.85 L60.8 30.85 Q60.8 32.3 59.05 32.35 57.3 32.4 57.3 30.3 57.3 28.95 58.3 28.95 59.65 28.95 60.35 29.85 M60.35 34.15 Q60.35 33.45 60.9 32.55 61.65 31.3 63.15 31.3 65.1 31.3 65.65 32.55 L65.9 33.85 65.5 35.95 Q64.95 37.75 64.25 37.0 L62.95 36.6 Q61.85 36.4 61.3 35.95 L60.4 34.95 60.35 34.15 M43.6 29.6 Q43.6 31.2 40.8 31.2 38.05 31.2 38.05 29.45 38.05 29.05 38.5 28.5 38.9 27.85 39.75 27.85 41.9 27.85 42.95 28.55 43.6 29.05 43.6 29.6 M62.05 37.25 Q63.25 37.25 63.55 38.75 L63.65 40.25 Q63.65 41.85 62.15 41.2 60.55 40.6 60.55 38.8 60.55 38.3 60.8 37.95 61.15 37.25 62.05 37.25 M61.7 45.45 Q62.1 45.45 62.2 45.7 L62.3 46.05 Q62.3 46.65 61.65 46.65 61.1 46.7 61.1 46.1 61.1 45.45 61.7 45.45 M33.55 28.55 L33.95 29.75 Q33.95 30.2 33.55 30.65 32.8 31.25 31.15 31.1 30.0 31.2 29.25 30.15 28.6 29.35 28.6 28.75 28.6 27.45 31.9 27.45 32.9 27.45 33.55 28.55 M25.5 30.75 Q25.5 31.55 24.45 31.6 23.5 31.7 23.5 30.95 L23.7 30.4 Q24.1 30.0 24.65 30.0 25.2 30.0 25.4 30.4 L25.5 30.75 M65.6 50.65 Q66.0 51.25 66.0 51.7 L65.8 52.9 Q65.4 53.5 64.3 53.7 63.65 53.8 62.8 53.0 61.85 52.25 61.85 51.7 61.85 51.0 62.2 50.5 62.7 49.7 63.9 49.7 64.95 49.7 65.6 50.65 M65.3 54.6 L65.3 54.9 Q65.3 55.9 64.4 56.0 63.55 56.05 63.55 54.85 63.55 54.25 64.55 54.25 65.15 54.25 65.3 54.6 M66.35 67.2 Q66.35 70.15 63.9 70.3 61.5 70.45 61.5 67.7 61.5 66.65 61.75 65.85 62.25 64.35 63.5 64.35 65.35 64.35 66.0 65.75 L66.35 67.2 M61.2 69.2 Q61.2 70.0 60.55 70.0 59.95 69.95 59.95 69.3 59.95 68.55 60.5 68.55 L61.1 68.9 61.2 69.2" fill="#cccccc" fill-rule="evenodd" stroke="none"/>
    <path d="M57.1 29.75 Q57.1 30.5 55.9 30.55 54.65 30.65 54.65 29.45 54.65 28.55 55.9 28.55 56.5 28.55 56.8 29.1 L57.1 29.75 M46.95 29.2 L46.95 29.55 Q46.95 30.8 45.9 30.85 44.75 30.95 44.75 29.8 L44.85 29.2 Q45.15 28.85 46.15 28.85 46.75 28.85 46.95 29.2 M66.0 40.55 Q66.0 42.35 64.9 41.55 63.9 40.7 63.9 39.9 L64.1 39.3 Q64.35 39.0 64.95 39.0 65.75 39.0 65.95 39.75 L66.0 40.55 M26.15 29.05 L24.95 29.55 Q24.2 29.55 23.9 29.05 23.75 28.7 23.75 28.35 23.75 27.45 25.0 27.45 26.45 27.45 26.85 27.85 L26.95 28.25 26.15 29.05 M61.45 54.15 Q61.6 53.7 61.9 53.7 62.55 53.7 62.8 54.35 63.25 54.55 63.1 55.05 63.1 56.2 62.3 56.1 L62.05 56.05 Q61.25 56.55 61.25 54.95 L61.45 54.15 M63.8 61.1 Q65.1 61.1 65.35 61.65 L65.4 62.2 Q65.4 63.85 63.55 63.85 62.65 63.85 62.15 63.15 61.8 62.8 61.8 62.4 61.8 62.0 62.15 61.65 62.7 61.1 63.8 61.1" fill="#afa9c0" fill-rule="evenodd" stroke="none"/>
    <path d="M53.0 28.75 L53.55 29.6 Q53.55 30.8 50.7 31.35 47.95 31.95 47.95 29.3 47.95 28.6 48.65 28.25 L51.65 27.85 Q52.25 27.85 53.0 28.75 M65.35 42.8 L65.6 43.45 Q65.6 45.4 63.65 45.7 61.75 46.0 61.75 44.2 61.75 43.6 62.15 43.1 62.7 42.2 64.05 42.2 64.85 42.2 65.35 42.8 M61.3 58.9 Q62.0 56.5 63.25 56.5 64.8 56.5 65.6 57.4 66.15 58.05 66.15 58.6 66.15 60.8 63.7 60.35 61.3 59.95 61.3 58.9" fill="#bdb8cb" fill-rule="evenodd" stroke="none"/>
    <path d="M59.25 34.35 Q58.45 34.35 58.45 33.55 58.45 33.25 58.7 33.05 L59.3 32.85 Q59.85 32.85 60.0 33.25 L60.05 33.7 Q60.05 34.35 59.25 34.35 M62.7 30.65 Q61.25 30.7 61.25 29.5 L61.5 28.8 Q61.85 28.35 62.55 28.35 63.65 28.35 64.05 28.85 L64.15 29.45 Q64.15 30.55 62.7 30.65 M62.45 47.1 Q63.1 46.5 63.95 46.5 64.65 46.5 64.8 46.85 L64.85 47.3 Q64.85 48.65 63.4 48.8 61.85 49.05 61.85 48.0 61.85 47.6 62.45 47.1 M36.35 30.75 Q35.05 31.1 35.05 30.0 35.05 29.55 35.2 29.4 35.5 28.95 36.45 28.95 37.2 28.95 37.5 29.4 L37.65 29.9 Q37.65 30.4 36.35 30.75 M26.3 29.4 Q26.75 29.1 27.25 29.1 28.1 29.1 28.3 29.45 L28.35 29.95 Q28.35 30.95 27.3 30.95 26.6 30.95 26.2 30.55 L25.95 30.05 Q25.95 29.75 26.3 29.4" fill="#a49db7" fill-rule="evenodd" stroke="none"/>
    <path d="M60.35 29.85 L60.8 30.85 Q60.8 32.3 59.05 32.35 57.3 32.4 57.3 30.3 57.3 28.95 58.3 28.95 59.65 28.95 60.35 29.85 M57.1 29.75 Q57.1 30.5 55.9 30.55 54.65 30.65 54.65 29.45 54.65 28.55 55.9 28.55 56.5 28.55 56.8 29.1 L57.1 29.75 M53.0 28.75 L53.55 29.6 Q53.55 30.8 50.7 31.35 47.95 31.95 47.95 29.3 47.95 28.6 48.65 28.25 L51.65 27.85 Q52.25 27.85 53.0 28.75 M59.25 34.35 Q58.45 34.35 58.45 33.55 58.45 33.25 58.7 33.05 L59.3 32.85 Q59.85 32.85 60.0 33.25 L60.05 33.7 Q60.05 34.35 59.25 34.35 M60.35 34.15 Q60.35 33.45 60.9 32.55 61.65 31.3 63.15 31.3 65.1 31.3 65.65 32.55 L65.9 33.85 65.5 35.95 Q64.95 37.75 64.25 37.0 L62.95 36.6 Q61.85 36.4 61.3 35.95 L60.4 34.95 60.35 34.15 M46.95 29.2 L46.95 29.55 Q46.95 30.8 45.9 30.85 44.75 30.95 44.75 29.8 L44.85 29.2 Q45.15 28.85 46.15 28.85 46.75 28.85 46.95 29.2 M43.6 29.6 Q43.6 31.2 40.8 31.2 38.05 31.2 38.05 29.45 38.05 29.05 38.5 28.5 38.9 27.85 39.75 27.85 41.9 27.85 42.95 28.55 43.6 29.05 43.6 29.6 M62.7 30.65 Q61.25 30.7 61.25 29.5 L61.5 28.8 Q61.85 28.35 62.55 28.35 63.65 28.35 64.05 28.85 L64.15 29.45 Q64.15 30.55 62.7 30.65 M66.0 40.55 Q66.0 42.35 64.9 41.55 63.9 40.7 63.9 39.9 L64.1 39.3 Q64.35 39.0 64.95 39.0 65.75 39.0 65.95 39.75 L66.0 40.55 M62.05 37.25 Q63.25 37.25 63.55 38.75 L63.65 40.25 Q63.65 41.85 62.15 41.2 60.55 40.6 60.55 38.8 60.55 38.3 60.8 37.95 61.15 37.25 62.05 37.25 M65.35 42.8 L65.6 43.45 Q65.6 45.4 63.65 45.7 61.75 46.0 61.75 44.2 61.75 43.6 62.15 43.1 62.7 42.2 64.05 42.2 64.85 42.2 65.35 42.8 M61.7 45.45 Q62.1 45.45 62.2 45.7 L62.3 46.05 Q62.3 46.65 61.65 46.65 61.1 46.7 61.1 46.1 61.1 45.45 61.7 45.45 M62.45 47.1 Q63.1 46.5 63.95 46.5 64.65 46.5 64.8 46.85 L64.85 47.3 Q64.85 48.65 63.4 48.8 61.85 49.05 61.85 48.0 61.85 47.6 62.45 47.1 M36.35 30.75 Q35.05 31.1 35.05 30.0 35.05 29.55 35.2 29.4 35.5 28.95 36.45 28.95 37.2 28.95 37.5 29.4 L37.65 29.9 Q37.65 30.4 36.35 30.75 M33.55 28.55 L33.95 29.75 Q33.95 30.2 33.55 30.65 32.8 31.25 31.15 31.1 30.0 31.2 29.25 30.15 28.6 29.35 28.6 28.75 28.6 27.45 31.9 27.45 32.9 27.45 33.55 28.55 M26.15 29.05 L24.95 29.55 Q24.2 29.55 23.9 29.05 23.75 28.7 23.75 28.35 23.75 27.45 25.0 27.45 26.45 27.45 26.85 27.85 L26.95 28.25 26.15 29.05 M25.5 30.75 Q25.5 31.55 24.45 31.6 23.5 31.7 23.5 30.95 L23.7 30.4 Q24.1 30.0 24.65 30.0 25.2 30.0 25.4 30.4 L25.5 30.75 M26.3 29.4 Q26.75 29.1 27.25 29.1 28.1 29.1 28.3 29.45 L28.35 29.95 Q28.35 30.95 27.3 30.95 26.6 30.95 26.2 30.55 L25.95 30.05 Q25.95 29.75 26.3 29.4 M65.6 50.65 Q66.0 51.25 66.0 51.7 L65.8 52.9 Q65.4 53.5 64.3 53.7 63.65 53.8 62.8 53.0 61.85 52.25 61.85 51.7 61.85 51.0 62.2 50.5 62.7 49.7 63.9 49.7 64.95 49.7 65.6 50.65 M61.45 54.15 Q61.6 53.7 61.9 53.7 62.55 53.7 62.8 54.35 63.25 54.55 63.1 55.05 63.1 56.2 62.3 56.1 L62.05 56.05 Q61.25 56.55 61.25 54.95 L61.45 54.15 M65.3 54.6 L65.3 54.9 Q65.3 55.9 64.4 56.0 63.55 56.05 63.55 54.85 63.55 54.25 64.55 54.25 65.15 54.25 65.3 54.6 M63.8 61.1 Q65.1 61.1 65.35 61.65 L65.4 62.2 Q65.4 63.85 63.55 63.85 62.65 63.85 62.15 63.15 61.8 62.8 61.8 62.4 61.8 62.0 62.15 61.65 62.7 61.1 63.8 61.1 M61.3 58.9 Q62.0 56.5 63.25 56.5 64.8 56.5 65.6 57.4 66.15 58.05 66.15 58.6 66.15 60.8 63.7 60.35 61.3 59.95 61.3 58.9 M66.35 67.2 Q66.35 70.15 63.9 70.3 61.5 70.45 61.5 67.7 61.5 66.65 61.75 65.85 62.25 64.35 63.5 64.35 65.35 64.35 66.0 65.75 L66.35 67.2 M61.2 69.2 Q61.2 70.0 60.55 70.0 59.95 69.95 59.95 69.3 59.95 68.55 60.5 68.55 L61.1 68.9 61.2 69.2" fill="none" stroke="#494949" stroke-linecap="round" stroke-linejoin="round" stroke-width="1.5"/>
    <path d="M60.35 29.85 L60.8 30.85 Q60.8 32.3 59.05 32.35 57.3 32.4 57.3 30.3 57.3 28.95 58.3 28.95 59.65 28.95 60.35 29.85 M60.35 34.15 Q60.35 33.45 60.9 32.55 61.65 31.3 63.15 31.3 65.1 31.3 65.65 32.55 L65.9 33.85 65.5 35.95 Q64.95 37.75 64.25 37.0 L62.95 36.6 Q61.85 36.4 61.3 35.95 L60.4 34.95 60.35 34.15 M43.6 29.6 Q43.6 31.2 40.8 31.2 38.05 31.2 38.05 29.45 38.05 29.05 38.5 28.5 38.9 27.85 39.75 27.85 41.9 27.85 42.95 28.55 43.6 29.05 43.6 29.6 M62.05 37.25 Q63.25 37.25 63.55 38.75 L63.65 40.25 Q63.65 41.85 62.15 41.2 60.55 40.6 60.55 38.8 60.55 38.3 60.8 37.95 61.15 37.25 62.05 37.25 M61.7 45.45 Q62.1 45.45 62.2 45.7 L62.3 46.05 Q62.3 46.65 61.65 46.65 61.1 46.7 61.1 46.1 61.1 45.45 61.7 45.45 M33.55 28.55 L33.95 29.75 Q33.95 30.2 33.55 30.65 32.8 31.25 31.15 31.1 30.0 31.2 29.25 30.15 28.6 29.35 28.6 28.75 28.6 27.45 31.9 27.45 32.9 27.45 33.55 28.55 M25.5 30.75 Q25.5 31.55 24.45 31.6 23.5 31.7 23.5 30.95 L23.7 30.4 Q24.1 30.0 24.65 30.0 25.2 30.0 25.4 30.4 L25.5 30.75 M65.6 50.65 Q66.0 51.25 66.0 51.7 L65.8 52.9 Q65.4 53.5 64.3 53.7 63.65 53.8 62.8 53.0 61.85 52.25 61.85 51.7 61.85 51.0 62.2 50.5 62.7 49.7 63.9 49.7 64.95 49.7 65.6 50.65 M65.3 54.6 L65.3 54.9 Q65.3 55.9 64.4 56.0 63.55 56.05 63.55 54.85 63.55 54.25 64.55 54.25 65.15 54.25 65.3 54.6 M66.35 67.2 Q66.35 70.15 63.9 70.3 61.5 70.45 61.5 67.7 61.5 66.65 61.75 65.85 62.25 64.35 63.5 64.35 65.35 64.35 66.0 65.75 L66.35 67.2 M61.2 69.2 Q61.2 70.0 60.55 70.0 59.95 69.95 59.95 69.3 59.95 68.55 60.5 68.55 L61.1 68.9 61.2 69.2" fill="#cccccc" fill-rule="evenodd" stroke="none"/>
    <path d="M57.1 29.75 Q57.1 30.5 55.9 30.55 54.65 30.65 54.65 29.45 54.65 28.55 55.9 28.55 56.5 28.55 56.8 29.1 L57.1 29.75 M46.95 29.2 L46.95 29.55 Q46.95 30.8 45.9 30.85 44.75 30.95 44.75 29.8 L44.85 29.2 Q45.15 28.85 46.15 28.85 46.75 28.85 46.95 29.2 M66.0 40.55 Q66.0 42.35 64.9 41.55 63.9 40.7 63.9 39.9 L64.1 39.3 Q64.35 39.0 64.95 39.0 65.75 39.0 65.95 39.75 L66.0 40.55 M26.15 29.05 L24.95 29.55 Q24.2 29.55 23.9 29.05 23.75 28.7 23.75 28.35 23.75 27.45 25.0 27.45 26.45 27.45 26.85 27.85 L26.95 28.25 26.15 29.05 M61.45 54.15 Q61.6 53.7 61.9 53.7 62.55 53.7 62.8 54.35 63.25 54.55 63.1 55.05 63.1 56.2 62.3 56.1 L62.05 56.05 Q61.25 56.55 61.25 54.95 L61.45 54.15 M63.8 61.1 Q65.1 61.1 65.35 61.65 L65.4 62.2 Q65.4 63.85 63.55 63.85 62.65 63.85 62.15 63.15 61.8 62.8 61.8 62.4 61.8 62.0 62.15 61.65 62.7 61.1 63.8 61.1" fill="#afa9c0" fill-rule="evenodd" stroke="none"/>
    <path d="M53.0 28.75 L53.55 29.6 Q53.55 30.8 50.7 31.35 47.95 31.95 47.95 29.3 47.95 28.6 48.65 28.25 L51.65 27.85 Q52.25 27.85 53.0 28.75 M65.35 42.8 L65.6 43.45 Q65.6 45.4 63.65 45.7 61.75 46.0 61.75 44.2 61.75 43.6 62.15 43.1 62.7 42.2 64.05 42.2 64.85 42.2 65.35 42.8 M61.3 58.9 Q62.0 56.5 63.25 56.5 64.8 56.5 65.6 57.4 66.15 58.05 66.15 58.6 66.15 60.8 63.7 60.35 61.3 59.95 61.3 58.9" fill="#bdb8cb" fill-rule="evenodd" stroke="none"/>
    <path d="M59.25 34.35 Q58.45 34.35 58.45 33.55 58.45 33.25 58.7 33.05 L59.3 32.85 Q59.85 32.85 60.0 33.25 L60.05 33.7 Q60.05 34.35 59.25 34.35 M62.7 30.65 Q61.25 30.7 61.25 29.5 L61.5 28.8 Q61.85 28.35 62.55 28.35 63.65 28.35 64.05 28.85 L64.15 29.45 Q64.15 30.55 62.7 30.65 M62.45 47.1 Q63.1 46.5 63.95 46.5 64.65 46.5 64.8 46.85 L64.85 47.3 Q64.85 48.65 63.4 48.8 61.85 49.05 61.85 48.0 61.85 47.6 62.45 47.1 M36.35 30.75 Q35.05 31.1 35.05 30.0 35.05 29.55 35.2 29.4 35.5 28.95 36.45 28.95 37.2 28.95 37.5 29.4 L37.65 29.9 Q37.65 30.4 36.35 30.75 M26.3 29.4 Q26.75 29.1 27.25 29.1 28.1 29.1 28.3 29.45 L28.35 29.95 Q28.35 30.95 27.3 30.95 26.6 30.95 26.2 30.55 L25.95 30.05 Q25.95 29.75 26.3 29.4" fill="#a49db7" fill-rule="evenodd" stroke="none"/>
    <path d="M17.25 36.2 Q17.25 34.55 19.05 34.55 20.0 34.55 20.5 35.2 L20.8 36.0 20.5 36.75 Q19.95 37.3 18.8 37.3 17.55 37.3 17.3 36.75 L17.25 36.2 M19.5 43.35 Q19.5 42.2 20.3 42.3 L20.6 42.35 Q21.35 41.85 21.35 43.45 L21.2 44.25 20.7 44.7 Q20.05 44.7 19.85 44.05 19.4 43.85 19.5 43.35 M25.55 68.65 Q25.55 67.9 26.75 67.85 28.0 67.75 28.0 68.95 28.0 69.85 26.75 69.85 26.15 69.85 25.8 69.3 L25.55 68.65 M35.65 69.2 L35.65 68.85 Q35.65 67.6 36.75 67.5 37.9 67.45 37.9 68.6 L37.8 69.2 36.45 69.55 Q35.9 69.55 35.65 69.2 M18.75 58.5 L18.55 59.1 17.65 59.4 Q16.9 59.4 16.7 58.65 L16.65 57.85 Q16.65 56.05 17.7 56.85 18.75 57.7 18.75 58.5 M58.7 69.35 L58.9 70.0 Q58.9 70.95 57.65 70.95 56.15 70.95 55.8 70.55 L55.65 70.15 Q55.65 69.85 56.5 69.35 57.25 68.85 57.7 68.85 58.45 68.85 58.7 69.35" fill="#afa9c0" fill-rule="evenodd" stroke="none"/>
    <path d="M18.75 28.1 Q21.15 27.95 21.15 30.7 L20.85 32.55 Q20.4 34.05 19.15 34.05 17.3 34.05 16.65 32.65 L16.3 31.2 Q16.3 28.25 18.75 28.1 M18.1 44.15 Q17.5 44.15 17.35 43.8 L17.35 43.5 Q17.35 42.5 18.2 42.4 19.05 42.35 19.05 43.55 19.05 44.15 18.1 44.15 M19.85 45.4 Q20.75 46.15 20.75 46.7 L20.45 47.9 Q19.95 48.7 18.75 48.7 17.65 48.7 17.0 47.75 16.65 47.15 16.65 46.7 L16.85 45.5 Q17.25 44.9 18.3 44.7 18.95 44.6 19.85 45.4 M21.5 29.5 L21.4 29.2 Q21.4 28.35 22.05 28.35 22.65 28.45 22.65 29.1 22.65 29.85 22.1 29.85 L21.5 29.5 M21.5 52.3 Q21.5 52.95 20.9 52.95 L20.45 52.7 20.3 52.35 Q20.3 51.75 21.0 51.75 21.5 51.7 21.5 52.3 M20.6 61.15 Q19.4 61.15 19.05 59.65 L18.95 58.15 Q18.95 56.55 20.5 57.2 22.05 57.8 22.05 59.6 L21.85 60.45 Q21.45 61.15 20.6 61.15 M22.25 63.45 L22.3 64.25 Q22.3 64.95 21.75 65.85 21.0 67.1 19.45 67.1 17.55 67.1 16.95 65.85 L16.75 64.55 Q16.75 63.85 17.1 62.45 17.65 60.65 18.35 61.4 L19.65 61.8 Q20.75 62.0 21.3 62.45 L22.25 63.45 M23.6 66.05 Q25.35 66.0 25.35 68.1 25.35 69.45 24.35 69.45 23.0 69.45 22.3 68.55 21.85 68.0 21.85 67.5 21.85 66.1 23.6 66.05 M39.05 68.75 Q39.05 67.2 41.8 67.2 44.6 67.2 44.6 68.95 L44.15 69.9 Q43.7 70.55 42.9 70.55 40.7 70.55 39.7 69.85 39.05 69.35 39.05 68.75 M48.65 68.65 Q48.65 68.2 49.1 67.75 49.85 67.15 51.5 67.3 52.6 67.2 53.4 68.25 54.05 69.05 54.05 69.65 54.05 70.95 50.7 70.95 49.75 70.95 49.1 69.85 48.65 69.05 48.65 68.65 M59.15 67.45 L58.95 68.0 Q58.55 68.4 57.95 68.4 L57.25 68.0 57.15 67.65 Q57.15 66.85 58.15 66.8 59.15 66.7 59.15 67.45" fill="#cccccc" fill-rule="evenodd" stroke="none"/>
    <path d="M16.45 39.8 Q16.45 37.6 18.9 38.05 21.3 38.45 21.3 39.5 20.65 41.9 19.4 41.9 17.8 41.9 17.0 41.0 16.45 40.35 16.45 39.8 M20.5 55.3 Q19.95 56.2 18.6 56.2 17.75 56.2 17.3 55.6 L17.0 54.95 Q17.0 53.0 18.95 52.7 20.85 52.4 20.85 54.2 L20.5 55.3 M29.1 68.75 Q29.1 67.6 31.9 67.05 34.7 66.45 34.7 69.1 34.7 69.8 33.95 70.15 L31.0 70.55 Q30.4 70.55 29.6 69.65 L29.1 68.75" fill="#bdb8cb" fill-rule="evenodd" stroke="none"/>
    <path d="M24.2 64.85 L23.9 65.35 23.3 65.55 22.6 65.15 22.55 64.7 Q22.55 64.05 23.35 64.05 24.2 64.05 24.2 64.85 M21.15 69.6 Q20.75 70.0 20.05 70.0 18.95 70.0 18.6 69.55 L18.5 68.95 Q18.5 67.85 19.95 67.75 21.35 67.7 21.35 68.9 L21.15 69.6 M17.75 51.1 Q17.75 49.75 19.25 49.6 20.75 49.35 20.75 50.4 20.75 50.8 20.15 51.3 19.5 51.9 18.7 51.9 18.0 51.9 17.8 51.55 L17.75 51.1 M44.95 68.5 Q44.95 68.0 46.25 67.65 47.55 67.3 47.55 68.4 L47.4 69.0 Q47.15 69.45 46.15 69.45 45.45 69.45 45.1 69.0 L44.95 68.5 M54.25 68.45 Q54.25 67.45 55.35 67.45 56.05 67.45 56.45 67.85 L56.7 68.35 56.3 69.0 55.4 69.3 Q54.55 69.3 54.3 68.95 L54.25 68.45" fill="#a49db7" fill-rule="evenodd" stroke="none"/>
    <path d="M18.75 28.1 Q21.15 27.95 21.15 30.7 L20.85 32.55 Q20.4 34.05 19.15 34.05 17.3 34.05 16.65 32.65 L16.3 31.2 Q16.3 28.25 18.75 28.1 M17.25 36.2 Q17.25 34.55 19.05 34.55 20.0 34.55 20.5 35.2 L20.8 36.0 20.5 36.75 Q19.95 37.3 18.8 37.3 17.55 37.3 17.3 36.75 L17.25 36.2 M16.45 39.8 Q16.45 37.6 18.9 38.05 21.3 38.45 21.3 39.5 20.65 41.9 19.4 41.9 17.8 41.9 17.0 41.0 16.45 40.35 16.45 39.8 M18.1 44.15 Q17.5 44.15 17.35 43.8 L17.35 43.5 Q17.35 42.5 18.2 42.4 19.05 42.35 19.05 43.55 19.05 44.15 18.1 44.15 M19.5 43.35 Q19.5 42.2 20.3 42.3 L20.6 42.35 Q21.35 41.85 21.35 43.45 L21.2 44.25 20.7 44.7 Q20.05 44.7 19.85 44.05 19.4 43.85 19.5 43.35 M19.85 45.4 Q20.75 46.15 20.75 46.7 L20.45 47.9 Q19.95 48.7 18.75 48.7 17.65 48.7 17.0 47.75 16.65 47.15 16.65 46.7 L16.85 45.5 Q17.25 44.9 18.3 44.7 18.95 44.6 19.85 45.4 M21.5 29.5 L21.4 29.2 Q21.4 28.35 22.05 28.35 22.65 28.45 22.65 29.1 22.65 29.85 22.1 29.85 L21.5 29.5 M21.5 52.3 Q21.5 52.95 20.9 52.95 L20.45 52.7 20.3 52.35 Q20.3 51.75 21.0 51.75 21.5 51.7 21.5 52.3 M20.5 55.3 Q19.95 56.2 18.6 56.2 17.75 56.2 17.3 55.6 L17.0 54.95 Q17.0 53.0 18.95 52.7 20.85 52.4 20.85 54.2 L20.5 55.3 M20.6 61.15 Q19.4 61.15 19.05 59.65 L18.95 58.15 Q18.95 56.55 20.5 57.2 22.05 57.8 22.05 59.6 L21.85 60.45 Q21.45 61.15 20.6 61.15 M24.2 64.85 L23.9 65.35 23.3 65.55 22.6 65.15 22.55 64.7 Q22.55 64.05 23.35 64.05 24.2 64.05 24.2 64.85 M22.25 63.45 L22.3 64.25 Q22.3 64.95 21.75 65.85 21.0 67.1 19.45 67.1 17.55 67.1 16.95 65.85 L16.75 64.55 Q16.75 63.85 17.1 62.45 17.65 60.65 18.35 61.4 L19.65 61.8 Q20.75 62.0 21.3 62.45 L22.25 63.45 M23.6 66.05 Q25.35 66.0 25.35 68.1 25.35 69.45 24.35 69.45 23.0 69.45 22.3 68.55 21.85 68.0 21.85 67.5 21.85 66.1 23.6 66.05 M21.15 69.6 Q20.75 70.0 20.05 70.0 18.95 70.0 18.6 69.55 L18.5 68.95 Q18.5 67.85 19.95 67.75 21.35 67.7 21.35 68.9 L21.15 69.6 M29.1 68.75 Q29.1 67.6 31.9 67.05 34.7 66.45 34.7 69.1 34.7 69.8 33.95 70.15 L31.0 70.55 Q30.4 70.55 29.6 69.65 L29.1 68.75 M25.55 68.65 Q25.55 67.9 26.75 67.85 28.0 67.75 28.0 68.95 28.0 69.85 26.75 69.85 26.15 69.85 25.8 69.3 L25.55 68.65 M35.65 69.2 L35.65 68.85 Q35.65 67.6 36.75 67.5 37.9 67.45 37.9 68.6 L37.8 69.2 36.45 69.55 Q35.9 69.55 35.65 69.2 M39.05 68.75 Q39.05 67.2 41.8 67.2 44.6 67.2 44.6 68.95 L44.15 69.9 Q43.7 70.55 42.9 70.55 40.7 70.55 39.7 69.85 39.05 69.35 39.05 68.75 M17.75 51.1 Q17.75 49.75 19.25 49.6 20.75 49.35 20.75 50.4 20.75 50.8 20.15 51.3 19.5 51.9 18.7 51.9 18.0 51.9 17.8 51.55 L17.75 51.1 M18.75 58.5 L18.55 59.1 17.65 59.4 Q16.9 59.4 16.7 58.65 L16.65 57.85 Q16.65 56.05 17.7 56.85 18.75 57.7 18.75 58.5 M44.95 68.5 Q44.95 68.0 46.25 67.65 47.55 67.3 47.55 68.4 L47.4 69.0 Q47.15 69.45 46.15 69.45 45.45 69.45 45.1 69.0 L44.95 68.5 M48.65 68.65 Q48.65 68.2 49.1 67.75 49.85 67.15 51.5 67.3 52.6 67.2 53.4 68.25 54.05 69.05 54.05 69.65 54.05 70.95 50.7 70.95 49.75 70.95 49.1 69.85 48.65 69.05 48.65 68.65 M59.15 67.45 L58.95 68.0 Q58.55 68.4 57.95 68.4 L57.25 68.0 57.15 67.65 Q57.15 66.85 58.15 66.8 59.15 66.7 59.15 67.45 M54.25 68.45 Q54.25 67.45 55.35 67.45 56.05 67.45 56.45 67.85 L56.7 68.35 56.3 69.0 55.4 69.3 Q54.55 69.3 54.3 68.95 L54.25 68.45 M58.7 69.35 L58.9 70.0 Q58.9 70.95 57.65 70.95 56.15 70.95 55.8 70.55 L55.65 70.15 Q55.65 69.85 56.5 69.35 57.25 68.85 57.7 68.85 58.45 68.85 58.7 69.35" fill="none" stroke="#494949" stroke-linecap="round" stroke-linejoin="round" stroke-width="1.5"/>
    <path d="M17.25 36.2 Q17.25 34.55 19.05 34.55 20.0 34.55 20.5 35.2 L20.8 36.0 20.5 36.75 Q19.95 37.3 18.8 37.3 17.55 37.3 17.3 36.75 L17.25 36.2 M19.5 43.35 Q19.5 42.2 20.3 42.3 L20.6 42.35 Q21.35 41.85 21.35 43.45 L21.2 44.25 20.7 44.7 Q20.05 44.7 19.85 44.05 19.4 43.85 19.5 43.35 M25.55 68.65 Q25.55 67.9 26.75 67.85 28.0 67.75 28.0 68.95 28.0 69.85 26.75 69.85 26.15 69.85 25.8 69.3 L25.55 68.65 M35.65 69.2 L35.65 68.85 Q35.65 67.6 36.75 67.5 37.9 67.45 37.9 68.6 L37.8 69.2 36.45 69.55 Q35.9 69.55 35.65 69.2 M18.75 58.5 L18.55 59.1 17.65 59.4 Q16.9 59.4 16.7 58.65 L16.65 57.85 Q16.65 56.05 17.7 56.85 18.75 57.7 18.75 58.5 M58.7 69.35 L58.9 70.0 Q58.9 70.95 57.65 70.95 56.15 70.95 55.8 70.55 L55.65 70.15 Q55.65 69.85 56.5 69.35 57.25 68.85 57.7 68.85 58.45 68.85 58.7 69.35" fill="#afa9c0" fill-rule="evenodd" stroke="none"/>
    <path d="M18.75 28.1 Q21.15 27.95 21.15 30.7 L20.85 32.55 Q20.4 34.05 19.15 34.05 17.3 34.05 16.65 32.65 L16.3 31.2 Q16.3 28.25 18.75 28.1 M18.1 44.15 Q17.5 44.15 17.35 43.8 L17.35 43.5 Q17.35 42.5 18.2 42.4 19.05 42.35 19.05 43.55 19.05 44.15 18.1 44.15 M19.85 45.4 Q20.75 46.15 20.75 46.7 L20.45 47.9 Q19.95 48.7 18.75 48.7 17.65 48.7 17.0 47.75 16.65 47.15 16.65 46.7 L16.85 45.5 Q17.25 44.9 18.3 44.7 18.95 44.6 19.85 45.4 M21.5 29.5 L21.4 29.2 Q21.4 28.35 22.05 28.35 22.65 28.45 22.65 29.1 22.65 29.85 22.1 29.85 L21.5 29.5 M21.5 52.3 Q21.5 52.95 20.9 52.95 L20.45 52.7 20.3 52.35 Q20.3 51.75 21.0 51.75 21.5 51.7 21.5 52.3 M20.6 61.15 Q19.4 61.15 19.05 59.65 L18.95 58.15 Q18.95 56.55 20.5 57.2 22.05 57.8 22.05 59.6 L21.85 60.45 Q21.45 61.15 20.6 61.15 M22.25 63.45 L22.3 64.25 Q22.3 64.95 21.75 65.85 21.0 67.1 19.45 67.1 17.55 67.1 16.95 65.85 L16.75 64.55 Q16.75 63.85 17.1 62.45 17.65 60.65 18.35 61.4 L19.65 61.8 Q20.75 62.0 21.3 62.45 L22.25 63.45 M23.6 66.05 Q25.35 66.0 25.35 68.1 25.35 69.45 24.35 69.45 23.0 69.45 22.3 68.55 21.85 68.0 21.85 67.5 21.85 66.1 23.6 66.05 M39.05 68.75 Q39.05 67.2 41.8 67.2 44.6 67.2 44.6 68.95 L44.15 69.9 Q43.7 70.55 42.9 70.55 40.7 70.55 39.7 69.85 39.05 69.35 39.05 68.75 M48.65 68.65 Q48.65 68.2 49.1 67.75 49.85 67.15 51.5 67.3 52.6 67.2 53.4 68.25 54.05 69.05 54.05 69.65 54.05 70.95 50.7 70.95 49.75 70.95 49.1 69.85 48.65 69.05 48.65 68.65 M59.15 67.45 L58.95 68.0 Q58.55 68.4 57.95 68.4 L57.25 68.0 57.15 67.65 Q57.15 66.85 58.15 66.8 59.15 66.7 59.15 67.45" fill="#cccccc" fill-rule="evenodd" stroke="none"/>
    <path d="M16.45 39.8 Q16.45 37.6 18.9 38.05 21.3 38.45 21.3 39.5 20.65 41.9 19.4 41.9 17.8 41.9 17.0 41.0 16.45 40.35 16.45 39.8 M20.5 55.3 Q19.95 56.2 18.6 56.2 17.75 56.2 17.3 55.6 L17.0 54.95 Q17.0 53.0 18.95 52.7 20.85 52.4 20.85 54.2 L20.5 55.3 M29.1 68.75 Q29.1 67.6 31.9 67.05 34.7 66.45 34.7 69.1 34.7 69.8 33.95 70.15 L31.0 70.55 Q30.4 70.55 29.6 69.65 L29.1 68.75" fill="#bdb8cb" fill-rule="evenodd" stroke="none"/>
    <path d="M24.2 64.85 L23.9 65.35 23.3 65.55 22.6 65.15 22.55 64.7 Q22.55 64.05 23.35 64.05 24.2 64.05 24.2 64.85 M21.15 69.6 Q20.75 70.0 20.05 70.0 18.95 70.0 18.6 69.55 L18.5 68.95 Q18.5 67.85 19.95 67.75 21.35 67.7 21.35 68.9 L21.15 69.6 M17.75 51.1 Q17.75 49.75 19.25 49.6 20.75 49.35 20.75 50.4 20.75 50.8 20.15 51.3 19.5 51.9 18.7 51.9 18.0 51.9 17.8 51.55 L17.75 51.1 M44.95 68.5 Q44.95 68.0 46.25 67.65 47.55 67.3 47.55 68.4 L47.4 69.0 Q47.15 69.45 46.15 69.45 45.45 69.45 45.1 69.0 L44.95 68.5 M54.25 68.45 Q54.25 67.45 55.35 67.45 56.05 67.45 56.45 67.85 L56.7 68.35 56.3 69.0 55.4 69.3 Q54.55 69.3 54.3 68.95 L54.25 68.45" fill="#a49db7" fill-rule="evenodd" stroke="none"/>
  </g>
</svg>
