<?xml version="1.0" encoding="UTF-8" standalone="no"?>
<svg xmlns:xlink="http://www.w3.org/1999/xlink" height="27.1px" width="24.2px" xmlns="http://www.w3.org/2000/svg">
  <g transform="matrix(1.0, 0.0, 0.0, 1.0, -25.0, -26.1)">
    <path d="M46.25 42.85 L46.55 41.15 46.7 39.45 42.85 39.45 42.85 30.1 38.45 30.1 37.25 39.45 37.1 39.7 36.85 39.85 35.8 39.8 35.15 39.7 34.7 39.7 35.1 34.15 35.5 28.6 35.0 28.6 33.85 28.7 30.85 28.95 30.1 29.7 27.5 44.35 27.5 45.9 28.25 45.85 28.9 45.7 32.55 45.0 34.25 44.7 35.0 44.75 35.65 44.85 35.5 47.75 35.3 50.7 43.1 50.7 43.1 45.45 44.75 44.85 45.1 44.7 45.9 44.35 45.95 44.1 46.15 43.25 46.25 42.85 Z" fill="none" stroke="#674e3d" stroke-linecap="round" stroke-linejoin="round" stroke-width="5.0"/>
    <path d="M46.7 39.45 L46.55 41.15 46.25 42.85 46.15 43.25 45.95 44.1 45.9 44.35 45.1 44.7 44.75 44.85 43.1 45.45 43.1 50.7 35.3 50.7 35.5 47.75 35.65 44.85 35.0 44.75 34.25 44.7 32.55 45.0 28.9 45.7 28.25 45.85 27.5 45.9 27.5 44.35 30.1 29.7 30.85 28.95 33.85 28.7 35.0 28.6 35.5 28.6 35.1 34.15 34.7 39.7 35.15 39.7 35.8 39.8 36.85 39.85 37.1 39.7 37.25 39.45 38.45 30.1 42.85 30.1 42.85 39.45 46.7 39.45" fill="#ffffff" fill-rule="evenodd" stroke="none"/>
  </g>
</svg>
