<?xml version="1.0" encoding="UTF-8" standalone="no"?>
<svg xmlns:xlink="http://www.w3.org/1999/xlink" height="9.95px" width="10.9px" xmlns="http://www.w3.org/2000/svg">
  <g transform="matrix(1.0, 0.0, 0.0, 1.0, -14.9, 1.2)">
    <path d="M20.35 2.6 L17.65 4.75 17.55 4.65 Q19.7 1.65 21.8 0.55 22.0 0.35 22.0 0.85 L20.35 2.6 M21.9 5.8 L19.0 7.95 18.7 7.85 Q18.55 7.75 18.55 7.4 18.55 6.95 20.8 5.3 23.05 3.7 23.95 3.45 L24.0 3.65 Q23.45 4.55 21.9 5.8 M19.0 3.9 Q23.4 -0.2 25.8 -1.2 22.0 2.95 15.05 8.65 14.9 8.9 14.9 8.4 14.9 7.7 19.0 3.9" fill="#000000" fill-opacity="0.5019608" fill-rule="evenodd" stroke="none"/>
  </g>
</svg>
