<?xml version="1.0" encoding="UTF-8" standalone="no"?>
<svg xmlns:xlink="http://www.w3.org/1999/xlink" height="63.15px" width="354.8px" xmlns="http://www.w3.org/2000/svg">
  <g transform="matrix(1.0, 0.0, 0.0, 1.0, 0.0, 0.0)">
    <path d="M21.35 4.5 Q21.45 3.7 21.7 3.15 L21.75 3.0 28.85 3.0 28.85 4.5 28.65 5.45 28.15 8.0 25.75 19.3 25.1 22.5 25.05 22.85 24.9 23.35 24.75 24.0 Q24.6 24.3 23.7 24.55 L18.15 25.15 17.9 25.15 17.5 25.15 17.1 25.1 16.85 25.1 Q15.0 19.1 14.25 16.1 L13.85 15.35 Q13.4 15.95 13.0 17.35 L12.35 19.5 11.95 20.6 11.25 22.3 10.65 23.7 10.1 25.1 9.75 25.1 7.25 24.9 5.25 24.75 2.6 24.4 2.25 24.35 1.85 24.0 0.0 7.5 0.0 4.1 Q0.0 3.95 0.7 3.75 L1.9 3.45 5.05 2.8 6.0 2.6 6.3 2.55 7.65 2.45 7.65 16.5 8.2 16.2 9.0 14.6 9.35 12.8 10.85 5.6 11.25 4.5 11.6 4.45 13.1 4.45 15.0 4.5 16.35 4.65 16.95 4.75 17.25 4.85 17.6 5.6 18.75 15.35 19.1 15.75 19.5 15.35 19.55 14.9 19.8 13.75 20.45 10.3 21.0 7.1 21.35 4.5 M41.85 14.45 L41.85 14.25 41.85 14.1 Q41.85 13.45 40.85 12.25 39.9 11.05 39.25 11.05 L37.35 11.4 Q36.2 11.8 35.8 12.6 36.8 13.0 36.95 14.85 L36.95 15.6 37.35 15.6 37.7 15.6 38.45 15.6 Q40.0 15.4 41.85 14.45 M44.1 7.7 L44.4 8.65 45.0 10.3 45.95 12.95 46.05 13.1 46.15 13.35 46.35 13.7 46.35 13.9 46.35 14.1 Q46.35 14.55 45.95 14.85 L45.5 15.15 43.7 16.35 41.7 17.45 Q40.4 18.3 40.4 18.95 L47.05 18.95 47.05 21.95 46.7 22.35 46.0 22.55 41.1 23.45 40.8 23.45 40.15 23.5 39.55 23.5 39.0 23.5 34.35 23.1 33.95 22.7 Q32.45 20.1 30.95 14.85 L30.9 14.55 30.9 14.25 Q30.9 13.5 32.25 11.05 33.55 8.65 34.35 8.1 L36.3 7.7 41.1 6.95 41.25 6.95 41.65 6.95 42.05 6.95 42.4 6.95 43.05 6.95 43.7 6.95 44.1 7.7 M56.3 3.6 L56.25 4.55 55.75 11.55 55.45 15.45 55.15 19.0 54.75 22.55 54.4 22.9 49.5 22.9 49.5 1.55 49.9 1.15 55.9 0.05 56.15 0.0 56.4 0.0 56.35 2.25 56.3 3.6 M69.75 5.5 L70.15 5.5 70.5 5.85 70.5 11.1 64.5 11.1 63.75 11.5 64.5 12.25 64.55 12.3 64.55 12.4 64.55 12.5 64.25 13.3 63.0 16.35 63.0 16.55 Q63.0 17.5 65.5 17.5 L65.75 17.5 66.0 17.5 69.75 15.6 70.15 15.6 70.25 15.75 70.9 17.1 Q71.3 18.1 71.3 18.65 L70.85 19.35 69.9 20.35 Q68.0 22.4 66.4 22.4 L65.65 22.35 65.15 22.25 63.3 21.8 62.65 21.6 Q62.1 21.45 61.9 21.25 L60.8 20.25 59.7 19.15 Q58.5 17.75 58.5 16.5 L58.5 16.2 58.5 15.8 58.5 15.45 58.5 15.25 58.75 13.05 59.15 10.45 59.65 7.35 60.0 7.0 61.15 6.8 63.8 6.35 69.75 5.5 M95.85 47.4 L95.95 48.55 96.2 51.3 96.25 51.9 Q96.3 52.5 96.75 52.85 L97.7 53.4 98.45 53.75 100.45 54.9 101.1 55.3 101.2 55.3 101.3 55.3 101.4 55.3 101.45 55.3 102.25 54.55 103.15 53.2 103.75 52.3 103.75 47.05 103.0 46.3 102.55 45.9 100.75 44.4 100.45 44.4 100.15 44.4 Q99.25 44.4 97.7 45.55 L97.35 45.85 95.85 47.05 95.85 47.4 M89.15 46.65 L89.85 45.55 91.3 43.8 Q94.15 40.25 96.25 38.4 L96.65 38.4 98.05 38.6 101.65 39.05 103.25 39.25 104.85 39.55 105.6 39.9 111.25 47.05 111.25 47.15 111.25 47.35 110.55 50.35 Q109.95 52.45 108.95 54.65 108.0 56.9 107.5 57.15 L99.7 61.05 92.5 58.65 92.05 58.3 91.6 57.6 91.35 56.8 90.7 53.95 89.15 47.05 89.1 46.95 89.05 46.8 89.1 46.7 89.15 46.65 M86.7 40.45 L86.7 41.5 86.65 44.9 86.6 46.05 86.45 48.45 86.2 54.55 86.05 57.35 85.9 59.45 85.8 60.3 85.45 61.8 79.1 61.8 79.1 49.05 78.8 49.3 78.5 49.6 77.95 50.2 77.75 50.75 77.55 51.3 75.1 57.0 72.3 62.55 71.95 62.55 71.45 62.5 70.6 62.45 68.4 62.1 Q67.25 61.85 67.05 61.45 L66.9 57.65 66.75 55.4 66.7 53.95 66.7 52.75 66.75 51.65 Q66.75 50.45 66.3 49.45 L66.1 50.4 65.4 53.3 64.9 55.95 64.4 58.6 64.2 59.65 64.1 60.3 63.75 61.4 63.3 61.8 59.2 61.8 59.0 61.65 58.8 61.45 58.8 61.05 59.1 57.9 60.05 46.55 60.35 43.05 60.7 41.2 61.15 41.1 62.3 40.85 67.5 39.95 68.95 39.7 69.15 39.7 Q69.55 39.7 69.8 40.55 L70.6 45.55 70.85 48.7 Q71.15 52.35 71.6 53.55 72.45 50.6 73.65 47.65 76.2 41.55 76.75 40.6 L76.8 40.45 86.7 40.45 M82.0 9.05 Q81.65 9.05 81.1 9.4 79.8 10.3 78.75 11.45 L77.85 12.45 78.25 13.75 78.5 14.55 78.7 15.35 79.0 16.2 79.35 16.95 83.85 16.95 84.0 16.8 84.65 15.8 85.35 13.55 85.4 13.4 85.45 13.2 85.4 13.0 85.35 12.8 84.95 12.2 84.25 11.3 83.1 9.8 Q82.55 9.05 82.0 9.05 M81.25 4.2 L81.45 4.2 81.9 4.3 83.5 4.95 86.3 5.85 Q88.2 6.55 88.75 7.55 L90.35 10.6 91.35 12.8 91.35 13.2 90.65 14.7 90.05 15.95 89.5 16.95 88.65 18.45 87.25 19.55 85.8 20.1 84.9 20.4 Q84.45 20.6 84.25 20.7 L82.45 21.3 81.5 21.6 80.9 21.8 80.5 21.8 80.2 21.6 79.75 21.45 79.0 20.95 75.6 18.8 74.7 18.25 Q73.35 17.55 73.35 16.05 73.35 14.25 73.6 12.45 L74.1 9.05 Q74.35 7.65 75.8 6.9 L77.65 6.0 79.0 5.3 80.35 4.6 81.25 4.2 M116.7 6.3 Q119.15 7.75 119.15 8.8 L118.65 12.4 118.2 15.15 117.65 17.85 116.85 20.7 112.2 20.7 112.2 12.45 112.0 12.3 111.1 11.9 110.45 11.7 110.1 11.7 109.75 12.1 109.55 12.9 109.1 15.35 108.95 16.2 108.8 18.05 108.6 19.95 108.25 20.7 103.2 20.7 103.2 13.35 102.7 13.25 102.2 13.2 101.75 13.5 101.65 13.6 Q101.2 13.85 101.1 13.95 L100.3 14.6 99.8 15.1 99.8 20.7 93.6 20.7 93.6 6.45 Q93.6 6.2 94.1 6.0 95.85 5.3 97.85 5.3 L98.25 5.3 98.45 5.35 99.0 6.2 99.2 7.2 99.35 7.2 99.45 7.2 99.75 7.1 100.35 6.1 102.6 5.3 103.95 4.85 104.85 4.6 105.15 4.55 105.45 4.55 Q105.95 4.55 106.35 4.85 L107.2 6.2 107.85 7.6 108.05 7.6 Q109.05 7.6 110.5 6.1 112.0 4.6 112.95 4.6 L113.1 4.6 Q115.5 5.6 116.7 6.3 M151.45 37.65 L151.75 37.65 152.0 37.7 152.9 37.95 154.3 38.4 156.5 39.2 Q156.95 39.35 156.95 39.95 L156.95 40.25 156.5 40.7 155.55 41.75 151.65 46.3 152.85 46.55 156.15 48.2 156.5 48.55 156.5 59.05 156.4 59.1 155.4 59.45 149.0 59.9 149.0 59.7 149.0 59.45 149.6 56.6 150.0 54.8 150.15 53.8 150.2 53.15 150.2 52.85 150.15 52.7 149.7 52.35 148.55 51.65 146.8 50.8 146.7 50.8 146.55 50.8 146.4 50.8 145.65 51.5 144.9 52.3 144.85 53.2 144.5 56.8 144.45 57.45 144.2 58.75 144.15 59.05 138.5 59.05 138.5 37.7 145.25 37.7 Q145.75 37.7 145.7 38.45 L145.65 38.75 145.5 42.3 145.35 45.85 Q146.1 45.85 147.3 43.7 L149.4 39.75 Q150.65 37.65 151.45 37.65 M128.55 40.85 L128.6 40.1 128.75 39.25 128.95 38.25 135.85 38.25 133.45 58.5 Q133.35 59.3 133.05 59.6 L131.95 60.0 126.2 60.4 125.9 60.4 125.45 60.4 124.8 60.0 122.4 52.45 121.8 50.6 121.6 49.85 121.45 49.1 121.15 48.3 120.3 45.75 119.75 45.0 119.75 59.6 113.55 59.6 113.55 39.0 Q113.55 38.7 113.95 38.6 L114.65 38.4 115.45 38.25 115.95 38.15 117.0 38.05 118.35 37.9 122.2 37.5 122.4 37.5 122.95 37.95 123.3 38.6 123.8 39.9 126.0 46.2 126.65 48.0 127.25 49.8 Q127.55 51.35 128.2 51.75 L128.2 50.45 128.25 48.55 128.35 46.25 128.55 40.85 M132.25 10.95 L132.25 10.8 Q132.25 10.15 131.25 8.95 130.3 7.75 129.65 7.75 L127.75 8.1 Q126.6 8.5 126.2 9.3 127.2 9.7 127.35 11.55 L127.35 12.3 127.75 12.3 128.1 12.3 128.85 12.3 Q130.4 12.1 132.25 11.15 L132.25 10.95 M132.05 3.65 L132.45 3.65 132.8 3.65 133.45 3.65 134.1 3.65 134.5 4.4 134.8 5.35 135.4 7.0 136.35 9.65 136.45 9.8 136.55 10.05 136.75 10.4 136.75 10.6 136.75 10.8 Q136.75 11.25 136.35 11.55 L135.9 11.85 134.1 13.05 132.1 14.15 Q130.8 15.0 130.8 15.65 L137.45 15.65 137.45 18.65 137.1 19.05 136.4 19.25 131.5 20.15 131.2 20.15 130.55 20.2 129.95 20.2 129.4 20.2 124.75 19.8 124.35 19.4 Q122.85 16.8 121.35 11.55 L121.3 11.25 121.3 10.95 Q121.3 10.2 122.65 7.75 123.95 5.35 124.75 4.8 L126.7 4.4 131.5 3.65 131.65 3.65 132.05 3.65 M178.3 42.35 L179.2 38.25 179.55 37.25 179.6 37.15 185.95 37.15 185.95 46.9 185.6 47.65 190.1 46.5 Q190.55 46.35 190.55 45.7 L190.55 45.4 Q190.55 44.45 189.7 42.4 188.95 40.3 188.95 39.4 188.95 38.8 190.4 38.1 L193.35 37.1 195.25 36.7 195.55 36.7 195.7 36.75 198.35 46.15 198.4 46.3 198.4 46.55 Q198.4 47.2 196.5 48.55 L194.7 49.75 192.95 50.95 Q191.05 52.3 191.05 52.9 L191.05 58.5 190.75 58.55 188.6 58.9 185.6 59.2 182.5 59.35 182.55 58.75 182.6 58.15 182.95 55.7 183.2 54.15 183.35 53.25 183.35 52.9 Q182.95 52.1 181.85 51.35 L179.9 50.25 Q177.3 48.9 177.3 47.25 L177.35 46.9 177.35 46.5 177.9 44.05 178.3 42.35 M173.55 36.35 Q173.9 36.35 174.0 36.85 L174.15 37.65 174.7 41.25 174.75 41.6 174.75 41.95 Q174.75 42.6 173.0 42.85 L169.7 43.25 Q167.95 43.7 167.95 44.8 L167.95 45.05 168.0 45.4 Q168.1 45.95 168.35 45.95 L173.2 45.95 173.3 46.2 173.4 46.9 173.6 48.4 173.6 49.9 Q170.2 51.4 168.7 52.5 L168.35 52.9 168.4 53.5 168.45 53.9 168.5 54.2 175.15 54.2 175.1 54.75 174.8 55.9 174.45 57.25 173.95 58.9 173.6 59.25 161.6 59.25 161.6 44.65 162.35 43.7 159.3 43.7 159.3 43.35 159.35 42.0 159.5 40.85 159.65 39.6 160.1 37.15 173.0 36.4 173.55 36.35 M167.35 8.55 L163.6 8.55 163.6 14.55 167.0 14.55 167.0 14.75 166.95 15.1 166.75 16.6 166.6 17.75 Q166.5 18.1 165.3 18.5 L163.8 19.0 160.55 19.65 Q159.35 19.65 158.4 18.75 L156.85 17.0 156.85 15.85 Q156.85 12.9 157.6 9.1 L154.1 9.1 Q154.1 6.1 154.6 4.6 L155.0 4.55 156.85 4.25 157.05 4.05 157.2 3.85 157.4 3.1 157.6 2.3 157.95 2.0 158.5 1.75 161.7 0.5 163.75 0.05 163.75 3.85 164.35 4.4 167.35 4.4 167.35 8.55 M174.05 11.55 L174.3 12.35 174.5 13.15 174.8 14.0 175.15 14.75 179.65 14.75 179.8 14.6 180.45 13.6 181.15 11.35 181.2 11.2 181.25 11.0 181.2 10.8 181.15 10.6 180.75 10.0 180.05 9.1 178.9 7.6 Q178.35 6.85 177.8 6.85 177.45 6.85 176.9 7.2 L174.55 9.25 173.65 10.25 174.05 11.55 M184.55 5.35 L186.15 8.4 187.15 10.6 187.15 11.0 186.45 12.5 185.85 13.75 185.3 14.75 184.45 16.25 Q183.9 17.0 183.05 17.35 L181.6 17.9 180.7 18.2 180.05 18.5 178.25 19.1 177.3 19.4 176.7 19.6 176.3 19.6 176.0 19.4 175.55 19.25 174.8 18.75 171.4 16.6 170.5 16.05 Q169.15 15.35 169.15 13.85 L169.4 10.25 169.9 6.85 Q170.15 5.45 171.6 4.7 L173.45 3.8 174.8 3.1 176.15 2.4 177.05 2.0 177.25 2.0 177.7 2.1 179.3 2.75 182.1 3.65 Q184.0 4.35 184.55 5.35 M222.1 37.3 L222.4 37.3 222.85 37.25 223.3 37.25 223.95 37.25 224.4 37.25 224.85 37.3 230.5 38.15 232.2 38.45 232.5 38.5 233.7 38.8 233.7 39.55 233.5 40.6 233.15 42.15 232.85 43.75 232.6 44.8 231.95 44.85 231.3 44.85 228.8 44.6 226.35 44.4 224.9 44.65 Q223.1 45.35 221.35 47.45 L222.85 47.45 222.9 48.1 223.2 50.8 223.55 52.8 223.6 53.05 223.85 53.1 224.5 53.2 225.25 53.35 225.85 53.45 226.15 53.45 226.6 53.45 Q227.9 53.45 229.8 52.15 231.7 50.8 232.4 50.8 233.15 50.8 233.65 51.95 L234.1 53.75 234.1 54.35 233.7 55.3 233.3 56.5 232.75 57.65 Q232.35 58.35 230.7 58.7 L229.45 58.95 225.1 59.8 224.9 59.85 224.65 59.85 224.5 59.85 224.35 59.8 223.9 59.6 223.05 59.15 222.1 58.7 220.6 57.9 217.95 56.45 217.75 56.25 217.45 55.7 216.85 53.8 216.45 52.45 215.3 48.4 214.95 47.05 214.9 46.85 214.9 46.7 Q214.9 45.8 215.75 44.85 L218.3 41.9 219.1 40.85 219.9 39.8 221.2 38.15 221.5 37.85 221.8 37.55 222.1 37.3 M221.2 4.6 L221.95 4.75 Q222.4 4.85 222.4 5.35 L222.3 5.75 220.1 14.35 217.8 23.0 217.6 23.75 Q217.35 24.45 216.3 25.25 L215.4 25.9 212.75 27.95 211.8 28.6 211.55 28.6 211.25 28.6 209.05 27.75 Q207.3 26.75 207.3 26.35 L207.3 22.55 208.45 22.7 211.8 23.75 Q212.25 23.55 212.45 22.65 L212.7 21.3 Q213.05 18.9 214.05 18.1 L207.65 19.6 207.5 19.65 207.3 19.65 Q206.7 19.65 206.55 19.25 L205.95 16.05 205.0 11.55 204.3 8.35 Q203.85 6.25 203.85 5.0 L211.25 5.0 211.25 14.75 Q211.25 15.15 212.15 15.15 L212.4 15.15 Q213.35 15.15 213.7 14.0 L213.8 13.0 214.0 11.55 214.25 9.85 214.8 5.75 215.0 4.7 Q215.2 3.85 215.7 3.85 L215.95 3.85 217.25 4.05 218.9 4.25 221.2 4.6 M241.1 10.05 L242.1 12.25 242.1 12.65 241.4 14.15 240.8 15.4 240.25 16.4 239.4 17.9 238.0 19.0 236.55 19.55 235.65 19.85 235.0 20.15 233.2 20.75 232.25 21.05 231.65 21.25 231.25 21.25 230.95 21.05 230.5 20.9 229.75 20.4 226.35 18.25 225.45 17.7 Q224.1 17.0 224.1 15.5 L224.35 11.9 224.85 8.5 Q225.1 7.1 226.55 6.35 L228.4 5.45 229.75 4.75 231.1 4.05 232.0 3.65 232.2 3.65 232.65 3.75 234.25 4.4 237.05 5.3 Q238.95 6.0 239.5 7.0 L241.1 10.05 M235.0 10.75 L233.85 9.25 Q233.3 8.5 232.75 8.5 L231.85 8.85 229.5 10.9 228.6 11.9 229.0 13.2 229.25 14.0 229.45 14.8 229.75 15.65 230.1 16.4 234.6 16.4 234.75 16.25 235.4 15.25 236.1 13.0 236.15 12.85 236.2 12.65 236.15 12.45 236.1 12.25 235.7 11.65 235.0 10.75 M293.95 58.75 Q295.4 59.05 295.4 59.55 L295.4 59.65 295.35 59.75 295.1 60.35 294.65 61.25 293.85 62.75 293.4 63.15 292.75 63.15 291.4 63.0 Q289.7 62.7 289.7 60.45 L289.7 60.2 289.7 60.1 290.5 59.25 291.2 58.65 291.7 58.55 292.2 58.55 293.95 58.75 M251.95 46.65 Q249.75 47.4 247.0 47.4 247.0 43.6 247.8 39.55 L259.45 38.8 263.25 38.8 Q263.95 38.8 263.95 39.5 263.95 42.95 262.8 45.55 L262.4 46.1 258.65 46.1 258.1 46.65 258.1 60.9 249.3 60.9 248.95 60.55 248.85 60.35 248.9 60.25 248.95 60.15 249.25 58.85 250.25 54.5 251.55 48.9 251.65 48.45 251.95 46.65 M244.7 39.35 L244.5 43.95 244.2 48.1 243.55 56.2 243.3 58.95 243.2 60.0 242.85 60.35 236.8 60.35 236.8 37.85 237.8 37.85 Q240.85 37.85 244.3 39.0 244.7 39.1 244.7 39.35 M254.85 6.25 L261.05 6.25 Q261.45 6.25 261.45 6.95 L261.45 7.4 261.3 10.2 261.05 13.5 260.9 16.75 260.8 18.45 260.65 20.15 260.3 20.5 255.8 20.5 255.45 19.4 255.3 19.35 255.1 19.35 255.05 19.4 254.65 19.65 252.8 20.9 Q252.1 21.35 251.6 21.3 L251.0 21.3 249.0 21.2 247.2 20.9 Q246.15 20.5 245.1 18.05 244.1 15.85 244.1 14.75 L244.15 14.25 244.2 13.75 244.3 13.1 244.55 12.0 244.85 10.55 245.65 6.65 245.85 6.05 246.05 5.5 246.25 5.5 246.6 5.45 246.9 5.45 247.2 5.45 249.85 5.65 Q251.7 5.95 251.7 6.75 251.7 7.85 250.9 10.2 250.1 12.6 250.1 13.75 L250.15 14.2 250.2 14.5 252.8 16.0 253.55 15.65 253.95 15.35 254.7 14.65 254.85 14.5 254.85 6.25 M273.6 5.65 L273.75 5.65 273.8 5.7 274.4 5.95 275.3 6.4 276.8 7.2 276.85 7.85 276.85 8.5 276.85 9.15 276.8 9.85 276.75 10.5 276.6 11.35 276.5 12.05 276.45 12.45 276.15 12.65 274.2 13.95 274.15 13.95 274.0 13.95 273.9 13.95 273.8 13.95 272.7 13.35 271.95 13.0 271.55 12.8 271.35 12.8 271.2 12.8 Q270.0 12.8 270.0 14.5 L270.2 15.9 271.55 20.3 271.65 20.45 271.75 20.7 271.95 21.05 271.95 21.45 271.55 21.8 264.05 21.8 264.05 7.55 264.35 7.15 Q264.95 6.8 266.35 6.8 267.1 6.8 267.4 7.95 267.75 9.25 268.2 9.45 268.3 9.35 268.55 9.15 L270.05 7.95 270.8 7.4 271.9 6.6 Q273.35 5.65 273.6 5.65 M290.75 42.3 Q291.65 41.7 292.75 41.7 293.4 41.7 295.1 42.65 296.85 43.75 296.85 44.35 L296.85 44.55 296.85 44.75 294.2 55.6 293.7 56.1 293.1 56.35 291.2 56.75 290.85 56.75 290.45 56.0 290.3 52.8 289.7 45.1 289.7 44.05 Q289.7 42.95 290.75 42.3 M283.9 39.5 L286.55 48.9 286.6 49.05 286.6 49.3 Q286.6 49.95 284.7 51.3 L282.9 52.5 281.15 53.7 Q279.25 55.05 279.25 55.65 L279.25 61.25 278.95 61.3 276.8 61.65 273.8 61.95 270.7 62.1 270.75 61.5 270.8 60.9 271.15 58.45 271.4 56.9 271.55 56.0 271.55 55.65 Q271.15 54.85 270.05 54.1 L268.1 53.0 Q265.5 51.65 265.5 50.0 L265.55 49.65 265.55 49.25 266.1 46.8 266.5 45.1 267.4 41.0 267.75 40.0 267.8 39.9 274.15 39.9 274.15 49.65 273.8 50.4 278.3 49.25 Q278.75 49.1 278.75 48.45 L278.75 48.15 Q278.75 47.2 277.9 45.15 277.15 43.05 277.15 42.15 277.15 41.55 278.6 40.85 L281.55 39.85 283.45 39.45 283.75 39.45 283.9 39.5 M306.25 7.0 L310.75 11.85 310.75 12.6 308.75 22.35 304.15 22.35 304.15 15.25 301.4 12.6 300.65 12.6 300.4 12.85 299.15 14.85 299.15 15.15 299.35 18.75 299.6 22.35 293.9 22.35 293.9 8.1 Q293.9 7.8 295.35 7.55 L297.1 7.3 Q297.95 7.3 298.2 8.65 298.5 10.4 298.75 10.75 L299.15 10.0 299.35 9.2 Q299.5 8.65 299.9 8.5 L300.45 8.25 302.9 7.35 305.35 6.55 305.65 6.55 306.25 7.0 M321.1 11.6 L319.2 11.95 Q318.05 12.35 317.65 13.15 318.65 13.55 318.8 15.4 L318.8 16.15 319.2 16.15 319.55 16.15 320.3 16.15 Q321.85 15.95 323.7 15.0 L323.7 14.8 323.7 14.65 Q323.7 14.0 322.7 12.8 321.75 11.6 321.1 11.6 M326.25 9.2 L326.85 10.85 327.8 13.5 327.9 13.65 328.0 13.9 328.2 14.25 328.2 14.45 328.2 14.65 Q328.2 15.1 327.8 15.4 L327.35 15.7 325.55 16.9 323.55 18.0 Q322.25 18.85 322.25 19.5 L328.9 19.5 328.9 22.5 328.55 22.9 327.85 23.1 322.95 24.0 322.65 24.0 322.0 24.05 321.4 24.05 320.85 24.05 316.2 23.65 315.8 23.25 Q314.3 20.65 312.8 15.4 L312.75 15.1 312.75 14.8 Q312.75 14.05 314.1 11.6 315.4 9.2 316.2 8.65 L318.15 8.25 322.95 7.5 323.1 7.5 323.5 7.5 323.9 7.5 324.25 7.5 324.9 7.5 325.55 7.5 325.95 8.25 326.25 9.2 M349.35 11.45 L349.5 11.0 Q349.65 10.3 349.75 10.3 L354.8 10.3 351.95 24.55 344.1 24.55 343.7 24.05 342.95 20.8 342.85 20.4 342.25 18.95 341.05 22.05 Q339.85 24.55 339.2 24.55 L332.45 24.55 332.35 23.25 331.9 18.9 331.7 16.6 331.35 13.3 331.35 12.7 331.25 10.9 331.25 10.3 336.2 10.3 336.3 10.4 336.6 11.45 337.2 15.15 337.7 18.95 Q338.2 18.65 338.55 17.6 L339.0 15.95 339.85 11.7 Q340.35 9.55 341.05 9.55 L341.45 9.55 341.85 9.6 343.35 9.95 344.75 10.35 345.6 10.7 347.1 19.3 347.45 19.7 347.85 19.0 348.45 15.55 348.8 13.95 349.15 12.4 349.35 11.45" fill="#ffffff" fill-rule="evenodd" stroke="none"/>
  </g>
</svg>
