<?xml version="1.0" encoding="UTF-8" standalone="no"?>
<svg xmlns:xlink="http://www.w3.org/1999/xlink" height="195.6px" width="248.4px" xmlns="http://www.w3.org/2000/svg">
  <g transform="matrix(1.0, 0.0, 0.0, 1.0, 179.05, 94.45)">
    <path d="M-165.7 -87.05 Q-163.65 -88.15 -158.2 -81.5 -152.65 -74.85 -147.0 -64.25 -141.35 -53.7 -138.85 -45.45 L-138.8 -45.25 Q-131.4 -60.15 -111.2 -71.9 -88.0 -85.4 -58.2 -89.2 -27.3 -93.15 -4.05 -84.55 21.9 -74.95 29.55 -52.1 41.15 -17.45 33.6 27.1 L32.0 35.65 Q36.05 34.5 40.75 34.75 50.9 35.3 58.15 42.2 65.5 49.1 65.35 58.35 65.2 67.55 57.6 73.4 50.05 79.05 39.85 78.15 29.75 77.0 23.0 70.05 L21.85 68.8 Q18.7 76.15 15.55 80.9 11.3 87.3 -6.5 91.65 -22.6 95.55 -44.75 96.7 -66.35 97.85 -84.2 95.9 -103.2 93.8 -109.9 88.9 -116.1 84.35 -122.75 73.4 -125.0 77.85 -128.8 81.65 -137.65 90.55 -149.3 90.6 -160.75 90.6 -167.9 82.1 -174.85 73.8 -173.75 62.2 -172.75 50.85 -164.55 42.6 -156.4 34.35 -145.55 33.75 L-139.3 34.1 Q-150.5 -5.5 -141.85 -36.95 L-144.8 -37.25 Q-150.8 -38.2 -158.45 -41.55 -166.15 -44.9 -170.95 -48.7 -175.75 -52.45 -174.9 -54.45 -174.05 -56.4 -167.95 -55.5 -161.95 -54.55 -154.25 -51.2 L-152.1 -50.2 Q-154.6 -54.15 -157.1 -58.85 -162.75 -69.45 -165.3 -77.7 -167.75 -85.9 -165.7 -87.05" fill="#70381f" fill-rule="evenodd" stroke="none"/>
    <path d="M-165.7 -87.05 Q-163.65 -88.15 -158.2 -81.5 -152.65 -74.85 -147.0 -64.25 -141.35 -53.7 -138.85 -45.45 L-138.8 -45.25 Q-131.4 -60.15 -111.2 -71.9 -88.0 -85.4 -58.2 -89.2 -27.3 -93.15 -4.05 -84.55 21.9 -74.95 29.55 -52.1 41.15 -17.45 33.6 27.1 L32.0 35.65 Q36.05 34.5 40.75 34.75 50.9 35.3 58.15 42.2 65.5 49.1 65.35 58.35 65.2 67.55 57.6 73.4 50.05 79.05 39.85 78.15 29.75 77.0 23.0 70.05 L21.85 68.8 Q18.7 76.15 15.55 80.9 11.3 87.3 -6.5 91.65 -22.6 95.55 -44.75 96.7 -66.35 97.85 -84.2 95.9 -103.2 93.8 -109.9 88.9 -116.1 84.35 -122.75 73.4 -125.0 77.85 -128.8 81.65 -137.65 90.55 -149.3 90.6 -160.75 90.6 -167.9 82.1 -174.85 73.8 -173.75 62.2 -172.75 50.85 -164.55 42.6 -156.4 34.35 -145.55 33.75 L-139.3 34.1 Q-150.5 -5.5 -141.85 -36.95 L-144.8 -37.25 Q-150.8 -38.2 -158.45 -41.55 -166.15 -44.9 -170.95 -48.7 -175.75 -52.45 -174.9 -54.45 -174.05 -56.4 -167.95 -55.5 -161.95 -54.55 -154.25 -51.2 L-152.1 -50.2 Q-154.6 -54.15 -157.1 -58.85 -162.75 -69.45 -165.3 -77.7 -167.75 -85.9 -165.7 -87.05 Z" fill="none" stroke="#3c190a" stroke-linecap="round" stroke-linejoin="round" stroke-width="8.0"/>
    <path d="M-145.55 33.75 Q-134.55 33.05 -126.9 40.7 -119.05 48.55 -119.5 60.5 -119.95 72.7 -128.8 81.65 -137.65 90.55 -149.3 90.6 -160.75 90.6 -167.9 82.1 -174.85 73.8 -173.75 62.2 -172.75 50.85 -164.55 42.6 -156.4 34.35 -145.55 33.75" fill="#70381f" fill-rule="evenodd" stroke="none"/>
    <path d="M-138.15 43.15 Q-130.6 42.65 -125.3 47.95 -119.95 53.3 -120.25 61.55 -120.55 69.95 -126.65 76.1 -132.7 82.2 -140.7 82.25 -148.6 82.25 -153.5 76.4 -158.3 70.7 -157.55 62.7 -156.85 54.9 -151.2 49.25 -145.6 43.55 -138.15 43.15" fill="#bf7926" fill-rule="evenodd" stroke="none"/>
    <path d="M40.75 34.75 Q50.9 35.3 58.15 42.2 65.5 49.1 65.35 58.35 65.2 67.55 57.6 73.4 50.05 79.05 39.85 78.15 29.75 77.0 23.0 70.05 16.3 63.2 16.5 54.45 16.5 53.25 16.75 52.15 17.65 44.9 23.7 40.05 30.75 34.2 40.75 34.75" fill="#70381f" fill-rule="evenodd" stroke="none"/>
    <path d="M48.7 46.25 Q54.1 51.3 53.95 58.05 53.85 64.75 48.3 69.05 42.8 73.15 35.4 72.5 28.0 71.6 23.1 66.55 18.2 61.55 18.35 55.2 L18.55 53.55 Q19.2 48.2 23.6 44.65 28.75 40.45 36.05 40.85 43.45 41.2 48.7 46.25" fill="#bf7926" fill-rule="evenodd" stroke="none"/>
    <path d="M37.3 34.75 Q34.3 49.55 29.65 62.95 L25.55 73.5 25.9 72.65 23.0 70.05 Q16.3 63.2 16.5 54.45 16.5 53.25 16.75 52.15 17.65 44.9 23.7 40.05 29.5 35.25 37.3 34.75 M-142.65 40.6 L-144.6 33.7 Q-134.25 33.35 -126.9 40.7 -119.05 48.55 -119.5 60.5 -119.85 70.55 -125.9 78.35 L-128.55 73.9 Q-136.95 59.15 -142.65 40.6" fill="#620000" fill-opacity="0.2" fill-rule="evenodd" stroke="none"/>
    <path d="M29.55 -52.1 Q41.15 -17.45 33.6 27.1 30.65 44.45 25.25 59.8 20.45 73.55 15.55 80.9 11.3 87.3 -6.5 91.65 -22.6 95.55 -44.75 96.7 -66.35 97.85 -84.2 95.9 -103.2 93.8 -109.9 88.9 -117.0 83.7 -124.65 70.2 -132.6 56.2 -138.0 38.6 -151.3 -4.75 -141.4 -38.6 -135.8 -57.6 -111.2 -71.9 -88.0 -85.4 -58.2 -89.2 -27.3 -93.15 -4.05 -84.55 21.9 -74.95 29.55 -52.1" fill="#70381f" fill-rule="evenodd" stroke="none"/>
    <path d="M21.3 32.65 Q18.45 41.25 15.35 46.65 11.6 53.2 3.7 57.25 L-3.5 60.0 -0.2 63.5 Q3.5 68.6 5.35 76.4 6.75 82.2 5.5 87.9 0.55 89.95 -6.5 91.65 -22.6 95.55 -44.75 96.7 -66.35 97.85 -84.2 95.9 -101.2 94.0 -108.35 89.9 -115.35 80.25 -114.9 72.65 -114.45 64.85 -106.85 58.35 -103.1 55.1 -99.4 53.4 -105.5 53.55 -112.35 51.3 -125.95 46.9 -130.15 35.15 -133.0 27.2 -132.6 14.95 -132.1 0.85 -127.15 -11.0 -121.25 -25.2 -109.95 -32.9 -96.6 -41.95 -76.95 -41.0 -59.0 -40.1 -47.65 -7.45 -42.0 8.85 -39.95 25.0 -36.55 5.15 -29.0 -12.05 -13.85 -46.45 7.1 -33.35 28.65 -19.85 26.05 10.6 25.15 21.25 21.3 32.65" fill="#bf7926" fill-rule="evenodd" stroke="none"/>
    <path d="M-61.95 27.75 Q-61.95 36.8 -69.05 43.2 -76.05 49.6 -86.0 49.6 -96.0 49.6 -103.05 43.2 -110.1 36.8 -110.1 27.75 -110.1 18.7 -103.05 12.3 -96.0 5.9 -86.0 5.9 -76.05 5.9 -69.05 12.3 -61.95 18.7 -61.95 27.75" fill="#ffffff" fill-rule="evenodd" stroke="none"/>
    <path d="M-61.95 27.75 Q-61.95 36.8 -69.05 43.2 -76.05 49.6 -86.0 49.6 -96.0 49.6 -103.05 43.2 -110.1 36.8 -110.1 27.75 -110.1 18.7 -103.05 12.3 -96.0 5.9 -86.0 5.9 -76.05 5.9 -69.05 12.3 -61.95 18.7 -61.95 27.75 Z" fill="none" stroke="#a8620f" stroke-linecap="round" stroke-linejoin="round" stroke-width="8.0"/>
    <path d="M-25.3 27.75 Q-25.3 36.8 -19.15 43.2 -13.05 49.6 -4.4 49.6 4.25 49.6 10.35 43.2 16.45 36.8 16.45 27.75 16.45 18.7 10.35 12.3 4.25 5.9 -4.4 5.9 -13.05 5.9 -19.15 12.3 -25.3 18.7 -25.3 27.75" fill="#ffffff" fill-rule="evenodd" stroke="none"/>
    <path d="M-25.3 27.75 Q-25.3 36.8 -19.15 43.2 -13.05 49.6 -4.4 49.6 4.25 49.6 10.35 43.2 16.45 36.8 16.45 27.75 16.45 18.7 10.35 12.3 4.25 5.9 -4.4 5.9 -13.05 5.9 -19.15 12.3 -25.3 18.7 -25.3 27.75 Z" fill="none" stroke="#a8620f" stroke-linecap="round" stroke-linejoin="round" stroke-width="8.0"/>
    <path d="M-61.95 27.75 Q-61.95 36.8 -69.05 43.2 -76.05 49.6 -86.0 49.6 -96.0 49.6 -103.05 43.2 -110.1 36.8 -110.1 27.75 -110.1 18.7 -103.05 12.3 -96.0 5.9 -86.0 5.9 -76.05 5.9 -69.05 12.3 -61.95 18.7 -61.95 27.75" fill="#ffffff" fill-rule="evenodd" stroke="none"/>
    <path d="M-25.3 27.75 Q-25.3 36.8 -19.15 43.2 -13.05 49.6 -4.4 49.6 4.25 49.6 10.35 43.2 16.45 36.8 16.45 27.75 16.45 18.7 10.35 12.3 4.25 5.9 -4.4 5.9 -13.05 5.9 -19.15 12.3 -25.3 18.7 -25.3 27.75" fill="#ffffff" fill-rule="evenodd" stroke="none"/>
    <path d="M-165.3 -77.7 Q-167.75 -85.9 -165.7 -87.05 -163.65 -88.15 -158.2 -81.5 -152.65 -74.85 -147.0 -64.25 -141.35 -53.7 -138.85 -45.45 -136.35 -37.2 -138.4 -36.1 -140.45 -34.95 -145.95 -41.65 -151.45 -48.3 -157.1 -58.85 -162.75 -69.45 -165.3 -77.7" fill="#70381f" fill-rule="evenodd" stroke="none"/>
    <path d="M-170.95 -48.7 Q-175.75 -52.45 -174.9 -54.45 -174.05 -56.4 -167.95 -55.5 -161.95 -54.55 -154.25 -51.2 -146.6 -47.85 -141.8 -44.05 -137.0 -40.25 -137.85 -38.3 -138.7 -36.3 -144.8 -37.25 -150.8 -38.2 -158.45 -41.55 -166.15 -44.9 -170.95 -48.7" fill="#70381f" fill-rule="evenodd" stroke="none"/>
  </g>
</svg>
