<?xml version="1.0" encoding="UTF-8" standalone="no"?>
<svg xmlns:xlink="http://www.w3.org/1999/xlink" height="53.3px" width="43.65px" xmlns="http://www.w3.org/2000/svg">
  <g transform="matrix(1.0, 0.0, 0.0, 1.0, 3.15, 2.1)">
    <path d="M19.3 1.95 Q25.3 0.8 30.3 4.25 35.25 7.65 36.35 13.6 37.5 19.55 34.1 24.5 30.65 29.5 24.7 30.55 18.75 31.7 13.8 28.3 8.8 24.85 7.65 18.9 6.55 13.0 10.0 8.0 13.4 3.05 19.3 1.95" fill="url(#gradient0)" fill-rule="evenodd" stroke="none"/>
    <path d="M35.75 9.7 L36.85 9.4 Q38.45 9.1 37.25 10.8 8.4 22.3 7.7 21.85 7.3 21.55 7.35 21.15 L7.55 20.8 Q7.7 20.75 7.8 20.65 L7.65 20.25 7.0 20.3 Q6.7 20.1 6.75 19.85 L6.2 19.85 Q5.8 19.55 5.9 19.2 L6.1 18.8 Q6.35 18.45 12.2 16.25 L20.95 12.95 Q25.35 11.1 29.25 9.7 35.8 7.45 35.6 8.8 36.05 9.1 35.75 9.7 M30.75 15.9 L35.6 14.1 Q38.1 13.15 37.35 14.35 36.75 15.2 8.6 24.55 L8.55 23.95 Q8.85 23.5 14.75 21.5 L23.45 18.7 Q28.15 16.75 30.75 15.9" fill="#ffffff" fill-opacity="0.7019608" fill-rule="evenodd" stroke="none"/>
    <path d="M9.5 27.3 Q8.25 26.0 7.5 24.5 6.25 22.15 5.75 19.45 L5.7 19.25 Q4.6 12.65 8.4 7.15 12.25 1.5 18.95 0.2 25.65 -1.0 31.3 2.85 36.15 6.2 37.75 11.55 L37.8 11.85 38.2 13.4 Q39.45 20.15 35.6 25.8 31.7 31.45 25.0 32.65 L24.75 32.7 24.65 32.75 24.45 32.75 24.3 32.8 24.25 32.8 24.1 32.8 23.9 32.85 23.8 32.85 Q20.15 33.3 16.8 32.2 L12.65 30.05 Q10.8 28.85 9.5 27.3 M35.35 12.55 L35.2 12.35 Q33.9 7.8 29.85 5.0 25.05 1.75 19.4 2.75 13.8 3.85 10.55 8.6 7.35 13.25 8.25 18.8 L8.3 18.95 Q8.7 21.2 9.75 23.25 11.25 25.95 14.1 27.9 18.8 31.15 24.5 30.05 30.15 29.05 33.45 24.3 36.7 19.55 35.6 13.85 L35.35 12.55" fill="#ffcc00" fill-rule="evenodd" stroke="none"/>
    <path d="M9.5 27.3 Q8.25 26.0 7.5 24.5 6.25 22.15 5.75 19.45 L5.7 19.25 Q4.6 12.65 8.4 7.15 12.25 1.5 18.95 0.2 25.65 -1.0 31.3 2.85 36.15 6.2 37.75 11.55 L37.8 11.85 38.2 13.4 Q39.45 20.15 35.6 25.8 31.7 31.45 25.0 32.65 L24.75 32.7 24.65 32.75 24.45 32.75 24.3 32.8 24.25 32.8 24.1 32.8 23.9 32.85 23.8 32.85 Q20.15 33.3 16.8 32.2 L16.35 33.15 16.25 33.3 15.0 34.25 14.25 34.35 14.15 34.5 6.7 45.35 6.05 46.3 5.1 47.7 4.75 48.2 4.05 48.7 4.05 48.75 3.75 48.9 3.45 49.0 3.3 49.05 3.15 49.05 2.9 49.1 2.5 49.2 2.1 49.2 1.9 49.2 1.8 49.2 1.75 49.15 1.7 49.1 1.3 49.05 0.85 48.9 0.7 48.8 0.4 48.6 -0.45 47.9 -1.1 46.4 -1.15 45.45 -1.0 44.85 -0.55 43.85 8.5 30.7 8.55 30.6 8.2 29.55 Q8.25 28.85 8.75 28.15 L8.85 28.0 9.5 27.3 M35.35 12.55 L35.6 13.85 Q36.7 19.55 33.45 24.3 30.15 29.05 24.5 30.05 18.8 31.15 14.1 27.9 11.25 25.95 9.75 23.25 8.7 21.2 8.3 18.95 L8.25 18.8 Q7.35 13.25 10.55 8.6 13.8 3.85 19.4 2.75 25.05 1.75 29.85 5.0 33.9 7.8 35.2 12.35 L35.35 12.55" fill="none" stroke="#000000" stroke-linecap="round" stroke-linejoin="round" stroke-width="4.0"/>
    <path d="M8.6 30.55 Q9.3 29.6 10.45 29.3 L10.7 29.2 Q12.05 29.0 13.25 29.85 14.4 30.65 14.7 31.9 L14.7 32.25 Q14.85 33.3 14.35 34.25 L13.15 33.2 12.95 33.05 11.6 32.15 Q9.55 30.65 8.6 30.55 M-1.0 44.85 L-0.55 43.85 7.9 31.55 8.0 31.6 8.85 31.9 11.25 33.6 10.7 34.3 3.3 45.05 1.55 47.4 0.8 47.1 -0.65 45.5 Q-0.7 45.05 -0.85 44.95 L-1.0 44.85" fill="#a87337" fill-rule="evenodd" stroke="none"/>
    <path d="M8.6 30.55 Q9.55 30.65 11.6 32.15 L12.95 33.05 13.15 33.2 14.35 34.25 14.2 34.45 14.15 34.5 6.7 45.35 6.05 46.3 5.1 47.7 4.75 48.2 4.05 48.7 4.05 48.75 3.75 48.9 3.45 49.0 3.3 49.05 3.15 49.05 2.9 49.1 2.5 49.2 2.1 49.2 1.9 49.2 1.8 49.2 1.75 49.15 1.7 49.1 1.3 49.05 0.85 48.9 0.7 48.8 0.4 48.6 -0.45 47.9 -1.1 46.4 -1.15 45.45 -1.0 44.85 -0.85 44.95 Q-0.7 45.05 -0.65 45.5 L0.8 47.1 1.55 47.4 3.3 45.05 10.7 34.3 11.25 33.6 8.85 31.9 8.0 31.6 7.9 31.55 8.5 30.7 8.6 30.55" fill="#7d5528" fill-rule="evenodd" stroke="none"/>
    <path d="M12.8 33.5 L12.95 33.05 13.7 32.5 Q13.95 32.1 13.8 31.45 13.65 30.8 13.85 30.55 14.1 30.15 14.55 30.45 L15.05 31.05 16.55 31.15 16.85 31.2 16.85 31.6 Q16.85 32.4 16.35 33.15 L16.25 33.3 15.0 34.25 13.8 34.2 12.8 33.5" fill="#b79300" fill-rule="evenodd" stroke="none"/>
    <path d="M16.85 31.2 L16.55 31.15 15.05 31.05 14.55 30.45 Q14.1 30.15 13.85 30.55 13.65 30.8 13.8 31.45 13.95 32.1 13.7 32.5 L12.95 33.05 12.8 33.5 8.8 30.75 Q8.25 30.35 8.2 29.55 8.25 28.85 8.75 28.15 L8.85 28.0 10.05 26.9 11.35 27.05 16.35 30.5 16.85 31.2" fill="#ffcc00" fill-rule="evenodd" stroke="none"/>
    <path d="M37.8 11.85 L38.2 13.4 Q39.45 20.15 35.6 25.8 31.7 31.45 25.0 32.65 18.3 33.95 12.65 30.05 9.3 27.8 7.5 24.5 6.25 22.15 5.75 19.45 L5.7 19.25 Q4.6 12.65 8.4 7.15 12.25 1.5 18.95 0.2 25.65 -1.0 31.3 2.85 36.15 6.2 37.75 11.55 L37.8 11.85 M35.6 13.85 L35.35 12.55 35.2 12.35 Q33.9 7.8 29.85 5.0 25.05 1.75 19.4 2.75 13.8 3.85 10.55 8.6 7.35 13.25 8.25 18.8 L8.3 18.95 Q8.7 21.2 9.75 23.25 11.25 25.95 14.1 27.9 18.8 31.15 24.5 30.05 30.15 29.05 33.45 24.3 36.7 19.55 35.6 13.85" fill="#ffcc00" fill-rule="evenodd" stroke="none"/>
    <path d="M29.1 3.6 Q28.7 3.25 28.65 2.9 30.95 3.25 32.6 4.3 34.55 5.6 34.45 7.55 L33.7 7.65 Q31.5 5.05 29.1 3.6 M12.0 5.6 L10.55 7.1 Q9.05 9.3 7.0 15.25 L6.8 15.4 6.7 15.3 Q7.0 11.35 7.8 10.1 10.95 5.55 13.55 3.5 18.3 -0.3 23.45 1.4 L17.0 2.5 Q14.2 3.05 13.15 4.55 L12.0 5.6 M19.65 31.4 Q19.55 31.4 19.8 30.95 23.35 30.9 30.05 29.4 L30.25 29.65 30.15 30.1 Q29.65 30.8 25.55 31.75 21.25 32.65 20.1 31.85 L19.65 31.4 M9.75 28.85 L10.55 29.7 11.55 31.05 10.8 31.1 9.55 29.75 9.55 29.1 9.75 28.85" fill="#fff0b7" fill-rule="evenodd" stroke="none"/>
  </g>
  <defs>
    <linearGradient gradientTransform="matrix(0.0265, -0.0177, 0.0099, 0.0148, 17.9, 21.05)" gradientUnits="userSpaceOnUse" id="gradient0" spreadMethod="pad" x1="-819.2" x2="819.2">
      <stop offset="0.0" stop-color="#00ffff" stop-opacity="0.4"/>
      <stop offset="1.0" stop-color="#ffffff" stop-opacity="0.4"/>
    </linearGradient>
  </defs>
</svg>
