<?xml version="1.0" encoding="UTF-8" standalone="no"?>
<svg xmlns:xlink="http://www.w3.org/1999/xlink" height="25.9px" width="9.3px" xmlns="http://www.w3.org/2000/svg">
  <g transform="matrix(1.0, 0.0, 0.0, 1.0, 4.9, 12.45)">
    <path d="M1.4 -12.4 Q3.6 -12.9 4.1 -7.3 L4.4 0.45 4.1 8.3 Q3.6 13.85 1.45 13.35 L1.4 13.35 -2.0 13.4 Q-4.2 13.85 -4.6 8.25 L-4.9 0.45 -4.6 -7.3 Q-4.2 -12.9 -1.95 -12.4 L-1.3 -12.4 1.4 -12.4" fill="#423200" fill-rule="evenodd" stroke="none"/>
    <path d="M-1.75 -9.7 Q-1.45 -9.3 -1.25 -6.8 -1.0 -3.8 -1.0 0.45 -1.0 4.7 -1.25 7.7 -1.45 10.4 -1.8 10.7 L-1.85 10.7 Q-2.2 10.7 -2.4 7.7 L-2.65 0.45 -2.4 -6.8 Q-2.2 -9.8 -1.85 -9.8 L-1.75 -9.7 M-2.3 -5.05 L-2.45 0.45 -2.3 6.0 Q-2.1 8.2 -1.85 8.2 -1.6 8.2 -1.4 6.0 L-1.2 0.45 -1.4 -5.05 Q-1.6 -7.3 -1.85 -7.3 -2.1 -7.3 -2.3 -5.05" fill="url(#gradient0)" fill-rule="evenodd" stroke="none"/>
    <path d="M-1.75 -9.7 L-1.7 -9.75 1.35 -9.8 Q1.65 -9.8 1.9 -6.8 L2.2 0.45 1.9 7.7 Q1.65 10.7 1.35 10.7 -1.55 10.9 -1.8 10.7 -1.45 10.4 -1.25 7.7 -1.0 4.7 -1.0 0.45 -1.0 -3.8 -1.25 -6.8 -1.45 -9.3 -1.75 -9.7 M-2.0 -6.6 L-1.95 -6.6 -1.95 -6.35 -1.9 -5.65 Q-1.75 -5.95 -1.75 -4.6 L-1.8 -3.65 -1.8 -3.7 -1.85 -3.75 -1.9 -3.35 -1.95 -2.6 -1.85 -1.65 -1.75 -0.7 -1.65 0.55 -1.6 2.3 -1.6 4.0 -1.6 5.1 -1.75 6.3 -1.75 7.15 -1.75 7.55 -1.8 7.75 -1.8 6.6 -2.05 6.05 -2.15 4.15 -2.1 2.8 -2.05 2.0 -2.0 2.0 -2.0 2.55 -2.0 3.15 -1.95 3.6 -1.9 3.8 -1.85 3.8 -1.8 3.4 -1.8 2.6 -1.85 1.55 -2.0 0.4 -2.1 -0.8 -2.15 -2.3 -2.15 -3.95 -2.0 -5.3 -2.0 -6.05 -2.0 -6.45 -2.0 -6.6" fill="#ce9b00" fill-rule="evenodd" stroke="none"/>
    <path d="M-2.0 -6.6 L-2.0 -6.45 -2.0 -6.05 -2.0 -5.3 -2.15 -3.95 -2.15 -2.3 -2.1 -0.8 -2.0 0.4 -1.85 1.55 -1.8 2.6 -1.8 3.4 -1.85 3.8 -1.9 3.8 -1.95 3.6 -2.0 3.15 -2.0 2.55 -2.0 2.0 -2.05 2.0 -2.1 2.8 -2.15 4.15 -2.05 6.05 -1.8 6.6 -1.8 7.75 -1.75 7.55 -1.75 7.15 -1.75 6.3 -1.6 5.1 -1.6 4.0 -1.6 2.3 -1.65 0.55 -1.75 -0.7 -1.85 -1.65 -1.95 -2.6 -1.9 -3.35 -1.85 -3.75 -1.8 -3.7 -1.8 -3.65 -1.75 -4.6 Q-1.75 -5.95 -1.9 -5.65 L-1.95 -6.35 -1.95 -6.6 -2.0 -6.6 M-2.3 -5.05 Q-2.1 -7.3 -1.85 -7.3 -1.6 -7.3 -1.4 -5.05 L-1.2 0.45 -1.4 6.0 Q-1.6 8.2 -1.85 8.2 -2.1 8.2 -2.3 6.0 L-2.45 0.45 -2.3 -5.05" fill="#ffcc33" fill-rule="evenodd" stroke="none"/>
  </g>
  <defs>
    <linearGradient gradientTransform="matrix(-9.0E-4, -0.0175, -8.0E-4, 0.0068, -1.7, 4.0)" gradientUnits="userSpaceOnUse" id="gradient0" spreadMethod="pad" x1="-819.2" x2="819.2">
      <stop offset="0.0" stop-color="#ffcc33"/>
      <stop offset="1.0" stop-color="#ffe9a4"/>
    </linearGradient>
  </defs>
</svg>
