<?xml version="1.0" encoding="UTF-8" standalone="no"?>
<svg xmlns:xlink="http://www.w3.org/1999/xlink" height="76.95px" width="64.0px" xmlns="http://www.w3.org/2000/svg">
  <g transform="matrix(1.0, 0.0, 0.0, 1.0, 0.0, 12.95)">
    <path d="M55.55 59.05 L55.4 59.0 55.95 59.0 55.95 59.05 55.55 59.05 M20.2 54.55 Q19.35 54.55 19.2 55.4 L19.2 55.5 19.0 55.5 19.0 55.55 18.85 55.55 18.7 55.6 18.6 55.6 18.5 55.65 18.35 55.75 18.25 55.85 18.2 55.9 18.1 56.0 18.05 56.05 17.85 56.0 15.45 56.05 Q14.95 56.15 14.75 56.65 L14.7 56.9 14.7 57.2 14.8 57.55 14.95 57.8 15.0 57.85 15.45 58.1 16.25 58.3 16.2 58.3 15.8 58.4 15.6 58.4 15.4 58.5 15.25 58.55 14.95 58.7 14.75 58.85 14.65 58.95 14.5 58.75 14.55 58.65 14.45 58.2 14.2 57.7 13.8 57.4 13.35 57.25 Q12.9 57.35 12.5 57.6 L11.45 58.4 Q11.05 58.85 11.05 59.45 L11.15 60.1 9.9 60.9 Q9.45 61.3 9.8 61.7 10.9 63.1 12.8 62.5 L12.9 62.5 13.25 62.85 13.95 63.2 14.7 63.4 15.35 63.5 15.6 63.55 16.05 63.6 17.7 63.9 17.7 63.95 17.7 64.0 0.0 64.0 0.0 0.0 64.0 0.0 64.0 64.0 60.15 64.0 60.85 63.95 Q62.05 63.85 62.95 63.25 63.85 62.65 63.15 61.8 L63.05 61.7 63.1 61.3 62.95 60.95 62.7 60.65 62.15 60.4 59.3 60.45 58.85 60.45 58.35 60.55 57.0 60.55 57.0 60.45 57.05 60.4 57.05 60.3 57.05 60.2 57.05 60.15 57.05 60.05 57.0 60.0 57.0 59.9 57.0 59.8 56.95 59.75 56.9 59.65 56.85 59.6 56.8 59.5 57.75 58.75 Q58.65 57.55 57.3 57.1 55.75 56.55 54.1 56.55 L47.65 56.45 Q48.15 56.3 48.3 55.75 48.4 55.4 48.15 55.2 46.0 53.55 42.95 53.85 L35.55 54.6 20.2 54.55" fill="#e9c572" fill-opacity="0.0" fill-rule="evenodd" stroke="none"/>
    <path d="M61.45 21.3 L61.85 21.65 61.65 21.9 61.25 21.65 Q61.1 21.4 61.45 21.35 L61.45 21.3 M61.25 19.15 L61.2 19.3 61.05 19.65 60.75 19.9 60.05 20.3 59.85 20.25 59.85 20.6 59.7 20.75 59.55 20.6 Q59.4 20.35 59.6 20.2 L59.65 20.2 59.6 20.1 59.35 19.95 59.1 19.65 58.95 19.3 58.95 18.95 59.0 18.8 59.05 18.65 59.1 18.6 58.95 18.55 58.75 18.4 58.75 18.3 58.7 18.25 58.7 18.15 58.7 18.1 58.75 18.0 58.75 17.95 58.85 17.85 58.95 17.8 59.15 17.75 59.15 17.7 59.35 17.8 59.45 17.85 59.55 18.0 59.6 18.15 59.6 18.2 Q59.7 18.05 59.9 18.0 L60.05 18.05 60.05 18.0 60.55 18.15 60.8 18.3 61.05 18.65 61.25 18.95 61.25 19.15 M62.35 24.2 Q62.35 24.55 62.0 24.6 61.5 24.6 61.5 24.2 61.45 23.65 62.0 23.6 L62.0 23.55 Q62.4 23.7 62.35 24.2 M56.2 5.4 L56.15 5.45 55.6 5.5 56.2 5.4 M21.45 11.05 L21.4 11.1 21.35 11.25 21.2 11.45 21.35 11.5 21.45 11.55 21.5 11.65 21.55 11.6 21.6 11.55 21.65 11.5 21.8 11.5 21.95 11.55 22.05 11.6 22.15 11.75 22.15 11.8 25.65 11.65 28.25 11.65 28.25 11.05 28.3 11.0 28.4 10.9 28.5 10.85 28.7 10.8 28.9 10.8 28.95 10.8 29.0 10.75 29.0 10.7 29.0 10.6 29.05 10.55 29.1 10.45 29.2 10.35 29.3 10.35 29.45 10.3 Q30.25 10.25 30.85 10.75 L30.9 10.7 31.0 10.7 31.15 10.75 31.25 10.8 31.35 10.85 31.45 11.0 31.45 11.1 31.55 11.15 31.6 11.2 31.7 11.3 31.75 11.4 32.0 11.3 32.2 11.2 32.4 11.25 32.6 11.3 32.65 11.3 32.7 11.2 32.95 11.05 33.05 11.05 33.2 11.1 33.3 11.15 33.35 11.25 33.4 11.3 33.35 11.4 33.35 11.5 33.3 11.55 33.25 11.6 33.15 11.7 34.3 11.7 34.3 11.55 34.3 11.35 34.35 11.3 34.45 11.25 34.55 11.2 34.7 11.15 34.85 11.2 34.95 11.3 35.05 11.35 35.1 11.5 35.1 11.6 35.1 11.65 35.1 11.7 35.55 11.7 35.55 11.65 35.55 11.55 35.6 11.5 35.6 11.4 35.65 11.35 35.95 11.2 36.15 11.15 36.65 11.2 36.8 11.2 36.9 11.3 36.95 11.35 37.0 11.45 37.05 11.55 37.1 11.6 37.1 11.7 37.1 11.75 39.95 11.8 39.95 11.75 39.9 11.7 39.9 11.6 39.9 11.55 39.9 11.45 39.95 11.4 40.0 11.3 40.05 11.2 39.9 11.15 39.6 11.05 39.5 11.0 39.45 10.95 39.4 10.85 39.4 10.8 39.45 10.65 39.55 10.5 39.65 10.45 40.05 10.35 41.0 10.3 41.55 10.35 42.05 10.45 42.55 10.5 Q42.85 10.55 43.0 10.8 L43.05 10.85 43.6 10.8 43.9 10.8 44.1 10.85 44.2 10.9 44.3 11.0 44.3 11.05 44.35 11.15 44.35 11.2 44.35 11.3 44.35 11.35 44.35 11.45 44.3 11.55 44.25 11.6 44.15 11.65 44.0 11.75 44.0 11.8 44.0 11.85 44.45 11.85 44.45 11.75 44.45 11.7 44.5 11.6 44.5 11.55 44.6 11.45 44.7 11.4 44.9 11.35 44.9 11.3 45.15 11.35 45.45 11.4 45.6 11.45 45.8 11.65 45.85 11.75 46.0 11.6 46.1 11.55 46.25 11.5 46.4 11.6 46.5 11.65 46.55 11.55 46.65 11.5 46.7 11.45 46.75 11.4 46.9 11.35 47.0 11.4 47.15 11.45 47.25 11.5 47.35 11.65 47.35 11.75 47.35 11.8 47.35 11.9 47.35 11.95 50.2 12.0 50.2 11.9 49.7 11.5 49.65 11.1 Q49.9 10.6 50.45 10.55 L50.95 10.5 51.2 10.6 51.35 10.7 51.55 10.9 51.6 11.1 51.6 11.2 52.0 11.55 Q52.25 11.4 52.45 11.4 52.55 11.25 52.75 11.25 L53.25 11.55 53.5 11.5 Q54.15 11.6 54.2 12.1 L54.6 12.1 54.5 11.8 Q54.55 11.4 54.9 11.3 L55.2 11.25 55.6 11.45 55.8 11.85 55.9 12.2 56.1 12.35 56.2 12.3 56.4 12.35 56.5 12.4 56.6 12.55 56.65 12.7 56.65 12.8 56.5 13.0 56.2 13.15 56.1 13.3 56.0 13.35 55.95 13.4 55.8 13.4 55.75 13.4 55.65 13.4 55.7 13.45 55.75 13.5 55.75 13.65 55.7 13.8 55.7 14.0 56.15 13.75 56.35 13.8 56.35 13.65 56.4 13.55 56.5 13.5 56.6 13.5 56.6 13.45 56.8 13.6 56.85 13.85 56.6 13.95 56.7 14.3 Q56.7 14.75 56.15 14.75 L56.05 14.75 Q56.35 15.05 56.25 15.4 L56.1 16.1 56.15 16.1 56.55 16.55 56.55 16.6 56.6 16.7 56.65 16.85 56.6 16.9 56.6 17.0 56.55 17.05 56.5 17.15 56.3 17.55 56.4 17.55 56.6 17.6 56.7 17.65 56.85 17.75 57.0 17.9 57.05 18.05 57.05 18.2 57.0 18.5 56.65 18.95 56.55 19.0 56.6 19.05 56.6 19.1 56.65 19.0 56.8 18.95 57.0 18.9 57.4 19.1 57.5 19.55 57.45 19.65 Q57.8 19.7 57.95 19.95 L58.2 20.0 58.3 20.05 58.3 20.0 58.55 19.85 58.65 19.8 58.8 19.9 58.9 19.95 59.0 20.1 59.05 20.25 59.05 20.35 59.0 20.4 58.95 20.5 58.85 20.55 58.8 20.6 58.55 20.65 58.45 20.6 58.5 21.0 58.65 21.0 58.75 21.1 58.8 21.25 58.85 21.4 58.85 21.45 58.8 21.55 58.65 21.7 58.75 21.65 58.95 21.6 58.95 21.55 59.15 21.65 59.25 21.7 59.3 21.85 59.4 22.0 59.35 22.1 59.25 22.3 58.9 22.45 59.0 22.6 58.95 22.85 58.9 22.9 58.9 23.0 58.8 23.05 58.9 23.1 59.0 23.15 59.05 23.25 59.05 23.4 59.1 23.45 59.05 23.55 58.95 23.65 58.85 23.75 59.0 26.5 59.25 26.4 59.65 26.75 59.85 26.85 60.1 27.05 60.35 27.35 60.55 27.7 60.55 27.9 60.45 28.2 60.1 28.75 59.9 28.9 59.85 29.0 59.85 29.15 60.0 29.45 59.95 29.9 59.8 30.15 59.8 30.2 59.7 30.4 59.65 30.4 59.2 30.75 59.0 30.7 59.0 30.85 59.1 30.8 59.1 30.75 59.25 30.85 59.35 30.9 59.4 31.0 59.5 31.15 59.5 31.2 59.5 31.3 59.45 31.45 59.2 31.65 59.25 31.7 59.3 31.75 59.3 31.8 59.3 31.9 59.3 31.95 59.25 32.05 59.25 32.1 59.4 32.0 59.7 31.95 59.8 31.95 Q60.15 32.05 60.05 32.5 L59.8 33.0 Q59.7 33.25 59.4 33.1 L59.3 33.1 59.25 33.35 59.0 33.55 58.95 33.6 58.95 34.3 59.15 34.2 59.4 34.35 59.6 34.4 59.55 34.35 59.45 34.3 59.45 34.2 59.4 34.05 59.4 33.9 59.45 33.8 59.5 33.75 59.6 33.7 59.8 33.65 59.8 33.6 59.95 33.7 60.05 33.75 60.1 33.8 60.15 33.9 60.15 33.95 60.15 34.15 60.05 34.35 59.8 34.5 59.85 34.5 60.0 34.65 60.1 34.8 60.1 35.05 60.1 35.1 60.05 35.15 59.8 35.25 59.45 35.2 59.35 35.2 58.9 35.25 58.9 35.4 58.95 35.35 59.05 35.35 59.2 35.4 59.3 35.5 59.4 35.55 59.4 35.6 59.55 35.8 59.45 36.05 59.25 36.3 59.05 36.35 58.9 36.3 58.9 37.5 59.1 37.35 59.05 37.05 59.15 36.75 Q59.3 36.4 59.7 36.35 L59.7 36.3 59.9 36.4 60.0 36.45 60.05 36.55 60.1 36.6 60.1 36.65 60.15 36.65 60.2 36.7 60.3 36.8 60.3 36.9 60.3 37.05 60.45 37.15 60.65 37.45 60.7 37.7 60.65 37.85 60.5 38.15 60.55 38.15 60.65 38.2 60.9 38.3 61.05 38.45 61.1 38.55 60.85 38.85 59.8 38.95 59.2 38.7 59.15 38.6 59.1 38.45 59.1 38.25 59.1 38.2 58.9 38.15 58.9 38.65 58.9 39.65 59.15 39.55 59.25 39.55 Q59.65 39.8 59.6 40.25 L59.35 40.65 59.55 41.05 Q59.55 41.35 59.2 41.45 L58.95 41.6 58.95 42.1 59.05 42.15 59.25 42.35 59.3 42.5 59.35 42.65 59.3 42.75 59.35 42.75 59.55 42.85 59.65 42.95 59.75 43.2 59.8 43.25 59.8 43.3 59.75 43.4 59.75 43.45 59.7 43.5 59.6 43.6 59.45 43.7 59.15 43.65 58.95 43.55 58.95 44.0 59.15 43.8 59.65 44.05 Q59.95 44.2 59.85 44.45 L59.55 44.95 59.75 45.2 Q59.95 45.7 59.35 45.8 L58.95 45.75 59.0 48.1 59.0 48.6 Q59.35 48.65 59.55 49.0 59.75 49.5 59.15 49.55 L59.05 49.55 59.0 51.05 59.4 51.2 59.7 51.35 59.75 51.2 59.75 51.1 59.75 50.95 59.85 50.8 60.0 50.6 60.05 50.6 60.35 50.3 61.05 50.0 61.1 49.9 61.5 50.1 61.8 50.25 62.05 50.55 62.2 50.95 62.2 51.1 62.2 51.25 62.05 51.65 61.8 51.9 61.1 52.2 60.55 52.1 60.35 51.95 60.15 51.75 60.05 51.8 60.1 52.0 60.1 52.15 60.1 52.35 59.95 52.7 59.7 52.95 59.0 53.35 58.75 53.3 58.75 53.6 58.85 53.5 59.15 53.35 59.55 53.65 59.65 54.15 59.4 54.35 58.9 54.35 58.65 54.2 58.6 54.55 58.7 54.55 58.75 54.55 59.0 54.45 59.0 54.4 59.4 54.75 59.55 55.2 59.15 55.5 59.1 55.55 58.7 55.8 58.0 55.75 57.9 55.8 Q57.45 56.2 57.15 55.7 L57.05 55.4 56.8 55.65 56.35 55.75 56.05 55.65 56.0 55.55 56.0 55.75 55.95 55.95 55.95 56.35 55.6 56.5 Q55.3 56.45 55.4 56.15 L55.45 56.0 54.15 55.95 54.1 55.95 53.85 56.2 53.5 56.25 53.45 56.15 53.4 55.95 53.4 55.8 52.7 55.85 52.6 56.35 52.25 56.75 52.25 56.85 52.35 56.95 52.45 57.0 52.6 57.05 52.7 57.2 52.75 57.3 52.25 57.65 51.7 57.4 51.55 57.05 51.55 57.0 Q50.7 57.05 50.1 56.55 L49.95 56.85 49.8 57.0 49.65 57.0 49.4 56.85 49.2 56.5 49.3 56.4 49.2 56.4 48.95 56.2 48.9 56.0 48.95 55.95 49.0 55.9 49.05 55.85 49.15 55.8 49.2 55.8 48.9 55.6 48.85 55.75 48.5 56.15 48.35 56.15 48.15 56.1 48.05 55.95 48.0 55.9 47.95 55.8 47.95 55.75 47.95 55.65 47.9 55.5 47.9 55.4 47.9 55.35 47.85 55.2 47.7 55.15 47.45 55.15 47.25 55.1 47.15 55.0 46.95 54.85 46.85 54.7 46.3 54.6 46.3 54.65 46.25 54.75 46.1 54.85 45.8 54.95 45.85 55.1 45.85 55.15 45.9 55.1 46.1 54.95 46.45 54.9 46.55 54.9 46.75 54.9 46.95 55.0 47.15 55.15 47.25 55.4 47.05 55.65 46.95 55.75 46.9 56.0 46.75 56.25 46.65 56.3 46.4 56.2 46.2 55.95 46.2 55.85 45.85 55.5 45.5 55.75 44.75 55.8 44.65 55.85 44.25 55.7 44.2 55.65 44.1 55.55 43.85 55.65 42.2 55.55 42.1 55.45 42.05 55.4 42.05 55.25 42.0 55.2 42.05 55.0 42.05 54.85 40.85 55.0 41.25 55.05 41.45 55.15 41.5 55.2 41.5 55.35 41.35 55.55 40.3 55.5 40.2 55.45 39.5 55.55 39.35 55.5 39.25 55.4 39.25 55.5 39.2 55.6 39.1 55.75 38.95 55.85 38.75 56.0 38.65 56.1 38.55 56.15 38.4 56.0 38.2 55.9 38.15 55.85 38.1 55.9 38.1 56.0 38.15 56.0 38.2 56.1 38.15 56.35 37.65 56.55 36.95 56.45 36.75 56.2 36.75 56.15 36.75 56.0 36.85 55.95 36.9 55.85 36.75 55.8 36.4 55.5 36.35 55.35 36.35 55.25 35.8 55.25 35.4 55.25 35.55 55.5 35.7 55.45 35.7 55.4 36.0 55.5 36.2 55.7 36.0 55.9 35.7 55.95 35.55 55.9 35.5 55.8 35.45 55.85 35.3 55.95 35.1 56.0 34.9 55.95 34.8 55.9 34.55 55.85 34.2 55.8 34.05 55.75 33.85 55.75 33.75 55.8 33.2 56.0 Q32.8 56.2 32.5 56.0 L32.05 55.85 32.0 55.75 32.0 55.7 31.95 55.6 32.0 55.45 32.0 55.25 32.0 55.2 31.1 55.2 31.4 55.35 31.65 55.5 Q31.9 55.5 31.95 55.7 L31.8 55.8 31.35 55.95 31.5 55.95 32.05 56.1 32.6 56.25 32.75 56.35 32.8 56.4 32.85 56.5 32.9 56.55 32.9 56.65 32.9 56.8 32.9 56.85 32.85 56.95 32.85 57.05 32.85 57.1 32.85 57.25 32.85 57.35 32.9 57.4 33.25 57.5 33.5 57.65 33.65 57.45 33.65 57.4 Q33.85 57.4 34.0 57.55 L33.75 57.9 33.55 57.85 33.55 57.95 33.4 58.35 32.85 58.8 Q33.6 60.3 35.8 60.65 36.15 60.7 35.85 60.9 35.3 61.3 34.6 61.35 L34.6 61.4 34.6 61.45 34.6 61.55 34.7 61.6 34.8 61.6 35.0 61.65 Q35.25 61.7 35.35 61.9 L35.4 62.05 35.35 62.1 35.35 62.15 35.35 62.25 35.35 62.3 35.2 62.55 34.7 62.6 34.55 62.45 33.9 62.25 34.0 62.4 34.0 62.45 33.95 62.55 33.85 62.7 33.7 62.85 33.25 62.85 33.15 62.75 33.1 62.65 33.05 62.6 33.05 62.5 33.05 62.45 33.05 62.35 33.05 62.3 33.1 62.25 33.25 62.05 33.45 62.0 33.55 61.95 33.45 61.75 33.4 61.75 33.4 61.7 33.25 61.65 33.0 61.5 32.95 61.55 32.75 61.75 32.7 61.95 32.65 62.0 32.6 62.05 32.55 62.1 32.4 62.1 32.25 62.15 31.9 62.1 31.8 62.05 31.75 61.9 31.7 61.75 31.75 61.4 32.0 61.15 32.2 61.05 32.05 60.95 32.0 60.85 32.0 60.75 32.0 60.7 32.0 60.65 31.45 60.25 31.35 60.25 31.05 60.2 30.7 60.05 30.65 59.8 30.65 59.75 30.55 59.8 30.4 59.7 30.3 59.65 30.15 59.5 29.65 59.3 29.45 59.2 29.45 59.1 29.4 59.05 29.4 58.95 29.4 58.8 29.4 58.7 29.2 58.85 28.95 58.8 28.85 58.75 28.85 58.7 28.9 58.55 29.05 58.35 29.1 58.3 29.2 58.25 29.4 58.4 29.4 58.35 29.5 58.25 29.55 58.2 29.7 58.05 29.95 57.9 29.9 57.85 29.9 57.75 29.9 57.6 29.8 57.65 29.65 57.75 29.65 57.9 29.55 58.05 29.5 58.2 29.45 58.2 29.05 58.1 28.95 57.7 29.05 57.5 29.05 57.4 29.05 57.35 29.1 57.25 29.15 57.1 29.2 57.1 29.15 57.0 29.15 56.95 29.15 56.85 29.15 56.75 29.35 56.55 29.5 56.5 29.75 56.4 29.95 56.4 29.95 56.3 30.0 56.25 30.0 56.15 30.05 56.05 30.15 56.0 30.25 55.95 30.3 55.95 30.45 55.9 30.75 55.9 30.35 55.45 Q30.35 55.25 30.5 55.2 L29.45 55.2 Q29.8 55.35 29.65 55.6 L29.2 55.8 28.55 55.85 28.3 55.65 28.4 55.45 29.3 55.25 29.45 55.2 28.2 55.2 28.2 55.25 28.1 55.45 27.9 55.7 27.85 55.75 28.0 55.9 27.95 56.25 27.75 56.4 27.5 56.4 27.4 56.3 27.4 56.25 27.35 56.15 27.35 56.1 27.4 55.95 27.45 55.85 27.55 55.8 27.6 55.75 27.65 55.7 27.6 55.7 27.55 55.65 27.5 55.55 27.45 55.4 27.45 55.35 27.25 55.45 26.7 55.55 26.1 55.45 26.0 55.35 26.0 55.2 25.8 55.2 25.8 55.25 25.7 55.45 24.75 55.7 Q24.5 55.7 24.3 55.5 L24.3 55.45 24.3 55.35 24.15 55.45 23.95 55.55 24.05 55.7 24.05 55.8 24.0 55.85 23.95 56.1 23.75 56.25 23.45 56.4 23.2 56.3 23.1 56.25 23.0 56.1 22.85 55.85 22.85 55.75 22.55 55.7 22.35 55.65 22.3 55.75 22.3 56.0 22.1 56.3 22.0 56.35 21.4 56.45 20.9 56.4 20.65 56.25 20.6 56.2 20.55 56.1 20.5 55.9 20.5 55.85 20.35 55.95 19.95 56.2 19.65 56.25 19.55 56.15 19.55 56.1 19.5 55.95 19.5 55.85 19.5 55.8 19.5 55.7 19.5 55.65 19.55 55.55 19.6 55.5 19.45 55.5 Q19.1 55.45 18.95 55.25 L18.4 55.7 18.35 55.6 18.35 55.5 18.3 55.5 17.9 55.25 17.45 55.1 17.3 54.95 16.95 55.05 16.4 55.2 16.35 55.45 Q16.15 55.75 15.8 55.65 L15.3 55.45 15.2 55.25 14.95 55.2 14.9 55.2 14.9 55.45 Q14.75 56.2 14.05 56.0 13.3 55.9 13.5 55.15 L13.6 54.95 13.45 54.9 13.45 54.95 13.3 55.05 13.2 55.15 13.05 55.15 12.85 55.05 12.6 54.9 12.55 54.75 12.35 54.7 12.35 54.75 12.3 54.9 12.25 54.95 12.2 55.0 12.15 55.05 12.1 55.1 11.8 55.15 11.4 55.05 11.1 54.9 11.05 54.7 10.4 54.85 10.5 54.9 10.15 55.45 10.2 55.7 10.2 56.2 Q10.15 56.55 9.85 56.5 9.55 56.45 9.4 56.3 L9.35 56.2 9.35 55.95 9.35 55.8 9.35 55.65 9.3 55.65 9.25 55.7 8.85 56.3 8.45 56.75 8.15 56.85 7.75 56.55 7.3 56.65 6.5 56.1 6.5 55.8 6.45 55.75 6.4 55.75 6.45 55.95 Q6.5 56.45 6.0 56.3 L5.65 55.85 Q5.55 55.45 5.95 55.5 L6.3 55.65 6.3 55.45 Q6.4 55.15 6.65 55.2 L6.85 55.4 6.85 55.35 7.0 55.25 6.85 54.95 6.75 55.0 6.35 54.85 6.15 54.7 6.1 54.65 5.7 54.75 Q5.0 54.75 4.65 54.25 L4.5 54.0 4.4 54.0 4.3 53.6 3.8 53.65 Q3.05 53.5 3.3 52.8 3.4 52.3 3.95 52.2 4.5 52.35 4.65 52.75 L4.7 52.7 5.15 52.35 Q5.55 52.4 5.55 52.75 L5.5 53.3 5.85 53.6 5.95 53.7 5.9 52.3 5.85 52.3 5.45 52.15 5.25 52.1 5.1 52.1 4.9 52.0 4.9 51.9 4.85 51.85 4.85 51.75 4.85 51.65 4.85 51.55 4.9 51.5 4.95 51.4 5.0 51.3 5.1 51.3 5.15 51.25 5.25 51.25 5.5 51.3 5.85 51.2 5.6 51.1 5.5 50.9 5.5 50.65 5.5 50.5 5.55 50.35 5.65 50.3 5.85 50.25 5.85 49.8 5.4 49.75 5.0 49.5 4.95 49.45 4.95 49.3 4.95 49.2 4.95 49.15 5.0 49.05 5.0 49.0 4.85 48.9 4.8 48.8 4.8 48.75 4.85 48.65 4.85 48.6 5.05 48.5 5.15 48.45 5.2 48.45 5.3 48.5 5.35 48.55 5.4 48.5 5.55 48.55 5.65 48.65 5.7 48.7 5.75 48.8 5.8 48.8 5.8 48.1 5.75 48.15 5.5 48.3 Q5.0 48.35 4.95 47.95 L4.95 47.8 4.95 47.55 5.0 47.4 4.8 47.4 Q4.3 47.45 4.3 47.05 4.25 46.45 4.8 46.45 L5.2 46.95 5.2 47.2 5.25 47.15 5.5 47.1 5.8 47.25 5.8 47.0 5.8 46.05 5.7 46.05 5.2 45.85 5.1 45.95 4.15 46.05 3.8 45.8 3.8 45.65 3.9 45.3 4.2 45.0 4.8 44.7 5.1 44.8 5.25 44.95 5.3 45.0 5.7 44.8 5.8 44.8 5.85 44.8 5.85 44.65 5.4 44.55 5.1 44.3 5.0 44.15 5.0 44.0 5.0 43.8 5.1 43.65 5.45 43.4 5.55 43.35 5.2 42.5 4.8 42.55 4.75 42.55 4.7 42.55 Q4.45 42.85 4.5 43.25 L4.4 43.95 3.85 44.45 Q3.6 44.45 3.45 44.25 L3.35 44.0 3.35 43.95 3.4 43.8 3.5 43.5 3.5 43.4 3.45 43.3 3.4 43.25 3.4 43.15 3.4 43.1 3.35 43.0 3.35 42.95 3.35 42.85 3.35 42.8 3.1 42.6 3.05 42.6 2.85 42.6 2.6 42.45 Q2.45 42.1 2.75 42.0 L2.9 41.95 2.9 41.9 2.95 41.85 3.05 41.7 3.35 41.5 3.65 41.4 3.75 41.45 3.75 41.35 3.8 41.25 3.85 41.2 3.95 41.1 4.1 40.95 4.3 40.9 4.3 40.85 4.45 40.85 4.55 40.9 4.7 40.95 4.8 41.05 4.85 41.2 4.85 41.35 4.75 41.45 4.65 41.6 4.8 41.5 5.0 41.65 4.8 39.8 4.4 39.8 4.35 39.95 4.1 40.15 3.8 39.95 Q3.6 39.7 3.95 39.55 L4.15 39.5 Q4.0 39.0 4.45 38.9 L4.85 38.9 4.85 38.45 4.8 38.45 4.7 38.45 Q4.5 38.85 3.95 38.3 3.5 37.8 3.75 37.15 L3.9 36.6 3.3 35.9 Q3.1 35.5 3.35 35.1 3.65 34.65 4.1 34.35 L4.1 34.25 Q4.15 33.95 4.35 33.8 L4.0 33.5 3.9 33.35 3.8 33.2 3.8 32.95 3.8 32.8 3.8 32.65 3.95 32.5 4.1 32.3 4.4 32.15 4.8 32.05 4.8 32.0 5.1 32.15 5.25 32.3 5.3 32.3 5.3 31.25 5.2 31.25 4.7 31.2 4.55 31.1 4.5 31.0 4.3 30.95 4.1 31.0 4.0 31.1 3.95 31.25 3.8 31.35 3.8 31.4 3.1 31.25 2.85 30.8 2.75 30.5 Q2.65 30.05 3.05 29.9 L3.4 29.8 3.4 29.75 3.6 29.8 3.6 29.75 3.65 29.6 3.75 29.45 4.1 29.15 4.8 28.85 4.8 28.8 5.2 28.95 5.25 28.95 5.2 27.3 5.0 27.3 Q4.55 27.3 4.5 26.9 4.45 26.4 5.0 26.3 L5.15 26.35 5.15 26.15 5.0 26.15 Q4.55 26.15 4.55 25.75 4.55 25.35 5.0 25.3 L5.15 25.35 5.0 23.05 5.0 22.35 4.45 22.4 Q4.05 22.35 4.0 21.95 L4.0 21.8 4.05 21.6 4.15 21.5 4.25 21.45 4.45 21.4 4.15 21.05 4.05 20.75 4.05 20.55 4.1 20.4 4.25 20.25 4.35 20.1 4.45 20.05 4.75 20.05 4.75 20.0 4.8 19.95 4.8 19.9 4.95 19.75 5.25 19.65 5.4 19.7 5.5 19.8 5.6 19.9 6.1 19.0 6.0 18.95 6.0 18.85 5.9 18.85 5.65 18.7 5.45 18.9 5.15 19.0 4.95 18.95 4.85 18.95 Q4.6 18.95 4.5 18.75 L4.5 18.7 4.5 18.6 4.5 18.55 4.5 18.45 4.55 18.35 4.65 18.35 4.65 18.2 Q4.7 17.8 5.0 17.8 5.4 17.9 5.3 18.3 L5.35 18.3 5.5 18.35 5.55 18.35 5.55 18.25 5.65 18.0 5.6 17.9 5.6 17.85 5.65 17.75 5.7 17.7 5.5 17.65 5.45 17.6 5.4 17.5 Q5.0 17.55 4.8 17.2 L4.75 16.9 4.8 16.75 4.4 16.65 4.25 16.5 4.15 16.3 4.15 16.15 4.15 15.8 4.2 15.45 4.45 15.2 4.8 15.1 4.8 15.05 5.1 15.2 5.25 15.45 5.25 15.35 5.25 15.3 5.25 15.05 Q5.25 14.8 5.4 14.65 L5.8 14.45 6.2 14.4 6.5 14.4 6.6 14.4 6.6 14.15 Q6.35 14.45 5.75 14.15 L5.45 13.85 5.3 13.75 5.25 13.7 5.25 13.6 5.25 13.55 5.3 13.45 5.4 13.4 5.5 13.35 5.85 12.9 6.55 12.9 6.6 12.4 6.3 12.4 6.3 12.35 6.25 12.15 6.25 12.0 6.3 11.9 6.5 11.8 6.7 11.95 6.75 12.0 6.95 11.9 7.35 11.8 Q7.9 11.7 8.3 12.1 L8.65 12.65 8.65 12.6 8.75 12.45 8.8 12.4 9.05 12.4 9.05 12.35 9.2 12.4 9.4 12.45 9.5 12.6 9.55 12.4 9.5 12.25 9.5 12.15 9.3 12.1 8.7 12.1 8.55 12.1 8.35 12.05 8.25 11.95 8.15 11.9 8.15 11.8 8.1 11.75 8.1 11.65 8.1 11.5 8.1 11.4 8.1 11.35 8.2 11.25 8.25 11.2 8.35 11.15 8.4 11.1 8.65 11.1 8.65 11.05 9.3 11.1 9.5 11.1 9.45 11.05 9.4 11.0 9.4 10.9 9.4 10.85 9.4 10.75 9.4 10.7 9.45 10.6 9.5 10.5 9.6 10.45 9.7 10.4 9.8 10.4 9.8 10.35 9.95 10.45 10.15 10.6 10.2 10.75 10.2 10.95 10.2 11.05 10.15 11.1 10.1 11.15 10.5 11.35 10.55 11.45 10.7 11.45 10.8 11.4 10.95 11.4 11.15 11.4 11.45 11.55 11.55 11.6 12.3 11.65 12.5 11.65 12.6 11.75 12.65 11.8 12.7 11.95 12.8 12.2 12.9 12.35 12.95 12.5 12.95 12.55 14.65 12.45 14.65 12.3 14.65 12.25 14.65 12.15 14.7 12.05 14.75 12.0 14.9 11.95 15.2 11.8 Q14.8 11.9 14.6 11.6 14.5 11.35 14.7 11.15 L15.8 10.45 16.4 10.3 16.6 10.3 17.65 10.25 17.7 10.25 Q18.65 10.3 18.3 11.1 L18.25 11.25 18.3 11.25 18.5 11.3 18.65 11.45 18.7 11.55 18.75 11.45 18.75 11.4 18.85 11.3 19.0 11.25 19.1 11.25 19.1 11.2 19.35 11.25 19.5 11.2 19.65 11.25 19.8 11.4 19.85 11.45 20.05 11.6 20.6 11.6 21.0 11.45 20.7 11.25 20.7 11.2 20.65 11.1 20.65 11.05 20.65 10.95 20.7 10.9 20.75 10.8 20.85 10.75 21.05 10.7 21.2 10.75 21.3 10.8 21.35 10.9 21.4 10.95 21.45 11.05 21.55 10.85 21.8 10.75 21.95 10.8 22.0 10.9 22.1 10.95 22.15 11.05 22.1 11.1 22.1 11.2 22.05 11.25 22.0 11.35 21.95 11.4 21.9 11.4 21.8 11.45 21.55 11.3 21.45 11.1 21.45 11.05 M56.65 12.15 L57.4 12.2 57.45 12.15 57.6 12.1 57.75 12.2 57.85 12.25 57.95 12.4 58.0 12.55 57.95 12.65 57.9 12.7 57.85 12.8 57.8 12.85 57.75 12.85 57.6 12.9 57.4 12.85 57.3 12.75 57.2 12.6 57.15 12.55 57.05 12.55 56.75 12.35 56.7 12.25 56.65 12.15 M57.45 13.15 L57.5 13.1 57.6 13.15 57.6 13.25 57.45 13.25 57.45 13.15 M56.9 14.9 L57.0 14.85 57.1 14.75 57.15 14.7 57.3 14.7 57.5 14.85 57.5 15.1 57.3 15.25 57.0 15.3 56.9 15.2 56.85 15.15 56.85 15.05 56.85 15.0 56.9 14.9 M58.05 17.3 L58.25 17.4 58.4 17.5 58.5 17.65 58.55 17.7 58.5 17.85 58.2 18.15 58.2 18.25 58.15 18.4 58.0 18.55 57.6 18.45 57.55 18.4 57.5 18.3 57.5 18.25 57.5 18.15 57.5 18.1 57.55 18.0 57.4 17.8 57.35 17.7 57.35 17.65 57.35 17.55 57.4 17.5 57.6 17.35 57.85 17.25 58.05 17.3 M59.35 16.1 L59.1 16.4 58.7 16.3 58.6 16.1 58.6 16.05 58.6 15.95 58.65 15.9 58.8 15.75 58.95 15.7 59.05 15.7 59.2 15.75 59.3 15.8 59.35 15.9 59.4 15.95 59.35 16.1 M59.55 18.3 L59.6 18.25 59.55 18.25 59.55 18.3 M55.35 12.85 L55.35 12.65 55.2 12.65 55.25 13.15 55.4 13.3 55.5 13.3 55.45 13.2 55.4 13.15 55.35 13.0 55.35 12.85 M55.3 14.45 L55.3 14.55 55.7 14.6 55.65 14.25 55.6 14.3 55.5 14.35 55.4 14.4 55.3 14.45 M60.2 20.65 Q60.1 20.55 60.15 20.45 L60.4 20.2 60.5 20.2 60.65 20.55 60.6 20.65 60.2 20.65 M56.4 23.9 L56.4 24.25 Q56.35 24.85 55.95 24.9 L55.95 25.3 Q56.5 25.7 56.55 26.3 L56.65 26.1 56.75 23.8 56.4 23.9 M59.6 22.95 L59.25 23.1 Q59.05 23.05 59.1 22.75 59.15 22.5 59.55 22.55 59.75 22.7 59.6 22.95 M59.75 21.75 L60.0 21.65 60.05 22.0 59.9 22.15 Q59.75 22.15 59.7 22.0 59.6 21.8 59.75 21.75 M58.65 21.7 L58.6 21.75 58.65 21.7 M59.8 24.1 L60.05 24.8 Q60.05 25.25 59.6 25.05 59.2 24.9 59.25 24.45 59.3 24.05 59.8 24.1 M59.9 25.85 L59.9 26.1 59.7 26.35 59.4 26.35 59.05 26.05 59.0 25.75 59.1 25.45 59.15 25.4 59.35 25.35 59.65 25.45 59.8 25.65 59.9 25.85 M55.9 30.35 L56.0 30.4 56.3 30.6 56.45 30.95 56.45 31.3 56.4 31.4 56.7 31.75 56.65 28.25 Q56.35 28.2 56.15 27.75 L55.95 28.1 55.95 29.2 56.0 29.45 55.95 29.7 55.9 29.85 55.9 30.35 M60.0 29.2 L60.3 28.7 60.5 28.65 60.45 29.1 60.05 29.25 60.0 29.2 M60.35 30.9 L60.5 31.05 60.65 31.2 60.7 31.4 60.75 31.75 60.4 31.85 Q59.95 31.85 59.7 31.5 59.6 31.35 59.65 31.2 L59.8 30.95 Q59.9 30.8 60.05 30.75 L60.35 30.9 M55.6 37.1 Q55.95 37.05 56.15 37.3 L56.25 37.8 55.95 38.15 55.55 38.25 55.55 40.5 55.9 40.35 Q56.5 40.35 56.5 40.95 56.5 41.5 55.9 41.45 L56.15 42.25 Q56.25 43.0 55.55 42.95 L55.55 44.45 55.8 44.35 56.1 44.45 56.35 44.7 56.35 45.05 56.25 45.25 56.2 45.4 56.35 45.95 56.4 46.0 56.65 46.3 56.65 45.9 56.7 44.0 56.3 44.05 Q55.7 44.0 55.7 43.45 55.65 42.95 56.15 42.9 L56.7 43.2 56.7 39.65 Q56.05 39.5 56.2 38.85 56.3 38.4 56.7 38.35 L56.7 36.6 56.7 33.2 55.7 33.75 55.7 33.95 56.0 34.0 56.4 34.3 56.5 34.8 56.3 35.2 56.3 35.3 56.25 35.8 55.75 36.3 55.75 36.35 55.7 36.5 55.6 36.55 55.6 37.1 M60.4 39.15 Q60.5 39.05 60.7 39.05 L60.85 39.3 60.95 39.45 61.1 39.6 61.1 39.75 61.15 39.95 61.15 40.05 61.25 40.35 61.15 40.45 60.9 40.45 60.6 40.5 Q60.0 40.5 60.05 39.95 L60.1 39.6 Q60.1 39.35 60.4 39.15 M60.65 41.2 L61.1 41.0 61.2 41.0 61.2 41.3 61.2 41.85 61.1 42.35 60.75 42.5 60.5 42.45 60.35 42.05 60.35 41.75 60.65 41.2 M55.65 47.75 L56.15 47.5 56.25 47.5 56.4 47.55 56.5 47.6 56.55 47.75 56.65 47.8 56.65 46.5 56.35 47.0 56.3 47.05 55.65 47.0 55.65 47.55 55.65 47.75 M56.65 48.95 L56.65 48.55 56.45 48.7 56.65 48.95 M59.7 47.3 L60.1 47.6 Q60.35 47.85 60.2 48.1 60.0 48.45 59.7 48.35 L59.2 48.1 59.1 48.0 59.1 47.85 59.15 47.7 59.25 47.45 59.45 47.4 59.7 47.35 59.7 47.3 M61.4 47.95 L61.1 48.25 Q60.6 48.2 60.7 47.85 60.75 47.45 61.1 47.45 61.45 47.5 61.4 47.95 M32.85 9.65 L32.85 9.6 32.9 9.5 32.95 9.45 33.0 9.45 33.15 9.4 33.25 9.4 33.4 9.5 33.5 9.55 33.5 9.6 33.55 9.75 33.45 9.9 33.25 10.05 32.9 9.9 32.85 9.65 M31.1 9.7 L31.2 9.65 31.4 9.8 31.4 10.0 31.2 10.1 30.95 10.0 30.95 9.9 30.95 9.8 30.75 9.75 30.65 9.65 30.65 9.55 30.7 9.5 30.7 9.4 30.75 9.35 30.9 9.3 31.05 9.4 31.1 9.65 31.1 9.7 M31.5 11.7 L31.5 11.65 31.4 11.65 31.25 11.65 31.2 11.7 31.5 11.7 M32.9 11.7 L32.95 11.7 32.9 11.7 M22.1 10.75 L22.15 10.65 22.3 10.55 22.5 10.5 22.5 10.45 22.6 10.5 22.75 10.55 22.85 10.6 22.95 10.75 22.95 10.85 22.95 10.9 22.95 11.0 22.9 11.05 22.85 11.15 22.75 11.2 22.7 11.2 22.6 11.25 22.3 11.15 22.15 11.0 22.1 10.9 22.1 10.8 22.1 10.75 M25.1 10.45 L25.2 10.5 25.35 10.55 25.45 10.65 25.55 10.8 25.6 10.85 25.5 11.0 25.35 11.15 24.9 11.15 24.75 11.05 24.7 10.95 24.7 10.9 24.7 10.8 24.75 10.75 24.75 10.65 24.85 10.6 24.9 10.5 24.95 10.5 25.1 10.5 25.1 10.45 M27.35 10.75 L27.5 10.85 27.65 10.95 27.75 11.1 27.8 11.25 27.8 11.35 27.7 11.5 27.3 11.6 26.95 11.3 26.95 11.05 26.95 11.0 27.0 10.9 27.1 10.85 27.2 10.8 27.35 10.75 M29.35 9.35 L29.35 9.45 29.15 9.45 Q29.0 9.4 29.15 9.3 L29.2 9.3 29.35 9.35 M18.6 12.0 L18.7 12.1 19.15 12.1 19.15 12.05 19.1 12.05 18.65 11.95 18.6 11.95 18.6 12.0 M7.0 9.8 L6.8 10.0 6.6 9.9 6.5 9.85 6.45 9.7 6.4 9.55 6.45 9.45 6.5 9.4 6.6 9.35 6.8 9.25 7.0 9.4 7.1 9.6 7.0 9.8 M5.4 15.6 L5.35 15.55 5.45 15.95 5.6 15.85 5.6 15.75 5.5 15.7 5.4 15.6 M6.55 17.3 L6.65 17.35 6.7 17.5 6.7 17.2 6.55 17.25 6.55 17.3 M7.7 17.65 L7.65 17.55 7.65 17.7 7.7 17.8 7.7 17.65 M3.9 13.0 L3.9 13.15 3.9 13.2 3.85 13.25 3.7 13.4 3.35 13.3 3.25 13.15 3.25 13.1 3.25 13.0 3.3 12.95 3.45 12.8 3.6 12.75 3.75 12.85 3.85 12.9 3.9 13.0 M2.9 17.75 L2.9 17.6 2.95 17.4 3.0 17.25 3.1 17.15 3.2 17.05 3.4 17.0 3.8 17.35 Q4.05 17.55 3.9 17.8 L3.4 18.15 Q2.9 18.15 2.9 17.75 M5.0 19.35 L5.05 19.3 5.3 19.45 5.2 19.6 5.05 19.6 5.0 19.35 M2.95 18.8 L3.05 18.95 3.1 19.15 3.1 19.25 3.2 19.3 3.3 19.35 3.4 19.4 3.45 19.5 3.4 19.6 3.2 19.75 2.8 19.8 2.6 19.7 Q2.1 19.85 1.9 19.25 L1.9 19.0 2.1 18.7 Q2.25 18.55 2.5 18.5 L2.8 18.65 2.95 18.8 M3.25 20.75 L3.15 21.0 2.9 21.1 2.55 21.05 2.35 20.95 2.35 20.85 2.35 20.75 2.35 20.7 2.4 20.6 2.4 20.55 2.55 20.5 2.7 20.4 2.9 20.45 3.0 20.5 3.15 20.55 3.25 20.7 3.25 20.75 M5.05 21.6 L5.1 21.45 5.05 21.45 4.95 21.55 5.0 21.55 5.05 21.6 M3.55 22.8 L3.7 23.0 3.8 23.15 4.0 23.5 3.55 23.8 Q3.0 23.85 2.75 23.45 2.6 23.15 2.75 22.85 2.9 22.55 3.2 22.55 L3.45 22.7 3.55 22.8 M4.25 24.15 L4.75 24.6 4.65 25.25 4.25 25.45 Q3.8 25.55 3.75 25.1 L3.7 24.95 3.7 24.8 3.75 24.6 3.8 24.45 3.95 24.3 4.25 24.2 4.25 24.15 M10.95 12.55 L10.75 12.55 10.75 12.7 10.85 12.7 10.9 12.65 10.95 12.55 M3.2 27.15 L3.6 27.3 3.9 27.45 4.15 27.75 4.3 28.1 4.3 28.25 4.3 28.4 4.15 28.8 3.9 29.05 3.2 29.45 2.65 29.25 2.45 29.1 2.15 28.8 2.05 28.45 2.0 28.1 2.05 27.95 2.15 27.75 2.45 27.5 Q2.8 27.3 3.2 27.2 L3.2 27.15 M3.55 31.5 L3.65 31.5 Q4.1 31.8 3.95 32.2 L3.4 32.55 Q2.85 32.55 3.0 32.0 3.1 31.5 3.55 31.5 M2.25 34.05 L2.65 34.35 Q2.85 34.55 2.65 34.85 L2.15 35.2 1.65 35.25 1.5 35.15 1.45 35.0 1.45 34.85 1.45 34.7 1.5 34.5 1.65 34.3 1.9 34.2 2.2 34.05 2.25 34.05 M1.95 35.5 L2.25 35.6 2.5 35.75 2.55 35.9 2.6 36.3 2.55 36.45 2.45 36.6 2.2 36.7 1.55 36.65 1.3 36.35 1.25 36.0 1.35 35.85 1.45 35.7 1.55 35.6 1.65 35.55 1.95 35.5 M4.9 36.3 L4.9 36.35 4.85 37.3 5.0 37.35 5.05 36.55 4.9 36.3 M4.95 35.6 L5.15 35.4 5.2 35.0 4.85 35.1 4.9 35.7 4.95 35.6 M5.25 33.7 L5.05 33.75 5.25 33.85 5.25 33.7 M7.75 42.15 L7.8 42.95 7.85 42.7 7.85 42.2 7.75 42.15 M2.75 38.25 L2.8 38.3 2.8 38.45 2.8 38.55 2.75 38.6 2.6 38.75 2.25 38.65 2.15 38.5 2.15 38.4 2.15 38.35 2.2 38.25 2.35 38.15 2.5 38.1 2.65 38.15 2.75 38.25 M2.6 39.6 L2.5 39.75 2.3 39.85 1.9 39.85 1.75 39.7 1.75 39.65 1.75 39.55 1.8 39.5 1.85 39.4 1.9 39.35 2.1 39.3 2.2 39.3 2.3 39.3 2.45 39.4 2.55 39.45 2.6 39.6 M3.4 40.25 L3.4 40.2 3.6 40.4 3.6 40.65 3.4 40.7 3.15 40.65 3.1 40.6 3.1 40.5 3.1 40.45 3.15 40.35 3.2 40.3 3.4 40.25 M2.95 46.4 L3.05 46.55 3.05 46.7 3.05 46.95 3.0 47.05 2.75 47.4 1.95 47.5 1.75 47.25 1.75 47.1 1.8 46.95 1.95 46.55 2.15 46.3 2.5 46.15 2.5 46.05 2.75 46.25 2.95 46.4 M3.75 46.05 L3.8 46.05 3.95 46.0 4.1 46.05 4.2 46.15 4.3 46.3 4.3 46.45 4.3 46.5 4.2 46.65 3.95 46.75 3.65 46.65 3.6 46.55 3.55 46.5 3.55 46.4 3.55 46.35 3.6 46.25 3.6 46.2 3.7 46.1 3.75 46.05 M1.6 49.35 L1.5 49.05 1.5 49.0 1.5 48.85 1.75 49.5 1.6 49.35 M3.7 48.65 L3.8 48.55 3.85 48.5 3.9 48.5 4.05 48.45 4.2 48.5 4.3 48.6 4.4 48.75 4.45 48.9 4.4 48.95 4.3 49.1 4.05 49.2 3.75 49.1 3.8 49.15 3.9 49.3 3.9 49.35 3.9 49.45 3.7 49.7 3.35 49.85 Q3.1 49.85 3.0 49.7 L3.0 49.65 2.95 49.55 2.95 49.45 3.0 49.4 3.0 49.3 3.05 49.25 3.2 49.15 3.35 49.05 3.5 49.0 3.7 49.05 3.65 48.95 3.65 48.85 3.65 48.8 3.7 48.7 3.7 48.65 M7.8 44.45 L7.85 44.95 7.9 44.85 7.9 44.2 7.85 44.3 7.8 44.45 M7.9 43.55 L7.8 43.45 7.8 43.5 7.9 43.7 7.9 43.55 M39.2 55.25 L39.15 55.2 39.15 55.25 39.2 55.25 M32.95 55.25 L32.95 55.45 33.05 55.4 33.55 55.25 32.95 55.25 M35.2 56.35 L35.25 56.6 35.15 56.75 35.05 56.85 34.9 56.9 34.7 56.9 Q34.45 56.95 34.35 56.65 L34.3 56.6 34.3 56.5 34.35 56.45 34.35 56.35 34.45 56.25 34.6 56.15 34.8 56.15 34.9 56.15 35.05 56.2 35.2 56.35 M30.85 57.05 L30.85 57.0 30.8 57.0 30.85 57.05 M30.4 61.7 L30.25 61.55 30.2 61.5 30.25 61.4 30.25 61.35 30.3 61.3 30.45 61.2 30.55 61.2 30.7 61.25 30.75 61.35 30.85 61.45 30.95 61.55 30.8 61.7 30.65 61.75 30.4 61.7 M32.6 60.95 L32.55 60.95 32.6 60.95 M39.9 56.95 L40.1 56.9 40.3 56.85 40.6 57.1 40.3 57.4 39.9 57.45 39.6 57.25 39.6 57.2 39.7 57.05 39.9 56.95 M25.2 56.25 L25.25 56.2 25.55 56.35 25.55 56.65 25.25 56.85 24.95 56.6 24.85 56.6 24.75 56.6 24.6 56.5 24.35 56.35 24.3 56.2 24.3 56.15 24.35 56.0 24.5 55.85 24.65 55.8 24.75 55.75 24.95 55.8 25.05 55.9 25.15 56.1 25.2 56.25 M22.95 57.55 L22.65 57.7 22.4 57.55 22.3 57.5 22.15 57.35 22.05 57.35 21.8 57.15 21.8 57.1 21.9 56.95 22.05 56.85 22.35 56.65 22.45 56.6 22.55 56.55 22.8 56.9 22.55 57.25 23.25 57.3 23.1 57.4 22.95 57.55 M24.25 57.9 Q24.45 57.95 24.55 58.1 L24.55 58.5 24.25 58.55 24.1 58.25 24.05 58.15 24.05 58.1 24.1 58.0 24.1 57.95 24.15 57.95 24.25 57.9 M28.8 56.35 L28.9 56.4 28.95 56.5 29.0 56.55 29.05 56.7 29.0 56.85 29.0 57.0 28.9 57.15 28.85 57.25 28.7 57.25 28.6 57.25 28.5 57.25 27.9 57.2 27.75 56.85 27.85 56.65 28.1 56.55 28.25 56.6 28.25 56.5 28.3 56.45 28.35 56.35 28.45 56.3 28.6 56.3 28.8 56.35 M28.3 58.3 L28.45 58.35 28.55 58.4 28.65 58.5 28.7 58.55 28.7 58.7 28.7 58.8 28.65 58.85 28.55 58.9 28.3 58.95 28.05 58.85 28.0 58.8 28.0 58.7 28.0 58.55 28.1 58.4 28.3 58.35 28.3 58.3 M27.05 56.5 L27.25 56.55 27.4 56.55 27.55 56.65 27.65 56.75 27.6 56.85 27.45 57.0 27.25 57.05 26.9 57.05 26.7 57.0 26.65 56.9 26.65 56.85 26.7 56.7 26.8 56.65 26.9 56.55 26.95 56.55 27.05 56.55 27.05 56.5 M25.75 58.2 L25.9 58.2 26.05 58.25 26.1 58.4 26.1 58.55 26.1 58.65 25.9 58.8 Q25.6 58.9 25.45 58.65 L25.4 58.4 25.5 58.25 25.65 58.15 25.75 58.2 M29.95 60.8 L29.9 60.85 29.75 61.0 29.4 60.9 29.3 60.75 29.3 60.65 29.35 60.6 29.35 60.5 29.55 60.4 29.65 60.35 29.8 60.4 29.9 60.5 29.95 60.55 30.0 60.7 29.95 60.8 M38.2 63.15 L37.6 63.6 Q36.9 63.7 36.4 63.25 L36.35 63.15 36.35 63.05 36.35 63.0 36.35 62.9 36.4 62.85 36.5 62.75 36.6 62.7 36.75 62.7 37.25 62.65 37.6 62.65 37.75 62.65 37.9 62.7 38.15 62.8 38.2 62.9 38.2 63.15 M16.65 55.65 Q16.9 55.8 16.75 56.15 L16.55 56.35 Q16.15 56.35 16.15 55.95 16.2 55.6 16.55 55.65 L16.65 55.65 M10.75 55.2 L10.8 55.15 Q11.25 55.1 11.45 55.45 L11.4 55.95 10.8 56.35 Q10.3 56.35 10.25 55.9 L10.25 55.75 10.25 55.6 10.3 55.45 10.4 55.35 Q10.5 55.25 10.55 55.25 L10.75 55.2 M12.6 55.25 L12.8 55.2 12.85 55.55 12.6 55.65 12.4 55.5 12.6 55.25 M13.2 56.75 Q13.25 57.25 12.8 57.25 12.35 57.25 12.3 56.85 12.25 56.3 12.8 56.3 13.15 56.35 13.2 56.75 M12.1 56.75 Q12.1 57.15 11.7 57.15 11.3 57.15 11.35 56.7 11.4 56.3 11.75 56.3 12.1 56.45 12.1 56.75 M19.45 56.9 L19.15 57.15 Q18.85 57.1 18.9 56.85 18.95 56.6 19.15 56.55 L19.45 56.9 M17.5 56.4 L17.35 56.5 17.25 56.6 17.2 56.65 17.1 56.75 16.85 56.7 Q16.55 56.55 16.85 56.3 L17.35 56.2 17.5 56.4 M17.7 56.5 L18.0 56.85 17.7 57.05 Q17.4 57.05 17.45 56.75 17.5 56.5 17.7 56.5 M16.85 58.6 L16.85 58.5 16.9 58.45 Q17.1 58.3 17.25 58.25 L17.5 58.2 17.85 58.5 17.65 58.8 17.25 58.9 Q16.95 58.85 16.85 58.65 L16.85 58.6 M8.8 54.95 L8.85 54.95 8.85 54.8 8.8 54.95 M4.45 49.85 Q5.2 50.0 5.15 50.75 5.05 51.4 4.35 51.3 L3.8 51.0 3.8 51.05 3.5 50.9 3.4 50.6 3.35 50.35 3.45 50.2 3.45 50.15 3.65 50.35 3.7 50.5 3.75 50.65 3.8 50.45 Q3.95 49.9 4.45 49.85 M3.25 51.5 L3.25 51.6 3.1 51.55 2.35 51.65 Q1.65 51.4 2.05 50.65 2.25 50.25 2.75 50.25 3.5 50.4 3.3 51.15 L3.25 51.4 3.25 51.5 M2.25 54.1 L2.5 54.05 Q2.85 54.1 2.85 54.45 L2.65 54.9 Q2.15 55.2 2.0 54.75 1.9 54.35 2.25 54.1 M4.0 56.25 L4.25 56.0 4.35 55.95 4.35 56.35 4.3 56.45 4.05 56.45 4.0 56.25 M2.85 56.4 L2.65 56.55 Q2.45 56.55 2.25 56.35 2.0 56.1 2.3 55.9 L2.6 55.85 Q2.9 56.1 2.85 56.4 M4.45 58.1 L4.45 58.05 5.15 58.15 5.4 58.3 5.45 58.45 5.4 58.65 5.2 58.75 5.05 58.8 Q4.15 58.95 4.05 58.25 L4.1 58.2 4.45 58.1 M3.9 57.55 L3.6 57.4 Q3.5 57.2 3.7 57.15 L4.0 57.1 4.05 57.4 3.9 57.55 M9.3 57.5 Q9.3 57.0 9.8 56.95 10.25 57.05 10.25 57.5 10.3 58.05 9.8 58.05 9.3 58.05 9.3 57.5 M6.55 58.6 L6.75 58.55 Q7.1 58.65 7.25 58.85 7.45 59.05 7.25 59.4 7.1 59.65 6.85 59.6 L6.3 59.35 6.25 59.2 6.25 59.0 6.25 58.85 6.4 58.7 6.55 58.6 M61.95 55.55 L62.0 55.45 62.15 55.35 62.25 55.3 62.4 55.35 62.5 55.45 62.55 55.5 62.6 55.65 62.55 55.75 62.55 55.8 62.4 55.9 62.0 55.85 61.95 55.7 61.95 55.6 61.95 55.55 M61.35 54.7 L61.15 54.95 Q60.7 55.15 60.65 54.75 60.65 54.4 60.9 54.25 L61.2 54.2 Q61.45 54.4 61.35 54.7 M62.35 57.15 L62.35 57.3 62.35 57.35 62.4 57.4 62.4 57.5 62.45 57.55 62.45 57.65 62.35 57.8 62.3 57.95 62.2 58.1 62.25 58.1 62.35 58.2 62.4 58.25 62.45 58.4 62.45 58.65 62.4 58.75 62.5 58.8 62.6 58.85 62.65 58.95 62.7 59.1 62.75 59.3 62.65 59.55 62.55 59.7 62.35 59.75 62.2 59.7 62.1 59.65 62.05 59.55 62.0 59.65 61.8 60.0 61.9 60.1 61.95 60.05 62.0 60.0 62.05 59.9 62.1 59.9 62.25 59.9 62.25 59.85 62.45 59.95 62.55 60.0 62.6 60.05 62.65 60.15 62.65 60.3 62.65 60.45 62.55 60.7 62.45 60.8 62.4 60.85 62.25 60.85 62.1 60.8 62.0 60.75 61.9 60.65 61.45 61.0 61.0 61.3 61.0 61.35 61.05 61.35 61.1 61.45 61.1 61.6 61.05 61.65 61.05 61.75 60.95 61.8 60.65 61.75 60.6 61.75 60.6 61.85 60.45 62.2 60.1 62.45 59.8 62.6 59.45 62.45 59.35 62.3 59.35 62.25 59.35 62.15 59.4 62.1 59.4 62.05 59.45 61.9 59.5 61.75 59.6 61.65 59.65 61.65 59.6 61.55 59.6 61.5 59.6 61.4 59.6 61.35 59.65 61.25 59.7 61.2 59.75 61.1 59.9 61.05 59.9 60.95 59.9 60.85 59.95 60.75 60.1 60.55 60.25 60.45 60.4 60.4 60.5 60.4 60.7 60.45 60.75 60.5 60.95 60.45 61.15 60.3 61.25 60.2 61.35 60.1 61.3 60.05 61.2 59.95 61.15 59.9 61.15 59.8 61.1 59.75 61.1 59.6 61.05 59.5 61.1 59.45 61.15 59.35 61.2 59.25 61.25 59.2 61.3 59.1 61.3 59.05 61.35 58.95 61.45 58.9 61.65 58.85 61.7 58.85 61.7 58.75 61.7 58.65 61.65 58.5 61.7 58.35 61.7 58.25 61.65 58.25 61.55 58.2 61.3 58.1 61.2 57.95 61.2 57.9 61.2 57.75 61.3 57.5 61.5 57.25 61.55 57.25 61.5 57.15 61.55 57.0 61.65 56.85 61.75 56.8 61.9 56.9 61.95 56.9 61.95 56.85 62.15 56.95 62.25 57.0 62.3 57.1 62.35 57.15 M61.85 58.15 L61.9 58.15 62.0 58.1 62.0 58.05 61.85 58.15 M62.1 59.05 L62.0 59.05 62.05 59.15 62.1 59.05 M62.0 61.5 L62.05 61.5 62.15 61.45 62.3 61.5 62.4 61.55 62.45 61.65 62.5 61.8 62.5 61.85 62.6 61.95 62.65 62.0 62.7 62.15 62.7 62.25 62.65 62.3 62.5 62.45 62.1 62.35 62.05 62.25 62.0 62.25 61.95 62.2 61.95 62.3 61.95 62.35 61.9 62.45 61.85 62.5 61.9 62.55 61.9 62.65 61.85 62.75 61.7 62.9 61.35 62.95 61.05 62.75 61.0 62.7 61.0 62.6 61.0 62.55 61.05 62.45 61.1 62.4 61.35 62.25 61.35 62.2 61.4 62.1 61.45 62.05 61.5 62.0 61.55 61.95 61.65 61.95 61.8 62.0 61.8 61.95 61.8 61.85 61.8 61.8 61.8 61.7 61.85 61.6 61.95 61.55 62.0 61.5 M56.5 51.05 L56.7 51.05 56.65 49.3 56.25 49.55 55.75 49.7 55.75 50.0 55.8 50.15 Q56.55 50.25 56.5 51.0 L56.5 51.05 M55.9 55.5 L55.95 55.55 55.95 55.45 55.9 55.5 M60.5 52.9 L60.7 53.45 60.6 53.55 Q60.35 53.55 60.15 53.35 60.0 53.15 60.2 53.05 60.35 52.9 60.5 52.9 M55.1 57.2 L55.35 57.35 55.5 57.45 55.55 57.65 55.45 57.8 54.95 57.9 Q54.55 57.8 54.45 57.4 L54.55 57.2 54.75 57.1 55.0 57.15 55.1 57.2 M53.55 56.35 L53.6 56.65 53.45 56.85 53.2 56.6 Q53.1 56.45 53.3 56.4 L53.55 56.35 M54.15 56.5 L54.25 56.5 54.45 56.9 54.35 57.0 54.3 57.05 54.05 57.25 53.8 57.05 53.8 56.95 53.8 56.9 53.8 56.7 53.9 56.55 54.05 56.5 54.15 56.55 54.15 56.5 M53.55 58.85 L53.85 58.6 54.1 58.9 53.85 59.2 Q53.55 59.2 53.55 58.85 M58.3 57.55 L57.95 57.7 57.7 57.45 57.7 57.35 57.7 57.3 57.75 57.2 57.85 57.15 57.95 57.15 58.3 57.25 58.3 57.55 M59.9 56.4 Q60.3 56.45 60.2 56.85 L59.9 57.15 Q59.45 57.15 59.55 56.7 59.65 56.4 59.9 56.4 M56.7 56.3 L56.95 56.5 56.9 56.9 56.8 57.0 57.0 57.35 57.0 57.45 56.3 57.4 56.3 57.25 56.45 57.0 56.4 57.0 56.3 56.95 56.3 56.9 56.3 56.7 56.35 56.5 56.45 56.4 56.7 56.3 M56.3 58.1 L56.45 58.05 56.75 58.2 56.8 58.45 56.75 58.6 56.9 58.75 56.9 59.05 56.55 59.25 56.3 59.15 56.25 59.0 56.25 58.85 56.3 58.7 56.35 58.7 56.25 58.65 56.2 58.6 56.15 58.5 56.15 58.45 56.2 58.25 56.3 58.1 M43.45 54.6 L43.05 54.65 43.45 54.65 43.45 54.6 M44.75 57.15 L44.8 57.05 44.85 57.0 45.05 56.95 45.05 56.9 45.25 56.95 45.45 57.05 45.5 57.15 45.5 57.2 45.5 57.3 45.45 57.35 45.05 57.45 44.8 57.35 44.7 57.3 44.7 57.2 44.75 57.15 M43.1 56.3 L43.1 56.4 43.05 56.45 43.0 56.55 42.95 56.6 42.9 56.6 42.55 56.55 Q42.3 56.5 42.2 56.3 L42.2 55.95 Q42.3 55.8 42.5 55.8 L42.75 55.8 42.9 55.85 43.0 55.95 43.1 56.15 43.1 56.2 43.1 56.3 M43.7 57.1 L43.7 57.05 43.75 56.95 43.9 56.9 44.25 57.0 Q44.45 57.1 44.25 57.2 L43.9 57.25 43.7 57.2 43.7 57.1 M42.0 57.2 L42.0 57.3 42.0 57.35 41.85 57.55 41.75 57.7 41.4 57.85 41.1 57.8 41.0 57.75 40.9 57.5 40.85 57.35 40.8 57.2 40.85 57.15 40.9 57.05 41.0 56.9 41.4 56.7 41.6 56.75 41.75 56.9 41.85 57.05 42.0 57.2 M45.45 61.45 L45.4 61.35 45.4 61.3 45.35 61.2 45.35 61.15 45.35 61.05 45.4 60.9 45.45 60.8 45.65 60.7 46.05 60.45 46.45 60.25 46.55 60.15 46.6 60.05 46.65 59.95 46.6 59.9 46.6 59.8 46.6 59.75 46.6 59.65 46.6 59.5 46.65 59.45 46.7 59.35 46.8 59.3 46.9 59.25 46.95 59.2 47.1 59.2 47.1 59.15 47.2 59.2 47.4 59.25 47.55 59.3 47.7 59.4 47.85 59.5 48.55 59.3 50.1 59.35 50.25 59.55 50.3 59.6 50.2 59.9 Q51.0 59.8 51.2 60.65 51.35 61.3 50.6 61.55 L50.4 61.65 50.5 61.65 51.0 61.7 51.4 61.95 51.5 61.9 51.65 61.9 51.75 61.9 51.95 61.95 52.0 62.0 52.05 62.1 52.1 62.15 52.1 62.25 52.1 62.3 52.05 62.4 52.0 62.45 51.95 62.55 52.0 62.65 52.0 62.7 51.9 62.85 51.4 62.95 51.3 62.95 51.25 63.0 51.1 63.0 50.85 62.85 50.8 62.75 50.75 62.6 50.7 62.6 50.6 62.65 49.8 62.55 49.6 62.35 49.4 62.2 49.3 62.05 49.25 62.05 49.15 62.15 49.2 62.25 49.25 62.3 49.25 62.45 49.25 62.65 49.15 62.85 49.0 63.0 48.85 63.0 48.65 62.95 48.55 63.1 47.9 63.4 47.55 63.2 47.45 63.05 47.45 63.0 47.45 62.9 47.55 62.8 47.6 62.75 47.45 62.75 47.3 62.9 47.25 62.95 47.1 62.95 46.85 62.85 46.75 62.7 46.7 62.65 46.75 62.55 46.8 62.45 44.55 62.4 44.55 62.6 44.45 62.85 44.4 62.9 44.2 62.95 44.05 62.9 43.95 62.85 43.9 62.75 43.85 62.7 43.85 62.6 43.85 62.55 43.85 62.45 43.85 62.35 43.9 62.3 43.95 62.2 44.0 62.2 43.9 62.15 43.9 62.1 44.0 61.9 Q44.2 61.65 44.55 61.65 L45.45 61.45 M48.35 56.7 L48.75 56.55 48.75 56.5 48.95 56.6 49.1 56.65 49.2 56.85 49.35 57.0 49.35 57.1 49.35 57.2 49.2 57.35 49.1 57.45 48.75 57.7 48.45 57.55 48.35 57.5 48.25 57.35 48.2 57.2 48.15 57.0 48.2 56.95 48.25 56.85 48.35 56.7 M50.25 57.3 L49.7 57.3 49.9 57.15 50.25 57.3 M46.95 57.05 L46.6 57.05 46.55 57.0 46.5 56.9 46.5 56.85 46.55 56.65 46.65 56.5 46.8 56.45 47.05 56.6 47.15 56.85 46.95 57.05 M45.6 62.8 L45.65 62.85 45.7 62.75 45.8 62.7 45.95 62.65 46.2 62.8 46.3 63.0 46.2 63.2 45.95 63.35 45.8 63.3 45.7 63.2 45.65 63.05 45.6 62.95 45.5 63.1 45.15 63.2 44.9 63.1 44.8 63.05 44.8 62.95 44.8 62.9 44.8 62.8 44.8 62.75 44.9 62.65 44.95 62.6 45.0 62.6 45.1 62.55 45.2 62.55 45.4 62.6 45.5 62.65 45.6 62.75 45.6 62.8 M43.1 63.0 L43.05 63.1 42.85 63.2 Q42.65 63.25 42.55 63.1 L42.55 62.85 42.65 62.75 42.75 62.65 42.9 62.7 43.0 62.8 43.05 62.85 43.1 63.0 M58.8 62.55 L58.5 62.95 57.95 62.95 57.85 62.85 57.0 63.0 56.4 63.05 56.0 62.8 56.0 62.7 56.0 62.65 56.05 62.55 56.05 62.5 56.2 62.35 56.25 62.25 56.4 62.25 56.8 62.35 57.1 62.45 57.2 62.4 57.35 62.25 57.5 62.15 Q57.65 62.0 57.8 62.0 L58.0 62.05 58.1 62.1 58.1 62.15 58.2 62.1 58.35 62.05 58.55 62.1 58.7 62.2 58.75 62.25 58.85 62.4 58.8 62.55 M54.5 63.25 L54.15 63.15 53.45 63.4 52.8 63.35 52.65 63.15 52.6 63.2 52.45 63.2 52.4 63.2 52.1 63.1 52.0 63.0 51.95 62.9 51.95 62.85 52.0 62.75 52.15 62.6 52.35 62.5 52.45 62.45 52.6 62.5 52.7 62.55 52.8 62.6 52.85 62.7 52.85 62.75 52.85 62.85 53.2 62.65 53.7 62.55 53.8 62.55 53.95 62.55 54.1 62.6 54.15 62.65 54.3 62.6 54.6 62.55 54.85 62.5 55.05 62.5 55.2 62.55 55.35 62.6 55.5 62.75 55.6 62.9 55.45 63.1 54.5 63.25" fill="#e9c572" fill-rule="evenodd" stroke="none"/>
    <path d="M12.65 4.65 L15.35 4.65 14.15 16.35 11.45 16.35 12.65 4.65 M22.5 4.65 L25.2 4.65 26.45 16.35 23.75 16.35 22.5 4.65" fill="#a36c36" fill-rule="evenodd" stroke="none"/>
    <path d="M12.65 4.65 L15.35 4.65 14.15 16.35 11.45 16.35 12.65 4.65 M22.5 4.65 L25.2 4.65 26.45 16.35 23.75 16.35 22.5 4.65" fill="none" stroke="#50361b" stroke-linecap="butt" stroke-linejoin="round" stroke-width="1.0"/>
    <path d="M11.0 -11.3 L11.55 8.1 15.5 8.25 16.6 6.75 16.75 8.5 26.65 8.4 27.05 -11.45 21.75 -11.2 21.15 -8.6 20.4 -11.7 11.0 -11.3 Z" fill="none" stroke="#50361b" stroke-linecap="butt" stroke-linejoin="round" stroke-width="2.5"/>
    <path d="M21.75 -11.2 L27.05 -11.45 26.65 8.4 16.75 8.5 16.6 6.75 15.5 8.25 11.55 8.1 11.0 -11.3 20.4 -11.7 21.15 -8.6 21.75 -11.2" fill="#a36c36" fill-rule="evenodd" stroke="none"/>
    <path d="M18.6 -10.0 Q22.2 -10.25 24.3 -7.85 25.85 -6.05 25.75 -3.6 25.6 -0.55 24.15 2.15 22.75 4.7 19.85 5.75 L19.65 5.8 19.35 5.8 19.6 6.1 20.1 6.8 Q20.4 7.05 20.2 7.35 L18.75 7.65 17.5 7.55 17.45 7.2 17.8 6.7 18.05 6.15 18.15 5.8 17.95 5.7 17.4 5.45 Q15.95 4.8 14.95 3.6 13.05 1.35 12.9 -1.5 12.75 -4.3 13.95 -6.7 15.4 -9.55 18.6 -10.0" fill="#ffffff" fill-opacity="0.69411767" fill-rule="evenodd" stroke="none"/>
    <path d="M19.25 -9.15 Q21.5 -9.15 23.05 -7.2 24.65 -5.15 24.65 -2.25 24.65 0.6 23.05 2.6 21.5 4.65 19.25 4.65 16.95 4.65 15.35 2.6 13.8 0.6 13.8 -2.25 13.8 -5.15 15.35 -7.2 16.95 -9.15 19.25 -9.15" fill="#0000ff" fill-rule="evenodd" stroke="none"/>
    <path d="M19.25 -6.9 Q20.8 -6.9 21.8 -5.6 22.9 -4.2 22.9 -2.25 22.9 -0.4 21.8 1.0 20.8 2.4 19.25 2.4 17.65 2.4 16.55 1.0 15.55 -0.4 15.55 -2.25 15.55 -4.2 16.55 -5.6 17.65 -6.9 19.25 -6.9" fill="#ff0000" fill-rule="evenodd" stroke="none"/>
    <path d="M20.95 -2.25 Q20.95 -1.35 20.35 -0.7 19.95 -0.1 19.25 -0.1 18.5 -0.1 17.95 -0.7 17.5 -1.35 17.5 -2.25 17.5 -3.2 17.95 -3.8 18.5 -4.45 19.25 -4.45 19.95 -4.45 20.35 -3.8 20.95 -3.2 20.95 -2.25" fill="#ffcc00" fill-rule="evenodd" stroke="none"/>
    <path d="M49.0 4.65 L50.25 16.35 47.55 16.35 46.3 4.65 49.0 4.65 M39.15 4.65 L37.95 16.35 35.25 16.35 36.45 4.65 39.15 4.65" fill="#a36c36" fill-rule="evenodd" stroke="none"/>
    <path d="M49.0 4.65 L50.25 16.35 47.55 16.35 46.3 4.65 49.0 4.65 M39.15 4.65 L37.95 16.35 35.25 16.35 36.45 4.65 39.15 4.65" fill="none" stroke="#50361b" stroke-linecap="butt" stroke-linejoin="round" stroke-width="1.0"/>
    <path d="M44.2 -11.7 L34.8 -11.3 35.35 8.1 39.3 8.25 40.4 6.75 40.55 8.5 50.45 8.4 50.85 -11.45 45.55 -11.2 44.95 -8.6 44.2 -11.7 Z" fill="none" stroke="#50361b" stroke-linecap="butt" stroke-linejoin="round" stroke-width="2.5"/>
    <path d="M45.55 -11.2 L50.85 -11.45 50.45 8.4 40.55 8.5 40.4 6.75 39.3 8.25 35.35 8.1 34.8 -11.3 44.2 -11.7 44.95 -8.6 45.55 -11.2" fill="#a36c36" fill-rule="evenodd" stroke="none"/>
    <path d="M37.75 -6.7 Q39.2 -9.55 42.4 -10.0 46.0 -10.25 48.1 -7.85 49.65 -6.05 49.55 -3.6 49.4 -0.55 47.95 2.15 46.55 4.7 43.65 5.75 L43.45 5.8 43.15 5.8 43.4 6.1 43.9 6.8 Q44.2 7.05 44.0 7.35 L42.55 7.65 41.3 7.55 41.25 7.2 41.6 6.7 41.85 6.15 41.95 5.8 41.75 5.7 Q41.4 5.65 41.2 5.45 39.75 4.8 38.75 3.6 36.85 1.35 36.7 -1.5 36.55 -4.3 37.75 -6.7" fill="#ffffff" fill-opacity="0.69411767" fill-rule="evenodd" stroke="none"/>
    <path d="M39.15 -7.2 Q40.75 -9.15 43.05 -9.15 45.3 -9.15 46.85 -7.2 48.45 -5.15 48.45 -2.25 48.45 0.6 46.85 2.6 45.3 4.65 43.05 4.65 40.75 4.65 39.15 2.6 37.6 0.6 37.6 -2.25 37.6 -5.15 39.15 -7.2" fill="#0000ff" fill-rule="evenodd" stroke="none"/>
    <path d="M40.35 -5.6 Q41.45 -6.9 43.05 -6.9 44.6 -6.9 45.6 -5.6 46.7 -4.2 46.7 -2.25 46.7 -0.4 45.6 1.0 44.6 2.4 43.05 2.4 41.45 2.4 40.35 1.0 39.35 -0.4 39.35 -2.25 39.35 -4.2 40.35 -5.6" fill="#ff0000" fill-rule="evenodd" stroke="none"/>
    <path d="M44.75 -2.25 Q44.75 -1.35 44.15 -0.7 43.75 -0.1 43.05 -0.1 42.3 -0.1 41.75 -0.7 41.3 -1.35 41.3 -2.25 41.3 -3.2 41.75 -3.8 42.3 -4.45 43.05 -4.45 L44.15 -3.8 Q44.75 -3.2 44.75 -2.25" fill="#ffcc00" fill-rule="evenodd" stroke="none"/>
  </g>
</svg>
