<?xml version="1.0" encoding="UTF-8" standalone="no"?>
<svg xmlns:xlink="http://www.w3.org/1999/xlink" height="37.55px" width="51.7px" xmlns="http://www.w3.org/2000/svg">
  <g transform="matrix(1.0, 0.0, 0.0, 1.0, 26.45, 15.15)">
    <path d="M1.95 20.15 L1.45 18.9 Q1.45 17.3 3.25 17.6 5.05 17.95 5.05 19.2 L4.6 20.5 Q4.1 21.55 3.5 21.55 2.65 21.55 1.95 20.15 M-10.75 18.75 L-11.0 19.85 Q-11.35 20.65 -11.95 20.65 -12.75 20.65 -13.2 19.65 L-13.5 18.7 -13.25 17.95 Q-12.95 17.45 -12.1 17.45 -11.35 17.45 -11.0 17.95 -10.75 18.25 -10.75 18.75" fill="#999999" fill-rule="evenodd" stroke="none"/>
    <path d="M-3.65 18.2 L-3.15 17.95 -3.2 17.95 Q-5.15 17.95 -4.8 19.55 L-4.75 19.6 -4.7 19.2 -3.65 18.2 M-4.9 18.6 Q-4.45 17.8 -3.8 17.6 -2.8 17.2 -1.6 17.1 -1.2 -2.55 -0.35 -2.65 0.45 -2.6 1.25 17.0 2.5 17.15 3.35 17.6 4.0 17.85 4.5 18.55 L4.8 19.85 Q4.85 20.75 3.35 21.3 1.9 21.9 -0.25 21.9 -2.3 21.95 -3.8 21.3 -5.25 20.75 -5.3 19.85 -5.3 19.4 -4.9 18.6 M-2.95 21.2 L-2.7 21.1 -3.9 20.8 -4.55 20.25 Q-4.1 21.2 -2.95 21.2" fill="#666666" fill-rule="evenodd" stroke="none"/>
    <path d="M-4.9 18.6 Q-5.3 19.4 -5.3 19.85 -5.25 20.75 -3.8 21.3 -2.3 21.95 -0.25 21.9 1.9 21.9 3.35 21.3 4.85 20.75 4.8 19.85 L4.5 18.55 Q4.0 17.85 3.35 17.6 2.5 17.15 1.25 17.0 0.45 -2.6 -0.35 -2.65 -1.2 -2.55 -1.6 17.1 -2.8 17.2 -3.8 17.6 -4.45 17.8 -4.9 18.6 Z" fill="none" stroke="#333333" stroke-linecap="round" stroke-linejoin="round" stroke-width="1.0"/>
    <path d="M7.7 13.65 L8.2 13.85 8.15 13.8 5.9 13.85 5.85 13.9 6.2 13.65 7.7 13.65 M6.5 13.05 L8.0 13.15 9.9 14.35 Q24.1 0.75 24.75 1.3 25.25 1.9 11.95 16.3 L13.05 18.2 Q13.3 18.85 13.15 19.7 L12.5 20.85 Q11.9 21.45 10.4 20.85 8.95 20.2 7.45 18.7 5.95 17.3 5.35 15.8 4.8 14.35 5.35 13.7 5.65 13.4 6.5 13.05 M6.05 16.3 L6.3 16.45 5.65 15.3 5.55 14.5 Q5.2 15.45 6.05 16.3" fill="#666666" fill-rule="evenodd" stroke="none"/>
    <path d="M6.5 13.05 Q5.65 13.4 5.35 13.7 4.8 14.35 5.35 15.8 5.95 17.3 7.45 18.7 8.95 20.2 10.4 20.85 11.9 21.45 12.5 20.85 L13.15 19.7 Q13.3 18.85 13.05 18.2 L11.95 16.3 Q25.25 1.9 24.75 1.3 24.1 0.75 9.9 14.35 L8.0 13.15 6.5 13.05 Z" fill="none" stroke="#333333" stroke-linecap="round" stroke-linejoin="round" stroke-width="1.0"/>
    <path d="M-13.6 18.2 L-13.4 17.7 -13.45 17.75 Q-14.85 19.15 -13.4 20.0 L-13.35 20.05 -13.6 19.7 -13.6 18.2 M-14.2 19.4 Q-14.4 18.5 -14.1 17.9 L-12.9 16.0 Q-26.5 1.8 -25.95 1.15 -25.35 0.65 -10.95 13.95 -9.95 13.15 -9.05 12.85 L-7.55 12.75 -6.4 13.4 Q-5.8 14.0 -6.4 15.5 -7.05 16.95 -8.55 18.45 -9.95 19.95 -11.45 20.55 -12.9 21.1 -13.55 20.55 L-14.2 19.4 M-10.95 19.85 L-10.8 19.6 -11.95 20.25 -12.75 20.35 Q-11.8 20.7 -10.95 19.85" fill="#666666" fill-rule="evenodd" stroke="none"/>
    <path d="M-14.2 19.4 L-13.55 20.55 Q-12.9 21.1 -11.45 20.55 -9.95 19.95 -8.55 18.45 -7.05 16.95 -6.4 15.5 -5.8 14.0 -6.4 13.4 L-7.55 12.75 -9.05 12.85 Q-9.95 13.15 -10.95 13.95 -25.35 0.65 -25.95 1.15 -26.5 1.8 -12.9 16.0 L-14.1 17.9 Q-14.4 18.5 -14.2 19.4 Z" fill="none" stroke="#333333" stroke-linecap="round" stroke-linejoin="round" stroke-width="1.0"/>
    <path d="M-12.2 5.1 L-11.85 4.65 -11.9 4.7 Q-13.6 5.65 -12.5 6.9 L-12.45 6.85 -12.6 6.45 -12.2 5.1 M-13.1 6.1 Q-13.05 5.15 -12.6 4.6 -11.95 3.8 -11.0 3.15 -20.4 -14.1 -19.8 -14.6 -19.05 -14.95 -8.55 1.6 L-6.45 1.05 Q-5.7 0.95 -4.95 1.35 L-4.05 2.25 Q-3.55 3.05 -4.6 4.3 -5.55 5.55 -7.4 6.6 -9.15 7.7 -10.75 7.85 -12.3 8.1 -12.8 7.3 L-13.1 6.1 M-10.1 7.35 L-9.9 7.1 -11.1 7.45 -11.9 7.3 -10.1 7.35" fill="#666666" fill-rule="evenodd" stroke="none"/>
    <path d="M-13.1 6.1 L-12.8 7.3 Q-12.3 8.1 -10.75 7.85 -9.15 7.7 -7.4 6.6 -5.55 5.55 -4.6 4.3 -3.55 3.05 -4.05 2.25 L-4.95 1.35 Q-5.7 0.95 -6.45 1.05 L-8.55 1.6 Q-19.05 -14.95 -19.8 -14.6 -20.4 -14.1 -11.0 3.15 -11.95 3.8 -12.6 4.6 -13.05 5.15 -13.1 6.1 Z" fill="none" stroke="#333333" stroke-linecap="round" stroke-linejoin="round" stroke-width="1.0"/>
    <path d="M5.5 1.75 L6.05 1.8 6.0 1.75 Q4.3 0.8 3.8 2.35 L3.85 2.4 4.1 2.1 5.5 1.75 M4.2 1.45 Q5.05 1.0 5.7 1.15 6.75 1.35 7.8 1.8 18.0 -14.95 18.75 -14.65 19.45 -14.2 10.35 3.15 L11.85 4.7 Q12.3 5.3 12.35 6.1 L12.05 7.4 Q11.65 8.2 10.0 7.95 8.45 7.7 6.6 6.65 4.75 5.65 3.85 4.4 2.9 3.15 3.3 2.35 L4.2 1.45 M4.6 4.7 L4.9 4.75 4.0 3.9 Q3.65 3.45 3.7 3.05 3.6 4.1 4.6 4.7" fill="#666666" fill-rule="evenodd" stroke="none"/>
    <path d="M4.2 1.45 L3.3 2.35 Q2.9 3.15 3.85 4.4 4.75 5.65 6.6 6.65 8.45 7.7 10.0 7.95 11.65 8.2 12.05 7.4 L12.35 6.1 Q12.3 5.3 11.85 4.7 L10.35 3.15 Q19.45 -14.2 18.75 -14.65 18.0 -14.95 7.8 1.8 6.75 1.35 5.7 1.15 5.05 1.0 4.2 1.45 Z" fill="none" stroke="#333333" stroke-linecap="round" stroke-linejoin="round" stroke-width="1.0"/>
  </g>
</svg>
