<?xml version="1.0" encoding="UTF-8" standalone="no"?>
<svg xmlns:xlink="http://www.w3.org/1999/xlink" height="50.05px" width="119.5px" xmlns="http://www.w3.org/2000/svg">
  <g transform="matrix(1.0, 0.0, 0.0, 1.0, 10.15, 1.0)">
    <path d="M-8.25 22.15 Q-7.05 21.15 -5.35 21.15 -3.65 21.15 -2.5 22.15 -1.3 23.15 -1.3 24.55 -1.3 25.95 -2.5 26.95 -3.65 27.95 -5.35 27.95 -7.05 27.95 -8.25 26.95 -9.4 25.95 -9.4 24.55 -9.4 23.15 -8.25 22.15 Z" fill="none" stroke="#666666" stroke-linecap="round" stroke-linejoin="round" stroke-width="1.5"/>
    <path d="M-8.25 22.15 Q-7.05 21.15 -5.35 21.15 -3.65 21.15 -2.5 22.15 -1.3 23.15 -1.3 24.55 -1.3 25.95 -2.5 26.95 -3.65 27.95 -5.35 27.95 -7.05 27.95 -8.25 26.95 -9.4 25.95 -9.4 24.55 -9.4 23.15 -8.25 22.15" fill="#999999" fill-rule="evenodd" stroke="none"/>
    <path d="M108.35 24.0 L108.35 24.05 Q108.35 34.0 102.45 41.05 96.6 48.05 88.25 48.05 L20.1 48.05 Q11.75 48.05 5.9 41.05 0.0 34.0 0.0 24.05 L0.0 24.0 Q0.0 14.05 5.9 7.0 11.75 0.0 20.1 0.0 L88.25 0.0 Q96.6 0.0 102.45 7.0 108.35 14.05 108.35 24.0 M98.7 24.0 Q98.7 16.4 93.85 11.05 89.05 5.7 82.15 5.7 L26.2 5.7 Q19.35 5.7 14.55 11.05 9.7 16.4 9.7 24.0 L9.7 24.05 Q9.7 31.6 14.55 37.0 19.35 42.35 26.2 42.35 L82.15 42.35 Q89.05 42.35 93.85 37.0 98.7 31.6 98.7 24.05 L98.7 24.0" fill="#ffc418" fill-rule="evenodd" stroke="none"/>
    <path d="M108.35 24.0 Q108.35 14.05 102.45 7.0 96.6 0.0 88.25 0.0 L20.1 0.0 Q11.75 0.0 5.9 7.0 0.0 14.05 0.0 24.0 L0.0 24.05 Q0.0 34.0 5.9 41.05 11.75 48.05 20.1 48.05 L88.25 48.05 Q96.6 48.05 102.45 41.05 108.35 34.0 108.35 24.05 L108.35 24.0 Z" fill="none" stroke="#322210" stroke-linecap="round" stroke-linejoin="round" stroke-width="2.0"/>
    <path d="M94.8 10.75 Q99.8 16.25 99.8 24.0 L99.8 24.1 Q99.8 31.8 94.8 37.35 89.9 42.85 82.85 42.85 L25.5 42.85 Q18.5 42.85 13.55 37.35 8.6 31.8 8.6 24.1 L8.6 24.0 Q8.6 16.25 13.55 10.75 18.5 5.25 25.5 5.25 L82.85 5.25 Q89.9 5.25 94.8 10.75" fill="#c39305" fill-rule="evenodd" stroke="none"/>
  </g>
</svg>
