<?xml version="1.0" encoding="UTF-8" standalone="no"?>
<svg xmlns:xlink="http://www.w3.org/1999/xlink" height="77.15px" width="77.15px" xmlns="http://www.w3.org/2000/svg">
  <g transform="matrix(1.0, 0.0, 0.0, 1.0, -6.85, 8.7)">
    <path d="M84.0 29.95 Q84.0 45.85 72.7 57.15 61.4 68.45 45.35 68.45 29.45 68.45 18.15 57.15 6.85 45.85 6.85 29.8 6.85 13.9 18.15 2.6 29.45 -8.7 45.35 -8.7 61.4 -8.7 72.7 2.6 84.0 13.9 84.0 29.95" fill="#333333" fill-rule="evenodd" stroke="none"/>
    <path d="M24.9 8.7 Q35.5 -1.85 50.35 -1.85 65.3 -1.85 75.85 8.7 79.2 12.05 81.45 15.8 84.0 22.35 84.0 29.95 84.0 45.85 72.7 57.15 62.3 67.55 47.85 68.4 33.55 67.55 23.15 57.15 L20.35 54.05 20.15 53.8 Q14.35 45.15 14.35 34.1 14.35 19.25 24.9 8.7" fill="#666666" fill-rule="evenodd" stroke="none"/>
    <path d="M76.6 34.2 Q76.6 45.0 68.9 52.65 61.2 60.35 50.35 60.35 39.55 60.35 31.85 52.65 24.2 45.0 24.2 34.1 24.2 23.3 31.85 15.6 39.55 7.95 50.35 7.95 61.2 7.95 68.9 15.6 76.6 23.3 76.6 34.2" fill="#333333" fill-rule="evenodd" stroke="none"/>
    <path d="M31.85 15.6 Q39.55 7.95 50.35 7.95 L52.05 8.0 Q59.5 15.65 59.5 26.35 59.5 37.15 51.8 44.8 44.1 52.5 33.25 52.5 L31.65 52.45 Q24.2 44.85 24.2 34.1 24.2 23.3 31.85 15.6" fill="#cccccc" fill-rule="evenodd" stroke="none"/>
  </g>
</svg>
