<?xml version="1.0" encoding="UTF-8" standalone="no"?>
<svg xmlns:xlink="http://www.w3.org/1999/xlink" height="52.95px" width="21.0px" xmlns="http://www.w3.org/2000/svg">
  <g transform="matrix(1.0, 0.0, 0.0, 1.0, 10.5, 26.45)">
    <path d="M5.8 -18.8 L4.3 -18.45 6.35 -18.45 6.8 -19.1 5.8 -18.8 M5.85 -19.8 Q7.05 -19.9 7.05 -20.55 L6.85 -21.05 Q5.6 -20.35 5.85 -19.8 M8.1 -21.3 Q9.0 -23.0 9.0 -19.45 L8.5 -18.3 Q7.85 -17.45 6.85 -17.45 L6.2 -17.45 4.7 -17.2 -0.8 -17.7 0.0 -17.3 1.7 -17.15 Q2.6 -17.05 2.5 -16.4 L3.4 -16.55 4.75 -16.55 5.2 -16.05 5.2 -16.0 5.25 -15.9 Q5.25 -15.5 4.0 -15.2 L1.95 -15.2 4.5 -15.05 4.05 -14.65 1.75 -14.45 2.05 -13.85 3.6 -13.8 4.25 -13.95 4.6 -13.6 Q4.6 -12.95 2.55 -12.95 L1.0 -13.05 3.7 -12.7 3.85 -12.55 3.6 -12.3 4.45 -11.4 4.0 -10.85 1.75 -10.95 1.65 -10.9 1.95 -10.4 Q1.95 -9.95 1.2 -9.95 L-1.1 -9.95 -1.25 -9.85 -3.55 -10.15 -3.15 -9.8 -3.35 -9.7 -3.6 -9.7 -2.05 -8.95 2.25 -8.25 2.7 -7.8 2.25 -7.35 -3.05 -7.35 -0.1 -6.6 Q1.95 -5.95 1.95 -5.55 1.95 -4.85 -1.35 -4.85 L0.55 -4.6 Q1.7 -4.5 1.7 -3.95 L1.55 -3.6 -0.05 -3.45 -5.2 -3.9 -6.0 -3.85 -3.9 -3.2 2.15 -3.1 Q2.95 -3.05 2.85 -2.55 2.85 -2.15 1.8 -1.85 L0.0 -1.35 -0.3 -1.2 0.6 -1.35 2.3 -1.05 2.4 -0.75 Q2.4 -0.3 1.0 0.2 L-1.3 0.95 -1.65 1.1 1.1 0.55 3.25 -0.2 3.65 0.1 Q3.65 0.4 1.75 1.3 L0.4 1.85 Q1.7 1.75 4.8 0.0 7.2 -1.35 7.2 -0.2 7.2 0.75 5.65 2.5 4.2 4.15 2.95 4.85 L7.35 2.2 Q7.95 2.2 7.95 2.75 L7.35 4.55 8.05 3.8 Q8.65 3.2 8.95 3.2 9.6 3.2 9.45 3.8 9.45 4.8 8.3 5.9 L8.25 5.95 8.8 5.75 Q9.35 5.75 9.35 6.3 9.35 7.4 6.95 9.15 4.85 10.7 2.3 11.75 L1.95 11.85 Q3.85 11.55 6.45 10.05 L9.0 8.65 9.35 8.85 9.45 9.1 Q9.45 10.7 5.7 12.75 L5.65 12.8 8.75 11.95 Q9.15 12.05 9.15 12.45 9.15 13.2 6.4 14.15 L2.9 15.1 -4.55 16.55 -3.45 16.65 Q-1.45 16.65 2.75 15.5 L7.15 14.2 8.15 14.2 8.5 14.6 Q8.5 15.6 4.25 16.7 L-1.0 17.75 -1.35 17.8 -0.2 17.85 Q2.8 17.85 8.5 16.3 L9.65 16.3 10.0 16.85 Q10.0 17.8 8.2 18.5 L9.4 18.45 9.75 18.85 9.35 19.7 9.35 19.75 Q10.5 19.85 10.5 20.55 10.5 21.75 7.35 22.9 4.5 23.9 2.0 24.0 L4.25 24.15 6.95 23.25 9.3 22.3 9.95 22.35 10.05 22.65 Q10.05 23.7 6.2 25.45 2.35 27.15 2.35 26.15 -1.9 26.1 -5.65 25.15 -9.8 24.05 -9.8 22.6 L-9.75 22.1 -9.35 22.0 -8.7 22.55 Q-8.25 23.05 -7.35 23.05 L-3.25 22.85 Q-10.15 20.55 -10.15 20.1 -10.15 19.55 -9.55 19.55 L-7.55 19.9 -7.4 19.85 -8.5 18.6 Q-8.5 18.15 -7.8 18.15 L-2.45 19.1 1.1 19.1 5.9 18.35 9.05 17.15 9.1 17.1 5.3 18.0 -1.0 18.85 -4.85 18.2 Q-7.1 17.5 -7.1 16.8 L-6.95 16.1 Q-6.95 15.65 -6.4 15.6 L-3.5 15.4 -6.3 15.05 Q-7.35 14.8 -7.5 14.2 L-7.1 13.95 -6.0 14.2 -4.75 14.45 -5.05 14.05 -3.65 14.1 Q-0.65 14.1 2.1 13.3 4.2 12.7 5.2 12.0 L5.5 11.8 4.05 12.35 1.1 12.8 Q0.0 12.8 -0.25 12.45 L-0.3 12.1 Q-0.3 11.7 2.55 10.35 L6.15 8.65 6.2 8.55 Q0.85 11.05 -0.1 11.05 -0.9 11.05 -0.8 10.5 -0.8 10.4 2.5 8.65 L6.7 6.3 6.7 6.2 3.9 7.8 Q1.3 9.1 -0.05 9.1 -0.85 9.1 -0.75 8.55 L2.4 6.95 Q5.75 5.2 6.55 3.9 L6.6 3.8 Q2.35 6.65 1.2 6.65 0.55 6.65 0.45 6.4 L0.45 6.05 2.7 3.85 6.0 0.6 6.05 0.5 2.4 3.3 Q-0.35 5.3 -1.25 5.3 -1.95 5.3 -1.8 4.75 -1.8 4.4 -0.4 3.55 L1.35 2.55 -0.5 2.8 Q-1.7 2.8 -2.0 2.4 L-2.0 2.25 Q-4.7 2.2 -4.7 1.0 L-4.55 0.5 Q-4.3 0.2 -3.85 0.2 -6.3 -0.05 -6.3 -0.8 -6.3 -1.35 -5.1 -1.5 L-0.95 -2.1 -3.85 -2.15 Q-5.1 -2.2 -6.35 -2.9 -7.6 -3.6 -7.6 -4.25 L-7.35 -4.65 -5.5 -4.95 -6.45 -5.75 -6.8 -6.1 Q-6.8 -6.6 -6.2 -6.6 L-4.6 -6.2 -2.15 -5.8 -2.85 -6.1 -3.4 -6.5 -4.3 -6.85 Q-6.7 -7.8 -6.7 -8.5 -6.7 -9.0 -6.15 -9.0 L-4.85 -8.7 -3.65 -8.35 -3.65 -8.55 -3.6 -8.55 -3.7 -8.6 Q-5.1 -8.65 -5.75 -9.2 -6.15 -9.55 -6.15 -9.9 L-5.9 -10.3 Q-5.65 -10.4 -5.35 -9.85 L-4.75 -9.4 -5.0 -9.6 Q-6.05 -10.6 -6.05 -11.05 L-6.05 -11.1 Q-6.7 -11.5 -6.8 -12.05 L-5.9 -11.9 -6.9 -12.4 Q-8.15 -13.1 -8.15 -13.3 -8.15 -13.8 -6.85 -12.95 L-6.55 -12.7 -4.7 -12.65 -4.7 -12.7 Q-4.7 -13.1 -4.15 -13.1 L-2.0 -12.4 0.3 -11.85 -1.9 -12.75 Q-4.95 -14.1 -5.65 -14.8 L-8.45 -17.5 Q-10.5 -19.45 -10.5 -19.75 -10.5 -20.3 -9.9 -20.3 L-7.95 -19.6 -5.75 -18.65 -5.6 -18.7 -6.55 -19.25 Q-9.55 -20.4 -9.55 -21.7 L-9.45 -22.4 -9.6 -23.0 Q-9.6 -24.25 -7.7 -25.2 -5.15 -26.45 -0.2 -26.45 2.95 -26.45 4.5 -25.1 L6.0 -23.35 8.0 -21.45 8.1 -21.3 M8.25 -19.7 L8.2 -18.95 8.35 -19.25 Q8.65 -19.85 8.45 -20.2 L8.25 -19.7 M4.15 -22.45 L2.2 -22.55 2.05 -22.5 2.75 -22.35 4.15 -22.45 M2.5 -23.55 L0.75 -24.25 Q0.6 -24.05 0.1 -24.25 L0.15 -23.75 0.75 -23.3 1.15 -23.1 2.35 -23.5 2.5 -23.55 M3.65 -21.05 Q3.3 -21.5 2.6 -21.25 L1.6 -20.85 3.45 -20.95 3.65 -21.05 M0.95 -15.35 L-0.85 -15.45 1.3 -15.25 0.95 -15.35 M4.45 19.8 L4.9 19.65 2.7 19.8 0.9 20.05 -2.25 20.05 -6.15 19.5 -6.1 19.55 Q-4.7 20.45 -2.75 20.65 L1.1 20.65 4.45 19.8 M9.75 20.65 L4.15 21.95 -2.5 22.95 -2.15 23.0 1.1 23.0 5.95 22.4 Q7.4 22.05 9.7 20.7 L9.75 20.65 M8.85 19.25 Q7.65 19.35 5.6 20.35 L5.4 20.45 7.05 20.05 Q8.1 19.8 8.8 19.3 L8.85 19.25 M6.25 19.2 L6.7 19.05 6.35 19.15 6.25 19.2 M6.6 24.4 L6.45 24.4 6.0 24.6 6.6 24.4 M5.25 24.9 L5.75 24.75 5.5 24.8 5.25 24.9 M-4.9 -25.2 L-7.25 -24.15 -7.65 -23.8 -6.6 -23.95 -4.75 -25.2 -4.9 -25.2 M-0.7 -21.65 L-2.15 -21.5 -1.45 -21.45 -0.7 -21.5 -0.7 -21.65 M-2.65 -24.35 L-3.15 -23.95 -0.8 -23.6 -0.6 -24.4 -2.65 -24.35 M-7.0 -22.3 L-7.05 -22.8 -7.05 -22.95 -7.85 -22.7 -7.6 -22.45 -6.65 -21.8 -7.0 -22.3 M-6.0 -22.85 L-5.8 -22.35 -5.4 -22.6 -5.45 -22.7 -5.5 -23.05 -5.95 -23.05 -6.0 -22.85 M-6.75 -17.95 L-4.1 -17.2 -3.65 -17.3 -5.4 -17.8 -6.75 -17.95 M-3.05 -14.35 L-3.0 -14.7 Q-3.0 -15.0 -3.8 -15.5 -4.65 -16.05 -5.3 -16.05 L-4.4 -15.1 Q-3.7 -14.5 -3.05 -14.35 M-2.2 -15.6 L-2.75 -15.6 -2.0 -15.4 -2.2 -15.6 M-3.25 -11.25 L-3.5 -11.25 -3.05 -11.1 -2.4 -11.1 -2.85 -11.35 -3.25 -11.25 M-0.75 -5.8 L-1.65 -6.0 -1.65 -5.95 -1.65 -5.8 -0.75 -5.8" fill="url(#gradient0)" fill-rule="evenodd" stroke="none"/>
  </g>
  <defs>
    <linearGradient gradientTransform="matrix(0.0, -0.009, 0.0345, 0.0, 1.3, -16.05)" gradientUnits="userSpaceOnUse" id="gradient0" spreadMethod="pad" x1="-819.2" x2="819.2">
      <stop offset="0.0" stop-color="#c17731"/>
      <stop offset="1.0" stop-color="#c17731" stop-opacity="0.0"/>
    </linearGradient>
  </defs>
</svg>
