<?xml version="1.0" encoding="UTF-8" standalone="no"?>
<svg xmlns:xlink="http://www.w3.org/1999/xlink" height="13.85px" width="39.75px" xmlns="http://www.w3.org/2000/svg">
  <g transform="matrix(1.0, 0.0, 0.0, 1.0, 1.0, 1.0)">
    <path d="M37.75 6.05 L36.4 5.9 34.55 5.8 34.8 6.5 34.9 7.15 34.5 7.15 31.5 7.6 28.4 7.7 24.95 7.4 22.75 7.1 Q22.05 7.1 18.05 8.15 L19.4 9.1 19.6 9.3 19.95 9.55 20.1 9.65 21.9 9.45 22.7 9.55 23.75 10.4 Q24.0 10.0 24.8 9.55 25.5 9.2 26.0 9.2 L26.3 9.3 27.05 9.75 27.75 10.6 Q28.75 9.3 29.0 9.3 29.65 9.3 30.55 10.05 31.35 10.65 31.65 11.3 L26.95 11.45 26.55 11.45 24.75 11.5 24.55 11.8 24.05 11.8 23.45 11.55 21.85 11.6 21.85 11.55 21.4 11.6 20.95 11.6 20.7 11.6 20.2 11.55 19.9 11.55 19.6 11.6 19.1 11.6 18.95 11.65 18.9 11.6 18.85 11.7 16.25 11.65 14.5 11.85 12.9 11.6 11.15 11.0 10.05 10.5 9.65 10.5 6.6 10.25 6.0 10.15 5.5 10.05 5.2 10.25 4.05 10.3 4.0 10.2 4.0 10.25 3.05 10.35 Q2.55 10.3 2.35 9.95 1.8 9.95 1.5 10.2 L0.65 10.05 Q0.0 9.75 0.0 9.25 0.0 8.7 0.45 8.1 1.05 7.35 1.9 7.35 L2.65 7.45 2.9 7.6 3.15 7.75 3.4 7.9 Q4.15 7.55 4.6 7.55 L4.9 7.65 5.25 8.2 5.35 8.15 5.6 8.1 6.65 7.8 6.05 5.55 Q6.05 3.7 7.0 2.25 L7.15 1.95 7.35 1.75 Q8.8 0.0 11.45 0.0 L12.9 0.2 14.05 0.6 14.7 0.9 14.65 0.5 14.7 0.05 15.15 0.0 15.1 0.55 15.25 1.3 15.8 0.95 16.0 1.25 15.65 1.8 15.8 2.1 Q16.45 2.75 16.45 4.35 L16.4 5.3 17.55 4.85 21.75 4.2 23.4 4.35 Q27.45 3.1 28.15 3.1 L30.1 2.95 31.4 2.8 Q31.75 2.8 32.55 3.45 L33.3 4.05 33.6 3.85 Q34.15 3.5 34.35 3.5 35.15 3.5 37.75 6.05" fill="#4f4f4f" fill-rule="evenodd" stroke="none"/>
    <path d="M37.75 6.05 Q35.15 3.5 34.35 3.5 34.15 3.5 33.6 3.85 L33.3 4.05 32.55 3.45 Q31.75 2.8 31.4 2.8 L30.1 2.95 28.15 3.1 Q27.45 3.1 23.4 4.35 L21.75 4.2 17.55 4.85 16.4 5.3 16.45 4.35 Q16.45 2.75 15.8 2.1 L15.65 1.8 16.0 1.25 15.8 0.95 15.25 1.3 15.1 0.55 15.15 0.0 14.7 0.05 14.65 0.5 14.7 0.9 14.05 0.6 12.9 0.2 11.45 0.0 Q8.8 0.0 7.35 1.75 L7.15 1.95 7.0 2.25 Q6.05 3.7 6.05 5.55 L6.65 7.8 5.6 8.1 5.35 8.15 5.25 8.2 4.9 7.65 4.6 7.55 Q4.15 7.55 3.4 7.9 L3.15 7.75 2.9 7.6 2.65 7.45 1.9 7.35 Q1.05 7.35 0.45 8.1 0.0 8.7 0.0 9.25 0.0 9.75 0.65 10.05 L1.5 10.2 Q1.8 9.95 2.35 9.95 2.55 10.3 3.05 10.35 L4.0 10.25 4.0 10.2 4.05 10.3 5.2 10.25 5.5 10.05 6.0 10.15 6.6 10.25 9.65 10.5 10.05 10.5 11.15 11.0 12.9 11.6 14.5 11.85 16.25 11.65 18.85 11.7 18.9 11.6 18.95 11.65 19.1 11.6 19.6 11.6 19.9 11.55 20.2 11.55 20.7 11.6 20.95 11.6 21.4 11.6 21.85 11.55 21.85 11.6 23.45 11.55 24.05 11.8 24.55 11.8 24.75 11.5 26.55 11.45 26.95 11.45 31.65 11.3 Q31.35 10.65 30.55 10.05 29.65 9.3 29.0 9.3 28.75 9.3 27.75 10.6 L27.05 9.75 26.3 9.3 26.0 9.2 Q25.5 9.2 24.8 9.55 24.0 10.0 23.75 10.4 L22.7 9.55 21.9 9.45 20.1 9.65 19.95 9.55 19.6 9.3 19.4 9.1 18.05 8.15 Q22.05 7.1 22.75 7.1 L24.95 7.4 28.4 7.7 31.5 7.6 34.5 7.15 34.9 7.15 34.8 6.5 34.55 5.8 36.4 5.9 37.75 6.05 Z" fill="none" stroke="#0e0e0e" stroke-linecap="round" stroke-linejoin="round" stroke-width="2.0"/>
    <path d="M16.4 5.3 L17.55 4.85 21.75 4.2 23.4 4.35 Q27.45 3.1 28.15 3.1 L30.1 2.95 31.4 2.8 Q31.75 2.8 32.55 3.45 L33.3 4.05 33.6 3.85 Q34.15 3.5 34.35 3.5 35.15 3.5 37.75 6.05 L36.4 5.9 34.55 5.8 34.8 6.5 34.9 7.15 34.5 7.15 31.5 7.6 28.4 7.7 24.95 7.4 22.75 7.1 Q22.05 7.1 18.05 8.15 L17.15 7.6 15.9 6.9 15.6 6.55 16.25 5.9 16.4 5.3 M19.95 9.55 L20.1 9.65 21.1 9.55 20.4 10.1 20.05 10.7 20.7 11.6 20.2 11.55 19.9 11.55 19.95 9.55 M26.3 9.3 L27.05 9.75 27.75 10.6 Q28.75 9.3 29.0 9.3 29.65 9.3 30.55 10.05 31.35 10.65 31.65 11.3 L26.95 11.45 26.65 10.2 26.3 9.3" fill="#a62f29" fill-rule="evenodd" stroke="none"/>
    <path d="M18.05 8.15 L19.4 9.1 19.4 9.75 18.95 11.65 18.9 11.6 18.85 11.7 16.25 11.65 14.5 11.85 12.9 11.6 11.15 11.0 10.05 10.5 9.65 10.5 6.6 10.25 6.0 10.15 5.5 10.05 5.5 10.0 5.75 9.6 5.6 9.0 5.6 8.1 6.65 7.8 7.75 7.45 Q8.25 7.15 9.3 7.0 L8.85 5.9 Q10.65 5.3 11.25 4.2 L11.5 3.05 Q11.5 1.85 10.0 1.85 L8.55 2.2 7.25 2.6 7.15 2.5 7.15 1.95 7.35 1.75 Q8.8 0.0 11.45 0.0 L12.9 0.2 14.05 0.6 14.7 0.9 14.65 0.5 14.7 0.05 15.15 0.0 15.1 0.55 15.25 1.3 15.8 0.95 16.0 1.25 15.65 1.8 15.8 2.1 Q16.45 2.75 16.45 4.35 L16.4 5.3 16.25 5.9 15.6 6.55 15.9 6.9 17.15 7.6 18.05 8.15 M21.1 9.55 L21.9 9.45 22.7 9.55 23.75 10.4 Q24.0 10.0 24.8 9.55 25.5 9.2 26.0 9.2 L26.3 9.3 26.65 10.2 26.95 11.45 26.55 11.45 24.75 11.5 24.55 11.8 24.05 11.8 23.45 11.55 21.85 11.6 21.85 11.55 21.4 11.6 20.95 11.6 20.7 11.6 20.05 10.7 20.4 10.1 21.1 9.55 M12.15 5.65 L12.75 5.5 13.45 5.55 13.5 5.35 Q13.5 4.55 12.65 4.55 12.1 4.55 12.1 5.1 L12.15 5.65" fill="#2949a6" fill-rule="evenodd" stroke="none"/>
    <path d="M5.5 10.05 L5.2 10.25 4.05 10.3 4.0 10.2 4.0 10.25 3.05 10.35 Q2.55 10.3 2.35 9.95 L2.1 8.8 Q2.1 8.6 3.05 8.1 L3.2 8.0 3.4 7.9 Q4.15 7.55 4.6 7.55 L4.9 7.65 5.25 8.2 5.35 8.15 5.6 8.1 5.6 9.0 5.75 9.6 5.5 10.0 5.5 10.05 M6.65 7.8 L6.05 5.55 Q6.05 3.7 7.0 2.25 L7.15 1.95 7.15 2.5 7.25 2.6 8.55 2.2 10.0 1.85 Q11.5 1.85 11.5 3.05 L11.25 4.2 Q10.65 5.3 8.85 5.9 L9.3 7.0 Q8.25 7.15 7.75 7.45 L6.65 7.8 M12.15 5.65 L12.1 5.1 Q12.1 4.55 12.65 4.55 13.5 4.55 13.5 5.35 L13.45 5.55 12.75 5.5 12.15 5.65 M8.85 4.35 Q8.85 3.75 8.35 3.75 8.1 3.75 7.9 4.05 L7.75 4.45 Q7.75 5.0 8.15 5.0 L8.6 4.7 8.85 4.35 M6.7 4.15 L6.4 3.7 6.35 4.2 6.5 4.65 6.7 4.15" fill="#a8763a" fill-rule="evenodd" stroke="none"/>
    <path d="M19.4 9.1 L19.6 9.3 19.95 9.55 19.9 11.55 19.6 11.6 19.1 11.6 18.95 11.65 19.4 9.75 19.4 9.1" fill="#c2b513" fill-rule="evenodd" stroke="none"/>
    <path d="M6.7 4.15 L6.5 4.65 6.35 4.2 6.4 3.7 6.7 4.15 M8.85 4.35 L8.6 4.7 8.15 5.0 Q7.75 5.0 7.75 4.45 L7.9 4.05 Q8.1 3.75 8.35 3.75 8.85 3.75 8.85 4.35" fill="#000000" fill-rule="evenodd" stroke="none"/>
    <path d="M2.35 9.95 Q1.8 9.95 1.5 10.2 L0.65 10.05 Q0.0 9.75 0.0 9.25 0.0 8.7 0.45 8.1 1.05 7.35 1.9 7.35 L2.65 7.45 2.9 7.6 3.15 7.75 3.4 7.9 3.2 8.0 3.05 8.1 Q2.1 8.6 2.1 8.8 L2.35 9.95" fill="#7e5a2e" fill-rule="evenodd" stroke="none"/>
  </g>
</svg>
