<?xml version="1.0" encoding="UTF-8" standalone="no"?>
<svg xmlns:xlink="http://www.w3.org/1999/xlink" height="32.65px" width="37.5px" xmlns="http://www.w3.org/2000/svg">
  <g transform="matrix(1.0, 0.0, 0.0, 1.0, 0.45, -31.6)">
    <path d="M5.2 50.5 L5.95 50.55 5.85 51.15 Q5.45 51.5 5.05 51.55 L5.05 51.15 5.2 50.5 M24.8 58.3 L24.9 58.1 25.45 58.15 25.35 58.15 24.8 58.3" fill="#55a901" fill-rule="evenodd" stroke="none"/>
    <path d="M25.45 58.15 L27.9 57.75 Q31.15 57.75 34.3 60.5 36.9 62.8 36.9 63.7 L36.85 64.15 37.05 64.15 37.05 64.2 36.85 64.2 36.85 64.25 34.5 64.25 33.8 64.2 33.75 64.15 33.05 64.15 31.8 64.15 0.4 64.1 0.35 64.25 0.25 64.25 0.1 64.25 0.0 64.2 -0.05 64.1 -0.1 63.75 -0.05 63.25 -0.1 55.7 -0.1 47.15 -0.05 38.55 -0.05 34.8 -0.45 33.9 -0.15 32.45 Q-0.15 31.2 1.65 31.75 3.35 32.3 3.9 33.3 L4.5 34.95 5.1 36.6 Q6.1 38.4 6.45 39.95 L6.75 43.1 6.7 45.35 5.85 48.25 5.55 49.0 5.2 50.5 5.05 51.15 5.05 51.55 Q5.1 53.2 5.6 54.6 L6.8 55.1 Q7.15 55.1 8.35 54.4 L8.5 54.15 9.05 53.95 Q10.9 52.75 11.8 52.7 L11.8 52.65 14.55 52.65 Q16.5 53.25 18.5 54.65 L19.55 55.85 20.1 56.7 21.15 57.3 Q23.2 58.5 23.7 58.5 L24.8 58.3 25.35 58.15 25.45 58.15 M27.2 61.7 L27.1 61.65 27.2 61.75 27.2 61.7 M3.2 52.55 L3.15 52.6 3.2 52.6 3.2 52.55 M3.7 56.05 L3.65 56.05 3.7 56.1 3.7 56.05" fill="#effafa" fill-rule="evenodd" stroke="none"/>
  </g>
</svg>
