<?xml version="1.0" encoding="UTF-8" standalone="no"?>
<svg xmlns:xlink="http://www.w3.org/1999/xlink" height="49.9px" width="55.75px" xmlns="http://www.w3.org/2000/svg">
  <g transform="matrix(1.0, 0.0, 0.0, 1.0, -13.0, -29.0)">
    <path d="M23.55 71.65 L23.6 71.85 23.65 71.9 23.55 71.65 M16.25 76.85 L14.25 76.25 Q14.2 76.1 14.3 76.0 L14.3 30.25 67.5 30.25 67.5 75.65 67.5 76.2 67.5 76.65 67.25 76.85 Q66.8 77.2 66.1 77.2 L62.6 76.5 61.8 76.25 59.95 76.25 57.8 77.05 55.1 76.6 53.6 76.25 51.75 76.25 49.3 77.25 48.55 77.45 46.55 77.65 Q44.35 77.65 43.55 76.95 L43.45 76.85 43.15 76.55 42.55 76.35 42.4 76.25 41.85 76.25 41.8 76.3 40.3 77.15 37.6 77.2 36.35 77.4 Q35.6 77.4 34.7 76.8 L34.5 76.65 33.35 76.55 32.4 76.4 31.55 76.25 29.45 76.25 28.45 76.55 26.35 76.9 24.15 76.7 23.95 76.7 22.55 76.55 21.45 76.65 21.4 76.65 21.0 76.85 20.85 76.9 19.55 77.25 16.25 76.85 M60.1 71.3 L59.95 71.5 60.0 71.4 60.1 71.3 M46.65 72.65 L46.7 72.75 46.65 72.65 M41.2 73.5 L41.25 73.45 40.7 73.75 41.2 73.5" fill="#e8f4f9" fill-rule="evenodd" stroke="none"/>
    <path d="M16.25 76.85 L14.25 76.25 Q14.2 76.1 14.3 76.0 L14.3 30.25 67.5 30.25 67.5 75.65 67.5 76.2 67.5 76.65 67.25 76.85 Q66.8 77.2 66.1 77.2 L62.6 76.5 61.8 76.25 59.95 76.25 57.8 77.05 55.1 76.6 53.6 76.25 51.75 76.25 49.3 77.25 48.55 77.45 46.55 77.65 Q44.35 77.65 43.55 76.95 L43.45 76.85 43.15 76.55 42.55 76.35 42.4 76.25 41.85 76.25 41.8 76.3 40.3 77.15 37.6 77.2 36.35 77.4 Q35.6 77.4 34.7 76.8 L34.5 76.65 33.35 76.55 32.4 76.4 31.55 76.25 29.45 76.25 28.45 76.55 26.35 76.9 24.15 76.7 23.95 76.7 22.55 76.55 21.45 76.65 21.4 76.65 21.0 76.85 20.85 76.9 19.55 77.25 16.25 76.85 Z" fill="none" stroke="#40a6c8" stroke-linecap="round" stroke-linejoin="round" stroke-width="2.5"/>
    <path d="M59.65 71.75 L59.75 71.65 59.75 72.4 59.65 71.75 M26.25 69.85 L26.65 69.85 26.65 69.95 26.3 70.35 Q26.25 70.65 26.25 70.25 L26.25 69.85 M47.6 70.0 L47.55 70.0 47.5 69.85 47.65 69.85 47.6 70.0" fill="#be9941" fill-rule="evenodd" stroke="none"/>
    <path d="M20.8 72.7 L20.75 75.1 20.85 76.9 19.55 77.25 16.25 76.85 14.25 76.25 Q14.2 76.1 14.3 76.0 L14.3 75.25 16.3 72.0 Q17.1 71.85 18.1 70.85 L18.6 70.25 Q18.6 70.85 19.1 71.55 19.7 72.5 20.8 72.7 M24.15 76.7 L24.25 76.7 24.5 76.75 24.5 74.2 24.85 72.05 25.05 72.1 25.4 72.45 26.6 72.45 26.7 72.4 Q26.8 74.2 27.15 74.2 L27.5 74.0 27.65 73.55 27.8 73.55 Q28.15 75.6 28.45 76.55 L26.35 76.9 24.15 76.7 M23.1 72.15 L23.5 74.05 23.45 75.25 22.75 73.85 22.3 72.6 23.1 72.15 M33.35 76.55 L33.5 75.3 Q33.45 74.1 34.15 74.05 34.9 74.0 34.9 73.45 L34.7 72.1 35.3 72.15 Q37.05 72.15 37.6 70.85 L37.8 71.85 37.95 72.25 38.15 73.15 Q38.65 74.8 39.25 74.8 L40.1 73.85 39.9 73.85 41.2 73.5 41.65 75.0 41.6 75.75 41.8 76.15 41.8 76.3 40.3 77.15 37.6 77.2 36.35 77.4 Q35.6 77.4 34.7 76.8 L34.5 76.65 33.35 76.55 M47.8 73.5 L48.15 73.5 Q48.9 73.5 49.3 72.8 L50.2 72.9 50.5 72.9 50.5 74.0 52.05 76.25 51.75 76.25 49.3 77.25 48.55 77.45 46.55 77.65 Q44.35 77.65 43.55 76.95 L43.45 76.85 43.15 76.55 42.55 76.35 43.85 74.05 44.85 73.85 45.3 73.85 Q45.9 74.45 47.75 75.15 48.1 75.15 48.1 74.75 L47.8 73.5 M53.3 71.9 Q53.75 72.45 54.9 72.45 55.75 72.45 56.25 71.4 L56.6 70.1 56.6 69.85 56.9 69.85 56.85 70.4 Q56.85 71.05 57.0 71.25 57.45 71.85 58.9 71.9 L58.7 71.9 Q59.45 75.1 59.9 76.3 L59.95 76.25 57.8 77.05 55.1 76.6 53.6 76.25 52.6 76.25 Q52.95 75.25 53.3 71.9 M65.25 71.35 Q65.7 71.9 66.55 71.9 L67.5 71.7 67.5 75.65 67.5 76.2 67.5 76.65 67.25 76.85 Q66.8 77.2 66.1 77.2 L62.6 76.5 63.65 73.0 64.65 72.0 65.25 71.35" fill="#cfe5ef" fill-rule="evenodd" stroke="none"/>
    <path d="M20.8 72.7 L21.05 72.75 21.45 72.75 21.5 72.75 22.3 72.6 22.75 73.85 23.45 75.25 23.5 74.05 23.1 72.15 23.75 71.25 23.8 71.35 23.8 71.4 Q23.95 71.8 24.6 72.0 L24.85 72.05 24.5 74.2 24.5 76.75 24.25 76.7 24.15 76.7 23.95 76.7 22.55 76.55 21.45 76.65 21.4 76.65 21.0 76.85 20.85 76.9 20.75 75.1 20.8 72.7 M23.65 71.9 L23.55 71.65 23.6 71.85 23.65 71.9 M26.7 72.4 L27.45 71.7 28.3 70.9 28.5 70.35 28.5 70.55 28.9 71.65 Q29.55 72.75 30.65 72.75 32.45 72.75 33.25 71.2 L33.45 71.4 33.65 71.55 33.65 71.6 34.7 72.1 34.9 73.45 Q34.9 74.0 34.15 74.05 33.45 74.1 33.5 75.3 L33.35 76.55 32.4 76.4 31.55 76.25 29.45 76.25 28.45 76.55 Q28.15 75.6 27.8 73.55 L27.65 73.55 27.5 74.0 27.15 74.2 Q26.8 74.2 26.7 72.4 M37.95 72.25 Q38.65 73.85 39.85 73.85 L39.9 73.85 40.1 73.85 39.25 74.8 Q38.65 74.8 38.15 73.15 L37.95 72.25 M41.2 73.5 L41.25 73.45 42.7 70.6 42.7 70.5 42.75 70.65 42.75 70.85 42.8 71.85 Q43.05 72.5 43.95 72.6 L44.1 72.65 44.45 72.65 44.5 72.65 44.75 72.65 Q45.5 72.5 46.2 71.9 L46.55 71.6 46.5 72.2 46.65 72.65 46.7 72.75 46.8 72.9 Q47.15 73.4 47.8 73.5 L48.1 74.75 Q48.1 75.15 47.75 75.15 45.9 74.45 45.3 73.85 L44.85 73.85 43.85 74.05 42.55 76.35 42.4 76.25 41.85 76.25 41.8 76.3 41.8 76.15 41.6 75.75 41.65 75.0 41.2 73.5 M50.5 72.9 L51.55 72.45 Q52.35 72.3 52.85 71.35 L53.0 71.05 53.1 71.6 53.3 71.9 Q52.95 75.25 52.6 76.25 L52.05 76.25 50.5 74.0 50.5 72.9 M58.9 71.9 L59.1 71.9 59.2 71.9 59.25 71.9 59.65 71.75 59.75 72.4 59.75 71.65 59.85 71.55 59.95 71.5 60.0 71.4 60.25 71.0 60.3 70.9 60.4 71.75 60.85 72.35 61.2 72.5 61.9 72.6 62.85 72.5 62.85 72.45 63.55 72.15 63.95 71.85 64.25 71.45 64.85 70.1 65.05 71.0 65.25 71.35 64.65 72.0 63.65 73.0 62.6 76.5 61.8 76.25 59.95 76.25 59.9 76.3 Q59.45 75.1 58.7 71.9 L58.9 71.9 M14.3 75.25 L14.3 71.3 Q14.9 72.0 16.05 72.0 L16.3 72.0 14.3 75.25" fill="#85c7dc" fill-rule="evenodd" stroke="none"/>
    <path d="M67.5 69.8 L67.5 71.7 66.55 71.9 Q65.5 71.9 65.05 71.0 L64.85 70.05 64.25 71.45 Q63.4 72.6 61.9 72.6 60.75 72.6 60.4 71.75 L60.3 70.9 Q59.8 71.9 59.1 71.9 57.5 71.9 57.0 71.25 56.85 71.05 56.85 70.4 L56.6 70.45 56.25 71.4 Q55.75 72.45 54.9 72.45 53.5 72.45 53.1 71.6 L53.0 71.05 52.85 71.35 Q52.35 72.3 51.55 72.45 L50.2 72.9 49.3 72.8 Q48.9 73.5 48.15 73.5 47.25 73.5 46.8 72.9 L46.5 72.2 46.55 71.6 46.2 71.9 Q45.35 72.65 44.45 72.65 43.15 72.65 42.8 71.85 L42.75 70.85 42.75 70.8 42.65 70.8 Q42.05 73.85 39.85 73.85 38.5 73.85 37.8 71.85 L37.6 70.85 Q37.05 72.15 35.3 72.15 34.25 72.15 33.45 71.4 L33.25 71.2 Q32.45 72.75 30.65 72.75 29.55 72.75 28.9 71.65 L28.5 70.55 28.5 70.35 28.3 70.9 27.05 72.1 26.6 72.45 Q26.2 72.75 25.8 72.75 25.1 72.75 24.4 72.1 L24.0 71.7 23.75 71.25 Q22.9 72.75 21.45 72.75 19.9 72.75 19.1 71.55 18.6 70.85 18.6 70.25 L18.1 70.85 Q16.95 72.0 16.05 72.0 14.9 72.0 14.3 71.3 L14.3 69.8 17.65 69.8 Q18.0 69.6 18.95 69.3 L19.2 69.45 22.25 68.4 22.8 68.45 25.25 68.45 28.85 69.2 35.4 69.95 36.45 69.9 36.65 69.8 39.45 69.8 Q40.9 69.15 43.9 68.8 L46.6 68.75 45.85 68.75 48.65 68.75 Q49.75 69.05 49.8 69.8 L54.2 69.8 Q54.5 68.85 58.2 68.65 61.45 68.5 62.1 69.1 L62.15 69.1 Q63.3 69.1 64.2 69.8 L67.5 69.8" fill="#cae7f0" fill-rule="evenodd" stroke="none"/>
    <path d="M67.5 69.8 L64.2 69.8 Q63.3 69.1 62.15 69.1 L62.1 69.1 Q61.45 68.5 58.2 68.65 54.5 68.85 54.2 69.8 L49.8 69.8 Q49.75 69.05 48.65 68.75 L45.85 68.75 46.6 68.75 43.9 68.8 Q40.9 69.15 39.45 69.8 L36.65 69.8 36.45 69.9 35.4 69.95 28.85 69.2 25.25 68.45 22.8 68.45 22.25 68.4 19.2 69.45 18.95 69.3 Q18.0 69.6 17.65 69.8 L14.3 69.8 14.3 30.25 67.5 30.25 67.5 69.8" fill="#e8f4f9" fill-rule="evenodd" stroke="none"/>
  </g>
</svg>
