<?xml version="1.0" encoding="UTF-8" standalone="no"?>
<svg xmlns:xlink="http://www.w3.org/1999/xlink" height="72.1px" width="61.2px" xmlns="http://www.w3.org/2000/svg">
  <g transform="matrix(1.0, 0.0, 0.0, 1.0, -1.5, 11.4)">
    <path d="M55.2 27.7 L54.2 28.7 54.25 28.8 53.85 29.15 53.55 29.05 53.5 28.75 53.5 28.65 53.4 28.6 52.9 28.9 52.3 29.15 52.35 29.25 52.3 29.55 52.0 29.6 51.6 29.3 51.5 29.35 51.35 29.4 50.85 29.35 50.75 29.15 50.75 29.05 49.9 28.85 49.85 28.85 49.85 28.95 50.2 28.9 50.3 29.0 49.55 29.7 49.95 29.8 Q49.95 29.25 50.3 29.25 50.65 29.25 50.65 29.7 L50.65 29.85 51.0 29.6 51.5 29.7 51.0 30.05 50.9 30.05 50.6 30.0 50.6 30.05 50.3 30.1 50.25 30.1 50.35 30.65 50.3 30.95 50.65 31.05 Q51.4 31.4 51.4 31.85 51.4 32.5 50.85 32.5 L50.65 32.45 50.2 32.8 49.75 32.55 49.7 32.3 Q49.7 31.85 50.05 31.85 L49.9 31.4 49.9 31.25 49.15 31.4 Q48.7 31.4 48.55 30.9 L48.5 30.3 48.6 30.0 48.5 29.9 48.35 29.6 Q48.35 29.2 48.85 29.3 L49.25 29.45 49.15 29.35 49.2 29.25 48.95 29.0 49.05 28.8 48.6 28.75 48.6 28.85 48.5 29.0 48.35 29.0 48.35 29.2 48.05 29.35 47.7 28.95 48.05 28.6 48.2 28.7 48.2 28.65 48.25 28.65 Q47.7 28.4 47.45 28.0 L47.3 27.35 46.65 27.4 Q43.25 27.4 42.4 26.1 42.15 25.7 42.15 24.4 L41.45 22.05 Q40.85 19.8 41.35 18.65 L40.5 17.8 40.35 17.5 Q40.35 16.2 43.55 16.3 46.75 16.4 46.75 18.65 L47.55 20.2 Q48.35 21.45 48.35 21.9 50.35 21.6 51.25 22.85 54.55 22.8 54.55 24.15 L54.2 25.95 Q54.55 26.0 54.75 26.25 L54.95 26.25 Q55.85 26.25 55.85 26.8 55.85 27.25 55.3 27.25 L55.25 27.25 55.25 27.35 Q55.75 27.35 56.1 27.7 L55.7 28.1 55.25 28.05 55.2 27.85 55.2 27.7 55.2 27.5 55.15 27.55 55.2 27.7 M59.15 27.3 L58.95 27.55 59.05 27.65 59.05 28.0 59.55 28.1 59.6 28.25 59.8 28.25 59.95 28.8 60.25 28.8 60.4 28.75 60.55 28.75 60.65 29.0 60.6 29.25 60.5 29.3 59.8 29.3 59.7 29.05 59.75 28.95 59.65 29.0 59.5 28.8 59.5 28.9 59.25 29.15 59.0 29.15 58.95 29.05 57.75 28.85 57.7 28.7 57.4 28.45 57.35 28.5 57.15 28.6 56.85 28.55 56.75 28.3 Q56.75 28.05 57.3 28.05 L57.45 28.25 57.65 28.0 57.5 27.95 57.4 28.0 57.05 27.6 57.25 27.5 57.4 27.2 57.75 27.6 57.95 27.6 57.95 27.45 58.25 27.45 58.15 27.4 Q58.45 26.9 59.05 27.05 L59.15 27.3 M58.75 27.6 L58.75 27.55 58.7 27.55 58.75 27.6 M60.4 27.3 L59.9 27.55 59.65 27.4 59.65 27.1 60.3 27.1 60.4 27.3 M60.6 27.5 Q60.6 27.2 61.1 27.2 L61.4 27.45 Q61.35 27.85 61.1 27.85 L60.7 27.8 60.6 27.5 M56.2 27.4 L57.05 27.45 56.8 27.7 56.45 27.85 56.35 27.55 56.55 27.6 56.2 27.4 M58.05 27.9 L58.0 27.85 57.95 27.9 58.05 27.9 M56.1 28.75 L55.8 29.1 55.45 28.85 Q55.6 28.6 55.95 28.55 L56.1 28.75 M55.85 30.7 L56.05 30.5 56.55 30.6 56.6 30.95 56.25 31.05 55.9 30.9 55.85 30.7 M58.85 28.25 L58.85 28.2 58.85 28.25 M58.6 28.1 L58.5 27.95 58.35 27.95 58.6 28.1 M51.65 29.9 L51.8 29.8 52.05 29.95 51.7 30.35 51.55 30.35 51.4 30.35 51.2 30.3 Q51.2 30.05 51.35 30.15 L51.65 29.9 M51.45 30.75 L51.9 30.65 52.1 30.35 52.05 30.3 52.2 30.2 52.35 29.95 52.65 30.2 52.65 30.35 52.7 30.7 52.65 31.0 52.3 31.1 51.95 31.0 51.95 30.85 51.8 30.85 51.45 30.75 M53.05 29.8 L54.1 29.85 54.3 30.0 54.5 30.3 54.45 30.5 54.5 30.5 54.85 30.95 54.9 31.1 54.85 31.4 55.05 31.5 54.8 31.55 54.55 31.5 54.6 31.5 54.05 31.5 53.05 31.3 52.85 31.05 53.35 30.6 53.6 30.6 52.9 30.05 53.05 29.8 M55.3 30.5 L55.2 30.7 54.95 30.85 54.6 30.5 54.65 30.2 55.15 30.2 55.3 30.5 M55.25 31.5 L55.2 31.0 56.0 31.15 55.6 31.55 55.25 31.5 M54.3 33.3 Q54.75 33.25 55.25 33.75 L55.5 33.65 55.45 33.5 Q55.45 33.15 55.95 33.15 56.35 33.15 56.4 33.4 L56.55 33.35 56.95 33.5 57.2 34.5 Q57.2 34.9 56.7 34.9 55.7 34.9 54.95 34.4 L54.55 34.1 53.9 34.05 53.85 33.7 Q53.85 33.35 54.3 33.3 M53.35 33.75 L52.95 34.1 52.8 33.95 52.7 34.0 52.4 33.95 52.3 33.7 52.35 33.5 52.6 33.4 52.85 33.45 53.3 33.55 53.35 33.75 M54.0 33.1 L54.3 32.7 54.55 33.05 54.5 33.2 54.35 33.25 54.0 33.1 M51.1 32.7 L51.4 33.15 51.35 33.3 Q51.4 33.2 51.5 33.2 L51.75 33.55 51.75 33.7 51.55 33.75 51.45 33.75 52.3 34.8 52.8 34.9 52.9 35.0 53.05 35.05 53.1 35.15 52.95 35.25 52.9 35.35 52.9 35.4 52.95 35.35 53.25 35.6 52.95 36.0 52.65 35.85 Q52.65 35.55 52.8 35.45 L52.7 35.45 52.25 35.35 51.75 35.6 50.95 34.7 50.35 33.75 Q50.35 32.95 51.15 33.5 L51.3 33.35 51.1 33.4 50.75 33.05 Q50.75 32.75 51.1 32.7 M53.15 32.95 L52.85 33.3 52.55 33.0 52.85 32.7 53.15 32.95 M54.65 36.6 L54.25 36.15 55.0 36.25 54.65 36.6 M55.35 36.4 L55.55 36.15 Q55.85 36.05 56.2 36.3 L56.25 36.45 55.85 36.75 55.4 36.6 55.35 36.4 M56.75 31.5 L56.55 31.65 56.3 31.35 Q56.3 31.1 56.55 31.0 L56.8 31.3 56.75 31.5 M56.95 36.75 L57.4 36.75 57.45 36.95 57.65 36.9 57.9 37.35 57.75 37.55 57.45 37.35 57.15 37.45 56.75 37.0 Q56.75 36.8 56.95 36.75 M57.9 36.85 L58.35 36.75 Q58.45 36.5 59.05 36.6 L59.05 36.65 59.4 36.35 59.25 36.25 59.25 36.1 59.65 36.25 59.6 36.35 59.95 36.35 60.3 36.45 60.5 36.2 60.45 36.1 Q60.45 35.7 60.95 35.7 61.45 35.7 61.45 36.15 L61.1 36.55 61.05 36.55 61.0 36.65 60.8 36.75 60.8 36.85 61.25 36.9 61.3 37.0 60.85 37.35 60.75 37.35 60.15 37.55 59.75 37.55 59.65 37.6 59.05 37.5 58.95 37.3 58.75 37.35 58.45 37.15 58.1 37.3 57.85 37.05 57.9 36.85 M58.75 35.75 L58.55 35.85 58.2 35.6 58.2 35.45 58.8 35.6 58.85 35.7 58.75 35.75 58.95 35.75 59.1 35.95 58.95 36.25 58.8 36.25 58.7 36.0 58.75 35.75 M23.4 52.5 L23.3 52.4 23.05 51.9 Q23.05 51.4 23.9 51.25 24.6 51.1 24.7 51.55 24.85 51.3 25.25 51.25 L24.85 50.95 24.55 51.0 Q24.3 51.0 24.1 50.8 L23.9 51.0 23.3 51.25 Q22.85 51.25 22.75 51.05 L22.7 50.8 Q22.7 50.45 23.05 50.35 L23.15 50.35 23.0 50.3 22.3 50.0 22.15 49.6 22.15 49.55 21.7 49.65 21.4 49.65 20.85 50.2 20.5 49.8 20.55 49.6 20.5 49.55 20.45 49.5 20.2 49.4 20.25 49.55 19.85 49.8 19.6 49.65 19.6 49.35 20.15 49.35 19.9 49.15 Q20.1 48.7 20.45 48.7 L20.85 49.1 21.0 49.1 21.15 49.35 Q21.15 49.15 21.45 49.05 L22.2 49.1 Q22.25 48.75 22.45 48.65 L22.5 48.35 23.15 48.35 23.25 48.65 23.25 48.75 23.5 48.85 23.5 48.7 Q23.5 48.2 24.4 48.05 L24.9 48.05 24.85 48.0 Q24.55 47.35 24.75 46.25 22.2 46.2 21.0 45.15 20.25 44.5 20.25 43.75 L21.1 42.65 17.9 41.9 Q14.95 40.9 15.85 39.65 13.05 39.5 13.05 37.85 13.05 36.9 14.55 35.75 16.55 34.3 19.75 34.4 L25.65 34.55 Q29.0 34.85 29.9 36.25 L29.15 36.7 Q28.55 36.95 28.25 37.25 L34.8 37.25 35.8 37.8 Q36.1 38.25 36.0 38.5 39.0 38.45 39.0 39.8 38.8 41.05 37.75 41.0 L36.25 41.05 36.5 42.0 36.35 42.6 36.0 43.0 41.05 43.95 44.55 44.15 Q46.1 44.15 46.75 45.0 47.15 45.45 47.15 45.9 47.15 46.75 46.25 47.15 L41.1 47.75 Q40.65 48.1 40.15 49.25 39.4 50.3 37.25 50.35 L37.6 50.8 37.75 51.35 37.5 53.3 35.35 53.6 31.2 54.3 Q29.6 54.3 29.4 53.45 L29.5 52.7 29.25 52.8 29.3 52.85 29.2 53.3 28.55 53.35 28.6 53.6 28.35 53.95 27.9 54.15 Q27.2 54.15 27.2 53.75 L27.3 53.55 27.0 53.55 26.55 53.45 26.5 53.3 26.8 52.95 26.55 53.1 26.3 52.8 25.85 52.95 25.5 52.9 25.5 52.8 25.2 52.85 Q24.7 52.85 24.55 52.6 L24.5 52.3 24.5 52.2 24.1 52.85 24.05 53.1 23.8 53.3 Q23.5 53.1 23.5 52.75 L23.55 52.65 23.4 52.5 22.85 52.75 22.6 52.75 Q22.95 52.5 23.4 52.5 M59.4 39.25 L59.35 39.4 59.05 39.6 58.7 39.25 58.75 38.95 59.25 38.95 59.4 39.25 M59.95 39.25 Q60.0 38.8 60.5 38.85 61.05 38.95 61.05 39.6 L61.0 39.9 61.55 40.05 61.2 40.45 60.95 40.4 60.85 40.0 60.55 40.05 Q60.25 40.05 60.1 39.7 L60.0 39.55 59.9 39.55 59.65 39.55 59.6 39.35 Q59.6 39.2 59.7 39.2 L59.9 39.2 59.95 39.25 M60.6 40.8 L61.1 40.8 61.25 41.1 61.2 41.3 60.9 41.45 60.55 41.1 60.6 40.8 M62.5 41.0 L62.4 41.3 62.05 41.35 61.75 41.3 61.65 41.0 61.7 40.7 61.75 40.7 61.75 40.65 62.05 40.7 62.4 40.7 62.5 41.0 M16.8 49.1 Q16.8 48.95 17.1 48.85 L17.3 48.9 17.35 49.1 17.3 49.2 17.35 49.2 17.4 49.4 17.75 49.15 Q18.1 49.0 18.1 49.5 L18.05 49.8 17.8 49.9 17.45 49.85 17.4 49.8 17.05 49.95 16.55 49.85 16.5 49.55 Q16.5 49.2 16.85 49.15 L16.8 49.1 M18.35 49.0 Q18.35 48.65 18.55 48.65 L19.05 49.15 18.75 49.45 18.8 49.45 18.9 49.65 Q18.8 49.9 18.5 49.9 L18.25 49.75 18.25 49.45 18.75 49.45 18.35 49.2 18.35 49.0 M15.75 49.4 Q16.45 49.4 16.45 49.85 L16.05 50.4 15.3 50.65 Q14.45 50.65 14.45 49.9 14.45 49.4 15.0 49.35 L15.75 49.4 M28.75 52.5 L28.75 52.65 28.8 52.65 28.75 52.5 M28.05 52.15 L28.05 52.05 27.55 51.95 27.4 52.2 27.6 52.25 27.6 52.15 27.95 52.15 28.05 52.15 M26.25 51.7 L26.3 51.6 26.2 51.6 26.25 51.7 M27.6 53.25 L27.6 53.3 27.6 53.25 M25.7 53.5 L25.75 53.2 26.25 53.2 26.4 53.5 26.3 53.7 Q26.1 53.8 26.05 53.85 L25.85 53.7 25.9 53.85 25.85 53.95 25.85 54.0 25.75 54.25 25.35 54.35 24.95 54.3 24.9 54.0 25.0 53.75 24.75 53.65 24.95 53.4 25.35 53.55 25.35 53.65 25.5 53.65 25.55 53.6 25.75 53.6 25.7 53.5 M26.0 54.7 L26.0 54.5 26.05 54.15 27.1 54.15 27.2 54.45 27.05 54.8 27.5 54.8 27.4 54.55 Q27.4 54.3 28.05 54.2 28.65 54.05 28.65 54.6 L28.5 54.85 28.25 55.05 27.6 54.9 27.6 55.1 27.55 55.4 27.2 55.45 26.9 55.4 26.8 55.1 26.85 54.9 26.7 54.9 26.75 55.1 26.7 55.35 26.45 55.45 26.0 55.4 25.95 55.1 26.1 54.8 26.0 54.7 M27.35 55.65 L26.85 56.05 26.65 56.0 26.55 55.75 26.6 55.45 27.3 55.55 27.35 55.65 M28.3 55.65 L28.05 55.95 28.1 56.1 Q28.3 56.05 28.5 56.25 L28.55 56.4 28.5 56.65 28.2 56.75 27.95 56.7 27.85 56.45 27.85 56.4 27.75 56.45 27.4 56.1 27.45 55.8 27.65 55.8 27.6 55.45 28.25 55.55 28.3 55.65 M22.6 50.65 L22.45 50.95 22.2 51.1 Q21.9 51.1 21.8 50.9 L21.75 50.65 Q21.75 50.15 22.5 50.3 L22.6 50.65 M20.35 50.05 L20.1 50.3 19.85 50.15 19.85 49.85 20.25 49.85 20.35 50.05 M21.05 51.25 L21.25 50.95 Q21.55 50.85 21.9 51.2 L21.75 51.45 21.45 51.55 21.1 51.4 21.05 51.25 M21.2 52.15 L21.45 52.1 21.7 52.55 21.65 52.7 21.75 52.7 Q21.8 52.25 22.3 52.45 L22.3 52.35 22.35 52.15 22.6 52.1 22.85 52.45 22.7 52.65 22.45 52.65 22.45 52.7 22.3 53.1 22.15 53.15 22.05 53.15 21.8 53.55 22.2 53.45 Q22.8 53.45 22.8 54.05 L22.75 54.4 22.95 54.6 22.6 54.9 22.4 54.7 22.2 54.7 21.75 54.5 21.7 54.5 21.4 54.45 21.3 54.2 21.5 53.9 21.6 53.85 21.7 53.6 21.4 53.35 21.35 53.45 21.3 53.6 21.3 53.65 21.45 53.75 21.5 53.85 21.05 54.15 20.8 53.9 Q20.75 54.15 20.3 54.15 L20.05 54.15 19.5 54.45 19.15 54.35 19.15 54.5 19.55 54.65 19.1 55.15 18.55 55.15 18.45 54.85 18.55 54.75 18.45 54.7 18.35 54.45 18.4 54.25 18.65 54.2 18.85 54.3 18.85 54.25 18.9 54.25 18.8 54.15 18.65 54.15 18.4 54.1 18.05 54.5 17.85 54.65 17.85 54.75 17.8 54.9 17.5 55.05 17.3 54.8 17.35 54.75 17.2 54.6 17.2 54.75 16.9 54.8 16.15 54.8 16.05 54.55 Q16.05 54.2 16.85 54.4 L16.8 54.25 Q16.8 54.05 16.95 53.95 L16.9 53.75 17.1 53.6 17.1 53.5 Q17.1 53.2 17.35 53.25 L17.5 53.3 17.5 53.25 17.75 53.6 17.75 53.65 17.7 53.8 17.75 53.8 17.75 53.75 17.9 53.7 18.25 53.85 18.3 53.85 18.45 53.85 18.4 53.8 Q18.7 53.5 19.15 53.3 L20.0 53.1 20.65 53.15 20.65 53.1 20.8 52.8 Q20.95 52.6 21.35 52.8 L21.4 52.95 21.5 52.8 21.5 52.75 21.45 52.75 21.15 52.4 21.2 52.15 M22.7 53.1 L23.15 52.7 23.45 52.95 23.1 53.4 22.75 53.3 22.7 53.1 M20.75 53.7 L20.75 53.65 20.75 53.7 M20.85 54.9 L20.65 55.0 20.35 54.95 20.25 54.7 20.45 54.45 20.6 54.3 20.85 54.9 M24.95 53.35 L24.7 53.55 24.4 53.15 24.55 53.05 24.7 52.8 24.95 53.35 M24.15 53.65 L24.2 53.6 24.4 53.65 24.5 53.85 24.2 54.1 23.95 53.95 24.0 53.75 23.95 53.75 Q23.75 53.75 23.55 53.55 23.85 53.2 24.1 53.3 L24.2 53.5 24.15 53.65 M23.25 53.55 L23.4 53.85 23.85 53.85 24.0 54.05 23.95 54.25 23.65 54.35 23.35 54.3 23.3 54.2 23.15 54.2 22.95 53.85 Q22.95 53.65 23.25 53.55 M23.6 55.0 Q23.7 54.8 23.85 54.8 L24.15 54.85 24.15 54.75 24.75 54.8 24.8 54.9 25.05 55.1 24.45 55.3 24.3 55.3 23.75 55.25 23.6 55.0 M24.6 56.8 L24.65 56.55 25.0 56.55 Q25.1 56.15 25.55 56.15 L25.85 56.2 26.7 56.1 26.8 56.35 Q26.9 56.25 27.1 56.25 L27.6 56.55 27.1 56.9 27.05 56.9 26.9 57.15 26.8 57.25 27.05 57.7 Q27.05 58.25 26.1 58.25 25.4 58.25 25.15 57.9 L25.1 57.8 24.95 57.9 24.75 57.8 23.75 58.05 23.55 58.2 23.45 58.15 23.4 58.35 23.2 58.45 22.9 58.4 22.8 58.15 23.0 57.9 23.15 57.75 23.25 57.9 23.25 57.85 23.15 57.3 23.55 57.25 23.9 57.3 24.0 57.55 24.0 57.75 24.1 57.65 24.65 57.55 25.05 57.35 25.1 57.25 25.05 57.25 Q24.7 57.25 24.6 57.05 L24.6 56.9 24.4 56.85 24.45 56.75 24.6 56.8 M23.75 56.25 L23.75 56.3 24.0 56.55 23.95 56.75 23.75 56.85 Q23.45 56.85 23.2 56.65 L23.15 56.65 23.0 56.6 22.95 56.45 23.2 56.2 23.3 56.2 23.55 56.1 23.75 56.25 M23.9 57.8 L23.75 57.85 23.8 57.9 23.9 57.8 M20.85 58.3 L21.15 58.45 21.05 58.55 20.7 58.45 20.85 58.3 M25.0 59.4 L25.05 59.2 25.7 59.55 25.7 59.7 25.5 59.8 Q25.15 59.8 25.05 59.6 L25.0 59.4 M23.8 59.55 L23.55 59.8 23.3 59.65 23.3 59.35 23.7 59.35 23.8 59.55 M29.0 56.1 L29.3 56.35 29.0 56.75 28.65 56.6 28.6 56.45 Q28.6 56.0 29.0 56.1 M28.15 58.3 L27.9 58.45 27.55 58.3 27.8 58.2 28.1 58.2 28.15 58.3 M28.3 58.75 L28.1 59.1 27.7 58.95 Q27.8 58.6 28.0 58.5 L28.3 58.75 M27.75 57.0 L27.7 57.25 27.65 57.3 27.35 57.3 27.3 57.0 27.55 56.7 27.75 57.0 M26.3 56.95 L26.2 56.95 26.15 56.9 26.15 57.05 26.35 57.05 26.3 56.95 M27.65 60.5 L27.5 60.45 27.55 60.25 27.8 60.35 27.65 60.5 M29.5 60.05 L29.7 60.4 29.5 60.5 29.35 60.45 29.3 60.25 Q29.3 60.1 29.4 60.1 L29.5 60.05 M28.9 60.1 L29.0 60.4 28.9 60.65 28.55 60.7 28.15 60.65 28.1 60.35 28.15 60.1 28.9 60.1 M19.35 50.8 L18.95 50.95 18.65 50.5 18.85 50.25 19.3 50.25 19.4 50.55 19.35 50.8 M17.8 52.55 L17.6 52.25 18.1 52.4 17.8 52.55 M19.75 52.15 L19.7 52.15 19.6 51.9 Q19.6 51.8 20.05 51.6 L20.25 51.85 20.25 52.05 20.35 52.2 20.1 52.5 19.8 52.5 19.7 52.2 19.75 52.15 M19.75 51.15 L19.95 50.75 Q20.2 50.65 20.45 51.1 L20.1 51.5 19.75 51.15 M16.15 51.75 Q16.0 51.8 16.0 51.55 L16.05 51.4 16.25 51.5 16.15 51.75 M17.55 51.35 L17.5 51.55 17.5 51.6 17.35 51.65 17.1 51.6 17.0 51.4 Q17.0 51.1 17.3 51.1 L17.55 51.35 M15.8 53.6 L16.0 53.85 15.65 53.95 15.4 53.9 15.4 53.85 15.05 53.85 14.65 53.75 14.45 53.6 14.45 53.3 14.85 53.3 14.95 53.5 14.9 53.6 15.4 53.65 15.35 53.55 15.8 53.6 M16.05 52.75 L15.9 52.7 15.9 52.5 16.2 52.6 16.05 52.75 M18.65 53.25 L18.25 53.55 17.95 53.3 Q18.1 52.95 18.55 53.0 L18.65 53.25 M13.75 50.45 L13.5 50.4 13.4 50.15 14.4 50.1 13.75 50.45 M12.45 50.2 L12.45 50.35 12.25 50.4 12.05 50.35 12.1 50.6 11.95 50.8 11.55 50.4 11.85 50.1 11.9 50.15 11.85 50.05 12.2 49.85 12.45 50.2 M11.85 54.1 L11.8 54.3 11.7 54.35 11.5 54.0 11.75 53.9 11.85 54.1 M10.8 53.65 L11.2 53.9 11.15 54.1 10.8 54.2 10.55 53.95 10.8 53.65 M10.15 54.6 L9.7 54.35 9.7 54.4 9.4 54.45 9.35 54.45 Q9.35 54.95 8.75 54.95 7.65 54.95 7.3 54.15 7.4 53.5 8.4 53.85 L8.95 54.1 8.95 54.05 Q8.95 53.5 9.65 53.75 L9.7 53.9 10.1 53.9 10.5 54.3 10.15 54.6 M14.05 53.9 L13.75 53.95 13.35 53.85 13.35 53.75 13.2 53.8 12.75 53.5 12.95 53.2 13.4 53.15 13.55 53.45 13.55 53.55 14.2 53.7 14.05 53.9 M13.3 55.55 L13.1 55.8 12.85 55.5 Q12.85 55.35 13.0 55.3 L13.1 55.2 13.3 55.55 M14.1 55.95 Q14.1 55.45 14.95 55.4 15.75 55.35 15.75 55.95 L15.7 56.25 16.35 56.1 16.35 56.05 16.4 55.85 17.2 55.8 17.25 55.95 17.4 55.9 17.7 56.15 17.6 56.4 17.2 56.45 17.15 56.35 16.45 56.35 16.35 56.1 15.9 56.45 15.7 56.45 15.65 56.65 15.3 56.75 15.25 56.75 15.2 56.8 15.15 56.75 Q14.1 56.7 14.1 55.95 M14.05 56.45 L14.0 56.65 13.5 56.7 13.4 56.4 13.45 56.2 13.95 56.2 14.05 56.45 M14.45 57.15 L14.2 57.45 13.95 57.15 14.0 56.85 14.2 56.85 14.45 57.15 M13.45 55.7 L13.85 55.9 13.7 56.1 13.35 55.95 13.3 55.8 13.45 55.7 M11.25 58.7 L11.0 58.95 10.7 58.55 10.75 58.3 11.0 58.25 11.25 58.7 M12.5 58.7 L12.35 58.85 Q13.2 58.85 13.3 59.3 L14.2 59.1 14.45 59.45 13.9 59.8 13.65 59.85 13.75 60.15 13.45 60.35 13.15 60.05 13.45 59.85 13.0 59.85 12.7 60.1 12.35 60.35 12.2 60.5 12.15 60.5 11.5 60.65 10.65 60.15 10.4 59.95 10.05 59.75 10.0 59.6 10.05 59.6 9.85 59.65 9.65 59.45 9.6 59.5 9.3 59.35 Q9.3 58.95 9.6 58.85 L9.85 59.05 10.0 58.9 10.25 59.25 10.25 59.4 10.5 59.2 11.2 59.0 11.5 58.95 11.7 58.65 11.75 58.7 11.7 58.45 12.35 58.45 12.5 58.7 M14.85 59.5 L15.2 59.6 14.95 59.8 14.85 59.5 M18.95 58.05 Q19.2 58.05 19.35 58.2 L19.35 58.4 18.95 58.55 18.75 58.25 18.8 58.05 18.95 58.05 M15.7 57.15 L15.55 57.3 15.4 57.25 15.4 57.1 15.7 57.15 M20.15 59.75 L20.1 60.1 19.75 60.25 19.4 60.05 19.35 59.8 19.5 59.5 20.05 59.45 20.15 59.75 M9.85 50.45 L9.6 50.65 9.3 50.3 9.35 50.05 9.6 50.0 9.85 50.45 M5.75 51.65 L5.65 51.4 5.35 51.3 5.35 51.15 5.7 51.3 6.4 51.4 6.45 51.5 6.25 51.65 5.75 51.65 M7.2 51.3 L7.55 51.4 7.6 51.5 7.3 51.6 7.2 51.3 M5.2 54.05 L5.7 54.0 5.7 54.15 5.4 54.2 5.15 54.15 5.05 54.2 4.85 54.2 4.75 54.4 4.45 54.6 4.25 54.6 4.1 54.7 4.35 54.65 4.4 54.75 5.0 54.8 4.85 54.95 4.35 54.95 4.35 54.9 4.2 55.05 3.95 54.85 3.95 54.8 3.9 54.8 3.85 54.75 3.5 54.75 3.7 55.0 3.6 55.0 3.2 55.2 2.95 55.05 3.2 54.8 2.85 54.85 2.55 54.75 2.45 54.75 1.95 54.85 1.9 54.85 1.5 54.8 1.7 54.55 1.9 54.65 Q1.95 54.55 2.2 54.55 L2.3 54.65 2.3 54.55 Q2.3 54.25 2.7 54.3 L3.2 54.45 3.45 54.15 3.4 53.95 Q3.4 53.55 3.8 53.5 L3.8 53.25 4.2 53.25 4.3 53.45 4.3 53.5 Q4.55 53.5 4.7 53.65 5.0 53.6 5.2 53.9 L5.2 54.05 M5.4 54.6 L5.7 54.75 5.75 54.85 5.4 55.05 5.15 54.85 Q5.15 54.6 5.4 54.6 M2.25 53.85 L2.15 53.55 2.5 53.65 2.25 53.85 M3.2 53.5 L2.75 53.8 2.65 53.55 2.7 53.4 2.85 53.4 3.2 53.5 M3.25 54.7 L3.25 54.75 3.3 54.7 3.2 54.55 3.05 54.6 3.2 54.6 3.25 54.7 M7.45 59.65 L7.9 59.65 7.95 59.8 7.85 60.0 7.5 60.0 7.45 59.65 M9.85 60.15 L9.7 60.3 9.3 59.9 9.6 59.6 9.85 60.15 M8.65 59.95 L8.55 60.05 8.3 60.05 8.2 59.9 8.25 59.65 8.6 59.75 8.65 59.95" fill="#e9c572" fill-rule="evenodd" stroke="none"/>
    <path d="M43.5 43.75 Q43.5 47.1 40.4 50.6 36.5 54.95 30.05 55.9 L25.85 55.9 Q19.4 54.95 17.05 52.8 15.45 51.35 15.45 48.9 15.45 45.1 18.5 44.0 18.3 43.4 15.9 42.3 L12.85 40.9 Q11.05 39.65 11.05 37.8 11.05 32.45 20.65 30.45 L23.5 30.5 24.35 30.55 26.95 30.55 Q31.85 32.45 33.25 33.25 L34.9 34.95 36.65 36.75 42.55 40.7 Q43.5 41.55 43.5 43.75" fill="url(#gradient0)" fill-rule="evenodd" stroke="none"/>
    <path d="M45.8 18.55 L45.2 19.3 Q44.6 19.85 44.6 20.25 L44.85 20.75 44.95 20.95 Q46.25 20.6 46.3 21.75 L46.8 22.25 46.8 22.35 46.95 22.35 47.25 22.6 Q47.85 22.65 48.1 22.85 L46.3 23.45 44.8 23.45 44.45 23.1 44.5 23.0 44.4 22.85 44.4 22.8 Q43.85 22.7 43.7 22.45 L43.7 22.1 43.9 21.55 43.3 20.8 Q42.75 19.9 42.75 19.2 41.7 19.15 41.4 18.9 41.25 18.8 41.25 18.45 41.25 18.05 41.85 17.8 L44.95 17.8 45.6 18.2 45.8 18.55" fill="url(#gradient1)" fill-rule="evenodd" stroke="none"/>
    <path d="M38.15 15.1 L39.05 13.3 40.25 10.6 40.8 10.25 41.65 9.3 43.6 6.05 42.1 3.8 40.4 1.65 Q39.1 0.3 36.6 1.7 34.2 3.0 34.2 4.25 34.2 4.65 36.65 7.45 L37.85 9.45 38.25 10.0 38.1 10.55 37.15 12.95 Q36.6 14.15 36.6 15.0 L36.6 15.2 36.5 15.15 35.9 15.15 34.3 15.65 Q33.15 15.65 33.0 14.7 L32.95 13.45 32.1 12.45 31.5 11.5 31.85 9.7 Q31.85 8.2 33.0 6.95 L32.15 7.25 Q31.3 7.25 31.3 6.35 31.3 6.0 32.8 4.4 L35.15 2.1 Q38.3 -0.35 39.0 -0.4 L41.8 0.0 Q42.85 0.0 42.95 0.7 L42.85 1.5 43.5 1.6 43.95 1.55 Q45.25 1.55 44.65 3.3 45.65 3.5 45.65 4.35 42.75 11.2 40.8 12.8 L43.2 12.5 Q44.45 12.5 44.45 13.4 L44.15 14.15 Q43.65 14.55 42.05 14.7 L38.15 15.1" fill="#6f6f6f" fill-rule="evenodd" stroke="none"/>
    <path d="M36.6 15.2 L36.6 15.0 Q36.6 14.15 37.15 12.95 L38.1 10.55 38.25 10.0 37.85 9.45 36.65 7.45 Q34.2 4.65 34.2 4.25 34.2 3.0 36.6 1.7 39.1 0.3 40.4 1.65 L42.1 3.8 43.6 6.05 41.65 9.3 40.8 10.25 40.25 10.6 39.05 13.3 38.15 15.1 37.9 15.1 37.7 15.15 37.35 15.15 36.6 15.2" fill="#595959" fill-rule="evenodd" stroke="none"/>
    <path d="M43.9 5.2 L44.3 4.95 Q48.15 3.05 50.35 8.2 51.9 11.8 51.9 14.95 51.9 16.0 51.45 16.35 L48.4 17.5 48.15 17.5 Q48.0 18.4 45.9 18.4 L46.45 16.65 46.65 15.75 49.15 15.45 50.15 15.0 49.45 10.55 Q48.9 7.9 46.7 6.55 L47.75 8.85 Q48.25 10.2 48.25 11.15 48.25 11.7 47.3 13.3 L46.9 14.0 46.9 13.9 46.7 13.05 46.5 12.2 46.5 12.0 46.6 12.05 Q47.6 12.05 47.6 11.2 47.6 8.45 44.4 5.6 L43.9 5.2 M42.95 18.2 L41.05 17.85 39.65 17.45 38.85 17.45 Q37.35 17.55 37.35 16.6 37.35 14.8 40.25 10.1 L41.45 8.25 43.85 10.0 44.7 10.65 Q44.25 11.15 43.85 12.35 L42.95 15.25 42.3 17.75 42.35 18.1 42.95 18.2" fill="#7e7e7e" fill-rule="evenodd" stroke="none"/>
    <path d="M43.9 5.2 L44.4 5.6 Q47.6 8.45 47.6 11.2 47.6 12.05 46.6 12.05 L46.5 12.0 46.5 12.2 46.7 13.05 46.9 13.9 46.9 14.0 Q46.3 15.05 46.3 15.75 L46.65 15.75 46.45 16.65 45.9 18.4 45.8 18.4 45.7 18.4 45.5 18.4 42.95 18.2 42.35 18.1 42.3 17.75 42.95 15.25 43.85 12.35 Q44.25 11.15 44.7 10.65 L43.85 10.0 41.45 8.25 Q43.0 5.95 43.9 5.2" fill="#707070" fill-rule="evenodd" stroke="none"/>
    <path d="M42.65 2.6 Q43.35 2.6 43.4 3.25 L43.1 4.05 Q43.35 4.1 43.6 4.35 L43.9 4.75 44.7 4.9 44.95 5.3 44.4 6.25 44.35 6.3 45.1 6.1 Q45.7 6.1 45.8 6.45 L45.8 6.9 46.25 6.8 Q46.9 6.8 46.95 7.45 46.8 7.95 46.3 8.15 L47.0 8.6 47.3 8.45 47.75 8.25 Q48.05 8.25 48.8 9.7 L48.55 10.3 49.05 10.85 Q49.05 11.55 47.65 12.2 L48.4 11.95 Q49.0 11.95 49.05 12.6 L48.2 13.5 48.95 13.65 49.2 14.1 48.95 14.45 48.15 14.95 Q48.45 14.9 48.65 15.2 L48.8 15.6 48.5 16.15 Q48.9 16.25 48.9 16.75 L48.65 17.1 48.05 17.55 Q48.75 17.5 48.65 18.15 L48.1 19.05 47.5 19.75 47.45 19.8 48.05 19.6 Q48.55 19.6 48.65 20.3 48.65 21.15 43.15 21.85 L42.35 21.7 42.2 21.55 41.45 21.75 Q41.05 21.75 40.15 21.15 L38.9 20.2 38.0 19.65 Q37.6 19.3 37.85 18.5 L37.1 18.35 36.95 17.85 Q35.85 18.1 35.85 17.3 35.85 16.95 36.15 16.75 35.5 16.3 35.3 15.5 35.2 15.05 34.05 15.05 33.75 15.05 33.4 14.25 L33.1 13.4 Q33.1 13.0 33.75 12.5 L34.55 11.9 34.55 11.85 33.15 12.35 Q32.25 12.35 32.25 11.75 L32.85 10.9 Q31.65 10.2 31.65 9.65 31.65 9.1 32.55 8.75 L32.6 8.65 Q32.0 8.6 32.0 8.05 L32.45 7.1 Q33.0 6.15 33.65 5.75 L33.35 5.15 Q33.35 4.65 36.7 2.8 40.0 1.0 40.0 2.1 L39.8 2.55 39.8 2.6 40.35 2.45 Q40.8 2.45 41.0 2.75 L41.15 3.1 41.9 2.9 42.65 2.6" fill="#000000" fill-opacity="0.3019608" fill-rule="evenodd" stroke="none"/>
    <path d="M29.35 -8.75 L30.55 -9.2 30.95 -9.35 31.15 -9.4 31.45 -9.5 Q38.25 -11.7 41.65 -8.6 42.35 -6.45 44.7 -6.05 L47.9 -5.3 49.25 -3.55 50.35 -1.55 52.6 2.1 54.55 5.9 58.0 13.65 Q60.85 19.9 60.85 20.6 60.85 21.15 57.0 22.05 52.6 23.1 47.95 23.1 47.5 23.1 47.15 22.4 L47.05 22.1 Q46.1 21.9 45.75 21.25 L45.55 20.25 Q45.55 18.05 46.3 15.75 L46.25 15.05 Q46.25 14.65 46.6 14.2 L46.5 13.85 46.3 12.7 46.35 11.95 Q46.35 10.05 42.65 5.2 L42.45 4.95 41.9 4.2 41.75 4.0 40.5 2.65 40.35 2.5 Q38.7 1.2 37.35 2.0 36.2 2.55 34.45 4.25 29.45 9.1 29.45 11.85 L29.6 12.95 Q29.95 13.95 31.1 13.95 L31.45 13.9 32.65 15.2 Q34.0 16.2 34.95 16.2 L35.0 16.2 35.15 17.65 Q35.25 19.3 34.35 19.75 32.85 20.5 27.55 21.45 L20.85 22.4 Q17.25 22.4 16.4 21.4 L16.0 20.2 13.2 19.95 12.3 19.75 12.0 19.55 11.95 19.45 Q12.6 18.9 11.95 18.7 L10.05 18.55 Q8.4 18.3 7.95 17.45 L5.4 17.4 Q4.6 16.8 4.6 15.9 4.6 14.5 10.05 8.0 L16.05 1.1 Q19.65 -3.5 24.75 -6.5 26.9 -7.75 29.35 -8.75" fill="#999999" fill-rule="evenodd" stroke="none"/>
    <path d="M29.35 -8.75 L30.55 -9.2 30.95 -9.35 31.15 -9.4 31.45 -9.5 Q38.25 -11.7 41.65 -8.6 42.35 -6.45 44.7 -6.05 L47.9 -5.3 49.25 -3.55 50.35 -1.55 52.6 2.1 54.55 5.9 58.0 13.65 Q60.85 19.9 60.85 20.6 60.85 21.15 57.0 22.05 52.6 23.1 47.95 23.1 47.5 23.1 47.15 22.4 L47.05 22.1 Q46.1 21.9 45.75 21.25 L45.55 20.25 Q45.55 18.05 46.3 15.75 L46.25 15.05 Q46.25 14.65 46.6 14.2 L46.5 13.85 46.3 12.7 46.35 11.95 Q46.35 10.05 42.65 5.2 L42.45 4.95 41.9 4.2 41.75 4.0 40.5 2.65 40.35 2.5 Q38.7 1.2 37.35 2.0 36.2 2.55 34.45 4.25 29.45 9.1 29.45 11.85 L29.6 12.95 Q29.95 13.95 31.1 13.95 L31.45 13.9 32.65 15.2 Q34.0 16.2 34.95 16.2 L35.0 16.2 35.15 17.65 Q35.25 19.3 34.35 19.75 32.85 20.5 27.55 21.45 L20.85 22.4 Q17.25 22.4 16.4 21.4 L16.0 20.2 13.2 19.95 12.3 19.75 12.0 19.55 11.95 19.45 Q12.6 18.9 11.95 18.7 L10.05 18.55 Q8.4 18.3 7.95 17.45 L5.4 17.4 Q4.6 16.8 4.6 15.9 4.6 14.5 10.05 8.0 L16.05 1.1 Q19.65 -3.5 24.75 -6.5 26.9 -7.75 29.35 -8.75 Z" fill="none" stroke="#666666" stroke-linecap="round" stroke-linejoin="round" stroke-width="2.0"/>
    <path d="M30.55 -9.2 L24.75 -6.5 Q26.9 -7.75 29.35 -8.75 L30.55 -9.2" fill="#999999" fill-rule="evenodd" stroke="none"/>
    <path d="M30.55 -9.2 L30.95 -9.35 31.15 -9.4 31.45 -9.5 31.5 -9.1 25.65 -5.55 Q19.2 -1.5 16.4 1.2 15.4 2.15 15.35 3.75 L15.1 6.5 13.25 11.65 16.3 13.4 Q17.95 14.3 17.95 15.0 L13.2 19.95 12.3 19.75 12.0 19.55 11.95 19.45 Q12.6 18.9 11.95 18.7 L10.05 18.55 Q8.4 18.3 7.95 17.45 L5.4 17.4 Q4.6 16.8 4.6 15.9 4.6 14.5 10.05 8.0 L16.05 1.1 Q19.65 -3.5 24.75 -6.5 L30.55 -9.2 M47.15 22.4 L47.05 22.1 Q46.1 21.9 45.75 21.25 L45.55 20.25 Q45.55 18.05 46.3 15.75 L46.25 15.05 Q46.25 14.65 46.6 14.2 L46.5 13.85 46.3 12.7 46.35 11.95 Q46.35 10.05 42.65 5.2 L42.45 4.95 41.9 4.2 41.75 4.0 40.5 2.65 40.35 2.5 Q41.25 2.8 42.5 4.2 L45.0 7.2 Q47.1 9.9 51.0 12.75 L49.95 14.85 Q48.75 16.9 48.4 18.25 L47.6 21.25 47.15 22.4" fill="#888888" fill-rule="evenodd" stroke="none"/>
    <path d="M13.2 19.95 L17.95 15.0 Q17.95 14.3 16.3 13.4 L13.25 11.65 15.1 6.5 15.35 3.75 Q15.4 2.15 16.4 1.2 19.2 -1.5 25.65 -5.55 L31.5 -9.1 31.45 -9.5 Q38.25 -11.7 41.65 -8.6 42.35 -6.45 44.7 -6.05 L47.9 -5.3 49.25 -3.55 50.35 -1.55 52.6 2.1 54.55 5.9 58.0 13.65 Q60.85 19.9 60.85 20.6 60.85 21.15 57.0 22.05 52.6 23.1 47.95 23.1 47.5 23.1 47.15 22.4 L47.6 21.25 48.4 18.25 Q48.75 16.9 49.95 14.85 L51.0 12.75 Q47.1 9.9 45.0 7.2 L42.5 4.2 Q41.25 2.8 40.35 2.5 38.7 1.2 37.35 2.0 36.2 2.55 34.45 4.25 29.45 9.1 29.45 11.85 L29.6 12.95 Q29.95 13.95 31.1 13.95 L31.45 13.9 32.65 15.2 Q34.0 16.2 34.95 16.2 L35.0 16.2 35.15 17.65 Q35.25 19.3 34.35 19.75 32.85 20.5 27.55 21.45 L20.85 22.4 Q17.25 22.4 16.4 21.4 L16.0 20.2 13.2 19.95" fill="url(#gradient2)" fill-rule="evenodd" stroke="none"/>
    <path d="M44.1 23.45 L44.4 24.2 Q46.4 26.75 48.15 30.2 51.2 36.2 51.2 40.35 51.2 41.5 46.9 42.55 L39.75 43.65 35.65 43.75 Q33.85 43.75 32.65 42.95 L32.5 42.85 32.3 42.7 Q31.4 41.95 30.9 40.7 L31.75 38.05 31.1 38.05 30.25 38.05 30.2 38.0 30.2 38.05 29.1 38.05 24.75 37.45 Q23.2 37.0 23.2 36.35 23.2 35.65 23.75 34.15 L21.95 34.35 18.05 34.65 18.8 38.8 19.7 43.1 Q19.7 43.9 19.25 44.4 L18.9 44.65 18.9 44.7 18.25 44.95 17.45 45.2 16.6 45.35 12.45 45.6 8.5 45.35 8.35 45.35 6.3 44.85 Q5.15 44.45 4.45 43.9 L4.05 43.5 Q3.65 43.1 3.5 42.45 L3.4 41.9 3.35 41.7 3.3 40.85 Q3.3 39.8 4.6 35.55 L5.9 31.2 5.95 30.75 Q6.25 29.0 8.0 26.7 L8.15 26.45 11.9 21.65 Q15.15 15.1 17.05 11.8 L17.15 11.65 17.2 11.5 19.7 8.1 20.65 7.1 23.35 5.85 25.95 4.55 26.8 4.1 28.25 3.3 Q29.25 3.8 31.3 3.9 L32.6 5.5 33.3 6.55 34.3 10.95 35.25 13.55 37.3 15.05 41.9 19.15 Q42.7 20.15 44.1 23.45" fill="#6f6f6f" fill-rule="evenodd" stroke="none"/>
    <path d="M44.1 23.45 L44.4 24.2 Q46.4 26.75 48.15 30.2 51.2 36.2 51.2 40.35 51.2 41.5 46.9 42.55 L39.75 43.65 35.65 43.75 Q33.85 43.75 32.65 42.95 L32.5 42.85 32.3 42.7 Q31.4 41.95 30.9 40.7 L31.75 38.05 31.1 38.05 30.25 38.05 30.2 38.0 30.2 38.05 29.1 38.05 24.75 37.45 Q23.2 37.0 23.2 36.35 23.2 35.65 23.75 34.15 L21.95 34.35 18.05 34.65 18.8 38.8 19.7 43.1 Q19.7 43.9 19.25 44.4 L18.9 44.65 18.9 44.7 18.25 44.95 17.45 45.2 16.6 45.35 12.45 45.6 8.5 45.35 8.35 45.35 6.3 44.85 Q5.15 44.45 4.45 43.9 L4.05 43.5 Q3.65 43.1 3.5 42.45 L3.4 41.9 3.35 41.7 3.3 40.85 Q3.3 39.8 4.6 35.55 L5.9 31.2 5.95 30.75 Q6.25 29.0 8.0 26.7 L8.15 26.45 11.9 21.65 Q15.15 15.1 17.05 11.8 L17.15 11.65 17.2 11.5 19.7 8.1 20.65 7.1 23.35 5.85 25.95 4.55 26.8 4.1 28.25 3.3 Q29.25 3.8 31.3 3.9 L32.6 5.5 33.3 6.55 34.3 10.95 35.25 13.55 37.3 15.05 41.9 19.15 Q42.7 20.15 44.1 23.45 Z" fill="none" stroke="#666666" stroke-linecap="round" stroke-linejoin="round" stroke-width="2.0"/>
    <path d="M21.95 34.35 L17.95 34.65 Q16.95 34.65 15.65 33.2 L14.55 31.65 14.6 31.05 15.7 30.3 15.4 29.95 Q15.25 29.75 15.25 29.45 15.25 29.05 15.7 28.55 16.3 27.9 17.2 27.65 L16.85 27.35 16.75 26.85 Q16.75 25.15 23.4 23.15 30.0 21.15 30.0 24.05 L29.6 24.85 30.5 25.7 Q30.5 26.5 29.3 26.85 L28.35 27.15 Q26.1 23.4 25.05 23.4 L23.8 23.65 Q23.5 23.85 23.5 24.45 L23.55 25.05 23.5 25.05 23.1 24.45 Q22.8 23.95 22.25 23.95 L21.3 24.65 Q20.65 25.35 20.65 25.6 L23.35 29.7 22.55 30.8 Q21.0 33.15 21.0 33.7 L21.2 34.45 21.95 34.35 M28.15 27.6 L29.4 27.55 Q30.15 27.65 30.15 28.35 L29.9 28.9 Q29.6 29.25 29.15 29.3 29.55 29.45 29.7 30.2 29.7 30.95 28.65 31.15 L26.35 31.65 26.2 31.7 26.55 30.85 26.75 29.3 26.5 28.35 27.9 27.75 28.15 27.6 M26.05 31.9 L29.05 31.8 29.9 32.6 Q29.9 33.25 24.7 34.0 L25.6 32.0 25.7 32.0 26.05 31.9" fill="#6f6f6f" fill-rule="evenodd" stroke="none"/>
    <path d="M21.95 34.35 L21.2 34.45 21.0 33.7 Q21.0 33.15 22.55 30.8 L23.35 29.7 20.65 25.6 Q20.65 25.35 21.3 24.65 L22.25 23.95 Q22.8 23.95 23.1 24.45 L23.5 25.05 23.55 25.05 23.5 24.45 Q23.5 23.85 23.8 23.65 L25.05 23.4 Q26.1 23.4 28.35 27.15 L27.05 27.5 27.1 27.7 28.15 27.6 27.9 27.75 26.5 28.35 26.75 29.3 26.55 30.85 26.2 31.7 25.45 31.9 26.05 31.9 25.7 32.0 25.6 32.0 24.7 34.0 24.65 34.0 21.95 34.35" fill="#595959" fill-rule="evenodd" stroke="none"/>
    <path d="M28.45 25.1 L30.2 25.25 Q30.8 24.6 31.9 25.9 32.9 27.1 33.5 28.75 L34.25 30.25 34.45 31.65 Q33.95 30.95 33.45 30.75 31.85 28.15 30.2 26.4 L28.65 25.0 28.45 25.1 M34.55 33.0 L34.65 34.1 34.6 35.3 Q34.45 36.15 33.8 36.2 L33.7 36.4 33.7 37.2 Q33.45 37.7 32.55 37.95 L34.55 33.0 M29.1 38.05 L24.75 37.45 Q23.2 37.0 23.2 36.35 23.2 34.85 25.55 30.0 L27.05 27.05 28.6 29.45 30.15 31.55 29.8 33.7 28.9 35.85 28.05 37.95 29.1 38.05" fill="#7e7e7e" fill-rule="evenodd" stroke="none"/>
    <path d="M34.45 31.65 L34.45 31.7 34.45 31.85 34.5 32.45 34.6 33.0 34.55 33.0 32.55 37.95 31.1 38.05 30.25 38.05 30.2 38.0 30.2 38.05 29.1 38.05 28.05 37.95 28.9 35.85 29.8 33.7 30.15 31.55 28.6 29.45 27.05 27.05 Q27.95 25.35 28.3 25.15 L28.35 25.15 28.4 25.1 28.45 25.1 28.65 25.0 30.2 26.4 Q31.85 28.15 33.45 30.75 33.95 30.95 34.45 31.65" fill="#707070" fill-rule="evenodd" stroke="none"/>
    <path d="M18.55 28.15 Q18.55 26.25 21.1 24.85 24.45 22.95 29.9 24.45 32.1 25.25 33.7 27.35 35.1 29.25 35.1 30.6 35.1 32.2 33.65 35.25 L32.4 37.6 Q32.6 37.75 32.6 38.05 32.6 38.65 31.7 38.95 L32.0 39.65 31.95 40.0 32.1 40.25 31.9 40.75 31.35 41.0 Q26.75 40.2 25.65 39.45 L25.15 38.4 24.75 38.05 24.45 38.0 23.6 37.9 22.7 38.0 21.75 38.15 21.15 38.15 20.95 38.0 Q21.3 37.15 22.75 36.95 L22.05 36.55 22.0 36.1 21.8 36.1 21.3 36.4 Q20.35 36.75 20.0 37.0 L20.2 37.45 Q20.2 38.0 19.75 38.0 18.8 38.0 18.45 36.8 L18.3 35.6 18.3 35.55 17.45 35.05 17.2 35.1 16.55 34.65 16.55 34.2 Q16.55 33.7 17.7 31.15 L18.85 28.7 18.55 28.15" fill="#000000" fill-opacity="0.14901961" fill-rule="evenodd" stroke="none"/>
    <path d="M23.35 5.85 L20.0 7.8 19.7 8.1 20.65 7.1 23.35 5.85 M8.0 26.7 L6.35 29.9 5.95 30.75 Q6.25 29.0 8.0 26.7 M8.35 45.35 L8.6 44.9 8.5 45.35 8.35 45.35 M16.6 45.35 L15.8 44.8 16.7 43.9 17.45 45.2 16.6 45.35 M11.5 30.75 L11.35 30.65 11.5 30.65 11.5 30.75 M8.1 31.3 L8.05 31.3 8.1 31.3 M34.75 33.1 L34.85 33.1 35.1 33.55 34.75 33.1" fill="#999999" fill-rule="evenodd" stroke="none"/>
    <path d="M29.75 27.25 L29.8 27.15 29.8 27.25 30.05 27.2 34.45 31.35 34.7 31.2 34.8 31.5 39.05 31.4 Q39.65 31.8 40.65 34.0 41.6 36.05 41.6 36.5 L41.55 37.35 40.95 37.6 Q40.2 37.6 39.55 36.2 L38.85 34.45 Q38.15 33.35 36.1 33.25 36.85 34.35 37.0 35.4 37.3 37.4 38.6 40.5 L39.75 43.65 35.65 43.75 Q33.85 43.75 32.65 42.95 L32.5 42.85 32.3 42.7 Q31.4 41.95 30.9 40.7 33.4 33.05 33.4 31.4 33.4 30.55 29.85 27.35 L29.75 27.3 29.75 27.25 M26.8 4.1 L26.65 5.05 Q26.65 5.55 27.05 5.55 25.4 6.3 24.0 7.25 L24.1 8.0 24.4 10.5 24.65 13.2 24.6 14.25 Q24.45 14.85 23.9 14.85 23.25 14.85 21.0 12.45 L19.55 10.85 Q16.95 13.55 15.55 17.05 L13.25 23.35 Q11.85 27.0 9.75 29.5 L9.75 29.6 11.0 28.8 Q11.9 28.1 12.2 28.1 13.35 28.1 13.05 30.85 L12.65 34.75 14.2 36.3 Q15.95 38.25 16.95 40.2 L18.6 43.25 19.25 44.4 18.9 44.65 18.9 44.7 18.25 44.95 17.45 45.2 16.7 43.9 15.8 44.8 16.6 45.35 12.45 45.6 8.5 45.35 8.6 44.9 8.35 45.35 6.3 44.85 Q5.15 44.45 4.45 43.9 L4.05 43.5 Q3.65 43.1 3.5 42.45 L3.4 41.9 3.35 41.7 3.3 40.85 Q3.3 39.8 4.6 35.55 L5.9 31.2 5.95 30.75 6.35 29.9 8.0 26.7 8.15 26.45 11.9 21.65 Q15.15 15.1 17.05 11.8 L17.15 11.65 17.2 11.5 19.7 8.1 20.0 7.8 23.35 5.85 25.95 4.55 26.8 4.1 M11.5 30.75 L11.5 30.65 11.35 30.65 11.5 30.75 M8.1 31.3 L8.05 31.3 8.1 31.3 M34.75 33.1 L35.1 33.55 34.85 33.1 34.75 33.1" fill="#888888" fill-rule="evenodd" stroke="none"/>
    <path d="M39.75 43.65 L38.6 40.5 Q37.3 37.4 37.0 35.4 36.85 34.35 36.1 33.25 38.15 33.35 38.85 34.45 L39.55 36.2 Q40.2 37.6 40.95 37.6 L41.55 37.35 41.6 36.5 Q41.6 36.05 40.65 34.0 39.65 31.8 39.05 31.4 L34.8 31.5 34.7 31.2 34.45 31.35 30.05 27.2 29.8 27.25 29.8 27.15 29.75 27.25 Q26.9 24.65 26.4 24.95 L26.1 24.65 22.15 24.65 Q20.85 25.85 19.5 27.9 17.85 30.3 17.85 31.6 17.85 34.6 18.8 38.8 L19.7 43.1 Q19.7 43.9 19.25 44.4 L18.6 43.25 16.95 40.2 Q15.95 38.25 14.2 36.3 L12.65 34.75 13.05 30.85 Q13.35 28.1 12.2 28.1 11.9 28.1 11.0 28.8 L9.75 29.6 9.75 29.5 Q11.85 27.0 13.25 23.35 L15.55 17.05 Q16.95 13.55 19.55 10.85 L21.0 12.45 Q23.25 14.85 23.9 14.85 24.45 14.85 24.6 14.25 L24.65 13.2 24.4 10.5 24.1 8.0 24.0 7.25 Q25.4 6.3 27.05 5.55 26.65 5.55 26.65 5.05 L26.8 4.1 28.25 3.3 Q29.25 3.8 31.3 3.9 L32.6 5.5 33.3 6.55 34.3 10.95 35.25 13.55 37.3 15.05 41.9 19.15 Q42.7 20.15 44.1 23.45 L44.4 24.2 Q46.4 26.75 48.15 30.2 51.2 36.2 51.2 40.35 51.2 41.5 46.9 42.55 L39.75 43.65" fill="url(#gradient3)" fill-rule="evenodd" stroke="none"/>
    <path d="M14.85 47.95 L14.3 47.6 13.7 46.8 13.65 46.7 13.5 45.1 Q13.5 44.05 16.45 41.05 19.4 38.05 21.2 37.55 L21.35 37.5 Q24.3 36.85 25.95 40.1 27.1 42.4 27.1 44.5 27.1 45.95 25.15 46.9 23.65 47.65 21.15 48.0 L19.65 48.15 16.9 48.25 16.75 48.25 16.55 48.25 16.3 48.25 14.85 47.95" fill="#999999" fill-rule="evenodd" stroke="none"/>
    <path d="M14.85 47.95 L16.3 48.25 16.55 48.25 16.75 48.25 16.9 48.25 19.65 48.15 21.15 48.0 Q23.65 47.65 25.15 46.9 27.1 45.95 27.1 44.5 27.1 42.4 25.95 40.1 24.3 36.85 21.35 37.5 L21.2 37.55 Q19.4 38.05 16.45 41.05 13.5 44.05 13.5 45.1 L13.65 46.7 13.7 46.8 14.3 47.6 14.85 47.95 Z" fill="none" stroke="#666666" stroke-linecap="round" stroke-linejoin="round" stroke-width="2.0"/>
    <path d="M21.15 48.0 L21.35 47.35 Q21.35 46.85 19.9 45.05 18.45 43.25 18.45 42.05 18.45 41.2 19.85 39.35 L21.2 37.65 21.2 37.55 21.35 37.5 Q24.3 36.85 25.95 40.1 27.1 42.4 27.1 44.5 27.1 45.95 25.15 46.9 23.65 47.65 21.15 48.0" fill="url(#gradient4)" fill-rule="evenodd" stroke="none"/>
    <path d="M21.2 37.55 L21.2 37.65 19.85 39.35 Q18.45 41.2 18.45 42.05 18.45 43.25 19.9 45.05 21.35 46.85 21.35 47.35 L21.15 48.0 19.65 48.15 16.9 48.25 16.75 48.25 16.55 48.25 16.3 48.25 14.85 47.95 14.3 47.6 13.7 46.8 13.65 46.7 13.5 45.1 Q13.5 44.05 16.45 41.05 19.4 38.05 21.2 37.55" fill="#888888" fill-rule="evenodd" stroke="none"/>
    <path d="M14.3 47.6 L14.85 47.95 16.3 48.25 Q15.0 48.2 14.3 47.6" fill="#999999" fill-rule="evenodd" stroke="none"/>
    <path d="M51.6 38.75 Q55.45 38.6 57.8 43.15 59.45 46.45 59.45 49.05 59.45 50.4 59.15 50.7 58.25 51.7 54.6 51.9 L48.45 51.9 48.4 51.9 Q46.2 51.2 45.7 50.4 L45.6 50.05 45.55 49.7 45.5 49.05 Q45.5 48.0 47.65 43.75 L47.75 43.6 50.6 39.35 Q51.15 38.85 51.6 38.75" fill="#999999" fill-rule="evenodd" stroke="none"/>
    <path d="M51.6 38.75 Q55.45 38.6 57.8 43.15 59.45 46.45 59.45 49.05 59.45 50.4 59.15 50.7 58.25 51.7 54.6 51.9 L48.45 51.9 48.4 51.9 Q46.2 51.2 45.7 50.4 L45.6 50.05 45.55 49.7 45.5 49.05 Q45.5 48.0 47.65 43.75 L47.75 43.6 50.6 39.35 Q51.15 38.85 51.6 38.75 Z" fill="none" stroke="#666666" stroke-linecap="round" stroke-linejoin="round" stroke-width="2.0"/>
    <path d="M48.4 51.9 L48.45 51.7 49.1 51.9 48.45 51.9 48.4 51.9" fill="#999999" fill-rule="evenodd" stroke="none"/>
    <path d="M50.6 39.35 Q51.05 38.95 51.4 38.85 L51.4 39.15 50.25 41.65 Q49.1 43.8 49.1 44.55 49.1 44.9 51.15 48.25 L53.2 51.6 53.15 51.9 49.1 51.9 48.45 51.7 48.4 51.9 Q46.2 51.2 45.7 50.4 L45.6 50.05 45.55 49.7 45.5 49.05 Q45.5 48.0 47.65 43.75 L47.75 43.6 50.6 39.35" fill="#888888" fill-rule="evenodd" stroke="none"/>
    <path d="M53.15 51.9 L53.2 51.6 51.15 48.25 Q49.1 44.9 49.1 44.55 49.1 43.8 50.25 41.65 L51.4 39.15 51.4 38.85 Q51.05 38.95 50.6 39.35 51.15 38.85 51.6 38.75 55.45 38.6 57.8 43.15 59.45 46.45 59.45 49.05 59.45 50.4 59.15 50.7 58.25 51.7 54.6 51.9 L53.15 51.9" fill="url(#gradient5)" fill-rule="evenodd" stroke="none"/>
    <path d="M41.9 43.0 Q44.1 42.6 46.05 46.6 47.7 50.15 47.7 52.3 47.7 53.85 45.75 54.85 44.6 55.45 43.2 55.65 L41.25 55.8 39.2 55.65 Q37.9 55.35 37.3 54.75 36.8 54.15 36.8 53.1 36.8 51.55 38.4 47.7 40.1 43.6 41.35 43.15 L41.9 43.0" fill="#999999" fill-rule="evenodd" stroke="none"/>
    <path d="M41.9 43.0 Q44.1 42.6 46.05 46.6 47.7 50.15 47.7 52.3 47.7 53.85 45.75 54.85 44.6 55.45 43.2 55.65 L41.25 55.8 39.2 55.65 Q37.9 55.35 37.3 54.75 36.8 54.15 36.8 53.1 36.8 51.55 38.4 47.7 40.1 43.6 41.35 43.15 L41.9 43.0 Z" fill="none" stroke="#666666" stroke-linecap="round" stroke-linejoin="round" stroke-width="2.0"/>
    <path d="M41.9 43.0 L41.95 43.4 41.05 47.05 Q40.15 49.7 40.15 50.45 40.15 51.15 41.75 53.4 L43.2 55.65 41.25 55.8 39.2 55.65 38.3 55.0 37.3 54.75 Q36.8 54.15 36.8 53.1 36.8 51.55 38.4 47.7 40.1 43.6 41.35 43.15 L41.9 43.0" fill="#888888" fill-rule="evenodd" stroke="none"/>
    <path d="M43.2 55.65 L41.75 53.4 Q40.15 51.15 40.15 50.45 40.15 49.7 41.05 47.05 L41.95 43.4 41.9 43.0 Q44.1 42.6 46.05 46.6 47.7 50.15 47.7 52.3 47.7 53.85 45.75 54.85 44.6 55.45 43.2 55.65" fill="url(#gradient6)" fill-rule="evenodd" stroke="none"/>
    <path d="M37.3 54.75 L38.3 55.0 39.2 55.65 Q37.9 55.35 37.3 54.75" fill="#999999" fill-rule="evenodd" stroke="none"/>
    <path d="M53.45 57.05 L51.15 57.65 47.6 57.85 Q46.2 57.85 45.75 56.7 L45.55 55.45 Q45.55 53.35 47.0 51.85 48.3 50.45 50.15 50.2 L50.4 50.2 Q54.7 49.8 54.7 55.3 54.7 56.45 53.45 57.05" fill="#999999" fill-rule="evenodd" stroke="none"/>
    <path d="M53.45 57.05 L51.15 57.65 47.6 57.85 Q46.2 57.85 45.75 56.7 L45.55 55.45 Q45.55 53.35 47.0 51.85 48.3 50.45 50.15 50.2 L50.4 50.2 Q54.7 49.8 54.7 55.3 54.7 56.45 53.45 57.05 Z" fill="none" stroke="#666666" stroke-linecap="round" stroke-linejoin="round" stroke-width="2.0"/>
    <path d="M51.15 57.65 L47.6 57.85 Q46.2 57.85 45.75 56.7 L45.55 55.45 Q45.55 53.35 47.0 51.85 48.3 50.45 50.15 50.2 L50.4 50.2 49.7 51.15 Q48.9 52.1 48.9 52.65 48.9 53.75 50.05 55.55 L51.15 57.65" fill="#888888" fill-rule="evenodd" stroke="none"/>
    <path d="M50.4 50.2 Q54.7 49.8 54.7 55.3 54.7 56.45 53.45 57.05 L51.15 57.65 50.05 55.55 Q48.9 53.75 48.9 52.65 48.9 52.1 49.7 51.15 L50.4 50.2" fill="url(#gradient7)" fill-rule="evenodd" stroke="none"/>
    <path d="M58.3 18.15 Q61.95 17.95 61.7 23.45 61.65 24.6 60.55 25.15 L58.6 25.65 55.55 25.7 Q54.4 25.65 54.05 24.45 L53.9 23.2 Q54.0 21.1 55.3 19.65 56.5 18.3 58.1 18.15 L58.3 18.15" fill="#999999" fill-rule="evenodd" stroke="none"/>
    <path d="M58.3 18.15 Q61.95 17.95 61.7 23.45 61.65 24.6 60.55 25.15 L58.6 25.65 55.55 25.7 Q54.4 25.65 54.05 24.45 L53.9 23.2 Q54.0 21.1 55.3 19.65 56.5 18.3 58.1 18.15 L58.3 18.15 Z" fill="none" stroke="#666666" stroke-linecap="round" stroke-linejoin="round" stroke-width="2.0"/>
    <path d="M58.6 25.65 L55.55 25.7 Q54.4 25.65 54.05 24.45 L53.9 23.2 Q54.0 21.1 55.3 19.65 56.5 18.3 58.1 18.15 L58.3 18.15 57.65 19.1 Q56.95 20.0 56.95 20.55 56.9 21.65 57.75 23.5 L58.6 25.65" fill="#888888" fill-rule="evenodd" stroke="none"/>
    <path d="M58.3 18.15 Q61.95 17.95 61.7 23.45 61.65 24.6 60.55 25.15 L58.6 25.65 57.75 23.5 Q56.9 21.65 56.95 20.55 56.95 20.0 57.65 19.1 L58.3 18.15" fill="url(#gradient8)" fill-rule="evenodd" stroke="none"/>
    <path d="M33.8 51.85 L34.05 51.85 34.1 51.85 Q38.6 51.7 38.6 56.15 38.6 57.05 37.8 57.5 36.75 58.05 34.1 58.2 L32.6 58.2 Q30.55 58.2 29.6 57.25 29.0 56.65 29.0 56.1 29.0 54.35 30.5 53.1 31.9 52.0 33.8 51.85" fill="#888888" fill-rule="evenodd" stroke="none"/>
    <path d="M33.8 51.85 L34.05 51.85 34.1 51.85 Q38.6 51.7 38.6 56.15 38.6 57.05 37.8 57.5 36.75 58.05 34.1 58.2 L32.6 58.2 Q30.55 58.2 29.6 57.25 29.0 56.65 29.0 56.1 29.0 54.35 30.5 53.1 31.9 52.0 33.8 51.85 Z" fill="none" stroke="#666666" stroke-linecap="round" stroke-linejoin="round" stroke-width="2.0"/>
    <path d="M34.05 51.85 L33.7 52.15 Q32.45 53.2 32.45 53.75 32.45 55.15 33.35 56.8 L34.1 58.2 32.6 58.2 Q30.55 58.2 29.6 57.25 29.0 56.65 29.0 56.1 29.0 54.35 30.5 53.1 31.9 52.0 33.8 51.85 L34.05 51.85" fill="#888888" fill-rule="evenodd" stroke="none"/>
    <path d="M34.05 51.85 L34.1 51.85 Q38.6 51.7 38.6 56.15 38.6 57.05 37.8 57.5 36.75 58.05 34.1 58.2 L33.35 56.8 Q32.45 55.15 32.45 53.75 32.45 53.2 33.7 52.15 L34.05 51.85" fill="url(#gradient9)" fill-rule="evenodd" stroke="none"/>
  </g>
  <defs>
    <linearGradient gradientTransform="matrix(0.0012, 0.0082, -0.0154, 0.0023, 28.35, 44.75)" gradientUnits="userSpaceOnUse" id="gradient0" spreadMethod="pad" x1="-819.2" x2="819.2">
      <stop offset="0.0" stop-color="#000000" stop-opacity="0.6"/>
      <stop offset="1.0" stop-color="#000000" stop-opacity="0.0"/>
    </linearGradient>
    <linearGradient gradientTransform="matrix(0.0, 0.0, 0.0, 0.0, 0.0, 0.0)" gradientUnits="userSpaceOnUse" id="gradient1" spreadMethod="pad" x1="-819.2" x2="819.2">
      <stop offset="0.0" stop-color="#000000" stop-opacity="0.6"/>
      <stop offset="1.0" stop-color="#000000" stop-opacity="0.0"/>
    </linearGradient>
    <linearGradient gradientTransform="matrix(0.0184, -0.0086, 0.0087, 0.0185, 37.0, 6.35)" gradientUnits="userSpaceOnUse" id="gradient2" spreadMethod="pad" x1="-819.2" x2="819.2">
      <stop offset="0.0" stop-color="#999999"/>
      <stop offset="1.0" stop-color="#adadad"/>
    </linearGradient>
    <linearGradient gradientTransform="matrix(0.0186, -0.0085, 0.0104, 0.0228, 37.8, 18.95)" gradientUnits="userSpaceOnUse" id="gradient3" spreadMethod="pad" x1="-819.2" x2="819.2">
      <stop offset="0.0" stop-color="#999999"/>
      <stop offset="1.0" stop-color="#adadad"/>
    </linearGradient>
    <linearGradient gradientTransform="matrix(0.005, -0.0017, 0.0021, 0.0061, 22.75, 42.7)" gradientUnits="userSpaceOnUse" id="gradient4" spreadMethod="pad" x1="-819.2" x2="819.2">
      <stop offset="0.0" stop-color="#999999"/>
      <stop offset="1.0" stop-color="#adadad"/>
    </linearGradient>
    <linearGradient gradientTransform="matrix(0.006, -0.0025, 0.003, 0.0074, 52.8, 45.8)" gradientUnits="userSpaceOnUse" id="gradient5" spreadMethod="pad" x1="-819.2" x2="819.2">
      <stop offset="0.0" stop-color="#999999"/>
      <stop offset="1.0" stop-color="#adadad"/>
    </linearGradient>
    <linearGradient gradientTransform="matrix(0.0045, -0.0012, 0.0019, 0.0075, 42.4, 49.8)" gradientUnits="userSpaceOnUse" id="gradient6" spreadMethod="pad" x1="-819.2" x2="819.2">
      <stop offset="0.0" stop-color="#999999"/>
      <stop offset="1.0" stop-color="#adadad"/>
    </linearGradient>
    <linearGradient gradientTransform="matrix(0.0031, -0.0017, 0.0022, 0.004, 50.3, 53.9)" gradientUnits="userSpaceOnUse" id="gradient7" spreadMethod="pad" x1="-819.2" x2="819.2">
      <stop offset="0.0" stop-color="#999999"/>
      <stop offset="1.0" stop-color="#adadad"/>
    </linearGradient>
    <linearGradient gradientTransform="matrix(0.0028, -9.0E-4, 0.0013, 0.0044, 59.3, 21.9)" gradientUnits="userSpaceOnUse" id="gradient8" spreadMethod="pad" x1="-819.2" x2="819.2">
      <stop offset="0.0" stop-color="#999999"/>
      <stop offset="1.0" stop-color="#adadad"/>
    </linearGradient>
    <linearGradient gradientTransform="matrix(0.0033, -0.0017, 0.0018, 0.0034, 34.5, 55.0)" gradientUnits="userSpaceOnUse" id="gradient9" spreadMethod="pad" x1="-819.2" x2="819.2">
      <stop offset="0.0" stop-color="#999999"/>
      <stop offset="1.0" stop-color="#adadad"/>
    </linearGradient>
  </defs>
</svg>
