<?xml version="1.0" encoding="UTF-8" standalone="no"?>
<svg xmlns:xlink="http://www.w3.org/1999/xlink" height="45.2px" width="46.1px" xmlns="http://www.w3.org/2000/svg">
  <g transform="matrix(1.0, 0.0, 0.0, 1.0, 23.05, 22.6)">
    <path d="M-3.85 -21.1 L19.75 -21.1 19.75 -21.05 21.55 -21.05 21.55 10.75 21.55 11.1 Q21.45 12.4 20.55 14.0 18.9 16.9 15.3 19.0 L14.4 19.5 Q11.25 21.05 8.3 21.1 5.35 21.1 4.05 19.5 L3.75 19.05 Q2.55 16.95 4.2 14.05 5.95 11.1 9.55 9.05 13.15 6.95 16.45 6.95 L18.8 7.3 18.8 -13.9 -3.25 -13.9 -3.25 7.55 -3.25 7.9 Q-3.35 9.2 -4.25 10.8 -5.9 13.7 -9.5 15.8 -13.1 17.85 -16.5 17.9 -19.85 17.9 -21.05 15.85 -22.25 13.75 -20.6 10.85 -18.85 7.9 -15.25 5.85 -11.65 3.75 -8.35 3.75 L-6.0 4.1 -6.0 -21.05 -3.85 -21.05 -3.85 -21.1" fill="#000000" fill-rule="evenodd" stroke="none"/>
    <path d="M-3.85 -21.1 L19.75 -21.1 19.75 -21.05 21.55 -21.05 21.55 10.75 21.55 11.1 Q21.45 12.4 20.55 14.0 18.9 16.9 15.3 19.0 L14.4 19.5 Q11.25 21.05 8.3 21.1 5.35 21.1 4.05 19.5 L3.75 19.05 Q2.55 16.95 4.2 14.05 5.95 11.1 9.55 9.05 13.15 6.95 16.45 6.95 L18.8 7.3 18.8 -13.9 -3.25 -13.9 -3.25 7.55 -3.25 7.9 Q-3.35 9.2 -4.25 10.8 -5.9 13.7 -9.5 15.8 -13.1 17.85 -16.5 17.9 -19.85 17.9 -21.05 15.85 -22.25 13.75 -20.6 10.85 -18.85 7.9 -15.25 5.85 -11.65 3.75 -8.35 3.75 L-6.0 4.1 -6.0 -21.05 -3.85 -21.05 -3.85 -21.1 Z" fill="none" stroke="#ffffff" stroke-linecap="round" stroke-linejoin="round" stroke-width="3.0"/>
    <path d="M-3.85 -21.1 L19.75 -21.1 19.75 -21.05 21.55 -21.05 21.55 10.75 21.55 11.1 Q21.45 12.4 20.55 14.0 18.9 16.9 15.3 19.0 L14.4 19.5 Q11.25 21.05 8.3 21.1 5.35 21.1 4.05 19.5 L3.75 19.05 Q2.55 16.95 4.2 14.05 5.95 11.1 9.55 9.05 13.15 6.95 16.45 6.95 L18.8 7.3 18.8 -13.9 -3.25 -13.9 -3.25 7.55 -3.25 7.9 Q-3.35 9.2 -4.25 10.8 -5.9 13.7 -9.5 15.8 -13.1 17.85 -16.5 17.9 -19.85 17.9 -21.05 15.85 -22.25 13.75 -20.6 10.85 -18.85 7.9 -15.25 5.85 -11.65 3.75 -8.35 3.75 L-6.0 4.1 -6.0 -21.05 -3.85 -21.05 -3.85 -21.1" fill="#000000" fill-rule="evenodd" stroke="none"/>
  </g>
</svg>
