<?xml version="1.0" encoding="UTF-8" standalone="no"?>
<svg xmlns:xlink="http://www.w3.org/1999/xlink" height="226.45px" width="151.9px" xmlns="http://www.w3.org/2000/svg">
  <g transform="matrix(1.0, 0.0, 0.0, 1.0, 75.1, 137.35)">
    <path d="M-28.95 81.55 Q-27.8 81.6 -27.0 82.4 -26.15 83.25 -26.15 84.45 -26.15 85.65 -27.0 86.5 -27.85 87.35 -29.05 87.35 L-29.45 87.35 -30.4 87.2 -31.4 86.85 -31.3 86.85 -35.4 86.0 Q-36.55 85.8 -37.3 84.8 -38.0 83.8 -37.8 82.65 -37.65 81.5 -36.65 80.75 -35.7 80.05 -34.55 80.25 -31.75 80.6 -29.55 81.35 L-29.4 81.4 -28.95 81.55 M-42.9 79.7 L-40.75 79.7 Q-39.55 79.7 -38.7 80.55 -37.85 81.4 -37.85 82.6 -37.85 83.8 -38.7 84.7 -39.55 85.5 -40.75 85.5 L-42.9 85.5 -46.65 85.7 Q-47.85 85.8 -48.75 85.0 -49.65 84.25 -49.75 83.05 -49.9 81.85 -49.1 80.95 -48.35 80.0 -47.15 79.9 L-42.9 79.7 M-61.05 83.35 Q-61.45 82.2 -60.85 81.15 -60.3 80.1 -59.2 79.7 L-57.0 79.9 Q-56.0 80.35 -55.2 80.85 L-54.1 80.85 -53.2 80.7 Q-52.0 80.5 -51.05 81.25 -50.1 81.9 -49.9 83.1 -49.7 84.3 -50.35 85.25 -51.1 86.2 -52.25 86.4 L-53.4 86.6 -53.9 86.65 -56.05 86.65 Q-57.0 86.65 -57.7 86.15 L-59.6 85.05 Q-60.65 84.5 -61.05 83.35 M-70.85 64.65 L-70.75 63.9 Q-70.55 62.75 -69.6 62.1 -68.65 61.35 -67.4 61.55 -66.25 61.75 -65.55 62.7 -64.85 63.65 -65.05 64.9 L-65.1 65.45 -65.15 65.65 Q-65.75 68.15 -65.75 69.4 L-65.7 70.1 Q-65.6 71.3 -66.3 72.2 L-67.25 73.0 -66.15 73.2 Q-65.05 73.55 -64.5 74.65 L-62.5 77.95 Q-61.8 78.3 -61.4 79.05 -60.8 80.05 -61.1 81.2 -61.4 82.35 -62.4 83.0 -63.45 83.55 -64.55 83.3 L-64.95 83.2 Q-65.9 82.95 -66.55 82.15 -68.55 79.6 -69.75 77.15 -70.25 76.05 -69.85 74.9 -69.45 73.8 -68.4 73.3 L-68.35 73.3 Q-69.5 73.4 -70.4 72.65 -71.35 71.9 -71.45 70.65 L-71.5 69.4 Q-71.5 67.75 -70.8 64.45 L-70.85 64.65 M-66.65 50.2 Q-65.7 50.9 -65.5 52.15 L-65.3 53.55 -65.3 53.5 -64.65 58.2 Q-64.55 59.4 -65.3 60.35 -66.0 61.3 -67.25 61.45 -68.45 61.55 -69.35 60.8 -70.3 60.1 -70.4 58.9 L-71.05 54.35 -71.05 54.3 -71.25 52.95 Q-71.45 51.75 -70.7 50.75 -70.0 49.8 -68.75 49.65 -67.6 49.45 -66.65 50.2 M-66.25 27.25 Q-65.45 28.1 -65.45 29.3 L-65.45 30.65 -65.45 30.8 -65.7 35.2 Q-65.75 36.4 -66.6 37.2 -67.5 38.0 -68.65 38.0 -67.45 38.05 -66.7 39.0 -65.85 39.85 -65.95 41.05 L-66.05 42.4 -65.85 46.55 Q-65.85 47.75 -66.65 48.65 -67.45 49.5 -68.65 49.55 -69.85 49.6 -70.7 48.8 -71.6 47.95 -71.65 46.8 L-71.85 42.45 -71.85 42.15 -71.75 40.7 Q-71.65 39.45 -70.75 38.7 -69.95 37.95 -68.75 38.0 -69.95 37.9 -70.7 37.05 -71.5 36.15 -71.5 35.0 L-71.25 30.55 -71.25 29.3 Q-71.25 28.1 -70.35 27.25 -69.55 26.4 -68.35 26.4 -67.15 26.4 -66.25 27.25 M-71.2 -19.95 Q-70.0 -19.95 -69.1 -19.05 -68.3 -18.25 -68.3 -17.05 L-68.3 -11.25 Q-68.3 -10.05 -69.1 -9.15 -70.0 -8.35 -71.15 -8.35 -70.0 -8.35 -69.1 -7.45 -68.3 -6.65 -68.3 -5.45 L-68.3 -4.5 Q-67.4 -2.9 -67.1 -0.8 L-67.1 -0.35 -67.1 0.25 Q-67.1 1.45 -67.9 2.35 -68.7 3.1 -69.85 3.15 -68.65 3.15 -67.8 4.0 -67.0 4.8 -66.95 6.0 L-66.85 9.75 -66.85 9.8 -66.8 11.85 Q-66.75 13.0 -67.55 13.9 -68.2 14.6 -69.1 14.8 -68.15 14.85 -67.35 15.5 -66.45 16.3 -66.35 17.5 L-66.1 20.15 -66.1 20.2 -65.85 23.1 Q-65.75 24.3 -66.45 25.25 -67.25 26.15 -68.45 26.3 -69.65 26.4 -70.55 25.65 -71.5 24.9 -71.55 23.7 L-71.85 20.75 -72.15 17.95 Q-72.25 16.75 -71.45 15.8 -70.8 15.05 -69.85 14.85 -70.85 14.8 -71.6 14.05 -72.55 13.25 -72.6 12.1 L-72.65 9.9 -72.65 9.8 -72.75 6.15 Q-72.8 4.95 -71.9 4.05 -71.15 3.2 -70.0 3.15 -71.2 3.15 -72.0 2.35 -72.9 1.45 -72.9 0.25 L-72.9 -0.1 Q-73.05 -1.35 -73.65 -2.25 -74.1 -3.0 -74.1 -3.8 L-74.1 -5.45 Q-74.1 -6.65 -73.2 -7.45 -72.4 -8.35 -71.25 -8.35 -72.4 -8.35 -73.2 -9.15 -74.1 -10.05 -74.1 -11.25 L-74.1 -17.05 Q-74.1 -18.25 -73.2 -19.05 -72.4 -19.95 -71.2 -19.95 M-67.8 -42.3 Q-67.1 -41.35 -67.2 -40.15 L-67.9 -34.2 Q-68.1 -32.95 -69.0 -32.25 -69.55 -31.85 -70.1 -31.7 -69.4 -31.55 -68.75 -30.95 -67.95 -30.1 -67.95 -28.9 L-67.95 -28.55 -67.75 -22.95 Q-67.75 -21.7 -68.6 -20.85 -69.45 -20.05 -70.65 -20.05 -71.85 -20.05 -72.7 -20.85 -73.55 -21.7 -73.55 -22.95 L-73.75 -28.15 -73.75 -28.35 -73.75 -28.9 Q-73.75 -30.1 -72.9 -30.95 -72.3 -31.55 -71.5 -31.7 -72.45 -31.95 -73.05 -32.8 -73.85 -33.75 -73.65 -34.95 L-72.9 -40.85 Q-72.85 -42.05 -71.85 -42.75 -70.95 -43.5 -69.75 -43.35 -68.55 -43.25 -67.8 -42.3 M-68.65 -52.0 L-68.65 -52.05 -68.2 -52.9 Q-67.6 -53.95 -66.45 -54.25 L-64.4 -54.1 -64.5 -54.1 Q-65.45 -54.95 -65.5 -56.15 -65.55 -57.35 -64.7 -58.25 L-63.7 -59.3 -62.6 -60.0 -58.4 -61.2 -58.0 -61.3 Q-56.9 -61.6 -55.85 -61.0 -55.1 -60.55 -54.7 -59.75 -54.55 -60.65 -53.9 -61.25 -53.1 -62.15 -51.85 -62.15 L-46.05 -62.15 Q-44.85 -62.15 -44.0 -61.25 -43.15 -60.45 -43.15 -59.25 -43.15 -58.05 -44.0 -57.15 -44.85 -56.35 -46.05 -56.35 L-51.85 -56.35 Q-53.1 -56.35 -53.9 -57.15 L-54.5 -57.95 -54.8 -57.0 Q-55.45 -56.0 -56.6 -55.7 L-57.0 -55.6 -60.1 -54.7 -60.4 -54.35 Q-61.25 -53.45 -62.45 -53.4 -63.15 -53.35 -63.75 -53.65 -63.1 -53.1 -62.9 -52.25 -62.6 -51.1 -63.15 -50.0 L-63.45 -49.45 -65.5 -45.0 Q-65.95 -43.9 -67.1 -43.4 -68.2 -42.95 -69.3 -43.4 -70.4 -43.9 -70.85 -45.0 -71.35 -46.1 -70.85 -47.2 L-68.65 -52.0 M-31.6 -56.95 Q-31.65 -55.75 -32.5 -54.95 -33.4 -54.1 -34.6 -54.15 -38.8 -54.3 -41.25 -55.2 -42.4 -55.55 -42.95 -56.65 -43.5 -57.7 -43.15 -58.8 -42.75 -59.95 -41.7 -60.5 L-39.45 -60.7 Q-37.5 -60.1 -34.35 -59.95 -33.2 -59.9 -32.35 -59.0 -31.55 -58.15 -31.6 -56.95 M-22.5 -60.35 Q-21.3 -60.3 -20.5 -59.45 -19.65 -58.6 -19.65 -57.4 -19.7 -56.2 -20.5 -55.4 -21.4 -54.55 -22.6 -54.55 L-28.25 -54.4 Q-29.45 -54.35 -30.35 -55.15 -31.25 -55.9 -31.35 -57.1 -31.45 -58.35 -30.6 -59.2 -29.8 -60.1 -28.6 -60.2 L-22.5 -60.35 M10.6 80.7 L16.45 82.35 Q17.65 82.75 18.15 83.8 L18.5 84.75 Q18.6 83.85 19.3 83.2 20.15 82.3 21.35 82.3 L27.15 82.3 Q28.35 82.3 29.2 83.2 30.05 84.0 30.05 85.15 30.05 84.0 30.9 83.2 31.7 82.35 32.85 82.3 L37.6 81.35 38.1 81.3 39.65 81.55 Q40.75 81.9 41.35 83.0 L41.6 83.7 42.0 83.2 Q42.85 82.3 44.05 82.3 L49.85 82.3 Q51.05 82.3 51.9 83.2 52.75 84.0 52.75 85.15 52.75 84.0 53.6 83.2 54.45 82.3 55.65 82.3 L57.5 82.3 57.65 82.25 57.6 82.25 59.95 81.05 62.1 80.8 Q63.25 81.15 63.85 82.2 64.4 83.25 64.1 84.4 63.7 85.55 62.7 86.15 L60.35 87.4 60.25 87.45 59.7 87.7 Q59.0 88.1 58.25 88.1 L55.65 88.1 Q54.45 88.1 53.6 87.3 52.75 86.4 52.75 85.25 52.75 86.4 51.9 87.3 51.05 88.1 49.85 88.1 L44.05 88.1 Q42.85 88.1 42.0 87.3 41.4 86.65 41.2 85.85 40.8 86.5 40.05 86.9 L38.2 87.15 33.75 88.05 33.15 88.1 32.95 88.1 Q31.75 88.1 30.9 87.3 30.05 86.4 30.05 85.25 30.05 86.4 29.2 87.3 28.35 88.1 27.15 88.1 L21.35 88.1 Q20.15 88.1 19.3 87.3 18.55 86.5 18.5 85.55 L18.35 86.0 Q18.0 87.15 16.95 87.65 L14.75 87.85 9.25 86.35 Q8.05 86.1 7.45 85.05 7.05 84.45 7.0 83.75 L6.35 84.8 Q5.4 85.65 4.25 85.6 2.95 85.55 2.8 85.25 2.8 86.45 1.95 87.3 1.05 88.1 -0.1 88.1 L-0.15 88.1 Q-1.35 88.1 -2.15 87.3 -2.95 86.5 -3.05 85.5 -3.25 86.6 -4.15 87.3 -5.1 88.0 -6.3 87.85 L-12.1 87.1 Q-13.35 86.95 -14.05 86.0 L-14.6 84.95 Q-14.8 85.7 -15.3 86.25 -16.2 87.1 -17.4 87.1 L-23.2 87.1 Q-24.4 87.1 -25.2 86.25 -26.1 85.4 -26.1 84.2 -26.1 83.0 -25.2 82.15 -24.4 81.3 -23.2 81.3 L-17.4 81.3 Q-16.2 81.3 -15.3 82.15 -14.8 82.7 -14.6 83.45 -14.35 82.55 -13.55 81.9 -12.6 81.2 -11.45 81.35 L-5.45 82.1 Q-4.3 82.25 -3.55 83.3 -3.15 83.85 -3.0 84.55 -2.95 79.65 4.4 79.8 5.55 79.85 6.45 80.7 7.1 81.45 7.2 82.5 7.55 81.6 8.4 81.05 9.4 80.45 10.6 80.7 M70.85 18.35 Q71.65 17.5 72.9 17.5 74.1 17.5 74.95 18.35 75.8 19.2 75.8 20.4 L75.8 23.8 75.8 23.9 75.65 26.45 Q75.55 27.65 74.65 28.4 73.85 29.15 72.8 29.15 73.85 29.35 74.5 30.2 75.25 31.15 75.15 32.35 L74.6 37.95 Q74.5 39.1 73.65 39.9 L72.6 40.55 73.6 41.05 Q74.5 41.85 74.6 43.05 74.8 45.4 75.65 47.9 L75.8 48.8 75.8 49.0 Q75.8 50.2 74.95 51.05 74.1 51.9 72.95 51.9 74.1 51.9 74.95 52.75 75.8 53.6 75.8 54.8 L75.8 58.95 75.7 59.7 75.3 61.3 Q75.0 62.45 74.0 63.1 73.35 63.5 72.7 63.5 73.15 63.7 73.65 64.2 74.45 65.0 74.45 66.25 L74.45 66.6 75.05 71.75 Q75.15 72.9 74.45 73.85 73.8 74.6 73.0 74.85 73.3 75.0 73.65 75.4 74.45 76.3 74.35 77.55 74.25 78.75 73.3 79.5 L68.45 83.05 66.25 83.4 Q65.05 83.15 64.45 82.1 63.8 81.05 64.1 79.95 64.35 78.75 65.4 78.1 L69.55 75.1 70.65 74.5 70.35 74.3 Q69.4 73.5 69.3 72.35 L68.75 67.05 68.7 66.7 68.7 66.25 Q68.7 65.0 69.55 64.2 70.3 63.4 71.45 63.35 70.5 63.0 70.0 62.15 69.35 61.15 69.65 60.0 L70.0 58.55 70.0 54.8 Q70.0 53.6 70.85 52.75 71.65 51.9 72.85 51.9 71.65 51.9 70.85 51.05 70.1 50.3 70.05 49.3 69.05 46.4 68.8 43.6 68.75 42.35 69.5 41.45 70.1 40.75 70.9 40.55 L69.55 39.65 Q68.75 38.75 68.8 37.6 L69.4 31.65 Q69.5 30.45 70.45 29.7 71.25 29.1 72.2 29.1 L70.55 28.15 Q69.75 27.25 69.85 26.05 L70.0 23.65 70.0 20.4 Q70.0 19.2 70.85 18.35 M11.55 -60.3 Q12.7 -60.5 13.7 -59.75 14.65 -59.1 14.85 -57.95 L14.85 -58.25 Q14.85 -59.45 15.7 -60.25 16.5 -61.15 17.75 -61.15 L23.5 -61.15 Q24.75 -61.15 25.6 -60.25 26.4 -59.45 26.4 -58.25 26.4 -57.0 25.6 -56.15 24.75 -55.35 23.5 -55.35 L17.75 -55.35 Q16.5 -55.35 15.7 -56.15 15.0 -56.85 14.9 -57.65 14.95 -56.65 14.3 -55.7 13.55 -54.75 12.4 -54.55 L6.45 -53.85 Q5.25 -53.75 4.35 -54.45 3.65 -55.05 3.45 -55.8 3.3 -55.05 2.75 -54.4 1.95 -53.5 0.75 -53.45 L-5.1 -53.2 Q-6.35 -53.15 -7.2 -54.0 -8.05 -54.8 -8.1 -56.0 -8.1 -54.85 -8.95 -54.0 -9.8 -53.15 -11.0 -53.15 L-14.2 -53.15 -17.3 -53.4 Q-18.45 -53.6 -19.1 -54.55 -19.85 -55.5 -19.65 -56.75 -19.45 -57.9 -18.5 -58.55 -17.55 -59.3 -16.3 -59.1 L-14.2 -58.95 -11.0 -58.95 Q-9.8 -58.95 -8.95 -58.1 -8.1 -57.25 -8.1 -56.1 -8.1 -57.25 -7.3 -58.1 -6.5 -58.95 -5.3 -59.0 L0.45 -59.25 Q1.6 -59.3 2.5 -58.45 3.1 -58.0 3.35 -57.25 3.5 -58.0 3.95 -58.55 4.7 -59.5 5.9 -59.6 L11.55 -60.3 M52.1 -61.65 L58.25 -61.1 Q59.4 -60.9 60.1 -59.85 60.75 -58.9 60.55 -57.7 L61.3 -58.4 Q62.25 -59.15 63.45 -58.95 L63.6 -58.95 Q64.45 -58.95 65.15 -58.5 L66.45 -57.95 67.4 -57.4 69.6 -55.7 Q70.5 -55.0 70.65 -53.8 70.75 -52.7 70.2 -51.85 L70.5 -52.0 72.75 -51.8 Q73.8 -51.25 74.2 -50.15 L74.3 -49.85 74.45 -49.35 74.95 -47.4 75.1 -46.85 75.15 -45.65 75.15 -45.4 74.9 -42.85 Q74.8 -41.65 73.9 -40.9 73.25 -40.35 72.55 -40.25 L73.45 -39.75 Q74.4 -38.95 74.45 -37.75 L74.95 -31.95 Q75.05 -30.75 74.3 -29.85 73.6 -29.05 72.7 -28.85 73.65 -28.8 74.45 -28.15 75.35 -27.3 75.45 -26.1 L75.8 -20.25 Q75.85 -19.05 75.05 -18.2 74.3 -17.35 73.2 -17.25 74.35 -17.05 75.05 -16.1 75.8 -15.15 75.65 -13.95 L74.9 -10.6 74.9 -10.5 74.45 -8.35 Q74.25 -7.15 73.25 -6.4 72.65 -5.95 71.85 -5.85 72.65 -5.7 73.25 -5.15 74.15 -4.4 74.25 -3.15 L74.65 1.55 74.65 1.6 74.75 2.65 Q74.85 3.85 74.1 4.8 73.65 5.35 73.05 5.55 73.6 5.65 74.1 6.0 75.1 6.7 75.35 7.85 L75.45 8.55 75.75 14.4 Q75.8 15.55 74.95 16.45 74.1 17.3 72.95 17.35 71.7 17.4 70.85 16.6 70.0 15.7 69.95 14.55 L69.65 9.05 69.65 9.0 Q69.4 7.85 70.1 6.85 70.55 6.1 71.35 5.75 70.6 5.6 70.05 5.15 69.05 4.35 68.95 3.2 L68.85 2.15 68.9 2.2 68.45 -2.8 Q68.35 -4.0 69.15 -4.85 69.95 -5.8 71.05 -5.9 69.95 -6.05 69.2 -7.0 68.5 -7.95 68.7 -9.1 68.85 -10.7 69.3 -12.1 L69.35 -12.2 69.9 -14.75 Q70.05 -15.95 71.0 -16.7 71.6 -17.2 72.4 -17.25 71.6 -17.4 70.95 -17.95 70.05 -18.75 70.0 -20.0 L69.65 -25.75 Q69.6 -27.0 70.35 -27.85 71.0 -28.6 71.95 -28.8 70.95 -28.85 70.2 -29.5 69.25 -30.25 69.15 -31.45 L68.7 -37.25 Q68.6 -38.5 69.35 -39.35 70.1 -40.2 71.15 -40.35 70.35 -40.6 69.8 -41.25 69.0 -42.15 69.1 -43.35 L69.35 -45.7 69.4 -45.9 69.35 -46.0 68.8 -47.95 68.75 -48.05 68.7 -48.35 Q68.3 -49.5 68.85 -50.55 L69.0 -50.85 68.1 -50.55 Q66.9 -50.45 65.95 -51.2 L64.2 -52.6 62.8 -53.2 62.5 -53.25 Q61.35 -53.45 60.65 -54.4 59.95 -55.4 60.15 -56.6 L60.15 -56.65 59.4 -55.85 Q58.4 -55.2 57.25 -55.4 L51.85 -55.85 Q50.65 -55.9 49.85 -56.8 49.2 -57.5 49.1 -58.35 L48.45 -56.95 Q47.6 -56.0 46.45 -55.9 44.9 -55.8 43.5 -55.15 L43.55 -55.15 41.6 -54.3 Q40.45 -54.0 39.4 -54.55 38.3 -55.1 37.95 -56.25 37.7 -55.2 36.85 -54.5 35.9 -53.85 34.7 -54.0 L31.8 -54.55 31.75 -54.6 28.65 -55.4 Q27.5 -55.65 26.85 -56.75 26.25 -57.8 26.55 -58.9 26.85 -60.05 27.9 -60.7 L30.15 -61.0 33.15 -60.2 33.1 -60.2 35.55 -59.75 Q36.75 -59.6 37.5 -58.55 L37.9 -57.75 38.15 -58.4 Q38.7 -59.55 39.85 -59.85 L40.95 -60.3 41.05 -60.35 Q43.45 -61.5 46.05 -61.7 47.2 -61.8 48.1 -61.0 48.95 -60.25 49.1 -59.2 49.25 -60.15 50.05 -60.9 50.9 -61.7 52.1 -61.65" fill="#999999" fill-rule="evenodd" stroke="none"/>
    <path d="M52.1 -61.65 Q50.9 -61.7 50.05 -60.9 49.25 -60.15 49.1 -59.2 48.95 -60.25 48.1 -61.0 47.2 -61.8 46.05 -61.7 43.45 -61.5 41.05 -60.35 L40.95 -60.3 39.85 -59.85 Q38.7 -59.55 38.15 -58.4 L37.9 -57.75 37.5 -58.55 Q36.75 -59.6 35.55 -59.75 L33.1 -60.2 33.15 -60.2 30.15 -61.0 27.9 -60.7 Q26.85 -60.05 26.55 -58.9 26.25 -57.8 26.85 -56.75 27.5 -55.65 28.65 -55.4 L31.75 -54.6 31.8 -54.55 34.7 -54.0 Q35.9 -53.85 36.85 -54.5 37.7 -55.2 37.95 -56.25 38.3 -55.1 39.4 -54.55 40.45 -54.0 41.6 -54.3 L43.55 -55.15 43.5 -55.15 Q44.9 -55.8 46.45 -55.9 47.6 -56.0 48.45 -56.95 L49.1 -58.35 Q49.2 -57.5 49.85 -56.8 50.65 -55.9 51.85 -55.85 L57.25 -55.4 Q58.4 -55.2 59.4 -55.85 L60.15 -56.65 60.15 -56.6 Q59.95 -55.4 60.65 -54.4 61.35 -53.45 62.5 -53.25 L62.8 -53.2 64.2 -52.6 65.95 -51.2 Q66.9 -50.45 68.1 -50.55 L69.0 -50.85 68.85 -50.55 Q68.3 -49.5 68.7 -48.35 L68.75 -48.05 68.8 -47.95 69.35 -46.0 69.4 -45.9 69.35 -45.7 69.1 -43.35 Q69.0 -42.15 69.8 -41.25 70.35 -40.6 71.15 -40.35 70.1 -40.2 69.35 -39.35 68.6 -38.5 68.7 -37.25 L69.15 -31.45 Q69.25 -30.25 70.2 -29.5 70.95 -28.85 71.95 -28.8 71.0 -28.6 70.35 -27.85 69.6 -27.0 69.65 -25.75 L70.0 -20.0 Q70.05 -18.75 70.95 -17.95 71.6 -17.4 72.4 -17.25 71.6 -17.2 71.0 -16.7 70.05 -15.95 69.9 -14.75 L69.35 -12.2 69.3 -12.1 Q68.85 -10.7 68.7 -9.1 68.5 -7.95 69.2 -7.0 69.95 -6.05 71.05 -5.9 69.95 -5.8 69.15 -4.85 68.35 -4.0 68.45 -2.8 L68.9 2.2 68.85 2.15 68.95 3.2 Q69.05 4.35 70.05 5.15 70.6 5.6 71.35 5.75 70.55 6.1 70.1 6.85 69.4 7.85 69.65 9.0 L69.65 9.05 69.95 14.55 Q70.0 15.7 70.85 16.6 71.7 17.4 72.95 17.35 74.1 17.3 74.95 16.45 75.8 15.55 75.75 14.4 L75.45 8.55 75.35 7.85 Q75.1 6.7 74.1 6.0 73.6 5.65 73.05 5.55 73.65 5.35 74.1 4.8 74.85 3.85 74.75 2.65 L74.65 1.6 74.65 1.55 74.25 -3.15 Q74.15 -4.4 73.25 -5.15 72.65 -5.7 71.85 -5.85 72.65 -5.95 73.25 -6.4 74.25 -7.15 74.45 -8.35 L74.9 -10.5 74.9 -10.6 75.65 -13.95 Q75.8 -15.15 75.05 -16.1 74.35 -17.05 73.2 -17.25 74.3 -17.35 75.05 -18.2 75.85 -19.05 75.8 -20.25 L75.45 -26.1 Q75.35 -27.3 74.45 -28.15 73.65 -28.8 72.7 -28.85 73.6 -29.05 74.3 -29.85 75.05 -30.75 74.95 -31.95 L74.45 -37.75 Q74.4 -38.95 73.45 -39.75 L72.55 -40.25 Q73.25 -40.35 73.9 -40.9 74.8 -41.65 74.9 -42.85 L75.15 -45.4 75.15 -45.65 75.1 -46.85 74.95 -47.4 74.45 -49.35 74.3 -49.85 74.2 -50.15 Q73.8 -51.25 72.75 -51.8 L70.5 -52.0 70.2 -51.85 Q70.75 -52.7 70.65 -53.8 70.5 -55.0 69.6 -55.7 L67.4 -57.4 66.45 -57.95 65.15 -58.5 Q64.45 -58.95 63.6 -58.95 L63.45 -58.95 Q62.25 -59.15 61.3 -58.4 L60.55 -57.7 Q60.75 -58.9 60.1 -59.85 59.4 -60.9 58.25 -61.1 L52.1 -61.65 M11.55 -60.3 L5.9 -59.6 Q4.7 -59.5 3.95 -58.55 3.5 -58.0 3.35 -57.25 3.1 -58.0 2.5 -58.45 1.6 -59.3 0.45 -59.25 L-5.3 -59.0 Q-6.5 -58.95 -7.3 -58.1 -8.1 -57.25 -8.1 -56.1 -8.1 -57.25 -8.95 -58.1 -9.8 -58.95 -11.0 -58.95 L-14.2 -58.95 -16.3 -59.1 Q-17.55 -59.3 -18.5 -58.55 -19.45 -57.9 -19.65 -56.75 -19.85 -55.5 -19.1 -54.55 -18.45 -53.6 -17.3 -53.4 L-14.2 -53.15 -11.0 -53.15 Q-9.8 -53.15 -8.95 -54.0 -8.1 -54.85 -8.1 -56.0 -8.05 -54.8 -7.2 -54.0 -6.35 -53.15 -5.1 -53.2 L0.75 -53.45 Q1.95 -53.5 2.75 -54.4 3.3 -55.05 3.45 -55.8 3.65 -55.05 4.35 -54.45 5.25 -53.75 6.45 -53.85 L12.4 -54.55 Q13.55 -54.75 14.3 -55.7 14.95 -56.65 14.9 -57.65 15.0 -56.85 15.7 -56.15 16.5 -55.35 17.75 -55.35 L23.5 -55.35 Q24.75 -55.35 25.6 -56.15 26.4 -57.0 26.4 -58.25 26.4 -59.45 25.6 -60.25 24.75 -61.15 23.5 -61.15 L17.75 -61.15 Q16.5 -61.15 15.7 -60.25 14.85 -59.45 14.85 -58.25 L14.85 -57.95 Q14.65 -59.1 13.7 -59.75 12.7 -60.5 11.55 -60.3 M70.85 18.35 Q70.0 19.2 70.0 20.4 L70.0 23.65 69.85 26.05 Q69.75 27.25 70.55 28.15 L72.2 29.1 Q71.25 29.1 70.45 29.7 69.5 30.45 69.4 31.65 L68.8 37.6 Q68.75 38.75 69.55 39.65 L70.9 40.55 Q70.1 40.75 69.5 41.45 68.75 42.35 68.8 43.6 69.05 46.4 70.05 49.3 70.1 50.3 70.85 51.05 71.65 51.9 72.85 51.9 71.65 51.9 70.85 52.75 70.0 53.6 70.0 54.8 L70.0 58.55 69.65 60.0 Q69.35 61.15 70.0 62.15 70.5 63.0 71.45 63.35 70.3 63.4 69.55 64.2 68.7 65.0 68.7 66.25 L68.7 66.7 68.75 67.05 69.3 72.35 Q69.4 73.5 70.35 74.3 L70.65 74.5 69.55 75.1 65.4 78.1 Q64.35 78.75 64.1 79.95 63.8 81.05 64.45 82.1 65.05 83.15 66.25 83.4 L68.45 83.05 73.3 79.5 Q74.25 78.75 74.35 77.55 74.45 76.3 73.65 75.4 73.3 75.0 73.0 74.85 73.8 74.6 74.45 73.85 75.15 72.9 75.05 71.75 L74.45 66.6 74.45 66.25 Q74.45 65.0 73.65 64.2 73.15 63.7 72.7 63.5 73.35 63.5 74.0 63.1 75.0 62.45 75.3 61.3 L75.7 59.7 75.8 58.95 75.8 54.8 Q75.8 53.6 74.95 52.75 74.1 51.9 72.95 51.9 74.1 51.9 74.95 51.05 75.8 50.2 75.8 49.0 L75.8 48.8 75.65 47.9 Q74.8 45.4 74.6 43.05 74.5 41.85 73.6 41.05 L72.6 40.55 73.65 39.9 Q74.5 39.1 74.6 37.95 L75.15 32.35 Q75.25 31.15 74.5 30.2 73.85 29.35 72.8 29.15 73.85 29.15 74.65 28.4 75.55 27.65 75.65 26.45 L75.8 23.9 75.8 23.8 75.8 20.4 Q75.8 19.2 74.95 18.35 74.1 17.5 72.9 17.5 71.65 17.5 70.85 18.35 M10.6 80.7 Q9.4 80.45 8.4 81.05 7.55 81.6 7.2 82.5 7.1 81.45 6.45 80.7 5.55 79.85 4.4 79.8 -2.95 79.65 -3.0 84.55 -3.15 83.85 -3.55 83.3 -4.3 82.25 -5.45 82.1 L-11.45 81.35 Q-12.6 81.2 -13.55 81.9 -14.35 82.55 -14.6 83.45 -14.8 82.7 -15.3 82.15 -16.2 81.3 -17.4 81.3 L-23.2 81.3 Q-24.4 81.3 -25.2 82.15 -26.1 83.0 -26.1 84.2 -26.1 85.4 -25.2 86.25 -24.4 87.1 -23.2 87.1 L-17.4 87.1 Q-16.2 87.1 -15.3 86.25 -14.8 85.7 -14.6 84.95 L-14.05 86.0 Q-13.35 86.95 -12.1 87.1 L-6.3 87.85 Q-5.1 88.0 -4.15 87.3 -3.25 86.6 -3.05 85.5 -2.95 86.5 -2.15 87.3 -1.35 88.1 -0.15 88.1 L-0.1 88.1 Q1.05 88.1 1.95 87.3 2.8 86.45 2.8 85.25 2.95 85.55 4.25 85.6 5.4 85.65 6.35 84.8 L7.0 83.75 Q7.05 84.45 7.45 85.05 8.05 86.1 9.25 86.35 L14.75 87.85 16.95 87.65 Q18.0 87.15 18.35 86.0 L18.5 85.55 Q18.55 86.5 19.3 87.3 20.15 88.1 21.35 88.1 L27.15 88.1 Q28.35 88.1 29.2 87.3 30.05 86.4 30.05 85.25 30.05 86.4 30.9 87.3 31.75 88.1 32.95 88.1 L33.15 88.1 33.75 88.05 38.2 87.15 40.05 86.9 Q40.8 86.5 41.2 85.85 41.4 86.65 42.0 87.3 42.85 88.1 44.05 88.1 L49.85 88.1 Q51.05 88.1 51.9 87.3 52.75 86.4 52.75 85.25 52.75 86.4 53.6 87.3 54.45 88.1 55.65 88.1 L58.25 88.1 Q59.0 88.1 59.7 87.7 L60.25 87.45 60.35 87.4 62.7 86.15 Q63.7 85.55 64.1 84.4 64.4 83.25 63.85 82.2 63.25 81.15 62.1 80.8 L59.95 81.05 57.6 82.25 57.65 82.25 57.5 82.3 55.65 82.3 Q54.45 82.3 53.6 83.2 52.75 84.0 52.75 85.15 52.75 84.0 51.9 83.2 51.05 82.3 49.85 82.3 L44.05 82.3 Q42.85 82.3 42.0 83.2 L41.6 83.7 41.35 83.0 Q40.75 81.9 39.65 81.55 L38.1 81.3 37.6 81.35 32.85 82.3 Q31.7 82.35 30.9 83.2 30.05 84.0 30.05 85.15 30.05 84.0 29.2 83.2 28.35 82.3 27.15 82.3 L21.35 82.3 Q20.15 82.3 19.3 83.2 18.6 83.85 18.5 84.75 L18.15 83.8 Q17.65 82.75 16.45 82.35 L10.6 80.7 M-22.5 -60.35 L-28.6 -60.2 Q-29.8 -60.1 -30.6 -59.2 -31.45 -58.35 -31.35 -57.1 -31.25 -55.9 -30.35 -55.15 -29.45 -54.35 -28.25 -54.4 L-22.6 -54.55 Q-21.4 -54.55 -20.5 -55.4 -19.7 -56.2 -19.65 -57.4 -19.65 -58.6 -20.5 -59.45 -21.3 -60.3 -22.5 -60.35 M-31.6 -56.95 Q-31.55 -58.15 -32.35 -59.0 -33.2 -59.9 -34.35 -59.95 -37.5 -60.1 -39.45 -60.7 L-41.7 -60.5 Q-42.75 -59.95 -43.15 -58.8 -43.5 -57.7 -42.95 -56.65 -42.4 -55.55 -41.25 -55.2 -38.8 -54.3 -34.6 -54.15 -33.4 -54.1 -32.5 -54.95 -31.65 -55.75 -31.6 -56.95 M-68.65 -52.0 L-70.85 -47.2 Q-71.35 -46.1 -70.85 -45.0 -70.4 -43.9 -69.3 -43.4 -68.2 -42.95 -67.1 -43.4 -65.95 -43.9 -65.5 -45.0 L-63.45 -49.45 -63.15 -50.0 Q-62.6 -51.1 -62.9 -52.25 -63.1 -53.1 -63.75 -53.65 -63.15 -53.35 -62.45 -53.4 -61.25 -53.45 -60.4 -54.35 L-60.1 -54.7 -57.0 -55.6 -56.6 -55.7 Q-55.45 -56.0 -54.8 -57.0 L-54.5 -57.95 -53.9 -57.15 Q-53.1 -56.35 -51.85 -56.35 L-46.05 -56.35 Q-44.85 -56.35 -44.0 -57.15 -43.15 -58.05 -43.15 -59.25 -43.15 -60.45 -44.0 -61.25 -44.85 -62.15 -46.05 -62.15 L-51.85 -62.15 Q-53.1 -62.15 -53.9 -61.25 -54.55 -60.65 -54.7 -59.75 -55.1 -60.55 -55.85 -61.0 -56.9 -61.6 -58.0 -61.3 L-58.4 -61.2 -62.6 -60.0 -63.7 -59.3 -64.7 -58.25 Q-65.55 -57.35 -65.5 -56.15 -65.45 -54.95 -64.5 -54.1 L-64.4 -54.1 -66.45 -54.25 Q-67.6 -53.95 -68.2 -52.9 L-68.65 -52.05 -68.65 -52.0 M-67.8 -42.3 Q-68.55 -43.25 -69.75 -43.35 -70.95 -43.5 -71.85 -42.75 -72.85 -42.05 -72.9 -40.85 L-73.65 -34.95 Q-73.85 -33.75 -73.05 -32.8 -72.45 -31.95 -71.5 -31.7 -72.3 -31.55 -72.9 -30.95 -73.75 -30.1 -73.75 -28.9 L-73.75 -28.35 -73.75 -28.15 -73.55 -22.95 Q-73.55 -21.7 -72.7 -20.85 -71.85 -20.05 -70.65 -20.05 -69.45 -20.05 -68.6 -20.85 -67.75 -21.7 -67.75 -22.95 L-67.95 -28.55 -67.95 -28.9 Q-67.95 -30.1 -68.75 -30.95 -69.4 -31.55 -70.1 -31.7 -69.55 -31.85 -69.0 -32.25 -68.1 -32.95 -67.9 -34.2 L-67.2 -40.15 Q-67.1 -41.35 -67.8 -42.3 M-71.2 -19.95 Q-72.4 -19.95 -73.2 -19.05 -74.1 -18.25 -74.1 -17.05 L-74.1 -11.25 Q-74.1 -10.05 -73.2 -9.15 -72.4 -8.35 -71.25 -8.35 -72.4 -8.35 -73.2 -7.45 -74.1 -6.65 -74.1 -5.45 L-74.1 -3.8 Q-74.1 -3.0 -73.65 -2.25 -73.05 -1.35 -72.9 -0.1 L-72.9 0.25 Q-72.9 1.45 -72.0 2.35 -71.2 3.15 -70.0 3.15 -71.15 3.2 -71.9 4.05 -72.8 4.95 -72.75 6.15 L-72.65 9.8 -72.65 9.9 -72.6 12.1 Q-72.55 13.25 -71.6 14.05 -70.85 14.8 -69.85 14.85 -70.8 15.05 -71.45 15.8 -72.25 16.75 -72.15 17.95 L-71.85 20.75 -71.55 23.7 Q-71.5 24.9 -70.55 25.65 -69.65 26.4 -68.45 26.3 -67.25 26.15 -66.45 25.25 -65.75 24.3 -65.85 23.1 L-66.1 20.2 -66.1 20.15 -66.35 17.5 Q-66.45 16.3 -67.35 15.5 -68.15 14.85 -69.1 14.8 -68.2 14.6 -67.55 13.9 -66.75 13.0 -66.8 11.85 L-66.85 9.8 -66.85 9.75 -66.95 6.0 Q-67.0 4.8 -67.8 4.0 -68.65 3.15 -69.85 3.15 -68.7 3.1 -67.9 2.35 -67.1 1.45 -67.1 0.25 L-67.1 -0.35 -67.1 -0.8 Q-67.4 -2.9 -68.3 -4.5 L-68.3 -5.45 Q-68.3 -6.65 -69.1 -7.45 -70.0 -8.35 -71.15 -8.35 -70.0 -8.35 -69.1 -9.15 -68.3 -10.05 -68.3 -11.25 L-68.3 -17.05 Q-68.3 -18.25 -69.1 -19.05 -70.0 -19.95 -71.2 -19.95 M-66.25 27.25 Q-67.15 26.4 -68.35 26.4 -69.55 26.4 -70.35 27.25 -71.25 28.1 -71.25 29.3 L-71.25 30.55 -71.5 35.0 Q-71.5 36.15 -70.7 37.05 -69.95 37.9 -68.75 38.0 -69.95 37.95 -70.75 38.7 -71.65 39.45 -71.75 40.7 L-71.85 42.15 -71.85 42.45 -71.65 46.8 Q-71.6 47.95 -70.7 48.8 -69.85 49.6 -68.65 49.55 -67.45 49.5 -66.65 48.65 -65.85 47.75 -65.85 46.55 L-66.05 42.4 -65.95 41.05 Q-65.85 39.85 -66.7 39.0 -67.45 38.05 -68.65 38.0 -67.5 38.0 -66.6 37.2 -65.75 36.4 -65.7 35.2 L-65.45 30.8 -65.45 30.65 -65.45 29.3 Q-65.45 28.1 -66.25 27.25 M-66.65 50.2 Q-67.6 49.45 -68.75 49.65 -70.0 49.8 -70.7 50.75 -71.45 51.75 -71.25 52.95 L-71.05 54.3 -71.05 54.35 -70.4 58.9 Q-70.3 60.1 -69.35 60.8 -68.45 61.55 -67.25 61.45 -66.0 61.3 -65.3 60.35 -64.55 59.4 -64.65 58.2 L-65.3 53.5 -65.3 53.55 -65.5 52.15 Q-65.7 50.9 -66.65 50.2 M-70.85 64.65 L-70.8 64.45 Q-71.5 67.75 -71.5 69.4 L-71.45 70.65 Q-71.35 71.9 -70.4 72.65 -69.5 73.4 -68.35 73.3 L-68.4 73.3 Q-69.45 73.8 -69.85 74.9 -70.25 76.05 -69.75 77.15 -68.55 79.6 -66.55 82.15 -65.9 82.95 -64.95 83.2 L-64.55 83.3 Q-63.45 83.55 -62.4 83.0 -61.4 82.35 -61.1 81.2 -60.8 80.05 -61.4 79.05 -61.8 78.3 -62.5 77.95 L-64.5 74.65 Q-65.05 73.55 -66.15 73.2 L-67.25 73.0 -66.3 72.2 Q-65.6 71.3 -65.7 70.1 L-65.75 69.4 Q-65.75 68.15 -65.15 65.65 L-65.1 65.45 -65.05 64.9 Q-64.85 63.65 -65.55 62.7 -66.25 61.75 -67.4 61.55 -68.65 61.35 -69.6 62.1 -70.55 62.75 -70.75 63.9 L-70.85 64.65 M-61.05 83.35 Q-60.65 84.5 -59.6 85.05 L-57.7 86.15 Q-57.0 86.65 -56.05 86.65 L-53.9 86.65 -53.4 86.6 -52.25 86.4 Q-51.1 86.2 -50.35 85.25 -49.7 84.3 -49.9 83.1 -50.1 81.9 -51.05 81.25 -52.0 80.5 -53.2 80.7 L-54.1 80.85 -55.2 80.85 Q-56.0 80.35 -57.0 79.9 L-59.2 79.7 Q-60.3 80.1 -60.85 81.15 -61.45 82.2 -61.05 83.35 M-42.9 79.7 L-47.15 79.9 Q-48.35 80.0 -49.1 80.95 -49.9 81.85 -49.75 83.05 -49.65 84.25 -48.75 85.0 -47.85 85.8 -46.65 85.7 L-42.9 85.5 -40.75 85.5 Q-39.55 85.5 -38.7 84.7 -37.85 83.8 -37.85 82.6 -37.85 81.4 -38.7 80.55 -39.55 79.7 -40.75 79.7 L-42.9 79.7 M-28.95 81.55 L-29.4 81.4 -29.55 81.35 Q-31.75 80.6 -34.55 80.25 -35.7 80.05 -36.65 80.75 -37.65 81.5 -37.8 82.65 -38.0 83.8 -37.3 84.8 -36.55 85.8 -35.4 86.0 L-31.3 86.85 -31.4 86.85 -30.4 87.2 -29.45 87.35 -29.05 87.35 Q-27.85 87.35 -27.0 86.5 -26.15 85.65 -26.15 84.45 -26.15 83.25 -27.0 82.4 -27.8 81.6 -28.95 81.55" fill="none" stroke="#666666" stroke-linecap="round" stroke-linejoin="round" stroke-width="2.0"/>
    <path d="M42.25 -57.75 Q44.6 -58.85 47.05 -58.85 57.45 -58.85 60.3 -57.45 L61.75 -56.5 Q62.4 -56.1 63.6 -56.05 64.5 -55.5 65.6 -55.2 L67.95 -53.35 Q70.5 -51.25 71.55 -48.95 L72.2 -46.55 72.25 -45.65 71.6 -37.5 72.25 -29.8 72.9 -19.1 72.9 -16.2 72.9 -15.9 Q72.85 -14.0 72.1 -11.4 71.3 -8.6 71.3 -5.2 71.3 -2.5 71.75 1.85 L72.55 8.8 72.9 16.05 72.9 19.15 72.9 23.8 72.25 31.9 Q71.6 38.15 71.6 40.85 71.6 44.7 72.9 48.8 L72.9 58.95 Q71.6 63.8 71.6 66.7 L72.55 76.25 Q70.15 78.6 66.5 80.75 64.75 81.85 58.95 84.8 L58.25 85.2 40.1 85.2 Q39.4 84.2 38.1 84.2 L33.15 85.2 16.1 85.2 8.1 83.15 Q0.0 81.65 -0.1 85.2 L-4.4 85.2 -11.8 84.2 -26.85 84.2 -28.0 84.45 -29.45 84.45 -30.4 84.1 Q-35.0 82.6 -42.9 82.6 -47.2 82.6 -53.9 83.75 L-56.05 83.75 Q-58.0 82.35 -61.1 81.25 -62.8 80.6 -64.3 80.4 -68.65 74.8 -68.65 69.4 L-68.0 65.0 Q-67.35 62.1 -67.35 60.65 -67.35 59.65 -68.2 53.9 L-68.65 51.0 -68.95 42.3 -68.35 30.65 Q-68.35 27.0 -69.0 20.45 L-69.75 9.8 -70.0 -0.35 Q-70.25 -2.3 -71.2 -3.8 L-71.2 -17.15 Q-70.35 -21.1 -70.85 -28.35 L-71.05 -32.75 Q-70.6 -35.9 -70.1 -40.8 L-70.05 -40.95 Q-69.55 -41.95 -69.2 -43.5 L-66.05 -50.75 -64.3 -54.4 -61.65 -57.25 -57.7 -58.4 Q-56.7 -58.65 -56.2 -59.25 L-43.65 -59.25 -40.65 -58.05 Q-37.9 -57.0 -32.75 -57.0 L-28.75 -57.3 Q-24.65 -57.55 -21.25 -57.4 L-18.85 -56.75 Q-16.95 -56.05 -14.2 -56.05 -2.75 -56.05 4.05 -56.55 10.25 -57.0 16.4 -58.25 L29.1 -58.25 32.4 -57.4 37.8 -56.7 Q39.95 -56.7 42.25 -57.75" fill="#999999" fill-rule="evenodd" stroke="none"/>
    <path d="M-28.95 81.55 Q-27.8 81.6 -27.0 82.4 -26.15 83.25 -26.15 84.45 -26.15 85.65 -27.0 86.5 -27.85 87.35 -29.05 87.35 L-29.45 87.35 -30.4 87.2 -31.4 86.85 -31.3 86.85 -35.4 86.0 Q-36.55 85.8 -37.3 84.8 -38.0 83.8 -37.8 82.65 -37.65 81.5 -36.65 80.75 -35.7 80.05 -34.55 80.25 -31.75 80.6 -29.55 81.35 L-29.4 81.4 -28.95 81.55 M-47.15 79.9 L-42.9 79.7 -40.75 79.7 Q-39.55 79.7 -38.7 80.55 -37.85 81.4 -37.85 82.6 -37.85 83.8 -38.7 84.7 -39.55 85.5 -40.75 85.5 L-42.9 85.5 -46.65 85.7 Q-47.85 85.8 -48.75 85.0 -49.65 84.25 -49.75 83.05 -49.9 81.85 -49.1 80.95 -48.35 80.0 -47.15 79.9 M-61.05 83.35 Q-61.45 82.2 -60.85 81.15 -60.3 80.1 -59.2 79.7 L-57.0 79.9 Q-56.0 80.35 -55.2 80.85 L-54.1 80.85 -53.2 80.7 Q-52.0 80.5 -51.05 81.25 -50.1 81.9 -49.9 83.1 -49.7 84.3 -50.35 85.25 -51.1 86.2 -52.25 86.4 L-53.4 86.6 -53.9 86.65 -56.05 86.65 Q-57.0 86.65 -57.7 86.15 L-59.6 85.05 Q-60.65 84.5 -61.05 83.35 M-70.8 64.45 L-70.85 64.65 -70.75 63.9 Q-70.55 62.75 -69.6 62.1 -68.65 61.35 -67.4 61.55 -66.25 61.75 -65.55 62.7 -64.85 63.65 -65.05 64.9 L-65.1 65.45 -65.15 65.65 Q-65.75 68.15 -65.75 69.4 L-65.7 70.1 Q-65.6 71.3 -66.3 72.2 L-67.25 73.0 -66.15 73.2 Q-65.05 73.55 -64.5 74.65 L-62.5 77.95 Q-61.8 78.3 -61.4 79.05 -60.8 80.05 -61.1 81.2 -61.4 82.35 -62.4 83.0 -63.45 83.55 -64.55 83.3 L-64.95 83.2 Q-65.9 82.95 -66.55 82.15 -68.55 79.6 -69.75 77.15 -70.25 76.05 -69.85 74.9 -69.45 73.8 -68.4 73.3 L-68.35 73.3 Q-69.5 73.4 -70.4 72.65 -71.35 71.9 -71.45 70.65 L-71.5 69.4 Q-71.5 67.75 -70.8 64.45 M-66.65 50.2 Q-65.7 50.9 -65.5 52.15 L-65.3 53.55 -65.3 53.5 -64.65 58.2 Q-64.55 59.4 -65.3 60.35 -66.0 61.3 -67.25 61.45 -68.45 61.55 -69.35 60.8 -70.3 60.1 -70.4 58.9 L-71.05 54.35 -71.05 54.3 -71.25 52.95 Q-71.45 51.75 -70.7 50.75 -70.0 49.8 -68.75 49.65 -67.6 49.45 -66.65 50.2 M-66.25 27.25 Q-65.45 28.1 -65.45 29.3 L-65.45 30.65 -65.45 30.8 -65.7 35.2 Q-65.75 36.4 -66.6 37.2 -67.5 38.0 -68.65 38.0 -67.45 38.05 -66.7 39.0 -65.85 39.85 -65.95 41.05 L-66.05 42.4 -65.85 46.55 Q-65.85 47.75 -66.65 48.65 -67.45 49.5 -68.65 49.55 -69.85 49.6 -70.7 48.8 -71.6 47.95 -71.65 46.8 L-71.85 42.45 -71.85 42.15 -71.75 40.7 Q-71.65 39.45 -70.75 38.7 -69.95 37.95 -68.75 38.0 -69.95 37.9 -70.7 37.05 -71.5 36.15 -71.5 35.0 L-71.25 30.55 -71.25 29.3 Q-71.25 28.1 -70.35 27.25 -69.55 26.4 -68.35 26.4 -67.15 26.4 -66.25 27.25 M-73.2 -19.05 Q-72.4 -19.95 -71.2 -19.95 -70.0 -19.95 -69.1 -19.05 -68.3 -18.25 -68.3 -17.05 L-68.3 -11.25 Q-68.3 -10.05 -69.1 -9.15 -70.0 -8.35 -71.15 -8.35 -70.0 -8.35 -69.1 -7.45 -68.3 -6.65 -68.3 -5.45 L-68.3 -4.5 Q-67.4 -2.9 -67.1 -0.8 L-67.1 -0.35 -67.1 0.25 Q-67.1 1.45 -67.9 2.35 -68.7 3.1 -69.85 3.15 -68.65 3.15 -67.8 4.0 -67.0 4.8 -66.95 6.0 L-66.85 9.75 -66.85 9.8 -66.8 11.85 Q-66.75 13.0 -67.55 13.9 -68.2 14.6 -69.1 14.8 -68.15 14.85 -67.35 15.5 -66.45 16.3 -66.35 17.5 L-66.1 20.15 -66.1 20.2 -65.85 23.1 Q-65.75 24.3 -66.45 25.25 -67.25 26.15 -68.45 26.3 -69.65 26.4 -70.55 25.65 -71.5 24.9 -71.55 23.7 L-71.85 20.75 -72.15 17.95 Q-72.25 16.75 -71.45 15.8 -70.8 15.05 -69.85 14.85 -70.85 14.8 -71.6 14.05 -72.55 13.25 -72.6 12.1 L-72.65 9.9 -72.65 9.8 -72.75 6.15 Q-72.8 4.95 -71.9 4.05 -71.15 3.2 -70.0 3.15 -71.2 3.15 -72.0 2.35 -72.9 1.45 -72.9 0.25 L-72.9 -0.1 Q-73.05 -1.35 -73.65 -2.25 -74.1 -3.0 -74.1 -3.8 L-74.1 -5.45 Q-74.1 -6.65 -73.2 -7.45 -72.4 -8.35 -71.25 -8.35 -72.4 -8.35 -73.2 -9.15 -74.1 -10.05 -74.1 -11.25 L-74.1 -17.05 Q-74.1 -18.25 -73.2 -19.05 M-67.8 -42.3 Q-67.1 -41.35 -67.2 -40.15 L-67.9 -34.2 Q-68.1 -32.95 -69.0 -32.25 -69.55 -31.85 -70.1 -31.7 -69.4 -31.55 -68.75 -30.95 -67.95 -30.1 -67.95 -28.9 L-67.95 -28.55 -67.75 -22.95 Q-67.75 -21.7 -68.6 -20.85 -69.45 -20.05 -70.65 -20.05 -71.85 -20.05 -72.7 -20.85 -73.55 -21.7 -73.55 -22.95 L-73.75 -28.15 -73.75 -28.35 -73.75 -28.9 Q-73.75 -30.1 -72.9 -30.95 -72.3 -31.55 -71.5 -31.7 -72.45 -31.95 -73.05 -32.8 -73.85 -33.75 -73.65 -34.95 L-72.9 -40.85 Q-72.85 -42.05 -71.85 -42.75 -70.95 -43.5 -69.75 -43.35 -68.55 -43.25 -67.8 -42.3 M-68.65 -52.0 L-68.65 -52.05 -68.2 -52.9 Q-67.6 -53.95 -66.45 -54.25 L-64.4 -54.1 -64.5 -54.1 Q-65.45 -54.95 -65.5 -56.15 -65.55 -57.35 -64.7 -58.25 L-63.7 -59.3 -62.6 -60.0 -58.4 -61.2 -58.0 -61.3 Q-56.9 -61.6 -55.85 -61.0 -55.1 -60.55 -54.7 -59.75 -54.55 -60.65 -53.9 -61.25 -53.1 -62.15 -51.85 -62.15 L-46.05 -62.15 Q-44.85 -62.15 -44.0 -61.25 -43.15 -60.45 -43.15 -59.25 -43.15 -58.05 -44.0 -57.15 -44.85 -56.35 -46.05 -56.35 L-51.85 -56.35 Q-53.1 -56.35 -53.9 -57.15 L-54.5 -57.95 -54.8 -57.0 Q-55.45 -56.0 -56.6 -55.7 L-57.0 -55.6 -60.1 -54.7 -60.4 -54.35 Q-61.25 -53.45 -62.45 -53.4 -63.15 -53.35 -63.75 -53.65 -63.1 -53.1 -62.9 -52.25 -62.6 -51.1 -63.15 -50.0 L-63.45 -49.45 -65.5 -45.0 Q-65.95 -43.9 -67.1 -43.4 -68.2 -42.95 -69.3 -43.4 -70.4 -43.9 -70.85 -45.0 -71.35 -46.1 -70.85 -47.2 L-68.65 -52.0 M-31.6 -56.95 Q-31.65 -55.75 -32.5 -54.95 -33.4 -54.1 -34.6 -54.15 -38.8 -54.3 -41.25 -55.2 -42.4 -55.55 -42.95 -56.65 -43.5 -57.7 -43.15 -58.8 -42.75 -59.95 -41.7 -60.5 L-39.45 -60.7 Q-37.5 -60.1 -34.35 -59.95 -33.2 -59.9 -32.35 -59.0 -31.55 -58.15 -31.6 -56.95 M-28.6 -60.2 L-22.5 -60.35 Q-21.3 -60.3 -20.5 -59.45 -19.65 -58.6 -19.65 -57.4 -19.7 -56.2 -20.5 -55.4 -21.4 -54.55 -22.6 -54.55 L-28.25 -54.4 Q-29.45 -54.35 -30.35 -55.15 -31.25 -55.9 -31.35 -57.1 -31.45 -58.35 -30.6 -59.2 -29.8 -60.1 -28.6 -60.2 M10.6 80.7 L16.45 82.35 Q17.65 82.75 18.15 83.8 L18.5 84.75 Q18.6 83.85 19.3 83.2 20.15 82.3 21.35 82.3 L27.15 82.3 Q28.35 82.3 29.2 83.2 30.05 84.0 30.05 85.15 30.05 84.0 30.9 83.2 31.7 82.35 32.85 82.3 L37.6 81.35 38.1 81.3 39.65 81.55 Q40.75 81.9 41.35 83.0 L41.6 83.7 42.0 83.2 Q42.85 82.3 44.05 82.3 L49.85 82.3 Q51.05 82.3 51.9 83.2 52.75 84.0 52.75 85.15 52.75 84.0 53.6 83.2 54.45 82.3 55.65 82.3 L57.5 82.3 57.65 82.25 57.6 82.25 59.95 81.05 62.1 80.8 Q63.25 81.15 63.85 82.2 64.4 83.25 64.1 84.4 63.7 85.55 62.7 86.15 L60.35 87.4 60.25 87.45 59.7 87.7 Q59.0 88.1 58.25 88.1 L55.65 88.1 Q54.45 88.1 53.6 87.3 52.75 86.4 52.75 85.25 52.75 86.4 51.9 87.3 51.05 88.1 49.85 88.1 L44.05 88.1 Q42.85 88.1 42.0 87.3 41.4 86.65 41.2 85.85 40.8 86.5 40.05 86.9 L38.2 87.15 33.75 88.05 33.15 88.1 32.95 88.1 Q31.75 88.1 30.9 87.3 30.05 86.4 30.05 85.25 30.05 86.4 29.2 87.3 28.35 88.1 27.15 88.1 L21.35 88.1 Q20.15 88.1 19.3 87.3 18.55 86.5 18.5 85.55 L18.35 86.0 Q18.0 87.15 16.95 87.65 L14.75 87.85 9.25 86.35 Q8.05 86.1 7.45 85.05 7.05 84.45 7.0 83.75 L6.35 84.8 Q5.4 85.65 4.25 85.6 2.95 85.55 2.8 85.25 2.8 86.45 1.95 87.3 1.05 88.1 -0.1 88.1 L-0.15 88.1 Q-1.35 88.1 -2.15 87.3 -2.95 86.5 -3.05 85.5 -3.25 86.6 -4.15 87.3 -5.1 88.0 -6.3 87.85 L-12.1 87.1 Q-13.35 86.95 -14.05 86.0 L-14.6 84.95 Q-14.8 85.7 -15.3 86.25 -16.2 87.1 -17.4 87.1 L-23.2 87.1 Q-24.4 87.1 -25.2 86.25 -26.1 85.4 -26.1 84.2 -26.1 83.0 -25.2 82.15 -24.4 81.3 -23.2 81.3 L-17.4 81.3 Q-16.2 81.3 -15.3 82.15 -14.8 82.7 -14.6 83.45 -14.35 82.55 -13.55 81.9 -12.6 81.2 -11.45 81.35 L-5.45 82.1 Q-4.3 82.25 -3.55 83.3 -3.15 83.85 -3.0 84.55 -2.95 79.65 4.4 79.8 5.55 79.85 6.45 80.7 7.1 81.45 7.2 82.5 7.55 81.6 8.4 81.05 9.4 80.45 10.6 80.7 M70.85 18.35 Q71.65 17.5 72.9 17.5 74.1 17.5 74.95 18.35 75.8 19.2 75.8 20.4 L75.8 23.8 75.8 23.9 75.65 26.45 Q75.55 27.65 74.65 28.4 73.85 29.15 72.8 29.15 73.85 29.35 74.5 30.2 75.25 31.15 75.15 32.35 L74.6 37.95 Q74.5 39.1 73.65 39.9 L72.6 40.55 73.6 41.05 Q74.5 41.85 74.6 43.05 74.8 45.4 75.65 47.9 L75.8 48.8 75.8 49.0 Q75.8 50.2 74.95 51.05 74.1 51.9 72.95 51.9 74.1 51.9 74.95 52.75 75.8 53.6 75.8 54.8 L75.8 58.95 75.7 59.7 75.3 61.3 Q75.0 62.45 74.0 63.1 73.35 63.5 72.7 63.5 73.15 63.7 73.65 64.2 74.45 65.0 74.45 66.25 L74.45 66.6 75.05 71.75 Q75.15 72.9 74.45 73.85 73.8 74.6 73.0 74.85 73.3 75.0 73.65 75.4 74.45 76.3 74.35 77.55 74.25 78.75 73.3 79.5 L68.45 83.05 66.25 83.4 Q65.05 83.15 64.45 82.1 63.8 81.05 64.1 79.95 64.35 78.75 65.4 78.1 L69.55 75.1 70.65 74.5 70.35 74.3 Q69.4 73.5 69.3 72.35 L68.75 67.05 68.7 66.7 68.7 66.25 Q68.7 65.0 69.55 64.2 70.3 63.4 71.45 63.35 70.5 63.0 70.0 62.15 69.35 61.15 69.65 60.0 L70.0 58.55 70.0 54.8 Q70.0 53.6 70.85 52.75 71.65 51.9 72.85 51.9 71.65 51.9 70.85 51.05 70.1 50.3 70.05 49.3 69.05 46.4 68.8 43.6 68.75 42.35 69.5 41.45 70.1 40.75 70.9 40.55 L69.55 39.65 Q68.75 38.75 68.8 37.6 L69.4 31.65 Q69.5 30.45 70.45 29.7 71.25 29.1 72.2 29.1 L70.55 28.15 Q69.75 27.25 69.85 26.05 L70.0 23.65 70.0 20.4 Q70.0 19.2 70.85 18.35 M11.55 -60.3 Q12.7 -60.5 13.7 -59.75 14.65 -59.1 14.85 -57.95 L14.85 -58.25 Q14.85 -59.45 15.7 -60.25 16.5 -61.15 17.75 -61.15 L23.5 -61.15 Q24.75 -61.15 25.6 -60.25 26.4 -59.45 26.4 -58.25 26.4 -57.0 25.6 -56.15 24.75 -55.35 23.5 -55.35 L17.75 -55.35 Q16.5 -55.35 15.7 -56.15 15.0 -56.85 14.9 -57.65 14.95 -56.65 14.3 -55.7 13.55 -54.75 12.4 -54.55 L6.45 -53.85 Q5.25 -53.75 4.35 -54.45 3.65 -55.05 3.45 -55.8 3.3 -55.05 2.75 -54.4 1.95 -53.5 0.75 -53.45 L-5.1 -53.2 Q-6.35 -53.15 -7.2 -54.0 -8.05 -54.8 -8.1 -56.0 -8.1 -54.85 -8.95 -54.0 -9.8 -53.15 -11.0 -53.15 L-14.2 -53.15 -17.3 -53.4 Q-18.45 -53.6 -19.1 -54.55 -19.85 -55.5 -19.65 -56.75 -19.45 -57.9 -18.5 -58.55 -17.55 -59.3 -16.3 -59.1 L-14.2 -58.95 -11.0 -58.95 Q-9.8 -58.95 -8.95 -58.1 -8.1 -57.25 -8.1 -56.1 -8.1 -57.25 -7.3 -58.1 -6.5 -58.95 -5.3 -59.0 L0.45 -59.25 Q1.6 -59.3 2.5 -58.45 3.1 -58.0 3.35 -57.25 3.5 -58.0 3.95 -58.55 4.7 -59.5 5.9 -59.6 L11.55 -60.3 M50.05 -60.9 Q50.9 -61.7 52.1 -61.65 L58.25 -61.1 Q59.4 -60.9 60.1 -59.85 60.75 -58.9 60.55 -57.7 L61.3 -58.4 Q62.25 -59.15 63.45 -58.95 L63.6 -58.95 Q64.45 -58.95 65.15 -58.5 L66.45 -57.95 67.4 -57.4 69.6 -55.7 Q70.5 -55.0 70.65 -53.8 70.75 -52.7 70.2 -51.85 L70.5 -52.0 72.75 -51.8 Q73.8 -51.25 74.2 -50.15 L74.3 -49.85 74.45 -49.35 74.95 -47.4 75.1 -46.85 75.15 -45.65 75.15 -45.4 74.9 -42.85 Q74.8 -41.65 73.9 -40.9 73.25 -40.35 72.55 -40.25 L73.45 -39.75 Q74.4 -38.95 74.45 -37.75 L74.95 -31.95 Q75.05 -30.75 74.3 -29.85 73.6 -29.05 72.7 -28.85 73.65 -28.8 74.45 -28.15 75.35 -27.3 75.45 -26.1 L75.8 -20.25 Q75.85 -19.05 75.05 -18.2 74.3 -17.35 73.2 -17.25 74.35 -17.05 75.05 -16.1 75.8 -15.15 75.65 -13.95 L74.9 -10.6 74.9 -10.5 74.45 -8.35 Q74.25 -7.15 73.25 -6.4 72.65 -5.95 71.85 -5.85 72.65 -5.7 73.25 -5.15 74.15 -4.4 74.25 -3.15 L74.65 1.55 74.65 1.6 74.75 2.65 Q74.85 3.85 74.1 4.8 73.65 5.35 73.05 5.55 73.6 5.65 74.1 6.0 75.1 6.7 75.35 7.85 L75.45 8.55 75.75 14.4 Q75.8 15.55 74.95 16.45 74.1 17.3 72.95 17.35 71.7 17.4 70.85 16.6 70.0 15.7 69.95 14.55 L69.65 9.05 69.65 9.0 Q69.4 7.85 70.1 6.85 70.55 6.1 71.35 5.75 70.6 5.6 70.05 5.15 69.05 4.35 68.95 3.2 L68.85 2.15 68.9 2.2 68.45 -2.8 Q68.35 -4.0 69.15 -4.85 69.95 -5.8 71.05 -5.9 69.95 -6.05 69.2 -7.0 68.5 -7.95 68.7 -9.1 68.85 -10.7 69.3 -12.1 L69.35 -12.2 69.9 -14.75 Q70.05 -15.95 71.0 -16.7 71.6 -17.2 72.4 -17.25 71.6 -17.4 70.95 -17.95 70.05 -18.75 70.0 -20.0 L69.65 -25.75 Q69.6 -27.0 70.35 -27.85 71.0 -28.6 71.95 -28.8 70.95 -28.85 70.2 -29.5 69.25 -30.25 69.15 -31.45 L68.7 -37.25 Q68.6 -38.5 69.35 -39.35 70.1 -40.2 71.15 -40.35 70.35 -40.6 69.8 -41.25 69.0 -42.15 69.1 -43.35 L69.35 -45.7 69.4 -45.9 69.35 -46.0 68.8 -47.95 68.75 -48.05 68.7 -48.35 Q68.3 -49.5 68.85 -50.55 L69.0 -50.85 68.1 -50.55 Q66.9 -50.45 65.95 -51.2 L64.2 -52.6 62.8 -53.2 62.5 -53.25 Q61.35 -53.45 60.65 -54.4 59.95 -55.4 60.15 -56.6 L60.15 -56.65 59.4 -55.85 Q58.4 -55.2 57.25 -55.4 L51.85 -55.85 Q50.65 -55.9 49.85 -56.8 49.2 -57.5 49.1 -58.35 L48.45 -56.95 Q47.6 -56.0 46.45 -55.9 44.9 -55.8 43.5 -55.15 L43.55 -55.15 41.6 -54.3 Q40.45 -54.0 39.4 -54.55 38.3 -55.1 37.95 -56.25 37.7 -55.2 36.85 -54.5 35.9 -53.85 34.7 -54.0 L31.8 -54.55 31.75 -54.6 28.65 -55.4 Q27.5 -55.65 26.85 -56.75 26.25 -57.8 26.55 -58.9 26.85 -60.05 27.9 -60.7 L30.15 -61.0 33.15 -60.2 33.1 -60.2 35.55 -59.75 Q36.75 -59.6 37.5 -58.55 L37.9 -57.75 38.15 -58.4 Q38.7 -59.55 39.85 -59.85 L40.95 -60.3 41.05 -60.35 Q43.45 -61.5 46.05 -61.7 47.2 -61.8 48.1 -61.0 48.95 -60.25 49.1 -59.2 49.25 -60.15 50.05 -60.9" fill="#bbbbbb" fill-rule="evenodd" stroke="none"/>
    <path d="M22.3 35.25 L23.05 37.8 28.15 37.8 29.55 42.3 50.65 42.3 53.2 79.65 34.3 79.65 34.0 83.25 -33.7 83.25 -34.05 79.65 -53.15 79.65 -50.6 42.3 -29.25 42.3 -28.0 37.8 -22.6 37.8 -21.9 35.25 22.3 35.25" fill="#333333" fill-opacity="0.2" fill-rule="evenodd" stroke="none"/>
    <path d="M54.55 42.55 L54.55 48.55 33.5 48.55 33.5 42.55 54.55 42.55 33.5 42.55 33.5 48.55 33.5 53.3 33.5 59.3 26.3 59.3 26.3 65.15 -26.0 65.15 -26.0 59.3 -33.3 59.3 -33.3 53.3 -33.3 48.55 -54.55 48.55 -54.55 42.55 -54.55 -6.75 54.55 -6.75 54.55 42.55 M33.5 53.3 L26.3 53.3 26.3 59.1 -26.0 59.1 -26.0 53.3 -33.3 53.3 -26.0 53.3 -26.0 59.1 26.3 59.1 26.3 53.3 33.5 53.3 M-33.3 48.55 L-33.3 42.55 -54.55 42.55 -33.3 42.55 -33.3 48.55" fill="#4a3800" fill-rule="evenodd" stroke="none"/>
    <path d="M33.5 48.55 L54.55 48.55 54.55 42.55 33.5 42.55 33.5 48.55 33.5 53.3 33.5 59.3 26.3 59.3 26.3 65.15 -26.0 65.15 -26.0 59.3 -33.3 59.3 -33.3 53.3 -33.3 48.55 -54.55 48.55 -54.55 42.55 -54.55 -6.75 54.55 -6.75 54.55 42.55 M-54.55 42.55 L-33.3 42.55 -33.3 48.55 M-33.3 53.3 L-26.0 53.3 -26.0 59.1 26.3 59.1 26.3 53.3 33.5 53.3" fill="none" stroke="#4a3800" stroke-linecap="round" stroke-linejoin="round" stroke-width="3.0"/>
    <path d="M54.55 -0.75 L54.55 48.55 33.5 48.55 33.5 59.3 26.3 59.3 26.3 65.1 -26.0 65.1 -26.0 59.3 -33.3 59.3 -33.3 48.55 -54.55 48.55 -54.55 -0.75 54.55 -0.75" fill="#dda600" fill-rule="evenodd" stroke="none"/>
    <path d="M54.55 -6.7 L54.55 42.6 33.5 42.6 33.5 53.35 26.3 53.35 26.3 59.15 -26.0 59.15 -26.0 53.35 -33.3 53.35 -33.3 42.6 -54.55 42.6 -54.55 -6.7 54.55 -6.7" fill="#ffd148" fill-rule="evenodd" stroke="none"/>
    <path d="M54.9 -1.8 L-54.95 -1.8 -58.25 -137.35 58.2 -137.35 54.9 -1.8" fill="url(#gradient0)" fill-rule="evenodd" stroke="none"/>
    <path d="M0.5 -39.25 L0.5 -78.4 2.75 -78.5 2.75 -87.1 5.45 -87.15 Q26.35 -87.15 41.15 -78.9 54.9 -71.3 55.95 -60.75 L55.95 -56.1 Q57.1 -53.5 57.35 -50.7 L57.35 -16.55 57.3 -17.4 57.3 -16.35 53.7 11.05 50.25 36.95 10.5 36.95 3.35 -16.6 3.4 -16.6 0.45 -39.25 0.5 -39.25 3.2 -39.3 Q24.45 -39.3 40.35 -32.55 47.8 -29.4 52.65 -24.85 L52.95 -24.6 53.15 -24.4 Q56.9 -20.65 57.3 -17.4 56.9 -20.65 53.15 -24.4 L52.95 -24.6 52.65 -24.85 Q47.8 -29.4 40.35 -32.55 24.45 -39.3 3.2 -39.3 L0.5 -39.25 M55.55 -25.25 L55.85 -28.05 Q56.15 -31.75 51.5 -36.15 47.0 -40.5 40.05 -43.5 25.15 -49.9 5.3 -49.9 L2.75 -49.85 3.4 -44.6 5.3 -44.6 Q25.15 -44.6 40.05 -38.2 47.0 -35.2 51.5 -30.9 54.65 -27.9 55.55 -25.25 54.65 -27.9 51.5 -30.9 47.0 -35.2 40.05 -38.2 25.15 -44.6 5.3 -44.6 L3.4 -44.6 2.75 -49.85 5.3 -49.9 Q25.15 -49.9 40.05 -43.5 47.0 -40.5 51.5 -36.15 56.15 -31.75 55.85 -28.05 L55.55 -25.25" fill="#333333" fill-rule="evenodd" stroke="none"/>
    <path d="M0.5 -39.25 L0.5 -78.4 2.75 -78.5 2.75 -87.1 5.45 -87.15 Q26.35 -87.15 41.15 -78.9 54.9 -71.3 55.95 -60.75 L55.95 -56.1 Q57.1 -53.5 57.35 -50.7 L57.35 -16.55 57.3 -17.4 57.3 -16.35 53.7 11.05 50.25 36.95 10.5 36.95 3.35 -16.6 3.4 -16.6 0.45 -39.25 0.5 -39.25 3.2 -39.3 Q24.45 -39.3 40.35 -32.55 47.8 -29.4 52.65 -24.85 L52.95 -24.6 53.15 -24.4 Q56.9 -20.65 57.3 -17.4 M55.55 -25.25 Q54.65 -27.9 51.5 -30.9 47.0 -35.2 40.05 -38.2 25.15 -44.6 5.3 -44.6 L3.4 -44.6 2.75 -49.85 5.3 -49.9 Q25.15 -49.9 40.05 -43.5 47.0 -40.5 51.5 -36.15 56.15 -31.75 55.85 -28.05 L55.55 -25.25" fill="none" stroke="#333333" stroke-linecap="round" stroke-linejoin="round" stroke-width="3.0"/>
    <path d="M57.35 -50.7 L57.35 -16.55 Q57.45 -20.35 52.65 -24.85 47.8 -29.4 40.35 -32.55 24.45 -39.3 3.2 -39.3 L0.5 -39.25 0.5 -78.4 3.35 -78.5 Q25.75 -78.5 41.55 -69.8 56.25 -61.8 57.35 -50.7" fill="#99a0d2" fill-rule="evenodd" stroke="none"/>
    <path d="M57.3 -16.35 L53.7 11.05 50.25 36.95 10.5 36.95 3.35 -16.6 3.4 -16.6 0.45 -39.25 3.2 -39.3 Q24.45 -39.3 40.35 -32.55 47.8 -29.4 52.65 -24.85 57.6 -20.2 57.3 -16.35" fill="#5b64a1" fill-rule="evenodd" stroke="none"/>
    <path d="M55.95 -60.75 L55.95 -28.25 Q56.05 -31.9 51.55 -36.2 47.0 -40.5 40.05 -43.5 25.2 -49.9 5.3 -49.9 L2.8 -49.85 2.8 -87.1 5.45 -87.15 Q26.4 -87.15 41.15 -78.95 54.9 -71.3 55.95 -60.75" fill="#99a0d2" fill-rule="evenodd" stroke="none"/>
    <path d="M51.5 -36.2 Q56.15 -31.8 55.85 -28.1 L55.55 -25.25 Q54.65 -27.95 51.5 -30.9 47.0 -35.25 40.05 -38.25 25.15 -44.65 5.3 -44.65 L3.4 -44.6 2.75 -49.9 5.3 -49.95 Q25.15 -49.95 40.05 -43.5 47.0 -40.5 51.5 -36.2" fill="#5b64a1" fill-rule="evenodd" stroke="none"/>
    <path d="M3.4 -16.6 L3.35 -16.6 10.5 36.95 35.0 36.95 42.6 -31.5 40.35 -32.55 Q24.45 -39.3 3.2 -39.3 L0.45 -39.25 3.4 -16.6" fill="#3e488e" fill-rule="evenodd" stroke="none"/>
    <path d="M52.65 -18.6 L52.8 -18.4 47.15 35.45 41.9 35.45 46.2 -23.45 Q49.85 -21.25 52.65 -18.6 M43.6 -24.95 L39.9 35.45 34.75 35.45 36.5 -28.1 40.35 -26.55 43.6 -24.95 M34.0 -29.05 L32.95 35.45 27.75 35.45 26.7 -31.2 34.0 -29.05 M24.1 -31.8 L25.9 35.45 20.7 35.45 16.6 -33.1 24.1 -31.8 M13.75 -33.45 L18.75 35.45 13.55 35.45 6.25 -34.0 13.75 -33.45" fill="#b7bad5" fill-rule="evenodd" stroke="none"/>
    <path d="M41.95 -25.8 L40.35 -26.55 36.5 -28.1 34.75 35.45 35.15 35.45 42.05 -26.55 41.95 -25.8 M26.7 -31.2 L27.75 35.45 32.95 35.45 34.0 -29.05 26.7 -31.2 M13.75 -33.45 L6.25 -34.0 13.55 35.45 18.75 35.45 13.75 -33.45 M24.1 -31.8 L16.6 -33.1 20.7 35.45 25.9 35.45 24.1 -31.8" fill="#a5a8c2" fill-rule="evenodd" stroke="none"/>
    <path d="M5.45 -87.15 L2.8 -87.1 2.8 -78.5 0.5 -78.4 0.5 -39.25 3.2 -39.3 Q24.45 -39.3 40.35 -32.55 L42.45 -31.6 42.45 -78.2 41.15 -78.95 Q26.4 -87.15 5.45 -87.15" fill="#848abb" fill-rule="evenodd" stroke="none"/>
    <path d="M5.3 -49.95 L2.75 -49.9 3.4 -44.6 5.3 -44.65 Q25.15 -44.65 40.05 -38.25 L42.45 -37.1 42.45 -42.4 40.05 -43.5 Q25.15 -49.95 5.3 -49.95" fill="#3e488e" fill-rule="evenodd" stroke="none"/>
    <path d="M-0.5 -39.25 L-0.5 -78.4 -2.75 -78.5 -2.75 -87.1 -5.45 -87.15 Q-26.35 -87.15 -41.15 -78.9 -54.9 -71.3 -55.95 -60.75 L-55.95 -56.1 Q-57.1 -53.5 -57.35 -50.7 L-57.35 -16.55 -57.3 -17.4 -57.3 -16.35 -53.7 11.05 -50.25 36.95 -10.5 36.95 -3.35 -16.6 -3.4 -16.6 -0.45 -39.25 -0.5 -39.25 -3.2 -39.3 Q-24.45 -39.3 -40.35 -32.55 -47.8 -29.4 -52.65 -24.85 L-52.95 -24.6 -53.15 -24.4 Q-56.9 -20.65 -57.3 -17.4 -56.9 -20.65 -53.15 -24.4 L-52.95 -24.6 -52.65 -24.85 Q-47.8 -29.4 -40.35 -32.55 -24.45 -39.3 -3.2 -39.3 L-0.5 -39.25 M-55.85 -28.05 Q-56.15 -31.75 -51.5 -36.15 -47.0 -40.5 -40.05 -43.5 -25.15 -49.9 -5.3 -49.9 L-2.75 -49.85 -3.4 -44.6 -5.3 -44.6 Q-25.15 -44.6 -40.05 -38.2 -47.0 -35.2 -51.5 -30.9 -54.65 -27.9 -55.55 -25.25 L-55.85 -28.05 -55.55 -25.25 Q-54.65 -27.9 -51.5 -30.9 -47.0 -35.2 -40.05 -38.2 -25.15 -44.6 -5.3 -44.6 L-3.4 -44.6 -2.75 -49.85 -5.3 -49.9 Q-25.15 -49.9 -40.05 -43.5 -47.0 -40.5 -51.5 -36.15 -56.15 -31.75 -55.85 -28.05" fill="#333333" fill-rule="evenodd" stroke="none"/>
    <path d="M-0.5 -39.25 L-0.5 -78.4 -2.75 -78.5 -2.75 -87.1 -5.45 -87.15 Q-26.35 -87.15 -41.15 -78.9 -54.9 -71.3 -55.95 -60.75 L-55.95 -56.1 Q-57.1 -53.5 -57.35 -50.7 L-57.35 -16.55 -57.3 -17.4 -57.3 -16.35 -53.7 11.05 -50.25 36.95 -10.5 36.95 -3.35 -16.6 -3.4 -16.6 -0.45 -39.25 -0.5 -39.25 -3.2 -39.3 Q-24.45 -39.3 -40.35 -32.55 -47.8 -29.4 -52.65 -24.85 L-52.95 -24.6 -53.15 -24.4 Q-56.9 -20.65 -57.3 -17.4 M-55.85 -28.05 L-55.55 -25.25 Q-54.65 -27.9 -51.5 -30.9 -47.0 -35.2 -40.05 -38.2 -25.15 -44.6 -5.3 -44.6 L-3.4 -44.6 -2.75 -49.85 -5.3 -49.9 Q-25.15 -49.9 -40.05 -43.5 -47.0 -40.5 -51.5 -36.15 -56.15 -31.75 -55.85 -28.05" fill="none" stroke="#333333" stroke-linecap="round" stroke-linejoin="round" stroke-width="3.0"/>
    <path d="M-57.35 -50.7 L-57.35 -16.55 Q-57.45 -20.35 -52.65 -24.85 -47.8 -29.4 -40.35 -32.55 -24.45 -39.3 -3.2 -39.3 L-0.5 -39.25 -0.5 -78.4 -3.35 -78.5 Q-25.75 -78.5 -41.55 -69.8 -56.25 -61.8 -57.35 -50.7" fill="#99a0d2" fill-rule="evenodd" stroke="none"/>
    <path d="M-57.3 -16.35 L-53.7 11.05 -50.25 36.95 -10.5 36.95 -3.35 -16.6 -3.4 -16.6 -0.45 -39.25 -3.2 -39.3 Q-24.45 -39.3 -40.35 -32.55 -47.8 -29.4 -52.65 -24.85 -57.6 -20.2 -57.3 -16.35" fill="#5b64a1" fill-rule="evenodd" stroke="none"/>
    <path d="M-55.95 -60.75 L-55.95 -28.25 Q-56.05 -31.9 -51.55 -36.2 -47.0 -40.5 -40.05 -43.5 -25.2 -49.9 -5.3 -49.9 L-2.8 -49.85 -2.8 -87.1 -5.45 -87.15 Q-26.4 -87.15 -41.15 -78.95 -54.9 -71.3 -55.95 -60.75" fill="#99a0d2" fill-rule="evenodd" stroke="none"/>
    <path d="M-51.5 -36.2 Q-56.15 -31.8 -55.85 -28.1 L-55.55 -25.25 Q-54.65 -27.95 -51.5 -30.9 -47.0 -35.25 -40.05 -38.25 -25.15 -44.65 -5.3 -44.65 L-3.4 -44.6 -2.75 -49.9 -5.3 -49.95 Q-25.15 -49.95 -40.05 -43.5 -47.0 -40.5 -51.5 -36.2" fill="#5b64a1" fill-rule="evenodd" stroke="none"/>
    <path d="M-3.4 -16.6 L-3.35 -16.6 -10.5 36.95 -35.0 36.95 -42.6 -31.5 -40.35 -32.55 Q-24.45 -39.3 -3.2 -39.3 L-0.45 -39.25 -3.4 -16.6" fill="#3e488e" fill-rule="evenodd" stroke="none"/>
    <path d="M-52.65 -18.6 L-52.8 -18.4 -47.15 35.45 -41.9 35.45 -46.2 -23.45 Q-49.85 -21.25 -52.65 -18.6 M-43.6 -24.95 L-39.9 35.45 -34.75 35.45 -36.5 -28.1 -40.35 -26.55 -43.6 -24.95 M-34.0 -29.05 L-32.95 35.45 -27.75 35.45 -26.7 -31.2 -34.0 -29.05 M-24.1 -31.8 L-25.9 35.45 -20.7 35.45 -16.6 -33.1 -24.1 -31.8 M-13.75 -33.45 L-18.75 35.45 -13.55 35.45 -6.25 -34.0 -13.75 -33.45" fill="#b7bad5" fill-rule="evenodd" stroke="none"/>
    <path d="M-41.95 -25.8 L-40.35 -26.55 -36.5 -28.1 -34.75 35.45 -35.15 35.45 -42.05 -26.55 -41.95 -25.8 M-26.7 -31.2 L-27.75 35.45 -32.95 35.45 -34.0 -29.05 -26.7 -31.2 M-13.75 -33.45 L-6.25 -34.0 -13.55 35.45 -18.75 35.45 -13.75 -33.45 M-24.1 -31.8 L-16.6 -33.1 -20.7 35.45 -25.9 35.45 -24.1 -31.8" fill="#a5a8c2" fill-rule="evenodd" stroke="none"/>
    <path d="M-57.3 -16.35 L-53.7 11.05 -50.25 36.95 -10.5 36.95 -3.35 -16.6 -3.4 -16.6 -0.45 -39.25 -3.2 -39.3 Q-24.45 -39.3 -40.35 -32.55 -47.8 -29.4 -52.65 -24.85 -57.6 -20.2 -57.3 -16.35" fill="url(#gradient1)" fill-rule="evenodd" stroke="none"/>
    <path d="M26.5 -3.75 L23.25 25.15 20.0 53.2 -19.8 53.2 -23.05 25.15 -26.3 -3.75 Q-26.3 -6.45 -25.2 -8.1 -24.1 -9.75 -21.25 -9.75 L21.45 -9.75 Q24.3 -9.75 25.4 -8.1 26.5 -6.45 26.5 -3.75" fill="#333333" fill-rule="evenodd" stroke="none"/>
    <path d="M26.5 -3.75 L23.25 25.15 20.0 53.2 -19.8 53.2 -23.05 25.15 -26.3 -3.75 Q-26.3 -6.45 -25.2 -8.1 -24.1 -9.75 -21.25 -9.75 L21.45 -9.75 Q24.3 -9.75 25.4 -8.1 26.5 -6.45 26.5 -3.75 Z" fill="none" stroke="#333333" stroke-linecap="round" stroke-linejoin="round" stroke-width="3.0"/>
    <path d="M-5.45 -87.15 L-2.8 -87.1 -2.8 -78.5 -0.5 -78.4 -0.5 -39.25 -3.2 -39.3 Q-24.45 -39.3 -40.35 -32.55 L-42.45 -31.6 -42.45 -78.2 -41.15 -78.95 Q-26.4 -87.15 -5.45 -87.15" fill="#848abb" fill-rule="evenodd" stroke="none"/>
    <path d="M-5.3 -49.95 L-2.75 -49.9 -3.4 -44.6 -5.3 -44.65 Q-25.15 -44.65 -40.05 -38.25 L-42.45 -37.1 -42.45 -42.4 -40.05 -43.5 Q-25.15 -49.95 -5.3 -49.95" fill="#3e488e" fill-rule="evenodd" stroke="none"/>
    <path d="M57.3 -16.35 L53.7 11.05 50.25 36.95 10.5 36.95 3.35 -16.6 3.4 -16.6 0.45 -39.25 3.2 -39.3 Q24.45 -39.3 40.35 -32.55 47.8 -29.4 52.65 -24.85 57.6 -20.2 57.3 -16.35" fill="url(#gradient2)" fill-rule="evenodd" stroke="none"/>
    <path d="M33.8 -81.2 L33.8 -23.7 33.9 -22.0 29.75 13.05 25.55 47.0 -25.35 47.0 -29.55 13.05 -33.7 -22.0 -33.6 -23.7 -33.6 -81.2 -33.7 -82.35 Q-33.7 -85.7 -32.3 -87.7 -30.9 -89.7 -27.25 -89.7 L27.45 -89.7 Q31.1 -89.7 32.5 -87.7 33.9 -85.7 33.9 -82.35 L33.8 -81.2" fill="#333333" fill-rule="evenodd" stroke="none"/>
    <path d="M33.8 -81.2 L33.8 -23.7 33.9 -22.0 29.75 13.05 25.55 47.0 -25.35 47.0 -29.55 13.05 -33.7 -22.0 -33.6 -23.7 -33.6 -81.2 -33.7 -82.35 Q-33.7 -85.7 -32.3 -87.7 -30.9 -89.7 -27.25 -89.7 L27.45 -89.7 Q31.1 -89.7 32.5 -87.7 33.9 -85.7 33.9 -82.35 L33.8 -81.2 Z" fill="none" stroke="#333333" stroke-linecap="round" stroke-linejoin="round" stroke-width="3.0"/>
    <path d="M32.5 -87.7 Q33.9 -85.7 33.9 -82.35 L33.8 -81.2 33.8 -22.65 26.7 -22.65 25.55 -13.35 -25.35 -13.35 -26.5 -22.65 -33.6 -22.65 -33.6 -81.2 -33.7 -82.35 Q-33.7 -85.7 -32.3 -87.7 -30.9 -89.7 -27.25 -89.7 L27.45 -89.7 Q31.1 -89.7 32.5 -87.7" fill="#99a0d2" fill-rule="evenodd" stroke="none"/>
    <path d="M32.8 -87.25 L32.6 -35.3 -32.35 -35.3 -32.55 -64.4 -32.55 -87.3 -32.3 -87.7 Q-30.9 -89.7 -27.25 -89.7 L27.45 -89.7 Q31.1 -89.7 32.5 -87.7 L32.8 -87.25" fill="#848abb" fill-rule="evenodd" stroke="none"/>
    <path d="M32.5 -27.3 Q33.9 -25.3 33.9 -22.0 L29.7 13.0 25.6 47.0 -25.4 47.0 -29.5 13.0 -33.7 -22.0 Q-33.7 -25.3 -32.3 -27.3 -30.9 -29.3 -27.25 -29.3 L27.45 -29.3 Q31.1 -29.3 32.5 -27.3" fill="#5b64a1" fill-rule="evenodd" stroke="none"/>
    <path d="M29.35 -11.75 L25.75 20.6 22.75 47.0 -22.5 47.0 -25.5 20.6 -29.1 -11.75 Q-29.1 -14.85 -27.9 -16.7 -26.7 -18.55 -23.55 -18.55 L23.75 -18.55 Q26.95 -18.55 28.15 -16.7 29.35 -14.85 29.35 -11.75" fill="#3e488e" fill-rule="evenodd" stroke="none"/>
    <path d="M25.4 -18.2 Q26.2 -17.05 26.4 -15.4 L26.4 -4.25 20.9 -4.25 20.0 3.4 -19.85 3.4 -20.7 -4.25 -26.25 -4.25 -26.25 -14.95 Q-26.05 -16.95 -25.2 -18.2 -24.1 -19.85 -21.25 -19.85 L21.45 -19.85 Q24.3 -19.85 25.4 -18.2" fill="#99a0d2" fill-rule="evenodd" stroke="none"/>
    <path d="M26.5 -3.75 L23.25 25.15 20.0 53.2 -19.8 53.2 -23.05 25.15 -26.3 -3.75 Q-26.3 -6.45 -25.2 -8.1 -24.1 -9.75 -21.25 -9.75 L21.45 -9.75 Q24.3 -9.75 25.4 -8.1 26.5 -6.45 26.5 -3.75" fill="#5b64a1" fill-rule="evenodd" stroke="none"/>
    <path d="M-11.85 51.5 L-17.15 51.5 -23.4 -3.9 -16.1 -3.9 -11.85 51.5 M-13.35 -3.85 L-6.1 -3.85 -4.5 51.55 -9.8 51.55 -13.35 -3.85 M-3.55 -3.85 L3.7 -3.85 2.75 51.55 -2.55 51.55 -3.55 -3.85 M16.25 -3.9 L23.55 -3.9 17.3 51.5 12.0 51.5 16.25 -3.9 M6.2 -3.85 L13.5 -3.85 9.95 51.55 4.65 51.55 6.2 -3.85" fill="#b7bad5" fill-rule="evenodd" stroke="none"/>
    <path d="M25.4 -8.1 Q26.5 -6.45 26.5 -3.75 L23.25 25.15 20.0 53.2 -19.8 53.2 -23.05 25.15 -26.3 -3.75 Q-26.3 -6.45 -25.2 -8.1 -24.1 -9.75 -21.25 -9.75 L21.45 -9.75 Q24.3 -9.75 25.4 -8.1" fill="url(#gradient3)" fill-rule="evenodd" stroke="none"/>
    <path d="M27.95 -93.9 Q28.85 -92.55 29.05 -90.4 L29.1 -89.3 29.05 -88.7 29.05 -38.5 29.1 -37.45 28.9 -35.3 -28.7 -35.3 -28.95 -37.45 -28.85 -38.95 -28.85 -88.7 -28.9 -89.3 -28.85 -90.4 Q-28.65 -92.55 -27.75 -93.9 -26.55 -95.6 -23.4 -95.6 L23.6 -95.6 Q26.75 -95.6 27.95 -93.9" fill="#4a3800" fill-rule="evenodd" stroke="none"/>
    <path d="M27.95 -93.9 Q28.85 -92.55 29.05 -90.4 L29.1 -89.3 29.05 -88.7 29.05 -38.5 29.1 -37.45 28.9 -35.3 -28.7 -35.3 -28.95 -37.45 -28.85 -38.95 -28.85 -88.7 -28.9 -89.3 -28.85 -90.4 Q-28.65 -92.55 -27.75 -93.9 -26.55 -95.6 -23.4 -95.6 L23.6 -95.6 Q26.75 -95.6 27.95 -93.9 Z" fill="none" stroke="#4a3800" stroke-linecap="round" stroke-linejoin="round" stroke-width="3.0"/>
    <path d="M24.35 -104.45 Q25.4 -102.95 25.4 -100.45 L25.35 -99.6 25.35 -55.75 20.0 -55.75 19.15 -48.8 -19.0 -48.8 -19.85 -55.75 -25.15 -55.75 -25.15 -99.6 -25.25 -100.45 Q-25.25 -102.95 -24.2 -104.45 -23.15 -105.95 -20.4 -105.95 L20.55 -105.95 Q23.3 -105.95 24.35 -104.45" fill="#4a3800" fill-rule="evenodd" stroke="none"/>
    <path d="M24.35 -104.45 Q25.4 -102.95 25.4 -100.45 L25.35 -99.6 25.35 -55.75 20.0 -55.75 19.15 -48.8 -19.0 -48.8 -19.85 -55.75 -25.15 -55.75 -25.15 -99.6 -25.25 -100.45 Q-25.25 -102.95 -24.2 -104.45 -23.15 -105.95 -20.4 -105.95 L20.55 -105.95 Q23.3 -105.95 24.35 -104.45 Z" fill="none" stroke="#4a3800" stroke-linecap="round" stroke-linejoin="round" stroke-width="3.0"/>
    <path d="M29.05 -88.75 L29.05 -38.1 -28.85 -38.1 -28.85 -88.75 -28.9 -89.3 -28.85 -90.4 Q-28.65 -92.55 -27.75 -93.9 -26.55 -95.65 -23.4 -95.65 L23.6 -95.65 Q26.75 -95.65 27.95 -93.9 28.85 -92.55 29.05 -90.4 L29.1 -89.3 29.05 -88.75" fill="#ffd148" fill-rule="evenodd" stroke="none"/>
    <path d="M26.15 -93.9 Q27.05 -92.55 27.2 -90.4 L27.25 -89.3 27.2 -88.7 27.1 -68.5 26.75 -47.35 -26.6 -47.35 -26.85 -68.45 -27.05 -88.7 -27.1 -89.3 -27.05 -90.4 Q-26.85 -92.55 -26.0 -93.9 -24.85 -95.6 -21.9 -95.6 L22.1 -95.6 Q25.05 -95.6 26.15 -93.9" fill="#f0bf2c" fill-rule="evenodd" stroke="none"/>
    <path d="M29.1 -37.45 L28.9 -35.35 -28.7 -35.35 -28.95 -37.45 Q-28.95 -40.3 -27.75 -42.0 -26.55 -43.7 -23.4 -43.7 L23.55 -43.7 Q26.7 -43.7 27.95 -42.0 29.1 -40.3 29.1 -37.45" fill="#dda600" fill-rule="evenodd" stroke="none"/>
    <path d="M24.35 -104.45 Q25.4 -102.95 25.4 -100.45 L25.3 -99.6 25.3 -55.75 20.0 -55.75 19.15 -48.75 -19.0 -48.75 -19.85 -55.75 -25.2 -55.75 -25.2 -99.6 -25.25 -100.45 Q-25.25 -102.95 -24.2 -104.45 -23.15 -105.9 -20.4 -105.9 L20.55 -105.9 Q23.3 -105.9 24.35 -104.45" fill="#ffd148" fill-rule="evenodd" stroke="none"/>
    <path d="M25.4 -55.2 L24.55 -47.3 -24.35 -47.3 -25.25 -55.2 Q-25.25 -57.7 -24.2 -59.2 -23.15 -60.65 -20.4 -60.65 L20.55 -60.65 Q23.3 -60.65 24.35 -59.2 25.4 -57.7 25.4 -55.2" fill="#dda600" fill-rule="evenodd" stroke="none"/>
  </g>
  <defs>
    <linearGradient gradientTransform="matrix(0.0, 0.0497, -0.0808, 0.0, 1.45, -87.6)" gradientUnits="userSpaceOnUse" id="gradient0" spreadMethod="pad" x1="-819.2" x2="819.2">
      <stop offset="0.0" stop-color="#ffffff" stop-opacity="0.0"/>
      <stop offset="1.0" stop-color="#ffffff" stop-opacity="0.8"/>
    </linearGradient>
    <linearGradient gradientTransform="matrix(0.0, 0.0237, 0.0286, 0.0, -29.4, 32.4)" gradientUnits="userSpaceOnUse" id="gradient1" spreadMethod="pad" x1="-819.2" x2="819.2">
      <stop offset="0.0" stop-color="#ffffff" stop-opacity="0.0"/>
      <stop offset="1.0" stop-color="#ffffff" stop-opacity="0.8"/>
    </linearGradient>
    <linearGradient gradientTransform="matrix(0.0, 0.0237, -0.0286, 0.0, 29.4, 32.4)" gradientUnits="userSpaceOnUse" id="gradient2" spreadMethod="pad" x1="-819.2" x2="819.2">
      <stop offset="0.0" stop-color="#ffffff" stop-opacity="0.0"/>
      <stop offset="1.0" stop-color="#ffffff" stop-opacity="0.8"/>
    </linearGradient>
    <linearGradient gradientTransform="matrix(0.0, 0.0296, -0.0342, 0.0, -1.1, 41.35)" gradientUnits="userSpaceOnUse" id="gradient3" spreadMethod="pad" x1="-819.2" x2="819.2">
      <stop offset="0.0" stop-color="#ffffff" stop-opacity="0.0"/>
      <stop offset="1.0" stop-color="#ffffff" stop-opacity="0.8"/>
    </linearGradient>
  </defs>
</svg>
