<?xml version="1.0" encoding="UTF-8" standalone="no"?>
<svg xmlns:xlink="http://www.w3.org/1999/xlink" height="21.8px" width="14.1px" xmlns="http://www.w3.org/2000/svg">
  <g transform="matrix(1.0, 0.0, 0.0, 1.0, 2.9, 1.0)">
    <path d="M8.4 19.0 L8.3 19.05 Q6.5 19.8 4.1 19.8 1.6 19.8 -0.15 19.0 -1.75 18.3 -1.9 17.35 L-1.9 17.15 -1.9 2.6 Q-1.9 1.55 -0.15 0.75 1.6 0.0 4.1 0.0 L8.3 0.65 8.4 0.75 Q10.2 1.55 10.2 2.6 L10.2 17.35 Q10.05 18.3 8.4 19.0" fill="#8f8f8f" fill-rule="evenodd" stroke="none"/>
    <path d="M8.4 19.0 L8.3 19.05 Q6.5 19.8 4.1 19.8 1.6 19.8 -0.15 19.0 -1.75 18.3 -1.9 17.35 L-1.9 17.15 -1.9 2.6 Q-1.9 1.55 -0.15 0.75 1.6 0.0 4.1 0.0 L8.3 0.65 8.4 0.75 Q10.2 1.55 10.2 2.6 L10.2 17.35 Q10.05 18.3 8.4 19.0 Z" fill="none" stroke="#333333" stroke-linecap="round" stroke-linejoin="round" stroke-width="2.0"/>
    <path d="M10.2 2.65 L10.2 17.35 Q10.05 18.3 8.4 19.0 L8.3 19.05 Q6.5 19.8 4.1 19.8 1.6 19.8 -0.15 19.0 -1.75 18.3 -1.9 17.35 L-1.9 17.15 -1.9 2.65 Q-1.85 3.7 -0.15 4.45 1.6 5.25 4.1 5.25 6.5 5.25 8.3 4.5 L8.4 4.45 Q10.15 3.7 10.2 2.65" fill="#a3a3a3" fill-rule="evenodd" stroke="none"/>
    <path d="M8.75 2.85 Q8.75 3.6 7.35 4.1 L7.3 4.15 5.45 4.6 4.2 4.65 4.1 4.65 4.0 4.65 3.85 4.65 2.6 4.55 0.85 4.1 Q-0.45 3.6 -0.45 2.85 L-0.45 2.75 Q-0.35 2.1 0.85 1.6 2.2 1.1 4.1 1.1 L7.3 1.55 7.35 1.6 Q8.6 2.1 8.75 2.75 L8.75 2.85" fill="url(#gradient0)" fill-rule="evenodd" stroke="none"/>
    <path d="M-1.9 2.65 L-1.9 2.6 Q-1.9 1.55 -0.15 0.75 1.6 0.0 4.1 0.0 L8.3 0.65 8.4 0.75 Q10.2 1.55 10.2 2.6 L10.2 2.65 Q10.15 3.7 8.4 4.45 L8.3 4.5 Q6.5 5.25 4.1 5.25 1.6 5.25 -0.15 4.45 -1.85 3.7 -1.9 2.65 M8.75 2.85 L8.75 2.75 Q8.6 2.1 7.35 1.6 L7.3 1.55 4.1 1.1 Q2.2 1.1 0.85 1.6 -0.35 2.1 -0.45 2.75 L-0.45 2.85 Q-0.45 3.6 0.85 4.1 L2.6 4.55 3.85 4.65 4.0 4.65 4.1 4.65 4.2 4.65 5.45 4.6 7.3 4.15 7.35 4.1 Q8.75 3.6 8.75 2.85" fill="#926b5a" fill-rule="evenodd" stroke="none"/>
    <path d="M-0.85 4.1 L-0.85 4.35 -0.55 14.75 -0.65 18.75 Q-1.8 18.15 -1.9 17.35 L-1.9 17.15 -1.9 2.65 Q-1.85 3.45 -0.85 4.1 M0.05 5.1 L0.05 4.55 0.95 4.85 Q1.0 8.9 1.4 13.7 L1.4 19.55 0.35 19.2 0.3 14.75 0.05 5.1 M8.3 4.5 L8.4 4.45 Q10.15 3.7 10.2 2.65 L10.2 17.35 Q10.05 18.3 8.4 19.0 L8.3 19.05 Q7.0 19.6 5.35 19.75 L5.35 15.6 5.7 6.4 5.7 5.15 Q7.1 5.0 8.3 4.5" fill="#515151" fill-rule="evenodd" stroke="none"/>
    <path d="M-2.15 12.95 Q0.0 15.35 4.3 15.35 8.65 15.35 10.7 12.95 M-2.15 7.35 Q0.0 9.75 4.3 9.75 8.65 9.75 10.7 7.35" fill="none" stroke="#444444" stroke-linecap="round" stroke-linejoin="round" stroke-width="1.0"/>
  </g>
  <defs>
    <radialGradient cx="0" cy="0" gradientTransform="matrix(-5.0E-4, -0.0065, 0.0114, -9.0E-4, 4.4, 4.65)" gradientUnits="userSpaceOnUse" id="gradient0" r="819.2" spreadMethod="pad">
      <stop offset="0.0" stop-color="#ffffff"/>
      <stop offset="0.19607843137254902" stop-color="#ffd324"/>
      <stop offset="1.0" stop-color="#ff0000"/>
    </radialGradient>
  </defs>
</svg>
