<?xml version="1.0" encoding="UTF-8" standalone="no"?>
<svg xmlns:xlink="http://www.w3.org/1999/xlink" height="64.0px" width="64.0px" xmlns="http://www.w3.org/2000/svg">
  <g transform="matrix(1.0, 0.0, 0.0, 1.0, -0.2, -0.1)">
    <path d="M64.2 64.1 L0.2 64.1 0.2 0.1 64.2 0.1 64.2 64.1" fill="#695b10" fill-opacity="0.0" fill-rule="evenodd" stroke="none"/>
    <path d="M43.15 58.1 Q42.7 58.1 42.4 58.4 42.1 58.7 42.1 59.15 42.1 59.6 42.4 59.9 L43.2 60.2 43.3 60.2 43.65 60.15 44.05 60.05 44.0 60.05 45.5 59.75 46.2 59.3 46.35 58.5 45.95 57.8 45.15 57.65 43.35 58.05 43.3 58.05 43.15 58.1 M48.25 57.45 L47.45 57.45 Q47.0 57.45 46.7 57.75 46.4 58.05 46.4 58.5 46.4 58.95 46.7 59.25 47.0 59.55 47.45 59.55 L48.25 59.55 49.6 59.6 50.35 59.35 50.75 58.65 Q50.8 58.2 50.5 57.9 50.2 57.55 49.8 57.5 L48.25 57.45 M54.85 58.75 L54.8 57.95 54.2 57.45 53.35 57.5 52.7 57.85 52.3 57.85 52.0 57.8 Q51.55 57.75 51.2 58.0 50.85 58.25 50.8 58.65 50.7 59.1 50.95 59.45 L51.65 59.9 52.05 59.95 52.25 59.95 53.05 59.95 53.65 59.8 Q53.95 59.55 54.35 59.4 L54.85 58.75 M58.65 54.15 L58.7 53.7 58.4 51.85 58.45 51.95 58.4 51.65 58.0 51.0 57.2 50.8 Q56.75 50.9 56.5 51.25 56.25 51.6 56.3 52.0 L56.35 52.25 56.35 52.3 56.55 53.7 56.55 53.95 Q56.5 54.35 56.8 54.7 L57.15 55.0 56.7 55.05 Q56.3 55.2 56.1 55.6 L55.4 56.8 55.0 57.2 Q54.75 57.55 54.85 58.0 L55.35 58.65 56.15 58.75 56.3 58.7 56.85 58.35 58.05 56.5 58.05 55.7 57.55 55.1 57.5 55.1 58.3 54.85 58.65 54.15 M56.9 46.65 Q56.55 46.95 56.5 47.35 L56.4 47.9 56.4 47.85 56.2 49.6 Q56.15 50.05 56.4 50.35 L57.1 50.75 57.9 50.55 58.3 49.85 58.5 48.2 58.5 48.15 58.6 47.65 58.4 46.85 Q58.1 46.5 57.7 46.45 L56.9 46.65 M56.45 39.55 L56.55 41.2 Q56.55 41.6 56.9 41.9 L57.65 42.2 Q57.2 42.25 56.9 42.55 56.6 42.9 56.65 43.35 L56.7 43.8 56.6 45.35 56.9 46.1 57.6 46.45 58.4 46.15 58.75 45.45 58.8 43.85 58.8 43.7 58.75 43.2 Q58.75 42.75 58.4 42.45 L57.7 42.2 58.4 41.85 58.65 41.1 58.6 39.5 58.6 39.05 Q58.6 38.6 58.25 38.3 57.95 37.95 57.5 37.95 57.1 37.95 56.75 38.3 56.45 38.6 56.45 39.05 L56.45 39.5 56.45 39.55 M58.55 21.05 Q58.1 21.05 57.8 21.4 57.5 21.7 57.5 22.1 L57.5 24.25 57.8 25.0 58.55 25.3 Q58.1 25.3 57.8 25.6 57.5 25.9 57.5 26.35 L57.5 26.7 Q57.2 27.3 57.05 28.05 L57.05 28.2 57.05 28.45 Q57.05 28.85 57.35 29.2 57.65 29.45 58.05 29.5 L57.3 29.8 Q57.0 30.1 57.0 30.55 L56.95 31.9 56.95 32.65 Q56.95 33.1 57.25 33.4 L57.8 33.75 Q57.45 33.75 57.15 34.0 56.85 34.3 56.8 34.7 L56.7 35.7 56.6 36.75 Q56.55 37.2 56.85 37.55 57.1 37.9 57.55 37.95 L58.35 37.7 58.7 37.0 58.8 35.9 58.9 34.9 58.65 34.1 Q58.4 33.8 58.05 33.75 L58.7 33.45 59.05 32.75 59.1 31.95 59.1 31.9 59.1 30.6 Q59.15 30.15 58.8 29.8 58.55 29.5 58.1 29.5 L58.85 29.2 59.15 28.45 59.15 28.3 59.45 27.5 59.6 26.95 59.6 26.35 59.3 25.6 Q59.0 25.3 58.6 25.3 L59.3 25.0 59.6 24.25 59.6 22.1 59.3 21.4 Q59.0 21.05 58.55 21.05 M57.3 12.9 Q57.05 13.25 57.1 13.65 L57.35 15.85 57.75 16.55 58.15 16.75 57.7 17.05 Q57.4 17.35 57.4 17.8 L57.4 17.9 57.3 19.95 Q57.3 20.4 57.6 20.7 57.9 21.0 58.35 21.0 58.8 21.0 59.1 20.7 L59.4 19.95 59.5 18.05 59.5 18.0 59.5 17.8 Q59.5 17.35 59.15 17.05 L58.65 16.75 59.25 16.35 Q59.55 16.0 59.45 15.6 L59.2 13.4 58.8 12.7 58.05 12.5 Q57.6 12.55 57.3 12.9 M57.65 9.35 L57.6 9.35 57.45 9.0 56.85 8.5 56.1 8.6 56.5 7.85 56.2 7.1 55.8 6.7 55.4 6.4 53.9 6.0 53.75 5.95 52.95 6.05 52.55 6.5 52.25 5.95 Q51.95 5.65 51.5 5.65 L49.4 5.65 Q48.95 5.65 48.65 5.95 48.35 6.25 48.35 6.7 48.35 7.15 48.65 7.45 48.95 7.75 49.4 7.75 L51.5 7.75 52.25 7.45 52.45 7.2 52.6 7.5 53.25 8.0 53.35 8.05 54.5 8.35 54.65 8.5 Q54.95 8.8 55.35 8.85 L55.85 8.75 55.5 9.25 Q55.4 9.7 55.65 10.05 L55.75 10.3 56.5 11.9 Q56.65 12.3 57.05 12.5 L57.85 12.5 58.45 11.9 58.45 11.1 57.65 9.35 M44.4 6.8 Q44.1 7.1 44.1 7.55 44.1 8.0 44.45 8.3 44.75 8.6 45.2 8.55 L47.65 8.2 48.25 7.65 Q48.45 7.25 48.3 6.85 L47.8 6.25 46.95 6.2 45.1 6.45 Q44.7 6.45 44.4 6.8 M40.8 6.3 Q40.35 6.3 40.05 6.65 39.75 6.95 39.75 7.4 39.75 7.8 40.05 8.1 L40.8 8.4 42.9 8.45 43.65 8.2 44.0 7.5 Q44.05 7.05 43.75 6.7 43.45 6.4 43.0 6.35 L40.8 6.3 M28.7 57.8 L26.55 58.4 Q26.15 58.55 25.95 58.95 L25.8 59.3 25.5 58.7 Q25.2 58.4 24.75 58.4 L22.65 58.4 Q22.2 58.4 21.9 58.7 21.6 59.0 21.6 59.45 L21.3 58.7 20.6 58.4 18.85 58.05 18.65 58.0 18.1 58.1 Q17.7 58.25 17.45 58.65 L17.4 58.9 17.25 58.7 Q16.95 58.4 16.5 58.4 L14.35 58.4 Q13.95 58.4 13.6 58.7 13.3 59.0 13.3 59.45 L13.0 58.7 Q12.7 58.4 12.25 58.4 L11.55 58.4 11.5 58.35 11.55 58.35 10.7 57.95 9.9 57.85 9.25 58.35 Q9.05 58.7 9.15 59.15 L9.7 59.8 10.55 60.25 10.75 60.35 11.3 60.5 12.25 60.5 Q12.7 60.5 13.0 60.2 L13.3 59.45 Q13.3 59.9 13.6 60.2 13.95 60.5 14.35 60.5 L16.5 60.5 17.25 60.2 17.55 59.65 17.95 60.05 18.6 60.15 20.25 60.5 20.45 60.5 20.55 60.5 Q21.0 60.5 21.3 60.2 L21.6 59.45 Q21.6 59.9 21.9 60.2 L22.65 60.5 24.75 60.5 Q25.2 60.5 25.5 60.2 L25.8 59.55 25.85 59.75 Q26.0 60.15 26.4 60.35 L27.2 60.4 29.2 59.85 29.85 59.4 30.0 58.9 30.25 59.3 31.0 59.6 31.55 59.45 Q31.55 59.9 31.85 60.2 L32.6 60.5 33.35 60.2 33.7 59.55 Q33.75 59.95 34.1 60.2 L34.85 60.4 37.0 60.15 Q37.45 60.1 37.7 59.75 L37.9 59.35 38.15 59.85 Q38.45 60.15 38.9 60.15 L41.05 60.15 41.75 59.85 42.1 59.05 Q42.1 58.65 41.75 58.35 41.45 58.0 41.05 58.0 L38.9 58.0 Q38.45 58.0 38.15 58.35 L37.9 58.8 Q37.8 58.45 37.5 58.25 L36.75 58.05 34.55 58.3 Q34.15 58.35 33.85 58.75 L33.65 59.2 Q33.65 57.4 30.95 57.45 30.55 57.5 30.2 57.8 30.0 58.05 29.95 58.45 L29.5 57.95 28.7 57.8 M6.7 35.05 Q6.4 34.7 5.95 34.7 5.5 34.7 5.2 35.05 4.9 35.35 4.9 35.8 L4.9 37.0 4.9 37.05 4.95 38.0 Q5.0 38.45 5.3 38.7 L6.0 38.95 Q5.6 39.05 5.35 39.35 5.1 39.7 5.15 40.15 L5.35 42.2 Q5.35 42.6 5.7 42.9 L6.05 43.15 Q5.85 43.2 5.7 43.35 5.35 43.6 5.35 44.05 L4.95 45.85 4.9 46.15 4.9 46.2 Q4.9 46.65 5.2 47.0 5.5 47.3 5.95 47.3 5.5 47.3 5.2 47.6 4.9 47.9 4.9 48.35 L4.9 49.85 4.95 50.15 5.1 50.7 5.55 51.35 6.05 51.55 Q5.85 51.6 5.7 51.75 5.4 52.05 5.4 52.5 L5.4 52.65 5.15 54.55 5.4 55.3 5.95 55.65 5.7 55.85 Q5.4 56.2 5.45 56.65 5.45 57.1 5.8 57.35 L7.6 58.65 8.4 58.8 Q8.8 58.7 9.05 58.3 9.3 57.95 9.15 57.5 9.1 57.1 8.7 56.85 L7.2 55.75 6.75 55.55 6.9 55.45 Q7.25 55.2 7.25 54.75 L7.5 52.8 7.5 52.7 7.5 52.5 7.2 51.75 6.5 51.45 7.0 51.05 7.15 50.25 7.0 49.7 7.0 48.35 6.7 47.6 Q6.4 47.3 6.0 47.3 6.4 47.3 6.7 47.0 L7.0 46.35 7.45 44.25 Q7.5 43.8 7.2 43.45 L6.7 43.15 7.2 42.8 7.45 42.05 7.25 39.9 6.85 39.2 6.2 38.95 6.8 38.6 7.05 37.85 7.0 36.95 7.0 35.8 6.7 35.05 M28.35 6.3 Q27.95 6.25 27.55 6.5 L27.15 7.2 27.15 7.1 26.85 6.35 Q26.55 6.0 26.1 6.0 L24.0 6.0 Q23.55 6.0 23.2 6.35 22.9 6.65 22.9 7.1 22.9 7.5 23.2 7.85 L24.0 8.15 26.1 8.15 26.85 7.85 27.15 7.3 Q27.1 7.65 27.35 8.0 L28.05 8.4 30.2 8.7 31.0 8.45 31.3 7.95 31.55 8.45 Q31.85 8.8 32.3 8.8 L34.45 8.9 35.2 8.65 35.55 7.9 Q35.55 8.3 35.85 8.65 36.15 8.95 36.6 8.95 L37.75 8.95 38.9 8.85 39.55 8.4 39.75 7.6 39.3 6.95 38.55 6.75 37.75 6.8 36.6 6.8 Q36.15 6.8 35.85 7.15 35.55 7.45 35.55 7.85 L35.25 7.15 Q34.95 6.8 34.5 6.8 L32.4 6.7 Q32.0 6.7 31.65 7.0 L31.35 7.45 31.1 6.95 Q30.85 6.6 30.4 6.6 L28.35 6.3 M13.55 5.8 L11.3 6.05 10.65 6.5 Q10.4 6.85 10.45 7.25 L10.2 7.0 9.4 6.8 9.35 6.8 Q9.05 6.8 8.8 6.95 L8.3 7.2 7.95 7.4 7.15 8.0 Q6.8 8.25 6.75 8.7 L6.95 9.4 6.8 9.35 6.0 9.4 5.5 10.0 5.45 10.15 5.4 10.3 5.2 11.05 5.15 11.25 5.15 11.65 5.15 11.75 5.2 12.7 Q5.25 13.1 5.6 13.4 L6.1 13.65 5.75 13.85 Q5.4 14.1 5.4 14.55 L5.2 16.65 Q5.15 17.1 5.45 17.45 L6.05 17.8 Q5.7 17.8 5.4 18.05 5.05 18.35 5.05 18.8 L4.9 20.95 Q4.9 21.4 5.15 21.7 5.45 22.0 5.85 22.05 5.45 22.1 5.15 22.45 4.9 22.8 4.95 23.25 L5.2 24.45 5.2 24.5 5.4 25.3 Q5.45 25.75 5.8 26.0 L6.35 26.2 Q6.05 26.25 5.8 26.45 5.5 26.75 5.45 27.2 L5.3 28.9 5.25 29.3 5.5 30.1 5.9 30.35 5.5 30.55 Q5.15 30.75 5.05 31.2 L5.05 31.45 4.9 33.6 Q4.9 34.0 5.2 34.35 5.5 34.65 5.95 34.65 L6.7 34.4 7.05 33.65 7.15 31.65 7.15 31.6 7.0 30.85 6.5 30.45 7.0 30.2 7.4 29.5 7.4 29.1 7.4 29.15 7.6 27.3 7.3 26.55 Q7.05 26.25 6.65 26.2 L7.3 25.8 7.5 25.0 7.25 23.9 7.05 22.95 6.65 22.25 6.15 22.05 6.65 21.8 Q7.0 21.5 7.0 21.05 L7.15 18.95 6.9 18.15 6.3 17.8 6.95 17.55 Q7.3 17.3 7.3 16.85 L7.5 14.75 Q7.55 14.3 7.25 13.95 7.0 13.65 6.6 13.6 L7.1 13.3 7.35 12.5 7.25 11.65 7.25 11.55 7.45 10.85 7.45 10.8 7.5 10.7 Q7.65 10.25 7.4 9.9 L7.35 9.75 7.7 9.9 8.5 9.65 9.15 9.15 9.65 8.9 9.75 8.9 10.4 8.45 Q10.7 8.1 10.6 7.7 L10.6 7.65 10.9 7.95 11.65 8.1 13.65 7.95 14.35 7.6 14.65 7.05 14.9 7.55 Q15.2 7.9 15.6 7.9 L16.7 8.2 16.65 8.2 17.4 8.5 18.2 8.4 18.7 7.8 19.1 8.45 19.9 8.65 20.95 8.4 21.0 8.4 22.1 8.1 Q22.55 8.0 22.75 7.6 23.0 7.25 22.85 6.85 L22.4 6.2 21.55 6.05 20.45 6.35 20.5 6.35 19.6 6.55 Q19.15 6.6 18.9 6.95 L18.75 7.25 18.65 7.0 18.0 6.5 17.6 6.3 Q16.7 5.9 15.75 5.8 15.35 5.75 15.0 6.05 L14.65 6.7 14.3 6.1 Q14.0 5.8 13.55 5.8" fill="#cdcdcd" fill-rule="evenodd" stroke="none"/>
    <path d="M13.55 5.8 Q14.0 5.8 14.3 6.1 L14.65 6.7 15.0 6.05 Q15.35 5.75 15.75 5.8 16.7 5.9 17.6 6.3 L18.0 6.5 18.65 7.0 18.75 7.25 18.9 6.95 Q19.15 6.6 19.6 6.55 L20.5 6.35 20.45 6.35 21.55 6.05 22.4 6.2 22.85 6.85 Q23.0 7.25 22.75 7.6 22.55 8.0 22.1 8.1 L21.0 8.4 20.95 8.4 19.9 8.65 19.1 8.45 18.7 7.8 18.2 8.4 17.4 8.5 16.65 8.2 16.7 8.2 15.6 7.9 Q15.2 7.9 14.9 7.55 L14.65 7.05 14.35 7.6 13.65 7.95 11.65 8.1 10.9 7.95 10.6 7.65 10.6 7.7 Q10.7 8.1 10.4 8.45 L9.75 8.9 9.65 8.9 9.15 9.15 8.5 9.65 7.7 9.9 7.35 9.75 7.4 9.9 Q7.65 10.25 7.5 10.7 L7.45 10.8 7.45 10.85 7.25 11.55 7.25 11.65 7.35 12.5 7.1 13.3 6.6 13.6 Q7.0 13.65 7.25 13.95 7.55 14.3 7.5 14.75 L7.3 16.85 Q7.3 17.3 6.95 17.55 L6.3 17.8 6.9 18.15 7.15 18.95 7.0 21.05 Q7.0 21.5 6.65 21.8 L6.15 22.05 6.65 22.25 7.05 22.95 7.25 23.9 7.5 25.0 7.3 25.8 6.65 26.2 Q7.05 26.25 7.3 26.55 L7.6 27.3 7.4 29.15 7.4 29.1 7.4 29.5 7.0 30.2 6.5 30.45 7.0 30.85 7.15 31.6 7.15 31.65 7.05 33.65 6.7 34.4 5.95 34.65 Q5.5 34.65 5.2 34.35 4.9 34.0 4.9 33.6 L5.05 31.45 5.05 31.2 Q5.15 30.75 5.5 30.55 L5.9 30.35 5.5 30.1 5.25 29.3 5.3 28.9 5.45 27.2 Q5.5 26.75 5.8 26.45 6.05 26.25 6.35 26.2 L5.8 26.0 Q5.45 25.75 5.4 25.3 L5.2 24.5 5.2 24.45 4.95 23.25 Q4.9 22.8 5.15 22.45 5.45 22.1 5.85 22.05 5.45 22.0 5.15 21.7 4.9 21.4 4.9 20.95 L5.05 18.8 Q5.05 18.35 5.4 18.05 5.7 17.8 6.05 17.8 L5.45 17.45 Q5.15 17.1 5.2 16.65 L5.4 14.55 Q5.4 14.1 5.75 13.85 L6.1 13.65 5.6 13.4 Q5.25 13.1 5.2 12.7 L5.15 11.75 5.15 11.65 5.15 11.25 5.2 11.05 5.4 10.3 5.45 10.15 5.5 10.0 6.0 9.4 6.8 9.35 6.95 9.4 6.75 8.7 Q6.8 8.25 7.15 8.0 L7.95 7.4 8.3 7.2 8.8 6.95 Q9.05 6.8 9.35 6.8 L9.4 6.8 10.2 7.0 10.45 7.25 Q10.4 6.85 10.65 6.5 L11.3 6.05 13.55 5.8 M28.35 6.3 L30.4 6.6 Q30.85 6.6 31.1 6.95 L31.35 7.45 31.65 7.0 Q32.0 6.7 32.4 6.7 L34.5 6.8 Q34.95 6.8 35.25 7.15 L35.55 7.85 Q35.55 7.45 35.85 7.15 36.15 6.8 36.6 6.8 L37.75 6.8 38.55 6.75 39.3 6.95 39.75 7.6 39.55 8.4 38.9 8.85 37.75 8.95 36.6 8.95 Q36.15 8.95 35.85 8.65 35.55 8.3 35.55 7.9 L35.2 8.65 34.45 8.9 32.3 8.8 Q31.85 8.8 31.55 8.45 L31.3 7.95 31.0 8.45 30.2 8.7 28.05 8.4 27.35 8.0 Q27.1 7.65 27.15 7.3 L26.85 7.85 26.1 8.15 24.0 8.15 23.2 7.85 Q22.9 7.5 22.9 7.1 22.9 6.65 23.2 6.35 23.55 6.0 24.0 6.0 L26.1 6.0 Q26.55 6.0 26.85 6.35 L27.15 7.1 27.15 7.2 27.55 6.5 Q27.95 6.25 28.35 6.3 M6.7 35.05 L7.0 35.8 7.0 36.95 7.05 37.85 6.8 38.6 6.2 38.95 6.85 39.2 7.25 39.9 7.45 42.05 7.2 42.8 6.7 43.15 7.2 43.45 Q7.5 43.8 7.45 44.25 L7.0 46.35 6.7 47.0 Q6.4 47.3 6.0 47.3 6.4 47.3 6.7 47.6 L7.0 48.35 7.0 49.7 7.15 50.25 7.0 51.05 6.5 51.45 7.2 51.75 7.5 52.5 7.5 52.7 7.5 52.8 7.25 54.75 Q7.25 55.2 6.9 55.45 L6.75 55.55 7.2 55.75 8.7 56.85 Q9.1 57.1 9.15 57.5 9.3 57.95 9.05 58.3 8.8 58.7 8.4 58.8 L7.6 58.65 5.8 57.35 Q5.45 57.1 5.45 56.65 5.4 56.2 5.7 55.85 L5.95 55.65 5.4 55.3 5.15 54.55 5.4 52.65 5.4 52.5 Q5.4 52.05 5.7 51.75 5.85 51.6 6.05 51.55 L5.55 51.35 5.1 50.7 4.95 50.15 4.9 49.85 4.9 48.35 Q4.9 47.9 5.2 47.6 5.5 47.3 5.95 47.3 5.5 47.3 5.2 47.0 4.9 46.65 4.9 46.2 L4.9 46.15 4.95 45.85 5.35 44.05 Q5.35 43.6 5.7 43.35 5.85 43.2 6.05 43.15 L5.7 42.9 Q5.35 42.6 5.35 42.2 L5.15 40.15 Q5.1 39.7 5.35 39.35 5.6 39.05 6.0 38.95 L5.3 38.7 Q5.0 38.45 4.95 38.0 L4.9 37.05 4.9 37.0 4.9 35.8 Q4.9 35.35 5.2 35.05 5.5 34.7 5.95 34.7 6.4 34.7 6.7 35.05 M28.7 57.8 L29.5 57.95 29.95 58.45 Q30.0 58.05 30.2 57.8 30.55 57.5 30.95 57.45 33.65 57.4 33.65 59.2 L33.85 58.75 Q34.15 58.35 34.55 58.3 L36.75 58.05 37.5 58.25 Q37.8 58.45 37.9 58.8 L38.15 58.35 Q38.45 58.0 38.9 58.0 L41.05 58.0 Q41.45 58.0 41.75 58.35 42.1 58.65 42.1 59.05 L41.75 59.85 41.05 60.15 38.9 60.15 Q38.45 60.15 38.15 59.85 L37.9 59.35 37.7 59.75 Q37.45 60.1 37.0 60.15 L34.85 60.4 34.1 60.2 Q33.75 59.95 33.7 59.55 L33.35 60.2 32.6 60.5 31.85 60.2 Q31.55 59.9 31.55 59.45 L31.0 59.6 30.25 59.3 30.0 58.9 29.85 59.4 29.2 59.85 27.2 60.4 26.4 60.35 Q26.0 60.15 25.85 59.75 L25.8 59.55 25.5 60.2 Q25.2 60.5 24.75 60.5 L22.65 60.5 21.9 60.2 Q21.6 59.9 21.6 59.45 L21.3 60.2 Q21.0 60.5 20.55 60.5 L20.45 60.5 20.25 60.5 18.6 60.15 17.95 60.05 17.55 59.65 17.25 60.2 16.5 60.5 14.35 60.5 Q13.95 60.5 13.6 60.2 13.3 59.9 13.3 59.45 L13.0 60.2 Q12.7 60.5 12.25 60.5 L11.3 60.5 10.75 60.35 10.55 60.25 9.7 59.8 9.15 59.15 Q9.05 58.7 9.25 58.35 L9.9 57.85 10.7 57.95 11.55 58.35 11.5 58.35 11.55 58.4 12.25 58.4 Q12.7 58.4 13.0 58.7 L13.3 59.45 Q13.3 59.0 13.6 58.7 13.95 58.4 14.35 58.4 L16.5 58.4 Q16.95 58.4 17.25 58.7 L17.4 58.9 17.45 58.65 Q17.7 58.25 18.1 58.1 L18.65 58.0 18.85 58.05 20.6 58.4 21.3 58.7 21.6 59.45 Q21.6 59.0 21.9 58.7 22.2 58.4 22.65 58.4 L24.75 58.4 Q25.2 58.4 25.5 58.7 L25.8 59.3 25.95 58.95 Q26.15 58.55 26.55 58.4 L28.7 57.8 M40.8 6.3 L43.0 6.35 Q43.45 6.4 43.75 6.7 44.05 7.05 44.0 7.5 L43.65 8.2 42.9 8.45 40.8 8.4 40.05 8.1 Q39.75 7.8 39.75 7.4 39.75 6.95 40.05 6.65 40.35 6.3 40.8 6.3 M44.4 6.8 Q44.7 6.45 45.1 6.45 L46.95 6.2 47.8 6.25 48.3 6.85 Q48.45 7.25 48.25 7.65 L47.65 8.2 45.2 8.55 Q44.75 8.6 44.45 8.3 44.1 8.0 44.1 7.55 44.1 7.1 44.4 6.8 M57.65 9.35 L58.45 11.1 58.45 11.9 57.85 12.5 57.05 12.5 Q56.65 12.3 56.5 11.9 L55.75 10.3 55.65 10.05 Q55.4 9.7 55.5 9.25 L55.85 8.75 55.35 8.85 Q54.95 8.8 54.65 8.5 L54.5 8.35 53.35 8.05 53.25 8.0 52.6 7.5 52.45 7.2 52.25 7.45 51.5 7.75 49.4 7.75 Q48.95 7.75 48.65 7.45 48.35 7.15 48.35 6.7 48.35 6.25 48.65 5.95 48.95 5.65 49.4 5.65 L51.5 5.65 Q51.95 5.65 52.25 5.95 L52.55 6.5 52.95 6.05 53.75 5.95 53.9 6.0 55.4 6.4 55.8 6.7 56.2 7.1 56.5 7.85 56.1 8.6 56.85 8.5 57.45 9.0 57.6 9.35 57.65 9.35 M57.3 12.9 Q57.6 12.55 58.05 12.5 L58.8 12.7 59.2 13.4 59.45 15.6 Q59.55 16.0 59.25 16.35 L58.65 16.75 59.15 17.05 Q59.5 17.35 59.5 17.8 L59.5 18.0 59.5 18.05 59.4 19.95 59.1 20.7 Q58.8 21.0 58.35 21.0 57.9 21.0 57.6 20.7 57.3 20.4 57.3 19.95 L57.4 17.9 57.4 17.8 Q57.4 17.35 57.7 17.05 L58.15 16.75 57.75 16.55 57.35 15.85 57.1 13.65 Q57.05 13.25 57.3 12.9 M58.55 21.05 Q59.0 21.05 59.3 21.4 L59.6 22.1 59.6 24.25 59.3 25.0 58.6 25.3 Q59.0 25.3 59.3 25.6 L59.6 26.35 59.6 26.95 59.45 27.5 59.15 28.3 59.15 28.45 58.85 29.2 58.1 29.5 Q58.55 29.5 58.8 29.8 59.15 30.15 59.1 30.6 L59.1 31.9 59.1 31.95 59.05 32.75 58.7 33.45 58.05 33.75 Q58.4 33.8 58.65 34.1 L58.9 34.9 58.8 35.9 58.7 37.0 58.35 37.7 57.55 37.95 Q57.1 37.9 56.85 37.55 56.55 37.2 56.6 36.75 L56.7 35.7 56.8 34.7 Q56.85 34.3 57.15 34.0 57.45 33.75 57.8 33.75 L57.25 33.4 Q56.95 33.1 56.95 32.65 L56.95 31.9 57.0 30.55 Q57.0 30.1 57.3 29.8 L58.05 29.5 Q57.65 29.45 57.35 29.2 57.05 28.85 57.05 28.45 L57.05 28.2 57.05 28.05 Q57.2 27.3 57.5 26.7 L57.5 26.35 Q57.5 25.9 57.8 25.6 58.1 25.3 58.55 25.3 L57.8 25.0 57.5 24.25 57.5 22.1 Q57.5 21.7 57.8 21.4 58.1 21.05 58.55 21.05 M56.45 39.55 L56.45 39.5 56.45 39.05 Q56.45 38.6 56.75 38.3 57.1 37.95 57.5 37.95 57.95 37.95 58.25 38.3 58.6 38.6 58.6 39.05 L58.6 39.5 58.65 41.1 58.4 41.85 57.7 42.2 58.4 42.45 Q58.75 42.75 58.75 43.2 L58.8 43.7 58.8 43.85 58.75 45.45 58.4 46.15 57.6 46.45 56.9 46.1 56.6 45.35 56.7 43.8 56.65 43.35 Q56.6 42.9 56.9 42.55 57.2 42.25 57.65 42.2 L56.9 41.9 Q56.55 41.6 56.55 41.2 L56.45 39.55 M56.9 46.65 L57.7 46.45 Q58.1 46.5 58.4 46.85 L58.6 47.65 58.5 48.15 58.5 48.2 58.3 49.85 57.9 50.55 57.1 50.75 56.4 50.35 Q56.15 50.05 56.2 49.6 L56.4 47.85 56.4 47.9 56.5 47.35 Q56.55 46.95 56.9 46.65 M58.65 54.15 L58.3 54.85 57.5 55.1 57.55 55.1 58.05 55.7 58.05 56.5 56.85 58.35 56.3 58.7 56.15 58.75 55.35 58.65 54.85 58.0 Q54.75 57.55 55.0 57.2 L55.4 56.8 56.1 55.6 Q56.3 55.2 56.7 55.05 L57.15 55.0 56.8 54.7 Q56.5 54.35 56.55 53.95 L56.55 53.7 56.35 52.3 56.35 52.25 56.3 52.0 Q56.25 51.6 56.5 51.25 56.75 50.9 57.2 50.8 L58.0 51.0 58.4 51.65 58.45 51.95 58.4 51.85 58.7 53.7 58.65 54.15 M54.85 58.75 L54.35 59.4 Q53.95 59.55 53.65 59.8 L53.05 59.95 52.25 59.95 52.05 59.95 51.65 59.9 50.95 59.45 Q50.7 59.1 50.8 58.65 50.85 58.25 51.2 58.0 51.55 57.75 52.0 57.8 L52.3 57.85 52.7 57.85 53.35 57.5 54.2 57.45 54.8 57.95 54.85 58.75 M48.25 57.45 L49.8 57.5 Q50.2 57.55 50.5 57.9 50.8 58.2 50.75 58.65 L50.35 59.35 49.6 59.6 48.25 59.55 47.45 59.55 Q47.0 59.55 46.7 59.25 46.4 58.95 46.4 58.5 46.4 58.05 46.7 57.75 47.0 57.45 47.45 57.45 L48.25 57.45 M43.15 58.1 L43.3 58.05 43.35 58.05 45.15 57.65 45.95 57.8 46.35 58.5 46.2 59.3 45.5 59.75 44.0 60.05 44.05 60.05 43.65 60.15 43.3 60.2 43.2 60.2 42.4 59.9 Q42.1 59.6 42.1 59.15 42.1 58.7 42.4 58.4 42.7 58.1 43.15 58.1" fill="none" stroke="#9a9a9a" stroke-linecap="round" stroke-linejoin="round" stroke-width="3.0"/>
    <path d="M17.15 7.25 L15.4 6.85 10.55 7.35 10.0 7.7 9.35 7.85 8.6 8.2 Q8.3 8.45 7.75 8.85 6.8 9.6 6.45 10.45 L6.2 11.35 6.2 11.65 6.45 14.65 6.2 17.45 5.95 21.35 5.95 22.4 5.95 22.5 6.25 24.2 6.55 26.45 6.35 29.0 6.1 31.55 5.95 34.2 5.95 35.3 5.95 37.0 6.2 40.0 6.45 43.25 Q6.45 44.65 5.95 46.15 L5.95 49.85 6.45 52.7 6.1 56.2 8.3 57.8 11.05 59.3 11.3 59.45 17.95 59.45 Q18.2 59.05 18.65 59.05 L20.45 59.45 26.7 59.45 29.6 58.7 Q32.55 58.15 32.6 59.45 L34.15 59.45 36.85 59.05 42.35 59.05 42.8 59.15 43.3 59.15 43.7 59.05 Q45.35 58.5 48.25 58.5 L52.25 58.9 53.05 58.9 Q53.75 58.4 54.85 58.0 L56.05 57.7 Q57.6 55.65 57.6 53.7 L57.4 52.05 57.15 50.5 57.45 48.0 57.6 46.95 57.75 43.8 57.5 39.5 57.75 35.8 58.05 31.9 58.1 28.2 Q58.2 27.5 58.55 26.95 L58.55 22.1 Q58.25 20.65 58.45 18.0 L58.5 16.4 58.15 13.45 58.15 13.4 57.85 12.45 56.7 9.8 56.05 8.45 55.1 7.45 53.65 7.0 53.1 6.7 48.5 6.7 47.4 7.15 44.5 7.5 43.05 7.4 40.35 7.4 39.45 7.6 37.75 7.85 31.1 7.7 26.55 7.1 21.95 7.1 20.75 7.4 18.75 7.65 Q18.0 7.65 17.15 7.25" fill="#5d3e1c" fill-rule="evenodd" stroke="none"/>
    <path d="M43.15 58.1 Q42.7 58.1 42.4 58.4 42.1 58.7 42.1 59.15 42.1 59.6 42.4 59.9 L43.2 60.2 43.3 60.2 43.65 60.15 44.05 60.05 44.0 60.05 45.5 59.75 46.2 59.3 46.35 58.5 45.95 57.8 45.15 57.65 43.35 58.05 43.3 58.05 43.15 58.1 M48.25 57.45 L47.45 57.45 Q47.0 57.45 46.7 57.75 46.4 58.05 46.4 58.5 46.4 58.95 46.7 59.25 47.0 59.55 47.45 59.55 L48.25 59.55 49.6 59.6 50.35 59.35 50.75 58.65 Q50.8 58.2 50.5 57.9 50.2 57.55 49.8 57.5 L48.25 57.45 M54.85 58.75 L54.8 57.95 54.2 57.45 53.35 57.5 52.7 57.85 52.3 57.85 52.0 57.8 Q51.55 57.75 51.2 58.0 50.85 58.25 50.8 58.65 50.7 59.1 50.95 59.45 L51.65 59.9 52.05 59.95 52.25 59.95 53.05 59.95 53.65 59.8 Q53.95 59.55 54.35 59.4 L54.85 58.75 M58.65 54.15 L58.7 53.7 58.4 51.85 58.45 51.95 58.4 51.65 58.0 51.0 57.2 50.8 Q56.75 50.9 56.5 51.25 56.25 51.6 56.3 52.0 L56.35 52.25 56.35 52.3 56.55 53.7 56.55 53.95 Q56.5 54.35 56.8 54.7 L57.15 55.0 56.7 55.05 Q56.3 55.2 56.1 55.6 L55.4 56.8 55.0 57.2 Q54.75 57.55 54.85 58.0 L55.35 58.65 56.15 58.75 56.3 58.7 56.85 58.35 58.05 56.5 58.05 55.7 57.55 55.1 57.5 55.1 58.3 54.85 58.65 54.15 M56.9 46.65 Q56.55 46.95 56.5 47.35 L56.4 47.9 56.4 47.85 56.2 49.6 Q56.15 50.05 56.4 50.35 L57.1 50.75 57.9 50.55 58.3 49.85 58.5 48.2 58.5 48.15 58.6 47.65 58.4 46.85 Q58.1 46.5 57.7 46.45 L56.9 46.65 M56.45 39.55 L56.55 41.2 Q56.55 41.6 56.9 41.9 L57.65 42.2 Q57.2 42.25 56.9 42.55 56.6 42.9 56.65 43.35 L56.7 43.8 56.6 45.35 56.9 46.1 57.6 46.45 58.4 46.15 58.75 45.45 58.8 43.85 58.8 43.7 58.75 43.2 Q58.75 42.75 58.4 42.45 L57.7 42.2 58.4 41.85 58.65 41.1 58.6 39.5 58.6 39.05 Q58.6 38.6 58.25 38.3 57.95 37.95 57.5 37.95 57.1 37.95 56.75 38.3 56.45 38.6 56.45 39.05 L56.45 39.5 56.45 39.55 M58.55 21.05 Q58.1 21.05 57.8 21.4 57.5 21.7 57.5 22.1 L57.5 24.25 57.8 25.0 58.55 25.3 Q58.1 25.3 57.8 25.6 57.5 25.9 57.5 26.35 L57.5 26.7 Q57.2 27.3 57.05 28.05 L57.05 28.2 57.05 28.45 Q57.05 28.85 57.35 29.2 57.65 29.45 58.05 29.5 L57.3 29.8 Q57.0 30.1 57.0 30.55 L56.95 31.9 56.95 32.65 Q56.95 33.1 57.25 33.4 L57.8 33.75 Q57.45 33.75 57.15 34.0 56.85 34.3 56.8 34.7 L56.7 35.7 56.6 36.75 Q56.55 37.2 56.85 37.55 57.1 37.9 57.55 37.95 L58.35 37.7 58.7 37.0 58.8 35.9 58.9 34.9 58.65 34.1 Q58.4 33.8 58.05 33.75 L58.7 33.45 59.05 32.75 59.1 31.95 59.1 31.9 59.1 30.6 Q59.15 30.15 58.8 29.8 58.55 29.5 58.1 29.5 L58.85 29.2 59.15 28.45 59.15 28.3 59.45 27.5 59.6 26.95 59.6 26.35 59.3 25.6 Q59.0 25.3 58.6 25.3 L59.3 25.0 59.6 24.25 59.6 22.1 59.3 21.4 Q59.0 21.05 58.55 21.05 M57.3 12.9 Q57.05 13.25 57.1 13.65 L57.35 15.85 57.75 16.55 58.15 16.75 57.7 17.05 Q57.4 17.35 57.4 17.8 L57.4 17.9 57.3 19.95 Q57.3 20.4 57.6 20.7 57.9 21.0 58.35 21.0 58.8 21.0 59.1 20.7 L59.4 19.95 59.5 18.05 59.5 18.0 59.5 17.8 Q59.5 17.35 59.15 17.05 L58.65 16.75 59.25 16.35 Q59.55 16.0 59.45 15.6 L59.2 13.4 58.8 12.7 58.05 12.5 Q57.6 12.55 57.3 12.9 M57.65 9.35 L57.6 9.35 57.45 9.0 56.85 8.5 56.1 8.6 56.5 7.85 56.2 7.1 55.8 6.7 55.4 6.4 53.9 6.0 53.75 5.95 52.95 6.05 52.55 6.5 52.25 5.95 Q51.95 5.65 51.5 5.65 L49.4 5.65 Q48.95 5.65 48.65 5.95 48.35 6.25 48.35 6.7 48.35 7.15 48.65 7.45 48.95 7.75 49.4 7.75 L51.5 7.75 52.25 7.45 52.45 7.2 52.6 7.5 53.25 8.0 53.35 8.05 54.5 8.35 54.65 8.5 Q54.95 8.8 55.35 8.85 L55.85 8.75 55.5 9.25 Q55.4 9.7 55.65 10.05 L55.75 10.3 56.5 11.9 Q56.65 12.3 57.05 12.5 L57.85 12.5 58.45 11.9 58.45 11.1 57.65 9.35 M44.4 6.8 Q44.1 7.1 44.1 7.55 44.1 8.0 44.45 8.3 44.75 8.6 45.2 8.55 L47.65 8.2 48.25 7.65 Q48.45 7.25 48.3 6.85 L47.8 6.25 46.95 6.2 45.1 6.45 Q44.7 6.45 44.4 6.8 M40.8 6.3 Q40.35 6.3 40.05 6.65 39.75 6.95 39.75 7.4 39.75 7.8 40.05 8.1 L40.8 8.4 42.9 8.45 43.65 8.2 44.0 7.5 Q44.05 7.05 43.75 6.7 43.45 6.4 43.0 6.35 L40.8 6.3 M28.7 57.8 L26.55 58.4 Q26.15 58.55 25.95 58.95 L25.8 59.3 25.5 58.7 Q25.2 58.4 24.75 58.4 L22.65 58.4 Q22.2 58.4 21.9 58.7 21.6 59.0 21.6 59.45 L21.3 58.7 20.6 58.4 18.85 58.05 18.65 58.0 18.1 58.1 Q17.7 58.25 17.45 58.65 L17.4 58.9 17.25 58.7 Q16.95 58.4 16.5 58.4 L14.35 58.4 Q13.95 58.4 13.6 58.7 13.3 59.0 13.3 59.45 L13.0 58.7 Q12.7 58.4 12.25 58.4 L11.55 58.4 11.5 58.35 11.55 58.35 10.7 57.95 9.9 57.85 9.25 58.35 Q9.05 58.7 9.15 59.15 L9.7 59.8 10.55 60.25 10.75 60.35 11.3 60.5 12.25 60.5 Q12.7 60.5 13.0 60.2 L13.3 59.45 Q13.3 59.9 13.6 60.2 13.95 60.5 14.35 60.5 L16.5 60.5 17.25 60.2 17.55 59.65 17.95 60.05 18.6 60.15 20.25 60.5 20.45 60.5 20.55 60.5 Q21.0 60.5 21.3 60.2 L21.6 59.45 Q21.6 59.9 21.9 60.2 L22.65 60.5 24.75 60.5 Q25.2 60.5 25.5 60.2 L25.8 59.55 25.85 59.75 Q26.0 60.15 26.4 60.35 L27.2 60.4 29.2 59.85 29.85 59.4 30.0 58.9 30.25 59.3 31.0 59.6 31.55 59.45 Q31.55 59.9 31.85 60.2 L32.6 60.5 33.35 60.2 33.7 59.55 Q33.75 59.95 34.1 60.2 L34.85 60.4 37.0 60.15 Q37.45 60.1 37.7 59.75 L37.9 59.35 38.15 59.85 Q38.45 60.15 38.9 60.15 L41.05 60.15 41.75 59.85 42.1 59.05 Q42.1 58.65 41.75 58.35 41.45 58.0 41.05 58.0 L38.9 58.0 Q38.45 58.0 38.15 58.35 L37.9 58.8 Q37.8 58.45 37.5 58.25 L36.75 58.05 34.55 58.3 Q34.15 58.35 33.85 58.75 L33.65 59.2 Q33.65 57.4 30.95 57.45 30.55 57.5 30.2 57.8 30.0 58.05 29.95 58.45 L29.5 57.95 28.7 57.8 M6.7 35.05 Q6.4 34.7 5.95 34.7 5.5 34.7 5.2 35.05 4.9 35.35 4.9 35.8 L4.9 37.0 4.9 37.05 4.95 38.0 Q5.0 38.45 5.3 38.7 L6.0 38.95 Q5.6 39.05 5.35 39.35 5.1 39.7 5.15 40.15 L5.35 42.2 Q5.35 42.6 5.7 42.9 L6.05 43.15 Q5.85 43.2 5.7 43.35 5.35 43.6 5.35 44.05 L4.95 45.85 4.9 46.15 4.9 46.2 Q4.9 46.65 5.2 47.0 5.5 47.3 5.95 47.3 5.5 47.3 5.2 47.6 4.9 47.9 4.9 48.35 L4.9 49.85 4.95 50.15 5.1 50.7 5.55 51.35 6.05 51.55 Q5.85 51.6 5.7 51.75 5.4 52.05 5.4 52.5 L5.4 52.65 5.15 54.55 5.4 55.3 5.95 55.65 5.7 55.85 Q5.4 56.2 5.45 56.65 5.45 57.1 5.8 57.35 L7.6 58.65 8.4 58.8 Q8.8 58.7 9.05 58.3 9.3 57.95 9.15 57.5 9.1 57.1 8.7 56.85 L7.2 55.75 6.75 55.55 6.9 55.45 Q7.25 55.2 7.25 54.75 L7.5 52.8 7.5 52.7 7.5 52.5 7.2 51.75 6.5 51.45 7.0 51.05 7.15 50.25 7.0 49.7 7.0 48.35 6.7 47.6 Q6.4 47.3 6.0 47.3 6.4 47.3 6.7 47.0 L7.0 46.35 7.45 44.25 Q7.5 43.8 7.2 43.45 L6.7 43.15 7.2 42.8 7.45 42.05 7.25 39.9 6.85 39.2 6.2 38.95 6.8 38.6 7.05 37.85 7.0 36.95 7.0 35.8 6.7 35.05 M28.35 6.3 Q27.95 6.25 27.55 6.5 L27.15 7.2 27.15 7.1 26.85 6.35 Q26.55 6.0 26.1 6.0 L24.0 6.0 Q23.55 6.0 23.2 6.35 22.9 6.65 22.9 7.1 22.9 7.5 23.2 7.85 L24.0 8.15 26.1 8.15 26.85 7.85 27.15 7.3 Q27.1 7.65 27.35 8.0 L28.05 8.4 30.2 8.7 31.0 8.45 31.3 7.95 31.55 8.45 Q31.85 8.8 32.3 8.8 L34.45 8.9 35.2 8.65 35.55 7.9 Q35.55 8.3 35.85 8.65 36.15 8.95 36.6 8.95 L37.75 8.95 38.9 8.85 39.55 8.4 39.75 7.6 39.3 6.95 38.55 6.75 37.75 6.8 36.6 6.8 Q36.15 6.8 35.85 7.15 35.55 7.45 35.55 7.85 L35.25 7.15 Q34.95 6.8 34.5 6.8 L32.4 6.7 Q32.0 6.7 31.65 7.0 L31.35 7.45 31.1 6.95 Q30.85 6.6 30.4 6.6 L28.35 6.3 M13.55 5.8 L11.3 6.05 10.65 6.5 Q10.4 6.85 10.45 7.25 L10.2 7.0 9.4 6.8 9.35 6.8 Q9.05 6.8 8.8 6.95 L8.3 7.2 7.95 7.4 7.15 8.0 Q6.8 8.25 6.75 8.7 L6.95 9.4 6.8 9.35 6.0 9.4 5.5 10.0 5.45 10.15 5.4 10.3 5.2 11.05 5.15 11.25 5.15 11.65 5.15 11.75 5.2 12.7 Q5.25 13.1 5.6 13.4 L6.1 13.65 5.75 13.85 Q5.4 14.1 5.4 14.55 L5.2 16.65 Q5.15 17.1 5.45 17.45 L6.05 17.8 Q5.7 17.8 5.4 18.05 5.05 18.35 5.05 18.8 L4.9 20.95 Q4.9 21.4 5.15 21.7 5.45 22.0 5.85 22.05 5.45 22.1 5.15 22.45 4.9 22.8 4.95 23.25 L5.2 24.45 5.2 24.5 5.4 25.3 Q5.45 25.75 5.8 26.0 L6.35 26.2 Q6.05 26.25 5.8 26.45 5.5 26.75 5.45 27.2 L5.3 28.9 5.25 29.3 5.5 30.1 5.9 30.35 5.5 30.55 Q5.15 30.75 5.05 31.2 L5.05 31.45 4.9 33.6 Q4.9 34.0 5.2 34.35 5.5 34.65 5.95 34.65 L6.7 34.4 7.05 33.65 7.15 31.65 7.15 31.6 7.0 30.85 6.5 30.45 7.0 30.2 7.4 29.5 7.4 29.1 7.4 29.15 7.6 27.3 7.3 26.55 Q7.05 26.25 6.65 26.2 L7.3 25.8 7.5 25.0 7.25 23.9 7.05 22.95 6.65 22.25 6.15 22.05 6.65 21.8 Q7.0 21.5 7.0 21.05 L7.15 18.95 6.9 18.15 6.3 17.8 6.95 17.55 Q7.3 17.3 7.3 16.85 L7.5 14.75 Q7.55 14.3 7.25 13.95 7.0 13.65 6.6 13.6 L7.1 13.3 7.35 12.5 7.25 11.65 7.25 11.55 7.45 10.85 7.45 10.8 7.5 10.7 Q7.65 10.25 7.4 9.9 L7.35 9.75 7.7 9.9 8.5 9.65 9.15 9.15 9.65 8.9 9.75 8.9 10.4 8.45 Q10.7 8.1 10.6 7.7 L10.6 7.65 10.9 7.95 11.65 8.1 13.65 7.95 14.35 7.6 14.65 7.05 14.9 7.55 Q15.2 7.9 15.6 7.9 L16.7 8.2 16.65 8.2 17.4 8.5 18.2 8.4 18.7 7.8 19.1 8.45 19.9 8.65 20.95 8.4 21.0 8.4 22.1 8.1 Q22.55 8.0 22.75 7.6 23.0 7.25 22.85 6.85 L22.4 6.2 21.55 6.05 20.45 6.35 20.5 6.35 19.6 6.55 Q19.15 6.6 18.9 6.95 L18.75 7.25 18.65 7.0 18.0 6.5 17.6 6.3 Q16.7 5.9 15.75 5.8 15.35 5.75 15.0 6.05 L14.65 6.7 14.3 6.1 Q14.0 5.8 13.55 5.8" fill="#cdcdcd" fill-rule="evenodd" stroke="none"/>
    <path d="M56.0 12.15 L55.75 13.15 Q55.35 13.9 54.5 13.9 54.0 13.9 52.65 12.6 L51.25 12.9 Q50.45 12.9 48.4 11.55 46.35 10.15 43.85 10.15 41.8 10.15 39.95 10.95 38.15 11.75 34.25 11.75 L26.65 11.15 Q23.55 10.55 22.65 9.75 L19.25 9.75 Q15.55 9.75 9.25 11.6 8.7 11.6 8.45 11.05 L8.4 11.0 Q8.25 11.4 8.25 10.75 L8.3 10.45 8.25 10.35 Q8.25 9.75 9.05 9.2 9.7 8.45 10.9 7.65 13.95 5.65 17.5 5.9 L17.5 5.75 24.25 5.75 24.3 5.8 30.95 5.4 45.5 6.15 48.0 5.9 Q52.9 5.9 54.95 8.85 56.0 10.45 56.0 12.15" fill="#5d3e1c" fill-rule="evenodd" stroke="none"/>
    <path d="M53.85 9.35 L53.85 9.4 54.1 12.0 54.1 13.35 Q53.9 15.7 54.15 16.95 L54.15 21.15 Q53.85 21.65 53.8 22.25 L53.75 25.45 53.5 28.85 53.3 32.1 53.35 38.6 53.25 39.5 53.0 41.65 53.2 43.0 53.35 44.45 Q53.35 46.15 52.1 47.95 L51.1 48.2 Q50.15 48.55 49.6 49.0 L48.9 49.0 45.55 48.65 41.8 49.1 41.45 49.2 41.05 49.2 40.65 49.1 36.05 49.1 33.8 49.45 32.55 49.45 Q32.5 48.35 30.05 48.8 L27.6 49.45 22.4 49.45 20.9 49.1 Q20.5 49.1 20.3 49.45 L14.75 49.45 14.55 49.35 12.25 48.0 10.45 46.65 10.75 43.6 10.3 41.1 10.3 37.9 10.75 35.35 10.5 32.55 10.3 29.9 10.3 28.45 10.3 27.5 10.45 25.15 10.65 22.95 10.8 20.75 10.55 18.75 10.3 17.3 10.3 17.2 10.3 16.3 10.5 12.9 10.75 10.45 10.5 7.85 10.5 7.6 10.6 7.35 Q11.05 7.1 12.0 7.0 14.6 5.7 17.5 5.9 L17.5 5.75 24.25 5.75 24.3 5.8 30.95 5.4 45.5 6.15 48.0 5.9 Q50.55 5.9 52.35 6.7 L52.8 6.7 53.6 8.55 53.85 9.35" fill="#694823" fill-rule="evenodd" stroke="none"/>
    <path d="M42.4 11.25 L41.75 11.9 41.0 11.2 Q41.75 11.3 41.75 10.5 L42.4 11.25 M49.95 21.95 L50.75 22.0 50.85 22.4 50.75 23.1 50.25 23.25 49.6 22.4 Q49.6 22.0 49.95 21.95 M41.15 17.65 L40.9 19.15 40.25 19.35 Q39.5 18.75 39.5 18.45 L39.8 17.85 Q40.2 17.4 40.85 17.25 L41.15 17.65 M49.4 12.4 Q49.4 11.45 50.85 11.75 L51.0 12.4 50.9 13.1 50.25 13.25 49.4 12.4 M46.25 19.75 Q45.9 19.6 45.9 19.25 L46.5 19.4 46.25 19.75 M52.35 28.5 Q52.25 28.75 51.75 28.75 51.6 28.6 51.6 28.25 52.15 28.25 52.35 28.5 M44.25 32.25 L44.9 33.0 44.25 33.65 43.5 32.95 Q44.25 33.05 44.25 32.25 M43.0 28.0 L42.5 27.65 Q42.5 27.15 43.0 27.0 L43.5 27.5 43.0 28.0 M50.5 39.35 L51.1 39.85 50.9 40.4 50.5 40.6 49.9 40.25 49.85 39.9 Q49.85 39.5 50.1 39.4 L50.5 39.35 M49.75 45.15 Q49.75 45.6 49.25 45.75 L48.8 45.65 Q48.65 45.55 48.65 45.15 L48.85 44.7 49.25 44.65 49.75 45.15 M34.7 9.1 L34.1 9.35 33.6 9.25 33.4 9.1 33.35 8.65 Q33.35 8.15 33.75 7.85 34.2 7.45 35.0 8.25 L34.7 9.1 M27.5 11.4 L27.6 11.55 27.65 12.0 27.35 12.45 26.75 13.0 26.0 12.3 Q26.0 11.7 26.15 11.5 L27.5 11.4 M25.0 16.65 Q25.0 17.1 24.5 17.25 L24.05 17.15 23.9 16.65 24.1 16.2 24.5 16.15 25.0 16.65 M30.75 16.25 Q30.6 16.1 30.6 15.75 31.15 15.75 31.35 16.0 31.25 16.25 30.75 16.25 M18.1 9.25 L18.0 9.4 17.85 9.4 17.85 9.5 17.5 9.75 17.15 9.65 17.1 9.3 Q17.1 8.9 17.6 8.9 L17.75 9.1 18.1 9.25 M14.25 13.1 L14.65 13.2 14.85 13.65 14.5 14.5 13.85 15.0 13.35 14.9 13.1 14.15 Q13.1 14.05 13.45 13.7 L14.25 13.1 M14.45 23.45 L14.35 23.0 14.85 23.05 15.5 23.5 15.0 23.85 14.45 23.45 M15.3 30.3 L14.75 30.5 Q13.65 30.05 13.25 29.65 L13.25 29.1 14.5 29.4 15.5 30.0 15.3 30.3 M16.35 37.0 L16.0 37.0 15.9 36.25 16.5 36.4 16.35 37.0 M19.45 45.45 L20.9 45.35 21.0 45.5 21.1 46.0 Q21.1 46.75 19.75 47.0 L19.0 46.3 Q19.0 45.8 19.45 45.45 M13.6 37.5 Q13.7 37.0 14.5 37.1 L14.6 37.25 Q14.5 37.55 14.0 37.75 L13.6 37.5 M34.0 27.1 L33.5 27.25 Q33.05 27.25 32.85 26.75 L32.75 26.4 Q32.75 25.85 33.25 25.65 33.8 25.45 34.15 26.4 L34.0 27.1 M30.5 36.65 Q29.5 36.65 29.5 35.8 29.5 34.85 30.5 34.8 31.5 34.8 31.5 35.75 L31.1 36.4 30.5 36.65 M28.25 26.6 Q27.35 26.6 27.35 25.7 L27.55 25.1 29.1 25.0 29.25 25.65 29.15 26.35 28.25 26.6 M21.0 27.5 L21.5 28.0 21.0 28.5 20.5 28.15 Q20.5 27.65 21.0 27.5 M28.5 41.25 L28.0 41.75 27.5 41.4 Q27.5 40.9 28.0 40.75 L28.5 41.25 M36.4 40.15 L36.15 40.75 35.75 40.9 35.0 40.15 Q35.0 39.05 36.25 39.4 L36.4 40.15 M39.0 48.0 Q38.85 47.85 38.85 47.5 39.4 47.5 39.6 47.75 39.5 48.0 39.0 48.0 M33.0 51.15 L32.9 51.75 32.25 52.0 31.8 51.85 Q31.65 51.75 31.65 51.3 L31.75 50.75 32.75 50.75 33.0 51.15 M40.1 54.65 Q40.55 54.3 41.15 54.5 L41.25 54.7 41.35 55.15 41.25 55.65 40.5 55.9 39.75 55.2 Q39.75 54.95 40.1 54.65 M24.05 52.0 L23.5 52.65 Q22.9 52.5 22.8 52.15 L22.75 51.6 Q22.75 50.8 23.5 50.7 24.25 50.6 24.25 51.55 L24.05 52.0 M12.35 51.4 L12.55 51.5 12.6 51.85 12.5 52.35 12.0 52.6 11.55 52.45 11.35 51.9 11.35 51.55 11.5 51.4 12.35 51.4 M52.5 53.4 L52.4 54.1 51.5 54.35 Q50.6 54.35 50.6 53.45 L50.8 52.85 52.35 52.75 52.5 53.4 M45.15 50.5 L44.75 50.9 44.25 50.6 Q44.25 50.2 44.75 50.0 L45.15 50.5" fill="#956531" fill-rule="evenodd" stroke="none"/>
  </g>
</svg>
