<?xml version="1.0" encoding="UTF-8" standalone="no"?>
<svg xmlns:xlink="http://www.w3.org/1999/xlink" height="25.25px" width="32.8px" xmlns="http://www.w3.org/2000/svg">
  <g transform="matrix(1.0, 0.0, 0.0, 1.0, -29.6, -37.8)">
    <path d="M54.95 60.9 L54.85 60.9 55.05 60.85 55.0 60.85 54.95 60.9" fill="#999999" fill-rule="evenodd" stroke="none"/>
    <path d="M49.35 49.7 Q51.45 47.65 54.35 47.65 57.3 47.65 59.35 49.7 61.4 51.75 61.4 54.7 61.4 57.65 59.35 59.7 57.3 61.75 54.35 61.75 51.45 61.75 49.35 59.7 47.3 57.65 47.3 54.7 47.3 51.75 49.35 49.7 Z" fill="none" stroke="#461000" stroke-linecap="round" stroke-linejoin="round" stroke-width="2.0"/>
    <path d="M59.35 59.7 Q57.3 61.75 54.35 61.75 51.45 61.75 49.35 59.7 47.3 57.65 47.3 54.7 47.3 51.75 49.35 49.7 51.45 47.65 54.35 47.65 57.3 47.65 59.35 49.7 61.4 51.75 61.4 54.7 61.4 57.65 59.35 59.7" fill="#971313" fill-rule="evenodd" stroke="none"/>
    <path d="M51.75 54.7 Q52.45 55.45 52.45 56.5 52.45 57.5 51.75 58.2 51.05 59.0 50.0 59.0 49.0 59.0 48.2 58.2 47.5 57.5 47.5 56.5 47.5 55.45 48.2 54.7 49.0 54.05 50.0 54.05 51.05 54.05 51.75 54.7" fill="#f73600" fill-rule="evenodd" stroke="none"/>
    <path d="M51.75 54.7 Q52.45 55.45 52.45 56.5 52.45 57.5 51.75 58.2 51.05 59.0 50.0 59.0 49.0 59.0 48.2 58.2 47.5 57.5 47.5 56.5 47.5 55.45 48.2 54.7 49.0 54.05 50.0 54.05 51.05 54.05 51.75 54.7 Z" fill="none" stroke="#461000" stroke-linecap="round" stroke-linejoin="round" stroke-width="1.0"/>
    <path d="M49.15 56.45 L49.5 56.15 49.9 56.25 50.15 56.55 50.1 57.0 49.6 57.95 49.55 58.05 Q48.55 59.25 47.0 59.3 45.45 59.35 44.4 58.1 L44.4 58.15 Q43.85 57.55 43.65 56.9 L43.65 56.5 43.95 56.2 44.4 56.25 44.7 56.55 45.2 57.4 Q45.95 58.2 47.0 58.2 48.0 58.15 48.65 57.4 L49.15 56.45" fill="#af6a19" fill-rule="evenodd" stroke="none"/>
    <path d="M49.15 56.45 L48.65 57.4 Q48.0 58.15 47.0 58.2 45.95 58.2 45.2 57.4 L44.7 56.55 44.4 56.25 43.95 56.2 43.65 56.5 43.65 56.9 Q43.85 57.55 44.4 58.15 L44.4 58.1 Q45.45 59.35 47.0 59.3 48.55 59.25 49.55 58.05 L49.6 57.95 50.1 57.0 50.15 56.55 49.9 56.25 49.5 56.15 49.15 56.45 Z" fill="none" stroke="#5f3b0f" stroke-linecap="round" stroke-linejoin="round" stroke-width="0.5"/>
    <path d="M59.3 55.5 Q59.3 52.95 57.55 51.2 55.75 49.5 53.3 49.5 51.95 49.5 50.8 50.0 L50.8 49.9 Q52.6 48.15 55.1 48.15 57.6 48.15 59.35 49.9 61.1 51.65 61.1 54.2 61.1 56.7 59.35 58.45 L57.55 59.75 57.55 59.7 Q59.3 57.95 59.3 55.5" fill="#d71c1c" fill-rule="evenodd" stroke="none"/>
    <path d="M35.6 50.0 Q37.7 47.95 40.6 47.95 43.55 47.95 45.6 50.0 47.65 52.05 47.65 55.0 47.65 57.95 45.6 60.0 43.55 62.05 40.6 62.05 37.7 62.05 35.6 60.0 33.55 57.95 33.55 55.0 33.55 52.05 35.6 50.0 Z" fill="none" stroke="#461000" stroke-linecap="round" stroke-linejoin="round" stroke-width="2.0"/>
    <path d="M35.6 50.0 Q37.7 47.95 40.6 47.95 43.55 47.95 45.6 50.0 47.65 52.05 47.65 55.0 47.65 57.95 45.6 60.0 43.55 62.05 40.6 62.05 37.7 62.05 35.6 60.0 33.55 57.95 33.55 55.0 33.55 52.05 35.6 50.0" fill="#971313" fill-rule="evenodd" stroke="none"/>
    <path d="M38.0 55.0 Q38.7 55.75 38.7 56.8 38.7 57.8 38.0 58.5 37.3 59.3 36.25 59.3 35.25 59.3 34.45 58.5 33.75 57.8 33.75 56.8 33.75 55.75 34.45 55.0 35.25 54.35 36.25 54.35 37.3 54.35 38.0 55.0" fill="#f73600" fill-rule="evenodd" stroke="none"/>
    <path d="M38.0 55.0 Q38.7 55.75 38.7 56.8 38.7 57.8 38.0 58.5 37.3 59.3 36.25 59.3 35.25 59.3 34.45 58.5 33.75 57.8 33.75 56.8 33.75 55.75 34.45 55.0 35.25 54.35 36.25 54.35 37.3 54.35 38.0 55.0 Z" fill="none" stroke="#461000" stroke-linecap="round" stroke-linejoin="round" stroke-width="1.0"/>
    <path d="M35.4 56.75 Q35.5 56.55 35.75 56.45 L36.15 56.55 36.4 56.85 36.35 57.3 35.85 58.25 35.8 58.35 Q34.8 59.55 33.25 59.6 31.7 59.65 30.65 58.4 L30.65 58.45 Q30.1 57.85 29.9 57.2 L29.9 56.8 30.2 56.5 30.65 56.55 30.95 56.85 31.45 57.7 Q32.2 58.5 33.25 58.5 34.25 58.45 34.9 57.7 L35.4 56.75" fill="#af6a19" fill-rule="evenodd" stroke="none"/>
    <path d="M35.4 56.75 L34.9 57.7 Q34.25 58.45 33.25 58.5 32.2 58.5 31.45 57.7 L30.95 56.85 30.65 56.55 30.2 56.5 29.9 56.8 29.9 57.2 Q30.1 57.85 30.65 58.45 L30.65 58.4 Q31.7 59.65 33.25 59.6 34.8 59.55 35.8 58.35 L35.85 58.25 36.35 57.3 36.4 56.85 36.15 56.55 35.75 56.45 Q35.5 56.55 35.4 56.75 Z" fill="none" stroke="#5f3b0f" stroke-linecap="round" stroke-linejoin="round" stroke-width="0.5"/>
    <path d="M37.05 50.3 L37.05 50.2 Q38.85 48.45 41.35 48.45 43.85 48.45 45.6 50.2 47.35 51.95 47.35 54.5 47.35 57.0 45.6 58.75 L43.8 60.05 43.8 60.0 Q45.55 58.25 45.55 55.8 45.55 53.25 43.8 51.5 42.0 49.8 39.55 49.8 38.2 49.8 37.05 50.3" fill="#d71c1c" fill-rule="evenodd" stroke="none"/>
    <path d="M57.0 43.95 Q57.85 46.75 56.4 49.35 55.0 51.9 52.2 52.7 49.4 53.5 46.8 52.05 44.25 50.65 43.45 47.85 42.65 45.05 44.05 42.5 45.5 39.9 48.25 39.1 51.05 38.3 53.6 39.7 56.2 41.15 57.0 43.95 Z" fill="none" stroke="#461000" stroke-linecap="round" stroke-linejoin="round" stroke-width="2.0"/>
    <path d="M56.35 49.25 Q54.95 51.85 52.2 52.65 49.4 53.45 46.8 52.0 44.25 50.6 43.45 47.8 42.65 45.0 44.05 42.4 45.5 39.85 48.3 39.05 51.1 38.25 53.65 39.65 56.25 41.1 57.05 43.9 57.8 46.7 56.35 49.25" fill="#971313" fill-rule="evenodd" stroke="none"/>
    <path d="M47.8 44.7 Q48.05 45.7 47.55 46.6 47.05 47.45 46.1 47.75 L44.2 47.6 Q43.35 47.1 43.0 46.05 42.7 45.05 43.2 44.2 43.7 43.3 44.7 43.0 45.75 42.75 46.6 43.25 47.5 43.75 47.8 44.7" fill="#f73600" fill-rule="evenodd" stroke="none"/>
    <path d="M47.8 44.7 Q48.05 45.7 47.55 46.6 47.05 47.45 46.1 47.75 L44.2 47.6 Q43.35 47.1 43.0 46.05 42.7 45.05 43.2 44.2 43.7 43.3 44.7 43.0 45.75 42.75 46.6 43.25 47.5 43.75 47.8 44.7 Z" fill="none" stroke="#461000" stroke-linecap="round" stroke-linejoin="round" stroke-width="1.0"/>
    <path d="M44.9 45.0 L45.35 44.9 45.65 45.2 45.7 45.55 45.45 45.95 44.5 46.5 44.45 46.6 41.6 46.45 Q40.25 45.75 39.9 44.15 L39.85 44.2 Q39.7 43.35 39.85 42.7 39.85 42.55 40.0 42.35 L40.45 42.25 Q40.7 42.3 40.8 42.55 L40.95 42.95 40.95 43.95 Q41.25 45.0 42.15 45.5 L44.0 45.6 44.9 45.0" fill="#af6a19" fill-rule="evenodd" stroke="none"/>
    <path d="M44.9 45.0 L44.0 45.6 42.15 45.5 Q41.25 45.0 40.95 43.95 L40.95 42.95 40.8 42.55 Q40.7 42.3 40.45 42.25 L40.0 42.35 Q39.85 42.55 39.85 42.7 39.7 43.35 39.85 44.2 L39.9 44.15 Q40.25 45.75 41.6 46.45 L44.45 46.6 44.5 46.5 45.45 45.95 45.7 45.55 45.65 45.2 45.35 44.9 44.9 45.0 Z" fill="none" stroke="#5f3b0f" stroke-linecap="round" stroke-linejoin="round" stroke-width="0.5"/>
    <path d="M51.85 40.75 Q50.65 40.1 49.4 40.0 L49.45 39.9 Q51.85 39.25 54.05 40.5 56.25 41.7 56.95 44.05 57.6 46.45 56.35 48.65 55.15 50.85 52.8 51.55 L50.55 51.8 50.6 51.75 Q53.0 51.05 54.2 48.9 55.4 46.7 54.7 44.3 54.0 41.95 51.85 40.75" fill="#d71c1c" fill-rule="evenodd" stroke="none"/>
  </g>
</svg>
