<?xml version="1.0" encoding="UTF-8" standalone="no"?>
<svg xmlns:xlink="http://www.w3.org/1999/xlink" height="53.95px" width="78.7px" xmlns="http://www.w3.org/2000/svg">
  <g transform="matrix(1.0, 0.0, 0.0, 1.0, 35.7, 25.4)">
    <path d="M21.5 -0.9 Q22.35 -1.85 23.6 -1.95 24.9 -2.05 25.85 -1.15 26.8 -0.3 26.85 1.0 26.95 2.25 26.1 3.2 20.85 9.1 13.45 5.65 L13.5 5.65 Q6.6 2.45 6.4 -3.5 6.05 -9.45 9.4 -14.45 L9.35 -14.45 Q13.8 -21.3 22.25 -20.25 36.85 -18.6 37.95 -2.35 38.55 6.35 32.7 13.35 24.9 22.8 6.9 23.5 -10.0 24.15 -22.0 11.05 -27.9 4.6 -30.45 -2.05 -30.95 -3.2 -30.4 -4.4 -29.9 -5.55 -28.75 -6.0 L-26.35 -5.95 Q-25.2 -5.45 -24.7 -4.25 -22.5 1.35 -17.45 6.9 -7.45 17.8 6.7 17.35 21.4 16.8 28.0 9.35 32.2 4.35 31.8 -1.95 31.05 -12.8 21.45 -14.1 16.9 -14.7 14.5 -11.05 12.35 -7.8 12.6 -3.9 12.95 -1.4 16.05 0.05 19.2 1.5 21.5 -0.9" fill="#000000" fill-rule="evenodd" stroke="none"/>
    <path d="M21.5 -0.9 Q19.2 1.5 16.05 0.05 12.95 -1.4 12.6 -3.9 12.35 -7.8 14.5 -11.05 16.9 -14.7 21.45 -14.1 31.05 -12.8 31.8 -1.95 32.2 4.35 28.0 9.35 21.4 16.8 6.7 17.35 -7.45 17.8 -17.45 6.9 -22.5 1.35 -24.7 -4.25 -25.2 -5.45 -26.35 -5.95 L-28.75 -6.0 Q-29.9 -5.55 -30.4 -4.4 -30.95 -3.2 -30.45 -2.05 -27.9 4.6 -22.0 11.05 -10.0 24.15 6.9 23.5 24.9 22.8 32.7 13.35 38.55 6.35 37.95 -2.35 36.85 -18.6 22.25 -20.25 13.8 -21.3 9.35 -14.45 L9.4 -14.45 Q6.05 -9.45 6.4 -3.5 6.6 2.45 13.5 5.65 L13.45 5.65 Q20.85 9.1 26.1 3.2 26.95 2.25 26.85 1.0 26.8 -0.3 25.85 -1.15 24.9 -2.05 23.6 -1.95 22.35 -1.85 21.5 -0.9 Z" fill="none" stroke="#000000" stroke-linecap="round" stroke-linejoin="round" stroke-width="10.0"/>
    <path d="M-20.0 5.15 L-18.05 7.4 -14.4 10.9 -16.9 14.85 Q-19.25 12.95 -21.45 10.55 L-23.6 8.05 -20.0 5.15 M-11.65 18.4 L-9.15 14.45 Q-5.45 16.5 -1.25 17.4 L-2.35 21.95 Q-7.25 20.85 -11.65 18.4 M-25.45 -4.0 L-23.55 -0.05 -27.25 2.85 -29.75 -2.3 Q-30.1 -3.2 -29.75 -4.05 -29.35 -4.95 -28.45 -5.3 L-26.7 -5.25 Q-25.8 -4.9 -25.45 -4.0 M3.9 22.75 L5.1 18.15 6.7 18.1 15.2 17.1 Q15.15 19.5 15.4 21.85 L6.9 22.75 3.9 22.75 M32.1 12.8 Q28.15 17.6 21.6 20.1 21.45 17.55 21.6 15.0 25.8 13.0 28.55 9.85 L28.6 9.8 Q30.35 11.35 32.25 12.65 L32.1 12.8 M32.25 -4.5 L36.75 -5.9 37.2 -2.35 Q37.55 2.8 35.6 7.3 L31.75 4.35 Q32.8 1.3 32.55 -2.05 L32.25 -4.5 M23.25 -14.55 L22.0 -19.45 22.15 -19.45 Q30.95 -18.45 34.65 -11.85 L29.9 -10.4 Q27.55 -13.55 23.25 -14.55 M7.45 -1.8 L12.15 -2.5 Q13.0 -0.55 15.75 0.75 19.4 2.45 22.1 -0.4 22.7 -1.15 23.65 -1.2 24.6 -1.2 25.3 -0.55 26.05 0.05 26.1 1.0 26.15 1.95 25.5 2.7 20.65 8.15 13.8 4.95 8.45 2.5 7.45 -1.8 M12.5 -8.8 L7.55 -8.25 Q8.2 -11.3 10.0 -14.0 12.25 -17.4 15.5 -18.75 L16.9 -14.25 Q15.1 -13.4 13.85 -11.5 13.0 -10.2 12.5 -8.8" fill="#ffffff" fill-rule="evenodd" stroke="none"/>
  </g>
</svg>
