<?xml version="1.0" encoding="UTF-8" standalone="no"?>
<svg xmlns:xlink="http://www.w3.org/1999/xlink" height="102.85px" width="70.55px" xmlns="http://www.w3.org/2000/svg">
  <g transform="matrix(1.0, 0.0, 0.0, 1.0, 35.25, 51.4)">
    <path d="M15.45 -29.3 Q16.7 -10.95 18.5 -5.2 19.75 -1.15 24.5 5.05 28.75 10.55 29.6 15.95 31.15 25.5 29.25 32.75 26.7 42.35 18.5 45.0 8.65 48.25 -4.15 44.15 -18.05 39.75 -24.05 29.7 -29.3 20.75 -30.1 -10.95 -30.5 -26.8 -29.85 -40.85 L14.55 -46.4 15.45 -29.3" fill="#000000" fill-rule="evenodd" stroke="none"/>
    <path d="M15.45 -29.3 L14.55 -46.4 -29.85 -40.85 Q-30.5 -26.8 -30.1 -10.95 -29.3 20.75 -24.05 29.7 -18.05 39.75 -4.15 44.15 8.65 48.25 18.5 45.0 26.7 42.35 29.25 32.75 31.15 25.5 29.6 15.95 28.75 10.55 24.5 5.05 19.75 -1.15 18.5 -5.2 16.7 -10.95 15.45 -29.3 Z" fill="none" stroke="#000000" stroke-linecap="round" stroke-linejoin="round" stroke-width="10.0"/>
    <path d="M4.6 -6.9 Q8.0 -5.3 8.6 -3.35 3.5 -5.65 -3.5 -6.0 -10.95 -6.4 -16.1 -4.45 L-18.4 -3.3 -18.5 -4.0 Q-18.65 -6.4 -14.7 -7.9 -10.8 -9.35 -5.15 -9.05 0.5 -8.75 4.6 -6.9" fill="#cccccc" fill-rule="evenodd" stroke="none"/>
    <path d="M4.6 -6.85 Q0.55 -8.8 -5.1 -9.1 -10.8 -9.4 -14.7 -7.9 -18.65 -6.4 -18.5 -4.0 -18.35 -1.6 -14.3 0.25 -10.2 2.15 -4.55 2.5 L-0.3 2.4 1.0 6.75 -4.6 6.75 Q-13.05 6.3 -19.15 3.5 -25.25 0.65 -25.45 -2.9 -25.6 -6.45 -19.75 -8.7 -13.85 -10.95 -5.4 -10.5 3.05 -10.1 9.2 -7.25 15.25 -4.35 15.4 -0.8 15.6 2.75 9.7 4.95 L7.25 5.8 Q6.7 3.2 5.55 1.05 8.95 -0.35 8.75 -2.55 8.7 -4.95 4.6 -6.85" fill="#ffffff" fill-rule="evenodd" stroke="none"/>
    <path d="M-22.15 14.6 Q-19.5 9.8 -13.7 11.1 L-7.6 12.75 Q-3.25 13.9 0.35 14.05 4.1 14.25 8.7 12.85 L15.85 10.2 Q19.7 8.9 22.0 9.15 25.05 9.45 27.25 12.45 29.6 15.65 28.3 20.45 27.1 25.05 23.05 29.45 18.85 34.05 13.3 36.55 7.1 39.35 0.85 38.9 -11.55 37.9 -18.8 29.2 -21.9 25.5 -22.8 21.55 -23.75 17.6 -22.15 14.6" fill="#ffffff" fill-rule="evenodd" stroke="none"/>
    <path d="M23.75 10.55 Q25.35 12.55 24.45 15.65 23.6 18.65 20.8 21.5 17.9 24.45 14.05 26.1 9.75 27.95 5.45 27.65 -3.1 27.05 -8.05 21.5 -10.2 19.1 -10.75 16.5 -11.4 14.0 -10.25 12.05 L-9.95 11.6 -10.2 12.05 -7.6 12.75 Q-3.25 13.9 0.35 14.05 4.1 14.25 8.7 12.85 L15.85 10.2 Q19.7 8.9 22.0 9.15 L22.35 9.2 23.75 10.55" fill="#cccccc" fill-rule="evenodd" stroke="none"/>
    <path d="M3.8 -32.65 Q7.05 -31.1 7.65 -29.3 2.75 -31.5 -3.9 -31.8 -10.95 -32.2 -15.8 -30.3 -17.05 -29.85 -17.95 -29.25 L-18.1 -29.9 Q-18.15 -32.2 -14.45 -33.6 -10.8 -35.0 -5.4 -34.7 -0.05 -34.45 3.8 -32.65" fill="#cccccc" fill-rule="evenodd" stroke="none"/>
    <path d="M7.1 -21.6 Q11.3 -19.65 12.0 -17.3 5.75 -20.1 -2.9 -20.55 -12.0 -21.0 -18.4 -18.65 L-21.2 -17.25 -21.35 -18.1 Q-21.5 -21.0 -16.65 -22.85 -11.85 -24.7 -4.85 -24.35 2.1 -23.95 7.1 -21.6" fill="#cccccc" fill-rule="evenodd" stroke="none"/>
    <path d="M7.1 -21.6 Q2.1 -23.95 -4.85 -24.35 -11.85 -24.7 -16.65 -22.85 -21.5 -21.0 -21.35 -18.1 -21.15 -15.15 -16.2 -12.85 -11.15 -10.5 -4.2 -10.1 -1.4 -10.0 1.05 -10.2 2.05 -7.65 2.65 -4.85 -0.6 -4.65 -4.25 -4.85 -14.65 -5.4 -22.15 -8.85 -29.65 -12.35 -29.9 -16.75 -30.05 -21.1 -22.85 -23.85 -15.65 -26.65 -5.25 -26.1 5.15 -25.55 12.7 -22.05 20.15 -18.5 20.35 -14.15 20.6 -9.75 13.35 -7.05 L10.35 -6.05 Q9.65 -9.2 8.25 -11.85 12.4 -13.6 12.2 -16.3 12.1 -19.25 7.1 -21.6" fill="#ffffff" fill-rule="evenodd" stroke="none"/>
    <path d="M7.95 14.7 Q9.2 15.75 9.4 17.4 9.55 19.05 8.5 20.35 7.45 21.6 5.8 21.8 4.15 21.95 2.9 20.9 -0.3 18.4 -2.8 15.25 1.2 13.4 5.2 12.05 L7.95 14.7 M-10.1 -0.45 L-1.9 -1.65 Q-0.5 3.6 2.05 7.75 -1.9 9.1 -5.65 10.95 -8.55 5.9 -10.1 -0.45 M-11.75 -15.0 Q-7.65 -15.1 -3.65 -14.8 -3.55 -10.5 -2.95 -6.65 L-11.05 -5.45 Q-11.7 -9.95 -11.75 -15.0 M-8.05 -39.65 Q-6.7 -40.6 -5.1 -40.3 -3.5 -40.05 -2.5 -38.65 -1.55 -37.3 -1.85 -35.7 L-2.3 -32.95 -10.35 -33.4 -9.75 -37.1 Q-9.45 -38.75 -8.05 -39.65 M-11.05 -28.25 L-3.0 -27.9 Q-3.5 -23.8 -3.6 -19.95 -7.6 -20.25 -11.7 -20.1 L-11.05 -28.25" fill="#ffffff" fill-rule="evenodd" stroke="none"/>
    <path d="M3.8 -32.6 Q-0.05 -34.45 -5.4 -34.75 -10.8 -35.0 -14.5 -33.6 -18.25 -32.15 -18.1 -29.9 -17.95 -27.65 -14.15 -25.9 -10.25 -24.05 -4.9 -23.75 L-0.85 -23.85 0.4 -19.7 Q-2.1 -19.55 -4.95 -19.7 -12.95 -20.15 -18.75 -22.8 -24.5 -25.5 -24.7 -28.9 -24.85 -32.25 -19.3 -34.35 -13.7 -36.5 -5.7 -36.1 2.3 -35.65 8.15 -32.95 13.9 -30.25 14.05 -26.9 14.25 -23.5 8.65 -21.4 L6.3 -20.65 Q5.8 -23.05 4.7 -25.1 7.9 -26.45 7.75 -28.55 7.65 -30.8 3.8 -32.6" fill="#ffffff" fill-rule="evenodd" stroke="none"/>
  </g>
</svg>
