<?xml version="1.0" encoding="UTF-8" standalone="no"?>
<svg xmlns:xlink="http://www.w3.org/1999/xlink" height="195.6px" width="248.4px" xmlns="http://www.w3.org/2000/svg">
  <g transform="matrix(1.0, 0.0, 0.0, 1.0, 179.05, 94.45)">
    <path d="M-165.7 -87.05 Q-163.65 -88.15 -158.2 -81.5 -152.65 -74.85 -147.0 -64.25 -141.35 -53.7 -138.85 -45.45 L-138.8 -45.25 Q-131.4 -60.15 -111.2 -71.9 -88.0 -85.4 -58.2 -89.2 -27.3 -93.15 -4.05 -84.55 21.9 -74.95 29.55 -52.1 41.15 -17.45 33.6 27.1 L32.0 35.65 Q36.05 34.5 40.75 34.75 50.9 35.3 58.15 42.2 65.5 49.1 65.35 58.35 65.2 67.55 57.6 73.4 50.05 79.05 39.85 78.15 29.75 77.0 23.0 70.05 L21.85 68.8 Q18.7 76.15 15.55 80.9 11.3 87.3 -6.5 91.65 -22.6 95.55 -44.75 96.7 -66.35 97.85 -84.2 95.9 -103.2 93.8 -109.9 88.9 -116.1 84.35 -122.75 73.4 -125.0 77.85 -128.8 81.65 -137.65 90.55 -149.3 90.6 -160.75 90.6 -167.9 82.1 -174.85 73.8 -173.75 62.2 -172.75 50.85 -164.55 42.6 -156.4 34.35 -145.55 33.75 L-139.3 34.1 Q-150.5 -5.5 -141.85 -36.95 L-144.8 -37.25 Q-150.8 -38.2 -158.45 -41.55 -166.15 -44.9 -170.95 -48.7 -175.75 -52.45 -174.9 -54.45 -174.05 -56.4 -167.95 -55.5 -161.95 -54.55 -154.25 -51.2 L-152.1 -50.2 Q-154.6 -54.15 -157.1 -58.85 -162.75 -69.45 -165.3 -77.7 -167.75 -85.9 -165.7 -87.05" fill="#000000" fill-rule="evenodd" stroke="none"/>
    <path d="M-165.7 -87.05 Q-163.65 -88.15 -158.2 -81.5 -152.65 -74.85 -147.0 -64.25 -141.35 -53.7 -138.85 -45.45 L-138.8 -45.25 Q-131.4 -60.15 -111.2 -71.9 -88.0 -85.4 -58.2 -89.2 -27.3 -93.15 -4.05 -84.55 21.9 -74.95 29.55 -52.1 41.15 -17.45 33.6 27.1 L32.0 35.65 Q36.05 34.5 40.75 34.75 50.9 35.3 58.15 42.2 65.5 49.1 65.35 58.35 65.2 67.55 57.6 73.4 50.05 79.05 39.85 78.15 29.75 77.0 23.0 70.05 L21.85 68.8 Q18.7 76.15 15.55 80.9 11.3 87.3 -6.5 91.65 -22.6 95.55 -44.75 96.7 -66.35 97.85 -84.2 95.9 -103.2 93.8 -109.9 88.9 -116.1 84.35 -122.75 73.4 -125.0 77.85 -128.8 81.65 -137.65 90.55 -149.3 90.6 -160.75 90.6 -167.9 82.1 -174.85 73.8 -173.75 62.2 -172.75 50.85 -164.55 42.6 -156.4 34.35 -145.55 33.75 L-139.3 34.1 Q-150.5 -5.5 -141.85 -36.95 L-144.8 -37.25 Q-150.8 -38.2 -158.45 -41.55 -166.15 -44.9 -170.95 -48.7 -175.75 -52.45 -174.9 -54.45 -174.05 -56.4 -167.95 -55.5 -161.95 -54.55 -154.25 -51.2 L-152.1 -50.2 Q-154.6 -54.15 -157.1 -58.85 -162.75 -69.45 -165.3 -77.7 -167.75 -85.9 -165.7 -87.05 Z" fill="none" stroke="#000000" stroke-linecap="round" stroke-linejoin="round" stroke-width="8.0"/>
    <path d="M-145.55 33.75 Q-134.55 33.05 -126.9 40.7 -119.05 48.55 -119.5 60.5 -119.95 72.7 -128.8 81.65 -137.65 90.55 -149.3 90.6 -160.75 90.6 -167.9 82.1 -174.85 73.8 -173.75 62.2 -172.75 50.85 -164.55 42.6 -156.4 34.35 -145.55 33.75" fill="#000000" fill-rule="evenodd" stroke="none"/>
    <path d="M40.75 34.75 Q50.9 35.3 58.15 42.2 65.5 49.1 65.35 58.35 65.2 67.55 57.6 73.4 50.05 79.05 39.85 78.15 29.75 77.0 23.0 70.05 16.3 63.2 16.5 54.45 16.5 53.25 16.75 52.15 17.65 44.9 23.7 40.05 30.75 34.2 40.75 34.75" fill="#000000" fill-rule="evenodd" stroke="none"/>
    <path d="M29.55 -52.1 Q41.15 -17.45 33.6 27.1 30.65 44.45 25.25 59.8 20.45 73.55 15.55 80.9 11.3 87.3 -6.5 91.65 -22.6 95.55 -44.75 96.7 -66.35 97.85 -84.2 95.9 -103.2 93.8 -109.9 88.9 -117.0 83.7 -124.65 70.2 -132.6 56.2 -138.0 38.6 -151.3 -4.75 -141.4 -38.6 -135.8 -57.6 -111.2 -71.9 -88.0 -85.4 -58.2 -89.2 -27.3 -93.15 -4.05 -84.55 21.9 -74.95 29.55 -52.1" fill="#000000" fill-rule="evenodd" stroke="none"/>
    <path d="M22.6 -47.55 Q33.25 -15.75 26.35 25.1 23.6 41.05 18.65 55.1 14.25 67.75 9.75 74.45 5.85 80.35 -10.45 84.35 -25.25 87.9 -45.55 88.95 -65.35 90.0 -81.75 88.25 -99.15 86.3 -105.3 81.8 -111.85 77.05 -118.85 64.65 -126.15 51.8 -131.1 35.65 -143.3 -4.1 -134.2 -35.15 -129.05 -52.6 -106.5 -65.7 -85.2 -78.1 -57.9 -81.55 -29.55 -85.2 -8.2 -77.3 15.6 -68.5 22.6 -47.55" fill="#ffffff" fill-rule="evenodd" stroke="none"/>
    <path d="M-60.45 29.9 Q-60.45 41.2 -69.3 49.2 -78.1 57.2 -90.55 57.2 -103.0 57.2 -111.85 49.2 -120.65 41.2 -120.65 29.9 -120.65 18.6 -111.85 10.55 -103.0 2.6 -90.55 2.6 -78.1 2.6 -69.3 10.55 -60.45 18.6 -60.45 29.9" fill="#cccccc" fill-rule="evenodd" stroke="none"/>
    <path d="M-66.5 24.4 Q-66.5 33.45 -73.6 39.85 -80.6 46.25 -90.55 46.25 -100.55 46.25 -107.6 39.85 -114.65 33.45 -114.65 24.4 -114.65 15.35 -107.6 8.95 -100.55 2.55 -90.55 2.55 -80.6 2.55 -73.6 8.95 -66.5 15.35 -66.5 24.4" fill="#000000" fill-rule="evenodd" stroke="none"/>
    <path d="M27.85 14.75 L26.35 25.1 Q23.85 39.55 19.55 52.45 12.2 57.1 2.7 57.1 -9.75 57.1 -18.6 49.1 -27.4 41.1 -27.4 29.8 -27.4 18.5 -18.6 10.45 -9.75 2.5 2.7 2.5 15.15 2.5 23.95 10.45 26.2 12.5 27.85 14.75" fill="#cccccc" fill-rule="evenodd" stroke="none"/>
    <path d="M-19.2 23.45 Q-19.2 32.5 -13.05 38.9 -6.95 45.3 1.7 45.3 10.35 45.3 16.45 38.9 22.55 32.5 22.55 23.45 22.55 14.4 16.45 8.0 10.35 1.6 1.7 1.6 -6.95 1.6 -13.05 8.0 -19.2 14.4 -19.2 23.45" fill="#000000" fill-rule="evenodd" stroke="none"/>
    <path d="M-165.3 -77.7 Q-167.75 -85.9 -165.7 -87.05 -163.65 -88.15 -158.2 -81.5 -152.65 -74.85 -147.0 -64.25 -141.35 -53.7 -138.85 -45.45 -136.35 -37.2 -138.4 -36.1 -140.45 -34.95 -145.95 -41.65 -151.45 -48.3 -157.1 -58.85 -162.75 -69.45 -165.3 -77.7" fill="#000000" fill-rule="evenodd" stroke="none"/>
    <path d="M-170.95 -48.7 Q-175.75 -52.45 -174.9 -54.45 -174.05 -56.4 -167.95 -55.5 -161.95 -54.55 -154.25 -51.2 -146.6 -47.85 -141.8 -44.05 -137.0 -40.25 -137.85 -38.3 -138.7 -36.3 -144.8 -37.25 -150.8 -38.2 -158.45 -41.55 -166.15 -44.9 -170.95 -48.7" fill="#000000" fill-rule="evenodd" stroke="none"/>
    <path d="M-34.4 47.95 L-52.75 47.95 -43.55 26.3 Q-38.9 37.1 -34.4 47.95" fill="#cccccc" fill-rule="evenodd" stroke="none"/>
    <path d="M-35.9 47.6 L-49.25 47.6 -42.55 36.0 -35.9 47.6" fill="#000000" fill-rule="evenodd" stroke="none"/>
    <path d="M-51.5 64.7 L-50.6 72.25 M-89.15 82.2 Q-74.7 77.25 -61.45 74.35 M-21.65 77.7 L-22.0 70.0 M-22.35 63.6 L-22.0 70.0 M-10.3 76.25 L-9.85 70.85" fill="none" stroke="#000000" stroke-linecap="square" stroke-linejoin="round" stroke-width="4.0"/>
    <path d="M-50.6 72.25 L-36.2 70.45 M-50.6 72.25 L-61.45 74.35 M-22.0 70.0 L-36.2 70.45 M-22.0 70.0 L-9.85 70.85" fill="none" stroke="#000000" stroke-linecap="round" stroke-linejoin="round" stroke-width="4.0"/>
    <path d="M-36.2 70.45 L-36.25 61.8 M-50.6 72.25 L-49.85 79.1 M-61.45 74.35 L-59.5 80.9 M-61.45 74.35 L-63.5 67.35 M-36.2 70.45 L-36.2 77.85 M-9.85 70.85 L-9.55 66.55 M-9.85 70.85 Q-1.5 71.85 6.15 74.05" fill="none" stroke="#000000" stroke-linecap="round" stroke-linejoin="round" stroke-width="4.0"/>
    <path d="M-108.45 84.85 Q-116.2 79.2 -124.45 64.55 L-125.75 62.2 Q-110.35 63.35 -97.1 68.25 -74.95 76.45 -65.1 93.55 L-80.6 92.45 Q-101.15 90.15 -108.45 84.85" fill="#000000" fill-rule="evenodd" stroke="none"/>
    <path d="M19.55 57.2 Q15.0 68.8 10.35 75.7 6.9 80.85 -3.4 85.0 2.95 69.85 19.55 57.2" fill="#000000" fill-rule="evenodd" stroke="none"/>
  </g>
</svg>
