<?xml version="1.0" encoding="UTF-8" standalone="no"?>
<svg xmlns:xlink="http://www.w3.org/1999/xlink" height="31.65px" width="52.05px" xmlns="http://www.w3.org/2000/svg">
  <g transform="matrix(1.0, 0.0, 0.0, 1.0, -0.9, 27.15)">
    <path d="M9.35 -19.1 Q13.15 -21.4 16.3 -20.05 L18.55 -18.45 18.75 -18.4 Q20.05 -17.65 20.85 -10.75 21.75 -3.8 20.9 -2.05 20.0 -0.4 14.45 1.7 8.85 3.85 7.05 3.05 L6.8 2.75 6.35 2.55 Q3.2 1.3 2.4 -3.1 1.55 -7.35 3.55 -12.0 5.6 -16.65 9.35 -19.1" fill="#8a8a8a" fill-rule="evenodd" stroke="none"/>
    <path d="M9.35 -19.1 Q13.15 -21.4 16.3 -20.05 L18.55 -18.45 18.75 -18.4 Q20.05 -17.65 20.85 -10.75 21.75 -3.8 20.9 -2.05 20.0 -0.4 14.45 1.7 8.85 3.85 7.05 3.05 L6.8 2.75 6.35 2.55 Q3.2 1.3 2.4 -3.1 1.55 -7.35 3.55 -12.0 5.6 -16.65 9.35 -19.1 Z" fill="none" stroke="#5b5b5b" stroke-linecap="round" stroke-linejoin="round" stroke-width="2.5"/>
    <path d="M18.75 -18.4 Q20.05 -17.65 20.85 -10.75 21.75 -3.8 20.9 -2.05 20.0 -0.4 14.45 1.7 8.85 3.85 7.05 3.05 5.35 2.3 11.35 -8.4 17.4 -19.2 18.75 -18.4" fill="#8a8a8a" fill-rule="evenodd" stroke="none"/>
    <path d="M3.55 -12.0 Q5.6 -16.65 9.35 -19.1 13.15 -21.4 16.3 -20.05 19.45 -18.7 20.3 -14.45 21.1 -10.2 19.1 -5.5 17.1 -0.9 13.35 1.5 9.6 3.95 6.35 2.55 3.2 1.3 2.4 -3.1 1.55 -7.35 3.55 -12.0" fill="url(#gradient0)" fill-rule="evenodd" stroke="none"/>
    <path d="M4.6 -11.7 Q6.3 -15.65 9.4 -17.7 12.5 -19.7 15.1 -18.6 17.7 -17.4 18.4 -13.85 19.05 -10.25 17.35 -6.25 15.7 -2.35 12.65 -0.35 9.5 1.65 6.9 0.6 4.3 -0.5 3.65 -4.25 2.95 -7.8 4.6 -11.7" fill="url(#gradient1)" fill-rule="evenodd" stroke="none"/>
    <path d="M16.35 -3.75 L5.15 -12.3 18.25 -6.75 16.35 -3.75" fill="#999999" fill-rule="evenodd" stroke="none"/>
    <path d="M9.7 -8.85 Q9.0 -8.3 8.15 -8.35 7.3 -8.45 6.8 -9.2 6.25 -9.9 6.35 -10.8 6.45 -11.7 7.15 -12.3 7.8 -12.85 8.65 -12.75 9.5 -12.7 10.05 -11.95 10.55 -11.25 10.45 -10.35 10.35 -9.45 9.7 -8.85" fill="#b0b0b0" fill-rule="evenodd" stroke="none"/>
    <path d="M39.85 -10.05 L40.3 -12.95 40.8 -15.8 40.8 -16.2 40.85 -16.7 40.9 -17.0 41.0 -17.45 41.15 -18.2 41.25 -18.6 41.45 -19.5 41.5 -19.95 41.6 -20.7 41.65 -20.9 41.65 -21.7 41.65 -21.75 41.65 -21.9 41.6 -22.25 41.6 -22.3 41.55 -23.1 41.55 -23.3 41.6 -23.65 41.7 -24.15 41.75 -24.35 41.85 -24.65 41.9 -24.75 42.3 -25.35 42.9 -25.35 43.0 -25.4 43.5 -25.6 43.8 -25.7 43.85 -25.7 45.9 -26.1 48.6 -26.0 Q49.65 -25.8 50.05 -25.15 51.1 -24.45 51.55 -22.1 L51.8 -20.7 51.8 -20.65 51.85 -20.3 51.9 -19.15 51.95 -17.75 51.95 -17.25 51.9 -14.95 51.9 -13.1 51.85 -11.35 51.8 -9.85 51.75 -3.0 51.75 -2.25 51.75 -2.2 51.65 2.1 Q51.6 2.25 51.35 2.25 L51.25 2.25 51.2 2.25 44.9 -2.2 44.45 -2.45 Q43.05 -3.25 41.95 -4.0 39.45 -5.6 39.45 -6.15 L39.45 -6.25 39.45 -6.4 39.85 -10.05" fill="#bd813e" fill-rule="evenodd" stroke="none"/>
    <path d="M39.85 -10.05 L40.3 -12.95 40.8 -15.8 40.8 -16.2 40.85 -16.7 40.9 -17.0 41.0 -17.45 41.15 -18.2 41.25 -18.6 41.45 -19.5 41.5 -19.95 41.6 -20.7 41.65 -20.9 41.65 -21.7 41.65 -21.75 41.65 -21.9 41.6 -22.25 41.6 -22.3 41.55 -23.1 41.55 -23.3 41.6 -23.65 41.7 -24.15 41.75 -24.35 41.85 -24.65 41.9 -24.75 42.3 -25.35 42.9 -25.35 43.0 -25.4 43.5 -25.6 43.8 -25.7 43.85 -25.7 45.9 -26.1 48.6 -26.0 Q49.65 -25.8 50.05 -25.15 51.1 -24.45 51.55 -22.1 L51.8 -20.7 51.8 -20.65 51.85 -20.3 51.9 -19.15 51.95 -17.75 51.95 -17.25 51.9 -14.95 51.9 -13.1 51.85 -11.35 51.8 -9.85 51.75 -3.0 51.75 -2.25 51.75 -2.2 51.65 2.1 Q51.6 2.25 51.35 2.25 L51.25 2.25 51.2 2.25 44.9 -2.2 44.45 -2.45 Q43.05 -3.25 41.95 -4.0 39.45 -5.6 39.45 -6.15 L39.45 -6.25 39.45 -6.4 39.85 -10.05 Z" fill="none" stroke="#412910" stroke-linecap="round" stroke-linejoin="round" stroke-width="2.0"/>
    <path d="M39.95 -10.55 L40.3 -12.95 Q41.0 -12.45 42.4 -12.45 44.9 -12.45 44.9 -13.9 44.9 -17.6 41.0 -17.45 L41.15 -18.2 41.25 -18.6 41.75 -18.2 Q43.1 -17.4 45.75 -17.4 47.2 -17.4 47.55 -17.85 L47.7 -18.75 47.25 -19.3 50.25 -19.2 Q49.95 -19.0 49.95 -18.45 L50.05 -18.25 50.55 -17.75 51.95 -17.75 51.95 -17.25 51.9 -14.95 Q51.2 -17.1 48.85 -17.05 45.45 -16.95 45.45 -13.95 L45.65 -12.25 Q46.4 -10.7 49.3 -10.7 51.2 -10.7 51.85 -11.35 L51.8 -9.85 51.45 -9.75 Q50.15 -9.25 49.8 -7.65 L49.5 -5.0 Q49.5 -3.0 51.65 -3.0 L51.75 -3.0 51.75 -2.25 48.45 -2.9 Q45.45 -3.1 44.45 -2.45 43.05 -3.25 41.95 -4.0 39.45 -5.6 39.45 -6.15 L39.45 -6.25 40.2 -5.75 42.6 -4.95 Q44.9 -4.2 45.85 -4.2 47.8 -4.2 48.45 -6.05 L48.75 -8.15 Q48.75 -9.55 48.05 -9.85 L41.75 -11.0 40.0 -10.8 39.95 -10.55 M40.8 -16.2 L40.85 -16.7 40.85 -16.45 40.95 -16.35 40.8 -16.2 M41.55 -20.05 L41.6 -20.7 41.65 -20.9 41.75 -20.75 Q42.5 -20.05 44.4 -19.65 L42.5 -19.95 Q41.95 -20.5 41.6 -20.4 L41.55 -20.05 M43.85 -25.7 L45.9 -26.1 48.6 -26.0 43.85 -25.7 M51.9 -19.45 L51.9 -19.15 51.5 -19.25 51.9 -19.45" fill="#bd813e" fill-rule="evenodd" stroke="none"/>
    <path d="M39.45 -6.25 L39.45 -6.4 39.85 -10.05 39.9 -10.35 39.95 -10.55 40.0 -10.8 41.75 -11.0 48.05 -9.85 Q48.75 -9.55 48.75 -8.15 L48.45 -6.05 Q47.8 -4.2 45.85 -4.2 44.9 -4.2 42.6 -4.95 L40.2 -5.75 39.45 -6.25 M40.3 -12.95 L40.8 -15.8 40.8 -16.2 40.95 -16.35 40.85 -16.45 40.85 -16.7 40.9 -17.0 41.0 -17.45 Q44.9 -17.6 44.9 -13.9 44.9 -12.45 42.4 -12.45 41.0 -12.45 40.3 -12.95 M41.25 -18.6 L41.45 -19.5 41.5 -19.95 41.55 -20.05 41.6 -20.4 Q41.95 -20.5 42.5 -19.95 L44.4 -19.65 46.5 -19.45 47.25 -19.3 47.7 -18.75 47.55 -17.85 Q47.2 -17.4 45.75 -17.4 43.1 -17.4 41.75 -18.2 L41.25 -18.6 M51.9 -19.15 L51.95 -17.75 50.55 -17.75 50.05 -18.25 49.95 -18.45 Q49.95 -19.0 50.25 -19.2 L51.4 -19.3 51.5 -19.25 51.9 -19.15 M51.9 -14.95 L51.9 -13.1 51.85 -11.35 Q51.2 -10.7 49.3 -10.7 46.4 -10.7 45.65 -12.25 L45.45 -13.95 Q45.45 -16.95 48.85 -17.05 51.2 -17.1 51.9 -14.95 M51.8 -9.85 L51.75 -3.0 51.65 -3.0 Q49.5 -3.0 49.5 -5.0 L49.8 -7.65 Q50.15 -9.25 51.45 -9.75 L51.8 -9.85 M51.75 -2.25 L51.75 -2.2 51.65 2.1 Q51.6 2.25 51.35 2.25 L51.2 2.25 44.9 -2.2 44.45 -2.45 Q45.45 -3.1 48.45 -2.9 L51.75 -2.25" fill="#a37036" fill-rule="evenodd" stroke="none"/>
    <path d="M41.65 -20.9 L41.65 -21.7 41.65 -21.75 41.65 -21.9 41.6 -22.25 41.6 -22.3 41.55 -23.1 41.55 -23.3 41.6 -23.65 41.7 -24.15 41.75 -24.35 41.85 -24.65 41.9 -24.75 42.3 -25.35 42.9 -25.35 43.0 -25.4 43.5 -25.6 43.8 -25.7 43.85 -25.7 48.6 -26.0 Q49.65 -25.8 50.05 -25.15 51.1 -24.45 51.55 -22.1 L51.8 -20.7 51.8 -20.65 51.85 -20.3 51.85 -20.1 51.9 -19.45 51.5 -19.25 51.4 -19.3 50.25 -19.2 47.25 -19.3 46.5 -19.45 44.4 -19.65 Q42.5 -20.05 41.75 -20.75 L41.65 -20.9 M49.8 -21.75 Q49.8 -24.5 46.75 -24.3 L45.25 -24.05 Q43.65 -23.85 43.65 -23.3 L43.75 -22.8 43.65 -22.3 Q43.65 -21.5 43.8 -21.35 44.6 -20.7 48.3 -20.7 49.8 -20.7 49.8 -21.75" fill="#c89459" fill-rule="evenodd" stroke="none"/>
    <path d="M49.8 -21.75 Q49.8 -20.7 48.3 -20.7 44.6 -20.7 43.8 -21.35 43.65 -21.5 43.65 -22.3 L43.75 -22.8 43.65 -23.3 Q43.65 -23.85 45.25 -24.05 L46.75 -24.3 Q49.8 -24.5 49.8 -21.75" fill="#5b3e1e" fill-rule="evenodd" stroke="none"/>
  </g>
  <defs>
    <linearGradient gradientTransform="matrix(0.0108, 0.0012, -0.0017, 0.0146, 11.35, -8.75)" gradientUnits="userSpaceOnUse" id="gradient0" spreadMethod="pad" x1="-819.2" x2="819.2">
      <stop offset="0.0" stop-color="#b0b0b0"/>
      <stop offset="1.0" stop-color="#999999"/>
    </linearGradient>
    <linearGradient gradientTransform="matrix(-0.0114, -0.0068, 0.0063, -0.0106, 13.05, -8.45)" gradientUnits="userSpaceOnUse" id="gradient1" spreadMethod="pad" x1="-819.2" x2="819.2">
      <stop offset="0.0" stop-color="#666666"/>
      <stop offset="1.0" stop-color="#999999"/>
    </linearGradient>
  </defs>
</svg>
