<?xml version="1.0" encoding="UTF-8" standalone="no"?>
<svg xmlns:xlink="http://www.w3.org/1999/xlink" height="91.65px" width="93.85px" xmlns="http://www.w3.org/2000/svg">
  <g transform="matrix(1.0, 0.0, 0.0, 1.0, 2.0, 2.0)">
    <path d="M56.0 40.0 L67.55 76.2 56.9 82.4 45.9 52.1 43.55 45.65 56.0 40.0" fill="#6d461b" fill-rule="evenodd" stroke="none"/>
    <path d="M56.0 40.0 L67.55 76.2 56.9 82.4 45.9 52.1 43.55 45.65 56.0 40.0 Z" fill="none" stroke="#32200c" stroke-linecap="round" stroke-linejoin="round" stroke-width="4.0"/>
    <path d="M45.9 52.1 L43.55 45.65 56.0 40.0 67.55 76.2 59.75 80.8 58.65 77.7 54.1 66.4 Q51.45 58.3 48.55 52.75 45.5 46.85 45.9 51.3 L45.9 52.1" fill="#6d461b" fill-rule="evenodd" stroke="none"/>
    <path d="M59.75 80.8 L56.9 82.4 45.9 52.1 45.9 51.3 Q45.5 46.85 48.55 52.75 51.45 58.3 54.1 66.4 L58.65 77.7 59.75 80.8" fill="#452c10" fill-rule="evenodd" stroke="none"/>
    <path d="M52.55 61.8 L52.3 64.2 51.95 67.95 51.85 68.0 51.85 68.7 51.55 69.0 Q51.45 69.0 47.1 57.8 47.05 57.3 51.55 54.2 L56.2 51.2 Q57.95 49.6 58.85 49.9 59.45 50.1 59.9 51.5 L61.35 55.6 Q61.45 56.45 57.4 59.0 L52.65 61.8 52.55 61.8" fill="#000000" fill-opacity="0.4" fill-rule="evenodd" stroke="none"/>
    <path d="M89.85 42.8 L17.55 67.8 12.05 48.05 15.75 41.95 8.6 40.6 Q-0.05 22.75 0.0 22.3 L3.3 21.35 76.95 0.0 82.2 17.35 77.25 23.4 84.65 23.25 89.85 42.8" fill="#7b4e1e" fill-rule="evenodd" stroke="none"/>
    <path d="M89.85 42.8 L17.55 67.8 12.05 48.05 15.75 41.95 8.6 40.6 Q-0.05 22.75 0.0 22.3 L3.3 21.35 76.95 0.0 82.2 17.35 77.25 23.4 84.65 23.25 89.85 42.8 Z" fill="none" stroke="#32200c" stroke-linecap="round" stroke-linejoin="round" stroke-width="4.0"/>
    <path d="M89.2 40.35 L89.85 42.8 17.55 67.8 12.05 48.05 15.75 41.95 8.6 40.6 Q-0.05 22.75 0.0 22.3 L3.3 21.35 10.85 37.1 17.95 38.45 14.25 44.5 19.75 64.2 89.2 40.35" fill="#452c10" fill-rule="evenodd" stroke="none"/>
    <path d="M3.3 21.35 L76.95 0.0 82.2 17.35 77.25 23.4 84.65 23.25 89.2 40.35 19.75 64.2 14.25 44.5 17.95 38.45 10.85 37.1 3.3 21.35" fill="url(#gradient0)" fill-rule="evenodd" stroke="none"/>
    <path d="M85.05 38.0 L85.2 38.35 81.75 39.85 77.9 41.1 77.5 41.05 77.4 40.9 Q77.85 40.25 80.75 39.35 84.05 38.35 84.75 37.9 L85.05 38.0 M77.3 10.4 L63.75 13.9 Q56.25 16.1 50.5 19.3 L51.95 19.45 Q55.5 19.45 59.45 18.3 L63.4 16.95 62.5 17.05 62.4 16.9 Q63.15 16.4 64.55 16.05 L65.75 16.05 65.85 16.1 65.9 16.45 Q65.9 17.25 59.5 18.75 53.55 20.15 51.9 20.15 L49.85 19.8 49.75 19.4 Q49.75 17.7 62.7 13.75 68.2 12.05 76.4 10.2 L77.3 10.4 M79.3 22.65 Q77.55 23.95 73.0 25.4 L68.8 26.55 68.15 26.35 Q70.25 25.2 79.2 22.35 L79.3 22.65 M41.45 19.15 L11.3 29.65 Q17.85 26.75 27.65 23.4 35.45 20.7 41.4 19.05 L41.45 19.15 M52.65 27.05 Q50.25 28.35 45.25 29.65 L37.6 31.45 29.45 34.1 Q22.7 36.3 21.95 36.3 L21.6 36.2 21.55 35.95 Q28.55 33.15 36.85 30.75 L52.3 26.7 52.65 27.05 M47.35 46.05 Q47.35 45.35 56.7 41.75 68.85 37.05 75.7 33.25 L46.85 40.25 Q32.75 43.7 20.55 48.15 L20.1 48.05 Q32.0 43.45 48.0 39.55 L78.15 32.25 78.3 32.4 Q74.5 34.55 60.5 40.45 47.9 45.75 47.9 46.0 47.9 46.5 48.05 46.35 L50.35 46.4 Q51.6 46.4 56.4 44.85 L61.85 43.0 62.35 42.8 Q61.4 42.65 58.7 43.45 L56.05 44.35 Q56.25 43.3 57.95 42.85 L63.6 42.15 64.05 42.5 Q62.7 43.35 57.4 45.15 51.9 47.05 50.4 47.05 L48.05 46.95 47.4 46.45 47.35 46.05 M77.75 26.45 Q76.35 27.15 71.8 28.25 70.55 28.5 68.0 29.6 L65.1 30.5 64.05 30.3 Q68.45 28.6 71.05 27.85 L77.75 26.45 M49.75 12.2 L29.3 18.35 29.25 18.15 68.6 5.7 49.75 12.2 M23.75 53.75 L23.8 53.45 29.0 51.9 Q32.15 50.9 33.0 51.35 L29.55 52.65 25.0 54.1 23.85 54.1 Q23.75 54.25 23.75 53.75" fill="#452c10" fill-opacity="0.6" fill-rule="evenodd" stroke="none"/>
    <path d="M64.6 72.0 Q66.6 72.3 66.45 78.8 L66.55 78.85 67.6 77.75 Q67.7 75.7 69.2 75.25 70.1 74.9 70.45 75.75 L70.7 75.85 70.9 76.0 70.95 77.85 70.95 79.1 73.9 78.95 Q74.65 79.65 74.65 80.05 74.65 81.3 72.6 81.95 L69.05 83.1 69.1 83.2 69.65 84.45 69.4 85.15 Q68.85 85.65 67.0 85.65 L64.85 85.25 64.1 84.9 61.95 86.3 59.65 87.65 59.35 87.65 59.25 87.65 58.25 87.6 58.15 86.95 Q58.15 86.35 58.5 85.9 L57.7 86.05 Q55.1 86.05 53.75 85.05 52.85 84.4 52.85 83.8 52.85 82.45 54.8 82.45 L60.3 82.65 60.05 82.45 58.4 81.0 58.45 80.8 57.65 79.35 Q57.65 78.55 58.55 78.55 59.5 78.55 60.95 79.35 L62.95 80.35 Q62.6 77.75 62.6 76.85 62.6 74.55 63.25 73.15 63.85 71.9 64.6 72.0 Z" fill="none" stroke="#158809" stroke-linecap="round" stroke-linejoin="round" stroke-width="4.0"/>
    <path d="M64.6 72.0 Q66.6 72.3 66.45 78.8 L66.55 78.85 67.6 77.75 Q67.7 75.7 69.2 75.25 70.1 74.9 70.45 75.75 L70.7 75.85 70.9 76.0 70.95 77.85 70.95 79.1 73.9 78.95 Q74.65 79.65 74.65 80.05 74.65 81.3 72.6 81.95 L69.05 83.1 69.1 83.2 69.65 84.45 69.4 85.15 Q68.85 85.65 67.0 85.65 L64.85 85.25 64.1 84.9 61.95 86.3 59.65 87.65 59.35 87.65 59.25 87.65 58.25 87.6 58.15 86.95 Q58.15 86.35 58.5 85.9 L57.7 86.05 Q55.1 86.05 53.75 85.05 52.85 84.4 52.85 83.8 52.85 82.45 54.8 82.45 L60.3 82.65 60.05 82.45 58.4 81.0 58.45 80.8 57.65 79.35 Q57.65 78.55 58.55 78.55 59.5 78.55 60.95 79.35 L62.95 80.35 Q62.6 77.75 62.6 76.85 62.6 74.55 63.25 73.15 63.85 71.9 64.6 72.0 M59.15 86.55 L59.25 86.45 59.25 86.4 59.15 86.55" fill="#3cad1f" fill-rule="evenodd" stroke="none"/>
  </g>
  <defs>
    <linearGradient gradientTransform="matrix(0.0206, -0.0332, 0.0314, 0.0195, 46.4, 30.3)" gradientUnits="userSpaceOnUse" id="gradient0" spreadMethod="pad" x1="-819.2" x2="819.2">
      <stop offset="0.0" stop-color="#6d461b"/>
      <stop offset="1.0" stop-color="#875621"/>
    </linearGradient>
  </defs>
</svg>
