<?xml version="1.0" encoding="UTF-8" standalone="no"?>
<svg xmlns:xlink="http://www.w3.org/1999/xlink" height="45.3px" width="48.45px" xmlns="http://www.w3.org/2000/svg">
  <g transform="matrix(1.0, 0.0, 0.0, 1.0, -8.3, -9.25)">
    <path d="M42.45 42.45 L42.6 32.8 Q47.2 30.7 51.4 32.8 L51.15 42.45 42.45 42.45 M14.7 33.45 L14.95 41.65 22.2 41.65 22.1 33.45 Q18.5 31.7 14.7 33.45 M50.7 33.45 Q47.2 31.7 43.3 33.45 L43.2 41.65 50.45 41.65 50.7 33.45 M14.0 32.8 Q18.45 30.7 22.8 32.8 L22.95 42.45 14.25 42.45 14.0 32.8" fill="#c19c86" fill-rule="evenodd" stroke="none"/>
    <path d="M50.7 33.45 L50.45 41.65 43.2 41.65 43.3 33.45 Q47.2 31.7 50.7 33.45 M14.7 33.45 Q18.5 31.7 22.1 33.45 L22.2 41.65 14.95 41.65 14.7 33.45 M39.0 31.5 L38.85 49.0 26.15 49.0 26.0 31.5 39.0 31.5" fill="#38271d" fill-rule="evenodd" stroke="none"/>
    <path d="M18.85 37.75 L18.15 37.75 18.05 32.0 18.8 32.0 18.85 37.75" fill="#c19c86" fill-rule="evenodd" stroke="none"/>
    <path d="M22.6 37.9 L14.35 37.9 14.3 37.2 22.6 37.2 22.6 37.9" fill="#c19c86" fill-rule="evenodd" stroke="none"/>
    <path d="M47.4 37.7 L46.65 37.65 46.8 31.9 47.5 31.95 47.4 37.7" fill="#c19c86" fill-rule="evenodd" stroke="none"/>
    <path d="M51.3 37.9 L43.05 37.9 43.0 37.2 51.3 37.2 51.3 37.9" fill="#c19c86" fill-rule="evenodd" stroke="none"/>
    <path d="M37.0 36.3 L37.55 36.7 37.5 46.65 32.75 46.65 32.8 35.6 35.15 35.95 Q36.2 35.85 37.0 36.3 M37.8 36.8 L38.7 36.8 38.6 46.75 37.7 46.75 37.8 36.8 M27.1 36.8 L27.2 46.75 26.35 46.75 26.25 36.8 27.1 36.8 M27.95 36.3 Q28.7 35.85 29.75 35.95 L32.15 35.6 32.15 46.65 27.45 46.65 27.4 36.7 27.95 36.3" fill="#7c563f" fill-rule="evenodd" stroke="none"/>
    <path d="M55.4 39.0 L9.95 40.5 9.7 32.0 55.65 32.0 55.4 39.0" fill="#000000" fill-opacity="0.2" fill-rule="evenodd" stroke="none"/>
    <path d="M49.8 33.35 L50.65 32.45 55.35 37.65 54.5 38.45 49.8 33.35 M9.85 37.35 L14.55 32.15 15.45 33.05 10.7 38.15 9.85 37.35" fill="#c19c86" fill-rule="evenodd" stroke="none"/>
    <path d="M56.1 31.05 L54.75 54.55 53.25 54.5 54.55 31.0 56.1 31.05 M10.55 31.2 L11.8 54.5 10.3 54.55 9.0 31.25 10.55 31.2" fill="#c19c86" fill-rule="evenodd" stroke="none"/>
    <path d="M56.4 34.15 L8.5 34.15 8.45 31.25 56.45 31.25 56.4 34.15" fill="#c19c86" fill-rule="evenodd" stroke="none"/>
    <path d="M56.6 32.3 L8.45 32.3 Q7.95 28.85 9.2 25.4 L55.9 25.4 Q57.05 28.85 56.6 32.3" fill="#c96134" fill-rule="evenodd" stroke="none"/>
    <path d="M54.45 26.9 L55.0 27.9 55.15 29.0 55.15 30.15 54.85 30.95 54.75 30.95 54.6 30.9 54.5 30.8 54.35 29.85 54.35 28.8 54.2 27.7 Q54.1 27.2 54.45 26.9 M52.75 26.85 Q53.2 27.15 53.3 27.7 L53.45 28.7 53.5 29.75 53.3 30.45 Q52.8 30.35 52.9 29.65 L52.85 28.6 52.55 27.55 Q52.35 27.05 52.75 26.85 M51.85 29.2 L51.85 30.25 51.6 30.95 Q51.05 30.8 51.1 30.1 L51.15 29.0 51.05 27.9 Q51.0 27.45 51.3 27.2 L51.75 28.15 51.85 29.2 M49.25 27.0 L49.3 26.95 49.4 26.9 49.5 26.85 Q50.05 27.15 50.15 27.8 L50.25 29.0 50.1 30.2 49.6 30.85 49.6 30.0 49.55 29.0 49.4 27.95 49.25 27.05 49.25 27.0 M46.0 26.85 L46.1 26.9 46.5 27.9 46.65 29.05 46.55 30.2 46.3 31.1 Q45.8 30.9 45.9 30.15 L45.9 29.0 45.65 27.8 Q45.5 27.4 45.7 26.95 L45.75 26.9 45.8 26.85 45.9 26.85 45.9 26.8 46.0 26.85 M47.7 26.75 L48.2 27.85 48.45 29.1 48.55 30.35 Q48.55 30.9 48.15 31.15 L48.05 31.1 47.95 31.1 47.9 31.0 47.9 30.95 47.85 29.95 47.7 28.85 47.45 27.65 Q47.25 27.05 47.7 26.75 M44.05 26.9 L44.15 26.95 44.4 28.0 44.5 29.2 44.6 30.45 Q44.65 31.0 44.3 31.4 L44.2 31.4 44.05 31.35 44.0 31.3 43.95 31.25 43.8 30.15 43.75 28.95 43.6 27.75 Q43.45 27.1 43.95 26.85 L44.05 26.9 M41.7 26.9 L41.75 26.85 41.8 26.85 41.85 26.8 41.9 26.8 42.0 26.8 42.15 26.85 42.2 26.85 42.45 27.9 42.45 29.15 42.5 30.35 42.3 31.3 Q41.8 31.1 41.75 30.3 L41.7 29.05 41.65 27.85 41.65 26.95 41.7 26.9 M40.7 28.95 L40.7 30.05 40.45 30.8 Q39.9 30.6 39.95 29.9 L40.0 28.75 39.9 27.55 Q39.85 27.15 40.1 26.9 L40.55 27.85 40.7 28.95 M19.5 26.95 Q19.85 27.25 19.8 27.8 L19.8 28.8 19.9 29.8 20.05 30.6 20.0 30.65 20.0 30.75 19.95 30.8 19.9 30.85 19.85 30.9 Q19.1 30.8 19.05 29.9 L19.05 28.7 19.1 27.5 Q19.15 27.1 19.5 26.95 M15.55 26.65 L15.65 26.7 15.7 26.75 15.85 27.8 15.85 28.95 15.95 30.1 16.0 31.05 15.9 31.1 15.9 31.15 15.85 31.15 15.6 31.15 15.25 30.0 15.25 28.75 15.2 27.45 Q15.2 26.9 15.55 26.65 M17.3 26.8 L17.45 26.8 17.45 26.75 17.55 26.8 17.65 26.85 17.7 27.8 17.65 28.85 17.75 29.9 17.8 30.85 17.75 30.9 17.65 30.95 17.35 30.95 Q16.95 30.55 16.95 29.95 L16.9 28.85 17.0 27.7 17.2 26.9 17.3 26.8 M13.35 26.65 L13.5 26.6 13.6 26.65 13.7 26.7 13.7 26.75 13.65 27.8 13.6 29.0 13.85 30.1 Q14.1 30.65 13.8 31.05 L13.65 31.1 13.5 31.05 13.45 31.0 13.4 30.95 13.1 29.95 12.95 28.8 13.0 27.7 13.25 26.75 13.3 26.7 13.35 26.65 M10.2 27.7 L10.0 28.8 10.1 29.9 10.05 30.8 Q9.5 30.6 9.5 29.85 L9.5 28.65 9.7 27.45 Q9.8 26.95 10.15 26.7 L10.25 26.7 10.35 26.7 10.4 26.75 10.45 26.8 10.2 27.7 M11.6 26.8 L11.7 26.8 11.7 26.75 Q11.95 27.2 11.85 27.75 L11.7 28.85 11.85 29.95 11.9 30.7 11.85 30.75 11.7 30.8 11.55 30.75 11.45 30.7 11.2 29.7 11.15 28.65 11.3 27.6 Q11.3 27.2 11.55 26.85 L11.6 26.8 M38.45 27.1 L38.7 28.05 38.75 29.1 38.85 30.15 38.65 30.85 Q38.1 30.65 38.25 29.9 L38.35 28.8 38.3 27.7 Q38.25 27.3 38.45 27.1 M36.2 26.95 L36.25 26.95 36.35 26.95 36.35 26.9 36.5 26.95 36.6 27.0 36.65 27.05 36.8 28.0 36.9 29.1 37.05 30.25 Q37.15 30.8 36.75 31.15 36.05 31.1 36.05 30.25 L36.05 29.0 35.95 27.75 Q35.9 27.3 36.15 27.0 L36.2 26.95 M34.9 26.9 L35.05 28.0 35.0 29.2 34.95 30.4 34.6 31.15 34.5 31.1 34.4 31.1 34.35 31.0 34.35 30.95 34.3 30.05 34.35 28.95 34.3 27.9 34.45 27.0 34.5 26.95 34.55 26.9 34.7 26.85 34.85 26.9 34.9 26.9 M30.8 26.8 L30.95 27.8 30.9 28.95 30.9 30.15 30.6 31.1 Q30.05 30.9 30.05 30.15 L30.1 28.9 30.1 27.7 30.3 26.8 30.4 26.75 30.45 26.75 30.55 26.7 30.7 26.75 30.8 26.8 M32.15 29.05 L32.15 27.9 Q32.15 27.4 32.5 27.1 32.9 27.5 32.85 28.15 L32.85 29.3 33.0 30.45 Q33.1 30.95 32.75 31.25 L32.7 31.25 32.6 31.25 32.35 31.15 32.3 31.15 32.15 30.15 32.15 29.05 M28.15 26.85 L28.3 26.85 28.3 26.8 28.4 26.85 28.5 26.9 28.65 27.9 28.65 29.0 28.75 30.1 28.75 31.0 28.7 31.05 28.6 31.1 28.3 31.1 Q27.95 30.7 27.95 30.1 L27.9 28.95 27.95 27.8 28.05 26.95 28.15 26.85 M26.1 26.85 L26.15 27.8 26.2 28.9 26.3 30.0 Q26.4 30.45 26.1 30.8 25.35 30.65 25.45 29.8 L25.5 28.6 25.5 27.4 Q25.5 26.9 25.85 26.75 L25.95 26.75 26.05 26.8 26.1 26.85 M23.95 26.9 L24.05 26.9 24.15 28.0 24.15 29.15 24.2 30.3 Q24.25 30.8 23.95 31.2 L23.85 31.2 23.7 31.15 23.65 31.1 23.6 31.05 23.5 30.0 23.55 28.85 23.5 27.7 Q23.45 27.1 23.85 26.85 L23.95 26.9 M21.9 27.0 L22.05 28.05 22.1 29.25 22.3 30.35 Q22.45 30.95 22.05 31.3 21.35 31.05 21.3 30.2 L21.3 28.85 21.3 27.6 Q21.3 27.05 21.7 26.9 L21.8 26.95 21.9 27.0" fill="url(#gradient0)" fill-rule="evenodd" stroke="none"/>
    <path d="M42.15 45.6 L42.0 54.15 40.85 54.15 40.95 45.6 42.15 45.6 M45.5 45.6 L45.35 54.15 44.2 54.15 44.35 45.6 45.5 45.6 M48.95 45.6 L48.7 54.15 47.55 54.15 47.75 45.6 48.95 45.6 M52.3 45.6 L52.05 54.15 50.9 54.15 51.15 45.6 52.3 45.6 M24.55 45.45 L24.65 54.0 23.45 54.0 23.35 45.45 24.55 45.45 M21.15 45.45 L21.3 54.0 20.15 54.0 20.0 45.45 21.15 45.45 M17.75 45.45 L17.95 54.0 16.75 54.0 16.55 45.45 17.75 45.45 M14.35 45.45 L14.6 54.0 13.45 54.0 13.2 45.45 14.35 45.45" fill="#c19c86" fill-rule="evenodd" stroke="none"/>
    <path d="M9.95 45.65 L9.95 44.3 24.45 44.3 24.45 45.65 9.95 45.65" fill="#c19c86" fill-rule="evenodd" stroke="none"/>
    <path d="M40.95 44.25 L54.9 44.25 54.9 45.6 40.95 45.6 40.95 44.25" fill="#c19c86" fill-rule="evenodd" stroke="none"/>
    <path d="M14.75 11.1 L17.5 11.1 17.55 12.35 Q33.1 9.5 48.75 12.35 L48.75 11.4 51.15 11.4 50.7 24.35 48.35 24.35 48.4 23.75 17.75 23.75 17.75 24.15 15.0 24.15 14.7 11.1 14.75 11.1" fill="#7c563f" fill-rule="evenodd" stroke="none"/>
    <path d="M14.75 11.1 L14.7 9.45 17.45 9.45 17.5 10.65 Q33.1 7.85 48.8 10.7 L48.8 9.7 51.2 9.7 51.15 11.4 48.75 11.4 48.75 12.35 Q33.1 9.5 17.55 12.35 L17.5 11.1 14.75 11.1" fill="#d5baac" fill-rule="evenodd" stroke="none"/>
  </g>
  <defs>
    <linearGradient gradientTransform="matrix(0.0, -0.0036, 0.9999, -0.0095, -29.0, 29.3)" gradientUnits="userSpaceOnUse" id="gradient0" spreadMethod="pad" x1="-819.2" x2="819.2">
      <stop offset="0.0" stop-color="#ffffff" stop-opacity="0.0"/>
      <stop offset="0.5411764705882353" stop-color="#ffffff" stop-opacity="0.49803922"/>
      <stop offset="1.0" stop-color="#ffffff" stop-opacity="0.0"/>
    </linearGradient>
  </defs>
</svg>
