<?xml version="1.0" encoding="UTF-8" standalone="no"?>
<svg xmlns:xlink="http://www.w3.org/1999/xlink" height="14.35px" width="15.8px" xmlns="http://www.w3.org/2000/svg">
  <g transform="matrix(1.0, 0.0, 0.0, 1.0, 1.25, 0.0)">
    <path d="M12.7 5.5 L8.55 8.95 10.05 14.35 5.75 11.2 1.4 14.35 2.9 8.95 -1.25 5.5 4.0 5.35 5.75 0.0 7.45 5.35 12.7 5.5" fill="#ff9900" fill-rule="evenodd" stroke="none"/>
    <path d="M10.05 14.35 L5.75 11.2 1.4 14.35 2.9 8.95 -1.25 5.5 4.0 5.35 5.75 0.0 7.45 5.35 12.7 5.5 8.55 8.95 10.05 14.35" fill="#ff9900" fill-rule="evenodd" stroke="none"/>
    <path d="M10.4 8.95 L11.9 14.35 7.6 11.2 3.25 14.35 4.75 8.95 0.6 5.5 5.85 5.35 7.6 0.0 9.3 5.35 14.55 5.5 10.4 8.95" fill="#ffcc00" fill-rule="evenodd" stroke="none"/>
    <path d="M10.4 8.95 L11.9 14.35 7.6 11.2 3.25 14.35 4.75 8.95 0.6 5.5 5.85 5.35 7.6 0.0 9.3 5.35 14.55 5.5 10.4 8.95" fill="#ffcc00" fill-rule="evenodd" stroke="none"/>
  </g>
</svg>
