<?xml version="1.0" encoding="UTF-8" standalone="no"?>
<svg xmlns:xlink="http://www.w3.org/1999/xlink" height="222.5px" width="227.55px" xmlns="http://www.w3.org/2000/svg">
  <g transform="matrix(1.0, 0.0, 0.0, 1.0, 116.2, 350.7)">
    <path d="M-40.95 -292.45 Q64.35 -226.8 64.6 -226.85 71.1 -239.95 74.6 -256.8 81.65 -290.5 66.95 -309.2 59.75 -318.45 27.55 -333.25 11.4 -340.65 -3.25 -346.2 L14.55 -314.9 Q38.35 -318.55 54.5 -304.5 40.15 -315.75 16.65 -313.9 8.45 -313.2 0.25 -310.95 -6.1 -309.3 -9.3 -307.6 14.05 -303.2 27.6 -296.8 45.85 -288.2 58.95 -271.5 37.4 -297.0 -12.8 -307.8 -23.1 -299.6 -40.95 -292.45" fill="#62594e" fill-rule="evenodd" stroke="none"/>
    <path d="M-40.95 -292.45 Q64.35 -226.8 64.6 -226.85 71.1 -239.95 74.6 -256.8 81.65 -290.5 66.95 -309.2 59.75 -318.45 27.55 -333.25 11.4 -340.65 -3.25 -346.2 L14.55 -314.9 Q38.35 -318.55 54.5 -304.5 40.15 -315.75 16.65 -313.9 8.45 -313.2 0.25 -310.95 -6.1 -309.3 -9.3 -307.6 14.05 -303.2 27.6 -296.8 45.85 -288.2 58.95 -271.5 37.4 -297.0 -12.8 -307.8 -23.1 -299.6 -40.95 -292.45 Z" fill="none" stroke="#1c1a17" stroke-linecap="round" stroke-linejoin="round" stroke-width="9.0"/>
    <path d="M-40.95 -292.45 Q64.35 -226.8 64.6 -226.85 71.1 -239.95 74.6 -256.8 81.65 -290.5 66.95 -309.2 59.75 -318.45 27.55 -333.25 11.4 -340.65 -3.25 -346.2 L14.55 -314.9 Q38.35 -318.55 54.5 -304.5 40.15 -315.75 16.65 -313.9 8.45 -313.2 0.25 -310.95 -6.1 -309.3 -9.3 -307.6 14.05 -303.2 27.6 -296.8 45.85 -288.2 58.95 -271.5 37.4 -297.0 -12.8 -307.8 -23.1 -299.6 -40.95 -292.45" fill="#62594e" fill-rule="evenodd" stroke="none"/>
    <path d="M48.75 -313.5 L51.5 -311.6 Q54.8 -309.0 57.7 -306.05 67.0 -296.5 68.5 -286.1 70.0 -275.75 61.85 -269.05 57.8 -265.75 53.45 -264.5 63.7 -257.95 74.85 -258.0 80.55 -286.65 70.3 -304.35 62.65 -311.45 48.75 -313.5" fill="#ffbf1e" fill-rule="evenodd" stroke="none"/>
    <path d="M18.5 -321.75 Q23.45 -327.3 22.05 -335.65 L22.05 -335.75 Q8.9 -341.6 -3.25 -346.2 L12.95 -317.7 Q16.1 -319.05 18.5 -321.75" fill="#ffbf1e" fill-rule="evenodd" stroke="none"/>
    <path d="M38.65 -292.45 Q41.75 -289.7 45.35 -289.4 49.0 -289.05 51.0 -291.35 53.05 -293.65 52.3 -297.2 51.55 -300.7 48.45 -303.45 45.4 -306.2 41.85 -306.5 38.2 -306.85 36.15 -304.55 34.15 -302.25 34.9 -298.7 35.6 -295.2 38.65 -292.45" fill="#ffbf1e" fill-rule="evenodd" stroke="none"/>
    <path d="M24.95 -302.55 Q-18.75 -317.3 -57.65 -304.0 -96.6 -290.7 -107.95 -257.1 -119.3 -223.55 -96.35 -189.35 -73.45 -155.2 -29.75 -140.45 13.95 -125.7 52.85 -139.0 91.75 -152.3 103.1 -185.85 114.45 -219.45 91.55 -253.65 68.65 -287.8 24.95 -302.55" fill="#62594e" fill-rule="evenodd" stroke="none"/>
    <path d="M24.95 -302.55 Q-18.75 -317.3 -57.65 -304.0 -96.6 -290.7 -107.95 -257.1 -119.3 -223.55 -96.35 -189.35 -73.45 -155.2 -29.75 -140.45 13.95 -125.7 52.85 -139.0 91.75 -152.3 103.1 -185.85 114.45 -219.45 91.55 -253.65 68.65 -287.8 24.95 -302.55 Z" fill="none" stroke="#1c1a17" stroke-linecap="round" stroke-linejoin="round" stroke-width="9.0"/>
    <path d="M24.95 -302.55 Q-18.75 -317.3 -57.65 -304.0 -96.6 -290.7 -107.95 -257.1 -119.3 -223.55 -96.35 -189.35 -73.45 -155.2 -29.75 -140.45 13.95 -125.7 52.85 -139.0 91.75 -152.3 103.1 -185.85 114.45 -219.45 91.55 -253.65 68.65 -287.8 24.95 -302.55" fill="#413c35" fill-rule="evenodd" stroke="none"/>
  </g>
</svg>
