<?xml version="1.0" encoding="UTF-8" standalone="no"?>
<svg xmlns:xlink="http://www.w3.org/1999/xlink" height="196.6px" width="248.25px" xmlns="http://www.w3.org/2000/svg">
  <g transform="matrix(1.0, 0.0, 0.0, 1.0, 123.4, 98.45)">
    <path d="M50.95 -88.05 Q76.9 -78.45 84.55 -55.6 96.15 -20.95 88.6 23.6 L87.0 32.15 Q91.05 31.0 95.75 31.25 105.9 31.8 113.15 38.7 120.5 45.6 120.35 54.85 120.2 64.05 112.6 69.9 105.05 75.55 94.85 74.65 84.75 73.5 78.0 66.55 L76.85 65.3 Q73.7 72.65 70.55 77.4 66.3 83.8 48.5 88.15 32.4 92.05 10.25 93.2 -11.35 94.35 -29.2 92.4 -48.2 90.3 -54.9 85.4 -61.1 80.85 -67.75 69.9 -70.0 74.35 -73.8 78.15 -82.65 87.05 -94.3 87.1 -105.75 87.1 -112.9 78.6 -119.85 70.3 -118.75 58.7 -117.75 47.35 -109.55 39.1 -101.4 30.85 -90.55 30.25 L-84.3 30.6 Q-95.8 -10.05 -86.4 -42.1 -80.8 -61.1 -56.2 -75.4 -33.0 -88.9 -3.2 -92.7 27.7 -96.65 50.95 -88.05" fill="#70381f" fill-rule="evenodd" stroke="none"/>
    <path d="M50.95 -88.05 Q27.7 -96.65 -3.2 -92.7 -33.0 -88.9 -56.2 -75.4 -80.8 -61.1 -86.4 -42.1 -95.8 -10.05 -84.3 30.6 L-90.55 30.25 Q-101.4 30.85 -109.55 39.1 -117.75 47.35 -118.75 58.7 -119.85 70.3 -112.9 78.6 -105.75 87.1 -94.3 87.1 -82.65 87.05 -73.8 78.15 -70.0 74.35 -67.75 69.9 -61.1 80.85 -54.9 85.4 -48.2 90.3 -29.2 92.4 -11.35 94.35 10.25 93.2 32.4 92.05 48.5 88.15 66.3 83.8 70.55 77.4 73.7 72.65 76.85 65.3 L78.0 66.55 Q84.75 73.5 94.85 74.65 105.05 75.55 112.6 69.9 120.2 64.05 120.35 54.85 120.5 45.6 113.15 38.7 105.9 31.8 95.75 31.25 91.05 31.0 87.0 32.15 L88.6 23.6 Q96.15 -20.95 84.55 -55.6 76.9 -78.45 50.95 -88.05 Z" fill="none" stroke="#3c190a" stroke-linecap="round" stroke-linejoin="round" stroke-width="9.0"/>
    <path d="M-90.55 30.25 Q-79.55 29.55 -71.9 37.2 -64.05 45.05 -64.5 57.0 -64.95 69.2 -73.8 78.15 -82.65 87.05 -94.3 87.1 -105.75 87.1 -112.9 78.6 -119.85 70.3 -118.75 58.7 -117.75 47.35 -109.55 39.1 -101.4 30.85 -90.55 30.25" fill="#70381f" fill-rule="evenodd" stroke="none"/>
    <path d="M-83.15 39.65 Q-75.6 39.15 -70.3 44.45 -64.95 49.8 -65.25 58.05 -65.55 66.45 -71.65 72.6 -77.7 78.7 -85.7 78.75 -93.6 78.75 -98.5 72.9 -103.3 67.2 -102.55 59.2 -101.85 51.4 -96.2 45.75 -90.6 40.05 -83.15 39.65" fill="#bf7926" fill-rule="evenodd" stroke="none"/>
    <path d="M95.75 31.25 Q105.9 31.8 113.15 38.7 120.5 45.6 120.35 54.85 120.2 64.05 112.6 69.9 105.05 75.55 94.85 74.65 84.75 73.5 78.0 66.55 71.3 59.7 71.5 50.95 71.5 49.75 71.75 48.65 72.65 41.4 78.7 36.55 85.75 30.7 95.75 31.25" fill="#70381f" fill-rule="evenodd" stroke="none"/>
    <path d="M103.7 42.75 Q109.1 47.8 108.95 54.55 108.85 61.25 103.3 65.55 97.8 69.65 90.4 69.0 83.0 68.1 78.1 63.05 73.2 58.05 73.35 51.7 L73.55 50.05 Q74.2 44.7 78.6 41.15 83.75 36.95 91.05 37.35 98.45 37.7 103.7 42.75" fill="#bf7926" fill-rule="evenodd" stroke="none"/>
    <path d="M92.3 31.25 Q89.3 46.05 84.65 59.45 82.6 65.25 80.55 70.0 L80.9 69.15 78.0 66.55 Q71.3 59.7 71.5 50.95 71.5 49.75 71.75 48.65 72.65 41.4 78.7 36.55 84.5 31.75 92.3 31.25 M-87.65 37.1 L-89.6 30.2 Q-79.25 29.85 -71.9 37.2 -64.05 45.05 -64.5 57.0 -64.85 67.05 -70.9 74.85 L-73.55 70.4 Q-81.95 55.65 -87.65 37.1" fill="#620000" fill-opacity="0.2" fill-rule="evenodd" stroke="none"/>
    <path d="M84.55 -55.6 Q96.15 -20.95 88.6 23.6 85.65 40.95 80.25 56.3 75.45 70.05 70.55 77.4 66.3 83.8 48.5 88.15 32.4 92.05 10.25 93.2 -11.35 94.35 -29.2 92.4 -48.2 90.3 -54.9 85.4 -62.0 80.2 -69.65 66.7 -77.6 52.7 -83.0 35.1 -96.3 -8.25 -86.4 -42.1 -80.8 -61.1 -56.2 -75.4 -33.0 -88.9 -3.2 -92.7 27.7 -96.65 50.95 -88.05 76.9 -78.45 84.55 -55.6" fill="#70381f" fill-rule="evenodd" stroke="none"/>
    <path d="M6.25 -17.05 L6.4 -17.45 Q13.05 -34.7 25.35 -41.0 38.2 -47.6 56.0 -41.6 L60.25 -39.9 Q81.15 -29.4 81.9 4.75 82.15 16.95 79.7 29.6 77.65 40.3 75.2 44.8 71.65 51.35 60.7 54.6 57.25 55.6 53.5 56.15 L50.45 56.5 53.85 60.0 Q57.7 65.1 59.75 72.9 61.35 78.7 60.25 84.4 55.35 86.45 48.35 88.15 32.35 92.05 10.25 93.2 -11.3 94.35 -29.25 92.4 -46.3 90.5 -53.55 86.4 -60.85 76.75 -60.6 69.15 -60.35 61.35 -52.95 54.85 -49.3 51.6 -45.65 49.9 -51.75 50.05 -58.65 47.8 -72.4 43.4 -76.95 31.65 -80.1 23.55 -80.5 11.55 -80.95 -2.55 -76.9 -14.25 -66.05 -45.8 -29.2 -44.0 -20.25 -43.55 -14.45 -36.15 -8.75 -28.85 -4.4 -12.6 -0.25 3.25 0.55 18.9 0.4 14.4 0.95 7.6 2.25 -6.5 6.25 -17.05" fill="#bf7926" fill-rule="evenodd" stroke="none"/>
    <path d="M-13.55 19.25 Q-13.55 28.3 -20.65 34.7 -27.65 41.1 -37.6 41.1 -47.6 41.1 -54.65 34.7 -61.7 28.3 -61.7 19.25 -61.7 10.2 -54.65 3.8 -47.6 -2.6 -37.6 -2.6 -27.65 -2.6 -20.65 3.8 -13.55 10.2 -13.55 19.25" fill="#ffffff" fill-rule="evenodd" stroke="none"/>
    <path d="M-13.55 19.25 Q-13.55 28.3 -20.65 34.7 -27.65 41.1 -37.6 41.1 -47.6 41.1 -54.65 34.7 -61.7 28.3 -61.7 19.25 -61.7 10.2 -54.65 3.8 -47.6 -2.6 -37.6 -2.6 -27.65 -2.6 -20.65 3.8 -13.55 10.2 -13.55 19.25 Z" fill="none" stroke="#a8620f" stroke-linecap="round" stroke-linejoin="round" stroke-width="8.0"/>
    <path d="M23.1 19.25 Q23.1 28.3 29.25 34.7 35.35 41.1 44.0 41.1 52.65 41.1 58.75 34.7 64.85 28.3 64.85 19.25 64.85 10.2 58.75 3.8 52.65 -2.6 44.0 -2.6 35.35 -2.6 29.25 3.8 23.1 10.2 23.1 19.25" fill="#ffffff" fill-rule="evenodd" stroke="none"/>
    <path d="M23.1 19.25 Q23.1 28.3 29.25 34.7 35.35 41.1 44.0 41.1 52.65 41.1 58.75 34.7 64.85 28.3 64.85 19.25 64.85 10.2 58.75 3.8 52.65 -2.6 44.0 -2.6 35.35 -2.6 29.25 3.8 23.1 10.2 23.1 19.25 Z" fill="none" stroke="#a8620f" stroke-linecap="round" stroke-linejoin="round" stroke-width="8.0"/>
    <path d="M-13.55 19.25 Q-13.55 28.3 -20.65 34.7 -27.65 41.1 -37.6 41.1 -47.6 41.1 -54.65 34.7 -61.7 28.3 -61.7 19.25 -61.7 10.2 -54.65 3.8 -47.6 -2.6 -37.6 -2.6 -27.65 -2.6 -20.65 3.8 -13.55 10.2 -13.55 19.25" fill="#ffffff" fill-rule="evenodd" stroke="none"/>
    <path d="M23.1 19.25 Q23.1 28.3 29.25 34.7 35.35 41.1 44.0 41.1 52.65 41.1 58.75 34.7 64.85 28.3 64.85 19.25 64.85 10.2 58.75 3.8 52.65 -2.6 44.0 -2.6 35.35 -2.6 29.25 3.8 23.1 10.2 23.1 19.25" fill="#ffffff" fill-rule="evenodd" stroke="none"/>
  </g>
</svg>
