<?xml version="1.0" encoding="UTF-8" standalone="no"?>
<svg xmlns:xlink="http://www.w3.org/1999/xlink" height="37.1px" width="31.65px" xmlns="http://www.w3.org/2000/svg">
  <g transform="matrix(1.0, 0.0, 0.0, 1.0, 15.8, 18.0)">
    <path d="M-10.35 -13.5 Q-9.35 -11.2 -7.95 -10.3 L-6.85 -11.0 Q-7.55 -11.9 -8.9 -12.6 -7.15 -12.75 -5.45 -11.7 -5.8 -13.15 -7.25 -14.75 -5.15 -14.2 -3.7 -12.35 L0.0 -12.8 Q5.7 -12.8 9.7 -8.8 13.75 -4.75 13.75 0.95 13.75 5.75 10.9 9.35 11.95 10.0 12.55 11.1 11.15 10.3 10.05 10.35 L9.7 10.7 9.45 10.9 Q10.55 12.25 10.55 13.8 9.65 12.5 8.65 12.0 9.1 13.4 8.75 14.6 8.35 13.15 7.55 12.5 4.25 14.75 0.0 14.75 -5.7 14.75 -9.75 10.7 -13.8 6.65 -13.8 0.95 -13.8 -3.8 -10.95 -7.4 -12.85 -9.3 -13.25 -11.65 -11.35 -9.65 -9.55 -9.05 -10.75 -11.3 -10.35 -13.5" fill="#ffffff" fill-rule="evenodd" stroke="none"/>
    <path d="M-10.35 -13.5 Q-9.35 -11.2 -7.95 -10.3 L-6.85 -11.0 Q-7.55 -11.9 -8.9 -12.6 -7.15 -12.75 -5.45 -11.7 -5.8 -13.15 -7.25 -14.75 -5.15 -14.2 -3.7 -12.35 L0.0 -12.8 Q5.7 -12.8 9.7 -8.8 13.75 -4.75 13.75 0.95 13.75 5.75 10.9 9.35 11.95 10.0 12.55 11.1 11.15 10.3 10.05 10.35 L9.7 10.7 9.45 10.9 Q10.55 12.25 10.55 13.8 9.65 12.5 8.65 12.0 9.1 13.4 8.75 14.6 8.35 13.15 7.55 12.5 4.25 14.75 0.0 14.75 -5.7 14.75 -9.75 10.7 -13.8 6.65 -13.8 0.95 -13.8 -3.8 -10.95 -7.4 -12.85 -9.3 -13.25 -11.65 -11.35 -9.65 -9.55 -9.05 -10.75 -11.3 -10.35 -13.5 Z" fill="none" stroke="#3c190a" stroke-linecap="square" stroke-linejoin="miter" stroke-miterlimit="3.0" stroke-width="3.0"/>
    <path d="M-10.35 -13.5 Q-9.35 -11.2 -7.95 -10.3 L-6.85 -11.0 Q-7.55 -11.9 -8.9 -12.6 -7.15 -12.75 -5.45 -11.7 -5.8 -13.15 -7.25 -14.75 -5.15 -14.2 -3.7 -12.35 L0.0 -12.8 Q5.7 -12.8 9.7 -8.8 13.75 -4.75 13.75 0.95 13.75 5.75 10.9 9.35 11.95 10.0 12.55 11.1 11.15 10.3 10.05 10.35 L9.7 10.7 9.45 10.9 Q10.55 12.25 10.55 13.8 9.65 12.5 8.65 12.0 9.1 13.4 8.75 14.6 8.35 13.15 7.55 12.5 4.25 14.75 0.0 14.75 -5.7 14.75 -9.75 10.7 -13.8 6.65 -13.8 0.95 -13.8 -3.8 -10.95 -7.4 -12.85 -9.3 -13.25 -11.65 -11.35 -9.65 -9.55 -9.05 -10.75 -11.3 -10.35 -13.5" fill="#70381f" fill-rule="evenodd" stroke="none"/>
    <path d="M-3.8 -6.0 Q-4.4 -5.35 -5.35 -5.35 -6.25 -5.35 -6.9 -6.0 -7.55 -6.6 -7.55 -7.6 -7.55 -8.5 -6.9 -9.1 -6.25 -9.75 -5.35 -9.75 -4.4 -9.75 -3.8 -9.1 -3.15 -8.5 -3.15 -7.6 -3.15 -6.6 -3.8 -6.0" fill="#3c190a" fill-rule="evenodd" stroke="none"/>
    <path d="M-4.7 0.0 Q-5.3 0.65 -6.25 0.65 -7.15 0.65 -7.8 0.0 -8.45 -0.6 -8.45 -1.6 -8.45 -2.5 -7.8 -3.1 -7.15 -3.75 -6.25 -3.75 -5.3 -3.75 -4.7 -3.1 -4.05 -2.5 -4.05 -1.6 -4.05 -0.6 -4.7 0.0" fill="#3c190a" fill-rule="evenodd" stroke="none"/>
    <path d="M1.3 -1.75 Q0.7 -1.1 -0.25 -1.1 -1.15 -1.1 -1.8 -1.75 -2.45 -2.35 -2.45 -3.35 -2.45 -4.25 -1.8 -4.85 -1.15 -5.5 -0.25 -5.5 0.7 -5.5 1.3 -4.85 1.95 -4.25 1.95 -3.35 1.95 -2.35 1.3 -1.75" fill="#3c190a" fill-rule="evenodd" stroke="none"/>
    <path d="M10.9 6.65 Q12.55 4.95 13.65 3.1 13.1 6.55 10.9 9.35 11.95 10.0 12.55 11.1 11.15 10.3 10.05 10.35 L9.7 10.7 9.45 10.9 Q10.55 12.25 10.55 13.8 9.65 12.5 8.65 12.0 9.1 13.4 8.75 14.6 8.35 13.15 7.55 12.5 4.25 14.75 0.0 14.75 -5.7 14.75 -9.75 10.7 -12.0 8.45 -12.95 5.75 L-12.15 6.65 Q-7.4 11.4 -0.65 11.4 6.1 11.4 10.9 6.65" fill="#54230d" fill-rule="evenodd" stroke="none"/>
  </g>
</svg>
