<?xml version="1.0" encoding="UTF-8" standalone="no"?>
<svg xmlns:xlink="http://www.w3.org/1999/xlink" height="241.4px" width="243.4px" xmlns="http://www.w3.org/2000/svg">
  <g transform="matrix(1.0, 0.0, 0.0, 1.0, 151.25, 81.9)">
    <path d="M-146.75 114.1 Q-145.7 130.85 -112.4 142.65 -78.05 155.0 -29.55 155.0 19.0 155.0 53.3 142.65 86.6 130.85 87.6 114.1 L87.65 114.1 87.65 -31.05 -146.75 -31.05 -146.75 114.1" fill="#ffffff" fill-rule="evenodd" stroke="none"/>
    <path d="M-146.75 114.1 Q-145.7 130.85 -112.4 142.65 -78.05 155.0 -29.55 155.0 19.0 155.0 53.3 142.65 86.6 130.85 87.6 114.1 L87.65 114.1 87.65 -31.05 -146.75 -31.05 -146.75 114.1 Z" fill="none" stroke="#3c3c3c" stroke-linecap="round" stroke-linejoin="round" stroke-width="9.0"/>
    <path d="M-119.65 -30.5 Q-119.65 -41.15 -93.25 -48.7 -66.85 -56.15 -29.55 -56.15 7.75 -56.15 34.15 -48.7 60.55 -41.15 60.55 -30.5 60.55 -19.8 34.15 -12.4 7.75 -4.85 -29.55 -4.85 -66.85 -4.85 -93.25 -12.4 -119.65 -19.8 -119.65 -30.5 -119.65 -19.8 -93.25 -12.4 -66.85 -4.85 -29.55 -4.85 7.75 -4.85 34.15 -12.4 60.55 -19.8 60.55 -30.5 60.55 -41.15 34.15 -48.7 7.75 -56.15 -29.55 -56.15 -66.85 -56.15 -93.25 -48.7 -119.65 -41.15 -119.65 -30.5 M-29.55 10.55 Q19.0 10.55 53.35 -1.7 87.65 -13.75 87.65 -31.1 87.65 -48.45 53.35 -60.7 19.0 -72.75 -29.55 -72.75 -78.05 -72.75 -112.4 -60.7 -146.75 -48.45 -146.75 -31.1 -146.75 -13.75 -112.4 -1.7 -78.05 10.55 -29.55 10.55" fill="#ffffff" fill-rule="evenodd" stroke="none"/>
    <path d="M-119.65 -30.5 Q-119.65 -19.8 -93.25 -12.4 -66.85 -4.85 -29.55 -4.85 7.75 -4.85 34.15 -12.4 60.55 -19.8 60.55 -30.5 60.55 -41.15 34.15 -48.7 7.75 -56.15 -29.55 -56.15 -66.85 -56.15 -93.25 -48.7 -119.65 -41.15 -119.65 -30.5 M-29.55 10.55 Q19.0 10.55 53.35 -1.7 87.65 -13.75 87.65 -31.1 87.65 -48.45 53.35 -60.7 19.0 -72.75 -29.55 -72.75 -78.05 -72.75 -112.4 -60.7 -146.75 -48.45 -146.75 -31.1 -146.75 -13.75 -112.4 -1.7 -78.05 10.55 -29.55 10.55" fill="none" stroke="#3c3c3c" stroke-linecap="round" stroke-linejoin="miter" stroke-miterlimit="3.0" stroke-width="9.0"/>
    <path d="M-146.75 114.1 Q-145.7 130.85 -112.4 142.65 -78.05 155.0 -29.55 155.0 19.0 155.0 53.3 142.65 86.6 130.85 87.6 114.1 L87.65 114.1 87.65 -31.05 -146.75 -31.05 -146.75 114.1" fill="#727272" fill-rule="evenodd" stroke="none"/>
    <path d="M-146.85 14.65 L-146.85 69.2 Q-145.8 85.95 -112.4 97.75 -78.0 110.15 -29.4 110.15 19.25 110.15 53.65 97.75 87.0 85.95 88.0 69.2 L88.05 69.2 88.05 14.65 88.0 14.65 Q87.0 31.4 53.65 43.15 19.25 55.55 -29.4 55.55 -78.0 55.55 -112.4 43.15 -145.8 31.4 -146.85 14.65" fill="#959595" fill-rule="evenodd" stroke="none"/>
    <path d="M88.0 14.65 L88.1 14.65 88.1 44.85 88.0 44.85 Q87.0 61.6 53.7 73.4 19.25 85.8 -29.4 85.8 -78.0 85.8 -112.4 73.4 -145.8 61.6 -146.85 44.85 L-146.85 14.65 Q-145.8 31.4 -112.4 43.2 -78.0 55.55 -29.4 55.55 19.25 55.55 53.7 43.2 87.0 31.4 88.0 14.65" fill="#3c3c3c" fill-rule="evenodd" stroke="none"/>
    <path d="M-110.15 44.0 L-110.55 43.85 Q-93.15 49.85 -72.2 52.8 L-72.2 83.0 -87.55 104.7 -100.6 101.55 -102.5 93.4 Q-107.95 70.55 -111.0 68.85 L-111.0 43.7 -110.15 44.0" fill="#4a4545" fill-rule="evenodd" stroke="none"/>
    <path d="M-112.45 39.3 Q-100.75 44.05 -87.45 47.15 L-87.45 109.05 Q-100.75 105.9 -112.45 101.1 L-121.2 97.3 -121.2 35.4 Q-117.1 37.45 -112.45 39.3" fill="#727272" fill-rule="evenodd" stroke="none"/>
    <path d="M51.3 44.0 L51.7 43.85 Q34.3 49.85 13.35 52.8 L13.35 83.0 28.7 104.7 41.75 101.55 43.65 93.4 Q49.1 70.55 52.15 68.85 L52.15 43.7 51.3 44.0" fill="#4a4545" fill-rule="evenodd" stroke="none"/>
    <path d="M62.3 35.4 Q58.25 37.45 53.55 39.3 41.9 44.05 28.55 47.2 L28.55 109.1 Q41.9 105.9 53.55 101.15 L62.3 97.3 62.3 35.4" fill="#727272" fill-rule="evenodd" stroke="none"/>
    <path d="M-146.8 -31.1 L87.65 -31.1 87.65 17.35 Q84.25 32.35 53.7 43.2 19.25 55.5 -29.4 55.5 -78.05 55.5 -112.45 43.2 -145.05 31.65 -146.8 15.35 L-146.8 -31.1" fill="#727272" fill-rule="evenodd" stroke="none"/>
    <path d="M-96.0 -11.6 Q-123.55 -19.35 -123.55 -30.5 -123.55 -41.65 -96.0 -49.5 -68.45 -57.2 -29.6 -57.2 9.35 -57.2 36.95 -49.5 64.5 -41.65 64.5 -30.5 64.5 -19.35 36.95 -11.6 9.35 -3.75 -29.6 -3.75 -68.45 -3.75 -96.0 -11.6" fill="#626262" fill-rule="evenodd" stroke="none"/>
    <path d="M64.45 -30.55 Q64.45 -19.35 36.95 -11.65 19.35 -6.65 -2.8 -4.85 L46.35 -46.4 Q64.45 -39.55 64.45 -30.55 M-23.4 -57.15 Q0.95 -56.8 20.65 -53.25 L-37.7 -3.9 Q-61.9 -4.45 -81.4 -8.2 L-23.4 -57.15 M-123.6 -30.55 Q-123.6 -41.7 -96.05 -49.55 -80.25 -53.95 -60.75 -55.85 L-108.2 -15.75 Q-123.6 -22.2 -123.6 -30.55" fill="#ffcc00" fill-rule="evenodd" stroke="none"/>
    <path d="M-69.45 -42.2 Q-86.0 -37.7 -86.0 -31.4 -86.0 -25.1 -69.45 -20.7 -52.95 -16.25 -29.55 -16.25 -6.15 -16.25 10.35 -20.7 26.9 -25.1 26.9 -31.4 26.9 -37.7 10.35 -42.2 -6.15 -46.6 -29.55 -46.6 -52.95 -46.6 -69.45 -42.2" fill="#000000" fill-rule="evenodd" stroke="none"/>
    <path d="M-63.45 -55.85 Q-56.15 -57.35 -47.65 -58.1 L-47.65 -17.0 Q-56.15 -17.75 -63.45 -19.25 L-63.45 -55.85" fill="#727272" fill-rule="evenodd" stroke="none"/>
    <path d="M-119.65 -30.5 Q-119.65 -41.15 -93.25 -48.7 -66.85 -56.15 -29.55 -56.15 7.75 -56.15 34.15 -48.7 60.55 -41.15 60.55 -30.5 60.55 -19.8 34.15 -12.4 7.75 -4.85 -29.55 -4.85 -66.85 -4.85 -93.25 -12.4 -119.65 -19.8 -119.65 -30.5 M-29.55 10.55 Q19.0 10.55 53.35 -1.7 87.65 -13.75 87.65 -31.1 87.65 -48.45 53.35 -60.7 19.0 -72.75 -29.55 -72.75 -78.05 -72.75 -112.4 -60.7 -146.75 -48.45 -146.75 -31.1 -146.75 -13.75 -112.4 -1.7 -78.05 10.55 -29.55 10.55" fill="#959595" fill-rule="evenodd" stroke="none"/>
    <path d="M-132.9 -32.9 Q-132.9 -18.3 -102.6 -8.2 -72.3 2.1 -29.5 2.1 13.3 2.1 43.65 -8.2 73.9 -18.3 73.9 -32.9 73.9 -47.5 43.65 -57.8 13.3 -67.9 -29.5 -67.9 -72.3 -67.9 -102.6 -57.8 -132.9 -47.5 -132.9 -32.9 M-119.65 -30.5 Q-119.65 -41.15 -93.25 -48.7 -66.85 -56.15 -29.55 -56.15 7.75 -56.15 34.15 -48.7 60.55 -41.15 60.55 -30.5 60.55 -19.8 34.15 -12.4 7.75 -4.85 -29.55 -4.85 -66.85 -4.85 -93.25 -12.4 -119.65 -19.8 -119.65 -30.5" fill="#4a4545" fill-rule="evenodd" stroke="none"/>
    <path d="M-25.05 -18.2 Q-28.7 -16.8 -34.1 -19.5 -39.85 -22.1 -44.1 -27.6 L-44.15 -27.65 Q-48.1 -32.6 -48.9 -37.3 L-1.6 -58.05 Q-0.85 -53.35 3.1 -48.45 L3.15 -48.4 Q7.5 -42.9 13.15 -40.25 18.65 -37.6 22.25 -38.95 -1.35 -28.6 -25.05 -18.2" fill="#727272" fill-rule="evenodd" stroke="none"/>
    <path d="M87.65 71.95 L87.65 114.05 87.55 114.05 Q86.6 130.8 53.3 142.6 18.95 154.95 -29.55 154.95 -78.1 154.95 -112.45 142.6 -145.7 130.8 -146.8 114.05 L-146.8 69.2 Q-145.75 85.95 -112.35 97.7 -77.95 110.15 -29.4 110.15 19.25 110.15 53.7 97.7 84.25 86.9 87.65 71.95" fill="#727272" fill-rule="evenodd" stroke="none"/>
    <path d="M9.1 -42.55 Q10.4 -40.45 10.4 -37.85 L10.4 -20.7 Q1.9 -18.45 -8.4 -17.25 L-8.4 -37.85 Q-8.4 -41.7 -5.65 -44.45 L-4.85 -45.15 Q2.6 -44.2 9.1 -42.55" fill="#727272" fill-rule="evenodd" stroke="none"/>
    <path d="M-32.5 -81.9 Q-33.95 -59.6 -17.7 -57.95 L-78.5 -34.7 Q-94.75 -36.35 -93.3 -58.65 L-32.5 -81.9" fill="#959595" fill-rule="evenodd" stroke="none"/>
  </g>
</svg>
