<?xml version="1.0" encoding="UTF-8" standalone="no"?>
<svg xmlns:xlink="http://www.w3.org/1999/xlink" height="257.45px" width="380.0px" xmlns="http://www.w3.org/2000/svg">
  <g transform="matrix(1.0, 0.0, 0.0, 1.0, 195.3, 128.5)">
    <path d="M124.65 -68.45 L145.35 -67.6 Q171.1 -64.35 180.05 -51.5 182.15 -48.5 183.35 -44.95 189.65 -26.25 166.65 -3.9 149.1 13.2 122.3 24.85 118.7 36.45 105.55 49.25 82.7 71.55 44.0 84.55 37.5 86.65 31.15 88.35 9.15 107.55 -25.5 119.1 -61.1 131.0 -90.9 128.5 L-95.85 128.0 Q-111.4 126.0 -120.85 120.55 -127.05 116.9 -130.6 111.8 -132.7 108.75 -133.9 105.25 -136.8 96.65 -133.45 87.3 L-132.55 85.15 Q-162.05 80.65 -168.1 62.75 -170.95 54.1 -167.6 44.8 -188.95 39.2 -194.0 24.25 -200.2 5.55 -177.25 -16.75 -162.35 -31.2 -140.95 -41.75 L-141.15 -42.4 Q-147.35 -61.05 -124.4 -83.35 -101.45 -105.75 -62.8 -118.65 -24.15 -131.6 7.55 -127.5 33.6 -124.2 42.5 -111.05 67.3 -116.15 88.85 -113.35 120.65 -109.35 126.85 -90.7 130.4 -80.2 124.65 -68.45" fill="#416409" fill-rule="evenodd" stroke="none"/>
  </g>
</svg>
