<?xml version="1.0" encoding="UTF-8" standalone="no"?>
<svg xmlns:xlink="http://www.w3.org/1999/xlink" height="56.85px" width="60.15px" xmlns="http://www.w3.org/2000/svg">
  <g transform="matrix(1.0, 0.0, 0.0, 1.0, 51.5, 8.1)">
    <path d="M0.9 7.75 Q-2.8 7.35 -6.8 7.7 -14.75 8.35 -15.95 11.95 -17.15 15.6 -12.1 21.05 -9.55 23.75 -6.75 25.75 L-25.1 44.25 -39.85 42.3 -26.85 31.2 -38.25 39.3 -47.0 37.1 -36.1 30.2 -43.6 33.75 -46.25 31.0 -30.85 22.0 -30.9 15.1 Q-30.75 7.35 -29.6 3.05 -27.95 -2.95 -11.75 -3.5 L4.15 -2.9 0.9 7.75" fill="#bf7926" fill-rule="evenodd" stroke="none"/>
    <path d="M0.9 7.75 Q-2.8 7.35 -6.8 7.7 -14.75 8.35 -15.95 11.95 -17.15 15.6 -12.1 21.05 -9.55 23.75 -6.75 25.75 L-25.1 44.25 -39.85 42.3 -26.85 31.2 -38.25 39.3 -47.0 37.1 -36.1 30.2 -43.6 33.75 -46.25 31.0 -30.85 22.0 -30.9 15.1 Q-30.75 7.35 -29.6 3.05 -27.95 -2.95 -11.75 -3.5 L4.15 -2.9 0.9 7.75 Z" fill="none" stroke="#3c190a" stroke-linecap="round" stroke-linejoin="round" stroke-width="9.0"/>
    <path d="M4.15 -2.9 L0.9 7.75 -7.4 8.45 Q-15.9 9.6 -16.6 11.7 -17.3 13.8 -12.1 20.0 L-6.75 25.75 -25.1 44.25 -39.85 42.3 -26.85 31.2 -38.25 39.3 -47.0 37.1 -36.1 30.2 -43.6 33.75 -46.25 31.0 -30.85 22.0 -30.9 15.1 Q-30.75 7.35 -29.6 3.05 -27.95 -2.95 -11.75 -3.5 L4.15 -2.9" fill="#bf7926" fill-rule="evenodd" stroke="none"/>
    <path d="M-12.1 -3.5 L-11.75 -3.5 4.15 -2.9 0.9 7.75 -7.4 8.45 Q-15.25 9.5 -16.45 11.4 L-16.55 11.6 -16.55 11.65 -16.6 11.7 Q-17.3 13.8 -12.1 20.0 L-6.75 25.75 -15.3 34.35 Q-14.75 30.85 -13.4 27.3 -18.15 31.55 -24.2 34.55 -23.75 30.25 -21.8 26.15 -26.95 30.45 -33.15 33.15 -31.35 28.95 -27.8 25.45 -32.55 27.7 -38.15 29.05 -37.4 26.85 -35.95 25.0 L-30.85 22.0 -30.9 15.1 Q-30.75 7.35 -29.6 3.05 L-29.45 2.6 -29.35 2.45 -29.3 2.35 -29.2 2.15 -29.1 1.9 -29.05 1.85 -28.9 1.6 -28.85 1.55 Q-25.8 -2.95 -12.25 -3.5 L-12.1 -3.5" fill="#70381f" fill-rule="evenodd" stroke="none"/>
  </g>
</svg>
