<?xml version="1.0" encoding="UTF-8" standalone="no"?>
<svg xmlns:xlink="http://www.w3.org/1999/xlink" height="39.6px" width="37.7px" xmlns="http://www.w3.org/2000/svg">
  <g transform="matrix(1.0, 0.0, 0.0, 1.0, 14.55, 19.8)">
    <path d="M-1.55 -12.45 Q2.75 -16.45 6.2 -15.7 9.7 -14.95 10.35 -9.8 11.0 -4.65 8.35 1.9 5.75 8.35 1.5 12.4 -2.8 16.45 -6.3 15.65 -9.85 14.9 -10.45 9.75 -11.05 4.65 -8.45 -1.9 -5.85 -8.35 -1.55 -12.45" fill="#8a1d00" fill-rule="evenodd" stroke="none"/>
    <path d="M-1.55 -12.45 Q2.75 -16.45 6.2 -15.7 9.7 -14.95 10.35 -9.8 11.0 -4.65 8.35 1.9 5.75 8.35 1.5 12.4 -2.8 16.45 -6.3 15.65 -9.85 14.9 -10.45 9.75 -11.05 4.65 -8.45 -1.9 -5.85 -8.35 -1.55 -12.45 Z" fill="none" stroke="#a8620f" stroke-linecap="round" stroke-linejoin="round" stroke-width="8.0"/>
    <path d="M-1.55 -12.45 Q2.75 -16.45 6.2 -15.7 9.7 -14.95 10.35 -9.8 11.0 -4.65 8.35 1.9 5.75 8.35 1.5 12.4 -2.8 16.45 -6.3 15.65 -9.85 14.9 -10.45 9.75 -11.05 4.65 -8.45 -1.9 -5.85 -8.35 -1.55 -12.45" fill="#8a1d00" fill-rule="evenodd" stroke="none"/>
    <path d="M15.65 -5.7 Q19.0 -2.5 21.05 1.5 26.1 11.6 18.95 16.9 12.9 21.4 5.9 14.75 L0.6 9.1 Q-2.45 6.05 -4.8 5.7 -7.1 5.3 -10.9 5.65 L-10.4 5.6 Q-10.05 2.15 -8.45 -1.9 -6.6 -6.55 -3.8 -9.95 L-0.1 -10.65 Q4.6 -11.05 9.45 -9.7 12.4 -8.85 15.65 -5.7" fill="#d74533" fill-rule="evenodd" stroke="none"/>
  </g>
</svg>
