<?xml version="1.0" encoding="UTF-8" standalone="no"?>
<svg xmlns:xlink="http://www.w3.org/1999/xlink" height="101.5px" width="114.4px" xmlns="http://www.w3.org/2000/svg">
  <g transform="matrix(1.0, 0.0, 0.0, 1.0, 453.3, 654.35)">
    <path d="M-435.65 -646.2 Q-433.65 -646.15 -433.05 -645.3 L-433.35 -642.55 Q-434.35 -641.0 -436.35 -639.65 L-436.65 -639.45 Q-438.7 -638.1 -440.6 -637.75 L-440.9 -637.75 Q-442.75 -637.45 -443.45 -638.35 L-443.55 -638.45 Q-444.2 -639.45 -443.15 -641.2 -442.05 -643.05 -439.95 -644.45 -437.6 -645.9 -435.65 -646.2 M-418.1 -644.4 Q-419.95 -644.1 -420.65 -645.0 L-420.75 -645.1 Q-421.4 -646.1 -420.35 -647.85 -419.25 -649.7 -417.15 -651.1 -414.8 -652.55 -412.85 -652.85 -410.85 -652.8 -410.25 -651.95 L-410.55 -649.2 Q-411.55 -647.65 -413.55 -646.3 L-413.85 -646.1 Q-415.9 -644.75 -417.8 -644.4 L-418.1 -644.4 M-451.3 -624.0 L-448.9 -626.35 Q-447.2 -627.5 -445.7 -627.7 -443.2 -626.3 -443.85 -625.2 -444.7 -623.7 -446.25 -622.65 -448.0 -621.5 -449.6 -621.35 -451.05 -621.1 -451.55 -621.8 L-451.6 -621.85 Q-452.1 -622.6 -451.3 -624.0 M-417.55 -623.8 Q-418.05 -624.6 -416.3 -626.55 -414.5 -628.55 -411.6 -630.5 -408.45 -632.55 -406.05 -633.4 L-403.1 -633.25 Q-402.55 -632.6 -403.6 -631.2 -405.8 -628.7 -408.45 -626.85 -411.85 -624.6 -414.3 -623.85 L-417.55 -623.75 -417.55 -623.8 M-434.3 -619.7 Q-434.55 -620.1 -433.65 -621.1 L-431.25 -623.15 Q-429.65 -624.25 -428.45 -624.6 -426.6 -624.25 -427.2 -623.45 -428.3 -622.25 -429.7 -621.3 -431.35 -620.1 -432.55 -619.75 L-432.7 -619.75 -434.2 -619.6 -434.3 -619.7 M-410.25 -613.4 Q-408.05 -612.9 -408.7 -612.05 L-409.1 -611.6 Q-410.1 -610.45 -411.75 -609.35 -413.85 -607.95 -415.35 -607.45 L-415.5 -607.4 -417.35 -607.3 -417.4 -607.4 Q-417.75 -607.9 -416.65 -609.1 L-413.7 -611.65 Q-411.75 -612.95 -410.25 -613.4 M-381.15 -621.6 Q-383.35 -619.1 -386.0 -617.25 -389.4 -615.0 -391.85 -614.25 L-395.1 -614.15 -395.1 -614.2 Q-395.6 -615.0 -393.85 -616.95 -392.05 -618.95 -389.15 -620.9 -386.0 -622.95 -383.6 -623.8 L-380.65 -623.65 Q-380.1 -623.0 -381.15 -621.6 M-399.05 -628.15 L-396.1 -630.7 Q-394.15 -632.0 -392.65 -632.45 -390.45 -631.95 -391.1 -631.1 L-391.5 -630.65 Q-392.5 -629.5 -394.15 -628.4 -396.25 -627.0 -397.75 -626.5 L-397.9 -626.45 -399.75 -626.35 -399.8 -626.45 Q-400.15 -626.95 -399.05 -628.15 M-404.7 -593.35 Q-405.7 -592.2 -407.35 -591.1 -409.45 -589.7 -410.95 -589.2 L-411.1 -589.15 -412.95 -589.05 -413.0 -589.15 Q-413.35 -589.65 -412.25 -590.85 L-409.3 -593.4 Q-407.35 -594.7 -405.85 -595.15 -403.65 -594.65 -404.3 -593.8 L-404.7 -593.35" fill="#ffffff" fill-opacity="0.2509804" fill-rule="evenodd" stroke="none"/>
    <path d="M-435.65 -646.2 Q-433.65 -646.15 -433.05 -645.3 L-433.35 -642.55 Q-434.35 -641.0 -436.35 -639.65 L-436.65 -639.45 Q-438.7 -638.1 -440.6 -637.75 L-440.9 -637.75 Q-442.75 -637.45 -443.45 -638.35 L-443.55 -638.45 Q-444.2 -639.45 -443.15 -641.2 -442.05 -643.05 -439.95 -644.45 -437.6 -645.9 -435.65 -646.2 M-418.1 -644.4 Q-419.95 -644.1 -420.65 -645.0 L-420.75 -645.1 Q-421.4 -646.1 -420.35 -647.85 -419.25 -649.7 -417.15 -651.1 -414.8 -652.55 -412.85 -652.85 -410.85 -652.8 -410.25 -651.95 L-410.55 -649.2 Q-411.55 -647.65 -413.55 -646.3 L-413.85 -646.1 Q-415.9 -644.75 -417.8 -644.4 L-418.1 -644.4 M-451.3 -624.0 L-448.9 -626.35 Q-447.2 -627.5 -445.7 -627.7 -443.2 -626.3 -443.85 -625.2 -444.7 -623.7 -446.25 -622.65 -448.0 -621.5 -449.6 -621.35 -451.05 -621.1 -451.55 -621.8 L-451.6 -621.85 Q-452.1 -622.6 -451.3 -624.0 M-417.55 -623.8 Q-418.05 -624.6 -416.3 -626.55 -414.5 -628.55 -411.6 -630.5 -408.45 -632.55 -406.05 -633.4 L-403.1 -633.25 Q-402.55 -632.6 -403.6 -631.2 -405.8 -628.7 -408.45 -626.85 -411.85 -624.6 -414.3 -623.85 L-417.55 -623.75 -417.55 -623.8 M-434.3 -619.7 Q-434.55 -620.1 -433.65 -621.1 L-431.25 -623.15 Q-429.65 -624.25 -428.45 -624.6 -426.6 -624.25 -427.2 -623.45 -428.3 -622.25 -429.7 -621.3 -431.35 -620.1 -432.55 -619.75 L-432.7 -619.75 -434.2 -619.6 -434.3 -619.7 M-410.25 -613.4 Q-408.05 -612.9 -408.7 -612.05 L-409.1 -611.6 Q-410.1 -610.45 -411.75 -609.35 -413.85 -607.95 -415.35 -607.45 L-415.5 -607.4 -417.35 -607.3 -417.4 -607.4 Q-417.75 -607.9 -416.65 -609.1 L-413.7 -611.65 Q-411.75 -612.95 -410.25 -613.4 M-381.15 -621.6 Q-383.35 -619.1 -386.0 -617.25 -389.4 -615.0 -391.85 -614.25 L-395.1 -614.15 -395.1 -614.2 Q-395.6 -615.0 -393.85 -616.95 -392.05 -618.95 -389.15 -620.9 -386.0 -622.95 -383.6 -623.8 L-380.65 -623.65 Q-380.1 -623.0 -381.15 -621.6 M-399.05 -628.15 L-396.1 -630.7 Q-394.15 -632.0 -392.65 -632.45 -390.45 -631.95 -391.1 -631.1 L-391.5 -630.65 Q-392.5 -629.5 -394.15 -628.4 -396.25 -627.0 -397.75 -626.5 L-397.9 -626.45 -399.75 -626.35 -399.8 -626.45 Q-400.15 -626.95 -399.05 -628.15 M-404.7 -593.35 Q-405.7 -592.2 -407.35 -591.1 -409.45 -589.7 -410.95 -589.2 L-411.1 -589.15 -412.95 -589.05 -413.0 -589.15 Q-413.35 -589.65 -412.25 -590.85 L-409.3 -593.4 Q-407.35 -594.7 -405.85 -595.15 -403.65 -594.65 -404.3 -593.8 L-404.7 -593.35" fill="none" stroke="#5fd6ff" stroke-linecap="round" stroke-linejoin="round" stroke-opacity="0.2509804" stroke-width="3.0"/>
    <path d="M-435.65 -646.2 Q-433.65 -646.15 -433.05 -645.3 L-433.35 -642.55 Q-434.35 -641.0 -436.35 -639.65 L-436.65 -639.45 Q-438.7 -638.1 -440.6 -637.75 L-440.9 -637.75 Q-442.75 -637.45 -443.45 -638.35 L-443.55 -638.45 Q-444.2 -639.45 -443.15 -641.2 -442.05 -643.05 -439.95 -644.45 -437.6 -645.9 -435.65 -646.2 M-418.1 -644.4 Q-419.95 -644.1 -420.65 -645.0 L-420.75 -645.1 Q-421.4 -646.1 -420.35 -647.85 -419.25 -649.7 -417.15 -651.1 -414.8 -652.55 -412.85 -652.85 -410.85 -652.8 -410.25 -651.95 L-410.55 -649.2 Q-411.55 -647.65 -413.55 -646.3 L-413.85 -646.1 Q-415.9 -644.75 -417.8 -644.4 L-418.1 -644.4 M-451.3 -624.0 Q-450.5 -625.3 -448.85 -626.4 -447.2 -627.5 -445.65 -627.7 -443.1 -626.4 -443.95 -625.05 -444.7 -623.7 -446.35 -622.6 -448.0 -621.5 -449.6 -621.35 -451.1 -621.1 -451.6 -621.85 -452.1 -622.6 -451.3 -624.0 M-417.55 -623.8 Q-418.05 -624.6 -416.3 -626.55 -414.5 -628.55 -411.6 -630.5 -408.45 -632.55 -406.05 -633.4 L-403.1 -633.25 Q-402.55 -632.6 -403.6 -631.2 -405.8 -628.7 -408.45 -626.85 -411.85 -624.6 -414.3 -623.85 L-417.55 -623.75 -417.55 -623.8 M-434.3 -619.7 Q-434.55 -620.1 -433.65 -621.1 L-431.25 -623.15 Q-429.65 -624.25 -428.45 -624.6 -426.6 -624.25 -427.2 -623.45 -428.3 -622.25 -429.7 -621.3 -431.35 -620.1 -432.55 -619.75 L-432.7 -619.75 -434.2 -619.6 -434.3 -619.7 M-410.25 -613.4 Q-408.05 -612.9 -408.7 -612.05 L-409.1 -611.6 Q-410.1 -610.45 -411.75 -609.35 -413.85 -607.95 -415.35 -607.45 L-415.5 -607.4 -417.35 -607.3 -417.4 -607.4 Q-417.75 -607.9 -416.65 -609.1 L-413.7 -611.65 Q-411.75 -612.95 -410.25 -613.4 M-381.15 -621.6 Q-383.35 -619.1 -386.0 -617.25 -389.4 -615.0 -391.85 -614.25 L-395.1 -614.15 -395.1 -614.2 Q-395.6 -615.0 -393.85 -616.95 -392.05 -618.95 -389.15 -620.9 -386.0 -622.95 -383.6 -623.8 L-380.65 -623.65 Q-380.1 -623.0 -381.15 -621.6 M-399.05 -628.15 L-396.1 -630.7 Q-394.15 -632.0 -392.65 -632.45 -390.45 -631.95 -391.1 -631.1 L-391.5 -630.65 Q-392.5 -629.5 -394.15 -628.4 -396.25 -627.0 -397.75 -626.5 L-397.9 -626.45 -399.75 -626.35 -399.8 -626.45 Q-400.15 -626.95 -399.05 -628.15 M-404.7 -593.35 Q-405.7 -592.2 -407.35 -591.1 -409.45 -589.7 -410.95 -589.2 L-411.1 -589.15 -412.95 -589.05 -413.0 -589.15 Q-413.35 -589.65 -412.25 -590.85 L-409.3 -593.4 Q-407.35 -594.7 -405.85 -595.15 -403.65 -594.65 -404.3 -593.8 L-404.7 -593.35" fill="#ffffff" fill-opacity="0.2509804" fill-rule="evenodd" stroke="none"/>
    <path d="M-435.65 -646.2 Q-433.65 -646.15 -433.05 -645.3 L-433.35 -642.55 Q-434.35 -641.0 -436.35 -639.65 L-436.65 -639.45 Q-438.7 -638.1 -440.6 -637.75 L-440.9 -637.75 Q-442.75 -637.45 -443.45 -638.35 L-443.55 -638.45 Q-444.2 -639.45 -443.15 -641.2 -442.05 -643.05 -439.95 -644.45 -437.6 -645.9 -435.65 -646.2 M-418.1 -644.4 Q-419.95 -644.1 -420.65 -645.0 L-420.75 -645.1 Q-421.4 -646.1 -420.35 -647.85 -419.25 -649.7 -417.15 -651.1 -414.8 -652.55 -412.85 -652.85 -410.85 -652.8 -410.25 -651.95 L-410.55 -649.2 Q-411.55 -647.65 -413.55 -646.3 L-413.85 -646.1 Q-415.9 -644.75 -417.8 -644.4 L-418.1 -644.4 M-451.3 -624.0 Q-450.5 -625.3 -448.85 -626.4 -447.2 -627.5 -445.65 -627.7 -443.1 -626.4 -443.95 -625.05 -444.7 -623.7 -446.35 -622.6 -448.0 -621.5 -449.6 -621.35 -451.1 -621.1 -451.6 -621.85 -452.1 -622.6 -451.3 -624.0 M-417.55 -623.8 Q-418.05 -624.6 -416.3 -626.55 -414.5 -628.55 -411.6 -630.5 -408.45 -632.55 -406.05 -633.4 L-403.1 -633.25 Q-402.55 -632.6 -403.6 -631.2 -405.8 -628.7 -408.45 -626.85 -411.85 -624.6 -414.3 -623.85 L-417.55 -623.75 -417.55 -623.8 M-434.3 -619.7 Q-434.55 -620.1 -433.65 -621.1 L-431.25 -623.15 Q-429.65 -624.25 -428.45 -624.6 -426.6 -624.25 -427.2 -623.45 -428.3 -622.25 -429.7 -621.3 -431.35 -620.1 -432.55 -619.75 L-432.7 -619.75 -434.2 -619.6 -434.3 -619.7 M-410.25 -613.4 Q-408.05 -612.9 -408.7 -612.05 L-409.1 -611.6 Q-410.1 -610.45 -411.75 -609.35 -413.85 -607.95 -415.35 -607.45 L-415.5 -607.4 -417.35 -607.3 -417.4 -607.4 Q-417.75 -607.9 -416.65 -609.1 L-413.7 -611.65 Q-411.75 -612.95 -410.25 -613.4 M-381.15 -621.6 Q-383.35 -619.1 -386.0 -617.25 -389.4 -615.0 -391.85 -614.25 L-395.1 -614.15 -395.1 -614.2 Q-395.6 -615.0 -393.85 -616.95 -392.05 -618.95 -389.15 -620.9 -386.0 -622.95 -383.6 -623.8 L-380.65 -623.65 Q-380.1 -623.0 -381.15 -621.6 M-399.05 -628.15 L-396.1 -630.7 Q-394.15 -632.0 -392.65 -632.45 -390.45 -631.95 -391.1 -631.1 L-391.5 -630.65 Q-392.5 -629.5 -394.15 -628.4 -396.25 -627.0 -397.75 -626.5 L-397.9 -626.45 -399.75 -626.35 -399.8 -626.45 Q-400.15 -626.95 -399.05 -628.15 M-404.7 -593.35 Q-405.7 -592.2 -407.35 -591.1 -409.45 -589.7 -410.95 -589.2 L-411.1 -589.15 -412.95 -589.05 -413.0 -589.15 Q-413.35 -589.65 -412.25 -590.85 L-409.3 -593.4 Q-407.35 -594.7 -405.85 -595.15 -403.65 -594.65 -404.3 -593.8 L-404.7 -593.35" fill="none" stroke="#47a1bf" stroke-linecap="round" stroke-linejoin="round" stroke-opacity="0.0" stroke-width="2.25"/>
    <path d="M-393.3 -608.0 Q-394.3 -606.45 -396.3 -605.1 L-396.6 -604.9 Q-398.65 -603.55 -400.55 -603.2 L-400.85 -603.2 Q-402.7 -602.9 -403.4 -603.8 L-403.5 -603.9 Q-404.15 -604.9 -403.1 -606.65 -402.0 -608.5 -399.9 -609.9 -397.55 -611.35 -395.6 -611.65 -393.6 -611.6 -393.0 -610.75 L-393.3 -608.0 M-370.2 -617.4 L-370.5 -614.65 Q-371.5 -613.1 -373.5 -611.75 L-373.8 -611.55 Q-375.85 -610.2 -377.75 -609.85 L-378.05 -609.85 Q-379.9 -609.55 -380.6 -610.45 L-380.7 -610.55 Q-381.35 -611.55 -380.3 -613.3 -379.2 -615.15 -377.1 -616.55 -374.75 -618.0 -372.8 -618.3 -370.8 -618.25 -370.2 -617.4 M-366.0 -598.85 L-363.05 -598.7 Q-362.5 -598.05 -363.55 -596.65 -365.75 -594.15 -368.4 -592.3 -371.8 -590.05 -374.25 -589.3 L-377.5 -589.2 -377.5 -589.25 Q-378.0 -590.05 -376.25 -592.0 -374.45 -594.0 -371.55 -595.95 -368.4 -598.0 -366.0 -598.85 M-352.6 -597.9 Q-350.4 -597.4 -351.05 -596.55 L-351.45 -596.1 Q-352.45 -594.95 -354.1 -593.85 -356.2 -592.45 -357.7 -591.95 L-357.85 -591.9 -359.7 -591.8 -359.75 -591.9 Q-360.1 -592.4 -359.0 -593.6 -357.85 -594.95 -356.05 -596.15 -354.1 -597.45 -352.6 -597.9 M-341.1 -587.05 Q-343.3 -584.55 -345.95 -582.7 -349.35 -580.45 -351.8 -579.7 L-355.05 -579.6 -355.05 -579.65 Q-355.55 -580.45 -353.8 -582.4 -352.0 -584.4 -349.1 -586.35 -345.95 -588.4 -343.55 -589.25 L-340.6 -589.1 Q-340.05 -588.45 -341.1 -587.05 M-376.6 -574.55 L-373.65 -577.1 Q-371.7 -578.4 -370.2 -578.85 -368.0 -578.35 -368.65 -577.5 L-369.05 -577.05 Q-370.05 -575.9 -371.7 -574.8 -373.8 -573.4 -375.3 -572.9 L-375.45 -572.85 -377.3 -572.75 -377.35 -572.85 Q-377.7 -573.35 -376.6 -574.55 M-387.15 -588.9 L-389.65 -586.75 Q-391.3 -585.55 -392.5 -585.2 L-392.65 -585.2 -394.15 -585.05 -394.25 -585.15 Q-394.5 -585.55 -393.6 -586.55 L-391.2 -588.6 -388.4 -590.05 Q-386.55 -589.7 -387.15 -588.9 M-372.2 -556.3 L-369.25 -558.85 Q-367.3 -560.15 -365.8 -560.6 -363.6 -560.1 -364.25 -559.25 L-364.65 -558.8 Q-365.65 -557.65 -367.3 -556.55 -369.4 -555.15 -370.9 -554.65 L-371.05 -554.6 -372.9 -554.5 -372.95 -554.6 Q-373.3 -555.1 -372.2 -556.3 M-411.25 -589.45 Q-410.4 -590.75 -408.85 -591.8 -407.15 -592.95 -405.65 -593.15 -403.15 -591.75 -403.8 -590.65 -404.65 -589.15 -406.2 -588.1 -407.95 -586.95 -409.55 -586.8 -411.0 -586.55 -411.5 -587.25 L-411.55 -587.3 Q-412.05 -588.05 -411.25 -589.45" fill="#ffffff" fill-opacity="0.2509804" fill-rule="evenodd" stroke="none"/>
    <path d="M-393.3 -608.0 Q-394.3 -606.45 -396.3 -605.1 L-396.6 -604.9 Q-398.65 -603.55 -400.55 -603.2 L-400.85 -603.2 Q-402.7 -602.9 -403.4 -603.8 L-403.5 -603.9 Q-404.15 -604.9 -403.1 -606.65 -402.0 -608.5 -399.9 -609.9 -397.55 -611.35 -395.6 -611.65 -393.6 -611.6 -393.0 -610.75 L-393.3 -608.0 M-370.2 -617.4 L-370.5 -614.65 Q-371.5 -613.1 -373.5 -611.75 L-373.8 -611.55 Q-375.85 -610.2 -377.75 -609.85 L-378.05 -609.85 Q-379.9 -609.55 -380.6 -610.45 L-380.7 -610.55 Q-381.35 -611.55 -380.3 -613.3 -379.2 -615.15 -377.1 -616.55 -374.75 -618.0 -372.8 -618.3 -370.8 -618.25 -370.2 -617.4 M-366.0 -598.85 L-363.05 -598.7 Q-362.5 -598.05 -363.55 -596.65 -365.75 -594.15 -368.4 -592.3 -371.8 -590.05 -374.25 -589.3 L-377.5 -589.2 -377.5 -589.25 Q-378.0 -590.05 -376.25 -592.0 -374.45 -594.0 -371.55 -595.95 -368.4 -598.0 -366.0 -598.85 M-352.6 -597.9 Q-350.4 -597.4 -351.05 -596.55 L-351.45 -596.1 Q-352.45 -594.95 -354.1 -593.85 -356.2 -592.45 -357.7 -591.95 L-357.85 -591.9 -359.7 -591.8 -359.75 -591.9 Q-360.1 -592.4 -359.0 -593.6 -357.85 -594.95 -356.05 -596.15 -354.1 -597.45 -352.6 -597.9 M-341.1 -587.05 Q-343.3 -584.55 -345.95 -582.7 -349.35 -580.45 -351.8 -579.7 L-355.05 -579.6 -355.05 -579.65 Q-355.55 -580.45 -353.8 -582.4 -352.0 -584.4 -349.1 -586.35 -345.95 -588.4 -343.55 -589.25 L-340.6 -589.1 Q-340.05 -588.45 -341.1 -587.05 M-376.6 -574.55 L-373.65 -577.1 Q-371.7 -578.4 -370.2 -578.85 -368.0 -578.35 -368.65 -577.5 L-369.05 -577.05 Q-370.05 -575.9 -371.7 -574.8 -373.8 -573.4 -375.3 -572.9 L-375.45 -572.85 -377.3 -572.75 -377.35 -572.85 Q-377.7 -573.35 -376.6 -574.55 M-387.15 -588.9 L-389.65 -586.75 Q-391.3 -585.55 -392.5 -585.2 L-392.65 -585.2 -394.15 -585.05 -394.25 -585.15 Q-394.5 -585.55 -393.6 -586.55 L-391.2 -588.6 -388.4 -590.05 Q-386.55 -589.7 -387.15 -588.9 M-372.2 -556.3 L-369.25 -558.85 Q-367.3 -560.15 -365.8 -560.6 -363.6 -560.1 -364.25 -559.25 L-364.65 -558.8 Q-365.65 -557.65 -367.3 -556.55 -369.4 -555.15 -370.9 -554.65 L-371.05 -554.6 -372.9 -554.5 -372.95 -554.6 Q-373.3 -555.1 -372.2 -556.3 M-411.25 -589.45 Q-410.4 -590.75 -408.85 -591.8 -407.15 -592.95 -405.65 -593.15 -403.15 -591.75 -403.8 -590.65 -404.65 -589.15 -406.2 -588.1 -407.95 -586.95 -409.55 -586.8 -411.0 -586.55 -411.5 -587.25 L-411.55 -587.3 Q-412.05 -588.05 -411.25 -589.45" fill="none" stroke="#5fd6ff" stroke-linecap="round" stroke-linejoin="round" stroke-opacity="0.2509804" stroke-width="3.0"/>
    <path d="M-393.3 -608.0 Q-394.3 -606.45 -396.3 -605.1 L-396.6 -604.9 Q-398.65 -603.55 -400.55 -603.2 L-400.85 -603.2 Q-402.7 -602.9 -403.4 -603.8 L-403.5 -603.9 Q-404.15 -604.9 -403.1 -606.65 -402.0 -608.5 -399.9 -609.9 -397.55 -611.35 -395.6 -611.65 -393.6 -611.6 -393.0 -610.75 L-393.3 -608.0 M-370.2 -617.4 L-370.5 -614.65 Q-371.5 -613.1 -373.5 -611.75 L-373.8 -611.55 Q-375.85 -610.2 -377.75 -609.85 L-378.05 -609.85 Q-379.9 -609.55 -380.6 -610.45 L-380.7 -610.55 Q-381.35 -611.55 -380.3 -613.3 -379.2 -615.15 -377.1 -616.55 -374.75 -618.0 -372.8 -618.3 -370.8 -618.25 -370.2 -617.4 M-366.0 -598.85 L-363.05 -598.7 Q-362.5 -598.05 -363.55 -596.65 -365.75 -594.15 -368.4 -592.3 -371.8 -590.05 -374.25 -589.3 L-377.5 -589.2 -377.5 -589.25 Q-378.0 -590.05 -376.25 -592.0 -374.45 -594.0 -371.55 -595.95 -368.4 -598.0 -366.0 -598.85 M-352.6 -597.9 Q-350.4 -597.4 -351.05 -596.55 L-351.45 -596.1 Q-352.45 -594.95 -354.1 -593.85 -356.2 -592.45 -357.7 -591.95 L-357.85 -591.9 -359.7 -591.8 -359.75 -591.9 Q-360.1 -592.4 -359.0 -593.6 -357.85 -594.95 -356.05 -596.15 -354.1 -597.45 -352.6 -597.9 M-341.1 -587.05 Q-343.3 -584.55 -345.95 -582.7 -349.35 -580.45 -351.8 -579.7 L-355.05 -579.6 -355.05 -579.65 Q-355.55 -580.45 -353.8 -582.4 -352.0 -584.4 -349.1 -586.35 -345.95 -588.4 -343.55 -589.25 L-340.6 -589.1 Q-340.05 -588.45 -341.1 -587.05 M-376.6 -574.55 L-373.65 -577.1 Q-371.7 -578.4 -370.2 -578.85 -368.0 -578.35 -368.65 -577.5 L-369.05 -577.05 Q-370.05 -575.9 -371.7 -574.8 -373.8 -573.4 -375.3 -572.9 L-375.45 -572.85 -377.3 -572.75 -377.35 -572.85 Q-377.7 -573.35 -376.6 -574.55 M-387.15 -588.9 L-389.65 -586.75 Q-391.3 -585.55 -392.5 -585.2 L-392.65 -585.2 -394.15 -585.05 -394.25 -585.15 Q-394.5 -585.55 -393.6 -586.55 L-391.2 -588.6 -388.4 -590.05 Q-386.55 -589.7 -387.15 -588.9 M-372.2 -556.3 L-369.25 -558.85 Q-367.3 -560.15 -365.8 -560.6 -363.6 -560.1 -364.25 -559.25 L-364.65 -558.8 Q-365.65 -557.65 -367.3 -556.55 -369.4 -555.15 -370.9 -554.65 L-371.05 -554.6 -372.9 -554.5 -372.95 -554.6 Q-373.3 -555.1 -372.2 -556.3 M-411.25 -589.45 Q-410.45 -590.75 -408.8 -591.85 -407.15 -592.95 -405.6 -593.15 -403.05 -591.85 -403.9 -590.5 -404.65 -589.15 -406.3 -588.05 -407.95 -586.95 -409.55 -586.8 -411.05 -586.55 -411.55 -587.3 -412.05 -588.05 -411.25 -589.45" fill="#ffffff" fill-opacity="0.2509804" fill-rule="evenodd" stroke="none"/>
    <path d="M-393.3 -608.0 Q-394.3 -606.45 -396.3 -605.1 L-396.6 -604.9 Q-398.65 -603.55 -400.55 -603.2 L-400.85 -603.2 Q-402.7 -602.9 -403.4 -603.8 L-403.5 -603.9 Q-404.15 -604.9 -403.1 -606.65 -402.0 -608.5 -399.9 -609.9 -397.55 -611.35 -395.6 -611.65 -393.6 -611.6 -393.0 -610.75 L-393.3 -608.0 M-370.2 -617.4 L-370.5 -614.65 Q-371.5 -613.1 -373.5 -611.75 L-373.8 -611.55 Q-375.85 -610.2 -377.75 -609.85 L-378.05 -609.85 Q-379.9 -609.55 -380.6 -610.45 L-380.7 -610.55 Q-381.35 -611.55 -380.3 -613.3 -379.2 -615.15 -377.1 -616.55 -374.75 -618.0 -372.8 -618.3 -370.8 -618.25 -370.2 -617.4 M-366.0 -598.85 L-363.05 -598.7 Q-362.5 -598.05 -363.55 -596.65 -365.75 -594.15 -368.4 -592.3 -371.8 -590.05 -374.25 -589.3 L-377.5 -589.2 -377.5 -589.25 Q-378.0 -590.05 -376.25 -592.0 -374.45 -594.0 -371.55 -595.95 -368.4 -598.0 -366.0 -598.85 M-352.6 -597.9 Q-350.4 -597.4 -351.05 -596.55 L-351.45 -596.1 Q-352.45 -594.95 -354.1 -593.85 -356.2 -592.45 -357.7 -591.95 L-357.85 -591.9 -359.7 -591.8 -359.75 -591.9 Q-360.1 -592.4 -359.0 -593.6 -357.85 -594.95 -356.05 -596.15 -354.1 -597.45 -352.6 -597.9 M-341.1 -587.05 Q-343.3 -584.55 -345.95 -582.7 -349.35 -580.45 -351.8 -579.7 L-355.05 -579.6 -355.05 -579.65 Q-355.55 -580.45 -353.8 -582.4 -352.0 -584.4 -349.1 -586.35 -345.95 -588.4 -343.55 -589.25 L-340.6 -589.1 Q-340.05 -588.45 -341.1 -587.05 M-376.6 -574.55 L-373.65 -577.1 Q-371.7 -578.4 -370.2 -578.85 -368.0 -578.35 -368.65 -577.5 L-369.05 -577.05 Q-370.05 -575.9 -371.7 -574.8 -373.8 -573.4 -375.3 -572.9 L-375.45 -572.85 -377.3 -572.75 -377.35 -572.85 Q-377.7 -573.35 -376.6 -574.55 M-387.15 -588.9 L-389.65 -586.75 Q-391.3 -585.55 -392.5 -585.2 L-392.65 -585.2 -394.15 -585.05 -394.25 -585.15 Q-394.5 -585.55 -393.6 -586.55 L-391.2 -588.6 -388.4 -590.05 Q-386.55 -589.7 -387.15 -588.9 M-372.2 -556.3 L-369.25 -558.85 Q-367.3 -560.15 -365.8 -560.6 -363.6 -560.1 -364.25 -559.25 L-364.65 -558.8 Q-365.65 -557.65 -367.3 -556.55 -369.4 -555.15 -370.9 -554.65 L-371.05 -554.6 -372.9 -554.5 -372.95 -554.6 Q-373.3 -555.1 -372.2 -556.3 M-411.25 -589.45 Q-410.45 -590.75 -408.8 -591.85 -407.15 -592.95 -405.6 -593.15 -403.05 -591.85 -403.9 -590.5 -404.65 -589.15 -406.3 -588.05 -407.95 -586.95 -409.55 -586.8 -411.05 -586.55 -411.55 -587.3 -412.05 -588.05 -411.25 -589.45" fill="none" stroke="#47a1bf" stroke-linecap="round" stroke-linejoin="round" stroke-opacity="0.0" stroke-width="2.25"/>
  </g>
</svg>
