<?xml version="1.0" encoding="UTF-8" standalone="no"?>
<svg xmlns:xlink="http://www.w3.org/1999/xlink" height="34.2px" width="77.2px" xmlns="http://www.w3.org/2000/svg">
  <g transform="matrix(1.0, 0.0, 0.0, 1.0, 38.45, 14.6)">
    <path d="M19.3 4.25 L21.25 4.35 21.45 3.85 23.0 3.7 23.15 4.3 23.15 4.45 35.45 5.35 Q38.7 5.75 38.7 7.7 39.05 8.85 37.7 9.9 35.0 12.0 26.2 11.5 26.0 13.05 25.05 13.75 L21.5 14.0 20.55 14.35 18.3 13.45 18.3 13.4 18.75 13.0 Q20.2 12.2 22.95 12.05 L23.3 11.85 24.05 11.8 24.35 11.15 Q24.45 10.45 25.05 9.95 25.55 9.45 26.35 9.55 L30.0 9.6 30.5 9.6 Q34.8 9.45 36.6 8.35 L36.8 8.2 36.7 7.85 36.3 7.55 36.45 7.2 Q36.45 6.25 34.25 5.7 32.1 5.15 31.7 6.05 L31.8 6.4 33.8 7.2 29.7 6.85 Q29.7 8.45 28.15 8.45 27.15 8.45 26.4 7.55 L25.8 6.6 23.0 6.4 22.45 6.55 21.7 6.3 19.3 6.2 19.3 5.45 19.3 4.25 M21.5 16.3 L22.45 17.55 Q21.45 19.0 18.45 19.45 L14.25 19.6 4.45 18.75 Q-0.85 17.6 -12.75 17.0 -14.05 16.75 -14.3 15.95 L-14.45 15.0 Q-14.45 14.25 -13.8 13.4 -13.1 12.4 -11.95 12.3 -21.05 12.45 -29.65 11.1 -38.45 9.75 -38.45 8.05 -38.45 5.7 -22.75 3.95 -22.65 -0.5 -21.15 0.15 -19.65 0.8 -19.65 3.65 L-17.35 3.35 -14.45 3.1 -13.6 2.55 -13.1 1.9 -12.35 -0.05 Q-11.95 -0.9 -11.25 -1.15 L-11.05 -1.2 -10.3 -1.3 -10.2 -0.5 -10.4 0.15 -11.5 3.15 Q-12.05 4.3 -12.85 5.05 -11.7 5.55 -12.3 7.2 L-10.0 7.25 -9.25 7.35 -9.05 7.5 -9.0 7.95 Q-9.0 8.5 -9.35 8.65 L-9.95 8.85 -12.85 8.3 -14.1 7.3 -15.35 6.25 -16.7 6.25 -17.65 5.4 -19.95 5.6 Q-20.3 6.1 -20.9 6.1 -21.5 6.1 -21.9 5.75 L-26.0 6.25 -26.6 5.8 -26.75 5.75 Q-27.0 5.45 -27.6 5.55 -28.65 5.65 -28.65 6.9 -28.65 7.6 -28.0 7.85 L-27.1 7.25 -26.65 7.3 -26.1 7.15 -25.9 6.6 -25.85 7.2 Q-25.85 8.95 -27.35 8.95 -28.4 8.95 -28.95 7.85 L-29.3 6.65 Q-35.4 7.4 -36.3 8.0 L-29.35 9.15 -12.0 10.3 -11.95 10.3 Q-11.2 10.3 -10.6 10.85 L-10.6 10.9 Q-10.05 11.45 -10.0 12.2 -10.0 13.0 -10.5 13.6 -11.0 14.15 -11.8 14.25 L-12.25 14.6 -12.5 15.05 -11.05 15.1 Q-10.9 15.6 -10.4 15.7 L-8.0 15.6 -6.7 15.4 Q0.9 15.95 4.85 16.85 L4.9 16.85 14.25 17.65 16.95 17.6 17.7 17.6 18.0 17.55 18.05 17.55 18.15 17.5 18.25 17.5 19.7 17.15 19.6 17.0 20.85 16.65 21.5 16.3 M23.15 -7.25 L22.95 -7.4 Q22.2 -7.75 22.1 -7.2 21.45 -6.95 21.45 -5.8 L21.45 -5.05 Q21.7 -4.1 22.65 -4.1 23.8 -4.1 24.05 -4.55 L24.2 -5.65 Q24.2 -7.0 23.15 -7.25 M20.25 -4.6 L20.2 -5.95 Q20.2 -8.15 22.45 -8.15 24.6 -8.1 24.6 -5.55 24.6 -3.05 22.15 -3.05 20.65 -3.05 20.25 -4.6 M-22.95 -3.4 L-23.15 -3.1 -23.5 -2.65 -23.75 -2.8 -23.55 -3.4 -22.95 -3.4 M-18.4 -2.65 L-18.9 -2.5 Q-19.2 -2.4 -19.2 -1.75 L-19.2 -1.15 Q-19.0 -0.7 -18.3 -0.7 -17.65 -0.7 -17.75 -1.0 L-17.65 -2.1 -17.5 -2.25 -17.7 -2.65 -18.4 -2.7 -18.4 -2.65 M-19.35 -1.85 Q-19.35 -3.0 -18.15 -3.1 -17.1 -3.3 -17.1 -1.85 -17.1 -1.15 -17.3 -0.9 -17.45 -0.65 -18.1 -0.65 -19.2 -0.65 -19.35 -1.2 L-19.35 -1.85 M-5.8 7.9 L-5.8 7.7 Q-5.8 6.95 -3.5 5.95 -1.05 4.75 0.05 6.1 L-0.05 6.3 -0.35 6.65 -1.2 5.7 Q-1.95 6.25 -1.95 6.9 L-1.6 7.7 Q-2.6 8.15 -4.6 8.5 L-5.7 8.3 -5.8 7.9 M18.35 15.75 L18.1 15.2 19.05 15.35 18.35 15.75 M-12.5 15.05 L-12.5 15.1 -12.45 15.1 -12.5 15.05 M-21.8 1.15 L-22.3 1.45 Q-22.5 1.55 -22.5 2.45 L-22.25 3.7 Q-21.95 4.9 -21.3 4.9 -20.65 4.9 -20.65 4.7 L-20.5 1.55 -20.65 1.15 -21.45 1.1 -21.8 1.15 M-24.05 0.65 L-23.85 0.4 -23.95 0.0 -24.7 -0.05 -24.75 0.3 -24.75 0.5 -25.1 0.8 -24.55 1.15 -24.05 0.65 M-25.15 1.2 L-25.25 0.5 Q-25.25 -0.45 -24.35 -0.45 -23.4 -0.45 -23.4 0.55 -23.4 1.35 -24.45 1.35 L-25.15 1.2 M29.3 6.1 Q29.3 5.0 28.15 5.0 27.0 5.0 27.0 6.1 L27.3 6.7 Q27.65 7.4 28.15 7.4 29.3 7.4 29.3 6.1 M22.75 4.35 Q21.85 4.35 21.6 5.3 L22.3 5.6 22.8 5.45 23.0 4.75 22.75 4.35 M3.35 10.75 Q2.6 11.05 2.6 12.15 L2.7 12.65 Q3.0 13.05 3.8 13.05 L4.6 12.7 5.1 12.35 Q5.8 12.15 5.8 11.4 5.8 10.4 4.55 10.15 3.5 9.9 3.35 10.75 M4.0 9.9 Q6.15 9.95 6.15 11.8 L5.7 13.15 Q5.1 13.95 4.3 13.95 2.85 13.95 2.25 13.05 L1.95 12.15 Q1.95 9.8 4.0 9.9" fill="#ba8028" fill-rule="evenodd" stroke="none"/>
    <path d="M-2.05 -13.3 Q0.2 -14.1 2.7 -14.1 8.5 -14.1 12.85 -10.05 16.4 -5.4 14.9 -0.85 13.4 -5.5 8.75 -9.05 3.75 -12.95 -2.0 -13.3 L-2.05 -13.3 M20.55 14.35 L20.65 14.4 Q21.6 15.0 21.6 15.75 L21.5 16.3 20.85 16.65 19.6 17.0 18.15 17.5 18.05 17.55 18.0 17.55 17.7 17.6 16.95 17.6 14.25 17.6 Q13.6 17.4 13.4 17.05 L13.4 16.65 Q13.45 16.3 14.25 16.2 L18.3 15.75 18.35 15.75 19.05 15.35 18.1 15.2 Q15.85 14.6 15.85 13.45 15.85 12.4 18.0 11.7 20.25 10.85 23.5 10.85 L23.6 11.35 23.3 11.85 22.95 12.05 Q20.2 12.2 18.75 13.0 L18.15 13.3 18.0 13.4 18.3 13.45 20.55 14.35 M22.1 -7.2 Q22.2 -7.75 22.95 -7.4 L23.15 -7.25 Q23.85 -6.8 23.85 -6.25 L23.8 -5.5 23.2 -5.3 Q22.95 -5.3 22.5 -6.0 L22.0 -6.8 22.1 -7.2 M-23.15 -3.1 L-22.95 -3.4 -22.5 -3.55 -22.0 -3.05 -21.7 -2.8 Q-21.7 -2.15 -21.8 -2.25 L-22.3 -1.85 -22.35 -1.85 -22.5 -1.85 -23.2 -2.8 -23.15 -3.1 M-17.65 -2.1 Q-17.8 -1.85 -18.0 -1.8 L-18.35 -1.8 -18.45 -2.3 -18.4 -2.65 -18.4 -2.7 -17.7 -2.65 -17.5 -2.25 -17.65 -2.1 M0.2 7.6 L0.35 8.2 0.3 8.55 -0.05 8.7 -0.2 8.7 Q-1.0 8.7 -1.55 7.9 L-1.6 7.7 -1.95 6.9 Q-1.95 6.25 -1.2 5.7 L-0.35 6.65 -0.25 6.9 0.2 7.6 M15.75 6.7 L17.0 6.85 17.05 7.25 17.1 7.7 16.75 8.55 16.1 9.6 Q15.35 9.3 15.25 8.95 15.2 8.35 14.05 7.6 14.75 6.75 15.7 6.7 L15.75 6.7 M-9.95 8.85 Q-6.8 9.8 -6.8 11.4 L-7.0 12.75 -8.75 14.45 -8.8 14.5 -6.65 15.1 -6.55 15.3 -6.7 15.4 -8.0 15.6 -10.4 15.7 Q-10.9 15.6 -11.05 15.1 L-11.15 14.65 Q-11.15 14.0 -9.95 13.3 -8.6 12.35 -8.25 11.6 -9.9 9.85 -16.2 9.45 -22.95 9.1 -23.95 8.35 L-15.05 7.95 -12.85 8.3 -9.95 8.85 M30.0 9.6 L28.65 9.3 Q28.55 9.65 28.55 9.0 28.55 8.6 30.05 8.2 L33.95 7.35 34.5 7.3 33.8 7.2 31.8 6.4 31.7 6.05 Q32.1 5.15 34.25 5.7 36.45 6.25 36.45 7.2 L36.3 7.55 34.5 8.55 Q32.45 9.45 30.5 9.6 L30.0 9.6 M-26.0 6.25 L-25.9 6.35 -25.9 6.6 -26.1 7.15 -26.65 7.3 -27.1 7.25 Q-27.65 7.0 -27.65 6.25 L-27.6 5.6 -26.75 5.75 -26.6 5.8 -26.0 6.25 M-21.8 1.15 L-21.45 1.1 -21.3 1.15 Q-20.55 1.45 -20.55 2.15 -20.55 2.8 -21.15 3.15 L-21.65 2.55 -22.0 1.7 Q-22.0 1.25 -21.8 1.15 M-24.75 0.5 L-24.75 0.3 -24.7 -0.05 -23.95 0.0 -23.85 0.4 -24.05 0.65 Q-24.15 0.8 -24.35 0.8 L-24.6 0.8 -24.75 0.5 M27.6 5.45 L27.95 5.4 Q28.35 5.55 28.55 6.1 L27.95 6.6 27.6 6.4 Q27.45 6.35 27.45 5.95 27.45 5.55 27.6 5.45 M3.35 10.75 Q3.5 9.9 4.55 10.15 5.8 10.4 5.8 11.4 5.8 12.15 5.1 12.35 L4.55 12.4 Q3.95 12.4 3.6 11.7 L3.3 11.1 3.35 10.75" fill="#ffffff" fill-rule="evenodd" stroke="none"/>
    <path d="M22.1 -7.2 L22.0 -6.8 22.5 -6.0 Q22.95 -5.3 23.2 -5.3 L23.8 -5.5 23.85 -6.25 Q23.85 -6.8 23.15 -7.25 24.2 -7.0 24.2 -5.65 L24.05 -4.55 Q23.8 -4.1 22.65 -4.1 21.7 -4.1 21.45 -5.05 L21.45 -5.8 Q21.45 -6.95 22.1 -7.2 M-23.5 -2.65 L-23.15 -3.1 -23.2 -2.8 -22.5 -1.85 -22.35 -1.85 -22.75 -1.75 -23.5 -2.65 M-17.65 -2.1 L-17.75 -1.0 Q-17.65 -0.7 -18.3 -0.7 -19.0 -0.7 -19.2 -1.15 L-19.2 -1.75 Q-19.2 -2.4 -18.9 -2.5 L-18.4 -2.65 -18.45 -2.3 -18.35 -1.8 -18.0 -1.8 Q-17.8 -1.85 -17.65 -2.1 M-10.4 0.15 L-10.25 0.8 -10.05 2.9 Q-9.95 4.35 -9.35 5.45 L-8.9 6.4 Q-7.85 6.9 -7.0 7.55 L-5.8 7.9 -5.7 8.3 -4.6 8.5 Q-2.6 8.15 -1.6 7.7 L-1.55 7.9 Q-1.0 8.7 -0.2 8.7 L-0.05 8.7 Q0.2 9.0 1.0 9.0 L2.0 8.55 Q2.8 8.0 3.35 8.0 4.8 8.0 5.15 8.7 6.7 8.05 7.6 8.05 9.1 8.05 9.4 8.55 9.75 9.0 11.7 9.0 12.55 9.0 13.4 7.9 14.25 6.65 14.8 6.55 L15.75 6.7 15.7 6.7 Q14.75 6.75 14.05 7.6 15.2 8.35 15.25 8.95 15.35 9.3 16.1 9.6 L16.75 8.55 17.1 7.7 17.05 7.25 17.8 7.7 19.2 6.9 19.3 6.9 19.3 6.2 21.7 6.3 22.45 6.55 23.0 6.4 25.8 6.6 26.4 7.55 Q27.15 8.45 28.15 8.45 29.7 8.45 29.7 6.85 L33.8 7.2 34.5 7.3 33.95 7.35 30.05 8.2 Q28.55 8.6 28.55 9.0 28.55 9.65 28.65 9.3 L30.0 9.6 26.35 9.55 Q25.55 9.45 25.05 9.95 24.45 10.45 24.35 11.15 L24.05 11.8 23.3 11.85 23.6 11.35 23.5 10.85 Q20.25 10.85 18.0 11.7 15.85 12.4 15.85 13.45 15.85 14.6 18.1 15.2 L18.35 15.75 18.3 15.75 14.25 16.2 Q13.45 16.3 13.4 16.65 L13.4 17.05 Q13.6 17.4 14.25 17.6 L16.95 17.6 14.25 17.65 4.9 16.85 4.85 16.85 Q0.9 15.95 -6.7 15.4 L-6.55 15.3 -6.65 15.1 -8.8 14.5 -8.75 14.45 -7.0 12.75 -6.8 11.4 Q-6.8 9.8 -9.95 8.85 L-9.35 8.65 Q-9.0 8.5 -9.0 7.95 L-9.05 7.5 -9.25 7.35 -10.0 7.25 -12.3 7.2 Q-11.7 5.55 -12.85 5.05 -12.05 4.3 -11.5 3.15 L-10.4 0.15 M-0.05 6.3 L0.25 7.2 0.2 7.6 -0.25 6.9 -0.35 6.65 -0.05 6.3 M-26.0 6.25 L-21.9 5.75 Q-21.5 6.1 -20.9 6.1 -20.3 6.1 -19.95 5.6 L-17.65 5.4 -16.7 6.25 -15.35 6.25 -14.1 7.3 -12.85 8.3 -15.05 7.95 -23.95 8.35 Q-22.95 9.1 -16.2 9.45 -9.9 9.85 -8.25 11.6 -8.6 12.35 -9.95 13.3 -11.15 14.0 -11.15 14.65 L-11.05 15.1 -12.5 15.05 -12.25 14.6 -11.8 14.25 Q-11.0 14.15 -10.5 13.6 -10.0 13.0 -10.0 12.2 -10.05 11.45 -10.6 10.9 L-10.6 10.85 Q-11.2 10.3 -11.95 10.3 L-12.0 10.3 -29.35 9.15 -36.3 8.0 Q-35.4 7.4 -29.3 6.65 L-28.95 7.85 Q-28.4 8.95 -27.35 8.95 -25.85 8.95 -25.85 7.2 L-25.9 6.6 -25.9 6.35 -26.0 6.25 M-12.5 15.05 L-12.45 15.1 -12.5 15.1 -12.5 15.05 M-21.45 1.1 L-20.65 1.15 -20.5 1.55 -20.65 4.7 Q-20.65 4.9 -21.3 4.9 -21.95 4.9 -22.25 3.7 L-22.5 2.45 Q-22.5 1.55 -22.3 1.45 L-21.8 1.15 Q-22.0 1.25 -22.0 1.7 L-21.65 2.55 -21.15 3.15 Q-20.55 2.8 -20.55 2.15 -20.55 1.45 -21.3 1.15 L-21.45 1.1 M-24.05 0.65 L-24.55 1.15 -25.1 0.8 -24.75 0.5 -24.6 0.8 -24.35 0.8 Q-24.15 0.8 -24.05 0.65 M-27.1 7.25 L-28.0 7.85 Q-28.65 7.6 -28.65 6.9 -28.65 5.65 -27.6 5.55 -27.0 5.45 -26.75 5.75 L-27.6 5.6 -27.65 6.25 Q-27.65 7.0 -27.1 7.25 M36.3 7.55 L36.7 7.85 36.8 8.2 36.6 8.35 Q34.8 9.45 30.5 9.6 32.45 9.45 34.5 8.55 L36.3 7.55 M29.3 6.1 Q29.3 7.4 28.15 7.4 27.65 7.4 27.3 6.7 L27.0 6.1 Q27.0 5.0 28.15 5.0 29.3 5.0 29.3 6.1 M27.6 5.45 Q27.45 5.55 27.45 5.95 27.45 6.35 27.6 6.4 L27.95 6.6 28.55 6.1 Q28.35 5.55 27.95 5.4 L27.6 5.45 M22.75 4.35 L23.0 4.75 22.8 5.45 22.3 5.6 21.6 5.3 Q21.85 4.35 22.75 4.35 M19.6 17.0 L19.7 17.15 18.25 17.5 18.15 17.5 19.6 17.0 M5.1 12.35 L4.6 12.7 3.8 13.05 Q3.0 13.05 2.7 12.65 L2.6 12.15 Q2.6 11.05 3.35 10.75 L3.3 11.1 3.6 11.7 Q3.95 12.4 4.55 12.4 L5.1 12.35 M4.0 9.9 Q1.95 9.8 1.95 12.15 L2.25 13.05 Q2.85 13.95 4.3 13.95 5.1 13.95 5.7 13.15 L6.15 11.8 Q6.15 9.95 4.0 9.9 M18.3 13.45 L18.0 13.4 18.15 13.3 18.75 13.0 18.3 13.4 18.3 13.45" fill="#ffcc00" fill-rule="evenodd" stroke="none"/>
    <path d="M12.85 -10.05 L14.45 -8.4 Q18.9 -3.05 19.3 4.25 L19.3 5.45 19.3 6.2 19.3 6.9 19.2 6.9 17.8 7.7 17.05 7.25 17.0 6.85 15.75 6.7 14.8 6.55 Q14.25 6.65 13.4 7.9 12.55 9.0 11.7 9.0 9.75 9.0 9.4 8.55 9.1 8.05 7.6 8.05 6.7 8.05 5.15 8.7 4.8 8.0 3.35 8.0 2.8 8.0 2.0 8.55 L1.0 9.0 Q0.2 9.0 -0.05 8.7 L0.3 8.55 0.35 8.2 0.2 7.6 0.25 7.2 -0.05 6.3 0.05 6.1 Q-1.05 4.75 -3.5 5.95 -5.8 6.95 -5.8 7.7 L-5.8 7.9 -7.0 7.55 Q-7.85 6.9 -8.9 6.4 L-9.35 5.45 Q-9.95 4.35 -10.05 2.9 L-10.25 0.8 -10.4 0.15 -10.2 -0.5 -10.3 -1.3 -11.05 -1.2 -11.25 -1.15 Q-11.95 -0.9 -12.35 -0.05 L-13.1 1.9 -13.6 2.55 Q-12.9 -3.65 -8.95 -8.4 -5.85 -12.0 -2.05 -13.3 L-2.0 -13.3 Q3.75 -12.95 8.75 -9.05 13.4 -5.5 14.9 -0.85 16.4 -5.4 12.85 -10.05" fill="#cc0000" fill-rule="evenodd" stroke="none"/>
    <path d="M-2.05 -13.3 Q0.2 -14.1 2.7 -14.1 8.5 -14.1 12.85 -10.05 L14.45 -8.4 Q18.9 -3.05 19.3 4.25 M-13.6 2.55 Q-12.9 -3.65 -8.95 -8.4 -5.85 -12.0 -2.05 -13.3 M19.3 6.9 L19.3 6.2 19.3 5.45 19.3 4.25" fill="none" stroke="#b72900" stroke-linecap="round" stroke-linejoin="round" stroke-width="1.0"/>
    <path d="M17.8 7.7 L19.2 6.9 19.3 6.9" fill="none" stroke="#ba8028" stroke-linecap="round" stroke-linejoin="round" stroke-width="1.0"/>
  </g>
</svg>
