<?xml version="1.0" encoding="UTF-8" standalone="no"?>
<svg xmlns:xlink="http://www.w3.org/1999/xlink" height="362.35px" width="381.95px" xmlns="http://www.w3.org/2000/svg">
  <g transform="matrix(1.0, 0.0, 0.0, 1.0, 189.55, 171.5)">
    <path d="M131.65 -20.4 Q139.4 -18.55 156.25 -18.55 147.0 -15.2 136.8 -13.7 L123.6 -12.55 Q119.2 -9.45 112.25 -7.15 L112.6 -6.6 Q115.0 -2.9 127.1 2.35 115.05 1.9 105.45 -0.25 99.5 -1.55 94.8 -3.4 86.6 -2.55 77.9 -3.05 L77.3 -2.55 Q73.0 0.85 73.2 8.2 65.4 4.15 62.0 -0.35 59.85 -3.05 59.6 -5.8 52.35 -7.7 46.95 -10.7 L45.25 -10.55 Q36.8 -9.5 24.9 -4.2 25.9 -9.5 30.7 -13.7 33.85 -16.4 38.25 -18.45 36.15 -22.05 37.35 -25.85 L35.9 -26.2 Q28.15 -28.1 11.3 -28.05 20.55 -31.45 30.75 -32.95 L43.45 -33.95 Q47.95 -37.3 55.15 -39.7 L54.95 -40.05 Q52.55 -43.75 40.45 -48.95 52.5 -48.5 62.15 -46.4 67.85 -45.1 72.4 -43.3 80.85 -44.3 89.8 -43.7 L90.25 -44.05 Q94.55 -47.45 94.35 -54.8 102.15 -50.75 105.6 -46.25 107.65 -43.6 107.95 -40.85 115.25 -39.0 120.6 -35.85 L122.3 -36.1 Q130.75 -37.1 142.65 -42.4 141.65 -37.1 136.85 -32.9 133.8 -30.15 129.2 -28.05 131.15 -24.55 130.0 -20.85 L131.65 -20.4 M94.25 -26.15 Q96.9 -24.2 95.65 -22.05 94.4 -19.85 89.95 -18.7 85.5 -17.55 80.55 -18.15 75.6 -18.7 72.95 -20.65 70.35 -22.6 71.65 -24.75 72.95 -26.9 77.4 -28.05 L86.75 -28.65 Q91.65 -28.1 94.25 -26.15" fill="none" stroke="#2e2d2d" stroke-linecap="round" stroke-linejoin="round" stroke-width="9.0"/>
    <path d="M30.8 -32.95 Q42.7 -34.7 54.5 -33.55 56.5 -37.5 54.85 -40.0 52.4 -43.7 40.3 -48.95 52.35 -48.5 62.05 -46.35 72.95 -43.9 79.45 -39.6 87.4 -41.8 90.2 -44.1 94.5 -47.45 94.35 -54.9 102.2 -50.85 105.6 -46.35 109.35 -41.35 107.2 -36.4 116.65 -35.45 122.5 -36.2 130.95 -37.25 142.85 -42.55 141.9 -37.3 137.0 -33.05 131.4 -28.2 121.4 -25.3 126.4 -21.75 131.75 -20.45 139.45 -18.55 156.4 -18.6 147.2 -15.2 136.95 -13.7 125.05 -12.0 113.15 -13.15 111.05 -9.1 112.75 -6.55 115.15 -2.85 127.25 2.4 115.2 1.95 105.55 -0.2 94.65 -2.65 88.15 -6.9 80.35 -4.75 77.6 -2.5 73.3 0.85 73.45 8.3 65.6 4.25 62.2 -0.25 58.35 -5.3 60.7 -10.35 51.1 -11.4 45.2 -10.6 36.75 -9.55 24.85 -4.25 25.8 -9.5 30.7 -13.75 36.3 -18.6 46.25 -21.5 41.3 -24.95 36.05 -26.2 28.3 -28.1 11.4 -28.05 20.6 -31.5 30.8 -32.95 M48.35 -21.05 L61.95 -11.0 88.75 -7.9 112.75 -14.15 119.55 -25.65 106.1 -35.55 79.0 -38.65 55.0 -32.45 48.35 -21.05" fill="#9f9f9f" fill-rule="evenodd" stroke="none"/>
    <path d="M94.25 -26.15 Q91.65 -28.1 86.65 -28.65 81.7 -29.25 77.3 -28.1 72.85 -26.95 71.6 -24.75 70.3 -22.6 72.9 -20.65 75.5 -18.7 80.5 -18.15 85.45 -17.55 89.9 -18.7 94.3 -19.85 95.55 -22.05 96.85 -24.2 94.25 -26.15 M123.75 -33.8 Q133.6 -26.5 128.8 -18.25 123.95 -10.05 107.35 -5.75 90.7 -1.45 71.95 -3.55 53.25 -5.75 43.4 -13.05 33.55 -20.35 38.35 -28.55 43.2 -36.75 59.85 -41.05 76.45 -45.35 95.2 -43.25 113.9 -41.1 123.75 -33.8" fill="#727272" fill-rule="evenodd" stroke="none"/>
    <path d="M114.25 -31.3 Q121.75 -25.75 118.2 -19.55 114.45 -13.3 101.8 -10.05 89.15 -6.8 74.95 -8.35 60.8 -10.05 53.3 -15.6 45.85 -21.2 49.35 -27.4 53.1 -33.6 65.75 -36.85 78.4 -40.1 92.6 -38.6 106.8 -36.9 114.25 -31.3 M95.8 -22.1 Q97.0 -24.3 94.4 -26.2 91.75 -28.2 86.85 -28.75 81.85 -29.3 77.45 -28.15 72.95 -27.0 71.75 -24.85 70.5 -22.7 73.15 -20.7 75.75 -18.8 80.7 -18.2 85.55 -17.65 90.05 -18.8 94.45 -19.95 95.8 -22.1" fill="#9f9f9f" fill-rule="evenodd" stroke="none"/>
    <path d="M123.75 -33.8 Q133.6 -26.5 128.8 -18.25 123.95 -10.05 107.35 -5.75 90.7 -1.45 71.95 -3.55 53.25 -5.75 43.4 -13.05 33.55 -20.35 38.35 -28.55 43.2 -36.75 59.85 -41.05 76.45 -45.35 95.2 -43.25 113.9 -41.1 123.75 -33.8 M94.25 -26.15 Q96.85 -24.2 95.55 -22.05 94.3 -19.85 89.9 -18.7 85.45 -17.55 80.5 -18.15 75.5 -18.7 72.9 -20.65 70.3 -22.6 71.6 -24.75 72.85 -26.95 77.3 -28.1 81.7 -29.25 86.65 -28.65 91.65 -28.1 94.25 -26.15" fill="none" stroke="#2e2d2d" stroke-linecap="round" stroke-linejoin="round" stroke-width="3.0"/>
    <path d="M-152.0 -18.55 Q-142.8 -15.2 -132.6 -13.7 L-119.35 -12.55 Q-114.95 -9.45 -108.0 -7.15 L-108.4 -6.6 Q-110.8 -2.9 -122.85 2.35 -110.8 1.9 -101.2 -0.25 -95.25 -1.55 -90.55 -3.4 -82.35 -2.55 -73.65 -3.05 L-73.05 -2.55 Q-68.8 0.85 -68.95 8.2 -61.15 4.15 -57.75 -0.35 -55.65 -3.05 -55.35 -5.8 -48.15 -7.7 -42.75 -10.7 L-41.0 -10.55 Q-32.55 -9.5 -20.7 -4.2 -21.65 -9.5 -26.5 -13.7 -29.6 -16.4 -34.05 -18.45 -31.95 -22.05 -33.1 -25.85 L-31.65 -26.2 Q-23.95 -28.1 -7.1 -28.05 -16.3 -31.45 -26.5 -32.95 L-39.25 -33.95 Q-43.7 -37.3 -50.9 -39.7 L-50.7 -40.05 Q-48.3 -43.75 -36.25 -48.95 -48.25 -48.5 -57.9 -46.4 -63.65 -45.1 -68.15 -43.3 -76.6 -44.3 -85.55 -43.7 L-86.05 -44.05 Q-90.3 -47.45 -90.15 -54.8 -97.95 -50.75 -101.35 -46.25 -103.4 -43.6 -103.7 -40.85 -111.0 -39.0 -116.35 -35.85 L-118.05 -36.1 Q-126.55 -37.1 -138.4 -42.4 -137.45 -37.1 -132.6 -32.9 -129.55 -30.15 -124.95 -28.05 -126.9 -24.55 -125.8 -20.85 L-127.45 -20.4 Q-135.15 -18.55 -152.0 -18.55 M-90.05 -26.15 Q-92.65 -24.2 -91.45 -22.05 -90.15 -19.85 -85.7 -18.7 -81.25 -17.55 -76.35 -18.15 -71.35 -18.7 -68.75 -20.65 -66.1 -22.6 -67.45 -24.75 -68.7 -26.9 -73.15 -28.05 L-82.55 -28.65 Q-87.4 -28.1 -90.05 -26.15" fill="none" stroke="#2e2d2d" stroke-linecap="round" stroke-linejoin="round" stroke-width="9.0"/>
    <path d="M-26.6 -32.95 Q-38.5 -34.7 -50.3 -33.55 -52.3 -37.5 -50.65 -40.0 -48.2 -43.7 -36.1 -48.95 -48.15 -48.5 -57.85 -46.35 -68.75 -43.9 -75.25 -39.6 -83.2 -41.8 -86.0 -44.1 -90.3 -47.45 -90.15 -54.9 -98.0 -50.85 -101.4 -46.35 -105.15 -41.35 -103.0 -36.4 -112.45 -35.45 -118.3 -36.2 -126.75 -37.25 -138.65 -42.55 -137.7 -37.3 -132.8 -33.05 -127.2 -28.2 -117.2 -25.3 -122.2 -21.75 -127.55 -20.45 -135.25 -18.55 -152.2 -18.6 -143.0 -15.2 -132.75 -13.7 -120.85 -12.0 -108.95 -13.15 -106.85 -9.1 -108.55 -6.55 -110.95 -2.85 -123.05 2.4 -111.0 1.95 -101.35 -0.2 -90.45 -2.65 -83.95 -6.9 -76.15 -4.75 -73.4 -2.5 -69.1 0.85 -69.25 8.3 -61.4 4.25 -58.0 -0.25 -54.15 -5.3 -56.5 -10.35 -46.9 -11.4 -41.0 -10.6 -32.55 -9.55 -20.65 -4.25 -21.6 -9.5 -26.5 -13.75 -32.1 -18.6 -42.05 -21.5 -37.1 -24.95 -31.85 -26.2 -24.1 -28.1 -7.2 -28.05 -16.4 -31.5 -26.6 -32.95 M-44.15 -21.05 L-57.75 -11.0 -84.55 -7.9 -108.55 -14.15 -115.35 -25.65 -101.9 -35.55 -74.8 -38.65 -50.8 -32.45 -44.15 -21.05" fill="#9f9f9f" fill-rule="evenodd" stroke="none"/>
    <path d="M-119.55 -33.8 Q-129.4 -26.5 -124.6 -18.25 -119.75 -10.05 -103.15 -5.75 -86.5 -1.45 -67.75 -3.55 -49.05 -5.75 -39.2 -13.05 -29.35 -20.35 -34.15 -28.55 -39.0 -36.75 -55.65 -41.05 -72.25 -45.35 -91.0 -43.25 -109.7 -41.1 -119.55 -33.8 M-90.05 -26.15 Q-87.45 -28.1 -82.45 -28.65 -77.5 -29.25 -73.1 -28.1 -68.65 -26.95 -67.4 -24.75 -66.1 -22.6 -68.7 -20.65 -71.3 -18.7 -76.3 -18.15 -81.25 -17.55 -85.7 -18.7 -90.1 -19.85 -91.35 -22.05 -92.65 -24.2 -90.05 -26.15" fill="#727272" fill-rule="evenodd" stroke="none"/>
    <path d="M-91.6 -22.1 Q-92.8 -24.3 -90.2 -26.25 -87.55 -28.2 -82.65 -28.75 -77.65 -29.3 -73.25 -28.15 -68.75 -27.0 -67.55 -24.85 -66.3 -22.7 -68.95 -20.75 -71.55 -18.8 -76.5 -18.2 -81.35 -17.65 -85.85 -18.8 -90.25 -19.95 -91.6 -22.1 M-110.05 -31.35 Q-117.55 -25.75 -114.0 -19.55 -110.25 -13.35 -97.6 -10.1 -84.95 -6.85 -70.75 -8.35 -56.6 -10.05 -49.1 -15.65 -41.65 -21.2 -45.15 -27.4 -48.9 -33.65 -61.55 -36.9 -74.2 -40.15 -88.4 -38.6 -102.6 -36.9 -110.05 -31.35" fill="#9f9f9f" fill-rule="evenodd" stroke="none"/>
    <path d="M-90.05 -26.15 Q-92.65 -24.2 -91.35 -22.05 -90.1 -19.85 -85.7 -18.7 -81.25 -17.55 -76.3 -18.15 -71.3 -18.7 -68.7 -20.65 -66.1 -22.6 -67.4 -24.75 -68.65 -26.95 -73.1 -28.1 -77.5 -29.25 -82.45 -28.65 -87.45 -28.1 -90.05 -26.15 M-119.55 -33.8 Q-129.4 -26.5 -124.6 -18.25 -119.75 -10.05 -103.15 -5.75 -86.5 -1.45 -67.75 -3.55 -49.05 -5.75 -39.2 -13.05 -29.35 -20.35 -34.15 -28.55 -39.0 -36.75 -55.65 -41.05 -72.25 -45.35 -91.0 -43.25 -109.7 -41.1 -119.55 -33.8" fill="none" stroke="#2e2d2d" stroke-linecap="round" stroke-linejoin="round" stroke-width="3.0"/>
    <path d="M132.65 51.2 L132.8 53.9 139.3 131.5 Q139.95 153.5 101.05 169.45 60.15 186.35 0.9 186.35 -58.35 186.35 -99.25 169.45 -139.4 153.0 -137.4 130.15 L-137.05 127.3 -130.75 52.75 -130.65 51.2 Q-128.6 26.6 -89.65 9.65 -51.55 -6.85 1.0 -6.85 53.45 -6.85 91.6 9.65 130.55 26.6 132.65 51.2" fill="#ffffff" fill-rule="evenodd" stroke="none"/>
    <path d="M132.65 51.2 L132.8 53.9 139.3 131.5 Q139.95 153.5 101.05 169.45 60.15 186.35 0.9 186.35 -58.35 186.35 -99.25 169.45 -139.4 153.0 -137.4 130.15 L-137.05 127.3 -130.75 52.75 -130.65 51.2 Q-128.6 26.6 -89.65 9.65 -51.55 -6.85 1.0 -6.85 53.45 -6.85 91.6 9.65 130.55 26.6 132.65 51.2 Z" fill="none" stroke="#2e2d2d" stroke-linecap="round" stroke-linejoin="round" stroke-width="9.0"/>
    <path d="M-130.75 52.75 L-130.65 51.2 Q-128.55 26.6 -89.6 9.65 -51.5 -6.85 1.0 -6.85 53.45 -6.85 91.65 9.65 130.6 26.6 132.65 51.2 L132.8 53.9 Q132.75 77.6 96.7 95.0 57.7 113.9 1.0 113.9 -55.75 113.9 -94.7 95.0 -131.65 77.2 -130.75 52.75" fill="#564f4f" fill-rule="evenodd" stroke="none"/>
    <path d="M132.8 53.9 L139.35 131.5 139.3 131.5 Q140.0 153.5 101.0 169.5 60.15 186.3 0.9 186.3 -58.35 186.3 -99.2 169.5 -139.35 153.0 -137.4 130.15 L-137.05 127.35 -130.75 52.75 Q-131.65 77.2 -94.7 95.0 -55.75 113.9 1.0 113.9 57.7 113.9 96.7 95.0 132.75 77.6 132.8 53.9" fill="#727272" fill-rule="evenodd" stroke="none"/>
    <path d="M107.8 58.35 Q106.9 76.35 76.5 89.1 45.2 102.3 0.9 102.3 -43.35 102.3 -74.7 89.1 -106.05 75.95 -106.05 57.25 L-105.9 54.9 -105.9 -66.45 107.8 -66.45 107.8 58.35" fill="#ffffff" fill-rule="evenodd" stroke="none"/>
    <path d="M107.8 58.35 Q106.9 76.35 76.5 89.1 45.2 102.3 0.9 102.3 -43.35 102.3 -74.7 89.1 -106.05 75.95 -106.05 57.25 L-105.9 54.9 -105.9 -66.45 107.8 -66.45 107.8 58.35 Z" fill="none" stroke="#560b30" stroke-linecap="round" stroke-linejoin="round" stroke-width="9.0"/>
    <path d="M107.8 58.35 Q106.9 76.35 76.5 89.1 45.2 102.3 0.9 102.3 -43.35 102.3 -74.7 89.1 -106.05 75.95 -106.05 57.25 L-105.9 54.9 -105.9 -66.45 107.8 -66.45 107.8 58.35" fill="#fc65af" fill-rule="evenodd" stroke="none"/>
    <path d="M64.65 -66.45 L75.5 89.45 66.45 92.85 55.35 -66.45 64.65 -66.45 M97.3 -66.45 L106.5 64.75 Q102.05 76.7 83.05 86.1 L72.4 -66.45 97.3 -66.45" fill="#ffa8d2" fill-rule="evenodd" stroke="none"/>
    <path d="M107.8 27.15 Q106.9 45.15 76.5 57.9 45.2 71.1 0.9 71.1 -43.35 71.1 -74.7 57.9 -103.9 45.65 -105.9 28.6 L-105.9 -36.45 107.8 -36.45 107.8 27.15" fill="#560b30" fill-rule="evenodd" stroke="none"/>
    <path d="M159.35 25.3 L161.1 25.75 Q169.55 27.85 187.9 27.75 177.9 31.5 166.75 33.1 L152.3 34.25 Q147.55 37.7 140.0 40.2 L140.35 40.8 Q142.95 44.9 156.2 50.55 143.05 50.05 132.55 47.7 126.05 46.3 120.95 44.3 112.0 45.25 102.45 44.7 L101.85 45.2 Q97.15 48.9 97.35 56.95 88.85 52.55 85.1 47.65 82.85 44.65 82.5 41.7 74.65 39.65 68.8 36.3 L66.9 36.5 Q57.65 37.65 44.7 43.4 45.75 37.65 51.05 33.05 54.45 30.1 59.25 27.85 57.0 24.0 58.25 19.8 L56.65 19.4 Q48.25 17.35 29.85 17.45 39.95 13.7 51.1 12.05 L64.95 10.95 Q69.8 7.35 77.7 4.75 L77.45 4.35 Q74.85 0.3 61.65 -5.4 74.75 -4.95 85.3 -2.6 91.55 -1.2 96.5 0.8 105.7 -0.3 115.5 0.35 L115.95 0.0 Q120.65 -3.7 120.45 -11.8 128.95 -7.35 132.7 -2.45 134.9 0.45 135.2 3.45 143.25 5.5 149.1 8.9 L150.95 8.65 Q160.2 7.5 173.1 1.75 172.1 7.5 166.8 12.1 163.45 15.15 158.45 17.4 160.55 21.2 159.35 25.3 M120.35 19.45 Q123.25 21.6 121.9 24.0 120.45 26.3 115.6 27.55 110.75 28.8 105.45 28.25 100.0 27.65 97.1 25.5 94.25 23.4 95.7 21.0 97.05 18.65 101.9 17.4 106.75 16.15 112.15 16.75 117.5 17.35 120.35 19.45" fill="none" stroke="#2e2d2d" stroke-linecap="round" stroke-linejoin="round" stroke-width="9.0"/>
    <path d="M51.1 12.1 Q64.05 10.2 76.95 11.45 79.1 7.1 77.3 4.45 74.65 0.35 61.45 -5.35 74.6 -4.85 85.15 -2.5 97.05 0.15 104.15 4.85 112.8 2.45 115.9 -0.05 120.55 -3.7 120.4 -11.85 128.9 -7.45 132.65 -2.5 136.75 2.9 134.4 8.35 144.7 9.4 151.1 8.55 160.3 7.4 173.25 1.65 172.2 7.35 166.9 12.0 160.8 17.3 149.9 20.45 155.35 24.35 161.15 25.75 169.6 27.8 188.05 27.7 178.05 31.45 166.85 33.05 153.85 34.95 140.9 33.7 138.6 38.1 140.45 40.85 143.1 44.95 156.25 50.65 143.1 50.15 132.6 47.8 120.75 45.15 113.65 40.5 105.15 42.85 102.1 45.3 97.4 49.0 97.6 57.1 89.05 52.7 85.35 47.75 81.15 42.25 83.65 36.75 73.25 35.6 66.75 36.45 57.6 37.6 44.6 43.4 45.65 37.65 50.95 33.05 57.05 27.7 67.95 24.6 62.5 20.85 56.8 19.45 48.4 17.35 29.9 17.45 39.95 13.7 51.1 12.1 M70.2 25.05 L85.05 36.05 114.25 39.4 140.45 32.6 147.85 20.05 133.25 9.25 103.65 5.85 77.5 12.65 70.2 25.05" fill="#9f9f9f" fill-rule="evenodd" stroke="none"/>
    <path d="M152.55 11.15 Q163.25 19.1 158.0 28.1 152.8 37.05 134.65 41.75 116.5 46.4 96.05 44.1 75.65 41.75 64.95 33.8 54.2 25.8 59.4 16.85 64.7 7.85 82.85 3.2 101.0 -1.5 121.35 0.85 141.8 3.15 152.55 11.15 M120.35 19.5 Q117.45 17.35 112.05 16.7 106.65 16.15 101.85 17.4 97.0 18.65 95.6 20.95 94.2 23.35 97.1 25.5 99.95 27.6 105.35 28.2 110.75 28.85 115.6 27.6 120.4 26.35 121.8 23.95 123.2 21.6 120.35 19.5" fill="#727272" fill-rule="evenodd" stroke="none"/>
    <path d="M121.95 23.95 Q123.25 21.55 120.4 19.45 117.5 17.3 112.2 16.65 106.7 16.1 101.95 17.35 97.05 18.6 95.7 20.9 94.3 23.3 97.2 25.45 100.05 27.55 105.45 28.2 110.8 28.8 115.7 27.55 120.45 26.3 121.95 23.95 M142.05 13.85 Q150.2 19.9 146.3 26.7 142.25 33.45 128.45 37.05 114.65 40.6 99.15 38.9 83.7 37.05 75.55 31.0 67.4 24.95 71.3 18.2 75.35 11.4 89.15 7.85 102.95 4.25 118.45 6.0 133.9 7.8 142.05 13.85" fill="#9f9f9f" fill-rule="evenodd" stroke="none"/>
    <path d="M127.6 1.75 L113.05 16.9 112.15 16.75 Q106.75 16.15 101.9 17.4 97.05 18.65 95.7 21.0 94.25 23.4 97.1 25.5 99.2 27.05 102.55 27.75 L88.0 42.9 Q79.75 41.3 73.45 38.6 L110.5 0.1 121.4 0.85 127.6 1.75 M120.35 19.45 L119.7 19.1 134.95 3.3 Q139.95 4.6 144.05 6.4 L106.85 44.9 96.15 44.1 95.65 44.05 110.8 28.4 115.6 27.55 Q120.45 26.3 121.9 24.0 123.25 21.6 120.35 19.45" fill="#ffffff" fill-opacity="0.7058824" fill-rule="evenodd" stroke="none"/>
    <path d="M-158.25 25.9 Q-166.7 28.0 -185.05 27.9 -175.05 31.65 -163.9 33.25 L-149.45 34.4 Q-144.7 37.85 -137.15 40.35 L-137.5 40.95 Q-140.1 45.05 -153.35 50.7 -140.2 50.2 -129.7 47.85 -123.2 46.45 -118.1 44.45 -109.15 45.4 -99.6 44.85 L-99.0 45.35 Q-94.3 49.05 -94.5 57.1 -86.0 52.7 -82.25 47.8 -80.0 44.8 -79.65 41.85 -71.8 39.8 -65.95 36.45 L-64.05 36.65 Q-54.8 37.8 -41.85 43.55 -42.9 37.8 -48.2 33.2 -51.6 30.25 -56.4 28.0 -54.15 24.15 -55.4 19.95 L-53.8 19.55 Q-45.4 17.5 -27.0 17.6 -37.1 13.85 -48.25 12.2 L-62.1 11.1 Q-66.95 7.5 -74.85 4.9 L-74.6 4.5 Q-72.0 0.45 -58.8 -5.25 -71.9 -4.8 -82.45 -2.45 -88.7 -1.05 -93.65 0.95 -102.85 -0.15 -112.65 0.5 L-113.1 0.15 Q-117.8 -3.55 -117.6 -11.65 -126.1 -7.2 -129.85 -2.3 -132.05 0.6 -132.35 3.6 -140.4 5.65 -146.25 9.05 L-148.1 8.8 Q-157.35 7.65 -170.25 1.9 -169.25 7.65 -163.95 12.25 -160.6 15.3 -155.6 17.55 -157.7 21.35 -156.5 25.45 L-158.25 25.9 M-117.5 19.6 Q-120.4 21.75 -119.05 24.15 -117.6 26.45 -112.75 27.7 -107.9 28.95 -102.6 28.4 -97.15 27.8 -94.25 25.65 -91.4 23.55 -92.85 21.15 -94.2 18.8 -99.05 17.55 -103.9 16.3 -109.3 16.9 -114.65 17.5 -117.5 19.6" fill="none" stroke="#2e2d2d" stroke-linecap="round" stroke-linejoin="round" stroke-width="9.0"/>
    <path d="M-48.25 12.25 Q-61.2 10.35 -74.1 11.6 -76.25 7.25 -74.45 4.6 -71.8 0.5 -58.6 -5.2 -71.75 -4.7 -82.3 -2.35 -94.2 0.3 -101.3 5.0 -109.95 2.6 -113.05 0.1 -117.7 -3.55 -117.55 -11.7 -126.05 -7.3 -129.8 -2.35 -133.9 3.05 -131.55 8.5 -141.85 9.55 -148.25 8.7 -157.45 7.55 -170.4 1.8 -169.35 7.5 -164.05 12.15 -157.95 17.45 -147.05 20.6 -152.5 24.5 -158.3 25.9 -166.75 27.95 -185.2 27.85 -175.2 31.6 -164.0 33.2 -151.0 35.1 -138.05 33.85 -135.75 38.25 -137.6 41.0 -140.25 45.1 -153.4 50.8 -140.25 50.3 -129.75 47.95 -117.9 45.3 -110.8 40.65 -102.3 43.0 -99.25 45.45 -94.55 49.15 -94.75 57.25 -86.2 52.85 -82.5 47.9 -78.3 42.4 -80.8 36.9 -70.4 35.75 -63.9 36.6 -54.75 37.75 -41.75 43.55 -42.8 37.8 -48.1 33.2 -54.2 27.85 -65.1 24.75 -59.65 21.0 -53.95 19.6 -45.55 17.5 -27.05 17.6 -37.1 13.85 -48.25 12.25 M-67.35 25.2 L-82.2 36.2 -111.4 39.55 -137.6 32.75 -145.0 20.2 -130.4 9.4 -100.8 6.0 -74.65 12.8 -67.35 25.2" fill="#9f9f9f" fill-rule="evenodd" stroke="none"/>
    <path d="M-117.5 19.65 Q-114.6 17.5 -109.2 16.85 -103.8 16.3 -99.0 17.55 -94.15 18.8 -92.75 21.1 -91.35 23.5 -94.25 25.65 -97.1 27.75 -102.5 28.35 -107.9 29.0 -112.75 27.75 -117.55 26.5 -118.95 24.1 -120.35 21.75 -117.5 19.65 M-149.7 11.3 Q-160.4 19.25 -155.15 28.25 -149.95 37.2 -131.8 41.9 -113.65 46.55 -93.2 44.25 -72.8 41.9 -62.1 33.95 -51.35 25.95 -56.55 17.0 -61.85 8.0 -80.0 3.35 -98.15 -1.35 -118.5 1.0 -138.95 3.3 -149.7 11.3" fill="#727272" fill-rule="evenodd" stroke="none"/>
    <path d="M-139.2 14.0 Q-147.35 20.05 -143.45 26.85 -139.4 33.6 -125.6 37.2 -111.8 40.75 -96.3 39.05 -80.85 37.2 -72.7 31.15 -64.55 25.1 -68.45 18.35 -72.5 11.55 -86.3 8.0 -100.1 4.4 -115.6 6.15 -131.05 7.95 -139.2 14.0 M-119.1 24.1 Q-120.4 21.7 -117.55 19.6 -114.65 17.45 -109.35 16.8 -103.85 16.25 -99.1 17.5 -94.2 18.75 -92.85 21.05 -91.45 23.45 -94.35 25.6 -97.2 27.7 -102.6 28.35 -107.95 28.95 -112.85 27.7 -117.6 26.45 -119.1 24.1" fill="#9f9f9f" fill-rule="evenodd" stroke="none"/>
    <path d="M-117.5 19.6 L-116.85 19.25 -132.1 3.45 Q-137.1 4.75 -141.2 6.55 L-104.0 45.05 -93.3 44.25 -92.8 44.2 -107.95 28.55 -112.75 27.7 Q-117.6 26.45 -119.05 24.15 -120.4 21.75 -117.5 19.6 M-124.75 1.9 L-110.2 17.05 -109.3 16.9 Q-103.9 16.3 -99.05 17.55 -94.2 18.8 -92.85 21.15 -91.4 23.55 -94.25 25.65 -96.35 27.2 -99.7 27.9 L-85.15 43.05 Q-76.9 41.45 -70.6 38.75 L-107.65 0.25 -118.55 1.0 -124.75 1.9" fill="#ffffff" fill-opacity="0.7058824" fill-rule="evenodd" stroke="none"/>
    <path d="M65.25 62.3 Q75.15 64.75 96.7 64.7 84.9 69.0 71.85 70.9 L54.85 72.35 Q49.25 76.35 40.4 79.3 L40.8 80.0 Q43.9 84.75 59.4 91.45 44.0 90.9 31.65 88.15 24.05 86.45 18.05 84.1 7.55 85.2 -3.6 84.55 L-4.4 85.15 Q-9.9 89.45 -9.6 98.95 -19.6 93.8 -24.0 88.0 -26.7 84.5 -27.05 81.05 -36.3 78.6 -43.2 74.7 L-45.4 74.95 Q-56.25 76.25 -71.45 83.05 -70.25 76.3 -64.0 70.85 -60.0 67.45 -54.4 64.8 -57.05 60.2 -55.55 55.35 L-57.4 54.85 Q-67.3 52.45 -88.85 52.55 -77.1 48.15 -63.95 46.25 L-47.7 44.95 Q-41.95 40.7 -32.75 37.65 L-33.0 37.2 Q-36.05 32.45 -51.55 25.75 -36.15 26.3 -23.8 29.05 -16.45 30.65 -10.65 33.0 0.15 31.7 11.65 32.5 L12.2 32.05 Q17.7 27.7 17.5 18.25 27.45 23.45 31.85 29.15 34.45 32.6 34.85 36.1 44.2 38.5 51.15 42.5 L53.25 42.25 Q64.15 40.9 79.35 34.15 78.05 40.85 71.85 46.3 67.9 49.8 62.0 52.5 64.55 57.0 63.15 61.75 L65.25 62.3 M17.35 55.0 Q20.7 57.5 19.1 60.2 17.5 63.0 11.8 64.45 6.1 65.95 -0.2 65.2 -6.6 64.55 -9.95 62.05 -13.3 59.5 -11.6 56.75 -10.0 54.0 -4.3 52.5 1.4 51.05 7.7 51.75 14.0 52.45 17.35 55.0" fill="none" stroke="#2e2d2d" stroke-linecap="round" stroke-linejoin="round" stroke-width="9.0"/>
    <path d="M-149.7 11.3 Q-160.4 19.25 -155.15 28.25 -149.95 37.2 -131.8 41.9 -113.65 46.55 -93.2 44.25 -72.8 41.9 -62.1 33.95 -51.35 25.95 -56.55 17.0 -61.85 8.0 -80.0 3.35 -98.15 -1.35 -118.5 1.0 -138.95 3.3 -149.7 11.3 M-117.5 19.65 Q-120.35 21.75 -118.95 24.1 -117.55 26.5 -112.75 27.75 -107.9 29.0 -102.5 28.35 -97.1 27.75 -94.25 25.65 -91.35 23.5 -92.75 21.1 -94.15 18.8 -99.0 17.55 -103.8 16.3 -109.2 16.85 -114.6 17.5 -117.5 19.65" fill="none" stroke="#2e2d2d" stroke-linecap="round" stroke-linejoin="round" stroke-width="3.0"/>
    <path d="M120.35 19.5 Q123.2 21.6 121.8 23.95 120.4 26.35 115.6 27.6 110.75 28.85 105.35 28.2 99.95 27.6 97.1 25.5 94.2 23.35 95.6 20.95 97.0 18.65 101.85 17.4 106.65 16.15 112.05 16.7 117.45 17.35 120.35 19.5 M152.55 11.15 Q163.25 19.1 158.0 28.1 152.8 37.05 134.65 41.75 116.5 46.4 96.05 44.1 75.65 41.75 64.95 33.8 54.2 25.8 59.4 16.85 64.7 7.85 82.85 3.2 101.0 -1.5 121.35 0.85 141.8 3.15 152.55 11.15" fill="none" stroke="#2e2d2d" stroke-linecap="round" stroke-linejoin="round" stroke-width="3.0"/>
    <path d="M-63.9 46.25 Q-48.7 44.05 -33.55 45.5 -31.0 40.45 -33.15 37.25 -36.3 32.5 -51.75 25.8 -36.3 26.4 -23.95 29.15 -10.0 32.25 -1.6 37.75 8.55 34.95 12.15 32.0 17.65 27.7 17.45 18.15 27.45 23.35 31.8 29.15 36.65 35.5 33.9 41.85 46.0 43.1 53.5 42.1 64.3 40.75 79.55 34.0 78.3 40.7 72.05 46.15 64.9 52.4 52.1 56.05 58.5 60.65 65.3 62.25 75.2 64.7 96.9 64.6 85.1 69.0 72.0 70.9 56.75 73.1 41.5 71.65 38.8 76.8 40.95 80.05 44.1 84.8 59.55 91.5 44.15 90.95 31.75 88.2 17.85 85.05 9.5 79.65 -0.45 82.35 -4.05 85.25 -9.55 89.6 -9.35 99.1 -19.35 93.95 -23.7 88.15 -28.65 81.65 -25.7 75.2 -37.9 73.9 -45.5 74.9 -56.3 76.25 -71.55 83.0 -70.3 76.3 -64.1 70.85 -56.95 64.6 -44.15 60.95 -50.55 56.5 -57.2 54.9 -67.1 52.45 -88.8 52.55 -77.0 48.15 -63.9 46.25 M-41.5 61.5 L-24.1 74.4 10.25 78.35 41.0 70.35 49.7 55.6 32.5 42.95 -2.25 38.95 -32.95 46.9 -41.5 61.5" fill="#9f9f9f" fill-rule="evenodd" stroke="none"/>
    <path d="M17.4 54.9 Q14.0 52.4 7.65 51.7 1.35 50.95 -4.35 52.45 -10.05 53.9 -11.65 56.7 -13.3 59.45 -9.9 61.95 -6.55 64.45 -0.2 65.2 6.1 65.9 11.8 64.45 17.5 62.95 19.1 60.2 20.75 57.4 17.4 54.9 M55.2 45.15 Q67.8 54.5 61.65 65.05 55.45 75.55 34.15 81.05 12.85 86.55 -11.1 83.85 -35.1 81.05 -47.7 71.7 -60.35 62.3 -54.15 51.85 -48.0 41.3 -26.7 35.8 -5.4 30.3 18.6 33.05 42.55 35.75 55.2 45.15" fill="#727272" fill-rule="evenodd" stroke="none"/>
    <path d="M42.9 48.3 Q52.45 55.4 47.9 63.4 43.15 71.35 26.95 75.55 10.75 79.7 -7.45 77.7 -25.6 75.55 -35.15 68.45 -44.75 61.3 -40.2 53.35 -35.4 45.4 -19.2 41.25 -3.0 37.05 15.15 39.05 33.3 41.15 42.9 48.3 M19.25 60.15 Q20.8 57.3 17.5 54.85 14.1 52.3 7.8 51.65 1.45 50.95 -4.15 52.4 -9.9 53.85 -11.55 56.65 -13.1 59.35 -9.7 61.9 -6.4 64.35 -0.1 65.15 6.2 65.85 11.95 64.4 17.55 62.95 19.25 60.15" fill="#9f9f9f" fill-rule="evenodd" stroke="none"/>
    <path d="M17.35 55.0 L16.6 54.5 34.45 35.95 Q40.3 37.5 45.15 39.6 L1.45 84.75 -11.1 83.85 -11.65 83.8 6.1 65.45 11.8 64.45 Q17.5 63.0 19.1 60.2 20.7 57.5 17.35 55.0 M25.9 34.15 L8.75 51.9 7.7 51.75 Q1.4 51.05 -4.3 52.5 -10.0 54.0 -11.6 56.75 -13.3 59.5 -9.95 62.05 -7.55 63.8 -3.55 64.7 L-20.65 82.45 Q-30.35 80.55 -37.75 77.4 L5.8 32.25 18.6 33.1 25.9 34.15" fill="#ffffff" fill-opacity="0.7058824" fill-rule="evenodd" stroke="none"/>
    <path d="M55.2 45.15 Q67.8 54.5 61.65 65.05 55.45 75.55 34.15 81.05 12.85 86.55 -11.1 83.85 -35.1 81.05 -47.7 71.7 -60.35 62.3 -54.15 51.85 -48.0 41.3 -26.7 35.8 -5.4 30.3 18.6 33.05 42.55 35.75 55.2 45.15 M17.4 54.9 Q20.75 57.4 19.1 60.2 17.5 62.95 11.8 64.45 6.1 65.9 -0.2 65.2 -6.55 64.45 -9.9 61.95 -13.3 59.45 -11.65 56.7 -10.05 53.9 -4.35 52.45 1.35 50.95 7.65 51.7 14.0 52.4 17.4 54.9" fill="none" stroke="#2e2d2d" stroke-linecap="round" stroke-linejoin="round" stroke-width="3.0"/>
    <path d="M107.8 -10.05 Q106.9 7.95 76.5 20.7 45.2 33.9 0.9 33.9 -43.35 33.9 -74.7 20.7 -103.9 8.45 -105.9 -8.6 L-105.9 -73.65 107.8 -73.65 107.8 -10.05" fill="#ffffff" fill-rule="evenodd" stroke="none"/>
    <path d="M107.8 -10.05 Q106.9 7.95 76.5 20.7 45.2 33.9 0.9 33.9 -43.35 33.9 -74.7 20.7 -103.9 8.45 -105.9 -8.6 L-105.9 -73.65 107.8 -73.65 107.8 -10.05 Z" fill="none" stroke="#560b30" stroke-linecap="round" stroke-linejoin="round" stroke-width="9.0"/>
    <path d="M107.8 -10.05 Q106.9 7.95 76.5 20.7 45.2 33.9 0.9 33.9 -43.35 33.9 -74.7 20.7 -103.9 8.45 -105.9 -8.6 L-105.9 -73.65 107.8 -73.65 107.8 -10.05" fill="#fc65af" fill-rule="evenodd" stroke="none"/>
    <path d="M64.65 -66.45 L70.9 23.5 70.85 22.95 61.8 26.0 55.35 -66.45 64.65 -66.45 M97.3 -66.45 L102.2 3.7 Q95.0 12.6 78.45 19.9 L72.4 -66.45 97.3 -66.45" fill="#ffa8d2" fill-rule="evenodd" stroke="none"/>
    <path d="M115.0 -76.55 L115.0 -41.55 Q114.0 -23.55 81.55 -10.8 48.15 2.4 0.9 2.4 -46.35 2.4 -79.8 -10.8 -113.25 -23.95 -113.25 -42.65 L-113.1 -45.05 -113.1 -76.55 -113.15 -78.3 Q-113.15 -97.0 -79.75 -110.2 -46.3 -123.35 0.95 -123.35 48.2 -123.35 81.65 -110.2 115.1 -97.0 115.1 -78.3 L115.0 -76.55" fill="#ffffff" fill-rule="evenodd" stroke="none"/>
    <path d="M115.0 -76.55 L115.0 -41.55 Q114.0 -23.55 81.55 -10.8 48.15 2.4 0.9 2.4 -46.35 2.4 -79.8 -10.8 -113.25 -23.95 -113.25 -42.65 L-113.1 -45.05 -113.1 -76.55 -113.15 -78.3 Q-113.15 -97.0 -79.75 -110.2 -46.3 -123.35 0.95 -123.35 48.2 -123.35 81.65 -110.2 115.1 -97.0 115.1 -78.3 L115.0 -76.55 Z" fill="none" stroke="#2e2d2d" stroke-linecap="round" stroke-linejoin="round" stroke-width="9.0"/>
    <path d="M114.95 -41.5 Q114.0 -23.55 81.55 -10.8 48.15 2.4 0.85 2.4 -46.35 2.4 -79.8 -10.8 -113.25 -23.95 -113.25 -42.65 L-113.15 -45.0 -113.15 -78.15 115.0 -78.15 115.0 -41.5 114.95 -41.5" fill="#564f4f" fill-rule="evenodd" stroke="none"/>
    <path d="M105.0 -78.2 L108.5 -27.2 Q104.25 -22.6 97.3 -18.35 L93.15 -78.2 105.0 -78.2 M68.0 -6.15 L63.0 -78.2 86.05 -78.2 90.45 -14.65 Q86.35 -12.7 81.55 -10.8 75.05 -8.25 68.0 -6.15" fill="#cfcfcf" fill-rule="evenodd" stroke="none"/>
    <path d="M101.5 -77.55 Q99.25 -70.7 85.65 -64.2 58.2 -51.2 0.95 -51.2 -56.25 -51.2 -83.75 -64.25 -92.35 -68.35 -96.8 -73.2 -99.7 -76.4 -99.6 -77.55 -95.85 -116.55 -65.75 -142.45 -37.1 -167.0 0.95 -167.0 39.05 -167.0 67.65 -142.45 97.75 -116.55 101.5 -77.55" fill="#ffffff" fill-rule="evenodd" stroke="none"/>
    <path d="M101.5 -77.55 Q97.75 -116.55 67.65 -142.45 39.05 -167.0 0.95 -167.0 -37.1 -167.0 -65.75 -142.45 -95.85 -116.55 -99.6 -77.55 -99.7 -76.4 -96.8 -73.2 -92.35 -68.35 -83.75 -64.25 -56.25 -51.2 0.95 -51.2 58.2 -51.2 85.65 -64.2 99.25 -70.7 101.5 -77.55 Z" fill="none" stroke="#560b30" stroke-linecap="round" stroke-linejoin="round" stroke-width="9.0"/>
    <path d="M115.05 -78.3 Q115.05 -59.6 81.6 -46.5 48.15 -33.25 0.9 -33.25 -46.35 -33.25 -79.8 -46.5 -113.2 -59.6 -113.2 -78.3 -113.2 -97.0 -79.8 -110.25 -46.35 -123.35 0.9 -123.35 48.15 -123.35 81.6 -110.25 115.05 -97.0 115.05 -78.3" fill="#727272" fill-rule="evenodd" stroke="none"/>
    <path d="M101.5 -77.55 Q99.25 -70.7 85.65 -64.2 58.2 -51.2 0.95 -51.2 -56.25 -51.2 -83.75 -64.25 -92.35 -68.35 -96.8 -73.2 -99.7 -76.4 -99.6 -77.55 -95.85 -116.55 -65.75 -142.45 -37.1 -167.0 0.95 -167.0 39.05 -167.0 67.65 -142.45 97.75 -116.55 101.5 -77.55" fill="#fc65af" fill-rule="evenodd" stroke="none"/>
    <path d="M96.7 95.0 L99.35 93.7 104.5 168.0 101.0 169.5 Q91.95 173.2 82.0 176.15 L76.9 103.0 Q87.3 99.5 96.7 95.0 M106.15 89.95 Q112.55 86.2 117.45 82.1 L122.75 158.1 Q117.8 161.55 111.4 164.75 L106.15 89.95" fill="#cfcfcf" fill-rule="evenodd" stroke="none"/>
    <path d="M47.45 -154.2 Q52.9 -150.7 55.35 -146.35 L57.7 -146.0 63.8 -145.6 67.65 -142.45 71.4 -139.05 70.5 -138.75 Q64.1 -136.6 56.7 -135.6 55.1 -131.0 49.7 -126.9 L51.15 -125.7 Q58.2 -120.7 79.5 -114.8 64.0 -113.35 49.4 -115.0 39.9 -116.1 31.8 -118.3 22.35 -115.55 10.85 -114.8 L10.25 -113.7 Q7.4 -107.35 14.15 -93.95 -0.4 -99.85 -8.4 -107.1 -13.2 -111.45 -15.2 -115.9 -25.6 -117.55 -33.8 -121.05 L-35.6 -120.55 Q-46.3 -117.55 -60.8 -106.8 -60.85 -115.6 -55.6 -122.8 -52.6 -127.0 -47.85 -130.45 -51.8 -134.9 -51.6 -139.9 L-53.45 -140.15 Q-59.0 -140.85 -68.1 -140.35 L-65.75 -142.45 -58.95 -147.8 Q-52.95 -149.3 -46.85 -150.05 -43.2 -153.9 -36.55 -157.0 L-37.1 -157.55 Q-37.95 -158.3 -39.3 -159.05 -32.8 -161.85 -25.95 -163.65 L-20.15 -162.55 Q-12.1 -164.3 -2.95 -164.7 L-2.75 -165.0 Q-2.15 -165.9 -1.95 -166.95 L0.95 -167.0 14.05 -166.25 16.25 -164.15 Q25.0 -163.15 32.8 -160.7 L33.55 -160.9 35.25 -161.35 Q42.1 -158.95 48.55 -155.55 L47.45 -154.2 M12.75 -147.75 L9.25 -148.9 5.6 -149.5 3.05 -149.55 Q-2.75 -149.55 -6.8 -147.75 -11.0 -146.0 -11.15 -143.25 -11.4 -140.55 -7.3 -138.5 -5.35 -137.55 -2.75 -137.0 L2.85 -136.5 3.05 -136.5 8.65 -137.0 Q11.2 -137.55 13.3 -138.5 17.35 -140.5 17.1 -143.25 16.9 -145.95 12.75 -147.75" fill="#000000" fill-rule="evenodd" stroke="none"/>
    <path d="M-42.95 -157.45 Q-22.85 -167.05 0.95 -167.05 39.05 -167.05 67.65 -142.45 97.75 -116.55 101.5 -77.6 100.7 -75.05 98.35 -72.6 89.65 -106.65 61.45 -130.9 27.65 -159.95 -17.4 -159.95 -30.65 -159.95 -42.95 -157.45" fill="#ffffff" fill-opacity="0.49803922" fill-rule="evenodd" stroke="none"/>
  </g>
</svg>
