<?xml version="1.0" encoding="UTF-8" standalone="no"?>
<svg xmlns:xlink="http://www.w3.org/1999/xlink" height="69.0px" width="113.9px" xmlns="http://www.w3.org/2000/svg">
  <g transform="matrix(1.0, 0.0, 0.0, 1.0, 59.8, 68.8)">
    <path d="M17.05 -8.5 Q18.3 -13.7 9.45 -23.1 4.85 -28.0 -0.05 -31.8 -1.9 -31.05 -4.7 -30.7 -10.3 -30.1 -14.65 -32.2 -19.0 -34.4 -23.4 -37.9 L-27.0 -40.95 -43.1 -38.65 -43.5 -49.4 Q-38.4 -53.0 -34.3 -53.7 -29.75 -54.45 -21.15 -52.85 -27.4 -56.2 -32.3 -55.65 -36.6 -55.2 -45.6 -50.9 L-46.05 -44.85 -53.8 -44.5 -53.2 -55.3 -33.2 -62.8 Q-10.75 -62.15 -4.1 -60.65 -0.65 -59.9 7.35 -56.2 17.4 -51.6 25.8 -46.15 50.3 -30.05 47.9 -14.75 L47.45 -12.1 17.05 -8.5" fill="#bf7926" fill-rule="evenodd" stroke="none"/>
    <path d="M47.45 -12.1 L47.9 -14.75 Q50.3 -30.05 25.8 -46.15 17.4 -51.6 7.35 -56.2 -0.65 -59.9 -4.1 -60.65 -10.75 -62.15 -33.2 -62.8 L-53.2 -55.3 -53.8 -44.5 -46.05 -44.85 -45.6 -50.9 Q-36.6 -55.2 -32.3 -55.65 -27.4 -56.2 -21.15 -52.85 -29.75 -54.45 -34.3 -53.7 -38.4 -53.0 -43.5 -49.4 L-43.1 -38.65 -27.0 -40.95 -23.4 -37.9 Q-19.0 -34.4 -14.65 -32.2 -10.3 -30.1 -4.7 -30.7 -1.9 -31.05 -0.05 -31.8 4.85 -28.0 9.45 -23.1 18.3 -13.7 17.05 -8.5" fill="none" stroke="#102c4d" stroke-linecap="square" stroke-linejoin="round" stroke-width="9.0"/>
    <path d="M16.95 -8.15 Q18.6 -13.4 9.45 -23.1 4.85 -28.0 -0.05 -31.8 -1.9 -31.05 -4.7 -30.7 -10.3 -30.1 -14.65 -32.2 -19.0 -34.4 -23.4 -37.9 L-27.0 -40.95 -43.1 -38.65 -43.5 -49.4 Q-38.4 -53.0 -34.3 -53.7 -29.75 -54.45 -21.15 -52.85 -27.4 -56.2 -32.3 -55.65 -36.6 -55.2 -45.6 -50.9 L-46.05 -44.85 -53.8 -44.5 -53.2 -55.3 -33.2 -62.8 Q-10.75 -62.15 -4.1 -60.65 -0.65 -59.9 7.35 -56.2 17.4 -51.6 25.8 -46.15 50.3 -30.05 47.9 -14.75 47.0 -9.0 45.4 -3.6 L13.4 0.2 Q15.65 -3.95 16.95 -8.15" fill="#bf7926" fill-rule="evenodd" stroke="none"/>
    <path d="M1.05 -58.95 L1.75 -58.65 7.35 -56.2 Q17.4 -51.6 25.8 -46.15 50.3 -30.05 47.9 -14.75 47.2 -10.3 46.1 -6.05 L46.05 -5.95 45.95 -5.55 45.75 -4.8 45.85 -5.15 45.4 -3.6 13.4 0.2 14.3 -1.5 Q15.9 -4.8 16.95 -8.15 18.6 -13.4 9.45 -23.1 4.85 -28.0 -0.05 -31.8 -1.9 -31.05 -4.7 -30.7 L-11.4 -31.05 Q-8.55 -32.85 -4.45 -33.55 -7.75 -34.95 -10.2 -39.35 -3.5 -42.75 3.15 -42.4 -1.65 -45.4 -4.2 -51.2 0.55 -52.95 4.75 -52.55 0.65 -53.55 -3.1 -57.8 L1.05 -58.95" fill="#70381f" fill-rule="evenodd" stroke="none"/>
    <path d="M9.45 -23.1 Q5.7 -27.1 1.75 -30.35 17.2 -34.1 16.7 -51.55 21.45 -48.95 25.8 -46.15 50.3 -30.05 47.9 -14.75 47.0 -9.0 45.4 -3.6 L13.4 0.2 Q15.65 -3.95 16.95 -8.15 18.6 -13.4 9.45 -23.1" fill="#137bf0" fill-rule="evenodd" stroke="none"/>
  </g>
</svg>
