<?xml version="1.0" encoding="UTF-8" standalone="no"?>
<svg xmlns:xlink="http://www.w3.org/1999/xlink" height="157.25px" width="111.75px" xmlns="http://www.w3.org/2000/svg">
  <g transform="matrix(1.0, 0.0, 0.0, 1.0, 4.9, 140.55)">
    <path d="M81.35 -91.8 L86.95 -43.95 Q92.2 4.0 90.25 4.35 88.25 4.7 74.0 -41.65 L60.2 -88.05 Q67.45 -101.2 81.35 -91.8" fill="#000000" fill-rule="evenodd" stroke="none"/>
    <path d="M81.35 -91.8 L86.95 -43.95 Q92.2 4.0 90.25 4.35 88.25 4.7 74.0 -41.65 L60.2 -88.05 Q67.45 -101.2 81.35 -91.8 Z" fill="none" stroke="#000000" stroke-linecap="round" stroke-linejoin="round" stroke-width="10.0"/>
    <path d="M82.8 -48.65 Q85.95 -50.65 87.55 -52.65 83.95 -49.95 80.65 -49.5 L80.45 -52.65 Q85.75 -55.7 92.6 -56.05 L95.7 -44.25 Q92.75 -41.2 88.4 -38.45 83.9 -35.55 80.35 -34.5 L77.35 -45.8 Q80.05 -46.85 82.8 -48.65" fill="#bf7926" fill-rule="evenodd" stroke="none"/>
    <path d="M82.8 -48.65 Q85.95 -50.65 87.55 -52.65 83.95 -49.95 80.65 -49.5 L80.45 -52.65 Q85.75 -55.7 92.6 -56.05 L95.7 -44.25 Q92.75 -41.2 88.4 -38.45 83.9 -35.55 80.35 -34.5 L77.35 -45.8 Q80.05 -46.85 82.8 -48.65 Z" fill="none" stroke="#3c190a" stroke-linecap="round" stroke-linejoin="round" stroke-width="10.0"/>
    <path d="M68.85 -34.3 Q68.6 -31.75 67.7 -28.35 L74.7 -28.7 Q72.95 -22.9 67.0 -20.45 75.45 -21.3 76.1 -28.9 L82.85 -30.25 83.2 -27.2 80.15 -25.85 83.0 -15.95 Q57.35 21.2 2.0 8.45 L0.1 -7.9 Q47.4 -7.45 62.85 -42.75 L65.1 -49.4 77.05 -52.95 Q82.8 -42.75 82.25 -31.4 L69.65 -30.35 Q70.3 -33.55 70.1 -35.6 69.9 -37.5 68.7 -40.8 69.05 -36.9 68.85 -34.3" fill="#3c190a" fill-rule="evenodd" stroke="none"/>
    <path d="M68.85 -34.3 Q68.6 -31.75 67.7 -28.35 L74.7 -28.7 Q72.95 -22.9 67.0 -20.45 75.45 -21.3 76.1 -28.9 L82.85 -30.25 83.2 -27.2 80.15 -25.85 83.0 -15.95 Q57.35 21.2 2.0 8.45 L0.1 -7.9 Q47.4 -7.45 62.85 -42.75 L65.1 -49.4 77.05 -52.95 Q82.8 -42.75 82.25 -31.4 L69.65 -30.35 Q70.3 -33.55 70.1 -35.6 69.9 -37.5 68.7 -40.8 69.05 -36.9 68.85 -34.3 Z" fill="none" stroke="#3c190a" stroke-linecap="round" stroke-linejoin="round" stroke-width="10.0"/>
    <path d="M92.75 -27.95 Q95.15 -29.05 97.2 -30.3 L99.5 -21.65 Q92.7 -16.9 84.45 -15.65 L81.5 -24.9 84.2 -26.0 84.3 -25.4 Q88.65 -26.15 92.75 -27.95" fill="#bf7926" fill-rule="evenodd" stroke="none"/>
    <path d="M92.75 -27.95 Q88.65 -26.15 84.3 -25.4 L84.2 -26.0 81.5 -24.9 84.45 -15.65 Q92.7 -16.9 99.5 -21.65 L97.2 -30.3 Q95.15 -29.05 92.75 -27.95 Z" fill="none" stroke="#3c190a" stroke-linecap="round" stroke-linejoin="round" stroke-width="10.0"/>
    <path d="M83.85 -34.9 Q86.4 -35.95 89.35 -37.9 93.7 -40.65 96.65 -43.7 L95.75 -47.05 98.35 -47.6 101.85 -34.85 Q98.65 -31.9 94.15 -29.6 89.9 -27.5 85.25 -26.4 L83.85 -34.9" fill="#bf7926" fill-rule="evenodd" stroke="none"/>
    <path d="M83.85 -34.9 L85.25 -26.4 Q89.9 -27.5 94.15 -29.6 98.65 -31.9 101.85 -34.85 L98.35 -47.6 95.75 -47.05 96.65 -43.7 Q93.7 -40.65 89.35 -37.9 86.4 -35.95 83.85 -34.9 Z" fill="none" stroke="#3c190a" stroke-linecap="round" stroke-linejoin="round" stroke-width="10.0"/>
    <path d="M92.6 -56.05 L95.7 -44.3 Q92.75 -41.2 88.45 -38.45 85.75 -36.7 83.35 -35.65 L83.2 -37.75 Q82.7 -42.75 80.85 -47.45 L82.8 -48.65 Q85.95 -50.6 87.55 -52.65 84.0 -49.95 80.65 -49.5 L79.9 -50.95 79.25 -52.6 Q81.8 -54.05 85.55 -55.0 L92.6 -56.05" fill="#bf7926" fill-rule="evenodd" stroke="none"/>
    <path d="M83.2 -107.15 Q91.85 -105.3 94.1 -100.2 96.3 -95.15 90.8 -89.75 85.3 -84.45 75.35 -81.95 65.35 -79.4 56.75 -81.2 48.15 -83.0 45.85 -88.1 43.65 -93.2 49.1 -98.55 54.6 -103.9 64.6 -106.5 74.55 -108.95 83.2 -107.15" fill="#000000" fill-rule="evenodd" stroke="none"/>
    <path d="M83.2 -107.15 Q91.85 -105.3 94.1 -100.2 96.3 -95.15 90.8 -89.75 85.3 -84.45 75.35 -81.95 65.35 -79.4 56.75 -81.2 48.15 -83.0 45.85 -88.1 43.65 -93.2 49.1 -98.55 54.6 -103.9 64.6 -106.5 74.55 -108.95 83.2 -107.15 Z" fill="none" stroke="#000000" stroke-linecap="round" stroke-linejoin="round" stroke-width="10.0"/>
    <path d="M83.2 -107.15 Q91.85 -105.3 94.1 -100.2 96.3 -95.15 90.8 -89.75 85.3 -84.45 75.35 -81.95 65.35 -79.4 56.75 -81.2 48.15 -83.0 45.85 -88.1 43.65 -93.2 49.1 -98.55 54.6 -103.9 64.6 -106.5 74.55 -108.95 83.2 -107.15" fill="#4f4f4f" fill-rule="evenodd" stroke="none"/>
    <path d="M83.3 -101.85 Q90.9 -100.3 92.9 -95.75 93.5 -94.4 93.4 -93.0 92.45 -91.4 90.8 -89.75 85.3 -84.45 75.35 -81.95 65.35 -79.4 56.75 -81.2 54.1 -81.75 52.15 -82.6 50.95 -83.7 50.4 -85.05 48.45 -89.55 53.25 -94.3 58.1 -99.0 66.85 -101.25 75.7 -103.4 83.3 -101.85" fill="#272727" fill-rule="evenodd" stroke="none"/>
    <path d="M68.85 -34.3 Q68.6 -31.75 67.7 -28.35 L74.7 -28.7 Q72.95 -22.9 67.0 -20.45 75.45 -21.3 76.1 -28.9 L82.85 -30.25 83.2 -27.2 80.15 -25.85 83.0 -15.95 Q57.35 21.2 2.0 8.45 L0.1 -7.9 Q47.4 -7.45 62.85 -42.75 L65.1 -49.4 77.05 -52.95 Q82.8 -42.75 82.25 -31.4 L69.65 -30.35 Q70.3 -33.55 70.1 -35.6 69.9 -37.5 68.7 -40.8 69.05 -36.9 68.85 -34.3" fill="#bf7926" fill-rule="evenodd" stroke="none"/>
    <path d="M81.35 -91.8 L86.95 -43.95 Q92.2 4.0 90.25 4.35 88.25 4.7 74.0 -41.65 L60.2 -88.05 Q67.45 -101.2 81.35 -91.8" fill="#4f4f4f" fill-rule="evenodd" stroke="none"/>
    <path d="M92.75 -27.95 Q95.15 -29.05 97.2 -30.3 L99.5 -21.65 Q92.7 -16.9 84.45 -15.65 L81.5 -24.9 84.2 -26.0 84.3 -25.4 Q88.65 -26.15 92.75 -27.95" fill="#bf7926" fill-rule="evenodd" stroke="none"/>
    <path d="M96.65 -43.7 L95.75 -47.05 98.35 -47.6 101.85 -34.85 Q98.65 -31.9 94.15 -29.6 89.9 -27.5 85.25 -26.4 L83.85 -34.9 Q86.4 -35.95 89.35 -37.9 93.7 -40.65 96.65 -43.7" fill="#bf7926" fill-rule="evenodd" stroke="none"/>
    <path d="M83.35 -50.2 L83.55 -50.3 83.6 -50.3 83.35 -50.2 M82.8 -48.65 Q85.95 -50.6 87.55 -52.6 L86.9 -52.1 87.05 -52.4 87.55 -53.2 Q87.55 -53.9 88.5 -55.2 L88.75 -55.6 92.6 -56.05 95.7 -44.3 Q92.75 -41.2 88.45 -38.45 85.7 -36.7 83.35 -35.6 L83.25 -37.75 Q82.7 -42.7 80.9 -47.45 L82.8 -48.65" fill="#bf7926" fill-rule="evenodd" stroke="none"/>
    <path d="M62.85 -42.75 L65.1 -49.4 77.05 -52.95 Q82.8 -42.75 82.25 -31.4 L69.65 -30.35 Q70.3 -33.55 70.1 -35.6 69.9 -37.5 68.7 -40.8 69.05 -36.9 68.85 -34.3 L68.05 -29.75 55.15 -29.75 Q59.65 -35.5 62.85 -42.75" fill="#bf7926" fill-rule="evenodd" stroke="none"/>
    <path d="M55.2 -29.75 Q59.7 -35.45 62.85 -42.7 L65.15 -49.35 65.35 -45.1 Q65.2 -40.4 63.35 -37.8 65.7 -39.05 68.0 -38.65 66.45 -33.9 64.15 -29.75 L55.2 -29.75" fill="#bf7926" fill-rule="evenodd" stroke="none"/>
    <path d="M63.35 -37.8 Q65.7 -39.05 68.0 -38.65 65.15 -30.0 59.95 -23.4 64.05 -25.75 68.9 -25.75 68.15 -23.1 67.3 -21.5 L65.25 -18.45 Q67.6 -18.85 71.5 -18.45 L76.85 -17.6 Q75.7 -15.25 73.35 -13.45 L79.1 -10.75 Q53.35 20.3 2.0 8.45 L0.1 -7.9 Q47.4 -7.45 62.85 -42.7 L65.15 -49.35 65.35 -45.1 Q65.2 -40.4 63.35 -37.8" fill="#70381f" fill-rule="evenodd" stroke="none"/>
    <path d="M77.2 -110.0 L106.05 -140.55 81.9 -107.5 102.15 -96.9 78.95 -100.95 77.5 -78.95 72.5 -100.1 45.65 -93.85 71.5 -107.7 56.45 -136.85 77.2 -110.0" fill="#ffffff" fill-rule="evenodd" stroke="none"/>
  </g>
</svg>
