<?xml version="1.0" encoding="UTF-8" standalone="no"?>
<svg xmlns:xlink="http://www.w3.org/1999/xlink" height="87.5px" width="65.85px" xmlns="http://www.w3.org/2000/svg">
  <g transform="matrix(1.0, 0.0, 0.0, 1.0, -40.2, 140.55)">
    <path d="M68.55 -60.0 L60.2 -88.05 Q67.45 -101.2 81.35 -91.8 L83.9 -70.25 68.55 -60.0" fill="#000000" fill-rule="evenodd" stroke="none"/>
    <path d="M68.55 -60.0 L60.2 -88.05 Q67.45 -101.2 81.35 -91.8 L83.9 -70.25" fill="none" stroke="#000000" stroke-linecap="round" stroke-linejoin="round" stroke-width="10.0"/>
    <path d="M83.2 -107.15 Q91.85 -105.3 94.1 -100.2 96.3 -95.15 90.8 -89.75 85.3 -84.45 75.35 -81.95 65.35 -79.4 56.75 -81.2 48.15 -83.0 45.85 -88.1 43.65 -93.2 49.1 -98.55 54.6 -103.9 64.6 -106.5 74.55 -108.95 83.2 -107.15" fill="#000000" fill-rule="evenodd" stroke="none"/>
    <path d="M83.2 -107.15 Q91.85 -105.3 94.1 -100.2 96.3 -95.15 90.8 -89.75 85.3 -84.45 75.35 -81.95 65.35 -79.4 56.75 -81.2 48.15 -83.0 45.85 -88.1 43.65 -93.2 49.1 -98.55 54.6 -103.9 64.6 -106.5 74.55 -108.95 83.2 -107.15 Z" fill="none" stroke="#000000" stroke-linecap="round" stroke-linejoin="round" stroke-width="10.0"/>
    <path d="M83.2 -107.15 Q91.85 -105.3 94.1 -100.2 96.3 -95.15 90.8 -89.75 85.3 -84.45 75.35 -81.95 65.35 -79.4 56.75 -81.2 48.15 -83.0 45.85 -88.1 43.65 -93.2 49.1 -98.55 54.6 -103.9 64.6 -106.5 74.55 -108.95 83.2 -107.15" fill="#4f4f4f" fill-rule="evenodd" stroke="none"/>
    <path d="M83.3 -101.85 Q90.9 -100.3 92.9 -95.75 93.5 -94.4 93.4 -93.0 92.45 -91.4 90.8 -89.75 85.3 -84.45 75.35 -81.95 65.35 -79.4 56.75 -81.2 54.1 -81.75 52.15 -82.6 50.95 -83.7 50.4 -85.05 48.45 -89.55 53.25 -94.3 58.1 -99.0 66.85 -101.25 75.7 -103.4 83.3 -101.85" fill="#272727" fill-rule="evenodd" stroke="none"/>
    <path d="M60.2 -88.05 Q67.45 -101.2 81.35 -91.8 L84.8 -62.45 70.65 -53.05 60.2 -88.05" fill="#4f4f4f" fill-rule="evenodd" stroke="none"/>
    <path d="M77.2 -110.0 L106.05 -140.55 81.9 -107.5 102.15 -96.9 78.95 -100.95 77.5 -78.95 72.5 -100.1 45.65 -93.85 71.5 -107.7 56.45 -136.85 77.2 -110.0" fill="#ffffff" fill-rule="evenodd" stroke="none"/>
  </g>
</svg>
