<?xml version="1.0" encoding="UTF-8" standalone="no"?>
<svg xmlns:xlink="http://www.w3.org/1999/xlink" height="47.95px" width="68.5px" xmlns="http://www.w3.org/2000/svg">
  <g transform="matrix(1.0, 0.0, 0.0, 1.0, 33.25, 26.0)">
    <path d="M6.0 -1.45 L7.25 -2.15 7.1 1.4 1.75 1.4 1.9 1.05 Q2.9 0.05 6.0 -1.45" fill="url(#gradient0)" fill-rule="evenodd" stroke="none"/>
    <path d="M3.45 -12.95 L3.35 -10.05 Q0.7 -7.3 -1.9 -1.6 L-3.5 2.55 -3.6 4.7 Q-3.65 6.0 -4.0 6.65 -4.3 7.2 -6.15 8.55 -7.85 9.8 -7.8 10.2 L-8.3 11.6 -32.9 11.6 -33.25 -12.95 3.45 -12.95" fill="url(#gradient1)" fill-rule="evenodd" stroke="none"/>
    <path d="M-0.35 -10.55 Q0.4 -7.55 0.4 -4.1 L0.35 -2.75 Q-1.45 -7.25 -3.3 -10.8 L-3.4 -10.95 -5.95 -15.3 Q-11.9 -24.25 -18.8 -24.8 L-16.55 -25.0 Q-9.55 -25.0 -4.6 -18.9 -3.2 -17.2 -2.2 -15.3 -1.15 -13.3 -0.5 -11.1 L-0.35 -10.55 -0.85 -10.7 -0.35 -10.55 M-0.5 -11.1 Q-0.45 -10.8 -0.85 -10.7 L-1.15 -10.7 -1.85 -10.75 -1.95 -10.75 -2.0 -10.75 -2.6 -10.9 -3.4 -10.95 -2.6 -10.9 -2.0 -10.75 -1.95 -10.75 -1.85 -10.75 -1.15 -10.7 -0.85 -10.7 Q-0.45 -10.8 -0.5 -11.1 M-2.0 -10.75 L-3.3 -10.8 -2.0 -10.75" fill="#ffffff" fill-rule="evenodd" stroke="none"/>
    <path d="M-28.75 -18.6 L-28.55 -18.9 Q-24.35 -23.95 -18.8 -24.8 -11.9 -24.25 -5.95 -15.3 L-3.4 -10.95 -3.75 -10.8 -3.4 -10.95 -3.3 -10.8 -3.75 -10.8 -3.8 -10.8 -4.75 -10.8 Q-6.0 -9.85 -7.75 -9.05 -8.6 -8.65 -9.4 -8.4 L-9.95 -8.1 -11.75 -7.8 -13.55 -8.05 -14.35 -8.25 -15.7 -8.8 -16.4 -9.25 Q-17.0 -9.7 -17.75 -9.95 L-19.15 -10.25 Q-19.65 -10.3 -20.0 -9.75 -20.6 -8.7 -21.95 -8.6 L-22.55 -8.5 -23.75 -8.4 Q-25.0 -9.05 -26.0 -10.45 L-26.9 -11.35 -27.9 -12.0 -28.6 -12.6 -29.25 -13.35 -29.25 -13.4 -29.1 -15.3 -28.75 -18.6 M-19.15 -20.3 L-17.2 -19.2 Q-15.95 -19.7 -14.95 -18.9 -14.2 -18.3 -13.3 -18.0 -12.3 -17.65 -11.85 -18.95 -11.0 -19.6 -9.95 -18.8 -9.2 -18.65 -8.95 -18.1 L-8.75 -17.5 -7.9 -15.3 -6.9 -12.5 -6.45 -11.8 Q-5.65 -10.85 -4.75 -10.8 -5.65 -10.85 -6.45 -11.8 L-6.9 -12.5 -7.9 -15.3 -8.75 -17.5 -8.95 -18.1 Q-9.2 -18.65 -9.95 -18.8 -11.0 -19.6 -11.85 -18.95 -12.3 -17.65 -13.3 -18.0 -14.2 -18.3 -14.95 -18.9 -15.95 -19.7 -17.2 -19.2 L-19.15 -20.3 M-8.35 -9.7 Q-11.25 -9.15 -13.6 -10.8 L-14.45 -11.25 -14.55 -11.3 Q-16.35 -11.95 -17.5 -12.95 L-18.95 -14.5 -19.5 -15.3 -20.75 -17.3 -21.2 -15.7 -21.35 -15.3 Q-21.7 -14.55 -22.35 -14.1 -21.7 -14.55 -21.35 -15.3 L-21.2 -15.7 -20.75 -17.3 -19.5 -15.3 -18.95 -14.5 -17.5 -12.95 Q-16.35 -11.95 -14.55 -11.3 L-14.45 -11.25 Q-14.45 -11.7 -14.7 -11.95 L-15.4 -12.65 Q-16.2 -13.5 -16.45 -14.5 L-16.65 -15.3 Q-17.55 -16.0 -18.55 -15.9 -17.55 -16.0 -16.65 -15.3 L-16.45 -14.5 Q-16.2 -13.5 -15.4 -12.65 L-14.7 -11.95 Q-14.45 -11.7 -14.45 -11.25 L-13.6 -10.8 Q-11.25 -9.15 -8.35 -9.7 M-13.55 -14.9 L-12.75 -15.1 -12.0 -15.05 Q-11.1 -14.1 -11.15 -12.7 -11.2 -12.0 -10.7 -11.8 L-9.6 -11.05 Q-8.8 -10.4 -7.75 -10.0 -8.8 -10.4 -9.6 -11.05 L-10.7 -11.8 Q-11.2 -12.0 -11.15 -12.7 -11.1 -14.1 -12.0 -15.05 L-12.75 -15.1 -13.55 -14.9 M-25.85 5.3 L-25.15 5.35 -24.35 5.7 -24.15 6.7 Q-22.45 6.8 -20.75 6.0 -19.95 5.9 -20.15 6.9 -20.3 7.65 -19.95 7.9 L-18.95 7.1 Q-18.05 5.85 -16.75 4.9 L-14.8 3.45 Q-14.0 2.85 -12.8 2.75 -10.6 3.7 -8.35 3.15 L-7.75 3.0 Q-7.0 3.55 -5.95 3.7 -4.55 3.85 -3.65 3.2 L-3.0 2.8 Q-1.7 2.15 -0.3 1.95 -1.45 6.8 -4.6 10.65 L-5.65 11.9 Q-8.55 14.95 -12.0 16.1 L-15.4 14.8 Q-18.05 13.55 -20.2 11.9 L-20.6 11.6 Q-23.8 9.0 -25.85 5.3 M-8.35 3.15 L-8.95 3.9 -10.25 5.35 -10.85 6.0 -11.95 7.1 -14.85 10.0 -15.4 9.7 Q-15.65 9.3 -16.35 9.2 L-17.15 9.1 Q-18.85 9.0 -19.55 9.9 L-20.6 11.6 -19.55 9.9 Q-18.85 9.0 -17.15 9.1 L-16.35 9.2 Q-15.65 9.3 -15.4 9.7 L-14.85 10.0 -11.95 7.1 -10.85 6.0 -10.25 5.35 -8.95 3.9 -8.35 3.15 M-4.35 7.9 Q-3.95 7.7 -3.5 7.15 -2.35 5.65 -2.55 3.5 -2.35 5.65 -3.5 7.15 -3.95 7.7 -4.35 7.9 M-10.35 14.1 Q-10.15 13.8 -9.75 13.8 -8.9 13.75 -7.85 13.05 L-7.35 11.9 Q-6.9 10.65 -6.85 9.2 -7.2 8.95 -7.15 8.5 L-3.95 3.7 -7.15 8.5 Q-7.2 8.95 -6.85 9.2 -6.9 10.65 -7.35 11.9 L-7.85 13.05 Q-8.9 13.75 -9.75 13.8 -10.15 13.8 -10.35 14.1 M-15.4 14.8 L-15.4 14.75 Q-15.25 14.2 -14.5 13.6 L-12.55 12.5 -11.9 12.2 -11.45 11.9 -11.25 11.65 Q-10.6 10.7 -11.85 10.2 -12.4 9.65 -13.15 9.7 L-10.25 5.35 -13.15 9.7 Q-12.4 9.65 -11.85 10.2 -10.6 10.7 -11.25 11.65 L-11.45 11.9 -11.9 12.2 -12.55 12.5 -14.5 13.6 Q-15.25 14.2 -15.4 14.75 L-15.4 14.8" fill="#cc0000" fill-rule="evenodd" stroke="none"/>
    <path d="M-29.25 -13.4 Q-29.35 -14.1 -30.3 -13.75 -30.2 -12.55 -31.15 -12.65 L-32.05 -12.65 -30.85 -15.3 -28.75 -18.6 -29.1 -15.3 -29.25 -13.4 M-12.0 16.1 L-16.55 16.8 -13.9 20.6 -18.25 20.6 -18.25 16.7 Q-23.45 16.1 -27.45 11.9 L-28.55 10.65 -31.0 6.85 -29.35 6.6 Q-28.35 6.65 -28.1 5.9 -27.8 5.05 -27.35 4.7 -27.25 5.3 -26.55 5.25 L-25.85 5.3 Q-23.8 9.0 -20.6 11.6 L-20.2 11.9 Q-18.05 13.55 -15.4 14.8 L-12.0 16.1 M-15.95 16.1 L-15.4 14.8 -15.95 16.1 M-20.95 12.3 L-20.75 11.9 -20.6 11.6 -20.75 11.9 -20.95 12.3" fill="#830000" fill-rule="evenodd" stroke="none"/>
    <path d="M-22.35 -14.1 Q-21.7 -14.55 -21.35 -15.3 L-21.2 -15.7 -20.75 -17.3 -19.5 -15.3 -18.95 -14.5 -17.5 -12.95 Q-16.35 -11.95 -14.55 -11.3 L-14.45 -11.25 Q-14.45 -11.7 -14.7 -11.95 L-15.4 -12.65 Q-16.2 -13.5 -16.45 -14.5 L-16.65 -15.3 Q-17.55 -16.0 -18.55 -15.9 M-7.75 -10.0 Q-8.8 -10.4 -9.6 -11.05 L-10.7 -11.8 Q-11.2 -12.0 -11.15 -12.7 -11.1 -14.1 -12.0 -15.05 L-12.75 -15.1 -13.55 -14.9 M-14.45 -11.25 L-13.6 -10.8 Q-11.25 -9.15 -8.35 -9.7 M-3.95 3.7 L-7.15 8.5 Q-7.2 8.95 -6.85 9.2 -6.9 10.65 -7.35 11.9 L-7.85 13.05 Q-8.9 13.75 -9.75 13.8 -10.15 13.8 -10.35 14.1 M-2.55 3.5 Q-2.35 5.65 -3.5 7.15 -3.95 7.7 -4.35 7.9" fill="none" stroke="#620505" stroke-linecap="round" stroke-linejoin="round" stroke-width="1.0"/>
    <path d="M-0.35 -10.55 Q0.4 -7.55 0.4 -4.1 L0.35 -2.75 Q0.25 -0.3 -0.3 1.95 L-0.25 1.95 0.65 1.65 M-18.8 -24.8 L-16.55 -25.0 Q-9.55 -25.0 -4.6 -18.9 -3.2 -17.2 -2.2 -15.3 -1.15 -13.3 -0.5 -11.1 L-0.35 -10.55 -0.3 -10.5 0.35 -10.4 M-28.75 -18.6 L-28.55 -18.9 Q-24.35 -23.95 -18.8 -24.8 M-3.4 -10.95 L-2.6 -10.9 -2.0 -10.75 -1.95 -10.75 -1.85 -10.75 -1.15 -10.7 -0.85 -10.7 Q-0.45 -10.8 -0.5 -11.1 M-29.25 -13.4 Q-29.35 -14.1 -30.3 -13.75 -30.2 -12.55 -31.15 -12.65 L-32.05 -12.65 -30.85 -15.3 -28.75 -18.6 M-29.25 -13.4 L-29.25 -13.35 -28.6 -12.6 -27.9 -12.0 -26.9 -11.35 -26.0 -10.45 Q-25.0 -9.05 -23.75 -8.4 L-22.55 -8.5 -21.95 -8.6 Q-20.6 -8.7 -20.0 -9.75 -19.65 -10.3 -19.15 -10.25 L-17.75 -9.95 Q-17.0 -9.7 -16.4 -9.25 L-15.7 -8.8 -14.35 -8.25 -13.55 -8.05 -11.75 -7.8 -9.95 -8.1 -9.4 -8.4 Q-8.6 -8.65 -7.75 -9.05 -6.0 -9.85 -4.75 -10.8 -5.65 -10.85 -6.45 -11.8 L-6.9 -12.5 -7.9 -15.3 -8.75 -17.5 -8.95 -18.1 Q-9.2 -18.65 -9.95 -18.8 -11.0 -19.6 -11.85 -18.95 -12.3 -17.65 -13.3 -18.0 -14.2 -18.3 -14.95 -18.9 -15.95 -19.7 -17.2 -19.2 L-19.15 -20.3 M-0.85 -10.7 L-0.35 -10.55 M-3.3 -10.8 L-3.75 -10.8 -3.8 -10.8 -4.75 -10.8 M-3.75 -10.8 L-3.4 -10.95 M-3.3 -10.8 L-2.0 -10.75 M-25.85 5.3 L-25.15 5.35 -24.35 5.7 -24.15 6.7 Q-22.45 6.8 -20.75 6.0 -19.95 5.9 -20.15 6.9 -20.3 7.65 -19.95 7.9 L-18.95 7.1 Q-18.05 5.85 -16.75 4.9 L-14.8 3.45 Q-14.0 2.85 -12.8 2.75 -10.6 3.7 -8.35 3.15 L-7.75 3.0 Q-7.0 3.55 -5.95 3.7 -4.55 3.85 -3.65 3.2 L-3.0 2.8 Q-1.7 2.15 -0.3 1.95 -1.45 6.8 -4.6 10.65 L-5.65 11.9 Q-8.55 14.95 -12.0 16.1 L-16.55 16.8 -13.9 20.6 -18.25 20.6 -18.25 16.7 Q-23.45 16.1 -27.45 11.9 L-28.55 10.65 -31.0 6.85 -29.35 6.6 Q-28.35 6.65 -28.1 5.9 -27.8 5.05 -27.35 4.7 -27.25 5.3 -26.55 5.25 L-25.85 5.3 M-20.6 11.6 L-19.55 9.9 Q-18.85 9.0 -17.15 9.1 L-16.35 9.2 Q-15.65 9.3 -15.4 9.7 L-14.85 10.0 -11.95 7.1 -10.85 6.0 -10.25 5.35 -8.95 3.9 -8.35 3.15 M-10.25 5.35 L-13.15 9.7 Q-12.4 9.65 -11.85 10.2 -10.6 10.7 -11.25 11.65 L-11.45 11.9 -11.9 12.2 -12.55 12.5 -14.5 13.6 Q-15.25 14.2 -15.4 14.75 L-15.4 14.8 -15.95 16.1 M-20.6 11.6 L-20.75 11.9 -20.95 12.3" fill="none" stroke="#620505" stroke-linecap="round" stroke-linejoin="round" stroke-width="2.0"/>
    <path d="M16.05 -21.9 L18.3 -22.1 Q23.5 -22.1 27.4 -18.65 L29.65 -16.3 31.5 -13.4 32.6 -11.1 Q33.6 -8.7 33.95 -6.0 L34.25 -2.35 34.25 -1.1 Q32.35 -6.0 30.25 -9.65 27.85 -14.1 25.1 -16.95 20.85 -21.55 16.05 -21.9 M3.95 -4.9 L4.35 -4.85 4.25 -4.7 4.1 -4.75 3.95 -4.9" fill="#ffffff" fill-rule="evenodd" stroke="none"/>
    <path d="M21.3 18.15 Q20.9 18.05 23.5 17.25 L22.95 17.6 21.3 18.15" fill="#ffe000" fill-rule="evenodd" stroke="none"/>
    <path d="M5.15 -4.45 L5.15 -4.35 5.15 -4.3 5.2 -4.1 5.1 -4.1 5.15 -3.6 5.15 -3.55 4.75 -4.0 4.65 -4.15 4.75 -4.15 5.15 -4.45 M4.4 -4.45 L4.3 -4.55 4.4 -4.6 4.4 -4.45" fill="#db9c00" fill-rule="evenodd" stroke="none"/>
    <path d="M2.5 1.05 L2.4 1.0 0.3 0.6 -7.6 7.8 -5.6 -2.75 -12.75 -10.65 -2.3 -8.65 5.6 -15.75 3.6 -5.35 3.6 -5.3 3.95 -4.9 4.1 -4.75 4.2 -4.65 4.3 -4.55 4.4 -4.45 4.4 -4.25 Q4.0 -3.75 4.35 -3.8 L4.4 -3.85 4.3 -2.8 4.45 -3.85 4.75 -4.0 5.15 -3.55 5.45 -0.85 5.6 0.15 5.35 0.15 5.3 0.8 2.4 0.25 2.4 0.6 2.5 1.05 M4.45 -4.4 L4.45 -4.3 4.4 -4.3 4.45 -4.4 M1.6 -4.05 Q1.6 -5.1 0.7 -5.95 0.0 -6.7 -1.05 -6.7 -2.1 -6.7 -3.0 -5.95 -3.7 -5.1 -3.7 -4.05 -3.7 -3.0 -3.0 -2.25 -2.1 -1.4 -1.05 -1.4 0.0 -1.4 0.7 -2.25 1.6 -3.0 1.6 -4.05" fill="#555c72" fill-rule="evenodd" stroke="none"/>
    <path d="M34.25 -1.1 Q33.85 6.25 29.6 11.6 L28.7 12.55 Q27.1 14.4 25.25 15.45 L24.25 16.1 23.9 16.25 23.55 16.45 Q18.45 16.55 16.85 15.65 12.6 13.4 9.9 9.85 L9.05 8.75 7.9 6.45 Q6.4 3.65 5.75 0.15 L5.45 -1.6 5.2 -4.1 5.15 -4.3 5.15 -4.35 5.15 -4.45 5.1 -4.85 5.65 -5.05 5.7 -5.15 5.7 -5.2 5.7 -5.3 5.7 -5.4 5.7 -5.5 5.7 -5.6 5.55 -5.45 4.75 -4.9 4.65 -4.9 4.75 -4.75 4.45 -4.6 4.45 -4.4 4.4 -4.3 4.35 -3.8 Q4.0 -3.75 4.4 -4.25 L4.4 -4.45 4.4 -4.6 4.3 -4.55 4.2 -4.65 4.25 -4.7 4.35 -4.85 4.45 -5.05 4.45 -5.15 4.45 -5.4 4.45 -5.6 4.5 -6.05 4.85 -9.9 5.1 -9.85 Q5.15 -10.7 6.0 -10.65 L6.0 -11.1 5.2 -11.05 5.1 -11.05 5.1 -10.95 5.05 -11.0 5.05 -11.15 5.3 -13.45 5.55 -15.3 5.6 -15.6 6.35 -16.45 Q8.3 -18.7 10.7 -19.85 L10.75 -19.9 10.85 -19.95 11.45 -20.35 Q13.15 -21.3 15.05 -21.7 L16.0 -21.9 16.05 -21.9 Q20.85 -21.55 25.1 -16.95 27.85 -14.1 30.25 -9.65 32.35 -6.0 34.25 -1.1 M6.05 -9.5 L6.7 -9.15 6.05 -9.55 6.05 -9.5" fill="#cc0000" fill-rule="evenodd" stroke="none"/>
    <path d="M23.55 16.45 L19.6 17.35 18.3 17.3 20.75 20.95 16.75 20.95 16.65 17.3 13.3 16.4 Q9.8 15.0 6.9 11.6 L6.6 11.1 Q5.15 9.2 4.35 7.25 3.4 5.1 2.9 2.85 L2.5 1.05 2.4 0.6 2.4 0.25 5.3 0.8 5.35 0.15 5.6 0.15 5.75 0.15 Q6.4 3.65 7.9 6.45 L9.05 8.75 9.9 9.85 Q12.6 13.4 16.85 15.65 18.45 16.55 23.55 16.45" fill="#830000" fill-rule="evenodd" stroke="none"/>
    <path d="M16.0 -21.9 L16.05 -21.9" fill="none" stroke="#620505" stroke-linecap="round" stroke-linejoin="round" stroke-width="1.0"/>
    <path d="M4.75 -4.75 L4.65 -4.9" fill="none" stroke="#191c1e" stroke-linecap="round" stroke-linejoin="round" stroke-width="2.0"/>
    <path d="M16.05 -21.9 L18.3 -22.1 Q23.5 -22.1 27.4 -18.65 L29.65 -16.3 31.5 -13.4 32.6 -11.1 Q33.6 -8.7 33.95 -6.0 L34.25 -2.35 34.25 -1.1 Q33.85 6.25 29.6 11.6 L28.7 12.55 Q27.1 14.4 25.25 15.45 L24.25 16.1 23.9 16.25 M23.55 16.45 L19.6 17.35 18.3 17.3 20.75 20.95 16.75 20.95 16.65 17.3 13.3 16.4 Q9.8 15.0 6.9 11.6 L6.6 11.1 Q5.15 9.2 4.35 7.25 3.4 5.1 2.9 2.85 L2.5 1.05 M6.35 -16.45 Q7.2 -18.35 10.75 -19.9 L10.85 -19.95 11.45 -20.35 Q13.15 -21.3 15.05 -21.7 L16.0 -21.9 M10.7 -19.85 L10.75 -19.9 M2.4 0.25 L2.4 0.6 2.5 1.05" fill="none" stroke="#620505" stroke-linecap="round" stroke-linejoin="round" stroke-width="2.0"/>
    <path d="M2.4 1.0 L0.3 0.6 -7.6 7.8 -5.6 -2.75 -12.75 -10.65 -2.3 -8.65 5.6 -15.75 3.6 -5.35 3.6 -5.3 3.95 -4.9 4.1 -4.75 M4.2 -4.65 L4.1 -4.75 M4.75 -4.0 L5.15 -3.55 M4.4 -4.45 L4.3 -4.55 4.2 -4.65 M1.6 -4.05 Q1.6 -3.0 0.7 -2.25 0.0 -1.4 -1.05 -1.4 -2.1 -1.4 -3.0 -2.25 -3.7 -3.0 -3.7 -4.05 -3.7 -5.1 -3.0 -5.95 -2.1 -6.7 -1.05 -6.7 0.0 -6.7 0.7 -5.95 1.6 -5.1 1.6 -4.05 M5.3 0.8 L2.4 0.25" fill="none" stroke="#191c1e" stroke-linecap="round" stroke-linejoin="round" stroke-width="1.0"/>
  </g>
  <defs>
    <linearGradient gradientTransform="matrix(0.029, -0.0103, 0.0027, 0.0956, -6.3, -16.1)" gradientUnits="userSpaceOnUse" id="gradient0" spreadMethod="pad" x1="-819.2" x2="819.2">
      <stop offset="0.0" stop-color="#fbfdf9" stop-opacity="0.0"/>
      <stop offset="1.0" stop-color="#ffffff"/>
    </linearGradient>
    <linearGradient gradientTransform="matrix(0.0261, -0.0103, 0.0024, 0.0956, -9.45, -5.9)" gradientUnits="userSpaceOnUse" id="gradient1" spreadMethod="pad" x1="-819.2" x2="819.2">
      <stop offset="0.0" stop-color="#fbfdf9" stop-opacity="0.0"/>
      <stop offset="1.0" stop-color="#ffffff"/>
    </linearGradient>
  </defs>
</svg>
