<?xml version="1.0" encoding="UTF-8" standalone="no"?>
<svg xmlns:xlink="http://www.w3.org/1999/xlink" height="106.5px" width="133.15px" xmlns="http://www.w3.org/2000/svg">
  <g transform="matrix(1.0, 0.0, 0.0, 1.0, -122.65, -212.2)">
    <path d="M160.15 223.7 L160.25 224.05 160.35 224.45 160.35 225.2 160.25 225.9 159.95 226.6 159.5 227.05 159.1 227.25 158.05 227.25 156.75 226.7 156.15 226.05 156.15 225.7 156.3 224.95 156.8 223.8 Q157.15 223.1 157.9 222.85 L158.5 222.7 159.35 223.0 159.85 223.35 160.15 223.7 M161.35 236.0 L161.85 236.35 162.1 236.7 162.25 237.05 162.4 237.45 162.35 237.8 162.25 238.55 Q162.1 239.35 161.35 239.5 L159.65 239.7 159.15 239.3 158.85 238.9 158.65 238.2 158.65 237.45 158.75 236.7 159.15 236.3 159.65 236.0 160.5 235.75 160.5 235.7 161.35 236.0 M161.9 246.85 L162.5 246.75 162.5 246.7 163.8 247.1 165.2 248.0 166.1 249.2 Q166.55 249.9 166.25 250.65 L166.0 251.05 165.15 251.8 Q164.0 252.2 163.15 251.3 162.25 250.4 161.2 249.7 160.45 249.25 160.65 248.3 L160.75 247.95 160.95 247.6 161.3 247.2 161.65 246.95 161.9 246.85 M153.9 258.05 L154.3 257.7 154.65 257.45 154.9 257.35 155.5 257.25 155.5 257.2 156.35 257.5 156.8 257.85 157.2 258.6 157.4 259.3 157.25 259.65 156.7 260.4 Q156.25 260.9 155.55 260.75 L154.15 260.25 153.75 259.95 153.65 259.55 153.65 259.2 153.65 258.8 153.75 258.45 153.9 258.05 M160.85 256.5 Q161.15 256.6 161.35 256.85 L161.6 257.2 161.75 257.55 161.9 257.95 161.85 258.3 161.75 259.05 Q161.6 259.85 160.85 260.0 L159.15 260.2 158.65 259.8 158.35 259.4 158.15 258.7 158.15 257.95 158.25 257.2 158.65 256.85 159.15 256.5 160.0 256.25 160.0 256.2 160.85 256.5 M161.5 269.7 L162.35 270.0 163.0 270.3 163.7 270.75 164.25 271.45 164.4 271.8 164.4 272.2 164.35 272.55 164.25 272.95 164.15 273.3 163.95 273.65 163.15 274.3 162.5 274.35 161.65 274.15 160.9 273.8 159.9 273.05 159.75 272.7 159.65 272.3 159.65 271.95 159.65 271.55 159.65 271.2 159.75 270.8 160.05 270.45 160.4 270.1 160.9 269.9 161.5 269.75 161.5 269.7 M124.5 278.7 L125.35 279.0 125.8 279.35 126.2 280.1 126.4 280.8 126.2 281.2 125.7 281.9 Q125.2 282.4 124.55 282.25 123.8 282.15 123.15 281.75 L122.75 281.45 122.65 281.05 122.65 280.7 122.65 280.3 122.75 279.95 122.9 279.55 123.25 279.2 123.65 278.95 123.9 278.85 124.5 278.75 124.5 278.7 M150.0 299.2 L150.85 299.5 151.3 299.85 151.7 300.6 151.9 301.3 151.75 301.7 151.2 302.4 Q150.7 302.9 150.05 302.8 L148.65 302.25 148.25 301.95 148.15 301.55 148.15 301.2 148.15 300.85 148.25 300.45 148.4 300.05 148.8 299.7 149.15 299.45 149.4 299.35 150.0 299.25 150.0 299.2 M137.25 302.1 L137.4 302.45 137.35 302.8 137.25 303.2 137.0 303.55 136.75 303.9 136.4 304.2 136.15 304.3 135.5 304.35 134.2 304.05 133.4 303.35 133.15 302.7 133.15 302.35 133.25 301.95 133.45 301.6 134.2 301.05 135.0 300.75 135.0 300.7 135.5 300.75 136.35 301.0 136.8 301.35 137.25 302.1 M254.4 256.5 L254.9 256.85 255.5 257.6 255.8 258.35 255.8 259.05 255.6 259.4 254.85 260.1 Q253.8 260.7 252.7 260.1 L251.8 259.45 251.7 259.05 251.65 258.7 251.65 258.3 251.65 257.95 251.7 257.55 251.8 257.2 252.2 256.85 Q252.4 256.6 252.7 256.5 L253.5 256.25 253.55 256.2 254.4 256.5 M246.4 249.0 L246.9 249.35 247.15 249.7 247.35 250.45 Q247.5 251.2 247.1 251.9 246.6 252.8 245.6 253.05 L244.15 253.2 243.65 252.8 243.35 252.4 243.2 251.7 243.2 250.95 243.3 250.2 243.65 249.8 244.05 249.45 244.45 249.15 245.5 248.75 245.55 248.7 246.4 249.0 M245.4 270.55 L245.8 270.2 246.15 269.95 246.4 269.85 247.0 269.75 247.05 269.7 247.9 270.0 248.35 270.35 248.75 271.1 248.9 271.8 248.75 272.15 248.25 272.9 Q247.75 273.4 247.05 273.25 L245.7 272.75 245.3 272.45 245.2 272.05 245.15 271.7 245.2 271.3 245.3 270.95 245.4 270.55 M243.4 290.2 L243.3 290.55 243.15 290.95 242.9 291.3 242.4 291.7 241.55 291.9 241.05 291.85 Q240.35 291.65 239.75 291.2 L239.15 290.55 239.2 290.2 Q239.2 289.8 239.35 289.5 L239.8 288.7 Q240.45 287.8 241.55 287.75 L241.55 287.7 242.4 288.0 242.9 288.35 243.15 288.7 243.3 289.05 243.4 289.45 243.4 289.8 243.4 290.2 M227.0 220.2 L227.9 220.5 228.35 220.85 228.75 221.55 228.9 221.95 228.9 222.3 228.75 222.65 228.55 223.05 228.25 223.4 227.9 223.7 227.65 223.8 227.05 223.85 225.7 223.55 224.9 222.85 224.65 222.2 224.7 221.8 224.8 221.45 224.95 221.1 225.7 220.55 Q226.1 220.35 226.5 220.25 L226.55 220.2 227.0 220.2 M203.35 212.5 L203.85 212.85 204.2 213.55 204.4 214.3 204.25 214.65 203.7 215.35 Q203.25 215.9 202.55 215.75 L201.2 215.25 200.8 214.95 200.7 214.55 200.65 214.2 200.7 213.8 200.8 213.45 200.9 213.05 201.3 212.7 201.65 212.45 201.9 212.35 202.5 212.25 202.55 212.2 203.35 212.5 M210.45 220.55 L211.05 219.45 Q211.6 218.65 212.55 218.75 L212.55 218.7 213.4 219.0 213.85 219.35 214.15 219.7 214.35 220.45 Q214.5 221.2 214.1 221.9 213.6 222.8 212.6 223.05 L211.15 223.2 210.65 222.8 210.3 222.4 210.2 222.05 210.15 221.7 210.2 221.3 210.45 220.55 M221.35 219.35 L221.65 219.7 221.8 220.05 221.9 220.45 221.9 220.8 221.75 221.55 Q221.6 222.3 220.85 222.5 L219.15 222.7 218.65 222.3 218.35 221.9 218.2 221.2 218.2 220.45 218.3 219.7 218.65 219.3 219.2 219.0 220.0 218.75 220.05 218.7 220.9 219.0 221.35 219.35 M218.8 227.7 L219.15 227.3 219.7 227.0 220.5 226.75 220.55 226.7 221.4 227.0 222.05 227.3 222.7 227.75 223.2 228.45 223.4 229.2 223.3 229.55 223.1 229.9 222.35 230.55 219.7 230.6 219.15 230.3 218.8 229.9 218.7 229.55 218.65 229.2 218.65 228.8 218.65 228.45 218.8 227.7 M203.55 226.7 L204.35 227.0 Q204.65 227.1 204.85 227.35 L205.15 227.7 205.3 228.05 205.4 228.45 205.4 228.8 205.35 229.2 205.3 229.55 205.15 229.9 204.85 230.25 204.4 230.7 203.5 230.9 203.05 230.85 Q202.35 230.6 201.75 230.2 L201.15 229.55 201.15 229.2 201.35 228.45 201.8 227.7 Q202.45 226.8 203.5 226.75 L203.55 226.7 M237.3 231.3 L237.55 230.95 237.95 230.6 238.4 230.35 239.0 230.25 239.05 230.2 239.85 230.5 240.75 231.2 241.35 232.3 241.3 233.45 241.05 234.2 240.55 234.55 240.15 234.75 239.55 234.85 238.65 234.7 238.15 234.3 237.85 233.9 237.65 233.55 237.35 232.8 237.2 232.05 237.15 231.7 237.3 231.3 M234.1 231.75 L234.4 232.8 234.05 233.55 Q233.75 234.1 233.15 234.3 231.7 234.7 230.35 233.95 229.35 233.4 229.2 232.3 L229.15 231.95 229.2 231.55 Q229.2 231.35 229.35 231.2 L229.65 230.8 230.2 230.5 231.0 230.25 231.05 230.2 231.9 230.45 232.55 230.65 233.35 231.05 234.1 231.75 M231.8 244.95 L231.7 244.55 231.65 244.2 231.7 243.8 231.8 243.45 231.9 243.05 232.3 242.7 232.65 242.45 232.9 242.35 233.5 242.25 233.55 242.2 234.4 242.5 234.85 242.85 235.25 243.6 235.4 244.3 235.25 244.65 234.75 245.4 Q234.25 245.9 233.55 245.75 L232.2 245.25 231.8 244.95 M188.5 212.7 L189.35 213.0 189.85 213.35 190.2 214.05 190.4 214.8 190.25 215.15 189.7 215.9 Q189.25 216.4 188.55 216.25 187.85 216.1 187.2 215.75 L186.75 215.45 186.7 215.05 186.65 214.7 186.7 214.3 186.75 213.95 186.9 213.55 187.3 213.2 187.65 212.95 187.9 212.85 188.5 212.75 188.5 212.7 M186.0 218.7 L186.85 219.0 Q187.15 219.1 187.35 219.35 L187.7 220.05 187.9 220.8 187.75 221.15 187.2 221.9 Q186.75 222.4 186.05 222.25 L184.7 221.75 184.25 221.45 184.2 221.05 184.15 220.7 184.2 220.3 184.25 219.95 184.4 219.55 184.8 219.2 185.15 218.95 185.4 218.85 186.0 218.75 186.0 218.7 M196.0 221.2 L196.85 221.5 197.35 221.85 197.65 222.2 197.75 222.55 197.9 223.3 197.85 224.45 Q197.7 225.2 197.0 225.5 L196.0 225.95 195.2 225.6 194.65 225.3 194.3 224.9 194.15 224.55 194.15 224.2 194.15 223.8 194.15 223.45 194.15 223.05 194.2 222.7 194.25 222.3 194.55 221.95 194.9 221.6 195.4 221.35 196.0 221.25 196.0 221.2 M178.7 225.8 L179.25 227.35 Q179.45 228.1 179.15 228.8 L179.0 229.2 178.5 229.55 178.15 229.75 177.55 229.85 176.65 229.7 176.15 229.3 Q175.6 228.85 175.4 228.2 L174.9 227.05 174.6 225.95 174.75 224.8 175.05 224.45 175.4 224.1 175.9 223.85 176.5 223.75 176.5 223.7 Q177.2 224.0 177.75 224.45 L178.7 225.8 M172.9 234.95 L172.85 235.3 172.75 235.65 172.5 236.05 172.25 236.4 171.9 236.7 171.65 236.8 171.0 236.85 169.7 236.55 168.9 235.85 168.65 235.2 168.65 234.8 168.75 234.45 168.95 234.1 169.7 233.55 170.5 233.25 170.5 233.2 171.0 233.25 171.85 233.5 172.35 233.85 172.75 234.55 172.9 234.95 M171.9 246.1 L172.4 245.9 173.0 245.75 173.0 245.7 173.85 246.0 174.35 246.35 174.65 246.7 174.75 247.05 174.9 247.8 174.9 247.95 175.5 247.75 175.5 247.7 176.0 247.75 176.85 248.0 176.95 248.05 176.85 247.8 176.65 247.05 176.65 246.7 176.8 246.3 177.05 245.95 177.4 245.6 177.9 245.4 178.5 245.25 178.5 245.2 Q178.95 245.3 179.35 245.55 L180.25 246.2 180.85 247.3 180.8 248.45 180.5 249.2 180.0 249.55 179.65 249.75 179.05 249.85 178.15 249.7 177.9 249.5 177.85 249.8 177.75 250.15 177.5 250.55 177.25 250.9 176.9 251.2 176.65 251.3 176.0 251.35 174.7 251.05 173.9 250.35 173.8 250.15 173.0 250.45 172.15 250.1 171.65 249.8 171.3 249.4 171.15 249.05 171.15 248.7 171.15 248.3 171.15 247.95 171.15 247.55 171.15 247.2 171.25 246.8 171.55 246.45 171.9 246.1 M181.0 241.2 L181.85 241.5 Q182.15 241.6 182.35 241.85 L182.7 242.6 182.9 243.3 182.75 243.65 182.2 244.4 Q181.75 244.9 181.05 244.75 L179.7 244.25 179.25 243.95 179.2 243.55 179.15 243.2 179.2 242.8 179.25 242.45 179.4 242.05 179.8 241.7 180.15 241.45 180.4 241.35 181.0 241.25 181.0 241.2 M190.75 238.7 L191.15 238.3 191.5 237.95 191.95 237.65 193.0 237.25 193.0 237.2 193.85 237.5 Q194.15 237.6 194.35 237.85 L194.65 238.2 194.8 238.95 194.65 240.5 194.3 241.95 Q194.1 242.9 193.15 243.25 L192.5 243.45 191.7 243.1 191.15 242.8 190.8 242.4 190.65 242.05 190.65 241.7 190.65 241.3 190.65 240.55 190.65 239.8 190.7 239.05 190.75 238.7 M183.65 245.3 L185.4 244.35 186.0 244.2 186.85 244.5 Q187.15 244.6 187.35 244.85 L187.6 245.2 187.75 245.55 187.85 245.95 187.7 246.65 187.25 247.4 186.5 248.15 185.65 248.8 185.0 248.9 184.55 248.85 Q183.85 248.6 183.25 248.2 L182.65 247.55 182.65 247.2 182.8 246.45 Q183.0 245.75 183.65 245.3 M190.0 246.7 L190.5 246.75 191.35 247.0 191.85 247.35 192.25 248.05 192.4 248.45 192.35 248.8 192.25 249.15 192.0 249.55 191.75 249.9 191.4 250.2 191.15 250.3 190.55 250.35 189.2 250.05 188.4 249.35 188.15 248.7 188.2 248.3 188.25 247.95 188.45 247.6 189.2 247.05 190.0 246.75 190.0 246.7 M199.0 241.25 L199.85 241.5 200.35 241.85 200.8 242.55 200.8 243.3 Q200.6 244.45 199.65 245.0 L196.7 245.05 195.85 244.4 195.65 244.05 195.65 243.7 195.7 243.3 196.0 242.6 196.7 241.9 198.0 241.25 198.0 241.2 199.0 241.25 M201.35 249.0 L201.85 249.35 202.15 249.7 202.3 250.05 202.4 250.45 202.4 250.8 202.25 251.55 Q202.1 252.35 201.35 252.5 L199.65 252.7 199.15 252.3 198.85 251.9 198.7 251.2 198.7 250.45 198.75 249.7 199.15 249.35 199.7 249.0 200.5 248.75 200.55 248.7 201.35 249.0 M184.0 259.2 L184.85 259.5 185.35 259.85 185.5 260.05 185.65 259.95 185.9 259.85 186.5 259.75 186.5 259.7 187.35 260.0 187.85 260.35 188.2 261.1 188.4 261.8 188.25 262.15 188.15 262.35 188.4 262.95 188.35 263.3 188.25 263.7 188.0 264.05 187.75 264.4 187.4 264.7 187.15 264.8 186.5 264.85 186.35 264.85 186.4 265.3 186.35 266.45 185.85 267.35 186.25 268.05 186.4 268.45 186.35 268.8 186.25 269.2 186.0 269.55 185.75 269.9 185.4 270.2 185.15 270.3 184.55 270.35 182.7 270.05 Q181.9 269.8 181.7 269.05 L181.65 268.7 181.7 268.3 181.75 267.95 181.95 267.6 Q182.25 267.25 182.7 267.05 L182.85 267.0 182.8 266.9 182.65 266.55 182.65 266.2 182.65 265.8 182.65 265.45 182.65 265.05 182.7 264.7 182.75 264.3 183.05 263.95 183.25 263.75 183.2 263.55 183.15 263.2 183.2 262.8 183.25 262.55 182.7 262.25 182.25 261.95 182.2 261.55 182.15 261.2 182.2 260.8 182.25 260.45 182.4 260.05 182.8 259.7 183.15 259.45 183.4 259.35 184.0 259.25 184.0 259.2 M179.65 252.7 L179.75 253.05 179.9 253.8 179.85 254.95 Q179.7 255.7 179.0 256.05 L178.0 256.45 177.15 256.15 176.65 255.8 176.3 255.4 176.15 255.05 176.15 254.7 176.15 254.3 176.15 253.95 176.15 253.55 176.15 253.2 176.25 252.8 176.55 252.45 176.9 252.1 177.4 251.9 178.0 251.75 178.0 251.7 178.85 252.0 179.35 252.35 179.65 252.7 M173.0 253.2 L173.5 253.25 174.35 253.5 174.85 253.85 175.15 254.2 175.25 254.55 175.35 254.95 175.35 255.3 175.2 256.05 174.85 256.75 174.4 257.2 173.85 257.3 173.9 257.45 173.85 257.8 173.75 258.15 173.5 258.55 173.25 258.9 172.9 259.2 172.65 259.3 172.0 259.35 171.05 259.2 171.2 259.6 171.4 260.3 171.25 260.65 170.7 261.4 Q170.25 261.9 169.55 261.75 L168.2 261.25 167.75 260.95 167.65 260.55 167.65 260.2 167.65 259.8 167.75 259.45 167.9 259.05 168.3 258.7 168.65 258.45 168.9 258.35 169.5 258.25 169.5 258.2 169.9 258.3 169.65 257.7 169.65 257.3 169.75 256.95 169.95 256.6 Q170.25 256.25 170.7 256.05 L171.3 255.8 171.15 255.3 171.15 254.95 171.15 254.55 171.3 254.2 171.65 253.85 172.15 253.5 173.0 253.2 M170.4 264.1 L170.9 263.9 171.5 263.75 171.5 263.7 Q171.95 263.8 172.35 264.05 L173.25 264.7 173.9 265.5 174.1 265.95 Q174.5 265.7 175.0 265.75 L175.0 265.7 175.85 266.0 176.35 266.35 176.65 266.7 176.75 267.05 176.85 268.2 176.5 269.35 175.75 270.4 Q175.25 270.9 174.5 270.95 L173.65 270.65 173.15 270.3 172.8 269.9 172.65 269.55 172.65 269.2 172.6 268.45 172.6 268.15 171.65 268.05 Q170.65 267.8 169.9 267.05 L169.75 266.7 169.65 266.3 169.65 265.95 169.65 265.55 169.65 265.2 169.75 264.8 170.05 264.45 170.4 264.1 M176.95 270.1 L177.7 269.55 178.5 269.25 178.5 269.2 179.0 269.25 179.85 269.5 180.35 269.85 180.75 270.55 180.9 270.95 180.85 271.3 180.75 271.7 180.5 272.05 180.25 272.4 179.9 272.7 179.65 272.8 179.0 272.85 177.7 272.55 Q177.2 272.3 176.9 271.85 L176.65 271.2 176.65 270.8 176.75 270.45 176.95 270.1 M172.65 275.95 L172.9 275.85 173.5 275.75 173.5 275.7 174.35 276.0 174.85 276.35 175.2 277.1 175.4 277.8 175.25 278.15 174.7 278.9 Q174.25 279.4 173.55 279.25 172.85 279.15 172.2 278.75 L171.75 278.45 171.65 278.05 171.65 277.7 171.65 277.3 171.75 276.95 171.9 276.55 172.3 276.2 172.65 275.95 M180.7 283.8 L180.75 283.45 180.95 283.1 Q181.25 282.75 181.7 282.55 L182.5 282.25 182.5 282.2 183.0 282.25 Q183.45 282.3 183.85 282.5 L184.35 282.85 184.75 283.6 184.9 283.95 184.85 284.3 184.75 284.7 184.5 285.05 184.25 285.4 183.9 285.7 183.65 285.8 183.05 285.85 181.7 285.55 180.9 284.85 180.65 284.2 180.7 283.8 M169.5 278.25 L170.35 278.5 170.85 278.85 171.25 279.6 171.4 279.95 171.35 280.3 171.25 280.7 171.0 281.05 170.75 281.4 170.4 281.7 170.15 281.8 169.5 281.85 168.2 281.55 167.4 280.85 167.15 280.2 167.15 279.8 167.25 279.45 167.45 279.1 168.2 278.55 169.0 278.25 169.0 278.2 169.5 278.25 M180.0 285.2 L180.9 285.45 181.55 285.7 182.35 286.05 183.05 286.75 183.4 287.8 183.0 288.55 Q182.75 289.1 182.15 289.3 180.15 289.95 178.7 288.5 178.1 287.85 178.15 286.95 L178.2 286.55 178.3 286.2 178.65 285.85 179.2 285.55 180.0 285.25 180.0 285.2 M202.35 277.5 L202.85 277.85 203.15 278.2 203.3 278.55 203.35 278.95 203.2 279.65 202.55 280.9 201.75 281.9 Q201.25 282.4 200.55 282.45 L199.7 282.15 199.15 281.8 198.8 281.4 198.65 281.05 198.65 280.7 198.65 280.3 198.65 279.95 198.7 279.55 198.75 279.2 199.15 278.8 199.5 278.45 200.3 277.75 Q200.6 277.5 200.9 277.35 L201.55 277.2 202.35 277.5 M196.5 283.2 L197.35 283.5 197.85 283.85 198.2 284.6 198.4 285.3 198.25 285.7 197.7 286.4 Q197.25 286.9 196.55 286.75 L195.2 286.25 194.75 285.95 194.7 285.55 194.65 285.2 194.7 284.8 194.75 284.45 194.9 284.05 195.3 283.7 195.65 283.45 195.9 283.35 196.5 283.25 196.5 283.2 M189.5 275.2 L190.35 275.5 190.85 275.85 191.1 276.2 191.25 276.55 191.4 276.95 191.35 277.3 191.0 278.05 189.65 279.35 Q188.9 279.85 188.0 279.9 L187.5 279.95 186.65 279.65 186.15 279.3 185.8 278.9 185.7 278.55 185.65 278.2 185.65 277.8 Q185.75 277.1 186.3 276.75 187.3 276.1 188.45 275.65 L189.5 275.25 189.5 275.2 M191.05 280.8 L191.7 281.3 192.2 282.0 192.4 282.7 192.25 283.05 192.1 283.4 191.35 284.05 188.65 284.15 188.15 283.8 187.8 283.4 187.7 283.05 187.65 282.7 187.65 282.3 187.65 281.95 187.75 281.2 188.15 280.85 Q188.4 280.65 188.7 280.55 L189.5 280.25 189.5 280.2 190.4 280.5 191.05 280.8 M236.9 262.85 L237.15 263.2 237.3 263.55 237.35 263.95 237.4 264.7 237.25 265.45 236.95 266.15 236.55 266.55 236.15 266.75 235.05 266.75 Q234.35 266.65 233.75 266.2 L233.15 265.55 233.2 265.2 Q233.2 264.8 233.35 264.45 L233.8 263.3 Q234.15 262.6 234.9 262.35 L235.55 262.2 236.4 262.5 236.9 262.85 M213.85 250.85 L214.15 251.2 214.25 251.55 214.4 252.3 214.35 253.45 Q214.2 254.2 213.5 254.55 L212.55 254.95 211.7 254.65 211.15 254.3 210.8 253.9 210.65 253.55 210.65 253.2 210.65 252.8 210.65 252.45 210.65 252.05 210.7 251.7 210.8 251.3 211.05 250.95 211.45 250.6 Q211.65 250.45 211.9 250.4 L212.5 250.25 212.55 250.2 213.4 250.5 213.85 250.85 M209.85 251.35 L210.15 251.7 210.35 252.45 Q210.5 253.2 210.1 253.9 209.6 254.8 208.6 255.05 L207.15 255.2 206.65 254.8 206.35 254.4 206.2 253.7 206.2 252.95 206.3 252.2 206.65 251.8 207.05 251.45 Q207.2 251.25 207.45 251.15 L208.5 250.75 208.55 250.7 209.35 251.0 209.85 251.35 M208.85 263.05 L209.55 263.75 209.9 264.8 209.55 265.55 Q209.25 266.1 208.65 266.3 L206.2 266.1 204.9 265.05 204.8 264.7 204.7 264.3 204.65 263.55 204.7 263.2 204.8 262.8 205.05 262.45 205.45 262.15 206.5 261.75 206.55 261.7 207.4 261.95 Q207.95 262.2 208.3 262.55 L208.85 263.05 M207.15 271.2 L207.2 270.8 207.3 270.45 207.4 270.05 207.8 269.7 208.15 269.45 208.4 269.35 209.0 269.25 209.05 269.2 209.85 269.5 210.35 269.85 210.7 270.6 210.8 270.85 211.35 271.05 212.05 271.75 212.4 272.45 212.35 272.8 212.25 273.2 212.05 273.55 211.75 273.9 211.4 274.2 211.15 274.25 208.55 274.35 Q207.45 274.3 206.9 273.35 L206.65 272.7 206.7 272.3 206.8 271.95 206.95 271.6 207.2 271.4 207.15 271.2 M211.5 296.75 L212.4 296.95 212.9 297.35 213.25 297.7 213.55 298.05 213.75 298.45 213.85 298.8 213.8 299.55 213.6 299.9 212.85 300.45 210.0 300.9 Q208.65 301.05 207.85 299.9 L207.65 299.55 207.65 299.2 207.7 298.85 208.0 298.15 208.7 297.45 Q209.35 297.05 210.0 296.75 L210.05 296.7 211.5 296.75 M237.8 283.95 L237.95 283.6 238.7 283.05 239.5 282.75 239.55 282.7 240.55 282.75 241.4 283.0 241.85 283.35 242.25 284.1 242.4 284.45 242.4 284.8 242.25 285.2 242.05 285.55 241.75 285.9 241.4 286.2 241.15 286.3 240.55 286.35 238.7 286.05 Q237.9 285.8 237.7 285.05 L237.65 284.7 237.7 284.3 237.8 283.95 M232.55 286.2 L233.4 286.5 233.85 286.85 234.25 287.6 234.4 288.3 234.25 288.7 233.75 289.4 Q233.25 289.9 232.55 289.8 L231.2 289.25 230.8 288.95 230.7 288.55 230.65 288.2 230.7 287.8 230.8 287.45 230.9 287.05 231.3 286.7 231.65 286.45 231.9 286.35 232.5 286.25 232.55 286.2 M226.55 295.2 L227.0 295.25 Q227.45 295.3 227.9 295.5 L228.35 295.85 228.75 296.6 228.9 296.95 228.9 297.3 228.75 297.7 228.55 298.05 228.25 298.4 227.9 298.7 227.65 298.8 227.05 298.85 225.7 298.55 224.9 297.85 224.65 297.2 224.7 296.85 224.8 296.45 224.95 296.1 225.7 295.55 226.5 295.25 226.55 295.2 M234.05 297.25 L234.9 297.5 235.4 297.85 235.65 298.2 235.8 298.55 Q236.05 299.15 235.75 299.65 234.85 301.15 233.05 301.4 231.95 301.55 231.1 300.85 230.55 300.4 230.65 299.7 L230.7 299.35 230.8 298.95 231.35 298.25 Q232.3 297.4 233.55 297.25 L233.55 297.2 234.05 297.25 M216.85 305.85 L217.2 306.6 217.4 307.3 217.25 307.7 216.7 308.4 Q216.25 308.9 215.55 308.8 L214.2 308.25 213.8 307.95 213.7 307.55 213.65 307.2 213.7 306.85 213.8 306.45 213.9 306.05 214.3 305.7 214.65 305.45 214.9 305.35 215.5 305.25 215.55 305.2 216.4 305.5 216.85 305.85 M208.85 302.85 L209.15 303.2 209.3 303.55 209.4 303.95 209.4 304.3 209.25 305.05 Q209.1 305.85 208.35 306.0 L206.65 306.2 206.15 305.8 205.85 305.4 Q205.7 305.05 205.7 304.7 L205.7 303.95 205.8 303.2 206.15 302.85 Q206.4 302.65 206.7 302.55 L207.5 302.25 207.55 302.2 208.35 302.5 208.85 302.85 M204.35 312.55 L205.05 313.25 205.4 313.95 205.35 314.3 205.25 314.7 205.05 315.1 204.75 315.4 204.4 315.7 204.15 315.8 203.55 315.9 201.2 315.55 Q200.4 315.35 200.2 314.55 L200.15 314.2 200.2 313.85 200.25 313.45 200.45 313.15 201.2 312.55 202.0 312.25 202.05 312.2 203.5 312.3 204.35 312.55 M193.75 308.95 L193.9 308.55 194.3 308.2 194.65 307.95 194.9 307.85 195.5 307.75 195.5 307.7 196.35 308.0 196.85 308.4 197.2 309.1 197.4 309.8 197.25 310.2 196.7 310.9 Q196.25 311.4 195.55 311.3 L194.2 310.75 193.75 310.45 193.7 310.05 193.65 309.7 193.7 309.35 193.75 308.95 M189.0 301.2 L189.85 301.5 190.35 301.85 190.7 302.6 190.9 303.3 190.75 303.7 190.2 304.4 Q189.75 304.9 189.05 304.8 L187.7 304.25 187.25 303.95 187.2 303.55 187.15 303.2 187.2 302.85 187.25 302.45 187.4 302.05 187.8 301.7 188.15 301.45 188.4 301.35 189.0 301.25 189.0 301.2 M164.5 300.2 L165.35 300.5 165.85 300.85 166.1 301.2 166.25 301.55 166.4 301.95 166.35 302.3 166.25 303.05 Q166.1 303.85 165.35 304.0 L163.65 304.2 163.15 303.8 162.85 303.4 162.65 302.7 162.65 301.95 162.75 301.2 163.15 300.85 163.65 300.55 164.5 300.25 164.5 300.2 M174.5 314.7 L175.35 315.0 175.85 315.35 176.1 315.7 176.25 316.1 176.4 316.45 176.35 316.8 176.25 317.55 Q176.1 318.35 175.35 318.5 L173.65 318.7 173.15 318.3 172.85 317.9 172.65 317.2 172.65 316.45 172.75 315.7 173.15 315.35 Q173.4 315.15 173.65 315.05 L174.5 314.75 174.5 314.7" fill="#ffffff" fill-rule="evenodd" stroke="none"/>
  </g>
</svg>
