<?xml version="1.0" encoding="UTF-8" standalone="no"?>
<svg xmlns:xlink="http://www.w3.org/1999/xlink" height="55.55px" width="56.95px" xmlns="http://www.w3.org/2000/svg">
  <g transform="matrix(1.0, 0.0, 0.0, 1.0, 426.5, -95.0)">
    <path d="M-411.15 95.2 L-410.25 95.45 -409.8 95.8 -409.4 96.55 -409.25 96.9 -409.3 97.25 -409.65 98.0 Q-410.1 98.85 -411.1 99.05 -412.9 99.45 -413.8 97.95 L-414.1 97.25 -414.1 96.9 -414.1 96.55 -413.95 96.15 -413.75 95.8 -413.35 95.4 -412.85 95.2 -412.15 95.1 -412.1 95.0 -411.15 95.2 M-405.6 107.65 L-405.7 107.25 -405.75 106.9 -405.65 106.2 -405.2 105.45 -404.7 105.1 -404.1 104.9 -403.4 105.2 Q-403.1 105.35 -402.95 105.6 L-402.5 106.3 -402.35 107.05 -402.35 107.4 -402.55 107.75 -403.3 108.3 -404.1 108.45 -405.3 107.95 -405.6 107.65 M-421.1 111.3 L-420.3 111.6 -419.8 111.95 -419.15 112.7 -418.8 113.4 -418.75 113.8 -419.0 114.15 -419.25 114.5 -419.65 114.85 -420.65 115.15 -421.5 115.05 -422.0 114.65 -422.35 114.25 -422.6 113.9 -422.8 113.5 -422.85 113.15 -422.85 112.8 -422.75 112.4 -422.6 112.05 -422.2 111.7 -421.75 111.45 -421.15 111.35 -421.1 111.3 M-409.1 116.9 L-408.2 117.25 -407.4 117.9 -406.7 119.0 Q-406.45 119.6 -406.7 120.15 L-407.0 120.9 -407.3 121.25 -407.75 121.6 -408.6 121.8 -409.5 121.65 -410.0 121.25 -410.35 120.9 -410.95 120.1 -411.2 119.4 -411.25 118.65 -411.1 118.3 -410.95 117.95 -410.6 117.55 -410.1 117.25 -409.15 116.95 -409.1 116.9 M-426.35 132.75 L-426.45 132.4 -426.5 132.05 -426.45 131.65 -426.35 131.3 -426.1 130.9 -425.75 130.55 -425.1 130.25 -424.15 129.95 -424.1 129.9 -423.15 130.25 Q-422.85 130.35 -422.7 130.6 L-422.25 131.3 -422.0 132.05 -422.05 132.4 -422.75 133.45 Q-423.75 134.55 -425.1 133.8 L-426.1 133.15 -426.35 132.75 M-419.25 147.55 L-419.1 147.2 -418.45 146.45 -417.85 146.15 -416.15 145.85 -416.1 145.8 -415.0 146.55 Q-414.35 147.1 -414.35 147.9 -414.3 148.7 -414.6 149.45 -414.85 150.15 -415.6 150.55 L-417.55 150.3 Q-418.3 150.1 -418.85 149.45 -419.4 148.8 -419.25 147.9 L-419.25 147.55 M-384.4 120.4 L-384.9 121.15 Q-385.75 122.2 -387.0 121.55 L-387.45 121.1 -387.75 120.8 -387.95 120.4 -388.1 120.0 -388.1 119.65 -388.1 119.3 -388.0 118.9 -387.85 118.55 -387.6 118.2 -387.1 117.85 -386.1 117.55 -385.25 117.85 -384.75 118.2 -384.5 118.55 -384.25 118.9 -384.1 119.3 -384.15 119.65 -384.4 120.4 M-372.45 115.7 L-371.7 115.1 -371.1 114.9 -370.4 115.2 Q-370.1 115.35 -369.9 115.55 L-369.65 115.9 -369.55 116.65 -369.6 117.05 -369.8 117.35 -370.55 117.9 Q-371.6 118.45 -372.3 117.5 L-372.75 116.8 -372.75 116.4 -372.7 116.05 -372.45 115.7 M-393.25 107.45 L-392.75 107.8 -392.5 108.15 -392.35 108.55 -392.3 108.9 -392.3 109.65 -392.55 110.4 -393.0 111.15 -393.25 111.4 -393.5 111.45 -394.9 111.2 -396.0 110.35 Q-396.35 109.8 -396.35 109.15 L-396.35 108.8 -396.25 108.4 -396.05 108.1 -395.2 107.55 -394.15 107.2 -394.1 107.15 -393.25 107.45 M-395.75 119.45 L-395.25 119.8 -395.0 120.15 -394.85 120.55 -394.8 120.9 -394.85 121.65 -395.05 122.4 -395.4 123.15 -395.75 123.55 -396.6 123.65 -397.45 123.45 -397.95 123.1 -398.25 122.8 -398.35 122.4 -398.35 122.05 -398.4 121.65 -398.45 121.25 -398.5 120.9 -398.45 120.55 -398.35 120.15 -398.0 119.8 -397.45 119.5 -396.65 119.2 -396.6 119.15 -395.75 119.45 M-394.45 133.05 L-394.6 133.4 -395.3 133.95 -396.95 134.0 Q-398.05 133.3 -399.0 132.4 -399.4 132.0 -399.35 131.4 L-399.3 131.05 -399.1 130.65 -398.85 130.3 -398.45 130.0 -397.65 129.7 -397.6 129.65 -396.3 130.15 -395.4 130.8 -394.5 131.9 Q-394.2 132.45 -394.45 133.05 M-400.75 126.8 L-400.5 127.15 -400.35 127.55 -400.25 127.9 -400.3 128.25 -400.65 129.0 Q-401.0 129.7 -401.75 130.05 -402.6 130.55 -403.5 130.05 L-403.95 129.65 -404.2 129.25 -404.35 128.9 -404.45 128.55 -404.45 127.8 -404.35 127.4 -404.2 127.05 -403.85 126.65 -403.5 126.4 -403.25 126.3 -402.65 126.2 -402.6 126.15 -402.15 126.2 -401.25 126.45 -400.75 126.8 M-398.95 140.65 Q-398.75 141.2 -399.1 141.8 L-399.35 142.15 -399.65 142.5 Q-399.85 142.7 -400.15 142.75 L-402.1 142.9 -402.9 142.1 -403.25 141.05 -403.05 139.6 Q-402.9 138.9 -402.2 138.65 L-401.65 138.45 -401.6 138.4 -401.0 138.55 Q-400.6 138.65 -400.3 138.85 L-399.55 139.55 -398.95 140.65 M-384.85 137.6 L-384.1 137.45 -384.1 137.4 -383.15 137.75 -382.65 138.05 -382.35 138.4 -382.2 138.75 -382.05 139.2 -381.95 139.9 -382.05 140.65 -382.35 141.4 -382.75 141.75 -383.4 142.0 -385.05 141.85 -386.0 141.3 -386.2 140.9 -386.3 140.55 -386.35 139.8 -386.2 139.05 -385.85 138.3 -385.45 137.95 -385.1 137.65 -384.85 137.6" fill="#ffffff" fill-rule="evenodd" stroke="none"/>
  </g>
</svg>
