<?xml version="1.0" encoding="UTF-8" standalone="no"?>
<svg xmlns:xlink="http://www.w3.org/1999/xlink" height="116.0px" width="148.45px" xmlns="http://www.w3.org/2000/svg">
  <g transform="matrix(1.0, 0.0, 0.0, 1.0, 94.65, 58.1)">
    <path d="M-74.75 -30.7 Q-66.65 -38.8 -47.35 -45.35 -30.55 -51.15 -15.1 -52.85 L-15.0 -52.75 -11.6 -53.2 Q11.05 -55.7 28.75 -42.0 46.55 -28.35 48.95 -6.5 51.3 15.3 36.9 32.5 22.55 49.75 -0.1 52.25 L-3.5 52.5 -3.6 52.6 Q-19.05 54.3 -36.7 52.3 -56.95 50.05 -66.6 43.85 -87.5 30.5 -89.85 8.65 -92.25 -13.2 -74.75 -30.7 M-15.0 -52.75 Q-35.35 -49.4 -48.65 -33.55 -63.05 -16.4 -60.65 5.45 -58.3 27.25 -40.5 40.95 -24.1 53.65 -3.5 52.5 -24.1 53.65 -40.5 40.95 -58.3 27.25 -60.65 5.45 -63.05 -16.4 -48.65 -33.55 -35.35 -49.4 -15.0 -52.75" fill="#ad0303" fill-rule="evenodd" stroke="none"/>
    <path d="M-74.75 -30.7 Q-66.65 -38.8 -47.35 -45.35 -30.55 -51.15 -15.1 -52.85 L-15.0 -52.75 -11.6 -53.2 Q11.05 -55.7 28.75 -42.0 46.55 -28.35 48.95 -6.5 51.3 15.3 36.9 32.5 22.55 49.75 -0.1 52.25 L-3.5 52.5 -3.6 52.6 Q-19.05 54.3 -36.7 52.3 -56.95 50.05 -66.6 43.85 -87.5 30.5 -89.85 8.65 -92.25 -13.2 -74.75 -30.7 M-3.5 52.5 Q-24.1 53.65 -40.5 40.95 -58.3 27.25 -60.65 5.45 -63.05 -16.4 -48.65 -33.55 -35.35 -49.4 -15.0 -52.75" fill="none" stroke="#ad0303" stroke-linecap="round" stroke-linejoin="round" stroke-width="9.0"/>
    <path d="M-74.7 -30.65 Q-66.6 -38.8 -47.35 -45.4 -30.5 -51.1 -15.1 -52.8 -13.55 -52.95 -7.8 -0.25 -2.05 52.45 -3.6 52.6 -19.0 54.3 -36.65 52.3 -56.9 50.05 -66.6 43.9 -87.45 30.55 -89.85 8.7 -92.25 -13.15 -74.7 -30.65" fill="#f73600" fill-rule="evenodd" stroke="none"/>
    <path d="M-73.6 5.95 Q-74.4 6.95 -75.65 7.1 -76.95 7.25 -78.0 6.45 -78.95 5.65 -79.1 4.35 -79.25 3.1 -78.5 2.05 -77.65 1.05 -76.35 0.9 -75.1 0.75 -74.1 1.55 -73.05 2.4 -72.9 3.65 -72.75 4.95 -73.6 5.95 M-89.4 11.8 L-29.7 5.25 Q-28.95 5.2 -28.4 5.7 -27.85 6.1 -27.8 6.85 -27.7 7.65 -28.15 8.2 -28.6 8.75 -29.35 8.8 L-88.7 15.3 -89.4 11.8 M-78.9 23.35 Q-79.7 24.4 -81.0 24.55 -82.25 24.65 -83.3 23.8 -84.3 23.05 -84.45 21.75 -84.6 20.45 -83.8 19.45 -82.95 18.45 -81.7 18.35 -80.4 18.2 -79.4 19.0 -78.4 19.8 -78.25 21.1 -78.1 22.4 -78.9 23.35 M-62.05 21.5 Q-62.85 22.55 -64.15 22.7 -65.4 22.85 -66.45 22.0 -67.45 21.25 -67.6 19.95 -67.75 18.65 -66.95 17.65 -66.1 16.65 -64.85 16.5 -63.55 16.35 -62.55 17.15 -61.55 17.95 -61.4 19.25 -61.25 20.55 -62.05 21.5" fill="#ad0303" fill-rule="evenodd" stroke="none"/>
    <path d="M-48.8 -33.55 Q-34.35 -50.75 -11.7 -53.25 10.95 -55.7 28.7 -42.0 46.45 -28.3 48.85 -6.45 51.2 15.35 36.85 32.55 22.45 49.75 -0.2 52.2 -22.85 54.7 -40.65 41.0 -58.4 27.3 -60.75 5.5 -63.15 -16.35 -48.8 -33.55" fill="#ff6200" fill-rule="evenodd" stroke="none"/>
    <path d="M-30.25 -25.65 Q-20.9 -38.15 -5.95 -39.8 9.0 -41.45 20.85 -31.25 32.7 -21.05 34.45 -5.0 36.2 11.05 26.8 23.55 17.45 36.05 2.5 37.7 -12.45 39.35 -24.3 29.15 -36.15 18.95 -37.9 2.9 -39.65 -13.15 -30.25 -25.65" fill="#f73600" fill-rule="evenodd" stroke="none"/>
    <path d="M-14.85 -37.65 L-15.8 -37.8 Q-5.75 -36.65 2.8 -29.25 14.7 -19.15 16.45 -3.05 18.2 13.0 8.8 25.5 2.15 34.35 -7.3 37.8 L-6.65 37.55 Q-16.15 36.1 -24.25 29.1 -36.15 18.95 -37.9 2.9 -39.65 -13.2 -30.25 -25.65 -23.85 -34.25 -14.85 -37.65" fill="#ad0303" fill-rule="evenodd" stroke="none"/>
  </g>
</svg>
