<?xml version="1.0" encoding="UTF-8" standalone="no"?>
<svg xmlns:xlink="http://www.w3.org/1999/xlink" height="39.85px" width="29.0px" xmlns="http://www.w3.org/2000/svg">
  <g transform="matrix(1.0, 0.0, 0.0, 1.0, 8.5, 51.25)">
    <path d="M14.45 -48.7 Q16.3 -46.85 17.6 -44.3 20.85 -37.85 16.6 -33.85 L16.55 -33.8 Q14.65 -31.85 11.6 -30.95 L11.55 -30.9 6.95 -30.05 3.35 -29.25 Q1.8 -28.65 0.8 -27.45 L0.75 -27.4 Q-0.55 -25.5 0.95 -22.6 L0.95 -22.55 2.75 -19.95 3.9 -18.6 Q4.8 -17.55 4.7 -16.1 4.6 -14.65 3.55 -13.7 2.45 -12.8 1.0 -12.9 -0.4 -13.0 -1.35 -14.05 L-2.5 -15.4 -2.55 -15.5 -5.15 -19.25 -5.2 -19.3 Q-9.15 -26.95 -4.5 -31.9 L-4.45 -31.95 Q-2.35 -34.5 0.85 -35.75 2.7 -36.45 5.95 -36.9 L9.65 -37.6 9.7 -37.6 Q10.85 -37.95 11.6 -38.65 12.2 -39.6 11.4 -41.15 L11.4 -41.2 9.5 -43.8 Q8.5 -44.8 8.5 -46.25 8.5 -47.7 9.5 -48.7 10.55 -49.75 11.95 -49.75 13.4 -49.75 14.45 -48.7" fill="#ffffff" fill-rule="evenodd" stroke="none"/>
    <path d="M14.45 -48.7 Q13.4 -49.75 11.95 -49.75 10.55 -49.75 9.5 -48.7 8.5 -47.7 8.5 -46.25 8.5 -44.8 9.5 -43.8 L11.4 -41.2 11.4 -41.15 Q12.2 -39.6 11.6 -38.65 10.85 -37.95 9.7 -37.6 L9.65 -37.6 5.95 -36.9 Q2.7 -36.45 0.85 -35.75 -2.35 -34.5 -4.45 -31.95 L-4.5 -31.9 Q-9.15 -26.95 -5.2 -19.3 L-5.15 -19.25 -2.55 -15.5 -2.5 -15.4 -1.35 -14.05 Q-0.4 -13.0 1.0 -12.9 2.45 -12.8 3.55 -13.7 4.6 -14.65 4.7 -16.1 4.8 -17.55 3.9 -18.6 L2.75 -19.95 0.95 -22.55 0.95 -22.6 Q-0.55 -25.5 0.75 -27.4 L0.8 -27.45 Q1.8 -28.65 3.35 -29.25 L6.95 -30.05 11.55 -30.9 11.6 -30.95 Q14.65 -31.85 16.55 -33.8 L16.6 -33.85 Q20.85 -37.85 17.6 -44.3 16.3 -46.85 14.45 -48.7 Z" fill="none" stroke="#ade8fc" stroke-linecap="round" stroke-linejoin="round" stroke-width="3.0"/>
  </g>
</svg>
