<?xml version="1.0" encoding="UTF-8" standalone="no"?>
<svg xmlns:xlink="http://www.w3.org/1999/xlink" height="142.1px" width="139.4px" xmlns="http://www.w3.org/2000/svg">
  <g transform="matrix(1.0, 0.0, 0.0, 1.0, 69.7, 71.05)">
    <path d="M47.45 -67.95 L44.2 -71.05 Q51.95 -68.1 58.25 -61.45 69.7 -49.4 69.7 -32.5 69.7 -15.55 58.25 -3.55 47.05 8.35 31.25 8.5 29.75 4.75 27.45 1.3 35.05 -0.15 41.45 -4.75 49.05 -6.35 54.9 -12.5 62.8 -20.8 62.8 -32.5 62.8 -41.8 57.85 -48.95 55.4 -59.6 47.45 -67.95" fill="#ffef6b" fill-rule="evenodd" stroke="none"/>
    <path d="M29.6 -60.0 Q32.55 -59.25 35.25 -57.8 L15.2 -14.7 Q11.8 -18.95 10.35 -24.0 L26.7 -59.1 29.6 -60.0 M38.9 -55.45 L42.15 -52.5 Q50.0 -44.2 50.0 -32.5 50.0 -20.75 42.15 -12.55 36.65 -6.7 29.6 -4.95 23.45 -6.5 18.5 -11.1 L38.9 -55.45 M-59.65 -7.5 Q-62.8 -5.8 -66.25 -4.95 L-69.5 -5.95 -69.7 -5.55 -49.7 -48.5 Q-46.45 -43.85 -45.35 -38.25 L-59.65 -7.5" fill="#ffef6b" fill-rule="evenodd" stroke="none"/>
    <path d="M30.15 27.6 Q30.15 45.6 17.45 58.3 4.7 71.05 -13.25 71.05 -20.35 71.05 -26.6 69.1 -38.5 56.05 -38.5 38.15 -38.5 19.0 -24.95 5.45 -11.4 -8.1 7.75 -8.1 L11.75 -7.95 Q14.7 -5.8 17.45 -3.1 30.15 9.65 30.15 27.6 M15.8 42.2 Q15.8 40.3 14.45 38.95 13.1 37.65 11.25 37.65 9.35 37.65 8.0 38.95 6.65 40.3 6.65 42.2 6.65 44.1 8.0 45.4 9.35 46.75 11.25 46.75 13.1 46.75 14.45 45.4 15.8 44.1 15.8 42.2 M-5.65 48.05 Q-7.0 49.4 -7.0 51.3 -7.0 53.2 -5.65 54.5 -4.3 55.85 -2.4 55.85 -0.55 55.85 0.8 54.5 2.15 53.2 2.15 51.3 2.15 49.4 0.8 48.05 -0.55 46.75 -2.4 46.75 -4.3 46.75 -5.65 48.05 M-14.95 42.2 Q-14.95 40.3 -16.3 38.95 -17.65 37.65 -19.5 37.65 -21.4 37.65 -22.75 38.95 -24.1 40.3 -24.1 42.2 -24.1 44.1 -22.75 45.4 -21.4 46.75 -19.5 46.75 -17.65 46.75 -16.3 45.4 -14.95 44.1 -14.95 42.2 M-14.95 22.1 Q-14.95 20.2 -16.3 18.85 -17.65 17.55 -19.5 17.55 -21.4 17.55 -22.75 18.85 -24.1 20.2 -24.1 22.1 -24.1 24.0 -22.75 25.3 -21.4 26.65 -19.5 26.65 -17.65 26.65 -16.3 25.3 -14.95 24.0 -14.95 22.1 M15.8 22.1 Q15.8 20.2 14.45 18.85 13.1 17.55 11.25 17.55 9.35 17.55 8.0 18.85 6.65 20.2 6.65 22.1 6.65 24.0 8.0 25.3 9.35 26.65 11.25 26.65 13.1 26.65 14.45 25.3 15.8 24.0 15.8 22.1 M0.8 29.1 Q-0.55 27.8 -2.4 27.8 -4.3 27.8 -5.65 29.1 -7.0 30.45 -7.0 32.35 -7.0 34.25 -5.65 35.55 -4.3 36.9 -2.4 36.9 -0.55 36.9 0.8 35.55 2.15 34.25 2.15 32.35 2.15 30.45 0.8 29.1 M2.15 12.65 Q2.15 10.75 0.8 9.4 -0.55 8.1 -2.4 8.1 -4.3 8.1 -5.65 9.4 -7.0 10.75 -7.0 12.65 -7.0 14.55 -5.65 15.85 -4.3 17.2 -2.4 17.2 -0.55 17.2 0.8 15.85 2.15 14.55 2.15 12.65" fill="#ffef6b" fill-rule="evenodd" stroke="none"/>
    <path d="M-43.75 -67.25 L-44.1 -67.6 Q-39.8 -65.0 -36.0 -61.2 -24.0 -49.15 -24.0 -32.25 -24.0 -15.3 -36.0 -3.3 -47.0 7.75 -62.1 8.7 -51.9 5.45 -43.75 -2.75 -30.3 -16.1 -30.3 -34.95 -30.3 -53.85 -43.75 -67.25" fill="#ffef6b" fill-rule="evenodd" stroke="none"/>
  </g>
</svg>
