<?xml version="1.0" encoding="UTF-8" standalone="no"?>
<svg xmlns:xlink="http://www.w3.org/1999/xlink" height="15.3px" width="13.0px" xmlns="http://www.w3.org/2000/svg">
  <g transform="matrix(1.0, 0.0, 0.0, 1.0, 7.1, -1.3)">
    <path d="M5.15 15.8 Q4.4 16.6 3.35 16.6 2.35 16.6 1.55 15.8 0.8 15.05 0.8 13.95 0.8 12.85 1.55 12.05 2.35 11.3 3.35 11.3 4.4 11.3 5.15 12.05 5.9 12.85 5.9 13.95 5.9 15.05 5.15 15.8" fill="#ffffff" fill-rule="evenodd" stroke="none"/>
    <path d="M-1.35 13.55 Q-2.35 14.7 -3.75 14.7 -5.15 14.7 -6.15 13.55 -7.1 12.4 -7.1 10.8 -7.1 9.25 -6.15 8.1 -5.15 7.0 -3.75 7.0 -2.35 7.0 -1.35 8.1 -0.35 9.25 -0.35 10.85 -0.35 12.4 -1.35 13.55" fill="#ffffff" fill-rule="evenodd" stroke="none"/>
    <path d="M2.25 8.1 Q1.4 9.3 0.2 9.3 -0.95 9.3 -1.8 8.1 -2.65 6.95 -2.65 5.3 -2.65 3.65 -1.8 2.45 -0.95 1.3 0.2 1.3 1.4 1.3 2.25 2.45 3.1 3.65 3.1 5.3 3.1 6.95 2.25 8.1" fill="#ffffff" fill-rule="evenodd" stroke="none"/>
    <path d="M5.5 9.1 Q5.15 9.6 4.6 9.6 4.05 9.6 3.65 9.1 3.3 8.65 3.3 7.95 3.3 7.3 3.65 6.8 4.05 6.35 4.6 6.35 5.15 6.35 5.5 6.8 5.9 7.3 5.9 7.95 5.9 8.65 5.5 9.1" fill="#ffffff" fill-rule="evenodd" stroke="none"/>
  </g>
</svg>
