<?xml version="1.0" encoding="UTF-8" standalone="no"?>
<svg xmlns:xlink="http://www.w3.org/1999/xlink" height="11.9px" width="21.75px" xmlns="http://www.w3.org/2000/svg">
  <g transform="matrix(1.0, 0.0, 0.0, 1.0, 9.7, -6.15)">
    <path d="M11.6 10.1 Q11.15 10.75 10.5 10.75 9.85 10.75 9.35 10.1 8.9 9.45 8.9 8.45 8.9 7.5 9.35 6.8 9.85 6.15 10.5 6.15 11.15 6.15 11.6 6.8 12.05 7.5 12.05 8.45 12.05 9.45 11.6 10.1" fill="#f37900" fill-rule="evenodd" stroke="none"/>
    <path d="M-4.55 17.5 Q-5.9 18.3 -7.25 17.9 -8.65 17.5 -9.3 16.1 -9.95 14.8 -9.55 13.35 -9.1 11.9 -7.85 11.15 -6.55 10.4 -5.15 10.8 -3.8 11.2 -3.1 12.55 -2.4 13.9 -2.85 15.35 -3.25 16.8 -4.55 17.5" fill="#f37900" fill-rule="evenodd" stroke="none"/>
  </g>
</svg>
