<?xml version="1.0" encoding="UTF-8" standalone="no"?>
<svg xmlns:xlink="http://www.w3.org/1999/xlink" height="136.4px" width="119.7px" xmlns="http://www.w3.org/2000/svg">
  <g transform="matrix(1.0, 0.0, 0.0, 1.0, 59.3, -18.95)">
    <path d="M25.2 137.45 Q20.65 126.55 26.7 123.65 L26.75 123.65 Q31.3 120.5 36.95 124.4 L36.95 124.45 Q39.15 126.0 40.65 128.0 41.5 129.15 41.3 130.6 41.1 132.0 39.95 132.9 38.75 133.8 37.35 133.6 35.9 133.4 35.0 132.2 L32.9 130.2 Q31.5 129.25 30.5 129.65 29.95 130.6 31.7 134.7 34.15 140.45 37.8 142.55 41.6 144.6 45.1 143.0 49.1 140.55 48.8 133.2 47.95 124.75 22.05 99.5 8.45 86.2 -5.1 74.8 -6.2 73.85 -6.3 72.4 -6.5 70.95 -5.5 69.8 -4.55 68.7 -3.1 68.6 -1.7 68.4 -0.55 69.35 13.2 80.95 27.0 94.45 55.95 122.65 55.85 132.9 56.4 145.65 48.2 149.3 L48.25 149.3 Q41.65 152.7 34.45 148.75 28.85 145.95 25.2 137.45" fill="#1e2027" fill-rule="evenodd" stroke="none"/>
    <path d="M25.2 137.45 Q28.85 145.95 34.45 148.75 41.65 152.7 48.25 149.3 L48.2 149.3 Q56.4 145.65 55.85 132.9 55.95 122.65 27.0 94.45 13.2 80.95 -0.55 69.35 -1.7 68.4 -3.1 68.6 -4.55 68.7 -5.5 69.8 -6.5 70.95 -6.3 72.4 -6.2 73.85 -5.1 74.8 8.45 86.2 22.05 99.5 47.95 124.75 48.8 133.2 49.1 140.55 45.1 143.0 41.6 144.6 37.8 142.55 34.15 140.45 31.7 134.7 29.95 130.6 30.5 129.65 31.5 129.25 32.9 130.2 L35.0 132.2 Q35.9 133.4 37.35 133.6 38.75 133.8 39.95 132.9 41.1 132.0 41.3 130.6 41.5 129.15 40.65 128.0 39.15 126.0 36.95 124.45 L36.95 124.4 Q31.3 120.5 26.75 123.65 L26.7 123.65 Q20.65 126.55 25.2 137.45 Z" fill="none" stroke="#1e2027" stroke-linecap="round" stroke-linejoin="round" stroke-width="9.0"/>
    <path d="M25.2 137.45 Q20.65 126.55 26.7 123.65 L26.75 123.65 Q31.3 120.5 36.95 124.4 L36.95 124.45 Q39.15 126.0 40.65 128.0 41.5 129.15 41.3 130.6 41.1 132.0 39.95 132.9 38.75 133.8 37.35 133.6 35.9 133.4 35.0 132.2 L32.9 130.2 Q31.5 129.25 30.5 129.65 29.95 130.6 31.7 134.7 34.15 140.45 37.8 142.55 41.6 144.6 45.1 143.0 49.1 140.55 48.8 133.2 47.95 124.75 22.05 99.5 8.45 86.2 -5.1 74.8 -6.2 73.85 -6.3 72.4 -6.5 70.95 -5.5 69.8 -4.55 68.7 -3.1 68.6 -1.7 68.4 -0.55 69.35 13.2 80.95 27.0 94.45 55.95 122.65 55.85 132.9 56.4 145.65 48.2 149.3 L48.25 149.3 Q41.65 152.7 34.45 148.75 28.85 145.95 25.2 137.45" fill="#555c72" fill-rule="evenodd" stroke="none"/>
    <path d="M16.4 51.05 Q-4.95 66.35 -37.1 61.35 L-54.45 55.45 Q-55.25 51.15 -54.1 45.55 -51.75 34.3 -41.8 27.65 -31.85 21.05 -18.65 24.8 -12.0 26.65 -7.4 29.85 10.55 39.55 16.4 51.05" fill="#707585" fill-rule="evenodd" stroke="none"/>
    <path d="M16.4 51.05 Q-4.95 66.35 -37.1 61.35 L-54.45 55.45 Q-55.25 51.15 -54.1 45.55 -51.75 34.3 -41.8 27.65 -31.85 21.05 -18.65 24.8 -12.0 26.65 -7.4 29.85 10.55 39.55 16.4 51.05 Z" fill="none" stroke="#1e2027" stroke-linecap="round" stroke-linejoin="round" stroke-width="9.0"/>
    <path d="M16.4 51.05 Q-4.95 66.35 -37.1 61.35 L-54.45 55.45 Q-55.25 51.15 -54.1 45.55 -51.75 34.3 -41.8 27.65 -31.85 21.05 -18.65 24.8 -12.0 26.65 -7.4 29.85 10.55 39.55 16.4 51.05" fill="#707585" fill-rule="evenodd" stroke="none"/>
    <path d="M-8.2 29.25 Q-35.85 32.25 -52.9 55.85 L-54.1 55.45 Q-37.2 31.75 -9.95 28.15 -9.1 28.6 -8.2 29.25 M-27.55 62.2 L-28.45 61.45 -28.0 61.05 Q-13.65 44.85 13.3 46.0 L14.2 47.2 Q-12.9 45.75 -27.2 61.8 L-27.55 62.2 M-20.8 24.15 Q-39.75 28.05 -53.25 42.55 L-52.15 39.65 Q-40.15 27.7 -24.05 23.65 L-20.8 24.15 M8.0 40.3 Q-17.35 40.35 -37.95 60.9 L-39.0 60.5 Q-18.6 39.7 6.75 39.2 L8.0 40.3 M-0.15 34.0 L0.15 34.25 0.3 34.35 Q-28.55 37.6 -45.05 58.5 L-46.15 58.05 Q-29.75 37.05 -1.25 33.35 L-0.15 34.0" fill="#1e2027" fill-rule="evenodd" stroke="none"/>
    <path d="M3.6 83.9 Q-0.4 84.1 -5.45 82.9 -22.85 78.45 -35.5 69.75 L-42.75 64.15 Q-45.65 61.7 -46.55 61.55 -5.25 64.4 15.35 44.4 22.5 46.7 27.35 51.55 27.3 60.75 23.85 68.7 20.4 76.6 14.3 81.6 8.85 83.8 3.6 83.9" fill="#1e2027" fill-rule="evenodd" stroke="none"/>
    <path d="M3.6 83.9 Q-0.4 84.1 -5.45 82.9 -22.85 78.45 -35.5 69.75 L-42.75 64.15 Q-45.65 61.7 -46.55 61.55 -5.25 64.4 15.35 44.4 22.5 46.7 27.35 51.55 27.3 60.75 23.85 68.7 20.4 76.6 14.3 81.6 8.85 83.8 3.6 83.9 Z" fill="none" stroke="#1e2027" stroke-linecap="square" stroke-linejoin="round" stroke-width="9.0"/>
    <path d="M3.6 83.9 Q-0.4 84.1 -5.45 82.9 -22.85 78.45 -35.5 69.75 L-42.75 64.15 Q-45.65 61.7 -46.55 61.55 -5.25 64.4 15.35 44.4 22.5 46.7 27.35 51.55 27.3 60.75 23.85 68.7 20.4 76.6 14.3 81.6 8.85 83.8 3.6 83.9" fill="#1e2027" fill-rule="evenodd" stroke="none"/>
  </g>
</svg>
