<?xml version="1.0" encoding="UTF-8" standalone="no"?>
<svg xmlns:xlink="http://www.w3.org/1999/xlink" height="44.4px" width="76.6px" xmlns="http://www.w3.org/2000/svg">
  <g transform="matrix(1.0, 0.0, 0.0, 1.0, 139.15, 40.1)">
    <path d="M-134.15 -40.1 L-122.5 -39.0 Q-106.4 -38.0 -92.3 -32.95 -91.65 -28.75 -91.85 -23.95 -92.25 -14.3 -96.4 -11.25 -100.5 -8.2 -103.8 -7.75 -104.85 -7.6 -105.7 -7.75 L-106.3 -7.9 -139.15 -37.5 -134.15 -40.1" fill="#707585" fill-rule="evenodd" stroke="none"/>
    <path d="M-124.8 -24.75 Q-122.6 -32.35 -116.95 -38.6 L-115.95 -38.5 Q-121.9 -32.05 -124.1 -24.15 L-124.8 -24.75" fill="#1e2027" fill-rule="evenodd" stroke="none"/>
    <path d="M-110.0 -11.25 L-117.9 -18.4 Q-121.3 -31.1 -111.5 -37.8 L-101.2 -35.65 Q-107.65 -31.75 -110.05 -25.5 -112.5 -18.9 -109.95 -11.1 L-110.0 -11.25" fill="#555c72" fill-rule="evenodd" stroke="none"/>
    <path d="M-105.7 -7.8 L-106.3 -7.95 -110.0 -11.3 Q-112.45 -19.0 -110.05 -25.55 -107.65 -31.8 -101.2 -35.7 -96.65 -34.55 -92.3 -33.0 -91.7 -28.8 -91.85 -23.95 -92.25 -14.35 -96.4 -11.3 -100.5 -8.25 -103.8 -7.8 -104.85 -7.65 -105.7 -7.8" fill="#bf7926" fill-rule="evenodd" stroke="none"/>
    <path d="M-110.4 -8.7 L-106.25 -16.8 -103.75 -15.25 Q-100.85 -13.3 -98.7 -11.4 -91.9 -5.25 -95.4 -1.7 -98.9 1.9 -105.0 -3.05 -106.9 -4.6 -108.85 -6.8 L-110.4 -8.7" fill="#ffffff" fill-rule="evenodd" stroke="none"/>
    <path d="M-110.4 -8.7 L-106.25 -16.8 -103.75 -15.25 Q-100.85 -13.3 -98.7 -11.4 -91.9 -5.25 -95.4 -1.7 -98.9 1.9 -105.0 -3.05 -106.9 -4.6 -108.85 -6.8 L-110.4 -8.7 Z" fill="none" stroke="#3c190a" stroke-linecap="round" stroke-linejoin="round" stroke-width="9.0"/>
    <path d="M-110.4 -8.7 L-106.25 -16.8 -103.75 -15.25 Q-100.85 -13.3 -98.7 -11.4 -91.9 -5.25 -95.4 -1.7 -98.9 1.9 -105.0 -3.05 -106.9 -4.6 -108.85 -6.8 L-110.4 -8.7" fill="#bf7926" fill-rule="evenodd" stroke="none"/>
    <path d="M-98.7 -11.4 Q-91.9 -5.25 -95.4 -1.7 -96.25 -0.8 -97.3 -0.45 -100.95 -0.5 -103.35 -6.65 -104.45 -9.5 -105.15 -13.25 L-105.6 -16.4 -103.75 -15.25 Q-100.85 -13.3 -98.7 -11.4" fill="#a35d0d" fill-rule="evenodd" stroke="none"/>
    <path d="M-106.1 -4.0 Q-101.85 -5.4 -99.5 -12.05" fill="none" stroke="#3c190a" stroke-linecap="square" stroke-linejoin="miter" stroke-miterlimit="3.0" stroke-width="1.0"/>
    <path d="M-92.6 -19.85 Q-89.6 -17.95 -87.5 -16.05 -80.8 -9.95 -85.35 -6.3 -89.85 -2.65 -95.55 -7.5 -97.35 -9.0 -99.05 -11.2 L-100.35 -13.1 -95.15 -21.35 -92.6 -19.85" fill="#ffffff" fill-rule="evenodd" stroke="none"/>
    <path d="M-92.6 -19.85 L-95.15 -21.35 -100.35 -13.1 -99.05 -11.2 Q-97.35 -9.0 -95.55 -7.5 -89.85 -2.65 -85.35 -6.3 -80.8 -9.95 -87.5 -16.05 -89.6 -17.95 -92.6 -19.85 Z" fill="none" stroke="#3c190a" stroke-linecap="round" stroke-linejoin="round" stroke-width="9.0"/>
    <path d="M-92.6 -19.85 Q-89.6 -17.95 -87.5 -16.05 -80.8 -9.95 -85.35 -6.3 -89.85 -2.65 -95.55 -7.5 -97.35 -9.0 -99.05 -11.2 L-100.35 -13.1 -95.15 -21.35 -92.6 -19.85" fill="#bf7926" fill-rule="evenodd" stroke="none"/>
    <path d="M-91.05 -18.75 Q-89.05 -17.4 -87.55 -16.0 -82.25 -11.2 -83.95 -7.9 -85.8 -8.45 -87.75 -9.95 -89.6 -11.35 -91.3 -13.5 L-92.65 -15.35 -91.05 -18.75" fill="#a35d0d" fill-rule="evenodd" stroke="none"/>
    <path d="M-88.65 -17.3 L-87.9 -17.0 -88.05 -16.65 Q-90.25 -10.25 -96.0 -7.6 L-96.35 -7.45 -96.7 -8.2 -96.35 -8.35 Q-90.9 -10.85 -88.8 -16.9 L-88.65 -17.3" fill="#3c190a" fill-rule="evenodd" stroke="none"/>
    <path d="M-82.75 -11.45 L-84.1 -13.3 -80.15 -21.8 -77.35 -20.6 Q-74.1 -19.0 -71.7 -17.3 -64.2 -11.9 -68.8 -7.65 -73.45 -3.4 -79.25 -7.9 -81.05 -9.3 -82.75 -11.45" fill="#ffffff" fill-rule="evenodd" stroke="none"/>
    <path d="M-82.75 -11.45 Q-81.05 -9.3 -79.25 -7.9 -73.45 -3.4 -68.8 -7.65 -64.2 -11.9 -71.7 -17.3 -74.1 -19.0 -77.35 -20.6 L-80.15 -21.8 -84.1 -13.3 -82.75 -11.45 Z" fill="none" stroke="#3c190a" stroke-linecap="round" stroke-linejoin="round" stroke-width="9.0"/>
    <path d="M-82.75 -11.45 L-84.1 -13.3 -80.15 -21.8 -77.35 -20.6 Q-74.1 -19.0 -71.7 -17.3 -64.2 -11.9 -68.8 -7.65 -73.45 -3.4 -79.25 -7.9 -81.05 -9.3 -82.75 -11.45" fill="#bf7926" fill-rule="evenodd" stroke="none"/>
    <path d="M-94.85 -33.8 L-92.35 -32.95 Q-89.15 -31.9 -87.45 -27.05 -85.7 -22.15 -86.95 -17.2 L-94.7 -15.0 Q-95.2 -19.3 -98.0 -23.15 L-99.2 -24.65" fill="none" stroke="#3c190a" stroke-linecap="square" stroke-linejoin="round" stroke-width="9.0"/>
    <path d="M-97.65 -34.75 L-92.3 -32.95 Q-89.1 -31.9 -87.4 -27.05 -85.65 -22.15 -86.9 -17.2 L-94.65 -15.0 Q-95.25 -20.1 -99.15 -24.65 L-101.55 -23.6 Q-102.7 -23.0 -103.95 -22.35 L-106.9 -23.6 Q-106.75 -26.7 -105.8 -29.5 -104.15 -34.15 -100.85 -35.15 L-97.65 -34.75" fill="#bf7926" fill-rule="evenodd" stroke="none"/>
    <path d="M-99.7 -28.75 L-100.1 -28.35 -100.45 -28.5 Q-105.25 -30.45 -113.5 -31.15 L-113.9 -31.2 -113.8 -31.65 -113.4 -31.6 Q-104.95 -30.85 -100.0 -28.85 L-99.7 -28.75" fill="#3c190a" fill-rule="evenodd" stroke="none"/>
    <path d="M-73.25 -18.05 L-73.25 -18.45 -72.45 -18.5 -72.45 -18.1 Q-72.15 -11.85 -78.05 -6.95 L-78.35 -6.65 -78.9 -7.3 -78.55 -7.55 Q-73.05 -12.2 -73.25 -18.05" fill="#3c190a" fill-rule="evenodd" stroke="none"/>
    <path d="M-97.45 -21.95 L-98.1 -22.5 -97.85 -22.8 Q-93.7 -27.85 -87.1 -26.75 L-86.7 -26.7 -86.85 -25.9 -87.25 -25.95 Q-93.35 -27.0 -97.2 -22.3 L-97.45 -21.95" fill="#3c190a" fill-rule="evenodd" stroke="none"/>
    <path d="M-95.5 -34.05 L-95.85 -33.85 Q-97.5 -33.05 -98.5 -31.3 -99.35 -29.8 -99.5 -27.95 -99.6 -26.35 -99.15 -24.8 L-99.05 -24.4 -99.8 -24.2 -99.95 -24.6 Q-100.4 -26.25 -100.3 -28.0 -100.15 -30.05 -99.2 -31.7 -98.05 -33.7 -96.25 -34.6 L-95.85 -34.75 -95.5 -34.05" fill="#3c190a" fill-rule="evenodd" stroke="none"/>
    <path d="M-112.4 -37.15 L-103.8 -33.85 -105.7 -32.15 -114.3 -35.45 -112.4 -37.15 M-109.6 -26.5 L-118.1 -29.25 Q-117.35 -31.8 -115.7 -33.9 L-106.75 -31.05 Q-108.5 -28.95 -109.6 -26.5" fill="#ffffff" fill-rule="evenodd" stroke="none"/>
    <path d="M-127.25 -39.4 Q-130.3 -35.5 -132.05 -31.1 L-132.7 -31.7 Q-131.0 -35.85 -128.2 -39.5 L-127.25 -39.4" fill="#1e2027" fill-rule="evenodd" stroke="none"/>
  </g>
</svg>
