<?xml version="1.0" encoding="UTF-8" standalone="no"?>
<svg xmlns:xlink="http://www.w3.org/1999/xlink" height="256.0px" width="245.05px" xmlns="http://www.w3.org/2000/svg">
  <g transform="matrix(1.0, 0.0, 0.0, 1.0, 127.05, 121.9)">
    <path d="M47.6 -98.3 Q59.75 -89.6 68.2 -68.65 75.45 -50.55 79.4 -24.9 82.75 -2.85 83.15 20.75 83.45 41.9 81.4 56.0 80.95 59.0 79.9 62.05 L79.35 58.6 Q77.95 50.65 76.5 44.85 71.95 26.35 68.75 36.3 66.95 41.7 55.15 49.05 46.55 54.4 29.6 62.4 L3.5 74.75 Q-9.2 81.1 -11.95 84.6 -17.2 91.35 -16.75 106.5 -16.6 111.2 -15.9 116.2 L-15.7 117.4 Q-24.8 116.55 -32.6 113.2 -41.95 109.25 -57.45 96.4 -75.2 81.6 -89.75 63.95 -107.3 42.65 -115.65 22.1 -125.5 -2.3 -121.25 -23.25 -116.6 -46.05 -100.1 -67.75 -83.3 -89.9 -60.0 -103.15 -34.7 -117.6 -8.3 -117.4 21.25 -117.15 47.6 -98.3" fill="#555c72" fill-rule="evenodd" stroke="none"/>
    <path d="M47.6 -98.3 Q21.25 -117.15 -8.3 -117.4 -34.7 -117.6 -60.0 -103.15 -83.3 -89.9 -100.1 -67.75 -116.6 -46.05 -121.25 -23.25 -125.5 -2.3 -115.65 22.1 -107.3 42.65 -89.75 63.95 -75.2 81.6 -57.45 96.4 -41.95 109.25 -32.6 113.2 -24.8 116.55 -15.7 117.4 L-15.9 116.2 Q-16.6 111.2 -16.75 106.5 -17.2 91.35 -11.95 84.6 -9.2 81.1 3.5 74.75 L29.6 62.4 Q46.55 54.4 55.15 49.05 66.95 41.7 68.75 36.3 71.95 26.35 76.5 44.85 77.95 50.65 79.35 58.6 L79.9 62.05 Q80.95 59.0 81.4 56.0 83.45 41.9 83.15 20.75 82.75 -2.85 79.4 -24.9 75.45 -50.55 68.2 -68.65 59.75 -89.6 47.6 -98.3 Z" fill="none" stroke="#1e2027" stroke-linecap="round" stroke-linejoin="round" stroke-width="9.0"/>
    <path d="M-88.45 77.7 Q-78.3 73.4 -68.55 78.1 -58.5 82.9 -55.05 94.35 -51.4 106.0 -56.8 117.35 -62.3 128.7 -73.3 132.55 -84.1 136.35 -93.6 130.7 -102.9 125.15 -105.7 113.8 -108.45 102.8 -103.5 92.3 -98.5 81.8 -88.45 77.7" fill="#555c72" fill-rule="evenodd" stroke="none"/>
    <path d="M-78.35 84.15 Q-71.35 81.2 -64.65 84.4 -57.8 87.75 -55.4 95.6 -52.9 103.65 -56.65 111.45 -60.4 119.25 -67.9 121.9 -75.3 124.45 -81.9 120.6 -88.3 116.75 -90.2 108.95 -92.1 101.4 -88.7 94.2 -85.25 87.0 -78.35 84.15" fill="#3f434f" fill-rule="evenodd" stroke="none"/>
    <path d="M-68.5 78.15 Q-58.5 82.95 -55.0 94.4 -52.0 103.95 -55.2 113.35 L-59.15 110.0 Q-71.9 98.85 -83.4 83.2 L-87.55 77.3 Q-77.85 73.6 -68.5 78.15" fill="#272727" fill-opacity="0.5019608" fill-rule="evenodd" stroke="none"/>
    <path d="M105.1 4.55 Q114.55 9.25 117.2 18.55 119.75 27.75 113.95 35.9 108.1 43.8 97.7 45.95 87.2 47.85 78.4 42.9 69.65 38.1 67.2 29.35 66.85 28.15 66.8 26.95 65.55 19.45 70.1 12.75 75.4 4.8 85.5 2.35 95.8 -0.15 105.1 4.55" fill="#555c72" fill-rule="evenodd" stroke="none"/>
    <path d="M96.85 11.35 Q103.7 14.8 105.65 21.55 107.55 28.3 103.3 34.2 99.05 39.95 91.45 41.55 83.85 42.95 77.4 39.35 71.05 35.85 69.25 29.4 L68.9 27.75 Q68.0 22.25 71.35 17.4 75.2 11.55 82.55 9.8 90.1 7.95 96.85 11.35" fill="#3f434f" fill-rule="evenodd" stroke="none"/>
    <path d="M78.4 42.95 Q69.6 38.05 67.2 29.3 66.8 28.05 66.75 26.95 65.45 19.45 70.05 12.75 75.35 4.85 85.5 2.35 89.5 1.4 93.35 1.55 94.05 24.25 93.45 46.45 85.45 46.85 78.4 42.95" fill="#272727" fill-opacity="0.5019608" fill-rule="evenodd" stroke="none"/>
    <path d="M-15.9 116.2 Q-16.6 111.2 -16.75 106.5 -17.2 91.35 -11.95 84.6 -9.2 81.1 3.5 74.75 L29.6 62.4 Q46.55 54.4 55.15 49.05 66.95 41.7 68.75 36.3 71.95 26.35 76.5 44.85 77.95 50.65 79.35 58.6" fill="none" stroke="#1e2027" stroke-linecap="round" stroke-linejoin="round" stroke-width="9.0"/>
    <path d="M76.5 44.85 Q71.95 26.35 68.75 36.3 66.95 41.7 55.15 49.05 46.55 54.4 29.6 62.4 L3.5 74.75 Q-9.2 81.1 -11.95 84.6 -17.2 91.35 -16.75 106.5 -16.6 111.2 -15.9 116.2 L-15.7 117.4 Q-24.8 116.55 -32.6 113.2 -41.95 109.25 -57.45 96.4 -75.2 81.6 -89.75 63.95 -107.3 42.65 -115.65 22.1 -125.5 -2.3 -121.25 -23.25 -116.6 -46.05 -100.1 -67.75 -83.3 -89.9 -60.0 -103.15 -34.7 -117.6 -8.3 -117.4 21.25 -117.15 47.6 -98.3 59.75 -89.6 68.2 -68.65 75.45 -50.55 79.4 -24.9 82.75 -2.85 83.15 20.75 83.45 41.9 81.4 56.0 80.95 59.0 79.9 62.05 L79.35 58.6 Q77.95 50.65 76.5 44.85" fill="#555c72" fill-rule="evenodd" stroke="none"/>
    <path d="M74.55 -23.4 Q76.6 -15.25 77.3 -5.55 78.9 13.75 72.65 21.0 69.0 25.25 55.15 33.9 41.85 42.25 24.75 51.1 6.85 60.4 -7.7 66.45 -24.0 73.15 -31.4 73.75 -44.45 74.85 -64.7 63.0 -71.05 59.3 -77.3 54.7 L-82.35 50.9 -64.95 49.3 Q-45.75 47.3 -37.4 45.55 -27.05 43.5 15.55 22.3 58.5 0.9 65.1 -5.7 70.7 -11.3 73.2 -17.9 74.45 -21.25 74.55 -23.4" fill="#191c1e" fill-rule="evenodd" stroke="none"/>
    <path d="M-102.25 -58.9 Q-107.95 -46.65 -110.5 -34.15 -115.35 -10.15 -104.1 17.75 -94.55 41.25 -74.45 65.7 -57.8 85.85 -37.5 102.75 -28.2 110.5 -20.75 115.45 -24.7 114.4 -28.35 112.9 -37.7 108.9 -53.2 96.05 -70.95 81.3 -85.5 63.65 -103.05 42.3 -111.4 21.75 -121.2 -2.65 -116.95 -23.6 -113.3 -41.6 -102.25 -58.9" fill="#3f434f" fill-rule="evenodd" stroke="none"/>
    <path d="M78.3 -30.9 L79.1 -31.5 Q-13.85 38.25 -104.5 43.85 L-106.5 40.6 -107.15 40.65 Q-15.95 35.8 77.65 -34.6 L78.3 -30.9" fill="#1e2027" fill-rule="evenodd" stroke="none"/>
    <path d="M65.3 -65.15 Q69.55 -54.5 72.6 -41.0 63.5 -62.25 50.75 -71.35 21.3 -92.45 -11.8 -92.7 -41.35 -92.95 -69.7 -76.8 -85.5 -67.85 -98.6 -55.2 -95.75 -59.8 -92.3 -64.35 -76.55 -85.05 -54.75 -97.5 -31.05 -110.95 -6.35 -110.8 21.35 -110.55 46.0 -92.95 57.35 -84.8 65.3 -65.15" fill="#ffffff" fill-rule="evenodd" stroke="none"/>
  </g>
</svg>
