<?xml version="1.0" encoding="UTF-8" standalone="no"?>
<svg xmlns:xlink="http://www.w3.org/1999/xlink" height="179.45px" width="153.9px" xmlns="http://www.w3.org/2000/svg">
  <g transform="matrix(1.0, 0.0, 0.0, 1.0, 77.0, 81.3)">
    <path d="M51.15 84.6 Q30.0 93.65 -0.05 93.65 -30.05 93.65 -51.35 84.6 -72.5 75.55 -72.5 62.75 L-72.45 61.55 -72.5 61.55 -0.05 -76.8 72.4 61.55 72.35 61.55 72.4 62.75 Q72.4 75.55 51.15 84.6" fill="#62594e" fill-rule="evenodd" stroke="none"/>
    <path d="M51.15 84.6 Q30.0 93.65 -0.05 93.65 -30.05 93.65 -51.35 84.6 -72.5 75.55 -72.5 62.75 L-72.45 61.55 -72.5 61.55 -0.05 -76.8 72.4 61.55 72.35 61.55 72.4 62.75 Q72.4 75.55 51.15 84.6 Z" fill="none" stroke="#1c1a17" stroke-linecap="round" stroke-linejoin="round" stroke-width="9.0"/>
    <path d="M51.15 84.6 Q30.0 93.65 -0.05 93.65 -30.05 93.65 -51.35 84.6 -72.5 75.55 -72.5 62.75 L-72.45 61.55 -72.5 61.55 -0.05 -76.8 72.4 61.55 72.35 61.55 72.4 62.75 Q72.4 75.55 51.15 84.6" fill="#62594e" fill-rule="evenodd" stroke="none"/>
    <path d="M31.75 -6.1 Q35.0 -2.9 35.0 1.65 35.0 6.2 31.75 9.4 28.55 12.6 24.05 12.6 19.5 12.6 16.25 9.4 13.05 6.2 13.05 1.65 13.05 -2.9 16.25 -6.1 19.5 -9.3 24.05 -9.3 28.55 -9.3 31.75 -6.1 M10.5 -33.45 Q3.05 -33.45 -2.2 -38.7 -7.45 -43.95 -7.45 -51.4 -7.45 -58.85 -2.2 -64.1 0.75 -67.05 4.4 -68.3 L20.95 -36.75 Q16.4 -33.45 10.5 -33.45 M-4.1 -23.6 Q-0.25 -22.4 3.25 -20.7 -8.95 -23.7 -20.3 -17.75 -32.6 -11.3 -36.7 1.95 -40.8 15.2 -34.35 27.45 -27.9 39.75 -14.65 43.95 -1.45 48.0 10.9 41.5 22.35 35.45 26.75 23.45 26.25 27.5 24.95 31.6 19.55 49.05 3.35 57.6 -12.85 66.15 -30.25 60.7 -47.65 55.3 -56.15 39.1 -57.75 36.1 -58.85 33.0 L-58.3 34.45 -27.45 -24.45 Q-16.1 -27.3 -4.1 -23.6 M33.05 52.35 Q33.05 42.75 39.8 36.0 46.3 29.55 55.55 29.35 L72.35 61.4 Q71.75 67.4 67.15 72.65 62.2 75.4 56.1 75.4 46.5 75.4 39.8 68.65 33.05 61.9 33.05 52.35" fill="#ffbf1e" fill-rule="evenodd" stroke="none"/>
  </g>
</svg>
