<?xml version="1.0" encoding="UTF-8" standalone="no"?>
<svg xmlns:xlink="http://www.w3.org/1999/xlink" height="21.85px" width="26.6px" xmlns="http://www.w3.org/2000/svg">
  <g transform="matrix(1.0, 0.0, 0.0, 1.0, 13.55, 9.5)">
    <path d="M-13.0 7.5 L-13.3 -0.1 Q-13.05 3.55 -11.35 6.0 L-9.45 4.6 -9.95 4.75 -10.8 5.1 -11.3 5.05 -10.6 4.2 Q-9.0 1.4 -7.35 -0.45 L-7.3 -0.55 -7.55 -0.7 -8.7 -0.7 Q-7.85 -1.25 -7.15 -3.05 L-5.2 -6.75 -4.25 -7.6 Q-2.1 -9.25 -0.1 -9.25 1.6 -9.25 4.0 -8.05 L6.05 -7.1 Q6.1 -7.05 6.35 -6.95 L6.65 -6.9 6.8 -6.9 Q9.05 -6.4 10.25 -4.55 11.3 -2.95 11.3 -1.3 L11.15 -0.45 Q9.15 -1.3 7.7 -1.3 5.5 -1.3 4.1 0.05 L4.1 -0.35 3.65 -0.8 3.45 -0.9 3.45 -0.95 1.9 -1.4 3.05 -0.85 3.2 -0.85 3.8 -0.6 3.95 0.2 Q3.3 0.85 2.8 1.8 L2.05 3.9 Q1.75 4.45 1.75 5.85 1.75 6.8 2.8 7.85 3.85 8.9 3.85 9.3 L3.2 8.75 Q2.55 8.3 2.05 8.3 L3.0 9.9 Q10.9 12.45 12.45 3.95 L11.65 11.55 -8.85 12.0 Q-9.35 7.75 -7.25 3.5 L-6.85 3.5 -3.85 -6.2 -6.45 -1.4 -5.8 -1.5 -8.45 3.5 -7.65 3.5 -10.65 7.3 -13.0 7.5 M6.7 -6.4 L6.65 -6.4 6.45 -6.4 Q5.15 -5.5 4.8 -3.8 L4.65 -3.5 4.3 -3.4 4.15 -3.4 4.0 -3.3 3.95 -3.25 3.3 -2.95 3.35 -2.95 3.2 -2.85 3.0 -2.8 1.9 -1.85 2.0 -1.9 3.65 -1.4 3.85 -1.25 3.9 -1.25 4.0 -1.15 4.35 -0.8 Q5.75 -1.8 7.7 -1.8 L10.75 -1.15 10.8 -1.35 Q10.75 -2.85 9.85 -4.25 8.75 -5.95 6.7 -6.4 M1.7 -6.15 L1.7 -6.25 1.65 -6.4 0.05 -7.0 -1.45 -7.3 -1.45 -7.05 -2.05 -7.15 -2.4 -7.15 -2.3 -6.9 -2.05 -6.15 Q-1.5 -5.05 0.25 -5.05 L0.65 -5.05 Q1.6 -5.15 2.05 -5.55 L2.2 -5.6 2.35 -5.85 Q2.05 -6.0 1.85 -6.1 L1.7 -6.15 M6.35 -6.95 Q5.7 -6.8 5.3 -6.15 L4.65 -5.05 4.65 -4.9 Q5.15 -6.2 6.35 -6.95 M4.35 -4.1 L4.65 -4.9 4.35 -4.1 4.2 -4.05 4.2 -3.9 4.3 -3.9 4.35 -4.1 M4.1 -4.0 L4.2 -4.1 4.2 -4.05 4.2 -4.1 4.1 -4.0 3.75 -3.75 4.1 -4.0 M1.85 -2.65 Q2.15 -2.95 2.75 -3.25 L2.9 -3.3 3.05 -3.4 3.75 -3.75 3.05 -3.4 2.9 -3.3 2.75 -3.25 Q2.15 -2.95 1.85 -2.65 1.1 -2.4 1.3 -1.9 L1.35 -1.8 1.85 -2.65 M1.9 -1.4 Q1.35 -1.5 1.35 -1.75 L1.35 -1.8 1.35 -1.75 Q1.35 -1.5 1.9 -1.4" fill="#ff6600" fill-rule="evenodd" stroke="none"/>
    <path d="M1.7 -6.15 L1.85 -6.1 1.65 -6.1 1.7 -6.15" fill="#ff9900" fill-rule="evenodd" stroke="none"/>
    <path d="M-1.45 -7.05 L-1.45 -7.3 0.05 -7.0 1.65 -6.4 1.7 -6.25 1.7 -6.15 1.65 -6.1 1.5 -6.1 1.35 -6.1 0.25 -6.4 -0.8 -6.75 -1.1 -6.75 -1.1 -6.85 -1.45 -7.0 -1.45 -7.05" fill="#990000" fill-rule="evenodd" stroke="none"/>
    <path d="M-1.1 -6.75 L-0.8 -6.75 0.25 -6.4 1.35 -6.1 Q1.25 -5.45 0.35 -5.45 L0.1 -5.45 Q-1.2 -5.55 -1.2 -6.4 L-1.1 -6.75" fill="#ffffff" fill-rule="evenodd" stroke="none"/>
    <path d="M6.7 -6.4 Q8.75 -5.95 9.85 -4.25 10.75 -2.85 10.8 -1.35 L10.75 -1.15 7.7 -1.8 Q5.75 -1.8 4.35 -0.8 L4.0 -1.15 3.9 -1.25 3.85 -1.25 3.65 -1.4 2.0 -1.9 1.9 -1.85 3.0 -2.8 3.2 -2.85 3.35 -2.95 3.3 -2.95 3.95 -3.25 4.0 -3.3 4.15 -3.4 4.3 -3.4 4.65 -3.5 4.8 -3.8 Q5.15 -5.5 6.45 -6.4 L6.65 -6.4 6.7 -6.4" fill="#ffe527" fill-rule="evenodd" stroke="none"/>
    <path d="M-13.0 7.5 L-10.65 7.3 -7.65 3.5 -8.45 3.5 -5.8 -1.5 -6.45 -1.4 -3.85 -6.2 -6.85 3.5 -7.25 3.5 Q-9.35 7.75 -8.85 12.0 L-12.85 12.1 -13.0 7.5" fill="#ca5100" fill-rule="evenodd" stroke="none"/>
    <path d="M-13.0 7.5 L-13.3 -0.1 Q-13.05 3.55 -11.35 6.0 L-9.45 4.6 -9.95 4.75 -10.8 5.1 -11.3 5.05 -10.6 4.2 Q-9.0 1.4 -7.35 -0.45 L-7.3 -0.55 -7.55 -0.7 -8.7 -0.7 Q-7.85 -1.25 -7.15 -3.05 L-5.2 -6.75 -4.25 -7.6 Q-2.1 -9.25 -0.1 -9.25 1.6 -9.25 4.0 -8.05 L6.05 -7.1 Q6.1 -7.05 6.35 -6.95 L6.65 -6.9 6.8 -6.9 Q9.05 -6.4 10.25 -4.55 11.3 -2.95 11.3 -1.3 L11.15 -0.45 Q9.15 -1.3 7.7 -1.3 5.5 -1.3 4.1 0.05 L4.1 -0.35 3.65 -0.8 3.45 -0.9 3.45 -0.95 1.9 -1.4 M3.95 0.2 Q3.3 0.85 2.8 1.8 L2.05 3.9 Q1.75 4.45 1.75 5.85 1.75 6.8 2.8 7.85 3.85 8.9 3.85 9.3 L3.2 8.75 Q2.55 8.3 2.05 8.3 L3.0 9.9 Q10.9 12.45 12.45 3.95 L12.8 0.65 12.8 0.25 M1.7 -6.15 L1.85 -6.1 Q2.05 -6.0 2.35 -5.85 L2.2 -5.6 2.05 -5.55 Q1.6 -5.15 0.65 -5.05 L0.25 -5.05 Q-1.5 -5.05 -2.05 -6.15 L-2.3 -6.9 -2.4 -7.15 -2.05 -7.15 -1.45 -7.05 M6.35 -6.95 Q5.15 -6.2 4.65 -4.9 L4.35 -4.1 4.3 -3.9 4.2 -3.9 4.2 -4.05 4.2 -4.1 4.1 -4.0 3.75 -3.75 3.05 -3.4 2.9 -3.3 2.75 -3.25 Q2.15 -2.95 1.85 -2.65 L1.35 -1.8 1.35 -1.75 Q1.35 -1.5 1.9 -1.4 M1.35 -6.1 Q1.25 -5.45 0.35 -5.45 L0.1 -5.45 Q-1.2 -5.55 -1.2 -6.4 L-1.1 -6.75 M-8.85 12.0 L11.65 11.55 12.45 3.95 M-8.85 12.0 L-12.85 12.1 -13.0 7.5 Z" fill="none" stroke="#990000" stroke-linecap="round" stroke-linejoin="round" stroke-width="0.5"/>
  </g>
</svg>
