<?xml version="1.0" encoding="UTF-8" standalone="no"?>
<svg xmlns:xlink="http://www.w3.org/1999/xlink" height="381.6px" width="337.4px" xmlns="http://www.w3.org/2000/svg">
  <g transform="matrix(1.0, 0.0, 0.0, 1.0, 168.7, 190.75)">
    <path d="M132.65 51.2 L132.8 53.9 139.3 131.5 Q139.95 153.5 101.05 169.45 60.15 186.35 0.9 186.35 -58.35 186.35 -99.25 169.45 -139.4 153.0 -137.4 130.15 L-137.05 127.3 -130.75 52.75 -130.65 51.2 Q-128.6 26.6 -89.65 9.65 -51.55 -6.85 1.0 -6.85 53.45 -6.85 91.6 9.65 130.55 26.6 132.65 51.2" fill="#ffffff" fill-rule="evenodd" stroke="none"/>
    <path d="M132.65 51.2 L132.8 53.9 139.3 131.5 Q139.95 153.5 101.05 169.45 60.15 186.35 0.9 186.35 -58.35 186.35 -99.25 169.45 -139.4 153.0 -137.4 130.15 L-137.05 127.3 -130.75 52.75 -130.65 51.2 Q-128.6 26.6 -89.65 9.65 -51.55 -6.85 1.0 -6.85 53.45 -6.85 91.6 9.65 130.55 26.6 132.65 51.2 Z" fill="none" stroke="#2e2d2d" stroke-linecap="round" stroke-linejoin="round" stroke-width="9.0"/>
    <path d="M-130.75 52.75 L-130.65 51.2 Q-128.55 26.6 -89.6 9.65 -51.5 -6.85 1.0 -6.85 53.45 -6.85 91.65 9.65 130.6 26.6 132.65 51.2 L132.8 53.9 Q132.75 77.6 96.7 95.0 57.7 113.9 1.0 113.9 -55.75 113.9 -94.7 95.0 -131.65 77.2 -130.75 52.75" fill="#564f4f" fill-rule="evenodd" stroke="none"/>
    <path d="M132.8 53.9 L139.35 131.5 139.3 131.5 Q140.0 153.5 101.0 169.5 60.15 186.3 0.9 186.3 -58.35 186.3 -99.2 169.5 -139.35 153.0 -137.4 130.15 L-137.05 127.35 -130.75 52.75 Q-131.65 77.2 -94.7 95.0 -55.75 113.9 1.0 113.9 57.7 113.9 96.7 95.0 132.75 77.6 132.8 53.9" fill="#727272" fill-rule="evenodd" stroke="none"/>
    <path d="M106.75 -38.3 Q111.65 -41.15 118.55 -37.3 125.4 -33.45 130.15 -25.15 134.95 -16.85 134.9 -9.0 134.7 -1.15 129.8 1.7 L128.8 2.25 128.8 2.3 101.05 18.25 99.95 18.95 Q93.5 22.6 85.55 19.4 77.6 16.1 72.9 7.85 68.1 -0.5 69.3 -9.05 70.5 -17.45 76.9 -21.2 L105.7 -37.7 105.75 -37.65 106.75 -38.3" fill="#ffffff" fill-rule="evenodd" stroke="none"/>
    <path d="M106.75 -38.3 Q111.65 -41.15 118.55 -37.3 125.4 -33.45 130.15 -25.15 134.95 -16.85 134.9 -9.0 134.7 -1.15 129.8 1.7 L128.8 2.25 128.8 2.3 101.05 18.25 99.95 18.95 Q93.5 22.6 85.55 19.4 77.6 16.1 72.9 7.85 68.1 -0.5 69.3 -9.05 70.5 -17.45 76.9 -21.2 L105.7 -37.7 105.75 -37.65 106.75 -38.3 Z" fill="none" stroke="#2e2d2d" stroke-linecap="round" stroke-linejoin="round" stroke-width="9.0"/>
    <path d="M105.8 -37.7 L106.8 -38.4 Q111.7 -41.2 118.6 -37.4 125.4 -33.5 130.2 -25.2 135.0 -16.95 134.9 -9.1 134.8 -1.2 129.9 1.6 L128.85 2.15 128.9 2.2 101.1 18.2 100.05 18.85 Q93.6 22.6 85.65 19.3 77.7 16.05 72.95 7.75 68.2 -0.55 69.45 -9.05 70.55 -17.5 77.0 -21.25 L105.8 -37.75 105.8 -37.7" fill="#727272" fill-rule="evenodd" stroke="none"/>
    <path d="M121.7 -35.35 L69.2 -5.05 Q69.15 -7.05 69.45 -9.05 L69.6 -10.05 117.75 -37.8 118.6 -37.4 121.7 -35.35 M128.55 -27.9 L71.55 5.0 Q70.0 1.55 69.45 -1.95 L123.95 -33.4 Q126.4 -31.05 128.55 -27.9" fill="#cfcfcf" fill-rule="evenodd" stroke="none"/>
    <path d="M-107.05 -38.3 Q-111.95 -41.15 -118.85 -37.3 -125.7 -33.45 -130.45 -25.15 -135.25 -16.85 -135.2 -9.0 -135.0 -1.15 -130.1 1.7 L-129.1 2.25 -129.1 2.3 -101.35 18.25 -100.25 18.95 Q-93.8 22.6 -85.85 19.4 -77.9 16.1 -73.2 7.85 -68.4 -0.5 -69.6 -9.05 -70.8 -17.45 -77.2 -21.2 L-106.0 -37.7 -106.05 -37.65 -107.05 -38.3" fill="#ffffff" fill-rule="evenodd" stroke="none"/>
    <path d="M-107.05 -38.3 Q-111.95 -41.15 -118.85 -37.3 -125.7 -33.45 -130.45 -25.15 -135.25 -16.85 -135.2 -9.0 -135.0 -1.15 -130.1 1.7 L-129.1 2.25 -129.1 2.3 -101.35 18.25 -100.25 18.95 Q-93.8 22.6 -85.85 19.4 -77.9 16.1 -73.2 7.85 -68.4 -0.5 -69.6 -9.05 -70.8 -17.45 -77.2 -21.2 L-106.0 -37.7 -106.05 -37.65 -107.05 -38.3 Z" fill="none" stroke="#2e2d2d" stroke-linecap="round" stroke-linejoin="round" stroke-width="9.0"/>
    <path d="M-106.1 -37.7 L-107.1 -38.4 Q-112.0 -41.2 -118.9 -37.4 -125.7 -33.5 -130.5 -25.2 -135.3 -16.95 -135.2 -9.1 -135.1 -1.2 -130.2 1.6 L-129.15 2.15 -129.2 2.2 -101.4 18.2 -100.35 18.85 Q-93.9 22.6 -85.95 19.3 -78.0 16.05 -73.25 7.75 -68.5 -0.55 -69.75 -9.05 -70.85 -17.5 -77.3 -21.25 L-106.1 -37.75 -106.1 -37.7" fill="#727272" fill-rule="evenodd" stroke="none"/>
    <path d="M-128.85 -27.9 L-71.85 5.0 Q-70.3 1.55 -69.75 -1.95 L-124.25 -33.4 Q-126.7 -31.05 -128.85 -27.9 M-122.0 -35.35 L-69.5 -5.05 Q-69.45 -7.05 -69.75 -9.05 L-69.9 -10.05 -118.05 -37.8 -118.9 -37.4 -122.0 -35.35" fill="#cfcfcf" fill-rule="evenodd" stroke="none"/>
    <path d="M107.8 58.35 Q106.9 76.35 76.5 89.1 45.2 102.3 0.9 102.3 -43.35 102.3 -74.7 89.1 -106.05 75.95 -106.05 57.25 L-105.9 54.9 -105.9 -66.45 107.8 -66.45 107.8 58.35" fill="#ffffff" fill-rule="evenodd" stroke="none"/>
    <path d="M107.8 58.35 Q106.9 76.35 76.5 89.1 45.2 102.3 0.9 102.3 -43.35 102.3 -74.7 89.1 -106.05 75.95 -106.05 57.25 L-105.9 54.9 -105.9 -66.45 107.8 -66.45 107.8 58.35 Z" fill="none" stroke="#560b30" stroke-linecap="round" stroke-linejoin="round" stroke-width="9.0"/>
    <path d="M107.8 58.35 Q106.9 76.35 76.5 89.1 45.2 102.3 0.9 102.3 -43.35 102.3 -74.7 89.1 -106.05 75.95 -106.05 57.25 L-105.9 54.9 -105.9 -66.45 107.8 -66.45 107.8 58.35" fill="#fc65af" fill-rule="evenodd" stroke="none"/>
    <path d="M64.65 -66.45 L75.5 89.45 66.45 92.85 55.35 -66.45 64.65 -66.45 M97.3 -66.45 L106.5 64.75 Q102.05 76.7 83.05 86.1 L72.4 -66.45 97.3 -66.45" fill="#ffa8d2" fill-rule="evenodd" stroke="none"/>
    <path d="M115.0 -95.8 L115.0 -60.8 Q114.0 -42.8 81.55 -30.05 48.15 -16.85 0.9 -16.85 -46.35 -16.85 -79.8 -30.05 -113.25 -43.2 -113.25 -61.9 L-113.1 -64.3 -113.1 -95.8 -113.15 -97.55 Q-113.15 -116.25 -79.75 -129.45 -46.3 -142.6 0.95 -142.6 48.2 -142.6 81.65 -129.45 115.1 -116.25 115.1 -97.55 L115.0 -95.8" fill="#ffffff" fill-rule="evenodd" stroke="none"/>
    <path d="M115.0 -95.8 L115.0 -60.8 Q114.0 -42.8 81.55 -30.05 48.15 -16.85 0.9 -16.85 -46.35 -16.85 -79.8 -30.05 -113.25 -43.2 -113.25 -61.9 L-113.1 -64.3 -113.1 -95.8 -113.15 -97.55 Q-113.15 -116.25 -79.75 -129.45 -46.3 -142.6 0.95 -142.6 48.2 -142.6 81.65 -129.45 115.1 -116.25 115.1 -97.55 L115.0 -95.8 Z" fill="none" stroke="#2e2d2d" stroke-linecap="round" stroke-linejoin="round" stroke-width="9.0"/>
    <path d="M114.95 -60.75 Q114.0 -42.8 81.55 -30.05 48.15 -16.85 0.85 -16.85 -46.35 -16.85 -79.8 -30.05 -113.25 -43.2 -113.25 -61.9 L-113.15 -64.25 -113.15 -97.4 115.0 -97.4 115.0 -60.75 114.95 -60.75" fill="#564f4f" fill-rule="evenodd" stroke="none"/>
    <path d="M105.0 -97.45 L108.5 -46.45 Q104.25 -41.85 97.3 -37.6 L93.15 -97.45 105.0 -97.45 M68.0 -25.4 L63.0 -97.45 86.05 -97.45 90.45 -33.9 Q86.35 -31.95 81.55 -30.05 75.05 -27.5 68.0 -25.4" fill="#cfcfcf" fill-rule="evenodd" stroke="none"/>
    <path d="M115.05 -97.55 Q115.05 -78.85 81.6 -65.75 48.15 -52.5 0.9 -52.5 -46.35 -52.5 -79.8 -65.75 -113.2 -78.85 -113.2 -97.55 -113.2 -116.25 -79.8 -129.5 -46.35 -142.6 0.9 -142.6 48.15 -142.6 81.6 -129.5 115.05 -116.25 115.05 -97.55" fill="#727272" fill-rule="evenodd" stroke="none"/>
    <path d="M101.5 -96.8 Q99.25 -89.95 85.65 -83.45 58.2 -70.45 0.95 -70.45 -56.25 -70.45 -83.75 -83.5 -92.35 -87.6 -96.8 -92.45 -99.7 -95.65 -99.6 -96.8 -95.85 -135.8 -65.75 -161.7 -37.1 -186.25 0.95 -186.25 39.05 -186.25 67.65 -161.7 97.75 -135.8 101.5 -96.8" fill="#ffffff" fill-rule="evenodd" stroke="none"/>
    <path d="M101.5 -96.8 Q97.75 -135.8 67.65 -161.7 39.05 -186.25 0.95 -186.25 -37.1 -186.25 -65.75 -161.7 -95.85 -135.8 -99.6 -96.8 -99.7 -95.65 -96.8 -92.45 -92.35 -87.6 -83.75 -83.5 -56.25 -70.45 0.95 -70.45 58.2 -70.45 85.65 -83.45 99.25 -89.95 101.5 -96.8 Z" fill="none" stroke="#560b30" stroke-linecap="round" stroke-linejoin="round" stroke-width="9.0"/>
    <path d="M101.5 -96.8 Q99.25 -89.95 85.65 -83.45 58.2 -70.45 0.95 -70.45 -56.25 -70.45 -83.75 -83.5 -92.35 -87.6 -96.8 -92.45 -99.7 -95.65 -99.6 -96.8 -95.85 -135.8 -65.75 -161.7 -37.1 -186.25 0.95 -186.25 39.05 -186.25 67.65 -161.7 97.75 -135.8 101.5 -96.8" fill="#fc65af" fill-rule="evenodd" stroke="none"/>
    <path d="M40.65 51.7 L40.7 52.95 Q40.7 64.75 29.0 73.2 17.3 81.5 0.75 81.5 -15.85 81.5 -27.55 73.2 -39.25 64.75 -39.25 52.95 L-39.2 52.25 -39.3 52.25 -39.2 34.4 -39.3 32.4 Q-39.3 20.65 -27.55 12.45 -15.8 4.25 0.8 4.3 17.35 4.35 29.0 12.65 40.65 20.9 40.7 32.5 L40.65 51.7" fill="#ffffff" fill-rule="evenodd" stroke="none"/>
    <path d="M40.65 51.7 L40.7 52.95 Q40.7 64.75 29.0 73.2 17.3 81.5 0.75 81.5 -15.85 81.5 -27.55 73.2 -39.25 64.75 -39.25 52.95 L-39.2 52.25 -39.3 52.25 -39.2 34.4 -39.3 32.4 Q-39.3 20.65 -27.55 12.45 -15.8 4.25 0.8 4.3 17.35 4.35 29.0 12.65 40.65 20.9 40.7 32.5 L40.65 51.7 Z" fill="none" stroke="#560b30" stroke-linecap="round" stroke-linejoin="round" stroke-width="9.0"/>
    <path d="M-39.3 32.35 Q-39.3 20.65 -27.55 12.45 -15.8 4.25 0.75 4.3 17.35 4.35 29.05 12.65 40.65 20.9 40.7 32.5 L40.65 52.25 -39.3 52.25 -39.25 34.4 -39.3 32.35" fill="#b13d78" fill-rule="evenodd" stroke="none"/>
    <path d="M-39.3 53.0 Q-39.3 41.15 -27.55 32.85 -15.85 24.45 0.7 24.45 17.25 24.45 29.0 32.85 40.7 41.15 40.7 53.0 40.7 64.8 29.0 73.2 17.25 81.5 0.7 81.5 -15.85 81.5 -27.55 73.2 -39.3 64.8 -39.3 53.0" fill="#fc65af" fill-rule="evenodd" stroke="none"/>
    <path d="M34.25 109.5 Q34.25 117.75 24.45 123.65 14.6 129.45 0.65 129.45 -13.3 129.45 -23.1 123.65 -32.95 117.75 -32.95 109.5 L-32.85 107.8 -32.95 107.8 -32.85 61.2 -32.9 59.3 Q-32.9 48.45 -23.05 40.8 -13.1 33.2 0.8 33.25 14.75 33.3 24.6 41.05 34.35 48.65 34.4 59.4 L34.3 107.8 34.15 107.8 34.25 109.5" fill="#ffffff" fill-rule="evenodd" stroke="none"/>
    <path d="M34.25 109.5 Q34.25 117.75 24.45 123.65 14.6 129.45 0.65 129.45 -13.3 129.45 -23.1 123.65 -32.95 117.75 -32.95 109.5 L-32.85 107.8 -32.95 107.8 -32.85 61.2 -32.9 59.3 Q-32.9 48.45 -23.05 40.8 -13.1 33.2 0.8 33.25 14.75 33.3 24.6 41.05 34.35 48.65 34.4 59.4 L34.3 107.8 34.15 107.8 34.25 109.5 Z" fill="none" stroke="#2e2d2d" stroke-linecap="round" stroke-linejoin="round" stroke-width="9.0"/>
    <path d="M24.55 41.05 Q34.35 48.65 34.4 59.4 L34.3 107.8 -32.95 107.8 -32.85 61.15 -32.95 59.3 Q-32.9 48.45 -23.05 40.8 -13.15 33.2 0.75 33.25 14.7 33.3 24.55 41.05" fill="#727272" fill-rule="evenodd" stroke="none"/>
    <path d="M5.15 99.45 L5.15 33.45 Q10.65 33.9 15.5 35.75 L15.5 99.45 5.15 99.45 M19.55 99.15 L19.55 37.55 Q22.2 38.95 24.55 40.75 L25.6 41.55 25.6 99.15 19.55 99.15" fill="#cfcfcf" fill-rule="evenodd" stroke="none"/>
    <path d="M-23.15 123.65 Q-33.0 117.75 -33.0 109.5 -33.0 101.25 -23.15 95.45 -13.3 89.55 0.6 89.55 14.55 89.55 24.4 95.45 34.25 101.25 34.25 109.5 34.25 117.75 24.4 123.65 14.55 129.45 0.6 129.45 -13.3 129.45 -23.15 123.65" fill="#564f4f" fill-rule="evenodd" stroke="none"/>
    <path d="M-15.7 121.7 Q-22.5 118.15 -22.5 113.2 -22.5 108.2 -15.7 104.7 -8.95 101.15 0.65 101.15 10.25 101.15 17.05 104.7 23.8 108.2 23.8 113.2 23.8 118.15 17.05 121.7 10.25 125.2 0.65 125.2 -8.95 125.2 -15.7 121.7" fill="#2e2d2d" fill-rule="evenodd" stroke="none"/>
    <path d="M115.85 0.45 Q116.3 0.65 116.8 0.95 125.95 6.2 127.25 19.05 128.45 31.8 121.05 44.6 113.65 57.4 102.05 62.75 90.3 68.0 81.15 62.75 L80.6 62.45 80.6 62.5 66.8 54.45 65.25 53.65 Q56.2 48.4 55.05 35.7 54.0 22.95 61.4 10.1 68.85 -2.7 80.45 -8.0 92.05 -13.3 101.0 -8.2 108.45 -3.9 115.85 0.45" fill="#ffffff" fill-rule="evenodd" stroke="none"/>
    <path d="M115.85 0.45 Q116.3 0.65 116.8 0.95 125.95 6.2 127.25 19.05 128.45 31.8 121.05 44.6 113.65 57.4 102.05 62.75 90.3 68.0 81.15 62.75 L80.6 62.45 80.6 62.5 66.8 54.45 65.25 53.65 Q56.2 48.4 55.05 35.7 54.0 22.95 61.4 10.1 68.85 -2.7 80.45 -8.0 92.05 -13.3 101.0 -8.2 108.45 -3.9 115.85 0.45 Z" fill="none" stroke="#560b30" stroke-linecap="round" stroke-linejoin="round" stroke-width="9.0"/>
    <path d="M65.3 53.65 Q56.25 48.4 55.15 35.7 54.05 22.9 61.5 10.2 68.9 -2.65 80.55 -7.95 92.1 -13.25 101.1 -8.15 L116.35 0.75 80.7 62.5 66.9 54.5 65.3 53.65" fill="#b13d78" fill-rule="evenodd" stroke="none"/>
    <path d="M81.2 62.85 Q72.05 57.55 70.85 44.8 69.6 32.0 77.0 19.2 84.35 6.4 96.1 1.1 107.7 -4.25 116.85 1.05 126.0 6.3 127.3 19.1 128.45 31.85 121.1 44.65 113.7 57.45 102.05 62.8 90.35 68.1 81.2 62.85" fill="#fc65af" fill-rule="evenodd" stroke="none"/>
    <path d="M157.65 31.2 Q164.05 34.85 164.2 45.1 164.25 55.3 158.05 66.05 151.85 76.85 143.0 81.85 134.05 86.8 127.65 83.15 L126.4 82.25 126.35 82.35 90.35 61.45 88.85 60.7 Q80.5 55.85 79.05 44.8 77.55 33.75 83.8 23.0 90.05 12.3 100.45 8.1 110.7 4.0 119.0 8.75 L156.35 30.35 156.3 30.5 157.65 31.2" fill="#ffffff" fill-rule="evenodd" stroke="none"/>
    <path d="M157.65 31.2 Q164.05 34.85 164.2 45.1 164.25 55.3 158.05 66.05 151.85 76.85 143.0 81.85 134.05 86.8 127.65 83.15 L126.4 82.25 126.35 82.35 90.35 61.45 88.85 60.7 Q80.5 55.85 79.05 44.8 77.55 33.75 83.8 23.0 90.05 12.3 100.45 8.1 110.7 4.0 119.0 8.75 L156.35 30.35 156.3 30.5 157.65 31.2 Z" fill="none" stroke="#2e2d2d" stroke-linecap="round" stroke-linejoin="round" stroke-width="9.0"/>
    <path d="M88.95 60.8 Q80.55 55.9 79.05 44.9 77.55 33.85 83.9 23.15 90.1 12.35 100.45 8.2 110.7 4.05 119.1 8.8 L156.4 30.5 126.4 82.45 90.4 61.55 88.95 60.8" fill="#727272" fill-rule="evenodd" stroke="none"/>
    <path d="M143.15 37.9 L95.55 10.45 Q97.8 9.0 100.2 8.0 L101.35 7.55 145.85 33.25 143.15 37.9 M136.95 49.15 L85.95 19.7 Q88.75 15.65 92.35 12.8 L141.55 41.2 136.95 49.15" fill="#cfcfcf" fill-rule="evenodd" stroke="none"/>
    <path d="M143.0 81.85 Q134.05 86.8 127.7 83.1 121.3 79.45 121.2 69.25 121.05 59.0 127.25 48.25 133.5 37.45 142.45 32.5 151.3 27.5 157.7 31.15 164.05 34.85 164.25 45.1 164.35 55.3 158.1 66.1 151.9 76.85 143.0 81.85" fill="#564f4f" fill-rule="evenodd" stroke="none"/>
    <path d="M144.75 75.25 Q139.0 78.85 135.15 76.65 131.3 74.45 131.65 67.65 131.9 60.85 136.2 53.45 140.45 46.0 146.25 42.3 151.95 38.7 155.8 40.9 159.65 43.1 159.35 49.9 159.05 56.7 154.8 64.15 150.5 71.55 144.75 75.25" fill="#2e2d2d" fill-rule="evenodd" stroke="none"/>
    <path d="M-115.85 0.45 Q-116.3 0.65 -116.8 0.95 -125.95 6.2 -127.25 19.05 -128.45 31.8 -121.05 44.6 -113.65 57.4 -102.05 62.75 -90.3 68.0 -81.15 62.75 L-80.6 62.45 -80.6 62.5 -66.8 54.45 -65.25 53.65 Q-56.2 48.4 -55.05 35.7 -54.0 22.95 -61.4 10.1 -68.85 -2.7 -80.45 -8.0 -92.05 -13.3 -101.0 -8.2 -108.45 -3.9 -115.85 0.45" fill="#ffffff" fill-rule="evenodd" stroke="none"/>
    <path d="M-115.85 0.45 Q-116.3 0.65 -116.8 0.95 -125.95 6.2 -127.25 19.05 -128.45 31.8 -121.05 44.6 -113.65 57.4 -102.05 62.75 -90.3 68.0 -81.15 62.75 L-80.6 62.45 -80.6 62.5 -66.8 54.45 -65.25 53.65 Q-56.2 48.4 -55.05 35.7 -54.0 22.95 -61.4 10.1 -68.85 -2.7 -80.45 -8.0 -92.05 -13.3 -101.0 -8.2 -108.45 -3.9 -115.85 0.45 Z" fill="none" stroke="#560b30" stroke-linecap="round" stroke-linejoin="round" stroke-width="9.0"/>
    <path d="M-65.3 53.65 Q-56.25 48.4 -55.15 35.7 -54.05 22.9 -61.5 10.2 -68.9 -2.65 -80.55 -7.95 -92.1 -13.25 -101.1 -8.15 L-116.35 0.75 -80.7 62.5 -66.9 54.5 -65.3 53.65" fill="#b13d78" fill-rule="evenodd" stroke="none"/>
    <path d="M-81.2 62.85 Q-72.05 57.55 -70.85 44.8 -69.6 32.0 -77.0 19.2 -84.35 6.4 -96.1 1.1 -107.7 -4.25 -116.85 1.05 -126.0 6.3 -127.3 19.1 -128.45 31.85 -121.1 44.65 -113.7 57.45 -102.05 62.8 -90.35 68.1 -81.2 62.85" fill="#fc65af" fill-rule="evenodd" stroke="none"/>
    <path d="M-157.65 31.2 Q-164.05 34.85 -164.2 45.1 -164.25 55.3 -158.05 66.05 -151.85 76.85 -143.0 81.85 -134.05 86.8 -127.65 83.15 L-126.4 82.25 -126.35 82.35 -90.35 61.45 -88.85 60.7 Q-80.5 55.85 -79.05 44.8 -77.55 33.75 -83.8 23.0 -90.05 12.3 -100.45 8.1 -110.7 4.0 -119.0 8.75 L-156.35 30.35 -156.3 30.5 -157.65 31.2" fill="#ffffff" fill-rule="evenodd" stroke="none"/>
    <path d="M-157.65 31.2 Q-164.05 34.85 -164.2 45.1 -164.25 55.3 -158.05 66.05 -151.85 76.85 -143.0 81.85 -134.05 86.8 -127.65 83.15 L-126.4 82.25 -126.35 82.35 -90.35 61.45 -88.85 60.7 Q-80.5 55.85 -79.05 44.8 -77.55 33.75 -83.8 23.0 -90.05 12.3 -100.45 8.1 -110.7 4.0 -119.0 8.75 L-156.35 30.35 -156.3 30.5 -157.65 31.2 Z" fill="none" stroke="#2e2d2d" stroke-linecap="round" stroke-linejoin="round" stroke-width="9.0"/>
    <path d="M-88.95 60.8 Q-80.55 55.9 -79.05 44.9 -77.55 33.85 -83.9 23.15 -90.1 12.35 -100.45 8.2 -110.7 4.05 -119.1 8.8 L-156.4 30.5 -126.4 82.45 -90.4 61.55 -88.95 60.8" fill="#727272" fill-rule="evenodd" stroke="none"/>
    <path d="M-136.95 49.15 L-85.95 19.7 Q-88.75 15.65 -92.35 12.8 L-141.55 41.2 -136.95 49.15 M-143.15 37.9 L-95.55 10.45 Q-97.8 9.0 -100.2 8.0 L-101.35 7.55 -145.85 33.25 -143.15 37.9" fill="#cfcfcf" fill-rule="evenodd" stroke="none"/>
    <path d="M-143.0 81.85 Q-134.05 86.8 -127.7 83.1 -121.3 79.45 -121.2 69.25 -121.05 59.0 -127.25 48.25 -133.5 37.45 -142.45 32.5 -151.3 27.5 -157.7 31.15 -164.05 34.85 -164.25 45.1 -164.35 55.3 -158.1 66.1 -151.9 76.85 -143.0 81.85" fill="#564f4f" fill-rule="evenodd" stroke="none"/>
    <path d="M-144.75 75.25 Q-139.0 78.85 -135.15 76.65 -131.3 74.45 -131.65 67.65 -131.9 60.85 -136.2 53.45 -140.45 46.0 -146.25 42.3 -151.95 38.7 -155.8 40.9 -159.65 43.1 -159.35 49.9 -159.05 56.7 -154.8 64.15 -150.5 71.55 -144.75 75.25" fill="#2e2d2d" fill-rule="evenodd" stroke="none"/>
    <path d="M106.15 89.95 Q112.55 86.2 117.45 82.1 L122.75 158.1 Q117.8 161.55 111.4 164.75 L106.15 89.95 M96.7 95.0 L99.35 93.7 104.5 168.0 101.0 169.5 Q91.95 173.2 82.0 176.15 L76.9 103.0 Q87.3 99.5 96.7 95.0" fill="#cfcfcf" fill-rule="evenodd" stroke="none"/>
    <path d="M18.6 -182.55 L22.95 -182.1 Q28.35 -181.25 34.9 -179.0 42.1 -176.65 46.95 -174.05 49.5 -172.55 50.55 -171.45 51.6 -170.35 51.0 -169.7 50.15 -168.85 47.4 -168.4 L40.6 -168.6 Q35.85 -169.45 30.8 -171.1 L10.4 -157.9 Q73.1 -117.0 72.2 -113.4 71.0 -109.65 2.15 -152.75 -66.45 -109.65 -67.65 -113.4 -68.8 -117.1 -6.15 -158.0 L-27.2 -171.5 Q-32.3 -169.95 -36.9 -169.15 -40.5 -168.4 -43.8 -169.05 -46.7 -169.55 -47.55 -170.4 -48.25 -171.05 -47.15 -172.2 -46.2 -173.3 -43.6 -174.7 -38.8 -177.3 -31.5 -179.55 -24.95 -181.7 -19.45 -182.5 L-15.05 -182.85 -12.4 -182.4 Q-11.4 -181.9 -11.0 -180.9 -10.4 -179.65 -11.75 -178.6 -13.55 -177.1 -16.9 -175.45 L2.0 -163.35 20.55 -175.2 Q17.2 -176.9 15.4 -178.4 14.0 -179.45 14.55 -180.65 14.9 -181.7 16.0 -182.2 L18.6 -182.55" fill="#000000" fill-rule="evenodd" stroke="none"/>
    <path d="M-42.95 -176.7 Q-22.85 -186.3 0.95 -186.3 39.05 -186.3 67.65 -161.7 97.75 -135.8 101.5 -96.85 100.7 -94.3 98.35 -91.85 89.65 -125.9 61.45 -150.15 27.65 -179.2 -17.4 -179.2 -30.65 -179.2 -42.95 -176.7" fill="#ffffff" fill-opacity="0.49803922" fill-rule="evenodd" stroke="none"/>
  </g>
</svg>
