<?xml version="1.0" encoding="UTF-8" standalone="no"?>
<svg xmlns:xlink="http://www.w3.org/1999/xlink" height="58.55px" width="58.55px" xmlns="http://www.w3.org/2000/svg">
  <g transform="matrix(1.0, 0.0, 0.0, 1.0, 29.25, 29.25)">
    <path d="M0.0 -21.0 Q8.7 -21.0 14.85 -14.85 21.0 -8.7 21.0 0.0 21.0 3.8 19.85 7.15 L19.85 7.2 18.55 10.05 Q17.25 12.3 15.35 14.35 L15.25 14.45 14.85 14.85 14.8 14.9 Q12.2 17.5 9.15 19.0 L8.25 19.4 7.35 19.75 3.2 20.8 0.0 21.0 -3.8 20.7 -5.9 20.2 Q-9.05 19.3 -11.75 17.45 L-14.85 14.85 Q-21.0 8.7 -21.0 0.0 -21.0 -5.5 -18.55 -9.95 -17.25 -12.3 -15.3 -14.35 L-15.15 -14.5 -14.85 -14.85 -14.15 -15.5 Q-11.45 -18.0 -8.2 -19.35 L-8.4 -20.0 -8.2 -19.4 Q-5.1 -20.7 -1.55 -20.95 L0.0 -21.0" fill="#3c3c3c" fill-rule="evenodd" stroke="none"/>
    <path d="M-20.25 -20.25 Q-11.85 -28.65 0.05 -28.65 11.9 -28.65 20.3 -20.25 28.7 -11.85 28.7 0.0 28.7 11.9 20.3 20.3 11.9 28.7 0.05 28.7 -11.85 28.7 -20.25 20.3 -28.65 11.9 -28.65 0.0 -28.65 -11.85 -20.25 -20.25 M0.0 -21.0 Q-8.7 -21.0 -14.85 -14.85 -21.0 -8.7 -21.0 0.0 -21.0 8.7 -14.85 14.85 -8.7 21.0 0.0 21.0 8.7 21.0 14.85 14.85 21.0 8.7 21.0 0.0 21.0 -8.7 14.85 -14.85 8.7 -21.0 0.0 -21.0" fill="#959595" fill-rule="evenodd" stroke="none"/>
    <path d="M-20.25 -20.25 Q-11.85 -28.65 0.05 -28.65 11.9 -28.65 20.3 -20.25 28.7 -11.85 28.7 0.0 28.7 11.9 20.3 20.3 11.9 28.7 0.05 28.7 -11.85 28.7 -20.25 20.3 -28.65 11.9 -28.65 0.0 -28.65 -11.85 -20.25 -20.25 Z" fill="none" stroke="#545454" stroke-linecap="round" stroke-linejoin="round" stroke-width="1.25"/>
    <path d="M0.0 -21.0 Q-8.7 -21.0 -14.85 -14.85 -21.0 -8.7 -21.0 0.0 -21.0 8.7 -14.85 14.85 -8.7 21.0 0.0 21.0 8.7 21.0 14.85 14.85 21.0 8.7 21.0 0.0 21.0 -8.7 14.85 -14.85 8.7 -21.0 0.0 -21.0 M-17.75 -17.7 Q-10.4 -25.0 -0.05 -25.0 10.3 -25.0 17.65 -17.7 25.0 -10.35 25.0 0.0 25.0 10.35 17.65 17.7 10.3 25.0 -0.05 25.0 -10.4 25.0 -17.75 17.7 -25.05 10.35 -25.05 0.0 -25.05 -10.35 -17.75 -17.7" fill="#6d6d6d" fill-rule="evenodd" stroke="none"/>
  </g>
</svg>
