<?xml version="1.0" encoding="UTF-8" standalone="no"?>
<svg xmlns:xlink="http://www.w3.org/1999/xlink" height="80.45px" width="76.5px" xmlns="http://www.w3.org/2000/svg">
  <g transform="matrix(1.0, 0.0, 0.0, 1.0, 37.65, 27.85)">
    <path d="M-12.0 -22.25 Q-10.4 -18.3 -8.15 -14.7 L-4.9 -10.15 -4.35 -9.45 -3.7 -8.7 -2.65 -7.5 -2.25 -7.05 -0.35 -5.1 -0.2 -4.95 Q5.0 0.1 13.15 5.2 L24.3 12.15 24.35 12.2 24.55 12.5 25.1 13.35 26.4 15.6 26.75 16.2 26.75 16.25 29.7 21.6 31.9 25.7 34.35 30.85 28.2 36.45 25.1 24.35 24.9 23.65 25.0 24.4 25.2 25.75 25.3 26.3 25.9 30.1 26.15 31.3 26.4 32.5 Q27.2 36.7 28.25 40.7 L28.9 43.2 29.05 43.65 29.2 44.2 29.3 44.65 29.35 44.8 28.4 45.2 27.25 45.65 20.85 48.1 17.9 44.85 10.25 47.5 5.5 44.45 -0.6 44.95 -0.8 44.55 -1.45 43.35 -4.85 36.45 Q-6.0 33.7 -6.9 30.05 L-7.6 27.2 -8.85 26.25 Q-26.75 12.15 -31.95 -14.4 L-32.85 -19.6 -33.15 -21.95 -12.0 -22.25" fill="#bf7926" fill-rule="evenodd" stroke="none"/>
    <path d="M-33.15 -21.95 L-32.85 -19.6 -31.95 -14.4 Q-26.75 12.15 -8.85 26.25 L-7.6 27.2 -6.9 30.05 Q-6.0 33.7 -4.85 36.45 L-1.45 43.35 -0.8 44.55 -0.6 44.95 5.5 44.45 10.25 47.5 17.9 44.85 20.85 48.1 27.25 45.65 28.4 45.2 29.35 44.8 29.3 44.65 29.2 44.2 29.05 43.65 28.9 43.2 28.25 40.7 Q27.2 36.7 26.4 32.5 L26.15 31.3 25.9 30.1 25.3 26.3 25.2 25.75 25.0 24.4 24.9 23.65 25.1 24.35 28.2 36.45 34.35 30.85 31.9 25.7 29.7 21.6 26.75 16.25 26.75 16.2 26.4 15.6 25.1 13.35 24.55 12.5 24.35 12.2 24.3 12.15 13.15 5.2 Q5.0 0.1 -0.2 -4.95 L-0.35 -5.1 -2.25 -7.05 -2.65 -7.5 -3.7 -8.7 -4.35 -9.45 -4.9 -10.15 -8.15 -14.7 Q-10.4 -18.3 -12.0 -22.25" fill="none" stroke="#3c190a" stroke-linecap="round" stroke-linejoin="round" stroke-width="9.0"/>
    <path d="M-3.7 -8.7 L-2.65 -7.5 -2.25 -7.05 -0.35 -5.1 -0.2 -4.95 Q5.0 0.1 13.15 5.2 L24.3 12.15 24.35 12.2 24.55 12.5 25.1 13.35 26.4 15.6 26.75 16.2 26.75 16.25 29.7 21.6 31.9 25.7 34.35 30.85 28.2 36.45 25.1 24.35 24.9 23.65 25.0 24.4 25.2 25.75 25.3 26.3 25.9 30.1 26.15 31.3 26.4 32.5 Q27.2 36.7 28.25 40.7 L28.9 43.2 29.05 43.65 29.2 44.2 29.3 44.65 29.35 44.8 28.4 45.2 27.25 45.65 20.85 48.1 17.9 44.85 10.25 47.5 5.5 44.45 -0.6 44.95 -0.8 44.55 -1.45 43.35 -4.85 36.45 Q-6.0 33.7 -6.9 30.05 L-7.6 27.2 -8.85 26.25 Q-28.45 10.8 -32.85 -19.6 L-33.7 -27.55 -13.0 -27.85 Q-10.25 -16.85 -4.9 -10.15 L-4.35 -9.45 -3.7 -8.7" fill="#bf7926" fill-rule="evenodd" stroke="none"/>
    <path d="M-33.65 -26.4 L-33.7 -27.55 -13.0 -27.85 Q-10.6 -18.25 -6.2 -11.9 L-4.9 -10.15 -4.35 -9.45 -3.7 -8.7 -2.9 -7.8 -2.65 -7.5 -2.25 -7.05 -0.35 -5.1 -0.2 -4.95 Q5.0 0.1 13.15 5.2 L24.3 12.15 24.35 12.2 24.55 12.5 24.95 13.1 25.1 13.35 25.7 14.4 26.4 15.6 26.75 16.2 26.75 16.25 Q24.95 19.85 23.75 21.3 21.6 17.9 19.95 12.25 20.15 20.25 18.75 28.25 12.6 23.3 9.35 16.35 10.6 25.2 8.45 33.85 3.1 28.75 0.5 21.35 0.4 24.65 -0.85 28.2 L-3.4 34.0 -6.9 30.05 -7.6 27.2 -8.85 26.25 Q-28.45 10.8 -32.85 -19.6 L-33.1 -21.6 -33.65 -26.4" fill="#70381f" fill-rule="evenodd" stroke="none"/>
  </g>
</svg>
