<?xml version="1.0" encoding="UTF-8" standalone="no"?>
<svg xmlns:xlink="http://www.w3.org/1999/xlink" height="22.45px" width="22.45px" xmlns="http://www.w3.org/2000/svg">
  <g transform="matrix(1.0, 0.0, 0.0, 1.0, 10.95, 11.15)">
    <path d="M8.2 8.0 Q4.9 11.3 0.2 11.3 -4.35 11.3 -7.65 8.0 -10.95 4.7 -10.95 0.0 -10.95 -4.7 -7.65 -8.0 -4.35 -11.15 0.2 -11.15 4.9 -11.15 8.2 -8.0 11.5 -4.7 11.5 0.0 11.5 4.7 8.2 8.0" fill="#ffe283" fill-opacity="0.4" fill-rule="evenodd" stroke="none"/>
    <path d="M2.85 2.8 Q1.7 3.95 0.0 3.95 -1.6 3.95 -2.8 2.8 -3.95 1.6 -3.95 -0.05 -3.95 -1.7 -2.8 -2.9 -1.6 -4.0 0.0 -4.0 1.7 -4.0 2.85 -2.9 4.05 -1.7 4.05 -0.05 4.05 1.6 2.85 2.8" fill="#ff9933" fill-opacity="0.4" fill-rule="evenodd" stroke="none"/>
    <path d="M2.85 2.8 Q1.7 3.95 0.0 3.95 -1.6 3.95 -2.8 2.8 -3.95 1.6 -3.95 -0.05 -3.95 -1.7 -2.8 -2.9 -1.6 -4.0 0.0 -4.0 1.7 -4.0 2.85 -2.9 4.05 -1.7 4.05 -0.05 4.05 1.6 2.85 2.8 Z" fill="none" stroke="#ffee00" stroke-linecap="round" stroke-linejoin="round" stroke-width="3.0"/>
    <path d="M2.85 2.8 Q1.7 3.95 0.0 3.95 -1.6 3.95 -2.8 2.8 -3.95 1.6 -3.95 -0.05 -3.95 -1.7 -2.8 -2.9 -1.6 -4.0 0.0 -4.0 1.7 -4.0 2.85 -2.9 4.05 -1.7 4.05 -0.05 4.05 1.6 2.85 2.8" fill="#ffffff" fill-rule="evenodd" stroke="none"/>
  </g>
</svg>
