<?xml version="1.0" encoding="UTF-8" standalone="no"?>
<svg xmlns:xlink="http://www.w3.org/1999/xlink" height="51.05px" width="54.25px" xmlns="http://www.w3.org/2000/svg">
  <g transform="matrix(1.0, 0.0, 0.0, 1.0, 29.4, 23.75)">
    <path d="M22.85 -6.6 Q22.95 -5.1 21.35 -2.5 19.5 0.55 19.25 1.8 18.95 3.2 20.7 6.55 22.55 10.1 22.4 12.55 22.25 16.4 18.65 20.5 14.7 24.95 10.45 24.95 7.3 24.95 3.25 22.4 -0.65 19.9 -3.0 20.15 L-9.6 22.0 Q-13.05 23.05 -15.2 21.2 -17.25 19.35 -17.8 16.6 -18.4 13.6 -19.0 13.0 L-23.9 10.05 Q-27.55 7.6 -27.4 3.9 -27.3 0.4 -24.0 -2.65 -20.25 -6.15 -19.85 -7.45 L-18.6 -13.75 Q-17.85 -17.65 -15.85 -19.45 -13.8 -21.2 -11.45 -19.95 L-7.2 -17.75 Q-5.9 -17.5 -3.75 -19.5 -1.35 -21.75 2.25 -21.75 6.6 -21.75 9.95 -19.95 12.1 -18.85 15.7 -15.65 L20.6 -10.9 Q22.7 -8.45 22.85 -6.6" fill="#f3dabd" fill-rule="evenodd" stroke="none"/>
    <path d="M22.85 -6.6 Q22.95 -5.1 21.35 -2.5 19.5 0.55 19.25 1.8 18.95 3.2 20.7 6.55 22.55 10.1 22.4 12.55 22.25 16.4 18.65 20.5 14.7 24.95 10.45 24.95 7.3 24.95 3.25 22.4 -0.65 19.9 -3.0 20.15 L-9.6 22.0 Q-13.05 23.05 -15.2 21.2 -17.25 19.35 -17.8 16.6 -18.4 13.6 -19.0 13.0 L-23.9 10.05 Q-27.55 7.6 -27.4 3.9 -27.3 0.4 -24.0 -2.65 -20.25 -6.15 -19.85 -7.45 L-18.6 -13.75 Q-17.85 -17.65 -15.85 -19.45 -13.8 -21.2 -11.45 -19.95 L-7.2 -17.75 Q-5.9 -17.5 -3.75 -19.5 -1.35 -21.75 2.25 -21.75 6.6 -21.75 9.95 -19.95 12.1 -18.85 15.7 -15.65 L20.6 -10.9 Q22.7 -8.45 22.85 -6.6 Z" fill="none" stroke="#8abfc9" stroke-linecap="round" stroke-linejoin="round" stroke-width="4.0"/>
    <path d="M22.85 -6.6 Q22.95 -5.1 21.35 -2.5 19.5 0.55 19.25 1.8 18.95 3.2 20.7 6.55 22.55 10.1 22.4 12.55 22.25 16.4 18.65 20.5 14.7 24.95 10.45 24.95 7.3 24.95 3.25 22.4 -0.65 19.9 -3.0 20.15 L-9.6 22.0 Q-13.05 23.05 -15.2 21.2 -17.25 19.35 -17.8 16.6 -18.4 13.6 -19.0 13.0 L-23.9 10.05 Q-27.55 7.6 -27.4 3.9 -27.3 0.4 -24.0 -2.65 -20.25 -6.15 -19.85 -7.45 L-18.6 -13.75 Q-17.85 -17.65 -15.85 -19.45 -13.8 -21.2 -11.45 -19.95 L-7.2 -17.75 Q-5.9 -17.5 -3.75 -19.5 -1.35 -21.75 2.25 -21.75 6.6 -21.75 9.95 -19.95 12.1 -18.85 15.7 -15.65 L20.6 -10.9 Q22.7 -8.45 22.85 -6.6" fill="#d2f8ff" fill-rule="evenodd" stroke="none"/>
    <path d="M2.9 26.3 Q1.65 26.3 0.8 25.4 -0.1 24.55 -0.1 23.3 -0.1 22.1 0.8 21.2 1.65 20.35 2.9 20.35 4.1 20.35 5.0 21.2 5.85 22.1 5.85 23.3 5.85 24.55 5.0 25.4 4.1 26.3 2.9 26.3" fill="#d2f8ff" fill-rule="evenodd" stroke="none"/>
    <path d="M2.9 26.3 Q1.65 26.3 0.8 25.4 -0.1 24.55 -0.1 23.3 -0.1 22.1 0.8 21.2 1.65 20.35 2.9 20.35 4.1 20.35 5.0 21.2 5.85 22.1 5.85 23.3 5.85 24.55 5.0 25.4 4.1 26.3 2.9 26.3 Z" fill="none" stroke="#8abfc9" stroke-linecap="round" stroke-linejoin="round" stroke-width="2.0"/>
    <path d="M13.85 -0.95 Q11.1 -0.95 9.1 -2.9 7.15 -4.85 7.15 -7.65 7.15 -10.4 9.1 -12.4 11.1 -14.35 13.85 -14.35 16.65 -14.35 18.55 -12.4 20.55 -10.4 20.55 -7.65 20.55 -4.85 18.55 -2.9 16.65 -0.95 13.85 -0.95" fill="#d2f8ff" fill-rule="evenodd" stroke="none"/>
    <path d="M13.85 -0.95 Q11.1 -0.95 9.1 -2.9 7.15 -4.85 7.15 -7.65 7.15 -10.4 9.1 -12.4 11.1 -14.35 13.85 -14.35 16.65 -14.35 18.55 -12.4 20.55 -10.4 20.55 -7.65 20.55 -4.85 18.55 -2.9 16.65 -0.95 13.85 -0.95 Z" fill="none" stroke="#8abfc9" stroke-linecap="round" stroke-linejoin="round" stroke-width="2.0"/>
    <path d="M-6.5 10.6 Q-9.25 10.6 -11.25 8.65 -13.2 6.7 -13.2 3.9 -13.2 1.15 -11.25 -0.85 -9.25 -2.8 -6.5 -2.8 -3.7 -2.8 -1.8 -0.85 0.2 1.15 0.2 3.9 0.2 6.7 -1.8 8.65 -3.7 10.6 -6.5 10.6" fill="#d2f8ff" fill-rule="evenodd" stroke="none"/>
    <path d="M-6.5 10.6 Q-9.25 10.6 -11.25 8.65 -13.2 6.7 -13.2 3.9 -13.2 1.15 -11.25 -0.85 -9.25 -2.8 -6.5 -2.8 -3.7 -2.8 -1.8 -0.85 0.2 1.15 0.2 3.9 0.2 6.7 -1.8 8.65 -3.7 10.6 -6.5 10.6 Z" fill="none" stroke="#8abfc9" stroke-linecap="round" stroke-linejoin="round" stroke-width="2.0"/>
    <path d="M14.15 14.85 Q11.15 14.85 9.0 12.7 6.9 10.6 6.9 7.6 6.9 4.65 9.0 2.5 11.15 0.4 14.15 0.4 17.15 0.4 19.25 2.5 21.4 4.65 21.4 7.6 21.4 10.6 19.25 12.7 17.15 14.85 14.15 14.85" fill="#d2f8ff" fill-rule="evenodd" stroke="none"/>
    <path d="M14.15 14.85 Q11.15 14.85 9.0 12.7 6.9 10.6 6.9 7.6 6.9 4.65 9.0 2.5 11.15 0.4 14.15 0.4 17.15 0.4 19.25 2.5 21.4 4.65 21.4 7.6 21.4 10.6 19.25 12.7 17.15 14.85 14.15 14.85 Z" fill="none" stroke="#8abfc9" stroke-linecap="round" stroke-linejoin="round" stroke-width="2.0"/>
    <path d="M13.7 2.95 Q18.35 2.65 19.15 7.8" fill="none" stroke="#ffffff" stroke-linecap="round" stroke-linejoin="round" stroke-width="2.0"/>
    <path d="M16.8 -11.05 Q19.2 -8.95 18.0 -5.85" fill="none" stroke="#ffffff" stroke-linecap="round" stroke-linejoin="round" stroke-width="2.0"/>
    <path d="M-10.65 2.45 Q-11.1 5.0 -10.35 6.45" fill="none" stroke="#ffffff" stroke-linecap="round" stroke-linejoin="round" stroke-width="2.0"/>
    <path d="M-8.2 8.55 Q-8.4 8.8 -8.75 8.8 L-9.3 8.55 -9.5 8.0 -9.3 7.45 -8.75 7.25 Q-8.4 7.25 -8.2 7.45 -7.95 7.7 -7.95 8.0 L-8.2 8.55" fill="#ffffff" fill-rule="evenodd" stroke="none"/>
  </g>
</svg>
