<?xml version="1.0" encoding="UTF-8" standalone="no"?>
<svg xmlns:xlink="http://www.w3.org/1999/xlink" height="41.55px" width="45.5px" xmlns="http://www.w3.org/2000/svg">
  <g transform="matrix(1.0, 0.0, 0.0, 1.0, 23.1, 19.45)">
    <path d="M-15.8 -1.6 Q-18.4 -1.6 -20.25 -3.5 -22.1 -5.3 -22.1 -7.95 -22.1 -10.55 -20.25 -12.4 -18.4 -14.25 -15.8 -14.25 -13.15 -14.25 -11.35 -12.4 -9.45 -10.55 -9.45 -7.95 -9.45 -5.3 -11.35 -3.5 -13.15 -1.6 -15.8 -1.6" fill="#d2f8ff" fill-rule="evenodd" stroke="none"/>
    <path d="M-15.8 -1.6 Q-18.4 -1.6 -20.25 -3.5 -22.1 -5.3 -22.1 -7.95 -22.1 -10.55 -20.25 -12.4 -18.4 -14.25 -15.8 -14.25 -13.15 -14.25 -11.35 -12.4 -9.45 -10.55 -9.45 -7.95 -9.45 -5.3 -11.35 -3.5 -13.15 -1.6 -15.8 -1.6 Z" fill="none" stroke="#8abfc9" stroke-linecap="round" stroke-linejoin="round" stroke-width="2.0"/>
    <path d="M2.7 -7.75 Q0.5 -7.75 -1.1 -9.35 -2.65 -10.9 -2.65 -13.1 -2.65 -15.3 -1.1 -16.9 0.5 -18.45 2.7 -18.45 4.95 -18.45 6.5 -16.9 8.05 -15.3 8.05 -13.1 8.05 -10.9 6.5 -9.35 4.95 -7.75 2.7 -7.75" fill="#d2f8ff" fill-rule="evenodd" stroke="none"/>
    <path d="M2.7 -7.75 Q0.5 -7.75 -1.1 -9.35 -2.65 -10.9 -2.65 -13.1 -2.65 -15.3 -1.1 -16.9 0.5 -18.45 2.7 -18.45 4.95 -18.45 6.5 -16.9 8.05 -15.3 8.05 -13.1 8.05 -10.9 6.5 -9.35 4.95 -7.75 2.7 -7.75 Z" fill="none" stroke="#8abfc9" stroke-linecap="round" stroke-linejoin="round" stroke-width="2.0"/>
    <path d="M13.85 -0.95 Q11.1 -0.95 9.1 -2.9 7.15 -4.85 7.15 -7.65 7.15 -10.4 9.1 -12.4 11.1 -14.35 13.85 -14.35 16.65 -14.35 18.55 -12.4 20.55 -10.4 20.55 -7.65 20.55 -4.85 18.55 -2.9 16.65 -0.95 13.85 -0.95" fill="#d2f8ff" fill-rule="evenodd" stroke="none"/>
    <path d="M13.85 -0.95 Q11.1 -0.95 9.1 -2.9 7.15 -4.85 7.15 -7.65 7.15 -10.4 9.1 -12.4 11.1 -14.35 13.85 -14.35 16.65 -14.35 18.55 -12.4 20.55 -10.4 20.55 -7.65 20.55 -4.85 18.55 -2.9 16.65 -0.95 13.85 -0.95 Z" fill="none" stroke="#8abfc9" stroke-linecap="round" stroke-linejoin="round" stroke-width="2.0"/>
    <path d="M8.1 1.85 Q5.35 1.85 3.35 -0.15 1.45 -2.05 1.45 -4.8 1.45 -7.6 3.35 -9.55 5.35 -11.5 8.1 -11.5 10.85 -11.5 12.8 -9.55 14.75 -7.6 14.75 -4.8 14.75 -2.05 12.8 -0.15 10.85 1.85 8.1 1.85" fill="#d2f8ff" fill-rule="evenodd" stroke="none"/>
    <path d="M8.1 1.85 Q5.35 1.85 3.35 -0.15 1.45 -2.05 1.45 -4.8 1.45 -7.6 3.35 -9.55 5.35 -11.5 8.1 -11.5 10.85 -11.5 12.8 -9.55 14.75 -7.6 14.75 -4.8 14.75 -2.05 12.8 -0.15 10.85 1.85 8.1 1.85 Z" fill="none" stroke="#8abfc9" stroke-linecap="round" stroke-linejoin="round" stroke-width="2.0"/>
    <path d="M-15.7 7.55 Q-17.8 7.55 -19.35 6.05 -20.8 4.55 -20.8 2.45 -20.8 0.3 -19.35 -1.2 -17.8 -2.65 -15.7 -2.65 -13.6 -2.65 -12.1 -1.2 -10.6 0.3 -10.6 2.45 -10.6 4.55 -12.1 6.05 -13.6 7.55 -15.7 7.55" fill="#d2f8ff" fill-rule="evenodd" stroke="none"/>
    <path d="M-15.7 7.55 Q-17.8 7.55 -19.35 6.05 -20.8 4.55 -20.8 2.45 -20.8 0.3 -19.35 -1.2 -17.8 -2.65 -15.7 -2.65 -13.6 -2.65 -12.1 -1.2 -10.6 0.3 -10.6 2.45 -10.6 4.55 -12.1 6.05 -13.6 7.55 -15.7 7.55 Z" fill="none" stroke="#8abfc9" stroke-linecap="round" stroke-linejoin="round" stroke-width="2.0"/>
    <path d="M-6.5 10.6 Q-9.25 10.6 -11.25 8.65 -13.2 6.7 -13.2 3.9 -13.2 1.15 -11.25 -0.85 -9.25 -2.8 -6.5 -2.8 -3.7 -2.8 -1.8 -0.85 0.2 1.15 0.2 3.9 0.2 6.7 -1.8 8.65 -3.7 10.6 -6.5 10.6" fill="#d2f8ff" fill-rule="evenodd" stroke="none"/>
    <path d="M-6.5 10.6 Q-9.25 10.6 -11.25 8.65 -13.2 6.7 -13.2 3.9 -13.2 1.15 -11.25 -0.85 -9.25 -2.8 -6.5 -2.8 -3.7 -2.8 -1.8 -0.85 0.2 1.15 0.2 3.9 0.2 6.7 -1.8 8.65 -3.7 10.6 -6.5 10.6 Z" fill="none" stroke="#8abfc9" stroke-linecap="round" stroke-linejoin="round" stroke-width="2.0"/>
    <path d="M1.7 18.2 Q-1.05 18.2 -3.05 16.2 -4.95 14.3 -4.95 11.55 -4.95 8.75 -3.05 6.8 -1.05 4.85 1.7 4.85 4.45 4.85 6.4 6.8 8.35 8.75 8.35 11.55 8.35 14.3 6.4 16.2 4.45 18.2 1.7 18.2" fill="#d2f8ff" fill-rule="evenodd" stroke="none"/>
    <path d="M1.7 18.2 Q-1.05 18.2 -3.05 16.2 -4.95 14.3 -4.95 11.55 -4.95 8.75 -3.05 6.8 -1.05 4.85 1.7 4.85 4.45 4.85 6.4 6.8 8.35 8.75 8.35 11.55 8.35 14.3 6.4 16.2 4.45 18.2 1.7 18.2 Z" fill="none" stroke="#8abfc9" stroke-linecap="round" stroke-linejoin="round" stroke-width="2.0"/>
    <path d="M14.15 14.85 Q11.15 14.85 9.0 12.7 6.9 10.6 6.9 7.6 6.9 4.65 9.0 2.5 11.15 0.4 14.15 0.4 17.15 0.4 19.25 2.5 21.4 4.65 21.4 7.6 21.4 10.6 19.25 12.7 17.15 14.85 14.15 14.85" fill="#d2f8ff" fill-rule="evenodd" stroke="none"/>
    <path d="M14.15 14.85 Q11.15 14.85 9.0 12.7 6.9 10.6 6.9 7.6 6.9 4.65 9.0 2.5 11.15 0.4 14.15 0.4 17.15 0.4 19.25 2.5 21.4 4.65 21.4 7.6 21.4 10.6 19.25 12.7 17.15 14.85 14.15 14.85 Z" fill="none" stroke="#8abfc9" stroke-linecap="round" stroke-linejoin="round" stroke-width="2.0"/>
    <path d="M4.0 8.45 Q1.25 8.45 -0.75 6.45 -2.65 4.55 -2.65 1.8 -2.65 -1.0 -0.75 -2.95 1.25 -4.9 4.0 -4.9 6.75 -4.9 8.7 -2.95 10.65 -1.0 10.65 1.8 10.65 4.55 8.7 6.45 6.75 8.45 4.0 8.45" fill="#d2f8ff" fill-rule="evenodd" stroke="none"/>
    <path d="M4.0 8.45 Q1.25 8.45 -0.75 6.45 -2.65 4.55 -2.65 1.8 -2.65 -1.0 -0.75 -2.95 1.25 -4.9 4.0 -4.9 6.75 -4.9 8.7 -2.95 10.65 -1.0 10.65 1.8 10.65 4.55 8.7 6.45 6.75 8.45 4.0 8.45 Z" fill="none" stroke="#8abfc9" stroke-linecap="round" stroke-linejoin="round" stroke-width="2.0"/>
    <path d="M10.45 21.1 Q8.2 21.1 6.6 19.45 5.0 17.9 5.0 15.6 5.0 13.35 6.6 11.75 8.2 10.15 10.45 10.15 12.75 10.15 14.3 11.75 15.95 13.35 15.95 15.6 15.95 17.9 14.3 19.45 12.75 21.1 10.45 21.1" fill="#d2f8ff" fill-rule="evenodd" stroke="none"/>
    <path d="M10.45 21.1 Q8.2 21.1 6.6 19.45 5.0 17.9 5.0 15.6 5.0 13.35 6.6 11.75 8.2 10.15 10.45 10.15 12.75 10.15 14.3 11.75 15.95 13.35 15.95 15.6 15.95 17.9 14.3 19.45 12.75 21.1 10.45 21.1 Z" fill="none" stroke="#8abfc9" stroke-linecap="round" stroke-linejoin="round" stroke-width="2.0"/>
    <path d="M-5.7 1.8 Q-9.3 1.8 -11.85 -0.75 -14.4 -3.25 -14.4 -6.85 -14.4 -10.4 -11.85 -13.0 -9.3 -15.5 -5.7 -15.5 -2.15 -15.5 0.35 -13.0 2.95 -10.4 2.95 -6.85 2.95 -3.25 0.35 -0.75 -2.15 1.8 -5.7 1.8" fill="#d2f8ff" fill-rule="evenodd" stroke="none"/>
    <path d="M-5.7 1.8 Q-9.3 1.8 -11.85 -0.75 -14.4 -3.25 -14.4 -6.85 -14.4 -10.4 -11.85 -13.0 -9.3 -15.5 -5.7 -15.5 -2.15 -15.5 0.35 -13.0 2.95 -10.4 2.95 -6.85 2.95 -3.25 0.35 -0.75 -2.15 1.8 -5.7 1.8 Z" fill="none" stroke="#8abfc9" stroke-linecap="round" stroke-linejoin="round" stroke-width="2.0"/>
    <path d="M-3.3 -12.7 Q2.1 -9.35 -1.1 -2.95" fill="none" stroke="#ffffff" stroke-linecap="round" stroke-linejoin="round" stroke-width="2.0"/>
    <path d="M-2.5 -0.7 Q-2.7 -0.45 -3.05 -0.45 L-3.6 -0.7 -3.8 -1.25 -3.6 -1.8 -3.05 -2.0 -2.5 -1.8 -2.25 -1.25 -2.5 -0.7" fill="#ffffff" fill-rule="evenodd" stroke="none"/>
    <path d="M5.3 5.9 Q8.8 4.15 8.2 0.1" fill="none" stroke="#ffffff" stroke-linecap="round" stroke-linejoin="round" stroke-width="2.0"/>
    <path d="M7.5 -9.15 Q10.65 -9.3 12.0 -6.2" fill="none" stroke="#ffffff" stroke-linecap="round" stroke-linejoin="round" stroke-width="2.0"/>
    <path d="M13.7 2.95 Q18.35 2.65 19.15 7.8" fill="none" stroke="#ffffff" stroke-linecap="round" stroke-linejoin="round" stroke-width="2.0"/>
    <path d="M16.8 -11.05 Q19.2 -8.95 18.0 -5.85" fill="none" stroke="#ffffff" stroke-linecap="round" stroke-linejoin="round" stroke-width="2.0"/>
    <path d="M12.35 13.8 L11.8 14.05 11.25 13.8 11.05 13.3 Q11.05 12.95 11.25 12.75 11.5 12.5 11.8 12.5 12.1 12.5 12.35 12.75 L12.6 13.3 12.35 13.8" fill="#ffffff" fill-rule="evenodd" stroke="none"/>
    <path d="M13.95 17.45 Q13.4 17.95 12.75 17.95 12.1 17.95 11.6 17.45 11.1 16.95 11.1 16.25 11.1 15.6 11.6 15.1 12.1 14.6 12.75 14.6 13.4 14.6 13.95 15.1 14.45 15.6 14.45 16.25 14.45 16.95 13.95 17.45" fill="#ffffff" fill-rule="evenodd" stroke="none"/>
    <path d="M-2.15 9.55 Q-2.85 14.0 -0.15 15.4" fill="none" stroke="#ffffff" stroke-linecap="round" stroke-linejoin="round" stroke-width="2.0"/>
    <path d="M-10.65 2.45 Q-11.1 5.0 -10.35 6.45" fill="none" stroke="#ffffff" stroke-linecap="round" stroke-linejoin="round" stroke-width="2.0"/>
    <path d="M-8.2 8.55 Q-8.4 8.8 -8.75 8.8 L-9.3 8.55 -9.5 8.0 -9.3 7.45 -8.75 7.25 Q-8.4 7.25 -8.2 7.45 -7.95 7.7 -7.95 8.0 L-8.2 8.55" fill="#ffffff" fill-rule="evenodd" stroke="none"/>
    <path d="M-16.1 2.4 Q-16.65 2.9 -17.3 2.9 -17.95 2.9 -18.45 2.4 -18.95 1.9 -18.95 1.2 -18.95 0.55 -18.45 0.05 -17.95 -0.45 -17.3 -0.45 -16.65 -0.45 -16.1 0.05 -15.6 0.55 -15.6 1.2 -15.6 1.9 -16.1 2.4" fill="#ffffff" fill-rule="evenodd" stroke="none"/>
    <path d="M-17.85 4.1 L-18.4 4.35 -18.95 4.1 -19.15 3.6 -18.95 3.05 -18.4 2.8 -17.85 3.05 -17.6 3.6 -17.85 4.1" fill="#ffffff" fill-rule="evenodd" stroke="none"/>
    <path d="M-19.75 -6.6 Q-20.05 -9.05 -18.4 -10.8" fill="none" stroke="#ffffff" stroke-linecap="round" stroke-linejoin="round" stroke-width="2.0"/>
    <path d="M-15.8 -11.25 Q-16.0 -11.0 -16.35 -11.0 L-16.9 -11.25 -17.1 -11.8 -16.9 -12.35 -16.35 -12.55 Q-16.0 -12.55 -15.8 -12.35 L-15.55 -11.8 -15.8 -11.25" fill="#ffffff" fill-rule="evenodd" stroke="none"/>
    <path d="M5.8 -13.5 Q5.6 -13.25 5.25 -13.25 4.95 -13.25 4.7 -13.5 L4.5 -14.05 4.7 -14.6 5.25 -14.8 Q5.6 -14.8 5.8 -14.6 L6.05 -14.05 5.8 -13.5" fill="#ffffff" fill-rule="evenodd" stroke="none"/>
    <path d="M4.05 -14.35 Q3.5 -13.85 2.85 -13.85 2.2 -13.85 1.7 -14.35 1.2 -14.85 1.2 -15.55 1.2 -16.2 1.7 -16.7 2.2 -17.2 2.85 -17.2 L4.05 -16.7 Q4.55 -16.2 4.55 -15.55 4.55 -14.85 4.05 -14.35" fill="#ffffff" fill-rule="evenodd" stroke="none"/>
  </g>
</svg>
