<?xml version="1.0" encoding="UTF-8" standalone="no"?>
<svg xmlns:xlink="http://www.w3.org/1999/xlink" height="51.05px" width="58.85px" xmlns="http://www.w3.org/2000/svg">
  <g transform="matrix(1.0, 0.0, 0.0, 1.0, 29.7, 23.75)">
    <path d="M22.55 -6.6 Q22.65 -5.1 21.05 -2.5 19.2 0.55 18.95 1.8 18.65 3.2 20.4 6.55 22.25 10.1 22.1 12.55 21.95 16.4 18.35 20.5 14.4 24.95 10.15 24.95 7.0 24.95 2.95 22.4 -0.95 19.9 -3.3 20.15 L-9.9 22.0 Q-13.35 23.05 -15.5 21.2 -17.55 19.35 -18.1 16.6 -18.7 13.6 -19.3 13.0 L-24.2 10.05 Q-27.85 7.6 -27.7 3.9 -27.6 0.4 -24.3 -2.65 -20.55 -6.15 -20.15 -7.45 L-18.9 -13.75 Q-18.15 -17.65 -16.15 -19.45 -14.1 -21.2 -11.75 -19.95 L-7.5 -17.75 Q-6.2 -17.5 -4.05 -19.5 -1.65 -21.75 1.95 -21.75 6.3 -21.75 9.65 -19.95 11.8 -18.85 15.4 -15.65 L20.3 -10.9 Q22.4 -8.45 22.55 -6.6" fill="#f3dabd" fill-rule="evenodd" stroke="none"/>
    <path d="M22.55 -6.6 Q22.65 -5.1 21.05 -2.5 19.2 0.55 18.95 1.8 18.65 3.2 20.4 6.55 22.25 10.1 22.1 12.55 21.95 16.4 18.35 20.5 14.4 24.95 10.15 24.95 7.0 24.95 2.95 22.4 -0.95 19.9 -3.3 20.15 L-9.9 22.0 Q-13.35 23.05 -15.5 21.2 -17.55 19.35 -18.1 16.6 -18.7 13.6 -19.3 13.0 L-24.2 10.05 Q-27.85 7.6 -27.7 3.9 -27.6 0.4 -24.3 -2.65 -20.55 -6.15 -20.15 -7.45 L-18.9 -13.75 Q-18.15 -17.65 -16.15 -19.45 -14.1 -21.2 -11.75 -19.95 L-7.5 -17.75 Q-6.2 -17.5 -4.05 -19.5 -1.65 -21.75 1.95 -21.75 6.3 -21.75 9.65 -19.95 11.8 -18.85 15.4 -15.65 L20.3 -10.9 Q22.4 -8.45 22.55 -6.6 Z" fill="none" stroke="#8abfc9" stroke-linecap="round" stroke-linejoin="round" stroke-width="4.0"/>
    <path d="M22.55 -6.6 Q22.65 -5.1 21.05 -2.5 19.2 0.55 18.95 1.8 18.65 3.2 20.4 6.55 22.25 10.1 22.1 12.55 21.95 16.4 18.35 20.5 14.4 24.95 10.15 24.95 7.0 24.95 2.95 22.4 -0.95 19.9 -3.3 20.15 L-9.9 22.0 Q-13.35 23.05 -15.5 21.2 -17.55 19.35 -18.1 16.6 -18.7 13.6 -19.3 13.0 L-24.2 10.05 Q-27.85 7.6 -27.7 3.9 -27.6 0.4 -24.3 -2.65 -20.55 -6.15 -20.15 -7.45 L-18.9 -13.75 Q-18.15 -17.65 -16.15 -19.45 -14.1 -21.2 -11.75 -19.95 L-7.5 -17.75 Q-6.2 -17.5 -4.05 -19.5 -1.65 -21.75 1.95 -21.75 6.3 -21.75 9.65 -19.95 11.8 -18.85 15.4 -15.65 L20.3 -10.9 Q22.4 -8.45 22.55 -6.6" fill="#d2f8ff" fill-rule="evenodd" stroke="none"/>
    <path d="M2.6 26.3 Q1.35 26.3 0.5 25.4 -0.4 24.55 -0.4 23.3 -0.4 22.1 0.5 21.2 1.35 20.35 2.6 20.35 3.8 20.35 4.7 21.2 5.55 22.1 5.55 23.3 5.55 24.55 4.7 25.4 3.8 26.3 2.6 26.3" fill="#d2f8ff" fill-rule="evenodd" stroke="none"/>
    <path d="M2.6 26.3 Q1.35 26.3 0.5 25.4 -0.4 24.55 -0.4 23.3 -0.4 22.1 0.5 21.2 1.35 20.35 2.6 20.35 3.8 20.35 4.7 21.2 5.55 22.1 5.55 23.3 5.55 24.55 4.7 25.4 3.8 26.3 2.6 26.3 Z" fill="none" stroke="#8abfc9" stroke-linecap="round" stroke-linejoin="round" stroke-width="2.0"/>
    <path d="M26.75 10.45 Q26.15 10.45 25.75 10.05 25.35 9.65 25.35 9.05 25.35 8.45 25.75 8.05 26.15 7.65 26.75 7.65 27.35 7.65 27.75 8.05 28.15 8.45 28.15 9.05 28.15 9.65 27.75 10.05 27.35 10.45 26.75 10.45" fill="#d2f8ff" fill-rule="evenodd" stroke="none"/>
    <path d="M26.75 10.45 Q26.15 10.45 25.75 10.05 25.35 9.65 25.35 9.05 25.35 8.45 25.75 8.05 26.15 7.65 26.75 7.65 27.35 7.65 27.75 8.05 28.15 8.45 28.15 9.05 28.15 9.65 27.75 10.05 27.35 10.45 26.75 10.45 Z" fill="none" stroke="#8abfc9" stroke-linecap="round" stroke-linejoin="round" stroke-width="2.0"/>
  </g>
</svg>
