<?xml version="1.0" encoding="UTF-8" standalone="no"?>
<svg xmlns:xlink="http://www.w3.org/1999/xlink" height="47.0px" width="58.9px" xmlns="http://www.w3.org/2000/svg">
  <g transform="matrix(1.0, 0.0, 0.0, 1.0, 29.4, 23.35)">
    <path d="M7.4 -4.1 L5.0 -2.95 Q4.65 -0.55 6.7 -0.55 L8.85 -2.05 6.7 -0.55 Q4.65 -0.55 5.0 -2.95 L7.4 -4.1 19.45 -9.7 8.85 -2.05 Q9.45 -0.1 8.15 2.4 6.45 5.55 2.85 7.65 -0.8 9.7 -4.2 9.55 -7.65 9.5 -8.95 7.4 L-9.1 7.3 -9.45 6.2 -9.1 7.3 -8.95 7.4 -13.65 10.85 -16.85 13.05 -22.25 16.9 -23.35 16.65 Q-25.15 16.05 -24.75 13.3 L-16.35 9.4 -9.45 6.2 Q-9.85 4.2 -8.6 1.95 -7.05 -1.15 -3.45 -3.2 0.2 -5.3 3.75 -5.25 6.0 -5.05 7.4 -4.1" fill="#333333" fill-rule="evenodd" stroke="none"/>
    <path d="M-13.65 10.85 Q-9.95 13.3 -16.2 17.15 L-17.95 16.45 Q-17.05 14.85 -16.85 13.05 -17.05 14.85 -17.95 16.45 -19.1 18.7 -21.45 20.45 -24.2 22.5 -26.55 23.15 L-23.35 16.65 -22.25 16.9 -16.85 13.05 -13.65 10.85 M-24.75 13.3 L-28.9 6.3 Q-21.95 2.85 -16.35 9.4 L-24.75 13.3" fill="#ffcc33" fill-rule="evenodd" stroke="none"/>
    <path d="M14.55 -16.6 L17.35 -12.7 M19.85 -22.85 L19.85 -14.2 M22.25 -12.75 L25.05 -15.7 M23.25 -9.85 L29.0 -9.85 M21.3 -7.0 L25.65 -4.05" fill="none" stroke="#ffffff" stroke-linecap="round" stroke-linejoin="round" stroke-width="1.0"/>
    <path d="M8.85 -2.05 L6.7 -0.55 Q4.65 -0.55 5.0 -2.95 L7.4 -4.1 Q6.0 -5.05 3.75 -5.25 0.2 -5.3 -3.45 -3.2 -7.05 -1.15 -8.6 1.95 -9.85 4.2 -9.45 6.2 L-9.1 7.3 -8.95 7.4 Q-7.65 9.5 -4.2 9.55 -0.8 9.7 2.85 7.65 6.45 5.55 8.15 2.4 9.45 -0.1 8.85 -2.05 L19.45 -9.7 7.4 -4.1 M-13.65 10.85 L-16.85 13.05 -22.25 16.9 M-23.35 16.65 Q-25.15 16.05 -24.75 13.3 L-16.35 9.4 -9.45 6.2 M-8.95 7.4 L-13.65 10.85" fill="none" stroke="#000000" stroke-linecap="round" stroke-linejoin="round" stroke-width="1.0"/>
    <path d="M-17.95 16.45 L-16.2 17.15 Q-9.95 13.3 -13.65 10.85 M-16.85 13.05 Q-17.05 14.85 -17.95 16.45 -19.1 18.7 -21.45 20.45 -24.2 22.5 -26.55 23.15 L-23.35 16.65 M-24.75 13.3 L-28.9 6.3 Q-21.95 2.85 -16.35 9.4 M-22.25 16.9 L-23.35 16.65" fill="none" stroke="#856301" stroke-linecap="round" stroke-linejoin="round" stroke-width="1.0"/>
  </g>
</svg>
