<?xml version="1.0" encoding="UTF-8" standalone="no"?>
<svg xmlns:xlink="http://www.w3.org/1999/xlink" height="67.4px" width="34.65px" xmlns="http://www.w3.org/2000/svg">
  <g transform="matrix(1.0, 0.0, 0.0, 1.0, -3.7, 31.6)">
    <path d="M24.85 2.9 L24.85 26.35 26.6 26.35 Q27.8 26.35 28.6 27.4 29.45 28.4 29.45 29.85 29.45 31.3 28.6 32.3 27.8 33.3 26.6 33.3 L15.45 33.3 Q14.25 33.3 13.45 32.3 12.65 31.3 12.65 29.85 12.65 28.4 13.45 27.4 14.25 26.35 15.45 26.35 L17.2 26.35 17.2 2.9 24.85 2.9" fill="#ffffff" fill-rule="evenodd" stroke="none"/>
    <path d="M24.85 2.9 L24.85 26.35 26.6 26.35 Q27.8 26.35 28.6 27.4 29.45 28.4 29.45 29.85 29.45 31.3 28.6 32.3 27.8 33.3 26.6 33.3 L15.45 33.3 Q14.25 33.3 13.45 32.3 12.65 31.3 12.65 29.85 12.65 28.4 13.45 27.4 14.25 26.35 15.45 26.35 L17.2 26.35 17.2 2.9 24.85 2.9 Z" fill="none" stroke="#000000" stroke-linecap="round" stroke-linejoin="round" stroke-width="5.0"/>
    <path d="M24.9 2.9 L24.9 27.3 17.25 27.3 17.25 2.9 24.9 2.9" fill="#1c1c1c" fill-rule="evenodd" stroke="none"/>
    <path d="M17.85 -29.1 L24.15 -29.1 Q29.0 -29.1 32.4 -25.7 35.85 -22.25 35.85 -17.45 L35.85 0.9 Q35.85 5.75 32.4 9.15 29.0 12.55 24.15 12.55 L17.85 12.55 Q13.0 12.55 9.6 9.15 6.2 5.75 6.2 0.9 L6.2 -17.45 Q6.2 -22.25 9.6 -25.7 13.0 -29.1 17.85 -29.1" fill="#ffffff" fill-rule="evenodd" stroke="none"/>
    <path d="M17.85 -29.1 Q13.0 -29.1 9.6 -25.7 6.2 -22.25 6.2 -17.45 L6.2 0.9 Q6.2 5.75 9.6 9.15 13.0 12.55 17.85 12.55 L24.15 12.55 Q29.0 12.55 32.4 9.15 35.85 5.75 35.85 0.9 L35.85 -17.45 Q35.85 -22.25 32.4 -25.7 29.0 -29.1 24.15 -29.1 L17.85 -29.1 Z" fill="none" stroke="#623307" stroke-linecap="round" stroke-linejoin="round" stroke-width="5.0"/>
    <path d="M17.85 -29.1 L24.15 -29.1 Q29.0 -29.1 32.4 -25.7 35.85 -22.25 35.85 -17.45 L35.85 0.9 Q35.85 5.75 32.4 9.15 29.0 12.55 24.15 12.55 L17.85 12.55 Q13.0 12.55 9.6 9.15 6.2 5.75 6.2 0.9 L6.2 -17.45 Q6.2 -22.25 9.6 -25.7 13.0 -29.1 17.85 -29.1" fill="#ff912c" fill-rule="evenodd" stroke="none"/>
    <path d="M35.85 1.75 Q35.55 6.05 32.4 9.15 29.0 12.55 24.15 12.55 L17.85 12.55 Q13.0 12.55 9.6 9.15 6.5 6.05 6.2 1.75 L35.85 1.75" fill="#434343" fill-rule="evenodd" stroke="none"/>
    <path d="M28.5 -17.7 L35.85 -15.25 35.85 -12.5 36.1 -12.4 28.5 -14.95 28.5 -17.7 M35.85 -17.15 L36.1 -17.05 28.5 -19.6 28.5 -22.35 35.55 -20.0 35.85 -17.45 35.85 -17.15 M35.85 -7.95 L36.1 -7.85 28.5 -10.4 28.5 -13.15 35.85 -10.7 35.85 -7.95" fill="#955010" fill-rule="evenodd" stroke="none"/>
    <path d="M5.9 -8.1 L6.2 -8.2 6.2 -11.0 12.75 -13.15 12.75 -10.4 5.9 -8.1 M12.75 -17.8 L12.75 -15.05 5.9 -12.75 6.2 -12.85 6.2 -15.65 12.75 -17.8 M12.75 -22.35 L12.75 -19.6 5.9 -17.3 6.2 -17.4 6.2 -17.45 Q6.2 -18.9 6.5 -20.25 L12.75 -22.35" fill="#955010" fill-rule="evenodd" stroke="none"/>
    <path d="M28.55 32.35 Q27.75 33.35 26.6 33.35 L15.4 33.35 Q14.25 33.35 13.4 32.35 12.6 31.35 12.6 29.9 12.6 28.45 13.4 27.45 14.25 26.45 15.4 26.45 L26.6 26.45 Q27.75 26.45 28.55 27.45 29.4 28.45 29.4 29.9 29.4 31.35 28.55 32.35" fill="#434343" fill-rule="evenodd" stroke="none"/>
    <path d="M23.8 -24.35 L18.2 -24.35 Q14.05 -24.35 11.05 -27.25 L11.25 -27.05 Q14.1 -29.1 17.85 -29.1 L24.15 -29.1 Q27.9 -29.1 30.75 -27.05 27.85 -24.35 23.8 -24.35" fill="#955010" fill-rule="evenodd" stroke="none"/>
    <path d="M16.95 -29.05 L16.95 -24.4 15.45 -24.65 15.45 -28.9 16.95 -29.05 M25.75 -24.5 L25.75 -29.0 27.25 -28.7 27.25 -24.9 25.75 -24.5 M20.65 -29.1 L22.15 -29.1 22.15 -24.35 20.65 -24.35 20.65 -29.1" fill="#623307" fill-rule="evenodd" stroke="none"/>
    <path d="M22.5 26.35 L25.1 26.35 25.1 33.3 22.5 33.3 22.5 26.35 M27.7 26.65 L27.7 33.0 26.6 33.3 26.4 33.3 26.4 26.35 26.6 26.35 Q27.2 26.35 27.7 26.65" fill="#ffffff" fill-opacity="0.49803922" fill-rule="evenodd" stroke="none"/>
  </g>
</svg>
