<?xml version="1.0" encoding="UTF-8" standalone="no"?>
<svg xmlns:xlink="http://www.w3.org/1999/xlink" height="79.3px" width="53.9px" xmlns="http://www.w3.org/2000/svg">
  <g transform="matrix(1.0, 0.0, 0.0, 1.0, 16.6, -48.6)">
    <path d="M12.75 48.6 Q17.05 63.15 19.55 67.6 21.55 71.1 27.15 75.2 32.1 78.8 34.0 83.85 37.4 92.75 37.3 100.9 37.1 111.7 30.4 118.1 22.35 125.8 10.0 127.5 2.05 128.65 -3.85 126.45 -9.85 116.25 -9.85 107.0 -9.85 96.35 -7.4 87.15 L-4.9 80.05 Q-5.95 82.0 -7.55 83.55 -10.65 86.55 -13.35 84.65 -16.7 82.2 -16.6 76.05 -16.6 69.6 -12.65 64.85 -9.3 60.7 -1.75 61.75 2.0 62.15 5.05 63.45 6.6 59.45 8.8 55.0 10.85 51.1 12.75 48.6" fill="#bf7926" fill-rule="evenodd" stroke="none"/>
  </g>
</svg>
