<?xml version="1.0" encoding="UTF-8" standalone="no"?>
<svg xmlns:xlink="http://www.w3.org/1999/xlink" height="121.15px" width="133.5px" xmlns="http://www.w3.org/2000/svg">
  <g transform="matrix(1.0, 0.0, 0.0, 1.0, 35.25, 51.4)">
    <path d="M14.55 -46.4 L15.45 -29.3 Q16.7 -10.95 18.5 -5.2 19.75 -1.15 24.5 5.05 28.75 10.55 29.6 15.95 31.15 25.5 29.25 32.75 26.7 42.35 18.5 45.0 8.65 48.25 -4.15 44.15 -18.05 39.75 -24.05 29.7 -29.3 20.75 -30.1 -10.95 -30.5 -26.8 -29.85 -40.85 L14.55 -46.4" fill="#1c1a17" fill-rule="evenodd" stroke="none"/>
    <path d="M14.55 -46.4 L-29.85 -40.85 Q-30.5 -26.8 -30.1 -10.95 -29.3 20.75 -24.05 29.7 -18.05 39.75 -4.15 44.15 8.65 48.25 18.5 45.0 26.7 42.35 29.25 32.75 31.15 25.5 29.6 15.95 28.75 10.55 24.5 5.05 19.75 -1.15 18.5 -5.2 16.7 -10.95 15.45 -29.3 L14.55 -46.4 Z" fill="none" stroke="#1c1a17" stroke-linecap="round" stroke-linejoin="round" stroke-width="10.0"/>
    <path d="M85.7 6.35 L86.15 4.55 92.25 26.25 90.05 28.05 84.55 31.7 Q78.9 34.95 74.0 35.8 78.05 38.55 81.05 42.55 L83.25 46.15 83.9 47.6 66.5 63.75 Q66.2 60.2 65.2 55.9 63.3 47.5 59.85 44.75 56.4 42.1 52.35 40.8 49.75 40.05 45.5 39.7 L39.4 38.9 Q36.3 38.05 34.2 36.05 30.3 32.15 26.2 23.55 24.1 19.3 22.95 15.9 L22.8 16.05 22.95 15.85 Q24.2 12.15 27.75 9.25 35.1 3.1 47.15 6.95 55.95 9.7 65.05 14.0 68.1 15.45 69.85 15.9 L75.15 16.55 Q80.55 16.6 83.9 10.55 84.95 8.65 85.7 6.35 M54.8 27.1 L48.9 20.35 Q45.25 16.55 41.55 14.5 34.35 10.55 27.8 13.0 24.7 14.1 22.95 15.9 L26.8 18.75 Q31.5 22.1 39.2 26.85 43.15 29.3 47.65 30.25 L55.45 31.15 58.7 31.35 54.8 27.1" fill="#ff0000" fill-rule="evenodd" stroke="none"/>
    <path d="M85.7 6.35 L86.15 4.55 92.25 26.25 90.05 28.05 84.55 31.7 Q78.9 34.95 74.0 35.8 78.05 38.55 81.05 42.55 L83.25 46.15 83.9 47.6 66.5 63.75 Q66.2 60.2 65.2 55.9 63.3 47.5 59.85 44.75 56.4 42.1 52.35 40.8 49.75 40.05 45.5 39.7 L39.4 38.9 Q36.3 38.05 34.2 36.05 30.3 32.15 26.2 23.55 24.1 19.3 22.95 15.9 M54.8 27.1 L48.9 20.35 Q45.25 16.55 41.55 14.5 34.35 10.55 27.8 13.0 24.7 14.1 22.95 15.9" fill="none" stroke="#6d1800" stroke-linecap="square" stroke-linejoin="round" stroke-width="9.0"/>
    <path d="M22.95 15.9 L22.8 16.05 22.95 15.85 Q24.2 12.15 27.75 9.25 35.1 3.1 47.15 6.95 55.95 9.7 65.05 14.0 68.1 15.45 69.85 15.9 L75.15 16.55 Q80.55 16.6 83.9 10.55 84.95 8.65 85.7 6.35 M22.95 15.9 L26.8 18.75 Q31.5 22.1 39.2 26.85 43.15 29.3 47.65 30.25 L55.45 31.15 58.7 31.35 54.8 27.1" fill="none" stroke="#6d1800" stroke-linecap="round" stroke-linejoin="round" stroke-width="9.0"/>
    <path d="M14.55 -46.4 L15.45 -29.3 Q16.7 -10.95 18.5 -5.2 19.75 -1.15 24.5 5.05 28.75 10.55 29.6 15.95 31.15 25.5 29.25 32.75 26.7 42.35 18.5 45.0 8.65 48.25 -4.15 44.15 -18.05 39.75 -24.05 29.7 -29.3 20.75 -30.1 -10.95 -30.5 -26.8 -29.85 -40.85 L14.55 -46.4" fill="#62594e" fill-rule="evenodd" stroke="none"/>
    <path d="M24.5 5.05 Q28.75 10.55 29.6 15.95 L30.05 19.05 Q2.0 27.25 -26.45 23.5 -28.15 17.4 -29.05 7.55 -1.8 10.8 24.2 4.65 L24.5 5.05" fill="#ff0000" fill-rule="evenodd" stroke="none"/>
    <path d="M62.95 31.7 L55.4 31.2 47.6 30.25 Q43.1 29.3 39.15 26.85 L26.75 18.75 Q23.35 16.4 22.9 15.75 24.1 19.25 26.15 23.6 30.25 32.15 34.2 36.0 36.25 38.1 39.4 38.9 L45.45 39.7 Q49.65 40.05 52.35 40.85 56.35 42.05 59.85 44.8 63.25 47.55 65.2 55.9 66.15 60.15 66.45 63.8 L83.95 47.65 83.25 46.15 81.05 42.6 Q76.8 36.95 70.45 33.85 67.15 32.2 62.95 31.7" fill="#ff0000" fill-rule="evenodd" stroke="none"/>
    <path d="M86.15 4.5 L85.65 6.35 Q84.95 8.6 83.9 10.5 80.55 16.5 75.1 16.55 L69.8 15.85 Q68.1 15.4 65.1 13.95 55.9 9.65 47.15 6.85 35.1 3.05 27.7 9.15 24.05 12.2 22.8 16.0 24.5 14.15 27.8 13.0 34.3 10.55 41.5 14.5 45.2 16.5 48.9 20.3 L54.75 27.1 Q58.2 31.1 60.7 33.0 64.2 35.55 68.2 36.05 75.4 36.85 84.55 31.65 L90.1 27.95 92.2 26.25 86.15 4.5" fill="#ff0000" fill-rule="evenodd" stroke="none"/>
  </g>
</svg>
