<?xml version="1.0" encoding="UTF-8" standalone="no"?>
<svg xmlns:xlink="http://www.w3.org/1999/xlink" height="86.5px" width="70.1px" xmlns="http://www.w3.org/2000/svg">
  <g transform="matrix(1.0, 0.0, 0.0, 1.0, 56.95, 69.6)">
    <path d="M-1.05 -61.35 L0.95 -59.85 2.1 -58.95 3.55 -57.65 6.5 -55.0 Q10.05 -51.8 13.15 -47.6 L10.6 -50.1 Q-2.55 -61.85 -14.85 -58.95 -33.25 -55.35 -38.2 -26.75 -42.7 -6.1 -37.3 16.9 -42.35 11.2 -45.95 4.95 -49.15 0.25 -50.8 -4.35 -51.75 -5.7 -52.05 -6.7 L-52.1 -7.1 -52.35 -7.55 Q-53.05 -8.95 -52.95 -9.55 -53.65 -11.15 -53.7 -12.15 L-54.35 -14.0 Q-55.6 -17.85 -55.75 -21.1 -56.4 -23.55 -56.5 -25.75 -57.6 -34.05 -56.05 -41.0 L-55.8 -42.05 -55.15 -44.5 -54.35 -46.8 -53.4 -49.0 -52.5 -50.85 -51.6 -53.15 -51.15 -53.9 -49.85 -56.3 Q-41.4 -70.45 -23.8 -69.55 -16.65 -69.5 -9.5 -66.15 -8.85 -66.0 -7.95 -65.35 -7.9 -65.55 -7.8 -65.25 L-7.5 -65.2 -6.75 -64.9 -6.0 -64.6 -5.35 -64.2 -1.05 -61.35" fill="#ffcc33" fill-rule="evenodd" stroke="none"/>
  </g>
</svg>
