<?xml version="1.0" encoding="UTF-8" standalone="no"?>
<svg xmlns:xlink="http://www.w3.org/1999/xlink" height="104.85px" width="57.85px" xmlns="http://www.w3.org/2000/svg">
  <g transform="matrix(1.0, 0.0, 0.0, 1.0, 28.95, 62.85)">
    <path d="M-10.3 -27.65 Q-9.15 -27.3 -8.55 -26.2 -7.95 -25.1 -8.3 -23.9 -8.7 -22.75 -9.8 -22.15 -21.95 -15.7 -22.25 -6.8 -22.0 2.75 -9.1 15.35 -8.2 16.25 -8.2 17.5 -8.2 18.7 -9.05 19.6 -9.95 20.5 -11.15 20.5 -12.4 20.5 -13.3 19.65 -28.5 4.8 -28.25 -6.8 -28.55 -19.05 -12.6 -27.45 L-10.3 -27.65" fill="#3f9306" fill-rule="evenodd" stroke="none"/>
    <path d="M-10.3 -27.65 L-12.6 -27.45 Q-28.55 -19.05 -28.25 -6.8 -28.5 4.8 -13.3 19.65 -12.4 20.5 -11.15 20.5 -9.95 20.5 -9.05 19.6 -8.2 18.7 -8.2 17.5 -8.2 16.25 -9.1 15.35 -22.0 2.75 -22.25 -6.8 -21.95 -15.7 -9.8 -22.15 -8.7 -22.75 -8.3 -23.9 -7.95 -25.1 -8.55 -26.2 -9.15 -27.3 -10.3 -27.65 Z" fill="none" stroke="#416409" stroke-linecap="round" stroke-linejoin="round" stroke-width="1.0"/>
    <path d="M-5.45 -40.5 L-5.45 30.25 -12.85 30.25 -12.85 -40.5 -5.45 -40.5" fill="#dcdee0" fill-rule="evenodd" stroke="none"/>
    <path d="M-5.45 -40.5 L-5.45 30.25 -12.85 30.25 -12.85 -40.5 -5.45 -40.5 Z" fill="none" stroke="#455b72" stroke-linecap="round" stroke-linejoin="round" stroke-width="3.0"/>
    <path d="M14.7 -43.0 L15.7 -51.95 8.4 -61.35 11.45 -51.45 9.9 -43.0 14.7 -43.0 Z" fill="none" stroke="#455b72" stroke-linecap="round" stroke-linejoin="round" stroke-width="3.0"/>
    <path d="M-8.1 -61.35 L-11.2 -51.45 -9.6 -43.0 -14.45 -43.0 -15.45 -51.95 -8.1 -61.35 Z" fill="none" stroke="#455b72" stroke-linecap="round" stroke-linejoin="round" stroke-width="3.0"/>
    <path d="M-9.75 -43.05 L-14.55 -43.05 -15.5 -51.95 -8.25 -61.4 -11.3 -51.45 -9.75 -43.05" fill="#9bafc4" fill-rule="evenodd" stroke="none"/>
    <path d="M9.85 -43.05 L14.65 -43.05 15.6 -51.95 8.35 -61.4 11.4 -51.45 9.85 -43.05" fill="#9bafc4" fill-rule="evenodd" stroke="none"/>
    <path d="M-2.5 -40.85 L0.5 -60.0 3.25 -40.85 -2.5 -40.85" fill="#555c72" fill-rule="evenodd" stroke="none"/>
    <path d="M-2.5 -40.85 L0.5 -60.0 3.25 -40.85 -2.5 -40.85 Z" fill="none" stroke="#455b72" stroke-linecap="round" stroke-linejoin="round" stroke-width="3.0"/>
    <path d="M-2.5 -40.85 L0.5 -60.0 3.25 -40.85 -2.5 -40.85" fill="#dcdee0" fill-rule="evenodd" stroke="none"/>
    <path d="M3.25 -40.9 L-2.5 -40.9 -1.05 -49.9 1.95 -49.9 3.25 -40.9" fill="#9bafc4" fill-rule="evenodd" stroke="none"/>
    <path d="M5.75 -40.5 L5.75 30.25 13.15 30.25 13.15 -40.5 5.75 -40.5" fill="#dcdee0" fill-rule="evenodd" stroke="none"/>
    <path d="M5.75 -40.5 L5.75 30.25 13.15 30.25 13.15 -40.5 5.75 -40.5 Z" fill="none" stroke="#455b72" stroke-linecap="round" stroke-linejoin="round" stroke-width="3.0"/>
    <path d="M5.75 -40.5 L5.75 30.25 13.15 30.25 13.15 -40.5 5.75 -40.5" fill="#dcdee0" fill-rule="evenodd" stroke="none"/>
    <path d="M6.05 -40.5 L6.05 30.3 10.3 30.3 10.3 -40.5 6.05 -40.5" fill="#9bafc4" fill-rule="evenodd" stroke="none"/>
    <path d="M9.95 -40.5 L9.95 30.25 0.15 30.25 0.15 -40.5 9.95 -40.5" fill="#9bafc4" fill-rule="evenodd" stroke="none"/>
    <path d="M9.95 -40.5 L9.95 30.25 0.15 30.25 0.15 -40.5 9.95 -40.5 Z" fill="none" stroke="#455b72" stroke-linecap="round" stroke-linejoin="round" stroke-width="3.0"/>
    <path d="M9.85 -40.5 L9.85 30.25 0.05 30.25 0.05 -40.5 9.85 -40.5" fill="#9bafc4" fill-rule="evenodd" stroke="none"/>
    <path d="M7.45 -40.5 L7.45 30.25 2.4 30.25 2.4 -40.5 7.45 -40.5" fill="#dcdee0" fill-rule="evenodd" stroke="none"/>
    <path d="M-5.45 -40.5 L-5.45 30.25 -12.85 30.25 -12.85 -40.5 -5.45 -40.5" fill="#dcdee0" fill-rule="evenodd" stroke="none"/>
    <path d="M-5.95 -40.5 L-5.95 30.3 -10.2 30.3 -10.2 -40.5 -5.95 -40.5" fill="#9bafc4" fill-rule="evenodd" stroke="none"/>
    <path d="M0.15 -40.5 L0.15 30.25 -9.65 30.25 -9.65 -40.5 0.15 -40.5" fill="#9bafc4" fill-rule="evenodd" stroke="none"/>
    <path d="M0.15 -40.5 L0.15 30.25 -9.65 30.25 -9.65 -40.5 0.15 -40.5 Z" fill="none" stroke="#455b72" stroke-linecap="round" stroke-linejoin="round" stroke-width="3.0"/>
    <path d="M19.55 32.1 L-19.55 32.1 -19.55 23.8 19.55 23.8 19.55 32.1 Z" fill="none" stroke="#455b72" stroke-linecap="round" stroke-linejoin="round" stroke-width="3.0"/>
    <path d="M19.55 32.1 L-19.55 32.1 -19.55 23.8 19.55 23.8 19.55 32.1" fill="#9bafc4" fill-rule="evenodd" stroke="none"/>
    <path d="M19.55 30.1 L-19.55 30.1 -19.55 25.8 19.55 25.8 19.55 30.1" fill="#dcdee0" fill-rule="evenodd" stroke="none"/>
    <path d="M0.05 -40.5 L0.05 30.25 -9.75 30.25 -9.75 -40.5 0.05 -40.5" fill="#9bafc4" fill-rule="evenodd" stroke="none"/>
    <path d="M-2.35 -40.5 L-2.35 30.25 -7.4 30.25 -7.4 -40.5 -2.35 -40.5" fill="#dcdee0" fill-rule="evenodd" stroke="none"/>
    <path d="M-15.95 15.4 L16.3 15.4 16.3 40.5 -15.95 40.5 -15.95 15.4 Z" fill="none" stroke="#191c1e" stroke-linecap="round" stroke-linejoin="round" stroke-width="3.0"/>
    <path d="M-15.95 15.4 L16.3 15.4 16.3 40.5 -15.95 40.5 -15.95 15.4" fill="#3f434f" fill-rule="evenodd" stroke="none"/>
    <path d="M-11.65 15.4 L12.0 15.4 12.0 40.5 -11.65 40.5 -11.65 15.4" fill="#555c72" fill-rule="evenodd" stroke="none"/>
    <path d="M-20.8 21.25 L-20.8 35.55 -27.45 35.55 -27.45 21.25 -20.8 21.25 Z" fill="none" stroke="#191c1e" stroke-linecap="round" stroke-linejoin="round" stroke-width="3.0"/>
    <path d="M-20.8 21.25 L-20.8 35.55 -27.45 35.55 -27.45 21.25 -20.8 21.25" fill="#3f434f" fill-rule="evenodd" stroke="none"/>
    <path d="M-20.8 23.1 L-20.8 33.6 -27.45 33.6 -27.45 23.1 -20.8 23.1" fill="#555c72" fill-rule="evenodd" stroke="none"/>
    <path d="M27.4 21.25 L27.4 35.55 20.75 35.55 20.75 21.25 27.4 21.25 Z" fill="none" stroke="#191c1e" stroke-linecap="round" stroke-linejoin="round" stroke-width="3.0"/>
    <path d="M27.4 21.25 L27.4 35.55 20.75 35.55 20.75 21.25 27.4 21.25" fill="#3f434f" fill-rule="evenodd" stroke="none"/>
    <path d="M27.4 23.1 L27.4 33.6 20.75 33.6 20.75 23.1 27.4 23.1" fill="#555c72" fill-rule="evenodd" stroke="none"/>
    <path d="M-15.95 -42.15 L16.3 -42.15 16.3 -4.3 -15.95 -4.3 -15.95 -42.15 Z" fill="none" stroke="#191c1e" stroke-linecap="round" stroke-linejoin="round" stroke-width="3.0"/>
    <path d="M-15.95 -42.15 L16.3 -42.15 16.3 -4.3 -15.95 -4.3 -15.95 -42.15" fill="#3f434f" fill-rule="evenodd" stroke="none"/>
    <path d="M-15.95 -7.15 L16.3 -7.15 M-15.95 -12.0 L16.3 -12.0 M-15.95 -9.6 L16.3 -9.6" fill="none" stroke="#ff0000" stroke-linecap="round" stroke-linejoin="round" stroke-width="1.0"/>
    <path d="M-11.65 -42.15 L12.0 -42.15 12.0 -4.3 -11.65 -4.3 -11.65 -42.15" fill="#555c72" fill-rule="evenodd" stroke="none"/>
    <path d="M16.3 29.1 L-15.95 29.1 -15.95 24.95 16.3 24.95 16.3 29.1 M16.3 22.45 L-15.95 22.45 -15.95 18.3 16.3 18.3 16.3 22.45" fill="#3f9306" fill-rule="evenodd" stroke="none"/>
    <path d="M12.0 22.45 L-11.65 22.45 -11.65 18.3 12.0 18.3 12.0 22.45 M12.0 29.1 L-11.65 29.1 -11.65 24.95 12.0 24.95 12.0 29.1" fill="#7cb421" fill-rule="evenodd" stroke="none"/>
    <path d="M16.3 -34.7 L-15.95 -34.7 -15.95 -38.85 16.3 -38.85 16.3 -34.7 M16.3 -28.05 L-15.95 -28.05 -15.95 -32.2 16.3 -32.2 16.3 -28.05" fill="#3f9306" fill-rule="evenodd" stroke="none"/>
    <path d="M12.0 -28.05 L-11.65 -28.05 -11.65 -32.2 12.0 -32.2 12.0 -28.05 M12.0 -34.7 L-11.65 -34.7 -11.65 -38.85 12.0 -38.85 12.0 -34.7" fill="#7cb421" fill-rule="evenodd" stroke="none"/>
    <path d="M-15.95 -20.0 L16.3 -20.0" fill="none" stroke="#191c1e" stroke-linecap="round" stroke-linejoin="round" stroke-width="2.0"/>
    <path d="M-10.5 -12.3 Q-10.15 -12.8 -9.5 -12.9 L-8.4 -12.55 Q-7.95 -12.2 -7.85 -11.55 -7.8 -10.95 -8.15 -10.45 -20.6 5.3 -20.6 13.75 -20.25 21.2 -8.6 22.25 -8.0 22.3 -7.6 22.8 -7.2 23.25 -7.25 23.9 -7.3 24.5 -7.8 24.9 -8.25 25.3 -8.85 25.25 -23.65 23.9 -23.6 13.8 -23.9 4.65 -10.5 -12.3" fill="#7cb421" fill-rule="evenodd" stroke="none"/>
    <path d="M-10.5 -12.3 Q-23.9 4.65 -23.6 13.8 -23.65 23.9 -8.85 25.25 -8.25 25.3 -7.8 24.9 -7.3 24.5 -7.25 23.9 -7.2 23.25 -7.6 22.8 -8.0 22.3 -8.6 22.25 -20.25 21.2 -20.6 13.75 -20.6 5.3 -8.15 -10.45 -7.8 -10.95 -7.85 -11.55 -7.95 -12.2 -8.4 -12.55 L-9.5 -12.9 Q-10.15 -12.8 -10.5 -12.3 Z" fill="none" stroke="#416409" stroke-linecap="round" stroke-linejoin="round" stroke-width="1.0"/>
    <path d="M9.3 -7.05 L8.6 -7.55 Q8.15 -7.6 7.75 -7.25 L7.35 -6.4 Q7.35 -5.9 7.6 -5.5 16.75 7.7 16.75 14.8 16.5 21.0 7.9 21.9 7.45 21.95 7.2 22.35 6.9 22.75 6.9 23.3 6.95 23.8 7.35 24.1 7.65 24.45 8.1 24.4 19.0 23.3 18.95 14.8 19.2 7.15 9.3 -7.05" fill="#7cb421" fill-rule="evenodd" stroke="none"/>
    <path d="M9.3 -7.05 Q19.2 7.15 18.95 14.8 19.0 23.3 8.1 24.4 7.65 24.45 7.35 24.1 6.95 23.8 6.9 23.3 6.9 22.75 7.2 22.35 7.45 21.95 7.9 21.9 16.5 21.0 16.75 14.8 16.75 7.7 7.6 -5.5 7.35 -5.9 7.35 -6.4 L7.75 -7.25 Q8.15 -7.6 8.6 -7.55 L9.3 -7.05 Z" fill="none" stroke="#416409" stroke-linecap="round" stroke-linejoin="round" stroke-width="1.0"/>
  </g>
</svg>
