<?xml version="1.0" encoding="UTF-8" standalone="no"?>
<svg xmlns:xlink="http://www.w3.org/1999/xlink" height="46.15px" width="35.8px" xmlns="http://www.w3.org/2000/svg">
  <g transform="matrix(1.0, 0.0, 0.0, 1.0, 17.9, 23.05)">
    <path d="M4.1 -13.05 Q8.6 -13.05 12.55 -14.25 12.9 -11.3 12.9 -8.1 12.9 2.75 9.05 10.4 5.3 18.1 0.0 18.1 -5.35 18.1 -9.15 10.4 -12.9 2.75 -12.9 -8.1 -12.9 -13.5 -11.95 -18.05 -4.95 -13.05 4.1 -13.05" fill="#8a1d00" fill-rule="evenodd" stroke="none"/>
    <path d="M4.1 -13.05 Q-4.95 -13.05 -11.95 -18.05 -12.9 -13.5 -12.9 -8.1 -12.9 2.75 -9.15 10.4 -5.35 18.1 0.0 18.1 5.3 18.1 9.05 10.4 12.9 2.75 12.9 -8.1 12.9 -11.3 12.55 -14.25 8.6 -13.05 4.1 -13.05 Z" fill="none" stroke="#a8620f" stroke-linecap="round" stroke-linejoin="round" stroke-width="10.0"/>
    <path d="M4.1 -13.05 Q8.6 -13.05 12.55 -14.25 12.9 -11.3 12.9 -8.1 12.9 2.75 9.05 10.4 5.3 18.1 0.0 18.1 -5.35 18.1 -9.15 10.4 -12.9 2.75 -12.9 -8.1 -12.9 -13.5 -11.95 -18.05 -4.95 -13.05 4.1 -13.05" fill="#8a1d00" fill-rule="evenodd" stroke="none"/>
    <path d="M4.1 -13.05 L10.15 -13.65 8.95 -6.6 Q-2.05 -4.1 -12.85 -5.4 L-12.9 -8.1 Q-12.9 -13.5 -11.95 -18.05 -4.95 -13.05 4.1 -13.05" fill="#ffffff" fill-rule="evenodd" stroke="none"/>
    <path d="M-4.7 16.4 L-4.75 16.4 -5.1 16.3 -4.8 16.4 Q-7.15 14.4 -9.15 10.4 -10.85 6.9 -11.8 2.7 -5.9 4.15 -1.95 7.85 1.75 11.25 2.15 14.9 0.85 16.1 -0.8 16.5 L-4.7 16.4" fill="#d74533" fill-rule="evenodd" stroke="none"/>
    <path d="M4.55 16.5 Q2.4 18.1 0.0 18.1 -4.6 18.1 -8.0 12.45 -2.0 12.65 4.1 14.05 L4.55 16.5" fill="#ffffff" fill-rule="evenodd" stroke="none"/>
  </g>
</svg>
