<?xml version="1.0" encoding="UTF-8" standalone="no"?>
<svg xmlns:xlink="http://www.w3.org/1999/xlink" height="85.0px" width="90.4px" xmlns="http://www.w3.org/2000/svg">
  <g transform="matrix(1.0, 0.0, 0.0, 1.0, 45.2, 42.5)">
    <path d="M27.35 -17.65 L27.4 -17.65 30.35 5.15 30.4 5.25 30.45 5.45 23.4 11.15 23.35 11.25 23.0 11.45 18.85 24.6 18.85 24.65 18.7 24.75 12.0 28.6 11.9 28.6 11.85 28.6 7.75 27.45 7.6 27.45 -6.45 28.15 -6.6 28.15 -6.6 28.05 -23.8 17.9 -23.9 17.9 -30.5 -11.9 -30.4 -11.9 -30.45 -11.95 -30.5 -12.05 -1.5 -28.6 -1.35 -28.5 -1.2 -28.45 27.35 -17.65" fill="#adbcd2" fill-rule="evenodd" stroke="none"/>
    <path d="M-35.4 26.55 L-35.45 26.55 -35.55 26.05 -35.4 26.55" fill="#242d33" fill-rule="evenodd" stroke="none"/>
    <path d="M40.6 -26.3 L27.35 -17.65 -1.2 -28.45 -1.7 -42.25 40.6 -26.3 M34.55 16.7 L34.25 16.95 28.05 36.45 18.85 24.65 18.85 24.6 23.0 11.45 23.35 11.25 34.55 16.7" fill="#69a5c6" fill-rule="evenodd" stroke="none"/>
    <path d="M40.6 -26.3 L40.7 -26.25 45.2 7.9 30.4 5.25 30.35 5.15 27.4 -17.65 27.35 -17.65 40.6 -26.3" fill="#6fb8e0" fill-rule="evenodd" stroke="none"/>
    <path d="M30.4 5.25 L45.2 7.9 45.2 8.1 34.55 16.7 23.35 11.25 23.4 11.15 30.45 5.45 30.4 5.25 M28.05 36.45 L28.05 36.5 17.9 42.4 12.0 28.6 18.7 24.75 18.85 24.65 28.05 36.45 M10.9 40.85 L-9.5 41.75 -9.5 41.7 -6.45 28.15 7.6 27.45 10.9 40.85 M-44.75 -17.65 L-45.2 -17.85 -45.2 -17.9 -2.25 -42.5 -1.95 -42.35 -1.7 -42.25 -1.2 -28.45 -1.35 -28.5 -1.5 -28.6 -30.5 -12.05 -30.45 -11.95 -44.75 -17.65" fill="#4799c6" fill-rule="evenodd" stroke="none"/>
    <path d="M-9.5 41.7 L-9.85 41.7 -35.35 26.7 -35.4 26.7 -35.4 26.55 -35.55 26.05 -35.55 26.0 -35.4 26.5 -23.9 17.9 -23.8 17.9 -6.6 28.05 -6.6 28.15 -6.45 28.15 -9.5 41.7" fill="#1b76a8" fill-rule="evenodd" stroke="none"/>
    <path d="M17.9 42.4 L17.75 42.5 11.55 40.8 10.9 40.85 7.6 27.45 7.75 27.45 11.85 28.6 11.9 28.6 12.0 28.6 17.9 42.4 M-35.55 26.05 L-35.55 26.1 -45.2 -17.8 -44.75 -17.65 -30.45 -11.95 -30.4 -11.9 -30.5 -11.9 -23.9 17.9 -35.4 26.5 -35.55 26.0 -35.55 26.05" fill="#0b5b87" fill-rule="evenodd" stroke="none"/>
  </g>
</svg>
