<?xml version="1.0" encoding="UTF-8" standalone="no"?>
<svg xmlns:xlink="http://www.w3.org/1999/xlink" height="298.1px" width="304.9px" xmlns="http://www.w3.org/2000/svg">
  <g transform="matrix(1.0, 0.0, 0.0, 1.0, 167.4, 195.05)">
    <path d="M37.25 -117.7 L-105.7 -28.9 Q-114.45 -46.7 -119.2 -69.5 -128.8 -115.1 -108.95 -140.45 -99.2 -152.9 -55.55 -173.0 -33.7 -183.0 -13.85 -190.55 L-37.95 -148.1 Q-70.15 -153.05 -92.1 -134.0 -72.6 -149.3 -40.8 -146.7 -29.65 -145.85 -18.6 -142.85 -10.0 -140.55 -5.55 -138.25 -37.25 -132.25 -55.6 -123.6 -80.25 -111.95 -98.05 -89.4 -68.85 -123.9 -0.9 -138.55 13.05 -127.45 37.25 -117.7" fill="#62594e" fill-rule="evenodd" stroke="none"/>
    <path d="M37.25 -117.7 L-105.7 -28.9 Q-114.45 -46.7 -119.2 -69.5 -128.8 -115.1 -108.95 -140.45 -99.2 -152.9 -55.55 -173.0 -33.7 -183.0 -13.85 -190.55 L-37.95 -148.1 Q-70.15 -153.05 -92.1 -134.0 -72.6 -149.3 -40.8 -146.7 -29.65 -145.85 -18.6 -142.85 -10.0 -140.55 -5.55 -138.25 -37.25 -132.25 -55.6 -123.6 -80.25 -111.95 -98.05 -89.4 -68.85 -123.9 -0.9 -138.55 13.05 -127.45 37.25 -117.7 Z" fill="none" stroke="#1c1a17" stroke-linecap="round" stroke-linejoin="round" stroke-width="9.0"/>
    <path d="M37.25 -117.7 L-105.7 -28.9 Q-114.45 -46.7 -119.2 -69.5 -128.8 -115.1 -108.95 -140.45 -99.2 -152.9 -55.55 -173.0 -33.7 -183.0 -13.85 -190.55 L-37.95 -148.1 Q-70.15 -153.05 -92.1 -134.0 -72.6 -149.3 -40.8 -146.7 -29.65 -145.85 -18.6 -142.85 -10.0 -140.55 -5.55 -138.25 -37.25 -132.25 -55.6 -123.6 -80.25 -111.95 -98.05 -89.4 -68.85 -123.9 -0.9 -138.55 13.05 -127.45 37.25 -117.7" fill="#62594e" fill-rule="evenodd" stroke="none"/>
    <path d="M-84.25 -146.25 L-87.95 -143.65 Q-92.45 -140.2 -96.4 -136.15 -108.95 -123.2 -110.95 -109.15 -112.95 -95.1 -102.0 -86.1 -96.5 -81.55 -90.6 -79.9 -104.55 -71.05 -119.55 -71.05 -127.35 -109.9 -113.45 -133.85 L-113.4 -133.9 Q-103.05 -143.4 -84.25 -146.25" fill="#ffbf1e" fill-rule="evenodd" stroke="none"/>
    <path d="M-43.3 -157.4 Q-50.0 -164.95 -48.05 -176.2 L-48.1 -176.35 Q-30.3 -184.3 -13.85 -190.55 L-35.7 -151.95 Q-40.05 -153.75 -43.3 -157.4" fill="#ffbf1e" fill-rule="evenodd" stroke="none"/>
    <path d="M-65.45 -126.3 Q-66.4 -121.5 -70.6 -117.8 -74.75 -114.1 -79.65 -113.7 -84.5 -113.3 -87.25 -116.35 -90.0 -119.45 -89.05 -124.25 -88.0 -129.05 -83.85 -132.75 -79.65 -136.45 -74.85 -136.85 -69.95 -137.25 -67.2 -134.15 -64.45 -131.1 -65.45 -126.3" fill="#ffbf1e" fill-rule="evenodd" stroke="none"/>
    <path d="M-52.0 -131.45 Q7.2 -151.45 59.8 -133.4 112.6 -115.4 127.95 -69.95 143.25 -24.5 112.2 21.8 81.3 68.05 22.1 88.05 -37.05 108.0 -89.85 90.0 -142.5 71.95 -157.8 26.5 -173.15 -18.95 -142.25 -65.2 -111.15 -111.5 -52.0 -131.45" fill="#62594e" fill-rule="evenodd" stroke="none"/>
    <path d="M-52.0 -131.45 Q7.2 -151.45 59.8 -133.4 112.6 -115.4 127.95 -69.95 143.25 -24.5 112.2 21.8 81.3 68.05 22.1 88.05 -37.05 108.0 -89.85 90.0 -142.5 71.95 -157.8 26.5 -173.15 -18.95 -142.25 -65.2 -111.15 -111.5 -52.0 -131.45 Z" fill="none" stroke="#1c1a17" stroke-linecap="round" stroke-linejoin="round" stroke-width="9.0"/>
    <path d="M-52.0 -131.45 Q7.2 -151.45 59.8 -133.4 112.6 -115.4 127.95 -69.95 143.25 -24.5 112.2 21.8 81.3 68.05 22.1 88.05 -37.05 108.0 -89.85 90.0 -142.5 71.95 -157.8 26.5 -173.15 -18.95 -142.25 -65.2 -111.15 -111.5 -52.0 -131.45" fill="#413c35" fill-rule="evenodd" stroke="none"/>
  </g>
</svg>
