<?xml version="1.0" encoding="UTF-8" standalone="no"?>
<svg xmlns:xlink="http://www.w3.org/1999/xlink" height="43.7px" width="119.95px" xmlns="http://www.w3.org/2000/svg">
  <g transform="matrix(1.0, 0.0, 0.0, 1.0, 95.85, -5.9)">
    <path d="M10.5 38.5 Q17.85 37.6 24.1 39.7 22.95 41.55 21.35 43.2 15.25 49.6 6.6 49.6 -0.6 49.6 -6.05 45.15 L-5.75 45.4 Q0.8 39.65 10.5 38.5" fill="#bf7926" fill-rule="evenodd" stroke="none"/>
    <path d="M-51.7 22.2 Q-64.45 25.25 -80.2 21.45 -88.65 19.45 -95.4 16.1 L-95.85 16.7 Q-94.3 14.35 -92.05 12.3 -85.0 5.9 -75.0 5.9 -65.05 5.9 -58.05 12.3 -53.25 16.65 -51.7 22.2" fill="#bf7926" fill-rule="evenodd" stroke="none"/>
    <path d="M23.9 15.5 Q19.2 18.1 13.5 19.95 -0.8 24.65 -12.95 21.95 L-13.55 21.8 Q-12.15 16.5 -8.15 12.3 -2.05 5.9 6.6 5.9 15.25 5.9 21.35 12.3 L23.9 15.5" fill="#bf7926" fill-rule="evenodd" stroke="none"/>
  </g>
</svg>
