<?xml version="1.0" encoding="UTF-8" standalone="no"?>
<svg xmlns:xlink="http://www.w3.org/1999/xlink" height="68.15px" width="92.8px" xmlns="http://www.w3.org/2000/svg">
  <g transform="matrix(1.0, 0.0, 0.0, 1.0, 46.4, 30.4)">
    <path d="M-41.55 13.4 Q-43.45 11.45 -43.4 5.45 -43.3 -0.4 -41.55 -2.15 -40.3 -3.4 -34.5 -3.1 L-34.15 -3.95 Q-31.6 -11.75 -26.55 -16.8 -21.3 -22.05 -14.45 -24.75 -7.85 -27.4 -0.25 -27.4 7.35 -27.4 14.0 -24.75 20.8 -22.05 26.05 -16.8 31.1 -11.75 33.7 -3.95 L33.95 -3.05 Q40.2 -3.45 41.55 -2.15 43.3 -0.4 43.4 5.45 43.5 11.45 41.55 13.4 40.25 14.7 35.65 14.6 34.4 20.9 28.3 25.1 24.5 27.8 19.0 29.4 18.05 31.35 13.6 32.8 7.9 34.75 -0.25 34.75 -8.3 34.75 -14.05 32.8 -18.5 31.35 -19.5 29.4 -24.95 27.8 -28.8 25.1 -34.85 20.9 -36.15 14.6 -40.3 14.65 -41.55 13.4 Z" fill="none" stroke="#102c4d" stroke-linecap="round" stroke-linejoin="round" stroke-width="6.0"/>
    <path d="M32.9 -3.0 L26.0 -2.15 26.0 13.4 32.75 14.4 Q39.85 15.05 41.55 13.4 43.45 11.45 43.35 5.45 43.25 -0.4 41.55 -2.15 40.1 -3.55 32.9 -3.0" fill="#137bf0" fill-rule="evenodd" stroke="none"/>
    <path d="M41.9 11.6 Q41.8 5.75 40.05 4.0 38.65 2.6 31.45 3.15 L26.0 3.75 26.0 13.4 32.75 14.4 Q39.85 15.05 41.55 13.4 L41.9 12.95 41.9 11.6" fill="#bf7926" fill-rule="evenodd" stroke="none"/>
    <path d="M-32.9 -3.0 L-26.0 -2.15 -26.0 13.4 -32.75 14.4 Q-39.85 15.05 -41.55 13.4 -43.45 11.45 -43.35 5.45 -43.25 -0.4 -41.55 -2.15 -40.1 -3.55 -32.9 -3.0" fill="#137bf0" fill-rule="evenodd" stroke="none"/>
    <path d="M-41.9 11.6 Q-41.8 5.75 -40.05 4.0 -38.65 2.6 -31.45 3.15 L-26.0 3.75 -26.0 13.4 -32.75 14.4 Q-39.85 15.05 -41.55 13.4 L-41.9 12.95 -41.9 11.6" fill="#bf7926" fill-rule="evenodd" stroke="none"/>
    <path d="M-34.15 -3.95 Q-36.45 3.05 -36.45 11.05 -36.45 19.75 -28.75 25.1 -19.35 31.7 -0.2 31.7 18.95 31.7 28.35 25.1 36.05 19.75 36.05 11.05 36.05 3.05 33.75 -3.95 31.15 -11.75 26.1 -16.8 20.85 -22.05 14.05 -24.75 7.4 -27.4 -0.2 -27.4 -7.8 -27.4 -14.45 -24.75 -21.25 -22.05 -26.5 -16.8 -31.55 -11.75 -34.15 -3.95" fill="#137bf0" fill-rule="evenodd" stroke="none"/>
    <path d="M-34.15 -3.95 Q-36.45 3.05 -36.45 11.05 -36.45 19.75 -28.75 25.1 -19.35 31.7 -0.2 31.7 18.95 31.7 28.35 25.1 36.05 19.75 36.05 11.05 36.05 3.05 33.75 -3.95 31.15 -11.75 26.1 -16.8 20.85 -22.05 14.05 -24.75 7.4 -27.4 -0.2 -27.4 -7.8 -27.4 -14.45 -24.75 -21.25 -22.05 -26.5 -16.8 -31.55 -11.75 -34.15 -3.95 Z" fill="none" stroke="#102c4d" stroke-linecap="round" stroke-linejoin="round" stroke-width="1.0"/>
    <path d="M-14.3 -19.4 Q-11.65 -22.45 -8.55 -24.7 L-12.3 -23.5 Q-19.1 -20.95 -24.35 -15.95 -29.4 -11.1 -32.0 -3.7 -34.3 3.0 -34.3 10.6 -34.3 18.9 -26.6 24.0 -22.5 26.7 -16.55 28.25 -24.25 22.15 -24.25 12.3 -24.25 3.15 -21.95 -4.8 -19.35 -13.65 -14.3 -19.4" fill="#0d5eb8" fill-rule="evenodd" stroke="none"/>
    <path d="M18.25 -20.95 L21.7 -17.9 Q26.75 -12.85 29.35 -5.05 31.65 1.95 31.65 9.95 31.65 18.65 23.95 24.0 L23.85 24.1 Q26.05 19.15 26.05 12.95 26.05 2.25 23.75 -7.05 21.75 -15.1 18.25 -20.95" fill="#ffffff" fill-rule="evenodd" stroke="none"/>
    <path d="M32.35 17.8 Q28.45 23.95 20.5 26.85 L19.4 27.2 19.3 28.25 Q19.3 30.95 13.6 32.8 7.9 34.75 -0.2 34.75 -8.3 34.75 -14.05 32.8 -19.75 30.95 -19.75 28.25 L-19.85 27.25 -20.95 26.85 Q-24.85 25.3 -27.9 22.95 -30.8 20.75 -32.55 18.15 -30.9 17.05 -28.85 16.0 -24.75 13.9 -20.95 13.35 -17.35 12.8 -10.45 15.1 -2.9 17.6 -0.2 17.6 2.65 17.6 10.05 15.05 16.85 12.7 20.5 13.2 24.2 13.75 28.5 15.75 32.15 17.75 32.35 17.8" fill="#a35d0d" fill-rule="evenodd" stroke="none"/>
    <path d="M-19.65 27.15 Q-11.9 22.8 -1.3 22.3 11.5 22.75 19.15 27.25 L19.4 27.45 19.4 27.5 19.35 28.2 Q19.35 30.95 13.6 32.8 7.9 34.75 -0.25 34.75 -8.3 34.75 -14.05 32.8 -19.75 30.95 -19.75 28.2 L-19.9 27.3 -19.65 27.15" fill="#bf7926" fill-rule="evenodd" stroke="none"/>
    <path d="M30.35 26.2 Q28.4 29.4 16.75 27.4 L-0.75 24.55 -17.85 27.2 Q-29.05 29.15 -30.8 26.2 -33.2 22.25 -33.95 16.3 -34.7 9.95 -32.55 7.6 -30.3 5.2 -0.05 5.2 30.1 5.25 32.3 7.6 34.4 9.9 33.6 16.1 32.85 22.05 30.35 26.2 Z" fill="none" stroke="#856301" stroke-linecap="round" stroke-linejoin="round" stroke-width="6.0"/>
    <path d="M30.35 26.2 Q28.4 29.4 16.75 27.4 L-0.75 24.55 -17.85 27.2 Q-29.05 29.15 -30.8 26.2 -33.2 22.25 -33.95 16.3 -34.7 9.95 -32.55 7.6 -30.3 5.2 -0.05 5.2 30.1 5.25 32.3 7.6 34.4 9.9 33.6 16.1 32.85 22.05 30.35 26.2" fill="#ffcc33" fill-rule="evenodd" stroke="none"/>
    <path d="M33.8 13.9 L33.6 16.1 Q32.85 22.05 30.35 26.2 28.4 29.4 16.75 27.4 L-0.75 24.55 -17.85 27.2 Q-29.05 29.15 -30.8 26.2 -33.2 22.25 -33.95 16.3 L-34.1 14.0 -34.4 14.4 -33.8 13.6 Q-31.45 11.2 -0.05 11.2 31.25 11.25 33.55 13.6 L33.8 13.9" fill="#cd960d" fill-rule="evenodd" stroke="none"/>
    <path d="M14.25 23.95 L-0.65 22.3 -15.15 23.9 Q-24.7 25.15 -26.15 23.95 -28.2 22.35 -28.9 19.95 -29.5 17.35 -27.7 16.4 L-0.1 15.4 27.4 16.4 Q29.2 17.3 28.5 19.85 27.9 22.3 25.75 23.95 24.2 25.25 14.25 23.95" fill="#ff0000" fill-rule="evenodd" stroke="none"/>
    <path d="M9.4 23.35 L-0.65 22.3 -2.75 22.45 -0.85 15.4 -0.1 15.4 11.5 15.5 9.4 23.35 M-12.55 23.6 L-10.4 15.45 -7.35 15.45 -9.4 23.2 -12.55 23.6" fill="#ffffff" fill-rule="evenodd" stroke="none"/>
  </g>
</svg>
