<?xml version="1.0" encoding="UTF-8" standalone="no"?>
<svg xmlns:xlink="http://www.w3.org/1999/xlink" height="46.1px" width="25.6px" xmlns="http://www.w3.org/2000/svg">
  <g transform="matrix(1.0, 0.0, 0.0, 1.0, -636.4, -61.05)">
    <path d="M655.2 78.25 Q659.1 80.85 659.15 83.3 659.2 85.6 658.05 86.8 657.05 87.85 657.2 89.05 657.35 90.5 659.5 92.5 661.1 94.1 660.15 98.2 659.1 103.0 655.05 104.75 652.35 105.95 648.9 105.55 645.45 105.2 641.9 103.0 637.2 100.1 638.05 96.35 639.0 91.95 643.2 90.15 647.25 88.35 647.5 86.85 647.85 84.65 645.9 80.25 643.8 75.45 643.7 74.25 643.55 72.45 646.55 70.55 650.0 68.35 650.15 67.85 650.95 66.2 650.4 62.55 L652.05 64.7 Q653.75 67.15 653.65 68.75 653.6 70.0 652.2 71.95 650.9 73.8 651.05 74.85 651.2 75.65 655.2 78.25" fill="#ff9933" fill-rule="evenodd" stroke="none"/>
    <path d="M655.2 78.25 Q659.1 80.85 659.15 83.3 659.2 85.6 658.05 86.8 657.05 87.85 657.2 89.05 657.35 90.5 659.5 92.5 661.1 94.1 660.15 98.2 659.1 103.0 655.05 104.75 652.35 105.95 648.9 105.55 645.45 105.2 641.9 103.0 637.2 100.1 638.05 96.35 639.0 91.95 643.2 90.15 647.25 88.35 647.5 86.85 647.85 84.65 645.9 80.25 643.8 75.45 643.7 74.25 643.55 72.45 646.55 70.55 650.0 68.35 650.15 67.85 650.95 66.2 650.4 62.55 L652.05 64.7 Q653.75 67.15 653.65 68.75 653.6 70.0 652.2 71.95 650.9 73.8 651.05 74.85 651.2 75.65 655.2 78.25 Z" fill="none" stroke="#db6a24" stroke-linecap="round" stroke-linejoin="round" stroke-width="3.0"/>
  </g>
</svg>
