<?xml version="1.0" encoding="UTF-8" standalone="no"?>
<svg xmlns:xlink="http://www.w3.org/1999/xlink" height="47.4px" width="44.1px" xmlns="http://www.w3.org/2000/svg">
  <g transform="matrix(1.0, 0.0, 0.0, 1.0, 22.05, 23.7)">
    <path d="M15.45 -19.85 Q15.7 -19.4 15.35 -18.9 14.5 -17.65 9.85 -16.15 L9.85 -18.25 Q11.75 -19.35 12.2 -20.05 12.7 -20.85 11.75 -21.2 L13.3 -20.8 15.45 -19.85" fill="#002b51" fill-rule="evenodd" stroke="none"/>
    <path d="M3.15 -3.65 L2.8 -3.7 Q2.6 -3.55 2.8 -3.35 L3.1 -3.35 2.8 -3.35 Q2.6 -3.55 2.8 -3.7 L3.15 -3.65 4.65 -3.05 3.1 -3.35 2.65 -3.05 1.75 -3.05 Q1.25 -3.2 1.05 -3.5 0.7 -3.75 0.75 -4.05 L0.05 -4.15 -0.35 -4.25 -1.1 -4.35 -1.2 -4.5 -1.05 -4.85 -0.05 -4.5 0.85 -4.2 1.35 -4.5 2.15 -4.5 2.95 -4.05 3.15 -3.65 M0.75 -4.05 L0.85 -4.2 0.75 -4.05 M-0.3 -0.05 L0.3 -0.1 1.05 0.1 1.7 0.65 1.75 1.1 1.5 1.0 Q1.25 1.1 1.45 1.35 L1.65 1.4 1.45 1.35 Q1.25 1.1 1.5 1.0 L1.75 1.1 3.05 2.1 1.65 1.4 Q1.55 1.6 1.15 1.6 L0.3 1.4 -0.3 0.7 -0.4 0.1 -0.3 -0.05 -0.4 0.1 -1.1 -0.15 -1.4 -0.4 -2.1 -0.65 -2.2 -0.75 -1.95 -1.15 -1.1 -0.5 -0.3 -0.05 M-3.8 3.0 L-3.45 2.65 -2.75 3.55 -2.15 4.15 -1.55 4.25 Q-1.25 4.2 -0.9 4.65 L-0.4 5.4 Q-0.35 5.7 -0.45 5.85 L0.5 7.15 -0.6 6.1 -1.15 6.15 -1.95 5.75 -2.3 4.9 Q-2.5 4.55 -2.25 4.3 L-2.85 3.8 -3.1 3.6 -3.75 3.15 -3.8 3.0 M-0.45 5.85 L-0.65 5.7 Q-0.95 5.7 -0.85 5.95 L-0.6 6.1 -0.85 5.95 Q-0.95 5.7 -0.65 5.7 L-0.45 5.85 M-2.25 4.3 L-2.15 4.15 -2.25 4.3 M-7.5 7.45 L-7.15 8.5 -6.7 9.25 -6.1 9.45 -5.6 10.0 Q-5.25 10.55 -5.3 10.95 -5.3 11.15 -5.45 11.35 L-4.9 12.75 -5.7 11.5 -6.25 11.4 -6.85 10.85 -7.0 9.95 Q-7.15 9.5 -6.85 9.35 L-7.3 8.75 -7.45 8.45 -7.95 7.85 -7.95 7.7 Q-7.9 7.45 -7.5 7.45 M-6.85 9.35 L-6.7 9.25 -6.85 9.35 M-5.45 11.35 L-5.65 11.05 Q-5.9 11.0 -5.85 11.35 L-5.7 11.5 -5.85 11.35 Q-5.9 11.0 -5.65 11.05 L-5.45 11.35 M-13.9 12.55 L-13.85 13.7 -13.6 14.5 -13.8 14.55 -13.6 14.5 Q-13.3 14.55 -13.05 14.85 -12.8 14.95 -12.75 15.55 -12.55 16.15 -12.7 16.45 L-13.0 16.85 -13.05 16.5 -13.3 16.75 -13.2 16.95 -13.3 16.75 -13.05 16.5 -13.0 16.85 -12.8 18.35 -13.2 16.95 Q-13.45 17.0 -13.7 16.7 L-14.2 15.95 -14.15 15.1 -13.8 14.55 -14.05 13.8 -14.15 13.55 -14.5 12.8 -14.4 12.65 -13.9 12.55 M-20.45 17.4 L-20.4 18.55 -20.1 19.35 Q-19.85 19.4 -19.55 19.75 -19.35 19.85 -19.3 20.4 -19.05 21.0 -19.25 21.35 L-19.5 21.7 -19.35 23.2 -19.75 21.85 -20.2 21.55 -20.7 20.85 -20.65 19.95 Q-20.6 19.5 -20.35 19.4 L-20.55 18.7 -20.65 18.4 -21.0 17.7 -20.95 17.5 -20.45 17.4 M-19.5 21.7 L-19.55 21.4 Q-19.8 21.25 -19.85 21.6 L-19.75 21.85 -19.85 21.6 Q-19.8 21.25 -19.55 21.4 L-19.5 21.7 M-20.35 19.4 L-20.1 19.35 -20.35 19.4" fill="#333333" fill-rule="evenodd" stroke="none"/>
    <path d="M-12.6 -22.95 L-16.75 -18.3 -17.7 -18.5 -13.9 -23.05 -12.6 -22.95 M-5.35 -12.7 L12.85 -11.9 11.5 -10.9 -5.65 -11.95 -5.35 -12.7" fill="#480000" fill-rule="evenodd" stroke="none"/>
    <path d="M0.05 -4.15 Q0.15 -3.65 -0.5 -3.8 L-0.65 -3.8 -0.75 -4.05 -1.4 -4.0 -2.0 -4.2 -1.2 -4.5 -1.1 -4.35 -0.35 -4.25 -0.4 -4.2 -0.75 -4.05 -0.4 -4.2 -0.35 -4.25 0.05 -4.15 M-1.05 -4.85 L-0.85 -5.8 -0.1 -5.25 Q0.05 -4.95 -0.05 -4.5 L-1.05 -4.85 M-2.1 -0.65 L-1.4 -0.4 -1.45 -0.35 -1.9 -0.3 -1.45 -0.35 -1.4 -0.4 -1.1 -0.15 Q-1.1 0.35 -1.65 0.0 L-1.8 -0.05 -1.9 -0.3 -2.5 -0.4 -3.0 -0.75 -2.2 -0.75 -2.1 -0.65 M-1.95 -1.15 L-1.5 -2.0 Q-1.0 -1.75 -0.95 -1.25 L-1.1 -0.5 -1.95 -1.15 M-3.45 2.65 L-2.8 2.05 Q-2.45 2.3 -2.5 2.8 L-2.75 3.55 -3.45 2.65 M-2.85 3.8 L-3.5 3.85 -3.65 3.75 -3.65 3.6 -4.2 3.3 -4.55 2.8 -3.8 3.0 -3.75 3.15 -3.1 3.6 -2.85 3.8 M-3.65 3.6 L-3.15 3.65 -3.1 3.6 -3.15 3.65 -3.65 3.6 M-7.5 7.45 L-6.8 7.0 Q-6.45 7.35 -6.7 7.85 -6.75 8.2 -7.15 8.5 L-7.5 7.45 M-7.3 8.75 Q-7.55 9.15 -7.9 8.55 L-8.0 8.5 -7.95 8.35 -8.45 7.9 -8.7 7.3 -7.95 7.7 -7.95 7.85 -7.45 8.45 -7.3 8.75 M-7.95 8.35 L-7.55 8.5 -7.45 8.45 -7.55 8.5 -7.95 8.35 M-13.85 13.7 L-13.9 12.55 -13.15 12.25 Q-12.85 12.7 -13.25 13.15 -13.35 13.5 -13.85 13.7 M-14.4 12.65 L-14.5 12.8 -14.15 13.55 -14.05 13.8 Q-14.4 14.2 -14.6 13.55 L-14.7 13.5 -14.6 13.3 -14.95 12.75 -15.05 12.1 -14.4 12.65 M-14.15 13.55 L-14.25 13.6 -14.6 13.3 -14.25 13.6 -14.15 13.55 M-20.45 17.4 L-19.65 17.15 Q-19.4 17.55 -19.8 18.0 L-20.4 18.55 -20.45 17.4 M-20.55 18.7 Q-20.95 19.05 -21.1 18.4 L-21.2 18.35 -21.1 18.2 -21.5 17.65 -21.55 16.95 -20.95 17.5 -21.0 17.7 -20.65 18.4 -20.55 18.7 M-20.65 18.4 L-20.8 18.45 -21.1 18.2 -20.8 18.45 -20.65 18.4" fill="#ffcc33" fill-rule="evenodd" stroke="none"/>
    <path d="M11.75 -21.2 Q12.7 -20.85 12.2 -20.05 11.75 -19.35 9.85 -18.25 L9.85 -16.15 Q14.5 -17.65 15.35 -18.9 15.7 -19.4 15.45 -19.85 L16.2 -19.1 21.55 -18.4 12.85 -11.9 -5.35 -12.7 -4.95 -14.05 -19.75 -13.05 -15.15 -17.85 -16.75 -18.3 -12.6 -22.95 -0.15 -21.25 5.7 -21.9 11.75 -21.2 M11.5 -10.9 L6.95 -7.5 -6.7 -8.85 -5.65 -11.95 11.5 -10.9 M-13.9 -23.05 L-17.7 -18.5 -19.35 -19.0 -14.9 -23.2 -13.9 -23.05" fill="#000000" fill-rule="evenodd" stroke="none"/>
    <path d="M15.45 -19.85 L13.3 -20.8 11.75 -21.2 5.7 -21.9 -0.15 -21.25 -12.6 -22.95 -13.9 -23.05 -14.9 -23.2 -19.35 -19.0 -17.7 -18.5 -16.75 -18.3 -15.15 -17.85 -19.75 -13.05 -4.95 -14.05 -5.35 -12.7 M12.85 -11.9 L21.55 -18.4 16.2 -19.1 15.45 -19.85 M11.5 -10.9 L12.85 -11.9 M-5.65 -11.95 L-6.7 -8.85 6.95 -7.5 11.5 -10.9 M-5.65 -11.95 L-5.35 -12.7" fill="none" stroke="#1b1b1b" stroke-linecap="round" stroke-linejoin="round" stroke-width="1.0"/>
    <path d="M3.1 -3.35 L2.8 -3.35 Q2.6 -3.55 2.8 -3.7 L3.15 -3.65 2.95 -4.05 2.15 -4.5 1.35 -4.5 0.85 -4.2 0.75 -4.05 Q0.7 -3.75 1.05 -3.5 1.25 -3.2 1.75 -3.05 L2.65 -3.05 3.1 -3.35 4.65 -3.05 3.15 -3.65 M0.75 -4.05 L0.05 -4.15 -0.35 -4.25 -1.1 -4.35 M-1.2 -4.5 L-1.05 -4.85 -0.05 -4.5 0.85 -4.2 M1.75 1.1 L1.7 0.65 1.05 0.1 0.3 -0.1 -0.3 -0.05 -0.4 0.1 -0.3 0.7 0.3 1.4 1.15 1.6 Q1.55 1.6 1.65 1.4 L1.45 1.35 Q1.25 1.1 1.5 1.0 L1.75 1.1 3.05 2.1 1.65 1.4 M-1.4 -0.4 L-2.1 -0.65 M-1.4 -0.4 L-1.1 -0.15 -0.4 0.1 M-2.2 -0.75 L-1.95 -1.15 -1.1 -0.5 -0.3 -0.05 M-3.8 3.0 L-3.45 2.65 -2.75 3.55 -2.15 4.15 -1.55 4.25 Q-1.25 4.2 -0.9 4.65 L-0.4 5.4 Q-0.35 5.7 -0.45 5.85 L0.5 7.15 -0.6 6.1 -1.15 6.15 -1.95 5.75 -2.3 4.9 Q-2.5 4.55 -2.25 4.3 L-2.85 3.8 M-3.75 3.15 L-3.1 3.6 -2.85 3.8 M-2.15 4.15 L-2.25 4.3 M-0.6 6.1 L-0.85 5.95 Q-0.95 5.7 -0.65 5.7 L-0.45 5.85 M-7.5 7.45 L-7.15 8.5 -6.7 9.25 -6.1 9.45 -5.6 10.0 Q-5.25 10.55 -5.3 10.95 -5.3 11.15 -5.45 11.35 L-4.9 12.75 -5.7 11.5 -6.25 11.4 -6.85 10.85 -7.0 9.95 Q-7.15 9.5 -6.85 9.35 L-7.3 8.75 -7.45 8.45 -7.95 7.85 M-7.95 7.7 Q-7.9 7.45 -7.5 7.45 M-5.7 11.5 L-5.85 11.35 Q-5.9 11.0 -5.65 11.05 L-5.45 11.35 M-6.7 9.25 L-6.85 9.35 M-13.9 12.55 L-13.85 13.7 M-13.9 12.55 L-14.4 12.65 M-14.5 12.8 L-14.15 13.55 -14.05 13.8 -13.8 14.55 -13.6 14.5 -13.85 13.7 M-13.0 16.85 L-12.7 16.45 Q-12.55 16.15 -12.75 15.55 -12.8 14.95 -13.05 14.85 -13.3 14.55 -13.6 14.5 M-13.8 14.55 L-14.15 15.1 -14.2 15.95 -13.7 16.7 Q-13.45 17.0 -13.2 16.95 L-13.3 16.75 -13.05 16.5 -13.0 16.85 -12.8 18.35 -13.2 16.95 M-20.45 17.4 L-20.4 18.55 -20.1 19.35 Q-19.85 19.4 -19.55 19.75 -19.35 19.85 -19.3 20.4 -19.05 21.0 -19.25 21.35 L-19.5 21.7 -19.35 23.2 -19.75 21.85 -20.2 21.55 -20.7 20.85 -20.65 19.95 Q-20.6 19.5 -20.35 19.4 L-20.55 18.7 M-20.95 17.5 L-20.45 17.4 M-19.75 21.85 L-19.85 21.6 Q-19.8 21.25 -19.55 21.4 L-19.5 21.7 M-21.0 17.7 L-20.65 18.4 -20.55 18.7 M-20.1 19.35 L-20.35 19.4" fill="none" stroke="#000000" stroke-linecap="round" stroke-linejoin="round" stroke-width="1.0"/>
    <path d="M0.05 -4.15 Q0.15 -3.65 -0.5 -3.8 L-0.65 -3.8 -0.75 -4.05 -1.4 -4.0 -2.0 -4.2 -1.2 -4.5 M-1.05 -4.85 L-0.85 -5.8 -0.1 -5.25 Q0.05 -4.95 -0.05 -4.5 M-0.75 -4.05 L-0.4 -4.2 -0.35 -4.25 M-1.1 -4.35 L-1.2 -4.5 M-2.1 -0.65 L-2.2 -0.75 -3.0 -0.75 -2.5 -0.4 -1.9 -0.3 -1.45 -0.35 -1.4 -0.4 M-1.9 -0.3 L-1.8 -0.05 -1.65 0.0 Q-1.1 0.35 -1.1 -0.15 M-1.95 -1.15 L-1.5 -2.0 Q-1.0 -1.75 -0.95 -1.25 L-1.1 -0.5 M-3.45 2.65 L-2.8 2.05 Q-2.45 2.3 -2.5 2.8 L-2.75 3.55 M-2.85 3.8 L-3.5 3.85 -3.65 3.75 -3.65 3.6 -4.2 3.3 -4.55 2.8 -3.8 3.0 -3.75 3.15 M-3.1 3.6 L-3.15 3.65 -3.65 3.6 M-7.15 8.5 Q-6.75 8.2 -6.7 7.85 -6.45 7.35 -6.8 7.0 L-7.5 7.45 M-7.3 8.75 Q-7.55 9.15 -7.9 8.55 L-8.0 8.5 -7.95 8.35 -8.45 7.9 -8.7 7.3 -7.95 7.7 M-7.45 8.45 L-7.55 8.5 -7.95 8.35 M-7.95 7.85 L-7.95 7.7 M-13.85 13.7 Q-13.35 13.5 -13.25 13.15 -12.85 12.7 -13.15 12.25 L-13.9 12.55 M-14.4 12.65 L-14.5 12.8 M-14.6 13.3 L-14.25 13.6 -14.15 13.55 M-14.4 12.65 L-15.05 12.1 -14.95 12.75 -14.6 13.3 -14.7 13.5 -14.6 13.55 Q-14.4 14.2 -14.05 13.8 M-20.4 18.55 L-19.8 18.0 Q-19.4 17.55 -19.65 17.15 L-20.45 17.4 M-20.55 18.7 Q-20.95 19.05 -21.1 18.4 L-21.2 18.35 -21.1 18.2 -21.5 17.65 -21.55 16.95 -20.95 17.5 -21.0 17.7 M-21.1 18.2 L-20.8 18.45 -20.65 18.4" fill="none" stroke="#856301" stroke-linecap="round" stroke-linejoin="round" stroke-width="1.0"/>
  </g>
</svg>
