<?xml version="1.0" encoding="UTF-8" standalone="no"?>
<svg xmlns:xlink="http://www.w3.org/1999/xlink" height="119.3px" width="55.6px" xmlns="http://www.w3.org/2000/svg">
  <g transform="matrix(1.0, 0.0, 0.0, 1.0, 27.7, 54.9)">
    <path d="M14.7 -49.9 L22.9 -48.25 Q10.75 -18.9 8.9 3.95 7.8 17.4 10.3 26.3 13.6 30.95 16.7 37.0 L19.15 42.15 13.0 47.75 9.7 34.95 Q11.25 46.2 14.15 56.1 L5.65 59.4 2.7 56.15 -4.95 58.8 -9.7 55.75 -15.8 56.25 Q-22.6 44.15 -22.7 28.05 -22.75 13.45 -17.35 -2.45 -12.3 -17.35 -3.6 -30.15 4.95 -42.85 14.7 -49.9" fill="#bf7926" fill-rule="evenodd" stroke="none"/>
    <path d="M14.7 -49.9 Q4.95 -42.85 -3.6 -30.15 -12.3 -17.35 -17.35 -2.45 -22.75 13.45 -22.7 28.05 -22.6 44.15 -15.8 56.25 L-9.7 55.75 -4.95 58.8 2.7 56.15 5.65 59.4 14.15 56.1 Q11.25 46.2 9.7 34.95 L13.0 47.75 19.15 42.15 16.7 37.0 Q13.6 30.95 10.3 26.3 7.8 17.4 8.9 3.95 10.75 -18.9 22.9 -48.25 L14.7 -49.9 Z" fill="none" stroke="#4f025f" stroke-linecap="round" stroke-linejoin="round" stroke-width="10.0"/>
    <path d="M14.7 -49.9 L22.9 -48.25 Q10.75 -18.9 8.9 3.95 7.8 17.4 10.3 26.3 13.6 30.95 16.7 37.0 L19.15 42.15 13.0 47.75 9.7 34.95 Q11.25 46.2 14.15 56.1 L5.65 59.4 2.7 56.15 -4.95 58.8 -9.7 55.75 -15.8 56.25 Q-22.6 44.15 -22.7 28.05 -22.75 13.45 -17.35 -2.45 -12.3 -17.35 -3.6 -30.15 4.95 -42.85 14.7 -49.9" fill="#bf7926" fill-rule="evenodd" stroke="none"/>
    <path d="M14.7 -49.9 L22.9 -48.25 Q10.75 -18.9 8.9 3.95 7.8 17.4 10.3 26.3 L14.5 32.9 9.9 35.65 9.7 34.95 9.8 35.7 10.0 37.05 10.95 42.6 Q12.25 49.55 14.1 55.95 L14.15 56.1 13.2 56.5 12.05 56.95 5.65 59.4 2.7 56.15 -4.95 58.8 -9.7 55.75 -15.8 56.25 Q-22.6 44.15 -22.7 28.05 -22.75 13.45 -17.35 -2.45 -12.3 -17.35 -3.6 -30.15 4.95 -42.85 14.7 -49.9" fill="#bf7926" fill-rule="evenodd" stroke="none"/>
    <path d="M14.7 -49.9 L22.9 -48.25 Q10.75 -18.9 8.9 3.95 7.8 17.4 10.3 26.3 L11.4 27.95 11.4 27.9 11.45 27.95 Q10.15 30.75 8.55 32.6 6.4 29.2 4.75 23.55 4.95 31.55 3.55 39.55 -2.6 34.6 -5.85 27.65 -4.6 36.5 -6.75 45.15 -12.1 40.05 -14.7 32.65 -14.9 40.15 -17.45 45.65 L-21.7 39.35 Q-22.65 34.0 -22.7 28.05 -22.75 13.45 -17.35 -2.45 -12.3 -17.35 -3.6 -30.15 4.95 -42.85 14.7 -49.9" fill="#70381f" fill-rule="evenodd" stroke="none"/>
    <path d="M16.4 -30.75 L17.3 -30.75 Q6.95 -30.85 -1.85 -32.25 5.95 -43.5 14.7 -49.9 L22.9 -48.25 Q19.15 -39.2 16.4 -30.75" fill="#620000" fill-opacity="0.2" fill-rule="evenodd" stroke="none"/>
    <path d="M14.7 -49.9 L22.9 -48.25 Q10.75 -18.9 8.9 3.95 7.8 17.4 10.3 26.3 L12.65 29.85 13.45 29.8 Q-5.0 30.6 -22.1 36.65 -22.65 32.5 -22.7 28.05 -22.75 13.45 -17.35 -2.45 -12.3 -17.35 -3.6 -30.15 4.95 -42.85 14.7 -49.9" fill="#a100b4" fill-rule="evenodd" stroke="none"/>
  </g>
</svg>
