<?xml version="1.0" encoding="UTF-8" standalone="no"?>
<svg xmlns:xlink="http://www.w3.org/1999/xlink" height="122.7px" width="145.8px" xmlns="http://www.w3.org/2000/svg">
  <g transform="matrix(1.0, 0.0, 0.0, 1.0, 72.85, 94.0)">
    <path d="M-7.95 -85.75 Q-6.25 -89.9 3.6 -91.75 13.25 -93.65 16.1 -90.85 18.85 -88.2 37.25 -2.35 L37.4 -1.5 7.9 4.75 7.6 3.4 Q0.5 -30.65 -4.0 -56.15 -8.85 -83.6 -7.95 -85.75 Z" fill="none" stroke="#1c1c1c" stroke-linecap="round" stroke-linejoin="round" stroke-width="3.0"/>
    <path d="M-7.95 -85.75 Q-6.25 -89.9 3.6 -91.75 13.25 -93.65 16.1 -90.85 18.85 -88.2 37.25 -2.35 L37.4 -1.5 7.9 4.75 7.6 3.4 Q0.5 -30.65 -4.0 -56.15 -8.85 -83.6 -7.95 -85.75" fill="#383838" fill-rule="evenodd" stroke="none"/>
    <path d="M3.6 -91.7 L13.85 -92.0 Q19.5 -70.9 34.35 -1.75 L34.5 -0.9 7.9 4.75 7.6 3.4 Q0.55 -30.65 -4.0 -56.15 -8.85 -83.5 -7.95 -85.75 -6.2 -89.9 3.6 -91.7" fill="#5f5f5f" fill-rule="evenodd" stroke="none"/>
    <path d="M-3.85 -80.85 Q-6.15 -76.65 -5.1 -71.7 -4.05 -66.7 -0.25 -63.85 3.65 -60.95 7.95 -61.85 12.3 -62.8 14.6 -67.0 16.95 -71.15 15.9 -76.15 14.85 -81.1 11.0 -84.0 7.2 -86.85 2.85 -85.9 -1.45 -85.0 -3.85 -80.85" fill="#339fff" fill-rule="evenodd" stroke="none"/>
    <path d="M0.0 -77.75 Q-1.3 -75.35 -0.7 -72.45 -0.1 -69.6 2.1 -67.9 4.35 -66.25 6.85 -66.8 9.35 -67.3 10.75 -69.75 12.1 -72.2 11.5 -75.05 10.9 -77.95 8.65 -79.6 6.4 -81.25 3.9 -80.75 1.4 -80.2 0.0 -77.75" fill="#f73600" fill-rule="evenodd" stroke="none"/>
    <path d="M-70.05 -3.05 L-56.1 -3.6 -56.35 -14.1 Q-55.7 -27.4 -50.4 -27.4 -44.65 -27.4 -39.6 -23.6 -36.2 -21.15 -32.75 -16.85 -22.5 -19.45 -7.75 -21.2 16.6 -24.1 41.0 -23.9 L41.05 -23.9 Q48.5 -24.0 53.7 -22.7 57.7 -21.7 59.25 -20.3 61.0 -18.65 61.9 -16.0 65.3 -15.15 68.0 -11.6 71.45 -7.1 71.45 -0.6 71.45 5.85 68.0 10.5 65.5 13.8 62.25 14.7 61.45 18.35 59.25 20.35 57.7 21.85 53.7 22.75 48.5 24.1 41.0 23.95 L41.0 23.9 Q16.55 24.2 -7.75 21.3 -22.65 19.55 -32.95 16.9 -36.3 21.1 -39.6 23.4 -44.65 27.2 -50.4 27.2 -55.7 27.2 -56.35 13.9 L-56.1 3.55 -70.05 3.0 Q-71.35 2.05 -71.35 -0.05 -71.3 -2.2 -70.05 -3.05 Z" fill="none" stroke="#1c1c1c" stroke-linecap="round" stroke-linejoin="round" stroke-width="3.0"/>
    <path d="M51.2 -11.65 Q54.7 -16.3 59.6 -16.3 64.45 -16.3 67.95 -11.65 71.4 -7.1 71.4 -0.6 71.4 5.85 67.95 10.5 64.45 15.05 59.6 15.05 54.7 15.05 51.2 10.5 47.75 5.85 47.75 -0.6 47.75 -7.1 51.2 -11.65" fill="#1c1c1c" fill-rule="evenodd" stroke="none"/>
  </g>
</svg>
