<?xml version="1.0" encoding="UTF-8" standalone="no"?>
<svg xmlns:xlink="http://www.w3.org/1999/xlink" height="382.2px" width="325.95px" xmlns="http://www.w3.org/2000/svg">
  <g transform="matrix(1.0, 0.0, 0.0, 1.0, 176.1, 155.1)">
    <path d="M149.85 -142.75 Q140.8 48.7 115.6 225.4 L-114.2 227.1 Q-141.4 76.15 -176.1 -79.85 L-110.75 -138.25 Q1.85 -169.5 149.85 -142.75" fill="#5fd6ff" fill-opacity="0.49803922" fill-rule="evenodd" stroke="none"/>
    <path d="M141.1 -4.9 L-73.55 168.7 -75.8 138.2 143.7 -39.3 141.1 -4.9 M149.1 -127.4 Q147.25 -91.35 144.85 -55.85 L-77.45 123.95 -77.0 123.55 Q-79.6 92.25 -82.85 60.2 L149.1 -127.4 M-71.2 214.6 L136.6 46.55 135.65 57.0 -70.25 223.5 -70.75 214.25 -71.2 214.6" fill="#ffffff" fill-opacity="0.4509804" fill-rule="evenodd" stroke="none"/>
    <path d="M-108.3 -138.9 Q-78.55 56.75 -70.05 226.8 L-76.3 226.85 Q-84.65 58.35 -114.05 -135.3 L-110.75 -138.25 -108.3 -138.9" fill="#3ea7d4" fill-rule="evenodd" stroke="none"/>
  </g>
</svg>
