<?xml version="1.0" encoding="UTF-8" standalone="no"?>
<svg xmlns:xlink="http://www.w3.org/1999/xlink" height="159.0px" width="159.05px" xmlns="http://www.w3.org/2000/svg">
  <g transform="matrix(1.0, 0.0, 0.0, 1.0, 79.5, 79.5)">
    <path d="M52.6 -52.6 Q30.8 -74.4 0.0 -74.4 -30.8 -74.4 -52.6 -52.6 -74.4 -30.8 -74.4 0.0 -74.4 30.8 -52.6 52.6 -30.8 74.4 0.0 74.4 30.8 74.4 52.6 52.6 74.45 30.8 74.45 0.0 74.45 -30.8 52.6 -52.6 M56.2 -56.2 Q79.55 -32.9 79.55 0.0 79.55 32.9 56.2 56.2 32.9 79.5 0.0 79.5 -32.9 79.5 -56.2 56.2 -79.5 32.9 -79.5 0.0 -79.5 -32.9 -56.2 -56.2 -32.9 -79.5 0.0 -79.5 32.9 -79.5 56.2 -56.2" fill="#ffca19" fill-rule="evenodd" stroke="none"/>
  </g>
</svg>
