<?xml version="1.0" encoding="UTF-8" standalone="no"?>
<svg xmlns:xlink="http://www.w3.org/1999/xlink" height="35.4px" width="31.55px" xmlns="http://www.w3.org/2000/svg">
  <g transform="matrix(1.0, 0.0, 0.0, 1.0, 15.8, 17.7)">
    <path d="M4.05 -11.3 L4.1 -12.55 4.4 -17.0 Q6.9 -16.4 9.0 -14.75 L9.35 -14.45 7.5 -9.9 Q6.25 -10.75 4.75 -11.1 L4.05 -11.3 M9.8 -7.8 L12.65 -10.45 12.85 -10.15 Q13.85 -8.1 14.55 -5.55 L11.9 -3.1 11.8 -3.25 11.65 -4.05 11.8 -3.25 11.9 -3.1 12.0 -2.45 11.7 -2.8 11.15 -3.2 10.75 -3.35 10.2 -3.45 Q9.25 -3.45 8.6 -2.8 8.0 -2.05 8.0 -1.25 8.0 -0.25 8.6 0.35 L9.6 0.95 10.2 1.0 10.9 0.85 11.4 0.65 11.65 0.4 11.7 0.4 11.7 0.35 12.05 -0.15 12.1 -0.25 12.1 -1.0 15.15 -2.55 15.35 0.1 13.75 0.85 14.05 2.2 Q14.05 3.55 13.05 4.9 12.25 5.95 10.85 6.1 L10.2 5.55 10.1 5.2 10.0 5.1 9.1 2.8 9.0 2.5 11.65 2.35 11.5 2.7 11.0 3.85 10.8 3.9 10.85 4.1 10.25 4.95 10.15 5.1 10.75 5.2 Q11.8 5.2 12.4 4.35 13.0 3.4 13.0 2.4 L12.95 1.8 Q12.85 1.35 12.4 1.05 L12.05 0.8 11.95 1.4 11.2 1.75 10.2 1.95 9.35 1.8 Q8.6 1.6 7.9 1.0 7.0 0.1 7.0 -1.25 7.0 -2.5 7.9 -3.45 8.9 -4.4 10.2 -4.4 L11.05 -4.3 11.65 -4.05 11.3 -5.2 10.3 -7.1 10.25 -7.15 9.85 -7.75 9.8 -7.8 M0.9 -0.7 Q0.9 0.55 0.0 1.45 -0.9 2.3 -2.15 2.3 -3.4 2.3 -4.3 1.45 -5.2 0.55 -5.2 -0.7 -5.2 -1.95 -4.3 -2.9 -3.4 -3.75 -2.15 -3.75 -0.9 -3.75 0.0 -2.9 0.9 -1.95 0.9 -0.7 M7.75 -6.75 Q6.45 -5.8 4.65 -3.65 L1.7 -5.95 Q0.0 -7.15 -2.3 -6.9 -4.7 -6.75 -6.5 -5.0 -7.65 -3.8 -7.95 -2.2 -8.2 -4.65 -7.55 -7.8 L-5.75 -9.4 -7.55 -7.8 -7.9 -7.4 -8.5 -6.5 -12.75 -9.1 -11.95 -10.65 -10.65 -12.8 -8.9 -14.3 -5.75 -9.4 Q-4.5 -10.3 -2.85 -10.75 L-2.4 -10.85 -0.45 -11.3 0.2 -11.35 Q4.45 -10.0 7.75 -6.75 M-3.4 4.9 Q-2.7 4.4 -2.45 4.4 -2.2 4.35 -1.6 5.5 L-1.55 5.6 4.15 4.7 6.05 4.7 8.1 6.7 6.8 6.55 Q3.9 6.55 1.85 8.85 -0.1 11.1 -0.1 14.35 -0.1 15.9 0.4 17.2 L-0.65 17.2 -2.9 13.4 Q-3.3 14.6 -4.4 15.6 L-5.0 17.2 -5.1 17.2 -9.2 17.2 -9.15 17.0 Q-7.9 12.0 -4.0 7.05 -2.5 6.0 -1.85 5.7 L-1.65 5.6 -1.6 5.6 -3.4 4.9 M9.9 5.4 L9.9 5.35 10.15 5.55 10.1 5.55 9.9 5.4 M13.45 9.6 L15.4 14.7 14.95 17.0 14.75 17.2 12.65 17.2 12.2 17.2 12.3 17.0 Q12.6 16.45 12.65 17.2 13.05 15.95 13.25 16.1 L13.6 13.55 Q13.8 10.95 13.45 9.6 M-12.4 2.35 L-13.4 2.3 Q-14.2 -1.05 -13.95 -4.0 L-10.0 -2.55 -10.0 0.45 -9.8 1.4 -11.6 1.7 Q-12.1 1.9 -12.4 2.35 M13.75 0.85 L13.05 0.2 13.0 0.15 12.1 -0.15 12.1 -0.25 12.1 -0.15 13.0 0.15 13.05 0.2 13.75 0.85 M10.1 5.2 L10.15 5.1 10.1 5.2 M12.1 -0.15 L12.05 0.8 12.1 -0.15 M10.0 5.1 L10.15 5.1 10.0 5.1 M-3.6 -2.3 Q-4.25 -1.6 -4.25 -0.7 -4.25 0.15 -3.6 0.8 -3.0 1.35 -2.15 1.35 -1.25 1.35 -0.6 0.8 0.0 0.15 0.0 -0.7 0.0 -1.6 -0.6 -2.3 -1.25 -2.85 -2.15 -2.85 -3.0 -2.85 -3.6 -2.3 M-1.85 5.7 L-1.55 5.6 -1.85 5.7 M-1.55 5.6 L-1.6 5.6 -1.55 5.6" fill="#ffc812" fill-rule="evenodd" stroke="none"/>
    <path d="M4.1 -12.55 L1.8 -17.35 2.1 -17.3 4.4 -17.0 4.1 -12.55 M9.8 -7.8 L9.3 -8.5 7.55 -9.9 7.5 -9.9 9.35 -14.45 Q10.45 -13.65 11.4 -12.45 L12.2 -11.25 12.65 -10.45 9.8 -7.8 M11.3 -5.2 L11.65 -4.05 11.05 -4.3 10.2 -4.4 Q8.9 -4.4 7.9 -3.45 7.0 -2.5 7.0 -1.25 7.0 0.1 7.9 1.0 8.6 1.6 9.35 1.8 L10.2 1.95 11.2 1.75 11.95 1.4 11.65 2.35 9.0 2.5 9.1 2.8 Q8.1 2.5 7.25 1.7 6.05 0.5 6.05 -1.15 6.05 -2.85 7.25 -4.1 8.5 -5.3 10.2 -5.3 L11.3 -5.2 M11.9 -3.1 L14.55 -5.55 14.95 -3.85 15.15 -2.55 12.1 -1.0 12.0 -2.45 11.9 -3.1 M0.9 -0.7 Q0.9 -1.95 0.0 -2.9 -0.9 -3.75 -2.15 -3.75 -3.4 -3.75 -4.3 -2.9 -5.2 -1.95 -5.2 -0.7 -5.2 0.55 -4.3 1.45 -3.4 2.3 -2.15 2.3 -0.9 2.3 0.0 1.45 0.9 0.55 0.9 -0.7 M2.0 -0.7 Q2.0 1.0 0.8 2.2 -0.4 3.4 -2.1 3.4 -3.75 3.4 -5.0 2.2 -6.2 1.0 -6.2 -0.7 -6.2 -2.35 -5.0 -3.65 -3.75 -4.85 -2.1 -4.85 -0.4 -4.85 0.8 -3.65 2.0 -2.35 2.0 -0.7 M-2.85 -10.75 Q-4.5 -10.3 -5.75 -9.4 L-8.9 -14.3 Q-7.65 -15.25 -6.1 -15.9 L-2.85 -10.75 M-13.95 -4.0 Q-13.75 -6.7 -12.75 -9.1 L-8.5 -6.5 Q-9.7 -4.7 -10.0 -2.55 L-13.95 -4.0" fill="#e07b00" fill-rule="evenodd" stroke="none"/>
    <path d="M1.8 -17.35 L4.1 -12.55 4.05 -11.3 0.8 -11.4 0.1 -17.3 1.8 -17.35 M-2.4 -10.85 L-2.85 -10.75 -6.1 -15.9 -4.55 -16.45 -2.4 -10.85" fill="#ffa22f" fill-rule="evenodd" stroke="none"/>
    <path d="M0.1 -17.3 L0.8 -11.4 4.05 -11.3 4.75 -11.1 Q6.25 -10.75 7.5 -9.9 L7.55 -9.9 9.3 -8.5 9.8 -7.8 9.85 -7.75 10.25 -7.15 Q9.95 -7.6 9.55 -7.6 8.8 -7.65 7.75 -6.75 4.45 -10.0 0.2 -11.35 L-0.45 -11.3 -2.4 -10.85 -4.55 -16.45 -2.15 -17.05 0.1 -17.3 M0.8 -11.4 L0.2 -11.35 0.8 -11.4 M6.05 4.7 Q7.8 4.75 9.5 5.3 L9.9 5.4 10.1 5.55 10.15 5.55 10.2 5.55 10.85 6.1 11.7 6.85 11.8 6.95 13.2 8.9 13.45 9.6 Q13.8 10.95 13.6 13.55 L13.25 16.1 Q13.05 15.95 12.65 17.2 13.15 10.5 11.65 8.85 10.15 7.1 8.1 6.7 11.45 10.8 10.4 17.0 L10.3 17.2 0.4 17.2 Q-0.1 15.9 -0.1 14.35 -0.1 11.1 1.85 8.85 3.9 6.55 6.8 6.55 L8.1 6.7 6.05 4.7" fill="#ffdd66" fill-rule="evenodd" stroke="none"/>
    <path d="M10.25 -7.15 L10.3 -7.1 11.3 -5.2 10.2 -5.3 Q8.5 -5.3 7.25 -4.1 6.05 -2.85 6.05 -1.15 6.05 0.5 7.25 1.7 8.1 2.5 9.1 2.8 L10.0 5.1 10.1 5.2 9.9 5.35 9.9 5.4 9.5 5.3 Q7.8 4.75 6.05 4.7 L4.15 4.7 -1.55 5.6 -1.6 5.5 Q-2.2 4.35 -2.45 4.4 -2.7 4.4 -3.4 4.9 L-3.65 5.05 Q-4.4 5.6 -5.75 4.5 L-6.2 4.1 -7.45 2.35 Q-8.0 1.15 -8.05 -0.35 L-8.0 -1.9 -7.95 -2.2 Q-7.65 -3.8 -6.5 -5.0 -4.7 -6.75 -2.3 -6.9 0.0 -7.15 1.7 -5.95 L4.65 -3.65 Q6.45 -5.8 7.75 -6.75 8.8 -7.65 9.55 -7.6 9.95 -7.6 10.25 -7.15 M2.0 -0.7 Q2.0 -2.35 0.8 -3.65 -0.4 -4.85 -2.1 -4.85 -3.75 -4.85 -5.0 -3.65 -6.2 -2.35 -6.2 -0.7 -6.2 1.0 -5.0 2.2 -3.75 3.4 -2.1 3.4 -0.4 3.4 0.8 2.2 2.0 1.0 2.0 -0.7" fill="#e79530" fill-rule="evenodd" stroke="none"/>
    <path d="M12.1 -0.25 L12.05 -0.15 11.7 0.35 11.7 0.4 11.65 0.4 11.4 0.65 10.9 0.85 10.2 1.0 9.6 0.95 8.6 0.35 Q8.0 -0.25 8.0 -1.25 8.0 -2.05 8.6 -2.8 9.25 -3.45 10.2 -3.45 L10.75 -3.35 11.15 -3.2 11.7 -2.8 12.0 -2.45 12.1 -1.0 12.1 -0.25 M12.2 17.2 L10.3 17.2 10.4 17.0 Q11.45 10.8 8.1 6.7 10.15 7.1 11.65 8.85 13.15 10.5 12.65 17.2 12.6 16.45 12.3 17.0 L12.2 17.2 M-3.6 -2.3 Q-3.0 -2.85 -2.15 -2.85 -1.25 -2.85 -0.6 -2.3 0.0 -1.6 0.0 -0.7 0.0 0.15 -0.6 0.8 -1.25 1.35 -2.15 1.35 -3.0 1.35 -3.6 0.8 -4.25 0.15 -4.25 -0.7 -4.25 -1.6 -3.6 -2.3" fill="#ffffff" fill-rule="evenodd" stroke="none"/>
    <path d="M-13.4 2.3 L-15.3 2.1 Q-15.7 -1.4 -15.0 -4.4 -14.5 -7.05 -13.2 -9.4 L-12.45 -10.65 -10.65 -12.8 -11.95 -10.65 -12.75 -9.1 Q-13.75 -6.7 -13.95 -4.0 -14.2 -1.05 -13.4 2.3" fill="#c46b00" fill-rule="evenodd" stroke="none"/>
    <path d="M-7.55 -7.8 Q-8.2 -4.65 -7.95 -2.2 L-8.0 -1.9 -8.05 -0.35 Q-8.0 1.15 -7.45 2.35 L-6.2 4.1 -5.75 4.5 Q-4.4 5.6 -3.65 5.05 L-3.4 4.9 -1.6 5.6 -1.65 5.6 -1.85 5.7 Q-2.5 6.0 -4.0 7.05 -7.9 12.0 -9.15 17.0 L-9.2 17.2 -11.5 17.2 -11.35 17.0 Q-8.55 11.25 -7.6 10.35 L-6.4 8.9 -5.8 8.25 Q-6.25 8.35 -6.85 7.5 L-6.95 7.5 -7.85 8.0 Q-9.15 8.75 -10.7 8.35 -12.25 7.85 -12.85 6.45 -13.3 5.0 -13.05 3.85 L-13.0 3.5 -12.4 2.35 Q-12.1 1.9 -11.6 1.7 L-9.8 1.4 -10.0 0.45 -10.0 -2.55 Q-9.7 -4.7 -8.5 -6.5 L-7.9 -7.4 -7.55 -7.8 M-0.65 17.2 L-3.5 17.2 -4.4 15.6 Q-3.3 14.6 -2.9 13.4 L-0.65 17.2 M-5.8 8.25 L-5.45 8.0 -5.45 7.95 -4.0 7.05 -5.45 7.95 -5.45 8.0 -5.8 8.25 M-9.45 7.1 Q-8.3 7.1 -7.6 6.4 L-7.55 6.4 -9.45 2.4 Q-10.55 2.4 -11.1 2.95 -11.7 3.4 -11.7 4.35 -11.7 5.3 -11.1 6.25 -10.55 7.1 -9.45 7.1" fill="#dfad00" fill-rule="evenodd" stroke="none"/>
    <path d="M12.05 0.8 L12.4 1.05 Q12.85 1.35 12.95 1.8 L13.0 2.4 Q13.0 3.4 12.4 4.35 11.8 5.2 10.75 5.2 L10.15 5.1 10.25 4.95 10.85 4.1 11.0 3.85 11.5 2.7 11.65 2.35 11.95 1.4 12.05 0.8 M-9.45 7.1 Q-10.55 7.1 -11.1 6.25 -11.7 5.3 -11.7 4.35 -11.7 3.4 -11.1 2.95 -10.55 2.4 -9.45 2.4 L-7.55 6.4 -7.6 6.4 Q-8.3 7.1 -9.45 7.1" fill="#c4781b" fill-rule="evenodd" stroke="none"/>
    <path d="M1.8 -17.35 L0.1 -17.3 M0.8 -11.4 L4.05 -11.3 M4.4 -17.0 L2.1 -17.3 1.8 -17.35 M9.35 -14.45 L9.0 -14.75 Q6.9 -16.4 4.4 -17.0 M7.5 -9.9 L7.55 -9.9 9.3 -8.5 9.8 -7.8 9.85 -7.75 10.25 -7.15 10.3 -7.1 11.3 -5.2 11.65 -4.05 11.8 -3.25 11.9 -3.1 M12.65 -10.45 L12.2 -11.25 11.4 -12.45 Q10.45 -13.65 9.35 -14.45 M7.5 -9.9 Q6.25 -10.75 4.75 -11.1 L4.05 -11.3 M14.55 -5.55 Q13.85 -8.1 12.85 -10.15 L12.65 -10.45 M0.2 -11.35 L0.8 -11.4 M0.2 -11.35 L-0.45 -11.3 -2.4 -10.85 -2.85 -10.75 Q-4.5 -10.3 -5.75 -9.4 L-7.55 -7.8 M-1.6 5.5 L-1.55 5.6 4.15 4.7 6.05 4.7 Q7.8 4.75 9.5 5.3 L9.9 5.4 9.9 5.35 10.1 5.2 10.0 5.1 M12.0 -2.45 L11.9 -3.1 M15.15 -2.55 L14.95 -3.85 14.55 -5.55 M12.0 -2.45 L12.1 -1.0 12.1 -0.25 12.1 -0.15 13.0 0.15 13.05 0.2 13.75 0.85 14.05 2.2 Q14.05 3.55 13.05 4.9 12.25 5.95 10.85 6.1 L11.7 6.85 11.8 6.95 13.2 8.9 13.45 9.6 15.4 14.7 14.95 17.0 14.75 17.2 M15.15 -2.55 L15.35 0.1 13.75 0.85 M-3.5 17.2 L-4.4 15.6 -5.0 17.2 -5.0 17.35 -5.1 17.2 -5.0 17.2 M-11.5 17.2 L-11.35 17.0 Q-8.55 11.25 -7.6 10.35 L-6.4 8.9 -5.8 8.25 Q-6.25 8.35 -6.85 7.5 L-6.95 7.5 -7.85 8.0 Q-9.15 8.75 -10.7 8.35 -12.25 7.85 -12.85 6.45 -13.3 5.0 -13.05 3.85 L-13.0 3.5 -12.4 2.35 -13.4 2.3 -15.3 2.1 Q-15.7 -1.4 -15.0 -4.4 -14.5 -7.05 -13.2 -9.4 L-12.45 -10.65 -10.65 -12.8 -8.9 -14.3 Q-7.65 -15.25 -6.1 -15.9 L-4.55 -16.45 -2.15 -17.05 0.1 -17.3 M10.15 5.1 L10.1 5.2 10.2 5.55 10.85 6.1 M11.95 1.4 L12.05 0.8 12.1 -0.15 M11.0 3.85 L11.5 2.7 11.65 2.35 11.95 1.4 M10.85 4.1 L11.0 3.85 M10.85 4.1 L10.25 4.95 10.15 5.1 10.0 5.1 M10.15 5.55 L10.2 5.55 M9.9 5.4 L10.1 5.55 10.15 5.55 9.9 5.35 M12.65 17.2 Q13.05 15.95 13.25 16.1 L13.6 13.55 Q13.8 10.95 13.45 9.6 M-10.0 -2.55 Q-9.7 -4.7 -8.5 -6.5 L-7.9 -7.4 -7.55 -7.8 M-1.55 5.6 L-1.85 5.7 Q-2.5 6.0 -4.0 7.05 L-5.45 7.95 -5.45 8.0 -5.8 8.25 M-1.85 5.7 L-1.65 5.6 -1.6 5.6 -1.55 5.6 M-12.4 2.35 Q-12.1 1.9 -11.6 1.7 L-9.8 1.4 -10.0 0.45 -10.0 -2.55 M-2.9 13.4 Q-3.3 14.6 -4.4 15.6" fill="none" stroke="#854901" stroke-linecap="round" stroke-linejoin="round" stroke-width="0.7000000000000001"/>
  </g>
</svg>
