<?xml version="1.0" encoding="UTF-8" standalone="no"?>
<svg xmlns:xlink="http://www.w3.org/1999/xlink" height="82.6px" width="21.3px" xmlns="http://www.w3.org/2000/svg">
  <g transform="matrix(1.0, 0.0, 0.0, 1.0, 0.95, 41.3)">
    <path d="M2.55 37.85 Q0.35 35.6 0.6 -0.6 0.65 -15.1 1.2 -25.95 1.75 -37.55 2.55 -38.35 4.1 -39.9 10.2 -39.8 16.15 -39.75 17.45 -38.35 18.75 -37.05 18.85 -0.4 18.95 36.35 17.45 37.85 15.8 39.5 10.4 39.75 4.75 40.0 2.55 37.85 Z" fill="none" stroke="#416409" stroke-linecap="round" stroke-linejoin="round" stroke-width="3.0"/>
    <path d="M2.55 37.85 Q0.35 35.6 0.6 -0.6 0.65 -15.1 1.2 -25.95 1.75 -37.55 2.55 -38.35 4.1 -39.9 10.2 -39.8 16.15 -39.75 17.45 -38.35 18.75 -37.05 18.85 -0.4 18.95 36.35 17.45 37.85 15.8 39.5 10.4 39.75 4.75 40.0 2.55 37.85" fill="#3f9306" fill-rule="evenodd" stroke="none"/>
    <path d="M2.5 37.85 Q0.3 35.65 0.55 -0.6 0.65 -15.1 1.15 -25.95 1.75 -37.55 2.5 -38.35 4.1 -39.9 10.15 -39.8 L16.25 -39.05 Q16.95 -29.95 17.0 -0.4 17.05 29.5 16.3 38.6 14.35 39.6 10.4 39.8 4.7 40.05 2.5 37.85" fill="#7cb421" fill-rule="evenodd" stroke="none"/>
    <path d="M4.6 32.15 Q2.9 30.2 2.9 27.45 2.9 24.7 4.6 22.75 6.3 20.75 8.7 20.75 11.15 20.75 12.85 22.75 14.55 24.7 14.55 27.45 14.55 30.2 12.85 32.15 11.15 34.1 8.7 34.1 6.3 34.1 4.6 32.15" fill="#339fff" fill-rule="evenodd" stroke="none"/>
    <path d="M6.35 30.15 Q5.35 29.0 5.35 27.4 5.35 25.8 6.35 24.65 7.35 23.5 8.75 23.5 10.15 23.5 11.15 24.65 12.15 25.8 12.15 27.4 12.15 29.0 11.15 30.15 10.15 31.25 8.75 31.25 7.35 31.25 6.35 30.15" fill="#f73600" fill-rule="evenodd" stroke="none"/>
    <path d="M4.6 -32.05 Q2.9 -30.1 2.9 -27.35 2.9 -24.6 4.6 -22.65 6.3 -20.65 8.7 -20.65 11.15 -20.65 12.85 -22.65 14.55 -24.6 14.55 -27.35 14.55 -30.1 12.85 -32.05 11.15 -34.0 8.7 -34.0 6.3 -34.0 4.6 -32.05" fill="#339fff" fill-rule="evenodd" stroke="none"/>
    <path d="M6.35 -30.1 Q5.35 -28.95 5.35 -27.35 5.35 -25.75 6.35 -24.6 7.35 -23.45 8.75 -23.45 10.15 -23.45 11.15 -24.6 12.15 -25.75 12.15 -27.35 12.15 -28.95 11.15 -30.1 10.15 -31.2 8.75 -31.2 7.35 -31.2 6.35 -30.1" fill="#f73600" fill-rule="evenodd" stroke="none"/>
  </g>
</svg>
