<?xml version="1.0" encoding="UTF-8" standalone="no"?>
<svg xmlns:xlink="http://www.w3.org/1999/xlink" height="12.3px" width="16.15px" xmlns="http://www.w3.org/2000/svg">
  <g transform="matrix(1.0, 0.0, 0.0, 1.0, 8.05, 6.15)">
    <path d="M4.7 -0.4 Q6.05 -0.35 7.0 0.45 8.1 1.35 8.1 2.55 8.1 3.75 7.0 4.6 5.95 5.5 4.45 5.5 3.3 5.5 2.35 4.95 1.2 6.15 -0.45 6.15 -2.1 6.15 -3.3 4.95 L-4.15 3.7 Q-4.65 4.15 -5.3 4.15 -6.0 4.15 -6.55 3.6 -7.05 3.1 -7.05 2.4 -7.05 1.7 -6.55 1.15 L-6.15 0.9 -7.15 0.2 Q-8.05 -0.7 -8.05 -2.0 -8.05 -3.3 -7.15 -4.25 -6.2 -5.15 -4.9 -5.15 -3.6 -5.15 -2.7 -4.25 L-2.65 -4.2 -2.1 -4.95 Q-0.85 -6.15 0.85 -6.15 2.55 -6.15 3.75 -4.95 5.0 -3.7 5.0 -2.0 L4.7 -0.4" fill="#ffffff" fill-rule="evenodd" stroke="none"/>
  </g>
</svg>
