<?xml version="1.0" encoding="UTF-8" standalone="no"?>
<svg xmlns:xlink="http://www.w3.org/1999/xlink" height="35.35px" width="29.55px" xmlns="http://www.w3.org/2000/svg">
  <g transform="matrix(1.0, 0.0, 0.0, 1.0, 54.05, 44.3)">
    <path d="M-26.35 -9.95 L-49.05 -35.55 -45.3 -38.7 -25.5 -14.15 -25.5 -9.95 -26.35 -9.95" fill="#999999" fill-rule="evenodd" stroke="none"/>
    <path d="M-26.35 -9.95 L-49.05 -35.55 -45.3 -38.7 -25.5 -14.15" fill="none" stroke="#666666" stroke-linecap="round" stroke-linejoin="round" stroke-width="2.0"/>
    <path d="M-44.1 -38.5 Q-44.25 -36.65 -45.65 -35.45 -47.1 -34.25 -48.95 -34.4 -50.75 -34.5 -51.95 -35.95 -53.15 -37.35 -53.05 -39.2 -52.9 -41.05 -51.45 -42.25 -50.05 -43.45 -48.2 -43.3 -46.35 -43.15 -45.15 -41.75 -43.95 -40.3 -44.1 -38.5" fill="#999999" fill-rule="evenodd" stroke="none"/>
    <path d="M-44.1 -38.5 Q-44.25 -36.65 -45.65 -35.45 -47.1 -34.25 -48.95 -34.4 -50.75 -34.5 -51.95 -35.95 -53.15 -37.35 -53.05 -39.2 -52.9 -41.05 -51.45 -42.25 -50.05 -43.45 -48.2 -43.3 -46.35 -43.15 -45.15 -41.75 -43.95 -40.3 -44.1 -38.5 Z" fill="none" stroke="#666666" stroke-linecap="round" stroke-linejoin="round" stroke-width="2.0"/>
  </g>
</svg>
