<?xml version="1.0" encoding="UTF-8" standalone="no"?>
<svg xmlns:xlink="http://www.w3.org/1999/xlink" height="95.25px" width="117.0px" xmlns="http://www.w3.org/2000/svg">
  <g transform="matrix(1.0, 0.0, 0.0, 1.0, 58.25, 58.3)">
    <path d="M57.25 35.45 L57.25 -56.8 -56.75 -56.8 -56.75 35.45 -49.35 35.45 -49.35 -50.9 50.15 -50.9 50.15 35.45 57.25 35.45 Z" fill="none" stroke="#5d3c16" stroke-linecap="round" stroke-linejoin="round" stroke-width="3.0"/>
    <path d="M-56.75 -51.55 L-49.35 -51.55 -49.35 35.45 -56.75 35.45 -56.75 -51.55 M50.15 -51.55 L57.25 -51.55 57.25 35.45 50.15 35.45 50.15 -51.55" fill="#d0a067" fill-rule="evenodd" stroke="none"/>
    <path d="M-56.6 -2.95 L-56.75 -4.0 -56.75 -10.8 -56.3 -5.5 -55.95 -3.6 -55.5 -1.55 -55.4 -1.2 -55.35 -1.05 -55.35 -0.7 -55.25 0.0 -55.25 0.4 -55.2 0.55 -55.2 1.15 -55.15 1.3 -55.15 1.7 -55.05 1.85 -55.05 2.55 -55.0 2.55 -55.0 2.95 -54.9 3.1 -54.9 3.8 -54.85 4.1 -54.7 5.15 -54.6 5.65 -54.55 5.95 -54.45 6.3 -54.25 10.65 Q-53.5 22.9 -53.0 35.45 L-53.3 35.45 Q-53.9 20.45 -54.9 6.6 L-55.25 4.45 Q-55.5 2.0 -56.0 0.0 L-56.25 -1.2 -56.4 -1.9 -56.6 -2.95 M-54.6 -39.85 L-54.7 -39.7 -54.85 -39.55 -55.05 -37.65 -55.25 -32.95 Q-55.4 -27.8 -55.05 -23.9 L-55.05 -23.65 -54.9 -22.25 -54.6 -20.65 Q-54.15 -30.25 -54.55 -39.7 L-54.6 -39.85 M-54.7 -42.25 L-54.6 -42.25 Q-54.45 -42.25 -54.4 -41.55 L-54.15 -40.3 Q-53.8 -29.9 -54.25 -19.5 L-54.4 -18.8 -54.45 -18.35 Q-54.45 -18.1 -54.55 -18.1 L-54.7 -17.95 -54.75 -17.95 -54.75 -18.1 -54.9 -18.65 -55.0 -19.2 -55.0 -19.5 -55.05 -19.65 -55.15 -19.8 -55.2 -20.15 -55.4 -22.55 Q-55.8 -24.4 -55.8 -27.05 L-55.85 -27.2 -55.85 -27.4 -55.95 -28.6 -55.95 -29.25 Q-55.95 -36.0 -55.05 -41.15 L-55.0 -41.55 -54.85 -41.7 -54.75 -41.85 -54.7 -42.25 M-51.25 -51.95 L-50.8 -51.95 Q-50.95 -37.8 -51.25 -23.75 -51.6 -2.2 -51.55 19.15 L-51.25 35.45 -51.8 35.45 Q-52.3 20.5 -52.05 4.75 L-51.25 -51.95 M-54.05 -51.95 L-53.5 -51.95 -53.5 -15.9 Q-53.55 -10.15 -54.1 -5.5 -54.25 -3.75 -54.45 -4.8 -56.3 -10.65 -56.75 -23.25 L-56.75 -39.55 -56.7 -41.7 -56.7 -41.85 -56.6 -42.25 -56.6 -43.05 -56.55 -43.8 -56.55 -44.0 -56.45 -42.4 -56.45 -41.7 -55.45 -51.95 -54.85 -51.95 -55.0 -50.75 Q-56.0 -43.2 -56.3 -34.55 -56.3 -26.9 -55.95 -19.65 L-55.95 -19.35 -55.85 -19.05 -55.5 -16.55 -55.4 -14.7 -55.35 -14.55 -55.35 -14.2 -55.2 -12.3 -55.15 -11.6 -55.0 -11.1 -54.75 -9.55 -54.55 -8.4 -54.15 -14.2 Q-53.85 -33.4 -54.05 -51.95 M-56.75 -51.95 L-56.4 -51.95 -56.7 -47.55 -56.75 -46.95 -56.75 -51.95 M57.25 13.3 L57.25 17.05 56.85 19.95 55.4 35.45 55.0 35.45 55.95 24.8 57.25 13.3 M53.6 -51.95 L54.05 -51.95 54.4 -38.0 55.2 -10.15 55.6 4.05 Q55.65 12.75 54.85 20.9 L53.4 34.95 53.4 35.45 53.2 35.45 53.25 34.55 53.8 29.0 54.85 15.7 Q55.5 5.85 55.0 -4.4 L54.3 -27.15 53.6 -51.95 M51.7 -51.95 L52.15 -51.95 52.0 -46.1 Q51.85 -38.95 52.15 -31.9 L52.65 -22.9 52.8 -19.15 52.95 -17.35 Q53.65 -13.9 53.8 -9.75 L53.95 -7.45 54.55 3.5 Q54.3 12.3 52.9 20.15 L52.35 23.35 50.75 35.45 50.15 35.45 50.15 32.85 50.45 30.25 52.6 16.85 Q54.15 7.9 53.95 -2.1 L53.85 -3.95 52.45 -21.55 51.65 -33.75 51.55 -42.25 51.7 -51.95" fill="#8a5c28" fill-rule="evenodd" stroke="none"/>
    <path d="M57.35 -50.9 L-56.65 -50.9 -56.65 -56.8 57.35 -56.8 57.35 -50.9" fill="#d0a067" fill-rule="evenodd" stroke="none"/>
    <path d="M33.5 -56.2 L37.45 -56.25 53.95 -56.8 57.35 -56.8 57.35 -56.55 50.1 -56.35 45.1 -56.2 21.35 -55.5 -10.0 -56.8 2.4 -56.8 Q17.35 -56.0 33.5 -56.2 M32.75 -51.7 L57.35 -51.8 57.35 -51.3 46.75 -51.2 Q27.6 -50.95 9.65 -51.7 L-6.85 -52.75 -14.3 -53.2 -51.2 -54.85 -56.65 -55.1 -56.65 -55.4 -24.8 -54.1 1.15 -52.85 32.75 -51.7 M57.35 -54.95 L50.95 -54.85 Q35.6 -54.55 20.15 -54.5 1.5 -54.4 -16.3 -55.2 L-46.85 -56.7 -49.3 -56.8 -44.45 -56.8 -33.8 -56.35 -5.2 -55.2 Q16.3 -54.55 38.5 -55.05 L57.35 -55.35 57.35 -54.95 M-56.65 -53.0 L-31.95 -52.15 -2.65 -51.05 1.45 -50.9 -11.35 -50.9 -12.85 -50.95 -38.9 -52.1 -56.65 -52.8 -56.65 -53.0" fill="#8a5c28" fill-rule="evenodd" stroke="none"/>
  </g>
</svg>
