<?xml version="1.0" encoding="UTF-8" standalone="no"?>
<svg xmlns:xlink="http://www.w3.org/1999/xlink" height="7.95px" width="33.65px" xmlns="http://www.w3.org/2000/svg">
  <g transform="matrix(1.0, 0.0, 0.0, 1.0, 21.25, 1.3)">
    <path d="M7.0 6.0 L2.8 6.65 Q0.35 6.65 -1.4 6.0 -3.15 5.4 -3.15 4.55 -3.15 3.7 -1.4 3.05 0.35 2.45 2.8 2.45 L7.0 3.05 Q8.75 3.7 8.75 4.55 8.75 5.4 7.0 6.0" fill="#ffffff" fill-rule="evenodd" stroke="none"/>
    <path d="M11.15 5.0 L8.25 5.5 5.3 5.0 Q4.1 4.55 4.1 3.85 4.1 3.15 5.3 2.65 L8.25 2.2 11.15 2.65 Q12.4 3.15 12.4 3.85 12.4 4.55 11.15 5.0" fill="#ffffff" fill-rule="evenodd" stroke="none"/>
    <path d="M-13.3 2.45 Q-14.65 3.1 -16.6 3.1 -18.55 3.1 -19.9 2.45 -21.25 1.8 -21.25 0.9 -21.25 0.0 -19.9 -0.65 -18.55 -1.3 -16.6 -1.3 -14.65 -1.3 -13.3 -0.65 -11.95 0.0 -11.95 0.9 -11.95 1.8 -13.3 2.45" fill="#ffffff" fill-rule="evenodd" stroke="none"/>
    <path d="M-10.4 3.95 Q-11.1 4.35 -12.1 4.35 L-13.8 3.95 Q-14.5 3.6 -14.5 3.1 -14.5 2.6 -13.8 2.2 L-12.1 1.85 Q-11.1 1.85 -10.4 2.2 -9.7 2.6 -9.7 3.1 -9.7 3.6 -10.4 3.95" fill="#ffffff" fill-rule="evenodd" stroke="none"/>
    <path d="M-16.7 4.15 Q-17.45 4.65 -18.55 4.65 -19.65 4.65 -20.4 4.15 -21.15 3.7 -21.15 3.05 -21.15 2.4 -20.4 1.9 -19.65 1.45 -18.55 1.45 -17.45 1.45 -16.7 1.9 -15.95 2.4 -15.95 3.05 -15.95 3.7 -16.7 4.15" fill="#ffffff" fill-rule="evenodd" stroke="none"/>
  </g>
</svg>
