<?xml version="1.0" encoding="UTF-8" standalone="no"?>
<svg xmlns:xlink="http://www.w3.org/1999/xlink" height="75.3px" width="368.2px" xmlns="http://www.w3.org/2000/svg">
  <g transform="matrix(1.0, 0.0, 0.0, 1.0, 218.35, -268.05)">
    <path d="M137.25 338.85 Q111.5 334.2 87.0 327.05 L64.95 320.3 Q56.1 317.55 54.4 319.45 52.65 321.35 56.35 325.5 60.0 329.55 52.2 324.25 44.35 318.95 21.95 327.2 10.3 331.45 2.9 331.95 -5.15 332.5 -10.5 328.9 -14.05 326.45 -16.3 323.2 -18.05 320.6 -21.25 319.2 -25.15 317.5 -32.35 321.75 -36.0 323.85 -38.8 326.3 -34.45 322.3 -32.6 318.1 -28.9 309.7 -41.5 308.3 -54.15 306.95 -75.55 310.65 -86.25 312.55 -94.45 314.65 -92.5 312.3 -90.3 308.65 -85.9 301.3 -84.6 295.0 -82.75 286.2 -87.4 280.75 -93.15 273.9 -108.75 272.7 -137.1 270.55 -162.2 297.45 -170.0 305.9 -176.5 316.15 -179.8 321.35 -181.25 321.25 -209.05 328.6 -213.85 336.6 L-211.7 336.6 -211.7 339.3 -200.45 339.3 -200.45 340.95 119.85 340.95 119.85 340.1 137.25 340.1 137.25 338.85" fill="#5fd6ff" fill-rule="evenodd" stroke="none"/>
    <path d="M-213.85 336.6 Q-209.05 328.6 -181.25 321.25 -179.8 321.35 -176.5 316.15 -170.0 305.9 -162.2 297.45 -137.1 270.55 -108.75 272.7 -93.15 273.9 -87.4 280.75 -82.75 286.2 -84.6 295.0 -85.9 301.3 -90.3 308.65 -92.5 312.3 -94.45 314.65 -86.25 312.55 -75.55 310.65 -54.15 306.95 -41.5 308.3 -28.9 309.7 -32.6 318.1 -34.45 322.3 -38.8 326.3 -36.0 323.85 -32.35 321.75 -25.15 317.5 -21.25 319.2 -18.05 320.6 -16.3 323.2 -14.05 326.45 -10.5 328.9 -5.15 332.5 2.9 331.95 10.3 331.45 21.95 327.2 44.35 318.95 52.2 324.25 60.0 329.55 56.35 325.5 52.65 321.35 54.4 319.45 56.1 317.55 64.95 320.3 L87.0 327.05 Q111.5 334.2 137.25 338.85" fill="none" stroke="#ffffff" stroke-linecap="round" stroke-linejoin="round" stroke-width="9.0"/>
    <path d="M-87.4 280.75 Q-93.15 273.9 -108.75 272.7 -137.1 270.55 -162.2 297.45 -170.0 305.9 -176.5 316.15 -179.8 321.35 -181.25 321.25 -216.5 330.6 -214.75 340.95 L149.85 340.95 Q117.5 335.95 87.0 327.05 L64.95 320.3 Q56.1 317.55 54.4 319.45 52.65 321.35 56.35 325.5 60.0 329.55 52.2 324.25 44.35 318.95 21.95 327.2 10.3 331.45 2.9 331.95 -5.15 332.5 -10.5 328.9 -14.05 326.45 -16.3 323.2 -18.05 320.6 -21.25 319.2 -25.15 317.5 -32.35 321.75 -36.0 323.85 -38.8 326.3 -34.45 322.3 -32.6 318.1 -28.9 309.7 -41.5 308.3 -54.15 306.95 -75.55 310.65 -86.25 312.55 -94.45 314.65 -92.5 312.3 -90.3 308.65 -85.9 301.3 -84.6 295.0 -82.75 286.2 -87.4 280.75" fill="#5fd6ff" fill-rule="evenodd" stroke="none"/>
  </g>
</svg>
