<?xml version="1.0" encoding="UTF-8" standalone="no"?>
<svg xmlns:xlink="http://www.w3.org/1999/xlink" height="574.3px" width="314.25px" xmlns="http://www.w3.org/2000/svg">
  <g transform="matrix(1.0, 0.0, 0.0, 1.0, 163.5, 325.3)">
    <path d="M66.45 -313.95 Q72.1 -307.35 73.45 -298.3 74.9 -289.15 71.25 -282.35 68.75 -277.7 64.95 -275.85 L61.85 -274.95 -62.9 -240.5 -65.65 -239.7 -66.25 -239.65 Q-72.3 -238.85 -77.3 -242.65 -79.75 -244.7 -81.25 -247.2 -82.7 -249.8 -83.1 -252.9 -83.95 -259.25 -80.05 -264.1 -77.9 -266.9 -75.0 -268.2 L-73.75 -268.7 51.4 -320.65 53.7 -320.75 Q60.7 -320.6 66.45 -313.95 Z" fill="none" stroke="#606474" stroke-linecap="round" stroke-linejoin="round" stroke-width="9.0"/>
    <path d="M22.0 -308.45 L51.4 -320.65 53.7 -320.75 Q60.7 -320.6 66.45 -313.95 72.1 -307.35 73.45 -298.3 74.9 -289.15 71.25 -282.35 68.75 -277.7 64.95 -275.85 61.2 -296.7 49.85 -294.15 L20.7 -283.7 Q19.4 -287.1 18.85 -290.95 17.35 -301.15 22.0 -308.45 M-81.25 -247.2 Q-82.7 -249.8 -83.1 -252.9 -83.95 -259.25 -80.05 -264.1 -77.9 -266.9 -75.0 -268.2 L-73.75 -268.7 -56.05 -276.05 -56.4 -273.5 Q-56.75 -270.05 -56.2 -266.3 -55.6 -261.8 -53.9 -257.75 L-53.6 -257.1 -81.25 -247.2" fill="#8ab5ff" fill-rule="evenodd" stroke="none"/>
    <path d="M64.95 -275.85 L61.85 -274.95 36.45 -267.9 Q31.65 -269.15 27.45 -273.4 22.95 -277.85 20.7 -283.7 L49.85 -294.15 Q61.2 -296.7 64.95 -275.85 M-44.5 -245.55 L-62.9 -240.5 -65.65 -239.7 -66.25 -239.65 Q-72.3 -238.85 -77.3 -242.65 -79.75 -244.7 -81.25 -247.2 L-53.6 -257.1 -52.55 -255.0 Q-49.95 -250.15 -45.5 -246.3 L-44.5 -245.55" fill="#6d95d9" fill-rule="evenodd" stroke="none"/>
    <path d="M36.45 -267.9 L-44.5 -245.55 -45.5 -246.3 Q-49.95 -250.15 -52.55 -255.0 L-53.6 -257.1 20.7 -283.7 Q22.95 -277.85 27.45 -273.4 31.65 -269.15 36.45 -267.9" fill="#71768c" fill-rule="evenodd" stroke="none"/>
    <path d="M-56.05 -276.05 L22.0 -308.45 Q17.35 -301.15 18.85 -290.95 19.4 -287.1 20.7 -283.7 L-53.6 -257.1 -53.9 -257.75 Q-55.6 -261.8 -56.2 -266.3 -56.75 -270.05 -56.4 -273.5 L-56.05 -276.05" fill="#969bb4" fill-rule="evenodd" stroke="none"/>
    <path d="M45.5 -66.05 L-45.5 -66.05 -58.75 -245.9 -33.75 -273.2 53.95 -268.65 45.5 -66.05" fill="#f73600" fill-rule="evenodd" stroke="none"/>
    <path d="M45.5 -66.05 L-45.5 -66.05 -58.75 -245.9 -33.75 -273.2 53.95 -268.65 45.5 -66.05 Z" fill="none" stroke="#6d1800" stroke-linecap="round" stroke-linejoin="round" stroke-width="9.0"/>
    <path d="M45.5 -66.05 L-45.5 -66.05 -58.75 -245.9 -33.75 -273.2 53.95 -268.65 45.5 -66.05" fill="#f73600" fill-rule="evenodd" stroke="none"/>
    <path d="M-14.2 -261.5 L36.4 -258.9 11.9 -233.25 -14.2 -261.5 M11.25 -219.5 L34.85 -193.65 -11.35 -195.7 11.25 -219.5 M18.0 -226.65 L42.6 -252.55 40.5 -202.25 18.0 -226.65 M37.85 -138.5 L19.45 -154.95 39.3 -172.95 37.85 -138.5 M-10.4 -181.7 L38.0 -180.25 13.65 -160.2 -10.4 -181.7 M33.7 -128.9 L-8.45 -129.6 13.0 -149.15 33.7 -128.9 M9.6 -96.4 L-6.2 -116.75 27.8 -116.75 9.6 -96.4 M-14.7 -136.95 L-17.2 -178.85 7.15 -154.9 Q-3.75 -145.9 -14.7 -136.95 M24.9 -76.7 L16.65 -87.25 36.7 -110.25 35.25 -76.7 24.9 -76.7 M12.4 -76.7 L7.5 -76.7 10.05 -79.65 12.4 -76.7 M-10.95 -76.7 L-12.95 -108.55 2.8 -88.8 -8.05 -76.7 -10.95 -76.7 M-21.95 -255.85 L5.15 -226.2 -18.6 -201.4 -21.95 -255.85" fill="#6d1800" fill-rule="evenodd" stroke="none"/>
    <path d="M-28.95 -196.4 L-21.0 -66.05 -45.5 -66.05 -58.75 -245.9 -33.75 -273.2 -28.95 -196.45 -28.95 -196.4" fill="#ad0303" fill-rule="evenodd" stroke="none"/>
    <path d="M-46.4 -217.25 L-48.3 -200.8 -50.45 -230.55 -46.4 -217.25 M-50.15 -244.75 L-42.1 -253.45 -44.9 -229.85 -50.15 -244.75 M-44.9 -185.2 L-42.5 -204.7 -37.95 -190.05 -44.9 -185.2 M-35.75 -147.45 L-33.95 -160.85 -32.5 -137.1 -35.75 -147.45 M-43.4 -171.7 L-36.85 -176.2 -40.15 -161.3 -43.4 -171.7 M-36.75 -206.75 L-40.85 -218.3 -38.6 -236.65 -36.75 -206.75 M-41.9 -145.35 L-43.15 -133.1 -45.9 -157.45 -41.9 -145.35 M-33.45 -98.05 L-30.65 -107.15 -29.75 -91.9 -33.45 -98.05 M-34.9 -112.5 L-37.4 -104.4 -41.0 -110.15 -34.9 -112.5 M-38.35 -96.6 L-41.0 -89.95 -42.7 -105.1 -38.35 -96.6 M-35.1 -124.35 L-39.15 -122.15 -37.8 -132.45 -35.1 -124.35 M-28.85 -77.9 L-28.55 -73.15 -38.9 -73.15 -39.3 -79.1 -35.75 -90.7 -28.85 -77.9" fill="#6d1800" fill-rule="evenodd" stroke="none"/>
    <path d="M109.9 -105.1 L146.25 -74.4 114.25 195.4 84.35 217.15 109.9 -105.1 84.35 217.15 114.25 195.4 117.4 197.85 114.65 219.75 84.35 241.85 60.65 242.3 52.85 240.95 43.15 240.95 43.15 240.2 43.1 240.2 -16.95 241.25 -17.0 241.25 -17.0 241.95 -17.0 242.6 -26.4 242.6 -34.15 243.95 -63.95 244.5 -127.65 224.05 -130.35 201.85 -126.65 199.45 -159.0 -80.25 -79.85 -108.8 109.9 -105.1 M-63.7 216.35 L-79.85 -108.8 -63.7 216.35 -35.0 216.4 -38.8 132.85 65.05 132.85 60.95 218.45 84.35 217.15 86.2 219.6 61.7 220.85 53.95 216.8 53.35 216.8 53.95 216.8 61.7 220.85 60.95 218.45 53.5 214.4 53.35 216.8 43.85 216.75 43.1 240.2 43.85 216.75 53.35 216.8 53.5 214.4 60.95 218.45 61.7 220.85 86.2 219.6 84.35 217.15 60.95 218.45 65.05 132.85 -38.8 132.85 -30.45 138.9 56.7 138.9 53.5 214.4 56.7 138.9 -30.45 138.9 -38.8 132.85 -35.0 216.4 -27.4 214.3 -27.3 216.7 -17.65 216.75 -17.7 214.35 -17.65 216.75 -27.3 216.7 -27.4 214.3 -35.0 216.4 -34.9 218.65 -27.8 216.7 -27.3 216.7 -26.3 241.45 -26.4 241.45 -26.4 242.6 -26.4 241.45 -26.3 241.45 -27.3 216.7 -27.8 216.7 -34.9 218.65 -35.0 216.4 -63.7 216.35 -63.7 216.4 -65.3 218.8 -34.9 218.8 -34.9 218.65 -33.85 241.55 -34.25 241.55 -34.15 243.95 -34.25 241.55 -33.85 241.55 -34.9 218.65 -34.9 218.8 -65.3 218.8 -63.7 216.4 -63.7 216.35 -126.65 199.45 -63.7 216.35 M-65.3 218.8 L-130.35 201.85 -65.3 218.8 -63.95 244.5 -65.3 218.8 M-16.95 241.25 L-17.65 216.75 -16.95 241.25 M43.95 214.35 L45.9 148.8 -19.6 148.8 -17.7 214.35 -27.4 214.3 -30.45 138.9 -27.4 214.3 -17.7 214.35 -19.6 148.8 45.9 148.8 43.95 214.35 53.5 214.4 43.95 214.35 43.9 214.35 43.85 216.75 43.9 214.35 43.95 214.35 M84.35 241.85 L86.2 219.6 117.4 197.85 86.2 219.6 84.35 241.85 M60.65 242.3 L61.7 220.85 60.65 242.3 M53.35 216.8 L52.35 240.0 52.85 240.0 52.85 240.95 52.85 240.0 52.35 240.0 53.35 216.8" fill="#50505f" fill-rule="evenodd" stroke="none"/>
    <path d="M114.25 195.4 L146.25 -74.4 109.9 -105.1 84.35 217.15 114.25 195.4 117.4 197.85 114.65 219.75 84.35 241.85 60.65 242.3 52.85 240.95 43.15 240.95 43.15 240.2 43.1 240.2 -16.95 241.25 -17.0 241.25 -17.0 241.95 -17.0 242.6 -26.4 242.6 -34.15 243.95 -63.95 244.5 -127.65 224.05 -130.35 201.85 -126.65 199.45 -159.0 -80.25 -79.85 -108.8 109.9 -105.1 M53.35 216.8 L53.95 216.8 61.7 220.85 60.95 218.45 53.5 214.4 53.35 216.8 43.85 216.75 43.1 240.2 M53.5 214.4 L43.95 214.35 43.9 214.35 43.85 216.75 M52.85 240.95 L52.85 240.0 52.35 240.0 53.35 216.8 M61.7 220.85 L86.2 219.6 84.35 217.15 60.95 218.45 65.05 132.85 -38.8 132.85 -30.45 138.9 56.7 138.9 53.5 214.4 M61.7 220.85 L60.65 242.3 M117.4 197.85 L86.2 219.6 84.35 241.85 M-30.45 138.9 L-27.4 214.3 -17.7 214.35 -19.6 148.8 45.9 148.8 43.95 214.35 M-38.8 132.85 L-35.0 216.4 -27.4 214.3 -27.3 216.7 -17.65 216.75 -17.7 214.35 M-35.0 216.4 L-34.9 218.65 -27.8 216.7 -27.3 216.7 -26.3 241.45 -26.4 241.45 -26.4 242.6 M-35.0 216.4 L-63.7 216.35 -63.7 216.4 -65.3 218.8 -34.9 218.8 -34.9 218.65 -33.85 241.55 -34.25 241.55 -34.15 243.95 M-17.65 216.75 L-16.95 241.25 M-65.3 218.8 L-63.95 244.5 M-130.35 201.85 L-65.3 218.8 M-63.7 216.35 L-126.65 199.45 M-79.85 -108.8 L-63.7 216.35" fill="none" stroke="#50505f" stroke-linecap="round" stroke-linejoin="round" stroke-width="9.0"/>
    <path d="M109.9 -105.1 L146.25 -74.4 114.25 195.4 84.35 217.15 109.9 -105.1 M117.4 197.85 L114.65 219.75 84.35 241.85 86.2 219.6 61.7 220.85 60.95 218.45 84.35 217.15 86.2 219.6 117.4 197.85 M-26.4 242.6 L-34.15 243.95 -34.25 241.55 -33.85 241.55 -34.9 218.65 -34.9 218.8 -65.3 218.8 -63.7 216.4 -63.7 216.35 -35.0 216.4 -38.8 132.85 -30.45 138.9 -27.4 214.3 -35.0 216.4 -34.9 218.65 -27.8 216.7 -27.3 216.7 -27.4 214.3 -17.7 214.35 -17.65 216.75 -27.3 216.7 -26.3 241.45 -26.4 241.45 -26.4 242.6 M53.5 214.4 L53.35 216.8 43.85 216.75 43.9 214.35 43.95 214.35 53.5 214.4" fill="#a5c2de" fill-rule="evenodd" stroke="none"/>
    <path d="M109.9 -105.1 L84.35 217.15 60.95 218.45 65.05 132.85 -38.8 132.85 -35.0 216.4 -63.7 216.35 -63.7 216.4 -65.3 218.8 -34.9 218.8 -34.9 218.65 -33.85 241.55 -34.25 241.55 -34.15 243.95 -63.95 244.5 -65.3 218.8 -130.35 201.85 -126.65 199.45 -63.7 216.35 -79.85 -108.8 109.9 -105.1 M84.35 241.85 L60.65 242.3 61.7 220.85 53.95 216.8 53.35 216.8 53.5 214.4 60.95 218.45 61.7 220.85 86.2 219.6 84.35 241.85 M52.85 240.95 L43.15 240.95 43.15 240.2 43.1 240.2 43.85 216.75 53.35 216.8 52.35 240.0 52.85 240.0 52.85 240.95 M-16.95 241.25 L-17.0 241.25 -17.0 241.95 -17.0 242.6 -26.4 242.6 -26.4 241.45 -26.3 241.45 -27.3 216.7 -17.65 216.75 -16.95 241.25 M53.5 214.4 L43.95 214.35 45.9 148.8 -19.6 148.8 -17.7 214.35 -27.4 214.3 -30.45 138.9 56.7 138.9 53.5 214.4" fill="#93a8bb" fill-rule="evenodd" stroke="none"/>
    <path d="M43.1 240.2 L-16.95 241.25 -17.65 216.75 -17.7 214.35 -19.6 148.8 45.9 148.8 43.95 214.35 43.9 214.35 43.85 216.75 43.1 240.2" fill="#4f6377" fill-rule="evenodd" stroke="none"/>
    <path d="M60.65 242.3 L52.85 240.95 52.85 240.0 52.35 240.0 53.35 216.8 53.95 216.8 61.7 220.85 60.65 242.3 M-63.95 244.5 L-127.65 224.05 -130.35 201.85 -65.3 218.8 -63.95 244.5 M-126.65 199.45 L-159.0 -80.25 -79.85 -108.8 -63.7 216.35 -126.65 199.45 M60.95 218.45 L53.5 214.4 56.7 138.9 -30.45 138.9 -38.8 132.85 65.05 132.85 60.95 218.45" fill="#6e859a" fill-rule="evenodd" stroke="none"/>
    <path d="M84.35 217.15 L114.25 195.4 117.4 197.85 86.2 219.6 84.35 217.15 M-35.0 216.4 L-27.4 214.3 -27.3 216.7 -27.8 216.7 -34.9 218.65 -35.0 216.4" fill="#cadbec" fill-rule="evenodd" stroke="none"/>
    <path d="M109.9 -105.1 L146.25 -74.4 114.25 195.4 84.35 217.15 109.9 -105.1 M117.4 197.85 L114.65 219.75 84.35 241.85 86.2 219.6 61.7 220.85 60.95 218.45 84.35 217.15 86.2 219.6 117.4 197.85 M-26.4 242.6 L-34.15 243.95 -34.25 241.55 -33.85 241.55 -34.9 218.65 -34.9 218.8 -65.3 218.8 -63.7 216.4 -63.7 216.35 -35.0 216.4 -38.8 132.85 -30.45 138.9 -27.4 214.3 -17.7 214.35 -17.65 216.75 -27.3 216.7 -27.4 214.3 -35.0 216.4 -34.9 218.65 -27.8 216.7 -27.3 216.7 -26.3 241.45 -26.4 241.45 -26.4 242.6 M43.95 214.35 L53.5 214.4 53.35 216.8 43.85 216.75 43.9 214.35 43.95 214.35" fill="#a5c2de" fill-rule="evenodd" stroke="none"/>
    <path d="M109.9 -105.1 L84.35 217.15 60.95 218.45 65.05 132.85 -38.8 132.85 -35.0 216.4 -63.7 216.35 -63.7 216.4 -65.3 218.8 -34.9 218.8 -34.9 218.65 -33.85 241.55 -34.25 241.55 -34.15 243.95 -63.95 244.5 -65.3 218.8 -130.35 201.85 -126.65 199.45 -63.7 216.35 -79.85 -108.8 109.9 -105.1 M84.35 241.85 L60.65 242.3 61.7 220.85 53.95 216.8 53.35 216.8 53.5 214.4 43.95 214.35 45.9 148.8 -19.6 148.8 -17.7 214.35 -27.4 214.3 -30.45 138.9 56.7 138.9 53.5 214.4 60.95 218.45 61.7 220.85 86.2 219.6 84.35 241.85 M52.85 240.95 L43.15 240.95 43.15 240.2 43.1 240.2 43.85 216.75 53.35 216.8 52.35 240.0 52.85 240.0 52.85 240.95 M-16.95 241.25 L-17.0 241.25 -17.0 241.95 -17.0 242.6 -26.4 242.6 -26.4 241.45 -26.3 241.45 -27.3 216.7 -17.65 216.75 -16.95 241.25" fill="#93a8bb" fill-rule="evenodd" stroke="none"/>
    <path d="M43.1 240.2 L-16.95 241.25 -17.65 216.75 -17.7 214.35 -19.6 148.8 45.9 148.8 43.95 214.35 43.9 214.35 43.85 216.75 43.1 240.2" fill="#4f6377" fill-rule="evenodd" stroke="none"/>
    <path d="M60.65 242.3 L52.85 240.95 52.85 240.0 52.35 240.0 53.35 216.8 53.95 216.8 61.7 220.85 60.65 242.3 M-63.95 244.5 L-127.65 224.05 -130.35 201.85 -65.3 218.8 -63.95 244.5 M-126.65 199.45 L-159.0 -80.25 -79.85 -108.8 -63.7 216.35 -126.65 199.45 M60.95 218.45 L53.5 214.4 56.7 138.9 -30.45 138.9 -38.8 132.85 65.05 132.85 60.95 218.45" fill="#6e859a" fill-rule="evenodd" stroke="none"/>
    <path d="M84.35 217.15 L114.25 195.4 117.4 197.85 86.2 219.6 84.35 217.15 M-35.0 216.4 L-27.4 214.3 -27.3 216.7 -27.8 216.7 -34.9 218.65 -35.0 216.4" fill="#cadbec" fill-rule="evenodd" stroke="none"/>
    <path d="M-37.2 -87.75 L-37.65 -102.2 -9.6 -102.2 -9.1 -87.75 -21.9 -87.75 -20.4 -73.75 -45.4 -73.75 -44.95 -87.75 -37.2 -87.75 M-23.35 115.95 L-23.35 102.0 -1.15 102.0 -1.15 115.95 9.15 115.95 9.15 129.0 -13.05 129.0 -13.05 115.95 -23.35 115.95" fill="#93a8bb" fill-rule="evenodd" stroke="none"/>
    <path d="M-139.25 -50.4 L-140.35 -61.65 -131.9 -63.1 -133.45 -80.5 -114.85 -83.85 -113.45 -66.2 -122.4 -64.7 -122.4 -54.4 -139.25 -50.4 M-95.6 117.05 L-94.2 136.35 -103.65 134.55 -102.05 154.35 -92.7 156.15 -91.15 177.15 -110.35 173.0 -112.1 152.4 -121.05 150.75 -122.75 130.95 -113.8 132.65 -115.45 113.55 -95.6 117.05 M-117.95 209.1 L-95.75 215.7 -95.75 229.75 -85.45 232.75 -85.45 237.65 -107.65 230.55 -107.65 226.15 -117.95 223.1 -117.95 209.1" fill="#4f6377" fill-rule="evenodd" stroke="none"/>
    <path d="M-48.5 101.25 L-28.65 101.25 -28.35 124.2 -48.05 124.2 -48.5 101.25 M43.6 -94.5 L44.95 -74.85 8.15 -74.85 8.15 -94.5 43.6 -94.5" fill="#6e859a" fill-rule="evenodd" stroke="none"/>
    <path d="M106.25 147.45 L117.8 140.85 114.65 161.15 103.15 167.75 106.25 147.45 93.15 154.9 96.95 129.85 109.9 123.2 106.25 147.45" fill="#93a8bb" fill-rule="evenodd" stroke="none"/>
    <path d="M-115.3 -49.5 L-86.5 -57.45 -83.0 -1.25 -109.25 4.1 -115.3 -49.5 M-125.5 -46.75 L-119.05 6.15 -143.2 11.1 -148.9 -40.3 -125.5 -46.75 M-116.4 28.1 L-110.65 75.25 -135.9 76.6 -140.9 32.0 -116.4 28.1 M-106.7 26.55 L-81.5 22.6 -78.2 73.55 -101.25 74.75 -106.7 26.55" fill="#ff9933" fill-rule="evenodd" stroke="none"/>
    <path d="M-97.7 32.05 L-80.45 29.35 -81.0 29.45 -78.2 73.55 -92.95 74.35 -97.7 32.05 M-131.9 37.5 L-115.55 34.9 -110.65 75.25 -127.6 76.2 -131.9 37.5 M-106.3 -44.0 L-86.0 -49.6 -83.0 -1.25 -101.1 2.45 -106.3 -44.0 M-139.95 -34.8 L-124.55 -39.05 -119.05 6.15 -134.95 9.4 -139.95 -34.8" fill="#db6a24" fill-rule="evenodd" stroke="none"/>
    <path d="M55.35 -57.8 L54.4 -3.6 16.55 -3.45 16.0 -58.5 55.35 -57.8 M9.25 -58.6 L10.25 -3.45 -23.8 -3.3 -26.15 -59.2 9.25 -58.6 M10.7 20.2 L11.65 73.3 -20.6 73.25 -22.85 20.65 10.7 20.2 M16.8 20.15 L54.0 19.7 53.15 73.35 17.3 73.3 16.8 20.15 M60.95 19.6 L92.8 19.25 88.0 73.5 58.75 73.4 60.95 19.6 M64.2 -57.65 L99.45 -57.0 94.8 -3.75 61.95 -3.65 64.2 -57.65 M-33.7 -59.3 L-31.2 -3.3 -69.05 -3.15 -71.85 -60.0 -33.7 -59.3 M-67.85 21.15 L-30.15 20.65 -27.8 73.2 -65.3 73.15 -67.85 21.15" fill="#ff9933" fill-rule="evenodd" stroke="none"/>
    <path d="M0.9 -49.75 L1.75 -3.4 -23.8 -3.3 -25.75 -50.2 0.9 -49.75 M63.85 -48.6 L91.05 -48.15 87.2 -3.7 61.95 -3.65 63.85 -48.6 M13.5 -49.55 L47.0 -48.95 46.2 -3.55 16.55 -3.45 16.1 -49.5 13.5 -49.55 M-42.1 -50.45 L-39.95 -3.25 -69.05 -3.15 -71.35 -51.0 -42.1 -50.45" fill="#db6a24" fill-rule="evenodd" stroke="none"/>
    <path d="M16.9 29.2 L44.4 28.85 43.7 73.35 17.3 73.3 16.9 29.2 M60.6 28.7 L83.2 28.4 79.2 73.5 58.75 73.4 60.6 28.7 M1.9 73.3 L-20.6 73.25 -22.45 29.65 1.1 29.35 1.9 73.8 1.9 73.3 M-67.4 30.15 L-39.75 29.85 -37.8 73.2 -65.3 73.15 -67.4 30.15" fill="#db6a24" fill-rule="evenodd" stroke="none"/>
    <path d="M104.85 19.8 L116.8 24.35 111.05 75.2 99.75 73.85 104.85 19.8 M120.5 25.75 L130.2 29.4 125.05 76.85 114.5 75.6 120.5 25.75 M111.9 -55.7 L124.9 -46.8 119.4 1.45 107.0 -3.4 111.9 -55.7 M128.95 -43.95 L137.5 -38.1 132.65 6.7 123.3 3.0 128.95 -43.95" fill="#ff9933" fill-rule="evenodd" stroke="none"/>
    <path d="M127.75 -37.2 L132.3 -34.1 128.1 4.9 123.4 3.0 128.2 -36.9 127.75 -37.2 M104.35 25.65 L111.6 28.4 106.35 74.7 99.8 73.9 104.35 25.65 M119.9 31.5 L124.95 33.4 120.35 76.35 114.55 75.65 119.9 31.5 M111.35 -48.55 L119.65 -42.8 114.85 -0.3 107.05 -3.35 111.35 -48.55" fill="#db6a24" fill-rule="evenodd" stroke="none"/>
  </g>
</svg>
