<?xml version="1.0" encoding="UTF-8" standalone="no"?>
<svg xmlns:xlink="http://www.w3.org/1999/xlink" height="20.35px" width="26.9px" xmlns="http://www.w3.org/2000/svg">
  <g transform="matrix(1.0, 0.0, 0.0, 1.0, 10.25, 10.4)">
    <path d="M9.05 -0.25 L9.05 0.15 14.15 4.4 7.5 4.85 6.35 6.25 Q3.65 8.95 -0.1 8.95 -3.9 8.95 -6.6 6.25 -9.25 3.55 -9.25 -0.25 -9.25 -4.0 -6.6 -6.7 -3.9 -9.4 -0.1 -9.4 3.65 -9.4 6.35 -6.7 9.05 -4.0 9.05 -0.25" fill="#ffffff" fill-rule="evenodd" stroke="none"/>
    <path d="M9.05 -0.25 L9.05 0.15 14.15 4.4 7.5 4.85 6.35 6.25 Q3.65 8.95 -0.1 8.95 -3.9 8.95 -6.6 6.25 -9.25 3.55 -9.25 -0.25 -9.25 -4.0 -6.6 -6.7 -3.9 -9.4 -0.1 -9.4 3.65 -9.4 6.35 -6.7 9.05 -4.0 9.05 -0.25 Z" fill="none" stroke="#000000" stroke-linecap="round" stroke-linejoin="miter" stroke-miterlimit="3.0" stroke-width="2.0"/>
    <path d="M8.0 -0.75 L14.15 4.4 6.25 4.95 Q5.55 1.5 8.0 -0.75" fill="url(#gradient0)" fill-rule="evenodd" stroke="none"/>
    <path d="M9.05 -0.25 Q9.05 3.55 6.35 6.25 3.65 8.95 -0.1 8.95 -3.9 8.95 -6.6 6.25 -9.25 3.55 -9.25 -0.25 -9.25 -4.0 -6.6 -6.7 -3.9 -9.4 -0.1 -9.4 3.65 -9.4 6.35 -6.7 9.05 -4.0 9.05 -0.25" fill="#232222" fill-rule="evenodd" stroke="none"/>
  </g>
  <defs>
    <linearGradient gradientTransform="matrix(-0.0037, -0.0012, 0.0034, -0.0104, 10.25, 3.15)" gradientUnits="userSpaceOnUse" id="gradient0" spreadMethod="pad" x1="-819.2" x2="819.2">
      <stop offset="0.0" stop-color="#ffffff"/>
      <stop offset="0.24705882352941178" stop-color="#ffcc33"/>
      <stop offset="1.0" stop-color="#ff0000"/>
    </linearGradient>
  </defs>
</svg>
