<?xml version="1.0" encoding="UTF-8" standalone="no"?>
<svg xmlns:xlink="http://www.w3.org/1999/xlink" height="236.75px" width="243.4px" xmlns="http://www.w3.org/2000/svg">
  <g transform="matrix(1.0, 0.0, 0.0, 1.0, 127.25, 77.25)">
    <path d="M-122.75 114.1 Q-121.7 130.85 -88.4 142.65 -54.05 155.0 -5.55 155.0 43.0 155.0 77.3 142.65 110.6 130.85 111.6 114.1 L111.65 114.1 111.65 -31.05 -122.75 -31.05 -122.75 114.1" fill="#ffffff" fill-rule="evenodd" stroke="none"/>
    <path d="M-122.75 114.1 Q-121.7 130.85 -88.4 142.65 -54.05 155.0 -5.55 155.0 43.0 155.0 77.3 142.65 110.6 130.85 111.6 114.1 L111.65 114.1 111.65 -31.05 -122.75 -31.05 -122.75 114.1 Z" fill="none" stroke="#3c3c3c" stroke-linecap="round" stroke-linejoin="round" stroke-width="9.0"/>
    <path d="M-95.65 -30.5 Q-95.65 -41.15 -69.25 -48.7 -42.85 -56.15 -5.55 -56.15 31.75 -56.15 58.15 -48.7 84.55 -41.15 84.55 -30.5 84.55 -19.8 58.15 -12.4 31.75 -4.85 -5.55 -4.85 -42.85 -4.85 -69.25 -12.4 -95.65 -19.8 -95.65 -30.5 -95.65 -19.8 -69.25 -12.4 -42.85 -4.85 -5.55 -4.85 31.75 -4.85 58.15 -12.4 84.55 -19.8 84.55 -30.5 84.55 -41.15 58.15 -48.7 31.75 -56.15 -5.55 -56.15 -42.85 -56.15 -69.25 -48.7 -95.65 -41.15 -95.65 -30.5 M-5.55 10.55 Q43.0 10.55 77.35 -1.7 111.65 -13.75 111.65 -31.1 111.65 -48.45 77.35 -60.7 43.0 -72.75 -5.55 -72.75 -54.05 -72.75 -88.4 -60.7 -122.75 -48.45 -122.75 -31.1 -122.75 -13.75 -88.4 -1.7 -54.05 10.55 -5.55 10.55" fill="#ffffff" fill-rule="evenodd" stroke="none"/>
    <path d="M-95.65 -30.5 Q-95.65 -19.8 -69.25 -12.4 -42.85 -4.85 -5.55 -4.85 31.75 -4.85 58.15 -12.4 84.55 -19.8 84.55 -30.5 84.55 -41.15 58.15 -48.7 31.75 -56.15 -5.55 -56.15 -42.85 -56.15 -69.25 -48.7 -95.65 -41.15 -95.65 -30.5 M-5.55 10.55 Q43.0 10.55 77.35 -1.7 111.65 -13.75 111.65 -31.1 111.65 -48.45 77.35 -60.7 43.0 -72.75 -5.55 -72.75 -54.05 -72.75 -88.4 -60.7 -122.75 -48.45 -122.75 -31.1 -122.75 -13.75 -88.4 -1.7 -54.05 10.55 -5.55 10.55" fill="none" stroke="#3c3c3c" stroke-linecap="round" stroke-linejoin="miter" stroke-miterlimit="3.0" stroke-width="9.0"/>
    <path d="M-122.75 114.1 Q-121.7 130.85 -88.4 142.65 -54.05 155.0 -5.55 155.0 43.0 155.0 77.3 142.65 110.6 130.85 111.6 114.1 L111.65 114.1 111.65 -31.05 -122.75 -31.05 -122.75 114.1" fill="#727272" fill-rule="evenodd" stroke="none"/>
    <path d="M-122.85 14.65 L-122.85 69.2 Q-121.8 85.95 -88.4 97.75 -54.0 110.15 -5.4 110.15 43.25 110.15 77.65 97.75 111.0 85.95 112.0 69.2 L112.05 69.2 112.05 14.65 112.0 14.65 Q111.0 31.4 77.65 43.15 43.25 55.55 -5.4 55.55 -54.0 55.55 -88.4 43.15 -121.8 31.4 -122.85 14.65" fill="#959595" fill-rule="evenodd" stroke="none"/>
    <path d="M112.0 14.65 L112.1 14.65 112.1 44.85 112.0 44.85 Q111.0 61.6 77.7 73.4 43.25 85.8 -5.4 85.8 -54.0 85.8 -88.4 73.4 -121.8 61.6 -122.85 44.85 L-122.85 14.65 Q-121.8 31.4 -88.4 43.2 -54.0 55.55 -5.4 55.55 43.25 55.55 77.7 43.2 111.0 31.4 112.0 14.65" fill="#3c3c3c" fill-rule="evenodd" stroke="none"/>
    <path d="M-86.15 44.0 L-86.55 43.85 Q-69.15 49.85 -48.2 52.8 L-48.2 83.0 -63.55 104.7 -76.6 101.55 -78.5 93.4 Q-83.95 70.55 -87.0 68.85 L-87.0 43.7 -86.15 44.0" fill="#4a4545" fill-rule="evenodd" stroke="none"/>
    <path d="M-88.45 39.3 Q-76.75 44.05 -63.45 47.15 L-63.45 109.05 Q-76.75 105.9 -88.45 101.1 L-97.2 97.3 -97.2 35.4 Q-93.1 37.45 -88.45 39.3" fill="#727272" fill-rule="evenodd" stroke="none"/>
    <path d="M75.3 44.0 L75.7 43.85 Q58.3 49.85 37.35 52.8 L37.35 83.0 52.7 104.7 Q59.45 103.3 65.75 101.55 L67.65 93.4 Q73.1 70.55 76.15 68.85 L76.15 43.7 Q75.75 43.8 75.3 44.0" fill="#4a4545" fill-rule="evenodd" stroke="none"/>
    <path d="M86.3 35.4 Q82.25 37.45 77.55 39.3 65.9 44.05 52.55 47.2 L52.55 109.1 Q65.9 105.9 77.55 101.15 L86.3 97.3 86.3 35.4" fill="#727272" fill-rule="evenodd" stroke="none"/>
    <path d="M-122.8 -31.1 L111.65 -31.1 111.65 17.35 Q108.25 32.35 77.7 43.2 43.25 55.5 -5.4 55.5 -54.05 55.5 -88.45 43.2 -121.05 31.65 -122.8 15.35 L-122.8 -31.1" fill="#727272" fill-rule="evenodd" stroke="none"/>
    <path d="M-72.0 -11.6 Q-99.55 -19.35 -99.55 -30.5 -99.55 -41.65 -72.0 -49.5 -44.45 -57.2 -5.6 -57.2 33.35 -57.2 60.95 -49.5 88.5 -41.65 88.5 -30.5 88.5 -19.35 60.95 -11.6 33.35 -3.75 -5.6 -3.75 -44.45 -3.75 -72.0 -11.6" fill="#626262" fill-rule="evenodd" stroke="none"/>
    <path d="M88.45 -30.55 Q88.45 -19.35 60.95 -11.65 43.35 -6.65 21.2 -4.85 L70.35 -46.4 Q88.45 -39.55 88.45 -30.55 M0.6 -57.15 Q24.95 -56.8 44.65 -53.25 L-13.7 -3.9 Q-37.9 -4.45 -57.4 -8.2 L0.6 -57.15 M-99.6 -30.55 Q-99.6 -41.7 -72.05 -49.55 -56.25 -53.95 -36.75 -55.85 L-84.2 -15.75 Q-99.6 -22.2 -99.6 -30.55" fill="#ffcc00" fill-rule="evenodd" stroke="none"/>
    <path d="M-45.45 -42.2 Q-62.0 -37.7 -62.0 -31.4 -62.0 -25.1 -45.45 -20.7 -28.95 -16.25 -5.55 -16.25 17.85 -16.25 34.35 -20.7 50.9 -25.1 50.9 -31.4 50.9 -37.7 34.35 -42.2 17.85 -46.6 -5.55 -46.6 -28.95 -46.6 -45.45 -42.2" fill="#000000" fill-rule="evenodd" stroke="none"/>
    <path d="M-95.65 -30.5 Q-95.65 -41.15 -69.25 -48.7 -42.85 -56.15 -5.55 -56.15 31.75 -56.15 58.15 -48.7 84.55 -41.15 84.55 -30.5 84.55 -19.8 58.15 -12.4 31.75 -4.85 -5.55 -4.85 -42.85 -4.85 -69.25 -12.4 -95.65 -19.8 -95.65 -30.5 M-5.55 10.55 Q43.0 10.55 77.35 -1.7 111.65 -13.75 111.65 -31.1 111.65 -48.45 77.35 -60.7 43.0 -72.75 -5.55 -72.75 -54.05 -72.75 -88.4 -60.7 -122.75 -48.45 -122.75 -31.1 -122.75 -13.75 -88.4 -1.7 -54.05 10.55 -5.55 10.55" fill="#959595" fill-rule="evenodd" stroke="none"/>
    <path d="M-108.9 -32.9 Q-108.9 -18.3 -78.6 -8.2 -48.3 2.1 -5.5 2.1 37.3 2.1 67.65 -8.2 97.9 -18.3 97.9 -32.9 97.9 -47.5 67.65 -57.8 37.3 -67.9 -5.5 -67.9 -48.3 -67.9 -78.6 -57.8 -108.9 -47.5 -108.9 -32.9 M-95.65 -30.5 Q-95.65 -41.15 -69.25 -48.7 -42.85 -56.15 -5.55 -56.15 31.75 -56.15 58.15 -48.7 84.55 -41.15 84.55 -30.5 84.55 -19.8 58.15 -12.4 31.75 -4.85 -5.55 -4.85 -42.85 -4.85 -69.25 -12.4 -95.65 -19.8 -95.65 -30.5" fill="#4a4545" fill-rule="evenodd" stroke="none"/>
    <path d="M111.65 71.95 L111.65 114.05 111.55 114.05 Q110.6 130.8 77.3 142.6 42.95 154.95 -5.55 154.95 -54.1 154.95 -88.45 142.6 -121.7 130.8 -122.8 114.05 L-122.8 69.2 Q-121.75 85.95 -88.35 97.7 -53.95 110.15 -5.4 110.15 43.25 110.15 77.7 97.7 108.25 86.9 111.65 71.95" fill="#727272" fill-rule="evenodd" stroke="none"/>
  </g>
</svg>
