<?xml version="1.0" encoding="UTF-8" standalone="no"?>
<svg xmlns:xlink="http://www.w3.org/1999/xlink" height="174.75px" width="259.8px" xmlns="http://www.w3.org/2000/svg">
  <g transform="matrix(1.0, 0.0, 0.0, 1.0, 129.9, 87.35)">
    <path d="M-22.05 82.3 Q-35.45 80.75 -44.35 78.6 -52.45 76.7 -61.75 73.05 -70.45 69.65 -73.65 68.05 -76.5 66.6 -77.55 65.0 -78.45 63.8 -78.85 61.85 L-79.15 60.05 Q3.1 23.75 48.2 15.95 92.15 8.4 94.35 29.0 94.75 32.7 92.75 41.05 107.1 42.25 115.85 44.1 127.5 46.45 124.95 49.05 123.85 50.15 115.95 50.35 L96.95 51.0 Q66.2 53.25 43.85 66.1 24.9 76.9 7.8 80.75 -7.15 84.05 -22.05 82.3" fill="#4c5f6d" fill-rule="evenodd" stroke="none"/>
    <path d="M-22.05 82.3 Q-35.45 80.75 -44.35 78.6 -52.45 76.7 -61.75 73.05 -70.45 69.65 -73.65 68.05 -76.5 66.6 -77.55 65.0 -78.45 63.8 -78.85 61.85 L-79.15 60.05 Q3.1 23.75 48.2 15.95 92.15 8.4 94.35 29.0 94.75 32.7 92.75 41.05 107.1 42.25 115.85 44.1 127.5 46.45 124.95 49.05 123.85 50.15 115.95 50.35 L96.95 51.0 Q66.2 53.25 43.85 66.1 24.9 76.9 7.8 80.75 -7.15 84.05 -22.05 82.3 Z" fill="none" stroke="#3d4a54" stroke-linecap="round" stroke-linejoin="round" stroke-width="9.0"/>
    <path d="M72.35 -60.6 Q98.85 -35.1 100.9 9.15 101.35 18.5 92.6 24.6 89.9 26.5 86.55 27.8 L83.8 28.75 -84.45 66.15 Q-92.8 67.85 -106.4 67.1 -114.55 66.7 -120.2 62.8 -127.6 57.65 -124.45 49.1 -101.6 -13.65 -62.85 -48.8 -28.25 -80.2 10.3 -82.65 28.1 -83.8 44.1 -78.1 60.1 -72.4 72.35 -60.6" fill="#fff6ec" fill-rule="evenodd" stroke="none"/>
    <path d="M72.35 -60.6 Q98.85 -35.1 100.9 9.15 101.35 18.5 92.6 24.6 89.9 26.5 86.55 27.8 L83.8 28.75 -84.45 66.15 Q-92.8 67.85 -106.4 67.1 -114.55 66.7 -120.2 62.8 -127.6 57.65 -124.45 49.1 -101.6 -13.65 -62.85 -48.8 -28.25 -80.2 10.3 -82.65 28.1 -83.8 44.1 -78.1 60.1 -72.4 72.35 -60.6 Z" fill="none" stroke="#a68d70" stroke-linecap="round" stroke-linejoin="round" stroke-width="9.0"/>
    <path d="M72.35 -60.6 Q98.85 -35.1 100.9 9.15 101.35 18.5 92.6 24.6 89.9 26.5 86.55 27.8 L83.8 28.75 -84.45 66.15 Q-92.8 67.85 -106.4 67.1 -114.55 66.7 -120.2 62.8 -127.6 57.65 -124.45 49.1 -101.6 -13.65 -62.85 -48.8 -28.25 -80.2 10.3 -82.65 28.1 -83.8 44.1 -78.1 60.1 -72.4 72.35 -60.6" fill="#fff6ec" fill-rule="evenodd" stroke="none"/>
    <path d="M86.75 12.7 L91.15 9.9 Q96.85 6.05 100.4 1.85 L100.9 9.15 Q101.35 18.5 92.6 24.6 L92.0 25.05 91.95 26.0 92.0 25.05 90.85 25.75 87.0 27.65 86.55 27.8 83.8 28.75 -72.1 63.45 -72.15 63.45 -84.45 66.15 Q-92.8 67.85 -106.4 67.1 -114.55 66.7 -120.2 62.8 -127.6 57.65 -124.45 49.1 -119.55 35.7 -113.95 23.55 -113.45 26.8 -109.7 30.3 -103.15 36.4 -89.45 39.95 -76.1 43.45 -58.9 43.9 7.1 16.25 45.8 9.55 76.4 4.3 86.75 12.7" fill="#f3dabd" fill-rule="evenodd" stroke="none"/>
    <path d="M-22.05 82.3 Q-35.45 80.75 -44.35 78.6 -52.45 76.7 -61.75 73.05 -70.45 69.65 -73.65 68.05 -76.5 66.6 -77.55 65.0 -78.45 63.8 -78.85 61.85 L-79.15 60.05 Q3.1 23.75 48.2 15.95 92.15 8.4 94.35 29.0 94.75 32.7 92.75 41.05 107.1 42.25 115.85 44.1 127.5 46.45 124.95 49.05 123.85 50.15 115.95 50.35 L96.95 51.0 Q66.2 53.25 43.85 66.1 24.9 76.9 7.8 80.75 -7.15 84.05 -22.05 82.3" fill="#4c5f6d" fill-rule="evenodd" stroke="none"/>
    <path d="M69.75 6.9 L36.45 -19.6 9.1 13.4 -16.15 -1.75 28.75 -55.35 Q58.05 -39.3 82.2 -9.25 L69.75 6.9" fill="#ffc558" fill-rule="evenodd" stroke="none"/>
  </g>
</svg>
