<?xml version="1.0" encoding="UTF-8" standalone="no"?>
<svg xmlns:xlink="http://www.w3.org/1999/xlink" height="147.0px" width="109.05px" xmlns="http://www.w3.org/2000/svg">
  <g transform="matrix(1.0, 0.0, 0.0, 1.0, 55.55, 73.5)">
    <path d="M-47.65 -26.05 Q-47.65 -31.95 -41.05 -36.1 -34.45 -40.25 -25.15 -40.25 -15.85 -40.25 -9.25 -36.1 -2.7 -31.95 -2.7 -26.05 L-2.7 -26.0 -2.65 -26.0 0.75 48.35 Q0.75 56.9 -6.85 62.95 -14.4 69.0 -25.15 69.0 -35.9 69.0 -43.45 62.95 -51.0 56.9 -51.0 48.35 L-50.95 47.2 -51.05 47.2 -47.65 -26.0 -47.65 -26.05" fill="#2e3138" fill-rule="evenodd" stroke="none"/>
    <path d="M-47.65 -26.05 Q-47.65 -31.95 -41.05 -36.1 -34.45 -40.25 -25.15 -40.25 -15.85 -40.25 -9.25 -36.1 -2.7 -31.95 -2.7 -26.05 L-2.7 -26.0 -2.65 -26.0 0.75 48.35 Q0.75 56.9 -6.85 62.95 -14.4 69.0 -25.15 69.0 -35.9 69.0 -43.45 62.95 -51.0 56.9 -51.0 48.35 L-50.95 47.2 -51.05 47.2 -47.65 -26.0 -47.65 -26.05 Z" fill="none" stroke="#2e3138" stroke-linecap="round" stroke-linejoin="round" stroke-width="9.0"/>
    <path d="M0.6 -26.05 Q0.6 -31.95 7.2 -36.1 13.8 -40.25 23.1 -40.25 32.4 -40.25 39.0 -36.1 45.55 -31.95 45.55 -26.05 L45.55 -26.0 45.6 -26.0 49.0 48.35 Q49.0 56.9 41.4 62.95 33.85 69.0 23.1 69.0 12.35 69.0 4.8 62.95 -2.75 56.9 -2.75 48.35 L-2.7 47.2 -2.8 47.2 0.6 -26.0 0.6 -26.05" fill="#2e3138" fill-rule="evenodd" stroke="none"/>
    <path d="M0.6 -26.05 Q0.6 -31.95 7.2 -36.1 13.8 -40.25 23.1 -40.25 32.4 -40.25 39.0 -36.1 45.55 -31.95 45.55 -26.05 L45.55 -26.0 45.6 -26.0 49.0 48.35 Q49.0 56.9 41.4 62.95 33.85 69.0 23.1 69.0 12.35 69.0 4.8 62.95 -2.75 56.9 -2.75 48.35 L-2.7 47.2 -2.8 47.2 0.6 -26.0 0.6 -26.05 Z" fill="none" stroke="#2e3138" stroke-linecap="round" stroke-linejoin="round" stroke-width="9.0"/>
    <path d="M-23.5 -54.8 Q-23.5 -60.7 -16.9 -64.85 -10.3 -69.0 -1.0 -69.0 8.3 -69.0 14.9 -64.85 21.45 -60.7 21.45 -54.8 L21.45 -54.75 21.5 -54.75 24.9 19.6 Q24.9 28.15 17.3 34.2 9.75 40.25 -1.0 40.25 -11.75 40.25 -19.3 34.2 -26.85 28.15 -26.85 19.6 L-26.8 18.45 -26.9 18.45 -23.5 -54.75 -23.5 -54.8" fill="#2e3138" fill-rule="evenodd" stroke="none"/>
    <path d="M-23.5 -54.8 Q-23.5 -60.7 -16.9 -64.85 -10.3 -69.0 -1.0 -69.0 8.3 -69.0 14.9 -64.85 21.45 -60.7 21.45 -54.8 L21.45 -54.75 21.5 -54.75 24.9 19.6 Q24.9 28.15 17.3 34.2 9.75 40.25 -1.0 40.25 -11.75 40.25 -19.3 34.2 -26.85 28.15 -26.85 19.6 L-26.8 18.45 -26.9 18.45 -23.5 -54.75 -23.5 -54.8 Z" fill="none" stroke="#2e3138" stroke-linecap="round" stroke-linejoin="round" stroke-width="9.0"/>
    <path d="M21.5 -54.75 L24.9 19.6 Q24.9 28.15 17.3 34.2 9.75 40.25 -1.0 40.25 -11.75 40.25 -19.3 34.2 -26.85 28.15 -26.85 19.6 L-26.8 18.45 -26.9 18.45 -23.5 -54.75 21.5 -54.75" fill="#7987a1" fill-rule="evenodd" stroke="none"/>
    <path d="M-16.1 -54.75 L-19.6 34.0 Q-22.85 31.3 -24.65 28.2 L-21.35 -54.75 -16.1 -54.75 M-0.6 -54.75 L-4.35 40.1 Q-11.4 39.45 -16.9 35.95 L-13.35 -54.75 -0.6 -54.75" fill="#ffffff" fill-opacity="0.4" fill-rule="evenodd" stroke="none"/>
    <path d="M21.4 -54.8 Q21.4 -48.95 14.85 -44.8 8.25 -40.65 -1.05 -40.65 -10.35 -40.65 -16.95 -44.8 -23.5 -48.95 -23.5 -54.8 -23.5 -60.65 -16.95 -64.8 -10.35 -68.95 -1.05 -68.95 8.25 -68.95 14.85 -64.8 21.4 -60.65 21.4 -54.8" fill="#a3acbe" fill-rule="evenodd" stroke="none"/>
    <path d="M14.55 -55.95 Q14.55 -52.4 10.0 -49.9 5.45 -47.35 -1.0 -47.35 -7.45 -47.35 -12.0 -49.9 -16.55 -52.4 -16.55 -55.95 -16.55 -59.5 -12.0 -62.05 -7.45 -64.55 -1.0 -64.55 5.45 -64.55 10.0 -62.05 14.55 -59.5 14.55 -55.95" fill="#2e3138" fill-rule="evenodd" stroke="none"/>
    <path d="M-2.65 -26.0 L0.75 48.35 Q0.75 56.9 -6.85 62.95 -14.4 69.0 -25.15 69.0 -35.9 69.0 -43.45 62.95 -51.0 56.9 -51.0 48.35 L-50.95 47.2 -51.05 47.2 -47.65 -26.0 -2.65 -26.0" fill="#7987a1" fill-rule="evenodd" stroke="none"/>
    <path d="M45.6 -26.0 L49.0 48.35 Q49.0 56.9 41.4 62.95 33.85 69.0 23.1 69.0 12.35 69.0 4.8 62.95 -2.75 56.9 -2.75 48.35 L-2.7 47.2 -2.8 47.2 0.6 -26.0 45.6 -26.0" fill="#7987a1" fill-rule="evenodd" stroke="none"/>
    <path d="M8.05 -26.0 L4.55 62.75 Q1.3 60.05 -0.5 56.95 L2.8 -26.0 8.05 -26.0 M23.55 -26.0 L19.8 68.85 Q12.75 68.2 7.25 64.7 L10.8 -26.0 23.55 -26.0" fill="#ffffff" fill-opacity="0.4" fill-rule="evenodd" stroke="none"/>
    <path d="M45.55 -26.1 Q45.55 -20.25 39.0 -16.1 32.4 -11.95 23.1 -11.95 13.8 -11.95 7.2 -16.1 0.65 -20.25 0.65 -26.1 0.65 -31.95 7.2 -36.1 13.8 -40.25 23.1 -40.25 32.4 -40.25 39.0 -36.1 45.55 -31.95 45.55 -26.1" fill="#a3acbe" fill-rule="evenodd" stroke="none"/>
    <path d="M38.65 -27.2 Q38.65 -23.65 34.1 -21.15 29.55 -18.6 23.1 -18.6 16.65 -18.6 12.1 -21.15 7.55 -23.65 7.55 -27.2 7.55 -30.75 12.1 -33.3 16.65 -35.8 23.1 -35.8 29.55 -35.8 34.1 -33.3 38.65 -30.75 38.65 -27.2" fill="#2e3138" fill-rule="evenodd" stroke="none"/>
    <path d="M-40.2 -26.0 L-43.7 62.75 Q-46.95 60.05 -48.75 56.95 L-45.45 -26.0 -40.2 -26.0 M-24.7 -26.0 L-28.45 68.85 Q-35.5 68.2 -41.0 64.7 L-37.45 -26.0 -24.7 -26.0" fill="#ffffff" fill-opacity="0.4" fill-rule="evenodd" stroke="none"/>
    <path d="M-2.6 -26.1 Q-2.6 -20.25 -9.15 -16.1 -15.75 -11.95 -25.05 -11.95 -34.35 -11.95 -40.95 -16.1 -47.5 -20.25 -47.5 -26.1 -47.5 -31.95 -40.95 -36.1 -34.35 -40.25 -25.05 -40.25 -15.75 -40.25 -9.15 -36.1 -2.6 -31.95 -2.6 -26.1" fill="#a3acbe" fill-rule="evenodd" stroke="none"/>
    <path d="M-9.6 -27.2 Q-9.6 -23.65 -14.15 -21.15 -18.7 -18.6 -25.15 -18.6 -31.6 -18.6 -36.15 -21.15 -40.7 -23.65 -40.7 -27.2 -40.7 -30.75 -36.15 -33.3 -31.6 -35.8 -25.15 -35.8 -18.7 -35.8 -14.15 -33.3 -9.6 -30.75 -9.6 -27.2" fill="#2e3138" fill-rule="evenodd" stroke="none"/>
  </g>
</svg>
