<?xml version="1.0" encoding="UTF-8" standalone="no"?>
<svg xmlns:xlink="http://www.w3.org/1999/xlink" height="37.45px" width="45.7px" xmlns="http://www.w3.org/2000/svg">
  <g transform="matrix(1.0, 0.0, 0.0, 1.0, 135.25, -87.9)">
    <path d="M-114.75 87.95 Q-110.8 88.3 -105.4 90.3 -100.1 92.3 -95.05 95.1 L-95.1 95.1 -89.55 98.45 -102.3 110.4 Q-103.85 107.8 -105.7 105.35 L-107.4 103.25 -107.75 102.85 -107.8 102.8 -108.15 102.45 Q-109.85 100.85 -110.65 101.45 -111.95 102.4 -108.55 113.0 L-105.1 122.85 -120.95 112.0 Q-120.95 111.95 -127.7 106.35 -126.6 97.5 -125.35 93.85 -123.05 87.3 -114.8 87.95 L-114.75 87.95 M-105.9 124.4 L-105.45 123.5 -105.85 124.35 -105.9 124.4 M-135.25 124.35 L-131.6 125.35 -131.65 125.35 -135.25 124.35" fill="#f73600" fill-rule="evenodd" stroke="none"/>
  </g>
</svg>
