<?xml version="1.0" encoding="UTF-8" standalone="no"?>
<svg xmlns:xlink="http://www.w3.org/1999/xlink" height="44.1px" width="21.1px" xmlns="http://www.w3.org/2000/svg">
  <g transform="matrix(1.0, 0.0, 0.0, 1.0, 10.5, 0.0)">
    <path d="M-8.85 24.35 Q-14.7 0.0 -0.05 0.0 14.75 0.0 8.95 24.35 8.15 27.55 6.95 29.8 6.2 31.3 5.05 32.5 3.7 33.85 2.25 34.5 L0.1 34.9 -2.05 34.5 Q-3.55 33.85 -4.85 32.5 L-6.85 29.75 Q-8.15 27.5 -8.85 24.35" fill="#f74400" fill-rule="evenodd" stroke="none"/>
    <path d="M-1.7 35.05 Q-2.25 35.65 -3.05 35.65 -3.85 35.65 -4.45 35.05 -5.0 34.5 -5.0 33.7 -5.0 32.95 -4.45 32.35 -3.85 31.8 -3.05 31.8 -2.25 31.8 -1.7 32.35 -1.1 32.95 -1.1 33.75 -1.1 34.5 -1.7 35.05" fill="#f74400" fill-rule="evenodd" stroke="none"/>
    <path d="M0.95 36.55 Q0.3 37.2 -0.55 37.2 -1.4 37.2 -2.05 36.55 -2.65 35.95 -2.65 35.1 -2.65 34.25 -2.05 33.6 -1.4 32.95 -0.55 32.95 0.3 32.95 0.95 33.6 1.6 34.25 1.6 35.1 1.6 35.95 0.95 36.55" fill="#f74400" fill-rule="evenodd" stroke="none"/>
    <path d="M3.7 35.1 Q3.25 35.6 2.6 35.6 1.95 35.6 1.5 35.1 1.05 34.65 1.05 34.0 1.05 33.35 1.5 32.9 1.95 32.45 2.6 32.45 3.25 32.45 3.7 32.9 4.2 33.35 4.2 34.0 4.2 34.65 3.7 35.1" fill="#f74400" fill-rule="evenodd" stroke="none"/>
    <path d="M-1.85 38.35 Q-2.55 38.35 -3.05 37.85 -3.55 37.35 -3.55 36.6 -3.55 35.9 -3.05 35.4 -2.55 34.9 -1.85 34.9 -1.1 34.9 -0.6 35.4 -0.1 35.9 -0.1 36.65 -0.1 37.35 -0.6 37.85 -1.1 38.35 -1.85 38.35" fill="#f74400" fill-rule="evenodd" stroke="none"/>
    <path d="M3.2 38.3 Q3.2 39.05 2.65 39.6 2.1 40.15 1.35 40.15 0.6 40.15 0.05 39.6 -0.5 39.05 -0.5 38.3 -0.5 37.55 0.05 37.0 0.6 36.45 1.35 36.45 2.1 36.45 2.65 37.0 3.2 37.55 3.2 38.3" fill="#f74400" fill-rule="evenodd" stroke="none"/>
    <path d="M3.35 35.95 Q3.35 36.45 2.95 36.8 2.6 37.2 2.1 37.2 1.6 37.2 1.2 36.8 0.85 36.45 0.85 35.95 0.85 35.45 1.2 35.05 1.6 34.7 2.1 34.7 2.6 34.7 2.95 35.05 3.35 35.45 3.35 35.95" fill="#f74400" fill-rule="evenodd" stroke="none"/>
    <path d="M1.2 39.45 Q1.2 40.5 0.45 41.2 -0.25 41.95 -1.3 41.95 -2.35 41.95 -3.1 41.2 -3.8 40.5 -3.8 39.45 -3.8 38.4 -3.1 37.65 -2.35 36.95 -1.3 36.95 -0.25 36.95 0.45 37.65 1.2 38.4 1.2 39.45" fill="#f74400" fill-rule="evenodd" stroke="none"/>
    <path d="M2.0 42.45 Q2.0 43.15 1.5 43.6 1.05 44.1 0.4 44.1 -0.25 44.1 -0.75 43.6 -1.2 43.15 -1.2 42.45 -1.2 41.75 -0.75 41.25 -0.25 40.8 0.4 40.8 1.05 40.8 1.5 41.25 2.0 41.75 2.0 42.45" fill="#f74400" fill-rule="evenodd" stroke="none"/>
  </g>
</svg>
