<?xml version="1.0" encoding="UTF-8" standalone="no"?>
<svg xmlns:xlink="http://www.w3.org/1999/xlink" height="42.75px" width="64.05px" xmlns="http://www.w3.org/2000/svg">
  <g transform="matrix(1.0, 0.0, 0.0, 1.0, 32.05, 21.35)">
    <path d="M10.8 12.75 Q9.7 8.65 11.8 4.95 13.95 1.3 18.05 0.15 22.15 -0.95 25.85 1.2 29.55 3.3 30.65 7.4 31.75 11.55 29.6 15.2 27.5 18.9 23.4 20.0 19.3 21.1 15.6 19.0 11.9 16.85 10.8 12.75" fill="#f73600" fill-rule="evenodd" stroke="none"/>
    <path d="M10.8 12.75 Q9.7 8.65 11.8 4.95 13.95 1.3 18.05 0.15 22.15 -0.95 25.85 1.2 29.55 3.3 30.65 7.4 31.75 11.55 29.6 15.2 27.5 18.9 23.4 20.0 19.3 21.1 15.6 19.0 11.9 16.85 10.8 12.75 Z" fill="none" stroke="#6d1800" stroke-linecap="round" stroke-linejoin="round" stroke-width="2.0"/>
    <path d="M14.85 8.3 Q13.0 11.55 13.65 15.25 L12.75 12.95 Q11.8 9.4 13.65 6.25 15.5 3.1 19.0 2.15 22.5 1.2 25.7 3.0 L26.95 3.95 20.9 3.65 Q16.95 4.7 14.85 8.3" fill="#a32300" fill-rule="evenodd" stroke="none"/>
    <path d="M23.35 11.75 Q22.95 10.6 23.5 9.65 24.05 8.65 25.3 8.35 L27.35 8.55 Q28.3 9.15 28.7 10.3 28.9 11.4 28.35 12.4 27.8 13.35 26.75 13.7 25.5 14.0 24.55 13.4 23.55 12.85 23.35 11.75" fill="#ffffff" fill-opacity="0.49803922" fill-rule="evenodd" stroke="none"/>
    <path d="M11.7 17.45 L4.3 7.4 4.85 4.75 -30.55 -15.7 Q-32.3 -19.8 -27.9 -20.35 L8.1 0.45 9.55 -1.45 22.15 -1.5 18.3 0.4 Q14.3 2.9 13.05 5.35 11.0 9.3 11.7 17.45" fill="#70381f" fill-rule="evenodd" stroke="none"/>
    <path d="M11.7 17.45 Q11.0 9.3 13.05 5.35 14.3 2.9 18.3 0.4 L22.15 -1.5 9.55 -1.45 8.1 0.45 -27.9 -20.35 Q-32.3 -19.8 -30.55 -15.7 L4.85 4.75 4.3 7.4 11.7 17.45 Z" fill="none" stroke="#3c190a" stroke-linecap="round" stroke-linejoin="round" stroke-width="2.0"/>
  </g>
</svg>
