<?xml version="1.0" encoding="UTF-8" standalone="no"?>
<svg xmlns:xlink="http://www.w3.org/1999/xlink" height="21.15px" width="14.85px" xmlns="http://www.w3.org/2000/svg">
  <g transform="matrix(1.0, 0.0, 0.0, 1.0, 7.45, 10.55)">
    <path d="M0.95 -10.05 L0.95 -1.95 -1.1 -1.95 -1.1 -10.05 0.95 -10.05" fill="#f73600" fill-rule="evenodd" stroke="none"/>
    <path d="M0.95 -10.05 L0.95 -1.95 -1.1 -1.95 -1.1 -10.05 0.95 -10.05 Z" fill="none" stroke="#6d1800" stroke-linecap="round" stroke-linejoin="round" stroke-width="1.0"/>
    <path d="M0.95 2.0 L0.95 10.1 -1.1 10.1 -1.1 2.0 0.95 2.0" fill="#f73600" fill-rule="evenodd" stroke="none"/>
    <path d="M0.95 2.0 L0.95 10.1 -1.1 10.1 -1.1 2.0 0.95 2.0 Z" fill="none" stroke="#6d1800" stroke-linecap="round" stroke-linejoin="round" stroke-width="1.0"/>
    <path d="M-0.05 -7.05 Q2.85 -7.05 4.85 -5.0 6.9 -2.95 6.9 -0.15 6.9 2.75 4.85 4.75 2.85 6.8 -0.05 6.8 -2.85 6.8 -4.9 4.75 -6.95 2.75 -6.95 -0.15 -6.95 -2.95 -4.9 -5.0 -2.85 -7.05 -0.05 -7.05" fill="#ad0303" fill-rule="evenodd" stroke="none"/>
    <path d="M-0.05 -7.05 Q2.85 -7.05 4.85 -5.0 6.9 -2.95 6.9 -0.15 6.9 2.75 4.85 4.75 2.85 6.8 -0.05 6.8 -2.85 6.8 -4.9 4.75 -6.95 2.75 -6.95 -0.15 -6.95 -2.95 -4.9 -5.0 -2.85 -7.05 -0.05 -7.05 Z" fill="none" stroke="#6d1800" stroke-linecap="round" stroke-linejoin="round" stroke-width="1.0"/>
    <path d="M3.25 -3.45 Q4.65 -2.05 4.65 -0.15 4.65 1.75 3.25 3.1 1.9 4.5 -0.05 4.5 -1.9 4.5 -3.3 3.1 -4.7 1.75 -4.7 -0.15 -4.7 -2.05 -3.3 -3.45 -1.9 -4.85 -0.05 -4.85 1.9 -4.85 3.25 -3.45" fill="#f73600" fill-rule="evenodd" stroke="none"/>
  </g>
</svg>
