<?xml version="1.0" encoding="UTF-8" standalone="no"?>
<svg xmlns:xlink="http://www.w3.org/1999/xlink" height="10.95px" width="21.7px" xmlns="http://www.w3.org/2000/svg">
  <g transform="matrix(1.0, 0.0, 0.0, 1.0, 21.95, 5.45)">
    <path d="M-1.25 -0.3 L-1.25 0.35 Q-1.25 2.05 -2.55 3.25 -3.9 4.5 -5.75 4.5 L-16.4 4.5 Q-18.25 4.5 -19.6 3.25 -20.95 2.05 -20.95 0.35 L-20.95 -0.3 Q-20.95 -2.0 -19.6 -3.25 -18.25 -4.45 -16.4 -4.45 L-5.75 -4.45 Q-3.9 -4.45 -2.55 -3.25 -1.25 -2.0 -1.25 -0.3" fill="#c40000" fill-rule="evenodd" stroke="none"/>
    <path d="M-1.25 -0.3 Q-1.25 -2.0 -2.55 -3.25 -3.9 -4.45 -5.75 -4.45 L-16.4 -4.45 Q-18.25 -4.45 -19.6 -3.25 -20.95 -2.0 -20.95 -0.3 L-20.95 0.35 Q-20.95 2.05 -19.6 3.25 -18.25 4.5 -16.4 4.5 L-5.75 4.5 Q-3.9 4.5 -2.55 3.25 -1.25 2.05 -1.25 0.35 L-1.25 -0.3 Z" fill="none" stroke="#c40000" stroke-linecap="round" stroke-linejoin="round" stroke-width="2.0"/>
  </g>
</svg>
