<?xml version="1.0" encoding="UTF-8" standalone="no"?>
<svg xmlns:xlink="http://www.w3.org/1999/xlink" height="49.5px" width="110.65px" xmlns="http://www.w3.org/2000/svg">
  <g transform="matrix(1.0, 0.0, 0.0, 1.0, 67.2, 25.0)">
    <path d="M32.55 -14.4 L22.3 -14.4 Q25.05 -5.95 25.25 1.05 25.35 8.1 22.3 16.0 L32.55 16.0 Q46.45 0.8 32.55 -14.4 M4.1 -23.65 Q28.4 -24.45 38.25 -12.95 43.45 -6.8 43.45 0.4 43.45 7.6 38.25 13.75 28.4 25.3 4.1 24.45 -20.0 23.6 -41.35 11.95 -48.0 8.3 -53.6 3.95 L-57.9 0.4 -53.6 -3.15 Q-48.0 -7.5 -41.35 -11.15 -20.0 -22.85 4.1 -23.65" fill="#1a1c23" fill-rule="evenodd" stroke="none"/>
    <path d="M24.1 -7.95 L24.55 -5.5 23.05 -7.4 Q16.55 -14.2 0.5 -13.75 -15.7 -13.25 -30.0 -6.15 -34.45 -3.95 -38.15 -1.3 L-38.2 -1.3 -40.5 0.45 -38.2 2.15 Q-34.45 4.8 -30.0 7.05 -15.7 14.05 0.5 14.55 16.55 15.1 23.05 8.25 L25.0 5.7 24.55 8.35 24.0 8.95 Q17.15 16.2 0.45 15.65 -16.0 15.15 -30.55 7.95 -35.1 5.75 -38.9 3.05 L-41.8 0.85 -42.0 0.6 -42.0 0.3 -41.8 0.05 -38.9 -2.1 -38.9 -2.15 Q-35.1 -4.85 -30.55 -7.1 -16.0 -14.3 0.45 -14.8 17.15 -15.3 24.0 -8.1 L24.0 -8.05 24.1 -7.95" fill="#000000" fill-rule="evenodd" stroke="none"/>
    <path d="M32.55 -14.4 L27.1 -14.4 Q18.85 -22.6 2.15 -23.6 L4.1 -23.65 Q28.4 -24.45 38.25 -12.95 43.45 -6.8 43.45 0.4 43.45 7.6 38.25 13.75 28.4 25.3 4.1 24.45 L2.3 24.35 Q18.05 23.45 26.3 16.0 L32.55 16.0 Q46.45 0.8 32.55 -14.4" fill="#0f1015" fill-rule="evenodd" stroke="none"/>
    <path d="M-66.1 -2.4 Q-64.65 -3.45 -36.7 -2.4 L-36.7 3.15 -50.8 3.6 -66.1 3.15 Q-67.2 2.3 -67.2 0.35 -67.15 -1.6 -66.1 -2.4" fill="#31343f" fill-rule="evenodd" stroke="none"/>
    <path d="M32.55 -14.4 L22.3 -14.4 Q25.05 -5.95 25.25 1.05 25.35 8.1 22.3 16.0 L32.55 16.0 Q46.45 0.8 32.55 -14.4 M20.25 -15.9 L33.25 -15.9 33.65 -15.4 Q48.5 0.8 33.65 17.0 L33.25 17.5 20.15 17.5 20.9 15.45 Q23.85 7.85 23.75 1.1 23.55 -5.7 20.9 -13.9 L20.25 -15.9" fill="#0f1015" fill-rule="evenodd" stroke="none"/>
    <path d="M23.6 12.4 L24.95 6.65 38.55 6.65 Q37.5 9.5 35.5 12.4 L23.6 12.4 M39.0 4.9 L25.1 4.9 25.3 3.15 39.4 3.15 39.0 4.9" fill="#ffffff" fill-opacity="0.49803922" fill-rule="evenodd" stroke="none"/>
    <path d="M22.3 16.0 Q25.35 8.1 25.25 1.05 25.05 -5.95 22.3 -14.4 L32.55 -14.4 Q46.45 0.8 32.55 16.0 L22.3 16.0" fill="#339fff" fill-opacity="0.49803922" fill-rule="evenodd" stroke="none"/>
    <path d="M4.75 24.5 L4.1 24.45 3.9 24.45 3.9 18.95 Q-16.55 20.6 -33.05 10.25 L-33.05 16.05 -33.9 15.65 -33.9 8.7 -33.2 9.1 Q-16.55 19.9 4.25 18.05 L4.75 18.05 4.75 24.5" fill="#000000" fill-rule="evenodd" stroke="none"/>
    <path d="M4.75 -25.0 L4.1 -24.95 3.9 -24.95 3.9 -19.45 Q-16.55 -21.1 -33.05 -10.75 L-33.05 -16.55 -33.9 -16.15 -33.9 -9.2 -33.2 -9.6 Q-16.55 -20.4 4.25 -18.55 L4.75 -18.55 4.75 -25.0" fill="#000000" fill-rule="evenodd" stroke="none"/>
  </g>
</svg>
