<?xml version="1.0" encoding="UTF-8" standalone="no"?>
<svg xmlns:xlink="http://www.w3.org/1999/xlink" height="85.65px" width="57.85px" xmlns="http://www.w3.org/2000/svg">
  <g transform="matrix(1.0, 0.0, 0.0, 1.0, 28.95, 43.65)">
    <path d="M11.65 26.9 Q11.2 26.95 10.85 26.6 10.45 26.3 10.45 25.8 10.4 25.3 10.7 25.05 21.7 13.75 21.6 4.1 21.35 -5.4 10.2 -13.5 9.8 -13.75 9.7 -14.25 9.65 -14.75 9.85 -15.05 L10.65 -15.55 11.5 -15.3 Q23.85 -6.4 23.95 4.2 24.25 14.55 12.45 26.65 L11.65 26.9" fill="#7cb421" fill-rule="evenodd" stroke="none"/>
    <path d="M11.65 26.9 L12.45 26.65 Q24.25 14.55 23.95 4.2 23.85 -6.4 11.5 -15.3 L10.65 -15.55 9.85 -15.05 Q9.65 -14.75 9.7 -14.25 9.8 -13.75 10.2 -13.5 21.35 -5.4 21.6 4.1 21.7 13.75 10.7 25.05 10.4 25.3 10.45 25.8 10.45 26.3 10.85 26.6 11.2 26.95 11.65 26.9 Z" fill="none" stroke="#416409" stroke-linecap="round" stroke-linejoin="round" stroke-width="1.0"/>
    <path d="M19.55 32.1 L-19.55 32.1 -19.55 23.8 19.55 23.8 19.55 32.1 Z" fill="none" stroke="#455b72" stroke-linecap="round" stroke-linejoin="round" stroke-width="3.0"/>
    <path d="M19.55 32.1 L-19.55 32.1 -19.55 23.8 19.55 23.8 19.55 32.1" fill="#9bafc4" fill-rule="evenodd" stroke="none"/>
    <path d="M19.55 30.1 L-19.55 30.1 -19.55 25.8 19.55 25.8 19.55 30.1" fill="#dcdee0" fill-rule="evenodd" stroke="none"/>
    <path d="M-15.95 -14.45 L16.3 -14.45 16.3 -7.45 -15.95 -7.45 -15.95 -14.45 Z" fill="none" stroke="#6d1800" stroke-linecap="round" stroke-linejoin="round" stroke-width="3.0"/>
    <path d="M-15.95 -14.45 L16.3 -14.45 16.3 -7.45 -15.95 -7.45 -15.95 -14.45" fill="#b60902" fill-rule="evenodd" stroke="none"/>
    <path d="M-11.65 -14.45 L12.0 -14.45 12.0 -7.45 -11.65 -7.45 -11.65 -14.45" fill="#f73600" fill-rule="evenodd" stroke="none"/>
    <path d="M-15.95 -0.65 L16.3 -0.65 16.3 6.35 -15.95 6.35 -15.95 -0.65 Z" fill="none" stroke="#6d1800" stroke-linecap="round" stroke-linejoin="round" stroke-width="3.0"/>
    <path d="M-15.95 -0.65 L16.3 -0.65 16.3 6.35 -15.95 6.35 -15.95 -0.65" fill="#b60902" fill-rule="evenodd" stroke="none"/>
    <path d="M-11.65 -0.65 L12.0 -0.65 12.0 6.35 -11.65 6.35 -11.65 -0.65" fill="#f73600" fill-rule="evenodd" stroke="none"/>
    <path d="M-15.95 15.4 L16.3 15.4 16.3 40.5 -15.95 40.5 -15.95 15.4 Z" fill="none" stroke="#6d1800" stroke-linecap="round" stroke-linejoin="round" stroke-width="3.0"/>
    <path d="M-15.95 15.4 L16.3 15.4 16.3 40.5 -15.95 40.5 -15.95 15.4" fill="#b60902" fill-rule="evenodd" stroke="none"/>
    <path d="M-11.65 15.4 L12.0 15.4 12.0 40.5 -11.65 40.5 -11.65 15.4" fill="#f73600" fill-rule="evenodd" stroke="none"/>
    <path d="M-20.8 21.25 L-20.8 35.55 -27.45 35.55 -27.45 21.25 -20.8 21.25 Z" fill="none" stroke="#6d1800" stroke-linecap="round" stroke-linejoin="round" stroke-width="3.0"/>
    <path d="M-20.8 21.25 L-20.8 35.55 -27.45 35.55 -27.45 21.25 -20.8 21.25" fill="#b60902" fill-rule="evenodd" stroke="none"/>
    <path d="M-20.8 23.1 L-20.8 33.6 -27.45 33.6 -27.45 23.1 -20.8 23.1" fill="#f73600" fill-rule="evenodd" stroke="none"/>
    <path d="M27.4 21.25 L27.4 35.55 20.75 35.55 20.75 21.25 27.4 21.25 Z" fill="none" stroke="#6d1800" stroke-linecap="round" stroke-linejoin="round" stroke-width="3.0"/>
    <path d="M27.4 21.25 L27.4 35.55 20.75 35.55 20.75 21.25 27.4 21.25" fill="#b60902" fill-rule="evenodd" stroke="none"/>
    <path d="M27.4 23.1 L27.4 33.6 20.75 33.6 20.75 23.1 27.4 23.1" fill="#f73600" fill-rule="evenodd" stroke="none"/>
    <path d="M-15.95 -42.15 L16.3 -42.15 16.3 -27.75 -15.95 -27.75 -15.95 -42.15 Z" fill="none" stroke="#6d1800" stroke-linecap="round" stroke-linejoin="round" stroke-width="3.0"/>
    <path d="M-15.95 -42.15 L16.3 -42.15 16.3 -27.75 -15.95 -27.75 -15.95 -42.15" fill="#b60902" fill-rule="evenodd" stroke="none"/>
    <path d="M-11.65 -42.15 L12.0 -42.15 12.0 -27.75 -11.65 -27.75 -11.65 -42.15" fill="#f73600" fill-rule="evenodd" stroke="none"/>
    <path d="M16.3 22.45 L-15.95 22.45 -15.95 18.3 16.3 18.3 16.3 22.45 M16.3 29.1 L-15.95 29.1 -15.95 24.95 16.3 24.95 16.3 29.1" fill="#cd9325" fill-rule="evenodd" stroke="none"/>
    <path d="M12.0 22.45 L-11.65 22.45 -11.65 18.3 12.0 18.3 12.0 22.45 M12.0 29.1 L-11.65 29.1 -11.65 24.95 12.0 24.95 12.0 29.1" fill="#ffc558" fill-rule="evenodd" stroke="none"/>
  </g>
</svg>
