<?xml version="1.0" encoding="UTF-8" standalone="no"?>
<svg xmlns:xlink="http://www.w3.org/1999/xlink" height="66.85px" width="70.3px" xmlns="http://www.w3.org/2000/svg">
  <g transform="matrix(1.0, 0.0, 0.0, 1.0, 38.1, 30.55)">
    <path d="M-33.4 -7.85 Q-31.0 -10.05 -27.65 -10.05 -24.25 -10.05 -21.85 -7.85 -19.45 -5.6 -19.45 -2.5 -19.45 0.65 -21.85 2.85 -24.25 5.1 -27.65 5.1 -31.0 5.1 -33.4 2.85 -35.8 0.65 -35.8 -2.5 -35.8 -5.6 -33.4 -7.85" fill="#d40000" fill-rule="evenodd" stroke="none"/>
    <path d="M-22.3 -24.25 Q-18.8 -24.25 -16.35 -21.35 -13.85 -18.45 -13.85 -14.35 -13.85 -10.3 -16.35 -7.4 -18.8 -4.5 -22.3 -4.5 -25.85 -4.5 -28.3 -7.4 -30.8 -10.3 -30.8 -14.35 -30.8 -18.45 -28.3 -21.35 -25.85 -24.25 -22.3 -24.25" fill="#d40000" fill-rule="evenodd" stroke="none"/>
    <path d="M-12.95 -16.55 Q-15.3 -14.15 -18.6 -14.15 -21.9 -14.15 -24.25 -16.55 -26.55 -18.95 -26.55 -22.35 -26.55 -25.75 -24.25 -28.15 -21.9 -30.55 -18.6 -30.55 -15.3 -30.55 -12.95 -28.15 -10.6 -25.75 -10.6 -22.35 -10.6 -18.95 -12.95 -16.55" fill="#d40000" fill-rule="evenodd" stroke="none"/>
    <path d="M1.55 -19.45 Q-0.65 -17.5 -3.8 -17.5 -6.95 -17.5 -9.2 -19.45 -11.4 -21.35 -11.4 -24.0 -11.4 -26.7 -9.2 -28.65 -6.95 -30.55 -3.8 -30.55 -0.65 -30.55 1.55 -28.65 3.8 -26.7 3.8 -24.0 3.8 -21.35 1.55 -19.45" fill="#d40000" fill-rule="evenodd" stroke="none"/>
    <path d="M18.75 -20.8 Q18.75 -16.8 15.95 -13.95 13.15 -11.1 9.15 -11.1 5.2 -11.1 2.4 -13.95 -0.4 -16.8 -0.4 -20.8 -0.4 -24.85 2.4 -27.7 5.2 -30.5 9.15 -30.5 13.15 -30.5 15.95 -27.7 18.75 -24.85 18.75 -20.8" fill="#d40000" fill-rule="evenodd" stroke="none"/>
    <path d="M22.3 -19.85 Q24.7 -19.85 26.35 -17.9 28.05 -15.95 28.05 -13.2 28.05 -10.45 26.35 -8.5 24.7 -6.55 22.3 -6.55 19.95 -6.55 18.25 -8.5 16.6 -10.45 16.6 -13.2 16.6 -15.95 18.25 -17.9 19.95 -19.85 22.3 -19.85" fill="#d40000" fill-rule="evenodd" stroke="none"/>
    <path d="M20.85 -7.05 Q22.0 -8.75 23.7 -8.75 25.35 -8.75 26.55 -7.05 27.7 -5.35 27.7 -2.95 27.7 -0.55 26.55 1.1 25.35 2.8 23.7 2.8 22.0 2.8 20.85 1.1 19.65 -0.55 19.65 -2.95 19.65 -5.35 20.85 -7.05" fill="#d40000" fill-rule="evenodd" stroke="none"/>
    <path d="M20.85 -7.05 Q22.0 -8.75 23.7 -8.75 25.35 -8.75 26.55 -7.05 27.7 -5.35 27.7 -2.95 27.7 -0.55 26.55 1.1 25.35 2.8 23.7 2.8 22.0 2.8 20.85 1.1 19.65 -0.55 19.65 -2.95 19.65 -5.35 20.85 -7.05 Z" fill="none" stroke="#a80f06" stroke-linecap="round" stroke-linejoin="round" stroke-opacity="0.0" stroke-width="6.0"/>
    <path d="M27.7 11.0 Q26.2 12.75 24.1 12.75 22.0 12.75 20.5 11.0 19.05 9.25 19.05 6.75 19.05 4.25 20.5 2.45 22.0 0.7 24.1 0.7 26.2 0.7 27.7 2.45 29.2 4.25 29.2 6.75 29.2 9.25 27.7 11.0" fill="#d40000" fill-rule="evenodd" stroke="none"/>
    <path d="M27.7 11.0 Q26.2 12.75 24.1 12.75 22.0 12.75 20.5 11.0 19.05 9.25 19.05 6.75 19.05 4.25 20.5 2.45 22.0 0.7 24.1 0.7 26.2 0.7 27.7 2.45 29.2 4.25 29.2 6.75 29.2 9.25 27.7 11.0 Z" fill="none" stroke="#a80f06" stroke-linecap="round" stroke-linejoin="round" stroke-opacity="0.0" stroke-width="6.0"/>
    <path d="M-23.25 2.8 Q-21.2 4.85 -21.2 7.8 -21.2 10.7 -23.25 12.75 -25.25 14.8 -28.15 14.8 -31.05 14.8 -33.05 12.75 -35.1 10.7 -35.1 7.8 -35.1 4.85 -33.05 2.8 -31.05 0.75 -28.15 0.75 -25.25 0.75 -23.25 2.8" fill="#d40000" fill-rule="evenodd" stroke="none"/>
    <path d="M-23.25 2.8 Q-21.2 4.85 -21.2 7.8 -21.2 10.7 -23.25 12.75 -25.25 14.8 -28.15 14.8 -31.05 14.8 -33.05 12.75 -35.1 10.7 -35.1 7.8 -35.1 4.85 -33.05 2.8 -31.05 0.75 -28.15 0.75 -25.25 0.75 -23.25 2.8 Z" fill="none" stroke="#a80f06" stroke-linecap="round" stroke-linejoin="round" stroke-opacity="0.0" stroke-width="6.0"/>
    <path d="M-20.35 13.25 Q-18.3 14.85 -18.3 17.1 -18.3 19.35 -20.35 20.95 -22.35 22.55 -25.25 22.55 -28.15 22.55 -30.2 20.95 -32.2 19.35 -32.2 17.1 -32.2 14.85 -30.2 13.25 -28.15 11.7 -25.25 11.7 -22.35 11.7 -20.35 13.25" fill="#d40000" fill-rule="evenodd" stroke="none"/>
    <path d="M-20.35 13.25 Q-18.3 14.85 -18.3 17.1 -18.3 19.35 -20.35 20.95 -22.35 22.55 -25.25 22.55 -28.15 22.55 -30.2 20.95 -32.2 19.35 -32.2 17.1 -32.2 14.85 -30.2 13.25 -28.15 11.7 -25.25 11.7 -22.35 11.7 -20.35 13.25 Z" fill="none" stroke="#a80f06" stroke-linecap="round" stroke-linejoin="round" stroke-opacity="0.0" stroke-width="6.0"/>
    <path d="M-25.05 22.4 Q-25.05 19.75 -22.9 17.85 -20.8 16.0 -17.8 16.0 -14.75 16.0 -12.65 17.85 -10.5 19.75 -10.5 22.4 -10.5 25.1 -12.65 26.95 -14.75 28.85 -17.8 28.85 -20.8 28.85 -22.9 26.95 -25.05 25.1 -25.05 22.4" fill="#d40000" fill-rule="evenodd" stroke="none"/>
    <path d="M-25.05 22.4 Q-25.05 19.75 -22.9 17.85 -20.8 16.0 -17.8 16.0 -14.75 16.0 -12.65 17.85 -10.5 19.75 -10.5 22.4 -10.5 25.1 -12.65 26.95 -14.75 28.85 -17.8 28.85 -20.8 28.85 -22.9 26.95 -25.05 25.1 -25.05 22.4 Z" fill="none" stroke="#a80f06" stroke-linecap="round" stroke-linejoin="round" stroke-opacity="0.0" stroke-width="6.0"/>
    <path d="M-2.7 31.5 Q-4.5 33.3 -7.0 33.3 -9.55 33.3 -11.35 31.5 -13.15 29.65 -13.15 27.05 -13.15 24.45 -11.35 22.65 -9.55 20.8 -7.0 20.8 -4.5 20.8 -2.7 22.65 -0.9 24.45 -0.9 27.05 -0.9 29.65 -2.7 31.5" fill="#d40000" fill-rule="evenodd" stroke="none"/>
    <path d="M-2.7 31.5 Q-4.5 33.3 -7.0 33.3 -9.55 33.3 -11.35 31.5 -13.15 29.65 -13.15 27.05 -13.15 24.45 -11.35 22.65 -9.55 20.8 -7.0 20.8 -4.5 20.8 -2.7 22.65 -0.9 24.45 -0.9 27.05 -0.9 29.65 -2.7 31.5 Z" fill="none" stroke="#a80f06" stroke-linecap="round" stroke-linejoin="round" stroke-opacity="0.0" stroke-width="6.0"/>
    <path d="M4.8 15.1 Q8.3 15.1 10.75 17.2 13.2 19.35 13.2 22.35 13.2 25.35 10.75 27.5 8.3 29.65 4.8 29.65 1.35 29.65 -1.15 27.5 -3.6 25.35 -3.6 22.35 -3.6 19.35 -1.15 17.2 1.35 15.1 4.8 15.1" fill="#d40000" fill-rule="evenodd" stroke="none"/>
    <path d="M4.8 15.1 Q8.3 15.1 10.75 17.2 13.2 19.35 13.2 22.35 13.2 25.35 10.75 27.5 8.3 29.65 4.8 29.65 1.35 29.65 -1.15 27.5 -3.6 25.35 -3.6 22.35 -3.6 19.35 -1.15 17.2 1.35 15.1 4.8 15.1 Z" fill="none" stroke="#a80f06" stroke-linecap="round" stroke-linejoin="round" stroke-opacity="0.0" stroke-width="6.0"/>
    <path d="M23.65 11.8 Q25.6 14.1 25.6 17.35 25.6 20.55 23.65 22.85 21.7 25.1 18.9 25.1 16.15 25.1 14.2 22.85 12.25 20.55 12.25 17.35 12.25 14.1 14.2 11.8 16.15 9.55 18.9 9.55 21.7 9.55 23.65 11.8" fill="#d40000" fill-rule="evenodd" stroke="none"/>
    <path d="M23.65 11.8 Q25.6 14.1 25.6 17.35 25.6 20.55 23.65 22.85 21.7 25.1 18.9 25.1 16.15 25.1 14.2 22.85 12.25 20.55 12.25 17.35 12.25 14.1 14.2 11.8 16.15 9.55 18.9 9.55 21.7 9.55 23.65 11.8 Z" fill="none" stroke="#a80f06" stroke-linecap="round" stroke-linejoin="round" stroke-opacity="0.0" stroke-width="6.0"/>
    <path d="M-24.1 1.35 Q-21.1 1.35 -19.0 4.0 -16.9 6.7 -16.9 10.45 -16.9 14.2 -19.0 16.85 -21.1 19.55 -24.1 19.55 -27.1 19.55 -29.2 16.85 -31.3 14.2 -31.3 10.45 -31.3 6.7 -29.2 4.0 -27.1 1.35 -24.1 1.35" fill="#ff5515" fill-rule="evenodd" stroke="none"/>
    <path d="M-22.0 -6.05 Q-20.25 -3.9 -20.25 -0.9 -20.25 2.05 -22.0 4.2 -23.8 6.3 -26.35 6.3 -28.85 6.3 -30.65 4.2 -32.4 2.05 -32.4 -0.9 -32.4 -3.9 -30.65 -6.05 -28.85 -8.15 -26.35 -8.15 -23.8 -8.15 -22.0 -6.05" fill="#ff5515" fill-rule="evenodd" stroke="none"/>
    <path d="M-19.25 16.05 Q-17.8 16.05 -16.75 17.3 -15.7 18.6 -15.7 20.4 -15.7 22.15 -16.75 23.4 -17.8 24.7 -19.25 24.7 -20.75 24.7 -21.8 23.4 -22.85 22.15 -22.85 20.4 -22.85 18.6 -21.8 17.3 -20.75 16.05 -19.25 16.05" fill="#ff5515" fill-rule="evenodd" stroke="none"/>
    <path d="M-0.35 16.25 Q-0.35 20.3 -3.15 23.2 -5.9 26.1 -9.9 26.1 -13.85 26.1 -16.65 23.2 -19.45 20.3 -19.45 16.25 -19.45 12.15 -16.65 9.25 -13.85 6.35 -9.9 6.35 -5.9 6.35 -3.15 9.25 -0.35 12.15 -0.35 16.25" fill="#ff5515" fill-rule="evenodd" stroke="none"/>
    <path d="M13.1 20.55 Q13.1 22.95 10.9 24.65 8.7 26.35 5.55 26.35 2.4 26.35 0.15 24.65 -2.05 22.95 -2.05 20.55 -2.05 18.1 0.15 16.4 2.4 14.7 5.55 14.7 8.7 14.7 10.9 16.4 13.1 18.1 13.1 20.55" fill="#ff5515" fill-rule="evenodd" stroke="none"/>
    <path d="M24.5 15.65 Q24.5 18.1 22.25 19.85 20.0 21.6 16.8 21.6 13.6 21.6 11.35 19.85 9.1 18.1 9.1 15.65 9.1 13.15 11.35 11.4 13.6 9.65 16.8 9.65 20.0 9.65 22.25 11.4 24.5 13.15 24.5 15.65" fill="#ff5515" fill-rule="evenodd" stroke="none"/>
    <path d="M-23.2 -6.8 Q-21.15 -9.7 -18.2 -9.7 -15.3 -9.7 -13.25 -6.8 -11.2 -3.95 -11.2 0.15 -11.2 4.2 -13.25 7.05 -15.3 9.95 -18.2 9.95 -21.15 9.95 -23.2 7.05 -25.25 4.2 -25.25 0.15 -25.25 -3.95 -23.2 -6.8" fill="#ff5515" fill-rule="evenodd" stroke="none"/>
    <path d="M-10.6 -23.9 Q-7.9 -20.9 -7.9 -16.65 -7.9 -12.45 -10.6 -9.45 -13.25 -6.45 -17.05 -6.45 -20.85 -6.45 -23.55 -9.45 -26.2 -12.45 -26.2 -16.65 -26.2 -20.9 -23.55 -23.9 -20.85 -26.9 -17.05 -26.9 -13.25 -26.9 -10.6 -23.9" fill="#ff5515" fill-rule="evenodd" stroke="none"/>
    <path d="M-0.15 -20.55 Q-1.85 -19.35 -4.2 -19.35 -6.55 -19.35 -8.25 -20.55 -9.9 -21.75 -9.9 -23.45 -9.9 -25.2 -8.25 -26.4 -6.55 -27.6 -4.2 -27.6 -1.85 -27.6 -0.15 -26.4 1.5 -25.2 1.5 -23.45 1.5 -21.75 -0.15 -20.55" fill="#ff5515" fill-rule="evenodd" stroke="none"/>
    <path d="M2.25 -20.35 Q4.6 -18.45 4.6 -15.7 4.6 -13.0 2.25 -11.1 -0.05 -9.2 -3.35 -9.2 -6.65 -9.2 -9.0 -11.1 -11.35 -13.0 -11.35 -15.7 -11.35 -18.45 -9.0 -20.35 -6.65 -22.25 -3.35 -22.25 -0.05 -22.25 2.25 -20.35" fill="#ff5515" fill-rule="evenodd" stroke="none"/>
    <path d="M13.8 -18.5 Q11.75 -16.85 8.9 -16.85 6.0 -16.85 3.95 -18.5 1.9 -20.2 1.9 -22.55 1.9 -24.95 3.95 -26.65 6.0 -28.3 8.9 -28.3 11.75 -28.3 13.8 -26.65 15.85 -24.95 15.85 -22.55 15.85 -20.2 13.8 -18.5" fill="#ff5515" fill-rule="evenodd" stroke="none"/>
    <path d="M22.45 -9.05 Q20.5 -7.55 17.75 -7.55 15.0 -7.55 13.05 -9.05 11.1 -10.55 11.1 -12.7 11.1 -14.8 13.05 -16.3 15.0 -17.8 17.75 -17.8 20.5 -17.8 22.45 -16.3 24.4 -14.8 24.4 -12.7 24.4 -10.55 22.45 -9.05" fill="#ff5515" fill-rule="evenodd" stroke="none"/>
    <path d="M17.75 -11.6 Q21.05 -11.6 23.35 -9.45 25.7 -7.25 25.7 -4.15 25.7 -1.1 23.35 1.1 21.05 3.25 17.75 3.25 14.5 3.25 12.15 1.1 9.85 -1.1 9.85 -4.15 9.85 -7.25 12.15 -9.45 14.5 -11.6 17.75 -11.6" fill="#ff5515" fill-rule="evenodd" stroke="none"/>
    <path d="M23.35 9.8 Q21.6 11.6 19.05 11.6 16.55 11.6 14.75 9.8 12.95 8.0 12.95 5.45 12.95 2.85 14.75 1.05 16.55 -0.75 19.05 -0.75 21.6 -0.75 23.35 1.05 25.15 2.85 25.15 5.45 25.15 8.0 23.35 9.8" fill="#ff5515" fill-rule="evenodd" stroke="none"/>
    <path d="M10.05 12.2 Q10.05 15.1 8.0 17.15 5.95 19.2 3.05 19.2 0.15 19.2 -1.9 17.15 -3.9 15.1 -3.9 12.2 -3.9 9.3 -1.9 7.25 0.15 5.2 3.05 5.2 5.95 5.2 8.0 7.25 10.05 9.3 10.05 12.2" fill="#ff5515" fill-rule="evenodd" stroke="none"/>
    <path d="M-23.85 -1.6 Q-23.85 0.45 -25.0 1.85 -26.15 3.3 -27.8 3.3 -29.4 3.3 -30.55 1.85 -31.7 0.45 -31.7 -1.6 -31.7 -3.6 -30.55 -5.0 -29.4 -6.45 -27.8 -6.45 -26.15 -6.45 -25.0 -5.0 -23.85 -3.6 -23.85 -1.6" fill="#ff872a" fill-rule="evenodd" stroke="none"/>
    <path d="M-18.3 -7.95 Q-15.9 -7.95 -14.2 -5.6 -12.5 -3.25 -12.5 0.1 -12.5 3.45 -14.2 5.8 -15.9 8.2 -18.3 8.2 -20.65 8.2 -22.35 5.8 -24.05 3.45 -24.05 0.1 -24.05 -3.25 -22.35 -5.6 -20.65 -7.95 -18.3 -7.95" fill="#ff872a" fill-rule="evenodd" stroke="none"/>
    <path d="M-21.0 6.7 Q-19.55 8.5 -19.55 11.0 -19.55 13.5 -21.0 15.3 -22.4 17.1 -24.5 17.1 -26.55 17.1 -28.0 15.3 -29.4 13.5 -29.4 11.0 -29.4 8.5 -28.0 6.7 -26.55 4.9 -24.5 4.9 -22.4 4.9 -21.0 6.7" fill="#ff872a" fill-rule="evenodd" stroke="none"/>
    <path d="M-16.1 9.7 Q-13.7 7.3 -10.35 7.3 -6.95 7.3 -4.6 9.7 -2.2 12.1 -2.2 15.45 -2.2 18.8 -4.6 21.2 -6.95 23.6 -10.35 23.6 -13.7 23.6 -16.1 21.2 -18.5 18.8 -18.5 15.45 -18.5 12.1 -16.1 9.7" fill="#ff872a" fill-rule="evenodd" stroke="none"/>
    <path d="M-10.95 7.05 Q-10.95 8.4 -11.9 9.35 -12.9 10.35 -14.25 10.35 -15.6 10.35 -16.55 9.35 -17.55 8.4 -17.55 7.05 -17.55 5.7 -16.55 4.7 -15.6 3.75 -14.25 3.75 -12.9 3.75 -11.9 4.7 -10.95 5.7 -10.95 7.05" fill="#ff872a" fill-rule="evenodd" stroke="none"/>
    <path d="M8.95 15.1 Q10.95 16.6 10.95 18.8 10.95 20.95 8.95 22.5 7.0 24.0 4.25 24.0 1.45 24.0 -0.5 22.5 -2.45 20.95 -2.45 18.8 -2.45 16.6 -0.5 15.1 1.45 13.55 4.25 13.55 7.0 13.55 8.95 15.1" fill="#ff872a" fill-rule="evenodd" stroke="none"/>
    <path d="M-4.65 -8.6 Q-1.05 -8.6 1.45 -5.7 4.0 -2.8 4.0 1.25 4.0 5.35 1.45 8.25 -1.05 11.15 -4.65 11.15 -8.2 11.15 -10.75 8.25 -13.25 5.35 -13.25 1.25 -13.25 -2.8 -10.75 -5.7 -8.2 -8.6 -4.65 -8.6" fill="#ff872a" fill-rule="evenodd" stroke="none"/>
    <path d="M-5.25 -11.4 Q-5.25 -8.55 -7.2 -6.5 -9.1 -4.5 -11.85 -4.5 -14.6 -4.5 -16.55 -6.5 -18.5 -8.55 -18.5 -11.4 -18.5 -14.2 -16.55 -16.25 -14.6 -18.25 -11.85 -18.25 -9.1 -18.25 -7.2 -16.25 -5.25 -14.2 -5.25 -11.4" fill="#ff872a" fill-rule="evenodd" stroke="none"/>
    <path d="M-12.15 -21.05 Q-10.25 -19.1 -10.25 -16.3 -10.25 -13.55 -12.15 -11.6 -14.0 -9.65 -16.7 -9.65 -19.35 -9.65 -21.25 -11.6 -23.15 -13.55 -23.15 -16.3 -23.15 -19.1 -21.25 -21.05 -19.35 -23.0 -16.7 -23.0 -14.0 -23.0 -12.15 -21.05" fill="#ff872a" fill-rule="evenodd" stroke="none"/>
    <path d="M0.9 -17.4 Q0.9 -16.2 -0.6 -15.35 -2.15 -14.45 -4.3 -14.45 -6.5 -14.45 -8.05 -15.35 -9.55 -16.2 -9.55 -17.4 -9.55 -18.6 -8.05 -19.45 -6.5 -20.3 -4.3 -20.3 -2.15 -20.3 -0.6 -19.45 0.9 -18.6 0.9 -17.4" fill="#ff872a" fill-rule="evenodd" stroke="none"/>
    <path d="M8.6 -7.9 Q8.6 -4.85 6.3 -2.65 3.95 -0.45 0.7 -0.45 -2.6 -0.45 -4.9 -2.65 -7.25 -4.85 -7.25 -7.9 -7.25 -11.0 -4.9 -13.2 -2.6 -15.35 0.7 -15.35 3.95 -15.35 6.3 -13.2 8.6 -11.0 8.6 -7.9" fill="#ff872a" fill-rule="evenodd" stroke="none"/>
    <path d="M-0.3 -24.15 Q-0.3 -23.2 -1.35 -22.6 -2.45 -21.95 -4.0 -21.95 -5.55 -21.95 -6.6 -22.6 -7.7 -23.2 -7.7 -24.15 -7.7 -25.05 -6.6 -25.7 -5.55 -26.3 -4.0 -26.3 -2.45 -26.3 -1.35 -25.7 -0.3 -25.05 -0.3 -24.15" fill="#ff872a" fill-rule="evenodd" stroke="none"/>
    <path d="M14.1 -24.0 Q14.1 -22.7 12.6 -21.75 11.15 -20.85 9.05 -20.85 6.95 -20.85 5.45 -21.75 3.95 -22.7 3.95 -24.0 3.95 -25.3 5.45 -26.25 6.95 -27.2 9.05 -27.2 11.15 -27.2 12.6 -26.25 14.1 -25.3 14.1 -24.0" fill="#ff872a" fill-rule="evenodd" stroke="none"/>
    <path d="M7.5 -21.25 Q9.9 -21.25 11.55 -18.75 13.3 -16.25 13.3 -12.7 13.3 -9.15 11.55 -6.65 9.9 -4.15 7.5 -4.15 5.05 -4.15 3.35 -6.65 1.65 -9.15 1.65 -12.7 1.65 -16.25 3.35 -18.75 5.05 -21.25 7.5 -21.25" fill="#ff872a" fill-rule="evenodd" stroke="none"/>
    <path d="M22.8 -11.6 Q22.8 -9.6 21.1 -8.2 19.4 -6.75 17.0 -6.75 14.6 -6.75 12.9 -8.2 11.2 -9.6 11.2 -11.6 11.2 -13.65 12.9 -15.1 14.6 -16.5 17.0 -16.5 19.4 -16.5 21.1 -15.1 22.8 -13.65 22.8 -11.6" fill="#ff872a" fill-rule="evenodd" stroke="none"/>
    <path d="M17.2 -10.1 Q19.0 -10.1 20.25 -8.5 21.55 -6.95 21.55 -4.7 21.55 -2.5 20.25 -0.9 19.0 0.65 17.2 0.65 15.45 0.65 14.15 -0.9 12.9 -2.5 12.9 -4.7 12.9 -6.95 14.15 -8.5 15.45 -10.1 17.2 -10.1" fill="#ff872a" fill-rule="evenodd" stroke="none"/>
    <path d="M7.4 11.0 Q7.4 12.1 6.2 12.9 4.95 13.65 3.2 13.65 1.45 13.65 0.25 12.9 -1.0 12.1 -1.0 11.0 -1.0 9.9 0.25 9.1 1.45 8.3 3.2 8.3 4.95 8.3 6.2 9.1 7.4 9.9 7.4 11.0" fill="#ff872a" fill-rule="evenodd" stroke="none"/>
    <path d="M14.75 10.9 Q14.75 13.25 12.9 14.95 11.05 16.6 8.4 16.6 5.75 16.6 3.85 14.95 2.0 13.25 2.0 10.9 2.0 8.5 3.85 6.85 5.75 5.15 8.4 5.15 11.05 5.15 12.9 6.85 14.75 8.5 14.75 10.9" fill="#ff872a" fill-rule="evenodd" stroke="none"/>
    <path d="M19.5 1.65 Q20.75 3.35 20.75 5.75 20.75 8.2 19.5 9.9 18.25 11.6 16.55 11.6 14.8 11.6 13.55 9.9 12.35 8.2 12.35 5.75 12.35 3.35 13.55 1.65 14.8 -0.05 16.55 -0.05 18.25 -0.05 19.5 1.65" fill="#ff872a" fill-rule="evenodd" stroke="none"/>
    <path d="M16.4 -2.3 Q17.75 -0.65 17.75 1.6 17.75 3.9 16.4 5.55 15.05 7.15 13.1 7.15 11.2 7.15 9.85 5.55 8.5 3.9 8.5 1.6 8.5 -0.65 9.85 -2.3 11.2 -3.95 13.1 -3.95 15.05 -3.95 16.4 -2.3" fill="#ff872a" fill-rule="evenodd" stroke="none"/>
    <path d="M-9.95 7.7 Q-7.15 7.7 -5.2 9.6 -3.2 11.55 -3.2 14.3 -3.2 17.0 -5.2 18.95 -7.15 20.9 -9.95 20.9 -12.75 20.9 -14.75 18.95 -16.75 17.0 -16.75 14.3 -16.75 11.55 -14.75 9.6 -12.75 7.7 -9.95 7.7" fill="#ff872a" fill-rule="evenodd" stroke="none"/>
    <path d="M2.0 1.25 Q2.0 4.3 -0.2 6.4 -2.35 8.55 -5.35 8.55 -8.4 8.55 -10.55 6.4 -12.7 4.3 -12.7 1.25 -12.7 -1.75 -10.55 -3.9 -8.4 -6.05 -5.35 -6.05 -2.35 -6.05 -0.2 -3.9 2.0 -1.75 2.0 1.25" fill="#ff872a" fill-rule="evenodd" stroke="none"/>
    <path d="M-6.85 -12.8 Q-5.35 -11.25 -5.35 -9.05 -5.35 -6.8 -6.85 -5.25 -8.35 -3.7 -10.45 -3.7 -12.55 -3.7 -14.05 -5.25 -15.55 -6.8 -15.55 -9.05 -15.55 -11.25 -14.05 -12.8 -12.55 -14.35 -10.45 -14.35 -8.35 -14.35 -6.85 -12.8" fill="#ff872a" fill-rule="evenodd" stroke="none"/>
    <path d="M0.45 -13.7 Q3.25 -13.7 5.25 -11.7 7.2 -9.7 7.2 -6.9 7.2 -4.15 5.25 -2.15 3.25 -0.15 0.45 -0.15 -2.35 -0.15 -4.3 -2.15 -6.3 -4.15 -6.3 -6.9 -6.3 -9.7 -4.3 -11.7 -2.35 -13.7 0.45 -13.7" fill="#ff872a" fill-rule="evenodd" stroke="none"/>
    <path d="M10.35 -17.9 Q11.5 -16.55 11.5 -14.65 11.5 -12.75 10.35 -11.45 9.15 -10.1 7.5 -10.1 5.9 -10.1 4.7 -11.45 3.55 -12.75 3.55 -14.65 3.55 -16.55 4.7 -17.9 5.9 -19.2 7.5 -19.2 9.15 -19.2 10.35 -17.9" fill="#ff872a" fill-rule="evenodd" stroke="none"/>
    <path d="M7.65 -12.3 Q9.35 -14.0 11.7 -14.0 14.05 -14.0 15.7 -12.3 17.4 -10.55 17.4 -8.1 17.4 -5.65 15.7 -3.9 14.05 -2.15 11.7 -2.15 9.35 -2.15 7.65 -3.9 5.95 -5.65 5.95 -8.1 5.95 -10.55 7.65 -12.3" fill="#ff872a" fill-rule="evenodd" stroke="none"/>
    <path d="M-13.75 4.5 Q-13.15 4.5 -12.75 4.9 -12.35 5.3 -12.35 5.9 -12.35 6.45 -12.75 6.85 -13.15 7.25 -13.75 7.25 -14.3 7.25 -14.7 6.85 -15.1 6.45 -15.1 5.9 -15.1 5.3 -14.7 4.9 -14.3 4.5 -13.75 4.5" fill="#ff872a" fill-rule="evenodd" stroke="none"/>
    <path d="M-26.35 0.0 Q-27.05 0.0 -27.55 -0.65 -28.0 -1.3 -28.0 -2.25 -28.0 -3.2 -27.55 -3.9 -27.05 -4.55 -26.35 -4.55 -25.7 -4.55 -25.2 -3.9 -24.7 -3.2 -24.7 -2.25 -24.7 -1.3 -25.2 -0.65 -25.7 0.0 -26.35 0.0" fill="#ff872a" fill-rule="evenodd" stroke="none"/>
    <path d="M-18.75 -6.6 Q-16.95 -6.6 -15.75 -4.9 -14.45 -3.15 -14.45 -0.65 -14.45 1.8 -15.75 3.55 -16.95 5.3 -18.75 5.3 -20.5 5.3 -21.75 3.55 -23.0 1.8 -23.0 -0.65 -23.0 -3.15 -21.75 -4.9 -20.5 -6.6 -18.75 -6.6" fill="#ff872a" fill-rule="evenodd" stroke="none"/>
    <path d="M7.85 -7.3 Q10.0 -7.3 11.5 -5.75 13.05 -4.25 13.05 -2.05 13.05 0.1 11.5 1.6 10.0 3.15 7.85 3.15 5.7 3.15 4.2 1.6 2.65 0.1 2.65 -2.05 2.65 -4.25 4.2 -5.75 5.7 -7.3 7.85 -7.3" fill="#ff872a" fill-rule="evenodd" stroke="none"/>
    <path d="M4.5 -4.75 Q6.8 -4.75 8.35 -3.2 9.95 -1.6 9.95 0.65 9.95 2.9 8.35 4.5 6.8 6.1 4.5 6.1 2.25 6.1 0.65 4.5 -0.9 2.9 -0.9 0.65 -0.9 -1.6 0.65 -3.2 2.25 -4.75 4.5 -4.75" fill="#ff872a" fill-rule="evenodd" stroke="none"/>
    <path d="M12.8 7.5 Q12.8 9.8 11.1 11.4 9.4 13.05 7.0 13.05 4.6 13.05 2.9 11.4 1.2 9.8 1.2 7.5 1.2 5.2 2.9 3.55 4.6 1.95 7.0 1.95 9.4 1.95 11.1 3.55 12.8 5.2 12.8 7.5" fill="#ff872a" fill-rule="evenodd" stroke="none"/>
    <path d="M14.4 7.5 Q13.4 7.5 12.7 6.4 12.0 5.35 12.0 3.85 12.0 2.3 12.7 1.25 13.4 0.2 14.4 0.2 15.4 0.2 16.1 1.25 16.8 2.3 16.8 3.85 16.8 5.35 16.1 6.4 15.4 7.5 14.4 7.5" fill="#ff872a" fill-rule="evenodd" stroke="none"/>
  </g>
</svg>
