<?xml version="1.0" encoding="UTF-8" standalone="no"?>
<svg xmlns:xlink="http://www.w3.org/1999/xlink" height="238.8px" width="248.25px" xmlns="http://www.w3.org/2000/svg">
  <g transform="matrix(1.0, 0.0, 0.0, 1.0, 178.4, 137.15)">
    <path d="M-50.3 -84.65 L-94.35 -79.35 -137.0 -81.65 -94.9 -116.0 -134.1 -124.5 -66.85 -132.65 -81.75 -103.05 -42.15 -99.95 -50.3 -84.65" fill="#dbdbdb" fill-rule="evenodd" stroke="none"/>
    <path d="M-50.3 -84.65 L-94.35 -79.35 -137.0 -81.65 -94.9 -116.0 -134.1 -124.5 -66.85 -132.65 -81.75 -103.05 -42.15 -99.95 -50.3 -84.65 Z" fill="none" stroke="#999999" stroke-linecap="round" stroke-linejoin="round" stroke-width="9.0"/>
    <path d="M-141.4 -38.6 Q-135.8 -57.6 -111.2 -71.9 -88.0 -85.4 -58.2 -89.2 -27.3 -93.15 -4.05 -84.55 21.9 -74.95 29.55 -52.1 41.15 -17.45 33.6 27.1 L32.0 35.65 Q36.05 34.5 40.75 34.75 50.9 35.3 58.15 42.2 65.5 49.1 65.35 58.35 65.2 67.55 57.6 73.4 50.05 79.05 39.85 78.15 29.75 77.0 23.0 70.05 L21.85 68.8 Q18.7 76.15 15.55 80.9 11.3 87.3 -6.5 91.65 -22.6 95.55 -44.75 96.7 -66.35 97.85 -84.2 95.9 -103.2 93.8 -109.9 88.9 -116.1 84.35 -122.75 73.4 -125.0 77.85 -128.8 81.65 -137.65 90.55 -149.3 90.6 -160.75 90.6 -167.9 82.1 -174.85 73.8 -173.75 62.2 -172.75 50.85 -164.55 42.6 -156.4 34.35 -145.55 33.75 L-139.3 34.1 Q-150.8 -6.55 -141.4 -38.6" fill="#70381f" fill-rule="evenodd" stroke="none"/>
    <path d="M-141.4 -38.6 Q-150.8 -6.55 -139.3 34.1 L-145.55 33.75 Q-156.4 34.35 -164.55 42.6 -172.75 50.85 -173.75 62.2 -174.85 73.8 -167.9 82.1 -160.75 90.6 -149.3 90.6 -137.65 90.55 -128.8 81.65 -125.0 77.85 -122.75 73.4 -116.1 84.35 -109.9 88.9 -103.2 93.8 -84.2 95.9 -66.35 97.85 -44.75 96.7 -22.6 95.55 -6.5 91.65 11.3 87.3 15.55 80.9 18.7 76.15 21.85 68.8 L23.0 70.05 Q29.75 77.0 39.85 78.15 50.05 79.05 57.6 73.4 65.2 67.55 65.35 58.35 65.5 49.1 58.15 42.2 50.9 35.3 40.75 34.75 36.05 34.5 32.0 35.65 L33.6 27.1 Q41.15 -17.45 29.55 -52.1 21.9 -74.95 -4.05 -84.55 -27.3 -93.15 -58.2 -89.2 -88.0 -85.4 -111.2 -71.9 -135.8 -57.6 -141.4 -38.6 Z" fill="none" stroke="#999999" stroke-linecap="round" stroke-linejoin="round" stroke-width="9.0"/>
    <path d="M-145.55 33.75 Q-134.55 33.05 -126.9 40.7 -119.05 48.55 -119.5 60.5 -119.95 72.7 -128.8 81.65 -137.65 90.55 -149.3 90.6 -160.75 90.6 -167.9 82.1 -174.85 73.8 -173.75 62.2 -172.75 50.85 -164.55 42.6 -156.4 34.35 -145.55 33.75" fill="#dbdbdb" fill-rule="evenodd" stroke="none"/>
    <path d="M-138.15 43.15 Q-130.6 42.65 -125.3 47.95 -119.95 53.3 -120.25 61.55 -120.55 69.95 -126.65 76.1 -132.7 82.2 -140.7 82.25 -148.6 82.25 -153.5 76.4 -158.3 70.7 -157.55 62.7 -156.85 54.9 -151.2 49.25 -145.6 43.55 -138.15 43.15" fill="#bf7926" fill-rule="evenodd" stroke="none"/>
    <path d="M58.15 42.2 Q65.5 49.1 65.35 58.35 65.2 67.55 57.6 73.4 50.05 79.05 39.85 78.15 29.75 77.0 23.0 70.05 16.3 63.2 16.5 54.45 16.5 53.25 16.75 52.15 17.65 44.9 23.7 40.05 30.75 34.2 40.75 34.75 50.9 35.3 58.15 42.2" fill="#dbdbdb" fill-rule="evenodd" stroke="none"/>
    <path d="M36.05 40.85 Q43.45 41.2 48.7 46.25 54.1 51.3 53.95 58.05 53.85 64.75 48.3 69.05 42.8 73.15 35.4 72.5 28.0 71.6 23.1 66.55 18.2 61.55 18.35 55.2 L18.55 53.55 Q19.2 48.2 23.6 44.65 28.75 40.45 36.05 40.85" fill="#bf7926" fill-rule="evenodd" stroke="none"/>
    <path d="M37.3 34.75 Q34.3 49.55 29.65 62.95 L25.55 73.5 25.9 72.65 23.0 70.05 Q16.3 63.2 16.5 54.45 16.5 53.25 16.75 52.15 17.65 44.9 23.7 40.05 29.5 35.25 37.3 34.75 M-144.6 33.7 Q-134.25 33.35 -126.9 40.7 -119.05 48.55 -119.5 60.5 -119.85 70.55 -125.9 78.35 L-128.55 73.9 Q-136.95 59.15 -142.65 40.6 L-144.6 33.7" fill="#620000" fill-opacity="0.2" fill-rule="evenodd" stroke="none"/>
    <path d="M29.55 -52.1 Q41.15 -17.45 33.6 27.1 30.65 44.45 25.25 59.8 20.45 73.55 15.55 80.9 11.3 87.3 -6.5 91.65 -22.6 95.55 -44.75 96.7 -66.35 97.85 -84.2 95.9 -103.2 93.8 -109.9 88.9 -117.0 83.7 -124.65 70.2 -132.6 56.2 -138.0 38.6 -151.3 -4.75 -141.4 -38.6 -135.8 -57.6 -111.2 -71.9 -88.0 -85.4 -58.2 -89.2 -27.3 -93.15 -4.05 -84.55 21.9 -74.95 29.55 -52.1" fill="#dbdbdb" fill-rule="evenodd" stroke="none"/>
    <path d="M36.8 -7.95 L36.55 -8.75 Q36.8 8.3 33.6 27.1 32.45 33.95 30.9 40.5 L31.2 39.75 Q29.3 44.45 27.35 47.9 23.6 54.45 15.7 58.5 L8.5 61.25 11.8 64.75 Q15.5 69.85 17.35 77.65 L17.4 77.9 15.55 80.9 Q11.3 87.3 -6.5 91.65 -22.6 95.55 -44.75 96.7 -66.35 97.85 -84.2 95.9 L-94.95 94.3 Q-97.5 90.2 -99.75 85.15 -103.1 77.5 -102.9 73.9 -102.45 66.1 -94.85 61.55 -92.5 60.1 -89.7 59.2 L-87.4 58.55 -91.35 57.75 Q-96.05 56.5 -100.35 54.5 -113.9 48.15 -118.15 36.4 -121.0 28.45 -120.6 16.2 -120.1 2.1 -115.15 -9.75 -109.25 -23.95 -97.95 -31.65 -84.6 -40.7 -64.95 -39.75 -47.0 -38.85 -35.65 -6.2 -30.0 10.1 -27.95 26.25 -24.55 6.4 -17.0 -10.8 -1.85 -45.2 19.1 -32.1 32.85 -23.5 36.8 -7.95" fill="#bf7926" fill-rule="evenodd" stroke="none"/>
    <path d="M-49.95 29.25 Q-49.8 38.3 -56.75 44.8 -63.7 51.35 -73.65 51.55 -83.65 51.7 -90.8 45.4 -97.9 39.15 -98.05 30.1 -98.2 21.05 -91.35 14.55 -84.4 8.0 -74.4 7.85 -64.45 7.65 -57.3 13.95 -50.1 20.2 -49.95 29.25" fill="#ffffff" fill-rule="evenodd" stroke="none"/>
    <path d="M-49.95 29.25 Q-49.8 38.3 -56.75 44.8 -63.7 51.35 -73.65 51.55 -83.65 51.7 -90.8 45.4 -97.9 39.15 -98.05 30.1 -98.2 21.05 -91.35 14.55 -84.4 8.0 -74.4 7.85 -64.45 7.65 -57.3 13.95 -50.1 20.2 -49.95 29.25 Z" fill="none" stroke="#0091e0" stroke-linecap="round" stroke-linejoin="round" stroke-width="8.0"/>
    <path d="M-13.3 28.65 Q-13.15 37.7 -6.9 43.9 -0.7 50.25 7.95 50.1 16.6 49.95 22.6 43.4 28.6 36.95 28.45 27.9 28.3 18.85 22.05 12.55 15.85 6.25 7.2 6.4 -1.45 6.55 -7.45 13.05 -13.45 19.6 -13.3 28.65" fill="#ffffff" fill-rule="evenodd" stroke="none"/>
    <path d="M-13.3 28.65 Q-13.15 37.7 -6.9 43.9 -0.7 50.25 7.95 50.1 16.6 49.95 22.6 43.4 28.6 36.95 28.45 27.9 28.3 18.85 22.05 12.55 15.85 6.25 7.2 6.4 -1.45 6.55 -7.45 13.05 -13.45 19.6 -13.3 28.65 Z" fill="none" stroke="#0091e0" stroke-linecap="round" stroke-linejoin="round" stroke-width="8.0"/>
  </g>
</svg>
