<?xml version="1.0" encoding="UTF-8" standalone="no"?>
<svg xmlns:xlink="http://www.w3.org/1999/xlink" height="307.3px" width="303.65px" xmlns="http://www.w3.org/2000/svg">
  <g transform="matrix(1.0, 0.0, 0.0, 1.0, 154.1, 154.25)">
    <path d="M-145.7 -27.9 Q-136.0 -38.65 -121.1 -40.1 -106.15 -41.5 -94.75 -32.75 -83.25 -23.95 -81.95 -10.15 -80.65 3.7 -90.25 14.45 -99.85 25.2 -114.8 26.6 -129.7 28.05 -141.2 19.3 -152.65 10.5 -153.95 -3.35 -155.25 -17.15 -145.7 -27.9" fill="#724b4b" fill-rule="evenodd" stroke="none"/>
    <path d="M-103.6 -104.6 Q-88.15 -106.05 -76.05 -94.4 -63.85 -82.65 -62.15 -64.7 -60.45 -46.7 -70.25 -32.95 -79.9 -19.1 -95.35 -17.65 -110.85 -16.2 -123.1 -27.95 -135.2 -39.6 -136.9 -57.6 -138.6 -75.55 -128.9 -89.4 -119.1 -103.15 -103.6 -104.6" fill="#724b4b" fill-rule="evenodd" stroke="none"/>
    <path d="M-59.15 -74.95 Q-68.45 -63.35 -83.0 -61.95 -97.55 -60.6 -108.9 -70.25 -120.2 -79.85 -121.6 -94.85 -123.05 -109.8 -113.75 -121.4 -104.4 -132.95 -89.85 -134.3 -75.3 -135.7 -64.0 -126.1 -52.65 -116.45 -51.2 -101.5 -49.8 -86.5 -59.15 -74.95" fill="#724b4b" fill-rule="evenodd" stroke="none"/>
    <path d="M21.45 -101.65 Q12.45 -92.3 -1.45 -90.95 -15.35 -89.65 -25.95 -97.2 -36.6 -104.6 -37.7 -116.5 -38.85 -128.35 -29.8 -137.8 -20.8 -147.05 -6.9 -148.35 7.0 -149.7 17.6 -142.25 28.2 -134.7 29.35 -122.85 30.45 -110.95 21.45 -101.65" fill="#724b4b" fill-rule="evenodd" stroke="none"/>
    <path d="M96.6 -115.2 Q98.25 -97.45 87.0 -83.75 75.85 -70.05 58.35 -68.4 40.9 -66.75 27.25 -78.1 13.7 -89.45 12.05 -107.2 10.35 -125.0 21.5 -138.7 32.75 -152.4 50.2 -154.05 67.7 -155.7 81.25 -144.35 94.9 -133.0 96.6 -115.2" fill="#724b4b" fill-rule="evenodd" stroke="none"/>
    <path d="M112.7 -112.3 Q123.15 -113.3 131.4 -105.35 139.65 -97.55 140.8 -85.4 141.95 -73.3 135.3 -63.95 128.7 -54.75 118.25 -53.75 107.75 -52.75 99.5 -60.6 91.35 -68.5 90.2 -80.6 89.05 -92.75 95.6 -102.0 102.2 -111.3 112.7 -112.3" fill="#724b4b" fill-rule="evenodd" stroke="none"/>
    <path d="M111.5 -55.1 Q116.05 -63.05 123.4 -63.75 130.75 -64.45 136.65 -57.5 142.55 -50.5 143.55 -39.95 144.55 -29.35 140.05 -21.4 135.55 -13.4 128.2 -12.7 120.85 -12.0 114.9 -19.0 109.0 -25.95 108.0 -36.55 107.0 -47.1 111.5 -55.1" fill="#724b4b" fill-rule="evenodd" stroke="none"/>
    <path d="M111.5 -55.1 Q116.05 -63.05 123.4 -63.75 130.75 -64.45 136.65 -57.5 142.55 -50.5 143.55 -39.95 144.55 -29.35 140.05 -21.4 135.55 -13.4 128.2 -12.7 120.85 -12.0 114.9 -19.0 109.0 -25.95 108.0 -36.55 107.0 -47.1 111.5 -55.1 Z" fill="none" stroke="#a80f06" stroke-linecap="round" stroke-linejoin="round" stroke-opacity="0.0" stroke-width="6.0"/>
    <path d="M141.5 30.0 Q135.7 38.45 126.45 39.3 117.15 40.2 109.8 33.0 102.55 25.9 101.5 14.85 100.45 3.8 106.25 -4.7 112.15 -13.0 121.45 -13.9 130.7 -14.75 137.95 -7.7 145.35 -0.45 146.4 10.6 147.45 21.65 141.5 30.0" fill="#724b4b" fill-rule="evenodd" stroke="none"/>
    <path d="M141.5 30.0 Q135.7 38.45 126.45 39.3 117.15 40.2 109.8 33.0 102.55 25.9 101.5 14.85 100.45 3.8 106.25 -4.7 112.15 -13.0 121.45 -13.9 130.7 -14.75 137.95 -7.7 145.35 -0.45 146.4 10.6 147.45 21.65 141.5 30.0 Z" fill="none" stroke="#a80f06" stroke-linecap="round" stroke-linejoin="round" stroke-opacity="0.0" stroke-width="6.0"/>
    <path d="M-96.45 14.85 Q-86.6 23.15 -85.4 36.0 -84.15 48.9 -92.3 58.8 -100.35 68.75 -113.1 69.95 -125.8 71.2 -135.65 62.95 -145.45 54.7 -146.7 41.8 -147.9 28.95 -139.8 19.0 -131.65 9.1 -118.95 7.85 -106.2 6.65 -96.45 14.85" fill="#724b4b" fill-rule="evenodd" stroke="none"/>
    <path d="M-96.45 14.85 Q-86.6 23.15 -85.4 36.0 -84.15 48.9 -92.3 58.8 -100.35 68.75 -113.1 69.95 -125.8 71.2 -135.65 62.95 -145.45 54.7 -146.7 41.8 -147.9 28.95 -139.8 19.0 -131.65 9.1 -118.95 7.85 -106.2 6.65 -96.45 14.85 Z" fill="none" stroke="#a80f06" stroke-linecap="round" stroke-linejoin="round" stroke-opacity="0.0" stroke-width="6.0"/>
    <path d="M-69.9 67.15 Q-60.2 73.3 -59.25 83.25 -58.35 93.2 -66.7 101.0 -74.95 108.9 -87.65 110.1 -100.4 111.3 -110.05 105.1 -119.65 99.0 -120.55 89.05 -121.5 79.1 -113.25 71.25 -104.95 63.45 -92.2 62.25 -79.5 61.05 -69.9 67.15" fill="#724b4b" fill-rule="evenodd" stroke="none"/>
    <path d="M-69.9 67.15 Q-60.2 73.3 -59.25 83.25 -58.35 93.2 -66.7 101.0 -74.95 108.9 -87.65 110.1 -100.4 111.3 -110.05 105.1 -119.65 99.0 -120.55 89.05 -121.5 79.1 -113.25 71.25 -104.95 63.45 -92.2 62.25 -79.5 61.05 -69.9 67.15 Z" fill="none" stroke="#a80f06" stroke-linecap="round" stroke-linejoin="round" stroke-opacity="0.0" stroke-width="6.0"/>
    <path d="M-86.6 109.15 Q-87.7 97.4 -79.1 88.2 -70.45 79.1 -57.15 77.85 -43.85 76.6 -33.7 83.9 -23.55 91.35 -22.45 103.1 -21.3 114.85 -29.9 123.9 -38.5 133.1 -51.8 134.35 -65.1 135.6 -75.3 128.2 -85.45 120.9 -86.6 109.15" fill="#724b4b" fill-rule="evenodd" stroke="none"/>
    <path d="M-86.6 109.15 Q-87.7 97.4 -79.1 88.2 -70.45 79.1 -57.15 77.85 -43.85 76.6 -33.7 83.9 -23.55 91.35 -22.45 103.1 -21.3 114.85 -29.9 123.9 -38.5 133.1 -51.8 134.35 -65.1 135.6 -75.3 128.2 -85.45 120.9 -86.6 109.15 Z" fill="none" stroke="#a80f06" stroke-linecap="round" stroke-linejoin="round" stroke-opacity="0.0" stroke-width="6.0"/>
    <path d="M15.35 140.05 Q8.3 148.85 -2.85 149.9 -14.05 150.95 -22.8 143.65 -31.4 136.3 -32.45 124.9 -33.55 113.45 -26.45 104.65 -19.3 95.8 -8.1 94.75 3.05 93.7 11.7 101.05 20.4 108.35 21.5 119.8 22.55 131.2 15.35 140.05" fill="#724b4b" fill-rule="evenodd" stroke="none"/>
    <path d="M15.35 140.05 Q8.3 148.85 -2.85 149.9 -14.05 150.95 -22.8 143.65 -31.4 136.3 -32.45 124.9 -33.55 113.45 -26.45 104.65 -19.3 95.8 -8.1 94.75 3.05 93.7 11.7 101.05 20.4 108.35 21.5 119.8 22.55 131.2 15.35 140.05 Z" fill="none" stroke="#a80f06" stroke-linecap="round" stroke-linejoin="round" stroke-opacity="0.0" stroke-width="6.0"/>
    <path d="M41.9 64.3 Q57.2 62.85 69.0 71.15 80.7 79.6 82.0 92.85 83.25 106.1 73.25 116.45 63.25 126.95 47.95 128.4 32.6 129.85 20.85 121.4 9.15 113.1 7.9 99.85 6.6 86.6 16.6 76.1 26.55 65.75 41.9 64.3" fill="#724b4b" fill-rule="evenodd" stroke="none"/>
    <path d="M41.9 64.3 Q57.2 62.85 69.0 71.15 80.7 79.6 82.0 92.85 83.25 106.1 73.25 116.45 63.25 126.95 47.95 128.4 32.6 129.85 20.85 121.4 9.15 113.1 7.9 99.85 6.6 86.6 16.6 76.1 26.55 65.75 41.9 64.3 Z" fill="none" stroke="#a80f06" stroke-linecap="round" stroke-linejoin="round" stroke-opacity="0.0" stroke-width="6.0"/>
    <path d="M123.3 42.25 Q132.9 51.5 134.25 65.75 135.6 80.0 127.9 90.85 120.3 101.7 108.1 102.85 95.9 104.0 86.3 94.8 76.8 85.55 75.45 71.3 74.1 57.05 81.7 46.2 89.4 35.3 101.6 34.15 113.8 33.0 123.3 42.25" fill="#724b4b" fill-rule="evenodd" stroke="none"/>
    <path d="M123.3 42.25 Q132.9 51.5 134.25 65.75 135.6 80.0 127.9 90.85 120.3 101.7 108.1 102.85 95.9 104.0 86.3 94.8 76.8 85.55 75.45 71.3 74.1 57.05 81.7 46.2 89.4 35.3 101.6 34.15 113.8 33.0 123.3 42.25 Z" fill="none" stroke="#a80f06" stroke-linecap="round" stroke-linejoin="round" stroke-opacity="0.0" stroke-width="6.0"/>
    <path d="M-108.8 46.0 Q-102.15 32.35 -89.1 29.4 -76.05 26.5 -64.25 36.05 -52.35 45.65 -48.7 62.05 -45.0 78.5 -51.65 92.15 -58.25 105.9 -71.3 108.8 -84.35 111.75 -96.2 102.1 -107.95 92.6 -111.65 76.15 -115.3 59.75 -108.8 46.0" fill="#ff5515" fill-rule="evenodd" stroke="none"/>
    <path d="M-117.25 -17.3 Q-106.25 -19.75 -96.4 -12.25 -86.55 -4.7 -83.65 8.35 -80.7 21.4 -86.4 32.4 -92.15 43.4 -103.15 45.85 -114.2 48.3 -124.0 40.8 -133.85 33.3 -136.8 20.25 -139.7 7.2 -134.0 -3.85 -128.3 -14.85 -117.25 -17.3" fill="#ff5515" fill-rule="evenodd" stroke="none"/>
    <path d="M-53.6 88.55 Q-47.1 87.15 -41.3 91.6 -35.5 96.15 -33.75 103.95 -32.0 111.75 -35.35 118.25 -38.65 124.85 -45.15 126.25 -51.6 127.7 -57.45 123.2 -63.25 118.7 -65.0 110.9 -66.75 103.1 -63.4 96.55 -60.05 90.0 -53.6 88.55" fill="#ff5515" fill-rule="evenodd" stroke="none"/>
    <path d="M29.25 71.15 Q33.25 89.0 23.8 104.35 14.5 119.7 -2.8 123.6 -20.05 127.45 -35.15 117.55 -50.1 107.65 -54.1 89.8 -58.1 72.0 -48.8 56.65 -39.35 41.3 -22.1 37.45 -4.8 33.55 10.15 43.45 25.25 53.35 29.25 71.15" fill="#ff5515" fill-rule="evenodd" stroke="none"/>
    <path d="M92.1 76.75 Q94.45 87.25 86.45 96.9 78.45 106.55 64.75 109.6 51.0 112.7 39.65 107.35 28.3 102.05 25.95 91.55 23.6 81.05 31.6 71.4 39.6 61.85 53.35 58.75 67.05 55.7 78.4 60.95 89.75 66.25 92.1 76.75" fill="#ff5515" fill-rule="evenodd" stroke="none"/>
    <path d="M123.05 27.95 Q134.6 33.4 137.0 44.2 139.4 54.95 131.3 64.75 123.25 74.65 109.25 77.8 95.3 80.9 83.75 75.4 72.2 70.0 69.8 59.25 67.4 48.45 75.5 38.6 83.6 28.8 97.55 25.7 111.55 22.55 123.05 27.95" fill="#ff5515" fill-rule="evenodd" stroke="none"/>
    <path d="M-83.5 -32.15 Q-70.8 -35.0 -59.0 -24.45 -47.25 -13.9 -43.25 3.85 -39.3 21.6 -45.45 36.15 -51.65 50.65 -64.35 53.5 -77.1 56.35 -88.85 45.85 -100.65 35.3 -104.6 17.55 -108.6 -0.2 -102.4 -14.75 -96.25 -29.3 -83.5 -32.15" fill="#ff5515" fill-rule="evenodd" stroke="none"/>
    <path d="M-45.35 -72.25 Q-41.25 -53.8 -50.0 -38.1 -58.75 -22.4 -75.3 -18.7 -91.8 -15.0 -106.4 -25.5 -121.0 -35.95 -125.1 -54.4 -129.25 -72.85 -120.55 -88.55 -111.75 -104.2 -95.25 -107.9 -78.7 -111.6 -64.15 -101.15 -49.5 -90.7 -45.35 -72.25" fill="#ff5515" fill-rule="evenodd" stroke="none"/>
    <path d="M-1.2 -110.9 Q0.45 -103.4 -5.65 -96.6 -11.7 -89.65 -22.0 -87.35 -32.35 -85.05 -40.8 -88.7 -49.25 -92.3 -50.9 -99.8 -52.6 -107.25 -46.5 -114.15 -40.45 -121.05 -30.1 -123.35 -19.8 -125.65 -11.35 -122.05 -2.9 -118.35 -1.2 -110.9" fill="#ff5515" fill-rule="evenodd" stroke="none"/>
    <path d="M-4.6 -98.5 Q7.55 -92.4 10.2 -80.6 12.8 -68.8 4.45 -58.2 -3.85 -47.5 -18.25 -44.3 -32.6 -41.05 -44.7 -47.2 -56.75 -53.25 -59.35 -65.05 -62.0 -76.85 -53.75 -87.5 -45.35 -98.1 -31.0 -101.35 -16.6 -104.55 -4.6 -98.5" fill="#ff5515" fill-rule="evenodd" stroke="none"/>
    <path d="M70.4 -129.45 Q72.75 -119.05 65.4 -109.75 58.1 -100.4 45.5 -97.55 32.9 -94.75 22.3 -100.1 11.8 -105.4 9.45 -115.8 7.1 -126.2 14.4 -135.55 21.7 -144.85 34.3 -147.65 46.9 -150.5 57.5 -145.2 68.05 -139.85 70.4 -129.45" fill="#ff5515" fill-rule="evenodd" stroke="none"/>
    <path d="M112.1 -77.0 Q105.15 -68.6 93.15 -65.9 81.2 -63.25 71.2 -67.85 61.3 -72.5 59.25 -81.7 57.2 -90.9 64.15 -99.35 71.2 -107.8 83.15 -110.45 95.15 -113.15 105.05 -108.5 115.0 -103.85 117.05 -94.65 119.1 -85.45 112.1 -77.0" fill="#ff5515" fill-rule="evenodd" stroke="none"/>
    <path d="M116.05 -79.8 Q128.35 -72.5 131.35 -59.05 134.35 -45.55 126.35 -33.85 118.35 -22.0 104.0 -18.8 89.65 -15.6 77.4 -22.85 65.15 -30.05 62.15 -43.55 59.15 -57.0 67.1 -68.8 75.15 -80.55 89.5 -83.75 103.85 -86.95 116.05 -79.8" fill="#ff5515" fill-rule="evenodd" stroke="none"/>
    <path d="M126.6 12.65 Q120.55 22.35 109.5 24.85 98.5 27.3 88.95 21.1 79.4 15.0 76.85 3.8 74.35 -7.4 80.4 -17.05 86.45 -26.65 97.45 -29.1 108.5 -31.6 118.05 -25.5 127.6 -19.35 130.1 -8.15 132.65 3.05 126.6 12.65" fill="#ff5515" fill-rule="evenodd" stroke="none"/>
    <path d="M56.85 23.75 Q67.75 30.7 70.6 43.35 73.4 56.0 66.5 66.9 59.6 77.85 46.9 80.7 34.25 83.55 23.35 76.55 12.45 69.65 9.65 57.0 6.8 44.35 13.7 33.4 20.6 22.55 33.25 19.7 45.95 16.85 56.85 23.75" fill="#ff5515" fill-rule="evenodd" stroke="none"/>
    <path d="M9.2 14.0 Q13.2 31.85 3.75 47.2 -5.55 62.55 -22.85 66.45 -40.1 70.3 -55.2 60.4 -70.15 50.5 -74.15 32.65 -78.15 14.85 -68.85 -0.5 -59.4 -15.85 -42.15 -19.7 -24.85 -23.6 -9.9 -13.7 5.2 -3.8 9.2 14.0" fill="#ff5515" fill-rule="evenodd" stroke="none"/>
    <path d="M42.35 -8.75 Q46.35 9.1 36.9 24.45 27.6 39.8 10.3 43.7 -6.95 47.55 -22.05 37.65 -37.0 27.75 -41.0 9.9 -45.0 -7.9 -35.7 -23.25 -26.25 -38.6 -9.0 -42.45 8.3 -46.35 23.25 -36.45 38.35 -26.55 42.35 -8.75" fill="#ff5515" fill-rule="evenodd" stroke="none"/>
    <path d="M49.0 -65.35 Q53.0 -47.5 43.55 -32.15 34.25 -16.8 16.95 -12.9 -0.3 -9.05 -15.4 -18.95 -30.35 -28.85 -34.35 -46.7 -38.35 -64.5 -29.05 -79.85 -19.6 -95.2 -2.35 -99.05 14.95 -102.95 29.9 -93.05 45.0 -83.15 49.0 -65.35" fill="#ff5515" fill-rule="evenodd" stroke="none"/>
    <path d="M101.85 -5.3 Q105.85 12.55 96.4 27.9 87.1 43.25 69.8 47.15 52.55 51.0 37.45 41.1 22.5 31.2 18.5 13.35 14.5 -4.45 23.8 -19.8 33.25 -35.15 50.5 -39.0 67.8 -42.9 82.75 -33.0 97.85 -23.1 101.85 -5.3" fill="#ff5515" fill-rule="evenodd" stroke="none"/>
    <path d="M-96.6 15.85 Q-93.9 24.45 -96.95 32.1 -99.95 39.7 -106.85 41.85 -113.8 44.0 -120.65 39.45 -127.45 34.85 -130.15 26.25 -132.8 17.65 -129.8 10.05 -126.75 2.4 -119.8 0.25 -112.9 -1.9 -106.1 2.7 -99.25 7.25 -96.6 15.85" fill="#ffeea1" fill-rule="evenodd" stroke="none"/>
    <path d="M-81.8 -13.4 Q-71.55 -16.55 -61.2 -8.7 -50.85 -0.8 -46.4 13.45 -42.0 27.7 -46.05 40.1 -50.1 52.45 -60.35 55.6 -70.55 58.8 -80.9 50.95 -91.3 43.0 -95.7 28.75 -100.15 14.5 -96.05 2.15 -92.0 -10.2 -81.8 -13.4" fill="#ffeea1" fill-rule="evenodd" stroke="none"/>
    <path d="M-63.9 54.9 Q-55.3 60.65 -52.0 71.45 -48.65 82.2 -52.45 91.7 -56.25 101.35 -65.0 104.05 -73.8 106.8 -82.35 101.0 -90.9 95.35 -94.25 84.6 -97.55 73.8 -93.8 64.2 -89.95 54.7 -81.15 51.95 -72.4 49.25 -63.9 54.9" fill="#ffeea1" fill-rule="evenodd" stroke="none"/>
    <path d="M-39.1 61.2 Q-32.0 47.8 -17.6 43.3 -3.2 38.85 10.15 45.85 23.6 52.9 28.05 67.3 32.55 81.7 25.45 95.1 18.45 108.55 4.05 113.0 -10.35 117.5 -23.8 110.45 -37.15 103.4 -41.65 89.0 -46.1 74.6 -39.1 61.2" fill="#ffeea1" fill-rule="evenodd" stroke="none"/>
    <path d="M-19.95 35.8 Q-18.15 41.65 -21.0 47.1 -23.85 52.45 -29.65 54.3 -35.5 56.1 -40.9 53.25 -46.35 50.4 -48.15 44.55 -49.95 38.75 -47.1 33.3 -44.3 27.95 -38.45 26.15 -32.65 24.3 -27.2 27.15 -21.75 30.0 -19.95 35.8" fill="#ffeea1" fill-rule="evenodd" stroke="none"/>
    <path d="M78.8 52.25 Q89.25 56.1 92.1 65.4 95.0 74.65 88.65 83.85 82.3 93.0 70.4 96.7 58.55 100.4 48.1 96.45 37.7 92.5 34.8 83.25 31.95 73.95 38.25 64.85 44.7 55.7 56.55 52.0 68.45 48.3 78.8 52.25" fill="#ffeea1" fill-rule="evenodd" stroke="none"/>
    <path d="M-5.75 -47.8 Q9.5 -52.55 24.2 -43.55 38.85 -34.5 44.3 -17.0 49.75 0.55 42.8 16.2 35.8 31.95 20.55 36.7 5.3 41.45 -9.35 32.4 -24.05 23.5 -29.5 5.95 -34.95 -11.55 -27.95 -27.35 -21.0 -43.05 -5.75 -47.8" fill="#ffeea1" fill-rule="evenodd" stroke="none"/>
    <path d="M-29.8 -50.75 Q-26.0 -38.6 -31.7 -27.4 -37.25 -16.2 -49.05 -12.55 -60.8 -8.85 -71.85 -14.95 -82.75 -20.95 -86.55 -33.1 -90.3 -45.25 -84.75 -56.45 -79.05 -67.6 -67.3 -71.3 -55.5 -74.95 -44.6 -68.9 -33.55 -62.9 -29.8 -50.75" fill="#ffeea1" fill-rule="evenodd" stroke="none"/>
    <path d="M-73.55 -74.75 Q-62.85 -68.8 -59.15 -56.95 -55.45 -45.15 -60.95 -34.3 -66.35 -23.35 -77.75 -19.8 -89.2 -16.25 -99.9 -22.15 -110.5 -28.0 -114.2 -39.8 -117.9 -51.65 -112.5 -62.6 -107.0 -73.5 -95.55 -77.05 -84.15 -80.6 -73.55 -74.75" fill="#ffeea1" fill-rule="evenodd" stroke="none"/>
    <path d="M-11.6 -84.55 Q-10.0 -79.45 -15.45 -73.7 -20.85 -68.0 -30.15 -65.15 -39.4 -62.25 -47.2 -63.85 -54.9 -65.5 -56.5 -70.6 -58.1 -75.75 -52.65 -81.5 -47.15 -87.2 -37.9 -90.1 -28.6 -92.95 -20.9 -91.35 -13.2 -89.7 -11.6 -84.55" fill="#ffeea1" fill-rule="evenodd" stroke="none"/>
    <path d="M51.7 -62.45 Q55.8 -49.3 48.8 -36.85 41.75 -24.45 27.75 -20.05 13.7 -15.7 0.9 -21.95 -11.9 -28.25 -16.0 -41.4 -20.1 -54.6 -13.1 -66.95 -6.1 -79.4 7.95 -83.75 21.95 -88.15 34.8 -81.85 47.6 -75.65 51.7 -62.45" fill="#ffeea1" fill-rule="evenodd" stroke="none"/>
    <path d="M-15.8 -111.65 Q-14.6 -107.75 -18.4 -103.6 -22.15 -99.4 -28.7 -97.35 -35.3 -95.3 -40.85 -96.6 -46.35 -97.9 -47.55 -101.8 -48.75 -105.65 -44.95 -109.85 -41.15 -114.05 -34.55 -116.1 -28.0 -118.15 -22.5 -116.85 -17.0 -115.5 -15.8 -111.65" fill="#ffeea1" fill-rule="evenodd" stroke="none"/>
    <path d="M53.7 -138.7 Q55.4 -133.1 50.3 -127.15 45.2 -121.15 36.2 -118.4 27.25 -115.6 19.65 -117.6 12.05 -119.65 10.35 -125.25 8.6 -130.85 13.7 -136.8 18.8 -142.8 27.75 -145.6 36.75 -148.35 44.35 -146.35 51.95 -144.3 53.7 -138.7" fill="#ffeea1" fill-rule="evenodd" stroke="none"/>
    <path d="M29.05 -118.25 Q39.35 -121.45 49.85 -112.95 60.5 -104.55 65.2 -89.35 69.95 -74.15 66.0 -61.1 62.1 -48.15 51.8 -44.95 41.5 -41.75 30.9 -50.2 20.35 -58.7 15.6 -73.9 10.9 -89.1 14.75 -102.05 18.75 -115.05 29.05 -118.25" fill="#ffeea1" fill-rule="evenodd" stroke="none"/>
    <path d="M107.5 -97.25 Q110.2 -88.6 104.8 -80.3 99.45 -71.9 89.2 -68.7 79.0 -65.55 69.85 -69.45 60.75 -73.25 58.05 -81.9 55.35 -90.55 60.7 -98.95 66.05 -107.25 76.25 -110.4 86.5 -113.6 95.65 -109.8 104.8 -105.9 107.5 -97.25" fill="#ffeea1" fill-rule="evenodd" stroke="none"/>
    <path d="M85.6 -83.3 Q93.25 -85.65 100.75 -80.6 108.3 -75.6 111.25 -66.05 114.2 -56.55 110.85 -48.1 107.55 -39.7 99.9 -37.35 92.3 -34.95 84.8 -40.0 77.25 -45.05 74.3 -54.55 71.35 -64.1 74.7 -72.5 78.0 -80.9 85.6 -83.3" fill="#ffeea1" fill-rule="evenodd" stroke="none"/>
    <path d="M63.8 28.25 Q65.25 33.0 61.0 38.0 56.8 43.0 49.35 45.3 41.95 47.6 35.6 45.9 29.3 44.2 27.85 39.45 26.35 34.7 30.55 29.7 34.85 24.65 42.25 22.35 49.7 20.05 55.95 21.8 62.3 23.5 63.8 28.25" fill="#ffeea1" fill-rule="evenodd" stroke="none"/>
    <path d="M98.25 17.7 Q101.45 27.85 95.65 37.5 89.95 47.1 78.65 50.65 67.35 54.15 57.15 49.5 47.0 44.8 43.8 34.65 40.65 24.45 46.4 14.85 52.15 5.2 63.45 1.7 74.75 -1.85 84.9 2.85 95.1 7.5 98.25 17.7" fill="#ffeea1" fill-rule="evenodd" stroke="none"/>
    <path d="M111.05 -36.0 Q118.65 -30.3 121.85 -19.95 125.05 -9.6 122.05 -0.65 119.05 8.35 111.65 10.65 104.2 12.95 96.7 7.25 89.1 1.55 85.9 -8.8 82.7 -19.15 85.7 -28.1 88.7 -37.05 96.15 -39.35 103.55 -41.65 111.05 -36.0" fill="#ffeea1" fill-rule="evenodd" stroke="none"/>
    <path d="M88.25 -61.9 Q96.95 -54.45 100.95 -41.5 105.0 -28.55 102.05 -17.55 99.15 -6.55 90.95 -4.0 82.75 -1.45 74.05 -8.85 65.45 -16.25 61.4 -29.2 57.4 -42.15 60.25 -53.2 63.25 -64.2 71.45 -66.75 79.65 -69.3 88.25 -61.9" fill="#ffeea1" fill-rule="evenodd" stroke="none"/>
    <path d="M-54.5 -46.5 Q-39.25 -51.25 -24.55 -42.25 -9.9 -33.2 -4.45 -15.7 1.0 1.85 -5.95 17.5 -12.95 33.25 -28.2 38.0 -43.45 42.75 -58.1 33.7 -72.8 24.8 -78.25 7.25 -83.7 -10.25 -76.7 -26.05 -69.75 -41.75 -54.5 -46.5" fill="#ffeea1" fill-rule="evenodd" stroke="none"/>
    <path d="M18.1 43.1 Q29.35 47.45 33.95 58.35 38.6 69.25 33.9 80.25 29.3 91.35 18.1 96.1 6.95 100.85 -4.25 96.5 -15.4 92.2 -20.05 81.3 -24.65 70.4 -20.05 59.35 -15.35 48.3 -4.2 43.55 7.0 38.8 18.1 43.1" fill="#ffeea1" fill-rule="evenodd" stroke="none"/>
    <path d="M-31.15 -39.25 Q-27.4 -30.45 -30.75 -21.7 -34.0 -12.95 -42.4 -9.4 -50.8 -5.8 -59.4 -9.5 -67.95 -13.2 -71.7 -22.0 -75.4 -30.8 -72.2 -39.55 -68.85 -48.3 -60.45 -51.9 -52.05 -55.45 -43.55 -51.75 -34.85 -48.05 -31.15 -39.25" fill="#ffeea1" fill-rule="evenodd" stroke="none"/>
    <path d="M14.35 -6.1 Q19.45 5.95 14.45 18.1 9.55 30.3 -2.5 35.4 -14.55 40.55 -26.85 35.65 -38.95 30.8 -44.05 18.75 -49.15 6.75 -44.3 -5.5 -39.25 -17.65 -27.2 -22.8 -15.15 -27.9 -3.0 -23.05 9.25 -18.1 14.35 -6.1" fill="#ffffff" fill-rule="evenodd" stroke="none"/>
    <path d="M21.2 -109.8 Q27.75 -112.55 34.65 -109.25 41.6 -105.85 44.75 -98.3 47.95 -90.8 45.55 -83.55 43.2 -76.15 36.65 -73.4 30.1 -70.6 23.15 -74.0 16.25 -77.35 13.05 -84.85 9.9 -92.4 12.25 -99.7 14.65 -107.0 21.2 -109.8" fill="#ffeea1" fill-rule="evenodd" stroke="none"/>
    <path d="M33.5 -62.4 Q29.35 -72.15 33.05 -81.95 36.8 -91.7 46.2 -95.7 55.6 -99.7 65.2 -95.6 74.85 -91.5 79.0 -81.75 83.1 -72.0 79.35 -62.25 75.65 -52.5 66.25 -48.5 56.85 -44.5 47.2 -48.6 37.6 -52.65 33.5 -62.4" fill="#ffeea1" fill-rule="evenodd" stroke="none"/>
    <path d="M1.95 -75.85 Q13.1 -80.55 24.3 -76.05 35.55 -71.5 40.3 -60.35 45.0 -49.25 40.45 -38.05 35.95 -26.75 24.8 -22.05 13.7 -17.3 2.4 -21.9 -8.8 -26.4 -13.5 -37.5 -18.25 -48.65 -13.75 -59.9 -9.15 -71.1 1.95 -75.85" fill="#ffffff" fill-rule="evenodd" stroke="none"/>
    <path d="M-105.1 31.95 Q-108.2 30.1 -109.8 26.35 -111.4 22.55 -110.6 19.1 -109.75 15.65 -107.05 14.5 -104.35 13.35 -101.35 15.15 -98.25 16.95 -96.65 20.75 -95.05 24.5 -95.85 28.0 -96.65 31.45 -99.35 32.6 -102.05 33.75 -105.1 31.95" fill="#ffeea1" fill-rule="evenodd" stroke="none"/>
    <path d="M-89.5 4.85 Q-87.45 -4.15 -80.35 -7.15 -73.3 -10.15 -65.45 -5.35 -57.5 -0.45 -53.3 9.4 -49.1 19.25 -51.15 28.3 -53.1 37.35 -60.15 40.35 -67.25 43.35 -75.2 38.5 -83.05 33.65 -87.25 23.8 -91.45 13.95 -89.5 4.85" fill="#ffeea1" fill-rule="evenodd" stroke="none"/>
    <path d="M30.6 -84.65 Q39.15 -88.25 47.75 -84.7 56.35 -81.25 60.05 -72.65 63.7 -64.0 60.25 -55.35 56.8 -46.7 48.25 -43.1 39.7 -39.45 31.1 -42.95 22.5 -46.5 18.85 -55.15 15.15 -63.75 18.6 -72.3 22.05 -81.0 30.6 -84.65" fill="#ffffff" fill-rule="evenodd" stroke="none"/>
    <path d="M46.6 -55.65 Q55.55 -59.45 64.5 -55.9 73.55 -52.25 77.35 -43.25 81.2 -34.25 77.5 -25.25 73.9 -16.2 64.95 -12.4 55.95 -8.6 46.9 -12.25 37.95 -15.85 34.1 -24.85 30.3 -33.85 33.9 -42.9 37.6 -51.85 46.6 -55.65" fill="#ffffff" fill-rule="evenodd" stroke="none"/>
    <path d="M78.85 -3.75 Q82.75 5.4 78.7 14.65 74.7 24.05 65.15 28.1 55.65 32.15 46.1 28.5 36.65 25.0 32.75 15.85 28.85 6.7 32.85 -2.7 36.95 -11.95 46.45 -16.0 56.0 -20.05 65.45 -16.55 74.95 -12.9 78.85 -3.75" fill="#ffffff" fill-rule="evenodd" stroke="none"/>
    <path d="M-45.0 -57.55 Q-33.85 -62.25 -22.65 -57.75 -11.4 -53.2 -6.65 -42.05 -1.95 -30.95 -6.5 -19.75 -11.0 -8.45 -22.15 -3.75 -33.25 1.0 -44.55 -3.6 -55.75 -8.1 -60.45 -19.2 -65.2 -30.35 -60.7 -41.6 -56.1 -52.8 -45.0 -57.55" fill="#ffffff" fill-rule="evenodd" stroke="none"/>
    <path d="M49.4 -8.05 Q54.5 4.0 49.5 16.15 44.6 28.35 32.55 33.45 20.5 38.6 8.2 33.7 -3.9 28.85 -9.0 16.8 -14.1 4.8 -9.25 -7.45 -4.2 -19.6 7.85 -24.75 19.9 -29.85 32.05 -25.0 44.3 -20.05 49.4 -8.05" fill="#ffffff" fill-rule="evenodd" stroke="none"/>
    <path d="M-47.5 27.0 Q-45.55 26.15 -43.5 26.95 -41.45 27.75 -40.55 29.7 -39.7 31.65 -40.5 33.7 -41.3 35.7 -43.25 36.55 L-47.2 36.65 Q-49.3 35.9 -50.15 33.95 -51.05 32.0 -50.2 29.9 -49.45 27.9 -47.5 27.0" fill="#ffffff" fill-rule="evenodd" stroke="none"/>
    <path d="M-82.2 5.8 Q-76.15 3.1 -69.25 7.2 -62.3 11.3 -58.55 19.75 -54.8 28.2 -56.45 36.05 -58.05 43.9 -64.1 46.6 -70.15 49.3 -77.1 45.2 -84.0 41.1 -87.75 32.65 -91.5 24.2 -89.9 16.35 -88.25 8.5 -82.2 5.8" fill="#ffffff" fill-rule="evenodd" stroke="none"/>
    <path d="M54.45 -35.35 Q59.55 -23.3 54.55 -11.15 49.65 1.05 37.6 6.15 25.55 11.3 13.25 6.4 1.15 1.55 -3.95 -10.5 -9.05 -22.5 -4.2 -34.75 0.85 -46.9 12.9 -52.05 24.95 -57.15 37.1 -52.3 49.35 -47.35 54.45 -35.35" fill="#ffffff" fill-rule="evenodd" stroke="none"/>
  </g>
</svg>
