<?xml version="1.0" encoding="UTF-8" standalone="no"?>
<svg xmlns:xlink="http://www.w3.org/1999/xlink" height="28.85px" width="55.1px" xmlns="http://www.w3.org/2000/svg">
  <g transform="matrix(1.0, 0.0, 0.0, 1.0, 27.55, 14.4)">
    <path d="M9.2 -13.45 Q9.65 -13.0 9.7 -12.1 L9.45 -10.3 7.85 -6.5 26.05 -14.3 Q26.65 -14.6 27.0 -14.1 27.45 -13.75 27.55 -12.75 27.55 -11.95 27.15 -11.05 L26.3 -9.75 -1.7 9.45 -2.7 9.5 Q-3.05 9.2 -3.2 8.5 -3.45 7.65 -3.2 6.8 L-2.75 4.95 -13.9 13.1 Q-14.5 13.55 -14.9 13.25 -15.35 12.95 -15.5 12.1 L-15.35 10.35 -14.7 7.9 -26.0 14.35 Q-26.45 14.55 -26.8 14.35 L-27.4 13.65 -27.55 12.4 -26.6 -1.55 Q-26.55 -2.45 -26.15 -3.2 L-25.25 -4.2 -5.75 -13.1 -4.75 -13.0 Q-4.4 -12.6 -4.35 -11.8 -4.2 -11.0 -4.5 -10.15 L-6.0 -5.45 8.2 -13.55 9.2 -13.45 M9.15 -13.3 Q8.75 -13.6 8.2 -13.3 L-6.25 -5.05 -4.6 -10.15 Q-4.35 -11.05 -4.45 -11.7 L-4.85 -12.75 -5.75 -12.85 -25.25 -3.95 -26.05 -3.05 -26.45 -1.55 -27.4 12.3 -27.25 13.45 -26.75 14.1 -26.05 14.05 -14.4 7.45 -15.3 10.4 -15.35 12.0 Q-15.3 12.7 -14.8 13.0 L-13.95 12.95 -2.55 4.55 -3.05 6.85 Q-3.25 7.6 -3.05 8.35 L-2.6 9.25 -1.7 9.2 26.3 -10.0 27.1 -11.15 27.35 -12.65 Q27.3 -13.5 26.9 -13.9 26.6 -14.35 26.05 -14.05 L7.55 -6.15 9.3 -10.35 9.6 -12.0 Q9.55 -12.9 9.15 -13.3" fill="#ffffff" fill-opacity="0.09411765" fill-rule="evenodd" stroke="none"/>
    <path d="M9.05 -13.05 L8.25 -13.15 -6.5 -4.65 -4.75 -10.3 -4.6 -11.6 Q-4.65 -12.2 -5.0 -12.6 L-5.75 -12.7 -25.25 -3.75 -26.0 -2.85 -26.35 -1.65 -27.25 12.3 -27.15 13.35 -26.7 13.85 Q-26.4 14.05 -26.05 13.85 L-14.15 7.1 -15.15 10.45 -15.25 11.85 Q-15.1 12.5 -14.75 12.75 L-13.95 12.7 -2.3 4.2 -2.95 6.9 -3.0 8.25 Q-2.9 8.85 -2.5 9.05 L-1.7 8.95 26.25 -10.3 26.95 -11.25 27.15 -12.65 Q27.15 -13.4 26.8 -13.65 26.55 -14.1 26.1 -13.9 L7.25 -5.7 9.15 -10.5 Q9.5 -11.2 9.45 -11.9 L9.05 -13.05 M9.15 -13.3 Q9.55 -12.9 9.6 -12.0 L9.3 -10.35 7.55 -6.15 26.05 -14.05 Q26.6 -14.35 26.9 -13.9 27.3 -13.5 27.35 -12.65 L27.1 -11.15 26.3 -10.0 -1.7 9.2 -2.6 9.25 -3.05 8.35 Q-3.25 7.6 -3.05 6.85 L-2.55 4.55 -13.95 12.95 -14.8 13.0 Q-15.3 12.7 -15.35 12.0 L-15.3 10.4 -14.4 7.45 -26.05 14.05 -26.75 14.1 -27.25 13.45 -27.4 12.3 -26.45 -1.55 -26.05 -3.05 -25.25 -3.95 -5.75 -12.85 -4.85 -12.75 -4.45 -11.7 Q-4.35 -11.05 -4.6 -10.15 L-6.25 -5.05 8.2 -13.3 Q8.75 -13.6 9.15 -13.3" fill="#ffffff" fill-opacity="0.19607843" fill-rule="evenodd" stroke="none"/>
    <path d="M9.05 -13.05 L9.45 -11.9 Q9.5 -11.2 9.15 -10.5 L7.25 -5.7 26.1 -13.9 Q26.55 -14.1 26.8 -13.65 27.15 -13.4 27.15 -12.65 L26.95 -11.25 26.25 -10.3 -1.7 8.95 -2.5 9.05 Q-2.9 8.85 -3.0 8.25 L-2.95 6.9 -2.3 4.2 -13.95 12.7 -14.75 12.75 Q-15.1 12.5 -15.25 11.85 L-15.15 10.45 -14.15 7.1 -26.05 13.85 Q-26.4 14.05 -26.7 13.85 L-27.15 13.35 -27.25 12.3 -26.35 -1.65 -26.0 -2.85 -25.25 -3.75 -5.75 -12.7 -5.0 -12.6 Q-4.65 -12.2 -4.6 -11.6 L-4.75 -10.3 -6.5 -4.65 8.25 -13.15 9.05 -13.05 M8.95 -12.8 L8.25 -12.85 -6.75 -4.25 -4.9 -10.35 Q-4.65 -10.95 -4.75 -11.5 L-5.05 -12.35 -5.75 -12.45 -25.25 -3.5 -25.85 -2.8 -26.15 -1.7 -27.1 12.25 -27.0 13.15 -26.65 13.65 -26.05 13.65 -13.9 6.8 -15.0 10.5 Q-15.25 11.1 -15.1 11.75 L-14.65 12.55 -14.0 12.5 -2.05 3.8 -2.8 6.95 -2.85 8.1 -2.45 8.8 -1.7 8.75 26.25 -10.45 26.85 -11.3 27.1 -12.55 26.75 -13.5 26.1 -13.6 7.0 -5.4 9.1 -10.55 9.3 -11.85 8.95 -12.8" fill="#ffffff" fill-opacity="0.29411766" fill-rule="evenodd" stroke="none"/>
    <path d="M8.85 -12.6 L8.3 -12.7 -7.0 -3.9 -5.0 -10.4 Q-4.85 -10.9 -4.85 -11.4 L-5.15 -12.1 -5.75 -12.2 -25.25 -3.25 -25.75 -2.65 -26.05 -1.65 -26.95 12.25 -26.85 13.0 -26.5 13.45 -26.05 13.4 -13.65 6.35 -14.95 10.6 -14.95 11.6 -14.6 12.3 -14.0 12.25 -1.8 3.35 -2.7 7.0 -2.7 8.0 -2.3 8.6 -1.75 8.5 26.2 -10.75 26.75 -11.4 26.9 -12.45 26.65 -13.3 26.05 -13.35 6.65 -5.1 9.0 -10.7 9.15 -11.75 8.85 -12.6 M8.95 -12.8 L9.3 -11.85 9.1 -10.55 7.0 -5.4 26.1 -13.6 26.75 -13.5 27.1 -12.55 26.85 -11.3 26.25 -10.45 -1.7 8.75 -2.45 8.8 -2.85 8.1 -2.8 6.95 -2.05 3.8 -14.0 12.5 -14.65 12.55 -15.1 11.75 Q-15.25 11.1 -15.0 10.5 L-13.9 6.8 -26.05 13.65 -26.65 13.65 -27.0 13.15 -27.1 12.25 -26.15 -1.7 -25.85 -2.8 -25.25 -3.5 -5.75 -12.45 -5.05 -12.35 -4.75 -11.5 Q-4.65 -10.95 -4.9 -10.35 L-6.75 -4.25 8.25 -12.85 8.95 -12.8" fill="#ffffff" fill-opacity="0.39607844" fill-rule="evenodd" stroke="none"/>
    <path d="M8.85 -12.6 L9.15 -11.75 9.0 -10.7 6.65 -5.1 26.05 -13.35 26.65 -13.3 26.9 -12.45 26.75 -11.4 26.2 -10.75 -1.75 8.5 -2.3 8.6 -2.7 8.0 -2.7 7.0 -1.8 3.35 -14.0 12.25 -14.6 12.3 -14.95 11.6 -14.95 10.6 -13.65 6.35 -26.05 13.4 -26.5 13.45 -26.85 13.0 -26.95 12.25 -26.05 -1.65 -25.75 -2.65 -25.25 -3.25 -5.75 -12.2 -5.15 -12.1 -4.85 -11.4 Q-4.85 -10.9 -5.0 -10.4 L-7.0 -3.9 8.3 -12.7 8.85 -12.6 M8.8 -12.4 Q8.55 -12.6 8.3 -12.4 L-7.3 -3.5 -5.05 -10.45 Q-4.95 -10.85 -5.0 -11.3 L-5.3 -11.9 -5.75 -11.95 -25.25 -3.0 -25.65 -2.55 -25.95 -1.65 -26.8 12.25 -26.75 12.85 -26.45 13.2 -26.05 13.15 -13.4 6.0 -14.8 10.65 -14.85 11.5 -14.5 12.1 -14.05 12.05 -1.55 2.95 -2.55 7.0 -2.6 7.8 -2.3 8.35 -1.8 8.3 26.15 -10.9 26.65 -11.5 26.8 -12.4 26.55 -13.05 26.05 -13.15 6.35 -4.65 8.9 -10.8 9.0 -11.7 8.8 -12.4" fill="#ffffff" fill-opacity="0.49803922" fill-rule="evenodd" stroke="none"/>
    <path d="M8.8 -12.4 L9.0 -11.7 8.9 -10.8 6.35 -4.65 26.05 -13.15 26.55 -13.05 26.8 -12.4 26.65 -11.5 26.15 -10.9 -1.8 8.3 -2.3 8.35 -2.6 7.8 -2.55 7.0 -1.55 2.95 -14.05 12.05 -14.5 12.1 -14.85 11.5 -14.8 10.65 -13.4 6.0 -26.05 13.15 -26.45 13.2 -26.75 12.85 -26.8 12.25 -25.95 -1.65 -25.65 -2.55 -25.25 -3.0 -5.75 -11.95 -5.3 -11.9 -5.0 -11.3 Q-4.95 -10.85 -5.05 -10.45 L-7.3 -3.5 8.3 -12.4 Q8.55 -12.6 8.8 -12.4 M8.75 -12.15 Q8.55 -12.35 8.25 -12.15 L-7.6 -3.15 -5.2 -10.5 -5.15 -11.2 -5.35 -11.65 -5.75 -11.8 -25.25 -2.8 -25.65 -2.45 -25.75 -1.75 -26.65 12.2 -26.65 12.7 -26.4 13.0 -26.05 12.95 -13.15 5.55 -14.65 10.7 -14.65 11.45 -14.45 11.85 -14.05 11.8 -1.4 2.55 -2.45 7.05 -2.45 7.7 -2.2 8.15 -1.8 8.05 26.15 -11.1 26.5 -11.6 26.65 -12.25 26.4 -12.85 Q26.3 -13.1 26.05 -13.0 L6.1 -4.3 8.8 -10.85 8.9 -11.65 8.75 -12.15" fill="#ffffff" fill-opacity="0.59607846" fill-rule="evenodd" stroke="none"/>
    <path d="M8.65 -11.9 L8.35 -12.0 -7.8 -2.7 -5.35 -10.65 -5.25 -11.1 -5.4 -11.45 -5.75 -11.5 -25.25 -2.6 -25.5 -2.25 -25.65 -1.75 -26.55 12.15 -26.5 12.5 -26.4 12.75 -26.05 12.7 -12.9 5.25 -14.55 10.75 -14.55 11.3 -14.35 11.65 -14.1 11.6 -1.15 2.1 -2.3 7.1 -2.3 7.55 -2.15 7.9 -1.85 7.85 26.1 -11.35 26.4 -11.65 26.45 -12.25 26.4 -12.65 26.1 -12.7 5.75 -3.9 8.65 -10.95 8.75 -11.55 8.65 -11.9 M8.75 -12.15 L8.9 -11.65 8.8 -10.85 6.1 -4.3 26.05 -13.0 Q26.3 -13.1 26.4 -12.85 L26.65 -12.25 26.5 -11.6 26.15 -11.1 -1.8 8.05 -2.2 8.15 -2.45 7.7 -2.45 7.05 -1.4 2.55 -14.05 11.8 -14.45 11.85 -14.65 11.45 -14.65 10.7 -13.15 5.55 -26.05 12.95 -26.4 13.0 -26.65 12.7 -26.65 12.2 -25.75 -1.75 -25.65 -2.45 -25.25 -2.8 -5.75 -11.8 -5.35 -11.65 -5.15 -11.2 -5.2 -10.5 -7.6 -3.15 8.25 -12.15 Q8.55 -12.35 8.75 -12.15" fill="#ffffff" fill-opacity="0.69803923" fill-rule="evenodd" stroke="none"/>
    <path d="M8.55 -11.75 L8.3 -11.75 -8.05 -2.35 -5.45 -10.7 -5.4 -11.0 -5.5 -11.3 -5.7 -11.25 -25.25 -2.3 -25.4 -2.1 -25.5 -1.8 -26.4 12.1 -26.4 12.4 -26.25 12.5 -26.1 12.55 -12.7 4.85 -14.4 10.8 -14.4 11.2 -14.3 11.4 -14.1 11.35 -0.9 1.8 -2.2 7.15 -2.2 7.45 -2.05 7.65 -1.9 7.65 26.1 -11.6 26.3 -11.8 26.4 -12.2 26.3 -12.4 26.1 -12.45 5.5 -3.65 8.5 -11.1 8.6 -11.45 8.55 -11.75 M8.65 -11.9 L8.75 -11.55 8.65 -10.95 5.75 -3.9 26.1 -12.7 26.4 -12.65 26.45 -12.25 26.4 -11.65 26.1 -11.35 -1.85 7.85 -2.15 7.9 -2.3 7.55 -2.3 7.1 -1.15 2.1 -14.1 11.6 -14.35 11.65 -14.55 11.3 -14.55 10.75 -12.9 5.25 -26.05 12.7 -26.4 12.75 -26.5 12.5 -26.55 12.15 -25.65 -1.75 -25.5 -2.25 -25.25 -2.6 -5.75 -11.5 -5.4 -11.45 -5.25 -11.1 -5.35 -10.65 -7.8 -2.7 8.35 -12.0 8.65 -11.9" fill="#ffffff" fill-opacity="0.79607844" fill-rule="evenodd" stroke="none"/>
    <path d="M8.55 -11.75 L8.6 -11.45 8.5 -11.1 5.5 -3.65 26.1 -12.45 26.3 -12.4 26.4 -12.2 26.3 -11.8 26.1 -11.6 -1.9 7.65 -2.05 7.65 -2.2 7.45 -2.2 7.15 -0.9 1.8 -14.1 11.35 -14.3 11.4 -14.4 11.2 -14.4 10.8 -12.7 4.85 -26.1 12.55 -26.25 12.5 -26.4 12.4 -26.4 12.1 -25.5 -1.8 -25.4 -2.1 -25.25 -2.3 -5.7 -11.25 -5.5 -11.3 -5.4 -11.0 -5.45 -10.7 -8.05 -2.35 8.3 -11.75 8.55 -11.75 M8.4 -11.5 L8.35 -11.5 -8.4 -1.9 -5.55 -10.9 -5.6 -11.05 -5.75 -11.05 -25.25 -2.05 -25.25 -2.0 -25.35 -1.85 -26.3 12.05 -26.3 12.2 -26.2 12.25 -26.1 12.25 -12.4 4.45 -14.25 10.85 -14.25 11.1 -14.15 11.15 -14.15 11.2 -0.7 1.3 -2.05 7.15 -2.05 7.35 -1.95 7.4 -1.9 7.45 26.1 -11.75 26.2 -11.95 26.25 -12.1 26.2 -12.25 26.05 -12.2 5.2 -3.25 8.45 -11.2 8.5 -11.35 8.4 -11.5" fill="#ffffff" fill-opacity="0.8980392" fill-rule="evenodd" stroke="none"/>
    <path d="M8.4 -11.5 L8.5 -11.35 8.45 -11.2 5.2 -3.25 26.05 -12.2 26.2 -12.25 26.25 -12.1 26.2 -11.95 26.1 -11.75 -1.9 7.45 -1.95 7.4 -2.05 7.35 -2.05 7.15 -0.7 1.3 -14.15 11.2 -14.15 11.15 -14.25 11.1 -14.25 10.85 -12.4 4.45 -26.1 12.25 -26.2 12.25 -26.3 12.2 -26.3 12.05 -25.35 -1.85 -25.25 -2.0 -25.25 -2.05 -5.75 -11.05 -5.6 -11.05 -5.55 -10.9 -8.4 -1.9 8.35 -11.5 8.4 -11.5 M4.9 -2.9 L8.35 -11.35 -8.6 -1.55 -5.7 -10.8 -25.25 -1.9 -26.15 12.05 -12.2 4.1 -14.15 10.9 -0.4 0.9 -1.9 7.2 26.1 -12.0 4.9 -2.9" fill="#ffffff" fill-rule="evenodd" stroke="none"/>
    <path d="M4.9 -2.9 L26.1 -12.0 -1.9 7.2 -0.4 0.9 -14.15 10.9 -12.2 4.1 -26.15 12.05 -25.25 -1.9 -5.7 -10.8 -8.6 -1.55 8.35 -11.35 4.9 -2.9" fill="url(#gradient0)" fill-rule="evenodd" stroke="none"/>
  </g>
  <defs>
    <radialGradient cx="0" cy="0" gradientTransform="matrix(0.0656, 0.0199, -0.0184, 0.0779, -25.75, 3.8)" gradientUnits="userSpaceOnUse" id="gradient0" r="819.2" spreadMethod="pad">
      <stop offset="0.0" stop-color="#ffffff"/>
      <stop offset="1.0" stop-color="#a100b4"/>
    </radialGradient>
  </defs>
</svg>
