<?xml version="1.0" encoding="UTF-8" standalone="no"?>
<svg xmlns:xlink="http://www.w3.org/1999/xlink" height="137.2px" width="102.65px" xmlns="http://www.w3.org/2000/svg">
  <g transform="matrix(1.0, 0.0, 0.0, 1.0, 56.85, 68.65)">
    <path d="M1.4 -64.7 L0.0 -67.15 -1.4 -64.7 -8.9 -51.65 -13.85 -43.0 -20.5 -44.8 -22.95 -45.45 -22.3 -43.0 -20.35 -36.05 -39.55 -41.25 -52.9 -44.8 -55.35 -45.45 -54.7 -43.0 -51.05 -29.75 -45.35 -8.25 -35.95 -9.3 -45.95 -0.45 -34.85 9.4 -45.2 8.2 -51.0 29.6 -54.55 42.95 -55.2 45.4 -52.75 44.75 -39.5 41.1 -20.3 36.05 -22.15 42.95 -22.8 45.4 -20.35 44.75 -13.8 42.95 -8.9 51.55 -1.35 64.6 0.05 67.05 1.45 64.6 8.95 51.55 15.55 40.15 19.4 41.2 32.75 44.75 35.2 45.4 34.75 43.65 39.0 44.75 41.45 45.4 40.8 42.95 37.15 29.7 31.45 8.2 25.4 8.9 25.2 8.2 6.15 10.4 -11.1 8.4 -1.15 -0.45 -1.1 -0.55 -10.15 -8.55 6.0 -10.4 25.05 -8.25 25.3 -9.1 31.3 -8.4 37.1 -29.8 40.65 -43.15 41.3 -45.6 38.85 -44.95 34.6 -43.75 35.05 -45.45 32.6 -44.8 19.35 -41.15 15.6 -40.15 8.95 -51.65 1.4 -64.7 M-18.25 -28.2 L-13.9 -11.9 -20.2 -17.45 -18.9 -28.75 -18.25 -28.2 M-20.15 16.4 L-18.75 28.6 -18.2 28.15 -13.4 10.4 -20.15 16.4" fill="none" stroke="#3f3e3e" stroke-linecap="round" stroke-linejoin="round" stroke-width="3.0"/>
    <path d="M7.05 11.0 L31.45 8.2 37.15 29.7 40.8 42.95 41.45 45.4 7.05 11.0" fill="#514e4e" fill-rule="evenodd" stroke="none"/>
    <path d="M41.45 45.4 L39.0 44.75 25.65 41.2 4.25 35.4 7.05 11.0 41.45 45.4" fill="#696868" fill-rule="evenodd" stroke="none"/>
    <path d="M4.25 35.4 L41.45 45.4 31.45 8.2 7.05 11.0 4.25 35.4 Z" fill="none" stroke="#3f3e3e" stroke-linecap="butt" stroke-linejoin="round" stroke-width="1.0"/>
    <path d="M6.9 -11.2 L4.1 -35.6 25.6 -41.3 38.85 -44.95 41.3 -45.6 6.9 -11.2" fill="#514e4e" fill-rule="evenodd" stroke="none"/>
    <path d="M41.3 -45.6 L40.65 -43.15 37.1 -29.8 31.3 -8.4 6.9 -11.2 41.3 -45.6" fill="#696868" fill-rule="evenodd" stroke="none"/>
    <path d="M31.3 -8.4 L41.3 -45.6 4.1 -35.6 6.9 -11.2 31.3 -8.4 Z" fill="none" stroke="#3f3e3e" stroke-linecap="butt" stroke-linejoin="round" stroke-width="1.0"/>
    <path d="M11.45 -11.05 L-12.95 -8.25 -18.65 -29.75 -22.3 -43.0 -22.95 -45.45 11.45 -11.05" fill="#514e4e" fill-rule="evenodd" stroke="none"/>
    <path d="M-22.95 -45.45 L-20.5 -44.8 -7.15 -41.25 14.25 -35.45 11.45 -11.05 -22.95 -45.45" fill="#696868" fill-rule="evenodd" stroke="none"/>
    <path d="M14.25 -35.45 L-22.95 -45.45 -12.95 -8.25 11.45 -11.05 14.25 -35.45 Z" fill="none" stroke="#3f3e3e" stroke-linecap="butt" stroke-linejoin="round" stroke-width="1.0"/>
    <path d="M11.6 11.0 L14.4 35.4 -7.1 41.1 -20.35 44.75 -22.8 45.4 11.6 11.0" fill="#514e4e" fill-rule="evenodd" stroke="none"/>
    <path d="M-22.8 45.4 L-22.15 42.95 -18.6 29.6 -12.8 8.2 11.6 11.0 -22.8 45.4" fill="#696868" fill-rule="evenodd" stroke="none"/>
    <path d="M-12.8 8.2 L-22.8 45.4 14.4 35.4 11.6 11.0 -12.8 8.2 Z" fill="none" stroke="#3f3e3e" stroke-linecap="butt" stroke-linejoin="round" stroke-width="1.0"/>
    <path d="M0.0 -67.15 L0.0 -13.7 -21.1 -30.5 -8.9 -51.65 -1.4 -64.7 0.0 -67.15" fill="#514e4e" fill-rule="evenodd" stroke="none"/>
    <path d="M0.0 -67.15 L1.4 -64.7 8.95 -51.65 21.1 -30.5 0.0 -13.7 0.0 -67.15" fill="#696868" fill-rule="evenodd" stroke="none"/>
    <path d="M0.0 -13.7 L21.1 -30.5 0.0 -67.15 -21.1 -30.5 0.0 -13.7 Z" fill="none" stroke="#3f3e3e" stroke-linecap="butt" stroke-linejoin="round" stroke-width="1.0"/>
    <path d="M0.05 13.6 L21.15 30.4 8.95 51.55 1.45 64.6 0.05 67.05 0.05 13.6" fill="#514e4e" fill-rule="evenodd" stroke="none"/>
    <path d="M0.05 13.6 L0.05 67.05 -1.35 64.6 -8.9 51.55 -21.05 30.4 0.05 13.6" fill="#696868" fill-rule="evenodd" stroke="none"/>
    <path d="M-20.95 -11.05 L-45.35 -8.25 -51.05 -29.75 -54.7 -43.0 -55.35 -45.45 -20.95 -11.05" fill="#514e4e" fill-rule="evenodd" stroke="none"/>
    <path d="M-55.35 -45.45 L-52.9 -44.8 -39.55 -41.25 -18.15 -35.45 -20.95 -11.05 -55.35 -45.45" fill="#696868" fill-rule="evenodd" stroke="none"/>
    <path d="M-18.15 -35.45 L-55.35 -45.45 -45.35 -8.25 -20.95 -11.05 -18.15 -35.45 Z" fill="none" stroke="#3f3e3e" stroke-linecap="butt" stroke-linejoin="round" stroke-width="1.0"/>
    <path d="M-20.8 11.0 L-18.0 35.4 -39.5 41.1 -52.75 44.75 -55.2 45.4 -20.8 11.0" fill="#514e4e" fill-rule="evenodd" stroke="none"/>
    <path d="M-55.2 45.4 L-54.55 42.95 -51.0 29.6 -45.2 8.2 -20.8 11.0 -55.2 45.4" fill="#696868" fill-rule="evenodd" stroke="none"/>
    <path d="M-45.2 8.2 L-55.2 45.4 -18.0 35.4 -20.8 11.0 -45.2 8.2 Z" fill="none" stroke="#3f3e3e" stroke-linecap="butt" stroke-linejoin="round" stroke-width="1.0"/>
    <path d="M0.05 13.6 L-21.05 30.4 0.05 67.05 21.15 30.4 0.05 13.6 Z" fill="none" stroke="#3f3e3e" stroke-linecap="butt" stroke-linejoin="round" stroke-width="1.0"/>
    <path d="M31.2 -31.15 Q44.3 -18.05 44.3 0.3 44.3 18.7 31.2 31.7 18.2 44.8 -0.2 44.8 -18.6 44.8 -31.65 31.7 -44.7 18.7 -44.7 0.3 -44.7 -18.05 -31.65 -31.15 -18.6 -44.15 -0.2 -44.15 18.2 -44.15 31.2 -31.15" fill="#232222" fill-rule="evenodd" stroke="none"/>
    <path d="M31.2 -31.15 Q44.3 -18.05 44.3 0.3 44.3 18.7 31.2 31.7 18.2 44.8 -0.2 44.8 -18.6 44.8 -31.65 31.7 -44.7 18.7 -44.7 0.3 -44.7 -18.05 -31.65 -31.15 -18.6 -44.15 -0.2 -44.15 18.2 -44.15 31.2 -31.15 Z" fill="none" stroke="#121212" stroke-linecap="butt" stroke-linejoin="round" stroke-width="3.0"/>
    <path d="M0.65 -11.05 L-2.15 -35.45 19.35 -41.15 32.6 -44.8 35.05 -45.45 0.65 -11.05" fill="#514e4e" fill-rule="evenodd" stroke="none"/>
    <path d="M35.05 -45.45 L34.4 -43.0 30.85 -29.65 25.05 -8.25 0.65 -11.05 35.05 -45.45" fill="#696868" fill-rule="evenodd" stroke="none"/>
    <path d="M-1.15 -0.45 L-23.55 19.4 -45.95 -0.45 -1.15 -0.45" fill="#696868" fill-rule="evenodd" stroke="none"/>
    <path d="M-45.95 -0.45 L-23.5 -20.4 -1.1 -0.55 -1.15 -0.45 -45.95 -0.45" fill="#514e4e" fill-rule="evenodd" stroke="none"/>
    <path d="M-45.95 -0.45 L-23.5 -20.4 -1.1 -0.55 -23.55 19.4 -45.95 -0.45 Z" fill="none" stroke="#3f3e3e" stroke-linecap="round" stroke-linejoin="round" stroke-width="1.0"/>
    <path d="M25.05 -8.25 L35.05 -45.45 -2.15 -35.45 0.65 -11.05 25.05 -8.25 Z" fill="none" stroke="#3f3e3e" stroke-linecap="butt" stroke-linejoin="round" stroke-width="1.0"/>
    <path d="M0.8 11.0 L25.2 8.2 30.9 29.7 34.55 42.95 35.2 45.4 0.8 11.0" fill="#514e4e" fill-rule="evenodd" stroke="none"/>
    <path d="M35.2 45.4 L32.75 44.75 19.4 41.2 -2.0 35.4 0.8 11.0 35.2 45.4" fill="#696868" fill-rule="evenodd" stroke="none"/>
    <path d="M-2.0 35.4 L35.2 45.4 25.2 8.2 0.8 11.0 -2.0 35.4 Z" fill="none" stroke="#3f3e3e" stroke-linecap="butt" stroke-linejoin="round" stroke-width="1.0"/>
  </g>
</svg>
