<?xml version="1.0" encoding="UTF-8" standalone="no"?>
<svg xmlns:xlink="http://www.w3.org/1999/xlink" height="137.2px" width="110.1px" xmlns="http://www.w3.org/2000/svg">
  <g transform="matrix(1.0, 0.0, 0.0, 1.0, 55.05, 68.65)">
    <path d="M1.4 -64.7 L0.0 -67.15 -1.4 -64.7 -8.9 -51.65 -14.95 -41.15 -15.25 -41.25 -28.6 -44.8 -31.05 -45.45 -30.4 -43.0 -30.1 -41.95 -40.75 -44.8 -43.2 -45.45 -42.55 -43.0 -38.9 -29.75 -34.45 -13.0 -53.55 -0.45 -34.15 12.4 -38.85 29.6 -42.4 42.95 -43.05 45.4 -40.6 44.75 -29.95 41.85 -30.25 42.95 -30.9 45.4 -28.45 44.75 -15.2 41.1 -14.95 41.05 -8.9 51.55 -1.35 64.6 0.05 67.05 1.45 64.6 8.95 51.55 13.65 43.4 18.75 44.75 21.2 45.4 20.55 42.95 19.2 38.1 30.75 41.2 44.1 44.75 46.55 45.4 45.9 42.95 42.25 29.7 37.15 10.4 53.5 -0.45 53.55 -0.5 37.25 -11.25 42.2 -29.65 45.75 -43.0 46.4 -45.45 43.95 -44.8 30.7 -41.15 19.05 -38.05 20.4 -43.15 21.05 -45.6 18.6 -44.95 13.6 -43.55 8.95 -51.65 1.4 -64.7 M19.45 -10.2 L12.0 -11.05 11.95 -11.65 11.05 -8.4 -4.3 -10.15 -17.05 -8.7 -4.65 -0.5 -4.7 -0.45 -18.25 8.5 -4.8 10.05 11.2 8.2 12.1 11.55 12.15 11.0 20.5 10.05 4.65 -0.45 19.45 -10.2" fill="none" stroke="#3f3e3e" stroke-linecap="round" stroke-linejoin="round" stroke-width="3.0"/>
    <path d="M12.0 -11.05 L9.2 -35.45 30.7 -41.15 43.95 -44.8 46.4 -45.45 12.0 -11.05" fill="#514e4e" fill-rule="evenodd" stroke="none"/>
    <path d="M46.4 -45.45 L45.75 -43.0 42.2 -29.65 36.4 -8.25 12.0 -11.05 46.4 -45.45" fill="#696868" fill-rule="evenodd" stroke="none"/>
    <path d="M36.4 -8.25 L46.4 -45.45 9.2 -35.45 12.0 -11.05 36.4 -8.25 Z" fill="none" stroke="#3f3e3e" stroke-linecap="butt" stroke-linejoin="round" stroke-width="1.0"/>
    <path d="M12.15 11.0 L36.55 8.2 42.25 29.7 45.9 42.95 46.55 45.4 12.15 11.0" fill="#514e4e" fill-rule="evenodd" stroke="none"/>
    <path d="M46.55 45.4 L44.1 44.75 30.75 41.2 9.35 35.4 12.15 11.0 46.55 45.4" fill="#696868" fill-rule="evenodd" stroke="none"/>
    <path d="M9.35 35.4 L46.55 45.4 36.55 8.2 12.15 11.0 9.35 35.4 Z" fill="none" stroke="#3f3e3e" stroke-linecap="butt" stroke-linejoin="round" stroke-width="1.0"/>
    <path d="M-13.2 11.0 L11.2 8.2 16.9 29.7 20.55 42.95 21.2 45.4 -13.2 11.0" fill="#514e4e" fill-rule="evenodd" stroke="none"/>
    <path d="M21.2 45.4 L18.75 44.75 5.4 41.2 -16.0 35.4 -13.2 11.0 21.2 45.4" fill="#696868" fill-rule="evenodd" stroke="none"/>
    <path d="M-16.0 35.4 L21.2 45.4 11.2 8.2 -13.2 11.0 -16.0 35.4 Z" fill="none" stroke="#3f3e3e" stroke-linecap="butt" stroke-linejoin="round" stroke-width="1.0"/>
    <path d="M-13.35 -11.2 L-16.15 -35.6 5.35 -41.3 18.6 -44.95 21.05 -45.6 -13.35 -11.2" fill="#514e4e" fill-rule="evenodd" stroke="none"/>
    <path d="M21.05 -45.6 L20.4 -43.15 16.85 -29.8 11.05 -8.4 -13.35 -11.2 21.05 -45.6" fill="#696868" fill-rule="evenodd" stroke="none"/>
    <path d="M-4.7 -0.45 L-29.15 15.7 -53.55 -0.45 -4.7 -0.45" fill="#696868" fill-rule="evenodd" stroke="none"/>
    <path d="M-53.55 -0.45 L-29.05 -16.6 -4.65 -0.5 -4.7 -0.45 -53.55 -0.45" fill="#514e4e" fill-rule="evenodd" stroke="none"/>
    <path d="M-53.55 -0.45 L-29.05 -16.6 -4.65 -0.5 -29.15 15.7 -53.55 -0.45 Z" fill="none" stroke="#3f3e3e" stroke-linecap="round" stroke-linejoin="round" stroke-width="1.0"/>
    <path d="M11.05 -8.4 L21.05 -45.6 -16.15 -35.6 -13.35 -11.2 11.05 -8.4 Z" fill="none" stroke="#3f3e3e" stroke-linecap="butt" stroke-linejoin="round" stroke-width="1.0"/>
    <path d="M-8.8 -11.05 L-33.2 -8.25 -38.9 -29.75 -42.55 -43.0 -43.2 -45.45 -8.8 -11.05" fill="#514e4e" fill-rule="evenodd" stroke="none"/>
    <path d="M-43.2 -45.45 L-40.75 -44.8 -27.4 -41.25 -6.0 -35.45 -8.8 -11.05 -43.2 -45.45" fill="#696868" fill-rule="evenodd" stroke="none"/>
    <path d="M-6.0 -35.45 L-43.2 -45.45 -33.2 -8.25 -8.8 -11.05 -6.0 -35.45 Z" fill="none" stroke="#3f3e3e" stroke-linecap="butt" stroke-linejoin="round" stroke-width="1.0"/>
    <path d="M-8.65 11.0 L-5.85 35.4 -27.35 41.1 -40.6 44.75 -43.05 45.4 -8.65 11.0" fill="#514e4e" fill-rule="evenodd" stroke="none"/>
    <path d="M-43.05 45.4 L-42.4 42.95 -38.85 29.6 -33.05 8.2 -8.65 11.0 -43.05 45.4" fill="#696868" fill-rule="evenodd" stroke="none"/>
    <path d="M-33.05 8.2 L-43.05 45.4 -5.85 35.4 -8.65 11.0 -33.05 8.2 Z" fill="none" stroke="#3f3e3e" stroke-linecap="butt" stroke-linejoin="round" stroke-width="1.0"/>
    <path d="M0.0 -67.15 L0.0 -13.7 -21.1 -30.5 -8.9 -51.65 -1.4 -64.7 0.0 -67.15" fill="#514e4e" fill-rule="evenodd" stroke="none"/>
    <path d="M0.0 -67.15 L1.4 -64.7 8.95 -51.65 21.1 -30.5 0.0 -13.7 0.0 -67.15" fill="#696868" fill-rule="evenodd" stroke="none"/>
    <path d="M0.0 -13.7 L21.1 -30.5 0.0 -67.15 -21.1 -30.5 0.0 -13.7 Z" fill="none" stroke="#3f3e3e" stroke-linecap="butt" stroke-linejoin="round" stroke-width="1.0"/>
    <path d="M0.05 13.6 L21.15 30.4 8.95 51.55 1.45 64.6 0.05 67.05 0.05 13.6" fill="#514e4e" fill-rule="evenodd" stroke="none"/>
    <path d="M0.05 13.6 L0.05 67.05 -1.35 64.6 -8.9 51.55 -21.05 30.4 0.05 13.6" fill="#696868" fill-rule="evenodd" stroke="none"/>
    <path d="M0.05 13.6 L-21.05 30.4 0.05 67.05 21.15 30.4 0.05 13.6 Z" fill="none" stroke="#3f3e3e" stroke-linecap="butt" stroke-linejoin="round" stroke-width="1.0"/>
    <path d="M31.2 -31.15 Q44.3 -18.05 44.3 0.3 44.3 18.7 31.2 31.7 18.2 44.8 -0.2 44.8 -18.6 44.8 -31.65 31.7 -44.7 18.7 -44.7 0.3 -44.7 -18.05 -31.65 -31.15 -18.6 -44.15 -0.2 -44.15 18.2 -44.15 31.2 -31.15" fill="#232222" fill-rule="evenodd" stroke="none"/>
    <path d="M31.2 -31.15 Q44.3 -18.05 44.3 0.3 44.3 18.7 31.2 31.7 18.2 44.8 -0.2 44.8 -18.6 44.8 -31.65 31.7 -44.7 18.7 -44.7 0.3 -44.7 -18.05 -31.65 -31.15 -18.6 -44.15 -0.2 -44.15 18.2 -44.15 31.2 -31.15 Z" fill="none" stroke="#121212" stroke-linecap="butt" stroke-linejoin="round" stroke-width="3.0"/>
    <path d="M3.35 -11.05 L-21.05 -8.25 -26.75 -29.75 -30.4 -43.0 -31.05 -45.45 3.35 -11.05" fill="#514e4e" fill-rule="evenodd" stroke="none"/>
    <path d="M-31.05 -45.45 L-28.6 -44.8 -15.25 -41.25 6.15 -35.45 3.35 -11.05 -31.05 -45.45" fill="#696868" fill-rule="evenodd" stroke="none"/>
    <path d="M6.15 -35.45 L-31.05 -45.45 -21.05 -8.25 3.35 -11.05 6.15 -35.45 Z" fill="none" stroke="#3f3e3e" stroke-linecap="butt" stroke-linejoin="round" stroke-width="1.0"/>
    <path d="M3.5 11.0 L6.3 35.4 -15.2 41.1 -28.45 44.75 -30.9 45.4 3.5 11.0" fill="#514e4e" fill-rule="evenodd" stroke="none"/>
    <path d="M-30.9 45.4 L-30.25 42.95 -26.7 29.6 -20.9 8.2 3.5 11.0 -30.9 45.4" fill="#696868" fill-rule="evenodd" stroke="none"/>
    <path d="M-20.9 8.2 L-30.9 45.4 6.3 35.4 3.5 11.0 -20.9 8.2 Z" fill="none" stroke="#3f3e3e" stroke-linecap="butt" stroke-linejoin="round" stroke-width="1.0"/>
    <path d="M53.5 -0.45 L29.05 15.7 4.65 -0.45 53.5 -0.45" fill="#696868" fill-rule="evenodd" stroke="none"/>
    <path d="M4.65 -0.45 L29.15 -16.6 53.55 -0.5 53.5 -0.45 4.65 -0.45" fill="#514e4e" fill-rule="evenodd" stroke="none"/>
    <path d="M4.65 -0.45 L29.15 -16.6 53.55 -0.5 29.05 15.7 4.65 -0.45 Z" fill="none" stroke="#3f3e3e" stroke-linecap="round" stroke-linejoin="round" stroke-width="1.0"/>
  </g>
</svg>
