<?xml version="1.0" encoding="UTF-8" standalone="no"?>
<svg xmlns:xlink="http://www.w3.org/1999/xlink" height="92.6px" width="43.5px" xmlns="http://www.w3.org/2000/svg">
  <g transform="matrix(1.0, 0.0, 0.0, 1.0, 22.15, 72.4)">
    <path d="M18.85 -53.35 Q14.5 -79.25 -6.8 -64.65 -8.0 -54.8 -10.1 -41.45 -14.5 -14.7 -19.65 3.0 L-9.05 17.7 Q4.85 -4.55 13.3 -31.2 17.5 -44.45 18.85 -53.35 Z" fill="none" stroke="#7e4d13" stroke-linecap="round" stroke-linejoin="round" stroke-width="5.0"/>
    <path d="M18.85 -53.55 Q17.5 -44.65 13.3 -31.4 4.85 -4.75 -9.05 17.5 L-19.65 2.8 Q-14.5 -14.9 -10.1 -41.6 -8.0 -55.0 -6.8 -64.85 14.5 -79.45 18.85 -53.55" fill="#b66f1a" fill-rule="evenodd" stroke="none"/>
    <path d="M13.35 -30.7 Q6.2 -8.0 -5.05 11.5 L-13.35 0.0 Q-8.15 -17.55 -3.75 -44.35 -1.6 -57.8 -0.5 -67.65 L0.0 -68.0 Q15.3 -74.3 18.95 -52.85 17.65 -43.95 13.35 -30.7" fill="#d7994e" fill-rule="evenodd" stroke="none"/>
    <path d="M14.6 -32.35 Q9.1 -60.65 -7.95 -59.05 M-3.15 7.8 Q-6.7 -9.15 -16.0 -12.35 M6.25 -10.7 Q0.15 -33.1 -11.15 -37.2" fill="none" stroke="#7e4d13" stroke-linecap="round" stroke-linejoin="round" stroke-width="0.5"/>
    <path d="M-9.45 -48.5 Q6.4 -59.55 18.3 -52.75 M-13.6 -24.2 Q1.1 -32.55 11.95 -28.8 M-19.5 0.5 Q-7.3 -8.2 2.3 -4.4" fill="none" stroke="#7e4d13" stroke-linecap="round" stroke-linejoin="round" stroke-width="0.5"/>
  </g>
</svg>
