<?xml version="1.0" encoding="UTF-8" standalone="no"?>
<svg xmlns:xlink="http://www.w3.org/1999/xlink" height="31.7px" width="35.95px" xmlns="http://www.w3.org/2000/svg">
  <g transform="matrix(1.0, 0.0, 0.0, 1.0, 36.7, -28.1)">
    <path d="M-18.1 36.65 L-17.45 38.5 Q-17.65 41.1 -18.8 43.7 -21.15 48.9 -26.2 48.9 -31.25 48.9 -33.6 43.9 -34.35 42.3 -34.75 40.4 L-35.0 38.8 -34.4 37.0 Q-33.65 34.95 -32.8 33.95 L-32.35 33.5 -31.05 32.4 -30.9 32.25 Q-28.8 30.9 -26.2 30.9 -22.55 30.9 -20.0 33.5 -18.95 34.55 -18.1 36.65 Z" fill="none" stroke="#a62209" stroke-linecap="round" stroke-linejoin="round" stroke-width="3.0"/>
    <path d="M-18.1 36.65 L-17.45 38.5 Q-17.65 41.1 -18.8 43.7 -21.15 48.9 -26.2 48.9 -31.25 48.9 -33.6 43.9 -34.35 42.3 -34.75 40.4 L-35.0 38.8 -34.4 37.0 Q-33.65 34.95 -32.8 33.95 L-32.35 33.5 -31.05 32.4 -30.9 32.25 Q-28.8 30.9 -26.2 30.9 -22.55 30.9 -20.0 33.5 -18.95 34.55 -18.1 36.65" fill="#f73600" fill-rule="evenodd" stroke="none"/>
    <path d="M-20.45 31.45 Q-18.8 32.7 -18.25 34.25 -17.25 35.7 -17.25 37.45 -17.25 40.3 -19.9 42.3 -22.5 44.3 -26.2 44.3 -29.95 44.3 -32.55 42.3 -35.2 40.3 -35.2 37.45 -35.2 35.65 -34.1 34.25 -33.6 32.65 -32.0 31.45 -29.6 29.6 -26.2 29.6 -22.85 29.6 -20.45 31.45 Z" fill="none" stroke="#b89b64" stroke-linecap="round" stroke-linejoin="round" stroke-width="3.0"/>
    <path d="M-26.2 30.6 Q-22.5 30.6 -19.9 32.6 -17.25 34.6 -17.25 37.4 -17.25 40.25 -19.9 42.25 -22.5 44.25 -26.2 44.25 -29.95 44.25 -32.55 42.25 -35.2 40.25 -35.2 37.4 -35.2 34.6 -32.55 32.6 -29.95 30.6 -26.2 30.6" fill="#d4b882" fill-rule="evenodd" stroke="none"/>
    <path d="M-26.2 29.6 Q-22.85 29.6 -20.45 31.45 -18.05 33.25 -18.05 35.8 -18.05 38.35 -20.45 40.2 -22.85 42.0 -26.2 42.0 -29.6 42.0 -32.0 40.2 -34.35 38.35 -34.35 35.8 -34.35 33.25 -32.0 31.45 -29.6 29.6 -26.2 29.6" fill="#f0e0c0" fill-rule="evenodd" stroke="none"/>
    <path d="M-3.1 46.2 L-2.45 48.0 Q-2.65 50.6 -3.8 53.15 -6.15 58.3 -11.2 58.3 -16.25 58.3 -18.6 53.35 -19.35 51.75 -19.75 49.9 L-20.0 48.35 -19.4 46.55 Q-18.65 44.55 -17.8 43.55 L-17.35 43.1 -16.05 42.0 -15.9 41.9 Q-13.8 40.55 -11.2 40.55 -7.55 40.55 -5.0 43.1 -3.95 44.15 -3.1 46.2 Z" fill="none" stroke="#a62209" stroke-linecap="round" stroke-linejoin="round" stroke-width="3.0"/>
    <path d="M-3.1 46.2 L-2.45 48.0 Q-2.65 50.6 -3.8 53.15 -6.15 58.3 -11.2 58.3 -16.25 58.3 -18.6 53.35 -19.35 51.75 -19.75 49.9 L-20.0 48.35 -19.4 46.55 Q-18.65 44.55 -17.8 43.55 L-17.35 43.1 -16.05 42.0 -15.9 41.9 Q-13.8 40.55 -11.2 40.55 -7.55 40.55 -5.0 43.1 -3.95 44.15 -3.1 46.2" fill="#f73600" fill-rule="evenodd" stroke="none"/>
    <path d="M-5.45 41.05 Q-3.8 42.3 -3.25 43.85 -2.25 45.3 -2.25 47.05 -2.25 49.9 -4.9 51.9 -7.5 53.9 -11.2 53.9 -14.95 53.9 -17.55 51.9 -20.2 49.9 -20.2 47.05 -20.2 45.25 -19.1 43.85 -18.6 42.25 -17.0 41.05 -14.6 39.2 -11.2 39.2 -7.85 39.2 -5.45 41.05 Z" fill="none" stroke="#b89b64" stroke-linecap="round" stroke-linejoin="round" stroke-width="3.0"/>
    <path d="M-11.2 40.2 Q-7.5 40.2 -4.9 42.2 -2.25 44.2 -2.25 47.0 -2.25 49.85 -4.9 51.85 -7.5 53.85 -11.2 53.85 -14.95 53.85 -17.55 51.85 -20.2 49.85 -20.2 47.0 -20.2 44.2 -17.55 42.2 -14.95 40.2 -11.2 40.2" fill="#d4b882" fill-rule="evenodd" stroke="none"/>
    <path d="M-11.2 39.2 Q-7.85 39.2 -5.45 41.05 -3.05 42.85 -3.05 45.4 -3.05 47.95 -5.45 49.8 -7.85 51.6 -11.2 51.6 -14.6 51.6 -17.0 49.8 -19.35 47.95 -19.35 45.4 -19.35 42.85 -17.0 41.05 -14.6 39.2 -11.2 39.2" fill="#f0e0c0" fill-rule="evenodd" stroke="none"/>
  </g>
</svg>
