<?xml version="1.0" encoding="UTF-8" standalone="no"?>
<svg xmlns:xlink="http://www.w3.org/1999/xlink" height="12.2px" width="9.2px" xmlns="http://www.w3.org/2000/svg">
  <g transform="matrix(1.0, 0.0, 0.0, 1.0, 4.6, 6.1)">
    <path d="M-1.0 -5.0 L1.95 -4.25 3.6 -0.15 1.9 4.4 0.5 5.1 -1.9 3.7 -2.4 0.0 -3.6 -1.4 -3.1 -5.1 -1.0 -5.0" fill="#ffffff" fill-rule="evenodd" stroke="none"/>
    <path d="M-1.0 -5.0 L-3.1 -5.1 -3.6 -1.4 -2.4 0.0 -1.9 3.7 0.5 5.1 1.9 4.4 3.6 -0.15 1.95 -4.25 -1.0 -5.0 Z" fill="none" stroke="#416409" stroke-linecap="round" stroke-linejoin="round" stroke-width="2.0"/>
    <path d="M-3.1 -5.1 L-1.0 -5.0 1.95 -4.25 3.6 -0.15 1.9 4.4 0.5 5.1 -1.9 3.7 -2.4 0.0 -3.6 -1.4 -3.1 -5.1" fill="#9bd919" fill-rule="evenodd" stroke="none"/>
    <path d="M-3.6 -1.4 L-3.35 -3.15 -2.2 -2.1 0.25 -2.0 1.35 -0.4 3.4 -0.65 3.6 -0.15 1.9 4.4 0.45 5.1 -1.95 3.7 -2.4 0.0 -3.6 -1.4" fill="#669f0b" fill-rule="evenodd" stroke="none"/>
  </g>
</svg>
