<?xml version="1.0" encoding="UTF-8" standalone="no"?>
<svg xmlns:xlink="http://www.w3.org/1999/xlink" height="62.1px" width="65.1px" xmlns="http://www.w3.org/2000/svg">
  <g transform="matrix(1.0, 0.0, 0.0, 1.0, 32.55, 31.05)">
    <path d="M26.8 -27.3 Q18.15 -27.8 10.05 -24.65 9.8 -24.55 9.85 -25.35 L9.95 -27.6 Q8.35 -26.2 6.1 -25.35 7.2 -28.85 10.75 -30.95 L11.0 -31.05 Q12.65 -29.75 12.05 -27.2 L12.05 -27.05 Q20.2 -30.75 28.9 -28.6 29.3 -28.5 29.45 -27.7 30.25 -22.55 27.6 -19.5 27.2 -19.05 26.35 -19.5 24.85 -20.25 23.2 -20.35 28.05 -18.7 29.1 -15.35 29.2 -15.0 28.6 -14.9 L21.6 -13.3 Q25.45 -12.0 28.05 -10.15 28.3 -10.0 28.0 -9.35 L24.95 -3.4 27.2 -4.1 Q28.2 -0.65 24.85 3.5 L24.75 3.65 Q30.25 2.25 32.5 5.05 32.65 5.2 32.2 5.95 28.95 11.45 24.3 13.35 26.15 9.1 29.7 5.55 25.5 6.45 22.05 4.95 21.7 4.8 22.1 4.15 L25.3 -1.45 Q24.3 -0.8 23.3 -0.5 L21.5 2.35 20.55 2.4 15.4 -0.65 Q19.35 5.15 21.05 11.8 21.55 13.85 19.2 13.15 16.05 12.25 13.15 10.7 16.4 17.2 16.25 23.45 L15.4 23.5 -5.35 13.05 Q-5.9 22.35 -7.5 30.8 L-8.0 30.85 Q-15.05 23.55 -19.85 14.35 -25.45 21.15 -32.25 25.05 -32.7 25.3 -32.45 24.4 -29.5 14.25 -25.2 5.0 -24.5 9.35 -26.75 14.5 L-28.95 20.1 Q-24.5 14.45 -19.05 10.55 -18.45 10.15 -18.0 11.0 -14.3 18.6 -9.25 25.4 -9.55 16.9 -6.2 10.05 -5.85 9.35 -4.9 9.9 4.1 15.4 13.65 19.55 11.7 14.3 10.2 9.05 9.35 6.15 12.6 7.8 15.5 9.2 18.2 9.8 14.0 2.6 11.3 -4.7 11.15 -5.15 11.9 -4.85 16.65 -3.2 20.85 -0.6 L21.35 -1.1 Q22.15 -4.2 23.65 -7.0 L24.9 -9.15 Q19.35 -10.85 15.65 -15.25 15.4 -15.55 16.1 -15.5 L16.35 -15.5 Q14.2 -17.6 12.4 -20.3 L12.3 -20.4 Q8.05 -14.6 3.1 -10.85 2.95 -10.7 2.45 -11.3 -0.4 -14.85 -2.55 -18.8 -5.65 -17.95 -8.2 -16.6 -3.55 -14.35 -3.4 -10.55 -3.35 -10.1 -4.25 -10.05 -11.3 -9.55 -18.3 -9.8 -18.9 -13.1 -18.65 -16.7 L-18.7 -18.95 Q-20.85 -17.05 -23.2 -16.65 -20.35 -20.6 -16.35 -21.65 -16.0 -21.75 -16.1 -21.0 -16.7 -16.55 -16.55 -12.0 -11.65 -11.1 -6.55 -12.7 -12.05 -14.9 -10.75 -18.05 L-10.05 -18.65 Q-5.25 -20.9 -0.95 -20.2 L-0.3 -19.5 Q1.5 -16.25 3.85 -13.3 L12.0 -23.2 Q16.05 -19.9 18.1 -15.45 21.45 -15.55 24.65 -16.55 19.6 -18.75 18.0 -22.9 17.85 -23.35 18.6 -23.3 22.9 -23.05 27.0 -21.9 L26.85 -26.4 26.8 -27.3" fill="#ffffff" fill-rule="evenodd" stroke="none"/>
  </g>
</svg>
