<?xml version="1.0" encoding="UTF-8" standalone="no"?>
<svg xmlns:xlink="http://www.w3.org/1999/xlink" height="29.6px" width="32.6px" xmlns="http://www.w3.org/2000/svg">
  <g transform="matrix(1.0, 0.0, 0.0, 1.0, 16.3, 14.8)">
    <path d="M-14.0 -5.6 Q-15.1 -7.4 -14.65 -9.35 -14.15 -11.4 -12.4 -12.5 -10.65 -13.6 -8.6 -13.15 16.15 -7.45 14.7 8.5 14.6 10.55 13.05 12.0 11.6 13.4 9.5 13.3 7.45 13.2 6.05 11.7 4.6 10.25 4.7 8.2 4.25 0.15 -10.85 -3.4 -12.9 -3.9 -14.0 -5.6" fill="#ffffff" fill-rule="evenodd" stroke="none"/>
    <path d="M-14.0 -5.6 Q-12.9 -3.9 -10.85 -3.4 4.25 0.15 4.7 8.2 4.6 10.25 6.05 11.7 7.45 13.2 9.5 13.3 11.6 13.4 13.05 12.0 14.6 10.55 14.7 8.5 16.15 -7.45 -8.6 -13.15 -10.65 -13.6 -12.4 -12.5 -14.15 -11.4 -14.65 -9.35 -15.1 -7.4 -14.0 -5.6 Z" fill="none" stroke="#23608e" stroke-linecap="round" stroke-linejoin="round" stroke-width="3.0"/>
  </g>
</svg>
