<?xml version="1.0" encoding="UTF-8" standalone="no"?>
<svg xmlns:xlink="http://www.w3.org/1999/xlink" height="680.15px" width="777.25px" xmlns="http://www.w3.org/2000/svg">
  <g transform="matrix(1.0, 0.0, 0.0, 1.0, 392.1, 345.0)">
    <path d="M167.55 -307.3 Q189.95 -297.9 200.2 -289.05 L199.0 -288.8 220.3 -278.5 Q229.7 -271.65 242.0 -264.35 L264.15 -251.15 Q286.3 -237.2 305.4 -218.7 324.75 -199.85 335.65 -181.1 359.55 -140.55 371.7 -105.4 385.15 -66.2 385.15 -30.95 385.15 -11.1 383.9 0.55 382.8 11.1 380.5 20.7 380.25 50.5 354.75 110.0 348.75 124.1 340.9 140.55 L340.1 136.3 339.55 137.3 Q337.1 141.85 334.85 144.55 332.0 157.45 328.2 164.0 L328.0 164.5 327.85 164.5 Q326.0 167.55 323.9 169.1 L323.4 169.85 Q322.85 170.0 322.85 166.8 322.85 159.2 325.85 143.95 L325.4 142.6 Q324.4 139.25 324.4 136.55 324.4 132.4 325.95 110.4 327.55 87.15 329.0 71.75 L332.1 71.75 332.6 74.45 Q333.5 72.25 334.8 70.6 L335.15 68.15 Q332.85 56.4 326.65 51.6 L327.35 49.25 Q332.25 32.8 333.6 23.5 334.5 17.25 336.75 8.95 338.0 4.2 341.15 -5.7 342.85 -11.6 344.15 -20.7 345.3 -29.3 347.1 -34.9 348.1 -37.85 348.25 -42.25 338.6 -47.55 332.5 -67.35 329.0 -78.85 327.7 -89.3 L327.5 -89.95 Q324.45 -100.95 322.85 -104.55 321.3 -107.8 318.9 -117.95 316.55 -128.25 314.15 -133.15 311.75 -137.85 307.65 -141.35 L300.5 -146.5 Q296.35 -149.35 294.7 -151.45 292.35 -154.5 292.35 -158.9 292.35 -167.9 299.35 -172.2 306.2 -176.2 317.65 -172.95 L315.25 -176.95 Q309.75 -188.0 279.1 -214.75 246.0 -243.6 222.95 -254.8 L211.4 -260.35 211.65 -259.05 211.4 -254.8 211.15 -254.45 211.05 -253.65 Q210.65 -252.9 207.55 -252.9 198.35 -252.9 184.4 -271.8 178.1 -280.35 170.65 -293.4 L170.65 -302.35 Q176.65 -302.0 183.95 -296.25 177.95 -302.05 172.2 -304.9 L165.65 -308.1 167.55 -307.3 M-174.65 -340.4 Q-171.05 -339.5 -169.15 -338.3 -149.1 -342.7 -123.95 -344.7 L-75.4 -345.0 -54.75 -343.75 -25.3 -342.0 5.3 -341.25 Q55.3 -341.5 117.3 -324.4 L125.3 -323.35 Q126.85 -322.95 128.95 -321.45 L129.75 -320.85 Q139.35 -317.95 148.15 -314.85 L145.9 -315.4 Q141.6 -316.35 137.25 -316.4 L131.05 -317.65 130.15 -315.75 Q129.0 -313.8 127.35 -313.1 125.75 -313.55 107.6 -313.35 L86.85 -312.6 71.8 -310.05 Q63.7 -308.7 60.95 -307.5 L51.05 -302.05 Q42.2 -296.95 36.9 -294.65 L34.05 -294.65 Q24.65 -289.5 23.55 -289.3 L21.9 -291.65 Q21.0 -293.25 21.0 -296.45 21.0 -298.3 22.55 -300.2 L20.5 -301.4 Q17.25 -303.45 15.05 -305.8 L14.75 -306.15 -2.55 -306.3 Q-1.95 -304.2 -1.95 -301.95 -1.95 -294.55 -6.35 -288.5 -13.6 -278.5 -28.95 -285.15 L-111.5 -284.65 -146.9 -278.95 -166.35 -275.5 Q-167.3 -273.75 -169.15 -272.4 -172.05 -270.3 -174.75 -270.3 L-183.9 -271.6 -191.6 -269.5 Q-191.95 -271.25 -192.6 -272.85 L-198.6 -270.85 -199.45 -269.55 Q-201.0 -267.5 -203.45 -265.7 -211.65 -265.1 -218.35 -263.45 L-225.2 -261.6 -225.7 -261.2 Q-226.05 -261.4 -226.15 -262.8 -242.4 -257.8 -250.85 -252.4 -257.35 -248.3 -272.5 -241.05 -286.75 -233.45 -296.7 -223.15 L-304.45 -214.5 Q-312.35 -201.35 -315.35 -180.65 L-317.65 -162.2 Q-319.0 -151.1 -320.8 -143.75 L-321.85 -142.2 -323.75 -144.05 -323.95 -142.15 -324.85 -132.8 Q-323.4 -131.25 -321.75 -130.0 L-326.85 -117.95 -328.65 -117.25 -335.05 -99.85 Q-345.75 -71.45 -346.95 -64.55 -349.05 -52.25 -349.2 -33.6 L-349.0 0.0 Q-349.45 0.0 -350.7 0.85 L-351.45 1.35 -348.8 8.15 Q-345.8 15.4 -342.8 21.3 -341.2 22.1 -339.4 22.7 L-339.8 22.8 -334.65 28.15 -336.2 32.25 -339.25 33.3 Q-342.65 31.5 -345.7 29.15 L-345.9 32.25 Q-345.9 39.65 -341.3 66.0 -336.7 92.4 -336.7 95.55 L-336.8 98.65 -337.05 98.95 -335.1 104.85 Q-329.3 122.05 -318.85 149.0 -314.75 159.8 -309.0 170.2 -301.9 182.95 -293.9 192.15 -289.85 196.8 -278.35 212.7 -268.25 226.75 -259.75 235.45 L-249.2 245.9 -249.8 247.55 -229.3 272.8 -224.55 279.0 Q-215.65 281.5 -212.35 282.95 -200.05 288.45 -200.9 296.45 L-200.35 296.45 -201.25 298.05 -205.25 298.5 Q-208.45 298.5 -212.45 297.4 L-212.15 298.0 Q-214.55 297.25 -217.05 295.9 L-221.05 295.05 Q-228.4 293.35 -232.4 291.35 L-232.9 289.05 -232.75 288.45 Q-236.7 286.45 -240.8 283.9 -250.95 281.8 -261.65 274.1 -273.15 265.75 -276.35 258.6 -283.05 252.0 -288.05 245.0 -307.0 218.8 -319.05 199.15 -334.9 173.25 -343.0 152.45 L-362.2 106.25 Q-373.55 78.95 -378.7 60.0 -380.9 51.55 -383.3 37.05 -386.0 19.35 -387.1 13.7 -392.1 -11.35 -392.1 -32.45 -392.1 -68.5 -375.6 -115.8 -359.65 -161.4 -336.15 -195.65 L-333.55 -199.65 Q-327.65 -214.95 -318.25 -226.25 L-315.55 -229.3 -310.55 -236.35 -295.7 -256.9 Q-286.8 -269.15 -278.1 -277.3 L-257.95 -296.0 Q-246.3 -306.55 -236.15 -313.5 -209.65 -332.15 -174.65 -340.4 M140.5 308.2 L119.55 315.3 Q106.5 319.75 91.5 322.6 68.5 327.0 28.2 330.55 L26.5 331.1 Q13.35 335.15 -14.35 335.15 -67.6 335.15 -77.3 333.05 -80.2 332.45 -81.45 330.95 -82.8 329.3 -85.8 328.5 L-85.4 327.4 Q-87.85 327.2 -89.15 326.0 L-90.95 323.35 Q-81.0 313.25 -66.95 311.75 L-62.7 311.55 Q-60.0 310.35 -56.6 309.35 L-56.85 308.25 Q-50.7 306.0 -40.55 303.1 L-24.1 298.3 Q-4.75 292.25 6.15 284.15 10.4 285.6 11.25 288.25 10.55 289.3 5.75 292.8 L22.65 291.0 Q45.45 288.05 67.3 282.0 71.2 280.9 79.2 277.4 88.95 273.2 93.35 271.6 112.1 264.8 127.4 267.7 127.4 268.05 127.9 268.7 128.45 269.35 128.45 272.45 128.45 277.6 117.5 284.8 L125.25 282.6 134.3 280.15 134.0 279.65 Q133.05 277.9 132.45 277.5 L132.95 271.35 136.55 271.15 Q136.55 268.1 136.8 267.1 L137.05 266.75 138.45 266.5 Q143.5 269.25 151.25 270.45 188.4 262.75 190.1 262.1 202.65 256.9 210.15 254.65 215.6 253.0 219.75 252.3 247.3 236.9 257.5 233.4 254.15 240.45 242.05 249.25 L244.7 248.8 Q236.55 257.15 216.05 268.4 217.05 268.75 217.8 269.3 217.5 270.35 216.3 271.55 L212.15 274.95 211.4 275.6 193.5 285.05 191.05 289.6 189.2 291.95 181.35 296.8 180.8 297.05 Q177.6 298.0 173.7 298.0 L168.35 297.55 Q152.7 304.6 140.5 308.2 M-363.7 -39.75 L-363.85 -33.05 -363.8 -29.5 -363.2 -44.35 -363.7 -39.75 M-126.8 308.5 Q-126.8 313.35 -134.95 317.8 -141.45 321.3 -143.75 321.3 -158.1 321.3 -164.05 311.05 -165.85 307.95 -166.65 304.25 L-167.05 301.6 Q-167.05 293.85 -160.75 292.25 -155.5 290.95 -146.9 294.0 -139.4 296.7 -133.1 301.25 -126.8 305.8 -126.8 308.5" fill="#b1deb1" fill-rule="evenodd" stroke="none"/>
    <path d="M322.05 18.9 Q317.8 12.5 313.9 0.95 L307.55 -17.6 Q306.2 -20.9 304.7 -26.7 L304.2 -28.6 299.55 -37.85 Q297.1 -43.0 288.35 -58.1 L283.85 -63.4 Q280.05 -68.5 279.05 -73.1 278.3 -76.55 278.55 -82.05 L278.8 -91.1 Q278.45 -99.2 275.35 -109.5 272.45 -119.2 268.05 -127.85 262.5 -138.7 257.85 -146.3 251.3 -157.0 244.55 -164.6 233.9 -176.55 226.55 -182.85 L220.4 -187.15 214.6 -190.5 Q208.65 -194.2 208.55 -198.85 208.5 -205.9 206.75 -217.3 L203.8 -235.6 Q203.5 -238.2 200.25 -244.65 196.7 -251.6 196.05 -254.35 195.0 -258.95 191.1 -265.4 187.55 -271.35 187.55 -272.0 L187.65 -273.7 187.55 -274.1 Q187.55 -275.65 187.7 -276.15 L187.8 -276.35 Q191.6 -277.25 199.85 -274.05 208.0 -270.9 211.3 -267.35 212.95 -266.45 225.3 -260.4 233.95 -256.2 237.55 -253.1 L257.4 -235.7 Q269.85 -224.7 277.05 -218.6 285.0 -211.9 291.1 -200.6 294.55 -194.15 300.8 -181.1 309.3 -165.85 318.05 -144.35 337.45 -97.65 344.3 -67.25 351.3 -36.15 351.3 4.5 351.3 9.85 348.5 28.45 L345.3 49.15 Q344.8 53.2 343.15 59.65 L340.05 70.75 335.75 81.6 Q333.1 88.3 333.55 93.25 L333.05 93.75 Q332.55 94.25 331.05 94.25 328.85 94.25 328.35 91.35 L328.3 88.15 328.4 87.1 328.1 84.95 328.8 79.0 329.3 73.1 329.3 68.15 329.3 49.1 Q329.15 41.7 328.2 36.25 327.35 31.4 323.3 18.5 L322.05 18.9 M231.8 -232.6 Q231.95 -230.7 233.85 -226.65 L237.05 -219.85 Q238.15 -217.5 238.4 -213.8 L238.55 -207.1 Q238.55 -203.85 242.85 -199.9 L249.05 -195.1 Q253.0 -192.15 261.3 -182.85 270.05 -177.85 277.5 -163.55 282.4 -154.2 285.05 -144.85 286.75 -139.2 289.1 -126.45 291.5 -113.5 293.3 -107.35 295.05 -101.55 296.0 -89.5 298.1 -78.4 306.8 -69.85 312.7 -64.15 318.85 -51.85 L328.55 -32.85 Q329.05 -35.6 329.05 -41.6 329.05 -45.35 328.05 -54.35 L327.65 -60.5 Q327.35 -64.25 326.3 -66.35 325.6 -67.8 321.8 -72.35 318.8 -75.95 318.8 -77.85 L318.9 -83.9 Q318.95 -87.6 318.55 -89.85 318.25 -98.0 317.55 -102.05 316.35 -109.05 309.8 -114.1 306.6 -116.55 304.6 -125.15 302.75 -133.2 303.55 -138.1 304.8 -145.4 298.35 -153.45 290.95 -160.9 289.55 -162.85 287.2 -166.15 283.95 -174.55 281.0 -182.15 277.05 -186.85 274.45 -189.9 265.6 -197.65 256.75 -205.4 252.55 -210.35 L241.25 -223.7 Q234.65 -231.15 231.8 -232.6 M44.05 -303.35 Q46.15 -302.75 46.75 -301.4 L47.55 -299.1 Q46.9 -298.4 46.85 -297.65 46.8 -297.1 46.45 -297.0 L43.6 -296.85 Q40.85 -294.3 35.35 -292.4 L27.05 -290.1 Q24.35 -289.25 19.4 -285.45 14.15 -281.4 12.8 -280.85 5.2 -277.6 -2.5 -268.75 -6.05 -264.7 -7.4 -263.5 -10.0 -261.35 -12.45 -261.35 -14.95 -261.35 -15.9 -262.65 -17.0 -264.1 -18.95 -264.35 L-38.95 -266.1 -58.2 -262.35 Q-78.2 -258.2 -81.95 -257.6 -90.6 -256.15 -97.8 -252.1 -104.15 -248.6 -105.95 -248.6 -110.65 -248.6 -115.0 -251.0 -120.2 -254.3 -123.75 -256.2 -138.05 -263.85 -165.45 -263.85 L-205.3 -262.1 Q-214.3 -260.6 -217.7 -260.6 L-219.55 -260.85 -219.55 -261.1 Q-219.75 -260.9 -219.8 -262.45 L-220.8 -262.1 Q-221.3 -261.8 -221.8 -261.8 -222.8 -261.8 -222.8 -263.35 -222.8 -265.0 -222.25 -265.45 L-220.8 -266.1 Q-216.3 -266.9 -209.2 -271.85 -201.5 -277.2 -195.8 -278.85 -192.6 -279.7 -190.35 -281.05 L-185.05 -283.85 -177.4 -286.55 -170.05 -288.85 Q-151.45 -292.9 -133.05 -298.85 -117.95 -303.75 -91.3 -304.85 L-67.85 -305.75 -41.95 -307.85 -0.7 -308.35 Q10.15 -308.65 15.15 -307.3 23.65 -305.0 44.05 -303.35 M164.05 264.65 L166.2 266.6 167.05 267.75 166.9 269.45 166.25 270.15 Q165.1 275.4 144.7 280.75 134.75 283.4 96.3 290.9 69.8 297.35 50.5 300.85 15.25 307.3 -29.95 308.4 -32.45 307.8 -33.35 306.55 L-34.95 307.65 -36.55 307.4 Q-37.2 307.2 -37.2 305.65 -37.2 302.2 -28.95 297.7 L-17.7 292.4 Q-12.6 289.85 -8.4 285.55 L-0.95 277.4 7.0 269.6 14.8 261.65 20.2 254.4 Q23.9 249.2 26.8 246.9 L31.6 246.75 Q39.35 247.1 48.3 246.9 49.2 246.9 56.55 244.15 L72.05 239.4 78.1 236.95 Q82.0 235.4 83.05 235.4 85.6 236.1 87.0 238.3 88.65 240.9 90.55 241.9 93.25 243.3 101.25 248.2 108.45 252.6 110.3 253.4 113.55 254.8 117.8 257.3 121.15 259.35 124.1 260.25 132.5 262.8 164.05 264.65 M73.75 264.8 Q58.15 271.15 43.05 271.15 L38.15 271.05 38.3 272.9 Q38.3 273.95 35.2 277.55 31.95 281.35 31.8 281.9 L31.3 282.65 Q52.05 279.05 67.0 274.05 80.95 269.4 86.8 264.65 L83.75 261.7 82.85 260.65 Q79.35 262.5 73.75 264.8 M-312.3 -117.25 Q-312.3 -114.55 -319.2 -112.75 -327.5 -110.6 -330.05 -107.6 -331.85 -105.55 -334.5 -101.45 -336.4 -98.5 -338.8 -96.6 -342.75 -98.9 -343.8 -101.35 -344.3 -102.5 -344.3 -105.25 -344.3 -112.95 -338.1 -126.9 L-328.55 -146.1 Q-324.3 -154.25 -321.05 -148.8 -319.25 -145.75 -316.8 -137.85 -316.8 -136.35 -314.55 -127.2 -312.3 -118.05 -312.3 -117.25 M-347.95 -19.1 Q-345.75 -16.35 -345.05 -11.85 -343.95 -5.15 -343.45 -3.6 -342.5 -0.7 -339.35 3.9 -335.15 9.9 -333.95 12.15 -329.15 20.95 -309.95 24.15 -293.9 26.95 -290.55 30.55 -289.25 31.9 -289.25 33.9 L-289.45 37.65 -289.2 53.4 Q-289.05 62.75 -288.2 69.15 -286.0 85.85 -277.25 98.75 L-276.55 99.8 -275.95 100.65 -276.2 101.95 -276.2 103.15 Q-276.2 104.45 -283.55 123.6 -290.95 145.65 -290.95 161.25 -290.95 176.15 -284.7 193.55 -279.95 206.85 -270.2 224.65 -264.65 234.85 -259.8 241.0 -253.4 249.1 -245.95 253.4 -244.0 254.5 -242.2 256.3 -239.9 258.65 -237.45 260.4 L-233.35 262.8 Q-229.85 264.9 -228.95 265.9 -225.5 269.55 -219.6 273.75 -215.45 276.75 -213.5 278.6 L-216.35 277.5 Q-213.75 280.5 -213.7 282.9 L-213.5 283.3 Q-213.65 283.65 -215.2 283.65 -222.05 283.65 -241.5 273.45 -261.35 263.05 -264.95 256.9 L-275.55 246.35 Q-277.05 245.4 -279.75 242.7 -282.8 239.45 -284.2 238.15 L-292.75 230.2 Q-298.4 224.8 -299.95 221.65 -306.45 208.4 -312.8 188.35 -319.55 166.05 -323.45 154.9 -331.9 132.6 -335.85 121.3 -342.75 101.4 -343.95 87.4 L-347.4 58.45 Q-350.7 30.05 -350.7 21.0 -351.3 12.25 -351.3 4.65 -351.25 -2.7 -350.4 -7.4 L-350.45 -7.85 -350.15 -12.85 Q-349.6 -17.85 -347.95 -19.1 M-32.35 -288.4 L-50.95 -287.85 -91.7 -287.35 -118.35 -280.2 Q-115.45 -279.3 -111.55 -277.6 -102.9 -273.85 -101.45 -273.85 -100.55 -273.85 -96.6 -275.4 L-86.75 -278.85 Q-69.65 -283.85 -46.45 -283.85 L-35.3 -282.7 -24.2 -281.6 Q-24.05 -281.6 -18.05 -288.55 L-32.35 -288.4 M-325.8 49.65 L-326.4 55.75 -326.8 60.9 Q-326.8 62.15 -323.8 74.35 -320.8 86.7 -319.8 89.4 -317.9 94.45 -316.0 103.25 L-312.8 117.9 -312.05 117.9 -311.55 108.8 -311.05 101.75 Q-311.05 83.2 -312.95 73.9 -316.1 58.5 -325.8 49.65 M-159.95 285.9 L-159.85 285.9 -158.6 285.7 Q-153.95 285.15 -146.95 287.4 L-145.7 287.4 -145.45 287.85 -145.4 287.9 Q-138.95 290.25 -134.05 293.65 -128.45 297.5 -128.45 300.5 -128.45 303.05 -129.9 303.9 -131.9 305.15 -138.45 305.15 -149.2 305.15 -157.65 298.65 -160.5 296.45 -162.55 293.9 -164.2 291.85 -164.2 291.15 -164.2 287.0 -160.05 285.95 L-159.95 285.9" fill="#b1deb1" fill-rule="evenodd" stroke="none"/>
  </g>
</svg>
