<?xml version="1.0" encoding="UTF-8" standalone="no"?>
<svg xmlns:xlink="http://www.w3.org/1999/xlink" height="93.05px" width="106.5px" xmlns="http://www.w3.org/2000/svg">
  <g transform="matrix(1.0, 0.0, 0.0, 1.0, 53.4, 46.0)">
    <path d="M51.6 -43.15 L51.6 45.55 41.6 45.55 41.6 -29.05 -41.8 -29.05 -41.9 -29.25 -41.9 45.55 -51.9 45.55 -51.9 -43.15 -47.3 -43.15 -47.85 -44.5 47.7 -44.5 47.2 -43.15 51.6 -43.15 Z" fill="none" stroke="#432a0d" stroke-linecap="round" stroke-linejoin="round" stroke-width="3.0"/>
    <path d="M51.6 -43.15 L51.6 45.55 41.6 45.55 41.6 -43.15 51.6 -43.15 M-41.9 -43.15 L-41.9 45.55 -51.9 45.55 -51.9 -43.15 -41.9 -43.15" fill="#8a5c28" fill-rule="evenodd" stroke="none"/>
    <path d="M45.6 -43.15 L45.85 -43.15 45.7 -39.2 45.65 -15.35 45.65 -13.3 45.1 8.7 44.95 13.25 Q44.55 22.3 44.7 31.3 L45.15 41.55 45.3 45.15 45.3 45.35 45.3 45.55 44.8 45.55 44.7 43.05 44.55 39.25 44.5 38.95 44.15 24.7 Q44.0 16.8 44.35 9.15 L44.95 -4.8 45.3 -19.9 45.4 -23.3 45.5 -39.15 45.6 -43.15 M41.7 -43.15 L42.5 -43.15 41.6 -37.85 41.6 -42.6 41.7 -43.15 M49.3 -43.15 L49.25 -34.3 48.9 -12.5 48.9 -12.0 Q48.85 6.6 49.35 25.2 L49.6 35.25 49.85 39.5 50.0 44.4 50.0 45.55 49.6 45.55 49.35 39.65 48.9 32.8 48.6 20.25 48.15 -2.2 Q48.15 -9.75 48.3 -17.15 L48.6 -31.75 48.8 -43.15 49.3 -43.15 M41.75 11.2 L41.85 18.75 Q41.55 29.85 41.7 40.95 L41.7 42.05 42.0 45.55 41.6 45.55 41.6 8.35 41.75 11.2 M-47.6 -42.75 L-47.05 -38.55 -46.95 -38.35 -46.9 -38.35 -46.75 -38.35 -46.65 -43.15 -46.2 -43.15 -46.2 -39.9 Q-46.2 -37.5 -46.5 -36.1 -47.35 -35.2 -47.85 -40.25 L-48.2 -43.15 -47.65 -43.15 -47.6 -42.75 M-48.85 -43.15 L-48.9 -43.75 -48.8 -41.45 -47.8 -23.55 Q-46.75 -4.3 -46.3 15.45 L-45.8 36.8 -45.75 42.5 -45.7 45.55 -46.25 45.55 Q-46.3 32.8 -46.7 20.1 L-47.1 6.6 Q-47.85 -16.4 -49.3 -38.35 L-49.6 -43.15 -48.85 -43.15 M-43.8 -43.15 Q-43.4 -12.35 -43.7 18.55 L-44.1 45.45 -44.05 6.7 Q-43.75 -11.6 -44.05 -29.95 L-44.25 -43.15 -43.8 -43.15" fill="#5d3c16" fill-rule="evenodd" stroke="none"/>
  </g>
</svg>
