<?xml version="1.0" encoding="UTF-8" standalone="no"?>
<svg xmlns:xlink="http://www.w3.org/1999/xlink" height="89.0px" width="89.0px" xmlns="http://www.w3.org/2000/svg">
  <g transform="matrix(1.0, 0.0, 0.0, 1.0, 0.0, 0.0)">
    <path d="M71.6 9.15 Q73.85 10.9 75.95 13.0 89.0 26.05 89.0 44.5 89.0 62.9 75.95 75.95 62.95 89.0 44.5 89.0 26.05 89.0 13.05 75.95 0.0 62.9 0.0 44.5 0.0 29.9 8.2 18.65 10.35 15.7 13.05 13.0 26.05 0.0 44.5 0.0 59.95 0.0 71.6 9.15 L71.6 37.7 8.2 37.7 8.2 18.65 8.2 37.7 71.6 37.7 71.6 9.15" fill="url(#gradient0)" fill-rule="evenodd" stroke="none"/>
  </g>
  <defs>
    <radialGradient cx="0" cy="0" gradientTransform="matrix(0.0549, 0.0, 0.0, 0.0549, 44.5, 44.5)" gradientUnits="userSpaceOnUse" id="gradient0" r="819.2" spreadMethod="pad">
      <stop offset="0.7764705882352941" stop-color="#ff0000" stop-opacity="0.7058824"/>
      <stop offset="1.0" stop-color="#ffffff"/>
    </radialGradient>
  </defs>
</svg>
