<?xml version="1.0" encoding="UTF-8" standalone="no"?>
<svg xmlns:xlink="http://www.w3.org/1999/xlink" height="536.2px" width="687.3px" xmlns="http://www.w3.org/2000/svg">
  <g transform="matrix(1.0, 0.0, 0.0, 1.0, -27.95, 7.75)">
    <path d="M560.55 -3.4 Q562.9 -4.5 565.2 -5.85 L568.5 -7.75 Q572.65 -6.35 567.8 -4.1 564.7 -2.65 561.45 -1.3 557.9 0.15 554.15 1.05 550.6 1.9 547.55 3.85 547.15 4.1 546.75 4.5 L546.75 9.75 546.75 13.5 546.75 17.25 546.4 25.55 Q545.95 33.0 537.75 34.0 L537.75 34.75 537.75 35.5 537.75 36.25 537.8 37.0 537.95 37.75 537.95 38.5 537.65 39.2 537.0 40.0 Q537.3 41.35 538.35 42.7 539.2 43.8 539.1 45.25 L539.0 47.5 539.05 49.0 Q539.15 50.15 538.7 51.2 L537.8 52.55 Q536.0 54.25 535.9 56.5 L535.75 57.25 Q533.9 58.55 536.35 59.8 539.6 61.4 544.1 60.7 L546.5 60.8 547.75 61.25 Q549.2 64.55 549.85 68.0 L550.75 72.6 Q551.6 76.7 552.9 80.7 554.9 86.65 556.35 92.65 557.55 97.8 557.55 103.25 557.55 104.5 556.75 105.5 552.25 108.5 546.25 105.75 543.75 104.6 541.0 104.75 L540.95 105.5 540.7 106.2 540.2 106.65 539.5 107.0 536.55 107.6 533.55 108.65 531.0 110.0 531.75 110.75 532.9 112.3 533.7 113.75 533.95 114.5 534.0 115.25 534.0 116.0 534.0 116.75 533.95 117.5 533.75 118.25 533.0 119.0 531.4 120.35 529.05 122.05 528.35 122.8 528.0 123.5 Q528.15 125.45 529.55 126.95 530.85 128.35 531.8 129.9 L533.1 132.45 534.35 134.65 535.55 136.8 Q536.6 139.6 536.25 143.0 L535.75 145.25 535.2 145.65 534.5 145.95 531.6 146.75 531.0 147.25 530.25 151.8 Q530.0 152.85 530.05 154.0 530.15 155.25 529.45 156.35 528.85 157.3 528.75 158.45 L528.25 160.75 526.25 166.8 524.5 170.5 523.5 170.7 517.55 169.75 516.25 169.25 Q514.15 169.15 512.8 170.8 L511.05 173.25 510.3 174.75 509.65 176.15 509.25 177.05 508.8 178.45 508.25 179.75 507.55 179.8 Q506.25 179.5 505.15 178.8 L503.55 177.45 502.95 176.75 502.25 176.0 Q494.45 174.5 487.35 179.05 L481.8 182.75 Q476.75 186.25 470.1 188.0 466.6 188.9 463.25 190.75 464.85 191.85 465.1 193.75 L465.25 196.0 465.25 197.5 465.25 199.0 465.25 200.5 465.35 202.75 Q465.4 203.9 464.7 204.7 462.95 206.6 464.0 208.0 466.65 211.2 471.35 209.7 473.4 209.05 474.85 207.55 L476.0 206.5 Q476.65 206.0 477.5 205.75 479.85 207.3 480.35 210.6 480.55 212.05 480.35 213.75 480.1 215.35 480.95 216.75 L483.3 220.25 Q486.4 224.3 488.45 228.85 489.55 231.3 490.0 234.0 488.8 236.35 486.0 238.1 484.15 239.2 482.5 240.5 L480.25 241.95 Q478.9 242.6 477.55 243.4 476.05 244.25 475.55 246.0 L474.85 247.5 Q476.9 253.2 478.0 259.5 479.2 266.9 479.55 274.45 479.9 282.25 478.6 289.6 L476.25 300.7 Q480.75 309.75 487.8 317.2 495.1 324.95 499.0 335.05 502.3 343.55 502.7 352.45 502.85 356.2 501.0 359.2 512.9 363.9 527.25 355.95 532.8 352.85 538.75 354.2 L538.95 355.0 539.2 356.5 539.25 357.95 Q539.25 358.7 539.4 359.45 L539.75 360.2 Q542.75 361.45 543.3 364.85 543.7 367.4 543.25 370.2 542.8 372.95 541.95 375.55 L540.25 379.95 Q545.45 381.3 552.0 381.95 553.3 383.25 554.15 384.9 555.15 386.7 555.1 388.7 555.1 390.25 555.4 391.8 555.8 393.75 556.75 395.45 558.55 398.65 563.1 398.05 565.15 397.75 566.0 399.45 L566.0 400.2 566.0 400.95 565.9 402.45 565.65 403.15 565.15 404.05 Q565.0 404.35 565.0 404.7 L566.3 406.2 568.5 408.45 570.75 410.7 571.5 411.45 575.45 411.15 576.0 410.7 Q577.75 405.45 577.0 399.45 576.05 391.85 583.1 387.9 591.45 383.25 600.75 385.95 601.15 387.4 601.2 388.95 L601.3 391.95 Q601.4 393.55 600.75 394.95 600.1 396.35 599.8 397.9 L599.25 399.45 Q601.5 400.75 603.6 402.35 L607.45 405.5 609.5 407.45 Q621.1 406.45 631.75 410.45 632.2 407.3 632.1 403.95 L632.0 396.45 632.15 388.95 Q632.3 384.75 628.75 382.2 L629.0 375.5 Q629.3 371.4 631.75 368.15 L637.6 360.2 Q639.25 357.85 641.75 358.95 642.85 360.65 642.6 362.75 642.35 364.75 643.1 366.65 643.8 368.45 644.8 370.3 645.7 372.0 645.65 374.0 L645.75 374.7 Q654.0 375.45 663.4 374.2 666.05 373.85 668.5 372.45 669.4 370.25 669.6 367.95 L669.65 363.5 Q669.55 361.15 669.05 358.9 668.5 356.2 667.5 353.7 667.4 352.45 668.6 352.25 671.85 351.6 674.6 350.0 675.95 349.25 677.5 349.45 679.95 350.7 681.85 352.9 683.6 354.9 684.05 357.55 684.45 359.75 684.3 361.95 L684.25 364.2 Q686.85 366.65 691.6 366.3 696.25 366.0 700.0 363.95 L703.25 359.35 707.3 353.1 Q710.15 348.9 714.65 350.25 L715.25 350.7 Q714.8 354.15 710.8 355.7 707.0 357.2 705.4 360.9 704.15 363.8 702.15 366.65 L701.5 367.45 683.5 368.6 Q682.5 368.6 681.5 367.95 680.3 366.8 680.55 364.95 L680.75 361.95 Q680.75 360.45 680.25 359.05 L679.1 356.05 678.5 355.2 Q678.1 354.85 677.75 354.85 L675.5 355.15 Q673.85 355.6 672.4 356.3 672.25 356.35 672.25 356.7 673.15 358.85 673.2 361.2 L673.25 365.7 Q673.25 367.95 672.85 370.15 L671.75 375.45 Q667.05 379.35 661.25 379.4 651.75 379.5 643.25 380.95 642.05 379.45 641.7 377.35 641.35 375.5 641.5 373.45 641.65 371.25 640.55 369.4 L638.5 365.95 Q633.2 369.7 634.35 377.15 635.3 383.65 635.15 390.95 635.0 397.7 635.2 404.45 635.35 409.15 634.5 413.45 L633.45 413.3 Q635.55 416.2 638.3 418.95 L645.6 425.9 Q649.7 429.5 653.35 433.55 656.35 436.85 656.0 441.2 641.7 447.6 626.85 442.1 618.8 439.15 612.8 445.7 L610.0 448.95 610.05 449.7 610.2 451.2 610.25 452.7 610.25 453.45 610.25 454.2 610.25 454.95 610.25 455.7 609.35 456.8 607.3 458.3 606.45 458.9 Q605.35 459.6 604.4 460.4 604.1 460.6 604.0 460.95 L608.1 464.85 612.95 469.15 618.1 473.3 Q620.45 475.15 620.4 477.95 620.4 479.15 620.0 480.2 619.5 481.45 618.15 481.9 L616.35 482.65 Q614.95 483.35 614.45 484.95 L613.75 487.35 Q613.6 487.85 614.15 488.25 L615.75 489.2 616.0 489.95 616.2 490.7 616.2 491.45 616.0 492.2 615.7 492.7 615.5 492.95 Q602.6 493.35 590.1 495.7 583.1 497.0 583.8 504.5 L583.95 506.5 584.5 506.3 590.5 505.95 604.0 506.55 Q604.5 506.6 605.0 506.95 L605.5 507.8 Q605.75 508.45 605.6 509.2 605.4 510.35 605.9 511.6 606.25 512.6 606.2 513.7 606.1 514.9 606.5 515.95 L607.05 516.3 Q608.8 517.0 610.3 518.0 612.35 519.3 613.65 521.55 614.6 523.15 614.15 525.2 L613.75 526.7 612.5 526.9 Q610.25 526.7 610.2 524.5 610.1 522.4 608.45 521.4 606.0 519.95 603.8 518.15 L603.0 517.45 602.8 516.7 602.75 515.95 602.75 515.2 602.75 513.7 602.45 512.7 Q602.0 512.1 601.25 511.7 L600.7 511.25 Q592.4 509.6 584.0 507.2 L584.2 514.95 Q584.15 519.3 581.5 522.95 L579.5 523.15 572.25 523.45 571.95 524.2 570.8 525.25 568.3 525.4 567.75 524.95 567.75 524.2 567.75 523.45 567.8 522.7 568.1 522.0 568.75 521.2 Q572.75 517.5 579.1 519.05 L579.5 518.7 Q581.25 516.0 580.95 512.7 L580.75 507.45 580.5 502.25 Q580.25 499.2 581.4 496.9 583.5 492.6 587.25 489.95 L609.65 488.45 609.75 487.7 609.8 485.45 Q609.85 484.05 610.85 482.9 L612.65 481.15 Q614.0 480.05 614.85 478.75 L615.55 478.05 616.5 477.45 Q614.5 474.2 611.1 472.05 608.6 470.45 606.1 468.3 L602.15 464.8 Q600.6 463.45 599.75 461.7 L599.8 460.95 Q599.85 460.2 600.15 459.55 L600.75 458.7 601.4 457.9 601.75 457.2 602.0 456.45 602.55 456.05 603.5 455.7 605.15 455.05 605.95 454.45 606.5 453.7 606.7 452.95 606.75 452.2 606.65 451.5 606.25 450.7 605.85 449.95 605.75 449.2 605.75 448.45 Q608.9 441.95 615.7 439.2 623.45 436.1 630.8 439.4 634.25 440.95 638.5 441.05 646.0 441.2 652.75 438.45 651.5 433.0 646.2 429.85 642.15 427.5 638.65 424.3 635.3 421.25 632.15 417.8 629.3 414.8 630.35 412.8 L607.5 409.95 604.5 407.5 Q602.4 405.5 599.85 404.25 597.6 403.1 595.75 401.2 L595.7 398.95 Q595.6 397.7 596.15 396.55 L597.4 393.8 Q598.05 392.4 597.8 390.7 L597.75 389.95 Q593.9 386.85 587.05 390.55 583.75 392.35 581.05 395.25 L580.5 395.95 Q580.05 398.15 579.95 400.45 579.8 403.05 580.0 405.7 580.2 408.4 579.2 410.75 578.2 413.15 576.0 414.7 L570.75 414.7 568.5 412.45 565.35 409.65 Q563.4 408.15 562.0 406.45 L562.0 405.7 562.0 404.95 562.0 404.2 562.05 403.5 562.3 402.75 562.7 401.95 563.0 401.2 Q556.65 401.25 554.05 395.7 552.95 393.4 552.5 390.7 552.05 387.95 550.75 385.45 546.4 382.05 538.45 382.55 537.65 382.6 536.75 381.95 536.35 379.15 537.25 376.55 L539.2 371.55 Q540.65 368.35 539.3 365.25 538.35 363.0 535.75 361.95 L535.75 361.2 535.75 360.45 535.75 359.7 535.75 358.95 535.75 358.2 535.75 357.45 Q523.75 359.7 511.95 363.4 504.0 365.85 496.75 362.95 499.75 354.15 497.6 345.05 495.2 335.05 489.65 326.65 L476.5 307.65 Q474.15 304.4 472.75 300.7 474.65 293.8 475.3 286.45 475.95 278.65 475.65 270.75 475.3 263.1 472.9 255.95 471.6 252.05 472.05 249.3 470.5 249.25 469.5 248.0 L468.0 245.85 466.75 244.25 465.2 242.75 Q464.9 242.5 464.45 242.35 L461.25 241.75 460.75 242.5 460.2 243.2 459.6 244.05 459.3 244.75 459.2 245.45 459.0 246.2 458.75 246.75 Q451.4 246.5 443.55 247.15 441.55 247.3 439.55 248.1 L437.25 249.25 437.95 250.0 438.8 251.55 439.15 252.95 439.45 253.75 439.7 254.5 439.75 255.25 439.75 256.0 439.75 256.75 438.95 257.45 437.2 258.65 436.5 258.95 Q435.5 259.25 434.6 259.7 434.25 259.85 434.0 260.25 433.65 263.05 434.6 265.45 L435.65 268.35 436.65 272.1 Q437.25 275.45 437.15 279.0 437.0 283.5 437.1 288.0 437.2 290.65 436.75 293.2 L436.2 293.65 435.5 293.9 Q433.75 294.2 432.15 294.8 432.0 294.85 432.0 295.2 L431.5 296.7 Q431.25 297.45 431.15 298.25 431.0 298.95 431.0 299.7 L430.95 300.45 430.65 301.15 430.0 301.95 429.35 302.8 429.0 303.45 428.75 304.2 427.45 304.85 Q420.95 307.55 419.85 303.25 L419.5 302.45 416.85 302.25 415.4 302.6 411.4 304.05 Q411.25 304.1 411.25 304.45 411.4 306.05 411.9 307.6 412.25 308.75 413.2 309.8 413.75 310.45 414.1 311.3 L414.6 312.7 415.1 314.25 415.2 315.7 415.1 316.5 415.1 318.7 Q415.15 319.9 414.75 320.95 403.2 323.2 393.5 315.6 385.95 309.7 378.95 302.8 368.25 292.2 353.75 290.7 351.0 292.8 347.45 293.75 L342.45 294.95 Q339.8 295.5 337.3 296.45 334.95 297.35 332.65 298.45 331.9 298.85 331.25 299.45 331.25 300.95 331.65 302.35 L332.15 304.75 332.5 306.15 333.25 307.7 334.25 309.2 335.25 310.7 336.3 312.2 Q337.6 314.0 337.0 315.95 335.8 320.3 329.85 317.55 325.85 315.75 322.4 318.4 L322.0 318.95 Q321.0 320.2 321.6 321.3 L322.5 323.45 322.9 325.0 323.15 326.45 Q323.25 327.2 323.5 327.95 L323.9 329.5 324.0 330.95 323.95 332.45 323.75 333.2 Q304.6 330.65 286.8 336.8 L284.25 337.7 Q284.25 339.95 284.5 342.2 L285.05 344.45 Q285.4 345.55 285.3 346.7 285.15 348.0 285.6 349.15 L286.4 351.1 Q287.4 353.9 287.2 357.25 L287.0 361.7 Q285.9 362.95 284.25 362.9 277.65 362.7 274.5 365.2 L274.0 366.05 273.7 367.45 273.4 368.95 273.05 369.75 272.85 370.5 272.75 371.2 272.75 371.95 272.75 372.7 Q263.3 375.65 257.1 367.25 251.9 360.25 244.15 356.8 232.4 351.6 218.4 354.8 214.8 355.6 211.75 356.95 213.05 359.6 213.6 362.25 213.9 363.8 214.7 365.25 L216.8 368.95 Q218.55 372.15 219.3 375.6 220.25 380.1 221.5 384.6 221.95 386.2 222.75 387.7 219.85 389.85 217.45 392.7 215.85 394.55 214.95 396.8 214.05 398.95 212.7 400.8 L206.6 408.95 Q204.3 412.1 202.75 415.45 203.1 417.85 204.85 419.9 L207.75 422.95 210.05 425.2 211.8 427.45 Q213.15 429.65 214.1 432.05 215.05 434.5 215.0 437.2 213.9 439.3 212.05 440.7 L213.0 440.7 213.25 441.45 212.95 442.1 211.8 443.05 211.1 443.75 210.75 444.45 Q212.95 446.95 214.25 449.95 216.55 455.2 216.8 460.95 217.0 466.2 218.35 471.1 219.75 476.2 223.65 480.1 224.65 481.1 226.0 481.7 L226.65 481.35 227.95 479.9 228.75 478.45 230.05 476.5 Q231.35 475.1 231.3 473.2 231.25 472.85 231.5 472.45 L232.75 471.65 233.6 471.05 Q234.5 470.45 235.55 470.0 L237.55 468.5 239.45 465.95 239.75 465.2 239.75 464.45 239.7 463.7 239.45 463.0 238.9 462.15 238.7 461.45 238.6 460.7 238.5 459.95 Q241.75 456.5 246.45 454.6 256.9 450.45 266.9 444.75 272.35 441.65 277.5 439.45 L282.5 439.55 283.5 439.75 284.75 440.2 Q286.4 441.5 287.2 443.25 288.85 446.7 288.7 450.7 288.6 455.0 286.8 458.75 L283.35 466.3 282.25 468.7 282.85 469.35 Q284.1 470.15 284.75 471.45 285.65 473.1 287.3 473.95 289.95 475.3 292.1 477.4 L293.0 478.2 298.85 477.5 Q301.9 476.75 304.85 475.35 306.75 474.45 308.75 473.7 308.4 471.3 309.9 469.85 321.95 458.0 342.75 463.95 344.7 465.4 345.2 467.55 346.2 471.85 346.35 476.7 346.45 481.1 347.2 485.6 347.85 489.85 349.7 493.35 350.7 495.35 350.5 497.7 L350.45 497.8 Q351.9 498.95 353.75 499.5 L357.8 500.45 360.5 500.7 369.5 500.95 370.75 501.2 Q371.9 502.1 372.35 503.4 L372.7 504.25 373.4 505.65 374.0 506.45 374.65 507.3 Q375.4 508.65 375.35 510.2 L375.4 513.2 Q375.55 514.5 374.75 515.45 L378.45 517.75 379.25 518.45 380.75 519.95 381.5 520.75 382.0 521.5 383.95 524.5 Q385.2 526.25 383.75 527.95 L381.3 527.9 380.55 527.15 379.6 525.65 379.2 525.0 378.55 524.15 Q377.7 523.0 376.3 522.1 374.0 520.65 371.85 518.65 370.7 517.65 370.75 516.2 L370.75 515.45 Q370.75 515.1 370.9 514.8 L371.45 513.9 371.7 513.2 371.75 512.45 371.75 511.7 371.75 510.95 371.75 510.2 371.75 509.45 371.25 508.75 370.5 507.95 369.9 507.15 369.65 506.5 369.25 505.7 Q364.35 503.3 356.8 502.95 L352.75 502.25 350.8 501.55 Q348.6 500.65 348.0 499.4 344.4 501.1 340.55 502.35 335.65 503.9 334.55 508.5 333.9 511.5 331.0 512.7 L330.65 513.1 334.1 516.6 Q335.45 518.25 336.0 520.35 336.5 522.45 336.2 524.65 336.0 526.25 334.5 526.45 L333.55 526.35 Q332.9 526.2 332.35 525.85 L331.65 525.15 331.5 524.45 Q331.5 524.1 331.65 523.8 L332.2 522.9 332.5 522.2 332.4 521.5 332.0 520.7 331.55 519.95 331.2 519.25 330.75 518.45 330.25 517.7 328.55 517.15 327.25 516.7 326.9 515.9 326.75 515.2 326.75 514.45 326.75 513.7 326.7 512.95 326.6 512.2 326.5 511.45 Q326.5 511.1 326.65 510.8 L327.25 509.95 328.0 509.2 328.55 508.8 329.7 508.15 330.75 507.45 331.05 506.7 Q331.3 504.9 332.5 503.7 L337.2 499.45 Q340.6 496.6 344.9 495.6 L344.75 495.2 344.4 492.9 Q343.45 490.1 343.25 486.9 343.05 483.35 342.25 480.05 341.5 476.85 341.8 473.5 342.0 470.9 340.5 468.95 340.25 468.35 339.9 468.3 325.7 465.95 313.0 470.2 312.75 470.6 312.65 471.0 L312.35 472.45 312.25 473.95 312.2 475.45 311.85 476.9 311.0 478.45 Q300.1 482.7 289.2 478.9 276.0 474.3 281.55 463.9 284.8 457.8 285.1 450.75 285.25 447.5 283.95 444.75 L283.5 443.95 Q277.75 443.0 272.35 446.2 262.95 451.7 253.4 456.5 L243.25 461.7 243.35 463.95 Q243.5 467.25 241.25 469.7 L234.55 476.7 Q231.85 479.5 229.6 482.75 L228.75 484.2 228.25 484.65 227.55 484.8 224.8 484.4 221.75 483.7 221.1 482.9 219.55 480.9 Q218.6 479.85 218.0 478.6 217.05 476.85 215.55 475.45 L214.0 473.95 214.0 470.95 214.2 463.45 Q214.4 459.15 213.8 455.15 213.15 450.8 209.7 448.1 208.2 446.9 207.25 445.45 L206.3 446.25 Q205.2 447.2 204.55 448.5 L203.7 449.9 Q202.7 451.5 201.25 452.7 191.75 452.65 184.05 445.95 177.8 440.55 172.2 447.7 164.85 457.15 154.6 461.85 L152.05 461.95 Q150.4 458.75 148.1 456.15 L144.95 452.5 141.75 448.5 Q137.9 443.45 134.85 437.8 133.25 434.9 130.8 432.7 120.3 431.0 110.95 436.05 106.55 438.5 101.5 439.4 98.85 439.9 97.05 441.2 98.65 443.95 100.7 446.35 L104.1 450.4 106.95 454.05 Q109.6 457.6 109.65 462.2 109.75 467.8 106.05 471.95 L104.95 472.5 98.05 474.2 98.05 474.95 98.05 476.45 98.05 477.95 98.15 478.7 98.55 479.45 98.9 480.25 99.05 480.95 99.05 481.7 Q98.4 484.45 95.75 486.15 92.05 488.5 87.55 488.55 83.9 488.6 81.1 490.45 79.3 491.6 78.2 489.85 L78.05 489.2 78.05 488.45 77.95 487.7 77.75 487.0 77.25 486.25 Q77.05 485.95 76.85 486.0 76.3 486.1 75.8 486.45 74.3 488.55 72.15 489.7 L68.9 491.05 Q67.4 491.45 66.0 492.2 L63.05 493.7 60.5 494.95 59.3 495.45 Q59.55 496.2 60.05 496.55 61.65 497.6 62.4 499.15 L63.35 500.65 64.05 501.45 64.7 502.25 65.05 502.95 65.2 503.7 65.3 504.45 Q64.95 507.85 61.5 508.85 50.85 511.95 39.75 509.3 37.0 508.6 35.3 510.45 34.4 511.85 34.35 513.45 34.3 514.65 33.8 515.7 L33.05 517.2 32.45 518.75 Q32.3 519.45 32.3 520.2 L32.3 521.7 32.15 522.4 31.15 523.85 29.55 525.2 Q27.1 524.4 28.4 522.05 29.0 520.9 28.85 519.45 28.8 518.35 29.05 517.25 L29.45 514.9 30.05 512.55 Q30.9 510.25 32.4 508.3 L34.3 506.2 57.5 505.15 61.05 504.45 Q61.4 503.1 60.3 501.8 59.25 500.55 57.75 499.65 L56.5 498.5 Q56.05 497.85 55.4 497.35 L54.4 496.6 53.9 495.9 53.8 495.2 53.8 494.45 Q55.55 490.8 60.5 490.25 62.9 489.95 64.95 488.6 66.65 487.5 68.6 487.0 70.6 486.45 71.9 484.8 L74.05 482.45 74.55 481.95 75.5 481.85 Q77.65 481.95 79.55 482.75 80.05 482.95 80.1 483.75 L80.15 484.45 80.3 485.2 Q80.8 487.25 82.6 486.75 86.45 485.7 90.5 484.8 92.4 484.35 94.15 483.45 L95.8 482.2 Q95.8 481.45 95.4 480.95 94.65 479.9 94.9 478.45 L95.05 476.95 95.05 476.2 95.05 475.45 95.05 474.7 95.05 473.95 95.05 473.2 95.05 472.45 95.05 470.95 104.2 469.15 104.55 468.7 Q106.3 466.35 106.15 463.45 L106.05 460.45 Q106.1 458.5 105.1 456.85 102.85 453.2 99.75 450.25 95.55 446.25 94.2 440.9 L94.05 439.45 Q100.25 435.75 107.65 432.9 111.55 431.4 115.85 430.4 123.85 428.55 132.05 429.2 L136.5 435.25 138.95 439.0 Q140.45 441.5 142.45 443.55 L150.5 452.35 Q152.75 454.95 153.55 458.45 157.25 458.1 160.4 455.3 L164.2 452.35 167.6 449.55 170.25 446.65 Q173.0 443.3 176.55 440.45 L177.55 440.2 182.05 440.2 186.25 443.65 190.0 446.25 192.3 447.65 Q193.65 448.45 195.1 448.8 L199.5 449.45 Q201.2 448.35 202.05 446.4 202.6 445.1 203.8 444.25 L205.85 442.55 206.95 441.35 208.65 439.6 210.6 437.5 212.0 435.95 Q211.95 431.45 208.6 427.9 204.75 423.85 202.6 419.0 198.9 410.7 206.1 402.65 L215.0 392.7 Q217.45 389.95 218.75 386.45 L217.9 381.1 216.9 377.35 215.65 373.75 Q214.15 369.5 212.25 365.35 210.25 361.1 209.45 356.45 L209.25 354.2 Q226.65 349.1 243.1 354.15 251.65 356.75 257.05 364.5 262.2 371.85 270.25 370.45 270.25 369.7 270.5 369.05 L271.05 367.4 271.25 365.95 271.25 365.2 271.35 364.5 271.55 363.75 271.9 362.95 272.15 362.25 272.5 361.45 283.45 360.15 284.0 359.7 283.85 355.25 Q283.75 353.6 283.3 352.15 L282.65 350.1 Q282.15 348.95 282.05 347.7 L281.35 343.1 Q280.75 339.85 280.75 336.45 L280.75 334.95 Q286.7 332.35 293.5 332.4 310.35 332.65 320.75 329.7 319.7 327.65 319.35 325.3 319.05 323.55 318.35 321.95 317.75 320.7 318.05 319.25 318.45 317.05 320.35 316.35 327.3 313.6 332.75 313.7 L330.9 310.8 329.35 308.6 Q328.65 307.5 328.55 306.25 328.5 305.45 328.1 304.8 327.5 303.75 327.65 302.45 L327.75 300.95 327.75 297.2 327.75 295.7 Q339.6 292.3 351.55 289.55 367.85 285.75 379.95 300.2 393.05 315.85 412.0 318.1 L412.0 317.7 Q411.95 316.2 411.35 314.8 L410.5 312.55 409.8 310.95 409.05 309.45 408.45 308.0 407.95 306.45 407.75 304.95 407.85 301.25 408.0 300.45 414.55 298.0 Q416.85 297.05 419.45 297.95 420.65 298.35 421.45 299.25 421.9 299.7 422.0 300.45 L422.35 301.2 422.75 301.5 426.45 301.2 427.25 300.7 427.85 299.2 428.05 297.75 428.35 296.25 428.7 295.45 428.95 294.7 429.0 293.95 429.0 293.2 429.05 292.5 429.25 291.7 Q429.5 291.45 429.8 291.3 L430.5 291.05 433.9 290.15 434.0 289.7 434.0 284.5 434.0 281.5 433.75 277.75 432.5 271.85 Q431.35 267.35 430.9 262.75 430.65 259.9 431.5 257.5 L432.25 256.75 432.8 256.3 Q433.15 256.1 433.5 256.0 L436.4 255.2 437.0 254.75 436.45 253.9 435.8 252.6 434.45 251.05 433.4 250.1 Q433.15 249.85 433.05 249.45 L433.0 248.75 Q434.45 246.3 437.65 245.5 440.4 244.85 442.95 243.6 448.65 240.8 454.0 243.25 L455.75 243.5 Q455.75 243.1 455.9 242.8 L456.5 242.0 457.2 241.2 457.65 240.45 457.9 239.8 458.5 239.0 Q460.45 236.9 463.45 237.9 465.15 238.5 466.65 239.45 L468.25 240.75 469.75 242.25 471.35 243.6 472.0 244.0 Q473.0 242.65 474.5 241.6 L477.65 239.15 479.7 237.45 481.3 236.3 482.75 235.45 485.5 233.95 486.75 233.25 Q486.2 231.15 485.2 229.35 L483.15 226.35 481.55 224.4 479.8 221.95 478.45 219.75 Q476.65 216.95 476.55 213.75 L476.25 212.25 Q474.0 210.85 470.25 212.25 466.3 213.7 463.0 211.25 L461.2 209.55 460.3 208.2 459.75 206.75 Q460.25 205.25 461.15 204.0 461.95 202.9 461.85 201.45 L461.75 199.25 461.75 197.75 461.7 195.5 Q461.65 194.75 461.2 194.3 459.45 192.6 459.7 190.2 L459.75 188.75 Q463.5 185.05 468.35 183.55 474.2 181.75 478.65 178.1 490.35 168.65 504.65 174.05 505.5 174.35 506.25 175.0 L507.1 174.05 508.6 171.9 Q509.0 171.0 509.75 170.25 L510.5 169.5 511.25 168.75 512.0 168.0 512.75 167.25 513.5 166.5 514.5 166.25 519.45 167.15 520.75 167.75 Q523.9 166.95 524.5 163.05 524.75 161.55 525.35 160.0 L526.1 157.0 526.45 153.2 Q526.8 148.65 529.5 145.4 531.3 143.1 533.0 141.75 533.5 139.5 532.6 137.7 532.15 136.7 531.35 135.65 L529.95 133.5 528.0 130.5 526.9 129.05 Q524.85 126.75 524.95 123.75 L525.0 121.5 525.4 120.9 Q526.5 120.0 527.75 119.2 L529.95 117.7 530.65 116.95 531.0 116.25 530.85 115.55 530.0 114.0 529.05 112.45 528.65 111.8 528.15 110.9 528.0 110.25 528.0 109.5 528.0 108.75 528.0 108.0 529.65 106.75 Q531.5 105.75 533.5 105.0 L536.5 104.0 538.0 103.5 538.0 102.75 Q538.0 102.35 538.15 102.05 L538.75 101.25 Q541.8 99.95 544.75 101.2 549.05 103.0 553.65 101.9 L553.75 101.5 Q553.95 98.3 552.8 95.45 552.1 93.65 552.05 91.75 552.05 88.8 551.1 86.35 549.05 81.25 548.05 75.95 547.2 71.05 545.75 66.25 L545.25 64.75 Q544.2 64.0 543.25 64.05 539.0 64.1 536.05 61.7 535.65 61.35 535.2 61.15 L532.0 60.0 Q531.55 57.75 532.55 56.1 L533.6 54.25 534.75 51.65 535.65 49.35 Q536.0 48.35 536.0 47.25 535.95 44.9 534.45 43.0 533.5 41.85 533.0 40.5 L533.1 39.8 Q533.4 39.0 533.85 38.3 L534.9 36.7 535.2 36.0 535.25 35.25 535.25 34.5 535.25 33.75 535.25 33.0 535.25 32.25 535.85 31.65 Q537.15 30.85 538.55 30.3 L542.25 29.0 Q543.8 27.1 543.45 24.45 543.25 23.0 543.65 21.6 L544.15 19.25 544.25 17.0 544.25 12.5 544.25 5.75 544.25 3.5 Q546.75 0.0 551.5 -0.7 556.2 -1.35 560.55 -3.4" fill="#ffffff" fill-rule="evenodd" stroke="none"/>
  </g>
</svg>
