<?xml version="1.0" encoding="UTF-8" standalone="no"?>
<svg xmlns:xlink="http://www.w3.org/1999/xlink" height="931.5px" width="1163.75px" xmlns="http://www.w3.org/2000/svg">
  <g transform="matrix(1.0, 0.0, 0.0, 1.0, 659.75, 418.7)">
    <path d="M39.85 -236.3 Q40.45 -236.8 41.2 -237.1 L41.6 -237.35 42.0 -237.6 42.45 -237.75 43.25 -237.7 43.45 -237.75 Q44.4 -237.9 44.95 -237.1 45.55 -236.35 44.85 -235.6 L43.55 -234.65 41.75 -233.9 41.35 -233.65 Q40.5 -233.4 40.5 -232.5 40.5 -231.6 39.75 -230.95 L38.6 -229.9 38.2 -229.5 37.95 -229.25 38.05 -229.0 38.7 -227.95 39.45 -227.1 39.7 -226.75 39.7 -225.65 39.8 -224.5 Q39.85 -223.85 39.5 -223.35 L38.5 -222.2 Q38.1 -221.75 38.2 -221.15 L38.5 -220.4 Q38.8 -219.65 39.55 -219.35 40.15 -219.05 40.5 -218.45 L41.1 -217.65 41.7 -217.0 41.85 -216.95 44.35 -216.55 45.05 -217.0 46.8 -217.25 Q47.7 -217.4 48.55 -216.95 49.25 -216.6 49.2 -215.9 L49.2 -215.5 49.1 -215.15 48.95 -214.75 48.7 -214.5 48.45 -214.4 Q46.55 -213.75 44.75 -213.85 41.65 -213.7 38.95 -215.7 36.7 -217.4 35.4 -220.0 34.65 -221.6 34.7 -223.5 L35.1 -223.85 35.5 -224.1 36.05 -224.45 36.2 -224.75 Q36.3 -225.4 35.85 -225.85 35.2 -226.55 34.85 -227.35 L34.3 -228.9 34.25 -229.05 33.35 -229.05 32.85 -229.05 31.45 -229.05 Q27.85 -229.05 25.35 -226.85 L21.4 -223.1 20.7 -222.4 Q20.8 -219.9 20.3 -217.55 19.35 -213.4 16.3 -210.45 13.2 -207.45 9.45 -207.65 6.8 -207.5 3.75 -209.05 L3.35 -209.35 Q1.35 -210.95 0.25 -213.15 L-1.0 -215.4 Q-4.35 -215.7 -7.2 -217.6 -10.35 -219.65 -14.1 -219.75 L-18.75 -219.0 -18.95 -219.2 -19.75 -219.0 -20.15 -219.4 -20.95 -220.1 Q-21.55 -220.6 -21.75 -221.25 L-21.95 -222.0 -22.25 -222.75 -22.5 -223.5 -22.65 -223.9 -23.05 -224.1 -24.2 -224.6 -25.05 -225.2 -26.1 -225.95 -26.9 -226.65 -27.25 -227.0 -27.25 -227.4 -27.25 -227.75 -27.25 -228.15 -27.25 -228.5 -27.3 -229.25 -27.4 -229.65 -27.75 -230.0 -28.9 -231.1 -31.3 -232.5 -32.0 -232.8 Q-32.6 -233.05 -33.1 -233.45 L-33.75 -234.0 -33.8 -234.0 -34.4 -234.0 -35.75 -233.05 Q-37.25 -231.5 -38.9 -230.1 L-40.95 -228.3 Q-42.85 -226.6 -45.25 -226.0 -45.15 -225.35 -45.5 -224.85 -46.25 -223.85 -46.25 -222.65 L-46.1 -220.8 -45.55 -218.2 -44.55 -215.45 Q-44.2 -214.6 -44.25 -213.65 -40.4 -206.85 -44.15 -199.25 -46.4 -194.8 -50.7 -192.15 -59.4 -186.8 -68.5 -186.95 -75.55 -186.85 -82.85 -190.0 -85.5 -191.15 -87.75 -193.0 -94.25 -198.3 -100.35 -204.1 -103.6 -202.95 -107.2 -201.75 -113.0 -199.8 -118.6 -197.35 -123.7 -195.15 -127.65 -193.0 -128.05 -192.1 -127.3 -191.5 -126.2 -190.6 -125.95 -189.2 L-125.75 -187.4 Q-125.65 -185.8 -125.95 -184.3 L-126.4 -181.4 Q-126.5 -180.25 -125.75 -179.5 -117.05 -177.7 -118.6 -168.05 -119.15 -164.5 -121.2 -161.55 -125.95 -154.75 -133.3 -151.1 -137.55 -149.0 -141.8 -149.15 -144.8 -149.05 -147.85 -150.05 -153.85 -152.0 -157.25 -155.75 -157.35 -153.8 -158.1 -151.85 L-161.05 -144.65 -164.65 -136.9 Q-166.65 -132.85 -167.7 -128.6 L-167.75 -128.25 -174.0 -121.5 -180.15 -114.2 Q-183.55 -109.9 -187.7 -106.4 L-190.0 -104.25 Q-188.65 -102.75 -187.9 -100.0 L-186.5 -94.8 -184.9 -89.6 -182.95 -84.05 -182.5 -83.25 -180.1 -82.95 Q-176.75 -83.1 -173.65 -84.85 -169.4 -87.25 -164.9 -88.35 L-164.2 -88.25 -163.9 -88.35 -163.0 -88.15 Q-160.95 -86.55 -157.95 -86.4 -155.8 -86.5 -153.2 -87.3 -148.7 -88.65 -144.45 -90.4 -141.35 -91.7 -139.2 -94.7 -135.4 -99.95 -132.8 -105.9 -131.85 -108.0 -131.25 -110.0 L-130.5 -109.1 -130.25 -110.0 Q-126.85 -105.35 -120.6 -105.15 L-120.05 -105.2 Q-110.4 -105.8 -101.25 -108.9 L-97.85 -109.35 -96.85 -109.35 -96.75 -109.5 -96.4 -109.9 -96.15 -110.25 -95.95 -110.65 -95.7 -111.35 -95.25 -112.0 Q-91.55 -113.7 -88.0 -115.9 -82.75 -119.2 -77.0 -119.25 L-76.65 -119.2 -76.0 -119.25 Q-74.6 -119.25 -73.5 -118.25 -73.1 -117.0 -73.2 -115.65 L-73.4 -111.5 Q-73.55 -109.65 -72.75 -108.2 -71.9 -106.65 -72.1 -104.75 -72.2 -103.4 -71.75 -102.15 L-73.0 -98.65 Q-73.85 -96.45 -75.05 -94.25 -76.15 -92.2 -75.95 -89.75 -75.8 -87.2 -77.5 -85.25 -77.9 -84.8 -77.75 -84.15 -77.7 -82.9 -76.7 -82.05 -74.85 -80.45 -72.45 -80.05 -69.6 -79.55 -68.0 -77.25 L-66.9 -76.0 Q-67.4 -71.7 -71.5 -68.75 -75.95 -65.55 -80.05 -61.8 -84.05 -58.15 -82.5 -53.05 -81.7 -50.4 -83.65 -48.65 L-84.5 -48.45 -85.2 -48.45 -85.5 -48.45 -87.45 -48.5 -92.75 -48.15 -92.75 -47.75 -92.75 -47.4 -92.75 -47.0 -92.8 -46.25 -93.0 -45.55 -93.3 -45.15 -93.25 -44.65 -93.25 -43.5 -93.25 -42.4 -93.25 -42.0 -93.0 -41.7 Q-92.05 -40.9 -91.5 -39.75 L-90.9 -38.7 Q-89.6 -38.35 -89.7 -37.0 L-89.7 -36.95 -89.55 -36.75 -89.3 -36.35 Q-88.75 -35.3 -87.8 -34.45 -86.8 -33.6 -86.5 -32.25 -85.8 -31.35 -84.55 -31.25 -77.8 -30.6 -71.25 -29.05 L-70.05 -28.65 -68.7 -28.3 Q-67.8 -28.45 -66.9 -28.9 L-66.55 -29.3 -66.35 -29.65 -66.2 -30.0 -65.9 -30.8 -65.6 -31.4 Q-65.25 -31.95 -65.05 -32.6 L-64.75 -33.0 -62.8 -33.55 Q-58.7 -34.7 -54.7 -36.2 L-52.75 -37.5 -52.35 -37.85 Q-49.85 -39.5 -47.5 -41.25 L-47.35 -41.65 -47.25 -42.0 -47.25 -42.4 -47.25 -43.15 -47.25 -43.9 -47.25 -45.0 -47.25 -45.75 -47.25 -46.5 -46.9 -46.85 -46.5 -47.1 -46.0 -47.25 -45.3 -47.6 -44.5 -48.05 -44.0 -48.25 -43.05 -48.25 -43.0 -48.25 -39.05 -48.05 Q-37.6 -47.95 -36.6 -46.9 L-34.8 -44.7 -34.3 -44.05 -30.75 -44.35 Q-26.15 -44.55 -22.45 -41.85 -20.6 -40.55 -20.9 -38.4 -21.75 -32.45 -24.8 -27.15 L-31.05 -15.6 Q-32.55 -12.65 -33.25 -9.5 L-33.0 -9.15 -32.1 -8.6 -28.55 -7.7 -27.9 -7.5 -27.4 -7.1 -27.05 -6.75 -26.9 -6.4 -26.8 -6.05 -25.1 -7.6 -22.3 -10.3 -21.95 -10.65 -20.65 -13.3 Q-19.85 -15.45 -17.5 -15.25 L-17.4 -15.2 -16.5 -15.25 -15.95 -14.95 -15.55 -14.6 -15.35 -14.25 -15.25 -13.9 -15.2 -13.55 -15.0 -13.25 -14.4 -13.0 -13.9 -12.6 -13.55 -12.25 -12.95 -11.5 -12.55 -10.75 -12.25 -10.0 -12.25 -9.65 -12.15 -9.5 -9.55 -9.2 -9.1 -9.15 -8.85 -9.35 -8.0 -9.6 -7.0 -9.6 -4.25 -9.55 -1.4 -9.5 -0.9 -9.15 Q-0.2 -8.55 0.05 -7.75 0.4 -6.65 0.3 -5.4 L0.25 -4.3 0.0 -3.95 -0.1 -2.4 -0.1 -0.6 -0.1 -0.5 0.45 -1.15 1.5 -2.1 2.65 -3.0 Q3.25 -3.5 3.95 -3.4 L4.0 -3.35 6.15 -3.5 6.3 -3.5 7.3 -3.5 8.45 -3.4 8.25 -4.15 8.25 -4.9 Q8.2 -5.45 8.5 -6.0 L9.25 -7.0 Q18.3 -10.25 27.35 -10.1 L31.55 -10.0 Q33.15 -9.9 33.45 -8.0 34.45 -1.75 39.15 2.7 40.0 3.55 40.5 4.75 L40.75 5.1 43.2 5.2 48.75 5.2 50.6 5.1 Q53.55 2.35 54.7 -1.55 56.0 -6.1 59.8 -8.65 L65.35 -12.15 Q68.2 -13.8 70.5 -15.75 L71.1 -15.4 71.5 -15.75 Q75.25 -13.95 75.7 -8.8 76.1 -4.3 75.9 0.25 75.7 4.9 78.0 8.25 79.75 10.75 82.0 13.25 L90.05 14.2 94.45 14.2 99.5 13.8 100.5 13.75 100.6 13.8 101.5 13.75 102.05 14.05 102.45 14.4 102.65 14.75 102.75 15.1 102.75 15.2 Q115.55 11.3 128.0 6.0 132.0 4.3 135.65 1.7 139.9 -1.3 144.6 -1.5 L144.65 -1.4 145.6 -1.5 Q147.9 7.35 148.15 16.85 148.3 23.1 149.15 29.25 149.45 31.2 148.95 33.0 147.9 37.15 147.9 40.85 147.95 47.1 143.6 51.4 137.5 57.45 136.35 65.95 L136.2 67.1 Q145.9 74.35 145.4 86.25 145.15 92.65 141.8 98.0 140.2 100.45 137.95 102.25 131.75 107.25 123.6 107.1 L117.0 106.45 115.5 106.25 113.25 106.6 Q108.75 107.8 105.75 111.5 103.6 112.3 101.55 112.2 98.95 112.3 96.55 111.0 96.05 110.75 95.6 110.65 L94.6 111.35 Q94.0 113.2 94.75 115.2 95.65 117.55 96.85 119.75 L99.65 124.45 Q100.75 126.1 99.95 127.5 L99.5 130.1 Q98.35 134.05 95.3 136.7 88.75 142.45 95.6 148.35 L103.5 155.25 103.6 155.6 103.55 156.0 102.45 157.55 101.8 158.0 101.0 158.85 Q100.55 159.5 99.8 159.75 99.1 160.1 98.65 160.85 L97.65 162.4 97.7 162.6 97.9 163.5 98.25 165.1 98.25 165.55 98.2 166.3 98.05 167.3 97.85 168.4 Q101.15 176.8 110.25 180.35 115.7 182.35 120.9 184.95 125.25 186.95 129.8 187.05 L130.55 187.0 140.9 185.65 141.4 185.65 141.45 185.75 141.9 185.65 142.4 185.65 Q143.5 187.4 142.6 189.3 141.65 191.25 140.95 193.3 139.9 196.8 140.75 200.5 L141.5 203.5 141.9 204.85 Q142.85 207.4 142.25 210.2 142.55 212.6 145.95 214.45 148.65 216.1 149.2 219.0 149.5 220.2 149.05 221.5 L148.7 222.2 148.85 222.5 151.3 224.1 Q152.35 224.5 152.35 225.65 150.5 227.7 147.55 228.95 142.1 231.25 136.15 231.15 L135.4 231.15 134.1 231.2 132.8 231.15 130.45 231.1 118.05 230.5 115.5 230.2 Q112.1 232.4 107.9 232.55 L107.0 232.55 106.9 232.55 Q97.9 232.65 90.1 227.95 86.65 226.0 83.05 224.35 77.85 222.1 72.3 221.45 L70.55 223.7 68.55 226.9 Q67.25 229.55 65.15 231.85 L63.4 233.35 63.0 233.55 Q60.65 234.9 58.05 235.85 L55.05 236.3 54.7 236.3 Q54.65 237.75 56.0 239.25 59.05 242.55 61.3 246.5 62.55 248.7 62.9 251.1 L63.0 251.3 66.0 250.9 72.85 250.25 77.2 250.05 Q81.5 249.95 85.7 251.1 L87.65 251.75 88.5 251.95 88.6 251.75 88.85 251.4 89.05 251.15 90.1 250.95 90.45 250.95 90.7 251.0 91.1 250.95 91.45 250.95 91.7 251.0 92.15 251.2 92.95 251.8 93.35 252.35 93.5 252.9 93.6 254.25 93.1 255.4 92.7 256.0 92.25 256.6 91.65 257.55 91.35 258.3 Q106.0 275.0 127.35 275.7 129.05 275.55 130.35 274.0 134.35 269.6 139.2 266.2 141.45 264.7 143.95 263.55 155.4 258.2 167.75 255.55 L168.1 255.35 168.2 255.0 168.25 254.5 168.4 254.25 168.65 253.9 Q171.2 252.85 173.3 253.0 178.5 252.7 180.9 259.05 182.9 264.45 182.35 270.1 181.95 273.9 182.45 277.55 183.45 284.45 187.95 291.2 188.5 291.9 188.6 292.9 189.85 294.15 191.35 294.35 L192.25 294.15 Q193.8 293.75 195.2 293.0 L198.8 291.05 203.3 287.75 203.95 287.35 204.35 287.1 Q204.8 286.45 205.4 286.05 L206.25 286.2 206.4 286.05 Q224.65 288.55 229.45 305.85 L230.65 310.35 Q233.0 319.5 234.25 329.0 234.75 333.1 233.75 337.15 232.35 342.5 234.75 347.1 237.2 352.05 241.25 355.85 243.2 354.15 245.75 353.25 250.3 351.65 254.4 349.05 L257.25 347.05 263.0 342.85 268.0 339.05 Q269.05 338.25 270.2 337.55 L270.5 337.3 Q271.25 336.2 272.2 335.25 L274.05 335.2 277.9 335.65 284.5 337.85 Q288.65 339.45 292.45 341.4 293.65 341.95 293.7 343.1 L293.6 343.55 293.45 343.85 293.2 344.2 292.75 344.7 292.35 344.9 291.9 345.05 291.5 345.25 291.05 345.35 291.45 346.45 Q292.05 347.7 292.2 349.15 L292.65 351.1 293.0 353.1 Q293.1 354.05 293.45 354.75 L293.5 354.7 294.0 354.8 294.15 354.85 294.5 354.7 295.0 354.8 295.15 354.85 295.5 354.75 297.15 355.35 299.85 355.85 305.45 356.35 Q306.9 356.5 308.0 357.35 308.4 358.2 308.25 359.25 L308.25 359.6 Q308.2 361.65 308.55 363.7 309.0 366.25 308.95 369.0 308.85 372.8 305.25 374.5 L303.35 375.35 Q303.15 377.0 303.25 378.75 303.75 385.4 306.45 391.5 307.6 394.0 309.15 396.25 L317.45 407.75 Q319.1 410.05 322.05 410.25 L323.55 410.05 325.15 409.95 325.55 409.95 327.15 408.0 328.05 406.85 333.15 400.3 Q335.95 397.0 337.2 393.1 338.25 389.85 340.95 388.75 L341.4 389.05 341.95 388.75 342.95 389.4 343.15 389.75 343.2 390.1 343.2 390.5 343.2 390.85 343.2 391.25 343.3 391.6 343.55 392.35 343.8 392.95 356.0 391.2 377.45 390.0 377.95 390.0 Q388.3 390.0 390.15 398.85 390.55 400.8 389.0 402.5 377.9 414.2 380.25 429.65 381.8 439.7 384.3 449.65 385.2 453.15 387.95 455.6 389.55 456.3 391.15 456.4 392.7 456.3 394.25 455.65 L395.5 455.35 397.75 455.3 399.95 455.35 400.6 455.5 401.45 456.25 401.7 456.6 401.85 456.95 402.05 457.35 402.2 457.75 402.25 458.5 402.65 459.65 403.45 461.1 Q418.75 460.7 425.35 446.15 425.85 445.05 427.0 444.0 432.95 438.7 438.95 438.95 444.4 438.7 449.9 443.15 451.2 444.25 453.0 444.95 469.85 451.8 469.55 469.75 469.55 472.05 468.15 474.2 462.7 482.5 467.85 490.9 468.95 492.65 468.25 494.8 467.05 498.5 465.35 502.0 464.85 502.85 465.95 502.95 L466.95 503.2 467.55 503.55 Q468.5 504.1 468.85 505.05 469.3 506.3 469.4 507.6 L469.65 509.45 475.15 506.7 Q478.8 504.75 480.3 500.9 483.3 493.15 489.2 493.5 491.4 493.35 494.1 494.5 496.1 495.35 498.45 495.35 505.75 495.4 503.45 501.6 L502.5 501.45 502.45 501.6 501.25 501.35 500.9 501.1 500.75 500.7 500.7 500.35 500.7 500.0 500.65 499.6 500.5 499.2 500.2 498.5 499.95 498.1 497.85 497.65 496.85 497.75 494.05 498.0 492.2 497.9 491.45 497.75 Q490.0 497.35 489.05 496.25 L488.8 496.0 Q487.55 496.35 486.75 497.5 L486.05 498.65 Q484.25 502.35 481.6 505.55 477.5 510.45 471.45 512.6 L469.7 512.8 467.7 512.5 466.6 511.35 466.3 510.95 466.2 510.6 466.2 510.25 465.95 509.5 465.7 508.35 465.7 506.5 465.7 506.1 465.4 505.8 Q465.1 505.6 464.7 505.55 L463.0 505.2 462.25 504.9 461.85 504.6 Q464.35 496.8 463.7 488.95 463.6 487.35 463.1 485.65 460.5 477.1 466.0 469.15 467.9 466.4 466.65 463.3 460.4 447.65 444.2 443.35 L441.6 442.8 439.5 442.65 Q431.75 442.85 426.65 449.95 423.7 454.05 420.35 457.65 418.3 459.85 415.6 461.55 410.55 464.75 406.85 464.55 401.55 464.85 398.8 458.95 L395.55 459.15 Q389.15 459.3 384.25 454.55 380.55 451.0 379.25 445.9 376.85 436.5 376.3 426.95 375.75 417.3 380.5 408.9 383.65 403.4 387.45 398.5 L387.6 398.1 387.45 397.75 387.3 397.35 387.15 397.0 386.95 396.6 Q384.2 395.4 381.4 394.55 377.6 393.4 373.5 393.2 L372.0 393.15 365.9 393.3 Q358.95 393.75 352.25 395.5 L346.75 396.15 343.5 395.95 Q341.65 395.7 340.75 394.4 338.25 399.8 334.8 405.15 330.8 411.4 324.7 411.85 L322.65 411.9 Q312.55 412.15 307.75 402.55 303.35 393.7 300.65 383.6 299.45 379.0 299.75 374.0 300.4 373.0 301.45 372.7 L302.25 372.55 Q304.95 371.9 305.2 369.35 305.45 366.8 305.1 364.45 304.7 362.25 304.75 360.0 L304.75 359.25 Q302.35 358.55 298.6 358.4 L296.0 358.15 295.25 358.0 294.85 357.85 294.8 357.95 294.5 358.3 294.25 358.5 293.85 358.7 293.55 358.75 293.3 358.7 293.05 358.6 292.85 358.7 292.55 358.75 292.3 358.7 291.8 358.45 290.1 356.95 290.05 355.9 289.6 353.25 289.2 351.1 288.05 348.05 287.05 345.65 287.1 345.25 287.35 344.85 287.55 344.5 287.75 344.3 288.2 343.65 Q288.25 342.0 285.4 341.05 L282.95 340.25 Q279.2 338.7 275.2 338.0 L274.3 337.85 Q272.6 339.9 270.6 341.35 L262.8 346.85 260.05 349.1 Q257.3 351.75 253.75 353.3 L247.85 355.8 245.4 356.8 Q245.2 356.85 245.05 357.1 L242.0 359.5 241.45 359.2 241.0 359.5 Q227.4 351.45 230.7 337.05 232.55 329.3 229.9 321.85 228.35 317.2 227.65 312.35 226.95 306.95 224.85 302.25 221.65 294.85 214.0 291.2 210.9 289.65 207.7 288.7 L205.5 290.35 202.15 292.65 Q199.4 294.5 196.4 295.8 195.15 296.35 193.6 296.5 L193.15 296.55 190.75 296.8 Q187.5 297.0 185.3 294.25 L185.0 292.2 Q184.55 290.4 183.6 288.75 182.6 286.9 181.3 285.35 L178.45 281.7 178.45 281.25 178.55 280.8 178.6 280.4 178.6 279.95 178.15 279.75 177.7 279.6 176.6 279.5 175.7 279.15 175.25 278.55 175.05 278.05 175.35 277.75 175.45 277.35 175.7 277.2 177.25 276.85 177.75 276.8 178.45 276.8 178.2 273.95 Q178.15 272.55 178.25 271.15 L178.45 267.05 Q178.6 263.4 177.3 259.9 L176.85 258.0 176.7 257.85 Q174.75 256.6 172.75 255.7 L172.65 255.65 172.4 255.8 Q165.35 260.0 155.6 262.5 147.85 264.6 141.0 268.95 138.65 270.4 137.05 272.55 131.2 280.2 123.4 279.95 118.4 280.15 112.6 276.95 110.05 275.55 107.1 274.7 92.55 270.5 88.45 257.4 88.1 256.4 88.9 255.25 85.4 253.9 81.7 253.25 L75.55 252.5 74.25 252.55 Q69.5 252.75 65.15 253.8 64.4 254.0 63.85 254.7 63.25 255.55 62.35 255.85 L61.9 255.75 61.75 255.7 61.35 255.85 60.9 255.75 60.4 255.55 59.65 254.95 59.2 254.4 Q59.65 252.6 59.35 250.75 58.8 246.8 55.8 244.25 51.4 240.55 50.4 234.9 L50.55 234.2 Q52.85 233.25 55.55 233.2 57.9 233.15 59.9 231.95 62.95 230.15 64.45 226.8 L64.75 226.1 65.2 225.45 68.35 221.25 70.1 218.85 71.1 218.9 71.1 218.85 Q77.3 218.95 83.15 221.45 90.1 224.35 96.9 227.65 101.7 230.0 107.0 230.1 110.85 229.95 113.8 227.5 L114.75 227.55 114.8 227.5 122.25 228.0 127.7 228.5 133.15 228.65 133.25 228.65 134.05 228.65 134.15 228.65 139.35 228.15 142.3 227.5 Q144.4 227.0 146.0 225.65 L146.35 225.5 Q146.5 225.0 145.75 223.8 145.35 223.2 145.25 222.4 145.1 221.85 145.25 221.35 L145.4 220.6 145.7 219.5 145.9 219.1 143.25 216.45 138.3 211.75 138.6 208.4 Q138.9 205.8 137.95 203.4 136.45 199.65 136.6 195.7 136.7 193.95 137.45 192.5 L137.65 192.0 138.5 189.2 132.95 189.55 129.75 189.45 Q122.6 189.05 116.2 186.0 112.25 184.0 108.2 182.6 99.55 179.35 95.8 172.0 L95.7 171.7 94.6 170.65 94.05 170.0 94.1 169.45 94.3 167.75 94.4 166.6 94.55 165.6 94.35 164.7 Q94.05 163.85 94.1 162.85 L93.95 161.8 94.2 161.5 94.8 160.65 95.55 159.75 96.0 159.1 96.4 158.5 Q96.75 157.9 97.3 157.8 L98.2 157.0 98.85 156.05 Q94.45 152.45 89.45 146.4 87.8 144.5 88.45 142.15 88.75 141.25 88.35 140.3 L88.2 139.95 87.8 139.7 87.3 139.45 86.35 138.6 86.2 138.1 86.4 137.75 86.85 137.25 88.3 136.85 88.9 136.8 89.45 136.75 89.9 136.65 90.35 136.55 90.8 135.9 Q91.3 135.0 92.15 134.65 L93.1 133.85 94.15 132.7 95.5 131.4 Q96.35 130.5 96.75 129.4 L97.15 127.95 Q90.85 121.65 82.2 121.45 L82.15 121.45 Q76.15 121.65 69.95 123.1 L62.95 124.7 Q58.4 125.7 54.0 127.25 L53.15 127.5 52.8 127.35 52.15 127.5 Q49.7 126.65 49.3 124.2 49.0 122.1 47.4 120.8 42.95 116.85 39.65 112.7 L39.9 112.35 40.5 111.4 Q40.8 110.95 41.2 110.65 L41.95 110.05 42.5 109.8 43.75 109.25 44.65 108.8 44.8 108.55 Q45.6 100.45 53.55 95.9 58.55 93.2 62.9 89.2 65.3 86.95 66.25 84.0 68.0 78.5 64.35 72.6 60.75 66.85 67.25 65.75 77.95 63.95 87.2 58.35 88.95 57.3 90.35 55.5 81.4 43.95 67.75 40.0 64.25 38.95 60.75 38.9 L55.6 39.5 52.0 40.05 51.8 39.95 51.0 40.05 50.15 39.5 Q46.05 36.65 43.3 32.55 42.95 32.15 42.95 31.65 42.9 31.4 43.0 31.25 L43.45 30.65 44.1 29.75 44.3 29.5 Q44.45 29.3 44.7 29.25 L45.1 29.1 45.35 28.9 46.15 28.4 46.7 27.95 46.8 27.15 Q46.75 25.75 46.25 24.5 L45.4 22.45 43.15 18.55 Q42.7 18.15 42.6 17.45 39.65 15.35 37.1 15.15 33.9 15.4 31.3 18.85 28.6 22.45 24.9 25.2 20.2 28.85 14.45 30.15 L12.65 30.3 Q9.75 30.6 8.8 27.55 L8.1 25.45 Q3.9 16.85 6.4 8.75 L6.3 8.55 3.05 5.65 Q2.3 4.95 2.7 4.05 L2.85 3.8 Q3.3 2.9 4.3 2.85 L5.95 2.75 6.8 2.45 7.65 1.7 8.1 0.7 Q8.25 0.1 8.55 -0.45 L7.6 -0.75 5.9 -0.95 5.45 -0.95 3.85 -0.85 2.5 -0.5 1.6 0.0 1.35 0.05 1.3 0.15 1.1 0.15 1.25 0.05 1.0 -0.15 0.95 -0.15 0.6 0.0 0.35 0.05 0.3 0.15 0.1 0.15 0.25 0.05 0.0 -0.15 -0.05 -0.2 0.05 0.8 -0.1 0.95 -0.4 1.25 -0.65 1.45 -0.85 1.4 -0.8 0.6 -0.95 1.3 -1.1 1.1 -1.15 1.0 -1.4 1.25 -1.65 1.45 -1.85 1.4 -1.8 0.6 -1.95 1.3 -2.1 1.1 -2.2 0.75 -2.2 0.55 -3.05 -1.2 -3.25 -2.25 -3.25 -2.65 -3.2 -4.5 Q-3.15 -5.75 -3.75 -6.75 L-3.8 -6.95 -7.15 -6.55 -8.0 -6.25 -8.85 -6.3 -9.0 -6.25 -10.0 -6.35 Q-12.15 -6.65 -14.15 -7.35 -15.35 -7.8 -15.9 -8.8 -16.35 -9.65 -16.4 -10.65 L-16.55 -10.75 -17.25 -11.1 -17.55 -11.3 Q-18.0 -10.3 -18.7 -9.55 L-21.05 -6.9 -21.45 -6.55 -21.95 -6.0 Q-22.75 -4.8 -23.75 -3.75 -24.75 -2.7 -26.0 -2.25 L-26.8 -2.3 -27.0 -2.25 -28.0 -2.35 -28.75 -2.5 -29.15 -2.9 -29.5 -3.3 -29.75 -3.65 -29.9 -4.0 -30.1 -4.4 -30.25 -4.75 -30.25 -5.0 -30.3 -5.1 -33.5 -5.35 -34.25 -5.5 -34.65 -5.9 -35.0 -6.25 -35.4 -6.65 -35.75 -7.0 -36.15 -7.4 -36.5 -7.8 -36.75 -8.15 Q-37.05 -10.15 -36.3 -11.9 L-35.75 -13.4 -35.6 -13.75 -31.9 -21.25 -27.85 -29.75 Q-26.0 -33.55 -24.5 -37.5 -24.25 -38.15 -24.25 -38.9 L-24.55 -39.25 -24.9 -39.65 -25.25 -40.0 -25.55 -40.15 -35.75 -41.0 -36.15 -41.4 -36.5 -41.75 -37.25 -42.5 -38.0 -43.25 -39.05 -44.45 -39.4 -45.15 -39.9 -45.35 -41.3 -45.4 -42.75 -45.35 -43.15 -45.15 Q-44.1 -44.55 -43.85 -43.25 -43.45 -41.35 -44.45 -39.9 L-44.8 -39.55 Q-47.95 -37.05 -51.5 -35.15 -56.7 -32.35 -62.25 -30.5 -62.4 -29.35 -62.9 -28.2 -63.75 -26.25 -65.9 -25.95 L-66.5 -25.95 -66.7 -25.95 -66.9 -25.95 -67.5 -25.95 -86.9 -28.9 -88.25 -29.0 -89.1 -30.0 -89.25 -30.25 Q-98.7 -28.5 -104.95 -22.65 -106.95 -20.8 -106.6 -17.95 -105.95 -12.6 -107.05 -7.6 -107.65 -5.1 -109.6 -3.4 -115.55 1.85 -120.25 8.0 L-113.9 18.95 Q-112.15 21.95 -111.15 25.3 -109.05 32.7 -104.4 38.65 -100.45 43.7 -93.15 44.95 L-92.6 45.0 Q-91.2 44.9 -89.9 44.1 -87.15 41.25 -85.75 37.7 -84.9 35.55 -84.85 33.25 -84.85 32.25 -84.5 31.45 -83.8 29.85 -82.45 28.9 -79.35 26.55 -76.0 24.75 L-75.4 25.0 -75.0 24.75 Q-71.2 26.15 -68.3 29.55 -65.75 32.55 -62.85 35.1 -62.1 35.8 -61.0 36.25 -60.0 36.65 -59.25 37.45 L-57.75 39.0 Q-55.65 39.7 -53.65 39.8 -50.6 39.65 -47.7 38.0 -45.4 36.65 -42.9 36.1 L-38.55 28.35 Q-37.15 26.0 -34.6 24.8 -31.35 23.25 -27.75 23.4 L-23.65 23.8 Q-20.55 24.55 -18.9 27.35 L-17.4 27.35 -11.7 27.45 -9.7 27.5 -9.0 26.8 -7.45 25.55 -6.25 24.5 -5.9 24.1 -5.75 18.85 Q-5.8 16.3 -6.5 13.9 -6.75 13.05 -6.5 12.2 L-6.1 11.05 -4.75 7.15 Q-4.0 5.25 -2.5 4.25 -2.15 4.35 -1.9 4.55 L-1.5 4.25 Q0.05 4.75 -0.35 6.35 -0.65 7.7 -1.35 8.95 L-2.6 11.6 -3.25 13.5 Q-1.95 15.45 -2.1 18.0 L-2.25 22.85 Q-2.25 23.8 -2.55 24.65 L-3.3 26.05 -4.5 27.25 -7.65 29.85 -12.8 30.05 -17.95 30.15 -20.0 30.1 -20.75 30.0 -21.5 29.25 -22.65 28.1 -23.65 26.9 -23.9 26.35 -26.65 26.1 Q-35.95 26.35 -40.2 35.9 -42.35 40.7 -48.25 41.5 L-51.5 41.75 -52.3 41.75 -52.5 41.75 Q-62.5 41.85 -69.85 34.0 L-75.0 27.85 Q-82.5 31.2 -84.0 39.9 -84.5 42.85 -87.1 44.7 -90.4 47.1 -94.25 46.95 -97.1 47.05 -100.25 45.75 -111.65 41.05 -114.85 27.85 -117.05 18.8 -122.55 11.5 -124.2 9.35 -123.75 6.6 -119.45 1.0 -113.9 -3.25 -109.35 -6.75 -110.5 -11.15 -112.6 -19.1 -107.7 -25.55 -103.2 -31.45 -94.5 -31.55 -93.9 -31.55 -93.25 -31.9 L-93.25 -33.4 -93.25 -35.25 -93.25 -36.05 -95.0 -38.15 Q-97.2 -40.45 -97.2 -43.65 -97.2 -45.25 -96.3 -46.35 L-96.25 -47.65 -96.0 -49.45 -95.25 -51.0 -93.5 -51.0 -88.15 -50.55 -87.65 -50.45 Q-86.55 -50.6 -85.75 -51.4 -86.35 -54.3 -86.1 -57.35 -85.75 -61.5 -82.3 -64.35 L-74.25 -71.05 Q-72.3 -72.65 -70.75 -74.65 L-70.9 -75.0 -71.15 -75.4 -71.35 -75.75 -71.55 -76.1 -71.75 -76.5 Q-80.0 -77.8 -80.15 -85.0 -80.2 -87.4 -79.85 -89.95 -78.95 -96.2 -76.9 -102.25 -75.75 -105.6 -76.2 -109.1 L-76.9 -116.5 -77.9 -116.55 Q-81.55 -116.45 -85.45 -114.45 -90.05 -112.05 -92.7 -107.95 -93.65 -106.55 -95.0 -105.4 L-95.5 -105.35 -95.95 -105.45 -96.0 -105.4 -96.5 -105.35 -97.25 -105.55 -97.6 -105.9 -97.75 -106.25 -97.8 -106.5 Q-105.2 -105.15 -112.4 -102.7 -116.05 -101.45 -119.35 -101.55 -124.85 -101.4 -129.4 -104.7 L-133.95 -95.85 Q-138.95 -86.55 -148.9 -85.05 L-157.2 -84.35 -160.75 -84.3 -165.25 -84.5 -165.6 -84.9 -165.75 -85.25 -165.9 -85.55 Q-167.95 -84.3 -170.05 -83.25 -174.1 -81.2 -178.55 -80.65 L-182.4 -80.45 -184.25 -80.5 Q-186.4 -81.95 -186.95 -84.2 L-188.55 -89.5 -190.0 -94.3 -191.2 -99.6 -191.65 -100.75 -191.8 -101.0 -191.9 -101.1 -193.95 -101.45 -195.15 -101.9 Q-190.35 -109.15 -183.1 -116.05 -175.2 -123.55 -170.55 -132.7 -167.85 -138.0 -165.55 -143.5 L-163.0 -149.05 Q-161.3 -152.5 -160.75 -156.25 L-160.85 -156.55 -161.55 -157.1 Q-162.4 -157.4 -163.05 -157.9 L-164.15 -158.9 -164.7 -159.45 -169.25 -158.95 -171.05 -158.8 Q-173.1 -158.65 -174.65 -159.9 -174.85 -161.15 -174.55 -162.45 -174.1 -164.6 -172.85 -166.45 L-170.35 -170.35 -167.95 -174.0 Q-167.45 -174.7 -167.25 -175.65 -167.25 -176.65 -167.7 -177.6 L-168.85 -180.9 -169.75 -183.9 -170.7 -186.85 Q-171.0 -187.75 -171.65 -188.4 L-175.0 -189.05 Q-177.5 -188.95 -179.7 -187.5 L-185.5 -183.75 -185.85 -184.15 -186.5 -183.75 Q-193.65 -191.4 -204.2 -195.15 -207.1 -196.15 -209.9 -196.25 -214.65 -196.1 -219.05 -193.25 -227.6 -187.6 -235.0 -180.4 L-235.65 -180.7 -236.0 -180.4 Q-239.65 -181.9 -239.7 -186.5 -239.7 -190.4 -241.4 -194.0 -243.45 -198.3 -246.3 -202.2 -248.6 -205.4 -249.65 -209.05 -252.15 -207.95 -254.75 -206.1 -259.0 -203.0 -263.95 -202.3 -264.3 -201.85 -264.85 -202.05 L-265.1 -202.1 -265.85 -202.05 -266.0 -202.1 -266.45 -202.1 -267.0 -202.1 -267.9 -202.3 -269.85 -201.65 -273.35 -199.55 Q-273.7 -199.3 -274.1 -199.15 L-274.2 -198.0 Q-274.05 -196.6 -274.7 -195.55 -275.75 -193.8 -277.7 -193.15 L-280.45 -192.75 -282.7 -193.0 -283.05 -193.4 -283.2 -193.75 -283.4 -194.1 -284.05 -194.95 -284.5 -195.6 -284.95 -196.4 -285.25 -196.4 Q-286.7 -196.3 -288.15 -195.6 L-294.75 -191.9 Q-297.7 -190.05 -300.95 -189.25 L-301.3 -189.4 -301.95 -189.25 Q-304.2 -190.1 -304.5 -192.45 -304.8 -194.8 -305.6 -197.05 L-307.05 -200.4 -308.3 -203.2 Q-308.75 -204.25 -309.55 -205.2 L-311.15 -207.1 -312.05 -207.1 Q-315.8 -207.0 -319.05 -208.55 -321.6 -209.7 -322.65 -212.35 L-323.85 -215.75 Q-327.75 -216.55 -329.8 -219.95 -331.4 -222.7 -329.7 -225.4 L-327.65 -229.4 -326.25 -232.8 -325.1 -235.45 Q-324.55 -236.65 -324.6 -238.0 L-324.8 -240.1 -327.35 -239.95 Q-332.4 -239.75 -336.6 -242.85 -342.2 -246.9 -348.45 -248.8 -349.8 -249.2 -349.85 -250.65 L-350.5 -251.15 Q-353.1 -252.35 -355.95 -252.45 -356.9 -252.45 -357.45 -253.25 L-357.9 -255.15 Q-357.95 -256.95 -357.45 -258.6 -356.95 -260.35 -355.9 -261.95 -355.15 -263.1 -354.9 -264.5 -354.65 -265.75 -353.95 -266.85 L-353.45 -267.9 Q-352.95 -268.9 -354.0 -269.4 -355.4 -270.05 -356.0 -271.55 -356.45 -272.75 -356.3 -274.25 -356.1 -275.6 -356.5 -276.8 L-356.85 -278.65 Q-368.7 -279.6 -379.35 -285.25 -384.35 -287.95 -387.9 -292.05 -389.85 -294.25 -391.15 -296.9 L-392.05 -298.3 -392.25 -298.15 -392.75 -297.6 -393.4 -297.45 -393.8 -297.55 -394.4 -297.45 -394.95 -297.6 -396.7 -295.95 Q-397.65 -294.85 -398.8 -294.1 -402.25 -291.7 -405.95 -291.9 L-407.7 -291.95 -408.05 -292.35 -408.3 -292.7 -408.5 -293.05 -408.75 -293.45 -409.05 -293.85 -409.3 -294.2 -409.5 -294.55 -409.7 -294.95 -409.85 -295.3 -410.1 -295.7 -411.3 -295.9 Q-413.1 -295.8 -414.8 -294.55 -421.1 -290.0 -428.25 -287.05 -432.0 -285.5 -435.8 -285.6 L-439.3 -285.85 -446.8 -286.85 -459.75 -286.95 -465.2 -286.45 -465.3 -286.55 -466.2 -286.45 -466.6 -286.8 Q-468.25 -288.15 -468.25 -290.2 L-468.3 -293.95 Q-468.4 -296.7 -467.6 -299.25 L-467.2 -300.7 -466.3 -306.4 Q-465.95 -309.3 -465.1 -311.9 -463.95 -315.45 -465.6 -318.7 L-465.75 -318.95 -467.35 -318.85 -467.95 -318.8 -469.7 -318.75 -471.45 -318.8 -472.2 -318.95 Q-474.9 -321.15 -474.95 -324.6 -475.05 -329.55 -473.95 -334.25 -471.55 -344.6 -464.0 -352.45 -458.0 -358.7 -449.7 -361.55 -443.1 -363.85 -440.25 -370.8 -437.1 -378.55 -442.0 -386.3 L-442.75 -386.0 -443.5 -385.75 -444.45 -385.75 -444.5 -385.75 -445.45 -385.75 -446.2 -385.95 -446.45 -386.35 -446.95 -387.45 -447.5 -388.55 -448.05 -389.7 Q-448.3 -390.25 -448.2 -390.85 -448.15 -391.6 -448.45 -392.35 L-448.65 -393.45 Q-448.5 -394.65 -448.95 -395.75 -449.3 -396.6 -449.2 -397.6 L-449.75 -397.85 -451.7 -398.55 -452.0 -398.65 -452.7 -399.0 -453.9 -399.75 -454.7 -400.5 -455.3 -401.15 -455.7 -401.45 -456.35 -401.4 -457.0 -401.3 -457.95 -401.25 -458.05 -401.25 -458.95 -401.25 -459.7 -401.45 -460.1 -401.85 -460.45 -402.2 -460.65 -402.6 -460.7 -402.95 -460.75 -403.3 -460.95 -403.7 -461.2 -404.1 -461.45 -404.45 -461.65 -404.8 -462.0 -405.2 -462.45 -405.6 -463.35 -405.8 -473.45 -406.1 Q-474.35 -406.1 -475.1 -406.6 L-475.7 -407.2 -475.75 -407.55 Q-476.7 -410.1 -479.9 -411.2 -484.1 -412.7 -488.2 -414.45 -492.7 -416.3 -497.0 -416.4 -502.2 -416.3 -507.2 -413.6 L-507.2 -413.2 -507.2 -412.45 -507.2 -411.7 -507.15 -410.95 -506.85 -409.8 Q-506.6 -409.25 -506.7 -408.7 L-506.7 -407.6 -506.7 -406.45 -506.4 -404.5 Q-506.1 -403.6 -506.45 -402.7 -506.65 -402.5 -506.85 -402.5 -513.65 -402.3 -519.55 -399.25 -521.45 -398.3 -522.85 -396.55 L-527.05 -391.25 -527.9 -390.55 Q-529.05 -389.95 -530.3 -390.05 L-532.15 -390.25 -532.2 -390.1 -532.35 -389.7 -532.45 -389.35 -532.6 -388.95 -532.75 -388.6 -532.95 -388.2 -533.1 -387.85 -533.3 -387.45 -533.6 -386.7 -533.85 -385.95 -534.0 -385.6 -534.15 -385.2 -534.4 -384.45 -534.6 -384.1 -534.95 -383.85 -535.55 -383.55 -535.95 -383.35 -536.55 -383.05 -537.0 -382.85 -537.45 -382.7 -538.8 -382.4 -539.6 -382.05 -540.2 -381.7 -540.5 -380.95 Q-541.15 -378.9 -542.1 -377.0 L-544.65 -372.3 -546.65 -368.9 -548.25 -366.55 Q-551.4 -362.7 -556.0 -360.8 -559.95 -359.15 -564.05 -359.25 L-567.2 -359.45 Q-568.35 -360.6 -569.7 -361.15 -571.4 -361.9 -573.05 -361.95 -576.7 -361.8 -580.4 -358.6 -584.75 -354.9 -589.9 -355.1 -592.35 -355.0 -594.95 -355.8 -598.45 -356.9 -601.5 -359.0 -607.3 -362.95 -614.25 -363.0 L-615.7 -362.95 -615.75 -363.0 -616.7 -362.95 -617.0 -363.35 Q-617.7 -364.75 -617.8 -366.3 -617.9 -368.1 -617.5 -369.75 -616.8 -372.4 -615.6 -374.95 -615.45 -375.35 -615.45 -375.7 L-615.05 -376.9 Q-613.6 -379.35 -613.0 -382.05 -612.45 -384.6 -612.8 -387.3 L-613.35 -393.7 -613.7 -393.85 -614.5 -393.9 -614.7 -393.9 -616.9 -393.85 -620.5 -393.85 -621.45 -393.85 -622.2 -393.95 -622.6 -394.35 -622.95 -394.7 -623.35 -395.1 -623.7 -395.45 -624.0 -395.65 -626.75 -396.2 Q-629.0 -396.1 -631.0 -394.7 -633.25 -393.15 -635.75 -392.1 -639.2 -390.7 -642.75 -389.65 L-644.4 -389.5 Q-646.2 -389.25 -647.45 -390.7 L-647.6 -391.1 -647.7 -391.85 -647.75 -392.2 -647.95 -392.95 -648.15 -393.7 -648.25 -394.45 -648.45 -395.2 -648.65 -395.95 -648.8 -397.05 -649.0 -397.85 -649.2 -398.6 -649.75 -398.9 -650.45 -399.2 -651.15 -399.5 -651.6 -399.85 -651.85 -399.95 -652.7 -399.95 -654.45 -399.95 -655.35 -399.95 -655.9 -399.55 -656.2 -399.2 -656.45 -398.85 -656.85 -398.5 -657.45 -398.35 -658.0 -398.4 -658.45 -398.35 -659.15 -398.5 -659.6 -398.85 -659.7 -399.2 Q-659.85 -399.85 -659.55 -400.4 L-658.3 -401.8 Q-657.45 -402.4 -656.45 -402.65 L-653.25 -403.0 Q-650.9 -403.2 -648.8 -402.0 L-646.35 -400.55 -645.95 -400.2 -645.85 -399.8 -645.7 -399.05 -645.65 -398.7 -645.5 -398.3 -645.25 -397.55 -645.15 -396.85 -644.95 -396.1 -644.85 -395.7 -644.75 -395.3 -644.7 -394.6 -644.4 -393.4 -644.15 -392.7 -644.15 -392.65 -639.95 -393.7 Q-636.9 -394.45 -634.25 -396.05 -631.75 -397.65 -628.9 -398.5 L-625.6 -398.9 Q-622.45 -399.1 -620.35 -396.85 L-620.2 -396.65 -619.0 -396.6 -615.2 -396.6 -614.45 -396.6 -611.85 -396.3 -610.85 -395.9 -609.95 -395.2 -609.85 -394.8 -609.5 -392.2 -609.35 -388.8 -609.2 -383.2 -609.2 -382.45 Q-609.2 -381.9 -609.35 -381.4 L-611.15 -376.4 -612.95 -371.9 Q-614.15 -369.05 -614.2 -365.95 -610.0 -365.65 -605.45 -363.95 -599.0 -361.5 -592.95 -358.4 -591.1 -357.45 -589.25 -357.3 -587.75 -357.4 -586.2 -358.1 -582.15 -359.95 -578.8 -362.85 -575.4 -365.8 -572.25 -365.55 -568.65 -365.85 -565.35 -362.1 L-562.75 -361.6 -560.5 -362.0 Q-556.35 -363.25 -553.25 -366.35 -550.6 -369.0 -548.65 -372.2 -547.35 -374.35 -546.5 -376.7 -544.95 -381.3 -541.2 -383.65 -536.25 -386.75 -534.2 -392.95 L-533.95 -393.05 -533.45 -393.15 -532.45 -393.15 -530.95 -393.1 -530.35 -393.05 -529.65 -392.95 -529.45 -393.35 -527.85 -395.6 -525.7 -398.3 Q-524.3 -400.05 -522.4 -401.25 -516.55 -404.95 -510.1 -404.85 L-510.15 -405.2 -510.2 -405.95 -510.2 -406.7 -510.2 -407.45 -510.3 -408.55 -510.45 -409.35 -510.65 -410.05 -510.75 -411.2 -510.75 -412.35 -510.7 -414.2 -510.7 -414.95 -510.35 -415.35 -509.65 -415.85 -508.95 -416.2 -507.45 -416.7 -505.75 -417.35 -502.85 -418.45 -501.95 -418.7 -500.95 -418.7 -498.95 -418.65 -492.05 -418.1 Q-487.9 -417.55 -484.05 -415.9 -480.5 -414.35 -476.95 -413.25 -473.25 -412.15 -472.2 -408.7 L-472.2 -408.6 -471.1 -408.6 -467.0 -408.55 -463.0 -408.4 Q-460.85 -408.3 -459.2 -407.0 L-457.95 -405.55 -457.25 -404.25 -456.2 -404.3 Q-455.0 -404.45 -453.9 -403.85 L-452.25 -402.65 Q-451.65 -402.1 -451.05 -401.65 -450.5 -401.2 -449.8 -401.05 -448.25 -400.75 -446.9 -399.9 L-445.95 -399.2 -445.85 -398.8 -445.75 -398.05 -445.7 -397.35 -445.55 -396.6 -445.3 -395.45 Q-445.2 -394.9 -445.25 -394.35 L-445.1 -393.2 -444.9 -392.05 Q-444.85 -391.1 -444.4 -390.25 L-443.9 -389.25 -443.6 -389.6 -443.2 -389.95 -442.45 -390.15 -441.5 -390.15 -441.45 -390.15 -440.5 -390.15 -439.85 -389.95 -437.1 -384.55 Q-435.0 -379.8 -435.85 -374.7 -437.85 -362.65 -448.45 -357.85 -462.1 -351.6 -468.65 -337.95 -472.4 -330.2 -470.6 -321.85 -469.85 -321.3 -468.95 -321.15 L-468.35 -321.3 -466.15 -321.5 Q-462.65 -321.85 -461.7 -318.0 -460.9 -314.6 -461.35 -311.3 L-461.6 -309.4 Q-461.95 -306.15 -462.85 -303.05 -463.9 -299.15 -464.55 -295.2 -465.05 -292.0 -464.2 -289.2 L-462.65 -289.25 -453.8 -288.85 -444.2 -287.55 -439.5 -287.05 Q-433.95 -287.15 -428.65 -289.65 -422.85 -292.35 -417.75 -296.25 -414.3 -298.85 -411.55 -298.6 -407.95 -298.9 -405.45 -294.7 L-405.2 -294.55 -404.95 -294.5 Q-404.3 -294.65 -403.65 -295.15 -402.65 -296.0 -401.45 -296.5 -400.35 -296.95 -399.55 -297.75 L-397.55 -299.65 -395.2 -301.4 -393.7 -301.6 Q-392.75 -301.95 -391.95 -301.1 L-391.85 -300.85 Q-386.7 -297.5 -382.05 -292.0 -380.15 -289.7 -377.35 -288.05 -370.85 -284.2 -363.6 -283.65 -357.5 -283.15 -354.2 -278.85 -352.5 -276.6 -352.5 -273.5 -352.5 -272.5 -351.95 -271.65 L-351.7 -271.45 -350.95 -271.2 -350.35 -270.95 -349.95 -270.65 Q-349.55 -269.6 -349.65 -268.4 -349.85 -266.3 -350.85 -264.45 L-352.4 -261.35 -353.3 -259.0 -354.0 -256.7 -354.2 -255.25 -354.05 -255.05 Q-351.4 -254.95 -348.95 -253.8 -347.4 -253.1 -346.55 -251.6 L-346.2 -250.9 Q-342.05 -249.7 -338.15 -246.7 -333.0 -242.7 -326.7 -242.5 L-324.9 -242.65 -324.15 -242.6 -323.9 -242.65 Q-322.55 -242.75 -321.45 -241.75 -321.05 -240.3 -321.0 -238.75 -320.9 -236.4 -321.75 -234.25 L-323.2 -230.95 -324.35 -228.3 Q-324.8 -227.1 -325.65 -226.05 L-326.85 -223.8 -327.2 -223.0 -320.65 -214.75 Q-319.65 -213.5 -318.0 -212.65 L-308.35 -207.95 Q-306.0 -206.8 -304.9 -204.4 L-302.05 -197.55 Q-301.2 -195.35 -300.7 -193.0 L-299.95 -192.85 Q-297.8 -193.05 -295.2 -194.7 -291.35 -197.15 -287.15 -198.85 L-284.8 -199.2 Q-282.5 -199.55 -281.45 -197.05 L-280.7 -196.0 -280.35 -195.85 Q-279.65 -196.0 -279.0 -196.3 L-277.85 -196.9 -277.75 -197.25 -277.7 -197.65 -277.7 -198.0 -277.7 -198.4 -277.7 -198.75 -277.7 -199.5 -277.65 -200.25 -277.6 -200.65 -275.05 -202.4 Q-272.9 -204.1 -270.35 -204.8 L-268.05 -205.0 -266.2 -204.85 Q-264.0 -206.15 -261.05 -207.2 -256.7 -208.85 -252.65 -211.25 L-250.5 -212.25 -249.6 -212.2 -249.5 -212.25 -248.0 -212.15 -247.4 -212.0 Q-245.6 -209.0 -244.05 -205.8 -242.25 -202.15 -240.1 -198.75 -237.9 -195.3 -237.0 -191.3 L-235.4 -184.6 Q-228.5 -190.5 -220.2 -195.05 -213.5 -198.7 -207.1 -198.5 -198.15 -198.75 -189.8 -191.6 -187.65 -189.8 -186.05 -187.5 -180.75 -191.2 -176.45 -190.95 -171.25 -191.25 -167.5 -186.0 L-165.9 -183.5 Q-162.2 -177.0 -166.0 -171.2 L-171.15 -162.5 -171.15 -162.35 -168.05 -162.5 -162.9 -162.0 -162.4 -161.6 -161.55 -161.0 -159.75 -159.95 -159.75 -160.0 -159.5 -160.1 -159.0 -160.2 -158.05 -160.2 -158.0 -160.2 -157.05 -160.2 -156.4 -160.0 -156.05 -159.6 -155.8 -159.25 -155.75 -158.9 -155.7 -158.55 -155.4 -158.15 Q-148.75 -153.1 -141.8 -152.95 -136.95 -153.05 -131.9 -155.55 -129.3 -156.85 -127.25 -159.0 -125.15 -161.15 -123.7 -163.65 -123.05 -164.75 -123.15 -166.0 -123.55 -170.2 -122.75 -174.2 -122.6 -174.85 -123.15 -175.4 L-123.45 -175.65 Q-124.95 -176.4 -126.7 -176.75 -127.95 -177.0 -128.8 -178.0 L-129.5 -178.8 -129.75 -179.15 -129.75 -180.25 -129.75 -182.5 -129.8 -184.4 Q-129.85 -185.55 -129.5 -186.7 -128.95 -188.3 -130.0 -189.55 L-131.25 -191.15 -131.25 -191.5 -131.3 -192.25 -131.1 -193.75 -130.8 -194.5 -130.45 -195.2 -129.95 -196.05 -129.5 -196.75 -129.25 -197.0 Q-123.3 -197.6 -117.75 -200.15 L-106.7 -204.9 Q-104.05 -206.0 -101.5 -207.25 L-100.8 -207.1 -100.5 -207.25 Q-97.65 -206.7 -95.45 -204.25 -92.75 -201.25 -89.55 -198.75 L-83.3 -193.45 -80.25 -190.5 -79.9 -190.15 Q-75.3 -189.05 -71.0 -189.0 -60.05 -189.15 -50.8 -196.05 -46.4 -199.35 -45.8 -205.0 L-45.55 -207.25 Q-45.25 -210.35 -47.65 -211.9 L-48.1 -214.05 -48.8 -216.35 Q-49.5 -218.05 -49.65 -219.75 L-49.65 -223.5 Q-49.55 -225.1 -48.95 -226.55 L-47.9 -228.4 Q-45.95 -228.65 -44.45 -229.65 L-41.75 -231.95 -39.25 -234.35 Q-37.5 -235.95 -35.5 -236.75 L-33.75 -236.9 Q-32.1 -237.1 -30.8 -236.05 -29.3 -234.85 -27.55 -233.8 -25.95 -232.85 -24.7 -231.45 -23.5 -230.1 -23.75 -228.25 L-23.6 -227.95 Q-22.5 -227.05 -21.25 -226.55 -20.3 -226.15 -19.65 -225.35 L-19.05 -224.25 -18.5 -223.15 Q-18.15 -222.65 -18.25 -222.0 L-17.3 -222.0 Q-4.95 -222.35 2.2 -214.2 4.3 -211.8 7.55 -210.8 L9.75 -210.35 Q12.85 -210.6 14.95 -213.55 L16.2 -215.9 Q17.7 -219.65 17.2 -223.75 L17.4 -224.05 19.75 -226.0 20.55 -227.15 Q20.85 -227.8 21.45 -228.25 22.3 -228.9 22.75 -229.75 L23.2 -230.5 27.2 -231.6 Q30.35 -232.75 33.5 -232.65 L34.5 -232.65 Q35.45 -232.65 36.25 -232.05 L37.05 -233.0 37.2 -233.4 37.2 -233.75 37.2 -234.5 38.3 -235.35 Q39.15 -235.75 39.85 -236.3 M11.45 -3.45 L10.75 -3.0 11.7 -2.8 Q12.55 -2.55 12.85 -1.8 L12.95 -1.25 Q12.85 -0.35 12.15 0.5 L11.75 1.1 11.5 1.8 10.95 2.8 10.25 3.65 9.2 4.75 8.5 5.2 8.25 5.35 8.2 5.35 9.55 6.7 9.9 7.15 Q10.4 8.8 9.45 10.2 8.65 11.6 8.75 13.35 9.05 17.0 10.3 20.35 11.75 23.8 12.55 27.4 L13.15 27.5 15.45 26.9 19.45 25.1 Q22.3 23.7 24.45 21.45 L26.0 19.75 26.25 19.5 Q28.1 17.95 29.55 15.9 L31.25 13.45 Q31.95 13.2 32.75 13.1 L35.35 12.8 37.35 12.75 38.85 12.75 Q40.55 12.85 42.1 13.55 L44.3 14.5 Q46.25 16.3 47.7 18.4 49.2 20.5 49.9 22.85 50.65 25.45 50.05 28.0 49.45 30.6 46.95 31.55 51.1 37.15 57.65 37.35 L61.55 36.8 66.5 36.3 Q72.3 36.1 77.0 39.9 L94.6 54.25 Q95.05 56.85 93.05 58.85 90.55 61.45 87.1 63.15 L83.05 64.4 79.8 65.15 Q76.0 66.3 72.05 66.5 68.8 66.75 66.4 68.8 67.2 74.95 69.6 80.7 71.35 84.6 68.45 88.35 66.8 90.55 64.8 92.25 61.8 94.65 58.95 97.15 56.95 98.8 54.55 100.05 L53.9 100.45 Q50.9 102.75 48.35 105.65 L48.3 106.05 48.5 108.75 48.35 109.45 47.9 110.45 46.65 111.5 44.9 112.15 Q44.65 112.2 44.4 112.55 47.8 114.85 50.65 119.0 51.85 120.55 52.2 122.5 52.35 123.75 53.4 124.55 62.3 121.45 71.8 119.95 L80.15 119.35 Q86.4 119.25 92.65 120.8 L93.95 121.15 92.5 118.15 Q91.0 115.35 90.9 112.25 90.85 110.15 92.25 108.5 94.2 107.85 96.1 107.95 L99.2 108.3 103.75 109.0 Q113.65 101.35 126.45 101.4 L132.75 101.75 Q133.75 101.55 134.7 100.7 142.4 93.8 142.2 83.35 142.15 81.45 141.6 79.6 139.6 73.05 133.25 70.9 L132.85 70.6 Q132.1 60.55 139.05 53.25 144.65 47.3 144.0 39.8 143.8 38.05 144.45 36.1 145.75 32.3 145.25 28.3 144.6 23.3 144.8 18.1 145.05 10.45 142.95 3.45 L142.75 2.4 Q133.9 5.7 124.45 10.95 118.3 14.35 111.2 15.9 107.65 16.7 104.25 18.05 L102.3 18.3 100.25 18.0 99.9 17.6 99.75 17.25 99.65 17.05 93.5 17.55 Q84.55 17.65 77.45 12.65 70.8 7.95 71.65 -1.0 72.15 -6.25 70.9 -11.4 L70.85 -11.7 Q68.05 -7.7 62.85 -6.5 59.4 -5.65 58.5 -1.7 57.4 3.1 53.8 6.55 L52.1 8.0 49.95 8.05 41.25 8.0 38.5 7.95 37.35 7.6 Q37.25 5.3 35.5 3.6 33.35 1.5 32.1 -1.2 31.0 -3.5 30.4 -5.95 L29.5 -8.5 27.3 -8.75 Q24.1 -8.65 21.15 -6.85 17.05 -4.35 12.2 -4.45 L11.75 -4.45 11.75 -4.15 11.7 -3.75 11.45 -3.45" fill="#ffffff" fill-rule="evenodd" stroke="none"/>
  </g>
</svg>
