<?xml version="1.0" encoding="UTF-8" standalone="no"?>
<svg xmlns:xlink="http://www.w3.org/1999/xlink" height="20.5px" width="82.25px" xmlns="http://www.w3.org/2000/svg">
  <g transform="matrix(1.0, 0.0, 0.0, 1.0, 13.0, -32.0)">
    <path d="M23.7 35.5 Q42.05 33.75 54.7 39.75 63.7 44.0 66.75 50.0 51.9 44.25 33.95 42.15 15.9 40.0 2.9 42.5 6.0 39.1 11.45 37.25 17.0 35.3 23.7 35.5" fill="url(#gradient0)" fill-rule="evenodd" stroke="none"/>
    <path d="M23.7 35.5 Q17.0 35.3 11.45 37.25 6.0 39.1 2.9 42.5 -1.55 42.05 -4.2 43.55 -5.45 44.25 -10.5 48.85 -7.45 43.0 4.7 37.9 17.3 32.65 23.7 35.5" fill="url(#gradient1)" fill-rule="evenodd" stroke="none"/>
    <path d="M2.9 42.5 Q15.9 40.0 33.95 42.15 51.9 44.25 66.75 50.0 63.7 44.0 54.7 39.75 42.05 33.75 23.7 35.5 M2.9 42.5 Q-1.55 42.05 -4.2 43.55 -5.45 44.25 -10.5 48.85 -7.45 43.0 4.7 37.9 17.3 32.65 23.7 35.5" fill="none" stroke="#5b1e12" stroke-linecap="round" stroke-linejoin="round" stroke-width="5.0"/>
  </g>
  <defs>
    <linearGradient gradientTransform="matrix(0.0169, -0.0061, 0.0161, 0.0069, 28.1, 52.1)" gradientUnits="userSpaceOnUse" id="gradient0" spreadMethod="pad" x1="-819.2" x2="819.2">
      <stop offset="0.0" stop-color="#a60700"/>
      <stop offset="0.3333333333333333" stop-color="#de5602"/>
      <stop offset="1.0" stop-color="#de9900"/>
    </linearGradient>
    <linearGradient gradientTransform="matrix(0.0053, -0.0058, 0.0171, 0.0025, 5.05, 48.2)" gradientUnits="userSpaceOnUse" id="gradient1" spreadMethod="pad" x1="-819.2" x2="819.2">
      <stop offset="0.0" stop-color="#a60700"/>
      <stop offset="0.3333333333333333" stop-color="#de5602"/>
      <stop offset="1.0" stop-color="#de9900"/>
    </linearGradient>
  </defs>
</svg>
