<?xml version="1.0" encoding="UTF-8" standalone="no"?>
<svg xmlns:xlink="http://www.w3.org/1999/xlink" height="51.95px" width="85.55px" xmlns="http://www.w3.org/2000/svg">
  <g transform="matrix(1.0, 0.0, 0.0, 1.0, 60.2, -14.45)">
    <path d="M1.15 17.65 Q-12.15 32.3 -8.65 41.7 -4.5 52.5 22.85 63.9 L-29.6 63.9 -29.65 63.8 Q-54.5 53.95 -57.35 43.05 -59.7 33.75 -46.4 16.95 -43.25 22.75 -41.6 24.6 -39.1 27.45 -34.15 29.7 -30.45 25.55 -20.2 22.3 -11.25 19.4 1.15 17.65" fill="#069bfc" fill-rule="evenodd" stroke="none"/>
    <path d="M1.15 17.65 Q-11.25 19.4 -20.2 22.3 -30.45 25.55 -34.15 29.7 -39.1 27.45 -41.6 24.6 -43.25 22.75 -46.4 16.95 -59.7 33.75 -57.35 43.05 -54.5 53.95 -29.65 63.8 L-29.6 63.9 22.85 63.9 Q-4.5 52.5 -8.65 41.7 -12.15 32.3 1.15 17.65 Z" fill="none" stroke="#015994" stroke-linecap="round" stroke-linejoin="round" stroke-width="5.0"/>
    <path d="M1.15 17.65 Q-12.15 32.3 -8.65 41.7 -4.5 52.5 22.85 63.9 L-29.6 63.9 -29.65 63.8 Q-54.5 53.95 -57.35 43.05 -59.7 33.75 -46.4 16.95 -43.25 22.75 -41.6 24.6 -39.1 27.45 -34.15 29.7 -30.45 25.55 -20.2 22.3 -11.25 19.4 1.15 17.65" fill="#069bfc" fill-rule="evenodd" stroke="none"/>
    <path d="M-19.7 22.3 Q-16.15 21.15 -12.0 20.2 -22.7 34.7 -20.55 43.05 -17.75 53.95 7.1 63.8 L7.15 63.9 -17.5 63.9 Q-44.85 52.5 -48.95 41.7 -51.9 33.75 -42.9 22.1 L-41.1 24.6 Q-38.6 27.45 -33.65 29.7 -29.95 25.55 -19.7 22.3" fill="#5ebdfd" fill-rule="evenodd" stroke="none"/>
  </g>
</svg>
