<?xml version="1.0" encoding="UTF-8" standalone="no"?>
<svg xmlns:xlink="http://www.w3.org/1999/xlink" height="43.4px" width="43.4px" xmlns="http://www.w3.org/2000/svg">
  <g transform="matrix(1.0, 0.0, 0.0, 1.0, 18.9, 22.0)">
    <path d="M23.0 -0.3 Q23.0 8.1 17.05 14.0 11.15 19.9 2.8 19.9 -5.6 19.9 -11.5 14.0 -17.4 8.1 -17.4 -0.3 -17.4 -8.65 -11.5 -14.55 -5.6 -20.5 2.8 -20.5 11.15 -20.5 17.05 -14.55 23.0 -8.65 23.0 -0.3 Z" fill="none" stroke="#462b0c" stroke-linecap="round" stroke-linejoin="round" stroke-width="3.0"/>
    <path d="M22.9 -0.3 Q22.9 8.1 17.0 14.0 11.1 19.9 2.75 19.9 -5.6 19.9 -11.55 14.0 -17.45 8.1 -17.45 -0.3 -17.45 -8.6 -11.55 -14.55 -5.6 -20.5 2.75 -20.5 11.1 -20.5 17.0 -14.55 22.9 -8.6 22.9 -0.3" fill="#80541e" fill-rule="evenodd" stroke="none"/>
    <path d="M18.95 -0.4 Q18.95 6.35 14.2 11.1 9.45 15.85 2.75 15.85 -4.0 15.85 -8.75 11.1 -13.5 6.35 -13.5 -0.4 -13.5 -7.1 -8.75 -11.85 -4.0 -16.65 2.75 -16.65 9.45 -16.65 14.2 -11.85 18.95 -7.1 18.95 -0.4 Z" fill="none" stroke="#462b0c" stroke-linecap="round" stroke-linejoin="round" stroke-width="3.0"/>
    <path d="M18.95 -0.4 Q18.95 6.35 14.2 11.1 9.45 15.85 2.75 15.85 -4.0 15.85 -8.75 11.1 -13.5 6.35 -13.5 -0.4 -13.5 -7.1 -8.75 -11.85 -4.0 -16.65 2.75 -16.65 9.45 -16.65 14.2 -11.85 18.95 -7.1 18.95 -0.4" fill="#5f3c12" fill-rule="evenodd" stroke="none"/>
  </g>
</svg>
