<?xml version="1.0" encoding="UTF-8" standalone="no"?>
<svg xmlns:xlink="http://www.w3.org/1999/xlink" height="19.9px" width="18.55px" xmlns="http://www.w3.org/2000/svg">
  <g transform="matrix(1.0, 0.0, 0.0, 1.0, 2.55, 21.25)">
    <path d="M10.15 -18.4 L10.65 -16.85 11.25 -16.35 12.9 -16.35 13.8 -14.55 13.55 -14.4 14.7 -13.65 14.55 -11.85 13.5 -11.15 13.75 -11.0 13.6 -9.2 11.95 -8.1 12.05 -7.3 10.9 -6.15 9.9 -6.35 10.05 -6.15 10.25 -4.75 9.1 -3.6 7.45 -3.95 7.45 -3.8 6.3 -2.65 3.85 -3.2 3.6 -4.6 2.7 -4.55 2.35 -5.25 0.95 -5.75 0.45 -7.75 -0.3 -8.2 -0.4 -8.9 0.15 -9.65 -1.25 -11.5 -0.45 -12.35 -0.1 -13.25 0.15 -15.3 1.15 -15.3 0.8 -16.0 2.15 -18.25 3.95 -17.7 5.65 -18.8 6.75 -17.7 6.5 -19.85 7.55 -19.95 9.55 -18.4 9.65 -18.2 10.15 -18.4" fill="#ffffff" fill-rule="evenodd" stroke="none"/>
    <path d="M10.15 -18.4 L9.65 -18.2 9.55 -18.4 7.55 -19.95 6.5 -19.85 6.75 -17.7 5.65 -18.8 3.95 -17.7 2.15 -18.25 0.8 -16.0 1.15 -15.3 0.15 -15.3 -0.1 -13.25 -0.45 -12.35 -1.25 -11.5 0.15 -9.65 -0.4 -8.9 -0.3 -8.2 0.45 -7.75 0.95 -5.75 2.35 -5.25 2.7 -4.55 3.6 -4.6 3.85 -3.2 6.3 -2.65 7.45 -3.8 7.45 -3.95 9.1 -3.6 10.25 -4.75 10.05 -6.15 9.9 -6.35 10.9 -6.15 12.05 -7.3 11.95 -8.1 13.6 -9.2 13.75 -11.0 13.5 -11.15 14.55 -11.85 14.7 -13.65 13.55 -14.4 13.8 -14.55 12.9 -16.35 11.25 -16.35 10.65 -16.85 10.15 -18.4 Z" fill="none" stroke="#252525" stroke-linecap="square" stroke-linejoin="round" stroke-width="2.0"/>
    <path d="M5.65 -18.8 L3.95 -17.7 2.15 -18.25 0.8 -16.0 1.9 -13.85 3.2 -13.25 7.3 -14.4 7.7 -16.75 5.65 -18.8" fill="#858585" fill-rule="evenodd" stroke="none"/>
    <path d="M7.55 -19.95 L6.5 -19.85 6.95 -15.55 8.9 -15.65 10.3 -16.15 9.55 -18.4 7.55 -19.95" fill="#858585" fill-rule="evenodd" stroke="none"/>
    <path d="M8.65 -17.85 L8.6 -15.1 11.25 -13.25 13.8 -14.55 12.9 -16.35 11.25 -16.35 10.65 -16.85 10.15 -18.4 8.65 -17.85" fill="#858585" fill-rule="evenodd" stroke="none"/>
    <path d="M10.0 -11.8 L9.2 -10.4 11.85 -8.05 13.6 -9.2 13.75 -11.0 11.85 -12.3 10.0 -11.8" fill="#858585" fill-rule="evenodd" stroke="none"/>
    <path d="M7.05 -9.2 L5.0 -6.55 5.5 -5.5 6.4 -5.55 6.65 -4.15 9.1 -3.6 10.25 -4.75 10.05 -6.15 7.05 -9.2" fill="#858585" fill-rule="evenodd" stroke="none"/>
    <path d="M8.85 -11.75 L6.8 -9.1 7.3 -8.05 8.2 -8.1 8.45 -6.7 10.9 -6.15 12.05 -7.3 11.85 -8.7 8.85 -11.75" fill="#858585" fill-rule="evenodd" stroke="none"/>
    <path d="M10.95 -14.45 L10.15 -13.05 12.8 -10.7 14.55 -11.85 14.7 -13.65 12.8 -14.95 10.95 -14.45" fill="#858585" fill-rule="evenodd" stroke="none"/>
    <path d="M-0.45 -12.35 L-1.25 -11.5 0.3 -9.45 1.6 -10.2 2.9 -12.85 1.5 -15.3 0.15 -15.3 -0.1 -13.25 -0.45 -12.35" fill="#858585" fill-rule="evenodd" stroke="none"/>
    <path d="M0.95 -10.7 L-0.4 -8.9 -0.3 -8.2 0.45 -7.75 0.95 -5.75 2.9 -5.1 4.25 -7.5 2.65 -10.35 0.95 -10.7" fill="#858585" fill-rule="evenodd" stroke="none"/>
    <path d="M4.25 -8.25 L2.2 -5.6 2.7 -4.55 3.6 -4.6 3.85 -3.2 6.3 -2.65 7.45 -3.8 7.25 -5.2 4.25 -8.25" fill="#858585" fill-rule="evenodd" stroke="none"/>
    <path d="M1.1 -9.35 L0.75 -8.1 2.2 -6.75 5.05 -4.85 7.35 -4.8 13.1 -12.2 12.65 -14.05 11.0 -15.45 10.1 -16.85 8.0 -17.4 7.1 -16.35 5.2 -17.5 3.9 -16.7 3.6 -15.85 1.75 -15.65 0.6 -13.75 0.4 -10.3 1.1 -9.35" fill="#565656" fill-rule="evenodd" stroke="none"/>
    <path d="M2.0 -9.4 L1.75 -8.5 2.55 -7.45 4.6 -5.85 6.5 -5.7 11.75 -12.65 11.25 -14.2 9.65 -15.05 8.9 -15.95 7.2 -16.0 6.45 -15.15 5.15 -15.55 4.2 -14.8 4.0 -14.2 2.75 -13.85 1.95 -12.5 1.65 -10.05 2.0 -9.4" fill="#000000" fill-rule="evenodd" stroke="none"/>
  </g>
</svg>
