<?xml version="1.0" encoding="UTF-8" standalone="no"?>
<svg xmlns:xlink="http://www.w3.org/1999/xlink" height="22.15px" width="17.2px" xmlns="http://www.w3.org/2000/svg">
  <g transform="matrix(1.0, 0.0, 0.0, 1.0, 16.75, 7.7)">
    <path d="M-15.05 -3.45 Q-14.0 -6.1 -10.55 -6.4 -8.7 -6.55 -7.55 -5.65 L-7.55 -5.7 -7.0 -5.15 -6.6 -4.6 Q-6.1 -3.75 -5.55 -1.15 -5.3 -0.2 -5.5 1.1 L-5.9 4.1 Q-6.0 7.2 -3.35 10.0 L-0.85 12.35 -1.75 12.95 -2.65 13.1 -6.25 12.7 Q-11.5 11.15 -13.8 5.65 -16.25 -0.25 -15.05 -3.45" fill="#003f36" fill-rule="evenodd" stroke="none"/>
    <path d="M-15.05 -3.45 Q-16.25 -0.25 -13.8 5.65 -11.5 11.15 -6.25 12.7 L-2.65 13.1 -1.75 12.95 -0.85 12.35 -3.35 10.0 Q-6.0 7.2 -5.9 4.1 L-5.5 1.1 Q-5.3 -0.2 -5.55 -1.15 -6.1 -3.75 -6.6 -4.6 L-7.0 -5.15 -7.55 -5.7 -7.55 -5.65 Q-8.7 -6.55 -10.55 -6.4 -14.0 -6.1 -15.05 -3.45 Z" fill="none" stroke="#003f36" stroke-linecap="square" stroke-linejoin="round" stroke-width="2.0"/>
  </g>
</svg>
