<?xml version="1.0" encoding="UTF-8" standalone="no"?>
<svg xmlns:xlink="http://www.w3.org/1999/xlink" height="23.75px" width="21.2px" xmlns="http://www.w3.org/2000/svg">
  <g transform="matrix(1.0, 0.0, 0.0, 1.0, -1.05, 16.2)">
    <path d="M5.9 -5.6 Q3.65 -7.2 3.1 -7.95 L2.45 -9.25 2.5 -9.2 Q2.35 -9.7 2.35 -10.15 2.35 -11.15 2.85 -12.15 4.25 -14.95 7.0 -14.9 10.3 -14.85 15.4 -10.45 20.15 -6.45 20.8 -1.1 L20.95 0.4 Q20.95 2.85 20.2 4.65 L19.65 5.6 19.75 5.65 Q19.25 6.3 18.7 6.25 L17.7 3.9 17.35 3.15 16.8 2.15 16.75 2.0 Q14.45 -2.2 11.15 -3.5 L7.95 -4.55 Q6.65 -4.95 5.9 -5.6" fill="#32ad80" fill-rule="evenodd" stroke="none"/>
    <path d="M5.9 -5.6 Q3.65 -7.2 3.1 -7.95 L2.45 -9.25 2.5 -9.2 Q2.35 -9.7 2.35 -10.15 2.35 -11.15 2.85 -12.15 4.25 -14.95 7.0 -14.9 10.3 -14.85 15.4 -10.45 20.15 -6.45 20.8 -1.1 L20.95 0.4 Q20.95 2.85 20.2 4.65 L19.65 5.6 19.75 5.65 Q19.25 6.3 18.7 6.25 L17.7 3.9 17.35 3.15 16.8 2.15 16.75 2.0 Q14.45 -2.2 11.15 -3.5 L7.95 -4.55 Q6.65 -4.95 5.9 -5.6 Z" fill="none" stroke="#003f36" stroke-linecap="square" stroke-linejoin="round" stroke-width="2.0"/>
  </g>
</svg>
