<?xml version="1.0" encoding="UTF-8" standalone="no"?>
<svg xmlns:xlink="http://www.w3.org/1999/xlink" height="26.25px" width="18.6px" xmlns="http://www.w3.org/2000/svg">
  <g transform="matrix(1.0, 0.0, 0.0, 1.0, 16.75, 7.75)">
    <path d="M-11.2 -6.4 L-10.75 -6.45 Q-9.35 -6.45 -8.3 -5.65 L-7.75 -5.2 -7.25 -4.55 Q-6.75 -3.6 -6.05 -0.75 -5.75 0.3 -5.85 1.75 L-6.15 5.05 Q-6.2 8.65 -2.9 12.8 L0.55 16.75 Q0.25 17.1 -0.65 17.2 L-1.85 17.0 -2.8 16.75 Q-4.5 16.2 -6.2 15.2 -11.8 11.8 -14.0 5.45 -15.45 1.2 -15.45 -1.35 -15.45 -2.65 -15.1 -3.65 -14.3 -6.1 -11.2 -6.4" fill="#003f36" fill-rule="evenodd" stroke="none"/>
    <path d="M-11.2 -6.4 Q-14.3 -6.1 -15.1 -3.65 -15.45 -2.65 -15.45 -1.35 -15.45 1.2 -14.0 5.45 -11.8 11.8 -6.2 15.2 -4.5 16.2 -2.8 16.75 L-1.85 17.0 -0.65 17.2 Q0.25 17.1 0.55 16.75 L-2.9 12.8 Q-6.2 8.65 -6.15 5.05 L-5.85 1.75 Q-5.75 0.3 -6.05 -0.75 -6.75 -3.6 -7.25 -4.55 L-7.75 -5.2 -8.3 -5.65 Q-9.35 -6.45 -10.75 -6.45 L-11.2 -6.4 Z" fill="none" stroke="#003f36" stroke-linecap="square" stroke-linejoin="round" stroke-width="2.0"/>
  </g>
</svg>
