<?xml version="1.0" encoding="UTF-8" standalone="no"?>
<svg xmlns:xlink="http://www.w3.org/1999/xlink" height="32.1px" width="37.05px" xmlns="http://www.w3.org/2000/svg">
  <g transform="matrix(1.0, 0.0, 0.0, 1.0, 15.45, 14.9)">
    <path d="M-0.65 17.2 L-1.85 17.0 -2.8 16.75 Q-4.5 16.2 -6.2 15.2 -11.8 11.8 -14.0 5.45 -15.45 1.2 -15.45 -1.35 -15.45 -2.65 -15.1 -3.65 -14.3 -6.1 -11.2 -6.4 L-10.75 -6.45 Q-9.35 -6.45 -8.3 -5.65 L-8.0 -4.5 Q-7.65 -3.1 -7.85 -1.2 L-8.25 3.05 Q-8.4 7.7 -4.15 12.95 L-0.65 17.2 M-10.0 9.4 L-9.65 9.95 -8.7 10.65 -7.65 11.05 -7.05 10.95 -7.45 10.35 Q-7.85 9.85 -8.4 9.55 L-9.45 9.25 Q-9.95 9.15 -10.0 9.4 M-10.85 -1.9 L-11.1 -1.35 -11.05 -0.2 -10.55 0.95 -10.0 1.4 Q-9.85 1.3 -9.8 0.8 -9.7 0.25 -9.9 -0.45 -10.05 -1.15 -10.35 -1.55 -10.75 -2.0 -10.85 -1.9" fill="#32ad80" fill-rule="evenodd" stroke="none"/>
    <path d="M-0.65 17.2 L-4.15 12.95 Q-8.4 7.7 -8.25 3.05 L-7.85 -1.2 Q-7.65 -3.1 -8.0 -4.5 L-8.3 -5.65 -7.75 -5.2 -7.25 -4.55 Q-6.75 -3.6 -6.05 -0.75 -5.75 0.3 -5.85 1.75 L-6.15 5.05 Q-6.2 8.65 -2.9 12.8 L0.55 16.75 Q0.25 17.1 -0.65 17.2" fill="#006b5c" fill-rule="evenodd" stroke="none"/>
    <path d="M-10.85 -1.9 Q-10.75 -2.0 -10.35 -1.55 -10.05 -1.15 -9.9 -0.45 -9.7 0.25 -9.8 0.8 -9.85 1.3 -10.0 1.4 L-10.55 0.95 -11.05 -0.2 -11.1 -1.35 -10.85 -1.9 M-10.0 9.4 Q-9.95 9.15 -9.45 9.25 L-8.4 9.55 Q-7.85 9.85 -7.45 10.35 L-7.05 10.95 -7.65 11.05 -8.7 10.65 -9.65 9.95 -10.0 9.4" fill="#d2a211" fill-rule="evenodd" stroke="none"/>
    <path d="M1.75 13.75 L1.6 12.5 Q1.5 11.0 2.05 9.4 L3.15 5.55 Q3.95 1.1 0.5 -4.7 L-2.95 -10.25 -3.4 -10.35 -2.9 -10.3 -2.1 -10.1 -1.3 -9.75 Q0.85 -8.75 3.15 -6.7 8.35 -2.05 9.55 4.5 10.05 7.15 10.05 9.25 10.05 11.7 9.2 13.25 8.05 15.1 5.5 15.2 L4.75 15.15 Q2.75 14.9 1.75 13.75 M4.2 10.5 Q4.35 10.6 4.75 10.2 L5.6 9.15 6.05 7.9 5.95 7.2 Q5.8 7.05 5.4 7.4 L4.6 8.5 Q4.2 9.1 4.1 9.8 4.0 10.35 4.2 10.5" fill="#32ad80" fill-rule="evenodd" stroke="none"/>
    <path d="M1.75 13.75 L1.75 13.85 Q1.2 13.3 0.95 12.55 0.45 11.55 0.2 8.65 0.05 7.45 0.5 6.15 L1.4 3.05 Q1.9 -0.55 -0.85 -5.2 L-3.95 -10.15 -3.65 -10.3 -3.4 -10.35 -2.95 -10.25 0.5 -4.7 Q3.95 1.1 3.15 5.55 L2.05 9.4 Q1.5 11.0 1.6 12.5 L1.75 13.75" fill="#006b5c" fill-rule="evenodd" stroke="none"/>
    <path d="M4.2 10.5 Q4.0 10.35 4.1 9.8 4.2 9.1 4.6 8.5 L5.4 7.4 Q5.8 7.05 5.95 7.2 L6.05 7.9 5.6 9.15 4.75 10.2 Q4.35 10.6 4.2 10.5" fill="#d2a211" fill-rule="evenodd" stroke="none"/>
    <path d="M7.05 -12.2 L7.1 -10.85 Q7.25 -10.15 7.55 -9.65 7.8 -9.1 8.1 -9.15 L8.4 -9.7 8.35 -11.05 7.9 -12.3 7.45 -12.75 Q7.15 -12.75 7.05 -12.2 M2.5 -9.45 L2.35 -10.35 Q2.3 -11.35 2.85 -12.25 4.2 -14.95 6.9 -14.9 10.15 -14.85 15.45 -10.55 20.45 -6.5 21.4 -0.95 L21.6 0.6 Q21.75 3.25 20.95 5.1 L20.5 6.1 18.05 1.45 Q14.85 -4.35 10.25 -6.2 L6.15 -7.5 Q4.45 -8.0 3.35 -8.85 L2.5 -9.45 M15.6 -3.2 Q15.55 -3.0 16.15 -2.5 L17.6 -1.6 19.05 -1.1 19.85 -1.2 19.3 -1.85 17.9 -2.8 16.4 -3.25 15.6 -3.2" fill="#32ad80" fill-rule="evenodd" stroke="none"/>
    <path d="M20.5 6.1 L20.55 6.15 Q20.0 6.9 19.45 6.85 L18.3 4.3 17.85 3.4 17.3 2.35 17.2 2.25 Q14.65 -2.2 11.2 -3.65 L8.0 -4.7 Q6.65 -5.2 5.9 -5.85 3.6 -7.4 3.1 -8.15 2.6 -8.8 2.45 -9.5 L2.5 -9.45 3.35 -8.85 Q4.45 -8.0 6.15 -7.5 L10.25 -6.2 Q14.85 -4.35 18.05 1.45 L20.5 6.1" fill="#006b5c" fill-rule="evenodd" stroke="none"/>
    <path d="M7.05 -12.2 Q7.15 -12.75 7.45 -12.75 L7.9 -12.3 8.35 -11.05 8.4 -9.7 8.1 -9.15 Q7.8 -9.1 7.55 -9.65 7.25 -10.15 7.1 -10.85 L7.05 -12.2 M15.6 -3.2 L16.4 -3.25 17.9 -2.8 19.3 -1.85 19.85 -1.2 19.05 -1.1 17.6 -1.6 16.15 -2.5 Q15.55 -3.0 15.6 -3.2" fill="#d2a211" fill-rule="evenodd" stroke="none"/>
  </g>
</svg>
