<?xml version="1.0" encoding="UTF-8" standalone="no"?>
<svg xmlns:xlink="http://www.w3.org/1999/xlink" height="77.9px" width="111.2px" xmlns="http://www.w3.org/2000/svg">
  <g transform="matrix(1.0, 0.0, 0.0, 1.0, 61.85, 37.95)">
    <path d="M29.7 -20.45 Q26.2 -18.5 22.6 -18.4 19.8 -18.15 16.05 -24.05 12.55 -29.85 10.35 -29.35 8.65 -28.95 7.35 -25.4 5.85 -21.65 0.45 -20.05 -6.4 -17.85 -8.5 -17.4 -7.65 -27.25 -6.05 -36.6 L8.15 -37.95 Q16.05 -37.75 22.75 -36.3 L23.5 -36.15 22.8 -36.3 Q25.55 -35.3 28.0 -34.1 L31.5 -32.15 Q27.9 -30.35 26.3 -28.25 23.85 -24.7 28.55 -21.2 L29.7 -20.45 M24.75 24.95 Q26.25 22.75 28.85 20.4 31.95 17.45 35.1 21.9 L35.8 22.85 Q35.4 24.6 36.7 26.75 L37.6 28.35 Q32.55 31.6 29.55 33.25 L30.15 33.7 Q28.9 32.75 26.95 32.55 28.8 29.65 26.7 26.8 L24.75 24.95 M4.7 34.2 L6.7 33.6 Q11.7 32.85 11.95 35.3 12.05 36.85 10.55 39.2 L7.15 39.6 5.5 36.45 Q4.65 35.1 4.7 34.2 M-56.35 -26.55 L-52.6 -27.9 -53.95 -25.95 Q-57.65 -20.05 -60.4 -20.3 L-60.95 -20.3 -60.7 -21.95 -60.35 -23.55 -60.3 -23.85 -60.3 -23.95 -60.3 -24.05 -60.3 -24.3 -60.3 -24.4 -60.4 -25.0 -56.35 -26.55 M-45.15 -27.25 Q-45.85 -29.05 -46.55 -30.0 L-36.95 -33.1 Q-38.0 -27.6 -38.7 -21.7 L-39.1 -21.85 Q-41.6 -22.55 -43.1 -24.0 -44.35 -25.25 -45.15 -27.25" fill="#333333" fill-rule="evenodd" stroke="none"/>
    <path d="M31.5 -32.15 Q35.4 -29.9 41.35 -26.0 38.95 -25.85 38.75 -21.7 38.75 -17.7 36.7 -17.85 33.0 -18.4 29.7 -20.45 L28.55 -21.2 Q23.85 -24.7 26.3 -28.25 27.9 -30.35 31.5 -32.15 M9.1 21.45 L16.8 21.65 Q21.95 22.85 24.75 24.95 L26.7 26.8 Q28.8 29.65 26.95 32.55 26.1 33.9 24.5 35.2 20.35 38.55 16.8 35.75 12.05 31.85 7.9 32.25 4.8 32.45 4.7 34.2 4.65 35.1 5.5 36.45 L7.15 39.6 1.1 39.95 -5.4 39.7 Q-5.25 39.35 -5.4 39.0 L-5.8 36.85 Q-8.25 23.65 -8.8 7.7 -4.45 7.4 -2.3 9.2 0.35 11.35 -1.15 15.65 -2.65 19.8 -0.4 21.3 1.75 22.9 6.35 21.85 L7.85 21.9 9.1 21.45 M35.8 22.85 Q36.2 20.5 39.2 18.75 L41.4 17.6 Q44.9 15.6 44.7 14.75 44.6 13.65 43.5 13.1 42.25 12.35 39.6 12.3 32.75 12.35 29.05 10.4 23.9 7.4 27.7 0.2 30.9 -5.6 36.0 -8.75 38.4 -10.2 40.8 -5.1 43.65 0.2 46.9 -1.3 48.8 -2.2 49.3 -3.85 L49.35 0.0 Q49.35 11.25 47.7 21.5 L37.6 28.35 36.7 26.75 Q35.4 24.6 35.8 22.85 M46.2 -17.85 Q45.05 -18.95 44.9 -23.05 L44.7 -23.75 47.65 -21.75 48.45 -16.15 46.2 -17.85 M48.5 -15.7 L49.2 -7.15 Q47.05 -12.35 47.85 -14.3 L48.5 -15.7 M-50.85 19.35 L-48.45 20.0 -47.1 20.1 -46.5 20.1 -45.7 19.95 Q-44.9 20.25 -44.2 19.95 L-41.05 20.3 Q-39.95 20.25 -38.85 19.7 -38.05 26.6 -36.9 32.55 L-36.8 33.3 -39.7 32.4 -42.85 31.25 Q-43.6 30.5 -45.8 30.35 L-46.1 30.35 -56.35 26.65 -60.2 25.2 Q-59.95 24.65 -60.05 24.1 L-60.5 21.75 Q-58.15 20.5 -54.6 19.7 L-50.85 19.35" fill="#515151" fill-rule="evenodd" stroke="none"/>
    <path d="M6.35 21.85 Q4.35 21.05 2.95 16.4 -0.15 6.9 -6.35 0.85 -10.2 -2.75 -4.25 -11.15 1.25 -19.05 5.5 -19.45 9.6 -19.95 12.55 -17.2 15.95 -14.2 14.2 -10.55 12.95 -7.8 17.85 -3.15 23.35 2.6 23.95 6.05 24.6 9.65 20.6 9.65 16.95 9.4 18.85 12.95 21.0 17.45 15.1 15.55 L8.1 12.95 Q7.65 13.45 10.0 17.05 11.35 20.15 9.1 21.45 L7.85 21.9 6.35 21.85 M-50.85 19.35 Q-54.2 17.5 -58.25 11.75 -64.15 3.3 -60.35 -0.35 -54.2 -6.3 -51.0 -15.8 -50.0 -19.35 -48.5 -20.7 L-47.65 -21.3 Q-46.95 -21.6 -46.15 -21.3 L-45.9 -21.3 -44.9 -20.85 Q-42.65 -19.55 -44.0 -16.45 -46.35 -12.85 -45.9 -12.4 L-42.7 -13.75 -39.75 -15.0 -39.35 -15.1 -39.95 -0.5 -39.75 6.9 Q-40.6 7.8 -40.45 8.95 -40.4 9.75 -39.75 11.1 -38.05 14.75 -41.45 17.75 -43.35 19.45 -45.7 19.95 L-46.5 20.1 -47.1 20.1 -48.45 20.0 -50.85 19.35" fill="#3c3c3c" fill-rule="evenodd" stroke="none"/>
    <path d="M41.4 17.6 Q41.5 15.8 43.1 13.55 L43.5 13.1 Q44.6 13.65 44.7 14.75 44.9 15.6 41.4 17.6" fill="#191919" fill-rule="evenodd" stroke="none"/>
  </g>
</svg>
