<?xml version="1.0" encoding="UTF-8" standalone="no"?>
<svg xmlns:xlink="http://www.w3.org/1999/xlink" height="36.5px" width="54.85px" xmlns="http://www.w3.org/2000/svg">
  <g transform="matrix(1.0, 0.0, 0.0, 1.0, 112.15, -65.8)">
    <path d="M-71.65 68.85 Q-60.3 68.0 -60.3 77.35 L-60.3 90.75 Q-60.3 100.1 -71.65 99.25 L-101.5 97.15 Q-109.15 96.6 -109.15 89.3 L-109.15 78.85 Q-109.15 71.55 -101.5 71.0 L-71.65 68.85" fill="#cc0000" fill-rule="evenodd" stroke="none"/>
    <path d="M-71.65 68.85 L-101.5 71.0 Q-109.15 71.55 -109.15 78.85 L-109.15 89.3 Q-109.15 96.6 -101.5 97.15 L-71.65 99.25 Q-60.3 100.1 -60.3 90.75 L-60.3 77.35 Q-60.3 68.0 -71.65 68.85 Z" fill="none" stroke="#9f3f11" stroke-linecap="round" stroke-linejoin="round" stroke-width="6.0"/>
    <path d="M-71.65 68.85 Q-60.3 68.0 -60.3 77.35 L-60.3 90.75 Q-60.3 100.1 -71.65 99.25 L-101.5 97.15 Q-109.15 96.6 -109.15 89.3 L-109.15 78.85 Q-109.15 71.55 -101.5 71.0 L-71.65 68.85" fill="#95d709" fill-rule="evenodd" stroke="none"/>
    <path d="M-74.7 68.4 L-74.8 69.1 -71.65 68.85 Q-60.3 68.0 -60.3 77.35 L-60.3 90.75 Q-60.3 100.1 -71.65 99.25 L-74.6 99.05 -74.5 99.75 Q-77.95 84.6 -74.7 68.4" fill="#cd571e" fill-rule="evenodd" stroke="none"/>
    <path d="M-108.7 78.9 L-66.0 76.8 Q-62.85 76.65 -60.3 76.85 -60.55 67.95 -71.65 68.8 L-101.5 70.9 Q-109.15 71.45 -109.15 78.75 L-109.15 78.9 -108.7 78.9" fill="#78ad09" fill-rule="evenodd" stroke="none"/>
    <path d="M-74.65 69.0 Q-75.55 73.1 -75.95 77.3 L-66.0 76.8 Q-62.85 76.65 -60.3 76.85 -60.55 67.95 -71.65 68.8 L-74.65 69.0" fill="#b8450d" fill-rule="evenodd" stroke="none"/>
    <path d="M-101.5 71.0 L-100.85 70.95 Q-103.25 84.4 -100.55 97.9 L-100.75 97.2 -101.5 97.15 -102.45 97.05 Q-104.8 84.1 -102.6 71.1 L-101.5 71.0 M-96.1 70.65 L-94.3 70.5 Q-96.9 84.1 -94.2 97.65 L-95.95 97.55 Q-98.55 84.1 -96.1 70.65" fill="#cd571e" fill-rule="evenodd" stroke="none"/>
    <path d="M-96.1 70.65 L-94.3 70.5 Q-95.05 74.35 -95.35 78.25 L-97.1 78.35 Q-96.8 74.5 -96.1 70.65 M-101.5 71.0 L-100.85 70.95 Q-101.55 74.75 -101.8 78.6 L-103.5 78.65 Q-103.25 74.85 -102.6 71.1 L-101.5 71.0" fill="#e99f11" fill-rule="evenodd" stroke="none"/>
    <path d="M-70.25 83.75 L-69.8 85.55 -69.8 85.8 -69.9 85.85 -70.25 86.1 Q-70.9 85.85 -71.05 85.6 L-71.1 85.1 -70.95 84.4 -70.25 83.75 M-63.95 86.15 L-63.75 86.25 -63.65 86.6 -63.85 86.9 -64.25 87.05 -64.65 87.0 -64.7 86.7 Q-64.6 86.1 -63.95 86.15 M-61.2 82.35 Q-61.2 83.05 -62.1 83.65 -63.1 84.3 -64.65 84.3 -65.85 84.3 -65.7 83.1 -65.7 81.5 -63.45 81.3 -61.2 81.1 -61.2 82.35 M-72.9 82.35 L-73.5 83.8 Q-74.1 84.9 -75.35 84.9 -76.35 84.9 -76.8 84.15 L-77.1 83.15 -77.1 82.35 -77.3 81.9 -77.55 81.4 Q-77.55 80.7 -75.3 80.9 -74.6 81.05 -73.9 81.55 L-72.9 82.35 M-74.4 87.65 L-74.25 87.7 -74.25 87.9 -75.15 90.3 -75.65 92.7 -77.0 97.5 -77.15 97.5 Q-76.85 94.3 -76.4 92.55 L-75.7 89.6 Q-75.2 87.9 -74.4 87.65 M-73.65 89.4 L-73.45 89.35 -73.4 89.6 Q-73.4 90.35 -74.6 94.2 -75.75 98.0 -76.2 98.7 L-75.2 93.45 Q-74.5 90.35 -73.65 89.4 M-71.85 95.25 L-71.4 95.6 -71.45 95.8 -71.85 96.05 -72.2 95.6 -72.1 95.3 -71.85 95.25 M-72.75 94.95 L-72.8 95.85 -73.1 96.0 Q-73.55 95.55 -73.6 95.0 L-73.55 93.95 Q-72.95 93.85 -72.8 94.25 L-72.75 94.95 M-69.6 92.6 L-69.8 93.25 Q-70.1 93.75 -70.75 93.75 -71.7 93.75 -71.7 93.0 -71.7 92.3 -70.65 92.0 -69.6 91.7 -69.6 92.6 M-62.4 93.75 L-62.25 93.9 -62.55 94.2 -62.85 94.05 -62.85 93.75 -62.4 93.75 M-64.7 92.7 L-64.6 92.9 -64.5 93.2 -64.75 94.4 -65.15 95.7 -65.45 94.9 -65.15 93.6 -64.7 92.7 M-63.75 95.3 L-63.65 95.4 -63.95 95.7 -64.1 95.6 -64.1 95.25 -63.75 95.3 M-99.8 91.35 L-99.3 91.5 -103.5 94.4 -103.55 94.2 Q-103.55 93.65 -102.05 92.7 L-99.8 91.35 M-91.2 89.15 L-91.2 89.4 Q-91.9 90.6 -94.8 92.65 L-99.2 95.75 -99.3 95.45 Q-99.3 94.65 -96.0 92.15 -92.8 89.75 -91.2 89.15 M-93.6 86.6 L-93.65 86.7 Q-95.95 87.45 -98.7 89.3 L-98.75 89.1 Q-98.75 88.6 -96.7 87.5 -94.55 86.4 -93.6 86.6 M-93.95 90.15 L-96.35 91.95 Q-98.45 93.2 -98.85 93.6 L-99.15 93.45 Q-98.65 92.7 -96.8 91.6 -95.05 90.55 -93.95 90.15 M-100.65 94.4 L-100.65 94.7 -100.8 95.2 -101.1 95.55 Q-102.0 95.55 -101.75 94.95 -101.75 94.1 -100.65 94.4" fill="#95d709" fill-rule="evenodd" stroke="none"/>
  </g>
</svg>
