<?xml version="1.0" encoding="UTF-8" standalone="no"?>
<svg xmlns:xlink="http://www.w3.org/1999/xlink" height="57.3px" width="57.0px" xmlns="http://www.w3.org/2000/svg">
  <g transform="matrix(1.0, 0.0, 0.0, 1.0, 27.75, 30.35)">
    <path d="M-16.55 -19.05 Q-9.35 -26.35 0.75 -26.35 10.85 -26.35 18.05 -19.05 25.25 -11.9 25.25 -1.7 25.25 8.5 18.05 15.8 10.85 22.95 0.75 22.95 -9.35 22.95 -16.55 15.8 -23.75 8.5 -23.75 -1.7 -23.75 -11.9 -16.55 -19.05 Z" fill="none" stroke="#3c3c3c" stroke-linecap="round" stroke-linejoin="round" stroke-width="8.0"/>
    <path d="M-16.55 -19.15 Q-9.35 -26.35 0.8 -26.35 10.95 -26.35 18.15 -19.15 25.35 -11.95 25.35 -1.8 25.35 8.5 18.15 15.8 10.95 22.85 0.8 22.85 -9.35 22.85 -16.55 15.8 -23.7 8.5 -23.7 -1.8 -23.7 -11.95 -16.55 -19.15" fill="#9a9a9a" fill-rule="evenodd" stroke="none"/>
    <path d="M-23.75 -8.05 Q-23.75 -11.05 -23.15 -13.7 -21.75 -6.4 -16.15 -0.9 -8.5 6.2 2.0 6.2 12.6 6.2 20.25 -0.9 22.4 -2.95 23.9 -5.25 23.0 3.25 17.0 9.5 10.0 16.6 0.1 16.6 -9.75 16.6 -16.75 9.5 -23.75 2.2 -23.75 -8.05" fill="#6b6b6b" fill-rule="evenodd" stroke="none"/>
    <path d="M21.95 -1.6 Q21.95 4.1 22.9 9.2 21.15 12.75 18.15 15.8 L17.05 16.85 Q13.95 8.55 13.95 -1.6 13.95 -11.85 17.15 -20.1 L18.15 -19.15 Q21.2 -16.1 23.0 -12.5 21.95 -7.4 21.95 -1.6 M-2.1 -1.6 Q-2.1 -16.2 1.45 -27.75 L1.05 -26.35 Q5.1 -26.3 8.7 -25.1 5.9 -14.55 5.9 -1.6 5.9 11.15 8.6 21.7 4.95 22.85 0.9 22.85 -2.1 11.85 -2.1 -1.6" fill="#007b55" fill-rule="evenodd" stroke="none"/>
    <path d="M0.1 16.6 L-0.55 16.6 Q-1.5 11.5 -1.85 5.95 L2.0 6.2 6.75 5.85 6.15 5.95 Q6.5 10.9 7.3 15.55 3.9 16.6 0.1 16.6 M17.0 9.5 L15.3 11.1 Q14.45 7.4 14.15 3.4 17.4 1.75 20.25 -0.9 L21.95 -2.65 21.95 -1.6 22.05 2.0 Q20.3 6.05 17.0 9.5" fill="#005d40" fill-rule="evenodd" stroke="none"/>
  </g>
</svg>
