<?xml version="1.0" encoding="UTF-8" standalone="no"?>
<svg xmlns:xlink="http://www.w3.org/1999/xlink" height="158.65px" width="27.7px" xmlns="http://www.w3.org/2000/svg">
  <g transform="matrix(1.0, 0.0, 0.0, 1.0, 11.9, 99.3)">
    <path d="M10.35 -84.2 Q14.3 -70.75 14.3 -51.55 14.3 -32.35 10.35 -18.8 6.75 -5.3 1.35 -5.3 -1.4 -5.3 -5.9 -26.7 -10.4 -48.4 -10.4 -63.35 -10.4 -77.2 -5.9 -88.3 -1.95 -97.8 1.35 -97.8 6.75 -97.8 10.35 -84.2 Z" fill="none" stroke="#3c3c3c" stroke-linecap="round" stroke-linejoin="round" stroke-width="3.0"/>
    <path d="M1.35 -97.8 Q6.75 -97.8 10.35 -84.2 14.3 -70.75 14.3 -51.55 14.3 -32.35 10.35 -18.8 6.75 -5.3 1.35 -5.3 -1.4 -5.3 -5.9 -26.7 -10.4 -48.4 -10.4 -63.35 -10.4 -77.2 -5.9 -88.3 -1.95 -97.8 1.35 -97.8" fill="#9a9a9a" fill-rule="evenodd" stroke="none"/>
    <path d="M2.75 47.45 Q4.1 39.6 4.1 28.45 4.1 17.25 2.75 9.35 1.5 1.5 -0.35 1.5 -1.3 1.5 -2.85 13.95 -4.4 26.6 -4.4 35.3 -4.4 43.35 -2.85 49.8 -1.5 55.35 -0.35 55.35 1.5 55.35 2.75 47.45 Z" fill="none" stroke="#3c3c3c" stroke-linecap="round" stroke-linejoin="round" stroke-width="8.0"/>
    <path d="M-0.35 55.35 Q1.5 55.35 2.75 47.45 4.1 39.6 4.1 28.45 4.1 17.25 2.75 9.35 1.5 1.5 -0.35 1.5 -1.3 1.5 -2.85 13.95 -4.4 26.6 -4.4 35.3 -4.4 43.35 -2.85 49.8 -1.5 55.35 -0.35 55.35" fill="#9a9a9a" fill-rule="evenodd" stroke="none"/>
  </g>
</svg>
