<?xml version="1.0" encoding="UTF-8" standalone="no"?>
<svg xmlns:xlink="http://www.w3.org/1999/xlink" height="43.6px" width="72.2px" xmlns="http://www.w3.org/2000/svg">
  <g transform="matrix(1.0, 0.0, 0.0, 1.0, 35.15, 14.6)">
    <path d="M27.0 -11.05 L28.05 -11.0 5.25 -0.7 3.3 -0.35 1.25 -0.6 -5.25 -1.3 -10.65 -0.6 -12.4 -0.35 -14.0 -0.6 -20.7 -3.45 -21.1 -3.75 -20.8 -4.25 -19.95 -4.5 -19.0 -4.75 Q-16.6 -5.6 -16.1 -6.5 -15.8 -7.3 -17.45 -7.75 L-18.9 -8.1 -19.55 -8.3 -19.5 -8.6 -18.95 -8.9 0.0 -14.15 0.6 -14.1 -0.05 -13.95 -2.1 -13.1 Q-2.8 -12.65 -2.35 -12.0 -1.75 -10.85 3.25 -10.0 L15.95 -9.25 16.35 -9.15 16.5 -9.1 16.5 -9.15 17.45 -9.25 19.5 -9.35 24.5 -10.15 24.75 -10.2 24.8 -10.2 24.85 -10.25 25.2 -10.35 25.3 -10.35 26.5 -10.8 27.0 -11.05 M30.65 -10.6 L33.75 -10.2 -5.8 9.6 -34.65 -5.7 -2.55 -14.5 -1.25 -14.35 -31.25 -6.0 -5.15 6.3 30.65 -10.6 M16.45 -9.15 L16.5 -9.15 16.5 -9.1 16.45 -9.15 M0.6 -6.3 Q2.25 -6.9 1.95 -7.65 1.6 -8.4 -0.2 -8.75 L-4.3 -9.05 -8.0 -8.45 Q-9.75 -7.85 -9.8 -7.2 -9.95 -6.5 -8.2 -6.05 L-3.75 -5.6 Q-1.15 -5.7 0.6 -6.3 M-2.1 -13.1 Q-2.85 -12.65 -2.45 -11.95 -1.9 -10.85 3.1 -9.9 L15.9 -9.15 16.35 -9.15 15.9 -9.15 3.1 -9.9 Q-1.9 -10.85 -2.45 -11.95 -2.85 -12.65 -2.1 -13.1 M-1.55 -8.25 Q-0.6 -8.05 -0.4 -7.6 -0.4 -7.15 -1.15 -6.85 L-3.9 -6.35 -6.55 -6.55 Q-7.65 -6.85 -7.55 -7.35 -7.65 -7.65 -6.5 -8.05 L-4.15 -8.45 -1.55 -8.25" fill="#e2dfbe" fill-rule="evenodd" stroke="none"/>
    <path d="M28.05 -11.0 L30.65 -10.6 -5.15 6.3 -31.25 -6.0 -1.25 -14.35 0.0 -14.15 -18.95 -8.9 -19.5 -8.6 -19.55 -8.3 -18.9 -8.1 -17.45 -7.75 Q-15.8 -7.3 -16.1 -6.5 -16.6 -5.6 -19.0 -4.75 L-19.95 -4.5 -20.8 -4.25 -21.1 -3.75 -20.7 -3.45 -14.0 -0.6 -12.4 -0.35 -10.65 -0.6 -5.25 -1.3 1.25 -0.6 3.3 -0.35 5.25 -0.7 28.05 -11.0 M0.6 -6.3 Q-1.15 -5.7 -3.75 -5.6 L-8.2 -6.05 Q-9.95 -6.5 -9.8 -7.2 -9.75 -7.85 -8.0 -8.45 L-4.3 -9.05 -0.2 -8.75 Q1.6 -8.4 1.95 -7.65 2.25 -6.9 0.6 -6.3 M-1.55 -8.25 L-4.15 -8.45 -6.5 -8.05 Q-7.65 -7.65 -7.55 -7.35 -7.65 -6.85 -6.55 -6.55 L-3.9 -6.35 -1.15 -6.85 Q-0.4 -7.15 -0.4 -7.6 -0.6 -8.05 -1.55 -8.25" fill="#5e5955" fill-rule="evenodd" stroke="none"/>
    <path d="M0.6 -14.1 L2.4 -13.95 1.8 -13.85 1.35 -13.45 0.8 -13.0 0.4 -12.95 Q-0.15 -12.8 0.15 -12.3 0.25 -11.9 0.95 -11.9 L2.0 -11.8 2.6 -11.55 2.65 -11.5 2.35 -11.05 Q1.75 -10.35 3.65 -10.05 L4.1 -10.0 5.25 -9.8 6.25 -10.05 6.5 -10.05 8.35 -10.35 Q8.95 -10.6 8.75 -10.85 L10.25 -10.9 11.95 -11.05 12.6 -11.05 12.85 -11.05 13.75 -10.7 Q15.8 -10.05 16.5 -9.15 L16.45 -9.15 16.5 -9.1 16.35 -9.15 15.95 -9.25 3.25 -10.0 Q-1.75 -10.85 -2.35 -12.0 -2.8 -12.65 -2.1 -13.1 L-0.05 -13.95 0.6 -14.1 M16.45 -9.15 L16.35 -9.15 16.45 -9.15" fill="#b7b8b1" fill-rule="evenodd" stroke="none"/>
    <path d="M2.45 -13.95 L2.55 -13.95 5.85 -13.5 5.65 -13.5 4.6 -13.2 3.3 -12.8 4.75 -12.75 Q5.2 -12.65 5.0 -12.4 L5.05 -12.35 4.95 -12.0 5.3 -11.9 6.95 -11.75 7.75 -11.7 7.8 -11.7 8.1 -11.7 8.9 -11.55 9.5 -11.55 9.6 -11.5 9.95 -11.45 10.0 -11.3 9.15 -11.3 8.45 -11.3 8.35 -11.25 8.3 -11.25 8.2 -11.1 6.5 -11.2 6.5 -11.05 Q6.3 -10.6 4.8 -10.35 3.05 -10.35 3.4 -11.1 4.3 -11.5 3.5 -11.75 1.35 -11.9 1.1 -12.65 2.6 -13.2 2.8 -13.65 L2.45 -13.95" fill="#c7c2ac" fill-rule="evenodd" stroke="none"/>
    <path d="M5.85 -13.5 L8.5 -13.2 7.2 -12.85 Q4.95 -12.2 7.75 -11.7 L6.95 -11.75 5.3 -11.9 4.95 -12.0 5.05 -12.35 5.0 -12.4 Q5.2 -12.65 4.75 -12.75 L3.3 -12.8 4.6 -13.2 5.65 -13.5 5.85 -13.5 M12.6 -11.05 L11.95 -11.05 10.25 -10.9 8.75 -10.85 Q8.95 -10.6 8.35 -10.35 L6.5 -10.05 6.25 -10.05 7.15 -10.55 7.6 -10.6 7.85 -10.85 7.75 -10.85 8.2 -11.1 8.3 -11.25 8.35 -11.25 8.45 -11.3 9.15 -11.3 10.0 -11.3 9.95 -11.45 9.6 -11.5 Q11.75 -11.55 14.0 -12.3 L15.95 -12.0 16.3 -12.0 14.2 -11.45 12.9 -11.25 12.6 -11.05" fill="#7b7c6a" fill-rule="evenodd" stroke="none"/>
    <path d="M9.6 -12.65 L10.15 -12.8 10.6 -12.75 10.15 -12.8 9.6 -12.65 M11.05 -12.65 L10.85 -12.65 10.7 -12.75 10.65 -12.75 10.6 -12.75 10.5 -12.65 10.0 -12.4 10.15 -12.3 10.9 -12.3 11.8 -12.3 11.75 -12.45 11.3 -12.6 11.15 -12.6 11.05 -12.6 11.05 -12.65 M8.5 -13.2 L16.9 -12.2 16.3 -12.0 15.95 -12.0 14.0 -12.3 Q11.75 -11.55 9.6 -11.5 L9.5 -11.55 8.9 -11.55 8.1 -11.7 7.8 -11.7 7.75 -11.7 Q4.95 -12.2 7.2 -12.85 L8.5 -13.2 M7.75 -10.85 L7.85 -10.85 7.6 -10.6 7.15 -10.55 7.45 -10.7 7.75 -10.85" fill="#b7b896" fill-rule="evenodd" stroke="none"/>
    <path d="M10.6 -12.75 L10.65 -12.75 10.7 -12.75 10.85 -12.65 11.05 -12.65 11.05 -12.6 10.9 -12.55 10.85 -12.6 10.45 -12.55 10.5 -12.45 10.7 -12.4 10.8 -12.35 11.25 -12.35 11.6 -12.35 11.7 -12.45 11.3 -12.6 11.75 -12.45 11.8 -12.3 10.9 -12.3 10.15 -12.3 10.0 -12.4 10.5 -12.65 10.6 -12.75" fill="#000000" fill-rule="evenodd" stroke="none"/>
    <path d="M11.3 -12.6 L11.7 -12.45 11.6 -12.35 11.25 -12.35 10.8 -12.35 10.7 -12.4 10.5 -12.45 10.45 -12.55 10.85 -12.6 10.9 -12.55 11.05 -12.6 11.15 -12.6 11.3 -12.6" fill="#ffffff" fill-rule="evenodd" stroke="none"/>
    <path d="M22.55 -11.55 L27.0 -11.05 26.5 -10.8 25.3 -10.35 25.2 -10.35 14.0 -11.05 19.85 -11.55 20.05 -11.55 22.55 -11.55 M13.75 -10.7 L12.85 -11.05 24.5 -10.15 19.5 -9.35 13.75 -10.7" fill="#636558" fill-rule="evenodd" stroke="none"/>
    <path d="M16.9 -12.2 L17.6 -12.15 19.1 -11.95 20.85 -11.75 21.15 -11.8 22.55 -11.55 20.05 -11.55 19.85 -11.55 18.55 -11.8 18.2 -11.8 16.95 -11.8 17.6 -12.15 16.95 -11.8 14.2 -11.45 16.3 -12.0 16.9 -12.2 M19.1 -11.95 L18.55 -11.8 19.1 -11.95 M20.85 -11.75 L20.05 -11.55 20.85 -11.75" fill="#d2d2b0" fill-rule="evenodd" stroke="none"/>
    <path d="M16.5 -9.15 Q15.8 -10.05 13.75 -10.7 L19.5 -9.35 17.45 -9.25 16.5 -9.15 M12.85 -11.05 L12.6 -11.05 12.9 -11.25 14.2 -11.45 16.95 -11.8 18.2 -11.8 18.55 -11.8 19.85 -11.55 14.0 -11.05 25.2 -10.35 24.85 -10.25 24.8 -10.2 24.75 -10.2 24.5 -10.15 12.85 -11.05" fill="#48493f" fill-rule="evenodd" stroke="none"/>
    <path d="M2.4 -13.95 L2.45 -13.95 2.8 -13.65 Q2.6 -13.2 1.1 -12.65 1.35 -11.9 3.5 -11.75 4.3 -11.5 3.4 -11.1 3.05 -10.35 4.8 -10.35 6.3 -10.6 6.5 -11.05 L6.5 -11.2 8.2 -11.1 7.75 -10.85 7.45 -10.7 7.15 -10.55 6.25 -10.05 5.25 -9.8 4.1 -10.0 3.65 -10.05 Q1.75 -10.35 2.35 -11.05 L2.65 -11.5 2.6 -11.55 2.0 -11.8 0.95 -11.9 Q0.25 -11.9 0.15 -12.3 -0.15 -12.8 0.4 -12.95 L0.8 -13.0 1.35 -13.45 1.8 -13.85 2.4 -13.95" fill="#a79e7c" fill-rule="evenodd" stroke="none"/>
    <path d="M33.75 -10.2 Q37.05 -8.2 37.05 -4.9 37.05 -1.25 32.9 4.1 L-5.8 29.0 -5.8 24.55 -5.8 21.4 -5.8 17.6 -5.8 13.5 -5.8 9.6 33.75 -10.2 M29.85 0.3 L-5.8 24.55 29.85 0.3 M32.6 -2.5 L-5.8 21.4 32.6 -2.5 M-5.8 13.5 L32.15 -6.7 -5.8 13.5" fill="#9f9948" fill-rule="evenodd" stroke="none"/>
    <path d="M-5.8 29.0 L-34.65 11.4 -34.65 9.4 -33.2 9.35 -32.85 9.35 -32.85 1.6 -32.85 0.9 -34.1 0.95 -34.65 0.95 -34.65 0.65 -34.65 -5.7 -5.8 9.6 -5.8 13.5 -5.8 17.6 -5.8 21.4 -5.8 24.55 -33.2 9.35 -5.8 24.55 -5.8 29.0 M-32.85 1.6 L-5.8 17.6 -32.85 1.6 M-6.5 13.8 L-5.8 13.5 -6.5 13.8 M-34.65 0.65 L-34.1 0.95 -34.65 0.65" fill="#bdb76c" fill-rule="evenodd" stroke="none"/>
    <path d="M2.4 -13.95 L2.45 -13.95 2.55 -13.95 M6.25 -10.05 L5.25 -9.8 4.1 -10.0 3.65 -10.05 Q1.75 -10.35 2.35 -11.05 L2.65 -11.5 2.6 -11.55 M2.0 -11.8 L0.95 -11.9 Q0.25 -11.9 0.15 -12.3 -0.15 -12.8 0.4 -12.95 L0.8 -13.0 1.35 -13.45 1.8 -13.85 2.4 -13.95 M5.85 -13.5 L5.65 -13.5 4.6 -13.2 3.3 -12.8 4.75 -12.75 Q5.2 -12.65 5.0 -12.4 L5.05 -12.35 4.95 -12.0 5.3 -11.9 6.95 -11.75 7.75 -11.7 7.8 -11.7 8.1 -11.7 8.9 -11.55 9.5 -11.55 9.6 -11.5 9.95 -11.45 10.0 -11.3 9.15 -11.3 8.45 -11.3 8.35 -11.25 8.3 -11.25 8.2 -11.1 7.75 -10.85 7.45 -10.7 7.15 -10.55 6.25 -10.05" fill="none" stroke="#707066" stroke-linecap="butt" stroke-linejoin="miter" stroke-miterlimit="3.0" stroke-width="1.0"/>
    <path d="M20.85 -11.75 L21.15 -11.8 M0.6 -14.1 L-0.05 -13.95 -2.1 -13.1 Q-2.8 -12.65 -2.35 -12.0 -1.75 -10.85 3.25 -10.0 L15.95 -9.25 16.35 -9.15 16.45 -9.15 16.5 -9.15 17.45 -9.25 19.5 -9.35 M12.85 -11.05 L12.6 -11.05 11.95 -11.05 10.25 -10.9 8.75 -10.85 Q8.95 -10.6 8.35 -10.35 L6.5 -10.05 6.25 -10.05 M2.6 -11.55 L2.0 -11.8 M16.3 -12.0 L16.9 -12.2 M18.55 -11.8 L19.1 -11.95 M20.05 -11.55 L20.85 -11.75 M17.6 -12.15 L16.95 -11.8 M14.2 -11.45 L12.9 -11.25 12.6 -11.05 M16.5 -9.1 L16.35 -9.15 15.9 -9.15 3.1 -9.9 Q-1.9 -10.85 -2.45 -11.95 -2.85 -12.65 -2.1 -13.1 M25.2 -10.35 L25.3 -10.35 26.5 -10.8 27.0 -11.05 M14.2 -11.45 L16.3 -12.0 M25.2 -10.35 L24.85 -10.25 24.8 -10.2 24.75 -10.2 24.5 -10.15 19.5 -9.35" fill="none" stroke="#535349" stroke-linecap="butt" stroke-linejoin="miter" stroke-miterlimit="3.0" stroke-width="1.0"/>
    <path d="M10.6 -12.75 L10.15 -12.8 9.6 -12.65 M11.05 -12.65 L10.85 -12.65 10.7 -12.75 10.65 -12.75 10.6 -12.75" fill="none" stroke="#7b7c6a" stroke-linecap="butt" stroke-linejoin="miter" stroke-miterlimit="3.0" stroke-width="1.0"/>
    <path d="M16.5 -9.15 Q15.8 -10.05 13.75 -10.7 L12.85 -11.05 24.5 -10.15 M16.95 -11.8 L18.2 -11.8 18.55 -11.8 19.85 -11.55 20.05 -11.55 22.55 -11.55 M16.95 -11.8 L14.2 -11.45 M16.5 -9.1 L16.5 -9.15 M16.45 -9.15 L16.5 -9.1" fill="none" stroke="#37362f" stroke-linecap="butt" stroke-linejoin="miter" stroke-miterlimit="3.0" stroke-width="1.0"/>
    <path d="M-5.8 17.6 L-32.85 1.6 M-5.8 13.5 L-6.5 13.8 M-34.1 0.95 L-34.65 0.65 M-33.2 9.35 L-5.8 24.55 29.85 0.3 M-5.8 21.4 L32.6 -2.5 M32.15 -6.7 L-5.8 13.5" fill="none" stroke="#5e5955" stroke-linecap="butt" stroke-linejoin="miter" stroke-miterlimit="3.0" stroke-width="1.0"/>
    <path d="M21.4 -6.25 L13.65 -0.15 -19.15 -11.5 -10.5 -13.45 21.4 -6.25" fill="#fcd583" fill-rule="evenodd" stroke="none"/>
    <path d="M13.65 -0.15 L21.4 -6.25 21.5 13.5 13.35 18.5 13.65 -0.15" fill="#fbba33" fill-rule="evenodd" stroke="none"/>
    <path d="M21.4 -6.25 L-10.5 -13.45 -19.15 -11.5 M13.35 18.5 L21.5 13.5 21.4 -6.25" fill="none" stroke="#ffcc33" stroke-linecap="butt" stroke-linejoin="miter" stroke-miterlimit="3.0" stroke-width="1.0"/>
    <path d="M-19.15 -11.5 L13.65 -0.15 13.35 18.5" fill="none" stroke="#9b7500" stroke-linecap="butt" stroke-linejoin="miter" stroke-miterlimit="3.0" stroke-width="1.0"/>
  </g>
</svg>
