<?xml version="1.0" encoding="UTF-8" standalone="no"?>
<svg xmlns:xlink="http://www.w3.org/1999/xlink" height="9.95px" width="18.7px" xmlns="http://www.w3.org/2000/svg">
  <g transform="matrix(1.0, 0.0, 0.0, 1.0, 175.35, -27.9)">
    <path d="M-170.85 37.05 Q-171.6 37.85 -172.7 37.85 -173.8 37.85 -174.6 37.05 -175.35 36.3 -175.35 35.15 -175.35 34.0 -174.6 33.2 -173.8 32.4 -172.7 32.4 -171.6 32.4 -170.85 33.2 -170.05 34.0 -170.05 35.15 -170.05 36.3 -170.85 37.05" fill="#6b6b6b" fill-rule="evenodd" stroke="none"/>
    <path d="M-157.75 34.4 Q-158.9 35.55 -160.5 35.55 -162.1 35.55 -163.2 34.4 -164.35 33.3 -164.35 31.7 -164.35 30.1 -163.2 29.0 -162.1 27.9 -160.5 27.9 -158.9 27.9 -157.75 29.0 -156.65 30.1 -156.65 31.7 -156.65 33.3 -157.75 34.4" fill="#6b6b6b" fill-rule="evenodd" stroke="none"/>
  </g>
</svg>
