<?xml version="1.0" encoding="UTF-8" standalone="no"?>
<svg xmlns:xlink="http://www.w3.org/1999/xlink" height="36.75px" width="36.45px" xmlns="http://www.w3.org/2000/svg">
  <g transform="matrix(1.0, 0.0, 0.0, 1.0, 18.2, 18.35)">
    <path d="M16.3 -3.0 Q15.35 0.15 12.5 3.3 10.55 5.5 6.9 8.55 5.0 10.1 2.55 13.15 1.1 14.95 0.4 15.35 L1.3 17.0 Q-1.1 17.6 -2.65 15.7 L-0.75 14.95 -2.45 13.15 Q-5.0 10.1 -6.85 8.55 -10.5 5.5 -12.45 3.3 -15.3 0.15 -16.25 -3.0 -18.4 -10.05 -13.75 -15.0 -10.4 -18.6 -4.85 -16.0 -2.05 -14.6 0.05 -12.55 2.1 -14.6 4.9 -16.0 10.4 -18.6 13.8 -15.0 18.45 -10.05 16.3 -3.0" fill="#ffffff" fill-rule="evenodd" stroke="none"/>
    <path d="M16.3 -3.0 Q15.35 0.15 12.5 3.3 10.55 5.5 6.9 8.55 5.0 10.1 2.55 13.15 1.1 14.95 0.4 15.35 L1.3 17.0 Q-1.1 17.6 -2.65 15.7 L-0.75 14.95 -2.45 13.15 Q-5.0 10.1 -6.85 8.55 -10.5 5.5 -12.45 3.3 -15.3 0.15 -16.25 -3.0 -18.4 -10.05 -13.75 -15.0 -10.4 -18.6 -4.85 -16.0 -2.05 -14.6 0.05 -12.55 2.1 -14.6 4.9 -16.0 10.4 -18.6 13.8 -15.0 18.45 -10.05 16.3 -3.0 Z" fill="none" stroke="#296900" stroke-linecap="round" stroke-linejoin="round" stroke-width="2.5"/>
    <path d="M0.0 14.65 L1.3 17.0 Q-1.1 17.6 -2.65 15.7 L0.0 14.65" fill="#517900" fill-rule="evenodd" stroke="none"/>
    <path d="M13.8 -15.0 Q18.45 -10.05 16.3 -3.0 15.35 0.15 12.5 3.3 10.55 5.5 6.9 8.55 5.0 10.1 2.55 13.15 0.75 15.4 0.05 15.4 -0.65 15.4 -2.45 13.15 -5.0 10.1 -6.85 8.55 -10.5 5.5 -12.45 3.3 -15.3 0.15 -16.25 -3.0 -18.4 -10.05 -13.75 -15.0 -10.4 -18.6 -4.85 -16.0 -2.05 -14.6 0.05 -12.55 2.1 -14.6 4.9 -16.0 10.4 -18.6 13.8 -15.0" fill="#7ab400" fill-rule="evenodd" stroke="none"/>
    <path d="M13.55 -0.5 Q15.85 -7.9 10.9 -13.1 8.65 -15.5 5.55 -15.3 10.35 -17.5 13.35 -14.35 17.55 -9.9 15.6 -3.55 14.85 -1.1 12.75 1.45 L13.55 -0.5" fill="#ffffff" fill-rule="evenodd" stroke="none"/>
    <path d="M0.65 11.3 L2.15 12.95 Q1.0 14.25 0.45 14.25 -0.25 14.25 -2.05 12.0 -4.6 8.95 -6.45 7.4 L-12.05 2.15 Q-14.9 -1.0 -15.85 -4.15 -16.45 -6.2 -16.5 -8.05 -15.3 -4.35 -11.85 -0.6 -9.4 2.05 -4.85 5.75 -2.5 7.6 0.65 11.3" fill="#517900" fill-rule="evenodd" stroke="none"/>
    <path d="M6.9 8.55 Q5.0 10.1 2.55 13.15 0.75 15.4 0.05 15.4 -0.65 15.4 -2.45 13.15 -5.0 10.1 -6.85 8.55 -10.5 5.5 -12.45 3.3 -14.25 1.3 -15.25 -0.65 L-15.0 -0.3 Q-8.65 7.65 0.3 7.65 8.1 7.65 13.9 1.6 L12.5 3.3 Q10.55 5.5 6.9 8.55" fill="#517900" fill-rule="evenodd" stroke="none"/>
    <path d="M-1.0 -11.7 L-2.9 -10.0 Q-5.75 -12.85 -9.6 -14.75 L-11.7 -15.6 Q-9.05 -16.45 -5.55 -14.8 -3.0 -13.5 -1.0 -11.7" fill="#ffffff" fill-rule="evenodd" stroke="none"/>
  </g>
</svg>
