<?xml version="1.0" encoding="UTF-8" standalone="no"?>
<svg xmlns:xlink="http://www.w3.org/1999/xlink" height="150.6px" width="204.85px" xmlns="http://www.w3.org/2000/svg">
  <g transform="matrix(1.0, 0.0, 0.0, 1.0, 90.5, 78.25)">
    <path d="M-82.45 -18.2 L-84.9 -23.2 -78.95 -21.85 -79.5 -26.85 -72.3 -26.0 -77.1 -29.95 -75.9 -31.05 -72.0 -29.5 Q-55.95 -22.55 -46.55 -13.85 L-75.3 -4.7 -82.45 -18.2" fill="#414141" fill-rule="evenodd" stroke="none"/>
    <path d="M-82.45 -18.2 L-75.3 -4.7 -46.55 -13.85 Q-55.95 -22.55 -72.0 -29.5 L-75.9 -31.05 -77.1 -29.95 -72.3 -26.0 -79.5 -26.85 -78.95 -21.85 -84.9 -23.2 -82.45 -18.2 Z" fill="none" stroke="#000000" stroke-linecap="round" stroke-linejoin="round" stroke-width="4.0"/>
    <path d="M9.5 54.65 Q12.3 45.0 15.4 35.7 L54.3 40.4 Q44.45 53.75 25.65 66.55 L21.9 69.0 21.1 68.0 18.0 70.35 17.3 67.7 7.9 69.6 8.5 65.15 6.35 67.15 Q7.35 62.25 9.5 54.65" fill="#414141" fill-rule="evenodd" stroke="none"/>
    <path d="M9.5 54.65 Q12.3 45.0 15.4 35.7 L54.3 40.4 Q44.45 53.75 25.65 66.55 L21.9 69.0 21.1 68.0 18.0 70.35 17.3 67.7 7.9 69.6 8.5 65.15 6.35 67.15 Q7.35 62.25 9.5 54.65 Z" fill="none" stroke="#000000" stroke-linecap="round" stroke-linejoin="round" stroke-width="4.0"/>
    <path d="M-39.5 42.95 Q-38.75 43.8 -34.6 42.1 -30.4 40.35 -24.85 37.0 -10.95 28.5 -3.4 19.25 L-31.2 14.5 Q-33.7 21.05 -36.0 27.9 -40.6 41.55 -39.5 42.95" fill="#3494d4" fill-rule="evenodd" stroke="none"/>
    <path d="M-39.5 42.95 Q-40.6 41.55 -36.0 27.9 -33.7 21.05 -31.2 14.5 L-3.4 19.25 Q-10.95 28.5 -24.85 37.0 -30.4 40.35 -34.6 42.1 -38.75 43.8 -39.5 42.95 Z" fill="none" stroke="#000000" stroke-linecap="round" stroke-linejoin="round" stroke-width="4.0"/>
    <path d="M-34.65 42.2 Q-38.8 43.9 -39.45 43.0 -40.65 41.65 -36.05 28.0 -33.7 21.1 -31.15 14.55 L-3.4 19.25 Q-10.85 28.55 -24.85 37.1 -30.4 40.45 -34.65 42.2" fill="#414141" fill-rule="evenodd" stroke="none"/>
    <path d="M-82.45 -18.2 L-84.9 -23.2 -78.95 -21.85 -79.5 -26.85 -72.3 -26.0 -77.1 -29.95 -75.9 -31.05 -72.0 -29.5 Q-55.95 -22.55 -46.55 -13.85 L-75.3 -4.7 -82.45 -18.2" fill="#414141" fill-rule="evenodd" stroke="none"/>
    <path d="M-88.35 33.9 L-83.05 33.7 Q-78.4 32.45 -72.0 29.75 -55.95 22.8 -46.55 14.1 L-75.3 4.95 -82.45 18.45 Q-89.4 32.25 -88.35 33.9" fill="#3494d4" fill-rule="evenodd" stroke="none"/>
    <path d="M-88.35 33.9 Q-89.4 32.25 -82.45 18.45 L-75.3 4.95 -46.55 14.1 Q-55.95 22.8 -72.0 29.75 -78.4 32.45 -83.05 33.7 L-88.35 33.9 Z" fill="none" stroke="#000000" stroke-linecap="round" stroke-linejoin="round" stroke-width="4.0"/>
    <path d="M-83.05 33.7 L-88.4 33.85 Q-89.45 32.2 -82.5 18.4 -79.05 11.5 -75.35 4.95 L-46.5 14.1 Q-55.95 22.75 -72.0 29.75 -78.4 32.45 -83.05 33.7" fill="#414141" fill-rule="evenodd" stroke="none"/>
    <path d="M5.7 -75.95 Q6.75 -77.05 12.45 -74.4 18.15 -71.7 25.65 -66.65 44.45 -53.85 54.3 -40.5 L15.4 -35.8 Q12.3 -45.1 9.5 -54.75 4.05 -74.05 5.7 -75.95 M17.95 -51.15 L27.3 -46.95 35.15 -51.5 28.55 -53.25 25.85 -60.6 17.95 -51.15" fill="#3494d4" fill-rule="evenodd" stroke="none"/>
    <path d="M5.7 -75.95 Q4.05 -74.05 9.5 -54.75 12.3 -45.1 15.4 -35.8 L54.3 -40.5 Q44.45 -53.85 25.65 -66.65 18.15 -71.7 12.45 -74.4 6.75 -77.05 5.7 -75.95 M17.95 -51.15 L27.3 -46.95 35.15 -51.5 28.55 -53.25 25.85 -60.6 17.95 -51.15" fill="none" stroke="#000000" stroke-linecap="round" stroke-linejoin="round" stroke-width="4.0"/>
    <path d="M5.7 -75.95 Q6.75 -77.05 12.45 -74.4 18.15 -71.7 25.65 -66.65 44.45 -53.85 54.3 -40.5 L15.4 -35.8 Q12.3 -45.1 9.5 -54.75 4.05 -74.05 5.7 -75.95 M17.95 -51.15 L27.3 -46.95 35.15 -51.5 28.55 -53.25 25.85 -60.6 17.95 -51.15" fill="#414141" fill-rule="evenodd" stroke="none"/>
    <path d="M-39.5 -42.9 Q-38.75 -43.75 -34.6 -42.05 -30.4 -40.3 -24.85 -36.95 -10.95 -28.45 -3.4 -19.2 L-31.2 -14.45 Q-33.7 -21.0 -36.0 -27.85 -40.6 -41.5 -39.5 -42.9" fill="#3494d4" fill-rule="evenodd" stroke="none"/>
    <path d="M-39.5 -42.9 Q-40.6 -41.5 -36.0 -27.85 -33.7 -21.0 -31.2 -14.45 L-3.4 -19.2 Q-10.95 -28.45 -24.85 -36.95 -30.4 -40.3 -34.6 -42.05 -38.75 -43.75 -39.5 -42.9 Z" fill="none" stroke="#000000" stroke-linecap="round" stroke-linejoin="round" stroke-width="4.0"/>
    <path d="M-34.65 -42.15 Q-38.8 -43.85 -39.45 -42.95 -40.65 -41.6 -36.05 -27.95 -33.7 -21.05 -31.15 -14.5 L-3.4 -19.2 Q-10.85 -28.5 -24.85 -37.05 -30.4 -40.4 -34.65 -42.15" fill="#414141" fill-rule="evenodd" stroke="none"/>
    <path d="M9.5 54.65 Q12.3 45.0 15.4 35.7 L54.3 40.4 Q44.45 53.75 25.65 66.55 L21.9 69.0 21.1 68.0 18.0 70.35 17.3 67.7 7.9 69.6 8.5 65.15 6.35 67.15 Q7.35 62.25 9.5 54.65" fill="#414141" fill-rule="evenodd" stroke="none"/>
    <path d="M33.3 -43.4 Q50.8 -43.05 62.7 -37.1 69.9 -33.5 89.4 -20.05 112.35 -4.25 112.35 -0.2 112.35 3.85 89.4 20.05 69.65 33.95 62.7 37.4 50.8 43.35 33.3 43.85 L22.85 43.15 20.3 35.35 17.55 37.3 16.0 34.5 7.1 37.3 7.05 32.65 -1.1 38.25 -0.5 38.4 Q-14.9 34.65 -29.45 29.25 -73.45 12.7 -74.1 0.25 L-74.1 0.1 Q-73.45 -12.5 -29.45 -28.9 -17.85 -33.3 -6.35 -36.5 L1.1 -14.85 Q1.75 -18.6 3.1 -22.5 5.75 -30.3 9.2 -30.85 12.65 -31.4 15.85 -29.0 L18.4 -26.45 20.8 -33.7 30.65 -34.75 25.05 -43.05 33.3 -43.4" fill="#30b4d4" fill-rule="evenodd" stroke="none"/>
    <path d="M33.3 -43.4 Q50.8 -43.05 62.7 -37.1 69.9 -33.5 89.4 -20.05 112.35 -4.25 112.35 -0.2 112.35 3.85 89.4 20.05 69.65 33.95 62.7 37.4 50.8 43.35 33.3 43.85 L22.85 43.15 20.3 35.35 17.55 37.3 16.0 34.5 7.1 37.3 7.05 32.65 -1.1 38.25 -0.5 38.4 Q-14.9 34.65 -29.45 29.25 -73.45 12.7 -74.1 0.25 L-74.1 0.1 Q-73.45 -12.5 -29.45 -28.9 -17.85 -33.3 -6.35 -36.5 L1.1 -14.85 Q1.75 -18.6 3.1 -22.5 5.75 -30.3 9.2 -30.85 12.65 -31.4 15.85 -29.0 L18.4 -26.45 20.8 -33.7 30.65 -34.75 25.05 -43.05 33.3 -43.4 Z" fill="none" stroke="#000000" stroke-linecap="round" stroke-linejoin="round" stroke-width="4.0"/>
    <path d="M32.9 -41.05 Q50.1 -40.7 61.8 -35.05 68.85 -31.7 88.1 -18.95 110.6 -4.05 110.6 -0.2 110.6 3.65 88.1 18.95 68.6 32.1 61.8 35.35 50.1 40.95 32.9 41.45 23.05 41.6 5.8 37.75 -11.4 33.9 -28.8 27.65 -72.1 12.0 -72.75 0.25 L-72.75 0.1 Q-72.1 -11.8 -28.8 -27.3 -11.4 -33.65 5.8 -37.5 23.05 -41.35 32.9 -41.05" fill="#0b3843" fill-rule="evenodd" stroke="none"/>
    <path d="M32.9 -41.05 Q50.1 -40.7 61.8 -35.05 68.85 -31.7 88.1 -18.95 110.6 -4.05 110.6 -0.2 110.6 3.65 88.1 18.95 68.6 32.1 61.8 35.35 50.1 40.95 32.9 41.45 23.05 41.6 5.8 37.75 -11.4 33.9 -28.8 27.65 -72.1 12.0 -72.75 0.25 L-72.75 0.1 Q-72.1 -11.8 -28.8 -27.3 -11.4 -33.65 5.8 -37.5 23.05 -41.35 32.9 -41.05 Z" fill="none" stroke="#000000" stroke-linecap="round" stroke-linejoin="round" stroke-width="4.0"/>
    <path d="M32.9 -41.05 Q50.1 -40.7 61.8 -35.05 68.85 -31.7 88.1 -18.95 110.6 -4.05 110.6 -0.2 110.6 3.65 88.1 18.95 68.6 32.1 61.8 35.35 50.1 40.95 32.9 41.45 23.05 41.6 5.8 37.75 -11.4 33.9 -28.8 27.65 -72.1 12.0 -72.75 0.25 L-72.75 0.1 Q-72.1 -11.8 -28.8 -27.3 -11.4 -33.65 5.8 -37.5 23.05 -41.35 32.9 -41.05" fill="#0b3843" fill-rule="evenodd" stroke="none"/>
    <path d="M33.3 -43.4 Q50.8 -43.05 62.7 -37.1 69.9 -33.5 89.4 -20.05 112.35 -4.25 112.35 -0.2 112.35 3.85 89.4 20.05 69.65 33.95 62.7 37.4 50.8 43.35 33.3 43.85 L22.85 43.15 20.3 35.35 17.55 37.3 16.0 34.5 7.1 37.3 7.05 32.65 -1.1 38.25 -0.5 38.4 Q-14.9 34.65 -29.45 29.25 -73.45 12.7 -74.1 0.25 L-74.1 0.1 Q-73.45 -12.5 -29.45 -28.9 -17.85 -33.3 -6.35 -36.5 L1.1 -14.85 Q1.75 -18.6 3.1 -22.5 5.75 -30.3 9.2 -30.85 12.65 -31.4 15.85 -29.0 L18.4 -26.45 20.8 -33.7 30.65 -34.75 25.05 -43.05 33.3 -43.4" fill="#30b4d4" fill-rule="evenodd" stroke="none"/>
    <path d="M-29.45 29.25 L-34.1 27.45 Q-37.3 1.3 -33.55 -27.35 L-29.45 -28.9 -17.55 -33.1 Q-23.25 2.05 -18.05 33.25 L-29.45 29.25" fill="#414141" fill-rule="evenodd" stroke="none"/>
    <path d="M-74.1 0.25 L-74.1 0.1 Q-73.5 -11.25 -37.7 -25.7 -42.45 -14.0 -42.45 -0.1 -42.45 14.2 -37.45 26.15 -73.5 11.5 -74.1 0.25" fill="#414141" fill-rule="evenodd" stroke="none"/>
    <path d="M-70.5 -0.3 Q-70.1 -8.25 -52.15 -17.8 -62.15 -10.55 -62.45 -4.15 L-62.45 -3.95 Q-61.7 10.75 -10.05 30.1 L3.75 34.95 0.3 37.3 Q-12.75 33.75 -25.9 28.85 -69.85 12.35 -70.5 -0.15 L-70.5 -0.3 M31.35 42.65 L34.85 43.45 22.55 42.2 21.95 40.35 31.35 42.65 M7.1 37.3 L7.1 36.0 9.15 36.65 7.1 37.3" fill="#196c80" fill-rule="evenodd" stroke="none"/>
    <path d="M63.95 -36.85 Q46.3 -38.2 27.5 -36.05 L27.5 -37.4 59.7 -38.4 62.7 -37.05 62.85 -37.0 63.95 -36.85 M99.2 -13.1 Q14.5 -26.7 -73.85 -1.5 L-73.3 -3.0 Q13.5 -27.5 96.9 -14.7 L99.2 -13.1 M112.35 -0.15 L112.15 0.7 -74.05 0.7 -74.1 0.25 -74.1 0.15 -74.05 -0.55 112.35 -0.55 112.35 -0.15 M-73.85 1.75 Q14.0 26.95 98.35 13.55 L96.25 15.1 Q13.2 27.85 -73.35 3.25 L-73.85 1.75 M-72.95 4.0 Q1.8 41.7 62.7 37.4 L59.45 38.9 Q0.3 41.9 -71.6 6.15 L-72.95 4.0 M-71.7 -5.6 Q-36.45 -23.25 -4.25 -31.45 L-3.55 -31.65 -3.55 -30.25 -4.25 -30.05 Q-37.3 -21.55 -73.55 -3.15 L-73.1 -3.4 -71.7 -5.6" fill="#196c80" fill-rule="evenodd" stroke="none"/>
    <path d="M89.4 -20.0 Q112.35 -4.25 112.35 -0.15 112.35 3.9 89.4 20.05 L84.2 23.7 Q87.95 10.35 87.55 -1.65 87.15 -13.65 84.15 -23.65 L89.4 -20.0" fill="#414141" fill-rule="evenodd" stroke="none"/>
    <path d="M-41.7 -24.15 L-43.85 -23.0 -42.95 -23.5 -41.7 -24.15" fill="#515151" fill-rule="evenodd" stroke="none"/>
    <path d="M96.9 -14.7 L97.55 -14.25 99.1 -13.1 86.2 -14.95 86.0 -16.2 96.9 -14.7 M112.35 -0.15 L112.15 0.7 87.6 0.7 87.6 -0.55 112.3 -0.55 112.35 -0.15 M98.35 13.55 L96.25 15.1 84.6 16.7 85.15 16.65 85.95 16.55 86.2 15.3 98.35 13.55 M-71.7 -5.6 Q-55.4 -13.75 -39.75 -19.9 L-40.2 -18.25 Q-56.3 -11.85 -73.15 -3.35 L-73.1 -3.4 -71.7 -5.6 M-73.85 -1.5 L-73.3 -3.0 Q-57.45 -7.45 -41.7 -10.7 L-41.9 -9.35 Q-57.8 -6.05 -73.85 -1.5 M-74.05 0.7 L-74.1 0.25 -74.1 0.15 -74.05 -0.55 -42.45 -0.55 -42.45 -0.1 -42.45 0.7 -74.05 0.7 M-18.4 -27.4 L-18.6 -25.95 -34.35 -20.5 -34.2 -22.0 Q-26.25 -25.0 -18.4 -27.4 M-20.5 -0.55 L-20.55 0.7 -35.55 0.7 -35.55 -0.55 -20.5 -0.55 M-19.85 -14.6 L-19.95 -13.3 -35.15 -10.7 -35.05 -12.0 -19.85 -14.6 M-20.25 13.6 L-20.15 14.9 -35.35 12.3 -35.4 10.95 -20.25 13.6 M-72.95 4.0 Q-56.1 12.5 -39.95 18.85 L-39.5 20.45 Q-55.2 14.3 -71.5 6.2 L-72.2 5.25 -72.95 4.0 M-34.8 20.85 L-19.05 26.3 -19.1 26.3 -18.9 27.7 Q-26.7 25.25 -34.7 22.3 L-34.8 20.85 M-73.85 1.75 Q-57.4 6.45 -41.05 9.85 L-41.85 9.7 -41.65 11.05 Q-57.45 7.75 -73.35 3.25 L-73.3 3.25 -73.75 2.15 -73.85 1.75" fill="#000000" fill-rule="evenodd" stroke="none"/>
    <path d="M-70.5 -0.3 Q-70.1 -8.25 -52.15 -17.8 -62.15 -10.55 -62.45 -4.15 L-62.45 -3.95 Q-61.95 5.5 -40.5 16.85 -39.6 20.45 -38.35 23.9 L-37.5 24.25 Q-69.95 10.6 -70.5 -0.15 L-70.5 -0.3 M-25.9 28.85 L-34.35 25.55 -34.9 19.65 Q-27.9 23.05 -19.05 26.6 L-18.35 31.55 -25.9 28.85" fill="#000000" fill-rule="evenodd" stroke="none"/>
    <path d="M1.3 -15.95 L0.75 -15.9 0.35 -17.1 1.6 -17.25 1.3 -15.95 M29.95 -35.8 L29.6 -36.25 Q13.15 -34.55 -4.15 -30.1 L-4.6 -31.35 Q12.5 -35.75 28.75 -37.5 L29.95 -35.8 M18.35 36.75 L20.05 35.55 20.4 35.6 20.85 36.95 18.55 36.6 18.35 36.75 M16.0 34.5 L17.05 36.35 12.6 35.6 15.2 34.75 16.25 34.95 16.0 34.5 M6.45 33.1 L7.05 33.2 7.1 34.5 5.0 34.05 Q5.7 33.55 6.45 33.1" fill="#000000" fill-rule="evenodd" stroke="none"/>
    <path d="M9.2 -30.85 L13.1 -30.5 6.6 -29.3 Q7.85 -30.65 9.2 -30.85 M-29.5 -26.3 Q-17.45 -30.8 -5.55 -34.1 L-3.15 -27.2 Q-19.15 -23.55 -35.35 -18.15 -58.5 -10.55 -71.05 -3.8 -62.5 -14.0 -29.5 -26.3 M36.05 -32.7 L20.1 -31.6 20.8 -33.7 30.65 -34.75 26.7 -40.6 33.3 -40.8 Q50.75 -40.45 62.7 -34.45 69.85 -30.9 89.4 -17.4 L103.75 -6.95 Q101.85 -8.05 99.85 -9.3 77.65 -22.8 69.5 -26.35 55.95 -32.35 36.05 -32.7" fill="#ffffff" fill-opacity="0.4" fill-rule="evenodd" stroke="none"/>
    <path d="M68.7 -27.55 Q68.7 -25.2 67.25 -23.5 65.75 -21.85 63.65 -21.85 61.55 -21.85 60.1 -23.5 58.6 -25.2 58.6 -27.55 58.6 -29.95 60.1 -31.7 61.55 -33.35 63.65 -33.35 65.75 -33.35 67.25 -31.7 68.7 -29.95 68.7 -27.55 M80.2 -13.1 Q80.2 -10.75 78.75 -9.05 77.25 -7.4 75.15 -7.4 73.05 -7.4 71.6 -9.05 70.1 -10.75 70.1 -13.1 70.1 -15.5 71.6 -17.2 73.05 -18.9 75.15 -18.9 77.25 -18.9 78.75 -17.2 80.2 -15.5 80.2 -13.1 M68.7 0.25 Q68.7 2.6 67.25 4.3 65.75 5.95 63.65 5.95 61.55 5.95 60.1 4.3 58.6 2.6 58.6 0.25 58.6 -2.15 60.1 -3.85 61.55 -5.55 63.65 -5.55 65.75 -5.55 67.25 -3.85 68.7 -2.15 68.7 0.25 M80.2 13.6 Q80.2 16.0 78.75 17.65 77.25 19.3 75.15 19.3 73.05 19.3 71.6 17.65 70.1 16.0 70.1 13.6 70.1 11.2 71.6 9.5 73.05 7.8 75.15 7.8 77.25 7.8 78.75 9.5 80.2 11.2 80.2 13.6 M68.7 27.55 Q68.7 29.9 67.25 31.6 65.75 33.25 63.65 33.25 61.55 33.25 60.1 31.6 58.6 29.9 58.6 27.55 58.6 25.15 60.1 23.4 61.55 21.75 63.65 21.75 65.75 21.75 67.25 23.4 68.7 25.15 68.7 27.55" fill="#d2e0ff" fill-rule="evenodd" stroke="none"/>
    <path d="M68.7 -27.55 Q68.7 -25.2 67.25 -23.5 65.75 -21.85 63.65 -21.85 61.55 -21.85 60.1 -23.5 58.6 -25.2 58.6 -27.55 58.6 -29.95 60.1 -31.7 61.55 -33.35 63.65 -33.35 65.75 -33.35 67.25 -31.7 68.7 -29.95 68.7 -27.55 M80.2 -13.1 Q80.2 -10.75 78.75 -9.05 77.25 -7.4 75.15 -7.4 73.05 -7.4 71.6 -9.05 70.1 -10.75 70.1 -13.1 70.1 -15.5 71.6 -17.2 73.05 -18.9 75.15 -18.9 77.25 -18.9 78.75 -17.2 80.2 -15.5 80.2 -13.1 M68.7 0.25 Q68.7 2.6 67.25 4.3 65.75 5.95 63.65 5.95 61.55 5.95 60.1 4.3 58.6 2.6 58.6 0.25 58.6 -2.15 60.1 -3.85 61.55 -5.55 63.65 -5.55 65.75 -5.55 67.25 -3.85 68.7 -2.15 68.7 0.25 M80.2 13.6 Q80.2 16.0 78.75 17.65 77.25 19.3 75.15 19.3 73.05 19.3 71.6 17.65 70.1 16.0 70.1 13.6 70.1 11.2 71.6 9.5 73.05 7.8 75.15 7.8 77.25 7.8 78.75 9.5 80.2 11.2 80.2 13.6 M68.7 27.55 Q68.7 29.9 67.25 31.6 65.75 33.25 63.65 33.25 61.55 33.25 60.1 31.6 58.6 29.9 58.6 27.55 58.6 25.15 60.1 23.4 61.55 21.75 63.65 21.75 65.75 21.75 67.25 23.4 68.7 25.15 68.7 27.55" fill="none" stroke="#196c80" stroke-linecap="round" stroke-linejoin="round" stroke-width="4.0"/>
    <path d="M68.7 -27.55 Q68.7 -25.2 67.25 -23.5 65.75 -21.85 63.65 -21.85 61.55 -21.85 60.1 -23.5 58.6 -25.2 58.6 -27.55 58.6 -29.95 60.1 -31.7 61.55 -33.35 63.65 -33.35 65.75 -33.35 67.25 -31.7 68.7 -29.95 68.7 -27.55 M80.2 -13.1 Q80.2 -10.75 78.75 -9.05 77.25 -7.4 75.15 -7.4 73.05 -7.4 71.6 -9.05 70.1 -10.75 70.1 -13.1 70.1 -15.5 71.6 -17.2 73.05 -18.9 75.15 -18.9 77.25 -18.9 78.75 -17.2 80.2 -15.5 80.2 -13.1 M68.7 0.25 Q68.7 2.6 67.25 4.3 65.75 5.95 63.65 5.95 61.55 5.95 60.1 4.3 58.6 2.6 58.6 0.25 58.6 -2.15 60.1 -3.85 61.55 -5.55 63.65 -5.55 65.75 -5.55 67.25 -3.85 68.7 -2.15 68.7 0.25 M80.2 13.6 Q80.2 16.0 78.75 17.65 77.25 19.3 75.15 19.3 73.05 19.3 71.6 17.65 70.1 16.0 70.1 13.6 70.1 11.2 71.6 9.5 73.05 7.8 75.15 7.8 77.25 7.8 78.75 9.5 80.2 11.2 80.2 13.6 M68.7 27.55 Q68.7 29.9 67.25 31.6 65.75 33.25 63.65 33.25 61.55 33.25 60.1 31.6 58.6 29.9 58.6 27.55 58.6 25.15 60.1 23.4 61.55 21.75 63.65 21.75 65.75 21.75 67.25 23.4 68.7 25.15 68.7 27.55" fill="#d2e0ff" fill-rule="evenodd" stroke="none"/>
    <path d="M-26.5 11.0 L-4.55 9.7 -5.05 13.35 Q-0.75 14.35 3.9 13.2 6.05 20.25 3.9 28.3 -5.55 31.4 -16.45 29.85 L-26.5 11.0" fill="#0b3843" fill-rule="evenodd" stroke="none"/>
    <path d="M-18.35 26.25 L-26.5 11.0 -19.65 10.95 Q-19.3 18.7 -18.35 26.25" fill="#000000" fill-rule="evenodd" stroke="none"/>
    <path d="M4.7 16.65 L4.85 17.95 Q-9.9 16.6 -24.8 14.15 L-25.55 12.75 Q-10.4 15.25 4.7 16.65 M-17.35 28.2 L-18.2 26.55 -5.55 30.2 -9.85 30.4 -17.35 28.2" fill="#000000" fill-rule="evenodd" stroke="none"/>
    <path d="M-26.4 11.05 L-16.45 29.7 Q-17.8 32.05 -23.35 32.65 -28.65 33.15 -31.5 31.75 -33.7 30.65 -37.65 26.05 L-41.15 21.7 Q-38.55 21.4 -36.35 19.7 -34.15 17.95 -35.3 17.0 -36.9 15.7 -38.8 14.7 -36.55 15.1 -33.85 14.8 -28.5 14.25 -26.4 11.05" fill="#82d2e5" fill-rule="evenodd" stroke="none"/>
    <path d="M34.6 -31.9 L43.7 -33.0 Q48.2 -28.6 49.0 -24.15 L34.6 -31.9" fill="#0b3843" fill-rule="evenodd" stroke="none"/>
    <path d="M34.65 -31.95 L49.1 -24.25 39.3 -24.55 34.1 -25.75 35.05 -27.85 Q35.8 -30.25 34.65 -31.95" fill="#196c80" fill-rule="evenodd" stroke="none"/>
    <path d="M34.65 -31.9 Q37.05 -28.95 36.3 -26.05 36.0 -24.55 35.15 -23.7 37.5 -22.8 40.35 -22.5 46.2 -21.75 49.1 -24.25 L34.65 -31.9" fill="#82d2e5" fill-rule="evenodd" stroke="none"/>
  </g>
</svg>
