<?xml version="1.0" encoding="UTF-8" standalone="no"?>
<svg xmlns:xlink="http://www.w3.org/1999/xlink" height="93.25px" width="179.55px" xmlns="http://www.w3.org/2000/svg">
  <g transform="matrix(1.0, 0.0, 0.0, 1.0, 78.45, 47.2)">
    <path d="M4.45 -24.9 L-5.55 -18.85 -2.4 3.7 5.75 -1.8 11.25 11.3 23.1 -4.6 35.4 -11.85 29.3 -15.4 39.9 -24.4 21.05 -25.4 21.05 -31.2 4.45 -24.9 M26.3 -45.2 Q39.65 -44.8 48.75 -38.6 54.6 -34.65 58.4 -28.5 62.1 -22.65 64.4 -15.9 67.05 -7.9 67.15 -0.05 L67.15 0.05 Q67.05 7.75 64.4 15.9 62.1 22.65 58.4 28.5 54.6 34.6 48.75 38.55 43.1 42.4 35.85 44.05 L33.55 40.7 28.4 40.15 31.45 26.65 14.75 33.1 11.05 26.1 3.95 40.8 Q-8.85 36.65 -21.75 30.15 -55.4 13.0 -55.9 0.05 L-55.9 -0.05 Q-55.4 -13.1 -21.75 -30.15 -8.2 -37.05 5.2 -41.25 18.6 -45.5 26.3 -45.2" fill="#412f22" fill-rule="evenodd" stroke="none"/>
    <path d="M4.45 -24.9 L-5.55 -18.85 -2.4 3.7 5.75 -1.8 11.25 11.3 23.1 -4.6 35.4 -11.85 29.3 -15.4 39.9 -24.4 21.05 -25.4 21.05 -31.2 4.45 -24.9 M26.3 -45.2 Q39.65 -44.8 48.75 -38.6 54.6 -34.65 58.4 -28.5 62.1 -22.65 64.4 -15.9 67.05 -7.9 67.15 -0.05 L67.15 0.05 Q67.05 7.75 64.4 15.9 62.1 22.65 58.4 28.5 54.6 34.6 48.75 38.55 43.1 42.4 35.85 44.05 L33.55 40.7 28.4 40.15 31.45 26.65 14.75 33.1 11.05 26.1 3.95 40.8 Q-8.85 36.65 -21.75 30.15 -55.4 13.0 -55.9 0.05 L-55.9 -0.05 Q-55.4 -13.1 -21.75 -30.15 -8.2 -37.05 5.2 -41.25 18.6 -45.5 26.3 -45.2" fill="none" stroke="#000000" stroke-linecap="round" stroke-linejoin="round" stroke-width="4.0"/>
    <path d="M-53.65 -0.1 Q-53.2 -12.65 -20.75 -29.0 -7.65 -35.75 5.25 -39.75 18.15 -43.85 25.6 -43.6 38.5 -43.2 47.3 -37.25 52.9 -33.4 56.6 -27.5 60.15 -21.85 62.35 -15.35 64.9 -7.6 65.0 -0.1 L65.0 0.05 Q64.9 7.5 62.35 15.4 60.15 21.8 56.6 27.5 52.9 33.35 47.3 37.2 38.5 43.15 25.6 43.65 18.15 43.85 5.25 39.75 -7.65 35.7 -20.75 29.05 -53.2 12.55 -53.65 0.05 L-53.65 -0.1" fill="#3464a8" fill-rule="evenodd" stroke="none"/>
    <path d="M-53.65 -0.1 Q-53.2 -12.65 -20.75 -29.0 -7.65 -35.75 5.25 -39.75 18.15 -43.85 25.6 -43.6 38.5 -43.2 47.3 -37.25 52.9 -33.4 56.6 -27.5 60.15 -21.85 62.35 -15.35 64.9 -7.6 65.0 -0.1 L65.0 0.05 Q64.9 7.5 62.35 15.4 60.15 21.8 56.6 27.5 52.9 33.35 47.3 37.2 38.5 43.15 25.6 43.65 18.15 43.85 5.25 39.75 -7.65 35.7 -20.75 29.05 -53.2 12.55 -53.65 0.05 L-53.65 -0.1 Z" fill="none" stroke="#000000" stroke-linecap="round" stroke-linejoin="round" stroke-width="4.0"/>
    <path d="M25.55 -43.6 Q38.45 -43.2 47.25 -37.25 52.9 -33.4 56.55 -27.5 60.1 -21.85 62.3 -15.35 64.9 -7.6 65.0 -0.05 L65.0 0.05 Q64.9 7.5 62.3 15.35 60.1 21.85 56.55 27.5 52.9 33.35 47.25 37.15 38.45 43.15 25.55 43.65 18.15 43.85 5.2 39.7 -7.7 35.65 -20.75 29.05 -53.25 12.55 -53.7 0.05 L-53.7 -0.05 Q-53.25 -12.65 -20.75 -29.05 -7.7 -35.75 5.2 -39.8 18.15 -43.9 25.55 -43.6" fill="#150f0a" fill-rule="evenodd" stroke="none"/>
    <path d="M53.25 -31.9 Q6.95 -51.7 -53.75 -3.25 L-52.6 -5.65 Q5.8 -51.65 51.05 -34.15 L53.25 -31.9 M63.5 -11.35 Q5.9 -28.7 -54.25 -1.5 L-53.8 -3.05 Q5.95 -29.75 63.1 -12.8 L63.5 -11.35 M65.0 -0.1 L65.0 0.0 65.0 0.45 -54.35 0.45 -54.4 0.0 -54.4 -0.1 -54.35 -0.8 65.0 -0.8 65.0 -0.1 M63.1 12.55 Q5.9 29.65 -53.9 2.75 L-54.25 1.25 Q6.35 28.75 64.3 10.9 L63.5 11.15 63.1 12.55 M50.95 34.1 Q5.85 51.4 -52.45 5.7 L-53.7 3.25 Q6.95 51.5 53.2 31.8 L50.95 34.1" fill="#000000" fill-rule="evenodd" stroke="none"/>
    <path d="M-35.65 24.1 L-36.1 23.75 Q-48.55 0.8 -36.1 -23.8 L-34.3 -24.95 -26.55 -29.4 -24.25 -35.7 Q-23.5 -37.45 -21.85 -38.2 -20.15 -38.9 -18.5 -38.2 -16.8 -37.5 -16.05 -35.8 -15.5 -34.35 -15.85 -33.0 L-16.5 -32.7 Q-32.3 1.3 -16.5 32.7 L-15.9 33.0 Q-15.45 34.4 -16.0 35.85 -16.65 37.5 -18.35 38.3 L-21.7 38.4 Q-23.35 37.75 -24.2 36.05 L-26.85 29.25 Q-30.85 27.1 -34.3 24.95 L-35.65 24.1" fill="#000000" fill-rule="evenodd" stroke="none"/>
    <path d="M-35.65 24.1 L-36.1 23.75 Q-48.55 0.8 -36.1 -23.8 L-34.3 -24.95 -26.55 -29.4 -24.25 -35.7 Q-23.5 -37.45 -21.85 -38.2 -20.15 -38.9 -18.5 -38.2 -16.8 -37.5 -16.05 -35.8 -15.5 -34.35 -15.85 -33.0 L-16.5 -32.7 Q-32.3 1.3 -16.5 32.7 L-15.9 33.0 Q-15.45 34.4 -16.0 35.85 -16.65 37.5 -18.35 38.3 L-21.7 38.4 Q-23.35 37.75 -24.2 36.05 L-26.85 29.25 Q-30.85 27.1 -34.3 24.95 L-35.65 24.1 Z" fill="none" stroke="#000000" stroke-linecap="round" stroke-linejoin="round" stroke-width="3.0"/>
    <path d="M61.35 -32.9 L64.2 -31.1 Q75.35 -2.0 72.35 25.15 L67.7 28.45 68.6 21.95 68.6 21.9 Q70.3 5.2 66.2 -12.1 64.8 -22.4 61.35 -32.9 M65.75 -30.0 L71.75 -25.8 Q81.1 -3.6 82.05 17.5 L78.15 20.8 Q78.35 -3.75 65.75 -30.0 M74.95 -23.35 L81.15 -18.35 Q87.45 -3.9 90.05 10.1 L86.75 13.25 Q84.15 -4.65 74.95 -23.35 M85.7 -14.35 L92.65 -7.75 96.9 2.85 94.15 5.9 Q90.95 -4.15 85.7 -14.35" fill="#7b7b7b" fill-rule="evenodd" stroke="none"/>
    <path d="M64.2 -31.1 L63.15 -33.7 64.4 -32.8 65.75 -30.0 Q78.35 -3.75 78.15 20.8 L78.1 21.9 78.1 21.95 78.1 22.05 72.15 26.9 72.35 25.15 Q75.35 -2.0 64.2 -31.1 M71.75 -25.8 L70.7 -28.15 73.75 -25.8 74.95 -23.35 Q84.15 -4.65 86.75 13.25 L86.8 14.0 81.75 18.8 82.1 18.5 82.05 17.5 Q81.1 -3.6 71.75 -25.8 M81.15 -18.35 L80.35 -20.2 84.8 -16.1 85.7 -14.35 Q90.95 -4.15 94.15 5.9 L94.2 6.15 90.15 10.6 90.05 10.1 Q87.45 -3.9 81.15 -18.35 M92.65 -7.75 L92.3 -8.45 92.3 -8.5 99.6 -0.25 96.95 3.05 96.9 2.85 92.65 -7.75 M67.7 28.45 L67.3 30.5 60.9 34.9 Q69.45 12.05 66.2 -12.1 70.3 5.2 68.6 21.9 L68.6 21.95 67.7 28.45" fill="#b1b1b1" fill-rule="evenodd" stroke="none"/>
    <path d="M60.9 34.9 L58.9 39.8 Q58.05 41.7 56.2 42.4 L52.6 42.25 Q50.75 41.4 50.05 39.55 L49.7 37.85 50.2 37.55 Q68.9 1.85 50.2 -37.55 L49.7 -37.9 Q49.75 -38.7 50.1 -39.55 50.85 -41.45 52.75 -42.2 54.55 -43.0 56.35 -42.2 58.15 -41.4 58.95 -39.5 L61.35 -32.9 Q64.8 -22.4 66.2 -12.1 69.45 12.05 60.9 34.9" fill="#707070" fill-rule="evenodd" stroke="none"/>
    <path d="M61.35 -32.9 L64.2 -31.1 63.15 -33.7 64.4 -32.8 65.75 -30.0 71.75 -25.8 70.7 -28.15 73.75 -25.8 74.95 -23.35 81.15 -18.35 80.35 -20.2 84.8 -16.1 85.7 -14.35 92.65 -7.75 92.3 -8.45 92.3 -8.5 99.6 -0.25 96.95 3.05 96.9 2.85 94.15 5.9 94.2 6.15 90.15 10.6 90.05 10.1 86.75 13.25 86.8 14.0 81.75 18.8 82.1 18.5 82.05 17.5 78.15 20.8 78.1 21.9 78.1 21.95 78.1 22.05 72.15 26.9 72.35 25.15 67.7 28.45 67.3 30.5 60.9 34.9 58.9 39.8 Q58.05 41.7 56.2 42.4 L52.6 42.25 Q50.75 41.4 50.05 39.55 L49.7 37.85 50.2 37.55 Q68.9 1.85 50.2 -37.55 L49.7 -37.9 Q49.75 -38.7 50.1 -39.55 50.85 -41.45 52.75 -42.2 54.55 -43.0 56.35 -42.2 58.15 -41.4 58.95 -39.5 L61.35 -32.9 Q64.8 -22.4 66.2 -12.1 70.3 5.2 68.6 21.9 L68.6 21.95 67.7 28.45 M96.9 2.85 L92.65 -7.75 M94.15 5.9 Q90.95 -4.15 85.7 -14.35 M81.15 -18.35 Q87.45 -3.9 90.05 10.1 M71.75 -25.8 Q81.1 -3.6 82.05 17.5 M86.75 13.25 Q84.15 -4.65 74.95 -23.35 M78.15 20.8 Q78.35 -3.75 65.75 -30.0 M64.2 -31.1 Q75.35 -2.0 72.35 25.15 M60.9 34.9 Q69.45 12.05 66.2 -12.1" fill="none" stroke="#000000" stroke-linecap="round" stroke-linejoin="round" stroke-width="3.0"/>
    <path d="M26.3 -45.2 Q39.65 -44.8 48.75 -38.6 54.6 -34.65 58.4 -28.5 62.1 -22.65 64.4 -15.9 67.05 -7.9 67.15 -0.05 L67.15 0.05 Q67.05 7.75 64.4 15.9 62.1 22.65 58.4 28.5 54.6 34.6 48.75 38.55 43.1 42.4 35.85 44.05 L33.55 40.7 28.4 40.15 31.45 26.65 14.75 33.1 11.05 26.1 3.95 40.8 Q-8.85 36.65 -21.75 30.15 -55.4 13.0 -55.9 0.05 L-55.9 -0.05 Q-55.4 -13.1 -21.75 -30.15 -8.2 -37.05 5.2 -41.25 18.6 -45.5 26.3 -45.2 M4.45 -24.9 L-5.55 -18.85 -2.4 3.7 5.75 -1.8 11.25 11.3 23.1 -4.6 35.4 -11.85 29.3 -15.4 39.9 -24.4 21.05 -25.4 21.05 -31.2 4.45 -24.9" fill="#412f22" fill-rule="evenodd" stroke="none"/>
    <path d="M-53.1 1.3 Q-52.8 -6.95 -39.05 -17.45 -46.7 -9.65 -46.95 -2.95 L-46.95 -2.75 Q-46.35 12.45 -6.85 30.85 -0.35 33.85 6.1 36.35 L4.8 39.05 Q-7.0 35.55 -18.95 30.05 -52.6 14.3 -53.1 1.45 L-53.1 1.3" fill="#2c2016" fill-rule="evenodd" stroke="none"/>
    <path d="M6.2 -0.8 L6.75 0.5 2.35 0.5 4.3 -0.8 6.2 -0.8 M65.6 -11.75 Q49.15 -16.7 32.55 -18.1 L33.95 -19.3 Q49.65 -17.8 65.2 -13.2 L65.6 -11.75 M67.15 -0.1 L67.15 0.05 67.15 0.5 19.3 0.5 20.3 -0.8 67.15 -0.8 67.15 -0.15 67.15 -0.1 M55.0 -33.05 Q7.3 -53.4 -54.95 -4.1 L-53.65 -6.7 -54.05 -6.4 Q6.05 -53.4 52.65 -35.4 L55.0 -33.05 M52.6 35.4 Q41.3 39.7 29.25 40.25 L28.4 40.15 28.7 38.9 Q42.35 38.4 54.95 33.0 L52.6 35.4 M65.2 13.0 Q6.25 30.65 -55.3 3.2 L-55.7 1.65 Q6.35 29.55 65.65 11.6 L65.6 11.6 65.2 13.0 M-54.95 4.15 Q-22.5 29.75 6.0 36.55 L5.4 37.75 Q-22.3 31.0 -53.7 6.65 L-54.1 5.95 -54.95 4.15 M-55.65 -1.85 L-55.45 -2.65 -55.2 -3.5 Q-30.15 -14.6 -5.45 -18.25 L-5.3 -16.95 Q-30.25 -13.25 -55.65 -1.85 M-55.9 0.05 L-55.9 -0.05 -55.85 -0.8 -3.0 -0.8 -2.85 0.5 -55.85 0.5 -55.9 0.05" fill="#271c14" fill-rule="evenodd" stroke="none"/>
    <path d="M-45.5 -8.65 L-46.05 -7.2 -46.55 -5.65 -51.9 -3.45 -52.1 -2.9 Q-49.75 -8.7 -41.55 -15.45 L-39.85 -16.6 -42.75 -13.1 -45.5 -8.65 M-52.8 -0.8 L-46.65 -0.8 -46.35 0.5 -53.0 0.5 -52.8 -0.8 M15.55 39.7 Q-14.55 35.85 -49.3 10.05 L-51.35 7.0 Q-19.75 31.1 8.1 37.05 L16.75 40.05 15.55 39.7 M-43.35 6.2 L-41.05 9.05 -52.45 4.5 -52.1 5.45 Q-52.8 3.9 -52.95 2.45 L-52.9 3.0 -42.7 7.05 -43.35 6.2" fill="#19130e" fill-rule="evenodd" stroke="none"/>
    <path d="M-0.2 39.4 Q-6.0 14.85 -4.15 -10.9 L-4.25 -9.6 -2.4 3.7 2.3 0.55 Q2.2 18.85 6.0 36.5 L3.95 40.75 -0.2 39.4 M5.2 -41.25 L7.6 -41.95 Q5.5 -33.3 4.25 -24.75 L-3.25 -20.2 Q-2.1 -29.8 0.1 -39.55 L5.2 -41.25 M-5.25 37.5 L-14.1 33.8 Q-21.45 1.15 -13.8 -33.95 -9.45 -35.95 -5.15 -37.6 -16.95 1.3 -5.25 37.5" fill="#ffdd3f" fill-rule="evenodd" stroke="none"/>
    <path d="M50.2 37.55 Q68.9 1.85 50.2 -37.55 L49.7 -37.9 Q49.75 -38.7 50.1 -39.55 50.85 -41.45 52.75 -42.2 54.55 -43.0 56.35 -42.2 58.15 -41.4 58.95 -39.5 75.2 2.1 58.9 39.8 58.05 41.7 56.2 42.4 L52.6 42.25 Q50.75 41.4 50.05 39.55 L49.7 37.85 50.2 37.55" fill="#6b6a6a" fill-rule="evenodd" stroke="none"/>
    <path d="M-35.1 -24.3 Q-34.8 -23.6 -34.85 -22.9 L-36.55 -21.85 Q-48.05 0.75 -36.55 21.8 L-34.85 22.9 Q-34.75 23.6 -35.1 24.3 -35.5 25.45 -36.75 26.0 L-39.15 26.05 Q-40.35 25.65 -40.95 24.45 -51.8 1.3 -41.0 -24.25 -40.45 -25.4 -39.25 -25.9 -38.05 -26.4 -36.85 -25.9 -35.65 -25.45 -35.1 -24.3" fill="#707070" fill-rule="evenodd" stroke="none"/>
    <path d="M-35.1 -24.3 Q-35.65 -25.45 -36.85 -25.9 -38.05 -26.4 -39.25 -25.9 -40.45 -25.4 -41.0 -24.25 -51.8 1.3 -40.95 24.45 -40.35 25.65 -39.15 26.05 L-36.75 26.0 Q-35.5 25.45 -35.1 24.3 -34.75 23.6 -34.85 22.9 L-36.55 21.8 Q-48.05 0.75 -36.55 -21.85 L-34.85 -22.9 Q-34.8 -23.6 -35.1 -24.3 Z" fill="none" stroke="#000000" stroke-linecap="round" stroke-linejoin="round" stroke-width="3.0"/>
    <path d="M-35.65 24.1 L-36.1 23.75 Q-48.55 0.8 -36.1 -23.8 L-34.3 -24.95 -26.05 -29.7 Q-35.55 1.0 -26.45 29.5 L-34.3 24.95 -35.65 24.1" fill="#707070" fill-rule="evenodd" stroke="none"/>
    <path d="M-16.5 -32.7 Q-32.3 1.3 -16.5 32.7 L-15.9 33.0 Q-15.45 34.4 -16.0 35.85 -16.65 37.5 -18.35 38.3 L-21.7 38.4 Q-23.35 37.75 -24.2 36.05 -39.25 1.95 -24.25 -35.7 -23.5 -37.45 -21.85 -38.2 -20.15 -38.9 -18.5 -38.2 -16.8 -37.5 -16.05 -35.8 -15.5 -34.35 -15.85 -33.0 L-16.5 -32.7" fill="#707070" fill-rule="evenodd" stroke="none"/>
    <path d="M-26.05 -29.7 Q-35.55 1.0 -26.45 29.5 L-29.1 28.0 Q-37.3 0.85 -28.6 -28.3 L-26.05 -29.7" fill="#5f5d5d" fill-rule="evenodd" stroke="none"/>
    <path d="M-40.75 -11.6 L-40.4 -12.95 Q-35.1 -15.35 -29.2 -17.0 L-29.4 -15.8 Q-35.4 -14.15 -40.75 -11.6 M-34.7 -11.5 Q-34.7 -11.05 -35.05 -10.75 -35.3 -10.4 -35.8 -10.4 -36.2 -10.4 -36.55 -10.75 -36.85 -11.05 -36.85 -11.5 L-36.55 -12.25 Q-36.2 -12.6 -35.8 -12.6 -35.3 -12.6 -35.05 -12.25 -34.7 -11.95 -34.7 -11.5" fill="#3a3a3a" fill-rule="evenodd" stroke="none"/>
    <path d="M-31.45 -16.3 L-29.2 -17.0 -29.4 -15.8 -31.65 -15.15 -31.45 -16.3" fill="#000000" fill-rule="evenodd" stroke="none"/>
    <path d="M-18.0 -31.2 L-17.7 -30.05 Q-31.1 1.2 -17.65 30.25 L-18.0 31.25 Q-18.6 32.7 -20.3 33.35 L-23.65 33.5 Q-25.35 32.9 -26.15 31.45 L-26.0 31.65 Q-37.65 1.25 -25.65 -31.95 -24.95 -32.85 -23.8 -33.25 -22.15 -33.9 -20.45 -33.25 -18.75 -32.7 -18.0 -31.2" fill="#858585" fill-rule="evenodd" stroke="none"/>
    <path d="M5.95 36.2 L6.0 36.5 4.8 39.0 -1.2 37.1 -0.7 37.25 -1.55 33.1 5.95 36.2 M-14.5 31.95 L-15.55 26.55 -7.25 30.55 -5.9 35.4 -14.5 31.95" fill="#e2c229" fill-rule="evenodd" stroke="none"/>
    <path d="M-6.5 -32.7 Q-10.6 -31.2 -14.75 -29.3 L-14.4 -30.9 Q-10.2 -32.8 -6.1 -34.25 L-6.5 -32.7 M-2.1 34.25 L6.0 36.55 5.4 37.75 -1.0 36.0 -1.25 34.6 -2.1 34.25 M3.2 19.2 L-3.75 18.4 -3.85 17.1 3.1 17.9 3.2 19.2 M6.35 -36.6 Q1.4 -35.45 -3.7 -33.7 L-0.95 -34.65 -0.6 -36.1 6.65 -38.1 6.35 -36.6 M-16.9 -14.75 L-16.75 -16.15 -9.65 -17.5 -9.85 -16.15 -16.9 -14.75 M-17.7 -0.25 L-17.7 -0.8 -11.05 -0.8 -11.05 0.5 -17.7 0.5 -17.7 0.2 -17.7 -0.25 M-4.55 -0.8 L-3.0 -0.8 -2.85 0.5 -4.6 0.5 -4.55 -0.8 M-9.85 17.45 L-16.95 16.05 -17.05 14.7 -10.05 16.1 -9.85 17.45 M-14.75 30.75 L-15.05 29.25 Q-10.85 31.15 -6.7 32.7 L-6.25 34.2 Q-10.5 32.7 -14.75 30.75" fill="#998425" fill-rule="evenodd" stroke="none"/>
    <path d="M14.6 -35.35 Q3.45 -35.65 -16.0 -30.3 L-16.95 -30.05 Q-6.25 -35.05 4.4 -38.45 17.85 -42.7 25.5 -42.35 38.9 -42.0 48.0 -35.8 53.85 -31.85 57.65 -25.7 61.35 -19.8 63.6 -13.1 L65.0 -8.35 61.25 -14.2 Q55.7 -21.9 47.25 -26.9 34.0 -34.75 14.6 -35.35" fill="#ffffff" fill-opacity="0.4" fill-rule="evenodd" stroke="none"/>
    <path d="M55.3 -36.55 Q80.45 -21.95 99.6 -0.25 80.6 22.1 55.3 36.05 L53.75 34.8 Q67.15 1.5 53.75 -35.2 L55.3 -36.55" fill="#7b7b7b" fill-rule="evenodd" stroke="none"/>
    <path d="M80.15 -15.8 L89.0 -11.3 94.85 -5.4 84.0 -10.55 84.05 -7.45 79.1 -10.7 79.15 -9.6 79.25 -8.65 67.2 -12.0 76.55 -12.4 72.5 -18.65 81.0 -11.65 80.15 -15.8" fill="#2c2c2c" fill-rule="evenodd" stroke="none"/>
    <path d="M82.1 18.5 Q81.3 -4.2 70.7 -28.15 L73.75 -25.8 Q84.2 -5.45 86.8 14.0 L81.75 18.8 82.1 18.5 M55.3 -38.8 L57.2 -37.6 Q71.55 -6.75 68.6 21.9 L68.6 21.95 Q68.15 26.25 67.3 30.5 61.5 34.7 55.3 38.3 L53.75 36.95 Q67.15 1.6 53.75 -37.4 L55.3 -38.8 M64.4 -32.8 Q78.7 -4.5 78.1 21.9 L78.1 21.95 78.1 22.05 72.15 26.9 Q75.85 -2.3 63.15 -33.7 L64.4 -32.8 M99.6 -0.25 L96.95 3.05 Q94.9 -2.65 92.3 -8.45 L92.3 -8.5 99.6 -0.25 M80.35 -20.2 L84.8 -16.1 Q90.8 -4.8 94.2 6.15 L90.15 10.6 Q87.4 -4.55 80.35 -20.2" fill="#b1b1b1" fill-rule="evenodd" stroke="none"/>
    <path d="M82.55 11.2 L83.5 16.2 80.5 18.8 82.55 11.2 M74.5 19.75 L76.45 22.1 73.15 24.6 74.5 19.75" fill="#2c2c2c" fill-rule="evenodd" stroke="none"/>
    <path d="M62.15 -25.75 Q71.0 -1.1 68.6 22.05 62.85 25.15 56.75 27.9 64.3 0.8 56.45 -28.5 L62.15 -25.75 M83.35 -13.1 L83.3 -13.1 87.95 -9.75 Q91.45 -2.4 93.8 4.9 L89.75 8.2 Q87.55 -2.35 83.35 -13.1 M78.05 -16.6 Q84.05 -2.7 86.35 10.75 L81.85 13.95 Q80.55 -2.15 74.45 -18.9 L78.15 -16.55 78.05 -16.6 M66.95 -23.2 L69.4 -21.85 Q77.4 -2.25 78.1 16.45 L72.85 19.65 Q74.0 -1.25 66.95 -23.2 M99.6 -0.25 L96.7 2.4 93.7 -5.35 99.6 -0.25" fill="#d2d2d2" fill-rule="evenodd" stroke="none"/>
    <path d="M73.0 14.6 L77.9 13.35 77.95 13.6 73.0 15.1 73.0 14.6 M85.65 6.95 L86.5 6.7 81.3 8.3 81.15 7.45 85.5 6.3 85.65 6.95 M89.1 5.45 L93.6 4.3 93.65 4.5 89.2 5.85 89.1 5.45 M63.4 13.6 L59.5 14.7 59.65 13.25 63.15 12.25 69.1 10.65 69.1 11.95 63.4 13.6 M72.95 9.6 L77.45 8.4 77.55 9.4 73.0 10.8 72.95 9.6 M58.7 19.5 L58.95 18.3 69.0 15.65 69.0 16.35 58.7 19.5" fill="#858585" fill-rule="evenodd" stroke="none"/>
    <path d="M84.0 -11.55 L84.05 -11.25 82.3 -15.7 86.0 -13.8 88.05 -9.65 84.0 -11.55 M92.3 -8.45 L92.3 -8.5 93.8 -6.9 92.8 -7.4 92.3 -8.45" fill="#383838" fill-rule="evenodd" stroke="none"/>
    <path d="M67.85 -23.9 L69.1 -23.6 68.65 -23.7 68.9 -23.05 66.8 -23.6 66.65 -24.2 65.5 -24.5 67.85 -23.9 M76.1 -21.05 L73.35 -21.8 73.0 -22.7 75.55 -22.1 76.1 -21.05 M57.35 -26.3 L62.35 -25.25 62.4 -24.85 57.35 -26.3 M82.5 -15.15 L85.7 -14.4 85.9 -13.95 82.6 -14.9 82.5 -15.15 M80.35 -20.2 L80.9 -19.75 82.1 -19.4 79.7 -20.05 80.5 -19.85 80.35 -20.2" fill="#707070" fill-rule="evenodd" stroke="none"/>
    <path d="M50.2 37.55 Q68.9 1.85 50.2 -37.55 L49.7 -37.9 Q49.75 -38.7 50.1 -39.55 50.85 -41.45 52.75 -42.2 54.55 -43.0 56.35 -42.2 58.15 -41.4 58.95 -39.5 75.2 2.1 58.9 39.8 58.05 41.7 56.2 42.4 L52.6 42.25 Q50.75 41.4 50.05 39.55 L49.7 37.85 50.2 37.55" fill="#707070" fill-rule="evenodd" stroke="none"/>
    <path d="M54.2 37.65 Q52.1 37.0 51.25 35.45 67.85 1.7 51.25 -35.3 52.15 -37.0 54.35 -37.6 56.55 -38.3 58.75 -37.6 L60.35 -36.8 59.85 -37.15 Q74.2 1.7 60.0 37.25 L58.55 37.8 54.2 37.65" fill="#858585" fill-rule="evenodd" stroke="none"/>
    <path d="M-27.15 -27.7 Q-22.85 -30.5 -18.6 -27.9 L-19.05 -26.8 Q-23.15 -29.3 -27.25 -27.35 L-27.15 -27.7 M-28.0 -24.75 Q-23.85 -26.25 -19.7 -24.95 L-20.15 -23.7 Q-24.15 -25.65 -28.15 -24.25 L-28.0 -24.75" fill="#4d4d4d" fill-rule="evenodd" stroke="none"/>
    <path d="M55.0 -34.95 L56.45 -35.0 Q57.05 -34.85 57.15 -34.25 57.25 -33.85 56.75 -33.45 56.3 -32.85 55.5 -32.65 L54.05 -32.85 Q53.55 -33.0 53.4 -33.6 53.3 -34.0 53.75 -34.35 L55.0 -34.95 54.05 -34.45 Q53.7 -34.1 53.75 -33.8 53.85 -33.35 54.25 -33.25 L55.4 -33.2 Q56.05 -33.3 56.4 -33.8 56.85 -34.1 56.75 -34.4 56.7 -34.85 56.15 -34.95 L55.0 -34.95 M62.05 29.4 Q57.8 31.15 53.55 30.3 L53.95 29.4 62.15 29.15 62.05 29.4 M64.8 21.55 Q60.55 23.15 56.4 22.25 L56.7 21.3 Q60.8 22.35 64.85 21.25 L64.85 21.3 64.8 21.55 M65.3 19.25 L57.15 19.5 57.4 18.6 57.1 18.5 65.35 18.85 65.3 19.25" fill="#4d4d4d" fill-rule="evenodd" stroke="none"/>
    <path d="M-36.85 -25.9 Q-35.7 -25.45 -35.15 -24.4 L-36.1 -23.8 Q-48.55 0.8 -36.1 23.75 L-35.65 24.1 -35.15 24.45 Q-35.55 25.5 -36.75 26.0 L-39.15 26.05 Q-40.35 25.65 -40.95 24.45 -51.8 1.3 -41.0 -24.25 -40.45 -25.4 -39.25 -25.9 -38.05 -26.4 -36.85 -25.9" fill="#707070" fill-rule="evenodd" stroke="none"/>
    <path d="M-38.25 -22.6 L-37.05 -21.85 Q-47.6 0.75 -37.0 21.95 -37.45 22.4 -38.15 22.65 L-40.55 22.75 Q-41.65 22.4 -42.25 21.5 -50.65 0.85 -42.0 -21.7 -41.5 -22.3 -40.65 -22.6 -39.45 -23.0 -38.25 -22.6" fill="#858585" fill-rule="evenodd" stroke="none"/>
    <path d="M-41.15 17.55 Q-42.25 18.25 -43.3 18.65 L-43.55 18.0 Q-42.3 17.8 -41.05 17.2 L-41.15 17.55 M-40.3 14.6 Q-42.3 15.35 -44.35 15.4 L-44.55 14.65 Q-42.35 14.85 -40.15 14.1 L-40.3 14.6" fill="#4d4d4d" fill-rule="evenodd" stroke="none"/>
    <path d="M22.95 -1.35 Q23.25 -0.6 24.3 0.9 L25.65 3.15 Q24.95 2.8 23.8 1.35 22.65 -0.15 22.65 -0.75 22.65 -1.35 22.95 -1.35 M22.45 1.0 L24.9 5.3 24.75 5.45 Q22.9 3.95 21.5 1.7 20.65 0.3 20.3 -0.8 L21.0 -1.75 Q21.55 -0.55 22.45 1.0 M53.4 -14.25 L53.45 -13.85 Q53.45 -13.45 52.65 -12.8 52.25 -12.8 52.25 -13.2 L52.55 -13.7 53.4 -14.25 M55.25 -12.5 L55.05 -11.85 Q54.85 -11.55 54.65 -11.55 54.1 -11.55 54.0 -11.95 L54.0 -12.35 Q54.0 -13.1 54.65 -13.2 55.25 -13.35 55.25 -12.5 M56.85 0.0 L57.2 1.9 Q57.2 3.4 56.25 4.7 L56.1 4.65 56.1 3.65 56.5 1.75 56.85 0.0 M58.05 2.55 Q58.5 2.95 58.5 4.0 L58.45 4.6 57.9 5.25 57.45 4.55 58.05 2.55 M55.4 -1.2 Q55.8 -0.75 55.8 0.5 L55.45 2.75 Q54.95 4.55 54.45 4.95 L54.5 1.55 Q54.55 -0.55 55.4 -1.2 M31.65 29.6 L31.3 30.4 30.75 30.9 30.5 30.9 30.8 29.5 30.9 29.4 Q31.65 28.75 31.65 29.6 M27.6 27.75 L27.3 28.25 26.85 28.45 27.6 27.75" fill="#271c14" fill-rule="evenodd" stroke="none"/>
    <path d="M74.65 -18.05 L74.85 -17.55 79.05 -14.25 80.45 -10.85 79.1 -11.7 79.15 -10.6 79.25 -9.65 77.3 -10.15 77.4 -9.65 76.3 -13.4 76.45 -13.4 76.15 -13.85 74.65 -18.05 M87.95 -9.75 L88.0 -9.65 84.0 -11.55 84.05 -11.3 83.4 -13.05 87.95 -9.75 M72.6 -13.2 L73.2 -11.3 69.9 -12.15 69.7 -13.1 72.6 -13.2" fill="#4d4d4d" fill-rule="evenodd" stroke="none"/>
    <path d="M82.55 11.2 L83.65 17.05 82.1 18.5 81.85 13.8 82.55 11.2 M74.5 19.75 L77.1 22.9 77.6 22.5 72.6 26.55 74.5 19.75" fill="#383838" fill-rule="evenodd" stroke="none"/>
    <path d="M82.55 11.2 L82.95 13.2 81.85 13.95 81.85 13.85 82.55 11.2" fill="#4d4d4d" fill-rule="evenodd" stroke="none"/>
    <path d="M-18.75 0.35 L-47.9 2.9 Q-76.95 4.4 -76.95 -0.9 -76.95 -6.2 -47.8 -4.05 L-18.65 -0.9 -18.75 0.35" fill="#3494d4" fill-rule="evenodd" stroke="none"/>
    <path d="M-18.75 0.35 L-47.9 2.9 Q-76.95 4.4 -76.95 -0.9 -76.95 -6.2 -47.8 -4.05 L-18.65 -0.9 -18.75 0.35 Z" fill="none" stroke="#998425" stroke-linecap="round" stroke-linejoin="round" stroke-width="3.0"/>
    <path d="M-18.75 0.35 L-47.9 2.9 Q-76.95 4.4 -76.95 -0.9 -76.95 -6.2 -47.8 -4.05 L-18.65 -0.9 -18.75 0.35" fill="#ffdd3f" fill-rule="evenodd" stroke="none"/>
    <path d="M-34.35 16.85 L-30.3 18.8 -29.85 18.65 -29.15 21.75 -29.7 22.15 -34.55 19.4 -37.8 20.35 -38.85 17.85 -34.35 16.85" fill="#2c2c2c" fill-rule="evenodd" stroke="none"/>
    <path d="M-14.45 -19.45 Q-11.2 -19.65 -8.0 -18.4 L-5.4 -17.05 -2.05 4.5 6.05 -1.65 11.45 11.15 Q1.7 11.05 -6.8 17.1 L-4.05 9.45 Q-12.1 10.25 -16.25 16.85 -17.65 12.9 -15.45 8.95 -18.0 6.8 -24.9 6.9 L-31.3 7.45 -28.0 1.5 -37.3 -2.0 -24.8 -11.3 -26.2 -16.6 Q-19.5 -19.15 -14.45 -19.45" fill="#000000" fill-opacity="0.4" fill-rule="evenodd" stroke="none"/>
    <path d="M-14.45 -22.1 Q-11.2 -21.95 -8.0 -20.35 L-5.4 -18.75 -2.05 3.15 6.05 -2.2 11.45 11.15 Q1.7 10.05 -6.8 15.25 L-4.05 7.9 Q-12.1 7.85 -16.25 14.05 -17.65 9.95 -15.45 6.2 -18.0 3.8 -24.9 3.2 -28.35 2.9 -31.3 3.1 L-28.0 -2.5 -37.3 -7.0 -24.8 -15.0 -26.2 -20.45 Q-19.5 -22.3 -14.45 -22.1" fill="#8a5d3c" fill-rule="evenodd" stroke="none"/>
    <path d="M-30.15 17.35 L-22.9 14.5 -22.75 15.2 -29.45 20.55 -30.15 17.35" fill="#4d4d4d" fill-rule="evenodd" stroke="none"/>
    <path d="M-41.25 19.95 L-44.25 15.75 -44.85 13.45 -39.5 16.15 -38.35 19.1 -41.25 19.95" fill="#4d4d4d" fill-rule="evenodd" stroke="none"/>
    <path d="M-5.4 -18.75 L-2.05 3.15 2.9 -0.1 3.75 11.3 Q0.25 11.85 -3.05 13.3 -3.05 -3.5 -7.8 -20.25 L-5.4 -18.75" fill="#ffe570" fill-rule="evenodd" stroke="none"/>
    <path d="M44.8 -36.85 Q42.1 -39.65 38.25 -39.55 34.3 -39.7 31.6 -36.9 L31.35 -36.65 44.55 -22.9 44.8 -23.15 Q47.5 -25.95 47.5 -29.9 47.5 -34.1 44.8 -36.85" fill="#8736e6" fill-rule="evenodd" stroke="none"/>
    <path d="M43.1 -24.3 Q43.7 -25.8 43.7 -27.4 43.7 -30.55 41.5 -32.8 39.25 -35.2 36.05 -35.2 34.5 -35.2 33.2 -34.6 L43.1 -24.3" fill="#ffffff" fill-rule="evenodd" stroke="none"/>
    <path d="M44.8 23.15 Q47.45 25.95 47.45 29.9 47.45 34.05 44.8 36.85 42.1 39.7 38.15 39.55 34.3 39.65 31.6 36.85 L31.35 36.55 44.5 22.85 44.8 23.15" fill="#8736e6" fill-rule="evenodd" stroke="none"/>
    <path d="M43.1 24.25 Q43.7 25.75 43.7 27.35 43.7 30.5 41.5 32.75 39.25 35.15 36.05 35.15 34.5 35.15 33.2 34.55 L43.1 24.25" fill="#ffffff" fill-rule="evenodd" stroke="none"/>
  </g>
</svg>
