<?xml version="1.0" encoding="UTF-8" standalone="no"?>
<svg xmlns:xlink="http://www.w3.org/1999/xlink" height="34.55px" width="25.3px" xmlns="http://www.w3.org/2000/svg">
  <g transform="matrix(1.0, 0.0, 0.0, 1.0, -0.8, 22.85)">
    <path d="M17.7 -17.4 Q17.7 -17.1 15.2 -16.9 L9.25 -16.7 3.25 -16.9 Q0.8 -17.1 0.8 -17.4 L3.25 -17.85 9.25 -18.05 15.2 -17.85 17.7 -17.4" fill="#ffffff" fill-rule="evenodd" stroke="none"/>
    <path d="M22.75 -22.7 L24.0 -22.3 Q24.0 -22.05 22.75 -21.9 L19.85 -21.7 16.9 -21.9 Q15.7 -22.05 15.7 -22.3 15.7 -22.5 16.9 -22.7 L19.85 -22.85 22.75 -22.7" fill="#ffffff" fill-rule="evenodd" stroke="none"/>
    <path d="M16.2 11.1 Q16.2 11.35 14.7 11.5 L11.1 11.7 7.45 11.5 6.0 11.1 7.45 10.7 11.1 10.5 14.7 10.7 Q16.2 10.9 16.2 11.1" fill="#ffffff" fill-rule="evenodd" stroke="none"/>
    <path d="M20.65 2.15 Q22.35 2.5 22.35 2.95 22.35 3.4 20.65 3.7 L16.5 4.05 12.35 3.7 Q10.65 3.4 10.65 2.95 10.65 2.5 12.35 2.15 L16.5 1.85 20.65 2.15" fill="#ffffff" fill-rule="evenodd" stroke="none"/>
    <path d="M25.3 8.15 Q26.1 8.35 26.1 8.65 26.1 8.95 25.3 9.15 L23.45 9.35 21.65 9.15 Q20.9 8.95 20.9 8.65 20.9 8.35 21.65 8.15 L23.5 8.0 25.3 8.15" fill="#ffffff" fill-rule="evenodd" stroke="none"/>
  </g>
</svg>
