<?xml version="1.0" encoding="UTF-8" standalone="no"?>
<svg xmlns:xlink="http://www.w3.org/1999/xlink" height="62.25px" width="148.45px" xmlns="http://www.w3.org/2000/svg">
  <g transform="matrix(1.0, 0.0, 0.0, 1.0, 78.65, 31.2)">
    <path d="M68.2 -9.05 Q24.15 -18.85 -21.25 -10.9 L-20.5 -12.05 Q24.3 -19.7 67.8 -10.2 L68.2 -9.05 M56.65 -0.6 L69.8 -0.6 69.8 -0.1 69.8 -0.05 69.8 0.05 69.8 0.4 56.45 0.4 56.65 -0.6 M50.75 0.4 L-59.0 0.4 -59.05 0.05 -59.05 -0.05 -59.0 -0.6 52.25 -0.6 50.75 0.4 M57.1 -25.55 Q7.15 -41.3 -58.15 -3.1 L-56.75 -5.1 Q6.0 -41.25 54.65 -27.35 L57.1 -25.55 M-58.35 -2.65 Q-40.35 -8.55 -22.5 -11.7 L-22.45 -10.7 Q-40.55 -7.45 -58.8 -1.4 L-58.35 -2.65 M68.05 9.5 L67.8 10.1 Q29.2 18.6 -10.5 13.5 L-10.7 12.5 Q29.3 17.7 68.2 9.0 L68.1 9.35 68.05 9.5 M-26.0 11.0 Q-42.15 7.85 -58.4 2.55 L-58.85 1.35 -59.25 1.2 Q-42.55 6.75 -26.0 10.0 L-26.0 11.0 M-58.05 3.25 Q-17.15 27.05 17.75 29.8 L17.8 30.85 15.25 30.65 Q14.9 29.8 13.95 29.95 13.55 30.0 13.1 30.4 -19.3 26.65 -56.7 5.2 L-58.05 3.25 M54.55 27.4 Q43.75 30.45 32.3 31.05 32.65 30.5 34.35 30.35 L36.8 30.35 36.45 29.7 Q47.05 28.7 57.05 25.55 L54.55 27.4" fill="#620505" fill-rule="evenodd" stroke="none"/>
    <path d="M56.45 0.4 L50.75 0.4 52.25 -0.6 56.65 -0.6 56.45 0.4 M68.1 9.35 L68.05 9.5 68.1 9.35" fill="#620505" fill-rule="evenodd" stroke="none"/>
    <path d="M-32.25 0.1 L-54.75 2.15 Q-77.15 3.35 -77.15 -0.85 -77.15 -5.0 -54.65 -3.3 L-32.15 -0.85 -32.25 0.1" fill="#3494d4" fill-rule="evenodd" stroke="none"/>
    <path d="M-32.25 0.1 L-54.75 2.15 Q-77.15 3.35 -77.15 -0.85 -77.15 -5.0 -54.65 -3.3 L-32.15 -0.85 -32.25 0.1 Z" fill="none" stroke="#620505" stroke-linecap="round" stroke-linejoin="round" stroke-width="3.0"/>
    <path d="M-32.25 0.1 L-54.75 2.15 Q-77.15 3.35 -77.15 -0.85 -77.15 -5.0 -54.65 -3.3 L-32.15 -0.85 -32.25 0.1" fill="#cc0000" fill-rule="evenodd" stroke="none"/>
    <path d="M-15.05 5.9 Q-13.9 8.25 -11.8 9.1 L-26.9 9.1 Q-30.75 7.8 -30.05 4.2 L-27.95 4.35 -28.0 2.9 -26.5 4.75 -24.25 4.2 -26.3 2.35 -22.05 2.8 -20.25 4.9 -18.3 3.6 -19.95 2.5 -16.95 2.7 -15.75 3.7 -15.05 5.9" fill="#ff5b5b" fill-rule="evenodd" stroke="none"/>
    <path d="M-15.05 5.9 L-15.75 3.7 -16.95 2.7 -19.95 2.5 -18.3 3.6 -20.25 4.9 -22.05 2.8 -26.3 2.35 -24.25 4.2 -26.5 4.75 -28.0 2.9 -27.95 4.35 -30.05 4.2 Q-30.75 7.8 -26.9 9.1 L-11.8 9.1 Q-13.9 8.25 -15.05 5.9 Z" fill="none" stroke="#620505" stroke-linecap="round" stroke-linejoin="round" stroke-width="2.0"/>
    <path d="M-27.95 4.35 L-28.0 2.9 -26.5 4.75 -24.25 4.2 -26.3 2.35 -22.05 2.8 -20.25 4.9 -18.3 3.6 -19.95 2.5 -16.95 2.7 -15.75 3.7 -15.05 5.9 Q-13.9 8.25 -11.8 9.1 L-26.9 9.1 Q-30.75 7.8 -30.05 4.2 L-27.95 4.35 M-31.45 2.05 L-31.3 2.05 -31.4 2.2 -31.45 2.05" fill="#ff5b5b" fill-rule="evenodd" stroke="none"/>
    <path d="M-18.3 3.6 L-19.95 2.5 -16.95 2.7 -15.75 3.7 -15.2 5.5 -15.05 9.1 -21.1 9.1 -21.3 3.65 -20.25 4.9 -18.3 3.6 M-31.45 2.05 L-31.3 2.05 -31.4 2.2 -31.45 2.05 M-26.3 2.35 L-26.2 2.35 -26.2 2.45 -26.3 2.35 M-26.5 4.75 L-26.15 4.7 -25.9 9.1 -26.9 9.1 Q-30.75 7.8 -30.05 4.2 L-27.95 4.35 -28.0 2.9 -26.5 4.75" fill="#9a2121" fill-rule="evenodd" stroke="none"/>
    <path d="M53.3 5.35 L46.75 4.25 Q51.55 5.4 48.45 10.05 53.55 8.3 53.3 5.35" fill="#ffffff" fill-rule="evenodd" stroke="none"/>
    <path d="M53.3 5.35 Q53.55 8.3 48.45 10.05 51.55 5.4 46.75 4.25 L53.3 5.35 Z" fill="none" stroke="#620505" stroke-linecap="round" stroke-linejoin="round" stroke-width="2.0"/>
    <path d="M53.3 5.35 L46.75 4.25 Q51.55 5.4 48.45 10.05 53.55 8.3 53.3 5.35" fill="#ff5b5b" fill-rule="evenodd" stroke="none"/>
    <path d="M-18.4 -20.0 L-13.55 -20.0 Q-14.7 -21.8 -14.65 -23.25 -14.75 -24.9 -13.35 -26.7 -16.0 -26.95 -17.45 -24.4 -18.6 -22.4 -18.4 -20.0" fill="#ff5b5b" fill-rule="evenodd" stroke="none"/>
    <path d="M-18.4 -20.0 Q-18.6 -22.4 -17.45 -24.4 -16.0 -26.95 -13.35 -26.7 -14.75 -24.9 -14.65 -23.25 -14.7 -21.8 -13.55 -20.0 L-18.4 -20.0 Z" fill="none" stroke="#620505" stroke-linecap="round" stroke-linejoin="round" stroke-width="2.0"/>
    <path d="M-13.55 -20.0 Q-14.7 -21.8 -14.65 -23.25 -14.75 -24.9 -13.35 -26.7 -16.0 -26.95 -17.45 -24.4 -18.6 -22.4 -18.4 -20.0 L-13.55 -20.0" fill="#ff5b5b" fill-rule="evenodd" stroke="none"/>
    <path d="M-13.55 -20.0 L-17.65 -20.0 -16.65 -25.45 Q-15.35 -26.9 -13.35 -26.7 -14.75 -24.9 -14.7 -23.25 -14.65 -21.8 -13.55 -20.0" fill="#9a2121" fill-rule="evenodd" stroke="none"/>
    <path d="M-14.25 7.2 Q-13.25 8.5 -11.8 9.1 L-26.9 9.1 Q-28.85 8.45 -29.6 7.2 L-14.25 7.2" fill="#9a2121" fill-rule="evenodd" stroke="none"/>
    <path d="M-29.6 7.2 L-26.0 7.2 -25.9 9.1 -26.9 9.1 Q-28.85 8.45 -29.6 7.2 M-15.05 9.1 L-21.1 9.1 -21.2 7.2 -15.15 7.2 -15.05 9.1" fill="#7e1111" fill-rule="evenodd" stroke="none"/>
  </g>
</svg>
