<?xml version="1.0" encoding="UTF-8" standalone="no"?>
<svg xmlns:xlink="http://www.w3.org/1999/xlink" height="73.4px" width="140.1px" xmlns="http://www.w3.org/2000/svg">
  <g transform="matrix(1.0, 0.0, 0.0, 1.0, 68.3, 36.95)">
    <path d="M-66.7 -27.1 L-62.95 -26.95 Q-59.6 -25.95 -55.05 -23.75 -43.65 -18.2 -37.0 -11.2 L-57.4 -3.9 -59.55 -8.4 -56.55 -9.95 -58.3 -10.7 Q-60.1 -11.7 -60.1 -13.25 -60.1 -14.75 -58.35 -16.55 L-56.65 -17.95 -63.2 -18.65 -62.55 -20.4 Q-62.05 -22.5 -62.7 -23.95 -63.25 -25.1 -66.4 -24.65 -66.95 -26.6 -66.7 -27.1" fill="#cc0000" fill-rule="evenodd" stroke="none"/>
    <path d="M-66.7 -27.1 Q-66.95 -26.6 -66.4 -24.65 -63.25 -25.1 -62.7 -23.95 -62.05 -22.5 -62.55 -20.4 L-63.2 -18.65 -56.65 -17.95 -58.35 -16.55 Q-60.1 -14.75 -60.1 -13.25 -60.1 -11.7 -58.3 -10.7 L-56.55 -9.95 -59.55 -8.4 -57.4 -3.9 -37.0 -11.2 Q-43.65 -18.2 -55.05 -23.75 -59.6 -25.95 -62.95 -26.95 L-66.7 -27.1 Z" fill="none" stroke="#620505" stroke-linecap="round" stroke-linejoin="round" stroke-width="3.0"/>
    <path d="M-66.7 -27.1 L-62.95 -26.95 Q-59.6 -25.95 -55.05 -23.75 -43.65 -18.2 -37.0 -11.2 L-57.4 -3.9 -59.55 -8.4 -56.55 -9.95 -58.3 -10.7 Q-60.1 -11.7 -60.1 -13.25 -60.1 -14.75 -58.35 -16.55 L-56.65 -17.95 -63.2 -18.65 -62.55 -20.4 Q-62.05 -22.5 -62.7 -23.95 -63.25 -25.1 -66.4 -24.65 -66.95 -26.6 -66.7 -27.1" fill="#cc0000" fill-rule="evenodd" stroke="none"/>
    <path d="M-62.5 14.65 L-57.4 3.85 -37.0 11.15 Q-43.65 18.15 -55.05 23.7 -59.4 25.8 -62.65 26.85 L-63.45 23.6 -59.5 23.6 -63.3 16.5 -62.5 14.65" fill="#ffffff" fill-rule="evenodd" stroke="none"/>
    <path d="M-62.5 14.65 L-57.4 3.85 -37.0 11.15 Q-43.65 18.15 -55.05 23.7 -59.4 25.8 -62.65 26.85 L-63.45 23.6 -59.5 23.6 -63.3 16.5 -62.5 14.65 Z" fill="none" stroke="#620505" stroke-linecap="round" stroke-linejoin="round" stroke-width="3.0"/>
    <path d="M-62.5 14.65 L-57.4 3.85 -37.0 11.15 Q-43.65 18.15 -55.05 23.7 -59.4 25.8 -62.65 26.85 L-63.45 23.6 -59.5 23.6 -63.3 16.5 -62.5 14.65" fill="#cc0000" fill-rule="evenodd" stroke="none"/>
    <path d="M19.9 -34.6 L27.0 -34.95 Q41.0 -34.65 50.55 -29.85 56.65 -26.8 60.65 -22.05 64.5 -17.5 66.9 -12.3 69.7 -6.1 69.8 -0.05 L69.8 0.05 Q69.7 6.0 66.9 12.3 64.5 17.5 60.65 22.05 56.65 26.75 50.55 29.8 43.6 33.3 34.3 34.45 32.45 32.5 32.2 31.65 31.9 30.55 34.35 30.35 L36.8 30.35 Q35.6 28.1 34.25 26.45 31.65 23.15 31.25 26.3 30.85 29.45 29.6 29.8 L28.4 29.55 26.7 23.4 25.05 26.4 Q23.1 29.45 21.7 29.85 20.3 30.25 18.65 28.65 L17.25 26.95 17.75 29.65 Q18.0 32.25 16.7 31.95 15.65 31.7 15.25 30.65 14.9 29.8 13.95 29.95 12.8 30.15 11.3 32.7 L11.05 33.2 4.9 31.85 Q-9.1 28.6 -23.3 23.3 -58.55 10.05 -59.05 0.05 L-59.05 -0.05 Q-58.55 -10.15 -23.3 -23.3 L-17.6 -25.35 Q-18.85 -22.65 -19.05 -19.3 -23.7 -14.85 -22.15 -9.4 -19.55 -14.5 -15.15 -17.8 L-14.9 -14.75 Q-13.5 -17.9 -11.95 -18.3 -10.4 -18.7 -14.55 -12.6 L-12.45 -12.95 Q-10.3 -13.6 -10.35 -15.25 -10.4 -17.85 -8.65 -13.35 L-8.2 -15.25 Q-7.9 -17.3 -8.45 -18.05 -9.35 -19.25 -3.0 -19.15 L-4.3 -19.7 Q-5.4 -20.5 -4.35 -21.65 -3.3 -22.8 -0.9 -22.1 L1.35 -21.2 0.45 -22.85 Q0.0 -24.35 2.2 -23.7 3.9 -23.2 4.5 -24.45 5.05 -25.55 7.05 -24.6 9.5 -23.45 15.6 -29.8 L19.9 -34.6 M54.25 4.95 Q57.15 0.65 56.85 -3.65 L47.7 2.45 47.65 -1.0 Q46.15 2.4 44.65 2.9 43.7 3.2 43.7 1.85 L43.85 0.45 42.8 3.7 Q41.65 6.65 41.1 5.1 40.55 3.55 39.3 4.85 L38.15 6.5 38.9 6.45 Q39.45 6.5 39.8 7.15 40.25 8.05 40.15 9.65 40.05 11.5 38.6 13.65 37.05 15.95 33.65 19.05 L43.4 20.7 Q53.35 15.0 58.75 4.9 58.45 4.65 57.85 4.55 56.7 4.45 55.5 5.55 54.3 6.65 54.2 5.05 L54.2 4.95 54.25 4.95 M-27.4 -1.8 Q-28.7 3.5 -27.1 9.9 -26.1 14.15 -24.2 17.75 L-23.9 17.2 -23.05 18.75 -20.1 19.1 -21.35 17.35 -18.8 15.35 -17.85 18.7 -13.7 19.4 -15.05 16.6 -12.55 15.75 -11.75 18.7 -11.2 16.4 -9.1 16.65 -11.7 10.05 Q-13.35 4.25 -12.0 -1.45 L-27.4 -1.8 M-8.75 19.95 L-8.6 19.95 -8.6 19.8 -8.75 19.95" fill="#cc0000" fill-rule="evenodd" stroke="none"/>
    <path d="M19.9 -34.6 L27.0 -34.95 Q41.0 -34.65 50.55 -29.85 56.65 -26.8 60.65 -22.05 64.5 -17.5 66.9 -12.3 69.7 -6.1 69.8 -0.05 L69.8 0.05 Q69.7 6.0 66.9 12.3 64.5 17.5 60.65 22.05 56.65 26.75 50.55 29.8 43.6 33.3 34.3 34.45 32.45 32.5 32.2 31.65 31.9 30.55 34.35 30.35 L36.8 30.35 Q35.6 28.1 34.25 26.45 31.65 23.15 31.25 26.3 30.85 29.45 29.6 29.8 L28.4 29.55 26.7 23.4 25.05 26.4 Q23.1 29.45 21.7 29.85 20.3 30.25 18.65 28.65 L17.25 26.95 17.75 29.65 Q18.0 32.25 16.7 31.95 15.65 31.7 15.25 30.65 14.9 29.8 13.95 29.95 12.8 30.15 11.3 32.7 L11.05 33.2 4.9 31.85 Q-9.1 28.6 -23.3 23.3 -58.55 10.05 -59.05 0.05 L-59.05 -0.05 Q-58.55 -10.15 -23.3 -23.3 L-17.6 -25.35 Q-18.85 -22.65 -19.05 -19.3 -23.7 -14.85 -22.15 -9.4 -19.55 -14.5 -15.15 -17.8 L-14.9 -14.75 Q-13.5 -17.9 -11.95 -18.3 -10.4 -18.7 -14.55 -12.6 L-12.45 -12.95 Q-10.3 -13.6 -10.35 -15.25 -10.4 -17.85 -8.65 -13.35 L-8.2 -15.25 Q-7.9 -17.3 -8.45 -18.05 -9.35 -19.25 -3.0 -19.15 L-4.3 -19.7 Q-5.4 -20.5 -4.35 -21.65 -3.3 -22.8 -0.9 -22.1 L1.35 -21.2 0.45 -22.85 Q0.0 -24.35 2.2 -23.7 3.9 -23.2 4.5 -24.45 5.05 -25.55 7.05 -24.6 9.5 -23.45 15.6 -29.8 L19.9 -34.6 M54.25 4.95 Q57.15 0.65 56.85 -3.65 L47.7 2.45 47.65 -1.0 Q46.15 2.4 44.65 2.9 43.7 3.2 43.7 1.85 L43.85 0.45 42.8 3.7 Q41.65 6.65 41.1 5.1 40.55 3.55 39.3 4.85 L38.15 6.5 38.9 6.45 Q39.45 6.5 39.8 7.15 40.25 8.05 40.15 9.65 40.05 11.5 38.6 13.65 37.05 15.95 33.65 19.05 L43.4 20.7 Q53.35 15.0 58.75 4.9 58.45 4.65 57.85 4.55 56.7 4.45 55.5 5.55 54.3 6.65 54.2 5.05 L54.2 4.95 54.25 4.95 M-27.4 -1.8 Q-28.7 3.5 -27.1 9.9 -26.1 14.15 -24.2 17.75 L-23.9 17.2 -23.05 18.75 -20.1 19.1 -21.35 17.35 -18.8 15.35 -17.85 18.7 -13.7 19.4 -15.05 16.6 -12.55 15.75 -11.75 18.7 -11.2 16.4 -9.1 16.65 -11.7 10.05 Q-13.35 4.25 -12.0 -1.45 L-27.4 -1.8 M-8.75 19.95 L-8.6 19.95 -8.6 19.8 -8.75 19.95" fill="none" stroke="#620505" stroke-linecap="round" stroke-linejoin="round" stroke-width="2.0"/>
    <path d="M19.9 -34.6 L27.0 -34.95 Q41.0 -34.65 50.55 -29.85 56.65 -26.8 60.65 -22.05 64.5 -17.5 66.9 -12.3 69.7 -6.1 69.8 -0.05 L69.8 0.05 Q69.7 6.0 66.9 12.3 64.5 17.5 60.65 22.05 56.65 26.75 50.55 29.8 43.6 33.3 34.3 34.45 32.45 32.5 32.2 31.65 31.9 30.55 34.35 30.35 L36.8 30.35 Q35.6 28.1 34.25 26.45 31.65 23.15 31.25 26.3 30.85 29.45 29.6 29.8 L28.4 29.55 26.7 23.4 25.05 26.4 Q23.1 29.45 21.7 29.85 20.3 30.25 18.65 28.65 L17.25 26.95 17.75 29.65 Q18.0 32.25 16.7 31.95 15.65 31.7 15.25 30.65 14.9 29.8 13.95 29.95 12.8 30.15 11.3 32.7 L11.05 33.2 4.9 31.85 Q-9.1 28.6 -23.3 23.3 -58.55 10.05 -59.05 0.05 L-59.05 -0.05 Q-58.55 -10.15 -23.3 -23.3 L-17.6 -25.35 Q-18.85 -22.65 -19.05 -19.3 -23.7 -14.85 -22.15 -9.4 -19.55 -14.5 -15.15 -17.8 L-14.9 -14.75 Q-13.5 -17.9 -11.95 -18.3 -10.4 -18.7 -14.55 -12.6 L-12.45 -12.95 Q-10.3 -13.6 -10.35 -15.25 -10.4 -17.85 -8.65 -13.35 L-8.2 -15.25 Q-7.9 -17.3 -8.45 -18.05 -9.35 -19.25 -3.0 -19.15 L-4.3 -19.7 Q-5.4 -20.5 -4.35 -21.65 -3.3 -22.8 -0.9 -22.1 L1.35 -21.2 0.45 -22.85 Q0.0 -24.35 2.2 -23.7 3.9 -23.2 4.5 -24.45 5.05 -25.55 7.05 -24.6 9.5 -23.45 15.6 -29.8 L19.9 -34.6 M54.25 4.95 Q57.15 0.65 56.85 -3.65 L47.7 2.45 47.65 -1.0 Q46.15 2.4 44.65 2.9 43.7 3.2 43.7 1.85 L43.85 0.45 42.8 3.7 Q41.65 6.65 41.1 5.1 40.55 3.55 39.3 4.85 L38.15 6.5 38.9 6.45 Q39.45 6.5 39.8 7.15 40.25 8.05 40.15 9.65 40.05 11.5 38.6 13.65 37.05 15.95 33.65 19.05 L43.4 20.7 Q53.35 15.0 58.75 4.9 58.45 4.65 57.85 4.55 56.7 4.45 55.5 5.55 54.3 6.65 54.2 5.05 L54.2 4.95 54.25 4.95 M-27.4 -1.8 Q-28.7 3.5 -27.1 9.9 -26.1 14.15 -24.2 17.75 L-23.9 17.2 -23.05 18.75 -20.1 19.1 -21.35 17.35 -18.8 15.35 -17.85 18.7 -13.7 19.4 -15.05 16.6 -12.55 15.75 -11.75 18.7 -11.2 16.4 -9.1 16.65 -11.7 10.05 Q-13.35 4.25 -12.0 -1.45 L-27.4 -1.8 M-8.75 19.95 L-8.6 19.95 -8.6 19.8 -8.75 19.95" fill="#cc0000" fill-rule="evenodd" stroke="none"/>
    <path d="M19.9 -34.6 L27.0 -34.95 Q41.0 -34.65 50.55 -29.85 56.65 -26.8 60.65 -22.05 64.5 -17.5 66.9 -12.3 69.7 -6.1 69.8 -0.05 L69.8 0.05 Q69.7 6.0 66.9 12.3 64.5 17.5 60.65 22.05 56.65 26.75 50.55 29.8 43.6 33.3 34.3 34.45 32.45 32.5 32.2 31.65 31.9 30.55 34.35 30.35 L36.8 30.35 Q35.6 28.1 34.25 26.45 31.65 23.15 31.25 26.3 30.85 29.45 29.6 29.8 L28.4 29.55 26.7 23.4 25.05 26.4 Q23.1 29.45 21.7 29.85 20.3 30.25 18.65 28.65 L17.25 26.95 17.75 29.65 Q18.0 32.25 16.7 31.95 15.65 31.7 15.25 30.65 14.9 29.8 13.95 29.95 12.8 30.15 11.3 32.7 L11.05 33.2 4.9 31.85 Q-9.1 28.6 -23.3 23.3 -58.55 10.05 -59.05 0.05 L-59.05 -0.05 Q-58.55 -10.15 -23.3 -23.3 L-17.6 -25.35 Q-18.85 -22.65 -19.05 -19.3 -23.7 -14.85 -22.15 -9.4 -19.55 -14.5 -15.15 -17.8 L-14.9 -14.75 Q-13.5 -17.9 -11.95 -18.3 -10.4 -18.7 -14.55 -12.6 L-12.45 -12.95 Q-10.3 -13.6 -10.35 -15.25 -10.4 -17.85 -8.65 -13.35 L-8.2 -15.25 Q-7.9 -17.3 -8.45 -18.05 -9.35 -19.25 -3.0 -19.15 L-4.3 -19.7 Q-5.4 -20.5 -4.35 -21.65 -3.3 -22.8 -0.9 -22.1 L1.35 -21.2 0.45 -22.85 Q0.0 -24.35 2.2 -23.7 3.9 -23.2 4.5 -24.45 5.05 -25.55 7.05 -24.6 9.5 -23.45 15.6 -29.8 L19.9 -34.6 Z" fill="none" stroke="#620505" stroke-linecap="round" stroke-linejoin="round" stroke-width="4.0"/>
    <path d="M19.9 -34.6 L27.0 -34.95 Q41.0 -34.65 50.55 -29.85 56.65 -26.8 60.65 -22.05 64.5 -17.5 66.9 -12.3 69.7 -6.1 69.8 -0.05 L69.8 0.05 Q69.7 6.0 66.9 12.3 64.5 17.5 60.65 22.05 56.65 26.75 50.55 29.8 43.6 33.3 34.3 34.45 32.45 32.5 32.2 31.65 31.9 30.55 34.35 30.35 L36.8 30.35 Q35.6 28.1 34.25 26.45 31.65 23.15 31.25 26.3 30.85 29.45 29.6 29.8 L28.4 29.55 26.7 23.4 25.05 26.4 Q23.1 29.45 21.7 29.85 20.3 30.25 18.65 28.65 L17.25 26.95 17.75 29.65 Q18.0 32.25 16.7 31.95 15.65 31.7 15.25 30.65 14.9 29.8 13.95 29.95 12.8 30.15 11.3 32.7 L11.05 33.2 4.9 31.85 Q-9.1 28.6 -23.3 23.3 -58.55 10.05 -59.05 0.05 L-59.05 -0.05 Q-58.55 -10.15 -23.3 -23.3 L-17.6 -25.35 Q-18.85 -22.65 -19.05 -19.3 -23.7 -14.85 -22.15 -9.4 -19.55 -14.5 -15.15 -17.8 L-14.9 -14.75 Q-13.5 -17.9 -11.95 -18.3 -10.4 -18.7 -14.55 -12.6 L-12.45 -12.95 Q-10.3 -13.6 -10.35 -15.25 -10.4 -17.85 -8.65 -13.35 L-8.2 -15.25 Q-7.9 -17.3 -8.45 -18.05 -9.35 -19.25 -3.0 -19.15 L-4.3 -19.7 Q-5.4 -20.5 -4.35 -21.65 -3.3 -22.8 -0.9 -22.1 L1.35 -21.2 0.45 -22.85 Q0.0 -24.35 2.2 -23.7 3.9 -23.2 4.5 -24.45 5.05 -25.55 7.05 -24.6 9.5 -23.45 15.6 -29.8 L19.9 -34.6 M54.25 4.95 Q57.15 0.65 56.85 -3.65 L47.7 2.45 47.65 -1.0 Q46.15 2.4 44.65 2.9 43.7 3.2 43.7 1.85 L43.85 0.45 42.8 3.7 Q41.65 6.65 41.1 5.1 40.55 3.55 39.3 4.85 L38.15 6.5 38.9 6.45 Q39.45 6.5 39.8 7.15 40.25 8.05 40.15 9.65 40.05 11.5 38.6 13.65 37.05 15.95 33.65 19.05 L43.4 20.7 Q53.35 15.0 58.75 4.9 58.45 4.65 57.85 4.55 56.7 4.45 55.5 5.55 54.3 6.65 54.2 5.05 L54.2 4.95 54.25 4.95 M-27.4 -1.8 Q-28.7 3.5 -27.1 9.9 -26.1 14.15 -24.2 17.75 L-23.9 17.2 -23.05 18.75 -20.1 19.1 -21.35 17.35 -18.8 15.35 -17.85 18.7 -13.7 19.4 -15.05 16.6 -12.55 15.75 -11.75 18.7 -11.2 16.4 -9.1 16.65 -11.7 10.05 Q-13.35 4.25 -12.0 -1.45 L-27.4 -1.8 M-8.75 19.95 L-8.6 19.95 -8.6 19.8 -8.75 19.95" fill="#cc0000" fill-rule="evenodd" stroke="none"/>
    <path d="M-56.1 -0.35 Q-55.8 -6.75 -41.4 -14.4 -49.4 -8.6 -49.65 -3.45 L-49.65 -3.3 Q-49.2 5.8 -24.55 17.1 L-24.2 17.75 -23.95 17.35 -23.75 17.45 -23.05 18.75 -20.1 19.1 -20.15 19.0 Q-14.45 21.45 -7.65 24.0 2.6 27.85 12.75 30.75 12.15 31.35 11.5 32.4 L7.85 31.55 Q-6.15 28.3 -20.35 23.0 -55.6 9.75 -56.1 -0.25 L-56.1 -0.35 M16.05 31.65 L16.0 31.65 15.6 31.55 16.05 31.65 17.15 31.95 16.7 31.95 16.05 31.65" fill="#830000" fill-rule="evenodd" stroke="none"/>
    <path d="M-27.4 -1.8 Q-28.7 3.5 -27.1 9.9 -26.1 14.15 -24.2 17.75 L-23.9 17.2 -23.05 18.75 -21.9 18.9 -20.65 24.3 -23.3 23.3 -27.45 21.7 Q-32.7 -1.65 -25.6 -22.4 L-23.3 -23.3 -18.15 -25.15 Q-19.8 -21.15 -20.95 -17.0 -22.95 -14.1 -22.45 -10.7 -23.25 -6.25 -23.5 -1.7 L-27.4 -1.8 M-14.55 -12.6 L-12.45 -12.95 -11.6 -13.3 Q-12.45 -7.5 -12.65 -1.45 L-18.7 -1.6 Q-18.45 -8.95 -17.25 -16.0 L-15.15 -17.8 -14.9 -14.75 Q-13.5 -17.9 -11.95 -18.3 -10.4 -18.7 -14.55 -12.6 M-15.05 16.6 L-12.55 15.75 -11.75 18.7 -11.65 18.3 -10.0 27.85 -16.55 25.7 -17.65 18.75 -13.7 19.4 -15.05 16.6" fill="#830000" fill-rule="evenodd" stroke="none"/>
    <path d="M55.65 -27.95 Q52.85 -30.8 48.7 -30.65 44.65 -30.75 41.85 -27.95 L41.55 -27.65 55.35 -13.85 55.65 -14.15 Q58.45 -16.95 58.45 -20.95 58.45 -25.15 55.65 -27.95" fill="#620505" fill-rule="evenodd" stroke="none"/>
    <path d="M53.85 -15.3 Q54.45 -16.8 54.45 -18.45 54.45 -21.6 52.2 -23.85 49.8 -26.25 46.5 -26.25 44.85 -26.25 43.5 -25.65 L53.85 -15.3" fill="#ffffff" fill-rule="evenodd" stroke="none"/>
    <path d="M60.65 -22.05 L61.95 -20.4 Q65.85 0.4 61.85 20.6 L60.65 22.05 57.8 25.0 Q63.9 0.55 58.0 -24.8 L60.65 -22.05" fill="#830000" fill-rule="evenodd" stroke="none"/>
    <path d="M69.8 -0.05 L69.8 0.05 Q69.7 6.0 66.9 12.3 65.5 15.3 63.65 18.15 67.8 -0.05 63.25 -18.65 65.35 -15.6 66.9 -12.3 69.7 -6.1 69.8 -0.05" fill="#830000" fill-rule="evenodd" stroke="none"/>
    <path d="M15.6 -29.8 L17.1 -31.35 26.25 -31.95 Q40.25 -31.65 49.8 -26.85 55.9 -23.8 59.9 -19.05 63.75 -14.5 66.15 -9.3 L67.6 -5.65 63.65 -10.15 Q57.85 -16.1 49.0 -20.0 35.15 -26.05 14.8 -26.5 L12.1 -26.5 15.6 -29.8" fill="#ffffff" fill-opacity="0.4" fill-rule="evenodd" stroke="none"/>
    <path d="M55.65 14.05 Q58.45 16.85 58.45 20.85 58.45 25.05 55.65 27.85 52.85 30.7 48.7 30.55 44.65 30.65 41.85 27.85 L41.55 27.55 55.35 13.75 55.65 14.05" fill="#620505" fill-rule="evenodd" stroke="none"/>
    <path d="M53.85 15.2 Q54.45 16.7 54.45 18.35 54.45 21.5 52.2 23.75 49.8 26.15 46.5 26.15 44.85 26.15 43.5 25.55 L53.85 15.2" fill="#ffffff" fill-rule="evenodd" stroke="none"/>
  </g>
</svg>
