<?xml version="1.0" encoding="UTF-8" standalone="no"?>
<svg xmlns:xlink="http://www.w3.org/1999/xlink" height="14.9px" width="16.6px" xmlns="http://www.w3.org/2000/svg">
  <g transform="matrix(1.0, 0.0, 0.0, 1.0, 8.3, 7.45)">
    <path d="M3.15 -1.4 Q3.15 0.7 2.25 2.15 1.7 3.1 1.0 3.45 L0.2 6.45 -0.75 3.45 Q-1.5 3.1 -2.05 2.15 -2.95 0.7 -2.95 -1.4 -2.95 -3.45 -2.05 -5.0 -1.15 -6.45 0.1 -6.45 1.35 -6.45 2.25 -5.0 3.15 -3.45 3.15 -1.4" fill="#2c2c2c" fill-rule="evenodd" stroke="none"/>
    <path d="M3.15 -1.4 Q3.15 0.7 2.25 2.15 1.7 3.1 1.0 3.45 L0.2 6.45 -0.75 3.45 Q-1.5 3.1 -2.05 2.15 -2.95 0.7 -2.95 -1.4 -2.95 -3.45 -2.05 -5.0 -1.15 -6.45 0.1 -6.45 1.35 -6.45 2.25 -5.0 3.15 -3.45 3.15 -1.4 Z" fill="none" stroke="#000000" stroke-linecap="round" stroke-linejoin="round" stroke-width="2.0"/>
    <path d="M4.05 -3.25 L6.55 -3.05 Q8.05 -2.3 8.05 -0.95 8.05 0.45 6.55 1.15 L4.05 1.4 Q3.05 1.15 2.45 0.4 1.9 -0.2 1.95 -0.95 1.9 -1.65 2.45 -2.3 3.05 -3.0 4.05 -3.25 Z" fill="none" stroke="#2c2c2c" stroke-linecap="round" stroke-linejoin="round" stroke-width="0.5"/>
    <path d="M-4.05 -3.25 L-6.55 -3.05 Q-8.05 -2.3 -8.05 -0.95 -8.05 0.45 -6.55 1.15 L-4.05 1.4 Q-3.05 1.15 -2.45 0.4 -1.9 -0.2 -1.95 -0.95 -1.9 -1.65 -2.45 -2.3 -3.05 -3.0 -4.05 -3.25 Z" fill="none" stroke="#2c2c2c" stroke-linecap="round" stroke-linejoin="round" stroke-width="0.5"/>
    <path d="M-1.05 2.6 L1.2 2.6 0.2 6.45 -1.05 2.6" fill="#2c2c2c" fill-rule="evenodd" stroke="none"/>
    <path d="M0.1 -6.45 Q1.35 -6.45 2.25 -5.0 3.15 -3.45 3.15 -1.4 3.15 0.7 2.25 2.15 1.35 3.65 0.1 3.65 -1.15 3.65 -2.05 2.15 -2.95 0.7 -2.95 -1.4 -2.95 -3.45 -2.05 -5.0 -1.15 -6.45 0.1 -6.45" fill="#2c2c2c" fill-rule="evenodd" stroke="none"/>
    <path d="M3.15 -0.9 L3.65 -1.1 Q2.0 -0.35 -0.05 -0.35 L-2.9 -0.8 -2.95 -1.4 -2.85 -2.45 -0.05 -2.05 3.1 -2.5 3.15 -1.4 3.15 -0.9 M2.15 2.3 L-0.05 2.55 -1.9 2.4 -2.05 2.15 -2.75 0.5 -0.05 0.85 2.95 0.4 2.25 2.15 2.15 2.3" fill="#ffcc33" fill-rule="evenodd" stroke="none"/>
  </g>
</svg>
