<?xml version="1.0" encoding="UTF-8" standalone="no"?>
<svg xmlns:xlink="http://www.w3.org/1999/xlink" height="24.95px" width="28.55px" xmlns="http://www.w3.org/2000/svg">
  <g transform="matrix(1.0, 0.0, 0.0, 1.0, 14.4, 12.75)">
    <path d="M9.35 9.05 Q9.35 9.75 9.8 10.2 10.3 10.7 11.0 10.7 11.65 10.7 12.15 10.2 12.65 9.75 12.65 9.05 L12.65 5.7 Q12.65 5.05 12.15 4.55 11.65 4.05 11.0 4.05 10.3 4.05 9.8 4.55 9.35 5.05 9.35 5.7 L9.35 9.05" fill="#ffffff" fill-rule="evenodd" stroke="none"/>
    <path d="M9.35 9.05 L9.35 5.7 Q9.35 5.05 9.8 4.55 10.3 4.05 11.0 4.05 11.65 4.05 12.15 4.55 12.65 5.05 12.65 5.7 L12.65 9.05 Q12.65 9.75 12.15 10.2 11.65 10.7 11.0 10.7 10.3 10.7 9.8 10.2 9.35 9.75 9.35 9.05 Z" fill="none" stroke="#27313f" stroke-linecap="round" stroke-linejoin="round" stroke-width="3.0"/>
    <path d="M9.35 9.05 Q9.35 9.75 9.8 10.2 10.3 10.7 11.0 10.7 11.65 10.7 12.15 10.2 12.65 9.75 12.65 9.05 L12.65 5.7 Q12.65 5.05 12.15 4.55 11.65 4.05 11.0 4.05 10.3 4.05 9.8 4.55 9.35 5.05 9.35 5.7 L9.35 9.05" fill="#47566b" fill-rule="evenodd" stroke="none"/>
    <path d="M9.35 -6.25 Q9.35 -5.55 9.8 -5.1 10.3 -4.6 11.0 -4.6 11.65 -4.6 12.15 -5.1 12.65 -5.55 12.65 -6.25 L12.65 -9.6 Q12.65 -10.25 12.15 -10.75 11.65 -11.25 11.0 -11.25 10.3 -11.25 9.8 -10.75 9.35 -10.25 9.35 -9.6 L9.35 -6.25" fill="#ffffff" fill-rule="evenodd" stroke="none"/>
    <path d="M9.35 -6.25 L9.35 -9.6 Q9.35 -10.25 9.8 -10.75 10.3 -11.25 11.0 -11.25 11.65 -11.25 12.15 -10.75 12.65 -10.25 12.65 -9.6 L12.65 -6.25 Q12.65 -5.55 12.15 -5.1 11.65 -4.6 11.0 -4.6 10.3 -4.6 9.8 -5.1 9.35 -5.55 9.35 -6.25 Z" fill="none" stroke="#27313f" stroke-linecap="round" stroke-linejoin="round" stroke-width="3.0"/>
    <path d="M9.35 -6.25 Q9.35 -5.55 9.8 -5.1 10.3 -4.6 11.0 -4.6 11.65 -4.6 12.15 -5.1 12.65 -5.55 12.65 -6.25 L12.65 -9.6 Q12.65 -10.25 12.15 -10.75 11.65 -11.25 11.0 -11.25 10.3 -11.25 9.8 -10.75 9.35 -10.25 9.35 -9.6 L9.35 -6.25" fill="#47566b" fill-rule="evenodd" stroke="none"/>
    <path d="M-12.9 9.05 Q-12.9 9.75 -12.45 10.2 -11.95 10.7 -11.25 10.7 -10.6 10.7 -10.1 10.2 -9.6 9.75 -9.6 9.05 L-9.6 5.7 Q-9.6 5.05 -10.1 4.55 -10.6 4.05 -11.25 4.05 -11.95 4.05 -12.45 4.55 -12.9 5.05 -12.9 5.7 L-12.9 9.05" fill="#ffffff" fill-rule="evenodd" stroke="none"/>
    <path d="M-12.9 9.05 L-12.9 5.7 Q-12.9 5.05 -12.45 4.55 -11.95 4.05 -11.25 4.05 -10.6 4.05 -10.1 4.55 -9.6 5.05 -9.6 5.7 L-9.6 9.05 Q-9.6 9.75 -10.1 10.2 -10.6 10.7 -11.25 10.7 -11.95 10.7 -12.45 10.2 -12.9 9.75 -12.9 9.05 Z" fill="none" stroke="#27313f" stroke-linecap="round" stroke-linejoin="round" stroke-width="3.0"/>
    <path d="M-12.9 9.05 Q-12.9 9.75 -12.45 10.2 -11.95 10.7 -11.25 10.7 -10.6 10.7 -10.1 10.2 -9.6 9.75 -9.6 9.05 L-9.6 5.7 Q-9.6 5.05 -10.1 4.55 -10.6 4.05 -11.25 4.05 -11.95 4.05 -12.45 4.55 -12.9 5.05 -12.9 5.7 L-12.9 9.05" fill="#47566b" fill-rule="evenodd" stroke="none"/>
    <path d="M-12.9 -6.25 Q-12.9 -5.55 -12.45 -5.1 -11.95 -4.6 -11.25 -4.6 -10.6 -4.6 -10.1 -5.1 -9.6 -5.55 -9.6 -6.25 L-9.6 -9.6 Q-9.6 -10.25 -10.1 -10.75 -10.6 -11.25 -11.25 -11.25 -11.95 -11.25 -12.45 -10.75 -12.9 -10.25 -12.9 -9.6 L-12.9 -6.25" fill="#ffffff" fill-rule="evenodd" stroke="none"/>
    <path d="M-12.9 -6.25 L-12.9 -9.6 Q-12.9 -10.25 -12.45 -10.75 -11.95 -11.25 -11.25 -11.25 -10.6 -11.25 -10.1 -10.75 -9.6 -10.25 -9.6 -9.6 L-9.6 -6.25 Q-9.6 -5.55 -10.1 -5.1 -10.6 -4.6 -11.25 -4.6 -11.95 -4.6 -12.45 -5.1 -12.9 -5.55 -12.9 -6.25 Z" fill="none" stroke="#27313f" stroke-linecap="round" stroke-linejoin="round" stroke-width="3.0"/>
    <path d="M-12.9 -6.25 Q-12.9 -5.55 -12.45 -5.1 -11.95 -4.6 -11.25 -4.6 -10.6 -4.6 -10.1 -5.1 -9.6 -5.55 -9.6 -6.25 L-9.6 -9.6 Q-9.6 -10.25 -10.1 -10.75 -10.6 -11.25 -11.25 -11.25 -11.95 -11.25 -12.45 -10.75 -12.9 -10.25 -12.9 -9.6 L-12.9 -6.25" fill="#47566b" fill-rule="evenodd" stroke="none"/>
  </g>
</svg>
