<?xml version="1.0" encoding="UTF-8" standalone="no"?>
<svg xmlns:xlink="http://www.w3.org/1999/xlink" height="145.0px" width="303.8px" xmlns="http://www.w3.org/2000/svg">
  <g transform="matrix(1.0, 0.0, 0.0, 1.0, 151.9, 72.5)">
    <path d="M74.05 -32.8 L87.25 -29.25 Q122.5 -19.05 131.65 -10.0 134.25 -7.4 136.15 -4.65 L137.55 -2.4 129.55 -3.1 Q127.8 -3.3 108.1 -8.5 138.75 9.9 146.45 21.95 149.15 26.15 150.75 30.35 L151.9 33.75 Q142.05 32.6 138.3 31.4 136.45 30.8 113.15 17.9 124.0 28.45 127.55 35.9 129.65 40.4 130.8 44.8 L131.5 48.3 Q120.95 46.5 118.25 45.1 116.4 44.15 71.1 6.95 97.75 36.5 101.6 50.95 102.85 55.7 103.2 60.25 L103.25 63.8 Q92.35 59.65 89.15 57.05 86.65 54.95 34.2 -5.7 L37.15 -1.7 Q67.5 39.7 69.85 57.0 70.55 61.9 70.25 66.4 L69.9 69.95 Q59.3 63.1 57.85 60.65 L8.8 -7.0 Q36.2 39.6 37.25 56.5 37.55 61.4 36.95 65.9 L36.3 69.45 Q25.5 62.4 23.2 59.5 21.55 57.4 -14.2 -2.1 4.7 43.75 3.2 59.85 2.8 64.8 1.55 69.15 L0.35 72.5 Q-9.05 62.7 -11.2 59.1 -12.85 56.35 -39.7 -10.15 L-38.95 -7.6 Q-23.65 42.85 -26.85 57.4 -27.75 61.55 -29.3 65.15 L-30.65 67.9 Q-38.95 58.6 -40.25 55.3 -41.2 52.95 -54.1 0.45 -49.25 41.75 -53.95 53.4 -55.4 57.0 -57.3 59.95 L-58.95 62.25 Q-64.55 52.55 -65.2 50.35 -65.75 48.4 -72.4 -21.75 L-71.5 -4.15 Q-69.75 37.6 -75.8 49.7 -77.5 53.15 -79.65 55.95 L-81.5 58.05 -83.85 52.65 -86.85 45.6 Q-87.25 44.45 -87.65 16.25 -90.1 29.55 -93.75 35.1 -95.5 37.8 -97.5 39.95 L-99.25 41.5 Q-102.65 34.25 -103.0 31.8 L-102.3 18.15 Q-104.3 26.9 -107.0 31.0 -108.6 33.55 -110.55 35.55 L-112.15 37.0 -113.8 34.25 Q-115.4 31.2 -115.5 29.85 L-114.15 5.45 Q-116.3 17.35 -119.5 22.15 -121.0 24.4 -122.75 26.15 L-124.15 27.45 -125.45 24.6 Q-126.8 21.15 -126.9 18.8 L-126.25 3.85 Q-127.6 11.2 -129.55 14.5 L-131.9 17.75 -132.9 18.85 Q-134.45 14.95 -134.6 12.8 -134.85 10.9 -135.2 -24.6 -131.5 -28.1 -127.75 -28.95 -123.2 -29.95 -107.0 -29.1 -92.1 -28.3 -86.4 -30.45 -83.15 -31.65 -77.1 -35.85 L-65.85 -43.8 Q-50.9 -54.05 -43.2 -53.45 -35.9 -52.85 -16.25 -45.7 6.55 -37.35 13.55 -35.7 30.0 -31.85 53.15 -28.5 79.95 -24.6 79.8 -27.45 79.75 -28.75 74.05 -32.8" fill="#e76c0c" fill-rule="evenodd" stroke="none"/>
    <path d="M-135.2 -24.6 Q-138.0 -22.0 -140.8 -17.8 -144.05 -12.9 -145.95 -8.35 -148.5 -14.85 -150.25 -22.2 -153.75 -36.95 -149.75 -41.35 -146.1 -45.35 -133.2 -44.8 L-122.2 -44.25 -111.45 -44.95 Q-104.45 -46.35 -96.3 -50.6 L-81.9 -59.05 Q-63.0 -70.5 -48.7 -71.95 -11.4 -75.75 37.3 -53.5 54.2 -45.8 67.8 -37.05 L74.05 -32.8 Q79.75 -28.75 79.8 -27.45 79.95 -24.6 53.15 -28.5 30.0 -31.85 13.55 -35.7 6.55 -37.35 -16.25 -45.7 -35.9 -52.85 -43.2 -53.45 -50.9 -54.05 -65.85 -43.8 L-77.1 -35.85 Q-83.15 -31.65 -86.4 -30.45 -92.1 -28.3 -107.0 -29.1 -123.2 -29.95 -127.75 -28.95 -131.5 -28.1 -135.2 -24.6" fill="#ff9933" fill-rule="evenodd" stroke="none"/>
  </g>
</svg>
