<?xml version="1.0" encoding="UTF-8" standalone="no"?>
<svg xmlns:xlink="http://www.w3.org/1999/xlink" height="44.3px" width="45.65px" xmlns="http://www.w3.org/2000/svg">
  <g transform="matrix(1.0, 0.0, 0.0, 1.0, 22.8, 22.15)">
    <path d="M-16.1 -16.25 L-15.1 -16.7 -15.65 -16.4 -6.15 -20.55 7.45 -20.65 7.5 -20.65 17.35 -13.75 17.45 -13.3 21.35 1.85 18.95 10.3 18.95 10.35 18.9 10.4 13.25 17.05 -2.15 20.65 -14.35 14.85 -19.25 8.4 -21.3 -5.55 -16.1 -16.25" fill="#66ff00" fill-rule="evenodd" stroke="none"/>
    <path d="M-16.1 -16.25 L-21.3 -5.55 -19.25 8.4 -14.35 14.85 -2.15 20.65 13.25 17.05 18.9 10.4 18.95 10.35 18.95 10.3 21.35 1.85 17.45 -13.3 17.35 -13.75 7.5 -20.65 7.45 -20.65 -6.15 -20.55 -15.65 -16.4 -15.1 -16.7 -16.1 -16.25 Z" fill="none" stroke="#956b02" stroke-linecap="round" stroke-linejoin="round" stroke-width="3.0"/>
  </g>
</svg>
