<?xml version="1.0" encoding="UTF-8" standalone="no"?>
<svg xmlns:xlink="http://www.w3.org/1999/xlink" height="171.3px" width="415.95px" xmlns="http://www.w3.org/2000/svg">
  <g transform="matrix(1.0, 0.0, 0.0, 1.0, -151.65, -160.7)">
    <path d="M468.95 205.65 L474.4 205.45 479.4 205.2 510.65 205.2 513.9 205.05 517.45 204.95 537.3 205.05 537.3 205.55 543.1 205.65 547.0 205.35 559.3 205.2 559.3 206.05 561.5 206.15 563.95 206.15 563.95 210.3 562.9 210.25 Q563.1 211.2 562.7 213.4 562.65 215.15 563.95 216.15 L564.0 218.9 563.95 238.3 Q563.3 239.8 563.3 240.85 L563.95 243.4 562.9 243.4 562.9 257.15 563.3 257.15 563.5 260.75 563.95 262.75 563.95 268.9 Q563.25 270.5 562.55 274.2 561.7 278.25 561.7 280.4 561.7 281.4 562.85 284.15 563.9 286.7 563.95 287.75 L563.95 297.95 563.6 300.0 562.25 305.35 562.25 309.9 563.95 310.0 563.95 315.2 Q563.05 316.8 562.2 320.1 561.1 324.35 561.1 326.7 L561.15 327.6 496.25 327.6 496.25 327.1 478.9 327.6 446.85 327.6 446.85 327.1 440.55 326.95 440.5 327.45 438.85 327.45 438.95 327.6 404.45 327.6 403.5 327.25 403.5 325.1 402.9 325.1 402.9 324.35 396.55 324.3 396.1 324.55 Q395.6 324.65 395.45 324.8 L395.45 325.95 394.8 325.95 394.45 326.45 393.65 326.85 393.65 327.1 Q385.15 326.95 384.15 327.15 L382.0 327.45 382.0 327.6 325.55 327.6 325.3 327.5 324.7 327.3 320.1 327.2 320.1 325.6 313.65 325.6 313.65 326.6 310.2 326.6 307.7 327.6 157.2 327.6 156.65 327.25 156.65 325.9 Q154.95 324.9 154.25 323.35 L154.25 314.5 154.95 314.5 154.95 298.6 Q154.45 297.95 154.25 297.05 L154.25 289.25 Q154.55 286.45 154.95 284.8 L154.95 277.75 155.45 277.75 155.45 272.35 Q154.95 271.8 154.95 270.6 L154.25 270.6 154.25 269.7 156.1 269.7 156.1 267.45 Q155.45 266.75 155.2 265.4 L154.95 263.75 155.05 262.4 155.45 260.45 155.45 245.9 154.25 245.9 154.25 245.0 155.45 245.0 155.45 236.05 154.25 232.65 154.25 227.15 154.95 227.15 Q154.95 226.35 155.45 225.8 L155.45 218.8 Q155.5 217.7 156.1 217.15 L156.1 210.25 Q155.65 209.0 155.5 206.65 L158.3 204.95 162.95 204.95 162.95 205.35 179.85 205.35 186.75 205.1 190.25 204.95 194.35 204.95 194.35 205.35 204.25 205.35 220.35 205.45 231.45 205.7 243.55 205.8 250.2 205.3 257.4 204.95 389.55 204.95 389.55 205.55 402.35 205.65 404.05 205.45 430.6 205.35 430.6 204.95 457.3 204.95 457.3 205.55 468.95 205.65" fill="#000000" fill-opacity="0.3019608" fill-rule="evenodd" stroke="none"/>
    <path d="M470.85 202.95 L476.4 202.8 481.3 202.55 512.6 202.5 515.85 202.35 519.4 202.25 539.25 202.35 539.25 202.9 545.05 202.95 549.0 202.75 561.3 202.5 561.3 203.3 563.5 203.4 565.95 203.4 565.95 207.65 564.85 207.6 Q565.1 208.5 564.65 210.75 564.6 212.4 565.95 213.5 L566.05 216.15 565.95 235.55 Q565.3 237.1 565.3 238.2 L565.95 240.75 564.85 240.75 564.85 254.5 565.3 254.5 Q565.3 257.1 565.45 258.05 L565.95 260.05 565.95 266.3 Q565.25 267.75 564.45 271.55 563.7 275.55 563.7 277.65 563.7 278.75 564.8 281.4 565.9 283.95 565.95 285.1 L565.95 295.2 565.6 297.25 564.2 302.75 564.2 307.25 565.95 307.3 565.95 312.4 Q565.05 314.15 564.2 317.45 563.05 321.65 563.05 324.0 L563.1 324.95 498.25 324.95 498.25 324.4 480.85 324.95 448.9 324.95 448.9 324.4 442.55 324.3 442.5 324.75 440.75 324.75 440.95 324.95 406.45 324.95 405.45 324.6 405.45 322.35 404.9 322.35 404.9 321.65 398.6 321.65 398.05 321.85 397.35 322.05 397.35 323.35 396.75 323.35 396.45 323.75 395.65 324.2 395.65 324.4 Q387.15 324.3 386.1 324.45 L384.05 324.75 384.05 324.95 327.45 324.95 327.25 324.8 326.65 324.65 322.0 324.55 322.0 322.95 315.65 322.95 315.65 323.95 312.2 323.95 Q311.25 324.3 309.65 324.95 L159.2 324.95 158.65 324.6 158.65 323.2 Q156.85 322.05 156.15 320.7 L156.15 311.75 156.85 311.75 156.85 295.9 156.15 294.35 156.15 286.55 156.85 282.1 156.85 275.1 157.45 275.1 157.45 269.7 Q156.85 269.1 156.85 267.9 L156.15 267.9 156.15 267.05 158.0 267.05 158.0 264.75 Q157.45 264.05 157.05 262.75 L156.85 261.05 157.0 259.7 157.45 257.7 157.45 243.15 156.15 243.15 156.15 242.3 157.45 242.35 157.45 233.35 156.15 230.0 156.15 224.5 156.85 224.5 Q156.85 223.7 157.45 223.1 L157.45 216.0 Q157.5 215.0 158.0 214.5 L158.0 207.6 Q157.6 206.25 157.5 203.9 L160.25 202.2 164.95 202.2 164.95 202.65 181.85 202.75 188.7 202.4 192.3 202.2 196.3 202.2 196.3 202.65 206.2 202.65 222.35 202.8 233.35 202.95 245.55 203.1 252.2 202.6 259.4 202.2 391.45 202.2 391.45 202.9 404.25 202.95 406.0 202.8 432.65 202.75 432.65 202.2 459.2 202.2 459.2 202.9 470.85 202.95" fill="#ce9d46" fill-rule="evenodd" stroke="none"/>
    <path d="M354.6 197.5 Q354.8 197.8 354.8 198.6 354.8 200.05 352.15 206.15 L351.4 206.15 351.3 204.7 Q351.3 203.9 352.45 200.65 353.6 197.5 354.05 197.15 L354.6 197.5 M434.0 197.95 L434.5 197.85 Q436.0 199.35 436.55 203.95 L436.55 204.0 434.85 204.0 434.25 202.05 Q433.55 199.4 433.55 198.9 433.55 198.1 434.0 197.95 M449.1 198.2 L449.9 200.2 450.5 202.2 450.4 202.8 449.9 203.4 Q449.45 202.95 449.05 201.6 448.6 200.35 448.6 199.3 L448.7 198.3 448.7 198.2 449.1 198.2 M433.1 205.15 Q432.8 205.15 432.4 204.0 L434.1 204.0 433.95 204.9 433.1 205.15 M399.15 202.95 L399.05 203.6 398.7 203.55 Q397.8 202.95 397.45 201.2 L396.8 198.3 397.05 197.95 Q397.45 198.2 398.3 200.2 399.15 202.2 399.15 202.95 M349.65 206.2 L348.95 206.2 348.95 206.15 349.7 206.15 349.65 206.2 M325.8 204.5 L325.1 205.2 Q324.25 204.3 323.7 202.55 323.25 201.05 323.25 199.8 323.25 199.1 323.55 199.0 L323.9 199.0 Q324.9 199.95 325.2 201.6 L325.8 204.5 M359.8 325.4 Q360.35 328.35 360.85 329.4 L360.6 330.1 Q360.35 330.45 359.7 330.45 358.85 330.45 357.6 323.4 357.6 322.55 357.85 322.25 357.95 322.05 358.5 321.9 359.4 322.8 359.8 325.4 M351.75 331.85 L351.15 331.55 Q351.0 331.3 351.0 330.45 L350.85 324.95 Q350.9 321.65 351.9 320.8 L352.3 325.95 352.5 331.05 351.75 331.85 M452.7 325.9 Q453.05 328.25 453.5 329.6 L453.25 330.2 Q452.95 330.65 452.3 330.65 L451.5 330.5 451.45 330.3 450.9 326.35 Q450.55 324.0 450.55 323.25 450.55 322.45 450.9 322.4 L451.25 322.35 452.25 322.35 Q452.3 323.65 452.7 325.9 M418.55 330.45 Q417.65 330.45 416.45 323.4 416.45 322.55 416.65 322.25 416.75 322.05 417.3 321.9 418.2 322.8 418.65 325.4 419.15 328.35 419.65 329.4 L419.45 330.1 Q419.15 330.45 418.55 330.45 M410.55 331.85 L409.95 331.55 Q409.8 331.3 409.8 330.45 L409.65 324.95 Q409.7 321.65 410.7 320.8 411.0 322.8 411.1 325.95 L411.3 331.05 Q411.0 331.65 410.55 331.85 M429.4 329.6 L429.2 328.55 Q429.2 326.95 429.8 323.95 430.5 321.0 430.9 320.8 431.3 321.65 431.3 323.6 L431.15 326.95 Q430.8 328.9 429.8 329.8 L429.4 329.6 M567.25 217.4 L566.1 218.6 563.1 219.1 559.9 218.65 559.8 218.15 Q562.0 218.0 564.4 217.25 L567.0 216.55 567.25 217.4 M567.45 249.2 Q567.15 249.6 566.55 249.6 L564.15 249.0 561.4 248.15 Q561.2 248.8 561.2 247.55 561.2 244.7 567.6 248.5 L567.45 249.2 M566.6 221.75 L566.8 222.45 566.55 223.1 565.6 223.2 563.0 222.95 Q561.2 222.6 560.95 222.35 L563.75 221.75 Q565.45 221.55 566.6 221.75 M541.85 208.05 Q541.7 207.7 541.7 206.55 541.7 205.7 542.85 202.5 544.0 199.35 544.45 199.0 L545.0 199.35 Q545.2 199.65 545.2 200.5 545.2 201.95 542.6 208.05 L541.85 208.05 M497.45 199.65 Q497.45 200.6 496.75 202.25 L495.7 204.8 495.15 204.95 494.75 203.8 494.65 202.4 Q494.65 201.6 495.3 200.2 495.9 199.0 496.6 198.4 L497.25 198.65 497.45 199.65 M564.5 276.95 L565.85 277.1 566.05 277.85 565.25 278.55 558.95 278.55 Q558.8 278.5 558.8 277.75 L558.9 277.0 Q558.95 276.95 559.0 277.05 L563.6 276.9 564.5 276.95 M560.95 283.6 L564.85 283.4 565.45 283.5 Q565.7 283.5 565.7 284.3 L565.6 285.1 565.35 285.35 561.5 285.35 Q559.35 284.95 559.2 284.55 L560.95 283.6 M564.55 313.65 L562.5 312.25 560.85 311.05 Q561.7 309.45 563.3 310.25 564.5 310.95 565.35 312.25 565.3 313.35 564.55 313.65 M540.45 323.6 Q540.75 320.5 541.85 319.85 L542.45 322.85 542.45 329.0 541.6 329.85 Q540.65 329.35 540.45 328.35 L540.4 326.8 Q540.3 325.1 540.45 323.6 M496.6 329.05 L496.55 327.55 Q496.45 325.9 496.6 324.35 496.9 321.25 498.0 320.6 498.35 321.4 498.6 323.65 L498.6 329.75 497.75 330.65 Q496.8 330.15 496.6 329.05 M181.35 196.95 L181.55 198.85 181.1 204.55 180.8 204.8 180.2 205.2 179.4 204.5 Q179.25 204.15 179.25 203.2 179.25 196.15 180.65 194.7 181.1 195.5 181.35 196.95 M234.25 196.95 L234.5 198.85 234.05 204.55 233.75 204.8 233.15 205.2 232.35 204.5 Q232.2 204.15 232.2 203.2 232.2 196.15 233.55 194.7 234.05 195.5 234.25 196.95 M275.75 196.45 Q276.7 197.5 276.65 200.05 276.55 202.95 276.95 203.7 L276.5 204.0 275.65 204.0 Q274.95 200.2 274.95 197.7 L274.95 196.75 275.1 196.45 275.75 196.45 M159.9 212.9 L157.25 212.65 155.1 212.15 Q157.45 209.65 161.3 211.05 L161.6 211.95 161.05 212.55 Q160.6 212.9 159.9 212.9 M153.55 244.8 L153.55 244.6 Q153.3 245.25 153.3 244.0 153.3 243.05 155.15 242.45 157.15 241.85 160.2 242.0 L160.3 241.95 Q160.5 242.05 160.5 242.85 160.5 243.6 158.35 244.3 L154.25 244.85 153.55 244.8 M161.2 267.35 L161.35 267.55 161.4 268.35 Q161.4 270.4 154.25 272.35 L153.55 272.25 153.55 272.05 Q153.3 272.75 153.3 271.45 153.3 271.0 156.7 269.2 160.1 267.25 161.2 267.35 M157.85 301.45 L157.65 302.55 156.15 302.75 Q154.75 302.95 154.4 303.2 L153.55 303.15 Q153.3 303.0 153.3 302.15 153.3 301.25 154.9 300.8 L157.65 300.7 157.85 301.45 M157.45 309.1 L157.65 309.9 Q157.15 310.85 156.5 311.1 L153.15 311.1 Q152.0 310.9 151.65 310.5 153.7 307.75 154.5 307.7 155.15 307.7 157.45 309.1 M158.65 324.65 Q162.4 322.05 163.85 322.55 L164.0 322.5 164.05 323.35 Q164.05 323.6 155.6 328.55 L154.75 327.95 Q155.3 326.95 158.65 324.65 M315.1 202.65 Q314.25 199.8 314.25 199.2 314.25 197.15 315.2 196.75 L317.0 204.8 316.25 205.8 Q315.95 205.65 315.1 202.65 M273.2 204.0 L274.05 204.0 273.25 204.2 273.2 204.0 M261.55 198.05 L261.7 198.5 261.75 199.6 261.35 203.4 260.5 203.55 260.35 203.2 260.3 202.2 Q260.3 201.6 260.65 200.2 L260.9 198.05 261.55 198.05 M242.7 321.0 L242.9 322.05 Q242.9 323.65 242.15 326.5 L241.05 330.8 240.4 331.1 239.7 331.0 239.6 329.9 Q239.6 328.95 240.45 325.3 241.5 321.25 242.15 320.6 242.6 320.8 242.7 321.0 M186.0 320.3 Q187.6 321.25 188.35 325.3 L188.7 327.7 188.75 329.05 188.7 330.0 188.6 330.15 188.0 330.45 Q187.0 328.95 186.5 325.95 L185.75 320.7 186.0 320.3 M267.8 321.9 Q269.4 322.8 270.15 326.85 L270.5 329.25 270.6 330.65 270.5 331.55 270.4 331.7 269.85 332.0 Q268.8 330.6 268.35 327.5 L267.6 322.25 267.8 321.9" fill="#a88335" fill-rule="evenodd" stroke="none"/>
    <path d="M347.75 165.45 L347.95 165.6 363.95 165.6 371.15 166.25 371.7 166.25 372.0 165.85 375.4 166.25 Q379.3 166.25 383.6 165.0 L407.95 165.0 410.65 165.85 414.8 165.9 426.0 165.6 426.3 165.5 434.5 165.5 434.9 165.75 435.35 165.6 442.5 165.5 443.4 165.0 470.7 165.0 471.7 166.35 Q473.45 168.5 475.55 168.9 L475.55 186.5 475.5 186.6 Q474.6 187.6 474.6 189.25 474.6 191.0 475.15 193.35 L475.55 194.75 475.55 200.4 Q474.85 201.75 474.85 204.35 L474.9 205.25 474.35 208.5 Q473.65 208.1 472.7 208.15 471.45 208.25 470.55 209.3 469.95 210.0 469.7 211.15 L466.55 210.45 460.8 210.85 Q459.2 211.3 458.65 212.25 L426.1 212.25 Q425.5 211.65 424.5 211.2 L391.15 211.15 380.15 212.25 361.95 212.25 359.2 211.9 351.85 210.9 Q347.05 211.3 344.05 210.9 342.5 211.15 341.7 212.25 L322.75 212.25 321.7 211.3 Q321.0 210.9 319.8 210.75 L313.1 211.3 309.15 211.3 308.25 211.25 Q305.5 211.65 304.25 212.25 L285.45 212.25 Q284.85 211.4 283.55 211.05 L277.95 210.9 275.9 210.85 267.25 212.25 267.1 212.25 263.1 212.05 259.1 211.65 Q257.0 211.65 255.95 212.25 L251.0 212.25 Q250.8 209.85 250.05 207.75 L249.15 206.0 249.15 204.0 Q249.6 203.4 249.7 202.25 L249.75 198.5 249.5 193.8 249.15 191.2 249.15 182.45 Q249.55 181.6 249.55 180.7 L249.25 173.5 249.15 171.8 249.15 171.05 249.35 170.9 249.25 170.55 Q249.25 169.45 249.75 168.9 L250.3 168.5 250.9 167.25 251.6 165.85 253.5 165.7 253.55 165.7 254.6 165.0 257.35 165.0 261.15 164.85 274.85 164.7 279.4 164.6 317.15 164.6 Q318.25 164.6 318.75 164.95 L318.85 165.0 347.4 165.0 347.75 165.45" fill="#3cadc6" fill-rule="evenodd" stroke="none"/>
    <path d="M344.6 169.4 Q344.35 169.4 344.2 167.25 L344.05 165.35 Q344.05 159.7 344.55 161.35 345.0 162.85 345.0 167.4 345.0 169.4 344.6 169.4 M332.7 163.85 L333.0 162.75 333.2 162.85 333.3 163.55 333.2 164.85 333.0 166.45 332.8 166.75 332.6 164.95 332.7 163.85 M394.55 166.15 Q394.55 165.0 395.0 163.85 395.55 162.6 395.55 165.3 L395.4 167.25 394.95 167.65 394.75 167.6 394.6 167.25 394.55 166.15 M381.35 167.25 Q381.35 168.25 380.75 168.25 380.45 168.25 380.2 166.0 L380.0 163.85 Q380.0 161.0 380.7 163.35 381.35 165.75 381.35 167.25 M417.05 170.9 L417.05 169.45 417.25 164.85 Q417.4 160.85 417.95 163.85 L418.1 171.25 418.1 172.15 417.7 172.5 Q417.15 172.5 417.05 170.9 M470.8 163.6 Q472.15 159.2 472.15 162.7 L471.15 166.3 469.7 170.2 469.35 169.4 Q469.35 168.1 470.8 163.6 M453.6 166.7 Q453.6 168.5 453.1 168.5 452.9 168.5 452.75 166.6 L452.6 164.6 Q452.6 161.35 453.05 162.2 453.6 163.15 453.6 166.7 M449.0 164.6 L449.1 160.7 Q450.15 160.45 450.15 167.75 450.15 168.85 449.6 168.85 449.3 168.85 449.15 166.7 L449.0 164.6 M477.0 200.35 L474.85 200.6 473.35 200.45 473.3 199.7 473.35 199.1 476.75 198.6 477.2 199.45 477.0 200.35 M468.1 208.25 L468.85 213.3 468.75 213.9 Q468.7 214.3 468.4 214.3 468.0 214.3 467.7 211.05 L467.4 206.0 Q467.45 203.85 468.1 208.25 M470.6 209.45 L471.25 212.9 Q471.25 213.8 470.8 213.8 470.55 213.8 470.05 210.9 L469.65 208.05 469.85 206.4 470.6 209.45 M460.6 215.4 L460.5 216.55 460.2 216.7 Q459.8 216.2 459.8 215.3 L459.7 213.6 Q459.7 207.55 460.15 209.5 460.6 211.6 460.6 215.4 M443.8 212.65 L444.25 216.6 444.25 217.2 443.85 217.7 Q443.55 217.7 443.3 215.75 L443.25 213.95 Q443.25 210.15 443.8 212.65 M438.7 213.8 L438.2 217.2 Q437.85 216.9 437.8 216.35 L437.8 215.3 437.8 213.55 Q437.95 212.25 438.25 212.05 438.7 212.25 438.7 213.8 M413.05 215.75 Q412.65 215.75 412.35 213.4 L412.1 210.85 Q412.1 209.7 412.65 209.7 413.05 209.7 413.2 211.4 L413.55 214.55 413.5 215.35 413.05 215.75 M375.85 216.35 L375.85 215.3 Q375.85 211.2 376.15 210.65 L376.75 216.35 376.55 217.15 376.25 217.45 Q375.95 217.45 375.85 216.35 M332.0 214.05 L332.15 216.6 332.05 217.95 331.8 218.2 Q331.6 218.2 331.45 216.5 L331.35 214.7 331.45 213.45 Q331.55 212.25 331.8 212.0 L332.0 214.05 M329.55 214.9 L329.25 217.85 329.05 218.05 Q328.7 217.35 328.7 216.5 L328.95 214.4 329.2 213.0 Q329.55 213.9 329.55 214.9 M263.3 165.25 L263.05 162.55 Q263.05 161.55 263.3 161.4 L263.7 163.95 263.9 166.35 263.8 167.5 263.6 167.75 263.3 165.25 M251.2 163.6 Q251.2 162.85 251.5 162.6 L252.35 165.35 253.0 168.5 252.9 168.9 252.65 169.15 Q252.1 169.15 251.65 166.45 L251.2 163.6 M248.35 171.15 L250.05 172.4 Q251.15 173.55 251.15 174.35 L251.05 175.15 250.75 175.3 249.25 173.9 Q248.3 172.75 248.3 171.8 L248.35 171.15 M260.95 162.85 L261.0 162.35 261.3 161.4 Q261.75 162.6 261.85 164.7 L262.0 168.5 261.55 169.35 261.3 169.2 261.25 168.9 260.95 162.85 M250.05 189.75 L249.05 190.05 Q248.75 189.8 248.75 189.15 248.75 188.3 249.85 187.9 251.0 187.45 251.3 188.15 251.0 189.4 250.05 189.75 M250.3 194.3 L249.35 194.15 Q249.15 194.05 249.05 193.55 L249.25 192.55 250.8 192.4 Q251.3 192.4 251.3 193.3 L251.05 194.15 250.3 194.3 M302.35 166.9 Q302.0 166.65 302.0 164.25 302.0 162.15 302.35 161.45 302.65 162.15 302.65 164.35 302.65 166.15 302.35 166.9 M297.8 162.2 Q298.9 162.2 298.8 166.6 L298.8 167.15 298.55 167.4 Q298.2 167.4 297.9 165.1 L297.75 162.85 297.8 162.2 M305.75 209.85 Q306.3 211.3 306.3 214.35 L306.25 215.15 306.0 215.4 Q305.7 215.4 305.5 213.55 L305.5 211.55 Q305.5 210.25 305.75 209.85 M282.6 212.0 Q282.6 210.15 282.95 209.45 L283.25 211.55 283.45 213.8 283.4 214.75 Q283.4 215.15 283.1 215.15 282.7 215.15 282.6 213.6 L282.6 212.0 M251.7 206.9 L251.0 209.05 250.2 210.9 249.8 209.9 Q249.8 209.25 250.3 207.75 251.0 205.9 251.7 206.9 M259.1 215.6 L259.1 216.35 258.75 216.7 Q258.5 216.7 258.2 214.05 L258.0 211.4 Q258.0 208.05 258.6 210.8 259.1 213.45 259.1 215.6" fill="#367583" fill-rule="evenodd" stroke="none"/>
  </g>
</svg>
