<?xml version="1.0" encoding="UTF-8" standalone="no"?>
<svg xmlns:xlink="http://www.w3.org/1999/xlink" height="220.9px" width="225.3px" xmlns="http://www.w3.org/2000/svg">
  <g transform="matrix(1.0, 0.0, 0.0, 1.0, 111.1, 108.25)">
    <path d="M-102.4 -30.8 Q-94.2 -38.35 -82.65 -38.35 -71.1 -38.35 -63.0 -30.8 -54.8 -23.25 -54.8 -12.55 -54.8 -1.85 -63.0 5.7 -71.1 13.25 -82.65 13.25 -94.2 13.25 -102.4 5.7 -110.5 -1.85 -110.5 -12.55 -110.5 -23.25 -102.4 -30.8" fill="#910000" fill-rule="evenodd" stroke="none"/>
    <path d="M-64.55 -86.55 Q-52.55 -86.55 -44.15 -76.7 -35.65 -66.8 -35.65 -52.9 -35.65 -39.0 -44.15 -29.2 -52.55 -19.3 -64.55 -19.3 -76.5 -19.3 -85.0 -29.2 -93.45 -39.0 -93.45 -52.9 -93.45 -66.8 -85.0 -76.7 -76.5 -86.55 -64.55 -86.55" fill="#910000" fill-rule="evenodd" stroke="none"/>
    <path d="M-32.65 -60.55 Q-40.6 -52.3 -51.85 -52.3 -63.1 -52.3 -71.1 -60.55 -79.05 -68.7 -79.05 -80.3 -79.05 -91.85 -71.1 -100.1 -63.1 -108.25 -51.85 -108.25 -40.6 -108.25 -32.65 -100.1 -24.65 -91.85 -24.65 -80.3 -24.65 -68.7 -32.65 -60.55" fill="#910000" fill-rule="evenodd" stroke="none"/>
    <path d="M16.9 -70.15 Q9.3 -63.65 -1.45 -63.65 -12.2 -63.65 -19.8 -70.15 -27.35 -76.65 -27.35 -85.8 -27.35 -95.0 -19.8 -101.55 -12.2 -108.0 -1.45 -108.0 9.3 -108.0 16.9 -101.55 24.45 -95.0 24.45 -85.8 24.45 -76.65 16.9 -70.15" fill="#910000" fill-rule="evenodd" stroke="none"/>
    <path d="M75.5 -75.05 Q75.5 -61.35 65.9 -51.7 56.35 -41.95 42.85 -41.95 29.3 -41.95 19.7 -51.7 10.15 -61.35 10.15 -75.05 10.15 -88.8 19.7 -98.55 29.3 -108.2 42.85 -108.2 56.35 -108.2 65.9 -98.55 75.5 -88.8 75.5 -75.05" fill="#910000" fill-rule="evenodd" stroke="none"/>
    <path d="M87.7 -71.7 Q95.85 -71.7 101.5 -65.1 107.3 -58.45 107.3 -49.1 107.3 -39.7 101.5 -33.05 95.85 -26.45 87.7 -26.45 79.6 -26.45 73.85 -33.05 68.15 -39.7 68.15 -49.1 68.15 -58.45 73.85 -65.1 79.6 -71.7 87.7 -71.7" fill="#910000" fill-rule="evenodd" stroke="none"/>
    <path d="M82.6 -28.0 Q86.6 -33.75 92.3 -33.75 97.95 -33.75 102.0 -28.0 106.05 -22.2 106.05 -14.0 106.05 -5.85 102.0 -0.1 97.95 5.7 92.3 5.7 86.6 5.7 82.6 -0.1 78.55 -5.85 78.55 -14.0 78.55 -22.2 82.6 -28.0" fill="#910000" fill-rule="evenodd" stroke="none"/>
    <path d="M82.6 -28.0 Q86.6 -33.75 92.3 -33.75 97.95 -33.75 102.0 -28.0 106.05 -22.2 106.05 -14.0 106.05 -5.85 102.0 -0.1 97.95 5.7 92.3 5.7 86.6 5.7 82.6 -0.1 78.55 -5.85 78.55 -14.0 78.55 -22.2 82.6 -28.0 Z" fill="none" stroke="#a80f06" stroke-linecap="round" stroke-linejoin="round" stroke-opacity="0.0" stroke-width="6.0"/>
    <path d="M106.1 33.65 Q101.05 39.65 93.85 39.65 86.7 39.65 81.55 33.65 76.5 27.65 76.5 19.1 76.5 10.55 81.55 4.5 86.7 -1.45 93.85 -1.45 101.05 -1.45 106.1 4.5 111.2 10.55 111.2 19.1 111.2 27.65 106.1 33.65" fill="#910000" fill-rule="evenodd" stroke="none"/>
    <path d="M106.1 33.65 Q101.05 39.65 93.85 39.65 86.7 39.65 81.55 33.65 76.5 27.65 76.5 19.1 76.5 10.55 81.55 4.5 86.7 -1.45 93.85 -1.45 101.05 -1.45 106.1 4.5 111.2 10.55 111.2 19.1 111.2 27.65 106.1 33.65 Z" fill="none" stroke="#a80f06" stroke-linecap="round" stroke-linejoin="round" stroke-opacity="0.0" stroke-width="6.0"/>
    <path d="M-67.65 5.6 Q-60.7 12.7 -60.7 22.65 -60.7 32.6 -67.65 39.6 -74.55 46.65 -84.4 46.65 -94.25 46.65 -101.2 39.6 -108.1 32.6 -108.1 22.65 -108.1 12.7 -101.2 5.6 -94.25 -1.35 -84.4 -1.35 -74.55 -1.35 -67.65 5.6" fill="#910000" fill-rule="evenodd" stroke="none"/>
    <path d="M-67.65 5.6 Q-60.7 12.7 -60.7 22.65 -60.7 32.6 -67.65 39.6 -74.55 46.65 -84.4 46.65 -94.25 46.65 -101.2 39.6 -108.1 32.6 -108.1 22.65 -108.1 12.7 -101.2 5.6 -94.25 -1.35 -84.4 -1.35 -74.55 -1.35 -67.65 5.6 Z" fill="none" stroke="#a80f06" stroke-linecap="round" stroke-linejoin="round" stroke-opacity="0.0" stroke-width="6.0"/>
    <path d="M-57.85 41.3 Q-50.85 46.75 -50.85 54.45 -50.85 62.15 -57.85 67.5 -64.75 72.95 -74.55 72.95 -84.4 72.95 -91.35 67.5 -98.25 62.15 -98.25 54.45 -98.25 46.75 -91.35 41.3 -84.4 35.95 -74.55 35.95 -64.75 35.95 -57.85 41.3" fill="#910000" fill-rule="evenodd" stroke="none"/>
    <path d="M-57.85 41.3 Q-50.85 46.75 -50.85 54.45 -50.85 62.15 -57.85 67.5 -64.75 72.95 -74.55 72.95 -84.4 72.95 -91.35 67.5 -98.25 62.15 -98.25 54.45 -98.25 46.75 -91.35 41.3 -84.4 35.95 -74.55 35.95 -64.75 35.95 -57.85 41.3 Z" fill="none" stroke="#a80f06" stroke-linecap="round" stroke-linejoin="round" stroke-opacity="0.0" stroke-width="6.0"/>
    <path d="M-73.7 72.35 Q-73.7 63.25 -66.4 56.85 -59.15 50.5 -48.9 50.5 -38.6 50.5 -31.35 56.85 -24.1 63.25 -24.1 72.35 -24.1 81.45 -31.35 87.8 -38.6 94.2 -48.9 94.2 -59.15 94.2 -66.4 87.8 -73.7 81.45 -73.7 72.35" fill="#910000" fill-rule="evenodd" stroke="none"/>
    <path d="M-73.7 72.35 Q-73.7 63.25 -66.4 56.85 -59.15 50.5 -48.9 50.5 -38.6 50.5 -31.35 56.85 -24.1 63.25 -24.1 72.35 -24.1 81.45 -31.35 87.8 -38.6 94.2 -48.9 94.2 -59.15 94.2 -66.4 87.8 -73.7 81.45 -73.7 72.35 Z" fill="none" stroke="#a80f06" stroke-linecap="round" stroke-linejoin="round" stroke-opacity="0.0" stroke-width="6.0"/>
    <path d="M2.3 103.4 Q-3.8 109.65 -12.45 109.65 -21.1 109.65 -27.2 103.4 -33.3 97.15 -33.3 88.3 -33.3 79.5 -27.2 73.25 -21.1 67.0 -12.45 67.0 -3.8 67.0 2.3 73.25 8.4 79.5 8.4 88.3 8.4 97.15 2.3 103.4" fill="#910000" fill-rule="evenodd" stroke="none"/>
    <path d="M2.3 103.4 Q-3.8 109.65 -12.45 109.65 -21.1 109.65 -27.2 103.4 -33.3 97.15 -33.3 88.3 -33.3 79.5 -27.2 73.25 -21.1 67.0 -12.45 67.0 -3.8 67.0 2.3 73.25 8.4 79.5 8.4 88.3 8.4 97.15 2.3 103.4 Z" fill="none" stroke="#a80f06" stroke-linecap="round" stroke-linejoin="round" stroke-opacity="0.0" stroke-width="6.0"/>
    <path d="M28.05 47.35 Q39.85 47.35 48.25 54.6 56.65 61.9 56.65 72.15 56.65 82.4 48.25 89.6 39.85 96.9 28.05 96.9 16.2 96.9 7.8 89.6 -0.6 82.4 -0.6 72.15 -0.6 61.9 7.8 54.6 16.2 47.35 28.05 47.35" fill="#910000" fill-rule="evenodd" stroke="none"/>
    <path d="M28.05 47.35 Q39.85 47.35 48.25 54.6 56.65 61.9 56.65 72.15 56.65 82.4 48.25 89.6 39.85 96.9 28.05 96.9 16.2 96.9 7.8 89.6 -0.6 82.4 -0.6 72.15 -0.6 61.9 7.8 54.6 16.2 47.35 28.05 47.35 Z" fill="none" stroke="#a80f06" stroke-linecap="round" stroke-linejoin="round" stroke-opacity="0.0" stroke-width="6.0"/>
    <path d="M92.1 36.3 Q98.8 44.05 98.8 55.1 98.8 66.1 92.1 73.85 85.5 81.65 76.05 81.65 66.65 81.65 59.95 73.85 53.35 66.1 53.35 55.1 53.35 44.05 59.95 36.3 66.65 28.5 76.05 28.5 85.5 28.5 92.1 36.3" fill="#910000" fill-rule="evenodd" stroke="none"/>
    <path d="M92.1 36.3 Q98.8 44.05 98.8 55.1 98.8 66.1 92.1 73.85 85.5 81.65 76.05 81.65 66.65 81.65 59.95 73.85 53.35 66.1 53.35 55.1 53.35 44.05 59.95 36.3 66.65 28.5 76.05 28.5 85.5 28.5 92.1 36.3 Z" fill="none" stroke="#a80f06" stroke-linecap="round" stroke-linejoin="round" stroke-opacity="0.0" stroke-width="6.0"/>
    <path d="M-89.9 8.4 Q-82.35 -0.65 -71.95 -0.4 -61.6 -0.1 -54.5 9.3 -47.4 18.75 -47.75 31.8 -48.05 44.85 -55.65 53.9 -63.2 63.0 -73.55 62.7 -83.95 62.45 -91.05 53.0 -98.1 43.6 -97.8 30.55 -97.45 17.5 -89.9 8.4" fill="#e01010" fill-rule="evenodd" stroke="none"/>
    <path d="M-78.8 -33.55 Q-70.05 -33.35 -64.05 -25.85 -58.05 -18.25 -58.3 -7.9 -58.55 2.45 -64.95 9.65 -71.35 16.85 -80.1 16.65 -88.85 16.4 -94.85 8.9 -100.8 1.35 -100.55 -9.0 -100.3 -19.35 -93.95 -26.6 -87.55 -33.8 -78.8 -33.55" fill="#e01010" fill-rule="evenodd" stroke="none"/>
    <path d="M-56.45 50.9 Q-51.3 51.05 -47.8 55.5 -44.3 59.95 -44.45 66.2 -44.6 72.4 -48.35 76.7 -52.05 81.0 -57.2 80.85 -62.35 80.75 -65.9 76.25 -69.4 71.8 -69.25 65.6 -69.1 59.35 -65.35 55.05 -61.6 50.8 -56.45 50.9" fill="#e01010" fill-rule="evenodd" stroke="none"/>
    <path d="M9.15 53.3 Q8.8 67.45 -1.15 77.25 -11.05 87.05 -24.8 86.7 -38.55 86.35 -48.05 76.05 -57.45 65.75 -57.1 51.6 -56.7 37.45 -46.8 27.65 -36.8 17.85 -23.05 18.2 -9.3 18.55 0.1 28.85 9.55 39.15 9.15 53.3" fill="#e01010" fill-rule="evenodd" stroke="none"/>
    <path d="M55.35 69.4 Q55.15 77.75 47.25 83.45 39.45 89.25 28.55 88.95 17.65 88.65 10.05 82.55 2.55 76.45 2.75 68.1 2.95 59.75 10.75 54.0 18.65 48.25 29.55 48.55 40.45 48.85 47.95 54.9 55.55 61.05 55.35 69.4" fill="#e01010" fill-rule="evenodd" stroke="none"/>
    <path d="M87.85 38.6 Q95.5 44.9 95.3 53.45 95.05 62.0 87.1 67.85 79.1 73.75 68.0 73.45 56.95 73.2 49.25 66.9 41.6 60.65 41.85 52.1 42.05 43.55 50.0 37.65 58.0 31.8 69.05 32.05 80.15 32.35 87.85 38.6" fill="#e01010" fill-rule="evenodd" stroke="none"/>
    <path d="M-50.6 -38.4 Q-40.45 -38.15 -33.6 -28.05 -26.7 -17.85 -27.05 -3.75 -27.4 10.3 -34.8 20.1 -42.15 29.9 -52.3 29.65 -62.4 29.35 -69.25 19.25 -76.15 9.05 -75.8 -5.0 -75.45 -19.1 -68.05 -28.9 -60.7 -38.7 -50.6 -38.4" fill="#e01010" fill-rule="evenodd" stroke="none"/>
    <path d="M-14.35 -61.4 Q-14.7 -46.75 -24.25 -36.6 -33.8 -26.4 -46.95 -26.75 -60.05 -27.05 -69.1 -37.75 -78.05 -48.35 -77.7 -63.0 -77.3 -77.7 -67.8 -87.85 -58.25 -97.95 -45.15 -97.65 -32.0 -97.3 -22.95 -86.7 -13.95 -76.1 -14.35 -61.4" fill="#e01010" fill-rule="evenodd" stroke="none"/>
    <path d="M18.85 -84.15 Q18.7 -78.2 12.85 -74.2 7.0 -70.15 -1.2 -70.35 -9.45 -70.55 -15.1 -74.9 -20.75 -79.2 -20.6 -85.15 -20.45 -91.1 -14.6 -95.15 -8.7 -99.15 -0.45 -98.95 7.75 -98.75 13.35 -94.45 19.0 -90.1 18.85 -84.15" fill="#e01010" fill-rule="evenodd" stroke="none"/>
    <path d="M21.35 -73.4 Q29.25 -66.55 29.05 -57.2 28.8 -47.8 20.5 -41.35 12.25 -34.9 0.8 -35.2 -10.6 -35.5 -18.6 -42.35 -26.45 -49.2 -26.2 -58.6 -26.0 -67.95 -17.75 -74.4 -9.45 -80.85 1.95 -80.55 13.4 -80.25 21.35 -73.4" fill="#e01010" fill-rule="evenodd" stroke="none"/>
    <path d="M68.7 -79.75 Q68.5 -71.5 61.25 -65.85 54.0 -60.2 44.0 -60.45 34.0 -60.7 27.05 -66.75 20.05 -72.7 20.25 -80.95 20.45 -89.2 27.75 -94.9 35.0 -100.5 45.0 -100.25 55.0 -100.0 61.95 -94.0 68.9 -88.0 68.7 -79.75" fill="#e01010" fill-rule="evenodd" stroke="none"/>
    <path d="M90.35 -32.5 Q83.45 -27.45 73.95 -27.7 64.45 -27.95 57.85 -33.3 51.2 -38.6 51.4 -45.95 51.6 -53.25 58.45 -58.3 65.35 -63.35 74.85 -63.1 84.35 -62.85 90.95 -57.5 97.6 -52.1 97.4 -44.8 97.2 -37.45 90.35 -32.5" fill="#e01010" fill-rule="evenodd" stroke="none"/>
    <path d="M93.7 -33.8 Q101.6 -26.0 101.35 -15.3 101.1 -4.6 92.8 2.7 84.6 10.1 73.2 9.8 61.8 9.5 53.9 1.7 46.1 -6.0 46.35 -16.7 46.6 -27.4 54.8 -34.8 63.1 -42.1 74.5 -41.8 85.9 -41.5 93.7 -33.8" fill="#e01010" fill-rule="evenodd" stroke="none"/>
    <path d="M91.75 32.95 Q85.45 39.1 76.65 38.9 67.9 38.65 61.85 32.2 55.8 25.8 56.05 16.9 56.25 8.0 62.65 1.85 69.0 -4.2 77.75 -3.95 86.55 -3.75 92.55 2.6 98.55 9.05 98.35 17.95 98.1 26.85 91.75 32.95" fill="#e01010" fill-rule="evenodd" stroke="none"/>
    <path d="M38.85 22.95 Q45.75 30.25 45.5 40.3 45.25 50.35 38.0 57.25 30.7 64.15 20.65 63.9 10.6 63.65 3.7 56.4 -3.2 49.1 -2.95 39.05 -2.7 29.0 4.55 22.1 11.85 15.2 21.9 15.45 31.95 15.7 38.85 22.95" fill="#e01010" fill-rule="evenodd" stroke="none"/>
    <path d="M-71.0 -6.3 Q-70.8 0.7 -74.65 5.75 -78.5 10.85 -84.1 11.05 -89.75 11.25 -93.95 6.45 -98.1 1.6 -98.3 -5.4 -98.55 -12.4 -94.8 -17.45 -90.9 -22.6 -85.25 -22.8 -79.65 -23.0 -75.5 -18.15 -71.25 -13.3 -71.0 -6.3" fill="#ff6d6d" fill-rule="evenodd" stroke="none"/>
    <path d="M-52.35 -29.1 Q-44.05 -29.4 -37.9 -21.35 -31.75 -13.3 -31.35 -1.7 -30.95 9.9 -36.55 18.35 -42.15 26.8 -50.45 27.1 -58.8 27.35 -64.9 19.3 -71.1 11.25 -71.5 -0.35 -71.9 -11.95 -66.25 -20.4 -60.7 -28.85 -52.35 -29.1" fill="#ff6d6d" fill-rule="evenodd" stroke="none"/>
    <path d="M-60.05 22.2 Q-54.8 28.25 -54.5 37.0 -54.2 45.75 -59.05 52.15 -63.85 58.55 -71.0 58.8 -78.15 59.05 -83.4 52.95 -88.6 46.95 -88.9 38.2 -89.2 29.45 -84.4 23.0 -79.6 16.65 -72.45 16.4 -65.3 16.15 -60.05 22.2" fill="#ff6d6d" fill-rule="evenodd" stroke="none"/>
    <path d="M-42.7 32.0 Q-34.65 23.4 -22.95 23.0 -11.2 22.6 -2.6 30.6 6.0 38.7 6.4 50.4 6.8 62.15 -1.25 70.7 -9.25 79.35 -21.0 79.75 -32.7 80.15 -41.35 72.1 -49.95 64.05 -50.35 52.3 -50.75 40.6 -42.7 32.0" fill="#ff6d6d" fill-rule="evenodd" stroke="none"/>
    <path d="M-24.95 22.1 Q-24.8 26.85 -28.0 30.3 -31.3 33.75 -36.05 33.95 -40.75 34.1 -44.25 30.85 -47.75 27.6 -47.9 22.85 -48.05 18.1 -44.8 14.65 -41.55 11.2 -36.85 11.05 -32.1 10.85 -28.55 14.1 -25.1 17.35 -24.95 22.1" fill="#ff6d6d" fill-rule="evenodd" stroke="none"/>
    <path d="M45.25 48.05 Q52.25 53.1 52.5 60.65 52.8 68.2 46.1 73.75 39.5 79.25 29.8 79.6 20.15 79.95 13.1 74.85 6.15 69.8 5.85 62.25 5.6 54.7 12.25 49.15 18.9 43.6 28.55 43.25 38.25 42.9 45.25 48.05" fill="#ff6d6d" fill-rule="evenodd" stroke="none"/>
    <path d="M-4.65 -33.0 Q7.75 -33.4 16.9 -23.65 26.0 -13.85 26.5 0.4 27.0 14.65 18.55 25.0 10.1 35.4 -2.3 35.8 -14.7 36.25 -23.85 26.45 -33.0 16.7 -33.5 2.45 -34.0 -11.8 -25.5 -22.2 -17.05 -32.55 -4.65 -33.0" fill="#ff6d6d" fill-rule="evenodd" stroke="none"/>
    <path d="M-7.35 -42.65 Q-7.0 -32.75 -13.55 -25.55 -20.05 -18.3 -29.65 -18.0 -39.2 -17.65 -46.2 -24.4 -53.2 -31.2 -53.55 -41.1 -53.9 -51.0 -47.35 -58.2 -40.8 -65.45 -31.25 -65.8 -21.65 -66.1 -14.7 -59.35 -7.7 -52.55 -7.35 -42.65" fill="#ff6d6d" fill-rule="evenodd" stroke="none"/>
    <path d="M-32.55 -75.45 Q-25.75 -68.8 -25.4 -59.15 -25.1 -49.55 -31.45 -42.55 -37.7 -35.45 -47.0 -35.15 -56.3 -34.85 -63.15 -41.45 -69.9 -48.05 -70.2 -57.65 -70.55 -67.3 -64.25 -74.35 -57.9 -81.4 -48.6 -81.7 -39.3 -82.0 -32.55 -75.45" fill="#ff6d6d" fill-rule="evenodd" stroke="none"/>
    <path d="M13.35 -64.3 Q13.5 -60.1 8.25 -57.0 3.0 -53.8 -4.55 -53.55 -12.1 -53.3 -17.6 -56.1 -23.0 -58.85 -23.15 -63.05 -23.3 -67.25 -18.1 -70.4 -12.8 -73.6 -5.25 -73.85 2.3 -74.1 7.75 -71.3 13.2 -68.5 13.35 -64.3" fill="#ff6d6d" fill-rule="evenodd" stroke="none"/>
    <path d="M41.3 -32.1 Q41.65 -21.4 33.85 -13.5 26.1 -5.65 14.65 -5.25 3.25 -4.85 -5.1 -12.2 -13.45 -19.5 -13.8 -30.2 -14.15 -40.95 -6.35 -48.85 1.45 -56.7 12.85 -57.1 24.3 -57.5 32.6 -50.15 40.95 -42.85 41.3 -32.1" fill="#ff6d6d" fill-rule="evenodd" stroke="none"/>
    <path d="M8.45 -87.55 Q8.55 -84.4 4.9 -82.05 1.2 -79.7 -4.15 -79.5 -9.5 -79.35 -13.4 -81.4 -17.25 -83.55 -17.35 -86.7 -17.45 -89.85 -13.75 -92.2 -10.05 -94.6 -4.7 -94.75 0.65 -94.95 4.55 -92.85 8.35 -90.7 8.45 -87.55" fill="#ff6d6d" fill-rule="evenodd" stroke="none"/>
    <path d="M58.5 -88.9 Q58.65 -84.35 53.6 -80.95 48.55 -77.5 41.25 -77.25 33.95 -77.05 28.65 -80.1 23.35 -83.15 23.2 -87.7 23.05 -92.25 28.15 -95.7 33.2 -99.15 40.5 -99.35 47.8 -99.6 53.1 -96.55 58.35 -93.45 58.5 -88.9" fill="#ff6d6d" fill-rule="evenodd" stroke="none"/>
    <path d="M35.85 -78.6 Q44.2 -78.85 50.4 -70.35 56.6 -61.8 57.0 -49.45 57.45 -37.1 51.85 -28.15 46.25 -19.2 37.9 -18.95 29.5 -18.65 23.3 -27.2 17.1 -35.75 16.65 -48.1 16.25 -60.45 21.85 -69.4 27.45 -78.3 35.85 -78.6" fill="#ff6d6d" fill-rule="evenodd" stroke="none"/>
    <path d="M90.3 -46.75 Q90.55 -39.7 84.8 -34.6 79.05 -29.4 70.75 -29.1 62.4 -28.85 56.35 -33.65 50.3 -38.35 50.05 -45.4 49.8 -52.45 55.55 -57.65 61.25 -62.75 69.6 -63.0 77.9 -63.3 84.0 -58.6 90.05 -53.8 90.3 -46.75" fill="#ff6d6d" fill-rule="evenodd" stroke="none"/>
    <path d="M70.95 -40.85 Q77.15 -41.05 81.75 -35.7 86.35 -30.4 86.6 -22.65 86.85 -14.9 82.65 -9.25 78.45 -3.65 72.25 -3.45 66.05 -3.25 61.4 -8.55 56.8 -13.9 56.55 -21.65 56.3 -29.4 60.5 -35.0 64.75 -40.65 70.95 -40.85" fill="#ff6d6d" fill-rule="evenodd" stroke="none"/>
    <path d="M39.4 33.75 Q39.55 37.65 35.35 40.45 31.1 43.35 25.05 43.55 19.0 43.8 14.7 41.2 10.3 38.6 10.15 34.7 10.0 30.85 14.25 28.0 18.4 25.15 24.45 24.9 30.5 24.7 34.9 27.25 39.25 29.9 39.4 33.75" fill="#ff6d6d" fill-rule="evenodd" stroke="none"/>
    <path d="M64.75 32.25 Q65.05 40.55 58.75 46.55 52.5 52.6 43.3 52.9 34.1 53.2 27.4 47.65 20.75 42.05 20.45 33.75 20.2 25.5 26.45 19.45 32.75 13.4 41.95 13.1 51.15 12.8 57.8 18.35 64.5 24.0 64.75 32.25" fill="#ff6d6d" fill-rule="evenodd" stroke="none"/>
    <path d="M80.35 -0.1 Q84.85 5.75 85.15 14.15 85.4 22.55 81.3 28.65 77.25 34.75 71.2 34.95 65.15 35.15 60.65 29.35 56.2 23.55 55.95 15.15 55.65 6.75 59.7 0.6 63.8 -5.5 69.85 -5.7 75.9 -5.9 80.35 -0.1" fill="#ff6d6d" fill-rule="evenodd" stroke="none"/>
    <path d="M68.95 -13.55 Q73.9 -8.0 74.15 -0.05 74.45 7.95 69.9 13.75 65.4 19.6 58.7 19.85 52.05 20.05 47.15 14.55 42.3 9.05 42.0 1.05 41.75 -6.9 46.2 -12.75 50.75 -18.6 57.4 -18.8 64.1 -19.05 68.95 -13.55" fill="#ff6d6d" fill-rule="evenodd" stroke="none"/>
    <path d="M-22.25 22.8 Q-12.5 22.8 -5.65 29.45 1.25 36.15 1.25 45.65 1.25 55.15 -5.65 61.8 -12.5 68.55 -22.25 68.55 -32.0 68.55 -38.95 61.8 -45.8 55.15 -45.8 45.65 -45.8 36.15 -38.95 29.45 -32.0 22.8 -22.25 22.8" fill="#ff9c9c" fill-rule="evenodd" stroke="none"/>
    <path d="M19.15 0.4 Q19.15 10.85 11.65 18.25 4.2 25.75 -6.3 25.75 -16.85 25.75 -24.35 18.25 -31.8 10.85 -31.8 0.4 -31.8 -10.1 -24.35 -17.55 -16.85 -24.95 -6.3 -24.95 4.2 -24.95 11.65 -17.55 19.15 -10.1 19.15 0.4" fill="#ff9c9c" fill-rule="evenodd" stroke="none"/>
    <path d="M-11.5 -48.4 Q-6.3 -42.95 -6.3 -35.3 -6.3 -27.6 -11.5 -22.2 -16.65 -16.75 -23.95 -16.75 -31.25 -16.75 -36.45 -22.2 -41.6 -27.6 -41.6 -35.3 -41.6 -42.95 -36.45 -48.4 -31.25 -53.8 -23.95 -53.8 -16.65 -53.8 -11.5 -48.4" fill="#ff9c9c" fill-rule="evenodd" stroke="none"/>
    <path d="M48.2 -65.95 Q52.25 -61.3 52.25 -54.75 52.25 -48.2 48.2 -43.55 44.15 -38.9 38.45 -38.9 32.75 -38.9 28.7 -43.55 24.65 -48.2 24.65 -54.75 24.65 -61.3 28.7 -65.95 32.75 -70.6 38.45 -70.6 44.15 -70.6 48.2 -65.95" fill="#ff9c9c" fill-rule="evenodd" stroke="none"/>
    <path d="M14.1 -51.35 Q23.8 -51.35 30.6 -44.55 37.5 -37.65 37.5 -27.95 37.5 -18.25 30.6 -11.4 23.8 -4.5 14.1 -4.5 4.4 -4.5 -2.5 -11.4 -9.35 -18.25 -9.35 -27.95 -9.35 -37.65 -2.5 -44.55 4.4 -51.35 14.1 -51.35" fill="#ff9c9c" fill-rule="evenodd" stroke="none"/>
    <path d="M38.85 -46.35 Q44.7 -52.35 52.85 -52.35 61.05 -52.35 66.85 -46.35 72.7 -40.25 72.7 -31.8 72.7 -23.3 66.85 -17.3 61.05 -11.25 52.85 -11.25 44.7 -11.25 38.85 -17.3 33.05 -23.3 33.05 -31.8 33.05 -40.25 38.85 -46.35" fill="#ff9c9c" fill-rule="evenodd" stroke="none"/>
    <path d="M-35.3 11.65 Q-33.3 11.65 -31.9 13.1 -30.45 14.55 -30.45 16.5 -30.45 18.5 -31.9 19.95 -33.3 21.35 -35.3 21.35 -37.3 21.35 -38.7 19.95 -40.15 18.5 -40.15 16.5 -40.15 14.55 -38.7 13.1 -37.3 11.65 -35.3 11.65" fill="#ff9c9c" fill-rule="evenodd" stroke="none"/>
    <path d="M-79.2 -3.8 Q-81.55 -3.8 -83.2 -6.1 -84.9 -8.4 -84.9 -11.7 -84.9 -15.0 -83.2 -17.3 -81.55 -19.6 -79.2 -19.6 -76.8 -19.6 -75.15 -17.3 -73.45 -15.0 -73.45 -11.7 -73.45 -8.4 -75.15 -6.1 -76.8 -3.8 -79.2 -3.8" fill="#ff9c9c" fill-rule="evenodd" stroke="none"/>
    <path d="M-52.7 -27.0 Q-46.55 -27.0 -42.25 -21.0 -37.9 -14.9 -37.9 -6.3 -37.9 2.25 -42.25 8.3 -46.55 14.4 -52.7 14.4 -58.85 14.4 -63.2 8.3 -67.5 2.25 -67.5 -6.3 -67.5 -14.9 -63.2 -21.0 -58.85 -27.0 -52.7 -27.0" fill="#ff9c9c" fill-rule="evenodd" stroke="none"/>
    <path d="M39.55 -29.1 Q47.0 -29.1 52.2 -23.8 57.5 -18.5 57.5 -11.0 57.5 -3.5 52.2 1.8 47.0 7.1 39.55 7.1 32.05 7.1 26.8 1.8 21.55 -3.5 21.55 -11.0 21.55 -18.5 26.8 -23.8 32.05 -29.1 39.55 -29.1" fill="#ff9c9c" fill-rule="evenodd" stroke="none"/>
    <path d="M27.95 -20.35 Q35.8 -20.35 41.25 -14.85 46.8 -9.35 46.8 -1.5 46.8 6.35 41.25 11.8 35.8 17.35 27.95 17.35 20.15 17.35 14.6 11.8 9.15 6.35 9.15 -1.5 9.15 -9.35 14.6 -14.85 20.15 -20.35 27.95 -20.35" fill="#ff9c9c" fill-rule="evenodd" stroke="none"/>
    <path d="M56.7 22.15 Q56.7 30.15 50.8 35.75 44.9 41.4 36.6 41.4 28.35 41.4 22.45 35.75 16.55 30.15 16.55 22.15 16.55 14.2 22.45 8.55 28.35 2.95 36.6 2.95 44.9 2.95 50.8 8.55 56.7 14.2 56.7 22.15" fill="#ff9c9c" fill-rule="evenodd" stroke="none"/>
    <path d="M62.25 22.2 Q58.85 22.2 56.4 18.5 54.0 14.8 54.0 9.55 54.0 4.25 56.4 0.5 58.85 -3.15 62.25 -3.15 65.7 -3.15 68.1 0.5 70.55 4.25 70.55 9.55 70.55 14.8 68.1 18.5 65.7 22.2 62.25 22.2" fill="#ff9c9c" fill-rule="evenodd" stroke="none"/>
  </g>
</svg>
