<?xml version="1.0" encoding="UTF-8" standalone="no"?>
<svg xmlns:xlink="http://www.w3.org/1999/xlink" height="326.35px" width="360.85px" xmlns="http://www.w3.org/2000/svg">
  <g transform="matrix(1.0, 0.0, 0.0, 1.0, 185.75, 148.5)">
    <path d="M-181.55 -78.95 Q-177.1 -83.4 -170.55 -83.65 -164.0 -83.9 -159.2 -79.8 -154.4 -75.7 -154.2 -69.65 -153.95 -63.6 -158.4 -59.1 -162.85 -54.65 -169.4 -54.4 -175.95 -54.15 -180.75 -58.25 -185.5 -62.35 -185.75 -68.4 -185.95 -74.45 -181.55 -78.95" fill="#583030" fill-rule="evenodd" stroke="none"/>
    <path d="M-161.3 -111.4 Q-154.5 -111.65 -149.45 -106.25 -144.45 -100.8 -144.15 -92.95 -143.85 -85.05 -148.45 -79.3 -153.0 -73.5 -159.8 -73.25 -166.55 -72.95 -171.65 -78.4 -176.6 -83.8 -176.9 -91.7 -177.2 -99.55 -172.65 -105.35 -168.05 -111.1 -161.3 -111.4" fill="#583030" fill-rule="evenodd" stroke="none"/>
    <path d="M-142.6 -97.35 Q-147.0 -92.5 -153.35 -92.25 -159.75 -92.0 -164.45 -96.5 -169.15 -100.95 -169.4 -107.5 -169.65 -114.1 -165.35 -118.95 -160.95 -123.75 -154.55 -124.0 -148.2 -124.25 -143.5 -119.8 -138.8 -115.3 -138.55 -108.7 -138.3 -102.15 -142.6 -97.35" fill="#583030" fill-rule="evenodd" stroke="none"/>
    <path d="M156.9 -140.8 Q164.15 -141.1 169.4 -135.35 174.8 -129.65 175.1 -121.25 175.45 -112.9 170.55 -106.75 165.7 -100.65 158.45 -100.35 151.2 -100.05 145.85 -105.75 140.5 -111.55 140.15 -119.9 139.85 -128.3 144.7 -134.35 149.65 -140.5 156.9 -140.8" fill="#583030" fill-rule="evenodd" stroke="none"/>
    <path d="M14.05 132.0 Q24.3 131.65 31.8 137.6 39.3 143.65 39.65 152.5 40.0 161.35 33.0 167.9 25.95 174.5 15.7 174.85 5.45 175.25 -2.0 169.25 -9.5 163.3 -9.85 154.45 -10.2 145.6 -3.2 138.95 3.8 132.4 14.05 132.0" fill="#583030" fill-rule="evenodd" stroke="none"/>
    <path d="M14.05 132.0 Q24.3 131.65 31.8 137.6 39.3 143.65 39.65 152.5 40.0 161.35 33.0 167.9 25.95 174.5 15.7 174.85 5.45 175.25 -2.0 169.25 -9.5 163.3 -9.85 154.45 -10.2 145.6 -3.2 138.95 3.8 132.4 14.05 132.0 Z" fill="none" stroke="#a80f06" stroke-linecap="round" stroke-linejoin="round" stroke-opacity="0.0" stroke-width="6.0"/>
    <path d="M5.4 136.1 Q7.4 148.1 0.6 157.95 -6.2 167.85 -17.85 169.75 -29.45 171.7 -39.1 164.55 -48.65 157.4 -50.65 145.4 -52.65 133.4 -45.9 123.55 -39.05 113.7 -27.45 111.75 -15.8 109.85 -6.2 116.95 3.4 124.1 5.4 136.1" fill="#913f3f" fill-rule="evenodd" stroke="none"/>
    <path d="M46.95 142.2 Q48.15 149.25 42.45 155.35 36.8 161.45 27.55 163.0 18.3 164.5 10.95 160.55 3.65 156.65 2.45 149.6 1.3 142.5 6.95 136.35 12.65 130.25 21.9 128.75 31.15 127.2 38.45 131.15 45.8 135.1 46.95 142.2" fill="#913f3f" fill-rule="evenodd" stroke="none"/>
    <path d="M-154.35 -79.2 Q-148.75 -80.15 -143.9 -75.3 -138.95 -70.4 -137.65 -62.55 -136.35 -54.7 -139.45 -48.55 -142.5 -42.35 -148.1 -41.4 -153.75 -40.5 -158.6 -45.4 -163.45 -50.2 -164.75 -58.05 -166.05 -65.9 -163.05 -72.15 -160.0 -78.3 -154.35 -79.2" fill="#913f3f" fill-rule="evenodd" stroke="none"/>
    <path d="M-136.75 -95.75 Q-135.4 -87.6 -139.6 -81.0 -143.8 -74.35 -151.1 -73.15 -158.4 -71.95 -164.5 -76.9 -170.6 -81.75 -171.95 -89.9 -173.3 -98.05 -169.1 -104.75 -164.95 -111.35 -157.65 -112.55 -150.35 -113.75 -144.2 -108.85 -138.1 -103.9 -136.75 -95.75" fill="#913f3f" fill-rule="evenodd" stroke="none"/>
    <path d="M-54.8 -137.2 Q-49.85 -134.4 -49.0 -129.4 -48.2 -124.4 -51.95 -120.15 -55.65 -115.85 -61.75 -114.85 -67.8 -113.85 -72.75 -116.7 -77.65 -119.5 -78.45 -124.5 -79.3 -129.5 -75.6 -133.75 -71.8 -138.0 -65.75 -139.0 -59.65 -140.0 -54.8 -137.2" fill="#913f3f" fill-rule="evenodd" stroke="none"/>
    <path d="M155.05 -116.55 Q149.9 -111.0 141.55 -109.6 133.25 -108.25 126.6 -111.8 119.95 -115.35 118.9 -121.8 117.8 -128.2 122.95 -133.75 128.1 -139.3 136.4 -140.65 144.75 -142.05 151.4 -138.5 158.05 -134.9 159.15 -128.5 160.2 -122.05 155.05 -116.55" fill="#913f3f" fill-rule="evenodd" stroke="none"/>
    <path d="M157.9 -118.25 Q166.05 -112.85 167.6 -103.45 169.2 -94.05 163.2 -86.3 157.25 -78.5 147.25 -76.85 137.3 -75.2 129.1 -80.65 121.05 -86.05 119.45 -95.45 117.9 -104.85 123.8 -112.6 129.8 -120.4 139.75 -122.05 149.75 -123.7 157.9 -118.25" fill="#913f3f" fill-rule="evenodd" stroke="none"/>
    <path d="M25.5 105.7 Q32.5 110.7 33.9 119.2 35.3 127.7 30.3 134.7 25.3 141.7 16.75 143.1 8.25 144.5 1.25 139.5 -5.75 134.5 -7.15 126.0 -8.55 117.5 -3.55 110.5 1.45 103.5 9.95 102.1 18.5 100.7 25.5 105.7" fill="#913f3f" fill-rule="evenodd" stroke="none"/>
    <path d="M-39.65 126.95 Q-34.45 118.3 -24.75 115.85 -15.0 113.4 -6.35 118.6 2.35 123.75 4.8 133.5 7.25 143.25 2.0 151.9 -3.15 160.55 -12.9 163.0 -22.6 165.45 -31.3 160.25 -39.9 155.05 -42.35 145.3 -44.8 135.55 -39.65 126.95" fill="#c69090" fill-rule="evenodd" stroke="none"/>
    <path d="M36.8 124.5 Q43.6 127.5 45.2 133.75 46.75 140.05 42.2 145.9 37.65 151.7 29.6 153.75 21.55 155.75 14.75 152.75 8.0 149.8 6.45 143.5 4.85 137.25 9.35 131.35 13.95 125.55 22.0 123.55 30.05 121.5 36.8 124.5" fill="#c69090" fill-rule="evenodd" stroke="none"/>
    <path d="M-55.0 -120.3 Q-48.5 -121.9 -42.55 -117.85 -36.65 -113.7 -34.75 -106.25 -32.9 -98.8 -36.2 -92.4 -39.45 -85.95 -45.95 -84.35 -52.45 -82.7 -58.4 -86.8 -64.3 -90.9 -66.15 -98.35 -68.05 -105.8 -64.75 -112.25 -61.5 -118.65 -55.0 -120.3" fill="#c69090" fill-rule="evenodd" stroke="none"/>
    <path d="M-130.45 -86.1 Q-129.1 -80.7 -131.8 -75.95 -134.5 -71.2 -139.75 -69.9 -144.95 -68.6 -149.6 -71.5 -154.3 -74.4 -155.65 -79.8 -157.0 -85.2 -154.25 -89.9 -151.5 -94.7 -146.3 -96.0 -141.05 -97.3 -136.45 -94.35 -131.8 -91.5 -130.45 -86.1" fill="#c69090" fill-rule="evenodd" stroke="none"/>
    <path d="M-148.25 -101.05 Q-143.7 -98.25 -142.4 -93.0 -141.05 -87.7 -143.75 -83.1 -146.35 -78.5 -151.4 -77.25 -156.45 -76.0 -161.0 -78.8 -165.5 -81.6 -166.85 -86.9 -168.15 -92.15 -165.5 -96.75 -162.8 -101.4 -157.75 -102.65 -152.7 -103.9 -148.25 -101.05" fill="#c69090" fill-rule="evenodd" stroke="none"/>
    <path d="M-58.05 -131.55 Q-57.5 -129.35 -59.95 -127.1 -62.35 -124.85 -66.3 -123.85 -70.25 -122.85 -73.45 -123.7 -76.6 -124.55 -77.15 -126.75 -77.7 -128.95 -75.3 -131.2 -72.9 -133.5 -68.95 -134.5 -65.0 -135.5 -61.8 -134.6 -58.6 -133.75 -58.05 -131.55" fill="#c69090" fill-rule="evenodd" stroke="none"/>
    <path d="M99.45 -148.1 Q106.65 -149.9 113.6 -143.65 120.55 -137.45 123.25 -126.8 125.9 -116.2 122.7 -107.4 119.5 -98.65 112.3 -96.85 105.1 -95.05 98.15 -101.25 91.2 -107.5 88.55 -118.1 85.85 -128.75 89.05 -137.5 92.25 -146.3 99.45 -148.1" fill="#c69090" fill-rule="evenodd" stroke="none"/>
    <path d="M152.65 -130.7 Q154.2 -124.65 150.2 -119.1 146.2 -113.55 139.0 -111.75 131.85 -109.95 125.75 -113.0 119.6 -115.95 118.05 -122.0 116.55 -128.05 120.55 -133.6 124.55 -139.1 131.7 -140.9 138.9 -142.7 145.0 -139.7 151.15 -136.75 152.65 -130.7" fill="#c69090" fill-rule="evenodd" stroke="none"/>
    <path d="M137.0 -121.9 Q142.35 -123.25 147.3 -119.5 152.25 -115.7 153.95 -109.05 155.6 -102.4 153.0 -96.75 150.45 -91.1 145.1 -89.75 139.75 -88.45 134.8 -92.2 129.8 -95.95 128.15 -102.6 126.45 -109.25 129.1 -114.95 131.65 -120.6 137.0 -121.9" fill="#c69090" fill-rule="evenodd" stroke="none"/>
    <path d="M152.65 -88.4 Q157.65 -84.15 159.45 -76.9 161.3 -69.7 158.85 -63.7 156.5 -57.6 151.3 -56.3 146.1 -55.0 141.1 -59.2 136.2 -63.4 134.35 -70.6 132.55 -77.85 134.9 -83.9 137.35 -89.95 142.55 -91.25 147.75 -92.55 152.65 -88.4" fill="#c69090" fill-rule="evenodd" stroke="none"/>
    <path d="M140.4 -97.95 Q145.65 -94.05 147.4 -87.2 149.1 -80.35 146.3 -74.45 143.45 -68.6 137.75 -67.15 132.0 -65.7 126.75 -69.55 121.45 -73.4 119.75 -80.25 118.0 -87.1 120.85 -93.05 123.65 -98.9 129.4 -100.35 135.1 -101.8 140.4 -97.95" fill="#c69090" fill-rule="evenodd" stroke="none"/>
  </g>
</svg>
