<?xml version="1.0" encoding="UTF-8" standalone="no"?>
<svg xmlns:xlink="http://www.w3.org/1999/xlink" height="3.35px" width="3.35px" xmlns="http://www.w3.org/2000/svg">
  <g transform="matrix(1.0, 0.0, 0.0, 1.0, 1.7, 1.7)">
    <path d="M1.1 0.6 L1.15 0.85 1.1 1.05 0.85 1.15 0.65 1.05 0.0 0.4 -0.7 1.1 -0.9 1.15 -1.1 1.05 -1.2 0.85 -1.1 0.6 -0.45 -0.05 -1.1 -0.7 -1.15 -0.9 -1.1 -1.1 -0.85 -1.2 -0.65 -1.1 0.0 -0.45 0.65 -1.1 0.85 -1.2 1.05 -1.1 1.15 -0.9 1.05 -0.7 0.4 -0.05 1.1 0.6" fill="#ffffff" fill-rule="evenodd" stroke="none"/>
    <path d="M1.1 0.6 L0.4 -0.05 1.05 -0.7 1.15 -0.9 1.05 -1.1 0.85 -1.2 0.65 -1.1 0.0 -0.45 -0.65 -1.1 -0.85 -1.2 -1.1 -1.1 -1.15 -0.9 -1.1 -0.7 -0.45 -0.05 -1.1 0.6 -1.2 0.85 -1.1 1.05 -0.9 1.15 -0.7 1.1 0.0 0.4 0.65 1.05 0.85 1.15 1.1 1.05 1.15 0.85 1.1 0.6 Z" fill="none" stroke="#80ffff" stroke-linecap="round" stroke-linejoin="round" stroke-width="1.0"/>
    <path d="M1.1 0.6 L1.15 0.85 1.1 1.05 0.85 1.15 0.65 1.05 0.0 0.4 -0.7 1.1 -0.9 1.15 -1.1 1.05 -1.2 0.85 -1.1 0.6 -0.45 -0.05 -1.1 -0.7 -1.15 -0.9 -1.1 -1.1 -0.85 -1.2 -0.65 -1.1 0.0 -0.45 0.65 -1.1 0.85 -1.2 1.05 -1.1 1.15 -0.9 1.05 -0.7 0.4 -0.05 1.1 0.6" fill="#ffffff" fill-rule="evenodd" stroke="none"/>
  </g>
</svg>
