<?xml version="1.0" encoding="UTF-8" standalone="no"?>
<svg xmlns:xlink="http://www.w3.org/1999/xlink" height="352.4px" width="53.75px" xmlns="http://www.w3.org/2000/svg">
  <g transform="matrix(1.0, 0.0, 0.0, 1.0, 33.0, 349.6)">
    <path d="M-8.75 -347.1 Q-10.4 -345.2 -14.75 -341.5 L-15.1 -341.25 Q-12.75 -341.75 -6.95 -339.85 -1.0 -337.9 -1.0 -336.35 -1.0 -336.05 -14.85 -316.85 -14.85 -315.45 -7.1 -299.0 L-4.2 -300.3 Q-1.7 -301.35 1.5 -301.35 6.85 -301.35 7.35 -295.35 6.85 -288.15 7.0 -285.75 7.15 -283.45 8.1 -277.85 9.0 -272.85 9.0 -270.0 9.0 -259.5 2.5 -258.25 0.45 -257.8 -3.35 -258.2 L-5.25 -255.75 Q-7.75 -252.75 -7.75 -250.4 L-0.25 -245.55 Q4.7 -242.35 6.4 -239.6 L11.5 -239.5 Q13.75 -239.4 15.0 -238.05 16.0 -237.0 16.0 -235.75 16.0 -233.75 5.65 -224.2 L-5.6 -214.35 0.35 -210.0 Q2.0 -208.75 2.0 -206.65 2.0 -205.35 -0.5 -199.4 -1.55 -196.95 -2.35 -195.45 4.95 -194.25 9.25 -190.15 13.75 -185.9 13.75 -180.05 13.75 -177.3 12.65 -176.25 11.75 -175.3 9.05 -174.95 L2.25 -174.25 Q-3.1 -173.55 -8.35 -172.1 -12.95 -170.8 -15.9 -167.2 L-19.85 -161.1 Q-12.0 -157.3 -5.6 -157.65 L3.5 -158.75 Q6.2 -158.75 7.25 -156.85 L7.75 -155.0 Q7.75 -154.3 3.45 -149.4 -1.25 -144.1 -2.0 -142.6 12.55 -134.1 13.95 -131.45 L14.25 -131.45 Q14.55 -131.35 14.55 -130.6 14.55 -129.5 3.0 -119.25 L5.4 -114.4 Q7.75 -109.4 7.75 -108.6 7.75 -106.75 5.6 -102.0 L4.45 -99.6 9.5 -96.1 18.25 -89.05 Q18.25 -88.45 10.35 -82.2 L-0.75 -73.5 Q3.5 -70.75 4.7 -68.75 L5.3 -67.0 Q8.9 -62.15 14.8 -51.5 14.8 -50.55 14.25 -49.6 13.35 -48.1 11.5 -48.1 L11.45 -48.1 7.0 -44.15 Q8.7 -42.75 10.7 -40.05 14.0 -35.6 14.0 -34.8 14.0 -32.0 12.25 -26.55 L15.1 -22.2 15.7 -22.05 Q16.8 -21.4 16.8 -18.0 16.8 -14.55 10.0 -11.7 7.2 -10.55 -4.1 -7.25 L-4.5 -7.0 Q0.9 -6.5 2.25 -4.85 2.8 -4.2 2.8 -1.8 L2.75 -0.1 2.5 0.1 1.5 0.3 Q-0.1 0.3 -0.1 -1.4 L0.25 -3.85 Q-4.45 -5.5 -10.25 -5.5 -11.9 -5.5 -12.4 -5.9 -13.0 -6.4 -13.0 -8.25 -13.0 -10.8 -7.3 -12.85 L3.55 -16.0 Q5.65 -16.65 8.55 -18.55 L9.7 -19.3 9.65 -19.4 9.55 -19.25 Q9.15 -19.55 8.85 -20.25 L4.0 -26.1 -0.5 -22.55 Q-4.35 -19.75 -6.5 -19.75 -8.4 -19.75 -13.5 -31.05 L-14.0 -31.85 -13.95 -32.05 -14.0 -32.1 -13.95 -32.15 Q-13.4 -35.35 -1.3 -44.25 L1.9 -46.5 Q6.8 -51.05 6.8 -51.35 6.8 -52.1 3.25 -56.85 1.55 -59.5 0.7 -62.05 -1.85 -63.4 -5.75 -68.0 -10.75 -73.9 -10.75 -74.65 -10.75 -78.35 -4.8 -81.6 5.8 -87.35 8.5 -89.5 L9.5 -89.85 Q7.4 -91.5 -3.85 -96.75 -4.5 -96.75 -8.55 -91.85 -12.6 -87.0 -14.5 -87.0 -16.55 -87.0 -17.75 -95.65 -18.3 -100.0 -18.5 -104.5 -18.5 -106.8 -3.9 -118.4 L9.8 -128.85 Q6.5 -130.15 0.0 -135.65 -7.85 -142.35 -7.85 -143.0 -7.85 -143.75 -3.1 -150.1 -19.75 -152.3 -23.9 -153.9 -28.25 -155.55 -28.25 -159.85 -28.25 -172.2 -12.6 -177.9 L-15.65 -182.35 Q-18.85 -186.9 -18.85 -187.3 -18.85 -188.6 -12.05 -193.55 -8.6 -196.05 -6.6 -197.1 L-5.25 -200.95 -3.5 -205.8 Q-3.5 -206.9 -8.5 -209.55 -13.5 -212.15 -13.5 -213.5 -13.5 -213.95 -4.75 -222.1 L8.3 -234.35 5.9 -234.4 Q5.25 -233.9 4.5 -233.9 2.95 -233.9 1.35 -234.5 L-4.3 -234.75 Q-6.3 -234.75 -12.35 -232.6 -18.45 -230.5 -20.5 -230.5 -22.7 -230.5 -26.75 -234.15 L-30.3 -237.7 -30.5 -238.4 Q-30.5 -239.8 -22.0 -252.1 L-19.0 -256.35 -18.3 -259.45 Q-17.25 -263.7 -17.25 -264.75 -17.25 -266.2 -18.4 -269.6 -19.6 -273.05 -19.6 -273.75 -19.6 -277.7 -10.1 -294.55 -12.05 -297.1 -15.65 -305.45 -20.5 -316.65 -20.5 -317.55 -20.5 -318.3 -14.6 -325.5 L-6.35 -335.35 -10.4 -337.75 Q-13.3 -338.9 -17.85 -339.1 L-18.05 -339.2 Q-18.25 -339.35 -18.25 -340.1 -18.25 -340.75 -15.2 -343.65 -11.6 -347.1 -8.75 -347.1 M-12.25 -264.5 L-9.05 -263.75 Q-6.0 -263.0 -4.5 -263.0 L1.3 -263.25 2.95 -268.15 Q3.5 -269.8 3.5 -272.25 L2.45 -283.95 1.3 -295.85 1.0 -296.35 Q-3.05 -294.3 -5.0 -293.8 L-8.75 -293.5 -9.15 -293.65 -12.6 -286.15 Q-17.35 -275.55 -17.35 -273.85 L-15.95 -269.55 Q-14.6 -265.35 -14.6 -262.25 L-12.25 -264.5 M-4.5 -193.0 Q-6.15 -193.0 -6.75 -194.4 L-6.95 -195.2 -10.8 -192.15 -17.1 -187.1 Q-15.5 -185.05 -11.1 -181.45 -9.75 -180.35 -9.1 -179.0 L-1.0 -181.05 Q5.15 -182.3 6.0 -182.85 5.35 -184.8 5.6 -186.6 L6.05 -189.6 Q6.05 -190.25 1.4 -191.65 -1.8 -192.6 -3.75 -193.4 -4.15 -193.0 -4.5 -193.0 M0.1 -116.7 L-14.35 -104.15 -13.85 -100.35 Q-13.3 -96.9 -13.25 -95.0 L-13.1 -94.5 -9.15 -99.1 Q-5.35 -103.1 -3.75 -103.1 -1.55 -103.1 2.6 -100.7 6.25 -107.75 6.25 -108.4 6.25 -109.7 3.95 -114.5 L2.15 -118.45 0.1 -116.7 M-5.1 -28.25 Q-4.4 -28.25 -0.95 -30.75 2.5 -33.25 4.25 -33.25 6.55 -33.25 9.85 -29.6 L9.9 -29.75 Q11.5 -33.55 11.5 -34.6 L8.45 -38.0 4.95 -42.4 3.9 -41.55 Q-3.65 -35.3 -8.6 -32.25 -5.8 -28.25 -5.1 -28.25 M-10.35 -258.85 Q-11.95 -258.85 -18.55 -249.7 -23.8 -242.5 -26.85 -239.4 -25.4 -239.1 -24.2 -238.2 L-21.75 -235.6 Q-16.8 -236.2 -10.75 -238.5 -8.3 -239.45 -5.5 -239.7 L-6.1 -240.4 Q-10.75 -245.95 -10.75 -248.3 -10.75 -250.35 -7.75 -254.9 L-5.25 -258.4 -10.35 -258.85" fill="#ffffff" fill-rule="evenodd" stroke="none"/>
    <path d="M-8.75 -347.1 Q-10.4 -345.2 -14.75 -341.5 L-15.1 -341.25 Q-12.75 -341.75 -6.95 -339.85 -1.0 -337.9 -1.0 -336.35 -1.0 -336.05 -14.85 -316.85 -14.85 -315.45 -7.1 -299.0 L-4.2 -300.3 Q-1.7 -301.35 1.5 -301.35 6.85 -301.35 7.35 -295.35 6.85 -288.15 7.0 -285.75 7.15 -283.45 8.1 -277.85 9.0 -272.85 9.0 -270.0 9.0 -259.5 2.5 -258.25 0.45 -257.8 -3.35 -258.2 L-5.25 -255.75 Q-7.75 -252.75 -7.75 -250.4 L-0.25 -245.55 Q4.7 -242.35 6.4 -239.6 L11.5 -239.5 Q13.75 -239.4 15.0 -238.05 16.0 -237.0 16.0 -235.75 16.0 -233.75 5.65 -224.2 L-5.6 -214.35 0.35 -210.0 Q2.0 -208.75 2.0 -206.65 2.0 -205.35 -0.5 -199.4 -1.55 -196.95 -2.35 -195.45 4.95 -194.25 9.25 -190.15 13.75 -185.9 13.75 -180.05 13.75 -177.3 12.65 -176.25 11.75 -175.3 9.05 -174.95 L2.25 -174.25 Q-3.1 -173.55 -8.35 -172.1 -12.95 -170.8 -15.9 -167.2 L-19.85 -161.1 Q-12.0 -157.3 -5.6 -157.65 L3.5 -158.75 Q6.2 -158.75 7.25 -156.85 L7.75 -155.0 Q7.75 -154.3 3.45 -149.4 -1.25 -144.1 -2.0 -142.6 12.55 -134.1 13.95 -131.45 L14.25 -131.45 Q14.55 -131.35 14.55 -130.6 14.55 -129.5 3.0 -119.25 L5.4 -114.4 Q7.75 -109.4 7.75 -108.6 7.75 -106.75 5.6 -102.0 L4.45 -99.6 9.5 -96.1 18.25 -89.05 Q18.25 -88.45 10.35 -82.2 L-0.75 -73.5 Q3.5 -70.75 4.7 -68.75 L5.3 -67.0 Q8.9 -62.15 14.8 -51.5 14.8 -50.55 14.25 -49.6 13.35 -48.1 11.5 -48.1 L11.45 -48.1 7.0 -44.15 Q8.7 -42.75 10.7 -40.05 14.0 -35.6 14.0 -34.8 14.0 -32.0 12.25 -26.55 L15.1 -22.2 15.7 -22.05 Q16.8 -21.4 16.8 -18.0 16.8 -14.55 10.0 -11.7 7.2 -10.55 -4.1 -7.25 L-4.5 -7.0 Q0.9 -6.5 2.25 -4.85 2.8 -4.2 2.8 -1.8 L2.75 -0.1 2.5 0.1 1.5 0.3 Q-0.1 0.3 -0.1 -1.4 L0.25 -3.85 Q-4.45 -5.5 -10.25 -5.5 -11.9 -5.5 -12.4 -5.9 -13.0 -6.4 -13.0 -8.25 -13.0 -10.8 -7.3 -12.85 L3.55 -16.0 Q5.65 -16.65 8.55 -18.55 L9.7 -19.3 9.65 -19.4 9.55 -19.25 Q9.15 -19.55 8.85 -20.25 L4.0 -26.1 -0.5 -22.55 Q-4.35 -19.75 -6.5 -19.75 -8.4 -19.75 -13.5 -31.05 L-14.0 -31.85 -13.95 -32.05 -14.0 -32.1 -13.95 -32.15 Q-13.4 -35.35 -1.3 -44.25 L1.9 -46.5 Q6.8 -51.05 6.8 -51.35 6.8 -52.1 3.25 -56.85 1.55 -59.5 0.7 -62.05 -1.85 -63.4 -5.75 -68.0 -10.75 -73.9 -10.75 -74.65 -10.75 -78.35 -4.8 -81.6 5.8 -87.35 8.5 -89.5 L9.5 -89.85 Q7.4 -91.5 -3.85 -96.75 -4.5 -96.75 -8.55 -91.85 -12.6 -87.0 -14.5 -87.0 -16.55 -87.0 -17.75 -95.65 -18.3 -100.0 -18.5 -104.5 -18.5 -106.8 -3.9 -118.4 L9.8 -128.85 Q6.5 -130.15 0.0 -135.65 -7.85 -142.35 -7.85 -143.0 -7.85 -143.75 -3.1 -150.1 -19.75 -152.3 -23.9 -153.9 -28.25 -155.55 -28.25 -159.85 -28.25 -172.2 -12.6 -177.9 L-15.65 -182.35 Q-18.85 -186.9 -18.85 -187.3 -18.85 -188.6 -12.05 -193.55 -8.6 -196.05 -6.6 -197.1 L-5.25 -200.95 -3.5 -205.8 Q-3.5 -206.9 -8.5 -209.55 -13.5 -212.15 -13.5 -213.5 -13.5 -213.95 -4.75 -222.1 L8.3 -234.35 5.9 -234.4 Q5.25 -233.9 4.5 -233.9 2.95 -233.9 1.35 -234.5 L-4.3 -234.75 Q-6.3 -234.75 -12.35 -232.6 -18.45 -230.5 -20.5 -230.5 -22.7 -230.5 -26.75 -234.15 L-30.3 -237.7 -30.5 -238.4 Q-30.5 -239.8 -22.0 -252.1 L-19.0 -256.35 -18.3 -259.45 Q-17.25 -263.7 -17.25 -264.75 -17.25 -266.2 -18.4 -269.6 -19.6 -273.05 -19.6 -273.75 -19.6 -277.7 -10.1 -294.55 -12.05 -297.1 -15.65 -305.45 -20.5 -316.65 -20.5 -317.55 -20.5 -318.3 -14.6 -325.5 L-6.35 -335.35 -10.4 -337.75 Q-13.3 -338.9 -17.85 -339.1 L-18.05 -339.2 Q-18.25 -339.35 -18.25 -340.1 -18.25 -340.75 -15.2 -343.65 -11.6 -347.1 -8.75 -347.1 M-12.25 -264.5 L-9.05 -263.75 Q-6.0 -263.0 -4.5 -263.0 L1.3 -263.25 2.95 -268.15 Q3.5 -269.8 3.5 -272.25 L2.45 -283.95 1.3 -295.85 1.0 -296.35 Q-3.05 -294.3 -5.0 -293.8 L-8.75 -293.5 -9.15 -293.65 -12.6 -286.15 Q-17.35 -275.55 -17.35 -273.85 L-15.95 -269.55 Q-14.6 -265.35 -14.6 -262.25 L-12.25 -264.5 M-4.5 -193.0 Q-6.15 -193.0 -6.75 -194.4 L-6.95 -195.2 -10.8 -192.15 -17.1 -187.1 Q-15.5 -185.05 -11.1 -181.45 -9.75 -180.35 -9.1 -179.0 L-1.0 -181.05 Q5.15 -182.3 6.0 -182.85 5.35 -184.8 5.6 -186.6 L6.05 -189.6 Q6.05 -190.25 1.4 -191.65 -1.8 -192.6 -3.75 -193.4 -4.15 -193.0 -4.5 -193.0 M0.1 -116.7 L-14.35 -104.15 -13.85 -100.35 Q-13.3 -96.9 -13.25 -95.0 L-13.1 -94.5 -9.15 -99.1 Q-5.35 -103.1 -3.75 -103.1 -1.55 -103.1 2.6 -100.7 6.25 -107.75 6.25 -108.4 6.25 -109.7 3.95 -114.5 L2.15 -118.45 0.1 -116.7 M-5.1 -28.25 Q-4.4 -28.25 -0.95 -30.75 2.5 -33.25 4.25 -33.25 6.55 -33.25 9.85 -29.6 L9.9 -29.75 Q11.5 -33.55 11.5 -34.6 L8.45 -38.0 4.95 -42.4 3.9 -41.55 Q-3.65 -35.3 -8.6 -32.25 -5.8 -28.25 -5.1 -28.25 M-10.35 -258.85 Q-11.95 -258.85 -18.55 -249.7 -23.8 -242.5 -26.85 -239.4 -25.4 -239.1 -24.2 -238.2 L-21.75 -235.6 Q-16.8 -236.2 -10.75 -238.5 -8.3 -239.45 -5.5 -239.7 L-6.1 -240.4 Q-10.75 -245.95 -10.75 -248.3 -10.75 -250.35 -7.75 -254.9 L-5.25 -258.4 -10.35 -258.85" fill="none" stroke="#a100b4" stroke-linecap="round" stroke-linejoin="round" stroke-width="5.0"/>
    <path d="M-8.75 -347.1 Q-10.4 -345.2 -14.75 -341.5 L-15.1 -341.25 Q-12.75 -341.75 -6.95 -339.85 -1.0 -337.9 -1.0 -336.35 -1.0 -336.05 -14.85 -316.85 -14.85 -315.45 -7.1 -299.0 L-4.2 -300.3 Q-1.7 -301.35 1.5 -301.35 6.85 -301.35 7.35 -295.35 6.85 -288.15 7.0 -285.75 7.15 -283.45 8.1 -277.85 9.0 -272.85 9.0 -270.0 9.0 -259.5 2.5 -258.25 0.45 -257.8 -3.35 -258.2 L-5.25 -255.75 Q-7.75 -252.75 -7.75 -250.4 L-0.25 -245.55 Q4.7 -242.35 6.4 -239.6 L11.5 -239.5 Q13.75 -239.4 15.0 -238.05 16.0 -237.0 16.0 -235.75 16.0 -233.75 5.65 -224.2 L-5.6 -214.35 0.35 -210.0 Q2.0 -208.75 2.0 -206.65 2.0 -205.35 -0.5 -199.4 -1.55 -196.95 -2.35 -195.45 4.95 -194.25 9.25 -190.15 13.75 -185.9 13.75 -180.05 13.75 -177.3 12.65 -176.25 11.75 -175.3 9.05 -174.95 L2.25 -174.25 Q-3.1 -173.55 -8.35 -172.1 -12.95 -170.8 -15.9 -167.2 L-19.85 -161.1 Q-12.0 -157.3 -5.6 -157.65 L3.5 -158.75 Q6.2 -158.75 7.25 -156.85 L7.75 -155.0 Q7.75 -154.3 3.45 -149.4 -1.25 -144.1 -2.0 -142.6 12.55 -134.1 13.95 -131.45 L14.25 -131.45 Q14.55 -131.35 14.55 -130.6 14.55 -129.5 3.0 -119.25 L5.4 -114.4 Q7.75 -109.4 7.75 -108.6 7.75 -106.75 5.6 -102.0 L4.45 -99.6 9.5 -96.1 18.25 -89.05 Q18.25 -88.45 10.35 -82.2 L-0.75 -73.5 Q3.5 -70.75 4.7 -68.75 L5.3 -67.0 Q8.9 -62.15 14.8 -51.5 14.8 -50.55 14.25 -49.6 13.35 -48.1 11.5 -48.1 L11.45 -48.1 7.0 -44.15 Q8.7 -42.75 10.7 -40.05 14.0 -35.6 14.0 -34.8 14.0 -32.0 12.25 -26.55 L15.1 -22.2 15.7 -22.05 Q16.8 -21.4 16.8 -18.0 16.8 -14.55 10.0 -11.7 7.2 -10.55 -4.1 -7.25 L-4.5 -7.0 Q0.9 -6.5 2.25 -4.85 2.8 -4.2 2.8 -1.8 L2.75 -0.1 2.5 0.1 1.5 0.3 Q-0.1 0.3 -0.1 -1.4 L0.25 -3.85 Q-4.45 -5.5 -10.25 -5.5 -11.9 -5.5 -12.4 -5.9 -13.0 -6.4 -13.0 -8.25 -13.0 -10.8 -7.3 -12.85 L3.55 -16.0 Q5.65 -16.65 8.55 -18.55 L9.7 -19.3 9.65 -19.4 9.55 -19.25 Q9.15 -19.55 8.85 -20.25 L4.0 -26.1 -0.5 -22.55 Q-4.35 -19.75 -6.5 -19.75 -8.4 -19.75 -13.5 -31.05 L-14.0 -31.85 -13.95 -32.05 -14.0 -32.1 -13.95 -32.15 Q-13.4 -35.35 -1.3 -44.25 L1.9 -46.5 Q6.8 -51.05 6.8 -51.35 6.8 -52.1 3.25 -56.85 1.55 -59.5 0.7 -62.05 -1.85 -63.4 -5.75 -68.0 -10.75 -73.9 -10.75 -74.65 -10.75 -78.35 -4.8 -81.6 5.8 -87.35 8.5 -89.5 L9.5 -89.85 Q7.4 -91.5 -3.85 -96.75 -4.5 -96.75 -8.55 -91.85 -12.6 -87.0 -14.5 -87.0 -16.55 -87.0 -17.75 -95.65 -18.3 -100.0 -18.5 -104.5 -18.5 -106.8 -3.9 -118.4 L9.8 -128.85 Q6.5 -130.15 0.0 -135.65 -7.85 -142.35 -7.85 -143.0 -7.85 -143.75 -3.1 -150.1 -19.75 -152.3 -23.9 -153.9 -28.25 -155.55 -28.25 -159.85 -28.25 -172.2 -12.6 -177.9 L-15.65 -182.35 Q-18.85 -186.9 -18.85 -187.3 -18.85 -188.6 -12.05 -193.55 -8.6 -196.05 -6.6 -197.1 L-5.25 -200.95 -3.5 -205.8 Q-3.5 -206.9 -8.5 -209.55 -13.5 -212.15 -13.5 -213.5 -13.5 -213.95 -4.75 -222.1 L8.3 -234.35 5.9 -234.4 Q5.25 -233.9 4.5 -233.9 2.95 -233.9 1.35 -234.5 L-4.3 -234.75 Q-6.3 -234.75 -12.35 -232.6 -18.45 -230.5 -20.5 -230.5 -22.7 -230.5 -26.75 -234.15 L-30.3 -237.7 -30.5 -238.4 Q-30.5 -239.8 -22.0 -252.1 L-19.0 -256.35 -18.3 -259.45 Q-17.25 -263.7 -17.25 -264.75 -17.25 -266.2 -18.4 -269.6 -19.6 -273.05 -19.6 -273.75 -19.6 -277.7 -10.1 -294.55 -12.05 -297.1 -15.65 -305.45 -20.5 -316.65 -20.5 -317.55 -20.5 -318.3 -14.6 -325.5 L-6.35 -335.35 -10.4 -337.75 Q-13.3 -338.9 -17.85 -339.1 L-18.05 -339.2 Q-18.25 -339.35 -18.25 -340.1 -18.25 -340.75 -15.2 -343.65 -11.6 -347.1 -8.75 -347.1 M-12.25 -264.5 L-9.05 -263.75 Q-6.0 -263.0 -4.5 -263.0 L1.3 -263.25 2.95 -268.15 Q3.5 -269.8 3.5 -272.25 L2.45 -283.95 1.3 -295.85 1.0 -296.35 Q-3.05 -294.3 -5.0 -293.8 L-8.75 -293.5 -9.15 -293.65 -12.6 -286.15 Q-17.35 -275.55 -17.35 -273.85 L-15.95 -269.55 Q-14.6 -265.35 -14.6 -262.25 L-12.25 -264.5 M-4.5 -193.0 Q-6.15 -193.0 -6.75 -194.4 L-6.95 -195.2 -10.8 -192.15 -17.1 -187.1 Q-15.5 -185.05 -11.1 -181.45 -9.75 -180.35 -9.1 -179.0 L-1.0 -181.05 Q5.15 -182.3 6.0 -182.85 5.35 -184.8 5.6 -186.6 L6.05 -189.6 Q6.05 -190.25 1.4 -191.65 -1.8 -192.6 -3.75 -193.4 -4.15 -193.0 -4.5 -193.0 M0.1 -116.7 L-14.35 -104.15 -13.85 -100.35 Q-13.3 -96.9 -13.25 -95.0 L-13.1 -94.5 -9.15 -99.1 Q-5.35 -103.1 -3.75 -103.1 -1.55 -103.1 2.6 -100.7 6.25 -107.75 6.25 -108.4 6.25 -109.7 3.95 -114.5 L2.15 -118.45 0.1 -116.7 M-5.1 -28.25 Q-4.4 -28.25 -0.95 -30.75 2.5 -33.25 4.25 -33.25 6.55 -33.25 9.85 -29.6 L9.9 -29.75 Q11.5 -33.55 11.5 -34.6 L8.45 -38.0 4.95 -42.4 3.9 -41.55 Q-3.65 -35.3 -8.6 -32.25 -5.8 -28.25 -5.1 -28.25 M-10.35 -258.85 Q-11.95 -258.85 -18.55 -249.7 -23.8 -242.5 -26.85 -239.4 -25.4 -239.1 -24.2 -238.2 L-21.75 -235.6 Q-16.8 -236.2 -10.75 -238.5 -8.3 -239.45 -5.5 -239.7 L-6.1 -240.4 Q-10.75 -245.95 -10.75 -248.3 -10.75 -250.35 -7.75 -254.9 L-5.25 -258.4 -10.35 -258.85" fill="#ffffff" fill-rule="evenodd" stroke="none"/>
  </g>
</svg>
