<?xml version="1.0" encoding="UTF-8" standalone="no"?>
<svg xmlns:xlink="http://www.w3.org/1999/xlink" height="63.45px" width="129.85px" xmlns="http://www.w3.org/2000/svg">
  <g transform="matrix(1.0, 0.0, 0.0, 1.0, 62.45, 31.2)">
    <path d="M65.4 -29.2 L65.4 30.25 -60.45 30.25 -60.45 -29.2 65.4 -29.2 Z" fill="none" stroke="#ffcc33" stroke-linecap="round" stroke-linejoin="round" stroke-width="4.0"/>
    <path d="M65.4 -29.2 L65.4 30.25 -60.45 30.25 -60.45 -29.2 65.4 -29.2" fill="#7987a1" fill-rule="evenodd" stroke="none"/>
    <path d="M-50.4 0.55 L28.8 0.55" fill="none" stroke="#ffffff" stroke-linecap="square" stroke-linejoin="miter" stroke-miterlimit="3.0" stroke-width="3.0"/>
    <path d="M65.4 -21.55 L65.4 -15.9 54.15 -29.2 58.95 -29.2 65.45 -21.55 65.4 -21.55 M49.35 30.25 L40.25 19.55 42.6 16.75 54.15 30.25 49.35 30.25 M40.25 -1.95 L42.6 -4.75 65.95 22.65 65.4 22.05 65.4 27.7 40.25 -1.95 M40.25 -24.05 L42.6 -26.85 65.95 0.55 65.4 -0.05 65.4 5.6 40.25 -24.05" fill="#ffffff" fill-rule="evenodd" stroke="none"/>
    <path d="M41.1 -28.2 L41.1 29.7" fill="none" stroke="#ffcc33" stroke-linecap="square" stroke-linejoin="round" stroke-width="3.0"/>
  </g>
</svg>
