<?xml version="1.0" encoding="UTF-8" standalone="no"?>
<svg xmlns:xlink="http://www.w3.org/1999/xlink" height="74.5px" width="195.4px" xmlns="http://www.w3.org/2000/svg">
  <g transform="matrix(1.0, 0.0, 0.0, 1.0, 99.1, -102.85)">
    <path d="M90.3 140.55 L89.45 145.5 78.55 147.0 -1.35 135.5 -75.95 171.35 -84.5 169.25 -93.1 167.05 -86.65 152.35 -8.9 110.4 -12.8 118.6 -6.0 118.3 -8.5 125.75 -0.25 125.4 -2.25 131.6 4.0 124.85 -0.1 119.55 5.55 119.5 -1.65 108.85 82.75 131.15 90.3 140.55" fill="#ffffff" fill-rule="evenodd" stroke="none"/>
    <path d="M90.3 140.55 L89.45 145.5 78.55 147.0 -1.35 135.5 -75.95 171.35 -84.5 169.25 -93.1 167.05 -86.65 152.35 -8.9 110.4 -12.8 118.6 -6.0 118.3 -8.5 125.75 -0.25 125.4 -2.25 131.6 4.0 124.85 -0.1 119.55 5.55 119.5 -1.65 108.85 82.75 131.15 90.3 140.55 Z" fill="none" stroke="#3ea7d4" stroke-linecap="square" stroke-linejoin="round" stroke-width="9.0"/>
    <path d="M78.55 147.0 L-1.35 135.5 -75.95 171.35 -84.5 169.25 -93.1 167.05 -86.65 152.35 -8.9 110.4 -12.8 118.6 -6.0 118.3 -8.5 125.75 -0.25 125.4 -2.25 131.6 4.0 124.85 -0.1 119.55 5.55 119.5 -1.65 108.85 82.75 131.15 90.3 140.55 89.45 145.5 78.55 147.0" fill="#5fd6ff" fill-rule="evenodd" stroke="none"/>
    <path d="M89.45 145.5 L78.55 147.0 -1.35 135.5 -75.95 171.35 -84.5 169.25 -93.1 167.05 -92.15 165.0 -77.9 163.15 -11.65 124.55 -8.0 124.3 -8.5 125.75 -0.25 125.4 -2.25 131.6 4.0 124.85 2.95 123.5 9.6 123.0 89.75 143.45 89.45 145.5" fill="#4dbee5" fill-rule="evenodd" stroke="none"/>
  </g>
</svg>
