<?xml version="1.0" encoding="UTF-8" standalone="no"?>
<svg xmlns:xlink="http://www.w3.org/1999/xlink" height="63.5px" width="35.1px" xmlns="http://www.w3.org/2000/svg">
  <g transform="matrix(1.0, 0.0, 0.0, 1.0, 17.6, 39.55)">
    <path d="M14.5 -32.8 Q16.0 -27.55 16.0 -20.05 16.0 -12.6 14.5 -7.3 13.1 -2.05 11.0 -2.05 9.9 -2.05 8.15 -10.4 6.4 -18.85 6.4 -24.65 6.4 -30.05 8.15 -34.35 9.7 -38.05 11.0 -38.05 13.1 -38.05 14.5 -32.8 Z" fill="none" stroke="#3c3c3c" stroke-linecap="round" stroke-linejoin="round" stroke-width="3.0"/>
    <path d="M11.0 -38.05 Q13.1 -38.05 14.5 -32.8 16.0 -27.55 16.0 -20.05 16.0 -12.6 14.5 -7.3 13.1 -2.05 11.0 -2.05 9.9 -2.05 8.15 -10.4 6.4 -18.85 6.4 -24.65 6.4 -30.05 8.15 -34.35 9.7 -38.05 11.0 -38.05" fill="#9a9a9a" fill-rule="evenodd" stroke="none"/>
    <path d="M11.5 18.45 Q12.05 15.4 12.05 11.05 12.05 6.7 11.5 3.65 11.0 0.6 10.3 0.6 9.95 0.6 9.35 5.4 8.75 10.35 8.75 13.7 8.75 16.85 9.35 19.35 9.85 21.55 10.3 21.55 11.0 21.55 11.5 18.45 Z" fill="none" stroke="#3c3c3c" stroke-linecap="round" stroke-linejoin="round" stroke-width="3.0"/>
    <path d="M10.3 21.55 Q11.0 21.55 11.5 18.45 12.05 15.4 12.05 11.05 12.05 6.7 11.5 3.65 11.0 0.6 10.3 0.6 9.95 0.6 9.35 5.4 8.75 10.35 8.75 13.7 8.75 16.85 9.35 19.35 9.85 21.55 10.3 21.55" fill="#9a9a9a" fill-rule="evenodd" stroke="none"/>
    <path d="M-3.85 -7.45 Q-1.05 -10.25 2.9 -10.25 6.85 -10.25 9.65 -7.45 12.45 -4.65 12.45 -0.7 12.45 3.3 9.65 6.15 6.85 8.9 2.9 8.9 -1.05 8.9 -3.85 6.15 -6.65 3.3 -6.65 -0.7 -6.65 -4.65 -3.85 -7.45 Z" fill="none" stroke="#3c3c3c" stroke-linecap="round" stroke-linejoin="round" stroke-width="4.0"/>
    <path d="M-3.85 -7.45 Q-1.05 -10.25 2.9 -10.25 6.85 -10.25 9.65 -7.45 12.45 -4.65 12.45 -0.7 12.45 3.3 9.65 6.15 6.85 8.9 2.9 8.9 -1.05 8.9 -3.85 6.15 -6.65 3.3 -6.65 -0.7 -6.65 -4.65 -3.85 -7.45" fill="#9a9a9a" fill-rule="evenodd" stroke="none"/>
    <path d="M-6.45 -5.35 Q-5.9 -2.5 -3.7 -0.35 -0.75 2.4 3.35 2.4 7.5 2.4 10.45 -0.35 L11.9 -2.05 Q11.55 1.25 9.2 3.7 6.45 6.45 2.6 6.45 -1.2 6.45 -3.95 3.7 -6.65 0.85 -6.65 -3.15 L-6.45 -5.35" fill="#6b6b6b" fill-rule="evenodd" stroke="none"/>
    <path d="M-12.8 -22.1 Q-6.5 -22.2 -2.15 -21.0 1.2 -20.1 2.5 -18.8 4.4 -16.9 5.1 -13.35 5.8 -9.5 5.8 -0.05 5.8 9.4 5.1 13.25 4.4 16.75 2.5 18.65 1.2 20.0 -2.15 20.85 -6.5 22.05 -12.8 21.95 -15.7 11.2 -15.6 -0.05 L-15.6 -0.1 Q-15.7 -11.35 -12.8 -22.1 Z" fill="none" stroke="#00476d" stroke-linecap="round" stroke-linejoin="round" stroke-width="4.0"/>
    <path d="M-2.15 -21.0 Q1.2 -20.1 2.5 -18.8 4.4 -16.9 5.1 -13.35 5.8 -9.5 5.8 -0.05 5.8 9.4 5.1 13.25 4.4 16.75 2.5 18.65 1.2 20.0 -2.15 20.85 -6.5 22.05 -12.8 21.95 -15.7 11.2 -15.6 -0.05 L-15.6 -0.1 Q-15.7 -11.35 -12.8 -22.1 -6.5 -22.2 -2.15 -21.0" fill="#3cb2f3" fill-rule="evenodd" stroke="none"/>
    <path d="M-13.7 13.25 Q-6.5 13.3 -1.4 12.15 2.65 11.3 4.25 9.95 L4.85 9.4 Q4.05 12.1 2.5 13.65 1.2 15.0 -2.15 15.85 -6.5 17.05 -12.8 16.95 L-13.7 13.25" fill="#006aa3" fill-rule="evenodd" stroke="none"/>
    <path d="M2.5 -18.8 Q4.4 -16.9 5.1 -13.35 5.8 -9.5 5.8 -0.05 5.8 9.4 5.1 13.25 4.4 16.7 2.6 18.55 L2.6 18.7 Q1.35 10.55 1.35 -0.65 1.35 -11.1 2.4 -18.9 L2.5 -18.8" fill="#006aa3" fill-rule="evenodd" stroke="none"/>
    <path d="M14.5 -32.8 Q16.0 -27.55 16.0 -20.05 16.0 -12.6 14.5 -7.3 13.1 -2.05 11.0 -2.05 9.9 -2.05 8.15 -10.4 6.4 -18.85 6.4 -24.65 6.4 -30.05 8.15 -34.35 9.7 -38.05 11.0 -38.05 13.1 -38.05 14.5 -32.8 Z" fill="none" stroke="#3c3c3c" stroke-linecap="round" stroke-linejoin="round" stroke-width="3.0"/>
    <path d="M11.0 -38.05 Q13.1 -38.05 14.5 -32.8 16.0 -27.55 16.0 -20.05 16.0 -12.6 14.5 -7.3 13.1 -2.05 11.0 -2.05 9.9 -2.05 8.15 -10.4 6.4 -18.85 6.4 -24.65 6.4 -30.05 8.15 -34.35 9.7 -38.05 11.0 -38.05" fill="#9a9a9a" fill-rule="evenodd" stroke="none"/>
  </g>
</svg>
