<?xml version="1.0" encoding="UTF-8" standalone="no"?>
<svg xmlns:xlink="http://www.w3.org/1999/xlink" height="99.45px" width="114.45px" xmlns="http://www.w3.org/2000/svg">
  <g transform="matrix(1.0, 0.0, 0.0, 1.0, 10.5, 8.3)">
    <path d="M18.9 -2.4 Q35.35 0.1 47.6 4.6 60.5 9.35 75.1 19.95 86.25 28.05 91.5 33.9 93.2 35.8 92.7 41.3 L88.1 42.15 88.8 47.35 80.55 47.5 Q80.85 42.3 77.65 40.0 76.6 39.25 75.3 38.9 L74.2 38.7 76.8 40.85 Q79.3 43.85 78.8 47.9 78.3 52.1 74.65 53.95 72.2 55.15 69.4 55.0 68.6 57.7 66.75 60.55 64.75 63.65 62.1 65.9 L53.4 57.5 57.5 53.05 Q61.45 48.1 60.8 45.6 60.35 43.85 54.65 39.2 48.45 34.25 37.8 27.4 28.65 21.55 10.25 12.85 1.1 8.55 -6.2 5.35 L4.85 -4.0 18.9 -2.4 M88.95 48.7 L90.35 59.55 90.05 65.75 80.55 66.0 81.25 48.9 88.95 48.7 M97.75 41.7 L99.65 56.7 91.4 58.3 89.55 43.3 97.75 41.7 M79.05 67.45 L80.45 67.45 79.2 85.75 69.7 86.85 70.0 57.1 71.55 56.95 Q73.35 56.65 74.95 55.95 78.4 54.35 79.75 51.2 L79.05 67.45" fill="#1c1a17" fill-rule="evenodd" stroke="none"/>
    <path d="M18.9 -2.4 Q35.35 0.1 47.6 4.6 60.5 9.35 75.1 19.95 86.25 28.05 91.5 33.9 93.2 35.8 92.7 41.3 L88.1 42.15 88.8 47.35 80.55 47.5 Q80.85 42.3 77.65 40.0 76.6 39.25 75.3 38.9 L74.2 38.7 76.8 40.85 Q79.3 43.85 78.8 47.9 78.3 52.1 74.65 53.95 72.2 55.15 69.4 55.0 68.6 57.7 66.75 60.55 64.75 63.65 62.1 65.9 L53.4 57.5 57.5 53.05 Q61.45 48.1 60.8 45.6 60.35 43.85 54.65 39.2 48.45 34.25 37.8 27.4 28.65 21.55 10.25 12.85 1.1 8.55 -6.2 5.35 L4.85 -4.0 18.9 -2.4 M88.95 48.7 L90.35 59.55 90.05 65.75 80.55 66.0 81.25 48.9 88.95 48.7 M97.75 41.7 L99.65 56.7 91.4 58.3 89.55 43.3 97.75 41.7 M79.05 67.45 L79.75 51.2 Q78.4 54.35 74.95 55.95 73.35 56.65 71.55 56.95 L70.0 57.1 69.7 86.85 79.2 85.75 80.45 67.45 79.05 67.45" fill="none" stroke="#1c1a17" stroke-linecap="round" stroke-linejoin="round" stroke-width="8.6"/>
    <path d="M18.9 -2.4 Q35.35 0.1 47.6 4.6 60.5 9.35 75.1 19.95 86.25 28.05 91.5 33.9 93.2 35.8 92.7 41.3 L88.1 42.15 88.8 47.35 80.55 47.5 Q80.85 42.3 77.65 40.0 76.6 39.25 75.3 38.9 L74.2 38.7 76.8 40.85 Q79.3 43.85 78.8 47.9 78.3 52.1 74.65 53.95 72.2 55.15 69.4 55.0 68.6 57.7 66.75 60.55 64.75 63.65 62.1 65.9 L53.4 57.5 57.5 53.05 Q61.45 48.1 60.8 45.6 60.35 43.85 54.65 39.2 48.45 34.25 37.8 27.4 28.65 21.55 10.25 12.85 1.1 8.55 -6.2 5.35 L4.85 -4.0 18.9 -2.4 M97.75 41.7 L99.65 56.7 91.4 58.3 89.55 43.3 97.75 41.7 M88.95 48.7 L90.35 59.55 90.05 65.75 80.55 66.0 81.25 48.9 88.95 48.7 M79.05 67.45 L80.45 67.45 79.2 85.75 69.7 86.85 70.0 57.1 71.55 56.95 Q73.35 56.65 74.95 55.95 78.4 54.35 79.75 51.2 L79.05 67.45" fill="#bf7926" fill-rule="evenodd" stroke="none"/>
    <path d="M18.9 -2.4 Q35.35 0.1 47.6 4.6 56.5 7.85 66.3 13.9 L65.3 13.35 70.95 17.0 70.5 16.7 73.7 18.95 Q86.25 28.05 91.5 33.9 92.05 34.55 92.4 35.6 86.65 34.0 81.5 31.2 83.0 34.0 83.5 39.15 73.5 37.9 67.0 32.8 69.35 38.5 68.7 44.5 64.3 44.25 60.1 41.0 61.3 43.45 60.7 45.3 59.9 43.5 54.65 39.2 49.15 34.8 40.15 28.9 L37.8 27.4 Q28.65 21.55 10.25 12.85 1.1 8.55 -6.2 5.35 L4.85 -4.0 18.9 -2.4" fill="#70381f" fill-rule="evenodd" stroke="none"/>
    <path d="M18.9 -2.4 Q35.35 0.1 47.6 4.6 60.5 9.35 75.1 19.95 81.6 24.65 86.1 28.6 67.75 28.5 60.9 46.8 L60.8 45.6 Q60.35 43.85 54.65 39.2 48.45 34.25 37.8 27.4 28.65 21.55 10.25 12.85 1.1 8.55 -6.2 5.35 L4.85 -4.0 18.9 -2.4" fill="#62594e" fill-rule="evenodd" stroke="none"/>
  </g>
</svg>
