<?xml version="1.0" encoding="UTF-8" standalone="no"?>
<svg xmlns:xlink="http://www.w3.org/1999/xlink" height="68.75px" width="33.9px" xmlns="http://www.w3.org/2000/svg">
  <g transform="matrix(1.0, 0.0, 0.0, 1.0, 16.95, 34.35)">
    <path d="M-16.95 -13.8 Q-11.15 -13.75 -7.75 -11.7 L-5.85 -13.65 -6.65 -14.25 Q-7.45 -15.05 -7.45 -16.3 -7.45 -17.5 -6.55 -18.4 -5.65 -19.3 -4.4 -19.35 -3.15 -19.35 -2.35 -18.55 -1.6 -17.75 -1.6 -16.55 -1.6 -15.8 -1.95 -15.2 L-0.6 -15.55 Q0.6 -15.6 1.45 -14.8 2.25 -13.95 2.25 -12.75 2.15 -11.5 1.25 -10.6 0.35 -9.7 -0.8 -9.65 -2.05 -9.65 -2.85 -10.5 L-3.2 -10.85 -4.95 -9.05 Q-3.4 -6.75 -3.25 -3.3 L-3.3 -0.7 -3.55 0.7 Q-4.0 3.55 -5.4 6.9 L-3.2 9.05 -2.85 8.75 Q-2.05 7.9 -0.8 7.9 0.35 7.95 1.25 8.8 2.15 9.7 2.25 10.95 2.25 12.15 1.45 13.0 0.6 13.8 -0.6 13.75 L-1.95 13.4 Q-1.6 14.05 -1.6 14.75 -1.6 15.95 -2.35 16.75 -3.15 17.55 -4.4 17.55 -5.65 17.5 -6.55 16.6 -7.45 15.7 -7.45 14.5 -7.45 13.3 -6.65 12.5 L-5.85 11.85 -7.15 10.55 -11.7 10.55 -11.05 13.45 -16.2 13.45 -16.2 10.55 -16.95 10.55 -16.95 7.25 -16.2 7.25 -16.95 5.8 -16.95 -13.8 M-5.45 -0.35 Q-6.75 -1.95 -8.8 -1.9 -10.9 -1.95 -12.5 -0.35 -14.0 1.15 -14.05 3.3 -14.15 5.3 -12.9 6.6 -11.7 7.75 -9.95 7.8 L-9.8 7.8 Q-7.85 7.8 -6.45 6.6 L-6.05 6.25 Q-4.9 5.0 -4.6 3.3 -4.25 1.15 -5.45 -0.35" fill="#7e7e7e" fill-rule="evenodd" stroke="none"/>
    <path d="M-16.95 10.55 L-16.2 10.55 -16.2 13.45 -11.05 13.45 -11.7 10.55 -7.15 10.55 -5.85 11.85 -6.65 12.5 Q-7.45 13.3 -7.45 14.5 -7.45 15.7 -6.55 16.6 -5.65 17.5 -4.4 17.55 -3.15 17.55 -2.35 16.75 -1.6 15.95 -1.6 14.75 -1.6 14.05 -1.95 13.4 L-0.6 13.75 Q0.6 13.8 1.45 13.0 2.25 12.15 2.25 10.95 2.15 9.7 1.25 8.8 0.35 7.95 -0.8 7.9 -2.05 7.9 -2.85 8.75 L-3.2 9.05 -5.4 6.9 Q-4.0 3.55 -3.55 0.7 L-3.3 -0.7 -3.25 -3.3 Q-3.4 -6.75 -4.95 -9.05 L-3.2 -10.85 -2.85 -10.5 Q-2.05 -9.65 -0.8 -9.65 0.35 -9.7 1.25 -10.6 2.15 -11.5 2.25 -12.75 2.25 -13.95 1.45 -14.8 0.6 -15.6 -0.6 -15.55 L-1.95 -15.2 Q-1.6 -15.8 -1.6 -16.55 -1.6 -17.75 -2.35 -18.55 -3.15 -19.35 -4.4 -19.35 -5.65 -19.3 -6.55 -18.4 -7.45 -17.5 -7.45 -16.3 -7.45 -15.05 -6.65 -14.25 L-5.85 -13.65 -7.75 -11.7 Q-11.15 -13.75 -16.95 -13.8 L-16.95 -34.35 Q-3.0 -34.2 6.9 -24.3 16.95 -14.2 16.95 0.0 16.95 14.25 6.9 24.3 -3.0 34.25 -16.95 34.4 L-16.95 10.55 M-16.95 5.8 L-16.2 7.25 -16.95 7.25 -16.95 5.8 M-5.45 -0.35 Q-4.25 1.15 -4.6 3.3 -4.9 5.0 -6.05 6.25 L-6.45 6.6 Q-7.85 7.8 -9.8 7.8 L-9.95 7.8 Q-11.7 7.75 -12.9 6.6 -14.15 5.3 -14.05 3.3 -14.0 1.15 -12.5 -0.35 -10.9 -1.95 -8.8 -1.9 -6.75 -1.95 -5.45 -0.35" fill="#484848" fill-rule="evenodd" stroke="none"/>
  </g>
</svg>
