<?xml version="1.0" encoding="UTF-8" standalone="no"?>
<svg xmlns:xlink="http://www.w3.org/1999/xlink" height="186.25px" width="286.65px" xmlns="http://www.w3.org/2000/svg">
  <g transform="matrix(1.0, 0.0, 0.0, 1.0, 93.15, -70.5)">
    <path d="M170.15 207.75 L173.3 205.65 185.4 161.6 173.85 156.35 158.9 164.75 170.15 207.75" fill="#ffffff" fill-rule="evenodd" stroke="none"/>
    <path d="M170.15 207.75 L158.9 164.75 173.85 156.35 185.4 161.6 173.3 205.65 170.15 207.75 Z" fill="none" stroke="#3ea7d4" stroke-linecap="round" stroke-linejoin="round" stroke-width="9.0"/>
    <path d="M170.15 207.75 L173.3 205.65 185.4 161.6 173.85 156.35 158.9 164.75 170.15 207.75" fill="#5fd6ff" fill-rule="evenodd" stroke="none"/>
    <path d="M167.55 183.1 L166.85 160.3 158.9 164.75 164.1 184.5 165.7 186.5 167.55 183.1" fill="#4dbee5" fill-rule="evenodd" stroke="none"/>
    <path d="M176.05 195.75 L185.4 161.6 173.85 156.35 171.5 157.7 175.65 194.9 176.05 195.75" fill="#b8ebfc" fill-rule="evenodd" stroke="none"/>
    <path d="M158.9 164.75 L159.15 165.65 164.65 166.85 178.3 167.35 184.7 164.05 185.4 161.6 173.85 156.35 158.9 164.75" fill="#b8ebfc" fill-rule="evenodd" stroke="none"/>
    <path d="M-30.45 229.55 L-35.4 228.8 -88.65 173.75 -82.85 157.95 -60.85 159.4 -30.45 229.55" fill="#ffffff" fill-rule="evenodd" stroke="none"/>
    <path d="M-30.45 229.55 L-60.85 159.4 -82.85 157.95 -88.65 173.75 -35.4 228.8 -30.45 229.55 Z" fill="none" stroke="#3ea7d4" stroke-linecap="round" stroke-linejoin="round" stroke-width="9.0"/>
    <path d="M-30.45 229.55 L-35.4 228.8 -88.65 173.75 -82.85 157.95 -60.85 159.4 -30.45 229.55" fill="#5fd6ff" fill-rule="evenodd" stroke="none"/>
    <path d="M-61.1 159.4 L-77.65 163.4 -53.35 203.8 -45.45 206.65 -44.2 200.5 -46.0 193.8 -60.85 159.4 -61.1 159.4" fill="#4dbee5" fill-rule="evenodd" stroke="none"/>
    <path d="M-80.85 158.05 L-80.9 158.05 -83.1 158.45 -88.7 173.75 -55.05 208.55 -55.1 207.9 -79.5 158.2 -80.85 158.05" fill="#b8ebfc" fill-rule="evenodd" stroke="none"/>
    <path d="M-88.7 173.75 L-87.55 174.95 -79.65 174.45 -64.75 162.0 -62.65 159.25 -82.85 157.9 -88.7 173.75" fill="#b8ebfc" fill-rule="evenodd" stroke="none"/>
    <path d="M120.2 110.25 L113.35 81.2 42.45 76.5 21.45 89.0 -0.4 128.95 3.25 146.9 -17.9 173.3 -31.8 196.2 -60.2 217.65 -70.95 229.3 -26.0 236.7 -3.4 228.15 25.95 250.75 92.5 225.75 111.1 249.85 123.45 224.85 154.2 233.3 153.2 217.2 187.5 214.9 156.3 193.6 147.4 176.05 134.2 162.35 125.75 119.9 120.2 110.25 Z" fill="none" stroke="#3ea7d4" stroke-linecap="square" stroke-linejoin="round" stroke-width="9.0"/>
    <path d="M31.0 83.45 L37.3 102.1 38.1 117.25 46.25 123.75 41.8 102.55 55.6 120.95 55.9 122.0 69.95 97.15 74.25 126.35 88.35 97.3 96.9 110.2 93.75 91.8 Q93.85 91.7 101.25 98.65 L108.55 105.55 119.7 107.65 120.35 110.3 125.85 119.95 132.6 154.1 133.75 159.7 133.95 159.7 134.45 162.4 147.7 176.1 156.55 193.6 187.75 214.95 153.75 217.2 153.5 217.2 154.5 233.35 123.75 224.9 111.4 249.95 95.85 229.75 95.9 230.05 92.65 225.9 26.25 250.8 26.2 250.75 26.05 250.8 22.05 247.8 22.15 247.65 -3.1 228.2 -25.7 236.7 -25.8 236.7 -25.9 236.7 -70.85 229.4 -60.05 217.7 -31.5 196.3 -17.6 173.35 -6.65 159.7 -6.5 159.7 3.45 147.35 3.3 147.0 -0.35 129.0 21.5 89.05 31.0 83.45" fill="#ffffff" fill-rule="evenodd" stroke="none"/>
    <path d="M31.0 83.45 L21.5 89.05 -0.35 129.0 3.3 147.0 3.45 147.35 -6.5 159.7 -6.65 159.7 -17.6 173.35 -31.5 196.3 -60.05 217.7 -70.85 229.4 -25.9 236.7 -25.8 236.7 -25.7 236.7 -3.1 228.2 22.15 247.65 22.05 247.8 26.05 250.8 26.2 250.75 26.25 250.8 92.65 225.9 95.9 230.05 95.85 229.75 111.4 249.95 123.75 224.9 154.5 233.35 153.5 217.2 153.75 217.2 187.75 214.95 156.55 193.6 147.7 176.1 134.45 162.4 133.95 159.7 133.75 159.7 132.6 154.1 125.85 119.95 120.35 110.3 119.7 107.65 108.55 105.55 101.25 98.65 Q93.85 91.7 93.75 91.8 L96.9 110.2 88.35 97.3 74.25 126.35 69.95 97.15 55.9 122.0 55.6 120.95 41.8 102.55 46.25 123.75 38.1 117.25 37.3 102.1 31.0 83.45 Z" fill="none" stroke="#3ea7d4" stroke-linecap="round" stroke-linejoin="round" stroke-width="9.0"/>
    <path d="M119.85 110.25 L125.4 119.9 133.85 162.35 147.05 176.05 155.95 193.6 187.15 214.9 152.85 217.2 153.85 233.3 123.1 224.85 110.75 249.85 92.15 225.75 25.6 250.75 -3.75 228.15 -26.35 236.7 -71.3 229.3 -60.55 217.65 -32.15 196.2 -18.25 173.3 2.9 146.9 -0.75 128.95 21.1 89.0 42.1 76.5 113.0 81.2 119.85 110.25" fill="#4dbee5" fill-rule="evenodd" stroke="none"/>
  </g>
</svg>
