<?xml version="1.0" encoding="UTF-8" standalone="no"?>
<svg xmlns:xlink="http://www.w3.org/1999/xlink" height="147.9px" width="89.3px" xmlns="http://www.w3.org/2000/svg">
  <g transform="matrix(1.0, 0.0, 0.0, 1.0, 44.65, 74.0)">
    <path d="M-24.2 -29.75 L-11.85 -27.85 -14.85 -36.55 0.4 -28.25 9.25 -39.1 11.55 -27.2 24.8 -29.8 13.9 -14.9 -10.35 -16.3 -24.2 -29.75" fill="#9dd700" fill-rule="evenodd" stroke="none"/>
    <path d="M-24.2 -29.75 L-10.35 -16.3 13.9 -14.9 24.8 -29.8 11.55 -27.2 9.25 -39.1 0.4 -28.25 -14.85 -36.55 -11.85 -27.85 -24.2 -29.75 Z" fill="none" stroke="#4c730d" stroke-linecap="round" stroke-linejoin="round" stroke-width="9.0"/>
    <path d="M-27.1 -52.9 L-12.5 -45.7 -14.45 -69.5 1.25 -46.85 12.45 -68.4 14.65 -49.6 32.1 -55.35 14.4 -27.3 -9.85 -28.5 -27.1 -52.9" fill="#3f9306" fill-rule="evenodd" stroke="none"/>
    <path d="M-27.1 -52.9 L-9.85 -28.5 14.4 -27.3 32.1 -55.35 14.65 -49.6 12.45 -68.4 1.25 -46.85 -14.45 -69.5 -12.5 -45.7 -27.1 -52.9 Z" fill="none" stroke="#4c730d" stroke-linecap="round" stroke-linejoin="round" stroke-width="9.0"/>
    <path d="M13.75 -17.7 L24.75 -40.4 Q19.1 -37.25 13.4 -34.25 L11.6 -51.8 1.05 -34.95 Q-4.0 -42.65 -8.85 -50.5 L-10.5 -37.05 -24.7 -41.05 -10.4 -16.05 13.75 -17.7" fill="#7cb421" fill-rule="evenodd" stroke="none"/>
    <path d="M13.75 -17.7 L-10.4 -16.05 -24.7 -41.05 -10.5 -37.05 -8.85 -50.5 Q-4.0 -42.65 1.05 -34.95 L11.6 -51.8 13.4 -34.25 Q19.1 -37.25 24.75 -40.4 L13.75 -17.7 Z" fill="none" stroke="#4c730d" stroke-linecap="round" stroke-linejoin="round" stroke-width="9.0"/>
    <path d="M14.65 -49.6 L32.1 -55.35 14.4 -27.3 -9.85 -28.5 -27.1 -52.9 -12.5 -45.7 -14.45 -69.5 1.25 -46.85 12.45 -68.4 14.65 -49.6" fill="#3f9306" fill-rule="evenodd" stroke="none"/>
    <path d="M24.75 -40.4 Q19.1 -37.25 13.4 -34.25 L11.6 -51.8 1.05 -34.95 Q-4.0 -42.65 -8.85 -50.5 L-10.5 -37.05 -24.7 -41.05 -10.4 -16.05 13.8 -17.7 24.75 -40.4" fill="#7cb421" fill-rule="evenodd" stroke="none"/>
    <path d="M-11.85 -27.85 L-14.85 -36.55 0.4 -28.25 9.25 -39.1 11.55 -27.2 24.8 -29.8 13.9 -14.9 -10.35 -16.3 -24.2 -29.75 -11.85 -27.85" fill="#9dd700" fill-rule="evenodd" stroke="none"/>
    <path d="M20.8 -16.65 Q30.65 -11.1 32.5 -2.5 L39.45 30.0 Q42.5 44.45 31.8 56.2 19.8 69.4 0.0 69.4 -19.85 69.4 -31.85 56.2 -42.55 44.45 -39.45 30.0 L-32.5 -2.5 Q-30.65 -11.15 -20.85 -16.65 -11.8 -21.8 0.0 -21.8 11.75 -21.8 20.8 -16.65" fill="#e58c1f" fill-rule="evenodd" stroke="none"/>
    <path d="M20.8 -16.65 Q11.75 -21.8 0.0 -21.8 -11.8 -21.8 -20.85 -16.65 -30.65 -11.15 -32.5 -2.5 L-39.45 30.0 Q-42.55 44.45 -31.85 56.2 -19.85 69.4 0.0 69.4 19.8 69.4 31.8 56.2 42.5 44.45 39.45 30.0 L32.5 -2.5 Q30.65 -11.1 20.8 -16.65 Z" fill="none" stroke="#954a01" stroke-linecap="round" stroke-linejoin="round" stroke-width="9.0"/>
    <path d="M20.8 -16.65 Q30.65 -11.1 32.5 -2.5 L39.45 30.0 Q42.5 44.45 31.8 56.2 19.8 69.4 0.0 69.4 -19.85 69.4 -31.85 56.2 -42.55 44.45 -39.45 30.0 L-32.5 -2.5 Q-30.65 -11.15 -20.85 -16.65 -11.8 -21.8 0.0 -21.8 11.75 -21.8 20.8 -16.65" fill="#e58c1f" fill-rule="evenodd" stroke="none"/>
    <path d="M23.65 -14.9 Q26.1 -12.15 26.85 -8.8 L32.6 16.2 Q35.15 27.35 26.3 36.35 16.4 46.55 0.0 46.55 -16.35 46.55 -26.35 36.35 -35.15 27.35 -32.6 16.2 L-26.85 -8.8 Q-26.05 -12.25 -23.55 -15.0 L-20.85 -16.65 Q-11.8 -21.8 0.0 -21.8 11.75 -21.8 20.8 -16.65 L23.65 -14.9" fill="#ffcc33" fill-rule="evenodd" stroke="none"/>
    <path d="M-36.7 17.15 L-35.05 9.4 Q-29.4 39.95 -11.55 68.15 L-16.15 66.75 Q-30.75 42.8 -36.7 17.15 M-32.1 -4.05 Q-31.4 -6.45 -30.0 -8.6 -19.85 33.65 12.9 67.75 L9.3 68.6 Q-21.5 35.9 -32.1 -4.05 M-11.05 -20.55 L-7.35 -21.25 Q21.9 9.15 33.85 53.8 L31.8 56.2 31.3 56.7 Q19.45 10.45 -11.05 -20.55 M-20.85 -16.65 L-19.85 -17.2 Q4.25 18.6 20.45 64.9 L17.55 66.2 17.65 66.65 Q1.55 20.25 -22.6 -15.65 L-20.85 -16.65 M34.1 5.0 L35.7 12.45 Q21.65 -7.35 3.1 -21.7 L9.15 -20.95 Q22.9 -9.5 34.1 5.0" fill="#e58c1f" fill-rule="evenodd" stroke="none"/>
    <path d="M29.75 -8.9 Q31.3 -6.65 32.05 -4.1 24.4 35.5 -2.9 69.6 L-2.7 69.35 -6.5 69.05 Q22.75 33.2 29.75 -8.9 M20.8 -16.65 L22.2 -15.85 Q0.65 21.45 -12.15 68.65 L-12.0 68.05 -15.0 67.15 Q-2.15 20.0 19.45 -17.45 L20.8 -16.65 M35.6 12.2 L37.5 20.85 Q33.4 42.45 23.25 63.35 20.95 64.75 18.5 65.8 32.05 39.35 35.7 11.7 L35.6 12.2 M-7.1 -21.3 L-1.8 -21.75 Q-23.6 -3.05 -38.0 23.35 L-35.9 13.4 Q-23.7 -6.25 -7.1 -21.3 M7.35 -21.25 L10.95 -20.55 Q-18.2 12.9 -26.8 60.9 L-29.6 58.5 Q-20.8 11.8 7.35 -21.25" fill="#e58c1f" fill-rule="evenodd" stroke="none"/>
    <path d="M22.35 -4.4 Q20.35 -2.4 17.55 -2.4 14.7 -2.4 12.7 -4.4 10.75 -6.4 10.75 -9.2 10.75 -12.05 12.7 -14.05 14.7 -16.05 17.55 -16.05 20.35 -16.05 22.35 -14.05 24.35 -12.05 24.35 -9.2 24.35 -6.4 22.35 -4.4" fill="#ffffff" fill-rule="evenodd" stroke="none"/>
    <path d="M26.9 3.05 Q25.95 4.0 24.6 4.0 23.25 4.0 22.3 3.05 21.35 2.05 21.35 0.75 21.35 -0.6 22.3 -1.55 23.25 -2.55 24.6 -2.55 25.95 -2.55 26.9 -1.55 27.85 -0.6 27.85 0.75 27.85 2.05 26.9 3.05" fill="#ffffff" fill-rule="evenodd" stroke="none"/>
  </g>
</svg>
