<?xml version="1.0" encoding="UTF-8" standalone="no"?>
<svg xmlns:xlink="http://www.w3.org/1999/xlink" height="33.15px" width="40.8px" xmlns="http://www.w3.org/2000/svg">
  <g transform="matrix(1.0, 0.0, 0.0, 1.0, 21.0, -11.9)">
    <path d="M6.3 20.05 Q5.2 17.25 5.7 16.1 6.1 15.0 8.55 16.25 L11.15 17.95 6.45 11.9 10.2 11.9 19.8 26.05 Q17.4 23.9 15.1 22.5 10.85 19.95 10.2 22.25 9.35 24.65 11.5 30.55 12.75 33.9 14.35 37.1 12.2 33.5 9.25 30.4 4.4 25.05 -0.3 25.05 -5.1 25.05 -8.15 33.65 -9.95 38.85 -10.95 45.05 -10.05 38.4 -9.5 32.5 -8.7 22.95 -9.55 21.1 -10.55 19.3 -15.4 22.5 L-21.0 26.95 -10.6 11.9 -7.1 11.9 -12.35 18.35 Q-10.75 17.15 -9.15 16.25 -6.4 14.7 -5.8 15.55 -5.3 16.45 -5.65 20.95 L-6.35 26.7 Q-5.9 23.85 -4.9 21.5 -3.2 17.45 -0.45 17.45 2.25 17.45 5.1 19.95 6.75 21.4 7.9 23.1 L6.3 20.05" fill="#f73600" fill-rule="evenodd" stroke="none"/>
    <path d="M6.2 25.65 Q8.7 27.85 8.7 30.9 8.7 34.0 6.2 36.1 3.7 38.35 0.2 38.35 -3.3 38.35 -5.8 36.1 -8.3 34.0 -8.3 30.9 -8.3 27.85 -5.8 25.65 -3.3 23.5 0.2 23.5 3.7 23.5 6.2 25.65" fill="#696565" fill-rule="evenodd" stroke="none"/>
    <path d="M-11.0 20.6 Q-9.5 22.2 -9.5 24.35 -9.5 26.55 -11.0 28.1 -12.55 29.7 -14.65 29.7 -16.7 29.7 -18.25 28.1 -19.75 26.55 -19.75 24.35 -19.75 22.2 -18.25 20.6 -16.7 19.05 -14.65 19.05 -12.55 19.05 -11.0 20.6" fill="#696565" fill-rule="evenodd" stroke="none"/>
    <path d="M17.7 24.45 Q19.15 25.85 19.15 27.8 19.15 29.75 17.7 31.15 16.35 32.55 14.3 32.55 12.3 32.55 10.85 31.15 9.5 29.75 9.5 27.8 9.5 25.85 10.85 24.45 12.3 23.0 14.3 23.0 16.35 23.0 17.7 24.45" fill="#696565" fill-rule="evenodd" stroke="none"/>
    <path d="M-6.75 25.65 Q-5.3 27.05 -5.3 29.1 -5.3 31.1 -6.75 32.5 -8.1 33.95 -10.05 33.95 -12.0 33.95 -13.45 32.5 -14.8 31.1 -14.8 29.1 -14.8 27.05 -13.45 25.65 -12.0 24.25 -10.05 24.25 -8.1 24.25 -6.75 25.65" fill="#696565" fill-rule="evenodd" stroke="none"/>
    <path d="M-4.35 17.1 Q-2.45 18.5 -2.45 20.4 -2.45 22.25 -4.35 23.6 -6.15 25.0 -8.7 25.0 -11.3 25.0 -13.2 23.6 -15.0 22.25 -15.0 20.4 -15.0 18.5 -13.2 17.1 -11.3 15.75 -8.7 15.75 -6.15 15.75 -4.35 17.1" fill="#696565" fill-rule="evenodd" stroke="none"/>
    <path d="M17.5 19.25 Q18.7 20.5 18.7 22.3 18.7 24.05 17.5 25.3 16.25 26.55 14.55 26.55 12.8 26.55 11.6 25.3 10.35 24.05 10.35 22.3 10.35 20.5 11.6 19.25 12.8 18.0 14.55 18.0 16.25 18.0 17.5 19.25" fill="#696565" fill-rule="evenodd" stroke="none"/>
    <path d="M9.95 22.1 Q11.7 23.6 11.7 25.7 11.7 27.8 9.95 29.3 8.25 30.8 5.8 30.8 3.35 30.8 1.6 29.3 -0.1 27.8 -0.1 25.7 -0.1 23.6 1.6 22.1 3.35 20.65 5.8 20.65 8.25 20.65 9.95 22.1" fill="#696565" fill-rule="evenodd" stroke="none"/>
    <path d="M1.35 34.3 Q2.5 35.45 2.5 37.05 2.5 38.6 1.35 39.7 0.25 40.85 -1.35 40.85 -2.9 40.85 -4.05 39.7 -5.15 38.6 -5.15 37.05 -5.15 35.45 -4.05 34.3 -2.9 33.2 -1.35 33.2 0.25 33.2 1.35 34.3" fill="#696565" fill-rule="evenodd" stroke="none"/>
    <path d="M-10.5 21.95 Q-9.3 23.15 -9.05 25.05 -8.8 27.0 -9.65 28.5 -10.55 30.1 -12.15 30.4 -13.7 30.7 -14.9 29.5 -16.2 28.45 -16.45 26.5 -16.7 24.6 -15.75 22.95 -14.9 21.45 -13.35 21.15 -11.75 20.85 -10.5 21.95" fill="#95847e" fill-rule="evenodd" stroke="none"/>
    <path d="M-6.35 25.1 Q-5.25 26.1 -5.05 27.75 -4.85 29.45 -5.65 30.75 -6.45 32.2 -7.8 32.45 -9.15 32.7 -10.3 31.65 -11.35 30.7 -11.55 29.0 -11.75 27.35 -11.0 26.0 -10.15 24.65 -8.8 24.4 -7.45 24.15 -6.35 25.1" fill="#95847e" fill-rule="evenodd" stroke="none"/>
    <path d="M-5.2 18.75 Q-3.8 19.8 -3.55 21.45 -3.35 23.1 -4.45 24.45 -5.4 25.9 -7.15 26.2 -8.85 26.55 -10.2 25.6 -11.5 24.65 -11.7 23.0 -11.95 21.35 -10.95 19.9 -9.9 18.55 -8.2 18.2 -6.45 17.9 -5.2 18.75" fill="#95847e" fill-rule="evenodd" stroke="none"/>
    <path d="M2.4 29.6 Q3.7 30.75 3.95 32.65 4.2 34.55 3.25 36.2 2.35 37.8 0.8 38.1 -0.8 38.4 -2.05 37.2 -3.35 36.05 -3.6 34.15 -3.85 32.25 -2.9 30.6 -2.0 29.0 -0.4 28.7 1.15 28.4 2.4 29.6" fill="#95847e" fill-rule="evenodd" stroke="none"/>
    <path d="M-0.65 24.6 Q0.65 25.9 0.9 27.9 1.15 29.9 0.25 31.5 -0.65 33.2 -2.15 33.5 -3.65 33.8 -4.85 32.5 -6.1 31.3 -6.35 29.3 -6.6 27.3 -5.75 25.6 -4.9 24.0 -3.4 23.7 -1.9 23.4 -0.65 24.6" fill="#95847e" fill-rule="evenodd" stroke="none"/>
    <path d="M7.9 18.7 Q9.35 19.65 9.55 21.3 9.75 23.0 8.65 24.45 7.6 25.9 5.85 26.2 4.15 26.55 2.75 25.6 1.35 24.65 1.15 22.95 0.95 21.3 2.0 19.85 3.1 18.35 4.8 18.0 6.55 17.7 7.9 18.7" fill="#95847e" fill-rule="evenodd" stroke="none"/>
    <path d="M4.9 25.4 Q5.9 26.4 6.15 28.05 6.35 29.7 5.65 31.0 4.95 32.25 3.75 32.5 2.55 32.75 1.55 31.8 0.5 30.8 0.3 29.15 0.05 27.5 0.8 26.2 1.55 24.9 2.75 24.65 3.95 24.4 4.9 25.4" fill="#95847e" fill-rule="evenodd" stroke="none"/>
    <path d="M15.15 18.15 Q16.55 19.25 16.8 21.0 17.0 22.7 15.9 24.2 14.8 25.75 12.95 26.1 11.1 26.45 9.6 25.4 8.2 24.4 8.0 22.7 7.75 20.95 8.85 19.35 10.0 17.9 11.85 17.55 13.7 17.2 15.15 18.15" fill="#95847e" fill-rule="evenodd" stroke="none"/>
    <path d="M16.7 22.15 Q17.7 23.0 17.9 24.4 18.05 25.8 17.3 26.95 16.5 28.2 15.15 28.45 13.8 28.7 12.7 27.85 11.65 27.05 11.5 25.65 11.3 24.25 12.1 23.05 12.9 21.9 14.25 21.65 15.6 21.4 16.7 22.15" fill="#95847e" fill-rule="evenodd" stroke="none"/>
    <path d="M-10.05 23.55 Q-9.25 24.35 -9.1 25.55 -9.0 26.8 -9.6 27.75 -10.2 28.75 -11.2 28.9 -12.2 29.1 -13.05 28.3 -13.8 27.55 -13.9 26.3 -14.05 25.1 -13.5 24.1 -12.85 23.15 -11.85 22.95 -10.85 22.8 -10.05 23.55" fill="#a8a491" fill-rule="evenodd" stroke="none"/>
    <path d="M-6.0 24.9 Q-5.15 25.7 -5.0 27.05 -4.85 28.35 -5.5 29.3 -6.1 30.4 -7.15 30.55 -8.25 30.75 -9.1 29.9 -9.9 29.15 -10.05 27.85 -10.2 26.5 -9.6 25.5 -8.95 24.55 -7.85 24.35 -6.8 24.2 -6.0 24.9" fill="#a8a491" fill-rule="evenodd" stroke="none"/>
    <path d="M-5.45 19.6 Q-4.5 20.45 -4.35 21.85 -4.2 23.25 -4.95 24.35 -5.55 25.45 -6.7 25.65 -7.85 25.85 -8.85 24.95 -9.65 24.15 -9.8 22.75 -9.95 21.35 -9.35 20.2 -8.6 19.15 -7.45 18.95 -6.3 18.75 -5.45 19.6" fill="#a8a491" fill-rule="evenodd" stroke="none"/>
    <path d="M2.05 27.4 Q3.05 28.5 3.2 30.2 3.4 31.9 2.7 33.3 2.0 34.65 0.85 34.85 -0.3 35.05 -1.25 33.9 -2.2 32.8 -2.4 31.1 -2.55 29.4 -1.9 28.0 -1.15 26.65 0.0 26.45 1.15 26.25 2.05 27.4" fill="#a8a491" fill-rule="evenodd" stroke="none"/>
    <path d="M-1.5 34.6 L-1.3 34.95 -1.4 35.35 -1.65 35.55 Q-1.8 35.6 -1.9 35.45 L-2.1 35.1 -2.0 34.7 -1.75 34.45 Q-1.6 34.45 -1.5 34.6" fill="#a8a491" fill-rule="evenodd" stroke="none"/>
    <path d="M7.15 20.3 Q8.0 20.9 8.1 22.0 8.25 23.1 7.55 24.0 6.95 24.9 5.85 25.1 4.8 25.25 3.95 24.55 3.2 23.95 3.05 22.85 2.95 21.75 3.55 20.85 4.25 19.95 5.3 19.8 6.4 19.6 7.15 20.3" fill="#a8a491" fill-rule="evenodd" stroke="none"/>
    <path d="M-0.1 25.9 Q0.9 26.6 1.05 27.75 1.15 28.95 0.35 29.95 -0.45 30.95 -1.65 31.15 -2.85 31.35 -3.85 30.65 -4.85 29.9 -4.95 28.7 -5.1 27.55 -4.3 26.6 -3.45 25.6 -2.25 25.4 -1.05 25.2 -0.1 25.9" fill="#a8a491" fill-rule="evenodd" stroke="none"/>
    <path d="M13.6 19.45 Q14.5 20.0 14.6 21.0 14.75 22.0 13.95 22.85 13.25 23.65 12.1 23.85 10.95 24.05 10.05 23.45 9.15 22.9 9.0 21.9 8.9 20.9 9.7 20.05 10.4 19.25 11.55 19.05 12.7 18.85 13.6 19.45" fill="#a8a491" fill-rule="evenodd" stroke="none"/>
    <path d="M14.4 22.55 Q15.2 23.3 15.3 24.4 15.45 25.5 14.8 26.35 14.25 27.3 13.3 27.45 12.35 27.6 11.55 26.85 10.85 26.2 10.7 25.1 10.6 24.0 11.15 23.05 11.75 22.15 12.7 22.0 13.65 21.85 14.4 22.55" fill="#a8a491" fill-rule="evenodd" stroke="none"/>
  </g>
</svg>
