<?xml version="1.0" encoding="UTF-8" standalone="no"?>
<svg xmlns:xlink="http://www.w3.org/1999/xlink" height="30.55px" width="28.0px" xmlns="http://www.w3.org/2000/svg">
  <g transform="matrix(1.0, 0.0, 0.0, 1.0, 12.1, 16.7)">
    <path d="M0.7 -3.9 L0.7 -3.6 1.4 -3.35 Q2.1 -3.3 2.4 -2.8 2.65 -2.35 2.1 -2.05 0.95 -1.4 -2.05 -1.4 -2.35 -1.4 -2.45 -1.55 -2.7 -2.0 -2.1 -2.5 L-1.45 -3.0 -1.1 -3.15 Q-0.8 -3.35 -0.95 -3.65 L-2.25 -16.7 0.7 -3.9" fill="url(#gradient0)" fill-rule="evenodd" stroke="none"/>
    <path d="M-6.4 3.25 L-6.55 3.5 -6.05 4.1 Q-5.5 4.45 -5.5 5.05 -5.5 5.55 -6.15 5.55 -7.45 5.55 -10.05 4.05 L-10.3 3.7 Q-10.3 3.2 -9.55 3.05 L-8.75 2.95 -8.35 3.0 Q-7.95 3.0 -7.95 2.65 L-2.5 -9.3 -6.4 3.25" fill="url(#gradient1)" fill-rule="evenodd" stroke="none"/>
    <path d="M-9.85 -3.8 L-10.15 -3.9 -10.6 -3.3 Q-10.85 -2.7 -11.45 -2.6 -11.95 -2.5 -12.05 -3.15 -12.3 -4.4 -11.2 -7.25 L-10.95 -7.55 Q-10.45 -7.65 -10.2 -6.9 -10.0 -6.6 -9.95 -6.15 L-9.95 -5.7 Q-9.85 -5.3 -9.5 -5.4 L3.2 -2.0 -9.85 -3.8" fill="url(#gradient2)" fill-rule="evenodd" stroke="none"/>
    <path d="M6.3 -0.1 Q6.15 -0.1 6.05 0.05 5.95 0.25 6.2 0.85 6.55 1.4 6.25 1.9 6.0 2.35 5.4 2.05 4.3 1.4 2.7 -1.15 L2.7 -1.6 Q2.95 -2.05 3.65 -1.75 L4.4 -1.5 4.75 -1.25 Q5.1 -1.05 5.25 -1.35 L15.9 -9.1 6.3 -0.1" fill="url(#gradient3)" fill-rule="evenodd" stroke="none"/>
    <path d="M5.6 4.9 L5.9 4.75 5.75 4.0 Q5.45 3.45 5.75 2.9 L6.55 2.8 Q7.7 3.45 9.2 6.05 L9.25 6.5 8.25 6.65 Q7.9 6.6 7.5 6.35 L7.2 6.1 6.65 6.2 -4.0 13.85 5.6 4.9" fill="url(#gradient4)" fill-rule="evenodd" stroke="none"/>
  </g>
  <defs>
    <linearGradient gradientTransform="matrix(0.004, 0.0069, -0.0038, 0.0022, -1.7, -7.4)" gradientUnits="userSpaceOnUse" id="gradient0" spreadMethod="pad" x1="-819.2" x2="819.2">
      <stop offset="0.0" stop-color="#ffffff"/>
      <stop offset="0.09019607843137255" stop-color="#ffcc00"/>
      <stop offset="0.4745098039215686" stop-color="#ff0000"/>
      <stop offset="0.7686274509803922" stop-color="#000000"/>
      <stop offset="1.0" stop-color="#000000"/>
    </linearGradient>
    <linearGradient gradientTransform="matrix(0.0, 0.008, -0.0044, 0.0, -6.7, -1.0)" gradientUnits="userSpaceOnUse" id="gradient1" spreadMethod="pad" x1="-819.2" x2="819.2">
      <stop offset="0.0" stop-color="#ffffff"/>
      <stop offset="0.09019607843137255" stop-color="#ffcc00"/>
      <stop offset="0.4745098039215686" stop-color="#ff0000"/>
      <stop offset="0.7686274509803922" stop-color="#000000"/>
      <stop offset="1.0" stop-color="#000000"/>
    </linearGradient>
    <linearGradient gradientTransform="matrix(-0.0079, 0.0013, -7.0E-4, -0.0043, -5.7, -4.8)" gradientUnits="userSpaceOnUse" id="gradient2" spreadMethod="pad" x1="-819.2" x2="819.2">
      <stop offset="0.0" stop-color="#ffffff"/>
      <stop offset="0.09019607843137255" stop-color="#ffcc00"/>
      <stop offset="0.4745098039215686" stop-color="#ff0000"/>
      <stop offset="0.7686274509803922" stop-color="#000000"/>
      <stop offset="1.0" stop-color="#000000"/>
    </linearGradient>
    <linearGradient gradientTransform="matrix(-0.0039, 0.007, -0.0038, -0.0022, 8.15, -3.9)" gradientUnits="userSpaceOnUse" id="gradient3" spreadMethod="pad" x1="-819.2" x2="819.2">
      <stop offset="0.0" stop-color="#ffffff"/>
      <stop offset="0.09019607843137255" stop-color="#ffcc00"/>
      <stop offset="0.4745098039215686" stop-color="#ff0000"/>
      <stop offset="0.7686274509803922" stop-color="#000000"/>
      <stop offset="1.0" stop-color="#000000"/>
    </linearGradient>
    <linearGradient gradientTransform="matrix(0.004, -0.0069, 0.0038, 0.0022, 3.8, 8.75)" gradientUnits="userSpaceOnUse" id="gradient4" spreadMethod="pad" x1="-819.2" x2="819.2">
      <stop offset="0.0" stop-color="#ffffff"/>
      <stop offset="0.09019607843137255" stop-color="#ffcc00"/>
      <stop offset="0.4745098039215686" stop-color="#ff0000"/>
      <stop offset="0.7686274509803922" stop-color="#000000"/>
      <stop offset="1.0" stop-color="#000000"/>
    </linearGradient>
  </defs>
</svg>
