<?xml version="1.0" encoding="UTF-8" standalone="no"?>
<svg xmlns:xlink="http://www.w3.org/1999/xlink" height="45.15px" width="126.5px" xmlns="http://www.w3.org/2000/svg">
  <g transform="matrix(1.0, 0.0, 0.0, 1.0, 98.05, -6.4)">
    <path d="M-49.95 29.25 Q-49.8 38.3 -56.75 44.8 -63.7 51.35 -73.65 51.55 -83.65 51.7 -90.8 45.4 -97.9 39.15 -98.05 30.1 -98.2 21.05 -91.35 14.55 -84.4 8.0 -74.4 7.85 -64.45 7.65 -57.3 13.95 -50.1 20.2 -49.95 29.25" fill="#ffffff" fill-rule="evenodd" stroke="none"/>
    <path d="M-13.3 28.65 Q-13.15 37.7 -6.9 43.9 -0.7 50.25 7.95 50.1 16.6 49.95 22.6 43.4 28.6 36.95 28.45 27.9 28.3 18.85 22.05 12.55 15.85 6.25 7.2 6.4 -1.45 6.55 -7.45 13.05 -13.45 19.6 -13.3 28.65" fill="#ffffff" fill-rule="evenodd" stroke="none"/>
  </g>
</svg>
