<?xml version="1.0" encoding="UTF-8" standalone="no"?>
<svg xmlns:xlink="http://www.w3.org/1999/xlink" height="63.95px" width="65.6px" xmlns="http://www.w3.org/2000/svg">
  <g transform="matrix(1.0, 0.0, 0.0, 1.0, 53.2, 21.5)">
    <path d="M-8.45 -14.1 Q-0.15 -11.0 7.4 -5.95 L-5.35 6.0 Q-6.9 3.4 -8.75 0.95 -12.4 -3.9 -13.7 -2.95 -15.0 -2.0 -11.6 8.6 L-7.95 18.95 -26.3 37.45 -41.05 35.5 -28.05 24.4 -39.45 32.5 -48.2 30.3 -37.3 23.4 -44.8 26.95 -47.45 24.2 -32.05 15.2 -31.1 4.85 Q-29.85 -6.35 -28.4 -10.55 -24.95 -20.3 -8.45 -14.1" fill="#b44500" fill-rule="evenodd" stroke="none"/>
    <path d="M-8.45 -14.1 Q-0.15 -11.0 7.4 -5.95 L-5.35 6.0 Q-6.9 3.4 -8.75 0.95 -12.4 -3.9 -13.7 -2.95 -15.0 -2.0 -11.6 8.6 L-7.95 18.95 -26.3 37.45 -41.05 35.5 -28.05 24.4 -39.45 32.5 -48.2 30.3 -37.3 23.4 -44.8 26.95 -47.45 24.2 -32.05 15.2 -31.1 4.85 Q-29.85 -6.35 -28.4 -10.55 -24.95 -20.3 -8.45 -14.1 Z" fill="none" stroke="#b44500" stroke-linecap="round" stroke-linejoin="round" stroke-width="10.0"/>
    <path d="M-8.45 -14.1 Q-0.15 -11.0 7.4 -5.95 L-5.35 6.0 Q-6.9 3.4 -8.75 0.95 -12.4 -3.9 -13.7 -2.95 -15.0 -2.0 -11.6 8.6 L-7.95 18.95 -26.3 37.45 -41.05 35.5 -28.05 24.4 -39.45 32.5 -48.2 30.3 -37.3 23.4 -44.8 26.95 -47.45 24.2 -32.05 15.2 -31.1 4.85 Q-29.85 -6.35 -28.4 -10.55 -24.95 -20.3 -8.45 -14.1" fill="#bf7926" fill-rule="evenodd" stroke="none"/>
    <path d="M1.85 -9.3 Q4.7 -7.75 7.4 -5.95 L-5.35 6.0 Q-6.9 3.4 -8.75 0.95 L-10.45 -1.15 -10.85 -1.6 -10.6 -1.35 -11.2 -1.95 Q-12.9 -3.55 -13.7 -2.95 -15.0 -2.0 -11.6 8.6 L-7.95 18.95 -16.5 27.55 Q-15.95 24.05 -14.6 20.5 -19.35 24.75 -25.4 27.75 -24.95 23.45 -23.0 19.35 -28.15 23.65 -34.35 26.35 -32.55 22.15 -29.0 18.65 -33.75 20.9 -39.35 22.25 -38.6 20.05 -37.15 18.2 L-32.05 15.2 -32.0 14.9 -32.0 14.6 -31.1 4.85 Q-29.85 -6.35 -28.4 -10.55 -26.1 -17.1 -17.85 -16.45 L-17.8 -16.45 Q-13.85 -16.1 -8.45 -14.1 -3.15 -12.1 1.9 -9.3 L1.85 -9.3" fill="#ff8610" fill-rule="evenodd" stroke="none"/>
  </g>
</svg>
