<?xml version="1.0" encoding="UTF-8" standalone="no"?>
<svg xmlns:xlink="http://www.w3.org/1999/xlink" height="64.9px" width="4.85px" xmlns="http://www.w3.org/2000/svg">
  <g transform="matrix(1.0, 0.0, 0.0, 1.0, -59.45, 0.75)">
    <path d="M64.1 1.05 L64.1 3.25 64.05 6.0 64.1 8.8 64.05 10.15 64.2 21.5 64.15 32.95 64.15 44.45 64.2 55.95 64.05 63.8 64.0 63.85 63.95 63.85 63.85 63.9 63.8 63.9 62.85 64.1 Q61.85 64.25 60.9 63.75 L60.85 63.7 Q59.95 63.2 59.6 61.85 L59.45 59.7 Q59.45 54.75 60.35 49.25 L60.1 46.2 Q60.1 44.1 60.65 41.0 L60.8 40.25 60.8 39.7 60.9 39.55 61.15 36.55 Q61.15 34.75 60.45 30.55 59.7 26.4 59.7 24.65 L60.0 21.35 59.85 20.75 59.5 18.3 59.6 8.3 59.9 3.3 Q60.4 1.0 62.35 -0.3 64.3 -1.6 64.3 0.75 L64.1 1.05" fill="#effafa" fill-rule="evenodd" stroke="none"/>
  </g>
</svg>
