<?xml version="1.0" encoding="UTF-8" standalone="no"?>
<svg xmlns:xlink="http://www.w3.org/1999/xlink" height="37.35px" width="62.2px" xmlns="http://www.w3.org/2000/svg">
  <g transform="matrix(1.0, 0.0, 0.0, 1.0, 31.0, 18.65)">
    <path d="M13.35 0.05 Q15.75 -1.0 19.4 -3.1 L19.55 -3.2 Q25.3 -6.6 27.15 -8.75 L26.65 -6.25 Q26.0 -4.3 24.95 -3.1 L24.05 -2.3 Q21.9 -0.5 18.9 1.15 L18.7 1.3 Q18.25 1.15 15.25 2.35 L13.35 0.05 M-2.35 7.1 L-1.9 7.4 -0.8 7.9 -7.85 10.3 -8.45 10.55 -9.5 9.9 -9.65 9.65 -9.95 9.15 -9.95 9.05 -10.2 9.2 Q-10.85 9.65 -11.75 9.95 L-15.2 11.5 -19.2 12.95 -23.6 14.55 -23.25 14.15 Q-12.55 9.2 -2.6 2.2 L-2.0 4.2 -4.0 5.5 -2.35 7.1" fill="#ad0303" fill-rule="evenodd" stroke="none"/>
    <path d="M9.25 -11.6 L9.55 -11.65 10.05 -11.9 13.35 -13.15 Q17.55 -14.15 22.6 -14.15 L25.7 -13.85 29.2 -13.4 29.7 -12.55 29.95 -11.9 Q31.35 -8.0 28.75 -3.6 L28.5 -3.1 Q26.3 0.45 22.4 2.85 L20.05 4.05 Q19.55 4.2 19.0 4.45 17.65 4.2 15.9 2.85 L15.25 2.35 Q18.25 1.15 18.7 1.3 L18.9 1.15 Q21.9 -0.5 24.05 -2.3 L24.95 -3.1 Q26.0 -4.3 26.65 -6.25 L27.15 -8.75 Q25.3 -6.6 19.55 -3.2 L19.4 -3.1 Q15.75 -1.0 13.35 0.05 12.3 -1.35 11.5 -3.1 L11.15 -3.65 Q9.2 -7.95 9.25 -11.6 M9.2 6.8 L6.5 13.35 -1.35 9.2 -1.65 9.2 -2.55 9.5 -8.4 11.0 -8.4 10.95 Q-8.0 10.7 -8.15 10.55 L-8.45 10.55 -7.85 10.3 -0.8 7.9 1.05 8.6 9.2 6.8 M-1.65 9.2 L1.05 8.6 -1.65 9.2 M-12.8 1.4 L-6.25 -2.6 -6.5 -0.7 Q-6.5 0.8 -5.7 2.4 -3.7 1.4 -3.2 1.3 L-3.1 1.35 -2.6 2.05 -2.6 2.2 Q-12.55 9.2 -23.25 14.15 L-21.6 11.9 -21.5 11.9 -21.15 11.8 -21.15 11.55 -21.3 11.55 Q-18.75 8.6 -15.6 6.9 L-14.4 6.25 -13.9 6.05 -13.5 5.8 -12.15 5.35 -12.85 2.65 -12.8 1.4" fill="#f73600" fill-rule="evenodd" stroke="none"/>
    <path d="M11.4 -16.15 L11.55 -16.15 11.8 -16.35 Q17.2 -18.6 22.35 -17.6 27.15 -16.8 29.2 -13.4 L25.7 -13.85 22.6 -14.15 Q17.55 -14.15 13.35 -13.15 L10.05 -11.9 9.55 -11.65 9.25 -11.6 9.25 -11.9 Q9.5 -14.75 10.95 -15.8 L11.4 -16.05 11.4 -16.15 M-9.7 -2.55 L-4.25 -6.05 -5.7 -4.2 -6.1 -3.1 -6.25 -2.6 -12.8 1.4 Q-12.65 0.25 -12.05 -0.6 L-11.35 -1.5 -10.35 -2.05 -9.7 -2.55" fill="#fdc4b4" fill-rule="evenodd" stroke="none"/>
    <path d="M10.95 -15.8 Q9.5 -14.75 9.25 -11.9 L9.25 -11.6 -1.3 -5.55 -5.45 -3.1 -6.25 -2.6 -6.1 -3.1 -5.7 -4.2 -4.25 -6.05 10.95 -15.8 M-11.35 -1.5 L-12.05 -0.6 Q-12.65 0.25 -12.8 1.4 L-14.95 3.0 -14.95 2.85 -14.95 2.35 -14.8 2.15 Q-14.7 1.15 -14.2 0.5 L-11.35 -1.5" fill="#d5d5d5" fill-rule="evenodd" stroke="none"/>
    <path d="M19.0 4.45 L9.2 6.8 1.05 8.6 -0.8 7.9 8.4 4.5 Q14.2 2.4 15.25 2.35 L15.9 2.85 Q17.65 4.2 19.0 4.45 M9.25 -11.6 Q9.2 -7.95 11.15 -3.65 L11.5 -3.1 Q12.3 -1.35 13.35 0.05 7.55 3.15 -1.6 6.75 L-2.35 7.1 -4.0 5.5 -2.0 4.2 -2.6 2.2 -2.6 2.05 -3.1 1.35 -3.2 1.3 Q-3.7 1.4 -5.7 2.4 -6.5 0.8 -6.5 -0.7 L-6.25 -2.6 -5.45 -3.1 -1.3 -5.55 9.25 -11.6 M-14.95 3.0 L-12.8 1.4 -12.85 2.65 -12.15 5.35 -13.5 5.8 -13.9 6.05 -14.4 6.25 Q-15.05 4.5 -14.95 3.0 M-11.75 9.95 Q-10.85 9.65 -10.2 9.2 L-9.95 9.05 -9.95 9.15 -9.65 9.65 -9.5 9.9 -8.45 10.55 -8.15 10.55 -8.45 10.7 -8.4 11.0 -9.05 10.95 Q-10.75 10.8 -11.15 10.25 L-11.4 10.2 -11.75 9.95" fill="#727272" fill-rule="evenodd" stroke="none"/>
    <path d="M13.35 0.05 L15.25 2.35 Q14.2 2.4 8.4 4.5 L-0.8 7.9 -1.9 7.4 -2.35 7.1 -1.6 6.75 Q7.55 3.15 13.35 0.05" fill="#585858" fill-rule="evenodd" stroke="none"/>
    <path d="M-2.55 9.5 L-2.9 11.15 -3.1 12.1 -3.2 12.6 Q-4.7 16.25 -8.35 17.35 -12.05 18.4 -18.85 17.6 -25.6 16.6 -30.1 15.3 -31.05 13.25 -24.95 4.5 -18.95 -4.25 -10.2 -2.6 L-10.35 -2.05 -11.35 -1.5 Q-12.8 -0.6 -13.35 -0.5 L-14.2 0.5 Q-14.7 1.15 -14.8 2.15 L-15.1 2.0 -15.55 2.35 -15.75 2.55 -15.75 2.35 Q-19.5 1.65 -21.95 5.05 -23.9 7.55 -23.9 9.55 L-23.9 9.9 -24.2 9.95 -23.6 11.0 Q-22.95 11.8 -21.6 11.9 L-23.25 14.15 -23.6 14.55 -19.2 12.95 Q-19.9 13.6 -19.5 13.6 L-18.9 13.6 -18.85 13.85 -14.0 13.9 Q-13.2 13.9 -10.8 12.9 -8.35 11.95 -7.8 11.1 L-8.4 11.15 -8.4 11.0 -2.55 9.5" fill="#c9eeff" fill-rule="evenodd" stroke="none"/>
    <path d="M-15.6 6.9 Q-18.75 8.6 -21.3 11.55 L-21.15 11.55 -21.15 11.8 -21.5 11.9 -21.6 11.9 Q-22.95 11.8 -23.6 11.0 L-24.2 9.95 -23.9 9.9 -23.9 9.55 Q-23.9 7.55 -21.95 5.05 -19.5 1.65 -15.75 2.35 L-15.75 2.55 -15.8 2.65 -15.85 2.65 Q-16.4 3.45 -16.4 4.9 -16.4 5.85 -15.6 6.9 M-8.45 10.7 L-8.4 10.95 -8.4 11.0 -8.45 10.7 M-8.4 11.0 L-8.4 11.15 -7.8 11.1 Q-8.35 11.95 -10.8 12.9 -13.2 13.9 -14.0 13.9 L-18.85 13.85 -18.9 13.6 -19.5 13.6 Q-19.9 13.6 -19.2 12.95 L-15.2 11.5 -11.75 9.95 -11.4 10.2 -11.15 10.25 Q-10.75 10.8 -9.05 10.95 L-8.4 11.0" fill="#24a3db" fill-rule="evenodd" stroke="none"/>
    <path d="M-14.8 2.15 L-14.95 2.35 -14.95 2.85 -14.95 3.0 Q-15.05 4.5 -14.4 6.25 L-15.6 6.9 Q-16.4 5.85 -16.4 4.9 -16.4 3.45 -15.85 2.65 L-15.8 2.65 -15.75 2.55 -15.55 2.35 -15.1 2.0 -14.8 2.15" fill="#000000" fill-rule="evenodd" stroke="none"/>
    <path d="M29.2 -13.4 Q27.15 -16.8 22.35 -17.6 17.2 -18.6 11.8 -16.35 L11.55 -16.15 11.4 -16.15 M29.2 -13.4 L29.7 -12.55 29.95 -11.9 Q31.35 -8.0 28.75 -3.6 L28.5 -3.1 Q26.3 0.45 22.4 2.85 L20.05 4.05 Q19.55 4.2 19.0 4.45 M9.2 6.8 L6.5 13.35 -1.35 9.2 -1.65 9.2 M-14.4 6.25 L-15.6 6.9 Q-18.75 8.6 -21.3 11.55 M-21.6 11.9 L-23.25 14.15 M-19.2 12.95 L-23.6 14.55 -23.25 14.15 M-11.75 9.95 L-15.2 11.5 -19.2 12.95" fill="none" stroke="#6d1800" stroke-linecap="round" stroke-linejoin="round" stroke-width="1.5"/>
    <path d="M10.95 -15.8 Q9.5 -14.75 9.25 -11.9 L9.25 -11.6 Q9.2 -7.95 11.15 -3.65 L11.5 -3.1 Q12.3 -1.35 13.35 0.05 L15.25 2.35 15.9 2.85 Q17.65 4.2 19.0 4.45 L9.2 6.8 1.05 8.6 -1.65 9.2 -2.55 9.5 M-9.7 -2.55 L-4.25 -6.05 10.95 -15.8 M-11.35 -1.5 L-10.35 -2.05 -9.7 -2.55 M-14.2 0.5 L-13.35 -0.5 Q-12.8 -0.6 -11.35 -1.5 M-14.2 0.5 Q-14.7 1.15 -14.8 2.15 L-14.95 2.35 -14.95 2.85 -14.95 3.0 M-8.4 11.0 L-2.55 9.5 M-8.4 11.0 L-9.05 10.95 Q-10.75 10.8 -11.15 10.25 L-11.4 10.2 -11.75 9.95 M-14.4 6.25 Q-15.05 4.5 -14.95 3.0" fill="none" stroke="#3c3c3c" stroke-linecap="round" stroke-linejoin="round" stroke-width="1.5"/>
    <path d="M11.4 -16.15 L11.4 -16.05 10.95 -15.8 M-8.4 10.95 Q-8.0 10.7 -8.15 10.55" fill="none" stroke="#ff0000" stroke-linecap="round" stroke-linejoin="round" stroke-width="1.0"/>
    <path d="M-10.2 -2.6 L-9.7 -2.55 M-10.35 -2.05 L-10.2 -2.6" fill="none" stroke="#6d1800" stroke-linecap="round" stroke-linejoin="round" stroke-width="1.0"/>
    <path d="M-2.55 9.5 L-2.9 11.15 -3.1 12.1 -3.2 12.6 Q-4.7 16.25 -8.35 17.35 -12.05 18.4 -18.85 17.6 -25.6 16.6 -30.1 15.3 -31.05 13.25 -24.95 4.5 -18.95 -4.25 -10.2 -2.6" fill="none" stroke="#24a3db" stroke-linecap="round" stroke-linejoin="round" stroke-width="1.5"/>
  </g>
</svg>
