<?xml version="1.0" encoding="UTF-8" standalone="no"?>
<svg xmlns:xlink="http://www.w3.org/1999/xlink" height="63.75px" width="137.0px" xmlns="http://www.w3.org/2000/svg">
  <g transform="matrix(1.0, 0.0, 0.0, 1.0, 47.3, 29.8)">
    <path d="M12.75 -13.75 L16.6 -13.5 16.5 -12.4 16.2 -12.4 Q13.7 -12.4 11.05 -13.1 L8.65 -13.85 Q8.05 -13.85 6.25 -11.6 L4.75 -9.9 4.75 -9.8 4.15 -8.85 3.35 -7.75 Q4.95 -7.55 5.35 -7.2 L5.8 -6.1 6.05 -4.35 Q6.05 -3.95 5.25 -3.7 4.35 -3.5 4.25 -3.15 L3.9 -2.2 3.35 -1.6 Q3.0 -1.8 3.0 -2.05 L3.25 -3.7 Q3.3 -4.65 4.25 -4.8 L5.2 -4.85 4.85 -6.85 3.0 -6.9 Q2.05 -7.0 2.05 -7.4 2.8 -8.75 3.5 -9.45 2.45 -9.7 1.2 -10.8 L-0.55 -12.2 Q-1.25 -12.2 -2.25 -10.95 -3.2 -9.7 -3.8 -9.7 L-6.45 -10.3 -6.4 -11.4 -4.15 -11.0 -2.85 -12.3 Q-1.55 -13.65 -0.8 -13.65 0.15 -13.65 1.7 -12.3 3.2 -11.0 3.9 -11.0 L7.8 -14.5 9.45 -14.55 11.2 -14.05 12.75 -13.75 M8.05 -1.9 Q7.75 -2.6 7.1 -5.85 7.1 -7.3 16.25 -7.45 L16.25 -6.45 8.7 -5.4 Q8.9 -4.3 9.8 -1.55 9.8 -0.9 8.8 -0.5 L7.8 0.15 Q7.8 1.35 9.9 6.05 L15.65 4.2 16.8 3.8 16.2 4.0 16.25 5.45 10.05 7.55 8.55 7.4 7.75 7.1 8.15 10.5 Q8.2 12.2 7.55 12.2 L6.3 11.75 6.25 11.75 6.05 12.05 Q7.15 12.35 7.15 14.7 7.15 15.5 7.4 15.65 L8.5 15.25 Q9.15 15.25 9.0 15.85 L8.55 17.85 7.7 20.25 7.45 20.0 8.0 16.5 7.25 16.75 6.5 17.0 Q6.0 17.0 5.9 16.55 L5.9 16.1 6.25 13.15 Q6.25 12.85 5.65 12.7 L5.0 12.25 5.55 11.55 2.0 11.3 Q1.3 11.3 1.3 10.8 L1.5 9.55 2.15 7.85 2.15 7.75 -4.85 12.15 -6.2 13.0 -6.35 11.0 -6.95 11.4 -4.7 9.85 Q2.2 5.2 3.4 5.2 4.45 5.2 4.45 6.2 L3.55 7.6 Q2.55 9.0 2.25 10.15 L6.55 10.8 6.6 10.75 6.75 10.8 7.0 10.85 6.6 8.65 6.3 6.05 Q6.3 5.4 7.1 5.4 L8.2 5.7 7.35 3.6 6.35 -0.15 6.45 -0.95 Q6.7 -1.25 8.05 -1.9 M8.7 22.35 L9.9 22.35 11.7 22.7 11.9 22.55 Q11.85 20.35 11.95 19.25 12.05 17.3 13.65 16.75 14.3 16.5 15.3 17.65 L17.1 19.55 17.65 19.9 17.15 19.6 17.3 20.9 17.35 20.95 Q16.45 20.55 15.4 19.8 L13.65 18.6 13.65 18.65 Q13.45 19.35 13.35 22.05 13.15 24.4 12.4 24.4 L11.25 23.9 Q10.5 23.4 9.3 23.4 9.05 23.4 8.05 26.0 7.75 26.85 6.55 26.95 L4.95 27.05 Q4.25 27.3 4.3 27.85 4.35 28.25 3.55 28.25 3.15 28.25 0.1 26.5 L-0.1 27.0 Q-0.7 28.1 -1.5 28.1 L-4.25 28.0 -4.4 27.0 -2.5 27.0 -1.15 27.1 -0.75 26.0 -1.7 25.4 -5.0 23.35 -5.1 22.85 -4.85 22.9 Q-3.7 22.9 -0.25 24.85 L3.15 26.8 4.9 25.9 6.2 25.5 7.1 24.85 7.75 23.45 8.7 22.35" fill="#515151" fill-rule="evenodd" stroke="none"/>
    <path d="M12.65 -13.75 L12.6 -12.75 11.35 -13.0 11.45 -14.0 12.65 -13.75 M12.35 -7.3 L12.3 -6.0 11.05 -5.8 11.1 -7.2 12.35 -7.3 M1.15 -10.85 L-0.55 -12.2 -0.65 -12.2 -0.55 -13.6 Q0.2 -13.5 1.25 -12.7 L1.15 -10.85 M12.35 6.85 L11.1 7.25 11.05 5.8 12.3 5.45 12.35 6.85 M1.05 8.45 L-0.75 9.6 -0.85 7.35 1.0 6.25 1.05 8.45 M13.5 22.05 L13.4 21.25 13.35 22.05 Q13.15 24.15 12.55 24.4 L11.95 19.25 Q12.05 17.75 13.0 17.1 L13.5 22.05 M0.75 25.4 L2.75 26.55 2.95 28.05 0.95 27.0 0.75 25.4" fill="#000000" fill-rule="evenodd" stroke="none"/>
    <path d="M81.4 2.45 Q81.5 1.5 81.75 1.0 82.45 -0.55 84.2 -0.2 85.1 0.0 86.2 0.5 L89.7 0.9 Q88.1 3.75 79.35 10.45 L79.0 9.75 76.9 4.9 Q76.9 4.35 77.5 4.1 L81.0 3.8 Q81.3 3.35 81.4 2.45" fill="#515151" fill-rule="evenodd" stroke="none"/>
    <path d="M55.05 9.4 Q58.45 10.65 61.1 12.9 63.85 15.25 64.8 16.8 53.25 17.2 42.25 20.8 L54.95 9.5 55.05 9.4 54.95 9.5 42.25 20.8 42.15 20.9 42.2 20.85 42.1 20.85 42.2 20.75 Q42.45 19.3 41.15 18.15 L37.55 15.55 Q35.9 14.3 37.6 14.35 40.05 14.45 38.55 13.15 36.35 11.25 36.6 10.35 36.85 9.45 39.6 11.6 42.9 14.25 44.95 13.9 46.2 13.7 44.9 12.8 L41.25 10.75 Q35.35 7.4 37.3 5.45 39.3 3.4 43.2 5.55 48.45 8.45 49.25 8.55 50.4 8.65 50.15 7.6 L49.15 5.25 Q47.65 1.85 51.65 2.15 56.05 2.45 55.95 6.0 55.9 7.75 55.05 9.4 M42.2 20.75 L42.2 20.85 42.2 20.75" fill="#000000" fill-rule="evenodd" stroke="none"/>
    <path d="M42.25 20.8 Q53.25 17.2 64.8 16.8 63.85 15.25 61.1 12.9 58.45 10.65 55.05 9.4 L54.95 9.5 42.25 20.8 42.15 20.9 42.2 20.85 42.1 20.85 42.2 20.75 Q42.45 19.3 41.15 18.15 L37.55 15.55 Q35.9 14.3 37.6 14.35 40.05 14.45 38.55 13.15 36.35 11.25 36.6 10.35 36.85 9.45 39.6 11.6 42.9 14.25 44.95 13.9 46.2 13.7 44.9 12.8 L41.25 10.75 Q35.35 7.4 37.3 5.45 39.3 3.4 43.2 5.55 48.45 8.45 49.25 8.55 50.4 8.65 50.15 7.6 L49.15 5.25 Q47.65 1.85 51.65 2.15 56.05 2.45 55.95 6.0 55.9 7.75 55.05 9.4 M42.2 20.85 L42.2 20.75" fill="none" stroke="#000000" stroke-linecap="round" stroke-linejoin="round" stroke-width="1.0"/>
    <path d="M54.7 9.25 Q58.3 10.55 61.1 12.9 63.85 15.25 64.8 16.8 53.2 17.25 42.1 20.85 L54.7 9.25" fill="#000000" fill-rule="evenodd" stroke="none"/>
    <path d="M50.15 7.6 L49.15 5.25 Q47.65 1.85 51.65 2.15 56.05 2.45 55.95 6.0 55.9 7.8 54.95 9.5 L42.15 20.9 Q42.5 19.35 41.15 18.15 L37.55 15.55 Q35.9 14.3 37.6 14.35 40.05 14.45 38.55 13.15 36.35 11.25 36.6 10.35 36.85 9.45 39.6 11.6 42.9 14.25 44.95 13.9 46.2 13.7 44.9 12.8 L41.25 10.75 Q35.35 7.4 37.3 5.45 39.3 3.4 43.2 5.55 48.45 8.45 49.25 8.55 50.4 8.65 50.15 7.6" fill="#515151" fill-rule="evenodd" stroke="none"/>
    <path d="M55.95 5.65 L55.95 6.0 Q55.9 7.8 54.95 9.5 L42.15 20.9 Q42.4 19.8 41.8 18.85 49.25 12.7 55.95 5.65" fill="#3c3c3c" fill-rule="evenodd" stroke="none"/>
    <path d="M88.35 2.7 Q86.05 5.2 80.75 9.35 L79.35 6.1 Q79.35 5.65 79.85 5.45 L82.65 5.2 82.95 4.1 83.25 2.95 Q83.8 1.7 85.25 2.0 L86.85 2.55 88.35 2.7" fill="#191919" fill-rule="evenodd" stroke="none"/>
    <path d="M39.65 -26.55 L38.65 -27.0 Q44.7 -27.3 50.3 -29.3 50.25 -28.3 49.45 -26.55 48.65 -24.8 47.25 -23.4 L47.2 -23.4 Q47.25 -21.45 46.55 -19.65 45.85 -17.85 45.25 -17.1 42.7 -22.45 38.6 -27.0 L39.65 -26.55" fill="#000000" fill-rule="evenodd" stroke="none"/>
    <path d="M39.65 -26.55 L38.65 -27.0 Q44.7 -27.3 50.3 -29.3 50.25 -28.3 49.45 -26.55 48.65 -24.8 47.25 -23.4 L47.2 -23.4 Q47.25 -21.45 46.55 -19.65 45.85 -17.85 45.25 -17.1 42.7 -22.45 38.6 -27.0 L39.65 -26.55 Z" fill="none" stroke="#000000" stroke-linecap="round" stroke-linejoin="round" stroke-width="1.0"/>
    <path d="M47.2 -23.45 Q47.25 -21.45 46.55 -19.65 45.85 -17.85 45.25 -17.1 42.7 -22.45 38.6 -27.0 L47.2 -23.45" fill="#000000" fill-rule="evenodd" stroke="none"/>
    <path d="M47.25 -23.4 Q48.65 -24.8 49.45 -26.55 50.25 -28.3 50.3 -29.3 44.7 -27.3 38.65 -27.0 L47.25 -23.4" fill="#515151" fill-rule="evenodd" stroke="none"/>
    <path d="M47.95 -24.15 L47.25 -23.4 38.65 -27.0 41.95 -27.3 47.95 -24.15" fill="#3c3c3c" fill-rule="evenodd" stroke="none"/>
    <path d="M-44.0 -14.25 L-44.2 -13.9 -42.6 -14.75 -43.1 -13.9 -45.9 -9.25 -45.95 -9.1 -45.4 -9.1 Q-43.6 -9.85 -41.5 -9.85 -41.0 -9.85 -40.8 -9.4 L-40.7 -8.9 Q-40.7 -8.4 -41.5 -7.05 -41.1 -7.1 -40.8 -6.8 L-40.55 -6.45 -41.85 -2.4 -42.0 -2.3 -42.2 -3.15 -42.0 -4.6 -41.7 -5.9 -41.65 -6.0 -42.6 -5.65 Q-43.5 -5.65 -43.4 -6.5 L-42.7 -8.2 -42.7 -8.25 -43.7 -8.0 -45.9 -7.8 Q-47.3 -7.8 -47.3 -8.5 L-44.55 -13.35 -44.0 -14.25 M-29.9 9.35 L-29.45 9.35 -30.65 9.3 Q-31.95 9.35 -32.15 10.15 L-32.75 11.35 -33.2 10.35 Q-33.2 9.05 -32.65 8.9 L-29.95 8.75 -29.9 9.35 M-39.3 5.5 Q-39.3 6.35 -39.85 7.35 L-40.0 7.6 -40.5 8.5 Q-41.4 9.45 -43.4 8.9 L-41.95 10.2 Q-41.7 10.45 -41.7 11.15 L-41.95 12.25 Q-42.25 13.25 -42.5 13.45 L-43.95 14.3 -45.45 13.5 Q-42.9 11.35 -42.9 10.8 -42.9 10.6 -43.9 9.7 L-44.95 8.35 -44.85 7.95 -44.2 7.8 -43.8 7.7 -41.6 7.9 Q-40.75 7.9 -40.25 6.4 -39.85 5.05 -39.35 5.35 L-39.3 5.5" fill="#515151" fill-rule="evenodd" stroke="none"/>
    <path d="M17.85 -22.5 L17.4 -22.25 Q16.5 -14.75 16.25 -7.0 15.65 -7.85 15.1 -9.35 L13.9 -11.3 Q13.5 -11.75 13.5 -12.75 13.5 -13.85 14.85 -16.1 L16.15 -18.7 15.95 -20.0 Q15.95 -21.35 17.2 -22.15 L17.85 -22.5 M13.2 33.6 L4.95 31.85 3.95 31.65 4.35 31.2 5.15 30.3 6.2 30.1 Q6.9 30.15 7.3 29.6 7.55 29.15 8.75 28.8 L10.65 28.4 Q11.2 28.4 11.3 28.9 L11.3 29.6 Q11.3 30.0 11.85 30.3 L12.45 30.8 13.1 33.35 13.2 33.6 M-2.65 -13.1 L-2.3 -10.8 Q-1.95 -9.4 -1.95 -8.8 -1.95 -7.75 -2.7 -7.15 L-4.5 -5.3 -6.1 -3.35 -6.7 -2.7 Q-6.6 -11.85 -5.5 -20.65 -3.25 -18.6 -3.0 -17.5 -2.65 -15.9 -2.65 -13.1" fill="#515151" fill-rule="evenodd" stroke="none"/>
    <path d="M15.8 -16.1 L17.0 -18.25 Q16.5 -13.5 16.35 -8.65 L16.55 -8.15 16.05 -9.35 14.85 -11.3 Q14.45 -11.75 14.45 -12.75 14.45 -13.85 15.8 -16.1 M17.3 -21.3 L17.05 -19.05 17.1 -18.7 16.9 -20.0 Q16.9 -20.75 17.3 -21.3 M12.4 33.95 L12.25 33.4 4.95 31.85 4.55 31.75 4.65 31.65 Q4.9 31.35 5.7 31.45 6.4 31.5 6.8 30.95 7.05 30.5 8.25 30.15 L10.15 29.75 Q10.7 29.75 10.8 30.25 L10.8 30.95 Q10.8 31.35 11.35 31.65 L11.95 32.15 12.4 33.95 M-4.4 -17.7 Q-4.05 -16.1 -4.05 -13.3 L-3.7 -11.0 Q-3.35 -9.6 -3.35 -9.0 -3.35 -7.95 -4.1 -7.35 L-5.9 -5.5 -6.7 -4.45 Q-6.5 -12.15 -5.6 -19.6 -4.55 -18.45 -4.4 -17.7" fill="#191919" fill-rule="evenodd" stroke="none"/>
  </g>
</svg>
