<?xml version="1.0" encoding="UTF-8" standalone="no"?>
<svg xmlns:xlink="http://www.w3.org/1999/xlink" height="45.15px" width="126.5px" xmlns="http://www.w3.org/2000/svg">
  <g transform="matrix(1.0, 0.0, 0.0, 1.0, 98.15, -2.55)">
    <path d="M21.95 8.7 Q28.2 15.0 28.35 24.05 28.5 33.1 22.5 39.55 16.5 46.1 7.85 46.25 -0.8 46.4 -7.0 40.05 -13.25 33.85 -13.4 24.8 -13.55 15.75 -7.55 9.2 -1.55 2.7 7.1 2.55 15.75 2.4 21.95 8.7 M-56.85 40.95 Q-63.8 47.5 -73.75 47.7 -83.75 47.85 -90.9 41.55 -98.0 35.3 -98.15 26.25 -98.3 17.2 -91.45 10.7 -84.5 4.15 -74.5 4.0 -64.55 3.8 -57.4 10.1 -50.2 16.35 -50.05 25.4 -49.9 34.45 -56.85 40.95" fill="#ffd138" fill-rule="evenodd" stroke="none"/>
  </g>
</svg>
