<?xml version="1.0" encoding="UTF-8" standalone="no"?>
<svg xmlns:xlink="http://www.w3.org/1999/xlink" height="32.1px" width="49.6px" xmlns="http://www.w3.org/2000/svg">
  <g transform="matrix(1.0, 0.0, 0.0, 1.0, 26.8, 16.85)">
    <path d="M0.2 7.15 L9.95 7.9 13.3 4.15 Q18.6 -2.5 17.65 -7.15 16.8 -11.85 10.3 -11.85 3.8 -11.85 -4.6 -7.15 -12.85 -2.5 -18.15 4.15 -20.75 7.4 -21.8 10.25 -10.85 7.15 0.2 7.15" fill="#8a1d00" fill-rule="evenodd" stroke="none"/>
    <path d="M0.2 7.15 Q-10.85 7.15 -21.8 10.25 -20.75 7.4 -18.15 4.15 -12.85 -2.5 -4.6 -7.15 3.8 -11.85 10.3 -11.85 16.8 -11.85 17.65 -7.15 18.6 -2.5 13.3 4.15 L9.95 7.9 0.2 7.15 Z" fill="none" stroke="#1d6f8c" stroke-linecap="round" stroke-linejoin="round" stroke-width="10.0"/>
    <path d="M17.65 -7.1 Q18.6 -2.45 13.35 4.2 L9.95 7.95 0.25 7.2 Q-10.8 7.2 -21.8 10.25 -20.75 7.5 -18.15 4.2 -12.9 -2.45 -4.55 -7.1 3.85 -11.85 10.4 -11.85 16.85 -11.85 17.65 -7.1" fill="#8a1d00" fill-rule="evenodd" stroke="none"/>
    <path d="M16.1 -10.1 L9.25 1.95 Q-4.6 4.35 -18.1 4.15 -12.9 -2.5 -4.55 -7.15 3.8 -11.85 10.35 -11.85 14.2 -11.85 16.1 -10.1" fill="#ffffff" fill-rule="evenodd" stroke="none"/>
    <path d="M6.2 4.45 L7.05 7.6 0.2 7.2 Q-10.85 7.2 -21.85 10.25 -20.8 7.45 -18.15 4.15 L-16.9 2.65 Q-5.35 2.75 6.2 4.45" fill="#ffffff" fill-rule="evenodd" stroke="none"/>
  </g>
</svg>
