<?xml version="1.0" encoding="UTF-8" standalone="no"?>
<svg xmlns:xlink="http://www.w3.org/1999/xlink" height="46.05px" width="51.75px" xmlns="http://www.w3.org/2000/svg">
  <g transform="matrix(1.0, 0.0, 0.0, 1.0, -20.35, 157.35)">
    <path d="M67.15 -139.85 Q67.8 -140.9 67.55 -141.95 67.0 -143.15 65.9 -143.55 64.75 -144.0 63.45 -143.55 L52.75 -139.65 58.15 -148.9 Q58.8 -149.95 58.4 -151.1 58.05 -152.2 56.95 -152.65 L54.5 -152.6 Q53.2 -152.15 52.55 -151.1 L47.15 -141.85 44.15 -151.05 Q43.75 -152.2 42.6 -152.65 L40.2 -152.6 Q38.9 -152.15 38.25 -151.1 37.65 -150.0 38.0 -148.85 L41.0 -139.6 31.35 -143.4 28.95 -143.35 Q27.65 -142.9 27.0 -141.8 26.4 -140.75 26.75 -139.6 27.15 -138.5 28.25 -138.05 L37.9 -134.25 27.2 -130.4 Q25.9 -129.95 25.25 -128.85 24.65 -127.8 25.0 -126.65 25.4 -125.5 26.5 -125.1 L28.9 -124.95 39.55 -128.85 34.25 -119.75 Q33.6 -118.7 34.0 -117.55 34.4 -116.45 35.5 -116.0 L37.9 -116.05 Q39.2 -116.5 39.85 -117.55 L45.25 -126.8 48.25 -117.6 Q48.65 -116.45 49.8 -116.0 L52.2 -116.05 Q53.55 -116.55 54.15 -117.6 54.8 -118.7 54.4 -119.8 L51.4 -129.05 61.05 -125.25 63.45 -125.3 Q64.8 -125.75 65.4 -126.8 66.05 -127.9 65.65 -129.05 65.25 -130.2 64.15 -130.6 L54.6 -134.35 65.15 -138.1 Q66.55 -138.75 67.15 -139.85 Z" fill="none" stroke="#ade8fc" stroke-linecap="round" stroke-linejoin="round" stroke-width="9.0"/>
    <path d="M67.15 -139.85 Q66.55 -138.75 65.15 -138.1 L54.6 -134.35 64.15 -130.6 Q65.25 -130.2 65.65 -129.05 66.05 -127.9 65.4 -126.8 64.8 -125.75 63.45 -125.3 L61.05 -125.25 51.4 -129.05 54.4 -119.8 Q54.8 -118.7 54.15 -117.6 53.55 -116.55 52.2 -116.05 L49.8 -116.0 Q48.65 -116.45 48.25 -117.6 L45.25 -126.8 39.85 -117.55 Q39.2 -116.5 37.9 -116.05 L35.5 -116.0 Q34.4 -116.45 34.0 -117.55 33.6 -118.7 34.25 -119.75 L39.55 -128.85 28.9 -124.95 26.5 -125.1 Q25.4 -125.5 25.0 -126.65 24.65 -127.8 25.25 -128.85 25.9 -129.95 27.2 -130.4 L37.9 -134.25 28.25 -138.05 Q27.15 -138.5 26.75 -139.6 26.4 -140.75 27.0 -141.8 27.65 -142.9 28.95 -143.35 L31.35 -143.4 41.0 -139.6 38.0 -148.85 Q37.65 -150.0 38.25 -151.1 38.9 -152.15 40.2 -152.6 L42.6 -152.65 Q43.75 -152.2 44.15 -151.05 L47.15 -141.85 52.55 -151.1 Q53.2 -152.15 54.5 -152.6 L56.95 -152.65 Q58.05 -152.2 58.4 -151.1 58.8 -149.95 58.15 -148.9 L52.75 -139.65 63.45 -143.55 Q64.75 -144.0 65.9 -143.55 67.0 -143.15 67.55 -141.95 67.8 -140.9 67.15 -139.85" fill="#ffffff" fill-rule="evenodd" stroke="none"/>
  </g>
</svg>
