<?xml version="1.0" encoding="UTF-8" standalone="no"?>
<svg xmlns:xlink="http://www.w3.org/1999/xlink" height="20.45px" width="11.5px" xmlns="http://www.w3.org/2000/svg">
  <g transform="matrix(1.0, 0.0, 0.0, 1.0, 4.75, 25.6)">
    <path d="M2.25 -25.6 L2.4 -25.55 2.6 -25.55 Q4.1 -25.55 5.4 -24.45 L5.1 -24.0 Q3.95 -23.55 3.05 -22.35 L1.85 -20.5 Q0.85 -18.65 0.75 -16.35 L0.7 -15.4 Q0.8 -12.45 2.15 -10.35 L2.45 -10.0 Q3.85 -7.75 5.8 -7.7 L6.6 -7.8 6.75 -7.15 Q5.45 -5.4 3.75 -5.2 L2.7 -5.15 1.65 -5.15 1.05 -5.35 0.9 -5.55 0.8 -5.6 Q-1.95 -6.95 -3.3 -9.7 L-3.9 -11.25 Q-4.85 -13.4 -4.75 -15.95 L-4.75 -16.05 -4.6 -17.05 Q-4.3 -19.95 -2.65 -22.35 L-1.1 -24.25 Q0.15 -25.45 2.0 -25.6 L2.25 -25.6" fill="#ffcc00" fill-rule="evenodd" stroke="none"/>
  </g>
</svg>
