<?xml version="1.0" encoding="UTF-8" standalone="no"?>
<svg xmlns:xlink="http://www.w3.org/1999/xlink" height="40.75px" width="69.0px" xmlns="http://www.w3.org/2000/svg">
  <g transform="matrix(1.0, 0.0, 0.0, 1.0, 34.4, 20.45)">
    <path d="M10.05 -17.25 Q9.45 -15.95 11.15 -14.1 L11.75 -13.5 10.7 -13.35 2.4 -10.7 Q3.45 -13.1 4.95 -15.5 L5.0 -15.5 5.65 -15.7 9.7 -17.15 9.7 -17.2 10.05 -17.25 M14.45 -13.6 L14.1 -14.0 Q12.65 -15.5 13.5 -16.6 14.25 -17.55 16.5 -17.65 21.15 -17.25 25.3 -14.7 26.5 -14.0 27.55 -13.1 27.8 -12.35 27.3 -11.7 26.65 -10.95 25.3 -10.65 L22.7 -12.0 Q24.05 -12.1 24.55 -12.65 25.05 -13.35 24.2 -14.2 L21.65 -15.7 Q19.95 -16.4 18.3 -16.25 16.75 -16.25 16.2 -15.6 15.7 -14.95 16.6 -14.05 L17.3 -13.4 14.45 -13.6 M27.6 -9.15 Q29.35 -9.45 30.3 -10.25 L31.3 -8.75 31.5 -8.45 32.5 -6.45 31.2 -5.85 28.4 -8.45 27.6 -9.15 M-9.45 -10.4 L-7.05 -11.2 -8.8 -8.45 -9.35 -7.4 -14.45 -5.95 Q-13.65 -7.45 -12.65 -8.45 L-12.4 -8.75 -10.8 -9.95 -10.6 -10.1 -9.45 -10.4" fill="#d0d0d0" fill-rule="evenodd" stroke="none"/>
    <path d="M6.6 -8.45 Q7.0 -9.45 7.7 -10.25 14.6 -6.85 21.45 -3.5 20.95 -1.85 19.7 -0.45 L19.25 0.0 Q17.05 2.3 13.75 2.3 10.55 2.3 8.3 0.0 L7.95 -0.45 Q6.05 -2.55 6.05 -5.5 6.05 -7.15 6.6 -8.45 M33.85 1.8 Q31.3 1.45 29.4 -0.45 27.85 -2.0 27.3 -3.95 L31.2 -5.85 32.5 -6.45 32.65 -5.65 29.6 -3.95 Q31.25 -0.95 32.25 -0.85 L33.85 -0.9 33.85 1.8 M18.3 -4.05 L10.25 -8.1 10.25 -8.0 Q9.3 -6.9 9.3 -5.35 9.3 -3.35 10.65 -2.0 11.95 -0.65 13.8 -0.65 15.7 -0.65 17.05 -2.0 17.85 -2.9 18.3 -3.95 L18.3 -4.05" fill="#1c1c1c" fill-rule="evenodd" stroke="none"/>
    <path d="M11.75 -13.5 L11.15 -14.1 Q9.45 -15.95 10.05 -17.25 L11.05 -17.5 16.5 -17.65 Q14.25 -17.55 13.5 -16.6 12.65 -15.5 14.1 -14.0 L14.45 -13.6 11.75 -13.5 M4.95 -15.5 Q3.45 -13.1 2.4 -10.7 L-1.25 -9.65 -1.25 -9.7 -9.35 -7.4 -8.8 -8.45 -7.05 -11.2 4.95 -15.5 M17.3 -13.4 L16.6 -14.05 Q15.7 -14.95 16.2 -15.6 16.75 -16.25 18.3 -16.25 19.95 -16.4 21.65 -15.7 L24.2 -14.2 Q25.05 -13.35 24.55 -12.65 24.05 -12.1 22.7 -12.0 20.15 -13.05 17.3 -13.4 M25.3 -10.65 Q26.65 -10.95 27.3 -11.7 27.8 -12.35 27.55 -13.1 L30.3 -10.25 Q29.35 -9.45 27.6 -9.15 L25.3 -10.65" fill="#fdc4b4" fill-rule="evenodd" stroke="none"/>
    <path d="M2.4 -10.7 L10.7 -13.35 11.75 -13.5 Q13.7 -11.7 17.25 -10.45 21.45 -8.95 25.25 -8.95 L27.6 -9.15 28.4 -8.45 31.2 -5.85 27.3 -3.95 Q27.85 -2.0 29.4 -0.45 31.3 1.45 33.85 1.8 33.5 6.4 30.4 10.65 28.4 13.4 25.8 15.2 14.45 16.7 3.15 15.6 L1.05 11.05 Q-1.05 5.4 -0.55 -0.45 -0.25 -4.4 1.45 -8.45 1.75 -9.6 2.4 -10.7 M22.7 -12.0 L25.3 -10.65 23.8 -10.55 Q21.1 -10.45 18.25 -11.55 15.8 -12.4 14.45 -13.6 L17.3 -13.4 19.15 -12.6 Q20.75 -12.0 22.45 -12.0 L22.7 -12.0 M4.55 -15.6 L-9.5 -13.15 -9.7 -19.7 4.55 -15.6 M6.6 -8.45 Q6.05 -7.15 6.05 -5.5 6.05 -2.55 7.95 -0.45 L8.3 0.0 Q10.55 2.3 13.75 2.3 17.05 2.3 19.25 0.0 L19.7 -0.45 Q20.95 -1.85 21.45 -3.5 14.6 -6.85 7.7 -10.25 7.0 -9.45 6.6 -8.45 M-9.35 -7.4 Q-10.85 -4.2 -11.15 -0.45 L-11.3 1.8 Q-11.3 7.0 -9.1 11.4 L-2.6 10.7 Q-12.65 16.15 -23.45 17.05 L-17.55 13.35 -14.4 11.4 -15.15 9.45 -15.95 6.4 -16.15 4.9 Q-16.5 2.05 -16.15 -0.45 -15.85 -3.2 -14.65 -5.5 L-14.45 -5.9 -14.45 -5.95 -9.35 -7.4" fill="#5f5f5f" fill-rule="evenodd" stroke="none"/>
    <path d="M11.75 -13.5 L14.45 -13.6 Q15.8 -12.4 18.25 -11.55 21.1 -10.45 23.8 -10.55 L25.3 -10.65 27.6 -9.15 25.25 -8.95 Q21.45 -8.95 17.25 -10.45 13.7 -11.7 11.75 -13.5 M22.7 -12.0 L22.45 -12.0 Q20.75 -12.0 19.15 -12.6 L17.3 -13.4 Q20.15 -13.05 22.7 -12.0 M2.4 -10.7 Q1.75 -9.6 1.45 -8.45 -0.25 -4.4 -0.55 -0.45 -1.05 5.4 1.05 11.05 L-2.0 11.85 -2.6 10.7 -9.1 11.4 Q-11.3 7.0 -11.3 1.8 L-11.15 -0.45 Q-10.85 -4.2 -9.35 -7.4 L-1.25 -9.7 -1.25 -9.65 2.4 -10.7" fill="#f73600" fill-rule="evenodd" stroke="none"/>
    <path d="M18.3 -4.05 L18.3 -3.95 Q17.85 -2.9 17.05 -2.0 15.7 -0.65 13.8 -0.65 11.95 -0.65 10.65 -2.0 9.3 -3.35 9.3 -5.35 9.3 -6.9 10.25 -8.0 L10.25 -8.1 18.3 -4.05 M33.85 -0.9 L32.25 -0.85 Q31.25 -0.95 29.6 -3.95 L32.65 -5.65 Q33.85 -3.5 33.85 -0.9" fill="#ffffff" fill-rule="evenodd" stroke="none"/>
    <path d="M4.55 -15.6 L4.95 -15.5 -7.05 -11.2 -9.45 -10.4 -9.5 -12.5 -9.5 -13.15 4.55 -15.6 M-2.6 10.7 L-2.0 11.85 -7.35 14.35 -6.65 15.2 -4.95 17.1 -3.75 18.3 -5.35 18.2 Q-8.4 18.5 -11.05 16.1 L-14.9 17.4 -27.6 19.55 -23.45 17.05 Q-12.65 16.15 -2.6 10.7 M3.15 15.6 Q14.45 16.7 25.8 15.2 22.15 17.7 17.3 18.55 L15.8 18.7 15.3 18.8 5.1 18.55 3.15 15.6" fill="#383838" fill-rule="evenodd" stroke="none"/>
    <path d="M-9.5 -12.5 L-9.45 -10.4 -10.6 -10.1 -10.8 -9.95 -12.4 -8.75 Q-12.3 -10.9 -12.8 -11.25 -13.6 -11.9 -15.95 -11.9 -19.85 -11.9 -24.25 -8.45 -28.25 -5.4 -31.3 -0.45 L-32.4 1.3 Q-31.65 1.45 -26.1 7.5 -21.65 12.35 -17.95 11.5 L-17.35 11.2 -15.15 9.45 -14.4 11.4 -17.55 13.35 Q-19.45 14.45 -21.4 14.65 -23.45 14.95 -28.6 9.95 -33.75 5.0 -34.05 2.8 L-34.4 0.4 -34.4 0.3 -34.4 0.0 -34.3 -0.45 -33.75 -2.3 Q-32.7 -4.9 -29.7 -8.45 L-29.3 -8.95 Q-23.5 -15.85 -17.35 -15.35 -13.4 -15.6 -11.2 -14.5 -9.55 -13.65 -9.5 -12.5 M-15.95 6.4 Q-18.1 6.55 -21.05 4.5 -23.4 2.9 -25.4 0.5 L-25.25 -0.45 Q-24.6 -4.5 -21.5 -5.95 -19.55 -6.9 -17.4 -6.55 L-14.95 -6.2 -14.45 -5.9 -14.65 -5.5 Q-15.85 -3.2 -16.15 -0.45 -16.5 2.05 -16.15 4.9 L-15.95 6.4" fill="#24a3db" fill-rule="evenodd" stroke="none"/>
    <path d="M-15.15 9.45 L-17.35 11.2 -17.95 11.5 Q-21.65 12.35 -26.1 7.5 -31.65 1.45 -32.4 1.3 L-31.3 -0.45 Q-28.25 -5.4 -24.25 -8.45 -19.85 -11.9 -15.95 -11.9 -13.6 -11.9 -12.8 -11.25 -12.3 -10.9 -12.4 -8.75 L-12.65 -8.45 Q-13.65 -7.45 -14.45 -5.95 L-14.45 -5.9 -14.95 -6.2 -17.4 -6.55 Q-19.55 -6.9 -21.5 -5.95 -24.6 -4.5 -25.25 -0.45 L-25.4 0.5 Q-23.4 2.9 -21.05 4.5 -18.1 6.55 -15.95 6.4 L-15.15 9.45" fill="#c9eeff" fill-rule="evenodd" stroke="none"/>
    <path d="M-2.0 11.85 L1.05 11.05 3.15 15.6 5.1 18.55 -3.75 18.3 -4.95 17.1 -6.65 15.2 -7.35 14.35 -2.0 11.85" fill="#ad0303" fill-rule="evenodd" stroke="none"/>
    <path d="M10.05 -17.25 L9.7 -17.2 9.7 -17.15 5.65 -15.7 5.0 -15.5 4.95 -15.5 4.55 -15.6 5.05 -15.65 4.95 -15.5 M16.5 -17.65 L11.05 -17.5 10.05 -17.25 M27.55 -13.1 Q26.5 -14.0 25.3 -14.7 21.15 -17.25 16.5 -17.65 M30.3 -10.25 L27.55 -13.1 M5.65 -15.7 L5.05 -15.65 M-9.5 -13.15 L-9.5 -12.5 -9.45 -10.4 M25.8 15.2 Q28.4 13.4 30.4 10.65 33.5 6.4 33.85 1.8 L33.85 -0.9 Q33.85 -3.5 32.65 -5.65 L32.5 -6.45 31.5 -8.45 31.3 -8.75 30.3 -10.25 M5.1 18.55 L15.3 18.8 15.8 18.7 17.3 18.55 Q22.15 17.7 25.8 15.2 M5.1 18.55 L-3.75 18.3 -5.35 18.2 Q-8.4 18.5 -11.05 16.1 L-14.9 17.4 -27.6 19.55 -23.45 17.05 -17.55 13.35 M-15.15 9.45 L-15.95 6.4 M-14.45 -5.9 L-14.45 -5.95 Q-13.65 -7.45 -12.65 -8.45 L-12.4 -8.75 -10.8 -9.95 -10.6 -10.1 -9.45 -10.4 M4.55 -15.6 L-9.7 -19.7 -9.5 -13.15 M-14.45 -5.9 L-14.65 -5.5 Q-15.85 -3.2 -16.15 -0.45 -16.5 2.05 -16.15 4.9 L-15.95 6.4 M-15.15 9.45 L-14.4 11.4 -17.55 13.35" fill="none" stroke="#1c1c1c" stroke-linecap="round" stroke-linejoin="round" stroke-width="1.5"/>
  </g>
</svg>
