<?xml version="1.0" encoding="UTF-8" standalone="no"?>
<svg xmlns:xlink="http://www.w3.org/1999/xlink" height="61.0px" width="69.85px" xmlns="http://www.w3.org/2000/svg">
  <g transform="matrix(1.0, 0.0, 0.0, 1.0, 1.4, 5.1)">
    <path d="M8.55 25.25 L9.95 25.05 Q11.2 25.15 12.05 26.0 13.35 27.25 13.1 29.1 L11.3 31.95 9.1 35.05 Q7.85 36.4 6.9 36.65 L5.25 36.6 Q4.05 36.3 3.0 35.05 2.0 33.9 1.9 32.55 1.8 31.85 2.0 30.9 2.2 30.0 3.05 29.25 L5.55 27.3 Q7.8 25.6 8.55 25.25 Z" fill="none" stroke="#660505" stroke-linecap="round" stroke-linejoin="round" stroke-width="2.5"/>
    <path d="M8.75 25.2 L9.95 25.05 Q11.2 25.15 12.05 26.0 13.35 27.25 13.1 29.1 L12.85 29.55 12.75 28.9 Q12.5 27.5 11.35 26.4 10.15 25.35 8.85 25.2 L8.75 25.2 M10.8 32.65 L10.05 33.7 Q10.5 32.65 10.25 31.5 9.95 30.1 8.75 29.05 7.65 27.9 6.3 27.9 5.5 27.65 4.65 27.9 L5.55 27.3 6.6 26.55 7.1 26.55 Q8.45 26.8 9.6 27.85 10.8 28.95 11.05 30.35 11.25 31.55 10.8 32.65 M12.2 30.5 L11.65 31.4 11.65 29.9 Q11.35 28.55 10.2 27.4 9.05 26.4 7.7 26.1 L7.2 26.1 8.0 25.6 8.2 25.6 Q9.6 25.85 10.75 26.85 11.9 27.9 12.15 29.35 L12.2 30.5" fill="#ff6931" fill-rule="evenodd" stroke="none"/>
    <path d="M8.0 25.6 Q8.3 25.35 8.55 25.25 L8.75 25.2 8.85 25.2 Q10.15 25.35 11.35 26.4 L11.85 26.95 Q12.55 27.85 12.75 28.9 L12.85 29.55 12.2 30.5 12.15 29.35 11.55 27.75 10.75 26.85 Q9.6 25.85 8.2 25.6 L8.0 25.6 M10.8 32.65 Q11.15 31.8 11.1 30.9 L11.05 30.35 10.8 29.55 Q10.4 28.6 9.6 27.85 8.45 26.8 7.1 26.55 L6.6 26.55 7.2 26.1 7.7 26.1 Q9.05 26.4 10.2 27.4 L11.2 28.6 11.65 29.9 11.7 31.15 11.65 31.4 11.3 31.95 10.8 32.65" fill="#c40000" fill-rule="evenodd" stroke="none"/>
    <path d="M10.05 33.7 L9.1 35.05 8.1 35.9 Q8.7 34.75 8.4 33.45 8.15 32.05 7.0 30.95 5.85 29.9 4.55 29.75 3.2 29.55 2.25 30.3 2.5 29.7 3.05 29.25 L4.65 27.9 Q5.5 27.65 6.3 27.9 7.65 27.9 8.75 29.05 9.95 30.1 10.25 31.5 10.5 32.65 10.05 33.7" fill="#c40000" fill-rule="evenodd" stroke="none"/>
    <path d="M12.7 29.75 L12.1 30.7 11.5 31.55 11.15 32.15 10.65 32.85 9.95 33.9 8.95 35.25 8.05 36.15 7.75 36.3 Q8.25 35.65 8.25 34.55 L8.15 33.0 8.15 32.65 8.35 32.5 9.55 31.3 10.65 29.95 11.75 28.55 12.55 27.1 12.55 26.9 Q13.1 28.0 12.95 29.35 L12.7 29.75" fill="#000000" fill-opacity="0.2" fill-rule="evenodd" stroke="none"/>
    <path d="M3.65 30.35 L4.95 29.2 Q6.05 28.25 7.85 26.9 L9.55 25.9 10.2 25.3 11.05 25.55 11.0 25.55 10.35 26.15 8.65 28.1 7.6 29.25 6.7 30.1 5.85 30.85 4.4 30.35 3.65 30.35" fill="#ffffff" fill-opacity="0.4" fill-rule="evenodd" stroke="none"/>
    <path d="M4.8 32.65 L4.0 32.05 5.05 32.4 4.8 32.65 M3.75 33.95 L3.6 33.85 3.8 33.85 Q3.7 33.85 3.75 33.95" fill="#ffffff" fill-rule="evenodd" stroke="none"/>
    <path d="M4.55 29.75 Q5.85 29.9 7.0 30.95 8.15 32.05 8.4 33.45 8.7 34.75 8.1 35.9 L6.9 36.65 5.25 36.6 Q4.05 36.3 3.0 35.05 2.0 33.9 1.9 32.55 1.8 31.85 2.0 30.9 L2.25 30.3 Q3.2 29.55 4.55 29.75" fill="#e00c0c" fill-rule="evenodd" stroke="none"/>
    <path d="M4.8 35.15 Q4.0 35.05 3.45 34.4 2.9 33.7 2.8 32.9 2.8 32.05 3.35 31.65 3.95 31.2 4.7 31.35 5.55 31.45 6.05 32.15 6.6 32.75 6.7 33.6 6.7 34.35 6.15 34.9 5.65 35.35 4.8 35.15" fill="#660505" fill-rule="evenodd" stroke="none"/>
    <path d="M8.5 36.35 Q8.65 36.95 8.4 37.3 L7.85 37.6 Q7.3 37.6 5.75 35.85 L4.25 34.15 4.45 33.8 6.4 34.8 Q8.35 36.0 8.5 36.35 M0.3 30.0 Q0.85 30.0 2.4 31.65 L3.9 33.35 3.7 33.7 1.8 32.7 Q-0.3 31.6 -0.35 31.15 -0.5 30.6 -0.3 30.3 -0.1 29.9 0.3 30.0" fill="none" stroke="#303030" stroke-linecap="round" stroke-linejoin="round" stroke-width="2.0"/>
    <path d="M8.5 36.35 Q8.65 36.95 8.4 37.3 L7.85 37.6 Q7.3 37.6 5.75 35.85 L4.25 34.15 4.45 33.8 6.4 34.8 Q8.35 36.0 8.5 36.35 M0.3 30.0 Q0.85 30.0 2.4 31.65 L3.9 33.35 3.7 33.7 1.8 32.7 Q-0.3 31.6 -0.35 31.15 -0.5 30.6 -0.3 30.3 -0.1 29.9 0.3 30.0" fill="#999999" fill-rule="evenodd" stroke="none"/>
    <path d="M3.25 32.25 L4.15 32.15 Q4.8 32.25 5.25 32.85 5.65 33.6 5.45 34.2 L5.1 34.8 3.9 35.05 Q2.95 35.05 2.65 34.5 2.3 34.0 2.65 33.15 L3.25 32.25" fill="#333333" fill-rule="evenodd" stroke="none"/>
    <path d="M3.25 32.25 L2.65 33.15 Q2.3 34.0 2.65 34.5 2.95 35.05 3.9 35.05 L5.1 34.8 5.45 34.2 Q5.65 33.6 5.25 32.85 4.8 32.25 4.15 32.15 L3.25 32.25 Z" fill="none" stroke="#1a1a1a" stroke-linecap="butt" stroke-linejoin="round" stroke-width="2.0"/>
    <path d="M3.35 32.3 L4.2 32.15 Q4.85 32.25 5.3 32.9 5.7 33.6 5.5 34.2 L5.15 34.8 4.0 35.05 Q3.0 35.1 2.7 34.5 2.35 33.95 2.65 33.15 L3.35 32.3" fill="#999999" fill-rule="evenodd" stroke="none"/>
    <path d="M3.7 32.7 L3.35 33.2 Q2.9 33.85 3.1 34.2 L3.4 34.4 3.75 34.45 3.75 34.5 3.15 34.45 2.95 34.2 Q2.8 33.9 3.0 33.45 3.2 32.85 3.7 32.7" fill="#ffffff" fill-rule="evenodd" stroke="none"/>
    <path d="M53.1 36.3 L54.35 35.55 56.65 35.6 Q58.35 36.3 58.8 38.05 L58.25 41.4 57.4 45.05 Q56.8 46.85 56.0 47.45 L54.5 48.0 Q53.25 48.2 51.8 47.5 50.45 46.8 49.8 45.55 49.45 44.95 49.25 44.0 49.1 43.1 49.6 42.05 L51.15 39.3 Q52.55 36.9 53.1 36.3 Z" fill="none" stroke="#660505" stroke-linecap="round" stroke-linejoin="round" stroke-width="2.5"/>
    <path d="M53.3 36.15 Q53.6 35.8 54.35 35.55 L56.65 35.6 Q58.35 36.3 58.8 38.05 L58.75 38.6 58.45 38.0 Q57.65 36.8 56.15 36.3 L53.4 36.1 53.3 36.15 M58.1 42.2 L57.8 43.45 Q57.8 42.35 57.1 41.4 56.3 40.2 54.8 39.7 L52.05 39.55 Q51.2 39.65 50.55 40.25 L51.15 39.3 51.8 38.25 52.3 38.05 55.1 38.3 Q56.6 38.85 57.4 40.0 58.1 41.0 58.1 42.2 M58.55 39.75 L58.4 40.75 57.75 39.35 Q57.0 38.2 55.5 37.6 L52.7 37.4 52.2 37.55 52.75 36.8 52.95 36.75 55.75 36.9 Q57.25 37.4 58.1 38.65 L58.55 39.75" fill="#ff6931" fill-rule="evenodd" stroke="none"/>
    <path d="M52.75 36.8 L53.1 36.3 53.3 36.15 53.4 36.1 56.15 36.3 56.85 36.6 Q57.85 37.1 58.45 38.0 L58.75 38.6 58.55 39.75 58.1 38.65 56.85 37.45 55.75 36.9 52.95 36.75 52.75 36.8 M58.1 42.2 Q58.1 41.3 57.65 40.45 L57.4 40.0 56.85 39.35 Q56.15 38.65 55.1 38.3 L52.3 38.05 51.8 38.25 52.2 37.55 52.7 37.4 55.5 37.6 Q56.25 37.9 56.85 38.35 L57.75 39.35 58.35 40.45 58.4 40.75 58.25 41.4 58.1 42.2" fill="#c40000" fill-rule="evenodd" stroke="none"/>
    <path d="M57.8 43.45 L57.4 45.05 56.85 46.3 Q56.95 44.95 56.15 43.9 55.4 42.7 53.9 42.1 L51.15 41.9 Q49.9 42.3 49.25 43.35 49.3 42.7 49.6 42.05 L50.55 40.25 Q51.2 39.65 52.05 39.55 L54.8 39.7 Q56.3 40.2 57.1 41.4 57.8 42.35 57.8 43.45" fill="#c40000" fill-rule="evenodd" stroke="none"/>
    <path d="M58.75 38.75 L58.55 39.85 58.35 40.85 58.2 41.55 58.05 42.35 57.8 43.6 57.4 45.25 56.9 46.45 56.7 46.7 Q56.9 45.9 56.5 44.85 L55.8 43.5 55.65 43.2 55.75 42.95 56.45 41.4 56.9 39.7 57.4 38.0 Q57.75 36.85 57.55 36.35 L57.5 36.2 Q58.45 36.95 58.8 38.25 L58.75 38.75" fill="#000000" fill-opacity="0.2" fill-rule="evenodd" stroke="none"/>
    <path d="M50.65 42.75 L51.4 41.25 53.2 38.0 54.35 36.4 54.7 35.6 55.6 35.5 55.55 35.55 55.2 36.3 Q54.6 37.6 54.35 38.8 L53.85 40.25 53.35 41.4 52.85 42.35 51.35 42.5 50.65 42.75" fill="#ffffff" fill-opacity="0.4" fill-rule="evenodd" stroke="none"/>
    <path d="M52.6 44.45 L51.6 44.2 52.7 44.15 52.6 44.45 M52.1 46.05 L51.95 46.0 52.1 45.95 52.1 46.05" fill="#ffffff" fill-rule="evenodd" stroke="none"/>
    <path d="M51.15 41.9 L53.9 42.1 Q55.4 42.7 56.15 43.9 56.95 44.95 56.85 46.3 L56.0 47.45 54.5 48.0 Q53.25 48.2 51.8 47.5 50.45 46.8 49.8 45.55 49.45 44.95 49.25 44.0 L49.25 43.35 Q49.9 42.3 51.15 41.9" fill="#e00c0c" fill-rule="evenodd" stroke="none"/>
    <path d="M53.55 46.85 L51.95 46.65 Q51.15 46.25 50.8 45.5 50.5 44.8 50.8 44.15 51.15 43.5 51.95 43.35 L53.5 43.6 Q54.25 43.95 54.65 44.65 55.0 45.4 54.6 46.1 54.35 46.7 53.55 46.85" fill="#660505" fill-rule="evenodd" stroke="none"/>
    <path d="M47.4 43.75 Q47.9 43.55 50.0 44.45 L52.05 45.45 52.0 45.85 49.8 45.7 47.25 45.1 46.95 44.25 Q47.0 43.85 47.4 43.75 M57.4 46.45 Q57.8 46.95 57.7 47.35 L57.3 47.85 Q56.8 48.05 54.7 47.05 L52.65 46.05 52.7 45.7 54.9 45.85 57.4 46.45" fill="none" stroke="#303030" stroke-linecap="round" stroke-linejoin="round" stroke-width="2.0"/>
    <path d="M47.4 43.75 Q47.9 43.55 50.0 44.45 L52.05 45.45 52.0 45.85 49.8 45.7 47.25 45.1 46.95 44.25 Q47.0 43.85 47.4 43.75 M57.4 46.45 Q57.8 46.95 57.7 47.35 L57.3 47.85 Q56.8 48.05 54.7 47.05 L52.65 46.05 52.7 45.7 54.9 45.85 57.4 46.45" fill="#999999" fill-rule="evenodd" stroke="none"/>
    <path d="M51.0 44.7 Q51.25 44.35 51.75 44.25 52.4 44.1 53.05 44.5 53.7 45.05 53.75 45.65 L53.65 46.35 52.7 47.05 51.3 47.0 Q50.8 46.65 50.8 45.75 L51.0 44.7" fill="#333333" fill-rule="evenodd" stroke="none"/>
    <path d="M51.0 44.7 L50.8 45.75 Q50.8 46.65 51.3 47.0 L52.7 47.05 53.65 46.35 53.75 45.65 Q53.7 45.05 53.05 44.5 52.4 44.1 51.75 44.25 51.25 44.35 51.0 44.7 Z" fill="none" stroke="#1a1a1a" stroke-linecap="butt" stroke-linejoin="round" stroke-width="2.0"/>
    <path d="M51.1 44.7 Q51.35 44.35 51.8 44.25 52.45 44.1 53.1 44.5 53.75 44.95 53.8 45.6 L53.7 46.35 52.75 47.0 Q51.85 47.4 51.35 47.0 50.8 46.6 50.8 45.75 50.85 44.95 51.1 44.7" fill="#999999" fill-rule="evenodd" stroke="none"/>
    <path d="M51.55 44.9 L51.45 45.5 Q51.3 46.3 51.6 46.55 L51.95 46.6 52.3 46.55 52.3 46.6 51.75 46.75 51.45 46.6 Q51.2 46.4 51.2 45.9 51.15 45.3 51.55 44.9" fill="#ffffff" fill-rule="evenodd" stroke="none"/>
    <path d="M60.9 13.65 Q61.0 14.1 59.5 14.95 L55.55 16.7 Q49.55 18.95 44.65 19.2 L49.2 10.1 54.85 11.5 Q60.65 13.05 60.9 13.65" fill="#ec6727" fill-rule="evenodd" stroke="none"/>
    <path d="M60.9 13.65 Q60.65 13.05 54.85 11.5 L49.2 10.1 44.65 19.2 Q49.55 18.95 55.55 16.7 L59.5 14.95 Q61.0 14.1 60.9 13.65 Z" fill="none" stroke="#660505" stroke-linecap="round" stroke-linejoin="round" stroke-width="2.5"/>
    <path d="M46.25 -3.15 Q47.4 -4.1 47.9 -3.75 48.4 -3.45 49.25 9.5 50.05 22.45 49.6 22.95 49.25 23.4 47.15 22.45 L45.1 21.45 43.15 15.2 42.9 11.75 Q42.7 8.1 42.85 6.8 L43.65 2.2 Q44.4 -0.9 44.8 -1.5 L46.25 -3.15" fill="#c40000" fill-rule="evenodd" stroke="none"/>
    <path d="M46.25 -3.15 Q47.4 -4.1 47.9 -3.75 48.4 -3.45 49.25 9.5 50.05 22.45 49.6 22.95 49.25 23.4 47.15 22.45 L45.1 21.45 43.15 15.2 42.9 11.75 Q42.7 8.1 42.85 6.8 L43.65 2.2 Q44.4 -0.9 44.8 -1.5 L46.25 -3.15 Z" fill="none" stroke="#660505" stroke-linecap="round" stroke-linejoin="round" stroke-width="2.5"/>
    <path d="M2.7 15.95 Q2.1 16.45 2.3 18.9 2.6 21.45 3.55 24.75 6.05 33.0 10.15 37.35 L18.05 20.2 11.05 17.65 Q3.75 15.2 2.7 15.95" fill="#ec6727" fill-rule="evenodd" stroke="none"/>
    <path d="M2.7 15.95 Q3.75 15.2 11.05 17.65 L18.05 20.2 10.15 37.35 Q6.05 33.0 3.55 24.75 2.6 21.45 2.3 18.9 2.1 16.45 2.7 15.95 Z" fill="none" stroke="#660505" stroke-linecap="round" stroke-linejoin="round" stroke-width="2.5"/>
    <path d="M2.85 15.95 Q3.95 15.15 11.2 17.65 L18.2 20.2 10.35 37.35 Q6.25 33.0 3.75 24.75 2.8 21.4 2.5 18.9 2.25 16.4 2.85 15.95" fill="#c40000" fill-rule="evenodd" stroke="none"/>
    <path d="M18.85 11.9 Q27.5 5.15 38.05 7.1 L41.7 8.0 Q43.75 8.75 45.6 9.85 48.05 11.35 49.25 13.05 L49.85 13.95 Q51.25 16.75 51.95 19.65 53.0 23.75 52.65 28.1 51.9 36.85 45.15 44.2 L42.0 47.35 Q37.15 51.6 31.35 53.45 27.15 54.7 22.5 54.65 18.6 54.6 15.65 53.8 11.8 52.75 9.4 50.35 L8.0 48.75 Q6.55 46.7 5.8 44.2 4.2 38.65 6.2 31.0 L6.75 29.3 Q10.0 18.75 18.85 11.9 M13.15 47.4 L13.0 47.4 13.05 47.4 13.05 47.45 13.1 47.45 13.1 47.4 13.15 47.4" fill="#3e9eff" fill-rule="evenodd" stroke="none"/>
    <path d="M18.85 11.9 Q10.0 18.75 6.75 29.3 L6.2 31.0 Q4.2 38.65 5.8 44.2 6.55 46.7 8.0 48.75 L9.4 50.35 Q11.8 52.75 15.65 53.8 18.6 54.6 22.5 54.65 27.15 54.7 31.35 53.45 37.15 51.6 42.0 47.35 L45.15 44.2 Q51.9 36.85 52.65 28.1 53.0 23.75 51.95 19.65 51.25 16.75 49.85 13.95 L49.25 13.05 Q48.05 11.35 45.6 9.85 43.75 8.75 41.7 8.0 L38.05 7.1 Q27.5 5.15 18.85 11.9 Z" fill="none" stroke="#660505" stroke-linecap="round" stroke-linejoin="round" stroke-width="2.5"/>
    <path d="M67.2 32.55 Q67.4 33.25 65.1 35.05 L59.2 38.85 Q50.05 43.85 42.75 44.85 L49.75 27.2 58.3 29.2 Q66.9 31.4 67.2 32.55" fill="#ec6727" fill-rule="evenodd" stroke="none"/>
    <path d="M67.2 32.55 Q66.9 31.4 58.3 29.2 L49.75 27.2 42.75 44.85 Q50.05 43.85 59.2 38.85 L65.1 35.05 Q67.4 33.25 67.2 32.55 Z" fill="none" stroke="#660505" stroke-linecap="round" stroke-linejoin="round" stroke-width="2.5"/>
    <path d="M67.2 32.55 Q67.4 33.25 65.1 35.05 L59.2 38.85 Q50.05 43.85 42.75 44.85 L49.75 27.2 58.3 29.2 Q66.9 31.4 67.2 32.55" fill="#c40000" fill-rule="evenodd" stroke="none"/>
    <path d="M46.25 -3.15 Q47.4 -4.1 47.9 -3.75 48.4 -3.45 49.25 9.5 50.05 22.45 49.6 22.95 49.25 23.4 47.15 22.45 L45.1 21.45 43.15 15.2 42.9 11.75 Q42.7 8.1 42.85 6.8 L43.65 2.2 Q44.4 -0.9 44.8 -1.5 L46.25 -3.15" fill="#c40000" fill-rule="evenodd" stroke="none"/>
    <path d="M60.85 13.65 Q61.0 14.1 59.5 14.95 L55.6 16.7 Q49.5 18.95 44.7 19.2 43.3 10.85 49.2 10.1 L54.9 11.5 Q60.65 13.05 60.85 13.65" fill="#990a0a" fill-rule="evenodd" stroke="none"/>
    <path d="M40.85 7.8 L41.7 8.0 41.4 8.0 40.85 7.8" fill="#3e9eff" fill-rule="evenodd" stroke="none"/>
    <path d="M6.75 29.3 Q8.05 24.95 10.35 21.3 11.9 18.75 13.9 16.55 L15.9 14.5 17.65 12.95 17.95 12.6 18.85 11.9 20.55 10.65 21.65 10.0 22.0 9.8 23.05 9.2 Q24.35 8.55 25.7 8.05 L28.8 7.15 32.6 6.7 Q35.6 7.05 38.4 8.3 L36.0 8.7 33.8 9.2 31.2 10.0 30.15 10.4 28.15 11.25 Q25.5 12.5 23.4 14.1 L21.4 15.9 19.3 18.25 18.5 19.4 Q16.95 21.7 15.8 24.55 14.95 26.75 14.35 29.2 L13.75 31.95 12.65 31.9 11.4 32.0 Q8.45 32.3 6.55 34.0 6.4 31.7 6.75 29.3 M22.25 35.85 L23.9 33.85 Q29.9 26.65 33.45 23.3 L35.3 21.6 35.45 21.5 39.5 18.65 41.1 17.55 41.7 17.2 44.8 15.35 45.2 15.15 Q46.05 14.65 46.8 14.3 49.8 17.4 51.6 20.9 L50.75 23.35 50.7 23.5 48.65 27.75 48.55 28.0 47.3 29.9 43.85 33.75 43.05 34.5 41.85 35.5 Q38.0 38.5 32.15 41.25 L28.05 43.1 27.2 43.4 26.75 42.2 Q25.5 39.05 22.75 36.35 L22.25 35.85" fill="#ff6931" fill-rule="evenodd" stroke="none"/>
    <path d="M45.15 44.2 L44.35 45.15 42.85 46.6 42.75 46.7 42.0 47.35 39.5 49.4 Q35.65 52.1 31.35 53.45 28.0 54.4 24.3 54.6 L24.45 54.5 25.2 53.85 Q26.55 52.45 27.2 50.7 L27.7 50.65 32.05 49.8 37.4 48.0 38.9 47.4 40.1 46.85 44.3 44.75 45.15 44.2 M5.4 35.3 Q5.6 33.25 6.2 31.0 L6.75 29.3 Q6.4 31.7 6.55 34.0 L5.4 35.3" fill="#b1341d" fill-rule="evenodd" stroke="none"/>
    <path d="M52.6 23.0 Q52.85 25.5 52.65 28.1 L52.45 29.65 Q52.05 32.2 51.2 34.65 L49.25 38.75 48.95 39.2 45.8 43.5 45.25 44.1 45.15 44.2 44.3 44.75 40.1 46.85 38.9 47.4 37.4 48.0 32.05 49.8 27.7 50.65 27.2 50.7 27.65 48.65 27.7 46.5 27.45 44.65 27.2 43.4 28.05 43.1 32.15 41.25 Q38.0 38.5 41.85 35.5 L43.05 34.5 43.85 33.75 47.3 29.9 48.55 28.0 48.65 27.75 50.7 23.5 50.75 23.35 51.6 20.9 52.6 23.0" fill="#c44f24" fill-rule="evenodd" stroke="none"/>
    <path d="M38.4 8.3 Q42.65 10.15 46.55 14.05 L46.8 14.3 Q46.05 14.65 45.2 15.15 L44.8 15.35 41.7 17.2 41.1 17.55 39.5 18.65 35.45 21.5 35.3 21.6 33.45 23.3 Q29.9 26.65 23.9 33.85 L22.25 35.85 Q20.6 34.45 18.95 33.55 17.25 32.6 15.55 32.25 L13.75 31.95 14.35 29.2 Q14.95 26.75 15.8 24.55 16.95 21.7 18.5 19.4 L19.3 18.25 21.4 15.9 23.4 14.1 Q25.5 12.5 28.15 11.25 L30.15 10.4 31.2 10.0 33.8 9.2 36.0 8.7 38.4 8.3" fill="#ff8031" fill-rule="evenodd" stroke="none"/>
    <path d="M49.25 13.05 L49.85 13.95 51.0 16.6 51.95 19.65 51.6 20.9 Q49.8 17.4 46.8 14.3 L48.45 13.45 49.25 13.05 M32.6 6.7 L38.05 7.1 40.85 7.8 41.4 8.0 38.4 8.3 Q35.6 7.05 32.6 6.7 M13.75 31.95 L13.15 35.95 13.05 37.15 13.05 37.5 12.95 38.6 Q12.55 43.7 13.05 47.0 11.65 45.8 10.3 44.0 8.75 41.95 7.9 40.2 L7.25 38.5 6.95 37.65 Q6.6 35.85 6.55 34.0 8.45 32.3 11.4 32.0 L12.65 31.9 13.75 31.95 M13.15 47.4 L17.45 41.85 17.95 41.2 18.75 40.2 19.95 38.7 21.3 37.0 21.7 36.5 22.25 35.85 22.75 36.35 Q25.5 39.05 26.75 42.2 L27.2 43.4 Q26.85 43.5 26.6 43.65 L26.1 43.85 22.55 45.2 21.7 45.45 20.75 45.8 Q15.75 47.4 13.15 47.4" fill="#c40000" fill-rule="evenodd" stroke="none"/>
    <path d="M9.4 50.35 L8.0 48.75 Q6.55 46.7 5.8 44.2 L7.7 45.7 Q10.3 47.3 13.0 47.4 L13.05 47.4 13.05 47.45 12.4 48.35 11.15 49.65 Q10.4 50.25 9.4 50.35 M13.1 47.45 L13.1 47.4 18.55 49.2 20.85 49.8 23.15 50.3 27.2 50.7 Q26.55 52.45 25.2 53.85 L23.2 53.65 21.8 53.35 19.3 52.25 16.15 50.15 13.1 47.45" fill="#7e0c0c" fill-rule="evenodd" stroke="none"/>
    <path d="M51.95 19.65 L52.6 23.0 51.6 20.9 51.95 19.65 M5.8 44.2 Q5.35 42.5 5.2 40.6 4.95 38.1 5.4 35.3 L6.55 34.0 Q6.6 35.85 6.95 37.65 L7.25 38.5 7.9 40.2 Q8.75 41.95 10.3 44.0 11.65 45.8 13.05 47.0 L13.05 47.4 13.0 47.4 Q10.3 47.3 7.7 45.7 L5.8 44.2 M27.2 43.4 L27.45 44.65 27.7 46.5 27.65 48.65 27.2 50.7 23.15 50.3 20.85 49.8 18.55 49.2 13.1 47.4 13.15 47.4 Q15.75 47.4 20.75 45.8 L21.7 45.45 22.55 45.2 26.1 43.85 26.6 43.65 Q26.85 43.5 27.2 43.4" fill="#990a0a" fill-rule="evenodd" stroke="none"/>
    <path d="M41.7 8.0 Q43.75 8.75 45.6 9.85 48.05 11.35 49.25 13.05 L48.45 13.45 46.8 14.3 46.55 14.05 Q42.65 10.15 38.4 8.3 L41.4 8.0 41.7 8.0 M13.05 47.0 Q12.55 43.7 12.95 38.6 L13.05 37.5 13.05 37.15 13.15 35.95 13.75 31.95 15.55 32.25 Q17.25 32.6 18.95 33.55 20.6 34.45 22.25 35.85 L21.7 36.5 21.3 37.0 19.95 38.7 18.75 40.2 17.95 41.2 17.45 41.85 13.15 47.4 13.1 47.4 13.05 47.4 13.05 47.0" fill="#e00c0c" fill-rule="evenodd" stroke="none"/>
    <path d="M24.3 54.6 L22.5 54.65 20.55 54.6 15.65 53.8 13.55 53.05 Q11.1 52.05 9.4 50.35 10.4 50.25 11.15 49.65 L12.4 48.35 13.05 47.45 13.1 47.45 16.15 50.15 19.3 52.25 21.8 53.35 23.2 53.65 25.2 53.85 24.45 54.5 24.3 54.6" fill="#740404" fill-rule="evenodd" stroke="none"/>
    <path d="M44.4 15.6 L44.8 16.0 Q48.5 19.7 50.55 24.05 L48.65 27.75 48.55 28.0 47.3 29.9 46.9 30.5 Q44.55 25.75 40.55 21.75 L38.15 19.55 39.5 18.65 41.1 17.55 41.7 17.2 44.4 15.6 M24.9 13.1 L18.3 12.35 18.85 11.9 20.55 10.65 21.65 10.0 22.0 9.8 23.05 9.2 Q24.35 8.55 25.7 8.05 L26.05 7.95 Q26.15 7.85 26.35 7.85 L26.4 7.8 30.1 8.25 33.25 9.0 33.7 9.15 33.75 9.15 33.95 9.2 33.8 9.2 31.2 10.0 30.15 10.4 28.15 11.25 Q26.4 12.05 24.9 13.1" fill="#c40000" fill-rule="evenodd" stroke="none"/>
    <path d="M50.55 24.05 L50.65 24.3 Q51.85 26.9 52.45 29.65 L52.45 29.7 Q52.05 32.25 51.2 34.65 L49.45 38.4 Q48.65 34.25 46.9 30.5 L47.3 29.9 48.55 28.0 48.65 27.75 50.55 24.05" fill="#990a0a" fill-rule="evenodd" stroke="none"/>
    <path d="M38.15 19.55 Q32.2 14.65 24.9 13.1 26.4 12.05 28.15 11.25 L30.15 10.4 31.2 10.0 33.8 9.2 33.95 9.2 Q39.65 11.05 44.4 15.6 L41.7 17.2 41.1 17.55 39.5 18.65 38.15 19.55" fill="#e00c0c" fill-rule="evenodd" stroke="none"/>
    <path d="M39.85 34.0 L41.1 32.5 41.3 32.65 Q43.2 34.25 43.45 36.7 43.6 39.15 42.05 41.05 40.45 42.95 38.05 43.2 35.6 43.4 33.7 41.8 L33.5 41.65 34.7 40.2 Q35.95 41.15 37.45 40.95 39.15 40.8 40.25 39.5 41.3 38.2 41.1 36.55 41.0 35.05 39.85 34.0" fill="#a24d0a" fill-rule="evenodd" stroke="none"/>
    <path d="M34.7 40.2 L39.85 34.0 Q41.0 35.05 41.1 36.55 41.3 38.2 40.25 39.5 39.15 40.8 37.45 40.95 35.95 41.15 34.7 40.2" fill="#ffff00" fill-rule="evenodd" stroke="none"/>
  </g>
</svg>
