<?xml version="1.0" encoding="UTF-8" standalone="no"?>
<svg xmlns:xlink="http://www.w3.org/1999/xlink" height="165.65px" width="243.1px" xmlns="http://www.w3.org/2000/svg">
  <g transform="matrix(1.0, 0.0, 0.0, 1.0, 68.95, 43.75)">
    <path d="M-17.9 -20.3 L-18.0 -20.4 -18.1 -20.55 -18.25 -20.75 -18.7 -21.15 -19.2 -21.6 -19.2 -21.65 -19.75 -22.7 -19.85 -23.2 -21.15 -22.8 -22.45 -22.65 -23.55 -22.8 -23.65 -22.8 -23.85 -21.95 -23.9 -21.75 -24.05 -21.2 -24.5 -20.1 -24.5 -20.0 -24.75 -19.6 -24.7 -19.55 -23.95 -18.9 -23.7 -18.65 Q-20.9 -15.05 -23.45 -12.2 -25.3 -10.15 -27.15 -11.3 L-28.0 -11.85 -28.35 -11.45 -28.6 -11.15 Q-30.25 -10.0 -32.6 -10.9 L-35.1 -12.45 -35.3 -12.65 -35.2 -12.8 -35.5 -12.6 Q-35.85 -12.35 -36.0 -11.5 L-35.9 -9.35 Q-35.75 -6.35 -38.0 -4.0 -39.95 -1.9 -42.25 -2.3 L-43.1 -2.45 -43.7 -2.7 -44.05 -2.9 -44.55 -0.9 -44.6 -0.75 Q-45.8 2.7 -48.15 -0.3 L-48.2 -0.4 Q-48.95 -1.45 -49.3 -3.65 L-49.75 -7.1 -49.75 -9.85 -49.8 -12.1 -49.8 -12.45 Q-49.55 -18.2 -48.45 -21.5 -47.1 -29.35 -45.95 -32.8 L-45.2 -34.8 -45.0 -35.15 -44.75 -35.8 -44.15 -36.85 -43.5 -37.8 -43.6 -37.75 -41.0 -40.35 Q-38.55 -42.15 -35.35 -42.75 L-30.15 -43.6 -28.85 -43.75 -27.55 -43.7 -26.95 -43.75 -26.3 -43.7 -26.0 -43.65 -23.2 -43.5 -17.9 -42.95 -10.4 -41.55 -10.05 -41.45 -9.95 -41.35 -9.75 -41.4 -9.7 -41.4 -4.3 -39.25 -3.75 -38.8 -3.65 -38.65 -2.8 -37.5 -2.7 -37.2 -2.95 -36.45 -3.0 -36.4 -2.8 -36.35 -2.0 -36.15 Q2.7 -34.3 3.75 -32.95 5.95 -30.1 2.0 -29.25 L1.55 -29.25 -1.0 -29.0 -2.4 -29.15 -2.2 -29.4 -0.5 -29.65 Q0.85 -29.75 1.35 -30.15 L1.8 -30.65 1.85 -30.75 1.6 -31.1 Q0.7 -32.25 -3.1 -32.5 L-5.1 -32.7 Q-5.1 -32.5 -5.35 -32.35 -6.1 -31.75 -6.55 -31.85 L-7.95 -31.75 -9.7 -30.5 Q-10.7 -29.65 -10.3 -29.15 -10.05 -28.8 -6.95 -27.8 L-7.5 -27.35 Q-8.15 -26.85 -9.75 -26.7 L-10.25 -26.6 Q-9.85 -26.1 -9.75 -25.45 -9.65 -24.7 -9.9 -24.05 L-8.8 -23.8 -6.45 -22.9 Q-4.65 -22.1 -4.2 -21.55 -2.45 -19.25 -5.55 -18.1 -6.75 -17.6 -7.95 -17.6 L-7.0 -16.7 Q-5.2 -14.4 -7.75 -13.1 -10.35 -11.75 -11.9 -13.7 L-12.15 -14.15 -10.45 -14.35 -8.85 -14.3 -8.3 -14.8 Q-8.5 -15.65 -9.4 -17.25 -9.9 -18.6 -8.9 -19.3 L-8.1 -19.6 -6.95 -19.55 -6.6 -19.8 Q-7.7 -21.2 -10.5 -21.75 L-13.15 -22.25 Q-13.8 -23.1 -12.5 -24.2 L-12.05 -24.65 -13.05 -24.95 -13.15 -25.0 -15.9 -23.55 -17.6 -21.7 -17.8 -20.3 -17.9 -20.3 M-47.35 -9.25 L-48.0 -6.95 -47.65 -5.8 -47.4 -4.6 -46.1 -4.0 Q-45.5 -3.95 -44.9 -4.4 L-44.75 -4.55 Q-45.3 -5.8 -44.85 -7.05 -44.5 -9.2 -45.25 -10.2 -45.6 -10.65 -46.7 -10.6 L-46.8 -10.65 -46.85 -10.6 -47.35 -9.25 M-42.35 -16.45 Q-43.3 -13.6 -44.5 -12.3 L-43.65 -11.6 Q-42.9 -10.65 -42.6 -9.05 -42.5 -7.8 -42.65 -6.6 L-42.4 -6.5 -41.8 -6.0 -41.75 -5.9 Q-41.15 -6.05 -40.6 -6.45 L-38.65 -8.1 Q-37.95 -10.0 -38.3 -12.0 L-38.85 -14.2 Q-40.45 -14.8 -42.35 -16.45 M-30.35 -15.3 L-30.45 -15.4 Q-32.8 -14.45 -34.7 -14.05 L-34.55 -13.9 Q-32.75 -11.55 -30.15 -12.35 L-29.35 -12.6 -30.35 -15.3 M-36.4 -17.35 Q-34.75 -16.0 -32.45 -16.55 L-29.35 -17.6 Q-27.1 -15.35 -25.7 -14.7 -25.1 -15.1 -25.05 -15.8 -25.0 -16.2 -25.25 -16.5 L-26.05 -17.1 -26.2 -17.15 Q-26.7 -17.3 -27.25 -18.0 -27.5 -18.35 -27.4 -19.35 -27.35 -20.25 -27.95 -20.55 L-29.65 -22.2 -29.7 -22.3 -32.05 -22.85 -32.35 -22.6 Q-34.5 -21.05 -35.95 -23.3 L-36.7 -23.55 -38.5 -22.3 Q-39.85 -21.35 -39.5 -20.05 L-36.4 -17.35 M-40.55 -26.5 Q-41.8 -28.1 -41.8 -29.05 -41.9 -30.3 -40.75 -32.25 L-41.7 -33.25 Q-43.0 -30.75 -43.6 -26.95 L-43.8 -24.35 -43.15 -23.85 Q-41.8 -22.9 -41.15 -23.35 L-39.95 -24.4 -39.8 -25.6 -40.55 -26.5 M-33.05 -29.9 Q-33.55 -30.55 -33.45 -31.65 -33.35 -33.15 -31.75 -34.25 -29.9 -35.6 -28.9 -35.3 -28.45 -35.1 -27.95 -34.5 -26.0 -32.0 -28.75 -30.05 -31.55 -28.0 -33.05 -29.9 M-34.8 -36.35 Q-33.45 -34.6 -34.8 -32.0 L-36.25 -29.25 Q-34.45 -26.95 -29.65 -29.0 -26.3 -30.4 -24.8 -30.25 L-22.05 -30.45 -21.35 -31.05 Q-21.05 -31.3 -21.0 -31.95 L-21.2 -32.6 -23.4 -33.2 Q-25.65 -33.55 -26.35 -34.45 -27.1 -35.4 -26.7 -37.4 -26.45 -38.6 -25.75 -39.6 L-26.0 -39.9 Q-26.65 -40.7 -27.4 -40.8 -28.55 -41.05 -30.9 -39.9 L-31.2 -39.8 -31.65 -40.2 -31.7 -40.25 -32.65 -39.85 -32.9 -39.6 Q-34.8 -37.95 -35.1 -36.65 L-34.8 -36.35 M-32.0 -3.05 L-32.5 -3.45 -32.55 -3.5 -32.6 -3.6 Q-33.45 -4.7 -33.55 -5.95 -33.65 -8.0 -31.45 -9.6 -29.5 -11.0 -28.35 -9.3 L-28.1 -9.0 -27.75 -8.2 -27.65 -7.85 -27.65 -6.75 -28.4 -7.05 Q-29.75 -7.5 -30.95 -6.6 -31.4 -6.3 -31.7 -4.65 L-32.0 -3.05 M-23.75 1.45 Q-24.55 0.4 -24.65 -2.15 -24.85 -5.3 -22.75 -6.85 -20.95 -8.1 -18.8 -7.1 L-18.1 -6.75 -17.05 -4.7 Q-15.75 -1.4 -16.05 -0.65 -17.2 2.45 -19.6 2.9 L-20.4 2.95 -21.1 2.9 Q-22.8 2.65 -23.75 1.45 M-20.3 -3.85 Q-21.05 -3.3 -20.5 -0.75 L-19.8 1.65 -19.25 1.5 -18.05 0.65 Q-17.25 -1.85 -17.65 -4.05 L-20.3 -3.85 M3.7 -19.9 Q2.65 -21.25 2.5 -22.55 L2.45 -22.85 2.5 -22.9 2.45 -23.3 2.4 -23.55 2.5 -23.6 3.15 -25.2 3.3 -25.45 4.3 -26.35 Q5.7 -27.35 7.6 -26.75 8.95 -26.5 9.35 -25.95 L11.0 -23.6 11.7 -21.35 11.6 -21.3 11.6 -21.15 11.6 -21.05 11.3 -20.65 Q9.25 -17.8 6.75 -18.15 4.85 -18.35 3.7 -19.9 M4.25 -23.5 Q5.7 -21.05 9.1 -22.35 L9.65 -23.5 Q9.7 -24.2 9.35 -24.6 7.25 -27.3 4.95 -25.8 L3.6 -24.85 4.25 -23.5 M-13.7 -38.15 Q-14.7 -39.15 -17.25 -39.9 -19.55 -40.05 -21.0 -39.0 L-21.9 -37.7 -22.45 -36.35 -20.0 -35.9 Q-19.25 -35.75 -18.6 -34.9 -17.9 -34.0 -17.8 -32.8 -17.65 -31.0 -19.05 -29.55 -19.75 -28.85 -21.25 -28.5 L-23.2 -28.4 -23.45 -28.5 Q-23.45 -28.1 -23.85 -27.65 L-22.55 -26.4 -19.35 -26.2 -18.85 -26.35 -18.5 -26.6 Q-16.4 -28.15 -14.6 -28.55 -14.15 -28.9 -13.9 -29.4 L-14.05 -29.75 Q-14.5 -31.65 -12.95 -32.8 L-12.2 -33.3 -12.15 -35.55 -13.7 -38.15 M-23.8 -41.5 L-24.1 -41.55 -24.0 -41.35 -23.8 -41.5 M-7.2 -35.95 L-4.55 -36.5 -5.35 -38.4 -6.45 -39.45 -7.75 -39.7 -8.45 -39.85 -8.8 -39.75 Q-7.85 -38.0 -7.2 -35.95" fill="#ff6200" fill-rule="evenodd" stroke="none"/>
    <path d="M-10.05 -41.45 L-9.75 -41.4 -9.95 -41.35 -10.05 -41.45 M-2.4 -29.15 Q-3.6 -29.3 -4.75 -29.75 L-5.65 -29.9 Q-5.9 -28.8 -6.95 -27.8 -10.05 -28.8 -10.3 -29.15 -10.7 -29.65 -9.7 -30.5 L-7.95 -31.75 -6.55 -31.85 Q-6.1 -31.75 -5.35 -32.35 -5.1 -32.5 -5.1 -32.7 L-3.1 -32.5 Q0.7 -32.25 1.6 -31.1 L1.85 -30.75 1.8 -30.65 1.35 -30.15 Q0.85 -29.75 -0.5 -29.65 L-2.2 -29.4 -2.4 -29.15 M-12.15 -14.15 Q-12.5 -14.7 -12.5 -15.4 -12.7 -16.8 -11.5 -17.65 L-11.35 -17.75 -11.6 -17.8 Q-16.1 -18.45 -17.9 -20.3 L-17.8 -20.3 -17.6 -21.7 -15.9 -23.55 -13.15 -25.0 -13.05 -24.95 -12.05 -24.65 -12.5 -24.2 Q-13.8 -23.1 -13.15 -22.25 L-10.5 -21.75 Q-7.7 -21.2 -6.6 -19.8 L-6.95 -19.55 -8.1 -19.6 -8.9 -19.3 Q-9.9 -18.6 -9.4 -17.25 -8.5 -15.65 -8.3 -14.8 L-8.85 -14.3 -10.45 -14.35 -12.15 -14.15 M-34.8 -36.35 L-35.1 -36.65 Q-34.8 -37.95 -32.9 -39.6 L-32.65 -39.85 -31.7 -40.25 -31.65 -40.2 -31.2 -39.8 -30.9 -39.9 Q-28.55 -41.05 -27.4 -40.8 -26.65 -40.7 -26.0 -39.9 L-25.75 -39.6 Q-26.45 -38.6 -26.7 -37.4 -27.1 -35.4 -26.35 -34.45 -25.65 -33.55 -23.4 -33.2 L-21.2 -32.6 -21.0 -31.95 Q-21.05 -31.3 -21.35 -31.05 L-22.05 -30.45 -24.8 -30.25 Q-26.3 -30.4 -29.65 -29.0 -34.45 -26.95 -36.25 -29.25 L-34.8 -32.0 Q-33.45 -34.6 -34.8 -36.35 M-33.05 -29.9 Q-31.55 -28.0 -28.75 -30.05 -26.0 -32.0 -27.95 -34.5 -28.45 -35.1 -28.9 -35.3 -29.9 -35.6 -31.75 -34.25 -33.35 -33.15 -33.45 -31.65 -33.55 -30.55 -33.05 -29.9 M-40.55 -26.5 L-39.8 -25.6 -39.95 -24.4 -41.15 -23.35 Q-41.8 -22.9 -43.15 -23.85 L-43.8 -24.35 -43.6 -26.95 Q-43.0 -30.75 -41.7 -33.25 L-40.75 -32.25 Q-41.9 -30.3 -41.8 -29.05 -41.8 -28.1 -40.55 -26.5 M-36.4 -17.35 L-39.5 -20.05 Q-39.85 -21.35 -38.5 -22.3 L-36.7 -23.55 -35.95 -23.3 Q-34.5 -21.05 -32.35 -22.6 L-32.05 -22.85 -29.7 -22.3 -29.65 -22.2 -27.95 -20.55 Q-27.35 -20.25 -27.4 -19.35 -27.5 -18.35 -27.25 -18.0 -26.7 -17.3 -26.2 -17.15 L-26.05 -17.1 -25.25 -16.5 Q-25.0 -16.2 -25.05 -15.8 -25.1 -15.1 -25.7 -14.7 -27.1 -15.35 -29.35 -17.6 L-32.45 -16.55 Q-34.75 -16.0 -36.4 -17.35 M-30.35 -15.3 L-29.35 -12.6 -30.15 -12.35 Q-32.75 -11.55 -34.55 -13.9 L-34.7 -14.05 Q-32.8 -14.45 -30.45 -15.4 L-30.35 -15.3 M-42.35 -16.45 Q-40.45 -14.8 -38.85 -14.2 L-38.3 -12.0 Q-37.95 -10.0 -38.65 -8.1 L-40.6 -6.45 Q-41.15 -6.05 -41.75 -5.9 L-41.8 -6.0 -42.4 -6.5 -42.65 -6.6 Q-42.5 -7.8 -42.6 -9.05 -42.9 -10.65 -43.65 -11.6 L-44.5 -12.3 Q-43.3 -13.6 -42.35 -16.45 M-47.35 -9.25 L-46.85 -10.6 -46.8 -10.65 -46.7 -10.6 Q-45.6 -10.65 -45.25 -10.2 -44.5 -9.2 -44.85 -7.05 -45.3 -5.8 -44.75 -4.55 L-44.9 -4.4 Q-45.5 -3.95 -46.1 -4.0 L-47.4 -4.6 -47.65 -5.8 -48.0 -6.95 -47.35 -9.25 M-27.65 -6.75 Q-27.9 -5.6 -28.85 -4.35 -30.6 -2.15 -32.0 -3.05 L-31.7 -4.65 Q-31.4 -6.3 -30.95 -6.6 -29.75 -7.5 -28.4 -7.05 L-27.65 -6.75 M-20.3 -3.85 L-17.65 -4.05 Q-17.25 -1.85 -18.05 0.65 L-19.25 1.5 -19.8 1.65 -20.5 -0.75 Q-21.05 -3.3 -20.3 -3.85 M-7.2 -35.95 Q-7.85 -38.0 -8.8 -39.75 L-8.45 -39.85 -7.75 -39.7 -6.45 -39.45 -5.35 -38.4 -4.55 -36.5 -7.2 -35.95 M-23.8 -41.5 L-24.0 -41.35 -24.1 -41.55 -23.8 -41.5 M-13.7 -38.15 L-12.15 -35.55 -12.2 -33.3 -12.95 -32.8 Q-14.5 -31.65 -14.05 -29.75 L-13.9 -29.4 Q-14.15 -28.9 -14.6 -28.55 -16.4 -28.15 -18.5 -26.6 L-18.85 -26.35 -19.35 -26.2 -22.55 -26.4 -23.85 -27.65 Q-23.45 -28.1 -23.45 -28.5 L-23.2 -28.4 -21.25 -28.5 Q-19.75 -28.85 -19.05 -29.55 -17.65 -31.0 -17.8 -32.8 -17.9 -34.0 -18.6 -34.9 -19.25 -35.75 -20.0 -35.9 L-22.45 -36.35 -21.9 -37.7 -21.0 -39.0 Q-19.55 -40.05 -17.25 -39.9 -14.7 -39.15 -13.7 -38.15 M4.25 -23.5 L3.6 -24.85 4.95 -25.8 Q7.25 -27.3 9.35 -24.6 9.7 -24.2 9.65 -23.5 L9.1 -22.35 Q5.7 -21.05 4.25 -23.5" fill="#ffc400" fill-rule="evenodd" stroke="none"/>
    <path d="M77.2 -20.45 Q88.15 -5.6 84.7 -1.9 83.05 -0.15 81.4 -1.05 L79.7 -2.45 Q78.55 -3.5 75.9 -7.0 73.5 -10.1 71.9 -11.3 68.1 -14.05 70.8 -18.95 73.5 -23.9 77.2 -20.45 M94.65 -12.4 L97.55 -9.45 Q99.8 -6.45 98.05 -4.55 96.45 -2.85 94.5 -3.7 92.65 -4.6 90.8 -2.6 89.3 -1.0 88.05 -1.45 87.4 -1.65 87.05 -2.2 84.7 -4.4 87.95 -9.95 91.3 -15.55 94.65 -12.4 M170.45 73.9 L170.3 77.55 Q169.65 80.05 166.95 80.15 155.3 80.5 151.95 77.0 150.75 75.65 150.6 71.7 150.4 64.3 152.65 60.25 155.55 55.15 162.05 57.45 165.2 59.2 168.1 66.15 170.35 71.6 170.45 73.9 M152.65 52.55 Q152.8 56.55 148.45 56.7 145.05 56.8 142.55 54.15 140.75 52.15 140.7 50.95 140.45 42.55 146.35 45.65 152.55 48.7 152.65 52.55 M147.1 78.0 L146.9 80.65 Q146.4 82.25 144.25 82.35 141.8 82.4 140.75 79.55 140.15 78.2 140.1 76.6 139.95 71.6 143.4 72.75 146.95 73.9 147.1 78.0 M165.65 88.35 Q165.8 93.5 160.9 93.65 155.7 93.8 153.6 90.0 152.3 88.1 152.25 85.9 152.05 80.05 158.75 81.15 165.45 82.25 165.65 88.35 M51.8 93.85 Q52.9 96.95 55.25 97.25 60.2 96.2 62.15 96.45 64.1 96.75 65.75 98.4 61.35 99.15 58.6 104.05 L51.95 117.4 51.7 117.45 Q41.8 113.7 41.8 110.15 41.8 109.95 44.55 107.45 47.8 105.25 47.8 102.35 45.35 95.2 45.35 92.8 45.35 89.05 49.2 86.9 L50.85 87.7 51.15 91.15 Q51.35 92.7 51.8 93.85 M66.25 108.1 Q68.05 104.8 69.3 103.0 L70.2 103.65 Q73.85 106.5 72.65 112.4 69.3 116.55 59.6 119.15 62.95 114.95 66.25 108.1 M77.8 101.65 L75.35 100.2 75.1 99.45 75.1 98.6 73.3 93.75 77.15 93.4 79.5 95.25 80.7 103.2 77.8 101.65 M87.15 105.35 Q88.15 104.65 90.25 105.05 93.15 105.55 94.9 108.1 96.95 111.05 96.85 113.05 96.8 114.45 96.0 115.0 91.55 118.05 87.8 112.9 83.8 107.65 87.15 105.35 M-59.15 73.2 L-53.75 73.35 Q-49.6 74.0 -49.6 77.55 -49.6 79.65 -52.0 81.2 -53.35 82.15 -55.7 83.25 L-58.15 85.6 Q-60.45 87.65 -61.5 87.65 -68.4 87.65 -67.95 80.45 -67.5 73.2 -59.15 73.2 M-44.4 62.55 Q-41.65 62.55 -40.55 63.45 -38.6 65.0 -37.9 70.1 -32.85 71.65 -31.3 72.3 -28.9 73.4 -28.9 75.3 -28.9 77.65 -30.8 78.35 L-32.65 78.5 Q-35.2 78.5 -38.65 77.1 L-39.45 76.85 -40.8 77.1 -45.5 77.75 Q-47.25 77.75 -48.35 74.65 -50.85 72.55 -51.8 66.9 -50.3 62.55 -44.4 62.55 M-40.8 79.35 Q-38.2 79.35 -36.25 81.7 -33.65 84.65 -33.65 90.2 -33.65 94.05 -37.25 97.05 -39.0 98.5 -40.95 99.25 -45.35 99.25 -50.55 97.95 -57.15 96.25 -57.6 93.65 -57.8 89.25 -55.15 87.2 -51.5 85.45 -49.35 84.2 -47.1 83.05 -44.65 80.55 -43.35 79.35 -40.8 79.35 M-20.1 95.35 Q-18.55 95.35 -16.65 96.9 -14.05 98.95 -14.05 102.05 -14.05 105.65 -15.6 107.25 -16.65 108.35 -17.9 108.35 -24.65 108.35 -24.85 101.95 -25.2 95.35 -20.1 95.35" fill="#ffc400" fill-rule="evenodd" stroke="none"/>
    <path d="M77.2 -20.45 Q73.5 -23.9 70.8 -18.95 68.1 -14.05 71.9 -11.3 73.5 -10.1 75.9 -7.0 78.55 -3.5 79.7 -2.45 L81.4 -1.05 Q83.05 -0.15 84.7 -1.9 88.15 -5.6 77.2 -20.45 M83.55 -20.0 L85.6 -17.7 Q87.35 -16.0 88.9 -13.65 91.6 -16.45 97.65 -10.8 103.95 -4.95 100.9 -1.65 98.9 0.5 95.6 -0.25 94.15 -0.55 92.9 -1.35 92.6 -0.3 91.9 0.45 91.1 1.3 90.2 1.65 87.25 4.7 82.85 3.0 80.6 2.05 78.9 0.5 74.3 -3.8 72.6 -5.8 69.2 -9.8 67.9 -14.0 67.05 -16.95 69.45 -20.4 72.05 -24.65 76.1 -23.65 78.65 -23.6 80.5 -22.6 L83.55 -20.0 M94.65 -12.4 Q91.3 -15.55 87.95 -9.95 84.7 -4.4 87.05 -2.2 87.4 -1.65 88.05 -1.45 89.3 -1.0 90.8 -2.6 92.65 -4.6 94.5 -3.7 96.45 -2.85 98.05 -4.55 99.8 -6.45 97.55 -9.45 L94.65 -12.4 M174.15 80.2 Q174.3 85.8 173.1 88.65 170.35 95.65 160.85 95.95 155.95 96.1 152.65 91.05 L149.3 84.75 Q147.8 86.85 144.0 86.95 138.9 87.1 136.45 81.95 135.1 79.35 134.85 76.65 134.65 69.85 142.4 70.85 144.85 71.0 146.35 72.0 L146.3 69.75 Q146.15 64.95 146.3 61.7 142.2 60.95 139.15 56.65 135.95 52.25 135.85 48.7 135.55 39.55 145.1 41.65 154.9 43.75 155.15 51.7 L155.0 53.35 Q159.1 53.95 164.65 57.3 169.0 60.1 171.75 67.95 173.95 74.35 174.15 80.2 M165.65 88.35 Q165.45 82.25 158.75 81.15 152.05 80.05 152.25 85.9 152.3 88.1 153.6 90.0 155.7 93.8 160.9 93.65 165.8 93.5 165.65 88.35 M147.1 78.0 Q146.95 73.9 143.4 72.75 139.95 71.6 140.1 76.6 140.15 78.2 140.75 79.55 141.8 82.4 144.25 82.35 146.4 82.25 146.9 80.65 L147.1 78.0 M152.65 52.55 Q152.55 48.7 146.35 45.65 140.45 42.55 140.7 50.95 140.75 52.15 142.55 54.15 145.05 56.8 148.45 56.7 152.8 56.55 152.65 52.55 M170.45 73.9 Q170.35 71.6 168.1 66.15 165.2 59.2 162.05 57.45 155.55 55.15 152.65 60.25 150.4 64.3 150.6 71.7 150.75 75.65 151.95 77.0 155.3 80.5 166.95 80.15 169.65 80.05 170.3 77.55 L170.45 73.9 M76.15 108.7 L75.95 109.1 75.75 110.75 Q74.1 117.2 67.45 119.9 64.8 120.95 59.65 121.6 L57.55 121.8 57.2 121.8 56.75 121.85 56.1 121.9 52.8 121.65 52.6 121.7 Q48.7 121.05 43.95 119.15 33.4 114.45 33.4 104.5 33.4 99.5 39.4 96.85 L41.05 96.35 Q39.85 95.0 39.85 92.5 39.85 88.55 43.95 87.35 L45.8 87.05 48.3 86.85 48.7 86.8 49.1 86.75 49.55 86.7 52.4 86.8 Q57.2 87.75 57.55 92.15 58.0 93.6 57.35 94.8 L58.8 94.8 Q61.9 94.9 64.6 95.7 L65.4 95.95 70.4 97.65 72.05 98.65 72.45 98.6 73.3 96.75 73.45 96.75 Q72.65 93.85 71.4 92.25 L72.45 91.0 74.3 90.7 Q79.5 90.25 82.55 96.8 84.2 100.95 82.1 103.9 L81.3 105.15 Q79.5 107.0 76.35 108.6 L76.15 108.7 M51.15 91.15 L50.85 87.7 49.2 86.9 Q45.35 89.05 45.35 92.8 45.35 95.2 47.8 102.35 47.8 105.25 44.55 107.45 41.8 109.95 41.8 110.15 41.8 113.7 51.7 117.45 L51.95 117.4 58.6 104.05 Q61.35 99.15 65.75 98.4 64.1 96.75 62.15 96.45 60.2 96.2 55.25 97.25 52.9 96.95 51.8 93.85 L51.6 91.3 51.15 91.15 M77.8 101.65 L80.7 103.2 79.5 95.25 77.15 93.4 73.3 93.75 75.1 98.6 75.1 99.45 75.35 100.2 77.8 101.65 M66.25 108.1 Q62.95 114.95 59.6 119.15 69.3 116.55 72.65 112.4 73.85 106.5 70.2 103.65 L69.3 103.0 Q68.05 104.8 66.25 108.1 M85.25 102.9 Q86.8 101.85 89.5 102.2 93.55 102.75 96.45 106.95 101.15 113.75 96.0 117.3 91.65 120.3 86.45 113.0 81.15 105.75 85.25 102.9 M-44.4 62.55 Q-50.3 62.55 -51.8 66.9 -50.85 72.55 -48.35 74.65 -47.25 77.75 -45.5 77.75 L-40.8 77.1 -39.45 76.85 -38.65 77.1 Q-35.2 78.5 -32.65 78.5 L-30.8 78.35 Q-28.9 77.65 -28.9 75.3 -28.9 73.4 -31.3 72.3 -32.85 71.65 -37.9 70.1 -38.6 65.0 -40.55 63.45 -41.65 62.55 -44.4 62.55 M-59.15 73.2 Q-67.5 73.2 -67.95 80.45 -68.4 87.65 -61.5 87.65 -60.45 87.65 -58.15 85.6 L-55.7 83.25 Q-53.35 82.15 -52.0 81.2 -49.6 79.65 -49.6 77.55 -49.6 74.0 -53.75 73.35 L-59.15 73.2 M87.15 105.35 Q83.8 107.65 87.8 112.9 91.55 118.05 96.0 115.0 96.8 114.45 96.85 113.05 96.95 111.05 94.9 108.1 93.15 105.55 90.25 105.05 88.15 104.65 87.15 105.35 M-57.95 69.9 L-53.25 70.2 -53.9 68.2 Q-56.05 59.75 -44.6 59.75 -40.55 59.75 -38.65 61.3 -37.7 62.1 -36.0 65.4 -35.0 67.55 -34.55 68.85 -32.2 69.0 -30.3 70.2 -26.85 72.45 -26.85 77.55 -26.85 81.35 -30.8 82.35 L-32.8 82.65 Q-31.55 85.6 -31.55 89.25 -31.55 97.05 -36.45 100.5 -39.45 102.65 -43.2 102.65 -51.3 102.65 -58.15 97.5 -64.25 92.95 -67.3 86.25 -70.15 79.6 -68.1 75.05 -65.6 69.9 -57.95 69.9 M-20.1 95.35 Q-25.2 95.35 -24.85 101.95 -24.65 108.35 -17.9 108.35 -16.65 108.35 -15.6 107.25 -14.05 105.65 -14.05 102.05 -14.05 98.95 -16.65 96.9 -18.55 95.35 -20.1 95.35 M-40.8 79.35 Q-43.35 79.35 -44.65 80.55 -47.1 83.05 -49.35 84.2 -51.5 85.45 -55.15 87.2 -57.8 89.25 -57.6 93.65 -57.15 96.25 -50.55 97.95 -45.35 99.25 -40.95 99.25 -39.0 98.5 -37.25 97.05 -33.65 94.05 -33.65 90.2 -33.65 84.65 -36.25 81.7 -38.2 79.35 -40.8 79.35 M-20.35 92.3 Q-17.95 92.3 -15.4 94.1 -11.65 96.85 -11.65 101.95 -11.65 110.2 -19.5 110.2 -26.15 110.2 -26.3 101.25 -26.55 92.3 -20.35 92.3" fill="#ff6200" fill-rule="evenodd" stroke="none"/>
  </g>
</svg>
