<?xml version="1.0" encoding="UTF-8" standalone="no"?>
<svg xmlns:xlink="http://www.w3.org/1999/xlink" height="74.2px" width="277.2px" xmlns="http://www.w3.org/2000/svg">
  <g transform="matrix(1.0, 0.0, 0.0, 1.0, 32.6, 53.7)">
    <path d="M13.95 -46.1 L14.15 -45.9 14.35 -45.0 14.15 -43.65 13.85 -42.35 12.85 -41.85 Q12.2 -42.05 12.0 -42.35 11.7 -42.75 11.7 -43.6 11.7 -46.6 13.95 -46.1 M24.4 -47.1 L24.3 -46.4 Q24.15 -46.0 23.4 -46.0 22.2 -46.0 19.15 -47.3 15.75 -48.7 14.45 -50.0 L14.35 -50.55 Q15.55 -51.45 19.45 -50.15 23.45 -48.85 24.4 -47.1 M25.9 -43.85 L27.2 -42.3 27.2 -41.55 27.15 -41.75 27.0 -41.5 26.4 -41.1 24.95 -42.65 Q24.95 -43.4 25.45 -43.7 L25.9 -43.85 M22.4 13.55 L21.9 14.15 Q18.65 13.35 14.95 9.35 11.6 5.7 11.6 4.05 11.6 3.25 11.75 3.3 L11.85 3.5 Q15.85 3.3 18.55 7.15 21.1 11.9 22.4 13.55 M-20.8 17.65 L-21.0 18.2 -21.95 18.4 Q-22.55 18.4 -25.15 16.6 -28.5 14.3 -28.8 14.15 -27.45 12.0 -24.7 13.95 -23.6 14.7 -20.8 17.65 M240.75 -9.25 L241.05 -9.35 Q241.35 -9.3 241.35 -8.5 241.35 -7.05 238.15 -5.65 L233.1 -3.5 232.5 -3.55 Q232.35 -3.6 232.35 -4.35 232.35 -6.05 235.9 -7.8 239.1 -9.45 240.75 -9.25 M242.25 -3.6 L242.5 -2.85 Q241.95 -2.1 241.1 -2.1 240.5 -2.35 240.2 -2.75 L240.95 -3.75 242.25 -3.6 M182.75 -19.15 L183.45 -18.75 Q181.5 -16.8 179.35 -10.2 177.55 -4.65 176.0 -4.65 174.7 -4.65 174.2 -6.3 173.95 -7.15 173.95 -8.1 173.95 -17.45 182.75 -19.15" fill="#ffc400" fill-rule="evenodd" stroke="none"/>
    <path d="M26.75 -46.1 Q29.85 -41.5 30.05 -36.75 30.05 -35.05 29.65 -33.8 29.3 -36.6 27.4 -39.5 25.1 -42.85 21.95 -44.25 18.75 -45.65 16.55 -44.15 14.4 -42.75 14.45 -39.35 14.55 -35.8 16.85 -32.4 17.35 -31.6 18.0 -30.95 14.8 -32.85 12.35 -36.5 9.2 -41.15 9.0 -45.9 8.9 -50.65 11.95 -52.65 14.85 -54.65 19.25 -52.75 23.6 -50.8 26.75 -46.1 M25.9 -43.85 L25.45 -43.7 Q24.95 -43.4 24.95 -42.65 L26.4 -41.1 27.0 -41.5 27.15 -41.75 27.2 -41.55 27.2 -42.3 25.9 -43.85 M24.4 -47.1 Q23.45 -48.85 19.45 -50.15 15.55 -51.45 14.35 -50.55 L14.45 -50.0 Q15.75 -48.7 19.15 -47.3 22.2 -46.0 23.4 -46.0 24.15 -46.0 24.3 -46.4 L24.4 -47.1 M13.95 -46.1 Q11.7 -46.6 11.7 -43.6 11.7 -42.75 12.0 -42.35 12.2 -42.05 12.85 -41.85 L13.85 -42.35 14.15 -43.65 14.35 -45.0 14.15 -45.9 13.95 -46.1 M20.45 7.85 Q23.8 11.95 25.35 15.6 26.9 19.2 25.65 20.15 24.5 21.2 21.25 18.9 18.05 16.65 14.65 12.55 11.35 8.45 9.75 4.75 8.25 1.15 9.5 0.2 10.65 -0.85 13.8 1.45 17.15 3.7 20.45 7.85 M22.4 13.55 Q21.1 11.9 18.55 7.15 15.85 3.3 11.85 3.5 L11.75 3.3 Q11.6 3.25 11.6 4.05 11.6 5.7 14.95 9.35 18.65 13.35 21.9 14.15 L22.4 13.55 M-24.7 12.0 Q-22.3 13.15 -21.05 14.95 -19.8 16.75 -20.5 18.2 -21.2 19.6 -23.35 19.8 -25.6 20.05 -28.0 18.9 -30.5 17.7 -31.75 15.9 -33.05 14.1 -32.35 12.65 -31.65 11.2 -29.5 11.0 -27.25 10.8 -24.7 12.0 M242.25 -3.6 L240.95 -3.75 240.2 -2.75 Q240.5 -2.35 241.1 -2.1 241.95 -2.1 242.5 -2.85 L242.25 -3.6 M240.75 -9.25 Q239.1 -9.45 235.9 -7.8 232.35 -6.05 232.35 -4.35 232.35 -3.6 232.5 -3.55 L233.1 -3.5 238.15 -5.65 Q241.35 -7.05 241.35 -8.5 241.35 -9.3 241.05 -9.35 L240.75 -9.25 M-20.8 17.65 Q-23.6 14.7 -24.7 13.95 -27.45 12.0 -28.8 14.15 -28.5 14.3 -25.15 16.6 -22.55 18.4 -21.95 18.4 L-21.0 18.2 -20.8 17.65 M185.25 -9.45 Q183.2 -5.5 180.15 -3.4 177.15 -1.4 174.75 -2.6 172.45 -3.7 172.2 -7.4 171.95 -11.1 173.95 -15.05 175.95 -19.05 179.05 -21.05 182.1 -23.05 184.4 -21.95 186.75 -20.7 186.95 -17.05 187.2 -13.45 185.25 -9.45 M229.55 -4.55 Q233.45 -8.7 237.55 -10.3 241.75 -12.0 243.6 -10.25 245.45 -8.55 243.95 -4.5 242.5 -0.35 238.65 3.7 235.55 6.8 232.3 8.5 L233.7 7.2 Q236.6 4.3 237.65 1.2 238.7 -1.7 237.3 -2.95 235.95 -4.3 232.95 -3.0 229.85 -1.8 227.1 1.1 224.7 3.6 223.55 6.05 223.6 4.85 224.15 3.4 225.65 -0.65 229.55 -4.55 M182.75 -19.15 Q173.95 -17.45 173.95 -8.1 173.95 -7.15 174.2 -6.3 174.7 -4.65 176.0 -4.65 177.55 -4.65 179.35 -10.2 181.5 -16.8 183.45 -18.75 L182.75 -19.15" fill="#ff6200" fill-rule="evenodd" stroke="none"/>
  </g>
</svg>
