<?xml version="1.0" encoding="UTF-8" standalone="no"?>
<svg xmlns:xlink="http://www.w3.org/1999/xlink" height="69.8px" width="86.15px" xmlns="http://www.w3.org/2000/svg">
  <g transform="matrix(1.0, 0.0, 0.0, 1.0, -524.9, -124.15)">
    <path d="M573.25 191.3 Q573.65 191.2 573.65 192.05 573.65 192.5 572.65 192.8 L571.1 193.0 570.75 192.95 570.5 193.1 570.1 192.8 Q569.3 193.8 568.3 193.8 L562.45 193.3 561.0 193.65 560.75 193.5 560.6 193.15 559.2 193.05 558.65 193.6 557.2 193.95 Q556.3 193.95 555.75 193.05 L555.65 192.85 554.65 192.75 554.4 192.35 554.25 192.4 553.25 193.05 552.85 192.95 552.65 192.75 552.6 192.55 552.75 192.25 552.35 191.9 552.4 191.65 552.45 191.55 552.75 191.55 553.25 191.55 553.3 191.6 553.35 191.85 553.35 191.9 553.75 191.75 554.45 191.6 Q554.3 190.9 553.2 190.0 L553.2 190.2 553.2 190.45 552.85 190.5 552.45 190.45 552.35 190.35 552.25 190.0 552.3 189.75 552.35 189.75 552.75 189.75 552.8 189.75 551.9 189.15 546.25 186.15 Q542.35 184.15 540.55 182.7 537.95 180.65 537.95 178.75 537.95 177.5 538.25 176.5 L538.5 174.95 538.15 175.0 536.3 174.8 535.85 174.75 535.65 174.7 535.65 174.3 535.7 174.1 535.65 173.85 535.65 173.75 535.5 173.75 535.3 174.15 535.4 174.15 535.15 174.85 534.5 175.4 Q533.95 175.15 533.95 174.65 533.95 174.4 534.4 174.3 L534.1 174.05 534.0 173.75 Q534.0 173.3 534.3 173.1 L534.3 173.0 533.5 172.8 532.7 172.85 532.4 172.85 532.3 173.1 532.35 173.1 532.35 173.3 532.4 173.65 532.35 174.1 532.2 174.4 531.95 174.45 531.45 173.65 531.5 173.3 530.85 173.1 530.3 173.3 529.9 173.3 529.8 173.25 529.75 173.2 529.7 172.85 Q529.7 172.45 530.0 172.4 L530.55 172.4 530.6 172.1 530.15 171.45 Q530.15 170.65 530.6 170.45 L530.55 170.15 Q530.55 169.9 530.7 169.6 L530.3 169.6 530.2 169.55 530.15 169.15 Q530.15 168.9 530.7 168.7 L530.75 168.7 530.35 168.05 530.1 167.5 529.7 167.25 529.7 166.85 Q529.7 166.2 530.85 165.65 L530.8 165.35 531.8 164.3 533.05 162.75 532.95 162.75 532.6 162.7 532.5 162.35 532.55 162.15 532.05 161.85 531.9 162.0 532.0 162.1 531.2 162.75 530.55 163.15 530.35 163.15 530.25 162.85 Q530.25 162.45 530.65 162.2 L530.4 162.2 530.05 162.2 530.15 162.55 529.7 162.75 529.25 162.15 529.3 161.9 529.0 161.7 528.4 161.1 Q528.4 160.1 529.55 160.3 524.9 157.5 524.9 155.75 524.9 154.85 525.6 153.45 L525.1 153.15 525.85 152.45 Q525.4 152.4 525.3 152.2 L525.25 151.8 Q525.25 151.5 525.5 151.35 L525.5 151.25 525.85 151.25 526.35 151.15 527.05 151.05 527.15 150.95 Q526.65 150.8 526.55 150.65 L526.55 149.95 526.85 149.95 527.0 150.2 526.95 149.85 Q526.95 149.55 528.15 149.15 L528.8 148.95 528.7 148.85 Q528.95 148.55 529.25 148.7 L529.2 148.9 529.75 148.85 530.25 148.6 530.15 148.6 530.2 148.4 529.6 148.15 Q529.9 147.75 530.35 147.6 L531.35 147.75 530.45 147.95 530.65 148.2 530.45 148.45 533.2 147.05 537.15 145.1 536.95 144.3 536.75 143.55 536.75 143.45 Q536.2 143.35 535.6 142.8 L534.75 141.9 Q535.35 141.15 535.95 141.05 536.2 140.6 537.15 140.55 L537.6 140.6 Q537.75 140.1 538.4 140.1 539.25 140.1 539.25 140.8 L539.15 141.05 539.5 141.05 539.6 141.05 540.45 140.45 540.15 140.55 539.8 140.4 539.25 140.05 539.55 139.7 539.35 139.3 539.35 139.05 538.3 138.95 538.05 138.8 538.95 138.6 538.6 138.4 538.5 138.45 538.05 138.6 Q537.5 138.6 537.35 138.2 L537.3 137.85 537.3 137.8 Q536.95 137.8 536.6 137.1 L536.35 136.65 535.85 136.65 535.4 136.65 535.2 136.6 535.2 136.55 535.1 136.2 Q535.1 135.85 535.5 135.75 L536.4 135.75 Q536.75 135.2 537.85 135.1 L538.4 135.05 538.65 134.95 538.6 134.9 538.6 134.8 538.5 134.4 Q538.5 134.05 539.05 133.9 539.5 133.8 539.8 134.15 L539.9 134.05 Q539.5 133.75 539.5 133.35 539.5 132.6 540.75 132.7 542.0 132.8 542.0 133.6 L541.9 133.95 543.05 133.55 542.85 133.25 542.65 132.9 Q542.65 132.5 542.95 132.4 543.0 130.95 546.3 132.35 L545.75 132.75 547.25 132.35 548.6 132.0 548.55 131.85 548.45 131.4 Q548.45 130.95 548.7 130.8 548.55 130.6 548.55 130.2 548.55 129.45 549.3 129.6 550.05 129.65 550.05 130.15 L549.7 130.7 549.55 130.75 549.8 131.4 549.8 131.75 553.85 130.8 Q556.85 130.1 556.85 129.6 556.85 129.3 556.15 128.95 L555.65 129.55 554.1 129.9 553.55 129.8 553.25 129.9 552.65 129.85 552.6 129.8 552.55 129.45 Q552.55 128.7 553.2 128.55 L553.4 128.55 554.2 128.0 553.9 127.5 Q553.9 127.2 554.2 127.05 L553.85 126.75 554.3 126.35 554.0 126.05 554.2 125.6 Q554.5 125.25 555.2 125.45 L555.25 125.55 555.3 125.85 555.15 126.2 555.3 126.25 555.35 126.2 555.35 126.5 555.35 126.7 556.0 126.5 556.5 126.5 Q556.15 126.25 556.15 126.0 556.15 125.35 556.9 125.45 L557.25 125.6 Q557.25 125.3 557.5 125.25 L558.3 125.3 558.35 125.35 558.35 125.7 557.9 126.25 557.8 126.2 557.85 126.35 557.85 126.45 558.8 126.45 558.65 126.25 558.55 125.85 Q558.55 125.1 560.0 124.95 561.4 124.8 561.4 125.7 L561.3 126.1 561.65 126.3 562.45 126.0 562.6 126.0 562.55 125.7 Q562.55 124.8 564.45 124.85 L566.0 125.0 567.8 124.8 568.65 124.75 569.4 124.45 Q570.85 124.1 571.6 124.85 L571.5 125.0 572.65 125.35 Q573.5 125.35 573.5 126.05 L573.5 126.1 573.6 126.1 574.7 126.05 574.7 126.2 574.8 126.25 574.75 125.85 574.8 125.8 574.75 125.75 574.65 125.8 574.35 125.85 Q573.9 125.85 573.7 125.5 L573.55 125.15 Q573.55 124.65 574.15 124.75 574.8 124.85 574.8 125.35 L574.8 125.7 Q574.9 125.1 575.7 125.15 576.7 125.2 576.7 125.85 L576.55 126.2 578.75 126.1 Q579.2 125.65 580.65 125.45 L580.65 125.35 Q580.65 124.7 581.5 124.95 L581.6 125.4 582.45 125.5 Q583.5 125.2 584.2 124.75 L585.25 124.15 Q585.65 124.1 586.7 124.75 L588.25 126.35 588.3 126.4 588.35 126.45 Q590.15 127.15 590.15 127.75 L590.15 127.9 590.3 127.95 590.4 128.0 590.7 127.85 592.25 127.8 592.3 127.9 592.35 128.2 592.15 128.8 593.9 129.65 593.85 129.25 Q593.85 128.7 594.5 128.7 595.15 128.7 595.2 129.3 L595.15 129.6 594.55 129.9 594.35 129.85 597.2 131.25 Q598.65 132.3 598.7 134.15 L599.0 134.1 Q600.45 133.9 600.45 134.8 L600.4 135.0 600.8 135.1 600.9 135.35 600.05 135.8 599.9 135.8 599.5 136.0 599.8 136.55 Q599.8 136.95 598.8 137.2 L597.2 137.4 596.95 137.4 596.9 137.5 596.95 137.5 597.2 137.75 597.65 137.6 Q597.95 137.6 598.1 137.75 L598.4 137.7 599.35 137.75 599.4 137.75 599.45 138.05 Q599.45 138.55 598.6 138.55 L598.3 138.5 598.1 138.85 Q597.9 139.05 597.65 139.05 597.25 139.05 597.1 138.65 L597.0 138.3 597.0 138.2 596.8 138.3 596.45 138.05 596.4 137.95 596.15 138.3 596.5 138.3 596.8 138.85 596.6 139.15 596.75 139.6 596.55 140.05 596.5 140.15 597.45 140.8 597.65 140.7 Q597.35 140.6 597.35 140.15 597.35 139.65 597.75 139.5 598.25 139.4 598.8 139.95 L598.8 140.15 598.45 140.6 598.25 140.7 Q598.6 140.85 598.6 141.5 L598.6 141.7 598.85 141.9 599.05 141.6 Q599.4 141.4 600.05 142.2 L599.95 142.55 599.85 142.65 600.35 143.0 Q605.15 147.05 605.15 148.7 L605.15 149.2 605.3 149.2 Q605.95 149.25 605.95 149.75 L605.75 150.2 605.2 150.45 605.1 150.45 605.1 150.75 605.0 151.8 605.45 151.35 Q606.95 150.2 606.95 151.85 L606.3 153.0 Q605.65 153.55 605.0 153.6 L605.0 153.75 Q605.0 155.15 604.55 156.15 L604.55 156.3 604.5 156.45 604.55 156.45 604.7 156.3 605.0 156.65 604.9 157.05 604.45 157.15 604.35 156.75 604.25 156.85 604.2 156.9 604.25 157.4 Q604.25 158.1 603.45 158.8 L602.65 159.35 603.1 160.1 604.25 159.85 604.9 159.95 604.9 159.8 604.65 159.65 604.3 159.45 604.25 159.25 604.25 158.95 605.35 158.95 605.45 159.05 605.5 159.35 605.45 159.65 605.45 159.7 606.15 159.95 606.0 160.15 605.75 160.25 605.4 160.25 605.75 160.95 Q606.1 161.05 606.3 161.25 L606.35 161.25 606.45 161.3 606.3 161.05 606.1 160.45 606.4 160.0 606.75 159.65 607.1 160.05 607.4 160.65 606.85 161.55 607.4 161.35 607.45 161.4 607.5 161.7 607.2 162.15 607.2 162.35 606.85 162.85 Q606.45 163.25 606.1 163.3 L606.05 163.3 606.1 163.35 606.4 163.4 607.3 163.5 607.45 164.0 607.4 164.2 Q608.1 164.1 608.5 164.55 L608.6 164.75 607.45 165.35 Q608.2 165.2 608.2 166.05 608.85 166.1 609.05 166.4 L609.1 166.4 Q610.25 165.8 610.9 165.95 L611.0 166.0 611.05 166.3 610.0 166.85 608.15 167.6 607.7 167.25 608.4 166.75 608.3 166.75 606.4 166.85 606.35 166.85 605.75 167.5 607.85 167.7 607.95 167.8 608.0 168.15 607.55 168.6 608.2 168.6 608.2 168.75 608.3 168.8 608.3 168.9 608.4 169.25 608.3 169.55 607.8 169.7 607.3 169.25 607.3 169.35 607.4 169.6 607.3 169.8 606.7 169.85 606.75 169.9 606.4 170.15 606.1 170.4 605.8 170.25 605.7 169.9 Q605.7 169.6 606.0 169.55 L606.55 169.6 606.9 169.35 607.1 169.25 607.1 169.05 607.2 168.7 605.9 168.95 605.65 169.15 604.85 169.45 Q604.25 169.45 604.1 169.05 L604.0 168.8 603.7 168.95 Q604.55 169.5 604.55 170.1 L604.55 170.15 604.9 170.15 Q605.3 170.15 605.45 170.6 L605.45 170.75 605.2 170.8 604.85 170.8 604.45 170.75 604.45 170.7 604.4 170.6 604.35 170.65 603.0 171.0 601.95 169.8 601.9 169.85 Q600.65 170.45 599.75 171.0 L599.7 171.1 600.35 171.45 600.4 171.85 600.25 172.15 600.5 172.35 600.25 172.65 599.8 172.65 599.7 172.65 598.65 173.3 598.1 172.1 597.55 172.75 Q598.45 173.0 598.45 173.5 L598.2 173.95 597.8 174.2 597.05 173.95 597.0 174.1 597.05 174.3 597.85 174.4 598.0 174.7 597.85 175.05 597.35 175.15 597.7 175.65 597.85 175.8 598.35 175.35 598.8 175.9 598.55 176.35 598.3 176.6 598.4 176.9 Q598.4 178.25 596.6 179.55 597.5 179.2 597.5 180.2 597.5 180.85 596.65 181.55 595.9 182.2 595.25 182.2 L594.0 182.0 593.15 181.65 593.05 181.4 593.0 181.4 593.05 181.55 592.8 182.05 592.2 182.3 591.95 182.3 591.55 182.55 591.1 182.8 Q590.6 182.8 590.4 182.45 L590.35 182.4 Q589.2 182.75 588.6 183.05 L588.3 183.1 588.3 183.15 588.1 183.6 587.65 183.8 587.2 183.65 586.8 184.05 586.8 184.15 587.15 184.15 587.8 184.65 587.55 185.0 587.4 185.15 587.65 185.45 587.85 185.6 588.3 185.6 Q589.15 185.65 589.15 186.3 L589.05 186.85 588.55 187.2 588.45 187.2 587.55 188.2 Q586.35 189.15 584.5 189.15 L583.05 189.1 583.05 189.15 582.2 190.1 582.55 190.35 582.45 190.7 581.65 190.8 581.1 190.7 580.95 190.75 580.95 191.1 580.4 191.65 579.35 192.05 579.25 191.85 579.2 191.45 579.2 191.3 577.7 191.45 576.45 191.45 Q575.8 191.3 575.7 190.85 L575.6 190.1 574.3 190.05 574.05 190.05 574.15 190.55 Q574.15 190.9 573.25 191.3 L572.95 191.3 572.15 192.05 571.7 192.3 572.05 192.5 573.05 191.4 573.25 191.3 M598.3 135.8 L598.25 135.9 598.4 135.9 598.3 135.8 M571.6 189.5 L577.3 188.55 574.5 188.55 571.85 188.75 571.6 189.5 M571.25 190.55 L571.2 190.65 571.4 190.5 571.25 190.55 M580.5 189.15 L581.2 188.8 580.6 188.65 580.5 189.15 M593.85 181.2 L594.8 180.6 593.55 181.2 593.85 181.2 M539.45 135.0 L539.5 135.1 539.8 134.9 539.75 134.9 539.7 134.8 539.7 134.75 539.45 135.0 M533.55 165.3 L533.3 165.4 533.35 165.5 533.55 165.3 M527.35 150.7 L527.75 150.25 527.05 150.25 527.2 150.5 527.35 150.7 M536.6 173.8 L537.0 173.75 536.55 173.65 536.6 173.8" fill="#e9c572" fill-rule="evenodd" stroke="none"/>
  </g>
</svg>
