<?xml version="1.0" encoding="UTF-8" standalone="no"?>
<svg xmlns:xlink="http://www.w3.org/1999/xlink" height="82.4px" width="94.8px" xmlns="http://www.w3.org/2000/svg">
  <g transform="matrix(1.0, 0.0, 0.0, 1.0, 47.4, 41.2)">
    <path d="M47.4 10.0 L47.4 36.5 37.8 36.5 37.8 10.0 47.4 10.0" fill="#999999" fill-rule="evenodd" stroke="none"/>
    <path d="M41.25 14.1 Q39.85 14.1 38.8 13.1 37.8 12.05 37.8 10.65 L37.8 9.25 Q37.8 7.85 38.8 6.8 39.85 5.8 41.25 5.8 L43.95 5.8 Q45.35 5.8 46.4 6.8 47.4 7.85 47.4 9.25 L47.4 10.65 Q47.4 12.05 46.4 13.1 45.35 14.1 43.95 14.1 L41.25 14.1" fill="#999999" fill-rule="evenodd" stroke="none"/>
    <path d="M37.4 -25.5 L43.5 -17.25 43.5 39.8 37.5 39.8 37.5 37.85 34.2 33.95 21.75 33.95 18.5 37.85 18.5 39.8 -25.1 39.8 -25.1 -25.5 37.4 -25.5" fill="#db6a24" fill-rule="evenodd" stroke="none"/>
    <path d="M43.5 -17.3 L43.5 11.6 37.4 7.55 -25.1 7.55 -25.1 -25.5 37.4 -25.5 43.5 -17.3" fill="#ff9933" fill-rule="evenodd" stroke="none"/>
    <path d="M18.1 39.8 L-47.4 39.8 -47.4 -41.15 18.1 -41.15 18.1 39.8" fill="#cd0303" fill-rule="evenodd" stroke="none"/>
    <path d="M18.1 -41.2 L18.1 -0.2 -47.4 -0.2 -47.4 -41.2 18.1 -41.2" fill="#ff0000" fill-rule="evenodd" stroke="none"/>
    <path d="M39.65 14.8 L39.65 26.8 21.95 26.8 21.95 11.85 35.4 11.85 39.65 14.8" fill="#43484a" fill-rule="evenodd" stroke="none"/>
    <path d="M36.1 30.4 Q36.1 29.8 36.55 29.35 36.95 28.9 37.55 28.9 L40.4 28.9 Q41.0 28.9 41.4 29.35 41.85 29.8 41.85 30.4 41.85 31.0 41.4 31.45 41.0 31.9 40.4 31.9 L37.55 31.9 Q36.95 31.9 36.55 31.45 36.1 31.0 36.1 30.4" fill="#ff9933" fill-rule="evenodd" stroke="none"/>
    <path d="M41.25 41.2 Q39.85 41.2 38.8 40.2 37.8 39.15 37.8 37.75 L37.8 36.35 Q37.8 34.95 38.8 33.9 39.85 32.9 41.25 32.9 L43.95 32.9 Q45.35 32.9 46.4 33.9 47.4 34.95 47.4 36.35 L47.4 37.75 Q47.4 39.15 46.4 40.2 45.35 41.2 43.95 41.2 L41.25 41.2" fill="#999999" fill-rule="evenodd" stroke="none"/>
    <path d="M39.65 17.65 L39.65 19.9 21.95 26.3 21.95 24.05 39.65 17.65 M39.65 14.8 L39.65 16.35 21.95 22.75 21.95 18.35 36.95 12.95 39.65 14.8" fill="#999999" fill-rule="evenodd" stroke="none"/>
    <path d="M-19.65 9.15 L-16.75 10.1 -16.55 10.1 Q-18.85 17.45 -10.45 25.3 L-0.65 32.45 Q1.1 33.25 3.0 33.95 L2.9 33.95 Q-11.1 34.4 -18.85 29.0 -29.25 21.65 -19.65 9.15" fill="#ffcc33" fill-rule="evenodd" stroke="none"/>
    <path d="M-15.85 9.6 L-19.1 8.6 -17.45 2.95 -7.55 4.2 -15.85 9.6 M2.9 33.95 L3.45 34.15 1.95 35.45 -6.95 35.85 Q-22.55 35.85 -28.15 29.3 -29.2 28.15 -29.65 26.95 L-30.2 25.05 -30.2 24.45 Q-30.5 22.35 -29.35 20.1 -27.3 14.9 -19.75 9.15 L-19.65 9.15 Q-29.25 21.65 -18.85 29.0 -11.1 34.4 2.9 33.95" fill="#cd960d" fill-rule="evenodd" stroke="none"/>
    <path d="M18.1 11.8 L-47.4 11.8 -47.4 8.3 18.1 8.3 18.1 11.8 M18.1 22.55 L-47.4 22.55 -47.4 19.05 18.1 19.05 18.1 22.55 M18.1 33.3 L-47.4 33.3 -47.4 29.8 18.1 29.8 18.1 33.3" fill="#ff2525" fill-rule="evenodd" stroke="none"/>
    <path d="M-18.55 29.8 L-0.35 29.8 4.55 32.45 7.3 33.3 -5.05 33.3 Q-12.9 32.3 -18.55 29.8 M-24.55 19.05 L-11.8 19.05 Q-10.5 20.8 -8.35 22.55 L-24.1 22.55 Q-24.85 20.9 -24.55 19.05 M-21.25 9.15 L-15.1 10.1 -14.7 10.1 Q-14.7 11.2 -14.2 12.35 L-14.45 11.8 -23.25 11.8 Q-22.5 10.5 -21.25 9.15" fill="#ffd866" fill-rule="evenodd" stroke="none"/>
    <path d="M-5.05 33.3 L-25.2 33.3 Q-29.6 31.9 -32.3 29.8 L-18.55 29.8 Q-12.9 32.3 -5.05 33.3 M-24.1 22.55 L-33.2 22.55 Q-33.0 21.35 -32.05 20.1 L-31.3 19.05 -24.55 19.05 Q-24.85 20.9 -24.1 22.55 M-23.25 11.8 L-26.05 11.8 Q-24.05 10.5 -21.45 9.15 L-21.25 9.15 Q-22.5 10.5 -23.25 11.8 M-13.65 9.6 L-20.55 8.6 -20.55 7.95 -20.5 8.3 -10.5 8.3 -13.65 9.6" fill="#e9ae19" fill-rule="evenodd" stroke="none"/>
  </g>
</svg>
