<?xml version="1.0" encoding="UTF-8" standalone="no"?>
<svg xmlns:xlink="http://www.w3.org/1999/xlink" height="69.4px" width="52.35px" xmlns="http://www.w3.org/2000/svg">
  <g transform="matrix(1.0, 0.0, 0.0, 1.0, -6.5, 26.7)">
    <path d="M31.55 -25.2 L55.45 -3.35 56.65 23.9 54.75 24.5 56.95 31.15 57.35 39.25 57.35 39.3 57.35 39.65 57.2 39.5 56.0 41.2 32.0 18.1 10.4 40.35 8.2 38.9 8.05 39.05 8.05 38.8 8.0 38.75 8.05 38.7 8.2 9.65 11.25 3.65 8.2 3.9 8.25 -2.85 31.55 -25.2" fill="#412910" fill-rule="evenodd" stroke="none"/>
    <path d="M31.55 -25.2 L55.45 -3.35 56.65 23.9 54.75 24.5 56.95 31.15 57.35 39.25 57.35 39.3 57.35 39.65 57.2 39.5 56.0 41.2 32.0 18.1 10.4 40.35 8.2 38.9 8.05 39.05 8.05 38.8 8.0 38.75 8.05 38.7 8.2 9.65 11.25 3.65 8.2 3.9 8.25 -2.85 31.55 -25.2 Z" fill="none" stroke="#412910" stroke-linecap="round" stroke-linejoin="round" stroke-width="3.0"/>
    <path d="M56.0 41.2 L32.0 18.1 10.4 40.35 8.0 38.75 32.15 13.5 57.35 39.25 56.0 41.2" fill="#cd693f" fill-rule="evenodd" stroke="none"/>
    <path d="M31.75 14.9 Q28.3 19.4 8.05 39.05 L8.2 9.65 11.05 3.8 8.2 3.9 8.25 -2.85 31.55 -25.2 31.75 14.9" fill="#b1552e" fill-rule="evenodd" stroke="none"/>
    <path d="M31.55 -25.2 L55.45 -3.35 56.65 23.9 54.75 24.5 56.95 31.15 57.35 39.65 32.15 15.1 Q32.1 14.5 31.75 14.9 L31.55 -25.2" fill="#d2764f" fill-rule="evenodd" stroke="none"/>
    <path d="M18.2 -7.4 L18.2 -6.55 Q18.35 -5.7 19.25 -5.7 20.15 -5.7 22.65 -7.4 25.1 -9.05 25.1 -9.6 25.1 -14.15 21.65 -11.85 20.0 -10.75 19.15 -9.65 18.3 -10.05 18.3 -8.45 L18.35 -8.15 18.2 -7.4 M12.35 -2.95 L12.9 -0.85 Q13.6 1.2 14.55 1.2 15.45 1.2 17.25 -0.7 18.95 -2.5 18.95 -3.05 18.95 -7.2 15.65 -5.55 L12.35 -2.95 M31.6 -15.4 L31.65 -7.15 31.65 -7.9 Q29.95 -8.5 24.85 -3.8 25.05 -2.35 25.4 -0.9 26.05 2.0 26.6 2.0 26.95 2.0 29.5 -0.1 L31.65 -2.0 31.7 4.2 Q30.9 4.15 29.6 5.05 26.45 7.15 26.45 8.3 L26.9 10.6 Q27.2 11.75 27.6 12.3 26.8 12.4 25.2 13.4 22.0 15.4 22.0 16.2 L22.35 18.35 Q22.85 20.45 23.7 20.45 25.95 20.45 27.25 17.95 28.35 15.85 28.35 13.05 L28.35 12.9 28.55 12.9 Q29.35 12.9 31.15 11.1 L31.75 10.5 31.75 14.9 Q28.95 18.55 15.25 32.05 L15.3 31.85 Q15.15 30.65 14.65 29.75 13.6 28.0 11.7 29.35 L8.1 31.75 8.2 9.65 11.05 3.8 8.2 3.9 8.25 -2.85 25.0 -18.9 25.2 -15.5 Q25.55 -12.3 26.4 -12.3 27.6 -12.3 29.45 -13.45 30.9 -14.4 31.6 -15.4 M31.65 -4.75 L31.65 -4.1 31.35 -4.65 31.65 -4.75 M31.65 -3.65 L31.65 -3.1 31.6 -3.35 31.65 -3.65 M25.9 4.55 Q25.9 0.0 22.25 2.05 L18.6 5.0 18.35 7.85 18.45 8.5 Q18.7 9.05 19.45 9.05 21.1 9.05 25.9 4.55 M13.85 12.05 Q13.85 7.65 10.7 9.25 8.95 10.15 8.2 11.1 L8.2 15.45 Q8.45 15.9 8.8 15.9 9.4 15.9 11.65 14.1 L13.85 12.05 M12.8 19.5 Q13.2 21.6 13.9 21.6 14.4 21.6 17.65 18.85 L20.75 16.3 Q20.75 11.25 16.65 13.8 14.55 15.05 12.5 17.4 L12.8 19.5 M14.2 33.1 L8.05 39.05 8.05 37.0 8.35 37.05 14.2 33.1" fill="#b1552e" fill-rule="evenodd" stroke="none"/>
    <path d="M18.2 -7.4 L18.35 -8.15 18.3 -8.45 Q18.3 -10.05 19.15 -9.65 20.0 -10.75 21.65 -11.85 25.1 -14.15 25.1 -9.6 25.1 -9.05 22.65 -7.4 20.15 -5.7 19.25 -5.7 18.35 -5.7 18.2 -6.55 L18.2 -7.4 M31.6 -18.35 L31.6 -15.4 Q30.9 -14.4 29.45 -13.45 27.6 -12.3 26.4 -12.3 25.55 -12.3 25.2 -15.5 L25.0 -18.9 31.55 -25.2 31.6 -18.35 M31.65 -4.1 L31.65 -3.65 31.6 -3.35 31.65 -3.1 31.65 -2.0 29.5 -0.1 Q26.95 2.0 26.6 2.0 26.05 2.0 25.4 -0.9 25.05 -2.35 24.85 -3.8 29.95 -8.5 31.65 -7.9 L31.65 -7.15 31.65 -7.0 31.65 -6.7 31.65 -6.3 31.65 -4.75 31.35 -4.65 31.65 -4.1 M31.7 4.2 L31.75 10.5 31.15 11.1 Q29.35 12.9 28.55 12.9 L28.35 12.9 27.6 12.3 Q27.2 11.75 26.9 10.6 L26.45 8.3 Q26.45 7.15 29.6 5.05 30.9 4.15 31.7 4.2 M8.1 31.75 L11.7 29.35 Q13.6 28.0 14.65 29.75 15.15 30.65 15.3 31.85 L15.25 32.05 14.2 33.1 8.35 37.05 8.05 37.0 8.1 31.75 M26.9 -3.95 L26.9 -3.9 26.55 -3.55 26.7 -3.3 Q27.1 -3.8 26.9 -3.95 M25.9 4.55 Q21.1 9.05 19.45 9.05 18.7 9.05 18.45 8.5 L18.35 7.85 18.6 5.0 22.25 2.05 Q25.9 0.0 25.9 4.55 M12.8 19.5 L12.5 17.4 Q14.55 15.05 16.65 13.8 20.75 11.25 20.75 16.3 L17.65 18.85 Q14.4 21.6 13.9 21.6 13.2 21.6 12.8 19.5" fill="#994a28" fill-rule="evenodd" stroke="none"/>
    <path d="M12.35 -2.95 L15.65 -5.55 Q18.95 -7.2 18.95 -3.05 18.95 -2.5 17.25 -0.7 15.45 1.2 14.55 1.2 13.6 1.2 12.9 -0.85 L12.35 -2.95 M28.35 12.9 L28.35 13.05 Q28.35 15.85 27.25 17.95 25.95 20.45 23.7 20.45 22.85 20.45 22.35 18.35 L22.0 16.2 Q22.0 15.4 25.2 13.4 26.8 12.4 27.6 12.3 L28.35 12.9 M13.85 12.05 L11.65 14.1 Q9.4 15.9 8.8 15.9 8.45 15.9 8.2 15.45 L8.2 11.1 Q8.95 10.15 10.7 9.25 13.85 7.65 13.85 12.05" fill="#c25e32" fill-rule="evenodd" stroke="none"/>
    <path d="M31.6 -18.35 L31.65 -18.15 Q32.15 -16.9 33.75 -16.9 35.0 -16.9 35.25 -21.85 L55.45 -3.35 56.65 23.9 54.75 24.5 56.95 31.15 57.35 39.65 32.15 15.1 Q32.1 14.5 31.75 14.9 L31.75 10.5 31.7 4.2 31.65 -2.0 31.65 -3.1 31.65 -3.65 31.65 -4.1 31.65 -4.75 31.85 -4.05 32.1 -3.1 31.7 -2.9 31.7 -2.5 Q31.7 -2.2 32.0 -1.9 L31.85 -1.65 32.45 -0.85 33.25 0.05 33.3 0.1 Q34.9 1.8 35.7 1.8 L35.8 1.65 36.5 1.8 Q37.1 1.8 37.5 -1.95 L37.5 -2.05 37.8 -2.75 34.6 -5.75 Q32.3 -7.6 31.65 -7.15 L31.6 -15.4 31.6 -18.35 M38.85 -12.9 L36.0 -14.4 Q34.9 -14.75 34.35 -13.05 L34.05 -11.15 Q34.05 -10.75 36.5 -9.4 38.9 -8.1 39.45 -8.1 40.05 -8.1 40.05 -8.75 L39.6 -9.5 40.5 -10.15 41.0 -10.95 Q41.0 -11.55 38.85 -12.9 M26.9 -3.95 Q27.1 -3.8 26.7 -3.3 L26.55 -3.55 26.9 -3.9 26.9 -3.95 M35.5 -11.65 L35.7 -11.55 35.25 -11.45 35.5 -11.65 M50.3 22.4 Q47.1 20.35 47.1 23.9 L49.3 26.4 51.65 29.0 Q52.1 29.0 52.8 27.8 53.5 26.6 53.5 26.0 53.5 24.4 50.3 22.4 M45.1 9.5 L45.25 8.5 Q45.25 6.15 41.5 4.5 37.75 2.85 37.75 6.55 L39.4 8.3 Q41.5 10.3 43.25 10.3 44.65 10.3 45.1 9.5 M49.8 5.4 L49.8 4.4 Q49.8 3.5 49.05 3.15 47.3 2.35 45.5 0.85 44.35 -0.65 42.95 0.4 41.75 1.3 41.75 2.25 L44.1 4.3 Q46.8 6.35 48.6 6.35 49.65 6.35 49.8 5.4 M54.0 -0.25 Q54.75 -0.25 55.0 -0.6 L55.25 -1.75 Q55.25 -3.45 53.25 -4.4 51.25 -5.4 51.25 -2.4 L52.05 -1.35 Q53.1 -0.25 54.0 -0.25 M43.0 18.65 Q43.75 17.75 43.75 16.9 41.55 13.45 39.4 11.3 35.0 7.05 35.0 13.45 L37.95 16.6 Q40.95 19.55 41.6 19.55 42.3 19.55 43.0 18.65 M46.9 15.6 L49.35 17.35 Q52.05 19.5 52.9 19.5 53.65 19.5 54.5 18.1 55.25 16.9 55.25 16.25 55.25 15.35 53.0 13.45 50.75 11.6 49.75 11.6 48.35 11.9 47.5 13.75 47.05 14.7 46.9 15.6" fill="#d2764f" fill-rule="evenodd" stroke="none"/>
    <path d="M35.25 -21.85 Q35.0 -16.9 33.75 -16.9 32.15 -16.9 31.65 -18.15 L31.6 -18.35 31.55 -25.2 35.25 -21.85 M54.0 -0.25 Q53.1 -0.25 52.05 -1.35 L51.25 -2.4 Q51.25 -5.4 53.25 -4.4 55.25 -3.45 55.25 -1.75 L55.0 -0.6 Q54.75 -0.25 54.0 -0.25 M49.8 5.4 Q49.65 6.35 48.6 6.35 46.8 6.35 44.1 4.3 L41.75 2.25 Q41.75 1.3 42.95 0.4 44.35 -0.65 45.5 0.85 47.3 2.35 49.05 3.15 49.8 3.5 49.8 4.4 L49.8 5.4 M45.1 9.5 Q44.65 10.3 43.25 10.3 41.5 10.3 39.4 8.3 L37.75 6.55 Q37.75 2.85 41.5 4.5 45.25 6.15 45.25 8.5 L45.1 9.5 M50.3 22.4 Q53.5 24.4 53.5 26.0 53.5 26.6 52.8 27.8 52.1 29.0 51.65 29.0 L49.3 26.4 47.1 23.9 Q47.1 20.35 50.3 22.4" fill="#cc6539" fill-rule="evenodd" stroke="none"/>
    <path d="M31.65 -7.15 Q32.3 -7.6 34.6 -5.75 L37.8 -2.75 37.5 -2.05 37.5 -1.95 Q37.1 1.8 36.5 1.8 L35.8 1.65 35.7 1.8 Q34.9 1.8 33.3 0.1 L33.25 0.05 32.45 -0.85 31.85 -1.65 32.0 -1.9 Q31.7 -2.2 31.7 -2.5 L31.7 -2.9 32.1 -3.1 31.85 -4.05 31.65 -4.75 31.65 -6.3 31.65 -6.7 31.65 -7.0 31.65 -7.15 M38.85 -12.9 Q41.0 -11.55 41.0 -10.95 L40.5 -10.15 39.6 -9.5 40.05 -8.75 Q40.05 -8.1 39.45 -8.1 38.9 -8.1 36.5 -9.4 34.05 -10.75 34.05 -11.15 L34.35 -13.05 Q34.9 -14.75 36.0 -14.4 L38.85 -12.9 M35.5 -11.65 L35.25 -11.45 35.7 -11.55 35.5 -11.65 M46.9 15.6 Q47.05 14.7 47.5 13.75 48.35 11.9 49.75 11.6 50.75 11.6 53.0 13.45 55.25 15.35 55.25 16.25 55.25 16.9 54.5 18.1 53.65 19.5 52.9 19.5 52.05 19.5 49.35 17.35 L46.9 15.6 M43.0 18.65 Q42.3 19.55 41.6 19.55 40.95 19.55 37.95 16.6 L35.0 13.45 Q35.0 7.05 39.4 11.3 41.55 13.45 43.75 16.9 43.75 17.75 43.0 18.65" fill="#d78460" fill-rule="evenodd" stroke="none"/>
  </g>
</svg>
