<?xml version="1.0" encoding="UTF-8" standalone="no"?>
<svg xmlns:xlink="http://www.w3.org/1999/xlink" height="29.9px" width="29.6px" xmlns="http://www.w3.org/2000/svg">
  <g transform="matrix(1.0, 0.0, 0.0, 1.0, 14.9, 14.95)">
    <path d="M0.5 -12.75 Q1.4 -10.35 3.8 -9.5 6.15 -8.7 8.6 -9.55 9.85 -10.0 10.6 -10.6 L9.6 -8.45 Q8.7 -5.85 9.4 -3.85 10.05 -1.85 12.55 -0.7 13.65 -0.2 14.7 0.0 13.65 0.2 12.55 0.7 10.05 1.85 9.4 3.85 8.7 5.85 9.6 8.45 L10.6 10.6 Q9.85 10.0 8.6 9.55 6.15 8.7 3.8 9.5 1.4 10.35 0.5 12.75 0.0 13.9 0.0 14.95 0.0 14.15 -0.7 12.75 -1.6 10.35 -4.0 9.5 -6.35 8.7 -8.8 9.55 -10.05 10.0 -10.8 10.6 L-9.8 8.45 Q-8.9 5.85 -9.6 3.85 -10.25 1.85 -12.75 0.7 -13.85 0.2 -14.9 0.0 -13.85 -0.2 -12.75 -0.7 -10.25 -1.85 -9.6 -3.85 -8.9 -5.85 -9.8 -8.45 L-10.8 -10.6 Q-10.05 -10.0 -8.8 -9.55 -6.35 -8.7 -4.0 -9.5 -1.6 -10.35 -0.7 -12.75 0.0 -14.2 0.0 -14.95 0.0 -13.9 0.5 -12.75" fill="#ffffcc" fill-rule="evenodd" stroke="none"/>
  </g>
</svg>
