<?xml version="1.0" encoding="UTF-8" standalone="no"?>
<svg xmlns:xlink="http://www.w3.org/1999/xlink" height="240.25px" width="247.25px" xmlns="http://www.w3.org/2000/svg">
  <g transform="matrix(1.0, 0.0, 0.0, 1.0, 124.85, 142.45)">
    <path d="M84.05 -55.45 Q95.65 -20.8 88.1 23.75 85.15 41.1 79.75 56.45 74.95 70.2 70.05 77.55 65.8 83.95 48.0 88.3 31.9 92.2 9.75 93.35 -11.85 94.5 -29.7 92.55 -48.7 90.45 -55.4 85.55 -62.5 80.35 -70.15 66.85 -78.1 52.85 -83.5 35.25 -96.8 -8.1 -86.9 -41.95 -81.3 -60.95 -56.7 -75.25 -33.5 -88.75 -3.7 -92.55 27.2 -96.5 50.45 -87.9 76.4 -78.3 84.05 -55.45" fill="#70381f" fill-rule="evenodd" stroke="none"/>
    <path d="M84.05 -55.45 Q76.4 -78.3 50.45 -87.9 27.2 -96.5 -3.7 -92.55 -33.5 -88.75 -56.7 -75.25 -81.3 -60.95 -86.9 -41.95 -96.8 -8.1 -83.5 35.25 -78.1 52.85 -70.15 66.85 -62.5 80.35 -55.4 85.55 -48.7 90.45 -29.7 92.55 -11.85 94.5 9.75 93.35 31.9 92.2 48.0 88.3 65.8 83.95 70.05 77.55 74.95 70.2 79.75 56.45 85.15 41.1 88.1 23.75 95.65 -20.8 84.05 -55.45 Z" fill="none" stroke="#3c190a" stroke-linecap="round" stroke-linejoin="round" stroke-width="8.0"/>
    <path d="M7.95 -126.95 Q14.5 -119.25 13.95 -110.7 26.3 -119.1 32.7 -138.45 50.75 -101.6 33.95 -81.2 L-43.25 -80.05 Q-31.8 -83.85 -19.7 -91.65 4.55 -107.15 7.95 -126.95" fill="#70381f" fill-rule="evenodd" stroke="none"/>
    <path d="M7.95 -126.95 Q4.55 -107.15 -19.7 -91.65 -31.8 -83.85 -43.25 -80.05 L33.95 -81.2 Q50.75 -101.6 32.7 -138.45 26.3 -119.1 13.95 -110.7 14.5 -119.25 7.95 -126.95 Z" fill="none" stroke="#3c190a" stroke-linecap="round" stroke-linejoin="round" stroke-width="8.0"/>
    <path d="M78.0 30.3 Q83.35 42.5 98.1 49.55 L86.0 52.05 100.4 65.45 81.7 67.15 85.0 73.8 60.35 72.45 69.1 51.6 78.0 30.3 M-73.25 30.3 L-64.35 51.6 -55.6 72.45 -80.25 73.8 -76.95 67.15 -95.65 65.45 -81.25 52.05 -93.35 49.55 Q-78.6 42.5 -73.25 30.3" fill="#70381f" fill-rule="evenodd" stroke="none"/>
    <path d="M78.0 30.3 Q83.35 42.5 98.1 49.55 L86.0 52.05 100.4 65.45 81.7 67.15 85.0 73.8 60.35 72.45 69.1 51.6 78.0 30.3 M-73.25 30.3 Q-78.6 42.5 -93.35 49.55 L-81.25 52.05 -95.65 65.45 -76.95 67.15 -80.25 73.8 -55.6 72.45 -64.35 51.6 -73.25 30.3" fill="none" stroke="#3c190a" stroke-linecap="round" stroke-linejoin="round" stroke-width="8.0"/>
    <path d="M-92.5 26.25 Q-81.5 25.55 -73.85 33.2 -66.0 41.05 -66.45 53.0 -66.9 65.2 -75.75 74.15 -84.6 83.05 -96.25 83.1 -107.7 83.1 -114.85 74.6 -121.8 66.3 -120.7 54.7 -119.7 43.35 -111.5 35.1 -103.35 26.85 -92.5 26.25" fill="#70381f" fill-rule="evenodd" stroke="none"/>
    <path d="M-92.5 26.25 Q-81.5 25.55 -73.85 33.2 -66.0 41.05 -66.45 53.0 -66.9 65.2 -75.75 74.15 -84.6 83.05 -96.25 83.1 -107.7 83.1 -114.85 74.6 -121.8 66.3 -120.7 54.7 -119.7 43.35 -111.5 35.1 -103.35 26.85 -92.5 26.25 Z" fill="none" stroke="#3c190a" stroke-linecap="round" stroke-linejoin="round" stroke-width="8.0"/>
    <path d="M93.8 27.25 Q103.95 27.8 111.2 34.7 118.55 41.6 118.4 50.85 118.25 60.05 110.65 65.9 103.1 71.55 92.9 70.65 82.8 69.5 76.05 62.55 69.35 55.7 69.55 46.95 69.55 45.75 69.8 44.65 70.7 37.4 76.75 32.55 83.8 26.7 93.8 27.25" fill="#70381f" fill-rule="evenodd" stroke="none"/>
    <path d="M93.8 27.25 Q103.95 27.8 111.2 34.7 118.55 41.6 118.4 50.85 118.25 60.05 110.65 65.9 103.1 71.55 92.9 70.65 82.8 69.5 76.05 62.55 69.35 55.7 69.55 46.95 69.55 45.75 69.8 44.65 70.7 37.4 76.75 32.55 83.8 26.7 93.8 27.25 Z" fill="none" stroke="#3c190a" stroke-linecap="round" stroke-linejoin="round" stroke-width="8.0"/>
    <path d="M-92.5 26.25 Q-81.5 25.55 -73.85 33.2 -66.0 41.05 -66.45 53.0 -66.9 65.2 -75.75 74.15 -84.6 83.05 -96.25 83.1 -107.7 83.1 -114.85 74.6 -121.8 66.3 -120.7 54.7 -119.7 43.35 -111.5 35.1 -103.35 26.85 -92.5 26.25" fill="#70381f" fill-rule="evenodd" stroke="none"/>
    <path d="M-85.1 35.65 Q-77.55 35.15 -72.25 40.45 -66.9 45.8 -67.2 54.05 -67.5 62.45 -73.6 68.6 -79.65 74.7 -87.65 74.75 -95.55 74.75 -100.45 68.9 -105.25 63.2 -104.5 55.2 -103.8 47.4 -98.15 41.75 -92.55 36.05 -85.1 35.65" fill="#bf7926" fill-rule="evenodd" stroke="none"/>
    <path d="M93.8 27.25 Q103.95 27.8 111.2 34.7 118.55 41.6 118.4 50.85 118.25 60.05 110.65 65.9 103.1 71.55 92.9 70.65 82.8 69.5 76.05 62.55 69.35 55.7 69.55 46.95 69.55 45.75 69.8 44.65 70.7 37.4 76.75 32.55 83.8 26.7 93.8 27.25" fill="#70381f" fill-rule="evenodd" stroke="none"/>
    <path d="M101.75 38.75 Q107.15 43.8 107.0 50.55 106.9 57.25 101.35 61.55 95.85 65.65 88.45 65.0 81.05 64.1 76.15 59.05 71.25 54.05 71.4 47.7 L71.6 46.05 Q72.25 40.7 76.65 37.15 81.8 32.95 89.1 33.35 96.5 33.7 101.75 38.75" fill="#bf7926" fill-rule="evenodd" stroke="none"/>
    <path d="M90.35 27.25 Q87.35 42.05 82.7 55.45 L78.6 66.0 78.95 65.15 76.05 62.55 Q69.35 55.7 69.55 46.95 69.55 45.75 69.8 44.65 70.7 37.4 76.75 32.55 82.55 27.75 90.35 27.25 M-89.6 33.1 L-91.55 26.2 Q-81.2 25.85 -73.85 33.2 -66.0 41.05 -66.45 53.0 -66.8 63.05 -72.85 70.85 L-75.5 66.4 Q-83.9 51.65 -89.6 33.1" fill="#620000" fill-opacity="0.2" fill-rule="evenodd" stroke="none"/>
    <path d="M84.05 -55.45 Q95.65 -20.8 88.1 23.75 85.15 41.1 79.75 56.45 74.95 70.2 70.05 77.55 65.8 83.95 48.0 88.3 31.9 92.2 9.75 93.35 -11.85 94.5 -29.7 92.55 -48.7 90.45 -55.4 85.55 -62.5 80.35 -70.15 66.85 -78.1 52.85 -83.5 35.25 -96.8 -8.1 -86.9 -41.95 -81.3 -60.95 -56.7 -75.25 -33.5 -88.75 -3.7 -92.55 27.2 -96.5 50.45 -87.9 76.4 -78.3 84.05 -55.45" fill="#70381f" fill-rule="evenodd" stroke="none"/>
    <path d="M78.0 30.3 Q83.35 42.5 98.1 49.55 L86.0 52.05 100.4 65.45 81.7 67.15 85.0 73.8 60.35 72.45 69.1 51.6 78.0 30.3 M-73.25 30.3 L-64.35 51.6 -55.6 72.45 -80.25 73.8 -76.95 67.15 -95.65 65.45 -81.25 52.05 -93.35 49.55 Q-78.6 42.5 -73.25 30.3" fill="#70381f" fill-rule="evenodd" stroke="none"/>
    <path d="M7.95 -126.95 Q14.5 -119.25 13.95 -110.7 26.3 -119.1 32.7 -138.45 50.75 -101.6 33.95 -81.2 L-43.25 -80.05 Q-31.8 -83.85 -19.7 -91.65 4.55 -107.15 7.95 -126.95" fill="#70381f" fill-rule="evenodd" stroke="none"/>
  </g>
</svg>
