<?xml version="1.0" encoding="UTF-8" standalone="no"?>
<svg xmlns:xlink="http://www.w3.org/1999/xlink" height="80.0px" width="582.6px" xmlns="http://www.w3.org/2000/svg">
  <g transform="matrix(1.0, 0.0, 0.0, 1.0, 291.2, 40.0)">
    <path d="M288.35 -15.05 L288.4 -15.05 288.4 -1.0 281.95 -1.0 281.95 37.0 -281.7 37.0 -281.7 -1.0 -288.15 -1.0 -288.15 -15.0 -288.15 -15.05 288.35 -15.05" fill="#926d30" fill-rule="evenodd" stroke="none"/>
    <path d="M288.35 -15.05 L-288.15 -15.05 -288.15 -15.0 -288.2 -15.0 -288.15 -15.05 -265.8 -37.0 266.05 -37.0 288.35 -15.05" fill="#b7893c" fill-rule="evenodd" stroke="none"/>
    <path d="M-288.15 -15.0 L-288.15 -1.0 -281.7 -1.0 -281.7 37.0 281.95 37.0 281.95 -1.0 288.4 -1.0 288.4 -15.05 288.35 -15.05 -288.15 -15.05 -288.15 -15.0 -288.2 -15.0 -288.15 -15.05 -265.8 -37.0 266.05 -37.0 288.35 -15.05" fill="none" stroke="#62471b" stroke-linecap="round" stroke-linejoin="round" stroke-width="6.0"/>
    <path d="M-281.75 37.0 L-281.75 -15.05 281.95 -15.05 281.95 37.0 -281.75 37.0" fill="#83612a" fill-rule="evenodd" stroke="none"/>
    <path d="M-281.7 21.0 L-281.7 -19.1 -250.1 -20.05 281.95 -20.05 281.95 4.05 -281.7 21.0" fill="#745523" fill-rule="evenodd" stroke="none"/>
    <path d="M48.8 -12.4 Q49.5 -11.45 49.4 -10.25 L49.2 -8.45 Q49.2 0.65 50.35 5.6 L55.3 23.8 59.65 37.0 56.2 37.0 55.1 33.9 Q53.3 28.9 49.85 16.65 46.4 4.55 46.4 3.3 46.2 -0.5 46.4 -3.9 46.8 -10.6 48.8 -12.4 M110.4 -13.1 Q112.05 -8.05 112.8 -1.2 113.05 1.3 113.85 4.7 L115.3 10.5 Q118.7 23.85 118.9 33.9 L118.9 37.0 115.5 37.0 115.5 33.5 Q116.15 28.85 114.25 20.35 112.2 10.95 112.2 9.05 109.3 -4.35 109.3 -7.0 109.3 -12.4 110.4 -13.1 M176.8 -11.3 Q178.05 -8.7 178.3 -5.7 L178.4 -0.15 Q178.4 5.2 177.05 14.3 175.7 23.4 174.3 27.3 173.2 30.45 171.6 37.0 L168.45 37.0 168.7 35.7 Q169.2 33.0 171.05 27.8 L173.5 20.1 174.75 12.3 175.7 4.2 175.75 -4.1 Q175.7 -9.4 176.8 -11.3 M191.1 -8.6 L191.2 -7.1 191.0 -2.0 190.65 -2.1 190.5 -2.5 187.0 11.35 Q184.85 19.6 182.0 25.2 181.55 25.1 181.15 24.3 180.7 23.5 180.7 22.9 180.7 21.1 182.95 13.8 184.95 7.3 185.4 6.4 186.2 4.8 186.7 2.4 L187.7 -1.7 188.6 -6.15 Q189.35 -8.85 191.1 -8.6 M242.8 -5.2 L240.55 7.5 Q239.2 15.65 238.0 20.6 L237.6 20.8 Q236.8 20.0 236.8 18.8 236.8 17.6 237.95 11.95 L239.1 6.2 239.8 3.05 240.3 -0.1 Q240.55 -6.2 242.8 -5.2 M233.8 -11.7 Q233.95 -11.55 234.25 -11.5 L234.5 -10.8 Q234.5 -4.7 232.45 4.75 230.4 14.2 230.4 21.3 230.4 24.5 231.7 28.25 233.0 32.0 233.0 37.0 L228.2 37.0 228.5 29.2 Q228.5 27.1 229.25 17.75 L230.0 8.5 231.2 3.4 Q231.95 0.1 232.0 -1.7 L232.55 -6.8 Q232.9 -10.15 233.8 -11.7 M253.0 13.1 L253.5 16.85 251.15 29.35 249.7 37.0 247.55 37.0 247.8 34.75 248.65 29.55 249.9 23.5 251.0 17.9 Q251.8 14.3 253.0 13.1 M260.1 22.8 L260.2 22.9 260.3 23.55 Q260.3 25.5 259.7 28.2 258.9 31.9 257.6 31.9 256.6 31.9 256.3 30.95 L256.2 29.9 Q256.2 27.8 256.95 25.75 258.05 22.8 260.1 22.8 M122.1 7.4 Q123.2 8.7 122.5 13.85 122.5 17.75 123.25 20.9 124.15 24.7 124.4 28.4 L125.5 35.5 125.75 37.0 123.5 37.0 122.25 30.9 Q119.8 18.6 119.8 17.15 119.8 13.75 120.1 11.85 120.65 8.65 122.1 7.4 M58.6 -8.5 Q58.15 -1.0 60.5 7.65 63.0 16.95 63.0 21.65 L62.6 23.75 61.8 25.7 61.4 25.8 Q60.1 23.3 59.7 19.5 L59.0 13.2 Q56.3 3.2 56.3 0.9 56.3 -7.9 58.6 -8.5 M46.2 25.65 L45.9 28.8 Q45.35 31.4 44.0 31.4 42.2 31.4 41.0 29.2 L40.2 26.95 40.4 22.9 41.4 22.7 Q42.5 23.35 43.5 24.7 43.5 23.85 42.8 22.8 L42.9 22.5 Q44.1 22.6 45.15 23.65 46.2 24.7 46.2 25.65 M26.1 6.7 L26.2 6.55 26.3 7.15 Q19.35 16.3 16.1 17.2 15.9 17.75 15.9 16.75 15.9 15.05 20.0 11.0 24.1 7.0 26.1 6.7 M30.6 5.7 L30.9 6.3 23.5 16.7 Q18.9 22.6 14.4 26.3 L13.85 26.3 Q13.7 26.25 13.7 25.65 13.7 23.95 20.9 15.7 27.8 7.7 30.6 5.7 M24.4 24.5 L25.0 24.75 Q25.2 24.95 25.2 25.6 25.2 26.2 24.8 27.2 24.25 28.35 23.6 28.7 L23.05 28.7 Q22.9 28.65 22.9 28.05 22.9 27.15 23.25 26.15 23.65 24.9 24.4 24.5 M-245.0 -5.6 Q-244.2 -3.6 -244.2 -0.5 L-244.8 15.4 -244.9 23.2 Q-245.2 28.05 -247.1 30.8 L-247.5 25.85 Q-247.5 17.8 -247.0 8.65 -246.3 -4.7 -245.0 -5.6 M-250.9 -13.45 Q-251.2 14.5 -252.1 22.1 -252.9 28.65 -253.1 37.0 L-256.15 37.0 -255.8 27.2 -254.6 11.6 -253.95 -2.55 Q-253.45 -10.25 -251.75 -15.05 L-251.1 -15.05 -250.9 -13.45 M-183.4 -8.8 Q-182.9 -7.8 -182.9 -6.4 L-183.9 4.85 -183.45 8.9 -183.0 12.95 -183.2 15.2 -184.0 15.6 Q-184.95 15.0 -185.8 9.1 L-185.55 0.95 -184.1 -8.8 -183.4 -8.8 M-190.3 -14.9 Q-190.2 -13.45 -190.25 -10.55 L-190.4 -7.25 Q-190.65 9.2 -189.4 17.2 -188.7 21.65 -184.4 29.2 -183.55 30.65 -182.55 34.95 L-182.1 37.0 -184.85 37.0 Q-186.05 32.85 -188.6 28.5 -193.4 20.3 -193.4 14.8 -193.4 10.7 -192.2 -0.2 L-192.05 -7.55 Q-191.9 -12.2 -190.6 -14.9 L-190.3 -14.9 M-153.8 -7.2 Q-153.0 -4.4 -153.0 -0.45 -153.0 2.8 -154.8 7.5 L-158.2 15.6 Q-161.05 22.9 -161.3 31.5 L-161.45 37.0 -164.8 37.0 Q-164.9 30.6 -163.3 22.6 -162.75 20.05 -160.55 15.45 -157.85 9.7 -157.1 7.6 -156.2 5.15 -155.3 -0.55 -154.5 -5.8 -153.8 -7.2 M-124.0 -10.8 L-123.4 -10.7 -123.2 -10.0 -123.55 -7.8 -123.9 -5.65 Q-123.9 -4.2 -127.55 9.95 -131.15 23.65 -132.9 29.3 L-135.1 37.0 -138.05 37.0 -135.3 26.4 -133.0 16.95 Q-131.6 11.25 -130.4 7.5 L-127.95 -2.1 Q-126.45 -7.6 -124.0 -10.8 M-118.6 -2.4 L-118.3 -2.05 -118.2 -1.2 Q-118.2 0.65 -121.8 16.5 L-124.1 25.2 Q-125.8 30.6 -128.4 33.5 L-128.95 33.5 -129.1 32.85 Q-129.1 31.4 -123.6 14.7 L-121.25 4.6 Q-119.9 -1.45 -118.6 -2.4 M-32.8 1.8 Q-32.1 2.7 -32.1 3.05 -32.1 3.8 -29.7 10.95 -27.3 18.1 -27.3 25.7 -27.3 26.45 -29.75 33.1 L-31.15 37.0 -35.1 37.0 -35.1 36.9 Q-34.2 33.55 -31.85 27.4 -30.8 24.65 -30.8 19.8 -30.8 18.4 -32.35 12.25 L-33.9 6.0 -33.55 3.75 Q-33.2 2.15 -32.8 1.8 M-39.6 17.7 Q-39.1 17.85 -38.95 17.95 -38.7 18.15 -38.7 18.8 L-39.55 21.5 Q-40.4 24.15 -40.4 25.7 -38.95 23.65 -38.4 22.45 -37.55 20.4 -38.0 18.5 L-37.7 18.25 -36.8 18.0 Q-35.35 18.0 -35.0 19.25 -34.85 19.9 -35.0 20.6 -35.0 22.2 -36.3 25.1 -38.05 28.9 -40.4 28.9 -42.45 28.9 -42.8 27.2 L-42.8 25.4 Q-42.8 23.25 -42.0 20.9 -41.05 18.05 -39.6 17.7 M-39.8 13.7 L-39.6 14.0 Q-41.7 15.45 -43.05 18.95 -44.2 21.9 -44.2 24.35 -44.2 26.55 -43.15 29.65 -42.2 32.5 -41.0 34.3 -39.35 34.05 -38.35 32.3 L-36.3 29.1 -35.95 29.5 Q-35.7 29.85 -35.7 30.45 -35.7 32.0 -37.1 34.3 -38.95 37.3 -41.6 36.7 -43.25 36.05 -44.85 32.0 -46.3 28.3 -46.3 26.15 -46.3 22.35 -44.9 19.2 -43.15 15.3 -39.8 13.7 M-267.0 -1.6 Q-266.6 0.9 -266.35 5.5 L-266.2 10.4 -266.25 13.7 Q-266.4 15.85 -267.1 17.3 -267.95 16.15 -268.15 14.05 L-268.2 10.4 -268.1 3.9 Q-267.9 -0.2 -267.0 -1.6" fill="#745523" fill-rule="evenodd" stroke="none"/>
    <path d="M48.8 -12.4 Q49.5 -11.45 49.4 -10.25 L49.2 -8.45 Q49.2 0.65 50.35 5.6 L51.9 11.0 48.3 11.1 Q46.4 4.2 46.4 3.3 46.2 -0.5 46.4 -3.9 46.8 -10.6 48.8 -12.4 M110.4 -13.1 Q112.05 -8.05 112.8 -1.2 113.05 1.3 113.85 4.7 L114.95 9.1 112.2 9.15 112.2 9.05 Q109.3 -4.35 109.3 -7.0 109.3 -12.4 110.4 -13.1 M176.8 -11.3 Q178.05 -8.7 178.3 -5.7 L178.4 -0.15 177.95 7.2 175.35 7.25 175.7 4.2 175.75 -4.1 Q175.7 -9.4 176.8 -11.3 M191.1 -8.6 L191.2 -7.1 191.0 -2.0 190.65 -2.1 190.5 -2.5 188.2 6.85 189.0 6.85 185.2 6.95 185.4 6.4 Q186.2 4.8 186.7 2.4 L187.7 -1.7 188.6 -6.15 Q189.35 -8.85 191.1 -8.6 M233.8 -11.7 Q233.95 -11.55 234.25 -11.5 L234.5 -10.8 Q234.5 -4.7 232.45 4.75 L232.3 5.55 230.7 5.6 231.2 3.4 Q231.95 0.1 232.0 -1.7 L232.55 -6.8 Q232.9 -10.15 233.8 -11.7 M242.8 -5.2 L240.95 5.3 239.3 5.35 239.8 3.05 240.3 -0.1 Q240.55 -6.2 242.8 -5.2 M122.1 7.4 L122.65 8.85 121.0 8.9 Q121.45 7.95 122.1 7.4 M58.6 -8.5 Q58.15 -1.0 60.5 7.65 L61.3 10.7 61.9 10.7 58.35 10.8 Q56.3 2.9 56.3 0.9 56.3 -7.9 58.6 -8.5 M-32.8 1.8 Q-32.1 2.7 -32.1 3.05 -32.1 3.8 -29.7 10.95 L-28.95 13.4 19.1 11.95 20.0 11.0 Q24.1 7.0 26.1 6.7 L26.2 6.55 26.3 7.15 22.55 11.85 24.35 11.8 Q28.55 7.15 30.6 5.7 L30.9 6.3 27.15 11.7 -32.05 13.5 -32.35 12.25 -33.9 6.0 -33.55 3.75 Q-33.2 2.15 -32.8 1.8 M-251.4 -16.0 Q-250.9 -14.5 -250.9 -13.45 -251.15 11.3 -251.9 20.1 L-255.2 20.2 -254.6 11.6 -253.95 -2.55 Q-253.4 -11.05 -251.4 -16.0 M-245.0 -5.6 Q-244.2 -3.6 -244.2 -0.5 L-244.8 15.4 -244.9 19.9 -247.4 20.0 -247.0 8.65 Q-246.3 -4.7 -245.0 -5.6 M-190.3 -14.9 Q-190.2 -13.45 -190.25 -10.55 L-190.4 -7.25 Q-190.65 9.2 -189.4 17.2 L-189.2 18.2 -192.95 18.35 -193.4 14.8 Q-193.4 10.7 -192.2 -0.2 L-192.05 -7.55 Q-191.9 -12.2 -190.6 -14.9 L-190.3 -14.9 M-183.4 -8.8 Q-182.9 -7.8 -182.9 -6.4 L-183.9 4.85 -183.45 8.9 -183.0 12.95 -183.2 15.2 -184.0 15.6 Q-184.95 15.0 -185.8 9.1 L-185.55 0.95 -184.1 -8.8 -183.4 -8.8 M-124.0 -10.8 L-123.4 -10.7 -123.2 -10.0 -123.55 -7.8 -123.9 -5.65 Q-123.9 -4.2 -127.55 9.95 L-129.25 16.4 -132.9 16.5 -130.4 7.5 -127.95 -2.1 Q-126.45 -7.6 -124.0 -10.8 M-153.8 -7.2 Q-153.0 -4.4 -153.0 -0.45 -153.0 2.8 -154.8 7.5 L-158.2 15.6 -158.8 17.3 -161.4 17.35 -160.55 15.45 Q-157.85 9.7 -157.1 7.6 -156.2 5.15 -155.3 -0.55 -154.5 -5.8 -153.8 -7.2 M-118.6 -2.4 L-118.3 -2.05 -118.2 -1.2 Q-118.2 0.65 -121.7 16.15 L-124.1 16.25 -123.6 14.7 -121.25 4.6 Q-119.9 -1.45 -118.6 -2.4 M-267.0 -1.6 Q-266.6 0.9 -266.35 5.5 L-266.2 10.4 -266.25 13.7 Q-266.4 15.85 -267.1 17.3 -267.95 16.15 -268.15 14.05 L-268.2 10.4 -268.1 3.9 Q-267.9 -0.2 -267.0 -1.6" fill="#5d4319" fill-rule="evenodd" stroke="none"/>
    <path d="M-265.8 -37.0 L266.05 -37.0 288.4 -15.0 -288.2 -15.0 -265.8 -37.0" fill="#b7893c" fill-rule="evenodd" stroke="none"/>
    <path d="M-288.15 -1.0 L-288.15 -15.05 288.4 -15.05 288.4 -1.0 -288.15 -1.0" fill="#926d30" fill-rule="evenodd" stroke="none"/>
    <path d="M12.55 -27.5 L18.8 -27.0 Q18.8 -27.75 22.95 -27.5 L27.75 -27.25 30.4 -28.25 31.45 -28.35 22.2 -29.1 Q18.4 -28.9 12.55 -27.5 M37.3 -33.85 Q40.25 -33.85 42.1 -30.9 43.05 -29.45 43.45 -27.85 43.45 -19.75 25.05 -19.75 10.1 -19.75 4.55 -21.0 0.0 -22.05 0.0 -24.55 0.0 -27.25 1.25 -28.75 L-2.9 -28.55 -10.05 -28.0 -22.85 -26.85 -36.95 -26.6 -41.45 -25.85 -57.95 -25.85 -64.35 -26.5 -77.65 -26.6 -99.7 -28.0 -109.6 -29.0 -123.9 -30.35 -127.45 -30.85 Q-126.95 -32.0 -125.55 -32.0 L-110.35 -31.55 -107.25 -30.55 Q-102.5 -29.2 -57.7 -29.35 L-41.85 -29.35 -37.2 -30.1 -23.2 -30.35 -17.15 -30.75 -10.4 -31.25 -3.8 -31.25 3.25 -31.1 5.8 -31.5 9.65 -32.85 Q10.45 -33.6 10.45 -32.35 L9.9 -32.0 Q9.45 -30.6 8.55 -30.05 7.6 -29.5 4.3 -29.0 L4.15 -28.95 Q2.2 -27.5 2.2 -25.9 2.2 -23.95 8.85 -23.15 L24.95 -22.5 37.0 -23.15 Q38.2 -23.55 38.65 -25.0 L40.2 -26.6 40.75 -27.6 Q40.75 -28.55 34.75 -33.6 L37.3 -33.85 M34.9 -27.9 Q34.9 -26.95 32.0 -25.75 28.3 -24.25 22.95 -24.25 10.25 -24.25 10.25 -27.15 10.25 -28.5 12.3 -29.85 34.9 -33.75 34.9 -27.9 M123.0 -32.75 L123.45 -32.45 124.05 -32.0 97.1 -28.1 Q94.0 -27.85 71.9 -27.85 56.15 -27.85 48.1 -22.45 43.45 -19.35 42.05 -18.8 38.2 -17.1 32.25 -17.1 L25.7 -17.5 Q28.2 -18.8 34.4 -19.55 39.95 -20.3 42.65 -22.25 L47.05 -25.5 51.5 -28.35 Q56.45 -30.95 68.9 -31.15 L86.8 -31.1 107.4 -32.75 Q116.3 -33.5 123.0 -32.75 M94.9 -25.25 L95.05 -24.85 Q93.35 -23.95 89.3 -23.2 L80.7 -22.35 77.75 -22.6 75.1 -23.0 75.1 -24.1 83.6 -25.55 Q92.0 -26.75 94.9 -25.25 M150.8 -23.25 L183.95 -23.25 Q195.6 -23.6 198.05 -23.0 199.2 -22.75 199.4 -22.35 L197.6 -21.8 183.7 -21.0 150.7 -21.0 138.75 -21.85 126.2 -23.0 125.5 -23.15 124.7 -23.6 133.1 -24.5 141.15 -24.15 150.8 -23.25 M188.45 -31.25 L211.35 -31.25 270.45 -29.0 274.2 -28.95 277.25 -25.95 256.35 -25.6 211.0 -27.5 188.85 -27.5 Q165.75 -27.35 159.35 -27.8 L146.4 -28.25 135.25 -28.5 134.85 -28.75 134.45 -29.25 149.6 -30.35 Q153.5 -30.6 158.7 -30.2 L164.0 -29.75 188.45 -31.0 188.45 -31.25 M275.65 -19.25 L284.05 -19.25 286.35 -17.0 282.95 -17.0 258.35 -17.9 242.75 -19.0 241.8 -19.15 Q240.85 -19.4 240.8 -19.6 L241.15 -19.85 Q246.85 -20.0 255.35 -19.75 L275.65 -19.25 M260.3 -32.5 L258.75 -32.75 258.3 -33.0 257.65 -33.5 Q258.65 -34.3 261.25 -34.9 L266.2 -35.6 267.4 -35.65 270.15 -32.9 260.3 -32.5 M-272.75 -26.0 L-272.35 -25.6 -272.45 -25.05 Q-272.7 -24.75 -273.55 -24.75 L-278.15 -24.85 -276.7 -26.25 -272.75 -26.0 M-269.25 -32.0 Q-262.85 -30.8 -259.9 -31.15 L-250.9 -31.85 Q-246.95 -31.85 -242.65 -30.65 -238.35 -29.5 -232.0 -29.5 L-219.25 -30.1 -206.45 -30.75 -200.1 -30.5 -192.75 -30.1 Q-191.3 -29.85 -191.05 -29.5 L-191.3 -29.1 -213.3 -27.5 -234.15 -26.5 -239.2 -27.1 -244.25 -27.75 -250.1 -26.9 Q-253.25 -26.1 -255.7 -26.1 L-260.4 -27.05 -266.25 -28.35 -273.9 -29.05 -271.0 -31.95 -269.25 -32.0 M-263.85 -19.85 Q-265.45 -19.6 -265.45 -19.0 L-277.8 -18.5 Q-281.05 -18.5 -283.45 -19.45 L-283.6 -19.5 -281.1 -22.0 -272.7 -21.95 Q-266.5 -21.95 -263.85 -19.85 M-101.45 -23.6 Q-99.85 -23.25 -99.75 -22.85 L-100.0 -22.6 -112.25 -21.5 -143.65 -19.85 -168.7 -19.85 -179.55 -19.9 -185.2 -19.75 -205.95 -19.85 -219.9 -20.35 -225.45 -21.0 -226.65 -21.55 Q-227.55 -21.9 -227.6 -22.1 L-221.55 -22.35 -205.95 -22.1 -188.9 -22.25 -183.15 -22.65 -168.7 -23.1 -143.15 -23.35 Q-123.8 -24.35 -111.5 -24.15 L-101.45 -23.6 M-162.55 -36.25 Q-162.55 -35.15 -164.25 -33.65 -166.45 -31.75 -169.45 -31.75 L-172.65 -32.1 -172.85 -32.55 -173.05 -33.6 Q-173.05 -34.45 -169.25 -37.0 L-162.65 -37.0 -162.55 -36.25 M-158.65 -33.15 Q-158.65 -32.0 -159.65 -31.45 -160.25 -31.1 -160.95 -31.1 -162.1 -31.1 -162.7 -31.75 -163.2 -32.25 -163.2 -32.85 -163.2 -35.3 -160.9 -35.15 -158.65 -35.0 -158.65 -33.15 M-72.35 -22.85 L-70.85 -21.5 Q-70.85 -20.75 -71.0 -20.6 L-71.55 -20.35 -73.95 -19.35 -77.65 -18.85 Q-78.3 -19.05 -78.55 -19.35 -78.85 -19.7 -78.85 -20.6 -78.85 -21.75 -78.0 -22.15 -76.75 -22.7 -72.35 -22.85 M-17.35 -23.6 L-17.1 -22.85 Q-18.1 -21.85 -21.3 -20.3 -25.45 -18.35 -28.45 -18.35 -25.9 -20.25 -22.95 -21.8 -18.95 -23.95 -17.35 -23.6 M-10.6 -23.1 Q-9.25 -22.85 -9.0 -22.5 L-9.25 -22.1 -16.6 -18.8 Q-22.5 -16.25 -24.55 -16.25 L-24.95 -16.25 -25.4 -16.3 -25.85 -16.6 -18.05 -20.3 Q-12.1 -23.1 -10.6 -23.1" fill="#83612a" fill-rule="evenodd" stroke="none"/>
    <path d="M108.1 -10.1 L131.0 -10.1 139.45 -9.65 149.2 -9.1 Q150.95 -8.85 151.2 -8.5 L150.95 -8.1 140.95 -7.6 Q132.75 -7.45 131.5 -7.75 L108.2 -7.6 106.0 -7.2 103.85 -6.85 90.0 -6.85 83.6 -6.5 57.0 -6.6 Q47.45 -6.95 46.1 -6.75 L45.95 -7.5 46.35 -7.85 57.0 -8.35 72.45 -8.5 83.5 -8.85 90.0 -9.1 103.55 -9.35 104.45 -9.5 108.1 -9.85 108.1 -10.1 M147.5 -5.85 L154.55 -5.2 158.4 -4.0 159.45 -3.35 Q158.15 -2.85 156.65 -2.85 L153.75 -3.4 147.5 -4.1 138.0 -4.5 139.25 -5.4 147.5 -5.85 M215.6 -10.1 Q216.3 -9.85 216.8 -9.1 215.85 -7.85 212.15 -6.1 208.7 -4.5 204.15 -3.1 L203.9 -3.5 206.85 -6.5 Q210.55 -7.85 215.6 -10.1 M212.55 -10.6 L212.8 -9.85 210.6 -8.6 Q208.3 -7.4 207.65 -6.85 206.95 -7.05 206.65 -7.35 206.3 -7.75 206.3 -8.6 206.3 -9.65 208.5 -10.6 210.9 -11.6 212.55 -10.6 M227.2 -10.35 L227.5 -8.85 Q226.7 -8.15 225.75 -8.0 L224.75 -8.2 Q224.4 -8.35 224.4 -9.15 224.4 -10.1 225.05 -10.35 225.6 -10.65 227.2 -10.35 M281.6 -11.6 L288.35 -11.6 288.35 -9.15 281.35 -9.1 266.3 -8.35 255.55 -8.0 250.2 -8.2 244.1 -8.75 244.0 -9.1 250.7 -10.05 281.6 -11.35 281.6 -11.6 M283.75 -6.5 L288.35 -6.5 288.35 -4.5 283.35 -4.5 282.65 -4.2 281.35 -4.1 278.4 -4.35 277.45 -4.5 Q276.45 -4.75 276.3 -5.0 L276.55 -5.35 283.75 -6.5 M-221.25 -9.1 L-222.15 -8.0 -230.9 -6.75 -236.8 -5.85 -254.95 -4.55 -266.1 -3.6 -285.75 -3.6 -288.15 -3.65 -288.15 -6.15 -289.2 -6.15 -266.5 -6.6 -259.35 -6.95 -252.75 -7.1 -234.05 -7.65 -221.25 -9.1 M-250.9 -11.1 Q-249.3 -10.5 -248.95 -10.1 L-249.05 -9.5 -250.1 -9.25 -264.5 -10.0 -265.15 -10.15 Q-265.85 -10.4 -265.95 -10.6 L-250.9 -11.1 M-98.25 -11.6 L-98.1 -11.4 -98.0 -10.5 Q-98.0 -10.25 -102.25 -7.25 -106.55 -4.2 -107.45 -3.85 L-108.75 -4.85 Q-109.15 -5.25 -109.15 -5.6 -109.15 -6.9 -105.4 -9.25 -101.3 -11.75 -98.25 -11.6 M-106.15 -11.25 Q-105.7 -11.85 -105.7 -10.6 L-106.3 -9.3 Q-106.95 -8.2 -107.45 -8.1 L-109.05 -8.1 Q-110.4 -8.4 -110.95 -9.1 -110.4 -10.1 -108.8 -10.75 L-106.15 -11.25 M-92.15 -6.9 Q-92.15 -6.15 -92.85 -5.6 -93.4 -5.1 -94.15 -5.1 -95.6 -5.1 -96.0 -5.9 L-96.15 -6.85 Q-96.15 -8.85 -94.1 -8.8 -92.15 -8.8 -92.15 -6.9 M-48.65 -12.05 Q-50.35 -7.75 -53.7 -9.25 -55.5 -9.8 -55.95 -10.8 L-56.1 -12.5 -55.95 -15.05 -47.8 -15.05 -47.7 -15.6 Q-48.0 -13.7 -48.65 -12.05 M-41.45 -10.4 Q-41.45 -8.75 -44.4 -8.75 -45.95 -8.75 -46.4 -9.75 -46.65 -10.2 -46.5 -10.5 -46.5 -12.2 -43.95 -12.2 -41.45 -12.2 -41.45 -10.4 M-27.65 -12.35 L-28.0 -11.7 Q-28.35 -11.35 -29.2 -11.35 L-30.5 -11.65 -31.1 -12.25 -31.35 -13.75 Q-28.9 -14.55 -27.65 -12.35" fill="#745523" fill-rule="evenodd" stroke="none"/>
    <path d="M-99.15 37.0 L-99.15 -1.0 -101.4 -1.0 -101.4 -15.05 -101.35 -15.05 -93.55 -37.0 93.7 -37.0 101.6 -15.05 101.6 -1.0 99.35 -1.0 99.35 37.0 -99.15 37.0" fill="#ffcf2e" fill-rule="evenodd" stroke="none"/>
    <path d="M-99.15 37.0 L99.35 37.0 99.35 -1.0 101.6 -1.0 101.6 -15.05 93.7 -37.0 -93.55 -37.0 -101.35 -15.05 -101.4 -15.05 -101.4 -1.0 -99.15 -1.0 -99.15 37.0 Z" fill="none" stroke="#7e6306" stroke-linecap="round" stroke-linejoin="round" stroke-width="6.0"/>
    <path d="M-99.15 37.0 L-99.15 -15.05 99.35 -15.05 99.35 37.0 -99.15 37.0" fill="#bf9b1f" fill-rule="evenodd" stroke="none"/>
    <path d="M-93.55 -37.0 L93.7 -37.0 101.6 -15.0 -101.4 -15.0 -93.55 -37.0" fill="#ffcf2e" fill-rule="evenodd" stroke="none"/>
    <path d="M-92.1 37.0 L-92.1 -15.05 92.3 -15.05 92.3 37.0 -92.1 37.0" fill="#1396c2" fill-rule="evenodd" stroke="none"/>
    <path d="M99.35 -15.05 L99.35 9.55 -99.15 15.5 -99.15 -15.05 99.35 -15.05" fill="#9f811a" fill-rule="evenodd" stroke="none"/>
    <path d="M92.3 -15.05 L92.3 9.75 -92.1 15.3 -92.1 -15.05 92.3 -15.05" fill="#0b7ba1" fill-rule="evenodd" stroke="none"/>
    <path d="M-101.4 -1.0 L-101.4 -15.05 101.6 -15.05 101.6 -1.0 -101.4 -1.0" fill="#ffcf2e" fill-rule="evenodd" stroke="none"/>
    <path d="M-86.9 -37.0 L87.1 -37.0 94.4 -15.0 -94.2 -15.0 -86.9 -37.0" fill="#33ccff" fill-rule="evenodd" stroke="none"/>
    <path d="M-94.2 -1.0 L-94.2 -15.05 94.4 -15.05 94.4 -1.0 -94.2 -1.0" fill="#1eb0e0" fill-rule="evenodd" stroke="none"/>
  </g>
</svg>
