<?xml version="1.0" encoding="UTF-8" standalone="no"?>
<svg xmlns:xlink="http://www.w3.org/1999/xlink" height="32.4px" width="51.55px" xmlns="http://www.w3.org/2000/svg">
  <g transform="matrix(1.0, 0.0, 0.0, 1.0, 25.75, 16.2)">
    <path d="M11.55 9.85 L10.05 12.25 9.6 12.75 9.45 12.85 Q8.6 13.55 5.9 14.0 L0.3 14.2 -5.4 14.0 Q-8.15 13.55 -8.95 12.85 L-9.1 12.7 Q-10.05 11.85 -11.05 9.85 L-11.4 9.15 -11.45 9.15 -11.55 8.95 -12.0 9.05 -13.1 9.2 -13.15 9.2 Q-14.9 9.3 -15.85 8.5 -17.25 7.3 -17.8 5.7 -18.45 3.65 -16.75 2.5 -15.2 1.45 -13.55 2.3 L-13.45 2.35 -13.65 0.25 -14.05 0.1 Q-14.5 -0.25 -14.5 -0.85 L-13.7 -0.75 -13.7 -1.0 -16.2 -1.95 Q-19.7 -3.4 -21.65 -4.75 -21.4 -4.2 -20.6 -3.6 -19.75 -3.0 -18.5 -2.55 -19.35 -2.3 -21.05 -2.95 L-20.4 -2.4 -19.05 -2.15 -19.4 -0.35 -19.55 0.3 -18.45 1.1 -18.15 3.35 -19.3 4.9 -21.7 5.15 -22.3 4.55 -23.2 3.6 -22.7 0.65 -21.45 0.35 -22.3 -1.35 Q-23.75 -4.65 -23.75 -7.0 L-23.65 -9.3 -23.15 -11.1 Q-22.3 -12.65 -19.25 -13.3 -16.45 -13.85 -13.75 -12.9 L-11.5 -11.9 -9.5 -11.0 -9.45 -11.0 -9.4 -10.95 Q-8.15 -11.95 -6.5 -12.65 -3.6 -13.85 0.25 -13.85 4.05 -13.85 7.0 -12.65 L8.95 -11.65 9.15 -11.75 9.2 -11.75 10.95 -12.6 13.1 -13.6 18.55 -13.95 Q21.7 -13.35 22.7 -11.8 L23.35 -10.0 23.7 -7.7 Q23.95 -5.35 22.8 -2.05 L22.05 -0.3 23.3 0.0 23.8 2.95 22.9 3.9 22.3 4.5 19.9 4.25 18.75 2.7 19.05 0.45 20.2 -0.35 19.95 -1.05 19.45 -2.85 20.8 -3.1 21.4 -3.6 Q19.7 -2.95 18.9 -3.25 20.05 -3.7 20.9 -4.3 L21.75 -5.4 Q20.0 -4.05 16.6 -2.65 L14.2 -1.65 14.2 -1.5 14.2 -1.45 15.05 -1.55 Q15.1 -0.85 14.6 -0.5 L14.2 -0.35 14.05 1.55 14.0 2.15 Q15.45 1.55 16.8 2.5 18.5 3.65 17.85 5.7 17.3 7.3 15.9 8.5 14.95 9.3 13.2 9.2 L13.15 9.2 12.05 9.05 12.0 9.05 11.95 9.15 11.9 9.15 11.55 9.85" fill="#6e1e7e" fill-rule="evenodd" stroke="none"/>
    <path d="M11.55 9.85 L10.05 12.25 9.6 12.75 9.45 12.85 Q8.6 13.55 5.9 14.0 L0.3 14.2 -5.4 14.0 Q-8.15 13.55 -8.95 12.85 L-9.1 12.7 Q-10.05 11.85 -11.05 9.85 L-11.4 9.15 -11.45 9.15 -11.55 8.95 -12.0 9.05 -13.1 9.2 -13.15 9.2 Q-14.9 9.3 -15.85 8.5 -17.25 7.3 -17.8 5.7 -18.45 3.65 -16.75 2.5 -15.2 1.45 -13.55 2.3 L-13.45 2.35 -13.65 0.25 -14.05 0.1 Q-14.5 -0.25 -14.5 -0.85 L-13.7 -0.75 -13.7 -1.0 -16.2 -1.95 Q-19.7 -3.4 -21.65 -4.75 -21.4 -4.2 -20.6 -3.6 -19.75 -3.0 -18.5 -2.55 -19.35 -2.3 -21.05 -2.95 L-20.4 -2.4 -19.05 -2.15 -19.4 -0.35 -19.55 0.3 -18.45 1.1 -18.15 3.35 -19.3 4.9 -21.7 5.15 -22.3 4.55 -23.2 3.6 -22.7 0.65 -21.45 0.35 -22.3 -1.35 Q-23.75 -4.65 -23.75 -7.0 L-23.65 -9.3 -23.15 -11.1 Q-22.3 -12.65 -19.25 -13.3 -16.45 -13.85 -13.75 -12.9 L-11.5 -11.9 -9.5 -11.0 -9.45 -11.0 -9.4 -10.95 Q-8.15 -11.95 -6.5 -12.65 -3.6 -13.85 0.25 -13.85 4.05 -13.85 7.0 -12.65 L8.95 -11.65 9.15 -11.75 9.2 -11.75 10.95 -12.6 13.1 -13.6 18.55 -13.95 Q21.7 -13.35 22.7 -11.8 L23.35 -10.0 23.7 -7.7 Q23.95 -5.35 22.8 -2.05 L22.05 -0.3 23.3 0.0 23.8 2.95 22.9 3.9 22.3 4.5 19.9 4.25 18.75 2.7 19.05 0.45 20.2 -0.35 19.95 -1.05 19.45 -2.85 20.8 -3.1 21.4 -3.6 Q19.7 -2.95 18.9 -3.25 20.05 -3.7 20.9 -4.3 L21.75 -5.4 Q20.0 -4.05 16.6 -2.65 L14.2 -1.65 14.2 -1.5 14.2 -1.45 15.05 -1.55 Q15.1 -0.85 14.6 -0.5 L14.2 -0.35 14.05 1.55 14.0 2.15 Q15.45 1.55 16.8 2.5 18.5 3.65 17.85 5.7 17.3 7.3 15.9 8.5 14.95 9.3 13.2 9.2 L13.15 9.2 12.05 9.05 12.0 9.05 11.95 9.15 11.9 9.15 11.55 9.85 Z" fill="none" stroke="#390c42" stroke-linecap="round" stroke-linejoin="round" stroke-width="4.0"/>
    <path d="M11.55 9.85 Q10.4 12.05 9.45 12.85 8.6 13.55 5.9 14.0 L0.3 14.2 -5.4 14.0 Q-8.15 13.55 -8.95 12.85 -9.95 12.05 -11.05 9.85 L-11.45 9.05 11.95 9.05 11.55 9.85" fill="#6e1e7e" fill-rule="evenodd" stroke="none"/>
    <path d="M6.7 11.85 L-6.2 11.85 -5.05 9.05 5.55 9.05 6.7 11.85" fill="#aa4994" fill-rule="evenodd" stroke="none"/>
    <path d="M2.95 11.8 L0.55 11.8 0.55 9.05 2.95 9.05 2.95 11.8 M4.9 11.7 L3.2 11.8 3.65 11.75 3.65 9.05 4.55 9.05 Q4.9 10.2 4.9 11.6 L4.9 11.7 M-4.5 11.7 L-4.5 11.6 Q-4.5 10.2 -4.15 9.05 L-3.2 9.05 -3.2 11.75 -4.5 11.7 M-0.15 11.8 L-2.5 11.8 -2.5 9.05 -0.15 9.05 -0.15 11.8" fill="#e2dbcc" fill-rule="evenodd" stroke="none"/>
    <path d="M-6.45 11.7 L1.2 11.35 8.75 11.95 10.05 12.25 9.45 12.85 Q8.6 13.55 5.9 14.0 L0.3 14.2 -5.4 14.0 Q-8.15 13.55 -8.95 12.85 L-9.3 12.5 Q-8.65 12.0 -6.45 11.7" fill="#550074" fill-opacity="0.3019608" fill-rule="evenodd" stroke="none"/>
    <path d="M-20.05 -0.05 L-22.7 0.65 -23.2 3.6 -21.7 5.15 -19.3 4.9 -18.15 3.35 -18.45 1.1 -20.05 -0.05" fill="#ffc412" fill-rule="evenodd" stroke="none"/>
    <path d="M-20.05 2.9 L-21.5 2.35 -22.3 4.55 -21.7 5.15 -20.85 5.05 -20.05 2.9" fill="#d78e00" fill-rule="evenodd" stroke="none"/>
    <path d="M-12.55 3.0 Q-13.0 2.6 -13.55 2.3 -15.2 1.45 -16.75 2.5 -18.45 3.65 -17.8 5.7 -17.25 7.3 -15.85 8.5 -14.9 9.3 -13.15 9.2 L-12.0 9.05 -11.55 8.95 -12.2 3.4 -12.55 3.0" fill="#6e1e7e" fill-rule="evenodd" stroke="none"/>
    <path d="M-12.5 4.6 L-14.85 4.75 Q-16.05 5.55 -15.55 7.05 -15.15 8.25 -14.15 9.1 L-14.05 9.15 -13.1 9.2 -12.0 9.05 -11.5 8.95 -12.0 4.95 -12.5 4.6" fill="#aa4994" fill-rule="evenodd" stroke="none"/>
    <path d="M13.6 2.3 Q15.25 1.45 16.8 2.5 18.5 3.65 17.85 5.7 17.3 7.3 15.9 8.5 14.95 9.3 13.2 9.2 L12.05 9.05 11.6 8.95 12.25 3.4 12.6 3.0 13.6 2.3" fill="#6e1e7e" fill-rule="evenodd" stroke="none"/>
    <path d="M12.55 4.6 L14.9 4.75 Q16.1 5.55 15.6 7.05 15.2 8.25 14.2 9.1 L14.1 9.15 13.15 9.2 12.05 9.05 11.55 8.95 12.05 4.95 12.55 4.6" fill="#aa4994" fill-rule="evenodd" stroke="none"/>
    <path d="M14.15 -1.9 Q14.35 1.2 13.5 4.6 L11.95 9.15 -11.45 9.15 Q-12.45 7.0 -13.05 4.6 -13.85 1.2 -13.65 -1.9 -13.4 -5.5 -11.7 -8.35 -10.0 -11.2 -6.5 -12.65 -3.6 -13.85 0.25 -13.85 4.05 -13.85 7.0 -12.65 10.45 -11.2 12.2 -8.35 13.9 -5.5 14.15 -1.9" fill="#6e1e7e" fill-rule="evenodd" stroke="none"/>
    <path d="M-4.2 -9.5 Q-0.7 -9.95 -8.9 -3.5 L-10.95 -1.65 Q-13.0 0.25 -13.3 0.3 L-14.05 0.1 Q-14.5 -0.25 -14.5 -0.85 L-13.65 -0.75 -13.05 -0.8 -16.2 -1.95 Q-19.7 -3.4 -21.65 -4.75 -21.4 -4.2 -20.6 -3.6 -19.75 -3.0 -18.5 -2.55 -19.35 -2.3 -21.05 -2.95 L-20.4 -2.4 -19.05 -2.15 -19.4 -0.35 Q-19.85 1.5 -20.3 1.6 L-21.15 0.8 -22.3 -1.35 Q-23.75 -4.65 -23.75 -7.0 L-23.65 -9.3 -23.15 -11.1 Q-22.3 -12.65 -19.25 -13.3 -16.45 -13.85 -13.75 -12.9 L-11.5 -11.9 -9.5 -11.0 -9.45 -11.0 -9.35 -10.95 -9.25 -10.9 -9.2 -11.0 -8.25 -11.0 -8.05 -10.5 Q-7.8 -9.45 -5.85 -9.4 L-4.2 -9.5" fill="#6e1e7e" fill-rule="evenodd" stroke="none"/>
    <path d="M20.65 -0.7 L23.3 0.0 23.8 2.95 22.3 4.5 19.9 4.25 18.75 2.7 19.05 0.45 20.65 -0.7" fill="#ffc412" fill-rule="evenodd" stroke="none"/>
    <path d="M20.65 2.25 L22.1 1.7 22.9 3.9 22.3 4.5 21.45 4.4 20.65 2.25" fill="#d78e00" fill-rule="evenodd" stroke="none"/>
    <path d="M7.65 -11.15 L7.8 -11.7 8.75 -11.7 8.8 -11.6 9.15 -11.75 9.2 -11.75 10.95 -12.6 13.1 -13.6 18.55 -13.95 Q21.7 -13.35 22.7 -11.8 L23.35 -10.0 23.7 -7.7 Q23.95 -5.35 22.8 -2.05 L21.8 0.1 Q21.35 1.0 21.1 0.9 20.6 0.8 19.95 -1.05 L19.45 -2.85 20.8 -3.1 21.4 -3.6 Q19.7 -2.95 18.9 -3.25 20.05 -3.7 20.9 -4.3 L21.75 -5.4 Q20.0 -4.05 16.6 -2.65 L13.6 -1.45 14.15 -1.45 15.05 -1.55 Q15.1 -0.85 14.6 -0.5 14.05 -0.2 13.2 -0.5 12.95 -0.6 11.0 -2.4 L9.2 -4.2 7.95 -5.1 7.3 -10.6 7.65 -11.15" fill="#6e1e7e" fill-rule="evenodd" stroke="none"/>
    <path d="M10.3 -7.5 L13.55 -5.25 Q14.05 -3.65 14.15 -1.9 14.35 1.2 13.5 4.6 L13.05 6.25 Q10.1 7.85 7.15 7.3 L4.3 6.15 5.55 9.15 -5.05 9.15 -3.8 6.15 -6.65 7.3 Q-9.65 7.85 -12.6 6.2 L-13.05 4.6 Q-13.85 1.2 -13.65 -1.9 -13.55 -3.65 -13.05 -5.25 L-9.8 -7.5 Q-5.95 -9.9 -2.35 -6.6 -0.8 -5.1 0.25 -3.3 1.3 -5.1 2.85 -6.6 6.45 -9.9 10.3 -7.5" fill="#aa4994" fill-rule="evenodd" stroke="none"/>
    <path d="M-12.0 0.95 L-3.9 0.95 -3.9 2.6 -12.0 2.6 -12.0 0.95" fill="#45134f" fill-rule="evenodd" stroke="none"/>
    <path d="M4.15 0.95 L12.25 0.95 12.25 2.6 4.15 2.6 4.15 0.95" fill="#45134f" fill-rule="evenodd" stroke="none"/>
    <path d="M3.65 7.25 L4.55 9.15 3.65 9.15 3.65 7.25 M0.55 5.1 Q1.9 5.2 2.95 6.35 L2.95 9.15 0.55 9.15 0.55 5.1 M-2.5 6.25 Q-1.45 5.2 -0.15 5.1 L-0.15 9.15 -2.5 9.15 -2.5 6.25 M-3.2 9.15 L-4.15 9.15 -3.2 7.15 -3.2 9.15" fill="#e2dbcc" fill-rule="evenodd" stroke="none"/>
    <path d="M4.4 -10.45 Q4.65 -9.15 2.85 -7.9 1.0 -6.55 -1.85 -6.0 -4.65 -5.4 -6.8 -5.9 -9.0 -6.3 -9.25 -7.6 -9.55 -8.9 -7.75 -10.3 -5.9 -11.55 -3.1 -12.15 L1.9 -12.3 Q4.1 -11.75 4.4 -10.45" fill="#ffff99" fill-opacity="0.3019608" fill-rule="evenodd" stroke="none"/>
  </g>
</svg>
