<?xml version="1.0" encoding="UTF-8" standalone="no"?>
<svg xmlns:xlink="http://www.w3.org/1999/xlink" height="67.55px" width="76.0px" xmlns="http://www.w3.org/2000/svg">
  <g transform="matrix(1.0, 0.0, 0.0, 1.0, 39.3, 77.45)">
    <path d="M-4.2 -59.7 L-7.35 -57.5 -0.85 -58.0 Q6.75 -58.0 12.65 -55.6 19.55 -52.7 23.05 -47.0 26.45 -41.3 26.95 -34.1 27.25 -30.2 26.65 -26.0 29.55 -27.2 32.25 -25.3 35.65 -23.0 34.35 -18.9 33.25 -15.7 30.45 -13.3 28.55 -11.7 25.05 -11.9 L22.75 -12.2 22.65 -12.2 22.55 -12.0 -24.25 -12.0 -24.45 -12.4 -25.35 -12.2 -27.65 -11.9 Q-31.15 -11.7 -33.05 -13.3 -35.85 -15.7 -36.95 -18.9 -38.25 -23.0 -34.85 -25.3 -31.75 -27.4 -28.45 -25.7 L-28.25 -25.6 Q-28.95 -30.0 -28.65 -34.1 -28.15 -41.3 -24.75 -47.0 -21.35 -52.7 -14.35 -55.6 -12.05 -56.6 -9.45 -57.1 -11.25 -57.9 -12.45 -59.5 L-8.7 -59.6 -8.35 -57.6 Q-8.5 -58.65 -8.3 -59.6 L-4.2 -59.7" fill="#9e8b49" fill-rule="evenodd" stroke="none"/>
    <path d="M-12.45 -59.5 L-20.7 -59.3 Q-21.35 -62.0 -21.45 -64.75 L-21.55 -67.5 Q-21.8 -69.6 -21.05 -72.05 -20.0 -75.7 -15.6 -76.7 L-7.05 -77.4 Q-2.95 -77.1 -1.45 -75.6 -0.85 -75.0 -0.3 -73.8 L0.05 -72.7 2.2 -72.55 Q4.75 -72.15 5.85 -70.8 L8.75 -66.1 Q10.6 -62.7 11.05 -60.15 L-4.2 -59.7 -8.3 -59.6 -8.7 -59.6 -12.45 -59.5" fill="#00ff00" fill-rule="evenodd" stroke="none"/>
    <path d="M-4.2 -59.7 L-7.35 -57.5 -0.85 -58.0 Q6.75 -58.0 12.65 -55.6 19.55 -52.7 23.05 -47.0 26.45 -41.3 26.95 -34.1 27.25 -30.2 26.65 -26.0 29.55 -27.2 32.25 -25.3 35.65 -23.0 34.35 -18.9 33.25 -15.7 30.45 -13.3 28.55 -11.7 25.05 -11.9 L22.75 -12.2 22.65 -12.2 22.55 -12.0 -24.25 -12.0 -24.45 -12.4 -25.35 -12.2 -27.65 -11.9 Q-31.15 -11.7 -33.05 -13.3 -35.85 -15.7 -36.95 -18.9 -38.25 -23.0 -34.85 -25.3 -31.75 -27.4 -28.45 -25.7 L-28.25 -25.6 Q-28.95 -30.0 -28.65 -34.1 -28.15 -41.3 -24.75 -47.0 -21.35 -52.7 -14.35 -55.6 -12.05 -56.6 -9.45 -57.1 -11.25 -57.9 -12.45 -59.5 M-8.3 -59.6 Q-8.5 -58.65 -8.35 -57.6 L-8.7 -59.6" fill="none" stroke="#385123" stroke-linecap="round" stroke-linejoin="round" stroke-width="4.0"/>
  </g>
</svg>
