<?xml version="1.0" encoding="UTF-8" standalone="no"?>
<svg xmlns:xlink="http://www.w3.org/1999/xlink" height="36.4px" width="35.85px" xmlns="http://www.w3.org/2000/svg">
  <g transform="matrix(1.0, 0.0, 0.0, 1.0, 17.95, 17.75)">
    <path d="M1.8 16.65 L-15.95 1.5 -5.15 -15.75 5.15 -15.75 15.9 -8.85 9.8 -6.45 14.4 0.65 11.0 4.3 1.6 6.95 1.8 16.65" fill="#5a5029" fill-rule="evenodd" stroke="none"/>
    <path d="M1.8 16.65 L1.6 6.95 11.0 4.3 14.4 0.65 9.8 -6.45 15.9 -8.85 5.15 -15.75 -5.15 -15.75 -15.95 1.5 1.8 16.65 Z" fill="none" stroke="#5a5029" stroke-linecap="round" stroke-linejoin="round" stroke-width="4.0"/>
    <path d="M1.8 16.65 L-15.95 1.5 -5.15 -15.75 5.15 -15.75 15.9 -8.85 9.8 -6.45 14.4 0.65 11.0 4.3 1.6 6.95 1.8 16.65" fill="#806509" fill-rule="evenodd" stroke="none"/>
    <path d="M-0.05 3.7 L-11.95 4.9 -15.95 1.5 -1.6 -0.3 5.1 -15.75 5.15 -15.75 15.9 -8.85 11.45 -7.1 Q8.95 -8.45 6.4 -9.85 L-0.05 3.7" fill="#af8a0b" fill-rule="evenodd" stroke="none"/>
    <path d="M-1.6 -0.3 L-15.95 1.5 -5.15 -15.75 5.1 -15.75 -1.6 -0.3" fill="#d1a40b" fill-rule="evenodd" stroke="none"/>
    <path d="M5.1 -15.75 L2.45 -9.6 -9.0 -9.6 -5.15 -15.75 5.1 -15.75" fill="#78a050" fill-rule="evenodd" stroke="none"/>
    <path d="M-1.1 -15.1 L-1.35 -14.9 -1.55 -15.0 -1.85 -15.95 -1.75 -15.75 -1.15 -15.75 -1.1 -15.1 M-1.9 -13.25 L-1.95 -12.95 -2.35 -12.85 -2.6 -12.9 -2.75 -13.75 -3.0 -14.6 -3.15 -16.2 -3.15 -16.65 -3.1 -15.75 -2.3 -15.75 -2.25 -15.2 Q-1.9 -13.75 -1.9 -13.25 M-9.0 -9.6 L-7.9 -11.4 3.2 -11.4 2.45 -9.6 -9.0 -9.6" fill="#5a5029" fill-rule="evenodd" stroke="none"/>
    <path d="M-9.2 -8.0 L-8.45 -8.8 -7.35 -9.1 -1.25 -8.85 Q-0.65 -8.85 -0.1 -8.4 L0.6 -7.4 0.55 -6.15 -0.45 -3.45 0.25 -3.5 -0.2 -3.45 -1.6 -0.3 -4.75 0.1 Q-5.1 -0.25 -5.25 -0.75 L-5.2 -2.0 -4.15 -4.95 -6.25 -5.05 -8.65 -0.35 -9.35 0.4 -10.35 0.7 -15.6 0.95 -13.0 -3.15 -11.7 -3.25 -9.2 -8.0" fill="#5a5632" fill-rule="evenodd" stroke="none"/>
    <path d="M-8.35 -7.55 L-7.95 -7.95 -7.4 -8.1 -1.3 -7.85 -0.7 -7.65 -0.4 -7.1 -0.4 -6.5 -1.85 -2.4 -0.65 -2.45 -1.55 -0.4 -3.3 -0.35 -3.9 -0.5 Q-4.2 -0.7 -4.3 -1.05 L-4.3 -1.7 -2.75 -5.9 -6.85 -6.05 -9.55 -0.85 -9.9 -0.45 -10.4 -0.3 -14.95 -0.05 -13.65 -2.15 -11.05 -2.25 -8.35 -7.55" fill="#e05f3b" fill-rule="evenodd" stroke="none"/>
    <path d="M-0.05 3.7 L-6.6 4.4 2.3 12.4 1.7 11.9 1.8 16.65 -15.95 1.5 -1.6 -0.3 5.1 -15.75 5.15 -15.75 15.9 -8.85 11.45 -7.1 Q8.95 -8.45 6.4 -9.85 L-0.05 3.7" fill="#af8a0b" fill-rule="evenodd" stroke="none"/>
  </g>
</svg>
