<?xml version="1.0" encoding="UTF-8" standalone="no"?>
<svg xmlns:xlink="http://www.w3.org/1999/xlink" height="143.45px" width="85.5px" xmlns="http://www.w3.org/2000/svg">
  <g transform="matrix(1.0, 0.0, 0.0, 1.0, -24.3, -25.1)">
    <path d="M77.3 28.1 L106.8 28.1 106.8 160.3 92.05 153.9 77.3 160.3 77.3 28.1" fill="#de3737" fill-rule="evenodd" stroke="none"/>
    <path d="M77.3 28.1 L106.8 28.1 106.8 160.3 92.05 153.9 77.3 160.3 77.3 28.1 Z" fill="none" stroke="#00111d" stroke-linecap="round" stroke-linejoin="round" stroke-width="6.0"/>
    <path d="M77.3 28.1 L106.8 28.1 106.8 160.3 92.05 153.9 77.3 160.3 77.3 28.1" fill="url(#gradient0)" fill-rule="evenodd" stroke="none"/>
    <path d="M106.8 160.3 L92.05 153.95 Q84.7 157.1 77.3 160.3 L77.3 152.1 Q84.7 148.95 92.05 145.75 L106.8 152.1 106.8 160.3" fill="#41b3ff" fill-rule="evenodd" stroke="none"/>
    <path d="M27.3 33.35 L56.8 33.35 56.8 165.55 42.05 159.15 27.3 165.55 27.3 33.35" fill="#de3737" fill-rule="evenodd" stroke="none"/>
    <path d="M27.3 33.35 L56.8 33.35 56.8 165.55 42.05 159.15 27.3 165.55 27.3 33.35 Z" fill="none" stroke="#00111d" stroke-linecap="round" stroke-linejoin="round" stroke-width="6.0"/>
    <path d="M27.3 33.35 L56.8 33.35 56.8 165.55 42.05 159.15 27.3 165.55 27.3 33.35" fill="url(#gradient1)" fill-rule="evenodd" stroke="none"/>
    <path d="M56.8 165.55 L42.05 159.2 27.3 165.55 27.3 157.35 42.05 151.0 56.8 157.35 56.8 165.55" fill="#41b3ff" fill-rule="evenodd" stroke="none"/>
  </g>
  <defs>
    <linearGradient gradientTransform="matrix(0.0, 0.0977, -0.0914, 0.0, 101.8, -10.05)" gradientUnits="userSpaceOnUse" id="gradient0" spreadMethod="pad" x1="-819.2" x2="819.2">
      <stop offset="0.0" stop-color="#00111d"/>
      <stop offset="1.0" stop-color="#003558"/>
    </linearGradient>
    <linearGradient gradientTransform="matrix(0.0, 0.0977, -0.0914, 0.0, 51.8, -4.8)" gradientUnits="userSpaceOnUse" id="gradient1" spreadMethod="pad" x1="-819.2" x2="819.2">
      <stop offset="0.0" stop-color="#00111d"/>
      <stop offset="1.0" stop-color="#003558"/>
    </linearGradient>
  </defs>
</svg>
