<?xml version="1.0" encoding="UTF-8" standalone="no"?>
<svg xmlns:xlink="http://www.w3.org/1999/xlink" height="69.8px" width="83.75px" xmlns="http://www.w3.org/2000/svg">
  <g transform="matrix(1.0, 0.0, 0.0, 1.0, 41.85, 34.65)">
    <path d="M-31.85 -31.85 L31.9 -31.85 39.9 -25.2 -39.85 -25.2 -31.85 -31.85" fill="#5e7e34" fill-rule="evenodd" stroke="none"/>
    <path d="M-31.85 -31.85 L31.9 -31.85 39.9 -25.2 -39.85 -25.2 -31.85 -31.85 Z" fill="none" stroke="#45134f" stroke-linecap="round" stroke-linejoin="round" stroke-width="4.0"/>
    <path d="M-39.85 33.15 L-39.85 -25.15 39.9 -25.15 39.9 33.15 -39.85 33.15" fill="#45134f" fill-rule="evenodd" stroke="none"/>
    <path d="M-39.85 33.15 L-39.85 -25.15 39.9 -25.15 39.9 33.15 -39.85 33.15 Z" fill="none" stroke="#45134f" stroke-linecap="round" stroke-linejoin="round" stroke-width="4.0"/>
    <path d="M-31.85 -31.85 L31.9 -31.85 39.9 -25.2 -39.85 -25.2 -31.85 -31.85" fill="#8c2975" fill-rule="evenodd" stroke="none"/>
    <path d="M39.9 27.45 L-39.85 27.45 -39.85 -1.5 39.9 -1.5 39.9 27.45" fill="#aa4994" fill-rule="evenodd" stroke="none"/>
    <path d="M-39.85 28.8 L39.9 28.8 39.9 33.15 -39.85 33.15 -39.85 28.8" fill="#6e1e7e" fill-rule="evenodd" stroke="none"/>
    <path d="M-39.85 -19.65 L39.9 -19.65 39.9 -2.8 -39.85 -2.8 -39.85 -19.65" fill="#aa4994" fill-rule="evenodd" stroke="none"/>
    <path d="M-39.85 -25.2 L39.9 -25.2 39.9 -20.85 -39.85 -20.85 -39.85 -25.2" fill="#6e1e7e" fill-rule="evenodd" stroke="none"/>
    <path d="M1.55 16.75 Q1.55 16.15 2.0 15.7 2.45 15.25 3.1 15.25 L10.3 15.2 Q10.95 15.2 11.4 15.65 11.8 16.15 11.8 16.7 L11.85 23.85 11.4 24.9 10.35 25.35 6.75 25.4 Q6.15 25.4 5.7 24.95 5.2 24.45 5.2 23.9 L5.2 20.35 Q5.2 19.7 5.65 19.25 6.1 18.8 6.7 18.8 7.35 18.8 7.8 19.25 8.25 19.7 8.25 20.35 L8.3 22.3 8.8 22.3 8.8 18.3 4.6 18.3 4.6 27.5 1.55 27.5 1.55 16.75" fill="#45134f" fill-rule="evenodd" stroke="none"/>
    <path d="M-2.65 16.75 L-2.65 27.5 -5.75 27.5 -5.75 18.3 -9.9 18.3 -9.9 22.3 -9.4 22.3 -9.35 20.35 Q-9.35 19.7 -8.9 19.25 -8.45 18.8 -7.85 18.8 -7.2 18.8 -6.75 19.25 -6.3 19.7 -6.3 20.35 L-6.3 23.9 Q-6.3 24.45 -6.8 24.95 -7.25 25.4 -7.9 25.4 L-11.45 25.35 Q-12.1 25.35 -12.55 24.9 L-13.0 23.85 -12.95 16.7 Q-12.95 16.15 -12.55 15.65 L-12.5 15.65 Q-12.05 15.2 -11.4 15.2 L-4.2 15.25 Q-3.6 15.25 -3.15 15.7 -2.65 16.15 -2.65 16.75" fill="#45134f" fill-rule="evenodd" stroke="none"/>
    <path d="M2.55 16.75 L2.75 16.4 Q2.85 16.25 3.1 16.25 L10.3 16.25 10.65 16.35 10.8 16.7 10.85 23.85 10.65 24.2 10.3 24.35 6.75 24.4 6.4 24.2 6.25 23.85 6.2 20.35 Q6.2 20.1 6.35 20.0 6.5 19.8 6.7 19.8 L7.1 20.0 7.2 20.35 7.25 23.35 9.8 23.3 9.8 17.25 3.6 17.25 3.6 27.5 2.55 27.5 2.55 16.75" fill="#8dd234" fill-rule="evenodd" stroke="none"/>
    <path d="M-3.65 16.75 L-3.65 27.5 -4.7 27.5 -4.7 17.25 -10.9 17.25 -10.9 23.3 -8.35 23.35 -8.35 20.35 -8.2 20.0 -7.85 19.8 -7.45 20.0 Q-7.3 20.1 -7.3 20.35 L-7.35 23.85 -7.5 24.2 Q-7.65 24.4 -7.9 24.4 L-11.4 24.35 -11.75 24.2 -11.95 23.85 -11.9 16.7 -11.75 16.35 -11.4 16.25 -4.2 16.25 Q-4.0 16.25 -3.85 16.4 L-3.65 16.75" fill="#8dd234" fill-rule="evenodd" stroke="none"/>
    <path d="M-16.65 26.2 L-39.85 26.2 -39.85 22.1 -18.95 22.1 -18.9 9.15 -31.05 9.1 -31.15 15.8 -27.3 15.85 -27.25 12.7 Q-27.25 11.65 -26.45 11.1 L-26.5 11.15 Q-25.9 10.6 -25.0 10.6 -24.1 10.6 -23.4 11.2 -22.75 11.8 -22.75 12.7 L-22.85 18.0 Q-22.85 18.8 -23.5 19.4 L-23.6 19.5 -23.6 19.55 -25.05 20.0 -33.45 19.95 Q-34.3 19.95 -34.95 19.3 -35.65 18.7 -35.65 17.85 L-35.55 7.05 Q-35.55 6.2 -34.9 5.55 -34.2 5.0 -33.3 5.0 L-16.65 5.0 Q-15.75 5.0 -15.05 5.65 -14.35 6.3 -14.35 7.1 L-14.4 24.15 Q-14.4 24.95 -15.1 25.6 -15.75 26.2 -16.65 26.2" fill="#45134f" fill-rule="evenodd" stroke="none"/>
    <path d="M21.1 -13.6 L21.1 -13.45 21.9 -13.6 21.1 -13.6 M34.55 -5.45 Q33.75 -5.45 33.15 -6.05 32.55 -6.6 32.55 -7.45 L32.55 -13.6 31.55 -13.6 31.55 -7.45 Q31.55 -6.6 30.9 -6.05 30.3 -5.45 29.5 -5.45 L19.1 -5.45 Q18.25 -5.45 17.7 -6.05 17.05 -6.6 17.05 -7.45 L17.05 -15.6 Q17.05 -16.45 17.7 -17.0 18.25 -17.65 19.1 -17.65 L24.35 -17.65 Q25.15 -17.65 25.8 -17.0 26.4 -16.45 26.4 -15.6 L26.4 -11.6 Q26.4 -10.85 25.8 -10.2 25.15 -9.6 24.35 -9.6 L22.0 -9.6 21.1 -9.8 21.1 -9.45 27.5 -9.45 27.5 -15.6 Q27.5 -16.45 28.1 -17.0 28.7 -17.65 29.5 -17.65 L34.55 -17.65 Q35.4 -17.65 35.95 -17.0 36.55 -16.45 36.55 -15.6 L36.55 -9.45 39.9 -9.45 39.9 -5.45 34.55 -5.45" fill="#45134f" fill-rule="evenodd" stroke="none"/>
    <path d="M-35.65 -5.45 L-39.85 -5.45 -39.85 -9.45 -37.6 -9.45 -37.6 -15.6 Q-37.6 -16.45 -37.05 -17.0 -36.45 -17.65 -35.65 -17.65 L-30.6 -17.65 Q-29.75 -17.65 -29.2 -17.0 -28.55 -16.45 -28.55 -15.6 L-28.55 -9.45 -22.15 -9.45 -22.15 -9.8 -23.05 -9.6 -25.45 -9.6 Q-26.25 -9.6 -26.85 -10.2 -27.45 -10.85 -27.45 -11.6 L-27.45 -15.6 Q-27.45 -16.45 -26.85 -17.0 -26.25 -17.65 -25.45 -17.65 L-20.15 -17.65 Q-19.35 -17.65 -18.75 -17.0 -18.15 -16.45 -18.15 -15.6 L-18.15 -7.45 Q-18.15 -6.6 -18.75 -6.05 -19.35 -5.45 -20.15 -5.45 L-30.6 -5.45 Q-31.4 -5.45 -31.95 -6.05 -32.6 -6.6 -32.6 -7.45 L-32.6 -13.6 -33.6 -13.6 -33.6 -7.45 Q-33.6 -6.6 -34.2 -6.05 -34.85 -5.45 -35.65 -5.45 M-22.15 -13.6 L-22.95 -13.6 -22.15 -13.45 -22.15 -13.6" fill="#45134f" fill-rule="evenodd" stroke="none"/>
    <path d="M27.4 -0.7 Q28.2 -0.7 28.75 -0.2 L29.2 0.4 29.65 -0.2 Q30.15 -0.7 30.95 -0.7 L32.65 -0.7 Q33.45 -0.7 34.0 -0.2 34.55 0.3 34.55 1.0 L34.55 2.6 Q34.55 3.3 34.05 3.8 L34.0 3.85 32.65 4.3 30.95 4.3 Q30.15 4.3 29.65 3.8 L29.2 3.2 28.8 3.8 28.75 3.85 27.4 4.3 25.7 4.3 Q24.9 4.3 24.4 3.8 L23.95 3.2 23.55 3.8 23.5 3.85 22.15 4.3 20.45 4.3 Q19.65 4.3 19.15 3.8 L18.7 3.2 18.3 3.8 18.25 3.85 16.9 4.3 15.2 4.3 Q14.4 4.3 13.9 3.8 13.3 3.3 13.3 2.6 L13.3 1.0 Q13.3 0.3 13.9 -0.2 14.4 -0.7 15.2 -0.7 L16.9 -0.7 Q17.7 -0.7 18.25 -0.2 L18.7 0.4 Q18.85 0.05 19.15 -0.2 19.65 -0.7 20.45 -0.7 L22.15 -0.7 Q22.95 -0.7 23.5 -0.2 L23.95 0.4 24.4 -0.2 Q24.9 -0.7 25.7 -0.7 L27.4 -0.7" fill="#45134f" fill-rule="evenodd" stroke="none"/>
    <path d="M-18.7 -32.05 L-18.9 -32.0 -18.95 -31.85 -18.6 -31.25 -18.0 -30.65 -17.2 -30.65 -16.9 -31.15 -17.5 -31.9 -18.7 -32.05 M-21.9 -32.55 L-22.25 -32.3 -18.6 -28.45 -18.3 -28.55 -19.4 -30.5 -20.6 -32.0 -21.4 -32.05 -21.6 -32.2 -21.9 -32.55 M-17.35 -31.2 L-17.35 -31.05 Q-18.15 -31.05 -18.4 -31.5 L-18.4 -31.6 -17.65 -31.55 -17.35 -31.2 M-28.3 -27.85 L-28.25 -27.75 -27.05 -29.15 -27.15 -29.35 -27.85 -28.65 -28.3 -27.85 M-25.7 -29.2 L-25.95 -28.55 -26.05 -28.55 -25.9 -28.95 -25.7 -29.2 M-26.45 -29.4 Q-26.3 -29.3 -26.4 -28.65 -26.45 -28.15 -26.0 -28.15 -25.6 -28.15 -25.45 -28.6 L-25.35 -29.1 Q-25.35 -30.1 -26.45 -29.4 M-34.85 -25.05 L-34.25 -23.5 -33.3 -21.8 Q-33.1 -21.9 -33.1 -22.4 L-33.4 -23.65 -33.65 -24.9 Q-33.65 -25.35 -31.15 -27.0 L-29.55 -27.85 Q-28.75 -28.3 -28.6 -28.8 -29.45 -28.65 -30.3 -28.1 L-31.9 -27.15 Q-34.85 -25.6 -34.85 -25.05 M-35.0 -26.85 L-36.25 -26.2 -37.35 -25.25 Q-36.8 -23.2 -36.35 -22.9 L-36.3 -23.6 -36.6 -25.35 -34.9 -26.7 -35.0 -26.85 M-38.7 -20.2 L-39.25 -20.2 -39.3 -19.95 Q-39.3 -19.6 -38.1 -18.35 -37.5 -16.95 -36.95 -16.95 L-36.75 -17.0 -36.65 -17.2 Q-36.65 -17.75 -38.7 -20.2 M-38.7 -2.15 L-38.85 -2.0 -38.8 -1.9 -39.9 -2.35 -39.9 -2.0 -39.2 -1.3 -38.0 -0.3 -37.8 -0.6 Q-37.8 -1.0 -38.15 -1.35 L-37.9 -1.25 -36.95 -0.5 -36.2 0.3 -35.35 0.9 -35.15 0.85 -35.1 0.65 -37.45 -2.0 -37.6 -1.9 -37.7 -1.8 -38.05 -1.95 -38.7 -2.15 M-13.0 -6.35 L-13.35 -6.0 -13.35 -5.7 -14.95 -6.75 -12.75 -4.7 Q-11.4 -3.65 -10.85 -3.6 L-10.8 -3.75 -11.75 -4.6 -11.35 -4.6 -11.25 -4.85 -11.55 -5.6 -11.9 -6.1 -13.0 -6.35 M-15.65 -5.65 L-15.7 -5.5 -14.8 -4.95 -14.0 -4.25 -12.85 -3.8 -11.85 -3.3 -13.45 -4.8 -14.05 -5.2 -14.5 -5.5 Q-15.1 -5.95 -15.65 -5.65 M-37.65 13.0 L-38.75 12.9 -39.8 13.55 -39.9 13.6 -39.9 14.6 -37.65 13.0 M-38.35 17.1 L-36.2 15.35 Q-36.1 14.8 -35.1 13.8 L-33.85 12.55 -35.3 12.95 -37.9 14.35 -39.4 15.15 -39.9 15.45 -39.9 18.35 -38.35 17.1 M32.85 -27.55 Q33.1 -26.8 33.9 -25.95 L34.6 -25.1 34.0 -23.8 33.4 -22.35 33.45 -22.1 33.7 -21.95 Q34.3 -21.95 35.55 -25.25 L34.4 -26.4 32.85 -27.55 M30.55 -27.25 L31.5 -26.05 32.25 -25.3 Q32.25 -24.85 32.55 -24.4 L32.85 -24.4 32.9 -25.05 32.95 -25.2 31.8 -26.45 31.15 -26.9 30.55 -27.25 M19.4 -32.15 L20.3 -31.6 21.0 -31.15 21.3 -31.25 20.4 -32.25 Q19.6 -32.9 19.4 -32.15 M21.05 -32.45 L22.85 -30.9 25.25 -29.65 25.45 -29.7 25.55 -29.95 24.85 -30.8 23.55 -31.85 22.0 -32.9 Q21.05 -33.25 21.05 -32.45 M17.4 -20.65 Q17.4 -20.2 17.7 -20.2 18.2 -20.2 18.2 -20.45 L18.25 -20.3 18.45 -20.35 Q18.7 -21.05 19.45 -21.95 L20.1 -22.9 20.05 -23.1 Q19.15 -23.15 17.4 -20.65 M37.85 13.05 Q37.85 13.35 38.6 14.0 L39.55 14.85 39.85 15.2 39.85 13.55 39.45 13.35 38.55 12.7 Q37.85 12.25 37.85 13.05 M36.55 14.85 L36.5 15.1 Q36.5 15.9 39.65 18.35 L39.85 18.5 39.85 16.4 39.8 16.35 37.95 15.45 Q36.85 14.9 36.55 14.85 M12.35 -6.0 L12.3 -5.8 13.5 -5.1 15.75 -3.95 17.85 -2.95 Q19.15 -2.2 19.45 -2.2 L19.7 -2.5 20.45 -2.3 20.55 -2.45 18.4 -3.5 16.7 -4.15 14.75 -5.35 Q13.6 -6.05 12.35 -6.0 M15.2 -3.45 L15.0 -3.2 Q15.0 -2.95 16.0 -2.55 L17.25 -2.1 17.55 -2.1 16.45 -2.85 15.2 -3.45 M18.7 -20.4 L18.85 -20.3 19.5 -20.7 20.0 -21.55 Q19.7 -21.7 19.2 -21.15 L18.7 -20.4 M27.95 -4.9 L27.9 -4.7 Q27.9 -4.05 31.2 -3.3 L31.35 -3.3 31.3 -3.35 31.45 -3.4 Q29.15 -4.8 27.95 -4.9 M31.15 -4.1 L31.85 -3.3 32.4 -3.3 32.75 -3.8 Q32.75 -4.45 31.95 -4.65 31.15 -4.85 31.15 -4.1 M-1.45 24.7 L-1.45 24.8 1.25 22.1 3.3 19.45 3.25 19.25 3.2 19.2 Q1.35 20.35 -1.45 24.7 M0.1 21.25 Q1.75 20.1 2.95 17.95 2.4 18.0 2.05 18.45 L1.4 19.45 0.1 21.25 M3.35 29.25 L4.7 33.15 5.9 33.15 4.85 31.05 4.25 29.6 Q4.15 29.05 3.75 28.85 3.35 28.6 3.35 29.25 M5.9 30.8 Q5.65 30.9 5.65 31.1 L6.25 32.75 6.45 33.15 7.6 33.15 7.2 32.45 5.9 30.8 M-20.05 28.05 L-20.15 28.1 -20.2 28.25 -17.2 33.15 -16.05 33.15 -17.65 30.65 Q-19.2 28.5 -20.05 28.05 M-21.55 28.4 L-21.65 28.9 Q-21.65 29.7 -20.6 30.75 L-18.55 32.55 Q-21.15 28.7 -21.55 28.4" fill="#45134f" fill-rule="evenodd" stroke="none"/>
    <path d="M-9.6 2.05 Q-9.05 -4.95 -10.75 -11.95 L-1.0 -11.95 -0.1 -11.95 9.65 -11.95 Q7.95 -4.95 8.5 2.05 L-0.1 2.05 -1.0 2.05 -9.6 2.05" fill="#c2421e" fill-rule="evenodd" stroke="none"/>
    <path d="M-9.6 2.05 Q-9.05 -4.95 -10.75 -11.95 L-1.0 -11.95 -0.1 -11.95 9.65 -11.95 Q7.95 -4.95 8.5 2.05 L-0.1 2.05 -1.0 2.05 -9.6 2.05 Z" fill="none" stroke="#45134f" stroke-linecap="round" stroke-linejoin="round" stroke-width="4.0"/>
    <path d="M-28.35 -0.7 Q-29.15 -0.7 -29.7 -0.2 L-30.15 0.4 -30.6 -0.2 Q-31.1 -0.7 -31.9 -0.7 L-33.6 -0.7 Q-34.4 -0.7 -34.95 -0.2 -35.5 0.3 -35.5 1.0 L-35.5 2.6 Q-35.5 3.3 -35.0 3.8 L-34.95 3.85 -33.6 4.3 -31.9 4.3 Q-31.1 4.3 -30.6 3.8 L-30.15 3.2 -29.75 3.8 -29.7 3.85 -28.35 4.3 -26.65 4.3 Q-25.85 4.3 -25.35 3.8 L-24.9 3.2 -24.5 3.8 -24.45 3.85 -23.1 4.3 -21.4 4.3 Q-20.6 4.3 -20.1 3.8 L-19.65 3.2 -19.25 3.8 -19.2 3.85 -17.85 4.3 -16.15 4.3 Q-15.35 4.3 -14.85 3.8 -14.25 3.3 -14.25 2.6 L-14.25 1.0 Q-14.25 0.3 -14.85 -0.2 -15.35 -0.7 -16.15 -0.7 L-17.85 -0.7 Q-18.65 -0.7 -19.2 -0.2 L-19.65 0.4 -20.1 -0.2 Q-20.6 -0.7 -21.4 -0.7 L-23.1 -0.7 Q-23.9 -0.7 -24.45 -0.2 L-24.9 0.4 Q-25.05 0.05 -25.35 -0.2 -25.85 -0.7 -26.65 -0.7 L-28.35 -0.7" fill="#45134f" fill-rule="evenodd" stroke="none"/>
    <path d="M-7.55 10.95 L-9.25 10.95 -9.25 12.55 -7.55 12.55 -7.55 10.95 M-2.3 10.95 L-4.0 10.95 -4.0 12.55 -2.3 12.55 -2.3 10.95 M2.95 10.95 L1.25 10.95 1.25 12.55 2.95 12.55 2.95 10.95 M8.2 10.95 L6.5 10.95 6.5 12.55 8.2 12.55 8.2 10.95" fill="#45134f" fill-rule="evenodd" stroke="none"/>
    <path d="M-7.55 10.95 L-9.25 10.95 -9.25 12.55 -7.55 12.55 -7.55 10.95 M-2.3 10.95 L-4.0 10.95 -4.0 12.55 -2.3 12.55 -2.3 10.95 M2.95 10.95 L1.25 10.95 1.25 12.55 2.95 12.55 2.95 10.95 M8.2 10.95 L6.5 10.95 6.5 12.55 8.2 12.55 8.2 10.95" fill="none" stroke="#45134f" stroke-linecap="round" stroke-linejoin="round" stroke-width="4.0"/>
    <path d="M15.7 26.2 Q14.8 26.2 14.1 25.6 13.45 24.95 13.45 24.15 L13.4 7.1 Q13.4 6.3 14.05 5.65 14.8 5.0 15.7 5.0 L32.35 5.0 Q33.25 5.0 33.9 5.55 34.55 6.2 34.55 7.05 L34.65 17.85 Q34.65 18.7 34.0 19.3 33.3 19.95 32.45 19.95 L24.1 20.0 Q23.25 20.0 22.6 19.55 L22.6 19.5 22.55 19.4 Q21.85 18.8 21.85 18.0 L21.75 12.7 Q21.75 11.8 22.45 11.2 23.1 10.6 24.0 10.6 24.9 10.6 25.55 11.15 L25.5 11.1 Q26.3 11.65 26.3 12.7 L26.35 15.85 30.2 15.8 30.1 9.1 17.9 9.15 17.95 22.1 39.9 22.1 39.9 26.2 15.7 26.2" fill="#45134f" fill-rule="evenodd" stroke="none"/>
    <path d="M15.7 24.8 Q15.4 24.8 15.2 24.6 L14.95 24.15 14.9 7.1 15.15 6.6 15.7 6.4 32.35 6.3 Q32.6 6.3 32.8 6.55 L33.05 7.05 33.2 17.85 32.95 18.35 32.4 18.55 24.1 18.65 23.55 18.45 23.35 17.95 23.3 12.7 23.5 12.2 Q23.75 11.95 24.0 11.95 24.3 11.95 24.55 12.2 L24.75 12.7 24.85 17.25 31.65 17.15 31.55 7.7 16.4 7.8 16.45 23.45 39.9 23.45 39.9 24.8 15.7 24.8" fill="#e05f3b" fill-rule="evenodd" stroke="none"/>
    <path d="M16.9 0.65 L17.2 0.75 17.3 1.0 17.3 2.6 17.2 2.85 16.9 2.95 15.2 2.95 14.95 2.85 14.8 2.6 14.8 1.0 14.95 0.75 15.2 0.65 16.9 0.65 M32.65 0.65 L32.95 0.75 33.05 1.0 33.05 2.6 32.95 2.85 32.65 2.95 30.95 2.95 30.7 2.85 30.55 2.6 30.55 1.0 30.7 0.75 Q30.8 0.65 30.95 0.65 L32.65 0.65 M27.4 0.65 L27.7 0.75 27.8 1.0 27.8 2.6 27.7 2.85 27.4 2.95 25.7 2.95 25.45 2.85 25.3 2.6 25.3 1.0 25.45 0.75 25.7 0.65 27.4 0.65 M22.15 0.65 L22.45 0.75 22.55 1.0 22.55 2.6 22.45 2.85 22.15 2.95 20.45 2.95 20.2 2.85 20.05 2.6 20.05 1.0 20.2 0.75 Q20.3 0.65 20.45 0.65 L22.15 0.65" fill="#2ccaff" fill-rule="evenodd" stroke="none"/>
    <path d="M-16.65 24.8 L-39.85 24.8 -39.85 23.45 -17.4 23.45 -17.35 7.8 -32.55 7.7 -32.65 17.15 -25.85 17.25 -25.75 12.7 -25.5 12.2 Q-25.3 11.95 -25.0 11.95 -24.7 11.95 -24.5 12.2 -24.25 12.4 -24.25 12.7 L-24.3 17.95 -24.55 18.45 Q-24.75 18.65 -25.05 18.65 L-33.4 18.55 -33.95 18.35 -34.15 17.85 -34.05 7.05 -33.8 6.55 Q-33.6 6.3 -33.3 6.3 L-16.65 6.4 -16.1 6.6 -15.9 7.1 -15.95 24.15 -16.15 24.6 -16.65 24.8" fill="#e05f3b" fill-rule="evenodd" stroke="none"/>
    <path d="M-17.85 0.65 L-18.15 0.75 -18.25 1.0 -18.25 2.6 -18.15 2.85 -17.85 2.95 -16.15 2.95 -15.9 2.85 -15.75 2.6 -15.75 1.0 -15.9 0.75 -16.15 0.65 -17.85 0.65 M-33.6 0.65 L-33.9 0.75 -34.0 1.0 -34.0 2.6 -33.9 2.85 -33.6 2.95 -31.9 2.95 -31.65 2.85 -31.5 2.6 -31.5 1.0 -31.65 0.75 -31.9 0.65 -33.6 0.65 M-28.35 0.65 L-28.65 0.75 -28.75 1.0 -28.75 2.6 -28.65 2.85 -28.35 2.95 -26.65 2.95 -26.4 2.85 -26.25 2.6 -26.25 1.0 -26.4 0.75 -26.65 0.65 -28.35 0.65 M-23.1 0.65 L-23.4 0.75 -23.5 1.0 -23.5 2.6 -23.4 2.85 -23.1 2.95 -21.4 2.95 -21.15 2.85 -21.0 2.6 -21.0 1.0 -21.15 0.75 -21.4 0.65 -23.1 0.65" fill="#2ccaff" fill-rule="evenodd" stroke="none"/>
    <path d="M6.5 10.6 L6.2 10.7 6.1 10.95 6.1 12.55 6.2 12.8 6.5 12.9 8.2 12.9 8.45 12.8 8.6 12.55 8.6 10.95 8.45 10.7 8.2 10.6 6.5 10.6 M-9.25 10.6 L-9.55 10.7 -9.65 10.95 -9.65 12.55 -9.55 12.8 -9.25 12.9 -7.55 12.9 -7.3 12.8 -7.15 12.55 -7.15 10.95 -7.3 10.7 -7.55 10.6 -9.25 10.6 M-4.0 10.6 L-4.3 10.7 -4.4 10.95 -4.4 12.55 -4.3 12.8 -4.0 12.9 -2.3 12.9 -2.05 12.8 -1.9 12.55 -1.9 10.95 -2.05 10.7 -2.3 10.6 -4.0 10.6 M1.25 10.6 L0.95 10.7 0.85 10.95 0.85 12.55 0.95 12.8 1.25 12.9 2.95 12.9 3.2 12.8 3.35 12.55 3.35 10.95 3.2 10.7 2.95 10.6 1.25 10.6" fill="#2ccaff" fill-rule="evenodd" stroke="none"/>
    <path d="M34.55 -6.6 Q34.25 -6.6 34.0 -6.9 33.75 -7.1 33.75 -7.45 L33.75 -14.8 30.3 -14.8 30.3 -7.45 30.05 -6.9 Q29.8 -6.6 29.5 -6.6 L19.1 -6.6 Q18.75 -6.6 18.55 -6.9 18.25 -7.1 18.25 -7.45 L18.25 -15.6 Q18.25 -15.95 18.55 -16.15 L19.1 -16.45 24.35 -16.45 24.95 -16.15 25.15 -15.6 25.15 -11.6 24.95 -11.05 24.35 -10.85 22.0 -10.85 Q21.65 -10.85 21.4 -11.05 L21.2 -11.6 21.4 -12.15 22.0 -12.4 23.55 -12.4 23.55 -14.8 19.9 -14.8 19.9 -8.25 28.7 -8.25 28.7 -15.6 28.95 -16.15 29.5 -16.45 34.55 -16.45 35.1 -16.15 35.4 -15.6 35.4 -8.25 39.9 -8.25 39.9 -6.6 34.55 -6.6" fill="#8dd234" fill-rule="evenodd" stroke="none"/>
    <path d="M-35.65 -6.6 L-39.85 -6.6 -39.85 -8.25 -36.45 -8.25 -36.45 -15.6 -36.2 -16.15 -35.65 -16.45 -30.6 -16.45 Q-30.25 -16.45 -30.0 -16.15 L-29.75 -15.6 -29.75 -8.25 -20.95 -8.25 -20.95 -14.8 -24.6 -14.8 -24.6 -12.4 -23.05 -12.4 -22.45 -12.15 -22.25 -11.6 -22.45 -11.05 Q-22.7 -10.85 -23.05 -10.85 L-25.45 -10.85 -26.0 -11.05 -26.25 -11.6 -26.25 -15.6 -26.0 -16.15 -25.45 -16.45 -20.15 -16.45 Q-19.85 -16.45 -19.6 -16.15 L-19.35 -15.6 -19.35 -7.45 Q-19.35 -7.1 -19.6 -6.9 -19.85 -6.6 -20.15 -6.6 L-30.6 -6.6 -31.1 -6.9 Q-31.4 -7.1 -31.4 -7.45 L-31.4 -14.8 -34.85 -14.8 -34.85 -7.45 Q-34.85 -7.1 -35.05 -6.9 -35.35 -6.6 -35.65 -6.6" fill="#8dd234" fill-rule="evenodd" stroke="none"/>
    <path d="M-9.6 2.05 Q-9.05 -4.95 -10.75 -11.95 L-1.0 -11.95 -0.1 -11.95 9.65 -11.95 Q7.95 -4.95 8.5 2.05 L-0.1 2.05 -1.0 2.05 -9.6 2.05" fill="#ff3c3c" fill-rule="evenodd" stroke="none"/>
    <path d="M-6.85 -8.0 L5.8 -8.0 5.8 1.8 -6.85 1.8 -6.85 -8.0" fill="#3bb7e0" fill-rule="evenodd" stroke="none"/>
    <path d="M-6.85 -8.0 L5.8 -8.0 5.8 1.8 -6.85 1.8 -6.85 -8.0 Z" fill="none" stroke="#375d06" stroke-linecap="round" stroke-linejoin="round" stroke-width="4.0"/>
    <path d="M-6.85 -8.0 L5.8 -8.0 5.8 1.8 -6.85 1.8 -6.85 -8.0" fill="#8dd234" fill-rule="evenodd" stroke="none"/>
    <path d="M1.85 -4.0 Q1.85 -2.95 1.1 -2.25 L0.35 -1.7 0.35 1.1 -1.65 1.1 -1.65 -1.7 -2.4 -2.25 Q-3.15 -2.95 -3.15 -4.0 -3.15 -5.05 -2.4 -5.75 -1.65 -6.5 -0.65 -6.5 0.4 -6.5 1.1 -5.75 1.85 -5.05 1.85 -4.0" fill="#375d06" fill-rule="evenodd" stroke="none"/>
    <path d="M5.8 -8.0 L5.8 1.8 3.9 1.8 3.9 -8.0 5.8 -8.0 M-6.85 -8.0 L-4.95 -8.0 -4.95 1.8 -6.85 1.8 -6.85 -8.0" fill="#57930a" fill-rule="evenodd" stroke="none"/>
    <path d="M-1.65 -1.7 L-2.4 -2.25 Q-3.15 -2.95 -3.15 -4.0 L-3.05 -4.65 Q-2.9 -4.0 -2.4 -3.55 L-1.65 -3.0 -1.65 -1.7 M0.35 1.1 L-1.65 1.1 -1.65 -0.2 0.35 -0.2 0.35 1.1 M1.85 -4.0 Q1.85 -2.95 1.1 -2.25 L0.35 -1.7 0.35 -3.0 1.1 -3.55 1.8 -4.65 1.85 -4.0" fill="#57930a" fill-rule="evenodd" stroke="none"/>
    <path d="M10.9 4.85 Q9.75 7.05 8.8 7.85 7.95 8.55 5.25 9.0 L-0.35 9.2 -6.05 9.0 Q-8.8 8.55 -9.6 7.85 -10.6 7.05 -11.7 4.85 L-12.1 4.05 11.3 4.05 10.9 4.85" fill="#45134f" fill-rule="evenodd" stroke="none"/>
    <path d="M10.9 4.85 Q9.75 7.05 8.8 7.85 7.95 8.55 5.25 9.0 L-0.35 9.2 -6.05 9.0 Q-8.8 8.55 -9.6 7.85 -10.6 7.05 -11.7 4.85 L-12.1 4.05 11.3 4.05 10.9 4.85 Z" fill="none" stroke="#45134f" stroke-linecap="round" stroke-linejoin="round" stroke-width="4.0"/>
    <path d="M-20.65 -18.5 L-23.3 -17.8 -23.8 -14.85 -22.3 -13.3 -19.9 -13.55 -18.75 -15.1 -19.05 -17.35 -20.65 -18.5" fill="#ffc412" fill-rule="evenodd" stroke="none"/>
    <path d="M-20.65 -18.5 L-19.05 -17.35 -18.75 -15.1 -19.9 -13.55 -22.3 -13.3 -23.8 -14.85 -23.3 -17.8 -20.65 -18.5 Z" fill="none" stroke="#45134f" stroke-linecap="round" stroke-linejoin="round" stroke-width="4.0"/>
    <path d="M20.05 -19.15 L22.7 -18.45 23.2 -15.5 21.7 -13.95 19.3 -14.2 18.15 -15.75 18.45 -18.0 20.05 -19.15" fill="#ffc412" fill-rule="evenodd" stroke="none"/>
    <path d="M20.05 -19.15 L18.45 -18.0 18.15 -15.75 19.3 -14.2 21.7 -13.95 23.2 -15.5 22.7 -18.45 20.05 -19.15 Z" fill="none" stroke="#45134f" stroke-linecap="round" stroke-linejoin="round" stroke-width="4.0"/>
    <path d="M-13.15 -15.45 L-14.15 -16.15 Q-15.8 -17.0 -17.35 -15.95 -19.05 -14.8 -18.4 -12.75 -17.85 -11.15 -16.45 -9.95 -15.5 -9.15 -13.75 -9.25 L-12.6 -9.4 -12.15 -9.5 -12.8 -15.05 -13.15 -15.45" fill="#8c2975" fill-rule="evenodd" stroke="none"/>
    <path d="M-13.15 -15.45 L-14.15 -16.15 Q-15.8 -17.0 -17.35 -15.95 -19.05 -14.8 -18.4 -12.75 -17.85 -11.15 -16.45 -9.95 -15.5 -9.15 -13.75 -9.25 L-12.6 -9.4 -12.15 -9.5 -12.8 -15.05 -13.15 -15.45 Z" fill="none" stroke="#45134f" stroke-linecap="round" stroke-linejoin="round" stroke-width="4.0"/>
    <path d="M13.0 -16.15 Q14.65 -17.0 16.2 -15.95 17.9 -14.8 17.25 -12.75 16.7 -11.15 15.3 -9.95 14.35 -9.15 12.6 -9.25 L11.45 -9.4 11.0 -9.5 11.65 -15.05 12.0 -15.45 13.0 -16.15" fill="#8c2975" fill-rule="evenodd" stroke="none"/>
    <path d="M13.0 -16.15 Q14.65 -17.0 16.2 -15.95 17.9 -14.8 17.25 -12.75 16.7 -11.15 15.3 -9.95 14.35 -9.15 12.6 -9.25 L11.45 -9.4 11.0 -9.5 11.65 -15.05 12.0 -15.45 13.0 -16.15 Z" fill="none" stroke="#45134f" stroke-linecap="round" stroke-linejoin="round" stroke-width="4.0"/>
    <path d="M13.55 -20.35 Q13.75 -17.25 12.9 -13.85 12.3 -11.45 11.35 -9.3 L-12.05 -9.3 Q-13.05 -11.45 -13.65 -13.85 -14.45 -17.25 -14.25 -20.35 -14.0 -23.95 -12.3 -26.8 -10.6 -29.65 -7.1 -31.1 -4.2 -32.3 -0.35 -32.3 3.45 -32.3 6.4 -31.1 9.85 -29.65 11.6 -26.8 13.3 -23.95 13.55 -20.35" fill="#8c2975" fill-rule="evenodd" stroke="none"/>
    <path d="M13.55 -20.35 Q13.75 -17.25 12.9 -13.85 12.3 -11.45 11.35 -9.3 L-12.05 -9.3 Q-13.05 -11.45 -13.65 -13.85 -14.45 -17.25 -14.25 -20.35 -14.0 -23.95 -12.3 -26.8 -10.6 -29.65 -7.1 -31.1 -4.2 -32.3 -0.35 -32.3 3.45 -32.3 6.4 -31.1 9.85 -29.65 11.6 -26.8 13.3 -23.95 13.55 -20.35 Z" fill="none" stroke="#45134f" stroke-linecap="round" stroke-linejoin="round" stroke-width="4.0"/>
    <path d="M-4.8 -27.95 Q-1.3 -28.4 -9.5 -21.95 L-11.55 -20.1 -13.9 -18.15 -14.65 -18.35 -15.1 -19.3 -14.25 -19.2 -13.65 -19.25 -16.8 -20.4 Q-20.3 -21.85 -22.25 -23.2 -22.0 -22.65 -21.2 -22.05 -20.35 -21.45 -19.1 -21.0 -19.95 -20.75 -21.65 -21.4 L-21.0 -20.85 -19.65 -20.6 -20.0 -18.8 Q-20.45 -16.95 -20.9 -16.85 -21.15 -16.8 -21.75 -17.65 L-22.9 -19.8 Q-24.35 -23.1 -24.35 -25.45 L-24.25 -27.75 -23.75 -29.55 Q-22.9 -31.1 -19.85 -31.75 -17.05 -32.3 -14.35 -31.35 -13.5 -31.05 -12.1 -30.35 L-10.1 -29.45 -10.05 -29.45 -9.95 -29.4 -9.85 -29.35 -9.8 -29.45 -8.85 -29.45 -8.65 -28.95 Q-8.4 -27.9 -6.45 -27.85 L-4.8 -27.95" fill="#8c2975" fill-rule="evenodd" stroke="none"/>
    <path d="M-4.8 -27.95 L-6.45 -27.85 Q-8.4 -27.9 -8.65 -28.95 L-8.85 -29.45 -9.8 -29.45 -9.85 -29.35 -9.95 -29.4 -10.05 -29.45 -10.1 -29.45 -12.1 -30.35 Q-13.5 -31.05 -14.35 -31.35 -17.05 -32.3 -19.85 -31.75 -22.9 -31.1 -23.75 -29.55 L-24.25 -27.75 -24.35 -25.45 Q-24.35 -23.1 -22.9 -19.8 L-21.75 -17.65 Q-21.15 -16.8 -20.9 -16.85 -20.45 -16.95 -20.0 -18.8 L-19.65 -20.6 -21.0 -20.85 -21.65 -21.4 Q-19.95 -20.75 -19.1 -21.0 -20.35 -21.45 -21.2 -22.05 -22.0 -22.65 -22.25 -23.2 -20.3 -21.85 -16.8 -20.4 L-13.65 -19.25 -14.25 -19.2 -15.1 -19.3 -14.65 -18.35 -13.9 -18.15 -11.55 -20.1 -9.5 -21.95 Q-1.3 -28.4 -4.8 -27.95 Z" fill="none" stroke="#45134f" stroke-linecap="round" stroke-linejoin="round" stroke-width="4.0"/>
    <path d="M7.05 -29.6 L7.2 -30.15 8.15 -30.15 8.2 -30.05 8.55 -30.2 8.6 -30.2 10.35 -31.05 12.5 -32.05 17.95 -32.4 Q21.1 -31.8 22.1 -30.25 L22.75 -28.45 23.1 -26.15 Q23.35 -23.8 22.2 -20.5 L21.2 -18.35 Q20.75 -17.45 20.5 -17.55 20.0 -17.65 19.35 -19.5 L18.85 -21.3 20.2 -21.55 20.8 -22.05 Q19.1 -21.4 18.3 -21.7 19.45 -22.15 20.3 -22.75 L21.15 -23.85 Q19.4 -22.5 16.0 -21.1 L13.0 -19.9 13.55 -19.9 14.45 -20.0 Q14.5 -19.3 14.0 -18.95 13.45 -18.65 12.6 -18.95 L10.4 -20.85 8.6 -22.65 7.35 -23.55 6.7 -29.05 7.05 -29.6" fill="#8c2975" fill-rule="evenodd" stroke="none"/>
    <path d="M7.05 -29.6 L7.2 -30.15 8.15 -30.15 8.2 -30.05 8.55 -30.2 8.6 -30.2 10.35 -31.05 12.5 -32.05 17.95 -32.4 Q21.1 -31.8 22.1 -30.25 L22.75 -28.45 23.1 -26.15 Q23.35 -23.8 22.2 -20.5 L21.2 -18.35 Q20.75 -17.45 20.5 -17.55 20.0 -17.65 19.35 -19.5 L18.85 -21.3 20.2 -21.55 20.8 -22.05 Q19.1 -21.4 18.3 -21.7 19.45 -22.15 20.3 -22.75 L21.15 -23.85 Q19.4 -22.5 16.0 -21.1 L13.0 -19.9 13.55 -19.9 14.45 -20.0 Q14.5 -19.3 14.0 -18.95 13.45 -18.65 12.6 -18.95 L10.4 -20.85 8.6 -22.65 7.35 -23.55 6.7 -29.05 7.05 -29.6 Z" fill="none" stroke="#45134f" stroke-linecap="round" stroke-linejoin="round" stroke-width="4.0"/>
    <path d="M10.9 4.85 Q9.75 7.05 8.8 7.85 7.95 8.55 5.25 9.0 L-0.35 9.2 -6.05 9.0 Q-8.8 8.55 -9.6 7.85 -10.6 7.05 -11.7 4.85 L-12.1 4.05 11.3 4.05 10.9 4.85" fill="#6e1e7e" fill-rule="evenodd" stroke="none"/>
    <path d="M6.05 6.85 L-6.85 6.85 -5.7 4.05 4.9 4.05 6.05 6.85" fill="#aa4994" fill-rule="evenodd" stroke="none"/>
    <path d="M2.3 6.8 L-0.1 6.8 -0.1 4.05 2.3 4.05 2.3 6.8 M4.25 6.7 L2.55 6.8 3.0 6.75 3.0 4.05 3.9 4.05 Q4.25 5.2 4.25 6.6 L4.25 6.7 M-5.15 6.7 L-5.15 6.6 Q-5.15 5.2 -4.8 4.05 L-3.85 4.05 -3.85 6.75 -5.15 6.7 M-0.8 6.8 L-3.15 6.8 -3.15 4.05 -0.8 4.05 -0.8 6.8" fill="#e2dbcc" fill-rule="evenodd" stroke="none"/>
    <path d="M-7.1 6.7 L0.55 6.35 8.1 6.95 9.4 7.25 8.8 7.85 Q7.95 8.55 5.25 9.0 L-0.35 9.2 -6.05 9.0 Q-8.8 8.55 -9.6 7.85 L-9.95 7.5 Q-9.3 7.0 -7.1 6.7" fill="#550074" fill-opacity="0.3019608" fill-rule="evenodd" stroke="none"/>
    <path d="M-20.7 -18.55 L-23.35 -17.85 -23.85 -14.9 -22.35 -13.35 -19.95 -13.6 -18.8 -15.15 -19.1 -17.4 -20.7 -18.55" fill="#ffc412" fill-rule="evenodd" stroke="none"/>
    <path d="M-20.7 -15.6 L-22.15 -16.15 -22.95 -13.95 -22.35 -13.35 -21.5 -13.45 -20.7 -15.6" fill="#d78e00" fill-rule="evenodd" stroke="none"/>
    <path d="M-13.2 -15.5 L-14.2 -16.2 Q-15.85 -17.05 -17.4 -16.0 -19.1 -14.85 -18.45 -12.8 -17.9 -11.2 -16.5 -10.0 -15.55 -9.2 -13.8 -9.3 L-12.65 -9.45 -12.2 -9.55 -12.85 -15.1 -13.2 -15.5" fill="#6e1e7e" fill-rule="evenodd" stroke="none"/>
    <path d="M-13.15 -13.9 L-15.5 -13.75 Q-16.7 -12.95 -16.2 -11.45 -15.8 -10.25 -14.8 -9.4 L-14.7 -9.35 -13.75 -9.3 -12.65 -9.45 -12.15 -9.55 -12.65 -13.55 -13.15 -13.9" fill="#aa4994" fill-rule="evenodd" stroke="none"/>
    <path d="M12.95 -16.2 Q14.6 -17.05 16.15 -16.0 17.85 -14.85 17.2 -12.8 16.65 -11.2 15.25 -10.0 14.3 -9.2 12.55 -9.3 L11.4 -9.45 10.95 -9.55 11.6 -15.1 11.95 -15.5 12.95 -16.2" fill="#6e1e7e" fill-rule="evenodd" stroke="none"/>
    <path d="M11.9 -13.9 L14.25 -13.75 Q15.45 -12.95 14.95 -11.45 14.55 -10.25 13.55 -9.4 L13.45 -9.35 12.5 -9.3 11.4 -9.45 10.9 -9.55 11.4 -13.55 11.9 -13.9" fill="#aa4994" fill-rule="evenodd" stroke="none"/>
    <path d="M13.5 -20.4 Q13.7 -17.3 12.85 -13.9 12.25 -11.5 11.3 -9.35 L-12.1 -9.35 Q-13.1 -11.5 -13.7 -13.9 -14.5 -17.3 -14.3 -20.4 -14.05 -24.0 -12.35 -26.85 -10.65 -29.7 -7.15 -31.15 -4.25 -32.35 -0.4 -32.35 3.4 -32.35 6.35 -31.15 9.8 -29.7 11.55 -26.85 13.25 -24.0 13.5 -20.4" fill="#6e1e7e" fill-rule="evenodd" stroke="none"/>
    <path d="M-4.85 -28.0 Q-1.35 -28.45 -9.55 -22.0 L-11.6 -20.15 -13.95 -18.2 -14.7 -18.4 Q-15.15 -18.75 -15.15 -19.35 L-14.3 -19.25 -13.7 -19.3 -16.85 -20.45 Q-20.35 -21.9 -22.3 -23.25 -22.05 -22.7 -21.25 -22.1 -20.4 -21.5 -19.15 -21.05 -20.0 -20.8 -21.7 -21.45 L-21.05 -20.9 -19.7 -20.65 -20.05 -18.85 Q-20.5 -17.0 -20.95 -16.9 L-21.8 -17.7 -22.95 -19.85 Q-24.4 -23.15 -24.4 -25.5 L-24.3 -27.8 -23.8 -29.6 Q-22.95 -31.15 -19.9 -31.8 L-14.4 -31.4 -12.15 -30.4 -10.15 -29.5 -10.1 -29.5 -10.0 -29.45 -9.9 -29.4 -9.85 -29.5 -8.9 -29.5 -8.7 -29.0 Q-8.45 -27.95 -6.5 -27.9 L-4.85 -28.0" fill="#6e1e7e" fill-rule="evenodd" stroke="none"/>
    <path d="M20.0 -19.2 L22.65 -18.5 23.15 -15.55 21.65 -14.0 19.25 -14.25 18.1 -15.8 18.4 -18.05 20.0 -19.2" fill="#ffc412" fill-rule="evenodd" stroke="none"/>
    <path d="M20.0 -16.25 L21.45 -16.8 22.25 -14.6 21.65 -14.0 20.8 -14.1 20.0 -16.25" fill="#d78e00" fill-rule="evenodd" stroke="none"/>
    <path d="M7.0 -29.65 L7.15 -30.2 8.1 -30.2 8.15 -30.1 8.5 -30.25 8.55 -30.25 10.3 -31.1 12.45 -32.1 Q15.05 -33.05 17.9 -32.45 21.05 -31.85 22.05 -30.3 L22.7 -28.5 23.05 -26.2 Q23.3 -23.85 22.15 -20.55 L21.15 -18.4 Q20.7 -17.5 20.45 -17.6 19.95 -17.7 19.3 -19.55 L18.8 -21.35 20.15 -21.6 20.75 -22.1 Q19.05 -21.45 18.25 -21.75 19.4 -22.2 20.25 -22.8 L21.1 -23.9 Q19.35 -22.55 15.95 -21.15 L12.95 -19.95 13.5 -19.95 14.4 -20.05 Q14.45 -19.35 13.95 -19.0 13.4 -18.7 12.55 -19.0 12.3 -19.1 10.35 -20.9 L8.55 -22.7 7.3 -23.6 6.65 -29.1 7.0 -29.65" fill="#6e1e7e" fill-rule="evenodd" stroke="none"/>
    <path d="M9.65 -26.0 L12.9 -23.75 Q13.4 -22.15 13.5 -20.4 13.7 -17.3 12.85 -13.9 L12.4 -12.25 Q9.45 -10.65 6.5 -11.2 L3.65 -12.35 4.9 -9.35 -5.7 -9.35 -4.45 -12.35 -7.3 -11.2 Q-10.3 -10.65 -13.25 -12.3 L-13.7 -13.9 Q-14.5 -17.3 -14.3 -20.4 -14.2 -22.15 -13.7 -23.75 L-10.45 -26.0 Q-6.6 -28.4 -3.0 -25.1 -1.45 -23.6 -0.4 -21.8 0.65 -23.6 2.2 -25.1 5.8 -28.4 9.65 -26.0" fill="#aa4994" fill-rule="evenodd" stroke="none"/>
    <path d="M-12.65 -17.55 L-4.55 -17.55 -4.55 -15.9 -12.65 -15.9 -12.65 -17.55" fill="#45134f" fill-rule="evenodd" stroke="none"/>
    <path d="M3.5 -17.55 L11.6 -17.55 11.6 -15.9 3.5 -15.9 3.5 -17.55" fill="#45134f" fill-rule="evenodd" stroke="none"/>
    <path d="M3.0 -11.25 L3.9 -9.35 3.0 -9.35 3.0 -11.25 M-0.1 -13.4 Q1.25 -13.3 2.3 -12.15 L2.3 -9.35 -0.1 -9.35 -0.1 -13.4 M-3.15 -12.25 Q-2.1 -13.3 -0.8 -13.4 L-0.8 -9.35 -3.15 -9.35 -3.15 -12.25 M-3.85 -9.35 L-4.8 -9.35 -3.85 -11.35 -3.85 -9.35" fill="#e2dbcc" fill-rule="evenodd" stroke="none"/>
    <path d="M3.75 -28.95 Q4.0 -27.65 2.2 -26.4 0.35 -25.05 -2.5 -24.5 -5.3 -23.9 -7.45 -24.4 -9.65 -24.8 -9.9 -26.1 -10.2 -27.4 -8.4 -28.8 -6.55 -30.05 -3.75 -30.65 L1.25 -30.8 Q3.45 -30.25 3.75 -28.95" fill="#ffff99" fill-opacity="0.3019608" fill-rule="evenodd" stroke="none"/>
  </g>
</svg>
