<?xml version="1.0" encoding="UTF-8" standalone="no"?>
<svg xmlns:xlink="http://www.w3.org/1999/xlink" height="7.3px" width="61.3px" xmlns="http://www.w3.org/2000/svg">
  <g transform="matrix(1.0, 0.0, 0.0, 1.0, 30.75, 4.85)">
    <path d="M21.4 -1.9 L21.6 -2.1 20.9 -2.1 20.9 -2.2 20.9 -2.5 20.95 -2.75 20.95 -3.05 21.05 -3.6 23.95 -3.75 24.1 -3.75 24.2 -3.65 24.25 -3.45 24.35 -2.65 24.35 -2.6 24.4 -2.5 Q24.4 -2.35 24.0 -2.3 L23.25 -2.2 22.85 -1.85 22.85 -1.8 22.85 -1.7 22.95 -1.6 24.05 -1.6 24.05 -1.4 24.1 -1.05 24.1 -0.7 23.0 -0.1 22.95 -0.05 22.95 0.1 22.95 0.25 24.45 0.25 24.45 0.4 24.4 0.65 24.3 0.95 24.2 1.3 24.1 1.4 21.4 1.4 21.4 -1.9 M26.8 -0.3 L26.8 1.05 25.15 1.05 25.15 -3.5 25.2 -3.5 25.5 -3.6 26.0 -3.65 26.8 -3.75 27.2 -3.8 27.45 -3.85 27.6 -3.85 29.2 -3.0 29.2 -2.8 29.05 -1.3 28.95 -1.2 28.75 -1.1 28.55 -0.9 28.6 -0.6 28.95 -0.15 29.3 0.2 29.55 0.7 29.55 0.8 28.2 1.4 28.1 1.4 28.05 1.3 27.75 0.95 27.35 0.35 27.1 -0.05 26.95 -0.15 26.8 -0.3 M16.95 1.25 L17.0 1.25 17.05 0.95 17.3 -0.05 17.55 -1.3 17.6 -1.4 17.65 -1.8 16.55 -1.65 16.75 -3.4 19.35 -3.6 20.2 -3.6 20.35 -3.45 20.1 -2.05 20.05 -1.95 19.2 -1.95 19.05 -1.8 19.05 1.4 17.05 1.4 17.0 1.3 16.95 1.25 M12.55 -1.75 L12.55 -1.65 12.55 -1.4 12.65 -0.75 12.65 -0.65 12.75 -0.4 12.95 -0.3 13.15 -0.2 13.6 0.05 13.75 0.15 13.8 0.15 14.0 -0.05 14.2 -0.35 14.35 -0.55 14.35 -1.75 14.15 -1.9 14.05 -2.0 13.65 -2.3 13.6 -2.35 13.5 -2.35 12.95 -2.05 12.9 -2.0 12.55 -1.75 M11.05 -1.75 L11.0 -1.75 11.0 -1.8 11.05 -1.8 11.2 -2.05 11.5 -2.45 12.65 -3.7 12.7 -3.7 13.05 -3.65 13.85 -3.55 14.2 -3.5 14.75 -3.35 16.0 -1.75 16.05 -1.7 16.05 -1.65 15.85 -1.0 15.5 0.0 15.15 0.55 13.4 1.45 11.8 0.9 11.7 0.8 11.6 0.65 11.55 0.45 11.4 -0.15 11.05 -1.75 M7.0 -1.75 L7.0 -1.65 7.0 -1.4 7.1 -0.75 7.1 -0.65 7.2 -0.4 7.4 -0.3 7.6 -0.2 8.05 0.05 8.2 0.15 8.25 0.15 8.45 -0.05 8.65 -0.35 8.8 -0.55 8.8 -1.75 8.6 -1.9 8.5 -2.0 8.1 -2.3 8.05 -2.35 7.95 -2.35 7.4 -2.05 7.35 -2.0 7.0 -1.75 M5.5 -1.75 L5.45 -1.75 5.45 -1.8 5.5 -1.8 5.65 -2.05 5.95 -2.45 7.1 -3.7 7.15 -3.7 7.5 -3.65 8.3 -3.55 8.65 -3.5 9.2 -3.35 10.45 -1.75 10.5 -1.7 10.5 -1.65 10.3 -1.0 9.95 0.0 9.6 0.55 7.85 1.45 6.25 0.9 6.15 0.8 6.05 0.65 6.0 0.45 5.85 -0.15 5.5 -1.75 M0.75 -3.4 L2.25 -3.7 2.25 -1.65 3.3 -1.65 3.5 -3.6 4.8 -3.6 4.8 1.25 3.1 1.25 3.2 -0.2 3.1 -0.2 2.75 -0.15 2.25 0.05 2.15 0.15 2.15 1.25 2.1 1.25 1.8 1.3 0.5 1.4 0.5 1.25 0.55 0.65 0.55 -0.1 0.65 -1.65 0.65 -2.2 0.7 -2.5 0.7 -2.7 0.75 -3.4 M26.5 -1.75 L26.7 -1.7 26.95 -1.6 27.35 -1.5 27.45 -1.5 27.6 -1.55 27.75 -1.8 27.95 -2.05 27.95 -2.15 27.9 -2.25 27.6 -2.55 27.45 -2.75 27.35 -2.75 26.8 -2.3 26.4 -1.85 26.4 -1.8 26.5 -1.75 26.4 -1.8 26.4 -1.85 26.8 -2.3 27.35 -2.75 27.45 -2.75 27.6 -2.55 27.9 -2.25 27.95 -2.15 27.95 -2.05 27.75 -1.8 27.6 -1.55 27.45 -1.5 27.35 -1.5 26.95 -1.6 26.7 -1.7 26.5 -1.75 M-3.95 -0.05 L-1.7 0.2 -1.7 0.1 -1.7 -0.1 Q-1.75 -0.55 -2.05 -0.55 L-2.55 -0.45 -2.6 -0.45 -2.7 -0.45 -2.9 -0.45 -3.05 -0.45 -3.15 -0.45 -4.0 -1.3 -4.0 -1.45 -3.75 -2.85 -3.75 -3.0 -3.7 -3.05 -3.65 -3.1 -3.55 -3.15 -3.5 -3.15 -3.2 -3.35 -2.9 -3.5 -0.35 -3.7 Q-0.35 -3.0 -0.7 -2.4 L-1.0 -2.4 -1.45 -2.35 -2.2 -2.3 -2.3 -2.3 -2.4 -2.3 -2.55 -2.25 -2.55 -2.15 -2.45 -1.9 -2.15 -1.85 -1.7 -1.8 -1.25 -1.7 -0.95 -1.65 -0.9 -1.65 -0.7 -1.55 -0.6 -1.4 -0.4 -0.95 -0.3 -0.7 -0.25 -0.55 -0.2 -0.35 -0.15 -0.3 -0.15 -0.2 -0.15 -0.1 -0.2 -0.05 -0.85 0.9 -1.05 1.15 -1.15 1.3 -1.2 1.35 -1.3 1.4 -2.05 1.4 -2.3 1.4 -2.65 1.35 -3.25 1.3 -3.6 1.25 -3.65 1.2 -3.7 1.15 -3.8 0.75 -3.95 -0.05 M-11.3 -1.9 L-11.3 -1.8 -11.2 -1.3 -10.95 0.05 -10.8 0.55 -10.55 0.55 -10.4 0.55 -10.1 0.4 -9.9 0.1 -9.75 -0.2 -9.75 -0.3 -10.6 -1.2 -9.85 -2.05 -9.9 -2.15 -10.1 -2.55 -10.3 -2.65 -10.4 -2.65 -10.45 -2.65 -10.8 -2.4 -11.0 -2.25 -11.15 -2.15 -11.25 -2.05 -11.3 -1.9 M-12.3 -3.4 L-11.9 -3.55 -11.55 -3.55 -10.1 -3.7 -9.7 -3.75 -9.5 -3.75 -9.45 -3.7 -9.2 -3.4 -9.0 -3.2 -8.35 -2.4 -8.3 -2.25 -8.35 -2.05 -8.45 -1.95 -9.05 -1.3 -9.1 -1.2 -9.1 -1.15 -8.85 -1.15 -8.75 -1.1 -8.35 -0.65 -8.25 -0.5 -8.05 -0.2 -8.1 -0.15 -8.1 -0.1 -8.2 0.1 -8.25 0.25 -8.35 0.4 -8.55 0.75 -8.8 1.25 -8.85 1.3 -8.95 1.4 -12.3 1.4 -12.3 -3.4 M-17.55 1.15 L-17.6 0.3 -17.6 -0.2 -17.6 -0.55 -17.6 -0.8 -17.6 -1.05 -17.7 -1.55 -17.75 -1.35 -17.9 -0.7 -18.05 -0.1 -18.15 0.5 -18.2 0.75 -18.2 0.9 -18.3 1.15 -18.4 1.25 -19.3 1.25 -19.4 1.15 -19.4 1.05 -19.35 0.35 -19.1 -2.2 -19.05 -3.0 -19.0 -3.4 -18.85 -3.45 -18.6 -3.5 -17.45 -3.7 -17.1 -3.75 -17.05 -3.75 -16.9 -3.55 -16.75 -2.45 -16.7 -1.7 -16.5 -0.65 -16.05 -1.95 -15.35 -3.55 -15.35 -3.6 -13.1 -3.6 -13.1 -3.35 -13.15 -2.6 -13.15 -2.3 -13.15 -1.8 -13.25 -0.4 -13.25 0.25 -13.3 0.7 -13.3 0.9 -13.4 1.25 -14.85 1.25 -14.85 -1.65 -14.9 -1.6 -14.95 -1.5 -15.1 -1.4 -15.15 -1.25 -15.15 -1.15 -15.75 0.15 -16.35 1.4 -16.55 1.4 -16.75 1.35 -17.25 1.3 -17.55 1.15 M-23.45 -1.75 L-23.45 -1.65 -23.45 -1.4 -23.35 -0.75 -23.35 -0.65 -23.25 -0.4 -23.05 -0.3 -22.85 -0.2 -22.4 0.05 -22.25 0.15 -22.2 0.15 -22.0 -0.05 -21.8 -0.35 -21.65 -0.55 -21.65 -1.75 -21.85 -1.9 -21.95 -2.0 -22.35 -2.3 -22.4 -2.35 -22.5 -2.35 -23.05 -2.05 -23.1 -2.0 -23.45 -1.75 M-24.95 -1.75 L-25.0 -1.75 -25.0 -1.8 -24.95 -1.8 -24.8 -2.05 -24.5 -2.45 -23.35 -3.7 -23.3 -3.7 -22.95 -3.65 -22.15 -3.55 -21.8 -3.5 -21.25 -3.35 -20.0 -1.75 -19.95 -1.7 -19.95 -1.65 -20.15 -1.0 -20.5 0.0 -20.85 0.55 -22.6 1.45 -24.2 0.9 -24.3 0.8 -24.4 0.65 -24.45 0.45 -24.6 -0.15 -24.95 -1.75 M-28.75 -1.9 L-28.75 -1.8 -28.65 -1.3 -28.4 0.05 -28.25 0.55 -28.0 0.55 -27.85 0.55 -27.55 0.4 -27.35 0.1 -27.2 -0.2 -27.2 -0.3 -28.05 -1.2 -27.3 -2.05 -27.35 -2.15 -27.55 -2.55 -27.75 -2.65 -27.85 -2.65 -27.9 -2.65 -28.25 -2.4 -28.45 -2.25 -28.6 -2.15 -28.7 -2.05 -28.75 -1.9 M-29.75 -3.4 L-29.35 -3.55 -29.0 -3.55 -27.55 -3.7 -27.15 -3.75 -26.95 -3.75 -26.9 -3.7 -26.65 -3.4 -26.45 -3.2 -25.8 -2.4 -25.75 -2.25 -25.8 -2.05 -25.9 -1.95 -26.5 -1.3 -26.55 -1.2 -26.55 -1.15 -26.3 -1.15 -26.2 -1.1 -25.8 -0.65 -25.7 -0.5 -25.5 -0.2 -25.55 -0.15 -25.55 -0.1 -25.65 0.1 -25.7 0.25 -25.8 0.4 -26.0 0.75 -26.25 1.25 -26.3 1.3 -26.4 1.4 -29.75 1.4 -29.75 -3.4" fill="#ffffff" fill-rule="evenodd" stroke="none"/>
    <path d="M0.75 -3.4 L0.7 -2.7 0.7 -2.5 0.65 -2.2 0.65 -1.65 0.55 -0.1 0.55 0.65 0.5 1.25 0.5 1.4 1.8 1.3 2.1 1.25 2.15 1.25 2.15 0.15 2.25 0.05 2.75 -0.15 3.1 -0.2 3.2 -0.2 3.1 1.25 4.8 1.25 4.8 -3.6 3.5 -3.6 3.3 -1.65 2.25 -1.65 2.25 -3.7 0.75 -3.4 M5.5 -1.75 L5.85 -0.15 6.0 0.45 6.05 0.65 6.15 0.8 6.25 0.9 7.85 1.45 9.6 0.55 9.95 0.0 10.3 -1.0 10.5 -1.65 10.5 -1.7 10.45 -1.75 9.2 -3.35 8.65 -3.5 8.3 -3.55 7.5 -3.65 7.15 -3.7 7.1 -3.7 5.95 -2.45 5.65 -2.05 5.5 -1.8 5.45 -1.8 5.45 -1.75 5.5 -1.75 M7.0 -1.75 L7.35 -2.0 7.4 -2.05 7.95 -2.35 8.05 -2.35 8.1 -2.3 8.5 -2.0 8.6 -1.9 8.8 -1.75 8.8 -0.55 8.65 -0.35 8.45 -0.05 8.25 0.15 8.2 0.15 8.05 0.05 7.6 -0.2 7.4 -0.3 7.2 -0.4 7.1 -0.65 7.1 -0.75 7.0 -1.4 7.0 -1.65 7.0 -1.75 M11.05 -1.75 L11.4 -0.15 11.55 0.45 11.6 0.65 11.7 0.8 11.8 0.9 13.4 1.45 15.15 0.55 15.5 0.0 15.85 -1.0 16.05 -1.65 16.05 -1.7 16.0 -1.75 14.75 -3.35 14.2 -3.5 13.85 -3.55 13.05 -3.65 12.7 -3.7 12.65 -3.7 11.5 -2.45 11.2 -2.05 11.05 -1.8 11.0 -1.8 11.0 -1.75 11.05 -1.75 M12.55 -1.75 L12.9 -2.0 12.95 -2.05 13.5 -2.35 13.6 -2.35 13.65 -2.3 14.05 -2.0 14.15 -1.9 14.35 -1.75 14.35 -0.55 14.2 -0.35 14.0 -0.05 13.8 0.15 13.75 0.15 13.6 0.05 13.15 -0.2 12.95 -0.3 12.75 -0.4 12.65 -0.65 12.65 -0.75 12.55 -1.4 12.55 -1.65 12.55 -1.75 M16.95 1.25 L17.0 1.3 17.05 1.4 19.05 1.4 19.05 -1.8 19.2 -1.95 20.05 -1.95 20.1 -2.05 20.35 -3.45 20.2 -3.6 19.35 -3.6 16.75 -3.4 16.55 -1.65 17.65 -1.8 17.6 -1.4 17.55 -1.3 17.3 -0.05 17.05 0.95 17.0 1.25 16.95 1.25 M26.8 -0.3 L26.95 -0.15 27.1 -0.05 27.35 0.35 27.75 0.95 28.05 1.3 28.1 1.4 28.2 1.4 29.55 0.8 29.55 0.7 29.3 0.2 28.95 -0.15 28.6 -0.6 28.55 -0.9 28.75 -1.1 28.95 -1.2 29.05 -1.3 29.2 -2.8 29.2 -3.0 27.6 -3.85 27.45 -3.85 27.2 -3.8 26.8 -3.75 26.0 -3.65 25.5 -3.6 25.2 -3.5 25.15 -3.5 25.15 1.05 26.8 1.05 26.8 -0.3 M21.4 -1.9 L21.4 1.4 24.1 1.4 24.2 1.3 24.3 0.95 24.4 0.65 24.45 0.4 24.45 0.25 22.95 0.25 22.95 0.1 22.95 -0.05 23.0 -0.1 24.1 -0.7 24.1 -1.05 24.05 -1.4 24.05 -1.6 22.95 -1.6 22.85 -1.7 22.85 -1.8 22.85 -1.85 23.25 -2.2 24.0 -2.3 Q24.4 -2.35 24.4 -2.5 L24.35 -2.6 24.35 -2.65 24.25 -3.45 24.2 -3.65 24.1 -3.75 23.95 -3.75 21.05 -3.6 20.95 -3.05 20.95 -2.75 20.9 -2.5 20.9 -2.2 20.9 -2.1 21.6 -2.1 21.4 -1.9 M26.5 -1.75 L26.4 -1.8 26.4 -1.85 26.8 -2.3 27.35 -2.75 27.45 -2.75 27.6 -2.55 27.9 -2.25 27.95 -2.15 27.95 -2.05 27.75 -1.8 27.6 -1.55 27.45 -1.5 27.35 -1.5 26.95 -1.6 26.7 -1.7 26.5 -1.75 M-29.75 -3.4 L-29.75 1.4 -26.4 1.4 -26.3 1.3 -26.25 1.25 -26.0 0.75 -25.8 0.4 -25.7 0.25 -25.65 0.1 -25.55 -0.1 -25.55 -0.15 -25.5 -0.2 -25.7 -0.5 -25.8 -0.65 -26.2 -1.1 -26.3 -1.15 -26.55 -1.15 -26.55 -1.2 -26.5 -1.3 -25.9 -1.95 -25.8 -2.05 -25.75 -2.25 -25.8 -2.4 -26.45 -3.2 -26.65 -3.4 -26.9 -3.7 -26.95 -3.75 -27.15 -3.75 -27.55 -3.7 -29.0 -3.55 -29.35 -3.55 -29.75 -3.4 M-28.75 -1.9 L-28.7 -2.05 -28.6 -2.15 -28.45 -2.25 -28.25 -2.4 -27.9 -2.65 -27.85 -2.65 -27.75 -2.65 -27.55 -2.55 -27.35 -2.15 -27.3 -2.05 -28.05 -1.2 -27.2 -0.3 -27.2 -0.2 -27.35 0.1 -27.55 0.4 -27.85 0.55 -28.0 0.55 -28.25 0.55 -28.4 0.05 -28.65 -1.3 -28.75 -1.8 -28.75 -1.9 M-24.95 -1.75 L-24.6 -0.15 -24.45 0.45 -24.4 0.65 -24.3 0.8 -24.2 0.9 -22.6 1.45 -20.85 0.55 -20.5 0.0 -20.15 -1.0 -19.95 -1.65 -19.95 -1.7 -20.0 -1.75 -21.25 -3.35 -21.8 -3.5 -22.15 -3.55 -22.95 -3.65 -23.3 -3.7 -23.35 -3.7 -24.5 -2.45 -24.8 -2.05 -24.95 -1.8 -25.0 -1.8 -25.0 -1.75 -24.95 -1.75 M-23.45 -1.75 L-23.1 -2.0 -23.05 -2.05 -22.5 -2.35 -22.4 -2.35 -22.35 -2.3 -21.95 -2.0 -21.85 -1.9 -21.65 -1.75 -21.65 -0.55 -21.8 -0.35 -22.0 -0.05 -22.2 0.15 -22.25 0.15 -22.4 0.05 -22.85 -0.2 -23.05 -0.3 -23.25 -0.4 -23.35 -0.65 -23.35 -0.75 -23.45 -1.4 -23.45 -1.65 -23.45 -1.75 M-17.55 1.15 L-17.25 1.3 -16.75 1.35 -16.55 1.4 -16.35 1.4 -15.75 0.15 -15.15 -1.15 -15.15 -1.25 -15.1 -1.4 -14.95 -1.5 -14.9 -1.6 -14.85 -1.65 -14.85 1.25 -13.4 1.25 -13.3 0.9 -13.3 0.7 -13.25 0.25 -13.25 -0.4 -13.15 -1.8 -13.15 -2.3 -13.15 -2.6 -13.1 -3.35 -13.1 -3.6 -15.35 -3.6 -15.35 -3.55 -16.05 -1.95 -16.5 -0.65 -16.7 -1.7 -16.75 -2.45 -16.9 -3.55 -17.05 -3.75 -17.1 -3.75 -17.45 -3.7 -18.6 -3.5 -18.85 -3.45 -19.0 -3.4 -19.05 -3.0 -19.1 -2.2 -19.35 0.35 -19.4 1.05 -19.4 1.15 -19.3 1.25 -18.4 1.25 -18.3 1.15 -18.2 0.9 -18.2 0.75 -18.15 0.5 -18.05 -0.1 -17.9 -0.7 -17.75 -1.35 -17.7 -1.55 -17.6 -1.05 -17.6 -0.8 -17.6 -0.55 -17.6 -0.2 -17.6 0.3 -17.55 1.15 M-12.3 -3.4 L-12.3 1.4 -8.95 1.4 -8.85 1.3 -8.8 1.25 -8.55 0.75 -8.35 0.4 -8.25 0.25 -8.2 0.1 -8.1 -0.1 -8.1 -0.15 -8.05 -0.2 -8.25 -0.5 -8.35 -0.65 -8.75 -1.1 -8.85 -1.15 -9.1 -1.15 -9.1 -1.2 -9.05 -1.3 -8.45 -1.95 -8.35 -2.05 -8.3 -2.25 -8.35 -2.4 -9.0 -3.2 -9.2 -3.4 -9.45 -3.7 -9.5 -3.75 -9.7 -3.75 -10.1 -3.7 -11.55 -3.55 -11.9 -3.55 -12.3 -3.4 M-11.3 -1.9 L-11.25 -2.05 -11.15 -2.15 -11.0 -2.25 -10.8 -2.4 -10.45 -2.65 -10.4 -2.65 -10.3 -2.65 -10.1 -2.55 -9.9 -2.15 -9.85 -2.05 -10.6 -1.2 -9.75 -0.3 -9.75 -0.2 -9.9 0.1 -10.1 0.4 -10.4 0.55 -10.55 0.55 -10.8 0.55 -10.95 0.05 -11.2 -1.3 -11.3 -1.8 -11.3 -1.9 M-3.95 -0.05 L-3.8 0.75 -3.7 1.15 -3.65 1.2 -3.6 1.25 -3.25 1.3 -2.65 1.35 -2.3 1.4 -2.05 1.4 -1.3 1.4 -1.2 1.35 -1.15 1.3 -1.05 1.15 -0.85 0.9 -0.2 -0.05 -0.15 -0.1 -0.15 -0.2 -0.15 -0.3 -0.2 -0.35 -0.25 -0.55 -0.3 -0.7 -0.4 -0.95 -0.6 -1.4 -0.7 -1.55 -0.9 -1.65 -0.95 -1.65 -1.25 -1.7 -1.7 -1.8 -2.15 -1.85 -2.45 -1.9 -2.55 -2.15 -2.55 -2.25 -2.4 -2.3 -2.3 -2.3 -2.2 -2.3 -1.45 -2.35 -1.0 -2.4 -0.7 -2.4 Q-0.35 -3.0 -0.35 -3.7 L-2.9 -3.5 -3.2 -3.35 -3.5 -3.15 -3.55 -3.15 -3.65 -3.1 -3.7 -3.05 -3.75 -3.0 -3.75 -2.85 -4.0 -1.45 -4.0 -1.3 -3.15 -0.45 -3.05 -0.45 -2.9 -0.45 -2.7 -0.45 -2.6 -0.45 -2.55 -0.45 -2.05 -0.55 Q-1.75 -0.55 -1.7 -0.1 L-1.7 0.1 -1.7 0.2 -3.95 -0.05" fill="none" stroke="#5c522b" stroke-linecap="round" stroke-linejoin="round" stroke-width="2.0"/>
    <path d="M-3.95 -0.05 L-1.7 0.2 -1.7 0.1 -1.7 -0.1 Q-1.75 -0.55 -2.05 -0.55 L-2.55 -0.45 -2.6 -0.45 -2.7 -0.45 -2.9 -0.45 -3.05 -0.45 -3.15 -0.45 -4.0 -1.3 -4.0 -1.45 -3.75 -2.85 -3.75 -3.0 -3.7 -3.05 -3.65 -3.1 -3.55 -3.15 -3.5 -3.15 -3.2 -3.35 -2.9 -3.5 -0.35 -3.7 Q-0.35 -3.0 -0.7 -2.4 L-1.0 -2.4 -1.45 -2.35 -2.2 -2.3 -2.3 -2.3 -2.4 -2.3 -2.55 -2.25 -2.55 -2.15 -2.45 -1.9 -2.15 -1.85 -1.7 -1.8 -1.25 -1.7 -0.95 -1.65 -0.9 -1.65 -0.7 -1.55 -0.6 -1.4 -0.4 -0.95 -0.3 -0.7 -0.25 -0.55 -0.2 -0.35 -0.15 -0.3 -0.15 -0.2 -0.15 -0.1 -0.2 -0.05 -0.85 0.9 -1.05 1.15 -1.15 1.3 -1.2 1.35 -1.3 1.4 -2.05 1.4 -2.3 1.4 -2.65 1.35 -3.25 1.3 -3.6 1.25 -3.65 1.2 -3.7 1.15 -3.8 0.75 -3.95 -0.05 M-11.3 -1.9 L-11.3 -1.8 -11.2 -1.3 -10.95 0.05 -10.8 0.55 -10.55 0.55 -10.4 0.55 -10.1 0.4 -9.9 0.1 -9.75 -0.2 -9.75 -0.3 -10.6 -1.2 -9.85 -2.05 -9.9 -2.15 -10.1 -2.55 -10.3 -2.65 -10.4 -2.65 -10.45 -2.65 -10.8 -2.4 -11.0 -2.25 -11.15 -2.15 -11.25 -2.05 -11.3 -1.9 M-12.3 -3.4 L-11.9 -3.55 -11.55 -3.55 -10.1 -3.7 -9.7 -3.75 -9.5 -3.75 -9.45 -3.7 -9.2 -3.4 -9.0 -3.2 -8.35 -2.4 -8.3 -2.25 -8.35 -2.05 -8.45 -1.95 -9.05 -1.3 -9.1 -1.2 -9.1 -1.15 -8.85 -1.15 -8.75 -1.1 -8.35 -0.65 -8.25 -0.5 -8.05 -0.2 -8.1 -0.15 -8.1 -0.1 -8.2 0.1 -8.25 0.25 -8.35 0.4 -8.55 0.75 -8.8 1.25 -8.85 1.3 -8.95 1.4 -12.3 1.4 -12.3 -3.4 M-17.55 1.15 L-17.6 0.3 -17.6 -0.2 -17.6 -0.55 -17.6 -0.8 -17.6 -1.05 -17.7 -1.55 -17.75 -1.35 -17.9 -0.7 -18.05 -0.1 -18.15 0.5 -18.2 0.75 -18.2 0.9 -18.3 1.15 -18.4 1.25 -19.3 1.25 -19.4 1.15 -19.4 1.05 -19.35 0.35 -19.1 -2.2 -19.05 -3.0 -19.0 -3.4 -18.85 -3.45 -18.6 -3.5 -17.45 -3.7 -17.1 -3.75 -17.05 -3.75 -16.9 -3.55 -16.75 -2.45 -16.7 -1.7 -16.5 -0.65 -16.05 -1.95 -15.35 -3.55 -15.35 -3.6 -13.1 -3.6 -13.1 -3.35 -13.15 -2.6 -13.15 -2.3 -13.15 -1.8 -13.25 -0.4 -13.25 0.25 -13.3 0.7 -13.3 0.9 -13.4 1.25 -14.85 1.25 -14.85 -1.65 -14.9 -1.6 -14.95 -1.5 -15.1 -1.4 -15.15 -1.25 -15.15 -1.15 -15.75 0.15 -16.35 1.4 -16.55 1.4 -16.75 1.35 -17.25 1.3 -17.55 1.15 M-23.45 -1.75 L-23.45 -1.65 -23.45 -1.4 -23.35 -0.75 -23.35 -0.65 -23.25 -0.4 -23.05 -0.3 -22.85 -0.2 -22.4 0.05 -22.25 0.15 -22.2 0.15 -22.0 -0.05 -21.8 -0.35 -21.65 -0.55 -21.65 -1.75 -21.85 -1.9 -21.95 -2.0 -22.35 -2.3 -22.4 -2.35 -22.5 -2.35 -23.05 -2.05 -23.1 -2.0 -23.45 -1.75 M-24.95 -1.75 L-25.0 -1.75 -25.0 -1.8 -24.95 -1.8 -24.8 -2.05 -24.5 -2.45 -23.35 -3.7 -23.3 -3.7 -22.95 -3.65 -22.15 -3.55 -21.8 -3.5 -21.25 -3.35 -20.0 -1.75 -19.95 -1.7 -19.95 -1.65 -20.15 -1.0 -20.5 0.0 -20.85 0.55 -22.6 1.45 -24.2 0.9 -24.3 0.8 -24.4 0.65 -24.45 0.45 -24.6 -0.15 -24.95 -1.75 M-28.75 -1.9 L-28.75 -1.8 -28.65 -1.3 -28.4 0.05 -28.25 0.55 -28.0 0.55 -27.85 0.55 -27.55 0.4 -27.35 0.1 -27.2 -0.2 -27.2 -0.3 -28.05 -1.2 -27.3 -2.05 -27.35 -2.15 -27.55 -2.55 -27.75 -2.65 -27.85 -2.65 -27.9 -2.65 -28.25 -2.4 -28.45 -2.25 -28.6 -2.15 -28.7 -2.05 -28.75 -1.9 M-29.75 -3.4 L-29.35 -3.55 -29.0 -3.55 -27.55 -3.7 -27.15 -3.75 -26.95 -3.75 -26.9 -3.7 -26.65 -3.4 -26.45 -3.2 -25.8 -2.4 -25.75 -2.25 -25.8 -2.05 -25.9 -1.95 -26.5 -1.3 -26.55 -1.2 -26.55 -1.15 -26.3 -1.15 -26.2 -1.1 -25.8 -0.65 -25.7 -0.5 -25.5 -0.2 -25.55 -0.15 -25.55 -0.1 -25.65 0.1 -25.7 0.25 -25.8 0.4 -26.0 0.75 -26.25 1.25 -26.3 1.3 -26.4 1.4 -29.75 1.4 -29.75 -3.4 M26.5 -1.75 L26.7 -1.7 26.95 -1.6 27.35 -1.5 27.45 -1.5 27.6 -1.55 27.75 -1.8 27.95 -2.05 27.95 -2.15 27.9 -2.25 27.6 -2.55 27.45 -2.75 27.35 -2.75 26.8 -2.3 26.4 -1.85 26.4 -1.8 26.5 -1.75 M26.8 -0.3 L26.8 1.05 25.15 1.05 25.15 -3.5 25.2 -3.5 25.5 -3.6 26.0 -3.65 26.8 -3.75 27.2 -3.8 27.45 -3.85 27.6 -3.85 29.2 -3.0 29.2 -2.8 29.05 -1.3 28.95 -1.2 28.75 -1.1 28.55 -0.9 28.6 -0.6 28.95 -0.15 29.3 0.2 29.55 0.7 29.55 0.8 28.2 1.4 28.1 1.4 28.05 1.3 27.75 0.95 27.35 0.35 27.1 -0.05 26.95 -0.15 26.8 -0.3 M21.4 -1.9 L21.6 -2.1 20.9 -2.1 20.9 -2.2 20.9 -2.5 20.95 -2.75 20.95 -3.05 21.05 -3.6 23.95 -3.75 24.1 -3.75 24.2 -3.65 24.25 -3.45 24.35 -2.65 24.35 -2.6 24.4 -2.5 Q24.4 -2.35 24.0 -2.3 L23.25 -2.2 22.85 -1.85 22.85 -1.8 22.85 -1.7 22.95 -1.6 24.05 -1.6 24.05 -1.4 24.1 -1.05 24.1 -0.7 23.0 -0.1 22.95 -0.05 22.95 0.1 22.95 0.25 24.45 0.25 24.45 0.4 24.4 0.65 24.3 0.95 24.2 1.3 24.1 1.4 21.4 1.4 21.4 -1.9 M16.95 1.25 L17.0 1.25 17.05 0.95 17.3 -0.05 17.55 -1.3 17.6 -1.4 17.65 -1.8 16.55 -1.65 16.75 -3.4 19.35 -3.6 20.2 -3.6 20.35 -3.45 20.1 -2.05 20.05 -1.95 19.2 -1.95 19.05 -1.8 19.05 1.4 17.05 1.4 17.0 1.3 16.95 1.25 M12.55 -1.75 L12.55 -1.65 12.55 -1.4 12.65 -0.75 12.65 -0.65 12.75 -0.4 12.95 -0.3 13.15 -0.2 13.6 0.05 13.75 0.15 13.8 0.15 14.0 -0.05 14.2 -0.35 14.35 -0.55 14.35 -1.75 14.15 -1.9 14.05 -2.0 13.65 -2.3 13.6 -2.35 13.5 -2.35 12.95 -2.05 12.9 -2.0 12.55 -1.75 M11.05 -1.75 L11.0 -1.75 11.0 -1.8 11.05 -1.8 11.2 -2.05 11.5 -2.45 12.65 -3.7 12.7 -3.7 13.05 -3.65 13.85 -3.55 14.2 -3.5 14.75 -3.35 16.0 -1.75 16.05 -1.7 16.05 -1.65 15.85 -1.0 15.5 0.0 15.15 0.55 13.4 1.45 11.8 0.9 11.7 0.8 11.6 0.65 11.55 0.45 11.4 -0.15 11.05 -1.75 M7.0 -1.75 L7.0 -1.65 7.0 -1.4 7.1 -0.75 7.1 -0.65 7.2 -0.4 7.4 -0.3 7.6 -0.2 8.05 0.05 8.2 0.15 8.25 0.15 8.45 -0.05 8.65 -0.35 8.8 -0.55 8.8 -1.75 8.6 -1.9 8.5 -2.0 8.1 -2.3 8.05 -2.35 7.95 -2.35 7.4 -2.05 7.35 -2.0 7.0 -1.75 M5.5 -1.75 L5.45 -1.75 5.45 -1.8 5.5 -1.8 5.65 -2.05 5.95 -2.45 7.1 -3.7 7.15 -3.7 7.5 -3.65 8.3 -3.55 8.65 -3.5 9.2 -3.35 10.45 -1.75 10.5 -1.7 10.5 -1.65 10.3 -1.0 9.95 0.0 9.6 0.55 7.85 1.45 6.25 0.9 6.15 0.8 6.05 0.65 6.0 0.45 5.85 -0.15 5.5 -1.75 M0.75 -3.4 L2.25 -3.7 2.25 -1.65 3.3 -1.65 3.5 -3.6 4.8 -3.6 4.8 1.25 3.1 1.25 3.2 -0.2 3.1 -0.2 2.75 -0.15 2.25 0.05 2.15 0.15 2.15 1.25 2.1 1.25 1.8 1.3 0.5 1.4 0.5 1.25 0.55 0.65 0.55 -0.1 0.65 -1.65 0.65 -2.2 0.7 -2.5 0.7 -2.7 0.75 -3.4" fill="#ffffff" fill-rule="evenodd" stroke="none"/>
  </g>
</svg>
