<?xml version="1.0" encoding="UTF-8" standalone="no"?>
<svg xmlns:xlink="http://www.w3.org/1999/xlink" height="7.2px" width="60.3px" xmlns="http://www.w3.org/2000/svg">
  <g transform="matrix(1.0, 0.0, 0.0, 1.0, 30.25, 4.75)">
    <path d="M25.65 0.05 L25.65 -0.05 25.3 -0.4 24.9 -0.65 24.3 -1.3 24.3 -1.4 24.3 -1.5 24.4 -2.0 24.5 -2.4 24.7 -3.35 24.8 -3.55 24.8 -3.6 26.25 -3.6 26.25 -1.4 26.15 -1.2 27.2 -1.5 27.3 -1.65 27.3 -1.75 27.1 -2.4 26.9 -3.1 27.25 -3.35 27.9 -3.6 28.35 -3.7 28.45 -3.7 29.05 -1.55 29.05 -1.45 28.6 -1.0 28.2 -0.75 27.8 -0.45 27.4 -0.05 27.4 1.25 27.35 1.25 26.85 1.3 26.15 1.4 25.45 1.4 25.5 1.3 25.5 1.15 25.55 0.6 25.6 0.25 25.65 0.05 M20.65 -1.9 L20.85 -2.1 20.15 -2.1 20.15 -2.2 20.15 -2.5 20.2 -2.75 20.2 -3.05 20.3 -3.6 23.2 -3.75 23.35 -3.75 23.45 -3.65 23.5 -3.45 23.6 -2.65 23.6 -2.6 23.65 -2.5 Q23.65 -2.35 23.25 -2.3 L22.5 -2.2 Q22.1 -2.1 22.1 -1.85 L22.1 -1.8 22.1 -1.7 22.2 -1.6 23.3 -1.6 23.3 -1.4 23.35 -1.05 23.35 -0.7 22.25 -0.1 22.2 -0.05 22.2 0.1 22.2 0.25 23.7 0.25 23.7 0.4 23.65 0.65 23.55 0.95 23.45 1.3 23.35 1.4 20.65 1.4 20.65 -1.9 M17.95 -0.1 L17.95 -0.2 17.85 -0.3 17.6 -0.45 17.2 -0.65 17.1 -0.65 16.95 -0.45 16.75 -0.3 16.75 -0.1 16.7 0.7 16.65 0.85 16.6 1.15 16.6 1.25 15.35 1.25 15.35 -3.6 16.85 -3.6 16.95 -3.4 16.95 -3.35 16.9 -2.55 16.85 -1.75 17.3 -2.25 17.8 -3.1 18.25 -3.6 18.3 -3.6 18.4 -3.6 18.6 -3.55 18.9 -3.45 19.4 -3.25 19.5 -3.1 19.5 -3.0 19.4 -2.9 19.2 -2.65 18.3 -1.65 18.55 -1.6 19.3 -1.2 19.4 -1.15 19.4 1.25 19.35 1.25 19.15 1.3 17.7 1.45 17.7 1.35 17.7 1.3 17.85 0.7 17.9 0.3 17.95 0.05 17.95 -0.1 M5.5 -1.75 L5.5 -1.65 5.5 -1.4 5.6 -0.75 5.6 -0.65 5.7 -0.4 5.9 -0.3 6.1 -0.2 Q6.35 -0.05 6.55 0.05 L6.7 0.15 6.75 0.15 6.95 -0.05 7.15 -0.35 7.3 -0.55 7.3 -1.75 7.1 -1.9 7.0 -2.0 6.6 -2.3 6.55 -2.35 6.45 -2.35 5.9 -2.05 5.85 -2.0 5.5 -1.75 M12.1 1.3 L11.55 -0.4 11.45 -0.8 11.3 -1.3 11.1 -1.9 11.0 -2.05 11.0 1.25 9.55 1.25 9.55 -3.4 9.65 -3.5 9.85 -3.55 10.0 -3.6 10.1 -3.6 10.35 -3.65 10.65 -3.65 11.5 -3.75 11.55 -3.75 11.7 -3.65 11.8 -3.5 11.9 -3.2 12.4 -1.8 12.55 -1.4 12.65 -1.0 12.9 -0.55 12.9 -0.85 12.9 -1.25 12.9 -1.8 12.95 -3.0 13.0 -3.15 13.0 -3.35 13.05 -3.6 14.6 -3.6 14.05 1.0 14.0 1.25 13.75 1.3 12.45 1.4 12.35 1.4 12.25 1.4 12.1 1.3 M4.0 -1.75 L3.95 -1.75 3.95 -1.8 4.0 -1.8 4.15 -2.05 4.45 -2.45 5.6 -3.7 5.65 -3.7 6.0 -3.65 6.8 -3.55 7.15 -3.5 7.7 -3.35 8.95 -1.75 9.0 -1.7 9.0 -1.65 8.8 -1.0 8.45 0.0 8.1 0.55 6.35 1.45 4.75 0.9 4.65 0.8 4.55 0.65 4.5 0.45 4.35 -0.15 4.0 -1.75 M-1.15 1.15 L-1.2 0.3 -1.2 -0.2 -1.2 -0.55 -1.2 -0.8 -1.2 -1.05 -1.3 -1.55 -1.35 -1.35 -1.5 -0.7 -1.65 -0.1 -1.75 0.5 -1.8 0.75 -1.8 0.9 -1.9 1.15 -2.0 1.25 -2.9 1.25 -3.0 1.15 -3.0 1.05 -2.95 0.35 -2.7 -2.2 -2.65 -3.0 -2.6 -3.4 -2.45 -3.45 -2.2 -3.5 -1.05 -3.7 -0.7 -3.75 -0.65 -3.75 -0.5 -3.55 -0.35 -2.45 -0.3 -1.7 -0.1 -0.65 0.35 -1.95 1.05 -3.55 1.05 -3.6 3.3 -3.6 3.3 -3.35 3.25 -2.6 3.25 -2.3 3.25 -1.8 3.15 -0.4 3.15 0.25 3.1 0.7 3.1 0.9 3.0 1.25 1.55 1.25 1.55 -1.65 1.5 -1.6 1.45 -1.5 1.3 -1.4 1.25 -1.25 1.25 -1.15 0.65 0.15 0.05 1.4 -0.15 1.4 -0.35 1.35 -0.85 1.3 -1.15 1.15 M-10.05 -2.6 L-10.05 -2.5 -10.05 -2.3 -10.05 -2.05 -10.05 -1.75 -10.0 -1.35 -10.0 -0.9 -9.9 -0.7 -9.8 -0.7 -9.7 -0.7 Q-9.1 -0.7 -8.9 -0.95 L-8.7 -1.35 -8.6 -1.8 -8.6 -1.9 -8.95 -2.2 Q-9.2 -2.35 -9.6 -2.5 L-10.05 -2.6 M-15.4 0.7 L-15.3 0.05 -15.0 -0.35 -14.45 -0.25 -14.05 0.05 -14.0 -0.25 -14.35 -3.0 -14.35 -3.1 -14.35 -3.2 -14.35 -3.25 -14.35 -3.35 -14.25 -3.4 -14.15 -3.4 -13.9 -3.45 -12.8 -3.55 -12.6 -3.6 -12.45 -3.6 -12.35 -3.6 -12.75 0.8 -13.25 1.0 -13.45 1.05 -14.05 1.25 -14.6 1.35 -15.15 1.15 -15.4 0.7 M-8.75 0.3 L-8.95 0.2 -10.0 0.4 -10.0 1.3 -11.75 1.3 -11.05 -3.25 -11.0 -3.55 -10.75 -3.7 -8.85 -3.6 -8.55 -3.6 -8.3 -3.55 -7.8 -3.5 -7.7 -3.5 -7.2 1.0 -7.15 1.1 -7.25 1.3 -8.75 1.45 -8.75 0.3 M-23.45 -3.7 L-23.25 -3.7 -21.75 -3.4 -21.65 -3.35 -21.65 -3.1 -21.75 -2.3 -21.8 -1.35 -21.95 0.45 -22.0 1.1 -22.0 1.3 -22.1 1.4 -23.45 1.4 -23.45 -3.7 M-18.45 1.3 L-19.0 -0.4 -19.1 -0.8 -19.25 -1.3 -19.45 -1.9 -19.55 -2.05 -19.55 1.25 -21.0 1.25 -21.0 -3.4 -20.9 -3.5 -20.7 -3.55 -20.55 -3.6 -20.45 -3.6 -20.2 -3.65 -19.9 -3.65 -19.05 -3.75 -19.0 -3.75 -18.85 -3.65 -18.75 -3.5 -18.65 -3.2 -18.15 -1.8 -18.0 -1.4 -17.9 -1.0 -17.65 -0.55 -17.65 -0.85 -17.65 -1.25 -17.65 -1.8 -17.6 -3.0 -17.55 -3.15 -17.55 -3.35 -17.5 -3.6 -15.95 -3.6 -16.5 1.0 -16.55 1.25 -16.8 1.3 -18.1 1.4 -18.2 1.4 -18.3 1.4 -18.45 1.3 M-26.7 1.3 L-27.25 -0.4 -27.35 -0.8 -27.5 -1.3 -27.7 -1.9 -27.8 -2.05 -27.8 1.25 -29.25 1.25 -29.25 -3.4 -29.15 -3.5 -28.95 -3.55 -28.8 -3.6 -28.7 -3.6 -28.45 -3.65 -28.15 -3.65 -27.3 -3.75 -27.25 -3.75 -27.1 -3.65 -27.0 -3.5 -26.9 -3.2 -26.4 -1.8 -26.25 -1.4 -26.15 -1.0 -25.9 -0.55 -25.9 -0.85 -25.9 -1.25 -25.9 -1.8 -25.85 -3.0 -25.8 -3.15 -25.8 -3.35 -25.75 -3.6 -24.2 -3.6 -24.75 1.0 -24.8 1.25 -25.05 1.3 -26.35 1.4 -26.45 1.4 -26.55 1.4 -26.7 1.3" fill="#ffffff" fill-rule="evenodd" stroke="none"/>
    <path d="M-26.7 1.3 L-26.55 1.4 -26.45 1.4 -26.35 1.4 -25.05 1.3 -24.8 1.25 -24.75 1.0 -24.2 -3.6 -25.75 -3.6 -25.8 -3.35 -25.8 -3.15 -25.85 -3.0 -25.9 -1.8 -25.9 -1.25 -25.9 -0.85 -25.9 -0.55 -26.15 -1.0 -26.25 -1.4 -26.4 -1.8 -26.9 -3.2 -27.0 -3.5 -27.1 -3.65 -27.25 -3.75 -27.3 -3.75 -28.15 -3.65 -28.45 -3.65 -28.7 -3.6 -28.8 -3.6 -28.95 -3.55 -29.15 -3.5 -29.25 -3.4 -29.25 1.25 -27.8 1.25 -27.8 -2.05 -27.7 -1.9 -27.5 -1.3 -27.35 -0.8 -27.25 -0.4 -26.7 1.3 M-18.45 1.3 L-18.3 1.4 -18.2 1.4 -18.1 1.4 -16.8 1.3 -16.55 1.25 -16.5 1.0 -15.95 -3.6 -17.5 -3.6 -17.55 -3.35 -17.55 -3.15 -17.6 -3.0 -17.65 -1.8 -17.65 -1.25 -17.65 -0.85 -17.65 -0.55 -17.9 -1.0 -18.0 -1.4 -18.15 -1.8 -18.65 -3.2 -18.75 -3.5 -18.85 -3.65 -19.0 -3.75 -19.05 -3.75 -19.9 -3.65 -20.2 -3.65 -20.45 -3.6 -20.55 -3.6 -20.7 -3.55 -20.9 -3.5 -21.0 -3.4 -21.0 1.25 -19.55 1.25 -19.55 -2.05 -19.45 -1.9 -19.25 -1.3 -19.1 -0.8 -19.0 -0.4 -18.45 1.3 M-23.45 -3.7 L-23.45 1.4 -22.1 1.4 -22.0 1.3 -22.0 1.1 -21.95 0.45 -21.8 -1.35 -21.75 -2.3 -21.65 -3.1 -21.65 -3.35 -21.75 -3.4 -23.25 -3.7 -23.45 -3.7 M-8.75 0.3 L-8.75 1.45 -7.25 1.3 -7.15 1.1 -7.2 1.0 -7.7 -3.5 -7.8 -3.5 -8.3 -3.55 -8.55 -3.6 -8.85 -3.6 -10.75 -3.7 -11.0 -3.55 -11.05 -3.25 -11.75 1.3 -10.0 1.3 -10.0 0.4 -8.95 0.2 -8.75 0.3 M-15.4 0.7 L-15.15 1.15 -14.6 1.35 -14.05 1.25 -13.45 1.05 -13.25 1.0 -12.75 0.8 -12.35 -3.6 -12.45 -3.6 -12.6 -3.6 -12.8 -3.55 -13.9 -3.45 -14.15 -3.4 -14.25 -3.4 -14.35 -3.35 -14.35 -3.25 -14.35 -3.2 -14.35 -3.1 -14.35 -3.0 -14.0 -0.25 -14.05 0.05 -14.45 -0.25 -15.0 -0.35 -15.3 0.05 -15.4 0.7 M-10.05 -2.6 L-9.6 -2.5 Q-9.2 -2.35 -8.95 -2.2 L-8.6 -1.9 -8.6 -1.8 -8.7 -1.35 -8.9 -0.95 Q-9.1 -0.7 -9.7 -0.7 L-9.8 -0.7 -9.9 -0.7 -10.0 -0.9 -10.0 -1.35 -10.05 -1.75 -10.05 -2.05 -10.05 -2.3 -10.05 -2.5 -10.05 -2.6 M-1.15 1.15 L-0.85 1.3 -0.35 1.35 -0.15 1.4 0.05 1.4 0.65 0.15 1.25 -1.15 1.25 -1.25 1.3 -1.4 1.45 -1.5 1.5 -1.6 1.55 -1.65 1.55 1.25 3.0 1.25 3.1 0.9 3.1 0.7 3.15 0.25 3.15 -0.4 3.25 -1.8 3.25 -2.3 3.25 -2.6 3.3 -3.35 3.3 -3.6 1.05 -3.6 1.05 -3.55 0.35 -1.95 -0.1 -0.65 -0.3 -1.7 -0.35 -2.45 -0.5 -3.55 -0.65 -3.75 -0.7 -3.75 -1.05 -3.7 -2.2 -3.5 -2.45 -3.45 -2.6 -3.4 -2.65 -3.0 -2.7 -2.2 -2.95 0.35 -3.0 1.05 -3.0 1.15 -2.9 1.25 -2.0 1.25 -1.9 1.15 -1.8 0.9 -1.8 0.75 -1.75 0.5 -1.65 -0.1 -1.5 -0.7 -1.35 -1.35 -1.3 -1.55 -1.2 -1.05 -1.2 -0.8 -1.2 -0.55 -1.2 -0.2 -1.2 0.3 -1.15 1.15 M4.0 -1.75 L4.35 -0.15 4.5 0.45 4.55 0.65 4.65 0.8 4.75 0.9 6.35 1.45 8.1 0.55 8.45 0.0 8.8 -1.0 9.0 -1.65 9.0 -1.7 8.95 -1.75 7.7 -3.35 7.15 -3.5 6.8 -3.55 6.0 -3.65 5.65 -3.7 5.6 -3.7 4.45 -2.45 4.15 -2.05 4.0 -1.8 3.95 -1.8 3.95 -1.75 4.0 -1.75 M12.1 1.3 L12.25 1.4 12.35 1.4 12.45 1.4 13.75 1.3 14.0 1.25 14.05 1.0 14.6 -3.6 13.05 -3.6 13.0 -3.35 13.0 -3.15 12.95 -3.0 12.9 -1.8 12.9 -1.25 12.9 -0.85 12.9 -0.55 12.65 -1.0 12.55 -1.4 12.4 -1.8 11.9 -3.2 11.8 -3.5 11.7 -3.65 11.55 -3.75 11.5 -3.75 10.65 -3.65 10.35 -3.65 10.1 -3.6 10.0 -3.6 9.85 -3.55 9.65 -3.5 9.55 -3.4 9.55 1.25 11.0 1.25 11.0 -2.05 11.1 -1.9 11.3 -1.3 11.45 -0.8 11.55 -0.4 12.1 1.3 M5.5 -1.75 L5.85 -2.0 5.9 -2.05 6.45 -2.35 6.55 -2.35 6.6 -2.3 7.0 -2.0 7.1 -1.9 7.3 -1.75 7.3 -0.55 7.15 -0.35 6.95 -0.05 6.75 0.15 6.7 0.15 6.55 0.05 Q6.35 -0.05 6.1 -0.2 L5.9 -0.3 5.7 -0.4 5.6 -0.65 5.6 -0.75 5.5 -1.4 5.5 -1.65 5.5 -1.75 M17.95 -0.1 L17.95 0.05 17.9 0.3 17.85 0.7 17.7 1.3 17.7 1.35 17.7 1.45 19.15 1.3 19.35 1.25 19.4 1.25 19.4 -1.15 19.3 -1.2 18.55 -1.6 18.3 -1.65 19.2 -2.65 19.4 -2.9 19.5 -3.0 19.5 -3.1 19.4 -3.25 18.9 -3.45 18.6 -3.55 18.4 -3.6 18.3 -3.6 18.25 -3.6 17.8 -3.1 17.3 -2.25 16.85 -1.75 16.9 -2.55 16.95 -3.35 16.95 -3.4 16.85 -3.6 15.35 -3.6 15.35 1.25 16.6 1.25 16.6 1.15 16.65 0.85 16.7 0.7 16.75 -0.1 16.75 -0.3 16.95 -0.45 17.1 -0.65 17.2 -0.65 17.6 -0.45 17.85 -0.3 17.95 -0.2 17.95 -0.1 M20.65 -1.9 L20.65 1.4 23.35 1.4 23.45 1.3 23.55 0.95 23.65 0.65 23.7 0.4 23.7 0.25 22.2 0.25 22.2 0.1 22.2 -0.05 22.25 -0.1 23.35 -0.7 23.35 -1.05 23.3 -1.4 23.3 -1.6 22.2 -1.6 22.1 -1.7 22.1 -1.8 22.1 -1.85 Q22.1 -2.1 22.5 -2.2 L23.25 -2.3 Q23.65 -2.35 23.65 -2.5 L23.6 -2.6 23.6 -2.65 23.5 -3.45 23.45 -3.65 23.35 -3.75 23.2 -3.75 20.3 -3.6 20.2 -3.05 20.2 -2.75 20.15 -2.5 20.15 -2.2 20.15 -2.1 20.85 -2.1 20.65 -1.9 M25.65 0.05 L25.6 0.25 25.55 0.6 25.5 1.15 25.5 1.3 25.45 1.4 26.15 1.4 26.85 1.3 27.35 1.25 27.4 1.25 27.4 -0.05 27.8 -0.45 28.2 -0.75 28.6 -1.0 29.05 -1.45 29.05 -1.55 28.45 -3.7 28.35 -3.7 27.9 -3.6 27.25 -3.35 26.9 -3.1 27.1 -2.4 27.3 -1.75 27.3 -1.65 27.2 -1.5 26.15 -1.2 26.25 -1.4 26.25 -3.6 24.8 -3.6 24.8 -3.55 24.7 -3.35 24.5 -2.4 24.4 -2.0 24.3 -1.5 24.3 -1.4 24.3 -1.3 24.9 -0.65 25.3 -0.4 25.65 -0.05 25.65 0.05" fill="none" stroke="#5c522b" stroke-linecap="round" stroke-linejoin="round" stroke-width="2.0"/>
    <path d="M25.65 0.05 L25.65 -0.05 25.3 -0.4 24.9 -0.65 24.3 -1.3 24.3 -1.4 24.3 -1.5 24.4 -2.0 24.5 -2.4 24.7 -3.35 24.8 -3.55 24.8 -3.6 26.25 -3.6 26.25 -1.4 26.15 -1.2 27.2 -1.5 27.3 -1.65 27.3 -1.75 27.1 -2.4 26.9 -3.1 27.25 -3.35 27.9 -3.6 28.35 -3.7 28.45 -3.7 29.05 -1.55 29.05 -1.45 28.6 -1.0 28.2 -0.75 27.8 -0.45 27.4 -0.05 27.4 1.25 27.35 1.25 26.85 1.3 26.15 1.4 25.45 1.4 25.5 1.3 25.5 1.15 25.55 0.6 25.6 0.25 25.65 0.05 M20.65 -1.9 L20.85 -2.1 20.15 -2.1 20.15 -2.2 20.15 -2.5 20.2 -2.75 20.2 -3.05 20.3 -3.6 23.2 -3.75 23.35 -3.75 23.45 -3.65 23.5 -3.45 23.6 -2.65 23.6 -2.6 23.65 -2.5 Q23.65 -2.35 23.25 -2.3 L22.5 -2.2 Q22.1 -2.1 22.1 -1.85 L22.1 -1.8 22.1 -1.7 22.2 -1.6 23.3 -1.6 23.3 -1.4 23.35 -1.05 23.35 -0.7 22.25 -0.1 22.2 -0.05 22.2 0.1 22.2 0.25 23.7 0.25 23.7 0.4 23.65 0.65 23.55 0.95 23.45 1.3 23.35 1.4 20.65 1.4 20.65 -1.9 M17.95 -0.1 L17.95 -0.2 17.85 -0.3 17.6 -0.45 17.2 -0.65 17.1 -0.65 16.95 -0.45 16.75 -0.3 16.75 -0.1 16.7 0.7 16.65 0.85 16.6 1.15 16.6 1.25 15.35 1.25 15.35 -3.6 16.85 -3.6 16.95 -3.4 16.95 -3.35 16.9 -2.55 16.85 -1.75 17.3 -2.25 17.8 -3.1 18.25 -3.6 18.3 -3.6 18.4 -3.6 18.6 -3.55 18.9 -3.45 19.4 -3.25 19.5 -3.1 19.5 -3.0 19.4 -2.9 19.2 -2.65 18.3 -1.65 18.55 -1.6 19.3 -1.2 19.4 -1.15 19.4 1.25 19.35 1.25 19.15 1.3 17.7 1.45 17.7 1.35 17.7 1.3 17.85 0.7 17.9 0.3 17.95 0.05 17.95 -0.1 M5.5 -1.75 L5.5 -1.65 5.5 -1.4 5.6 -0.75 5.6 -0.65 5.7 -0.4 5.9 -0.3 6.1 -0.2 Q6.35 -0.05 6.55 0.05 L6.7 0.15 6.75 0.15 6.95 -0.05 7.15 -0.35 7.3 -0.55 7.3 -1.75 7.1 -1.9 7.0 -2.0 6.6 -2.3 6.55 -2.35 6.45 -2.35 5.9 -2.05 5.85 -2.0 5.5 -1.75 M12.1 1.3 L11.55 -0.4 11.45 -0.8 11.3 -1.3 11.1 -1.9 11.0 -2.05 11.0 1.25 9.55 1.25 9.55 -3.4 9.65 -3.5 9.85 -3.55 10.0 -3.6 10.1 -3.6 10.35 -3.65 10.65 -3.65 11.5 -3.75 11.55 -3.75 11.7 -3.65 11.8 -3.5 11.9 -3.2 12.4 -1.8 12.55 -1.4 12.65 -1.0 12.9 -0.55 12.9 -0.85 12.9 -1.25 12.9 -1.8 12.95 -3.0 13.0 -3.15 13.0 -3.35 13.05 -3.6 14.6 -3.6 14.05 1.0 14.0 1.25 13.75 1.3 12.45 1.4 12.35 1.4 12.25 1.4 12.1 1.3 M4.0 -1.75 L3.95 -1.75 3.95 -1.8 4.0 -1.8 4.15 -2.05 4.45 -2.45 5.6 -3.7 5.65 -3.7 6.0 -3.65 6.8 -3.55 7.15 -3.5 7.7 -3.35 8.95 -1.75 9.0 -1.7 9.0 -1.65 8.8 -1.0 8.45 0.0 8.1 0.55 6.35 1.45 4.75 0.9 4.65 0.8 4.55 0.65 4.5 0.45 4.35 -0.15 4.0 -1.75 M-1.15 1.15 L-1.2 0.3 -1.2 -0.2 -1.2 -0.55 -1.2 -0.8 -1.2 -1.05 -1.3 -1.55 -1.35 -1.35 -1.5 -0.7 -1.65 -0.1 -1.75 0.5 -1.8 0.75 -1.8 0.9 -1.9 1.15 -2.0 1.25 -2.9 1.25 -3.0 1.15 -3.0 1.05 -2.95 0.35 -2.7 -2.2 -2.65 -3.0 -2.6 -3.4 -2.45 -3.45 -2.2 -3.5 -1.05 -3.7 -0.7 -3.75 -0.65 -3.75 -0.5 -3.55 -0.35 -2.45 -0.3 -1.7 -0.1 -0.65 0.35 -1.95 1.05 -3.55 1.05 -3.6 3.3 -3.6 3.3 -3.35 3.25 -2.6 3.25 -2.3 3.25 -1.8 3.15 -0.4 3.15 0.25 3.1 0.7 3.1 0.9 3.0 1.25 1.55 1.25 1.55 -1.65 1.5 -1.6 1.45 -1.5 1.3 -1.4 1.25 -1.25 1.25 -1.15 0.65 0.15 0.05 1.4 -0.15 1.4 -0.35 1.35 -0.85 1.3 -1.15 1.15 M-10.05 -2.6 L-10.05 -2.5 -10.05 -2.3 -10.05 -2.05 -10.05 -1.75 -10.0 -1.35 -10.0 -0.9 -9.9 -0.7 -9.8 -0.7 -9.7 -0.7 Q-9.1 -0.7 -8.9 -0.95 L-8.7 -1.35 -8.6 -1.8 -8.6 -1.9 -8.95 -2.2 Q-9.2 -2.35 -9.6 -2.5 L-10.05 -2.6 M-15.4 0.7 L-15.3 0.05 -15.0 -0.35 -14.45 -0.25 -14.05 0.05 -14.0 -0.25 -14.35 -3.0 -14.35 -3.1 -14.35 -3.2 -14.35 -3.25 -14.35 -3.35 -14.25 -3.4 -14.15 -3.4 -13.9 -3.45 -12.8 -3.55 -12.6 -3.6 -12.45 -3.6 -12.35 -3.6 -12.75 0.8 -13.25 1.0 -13.45 1.05 -14.05 1.25 -14.6 1.35 -15.15 1.15 -15.4 0.7 M-8.75 0.3 L-8.95 0.2 -10.0 0.4 -10.0 1.3 -11.75 1.3 -11.05 -3.25 -11.0 -3.55 -10.75 -3.7 -8.85 -3.6 -8.55 -3.6 -8.3 -3.55 -7.8 -3.5 -7.7 -3.5 -7.2 1.0 -7.15 1.1 -7.25 1.3 -8.75 1.45 -8.75 0.3 M-23.45 -3.7 L-23.25 -3.7 -21.75 -3.4 -21.65 -3.35 -21.65 -3.1 -21.75 -2.3 -21.8 -1.35 -21.95 0.45 -22.0 1.1 -22.0 1.3 -22.1 1.4 -23.45 1.4 -23.45 -3.7 M-18.45 1.3 L-19.0 -0.4 -19.1 -0.8 -19.25 -1.3 -19.45 -1.9 -19.55 -2.05 -19.55 1.25 -21.0 1.25 -21.0 -3.4 -20.9 -3.5 -20.7 -3.55 -20.55 -3.6 -20.45 -3.6 -20.2 -3.65 -19.9 -3.65 -19.05 -3.75 -19.0 -3.75 -18.85 -3.65 -18.75 -3.5 -18.65 -3.2 -18.15 -1.8 -18.0 -1.4 -17.9 -1.0 -17.65 -0.55 -17.65 -0.85 -17.65 -1.25 -17.65 -1.8 -17.6 -3.0 -17.55 -3.15 -17.55 -3.35 -17.5 -3.6 -15.95 -3.6 -16.5 1.0 -16.55 1.25 -16.8 1.3 -18.1 1.4 -18.2 1.4 -18.3 1.4 -18.45 1.3 M-26.7 1.3 L-27.25 -0.4 -27.35 -0.8 -27.5 -1.3 -27.7 -1.9 -27.8 -2.05 -27.8 1.25 -29.25 1.25 -29.25 -3.4 -29.15 -3.5 -28.95 -3.55 -28.8 -3.6 -28.7 -3.6 -28.45 -3.65 -28.15 -3.65 -27.3 -3.75 -27.25 -3.75 -27.1 -3.65 -27.0 -3.5 -26.9 -3.2 -26.4 -1.8 -26.25 -1.4 -26.15 -1.0 -25.9 -0.55 -25.9 -0.85 -25.9 -1.25 -25.9 -1.8 -25.85 -3.0 -25.8 -3.15 -25.8 -3.35 -25.75 -3.6 -24.2 -3.6 -24.75 1.0 -24.8 1.25 -25.05 1.3 -26.35 1.4 -26.45 1.4 -26.55 1.4 -26.7 1.3" fill="#ffffff" fill-rule="evenodd" stroke="none"/>
  </g>
</svg>
