<?xml version="1.0" encoding="UTF-8" standalone="no"?>
<svg xmlns:xlink="http://www.w3.org/1999/xlink" height="7.6px" width="43.35px" xmlns="http://www.w3.org/2000/svg">
  <g transform="matrix(1.0, 0.0, 0.0, 1.0, 21.85, 5.05)">
    <path d="M-5.9 0.25 L-6.05 0.45 -6.0 0.45 -5.35 0.2 -4.85 -0.1 -4.85 -0.15 -4.75 -0.35 -4.7 -0.5 -4.5 -1.1 -4.5 -1.45 -5.45 -2.45 -5.55 -2.45 -5.8 -2.35 -5.9 -2.25 -5.9 0.25 M-7.4 -3.3 L-7.3 -3.4 -7.2 -3.45 -6.55 -3.5 -6.15 -3.6 -5.35 -3.7 -5.2 -3.7 -5.1 -3.6 -4.5 -3.3 -4.3 -3.2 -4.0 -3.0 -3.55 -2.8 -3.4 -2.5 -3.35 -2.25 -3.25 -1.45 -3.25 -1.2 -3.25 -1.1 -3.2 -0.95 -3.2 -0.8 -3.2 -0.55 -3.2 -0.4 -3.25 -0.25 -3.25 -0.2 -3.3 -0.05 -3.4 0.15 -3.6 0.55 -3.75 0.8 -3.8 0.95 -3.85 1.0 -3.85 1.05 -3.9 1.15 -4.15 1.25 -4.35 1.3 -4.85 1.45 -5.3 1.5 -5.9 1.55 -6.35 1.55 -6.8 1.55 -7.15 1.55 -7.4 1.55 -7.4 -3.3 M-13.6 -3.85 L-13.4 -3.85 -11.9 -3.6 -11.8 -3.5 -11.85 -2.4 -11.95 -1.4 -12.1 0.5 -12.15 1.15 -12.15 1.4 -12.25 1.5 -13.6 1.5 -13.6 -3.85 M-9.2 -3.6 L-9.6 0.05 -9.7 0.25 -9.6 0.25 -9.1 0.05 -8.6 -0.1 -8.35 -0.1 -8.3 0.0 -8.2 0.4 -8.0 1.4 -8.0 1.5 -11.05 1.5 -11.05 -3.4 -10.55 -3.5 -9.7 -3.6 -9.6 -3.6 -9.2 -3.6 M-20.45 1.25 L-20.85 -2.7 -20.85 -3.5 -20.7 -3.6 -20.45 -3.65 -19.7 -3.8 -19.5 -3.85 -19.4 -3.85 -19.1 -3.9 -19.1 -0.55 -19.0 -0.6 -18.8 -1.0 -18.75 -1.45 -18.4 -3.15 -18.3 -3.4 -18.2 -3.4 -17.9 -3.4 -17.45 -3.4 -17.15 -3.35 -17.0 -3.35 -16.95 -3.3 -16.85 -3.15 -16.6 -0.8 -16.5 -0.75 -16.45 -0.8 -16.4 -0.95 -16.35 -1.2 -16.2 -2.0 -16.1 -2.8 -16.0 -3.4 -15.95 -3.75 -14.3 -3.75 -14.3 -3.4 -14.35 -3.15 -14.45 -2.55 -15.0 0.1 -15.15 0.9 -15.15 0.95 -15.2 1.1 -15.25 1.25 -15.45 1.35 -16.75 1.5 -17.0 1.5 -17.6 -0.65 -17.7 -0.8 -17.9 -0.35 -18.05 0.15 -18.15 0.45 -18.3 0.85 -18.45 1.15 -18.55 1.5 -18.65 1.5 -19.2 1.45 -19.65 1.4 -20.25 1.35 -20.45 1.25 M17.8 0.25 L17.65 0.45 17.7 0.45 18.35 0.2 18.85 -0.1 18.85 -0.15 18.95 -0.35 19.0 -0.5 19.2 -1.1 19.2 -1.45 18.25 -2.45 18.15 -2.45 17.9 -2.35 17.8 -2.25 17.8 0.25 M16.3 -3.3 L16.4 -3.4 16.5 -3.45 17.15 -3.5 17.55 -3.6 18.35 -3.7 18.5 -3.7 18.6 -3.6 19.2 -3.3 19.4 -3.2 19.7 -3.0 20.15 -2.8 20.3 -2.5 20.35 -2.25 20.45 -1.45 20.45 -1.2 20.45 -1.1 20.5 -0.95 20.5 -0.8 20.5 -0.55 20.5 -0.4 20.45 -0.25 20.45 -0.2 20.4 -0.05 20.3 0.15 20.1 0.55 19.95 0.8 19.9 0.95 19.85 1.0 19.85 1.05 19.8 1.15 19.55 1.25 19.35 1.3 18.85 1.45 18.4 1.5 17.8 1.55 17.35 1.55 16.9 1.55 16.55 1.55 16.3 1.55 16.3 -3.3 M12.55 -1.8 L12.75 -1.75 13.0 -1.65 13.4 -1.55 13.5 -1.55 13.7 -1.6 13.85 -1.85 14.0 -2.15 14.0 -2.2 14.05 -2.2 14.0 -2.25 13.95 -2.35 13.7 -2.7 13.5 -2.85 13.45 -2.9 13.45 -2.85 13.4 -2.85 12.9 -2.4 12.45 -1.95 12.5 -1.9 12.55 -1.8 M12.85 -0.3 L12.85 1.15 11.2 1.15 11.2 -3.7 11.25 -3.7 11.55 -3.75 12.05 -3.85 12.9 -3.95 13.25 -4.0 13.5 -4.05 13.7 -4.05 15.3 -3.15 15.3 -2.9 15.15 -1.35 15.0 -1.25 14.85 -1.15 14.6 -0.9 14.7 -0.6 15.0 -0.15 15.4 0.25 15.65 0.8 15.65 0.9 14.3 1.5 14.2 1.5 14.1 1.4 13.85 1.0 13.45 0.4 13.15 0.0 13.0 -0.15 12.85 -0.3 M7.6 -2.7 L7.6 -2.6 7.6 -2.4 7.6 -2.15 7.65 -1.8 7.65 -1.4 7.7 -0.9 7.8 -0.75 7.85 -0.75 7.95 -0.7 Q8.6 -0.7 8.8 -1.0 L8.95 -1.4 9.05 -1.9 9.05 -2.0 8.75 -2.3 8.1 -2.6 7.6 -2.7 M8.9 0.35 L8.7 0.25 7.7 0.45 7.7 1.4 5.9 1.4 6.6 -3.4 6.65 -3.7 Q6.7 -3.85 6.9 -3.85 L8.8 -3.8 9.15 -3.75 9.4 -3.75 9.9 -3.7 10.0 -3.7 10.5 1.05 10.5 1.2 10.4 1.4 8.9 1.55 8.9 0.35 M0.9 -1.55 L0.9 -1.6 1.1 -2.05 1.65 -2.75 1.85 -3.0 2.05 -3.25 2.3 -3.65 2.45 -3.8 2.55 -3.85 2.6 -3.85 2.7 -3.85 2.8 -3.85 2.95 -3.85 3.05 -3.85 3.15 -3.85 4.45 -3.65 4.85 -3.6 4.9 -3.55 5.15 -3.5 5.15 -3.3 5.1 -3.05 5.05 -2.7 4.95 -2.3 4.9 -2.05 4.75 -2.05 4.6 -2.05 4.05 -2.1 3.5 -2.15 3.15 -2.1 2.35 -1.45 2.7 -1.45 2.7 -1.3 2.8 -0.65 2.85 -0.15 2.85 -0.1 2.95 -0.1 3.05 -0.05 3.25 -0.05 3.4 0.0 3.45 0.0 3.55 0.0 Q3.85 0.0 4.3 -0.3 L4.85 -0.65 5.15 -0.35 5.25 0.05 5.25 0.2 5.05 0.7 4.95 1.0 4.5 1.25 4.2 1.3 3.2 1.5 3.05 1.5 2.95 1.45 2.75 1.35 2.55 1.25 2.2 1.05 1.6 0.7 1.55 0.65 1.5 0.5 1.35 0.05 1.25 -0.25 1.0 -1.2 0.9 -1.55" fill="#5c522b" fill-rule="evenodd" stroke="none"/>
    <path d="M0.9 -1.55 L1.0 -1.2 1.25 -0.25 1.35 0.05 1.5 0.5 1.55 0.65 1.6 0.7 2.2 1.05 2.55 1.25 2.75 1.35 2.95 1.45 3.05 1.5 3.2 1.5 4.2 1.3 4.5 1.25 4.95 1.0 5.05 0.7 5.25 0.2 5.25 0.05 5.15 -0.35 4.85 -0.65 4.3 -0.3 Q3.85 0.0 3.55 0.0 L3.45 0.0 3.4 0.0 3.25 -0.05 3.05 -0.05 2.95 -0.1 2.85 -0.1 2.85 -0.15 2.8 -0.65 2.7 -1.3 2.7 -1.45 2.35 -1.45 3.15 -2.1 3.5 -2.15 4.05 -2.1 4.6 -2.05 4.75 -2.05 4.9 -2.05 4.95 -2.3 5.05 -2.7 5.1 -3.05 5.15 -3.3 5.15 -3.5 4.9 -3.55 4.85 -3.6 4.45 -3.65 3.15 -3.85 3.05 -3.85 2.95 -3.85 2.8 -3.85 2.7 -3.85 2.6 -3.85 2.55 -3.85 2.45 -3.8 2.3 -3.65 2.05 -3.25 1.85 -3.0 1.65 -2.75 1.1 -2.05 0.9 -1.6 0.9 -1.55 M8.9 0.35 L8.9 1.55 10.4 1.4 10.5 1.2 10.5 1.05 10.0 -3.7 9.9 -3.7 9.4 -3.75 9.15 -3.75 8.8 -3.8 6.9 -3.85 Q6.7 -3.85 6.65 -3.7 L6.6 -3.4 5.9 1.4 7.7 1.4 7.7 0.45 8.7 0.25 8.9 0.35 M7.6 -2.7 L8.1 -2.6 8.75 -2.3 9.05 -2.0 9.05 -1.9 8.95 -1.4 8.8 -1.0 Q8.6 -0.7 7.95 -0.7 L7.85 -0.75 7.8 -0.75 7.7 -0.9 7.65 -1.4 7.65 -1.8 7.6 -2.15 7.6 -2.4 7.6 -2.6 7.6 -2.7 M12.85 -0.3 L13.0 -0.15 13.15 0.0 13.45 0.4 13.85 1.0 14.1 1.4 14.2 1.5 14.3 1.5 15.65 0.9 15.65 0.8 15.4 0.25 15.0 -0.15 14.7 -0.6 14.6 -0.9 14.85 -1.15 15.0 -1.25 15.15 -1.35 15.3 -2.9 15.3 -3.15 13.7 -4.05 13.5 -4.05 13.25 -4.0 12.9 -3.95 12.05 -3.85 11.55 -3.75 11.25 -3.7 11.2 -3.7 11.2 1.15 12.85 1.15 12.85 -0.3 M12.55 -1.8 L12.5 -1.9 12.45 -1.95 12.9 -2.4 13.4 -2.85 13.45 -2.85 13.45 -2.9 13.5 -2.85 13.7 -2.7 13.95 -2.35 14.0 -2.25 14.05 -2.2 14.0 -2.2 14.0 -2.15 13.85 -1.85 13.7 -1.6 13.5 -1.55 13.4 -1.55 13.0 -1.65 12.75 -1.75 12.55 -1.8 M16.3 -3.3 L16.3 1.55 16.55 1.55 16.9 1.55 17.35 1.55 17.8 1.55 18.4 1.5 18.85 1.45 19.35 1.3 19.55 1.25 19.8 1.15 19.85 1.05 19.85 1.0 19.9 0.95 19.95 0.8 20.1 0.55 20.3 0.15 20.4 -0.05 20.45 -0.2 20.45 -0.25 20.5 -0.4 20.5 -0.55 20.5 -0.8 20.5 -0.95 20.45 -1.1 20.45 -1.2 20.45 -1.45 20.35 -2.25 20.3 -2.5 20.15 -2.8 19.7 -3.0 19.4 -3.2 19.2 -3.3 18.6 -3.6 18.5 -3.7 18.35 -3.7 17.55 -3.6 17.15 -3.5 16.5 -3.45 16.4 -3.4 16.3 -3.3 M17.8 0.25 L17.8 -2.25 17.9 -2.35 18.15 -2.45 18.25 -2.45 19.2 -1.45 19.2 -1.1 19.0 -0.5 18.95 -0.35 18.85 -0.15 18.85 -0.1 18.35 0.2 17.7 0.45 17.65 0.45 17.8 0.25 M-20.45 1.25 L-20.25 1.35 -19.65 1.4 -19.2 1.45 -18.65 1.5 -18.55 1.5 -18.45 1.15 -18.3 0.85 -18.15 0.45 -18.05 0.15 -17.9 -0.35 -17.7 -0.8 -17.6 -0.65 -17.0 1.5 -16.75 1.5 -15.45 1.35 -15.25 1.25 -15.2 1.1 -15.15 0.95 -15.15 0.9 -15.0 0.1 -14.45 -2.55 -14.35 -3.15 -14.3 -3.4 -14.3 -3.75 -15.95 -3.75 -16.0 -3.4 -16.1 -2.8 -16.2 -2.0 -16.35 -1.2 -16.4 -0.95 -16.45 -0.8 -16.5 -0.75 -16.6 -0.8 -16.85 -3.15 -16.95 -3.3 -17.0 -3.35 -17.15 -3.35 -17.45 -3.4 -17.9 -3.4 -18.2 -3.4 -18.3 -3.4 -18.4 -3.15 -18.75 -1.45 -18.8 -1.0 -19.0 -0.6 -19.1 -0.55 -19.1 -3.9 -19.4 -3.85 -19.5 -3.85 -19.7 -3.8 -20.45 -3.65 -20.7 -3.6 -20.85 -3.5 -20.85 -2.7 -20.45 1.25 M-9.2 -3.6 L-9.6 -3.6 -9.7 -3.6 -10.55 -3.5 -11.05 -3.4 -11.05 1.5 -8.0 1.5 -8.0 1.4 -8.2 0.4 -8.3 0.0 -8.35 -0.1 -8.6 -0.1 -9.1 0.05 -9.6 0.25 -9.7 0.25 -9.6 0.05 -9.2 -3.6 M-13.6 -3.85 L-13.6 1.5 -12.25 1.5 -12.15 1.4 -12.15 1.15 -12.1 0.5 -11.95 -1.4 -11.85 -2.4 -11.8 -3.5 -11.9 -3.6 -13.4 -3.85 -13.6 -3.85 M-7.4 -3.3 L-7.4 1.55 -7.15 1.55 -6.8 1.55 -6.35 1.55 -5.9 1.55 -5.3 1.5 -4.85 1.45 -4.35 1.3 -4.15 1.25 -3.9 1.15 -3.85 1.05 -3.85 1.0 -3.8 0.95 -3.75 0.8 -3.6 0.55 -3.4 0.15 -3.3 -0.05 -3.25 -0.2 -3.25 -0.25 -3.2 -0.4 -3.2 -0.55 -3.2 -0.8 -3.2 -0.95 -3.25 -1.1 -3.25 -1.2 -3.25 -1.45 -3.35 -2.25 -3.4 -2.5 -3.55 -2.8 -4.0 -3.0 -4.3 -3.2 -4.5 -3.3 -5.1 -3.6 -5.2 -3.7 -5.35 -3.7 -6.15 -3.6 -6.55 -3.5 -7.2 -3.45 -7.3 -3.4 -7.4 -3.3 M-5.9 0.25 L-5.9 -2.25 -5.8 -2.35 -5.55 -2.45 -5.45 -2.45 -4.5 -1.45 -4.5 -1.1 -4.7 -0.5 -4.75 -0.35 -4.85 -0.15 -4.85 -0.1 -5.35 0.2 -6.0 0.45 -6.05 0.45 -5.9 0.25" fill="none" stroke="#5c522b" stroke-linecap="round" stroke-linejoin="round" stroke-width="2.0"/>
    <path d="M-5.9 0.25 L-6.05 0.45 -6.0 0.45 -5.35 0.2 -4.85 -0.1 -4.85 -0.15 -4.75 -0.35 -4.7 -0.5 -4.5 -1.1 -4.5 -1.45 -5.45 -2.45 -5.55 -2.45 -5.8 -2.35 -5.9 -2.25 -5.9 0.25 M-7.4 -3.3 L-7.3 -3.4 -7.2 -3.45 -6.55 -3.5 -6.15 -3.6 -5.35 -3.7 -5.2 -3.7 -5.1 -3.6 -4.5 -3.3 -4.3 -3.2 -4.0 -3.0 -3.55 -2.8 -3.4 -2.5 -3.35 -2.25 -3.25 -1.45 -3.25 -1.2 -3.25 -1.1 -3.2 -0.95 -3.2 -0.8 -3.2 -0.55 -3.2 -0.4 -3.25 -0.25 -3.25 -0.2 -3.3 -0.05 -3.4 0.15 -3.6 0.55 -3.75 0.8 -3.8 0.95 -3.85 1.0 -3.85 1.05 -3.9 1.15 -4.15 1.25 -4.35 1.3 -4.85 1.45 -5.3 1.5 -5.9 1.55 -6.35 1.55 -6.8 1.55 -7.15 1.55 -7.4 1.55 -7.4 -3.3 M-13.6 -3.85 L-13.4 -3.85 -11.9 -3.6 -11.8 -3.5 -11.85 -2.4 -11.95 -1.4 -12.1 0.5 -12.15 1.15 -12.15 1.4 -12.25 1.5 -13.6 1.5 -13.6 -3.85 M-9.2 -3.6 L-9.6 0.05 -9.7 0.25 -9.6 0.25 -9.1 0.05 -8.6 -0.1 -8.35 -0.1 -8.3 0.0 -8.2 0.4 -8.0 1.4 -8.0 1.5 -11.05 1.5 -11.05 -3.4 -10.55 -3.5 -9.7 -3.6 -9.6 -3.6 -9.2 -3.6 M-20.45 1.25 L-20.85 -2.7 -20.85 -3.5 -20.7 -3.6 -20.45 -3.65 -19.7 -3.8 -19.5 -3.85 -19.4 -3.85 -19.1 -3.9 -19.1 -0.55 -19.0 -0.6 -18.8 -1.0 -18.75 -1.45 -18.4 -3.15 -18.3 -3.4 -18.2 -3.4 -17.9 -3.4 -17.45 -3.4 -17.15 -3.35 -17.0 -3.35 -16.95 -3.3 -16.85 -3.15 -16.6 -0.8 -16.5 -0.75 -16.45 -0.8 -16.4 -0.95 -16.35 -1.2 -16.2 -2.0 -16.1 -2.8 -16.0 -3.4 -15.95 -3.75 -14.3 -3.75 -14.3 -3.4 -14.35 -3.15 -14.45 -2.55 -15.0 0.1 -15.15 0.9 -15.15 0.95 -15.2 1.1 -15.25 1.25 -15.45 1.35 -16.75 1.5 -17.0 1.5 -17.6 -0.65 -17.7 -0.8 -17.9 -0.35 -18.05 0.15 -18.15 0.45 -18.3 0.85 -18.45 1.15 -18.55 1.5 -18.65 1.5 -19.2 1.45 -19.65 1.4 -20.25 1.35 -20.45 1.25 M17.8 0.25 L17.65 0.45 17.7 0.45 18.35 0.2 18.85 -0.1 18.85 -0.15 18.95 -0.35 19.0 -0.5 19.2 -1.1 19.2 -1.45 18.25 -2.45 18.15 -2.45 17.9 -2.35 17.8 -2.25 17.8 0.25 M16.3 -3.3 L16.4 -3.4 16.5 -3.45 17.15 -3.5 17.55 -3.6 18.35 -3.7 18.5 -3.7 18.6 -3.6 19.2 -3.3 19.4 -3.2 19.7 -3.0 20.15 -2.8 20.3 -2.5 20.35 -2.25 20.45 -1.45 20.45 -1.2 20.45 -1.1 20.5 -0.95 20.5 -0.8 20.5 -0.55 20.5 -0.4 20.45 -0.25 20.45 -0.2 20.4 -0.05 20.3 0.15 20.1 0.55 19.95 0.8 19.9 0.95 19.85 1.0 19.85 1.05 19.8 1.15 19.55 1.25 19.35 1.3 18.85 1.45 18.4 1.5 17.8 1.55 17.35 1.55 16.9 1.55 16.55 1.55 16.3 1.55 16.3 -3.3 M12.55 -1.8 L12.75 -1.75 13.0 -1.65 13.4 -1.55 13.5 -1.55 13.7 -1.6 13.85 -1.85 14.0 -2.15 14.0 -2.2 14.05 -2.2 14.0 -2.25 13.95 -2.35 13.7 -2.7 13.5 -2.85 13.45 -2.9 13.45 -2.85 13.4 -2.85 12.9 -2.4 12.45 -1.95 12.5 -1.9 12.55 -1.8 M12.85 -0.3 L12.85 1.15 11.2 1.15 11.2 -3.7 11.25 -3.7 11.55 -3.75 12.05 -3.85 12.9 -3.95 13.25 -4.0 13.5 -4.05 13.7 -4.05 15.3 -3.15 15.3 -2.9 15.15 -1.35 15.0 -1.25 14.85 -1.15 14.6 -0.9 14.7 -0.6 15.0 -0.15 15.4 0.25 15.65 0.8 15.65 0.9 14.3 1.5 14.2 1.5 14.1 1.4 13.85 1.0 13.45 0.4 13.15 0.0 13.0 -0.15 12.85 -0.3 M7.6 -2.7 L7.6 -2.6 7.6 -2.4 7.6 -2.15 7.65 -1.8 7.65 -1.4 7.7 -0.9 7.8 -0.75 7.85 -0.75 7.95 -0.7 Q8.6 -0.7 8.8 -1.0 L8.95 -1.4 9.05 -1.9 9.05 -2.0 8.75 -2.3 8.1 -2.6 7.6 -2.7 M8.9 0.35 L8.7 0.25 7.7 0.45 7.7 1.4 5.9 1.4 6.6 -3.4 6.65 -3.7 Q6.7 -3.85 6.9 -3.85 L8.8 -3.8 9.15 -3.75 9.4 -3.75 9.9 -3.7 10.0 -3.7 10.5 1.05 10.5 1.2 10.4 1.4 8.9 1.55 8.9 0.35 M0.9 -1.55 L0.9 -1.6 1.1 -2.05 1.65 -2.75 1.85 -3.0 2.05 -3.25 2.3 -3.65 2.45 -3.8 2.55 -3.85 2.6 -3.85 2.7 -3.85 2.8 -3.85 2.95 -3.85 3.05 -3.85 3.15 -3.85 4.45 -3.65 4.85 -3.6 4.9 -3.55 5.15 -3.5 5.15 -3.3 5.1 -3.05 5.05 -2.7 4.95 -2.3 4.9 -2.05 4.75 -2.05 4.6 -2.05 4.05 -2.1 3.5 -2.15 3.15 -2.1 2.35 -1.45 2.7 -1.45 2.7 -1.3 2.8 -0.65 2.85 -0.15 2.85 -0.1 2.95 -0.1 3.05 -0.05 3.25 -0.05 3.4 0.0 3.45 0.0 3.55 0.0 Q3.85 0.0 4.3 -0.3 L4.85 -0.65 5.15 -0.35 5.25 0.05 5.25 0.2 5.05 0.7 4.95 1.0 4.5 1.25 4.2 1.3 3.2 1.5 3.05 1.5 2.95 1.45 2.75 1.35 2.55 1.25 2.2 1.05 1.6 0.7 1.55 0.65 1.5 0.5 1.35 0.05 1.25 -0.25 1.0 -1.2 0.9 -1.55" fill="#ffffff" fill-rule="evenodd" stroke="none"/>
  </g>
</svg>
