<?xml version="1.0" encoding="UTF-8" standalone="no"?>
<svg xmlns:xlink="http://www.w3.org/1999/xlink" height="58.15px" width="78.45px" xmlns="http://www.w3.org/2000/svg">
  <g transform="matrix(1.0, 0.0, 0.0, 1.0, -25.3, 2.0)">
    <path d="M36.5 -1.45 L36.35 6.8 28.15 6.8 28.4 -1.45 36.5 -1.45 M100.6 -1.7 L101.4 6.55 93.4 6.55 92.75 -1.7 100.6 -1.7 M102.7 19.9 L103.45 28.1 95.35 28.1 94.65 19.9 102.7 19.9 M59.75 47.75 L59.75 55.85 51.55 55.85 51.55 47.75 59.75 47.75 M34.1 47.75 L33.85 55.85 25.6 55.85 25.85 47.75 34.1 47.75" fill="#dbdbdb" fill-rule="evenodd" stroke="none"/>
    <path d="M36.5 -1.45 L36.35 6.8 28.15 6.8 28.4 -1.45 36.5 -1.45 M100.6 -1.7 L101.4 6.55 93.4 6.55 92.75 -1.7 100.6 -1.7 M102.7 19.9 L103.45 28.1 95.35 28.1 94.65 19.9 102.7 19.9 M59.75 47.75 L59.75 55.85 51.55 55.85 51.55 47.75 59.75 47.75 M34.1 47.75 L33.85 55.85 25.6 55.85 25.85 47.75 34.1 47.75" fill="none" stroke="#adadad" stroke-linecap="round" stroke-linejoin="round" stroke-width="0.6000000000000001"/>
  </g>
</svg>
