<?xml version="1.0" encoding="UTF-8" standalone="no"?>
<svg xmlns:xlink="http://www.w3.org/1999/xlink" height="246.2px" width="698.85px" xmlns="http://www.w3.org/2000/svg">
  <g transform="matrix(1.0, 0.0, 0.0, 1.0, 349.4, 123.1)">
    <path d="M-7.8 -90.8 L-5.55 -87.15 -4.85 -85.25 Q-5.55 -83.6 -5.65 -81.2 L-5.75 -78.5 Q-7.0 -76.1 -9.45 -72.9 L-14.4 -66.7 Q-14.4 -66.15 -14.2 -66.05 -19.15 -62.0 -19.15 -61.3 L-19.0 -60.4 -18.9 -60.15 -17.95 -59.95 Q-15.75 -57.4 -1.75 -54.3 9.45 -51.8 14.95 -51.2 17.75 -49.55 21.25 -49.55 22.4 -49.55 23.0 -50.45 L23.35 -51.1 Q17.25 -53.6 13.25 -58.8 10.4 -62.5 9.25 -66.1 7.0 -71.25 7.0 -78.15 7.0 -81.8 7.55 -85.3 L10.0 -91.55 Q11.6 -95.15 16.35 -99.4 17.6 -100.5 23.9 -102.8 L25.55 -103.4 Q47.65 -104.9 77.45 -98.3 111.6 -90.8 134.9 -77.35 149.9 -68.65 156.05 -59.7 160.5 -53.2 160.25 -46.6 160.15 -43.5 159.45 -40.7 158.7 -37.9 157.35 -35.4 154.9 -30.85 150.3 -27.0 L144.1 -25.0 Q137.05 -22.65 134.55 -21.3 L136.9 -21.3 Q141.0 -20.9 143.65 -18.55 146.75 -15.8 146.75 -11.3 L146.5 -9.5 Q149.65 -10.65 153.95 -9.65 158.8 -8.55 162.05 -5.35 164.3 -3.15 165.2 -0.4 170.8 3.55 175.3 4.25 L174.7 2.45 Q173.85 -1.05 174.45 -4.85 174.45 -9.9 181.05 -13.45 L182.9 -14.35 184.95 -15.15 Q190.1 -18.3 197.85 -18.3 L210.35 -17.8 Q211.8 -17.85 212.2 -18.6 L212.55 -20.2 212.55 -20.25 214.25 -19.7 Q227.0 -15.85 237.95 -10.15 250.0 -3.85 259.85 4.7 L265.0 9.5 Q271.8 16.35 275.9 23.65 278.65 28.5 279.95 32.85 284.55 41.15 285.5 54.7 L285.6 56.5 285.6 56.55 Q284.15 57.5 282.9 58.6 279.0 62.0 279.0 64.3 279.0 68.7 284.0 68.7 286.0 68.7 288.5 65.35 291.4 61.35 292.1 60.95 293.75 60.0 297.05 58.95 L297.3 59.05 300.9 60.8 301.05 60.9 Q308.8 65.1 314.0 71.15 319.8 77.85 319.6 83.75 L319.5 85.8 327.8 94.2 Q339.85 107.1 349.45 120.1 349.45 121.15 348.3 122.15 347.15 123.1 346.05 123.1 L319.95 104.45 310.9 98.05 309.6 98.3 Q308.35 98.25 288.35 85.45 265.35 70.65 255.5 65.6 L237.95 57.1 221.05 48.9 213.25 45.05 212.75 45.6 Q211.5 46.95 209.9 46.9 203.1 42.1 190.85 35.35 L182.9 31.15 Q161.6 20.25 137.7 11.9 L136.3 11.4 112.8 3.25 98.9 -1.55 Q89.7 -4.7 78.55 -7.9 L36.8 -20.35 Q11.05 -27.95 -9.8 -33.25 L-36.85 -40.7 Q-72.4 -50.3 -98.5 -56.5 L-111.2 -59.45 Q-175.8 -73.95 -280.5 -87.15 L-340.45 -89.65 -341.1 -89.9 -342.65 -89.85 -342.8 -89.85 -343.4 -89.85 -343.3 -89.85 -340.75 -90.1 -326.55 -90.95 -320.25 -91.6 -318.1 -91.2 -315.75 -90.85 -299.0 -90.2 -282.5 -88.95 Q-276.2 -88.95 -273.5 -90.1 -271.8 -90.8 -271.25 -92.1 L-265.0 -91.6 Q-260.25 -91.6 -260.25 -94.7 -260.25 -96.05 -263.5 -98.7 -266.75 -101.35 -266.75 -102.2 -266.75 -104.3 -261.2 -107.35 L-258.2 -108.95 -259.1 -108.9 -248.8 -109.5 -227.7 -108.8 Q-215.75 -105.25 -212.5 -103.3 -208.0 -100.65 -208.15 -95.7 -208.2 -94.35 -208.55 -93.65 L-208.55 -93.6 -208.75 -93.25 -208.8 -93.25 -208.85 -93.25 Q-211.75 -91.6 -211.75 -90.2 -211.75 -88.6 -189.5 -86.25 -168.2 -83.95 -157.25 -83.95 -150.3 -83.95 -148.45 -84.85 -147.5 -85.35 -147.5 -87.1 -147.5 -88.55 -151.95 -92.2 -156.4 -95.9 -156.4 -99.85 -156.4 -102.45 -148.95 -108.2 -142.05 -113.6 -138.15 -114.95 -130.0 -117.75 -118.7 -120.2 -115.4 -121.15 -113.6 -122.5 L-99.05 -122.1 -98.5 -122.0 Q-57.9 -115.2 -34.95 -106.5 -16.0 -99.35 -7.8 -90.8 M17.0 -102.45 L14.25 -101.95 14.0 -101.9 12.4 -101.55 17.0 -102.45 M-4.4 -92.85 L-4.45 -92.8 -4.6 -92.6 -6.0 -90.4 -6.1 -90.2 -4.4 -92.85 M-6.25 -89.9 L-6.35 -89.65 -6.4 -89.55 -6.25 -89.9 M63.45 -77.45 Q64.7 -74.05 67.15 -71.15 73.45 -63.9 85.6 -62.45 85.2 -60.35 85.2 -57.9 85.2 -48.5 92.2 -41.45 L93.0 -40.7 Q100.15 -34.05 112.8 -31.9 L126.2 -30.9 Q142.5 -30.9 148.5 -38.65 L149.8 -40.7 Q151.7 -44.45 151.7 -49.9 151.7 -53.65 149.45 -57.35 L148.8 -59.7 Q147.0 -64.45 141.7 -68.75 134.75 -74.4 124.1 -77.8 114.0 -81.0 106.45 -80.5 102.85 -80.25 100.9 -79.2 99.6 -83.6 95.4 -86.9 90.0 -91.2 82.1 -92.15 74.25 -93.1 68.75 -90.2 62.7 -87.05 62.7 -80.55 62.7 -79.6 63.45 -77.45 M168.75 -22.95 Q173.9 -24.65 180.7 -24.95 L180.35 -24.95 179.7 -24.75 Q175.05 -23.05 172.15 -23.05 L168.8 -22.95 168.75 -22.95 M189.4 -24.85 L192.25 -24.65 194.2 -24.45 194.1 -24.45 192.25 -24.65 190.95 -24.75 190.35 -24.8 189.4 -24.85 M195.15 -24.3 L195.75 -24.2 195.55 -24.2 195.15 -24.3 M195.95 -24.15 L198.1 -23.7 196.3 -24.05 195.95 -24.15 M158.25 -19.3 L158.25 -19.25 Q157.9 -18.7 157.65 -17.8 L158.25 -19.3 M237.95 -0.7 Q232.6 -1.65 228.4 -0.7 220.7 1.1 220.7 8.85 220.7 9.3 221.7 11.4 L223.05 14.2 Q226.05 20.2 229.95 25.35 233.8 30.4 237.95 33.9 246.9 41.35 257.2 41.35 264.25 41.35 267.7 35.35 269.95 31.4 269.95 27.45 269.95 19.35 262.25 11.8 L261.85 11.4 Q255.05 4.95 245.35 1.35 241.4 -0.1 237.95 -0.7 M272.9 63.05 L274.9 64.35 Q274.65 63.25 274.7 62.25 L274.7 61.95 Q273.85 62.7 272.9 63.05 M301.85 67.9 Q298.4 66.4 296.05 67.2 293.45 68.05 293.45 71.6 293.45 71.0 296.2 77.2 300.1 83.7 305.2 83.7 307.85 83.7 309.2 81.7 310.2 80.2 310.2 78.35 310.2 75.2 307.6 72.15 305.2 69.35 301.85 67.9 M-275.65 -95.25 L-275.1 -95.3 -275.25 -95.3 -275.65 -95.25 M-269.85 -107.95 L-269.55 -108.0 -268.95 -108.05 -267.1 -108.25 -268.9 -108.05 -268.95 -108.05 -269.0 -108.05 -269.1 -108.05 -269.25 -108.0 -269.3 -108.0 -269.5 -108.0 -269.55 -108.0 -269.65 -107.95 -269.85 -107.95 M-344.1 -89.9 L-343.8 -89.9 -343.5 -89.85 -344.1 -89.9 M-232.15 -104.25 Q-235.05 -104.85 -236.9 -103.5 -239.05 -101.9 -239.05 -98.1 L-238.75 -95.45 Q-237.4 -91.9 -232.3 -91.9 -228.55 -91.9 -226.75 -93.95 -225.3 -95.55 -225.3 -98.05 -225.3 -100.05 -227.45 -101.95 -229.5 -103.75 -232.15 -104.25 M-56.9 -109.3 Q-70.5 -111.8 -79.7 -108.7 -83.05 -107.55 -85.35 -105.75 L-85.3 -106.55 Q-85.3 -109.15 -89.05 -112.05 -92.75 -114.9 -97.3 -115.95 L-98.5 -116.2 Q-102.8 -116.9 -105.55 -115.2 -109.3 -112.9 -109.3 -106.65 L-109.5 -105.25 Q-109.5 -103.55 -108.75 -102.15 -106.55 -97.95 -98.5 -97.65 L-97.3 -97.65 Q-92.6 -97.65 -89.55 -99.5 -90.05 -97.7 -90.05 -95.65 -90.05 -92.95 -86.9 -88.7 -83.4 -84.05 -77.8 -79.9 -63.05 -69.15 -43.8 -69.15 -32.45 -69.15 -27.25 -75.65 -23.8 -80.0 -23.8 -85.8 -23.8 -93.85 -34.15 -100.65 -43.6 -106.9 -56.9 -109.3" fill="#f0fbeb" fill-rule="evenodd" stroke="none"/>
    <path d="M25.55 -103.4 L23.9 -102.8 Q17.6 -100.5 16.35 -99.4 11.6 -95.15 10.0 -91.55 L7.55 -85.3 Q7.0 -81.8 7.0 -78.15 7.0 -71.25 9.25 -66.1 10.4 -62.5 13.25 -58.8 17.25 -53.6 23.35 -51.1 L23.0 -50.45 Q22.4 -49.55 21.25 -49.55 17.75 -49.55 14.95 -51.2 9.45 -51.8 -1.75 -54.3 -15.75 -57.4 -17.95 -59.95 L-18.9 -60.15 -19.0 -60.4 -19.15 -61.3 Q-19.15 -62.0 -14.2 -66.05 -14.4 -66.15 -14.4 -66.7 L-9.45 -72.9 Q-7.0 -76.1 -5.75 -78.5 L-5.65 -81.2 Q-5.55 -83.6 -4.85 -85.25 L-5.55 -87.15 -7.8 -90.8 -6.5 -89.35 -6.4 -89.5 -6.4 -89.55 -6.35 -89.65 -6.25 -89.9 -6.1 -90.2 -6.0 -90.4 -4.6 -92.6 -4.45 -92.8 -4.4 -92.85 -4.3 -93.0 12.4 -101.55 14.0 -101.9 14.25 -101.95 17.0 -102.45 19.45 -102.8 25.55 -103.4 M-113.6 -122.5 Q-115.4 -121.15 -118.7 -120.2 -130.0 -117.75 -138.15 -114.95 -142.05 -113.6 -148.95 -108.2 -156.4 -102.45 -156.4 -99.85 -156.4 -95.9 -151.95 -92.2 -147.5 -88.55 -147.5 -87.1 -147.5 -85.35 -148.45 -84.85 -150.3 -83.95 -157.25 -83.95 -168.2 -83.95 -189.5 -86.25 -211.75 -88.6 -211.75 -90.2 -211.75 -91.6 -208.85 -93.25 L-208.8 -93.25 -208.75 -93.25 -208.8 -93.25 -208.85 -93.15 -208.95 -93.05 -209.5 -92.35 -209.9 -92.2 Q-203.5 -91.75 -201.45 -90.8 L-174.85 -89.65 -172.15 -89.45 Q-176.35 -91.95 -177.35 -93.5 -178.15 -94.65 -178.15 -97.45 -178.15 -98.95 -177.7 -100.45 L-177.75 -101.35 Q-177.6 -105.15 -172.45 -109.35 -167.45 -113.5 -159.3 -116.85 -140.45 -124.6 -122.6 -122.75 L-113.6 -122.5 M-259.1 -108.9 L-258.2 -108.95 -261.2 -107.35 Q-266.75 -104.3 -266.75 -102.2 -266.75 -101.35 -263.5 -98.7 -260.25 -96.05 -260.25 -94.7 -260.25 -91.6 -265.0 -91.6 L-271.25 -92.1 Q-271.8 -90.8 -273.5 -90.1 -276.2 -88.95 -282.5 -88.95 L-299.0 -90.2 -315.75 -90.85 -318.1 -91.2 -320.25 -91.6 -326.55 -90.95 -340.75 -90.1 -343.3 -89.85 -343.4 -89.85 -343.5 -89.85 -343.8 -89.9 -344.1 -89.9 -345.6 -90.0 -348.55 -90.35 -347.85 -90.45 -349.3 -90.6 -349.4 -91.2 Q-349.4 -92.3 -342.75 -92.55 L-342.6 -92.55 -342.6 -92.6 -341.9 -93.3 -332.7 -93.3 -329.15 -93.2 -328.45 -93.75 -326.9 -94.2 -306.5 -93.25 -289.3 -93.8 -280.25 -94.8 -278.4 -95.0 -278.2 -95.05 -275.8 -95.25 -275.65 -95.25 -275.25 -95.3 -275.1 -95.3 -274.85 -95.35 Q-275.7 -95.75 -276.45 -96.3 -278.65 -97.95 -278.65 -99.25 L-278.35 -101.8 Q-278.0 -103.7 -277.65 -104.05 -277.2 -104.55 -276.15 -105.1 -274.4 -107.3 -269.85 -107.95 L-269.65 -107.95 -269.55 -108.0 -269.5 -108.0 -269.3 -108.0 -269.25 -108.0 -269.1 -108.05 -269.0 -108.05 -268.95 -108.05 -268.9 -108.05 -267.1 -108.25 -259.1 -108.9 M297.05 58.95 Q293.75 60.0 292.1 60.95 291.4 61.35 288.5 65.35 286.0 68.7 284.0 68.7 279.0 68.7 279.0 64.3 279.0 62.0 282.9 58.6 284.15 57.5 285.6 56.55 L285.6 56.5 285.6 57.1 287.85 56.75 Q291.85 56.7 297.05 58.95 M212.55 -20.25 L212.55 -20.2 212.2 -18.6 Q211.8 -17.85 210.35 -17.8 L197.85 -18.3 Q190.1 -18.3 184.95 -15.15 L182.9 -14.35 181.05 -13.45 Q174.45 -9.9 174.45 -4.85 173.85 -1.05 174.7 2.45 L175.3 4.25 Q170.8 3.55 165.2 -0.4 164.3 -3.15 162.05 -5.35 158.8 -8.55 153.95 -9.65 149.65 -10.65 146.5 -9.5 L146.75 -11.3 Q146.75 -15.8 143.65 -18.55 141.0 -20.9 136.9 -21.3 L134.55 -21.3 Q137.05 -22.65 144.1 -25.0 L150.3 -27.0 146.05 -23.9 Q150.15 -22.1 154.15 -18.6 L155.85 -17.05 157.3 -15.65 Q157.4 -16.9 157.65 -17.8 157.9 -18.7 158.25 -19.25 L158.25 -19.3 159.0 -20.15 Q160.1 -21.0 162.2 -21.25 L162.5 -21.25 162.85 -21.3 164.8 -21.3 166.55 -22.1 168.75 -22.95 168.8 -22.95 172.15 -23.05 Q175.05 -23.05 179.7 -24.75 L180.35 -24.95 180.7 -24.95 181.2 -25.0 182.9 -25.05 189.4 -24.85 190.35 -24.8 190.95 -24.75 192.25 -24.65 194.1 -24.45 194.2 -24.45 194.6 -24.4 195.15 -24.3 195.55 -24.2 195.75 -24.2 195.8 -24.15 195.95 -24.15 196.3 -24.05 198.1 -23.7 199.9 -23.35 205.25 -22.15 205.8 -22.05 206.45 -21.9 206.4 -21.9 212.55 -20.25" fill="#e3f3f3" fill-rule="evenodd" stroke="none"/>
    <path d="M63.45 -77.45 Q62.7 -79.6 62.7 -80.55 62.7 -87.05 68.75 -90.2 74.25 -93.1 82.1 -92.15 90.0 -91.2 95.4 -86.9 99.6 -83.6 100.9 -79.2 102.85 -80.25 106.45 -80.5 114.0 -81.0 124.1 -77.8 134.75 -74.4 141.7 -68.75 147.0 -64.45 148.8 -59.7 L149.45 -57.35 Q151.7 -53.65 151.7 -49.9 151.7 -44.45 149.8 -40.7 L148.5 -38.65 Q142.5 -30.9 126.2 -30.9 L112.8 -31.9 Q100.15 -34.05 93.0 -40.7 L92.2 -41.45 Q85.2 -48.5 85.2 -57.9 85.2 -60.35 85.6 -62.45 73.45 -63.9 67.15 -71.15 64.7 -74.05 63.45 -77.45 M237.95 -0.7 Q241.4 -0.1 245.35 1.35 255.05 4.95 261.85 11.4 L262.25 11.8 Q269.95 19.35 269.95 27.45 269.95 31.4 267.7 35.35 264.25 41.35 257.2 41.35 246.9 41.35 237.95 33.9 233.8 30.4 229.95 25.35 226.05 20.2 223.05 14.2 L221.7 11.4 Q220.7 9.3 220.7 8.85 220.7 1.1 228.4 -0.7 232.6 -1.65 237.95 -0.7 M301.85 67.9 Q305.2 69.35 307.6 72.15 310.2 75.2 310.2 78.35 310.2 80.2 309.2 81.7 307.85 83.7 305.2 83.7 300.1 83.7 296.2 77.2 293.45 71.0 293.45 71.6 293.45 68.05 296.05 67.2 298.4 66.4 301.85 67.9 M-232.15 -104.25 Q-229.5 -103.75 -227.45 -101.95 -225.3 -100.05 -225.3 -98.05 -225.3 -95.55 -226.75 -93.95 -228.55 -91.9 -232.3 -91.9 -237.4 -91.9 -238.75 -95.45 L-239.05 -98.1 Q-239.05 -101.9 -236.9 -103.5 -235.05 -104.85 -232.15 -104.25 M-56.9 -109.3 Q-43.6 -106.9 -34.15 -100.65 -23.8 -93.85 -23.8 -85.8 -23.8 -80.0 -27.25 -75.65 -32.45 -69.15 -43.8 -69.15 -63.05 -69.15 -77.8 -79.9 -83.4 -84.05 -86.9 -88.7 -90.05 -92.95 -90.05 -95.65 -90.05 -97.7 -89.55 -99.5 -92.6 -97.65 -97.3 -97.65 L-98.5 -97.65 Q-106.55 -97.95 -108.75 -102.15 -109.5 -103.55 -109.5 -105.25 L-109.3 -106.65 Q-109.3 -112.9 -105.55 -115.2 -102.8 -116.9 -98.5 -116.2 L-97.3 -115.95 Q-92.75 -114.9 -89.05 -112.05 -85.3 -109.15 -85.3 -106.55 L-85.35 -105.75 Q-83.05 -107.55 -79.7 -108.7 -70.5 -111.8 -56.9 -109.3" fill="#fdffe7" fill-rule="evenodd" stroke="none"/>
  </g>
</svg>
