<?xml version="1.0" encoding="UTF-8" standalone="no"?>
<svg xmlns:xlink="http://www.w3.org/1999/xlink" height="27.2px" width="21.95px" xmlns="http://www.w3.org/2000/svg">
  <g transform="matrix(1.0, 0.0, 0.0, 1.0, 11.0, 13.4)">
    <path d="M-2.8 -8.95 L-1.85 -8.55 -1.75 -8.55 Q-2.95 -4.7 0.55 0.65 L6.2 7.5 Q7.4 8.45 8.65 9.25 L8.6 9.25 Q0.3 9.85 -3.75 3.85 -7.8 -2.1 -2.8 -8.95" fill="#ffcc33" fill-rule="evenodd" stroke="none"/>
    <path d="M8.6 9.25 L8.95 9.5 8.35 11.2 2.9 11.8 Q-6.8 11.8 -8.7 4.15 -9.25 2.1 -8.75 -0.05 -8.45 -1.6 -7.6 -3.15 -6.1 -6.15 -2.9 -8.95 L-2.8 -8.95 Q-7.8 -2.1 -3.75 3.85 0.3 9.85 8.6 9.25 M-1.5 -8.75 L-2.65 -9.2 -1.85 -11.4 1.3 -10.95 -1.5 -8.75" fill="#cd960d" fill-rule="evenodd" stroke="none"/>
    <path d="M-2.8 -8.95 L-1.85 -8.55 -1.75 -8.55 Q-2.95 -4.7 0.55 0.65 L6.2 7.5 Q7.4 8.45 8.65 9.25 L8.6 9.25 8.95 9.5 8.35 11.2 2.9 11.8 Q-6.8 11.8 -8.7 4.15 -9.25 2.1 -8.75 -0.05 -8.45 -1.6 -7.6 -3.15 -6.1 -6.15 -2.9 -8.95 L-2.8 -8.95 Q-7.8 -2.1 -3.75 3.85 0.3 9.85 8.6 9.25 M-1.5 -8.75 L-2.65 -9.2 -1.85 -11.4 1.3 -10.95 -1.5 -8.75" fill="none" stroke="#635707" stroke-linecap="round" stroke-linejoin="round" stroke-width="4.0"/>
    <path d="M-2.8 -8.95 L-1.85 -8.55 -1.75 -8.55 Q-2.95 -4.7 0.55 0.65 L6.2 7.5 Q7.4 8.45 8.65 9.25 L8.6 9.25 Q0.3 9.85 -3.75 3.85 -7.8 -2.1 -2.8 -8.95" fill="#ffcc33" fill-rule="evenodd" stroke="none"/>
    <path d="M8.6 9.25 L8.95 9.5 8.35 11.2 2.9 11.8 Q-6.8 11.8 -8.7 4.15 -9.25 2.1 -8.75 -0.05 -8.45 -1.6 -7.6 -3.15 -6.1 -6.15 -2.9 -8.95 L-2.8 -8.95 Q-7.8 -2.1 -3.75 3.85 0.3 9.85 8.6 9.25 M-1.5 -8.75 L-2.65 -9.2 -1.85 -11.4 1.3 -10.95 -1.5 -8.75" fill="#cd960d" fill-rule="evenodd" stroke="none"/>
    <path d="M-2.8 -8.95 L-1.85 -8.55 -1.75 -8.55 Q-2.95 -4.7 0.55 0.65 L6.2 7.5 Q7.4 8.45 8.65 9.25 L8.6 9.25 Q0.3 9.85 -3.75 3.85 -7.8 -2.1 -2.8 -8.95" fill="#ffcc33" fill-rule="evenodd" stroke="none"/>
    <path d="M1.3 -10.95 L-1.5 -8.75 -2.65 -9.2 -1.85 -11.4 1.3 -10.95 M8.6 9.25 L8.95 9.5 8.35 11.2 2.9 11.8 Q-6.8 11.8 -8.7 4.15 -9.25 2.1 -8.75 -0.05 -8.45 -1.6 -7.6 -3.15 -6.1 -6.15 -2.9 -8.95 L-2.8 -8.95 Q-7.8 -2.1 -3.75 3.85 0.3 9.85 8.6 9.25" fill="#cd960d" fill-rule="evenodd" stroke="none"/>
  </g>
</svg>
