<?xml version="1.0" encoding="UTF-8" standalone="no"?>
<svg xmlns:xlink="http://www.w3.org/1999/xlink" height="107.25px" width="135.65px" xmlns="http://www.w3.org/2000/svg">
  <g transform="matrix(1.0, 0.0, 0.0, 1.0, 67.8, 53.65)">
    <path d="M24.7 -22.4 L26.6 -22.85 28.0 -23.15 30.0 -18.15 30.15 -23.55 Q42.9 -25.8 53.2 -22.55 L55.0 -18.05 55.1 -21.9 Q62.75 -19.1 65.35 -15.45 65.25 -14.15 58.9 -10.15 53.0 -6.4 45.9 -3.3 L42.5 -5.85 41.95 -1.75 Q36.45 0.45 31.2 1.85 L30.25 -0.2 30.0 2.2 29.25 2.4 27.25 -2.05 26.75 3.0 16.1 4.65 19.35 9.3 20.7 11.5 15.9 17.45 22.95 15.85 Q24.3 18.8 25.15 21.75 L23.05 23.5 25.7 23.45 26.35 26.4 23.9 28.45 26.65 28.4 Q28.2 39.5 23.7 51.0 23.5 51.5 19.7 50.0 15.75 48.45 11.7 46.0 L14.2 43.6 9.9 44.95 Q2.85 40.5 0.05 35.95 L3.1 33.05 -0.9 34.2 -1.4 32.85 2.8 28.85 -1.85 30.25 -3.15 21.6 0.85 18.4 -4.25 16.4 Q-5.55 11.3 -7.2 7.15 -16.55 10.9 -31.4 7.05 L-31.5 4.2 -32.55 6.75 -34.25 6.25 -34.55 3.0 -36.8 5.45 -38.9 4.75 Q-44.9 2.6 -50.3 -0.2 L-50.6 -5.75 -52.65 -1.35 Q-55.5 -2.95 -58.2 -4.65 -66.4 -9.85 -65.15 -11.1 -61.4 -14.95 -49.85 -18.45 L-49.0 -18.7 -47.7 -16.9 -48.05 -18.95 -46.3 -19.35 -44.45 -17.0 -43.25 -20.1 -33.35 -21.1 -32.1 -17.6 -31.35 -21.1 Q-26.4 -21.0 -21.65 -19.95 L-19.5 -19.4 -21.05 -23.1 -20.45 -25.3 -21.1 -26.25 -22.0 -25.35 -24.15 -30.15 -26.8 -32.95 -26.1 -35.5 -26.55 -35.1 -26.75 -35.45 -26.45 -36.6 -28.55 -34.5 -29.75 -35.45 -29.05 -38.25 -30.95 -36.3 Q-33.15 -37.85 -35.5 -38.95 L-34.6 -42.3 -34.9 -42.35 -37.45 -39.8 Q-40.05 -40.85 -42.85 -41.4 -44.9 -40.75 -45.25 -40.95 -44.65 -42.85 -41.8 -45.2 -38.45 -48.0 -33.95 -49.5 -21.55 -53.85 -7.4 -46.7 2.95 -41.55 2.45 -23.0 2.3 -17.8 1.5 -12.9 10.65 -18.6 22.6 -21.85 L24.55 -17.0 24.7 -22.4" fill="#0a541d" fill-rule="evenodd" stroke="none"/>
    <path d="M24.7 -22.4 L24.55 -17.0 22.6 -21.85 Q10.65 -18.6 1.5 -12.9 2.3 -17.8 2.45 -23.0 2.95 -41.55 -7.4 -46.7 -21.55 -53.85 -33.95 -49.5 -38.45 -48.0 -41.8 -45.2 -44.65 -42.85 -45.25 -40.95 -44.9 -40.75 -42.85 -41.4 -40.05 -40.85 -37.45 -39.8 L-34.9 -42.35 -34.6 -42.3 -35.5 -38.95 Q-33.15 -37.85 -30.95 -36.3 L-29.05 -38.25 -29.75 -35.45 -28.55 -34.5 -26.45 -36.6 -26.75 -35.45 -26.55 -35.1 -26.1 -35.5 -26.8 -32.95 -24.15 -30.15 -22.0 -25.35 -21.1 -26.25 -20.45 -25.3 -21.05 -23.1 -19.5 -19.4 -21.65 -19.95 Q-26.4 -21.0 -31.35 -21.1 L-32.1 -17.6 -33.35 -21.1 -43.25 -20.1 -44.45 -17.0 -46.3 -19.35 -48.05 -18.95 -47.7 -16.9 -49.0 -18.7 -49.85 -18.45 Q-61.4 -14.95 -65.15 -11.1 -66.4 -9.85 -58.2 -4.65 -55.5 -2.95 -52.65 -1.35 L-50.6 -5.75 -50.3 -0.2 Q-44.9 2.6 -38.9 4.75 L-36.8 5.45 -34.55 3.0 -34.25 6.25 -32.55 6.75 -31.5 4.2 -31.4 7.05 Q-16.55 10.9 -7.2 7.15 -5.55 11.3 -4.25 16.4 L0.85 18.4 -3.15 21.6 -1.85 30.25 2.8 28.85 -1.4 32.85 -0.9 34.2 3.1 33.05 0.05 35.95 Q2.85 40.5 9.9 44.95 L14.2 43.6 11.7 46.0 Q15.75 48.45 19.7 50.0 23.5 51.5 23.7 51.0 28.2 39.5 26.65 28.4 L23.9 28.45 26.35 26.4 25.7 23.45 23.05 23.5 25.15 21.75 Q24.3 18.8 22.95 15.85 L15.9 17.45 20.7 11.5 19.35 9.3 16.1 4.65 26.75 3.0 27.25 -2.05 29.25 2.4 30.0 2.2 30.25 -0.2 31.2 1.85 Q36.45 0.45 41.95 -1.75 L42.5 -5.85 45.9 -3.3 Q53.0 -6.4 58.9 -10.15 65.25 -14.15 65.35 -15.45 62.75 -19.1 55.1 -21.9 L55.0 -18.05 53.2 -22.55 Q42.9 -25.8 30.15 -23.55 L30.0 -18.15 28.0 -23.15 26.6 -22.85 24.7 -22.4 Z" fill="none" stroke="#0a541d" stroke-linecap="round" stroke-linejoin="round" stroke-width="5.0"/>
    <path d="M-0.15 -5.5 L-16.15 -11.15 -21.05 -23.1 -19.9 -27.55 -22.0 -25.35 -25.45 -32.95 -24.3 -37.4 -26.55 -35.1 -26.75 -35.45 -25.35 -40.8 -28.1 -37.95 Q-29.25 -39.8 -29.95 -40.25 -32.85 -42.25 -36.05 -42.55 L-36.2 -44.8 -37.25 -42.6 -40.05 -42.35 Q-44.7 -40.65 -45.25 -40.95 -44.65 -42.85 -41.8 -45.2 -38.45 -48.0 -33.95 -49.5 -21.55 -53.85 -7.4 -46.7 2.95 -41.55 2.45 -23.0 2.2 -13.8 -0.15 -5.5" fill="#119332" fill-rule="evenodd" stroke="none"/>
    <path d="M4.95 -6.65 L9.8 -2.5 Q15.35 3.0 19.35 9.3 L20.7 11.5 15.9 17.45 22.95 15.85 Q24.3 18.8 25.15 21.75 L23.05 23.5 25.7 23.45 26.35 26.4 23.9 28.45 26.65 28.4 Q28.2 39.5 23.7 51.0 23.5 51.5 19.7 50.0 15.75 48.45 11.7 46.0 L14.2 43.6 9.9 44.95 Q2.85 40.5 0.05 35.95 L3.1 33.05 -0.9 34.2 -1.4 32.85 2.8 28.85 -1.85 30.25 -3.15 21.6 Q-1.15 19.95 0.85 18.4 L-4.25 16.4 Q-6.65 6.9 -10.35 0.65 -12.3 -2.7 -14.55 -4.7 L-16.25 -6.05 4.95 -6.65" fill="#15b93f" fill-rule="evenodd" stroke="none"/>
    <path d="M0.85 18.4 L-4.25 16.4 Q-6.65 6.9 -10.35 0.65 -12.3 -2.7 -14.55 -4.7 L-16.25 -6.05 -8.7 -6.25 Q16.9 17.15 23.65 51.1 L23.0 51.1 19.7 50.0 Q15.75 48.45 11.7 46.0 L14.2 43.6 9.9 44.95 Q2.85 40.5 0.05 35.95 L3.1 33.05 -0.9 34.2 -1.4 32.85 2.8 28.85 -1.85 30.25 -3.15 21.6 Q-1.15 19.95 0.85 18.4" fill="#119332" fill-rule="evenodd" stroke="none"/>
    <path d="M-2.7 24.35 L-3.15 21.6 0.65 18.6 -2.7 24.35 M4.95 -6.65 L9.8 -2.5 11.1 -1.15 10.8 -1.45 Q15.75 3.55 19.35 9.3 L19.4 9.35 Q15.05 7.9 10.4 6.75 9.1 6.45 4.0 13.55 L0.8 18.4 Q-1.75 17.35 -4.25 16.4 -6.65 6.9 -10.35 0.65 -12.3 -2.7 -14.55 -4.7 L-16.2 -6.05 4.95 -6.65" fill="#000000" fill-opacity="0.101960786" fill-rule="evenodd" stroke="none"/>
    <path d="M-3.3 -6.6 Q-3.9 -13.9 -5.6 -21.65 -9.9 -41.3 -18.55 -44.55 -27.15 -47.8 -36.55 -46.35 -39.4 -45.95 -41.9 -45.15 L-41.85 -45.2 Q-38.55 -48.0 -34.0 -49.55 -21.6 -53.85 -7.4 -46.75 2.9 -41.55 2.4 -23.05 2.15 -13.75 -0.15 -5.55 L-3.3 -6.6" fill="#15b93f" fill-rule="evenodd" stroke="none"/>
    <path d="M-0.15 -5.5 L-16.15 -11.15 -21.05 -23.15 -20.0 -27.15 Q-7.35 -20.45 -4.1 -21.4 0.75 -22.9 2.3 -28.95 2.55 -26.2 2.45 -23.0 L2.3 -19.7 2.4 -20.55 Q1.9 -12.65 -0.15 -5.5 M-22.0 -25.4 L-23.6 -29.1 -20.2 -27.25 -22.0 -25.4" fill="#000000" fill-opacity="0.101960786" fill-rule="evenodd" stroke="none"/>
    <path d="M24.55 -17.0 L24.7 -22.4 26.6 -22.85 28.0 -23.15 30.0 -18.15 30.15 -23.55 Q42.9 -25.8 53.2 -22.55 L55.0 -18.05 55.1 -21.9 Q62.75 -19.1 65.35 -15.45 65.25 -14.15 58.9 -10.15 53.0 -6.4 45.9 -3.3 L42.5 -5.85 41.95 -1.75 Q36.45 0.45 31.2 1.85 L30.25 -0.2 30.0 2.2 29.25 2.4 27.25 -2.05 26.75 3.0 Q9.5 6.8 -5.2 2.9 L-8.35 -5.05 -6.4 -7.0 -0.3 -11.75 Q9.45 -18.25 22.6 -21.85 L24.55 -17.0" fill="#15b93f" fill-rule="evenodd" stroke="none"/>
    <path d="M30.0 2.2 L29.25 2.4 27.25 -2.05 26.75 3.0 Q10.75 6.55 -3.05 3.4 L-2.25 2.7 Q0.65 0.1 4.55 -2.35 17.15 -10.3 34.75 -14.65 51.95 -18.85 65.35 -15.35 65.0 -14.0 58.9 -10.15 53.0 -6.4 45.9 -3.3 L42.5 -5.85 41.95 -1.75 Q36.45 0.45 31.2 1.85 L30.25 -0.2 30.0 2.2" fill="#119332" fill-rule="evenodd" stroke="none"/>
    <path d="M31.2 1.85 L30.0 2.2 30.25 -0.2 31.2 1.85" fill="#119332" fill-rule="evenodd" stroke="none"/>
    <path d="M-6.4 -7.0 L-0.3 -11.75 Q6.0 -15.95 13.8 -18.95 4.95 -9.75 6.75 -4.9 8.3 -0.75 26.8 2.45 L26.75 3.0 Q9.5 6.8 -5.2 2.9 L-8.35 -5.05 -6.4 -7.0" fill="#000000" fill-opacity="0.2" fill-rule="evenodd" stroke="none"/>
    <path d="M2.45 -0.8 Q-7.05 13.35 -31.4 7.05 L-31.5 4.2 -32.55 6.75 -34.25 6.25 -34.55 3.0 -36.8 5.45 -38.9 4.75 Q-44.9 2.6 -50.3 -0.2 L-50.6 -5.75 -52.65 -1.35 Q-55.5 -2.95 -58.2 -4.65 -66.4 -9.85 -65.15 -11.1 -61.4 -14.95 -49.85 -18.45 L-49.0 -18.7 -47.7 -16.9 -48.05 -18.95 -46.3 -19.35 -44.45 -17.0 -43.25 -20.1 -33.35 -21.1 -32.1 -17.6 -31.35 -21.1 Q-26.4 -21.0 -21.65 -19.95 -8.9 -17.1 -1.9 -8.7 1.5 -4.45 2.45 -0.8" fill="#15b93f" fill-rule="evenodd" stroke="none"/>
    <path d="M2.95 -0.4 L2.45 -0.75 Q-7.6 14.15 -34.25 6.2 L-34.55 3.0 -36.75 5.4 -36.15 5.6 -38.9 4.7 Q-44.9 2.55 -50.3 -0.2 L-50.6 -5.75 -52.65 -1.35 Q-55.5 -2.95 -58.2 -4.65 -65.85 -9.45 -65.25 -10.9 L-56.7 -12.15 Q-36.95 -14.35 -19.75 -10.3 -5.4 -6.95 2.95 -0.4 M-31.5 4.2 L-32.55 6.7 -31.4 7.0 -31.5 4.2" fill="#119332" fill-rule="evenodd" stroke="none"/>
    <path d="M-31.5 4.2 L-31.4 7.0 -32.55 6.7 -31.5 4.2" fill="#119332" fill-rule="evenodd" stroke="none"/>
    <path d="M2.45 -0.8 Q-5.5 11.1 -23.95 8.55 -12.75 6.0 -6.5 -3.35 -7.7 -8.1 -12.15 -13.55 -14.55 -16.4 -17.35 -18.75 -7.65 -15.6 -1.9 -8.7 1.5 -4.5 2.45 -0.8" fill="#000000" fill-opacity="0.101960786" fill-rule="evenodd" stroke="none"/>
  </g>
</svg>
