<?xml version="1.0" encoding="UTF-8" standalone="no"?>
<svg xmlns:xlink="http://www.w3.org/1999/xlink" height="104.25px" width="78.2px" xmlns="http://www.w3.org/2000/svg">
  <g transform="matrix(1.0, 0.0, 0.0, 1.0, 39.35, 51.65)">
    <path d="M-15.25 -38.0 L-15.15 -37.3 -14.55 -32.1 -14.55 -31.9 -14.55 -31.85 -14.5 -31.6 -14.3 -30.5 -12.95 -24.95 -11.7 -21.55 -10.1 -18.15 -7.35 -13.55 -7.25 -13.4 -7.15 -13.25 -6.2 -11.9 -4.9 -10.15 -4.35 -9.45 -3.7 -8.7 -2.9 -7.8 -2.65 -7.5 -2.25 -7.05 -0.35 -5.1 -0.2 -4.95 Q5.0 0.1 13.15 5.2 L24.3 12.15 24.35 12.2 24.55 12.5 25.1 13.35 26.4 15.6 26.75 16.2 26.75 16.25 29.7 21.6 31.9 25.7 34.35 30.85 28.2 36.45 25.15 24.55 25.1 24.35 24.9 23.65 25.0 24.4 25.2 25.75 25.3 26.3 25.9 30.1 26.15 31.3 26.4 32.5 Q27.2 36.7 28.25 40.7 L28.9 43.2 29.05 43.65 29.2 44.2 29.3 44.65 29.35 44.8 28.4 45.2 27.25 45.65 20.85 48.1 17.9 44.85 10.25 47.5 5.5 44.45 -0.6 44.95 -0.8 44.55 -1.45 43.35 -4.85 36.45 Q-6.0 33.7 -6.9 30.05 L-7.6 27.2 -8.85 26.25 -11.2 24.3 Q-28.5 9.1 -32.75 -18.95 L-33.6 -23.95 Q-34.5 -30.2 -34.7 -36.1 L-34.75 -36.4 Q-35.25 -40.35 -32.7 -43.5 -30.15 -46.65 -26.1 -47.1 -22.0 -47.55 -18.75 -45.05 -17.8 -44.35 -16.8 -43.1 -15.7 -41.75 -15.3 -38.65 L-15.25 -38.0" fill="#bf7926" fill-rule="evenodd" stroke="none"/>
    <path d="M-15.25 -38.0 L-15.15 -37.3 -14.55 -32.1 -14.55 -31.9 -14.55 -31.85 -14.5 -31.6 -14.3 -30.5 -12.95 -24.95 -11.7 -21.55 -10.1 -18.15 -7.35 -13.55 -7.25 -13.4 -7.15 -13.25 -6.2 -11.9 -4.9 -10.15 -4.35 -9.45 -3.7 -8.7 -2.9 -7.8 -2.65 -7.5 -2.25 -7.05 -0.35 -5.1 -0.2 -4.95 Q5.0 0.1 13.15 5.2 L24.3 12.15 24.35 12.2 24.55 12.5 25.1 13.35 26.4 15.6 26.75 16.2 26.75 16.25 29.7 21.6 31.9 25.7 34.35 30.85 28.2 36.45 25.15 24.55 25.1 24.35 24.9 23.65 25.0 24.4 25.2 25.75 25.3 26.3 25.9 30.1 26.15 31.3 26.4 32.5 Q27.2 36.7 28.25 40.7 L28.9 43.2 29.05 43.65 29.2 44.2 29.3 44.65 29.35 44.8 28.4 45.2 27.25 45.65 20.85 48.1 17.9 44.85 10.25 47.5 5.5 44.45 -0.6 44.95 -0.8 44.55 -1.45 43.35 -4.85 36.45 Q-6.0 33.7 -6.9 30.05 L-7.6 27.2 -8.85 26.25 -11.2 24.3 Q-28.5 9.1 -32.75 -18.95 L-33.6 -23.95 Q-34.5 -30.2 -34.7 -36.1 L-34.75 -36.4 Q-35.25 -40.35 -32.7 -43.5 -30.15 -46.65 -26.1 -47.1 -22.0 -47.55 -18.75 -45.05 -17.8 -44.35 -16.8 -43.1 -15.7 -41.75 -15.3 -38.65 L-15.25 -38.0 Z" fill="none" stroke="#3c190a" stroke-linecap="round" stroke-linejoin="round" stroke-width="9.0"/>
    <path d="M-15.25 -38.0 L-15.15 -37.3 -14.55 -32.1 -14.55 -31.9 -14.55 -31.85 -14.5 -31.6 -14.3 -30.5 -12.95 -24.95 -11.7 -21.55 -10.1 -18.15 -7.35 -13.55 -7.25 -13.4 -7.15 -13.25 -6.2 -11.9 -4.9 -10.15 -4.35 -9.45 -3.7 -8.7 -2.9 -7.8 -2.65 -7.5 -2.25 -7.05 -0.35 -5.1 -0.2 -4.95 Q5.0 0.1 13.15 5.2 L24.3 12.15 24.35 12.2 24.55 12.5 25.1 13.35 26.4 15.6 26.75 16.2 26.75 16.25 29.7 21.6 31.9 25.7 34.35 30.85 28.2 36.45 25.15 24.55 25.1 24.35 24.9 23.65 25.0 24.4 25.2 25.75 25.3 26.3 25.9 30.1 26.15 31.3 26.4 32.5 Q27.2 36.7 28.25 40.7 L28.9 43.2 29.05 43.65 29.2 44.2 29.3 44.65 29.35 44.8 28.4 45.2 27.25 45.65 20.85 48.1 17.9 44.85 10.25 47.5 5.5 44.45 -0.6 44.95 -0.8 44.55 -1.45 43.35 -4.85 36.45 Q-6.0 33.7 -6.9 30.05 L-7.6 27.2 -8.85 26.25 -11.2 24.3 Q-28.5 9.1 -32.75 -18.95 L-33.6 -23.95 Q-34.5 -30.2 -34.7 -36.1 L-34.75 -36.4 Q-35.25 -40.35 -32.7 -43.5 -30.15 -46.65 -26.1 -47.1 -22.0 -47.55 -18.75 -45.05 -17.8 -44.35 -16.8 -43.1 -15.7 -41.75 -15.3 -38.65 L-15.25 -38.0" fill="#bf7926" fill-rule="evenodd" stroke="none"/>
    <path d="M-15.25 -38.0 L-15.2 -37.6 -14.55 -31.85 Q-13.9 -27.4 -12.35 -23.15 L-10.1 -18.15 -7.35 -13.55 -7.25 -13.4 -7.15 -13.25 -6.2 -11.9 -4.9 -10.15 -4.35 -9.45 -3.7 -8.7 -2.9 -7.8 -2.65 -7.5 -2.25 -7.05 -0.35 -5.1 -0.2 -4.95 Q5.0 0.1 13.15 5.2 L13.45 5.4 13.65 5.5 24.3 12.15 24.35 12.2 24.55 12.5 25.1 13.35 26.4 15.6 26.75 16.2 26.75 16.25 27.8 18.1 23.75 21.3 Q21.6 17.9 19.95 12.25 20.15 20.25 18.75 28.25 12.6 23.3 9.35 16.35 10.6 25.2 8.45 33.85 3.1 28.75 0.5 21.35 0.4 24.65 -0.85 28.2 L-3.4 34.0 -6.9 30.05 -7.6 27.2 -8.85 26.25 -11.2 24.3 Q-28.5 9.1 -32.75 -18.95 L-33.6 -23.95 Q-34.5 -30.2 -34.7 -36.1 L-34.75 -36.4 Q-35.25 -40.35 -32.7 -43.5 -30.15 -46.65 -26.1 -47.1 -22.0 -47.55 -18.75 -45.05 -17.8 -44.35 -16.8 -43.1 -15.7 -41.75 -15.3 -38.65 L-15.25 -38.0" fill="#70381f" fill-rule="evenodd" stroke="none"/>
  </g>
</svg>
