<?xml version="1.0" encoding="UTF-8" standalone="no"?>
<svg xmlns:xlink="http://www.w3.org/1999/xlink" height="22.55px" width="19.4px" xmlns="http://www.w3.org/2000/svg">
  <g transform="matrix(1.0, 0.0, 0.0, 1.0, 7.3, 26.55)">
    <path d="M3.5 -21.8 Q1.05 -19.4 1.05 -15.95 1.05 -12.5 3.5 -10.1 5.9 -7.7 9.35 -7.7 L11.1 -7.85 Q8.15 -5.0 3.95 -5.0 -0.3 -5.0 -3.3 -8.0 -6.3 -11.0 -6.3 -15.3 -6.3 -19.55 -3.3 -22.55 -0.3 -25.55 3.95 -25.55 6.8 -25.55 9.05 -24.25 5.8 -24.2 3.5 -21.8" fill="#ffcc00" fill-rule="evenodd" stroke="none"/>
    <path d="M3.5 -21.8 Q5.8 -24.2 9.05 -24.25 6.8 -25.55 3.95 -25.55 -0.3 -25.55 -3.3 -22.55 -6.3 -19.55 -6.3 -15.3 -6.3 -11.0 -3.3 -8.0 -0.3 -5.0 3.95 -5.0 8.15 -5.0 11.1 -7.85 L9.35 -7.7 Q5.9 -7.7 3.5 -10.1 1.05 -12.5 1.05 -15.95 1.05 -19.4 3.5 -21.8 Z" fill="none" stroke="#333333" stroke-linecap="round" stroke-linejoin="round" stroke-width="2.0"/>
    <path d="M3.5 -21.8 Q1.05 -19.4 1.05 -15.95 1.05 -12.5 3.5 -10.1 5.9 -7.7 9.35 -7.7 L11.1 -7.85 Q8.15 -5.0 3.95 -5.0 -0.3 -5.0 -3.3 -8.0 -6.3 -11.0 -6.3 -15.3 -6.3 -19.55 -3.3 -22.55 -0.3 -25.55 3.95 -25.55 6.8 -25.55 9.05 -24.25 5.8 -24.2 3.5 -21.8" fill="#ffcc00" fill-rule="evenodd" stroke="none"/>
  </g>
</svg>
