<?xml version="1.0" encoding="UTF-8" standalone="no"?>
<svg xmlns:xlink="http://www.w3.org/1999/xlink" height="173.4px" width="196.6px" xmlns="http://www.w3.org/2000/svg">
  <g transform="matrix(1.0, 0.0, 0.0, 1.0, 98.25, 86.65)">
    <path d="M11.6 -63.65 L11.6 -63.75 Q11.6 -64.45 13.85 -64.5 L18.7 -64.0 22.65 -62.95 18.7 -64.0 13.85 -64.5 Q11.6 -64.45 11.6 -63.75 L11.6 -63.65 11.2 -63.8 Q8.9 -64.75 9.0 -65.45 L9.0 -65.6 Q9.25 -66.2 11.4 -66.2 L16.5 -65.65 20.95 -64.3 Q22.5 -63.55 22.65 -62.95 22.5 -63.55 20.95 -64.3 L16.5 -65.65 11.4 -66.2 Q9.25 -66.2 9.0 -65.6 L9.3 -69.15 9.3 -69.3 Q9.35 -69.95 11.7 -69.9 L13.95 -69.65 16.65 -69.05 21.05 -67.55 Q22.65 -66.7 22.65 -66.1 L22.7 -66.1 22.65 -62.95 22.65 -62.9 22.9 -62.85 Q24.5 -62.1 24.5 -61.5 L24.55 -61.5 24.55 -58.2 24.5 -58.2 24.5 -58.15 Q24.5 -57.65 23.35 -57.4 L23.6 -56.9 23.6 -53.4 23.6 -53.35 Q23.55 -52.7 21.8 -52.3 L17.15 -51.85 14.5 -52.05 11.85 -52.55 Q9.45 -53.25 9.5 -54.0 L9.55 -54.2 9.85 -58.2 9.85 -58.3 Q9.9 -58.95 11.6 -59.2 11.25 -59.5 11.3 -59.75 L11.35 -59.9 11.6 -63.6 11.6 -63.65 M24.5 -58.2 Q24.45 -58.85 22.9 -59.5 L18.55 -60.55 13.65 -60.75 Q11.55 -60.6 11.35 -59.9 11.55 -60.6 13.65 -60.75 L18.55 -60.55 22.9 -59.5 Q24.45 -58.85 24.5 -58.2 M23.6 -53.4 Q23.5 -54.05 21.85 -54.6 L17.3 -55.45 12.0 -55.25 Q9.85 -54.95 9.55 -54.2 9.85 -54.95 12.0 -55.25 L17.3 -55.45 21.85 -54.6 Q23.5 -54.05 23.6 -53.4 M23.35 -57.4 L21.9 -58.2 17.45 -59.15 12.3 -59.3 11.6 -59.2 12.3 -59.3 17.45 -59.15 21.9 -58.2 23.35 -57.4 M-61.85 -59.7 L-62.1 -67.9 Q-62.15 -69.3 -57.8 -70.95 -53.65 -72.45 -47.85 -73.45 L-38.65 -74.1 Q-34.85 -73.8 -34.6 -72.7 L-33.0 -66.55 -32.65 -66.55 Q-28.75 -66.35 -28.4 -65.05 L-28.35 -65.0 -28.3 -65.0 -26.2 -57.4 -26.25 -57.4 Q-26.8 -58.8 -30.65 -58.95 -34.85 -59.0 -40.6 -57.6 -46.8 -56.2 -51.25 -53.85 -55.45 -51.65 -55.8 -50.0 -55.45 -51.65 -51.25 -53.85 -46.8 -56.2 -40.6 -57.6 -34.85 -59.0 -30.65 -58.95 -26.8 -58.8 -26.25 -57.4 L-26.2 -57.3 Q-25.8 -55.8 -29.35 -53.6 -33.15 -51.3 -39.2 -49.6 -45.7 -47.75 -50.6 -47.8 -55.7 -47.7 -55.8 -49.55 L-55.8 -50.0 -56.3 -57.85 -56.95 -57.85 Q-61.85 -57.95 -61.85 -59.55 L-61.85 -59.7 Q-61.8 -61.35 -57.25 -63.3 -52.9 -65.2 -46.85 -66.4 L-37.1 -67.25 Q-34.65 -67.15 -33.55 -66.55 -37.25 -66.5 -42.0 -65.45 -47.9 -64.35 -52.1 -62.45 -56.55 -60.45 -56.45 -58.95 L-56.35 -58.65 -56.3 -57.85 -56.35 -58.65 -56.45 -58.95 Q-56.55 -60.45 -52.1 -62.45 -47.9 -64.35 -42.0 -65.45 -37.25 -66.5 -33.55 -66.55 -34.65 -67.15 -37.1 -67.25 L-46.85 -66.4 Q-52.9 -65.2 -57.25 -63.3 -61.8 -61.35 -61.85 -59.7 M-87.95 -37.3 L-88.35 -37.35 Q-92.05 -38.2 -92.05 -39.35 L-92.05 -39.4 -92.05 -45.3 Q-92.05 -46.4 -88.35 -46.85 -84.85 -47.4 -80.05 -47.0 -75.5 -46.75 -72.4 -45.85 -69.45 -45.0 -69.45 -44.05 L-69.4 -44.05 -69.4 -38.8 -69.1 -38.75 Q-66.3 -38.0 -66.25 -37.1 L-66.2 -37.1 -66.2 -31.95 -66.25 -31.95 -66.25 -31.9 Q-66.3 -31.2 -67.8 -30.6 L-67.7 -30.35 -67.65 -30.35 -67.65 -25.2 -67.7 -25.2 -67.7 -25.15 Q-67.75 -24.2 -70.6 -23.3 -73.65 -22.35 -78.1 -22.05 L-86.25 -22.3 Q-89.8 -22.85 -89.8 -23.95 L-89.75 -24.25 -89.75 -29.6 -89.8 -29.85 Q-89.8 -30.6 -87.85 -31.25 L-87.95 -31.55 -87.9 -31.85 -87.9 -37.2 -87.95 -37.3 -87.95 -37.4 Q-87.95 -38.45 -84.45 -39.1 L-76.5 -39.6 -69.45 -38.8 Q-69.55 -39.85 -72.4 -40.55 L-80.05 -41.55 -88.35 -41.1 Q-92.0 -40.5 -92.05 -39.4 -92.0 -40.5 -88.35 -41.1 L-80.05 -41.55 -72.4 -40.55 Q-69.55 -39.85 -69.45 -38.8 L-76.5 -39.6 -84.45 -39.1 Q-87.95 -38.45 -87.95 -37.4 L-87.95 -37.3 M-66.25 -31.95 Q-66.35 -32.9 -69.1 -33.55 L-76.5 -34.15 -84.45 -33.45 Q-87.65 -32.75 -87.9 -31.85 -87.65 -32.75 -84.45 -33.45 L-76.5 -34.15 -69.1 -33.55 Q-66.35 -32.9 -66.25 -31.95 M-67.8 -30.6 Q-68.1 -31.4 -70.6 -31.9 L-78.1 -32.5 -86.25 -31.65 -87.85 -31.25 -86.25 -31.65 -78.1 -32.5 -70.6 -31.9 Q-68.1 -31.4 -67.8 -30.6 M-67.7 -25.2 Q-67.8 -26.15 -70.6 -26.7 L-78.1 -27.05 -86.25 -25.95 Q-89.45 -25.15 -89.75 -24.25 -89.45 -25.15 -86.25 -25.95 L-78.1 -27.05 -70.6 -26.7 Q-67.8 -26.15 -67.7 -25.2 M-69.4 -38.8 L-69.45 -38.8 -69.4 -38.8" fill="#624900" fill-rule="evenodd" stroke="none"/>
    <path d="M22.65 -62.95 L18.7 -64.0 13.85 -64.5 Q11.6 -64.45 11.6 -63.75 L11.6 -63.65 11.6 -63.6 11.35 -59.9 Q11.55 -60.6 13.65 -60.75 L18.55 -60.55 22.9 -59.5 Q24.45 -58.85 24.5 -58.2 L24.55 -58.2 24.55 -61.5 24.5 -61.5 Q24.5 -62.1 22.9 -62.85 L22.65 -62.9 22.65 -62.95 Q22.5 -63.55 20.95 -64.3 L16.5 -65.65 11.4 -66.2 Q9.25 -66.2 9.0 -65.6 L9.0 -65.45 Q8.9 -64.75 11.2 -63.8 L11.6 -63.65 M22.65 -62.95 L22.7 -66.1 22.65 -66.1 Q22.65 -66.7 21.05 -67.55 L16.65 -69.05 13.95 -69.65 11.7 -69.9 Q9.35 -69.95 9.3 -69.3 L9.3 -69.15 9.0 -65.6 M24.5 -58.2 L24.5 -58.15 Q24.5 -57.65 23.35 -57.4 L23.6 -56.9 23.6 -53.4 23.6 -53.35 Q23.55 -52.7 21.8 -52.3 L17.15 -51.85 14.5 -52.05 11.85 -52.55 Q9.45 -53.25 9.5 -54.0 L9.55 -54.2 9.85 -58.2 9.85 -58.3 Q9.9 -58.95 11.6 -59.2 11.25 -59.5 11.3 -59.75 L11.35 -59.9 M11.6 -59.2 L12.3 -59.3 17.45 -59.15 21.9 -58.2 23.35 -57.4 M9.55 -54.2 Q9.85 -54.95 12.0 -55.25 L17.3 -55.45 21.85 -54.6 Q23.5 -54.05 23.6 -53.4 M-26.25 -57.4 L-26.2 -57.4 -28.3 -65.0 -28.35 -65.0 -28.4 -65.05 Q-28.75 -66.35 -32.65 -66.55 L-33.0 -66.55 -34.6 -72.7 Q-34.85 -73.8 -38.65 -74.1 L-47.85 -73.45 Q-53.65 -72.45 -57.8 -70.95 -62.15 -69.3 -62.1 -67.9 L-61.85 -59.7 Q-61.8 -61.35 -57.25 -63.3 -52.9 -65.2 -46.85 -66.4 L-37.1 -67.25 Q-34.65 -67.15 -33.55 -66.55 -37.25 -66.5 -42.0 -65.45 -47.9 -64.35 -52.1 -62.45 -56.55 -60.45 -56.45 -58.95 L-56.35 -58.65 -56.3 -57.85 -55.8 -50.0 Q-55.45 -51.65 -51.25 -53.85 -46.8 -56.2 -40.6 -57.6 -34.85 -59.0 -30.65 -58.95 -26.8 -58.8 -26.25 -57.4 L-26.2 -57.3 Q-25.8 -55.8 -29.35 -53.6 -33.15 -51.3 -39.2 -49.6 -45.7 -47.75 -50.6 -47.8 -55.7 -47.7 -55.8 -49.55 L-55.8 -50.0 M-56.3 -57.85 L-56.95 -57.85 Q-61.85 -57.95 -61.85 -59.55 L-61.85 -59.7 M-87.95 -37.3 L-88.35 -37.35 Q-92.05 -38.2 -92.05 -39.35 L-92.05 -39.4 -92.05 -45.3 Q-92.05 -46.4 -88.35 -46.85 -84.85 -47.4 -80.05 -47.0 -75.5 -46.75 -72.4 -45.85 -69.45 -45.0 -69.45 -44.05 L-69.4 -44.05 -69.4 -38.8 -69.1 -38.75 Q-66.3 -38.0 -66.25 -37.1 L-66.2 -37.1 -66.2 -31.95 -66.25 -31.95 -66.25 -31.9 Q-66.3 -31.2 -67.8 -30.6 L-67.7 -30.35 -67.65 -30.35 -67.65 -25.2 -67.7 -25.2 -67.7 -25.15 Q-67.75 -24.2 -70.6 -23.3 -73.65 -22.35 -78.1 -22.05 L-86.25 -22.3 Q-89.8 -22.85 -89.8 -23.95 L-89.75 -24.25 -89.75 -29.6 -89.8 -29.85 Q-89.8 -30.6 -87.85 -31.25 L-87.95 -31.55 -87.9 -31.85 -87.9 -37.2 -87.95 -37.3 -87.95 -37.4 Q-87.95 -38.45 -84.45 -39.1 L-76.5 -39.6 -69.45 -38.8 Q-69.55 -39.85 -72.4 -40.55 L-80.05 -41.55 -88.35 -41.1 Q-92.0 -40.5 -92.05 -39.4 M-69.45 -38.8 L-69.4 -38.8 M-89.75 -24.25 Q-89.45 -25.15 -86.25 -25.95 L-78.1 -27.05 -70.6 -26.7 Q-67.8 -26.15 -67.7 -25.2 M-87.85 -31.25 L-86.25 -31.65 -78.1 -32.5 -70.6 -31.9 Q-68.1 -31.4 -67.8 -30.6 M-87.9 -31.85 Q-87.65 -32.75 -84.45 -33.45 L-76.5 -34.15 -69.1 -33.55 Q-66.35 -32.9 -66.25 -31.95" fill="none" stroke="#624900" stroke-linecap="round" stroke-linejoin="round" stroke-width="5.0"/>
    <path d="M-61.85 -59.7 L-62.1 -67.9 Q-62.15 -69.3 -57.8 -70.95 -53.65 -72.45 -47.85 -73.45 L-38.65 -74.1 Q-34.85 -73.8 -34.6 -72.7 L-33.0 -66.55 -32.65 -66.55 Q-28.75 -66.35 -28.4 -65.05 L-28.35 -65.0 -28.3 -65.0 -26.2 -57.4 -26.25 -57.4 Q-26.8 -58.8 -30.65 -58.95 -34.85 -59.0 -40.6 -57.6 -46.8 -56.2 -51.25 -53.85 -55.45 -51.65 -55.8 -50.0 L-56.3 -57.85 -56.35 -58.65 -56.45 -58.95 Q-56.55 -60.45 -52.1 -62.45 -47.9 -64.35 -42.0 -65.45 -37.25 -66.5 -33.55 -66.55 -34.65 -67.15 -37.1 -67.25 L-46.85 -66.4 Q-52.9 -65.2 -57.25 -63.3 -61.8 -61.35 -61.85 -59.7" fill="#dda600" fill-rule="evenodd" stroke="none"/>
    <path d="M-26.25 -57.4 L-26.2 -57.3 Q-25.8 -55.8 -29.35 -53.6 -33.15 -51.3 -39.2 -49.6 -45.7 -47.75 -50.6 -47.8 -55.7 -47.7 -55.8 -49.55 L-55.8 -50.0 Q-55.45 -51.65 -51.25 -53.85 -46.8 -56.2 -40.6 -57.6 -34.85 -59.0 -30.65 -58.95 -26.8 -58.8 -26.25 -57.4 M-56.3 -57.85 L-56.95 -57.85 Q-61.85 -57.95 -61.85 -59.55 L-61.85 -59.7 Q-61.8 -61.35 -57.25 -63.3 -52.9 -65.2 -46.85 -66.4 L-37.1 -67.25 Q-34.65 -67.15 -33.55 -66.55 -37.25 -66.5 -42.0 -65.45 -47.9 -64.35 -52.1 -62.45 -56.55 -60.45 -56.45 -58.95 L-56.35 -58.65 -56.3 -57.85" fill="#ffcc33" fill-rule="evenodd" stroke="none"/>
    <path d="M9.0 -65.6 L9.3 -69.15 9.3 -69.3 Q9.35 -69.95 11.7 -69.9 L13.95 -69.65 16.65 -69.05 21.05 -67.55 Q22.65 -66.7 22.65 -66.1 L22.7 -66.1 22.65 -62.9 22.9 -62.85 Q24.5 -62.1 24.5 -61.5 L24.55 -61.5 24.55 -58.2 24.5 -58.2 Q24.45 -58.85 22.9 -59.5 L18.55 -60.55 13.65 -60.75 Q11.55 -60.6 11.35 -59.9 L11.6 -63.6 11.6 -63.65 11.6 -63.75 Q11.6 -64.45 13.85 -64.5 L18.7 -64.0 22.65 -62.95 Q22.5 -63.55 20.95 -64.3 L16.5 -65.65 11.4 -66.2 Q9.25 -66.2 9.0 -65.6 M23.35 -57.4 L23.6 -56.9 23.6 -53.4 Q23.5 -54.05 21.85 -54.6 L17.3 -55.45 12.0 -55.25 Q9.85 -54.95 9.55 -54.2 L9.85 -58.2 9.85 -58.3 Q9.9 -58.95 11.6 -59.2 L12.3 -59.3 17.45 -59.15 21.9 -58.2 23.35 -57.4" fill="#dda600" fill-rule="evenodd" stroke="none"/>
    <path d="M24.5 -58.2 L24.5 -58.15 Q24.5 -57.65 23.35 -57.4 L21.9 -58.2 17.45 -59.15 12.3 -59.3 11.6 -59.2 Q11.25 -59.5 11.3 -59.75 L11.35 -59.9 Q11.55 -60.6 13.65 -60.75 L18.55 -60.55 22.9 -59.5 Q24.45 -58.85 24.5 -58.2 M23.6 -53.4 L23.6 -53.35 Q23.55 -52.7 21.8 -52.3 L17.15 -51.85 14.5 -52.05 11.85 -52.55 Q9.45 -53.25 9.5 -54.0 L9.55 -54.2 Q9.85 -54.95 12.0 -55.25 L17.3 -55.45 21.85 -54.6 Q23.5 -54.05 23.6 -53.4 M11.6 -63.65 L11.2 -63.8 Q8.9 -64.75 9.0 -65.45 L9.0 -65.6 Q9.25 -66.2 11.4 -66.2 L16.5 -65.65 20.95 -64.3 Q22.5 -63.55 22.65 -62.95 L18.7 -64.0 13.85 -64.5 Q11.6 -64.45 11.6 -63.75 L11.6 -63.65" fill="#ffcc33" fill-rule="evenodd" stroke="none"/>
    <path d="M-92.05 -39.4 L-92.05 -45.3 Q-92.05 -46.4 -88.35 -46.85 -84.85 -47.4 -80.05 -47.0 -75.5 -46.75 -72.4 -45.85 -69.45 -45.0 -69.45 -44.05 L-69.4 -44.05 -69.4 -38.8 -69.45 -38.8 -69.1 -38.75 Q-66.3 -38.0 -66.25 -37.1 L-66.2 -37.1 -66.2 -31.95 -66.25 -31.95 Q-66.35 -32.9 -69.1 -33.55 L-76.5 -34.15 -84.45 -33.45 Q-87.65 -32.75 -87.9 -31.85 L-87.9 -37.2 -87.95 -37.3 -87.95 -37.4 Q-87.95 -38.45 -84.45 -39.1 L-76.5 -39.6 -69.45 -38.8 Q-69.55 -39.85 -72.4 -40.55 L-80.05 -41.55 -88.35 -41.1 Q-92.0 -40.5 -92.05 -39.4 M-67.8 -30.6 L-67.7 -30.35 -67.65 -30.35 -67.65 -25.2 -67.7 -25.2 Q-67.8 -26.15 -70.6 -26.7 L-78.1 -27.05 -86.25 -25.95 Q-89.45 -25.15 -89.75 -24.25 L-89.75 -29.6 -89.8 -29.85 Q-89.8 -30.6 -87.85 -31.25 L-86.25 -31.65 -78.1 -32.5 -70.6 -31.9 Q-68.1 -31.4 -67.8 -30.6" fill="#dda600" fill-rule="evenodd" stroke="none"/>
    <path d="M-66.25 -31.95 L-66.25 -31.9 Q-66.3 -31.2 -67.8 -30.6 -68.1 -31.4 -70.6 -31.9 L-78.1 -32.5 -86.25 -31.65 -87.85 -31.25 -87.95 -31.55 -87.9 -31.85 Q-87.65 -32.75 -84.45 -33.45 L-76.5 -34.15 -69.1 -33.55 Q-66.35 -32.9 -66.25 -31.95 M-67.7 -25.2 L-67.7 -25.15 Q-67.75 -24.2 -70.6 -23.3 -73.65 -22.35 -78.1 -22.05 L-86.25 -22.3 Q-89.8 -22.85 -89.8 -23.95 L-89.75 -24.25 Q-89.45 -25.15 -86.25 -25.95 L-78.1 -27.05 -70.6 -26.7 Q-67.8 -26.15 -67.7 -25.2 M-87.95 -37.3 L-88.35 -37.35 Q-92.05 -38.2 -92.05 -39.35 L-92.05 -39.4 Q-92.0 -40.5 -88.35 -41.1 L-80.05 -41.55 -72.4 -40.55 Q-69.55 -39.85 -69.45 -38.8 L-76.5 -39.6 -84.45 -39.1 Q-87.95 -38.45 -87.95 -37.4 L-87.95 -37.3" fill="#ffcc33" fill-rule="evenodd" stroke="none"/>
    <path d="M75.55 3.95 L73.55 4.4 85.7 48.7 85.75 48.7 95.85 83.6 79.65 83.6 79.85 84.25 74.9 83.6 -56.0 83.6 -57.75 71.65 -80.25 71.2 -95.75 -18.85 -30.75 -65.3 -26.2 -63.35 -29.5 -78.15 -24.25 -84.15 -16.25 -79.4 -15.45 -75.75 Q3.75 -73.85 24.45 -55.85 L26.35 -57.2 32.1 -53.85 34.8 -41.75 50.75 -35.2 Q58.95 -31.7 62.55 -29.25 70.7 -21.85 73.2 -10.75 74.45 -5.2 74.1 -1.15 L75.5 3.7 75.55 3.95 M66.8 4.3 L66.25 3.65 66.65 3.75 66.8 4.3 66.65 3.75 66.25 3.65 66.8 4.3 M71.45 38.75 Q70.4 39.15 69.4 39.6 L71.25 46.25 73.3 46.6 72.85 43.8 71.45 38.75 M75.45 37.0 L74.35 37.45 77.15 47.25 78.2 47.45 75.45 37.0 M70.8 36.5 L70.3 34.65 69.7 34.5 67.85 34.05 68.8 37.35 70.8 36.5 M57.9 0.95 L55.55 0.2 60.45 17.1 60.55 17.5 60.9 18.7 64.45 31.0 74.5 33.5 69.85 15.9 57.9 0.95" fill="#000000" fill-rule="evenodd" stroke="none"/>
    <path d="M75.55 3.95 L73.55 4.4 85.7 48.7 85.75 48.7 95.85 83.6 79.65 83.6 79.85 84.25 74.9 83.6 -56.0 83.6 -57.75 71.65 -80.25 71.2 -95.75 -18.85 -30.75 -65.3 -26.2 -63.35 -29.5 -78.15 -24.25 -84.15 -16.25 -79.4 -15.45 -75.75 Q3.75 -73.85 24.45 -55.85 L26.35 -57.2 32.1 -53.85 34.8 -41.75 50.75 -35.2 Q58.95 -31.7 62.55 -29.25 70.7 -21.85 73.2 -10.75 74.45 -5.2 74.1 -1.15 L75.5 3.7 75.55 3.95 M66.8 4.3 L66.65 3.75 66.25 3.65 66.8 4.3 M57.9 0.95 L69.85 15.9 74.5 33.5 64.45 31.0 60.9 18.7 60.55 17.5 60.45 17.1 55.55 0.2 57.9 0.95 M70.8 36.5 L68.8 37.35 67.85 34.05 69.7 34.5 70.3 34.65 70.8 36.5 M75.45 37.0 L78.2 47.45 77.15 47.25 74.35 37.45 75.45 37.0 M71.45 38.75 L72.85 43.8 73.3 46.6 71.25 46.25 69.4 39.6 Q70.4 39.15 71.45 38.75" fill="none" stroke="#604331" stroke-linecap="round" stroke-linejoin="round" stroke-width="5.0"/>
    <path d="M-18.8 -75.1 Q-7.45 -73.95 2.05 -69.9 13.25 -65.1 23.6 -55.6 L24.2 -55.7 26.4 -57.25 34.15 -30.75 32.45 -31.75 48.15 17.55 -1.7 7.8 -3.95 -1.0 -15.6 -48.55 -21.65 -43.0 -29.5 -78.15 -24.25 -84.1 -19.85 -81.5 -18.8 -75.1" fill="#634432" fill-rule="evenodd" stroke="none"/>
    <path d="M61.7 41.45 L62.3 41.45 62.2 40.8 80.95 32.65 80.95 52.6 65.05 59.45 64.85 58.3 64.7 57.0 64.2 57.0 64.0 55.9 64.5 55.9 64.45 55.3 65.9 54.65 63.85 42.0 61.95 42.75 61.7 41.45 M67.85 40.25 L65.05 41.45 67.2 54.2 69.95 53.05 67.85 40.25 M72.5 38.25 L69.4 39.6 71.5 52.4 74.65 51.05 72.5 38.25 M79.2 48.95 L77.1 36.25 74.3 37.45 76.4 50.15 79.2 48.95" fill="#7c563f" fill-rule="evenodd" stroke="none"/>
    <path d="M61.55 40.45 L80.3 32.35 80.3 52.3 64.45 59.15 64.25 57.95 63.8 54.95 65.3 54.35 63.2 41.65 61.85 42.25 61.55 40.45 M67.2 39.95 L64.45 41.15 66.55 53.9 69.3 52.75 67.2 39.95 M78.6 48.65 L76.45 35.95 73.65 37.15 75.75 49.85 78.6 48.65 M71.85 37.95 L68.75 39.25 70.85 52.05 74.0 50.75 71.85 37.95" fill="#9a7c6b" fill-rule="evenodd" stroke="none"/>
    <path d="M46.05 -32.5 L79.85 84.25 -9.0 72.6 -80.25 71.2 -95.75 -18.85 -30.75 -65.3 46.05 -32.5" fill="#7c563f" fill-rule="evenodd" stroke="none"/>
    <path d="M26.35 -57.25 L32.1 -53.85 37.75 -28.55 36.05 -29.55 51.75 19.75 1.9 10.0 -0.35 1.2 -12.0 -46.35 -16.4 -49.0 -24.25 -84.15 -16.25 -79.4 -15.45 -75.75 Q5.0 -73.75 27.2 -53.4 L26.35 -57.25" fill="#a37152" fill-rule="evenodd" stroke="none"/>
    <path d="M-20.2 -36.5 Q-24.9 -33.7 -32.5 -31.0 L-46.05 -26.3 -46.1 -26.5 -39.95 -30.35 Q-37.75 -31.7 -33.4 -32.45 -31.25 -32.8 -26.4 -34.55 L-20.3 -36.7 -20.2 -36.5 M-20.3 -22.9 Q-25.75 -20.85 -29.65 -20.1 -32.5 -19.6 -36.4 -18.05 -40.3 -16.5 -42.7 -15.0 -39.35 -18.1 -29.9 -21.0 L-14.1 -25.6 Q-15.55 -24.65 -20.3 -22.9 M-5.75 16.25 Q-10.25 19.15 -21.65 23.2 L-38.3 29.1 -38.4 28.95 Q-31.9 25.6 -21.25 21.75 L-5.75 16.25 M-7.75 35.65 Q-11.85 37.5 -33.65 42.15 -34.5 42.15 -35.65 42.7 L-36.05 42.4 Q-34.5 41.7 -23.75 39.0 L-8.6 35.4 -7.75 35.65 M-2.05 38.05 L-38.35 51.25 -28.05 46.55 Q-21.9 43.75 -18.5 42.7 L-10.55 40.15 Q-4.1 38.2 -2.05 38.05 M-46.6 -53.95 Q-51.55 -49.05 -56.9 -44.55 -68.4 -34.9 -83.0 -26.15 -78.9 -30.2 -70.1 -36.05 -60.9 -42.25 -58.05 -44.85 L-52.1 -49.8 -49.85 -51.65 -46.6 -53.95 M-25.3 -61.3 Q-27.2 -58.65 -31.6 -53.8 L-38.1 -46.3 Q-40.55 -43.1 -47.45 -39.45 L-58.55 -33.7 -48.65 -40.35 Q-41.85 -44.65 -39.4 -47.2 L-32.6 -54.55 -25.45 -61.45 -25.3 -61.3 M-75.75 -26.4 Q-70.35 -29.75 -61.5 -35.55 L-47.65 -44.55 Q-56.1 -37.95 -74.4 -25.5 L-94.6 -12.15 -94.9 -14.0 -89.3 -17.25 Q-86.15 -18.85 -82.5 -21.6 L-75.75 -26.4 M-94.15 -9.65 Q-84.1 -16.3 -68.7 -23.5 -73.9 -19.15 -84.7 -13.8 L-94.05 -8.9 -94.15 -9.65 M-86.65 3.2 Q-86.65 2.05 -79.65 -1.6 -72.7 -5.25 -68.5 -6.25 -59.4 -8.5 -55.5 -10.15 -51.25 -11.9 -49.35 -14.5 -50.0 -11.6 -54.25 -9.4 -58.45 -7.3 -67.35 -5.25 -70.5 -4.55 -76.6 -1.45 L-86.5 3.5 Q-86.65 3.7 -86.65 3.2 M-92.1 2.25 Q-86.8 0.65 -82.05 -1.9 -78.45 -3.85 -71.25 -8.95 -64.7 -13.6 -60.2 -15.8 -53.2 -19.15 -44.6 -20.5 L-44.5 -20.4 -44.45 -20.0 -52.15 -16.55 Q-61.95 -12.1 -71.3 -7.15 L-81.7 -1.2 Q-87.9 2.05 -91.95 3.15 L-92.1 2.25 M-90.8 9.75 L-89.0 8.7 Q-80.75 4.2 -73.4 1.65 L-90.55 11.35 -90.8 9.75 M-64.45 -9.1 Q-63.95 -10.45 -62.5 -11.25 -61.35 -11.9 -57.85 -13.0 L-55.4 -13.1 Q-54.95 -12.8 -54.95 -12.0 -54.95 -11.15 -57.8 -9.85 -60.55 -8.6 -62.05 -8.6 L-63.35 -8.75 Q-64.3 -8.95 -64.45 -9.1 M-24.95 -11.65 Q-22.2 -12.95 -21.0 -13.7 -27.35 -9.05 -29.4 -7.8 -35.3 -4.2 -42.0 -2.2 L-31.0 -8.75 -24.95 -11.65 M-25.85 2.6 L-11.6 -3.0 Q-21.9 3.45 -38.4 8.95 -47.8 12.15 -67.55 18.35 L-67.6 18.2 Q-65.4 17.6 -61.45 15.3 -57.45 12.9 -54.35 12.05 L-39.75 7.85 Q-36.75 7.05 -25.85 2.6 M-34.1 -1.55 Q-42.75 3.55 -66.7 12.85 -80.8 18.3 -88.7 22.05 L-88.9 20.85 Q-81.55 16.7 -67.95 11.4 -42.15 2.05 -34.1 -1.55 M-33.05 32.5 L-45.8 36.15 -55.35 39.1 Q-61.35 40.95 -65.85 42.75 L-66.3 42.55 Q-53.6 36.9 -23.05 28.2 -26.1 30.4 -33.05 32.5 M-48.0 30.1 Q-50.75 33.0 -57.65 35.55 -61.3 36.95 -69.85 39.35 L-81.4 43.2 -84.85 44.35 -84.75 44.85 -85.15 42.7 -82.45 41.75 -71.3 37.75 -58.0 33.55 -48.0 30.1 M-52.85 54.75 Q-56.55 56.25 -64.3 57.95 L-74.3 60.2 Q-75.65 60.6 -81.6 63.25 L-81.45 64.25 -81.95 61.15 -81.85 61.7 Q-78.45 60.25 -74.9 59.2 -67.45 56.95 -53.5 54.55 L-52.85 54.75 M-56.2 53.3 L-68.4 57.2 Q-76.65 59.65 -82.1 60.45 L-82.35 59.0 Q-75.7 57.45 -62.7 53.55 -37.15 45.9 -31.3 44.6 -36.05 47.55 -41.45 49.15 L-54.3 52.7 -55.7 53.15 -55.1 53.3 -56.2 53.3 M-37.4 22.8 Q-28.8 19.2 -14.7 12.7 -22.9 17.95 -37.4 23.9 -53.55 30.55 -62.8 31.65 -60.15 29.8 -51.3 27.25 -40.5 24.1 -37.4 22.8 M-87.45 29.4 L-87.6 28.5 -83.55 26.85 Q-75.15 23.5 -73.2 22.9 -75.1 24.3 -83.8 27.9 L-87.45 29.4 M-84.35 47.2 L-83.75 47.0 Q-79.45 45.8 -75.7 45.15 -78.65 46.65 -83.7 48.75 L-84.05 48.9 -84.35 47.2" fill="#6b4832" fill-rule="evenodd" stroke="none"/>
    <path d="M-83.05 54.9 L-83.5 52.15 1.1 22.9 2.05 23.0 Q2.55 23.2 2.85 23.75 L3.0 24.75 2.4 25.4 -83.05 54.9 M-1.55 -27.25 Q-1.7 -26.8 -2.15 -26.55 L-89.55 17.05 -90.0 14.35 -90.5 14.55 -3.45 -28.8 -2.5 -28.85 -1.7 -28.25 Q-1.45 -27.75 -1.55 -27.25 M-92.75 -1.6 L-93.2 -4.25 -94.0 -3.8 -8.4 -55.6 -8.2 -55.7 -6.55 -54.95 -6.5 -54.25 Q-6.65 -53.75 -7.1 -53.45 L-92.75 -1.6 M0.0 -1.85 Q0.45 -2.05 0.95 -1.85 L1.75 -1.1 1.9 -0.15 1.3 0.55 -86.2 36.55 -86.65 33.75 0.0 -1.85" fill="#634432" fill-rule="evenodd" stroke="none"/>
    <path d="M-30.75 -65.3 L46.05 -32.5 79.85 84.25 -9.0 72.6 -11.3 58.15 -26.15 -36.05 -30.75 -65.3" fill="#a37152" fill-rule="evenodd" stroke="none"/>
    <path d="M32.2 -51.15 Q30.8 -51.15 20.3 -55.4 10.65 -59.3 8.35 -60.5 1.9 -63.9 -9.5 -65.75 -13.6 -66.4 -15.0 -67.1 -17.05 -68.1 -17.05 -70.25 L-16.95 -70.65 -16.75 -70.7 -15.55 -69.05 Q-14.75 -68.05 -13.25 -67.35 L-5.45 -66.75 -0.75 -65.9 4.95 -64.0 10.4 -61.6 15.8 -58.65 Q19.5 -56.5 20.55 -56.0 22.5 -55.1 26.75 -53.85 L27.2 -53.4 27.15 -53.7 Q30.7 -52.75 32.45 -51.45 L32.5 -51.3 32.55 -51.2 32.2 -51.15 M26.95 -48.45 L31.8 -46.85 31.75 -46.75 31.35 -46.65 Q26.65 -46.65 22.25 -49.0 L17.4 -52.0 10.3 -54.65 Q5.3 -56.25 2.55 -57.75 L9.95 -56.35 Q15.05 -55.3 17.7 -53.35 19.25 -52.85 20.55 -51.65 L23.15 -49.65 26.95 -48.45 M5.2 -65.8 L8.95 -65.2 Q10.2 -64.75 10.2 -63.8 10.2 -63.2 8.3 -63.2 7.95 -63.2 6.7 -63.8 L5.2 -64.7 5.2 -65.8 M5.05 -68.95 L-1.5 -70.1 -14.0 -72.7 Q-18.75 -73.8 -22.45 -76.05 L-22.6 -76.85 -19.15 -75.3 Q-16.15 -74.0 -13.95 -73.65 L-0.6 -71.3 Q2.7 -70.5 5.05 -68.95 M-19.7 -65.3 Q-19.05 -64.65 -16.1 -63.6 -12.95 -62.5 -12.25 -61.95 L-12.2 -61.8 -13.6 -61.95 -16.55 -62.15 Q-17.25 -62.15 -19.7 -63.9 L-20.1 -65.7 -19.7 -65.3 M-3.15 -55.0 L6.45 -53.95 9.6 -53.15 13.2 -51.95 12.45 -51.85 1.5 -52.8 -10.1 -54.45 -14.95 -55.5 -15.5 -55.5 Q-16.95 -55.5 -21.35 -56.75 -26.6 -58.25 -29.05 -59.9 L-29.7 -59.9 -29.7 -60.9 -29.0 -60.95 -25.6 -60.05 Q-23.3 -59.4 -21.8 -58.55 -18.2 -58.05 -14.65 -57.0 L-8.15 -55.75 -3.15 -55.0" fill="#915c3b" fill-rule="evenodd" stroke="none"/>
    <path d="M24.85 -50.35 L24.95 -50.6 24.75 -50.95 24.5 -51.2 Q24.4 -51.2 24.25 -51.3 L24.15 -51.45 23.8 -51.6 23.95 -51.75 23.85 -52.0 24.1 -51.9 24.2 -52.1 24.3 -51.8 26.7 -50.6 26.75 -50.65 27.1 -50.4 26.9 -50.25 26.9 -50.1 26.8 -50.15 26.85 -50.0 27.15 -50.15 26.95 -49.85 27.1 -49.35 26.35 -49.7 26.1 -49.8 26.1 -49.75 25.4 -48.75 25.35 -48.75 25.35 -48.7 24.75 -47.75 26.4 -45.25 26.4 -45.3 27.95 -42.95 28.55 -42.15 28.6 -42.1 29.05 -41.65 29.05 -41.6 29.2 -41.45 29.7 -41.2 29.85 -41.1 30.25 -39.5 27.5 -40.8 27.4 -40.85 27.35 -41.0 25.3 -44.2 24.0 -46.2 23.4 -47.05 24.15 -44.1 24.25 -43.65 24.6 -43.15 24.9 -42.85 25.25 -42.75 25.3 -42.7 25.55 -42.55 25.35 -42.4 25.45 -42.15 25.25 -42.25 25.05 -42.05 25.05 -42.35 22.15 -43.65 22.15 -43.75 21.95 -43.75 22.1 -43.9 22.05 -44.2 22.3 -44.15 22.4 -44.2 22.5 -44.1 22.75 -44.0 22.9 -44.3 22.8 -44.65 21.05 -52.2 20.95 -52.65 20.55 -53.2 20.1 -53.5 20.0 -53.65 Q19.75 -53.7 19.55 -53.85 L19.7 -53.95 19.4 -54.1 19.65 -54.25 19.7 -54.25 19.9 -54.15 20.0 -54.25 20.1 -54.05 20.15 -54.0 22.75 -52.65 23.1 -52.5 23.0 -52.35 23.0 -52.1 22.8 -52.15 22.65 -52.0 22.6 -52.2 22.4 -52.2 Q22.2 -52.35 22.2 -52.0 L22.35 -51.5 23.1 -48.4 23.45 -48.2 23.9 -48.7 24.5 -49.35 24.8 -50.25 24.85 -50.35 24.6 -50.55 24.6 -50.5 24.6 -50.45 24.6 -50.55 24.55 -50.6 24.6 -50.55 24.7 -50.5 24.85 -50.35 M23.4 -48.45 L23.3 -48.45 23.25 -48.55 23.4 -48.45 M22.4 -51.75 L22.3 -51.8 22.5 -51.85 22.55 -52.0 22.55 -51.75 22.4 -51.75 M20.65 -52.4 L20.55 -52.55 20.55 -52.8 20.65 -52.4 M20.35 -52.85 L20.3 -52.9 20.4 -52.8 20.35 -52.85 M24.35 -50.8 Q24.1 -51.0 24.15 -51.2 L24.55 -50.75 24.35 -50.8 M26.5 -50.2 L26.5 -50.1 26.65 -50.15 26.6 -50.2 26.5 -50.2 M2.8 -58.85 L3.55 -62.85 3.6 -63.3 4.6 -62.8 10.35 -51.05 10.35 -51.0 10.75 -50.4 11.2 -49.8 11.55 -49.5 11.7 -49.45 11.85 -49.4 11.9 -49.35 12.3 -49.2 12.65 -49.3 12.7 -49.3 12.35 -50.8 11.15 -56.2 10.9 -56.85 10.9 -56.9 10.5 -57.6 10.45 -57.65 9.85 -58.2 9.8 -58.25 9.8 -58.3 9.55 -58.7 9.0 -59.15 8.75 -60.45 Q10.35 -59.55 12.0 -58.75 L12.15 -58.7 12.2 -58.6 18.55 -48.65 17.6 -52.75 17.25 -54.15 16.8 -54.9 16.1 -55.5 15.55 -56.0 15.35 -56.55 18.75 -54.7 19.3 -54.4 19.05 -54.25 19.05 -54.1 Q18.95 -54.15 18.95 -54.15 L18.7 -54.0 18.65 -54.2 18.55 -54.15 18.5 -54.25 18.35 -53.95 18.35 -53.8 18.2 -53.95 18.25 -53.95 18.45 -54.25 18.15 -54.35 Q17.9 -54.2 17.95 -53.75 L18.15 -52.55 20.0 -45.05 20.15 -44.95 20.05 -44.75 20.05 -44.55 19.9 -44.65 19.7 -44.5 19.7 -44.7 19.5 -44.8 12.6 -55.45 13.75 -50.7 13.75 -50.65 14.15 -49.3 14.15 -49.25 14.2 -49.2 14.5 -48.7 14.7 -48.3 15.1 -47.95 15.75 -47.65 16.0 -47.5 16.2 -45.9 7.45 -49.9 7.15 -51.55 7.7 -51.3 8.4 -51.0 7.05 -53.75 3.95 -55.25 3.9 -54.95 3.9 -54.8 3.85 -54.6 3.75 -54.25 3.8 -53.75 3.9 -53.55 3.9 -53.45 4.45 -52.85 Q4.65 -52.65 5.25 -52.4 L5.45 -52.3 5.95 -50.55 0.95 -52.8 0.7 -54.2 1.05 -54.25 1.65 -54.05 1.7 -54.1 1.8 -54.2 1.95 -54.2 2.15 -54.25 2.25 -54.65 2.2 -54.7 2.8 -58.85 M-2.35 -56.35 L-2.25 -56.35 Q-2.0 -56.75 -2.2 -57.85 -2.5 -58.8 -3.25 -59.85 L-5.2 -61.3 -5.95 -61.7 -5.15 -57.9 -5.15 -57.8 -4.9 -57.35 -4.85 -57.3 -3.65 -56.5 -2.35 -56.35 M-4.2 -62.75 L-4.1 -63.15 -4.2 -64.15 -5.0 -65.7 -4.95 -65.65 -6.6 -67.0 -6.65 -67.0 -6.7 -67.05 -7.15 -67.25 -6.35 -63.4 -5.65 -63.0 -5.6 -63.0 -4.55 -62.7 -4.2 -62.75 M-11.4 -69.6 L-11.65 -69.7 -12.0 -71.4 -5.75 -68.15 -4.35 -67.25 -4.3 -67.2 -3.25 -66.25 -2.15 -64.85 -1.5 -63.35 -1.5 -63.25 -1.45 -62.15 -1.45 -62.05 -1.5 -62.0 -1.85 -61.3 -1.9 -61.1 -2.05 -61.1 -2.5 -61.05 -1.3 -59.95 -1.3 -59.9 -0.1 -58.45 0.0 -58.35 0.0 -58.25 0.45 -56.8 0.5 -56.7 0.5 -55.3 0.45 -55.2 0.45 -55.1 -0.25 -54.25 -0.3 -54.2 -1.6 -54.3 -3.1 -54.7 -3.1 -54.65 -8.8 -57.25 -9.05 -57.4 -9.4 -59.0 -8.9 -58.9 -8.1 -58.55 -8.1 -58.5 -7.9 -58.45 -7.8 -58.55 -7.8 -58.8 -9.8 -67.85 -10.0 -68.35 -10.0 -68.4 -10.3 -68.85 -10.9 -69.3 -11.4 -69.6 M24.25 -49.7 L24.2 -49.6 24.2 -49.65 24.25 -49.7 M26.65 -49.8 L26.7 -49.9 26.55 -49.85 26.6 -49.8 26.65 -49.8 M12.05 -56.3 L12.05 -56.4 12.05 -56.3 M22.4 -44.55 L22.45 -44.5 22.3 -44.55 22.4 -44.55 M22.5 -44.35 L22.5 -44.4 22.45 -44.55 22.85 -44.4 22.5 -44.35 M24.8 -43.45 L24.85 -43.4 24.75 -43.5 24.8 -43.45 M24.95 -43.3 L25.05 -43.3 25.05 -43.25 24.95 -43.3 M16.85 -54.1 L17.0 -53.9 16.95 -54.0 16.85 -54.1 M16.5 -54.7 L16.45 -54.75 16.45 -54.9 16.5 -54.7 M4.45 -59.05 L4.2 -56.7 6.0 -55.8 4.45 -59.05" fill="#ffcc33" fill-rule="evenodd" stroke="none"/>
    <path d="M-9.05 -1.85 L-11.15 -1.5 Q-12.7 -1.5 -14.2 -2.15 -15.65 -2.85 -18.6 -2.85 L-18.9 -3.15 -18.5 -3.5 -15.9 -3.7 -13.9 -3.4 -12.65 -3.1 0.25 -4.45 Q11.15 -3.6 18.5 -1.45 25.85 1.15 30.75 2.35 L28.55 2.6 Q27.05 2.6 19.85 0.55 12.65 -1.55 8.4 -1.55 L4.85 -1.9 -7.4 -2.25 -9.05 -1.85 M-3.25 4.4 Q8.35 3.85 19.25 7.05 L18.5 7.25 11.05 6.25 -3.1 4.85 -3.25 4.4 M33.25 5.8 Q37.2 6.15 45.75 8.95 52.35 11.15 59.05 12.35 L59.55 14.15 59.5 14.15 Q56.65 14.15 45.8 10.4 L33.25 6.05 33.25 5.8 M47.6 31.25 Q49.55 31.95 52.2 31.95 58.6 31.95 63.55 30.15 L64.15 29.95 66.75 38.9 66.5 38.1 64.8 37.55 61.95 36.5 61.55 36.35 Q62.25 35.45 65.85 35.95 L64.6 31.65 62.65 32.25 Q58.7 33.35 54.6 33.35 51.2 33.35 47.8 32.4 L43.7 32.05 Q44.75 31.25 47.6 31.25 M50.8 36.05 L41.2 35.5 38.3 34.5 45.6 34.95 55.55 35.7 53.2 35.9 50.8 36.05 M46.45 27.2 Q42.4 25.45 35.85 24.65 35.7 24.75 35.7 24.25 L35.75 23.9 35.8 23.95 Q39.8 24.2 46.35 25.7 53.0 27.25 62.3 27.85 L62.95 28.1 53.0 28.65 Q49.8 28.65 46.45 27.2 M21.05 26.8 L16.75 27.05 7.9 26.05 -3.35 24.95 -3.8 24.65 1.5 24.3 11.25 25.6 21.9 25.95 22.65 26.25 21.05 26.8 M9.9 18.45 Q7.35 19.95 -1.7 19.95 L-5.3 19.35 -10.2 18.8 -17.5 18.75 -16.65 24.15 -14.7 24.5 -6.95 24.85 -6.0 24.95 -5.3 25.2 -5.25 25.4 Q-6.35 26.3 -10.6 26.3 L-16.4 25.8 -17.7 17.35 -8.15 16.85 -1.4 17.9 9.45 18.25 9.9 18.45 M-10.2 22.9 L-13.1 22.5 -13.45 21.85 Q-13.45 19.8 -10.35 19.6 -7.25 19.45 -7.25 20.8 -7.25 21.95 -7.5 22.25 -8.05 22.9 -10.2 22.9 M-8.4 21.2 Q-9.2 20.45 -10.05 20.65 -10.4 20.7 -11.6 21.3 L-11.85 21.4 -10.15 21.55 Q-9.0 21.55 -8.4 21.2" fill="#915c3b" fill-rule="evenodd" stroke="none"/>
    <path d="M-19.45 6.4 L-19.0 6.45 62.45 24.1 63.2 26.8 -19.05 8.95 -19.45 6.4 M56.75 4.45 L-23.0 -16.1 -23.4 -18.8 55.95 1.65 56.75 4.45 M-15.75 29.1 L-15.95 29.15 -15.35 29.1 67.45 41.5 68.25 44.15 -15.3 31.6 -15.75 29.1" fill="#6b4832" fill-rule="evenodd" stroke="none"/>
    <path d="M-13.4 -14.95 L3.8 -10.7 9.0 13.1 -9.65 9.85 -13.4 -14.95" fill="#38271d" fill-rule="evenodd" stroke="none"/>
    <path d="M-13.4 -14.95 L-9.65 9.85 9.0 13.1 3.8 -10.7 -13.4 -14.95 M12.35 16.3 L-12.05 11.95 -16.65 -18.3 6.05 -12.65 12.35 16.3" fill="#c19c86" fill-rule="evenodd" stroke="none"/>
    <path d="M-4.4 -13.15 L-2.5 -14.5 0.4 -2.35 7.55 -0.95 7.6 1.2 -12.1 -2.75 -12.65 -4.95 -2.0 -2.85 -4.4 -13.15" fill="#c19c86" fill-rule="evenodd" stroke="none"/>
    <path d="M36.8 7.8 L45.9 48.9 22.35 45.3 13.9 2.4 36.8 7.8" fill="#38271d" fill-rule="evenodd" stroke="none"/>
    <path d="M20.1 10.75 L20.35 10.75 Q21.1 10.8 22.15 11.35 25.35 12.35 26.8 12.0 L31.65 35.35 21.45 33.95 17.45 11.65 18.25 11.05 Q18.7 10.7 19.35 10.75 L19.5 10.75 Q19.55 10.65 19.7 10.65 L19.75 10.65 20.1 10.75 M32.85 14.1 Q34.4 14.05 36.2 15.55 L37.4 16.7 42.25 36.75 32.95 35.35 28.15 12.3 Q29.5 13.45 32.85 14.1 M37.95 16.9 L38.9 17.15 43.3 37.2 43.6 37.25 42.7 37.1 37.95 16.9 M15.7 11.45 L15.35 11.35 16.65 11.7 20.8 33.95 20.1 33.95 15.7 11.45" fill="#7c563f" fill-rule="evenodd" stroke="none"/>
    <path d="M56.75 20.7 L43.8 17.8 39.4 -0.45 51.8 2.95 56.75 20.7" fill="#38271d" fill-rule="evenodd" stroke="none"/>
    <path d="M56.75 20.7 L51.8 2.95 39.4 -0.45 43.8 17.8 56.75 20.7 M53.3 1.55 L59.3 23.05 42.25 19.25 36.85 -2.95 53.3 1.55" fill="#c19c86" fill-rule="evenodd" stroke="none"/>
    <path d="M54.65 9.0 L54.7 10.75 39.45 7.55 39.05 5.75 47.25 7.45 45.7 1.25 47.2 0.15 49.1 7.85 54.65 9.0" fill="#c19c86" fill-rule="evenodd" stroke="none"/>
    <path d="M2.95 -36.8 L2.95 -50.9 46.05 -32.5 60.9 18.7 -19.2 7.95 -26.15 -36.05 -26.25 -36.8 2.95 -36.8" fill="#000000" fill-opacity="0.3019608" fill-rule="evenodd" stroke="none"/>
    <path d="M0.3 -35.05 L31.05 -35.05 31.05 -30.3 46.8 -30.3 46.8 -19.5 54.3 -19.5 54.3 -14.5 70.2 -14.7 75.55 3.95 70.55 5.0 -0.95 -17.8 -18.25 -7.25 -21.7 -7.9 -26.15 -36.05 -27.2 -42.9 -26.3 -43.55 0.3 -43.55 0.3 -35.05" fill="#9a7c6b" fill-rule="evenodd" stroke="none"/>
    <path d="M-15.4 32.45 L-14.45 32.45 -14.65 31.4 12.4 19.7 12.4 28.1 15.05 28.1 15.05 50.1 -10.1 60.95 -10.4 59.1 -10.7 57.05 -11.5 57.05 -11.8 55.3 -10.95 55.3 -11.1 54.35 -8.75 53.35 -12.05 33.3 -15.05 34.5 -15.4 32.45 M-5.7 30.55 L-10.1 32.45 -6.75 52.65 -2.35 50.8 -5.7 30.55 M1.65 27.4 L-3.25 29.5 0.1 49.75 5.05 47.65 1.65 27.4 M8.95 24.25 L4.5 26.15 7.85 46.25 12.3 44.35 8.95 24.25" fill="#7c563f" fill-rule="evenodd" stroke="none"/>
    <path d="M5.15 -23.2 L17.05 54.6 11.3 54.6 -0.6 -23.2 5.15 -23.2" fill="#9a7c6b" fill-rule="evenodd" stroke="none"/>
    <path d="M69.55 -2.1 L90.1 75.7 85.65 75.7 65.1 -2.1 69.55 -2.1" fill="#9a7c6b" fill-rule="evenodd" stroke="none"/>
    <path d="M37.85 56.85 L36.4 56.85 30.6 27.4 26.25 26.45 26.05 25.45 31.9 26.75 37.85 56.85 M29.3 56.85 L27.85 56.85 21.55 25.4 15.4 24.05 15.25 23.0 17.95 23.6 22.9 24.7 29.3 56.85 M44.4 56.85 L42.95 56.85 37.25 28.9 34.85 28.4 34.65 27.35 38.55 28.2 44.4 56.85 M72.0 56.15 L70.55 56.1 64.1 33.1 63.15 32.9 61.65 32.55 60.45 32.25 60.15 31.2 61.65 31.55 63.15 31.95 65.4 32.45 72.0 56.15 M64.85 55.95 L63.7 55.9 61.65 50.75 61.15 49.55 60.0 44.7 56.9 30.8 58.2 29.4 64.85 55.95 M78.1 35.5 L78.75 35.65 78.4 36.5 78.35 36.55 73.8 35.5 73.5 34.5 78.1 35.5 M77.85 56.3 L76.3 56.25 70.3 34.65 69.7 34.5 67.85 34.05 67.55 32.95 71.6 34.0 77.85 56.3" fill="#9a7c6b" fill-rule="evenodd" stroke="none"/>
    <path d="M37.85 56.85 L31.9 26.75 26.05 25.45 26.25 26.45 32.3 56.85 29.3 56.85 22.9 24.7 17.95 23.6 15.25 23.0 15.4 24.05 16.2 27.75 11.55 27.75 11.9 20.2 27.0 23.6 40.45 26.65 45.8 53.3 45.6 56.85 44.4 56.85 38.55 28.2 34.65 27.35 34.85 28.4 40.7 56.85 37.85 56.85 M72.0 56.15 L65.4 32.45 63.15 31.95 61.65 31.55 60.15 31.2 60.45 32.25 67.05 56.0 64.85 55.95 58.2 29.4 61.65 30.25 63.15 30.65 77.75 34.3 78.1 35.5 73.5 34.5 73.8 35.5 79.7 56.35 77.85 56.3 71.6 34.0 67.55 32.95 67.85 34.05 74.0 56.2 72.0 56.15 M78.4 36.5 L78.4 36.6 78.35 36.55 78.4 36.5" fill="#c19c86" fill-rule="evenodd" stroke="none"/>
    <path d="M55.4 -7.05 L73.5 15.55 71.9 18.45 53.8 -4.15 55.4 -7.05" fill="#9a7c6b" fill-rule="evenodd" stroke="none"/>
    <path d="M55.85 -8.8 L74.25 13.25 72.65 16.15 54.25 -5.9 55.85 -8.8" fill="#c19c86" fill-rule="evenodd" stroke="none"/>
    <path d="M71.4 -3.35 L92.75 74.45 88.3 74.45 66.95 -3.35 71.4 -3.35" fill="#c19c86" fill-rule="evenodd" stroke="none"/>
    <path d="M29.05 -24.55 L8.15 -1.5 4.35 -3.2 25.25 -26.25 29.05 -24.55" fill="#9a7c6b" fill-rule="evenodd" stroke="none"/>
    <path d="M31.2 -24.2 L11.0 -0.8 7.2 -2.5 27.4 -25.9 31.2 -24.2" fill="#c19c86" fill-rule="evenodd" stroke="none"/>
    <path d="M-15.65 30.9 L12.1 18.9 12.1 25.7 14.05 25.7 14.05 49.6 -11.1 60.45 -11.4 58.6 -12.1 53.85 -9.75 52.85 -13.05 32.8 -15.2 33.75 -15.65 30.9 M-6.7 30.05 L-11.1 31.95 -7.75 52.15 -3.35 50.3 -6.7 30.05 M7.95 23.75 L3.5 25.65 6.85 45.75 11.3 43.85 7.95 23.75 M0.65 26.9 L-4.25 29.0 -0.9 49.25 4.05 47.15 0.65 26.9" fill="#9a7c6b" fill-rule="evenodd" stroke="none"/>
    <path d="M-0.45 -39.55 L30.3 -39.55 30.3 -34.8 46.05 -34.8 46.05 -24.0 53.55 -24.0 53.55 -19.0 68.95 -19.0 75.5 3.7 -1.7 -21.25 -21.65 -8.0 -26.15 -36.05 -27.9 -47.4 -27.05 -48.05 -0.45 -48.05 -0.45 -39.55" fill="#c19c86" fill-rule="evenodd" stroke="none"/>
    <path d="M22.75 -49.9 L23.05 -48.6 22.25 -49.0 21.75 -49.25 21.35 -50.95 22.75 -49.9 M3.5 -62.6 L3.55 -62.85 3.6 -63.3 4.6 -62.8 5.0 -62.05 3.5 -62.6 M23.3 -48.45 L23.25 -48.55 23.4 -48.45 23.35 -48.45 23.3 -48.45 M25.35 -48.75 L25.35 -48.7 24.8 -47.85 Q24.2 -48.05 23.6 -48.35 L23.9 -48.7 24.35 -49.2 25.45 -48.85 25.4 -48.75 25.35 -48.75 M-7.05 -66.85 L-6.75 -65.25 -6.5 -65.2 -9.3 -65.7 -9.6 -67.05 -7.05 -66.85 M-3.55 -66.5 L-3.25 -66.25 -2.15 -64.85 -1.85 -64.2 -4.5 -64.8 -5.0 -65.7 -4.95 -65.65 -6.25 -66.8 -5.45 -66.75 -3.55 -66.5 M-3.15 -55.0 L0.15 -54.65 -0.25 -54.25 -0.3 -54.2 -1.6 -54.3 -3.1 -54.7 -3.1 -54.65 -4.1 -55.1 -3.15 -55.0 M8.8 -60.25 L8.75 -60.45 11.15 -59.2 12.05 -58.8 Q9.85 -59.75 8.8 -60.25 M9.25 -53.25 L9.9 -51.95 7.85 -52.15 7.05 -53.75 6.7 -53.9 9.25 -53.25 M13.9 -53.4 L12.6 -55.45 13.05 -53.75 13.9 -53.4 11.6 -54.2 11.2 -56.05 14.45 -55.05 16.0 -52.6 13.9 -53.4 M13.2 -51.95 L12.45 -51.85 12.1 -51.85 12.0 -52.3 13.2 -51.95 M17.7 -53.35 L18.65 -52.95 17.95 -53.25 18.15 -52.55 18.5 -51.25 18.9 -51.0 17.65 -51.8 17.85 -51.7 17.6 -52.75 17.4 -53.55 17.7 -53.35 M1.65 -54.05 L1.8 -54.2 1.95 -54.2 2.15 -54.25 2.2 -54.4 3.75 -54.25 3.8 -53.75 3.9 -53.55 3.9 -53.45 4.45 -52.85 Q4.65 -52.65 5.25 -52.4 L1.5 -52.8 0.95 -52.85 0.7 -54.2 1.05 -54.25 1.65 -54.05 M5.3 -57.25 L7.5 -56.85 8.25 -55.35 5.8 -56.25 5.3 -57.25 M4.3 -57.45 L4.25 -56.9 Q3.3 -57.35 2.55 -57.75 L2.7 -57.7 4.3 -57.45" fill="#dda600" fill-rule="evenodd" stroke="none"/>
    <path d="M13.9 -53.4 L13.05 -53.75 12.6 -55.45 13.9 -53.4" fill="#dda600" fill-rule="evenodd" stroke="none"/>
    <path d="M-10.25 -58.05 Q-3.65 -57.55 34.05 -42.05 L50.75 -35.2 Q58.95 -31.7 62.55 -29.25 70.7 -21.85 73.2 -10.75 74.45 -5.2 74.1 -1.15 L-2.25 -27.75 -22.8 -14.95 -26.15 -36.05 -28.8 -53.05 Q-25.05 -55.2 -22.85 -56.1 -16.8 -58.55 -10.25 -58.05" fill="#c96134" fill-rule="evenodd" stroke="none"/>
    <path d="M68.7 -21.95 L-20.65 -51.65 -20.65 -54.75 65.7 -26.05 68.7 -21.95" fill="#e56c38" fill-rule="evenodd" stroke="none"/>
    <path d="M71.15 -17.15 L-12.65 -43.5 -12.45 -45.25 70.1 -19.4 71.15 -17.15" fill="#e56c38" fill-rule="evenodd" stroke="none"/>
    <path d="M-17.55 -57.65 Q-13.25 -56.85 -9.7 -53.4 -2.45 -46.4 -2.45 -32.85 -2.45 -30.1 -2.75 -27.45 L-23.25 -14.7 -22.8 -14.95 -26.15 -36.05 -28.8 -53.05 Q-25.05 -55.2 -22.85 -56.1 -20.25 -57.15 -17.55 -57.65" fill="#954522" fill-rule="evenodd" stroke="none"/>
    <path d="M7.85 -24.45 L20.8 53.35 15.05 53.35 2.1 -24.45 7.85 -24.45" fill="#c19c86" fill-rule="evenodd" stroke="none"/>
    <path d="M12.05 36.25 L85.75 48.7 95.85 83.6 -56.0 83.6 -59.15 62.25 11.55 36.45 12.05 36.25" fill="#7c563f" fill-rule="evenodd" stroke="none"/>
    <path d="M12.15 36.3 L12.05 35.8 20.25 83.6 -56.0 83.6 -59.15 62.25 11.55 36.45 12.05 36.25 12.15 36.3" fill="#6b4832" fill-rule="evenodd" stroke="none"/>
    <path d="M13.95 -69.65 L16.65 -69.05 21.05 -67.55 Q22.65 -66.7 22.65 -66.1 L22.7 -66.1 22.65 -62.9 22.9 -62.85 Q24.5 -62.1 24.5 -61.5 L24.55 -61.5 24.55 -58.2 24.5 -58.2 24.5 -58.15 Q24.5 -57.65 23.35 -57.4 L23.6 -56.9 23.6 -56.55 24.45 -55.85 26.35 -57.2 26.35 -57.25 26.4 -57.2 26.4 -57.25 26.45 -57.2 28.05 -56.25 28.55 -55.9 32.1 -53.85 34.8 -41.75 50.75 -35.2 Q58.95 -31.7 62.55 -29.25 L62.8 -29.05 65.65 -26.05 65.7 -26.05 68.7 -21.95 Q71.8 -16.9 73.2 -10.75 74.45 -5.2 74.1 -1.15 L75.5 3.7 75.55 3.95 74.55 4.2 73.55 4.4 85.7 48.7 85.75 48.7 95.85 83.6 79.65 83.6 79.85 84.25 74.9 83.6 -56.0 83.6 -57.55 73.15 -57.6 72.8 -57.75 71.65 -58.35 71.65 -58.45 71.65 -80.25 71.2 -82.1 60.45 -82.35 59.0 -87.45 29.4 -87.6 28.5 -90.05 14.4 -90.5 14.55 -90.05 14.35 -93.25 -4.2 -94.0 -3.8 -93.25 -4.25 -94.05 -8.9 -94.1 -9.2 -94.6 -12.15 -94.8 -13.5 -94.8 -13.55 -94.9 -14.0 -95.75 -18.85 -89.45 -23.3 Q-89.8 -23.6 -89.8 -23.95 L-89.75 -24.25 -89.75 -29.6 -89.8 -29.85 Q-89.8 -30.6 -87.85 -31.25 L-87.95 -31.55 -87.9 -31.85 -87.9 -37.2 -87.95 -37.3 -88.35 -37.35 Q-92.05 -38.2 -92.05 -39.35 L-92.05 -45.3 Q-92.05 -46.4 -88.35 -46.85 -84.85 -47.4 -80.05 -47.0 -75.5 -46.75 -72.4 -45.85 -69.45 -45.0 -69.45 -44.05 L-69.4 -44.05 -69.4 -38.8 -69.1 -38.75 -68.25 -38.5 -54.6 -48.25 Q-55.75 -48.7 -55.8 -49.55 L-55.8 -50.0 -56.3 -57.85 -56.95 -57.85 Q-61.85 -57.95 -61.85 -59.55 L-62.1 -67.9 Q-62.15 -69.3 -57.8 -70.95 -53.65 -72.45 -47.85 -73.45 L-38.65 -74.1 Q-34.85 -73.8 -34.6 -72.7 L-33.0 -66.55 -32.65 -66.55 Q-28.75 -66.35 -28.4 -65.05 L-28.35 -65.0 -28.3 -65.0 -28.05 -64.15 -26.2 -63.35 -29.5 -78.15 -24.25 -84.15 -16.25 -79.4 -15.45 -75.75 Q-3.45 -74.55 9.15 -67.1 L9.3 -69.15 9.3 -69.3 Q9.35 -69.95 11.7 -69.9 L13.95 -69.65 M57.9 0.95 L55.55 0.2 60.45 17.1 60.55 17.5 64.45 31.0 74.5 33.5 69.85 15.9 58.65 1.9 58.45 1.7 57.9 0.95 M77.0 46.65 L77.15 47.25 78.2 47.45 75.8 38.3 75.45 37.0 74.35 37.45 77.0 46.65 M73.15 45.65 L72.85 43.9 71.45 38.75 Q70.4 39.2 69.4 39.6 L71.25 46.25 73.3 46.6 73.25 46.2 73.25 46.1 73.15 45.65 M70.8 36.5 L70.3 34.65 69.7 34.5 67.85 34.05 68.35 35.7 68.8 37.35 70.8 36.5" fill="url(#gradient0)" fill-rule="evenodd" stroke="none"/>
  </g>
  <defs>
    <linearGradient gradientTransform="matrix(0.0047, -0.0485, 0.1022, 0.0099, 26.15, 7.05)" gradientUnits="userSpaceOnUse" id="gradient0" spreadMethod="pad" x1="-819.2" x2="819.2">
      <stop offset="0.0" stop-color="#000000" stop-opacity="0.6"/>
      <stop offset="0.49411764705882355" stop-color="#000000" stop-opacity="0.0"/>
    </linearGradient>
  </defs>
</svg>
