<?xml version="1.0" encoding="UTF-8" standalone="no"?>
<svg xmlns:xlink="http://www.w3.org/1999/xlink" height="30.9px" width="26.2px" xmlns="http://www.w3.org/2000/svg">
  <g transform="matrix(1.0, 0.0, 0.0, 1.0, 13.5, 15.0)">
    <path d="M0.75 12.6 L0.5 12.7 -2.5 12.75 Q-5.75 12.75 -8.1 9.15 -10.35 5.55 -10.35 0.45 -10.35 -4.65 -8.1 -8.25 -5.75 -11.85 -2.5 -11.85 L0.85 -11.75 Q-1.75 -11.25 -3.7 -8.25 -6.05 -4.65 -6.05 0.45 -6.05 5.55 -3.7 9.15 -1.8 12.15 0.75 12.6" fill="#ce9b00" fill-rule="evenodd" stroke="none"/>
    <path d="M1.05 -8.0 L0.65 -7.85 0.55 -7.35 0.65 -6.45 Q-0.1 -5.85 -0.45 -4.85 -0.85 -3.75 -0.75 -2.85 L-0.1 -1.05 0.9 0.4 1.95 1.75 2.55 3.0 2.4 4.0 1.95 4.45 1.65 4.45 1.35 4.2 Q1.15 4.05 1.1 3.7 L0.9 2.95 0.65 2.3 0.35 2.3 Q-0.1 2.35 -0.3 3.25 -0.55 4.05 -0.4 4.9 -0.3 6.4 0.45 7.15 1.2 8.0 2.3 7.8 L2.4 8.85 Q2.45 9.25 2.75 9.2 L3.15 8.95 3.3 8.5 3.2 7.45 Q3.85 7.0 4.35 6.0 L4.75 4.7 4.7 2.65 4.05 0.55 3.0 -0.95 2.1 -2.1 Q1.65 -2.75 1.55 -3.2 L1.65 -4.1 2.1 -4.6 2.55 -4.55 2.95 -4.5 Q3.3 -4.6 3.2 -5.6 3.0 -7.25 1.75 -6.9 L1.65 -6.9 1.5 -7.7 1.35 -8.0 1.05 -8.0 M6.05 -6.15 Q7.8 -3.4 7.8 0.45 7.8 4.3 6.05 7.1 4.35 9.75 1.85 9.75 -0.6 9.75 -2.4 7.1 -4.15 4.3 -4.15 0.45 -4.15 -3.4 -2.4 -6.15 -0.6 -8.85 1.85 -8.85 4.35 -8.85 6.05 -6.15" fill="#ffdd75" fill-rule="evenodd" stroke="none"/>
    <path d="M1.05 -8.0 L1.35 -8.0 1.5 -7.7 1.65 -6.9 1.75 -6.9 Q3.0 -7.25 3.2 -5.6 3.3 -4.6 2.95 -4.5 L2.55 -4.55 2.1 -4.6 1.65 -4.1 1.55 -3.2 Q1.65 -2.75 2.1 -2.1 L3.0 -0.95 4.05 0.55 4.7 2.65 4.75 4.7 4.35 6.0 Q3.85 7.0 3.2 7.45 L3.3 8.5 3.15 8.95 2.75 9.2 Q2.45 9.25 2.4 8.85 L2.3 7.8 Q1.2 8.0 0.45 7.15 -0.3 6.4 -0.4 4.9 -0.55 4.05 -0.3 3.25 -0.1 2.35 0.35 2.3 L0.65 2.3 0.9 2.95 1.1 3.7 Q1.15 4.05 1.35 4.2 L1.65 4.45 1.95 4.45 2.4 4.0 2.55 3.0 1.95 1.75 0.9 0.4 -0.1 -1.05 -0.75 -2.85 Q-0.85 -3.75 -0.45 -4.85 -0.1 -5.85 0.65 -6.45 L0.55 -7.35 0.65 -7.85 1.05 -8.0" fill="#eaaf00" fill-rule="evenodd" stroke="none"/>
    <path d="M0.85 -11.75 L1.85 -11.85 Q5.1 -11.85 7.45 -8.25 9.75 -4.65 9.75 0.45 9.75 5.55 7.45 9.15 5.1 12.75 1.85 12.75 L0.75 12.6 Q-1.8 12.15 -3.7 9.15 -6.05 5.55 -6.05 0.45 -6.05 -4.65 -3.7 -8.25 -1.75 -11.25 0.85 -11.75 M6.05 -6.15 Q4.35 -8.85 1.85 -8.85 -0.6 -8.85 -2.4 -6.15 -4.15 -3.4 -4.15 0.45 -4.15 4.3 -2.4 7.1 -0.6 9.75 1.85 9.75 4.35 9.75 6.05 7.1 7.8 4.3 7.8 0.45 7.8 -3.4 6.05 -6.15" fill="url(#gradient0)" fill-rule="evenodd" stroke="none"/>
    <path d="M0.8 -14.85 L1.95 -15.0 Q6.55 -15.1 9.9 -10.0 L10.0 -9.95 Q12.7 -5.6 12.7 0.45 12.7 6.6 10.0 11.0 L9.9 11.0 Q6.55 16.05 1.95 15.9 L0.8 15.85 -2.7 15.9 Q-7.35 16.05 -10.65 11.0 -13.5 6.6 -13.5 0.45 -13.5 -5.6 -10.65 -10.0 -7.35 -15.1 -2.7 -15.0 L0.8 -14.85 M0.75 12.6 L1.85 12.75 Q5.1 12.75 7.45 9.15 9.75 5.55 9.75 0.45 9.75 -4.65 7.45 -8.25 5.1 -11.85 1.85 -11.85 L0.85 -11.75 -2.5 -11.85 Q-5.75 -11.85 -8.1 -8.25 -10.35 -4.65 -10.35 0.45 -10.35 5.55 -8.1 9.15 -5.75 12.75 -2.5 12.75 L0.5 12.7 0.75 12.6" fill="#624900" fill-rule="evenodd" stroke="none"/>
  </g>
  <defs>
    <linearGradient gradientTransform="matrix(0.0087, -0.021, 0.0081, 0.0081, 0.65, 4.7)" gradientUnits="userSpaceOnUse" id="gradient0" spreadMethod="pad" x1="-819.2" x2="819.2">
      <stop offset="0.0" stop-color="#ffcc33"/>
      <stop offset="1.0" stop-color="#fff2cc"/>
    </linearGradient>
  </defs>
</svg>
