<?xml version="1.0" encoding="UTF-8" standalone="no"?>
<svg xmlns:xlink="http://www.w3.org/1999/xlink" height="138.7px" width="280.65px" xmlns="http://www.w3.org/2000/svg">
  <g transform="matrix(1.0, 0.0, 0.0, 1.0, 151.55, 139.85)">
    <path d="M103.7 -100.2 Q103.7 -96.8 100.05 -95.3 98.1 -94.45 94.9 -94.1 L98.95 -92.8 Q109.85 -89.15 117.2 -85.05 125.45 -80.35 125.45 -76.9 125.45 -75.15 122.85 -73.15 120.2 -71.05 117.55 -71.1 110.4 -71.35 102.75 -73.3 113.1 -65.6 120.55 -57.9 129.1 -49.05 129.1 -44.7 129.1 -34.7 120.0 -35.0 108.6 -35.35 96.3 -44.25 92.65 -46.85 87.95 -51.0 L82.7 -55.55 Q77.05 -58.7 72.65 -61.2 81.25 -52.4 87.0 -43.25 96.05 -28.9 96.05 -16.8 L95.95 -14.0 Q95.35 -12.5 92.5 -12.55 82.4 -12.9 57.8 -41.65 52.4 -47.95 47.4 -54.25 L49.25 -51.25 59.5 -36.7 Q65.4 -27.8 65.4 -21.8 65.4 -18.65 64.2 -16.05 62.3 -12.2 58.2 -12.3 42.8 -12.8 26.9 -48.6 23.1 -57.15 19.75 -66.6 L20.7 -60.5 23.1 -43.8 Q24.75 -31.4 24.75 -25.45 24.75 -20.9 24.2 -18.75 22.8 -13.35 18.45 -13.5 11.4 -13.7 7.35 -24.6 5.1 -30.6 2.75 -42.05 -2.05 -58.85 -2.35 -68.9 -7.25 -49.7 -8.6 -43.3 -13.0 -23.3 -14.8 -17.65 -20.1 -0.95 -26.2 -1.15 -35.25 -1.4 -38.55 -14.2 -40.25 -20.6 -40.05 -27.1 -40.05 -40.9 -35.25 -58.95 -33.2 -66.4 -30.95 -71.6 L-34.15 -67.55 Q-43.6 -55.2 -49.15 -46.25 -58.95 -30.7 -68.6 -19.05 -81.1 -4.0 -86.9 -4.15 -92.45 -4.35 -94.1 -9.25 -94.9 -11.75 -94.65 -14.25 -94.65 -20.7 -90.55 -30.15 -86.45 -39.6 -79.6 -48.95 -75.9 -54.0 -72.1 -58.15 L-80.95 -52.8 Q-89.75 -43.95 -99.75 -35.0 -121.6 -15.55 -128.55 -15.75 -132.95 -15.9 -134.1 -18.45 -134.7 -19.7 -134.4 -21.1 -134.4 -31.8 -122.75 -45.25 -118.4 -50.35 -111.3 -56.8 -110.75 -59.25 -107.15 -63.3 L-118.05 -58.25 Q-141.3 -48.0 -145.45 -48.15 -149.95 -48.3 -151.15 -49.7 -151.75 -50.4 -151.45 -51.1 -151.45 -58.6 -124.0 -70.85 -112.05 -76.25 -102.75 -79.2 -106.0 -79.0 -109.8 -79.1 -113.4 -79.2 -114.85 -81.65 -115.5 -82.9 -115.5 -84.3 -115.5 -88.6 -101.75 -90.9 -105.8 -91.8 -109.25 -95.85 -112.6 -99.85 -112.6 -101.9 -112.6 -103.75 -111.25 -104.3 L-106.0 -104.6 -85.05 -102.45 Q-88.65 -104.35 -91.9 -107.45 -98.05 -113.3 -98.05 -116.4 -98.05 -119.0 -93.1 -118.45 L-77.4 -116.3 -72.0 -115.15 Q-74.4 -118.6 -74.4 -120.85 -74.4 -124.8 -71.4 -125.3 -68.95 -125.65 -62.9 -123.6 L-49.55 -118.9 Q-44.7 -117.15 -40.3 -115.95 -43.0 -117.85 -45.0 -122.0 -47.45 -127.0 -47.45 -130.0 -47.45 -142.0 -28.1 -130.45 -22.0 -126.75 -14.9 -121.3 L-12.35 -123.95 Q-7.35 -128.8 -1.45 -133.05 14.4 -144.6 14.4 -136.6 14.4 -133.05 12.0 -129.6 L18.25 -131.75 Q36.4 -137.35 45.7 -137.85 46.95 -137.05 47.65 -135.65 L48.15 -134.3 Q42.9 -130.4 38.5 -127.6 L44.35 -129.15 Q46.2 -129.65 57.2 -133.5 68.4 -136.9 74.0 -136.1 75.25 -135.7 75.55 -135.0 L75.65 -133.75 Q75.65 -132.75 70.95 -129.15 85.7 -134.6 85.7 -123.85 85.7 -119.65 78.8 -114.45 75.3 -111.85 71.3 -109.85 L83.0 -109.2 Q103.7 -106.6 103.7 -100.2" fill="#d6a227" fill-rule="evenodd" stroke="none"/>
  </g>
</svg>
