<?xml version="1.0" encoding="UTF-8" standalone="no"?>
<svg xmlns:xlink="http://www.w3.org/1999/xlink" height="64.0px" width="64.0px" xmlns="http://www.w3.org/2000/svg">
  <g transform="matrix(1.0, 0.0, 0.0, 1.0, 0.0, 0.0)">
    <path d="M64.0 0.0 L64.0 64.0 0.0 64.0 0.0 0.0 64.0 0.0" fill="#00ccff" fill-opacity="0.0" fill-rule="evenodd" stroke="none"/>
    <path d="M63.05 5.65 L64.0 5.75 64.0 48.35 Q61.55 50.35 59.55 52.95 55.7 57.95 54.15 64.0 L10.75 64.0 10.85 62.7 Q9.05 61.0 7.75 58.45 6.2 55.6 7.85 52.6 L11.15 46.8 12.35 45.05 Q12.8 41.95 13.85 38.95 15.1 35.3 15.35 31.4 15.65 27.45 18.9 25.4 L19.1 25.45 Q22.1 22.05 27.0 20.25 31.55 18.6 35.6 16.05 L39.95 13.2 Q45.5 9.4 51.9 6.8 L53.15 6.3 53.2 6.3 54.75 6.25 63.05 5.65" fill="#00ccff" fill-rule="evenodd" stroke="none"/>
  </g>
</svg>
