<?xml version="1.0" encoding="UTF-8" standalone="no"?>
<svg xmlns:xlink="http://www.w3.org/1999/xlink" height="396.65px" width="1216.95px" xmlns="http://www.w3.org/2000/svg">
  <g transform="matrix(1.0, 0.0, 0.0, 1.0, 120.35, -2.45)">
    <path d="M59.55 62.3 Q237.1 4.95 488.1 4.95 739.15 4.95 916.55 62.3 1094.1 119.65 1094.1 200.75 1094.1 281.9 916.55 339.25 739.15 396.6 488.1 396.6 237.1 396.6 59.55 339.25 -117.85 281.9 -117.85 200.75 -117.85 119.65 59.55 62.3" fill="#66bf29" fill-rule="evenodd" stroke="none"/>
    <path d="M59.55 62.3 Q237.1 4.95 488.1 4.95 739.15 4.95 916.55 62.3 1094.1 119.65 1094.1 200.75 1094.1 281.9 916.55 339.25 739.15 396.6 488.1 396.6 237.1 396.6 59.55 339.25 -117.85 281.9 -117.85 200.75 -117.85 119.65 59.55 62.3 Z" fill="none" stroke="#4e7014" stroke-linecap="round" stroke-linejoin="round" stroke-width="5.0"/>
    <path d="M59.55 62.3 Q237.1 4.95 488.1 4.95 739.15 4.95 916.55 62.3 1094.1 119.65 1094.1 200.75 1094.1 281.9 916.55 339.25 739.15 396.6 488.1 396.6 237.1 396.6 59.55 339.25 -117.85 281.9 -117.85 200.75 -117.85 119.65 59.55 62.3" fill="#66bf29" fill-rule="evenodd" stroke="none"/>
    <path d="M379.05 35.1 Q383.5 35.1 386.6 36.15 389.75 37.3 389.75 38.9 389.75 40.45 386.6 41.5 383.5 42.65 379.05 42.65 374.6 42.65 371.45 41.5 368.35 40.45 368.35 38.9 368.35 37.3 371.45 36.15 374.6 35.1 379.05 35.1 M337.75 30.4 Q335.75 31.85 332.85 31.85 329.95 31.85 327.95 30.4 325.95 29.0 325.95 27.05 325.95 26.2 326.3 25.45 L302.8 21.6 Q304.65 23.05 304.65 24.95 304.65 27.25 301.7 28.95 298.75 30.65 294.55 30.65 290.35 30.65 287.4 28.95 284.45 27.25 284.45 24.95 284.45 22.6 287.4 20.9 289.45 19.7 292.15 19.4 L280.05 16.25 Q376.85 4.95 488.1 4.95 534.75 4.95 578.9 6.95 576.75 8.6 573.75 10.15 L574.0 10.1 578.3 9.85 582.5 10.1 Q584.3 10.3 584.3 10.6 L582.5 11.15 578.3 11.4 574.0 11.15 572.45 10.8 Q566.95 13.45 559.0 15.85 L562.2 16.5 Q566.85 17.75 566.85 19.5 566.85 21.25 562.2 22.45 557.6 23.75 551.05 23.75 544.5 23.75 539.85 22.45 537.75 21.9 536.65 21.25 L535.75 21.45 Q521.45 24.25 505.4 26.25 509.1 27.95 509.1 30.15 509.1 32.85 503.65 34.75 498.25 36.65 490.55 36.65 482.85 36.65 477.45 34.75 472.05 32.85 472.05 30.15 472.05 29.75 472.2 29.3 L427.3 30.95 Q428.8 32.4 428.8 34.25 428.8 37.15 425.0 39.1 421.3 41.15 416.0 41.15 410.7 41.15 406.95 39.1 403.2 37.15 403.2 34.25 403.2 32.4 404.8 30.9 369.45 30.35 339.75 27.1 339.7 29.0 337.75 30.4 M266.9 19.75 L261.6 20.4 256.25 19.75 255.2 19.35 268.95 17.6 269.15 18.15 Q269.15 19.1 266.9 19.75 M267.9 31.25 Q267.9 30.4 268.95 29.75 270.05 29.15 271.55 29.15 273.05 29.15 274.05 29.75 275.15 30.4 275.15 31.25 275.15 32.1 274.05 32.7 273.05 33.35 271.55 33.35 270.05 33.35 268.95 32.7 267.9 32.1 267.9 31.25 M483.35 40.3 L473.4 41.15 463.5 40.3 Q459.4 39.5 459.4 38.3 459.4 37.05 463.5 36.25 L473.4 35.4 483.35 36.25 Q487.45 37.05 487.45 38.3 487.45 39.5 483.35 40.3" fill="#e9c572" fill-rule="evenodd" stroke="none"/>
    <path d="M916.55 339.25 Q739.15 396.6 488.1 396.6 237.1 396.6 59.55 339.25 -117.9 281.9 -117.9 200.8 -117.9 119.6 59.55 62.3 237.1 4.95 488.1 4.95 739.15 4.95 916.55 62.3 1094.05 119.6 1094.05 200.8 1094.05 281.9 916.55 339.25" fill="url(#gradient0)" fill-rule="evenodd" stroke="none"/>
  </g>
  <defs>
    <radialGradient cx="0" cy="0" fx="-1174.4" fy="0" gradientTransform="matrix(0.0144, -0.6924, 1.0592, 0.0355, 458.2, -209.3)" gradientUnits="userSpaceOnUse" id="gradient0" r="819.2" spreadMethod="pad">
      <stop offset="0.29411764705882354" stop-color="#000000" stop-opacity="0.0"/>
      <stop offset="1.0" stop-color="#000000" stop-opacity="0.3019608"/>
    </radialGradient>
  </defs>
</svg>
