<?xml version="1.0" encoding="UTF-8" standalone="no"?>
<svg xmlns:xlink="http://www.w3.org/1999/xlink" height="137.2px" width="249.35px" xmlns="http://www.w3.org/2000/svg">
  <g transform="matrix(1.0, 0.0, 0.0, 1.0, 25.2, 13.9)">
    <path d="M187.4 -5.1 Q186.35 -6.15 186.35 -7.7 186.35 -9.25 187.4 -10.4 188.6 -11.5 190.15 -11.5 191.65 -11.5 192.75 -10.4 193.9 -9.25 193.9 -7.7 193.9 -6.15 192.75 -5.1 191.65 -3.9 190.15 -3.9 188.6 -3.9 187.4 -5.1" fill="#999999" fill-rule="evenodd" stroke="none"/>
    <path d="M187.4 -5.1 Q186.35 -6.15 186.35 -7.7 186.35 -9.25 187.4 -10.4 188.6 -11.5 190.15 -11.5 191.65 -11.5 192.75 -10.4 193.9 -9.25 193.9 -7.7 193.9 -6.15 192.75 -5.1 191.65 -3.9 190.15 -3.9 188.6 -3.9 187.4 -5.1 Z" fill="none" stroke="#333333" stroke-linecap="round" stroke-linejoin="round" stroke-width="1.0"/>
    <path d="M28.65 89.7 Q28.65 88.15 29.7 87.0 30.9 85.9 32.45 85.9 33.95 85.9 35.05 87.0 36.2 88.15 36.2 89.7 36.2 91.25 35.05 92.3 33.95 93.5 32.45 93.5 30.9 93.5 29.7 92.3 28.65 91.25 28.65 89.7" fill="#999999" fill-rule="evenodd" stroke="none"/>
    <path d="M28.65 89.7 Q28.65 88.15 29.7 87.0 30.9 85.9 32.45 85.9 33.95 85.9 35.05 87.0 36.2 88.15 36.2 89.7 36.2 91.25 35.05 92.3 33.95 93.5 32.45 93.5 30.9 93.5 29.7 92.3 28.65 91.25 28.65 89.7 Z" fill="none" stroke="#333333" stroke-linecap="round" stroke-linejoin="round" stroke-width="1.0"/>
    <path d="M47.45 101.7 Q47.45 100.15 48.5 99.0 49.7 97.9 51.25 97.9 52.75 97.9 53.85 99.0 55.0 100.15 55.0 101.7 55.0 103.25 53.85 104.3 52.75 105.5 51.25 105.5 49.7 105.5 48.5 104.3 47.45 103.25 47.45 101.7" fill="#999999" fill-rule="evenodd" stroke="none"/>
    <path d="M47.45 101.7 Q47.45 100.15 48.5 99.0 49.7 97.9 51.25 97.9 52.75 97.9 53.85 99.0 55.0 100.15 55.0 101.7 55.0 103.25 53.85 104.3 52.75 105.5 51.25 105.5 49.7 105.5 48.5 104.3 47.45 103.25 47.45 101.7 Z" fill="none" stroke="#333333" stroke-linecap="round" stroke-linejoin="round" stroke-width="1.0"/>
    <path d="M209.65 -10.25 L221.2 -8.65 222.15 22.35 210.6 20.75 210.6 20.6 197.2 20.9 195.4 -9.25 209.65 -9.65 209.65 -10.25" fill="#999999" fill-rule="evenodd" stroke="none"/>
    <path d="M209.65 -10.25 L221.2 -8.65 222.15 22.35 210.6 20.75 210.6 20.6 197.2 20.9 195.4 -9.25 209.65 -9.65 209.65 -10.25 Z" fill="none" stroke="#2e2e2e" stroke-linecap="round" stroke-linejoin="round" stroke-width="4.0"/>
    <path d="M211.3 -9.7 L212.25 20.55 197.2 20.9 195.4 -9.25 211.3 -9.7" fill="#999999" fill-rule="evenodd" stroke="none"/>
    <path d="M221.2 -8.65 L222.15 22.35 210.6 20.75 209.65 -10.25 221.2 -8.65" fill="#999999" fill-rule="evenodd" stroke="none"/>
    <path d="M205.85 -11.7 Q206.95 -12.85 208.55 -12.9 210.15 -12.95 211.3 -11.85 212.5 -10.75 212.55 -9.15 L213.4 19.25 Q213.45 20.85 212.35 22.0 211.25 23.15 209.65 23.2 208.05 23.25 206.9 22.15 205.75 21.1 205.7 19.5 L204.85 -8.9 Q204.8 -10.5 205.85 -11.7 M212.25 -1.5 Q209.3 1.35 205.75 -1.2 209.3 1.35 212.25 -1.5 M212.8 13.5 Q209.4 15.55 205.8 13.3 209.4 15.55 212.8 13.5" fill="url(#gradient0)" fill-rule="evenodd" stroke="none"/>
    <path d="M205.85 -11.7 Q204.8 -10.5 204.85 -8.9 L205.7 19.5 Q205.75 21.1 206.9 22.15 208.05 23.25 209.65 23.2 211.25 23.15 212.35 22.0 213.45 20.85 213.4 19.25 L212.55 -9.15 Q212.5 -10.75 211.3 -11.85 210.15 -12.95 208.55 -12.9 206.95 -12.85 205.85 -11.7" fill="none" stroke="#2e2e2e" stroke-linecap="round" stroke-linejoin="round" stroke-width="2.0"/>
    <path d="M205.8 13.3 Q209.4 15.55 212.8 13.5 M205.75 -1.2 Q209.3 1.35 212.25 -1.5" fill="none" stroke="#333333" stroke-linecap="round" stroke-linejoin="round" stroke-width="1.0"/>
    <path d="M202.05 -4.2 Q202.1 -3.3 201.45 -2.65 200.9 -2.0 200.0 -1.95 199.1 -1.95 198.45 -2.55 197.85 -3.15 197.8 -4.05 197.8 -4.95 198.35 -5.55 198.95 -6.2 199.85 -6.2 200.75 -6.25 201.35 -5.65 202.05 -5.1 202.05 -4.2 M217.15 -5.55 Q218.05 -5.55 218.65 -5.0 219.35 -4.4 219.35 -3.5 219.4 -2.6 218.75 -2.0 218.15 -1.3 217.25 -1.3 216.35 -1.25 215.75 -1.9 215.15 -2.5 215.1 -3.4 215.1 -4.3 215.65 -4.9 216.25 -5.5 217.15 -5.55 M218.15 14.3 Q219.05 14.25 219.65 14.85 220.35 15.45 220.35 16.35 220.4 17.25 219.75 17.85 219.2 18.5 218.3 18.55 217.4 18.6 216.75 17.95 216.15 17.35 216.1 16.45 216.1 15.55 216.65 14.95 217.25 14.35 218.15 14.3 M200.8 13.8 Q201.7 13.75 202.35 14.35 203.0 14.9 203.05 15.8 203.05 16.7 202.45 17.35 201.85 18.0 200.95 18.05 200.05 18.05 199.45 17.4 198.8 16.85 198.8 15.95 198.75 15.05 199.35 14.4 199.9 13.8 200.8 13.8" fill="#666666" fill-rule="evenodd" stroke="none"/>
    <path d="M218.65 90.45 L216.05 121.3 204.7 118.45 204.75 118.3 191.4 117.1 193.05 87.0 207.25 88.15 207.3 87.55 218.65 90.45" fill="#999999" fill-rule="evenodd" stroke="none"/>
    <path d="M218.65 90.45 L216.05 121.3 204.7 118.45 204.75 118.3 191.4 117.1 193.05 87.0 207.25 88.15 207.3 87.55 218.65 90.45 Z" fill="none" stroke="#2e2e2e" stroke-linecap="round" stroke-linejoin="round" stroke-width="4.0"/>
    <path d="M208.9 88.3 L206.4 118.45 191.4 117.1 193.05 87.0 208.9 88.3" fill="#999999" fill-rule="evenodd" stroke="none"/>
    <path d="M218.65 90.45 L216.05 121.3 204.7 118.45 207.3 87.55 218.65 90.45" fill="#999999" fill-rule="evenodd" stroke="none"/>
    <path d="M203.7 85.7 Q204.9 84.7 206.5 84.85 208.1 84.95 209.1 86.15 210.15 87.4 210.05 89.0 L207.7 117.3 Q207.55 118.9 206.3 119.85 205.1 120.9 203.5 120.8 201.9 120.65 200.9 119.4 199.9 118.25 200.05 116.65 L202.4 88.35 Q202.5 86.75 203.7 85.7 M207.75 111.5 Q204.1 113.2 200.85 110.55 204.1 113.2 207.75 111.5 M208.9 96.55 Q205.65 99.05 202.45 96.1 205.65 99.05 208.9 96.55" fill="url(#gradient1)" fill-rule="evenodd" stroke="none"/>
    <path d="M203.7 85.7 Q202.5 86.75 202.4 88.35 L200.05 116.65 Q199.9 118.25 200.9 119.4 201.9 120.65 203.5 120.8 205.1 120.9 206.3 119.85 207.55 118.9 207.7 117.3 L210.05 89.0 Q210.15 87.4 209.1 86.15 208.1 84.95 206.5 84.85 204.9 84.7 203.7 85.7" fill="none" stroke="#2e2e2e" stroke-linecap="round" stroke-linejoin="round" stroke-width="2.0"/>
    <path d="M202.45 96.1 Q205.65 99.05 208.9 96.55 M200.85 110.55 Q204.1 113.2 207.75 111.5" fill="none" stroke="#333333" stroke-linecap="round" stroke-linejoin="round" stroke-width="1.0"/>
    <path d="M198.35 94.15 Q197.7 94.75 196.8 94.7 195.9 94.6 195.35 93.9 194.8 93.25 194.85 92.35 194.95 91.45 195.6 90.9 196.25 90.35 197.15 90.45 198.05 90.5 198.6 91.15 199.2 91.8 199.1 92.7 199.05 93.6 198.35 94.15 M215.7 93.8 Q216.3 94.45 216.2 95.35 216.15 96.25 215.45 96.8 214.8 97.4 213.9 97.3 213.0 97.25 212.45 96.55 211.9 95.9 211.95 95.0 212.05 94.1 212.7 93.55 213.35 93.0 214.25 93.05 215.15 93.15 215.7 93.8 M214.45 113.65 Q215.05 114.3 214.95 115.2 214.9 116.1 214.2 116.65 213.55 117.25 212.65 117.15 211.75 117.1 211.2 116.4 210.65 115.75 210.7 114.85 210.8 113.95 211.45 113.4 212.1 112.85 213.0 112.9 213.9 113.0 214.45 113.65 M193.55 112.35 Q193.6 111.45 194.25 110.9 194.9 110.35 195.8 110.4 196.7 110.5 197.25 111.15 197.85 111.8 197.8 112.7 197.7 113.6 197.0 114.15 196.35 114.75 195.45 114.65 194.55 114.6 194.0 113.9 193.45 113.25 193.55 112.35" fill="#666666" fill-rule="evenodd" stroke="none"/>
    <path d="M-0.7 0.25 L3.85 26.05 -8.5 28.2 -13.05 2.4 -0.7 0.25 Z" fill="none" stroke="#2e2e2e" stroke-linecap="round" stroke-linejoin="round" stroke-width="4.0"/>
    <path d="M-0.7 0.25 L3.85 26.05 -8.5 28.2 -13.05 2.4 -0.7 0.25" fill="url(#gradient2)" fill-rule="evenodd" stroke="none"/>
    <path d="M26.25 -4.1 L29.45 21.9 17.0 23.45 13.75 -2.55 26.25 -4.1 Z" fill="none" stroke="#2e2e2e" stroke-linecap="round" stroke-linejoin="round" stroke-width="4.0"/>
    <path d="M26.25 -4.1 L29.45 21.9 17.0 23.45 13.75 -2.55 26.25 -4.1" fill="url(#gradient3)" fill-rule="evenodd" stroke="none"/>
    <path d="M47.1 16.2 L47.1 16.15 Q46.0 9.65 41.4 5.85 L41.4 5.9 Q36.45 1.5 28.8 2.4 L28.75 2.4 Q20.05 3.45 -19.2 11.25 -21.2 11.7 -22.35 13.45 -23.5 15.15 -23.1 17.15 -22.7 19.2 -20.95 20.35 -19.25 21.5 -17.2 21.15 21.25 13.35 29.95 12.35 32.95 12.0 35.0 13.6 L35.05 13.6 Q36.8 15.1 37.25 17.7 37.65 20.35 36.3 22.55 L36.3 22.6 Q34.85 25.0 32.0 25.75 L18.3 28.9 Q16.25 29.3 15.1 31.05 13.95 32.75 14.35 34.8 14.8 36.8 16.55 37.95 18.25 39.1 20.25 38.75 L34.6 35.45 Q41.65 33.5 44.95 27.6 L44.9 27.65 Q48.0 22.4 47.1 16.2 Z" fill="none" stroke="#2e2e2e" stroke-linecap="round" stroke-linejoin="round" stroke-width="4.0"/>
    <path d="M47.2 17.05 L46.9 19.8 Q46.6 22.1 45.7 23.8 L43.2 28.0 Q41.45 30.4 38.15 32.0 36.6 32.85 31.45 34.35 25.8 36.0 23.1 36.2 19.2 36.5 17.35 35.15 16.2 34.2 16.05 32.65 16.0 31.85 16.55 30.4 L16.85 29.7 17.15 29.25 17.2 29.25 17.25 29.2 18.3 28.9 31.15 25.95 30.65 26.1 Q34.7 25.5 37.2 23.0 39.5 20.7 39.3 18.55 L38.75 16.4 38.2 15.1 37.15 13.45 35.95 12.5 Q33.35 10.55 29.55 10.85 L16.6 12.8 16.85 11.75 16.85 8.4 16.7 6.95 15.85 5.05 15.45 4.6 14.85 4.7 28.75 2.4 28.8 2.4 Q36.45 1.5 41.4 5.9 L41.4 5.85 Q46.0 9.65 47.1 16.15 L47.1 16.2 47.2 17.05 M14.8 36.1 L15.05 36.5 15.0 36.5 14.8 36.1 M11.75 5.35 L11.7 5.4 12.3 6.95 Q12.95 8.45 13.0 9.0 13.1 10.7 12.0 13.8 L10.95 13.85 3.4 15.3 -9.95 18.0 -10.0 17.65 -10.0 15.2 Q-10.15 13.25 -10.85 11.5 -11.25 10.3 -11.8 9.8 L10.65 5.5 11.75 5.35 M-13.55 10.15 L-13.5 10.55 -12.65 15.75 Q-12.9 17.25 -13.65 18.8 L-15.75 19.2 -17.55 19.15 -18.2 19.35 Q-21.35 18.75 -21.5 16.6 L-21.05 13.85 -20.75 12.6 -19.8 11.9 -18.7 11.2 -13.55 10.15" fill="#999999" fill-rule="evenodd" stroke="none"/>
    <path d="M17.2 29.25 L17.15 29.25 16.85 29.7 16.55 30.4 Q16.0 31.85 16.05 32.65 16.2 34.2 17.35 35.15 19.2 36.5 23.1 36.2 25.8 36.0 31.45 34.35 36.6 32.85 38.15 32.0 41.45 30.4 43.2 28.0 L45.7 23.8 Q46.6 22.1 46.9 19.8 L47.2 17.05 Q47.8 22.75 44.9 27.65 L44.95 27.6 Q41.65 33.5 34.6 35.45 L20.25 38.75 20.2 38.75 19.85 38.75 Q18.05 39.0 16.55 37.95 L16.3 37.85 15.0 36.5 15.05 36.5 14.8 36.1 14.6 35.55 14.45 34.9 14.35 34.8 Q14.05 33.1 14.8 31.6 L15.1 31.05 Q15.85 29.9 16.95 29.35 L17.2 29.25 M14.85 4.7 L15.45 4.6 15.85 5.05 16.7 6.95 16.85 8.4 16.85 11.75 16.6 12.8 29.55 10.85 Q33.35 10.55 35.95 12.5 L37.15 13.45 38.2 15.1 38.75 16.4 39.3 18.55 Q39.5 20.7 37.2 23.0 34.7 25.5 30.65 26.1 L31.15 25.95 32.0 25.75 Q33.75 25.25 35.0 24.15 L36.3 22.6 36.3 22.55 Q37.65 20.35 37.25 17.7 36.8 15.1 35.05 13.6 L35.0 13.6 Q32.95 12.0 29.95 12.35 L29.8 12.35 29.75 12.35 13.3 15.15 13.1 15.2 12.1 15.4 12.0 15.4 -9.85 19.65 -10.3 19.75 -12.4 20.15 -14.7 20.65 -14.9 20.65 -16.4 20.95 -17.2 21.15 Q-19.25 21.5 -20.95 20.35 -22.7 19.2 -23.1 17.15 -23.5 15.15 -22.35 13.45 L-22.25 13.25 Q-21.6 12.25 -20.55 11.75 L-19.2 11.25 -18.95 11.2 -18.7 11.2 -19.8 11.9 -20.75 12.6 -21.05 13.85 -21.5 16.6 Q-21.35 18.75 -18.2 19.35 L-17.55 19.15 -15.75 19.2 -13.65 18.8 Q-12.9 17.25 -12.65 15.75 L-13.5 10.55 -13.55 10.15 -13.4 10.1 -13.1 10.05 -12.7 9.95 -12.05 9.85 -11.8 9.8 Q-11.25 10.3 -10.85 11.5 -10.15 13.25 -10.0 15.2 L-10.0 17.65 -9.95 18.0 3.4 15.3 10.95 13.85 12.0 13.8 Q13.1 10.7 13.0 9.0 12.95 8.45 12.3 6.95 L11.7 5.4 11.75 5.35 11.75 5.3 11.85 5.3 11.9 5.3 Q11.9 5.25 12.05 5.2 L12.7 5.1 12.9 5.05 14.85 4.7" fill="#666666" fill-rule="evenodd" stroke="none"/>
    <path d="M44.3 21.65 Q43.9 23.95 42.7 24.15 L42.55 24.05 43.1 21.85 Q43.6 19.8 43.45 17.9 L42.9 14.1 Q42.75 12.05 39.15 9.1 36.65 7.15 34.35 6.2 L31.95 6.2 Q29.9 7.05 21.85 8.45 L15.8 9.45 15.35 7.55 29.85 4.95 31.75 4.75 Q33.4 4.15 35.3 5.8 L35.3 5.95 37.6 6.9 Q40.5 8.5 41.7 10.5 43.35 12.2 43.95 14.4 L44.45 18.45 Q44.55 20.15 44.3 21.65 M12.05 10.05 L7.75 10.75 -10.25 14.0 -10.35 12.35 0.0 10.3 11.9 8.15 11.9 8.75 12.05 10.05 M30.55 30.05 L38.0 27.1 38.15 27.15 38.25 27.4 Q38.35 28.45 32.4 30.65 26.1 33.0 20.9 33.4 20.45 33.45 20.2 33.1 20.45 32.65 24.8 31.55 L30.55 30.05 M-17.55 15.25 Q-18.8 15.35 -19.4 14.8 -17.85 14.1 -13.35 13.05 L-12.95 14.5 -17.55 15.25" fill="#bbbbbb" fill-rule="evenodd" stroke="none"/>
    <path d="M14.45 3.6 L14.3 2.3 26.85 0.3 27.0 1.85 27.3 4.3 27.65 6.65 28.05 9.8 28.4 13.0 28.65 15.05 16.1 17.0 15.85 14.7 14.7 5.6 14.45 3.6" fill="url(#gradient4)" fill-rule="evenodd" stroke="none"/>
    <path d="M-12.1 8.25 L-12.25 7.15 0.1 5.1 0.35 6.4 1.35 12.15 1.75 14.05 1.95 15.15 2.45 17.9 2.65 19.25 -9.75 21.8 -9.9 20.8 -12.1 8.25" fill="url(#gradient5)" fill-rule="evenodd" stroke="none"/>
    <path d="M27.0 1.85 L27.3 4.3 27.65 6.65 28.05 9.8 28.4 13.0 M15.85 14.7 L14.7 5.6 14.45 3.6 M0.35 6.4 L1.35 12.15 1.75 14.05 1.95 15.15 2.45 17.9 M-9.9 20.8 L-12.1 8.25" fill="none" stroke="#2e2e2e" stroke-linecap="round" stroke-linejoin="round" stroke-width="2.0"/>
    <path d="M2.65 19.25 L-9.75 21.8 -12.25 7.15 0.1 5.1 2.65 19.25" fill="url(#gradient6)" fill-rule="evenodd" stroke="none"/>
    <path d="M16.1 17.0 L14.3 2.3 26.85 0.3 28.65 15.05 16.1 17.0" fill="url(#gradient7)" fill-rule="evenodd" stroke="none"/>
  </g>
  <defs>
    <linearGradient gradientTransform="matrix(0.0037, -1.0E-4, 7.0E-4, 0.022, 210.05, 5.15)" gradientUnits="userSpaceOnUse" id="gradient0" spreadMethod="pad" x1="-819.2" x2="819.2">
      <stop offset="0.0" stop-color="#666666"/>
      <stop offset="0.403921568627451" stop-color="#999999"/>
      <stop offset="0.9921568627450981" stop-color="#666666"/>
    </linearGradient>
    <linearGradient gradientTransform="matrix(0.0037, 3.0E-4, -0.0018, 0.022, 205.95, 102.9)" gradientUnits="userSpaceOnUse" id="gradient1" spreadMethod="pad" x1="-819.2" x2="819.2">
      <stop offset="0.0" stop-color="#666666"/>
      <stop offset="0.403921568627451" stop-color="#999999"/>
      <stop offset="0.9921568627450981" stop-color="#666666"/>
    </linearGradient>
    <linearGradient gradientTransform="matrix(-0.0024, -0.0151, 0.0164, -0.0027, -4.65, 14.2)" gradientUnits="userSpaceOnUse" id="gradient2" spreadMethod="pad" x1="-819.2" x2="819.2">
      <stop offset="0.0" stop-color="#999999"/>
      <stop offset="0.403921568627451" stop-color="#666666"/>
      <stop offset="0.9921568627450981" stop-color="#999999"/>
    </linearGradient>
    <linearGradient gradientTransform="matrix(-0.0017, -0.0152, 0.0166, -0.0019, 21.65, 9.7)" gradientUnits="userSpaceOnUse" id="gradient3" spreadMethod="pad" x1="-819.2" x2="819.2">
      <stop offset="0.0" stop-color="#999999"/>
      <stop offset="0.403921568627451" stop-color="#666666"/>
      <stop offset="0.9921568627450981" stop-color="#999999"/>
    </linearGradient>
    <linearGradient gradientTransform="matrix(-0.001, -0.0092, 0.0102, -0.001, 21.6, 8.6)" gradientUnits="userSpaceOnUse" id="gradient4" spreadMethod="pad" x1="-819.2" x2="819.2">
      <stop offset="0.0" stop-color="#999999"/>
      <stop offset="0.7215686274509804" stop-color="#cccccc"/>
      <stop offset="0.9921568627450981" stop-color="#999999"/>
    </linearGradient>
    <linearGradient gradientTransform="matrix(-0.0015, -0.0091, 0.0102, -0.0015, -4.7, 13.1)" gradientUnits="userSpaceOnUse" id="gradient5" spreadMethod="pad" x1="-819.2" x2="819.2">
      <stop offset="0.0" stop-color="#999999"/>
      <stop offset="0.7215686274509804" stop-color="#cccccc"/>
      <stop offset="0.9921568627450981" stop-color="#999999"/>
    </linearGradient>
    <linearGradient gradientTransform="matrix(-0.0015, -0.0091, 0.0102, -0.0015, -4.7, 13.1)" gradientUnits="userSpaceOnUse" id="gradient6" spreadMethod="pad" x1="-819.2" x2="819.2">
      <stop offset="0.0" stop-color="#999999"/>
      <stop offset="0.7215686274509804" stop-color="#cccccc"/>
      <stop offset="0.9921568627450981" stop-color="#999999"/>
    </linearGradient>
    <linearGradient gradientTransform="matrix(-0.001, -0.0092, 0.0102, -0.001, 21.6, 8.6)" gradientUnits="userSpaceOnUse" id="gradient7" spreadMethod="pad" x1="-819.2" x2="819.2">
      <stop offset="0.0" stop-color="#999999"/>
      <stop offset="0.7215686274509804" stop-color="#cccccc"/>
      <stop offset="0.9921568627450981" stop-color="#999999"/>
    </linearGradient>
  </defs>
</svg>
