<?xml version="1.0" encoding="UTF-8" standalone="no"?>
<svg xmlns:xlink="http://www.w3.org/1999/xlink" height="22.45px" width="30.15px" xmlns="http://www.w3.org/2000/svg">
  <g transform="matrix(1.0, 0.0, 0.0, 1.0, 239.65, -220.75)">
    <path d="M-230.8 230.95 Q-231.15 229.85 -228.0 231.1 L-222.45 233.35 Q-219.1 234.35 -215.3 234.55 -214.35 234.55 -214.05 234.85 -213.65 235.2 -213.35 236.45 L-213.15 238.1 Q-213.25 239.65 -214.55 240.0 -216.5 240.5 -218.3 239.4 L-223.8 236.0 Q-224.85 235.55 -227.6 233.5 -230.7 231.4 -230.8 230.95" fill="#3f2b14" fill-rule="evenodd" stroke="none"/>
    <path d="M-216.15 232.6 L-216.25 232.5 Q-215.05 230.05 -212.95 231.75 -211.4 232.95 -210.45 234.95 -209.65 236.5 -209.5 238.3 -209.25 241.6 -212.15 243.1 L-213.6 243.0 -214.55 242.45 Q-214.85 241.95 -214.35 241.7 -214.05 241.65 -213.45 242.0 L-212.3 242.1 Q-210.0 240.9 -210.35 237.75 -210.6 236.05 -211.45 234.3 -211.9 233.5 -212.8 232.75 -214.25 231.4 -215.6 232.05 L-215.75 232.35 -215.8 232.6 -216.15 232.6" fill="#5f3d16" fill-rule="evenodd" stroke="none"/>
    <path d="M-230.8 230.95 Q-230.7 231.4 -227.6 233.5 -224.85 235.55 -223.8 236.0 L-218.3 239.4 Q-216.5 240.5 -214.55 240.0 -213.25 239.65 -213.15 238.1 L-213.35 236.45 Q-213.65 235.2 -214.05 234.85 -214.35 234.55 -215.3 234.55 -219.1 234.35 -222.45 233.35 L-228.0 231.1 Q-231.15 229.85 -230.8 230.95 Z" fill="none" stroke="#3f2b14" stroke-linecap="round" stroke-linejoin="round" stroke-width="4.0"/>
    <path d="M-230.45 230.85 Q-230.8 229.75 -227.65 231.0 L-222.1 233.25 Q-218.75 234.25 -214.95 234.45 L-213.7 234.75 Q-213.35 235.1 -213.05 236.35 L-212.85 238.0 Q-212.95 239.55 -214.25 239.9 -216.15 240.45 -217.95 239.3 L-223.5 235.95 -227.3 233.4 Q-230.35 231.3 -230.45 230.85" fill="#80521f" fill-rule="evenodd" stroke="none"/>
    <path d="M-238.2 233.35 L-237.85 232.05 -233.95 232.2 -234.1 235.1 Q-234.9 235.6 -235.55 235.55 -237.0 235.5 -237.75 234.55 -238.25 233.85 -238.2 233.35" fill="#119332" fill-rule="evenodd" stroke="none"/>
    <path d="M-235.55 235.45 Q-234.35 235.5 -232.4 233.6 L-230.65 231.75 Q-230.65 231.55 -231.8 231.1 L-234.3 230.6 Q-238.0 230.35 -238.15 233.2 -238.25 233.7 -237.65 234.4 -236.9 235.4 -235.55 235.45 Z" fill="none" stroke="#0b591f" stroke-linecap="round" stroke-linejoin="round" stroke-width="3.0"/>
    <path d="M-235.55 235.45 Q-236.9 235.4 -237.65 234.4 -238.25 233.7 -238.15 233.2 -238.0 230.35 -234.3 230.6 L-231.8 231.1 Q-230.65 231.55 -230.65 231.75 L-232.4 233.6 Q-234.35 235.5 -235.55 235.45" fill="#119332" fill-rule="evenodd" stroke="none"/>
    <path d="M-230.0 222.35 L-231.05 222.3 Q-232.45 222.7 -232.7 224.4 -232.85 225.6 -232.6 226.65 L-231.65 228.85 -231.15 229.7 Q-230.85 230.8 -230.45 230.7 L-229.4 229.35 -228.25 227.45 -227.8 226.05 Q-227.55 225.0 -227.65 224.65 -228.25 222.5 -229.9 222.3 L-230.0 222.35 Z" fill="none" stroke="#0b591f" stroke-linecap="round" stroke-linejoin="round" stroke-width="3.0"/>
    <path d="M-230.0 222.35 L-229.9 222.3 Q-228.25 222.5 -227.65 224.65 -227.55 225.0 -227.8 226.05 L-228.25 227.45 -229.4 229.35 -230.45 230.7 Q-230.85 230.8 -231.15 229.7 L-231.65 228.85 -232.6 226.65 Q-232.85 225.6 -232.7 224.4 -232.45 222.7 -231.05 222.3 L-230.0 222.35" fill="#119332" fill-rule="evenodd" stroke="none"/>
  </g>
</svg>
