<?xml version="1.0" encoding="UTF-8" standalone="no"?>
<svg xmlns:xlink="http://www.w3.org/1999/xlink" height="8.3px" width="9.4px" xmlns="http://www.w3.org/2000/svg">
  <g transform="matrix(1.0, 0.0, 0.0, 1.0, 2.7, 2.65)">
    <path d="M4.6 -0.75 Q5.7 0.2 5.7 1.5 5.7 2.8 4.6 3.7 3.55 4.65 2.0 4.65 0.45 4.65 -0.65 3.7 -1.7 2.8 -1.7 1.5 -1.7 0.2 -0.65 -0.75 0.45 -1.65 2.0 -1.65 3.55 -1.65 4.6 -0.75 Z" fill="none" stroke="#44505b" stroke-linecap="round" stroke-linejoin="round" stroke-width="2.0"/>
    <path d="M4.6 -0.75 Q5.7 0.2 5.7 1.5 5.7 2.8 4.6 3.7 3.55 4.65 2.0 4.65 0.45 4.65 -0.65 3.7 -1.7 2.8 -1.7 1.5 -1.7 0.2 -0.65 -0.75 0.45 -1.65 2.0 -1.65 3.55 -1.65 4.6 -0.75" fill="#eceef0" fill-rule="evenodd" stroke="none"/>
  </g>
</svg>
