<?xml version="1.0" encoding="UTF-8" standalone="no"?>
<svg xmlns:xlink="http://www.w3.org/1999/xlink" height="36.9px" width="197.4px" xmlns="http://www.w3.org/2000/svg">
  <g transform="matrix(1.0, 0.0, 0.0, 1.0, 31.6, 9.1)">
    <path d="M164.15 -4.75 L164.3 -4.75 164.3 -4.65 164.25 -4.7 Q164.15 -4.7 164.15 -4.75 M140.2 -2.75 L140.55 -3.75 140.8 -3.9 141.2 -4.3 141.85 -4.6 142.3 -4.95 144.3 -6.3 Q145.7 -7.2 146.55 -7.35 L164.7 -8.6 164.55 -6.0 Q163.0 -6.25 163.0 -4.8 L163.15 -4.45 163.75 -3.65 164.05 -3.75 Q163.4 -1.55 162.2 0.5 L160.05 0.6 156.75 0.75 151.3 1.1 150.75 1.15 149.95 1.4 148.95 1.7 148.8 2.45 Q148.8 3.95 149.5 4.15 L151.7 4.45 155.0 4.95 158.2 5.5 160.35 5.9 160.75 5.95 162.2 6.55 162.65 7.6 164.1 10.85 164.9 12.7 165.25 13.65 165.8 14.95 165.8 15.45 165.8 16.15 165.8 16.7 165.8 17.35 161.0 24.1 159.8 25.8 158.8 26.65 158.35 27.15 157.95 27.55 152.55 27.55 150.8 27.45 148.75 27.25 148.0 26.8 Q146.8 26.15 146.6 27.1 L144.05 26.9 141.5 26.5 141.05 26.25 140.85 25.6 140.15 22.95 Q139.2 19.45 139.2 17.35 146.5 17.35 155.0 19.1 L155.0 18.25 154.9 16.9 Q154.6 13.75 152.55 13.75 L148.95 14.3 148.5 14.3 147.75 14.3 147.05 14.4 146.4 14.4 145.35 14.3 144.7 14.3 138.7 8.3 138.6 7.35 Q138.6 5.85 138.9 3.85 L139.05 3.85 139.9 3.6 Q140.5 3.3 140.5 2.8 L139.3 1.4 140.2 -2.75" fill="url(#gradient0)" fill-rule="evenodd" stroke="none"/>
    <path d="M100.4 -6.7 Q100.4 -7.2 101.05 -7.35 L102.2 -7.65 103.45 -7.9 104.25 -8.05 105.95 -8.2 108.1 -8.45 114.3 -9.1 114.6 -9.1 115.5 -8.4 116.05 -7.35 116.85 -5.25 120.4 4.85 121.45 7.75 122.4 10.6 Q122.85 13.1 123.9 13.75 L123.9 11.65 124.0 8.6 124.15 4.95 124.45 -3.75 124.55 -4.95 124.8 -6.3 Q124.95 -7.9 125.1 -7.9 L129.8 -7.9 129.65 -7.4 129.9 -6.55 Q130.25 -5.8 130.7 -5.8 131.35 -5.8 131.35 -6.0 L131.6 -7.35 131.75 -7.9 136.2 -7.9 132.35 24.55 Q132.15 25.85 131.7 26.35 L129.95 27.0 120.7 27.6 120.2 27.6 119.5 27.6 Q118.45 27.45 118.45 27.0 L114.6 14.85 113.65 11.9 113.35 10.7 113.1 9.5 112.6 8.2 111.25 4.15 110.35 2.95 110.35 14.2 109.95 14.35 Q108.95 14.8 108.95 15.55 L109.0 16.1 Q109.25 16.55 110.25 16.55 L110.35 16.55 110.35 26.35 100.4 26.35 100.4 4.35 Q100.95 3.95 101.45 3.65 101.85 3.4 101.85 2.6 101.85 2.0 101.45 1.7 L100.4 1.6 100.4 -6.7" fill="url(#gradient1)" fill-rule="evenodd" stroke="none"/>
    <path d="M69.4 -2.6 L69.5 -3.15 68.75 -4.25 73.0 -8.55 73.6 -8.55 75.85 -8.2 81.65 -7.5 84.2 -7.2 86.75 -6.7 87.95 -6.15 97.05 5.35 97.05 5.5 97.05 5.8 Q97.05 6.95 95.9 10.6 95.0 13.8 93.55 17.1 L93.05 17.15 93.0 17.75 93.0 18.3 Q91.7 21.2 91.0 21.55 L78.5 27.8 66.95 23.95 66.25 23.35 65.5 22.25 65.1 20.95 64.1 16.4 61.6 5.35 61.5 5.15 61.45 4.95 61.5 4.75 61.6 4.7 Q61.75 4.15 62.7 2.95 L65.05 0.1 67.3 -2.6 67.35 -2.5 69.0 -2.5 69.4 -2.6 M83.8 4.15 L83.1 3.5 80.2 1.1 79.7 1.1 79.25 1.1 Q77.8 1.1 75.3 2.95 L74.75 3.4 72.35 5.35 72.35 5.9 72.5 7.75 72.9 12.15 73.0 13.1 Q73.05 14.05 73.8 14.65 L75.3 15.5 76.5 16.05 79.7 17.9 80.75 18.55 80.9 18.55 81.05 18.55 81.25 18.55 81.3 18.55 82.6 17.35 84.05 15.2 85.0 13.75 85.0 5.35 83.8 4.15" fill="url(#gradient2)" fill-rule="evenodd" stroke="none"/>
    <path d="M36.4 -8.55 L38.65 -8.2 44.4 -7.5 46.95 -7.2 49.55 -6.7 50.75 -6.15 59.8 5.35 59.8 5.5 59.8 5.8 Q59.8 6.95 58.65 10.6 57.7 14.0 56.1 17.5 54.6 21.15 53.8 21.55 47.55 24.7 41.25 27.8 L29.75 23.95 29.0 23.35 Q28.5 22.9 28.3 22.25 L27.9 20.95 26.85 16.4 26.8 16.2 28.1 15.1 28.6 14.05 28.45 13.5 28.0 13.35 26.4 13.35 26.15 13.5 24.35 5.35 24.25 5.15 24.2 4.95 24.25 4.75 24.35 4.7 Q24.5 4.15 25.5 2.95 L27.8 0.1 Q32.35 -5.55 35.75 -8.55 L36.4 -8.55 M46.55 4.15 L45.85 3.5 42.95 1.1 42.45 1.1 42.0 1.1 Q40.55 1.1 38.05 2.95 L37.5 3.4 35.1 5.35 35.1 5.9 35.25 7.75 35.65 12.15 35.75 13.1 Q35.8 14.05 36.55 14.65 L38.05 15.5 39.25 16.05 42.45 17.9 43.5 18.55 43.7 18.55 43.85 18.55 44.0 18.55 44.1 18.55 45.35 17.35 46.8 15.2 47.75 13.75 47.75 5.35 46.55 4.15" fill="url(#gradient3)" fill-rule="evenodd" stroke="none"/>
    <path d="M2.2 -5.5 L5.95 -6.15 7.65 -6.3 Q8.05 -5.1 8.75 -5.1 9.3 -5.1 9.65 -6.1 L9.8 -6.5 11.8 -6.7 12.5 -6.75 13.55 -6.85 15.4 -6.85 12.35 17.9 11.8 19.1 12.35 19.1 15.95 17.85 19.6 16.7 20.6 16.65 21.1 16.65 21.4 16.7 21.75 17.45 22.4 20.1 23.85 27.0 23.9 27.2 23.9 27.55 2.2 27.55 2.2 -5.5" fill="url(#gradient4)" fill-rule="evenodd" stroke="none"/>
    <path d="M-15.95 -0.7 Q-16.35 -1.4 -17.4 -1.4 L-17.9 -1.4 -18.35 -1.3 -20.8 0.5 -22.2 1.55 -23.2 2.3 -24.0 3.0 Q-24.4 3.4 -24.4 4.05 L-24.4 4.35 -24.4 4.7 -23.75 8.3 -22.0 17.9 Q-21.4 20.5 -20.8 21.55 L-18.95 21.7 -17.8 21.7 Q-17.0 21.7 -15.95 20.3 L-14.3 18.3 Q-13.5 17.2 -13.5 16.05 L-13.55 15.75 -13.55 15.5 -19.5 8.95 -14.1 2.95 -14.3 2.45 -15.95 -0.7 M-29.75 -7.35 L-28.8 -7.5 -26.3 -7.75 -15.8 -8.85 -12.9 -9.1 -11.7 -9.1 -11.3 -8.8 -9.3 -6.7 -8.1 -5.35 -6.9 -3.9 Q-7.45 -3.35 -7.45 -2.85 -7.45 -2.15 -6.8 -2.0 L-5.3 -2.0 -3.3 0.5 -3.2 1.7 -3.3 2.95 -4.2 3.8 -4.8 4.35 -5.15 4.7 -6.2 5.8 -8.25 8.4 -8.75 8.95 -8.75 9.5 -6.9 9.5 -6.45 9.9 -3.3 13.1 -2.6 13.9 Q-1.45 15.1 -1.45 16.15 L-1.55 16.4 -1.55 16.7 -2.25 18.3 -2.8 19.45 -3.3 20.3 -4.8 22.95 -6.85 26.75 -6.9 27.0 -7.55 27.55 -17.15 27.55 Q-17.5 27.15 -18.2 27.05 -19.3 26.9 -19.6 27.55 L-31.6 27.55 -31.6 6.05 -31.05 5.6 -30.0 4.65 Q-30.75 3.95 -31.6 4.25 L-31.6 -6.7 -29.75 -7.35" fill="url(#gradient5)" fill-rule="evenodd" stroke="none"/>
  </g>
  <defs>
    <linearGradient gradientTransform="matrix(0.0, -0.0191, 1.0, 2.0E-4, -9.35, 9.35)" gradientUnits="userSpaceOnUse" id="gradient0" spreadMethod="pad" x1="-819.2" x2="819.2">
      <stop offset="0.0" stop-color="#b43b0a"/>
      <stop offset="1.0" stop-color="#ff6523"/>
    </linearGradient>
    <linearGradient gradientTransform="matrix(0.0, -0.0191, 1.0, 2.0E-4, -6.5, 9.35)" gradientUnits="userSpaceOnUse" id="gradient1" spreadMethod="pad" x1="-819.2" x2="819.2">
      <stop offset="0.0" stop-color="#b43b0a"/>
      <stop offset="1.0" stop-color="#ff6523"/>
    </linearGradient>
    <linearGradient gradientTransform="matrix(0.0, -0.0191, 1.0, 2.0E-4, -4.6, 9.35)" gradientUnits="userSpaceOnUse" id="gradient2" spreadMethod="pad" x1="-819.2" x2="819.2">
      <stop offset="0.0" stop-color="#b43b0a"/>
      <stop offset="1.0" stop-color="#ff6523"/>
    </linearGradient>
    <linearGradient gradientTransform="matrix(0.0, -0.0191, 1.0, 2.0E-4, -1.75, 9.35)" gradientUnits="userSpaceOnUse" id="gradient3" spreadMethod="pad" x1="-819.2" x2="819.2">
      <stop offset="0.0" stop-color="#b43b0a"/>
      <stop offset="1.0" stop-color="#ff6523"/>
    </linearGradient>
    <linearGradient gradientTransform="matrix(0.0, -0.0191, 1.0, 2.0E-4, 2.05, 9.35)" gradientUnits="userSpaceOnUse" id="gradient4" spreadMethod="pad" x1="-819.2" x2="819.2">
      <stop offset="0.0" stop-color="#b43b0a"/>
      <stop offset="1.0" stop-color="#ff6523"/>
    </linearGradient>
    <linearGradient gradientTransform="matrix(0.0, -0.0191, 1.0, 2.0E-4, 3.95, 9.35)" gradientUnits="userSpaceOnUse" id="gradient5" spreadMethod="pad" x1="-819.2" x2="819.2">
      <stop offset="0.0" stop-color="#b43b0a"/>
      <stop offset="1.0" stop-color="#ff6523"/>
    </linearGradient>
  </defs>
</svg>
