<?xml version="1.0" encoding="UTF-8" standalone="no"?>
<svg xmlns:xlink="http://www.w3.org/1999/xlink" height="49.65px" width="50.25px" xmlns="http://www.w3.org/2000/svg">
  <g transform="matrix(1.0, 0.0, 0.0, 1.0, 0.45, -0.15)">
    <path d="M28.7 18.2 L37.35 2.15 47.05 11.8 31.05 20.5 28.7 18.2" fill="#ffffff" fill-opacity="0.08627451" fill-rule="evenodd" stroke="none"/>
    <path d="M49.8 31.25 L32.35 26.0 32.35 22.75 49.8 17.55 49.8 31.25" fill="#ffffff" fill-opacity="0.2509804" fill-rule="evenodd" stroke="none"/>
    <path d="M28.9 31.05 L31.25 28.7 47.35 37.45 37.65 47.05 28.9 31.05" fill="#ffffff" fill-opacity="0.49803922" fill-rule="evenodd" stroke="none"/>
    <path d="M26.4 17.65 L23.15 17.65 17.9 0.15 31.45 0.15 26.4 17.65" fill="#ffffff" fill-opacity="0.047058824" fill-rule="evenodd" stroke="none"/>
    <path d="M17.85 21.1 L1.75 12.3 11.4 2.6 20.1 18.7 17.85 21.1" fill="#ffffff" fill-opacity="0.007843138" fill-rule="evenodd" stroke="none"/>
    <path d="M18.3 28.9 L20.7 31.25 12.0 47.25 2.35 37.55 18.3 28.9" fill="#ffffff" fill-rule="evenodd" stroke="none"/>
    <path d="M26.3 32.25 L31.45 49.8 17.85 49.7 22.95 32.35 26.3 32.25" fill="#ffffff" fill-opacity="0.7058824" fill-rule="evenodd" stroke="none"/>
    <path d="M17.25 26.8 L-0.45 32.05 -0.35 18.4 17.15 23.55 17.25 26.8" fill="#ffffff" fill-opacity="0.0" fill-rule="evenodd" stroke="none"/>
  </g>
</svg>
