<?xml version="1.0" encoding="UTF-8" standalone="no"?>
<svg xmlns:xlink="http://www.w3.org/1999/xlink" height="107.05px" width="77.65px" xmlns="http://www.w3.org/2000/svg">
  <g transform="matrix(1.0, 0.0, 0.0, 1.0, 38.8, 53.55)">
    <path d="M23.6 42.6 Q21.25 47.1 19.3 48.75 17.6 50.15 12.05 51.1 L0.6 51.5 -11.05 51.1 Q-16.7 50.15 -18.3 48.75 -20.35 47.1 -22.6 42.6 L-23.45 40.95 24.45 40.95 23.6 42.6" fill="#799e49" fill-rule="evenodd" stroke="none"/>
    <path d="M23.6 42.6 Q21.25 47.1 19.3 48.75 17.6 50.15 12.05 51.1 L0.6 51.5 -11.05 51.1 Q-16.7 50.15 -18.3 48.75 -20.35 47.1 -22.6 42.6 L-23.45 40.95 24.45 40.95 23.6 42.6 Z" fill="none" stroke="#ffe000" stroke-linecap="round" stroke-linejoin="round" stroke-width="4.0"/>
    <path d="M-27.7 -3.2 L-27.5 -3.1 Q-28.25 -7.6 -27.95 -11.8 -27.4 -19.15 -23.95 -25.0 -20.45 -30.8 -13.3 -33.75 -10.95 -34.8 -8.3 -35.3 -14.65 -38.15 -14.1 -50.85 L-5.65 -51.55 Q-8.7 -41.75 -7.15 -35.8 -8.0 -41.65 1.3 -46.65 L5.4 -40.95 Q-2.65 -39.1 -6.15 -35.7 L0.5 -36.25 Q8.25 -36.25 14.3 -33.75 21.35 -30.8 24.95 -25.0 28.4 -19.15 28.95 -11.8 29.25 -7.8 28.6 -3.5 31.6 -4.75 34.35 -2.8 37.8 -0.45 36.5 3.75 35.35 7.05 32.5 9.5 30.55 11.1 27.0 10.9 L24.65 10.6 24.55 10.6 24.45 10.8 -23.45 10.8 -23.65 10.4 -24.55 10.6 -26.9 10.9 Q-30.5 11.1 -32.45 9.5 -35.3 7.05 -36.4 3.75 -37.75 -0.45 -34.25 -2.8 -31.1 -4.95 -27.7 -3.2" fill="#9e8b49" fill-rule="evenodd" stroke="none"/>
    <path d="M-27.7 -3.2 Q-31.1 -4.95 -34.25 -2.8 -37.75 -0.45 -36.4 3.75 -35.3 7.05 -32.45 9.5 -30.5 11.1 -26.9 10.9 L-24.55 10.6 -23.65 10.4 -23.45 10.8 24.45 10.8 24.55 10.6 24.65 10.6 27.0 10.9 Q30.55 11.1 32.5 9.5 35.35 7.05 36.5 3.75 37.8 -0.45 34.35 -2.8 31.6 -4.75 28.6 -3.5 29.25 -7.8 28.95 -11.8 28.4 -19.15 24.95 -25.0 21.35 -30.8 14.3 -33.75 8.25 -36.25 0.5 -36.25 L-6.15 -35.7 Q-2.65 -39.1 5.4 -40.95 L1.3 -46.65 Q-8.0 -41.65 -7.15 -35.8 -8.7 -41.75 -5.65 -51.55 L-14.1 -50.85 Q-14.65 -38.15 -8.3 -35.3 -10.95 -34.8 -13.3 -33.75 -20.45 -30.8 -23.95 -25.0 -27.4 -19.15 -27.95 -11.8 -28.25 -7.6 -27.5 -3.1 L-27.7 -3.2 Z" fill="none" stroke="#ffe000" stroke-linecap="round" stroke-linejoin="round" stroke-width="4.0"/>
    <path d="M23.6 42.6 Q21.25 47.1 19.3 48.75 17.6 50.15 12.05 51.1 L0.6 51.5 -11.05 51.1 Q-16.7 50.15 -18.3 48.75 -20.35 47.1 -22.6 42.6 L-23.45 40.95 24.45 40.95 23.6 42.6" fill="#ffffff" fill-rule="evenodd" stroke="none"/>
    <path d="M13.7 46.7 L-12.7 46.7 -10.35 40.95 11.35 40.95 13.7 46.7" fill="#ffe000" fill-rule="evenodd" stroke="none"/>
    <path d="M6.0 46.85 L1.1 46.85 1.1 41.0 6.0 41.0 6.0 46.85 M10.0 46.65 L6.55 46.85 7.45 46.75 7.45 41.0 9.3 41.0 Q10.0 43.45 10.0 46.4 L10.0 46.65 M-9.2 46.65 L-9.2 46.4 Q-9.2 43.45 -8.5 41.0 L-6.55 41.0 -6.55 46.75 -9.2 46.65 M-0.3 46.85 L-5.15 46.85 -5.15 41.0 -0.3 41.0 -0.3 46.85" fill="#ffffff" fill-rule="evenodd" stroke="none"/>
    <path d="M-25.75 -1.7 L-27.7 -3.15 Q-31.15 -4.9 -34.4 -2.75 -37.8 -0.45 -36.45 3.75 -35.35 7.1 -32.4 9.55 -30.55 11.1 -26.95 10.9 L-24.65 10.65 -23.7 10.45 -24.95 -0.95 -25.75 -1.7" fill="#ffffff" fill-rule="evenodd" stroke="none"/>
    <path d="M-25.6 1.55 Q-28.05 0.3 -30.4 1.85 -32.85 3.5 -31.85 6.55 -31.1 8.95 -28.95 10.75 L-28.85 10.85 -26.9 10.9 -24.6 10.6 -23.65 10.4 -24.6 2.25 -25.6 1.55" fill="#ffe000" fill-rule="evenodd" stroke="none"/>
    <path d="M27.7 -3.15 Q31.15 -4.9 34.4 -2.75 37.8 -0.45 36.45 3.75 35.35 7.1 32.4 9.55 30.55 11.1 26.95 10.9 L24.65 10.65 23.7 10.45 24.95 -0.95 25.75 -1.7 27.7 -3.15" fill="#ffffff" fill-rule="evenodd" stroke="none"/>
    <path d="M25.6 1.55 Q28.05 0.3 30.4 1.85 32.85 3.5 31.85 6.55 31.1 8.95 28.95 10.75 L28.85 10.85 26.9 10.9 24.6 10.6 23.65 10.4 24.6 2.25 25.6 1.55" fill="#ffe000" fill-rule="evenodd" stroke="none"/>
    <path d="M-14.15 -50.85 L-5.65 -51.5 Q-9.05 -40.8 -6.9 -34.85 -14.75 -36.8 -14.15 -50.85" fill="#ffffff" fill-rule="evenodd" stroke="none"/>
    <path d="M1.3 -46.7 L5.3 -40.95 Q-3.65 -38.85 -6.95 -34.85 -8.9 -41.2 1.3 -46.7" fill="#ffffff" fill-rule="evenodd" stroke="none"/>
    <path d="M28.95 -11.8 Q29.35 -5.45 27.6 1.5 26.35 6.4 24.45 10.8 L-23.45 10.8 Q-25.45 6.4 -26.7 1.5 -28.35 -5.45 -27.95 -11.8 -27.4 -19.15 -23.95 -25.0 -20.45 -30.8 -13.3 -33.75 -7.35 -36.25 0.5 -36.25 8.25 -36.25 14.3 -33.75 21.35 -30.8 24.95 -25.0 28.4 -19.15 28.95 -11.8" fill="#ffffff" fill-rule="evenodd" stroke="none"/>
    <path d="M21.05 -23.25 L27.7 -18.65 Q28.7 -15.35 28.95 -11.8 29.35 -5.45 27.6 1.5 L26.7 4.9 Q20.65 8.15 14.6 7.05 L8.8 4.7 11.35 10.8 -10.35 10.8 -7.8 4.7 -13.6 7.05 Q-19.75 8.15 -25.8 4.8 L-26.7 1.5 Q-28.35 -5.45 -27.95 -11.8 -27.7 -15.35 -26.7 -18.65 -24.25 -20.7 -20.05 -23.25 -12.2 -28.15 -4.8 -21.4 -1.65 -18.35 0.5 -14.65 2.65 -18.35 5.8 -21.4 13.2 -28.15 21.05 -23.25" fill="#ffe000" fill-rule="evenodd" stroke="none"/>
    <path d="M1.1 2.55 Q3.85 2.75 6.0 5.1 L6.0 10.8 1.1 10.8 1.1 2.55 M7.45 6.95 Q8.7 8.65 9.3 10.8 L7.45 10.8 7.45 6.95 M-5.15 4.9 Q-3.0 2.75 -0.3 2.55 L-0.3 10.8 -5.15 10.8 -5.15 4.9 M-6.55 10.8 L-8.5 10.8 Q-7.8 8.55 -6.55 6.7 L-6.55 10.8" fill="#ffffff" fill-rule="evenodd" stroke="none"/>
    <path d="M8.4 -5.9 L25.05 -5.9 25.05 -2.6 8.4 -2.6 8.4 -5.9 M-24.65 -5.9 L-8.0 -5.9 -8.0 -2.6 -24.65 -2.6 -24.65 -5.9" fill="#ffffff" fill-rule="evenodd" stroke="none"/>
  </g>
</svg>
