<?xml version="1.0" encoding="UTF-8" standalone="no"?>
<svg xmlns:xlink="http://www.w3.org/1999/xlink" height="55.9px" width="67.5px" xmlns="http://www.w3.org/2000/svg">
  <g transform="matrix(1.0, 0.0, 0.0, 1.0, 69.1, 118.25)">
    <path d="M-27.75 -100.4 Q-27.75 -98.7 -28.55 -93.95 -29.3 -89.55 -29.6 -88.75 L-22.9 -88.3 Q-20.75 -87.55 -19.35 -87.25 L-15.75 -87.25 -13.2 -90.6 Q-11.8 -92.6 -10.0 -92.6 -7.1 -92.6 -6.9 -88.65 L-7.1 -83.75 Q-6.8 -82.6 -6.4 -79.65 L-5.6 -75.1 Q-7.0 -75.1 -8.35 -78.3 L-10.35 -83.1 Q-11.7 -82.1 -12.55 -81.65 -13.95 -80.85 -15.25 -80.85 -20.2 -80.85 -23.2 -82.05 -26.15 -83.25 -28.75 -83.25 -29.75 -83.25 -30.8 -82.6 -31.95 -81.95 -32.5 -81.85 L-33.6 -82.1 Q-35.1 -83.8 -35.1 -84.75 -35.1 -86.95 -33.8 -93.2 -32.35 -100.2 -32.25 -101.25 L-33.4 -101.1 -36.6 -100.75 -37.75 -100.35 -38.95 -95.5 -39.7 -91.5 -39.5 -90.85 -39.85 -90.4 Q-39.9 -88.25 -40.2 -86.4 -40.9 -82.35 -43.25 -82.35 L-50.75 -82.95 Q-53.8 -83.5 -54.1 -84.1 L-54.55 -85.0 -54.75 -86.35 Q-54.75 -87.6 -54.85 -86.6 -55.9 -84.25 -56.75 -80.25 L-58.1 -73.5 Q-57.15 -73.65 -55.0 -74.65 -53.1 -75.5 -52.0 -75.5 -50.9 -75.5 -50.35 -74.6 -50.0 -74.0 -50.0 -73.55 -50.0 -72.2 -54.25 -69.25 -58.4 -66.35 -60.0 -66.35 -62.65 -66.35 -64.1 -68.25 -65.1 -69.5 -65.1 -70.5 -65.1 -72.05 -61.8 -81.85 -58.2 -92.45 -56.1 -95.25 L-55.0 -95.5 Q-52.45 -94.3 -51.6 -91.5 L-50.25 -87.35 -44.6 -87.25 -44.1 -91.35 -44.15 -91.4 Q-46.65 -93.4 -47.0 -93.5 -49.4 -94.25 -50.25 -95.15 -50.75 -95.75 -50.75 -96.55 -50.75 -97.7 -48.65 -102.6 -46.65 -107.25 -45.5 -109.1 -45.05 -109.75 -44.15 -112.2 -42.85 -114.3 -40.0 -114.25 -35.7 -112.45 -34.7 -111.15 -34.25 -110.55 -34.25 -108.65 -34.25 -107.5 -34.8 -105.7 L-31.0 -106.35 Q-28.55 -106.45 -27.9 -103.45 L-27.75 -100.4 M-42.35 -101.25 L-41.65 -102.85 Q-40.75 -104.2 -39.5 -104.6 L-38.65 -104.8 -38.65 -105.05 Q-38.4 -106.6 -37.75 -108.25 L-40.75 -110.0 -43.25 -103.25 -45.35 -97.25 -43.55 -96.25 Q-43.05 -99.2 -42.35 -101.25" fill="#ffffff" fill-rule="evenodd" stroke="none"/>
    <path d="M-27.75 -100.4 Q-27.75 -98.7 -28.55 -93.95 -29.3 -89.55 -29.6 -88.75 L-22.9 -88.3 Q-20.75 -87.55 -19.35 -87.25 L-15.75 -87.25 -13.2 -90.6 Q-11.8 -92.6 -10.0 -92.6 -7.1 -92.6 -6.9 -88.65 L-7.1 -83.75 Q-6.8 -82.6 -6.4 -79.65 L-5.6 -75.1 Q-7.0 -75.1 -8.35 -78.3 L-10.35 -83.1 Q-11.7 -82.1 -12.55 -81.65 -13.95 -80.85 -15.25 -80.85 -20.2 -80.85 -23.2 -82.05 -26.15 -83.25 -28.75 -83.25 -29.75 -83.25 -30.8 -82.6 -31.95 -81.95 -32.5 -81.85 L-33.6 -82.1 Q-35.1 -83.8 -35.1 -84.75 -35.1 -86.95 -33.8 -93.2 -32.35 -100.2 -32.25 -101.25 L-33.4 -101.1 -36.6 -100.75 -37.75 -100.35 -38.95 -95.5 -39.7 -91.5 -39.5 -90.85 -39.85 -90.4 Q-39.9 -88.25 -40.2 -86.4 -40.9 -82.35 -43.25 -82.35 L-50.75 -82.95 Q-53.8 -83.5 -54.1 -84.1 L-54.55 -85.0 -54.75 -86.35 Q-54.75 -87.6 -54.85 -86.6 -55.9 -84.25 -56.75 -80.25 L-58.1 -73.5 Q-57.15 -73.65 -55.0 -74.65 -53.1 -75.5 -52.0 -75.5 -50.9 -75.5 -50.35 -74.6 -50.0 -74.0 -50.0 -73.55 -50.0 -72.2 -54.25 -69.25 -58.4 -66.35 -60.0 -66.35 -62.65 -66.35 -64.1 -68.25 -65.1 -69.5 -65.1 -70.5 -65.1 -72.05 -61.8 -81.85 -58.2 -92.45 -56.1 -95.25 L-55.0 -95.5 Q-52.45 -94.3 -51.6 -91.5 L-50.25 -87.35 -44.6 -87.25 -44.1 -91.35 -44.15 -91.4 Q-46.65 -93.4 -47.0 -93.5 -49.4 -94.25 -50.25 -95.15 -50.75 -95.75 -50.75 -96.55 -50.75 -97.7 -48.65 -102.6 -46.65 -107.25 -45.5 -109.1 -45.05 -109.75 -44.15 -112.2 -42.85 -114.3 -40.0 -114.25 -35.7 -112.45 -34.7 -111.15 -34.25 -110.55 -34.25 -108.65 -34.25 -107.5 -34.8 -105.7 L-31.0 -106.35 Q-28.55 -106.45 -27.9 -103.45 L-27.75 -100.4 M-42.35 -101.25 L-41.65 -102.85 Q-40.75 -104.2 -39.5 -104.6 L-38.65 -104.8 -38.65 -105.05 Q-38.4 -106.6 -37.75 -108.25 L-40.75 -110.0 -43.25 -103.25 -45.35 -97.25 -43.55 -96.25 Q-43.05 -99.2 -42.35 -101.25" fill="none" stroke="#ffe31b" stroke-linecap="round" stroke-linejoin="round" stroke-width="8.0"/>
  </g>
</svg>
