<?xml version="1.0" encoding="UTF-8" standalone="no"?>
<svg xmlns:xlink="http://www.w3.org/1999/xlink" height="22.3px" width="85.5px" xmlns="http://www.w3.org/2000/svg">
  <g transform="matrix(1.0, 0.0, 0.0, 1.0, 42.75, 11.15)">
    <path d="M35.25 -0.65 L36.3 -0.5 36.75 -0.5 36.8 -0.35 37.0 -0.05 37.25 -0.4 37.25 -0.6 Q38.55 -0.8 39.6 -1.7 L40.7 -2.9 39.0 1.4 38.45 2.8 37.9 4.1 39.7 6.5 39.75 6.5 41.25 8.5 39.5 9.1 36.0 9.65 34.25 9.35 34.0 8.95 Q33.75 8.95 33.7 9.15 L33.2 8.9 32.0 8.2 32.2 5.95 34.85 6.3 35.25 -0.65" fill="url(#gradient0)" fill-rule="evenodd" stroke="none"/>
    <path d="M32.2 5.95 L26.15 5.4 26.05 5.05 Q26.0 4.45 25.75 4.4 L24.9 5.1 24.75 5.3 Q12.8 4.5 -3.3 4.6 -10.5 4.6 -16.25 4.75 -16.35 3.7 -16.9 4.25 L-17.35 4.8 -29.3 5.35 -32.15 5.6 -33.85 5.8 -35.05 6.05 -35.3 -1.0 -35.55 -7.85 -29.0 -8.6 -25.3 -8.85 -24.1 -7.65 -23.65 -8.65 -23.55 -9.0 -3.35 -9.65 3.95 -9.6 3.95 -9.3 Q3.95 -9.05 4.3 -8.85 L4.55 -9.2 4.65 -9.4 5.15 -9.5 5.3 -9.55 16.15 -9.05 16.3 -8.9 Q16.5 -8.65 16.7 -8.65 L16.95 -8.95 17.0 -9.05 23.85 -8.45 32.65 -7.5 32.7 -7.3 32.8 -6.9 33.05 -6.9 33.5 -7.15 33.7 -7.35 35.6 -7.1 35.25 -0.65 34.85 6.3 32.2 5.95" fill="url(#gradient1)" fill-rule="evenodd" stroke="none"/>
    <path d="M-32.15 5.6 L-32.0 7.85 -33.15 8.55 -33.7 8.8 -33.95 8.6 Q-34.2 8.6 -34.25 9.0 L-35.95 9.3 -39.5 8.75 -41.25 8.15 -39.75 6.2 -39.7 6.15 -37.9 3.75 -38.4 2.45 -38.95 1.05 -40.7 -3.2 -39.6 -2.05 Q-38.55 -1.15 -37.25 -0.9 L-37.2 -0.75 -37.0 -0.4 -36.8 -0.7 -36.7 -0.85 -36.3 -0.85 -35.3 -1.0 -35.05 6.05 -33.85 5.8 -32.15 5.6" fill="url(#gradient2)" fill-rule="evenodd" stroke="none"/>
    <path d="M35.25 -0.65 L36.3 -0.5 36.75 -0.5 36.8 -0.35 37.0 -0.05 37.25 -0.4 37.25 -0.6 Q38.55 -0.8 39.6 -1.7 L40.7 -2.9 39.0 1.4 38.45 2.8 37.9 4.1 39.7 6.5 39.75 6.5 41.25 8.5 39.5 9.1 36.0 9.65 34.25 9.35 34.0 8.95 Q33.75 8.95 33.7 9.15 L33.2 8.9 32.0 8.2 M32.2 5.95 L26.15 5.4 26.05 5.05 Q26.0 4.45 25.75 4.4 L24.9 5.1 24.75 5.3 Q12.8 4.5 -3.3 4.6 -10.5 4.6 -16.25 4.75 -16.35 3.7 -16.9 4.25 L-17.35 4.8 -29.3 5.35 -32.15 5.6 -33.85 5.8 -35.05 6.05 -35.3 -1.0 -35.55 -7.85 -29.0 -8.6 -25.3 -8.85 -24.1 -7.65 -23.65 -8.65 -23.55 -9.0 -3.35 -9.65 3.95 -9.6 3.95 -9.3 Q3.95 -9.05 4.3 -8.85 L4.55 -9.2 4.65 -9.4 5.15 -9.5 5.3 -9.55 16.15 -9.05 16.3 -8.9 Q16.5 -8.65 16.7 -8.65 L16.95 -8.95 17.0 -9.05 23.85 -8.45 32.65 -7.5 32.7 -7.3 32.8 -6.9 33.05 -6.9 33.5 -7.15 33.7 -7.35 35.6 -7.1 35.25 -0.65 34.85 6.3 32.2 5.95 M-32.0 7.85 L-33.15 8.55 -33.7 8.8 -33.95 8.6 Q-34.2 8.6 -34.25 9.0 L-35.95 9.3 -39.5 8.75 -41.25 8.15 -39.75 6.2 -39.7 6.15 -37.9 3.75 -38.4 2.45 -38.95 1.05 -40.7 -3.2 -39.6 -2.05 Q-38.55 -1.15 -37.25 -0.9 L-37.2 -0.75 -37.0 -0.4 -36.8 -0.7 -36.7 -0.85 -36.3 -0.85 -35.3 -1.0" fill="none" stroke="#0099ff" stroke-linecap="round" stroke-linejoin="round" stroke-width="3.0"/>
    <path d="M-32.9 -3.0 L-33.7 -1.9 Q-34.8 -0.8 -36.3 -0.8 L-36.75 -0.8 -36.8 -0.65 -37.0 -0.35 -37.25 -0.7 -37.25 -0.9 Q-38.55 -1.1 -39.6 -2.0 L-40.7 -3.2 -39.0 1.1 -38.45 2.5 -37.9 3.8 -39.7 6.2 -39.75 6.2 -41.25 8.2 -39.5 8.8 -36.0 9.35 -34.25 9.05 -34.0 8.65 Q-33.75 8.65 -33.7 8.85 L-33.2 8.6 -32.0 7.9 -32.9 -3.0" fill="#00111d" fill-rule="evenodd" stroke="none"/>
    <path d="M-32.9 -3.0 L-33.7 -1.9 Q-34.8 -0.8 -36.3 -0.8 L-36.75 -0.8 -36.8 -0.65 -37.0 -0.35 -37.25 -0.7 -37.25 -0.9 Q-38.55 -1.1 -39.6 -2.0 L-40.7 -3.2 -39.0 1.1 -38.45 2.5 -37.9 3.8 -39.7 6.2 -39.75 6.2 -41.25 8.2 -39.5 8.8 -36.0 9.35 -34.25 9.05 -34.0 8.65 Q-33.75 8.65 -33.7 8.85 L-33.2 8.6 -32.0 7.9" fill="none" stroke="#003558" stroke-linecap="round" stroke-linejoin="round" stroke-width="1.0"/>
    <path d="M32.9 -2.7 L33.7 -1.6 Q34.8 -0.5 36.3 -0.5 L36.75 -0.5 36.8 -0.35 37.0 -0.05 37.25 -0.4 37.25 -0.6 Q38.55 -0.8 39.6 -1.7 L40.7 -2.9 39.0 1.4 38.45 2.8 37.9 4.1 39.7 6.5 39.75 6.5 41.25 8.5 39.5 9.1 36.0 9.65 34.25 9.35 34.0 8.95 Q33.75 8.95 33.7 9.15 L33.2 8.9 32.0 8.2 32.9 -2.7" fill="#00111d" fill-rule="evenodd" stroke="none"/>
    <path d="M32.9 -2.7 L33.7 -1.6 Q34.8 -0.5 36.3 -0.5 L36.75 -0.5 36.8 -0.35 37.0 -0.05 37.25 -0.4 37.25 -0.6 Q38.55 -0.8 39.6 -1.7 L40.7 -2.9 39.0 1.4 38.45 2.8 37.9 4.1 39.7 6.5 39.75 6.5 41.25 8.5 39.5 9.1 36.0 9.65 34.25 9.35 34.0 8.95 Q33.75 8.95 33.7 9.15 L33.2 8.9 32.0 8.2" fill="none" stroke="#003558" stroke-linecap="round" stroke-linejoin="round" stroke-width="1.0"/>
    <path d="M31.75 4.55 L35.0 6.75 Q31.85 7.1 31.8 8.15 L31.75 4.55 M-31.9 3.85 L-31.9 7.75 Q-31.9 7.1 -32.8 6.95 L-35.15 6.55 -31.9 3.85" fill="#003558" fill-rule="evenodd" stroke="none"/>
    <path d="M35.6 -7.1 L34.85 6.3 26.15 5.4 26.05 5.05 Q26.0 4.45 25.75 4.4 L24.9 5.1 24.75 5.3 Q12.8 4.5 -3.3 4.6 -10.5 4.6 -16.25 4.75 -16.35 3.7 -16.9 4.25 L-17.35 4.8 -29.3 5.35 -33.85 5.8 -35.05 6.05 -35.55 -7.85 -29.0 -8.6 -25.3 -8.85 -24.1 -7.65 -23.65 -8.65 -23.55 -9.0 -3.35 -9.65 3.95 -9.6 3.95 -9.3 Q3.95 -9.05 4.3 -8.85 L4.55 -9.2 4.65 -9.4 5.15 -9.5 5.3 -9.55 16.15 -9.05 16.3 -8.9 Q16.5 -8.65 16.7 -8.65 L16.95 -8.95 17.0 -9.05 23.85 -8.45 32.65 -7.5 32.7 -7.3 32.8 -6.9 33.05 -6.9 33.5 -7.15 33.7 -7.35 35.6 -7.1" fill="#00111d" fill-rule="evenodd" stroke="none"/>
    <path d="M35.6 -7.1 L33.7 -7.35 33.5 -7.15 33.05 -6.9 32.8 -6.9 32.7 -7.3 32.65 -7.5 23.85 -8.45 17.0 -9.05 16.95 -8.95 16.7 -8.65 Q16.5 -8.65 16.3 -8.9 L16.15 -9.05 5.3 -9.55 5.15 -9.5 4.65 -9.4 4.55 -9.2 4.3 -8.85 Q3.95 -9.05 3.95 -9.3 L3.95 -9.6 -3.35 -9.65 -23.55 -9.0 -23.65 -8.65 -24.1 -7.65 -25.3 -8.85 -29.0 -8.6 -35.55 -7.85 -35.05 6.05 -33.85 5.8 -29.3 5.35 -17.35 4.8 -16.9 4.25 Q-16.35 3.7 -16.25 4.75 -10.5 4.6 -3.3 4.6 12.8 4.5 24.75 5.3 L24.9 5.1 25.75 4.4 Q26.0 4.45 26.05 5.05 L26.15 5.4 34.85 6.3 35.6 -7.1 Z" fill="none" stroke="#003558" stroke-linecap="round" stroke-linejoin="round" stroke-width="1.0"/>
  </g>
  <defs>
    <linearGradient gradientTransform="matrix(0.0057, 0.0, 0.0, 0.0077, 36.65, 3.35)" gradientUnits="userSpaceOnUse" id="gradient0" spreadMethod="pad" x1="-819.2" x2="819.2">
      <stop offset="0.0" stop-color="#003f69"/>
      <stop offset="0.5058823529411764" stop-color="#069bfc"/>
    </linearGradient>
    <linearGradient gradientTransform="matrix(0.0434, 0.0, 0.0, 0.0097, 0.0, -1.7)" gradientUnits="userSpaceOnUse" id="gradient1" spreadMethod="pad" x1="-819.2" x2="819.2">
      <stop offset="0.0" stop-color="#003f69"/>
      <stop offset="0.5058823529411764" stop-color="#069bfc"/>
    </linearGradient>
    <linearGradient gradientTransform="matrix(-0.0057, 0.0, 0.0, 0.0077, -36.65, 3.0)" gradientUnits="userSpaceOnUse" id="gradient2" spreadMethod="pad" x1="-819.2" x2="819.2">
      <stop offset="0.0" stop-color="#003f69"/>
      <stop offset="0.5058823529411764" stop-color="#069bfc"/>
    </linearGradient>
  </defs>
</svg>
