<?xml version="1.0" encoding="UTF-8" standalone="no"?>
<svg xmlns:xlink="http://www.w3.org/1999/xlink" height="7.1px" width="68.2px" xmlns="http://www.w3.org/2000/svg">
  <g transform="matrix(1.0, 0.0, 0.0, 1.0, 34.25, 4.65)">
    <path d="M-4.8 0.0 L-2.6 0.25 -2.6 0.1 -2.6 -0.05 -2.9 -0.5 -3.4 -0.4 -3.6 -0.4 -3.7 -0.4 -3.75 -0.4 -3.9 -0.4 -4.0 -0.4 -4.85 -1.25 -4.85 -1.35 -4.65 -2.75 -4.6 -2.9 -4.55 -2.9 -4.5 -2.95 -4.4 -3.0 -4.35 -3.05 -4.05 -3.25 Q-3.85 -3.35 -3.75 -3.4 L-1.25 -3.55 Q-1.25 -2.9 -1.6 -2.3 L-1.9 -2.3 -2.35 -2.25 -3.1 -2.25 -3.15 -2.2 -3.3 -2.2 -3.4 -2.15 -3.45 -2.05 -3.35 -1.8 -3.05 -1.75 -2.6 -1.7 -2.15 -1.6 -1.85 -1.55 -1.8 -1.55 -1.6 -1.5 -1.5 -1.35 -1.3 -0.9 -1.2 -0.65 -1.1 -0.35 -1.05 -0.25 -1.05 -0.15 -1.05 -0.1 -1.1 0.0 -1.75 0.95 -1.9 1.15 -2.15 1.4 -2.9 1.4 -3.15 1.4 -3.5 1.35 -4.1 1.3 -4.45 1.25 -4.5 1.2 -4.55 1.15 -4.65 0.75 -4.8 0.0 M-11.35 1.3 L-11.9 -0.35 -12.05 -0.75 -12.1 -0.9 -12.1 -1.1 -12.2 -1.25 -12.35 -1.8 -12.5 -2.0 -12.5 1.25 -13.9 1.25 -13.9 -3.3 -13.8 -3.4 -13.65 -3.45 -13.45 -3.45 -13.35 -3.5 -13.1 -3.5 -12.8 -3.55 -11.95 -3.65 -11.9 -3.65 -11.8 -3.55 -11.7 -3.4 -11.6 -3.1 -11.1 -1.7 -10.95 -1.3 -10.8 -0.9 -10.6 -0.5 -10.6 -0.8 -10.6 -1.2 -10.55 -1.7 -10.55 -2.9 -10.5 -3.05 -10.5 -3.25 -10.45 -3.45 -8.9 -3.45 -9.45 1.0 -9.55 1.25 -9.8 1.3 -11.05 1.4 -11.1 1.4 -11.2 1.4 -11.35 1.3 M-17.9 -1.65 L-17.85 -0.6 -17.7 -0.4 -17.5 -0.25 -17.35 -0.15 -16.9 0.1 -16.75 0.15 -16.65 0.15 -16.5 0.0 -16.3 -0.3 -16.15 -0.5 -16.15 -1.65 -16.35 -1.8 -16.45 -1.9 -16.85 -2.25 -16.95 -2.25 -17.5 -2.0 -17.6 -1.9 -17.9 -1.65 M-19.4 -1.65 L-19.45 -1.65 -19.45 -1.7 -19.4 -1.75 -19.25 -2.0 -18.95 -2.35 -17.85 -3.55 -17.75 -3.55 -17.45 -3.5 -16.65 -3.4 -16.25 -3.35 -15.9 -3.3 -15.75 -3.2 -14.5 -1.65 -14.5 -1.6 -14.65 -0.9 -15.0 0.05 -15.35 0.55 -17.05 1.45 -18.65 0.9 -18.75 0.85 -18.85 0.65 -18.9 0.5 -19.05 -0.15 -19.4 -1.65 M-23.4 -1.65 L-23.35 -0.6 -23.2 -0.4 -23.0 -0.25 -22.85 -0.15 -22.4 0.1 -22.25 0.15 -22.15 0.15 -22.0 0.0 -21.8 -0.3 -21.65 -0.5 -21.65 -1.65 -21.85 -1.8 -21.95 -1.9 -22.35 -2.25 -22.45 -2.25 -23.0 -2.0 -23.1 -1.9 -23.4 -1.65 M-24.9 -1.65 L-24.95 -1.65 -24.95 -1.7 -24.9 -1.75 -24.75 -2.0 -24.45 -2.35 -23.35 -3.55 -23.25 -3.55 -22.95 -3.5 -22.15 -3.4 -21.75 -3.35 -21.4 -3.3 -21.25 -3.2 -20.0 -1.65 -20.0 -1.6 -20.15 -0.9 -20.5 0.05 -20.85 0.55 -22.55 1.45 -24.15 0.9 -24.25 0.85 -24.35 0.65 -24.4 0.5 -24.55 -0.15 -24.9 -1.65 M-26.55 -3.35 L-27.0 0.1 -27.1 0.25 -27.0 0.25 -26.5 0.05 -26.0 -0.1 -25.75 -0.1 -25.7 0.0 -25.6 0.4 -25.4 1.3 -25.4 1.4 -28.4 1.4 -28.4 -3.15 -27.9 -3.2 -27.1 -3.3 -27.0 -3.3 -26.85 -3.3 -26.55 -3.35 M-32.25 -1.85 L-32.25 -1.75 -32.15 -1.25 -31.95 0.1 -31.75 0.55 -31.5 0.6 -31.35 0.6 -31.1 0.4 -30.85 0.15 -30.75 -0.2 -30.75 -0.25 -31.6 -1.15 -30.85 -2.0 -30.85 -2.05 -31.1 -2.45 -31.3 -2.55 -31.4 -2.55 -31.75 -2.3 -31.95 -2.15 -32.1 -2.05 -32.2 -1.95 -32.25 -1.85 M-33.25 -3.3 L-33.0 -3.4 -32.85 -3.4 -32.55 -3.45 -31.05 -3.6 -30.65 -3.65 -30.5 -3.65 -30.45 -3.6 -30.15 -3.3 -30.0 -3.1 -29.35 -2.3 -29.3 -2.15 -29.35 -2.0 -29.45 -1.85 -29.55 -1.8 -29.6 -1.75 -29.75 -1.6 -30.05 -1.25 -30.1 -1.15 -30.1 -1.1 -29.85 -1.1 -29.75 -1.0 -29.35 -0.6 -29.25 -0.45 -29.05 -0.15 -29.1 -0.1 -29.2 0.15 -29.25 0.3 -29.35 0.4 -29.55 0.8 -29.8 1.25 -29.8 1.3 -29.85 1.3 -29.9 1.4 -33.25 1.4 -33.25 -3.3 M29.95 -1.8 L30.1 -2.05 29.45 -2.05 29.45 -2.1 29.45 -2.4 29.45 -2.65 29.5 -2.95 29.6 -3.45 32.5 -3.65 32.6 -3.65 32.7 -3.55 32.75 -3.35 32.85 -2.55 32.9 -2.5 32.9 -2.4 Q32.9 -2.25 32.5 -2.2 L31.75 -2.1 31.35 -1.8 31.35 -1.7 31.4 -1.65 31.45 -1.55 32.55 -1.55 32.55 -1.45 32.6 -1.3 32.65 -1.0 32.65 -0.65 31.55 -0.1 31.45 0.0 31.45 0.15 31.5 0.2 31.5 0.3 32.95 0.3 32.95 0.4 32.9 0.65 32.8 0.95 32.7 1.3 32.65 1.4 29.95 1.4 29.95 -1.8 M24.5 -1.45 L24.5 -1.7 24.5 -1.75 24.6 -1.95 25.0 -2.45 25.1 -2.6 25.5 -3.2 25.7 -3.4 28.8 -3.55 28.6 -2.85 28.25 -2.3 27.95 -2.2 26.7 -1.8 26.4 -1.7 26.25 -1.45 26.2 -1.15 26.15 -0.85 26.1 -0.65 26.1 -0.5 26.1 -0.4 26.75 0.15 26.75 0.1 26.75 0.0 26.75 -0.15 26.8 -0.3 27.15 -1.15 27.35 -1.4 28.6 -1.4 28.6 1.3 27.6 1.3 27.4 1.15 27.2 1.0 26.75 1.2 26.25 1.4 26.0 1.4 25.9 1.35 25.1 1.05 24.75 0.55 24.65 0.0 24.6 -0.35 24.55 -1.0 24.5 -1.15 24.5 -1.2 24.5 -1.45 M21.0 -2.5 L21.0 -2.4 21.0 -2.2 21.0 -2.0 21.05 -1.65 21.05 -1.3 21.1 -0.8 21.2 -0.65 21.25 -0.65 21.35 -0.65 Q22.0 -0.65 22.15 -0.9 L22.35 -1.3 22.45 -1.75 22.45 -1.8 22.1 -2.15 21.5 -2.4 21.0 -2.5 M15.45 1.25 L15.5 1.25 15.55 0.95 15.75 0.0 16.05 -1.25 16.1 -1.35 16.15 -1.75 15.05 -1.55 15.2 -3.3 17.8 -3.45 18.65 -3.45 18.8 -3.3 18.55 -2.0 18.5 -1.85 17.65 -1.85 17.5 -1.75 17.5 1.4 15.55 1.4 15.5 1.3 15.45 1.25 M22.3 0.35 L22.1 0.25 21.1 0.45 21.1 1.3 19.35 1.3 20.0 -3.15 20.1 -3.4 20.3 -3.55 20.5 -3.55 21.0 -3.55 22.2 -3.5 22.55 -3.45 22.75 -3.45 23.25 -3.4 23.35 -3.4 23.85 1.0 23.85 1.1 23.8 1.3 22.3 1.45 22.3 0.35 M11.05 -1.65 L11.1 -0.6 11.25 -0.4 Q11.3 -0.3 11.45 -0.25 L11.6 -0.15 12.05 0.1 12.2 0.15 12.3 0.15 12.45 0.0 12.65 -0.3 12.8 -0.5 12.8 -1.65 12.6 -1.8 12.5 -1.9 12.1 -2.25 12.0 -2.25 11.45 -2.0 11.35 -1.9 11.05 -1.65 M9.55 -1.65 L9.5 -1.65 9.5 -1.7 9.55 -1.75 9.7 -2.0 10.0 -2.35 11.1 -3.55 11.2 -3.55 11.5 -3.5 12.3 -3.4 12.7 -3.35 13.05 -3.3 13.2 -3.2 14.45 -1.65 14.45 -1.6 14.3 -0.9 13.95 0.05 13.6 0.55 11.9 1.45 10.3 0.9 10.2 0.85 10.1 0.65 10.05 0.5 9.9 -0.15 9.55 -1.65 M5.8 -1.85 L5.8 -1.75 5.9 -1.25 6.1 0.1 6.3 0.55 6.55 0.6 6.7 0.6 6.95 0.4 7.2 0.15 7.3 -0.2 7.3 -0.25 6.45 -1.15 7.2 -2.0 7.2 -2.05 6.95 -2.45 6.75 -2.55 6.65 -2.55 6.3 -2.3 6.1 -2.15 5.95 -2.05 5.85 -1.95 5.8 -1.85 M1.2 -2.5 L1.2 -2.4 1.2 -2.2 1.2 -2.0 1.25 -1.65 1.25 -1.3 1.3 -0.8 1.4 -0.65 1.45 -0.65 1.55 -0.65 Q2.2 -0.65 2.35 -0.9 L2.55 -1.3 2.65 -1.75 2.65 -1.8 2.3 -2.15 1.7 -2.4 1.2 -2.5 M2.5 0.35 L2.3 0.25 1.3 0.45 1.3 1.3 -0.45 1.3 0.2 -3.15 0.3 -3.4 0.5 -3.55 0.7 -3.55 1.2 -3.55 2.4 -3.5 2.75 -3.45 2.95 -3.45 3.45 -3.4 3.55 -3.4 4.05 1.0 4.05 1.1 4.0 1.3 2.5 1.45 2.5 0.35 M4.8 -3.3 L5.05 -3.4 5.2 -3.4 5.5 -3.45 7.0 -3.6 7.4 -3.65 7.55 -3.65 7.6 -3.6 7.9 -3.3 8.05 -3.1 8.7 -2.3 8.75 -2.15 8.7 -2.0 8.6 -1.85 8.5 -1.8 8.45 -1.75 8.3 -1.6 8.0 -1.25 7.95 -1.15 7.95 -1.1 8.2 -1.1 8.3 -1.0 8.7 -0.6 8.8 -0.45 9.0 -0.15 8.95 -0.1 8.85 0.15 8.8 0.3 8.7 0.4 8.5 0.8 8.25 1.25 8.25 1.3 8.2 1.3 8.15 1.4 4.8 1.4 4.8 -3.3" fill="#ffffff" fill-rule="evenodd" stroke="none"/>
    <path d="M4.8 -3.3 L4.8 1.4 8.15 1.4 8.2 1.3 8.25 1.3 8.25 1.25 8.5 0.8 8.7 0.4 8.8 0.3 8.85 0.15 8.95 -0.1 9.0 -0.15 8.8 -0.45 8.7 -0.6 8.3 -1.0 8.2 -1.1 7.95 -1.1 7.95 -1.15 8.0 -1.25 8.3 -1.6 8.45 -1.75 8.5 -1.8 8.6 -1.85 8.7 -2.0 8.75 -2.15 8.7 -2.3 8.05 -3.1 7.9 -3.3 7.6 -3.6 7.55 -3.65 7.4 -3.65 7.0 -3.6 5.5 -3.45 5.2 -3.4 5.05 -3.4 4.8 -3.3 M2.5 0.35 L2.5 1.45 4.0 1.3 4.05 1.1 4.05 1.0 3.55 -3.4 3.45 -3.4 2.95 -3.45 2.75 -3.45 2.4 -3.5 1.2 -3.55 0.7 -3.55 0.5 -3.55 0.3 -3.4 0.2 -3.15 -0.45 1.3 1.3 1.3 1.3 0.45 2.3 0.25 2.5 0.35 M1.2 -2.5 L1.7 -2.4 2.3 -2.15 2.65 -1.8 2.65 -1.75 2.55 -1.3 2.35 -0.9 Q2.2 -0.65 1.55 -0.65 L1.45 -0.65 1.4 -0.65 1.3 -0.8 1.25 -1.3 1.25 -1.65 1.2 -2.0 1.2 -2.2 1.2 -2.4 1.2 -2.5 M5.8 -1.85 L5.85 -1.95 5.95 -2.05 6.1 -2.15 6.3 -2.3 6.65 -2.55 6.75 -2.55 6.95 -2.45 7.2 -2.05 7.2 -2.0 6.45 -1.15 7.3 -0.25 7.3 -0.2 7.2 0.15 6.95 0.4 6.7 0.6 6.55 0.6 6.3 0.55 6.1 0.1 5.9 -1.25 5.8 -1.75 5.8 -1.85 M9.55 -1.65 L9.9 -0.15 10.05 0.5 10.1 0.65 10.2 0.85 10.3 0.9 11.9 1.45 13.6 0.55 13.95 0.05 14.3 -0.9 14.45 -1.6 14.45 -1.65 13.2 -3.2 13.05 -3.3 12.7 -3.35 12.3 -3.4 11.5 -3.5 11.2 -3.55 11.1 -3.55 10.0 -2.35 9.7 -2.0 9.55 -1.75 9.5 -1.7 9.5 -1.65 9.55 -1.65 M11.05 -1.65 L11.35 -1.9 11.45 -2.0 12.0 -2.25 12.1 -2.25 12.5 -1.9 12.6 -1.8 12.8 -1.65 12.8 -0.5 12.65 -0.3 12.45 0.0 12.3 0.15 12.2 0.15 12.05 0.1 11.6 -0.15 11.45 -0.25 Q11.3 -0.3 11.25 -0.4 L11.1 -0.6 11.05 -1.65 M22.3 0.35 L22.3 1.45 23.8 1.3 23.85 1.1 23.85 1.0 23.35 -3.4 23.25 -3.4 22.75 -3.45 22.55 -3.45 22.2 -3.5 21.0 -3.55 20.5 -3.55 20.3 -3.55 20.1 -3.4 20.0 -3.15 19.35 1.3 21.1 1.3 21.1 0.45 22.1 0.25 22.3 0.35 M15.45 1.25 L15.5 1.3 15.55 1.4 17.5 1.4 17.5 -1.75 17.65 -1.85 18.5 -1.85 18.55 -2.0 18.8 -3.3 18.65 -3.45 17.8 -3.45 15.2 -3.3 15.05 -1.55 16.15 -1.75 16.1 -1.35 16.05 -1.25 15.75 0.0 15.55 0.95 15.5 1.25 15.45 1.25 M21.0 -2.5 L21.5 -2.4 22.1 -2.15 22.45 -1.8 22.45 -1.75 22.35 -1.3 22.15 -0.9 Q22.0 -0.65 21.35 -0.65 L21.25 -0.65 21.2 -0.65 21.1 -0.8 21.05 -1.3 21.05 -1.65 21.0 -2.0 21.0 -2.2 21.0 -2.4 21.0 -2.5 M24.5 -1.45 L24.5 -1.2 24.5 -1.15 24.55 -1.0 24.6 -0.35 24.65 0.0 24.75 0.55 25.1 1.05 25.9 1.35 26.0 1.4 26.25 1.4 26.75 1.2 27.2 1.0 27.4 1.15 27.6 1.3 28.6 1.3 28.6 -1.4 27.35 -1.4 27.15 -1.15 26.8 -0.3 26.75 -0.15 26.75 0.0 26.75 0.1 26.75 0.15 26.1 -0.4 26.1 -0.5 26.1 -0.65 26.15 -0.85 26.2 -1.15 26.25 -1.45 26.4 -1.7 26.7 -1.8 27.95 -2.2 28.25 -2.3 28.6 -2.85 28.8 -3.55 25.7 -3.4 25.5 -3.2 25.1 -2.6 25.0 -2.45 24.6 -1.95 24.5 -1.75 24.5 -1.7 24.5 -1.45 M29.95 -1.8 L29.95 1.4 32.65 1.4 32.7 1.3 32.8 0.95 32.9 0.65 32.95 0.4 32.95 0.3 31.5 0.3 31.5 0.2 31.45 0.15 31.45 0.0 31.55 -0.1 32.65 -0.65 32.65 -1.0 32.6 -1.3 32.55 -1.45 32.55 -1.55 31.45 -1.55 31.4 -1.65 31.35 -1.7 31.35 -1.8 31.75 -2.1 32.5 -2.2 Q32.9 -2.25 32.9 -2.4 L32.9 -2.5 32.85 -2.55 32.75 -3.35 32.7 -3.55 32.6 -3.65 32.5 -3.65 29.6 -3.45 29.5 -2.95 29.45 -2.65 29.45 -2.4 29.45 -2.1 29.45 -2.05 30.1 -2.05 29.95 -1.8 M-33.25 -3.3 L-33.25 1.4 -29.9 1.4 -29.85 1.3 -29.8 1.3 -29.8 1.25 -29.55 0.8 -29.35 0.4 -29.25 0.3 -29.2 0.15 -29.1 -0.1 -29.05 -0.15 -29.25 -0.45 -29.35 -0.6 -29.75 -1.0 -29.85 -1.1 -30.1 -1.1 -30.1 -1.15 -30.05 -1.25 -29.75 -1.6 -29.6 -1.75 -29.55 -1.8 -29.45 -1.85 -29.35 -2.0 -29.3 -2.15 -29.35 -2.3 -30.0 -3.1 -30.15 -3.3 -30.45 -3.6 -30.5 -3.65 -30.65 -3.65 -31.05 -3.6 -32.55 -3.45 -32.85 -3.4 -33.0 -3.4 -33.25 -3.3 M-32.25 -1.85 L-32.2 -1.95 -32.1 -2.05 -31.95 -2.15 -31.75 -2.3 -31.4 -2.55 -31.3 -2.55 -31.1 -2.45 -30.85 -2.05 -30.85 -2.0 -31.6 -1.15 -30.75 -0.25 -30.75 -0.2 -30.85 0.15 -31.1 0.4 -31.35 0.6 -31.5 0.6 -31.75 0.55 -31.95 0.1 -32.15 -1.25 -32.25 -1.75 -32.25 -1.85 M-26.55 -3.35 L-26.85 -3.3 -27.0 -3.3 -27.1 -3.3 -27.9 -3.2 -28.4 -3.15 -28.4 1.4 -25.4 1.4 -25.4 1.3 -25.6 0.4 -25.7 0.0 -25.75 -0.1 -26.0 -0.1 -26.5 0.05 -27.0 0.25 -27.1 0.25 -27.0 0.1 -26.55 -3.35 M-24.9 -1.65 L-24.55 -0.15 -24.4 0.5 -24.35 0.65 -24.25 0.85 -24.15 0.9 -22.55 1.45 -20.85 0.55 -20.5 0.05 -20.15 -0.9 -20.0 -1.6 -20.0 -1.65 -21.25 -3.2 -21.4 -3.3 -21.75 -3.35 -22.15 -3.4 -22.95 -3.5 -23.25 -3.55 -23.35 -3.55 -24.45 -2.35 -24.75 -2.0 -24.9 -1.75 -24.95 -1.7 -24.95 -1.65 -24.9 -1.65 M-23.4 -1.65 L-23.1 -1.9 -23.0 -2.0 -22.45 -2.25 -22.35 -2.25 -21.95 -1.9 -21.85 -1.8 -21.65 -1.65 -21.65 -0.5 -21.8 -0.3 -22.0 0.0 -22.15 0.15 -22.25 0.15 -22.4 0.1 -22.85 -0.15 -23.0 -0.25 -23.2 -0.4 -23.35 -0.6 -23.4 -1.65 M-19.4 -1.65 L-19.05 -0.15 -18.9 0.5 -18.85 0.65 -18.75 0.85 -18.65 0.9 -17.05 1.45 -15.35 0.55 -15.0 0.05 -14.65 -0.9 -14.5 -1.6 -14.5 -1.65 -15.75 -3.2 -15.9 -3.3 -16.25 -3.35 -16.65 -3.4 -17.45 -3.5 -17.75 -3.55 -17.85 -3.55 -18.95 -2.35 -19.25 -2.0 -19.4 -1.75 -19.45 -1.7 -19.45 -1.65 -19.4 -1.65 M-17.9 -1.65 L-17.6 -1.9 -17.5 -2.0 -16.95 -2.25 -16.85 -2.25 -16.45 -1.9 -16.35 -1.8 -16.15 -1.65 -16.15 -0.5 -16.3 -0.3 -16.5 0.0 -16.65 0.15 -16.75 0.15 -16.9 0.1 -17.35 -0.15 -17.5 -0.25 -17.7 -0.4 -17.85 -0.6 -17.9 -1.65 M-11.35 1.3 L-11.2 1.4 -11.1 1.4 -11.05 1.4 -9.8 1.3 -9.55 1.25 -9.45 1.0 -8.9 -3.45 -10.45 -3.45 -10.5 -3.25 -10.5 -3.05 -10.55 -2.9 -10.55 -1.7 -10.6 -1.2 -10.6 -0.8 -10.6 -0.5 -10.8 -0.9 -10.95 -1.3 -11.1 -1.7 -11.6 -3.1 -11.7 -3.4 -11.8 -3.55 -11.9 -3.65 -11.95 -3.65 -12.8 -3.55 -13.1 -3.5 -13.35 -3.5 -13.45 -3.45 -13.65 -3.45 -13.8 -3.4 -13.9 -3.3 -13.9 1.25 -12.5 1.25 -12.5 -2.0 -12.35 -1.8 -12.2 -1.25 -12.1 -1.1 -12.1 -0.9 -12.05 -0.75 -11.9 -0.35 -11.35 1.3 M-4.8 0.0 L-4.65 0.75 -4.55 1.15 -4.5 1.2 -4.45 1.25 -4.1 1.3 -3.5 1.35 -3.15 1.4 -2.9 1.4 -2.15 1.4 -1.9 1.15 -1.75 0.95 -1.1 0.0 -1.05 -0.1 -1.05 -0.15 -1.05 -0.25 -1.1 -0.35 -1.2 -0.65 -1.3 -0.9 -1.5 -1.35 -1.6 -1.5 -1.8 -1.55 -1.85 -1.55 -2.15 -1.6 -2.6 -1.7 -3.05 -1.75 -3.35 -1.8 -3.45 -2.05 -3.4 -2.15 -3.3 -2.2 -3.15 -2.2 -3.1 -2.25 -2.35 -2.25 -1.9 -2.3 -1.6 -2.3 Q-1.25 -2.9 -1.25 -3.55 L-3.75 -3.4 Q-3.85 -3.35 -4.05 -3.25 L-4.35 -3.05 -4.4 -3.0 -4.5 -2.95 -4.55 -2.9 -4.6 -2.9 -4.65 -2.75 -4.85 -1.35 -4.85 -1.25 -4.0 -0.4 -3.9 -0.4 -3.75 -0.4 -3.7 -0.4 -3.6 -0.4 -3.4 -0.4 -2.9 -0.5 -2.6 -0.05 -2.6 0.1 -2.6 0.25 -4.8 0.0" fill="none" stroke="#5c522b" stroke-linecap="round" stroke-linejoin="round" stroke-width="2.0"/>
    <path d="M-4.8 0.0 L-2.6 0.25 -2.6 0.1 -2.6 -0.05 -2.9 -0.5 -3.4 -0.4 -3.6 -0.4 -3.7 -0.4 -3.75 -0.4 -3.9 -0.4 -4.0 -0.4 -4.85 -1.25 -4.85 -1.35 -4.65 -2.75 -4.6 -2.9 -4.55 -2.9 -4.5 -2.95 -4.4 -3.0 -4.35 -3.05 -4.05 -3.25 Q-3.85 -3.35 -3.75 -3.4 L-1.25 -3.55 Q-1.25 -2.9 -1.6 -2.3 L-1.9 -2.3 -2.35 -2.25 -3.1 -2.25 -3.15 -2.2 -3.3 -2.2 -3.4 -2.15 -3.45 -2.05 -3.35 -1.8 -3.05 -1.75 -2.6 -1.7 -2.15 -1.6 -1.85 -1.55 -1.8 -1.55 -1.6 -1.5 -1.5 -1.35 -1.3 -0.9 -1.2 -0.65 -1.1 -0.35 -1.05 -0.25 -1.05 -0.15 -1.05 -0.1 -1.1 0.0 -1.75 0.95 -1.9 1.15 -2.15 1.4 -2.9 1.4 -3.15 1.4 -3.5 1.35 -4.1 1.3 -4.45 1.25 -4.5 1.2 -4.55 1.15 -4.65 0.75 -4.8 0.0 M-11.35 1.3 L-11.9 -0.35 -12.05 -0.75 -12.1 -0.9 -12.1 -1.1 -12.2 -1.25 -12.35 -1.8 -12.5 -2.0 -12.5 1.25 -13.9 1.25 -13.9 -3.3 -13.8 -3.4 -13.65 -3.45 -13.45 -3.45 -13.35 -3.5 -13.1 -3.5 -12.8 -3.55 -11.95 -3.65 -11.9 -3.65 -11.8 -3.55 -11.7 -3.4 -11.6 -3.1 -11.1 -1.7 -10.95 -1.3 -10.8 -0.9 -10.6 -0.5 -10.6 -0.8 -10.6 -1.2 -10.55 -1.7 -10.55 -2.9 -10.5 -3.05 -10.5 -3.25 -10.45 -3.45 -8.9 -3.45 -9.45 1.0 -9.55 1.25 -9.8 1.3 -11.05 1.4 -11.1 1.4 -11.2 1.4 -11.35 1.3 M-17.9 -1.65 L-17.85 -0.6 -17.7 -0.4 -17.5 -0.25 -17.35 -0.15 -16.9 0.1 -16.75 0.15 -16.65 0.15 -16.5 0.0 -16.3 -0.3 -16.15 -0.5 -16.15 -1.65 -16.35 -1.8 -16.45 -1.9 -16.85 -2.25 -16.95 -2.25 -17.5 -2.0 -17.6 -1.9 -17.9 -1.65 M-19.4 -1.65 L-19.45 -1.65 -19.45 -1.7 -19.4 -1.75 -19.25 -2.0 -18.95 -2.35 -17.85 -3.55 -17.75 -3.55 -17.45 -3.5 -16.65 -3.4 -16.25 -3.35 -15.9 -3.3 -15.75 -3.2 -14.5 -1.65 -14.5 -1.6 -14.65 -0.9 -15.0 0.05 -15.35 0.55 -17.05 1.45 -18.65 0.9 -18.75 0.85 -18.85 0.65 -18.9 0.5 -19.05 -0.15 -19.4 -1.65 M-23.4 -1.65 L-23.35 -0.6 -23.2 -0.4 -23.0 -0.25 -22.85 -0.15 -22.4 0.1 -22.25 0.15 -22.15 0.15 -22.0 0.0 -21.8 -0.3 -21.65 -0.5 -21.65 -1.65 -21.85 -1.8 -21.95 -1.9 -22.35 -2.25 -22.45 -2.25 -23.0 -2.0 -23.1 -1.9 -23.4 -1.65 M-24.9 -1.65 L-24.95 -1.65 -24.95 -1.7 -24.9 -1.75 -24.75 -2.0 -24.45 -2.35 -23.35 -3.55 -23.25 -3.55 -22.95 -3.5 -22.15 -3.4 -21.75 -3.35 -21.4 -3.3 -21.25 -3.2 -20.0 -1.65 -20.0 -1.6 -20.15 -0.9 -20.5 0.05 -20.85 0.55 -22.55 1.45 -24.15 0.9 -24.25 0.85 -24.35 0.65 -24.4 0.5 -24.55 -0.15 -24.9 -1.65 M-26.55 -3.35 L-27.0 0.1 -27.1 0.25 -27.0 0.25 -26.5 0.05 -26.0 -0.1 -25.75 -0.1 -25.7 0.0 -25.6 0.4 -25.4 1.3 -25.4 1.4 -28.4 1.4 -28.4 -3.15 -27.9 -3.2 -27.1 -3.3 -27.0 -3.3 -26.85 -3.3 -26.55 -3.35 M-32.25 -1.85 L-32.25 -1.75 -32.15 -1.25 -31.95 0.1 -31.75 0.55 -31.5 0.6 -31.35 0.6 -31.1 0.4 -30.85 0.15 -30.75 -0.2 -30.75 -0.25 -31.6 -1.15 -30.85 -2.0 -30.85 -2.05 -31.1 -2.45 -31.3 -2.55 -31.4 -2.55 -31.75 -2.3 -31.95 -2.15 -32.1 -2.05 -32.2 -1.95 -32.25 -1.85 M-33.25 -3.3 L-33.0 -3.4 -32.85 -3.4 -32.55 -3.45 -31.05 -3.6 -30.65 -3.65 -30.5 -3.65 -30.45 -3.6 -30.15 -3.3 -30.0 -3.1 -29.35 -2.3 -29.3 -2.15 -29.35 -2.0 -29.45 -1.85 -29.55 -1.8 -29.6 -1.75 -29.75 -1.6 -30.05 -1.25 -30.1 -1.15 -30.1 -1.1 -29.85 -1.1 -29.75 -1.0 -29.35 -0.6 -29.25 -0.45 -29.05 -0.15 -29.1 -0.1 -29.2 0.15 -29.25 0.3 -29.35 0.4 -29.55 0.8 -29.8 1.25 -29.8 1.3 -29.85 1.3 -29.9 1.4 -33.25 1.4 -33.25 -3.3 M29.95 -1.8 L30.1 -2.05 29.45 -2.05 29.45 -2.1 29.45 -2.4 29.45 -2.65 29.5 -2.95 29.6 -3.45 32.5 -3.65 32.6 -3.65 32.7 -3.55 32.75 -3.35 32.85 -2.55 32.9 -2.5 32.9 -2.4 Q32.9 -2.25 32.5 -2.2 L31.75 -2.1 31.35 -1.8 31.35 -1.7 31.4 -1.65 31.45 -1.55 32.55 -1.55 32.55 -1.45 32.6 -1.3 32.65 -1.0 32.65 -0.65 31.55 -0.1 31.45 0.0 31.45 0.15 31.5 0.2 31.5 0.3 32.95 0.3 32.95 0.4 32.9 0.65 32.8 0.95 32.7 1.3 32.65 1.4 29.95 1.4 29.95 -1.8 M24.5 -1.45 L24.5 -1.7 24.5 -1.75 24.6 -1.95 25.0 -2.45 25.1 -2.6 25.5 -3.2 25.7 -3.4 28.8 -3.55 28.6 -2.85 28.25 -2.3 27.95 -2.2 26.7 -1.8 26.4 -1.7 26.25 -1.45 26.2 -1.15 26.15 -0.85 26.1 -0.65 26.1 -0.5 26.1 -0.4 26.75 0.15 26.75 0.1 26.75 0.0 26.75 -0.15 26.8 -0.3 27.15 -1.15 27.35 -1.4 28.6 -1.4 28.6 1.3 27.6 1.3 27.4 1.15 27.2 1.0 26.75 1.2 26.25 1.4 26.0 1.4 25.9 1.35 25.1 1.05 24.75 0.55 24.65 0.0 24.6 -0.35 24.55 -1.0 24.5 -1.15 24.5 -1.2 24.5 -1.45 M21.0 -2.5 L21.0 -2.4 21.0 -2.2 21.0 -2.0 21.05 -1.65 21.05 -1.3 21.1 -0.8 21.2 -0.65 21.25 -0.65 21.35 -0.65 Q22.0 -0.65 22.15 -0.9 L22.35 -1.3 22.45 -1.75 22.45 -1.8 22.1 -2.15 21.5 -2.4 21.0 -2.5 M15.45 1.25 L15.5 1.25 15.55 0.95 15.75 0.0 16.05 -1.25 16.1 -1.35 16.15 -1.75 15.05 -1.55 15.2 -3.3 17.8 -3.45 18.65 -3.45 18.8 -3.3 18.55 -2.0 18.5 -1.85 17.65 -1.85 17.5 -1.75 17.5 1.4 15.55 1.4 15.5 1.3 15.45 1.25 M22.3 0.35 L22.1 0.25 21.1 0.45 21.1 1.3 19.35 1.3 20.0 -3.15 20.1 -3.4 20.3 -3.55 20.5 -3.55 21.0 -3.55 22.2 -3.5 22.55 -3.45 22.75 -3.45 23.25 -3.4 23.35 -3.4 23.85 1.0 23.85 1.1 23.8 1.3 22.3 1.45 22.3 0.35 M11.05 -1.65 L11.1 -0.6 11.25 -0.4 Q11.3 -0.3 11.45 -0.25 L11.6 -0.15 12.05 0.1 12.2 0.15 12.3 0.15 12.45 0.0 12.65 -0.3 12.8 -0.5 12.8 -1.65 12.6 -1.8 12.5 -1.9 12.1 -2.25 12.0 -2.25 11.45 -2.0 11.35 -1.9 11.05 -1.65 M9.55 -1.65 L9.5 -1.65 9.5 -1.7 9.55 -1.75 9.7 -2.0 10.0 -2.35 11.1 -3.55 11.2 -3.55 11.5 -3.5 12.3 -3.4 12.7 -3.35 13.05 -3.3 13.2 -3.2 14.45 -1.65 14.45 -1.6 14.3 -0.9 13.95 0.05 13.6 0.55 11.9 1.45 10.3 0.9 10.2 0.85 10.1 0.65 10.05 0.5 9.9 -0.15 9.55 -1.65 M5.8 -1.85 L5.8 -1.75 5.9 -1.25 6.1 0.1 6.3 0.55 6.55 0.6 6.7 0.6 6.95 0.4 7.2 0.15 7.3 -0.2 7.3 -0.25 6.45 -1.15 7.2 -2.0 7.2 -2.05 6.95 -2.45 6.75 -2.55 6.65 -2.55 6.3 -2.3 6.1 -2.15 5.95 -2.05 5.85 -1.95 5.8 -1.85 M1.2 -2.5 L1.2 -2.4 1.2 -2.2 1.2 -2.0 1.25 -1.65 1.25 -1.3 1.3 -0.8 1.4 -0.65 1.45 -0.65 1.55 -0.65 Q2.2 -0.65 2.35 -0.9 L2.55 -1.3 2.65 -1.75 2.65 -1.8 2.3 -2.15 1.7 -2.4 1.2 -2.5 M2.5 0.35 L2.3 0.25 1.3 0.45 1.3 1.3 -0.45 1.3 0.2 -3.15 0.3 -3.4 0.5 -3.55 0.7 -3.55 1.2 -3.55 2.4 -3.5 2.75 -3.45 2.95 -3.45 3.45 -3.4 3.55 -3.4 4.05 1.0 4.05 1.1 4.0 1.3 2.5 1.45 2.5 0.35 M4.8 -3.3 L5.05 -3.4 5.2 -3.4 5.5 -3.45 7.0 -3.6 7.4 -3.65 7.55 -3.65 7.6 -3.6 7.9 -3.3 8.05 -3.1 8.7 -2.3 8.75 -2.15 8.7 -2.0 8.6 -1.85 8.5 -1.8 8.45 -1.75 8.3 -1.6 8.0 -1.25 7.95 -1.15 7.95 -1.1 8.2 -1.1 8.3 -1.0 8.7 -0.6 8.8 -0.45 9.0 -0.15 8.95 -0.1 8.85 0.15 8.8 0.3 8.7 0.4 8.5 0.8 8.25 1.25 8.25 1.3 8.2 1.3 8.15 1.4 4.8 1.4 4.8 -3.3" fill="#ffffff" fill-rule="evenodd" stroke="none"/>
  </g>
</svg>
