<?xml version="1.0" encoding="UTF-8" standalone="no"?>
<svg xmlns:xlink="http://www.w3.org/1999/xlink" height="56.8px" width="105.1px" xmlns="http://www.w3.org/2000/svg">
  <g transform="matrix(1.0, 0.0, 0.0, 1.0, 53.75, 63.6)">
    <path d="M42.95 -30.85 L45.35 -30.2 46.35 -24.3 43.35 -21.2 38.55 -21.7 36.25 -24.8 36.85 -29.3 39.2 -30.95 Q40.15 -28.5 40.9 -28.35 41.45 -28.25 42.45 -29.95 L42.95 -30.85 M-40.35 -29.55 L-38.15 -28.0 -37.55 -23.5 -39.85 -20.4 -44.65 -19.9 -47.65 -23.0 -46.65 -28.9 -44.1 -29.55 -43.55 -28.6 Q-42.4 -26.85 -41.85 -27.0 -41.1 -27.15 -40.35 -29.55" fill="#ffc412" fill-rule="evenodd" stroke="none"/>
    <path d="M-44.1 -29.55 L-45.85 -32.95 Q-48.75 -39.55 -48.75 -44.25 L-48.6 -48.85 Q-48.35 -51.0 -47.6 -52.4 -45.85 -55.5 -39.8 -56.75 -34.2 -57.95 -28.75 -56.0 L-24.25 -54.05 -20.2 -52.15 -20.15 -52.15 -20.05 -52.1 Q-17.55 -54.1 -14.25 -55.5 -8.45 -57.9 -0.75 -57.9 6.85 -57.9 12.75 -55.5 14.85 -54.6 16.6 -53.5 L17.05 -53.65 17.15 -53.65 17.15 -53.7 20.6 -55.4 24.95 -57.35 Q30.2 -59.3 35.9 -58.15 42.1 -56.9 44.15 -53.75 45.0 -52.35 45.5 -50.2 L46.1 -45.6 Q46.55 -40.9 44.3 -34.3 L42.95 -30.85 42.45 -29.95 Q41.45 -28.25 40.9 -28.35 40.15 -28.5 39.2 -30.95 L38.7 -32.25 Q38.1 -34.1 37.65 -35.9 L40.35 -36.35 41.55 -37.45 Q38.25 -36.15 36.5 -36.7 38.9 -37.6 40.45 -38.8 41.95 -39.95 42.35 -41.05 38.7 -38.35 31.95 -35.45 L27.1 -33.55 27.1 -33.1 28.85 -33.3 Q28.95 -31.85 27.9 -31.25 L27.15 -30.95 26.75 -25.9 Q29.65 -27.05 32.45 -25.2 35.75 -22.9 34.4 -18.8 33.35 -15.55 30.5 -13.15 28.65 -11.65 25.1 -11.8 L22.9 -12.1 22.75 -12.1 22.65 -11.9 -24.15 -11.9 -24.35 -12.35 -24.35 -12.3 -25.3 -12.1 -27.5 -11.8 Q-31.05 -11.65 -32.9 -13.15 -35.75 -15.55 -36.8 -18.8 -38.15 -22.9 -34.85 -25.2 -31.7 -27.3 -28.35 -25.55 L-28.2 -25.45 -28.6 -29.7 -29.35 -30.05 Q-30.25 -30.65 -30.3 -31.95 L-28.6 -31.7 -28.6 -32.2 -33.6 -34.1 Q-40.65 -36.95 -44.55 -39.65 -44.0 -38.6 -42.45 -37.45 -40.75 -36.2 -38.3 -35.3 -39.9 -34.75 -43.4 -36.05 -42.8 -35.35 -42.05 -35.0 -41.05 -34.5 -39.3 -34.55 L-40.0 -30.9 -40.35 -29.55 Q-41.1 -27.15 -41.85 -27.0 -42.4 -26.85 -43.55 -28.6 L-44.1 -29.55 M22.75 -12.1 Q24.6 -16.35 25.75 -21.0 L26.75 -25.9 25.75 -21.0 Q24.6 -16.35 22.75 -12.1 M27.1 -33.1 L25.95 -33.15 27.1 -33.55 25.95 -33.15 27.1 -33.1 M16.6 -53.5 L16.35 -53.4 16.25 -53.65 14.3 -53.65 14.05 -52.55 13.4 -51.35 14.65 -40.45 17.15 -38.6 20.85 -35.0 Q24.65 -31.35 25.2 -31.15 L27.15 -30.95 25.2 -31.15 Q24.65 -31.35 20.85 -35.0 L17.15 -38.6 14.65 -40.45 13.4 -51.35 14.05 -52.55 14.3 -53.65 16.25 -53.65 16.35 -53.4 16.6 -53.5 M-28.2 -25.45 L-27.35 -21.0 Q-26.2 -16.45 -24.35 -12.35 -26.2 -16.45 -27.35 -21.0 L-28.2 -25.45 M-28.6 -31.7 L-28.5 -31.7 -27.4 -31.75 -28.6 -32.2 -27.4 -31.75 -28.5 -31.7 -28.6 -31.7 M-20.05 -52.1 L-19.95 -52.05 -19.8 -52.0 -19.7 -52.15 -17.75 -52.2 -17.35 -51.15 Q-16.85 -49.1 -12.95 -49.0 L-9.65 -49.2 Q-2.65 -50.1 -19.1 -37.2 L-23.1 -33.45 Q-27.25 -29.7 -27.8 -29.65 L-28.6 -29.7 -27.8 -29.65 Q-27.25 -29.7 -23.1 -33.45 L-19.1 -37.2 Q-2.65 -50.1 -9.65 -49.2 L-12.95 -49.0 Q-16.85 -49.1 -17.35 -51.15 L-17.75 -52.2 -19.7 -52.15 -19.8 -52.0 -19.95 -52.05 -20.05 -52.1" fill="#8c2975" fill-rule="evenodd" stroke="none"/>
    <path d="M-44.1 -29.55 L-45.85 -32.95 Q-48.75 -39.55 -48.75 -44.25 L-48.6 -48.85 Q-48.35 -51.0 -47.6 -52.4 -45.85 -55.5 -39.8 -56.75 -34.2 -57.95 -28.75 -56.0 L-24.25 -54.05 -20.2 -52.15 -20.15 -52.15 -20.05 -52.1 Q-17.55 -54.1 -14.25 -55.5 -8.45 -57.9 -0.75 -57.9 6.85 -57.9 12.75 -55.5 14.85 -54.6 16.6 -53.5 L17.05 -53.65 17.15 -53.65 17.15 -53.7 20.6 -55.4 24.95 -57.35 Q30.2 -59.3 35.9 -58.15 42.1 -56.9 44.15 -53.75 45.0 -52.35 45.5 -50.2 L46.1 -45.6 Q46.55 -40.9 44.3 -34.3 L42.95 -30.85 45.35 -30.2 46.35 -24.3 43.35 -21.2 38.55 -21.7 36.25 -24.8 36.85 -29.3 39.2 -30.95 38.7 -32.25 Q38.1 -34.1 37.65 -35.9 L40.35 -36.35 41.55 -37.45 Q38.25 -36.15 36.5 -36.7 38.9 -37.6 40.45 -38.8 41.95 -39.95 42.35 -41.05 38.7 -38.35 31.95 -35.45 L27.1 -33.55 27.1 -33.1 28.85 -33.3 Q28.95 -31.85 27.9 -31.25 L27.15 -30.95 26.75 -25.9 Q29.65 -27.05 32.45 -25.2 35.75 -22.9 34.4 -18.8 33.35 -15.55 30.5 -13.15 28.65 -11.65 25.1 -11.8 L22.9 -12.1 22.75 -12.1 22.65 -11.9 -24.15 -11.9 -24.35 -12.35 -24.35 -12.3 -25.3 -12.1 -27.5 -11.8 Q-31.05 -11.65 -32.9 -13.15 -35.75 -15.55 -36.8 -18.8 -38.15 -22.9 -34.85 -25.2 -31.7 -27.3 -28.35 -25.55 L-28.2 -25.45 -28.6 -29.7 -29.35 -30.05 Q-30.25 -30.65 -30.3 -31.95 L-28.6 -31.7 -28.6 -32.2 -33.6 -34.1 Q-40.65 -36.95 -44.55 -39.65 -44.0 -38.6 -42.45 -37.45 -40.75 -36.2 -38.3 -35.3 -39.9 -34.75 -43.4 -36.05 -42.8 -35.35 -42.05 -35.0 -41.05 -34.5 -39.3 -34.55 L-40.0 -30.9 -40.35 -29.55 -38.15 -28.0 -37.55 -23.5 -39.85 -20.4 -44.65 -19.9 -47.65 -23.0 -46.65 -28.9 -44.1 -29.55 -43.55 -28.6 Q-42.4 -26.85 -41.85 -27.0 -41.1 -27.15 -40.35 -29.55 M27.15 -30.95 L25.2 -31.15 Q24.65 -31.35 20.85 -35.0 L17.15 -38.6 14.65 -40.45 13.4 -51.35 14.05 -52.55 14.3 -53.65 16.25 -53.65 16.35 -53.4 16.6 -53.5 M27.1 -33.55 L25.95 -33.15 27.1 -33.1 M26.75 -25.9 L25.75 -21.0 Q24.6 -16.35 22.75 -12.1 M42.95 -30.85 L42.45 -29.95 Q41.45 -28.25 40.9 -28.35 40.15 -28.5 39.2 -30.95 M-28.6 -29.7 L-27.8 -29.65 Q-27.25 -29.7 -23.1 -33.45 L-19.1 -37.2 Q-2.65 -50.1 -9.65 -49.2 L-12.95 -49.0 Q-16.85 -49.1 -17.35 -51.15 L-17.75 -52.2 -19.7 -52.15 -19.8 -52.0 -19.95 -52.05 -20.05 -52.1 M-28.6 -32.2 L-27.4 -31.75 -28.5 -31.7 -28.6 -31.7 M-24.35 -12.35 Q-26.2 -16.45 -27.35 -21.0 L-28.2 -25.45" fill="none" stroke="#ffffff" stroke-linecap="round" stroke-linejoin="round" stroke-width="10.0"/>
  </g>
</svg>
