<?xml version="1.0" encoding="UTF-8" standalone="no"?>
<svg xmlns:xlink="http://www.w3.org/1999/xlink" height="33.5px" width="43.5px" xmlns="http://www.w3.org/2000/svg">
  <g transform="matrix(1.0, 0.0, 0.0, 1.0, 21.75, 16.75)">
    <path d="M-19.75 4.5 L-19.5 -1.75 -16.5 -2.0 -12.75 -6.5 -7.5 -4.0 -1.0 -14.75 5.0 -3.75 8.25 -6.75 13.0 -5.0 19.0 -10.5 19.75 2.75 1.75 14.75 -19.75 4.5" fill="#b46301" fill-rule="evenodd" stroke="none"/>
    <path d="M-19.75 4.5 L1.75 14.75 19.75 2.75 19.0 -10.5 13.0 -5.0 8.25 -6.75 5.0 -3.75 -1.0 -14.75 -7.5 -4.0 -12.75 -6.5 -16.5 -2.0 -19.5 -1.75 -19.75 4.5 Z" fill="none" stroke="#b46301" stroke-linecap="round" stroke-linejoin="round" stroke-width="4.0"/>
    <path d="M-19.75 4.5 L-19.5 -1.75 -16.5 -2.0 -12.75 -6.5 -7.5 -4.0 -1.0 -14.75 5.0 -3.75 8.25 -6.75 13.0 -5.0 19.0 -10.5 19.75 2.75 1.75 14.75 -19.75 4.5" fill="#d78e00" fill-rule="evenodd" stroke="none"/>
    <path d="M-19.75 4.5 L-19.5 -1.75 -16.5 -2.0 -12.75 -6.5 -7.5 -4.0 -1.0 -14.75 1.75 14.75 -19.75 4.5" fill="#b87c06" fill-rule="evenodd" stroke="none"/>
    <path d="M-11.75 -4.3 L-12.65 -5.15 -12.95 -6.25 -12.75 -6.5 -7.5 -4.0 -2.9 -11.6 -2.55 -3.35 Q-2.55 -2.7 -2.95 -2.1 -3.35 -1.55 -4.0 -1.35 L-5.35 -1.45 -11.75 -4.3 M-17.75 -1.75 L-17.95 -1.85 -16.5 -2.0 -14.35 -4.55 0.3 2.5 12.0 -5.35 12.15 -5.3 13.0 -5.0 17.5 -9.1 19.05 -10.15 19.3 -5.5 1.6 6.45 0.6 6.8 -0.4 6.6 -17.75 -1.75" fill="#b46301" fill-rule="evenodd" stroke="none"/>
    <path d="M-11.35 -5.2 L-11.8 -5.65 -11.95 -6.1 -7.5 -4.0 -6.7 -5.35 -5.6 -4.85 -5.7 -7.05 -3.8 -10.1 -3.55 -3.35 -3.75 -2.7 -4.3 -2.3 -4.95 -2.35 -11.35 -5.2 M0.4 3.65 L19.1 -8.95 19.25 -6.6 1.05 5.65 0.55 5.8 0.05 5.7 -16.35 -2.2 -15.0 -3.75 0.4 3.65" fill="#ffc412" fill-rule="evenodd" stroke="none"/>
    <path d="M-19.75 4.5 L-19.55 -0.05 1.4 9.9 19.5 -2.15 19.75 2.75 1.75 14.75 -19.75 4.5" fill="#ffc412" fill-rule="evenodd" stroke="none"/>
    <path d="M-19.75 4.5 L-19.55 -0.05 1.3 9.85 1.75 14.75 -19.75 4.5" fill="#d7a200" fill-rule="evenodd" stroke="none"/>
    <path d="M1.45 11.15 L-14.95 3.4 -16.0 5.5 -16.3 5.6 -16.4 5.3 -15.9 3.75 -15.6 3.1 -16.5 2.65 -17.6 5.5 -18.45 5.1 -18.6 5.45 -18.45 5.0 -17.7 3.0 -17.4 2.2 -19.6 1.15 -19.55 -0.05 1.4 9.9 19.5 -2.15 19.55 -0.9 14.85 2.25 13.95 5.0 13.3 6.35 12.65 7.5 12.55 7.55 Q12.7 6.2 13.35 4.6 L14.0 3.1 14.1 2.75 13.9 2.85 13.55 3.1 11.55 7.5 11.1 8.5 10.1 9.2 Q10.6 8.0 11.25 6.8 L12.45 4.0 12.55 3.75 1.45 11.15 M0.8 -4.35 L1.7 -3.8 2.45 -3.1 2.15 -2.7 1.35 -2.45 1.1 -2.5 0.25 -3.15 0.05 -3.05 -0.15 -2.9 Q-2.25 -3.95 -2.5 -4.55 L-3.15 -5.6 -3.6 -6.45 Q-3.6 -7.2 -2.85 -6.7 L-1.7 -5.8 -0.45 -4.7 Q-0.2 -4.35 0.8 -4.35 M1.45 -4.95 L1.25 -4.8 0.3 -5.25 -0.6 -5.55 -1.8 -6.85 Q-1.8 -7.4 -1.2 -7.0 L-0.25 -6.15 0.75 -5.8 Q1.45 -5.55 1.45 -4.95 M4.85 9.5 L5.25 9.5 5.55 9.8 5.35 10.2 4.85 10.65 4.55 10.1 4.55 9.75 Q4.55 9.6 4.85 9.5 M6.3 8.95 L6.4 9.25 5.1 12.2 5.0 12.15 Q5.05 11.45 5.55 10.35 L6.3 8.95 M7.0 9.9 L7.25 10.15 6.6 10.9 6.35 10.65 Q6.35 10.2 7.0 9.9" fill="#b46301" fill-rule="evenodd" stroke="none"/>
  </g>
</svg>
