<?xml version="1.0" encoding="UTF-8" standalone="no"?>
<svg xmlns:xlink="http://www.w3.org/1999/xlink" height="59.0px" width="497.95px" xmlns="http://www.w3.org/2000/svg">
  <g transform="matrix(1.0, 0.0, 0.0, 1.0, 249.1, 26.2)">
    <path d="M-240.0 -14.45 L-228.5 2.05 -218.25 -5.45 -207.25 5.8 -179.95 -19.45 -142.2 -1.45 -118.45 -17.2 -102.45 -1.45 -74.7 -13.95 -66.45 -2.7 -48.2 -1.2 -30.95 10.8 -20.65 -6.7 -10.4 -24.2 12.6 -11.2 19.35 -18.45 28.35 -8.95 39.85 -15.2 46.35 5.05 75.35 16.55 78.1 8.2 80.85 -0.2 119.35 23.3 142.1 -15.95 176.1 13.3 194.1 -13.2 217.1 -0.45 223.6 -16.2 246.85 -2.2 224.85 -10.7 216.35 6.3 193.85 -9.45 175.85 22.55 142.35 -11.7 118.6 30.8 82.1 3.8 77.6 24.05 37.3 6.3 38.3 -10.95 Q38.25 -11.0 26.3 -2.45 L19.05 -14.2 13.55 -5.2 -9.95 -19.45 -29.2 21.05 -48.65 1.55 -70.9 0.55 -75.65 -10.7 -105.45 6.3 -118.7 -13.7 -143.2 7.3 -179.2 -15.95 -207.75 15.3 -218.0 -1.95 -229.25 8.05 -240.75 -11.95 -247.1 -12.0 -240.0 -14.45" fill="#ffffff" fill-rule="evenodd" stroke="none"/>
    <path d="M-240.0 -14.45 L-228.5 2.05 -218.25 -5.45 -207.25 5.8 -179.95 -19.45 -142.2 -1.45 -118.45 -17.2 -102.45 -1.45 -74.7 -13.95 -66.45 -2.7 -48.2 -1.2 -30.95 10.8 -20.65 -6.7 -10.4 -24.2 12.6 -11.2 19.35 -18.45 28.35 -8.95 39.85 -15.2 46.35 5.05 75.35 16.55 78.1 8.2 80.85 -0.2 119.35 23.3 142.1 -15.95 176.1 13.3 194.1 -13.2 217.1 -0.45 223.6 -16.2 246.85 -2.2 224.85 -10.7 216.35 6.3 193.85 -9.45 175.85 22.55 142.35 -11.7 118.6 30.8 82.1 3.8 77.6 24.05 37.3 6.3 38.3 -10.95 Q38.25 -11.0 26.3 -2.45 L19.05 -14.2 13.55 -5.2 -9.95 -19.45 -29.2 21.05 -48.65 1.55 -70.9 0.55 -75.65 -10.7 -105.45 6.3 -118.7 -13.7 -143.2 7.3 -179.2 -15.95 -207.75 15.3 -218.0 -1.95 -229.25 8.05 -240.75 -11.95 -247.1 -12.0 -240.0 -14.45 Z" fill="none" stroke="#41b3ff" stroke-linecap="round" stroke-linejoin="round" stroke-width="4.0"/>
    <path d="M-240.0 -14.45 L-228.5 2.05 -218.25 -5.45 -207.25 5.8 -179.95 -19.45 -142.2 -1.45 -118.45 -17.2 -102.45 -1.45 -74.7 -13.95 -66.45 -2.7 -48.2 -1.2 -30.95 10.8 -20.65 -6.7 -10.4 -24.2 12.6 -11.2 19.35 -18.45 28.35 -8.95 39.85 -15.2 46.35 5.05 75.35 16.55 78.1 8.2 80.85 -0.2 119.35 23.3 142.1 -15.95 176.1 13.3 194.1 -13.2 217.1 -0.45 223.6 -16.2 246.85 -2.2 224.85 -10.7 216.35 6.3 193.85 -9.45 175.85 22.55 142.35 -11.7 118.6 30.8 82.1 3.8 77.6 24.05 37.3 6.3 38.3 -10.95 Q38.25 -11.0 26.3 -2.45 L19.05 -14.2 13.55 -5.2 -9.95 -19.45 -29.2 21.05 -48.65 1.55 -70.9 0.55 -75.65 -10.7 -105.45 6.3 -118.7 -13.7 -143.2 7.3 -179.2 -15.95 -207.75 15.3 -218.0 -1.95 -229.25 8.05 -240.75 -11.95 -247.1 -12.0 -240.0 -14.45" fill="#ffffff" fill-rule="evenodd" stroke="none"/>
  </g>
</svg>
