<?xml version="1.0" encoding="UTF-8" standalone="no"?>
<svg xmlns:xlink="http://www.w3.org/1999/xlink" height="59.05px" width="55.1px" xmlns="http://www.w3.org/2000/svg">
  <g transform="matrix(1.0, 0.0, 0.0, 1.0, 55.1, 29.55)">
    <path d="M-38.55 -27.95 L-22.75 -27.95 -2.1 -29.55 Q-2.9 -27.3 -4.7 -24.4 -8.45 -18.25 -8.45 -17.05 -8.45 -16.6 -5.35 -13.3 L0.0 -7.5 -1.55 -6.1 Q-2.8 -5.25 -3.5 -5.25 -7.2 -5.25 -10.9 -6.4 L-14.2 -7.55 Q-15.65 -7.55 -17.5 -5.4 -19.2 -3.45 -19.2 -2.6 -19.2 -1.4 -16.45 1.8 -13.7 5.0 -13.7 7.2 L-14.1 10.05 -14.7 12.75 Q-17.45 12.45 -18.6 13.15 L-20.15 13.9 Q-20.8 13.9 -22.15 12.35 L-23.6 10.7 -26.35 10.7 Q-34.3 11.75 -35.2 14.4 -35.5 15.15 -35.25 16.75 -35.05 18.4 -35.25 19.2 L-35.5 24.0 Q-35.45 27.0 -35.9 28.65 -37.75 27.45 -42.9 25.25 -48.35 22.95 -49.8 22.95 -50.45 22.95 -53.0 26.4 L-55.1 29.5 -55.1 -4.9 -52.9 -16.45 -50.3 -23.35 -38.55 -27.95" fill="#ffffff" fill-rule="evenodd" stroke="none"/>
  </g>
</svg>
