<?xml version="1.0" encoding="UTF-8" standalone="no"?>
<svg xmlns:xlink="http://www.w3.org/1999/xlink" height="164.65px" width="157.85px" xmlns="http://www.w3.org/2000/svg">
  <g transform="matrix(1.0, 0.0, 0.0, 1.0, 79.25, 82.75)">
    <path d="M-69.0 -15.3 Q-70.6 -17.7 -71.15 -20.05 L-72.35 -24.85 -72.55 -28.75 Q-72.55 -31.65 -71.95 -34.05 -71.35 -36.75 -69.75 -39.75 L-68.45 -42.65 -66.8 -45.4 -64.05 -48.15 Q-61.45 -49.8 -56.3 -50.5 L-56.55 -53.55 Q-56.55 -56.15 -55.8 -57.75 -54.8 -59.85 -51.9 -62.25 -49.85 -63.95 -46.85 -64.5 -43.9 -65.05 -42.55 -64.0 L-39.15 -61.9 -37.65 -60.85 -37.15 -61.15 -35.65 -61.55 -34.75 -63.05 -32.9 -66.25 Q-30.95 -69.25 -27.65 -72.5 -24.15 -75.95 -19.2 -78.65 -13.55 -81.75 -7.75 -82.75 L1.25 -82.75 Q11.3 -82.6 20.15 -77.5 24.75 -74.9 31.25 -69.0 L32.8 -67.05 Q33.9 -65.45 34.5 -64.9 L36.35 -62.85 37.9 -60.75 40.5 -56.85 Q42.25 -54.05 42.25 -52.55 L42.25 -51.45 Q46.65 -52.15 50.75 -51.5 55.0 -50.8 61.25 -48.15 67.35 -44.45 70.35 -38.3 74.2 -30.55 74.8 -27.5 75.1 -26.05 75.1 -18.4 75.1 -13.35 74.25 -9.8 L73.4 -5.75 72.25 -3.75 Q71.25 -2.1 71.25 -1.55 73.95 1.75 74.9 3.6 75.7 5.15 76.6 8.65 L77.75 14.0 78.6 19.0 Q78.6 22.4 78.1 26.5 L77.35 31.2 77.35 32.05 Q77.35 35.7 74.5 39.55 L67.15 47.6 Q63.25 51.65 55.0 55.5 L51.45 56.85 41.75 57.35 37.45 58.0 34.0 58.6 28.45 57.95 28.2 57.85 Q27.75 65.25 21.95 70.95 13.3 79.45 -5.5 81.75 L-12.5 81.65 Q-18.75 81.35 -24.15 79.75 -28.75 78.4 -35.4 75.15 -39.15 73.4 -41.45 70.65 L-44.75 65.6 -50.15 56.25 Q-52.7 51.0 -52.75 46.85 -54.6 48.35 -58.1 48.35 -68.65 48.35 -75.9 36.15 -77.5 33.45 -78.4 30.05 -79.25 26.75 -79.25 23.75 L-79.0 15.25 Q-78.6 11.6 -76.5 5.0 -74.6 -0.9 -72.05 -4.25 L-67.8 -10.05 -65.8 -12.2 Q-67.5 -13.0 -69.0 -15.3" fill="#0066ff" fill-rule="evenodd" stroke="none"/>
    <path d="M32.75 -49.8 Q32.75 -43.6 30.9 -40.5 29.5 -38.1 26.8 -36.1 23.4 -33.5 20.0 -33.5 L11.75 -34.05 Q9.3 -34.55 3.25 -36.75 1.85 -37.25 0.3 -38.5 L-2.4 -40.75 -4.85 -42.45 Q-6.45 -43.65 -7.0 -44.5 -10.65 -49.8 -11.8 -52.15 -13.75 -56.0 -13.75 -59.65 -13.75 -62.35 -12.5 -65.65 -10.9 -69.8 -8.3 -71.05 L-6.6 -72.35 Q-5.3 -73.4 -4.05 -73.75 L1.75 -75.0 11.9 -74.25 Q15.6 -73.8 17.75 -72.5 23.0 -69.35 25.4 -66.75 L27.4 -64.0 29.15 -61.15 Q31.25 -58.35 32.1 -55.35 32.75 -52.95 32.75 -49.8 M35.75 -16.25 Q35.75 -11.55 32.4 -8.05 29.3 -4.9 26.0 -4.9 21.1 -4.9 17.65 -8.2 14.5 -11.2 14.5 -14.65 14.5 -17.8 16.15 -20.75 L17.85 -23.5 Q19.5 -25.35 22.75 -26.0 27.45 -26.95 30.3 -25.15 L33.75 -22.15 35.6 -18.8 35.75 -16.25 M-12.0 19.75 L-20.25 19.75 Q-26.05 17.75 -29.25 14.7 -31.3 12.8 -33.05 9.35 -34.9 5.75 -35.3 3.7 -35.5 2.55 -35.5 -1.25 -35.5 -6.55 -34.85 -9.45 -33.75 -14.5 -30.4 -17.25 -25.3 -21.4 -19.25 -22.8 -14.65 -23.9 -10.0 -22.15 -7.5 -21.2 -5.85 -19.8 -5.25 -20.6 -3.85 -21.1 L1.45 -21.45 Q9.15 -20.25 9.15 -13.9 9.15 -11.95 8.35 -10.3 7.4 -8.35 5.5 -7.75 L5.85 -6.6 6.1 -2.0 6.05 1.25 6.0 1.55 9.0 2.15 9.4 2.5 Q13.35 -1.65 18.75 -1.65 25.5 -1.65 28.35 2.3 30.1 4.7 30.1 7.65 30.1 12.1 28.2 15.1 25.25 19.8 18.25 19.85 L17.65 19.75 Q17.15 23.55 14.95 26.9 10.6 33.6 1.75 33.6 -2.35 33.6 -4.65 32.3 -6.0 31.6 -7.5 29.75 L-8.85 27.2 Q-9.75 25.05 -9.75 24.15 L-9.6 20.25 -9.5 19.6 -12.0 19.75 M71.6 -19.3 Q71.85 -14.15 70.75 -9.5 68.65 -0.3 62.1 -0.3 57.6 -0.3 54.65 -3.4 52.2 -6.0 51.15 -10.4 L49.55 -15.55 Q48.5 -18.8 48.5 -20.8 L48.5 -21.7 47.5 -21.5 Q45.65 -21.5 43.8 -23.1 42.25 -24.45 42.1 -25.3 L41.6 -29.5 Q41.6 -37.65 47.75 -39.7 50.15 -40.5 52.0 -39.65 53.2 -39.1 53.65 -38.0 L54.6 -38.8 Q55.6 -39.5 56.8 -39.5 57.1 -39.75 57.65 -39.85 L59.85 -39.75 Q60.75 -39.5 62.2 -38.65 L64.35 -37.25 Q66.25 -36.15 67.4 -34.35 L69.0 -31.25 Q71.15 -26.95 71.5 -24.8 L71.6 -19.3 M76.25 21.25 Q76.25 26.0 73.45 29.6 L71.9 31.3 72.1 32.0 Q72.4 33.2 72.25 34.35 72.25 37.15 70.65 40.25 69.05 43.25 66.35 45.9 64.9 47.3 62.4 48.35 58.85 49.8 57.25 50.75 55.6 51.7 51.55 52.6 L44.0 53.5 Q34.7 53.5 30.75 49.5 28.35 47.05 28.35 43.8 28.35 37.65 34.4 35.6 L35.7 35.1 41.9 34.6 43.55 33.8 45.15 32.75 Q46.85 31.75 48.25 28.6 L52.0 20.35 Q54.1 16.65 58.45 17.5 L59.7 17.8 60.5 15.9 61.5 14.15 62.6 12.5 Q63.2 11.9 63.55 10.6 64.05 9.6 65.85 9.6 72.25 9.55 74.75 14.25 76.25 17.0 76.25 21.25 M-23.4 39.3 L-23.6 41.0 -21.25 40.35 -11.5 40.4 Q-4.95 41.75 0.85 45.05 L10.6 51.75 Q11.9 52.7 13.3 54.8 L15.5 58.35 17.65 61.85 Q18.0 62.75 18.0 64.8 18.0 73.1 9.25 77.65 2.8 81.0 -3.6 81.0 L-11.15 79.85 -19.3 78.4 Q-22.0 78.1 -25.2 76.45 L-31.0 73.15 Q-33.4 71.8 -34.85 69.9 L-37.05 66.4 -39.0 63.0 Q-39.3 62.15 -39.3 59.85 -39.3 55.3 -38.4 52.5 -37.75 50.45 -36.95 49.05 -38.35 48.25 -39.35 47.0 -41.0 44.85 -41.0 43.05 -41.0 40.4 -40.1 37.7 -38.95 34.3 -36.9 32.9 -32.35 29.8 -27.65 32.8 -23.4 35.55 -23.4 39.3 M-19.0 -56.75 Q-19.0 -55.0 -19.55 -52.8 -20.2 -50.1 -21.3 -49.0 -23.05 -46.6 -24.65 -45.2 -27.7 -42.5 -31.6 -42.5 -37.2 -42.5 -39.75 -45.85 -41.3 -47.85 -41.3 -49.95 -41.3 -55.1 -40.9 -56.35 -39.95 -59.55 -35.4 -63.25 L-33.2 -65.05 -26.5 -65.5 -23.9 -64.8 Q-22.4 -64.3 -21.55 -63.4 -19.8 -61.55 -19.3 -59.95 -19.0 -58.9 -19.0 -56.75 M-49.5 -44.4 Q-49.5 -36.75 -54.75 -28.25 -60.1 -19.75 -65.0 -19.75 -69.2 -19.75 -70.55 -24.7 -71.2 -27.15 -71.0 -29.65 -71.0 -33.75 -69.8 -36.6 -68.7 -39.3 -65.0 -44.15 -63.65 -45.95 -61.05 -47.65 -57.65 -49.8 -54.15 -50.15 L-51.85 -50.25 Q-51.1 -49.95 -50.5 -48.15 L-49.6 -46.1 -49.5 -44.4 M-48.5 2.25 Q-48.5 11.35 -53.55 19.45 -58.8 27.75 -65.1 27.75 -68.15 27.75 -70.75 25.35 L-74.5 20.75 Q-75.6 19.1 -75.9 17.25 L-76.0 13.6 Q-76.0 11.75 -75.35 8.85 -74.65 5.65 -73.8 4.25 L-71.55 -0.4 Q-70.15 -3.25 -68.3 -4.9 L-65.85 -7.2 Q-64.2 -8.55 -61.9 -9.3 L-56.8 -9.1 Q-53.9 -8.3 -52.9 -7.0 -51.55 -5.65 -50.05 -2.55 -48.5 0.6 -48.5 2.25 M-53.0 40.9 Q-53.0 42.1 -53.65 43.0 -54.8 44.5 -57.5 44.5 -61.5 44.5 -63.2 43.0 -64.3 42.1 -64.3 40.9 -64.3 39.9 -63.7 39.4 -62.5 38.45 -58.8 38.65 L-55.2 38.8 Q-53.0 39.15 -53.0 40.9" fill="#0099ff" fill-rule="evenodd" stroke="none"/>
    <path d="M30.1 -54.85 Q30.1 -51.75 29.35 -48.5 29.1 -47.35 27.2 -45.35 24.65 -42.8 21.85 -42.8 12.4 -42.8 6.9 -45.65 4.65 -46.8 -0.5 -51.5 -1.6 -52.5 -2.45 -54.2 L-3.75 -57.15 -5.05 -60.0 Q-5.5 -61.1 -5.5 -62.6 L-5.2 -67.35 Q-4.8 -70.75 -3.9 -71.55 -2.4 -73.0 -0.95 -73.7 1.2 -74.8 4.25 -74.9 L11.45 -74.6 15.4 -73.0 Q22.45 -68.8 26.35 -63.9 30.1 -59.2 30.1 -54.85 M8.65 -14.0 Q8.65 -12.95 8.25 -12.2 7.55 -11.0 5.85 -11.0 3.1 -11.0 1.25 -14.4 0.35 -16.1 0.0 -17.7 0.0 -20.0 1.35 -20.7 2.55 -21.3 4.35 -20.45 8.65 -18.45 8.65 -14.0 M37.25 -16.3 Q37.25 -13.95 36.2 -11.75 34.4 -8.0 30.25 -8.0 25.8 -8.0 22.25 -12.35 19.5 -15.7 19.5 -17.25 19.5 -20.85 21.6 -23.7 23.9 -26.8 26.85 -26.15 32.95 -26.95 35.65 -22.25 37.25 -19.45 37.25 -16.3 M55.6 -38.4 Q56.2 -38.4 57.25 -38.95 58.25 -39.55 59.25 -39.55 67.75 -39.55 70.75 -29.65 72.1 -25.15 72.1 -18.8 72.1 -15.1 71.2 -11.8 69.4 -5.4 64.85 -5.4 60.35 -5.4 56.0 -11.4 52.7 -16.05 52.25 -18.75 L51.4 -22.3 Q51.25 -23.45 51.35 -25.75 51.3 -26.4 50.55 -26.5 L49.35 -26.75 Q48.05 -27.3 47.15 -28.3 46.7 -28.85 46.2 -29.85 45.5 -31.1 45.5 -31.75 L46.1 -34.45 46.75 -37.0 47.25 -38.25 Q47.9 -39.2 49.1 -39.55 52.0 -40.4 53.6 -39.5 L55.6 -38.4 M76.5 21.9 Q76.5 24.8 76.15 25.9 L73.75 30.5 Q73.45 31.0 73.3 32.45 L73.0 34.75 71.75 38.9 Q69.35 47.05 60.35 50.95 54.3 53.5 48.0 53.5 L42.35 53.1 Q40.6 52.6 37.0 50.1 35.3 48.9 34.95 47.8 L34.85 45.65 Q34.85 43.5 35.65 42.55 36.8 41.15 40.75 39.85 L47.5 39.75 Q49.35 38.65 49.4 37.2 L49.5 34.65 Q50.35 31.45 51.25 29.75 L52.45 27.25 Q53.25 25.7 54.0 24.75 56.75 21.2 57.8 20.75 L64.25 20.5 Q64.45 17.5 67.55 15.3 70.65 13.15 72.5 14.5 74.35 14.85 75.6 18.0 76.5 20.3 76.5 21.9 M30.35 9.0 Q30.35 12.9 27.4 16.0 24.7 18.9 21.85 18.9 18.5 18.9 17.0 17.0 16.1 15.85 16.1 14.6 16.1 11.3 16.65 9.9 17.45 7.65 20.6 4.75 L21.3 3.6 Q22.0 2.65 22.85 2.65 L25.4 3.2 28.0 4.0 Q29.8 5.15 30.2 6.6 L30.35 9.0 M1.5 4.05 Q1.5 7.1 -1.5 12.0 L-2.95 14.15 -1.75 14.0 3.3 14.4 Q6.4 14.9 7.25 15.75 L8.6 17.05 9.9 18.5 11.75 21.5 Q12.1 22.35 12.1 24.15 12.1 26.2 10.75 28.85 8.75 32.85 5.0 32.85 -2.9 32.85 -5.5 29.0 -7.3 26.35 -7.3 19.5 -7.3 18.55 -6.8 17.5 -9.1 18.75 -11.75 18.75 -22.45 18.75 -28.75 10.6 -33.25 4.8 -33.25 0.35 L-33.05 -5.25 Q-32.7 -7.6 -31.15 -11.65 -30.35 -13.75 -25.55 -17.5 -23.15 -19.3 -20.05 -20.1 -16.05 -21.05 -12.8 -19.65 -3.35 -15.5 -1.05 -7.75 L1.1 -0.65 Q1.5 0.75 1.5 4.05 M-25.75 46.25 L-22.25 46.25 Q-17.4 46.25 -11.05 48.45 -7.85 49.55 -5.65 50.65 -0.3 52.0 5.6 56.0 7.0 57.0 8.3 59.1 L10.1 62.4 Q11.35 64.6 11.6 65.7 L11.75 68.5 Q11.75 73.25 9.55 75.9 6.25 79.9 -3.0 81.9 L-12.75 81.9 Q-20.0 80.6 -25.85 78.25 -33.3 75.25 -35.0 71.75 L-36.25 69.95 -37.5 68.25 -39.0 64.65 -40.15 60.6 -40.25 57.6 -39.75 53.1 -39.3 50.0 Q-39.3 49.95 -40.35 49.2 -41.65 48.35 -42.5 46.65 -43.25 45.15 -43.25 43.35 -43.25 38.0 -39.85 34.85 -36.4 31.65 -32.05 33.35 -27.75 36.2 -26.5 39.8 -25.9 41.55 -25.75 46.25 M-19.5 -57.7 Q-19.5 -52.85 -22.05 -49.65 -24.6 -46.55 -28.25 -46.55 -33.2 -46.55 -35.3 -50.0 -36.55 -52.0 -36.55 -54.15 -36.55 -58.75 -33.9 -61.7 -31.55 -64.25 -28.0 -64.7 -24.6 -65.15 -22.15 -63.35 -19.5 -61.35 -19.5 -57.7 M-52.25 -43.3 Q-52.25 -36.85 -57.25 -30.4 -62.05 -24.25 -66.1 -24.25 -68.6 -24.25 -70.2 -25.75 -71.75 -27.25 -71.75 -29.45 -71.75 -32.7 -70.4 -36.45 -69.0 -40.25 -66.75 -43.0 L-63.15 -47.1 Q-60.9 -49.35 -59.5 -49.4 -52.25 -49.75 -52.25 -43.3 M-53.75 2.25 Q-53.75 4.7 -54.8 8.3 L-56.75 14.25 Q-58.1 18.2 -62.65 22.1 -66.9 25.75 -69.25 25.75 -72.9 25.75 -75.6 21.3 -77.75 17.7 -77.75 15.3 -77.75 10.7 -76.3 6.75 -74.95 3.1 -71.55 -2.05 -70.5 -3.75 -66.3 -6.4 -64.3 -7.7 -61.95 -7.85 -59.4 -7.95 -57.5 -6.5 -54.75 -3.85 -54.1 -1.95 -53.75 -0.9 -53.75 2.25 M-55.65 43.25 Q-55.65 44.3 -56.5 44.65 L-59.1 45.0 Q-63.25 45.0 -63.25 42.75 -63.25 42.0 -62.7 41.5 -61.95 40.75 -60.5 41.15 -55.65 41.25 -55.65 43.25" fill="#00ccff" fill-rule="evenodd" stroke="none"/>
  </g>
</svg>
