<?xml version="1.0" encoding="UTF-8" standalone="no"?>
<svg xmlns:xlink="http://www.w3.org/1999/xlink" height="24.15px" width="10.05px" xmlns="http://www.w3.org/2000/svg">
  <g transform="matrix(1.0, 0.0, 0.0, 1.0, -2.0, -2.5)">
    <path d="M3.15 25.5 L3.15 26.65 2.0 26.65 2.0 25.5 3.15 25.5 M2.95 26.4 L2.95 25.7 2.25 25.7 2.25 26.4 2.95 26.4 M5.35 26.4 L5.35 25.7 4.65 25.7 4.65 26.4 5.35 26.4 M5.55 25.5 L5.55 26.65 4.4 26.65 4.4 25.5 5.55 25.5 M7.25 25.5 L7.25 26.65 7.05 26.65 7.05 25.7 6.8 25.7 6.8 25.5 7.25 25.5 M9.65 26.65 L8.5 26.65 8.5 25.5 9.65 25.5 9.65 26.65 M9.45 26.4 L9.45 25.7 8.75 25.7 8.75 26.4 9.45 26.4 M12.05 25.5 L12.05 26.65 10.9 26.65 10.9 25.5 12.05 25.5 M11.15 25.7 L11.15 26.4 11.85 26.4 11.85 25.7 11.15 25.7 M11.15 23.6 L10.45 23.6 10.45 24.3 11.15 24.3 11.15 23.6 M11.35 24.55 L10.2 24.55 10.2 23.4 11.35 23.4 11.35 24.55 M10.45 19.4 L10.2 19.4 10.2 19.2 10.65 19.2 10.65 20.35 10.45 20.35 10.45 19.4 M11.15 21.5 L10.45 21.5 10.45 22.2 11.15 22.2 11.15 21.5 M10.2 21.3 L11.35 21.3 11.35 22.45 10.2 22.45 10.2 21.3 M11.15 17.3 L10.45 17.3 10.45 18.0 11.15 18.0 11.15 17.3 M10.2 17.1 L11.35 17.1 11.35 18.25 10.2 18.25 10.2 17.1 M11.15 15.2 L10.9 15.2 10.9 15.0 11.35 15.0 11.35 16.15 11.15 16.15 11.15 15.2 M8.5 23.6 L8.5 23.4 8.95 23.4 8.95 24.55 8.75 24.55 8.75 23.6 8.5 23.6 M7.05 23.6 L6.35 23.6 6.35 24.3 7.05 24.3 7.05 23.6 M6.1 24.55 L6.1 23.4 7.25 23.4 7.25 24.55 6.1 24.55 M6.35 20.35 L6.35 19.4 6.1 19.4 6.1 19.2 6.55 19.2 6.55 20.35 6.35 20.35 M6.1 21.3 L7.25 21.3 7.25 22.45 6.1 22.45 6.1 21.3 M7.05 21.5 L6.35 21.5 6.35 22.2 7.05 22.2 7.05 21.5 M7.8 20.35 L7.8 19.2 8.95 19.2 8.95 20.35 7.8 20.35 M8.5 21.5 L8.5 21.3 8.95 21.3 8.95 22.45 8.75 22.45 8.75 21.5 8.5 21.5 M8.05 19.4 L8.05 20.1 8.75 20.1 8.75 19.4 8.05 19.4 M2.95 21.5 L2.25 21.5 2.25 22.2 2.95 22.2 2.95 21.5 M3.15 21.3 L3.15 22.45 2.0 22.45 2.0 21.3 3.15 21.3 M3.95 23.6 L3.95 24.3 4.65 24.3 4.65 23.6 3.95 23.6 M3.7 24.55 L3.7 23.4 4.85 23.4 4.85 24.55 3.7 24.55 M2.25 23.6 L2.0 23.6 2.0 23.4 2.45 23.4 2.45 24.55 2.25 24.55 2.25 23.6 M2.25 20.35 L2.25 19.4 2.0 19.4 2.0 19.2 2.45 19.2 2.45 20.35 2.25 20.35 M3.7 20.35 L3.7 19.2 4.85 19.2 4.85 20.35 3.7 20.35 M4.4 21.5 L4.4 21.3 4.85 21.3 4.85 22.45 4.65 22.45 4.65 21.5 4.4 21.5 M3.95 19.4 L3.95 20.1 4.65 20.1 4.65 19.4 3.95 19.4 M3.15 16.15 L2.0 16.15 2.0 15.0 3.15 15.0 3.15 16.15 M2.25 15.2 L2.25 15.9 2.95 15.9 2.95 15.2 2.25 15.2 M4.65 18.25 L4.65 17.3 4.4 17.3 4.4 17.1 4.85 17.1 4.85 18.25 4.65 18.25 M2.0 18.25 L2.0 17.1 3.15 17.1 3.15 18.25 2.0 18.25 M2.25 17.3 L2.25 18.0 2.95 18.0 2.95 17.3 2.25 17.3 M4.65 15.2 L4.4 15.2 4.4 15.0 4.85 15.0 4.85 16.15 4.65 16.15 4.65 15.2 M8.75 17.3 L8.5 17.3 8.5 17.1 8.95 17.1 8.95 18.25 8.75 18.25 8.75 17.3 M7.05 17.3 L6.35 17.3 6.35 18.0 7.05 18.0 7.05 17.3 M6.1 18.25 L6.1 17.1 7.25 17.1 7.25 18.25 6.1 18.25 M7.05 15.2 L6.35 15.2 6.35 15.9 7.05 15.9 7.05 15.2 M6.1 15.0 L7.25 15.0 7.25 16.15 6.1 16.15 6.1 15.0 M8.5 15.0 L9.65 15.0 9.65 16.15 8.5 16.15 8.5 15.0 M9.45 15.2 L8.75 15.2 8.75 15.9 9.45 15.9 9.45 15.2" fill="#00ffff" fill-rule="evenodd" stroke="none"/>
    <path d="M11.85 13.9 L11.85 13.2 11.15 13.2 11.15 13.9 11.85 13.9 M10.9 14.15 L10.9 13.0 12.05 13.0 12.05 14.15 10.9 14.15 M2.95 13.9 L2.95 13.2 2.25 13.2 2.25 13.9 2.95 13.9 M3.15 13.0 L3.15 14.15 2.0 14.15 2.0 13.0 3.15 13.0 M5.35 13.9 L5.35 13.2 4.65 13.2 4.65 13.9 5.35 13.9 M5.55 13.0 L5.55 14.15 4.4 14.15 4.4 13.0 5.55 13.0 M6.8 13.0 L7.25 13.0 7.25 14.15 7.05 14.15 7.05 13.2 6.8 13.2 6.8 13.0 M9.45 13.9 L9.45 13.2 8.75 13.2 8.75 13.9 9.45 13.9 M9.65 14.15 L8.5 14.15 8.5 13.0 9.65 13.0 9.65 14.15 M8.95 10.9 L8.95 12.05 8.75 12.05 8.75 11.1 8.5 11.1 8.5 10.9 8.95 10.9 M7.05 11.8 L7.05 11.1 6.35 11.1 6.35 11.8 7.05 11.8 M6.1 12.05 L6.1 10.9 7.25 10.9 7.25 12.05 6.1 12.05 M7.05 9.0 L6.35 9.0 6.35 9.7 7.05 9.7 7.05 9.0 M6.1 8.8 L7.25 8.8 7.25 9.95 6.1 9.95 6.1 8.8 M6.55 6.7 L6.55 7.85 6.35 7.85 6.35 6.9 6.1 6.9 6.1 6.7 6.55 6.7 M8.95 6.7 L8.95 7.85 7.8 7.85 7.8 6.7 8.95 6.7 M8.5 9.0 L8.5 8.8 8.95 8.8 8.95 9.95 8.75 9.95 8.75 9.0 8.5 9.0 M8.05 7.6 L8.75 7.6 8.75 6.9 8.05 6.9 8.05 7.6 M2.95 9.7 L2.95 9.0 2.25 9.0 2.25 9.7 2.95 9.7 M2.0 8.8 L3.15 8.8 3.15 9.95 2.0 9.95 2.0 8.8 M4.65 11.8 L4.65 11.1 3.95 11.1 3.95 11.8 4.65 11.8 M3.7 12.05 L3.7 10.9 4.85 10.9 4.85 12.05 3.7 12.05 M2.45 12.05 L2.25 12.05 2.25 11.1 2.0 11.1 2.0 10.9 2.45 10.9 2.45 12.05 M2.45 6.7 L2.45 7.85 2.25 7.85 2.25 6.9 2.0 6.9 2.0 6.7 2.45 6.7 M4.85 6.7 L4.85 7.85 3.7 7.85 3.7 6.7 4.85 6.7 M4.4 9.0 L4.4 8.8 4.85 8.8 4.85 9.95 4.65 9.95 4.65 9.0 4.4 9.0 M3.95 7.6 L4.65 7.6 4.65 6.9 3.95 6.9 3.95 7.6 M2.95 3.4 L2.95 2.7 2.25 2.7 2.25 3.4 2.95 3.4 M2.0 2.5 L3.15 2.5 3.15 3.65 2.0 3.65 2.0 2.5 M4.4 4.6 L4.85 4.6 4.85 5.75 4.65 5.75 4.65 4.8 4.4 4.8 4.4 4.6 M2.25 4.8 L2.25 5.5 2.95 5.5 2.95 4.8 2.25 4.8 M2.0 5.75 L2.0 4.6 3.15 4.6 3.15 5.75 2.0 5.75 M4.4 2.5 L4.85 2.5 4.85 3.65 4.65 3.65 4.65 2.7 4.4 2.7 4.4 2.5 M8.95 5.75 L8.75 5.75 8.75 4.8 8.5 4.8 8.5 4.6 8.95 4.6 8.95 5.75 M6.1 5.75 L6.1 4.6 7.25 4.6 7.25 5.75 6.1 5.75 M7.05 4.8 L6.35 4.8 6.35 5.5 7.05 5.5 7.05 4.8 M6.1 2.5 L7.25 2.5 7.25 3.65 6.1 3.65 6.1 2.5 M7.05 2.7 L6.35 2.7 6.35 3.4 7.05 3.4 7.05 2.7 M9.45 2.7 L8.75 2.7 8.75 3.4 9.45 3.4 9.45 2.7 M8.5 2.5 L9.65 2.5 9.65 3.65 8.5 3.65 8.5 2.5 M11.35 10.9 L11.35 12.05 10.2 12.05 10.2 10.9 11.35 10.9 M10.45 11.8 L11.15 11.8 11.15 11.1 10.45 11.1 10.45 11.8 M11.15 9.0 L10.45 9.0 10.45 9.7 11.15 9.7 11.15 9.0 M10.2 8.8 L11.35 8.8 11.35 9.95 10.2 9.95 10.2 8.8 M10.45 6.9 L10.2 6.9 10.2 6.7 10.65 6.7 10.65 7.85 10.45 7.85 10.45 6.9 M11.15 5.5 L11.15 4.8 10.45 4.8 10.45 5.5 11.15 5.5 M10.2 4.6 L11.35 4.6 11.35 5.75 10.2 5.75 10.2 4.6 M10.9 2.7 L10.9 2.5 11.35 2.5 11.35 3.65 11.15 3.65 11.15 2.7 10.9 2.7" fill="#00ffff" fill-rule="evenodd" stroke="none"/>
  </g>
</svg>
