<?xml version="1.0" encoding="UTF-8" standalone="no"?>
<svg xmlns:xlink="http://www.w3.org/1999/xlink" height="32.55px" width="27.0px" xmlns="http://www.w3.org/2000/svg">
  <g transform="matrix(1.0, 0.0, 0.0, 1.0, -1.95, -32.45)">
    <path d="M17.75 34.2 Q18.0 34.95 18.75 35.2 18.65 38.75 18.85 39.35 L19.1 39.75 Q20.25 40.5 20.7 40.5 21.65 40.5 22.15 40.05 23.15 39.9 23.4 39.0 L23.5 37.35 23.45 36.5 23.7 36.6 23.65 36.95 24.45 38.85 Q25.5 40.6 27.1 40.65 28.3 41.5 28.45 42.25 28.95 44.95 28.95 49.75 28.95 51.95 28.5 53.35 27.5 56.35 24.75 56.55 24.4 58.2 23.65 59.8 21.2 65.0 15.6 65.0 11.55 65.0 8.0 62.2 5.65 60.4 4.1 57.95 3.3 56.7 2.6 54.0 1.95 51.45 1.95 49.85 1.95 47.0 2.2 45.65 2.65 43.2 4.15 41.4 4.85 40.55 6.75 36.45 L6.85 36.3 6.9 36.3 Q8.85 36.3 8.85 34.1 L8.7 33.15 8.8 33.1 Q9.7 34.3 9.7 35.8 L9.6 38.35 Q9.8 39.95 11.05 40.2 L12.35 39.0 14.0 37.15 Q14.65 35.95 15.35 36.7 L15.55 35.95 Q15.9 34.7 17.15 33.05 L17.6 32.45 17.7 32.45 17.65 32.9 17.75 34.2 M25.0 50.7 L25.0 50.8 25.0 50.7" fill="#ffeda4" fill-rule="evenodd" stroke="none"/>
  </g>
</svg>
