<?xml version="1.0" encoding="UTF-8" standalone="no"?>
<svg xmlns:xlink="http://www.w3.org/1999/xlink" height="124.35px" width="97.85px" xmlns="http://www.w3.org/2000/svg">
  <g transform="matrix(1.0, 0.0, 0.0, 1.0, 47.4, 58.1)">
    <path d="M-14.4 46.95 L-1.65 46.3 4.75 42.05 12.35 44.3 18.0 52.6 23.75 55.9 24.9 61.75 -22.8 61.75 -14.4 46.95" fill="#7cb421" fill-rule="evenodd" stroke="none"/>
    <path d="M-14.4 46.95 L-1.65 46.3 4.75 42.05 12.35 44.3 18.0 52.6 23.75 55.9 24.9 61.75 -22.8 61.75 -14.4 46.95 Z" fill="none" stroke="#416409" stroke-linecap="round" stroke-linejoin="round" stroke-width="9.0"/>
    <path d="M-19.8 -53.6 L-18.1 -51.0 Q-15.8 -47.9 -12.85 -45.5 -3.4 -37.75 9.55 -39.5 22.5 -41.25 33.0 -33.0 38.25 -28.85 40.95 -24.4 L17.85 23.7 Q15.1 19.25 9.85 15.1 -0.65 6.85 -13.55 8.6 -26.55 10.4 -36.0 2.6 -38.95 0.2 -41.2 -2.9 L-42.9 -5.5 -37.5 -16.85 -36.05 -15.85 Q-33.35 -13.65 -31.9 -11.35 L-19.95 -36.25 Q-21.35 -38.55 -24.1 -40.7 L-25.5 -41.7 -19.8 -53.6" fill="#cc0000" fill-rule="evenodd" stroke="none"/>
    <path d="M-19.8 -53.6 L-18.1 -51.0 Q-15.8 -47.9 -12.85 -45.5 -3.4 -37.75 9.55 -39.5 22.5 -41.25 33.0 -33.0 38.25 -28.85 40.95 -24.4 L17.85 23.7 Q15.1 19.25 9.85 15.1 -0.65 6.85 -13.55 8.6 -26.55 10.4 -36.0 2.6 -38.95 0.2 -41.2 -2.9 L-42.9 -5.5 -37.5 -16.85 -36.05 -15.85 Q-33.35 -13.65 -31.9 -11.35 L-19.95 -36.25 Q-21.35 -38.55 -24.1 -40.7 L-25.5 -41.7 -19.8 -53.6 Z" fill="none" stroke="#663e10" stroke-linecap="round" stroke-linejoin="round" stroke-width="9.0"/>
    <path d="M-1.9 53.9 L34.6 -26.95 Q35.3 -28.2 37.3 -28.4 39.45 -28.55 41.7 -27.45 44.05 -26.3 45.15 -24.6 46.3 -22.9 45.75 -21.6 L7.2 53.9 -1.9 53.9" fill="#b8813f" fill-rule="evenodd" stroke="none"/>
    <path d="M-1.9 53.9 L34.6 -26.95 Q35.3 -28.2 37.3 -28.4 39.45 -28.55 41.7 -27.45 44.05 -26.3 45.15 -24.6 46.3 -22.9 45.75 -21.6 L7.2 53.9" fill="none" stroke="#663e10" stroke-linecap="round" stroke-linejoin="round" stroke-width="9.0"/>
    <path d="M45.65 -21.6 L4.55 59.0 -2.7 55.5 34.6 -26.95 Q35.3 -28.2 37.3 -28.4 39.4 -28.55 41.7 -27.45 44.0 -26.35 45.15 -24.65 46.3 -22.9 45.65 -21.6" fill="#b8813f" fill-rule="evenodd" stroke="none"/>
    <path d="M-19.8 -53.6 L-18.1 -51.0 Q-15.8 -47.9 -12.85 -45.5 -3.4 -37.75 9.55 -39.5 22.5 -41.25 33.0 -33.0 38.25 -28.85 40.95 -24.4 L17.85 23.7 Q15.1 19.25 9.85 15.1 -0.65 6.85 -13.55 8.6 -26.55 10.4 -36.0 2.6 -38.95 0.2 -41.2 -2.9 L-42.9 -5.5 -37.5 -16.85 -36.05 -15.85 Q-33.35 -13.65 -31.9 -11.35 L-19.95 -36.25 Q-21.35 -38.55 -24.1 -40.7 L-25.5 -41.7 -19.8 -53.6" fill="#cc0000" fill-rule="evenodd" stroke="none"/>
    <path d="M3.25 59.05 Q2.85 59.9 1.4 59.95 0.0 60.05 -1.6 59.25 -3.2 58.5 -4.05 57.35 -4.85 56.2 -4.45 55.35 -4.0 54.45 -2.6 54.4 -1.2 54.35 0.4 55.1 2.0 55.9 2.85 57.0 3.7 58.15 3.25 59.05" fill="#9c6521" fill-rule="evenodd" stroke="none"/>
    <path d="M-19.8 -53.6 L-18.1 -51.0 Q-15.8 -47.9 -12.85 -45.5 -9.9 -43.05 -6.6 -41.6 L-29.75 6.5 Q-33.05 5.05 -36.0 2.6 -38.95 0.2 -41.2 -2.9 L-42.9 -5.5 -37.5 -16.85 -36.05 -15.85 Q-33.35 -13.65 -31.9 -11.35 L-19.95 -36.25 Q-21.35 -38.55 -24.1 -40.7 L-25.5 -41.7 -19.8 -53.6" fill="#ffd138" fill-rule="evenodd" stroke="none"/>
    <path d="M-14.4 46.95 L-1.65 46.3 4.75 42.05 12.35 44.3 17.9 52.6 23.75 55.9 24.9 61.75 -22.8 61.75 -14.4 46.95" fill="#7cb421" fill-rule="evenodd" stroke="none"/>
  </g>
</svg>
