<?xml version="1.0" encoding="UTF-8" standalone="no"?>
<svg xmlns:xlink="http://www.w3.org/1999/xlink" height="113.9px" width="388.25px" xmlns="http://www.w3.org/2000/svg">
  <g transform="matrix(1.0, 0.0, 0.0, 1.0, 194.1, 55.15)">
    <path d="M145.7 -4.4 L145.9 -4.05 149.55 -10.05 156.35 -20.6 159.0 -25.3 161.6 -30.0 162.8 -32.2 164.2 -34.7 Q165.45 -36.45 166.9 -37.2 168.85 -38.2 168.85 -35.55 L168.55 -33.45 168.7 -31.85 168.4 -29.85 167.6 -21.6 166.6 -11.95 166.5 -11.25 167.05 -12.2 172.45 -21.25 Q176.95 -27.25 178.6 -30.95 181.35 -37.4 185.2 -40.4 L185.2 -40.8 185.65 -40.75 186.15 -41.1 186.2 -41.15 186.8 -41.9 186.95 -41.25 187.0 -41.25 188.85 -38.75 190.15 -36.45 189.65 -35.35 189.0 -34.4 189.25 -34.1 Q189.25 -32.35 184.1 -23.2 L178.8 -14.05 Q177.75 -12.15 175.1 -9.0 L170.95 -3.95 167.95 0.8 165.6 3.8 165.0 4.7 163.3 5.85 161.85 6.4 161.1 6.2 Q160.9 6.05 160.85 5.5 160.7 4.95 160.7 3.85 160.7 -0.1 161.5 -5.95 L162.15 -11.9 163.1 -19.1 156.25 -8.6 143.0 9.55 142.25 9.35 Q141.95 9.15 141.95 8.45 141.95 7.95 142.3 7.05 142.35 5.8 143.65 1.25 145.05 -3.6 145.7 -4.4 M119.5 4.35 L119.65 4.95 Q128.65 1.7 140.05 -14.55 144.35 -20.7 147.4 -26.5 150.25 -32.05 150.25 -33.8 L150.15 -35.05 149.95 -36.0 149.95 -36.2 Q139.0 -31.0 128.6 -15.85 124.35 -9.7 121.85 -4.05 119.35 1.6 119.5 4.35 M156.8 -30.95 Q156.8 -26.7 153.0 -19.9 150.45 -15.4 145.75 -9.2 L142.15 -4.1 Q139.5 -0.65 136.95 1.6 124.5 10.4 120.1 10.4 114.5 10.4 114.5 6.95 114.5 -1.25 121.1 -13.25 127.25 -24.4 135.7 -32.95 144.45 -41.85 150.2 -42.15 156.8 -42.55 156.8 -30.95 M134.7 -39.6 Q134.35 -37.05 133.6 -36.45 L132.0 -34.45 129.15 -31.8 Q128.4 -32.25 128.4 -33.65 128.4 -35.15 129.1 -36.6 L129.1 -36.75 128.9 -39.7 128.9 -40.6 128.65 -41.0 Q121.0 -39.5 113.35 -30.9 108.5 -25.4 104.9 -18.8 100.7 -11.2 99.05 -7.7 96.1 -1.45 94.9 3.45 L94.9 3.7 99.35 1.25 Q100.95 0.45 102.1 0.0 L104.35 -1.35 Q106.75 -2.65 107.55 -2.8 L108.25 -2.7 108.5 -1.9 Q108.5 0.35 103.9 4.85 98.55 10.1 93.3 10.1 88.3 10.1 87.1 7.75 86.8 7.25 86.8 4.85 86.8 1.7 90.7 -7.95 L95.35 -18.55 Q96.35 -20.85 97.9 -23.35 L98.05 -23.75 Q99.8 -28.45 105.35 -36.0 107.4 -38.7 110.75 -41.95 114.2 -45.2 118.1 -48.1 124.7 -53.0 130.35 -50.0 132.4 -48.9 133.8 -47.0 135.0 -45.3 135.0 -44.05 L134.9 -43.0 134.7 -39.6 M-160.4 -3.35 L-164.95 -2.95 -165.25 -2.75 Q-166.65 -2.15 -172.05 -1.55 L-172.45 -1.5 -178.9 -0.3 -178.2 0.35 Q-173.95 4.7 -171.15 9.9 -170.0 12.7 -166.8 17.05 L-164.4 20.3 -162.85 9.0 Q-162.1 3.45 -161.3 0.8 L-159.9 -3.35 -160.4 -3.35 M-153.35 -4.2 L-153.5 -4.15 -153.55 -3.7 -153.35 -4.2 M-144.65 -9.85 L-148.1 -6.65 -150.25 0.5 -153.55 10.8 -155.6 17.4 Q-153.4 17.2 -148.95 17.4 L-137.05 18.0 -136.55 18.4 -135.75 19.15 -135.7 19.1 Q-135.45 19.15 -135.45 19.85 -135.45 20.55 -137.75 21.9 L-137.8 22.25 -137.7 23.1 Q-137.7 25.85 -139.85 39.0 -141.65 50.3 -143.2 53.25 L-143.0 53.45 -143.25 54.55 -145.35 54.75 -146.95 54.6 -147.8 54.75 -148.65 54.55 -148.95 54.55 Q-150.15 54.55 -150.5 52.9 -152.6 50.45 -155.6 44.95 L-165.3 27.15 -175.7 11.3 Q-181.95 1.75 -182.75 -0.05 -185.35 0.4 -187.4 1.0 L-188.4 0.9 Q-188.75 0.8 -188.75 0.0 -188.75 -0.55 -188.1 -1.0 L-188.5 -1.25 -189.2 -2.0 -189.6 -2.35 Q-190.1 -2.9 -190.1 -3.7 -190.1 -5.75 -183.85 -6.95 L-169.15 -9.2 -167.85 -9.35 -167.8 -9.4 -164.35 -9.95 -159.15 -10.8 -150.45 -11.65 -150.3 -11.65 -150.05 -11.65 -149.75 -11.65 -149.65 -11.65 -149.4 -11.65 -147.5 -11.3 Q-146.0 -10.9 -144.65 -9.85 M-107.4 45.9 Q-109.3 45.9 -114.45 36.4 -117.65 30.5 -123.65 17.75 L-131.9 3.05 Q-138.5 -8.6 -138.5 -10.45 L-138.45 -10.8 -139.35 -11.4 Q-139.15 -13.35 -136.7 -12.35 L-133.2 -10.95 Q-131.7 -11.3 -127.1 -5.0 -120.85 3.5 -116.6 12.65 L-108.7 26.75 -104.65 34.0 -104.3 33.55 -103.3 32.2 -102.0 31.0 -101.25 29.65 Q-97.55 24.95 -95.55 23.55 L-95.45 23.8 -94.05 22.25 -95.3 20.65 -100.0 14.1 Q-101.75 13.1 -104.4 9.15 -107.7 4.3 -108.55 1.0 L-111.0 -6.85 Q-111.45 -8.3 -111.45 -12.1 -111.45 -21.0 -105.55 -21.1 L-102.3 -20.6 Q-100.15 -21.35 -98.45 -21.1 -97.3 -20.75 -94.7 -19.35 -92.35 -18.1 -91.1 -17.1 L-89.85 -16.3 Q-88.3 -15.2 -86.8 -12.8 -82.4 -8.15 -79.95 -4.7 -76.15 0.7 -72.95 6.05 -67.5 15.2 -67.5 18.5 -67.5 20.95 -69.0 23.75 -69.9 25.35 -71.05 26.6 -73.95 31.2 -77.5 31.2 -82.2 31.2 -83.9 30.2 -86.05 28.4 -89.25 26.85 L-90.2 26.25 Q-91.5 29.15 -95.45 35.5 -101.55 45.4 -104.3 45.6 L-105.6 46.8 -106.5 46.5 Q-106.95 46.95 -106.95 45.9 L-107.4 45.9 M-152.3 40.5 L-150.3 44.3 -149.9 42.55 Q-148.65 38.5 -147.5 33.65 L-146.7 29.65 -145.85 25.75 Q-154.45 29.4 -158.1 30.0 -155.65 34.2 -152.3 40.5 M-74.8 -7.95 L-71.0 -0.7 -61.85 10.25 -56.6 15.25 -55.25 15.8 -55.9 14.85 -57.2 12.1 -57.45 10.8 -57.25 10.4 -53.95 13.4 Q-52.2 15.15 -50.65 16.05 L-50.05 15.5 Q-49.6 14.7 -49.55 13.45 L-49.5 11.45 Q-49.5 7.25 -51.95 3.05 L-58.35 -6.05 Q-61.25 -10.0 -64.95 -13.9 -72.4 -21.7 -76.75 -21.7 -77.75 -21.7 -78.4 -19.35 L-78.85 -16.8 -78.15 -14.55 -78.05 -14.35 -74.8 -7.95 M-80.05 -7.65 Q-84.45 -16.7 -84.45 -21.45 L-84.3 -23.95 -83.3 -23.95 Q-83.1 -25.9 -81.1 -26.35 -78.8 -29.05 -72.0 -26.35 -66.85 -24.35 -64.1 -22.0 -60.4 -19.7 -57.35 -17.2 -54.05 -14.65 -52.55 -12.75 L-51.25 -11.05 -57.7 -25.25 -57.65 -26.0 -57.6 -25.95 -57.45 -25.95 -56.7 -27.1 -55.7 -28.1 -54.35 -29.1 -54.2 -29.05 Q-53.85 -29.4 -53.0 -28.55 -49.1 -27.25 -43.05 -23.0 -40.25 -21.05 -33.55 -15.7 -29.45 -13.3 -26.95 -10.2 L-29.75 -16.2 -35.15 -28.1 -36.0 -29.7 -36.05 -29.7 -36.3 -30.1 -36.4 -30.25 -37.15 -31.15 Q-36.5 -32.15 -35.35 -32.5 L-34.3 -32.65 Q-33.0 -33.55 -31.2 -33.35 -28.45 -33.15 -26.65 -31.15 -26.35 -30.85 -26.65 -30.55 L-25.65 -28.6 -24.1 -23.3 Q-22.95 -21.35 -22.0 -18.35 L-20.5 -13.45 -16.9 -3.65 -13.45 5.9 -13.2 6.05 -15.3 9.1 -17.15 11.35 Q-18.2 10.6 -19.4 10.4 L-19.45 10.2 -19.7 10.2 -25.55 3.4 -34.7 -6.85 -42.8 -14.65 -46.05 -18.05 -41.65 -9.6 Q-36.7 -1.75 -30.25 13.05 L-30.7 13.6 -30.7 13.7 -30.4 14.0 -27.75 17.75 Q-27.75 18.8 -29.1 20.1 -30.65 21.55 -32.5 21.55 -33.7 21.55 -37.45 15.35 L-38.05 14.35 Q-40.05 11.65 -43.05 6.0 -42.9 6.9 -42.9 7.7 L-42.9 7.95 Q-41.85 10.0 -41.4 12.05 -40.95 14.1 -40.95 19.1 -40.95 20.55 -42.1 21.8 -43.9 23.7 -48.05 23.7 -53.25 23.7 -57.55 20.65 L-59.4 18.95 -62.3 16.5 -64.65 13.95 -66.4 12.25 Q-70.05 8.65 -72.65 5.0 L-74.9 1.25 Q-77.4 -2.25 -80.05 -7.65 M-102.15 -13.85 L-103.3 -12.95 Q-104.2 -12.2 -104.25 -11.4 L-104.25 -9.2 Q-104.25 -5.2 -99.45 4.75 L-98.95 5.8 -95.55 11.1 -90.4 17.15 -88.9 18.45 -88.7 18.65 -86.8 20.05 -86.45 20.3 -85.6 20.6 -82.65 21.8 -80.85 22.6 -79.3 23.25 -76.3 22.75 -74.8 22.9 Q-74.95 19.3 -77.7 13.95 L-82.5 5.05 -85.15 0.5 -87.8 -4.05 Q-88.55 -5.35 -91.45 -8.2 L-95.55 -12.35 Q-97.8 -12.85 -97.95 -13.65 L-102.15 -13.85 M-93.35 23.7 Q-93.2 23.55 -92.95 23.55 L-93.15 23.3 -93.35 23.7 M-86.65 24.45 L-86.15 24.8 -86.4 24.45 -86.65 24.45 M-71.75 20.75 L-71.95 19.65 -71.75 20.95 -71.75 20.75 M7.0 2.5 L6.55 -2.6 6.55 -4.25 6.55 -4.3 6.5 -4.45 Q6.35 -4.6 6.35 -5.3 L6.55 -5.6 Q6.5 -10.35 6.1 -12.7 4.1 -28.9 4.1 -32.6 3.85 -33.85 3.9 -35.2 3.9 -36.3 4.2 -37.05 L4.0 -37.2 Q3.85 -36.75 3.85 -37.85 3.85 -38.5 6.75 -39.65 10.05 -41.0 13.45 -41.0 L16.05 -41.25 19.7 -41.35 23.9 -39.35 26.7 -38.1 27.25 -37.95 27.75 -37.65 27.85 -37.55 Q28.65 -37.1 30.6 -36.15 L35.3 -34.05 41.85 -30.65 41.65 -30.6 40.85 -30.45 34.4 -24.45 26.15 -17.25 25.1 -16.05 27.3 -15.4 Q31.45 -14.0 33.25 -12.85 34.2 -13.2 35.35 -12.1 L35.65 -10.55 36.4 -10.1 36.05 -9.1 35.85 -8.8 36.1 -7.25 36.7 -2.2 Q36.7 0.8 35.1 1.25 L34.85 1.05 33.65 1.4 29.35 5.0 Q25.85 7.85 23.45 10.4 22.25 11.7 20.45 12.65 L16.35 14.75 13.0 16.95 Q10.85 18.3 9.7 18.3 L8.5 18.25 8.15 18.1 8.05 17.85 Q7.9 17.8 7.9 17.1 L8.05 16.7 7.9 16.55 7.75 16.55 7.45 16.4 Q7.25 16.15 7.25 15.05 L7.3 14.5 7.25 12.95 7.3 10.85 7.0 11.1 Q6.8 10.8 6.8 9.45 6.8 7.4 7.1 4.3 L7.0 2.5 M13.1 -29.5 L13.0 -22.8 12.7 -14.2 14.05 -15.35 20.5 -20.6 27.75 -25.7 Q30.55 -27.5 32.4 -28.05 L33.65 -29.05 Q30.2 -29.5 26.3 -31.1 24.45 -31.85 21.5 -33.4 L20.3 -33.8 Q19.0 -34.2 17.45 -35.0 16.1 -35.7 15.0 -35.85 L12.55 -36.2 Q13.05 -33.75 13.1 -29.5 M12.6 -6.25 Q13.2 -4.1 13.2 -3.25 L11.75 1.75 Q10.2 6.2 10.15 6.85 L9.55 7.2 9.4 8.2 12.35 6.0 19.25 1.6 25.0 -3.9 Q27.9 -6.65 30.4 -7.4 L31.0 -9.55 26.7 -11.05 Q22.55 -12.65 20.55 -13.75 L19.9 -13.4 16.8 -11.05 16.7 -11.0 Q16.05 -10.05 12.6 -7.15 L12.5 -7.1 12.5 -6.85 12.6 -6.25 M-22.85 -2.7 L-22.4 -1.65 -22.8 -2.85 -22.85 -2.7 M76.15 -47.5 L76.35 -46.45 Q76.25 -44.3 72.2 -42.7 69.35 -41.6 63.85 -40.55 L56.25 -38.7 53.95 -30.3 50.35 -17.25 Q53.15 -18.75 55.5 -19.8 62.1 -22.8 67.7 -24.0 L67.85 -23.75 69.5 -23.95 70.35 -23.9 70.95 -23.75 71.1 -23.8 71.2 -23.05 Q71.2 -21.65 67.35 -19.65 L60.65 -16.35 Q58.3 -15.1 51.65 -12.4 L48.8 -11.2 45.55 1.9 45.05 3.6 Q46.1 3.15 47.05 2.95 54.7 1.1 57.95 -1.25 60.3 -2.95 62.5 -2.6 L63.55 -2.25 Q64.45 -5.15 69.65 -14.25 L76.7 -26.4 79.6 -32.65 Q81.5 -36.7 82.85 -38.9 L86.6 -45.25 Q87.5 -46.8 90.9 -48.25 93.4 -49.35 94.95 -49.35 96.55 -49.6 98.25 -48.65 L98.2 -48.6 98.3 -48.5 98.6 -47.45 Q98.6 -45.4 97.65 -43.1 96.7 -40.85 96.7 -38.2 L94.75 -29.35 91.75 -17.6 88.85 -6.35 Q87.05 0.35 85.0 2.05 82.0 1.8 80.9 1.05 80.05 0.5 80.05 -0.45 L80.15 -1.45 80.5 -1.4 83.3 -9.65 85.25 -15.15 Q81.85 -13.35 76.15 -10.6 L73.9 -6.5 71.0 -0.35 Q69.15 3.4 66.5 5.85 L66.55 6.3 65.9 7.3 Q64.45 6.15 63.75 4.15 63.3 2.75 63.25 1.25 60.35 3.55 51.55 8.2 38.55 14.95 35.1 14.95 33.65 14.95 33.3 13.9 L33.25 12.65 Q33.25 11.95 34.2 10.95 L34.15 10.4 Q34.15 9.3 37.2 -1.5 L41.55 -17.05 43.7 -23.9 45.7 -30.5 47.05 -36.65 46.35 -36.65 Q44.3 -36.65 43.35 -37.4 42.7 -37.95 42.7 -38.75 42.7 -40.75 56.75 -44.05 69.65 -47.15 76.15 -47.5 M88.6 -25.8 L90.05 -32.05 91.3 -38.3 91.35 -38.45 88.8 -34.15 83.3 -24.95 80.6 -19.3 80.15 -18.3 80.3 -18.4 Q83.25 -20.0 86.05 -20.65 L87.1 -20.85 88.6 -25.8" fill="#6e28b9" fill-rule="evenodd" stroke="none"/>
    <path d="M145.7 -4.4 L145.9 -4.05 149.55 -10.05 156.35 -20.6 159.0 -25.3 161.6 -30.0 162.8 -32.2 164.2 -34.7 Q165.45 -36.45 166.9 -37.2 168.85 -38.2 168.85 -35.55 L168.55 -33.45 168.7 -31.85 168.4 -29.85 167.6 -21.6 166.6 -11.95 166.5 -11.25 167.05 -12.2 172.45 -21.25 Q176.95 -27.25 178.6 -30.95 181.35 -37.4 185.2 -40.4 L185.2 -40.8 185.65 -40.75 186.15 -41.1 186.2 -41.15 186.8 -41.9 186.95 -41.25 187.0 -41.25 188.85 -38.75 190.15 -36.45 189.65 -35.35 189.0 -34.4 189.25 -34.1 Q189.25 -32.35 184.1 -23.2 L178.8 -14.05 Q177.75 -12.15 175.1 -9.0 L170.95 -3.95 167.95 0.8 165.6 3.8 165.0 4.7 163.3 5.85 161.85 6.4 161.1 6.2 Q160.9 6.05 160.85 5.5 160.7 4.95 160.7 3.85 160.7 -0.1 161.5 -5.95 L162.15 -11.9 163.1 -19.1 156.25 -8.6 143.0 9.55 142.25 9.35 Q141.95 9.15 141.95 8.45 141.95 7.95 142.3 7.05 142.35 5.8 143.65 1.25 145.05 -3.6 145.7 -4.4 M119.5 4.35 L119.65 4.95 Q128.65 1.7 140.05 -14.55 144.35 -20.7 147.4 -26.5 150.25 -32.05 150.25 -33.8 L150.15 -35.05 149.95 -36.0 149.95 -36.2 Q139.0 -31.0 128.6 -15.85 124.35 -9.7 121.85 -4.05 119.35 1.6 119.5 4.35 M156.8 -30.95 Q156.8 -26.7 153.0 -19.9 150.45 -15.4 145.75 -9.2 L142.15 -4.1 Q139.5 -0.65 136.95 1.6 124.5 10.4 120.1 10.4 114.5 10.4 114.5 6.95 114.5 -1.25 121.1 -13.25 127.25 -24.4 135.7 -32.95 144.45 -41.85 150.2 -42.15 156.8 -42.55 156.8 -30.95 M134.7 -39.6 Q134.35 -37.05 133.6 -36.45 L132.0 -34.45 129.15 -31.8 Q128.4 -32.25 128.4 -33.65 128.4 -35.15 129.1 -36.6 L129.1 -36.75 128.9 -39.7 128.9 -40.6 128.65 -41.0 Q121.0 -39.5 113.35 -30.9 108.5 -25.4 104.9 -18.8 100.7 -11.2 99.05 -7.7 96.1 -1.45 94.9 3.45 L94.9 3.7 99.35 1.25 Q100.95 0.45 102.1 0.0 L104.35 -1.35 Q106.75 -2.65 107.55 -2.8 L108.25 -2.7 108.5 -1.9 Q108.5 0.35 103.9 4.85 98.55 10.1 93.3 10.1 88.3 10.1 87.1 7.75 86.8 7.25 86.8 4.85 86.8 1.7 90.7 -7.95 L95.35 -18.55 Q96.35 -20.85 97.9 -23.35 L98.05 -23.75 Q99.8 -28.45 105.35 -36.0 107.4 -38.7 110.75 -41.95 114.2 -45.2 118.1 -48.1 124.7 -53.0 130.35 -50.0 132.4 -48.9 133.8 -47.0 135.0 -45.3 135.0 -44.05 L134.9 -43.0 134.7 -39.6 M-160.4 -3.35 L-164.95 -2.95 -165.25 -2.75 Q-166.65 -2.15 -172.05 -1.55 L-172.45 -1.5 -178.9 -0.3 -178.2 0.35 Q-173.95 4.7 -171.15 9.9 -170.0 12.7 -166.8 17.05 L-164.4 20.3 -162.85 9.0 Q-162.1 3.45 -161.3 0.8 L-159.9 -3.35 -160.4 -3.35 M-153.35 -4.2 L-153.5 -4.15 -153.55 -3.7 -153.35 -4.2 M-144.65 -9.85 L-148.1 -6.65 -150.25 0.5 -153.55 10.8 -155.6 17.4 Q-153.4 17.2 -148.95 17.4 L-137.05 18.0 -136.55 18.4 -135.75 19.15 -135.7 19.1 Q-135.45 19.15 -135.45 19.85 -135.45 20.55 -137.75 21.9 L-137.8 22.25 -137.7 23.1 Q-137.7 25.85 -139.85 39.0 -141.65 50.3 -143.2 53.25 L-143.0 53.45 -143.25 54.55 -145.35 54.75 -146.95 54.6 -147.8 54.75 -148.65 54.55 -148.95 54.55 Q-150.15 54.55 -150.5 52.9 -152.6 50.45 -155.6 44.95 L-165.3 27.15 -175.7 11.3 Q-181.95 1.75 -182.75 -0.05 -185.35 0.4 -187.4 1.0 L-188.4 0.9 Q-188.75 0.8 -188.75 0.0 -188.75 -0.55 -188.1 -1.0 L-188.5 -1.25 -189.2 -2.0 -189.6 -2.35 Q-190.1 -2.9 -190.1 -3.7 -190.1 -5.75 -183.85 -6.95 L-169.15 -9.2 -167.85 -9.35 -167.8 -9.4 -164.35 -9.95 -159.15 -10.8 -150.45 -11.65 -150.3 -11.65 -150.05 -11.65 -149.75 -11.65 -149.65 -11.65 -149.4 -11.65 -147.5 -11.3 Q-146.0 -10.9 -144.65 -9.85 M-107.4 45.9 Q-109.3 45.9 -114.45 36.4 -117.65 30.5 -123.65 17.75 L-131.9 3.05 Q-138.5 -8.6 -138.5 -10.45 L-138.45 -10.8 -139.35 -11.4 Q-139.15 -13.35 -136.7 -12.35 L-133.2 -10.95 Q-131.7 -11.3 -127.1 -5.0 -120.85 3.5 -116.6 12.65 L-108.7 26.75 -104.65 34.0 -104.3 33.55 -103.3 32.2 -102.0 31.0 -101.25 29.65 Q-97.55 24.95 -95.55 23.55 L-95.45 23.8 -94.05 22.25 -95.3 20.65 -100.0 14.1 Q-101.75 13.1 -104.4 9.15 -107.7 4.3 -108.55 1.0 L-111.0 -6.85 Q-111.45 -8.3 -111.45 -12.1 -111.45 -21.0 -105.55 -21.1 L-102.3 -20.6 Q-100.15 -21.35 -98.45 -21.1 -97.3 -20.75 -94.7 -19.35 -92.35 -18.1 -91.1 -17.1 L-89.85 -16.3 Q-88.3 -15.2 -86.8 -12.8 -82.4 -8.15 -79.95 -4.7 -76.15 0.7 -72.95 6.05 -67.5 15.2 -67.5 18.5 -67.5 20.95 -69.0 23.75 -69.9 25.35 -71.05 26.6 -73.95 31.2 -77.5 31.2 -82.2 31.2 -83.9 30.2 -86.05 28.4 -89.25 26.85 L-90.2 26.25 Q-91.5 29.15 -95.45 35.5 -101.55 45.4 -104.3 45.6 L-105.6 46.8 -106.5 46.5 Q-106.95 46.95 -106.95 45.9 L-107.4 45.9 M-152.3 40.5 L-150.3 44.3 -149.9 42.55 Q-148.65 38.5 -147.5 33.65 L-146.7 29.65 -145.85 25.75 Q-154.45 29.4 -158.1 30.0 -155.65 34.2 -152.3 40.5 M-74.8 -7.95 L-71.0 -0.7 -61.85 10.25 -56.6 15.25 -55.25 15.8 -55.9 14.85 -57.2 12.1 -57.45 10.8 -57.25 10.4 -53.95 13.4 Q-52.2 15.15 -50.65 16.05 L-50.05 15.5 Q-49.6 14.7 -49.55 13.45 L-49.5 11.45 Q-49.5 7.25 -51.95 3.05 L-58.35 -6.05 Q-61.25 -10.0 -64.95 -13.9 -72.4 -21.7 -76.75 -21.7 -77.75 -21.7 -78.4 -19.35 L-78.85 -16.8 -78.15 -14.55 -78.05 -14.35 -74.8 -7.95 M-80.05 -7.65 Q-84.45 -16.7 -84.45 -21.45 L-84.3 -23.95 -83.3 -23.95 Q-83.1 -25.9 -81.1 -26.35 -78.8 -29.05 -72.0 -26.35 -66.85 -24.35 -64.1 -22.0 -60.4 -19.7 -57.35 -17.2 -54.05 -14.65 -52.55 -12.75 L-51.25 -11.05 -57.7 -25.25 -57.65 -26.0 -57.6 -25.95 -57.45 -25.95 -56.7 -27.1 -55.7 -28.1 -54.35 -29.1 -54.2 -29.05 Q-53.85 -29.4 -53.0 -28.55 -49.1 -27.25 -43.05 -23.0 -40.25 -21.05 -33.55 -15.7 -29.45 -13.3 -26.95 -10.2 L-29.75 -16.2 -35.15 -28.1 -36.0 -29.7 -36.05 -29.7 -36.3 -30.1 -36.4 -30.25 -37.15 -31.15 Q-36.5 -32.15 -35.35 -32.5 L-34.3 -32.65 Q-33.0 -33.55 -31.2 -33.35 -28.45 -33.15 -26.65 -31.15 -26.35 -30.85 -26.65 -30.55 L-25.65 -28.6 -24.1 -23.3 Q-22.95 -21.35 -22.0 -18.35 L-20.5 -13.45 -16.9 -3.65 -13.45 5.9 -13.2 6.05 -15.3 9.1 -17.15 11.35 Q-18.2 10.6 -19.4 10.4 L-19.45 10.2 -19.7 10.2 -25.55 3.4 -34.7 -6.85 -42.8 -14.65 -46.05 -18.05 -41.65 -9.6 Q-36.7 -1.75 -30.25 13.05 L-30.7 13.6 -30.7 13.7 -30.4 14.0 -27.75 17.75 Q-27.75 18.8 -29.1 20.1 -30.65 21.55 -32.5 21.55 -33.7 21.55 -37.45 15.35 L-38.05 14.35 Q-40.05 11.65 -43.05 6.0 -42.9 6.9 -42.9 7.7 L-42.9 7.95 Q-41.85 10.0 -41.4 12.05 -40.95 14.1 -40.95 19.1 -40.95 20.55 -42.1 21.8 -43.9 23.7 -48.05 23.7 -53.25 23.7 -57.55 20.65 L-59.4 18.95 -62.3 16.5 -64.65 13.95 -66.4 12.25 Q-70.05 8.65 -72.65 5.0 L-74.9 1.25 Q-77.4 -2.25 -80.05 -7.65 M-102.15 -13.85 L-103.3 -12.95 Q-104.2 -12.2 -104.25 -11.4 L-104.25 -9.2 Q-104.25 -5.2 -99.45 4.75 L-98.95 5.8 -95.55 11.1 -90.4 17.15 -88.9 18.45 -88.7 18.65 -86.8 20.05 -86.45 20.3 -85.6 20.6 -82.65 21.8 -80.85 22.6 -79.3 23.25 -76.3 22.75 -74.8 22.9 Q-74.95 19.3 -77.7 13.95 L-82.5 5.05 -85.15 0.5 -87.8 -4.05 Q-88.55 -5.35 -91.45 -8.2 L-95.55 -12.35 Q-97.8 -12.85 -97.95 -13.65 L-102.15 -13.85 M-93.35 23.7 Q-93.2 23.55 -92.95 23.55 L-93.15 23.3 -93.35 23.7 M-86.65 24.45 L-86.15 24.8 -86.4 24.45 -86.65 24.45 M-71.75 20.75 L-71.95 19.65 -71.75 20.95 -71.75 20.75 M7.0 2.5 L6.55 -2.6 6.55 -4.25 6.55 -4.3 6.5 -4.45 Q6.35 -4.6 6.35 -5.3 L6.55 -5.6 Q6.5 -10.35 6.1 -12.7 4.1 -28.9 4.1 -32.6 3.85 -33.85 3.9 -35.2 3.9 -36.3 4.2 -37.05 L4.0 -37.2 Q3.85 -36.75 3.85 -37.85 3.85 -38.5 6.75 -39.65 10.05 -41.0 13.45 -41.0 L16.05 -41.25 19.7 -41.35 23.9 -39.35 26.7 -38.1 27.25 -37.95 27.75 -37.65 27.85 -37.55 Q28.65 -37.1 30.6 -36.15 L35.3 -34.05 41.85 -30.65 41.65 -30.6 40.85 -30.45 34.4 -24.45 26.15 -17.25 25.1 -16.05 27.3 -15.4 Q31.45 -14.0 33.25 -12.85 34.2 -13.2 35.35 -12.1 L35.65 -10.55 36.4 -10.1 36.05 -9.1 35.85 -8.8 36.1 -7.25 36.7 -2.2 Q36.7 0.8 35.1 1.25 L34.85 1.05 33.65 1.4 29.35 5.0 Q25.85 7.85 23.45 10.4 22.25 11.7 20.45 12.65 L16.35 14.75 13.0 16.95 Q10.85 18.3 9.7 18.3 L8.5 18.25 8.15 18.1 8.05 17.85 Q7.9 17.8 7.9 17.1 L8.05 16.7 7.9 16.55 7.75 16.55 7.45 16.4 Q7.25 16.15 7.25 15.05 L7.3 14.5 7.25 12.95 7.3 10.85 7.0 11.1 Q6.8 10.8 6.8 9.45 6.8 7.4 7.1 4.3 L7.0 2.5 M13.1 -29.5 L13.0 -22.8 12.7 -14.2 14.05 -15.35 20.5 -20.6 27.75 -25.7 Q30.55 -27.5 32.4 -28.05 L33.65 -29.05 Q30.2 -29.5 26.3 -31.1 24.45 -31.85 21.5 -33.4 L20.3 -33.8 Q19.0 -34.2 17.45 -35.0 16.1 -35.7 15.0 -35.85 L12.55 -36.2 Q13.05 -33.75 13.1 -29.5 M12.6 -6.25 Q13.2 -4.1 13.2 -3.25 L11.75 1.75 Q10.2 6.2 10.15 6.85 L9.55 7.2 9.4 8.2 12.35 6.0 19.25 1.6 25.0 -3.9 Q27.9 -6.65 30.4 -7.4 L31.0 -9.55 26.7 -11.05 Q22.55 -12.65 20.55 -13.75 L19.9 -13.4 16.8 -11.05 16.7 -11.0 Q16.05 -10.05 12.6 -7.15 L12.5 -7.1 12.5 -6.85 12.6 -6.25 M-22.85 -2.7 L-22.4 -1.65 -22.8 -2.85 -22.85 -2.7 M76.15 -47.5 L76.35 -46.45 Q76.25 -44.3 72.2 -42.7 69.35 -41.6 63.85 -40.55 L56.25 -38.7 53.95 -30.3 50.35 -17.25 Q53.15 -18.75 55.5 -19.8 62.1 -22.8 67.7 -24.0 L67.85 -23.75 69.5 -23.95 70.35 -23.9 70.95 -23.75 71.1 -23.8 71.2 -23.05 Q71.2 -21.65 67.35 -19.65 L60.65 -16.35 Q58.3 -15.1 51.65 -12.4 L48.8 -11.2 45.55 1.9 45.05 3.6 Q46.1 3.15 47.05 2.95 54.7 1.1 57.95 -1.25 60.3 -2.95 62.5 -2.6 L63.55 -2.25 Q64.45 -5.15 69.65 -14.25 L76.7 -26.4 79.6 -32.65 Q81.5 -36.7 82.85 -38.9 L86.6 -45.25 Q87.5 -46.8 90.9 -48.25 93.4 -49.35 94.95 -49.35 96.55 -49.6 98.25 -48.65 L98.2 -48.6 98.3 -48.5 98.6 -47.45 Q98.6 -45.4 97.65 -43.1 96.7 -40.85 96.7 -38.2 L94.75 -29.35 91.75 -17.6 88.85 -6.35 Q87.05 0.35 85.0 2.05 82.0 1.8 80.9 1.05 80.05 0.5 80.05 -0.45 L80.15 -1.45 80.5 -1.4 83.3 -9.65 85.25 -15.15 Q81.85 -13.35 76.15 -10.6 L73.9 -6.5 71.0 -0.35 Q69.15 3.4 66.5 5.85 L66.55 6.3 65.9 7.3 Q64.45 6.15 63.75 4.15 63.3 2.75 63.25 1.25 60.35 3.55 51.55 8.2 38.55 14.95 35.1 14.95 33.65 14.95 33.3 13.9 L33.25 12.65 Q33.25 11.95 34.2 10.95 L34.15 10.4 Q34.15 9.3 37.2 -1.5 L41.55 -17.05 43.7 -23.9 45.7 -30.5 47.05 -36.65 46.35 -36.65 Q44.3 -36.65 43.35 -37.4 42.7 -37.95 42.7 -38.75 42.7 -40.75 56.75 -44.05 69.65 -47.15 76.15 -47.5 M88.6 -25.8 L90.05 -32.05 91.3 -38.3 91.35 -38.45 88.8 -34.15 83.3 -24.95 80.6 -19.3 80.15 -18.3 80.3 -18.4 Q83.25 -20.0 86.05 -20.65 L87.1 -20.85 88.6 -25.8" fill="none" stroke="#ec93fb" stroke-linecap="round" stroke-linejoin="round" stroke-width="8.0"/>
    <path d="M145.7 -8.0 L145.9 -7.65 149.55 -13.65 156.35 -24.2 159.0 -28.9 161.6 -33.6 162.8 -35.8 164.2 -38.3 Q165.45 -40.05 166.9 -40.8 168.85 -41.8 168.85 -39.15 L168.55 -37.05 168.7 -35.45 168.4 -33.45 167.6 -25.2 166.6 -15.55 166.5 -14.85 167.05 -15.8 172.45 -24.85 Q176.95 -30.85 178.6 -34.55 181.35 -41.0 185.2 -44.0 L185.2 -44.4 185.65 -44.35 186.15 -44.7 186.2 -44.75 186.8 -45.5 186.95 -44.85 187.0 -44.85 188.85 -42.35 190.15 -40.05 189.65 -38.95 189.0 -38.0 189.25 -37.7 Q189.25 -35.95 184.1 -26.8 L178.8 -17.65 Q177.75 -15.75 175.1 -12.6 L170.95 -7.55 167.95 -2.8 165.6 0.2 165.0 1.1 163.3 2.25 161.85 2.8 161.1 2.6 Q160.9 2.45 160.85 1.9 160.7 1.35 160.7 0.25 160.7 -3.7 161.5 -9.55 L162.15 -15.5 163.1 -22.7 156.25 -12.2 143.0 5.95 142.25 5.75 Q141.95 5.55 141.95 4.85 141.95 4.35 142.3 3.45 142.35 2.2 143.65 -2.35 145.05 -7.2 145.7 -8.0 M119.5 0.75 L119.65 1.35 Q128.65 -1.9 140.05 -18.15 144.35 -24.3 147.4 -30.1 150.25 -35.65 150.25 -37.4 L150.15 -38.65 149.95 -39.6 149.95 -39.8 Q139.0 -34.6 128.6 -19.45 124.35 -13.3 121.85 -7.65 119.35 -2.0 119.5 0.75 M156.8 -34.55 Q156.8 -30.3 153.0 -23.5 150.45 -19.0 145.75 -12.8 L142.15 -7.7 Q139.5 -4.25 136.95 -2.0 124.5 6.8 120.1 6.8 114.5 6.8 114.5 3.35 114.5 -4.85 121.1 -16.85 127.25 -28.0 135.7 -36.55 144.45 -45.45 150.2 -45.75 156.8 -46.15 156.8 -34.55 M134.7 -43.2 Q134.35 -40.65 133.6 -40.05 L132.0 -38.05 129.15 -35.4 Q128.4 -35.85 128.4 -37.25 128.4 -38.75 129.1 -40.2 L129.1 -40.35 128.9 -43.3 128.9 -44.2 128.65 -44.6 Q121.0 -43.1 113.35 -34.5 108.5 -29.0 104.9 -22.4 100.7 -14.8 99.05 -11.3 96.1 -5.05 94.9 -0.15 L94.9 0.1 99.35 -2.35 102.1 -3.6 104.35 -4.95 Q106.75 -6.25 107.55 -6.4 L108.25 -6.3 108.5 -5.5 Q108.5 -3.25 103.9 1.25 98.55 6.5 93.3 6.5 88.3 6.5 87.1 4.15 86.8 3.65 86.8 1.25 86.8 -1.9 90.7 -11.55 L95.35 -22.15 Q96.35 -24.45 97.9 -26.95 L98.05 -27.35 Q99.8 -32.05 105.35 -39.6 107.4 -42.3 110.75 -45.55 114.2 -48.8 118.1 -51.7 124.7 -56.6 130.35 -53.6 132.4 -52.5 133.8 -50.6 135.0 -48.9 135.0 -47.65 L134.9 -46.6 134.7 -43.2 M-160.4 -6.95 L-164.95 -6.55 -165.25 -6.35 Q-166.65 -5.75 -172.05 -5.15 L-172.45 -5.1 -178.9 -3.9 -178.2 -3.25 Q-173.95 1.1 -171.15 6.3 -170.0 9.1 -166.8 13.45 L-164.4 16.7 -162.85 5.4 Q-162.1 -0.15 -161.3 -2.8 L-159.9 -6.95 -160.4 -6.95 M-153.35 -7.8 L-153.5 -7.75 -153.55 -7.3 -153.35 -7.8 M-144.65 -13.45 L-148.1 -10.25 -150.25 -3.1 -153.55 7.2 -155.6 13.8 Q-153.4 13.6 -148.95 13.8 L-137.05 14.4 -136.55 14.8 -135.75 15.55 -135.7 15.5 Q-135.45 15.55 -135.45 16.25 -135.45 16.95 -137.75 18.3 L-137.8 18.65 -137.7 19.5 Q-137.7 22.25 -139.85 35.4 -141.65 46.7 -143.2 49.65 L-143.0 49.85 -143.25 50.95 -145.35 51.15 -146.95 51.0 -147.8 51.15 -148.65 50.95 -148.95 50.95 Q-150.15 50.95 -150.5 49.3 -152.6 46.85 -155.6 41.35 L-165.3 23.55 -175.7 7.7 Q-181.95 -1.85 -182.75 -3.65 L-187.4 -2.6 -188.4 -2.7 Q-188.75 -2.8 -188.75 -3.6 -188.75 -4.15 -188.1 -4.6 L-188.5 -4.85 -189.2 -5.6 -189.6 -5.95 Q-190.1 -6.5 -190.1 -7.3 -190.1 -9.35 -183.85 -10.55 L-169.15 -12.8 -167.85 -12.95 -167.8 -13.0 -164.35 -13.55 -159.15 -14.4 -150.45 -15.25 -150.3 -15.25 -150.05 -15.25 -149.75 -15.25 -149.65 -15.25 -149.4 -15.25 -147.5 -14.9 Q-146.0 -14.5 -144.65 -13.45 M-107.4 42.3 Q-109.3 42.3 -114.45 32.8 -117.65 26.9 -123.65 14.15 L-131.9 -0.55 Q-138.5 -12.2 -138.5 -14.05 L-138.45 -14.4 -139.35 -15.0 Q-139.15 -16.95 -136.7 -15.95 L-133.2 -14.55 Q-131.7 -14.9 -127.1 -8.6 -120.85 -0.1 -116.6 9.05 L-108.7 23.15 -104.65 30.4 -104.3 29.95 -103.3 28.6 -102.0 27.4 -101.25 26.05 Q-97.55 21.35 -95.55 19.95 L-95.45 20.2 -94.05 18.65 -95.3 17.05 -100.0 10.5 Q-101.75 9.5 -104.4 5.55 -107.7 0.7 -108.55 -2.6 L-111.0 -10.45 Q-111.45 -11.9 -111.45 -15.7 -111.45 -24.6 -105.55 -24.7 L-102.3 -24.2 Q-100.15 -24.95 -98.45 -24.7 -97.3 -24.35 -94.7 -22.95 -92.35 -21.7 -91.1 -20.7 L-89.85 -19.9 Q-88.3 -18.8 -86.8 -16.4 -82.4 -11.75 -79.95 -8.3 -76.15 -2.9 -72.95 2.45 -67.5 11.6 -67.5 14.9 -67.5 17.35 -69.0 20.15 -69.9 21.75 -71.05 23.0 -73.95 27.6 -77.5 27.6 -82.2 27.6 -83.9 26.6 -86.05 24.8 -89.25 23.25 L-90.2 22.65 Q-91.5 25.55 -95.45 31.9 -101.55 41.8 -104.3 42.0 L-105.6 43.2 -106.5 42.9 Q-106.95 43.35 -106.95 42.3 L-107.4 42.3 M-152.3 36.9 L-150.3 40.7 -149.9 38.95 Q-148.65 34.9 -147.5 30.05 L-146.7 26.05 -145.85 22.15 Q-154.45 25.8 -158.1 26.4 -155.65 30.6 -152.3 36.9 M-74.8 -11.55 L-71.0 -4.3 -61.85 6.65 -56.6 11.65 -55.25 12.2 -55.9 11.25 -57.2 8.5 -57.45 7.2 -57.25 6.8 -53.95 9.8 Q-52.2 11.55 -50.65 12.45 L-50.05 11.9 Q-49.6 11.1 -49.55 9.85 L-49.5 7.85 Q-49.5 3.65 -51.95 -0.55 L-58.35 -9.65 Q-61.25 -13.6 -64.95 -17.5 -72.4 -25.3 -76.75 -25.3 -77.75 -25.3 -78.4 -22.95 L-78.85 -20.4 -78.15 -18.15 -78.05 -17.95 -74.8 -11.55 M-80.05 -11.25 Q-84.45 -20.3 -84.45 -25.05 L-84.3 -27.55 -83.3 -27.55 Q-83.1 -29.5 -81.1 -29.95 -78.8 -32.65 -72.0 -29.95 -66.85 -27.95 -64.1 -25.6 -60.4 -23.3 -57.35 -20.8 -54.05 -18.25 -52.55 -16.35 L-51.25 -14.65 -57.7 -28.85 -57.65 -29.6 -57.6 -29.55 -57.45 -29.55 -56.7 -30.7 -55.7 -31.7 -54.35 -32.7 -54.2 -32.65 Q-53.85 -33.0 -53.0 -32.15 -49.1 -30.85 -43.05 -26.6 -40.25 -24.65 -33.55 -19.3 -29.45 -16.9 -26.95 -13.8 L-29.75 -19.8 -35.15 -31.7 -36.0 -33.3 -36.05 -33.3 -36.3 -33.7 -36.4 -33.85 -37.15 -34.75 Q-36.5 -35.75 -35.35 -36.1 L-34.3 -36.25 Q-33.0 -37.15 -31.2 -36.95 -28.45 -36.75 -26.65 -34.75 -26.35 -34.45 -26.65 -34.15 L-25.65 -32.2 -24.1 -26.9 Q-22.95 -24.95 -22.0 -21.95 L-20.5 -17.05 -16.9 -7.25 -13.45 2.3 -13.2 2.45 -15.3 5.5 -17.15 7.75 Q-18.2 7.0 -19.4 6.8 L-19.45 6.6 -19.7 6.6 -25.55 -0.2 -34.7 -10.45 -42.8 -18.25 -46.05 -21.65 -41.65 -13.2 Q-36.7 -5.35 -30.25 9.45 L-30.7 10.0 -30.7 10.1 -30.4 10.4 -27.75 14.15 Q-27.75 15.2 -29.1 16.5 -30.65 17.95 -32.5 17.95 -33.7 17.95 -37.45 11.75 L-38.05 10.75 Q-40.05 8.05 -43.05 2.4 -42.9 3.3 -42.9 4.1 L-42.9 4.35 Q-41.85 6.4 -41.4 8.45 -40.95 10.5 -40.95 15.5 -40.95 16.95 -42.1 18.2 -43.9 20.1 -48.05 20.1 -53.25 20.1 -57.55 17.05 L-59.4 15.35 -62.3 12.9 -64.65 10.35 -66.4 8.65 Q-70.05 5.05 -72.65 1.4 L-74.9 -2.35 Q-77.4 -5.85 -80.05 -11.25 M-102.15 -17.45 L-103.3 -16.55 Q-104.2 -15.8 -104.25 -15.0 L-104.25 -12.8 Q-104.25 -8.8 -99.45 1.15 L-98.95 2.2 -95.55 7.5 -90.4 13.55 -88.9 14.85 -88.7 15.05 -86.8 16.45 -86.45 16.7 -85.6 17.0 -82.65 18.2 -80.85 19.0 -79.3 19.65 -76.3 19.15 -74.8 19.3 Q-74.95 15.7 -77.7 10.35 L-82.5 1.45 -85.15 -3.1 -87.8 -7.65 Q-88.55 -8.95 -91.45 -11.8 L-95.55 -15.95 Q-97.8 -16.45 -97.95 -17.25 L-102.15 -17.45 M-93.35 20.1 Q-93.2 19.95 -92.95 19.95 L-93.15 19.7 -93.35 20.1 M-86.65 20.85 L-86.15 21.2 -86.4 20.85 -86.65 20.85 M-71.75 17.15 L-71.95 16.05 -71.75 17.35 -71.75 17.15 M7.0 -1.1 L6.55 -6.2 6.55 -7.85 6.55 -7.9 6.5 -8.05 Q6.35 -8.2 6.35 -8.9 L6.55 -9.2 Q6.5 -13.95 6.1 -16.3 4.1 -32.5 4.1 -36.2 3.85 -37.45 3.9 -38.8 3.9 -39.9 4.2 -40.65 L4.0 -40.8 Q3.85 -40.35 3.85 -41.45 3.85 -42.1 6.75 -43.25 10.05 -44.6 13.45 -44.6 L16.05 -44.85 19.7 -44.95 23.9 -42.95 26.7 -41.7 27.25 -41.55 27.75 -41.25 27.85 -41.15 Q28.65 -40.7 30.6 -39.75 L35.3 -37.65 41.85 -34.25 41.65 -34.2 40.85 -34.05 34.4 -28.05 26.15 -20.85 25.1 -19.65 27.3 -19.0 Q31.45 -17.6 33.25 -16.45 34.2 -16.8 35.35 -15.7 L35.65 -14.15 36.4 -13.7 36.05 -12.7 35.85 -12.4 36.1 -10.85 36.7 -5.8 Q36.7 -2.8 35.1 -2.35 L34.85 -2.55 33.65 -2.2 29.35 1.4 Q25.85 4.25 23.45 6.8 22.25 8.1 20.45 9.05 L16.35 11.15 13.0 13.35 Q10.85 14.7 9.7 14.7 L8.5 14.65 8.15 14.5 8.05 14.25 Q7.9 14.2 7.9 13.5 L8.05 13.1 7.9 12.95 7.75 12.95 7.45 12.8 Q7.25 12.55 7.25 11.45 L7.3 10.9 7.25 9.35 7.3 7.25 7.0 7.5 Q6.8 7.2 6.8 5.85 6.8 3.8 7.1 0.7 L7.0 -1.1 M13.1 -33.1 L13.0 -26.4 12.7 -17.8 14.05 -18.95 20.5 -24.2 27.75 -29.3 Q30.55 -31.1 32.4 -31.65 L33.65 -32.65 Q30.2 -33.1 26.3 -34.7 24.45 -35.45 21.5 -37.0 L20.3 -37.4 Q19.0 -37.8 17.45 -38.6 16.1 -39.3 15.0 -39.45 L12.55 -39.8 Q13.05 -37.35 13.1 -33.1 M12.6 -9.85 Q13.2 -7.7 13.2 -6.85 L11.75 -1.85 Q10.2 2.6 10.15 3.25 L9.55 3.6 9.4 4.6 12.35 2.4 19.25 -2.0 25.0 -7.5 Q27.9 -10.25 30.4 -11.0 L31.0 -13.15 26.7 -14.65 Q22.55 -16.25 20.55 -17.35 L19.9 -17.0 16.8 -14.65 16.7 -14.6 Q16.05 -13.65 12.6 -10.75 L12.5 -10.7 12.5 -10.45 12.6 -9.85 M-22.85 -6.3 L-22.4 -5.25 -22.8 -6.45 -22.85 -6.3 M76.15 -51.1 L76.35 -50.05 Q76.25 -47.9 72.2 -46.3 69.35 -45.2 63.85 -44.15 L56.25 -42.3 53.95 -33.9 50.35 -20.85 Q53.15 -22.35 55.5 -23.4 62.1 -26.4 67.7 -27.6 L67.85 -27.35 69.5 -27.55 70.35 -27.5 70.95 -27.35 71.1 -27.4 71.2 -26.65 Q71.2 -25.25 67.35 -23.25 L60.65 -19.95 Q58.3 -18.7 51.65 -16.0 L48.8 -14.8 45.55 -1.7 45.05 0.0 47.05 -0.65 Q54.7 -2.5 57.95 -4.85 60.3 -6.55 62.5 -6.2 L63.55 -5.85 Q64.45 -8.75 69.65 -17.85 L76.7 -30.0 79.6 -36.25 Q81.5 -40.3 82.85 -42.5 L86.6 -48.85 Q87.5 -50.4 90.9 -51.85 93.4 -52.95 94.95 -52.95 96.55 -53.2 98.25 -52.25 L98.2 -52.2 98.3 -52.1 98.6 -51.05 Q98.6 -49.0 97.65 -46.7 96.7 -44.45 96.7 -41.8 L94.75 -32.95 91.75 -21.2 88.85 -9.95 Q87.05 -3.25 85.0 -1.55 82.0 -1.8 80.9 -2.55 80.05 -3.1 80.05 -4.05 L80.15 -5.05 80.5 -5.0 83.3 -13.25 85.25 -18.75 Q81.85 -16.95 76.15 -14.2 L73.9 -10.1 71.0 -3.95 Q69.15 -0.2 66.5 2.25 L66.55 2.7 65.9 3.7 Q64.45 2.55 63.75 0.55 63.3 -0.85 63.25 -2.35 60.35 -0.05 51.55 4.6 38.55 11.35 35.1 11.35 33.65 11.35 33.3 10.3 L33.25 9.05 Q33.25 8.35 34.2 7.35 L34.15 6.8 Q34.15 5.7 37.2 -5.1 L41.55 -20.65 43.7 -27.5 45.7 -34.1 47.05 -40.25 46.35 -40.25 Q44.3 -40.25 43.35 -41.0 42.7 -41.55 42.7 -42.35 42.7 -44.35 56.75 -47.65 69.65 -50.75 76.15 -51.1 M88.6 -29.4 L90.05 -35.65 91.3 -41.9 91.35 -42.05 88.8 -37.75 83.3 -28.55 80.6 -22.9 80.15 -21.9 80.3 -22.0 Q83.25 -23.6 86.05 -24.25 L87.1 -24.45 88.6 -29.4" fill="#6e28b9" fill-rule="evenodd" stroke="none"/>
  </g>
</svg>
