<?xml version="1.0" encoding="UTF-8" standalone="no"?>
<svg xmlns:xlink="http://www.w3.org/1999/xlink" height="121.1px" width="362.15px" xmlns="http://www.w3.org/2000/svg">
  <g transform="matrix(1.0, 0.0, 0.0, 1.0, 166.05, 60.55)">
    <path d="M134.3 -16.75 Q131.45 -18.85 128.4 -19.5 L128.3 -17.8 Q128.1 -16.6 126.8 -15.9 123.65 -16.75 123.25 -21.05 122.95 -24.55 124.2 -27.25 L124.15 -27.4 123.55 -26.75 122.45 -26.5 Q121.75 -26.45 121.8 -27.55 L122.05 -28.65 123.1 -32.45 123.1 -32.85 123.3 -34.5 Q123.75 -36.4 125.15 -38.55 126.55 -40.65 128.75 -42.55 L131.75 -44.7 135.5 -46.65 137.7 -47.7 139.5 -48.3 Q140.9 -48.95 142.45 -49.05 L148.55 -49.8 151.6 -50.35 156.55 -50.7 158.3 -50.65 158.35 -50.6 158.35 -50.25 158.2 -50.0 Q158.7 -49.5 158.5 -48.7 L157.05 -45.1 156.95 -43.25 156.75 -41.0 156.35 -39.7 Q156.0 -39.1 154.5 -38.0 154.6 -37.0 155.1 -36.4 155.5 -36.0 155.35 -35.4 L154.75 -33.95 Q154.15 -32.85 153.45 -32.85 L148.8 -32.8 148.05 -33.6 Q147.65 -34.2 146.2 -34.2 L144.45 -33.15 Q142.75 -32.05 142.45 -32.05 141.5 -32.05 141.5 -32.85 L141.65 -33.6 Q141.8 -34.4 142.7 -36.2 L142.05 -35.75 Q139.3 -33.8 138.9 -31.95 138.65 -30.85 139.5 -30.3 L141.4 -29.55 Q142.75 -29.15 143.3 -28.75 L143.65 -28.3 147.0 -25.65 149.35 -23.15 Q150.4 -22.9 151.25 -22.25 153.0 -20.9 153.0 -18.45 L152.45 -17.35 Q152.4 -14.85 151.45 -10.55 L150.3 -6.9 148.95 -3.3 Q148.35 -1.6 145.35 1.05 142.45 3.6 141.35 3.6 L141.15 3.6 141.0 3.8 Q140.7 4.15 140.35 4.15 137.3 4.2 137.6 2.65 136.95 3.25 135.5 6.2 134.45 8.45 133.15 8.45 L132.55 8.4 131.4 8.25 Q130.35 7.1 130.75 5.25 131.4 3.2 131.45 2.1 L130.9 3.75 Q130.25 5.1 129.1 5.15 128.4 5.15 128.2 4.75 L128.05 4.25 Q127.5 5.5 126.95 8.55 126.15 11.35 124.15 13.1 L123.5 13.1 Q122.65 12.1 122.95 10.7 L123.4 8.35 122.55 8.85 121.95 8.85 Q121.1 8.15 121.3 7.0 L121.85 5.1 122.2 3.35 122.65 1.4 Q121.7 2.35 121.15 4.9 L120.75 6.6 Q120.3 7.7 119.1 7.75 117.7 7.75 117.45 5.35 L117.45 2.4 Q117.45 0.3 118.05 -3.0 118.5 -6.7 118.9 -8.45 L119.15 -11.0 119.45 -13.65 Q119.95 -15.85 120.45 -16.85 L120.4 -16.9 120.55 -17.0 121.15 -17.75 121.15 -17.45 Q121.75 -17.75 122.4 -17.45 L123.95 -16.3 125.6 -14.8 126.5 -14.15 Q130.2 -16.75 134.25 -16.75 L134.3 -16.75 M100.5 -14.4 L100.8 -15.3 102.2 -19.85 102.3 -19.9 101.85 -20.7 Q101.2 -21.65 101.4 -22.4 101.6 -23.35 101.9 -23.7 102.55 -24.35 104.55 -24.95 105.25 -25.95 105.4 -26.7 L105.25 -27.25 Q105.05 -27.65 105.15 -28.1 L105.5 -29.55 105.7 -30.85 105.85 -32.25 108.05 -42.15 Q108.05 -42.95 108.4 -44.65 L109.25 -47.9 109.55 -48.55 Q109.85 -49.5 111.15 -49.85 112.7 -50.35 113.55 -48.8 L113.85 -48.6 114.45 -48.6 115.2 -49.35 Q115.8 -49.9 116.75 -49.9 L117.85 -49.8 118.75 -49.6 121.35 -49.45 123.75 -49.25 124.1 -48.75 124.35 -48.5 121.85 -37.3 120.0 -27.55 119.7 -25.05 119.4 -22.6 119.3 -19.9 119.3 -17.85 118.0 -13.45 117.55 -12.85 116.85 -12.65 Q116.2 -12.65 116.2 -13.1 L116.25 -13.75 114.1 -8.15 Q112.5 -4.35 111.85 -2.4 L109.8 3.25 108.8 5.95 Q108.1 7.7 106.95 8.6 L105.45 8.6 104.95 8.2 105.0 7.7 105.45 6.6 105.95 5.3 Q103.25 9.05 102.2 10.0 100.9 11.2 99.15 11.25 97.55 11.25 97.4 10.65 L97.55 9.95 Q97.7 9.35 98.6 8.4 99.5 7.45 99.75 6.45 L99.9 5.65 Q99.9 5.1 99.55 4.75 98.55 5.05 97.45 6.75 96.55 8.15 96.4 8.85 L96.35 9.5 96.0 10.75 Q95.15 12.5 92.75 12.5 89.9 12.55 87.55 10.65 85.75 9.25 85.5 8.35 L85.05 6.05 84.6 3.9 Q84.25 3.0 84.35 1.65 L84.7 -0.7 85.25 -3.25 85.65 -5.1 Q85.9 -6.2 85.6 -6.6 L84.7 -7.0 Q83.35 -7.45 83.75 -9.85 L84.75 -15.15 85.95 -20.05 88.5 -25.5 88.25 -25.8 Q87.3 -24.85 86.05 -24.8 85.35 -24.8 85.45 -25.75 L85.65 -26.75 Q86.1 -28.8 87.3 -32.1 L89.05 -37.35 90.8 -42.7 Q91.5 -45.0 92.4 -46.75 L92.4 -46.9 92.4 -47.35 94.55 -48.95 Q96.55 -50.2 97.65 -50.65 99.1 -51.2 101.05 -52.3 L105.1 -52.6 Q105.55 -52.5 105.65 -52.2 L105.55 -51.7 104.9 -50.85 103.5 -49.65 103.65 -49.45 104.55 -49.35 105.0 -48.7 104.95 -48.1 103.8 -45.4 102.6 -42.55 101.1 -37.25 Q100.8 -35.95 100.75 -34.1 L100.2 -30.0 98.3 -23.95 96.75 -19.2 Q96.55 -18.35 96.95 -17.15 97.4 -15.85 97.25 -14.9 97.05 -12.8 97.5 -11.0 L100.5 -14.4 M64.9 -9.75 L65.6 -12.1 66.65 -15.15 67.6 -17.9 67.6 -18.15 69.65 -27.4 Q70.05 -29.1 69.4 -35.3 68.75 -41.55 68.95 -42.35 69.2 -43.55 69.6 -43.8 L73.0 -45.25 75.85 -46.85 79.0 -48.7 81.7 -50.5 Q83.55 -51.8 84.75 -52.25 88.05 -53.6 89.95 -52.65 91.5 -51.85 91.25 -50.7 L89.7 -45.3 Q89.05 -43.15 88.3 -42.0 87.2 -40.3 85.8 -40.3 84.65 -40.3 84.8 -41.1 L85.25 -42.3 85.1 -42.55 83.4 -36.5 81.8 -30.35 79.55 -22.1 78.45 -17.95 77.75 -15.65 77.15 -13.9 77.6 -12.55 Q78.05 -11.25 77.85 -10.35 L77.35 -8.35 76.75 -7.7 75.8 -6.75 Q75.35 -6.15 75.05 -4.95 L74.65 -3.2 73.55 0.5 72.85 2.4 72.35 3.9 70.75 7.85 69.75 9.75 Q68.95 10.85 67.5 11.55 66.25 11.5 66.0 11.0 L65.8 10.35 65.35 11.8 Q64.85 12.65 63.2 12.8 62.0 12.6 62.15 10.25 62.2 9.25 62.7 7.0 63.25 4.65 63.95 3.5 L65.25 1.75 66.55 0.1 65.8 -0.05 Q65.25 0.25 64.4 2.2 63.6 3.85 62.45 3.85 L61.6 3.8 Q61.0 3.7 61.05 2.8 L61.25 1.5 Q61.4 0.8 62.05 -0.25 L62.9 -2.35 63.35 -4.4 63.5 -5.25 61.7 -6.25 61.6 -4.9 61.5 -2.85 Q61.3 -2.05 59.85 -1.35 58.4 -0.6 58.1 0.7 L57.6 3.9 57.0 6.05 54.85 8.4 54.0 8.4 Q52.6 7.4 52.8 5.85 53.3 4.1 53.25 3.2 53.1 1.2 53.4 -1.85 53.6 -3.8 52.55 -7.6 51.6 -11.1 51.8 -12.0 L50.1 -12.25 Q49.5 -12.9 49.6 -13.25 L50.35 -14.65 51.2 -16.6 Q51.4 -17.6 50.8 -18.7 L50.4 -19.4 48.25 -18.1 44.8 -16.65 44.7 -16.1 44.7 -14.2 44.5 -12.35 44.05 -10.65 Q43.65 -9.95 42.65 -9.15 42.25 -9.25 42.15 -9.45 41.4 -8.9 40.85 -8.8 L41.4 -6.75 Q41.6 -5.6 41.4 -4.85 L41.15 -2.65 41.0 -1.0 39.9 3.1 Q38.55 7.05 37.1 7.1 35.85 7.1 35.9 5.65 L36.1 3.3 36.05 3.3 35.45 7.15 Q34.7 10.25 33.25 10.25 31.55 10.25 31.7 7.4 32.25 3.9 32.2 2.65 32.2 1.8 32.85 -1.0 33.4 -3.4 33.15 -4.85 L32.7 -1.45 Q32.05 0.85 30.25 0.9 L29.05 0.65 Q28.6 -0.6 28.65 -2.25 L28.8 -5.1 28.8 -8.3 29.25 -10.65 31.0 -16.6 32.6 -21.95 Q33.2 -24.6 32.95 -26.15 32.6 -28.45 32.85 -31.55 33.1 -34.55 34.45 -41.0 L34.8 -42.35 Q34.65 -42.65 34.65 -43.05 L34.8 -43.95 Q35.3 -46.25 38.0 -46.4 L41.95 -46.15 Q42.95 -46.15 45.6 -48.6 48.05 -50.85 49.05 -50.35 49.8 -49.95 49.95 -49.2 L50.2 -48.1 52.05 -49.3 Q53.45 -49.9 56.25 -49.95 60.8 -50.0 63.6 -46.75 L65.05 -44.4 65.1 -44.2 66.05 -43.1 Q67.8 -40.6 67.75 -38.45 68.35 -36.2 67.8 -33.95 L67.45 -33.0 Q67.0 -32.4 66.1 -32.4 65.85 -32.4 65.3 -32.7 L64.6 -33.2 64.55 -31.2 64.3 -29.65 63.9 -28.2 63.75 -27.85 63.75 -27.6 62.0 -25.9 59.85 -24.2 61.5 -22.2 Q64.9 -18.5 64.7 -17.55 L64.4 -16.55 64.65 -15.75 64.45 -14.75 63.25 -11.3 63.5 -10.65 64.9 -9.75 M111.95 -24.8 Q112.65 -25.25 113.6 -26.65 114.95 -28.45 115.15 -29.3 115.45 -30.75 114.45 -31.15 113.3 -31.6 111.85 -29.4 L109.9 -27.05 Q109.1 -26.15 108.9 -25.25 L109.0 -24.9 109.45 -24.5 110.5 -24.5 111.85 -24.8 111.95 -24.8 M56.3 -38.3 L55.65 -37.45 54.95 -36.55 55.15 -32.85 54.75 -31.85 Q56.0 -32.3 56.35 -32.7 L57.0 -34.55 Q57.4 -36.4 56.3 -38.3 M53.65 -40.55 L52.0 -40.75 Q50.95 -40.75 50.25 -39.55 L49.5 -38.1 49.95 -40.0 Q50.25 -41.15 49.45 -41.7 46.35 -41.5 46.05 -40.65 L46.1 -39.9 46.25 -39.3 46.0 -38.05 45.6 -36.95 45.35 -36.55 45.15 -35.15 44.7 -33.55 44.65 -33.25 47.4 -35.3 50.65 -38.2 Q52.25 -39.95 53.65 -40.55 M58.7 -17.6 Q58.9 -18.45 58.05 -18.7 57.2 -18.9 57.0 -17.85 L56.9 -17.2 Q56.9 -16.65 57.45 -16.65 L58.05 -16.85 58.7 -17.6 M57.7 -15.6 L58.1 -15.65 Q58.8 -15.55 59.8 -14.95 L59.75 -15.45 Q59.45 -16.05 57.9 -15.9 L57.75 -15.75 57.7 -15.6 M26.55 -34.7 L25.6 -33.35 25.0 -32.75 Q25.95 -32.8 25.45 -29.75 L24.65 -25.3 Q24.55 -23.95 25.4 -21.65 L26.75 -18.0 27.65 -14.35 Q27.9 -12.2 27.5 -10.55 L27.2 -7.15 26.85 -3.2 Q26.25 -0.45 25.35 0.15 L24.7 0.15 Q24.05 -0.25 23.85 -0.95 L23.65 -2.1 21.85 3.5 Q20.55 6.9 18.75 8.85 15.15 8.35 16.05 4.0 17.75 -1.0 17.55 -2.4 15.7 -2.35 15.4 -3.0 L15.45 -3.9 Q15.6 -4.8 16.6 -5.9 L17.6 -6.95 Q17.7 -7.35 16.35 -8.0 L14.8 -8.6 14.05 -8.6 Q13.0 -7.1 12.3 -4.75 L11.35 -0.65 10.5 3.95 Q9.8 6.75 8.2 6.8 6.95 6.8 6.9 5.9 L7.15 4.5 Q6.9 4.9 6.7 5.85 6.5 6.75 6.55 8.15 L6.35 10.45 Q5.65 13.45 4.0 13.5 2.05 13.5 1.75 10.2 L1.8 6.5 1.75 6.5 1.7 8.05 Q1.5 9.05 0.35 9.4 -1.95 8.9 -2.2 5.6 -2.35 3.55 -1.75 0.85 L0.65 -7.4 2.85 -14.1 3.2 -15.85 2.75 -15.85 1.95 -15.75 Q0.85 -15.75 0.85 -16.85 L1.1 -17.95 3.4 -23.3 5.45 -27.5 Q5.55 -27.95 4.9 -28.3 4.1 -28.7 3.9 -29.3 L3.95 -30.05 4.2 -30.85 Q4.5 -32.45 6.85 -38.25 7.1 -39.25 6.45 -41.15 5.75 -43.05 5.95 -43.75 6.3 -45.5 7.15 -46.75 8.25 -48.4 9.5 -47.8 L10.0 -47.05 10.65 -46.6 12.6 -45.15 17.9 -41.7 Q20.9 -38.75 24.9 -37.7 26.2 -37.3 26.5 -36.95 26.9 -36.35 26.55 -34.7 M26.75 -41.85 L26.2 -40.65 Q25.65 -40.0 24.9 -40.0 24.5 -40.0 23.7 -40.85 23.0 -41.6 23.05 -41.8 23.15 -42.35 23.85 -42.85 24.5 -43.4 25.3 -43.55 27.2 -43.9 26.75 -41.85 M14.45 -34.6 Q14.2 -33.5 12.75 -31.5 L12.75 -29.1 12.75 -25.25 12.5 -23.35 12.15 -21.45 11.65 -19.4 Q11.35 -18.05 11.9 -17.5 L13.15 -17.5 14.35 -18.0 Q13.8 -16.25 13.75 -15.3 13.6 -13.65 15.8 -13.1 16.4 -13.4 16.85 -14.6 L17.25 -16.15 17.65 -18.7 18.25 -22.25 Q18.7 -24.25 18.55 -25.25 18.2 -27.05 16.1 -27.85 L17.0 -30.35 Q17.2 -31.7 16.1 -32.7 L14.45 -34.6 M11.45 -40.25 L10.95 -40.05 11.45 -40.25 M42.8 -33.15 Q43.2 -35.1 40.9 -34.65 40.0 -34.45 39.2 -33.95 38.4 -33.4 38.25 -32.85 L37.5 -30.95 36.8 -29.45 Q36.65 -28.75 36.8 -28.4 37.15 -27.65 38.7 -27.65 41.1 -29.35 41.85 -30.45 L42.8 -33.15 M-14.25 -45.9 L-13.85 -44.85 -13.85 -43.55 -14.65 -41.7 -15.45 -40.0 -15.4 -39.85 -14.85 -40.45 -13.65 -40.95 Q-12.6 -40.95 -12.85 -38.95 L-13.3 -36.9 -14.4 -33.15 -13.8 -30.55 -13.2 -27.15 -13.05 -27.6 Q-12.35 -30.7 -11.5 -36.75 L-10.65 -42.7 Q-10.4 -43.85 -9.6 -43.85 L-9.55 -43.85 -9.55 -44.3 -7.55 -46.0 -3.4 -48.65 Q2.45 -52.0 1.95 -49.85 1.75 -48.8 1.35 -48.25 L-0.7 -46.15 -0.7 -46.0 1.0 -46.65 2.35 -47.25 3.65 -47.25 Q4.05 -46.75 3.9 -45.8 3.7 -44.95 3.3 -44.6 L1.85 -42.8 0.95 -41.4 Q0.4 -40.55 0.2 -39.95 L-1.35 -34.2 -1.85 -32.7 -2.55 -30.85 -3.5 -27.6 -5.35 -21.25 -6.75 -14.85 -6.9 -14.05 -9.75 -3.65 -11.8 5.6 -12.5 7.35 Q-13.05 8.55 -14.2 9.1 -16.0 8.7 -15.85 7.55 -15.35 6.2 -15.45 5.65 L-16.55 9.5 Q-17.25 12.0 -18.7 13.3 L-19.55 13.3 Q-20.85 12.55 -20.45 10.9 L-19.65 8.45 -18.9 5.6 -18.35 3.5 Q-18.1 2.55 -18.9 2.15 -19.7 1.75 -19.45 0.65 L-18.8 -1.2 -18.25 -2.65 -18.35 -3.1 -18.6 -3.8 -19.4 -3.8 Q-20.1 -4.25 -19.9 -4.95 L-19.4 -6.15 -18.8 -8.4 Q-18.55 -9.65 -19.0 -11.7 L-19.95 -14.75 -20.45 -17.85 Q-20.5 -19.0 -20.85 -19.95 L-21.0 -18.85 -21.5 -17.25 -21.85 -16.0 -23.05 -8.25 Q-23.5 -6.2 -24.75 -2.5 L-26.6 3.0 Q-27.2 4.85 -27.8 8.5 -28.65 11.75 -31.15 14.0 -33.2 13.95 -33.5 11.3 L-33.35 7.85 -33.85 8.2 -34.55 8.4 Q-35.95 8.4 -35.85 7.0 L-35.4 5.0 -34.4 1.45 -33.9 -0.3 Q-33.55 -1.4 -33.65 -2.05 -33.7 -2.65 -34.55 -2.95 -35.45 -3.25 -35.5 -3.6 L-35.45 -4.4 -35.2 -5.3 Q-34.6 -8.0 -31.6 -13.9 -28.5 -19.9 -27.95 -22.3 L-27.7 -23.25 -27.8 -23.25 -29.4 -19.0 Q-30.7 -15.85 -32.2 -15.8 -34.0 -15.8 -33.65 -17.6 L-32.85 -19.65 Q-32.45 -20.6 -32.3 -21.85 L-32.15 -23.6 -29.9 -32.65 -29.25 -34.85 -28.55 -37.1 -27.7 -39.35 -27.45 -40.25 -27.45 -40.6 Q-27.2 -41.75 -22.0 -44.0 -16.6 -46.4 -14.25 -45.9 M-51.8 -32.65 Q-53.35 -32.85 -55.75 -29.4 -57.8 -26.45 -58.1 -24.85 L-58.35 -23.95 Q-58.2 -22.95 -56.55 -23.0 -55.85 -23.0 -53.65 -25.3 -51.3 -27.8 -50.95 -29.45 -50.7 -30.45 -50.8 -30.75 -50.9 -31.6 -52.15 -31.9 L-51.85 -32.3 -51.8 -32.65 M22.85 -12.85 L23.05 -13.95 22.6 -15.05 Q22.3 -15.75 20.95 -15.85 19.6 -15.9 19.45 -15.2 L18.85 -12.45 Q18.7 -11.8 19.55 -11.0 20.35 -10.15 21.05 -10.15 21.75 -10.15 22.3 -11.4 L22.85 -12.85 M-10.65 -14.9 Q-10.4 -15.9 -11.95 -16.65 -13.5 -17.35 -14.0 -16.15 -14.75 -14.2 -15.1 -12.45 L-15.15 -11.9 -15.15 -11.5 -14.85 -11.0 -14.3 -10.45 -13.45 -10.45 Q-12.5 -10.95 -11.5 -12.8 -10.8 -14.2 -10.65 -14.9 M-68.15 -14.55 Q-69.15 -9.9 -70.85 -5.35 -72.7 -0.45 -74.65 2.45 L-77.35 6.65 -80.15 10.8 Q-80.7 11.65 -81.55 15.0 -82.2 17.6 -84.25 18.95 L-86.2 18.55 -86.65 18.1 -87.0 17.4 -88.4 24.0 Q-89.7 29.05 -91.7 29.05 -94.8 29.1 -93.05 21.3 -92.2 17.3 -91.95 13.65 L-93.05 18.3 Q-93.85 21.25 -95.85 22.85 L-97.7 22.85 Q-99.7 21.85 -99.1 19.2 -98.35 15.85 -98.6 15.3 L-101.0 11.1 Q-102.4 8.85 -102.35 7.5 L-101.55 0.7 Q-100.75 -5.7 -100.2 -8.1 L-98.7 -13.6 -96.6 -19.35 Q-96.85 -21.8 -94.1 -25.15 -91.85 -27.8 -88.15 -30.45 -84.65 -33.0 -80.15 -33.0 -75.8 -33.0 -73.45 -30.65 -71.1 -29.75 -69.7 -28.25 -68.5 -26.95 -68.15 -25.5 -67.9 -24.05 -67.85 -20.35 -67.75 -16.2 -68.15 -14.55 M-60.4 17.45 Q-61.15 17.85 -61.95 17.85 -63.95 17.9 -66.0 16.4 -67.7 15.1 -68.1 13.95 L-69.9 9.35 Q-70.55 7.4 -70.65 4.95 -70.75 2.5 -70.3 0.35 -67.85 -10.55 -63.4 -21.35 -59.65 -30.25 -56.1 -34.15 L-55.3 -35.3 Q-54.2 -36.8 -52.4 -37.65 L-50.2 -38.95 -48.55 -40.0 Q-46.7 -40.75 -42.45 -39.9 -39.0 -38.05 -37.8 -35.15 -37.1 -33.5 -36.25 -30.3 -35.65 -28.8 -34.95 -21.95 -34.2 -14.3 -34.9 -11.2 L-35.75 -7.6 Q-35.55 -7.2 -35.65 -6.15 -35.8 -5.5 -36.3 -5.1 -36.7 -4.8 -37.25 -4.8 -38.35 -4.75 -38.55 -6.2 L-38.5 -8.15 -38.55 -8.3 Q-39.2 -8.35 -39.55 -7.55 L-39.8 -6.6 Q-40.25 -4.6 -39.7 -2.55 -39.15 -0.55 -39.4 0.6 L-39.6 1.4 -40.25 1.9 Q-41.85 4.75 -44.2 7.4 -46.9 10.4 -48.5 11.7 -50.4 13.25 -51.9 13.25 -54.35 13.3 -54.05 10.85 L-53.65 9.1 -53.25 8.15 -52.95 6.2 Q-52.95 4.95 -53.95 4.05 -55.05 5.15 -55.65 8.0 -56.2 10.7 -57.85 12.0 L-58.9 12.05 Q-59.65 11.7 -59.8 10.8 L-59.95 9.55 -60.45 10.0 -61.05 10.8 Q-61.2 11.65 -59.75 13.05 -58.25 14.45 -58.5 15.45 -58.65 16.15 -59.35 16.7 L-60.05 17.2 -60.4 17.45 M-50.6 -26.7 Q-51.25 -26.55 -51.65 -26.1 L-52.2 -24.55 -52.1 -23.9 -51.5 -25.15 -50.6 -26.7 M-49.05 -19.7 L-49.25 -18.95 -49.45 -17.95 -49.3 -17.95 -48.4 -17.85 Q-47.95 -17.7 -47.6 -16.65 -47.25 -15.75 -47.25 -15.2 -47.25 -14.75 -47.55 -14.35 -47.85 -13.95 -48.35 -13.75 L-49.3 -13.2 -48.8 -12.1 -47.85 -12.05 -46.8 -13.25 -45.85 -14.85 Q-45.55 -16.2 -45.9 -17.4 -46.5 -19.5 -49.05 -19.7 M-120.45 -21.85 L-120.35 -21.35 Q-120.05 -22.05 -118.65 -22.65 -116.25 -23.65 -115.35 -24.3 L-110.15 -27.7 Q-105.4 -30.95 -103.05 -31.05 -100.9 -31.15 -101.45 -28.65 -102.6 -23.45 -105.05 -19.55 L-106.8 -16.85 Q-107.65 -15.35 -107.95 -13.9 L-107.5 -11.6 Q-107.1 -9.35 -107.5 -7.5 -107.6 -6.55 -107.85 -5.9 -108.3 -4.75 -109.45 -4.75 L-111.1 -5.35 -110.4 -3.95 -109.9 -2.45 -109.9 -1.05 -110.15 0.4 -111.3 6.0 Q-111.9 8.65 -113.1 12.05 L-114.35 15.25 -113.25 14.95 -112.85 14.6 -111.9 14.6 -110.9 14.3 -109.9 14.05 Q-108.65 14.05 -108.75 15.15 L-109.05 16.7 -108.1 15.1 -107.8 14.1 Q-107.4 13.6 -106.0 13.55 L-106.0 13.45 -103.4 13.15 -102.25 13.2 -102.0 13.05 Q-101.35 12.85 -101.1 13.75 L-101.0 14.85 -100.95 15.1 -100.95 15.15 -100.95 16.0 Q-100.9 16.9 -101.15 18.55 L-101.3 19.65 -101.3 20.6 Q-101.25 24.6 -101.6 26.15 L-102.2 28.4 Q-103.05 30.1 -104.45 29.05 L-104.55 29.2 -106.7 38.75 -107.1 39.85 -108.3 40.65 -109.55 40.7 Q-110.9 39.4 -110.4 37.4 -109.6 35.15 -109.55 34.0 L-109.05 30.7 -108.45 27.3 -109.35 28.25 -110.3 29.35 -111.25 31.45 -112.05 33.65 Q-113.0 35.3 -114.35 35.3 -115.3 35.35 -116.0 34.5 -116.6 33.8 -116.55 33.35 L-116.35 32.3 -116.1 31.25 -115.6 29.25 Q-115.3 27.9 -115.6 27.2 L-116.3 27.9 Q-116.8 28.35 -117.5 28.6 -119.45 29.05 -119.5 27.35 -119.2 25.25 -119.45 24.75 -120.65 25.55 -121.4 27.2 L-122.5 30.35 Q-123.05 32.25 -123.55 33.05 -124.25 34.15 -125.5 34.2 -126.75 32.85 -126.6 30.8 L-125.9 27.2 -126.05 26.95 -127.75 30.9 Q-128.8 33.3 -130.5 34.8 -132.15 35.35 -132.2 33.55 L-131.8 31.3 -130.3 26.25 -128.8 21.45 Q-128.55 20.35 -128.8 19.15 L-128.85 17.1 Q-128.45 15.25 -127.1 12.95 -125.35 10.1 -124.55 8.15 L-124.15 6.2 Q-124.75 6.65 -125.75 6.75 -126.75 6.75 -126.75 5.65 L-126.55 4.25 -125.65 1.55 Q-124.9 -0.35 -124.7 -1.3 L-124.15 -4.95 -123.2 -10.4 -122.6 -12.65 -122.1 -14.9 -122.0 -17.05 -121.75 -19.4 -121.3 -20.5 Q-120.85 -21.65 -120.45 -21.85 M-81.3 -6.75 L-81.45 -8.9 -82.2 -6.2 -82.2 -6.15 -81.3 -6.75 M-85.95 -21.05 L-85.65 -22.95 Q-85.85 -24.0 -87.65 -23.7 L-89.15 -22.75 -90.8 -21.15 -92.0 -18.25 -93.1 -15.1 -93.2 -14.1 Q-93.05 -13.55 -91.9 -12.95 L-90.65 -12.95 Q-89.0 -14.25 -87.55 -16.9 -86.4 -19.1 -85.95 -21.05 M-88.2 -12.0 L-86.9 -12.35 -85.45 -13.5 Q-84.3 -14.2 -83.7 -13.85 -83.15 -13.6 -82.9 -13.15 L-82.55 -12.5 -81.95 -12.15 Q-82.35 -13.95 -82.95 -14.45 -85.85 -15.9 -88.2 -12.0 M-89.15 3.5 L-88.8 3.15 -87.75 1.8 -87.6 1.65 Q-88.25 1.55 -89.15 1.05 L-89.95 0.6 -90.35 1.25 -90.7 2.0 -90.6 3.3 -90.5 3.85 -89.8 3.85 -89.15 3.5 M-96.45 0.7 L-96.15 -1.65 -95.55 -3.65 -95.8 -3.4 Q-96.65 -2.2 -96.95 -0.95 -97.15 -0.05 -96.45 0.7 M-54.05 -16.4 L-54.75 -15.2 Q-56.05 -12.5 -56.65 -10.0 L-56.7 -8.1 Q-56.55 -6.25 -55.35 -6.25 L-54.2 -6.7 -52.65 -7.1 -51.5 -7.25 -53.15 -10.1 Q-54.4 -13.7 -54.35 -14.9 L-54.05 -16.4 M-133.3 16.8 Q-131.75 19.1 -131.8 20.3 L-131.7 23.95 Q-131.65 25.65 -132.05 27.3 L-132.35 28.6 Q-132.65 29.5 -133.15 29.95 L-134.25 30.85 Q-134.8 31.45 -134.95 32.2 L-135.45 34.85 Q-136.0 36.75 -137.5 36.8 -138.55 36.8 -138.55 36.25 L-138.25 35.4 -140.5 39.55 Q-141.85 42.05 -143.15 42.1 -144.5 42.1 -144.35 41.2 L-143.75 39.75 Q-144.15 40.05 -144.5 41.1 L-145.05 42.65 -145.8 44.15 Q-146.55 45.25 -147.95 45.3 -149.9 45.3 -150.35 44.35 L-150.65 43.1 Q-151.65 44.1 -152.2 45.6 L-152.9 48.25 Q-153.15 50.1 -153.85 51.35 -154.75 53.05 -156.2 53.05 -158.0 53.1 -158.4 50.4 -158.7 48.6 -158.4 47.25 L-157.85 44.35 -157.2 41.5 -156.3 35.75 Q-155.75 32.3 -154.8 29.9 L-155.7 29.9 Q-157.2 29.9 -156.6 26.5 L-155.4 21.45 -154.95 19.25 Q-154.7 18.0 -154.75 17.15 -154.75 16.6 -155.7 16.0 L-156.75 15.3 Q-156.95 14.95 -156.8 14.25 L-156.6 13.2 -155.55 10.05 -154.55 7.1 -153.85 3.0 -153.55 0.85 -153.4 -0.75 Q-153.2 -1.7 -152.8 -1.85 L-152.7 -1.85 Q-152.0 -2.75 -150.2 -3.15 L-143.35 -4.85 -137.35 -4.95 Q-131.05 -4.45 -129.55 -3.4 -128.95 -2.95 -128.8 -2.3 L-128.6 -1.1 Q-128.45 -0.65 -128.65 1.4 L-128.95 3.65 -129.65 6.7 Q-130.2 8.55 -131.05 9.75 -132.35 11.6 -134.15 13.3 L-135.55 14.5 Q-134.35 15.15 -133.3 16.8 M-136.15 6.05 L-136.0 5.9 -135.45 4.35 Q-135.2 2.95 -135.55 2.45 -136.05 1.75 -138.75 0.45 -141.05 -0.4 -142.3 1.75 -142.95 2.85 -143.2 4.3 L-143.6 6.5 -144.3 9.6 Q-144.25 10.4 -145.0 12.2 -145.4 13.6 -144.35 14.6 L-142.7 9.45 -141.0 4.65 Q-140.55 3.2 -139.1 2.25 -137.4 1.0 -136.3 2.65 -135.95 3.6 -136.05 4.95 L-136.15 6.05 M-147.7 15.75 Q-149.2 14.9 -150.4 17.95 -150.9 19.1 -151.45 21.8 L-151.3 23.25 Q-151.05 24.6 -150.3 24.55 -149.05 24.55 -147.9 21.4 L-146.85 18.05 Q-146.7 17.4 -146.85 16.75 -147.0 15.85 -147.7 15.75 M-138.5 26.5 L-138.95 27.65 Q-141.1 32.95 -143.9 32.95 -146.35 33.0 -146.55 30.05 L-146.5 27.75 -146.35 26.1 -146.15 22.05 -146.1 21.9 -146.5 22.95 -147.2 26.3 -148.8 33.15 -149.1 34.75 Q-149.15 36.3 -147.8 36.3 -146.95 36.3 -146.35 35.5 L-145.55 34.4 -145.4 34.9 -144.8 35.3 -144.15 35.25 Q-143.05 34.65 -142.05 33.35 L-140.6 31.2 -139.1 28.75 -138.55 26.7 -138.5 26.5 M-118.65 10.65 L-119.15 11.05 Q-119.6 11.4 -120.3 11.4 L-121.55 11.05 -121.7 11.45 -122.8 15.55 -122.9 16.25 -122.1 17.05 -121.3 17.05 Q-119.95 16.15 -119.3 14.95 L-118.65 12.85 -118.4 11.5 Q-118.45 11.0 -118.65 10.65" fill="#b4e608" fill-rule="evenodd" stroke="none"/>
    <path d="M134.3 -16.75 Q131.45 -18.85 128.4 -19.5 L128.3 -17.8 Q128.1 -16.6 126.8 -15.9 123.65 -16.75 123.25 -21.05 122.95 -24.55 124.2 -27.25 L124.15 -27.4 123.55 -26.75 122.45 -26.5 Q121.75 -26.45 121.8 -27.55 L122.05 -28.65 123.1 -32.45 123.1 -32.85 123.3 -34.5 Q123.75 -36.4 125.15 -38.55 126.55 -40.65 128.75 -42.55 L131.75 -44.7 135.5 -46.65 137.7 -47.7 139.5 -48.3 Q140.9 -48.95 142.45 -49.05 L148.55 -49.8 151.6 -50.35 156.55 -50.7 158.3 -50.65 158.35 -50.6 158.35 -50.25 158.2 -50.0 Q158.7 -49.5 158.5 -48.7 L157.05 -45.1 156.95 -43.25 156.75 -41.0 156.35 -39.7 Q156.0 -39.1 154.5 -38.0 154.6 -37.0 155.1 -36.4 155.5 -36.0 155.35 -35.4 L154.75 -33.95 Q154.15 -32.85 153.45 -32.85 L148.8 -32.8 148.05 -33.6 Q147.65 -34.2 146.2 -34.2 L144.45 -33.15 Q142.75 -32.05 142.45 -32.05 141.5 -32.05 141.5 -32.85 L141.65 -33.6 Q141.8 -34.4 142.7 -36.2 L142.05 -35.75 Q139.3 -33.8 138.9 -31.95 138.65 -30.85 139.5 -30.3 L141.4 -29.55 Q142.75 -29.15 143.3 -28.75 L143.65 -28.3 147.0 -25.65 149.35 -23.15 M152.45 -17.35 Q152.4 -14.85 151.45 -10.55 L150.3 -6.9 148.95 -3.3 Q148.35 -1.6 145.35 1.05 142.45 3.6 141.35 3.6 L141.15 3.6 141.0 3.8 Q140.7 4.15 140.35 4.15 137.3 4.2 137.6 2.65 136.95 3.25 135.5 6.2 134.45 8.45 133.15 8.45 L132.55 8.4 131.4 8.25 Q130.35 7.1 130.75 5.25 131.4 3.2 131.45 2.1 L130.9 3.75 Q130.25 5.1 129.1 5.15 128.4 5.15 128.2 4.75 L128.05 4.25 Q127.5 5.5 126.95 8.55 126.15 11.35 124.15 13.1 L123.5 13.1 Q122.65 12.1 122.95 10.7 L123.4 8.35 122.55 8.85 121.95 8.85 Q121.1 8.15 121.3 7.0 L121.85 5.1 122.2 3.35 122.65 1.4 Q121.7 2.35 121.15 4.9 L120.75 6.6 Q120.3 7.7 119.1 7.75 117.7 7.75 117.45 5.35 L117.45 2.4 Q117.45 0.3 118.05 -3.0 118.5 -6.7 118.9 -8.45 L119.15 -11.0 119.45 -13.65 Q119.95 -15.85 120.45 -16.85 L120.4 -16.9 120.55 -17.0 121.15 -17.75 121.15 -17.45 Q121.75 -17.75 122.4 -17.45 L123.95 -16.3 125.6 -14.8 126.5 -14.15 M100.5 -14.4 L100.8 -15.3 102.2 -19.85 102.3 -19.9 101.85 -20.7 Q101.2 -21.65 101.4 -22.4 101.6 -23.35 101.9 -23.7 102.55 -24.35 104.55 -24.95 105.25 -25.95 105.4 -26.7 L105.25 -27.25 Q105.05 -27.65 105.15 -28.1 L105.5 -29.55 105.7 -30.85 105.85 -32.25 108.05 -42.15 Q108.05 -42.95 108.4 -44.65 L109.25 -47.9 109.55 -48.55 Q109.85 -49.5 111.15 -49.85 112.7 -50.35 113.55 -48.8 L113.85 -48.6 114.45 -48.6 115.2 -49.35 Q115.8 -49.9 116.75 -49.9 L117.85 -49.8 118.75 -49.6 121.35 -49.45 123.75 -49.25 124.1 -48.75 124.35 -48.5 121.85 -37.3 120.0 -27.55 119.7 -25.05 119.4 -22.6 119.3 -19.9 119.3 -17.85 118.0 -13.45 117.55 -12.85 116.85 -12.65 Q116.2 -12.65 116.2 -13.1 L116.25 -13.75 114.1 -8.15 Q112.5 -4.35 111.85 -2.4 L109.8 3.25 108.8 5.95 Q108.1 7.7 106.95 8.6 L105.45 8.6 104.95 8.2 105.0 7.7 105.45 6.6 105.95 5.3 Q103.25 9.05 102.2 10.0 100.9 11.2 99.15 11.25 97.55 11.25 97.4 10.65 L97.55 9.95 Q97.7 9.35 98.6 8.4 99.5 7.45 99.75 6.45 L99.9 5.65 Q99.9 5.1 99.55 4.75 98.55 5.05 97.45 6.75 96.55 8.15 96.4 8.85 L96.35 9.5 96.0 10.75 Q95.15 12.5 92.75 12.5 89.9 12.55 87.55 10.65 85.75 9.25 85.5 8.35 L85.05 6.05 84.6 3.9 Q84.25 3.0 84.35 1.65 L84.7 -0.7 85.25 -3.25 85.65 -5.1 Q85.9 -6.2 85.6 -6.6 L84.7 -7.0 Q83.35 -7.45 83.75 -9.85 L84.75 -15.15 85.95 -20.05 88.5 -25.5 88.25 -25.8 Q87.3 -24.85 86.05 -24.8 85.35 -24.8 85.45 -25.75 L85.65 -26.75 Q86.1 -28.8 87.3 -32.1 L89.05 -37.35 90.8 -42.7 Q91.5 -45.0 92.4 -46.75 L92.4 -46.9 92.4 -47.35 94.55 -48.95 Q96.55 -50.2 97.65 -50.65 99.1 -51.2 101.05 -52.3 L105.1 -52.6 Q105.55 -52.5 105.65 -52.2 L105.55 -51.7 104.9 -50.85 103.5 -49.65 103.65 -49.45 104.55 -49.35 105.0 -48.7 104.95 -48.1 103.8 -45.4 102.6 -42.55 101.1 -37.25 Q100.8 -35.95 100.75 -34.1 L100.2 -30.0 98.3 -23.95 96.75 -19.2 Q96.55 -18.35 96.95 -17.15 97.4 -15.85 97.25 -14.9 97.05 -12.8 97.5 -11.0 M64.9 -9.75 L65.6 -12.1 66.65 -15.15 67.6 -17.9 67.6 -18.15 69.65 -27.4 Q70.05 -29.1 69.4 -35.3 68.75 -41.55 68.95 -42.35 69.2 -43.55 69.6 -43.8 L73.0 -45.25 75.85 -46.85 79.0 -48.7 81.7 -50.5 Q83.55 -51.8 84.75 -52.25 88.05 -53.6 89.95 -52.65 91.5 -51.85 91.25 -50.7 L89.7 -45.3 Q89.05 -43.15 88.3 -42.0 87.2 -40.3 85.8 -40.3 84.65 -40.3 84.8 -41.1 L85.25 -42.3 85.1 -42.55 83.4 -36.5 81.8 -30.35 79.55 -22.1 78.45 -17.95 77.75 -15.65 77.15 -13.9 77.6 -12.55 Q78.05 -11.25 77.85 -10.35 L77.35 -8.35 76.75 -7.7 75.8 -6.75 Q75.35 -6.15 75.05 -4.95 L74.65 -3.2 73.55 0.5 72.85 2.4 72.35 3.9 70.75 7.85 69.75 9.75 Q68.95 10.85 67.5 11.55 66.25 11.5 66.0 11.0 L65.8 10.35 65.35 11.8 Q64.85 12.65 63.2 12.8 62.0 12.6 62.15 10.25 62.2 9.25 62.7 7.0 63.25 4.65 63.95 3.5 L65.25 1.75 66.55 0.1 65.8 -0.05 Q65.25 0.25 64.4 2.2 63.6 3.85 62.45 3.85 L61.6 3.8 Q61.0 3.7 61.05 2.8 L61.25 1.5 Q61.4 0.8 62.05 -0.25 L62.9 -2.35 63.35 -4.4 63.5 -5.25 M61.7 -6.25 L61.6 -4.9 61.5 -2.85 Q61.3 -2.05 59.85 -1.35 58.4 -0.6 58.1 0.7 L57.6 3.9 57.0 6.05 54.85 8.4 54.0 8.4 Q52.6 7.4 52.8 5.85 53.3 4.1 53.25 3.2 53.1 1.2 53.4 -1.85 53.6 -3.8 52.55 -7.6 51.6 -11.1 51.8 -12.0 L50.1 -12.25 Q49.5 -12.9 49.6 -13.25 L50.35 -14.65 51.2 -16.6 Q51.4 -17.6 50.8 -18.7 L50.4 -19.4 48.25 -18.1 44.8 -16.65 44.7 -16.1 44.7 -14.2 44.5 -12.35 44.05 -10.65 Q43.65 -9.95 42.65 -9.15 42.25 -9.25 42.15 -9.45 41.4 -8.9 40.85 -8.8 L41.4 -6.75 Q41.6 -5.6 41.4 -4.85 L41.15 -2.65 41.0 -1.0 39.9 3.1 Q38.55 7.05 37.1 7.1 35.85 7.1 35.9 5.65 L36.1 3.3 36.05 3.3 35.45 7.15 Q34.7 10.25 33.25 10.25 31.55 10.25 31.7 7.4 32.25 3.9 32.2 2.65 32.2 1.8 32.85 -1.0 33.4 -3.4 33.15 -4.85 L32.7 -1.45 Q32.05 0.85 30.25 0.9 L29.05 0.65 Q28.6 -0.6 28.65 -2.25 L28.8 -5.1 28.8 -8.3 29.25 -10.65 31.0 -16.6 32.6 -21.95 Q33.2 -24.6 32.95 -26.15 32.6 -28.45 32.85 -31.55 33.1 -34.55 34.45 -41.0 L34.8 -42.35 Q34.65 -42.65 34.65 -43.05 L34.8 -43.95 Q35.3 -46.25 38.0 -46.4 L41.95 -46.15 Q42.95 -46.15 45.6 -48.6 48.05 -50.85 49.05 -50.35 49.8 -49.95 49.95 -49.2 L50.2 -48.1 52.05 -49.3 Q53.45 -49.9 56.25 -49.95 60.8 -50.0 63.6 -46.75 L65.05 -44.4 65.1 -44.2 66.05 -43.1 Q67.8 -40.6 67.75 -38.45 68.35 -36.2 67.8 -33.95 L67.45 -33.0 Q67.0 -32.4 66.1 -32.4 65.85 -32.4 65.3 -32.7 L64.6 -33.2 64.55 -31.2 64.3 -29.65 63.9 -28.2 63.75 -27.85 63.75 -27.6 62.0 -25.9 59.85 -24.2 61.5 -22.2 Q64.9 -18.5 64.7 -17.55 L64.4 -16.55 64.65 -15.75 64.45 -14.75 63.25 -11.3 M110.5 -24.5 L109.45 -24.5 109.0 -24.9 108.9 -25.25 Q109.1 -26.15 109.9 -27.05 L111.85 -29.4 Q113.3 -31.6 114.45 -31.15 115.45 -30.75 115.15 -29.3 114.95 -28.45 113.6 -26.65 112.65 -25.25 111.95 -24.8 M54.75 -31.85 Q56.0 -32.3 56.35 -32.7 L57.0 -34.55 Q57.4 -36.4 56.3 -38.3 M44.65 -33.25 L44.7 -33.55 45.15 -35.15 45.35 -36.55 45.6 -36.95 46.0 -38.05 46.25 -39.3 46.1 -39.9 46.05 -40.65 Q46.35 -41.5 49.45 -41.7 50.25 -41.15 49.95 -40.0 L49.5 -38.1 50.25 -39.55 Q50.95 -40.75 52.0 -40.75 L53.65 -40.55 M58.7 -17.6 L58.05 -16.85 57.45 -16.65 Q56.9 -16.65 56.9 -17.2 L57.0 -17.85 Q57.2 -18.9 58.05 -18.7 58.9 -18.45 58.7 -17.6 M59.8 -14.95 L59.75 -15.45 Q59.45 -16.05 57.9 -15.9 L57.75 -15.75 57.7 -15.6 M26.55 -34.7 L25.6 -33.35 25.0 -32.75 Q25.95 -32.8 25.45 -29.75 L24.65 -25.3 Q24.55 -23.95 25.4 -21.65 L26.75 -18.0 27.65 -14.35 Q27.9 -12.2 27.5 -10.55 L27.2 -7.15 26.85 -3.2 Q26.25 -0.45 25.35 0.15 L24.7 0.15 Q24.05 -0.25 23.85 -0.95 L23.65 -2.1 21.85 3.5 Q20.55 6.9 18.75 8.85 15.15 8.35 16.05 4.0 17.75 -1.0 17.55 -2.4 15.7 -2.35 15.4 -3.0 L15.45 -3.9 Q15.6 -4.8 16.6 -5.9 L17.6 -6.95 Q17.7 -7.35 16.35 -8.0 L14.8 -8.6 14.05 -8.6 Q13.0 -7.1 12.3 -4.75 L11.35 -0.65 10.5 3.95 Q9.8 6.75 8.2 6.8 6.95 6.8 6.9 5.9 L7.15 4.5 Q6.9 4.9 6.7 5.85 6.5 6.75 6.55 8.15 L6.35 10.45 Q5.65 13.45 4.0 13.5 2.05 13.5 1.75 10.2 L1.8 6.5 1.75 6.5 1.7 8.05 Q1.5 9.05 0.35 9.4 -1.95 8.9 -2.2 5.6 -2.35 3.55 -1.75 0.85 L0.65 -7.4 2.85 -14.1 3.2 -15.85 2.75 -15.85 1.95 -15.75 Q0.85 -15.75 0.85 -16.85 L1.1 -17.95 3.4 -23.3 5.45 -27.5 Q5.55 -27.95 4.9 -28.3 4.1 -28.7 3.9 -29.3 L3.95 -30.05 4.2 -30.85 Q4.5 -32.45 6.85 -38.25 7.1 -39.25 6.45 -41.15 5.75 -43.05 5.95 -43.75 6.3 -45.5 7.15 -46.75 8.25 -48.4 9.5 -47.8 L10.0 -47.05 10.65 -46.6 12.6 -45.15 17.9 -41.7 Q20.9 -38.75 24.9 -37.7 26.2 -37.3 26.5 -36.95 26.9 -36.35 26.55 -34.7 M12.75 -31.5 L12.75 -29.1 12.75 -25.25 12.5 -23.35 12.15 -21.45 11.65 -19.4 Q11.35 -18.05 11.9 -17.5 L13.15 -17.5 14.35 -18.0 Q13.8 -16.25 13.75 -15.3 13.6 -13.65 15.8 -13.1 16.4 -13.4 16.85 -14.6 L17.25 -16.15 17.65 -18.7 18.25 -22.25 Q18.7 -24.25 18.55 -25.25 18.2 -27.05 16.1 -27.85 L17.0 -30.35 Q17.2 -31.7 16.1 -32.7 L14.45 -34.6 M10.95 -40.05 L11.45 -40.25 M42.8 -33.15 L41.85 -30.45 Q41.1 -29.35 38.7 -27.65 37.15 -27.65 36.8 -28.4 36.65 -28.75 36.8 -29.45 L37.5 -30.95 38.25 -32.85 Q38.4 -33.4 39.2 -33.95 40.0 -34.45 40.9 -34.65 43.2 -35.1 42.8 -33.15 M-14.25 -45.9 L-13.85 -44.85 -13.85 -43.55 -14.65 -41.7 -15.45 -40.0 -15.4 -39.85 -14.85 -40.45 -13.65 -40.95 Q-12.6 -40.95 -12.85 -38.95 L-13.3 -36.9 -14.4 -33.15 -13.8 -30.55 -13.2 -27.15 -13.05 -27.6 Q-12.35 -30.7 -11.5 -36.75 L-10.65 -42.7 Q-10.4 -43.85 -9.6 -43.85 L-9.55 -43.85 -9.55 -44.3 -7.55 -46.0 -3.4 -48.65 Q2.45 -52.0 1.95 -49.85 1.75 -48.8 1.35 -48.25 L-0.7 -46.15 -0.7 -46.0 1.0 -46.65 2.35 -47.25 3.65 -47.25 Q4.05 -46.75 3.9 -45.8 3.7 -44.95 3.3 -44.6 L1.85 -42.8 0.95 -41.4 Q0.4 -40.55 0.2 -39.95 L-1.35 -34.2 -1.85 -32.7 -2.55 -30.85 -3.5 -27.6 -5.35 -21.25 -6.75 -14.85 -6.9 -14.05 -9.75 -3.65 -11.8 5.6 -12.5 7.35 Q-13.05 8.55 -14.2 9.1 -16.0 8.7 -15.85 7.55 -15.35 6.2 -15.45 5.65 L-16.55 9.5 Q-17.25 12.0 -18.7 13.3 L-19.55 13.3 Q-20.85 12.55 -20.45 10.9 L-19.65 8.45 -18.9 5.6 -18.35 3.5 Q-18.1 2.55 -18.9 2.15 -19.7 1.75 -19.45 0.65 L-18.8 -1.2 -18.25 -2.65 -18.35 -3.1 -18.6 -3.8 -19.4 -3.8 Q-20.1 -4.25 -19.9 -4.95 L-19.4 -6.15 -18.8 -8.4 Q-18.55 -9.65 -19.0 -11.7 L-19.95 -14.75 -20.45 -17.85 Q-20.5 -19.0 -20.85 -19.95 L-21.0 -18.85 -21.5 -17.25 -21.85 -16.0 -23.05 -8.25 Q-23.5 -6.2 -24.75 -2.5 L-26.6 3.0 Q-27.2 4.85 -27.8 8.5 -28.65 11.75 -31.15 14.0 -33.2 13.95 -33.5 11.3 L-33.35 7.85 -33.85 8.2 -34.55 8.4 Q-35.95 8.4 -35.85 7.0 L-35.4 5.0 -34.4 1.45 -33.9 -0.3 Q-33.55 -1.4 -33.65 -2.05 -33.7 -2.65 -34.55 -2.95 -35.45 -3.25 -35.5 -3.6 L-35.45 -4.4 -35.2 -5.3 Q-34.6 -8.0 -31.6 -13.9 -28.5 -19.9 -27.95 -22.3 L-27.7 -23.25 -27.8 -23.25 -29.4 -19.0 Q-30.7 -15.85 -32.2 -15.8 -34.0 -15.8 -33.65 -17.6 L-32.85 -19.65 Q-32.45 -20.6 -32.3 -21.85 L-32.15 -23.6 -29.9 -32.65 -29.25 -34.85 -28.55 -37.1 -27.7 -39.35 -27.45 -40.25 -27.45 -40.6 Q-27.2 -41.75 -22.0 -44.0 -16.6 -46.4 -14.25 -45.9 M-10.65 -14.9 Q-10.8 -14.2 -11.5 -12.8 -12.5 -10.95 -13.45 -10.45 L-14.3 -10.45 -14.85 -11.0 -15.15 -11.5 -15.15 -11.9 -15.1 -12.45 Q-14.75 -14.2 -14.0 -16.15 -13.5 -17.35 -11.95 -16.65 -10.4 -15.9 -10.65 -14.9 M22.85 -12.85 L22.3 -11.4 Q21.75 -10.15 21.05 -10.15 20.35 -10.15 19.55 -11.0 18.7 -11.8 18.85 -12.45 L19.45 -15.2 Q19.6 -15.9 20.95 -15.85 22.3 -15.75 22.6 -15.05 L23.05 -13.95 22.85 -12.85 M-51.8 -32.65 L-51.85 -32.3 -52.15 -31.9 Q-50.9 -31.6 -50.8 -30.75 -50.7 -30.45 -50.95 -29.45 -51.3 -27.8 -53.65 -25.3 -55.85 -23.0 -56.55 -23.0 -58.2 -22.95 -58.35 -23.95 L-58.1 -24.85 Q-57.8 -26.45 -55.75 -29.4 -53.35 -32.85 -51.8 -32.65 M-68.15 -14.55 Q-69.15 -9.9 -70.85 -5.35 -72.7 -0.45 -74.65 2.45 L-77.35 6.65 -80.15 10.8 Q-80.7 11.65 -81.55 15.0 -82.2 17.6 -84.25 18.95 L-86.2 18.55 -86.65 18.1 -87.0 17.4 -88.4 24.0 Q-89.7 29.05 -91.7 29.05 -94.8 29.1 -93.05 21.3 -92.2 17.3 -91.95 13.65 L-93.05 18.3 Q-93.85 21.25 -95.85 22.85 L-97.7 22.85 Q-99.7 21.85 -99.1 19.2 -98.35 15.85 -98.6 15.3 L-101.0 11.1 Q-102.4 8.85 -102.35 7.5 L-101.55 0.7 Q-100.75 -5.7 -100.2 -8.1 L-98.7 -13.6 -96.6 -19.35 Q-96.85 -21.8 -94.1 -25.15 -91.85 -27.8 -88.15 -30.45 -84.65 -33.0 -80.15 -33.0 -75.8 -33.0 -73.45 -30.65 -71.1 -29.75 -69.7 -28.25 -68.5 -26.95 -68.15 -25.5 -67.9 -24.05 -67.85 -20.35 -67.75 -16.2 -68.15 -14.55 M-60.4 17.45 Q-61.15 17.85 -61.95 17.85 -63.95 17.9 -66.0 16.4 -67.7 15.1 -68.1 13.95 L-69.9 9.35 Q-70.55 7.4 -70.65 4.95 -70.75 2.5 -70.3 0.35 -67.85 -10.55 -63.4 -21.35 -59.65 -30.25 -56.1 -34.15 L-55.3 -35.3 Q-54.2 -36.8 -52.4 -37.65 L-50.2 -38.95 -48.55 -40.0 Q-46.7 -40.75 -42.45 -39.9 -39.0 -38.05 -37.8 -35.15 -37.1 -33.5 -36.25 -30.3 -35.65 -28.8 -34.95 -21.95 -34.2 -14.3 -34.9 -11.2 L-35.75 -7.6 Q-35.55 -7.2 -35.65 -6.15 -35.8 -5.5 -36.3 -5.1 -36.7 -4.8 -37.25 -4.8 -38.35 -4.75 -38.55 -6.2 L-38.5 -8.15 -38.55 -8.3 Q-39.2 -8.35 -39.55 -7.55 L-39.8 -6.6 Q-40.25 -4.6 -39.7 -2.55 -39.15 -0.55 -39.4 0.6 L-39.6 1.4 -40.25 1.9 Q-41.85 4.75 -44.2 7.4 -46.9 10.4 -48.5 11.7 -50.4 13.25 -51.9 13.25 -54.35 13.3 -54.05 10.85 L-53.65 9.1 -53.25 8.15 -52.95 6.2 Q-52.95 4.95 -53.95 4.05 -55.05 5.15 -55.65 8.0 -56.2 10.7 -57.85 12.0 L-58.9 12.05 Q-59.65 11.7 -59.8 10.8 L-59.95 9.55 -60.45 10.0 -61.05 10.8 Q-61.2 11.65 -59.75 13.05 -58.25 14.45 -58.5 15.45 -58.65 16.15 -59.35 16.7 L-60.05 17.2 -60.4 17.45 M-52.1 -23.9 L-52.2 -24.55 -51.65 -26.1 Q-51.25 -26.55 -50.6 -26.7 M-48.8 -12.1 L-47.85 -12.05 -46.8 -13.25 -45.85 -14.85 Q-45.55 -16.2 -45.9 -17.4 -46.5 -19.5 -49.05 -19.7 M-120.45 -21.85 L-120.35 -21.35 Q-120.05 -22.05 -118.65 -22.65 -116.25 -23.65 -115.35 -24.3 L-110.15 -27.7 Q-105.4 -30.95 -103.05 -31.05 -100.9 -31.15 -101.45 -28.65 -102.6 -23.45 -105.05 -19.55 L-106.8 -16.85 Q-107.65 -15.35 -107.95 -13.9 L-107.5 -11.6 Q-107.1 -9.35 -107.5 -7.5 -107.6 -6.55 -107.85 -5.9 -108.3 -4.75 -109.45 -4.75 L-111.1 -5.35 -110.4 -3.95 -109.9 -2.45 -109.9 -1.05 -110.15 0.4 -111.3 6.0 Q-111.9 8.65 -113.1 12.05 L-114.35 15.25 -113.25 14.95 -112.85 14.6 -111.9 14.6 -110.9 14.3 -109.9 14.05 Q-108.65 14.05 -108.75 15.15 L-109.05 16.7 -108.1 15.1 -107.8 14.1 Q-107.4 13.6 -106.0 13.55 L-106.0 13.45 -103.4 13.15 -102.25 13.2 -102.0 13.05 Q-101.35 12.85 -101.1 13.75 L-101.0 14.85 -100.95 15.1 -100.95 15.15 -100.95 16.0 Q-100.9 16.9 -101.15 18.55 L-101.3 19.65 -101.3 20.6 Q-101.25 24.6 -101.6 26.15 L-102.2 28.4 Q-103.05 30.1 -104.45 29.05 L-104.55 29.2 -106.7 38.75 -107.1 39.85 -108.3 40.65 -109.55 40.7 Q-110.9 39.4 -110.4 37.4 -109.6 35.15 -109.55 34.0 L-109.05 30.7 -108.45 27.3 -109.35 28.25 -110.3 29.35 -111.25 31.45 -112.05 33.65 Q-113.0 35.3 -114.35 35.3 -115.3 35.35 -116.0 34.5 -116.6 33.8 -116.55 33.35 L-116.35 32.3 -116.1 31.25 -115.6 29.25 Q-115.3 27.9 -115.6 27.2 L-116.3 27.9 Q-116.8 28.35 -117.5 28.6 -119.45 29.05 -119.5 27.35 -119.2 25.25 -119.45 24.75 -120.65 25.55 -121.4 27.2 L-122.5 30.35 Q-123.05 32.25 -123.55 33.05 -124.25 34.15 -125.5 34.2 -126.75 32.85 -126.6 30.8 L-125.9 27.2 -126.05 26.95 -127.75 30.9 Q-128.8 33.3 -130.5 34.8 -132.15 35.35 -132.2 33.55 L-131.8 31.3 -130.3 26.25 -128.8 21.45 Q-128.55 20.35 -128.8 19.15 L-128.85 17.1 Q-128.45 15.25 -127.1 12.95 -125.35 10.1 -124.55 8.15 L-124.15 6.2 Q-124.75 6.65 -125.75 6.75 -126.75 6.75 -126.75 5.65 L-126.55 4.25 -125.65 1.55 Q-124.9 -0.35 -124.7 -1.3 L-124.15 -4.95 -123.2 -10.4 -122.6 -12.65 -122.1 -14.9 -122.0 -17.05 -121.75 -19.4 -121.3 -20.5 Q-120.85 -21.65 -120.45 -21.85 M-85.95 -21.05 Q-86.4 -19.1 -87.55 -16.9 -89.0 -14.25 -90.65 -12.95 L-91.9 -12.95 Q-93.05 -13.55 -93.2 -14.1 L-93.1 -15.1 -92.0 -18.25 -90.8 -21.15 -89.15 -22.75 -87.65 -23.7 Q-85.85 -24.0 -85.65 -22.95 L-85.95 -21.05 M-81.45 -8.9 L-81.3 -6.75 M-81.95 -12.15 Q-82.35 -13.95 -82.95 -14.45 -85.85 -15.9 -88.2 -12.0 M-90.5 3.85 L-89.8 3.85 -89.15 3.5 M-95.55 -3.65 L-95.8 -3.4 Q-96.65 -2.2 -96.95 -0.95 -97.15 -0.05 -96.45 0.7 M-51.5 -7.25 L-52.65 -7.1 -54.2 -6.7 -55.35 -6.25 Q-56.55 -6.25 -56.7 -8.1 L-56.65 -10.0 Q-56.05 -12.5 -54.75 -15.2 L-54.05 -16.4 M-133.3 16.8 Q-131.75 19.1 -131.8 20.3 L-131.7 23.95 Q-131.65 25.65 -132.05 27.3 L-132.35 28.6 Q-132.65 29.5 -133.15 29.95 L-134.25 30.85 Q-134.8 31.45 -134.95 32.2 L-135.45 34.85 Q-136.0 36.75 -137.5 36.8 -138.55 36.8 -138.55 36.25 L-138.25 35.4 -140.5 39.55 Q-141.85 42.05 -143.15 42.1 -144.5 42.1 -144.35 41.2 L-143.75 39.75 Q-144.15 40.05 -144.5 41.1 L-145.05 42.65 -145.8 44.15 Q-146.55 45.25 -147.95 45.3 -149.9 45.3 -150.35 44.35 L-150.65 43.1 Q-151.65 44.1 -152.2 45.6 L-152.9 48.25 Q-153.15 50.1 -153.85 51.35 -154.75 53.05 -156.2 53.05 -158.0 53.1 -158.4 50.4 -158.7 48.6 -158.4 47.25 L-157.85 44.35 -157.2 41.5 -156.3 35.75 Q-155.75 32.3 -154.8 29.9 L-155.7 29.9 Q-157.2 29.9 -156.6 26.5 L-155.4 21.45 -154.95 19.25 Q-154.7 18.0 -154.75 17.15 -154.75 16.6 -155.7 16.0 L-156.75 15.3 Q-156.95 14.95 -156.8 14.25 L-156.6 13.2 -155.55 10.05 -154.55 7.1 -153.85 3.0 -153.55 0.85 -153.4 -0.75 Q-153.2 -1.7 -152.8 -1.85 L-152.7 -1.85 Q-152.0 -2.75 -150.2 -3.15 L-143.35 -4.85 -137.35 -4.95 Q-131.05 -4.45 -129.55 -3.4 -128.95 -2.95 -128.8 -2.3 L-128.6 -1.1 Q-128.45 -0.65 -128.65 1.4 L-128.95 3.65 -129.65 6.7 Q-130.2 8.55 -131.05 9.75 -132.35 11.6 -134.15 13.3 L-135.55 14.5 Q-134.35 15.15 -133.3 16.8 M-144.35 14.6 Q-145.4 13.6 -145.0 12.2 -144.25 10.4 -144.3 9.6 L-143.6 6.5 -143.2 4.3 Q-142.95 2.85 -142.3 1.75 -141.05 -0.4 -138.75 0.45 -136.05 1.75 -135.55 2.45 -135.2 2.95 -135.45 4.35 L-136.0 5.9 -136.15 6.05 M-147.7 15.75 Q-147.0 15.85 -146.85 16.75 -146.7 17.4 -146.85 18.05 L-147.9 21.4 Q-149.05 24.55 -150.3 24.55 -151.05 24.6 -151.3 23.25 L-151.45 21.8 Q-150.9 19.1 -150.4 17.95 -149.2 14.9 -147.7 15.75 M-146.1 21.9 L-146.5 22.95 -147.2 26.3 -148.8 33.15 -149.1 34.75 Q-149.15 36.3 -147.8 36.3 -146.95 36.3 -146.35 35.5 L-145.55 34.4 -145.4 34.9 -144.8 35.3 -144.15 35.25 Q-143.05 34.65 -142.05 33.35 L-140.6 31.2 -139.1 28.75 -138.55 26.7 -138.5 26.5 M-121.55 11.05 L-121.7 11.45 -122.8 15.55 -122.9 16.25 -122.1 17.05 -121.3 17.05 Q-119.95 16.15 -119.3 14.95 L-118.65 12.85 -118.4 11.5 Q-118.45 11.0 -118.65 10.65" fill="none" stroke="#b4e608" stroke-linecap="round" stroke-linejoin="round" stroke-width="15.0"/>
    <path d="M183.4 23.05 L181.95 25.9 180.6 28.55 183.1 27.4 185.2 25.45 186.45 23.5 Q186.55 23.2 186.15 22.65 L185.7 22.15 184.15 22.65 Q183.75 22.85 183.5 22.95 L183.4 23.05 M176.55 37.05 L174.9 40.7 Q174.0 42.2 172.75 42.2 171.4 42.2 171.35 41.15 L171.55 40.05 Q171.9 38.9 174.45 33.75 L177.15 28.5 180.75 22.75 Q181.75 21.05 182.7 19.9 183.9 18.45 184.5 19.0 L184.75 19.4 Q187.1 17.5 188.35 18.3 189.25 18.65 189.85 19.45 L190.75 20.95 Q191.2 21.65 191.1 22.3 L190.85 23.5 Q190.15 25.9 186.95 29.1 L184.75 31.0 Q185.65 31.95 186.05 33.5 186.5 35.3 186.0 37.0 L185.15 39.2 Q184.25 40.7 182.9 40.7 181.85 40.7 181.65 39.75 181.45 39.2 181.6 38.65 L181.7 36.4 181.4 34.25 181.25 32.75 178.95 33.05 178.45 33.05 176.55 37.05 M139.8 22.95 Q139.15 25.15 135.3 32.3 L133.55 35.55 134.95 35.3 Q138.0 34.8 139.7 35.35 140.55 35.65 140.9 36.2 L141.9 35.2 141.85 35.1 143.9 30.45 146.1 25.8 147.45 23.55 148.75 21.15 Q149.15 20.0 151.0 18.8 153.2 17.35 154.05 19.2 154.45 20.0 154.2 21.5 L153.8 23.95 153.35 26.2 152.75 28.6 151.55 33.25 151.25 35.55 151.15 36.15 152.95 32.75 155.45 28.35 157.2 24.85 Q155.5 24.75 154.9 23.9 154.45 23.3 154.65 22.55 154.9 21.7 155.65 21.2 156.45 20.7 157.7 20.7 L163.4 20.0 Q165.7 19.85 165.05 22.1 164.65 23.4 162.75 24.15 L161.55 24.5 161.55 24.55 Q161.1 26.0 159.45 28.95 L157.05 33.05 154.6 37.95 Q152.8 41.25 151.3 41.25 150.0 41.25 150.0 39.8 149.0 41.25 148.05 41.25 147.6 41.25 147.5 38.75 L147.45 34.95 146.5 35.05 145.25 34.85 Q144.4 36.25 143.6 36.85 L142.5 38.65 Q141.1 40.6 140.25 40.6 139.4 40.6 139.2 40.0 L138.5 40.05 137.25 39.75 135.8 39.4 Q134.3 39.4 132.15 40.1 L129.35 40.75 128.45 41.1 Q127.15 41.1 126.95 39.95 L127.0 38.8 Q127.15 38.35 129.85 33.75 L133.6 27.2 134.95 24.3 136.55 21.5 Q138.7 18.6 139.55 20.1 140.25 21.35 139.8 22.95 M148.7 28.55 L148.6 28.55 Q148.1 29.15 146.7 32.15 L147.1 32.1 147.75 32.1 148.7 28.55 M173.75 19.15 Q178.05 19.15 179.0 20.55 179.35 21.1 178.95 22.5 L176.75 27.0 174.05 32.5 Q171.8 37.65 169.55 39.8 167.55 41.65 165.05 41.65 162.1 41.65 161.15 39.8 160.5 38.6 160.8 37.4 161.1 36.35 162.15 34.95 L163.35 33.05 163.45 32.1 163.6 31.05 164.2 29.3 Q164.6 28.0 164.45 27.25 164.35 26.45 164.5 25.85 164.95 24.3 167.15 22.1 170.2 19.15 173.75 19.15 M170.85 32.5 Q173.8 28.4 174.3 26.55 L174.55 25.05 174.6 23.65 Q173.2 23.6 171.95 24.2 L170.2 25.25 170.1 25.55 168.45 29.2 Q166.95 32.3 166.45 34.15 166.15 35.15 166.7 35.75 167.15 36.35 167.0 37.0 L166.95 37.2 Q168.15 36.2 170.85 32.5 M125.35 25.55 L124.7 27.5 125.55 27.35 126.65 27.3 127.25 28.05 127.1 28.75 126.4 29.55 Q125.4 30.2 125.2 30.4 L124.55 31.15 Q123.9 31.75 123.15 31.9 L122.4 33.65 Q120.9 36.65 120.5 37.8 L119.5 40.35 Q118.7 41.6 117.45 41.6 116.2 41.6 116.15 40.35 L116.5 38.9 118.45 33.35 119.85 29.45 121.55 24.9 Q121.95 23.9 122.5 23.15 122.3 22.75 122.45 22.1 122.75 21.1 123.85 20.55 125.2 19.9 128.0 19.9 L131.7 20.4 Q133.3 20.5 132.95 21.7 132.7 22.6 129.8 23.5 L126.75 24.25 125.65 24.2 125.35 25.55 M106.95 31.8 L103.9 37.65 Q101.35 41.95 100.0 42.25 L99.1 42.55 Q98.15 42.15 97.9 41.6 97.7 41.25 97.9 40.65 98.0 40.2 98.85 39.6 L99.85 38.25 100.2 37.0 100.5 35.95 102.15 32.95 104.3 29.05 104.95 27.35 Q105.25 26.35 105.65 25.7 L106.3 24.8 106.75 23.9 107.1 23.15 107.4 22.35 108.1 20.55 Q108.55 19.5 109.2 19.0 111.1 17.5 112.55 18.3 113.85 19.0 113.6 20.1 L112.0 26.55 111.7 31.65 111.95 31.15 114.45 26.35 115.9 24.05 116.05 23.8 116.05 23.6 Q116.0 22.65 116.25 21.7 116.65 20.35 117.15 19.9 118.0 19.25 120.85 18.5 L121.25 18.6 Q121.8 19.1 121.8 19.55 L121.7 20.1 119.9 23.75 118.85 25.8 118.75 26.45 116.85 30.0 114.9 33.15 114.3 34.85 113.55 36.55 112.25 38.45 112.25 38.85 Q112.1 39.45 111.55 40.0 110.9 40.65 110.05 40.65 107.1 40.65 106.9 37.35 106.75 36.35 107.0 34.85 L107.2 33.25 107.35 31.05 106.95 31.8 M85.95 27.65 L85.5 28.65 86.85 28.5 Q90.0 28.45 89.45 30.4 89.25 31.05 88.65 31.55 87.95 32.05 87.1 32.05 L84.1 31.65 81.05 37.6 84.15 37.7 85.3 36.55 Q86.1 35.55 86.7 35.3 L87.3 36.05 87.3 36.85 86.4 38.45 86.0 39.25 85.45 40.05 84.35 40.7 82.55 41.05 78.9 41.35 77.6 41.65 Q76.3 41.65 76.2 40.6 L76.3 39.5 79.05 34.65 Q81.8 29.75 82.8 26.85 83.6 24.6 84.65 22.95 86.1 20.7 87.05 21.4 L87.1 21.5 90.0 21.2 Q91.6 21.3 92.65 21.85 93.75 22.5 93.5 23.45 93.25 24.25 92.45 24.9 91.35 25.7 89.9 25.7 87.7 25.7 86.5 25.1 L85.95 27.65 M75.9 18.1 L76.35 18.2 Q76.8 18.5 76.85 18.9 L76.75 19.6 75.55 21.35 74.45 22.65 73.95 24.2 73.5 25.7 72.55 28.8 73.7 28.55 75.85 28.7 76.65 27.3 78.4 23.65 Q79.55 21.1 80.05 20.1 L80.8 19.25 Q81.5 18.65 82.15 18.85 L82.25 19.65 82.05 20.55 81.75 22.65 81.4 24.25 79.45 28.9 77.15 33.65 76.3 35.85 75.05 38.25 73.25 41.15 Q72.05 42.85 71.35 42.85 70.85 42.85 70.85 42.25 L70.85 41.6 73.0 34.45 73.75 32.5 71.15 32.8 71.0 32.8 68.25 37.8 Q67.7 38.6 66.7 41.2 65.6 43.35 64.35 43.35 63.8 43.35 63.75 42.6 L63.7 41.85 Q64.25 39.85 65.85 35.7 L68.05 29.75 69.2 26.75 70.4 23.65 Q70.95 21.8 72.15 20.4 73.65 18.65 75.9 18.1 M104.95 22.8 Q104.5 24.3 102.2 28.0 L99.25 32.75 96.45 38.75 Q94.65 42.2 92.95 42.6 91.85 42.65 91.7 41.35 91.55 40.5 91.75 39.75 92.05 38.75 94.8 33.3 L97.8 27.65 101.1 21.6 Q101.45 20.8 102.35 20.0 103.7 18.85 104.65 19.7 105.2 20.55 105.2 21.25 L104.95 22.8 M68.7 22.15 L67.9 23.65 Q66.95 24.55 65.45 24.35 L64.75 24.2 64.5 25.35 64.1 27.1 62.4 30.7 60.4 34.7 58.35 39.1 Q56.75 42.1 55.7 42.1 54.95 42.1 55.15 40.65 L55.55 39.1 Q55.75 38.3 57.25 34.9 L58.8 31.15 61.0 24.2 60.45 24.35 59.3 24.85 58.2 25.1 Q57.05 25.1 56.9 24.2 L57.05 23.25 Q57.45 21.9 58.4 21.15 59.65 20.2 62.1 20.05 L67.8 20.4 Q69.05 20.9 68.7 22.15" fill="#000000" fill-rule="evenodd" stroke="none"/>
    <path d="M183.4 23.05 L181.95 25.9 180.6 28.55 183.1 27.4 185.2 25.45 186.45 23.5 Q186.55 23.2 186.15 22.65 L185.7 22.15 184.15 22.65 Q183.75 22.85 183.5 22.95 L183.4 23.05 M176.55 37.05 L174.9 40.7 Q174.0 42.2 172.75 42.2 171.4 42.2 171.35 41.15 L171.55 40.05 Q171.9 38.9 174.45 33.75 L177.15 28.5 180.75 22.75 Q181.75 21.05 182.7 19.9 183.9 18.45 184.5 19.0 L184.75 19.4 Q187.1 17.5 188.35 18.3 189.25 18.65 189.85 19.45 L190.75 20.95 Q191.2 21.65 191.1 22.3 L190.85 23.5 Q190.15 25.9 186.95 29.1 L184.75 31.0 Q185.65 31.95 186.05 33.5 186.5 35.3 186.0 37.0 L185.15 39.2 Q184.25 40.7 182.9 40.7 181.85 40.7 181.65 39.75 181.45 39.2 181.6 38.65 L181.7 36.4 181.4 34.25 181.25 32.75 178.95 33.05 178.45 33.05 176.55 37.05 M139.8 22.95 Q139.15 25.15 135.3 32.3 L133.55 35.55 134.95 35.3 Q138.0 34.8 139.7 35.35 140.55 35.65 140.9 36.2 L141.9 35.2 141.85 35.1 143.9 30.45 146.1 25.8 147.45 23.55 148.75 21.15 Q149.15 20.0 151.0 18.8 153.2 17.35 154.05 19.2 154.45 20.0 154.2 21.5 L153.8 23.95 153.35 26.2 152.75 28.6 151.55 33.25 151.25 35.55 151.15 36.15 152.95 32.75 155.45 28.35 157.2 24.85 Q155.5 24.75 154.9 23.9 154.45 23.3 154.65 22.55 154.9 21.7 155.65 21.2 156.45 20.7 157.7 20.7 L163.4 20.0 Q165.7 19.85 165.05 22.1 164.65 23.4 162.75 24.15 L161.55 24.5 161.55 24.55 Q161.1 26.0 159.45 28.95 L157.05 33.05 154.6 37.95 Q152.8 41.25 151.3 41.25 150.0 41.25 150.0 39.8 149.0 41.25 148.05 41.25 147.6 41.25 147.5 38.75 L147.45 34.95 146.5 35.05 145.25 34.85 Q144.4 36.25 143.6 36.85 L142.5 38.65 Q141.1 40.6 140.25 40.6 139.4 40.6 139.2 40.0 L138.5 40.05 137.25 39.75 135.8 39.4 Q134.3 39.4 132.15 40.1 L129.35 40.75 128.45 41.1 Q127.15 41.1 126.95 39.95 L127.0 38.8 Q127.15 38.35 129.85 33.75 L133.6 27.2 134.95 24.3 136.55 21.5 Q138.7 18.6 139.55 20.1 140.25 21.35 139.8 22.95 M148.7 28.55 L148.6 28.55 Q148.1 29.15 146.7 32.15 L147.1 32.1 147.75 32.1 148.7 28.55 M173.75 19.15 Q178.05 19.15 179.0 20.55 179.35 21.1 178.95 22.5 L176.75 27.0 174.05 32.5 Q171.8 37.65 169.55 39.8 167.55 41.65 165.05 41.65 162.1 41.65 161.15 39.8 160.5 38.6 160.8 37.4 161.1 36.35 162.15 34.95 L163.35 33.05 163.45 32.1 163.6 31.05 164.2 29.3 Q164.6 28.0 164.45 27.25 164.35 26.45 164.5 25.85 164.95 24.3 167.15 22.1 170.2 19.15 173.75 19.15 M170.85 32.5 Q173.8 28.4 174.3 26.55 L174.55 25.05 174.6 23.65 Q173.2 23.6 171.95 24.2 L170.2 25.25 170.1 25.55 168.45 29.2 Q166.95 32.3 166.45 34.15 166.15 35.15 166.7 35.75 167.15 36.35 167.0 37.0 L166.95 37.2 Q168.15 36.2 170.85 32.5 M125.35 25.55 L124.7 27.5 125.55 27.35 126.65 27.3 127.25 28.05 127.1 28.75 126.4 29.55 Q125.4 30.2 125.2 30.4 L124.55 31.15 Q123.9 31.75 123.15 31.9 L122.4 33.65 Q120.9 36.65 120.5 37.8 L119.5 40.35 Q118.7 41.6 117.45 41.6 116.2 41.6 116.15 40.35 L116.5 38.9 118.45 33.35 119.85 29.45 121.55 24.9 Q121.95 23.9 122.5 23.15 122.3 22.75 122.45 22.1 122.75 21.1 123.85 20.55 125.2 19.9 128.0 19.9 L131.7 20.4 Q133.3 20.5 132.95 21.7 132.7 22.6 129.8 23.5 L126.75 24.25 125.65 24.2 125.35 25.55 M106.95 31.8 L103.9 37.65 Q101.35 41.95 100.0 42.25 L99.1 42.55 Q98.15 42.15 97.9 41.6 97.7 41.25 97.9 40.65 98.0 40.2 98.85 39.6 L99.85 38.25 100.2 37.0 100.5 35.95 102.15 32.95 104.3 29.05 104.95 27.35 Q105.25 26.35 105.65 25.7 L106.3 24.8 106.75 23.9 107.1 23.15 107.4 22.35 108.1 20.55 Q108.55 19.5 109.2 19.0 111.1 17.5 112.55 18.3 113.85 19.0 113.6 20.1 L112.0 26.55 111.7 31.65 111.95 31.15 114.45 26.35 115.9 24.05 116.05 23.8 116.05 23.6 Q116.0 22.65 116.25 21.7 116.65 20.35 117.15 19.9 118.0 19.25 120.85 18.5 L121.25 18.6 Q121.8 19.1 121.8 19.55 L121.7 20.1 119.9 23.75 118.85 25.8 118.75 26.45 116.85 30.0 114.9 33.15 114.3 34.85 113.55 36.55 112.25 38.45 112.25 38.85 Q112.1 39.45 111.55 40.0 110.9 40.65 110.05 40.65 107.1 40.65 106.9 37.35 106.75 36.35 107.0 34.85 L107.2 33.25 107.35 31.05 106.95 31.8 M85.95 27.65 L85.5 28.65 86.85 28.5 Q90.0 28.45 89.45 30.4 89.25 31.05 88.65 31.55 87.95 32.05 87.1 32.05 L84.1 31.65 81.05 37.6 84.15 37.7 85.3 36.55 Q86.1 35.55 86.7 35.3 L87.3 36.05 87.3 36.85 86.4 38.45 86.0 39.25 85.45 40.05 84.35 40.7 82.55 41.05 78.9 41.35 77.6 41.65 Q76.3 41.65 76.2 40.6 L76.3 39.5 79.05 34.65 Q81.8 29.75 82.8 26.85 83.6 24.6 84.65 22.95 86.1 20.7 87.05 21.4 L87.1 21.5 90.0 21.2 Q91.6 21.3 92.65 21.85 93.75 22.5 93.5 23.45 93.25 24.25 92.45 24.9 91.35 25.7 89.9 25.7 87.7 25.7 86.5 25.1 L85.95 27.65 M75.9 18.1 L76.35 18.2 Q76.8 18.5 76.85 18.9 L76.75 19.6 75.55 21.35 74.45 22.65 73.95 24.2 73.5 25.7 72.55 28.8 73.7 28.55 75.85 28.7 76.65 27.3 78.4 23.65 Q79.55 21.1 80.05 20.1 L80.8 19.25 Q81.5 18.65 82.15 18.85 L82.25 19.65 82.05 20.55 81.75 22.65 81.4 24.25 79.45 28.9 77.15 33.65 76.3 35.85 75.05 38.25 73.25 41.15 Q72.05 42.85 71.35 42.85 70.85 42.85 70.85 42.25 L70.85 41.6 73.0 34.45 73.75 32.5 71.15 32.8 71.0 32.8 68.25 37.8 Q67.7 38.6 66.7 41.2 65.6 43.35 64.35 43.35 63.8 43.35 63.75 42.6 L63.7 41.85 Q64.25 39.85 65.85 35.7 L68.05 29.75 69.2 26.75 70.4 23.65 Q70.95 21.8 72.15 20.4 73.65 18.65 75.9 18.1 M104.95 22.8 Q104.5 24.3 102.2 28.0 L99.25 32.75 96.45 38.75 Q94.65 42.2 92.95 42.6 91.85 42.65 91.7 41.35 91.55 40.5 91.75 39.75 92.05 38.75 94.8 33.3 L97.8 27.65 101.1 21.6 Q101.45 20.8 102.35 20.0 103.7 18.85 104.65 19.7 105.2 20.55 105.2 21.25 L104.95 22.8 M68.7 22.15 L67.9 23.65 Q66.95 24.55 65.45 24.35 L64.75 24.2 64.5 25.35 64.1 27.1 62.4 30.7 60.4 34.7 58.35 39.1 Q56.75 42.1 55.7 42.1 54.95 42.1 55.15 40.65 L55.55 39.1 Q55.75 38.3 57.25 34.9 L58.8 31.15 61.0 24.2 60.45 24.35 59.3 24.85 58.2 25.1 Q57.05 25.1 56.9 24.2 L57.05 23.25 Q57.45 21.9 58.4 21.15 59.65 20.2 62.1 20.05 L67.8 20.4 Q69.05 20.9 68.7 22.15" fill="none" stroke="#b4e608" stroke-linecap="round" stroke-linejoin="round" stroke-width="10.0"/>
    <path d="M124.3 -48.55 L121.8 -37.35 120.0 -27.6 119.7 -25.1 119.4 -22.65 119.3 -19.95 119.35 -17.85 117.95 -13.45 117.5 -12.9 116.85 -12.7 Q116.2 -12.7 116.2 -13.15 L116.2 -13.75 114.1 -8.15 Q112.5 -4.4 111.85 -2.4 L109.75 3.2 108.75 5.95 Q108.05 7.7 106.95 8.55 L105.45 8.6 Q104.95 8.45 104.9 8.15 L105.0 7.7 Q105.05 7.4 105.45 6.55 L105.95 5.3 102.15 10.0 Q100.85 11.2 99.15 11.2 97.55 11.2 97.35 10.6 L97.5 9.95 98.6 8.35 Q99.5 7.4 99.7 6.4 L99.85 5.6 Q99.85 5.05 99.5 4.7 98.55 5.0 97.4 6.75 96.55 8.15 96.4 8.8 L96.3 9.5 96.0 10.7 Q95.1 12.45 92.7 12.5 89.9 12.5 87.5 10.6 85.75 9.2 85.5 8.35 85.3 7.8 85.05 6.05 L84.6 3.9 Q84.25 2.95 84.35 1.65 L84.65 -0.75 85.2 -3.3 85.65 -5.15 Q85.85 -6.2 85.55 -6.6 L84.65 -7.0 Q83.3 -7.45 83.75 -9.85 L84.7 -15.15 85.9 -20.1 Q86.35 -21.4 88.45 -25.55 L88.25 -25.8 Q87.25 -24.85 86.0 -24.85 85.3 -24.85 85.4 -25.8 L85.6 -26.8 Q86.05 -28.85 87.25 -32.15 L89.05 -37.4 90.8 -42.7 Q91.5 -45.0 92.4 -46.8 L92.35 -46.9 92.35 -47.35 94.5 -49.0 Q96.55 -50.25 97.65 -50.65 L101.0 -52.35 105.05 -52.65 105.6 -52.2 105.55 -51.75 104.9 -50.85 103.45 -49.7 103.6 -49.5 104.55 -49.4 105.0 -48.75 104.9 -48.1 103.75 -45.4 102.5 -42.6 101.05 -37.3 Q100.75 -36.0 100.7 -34.15 L100.15 -30.05 98.3 -24.0 96.7 -19.25 Q96.5 -18.4 96.9 -17.2 97.35 -15.85 97.25 -14.9 97.0 -12.75 97.55 -10.85 L98.35 -10.9 Q99.95 -12.55 100.8 -15.3 L102.15 -19.9 102.3 -19.95 101.8 -20.75 Q101.2 -21.7 101.35 -22.45 101.55 -23.4 101.9 -23.75 102.5 -24.4 104.5 -24.95 L105.4 -26.7 105.2 -27.3 Q105.0 -27.65 105.1 -28.15 L105.45 -29.55 105.65 -30.85 105.85 -32.3 108.05 -42.2 Q108.0 -43.0 108.4 -44.65 L109.2 -47.95 109.5 -48.55 Q109.85 -49.5 111.15 -49.95 112.7 -50.4 113.55 -48.85 L113.85 -48.65 114.45 -48.65 115.2 -49.4 Q115.75 -49.95 116.7 -49.95 L117.8 -49.8 118.75 -49.6 121.3 -49.5 123.75 -49.3 124.1 -48.8 124.3 -48.55 M91.2 -50.75 L89.7 -45.3 Q89.05 -43.2 88.3 -42.0 87.2 -40.35 85.75 -40.35 84.6 -40.35 84.75 -41.15 L85.2 -42.35 85.05 -42.6 83.4 -36.55 81.75 -30.4 79.55 -22.1 78.45 -17.95 77.7 -15.65 77.1 -13.95 77.55 -12.55 Q78.0 -11.3 77.8 -10.4 L77.35 -8.4 76.75 -7.7 75.75 -6.75 Q75.3 -6.15 75.05 -4.95 L74.65 -3.2 73.5 0.45 72.85 2.4 72.3 3.9 70.7 7.8 69.7 9.7 Q68.9 10.8 67.45 11.55 66.25 11.45 65.95 10.95 L65.75 10.3 65.35 11.75 Q64.85 12.6 63.2 12.8 62.0 12.55 62.1 10.25 L62.7 6.95 Q63.2 4.65 63.95 3.45 L65.2 1.75 66.55 0.05 65.75 -0.1 Q65.25 0.25 64.35 2.2 63.6 3.8 62.4 3.8 L61.55 3.8 Q61.0 3.7 61.0 2.75 L61.25 1.45 Q61.4 0.8 62.0 -0.25 L62.9 -2.35 63.3 -4.45 63.6 -6.05 Q63.8 -6.95 64.55 -8.95 L65.6 -12.15 66.6 -15.2 67.55 -17.95 67.6 -18.2 69.65 -27.5 Q70.0 -29.15 69.4 -35.35 68.75 -41.6 68.9 -42.4 69.2 -43.6 69.6 -43.85 L73.0 -45.3 Q73.75 -45.6 75.85 -46.85 L79.0 -48.75 Q79.5 -49.0 81.65 -50.5 83.55 -51.85 84.75 -52.3 88.05 -53.6 89.95 -52.65 91.5 -51.9 91.2 -50.75 M40.85 -8.85 L41.35 -6.75 41.4 -4.9 41.1 -2.7 41.0 -1.05 39.85 3.1 Q38.55 7.05 37.1 7.05 35.8 7.1 35.9 5.6 L36.1 3.3 36.05 3.3 35.4 7.15 Q34.7 10.25 33.2 10.25 31.55 10.25 31.7 7.35 L32.2 2.65 Q32.2 1.8 32.85 -1.0 33.4 -3.45 33.1 -4.85 L32.65 -1.5 Q32.0 0.85 30.2 0.85 L29.05 0.65 Q28.6 -0.6 28.6 -2.25 L28.8 -5.1 28.8 -8.35 29.2 -10.7 31.0 -16.65 32.55 -21.95 Q33.15 -24.6 32.9 -26.2 32.55 -28.5 32.8 -31.6 33.05 -34.65 34.45 -41.0 L34.75 -42.4 Q34.6 -42.65 34.6 -43.05 L34.75 -43.95 Q35.3 -46.25 37.95 -46.45 L41.95 -46.15 Q42.95 -46.15 45.6 -48.65 48.0 -50.85 49.0 -50.4 49.75 -50.0 49.95 -49.25 L50.15 -48.1 52.0 -49.3 Q53.4 -50.0 56.2 -50.0 60.8 -50.05 63.55 -46.75 L65.05 -44.45 65.1 -44.25 66.05 -43.15 Q67.8 -40.65 67.75 -38.5 68.3 -36.25 67.8 -34.0 L67.4 -33.05 Q66.95 -32.45 66.1 -32.45 L65.3 -32.7 64.6 -33.25 64.5 -31.25 64.3 -29.65 63.9 -28.25 63.7 -27.9 63.75 -27.65 62.0 -25.95 Q60.75 -24.85 59.8 -24.25 L61.5 -22.25 Q64.85 -18.55 64.65 -17.6 L64.35 -16.6 64.6 -15.8 64.45 -14.75 63.15 -11.25 Q62.2 -9.05 61.95 -7.75 61.7 -6.65 61.6 -4.9 L61.45 -2.9 Q61.25 -2.05 59.8 -1.4 58.35 -0.65 58.05 0.65 L57.6 3.9 57.0 6.05 54.8 8.4 53.95 8.4 Q52.6 7.4 52.8 5.85 L53.2 3.2 Q53.05 1.2 53.4 -1.9 53.6 -3.8 52.5 -7.65 51.55 -11.15 51.75 -12.05 L50.1 -12.3 Q49.45 -12.9 49.55 -13.3 L50.3 -14.7 51.15 -16.65 Q51.35 -17.65 50.75 -18.75 L50.35 -19.45 48.2 -18.15 Q45.75 -16.9 44.8 -16.65 L44.7 -16.1 44.65 -14.2 44.45 -12.35 44.0 -10.65 Q43.7 -9.95 42.6 -9.2 L42.15 -9.5 Q41.4 -8.95 40.85 -8.85 M115.15 -29.35 Q115.45 -30.8 114.4 -31.15 113.25 -31.6 111.8 -29.45 L109.85 -27.05 Q109.05 -26.15 108.85 -25.25 L109.0 -24.95 109.4 -24.5 111.3 -24.55 Q112.15 -24.6 113.6 -26.65 114.95 -28.5 115.15 -29.35 M110.6 -22.3 L109.9 -21.85 109.3 -21.2 109.25 -20.5 109.15 -19.95 108.95 -19.2 Q108.95 -18.8 109.55 -18.55 L110.4 -18.55 Q111.45 -19.2 111.8 -20.85 L112.0 -21.6 Q111.95 -22.25 111.45 -22.3 L110.6 -22.3 M59.65 -13.9 L59.7 -15.45 Q59.45 -16.1 57.85 -15.95 L57.75 -15.75 57.65 -15.45 57.85 -15.15 57.15 -14.0 Q56.65 -13.4 56.45 -12.4 L56.4 -11.7 Q56.4 -11.25 57.05 -11.2 L57.9 -11.2 59.25 -12.55 59.65 -13.9 M58.65 -17.65 Q58.85 -18.55 58.05 -18.7 57.2 -18.95 56.95 -17.9 L56.85 -17.25 Q56.9 -16.65 57.45 -16.65 L58.05 -16.9 Q58.55 -17.25 58.65 -17.65 M49.45 -41.7 Q46.35 -41.55 46.0 -40.65 L46.1 -39.95 46.25 -39.3 45.95 -38.05 45.6 -36.95 45.3 -36.55 45.1 -35.15 44.7 -33.6 Q44.5 -32.75 44.4 -30.55 L44.1 -29.0 43.9 -27.5 43.45 -25.7 Q43.45 -24.4 44.95 -24.4 46.0 -24.4 46.95 -26.0 48.2 -28.2 49.05 -28.85 L49.5 -28.2 Q50.0 -27.8 51.0 -27.9 52.15 -28.25 52.5 -29.5 L52.95 -31.25 Q55.7 -32.05 56.35 -32.75 L56.95 -34.6 Q57.4 -36.5 56.15 -38.5 54.65 -40.8 51.95 -40.8 50.9 -40.75 50.2 -39.55 L49.45 -38.1 49.9 -40.0 Q50.2 -41.15 49.45 -41.7 M158.3 -50.7 L158.35 -50.65 158.35 -50.25 158.15 -50.05 Q158.65 -49.55 158.5 -48.75 L157.0 -45.15 156.9 -43.3 156.75 -41.05 156.35 -39.7 154.45 -38.05 Q154.6 -37.05 155.05 -36.45 155.45 -36.05 155.3 -35.45 L154.7 -33.95 Q154.15 -32.9 153.45 -32.9 L148.75 -32.85 Q148.45 -32.9 148.0 -33.65 147.65 -34.25 146.15 -34.25 L144.4 -33.15 Q142.75 -32.1 142.45 -32.1 141.5 -32.1 141.45 -32.85 L141.65 -33.65 Q141.8 -34.45 142.7 -36.25 L142.05 -35.8 Q139.3 -33.8 138.85 -31.95 138.6 -30.9 139.45 -30.3 L141.4 -29.6 Q142.75 -29.2 143.25 -28.75 L143.65 -28.4 147.0 -25.7 151.55 -20.7 Q153.3 -18.95 151.4 -10.55 L150.25 -6.9 148.9 -3.3 Q148.35 -1.6 145.3 1.0 142.4 3.55 141.3 3.55 L141.1 3.55 140.95 3.75 140.35 4.15 Q137.3 4.15 137.55 2.6 136.9 3.2 135.5 6.2 134.4 8.45 133.15 8.45 L132.55 8.35 131.4 8.2 Q130.3 7.05 130.7 5.25 131.4 3.15 131.4 2.1 L130.9 3.7 Q130.25 5.1 129.1 5.1 128.4 5.1 128.15 4.7 L128.0 4.2 Q127.45 5.5 126.9 8.55 126.1 11.35 124.15 13.05 L123.55 13.05 Q122.65 12.05 122.9 10.65 L123.4 8.3 122.5 8.85 121.9 8.85 Q121.05 8.1 121.3 7.0 L121.8 5.1 122.15 3.3 122.6 1.4 Q121.7 2.3 121.1 4.85 L120.75 6.55 Q120.25 7.7 119.1 7.7 117.7 7.75 117.4 5.35 L117.45 2.35 Q117.45 0.25 118.05 -3.05 118.5 -6.75 118.9 -8.5 L119.15 -11.05 119.45 -13.6 Q119.95 -15.85 120.45 -16.9 L120.4 -16.95 120.55 -17.05 Q120.8 -17.6 121.15 -17.8 L121.15 -17.5 Q121.75 -17.8 122.35 -17.5 122.9 -17.2 123.9 -16.3 124.35 -15.8 125.6 -14.85 L127.4 -13.55 Q128.55 -12.95 129.7 -12.45 130.1 -12.65 130.75 -12.1 L131.15 -11.85 131.2 -11.8 131.15 -11.8 132.15 -10.75 132.9 -9.2 Q133.2 -8.45 134.45 -7.95 L134.6 -7.9 134.7 -8.25 Q134.8 -8.6 134.5 -9.05 134.15 -9.5 134.2 -9.75 L134.5 -10.35 134.8 -10.6 134.75 -10.75 134.7 -10.8 135.1 -10.7 135.15 -10.7 135.6 -10.65 135.75 -10.6 136.6 -11.35 Q137.45 -11.8 137.6 -12.35 137.95 -13.85 134.85 -16.35 131.7 -18.85 128.4 -19.55 L128.3 -17.8 Q128.05 -16.65 126.8 -15.95 123.65 -16.75 123.25 -21.1 122.9 -24.6 124.15 -27.3 L124.15 -27.45 123.55 -26.8 122.45 -26.55 Q121.7 -26.5 121.8 -27.55 L122.05 -28.65 123.05 -32.45 123.05 -32.85 123.3 -34.5 Q123.7 -36.45 125.1 -38.6 126.55 -40.7 128.7 -42.6 L131.7 -44.75 Q133.7 -45.95 135.5 -46.7 L137.7 -47.7 139.45 -48.3 139.5 -48.3 Q140.85 -49.0 142.4 -49.05 L148.5 -49.85 151.6 -50.4 156.5 -50.7 158.3 -50.7 M147.45 -13.7 L147.75 -15.55 Q147.8 -16.7 147.05 -17.3 L146.35 -18.15 144.95 -18.4 Q144.55 -18.4 143.85 -17.8 L143.1 -17.0 Q143.05 -16.7 143.25 -16.4 L143.35 -15.8 Q142.55 -13.95 142.5 -13.35 142.4 -12.5 144.4 -10.4 146.15 -10.7 146.85 -11.85 L147.45 -13.7 M-120.5 -21.9 L-120.4 -21.4 Q-120.1 -22.1 -118.65 -22.7 -116.25 -23.7 -115.35 -24.35 L-110.15 -27.75 Q-105.45 -30.95 -103.1 -31.1 -100.9 -31.15 -101.45 -28.65 -102.65 -23.45 -105.1 -19.55 L-106.85 -16.9 -108.0 -13.95 -107.55 -11.65 Q-107.15 -9.4 -107.55 -7.55 L-107.85 -5.95 Q-108.35 -4.8 -109.5 -4.8 L-111.1 -5.35 -110.45 -3.95 -109.95 -2.55 Q-109.8 -1.95 -109.95 -1.1 L-110.15 0.35 -111.35 5.95 Q-111.95 8.6 -113.1 12.0 L-114.35 15.15 -113.25 14.9 -112.85 14.6 -111.9 14.55 -110.95 14.3 -109.95 14.0 Q-108.65 14.0 -108.75 15.1 L-109.1 16.65 -108.1 15.05 -107.8 14.05 Q-107.4 13.6 -106.0 13.55 L-106.05 13.45 -103.4 13.1 -102.3 13.2 -102.0 13.05 Q-101.35 12.8 -101.15 13.75 L-101.0 14.8 -101.0 15.05 -100.95 15.0 -101.0 15.15 -100.95 16.0 Q-100.9 16.85 -101.15 18.55 L-101.35 19.6 -101.3 20.6 Q-101.3 24.6 -101.6 26.15 L-102.2 28.4 Q-103.05 30.05 -104.45 29.0 L-104.6 29.15 -106.7 38.75 -107.1 39.75 Q-107.4 40.25 -108.35 40.65 L-109.6 40.65 Q-110.9 39.35 -110.45 37.35 -109.6 35.1 -109.55 33.95 L-109.05 30.65 -108.5 27.25 -109.4 28.25 -110.3 29.35 -111.3 31.45 -112.1 33.6 Q-113.0 35.25 -114.4 35.25 -115.35 35.3 -116.0 34.45 -116.65 33.75 -116.6 33.3 L-116.35 32.25 -116.1 31.2 -115.6 29.2 Q-115.35 27.9 -115.65 27.2 L-116.3 27.85 Q-116.8 28.3 -117.5 28.55 -119.45 29.0 -119.55 27.3 -119.25 25.25 -119.45 24.7 -120.7 25.5 -121.4 27.2 -121.85 28.1 -122.5 30.35 L-123.55 33.0 Q-124.3 34.15 -125.55 34.15 -126.75 32.8 -126.65 30.8 L-125.95 27.2 -126.1 26.9 -127.75 30.9 Q-128.8 33.25 -130.5 34.75 -132.2 35.35 -132.25 33.5 L-131.85 31.3 -130.35 26.25 -128.8 21.45 Q-128.55 20.35 -128.85 19.1 -129.1 17.85 -128.95 17.05 -128.5 15.2 -127.1 12.95 -125.4 10.05 -124.6 8.05 L-124.15 6.15 Q-124.8 6.6 -125.8 6.75 -126.8 6.7 -126.8 5.6 L-126.6 4.25 -125.7 1.55 -124.7 -1.35 -124.2 -4.95 -123.25 -10.45 -122.65 -12.65 Q-122.25 -14.05 -122.15 -14.9 L-122.0 -17.05 -121.8 -19.4 -121.35 -20.55 -120.5 -21.9 M-86.0 -21.05 L-85.7 -22.95 Q-85.9 -24.0 -87.65 -23.75 L-89.2 -22.75 -90.85 -21.15 -92.0 -18.25 -93.1 -15.15 -93.25 -14.15 Q-93.05 -13.55 -91.9 -12.95 L-90.7 -13.0 Q-89.0 -14.25 -87.55 -16.9 -86.45 -19.1 -86.0 -21.05 M-68.15 -14.55 Q-69.2 -9.95 -70.9 -5.4 -72.75 -0.45 -74.65 2.45 L-77.35 6.6 -80.15 10.75 Q-80.75 11.6 -81.6 15.0 -82.25 17.6 -84.25 18.9 L-86.25 18.55 -86.65 18.1 -87.0 17.4 -88.45 24.0 Q-89.75 29.0 -91.75 29.0 -94.8 29.05 -93.05 21.25 -92.2 17.3 -92.0 13.6 L-93.05 18.25 Q-93.9 21.2 -95.9 22.85 L-97.75 22.85 Q-99.7 21.8 -99.15 19.15 -98.4 15.85 -98.65 15.25 -99.0 14.3 -101.05 11.05 -102.45 8.8 -102.35 7.45 L-101.55 0.65 Q-100.8 -5.75 -100.25 -8.15 L-98.75 -13.65 -96.6 -19.35 Q-96.9 -21.85 -94.1 -25.15 -91.9 -27.85 -88.15 -30.5 -84.65 -33.05 -80.15 -33.0 -75.85 -33.0 -73.45 -30.7 -71.15 -29.8 -69.75 -28.25 -68.55 -26.95 -68.15 -25.55 -67.95 -24.1 -67.85 -20.35 -67.8 -16.25 -68.15 -14.55 M-60.45 17.4 L-62.0 17.85 Q-64.0 17.85 -66.05 16.35 -67.75 15.05 -68.15 13.9 L-69.9 9.35 Q-70.55 7.4 -70.7 4.9 -70.8 2.45 -70.3 0.35 -67.9 -10.6 -63.4 -21.35 -59.7 -30.25 -56.1 -34.2 L-55.35 -35.35 Q-54.25 -36.8 -52.4 -37.7 L-50.2 -38.95 -48.6 -40.05 -42.5 -39.9 Q-39.05 -38.1 -37.85 -35.15 -37.1 -33.55 -36.3 -30.35 -35.65 -28.8 -35.0 -22.0 -34.2 -14.3 -34.9 -11.2 L-35.8 -7.65 Q-35.55 -7.25 -35.7 -6.15 -35.85 -5.5 -36.35 -5.1 -36.7 -4.8 -37.3 -4.8 -38.35 -4.8 -38.6 -6.2 L-38.5 -8.2 -38.6 -8.4 Q-39.2 -8.35 -39.6 -7.55 L-39.8 -6.6 Q-40.25 -4.6 -39.7 -2.6 -39.15 -0.6 -39.4 0.55 L-39.65 1.35 Q-39.85 1.8 -40.3 1.85 -41.85 4.65 -44.25 7.4 L-48.5 11.7 Q-50.45 13.2 -51.95 13.2 -54.4 13.25 -54.1 10.8 L-53.65 9.1 -53.3 8.1 -52.95 6.15 Q-53.0 4.9 -54.0 4.0 -55.05 5.1 -55.65 8.0 -56.2 10.7 -57.9 12.0 L-58.95 12.0 Q-59.65 11.65 -59.85 10.75 L-59.95 9.55 -60.45 10.0 -61.05 10.8 Q-61.25 11.65 -59.75 13.0 -58.3 14.4 -58.5 15.4 -58.65 16.1 -59.4 16.65 L-60.1 17.15 -60.45 17.4 M-49.85 -19.75 Q-52.55 -19.75 -54.75 -15.25 -56.1 -12.55 -56.65 -10.0 L-56.7 -8.1 Q-56.6 -6.25 -55.4 -6.3 L-54.2 -6.7 -52.65 -7.1 Q-51.05 -7.15 -50.55 -8.1 L-50.25 -9.5 -49.95 -10.85 Q-49.95 -11.45 -50.45 -12.25 L-49.75 -12.25 -47.85 -12.05 -46.8 -13.25 -45.9 -14.85 Q-45.55 -16.25 -45.9 -17.45 -46.65 -19.8 -49.85 -19.75 M-49.05 -26.85 Q-50.9 -27.05 -51.65 -26.15 L-52.25 -24.55 -52.0 -23.75 Q-51.45 -22.95 -50.35 -22.95 -49.5 -22.95 -48.9 -23.75 L-48.35 -25.0 -48.2 -25.9 -49.05 -26.85 M-83.05 -14.55 Q-86.4 -16.25 -89.15 -10.25 -90.5 -7.25 -91.7 -2.05 L-92.1 0.8 Q-92.05 2.5 -90.75 3.8 L-89.85 3.8 Q-87.75 2.75 -86.9 1.15 -86.4 0.3 -86.1 -1.4 L-86.4 0.15 Q-86.5 1.2 -85.35 1.55 L-84.4 1.55 Q-82.8 0.75 -82.2 -0.55 L-81.6 -3.05 Q-81.1 -5.15 -81.5 -9.2 -81.95 -13.65 -83.05 -14.55 M-51.8 -32.65 Q-53.4 -32.9 -55.8 -29.4 -57.8 -26.5 -58.2 -24.9 L-58.4 -23.95 Q-58.2 -23.0 -56.6 -23.0 -55.85 -23.05 -53.7 -25.3 -51.35 -27.75 -51.0 -29.45 L-50.8 -30.75 Q-50.9 -31.6 -52.15 -31.9 L-51.9 -32.35 -51.8 -32.65 M-14.3 -45.9 L-13.9 -44.9 Q-13.75 -44.2 -13.9 -43.6 L-14.65 -41.75 -15.45 -40.05 -15.45 -39.9 -14.9 -40.45 Q-14.25 -41.0 -13.7 -41.0 -12.6 -41.0 -12.85 -38.95 L-13.35 -36.9 -14.45 -33.2 -13.85 -30.55 -13.25 -27.25 -13.1 -27.65 Q-12.4 -30.75 -11.5 -36.8 L-10.7 -42.75 Q-10.45 -43.9 -9.65 -43.9 L-9.6 -43.9 -9.55 -44.35 -7.55 -46.05 -3.45 -48.7 Q2.45 -52.05 1.95 -49.85 1.75 -48.8 1.3 -48.3 L-0.7 -46.2 -0.7 -46.05 1.0 -46.7 2.35 -47.25 3.6 -47.3 Q4.05 -46.8 3.85 -45.85 3.65 -44.95 3.3 -44.6 L1.8 -42.9 0.9 -41.45 Q0.35 -40.6 0.15 -39.95 L-1.35 -34.2 -1.9 -32.75 -2.6 -30.9 -3.55 -27.65 -5.4 -21.25 -6.75 -14.85 -6.95 -14.05 -9.8 -3.75 -11.85 5.55 -12.55 7.3 Q-13.1 8.5 -14.2 9.05 -16.0 8.7 -15.85 7.55 -15.35 6.15 -15.5 5.6 L-16.6 9.45 Q-17.3 11.95 -18.75 13.25 L-19.6 13.3 Q-20.85 12.5 -20.45 10.9 L-19.65 8.4 -18.9 5.55 -18.35 3.5 Q-18.15 2.55 -18.95 2.15 -19.7 1.7 -19.45 0.6 L-18.8 -1.25 -18.3 -2.7 -18.4 -3.2 -18.65 -3.85 -19.4 -3.8 Q-20.15 -4.25 -19.9 -5.0 L-19.45 -6.15 -18.85 -8.4 Q-18.55 -9.65 -19.0 -11.75 L-19.95 -14.75 -20.45 -17.85 Q-20.55 -19.05 -20.9 -19.95 L-21.0 -18.85 -21.45 -17.25 -21.9 -16.0 -23.05 -8.25 Q-23.55 -6.2 -24.75 -2.5 L-26.6 3.0 -27.85 8.45 Q-28.7 11.75 -31.2 13.95 -33.25 13.95 -33.55 11.25 L-33.4 7.8 -33.85 8.15 -34.6 8.4 Q-35.95 8.4 -35.9 6.95 L-35.45 4.95 -34.45 1.45 -33.9 -0.35 Q-33.55 -1.45 -33.7 -2.05 -33.75 -2.7 -34.65 -3.0 -35.5 -3.3 -35.6 -3.65 L-35.45 -4.45 -35.2 -5.3 Q-34.6 -8.05 -31.65 -13.9 -28.55 -19.9 -27.95 -22.3 L-27.7 -23.25 -27.85 -23.25 -29.45 -19.05 Q-30.7 -15.85 -32.2 -15.85 -34.0 -15.8 -33.65 -17.6 L-32.85 -19.7 Q-32.45 -20.6 -32.3 -21.85 L-32.2 -23.6 -29.95 -32.65 -29.3 -34.85 -28.6 -37.15 -27.75 -39.4 -27.45 -40.3 -27.5 -40.65 Q-27.25 -41.8 -22.0 -44.05 -16.6 -46.45 -14.3 -45.9 M26.55 -34.75 L25.6 -33.4 25.0 -32.85 Q25.9 -32.85 25.45 -29.8 L24.6 -25.35 Q24.5 -23.95 25.35 -21.65 L26.7 -18.05 27.6 -14.4 Q27.85 -12.2 27.45 -10.55 L27.2 -7.2 26.8 -3.25 Q26.2 -0.5 25.3 0.15 L24.65 0.15 Q24.0 -0.3 23.85 -0.95 L23.65 -2.15 21.8 3.45 Q20.55 6.85 18.7 8.8 15.1 8.35 16.05 3.95 17.7 -1.05 17.55 -2.4 15.7 -2.4 15.35 -3.05 L15.4 -3.95 Q15.6 -4.8 16.6 -5.9 L17.6 -7.0 Q17.65 -7.4 16.35 -8.0 L14.8 -8.6 14.05 -8.6 Q12.95 -7.1 12.25 -4.75 L11.3 -0.65 10.45 3.95 Q9.8 6.75 8.15 6.75 6.9 6.8 6.9 5.9 L7.1 4.45 6.7 5.85 6.5 8.15 6.35 10.45 Q5.65 13.45 4.0 13.45 2.0 13.45 1.7 10.2 L1.8 6.45 1.75 6.45 1.65 8.0 Q1.45 9.05 0.35 9.4 -1.95 8.85 -2.2 5.55 -2.35 3.5 -1.75 0.8 L0.6 -7.4 2.8 -14.1 3.2 -15.85 2.75 -15.85 1.95 -15.8 Q0.8 -15.8 0.8 -16.85 L1.05 -18.0 Q1.3 -19.05 3.35 -23.35 L5.45 -27.5 Q5.55 -27.95 4.85 -28.3 4.05 -28.7 3.85 -29.35 L3.9 -30.05 4.15 -30.9 Q4.5 -32.5 6.8 -38.3 7.05 -39.3 6.4 -41.2 5.75 -43.05 5.9 -43.75 6.3 -45.5 7.15 -46.8 8.25 -48.45 9.45 -47.85 L10.0 -47.1 10.65 -46.65 12.55 -45.2 Q16.7 -42.9 17.85 -41.7 20.85 -38.75 24.9 -37.7 L26.45 -36.95 Q26.9 -36.35 26.55 -34.75 M-119.15 10.25 L-121.15 10.7 Q-121.6 10.85 -121.7 11.4 L-122.85 15.45 -122.9 16.2 -122.15 17.0 -121.3 17.0 Q-119.95 16.15 -119.35 14.9 L-118.65 12.85 -118.45 11.45 Q-118.45 10.6 -119.15 10.25 M-116.05 2.8 Q-118.1 2.55 -118.65 5.1 L-118.5 5.9 Q-118.1 6.65 -117.4 6.65 -116.75 6.6 -116.1 5.65 L-115.4 4.25 -115.35 3.65 Q-115.4 3.25 -116.05 2.8 M-93.0 -4.05 Q-94.45 -5.15 -95.8 -3.4 -96.7 -2.25 -96.95 -1.0 -97.15 -0.1 -96.45 0.7 L-94.9 0.7 Q-93.15 -0.95 -92.75 -2.75 L-92.65 -3.6 -93.0 -4.05 M-82.8 4.6 L-82.6 3.1 Q-82.9 2.3 -84.95 2.45 -85.0 3.15 -85.7 4.45 L-86.5 6.05 Q-86.65 6.8 -85.7 7.75 L-84.45 7.75 Q-83.15 6.25 -82.8 4.6 M-45.05 -0.45 Q-44.75 -1.8 -45.2 -2.25 -45.8 -2.85 -47.75 -2.55 L-48.05 -1.75 -48.35 -1.0 -49.15 0.8 -48.95 1.55 Q-48.65 2.35 -47.6 2.35 -45.7 2.35 -45.05 -0.45 M39.9 -26.5 Q38.85 -26.0 38.1 -25.1 37.45 -24.3 37.25 -23.4 37.1 -22.75 37.65 -22.2 L39.15 -22.15 Q39.6 -22.75 40.85 -23.5 41.6 -24.05 41.8 -24.9 41.9 -25.3 41.6 -25.65 L40.75 -26.5 39.9 -26.5 M22.85 -12.85 L23.0 -13.95 22.55 -15.1 Q22.25 -15.8 20.9 -15.9 19.55 -15.95 19.4 -15.25 L18.85 -12.45 Q18.7 -11.85 19.5 -11.05 20.35 -10.2 21.05 -10.2 21.75 -10.2 22.3 -11.4 L22.85 -12.85 M42.75 -33.2 Q43.2 -35.15 40.9 -34.65 39.95 -34.5 39.2 -34.0 38.35 -33.45 38.25 -32.9 L37.45 -31.0 36.8 -29.5 Q36.65 -28.8 36.8 -28.4 37.15 -27.7 38.7 -27.65 41.05 -29.4 41.8 -30.5 42.3 -31.3 42.75 -33.2 M-10.7 -14.95 Q-10.45 -15.95 -12.0 -16.7 -13.5 -17.4 -14.0 -16.15 L-15.15 -12.5 -15.2 -11.95 -15.15 -11.5 -14.9 -11.05 -14.3 -10.45 -13.45 -10.5 Q-12.5 -11.0 -11.55 -12.85 -10.85 -14.2 -10.7 -14.95 M16.1 -27.9 L16.95 -30.4 Q17.2 -31.75 16.1 -32.75 14.25 -35.15 13.65 -34.95 13.35 -34.85 12.9 -32.9 12.6 -31.55 12.7 -29.15 L12.75 -25.3 12.45 -23.4 12.1 -21.45 11.6 -19.45 Q11.3 -18.1 11.9 -17.5 L13.15 -17.55 14.35 -18.05 13.7 -15.35 Q13.55 -13.65 15.75 -13.1 16.35 -13.45 16.8 -14.65 L17.2 -16.2 17.6 -18.75 18.25 -22.3 Q18.7 -24.3 18.5 -25.25 18.2 -27.1 16.1 -27.9 M10.6 -33.05 L9.55 -33.3 Q9.35 -33.45 8.85 -32.75 8.55 -32.35 8.4 -31.75 L8.2 -30.85 8.7 -30.2 9.75 -30.2 Q10.8 -30.7 11.15 -32.3 L10.95 -32.65 10.6 -33.05 M11.7 -40.3 Q10.6 -40.3 9.9 -39.1 9.4 -38.35 9.2 -37.25 L9.2 -36.75 Q9.3 -36.25 9.8 -35.9 L11.05 -35.9 Q12.2 -36.45 12.5 -36.9 L12.9 -38.1 13.0 -39.35 Q12.8 -40.3 11.7 -40.3 M-133.35 16.75 Q-131.75 19.05 -131.85 20.25 L-131.75 23.9 Q-131.7 25.65 -132.05 27.3 L-132.4 28.6 Q-132.7 29.5 -133.2 29.9 L-134.25 30.8 Q-134.8 31.45 -135.0 32.2 L-135.45 34.8 Q-136.05 36.8 -137.55 36.8 -138.6 36.8 -138.55 36.2 L-138.3 35.4 -140.55 39.45 Q-141.85 42.05 -143.15 42.05 -144.5 42.05 -144.35 41.15 L-143.8 39.7 -144.55 41.05 -145.1 42.6 -145.8 44.1 Q-146.6 45.25 -148.0 45.25 -149.9 45.25 -150.4 44.35 L-150.65 43.1 Q-151.7 44.1 -152.25 45.55 L-152.9 48.2 Q-153.25 50.1 -153.85 51.35 -154.75 53.0 -156.2 53.05 -158.0 53.05 -158.4 50.35 -158.7 48.55 -158.4 47.2 L-157.9 44.35 -157.25 41.45 -156.3 35.7 Q-155.75 32.3 -154.85 29.8 L-155.7 29.85 Q-157.25 29.85 -156.65 26.5 L-155.4 21.4 -154.95 19.25 Q-154.7 18.0 -154.75 17.1 -154.8 16.55 -155.7 15.95 L-156.8 15.3 -156.85 14.25 -156.6 13.2 -155.55 10.0 -154.6 7.05 -153.85 3.0 -153.6 0.85 -153.45 -0.8 Q-153.25 -1.75 -152.85 -1.85 L-152.75 -1.85 Q-152.05 -2.8 -150.2 -3.2 L-143.35 -4.85 -137.35 -4.95 Q-131.1 -4.45 -129.6 -3.4 -128.95 -3.0 -128.8 -2.3 L-128.6 -1.15 Q-128.5 -0.7 -128.7 1.35 L-129.0 3.65 -129.65 6.65 Q-130.2 8.5 -131.1 9.7 -132.35 11.55 -134.2 13.25 L-135.55 14.5 Q-134.4 15.15 -133.35 16.75 M72.3 -7.3 Q72.5 -8.2 72.15 -8.75 71.8 -9.25 71.15 -9.15 69.55 -9.0 68.95 -6.35 68.65 -4.9 69.3 -4.25 L70.4 -4.25 71.45 -5.75 72.3 -7.3 M91.25 4.9 Q90.65 3.95 90.1 4.25 89.75 4.5 89.65 4.95 L89.55 5.35 89.65 5.45 89.8 5.6 90.2 5.7 91.05 5.35 91.25 4.9 M91.4 0.7 Q91.7 -0.5 90.4 -0.2 89.15 0.05 88.85 1.55 L88.75 2.1 Q88.9 2.55 89.7 2.55 90.4 2.55 90.95 1.85 L91.4 0.7 M128.5 -4.55 L128.5 -5.6 128.25 -7.1 Q127.7 -8.2 126.05 -8.2 124.45 -8.25 124.3 -7.45 123.85 -5.5 124.05 -4.85 124.45 -3.5 127.05 -2.8 L128.2 -3.7 128.5 -4.55 M146.5 -6.6 Q146.8 -8.05 145.1 -8.45 143.4 -8.9 143.1 -7.6 142.55 -4.95 143.85 -4.9 L144.9 -4.9 146.0 -5.7 146.5 -6.6 M-141.75 21.9 Q-144.05 20.1 -145.5 21.15 -146.35 21.75 -146.5 22.9 -146.8 24.7 -147.25 26.3 L-148.85 33.15 -149.1 34.75 Q-149.15 36.3 -147.85 36.25 -147.0 36.25 -146.4 35.45 L-145.55 34.4 -145.45 34.85 -144.85 35.25 -144.2 35.25 Q-143.05 34.6 -142.05 33.3 L-140.6 31.2 -139.15 28.75 -138.55 26.7 Q-138.1 24.6 -138.2 24.0 -138.25 23.45 -138.8 22.55 -139.45 21.3 -140.25 21.3 L-141.1 21.55 -141.75 21.9 M-142.4 15.45 L-143.15 16.25 -143.65 16.9 -143.2 18.1 Q-142.7 19.05 -142.3 19.2 L-141.65 19.2 Q-141.25 18.9 -140.95 18.1 L-140.75 17.1 Q-140.6 16.45 -140.85 16.1 -141.2 15.5 -142.4 15.45 M-147.75 15.7 Q-149.25 14.85 -150.4 17.9 L-151.5 21.75 -151.35 23.2 Q-151.05 24.55 -150.35 24.55 -149.1 24.5 -147.95 21.4 -147.25 19.7 -146.9 18.0 -146.75 17.35 -146.85 16.7 -147.0 15.8 -147.75 15.7 M-135.5 4.3 Q-135.15 2.9 -135.55 2.4 -136.1 1.7 -138.8 0.4 -141.05 -0.4 -142.35 1.7 -143.0 2.85 -143.2 4.25 L-143.65 6.45 -144.3 9.55 Q-144.25 10.4 -145.05 12.15 -145.5 13.8 -143.95 14.95 L-143.3 14.9 Q-141.8 14.4 -141.5 13.25 L-140.85 11.3 -140.55 11.45 -139.75 11.5 Q-138.55 11.05 -138.1 9.85 L-137.5 8.05 -136.05 5.85 Q-135.7 5.4 -135.5 4.3" fill="#3e8a2c" fill-rule="evenodd" stroke="none"/>
    <path d="M183.4 23.05 L181.95 25.9 180.6 28.55 183.1 27.4 185.2 25.45 186.45 23.5 Q186.55 23.2 186.15 22.65 L185.7 22.15 184.15 22.65 Q183.75 22.85 183.5 22.95 L183.4 23.05 M176.55 37.05 L174.9 40.7 Q174.0 42.2 172.75 42.2 171.4 42.2 171.35 41.15 L171.55 40.05 Q171.9 38.9 174.45 33.75 L177.15 28.5 180.75 22.75 Q181.75 21.05 182.7 19.9 183.9 18.45 184.5 19.0 L184.75 19.4 Q187.1 17.5 188.35 18.3 189.25 18.65 189.85 19.45 L190.75 20.95 Q191.2 21.65 191.1 22.3 L190.85 23.5 Q190.15 25.9 186.95 29.1 L184.75 31.0 Q185.65 31.95 186.05 33.5 186.5 35.3 186.0 37.0 L185.15 39.2 Q184.25 40.7 182.9 40.7 181.85 40.7 181.65 39.75 181.45 39.2 181.6 38.65 L181.7 36.4 181.4 34.25 181.25 32.75 178.95 33.05 178.45 33.05 176.55 37.05 M139.8 22.95 Q139.15 25.15 135.3 32.3 L133.55 35.55 134.95 35.3 Q138.0 34.8 139.7 35.35 140.55 35.65 140.9 36.2 L141.9 35.2 141.85 35.1 143.9 30.45 146.1 25.8 147.45 23.55 148.75 21.15 Q149.15 20.0 151.0 18.8 153.2 17.35 154.05 19.2 154.45 20.0 154.2 21.5 L153.8 23.95 153.35 26.2 152.75 28.6 151.55 33.25 151.25 35.55 151.15 36.15 152.95 32.75 155.45 28.35 157.2 24.85 Q155.5 24.75 154.9 23.9 154.45 23.3 154.65 22.55 154.9 21.7 155.65 21.2 156.45 20.7 157.7 20.7 L163.4 20.0 Q165.7 19.85 165.05 22.1 164.65 23.4 162.75 24.15 L161.55 24.5 161.55 24.55 Q161.1 26.0 159.45 28.95 L157.05 33.05 154.6 37.95 Q152.8 41.25 151.3 41.25 150.0 41.25 150.0 39.8 149.0 41.25 148.05 41.25 147.6 41.25 147.5 38.75 L147.45 34.95 146.5 35.05 145.25 34.85 Q144.4 36.25 143.6 36.85 L142.5 38.65 Q141.1 40.6 140.25 40.6 139.4 40.6 139.2 40.0 L138.5 40.05 137.25 39.75 135.8 39.4 Q134.3 39.4 132.15 40.1 L129.35 40.75 128.45 41.1 Q127.15 41.1 126.95 39.95 L127.0 38.8 Q127.15 38.35 129.85 33.75 L133.6 27.2 134.95 24.3 136.55 21.5 Q138.7 18.6 139.55 20.1 140.25 21.35 139.8 22.95 M148.7 28.55 L148.6 28.55 Q148.1 29.15 146.7 32.15 L147.1 32.1 147.75 32.1 148.7 28.55 M173.75 19.15 Q178.05 19.15 179.0 20.55 179.35 21.1 178.95 22.5 L176.75 27.0 174.05 32.5 Q171.8 37.65 169.55 39.8 167.55 41.65 165.05 41.65 162.1 41.65 161.15 39.8 160.5 38.6 160.8 37.4 161.1 36.35 162.15 34.95 L163.35 33.05 163.45 32.1 163.6 31.05 164.2 29.3 Q164.6 28.0 164.45 27.25 164.35 26.45 164.5 25.85 164.95 24.3 167.15 22.1 170.2 19.15 173.75 19.15 M170.85 32.5 Q173.8 28.4 174.3 26.55 L174.55 25.05 174.6 23.65 Q173.2 23.6 171.95 24.2 L170.2 25.25 170.1 25.55 168.45 29.2 Q166.95 32.3 166.45 34.15 166.15 35.15 166.7 35.75 167.15 36.35 167.0 37.0 L166.95 37.2 Q168.15 36.2 170.85 32.5 M125.35 25.55 L124.7 27.5 125.55 27.35 126.65 27.3 127.25 28.05 127.1 28.75 126.4 29.55 Q125.4 30.2 125.2 30.4 L124.55 31.15 Q123.9 31.75 123.15 31.9 L122.4 33.65 Q120.9 36.65 120.5 37.8 L119.5 40.35 Q118.7 41.6 117.45 41.6 116.2 41.6 116.15 40.35 L116.5 38.9 118.45 33.35 119.85 29.45 121.55 24.9 Q121.95 23.9 122.5 23.15 122.3 22.75 122.45 22.1 122.75 21.1 123.85 20.55 125.2 19.9 128.0 19.9 L131.7 20.4 Q133.3 20.5 132.95 21.7 132.7 22.6 129.8 23.5 L126.75 24.25 125.65 24.2 125.35 25.55 M106.95 31.8 L103.9 37.65 Q101.35 41.95 100.0 42.25 L99.1 42.55 Q98.15 42.15 97.9 41.6 97.7 41.25 97.9 40.65 98.0 40.2 98.85 39.6 L99.85 38.25 100.2 37.0 100.5 35.95 102.15 32.95 104.3 29.05 104.95 27.35 Q105.25 26.35 105.65 25.7 L106.3 24.8 106.75 23.9 107.1 23.15 107.4 22.35 108.1 20.55 Q108.55 19.5 109.2 19.0 111.1 17.5 112.55 18.3 113.85 19.0 113.6 20.1 L112.0 26.55 111.7 31.65 111.95 31.15 114.45 26.35 115.9 24.05 116.05 23.8 116.05 23.6 Q116.0 22.65 116.25 21.7 116.65 20.35 117.15 19.9 118.0 19.25 120.85 18.5 L121.25 18.6 Q121.8 19.1 121.8 19.55 L121.7 20.1 119.9 23.75 118.85 25.8 118.75 26.45 116.85 30.0 114.9 33.15 114.3 34.85 113.55 36.55 112.25 38.45 112.25 38.85 Q112.1 39.45 111.55 40.0 110.9 40.65 110.05 40.65 107.1 40.65 106.9 37.35 106.75 36.35 107.0 34.85 L107.2 33.25 107.35 31.05 106.95 31.8 M85.95 27.65 L85.5 28.65 86.85 28.5 Q90.0 28.45 89.45 30.4 89.25 31.05 88.65 31.55 87.95 32.05 87.1 32.05 L84.1 31.65 81.05 37.6 84.15 37.7 85.3 36.55 Q86.1 35.55 86.7 35.3 L87.3 36.05 87.3 36.85 86.4 38.45 86.0 39.25 85.45 40.05 84.35 40.7 82.55 41.05 78.9 41.35 77.6 41.65 Q76.3 41.65 76.2 40.6 L76.3 39.5 79.05 34.65 Q81.8 29.75 82.8 26.85 83.6 24.6 84.65 22.95 86.1 20.7 87.05 21.4 L87.1 21.5 90.0 21.2 Q91.6 21.3 92.65 21.85 93.75 22.5 93.5 23.45 93.25 24.25 92.45 24.9 91.35 25.7 89.9 25.7 87.7 25.7 86.5 25.1 L85.95 27.65 M75.9 18.1 L76.35 18.2 Q76.8 18.5 76.85 18.9 L76.75 19.6 75.55 21.35 74.45 22.65 73.95 24.2 73.5 25.7 72.55 28.8 73.7 28.55 75.85 28.7 76.65 27.3 78.4 23.65 Q79.55 21.1 80.05 20.1 L80.8 19.25 Q81.5 18.65 82.15 18.85 L82.25 19.65 82.05 20.55 81.75 22.65 81.4 24.25 79.45 28.9 77.15 33.65 76.3 35.85 75.05 38.25 73.25 41.15 Q72.05 42.85 71.35 42.85 70.85 42.85 70.85 42.25 L70.85 41.6 73.0 34.45 73.75 32.5 71.15 32.8 71.0 32.8 68.25 37.8 Q67.7 38.6 66.7 41.2 65.6 43.35 64.35 43.35 63.8 43.35 63.75 42.6 L63.7 41.85 Q64.25 39.85 65.85 35.7 L68.05 29.75 69.2 26.75 70.4 23.65 Q70.95 21.8 72.15 20.4 73.65 18.65 75.9 18.1 M104.95 22.8 Q104.5 24.3 102.2 28.0 L99.25 32.75 96.45 38.75 Q94.65 42.2 92.95 42.6 91.85 42.65 91.7 41.35 91.55 40.5 91.75 39.75 92.05 38.75 94.8 33.3 L97.8 27.65 101.1 21.6 Q101.45 20.8 102.35 20.0 103.7 18.85 104.65 19.7 105.2 20.55 105.2 21.25 L104.95 22.8 M68.7 22.15 L67.9 23.65 Q66.95 24.55 65.45 24.35 L64.75 24.2 64.5 25.35 64.1 27.1 62.4 30.7 60.4 34.7 58.35 39.1 Q56.75 42.1 55.7 42.1 54.95 42.1 55.15 40.65 L55.55 39.1 Q55.75 38.3 57.25 34.9 L58.8 31.15 61.0 24.2 60.45 24.35 59.3 24.85 58.2 25.1 Q57.05 25.1 56.9 24.2 L57.05 23.25 Q57.45 21.9 58.4 21.15 59.65 20.2 62.1 20.05 L67.8 20.4 Q69.05 20.9 68.7 22.15" fill="#000000" fill-rule="evenodd" stroke="none"/>
  </g>
</svg>
