<?xml version="1.0" encoding="UTF-8" standalone="no"?>
<svg xmlns:xlink="http://www.w3.org/1999/xlink" height="106.85px" width="349.25px" xmlns="http://www.w3.org/2000/svg">
  <g transform="matrix(1.0, 0.0, 0.0, 1.0, -272.15, -155.05)">
    <path d="M545.6 159.25 L571.4 159.2 574.15 159.1 577.0 159.05 593.45 159.1 593.45 159.5 598.2 159.55 601.45 159.4 611.6 159.25 611.6 159.9 613.4 160.0 615.45 160.0 615.45 163.4 614.55 163.35 Q614.75 164.1 614.4 165.95 614.35 167.3 615.45 168.3 L615.5 170.45 615.45 186.2 Q614.95 187.5 614.95 188.35 L615.45 190.4 615.45 190.45 614.55 190.45 614.55 201.65 614.95 201.65 615.05 204.6 615.45 206.25 615.45 211.3 Q614.9 212.6 614.2 215.6 613.55 218.9 613.55 220.65 613.55 221.55 614.5 223.7 615.35 225.75 615.45 226.65 L615.45 235.0 615.15 236.65 614.05 241.1 614.05 244.75 615.45 244.8 615.45 249.1 Q614.7 250.35 613.95 253.15 613.05 256.55 613.05 258.45 L613.1 259.2 559.55 259.2 559.55 258.8 545.25 259.2 518.8 259.2 518.8 258.8 513.55 258.75 513.5 259.1 512.15 259.1 512.2 259.2 483.75 259.2 482.95 258.95 482.95 257.2 482.45 257.2 482.45 256.55 477.2 256.5 476.85 256.7 476.3 256.95 476.3 257.95 475.8 257.95 475.5 258.3 474.8 258.6 474.8 258.8 Q467.85 258.75 467.0 258.85 L465.25 259.1 465.25 259.2 418.55 259.2 418.35 259.15 417.9 259.0 414.05 258.85 414.05 257.7 408.8 257.65 408.85 258.45 405.95 258.45 403.85 259.2 279.65 259.2 279.15 258.95 279.15 257.85 Q277.7 256.95 277.1 255.75 L277.1 248.5 277.7 248.5 277.7 235.55 277.1 234.3 277.1 227.85 277.7 224.3 277.7 218.55 278.2 218.55 278.2 214.1 Q277.7 213.65 277.7 212.65 L277.1 212.65 277.1 211.95 278.7 211.95 278.7 210.15 277.9 208.4 277.7 207.1 277.85 205.95 278.2 204.35 278.2 192.45 277.1 192.45 277.1 191.8 278.2 191.8 278.2 184.45 277.1 181.7 277.1 177.15 277.7 177.15 Q277.7 176.55 278.2 176.1 L278.2 170.25 Q278.2 169.4 278.7 169.05 L278.7 163.35 Q278.3 162.35 278.2 160.35 L280.5 159.0 284.4 159.0 284.4 159.35 298.3 159.4 304.0 159.15 306.95 159.0 310.3 159.0 310.3 159.35 318.45 159.35 331.75 159.5 340.9 159.6 350.95 159.75 356.4 159.35 362.35 159.0 471.4 159.0 471.4 159.5 505.35 159.4 505.35 159.0 527.4 159.0 527.4 159.5 537.0 159.55 541.55 159.45 545.6 159.25" fill="#000000" fill-opacity="0.3019608" fill-rule="evenodd" stroke="none"/>
    <path d="M617.0 162.4 L616.1 162.35 Q616.3 163.1 615.95 164.85 615.9 166.3 617.0 167.25 L617.05 169.4 617.0 185.2 Q616.5 186.5 616.5 187.3 L617.0 189.4 617.0 189.45 616.1 189.45 616.1 200.65 616.5 200.65 616.6 203.6 617.0 205.2 617.0 210.25 Q616.45 211.55 615.8 214.6 615.15 217.9 615.15 219.65 615.15 220.5 616.05 222.65 616.95 224.75 617.0 225.65 L617.0 233.95 616.7 235.6 615.6 240.0 615.6 243.75 617.0 243.8 617.0 248.05 Q616.25 249.35 615.5 252.1 614.6 255.55 614.6 257.45 L614.7 258.2 561.1 258.2 561.1 257.8 546.8 258.2 520.4 258.2 520.4 257.8 515.1 257.7 515.1 258.1 513.7 258.05 513.8 258.2 485.3 258.2 484.55 257.95 484.55 256.15 484.0 256.15 484.0 255.55 478.8 255.5 478.45 255.65 Q478.0 255.75 477.85 255.95 L477.85 256.95 477.4 256.9 477.05 257.25 Q476.75 257.45 476.4 257.6 L476.4 257.8 468.55 257.8 466.8 258.05 466.8 258.2 420.15 258.2 419.9 258.15 419.45 257.95 415.6 257.85 415.6 256.65 410.4 256.65 410.45 257.4 407.5 257.4 405.4 258.2 281.2 258.2 280.75 257.95 280.75 256.8 Q279.3 255.95 278.7 254.75 L278.7 247.45 279.3 247.45 279.3 234.55 278.7 233.2 278.7 226.85 Q278.95 224.55 279.3 223.25 L279.3 217.5 279.75 217.5 279.75 213.05 Q279.3 212.6 279.3 211.65 L278.7 211.65 278.7 210.9 280.25 210.9 280.25 209.1 Q279.75 208.45 279.5 207.35 L279.3 206.05 279.4 204.9 279.75 203.35 279.75 191.4 278.7 191.4 278.7 190.75 279.75 190.75 279.75 183.45 278.7 180.7 278.7 176.1 279.3 176.1 Q279.3 175.55 279.75 175.1 L279.75 169.25 Q279.8 168.4 280.25 167.95 L280.25 162.35 Q279.85 161.3 279.8 159.35 280.95 158.5 282.1 157.95 L285.95 157.95 285.95 158.35 299.9 158.35 305.6 158.15 308.55 157.95 311.85 157.95 311.85 158.35 320.0 158.35 333.35 158.4 342.45 158.6 352.5 158.75 358.0 158.3 363.9 157.95 473.0 157.95 473.0 158.5 483.55 158.5 484.95 158.4 506.95 158.35 506.95 157.95 528.95 157.95 528.95 158.5 538.55 158.5 543.1 158.4 547.15 158.25 573.0 158.2 575.7 158.05 578.55 158.0 595.0 158.05 595.0 158.5 599.75 158.5 603.0 158.35 613.15 158.2 613.15 158.8 614.95 159.0 617.0 159.0 617.0 162.4" fill="#ce9d46" fill-rule="evenodd" stroke="none"/>
    <path d="M504.65 156.9 L504.85 156.7 506.1 157.9 Q506.9 158.9 506.9 159.25 L506.8 159.6 506.45 159.6 Q505.55 159.25 505.25 158.4 L504.65 156.9 M554.2 156.9 L554.25 156.85 554.65 156.85 555.35 157.9 555.95 158.9 555.85 159.2 555.35 159.5 554.55 158.65 Q554.1 157.95 554.1 157.4 L554.2 156.9 M540.15 156.7 L540.65 156.65 Q542.1 157.45 542.6 159.85 L541.0 159.85 540.45 158.85 539.75 157.2 Q539.75 156.8 540.15 156.7 M538.65 159.85 L540.25 159.85 540.1 160.25 539.35 160.45 Q539.0 160.45 538.65 159.85 M602.05 156.6 L602.25 157.1 601.6 158.4 600.6 159.75 600.05 159.85 599.7 159.25 599.6 158.5 Q599.6 158.05 600.2 157.4 L601.45 156.45 602.05 156.6 M618.4 166.85 L615.5 167.15 612.5 166.9 612.4 166.65 616.8 166.2 619.25 165.85 619.45 166.25 618.4 166.85 M617.9 169.3 L615.45 169.1 613.5 168.8 616.15 168.45 618.85 168.45 619.05 168.9 618.8 169.2 617.9 169.3 M620.35 188.4 L619.5 188.55 617.2 188.25 614.6 187.85 Q614.4 188.15 614.4 187.5 614.4 186.05 620.5 188.05 L620.35 188.4 M334.85 155.9 Q335.8 156.45 335.75 157.8 335.65 159.3 336.0 159.7 L335.6 159.85 334.8 159.85 Q334.1 157.85 334.1 156.6 L334.15 156.1 334.3 155.9 334.85 155.9 M332.45 159.9 L332.45 159.85 333.2 159.85 332.45 159.9 M398.3 156.75 Q398.3 156.35 398.65 156.3 L398.9 156.3 Q399.9 156.8 400.2 157.65 L400.75 159.1 Q400.45 159.5 400.1 159.5 399.25 159.05 398.75 158.15 398.3 157.35 398.3 156.75 M390.55 158.2 L389.75 156.4 Q389.75 155.35 390.65 155.15 L392.35 159.25 391.65 159.85 Q391.35 159.7 390.55 158.2 M457.15 155.35 L457.35 155.95 Q457.35 156.7 454.85 159.85 L454.15 159.85 454.05 159.1 Q454.05 158.65 455.15 157.0 L456.6 155.2 457.15 155.35 M451.8 159.85 L452.5 159.85 452.45 159.9 451.8 159.9 451.8 159.85 M364.0 259.1 Q363.7 260.1 362.75 260.65 L362.3 260.5 Q362.15 260.35 362.15 259.95 362.15 259.1 362.75 257.6 363.35 256.0 363.75 255.95 364.15 256.4 364.15 257.4 L364.0 259.1 M352.8 260.7 L351.95 260.95 Q351.15 260.95 349.95 257.3 L350.15 256.75 Q350.3 256.6 350.75 256.5 351.65 257.0 352.05 258.35 352.55 259.85 353.05 260.4 L352.8 260.7 M343.75 261.45 Q343.6 261.35 343.6 260.95 L343.5 258.05 Q343.5 256.4 344.5 255.95 L344.85 258.6 345.05 261.25 344.3 261.65 343.75 261.45 M385.35 260.5 L385.05 260.8 384.2 261.0 383.45 260.95 383.4 260.85 382.85 258.85 382.5 257.2 Q382.5 256.8 382.85 256.8 L383.25 256.75 384.15 256.75 384.6 258.55 385.35 260.5 M618.4 216.95 L614.75 216.95 612.5 216.6 614.2 216.05 617.9 215.9 618.5 216.0 618.7 216.4 618.65 216.8 Q618.45 216.85 618.4 216.95 M618.3 213.45 L612.25 213.45 Q612.1 213.4 612.1 213.05 612.1 212.65 612.2 212.6 L612.3 212.65 616.7 212.55 617.55 212.6 618.85 212.7 619.05 213.05 Q618.75 213.4 618.3 213.45 M621.4 238.1 Q621.0 238.55 619.7 238.55 L616.25 238.45 613.3 238.15 Q615.55 237.0 617.8 237.1 L621.2 237.7 621.4 238.1 M599.85 259.55 L599.95 257.95 Q600.25 256.35 601.25 256.0 601.65 256.4 601.9 257.6 L601.9 260.7 601.05 261.15 Q600.15 260.95 599.95 260.35 L599.85 259.55 M571.95 256.6 L571.65 257.75 Q571.3 258.55 571.3 258.85 L571.1 259.55 Q570.8 259.95 570.8 260.25 L569.95 260.35 569.25 260.25 Q569.05 260.55 569.05 259.85 569.05 259.1 569.6 258.0 570.3 256.45 571.55 256.1 L571.9 256.2 571.95 256.6 M618.3 252.45 L616.4 251.75 Q615.2 251.3 614.8 251.05 615.65 250.25 617.15 250.7 618.25 251.0 619.1 251.75 619.05 252.25 618.3 252.45 M504.8 260.65 Q503.75 260.65 503.55 260.05 L503.55 259.35 Q503.35 258.8 503.4 258.15 503.45 257.0 504.6 256.65 L505.25 258.45 505.55 260.0 505.45 260.5 505.3 260.55 Q505.75 260.65 504.8 260.65 M543.8 259.95 L543.7 259.25 543.95 257.8 Q544.35 256.8 544.9 256.5 545.75 256.95 545.75 258.0 L545.05 259.3 544.2 260.5 543.8 259.95 M282.45 167.05 L281.3 167.25 278.75 167.15 276.7 166.9 Q278.95 165.6 282.65 166.3 L282.95 166.75 282.45 167.05 M276.75 182.55 L281.6 182.3 281.7 182.25 281.85 182.75 Q281.85 183.15 279.85 183.45 L275.9 183.75 275.2 183.7 275.2 183.6 Q275.0 183.95 275.0 183.3 275.0 182.85 276.75 182.55 M282.65 195.5 L282.75 195.9 Q282.75 196.9 275.9 197.95 L275.2 197.9 275.2 197.8 Q275.0 198.15 275.0 197.5 275.0 197.25 278.2 196.3 281.55 195.3 282.55 195.35 L282.65 195.5 M320.7 156.8 L321.25 156.8 321.45 157.0 321.45 157.55 321.05 159.5 320.35 159.6 320.15 159.45 320.15 158.9 320.4 157.85 320.7 156.8 M294.75 160.25 L294.15 160.45 293.4 160.1 Q293.25 159.9 293.25 159.5 293.25 155.8 294.6 155.05 295.0 155.45 295.25 156.2 L295.45 157.2 Q295.45 158.7 295.05 160.15 L294.75 160.25 M277.85 227.3 Q279.35 227.05 280.45 227.3 L280.6 227.75 280.45 228.25 278.95 228.35 277.3 228.55 276.45 228.55 Q276.25 228.5 276.25 228.05 276.25 227.6 277.85 227.3 M277.4 230.85 Q278.05 230.85 280.25 231.65 L280.45 232.0 Q279.95 232.55 279.3 232.7 L276.1 232.7 274.7 232.4 Q276.6 230.9 277.4 230.85 M280.8 245.4 L280.95 245.4 281.0 245.85 272.9 248.55 272.15 248.2 Q272.6 247.7 275.85 246.5 279.45 245.2 280.8 245.4 M313.15 261.75 L312.6 261.9 Q311.65 261.1 311.15 259.55 L310.45 256.85 310.7 256.65 Q312.2 257.15 312.9 259.2 L313.25 260.5 313.35 261.15 313.25 261.65 313.15 261.75 M286.7 256.2 L286.85 256.8 Q286.85 257.6 286.15 259.1 L285.15 261.25 284.5 261.4 283.85 261.35 283.75 260.8 Q283.75 260.25 284.6 258.35 285.55 256.35 286.15 256.0 L286.7 256.2" fill="#a88335" fill-rule="evenodd" stroke="none"/>
  </g>
</svg>
