<?xml version="1.0" encoding="UTF-8" standalone="no"?>
<svg xmlns:xlink="http://www.w3.org/1999/xlink" height="88.9px" width="182.8px" xmlns="http://www.w3.org/2000/svg">
  <g transform="matrix(1.0, 0.0, 0.0, 1.0, 131.85, 42.05)">
    <path d="M-126.7 12.15 Q-125.3 20.55 -121.35 27.65 -117.5 34.8 -112.5 38.2 -108.0 41.25 -96.6 39.95 -88.05 38.95 -72.8 35.0 L-47.6 28.35 Q-34.05 25.05 -27.35 25.05 -20.6 25.15 -10.9 27.95 -5.2 29.6 6.0 33.45 15.85 36.55 21.95 37.15 30.15 37.95 35.6 34.8 46.05 28.8 45.65 8.95 45.45 1.6 43.8 -6.2 42.4 -12.85 40.7 -16.6 37.05 -24.55 15.5 -30.2 -4.8 -35.5 -32.3 -36.6 -60.65 -37.8 -83.25 -33.85 -108.5 -29.4 -118.15 -19.8 -124.25 -13.75 -126.35 -4.9 -128.2 3.1 -126.7 12.15" fill="#ffffff" fill-rule="evenodd" stroke="none"/>
    <path d="M-126.7 12.15 Q-125.3 20.55 -121.35 27.65 -117.5 34.8 -112.5 38.2 -108.0 41.25 -96.6 39.95 -88.05 38.95 -72.8 35.0 L-47.6 28.35 Q-34.05 25.05 -27.35 25.05 -20.6 25.15 -10.9 27.95 -5.2 29.6 6.0 33.45 15.85 36.55 21.95 37.15 30.15 37.95 35.6 34.8 46.05 28.8 45.65 8.95 45.45 1.6 43.8 -6.2 42.4 -12.85 40.7 -16.6 37.05 -24.55 15.5 -30.2 -4.8 -35.5 -32.3 -36.6 -60.65 -37.8 -83.25 -33.85 -108.5 -29.4 -118.15 -19.8 -124.25 -13.75 -126.35 -4.9 -128.2 3.1 -126.7 12.15 Z" fill="none" stroke="#856301" stroke-linecap="round" stroke-linejoin="miter" stroke-miterlimit="3.0" stroke-width="9.0"/>
    <path d="M-126.7 12.15 Q-125.3 20.55 -121.35 27.65 -117.5 34.8 -112.5 38.2 -108.0 41.25 -96.6 39.95 -88.05 38.95 -72.8 35.0 L-47.6 28.35 Q-34.05 25.05 -27.35 25.05 -20.6 25.15 -10.9 27.95 -5.2 29.6 6.0 33.45 15.85 36.55 21.95 37.15 30.15 37.95 35.6 34.8 46.05 28.8 45.65 8.95 45.45 1.6 43.8 -6.2 42.4 -12.85 40.7 -16.6 37.05 -24.55 15.5 -30.2 -4.8 -35.5 -32.3 -36.6 -60.65 -37.8 -83.25 -33.85 -108.5 -29.4 -118.15 -19.8 -124.25 -13.75 -126.35 -4.9 -128.2 3.1 -126.7 12.15" fill="#cd960d" fill-rule="evenodd" stroke="none"/>
    <path d="M15.5 -30.25 Q37.1 -24.6 40.7 -16.6 42.45 -12.85 43.85 -6.25 45.45 1.55 45.7 8.9 46.1 28.8 35.6 34.8 L31.8 36.4 32.3 36.35 25.35 36.15 Q19.5 35.2 9.95 31.45 -1.0 27.05 -6.45 25.1 -15.85 21.75 -22.4 21.3 -28.85 20.95 -42.05 23.55 L-66.5 28.9 Q-81.3 32.05 -89.55 32.6 -100.6 33.35 -104.95 30.0 -109.8 26.35 -113.6 18.95 -117.35 11.55 -118.65 3.05 -120.05 -6.2 -118.25 -14.05 -117.15 -18.75 -115.0 -22.5 -104.75 -30.1 -83.25 -33.9 -60.65 -37.8 -32.25 -36.65 -4.85 -35.55 15.5 -30.25" fill="#ffcc33" fill-rule="evenodd" stroke="none"/>
    <path d="M-98.5 4.45 Q-97.25 9.4 -94.05 13.7 -90.85 17.9 -86.9 20.0 -83.35 21.85 -74.55 21.2 -68.0 20.65 -56.3 18.5 L-36.95 14.85 Q-26.55 13.0 -21.35 13.1 -16.15 13.2 -8.6 14.95 L4.6 18.35 Q12.3 20.35 17.05 20.75 23.35 21.3 27.55 19.5 35.5 16.05 34.7 4.3 34.4 -0.05 32.9 -4.7 31.65 -8.6 30.25 -10.85 27.25 -15.6 10.4 -19.2 -5.4 -22.55 -26.7 -23.45 -48.65 -24.45 -66.05 -22.35 -85.45 -19.95 -92.65 -14.35 -97.2 -10.9 -98.65 -5.65 -99.85 -0.9 -98.5 4.45" fill="#ff0000" fill-rule="evenodd" stroke="none"/>
    <path d="M-98.65 -5.4 L-98.6 -5.55 Q-97.15 -10.8 -92.6 -14.3 -85.35 -19.9 -66.0 -22.3 -48.6 -24.35 -26.6 -23.45 -5.4 -22.45 10.5 -19.15 27.35 -15.55 30.3 -10.8 31.7 -8.5 32.95 -4.65 34.4 0.0 34.75 4.3 35.2 11.1 32.85 15.1 L32.75 11.85 Q32.6 6.75 31.2 1.3 30.0 -3.3 28.55 -5.95 25.65 -11.45 8.7 -15.4 -7.4 -19.05 -28.95 -19.85 -51.25 -20.55 -68.95 -17.8 -88.75 -14.65 -96.2 -7.95 L-98.65 -5.4" fill="#cd0303" fill-rule="evenodd" stroke="none"/>
    <path d="M-66.0 -22.3 L-52.0 -23.4 -36.15 14.8 -36.95 14.95 -55.15 18.45 -71.7 -21.45 -66.0 -22.3 M-26.6 -23.45 Q-8.5 -22.6 5.65 -20.05 L22.65 20.8 Q20.1 21.1 17.05 20.8 12.4 20.45 4.7 18.45 L-8.55 15.05 Q-16.05 13.25 -21.3 13.1 L-28.8 13.75 -44.3 -23.65 Q-35.85 -23.8 -26.6 -23.45" fill="#ffffff" fill-rule="evenodd" stroke="none"/>
  </g>
</svg>
