<?xml version="1.0" encoding="UTF-8" standalone="no"?>
<svg xmlns:xlink="http://www.w3.org/1999/xlink" height="126.65px" width="137.05px" xmlns="http://www.w3.org/2000/svg">
  <g transform="matrix(1.0, 0.0, 0.0, 1.0, 67.05, 64.1)">
    <path d="M-53.65 6.0 L-36.15 23.85 Q-25.4 35.05 -21.55 42.55 L-19.4 47.2 Q-18.25 49.45 -16.4 51.25 -12.05 55.6 -4.0 57.4 3.1 59.0 11.75 58.4 19.85 57.85 26.65 55.65 33.5 53.4 36.2 50.25 39.15 46.9 43.85 38.75 48.95 29.95 53.55 19.9 65.45 -6.1 66.0 -21.9 66.45 -33.0 57.85 -43.2 49.0 -53.75 34.75 -58.3 27.6 -60.55 16.05 -60.0 4.8 -59.45 -7.95 -56.35 -36.65 -49.4 -53.7 -35.75 -62.85 -28.35 -63.05 -16.8 -63.2 -8.9 -59.6 -1.9 -57.8 1.75 -53.65 6.0" fill="#137bf0" fill-rule="evenodd" stroke="none"/>
    <path d="M-53.65 6.0 L-36.15 23.85 Q-25.4 35.05 -21.55 42.55 L-19.4 47.2 Q-18.25 49.45 -16.4 51.25 -12.05 55.6 -4.0 57.4 3.1 59.0 11.75 58.4 19.85 57.85 26.65 55.65 33.5 53.4 36.2 50.25 39.15 46.9 43.85 38.75 48.95 29.95 53.55 19.9 65.45 -6.1 66.0 -21.9 66.45 -33.0 57.85 -43.2 49.0 -53.75 34.75 -58.3 27.6 -60.55 16.05 -60.0 4.8 -59.45 -7.95 -56.35 -36.65 -49.4 -53.7 -35.75 -62.85 -28.35 -63.05 -16.8 -63.2 -8.9 -59.6 -1.9 -57.8 1.75 -53.65 6.0 Z" fill="none" stroke="#102c4d" stroke-linecap="round" stroke-linejoin="round" stroke-width="8.0"/>
    <path d="M-53.65 6.0 L-36.15 23.85 Q-25.4 35.05 -21.55 42.55 L-19.4 47.2 Q-18.25 49.45 -16.4 51.25 -12.05 55.6 -4.0 57.4 3.1 59.0 11.75 58.4 19.85 57.85 26.65 55.65 33.5 53.4 36.2 50.25 39.15 46.9 43.85 38.75 48.95 29.95 53.55 19.9 65.45 -6.1 66.0 -21.9 66.45 -33.0 57.85 -43.2 49.0 -53.75 34.75 -58.3 27.6 -60.55 16.05 -60.0 4.8 -59.45 -7.95 -56.35 -36.65 -49.4 -53.7 -35.75 -62.85 -28.35 -63.05 -16.8 -63.2 -8.9 -59.6 -1.9 -57.8 1.75 -53.65 6.0" fill="#137bf0" fill-rule="evenodd" stroke="none"/>
    <path d="M33.2 -40.7 L27.75 -42.0 Q21.9 -43.15 19.65 -42.5 16.8 -41.7 16.1 -40.55 15.35 -39.5 16.25 -36.95 17.1 -34.7 19.55 -33.15 21.55 -31.85 23.3 -31.75 L26.1 -32.2 27.55 -32.6 26.3 -37.55 34.35 -38.4 42.8 -9.95 Q45.0 -11.55 46.6 -13.8 51.85 -20.7 49.0 -29.5 46.25 -38.0 37.3 -43.2 L34.9 -44.45 33.2 -40.7 M11.65 -33.65 Q9.9 -35.95 9.05 -38.15 7.85 -41.4 8.75 -43.95 6.0 -42.2 3.95 -39.6 -1.25 -32.95 1.05 -24.5 3.4 -15.9 12.1 -10.35 L16.95 -7.8 Q13.15 -10.05 10.6 -12.85 8.5 -15.25 7.65 -17.45 6.55 -20.3 7.2 -23.7 7.75 -26.8 11.5 -29.25 13.4 -30.45 15.15 -31.0 L13.85 -31.75 Q12.4 -32.65 11.65 -33.65 M-2.8 -43.75 Q-9.65 -34.95 -6.7 -23.75 L-5.95 -21.3 Q-2.45 -11.5 7.85 -4.8 19.65 2.65 33.2 1.45 46.9 0.15 53.95 -9.3 60.85 -18.7 57.0 -30.3 53.25 -41.6 41.35 -48.5 29.7 -55.2 16.85 -53.75 4.1 -52.35 -2.8 -43.75 M16.3 -18.35 Q16.5 -16.05 17.8 -14.15 19.25 -12.1 21.85 -11.1 26.45 -9.25 30.65 -9.75 32.75 -10.05 33.95 -10.7 L29.35 -27.1 25.9 -27.2 Q21.95 -26.95 19.3 -25.35 17.75 -24.4 16.95 -22.45 16.05 -20.55 16.3 -18.35 M-0.05 -42.05 Q6.1 -49.9 17.6 -51.2 29.25 -52.5 39.75 -46.45 50.4 -40.2 53.8 -29.95 57.2 -19.5 51.0 -11.1 44.7 -2.65 32.4 -1.45 20.25 -0.3 9.6 -7.1 -0.85 -13.7 -3.65 -24.05 -6.3 -34.15 -0.05 -42.05" fill="#ff0000" fill-rule="evenodd" stroke="none"/>
    <path d="M11.65 -33.65 Q12.4 -32.65 13.85 -31.75 L15.15 -31.0 Q13.4 -30.45 11.5 -29.25 7.75 -26.8 7.2 -23.7 6.55 -20.3 7.65 -17.45 8.5 -15.25 10.6 -12.85 13.15 -10.05 16.95 -7.8 L12.1 -10.35 Q3.4 -15.9 1.05 -24.5 -1.25 -32.95 3.95 -39.6 6.0 -42.2 8.75 -43.95 7.85 -41.4 9.05 -38.15 9.9 -35.95 11.65 -33.65 M33.2 -40.7 L34.9 -44.45 37.3 -43.2 Q46.25 -38.0 49.0 -29.5 51.85 -20.7 46.6 -13.8 45.0 -11.55 42.8 -9.95 L34.35 -38.4 26.3 -37.55 27.55 -32.6 26.1 -32.2 23.3 -31.75 Q21.55 -31.85 19.55 -33.15 17.1 -34.7 16.25 -36.95 15.35 -39.5 16.1 -40.55 16.8 -41.7 19.65 -42.5 21.9 -43.15 27.75 -42.0 L33.2 -40.7 M-0.05 -42.05 Q-6.3 -34.15 -3.65 -24.05 -0.85 -13.7 9.6 -7.1 20.25 -0.3 32.4 -1.45 44.7 -2.65 51.0 -11.1 57.2 -19.5 53.8 -29.95 50.4 -40.2 39.75 -46.45 29.25 -52.5 17.6 -51.2 6.1 -49.9 -0.05 -42.05 M16.3 -18.35 Q16.05 -20.55 16.95 -22.45 17.75 -24.4 19.3 -25.35 21.95 -26.95 25.9 -27.2 L29.35 -27.1 33.95 -10.7 Q32.75 -10.05 30.65 -9.75 26.45 -9.25 21.85 -11.1 19.25 -12.1 17.8 -14.15 16.5 -16.05 16.3 -18.35" fill="#ffbf1e" fill-rule="evenodd" stroke="none"/>
    <path d="M46.0 34.9 L43.85 38.75 Q39.15 46.9 36.2 50.25 33.5 53.4 26.65 55.65 19.85 57.85 11.75 58.4 3.05 59.0 -4.05 57.4 -12.05 55.6 -16.4 51.25 -18.3 49.45 -19.4 47.2 L-21.6 42.55 Q-23.0 39.85 -25.2 36.7 L-26.0 36.7 46.6 34.9 46.0 34.9" fill="#ff0000" fill-rule="evenodd" stroke="none"/>
    <path d="M51.7 23.85 Q47.9 31.7 43.85 38.75 L41.75 42.25 Q9.55 52.15 -19.75 46.3 L-21.6 42.55 Q-24.55 36.75 -31.65 28.7 13.1 38.6 52.25 23.65 L51.7 23.85" fill="#ffcc00" fill-rule="evenodd" stroke="none"/>
  </g>
</svg>
