<?xml version="1.0" encoding="UTF-8" standalone="no"?>
<svg xmlns:xlink="http://www.w3.org/1999/xlink" height="412.3px" width="378.55px" xmlns="http://www.w3.org/2000/svg">
  <g transform="matrix(1.0, 0.0, 0.0, 1.0, 189.25, 203.9)">
    <path d="M151.0 66.25 Q151.0 120.15 111.55 159.1 L97.95 159.1 97.95 149.9 -90.05 149.9 -90.05 159.1 -111.75 159.1 Q-151.25 120.15 -151.25 66.25 -151.25 9.2 -106.95 -31.15 -62.7 -71.5 -0.1 -71.5 62.45 -71.5 106.75 -31.15 151.0 9.2 151.0 66.25" fill="#a15800" fill-rule="evenodd" stroke="none"/>
    <path d="M151.0 66.25 Q151.0 120.15 111.55 159.1 L97.95 159.1 97.95 149.9 -90.05 149.9 -90.05 159.1 -111.75 159.1 Q-151.25 120.15 -151.25 66.25 -151.25 9.2 -106.95 -31.15 -62.7 -71.5 -0.1 -71.5 62.45 -71.5 106.75 -31.15 151.0 9.2 151.0 66.25 Z" fill="none" stroke="#a15800" stroke-linecap="round" stroke-linejoin="round" stroke-width="9.0"/>
    <path d="M151.0 66.25 Q151.0 120.15 111.55 159.1 L97.95 159.1 97.95 149.9 -90.05 149.9 -90.05 159.1 -111.75 159.1 Q-151.25 120.15 -151.25 66.25 -151.25 9.2 -106.95 -31.15 -62.7 -71.5 -0.1 -71.5 62.45 -71.5 106.75 -31.15 151.0 9.2 151.0 66.25" fill="#ffc812" fill-rule="evenodd" stroke="none"/>
    <path d="M-0.1 -71.45 Q38.55 -71.45 70.25 -56.0 L42.85 149.95 -43.0 149.95 -70.5 -56.05 Q-38.8 -71.45 -0.1 -71.45" fill="#f39200" fill-rule="evenodd" stroke="none"/>
    <path d="M151.0 66.25 Q151.0 120.15 111.6 159.15 L97.95 159.15 97.95 149.95 -66.5 149.95 150.6 55.15 Q151.0 60.65 151.0 66.25" fill="#f39200" fill-rule="evenodd" stroke="none"/>
    <path d="M-150.9 54.85 Q-42.05 102.35 66.9 149.95 L-90.05 149.95 -90.05 159.15 -111.75 159.15 Q-151.2 120.15 -151.2 66.25 -151.2 60.5 -150.75 54.9 L-150.9 54.85" fill="#f39200" fill-rule="evenodd" stroke="none"/>
    <path d="M-54.7 -11.05 Q-26.35 -20.7 -0.3 -19.45 25.85 -20.75 54.1 -11.05 87.35 0.35 97.2 27.45 111.8 67.7 102.75 119.3 107.3 118.1 112.5 118.45 125.85 119.2 135.9 129.35 146.05 139.55 147.25 153.55 148.6 167.85 140.05 178.1 131.2 188.55 117.1 188.55 102.75 188.5 91.85 177.55 89.0 174.7 86.9 171.55 83.1 179.7 79.2 185.1 77.8 187.0 69.75 190.15 61.5 193.35 50.1 196.4 21.55 203.9 -0.6 203.9 -22.75 203.9 -50.95 196.4 -62.25 193.35 -70.45 190.15 -78.4 187.0 -79.8 185.1 -83.75 179.6 -87.6 171.3 -89.8 174.55 -92.75 177.55 -103.65 188.5 -118.05 188.55 -132.15 188.55 -141.0 178.1 -149.5 167.85 -148.15 153.55 -146.95 139.55 -136.85 129.35 -126.8 119.2 -113.4 118.45 -108.0 118.05 -103.25 119.4 -112.35 67.75 -97.75 27.45 -87.9 0.35 -54.7 -11.05" fill="#a15800" fill-rule="evenodd" stroke="none"/>
    <path d="M-54.7 -11.05 Q-87.9 0.35 -97.75 27.45 -112.35 67.75 -103.25 119.4 -108.0 118.05 -113.4 118.45 -126.8 119.2 -136.85 129.35 -146.95 139.55 -148.15 153.55 -149.5 167.85 -141.0 178.1 -132.15 188.55 -118.05 188.55 -103.65 188.5 -92.75 177.55 -89.8 174.55 -87.6 171.3 -83.75 179.6 -79.8 185.1 -78.4 187.0 -70.45 190.15 -62.25 193.35 -50.95 196.4 -22.75 203.9 -0.6 203.9 21.55 203.9 50.1 196.4 61.5 193.35 69.75 190.15 77.8 187.0 79.2 185.1 83.1 179.7 86.9 171.55 89.0 174.7 91.85 177.55 102.75 188.5 117.1 188.55 131.2 188.55 140.05 178.1 148.6 167.85 147.25 153.55 146.05 139.55 135.9 129.35 125.85 119.2 112.5 118.45 107.3 118.1 102.75 119.3 111.8 67.7 97.2 27.45 87.35 0.35 54.1 -11.05 25.85 -20.75 -0.3 -19.45 -26.35 -20.7 -54.7 -11.05 Z" fill="none" stroke="#a15800" stroke-linecap="round" stroke-linejoin="round" stroke-width="9.0"/>
    <path d="M112.45 118.45 Q98.9 117.6 89.45 127.0 79.8 136.7 80.35 151.45 80.9 166.5 91.8 177.5 102.7 188.5 117.1 188.55 131.2 188.55 140.05 178.05 148.6 167.85 147.25 153.55 146.0 139.55 135.9 129.35 125.85 119.2 112.45 118.45" fill="#ffc812" fill-rule="evenodd" stroke="none"/>
    <path d="M103.35 129.95 Q94.0 129.35 87.5 135.85 80.85 142.5 81.25 152.65 81.6 163.0 89.15 170.6 96.65 178.1 106.5 178.15 116.2 178.15 122.3 170.95 128.15 163.9 127.25 154.1 126.4 144.45 119.45 137.45 112.55 130.45 103.35 129.95" fill="#ff9310" fill-rule="evenodd" stroke="none"/>
    <path d="M-113.4 118.45 Q-99.85 117.6 -90.4 127.0 -80.75 136.7 -81.3 151.45 -81.85 166.5 -92.75 177.5 -103.65 188.5 -118.05 188.55 -132.15 188.55 -141.0 178.05 -149.55 167.85 -148.2 153.55 -146.95 139.55 -136.85 129.35 -126.8 119.2 -113.4 118.45" fill="#ffc812" fill-rule="evenodd" stroke="none"/>
    <path d="M-104.3 129.95 Q-94.95 129.35 -88.45 135.85 -81.8 142.5 -82.2 152.65 -82.55 163.0 -90.1 170.6 -97.6 178.1 -107.45 178.15 -117.15 178.15 -123.25 170.95 -129.1 163.9 -128.2 154.1 -127.35 144.45 -120.4 137.45 -113.5 130.45 -104.3 129.95" fill="#ff9310" fill-rule="evenodd" stroke="none"/>
    <path d="M-54.7 -11.05 Q-26.35 -20.7 -0.3 -19.45 25.85 -20.75 54.1 -11.05 87.35 0.35 97.2 27.45 112.05 68.5 102.35 121.3 98.6 141.9 91.65 160.05 85.5 176.35 79.2 185.1 77.8 187.0 69.75 190.15 61.5 193.35 50.1 196.4 21.55 203.9 -0.6 203.9 -22.75 203.9 -50.95 196.4 -62.25 193.35 -70.45 190.15 -78.4 187.0 -79.8 185.1 -86.1 176.35 -92.25 160.05 -99.15 141.9 -102.95 121.3 -112.6 68.5 -97.75 27.45 -87.9 0.35 -54.7 -11.05" fill="#ffc812" fill-rule="evenodd" stroke="none"/>
    <path d="M2.4 -11.85 Q25.05 -13.0 49.5 -4.6 78.3 5.25 86.8 28.7 L87.45 30.5 71.85 30.5 Q58.35 16.3 35.4 8.4 2.15 -3.0 -28.7 -1.45 L-54.7 -0.45 Q-50.05 -2.75 -44.7 -4.6 -20.2 -12.95 2.4 -11.85" fill="#ffffff" fill-opacity="0.6" fill-rule="evenodd" stroke="none"/>
    <path d="M5.9 34.2 Q17.9 -3.8 36.85 -4.9 57.6 -5.95 71.65 4.55 83.6 13.55 89.85 30.0 95.05 43.8 95.55 60.25 96.0 74.5 93.0 83.75 88.55 97.45 74.2 102.5 66.95 105.15 60.55 105.0 64.45 106.95 68.4 110.7 76.4 118.3 76.9 127.35 77.35 136.2 70.0 147.45 63.7 156.3 56.7 161.5 53.1 163.7 44.9 165.55 28.7 169.3 -0.3 169.3 -29.25 169.3 -45.5 165.55 -53.75 163.7 -57.4 161.45 -64.4 156.3 -70.65 147.45 -78.05 136.2 -77.6 127.35 -77.1 118.3 -69.05 110.7 -65.1 106.95 -61.25 105.0 -67.65 105.15 -74.9 102.5 -89.25 97.45 -93.65 83.75 -96.7 74.5 -96.25 60.25 -95.7 43.8 -90.5 30.0 -84.3 13.55 -72.35 4.55 -58.25 -5.95 -37.5 -4.9 -18.6 -3.8 -6.55 34.2 -3.55 43.9 -1.5 53.65 L-0.35 59.35 0.8 53.65 Q2.85 43.9 5.9 34.2" fill="#ff9310" fill-rule="evenodd" stroke="none"/>
    <path d="M-32.2 80.35 Q-41.2 89.35 -54.0 89.35 -66.75 89.35 -75.75 80.35 -84.75 71.4 -84.75 58.6 -84.75 45.8 -75.75 36.8 -66.75 27.9 -54.0 27.9 -41.2 27.9 -32.2 36.8 -23.25 45.8 -23.25 58.6 -23.25 71.4 -32.2 80.35" fill="#ffffff" fill-rule="evenodd" stroke="none"/>
    <path d="M-32.2 80.35 Q-41.2 89.35 -54.0 89.35 -66.75 89.35 -75.75 80.35 -84.75 71.4 -84.75 58.6 -84.75 45.8 -75.75 36.8 -66.75 27.9 -54.0 27.9 -41.2 27.9 -32.2 36.8 -23.25 45.8 -23.25 58.6 -23.25 71.4 -32.2 80.35 Z" fill="none" stroke="#a15800" stroke-linecap="round" stroke-linejoin="round" stroke-width="9.0"/>
    <path d="M-32.2 80.35 Q-41.2 89.35 -54.0 89.35 -66.75 89.35 -75.75 80.35 -84.75 71.4 -84.75 58.6 -84.75 45.8 -75.75 36.8 -66.75 27.9 -54.0 27.9 -41.2 27.9 -32.2 36.8 -23.25 45.8 -23.25 58.6 -23.25 71.4 -32.2 80.35" fill="#ffbb12" fill-rule="evenodd" stroke="none"/>
    <path d="M-37.1 68.6 Q-44.05 75.4 -53.95 75.4 -63.85 75.4 -70.85 68.6 -77.8 61.85 -77.8 52.2 -77.8 42.55 -70.85 35.75 -63.85 29.0 -53.95 29.0 -44.05 29.0 -37.1 35.75 -30.1 42.55 -30.1 52.2 -30.1 61.85 -37.1 68.6" fill="#ffffff" fill-rule="evenodd" stroke="none"/>
    <path d="M-8.45 -203.9 L-34.1 31.75 -37.35 61.35 Q-44.25 67.9 -53.95 67.9 -63.7 67.9 -70.55 61.35 L-76.85 51.45 -189.25 -125.6 -8.45 -203.9" fill="#ffc812" fill-opacity="0.4" fill-rule="evenodd" stroke="none"/>
    <path d="M32.25 80.35 Q41.25 89.35 54.05 89.35 66.8 89.35 75.8 80.35 84.8 71.4 84.8 58.6 84.8 45.8 75.8 36.8 66.8 27.9 54.05 27.9 41.25 27.9 32.25 36.8 23.3 45.8 23.3 58.6 23.3 71.4 32.25 80.35" fill="#ffffff" fill-rule="evenodd" stroke="none"/>
    <path d="M32.25 80.35 Q41.25 89.35 54.05 89.35 66.8 89.35 75.8 80.35 84.8 71.4 84.8 58.6 84.8 45.8 75.8 36.8 66.8 27.9 54.05 27.9 41.25 27.9 32.25 36.8 23.3 45.8 23.3 58.6 23.3 71.4 32.25 80.35 Z" fill="none" stroke="#a15800" stroke-linecap="round" stroke-linejoin="round" stroke-width="9.0"/>
    <path d="M32.25 80.35 Q41.25 89.35 54.05 89.35 66.8 89.35 75.8 80.35 84.8 71.4 84.8 58.6 84.8 45.8 75.8 36.8 66.8 27.9 54.05 27.9 41.25 27.9 32.25 36.8 23.3 45.8 23.3 58.6 23.3 71.4 32.25 80.35" fill="#ffbb12" fill-rule="evenodd" stroke="none"/>
    <path d="M37.15 68.6 Q44.1 75.4 54.0 75.4 63.9 75.4 70.9 68.6 77.85 61.85 77.85 52.2 77.85 42.55 70.9 35.75 63.9 29.0 54.0 29.0 44.1 29.0 37.15 35.75 30.15 42.55 30.15 52.2 30.15 61.85 37.15 68.6" fill="#ffffff" fill-rule="evenodd" stroke="none"/>
    <path d="M8.5 -203.9 L34.15 31.75 37.4 61.35 Q44.3 67.9 54.0 67.9 63.75 67.9 70.6 61.35 L76.9 51.45 189.3 -125.6 8.5 -203.9" fill="#ffc812" fill-opacity="0.4" fill-rule="evenodd" stroke="none"/>
    <path d="M146.4 57.75 Q129.9 27.15 101.35 1.15 40.5 -54.3 -43.0 -59.65 -24.4 -64.0 -3.85 -64.0 58.7 -64.0 102.95 -23.65 140.9 10.95 146.4 57.75" fill="#ffffff" fill-opacity="0.6" fill-rule="evenodd" stroke="none"/>
  </g>
</svg>
