<?xml version="1.0" encoding="UTF-8" standalone="no"?>
<svg xmlns:xlink="http://www.w3.org/1999/xlink" height="30.2px" width="17.85px" xmlns="http://www.w3.org/2000/svg">
  <g transform="matrix(1.0, 0.0, 0.0, 1.0, -6.15, 9.4)">
    <path d="M10.1 -3.35 L10.35 -3.2 10.5 -3.1 10.5 -3.0 10.6 -2.8 10.7 -2.35 10.75 -2.0 10.75 -0.8 10.95 0.3 11.2 1.4 11.6 1.95 11.6 2.0 12.7 2.2 12.75 2.2 12.75 2.1 12.75 2.0 12.75 1.65 12.75 1.25 12.75 1.15 12.75 1.0 12.85 -2.3 12.85 -2.9 12.85 -5.45 Q12.9 -6.1 13.1 -6.55 L13.15 -6.7 13.25 -6.85 13.25 -6.95 13.9 -7.65 14.2 -7.85 14.25 -7.85 14.4 -7.8 14.6 -7.9 14.75 -7.9 14.8 -7.85 14.85 -7.85 14.9 -7.8 15.0 -7.75 15.2 -7.7 16.0 -7.0 16.3 -6.45 16.35 -6.4 16.35 -6.3 16.6 -5.6 16.65 -5.4 16.65 -5.35 16.7 -5.2 16.95 -3.3 17.1 -1.7 17.4 1.65 17.7 1.85 17.8 1.85 17.9 1.95 Q18.8 1.5 19.05 0.35 L19.1 0.2 19.2 -0.4 19.2 -0.7 19.2 -0.75 19.15 -1.1 19.05 -1.7 19.05 -1.75 Q18.85 -2.4 19.1 -2.95 L19.15 -3.0 19.2 -3.2 19.7 -3.8 19.75 -3.8 19.85 -3.9 19.9 -3.9 19.9 -3.95 20.05 -4.0 20.1 -4.0 20.75 -4.05 20.8 -4.05 20.95 -4.0 21.45 -3.55 21.5 -3.45 21.8 -3.1 22.1 -2.2 22.25 -1.85 22.5 0.05 22.35 1.8 22.3 1.85 22.3 1.9 22.35 1.85 22.25 2.25 22.05 2.7 21.85 3.1 21.75 3.25 21.75 3.3 21.7 3.3 21.7 3.4 21.7 3.45 21.6 3.5 21.55 3.6 20.75 5.25 20.05 5.95 19.2 6.5 18.6 6.7 18.55 6.75 18.35 6.8 18.15 6.85 18.05 6.85 17.75 6.9 17.75 7.05 17.8 7.45 Q18.15 12.0 17.6 16.45 17.45 17.65 16.65 18.35 L16.55 18.45 16.55 18.5 16.35 18.65 15.4 19.2 15.3 19.25 15.15 19.25 15.1 19.25 Q13.6 19.6 12.5 17.7 L12.25 16.55 12.3 16.1 12.3 16.0 12.3 15.95 12.3 15.15 12.6 7.5 12.6 7.3 12.6 6.85 12.3 6.85 10.0 6.1 9.25 5.65 9.1 5.55 9.0 5.45 8.8 5.25 8.75 5.25 8.75 5.15 8.25 4.25 8.2 4.0 8.05 3.65 8.05 3.6 7.95 3.1 7.7 1.55 7.7 1.5 7.7 1.25 7.7 0.3 7.7 0.0 7.75 -1.25 7.75 -1.3 7.8 -1.55 7.85 -1.65 7.85 -1.9 7.9 -1.95 7.95 -2.0 7.95 -2.05 Q8.1 -2.65 8.4 -3.0 8.75 -3.45 9.3 -3.45 L10.0 -3.45 10.1 -3.4 10.1 -3.35 Z" fill="none" stroke="#2e5a01" stroke-linecap="round" stroke-linejoin="round" stroke-width="3.0"/>
    <path d="M9.2 -3.4 L9.9 -3.35 9.65 -3.0 Q8.8 -1.8 8.8 -0.35 8.75 1.55 9.75 3.1 11.1 5.3 13.8 4.95 L13.65 5.5 13.35 6.05 13.1 6.05 12.15 5.85 Q11.15 5.65 10.35 5.05 9.5 4.4 9.1 3.5 L8.55 2.3 8.4 1.4 8.2 0.25 8.2 -0.25 Q8.15 -1.35 8.55 -2.25 L8.85 -2.75 9.1 -3.1 9.25 -3.15 9.3 -3.2 9.15 -3.2 9.2 -3.4 M10.0 -3.3 L10.0 -3.25 10.25 -3.1 9.95 -1.1 Q9.9 0.0 10.0 1.0 10.15 2.25 11.05 3.0 12.4 4.0 13.7 3.15 L13.9 4.2 13.8 4.95 Q12.25 5.0 10.9 4.15 10.0 3.55 9.45 2.45 8.75 0.9 9.0 -0.85 L9.25 -1.65 10.0 -3.3 M10.4 -2.9 L10.5 -2.7 10.6 -2.25 10.65 -1.9 10.65 -0.7 11.05 1.5 11.45 2.05 12.6 2.3 12.65 2.4 12.65 2.45 12.9 2.65 13.1 2.65 13.35 2.65 13.6 3.05 13.4 3.1 Q12.05 3.75 11.0 2.8 10.2 2.05 10.1 0.9 L10.15 -1.1 10.4 -2.9 M12.75 -2.85 L12.75 -5.35 12.85 -6.0 12.85 -5.9 12.8 -5.65 12.8 -4.15 12.85 -2.9 12.75 -2.85 M15.1 -7.6 L15.85 -6.9 Q15.85 -6.7 16.0 -6.45 L16.85 -3.2 17.0 -1.6 17.25 1.75 17.6 1.95 17.55 1.95 17.55 2.05 17.4 2.1 17.55 2.25 17.55 2.3 17.55 4.4 17.6 6.35 17.45 6.45 17.45 6.55 17.5 6.7 17.55 7.0 17.6 7.15 17.65 7.55 Q18.0 12.05 17.5 16.55 17.35 17.7 16.55 18.45 L16.45 18.55 16.6 17.4 Q17.15 13.75 17.05 10.05 L16.75 2.65 16.35 -1.1 Q15.85 -4.4 14.95 -7.55 L15.0 -7.6 15.1 -7.6 M19.0 0.3 L19.05 -0.3 19.15 -0.25 19.0 0.3 M18.9 -1.65 L18.85 -2.15 18.9 -1.85 18.9 -1.75 18.9 -1.65 M19.75 -3.8 L19.8 -3.8 19.75 -3.65 19.75 -3.8 M19.95 -3.9 L20.65 -3.95 20.65 -3.4 21.15 -1.25 Q21.55 0.35 20.8 1.85 19.9 3.9 17.75 4.75 18.7 4.5 19.6 3.7 20.95 2.65 21.35 0.9 21.55 0.15 21.35 -0.7 21.0 -2.25 20.8 -3.9 L21.35 -3.45 21.4 -3.35 21.7 -3.05 22.0 -2.15 22.1 -1.75 22.4 0.15 22.25 1.9 22.2 1.95 22.05 2.35 21.9 2.8 21.7 3.2 21.65 3.35 21.6 3.4 21.55 3.5 21.55 3.55 21.5 3.6 Q20.05 5.1 17.95 5.75 L18.25 5.75 Q19.7 5.3 20.95 4.35 L19.75 5.3 17.85 6.3 17.65 3.55 17.65 3.15 17.6 2.3 18.3 2.1 Q19.2 1.45 19.5 0.4 19.8 -0.75 19.4 -1.8 19.2 -2.35 19.45 -2.85 L19.6 -3.2 Q19.5 -2.3 19.95 -1.55 20.45 -0.7 20.25 0.25 L19.75 1.6 19.6 1.7 19.05 2.35 18.25 2.95 17.65 3.15 18.45 3.05 Q19.55 2.3 20.1 1.0 20.5 0.1 20.3 -0.8 L19.8 -2.4 Q19.55 -3.3 19.95 -3.9 M16.2 18.75 L15.3 19.3 15.1 19.25 15.25 17.1 Q15.25 13.4 15.4 9.7 L15.5 7.8 Q15.6 4.1 15.35 0.45 15.15 -3.2 14.45 -6.75 L14.4 -6.75 15.1 -0.75 15.4 6.65 15.3 11.25 15.15 16.8 14.95 19.15 Q13.5 17.75 13.4 15.65 L13.5 11.7 13.55 9.4 13.5 6.2 13.45 6.2 13.45 6.1 13.9 4.95 13.9 4.85 13.95 3.55 13.45 2.6 14.0 1.15 13.75 -1.95 Q13.55 -3.45 13.5 -5.0 13.45 -5.85 13.9 -6.45 L14.15 -6.9 14.2 -6.9 14.25 -6.95 14.45 -7.25 14.7 -7.45 14.8 -7.5 15.15 -5.85 Q16.35 -2.3 16.55 1.5 L16.9 8.9 16.9 12.6 Q16.75 15.7 16.2 18.75 M12.15 16.2 L12.15 16.1 12.2 16.1 12.15 16.2 M8.95 5.65 L8.9 5.55 8.95 5.55 8.95 5.65 M8.05 4.1 L7.95 3.7 8.0 3.7 8.05 4.1 M7.85 -1.95 L8.25 -2.8 8.2 -2.7 7.85 -1.95 M14.6 -7.65 L14.6 -7.6 14.45 -7.45 14.45 -7.4 14.4 -7.35 14.3 -7.25 14.4 -7.45 14.45 -7.55 14.5 -7.6 14.55 -7.6 14.6 -7.65 M18.0 6.7 L18.05 6.7 18.0 6.75 18.0 6.7" fill="#55a901" fill-rule="evenodd" stroke="none"/>
    <path d="M9.9 -3.35 L10.0 -3.3 9.25 -1.65 9.0 -0.85 Q8.75 0.9 9.45 2.45 10.0 3.55 10.9 4.15 12.25 5.0 13.8 4.95 L13.9 4.2 13.7 3.15 Q12.4 4.0 11.05 3.0 10.15 2.25 10.0 1.0 9.9 0.0 9.95 -1.1 L10.25 -3.1 10.35 -3.0 10.4 -2.9 10.15 -1.1 10.1 0.9 Q10.2 2.05 11.0 2.8 12.05 3.75 13.4 3.1 L13.6 3.05 13.35 2.65 13.1 2.65 12.9 2.65 12.65 2.45 12.65 2.4 12.6 2.3 12.65 2.3 12.65 2.2 12.65 1.75 12.65 1.35 12.65 1.2 12.65 1.05 12.75 -2.2 12.75 -2.85 12.85 -2.9 12.8 -4.15 12.8 -5.65 12.85 -5.9 12.85 -6.0 13.0 -6.45 13.0 -6.6 13.15 -6.75 13.15 -6.85 13.75 -7.55 14.1 -7.75 14.15 -7.75 14.25 -7.7 14.3 -7.7 14.45 -7.8 14.6 -7.8 14.7 -7.75 14.75 -7.75 14.8 -7.7 14.9 -7.65 15.1 -7.6 15.0 -7.6 14.95 -7.55 Q15.85 -4.4 16.35 -1.1 L16.75 2.65 17.05 10.05 Q17.15 13.75 16.6 17.4 L16.45 18.55 16.45 18.6 16.2 18.75 Q16.75 15.7 16.9 12.6 L16.9 8.9 16.55 1.5 Q16.35 -2.3 15.15 -5.85 L14.8 -7.5 14.7 -7.45 14.45 -7.25 14.25 -6.95 14.2 -6.9 14.15 -6.9 13.9 -6.45 Q13.45 -5.85 13.5 -5.0 13.55 -3.45 13.75 -1.95 L14.0 1.15 13.45 2.6 13.95 3.55 13.9 4.85 13.9 4.95 13.45 6.1 13.45 6.2 13.5 6.2 13.55 9.4 13.5 11.7 13.4 15.65 Q13.5 17.75 14.95 19.15 L15.15 16.8 15.3 11.25 15.4 6.65 15.1 -0.75 14.4 -6.75 14.45 -6.75 Q15.15 -3.2 15.35 0.45 15.6 4.1 15.5 7.8 L15.4 9.7 Q15.25 13.4 15.25 17.1 L15.1 19.25 15.3 19.3 15.15 19.3 15.05 19.35 14.95 19.35 Q13.5 19.7 12.4 17.8 12.1 17.3 12.1 16.65 L12.15 16.2 12.2 16.1 12.15 16.1 12.15 16.05 12.2 15.25 12.5 7.6 12.5 7.4 12.5 6.95 12.15 6.9 9.85 6.2 8.95 5.65 8.95 5.55 8.9 5.55 8.7 5.3 8.6 5.3 8.6 5.25 8.15 4.35 8.05 4.1 8.0 3.7 7.95 3.7 7.85 3.2 7.6 1.65 7.6 1.6 7.55 1.35 7.55 0.1 7.65 -1.15 7.65 -1.2 7.7 -1.45 7.7 -1.55 7.75 -1.8 7.8 -1.85 7.85 -1.9 7.85 -1.95 8.2 -2.7 8.25 -2.8 8.3 -2.9 Q8.65 -3.35 9.2 -3.4 L9.15 -3.2 9.3 -3.2 9.25 -3.15 9.1 -3.1 8.85 -2.75 8.55 -2.25 Q8.15 -1.35 8.2 -0.25 L8.2 0.25 8.4 1.4 8.55 2.3 9.1 3.5 Q9.5 4.4 10.35 5.05 11.15 5.65 12.15 5.85 L13.1 6.05 13.35 6.05 13.65 5.5 13.8 4.95 Q11.1 5.3 9.75 3.1 8.75 1.55 8.8 -0.35 8.8 -1.8 9.65 -3.0 L9.9 -3.35 M15.85 -6.9 L16.2 -6.4 16.25 -6.3 16.25 -6.25 16.5 -5.5 16.55 -5.35 16.55 -5.25 16.55 -5.1 16.85 -3.2 16.0 -6.45 Q15.85 -6.7 15.85 -6.9 M17.6 1.95 L17.65 1.95 17.8 2.05 Q18.7 1.6 18.95 0.45 L19.0 0.3 19.15 -0.25 19.05 -0.3 19.05 -0.6 19.05 -0.65 19.05 -0.75 19.05 -1.0 18.9 -1.6 18.9 -1.65 18.9 -1.75 18.9 -1.85 18.85 -2.15 19.0 -2.85 19.05 -2.9 19.1 -3.1 19.55 -3.7 19.6 -3.75 19.75 -3.8 19.75 -3.65 19.8 -3.8 19.8 -3.85 19.95 -3.9 Q19.55 -3.3 19.8 -2.4 L20.3 -0.8 Q20.5 0.1 20.1 1.0 19.55 2.3 18.45 3.05 L17.65 3.15 18.25 2.95 19.05 2.35 19.6 1.7 19.75 1.6 20.25 0.25 Q20.45 -0.7 19.95 -1.55 19.5 -2.3 19.6 -3.2 L19.45 -2.85 Q19.2 -2.35 19.4 -1.8 19.8 -0.75 19.5 0.4 19.2 1.45 18.3 2.1 L17.6 2.3 17.65 3.15 17.65 3.55 17.85 6.3 19.75 5.3 20.95 4.35 Q19.7 5.3 18.25 5.75 L17.95 5.75 Q20.05 5.1 21.5 3.6 L21.45 3.7 20.65 5.3 19.95 6.05 19.1 6.6 18.5 6.8 18.45 6.85 18.2 6.9 18.0 6.9 17.95 6.95 17.6 7.0 17.6 7.15 17.55 7.0 17.5 6.7 17.45 6.55 17.45 6.45 17.6 6.35 17.55 4.4 17.55 2.3 17.55 2.25 17.4 2.1 17.55 2.05 17.55 1.95 17.6 1.95 M20.65 -3.95 L20.7 -3.95 20.8 -3.9 Q21.0 -2.25 21.35 -0.7 21.55 0.15 21.35 0.9 20.95 2.65 19.6 3.7 18.7 4.5 17.75 4.75 19.9 3.9 20.8 1.85 21.55 0.35 21.15 -1.25 L20.65 -3.4 20.65 -3.95 M22.2 1.95 L22.2 2.0 22.25 1.95 22.1 2.35 21.9 2.8 22.05 2.35 22.2 1.95 M14.6 -7.65 L14.55 -7.6 14.5 -7.6 14.45 -7.55 14.4 -7.45 14.3 -7.25 14.4 -7.35 14.45 -7.4 14.45 -7.45 14.6 -7.6 14.6 -7.65 M13.45 -1.95 L13.4 -2.15 13.4 -2.0 13.45 -1.95 M18.0 6.7 L18.0 6.75 18.05 6.7 18.0 6.7" fill="#418101" fill-rule="evenodd" stroke="none"/>
  </g>
</svg>
