<?xml version="1.0" encoding="UTF-8" standalone="no"?>
<svg xmlns:xlink="http://www.w3.org/1999/xlink" height="31.2px" width="23.2px" xmlns="http://www.w3.org/2000/svg">
  <g transform="matrix(1.0, 0.0, 0.0, 1.0, 11.6, 15.6)">
    <path d="M-1.3 10.6 L-1.55 10.5 -1.4 10.5 -1.3 10.6" fill="#cc0000" fill-rule="evenodd" stroke="none"/>
    <path d="M10.6 -2.95 Q10.6 -0.3 9.05 3.2 7.85 6.1 5.95 8.7 3.25 12.35 0.9 12.7 L1.85 14.45 Q-0.55 15.05 -2.1 13.15 L-0.6 12.6 Q-2.85 12.0 -5.4 9.0 -7.85 6.15 -8.9 3.55 -10.6 -0.3 -10.6 -2.95 L-10.6 -3.05 Q-10.55 -7.85 -7.55 -11.2 -4.35 -14.6 0.0 -14.6 4.4 -14.6 7.5 -11.2 10.6 -7.85 10.6 -3.05 L10.6 -2.95 Z" fill="none" stroke="#296900" stroke-linecap="round" stroke-linejoin="round" stroke-width="2.0"/>
    <path d="M0.55 12.1 L1.85 14.45 Q-0.55 15.05 -2.1 13.15 L0.55 12.1" fill="#517900" fill-rule="evenodd" stroke="none"/>
    <path d="M10.6 -2.95 Q10.6 -0.3 9.05 3.2 7.85 6.1 5.95 8.7 3.0 12.7 0.4 12.7 -2.25 12.7 -5.4 9.0 -7.85 6.15 -8.9 3.55 -10.6 -0.3 -10.6 -2.95 L-10.6 -3.05 Q-10.55 -7.85 -7.55 -11.2 -4.35 -14.6 0.0 -14.6 4.4 -14.6 7.5 -11.2 10.6 -7.85 10.6 -3.05 L10.6 -2.95" fill="#7ab400" fill-rule="evenodd" stroke="none"/>
    <path d="M0.65 -13.15 Q3.95 -13.15 6.25 -10.45 8.55 -7.8 8.55 -4.05 L8.55 -3.95 Q8.55 -1.85 7.4 0.9 L6.4 3.1 Q7.15 0.65 7.15 -1.35 L7.15 -1.45 Q7.15 -6.55 4.1 -10.1 2.25 -12.25 -0.05 -13.1 L0.65 -13.15" fill="#ffffff" fill-rule="evenodd" stroke="none"/>
    <path d="M-4.25 7.4 Q-1.0 11.1 1.7 11.1 L3.2 10.8 Q1.7 12.1 0.3 12.1 -2.05 12.1 -4.85 8.8 -7.05 6.25 -8.0 3.95 -9.5 0.5 -9.5 -1.85 L-9.5 -1.95 -9.35 -3.4 Q-9.1 -1.15 -7.75 1.8 -6.7 4.5 -4.25 7.4" fill="#517900" fill-rule="evenodd" stroke="none"/>
    <path d="M5.75 -5.9 Q5.75 -4.7 4.6 -5.05 3.5 -5.35 2.2 -6.8 1.3 -7.7 2.65 -8.65 3.9 -9.5 3.25 -10.2 2.6 -10.95 2.0 -10.6 1.2 -10.2 0.15 -11.0 -1.1 -11.9 -0.45 -14.8 L-0.3 -15.15 0.0 -15.15 Q4.5 -15.15 7.65 -11.7 10.8 -8.3 10.8 -3.45 L10.8 -3.35 Q10.8 -0.6 9.2 2.95 L8.75 4.0 Q8.05 3.65 8.0 3.1 7.9 2.15 7.05 1.4 6.25 0.75 6.1 -0.25 5.85 -1.75 6.55 -1.8 7.2 -1.85 8.35 -0.95 9.45 -0.05 9.9 -2.9 10.35 -5.8 9.1 -7.0 7.85 -8.15 6.8 -7.7 5.75 -7.25 5.75 -5.9" fill="#517900" fill-rule="evenodd" stroke="none"/>
    <path d="M3.75 0.9 Q2.6 2.3 2.7 3.5 2.8 4.9 3.95 4.2 5.7 3.1 6.85 3.55 8.15 4.05 7.45 4.8 6.5 5.7 6.9 6.0 L7.55 6.25 6.0 8.55 Q3.05 12.6 0.45 12.6 -1.85 12.6 -4.6 9.8 -4.55 7.05 -4.1 6.5 -3.45 5.75 -2.2 6.2 -1.0 6.6 -0.55 5.95 -0.05 5.3 -0.35 3.9 -0.7 2.15 -0.45 0.9 0.05 -1.25 1.1 -2.0 2.3 -2.9 3.55 -1.35 4.55 -0.15 3.75 0.9" fill="#d1ff72" fill-rule="evenodd" stroke="none"/>
    <path d="M-10.75 -3.45 Q-10.75 -5.5 -10.15 -7.35 L-9.45 -7.05 Q-8.65 -6.85 -7.95 -7.8 -7.25 -8.85 -5.95 -8.65 -4.25 -8.35 -3.1 -6.85 -2.2 -5.5 -2.1 -4.15 -2.05 -3.35 -3.8 -2.25 -5.5 -1.2 -5.35 -0.55 -5.25 -0.05 -4.2 0.35 -3.1 0.75 -2.6 2.35 -1.85 4.8 -1.75 5.8 -1.65 7.25 -2.5 8.05 -3.5 8.95 -5.55 8.4 L-6.45 8.15 -5.85 8.35 -7.2 6.6 Q-7.0 5.95 -7.95 5.4 L-9.0 3.3 Q-10.75 -0.6 -10.75 -3.35 L-10.75 -3.45" fill="#517900" fill-rule="evenodd" stroke="none"/>
    <path d="M4.1 -10.55 Q2.25 -12.75 -0.1 -13.6 L0.6 -13.65 Q3.95 -13.65 6.3 -10.9 8.65 -8.2 8.65 -4.4 L8.65 -4.3 Q8.65 -2.2 7.45 0.6 L6.45 2.85 Q7.2 0.35 7.2 -1.65 L7.2 -1.75 Q7.2 -6.95 4.1 -10.55" fill="#ffffff" fill-rule="evenodd" stroke="none"/>
    <path d="M-1.3 -15.1 Q-1.25 -14.15 -2.05 -13.3 -2.4 -12.95 -3.6 -12.9 -4.45 -12.75 -4.45 -11.9 -4.45 -11.15 -3.2 -11.1 -2.0 -11.1 -2.05 -10.5 -2.2 -9.25 -3.05 -8.1 -4.1 -6.7 -5.1 -7.45 -5.85 -8.0 -6.45 -9.3 -6.85 -10.2 -7.35 -10.05 -7.6 -10.0 -7.65 -8.65 -7.75 -7.35 -8.95 -7.45 L-10.1 -7.75 Q-9.35 -9.95 -7.75 -11.7 -4.95 -14.65 -1.3 -15.1" fill="#d1ff72" fill-rule="evenodd" stroke="none"/>
    <path d="M-1.1 -4.4 Q0.35 -5.85 1.25 -6.0 2.2 -6.15 2.2 -5.1 2.1 -4.2 3.05 -4.7 4.2 -5.25 3.7 -3.7 L3.05 -1.9 Q3.15 -1.8 4.1 -2.4 5.1 -2.85 5.35 -1.85 5.55 -1.1 3.95 -0.6 1.45 0.25 -0.05 1.8 -1.0 2.8 -3.2 1.25 -5.2 -0.15 -5.3 -1.25 -5.4 -2.3 -4.7 -3.05 -3.95 -3.9 -3.0 -3.5 -2.3 -3.15 -1.1 -4.4" fill="#296900" fill-rule="evenodd" stroke="none"/>
  </g>
</svg>
