<?xml version="1.0" encoding="UTF-8" standalone="no"?>
<svg xmlns:xlink="http://www.w3.org/1999/xlink" height="78.8px" width="72.3px" xmlns="http://www.w3.org/2000/svg">
  <g transform="matrix(1.0, 0.0, 0.0, 1.0, 25.95, 28.95)">
    <path d="M8.85 -24.85 Q21.8 -25.45 33.95 -22.9 L42.35 -9.55 27.6 -8.8 Q12.75 -6.5 12.55 1.4 12.35 7.0 15.8 15.7 17.45 19.8 21.65 28.25 L-15.3 38.45 Q-17.8 31.7 -19.7 22.5 -23.6 4.1 -20.75 -7.8 -16.95 -23.7 8.85 -24.85" fill="#70381f" fill-rule="evenodd" stroke="none"/>
    <path d="M8.85 -24.85 Q21.8 -25.45 33.95 -22.9 L42.35 -9.55 27.6 -8.8 Q12.75 -6.5 12.55 1.4 12.35 7.0 15.8 15.7 17.45 19.8 21.65 28.25 L-15.3 38.45 Q-17.8 31.7 -19.7 22.5 -23.6 4.1 -20.75 -7.8 -16.95 -23.7 8.85 -24.85 Z" fill="none" stroke="#3c190a" stroke-linecap="round" stroke-linejoin="round" stroke-width="8.0"/>
    <path d="M8.85 -24.85 Q21.8 -25.45 33.95 -22.9 L42.35 -9.55 27.6 -8.8 Q12.75 -6.5 12.55 1.4 12.35 7.0 15.8 15.7 17.45 19.8 21.65 28.25 L-15.3 38.45 Q-17.8 31.7 -19.7 22.5 -23.6 4.1 -20.75 -7.8 -16.95 -23.7 8.85 -24.85" fill="#70381f" fill-rule="evenodd" stroke="none"/>
    <path d="M-1.4 39.6 L-18.3 24.3 -10.15 15.4 6.75 30.65 -1.4 39.6 M2.75 36.7 L-1.55 45.85 -18.75 37.6 -14.8 29.5 -1.75 41.3 2.5 36.6 2.75 36.7" fill="#bf7926" fill-rule="evenodd" stroke="none"/>
    <path d="M-1.4 39.6 L-18.3 24.3 -10.15 15.4 6.75 30.65 -1.4 39.6 M2.75 36.7 L2.5 36.6 -1.75 41.3 -14.8 29.5 -18.75 37.6 -1.55 45.85 2.75 36.7" fill="none" stroke="#3c190a" stroke-linecap="round" stroke-linejoin="round" stroke-width="8.0"/>
    <path d="M-1.75 41.3 L2.5 36.6 2.75 36.7 -1.55 45.85 -18.75 37.6 -14.8 29.5 -1.75 41.3" fill="#bf7926" fill-rule="evenodd" stroke="none"/>
    <path d="M-10.15 15.4 L6.75 30.65 -1.4 39.6 -18.3 24.3 -10.15 15.4" fill="#bf7926" fill-rule="evenodd" stroke="none"/>
  </g>
</svg>
