<?xml version="1.0" encoding="UTF-8" standalone="no"?>
<svg xmlns:xlink="http://www.w3.org/1999/xlink" height="6.25px" width="68.55px" xmlns="http://www.w3.org/2000/svg">
  <g transform="matrix(1.0, 0.0, 0.0, 1.0, 37.0, 3.1)">
    <path d="M-30.7 -0.1 Q-30.7 1.1 -31.6 2.0 -32.5 2.9 -33.85 2.9 -35.15 2.9 -36.05 2.0 -37.0 1.1 -37.0 -0.1 -37.0 -1.35 -36.05 -2.25 -35.15 -3.1 -33.85 -3.1 -32.5 -3.1 -31.6 -2.25 -30.7 -1.35 -30.7 -0.1" fill="#000000" fill-rule="evenodd" stroke="none"/>
    <path d="M-34.4 -1.25 Q-34.4 -0.9 -34.7 -0.65 -34.95 -0.4 -35.3 -0.4 L-35.95 -0.65 -36.25 -1.25 -35.95 -1.85 -35.3 -2.1 -34.7 -1.85 -34.4 -1.25" fill="#ffffff" fill-rule="evenodd" stroke="none"/>
    <path d="M31.55 0.4 Q31.55 1.55 30.8 2.35 30.1 3.15 29.05 3.15 28.0 3.15 27.25 2.35 26.55 1.55 26.55 0.4 26.55 -0.75 27.25 -1.55 28.0 -2.35 29.05 -2.35 30.1 -2.35 30.8 -1.55 31.55 -0.75 31.55 0.4" fill="#000000" fill-rule="evenodd" stroke="none"/>
    <path d="M28.65 -0.65 L28.4 -0.1 27.9 0.15 27.4 -0.1 27.2 -0.65 27.4 -1.2 27.9 -1.45 28.4 -1.2 28.65 -0.65" fill="#ffffff" fill-rule="evenodd" stroke="none"/>
  </g>
</svg>
