<?xml version="1.0" encoding="UTF-8" standalone="no"?>
<svg xmlns:xlink="http://www.w3.org/1999/xlink" height="28.85px" width="20.8px" xmlns="http://www.w3.org/2000/svg">
  <g transform="matrix(1.0, 0.0, 0.0, 1.0, 0.75, 0.75)">
    <path d="M1.7 23.85 Q1.7 22.1 4.35 20.85 7.0 19.6 10.75 19.6 14.45 19.6 17.1 20.85 19.8 22.1 19.8 23.85 19.8 25.6 17.1 26.8 14.45 28.1 10.75 28.1 7.0 28.1 4.35 26.8 1.7 25.6 1.7 23.85" fill="#000000" fill-opacity="0.2" fill-rule="evenodd" stroke="none"/>
    <path d="M12.2 11.7 L12.45 12.3 12.65 18.6 12.85 19.65 13.2 21.6 13.35 22.0 Q13.35 23.45 10.75 23.45 L8.3 23.0 Q7.75 22.75 7.75 22.4 L7.85 22.1 7.85 21.95 8.55 21.05 Q10.1 18.95 10.1 17.05 L9.85 14.55 9.2 12.1 9.25 11.55 10.8 11.4 Q11.85 11.4 12.2 11.7 Z" fill="none" stroke="#5c510e" stroke-linecap="round" stroke-linejoin="round" stroke-width="1.5"/>
    <path d="M10.0 18.05 L10.1 17.05 9.85 14.55 9.2 12.1 9.25 11.55 10.8 11.4 Q11.85 11.4 12.2 11.7 L12.45 12.3 12.6 17.5 12.6 17.1 Q12.3 17.25 11.9 17.5 11.0 18.1 10.0 18.05 M12.65 18.5 L12.65 18.6 12.85 19.65 13.2 21.6 13.35 22.0 Q13.35 23.45 10.75 23.45 L8.3 23.0 Q7.75 22.75 7.75 22.4 L7.85 22.1 7.85 21.95 8.55 21.05 9.7 19.05 10.7 19.15 Q11.7 19.15 12.65 18.5 M10.55 22.25 L10.55 22.1 10.45 22.25 10.55 22.25" fill="#817114" fill-rule="evenodd" stroke="none"/>
    <path d="M12.6 17.5 L12.65 18.0 12.65 18.5 Q11.7 19.15 10.7 19.15 L9.7 19.05 10.0 18.05 Q11.0 18.1 11.9 17.5 12.3 17.25 12.6 17.1 L12.6 17.5" fill="#695b10" fill-rule="evenodd" stroke="none"/>
    <path d="M16.95 2.75 L16.9 3.65 16.95 3.7 Q17.4 4.2 17.4 4.85 L17.45 5.3 17.45 6.2 17.45 6.35 17.45 6.4 17.45 6.5 17.7 6.7 18.05 6.9 Q19.4 7.65 19.3 9.2 L18.9 10.7 18.4 11.4 17.1 12.45 17.0 12.6 16.8 12.95 16.6 14.15 16.5 15.25 Q16.25 16.25 15.5 17.05 L14.75 17.5 12.55 17.7 12.2 17.65 12.0 17.45 11.7 17.15 11.8 17.15 11.55 17.05 10.25 17.4 9.75 17.45 9.6 17.65 9.05 18.35 8.85 18.6 8.55 18.65 6.8 18.7 6.45 18.65 6.3 18.45 5.9 17.7 Q5.65 17.3 5.7 16.75 L5.75 16.45 4.75 15.85 4.45 15.6 4.45 15.4 4.45 15.35 4.3 15.4 Q2.5 16.2 1.05 15.1 L0.6 14.5 0.65 14.35 0.85 13.35 Q1.0 12.75 1.4 12.2 L1.6 11.9 1.6 12.1 1.85 12.05 1.85 12.0 1.9 12.0 2.0 12.0 1.8 11.85 1.6 11.65 1.6 11.5 1.6 11.45 1.6 10.6 1.6 10.55 1.7 9.7 0.45 8.6 Q-0.65 7.1 0.8 5.65 1.6 4.8 2.85 4.3 4.0 3.85 5.1 3.95 L4.85 3.5 Q4.6 2.95 4.65 2.4 L4.7 1.45 4.85 1.25 5.05 1.1 5.25 0.9 5.45 0.75 5.8 0.6 7.3 0.65 7.6 0.7 7.8 0.9 7.9 1.05 Q8.1 0.55 8.45 0.2 8.65 0.05 8.8 0.0 L10.3 0.1 10.8 0.25 11.05 0.45 11.3 0.75 11.6 1.3 11.7 1.5 12.55 1.6 13.1 1.8 13.25 1.65 13.6 1.25 13.8 1.15 16.1 1.2 16.8 1.65 16.9 1.85 16.95 2.75 M15.45 5.7 L15.45 5.85 15.5 6.3 15.5 5.6 15.5 5.65 15.45 5.7 M3.2 6.95 L3.05 7.0 3.05 7.15 3.1 7.1 3.25 6.95 3.2 6.95 M2.0 12.0 L2.05 12.05 2.1 12.05 2.0 12.0 M2.85 12.35 L3.0 12.35 2.75 12.3 2.85 12.35 M4.75 12.8 L4.75 12.7 4.65 12.7 4.75 12.8" fill="#158901" fill-rule="evenodd" stroke="none"/>
    <path d="M16.95 2.75 L16.9 3.65 16.95 3.7 Q17.4 4.2 17.4 4.85 L17.45 5.3 17.45 6.2 17.45 6.35 17.45 6.4 17.45 6.5 17.7 6.7 18.05 6.9 Q19.4 7.65 19.3 9.2 L18.9 10.7 18.4 11.4 17.1 12.45 17.0 12.6 16.8 12.95 16.6 14.15 16.5 15.25 Q16.25 16.25 15.5 17.05 L14.75 17.5 12.55 17.7 12.2 17.65 12.0 17.45 11.7 17.15 11.8 17.15 11.55 17.05 10.25 17.4 9.75 17.45 9.6 17.65 9.05 18.35 8.85 18.6 8.55 18.65 6.8 18.7 6.45 18.65 6.3 18.45 5.9 17.7 Q5.65 17.3 5.7 16.75 L5.75 16.45 4.75 15.85 4.45 15.6 4.45 15.4 4.45 15.35 4.3 15.4 Q2.5 16.2 1.05 15.1 L0.6 14.5 0.65 14.35 0.85 13.35 Q1.0 12.75 1.4 12.2 L1.6 11.9 1.6 12.1 1.85 12.05 1.85 12.0 1.9 12.0 2.0 12.0 1.8 11.85 1.6 11.65 1.6 11.5 1.6 11.45 1.6 10.6 1.6 10.55 1.7 9.7 0.45 8.6 Q-0.65 7.1 0.8 5.65 1.6 4.8 2.85 4.3 4.0 3.85 5.1 3.95 L4.85 3.5 Q4.6 2.95 4.65 2.4 L4.7 1.45 4.85 1.25 5.05 1.1 5.25 0.9 5.45 0.75 5.8 0.6 7.3 0.65 7.6 0.7 7.8 0.9 7.9 1.05 Q8.1 0.55 8.45 0.2 8.65 0.05 8.8 0.0 L10.3 0.1 10.8 0.25 11.05 0.45 11.3 0.75 11.6 1.3 11.7 1.5 12.55 1.6 13.1 1.8 13.25 1.65 13.6 1.25 13.8 1.15 16.1 1.2 16.8 1.65 16.9 1.85 16.95 2.75 Z" fill="none" stroke="#137601" stroke-linecap="round" stroke-linejoin="round" stroke-width="1.5"/>
    <path d="M13.1 1.8 L13.25 1.65 13.6 1.25 13.8 1.15 16.1 1.2 16.8 1.65 16.9 1.85 16.95 2.75 16.9 3.65 16.85 3.6 16.7 3.35 16.65 3.35 16.3 3.25 14.5 3.0 14.5 3.3 14.5 3.4 14.45 3.3 14.45 3.15 14.35 2.95 14.25 2.75 14.15 2.55 14.05 2.35 13.85 2.2 13.7 2.0 13.4 1.95 13.1 1.8 M17.45 6.5 L17.7 6.7 18.05 6.9 Q19.4 7.65 19.3 9.2 L18.9 10.7 18.4 11.4 17.1 12.45 17.0 12.6 16.8 12.95 16.6 14.15 16.5 15.25 Q16.25 16.25 15.5 17.05 L14.75 17.5 12.55 17.7 12.2 17.65 12.0 17.45 11.7 17.15 11.8 17.15 11.55 17.05 10.25 17.4 9.75 17.45 9.6 17.65 9.05 18.35 8.85 18.6 8.55 18.65 6.8 18.7 6.45 18.65 6.3 18.45 5.9 17.7 Q5.65 17.3 5.7 16.75 L5.75 16.45 4.75 15.85 4.45 15.6 4.45 15.4 4.45 15.35 4.3 15.4 Q2.5 16.2 1.05 15.1 L0.6 14.5 0.65 14.35 0.85 13.35 Q1.0 12.75 1.4 12.2 L1.6 11.9 1.6 12.1 1.85 12.05 1.85 12.0 1.9 12.0 2.0 12.0 2.05 12.05 2.1 12.05 2.4 12.15 2.75 12.3 2.85 12.35 3.0 12.35 3.45 12.35 4.1 12.45 Q4.4 12.5 4.65 12.7 L4.75 12.8 4.8 12.9 4.85 13.2 4.8 13.25 4.8 13.35 4.85 13.55 4.9 13.65 4.95 13.85 5.0 13.9 5.2 13.95 Q5.4 14.35 5.85 14.4 L6.95 14.55 7.45 14.55 8.05 14.2 8.5 14.05 9.05 14.6 9.1 14.75 9.25 14.75 9.45 14.75 10.2 15.35 12.45 15.25 12.6 14.95 12.75 14.55 12.95 14.0 13.05 13.55 13.15 13.35 14.6 13.0 Q15.4 12.8 15.95 12.3 L16.35 11.55 16.4 11.45 16.45 11.45 16.55 11.1 16.9 10.15 16.75 9.65 16.55 9.6 16.4 9.5 16.25 8.95 Q16.25 8.5 16.55 8.15 L16.85 7.45 16.95 6.7 17.0 6.65 Q17.05 6.55 17.15 6.55 L17.35 6.5 17.35 6.45 17.45 6.5 M1.7 9.7 L0.45 8.6 Q-0.65 7.1 0.8 5.65 1.6 4.8 2.85 4.3 4.0 3.85 5.1 3.95 L4.85 3.5 Q4.6 2.95 4.65 2.4 L4.7 1.45 4.85 1.25 5.05 1.1 5.25 0.9 5.45 0.75 5.8 0.6 7.3 0.65 7.6 0.7 7.8 0.9 7.9 1.05 Q8.1 0.55 8.45 0.2 8.65 0.05 8.8 0.0 L10.3 0.1 10.8 0.25 11.05 0.45 11.3 0.75 11.6 1.3 11.7 1.5 11.6 1.45 11.3 1.35 10.3 1.3 10.3 1.35 9.9 1.5 9.5 1.75 9.45 1.75 9.05 2.1 9.0 2.2 8.9 2.3 8.9 2.35 8.85 2.3 8.7 2.15 8.8 2.15 8.8 2.1 8.9 1.95 8.85 1.9 Q8.55 1.55 8.1 1.4 L7.55 1.25 6.5 1.25 6.25 1.3 5.85 1.6 Q5.45 1.9 5.4 2.35 L5.3 2.9 5.15 3.3 5.1 3.55 5.1 3.65 5.1 3.85 5.1 3.95 3.8 4.2 3.3 4.35 3.1 4.55 3.1 4.7 3.05 5.3 3.05 5.6 3.05 5.75 3.15 5.75 3.3 6.05 3.35 6.35 3.35 6.6 3.3 6.8 3.25 6.9 3.25 6.95 3.2 6.95 3.05 7.0 3.05 7.15 2.35 8.05 2.2 8.3 2.05 8.6 1.8 9.25 1.8 9.35 1.7 9.7" fill="#158901" fill-rule="evenodd" stroke="none"/>
    <path d="M16.9 3.65 L16.95 3.7 Q17.4 4.2 17.4 4.85 L17.45 5.3 17.45 6.2 17.45 6.35 17.45 6.4 17.45 6.5 17.35 6.45 17.35 6.5 17.15 6.55 Q17.05 6.55 17.0 6.65 L16.95 6.7 16.85 7.45 16.55 8.15 Q16.25 8.5 16.25 8.95 L16.4 9.5 16.55 9.6 16.75 9.65 16.9 10.15 16.55 11.1 16.45 11.45 16.4 11.45 16.35 11.55 15.95 12.3 Q15.4 12.8 14.6 13.0 L13.15 13.35 13.05 13.55 12.95 14.0 12.75 14.55 12.6 14.95 12.45 15.25 10.2 15.35 9.45 14.75 9.25 14.75 9.1 14.75 9.05 14.6 8.5 14.05 8.05 14.2 7.45 14.55 6.95 14.55 5.85 14.4 Q5.4 14.35 5.2 13.95 L5.0 13.9 4.95 13.85 4.9 13.65 4.85 13.55 4.8 13.35 4.8 13.25 4.85 13.2 4.8 12.9 4.75 12.8 4.75 12.7 4.65 12.7 Q4.4 12.5 4.1 12.45 L3.45 12.35 3.0 12.35 2.75 12.3 2.4 12.15 2.1 12.05 2.0 12.0 1.8 11.85 1.6 11.65 1.6 11.5 1.6 11.45 1.6 10.6 1.6 10.55 1.7 9.7 1.8 9.35 1.8 9.25 2.05 8.6 2.2 8.3 2.35 8.05 3.05 7.15 3.1 7.1 3.25 6.95 3.25 6.9 3.3 6.8 3.35 6.6 3.35 6.35 3.3 6.05 3.15 5.75 3.05 5.75 3.05 5.6 3.05 5.3 3.1 4.7 3.1 4.55 3.3 4.35 3.8 4.2 5.1 3.95 5.1 3.85 5.1 3.65 5.1 3.55 5.15 3.3 5.3 2.9 5.4 2.35 Q5.45 1.9 5.85 1.6 L6.25 1.3 6.5 1.25 7.55 1.25 8.1 1.4 Q8.55 1.55 8.85 1.9 L8.9 1.95 8.8 2.1 8.8 2.15 8.7 2.15 8.85 2.3 8.9 2.35 8.8 2.5 8.8 2.55 8.6 2.5 7.3 2.25 7.05 2.3 6.95 2.35 6.6 2.7 6.45 2.85 6.25 3.05 6.05 3.25 5.85 3.45 5.75 3.6 5.75 4.25 5.75 4.35 5.75 4.45 5.75 4.55 5.75 4.6 5.75 4.75 5.6 4.9 5.2 5.15 5.0 5.3 4.8 5.5 4.6 5.7 4.5 5.85 4.5 6.7 4.5 6.8 4.5 7.1 4.5 7.2 4.5 7.25 4.5 7.35 4.5 7.6 4.5 7.75 4.8 8.1 5.55 8.65 6.3 8.9 6.4 9.0 6.45 9.2 6.45 9.35 6.45 9.55 6.45 9.75 6.45 9.95 6.45 10.05 6.45 10.1 6.45 10.2 6.45 10.3 6.45 10.4 6.45 10.5 6.55 10.7 6.75 10.85 8.8 10.8 9.6 10.25 9.8 10.15 10.0 10.1 Q10.75 10.8 11.8 10.55 12.75 10.35 13.35 9.55 L13.65 8.6 13.7 8.45 13.75 8.25 14.7 7.6 15.3 6.85 15.45 6.6 15.45 6.45 15.5 6.45 15.5 6.4 15.5 6.35 15.5 6.3 15.5 5.6 15.5 5.5 15.45 5.0 15.4 4.8 15.3 4.6 15.1 4.45 14.9 4.25 14.6 4.0 14.5 3.85 14.5 3.7 14.5 3.4 14.5 3.3 14.5 3.0 16.3 3.25 16.65 3.35 16.7 3.35 16.85 3.6 16.9 3.65 M11.7 1.5 L12.55 1.6 13.1 1.8 13.4 1.95 13.3 1.9 11.8 1.85 11.8 1.8 11.75 1.6 11.7 1.5" fill="#1ba901" fill-rule="evenodd" stroke="none"/>
    <path d="M13.4 1.95 L13.7 2.0 13.85 2.2 14.05 2.35 14.15 2.55 14.25 2.75 14.35 2.95 14.45 3.15 14.45 3.3 14.5 3.4 14.5 3.7 14.5 3.85 14.6 4.0 14.9 4.25 15.1 4.45 15.3 4.6 15.4 4.8 15.45 5.0 15.5 5.5 15.5 5.6 15.5 5.65 15.45 5.7 15.45 5.85 15.5 6.3 15.5 6.35 15.5 6.4 15.5 6.45 15.45 6.45 15.45 6.6 15.3 6.85 14.7 7.6 13.75 8.25 13.7 8.45 13.65 8.6 13.35 9.55 Q12.75 10.35 11.8 10.55 10.75 10.8 10.0 10.1 L9.8 10.15 9.6 10.25 8.8 10.8 6.75 10.85 6.55 10.7 6.45 10.5 6.45 10.4 6.45 10.3 6.45 10.2 6.45 10.1 6.45 10.05 6.45 9.95 6.45 9.75 6.45 9.55 6.45 9.35 6.45 9.2 6.4 9.0 6.3 8.9 5.55 8.65 4.8 8.1 4.5 7.75 4.5 7.6 4.5 7.35 4.5 7.25 4.5 7.2 4.5 7.1 4.5 6.8 4.5 6.7 4.5 5.85 4.6 5.7 4.8 5.5 5.0 5.3 5.2 5.15 5.6 4.9 5.75 4.75 5.75 4.6 5.75 4.55 5.75 4.45 5.75 4.35 5.75 4.25 5.75 3.6 5.85 3.45 6.05 3.25 6.25 3.05 6.45 2.85 6.6 2.7 6.95 2.35 7.05 2.3 7.3 2.25 8.6 2.5 8.8 2.55 8.8 2.5 8.9 2.35 8.9 2.3 9.0 2.2 9.05 2.1 9.45 1.75 9.5 1.75 9.9 1.5 10.3 1.35 10.3 1.3 11.3 1.35 11.6 1.45 11.7 1.5 11.75 1.6 11.8 1.8 11.8 1.85 13.3 1.9 13.4 1.95" fill="#1ec001" fill-rule="evenodd" stroke="none"/>
  </g>
</svg>
