<?xml version="1.0" encoding="UTF-8" standalone="no"?>
<svg xmlns:xlink="http://www.w3.org/1999/xlink" height="42.95px" width="21.85px" xmlns="http://www.w3.org/2000/svg">
  <g transform="matrix(1.0, 0.0, 0.0, 1.0, -0.4, 40.75)">
    <path d="M14.65 -21.95 L15.75 -23.0 Q11.65 -29.25 10.85 -40.0 10.95 -31.25 6.35 -22.5 6.8 -22.1 7.6 -21.7 L7.85 -21.55 Q6.75 -17.2 3.85 -13.25 L5.45 -12.05 5.95 -11.8 Q4.3 -6.5 1.15 -1.75 2.05 -0.85 3.85 0.0 7.5 1.7 12.05 1.4 15.85 1.15 19.05 -0.6 L21.5 -2.35 Q18.2 -5.4 16.0 -12.15 L16.25 -12.35 17.85 -13.85 Q15.75 -16.3 14.45 -19.9 L13.95 -21.5 14.65 -21.95 Z" fill="none" stroke="#0e5e00" stroke-linecap="round" stroke-linejoin="round" stroke-width="1.5"/>
    <path d="M6.85 -15.25 L14.9 -16.1 Q17.3 -6.25 21.5 -2.35 L19.05 -0.6 Q15.85 1.15 12.05 1.4 7.5 1.7 3.85 0.0 2.05 -0.85 1.15 -1.75 5.3 -8.0 6.85 -15.25" fill="url(#gradient0)" fill-rule="evenodd" stroke="none"/>
    <path d="M8.5 -26.25 L12.75 -26.85 Q13.45 -22.65 14.45 -19.9 15.75 -16.3 17.85 -13.85 L16.25 -12.35 Q14.05 -10.85 10.85 -10.85 8.65 -10.85 6.9 -11.4 L6.6 -11.45 6.45 -11.55 5.45 -12.05 3.85 -13.25 Q6.9 -17.4 7.95 -22.0 L7.65 -22.25 7.6 -22.45 7.6 -22.6 7.65 -22.7 7.8 -22.85 7.9 -22.95 7.95 -22.95 8.15 -23.0 8.5 -26.25" fill="url(#gradient1)" fill-rule="evenodd" stroke="none"/>
    <path d="M15.75 -23.0 L14.65 -21.95 Q13.15 -20.9 11.2 -20.9 9.25 -20.9 7.6 -21.7 6.8 -22.1 6.35 -22.5 10.95 -31.25 10.85 -40.0 11.65 -29.25 15.75 -23.0" fill="#189a01" fill-rule="evenodd" stroke="none"/>
    <path d="M12.95 -11.0 L12.9 -10.95 12.85 -11.0 12.95 -11.0 M16.55 -10.6 L16.5 -10.6 16.5 -10.75 16.55 -10.6 M16.1 -11.85 L16.0 -12.15 15.75 -12.0 16.0 -12.15 16.1 -11.85 M16.4 -4.1 L16.35 -3.8 16.35 -3.95 16.35 -4.0 16.35 -4.1 16.4 -4.1" fill="url(#gradient2)" fill-rule="evenodd" stroke="none"/>
    <path d="M10.9 -39.75 L10.85 -39.65 10.85 -40.0 10.9 -39.75" fill="#189a01" fill-rule="evenodd" stroke="none"/>
    <path d="M10.85 -39.65 L10.9 -39.75 Q11.05 -37.7 11.35 -35.75 12.5 -27.95 15.75 -23.0 L14.65 -21.95 14.6 -21.9 14.05 -21.55 13.95 -21.5 14.1 -20.95 14.2 -20.7 14.45 -19.9 Q15.75 -16.3 17.85 -13.85 L16.25 -12.35 16.0 -12.15 15.75 -12.0 16.0 -12.15 16.1 -11.85 16.25 -11.5 16.5 -10.75 16.5 -10.6 16.55 -10.6 17.45 -8.4 Q19.2 -4.5 21.5 -2.35 L19.05 -0.6 17.25 0.25 16.6 0.5 Q15.9 -0.65 15.45 -1.9 L14.15 -5.45 13.25 -7.85 13.0 -8.35 12.75 -9.35 12.65 -9.85 12.6 -9.95 12.5 -10.6 12.6 -10.95 12.75 -11.05 12.85 -11.0 12.9 -10.95 12.95 -11.0 13.0 -11.1 13.05 -11.0 Q13.25 -11.2 13.6 -11.25 L15.0 -11.65 Q14.3 -11.7 13.9 -12.8 L12.9 -15.7 11.9 -18.55 Q11.4 -19.7 11.4 -20.85 L11.4 -20.9 11.4 -21.0 11.5 -21.1 11.65 -21.05 12.0 -21.05 12.15 -21.05 12.8 -21.2 13.5 -21.35 Q12.5 -23.7 11.95 -26.2 11.35 -28.9 11.0 -31.65 L10.7 -36.15 10.75 -36.6 10.85 -39.65 M16.4 -4.1 L16.35 -4.1 16.35 -4.0 16.35 -3.95 16.35 -3.8 16.4 -4.1" fill="#000000" fill-opacity="0.12941177" fill-rule="evenodd" stroke="none"/>
  </g>
  <defs>
    <linearGradient gradientTransform="matrix(-2.0E-4, 0.0107, -0.0107, -2.0E-4, 11.15, -16.05)" gradientUnits="userSpaceOnUse" id="gradient0" spreadMethod="pad" x1="-819.2" x2="819.2">
      <stop offset="0.0" stop-color="#0a4000"/>
      <stop offset="1.0" stop-color="#158901"/>
    </linearGradient>
    <linearGradient gradientTransform="matrix(-5.0E-4, 0.0085, -0.0098, -6.0E-4, 11.15, -24.55)" gradientUnits="userSpaceOnUse" id="gradient1" spreadMethod="pad" x1="-819.2" x2="819.2">
      <stop offset="0.0" stop-color="#0a4000"/>
      <stop offset="1.0" stop-color="#169201"/>
    </linearGradient>
    <linearGradient gradientTransform="matrix(-2.0E-4, 0.0107, -0.0107, -2.0E-4, 11.15, -16.05)" gradientUnits="userSpaceOnUse" id="gradient2" spreadMethod="pad" x1="-819.2" x2="819.2">
      <stop offset="0.0" stop-color="#0a4000"/>
      <stop offset="1.0" stop-color="#158901"/>
    </linearGradient>
  </defs>
</svg>
