<?xml version="1.0" encoding="UTF-8" standalone="no"?>
<svg xmlns:xlink="http://www.w3.org/1999/xlink" height="56.1px" width="41.45px" xmlns="http://www.w3.org/2000/svg">
  <g transform="matrix(1.0, 0.0, 0.0, 1.0, 20.75, 28.05)">
    <path d="M-3.35 -14.65 L3.4 -20.55 10.1 -12.1 5.95 -6.1 Q1.15 0.95 -1.35 6.35 -2.55 8.95 -3.25 13.4 L-4.15 20.2 Q-5.5 27.25 -10.6 26.15 -16.3 24.9 -15.8 13.3 -15.45 3.85 -12.3 -3.5 -10.4 -7.9 -3.35 -14.65" fill="#bf7926" fill-rule="evenodd" stroke="none"/>
    <path d="M-3.1 -14.85 L3.65 -20.75 10.35 -12.3 6.2 -6.35 Q1.4 0.7 -1.1 6.1 -2.3 8.65 -2.95 13.05 -10.1 13.15 -15.6 14.95 L-15.55 13.05 Q-15.2 3.6 -12.05 -3.75 -10.15 -8.15 -3.1 -14.85" fill="#70381f" fill-rule="evenodd" stroke="none"/>
    <path d="M-3.6 -14.4 Q-10.65 -7.65 -12.55 -3.25 -15.7 4.1 -16.05 13.55 L-16.1 15.45 Q-16.05 25.25 -10.85 26.4 -5.75 27.5 -4.4 20.45 L-3.5 13.65 -3.45 13.55 -3.1 11.6 -2.7 9.8 -1.6 6.6 Q0.9 1.2 5.7 -5.85 L9.85 -11.85 3.15 -20.3 -3.6 -14.4 Z" fill="none" stroke="#3c190a" stroke-linecap="round" stroke-linejoin="round" stroke-width="3.0"/>
    <path d="M2.65 -26.55 Q-20.45 -16.4 -19.2 12.15 -5.7 18.25 6.45 12.1 4.0 -14.2 19.2 -17.7 L2.65 -26.55" fill="#62594e" fill-rule="evenodd" stroke="none"/>
    <path d="M2.65 -26.55 Q-20.45 -16.4 -19.2 12.15 -5.7 18.25 6.45 12.1 4.0 -14.2 19.2 -17.7 L2.65 -26.55 Z" fill="none" stroke="#1c1a17" stroke-linecap="round" stroke-linejoin="round" stroke-width="3.0"/>
  </g>
</svg>
