<?xml version="1.0" encoding="UTF-8" standalone="no"?>
<svg xmlns:xlink="http://www.w3.org/1999/xlink" height="80.05px" width="89.6px" xmlns="http://www.w3.org/2000/svg">
  <g transform="matrix(1.0, 0.0, 0.0, 1.0, 44.85, 40.05)">
    <path d="M-9.35 29.5 Q-36.9 22.25 -34.7 -27.8 L-4.25 -30.05 Q-15.25 4.5 -10.2 25.2 -12.25 5.25 20.35 -12.4 L34.75 8.1 Q3.0 15.6 -8.9 29.55 L-8.9 29.65 -8.95 29.65 -9.25 30.0 -9.35 29.5 -10.2 25.2 -9.35 29.5 M-8.95 29.65 L-8.9 29.55 -8.95 29.65" fill="#70381f" fill-rule="evenodd" stroke="none"/>
    <path d="M-9.35 29.5 Q-36.9 22.25 -34.7 -27.8 L-4.25 -30.05 Q-15.25 4.5 -10.2 25.2 -12.25 5.25 20.35 -12.4 L34.75 8.1 Q3.0 15.6 -8.9 29.55 L-8.9 29.65 -8.95 29.65 -9.25 30.0 -9.35 29.5 -10.2 25.2 M-8.9 29.55 L-8.95 29.65" fill="none" stroke="#3c190a" stroke-linecap="round" stroke-linejoin="round" stroke-width="20.0"/>
    <path d="M-34.7 -27.75 L-4.3 -30.05 Q-16.45 8.35 -8.85 29.65 -36.85 22.7 -34.7 -27.75" fill="#70381f" fill-rule="evenodd" stroke="none"/>
    <path d="M20.4 -12.4 L34.8 8.1 Q2.6 15.7 -9.2 30.0 -16.05 7.3 20.4 -12.4" fill="#70381f" fill-rule="evenodd" stroke="none"/>
  </g>
</svg>
