<?xml version="1.0" encoding="UTF-8" standalone="no"?>
<svg xmlns:xlink="http://www.w3.org/1999/xlink" height="36.75px" width="36.45px" xmlns="http://www.w3.org/2000/svg">
  <g transform="matrix(1.0, 0.0, 0.0, 1.0, 18.2, 18.35)">
    <path d="M13.9 1.6 Q15.6 -0.7 16.3 -3.0 18.45 -10.05 13.8 -15.0 10.4 -18.6 4.9 -16.0 2.1 -14.6 0.05 -12.55 -2.05 -14.6 -4.85 -16.0 -10.4 -18.6 -13.75 -15.0 -18.4 -10.05 -16.25 -3.0 -15.8 -1.45 -14.85 0.05 L-12.45 3.3 Q-10.5 5.5 -6.85 8.55 -5.0 10.1 -2.45 13.15 L-2.3 13.35 -1.45 14.3 -0.8 14.95 -1.4 15.2 -2.65 15.7 -1.1 16.75 -1.6 16.65 -1.35 16.8 1.3 17.0 0.4 15.35 0.75 15.1 2.4 13.35 2.55 13.15 Q5.0 10.1 6.9 8.55 10.55 5.5 12.5 3.3 L13.9 1.6 M0.05 -14.25 Q1.95 -15.9 4.35 -17.1 L4.4 -17.1 Q10.75 -20.15 14.7 -15.85 19.85 -10.4 17.5 -2.6 L17.5 -2.65 Q16.5 0.75 13.45 4.15 11.45 6.4 7.7 9.5 L7.7 9.55 Q5.9 11.0 3.55 13.95 L2.0 15.7 2.4 16.45 2.55 17.15 2.25 17.85 1.6 18.25 Q-1.6 19.0 -3.6 16.5 L-3.9 15.8 -3.7 15.0 -3.05 14.55 -2.95 14.5 -3.4 13.95 Q-5.85 11.0 -7.65 9.5 -11.4 6.4 -13.35 4.15 -16.45 0.75 -17.45 -2.65 L-17.45 -2.6 Q-19.8 -10.4 -14.65 -15.85 -10.8 -20.15 -4.3 -17.1 -1.9 -15.9 0.05 -14.25" fill="#03497c" fill-rule="evenodd" stroke="none"/>
    <path d="M-1.0 -11.7 L-2.9 -10.0 Q-5.75 -12.85 -9.6 -14.75 L-11.7 -15.6 Q-9.05 -16.45 -5.55 -14.8 -3.0 -13.5 -1.0 -11.7 M13.35 -14.35 Q17.55 -9.9 15.6 -3.55 14.85 -1.1 12.75 1.45 L13.55 -0.5 Q15.85 -7.9 10.9 -13.1 8.65 -15.5 5.55 -15.3 10.35 -17.5 13.35 -14.35" fill="#ffffff" fill-rule="evenodd" stroke="none"/>
    <path d="M13.9 1.6 L12.5 3.3 Q10.55 5.5 6.9 8.55 5.0 10.1 2.55 13.15 L2.4 13.35 0.75 15.1 0.25 15.4 0.4 15.35 1.3 17.0 -1.35 16.8 -1.6 16.65 -1.1 16.75 -2.65 15.7 -1.4 15.2 -0.8 14.95 -1.45 14.3 -2.3 13.35 -2.45 13.15 Q-5.0 10.1 -6.85 8.55 -10.5 5.5 -12.45 3.3 L-14.85 0.05 -15.25 -0.65 -15.0 -0.3 Q-12.35 3.0 -9.25 4.95 L-12.05 2.15 Q-14.9 -1.0 -15.85 -4.15 -16.45 -6.2 -16.5 -8.05 -15.3 -4.35 -11.85 -0.6 -9.4 2.05 -4.85 5.75 L-3.0 7.35 0.3 7.65 Q8.1 7.65 13.9 1.6" fill="#065c95" fill-rule="evenodd" stroke="none"/>
    <path d="M-14.85 0.05 Q-15.8 -1.45 -16.25 -3.0 -18.4 -10.05 -13.75 -15.0 -10.4 -18.6 -4.85 -16.0 -2.05 -14.6 0.05 -12.55 2.1 -14.6 4.9 -16.0 10.4 -18.6 13.8 -15.0 18.45 -10.05 16.3 -3.0 15.6 -0.7 13.9 1.6 8.1 7.65 0.3 7.65 L-3.0 7.35 -4.85 5.75 Q-9.4 2.05 -11.85 -0.6 -15.3 -4.35 -16.5 -8.05 -16.45 -6.2 -15.85 -4.15 -14.9 -1.0 -12.05 2.15 L-9.25 4.95 Q-12.35 3.0 -15.0 -0.3 L-15.25 -0.65 -14.85 0.05 M0.75 15.1 L0.4 15.35 0.25 15.4 0.75 15.1 M13.35 -14.35 Q10.35 -17.5 5.55 -15.3 8.65 -15.5 10.9 -13.1 15.85 -7.9 13.55 -0.5 L12.75 1.45 Q14.85 -1.1 15.6 -3.55 17.55 -9.9 13.35 -14.35 M-1.0 -11.7 Q-3.0 -13.5 -5.55 -14.8 -9.05 -16.45 -11.7 -15.6 L-9.6 -14.75 Q-5.75 -12.85 -2.9 -10.0 L-1.0 -11.7" fill="#3494d4" fill-rule="evenodd" stroke="none"/>
  </g>
</svg>
