<?xml version="1.0" encoding="UTF-8" standalone="no"?>
<svg xmlns:xlink="http://www.w3.org/1999/xlink" height="8.55px" width="12.5px" xmlns="http://www.w3.org/2000/svg">
  <g transform="matrix(1.0, 0.0, 0.0, 1.0, -7.55, 3.15)">
    <path d="M7.9 -0.55 L8.0 -0.6 8.25 -0.85 13.0 -2.9 13.45 5.4 9.2 4.4 8.95 4.25 8.85 4.25 8.35 3.9 8.2 3.75 8.05 3.5 7.8 3.2 7.55 1.5 Q7.55 0.5 7.9 -0.55" fill="#000000" fill-rule="evenodd" stroke="none"/>
    <path d="M14.85 -0.7 L15.1 -0.95 16.25 -1.55 16.1 -1.6 16.05 -1.8 16.8 -2.15 17.45 -2.4 17.55 -2.45 18.45 -2.85 Q20.05 -3.45 20.05 -2.85 L19.7 -2.55 19.7 -2.5 19.1 -2.1 19.35 4.4 19.5 4.4 19.85 4.7 19.9 4.8 Q19.9 5.2 19.1 5.2 L17.9 5.0 17.8 5.0 16.5 4.75 15.9 4.55 15.65 4.4 15.6 4.4 15.2 4.05 15.05 3.9 14.9 3.6 14.75 3.3 14.5 1.5 Q14.5 0.45 14.85 -0.65 L14.85 -0.7" fill="#000000" fill-rule="evenodd" stroke="none"/>
  </g>
</svg>
