<?xml version="1.0" encoding="UTF-8" standalone="no"?>
<svg xmlns:xlink="http://www.w3.org/1999/xlink" height="5.55px" width="13.3px" xmlns="http://www.w3.org/2000/svg">
  <g transform="matrix(1.0, 0.0, 0.0, 1.0, -2.0, -1.0)">
    <path d="M12.45 1.4 L12.5 1.5 13.15 2.1 13.9 3.25 14.7 4.35 15.3 5.5 15.0 5.85 15.0 5.95 14.65 6.3 14.6 6.3 14.2 6.55 13.8 6.3 12.95 6.1 12.85 6.1 7.2 6.1 7.1 6.2 6.4 6.3 5.0 6.2 4.2 6.35 3.85 6.45 3.65 6.4 3.25 6.5 2.9 6.35 2.7 6.4 2.5 6.25 2.45 6.05 2.45 6.0 2.2 6.25 2.0 6.0 2.8 4.65 3.7 3.45 4.55 2.1 Q5.05 1.4 5.65 1.15 L5.7 1.15 5.8 1.1 6.05 1.05 Q7.85 0.75 8.0 2.0 L8.1 2.2 8.2 3.0 8.2 3.2 9.35 3.05 9.3 2.75 9.2 2.7 9.15 2.5 Q9.15 1.35 10.85 1.15 L12.25 1.3 12.45 1.4" fill="#000000" fill-rule="evenodd" stroke="none"/>
  </g>
</svg>
