<?xml version="1.0" encoding="UTF-8" standalone="no"?>
<svg xmlns:xlink="http://www.w3.org/1999/xlink" height="31.55px" width="53.05px" xmlns="http://www.w3.org/2000/svg">
  <g transform="matrix(1.0, 0.0, 0.0, 1.0, -2.3, -12.4)">
    <path d="M24.4 40.75 Q25.1 40.35 25.7 41.05 26.2 41.7 26.9 41.95 L28.45 42.2 29.3 42.05 29.3 42.15 28.75 42.55 Q27.95 43.1 26.9 43.05 25.95 43.05 25.2 42.35 L24.2 40.95 24.3 40.85 24.35 40.8 24.4 40.75 M27.15 43.95 L27.0 43.9 27.15 43.9 27.15 43.95" fill="#f1da32" fill-rule="evenodd" stroke="none"/>
    <path d="M24.4 40.75 L24.35 40.8 24.3 40.85 24.2 40.95 24.2 40.9 24.1 40.85 24.05 40.7 23.95 40.5 23.9 40.4 23.9 40.35 23.9 40.25 23.95 40.25 24.0 40.15 24.05 40.15 24.1 40.2 24.15 40.15 24.2 40.2 24.2 40.3 24.25 40.35 24.3 40.45 24.35 40.55 24.4 40.7 24.4 40.75 M29.3 42.15 L29.3 42.05 29.3 41.95 29.35 41.9 29.4 41.85 29.5 41.85 29.55 41.85 29.6 41.85 29.6 41.95 29.6 42.15 29.55 42.3 29.5 42.3 29.4 42.35 29.3 42.3 29.3 42.25 29.3 42.15" fill="#635707" fill-rule="evenodd" stroke="none"/>
    <path d="M24.2 40.95 L25.2 42.35 Q25.95 43.05 26.9 43.05 27.95 43.1 28.75 42.55 L29.3 42.15 29.3 42.25 29.3 42.3 29.4 42.35 29.5 42.3 29.55 42.3 Q29.55 43.35 28.1 43.8 L27.3 43.95 27.2 43.9 27.15 43.95 27.15 43.9 27.0 43.9 Q26.05 43.9 25.2 43.3 24.55 42.85 24.3 42.15 L24.0 41.5 Q23.9 41.2 24.05 41.0 L24.1 41.0 24.2 40.9 24.2 40.95" fill="#c7af0e" fill-rule="evenodd" stroke="none"/>
    <path d="M49.95 40.0 L49.8 40.0 49.65 40.0 49.45 39.85 49.35 39.75 49.25 39.7 49.3 39.65 49.3 39.5 49.35 39.5 49.4 39.5 49.45 39.45 49.5 39.45 49.55 39.55 49.6 39.6 49.7 39.6 49.85 39.65 49.95 39.8 49.95 39.85 49.95 39.9 49.9 39.95 49.95 40.0 M54.7 38.05 L54.65 37.95 54.7 37.85 54.7 37.8 54.8 37.75 54.85 37.7 54.9 37.65 54.9 37.75 55.05 37.95 55.1 38.1 55.05 38.1 55.0 38.2 54.9 38.25 54.75 38.15 54.7 38.05" fill="#635707" fill-rule="evenodd" stroke="none"/>
    <path d="M55.1 38.1 Q55.7 39.0 54.75 40.2 L54.2 40.75 54.05 40.8 54.1 40.9 54.0 40.85 53.9 40.9 Q53.15 41.45 52.05 41.35 L50.7 41.05 50.05 40.65 49.85 40.2 49.9 40.15 49.95 40.0 49.95 40.05 Q50.65 40.5 51.5 40.65 L53.35 40.3 54.6 38.8 54.75 38.15 54.9 38.25 55.0 38.2 55.05 38.1 55.1 38.1" fill="#c7af0e" fill-rule="evenodd" stroke="none"/>
    <path d="M49.95 39.85 Q50.35 39.05 51.2 39.3 L52.7 39.35 54.1 38.65 54.7 38.05 54.75 38.15 54.6 38.8 53.35 40.3 51.5 40.65 Q50.65 40.5 49.95 40.05 L49.95 40.0 49.9 39.95 49.95 39.9 49.95 39.85 M54.1 40.9 L53.9 40.9 54.0 40.85 54.1 40.9" fill="#f1da32" fill-rule="evenodd" stroke="none"/>
    <path d="M5.95 13.15 L5.85 13.1 5.75 12.95 5.6 12.8 5.55 12.7 5.55 12.65 5.5 12.55 5.55 12.55 5.6 12.4 5.65 12.4 5.7 12.45 5.75 12.4 5.8 12.45 5.85 12.55 5.9 12.55 5.95 12.65 6.05 12.75 6.1 12.9 6.1 12.95 6.1 13.0 6.05 13.05 5.95 13.2 5.95 13.15 M11.2 13.25 L11.15 13.15 11.2 13.05 11.25 13.0 11.35 13.0 11.35 12.95 11.4 12.95 11.4 13.05 11.45 13.25 11.45 13.4 11.45 13.45 11.35 13.5 11.25 13.5 11.25 13.45 11.2 13.35 11.2 13.25" fill="#635707" fill-rule="evenodd" stroke="none"/>
    <path d="M6.1 12.95 Q6.7 12.4 7.45 12.95 8.05 13.5 8.8 13.6 L10.35 13.55 11.2 13.25 11.2 13.35 10.75 13.8 Q10.05 14.5 9.05 14.65 L7.2 14.4 5.95 13.2 6.05 13.05 6.1 13.0 6.1 12.95 M9.5 15.5 L9.35 15.5 9.5 15.45 9.5 15.5" fill="#f1da32" fill-rule="evenodd" stroke="none"/>
    <path d="M11.45 13.4 Q11.65 14.4 10.35 15.2 L9.6 15.5 9.55 15.45 9.5 15.5 9.5 15.45 9.35 15.5 7.4 15.3 6.3 14.35 5.9 13.75 Q5.7 13.5 5.8 13.25 L5.85 13.25 5.95 13.15 5.95 13.2 7.2 14.4 9.05 14.65 Q10.05 14.5 10.75 13.8 L11.2 13.35 11.25 13.45 11.25 13.5 11.35 13.5 11.45 13.45 11.45 13.4" fill="#c7af0e" fill-rule="evenodd" stroke="none"/>
    <path d="M7.9 38.0 L7.85 37.9 7.9 37.8 7.95 37.75 8.05 37.7 8.1 37.7 8.15 37.65 8.15 37.75 8.25 37.95 8.3 38.1 8.25 38.1 8.15 38.2 8.05 38.2 7.95 38.1 7.9 38.0 M2.9 39.25 L2.75 39.25 2.65 39.2 2.45 39.05 2.35 38.95 2.3 38.85 2.35 38.85 2.35 38.7 2.4 38.7 2.45 38.7 2.5 38.65 2.55 38.65 2.6 38.75 2.65 38.8 2.75 38.85 2.85 38.9 2.95 39.05 2.95 39.1 2.95 39.15 2.9 39.2 2.9 39.25" fill="#635707" fill-rule="evenodd" stroke="none"/>
    <path d="M8.3 38.1 Q8.75 39.05 7.65 40.1 L7.05 40.6 6.9 40.6 6.9 40.7 6.85 40.65 6.7 40.7 4.85 40.95 Q4.1 40.85 3.5 40.4 L2.95 39.9 2.8 39.45 2.85 39.4 Q2.8 39.35 2.9 39.25 L2.9 39.3 Q3.55 39.85 4.4 40.1 L6.25 40.0 7.7 38.7 7.95 38.1 8.05 38.2 8.15 38.2 8.25 38.1 8.3 38.1" fill="#c7af0e" fill-rule="evenodd" stroke="none"/>
    <path d="M6.9 40.7 L6.7 40.7 6.85 40.65 6.9 40.7 M2.95 39.1 Q3.45 38.4 4.25 38.75 L5.75 39.0 7.25 38.5 7.9 38.0 7.95 38.1 7.7 38.7 6.25 40.0 4.4 40.1 Q3.55 39.85 2.9 39.3 L2.9 39.25 2.9 39.2 2.95 39.15 2.95 39.1" fill="#f1da32" fill-rule="evenodd" stroke="none"/>
  </g>
</svg>
