<?xml version="1.0" encoding="UTF-8" standalone="no"?>
<svg xmlns:xlink="http://www.w3.org/1999/xlink" height="75.3px" width="55.55px" xmlns="http://www.w3.org/2000/svg">
  <g transform="matrix(1.0, 0.0, 0.0, 1.0, -7.85, 24.05)">
    <path d="M45.25 -2.0 L45.25 -6.7 44.7 -7.85 44.65 -7.85 43.9 -8.45 38.7 -8.45 Q40.85 -8.0 42.75 -6.1 44.5 -4.4 45.25 -2.0 M15.65 -18.45 Q15.55 -21.5 19.35 -22.95 22.1 -24.05 26.75 -24.05 L51.65 -24.05 Q54.95 -24.1 58.15 -20.75 61.15 -17.55 61.1 -14.7 L61.1 -0.1 61.55 0.4 Q63.0 2.1 63.15 3.4 63.4 5.15 63.4 28.0 63.4 30.4 62.05 32.2 L61.1 33.25 61.1 45.85 61.2 46.65 Q61.3 48.8 58.6 50.1 L58.65 50.1 Q56.45 51.25 53.3 51.25 50.15 51.25 47.9 50.1 45.9 49.05 45.55 47.55 L45.35 47.0 45.35 34.6 39.3 34.65 Q35.85 34.65 33.6 32.3 31.65 30.25 31.5 27.95 L31.5 27.85 31.4 13.5 24.3 13.5 23.9 13.5 23.95 15.25 24.0 15.85 Q24.1 18.0 21.4 19.3 L21.45 19.3 Q19.25 20.45 16.1 20.45 12.95 20.45 10.7 19.3 8.1 17.95 8.2 15.85 L8.2 15.7 7.95 8.55 7.85 -0.85 7.85 -0.9 Q7.95 -3.75 9.7 -6.05 11.65 -8.65 14.4 -8.75 L15.55 -8.8 15.65 -18.45" fill="#3ecaff" fill-rule="evenodd" stroke="none"/>
  </g>
</svg>
