<?xml version="1.0" encoding="UTF-8" standalone="no"?>
<svg xmlns:xlink="http://www.w3.org/1999/xlink" height="19.45px" width="16.8px" xmlns="http://www.w3.org/2000/svg">
  <g transform="matrix(1.0, 0.0, 0.0, 1.0, -0.15, 5.9)">
    <path d="M13.75 -2.3 Q16.4 0.0 16.9 3.4 17.2 6.8 15.15 9.45 13.0 12.0 9.45 12.25 6.05 12.5 3.35 10.25 0.65 8.0 0.25 4.55 -0.2 1.15 1.9 -1.5 4.1 -4.05 7.5 -4.35 11.05 -4.5 13.75 -2.3" fill="#0289e3" fill-rule="evenodd" stroke="none"/>
    <path d="M11.15 3.75 L11.45 9.6 12.0 9.1 12.2 9.0 12.7 10.05 12.9 10.4 11.45 12.7 11.35 12.95 7.9 13.55 6.95 5.05 5.95 5.85 5.85 5.8 5.45 3.8 6.05 2.85 6.55 2.5 6.55 2.45 11.0 1.65 11.0 1.95 11.15 3.75 M5.15 -4.05 L5.6 -4.55 Q6.65 -5.7 7.55 -5.9 L9.1 -5.8 Q10.3 -5.45 10.35 -5.2 L10.7 -2.35 9.55 -1.4 Q8.4 -0.8 7.85 -0.7 L6.35 -0.8 Q5.3 -1.05 5.2 -1.5 L5.15 -1.7 5.1 -2.2 5.15 -4.05" fill="#ffffff" fill-rule="evenodd" stroke="none"/>
  </g>
</svg>
