<?xml version="1.0" encoding="UTF-8" standalone="no"?>
<svg xmlns:xlink="http://www.w3.org/1999/xlink" height="19.55px" width="113.1px" xmlns="http://www.w3.org/2000/svg">
  <g transform="matrix(1.0, 0.0, 0.0, 1.0, 2.0, 2.0)">
    <path d="M107.8 14.75 L73.3 13.3 60.25 14.4 52.8 15.55 23.8 13.55 1.3 15.0 Q-1.65 7.0 2.05 0.0 L10.2 2.15 Q19.45 4.3 25.05 4.3 L52.8 2.05 60.1 3.3 72.8 4.3 Q80.05 4.0 108.05 0.25 110.25 7.05 107.8 14.75" fill="#e8c991" fill-rule="evenodd" stroke="none"/>
    <path d="M107.8 14.75 L73.3 13.3 60.25 14.4 52.8 15.55 23.8 13.55 1.3 15.0 Q-1.65 7.0 2.05 0.0 L10.2 2.15 Q19.45 4.3 25.05 4.3 L52.8 2.05 60.1 3.3 72.8 4.3 Q80.05 4.0 108.05 0.25 110.25 7.05 107.8 14.75 Z" fill="none" stroke="#5d3c16" stroke-linecap="round" stroke-linejoin="round" stroke-width="4.0"/>
    <path d="M107.8 14.75 L73.3 13.3 60.25 14.4 52.8 15.55 23.8 13.55 1.3 15.0 Q-1.65 7.0 2.05 0.0 L10.2 2.15 Q19.45 4.3 25.05 4.3 L52.8 2.05 60.1 3.3 72.8 4.3 Q80.05 4.0 108.05 0.25 110.25 7.05 107.8 14.75" fill="#ddaf44" fill-rule="evenodd" stroke="none"/>
    <path d="M108.2 9.45 L108.95 9.5 Q108.65 12.05 107.8 14.75 L73.3 13.3 60.25 14.4 52.8 15.55 23.8 13.55 1.3 15.0 Q0.2 12.05 0.05 9.25 L1.8 9.1 Q20.45 7.3 39.1 9.3 45.5 9.95 51.95 9.3 L70.75 8.4 Q89.5 8.5 108.2 9.45" fill="#ae8420" fill-rule="evenodd" stroke="none"/>
    <path d="M107.95 1.85 L108.55 1.7 108.65 2.55 108.7 2.65 108.05 2.8 104.7 2.9 104.45 2.9 107.95 1.85 M102.85 6.15 L102.8 6.4 98.6 6.75 95.2 6.5 91.35 6.25 93.75 6.15 96.5 6.2 99.4 6.0 102.6 5.85 102.85 6.15 M62.35 8.0 L66.85 7.85 Q71.3 8.25 71.3 9.0 71.3 9.4 70.7 9.4 L62.45 8.35 62.35 8.0 M52.05 5.15 Q51.95 5.45 51.5 5.45 L48.9 5.35 48.55 4.95 Q48.55 4.6 50.35 4.3 52.1 4.05 52.1 4.55 L52.05 5.15 M52.05 7.65 L51.7 7.3 51.9 6.85 52.85 6.7 53.7 6.85 Q54.2 7.0 54.2 7.15 54.2 7.3 53.3 7.65 L52.05 7.65 M30.7 8.75 L28.95 8.75 25.1 8.95 24.25 9.25 23.5 9.3 23.2 8.95 Q23.2 8.7 23.9 8.5 L23.75 8.5 23.4 8.35 27.35 7.85 33.3 7.55 32.75 8.0 30.95 8.3 30.7 8.75" fill="#ae8420" fill-rule="evenodd" stroke="none"/>
    <path d="M95.6 11.2 L98.55 11.35 Q100.25 11.6 100.25 12.1 100.25 12.5 99.9 12.5 L96.9 11.95 95.55 11.35 95.6 11.2 M69.45 10.8 L69.0 11.2 67.8 11.4 66.45 11.3 66.4 11.0 Q66.4 10.8 67.35 10.6 L69.35 10.5 69.45 10.8 M43.95 12.85 L44.5 13.4 44.25 13.5 43.85 13.35 41.35 13.3 37.55 12.85 39.4 12.7 41.25 12.85 43.95 12.85 M13.6 10.65 L13.65 10.85 Q12.95 11.55 11.8 11.3 L11.1 11.1 Q11.6 10.55 12.95 10.55 L13.6 10.65" fill="#ddaf44" fill-rule="evenodd" stroke="none"/>
    <path d="M109.2 7.05 L109.55 6.9 110.05 6.85 110.15 7.2 110.0 7.65 109.7 7.75 110.0 7.9 110.1 8.3 109.7 9.25 109.0 10.0 Q108.05 10.0 106.85 9.25 106.05 8.8 105.75 8.4 L109.2 7.05 M108.75 13.45 L108.8 13.5 108.8 13.75 108.2 13.85 108.65 14.35 108.45 14.6 107.95 14.15 107.65 13.7 Q107.65 13.45 108.2 13.45 L108.75 13.45 M2.95 6.0 L3.0 6.0 2.9 6.0 2.95 6.0 M0.5 4.65 L0.8 4.7 Q1.1 5.0 2.7 5.6 L4.75 6.15 4.85 6.15 4.8 6.25 0.55 7.1 0.3 7.1 0.1 7.2 -0.45 7.2 -0.5 7.05 -0.4 6.8 -0.5 6.45 -0.05 6.0 0.0 6.0 Q0.0 5.55 0.15 5.25 L-0.35 4.6 -0.3 4.45 0.0 4.5 0.5 4.65" fill="#5d3c16" fill-rule="evenodd" stroke="none"/>
    <path d="M52.3 1.5 Q50.9 10.3 52.3 16.25" fill="none" stroke="#5d3c16" stroke-linecap="round" stroke-linejoin="round" stroke-width="1.0"/>
  </g>
</svg>
