<?xml version="1.0" encoding="UTF-8" standalone="no"?>
<svg xmlns:xlink="http://www.w3.org/1999/xlink" height="77.1px" width="113.75px" xmlns="http://www.w3.org/2000/svg">
  <g transform="matrix(1.0, 0.0, 0.0, 1.0, -9.2, -5.2)">
    <path d="M109.95 24.55 L101.7 30.4 98.25 32.75 93.9 35.75 85.9 41.25 85.5 41.5 78.8 46.0 73.1 49.75 70.5 51.65 62.75 56.7 59.4 58.9 54.4 62.2 47.55 66.7 46.45 67.35 39.25 71.95 33.25 75.65 31.5 76.85 23.35 82.1 23.0 82.3 22.85 81.65 Q21.75 77.0 17.6 74.3 L25.6 69.2 28.3 67.55 33.9 64.0 39.15 60.6 41.6 59.05 49.9 53.7 52.45 51.95 56.85 49.05 Q60.95 46.35 65.15 43.6 L65.4 43.5 72.9 38.45 79.2 34.15 81.3 32.75 88.0 28.15 92.15 25.3 96.3 22.4 104.15 16.95 104.45 16.6 112.55 10.95 116.2 8.35 116.3 8.45 121.55 16.4 Q119.0 18.2 116.4 20.1 L110.05 24.5 109.95 24.55" fill="#000000" fill-opacity="0.4" fill-rule="evenodd" stroke="none"/>
    <path d="M119.85 8.0 L117.55 17.2 110.9 21.8 114.4 7.9 118.15 5.2 118.3 5.3 119.85 8.0 M97.45 19.8 L105.6 14.15 102.2 27.9 98.6 30.3 94.1 33.5 97.45 19.8 M85.4 39.4 Q81.95 41.7 78.45 44.1 L81.75 30.6 88.8 25.75 85.4 39.4 M69.8 49.95 L61.8 55.25 65.1 41.8 65.3 41.6 73.15 36.4 69.8 49.95 M53.15 60.95 L46.0 65.55 49.2 52.25 51.85 50.5 56.45 47.55 53.15 60.95 M37.35 71.05 L31.25 74.95 29.45 76.15 32.6 63.0 38.15 59.5 40.6 57.85 37.35 71.05 M20.85 81.6 L20.5 81.8 20.45 81.1 Q19.65 76.5 15.8 73.65 L24.1 68.45 20.85 81.6" fill="#ffcc00" fill-rule="evenodd" stroke="none"/>
    <path d="M117.55 17.2 L119.85 8.0 122.95 13.35 117.55 17.2 M114.4 7.9 L110.9 21.8 102.2 27.9 105.6 14.15 106.05 13.75 114.4 7.9 M88.8 25.75 L93.05 22.75 97.45 19.8 94.1 33.5 85.85 39.15 85.4 39.4 88.8 25.75 M78.45 44.1 Q75.5 46.1 72.5 48.05 L69.8 49.95 73.15 36.4 79.7 32.0 81.75 30.6 78.45 44.1 M61.8 55.25 L58.35 57.5 53.15 60.95 56.45 47.55 65.1 41.8 61.8 55.25 M46.0 65.55 L44.85 66.25 37.35 71.05 40.6 57.85 49.2 52.25 46.0 65.55 M29.45 76.15 L20.85 81.6 24.1 68.45 26.85 66.75 32.6 63.0 29.45 76.15" fill="#000000" fill-rule="evenodd" stroke="none"/>
    <path d="M104.25 59.05 L112.85 63.35 116.85 65.3 116.85 65.45 112.65 74.4 107.0 71.6 100.2 68.15 100.1 68.1 91.15 63.55 87.55 61.65 82.85 59.3 74.35 54.85 73.95 54.65 66.9 50.9 60.9 47.7 58.1 46.25 50.05 41.85 46.6 39.95 41.4 37.15 34.25 33.2 33.25 32.55 25.8 28.4 19.75 24.95 17.95 23.95 9.5 19.2 9.2 19.0 9.65 18.55 Q13.05 15.2 13.45 9.95 L21.55 14.65 24.25 16.2 29.95 19.45 35.4 22.5 37.9 23.9 46.45 28.6 49.15 30.05 53.65 32.55 62.35 37.25 62.55 37.4 70.45 41.6 77.1 45.1 79.25 46.25 86.4 50.0 90.85 52.25 95.35 54.6 103.75 58.85 104.25 59.05" fill="#000000" fill-opacity="0.4" fill-rule="evenodd" stroke="none"/>
    <path d="M107.65 59.35 L108.1 59.55 117.1 64.2 103.8 68.95 103.7 68.9 94.4 64.1 107.65 59.35 M119.7 69.55 L116.7 75.7 110.85 72.7 119.7 69.55 M85.8 59.5 L77.0 54.75 76.55 54.5 89.65 49.85 94.25 52.25 98.9 54.75 85.8 59.5 M69.2 50.55 L63.0 47.15 Q61.55 46.3 60.1 45.6 L73.1 40.85 80.0 44.6 82.2 45.85 69.2 50.55 M51.75 40.9 L48.2 38.8 42.8 35.8 55.65 31.15 64.65 36.2 51.75 40.9 M35.4 31.55 L34.3 30.85 26.6 26.4 39.3 21.9 48.2 26.95 35.4 31.55 M18.45 21.65 L9.7 16.55 22.4 12.0 25.15 13.65 31.05 17.15 18.45 21.65" fill="#000000" fill-rule="evenodd" stroke="none"/>
    <path d="M117.1 64.2 L121.2 66.3 121.2 66.45 119.7 69.55 110.85 72.7 103.8 68.95 117.1 64.2 M94.4 64.1 L90.65 62.05 85.8 59.5 98.9 54.75 107.65 59.35 94.4 64.1 M76.55 54.5 L69.2 50.55 82.2 45.85 89.65 49.85 76.55 54.5 M60.1 45.6 L51.75 40.9 64.65 36.2 64.9 36.3 73.1 40.85 60.1 45.6 M42.8 35.8 L35.4 31.55 48.2 26.95 50.95 28.45 55.65 31.15 42.8 35.8 M26.6 26.4 L20.3 22.7 18.45 21.65 31.05 17.15 36.7 20.4 39.3 21.9 26.6 26.4 M9.7 16.55 L9.35 16.35 9.9 15.9 Q13.5 12.5 13.9 7.0 L22.4 12.0 9.7 16.55" fill="#ffcc00" fill-rule="evenodd" stroke="none"/>
  </g>
</svg>
