<?xml version="1.0" encoding="UTF-8" standalone="no"?>
<svg xmlns:xlink="http://www.w3.org/1999/xlink" height="57.0px" width="256.55px" xmlns="http://www.w3.org/2000/svg">
  <g transform="matrix(1.0, 0.0, 0.0, 1.0, 247.5, 2.1)">
    <path d="M6.65 35.55 L6.4 37.1 6.45 37.6 Q6.45 38.1 5.1 39.75 3.65 41.55 2.65 41.55 L-2.15 42.65 -1.95 42.7 -0.85 43.0 Q0.6 43.8 0.6 45.0 0.6 45.7 -2.45 47.1 L-3.9 47.7 Q-4.8 50.1 -13.05 50.1 -15.8 50.1 -17.85 49.35 L-18.65 49.05 -26.4 49.5 -33.75 49.0 Q-34.9 48.75 -35.55 48.3 L-39.45 48.65 -43.55 48.2 -44.2 47.75 -52.1 49.5 -55.15 50.1 Q-63.55 54.9 -65.65 54.9 L-67.3 54.55 -67.5 54.6 -74.8 54.85 -88.0 54.1 -89.5 53.75 -90.35 53.85 Q-92.45 53.85 -104.35 50.0 L-110.35 47.95 -113.1 48.35 -114.25 48.75 Q-119.0 50.25 -122.75 50.25 L-124.05 49.8 -128.65 50.15 -128.7 50.15 -129.25 50.4 Q-131.55 51.25 -138.05 51.25 -140.55 51.25 -143.95 50.25 -145.7 49.75 -146.75 49.15 L-147.35 49.3 -154.1 50.5 -171.8 53.4 -173.5 53.25 -179.0 53.35 -184.05 53.7 -184.65 53.75 -192.35 53.75 -198.65 52.55 -199.4 52.55 -202.6 52.25 Q-203.35 52.65 -204.8 52.65 L-212.05 52.0 -213.75 51.8 Q-215.75 50.6 -218.3 49.15 L-224.35 44.85 -225.75 44.2 -228.35 44.0 -230.75 43.8 -236.15 40.6 -236.35 40.35 -236.3 39.85 -236.35 39.1 -234.6 37.55 -230.05 37.45 Q-222.2 37.7 -220.9 39.35 L-217.75 39.75 Q-213.1 41.05 -213.1 42.75 L-213.3 43.7 -213.85 44.35 -212.0 45.9 -208.2 46.8 -204.6 46.95 Q-203.9 44.75 -193.6 47.65 L-189.4 48.9 -184.85 49.3 -184.3 49.2 -181.25 48.7 -181.0 47.85 Q-180.5 46.85 -179.1 46.85 L-174.45 47.15 -174.35 47.1 -173.8 46.95 Q-177.1 46.15 -177.1 45.3 -177.1 43.4 -174.95 43.4 L-166.1 44.05 -161.75 44.3 Q-162.1 43.8 -162.1 43.15 -162.1 39.9 -151.25 43.05 -146.6 44.4 -144.0 45.55 L-142.9 45.95 Q-140.65 45.1 -132.65 46.1 L-128.65 46.65 -123.6 46.4 -122.8 46.15 -116.75 45.35 -116.75 45.05 -116.75 44.75 -116.75 44.65 -116.55 43.7 Q-119.3 42.1 -119.3 41.05 -119.3 37.8 -115.5 39.35 L-112.9 40.75 -112.8 40.7 Q-108.85 39.1 -108.85 41.8 L-109.45 42.35 -108.25 42.75 -106.1 43.2 -106.6 42.55 Q-106.6 38.15 -96.8 44.1 L-94.2 45.8 Q-92.3 46.45 -92.3 47.05 L-92.3 47.1 -90.05 48.75 -88.15 50.3 -80.55 50.75 -68.9 51.6 -68.6 51.65 -68.6 51.4 Q-68.6 50.35 -67.15 49.6 L-67.15 49.25 Q-67.0 47.05 -65.05 47.05 L-62.05 46.6 -62.15 46.45 Q-62.75 45.75 -62.75 45.05 L-62.75 44.95 -63.85 45.0 -81.05 45.0 -90.9 43.8 Q-94.25 43.25 -95.9 42.45 -95.95 41.65 -96.25 41.15 L-95.25 39.2 -94.0 38.6 Q-91.9 37.65 -91.9 38.4 L-92.2 38.8 -79.3 37.3 -72.7 36.0 -60.4 34.8 -48.2 34.8 -48.2 34.9 Q-38.45 35.0 -33.1 36.4 L-23.65 38.9 -9.85 40.5 -8.4 40.7 -8.4 40.5 -8.25 39.9 Q-11.75 38.7 -11.75 37.05 -11.75 32.6 -3.8 34.65 L-0.6 35.75 -0.6 35.55 Q-0.6 33.65 5.0 34.45 L6.9 34.75 6.65 35.55" fill="#000000" fill-opacity="0.2" fill-rule="evenodd" stroke="none"/>
    <path d="M-231.6 6.95 Q-229.65 7.05 -226.3 9.05 -222.9 11.1 -222.9 12.25 L-224.4 17.3 -226.45 24.05 -226.95 27.05 -227.35 30.0 -228.3 33.0 Q-228.6 33.75 -229.8 34.6 -231.25 35.6 -232.6 35.6 L-233.25 35.5 -234.5 35.55 -239.25 35.35 Q-239.55 35.75 -240.25 35.75 L-242.85 35.6 -243.1 35.55 -243.8 35.6 Q-246.6 35.6 -247.25 35.05 L-247.5 33.95 -247.15 26.85 Q-247.3 24.4 -247.05 23.3 L-246.15 21.45 -245.4 19.7 -245.0 16.2 -244.3 12.65 Q-244.3 9.65 -243.35 7.35 L-243.25 7.15 -242.85 6.4 Q-242.65 6.15 -242.55 6.25 L-241.65 6.15 -237.45 6.4 Q-236.8 6.55 -236.45 6.8 L-236.35 6.8 -231.6 6.95" fill="url(#gradient0)" fill-rule="evenodd" stroke="none"/>
    <path d="M-233.35 8.85 L-233.05 8.85 Q-232.75 10.35 -232.75 12.5 L-232.8 14.55 -233.2 16.55 -232.6 16.5 Q-230.35 16.4 -229.75 15.75 L-228.8 14.25 Q-228.3 13.75 -228.3 15.0 -228.3 15.6 -228.55 16.0 L-229.3 17.3 Q-228.55 17.45 -228.55 18.25 -228.55 18.7 -228.7 18.85 L-230.15 19.1 -233.15 18.45 -233.05 19.5 -232.95 21.9 -231.5 23.15 Q-230.25 24.15 -230.25 24.6 L-230.8 25.1 -232.4 24.05 Q-233.3 23.3 -233.8 23.15 L-233.85 23.5 -234.0 23.7 -231.25 29.3 -231.3 29.7 Q-231.4 30.05 -231.9 30.05 -232.85 30.05 -236.35 21.9 L-236.2 21.55 -236.25 21.15 Q-236.25 20.5 -235.1 19.25 L-234.8 18.65 -234.35 17.85 -234.55 17.45 Q-234.55 16.85 -233.55 16.65 L-233.55 16.15 -233.35 8.85 M-241.65 8.75 Q-241.1 9.45 -241.1 10.8 L-241.15 13.05 -241.0 17.45 -241.1 18.85 Q-241.25 19.65 -241.9 20.45 L-242.55 21.65 -240.3 22.1 Q-236.6 22.7 -235.9 23.3 L-235.0 25.2 -234.4 27.05 -234.55 27.45 -234.3 28.3 -234.0 29.5 -234.8 32.65 -234.9 32.9 -234.85 32.9 Q-233.2 32.9 -233.2 34.8 L-233.35 35.2 Q-233.55 35.55 -234.1 35.55 -235.2 35.55 -235.85 35.0 -236.35 35.7 -236.8 35.7 -237.4 35.7 -237.4 35.1 L-236.45 30.9 -235.5 27.05 -235.7 26.3 -235.95 24.75 Q-236.3 23.6 -239.2 23.0 L-243.0 22.55 Q-243.6 23.7 -244.15 23.7 L-244.4 23.7 -246.3 26.55 Q-246.85 26.55 -246.85 25.7 -246.85 24.7 -245.35 23.2 L-245.1 22.95 -245.1 22.85 -245.2 22.5 -244.95 21.55 -244.05 19.8 -244.05 9.15 Q-243.85 8.85 -243.3 8.85 L-243.25 9.15 -243.25 16.25 Q-242.7 16.25 -242.45 16.55 L-242.05 17.3 -242.05 16.05 -242.2 12.3 Q-242.2 10.1 -241.65 8.75" fill="#866635" fill-rule="evenodd" stroke="none"/>
    <path d="M0.2 7.25 L1.55 7.25 Q3.15 7.05 4.05 7.7 4.75 8.25 4.75 9.05 L4.35 9.75 3.95 10.45 Q3.95 11.95 6.8 19.75 L8.0 24.4 9.05 29.2 8.8 31.1 8.0 33.4 7.3 34.35 Q6.8 35.0 6.8 35.55 6.8 37.0 1.0 37.0 -4.8 37.0 -5.6 36.3 -6.2 35.0 -8.5 33.75 -9.85 33.0 -10.45 31.5 -10.85 29.9 -11.15 29.25 -13.95 21.65 -13.95 20.35 -13.95 19.4 -13.0 16.8 -12.0 14.05 -11.95 13.55 L-11.55 11.75 Q-11.25 10.7 -11.35 10.1 -11.5 9.3 -9.95 8.7 L-6.75 7.85 -6.8 7.5 Q-6.8 6.7 -5.55 6.05 L-3.2 5.9 -0.6 5.9 Q0.4 6.0 0.4 6.9 L0.2 7.25 M-23.55 12.15 Q-22.4 13.05 -22.35 15.4 L-22.05 20.05 -22.1 22.55 Q-22.3 23.65 -23.65 25.2 -24.6 26.3 -24.85 27.9 L-25.15 30.55 Q-25.6 33.35 -28.65 35.7 -30.6 37.25 -33.95 39.2 -37.15 41.0 -37.6 41.0 -38.0 41.0 -38.6 40.65 -41.15 41.75 -43.5 41.75 -44.35 41.75 -44.8 41.15 L-44.9 41.05 Q-48.05 40.55 -48.75 37.25 L-49.55 32.7 Q-50.2 29.4 -51.4 26.6 -56.65 13.8 -56.65 11.7 -56.65 9.8 -50.9 7.8 L-43.9 5.65 -35.6 5.9 -30.05 6.55 -25.35 7.35 Q-23.95 7.75 -23.95 9.05 -23.95 9.45 -24.65 10.7 -24.65 11.25 -23.55 12.15" fill="#b3884b" fill-rule="evenodd" stroke="none"/>
    <path d="M-200.9 18.75 Q-200.9 21.5 -202.35 23.9 -204.2 26.95 -204.9 30.3 -207.15 41.7 -210.7 41.7 L-221.6 41.9 -226.9 41.3 -231.95 40.35 Q-233.4 39.95 -233.85 39.2 L-234.05 37.8 -233.15 34.6 -231.8 30.75 Q-230.9 28.75 -230.6 26.9 L-230.1 23.7 Q-229.1 18.9 -227.1 13.85 L-225.3 9.5 -225.3 8.15 Q-225.05 6.9 -224.0 6.9 -209.0 6.9 -203.85 11.15 -200.9 13.55 -200.9 18.75" fill="url(#gradient1)" fill-rule="evenodd" stroke="none"/>
    <path d="M-218.15 35.5 L-218.55 35.45 -218.45 35.65 -218.15 35.5 M-220.9 35.3 L-221.9 36.75 -220.8 35.8 -220.9 35.3 M-231.65 30.75 L-231.0 29.85 -230.7 28.7 Q-230.25 29.0 -230.25 29.85 L-230.35 30.55 -230.35 30.85 Q-230.35 31.8 -230.75 32.7 -231.3 33.95 -232.55 34.35 L-232.8 34.0 -232.95 33.5 -231.65 30.75 M-221.4 18.2 L-221.7 16.0 -225.7 13.6 -226.15 16.8 -225.3 17.35 -222.8 19.2 -222.5 19.0 Q-222.4 18.75 -222.15 18.75 L-221.6 18.9 -221.4 19.0 -221.45 19.75 -221.2 19.75 -221.4 18.2 M-221.8 12.3 Q-221.6 11.45 -220.95 12.2 -220.45 12.7 -220.2 13.35 -219.75 12.9 -217.85 12.45 L-215.85 12.05 Q-215.35 12.05 -214.8 12.7 -212.85 12.75 -212.3 13.15 -212.05 13.3 -212.05 13.7 -212.05 14.3 -212.7 14.45 -213.8 14.7 -218.0 14.55 L-218.8 15.85 Q-219.2 16.6 -219.8 16.8 L-219.75 19.55 Q-219.75 20.35 -219.9 21.05 L-219.1 22.2 -218.65 22.0 Q-217.55 21.5 -216.85 21.35 L-215.2 17.65 Q-212.85 12.75 -212.85 15.6 L-214.25 19.65 Q-215.8 24.1 -216.6 24.25 L-216.65 24.35 -216.7 24.4 Q-215.35 23.9 -214.7 25.15 -214.15 24.75 -214.15 23.95 L-214.2 22.85 Q-214.05 22.1 -212.95 22.15 L-213.35 18.5 Q-213.4 16.2 -212.05 15.1 -211.15 16.25 -210.95 18.35 L-210.9 22.0 -211.2 24.05 Q-211.5 25.45 -211.95 26.3 L-212.2 28.95 Q-212.35 30.65 -213.75 30.65 L-214.0 30.6 -214.0 30.7 -214.0 32.35 Q-214.15 33.95 -214.8 33.95 -215.3 33.95 -215.75 30.45 -216.35 26.05 -216.75 24.8 L-216.7 24.45 Q-218.2 26.6 -219.75 26.75 -219.85 27.4 -220.55 27.4 -221.3 27.4 -222.5 27.9 -221.15 29.65 -219.8 32.65 L-219.5 33.4 -217.6 33.5 Q-214.45 34.0 -214.45 34.9 L-214.55 35.35 -214.5 35.7 Q-214.5 36.1 -216.75 37.15 L-217.15 37.35 -217.1 37.55 -217.3 38.05 -217.1 38.45 -217.35 38.1 -218.35 39.4 -220.3 42.0 -220.55 41.9 -221.8 41.9 -222.55 41.2 -223.15 41.5 -223.95 41.75 -223.9 41.95 -225.05 42.05 -225.15 42.1 -227.3 38.95 Q-229.7 35.1 -230.35 32.8 L-229.55 33.05 -227.85 29.75 Q-225.8 26.35 -225.8 29.5 L-225.5 31.7 -226.35 33.3 -227.3 34.45 -226.85 34.85 Q-226.15 35.3 -226.15 35.85 L-226.2 36.05 -226.15 36.4 -226.85 37.25 Q-226.4 37.8 -225.5 39.3 -225.05 38.1 -223.8 36.55 L-220.35 33.0 -222.7 27.95 -224.35 28.5 Q-224.7 28.5 -224.9 28.2 L-225.15 28.45 Q-225.65 28.45 -225.65 28.2 L-225.75 27.6 Q-225.75 26.8 -224.35 25.7 -223.15 24.75 -223.0 25.55 L-222.55 24.7 Q-222.15 23.65 -221.55 23.25 L-221.1 23.2 Q-221.0 22.85 -221.25 22.3 L-221.75 21.2 Q-222.1 21.9 -222.75 21.9 -225.8 20.95 -226.2 20.0 L-226.6 19.25 -227.1 19.4 -227.55 18.65 -227.8 17.9 Q-227.8 15.65 -226.75 13.2 L-226.4 12.5 Q-226.25 11.45 -225.5 11.6 L-222.25 12.25 -221.8 12.3 M-46.05 27.85 L-46.05 27.9 -46.0 27.85 -46.05 27.85 M-46.2 17.75 L-47.1 17.4 -47.2 17.6 -47.15 17.95 -47.7 18.95 -47.85 19.85 -47.7 20.95 -47.3 19.65 -46.3 17.95 -46.2 17.75 M-48.6 14.7 L-48.6 14.75 -48.2 15.5 -47.85 15.15 Q-48.15 14.95 -48.6 14.7 M-5.5 26.85 L-5.7 26.55 -5.5 27.5 -5.5 26.85 M-39.5 19.4 L-39.75 19.4 -41.85 18.75 -44.7 18.15 -44.65 21.25 -44.65 23.3 Q-44.75 23.8 -45.0 24.15 L-44.45 24.85 Q-42.95 26.8 -42.95 27.15 -42.95 27.7 -43.75 28.65 -44.35 29.4 -45.1 29.65 L-44.0 31.6 Q-43.45 32.5 -42.4 35.15 L-41.6 33.9 Q-41.2 32.2 -39.25 32.0 L-38.15 32.05 -36.35 29.1 Q-34.4 25.8 -34.4 25.2 -34.4 24.95 -35.85 23.5 L-37.1 21.95 Q-37.85 22.15 -37.95 23.5 -37.95 26.5 -39.35 26.5 -40.25 26.5 -40.25 25.5 -40.25 22.1 -39.5 19.4 M-38.15 16.1 L-37.25 15.0 -41.7 9.45 -45.75 9.0 Q-45.9 9.7 -46.65 9.95 L-50.25 10.75 -50.2 10.85 -47.65 13.25 -46.1 14.75 Q-46.1 15.1 -46.25 15.35 L-46.6 16.2 -46.25 15.75 Q-46.25 14.3 -42.6 16.25 -39.95 17.7 -39.2 18.45 L-38.15 16.1 M-36.9 14.85 L-37.15 15.0 -36.85 15.05 -36.9 14.85 M-37.35 9.3 L-37.45 9.35 Q-36.3 11.4 -36.05 12.6 L-35.85 13.1 -35.15 15.5 -34.85 17.85 -34.55 20.2 -34.4 19.55 Q-34.15 19.15 -33.45 19.15 -32.9 19.15 -32.45 21.1 L-32.1 23.1 -33.7 28.2 Q-35.6 33.2 -37.35 33.3 L-37.4 33.5 Q-37.7 33.85 -38.85 34.2 L-38.7 34.5 Q-38.1 35.0 -38.1 35.4 -38.1 36.0 -39.05 36.5 L-40.0 37.1 Q-40.0 37.45 -40.35 38.45 L-40.6 39.1 Q-39.45 39.65 -39.45 40.2 L-39.6 40.65 Q-39.85 41.05 -40.4 41.05 L-42.1 40.55 Q-43.45 40.0 -43.45 39.7 L-43.25 38.75 -46.15 34.2 -49.05 28.8 -48.8 28.1 -47.65 27.9 -47.4 26.65 -47.9 25.85 -48.95 23.8 -50.0 19.95 -49.85 18.1 -50.7 16.35 Q-52.45 12.65 -52.6 10.55 -53.3 10.65 -53.65 10.15 L-53.9 9.45 Q-53.9 8.45 -52.75 8.2 -50.3 7.75 -48.9 7.1 L-46.05 7.3 -45.85 7.6 -45.75 7.55 -41.5 7.05 -40.8 7.05 Q-40.4 5.05 -38.8 7.2 -37.6 7.4 -37.15 7.75 -36.45 7.25 -34.8 7.0 -31.9 6.5 -31.9 7.75 L-32.25 8.5 -32.45 8.8 -31.55 12.9 Q-30.6 17.95 -30.6 19.95 -30.6 20.35 -30.9 20.95 L-31.2 20.9 -32.5 14.45 -33.35 9.35 -36.9 9.45 -37.35 9.3 M3.3 36.6 L2.95 36.75 1.15 37.05 0.45 37.2 0.0 37.05 -1.75 36.7 -1.8 36.7 Q-1.85 37.05 -2.35 37.05 -5.25 37.05 -5.25 36.15 L-5.25 36.05 -5.85 35.5 -5.35 34.65 -5.75 33.75 -6.15 33.05 Q-6.15 31.7 -2.75 32.85 0.05 33.75 0.55 34.25 L1.45 33.6 6.3 33.9 Q7.0 34.0 7.0 34.5 7.0 35.4 6.6 35.8 5.85 36.55 3.3 36.6 M1.75 10.35 L2.45 10.2 Q2.45 11.9 2.75 15.0 L3.05 19.35 2.8 20.75 2.3 22.4 2.25 22.4 2.75 24.05 Q2.8 27.75 1.85 27.75 L1.3 27.3 1.15 26.65 1.2 26.0 Q0.95 26.7 0.3 26.7 L-2.9 26.55 -3.3 28.9 Q-4.05 32.0 -5.65 32.0 -6.8 32.0 -8.45 26.6 -9.1 25.75 -9.85 22.25 -9.85 21.5 -9.35 20.8 -8.8 20.15 -8.8 19.5 L-9.25 18.4 Q-9.2 17.6 -8.5 17.6 -8.0 17.6 -7.7 18.1 L-7.55 18.3 -8.25 16.15 -7.9 15.75 Q-7.05 16.75 -5.65 19.95 -4.35 22.95 -4.35 23.4 L-4.4 23.8 -4.75 24.1 Q-4.25 24.4 -3.85 24.8 L-3.05 25.05 -1.25 24.1 Q1.25 23.1 1.4 24.55 L1.55 23.1 Q1.55 22.1 1.7 21.85 L1.5 21.4 1.45 20.35 1.4 15.15 Q0.75 15.15 0.55 14.35 0.1 14.75 -0.35 14.75 L-0.9 14.35 -1.15 13.8 -1.35 14.2 -2.75 14.4 Q-5.5 14.4 -5.5 13.4 -6.15 12.5 -7.0 10.45 L-6.55 9.9 -6.1 9.3 -6.4 8.1 Q-6.4 4.8 -3.85 10.6 -3.85 10.9 -4.5 11.5 L-4.2 12.3 -4.05 12.6 -3.0 12.45 Q-1.7 12.45 -0.9 13.05 L0.0 13.85 0.5 13.15 0.5 11.7 -0.45 8.15 Q-0.45 5.7 0.85 8.25 L1.75 10.35" fill="#a0793f" fill-rule="evenodd" stroke="none"/>
    <path d="M-223.05 40.65 L-223.15 40.75 -219.8 40.45 -218.6 37.2 -218.5 36.75 -220.05 38.05 -219.15 37.1 -218.0 35.75 -217.0 35.85 Q-215.45 35.4 -215.45 36.55 -215.45 37.7 -216.15 39.1 L-216.65 39.9 -216.25 40.0 -216.1 40.05 -216.05 40.45 Q-216.05 41.0 -217.6 41.45 L-220.45 41.95 -220.55 41.9 -224.55 42.0 -224.6 41.95 -224.9 41.55 -224.6 41.2 -224.5 41.2 Q-223.95 41.2 -223.05 40.65 M-224.55 29.05 L-225.0 30.65 -225.7 33.0 -225.4 33.45 -225.85 34.15 -225.1 37.75 -224.95 40.75 -224.9 41.05 -224.9 41.15 -224.85 41.4 -225.3 41.95 -225.55 41.9 -225.85 41.25 Q-225.85 38.7 -226.45 36.95 -227.05 35.2 -227.05 33.95 L-226.3 31.3 Q-225.55 28.75 -225.5 27.95 L-225.05 27.75 -224.9 27.85 -224.95 28.05 -224.9 28.5 -224.85 28.65 -224.55 28.7 -224.55 29.05 M-228.85 22.4 L-226.75 15.55 -226.6 15.55 -226.3 17.25 -226.5 19.25 -227.7 21.7 -229.75 27.05 -229.55 27.7 -229.9 28.05 -230.0 28.05 -229.95 29.1 Q-229.95 30.65 -230.25 32.4 L-230.05 32.55 -230.35 32.95 -230.35 33.0 -230.4 33.0 -230.8 33.6 Q-231.2 34.15 -231.85 34.25 L-231.95 34.25 -232.15 35.0 Q-232.4 35.75 -232.85 35.75 -233.35 35.75 -233.25 35.6 L-233.3 35.1 -233.1 34.3 Q-232.85 33.8 -232.3 33.95 L-232.35 33.75 Q-231.45 31.95 -230.65 32.2 L-230.4 27.7 -230.4 27.55 -230.4 27.35 -230.35 27.15 -228.85 22.4 M-217.05 23.5 L-215.15 22.2 Q-214.0 15.9 -212.6 13.95 -212.6 14.85 -213.35 18.0 -211.8 14.5 -211.8 16.45 L-212.4 18.6 -212.35 18.6 Q-211.95 16.9 -211.3 16.9 -210.7 16.9 -210.7 17.65 L-211.5 20.55 -212.35 23.05 -211.55 24.4 -210.75 25.5 Q-210.75 25.8 -210.9 26.0 L-210.6 26.4 -210.9 26.6 -212.1 25.7 Q-212.75 25.1 -213.2 25.1 L-214.1 25.9 -214.9 26.55 -213.8 28.75 Q-212.55 31.35 -212.55 31.85 -212.55 32.15 -212.7 32.25 L-213.0 32.35 Q-214.5 30.6 -215.85 26.65 L-215.85 26.6 -216.1 26.05 -215.9 24.85 Q-216.85 26.55 -217.95 26.55 L-218.55 26.25 -218.95 25.9 Q-218.3 24.65 -217.05 23.5 M-220.55 15.35 L-220.65 17.0 -221.1 20.75 -221.5 22.75 -221.4 22.75 -220.45 23.05 -220.55 23.2 -221.15 23.15 Q-220.85 23.95 -220.75 26.15 -220.0 25.95 -219.6 26.15 L-219.15 26.5 Q-219.85 26.95 -220.65 26.95 L-220.75 26.85 -221.35 27.7 -222.2 27.75 -222.7 28.25 -222.25 27.1 -222.25 27.05 -221.6 26.45 -221.4 26.05 -221.15 26.0 -221.35 25.6 -221.35 25.35 -221.45 25.4 -222.05 24.1 Q-222.3 24.45 -222.55 24.45 L-222.6 24.45 -224.25 26.75 -223.55 26.55 -224.8 27.65 -225.3 27.6 -225.5 27.15 -225.5 26.9 -225.7 27.05 -225.65 26.25 -225.35 26.6 -224.35 25.1 -223.05 23.9 -223.1 23.75 Q-222.45 22.1 -222.15 18.85 L-221.4 14.1 Q-220.6 14.6 -220.55 15.35 M-46.6 8.2 L-46.65 8.5 Q-45.85 9.05 -45.7 11.4 L-45.65 13.15 Q-45.0 15.6 -45.0 16.3 L-46.1 19.6 -47.35 23.95 -45.35 25.9 -44.3 27.25 -44.4 27.65 -44.7 27.7 -47.1 27.75 Q-47.95 27.75 -48.45 27.3 L-48.7 27.65 -48.9 27.5 -49.0 26.5 -48.95 25.9 -48.95 25.7 -48.85 25.6 -48.6 25.05 -48.5 25.05 -48.35 24.9 -48.65 22.65 -48.35 18.95 Q-48.35 17.7 -47.55 16.95 -46.75 16.2 -46.75 15.35 L-46.75 14.6 -46.45 14.2 -46.75 12.35 -47.05 9.45 -46.85 8.65 -47.05 8.45 -46.9 7.8 -46.65 7.8 -46.6 8.2 M-39.4 26.75 L-39.6 26.7 -39.75 27.35 -39.7 27.45 Q-39.3 27.25 -39.3 26.9 L-39.3 26.35 -39.4 26.75 M-37.95 16.4 L-38.8 17.55 -38.7 21.55 -39.0 23.8 -39.0 24.65 -39.05 25.2 Q-38.7 23.9 -37.75 22.55 L-36.15 20.25 Q-36.15 19.3 -36.5 17.55 L-37.05 14.95 -37.95 16.4 M-37.25 11.4 L-37.3 9.15 -37.15 9.15 -35.6 20.35 Q-35.6 20.95 -37.35 24.35 -38.95 27.4 -40.05 28.85 L-39.6 30.4 Q-39.05 32.9 -39.05 33.95 -39.05 34.45 -39.4 34.75 L-39.75 34.6 -39.95 33.8 Q-40.0 34.35 -40.45 34.6 L-40.55 34.55 -40.65 35.1 Q-41.05 36.5 -41.85 37.2 L-42.2 37.1 -42.4 36.1 -41.8 32.6 -41.15 28.95 Q-40.95 27.75 -40.55 28.0 L-39.8 24.15 -39.9 18.25 -39.8 17.95 -39.6 17.9 -39.6 17.5 Q-39.6 16.8 -38.8 15.6 L-37.45 13.4 Q-37.15 12.7 -37.25 11.4 M-6.25 24.05 L-5.95 24.45 -6.85 25.3 -7.6 26.1 -7.8 25.65 -6.25 24.05 M1.8 25.15 L1.75 24.75 1.6 25.35 1.8 25.15 M1.1 24.6 L1.0 23.95 0.25 24.35 -0.45 24.65 -0.7 24.65 -0.65 24.95 Q-1.9 24.7 -2.15 25.4 L-2.6 25.2 -2.85 26.15 Q-3.55 30.75 -4.2 32.35 L-2.65 32.6 Q-0.05 33.2 0.4 33.65 L0.65 33.3 0.7 33.6 0.6 31.8 1.0 30.3 1.1 28.25 0.95 27.45 Q1.3 27.25 1.3 26.6 1.3 26.1 0.95 25.75 1.3 25.4 1.1 24.6 M2.55 18.55 L2.65 18.55 2.65 20.0 2.55 20.0 2.55 18.55 M2.4 9.6 L2.5 11.7 Q2.35 21.45 1.75 24.6 L2.2 24.1 3.05 23.8 Q2.2 23.5 2.2 21.7 L2.25 21.25 2.55 21.0 2.7 21.0 Q2.5 22.45 4.55 24.8 L7.6 28.55 5.85 26.5 Q4.6 24.9 3.7 24.25 3.1 24.8 2.05 28.75 1.1 32.4 1.1 33.2 L1.2 33.9 0.95 33.9 0.35 35.3 -1.0 37.25 -1.15 37.05 0.05 34.2 -0.25 34.2 -2.15 33.6 -4.45 33.0 -4.55 33.0 -4.75 33.2 -4.75 33.3 -5.2 33.6 -5.65 33.45 -5.8 33.15 Q-5.8 32.6 -5.2 32.4 L-5.2 32.05 -4.1 28.1 -4.05 27.95 -3.6 25.95 -3.45 25.35 -3.85 25.2 -4.35 25.35 -5.05 25.15 -5.8 24.45 -5.2 24.3 -4.3 24.75 -4.0 24.75 -4.0 24.65 -3.65 24.15 -3.25 23.75 -3.1 20.8 -3.55 18.4 -3.9 16.3 -4.2 15.3 -4.45 13.85 -4.4 13.6 -4.3 13.65 -4.55 10.3 -4.4 8.15 -4.1 8.15 -3.8 10.9 -3.4 12.45 Q-3.75 13.1 -3.75 14.1 L-3.75 14.2 Q-3.25 15.0 -3.25 16.85 -2.85 16.9 -2.65 17.35 -2.5 17.65 -2.5 18.0 L-2.55 18.6 -2.85 18.6 -3.45 17.05 -3.55 16.95 -3.1 20.35 -2.95 18.8 -2.85 18.8 -2.5 21.8 -2.25 21.9 -2.15 21.9 -1.9 24.1 -1.7 24.2 -1.65 24.15 -1.55 24.15 -1.65 24.0 -1.45 24.0 -1.2 24.05 -1.1 24.0 -1.05 24.05 0.2 23.75 Q0.65 23.5 0.95 23.4 L1.3 22.5 1.25 21.85 1.85 20.8 1.9 17.05 Q1.8 13.2 2.2 9.6 L2.4 9.6" fill="#866635" fill-rule="evenodd" stroke="none"/>
    <path d="M-6.6 10.45 Q-6.6 12.35 -7.0 15.15 L-7.65 19.8 -8.15 24.45 -7.9 25.1 -6.5 29.5 -4.9 33.75 -3.7 37.2 -3.7 37.4 -3.55 37.65 -3.55 37.8 -3.35 38.0 -3.1 38.35 -2.45 39.45 -2.45 39.55 -2.25 44.4 Q-4.1 45.3 -10.15 45.3 L-11.05 45.2 -12.4 46.15 Q-14.8 47.75 -16.1 47.75 L-19.35 46.95 -23.25 46.15 -28.05 45.6 Q-29.8 46.6 -36.85 46.6 -40.05 46.6 -40.95 45.15 L-40.3 40.8 -39.8 36.1 -39.7 36.0 -37.45 33.45 Q-35.3 29.85 -34.05 26.3 -33.0 25.55 -32.65 24.7 -32.3 24.4 -32.0 23.5 L-32.2 19.0 -32.2 18.95 -32.3 16.65 -32.55 8.65 -32.55 8.3 -32.65 6.95 Q-32.65 5.15 -32.0 4.45 L-31.65 5.4 Q-31.5 4.45 -30.8 4.7 -30.3 4.9 -29.95 5.7 L-29.6 5.95 Q-28.9 6.6 -28.5 7.8 L-24.7 7.9 Q-21.3 8.35 -18.15 9.4 L-11.35 9.4 -11.3 9.25 -11.15 9.15 -11.15 9.2 -10.35 8.8 Q-7.5 6.95 -6.85 7.95 -6.6 8.25 -6.6 10.45 M-57.05 7.25 Q-53.95 6.9 -53.6 9.9 -52.1 11.35 -50.85 14.75 -48.95 19.85 -48.95 24.6 -48.35 28.25 -45.3 34.75 L-42.4 40.95 -43.35 42.25 Q-45.45 43.5 -51.25 43.5 L-54.85 43.05 -57.35 45.75 Q-60.05 48.55 -61.3 48.85 -60.65 50.4 -63.25 50.9 L-73.4 52.0 -81.55 52.0 Q-85.9 51.8 -89.05 50.45 -91.7 49.35 -92.7 47.8 L-93.9 46.9 Q-94.15 46.35 -94.75 46.35 L-94.85 46.35 -95.25 46.2 -97.25 46.25 -99.8 46.1 -105.85 44.85 -106.3 44.65 -111.9 43.25 -114.3 43.25 -115.1 44.55 Q-117.1 47.1 -119.3 47.1 -120.1 47.1 -120.4 46.75 L-122.4 47.05 -127.8 47.5 -131.75 47.4 -137.35 47.9 Q-139.55 47.9 -143.6 46.35 L-145.95 45.35 -148.4 45.35 -152.1 45.6 -159.35 45.6 Q-165.2 46.2 -167.7 45.05 L-169.05 45.55 -174.6 46.4 Q-174.85 47.75 -177.3 49.0 -180.45 50.65 -185.05 50.65 L-186.0 50.4 -191.6 49.25 -194.2 48.6 -195.25 48.6 -198.5 48.7 -210.25 47.9 -210.7 48.05 Q-214.85 46.25 -214.85 45.0 L-214.85 44.85 Q-215.7 43.55 -216.6 40.55 L-216.55 39.6 -216.55 39.4 -215.15 36.15 Q-213.65 32.8 -213.3 31.45 -210.85 24.7 -210.85 23.4 L-211.15 20.85 -211.4 18.3 -211.55 12.9 Q-209.75 7.7 -208.7 7.0 L-194.6 7.0 -190.7 6.75 -175.45 6.75 -164.65 5.95 -157.0 5.05 -128.5 5.05 -123.2 4.8 -108.5 4.8 -99.7 5.35 -87.95 5.85 -81.9 5.9 -78.2 5.75 Q-76.25 5.45 -73.75 6.45 L-67.0 6.5 Q-62.5 6.4 -59.3 7.95 -58.2 7.4 -57.05 7.25" fill="#d1b07e" fill-rule="evenodd" stroke="none"/>
    <path d="M-48.95 24.5 L-49.6 20.55 Q-50.2 16.25 -52.65 11.05 -51.7 12.45 -50.85 14.75 -48.95 19.8 -48.95 24.5 M-59.2 7.95 L-59.25 7.95 -59.2 7.9 -59.2 7.95 M-68.75 8.6 L-69.2 9.45 Q-70.6 9.05 -71.35 8.45 -71.85 8.0 -72.9 8.0 -73.65 8.0 -74.55 8.95 -75.9 8.95 -76.4 8.15 -76.95 7.3 -77.9 7.3 -78.95 7.3 -79.4 8.15 L-79.65 9.15 -79.5 9.95 Q-79.85 9.45 -80.2 9.45 L-81.35 9.55 -83.1 10.2 Q-83.3 8.2 -84.15 6.8 -85.45 4.65 -87.25 7.55 L-88.35 7.3 Q-89.1 7.3 -89.65 7.9 L-90.05 8.5 Q-90.55 6.85 -91.55 6.4 L-91.6 5.7 -87.95 5.85 -81.9 5.9 -78.2 5.75 Q-76.25 5.45 -73.75 6.45 L-67.0 6.5 -64.4 6.6 Q-65.1 6.75 -65.5 7.4 L-65.8 8.4 -65.35 9.8 Q-66.4 8.0 -67.45 8.0 -68.2 8.0 -68.75 8.6 M-63.3 6.75 L-60.85 7.3 Q-61.45 7.4 -62.1 8.05 L-62.65 7.25 -63.3 6.75 M-42.4 40.95 L-43.35 42.25 -43.95 42.55 -43.55 42.1 Q-42.8 41.3 -42.8 40.9 -42.8 40.5 -44.6 36.25 L-42.4 40.95 M-90.65 48.15 L-90.65 48.2 Q-90.65 49.15 -89.9 50.1 L-91.35 49.25 -90.8 48.5 -90.65 48.15 M-126.4 46.5 L-126.0 47.45 -126.85 47.5 Q-126.45 47.05 -126.4 46.5 M-179.85 6.75 L-175.45 6.75 -172.6 6.65 -172.45 7.15 Q-173.15 7.4 -173.7 7.9 -174.15 7.5 -174.85 7.5 -175.7 7.5 -176.2 8.1 L-176.7 8.8 Q-177.0 8.5 -177.75 8.4 -178.55 8.3 -179.1 8.7 L-179.5 7.3 -179.85 6.75 M-184.8 50.65 L-185.05 50.65 -185.6 50.6 -185.2 49.8 -185.2 48.0 -184.8 50.65" fill="#a0793f" fill-opacity="0.5019608" fill-rule="evenodd" stroke="none"/>
    <path d="M-92.65 5.65 L-92.55 6.2 Q-94.3 6.25 -94.3 8.2 -94.3 9.1 -93.55 11.5 -92.75 13.95 -92.75 14.55 L-92.1 20.8 -91.7 25.3 -91.85 26.8 -91.95 27.1 Q-92.55 27.65 -93.0 29.1 L-93.5 31.7 -93.8 34.05 -93.8 34.2 -93.85 34.35 Q-94.6 37.8 -94.65 39.95 L-95.05 45.45 -95.15 46.25 -95.25 46.2 -97.25 46.25 -99.8 46.1 -105.85 44.85 -106.3 44.65 -111.9 43.25 -114.1 43.25 Q-114.35 39.55 -115.1 37.25 L-117.6 29.75 Q-116.75 29.0 -116.7 26.9 L-116.9 22.25 -116.3 17.7 Q-116.15 16.7 -116.15 14.35 -116.15 12.75 -117.35 10.9 -118.65 8.85 -119.6 11.9 L-119.9 17.35 -120.0 18.3 -120.05 13.6 Q-120.05 9.8 -120.7 8.05 -122.4 3.5 -124.1 10.9 L-124.65 9.5 Q-125.2 8.55 -126.45 8.55 L-126.55 8.55 -127.35 5.05 -123.2 4.8 -108.5 4.8 -99.7 5.35 -92.65 5.65 M-99.6 21.1 L-99.8 20.8 -100.05 20.45 Q-100.45 19.85 -100.6 20.4 L-101.4 21.7 -104.75 29.0 -104.7 29.2 -104.3 29.35 Q-103.9 29.35 -101.25 27.45 -98.55 25.55 -98.55 25.25 L-98.6 24.8 -98.55 24.7 -98.55 24.3 Q-98.55 23.0 -99.6 21.1 M-113.7 18.2 L-114.15 20.9 -114.5 23.7 -114.05 24.05 Q-113.25 23.35 -113.25 19.95 L-113.3 18.25 -113.7 18.2 M-109.7 17.9 Q-110.7 18.55 -110.7 20.25 L-109.7 24.55 Q-108.65 28.35 -108.4 28.35 -107.75 28.35 -107.35 27.05 L-107.3 26.7 -106.9 26.85 Q-106.45 26.45 -106.45 25.85 -106.45 24.85 -107.5 21.0 L-108.65 17.1 -108.95 17.3 -109.2 17.1 -109.7 17.9 M-108.4 36.25 Q-107.15 36.25 -107.15 34.95 L-107.4 33.4 Q-108.2 33.35 -108.6 33.9 L-108.95 34.7 -108.95 36.05 Q-108.9 36.25 -108.4 36.25" fill="url(#gradient2)" fill-rule="evenodd" stroke="none"/>
    <path d="M-92.25 8.25 L-92.2 8.75 -92.25 9.1 -91.75 8.65 -92.25 8.25 M-77.45 49.75 L-77.65 49.75 -77.55 49.9 -77.45 49.75 M-72.1 31.2 L-71.3 32.2 -70.55 31.45 -71.15 30.9 -72.1 31.2 M-74.1 27.85 L-74.1 28.1 Q-74.05 29.0 -73.15 29.0 L-74.1 27.85 M-68.8 28.15 L-68.8 30.1 Q-68.9 30.95 -69.15 31.45 L-69.15 31.7 -69.5 32.9 -70.05 33.8 -69.85 34.05 -70.0 34.7 -70.7 35.25 -70.2 41.85 -70.2 42.6 -70.3 42.85 Q-69.1 44.25 -67.4 47.15 L-65.4 50.75 -65.45 51.3 -66.05 51.5 -69.05 48.85 Q-71.5 46.75 -72.55 46.75 L-72.85 46.75 -72.75 47.25 -73.8 48.7 Q-74.9 49.95 -75.35 49.95 L-75.55 49.95 -77.55 52.2 -77.85 52.1 -79.0 52.3 -80.9 51.85 -81.15 51.7 -81.25 51.75 -83.25 51.95 -84.55 51.8 Q-84.9 51.65 -84.9 51.2 -85.1 50.45 -83.45 50.45 L-82.5 50.5 -82.95 50.05 Q-82.95 48.65 -79.7 48.15 -77.1 47.75 -76.55 48.4 L-74.7 45.8 Q-72.3 42.5 -71.5 42.05 L-73.05 38.7 Q-75.05 38.05 -79.9 35.1 -79.9 33.05 -75.6 34.95 -74.95 35.25 -74.4 35.5 L-74.4 35.45 Q-74.4 34.0 -73.3 34.2 L-72.35 34.6 -73.45 33.35 -74.8 31.35 Q-75.55 31.05 -76.0 29.75 -76.4 28.6 -76.4 27.75 -76.4 27.05 -75.85 26.65 -75.15 26.15 -74.25 26.9 L-74.2 27.05 Q-74.0 26.25 -73.0 26.25 -72.3 26.25 -71.7 26.95 L-70.9 27.95 -70.9 27.9 -70.8 25.8 Q-70.65 24.55 -69.45 24.7 -68.6 24.8 -68.6 26.05 L-68.8 28.15 M-58.6 18.2 L-58.85 16.05 -59.55 16.15 -63.7 14.0 -64.0 13.85 -63.8 14.3 -63.9 16.5 Q-63.15 16.7 -63.15 17.8 L-63.2 20.7 -62.85 26.1 -61.3 29.4 -59.65 28.25 Q-57.7 27.0 -56.6 26.75 L-56.6 26.55 -56.45 25.7 Q-56.85 25.45 -57.15 24.2 L-58.2 21.75 -58.15 21.4 -58.05 21.3 -57.9 21.35 -58.6 18.2 M-57.05 10.05 L-56.65 10.4 -55.05 9.55 Q-53.65 8.9 -53.0 9.8 L-52.05 11.1 Q-51.6 11.9 -51.6 12.65 L-54.0 17.8 -54.95 20.95 Q-55.35 22.2 -55.8 22.7 L-55.75 22.95 -54.3 25.1 Q-53.05 27.35 -52.8 28.35 L-50.9 26.9 Q-48.1 25.25 -48.1 28.35 L-49.55 30.6 -51.0 32.25 -50.6 34.3 -49.9 37.65 Q-49.5 39.55 -49.5 40.8 L-49.6 41.85 -49.3 41.95 -48.85 41.9 Q-47.55 41.9 -47.55 42.5 L-47.65 42.9 -48.15 43.2 -48.7 43.65 -52.9 43.9 Q-54.0 43.9 -54.0 42.7 -54.0 42.0 -53.35 41.7 -53.95 40.65 -54.2 38.5 L-54.35 34.05 Q-54.35 32.4 -53.5 31.1 L-53.65 29.95 -53.65 29.8 -53.75 29.8 -53.75 29.85 -53.8 30.55 Q-54.0 31.15 -54.75 31.15 L-55.15 30.85 -57.3 32.8 Q-60.25 35.4 -61.5 35.4 -62.15 35.4 -63.2 34.55 -64.2 33.7 -64.2 33.3 L-63.9 32.15 Q-64.65 30.05 -65.1 22.15 L-65.05 20.2 Q-65.9 20.0 -65.95 17.95 L-65.75 15.1 Q-65.7 14.65 -66.3 12.9 -67.05 13.4 -68.85 13.95 -72.0 14.9 -74.75 14.9 L-74.75 14.95 -75.35 18.25 -76.15 21.45 -76.5 21.3 -77.35 16.3 -77.85 13.25 -79.8 13.45 -83.4 13.3 -83.3 13.9 -83.7 18.95 Q-84.05 22.05 -84.45 23.25 L-84.4 23.4 -84.15 25.85 -83.85 28.3 -82.6 31.3 -81.6 33.3 -81.65 33.7 Q-81.8 34.1 -82.4 34.1 -82.95 34.1 -84.25 32.5 L-85.95 30.15 Q-89.7 30.3 -90.85 29.65 -91.4 29.3 -91.25 28.85 L-91.05 27.45 -91.1 27.3 Q-91.1 26.35 -90.15 26.7 L-85.6 25.5 -85.7 23.6 Q-86.05 23.1 -85.85 21.8 L-85.4 16.95 -85.0 14.6 Q-84.85 13.7 -84.25 13.2 L-84.55 13.1 -84.85 13.0 -84.85 13.35 -85.0 14.35 Q-85.25 15.25 -85.8 15.25 L-85.85 15.25 -85.9 15.3 -86.0 15.2 -86.25 15.0 -89.7 11.6 -91.3 9.95 -91.3 10.05 -91.55 11.2 Q-92.0 12.45 -92.95 12.45 -93.4 12.45 -93.55 12.1 L-93.6 12.0 -94.15 6.35 Q-94.15 4.7 -93.2 6.05 L-92.6 7.1 Q-91.95 6.3 -89.05 8.05 L-86.55 9.7 Q-85.95 8.55 -81.6 9.2 -79.05 9.6 -77.8 10.3 -77.7 9.1 -76.05 9.4 -74.65 9.65 -74.4 10.55 L-73.35 10.4 Q-72.3 10.4 -72.0 10.65 -71.8 10.8 -71.8 11.25 L-71.85 11.65 Q-72.05 12.05 -72.85 12.05 L-74.45 11.95 -74.7 11.85 -74.8 12.2 -74.75 12.55 -71.1 11.85 -66.75 11.5 -67.2 9.8 Q-67.2 7.25 -65.75 9.95 -64.65 9.0 -61.9 9.5 -59.85 9.85 -58.75 10.4 -58.4 9.65 -57.8 9.65 -57.45 9.65 -57.05 10.05 M-22.65 23.7 L-22.65 23.4 -22.9 23.75 -22.65 23.7 M-14.3 19.0 L-14.25 18.7 -14.5 18.25 -16.7 15.85 Q-17.45 15.1 -20.3 13.8 L-20.6 13.65 -20.6 14.05 -20.85 16.55 Q-21.1 18.15 -21.6 18.7 L-21.55 19.85 -21.4 22.85 -20.9 23.3 -18.9 25.95 Q-18.25 25.3 -16.4 24.8 L-15.55 24.65 -14.3 19.0 M-12.4 17.35 L-12.45 17.35 -14.15 24.65 Q-13.7 24.8 -13.6 25.15 L-12.15 24.6 Q-8.5 23.35 -8.5 25.4 L-9.9 27.7 -11.4 29.35 -10.55 30.65 Q-8.35 34.1 -6.15 38.45 L-6.25 39.1 Q-6.55 39.75 -7.4 39.75 -8.15 39.75 -11.6 34.0 L-14.75 28.45 Q-15.25 28.4 -15.55 27.95 L-15.8 27.2 -17.95 27.75 -18.6 27.7 -19.4 27.6 Q-19.5 28.3 -20.5 29.0 L-21.15 29.45 Q-20.8 29.85 -20.8 30.5 -20.8 31.35 -21.25 32.9 L-21.55 37.0 -21.25 37.15 -21.0 37.65 -24.7 43.0 -23.15 44.5 -18.55 45.75 Q-15.55 46.5 -15.55 47.1 -15.55 48.0 -16.25 48.0 L-19.45 47.2 Q-22.15 46.4 -24.4 46.5 -25.55 46.5 -26.3 44.0 L-26.7 43.75 Q-27.1 43.35 -27.1 42.75 L-26.5 41.0 -26.7 41.05 Q-27.5 41.05 -27.5 40.1 L-27.5 39.9 -28.1 40.65 Q-29.2 41.8 -30.85 41.95 L-30.75 41.95 -29.25 42.9 -29.05 43.8 Q-29.05 44.25 -30.1 44.95 -29.0 45.2 -29.0 45.8 -29.0 47.1 -35.75 47.1 -37.0 47.1 -37.3 46.6 -37.95 47.4 -38.55 47.4 L-39.15 47.0 -39.35 46.5 -36.9 41.7 Q-34.6 37.85 -34.45 40.4 L-32.15 39.7 -29.45 39.1 Q-28.1 38.2 -27.65 38.25 -27.35 38.25 -27.25 38.65 L-24.8 31.5 -23.75 29.0 -28.55 23.95 Q-28.45 23.4 -27.7 23.4 -27.0 23.4 -25.9 24.4 -25.6 24.1 -25.0 24.1 L-24.95 24.1 Q-23.35 22.3 -22.7 22.15 L-22.75 20.95 -22.9 18.75 Q-23.3 18.35 -23.3 17.45 L-22.95 15.2 -22.95 14.65 -25.15 12.8 -26.1 12.1 Q-26.5 13.7 -28.35 18.2 -28.85 17.75 -28.85 16.95 -28.85 15.7 -28.0 13.5 L-28.45 12.4 -28.65 11.7 -28.65 11.8 -28.95 16.3 -29.2 22.6 Q-29.2 23.45 -28.85 23.8 -28.45 24.15 -28.45 25.1 L-29.05 26.75 Q-29.85 28.35 -30.85 28.35 -31.95 28.35 -31.95 25.4 L-30.85 15.25 -30.3 10.1 -30.2 9.8 -30.9 8.55 -31.85 6.35 Q-31.85 4.55 -30.25 6.2 -28.65 7.9 -28.65 9.05 L-28.75 9.75 -28.8 9.85 -28.75 10.3 Q-28.55 9.2 -27.7 8.9 -26.75 8.6 -26.65 9.9 L-26.35 9.75 -24.0 9.65 Q-22.15 10.05 -21.3 11.3 -19.9 11.1 -17.25 11.3 -12.45 11.65 -11.75 12.65 L-10.9 11.8 Q-8.6 9.95 -8.6 11.9 L-9.8 14.6 Q-11.25 17.35 -12.4 17.35 M-14.15 16.25 L-13.75 16.7 -13.1 14.1 Q-14.3 14.3 -16.45 14.15 L-14.15 16.25 M-206.2 36.45 L-206.85 36.2 -206.75 37.15 -206.75 37.75 -206.65 38.4 -206.2 36.45 M-206.3 33.25 Q-207.2 33.05 -207.2 31.95 L-207.1 31.7 -207.6 31.2 -207.55 31.3 -206.95 35.05 -206.3 33.25 M-167.1 41.15 L-167.15 41.15 -167.75 41.2 -167.7 42.3 -166.95 41.25 -167.1 41.15 M-198.35 46.55 L-198.4 46.35 -198.85 46.7 -198.35 46.55 M-196.85 41.45 L-196.75 42.05 -196.8 41.3 -196.85 41.45 M-198.05 32.85 L-198.1 33.05 -197.35 33.7 Q-196.8 34.45 -196.8 35.55 L-196.9 35.9 -196.3 38.6 Q-196.0 40.85 -196.1 44.35 L-195.95 44.35 Q-195.25 42.45 -194.6 38.15 -194.4 36.9 -193.9 36.4 L-196.95 32.65 -198.05 32.85 M-198.0 35.25 L-200.05 32.9 -200.05 32.75 -200.95 32.35 -202.1 31.8 Q-202.3 33.3 -203.4 33.3 -203.85 33.3 -204.55 32.65 L-204.85 32.9 -204.8 33.8 -205.05 35.15 -205.15 35.35 -205.1 36.1 -204.7 38.55 -205.3 40.7 Q-205.95 42.8 -206.3 42.8 L-206.55 42.75 -206.45 45.1 -206.5 45.8 -206.95 46.35 -206.95 47.45 -202.95 47.6 Q-202.35 46.0 -199.65 42.55 -197.75 40.1 -196.9 39.55 L-196.9 39.35 Q-197.0 38.1 -197.8 35.8 L-198.0 35.25 M-188.2 35.8 L-188.8 34.7 -188.8 34.75 Q-188.8 35.0 -189.9 36.45 L-190.6 37.3 -189.4 40.8 -188.0 47.2 Q-186.15 41.15 -186.1 38.65 L-188.2 35.8 M-189.9 31.8 L-189.95 31.65 -190.25 33.05 -190.6 34.5 -190.55 34.8 -190.2 34.3 Q-189.9 33.95 -189.5 33.95 L-189.0 34.15 Q-189.25 33.15 -188.9 32.4 -189.7 32.4 -189.9 31.8 M-191.3 30.55 L-191.1 30.05 -191.85 30.2 -192.4 29.55 Q-193.05 30.1 -193.65 30.3 L-194.2 30.95 -194.95 31.85 -193.65 33.55 -192.6 35.1 -192.6 34.9 -192.8 34.2 -192.7 33.8 -192.45 34.15 -191.3 30.55 M-187.35 18.2 L-187.45 19.25 Q-187.6 20.25 -187.95 20.25 -189.2 20.25 -189.6 12.7 -189.6 11.25 -188.65 10.1 -187.7 8.9 -187.65 12.45 L-187.35 18.2 M-136.15 41.3 L-136.05 41.15 -136.2 41.25 -136.15 41.3 M-141.8 46.55 Q-142.45 46.45 -142.45 44.95 -142.45 43.2 -141.7 43.1 -141.3 43.0 -141.1 43.6 -140.7 42.3 -137.05 40.2 L-133.7 38.6 Q-132.75 36.75 -132.25 33.95 -131.15 31.0 -129.85 34.3 -128.7 37.1 -128.7 38.7 -128.75 37.8 -130.6 42.25 L-132.1 45.75 Q-131.75 46.2 -131.75 46.75 L-131.85 47.15 -132.3 47.25 -132.65 46.95 -132.75 47.1 Q-133.6 47.1 -134.4 41.75 L-135.5 43.05 -136.2 43.85 -136.65 44.3 -140.95 47.55 Q-141.8 47.55 -141.8 46.65 L-141.8 46.55 M-146.75 41.5 Q-147.55 41.5 -147.55 40.4 -147.55 39.55 -146.45 37.75 -145.3 36.0 -145.3 38.65 L-145.65 40.05 Q-146.15 41.5 -146.75 41.5 M-153.4 34.95 L-152.55 33.35 -151.2 31.4 -152.3 30.55 -153.05 33.6 -153.65 35.5 -153.4 34.95 M-154.15 36.65 L-154.4 37.0 -154.2 37.2 -154.2 36.9 -154.15 36.65 M-160.15 27.2 L-160.05 27.25 -159.75 27.45 -160.7 25.7 -160.15 27.2 M-146.45 32.75 L-146.55 32.8 -146.5 33.0 -146.45 32.75 M-127.6 16.75 Q-125.65 9.95 -125.55 14.9 -125.5 17.05 -123.8 23.4 L-122.1 29.75 -122.2 30.45 Q-122.4 31.05 -122.85 31.05 -123.25 31.05 -124.75 28.05 -125.25 27.05 -127.5 27.25 -129.5 27.4 -129.5 25.95 -129.5 23.55 -127.6 16.75 M-137.15 12.95 L-137.35 12.7 -137.9 13.25 -137.7 13.2 -137.15 13.4 -136.9 13.65 -136.6 13.45 -137.15 12.95 M-130.55 11.45 L-128.8 11.55 Q-127.5 12.0 -127.5 12.6 -127.5 13.55 -128.45 17.2 L-129.4 21.2 -129.6 26.55 Q-129.9 29.9 -131.0 29.9 -131.4 29.9 -131.7 29.1 L-131.9 28.15 -131.3 18.6 -131.2 15.7 Q-131.45 16.0 -132.05 16.0 L-134.1 14.75 -134.75 19.95 Q-135.05 22.5 -135.65 24.2 -135.8 25.1 -136.15 25.4 L-136.7 22.6 -137.1 19.8 -138.0 16.85 Q-138.5 15.3 -138.5 14.15 L-138.4 13.55 -139.35 14.15 Q-141.55 15.45 -142.85 15.45 L-142.95 15.45 -143.65 20.55 -144.4 24.35 -143.25 26.15 -141.8 28.5 Q-140.55 30.6 -140.55 31.4 -140.55 32.15 -142.05 34.15 -143.85 36.6 -145.7 36.6 -146.2 36.6 -146.55 36.15 L-146.85 35.3 -146.7 34.15 Q-146.95 34.45 -147.65 34.45 L-148.25 34.25 -152.9 38.15 -153.9 37.85 -153.85 38.05 Q-153.85 38.6 -154.45 38.6 -155.65 38.6 -161.15 28.25 L-162.05 26.1 -162.7 23.25 -162.65 22.55 -162.85 22.25 -162.75 22.1 -162.95 21.3 -163.0 21.1 Q-163.7 24.4 -165.3 29.8 L-165.75 30.75 -165.5 30.5 Q-163.1 27.95 -162.4 27.8 L-162.4 27.7 -162.35 28.0 Q-166.5 34.6 -167.3 34.95 L-166.7 36.7 -166.25 38.35 -163.05 38.25 Q-159.25 38.3 -158.45 39.65 L-158.5 39.95 Q-158.85 40.3 -159.2 40.3 -160.15 40.3 -162.6 41.7 L-165.1 43.1 -165.15 43.1 -165.2 43.2 Q-166.0 44.6 -167.15 44.6 L-167.85 44.35 Q-168.15 44.75 -168.8 44.75 -169.15 44.75 -169.85 40.9 L-170.2 38.75 -173.0 44.3 Q-172.55 44.65 -172.55 45.1 L-173.2 46.45 Q-174.0 47.75 -174.85 47.75 -175.8 47.75 -175.8 46.7 L-175.5 46.1 -175.2 45.65 Q-175.7 45.35 -179.0 38.1 L-179.55 38.65 -187.2 49.15 -187.35 49.15 Q-187.5 49.65 -188.05 49.65 -189.15 49.65 -189.15 48.9 L-189.1 48.1 -190.3 43.45 -191.7 38.05 -191.85 38.05 Q-192.45 38.05 -192.65 37.35 L-194.45 41.8 Q-195.6 44.5 -196.2 45.1 L-195.75 47.4 Q-195.75 49.35 -202.15 49.35 L-202.9 49.1 -205.2 49.15 Q-209.0 49.15 -209.15 47.6 L-208.55 45.25 -209.2 41.05 -209.35 41.25 Q-211.05 43.45 -212.4 43.45 L-212.95 43.2 -213.0 42.85 Q-213.0 41.6 -211.4 40.2 L-210.7 38.9 -210.7 38.6 -210.4 33.1 -209.9 28.8 Q-209.35 27.7 -208.85 28.0 L-209.0 26.5 Q-209.0 24.9 -208.3 26.45 -207.55 28.0 -207.55 28.5 L-207.7 29.0 Q-207.25 29.3 -206.75 29.95 L-206.55 30.25 -204.4 25.35 Q-203.3 23.15 -202.6 22.5 L-202.6 22.45 -201.8 18.1 Q-202.85 16.95 -203.35 11.2 -203.35 9.3 -203.1 9.2 L-201.1 9.35 -200.0 9.1 Q-199.6 9.1 -199.6 10.1 L-200.15 14.25 -200.55 16.5 -200.5 18.45 -200.7 20.65 Q-201.0 22.5 -201.7 22.9 -201.55 23.4 -201.55 24.35 L-202.25 29.0 -202.1 30.9 -200.35 31.25 Q-199.45 31.6 -198.9 31.85 L-196.65 31.5 -195.25 30.0 -195.2 29.95 -195.2 29.75 Q-195.2 29.35 -193.1 27.95 L-192.85 27.75 -193.4 22.65 -193.85 14.9 -193.5 11.05 Q-193.0 7.7 -191.95 9.25 -191.25 10.3 -191.2 12.3 L-191.2 15.6 -190.2 22.25 -189.55 27.15 Q-188.65 26.95 -188.65 27.95 -188.65 28.4 -188.8 28.55 -189.0 28.8 -189.55 28.85 L-189.95 29.35 -189.85 30.35 Q-189.65 29.8 -189.15 29.4 -188.35 28.75 -188.25 30.55 L-187.75 33.2 -186.3 35.95 -186.15 36.25 -184.5 35.95 -183.1 36.05 -184.2 35.15 -185.35 33.95 Q-185.35 32.5 -182.45 27.35 -180.9 24.6 -180.2 24.25 L-180.15 22.55 Q-178.9 21.85 -178.85 23.5 L-178.85 26.1 -178.55 31.05 -178.3 34.75 -176.05 37.85 Q-174.6 40.15 -173.85 41.75 L-172.25 39.05 -170.5 36.75 -170.5 36.05 -170.4 33.4 Q-171.1 33.25 -171.2 32.5 L-171.4 30.8 -171.7 32.95 Q-172.0 34.35 -173.1 34.35 L-173.75 34.15 Q-174.35 34.05 -174.95 30.65 L-175.55 25.3 -176.55 16.15 -176.3 12.85 Q-175.15 14.25 -174.85 17.4 L-174.5 22.75 -173.95 26.9 -173.8 25.55 -173.15 19.2 -172.55 16.2 -171.9 13.25 Q-171.3 11.25 -170.25 12.5 L-170.1 12.55 -170.1 12.75 Q-169.0 14.25 -169.0 15.85 -169.0 17.95 -169.35 20.65 L-169.35 30.35 -169.05 31.3 Q-168.55 31.65 -167.95 32.7 L-167.6 31.95 -167.5 31.8 -167.6 31.3 -166.5 28.55 Q-165.25 25.6 -164.9 23.6 L-164.25 19.65 Q-164.0 18.3 -163.55 17.3 L-163.7 16.3 Q-163.9 14.95 -165.1 11.25 L-166.2 7.5 Q-166.2 4.95 -164.85 6.1 -163.55 7.15 -163.1 9.35 L-161.15 9.4 Q-160.75 9.0 -160.25 9.0 L-156.45 8.95 Q-155.4 8.95 -155.1 9.55 -154.85 10.05 -155.1 10.55 L-153.85 10.75 Q-157.0 14.5 -158.9 20.25 -159.8 22.85 -160.4 23.9 L-159.2 25.7 -158.0 27.9 -157.95 27.85 Q-157.65 27.55 -157.15 27.55 L-156.2 28.05 Q-155.4 28.6 -154.6 28.75 -154.2 28.1 -153.65 28.05 L-153.75 23.05 -153.65 15.9 Q-153.45 12.95 -152.8 13.55 -152.2 14.15 -151.9 16.95 L-151.65 20.35 Q-151.4 22.25 -150.65 24.0 -150.15 25.2 -147.65 28.2 L-146.2 30.05 -146.35 27.6 -146.25 26.15 Q-146.75 24.7 -146.3 20.3 -146.2 19.2 -146.9 16.45 L-147.65 13.45 Q-147.65 12.2 -146.55 12.2 L-143.45 11.95 Q-142.85 12.05 -142.8 14.0 L-140.5 12.45 Q-137.75 10.8 -137.4 12.1 -137.15 11.2 -135.7 11.4 -134.75 11.55 -134.35 12.1 L-134.0 12.1 Q-131.7 12.25 -131.15 14.0 L-131.15 13.85 Q-131.15 12.2 -130.55 11.45" fill="#be965a" fill-rule="evenodd" stroke="none"/>
    <path d="M-98.75 39.1 L-98.5 40.25 -98.05 39.6 -98.75 39.05 -98.75 39.1 M-105.1 32.25 L-105.25 31.85 -105.1 32.55 -105.1 32.25 M-112.4 17.1 L-112.6 19.15 Q-113.15 24.6 -113.85 26.95 -113.0 27.8 -112.7 28.8 L-111.3 31.4 -110.95 32.1 -109.05 30.2 -107.9 29.2 Q-107.7 25.8 -105.95 27.25 -105.3 27.75 -105.3 28.9 -104.3 28.4 -101.05 32.55 L-97.05 38.35 -96.85 38.1 -96.65 35.9 -96.5 34.7 -96.55 34.55 -96.6 33.4 -95.95 30.3 -95.3 27.65 -94.6 25.2 Q-95.45 20.6 -96.65 9.55 L-101.65 9.95 -103.55 12.95 Q-105.65 16.0 -106.7 16.55 L-106.05 19.8 Q-105.0 25.4 -105.0 26.55 -105.0 27.05 -105.1 27.0 L-105.5 27.05 Q-106.0 26.7 -107.4 20.3 L-108.65 13.95 Q-110.7 16.9 -112.4 17.1 M-111.95 10.8 L-112.0 11.4 -111.35 10.3 -111.4 10.15 -111.75 9.5 -111.7 9.8 -111.8 10.5 -111.95 10.8 M-105.25 11.0 L-105.2 11.0 -104.6 10.0 -105.05 10.0 Q-105.0 10.55 -105.25 11.0 M-108.85 11.1 L-108.65 10.85 -108.65 10.7 -108.95 11.1 -108.85 11.1 M-95.65 7.15 Q-93.95 7.8 -93.95 8.55 -93.95 8.95 -94.85 9.2 -94.65 9.8 -94.6 10.65 L-93.7 14.7 Q-92.35 21.15 -92.35 23.0 L-92.4 24.7 Q-92.45 25.1 -92.65 25.5 L-92.6 26.55 -92.6 27.55 Q-92.75 28.35 -93.45 28.45 L-94.75 34.0 -94.75 34.05 -95.0 37.55 -95.05 38.0 -95.0 38.8 -95.3 39.3 Q-95.65 40.9 -96.25 40.95 L-97.5 43.25 -97.15 44.75 Q-97.2 46.25 -99.05 46.25 L-100.45 46.45 Q-102.1 46.45 -102.1 45.5 -102.1 44.75 -100.7 44.6 L-100.85 44.2 -99.25 41.4 -99.75 41.45 Q-101.25 41.45 -103.25 36.95 L-103.25 37.6 Q-103.35 38.9 -103.9 39.15 L-104.2 41.75 Q-104.7 44.35 -105.6 44.35 -106.9 44.35 -107.15 42.2 L-107.15 34.2 -107.65 32.05 -107.95 32.4 Q-110.55 35.35 -111.35 35.35 L-112.3 34.9 -112.45 34.7 -112.5 35.0 -112.25 36.8 -111.95 38.45 -112.15 39.15 Q-112.5 39.8 -113.35 39.8 -114.75 39.8 -115.1 37.5 L-115.35 34.65 -116.8 31.1 -118.0 33.25 Q-120.15 37.9 -120.15 42.55 L-119.95 44.75 Q-119.95 46.85 -120.9 46.85 -121.65 46.85 -121.8 44.95 L-121.3 34.7 -121.7 30.8 Q-121.7 30.25 -118.75 28.3 -117.45 27.45 -116.75 27.45 L-117.15 25.9 -117.2 22.65 Q-117.2 20.15 -116.0 14.6 L-115.55 12.55 Q-115.2 11.25 -114.5 10.5 L-114.1 9.9 -114.9 8.3 Q-114.9 6.7 -113.3 7.7 L-112.6 8.25 Q-112.25 8.05 -112.05 8.45 -112.05 6.6 -110.7 8.0 L-110.15 8.6 Q-107.95 5.55 -107.45 7.2 -107.0 6.25 -106.15 7.4 L-105.5 7.35 -99.7 6.6 Q-98.4 6.2 -96.15 6.95 L-95.95 7.05 -95.75 6.95 -95.65 7.15" fill="#a0793f" fill-rule="evenodd" stroke="none"/>
    <path d="M-53.7 32.15 L-53.25 36.45 -53.2 34.9 Q-53.2 33.15 -53.7 32.15 M-77.7 35.5 L-76.6 35.65 -76.4 35.55 -77.4 35.5 -77.7 35.5 M-59.15 13.3 L-58.85 13.3 -58.5 17.75 -57.2 23.8 Q-56.3 28.45 -55.3 30.85 L-54.65 30.4 Q-54.05 30.05 -53.8 30.0 -53.8 28.5 -52.2 27.6 -50.2 26.7 -49.5 26.05 L-49.1 26.2 -49.05 26.65 Q-49.05 27.7 -51.1 28.45 -53.1 29.2 -53.05 29.9 -52.95 31.35 -53.0 34.15 L-52.75 39.3 Q-52.7 42.6 -53.4 42.6 -53.9 42.6 -53.8 42.4 -54.5 38.8 -54.5 32.35 L-54.6 31.15 Q-55.95 32.8 -57.1 28.55 L-57.3 28.75 -57.75 27.7 -57.7 28.7 -57.75 28.9 -57.65 29.5 -57.75 29.85 -58.1 29.9 Q-58.45 30.05 -59.7 32.35 -60.55 33.9 -61.95 34.25 -61.75 34.7 -61.7 35.45 L-61.7 39.25 -61.35 46.0 -61.4 46.75 -60.95 47.55 -60.55 49.1 Q-60.55 49.75 -61.25 49.75 -62.05 49.75 -62.75 46.45 L-62.65 46.0 -62.55 46.0 -62.8 41.9 Q-62.8 39.0 -62.95 36.0 L-63.3 34.35 -65.3 36.2 Q-67.75 38.0 -68.0 38.8 L-68.6 41.55 Q-69.0 43.05 -70.1 44.15 L-70.35 43.9 -70.4 44.1 -70.6 44.05 Q-71.9 41.45 -71.9 40.15 -71.85 38.95 -72.65 37.75 -73.7 36.25 -75.55 36.25 L-78.7 35.75 -79.25 35.3 -80.35 34.85 -79.95 34.6 -81.0 34.1 -82.5 35.25 Q-82.9 36.1 -84.0 36.85 L-84.1 36.8 -86.7 41.25 -90.75 48.35 -91.3 47.15 Q-91.3 45.35 -88.25 41.0 -85.35 36.95 -84.15 36.3 L-84.15 36.5 -83.35 35.5 -83.35 35.45 -81.75 33.6 Q-82.35 33.6 -83.0 32.5 L-83.7 31.2 -84.0 30.95 -84.9 30.4 -84.9 30.45 -85.05 30.35 -85.05 30.2 -85.35 29.75 -85.1 29.8 -85.1 29.65 -85.55 28.65 -85.55 28.3 -85.4 28.2 -85.2 28.2 -86.05 11.5 -85.85 8.8 -85.7 8.8 -85.35 16.95 -85.4 14.45 -85.2 8.85 -84.9 8.85 -84.8 14.4 -85.0 23.25 -85.05 23.25 -84.75 29.45 -84.8 29.85 Q-84.4 30.0 -84.1 30.25 L-83.7 30.75 -83.7 30.8 Q-83.1 31.2 -82.7 32.0 -82.2 33.05 -81.3 33.2 L-81.0 32.95 Q-79.3 31.5 -78.4 31.15 L-76.5 31.2 -78.55 31.95 -80.5 33.7 -80.75 33.9 -80.05 34.15 Q-79.7 34.25 -79.5 34.4 L-76.6 34.05 Q-76.25 34.05 -75.65 34.35 L-74.3 34.6 -73.3 34.4 Q-73.55 33.9 -75.25 32.15 L-77.0 30.45 -77.85 30.6 -77.95 28.05 Q-77.95 26.7 -76.4 21.1 L-74.85 15.65 -74.8 15.75 -76.0 21.9 Q-77.1 27.35 -77.1 29.1 -77.1 29.95 -74.75 31.65 -72.4 33.35 -72.4 33.8 L-72.45 34.75 -72.6 35.0 -72.4 36.05 -72.9 36.7 -73.4 36.5 -72.75 36.95 Q-71.35 38.15 -71.45 39.3 -71.5 40.6 -70.9 41.85 L-70.45 43.05 Q-70.2 40.9 -67.7 37.3 -65.3 33.9 -63.7 33.4 L-63.85 33.0 Q-64.7 31.05 -64.8 30.05 -65.8 21.15 -65.8 17.95 L-65.6 16.1 -65.35 14.35 Q-65.0 12.95 -64.2 13.1 -64.3 14.4 -64.95 16.65 -64.6 19.3 -64.4 23.9 -64.1 29.95 -63.25 33.3 L-63.05 33.3 -63.05 33.5 -62.85 33.5 -62.8 33.45 Q-61.5 33.65 -59.8 31.25 -58.3 29.2 -58.3 28.55 L-58.35 28.15 -59.0 22.95 -59.35 16.35 -59.15 13.3 M-13.4 30.9 L-13.5 30.5 -13.6 30.6 -13.45 30.8 -13.4 30.9 M-28.0 43.85 L-27.85 44.05 -27.75 44.0 -27.9 43.65 -28.0 43.85 M-26.95 40.25 L-26.9 40.3 -26.8 40.0 -26.95 40.25 M-35.1 40.0 L-35.05 41.45 -35.6 46.35 -35.8 46.35 -35.9 44.55 -35.95 44.65 -36.6 47.05 -36.8 47.0 -36.3 43.35 Q-36.05 41.2 -35.4 40.0 L-35.1 40.0 M-27.4 38.65 L-27.55 38.65 -29.45 33.1 Q-30.2 30.7 -30.2 28.15 L-30.2 27.7 -31.75 27.05 Q-33.2 26.5 -33.2 26.05 L-33.2 26.0 -33.8 25.45 -33.6 25.15 Q-33.3 25.2 -32.9 25.5 L-32.7 25.65 Q-32.35 25.65 -31.75 26.05 L-30.65 26.3 -30.05 24.9 Q-29.65 24.25 -29.0 24.25 L-29.05 23.25 -29.05 21.75 -29.4 17.0 -29.8 11.6 Q-29.8 9.0 -29.4 6.85 L-29.0 7.05 -28.95 7.6 -28.2 6.05 Q-27.65 5.4 -27.65 6.9 L-27.95 10.25 -28.15 12.05 -27.9 17.7 -27.9 21.15 Q-28.05 24.45 -28.65 24.55 L-29.15 25.4 -29.45 25.85 Q-29.3 25.9 -29.3 26.15 L-29.3 27.2 -29.1 27.45 Q-29.1 27.75 -29.25 27.85 -29.1 30.75 -28.35 34.05 L-27.35 38.35 -27.4 38.65 -27.65 39.4 -27.5 39.15 Q-26.5 37.5 -26.5 39.1 L-26.5 39.2 -25.95 37.95 -24.8 35.85 Q-24.5 34.35 -23.55 32.4 L-23.3 31.9 Q-22.95 30.7 -22.95 30.0 L-23.4 28.95 -23.9 28.0 -22.25 28.05 -22.7 18.15 -22.45 12.7 Q-21.7 15.5 -21.65 20.3 L-21.6 28.15 -19.1 27.1 Q-17.5 26.2 -17.4 26.2 -16.95 26.2 -15.55 27.7 L-14.85 28.55 -14.8 28.5 -13.8 20.95 -12.45 12.6 -12.2 12.65 -12.05 15.85 -14.25 28.1 -13.55 27.8 -12.15 27.4 -11.4 26.55 -11.95 27.4 -11.85 27.4 -12.6 28.5 -13.2 29.2 -13.3 29.3 -13.15 29.6 -10.55 34.55 -9.15 37.8 -8.9 37.75 Q-8.0 37.7 -8.0 38.85 L-8.55 43.65 -8.3 44.4 Q-8.4 44.75 -9.05 44.95 L-9.5 45.25 -10.8 45.15 -10.85 45.15 -10.95 45.15 -11.2 45.2 -11.35 45.1 Q-11.95 45.0 -12.15 44.5 L-12.2 43.55 -11.6 40.85 -12.55 35.65 -13.05 32.8 -13.75 31.2 -13.95 30.85 -14.6 30.15 -14.85 29.75 -14.95 29.6 -14.95 29.55 -15.15 29.35 -15.0 29.2 -14.85 28.9 -15.7 28.05 Q-16.85 26.9 -17.65 26.9 -20.7 26.9 -22.6 31.8 L-24.7 37.95 -24.85 37.6 -26.4 40.75 Q-26.15 41.5 -26.0 43.0 L-25.8 45.35 -25.85 45.9 -26.85 46.0 -27.75 45.9 -27.85 45.85 Q-28.95 46.45 -30.05 46.45 -30.6 46.45 -30.95 46.0 L-31.25 45.15 -31.25 44.85 -31.55 44.5 Q-31.9 44.15 -32.3 44.15 -33.2 44.15 -33.7 45.15 L-34.35 46.6 -34.75 46.4 Q-34.6 45.15 -33.45 44.0 -32.55 42.25 -31.05 42.35 L-30.5 42.45 -29.85 41.3 Q-28.45 38.95 -27.4 38.65 M-6.25 6.6 L-5.85 7.1 -5.65 7.65 Q-7.95 23.05 -8.35 23.05 L-8.55 23.05 -8.7 24.55 -9.05 24.35 -9.05 21.7 Q-8.9 20.65 -8.9 17.6 -8.9 14.95 -8.55 13.65 -8.3 14.0 -8.25 15.6 L-8.15 14.5 Q-7.8 9.65 -6.25 6.6 M-97.8 42.0 L-97.2 43.2 Q-96.7 44.75 -95.8 46.05 L-95.65 45.65 Q-95.65 44.5 -96.2 43.35 -96.65 42.35 -96.7 40.9 L-96.55 40.45 -96.35 40.25 -96.1 39.85 -95.6 40.1 -94.95 38.85 -94.4 37.5 Q-95.25 37.3 -95.85 38.7 L-96.25 38.5 -96.3 38.5 -96.05 37.5 -95.8 37.65 Q-95.55 36.05 -94.5 32.4 -93.9 32.8 -93.9 33.5 L-94.6 39.55 -94.25 43.25 Q-94.2 44.9 -94.65 45.4 -93.75 46.2 -93.75 46.75 L-93.8 47.2 Q-93.95 46.35 -94.75 46.35 L-94.85 46.35 -95.25 46.2 -97.65 46.3 -97.75 46.2 -98.05 46.4 -98.6 46.5 -98.8 46.35 -99.05 45.9 -98.65 44.6 -98.6 44.2 -97.85 42.1 -97.8 42.0 M-121.35 32.85 L-121.4 33.3 -121.55 33.3 Q-122.0 32.35 -123.2 30.9 -123.7 30.25 -123.8 29.25 L-124.05 28.85 Q-125.3 27.05 -125.7 27.05 L-128.65 27.45 Q-129.15 27.5 -129.55 27.0 L-130.95 36.25 -131.0 37.65 -131.05 38.0 -130.8 37.85 -129.25 37.25 -129.25 37.65 Q-130.0 38.75 -131.35 39.0 -131.85 40.35 -132.9 40.35 L-133.3 40.3 -133.9 40.8 -134.1 40.7 -134.4 41.25 -133.6 43.1 Q-132.8 44.95 -132.8 45.55 L-132.9 46.25 -133.0 46.15 Q-133.0 44.95 -134.0 43.2 L-134.95 41.4 -134.6 40.35 -134.0 39.75 -132.85 37.1 Q-132.0 35.05 -132.05 33.7 L-131.75 33.7 -131.85 20.2 -132.0 18.4 Q-131.4 8.9 -130.7 12.6 -130.2 15.05 -130.3 20.25 -130.3 25.1 -130.45 28.45 L-130.4 29.5 -130.35 29.5 -130.25 28.3 Q-130.25 25.45 -129.5 20.1 L-128.35 12.35 -128.1 12.35 -128.05 13.3 Q-128.05 15.25 -128.6 19.75 L-128.3 19.1 -128.25 20.15 Q-128.3 20.95 -128.8 21.35 L-129.45 26.2 -128.8 26.6 Q-128.4 27.0 -128.1 27.0 L-124.9 26.6 -123.8 28.95 -123.8 28.85 -123.7 28.5 -123.6 28.55 -122.65 29.2 Q-122.1 29.45 -121.6 30.4 -121.0 31.6 -121.0 32.3 L-121.05 32.75 -121.3 32.85 -121.35 32.85 M-96.1 39.25 L-96.0 39.25 -95.85 39.4 -96.1 39.4 -96.1 39.25 M-97.4 40.85 L-97.3 40.6 -97.2 40.55 -97.25 41.0 -97.4 40.85 M-96.05 45.0 Q-96.45 44.5 -96.7 43.25 L-96.05 44.95 -96.05 45.0 M-151.6 31.35 Q-151.85 31.05 -152.2 30.85 L-152.2 30.1 -152.5 29.65 -152.4 30.7 Q-153.5 30.0 -153.5 31.4 L-153.05 33.1 -152.0 31.25 -151.9 31.4 -152.05 31.8 -151.6 31.35 -151.55 31.25 -151.2 30.65 -151.4 30.4 -151.55 30.35 -151.6 31.2 -151.6 31.35 M-160.65 24.2 L-160.65 24.15 -160.85 24.9 -160.75 24.95 -160.65 24.2 M-152.7 10.6 L-152.3 10.6 -152.25 12.55 Q-153.25 12.6 -153.3 13.9 L-153.5 16.65 Q-153.25 20.65 -152.75 22.5 L-152.75 22.6 Q-152.3 23.95 -151.75 24.0 L-151.7 25.55 -151.6 26.7 Q-151.55 28.0 -150.15 29.6 L-148.9 30.9 -148.15 31.05 -147.9 31.1 -147.0 30.8 -146.25 30.65 -146.65 23.85 Q-147.25 15.75 -147.25 12.65 L-147.2 11.75 Q-145.35 15.15 -145.3 30.35 L-144.5 30.2 -142.3 30.8 Q-140.35 31.45 -140.35 31.8 -140.35 32.3 -140.45 32.05 L-145.3 32.6 -145.3 33.25 -145.4 34.35 Q-145.4 35.05 -145.9 37.15 L-146.4 39.75 -146.35 42.95 Q-146.45 45.1 -147.25 45.15 L-147.2 45.4 Q-147.2 45.9 -147.35 45.65 L-151.1 45.65 -151.35 45.4 -149.8 43.4 Q-149.05 42.45 -148.35 42.25 L-148.3 42.5 -149.1 43.85 -150.2 45.05 -147.55 45.1 Q-148.3 44.8 -148.3 42.85 -148.3 40.5 -146.75 34.8 L-146.8 34.8 -147.2 33.9 -148.05 34.6 Q-148.65 35.2 -149.65 35.3 L-151.4 36.65 -153.8 38.4 Q-155.45 43.0 -155.7 45.55 L-156.1 45.55 Q-156.55 45.55 -156.65 45.2 L-156.05 43.95 -155.35 39.95 -154.25 34.7 -154.25 34.35 -154.3 34.4 -154.6 34.25 -158.15 30.5 Q-160.75 27.85 -161.2 26.55 L-161.2 26.6 -161.35 25.3 -161.3 24.4 -161.4 24.35 -161.65 18.2 Q-161.7 17.0 -162.6 14.55 L-163.5 12.2 -163.05 11.65 -162.15 10.4 Q-161.05 9.75 -160.35 10.55 L-159.5 11.8 Q-159.35 10.8 -158.9 10.8 L-158.55 10.9 -158.5 10.95 -158.5 12.45 Q-159.9 15.1 -160.45 18.45 L-160.55 21.6 -160.65 23.0 -160.35 24.5 -160.5 25.1 -160.1 25.5 Q-159.05 26.85 -158.75 27.9 -158.45 28.8 -156.1 29.4 -154.75 29.75 -154.05 30.15 L-154.0 29.75 -153.55 27.4 -153.6 23.55 -153.75 17.65 -153.4 8.9 Q-152.9 9.25 -152.9 10.5 L-152.85 11.6 -152.7 10.6 M-126.15 13.5 L-125.95 13.55 Q-126.2 15.05 -127.3 16.95 L-127.75 17.75 -126.15 13.5 M-147.0 32.5 L-149.4 31.65 -150.95 30.85 -151.95 32.8 -153.05 34.45 -153.1 34.75 -153.65 37.85 -151.4 36.25 -150.35 35.3 -150.5 35.1 -150.6 34.8 Q-149.3 33.05 -148.3 33.0 L-147.95 33.05 -147.25 32.8 Q-146.7 32.6 -147.0 32.5 M-176.2 17.05 L-175.9 17.05 Q-176.05 24.25 -173.4 31.35 L-172.05 29.95 Q-171.1 29.05 -170.3 28.7 L-170.05 28.75 -170.0 29.15 -170.15 29.45 Q-170.9 29.45 -171.85 30.8 -172.8 32.1 -173.5 32.1 -174.2 32.1 -174.85 28.25 L-175.7 22.8 -175.75 23.45 -175.4 26.85 -175.6 26.8 -176.3 18.9 -176.2 17.05 M-155.9 41.8 L-155.95 42.15 -156.1 42.15 Q-157.8 39.95 -158.7 39.95 L-161.35 40.8 Q-163.95 41.75 -165.15 42.4 L-166.55 43.95 Q-167.45 45.2 -167.9 45.2 -168.4 45.2 -168.3 45.0 L-168.1 44.05 -168.1 43.15 -167.65 39.35 -168.65 34.9 -170.0 28.95 -168.9 32.1 -168.7 31.85 -168.0 32.55 -167.05 30.5 -165.15 27.15 -165.0 27.15 -165.0 27.7 Q-165.0 28.85 -165.85 30.2 L-166.7 31.95 Q-166.7 32.45 -166.65 32.1 L-165.15 30.65 -163.8 29.15 -163.4 29.35 -165.65 32.25 Q-167.75 34.7 -167.75 35.25 L-166.7 38.15 -165.5 38.1 -165.5 39.9 -166.9 42.6 Q-164.5 41.3 -161.5 40.1 L-158.9 39.2 Q-158.6 39.2 -157.25 40.4 L-155.9 41.8 M-154.15 32.0 L-154.1 31.05 -155.05 31.05 -154.95 31.15 -154.15 32.0 M-152.5 29.5 L-152.3 29.25 -152.2 29.15 -152.2 28.35 -152.55 26.55 -152.5 29.05 -152.5 29.5 M-152.75 25.6 L-152.75 25.9 -152.7 25.85 -152.75 25.6 M-146.7 34.6 L-146.35 33.3 -147.4 33.35 Q-147.0 33.75 -146.7 34.6 M-179.8 23.2 L-179.8 23.25 -179.5 23.45 -179.45 24.2 Q-179.45 27.9 -180.25 32.15 L-181.05 36.3 -180.75 36.8 Q-178.5 37.5 -177.85 38.75 -177.5 40.5 -177.0 41.25 -176.55 41.9 -175.85 44.0 L-175.2 46.3 Q-175.2 46.65 -175.35 46.85 L-175.35 46.9 -175.7 46.95 -177.6 42.6 Q-179.25 38.75 -181.15 37.6 L-182.0 37.45 -183.25 37.05 -183.75 37.1 -183.7 37.35 -184.0 37.4 -185.7 42.0 Q-187.4 46.75 -187.4 47.6 L-187.35 48.6 Q-187.45 49.3 -188.0 49.4 L-188.2 49.15 -188.35 49.0 -188.5 47.95 -188.75 46.8 -189.2 45.5 -189.2 45.2 -190.75 38.75 Q-189.9 39.45 -189.55 41.65 L-189.0 45.25 -189.1 45.25 -188.75 46.0 -188.65 46.3 -188.35 46.9 -188.35 47.0 -188.3 47.05 -188.15 47.55 -188.1 47.8 -187.9 46.85 -186.8 43.2 -185.95 39.7 -184.55 37.2 -184.6 37.15 -184.75 37.05 -184.9 36.75 -184.95 36.5 -186.0 35.6 -186.4 35.15 -187.0 34.7 -187.0 34.65 -187.55 33.65 -187.5 33.95 -187.6 34.65 Q-188.65 33.75 -190.1 35.55 L-190.85 36.45 -190.6 38.4 -190.9 38.65 Q-191.85 38.2 -192.0 37.6 L-192.3 37.35 -192.45 36.3 -193.9 41.6 Q-194.6 44.4 -195.4 46.2 L-195.6 47.15 -195.8 47.1 -195.85 47.15 -196.3 46.95 -196.35 46.5 -196.0 44.7 -196.55 39.8 -197.35 33.2 -197.2 32.4 -196.9 32.4 -196.1 37.65 -196.2 38.15 -195.9 41.9 -195.9 42.05 -195.7 44.0 -195.45 44.1 -195.15 44.1 -194.95 42.35 Q-194.5 41.7 -193.75 39.5 L-192.85 36.35 Q-192.85 35.65 -193.0 35.4 -192.4 35.35 -192.4 34.6 L-192.4 34.5 -192.35 34.5 -192.2 34.55 -192.1 34.4 -191.85 34.65 -191.8 34.65 Q-191.75 35.55 -191.05 35.55 L-191.0 35.45 -190.85 35.65 -190.25 35.05 Q-189.65 34.5 -187.9 34.0 L-187.9 33.85 Q-188.9 31.2 -188.9 30.4 L-188.9 29.9 -188.8 29.55 -188.9 29.1 -188.9 28.8 -189.05 28.8 -189.4 28.25 -189.55 28.6 -189.6 28.45 -189.65 28.75 -190.45 29.9 -191.15 31.3 -190.9 29.85 -190.8 29.2 -191.05 29.15 Q-191.85 29.15 -193.55 30.45 L-194.65 31.35 -195.05 31.05 -194.35 30.15 Q-193.25 28.6 -190.65 28.4 L-190.3 26.75 -190.15 26.75 -189.85 26.7 Q-189.3 22.55 -189.3 20.7 L-189.75 17.9 -189.7 17.65 -189.75 17.0 -189.7 16.4 -189.75 14.35 Q-189.85 13.05 -190.35 12.6 L-190.55 12.95 -190.9 12.3 -191.2 11.1 Q-191.15 9.9 -190.7 8.75 L-190.4 8.95 -190.3 9.95 -190.2 9.9 -190.05 9.95 -190.0 8.55 Q-189.2 10.1 -188.8 13.1 -189.1 13.15 -189.1 13.8 L-188.55 20.0 -188.6 23.75 Q-188.55 25.5 -188.15 25.95 L-188.3 27.75 -188.1 28.0 -188.05 27.95 -187.6 29.9 -187.6 29.95 -187.45 31.3 Q-187.45 33.35 -186.1 35.05 L-186.2 35.05 -186.1 35.1 -185.3 35.7 -185.35 35.3 -185.35 34.95 -185.1 34.95 -185.05 35.75 Q-184.85 36.4 -184.0 36.35 L-182.85 36.35 -182.65 36.35 -182.55 36.1 -182.45 36.25 -182.3 36.05 -182.85 35.45 -183.6 34.5 -184.75 33.3 Q-185.0 33.5 -185.1 34.2 L-185.1 34.05 Q-185.25 33.5 -185.55 33.2 L-185.4 33.15 -184.95 33.25 -185.2 32.7 -185.35 32.5 -185.35 32.2 -185.35 31.95 -185.1 31.95 -185.0 32.9 -184.05 33.75 -183.75 34.1 -183.45 34.4 -182.65 35.3 -182.15 35.85 -181.7 34.6 -181.15 32.95 Q-180.65 31.65 -180.5 30.05 L-179.8 23.2 M-203.55 11.7 L-203.9 9.5 -203.75 9.1 -203.45 8.95 Q-203.2 9.35 -202.3 12.85 L-201.4 16.8 -201.35 16.75 -200.9 17.6 -200.05 13.5 -200.15 13.3 -198.95 7.6 -198.65 7.6 -198.6 8.1 -199.0 10.75 -199.45 12.55 -200.55 19.95 -200.75 21.3 -201.3 24.2 Q-201.75 26.65 -201.65 30.3 -201.2 31.15 -202.2 31.75 -203.55 32.55 -203.75 33.0 L-204.55 34.85 Q-205.2 36.15 -205.85 36.15 L-206.4 35.95 -206.5 36.2 -206.7 36.1 -206.8 35.75 -207.0 35.65 -207.95 30.3 Q-208.25 28.1 -208.5 27.65 -208.9 27.0 -209.85 26.1 L-210.2 25.75 -210.35 26.0 -210.7 25.95 -210.55 25.6 Q-210.45 25.35 -210.75 25.35 -211.4 25.35 -211.45 25.15 L-211.45 24.4 Q-211.45 23.55 -211.1 23.25 L-210.65 23.55 -211.5 20.0 -212.05 17.15 -211.95 16.55 -211.8 16.55 -210.8 20.75 Q-209.95 24.2 -209.95 24.95 L-209.95 25.05 -208.55 27.2 -207.45 29.45 -207.35 29.15 -206.8 29.05 -205.35 29.2 Q-204.6 26.75 -203.4 24.25 L-203.1 24.25 -201.75 17.9 -201.7 17.9 -202.05 17.05 -202.65 16.55 -202.5 16.25 -202.35 16.3 -203.15 13.35 -203.2 13.15 -202.65 14.6 -201.55 17.55 -201.4 17.55 -201.3 17.5 -201.25 17.25 -202.3 14.25 -202.7 12.55 Q-203.0 11.9 -203.55 11.7 M-188.4 9.8 L-188.1 9.85 -188.0 13.5 -188.35 13.2 -188.75 13.1 -188.4 9.8 M-169.35 17.05 Q-169.05 21.85 -169.05 24.4 L-169.05 26.35 Q-169.1 28.35 -169.4 28.85 L-169.6 28.6 Q-170.35 18.85 -170.35 14.2 -170.35 11.5 -169.95 9.9 -169.55 11.15 -169.45 13.35 L-169.35 17.05 M-201.45 20.4 L-201.55 19.3 -201.65 18.45 Q-202.35 23.25 -203.8 28.45 L-204.0 28.4 -203.45 25.85 -203.95 27.3 -205.05 30.05 -205.05 30.1 -205.4 30.15 -206.25 30.1 -205.1 33.45 -205.1 33.4 -205.95 30.15 -205.8 30.15 -204.9 32.95 -204.85 32.85 Q-204.2 31.15 -202.45 30.6 -202.45 26.6 -201.55 21.15 L-201.45 20.4 M-184.75 33.3 L-184.95 33.0 -184.95 33.25 -184.75 33.3 M-195.55 31.55 L-195.55 31.85 Q-193.95 34.9 -193.25 35.35 L-193.85 36.15 -195.35 34.5 -196.85 32.3 -196.55 32.05 Q-196.05 32.0 -195.55 31.55 M-168.4 33.85 L-168.35 33.75 -168.4 33.7 -168.4 33.85 M-170.05 30.7 L-169.8 30.7 -169.35 45.45 Q-169.35 46.05 -169.8 46.35 L-170.2 46.1 -170.3 36.05 -170.05 30.7 M-206.7 36.4 L-206.15 36.2 -206.6 36.65 Q-206.3 37.4 -206.3 38.65 L-206.15 49.2 -206.25 49.6 -206.45 49.65 Q-207.0 49.6 -207.0 48.6 L-206.8 44.0 -206.55 39.45 Q-206.55 38.15 -206.7 36.75 L-210.65 41.05 Q-213.45 43.95 -213.45 45.85 L-213.45 45.9 -213.8 45.95 -214.2 45.85 -214.3 45.6 -213.3 42.95 Q-212.7 41.45 -211.8 40.55 L-208.6 37.75 -206.7 36.4 M-206.5 31.35 L-206.5 31.5 -206.0 32.75 Q-205.65 33.75 -205.65 34.2 L-205.7 34.4 -205.35 33.9 -205.8 32.65 Q-206.1 31.8 -206.5 31.35 M-207.0 29.85 L-206.45 30.7 -206.6 30.0 -207.0 29.85" fill="#a0793f" fill-rule="evenodd" stroke="none"/>
    <path d="M-97.8 42.0 L-97.9 41.8 -98.0 41.65 -99.05 41.15 -100.25 40.6 -100.3 40.6 -100.3 40.75 Q-99.55 40.9 -99.2 41.3 -99.4 42.15 -100.35 43.65 L-100.45 43.55 -100.0 42.4 -99.5 41.5 -99.55 41.35 -99.55 41.4 -100.35 41.2 -100.6 40.95 Q-101.8 40.45 -102.35 39.6 L-103.4 37.85 -103.15 39.45 -103.35 40.1 -103.55 39.5 -103.6 39.5 -103.6 39.55 -103.65 39.5 -103.65 39.45 -103.85 39.25 Q-104.2 39.8 -104.2 40.65 -104.2 41.75 -104.35 42.15 L-104.9 43.75 Q-105.45 44.85 -106.2 44.85 L-106.4 44.75 -106.45 44.55 -106.4 44.5 -106.95 43.3 -107.4 42.4 -107.55 40.65 -107.35 37.1 -107.25 37.1 -107.35 38.9 -107.25 40.5 -106.3 39.35 -104.25 37.75 -104.1 37.75 Q-104.1 38.2 -105.0 38.75 L-106.2 39.55 -106.7 40.45 -107.1 41.05 -107.05 41.65 -106.8 42.55 -106.3 43.45 -106.0 44.2 -105.95 44.15 -105.95 44.1 -105.35 42.95 -104.9 41.85 -104.85 39.8 -104.5 38.7 Q-104.35 38.2 -104.0 38.1 L-104.1 37.75 -105.5 32.1 -105.5 32.0 -105.95 31.1 -107.8 30.9 Q-109.3 34.4 -110.05 35.35 L-110.2 35.25 -110.35 35.3 -110.3 35.55 -110.6 35.6 -110.8 35.55 -110.8 35.4 -112.2 35.55 Q-112.15 37.15 -112.65 39.3 -113.1 41.3 -113.8 42.85 L-114.05 42.8 -114.4 42.65 -114.45 41.9 Q-114.45 39.55 -115.85 34.9 L-117.2 30.45 Q-115.8 15.3 -114.6 10.5 L-114.35 10.55 -115.4 21.2 -115.8 24.65 -115.75 24.65 Q-115.25 24.65 -115.15 25.05 -115.0 25.4 -114.4 25.4 L-113.75 22.0 -113.55 22.0 -113.25 23.65 -112.85 18.55 Q-112.85 13.0 -112.1 9.1 L-111.95 9.1 -111.8 10.75 Q-111.8 12.95 -112.4 19.55 L-112.95 25.3 -112.15 29.95 -112.0 29.85 -111.9 29.85 -111.1 32.7 -110.6 34.5 -110.15 34.95 -108.7 30.75 Q-107.8 28.15 -106.7 26.45 L-106.45 26.5 Q-107.25 21.0 -107.25 16.15 L-107.0 9.0 -106.7 9.0 -106.7 16.6 Q-106.65 21.1 -106.0 24.2 -106.0 25.4 -105.2 29.35 -104.8 29.5 -104.05 30.0 L-102.45 31.3 -100.5 33.85 -98.3 36.55 Q-96.7 38.55 -96.6 38.9 L-96.2 37.9 -96.2 37.6 -95.65 30.35 -95.5 30.35 -95.5 32.6 -95.8 36.0 -96.05 37.5 -96.3 38.5 -96.25 38.5 -95.85 38.7 Q-95.25 37.3 -94.4 37.5 L-94.95 38.85 -95.6 40.1 -96.1 39.85 -96.35 40.25 -96.55 40.45 -96.7 40.9 Q-96.65 42.35 -96.2 43.35 -95.65 44.5 -95.65 45.65 L-95.8 46.05 Q-96.7 44.75 -97.2 43.2 L-97.8 42.0 M-93.9 7.45 L-93.65 7.45 -92.75 16.85 -92.1 24.6 Q-92.1 25.3 -92.25 25.55 L-92.3 25.55 -94.05 32.45 -94.35 32.4 -94.45 31.9 Q-94.45 31.05 -92.6 25.35 -94.2 12.15 -94.2 9.45 L-93.9 7.45 M-116.0 30.35 L-116.2 30.3 -114.95 34.6 Q-114.1 37.25 -113.8 39.4 L-113.2 37.0 Q-112.6 35.0 -111.85 34.45 L-112.6 31.2 Q-112.9 28.35 -113.1 27.65 -113.9 29.3 -116.0 30.35 M-106.55 30.65 L-107.05 30.6 -107.3 30.6 -107.25 30.65 -106.55 30.65 M-105.85 30.2 L-106.15 28.5 -106.35 27.2 -107.2 29.45 -106.95 29.55 Q-106.15 29.95 -105.85 30.2 M-105.7 30.9 L-105.7 30.85 -105.75 30.9 -105.7 30.9 M-104.15 30.65 L-105.05 30.05 -104.6 32.25 Q-103.95 35.05 -103.65 36.8 L-103.6 36.75 Q-103.1 37.45 -102.3 39.1 -102.0 39.7 -100.85 40.1 L-100.95 40.0 -100.0 40.0 -100.0 40.1 -98.85 40.1 -97.75 40.0 -97.3 40.1 -97.1 40.15 -96.95 39.8 -96.95 39.7 -96.9 39.6 -96.75 39.25 Q-98.1 37.05 -100.5 34.3 L-102.45 31.8 -104.15 30.65 M-103.9 38.35 L-104.45 39.75 -104.65 41.05 -104.55 41.55 Q-104.35 39.65 -103.95 38.6 L-103.8 38.75 -103.9 38.35 M-111.45 34.1 L-111.4 34.25 -111.35 34.25 -111.45 34.1 M-96.1 39.25 L-96.1 39.4 -95.85 39.4 -96.0 39.25 -96.1 39.25 M-97.3 40.6 L-97.6 40.65 -97.4 40.85 -97.25 41.0 -97.2 40.55 -97.3 40.6 M-96.05 45.0 L-96.05 44.95 -96.7 43.25 Q-96.45 44.5 -96.05 45.0" fill="#866635" fill-rule="evenodd" stroke="none"/>
    <path d="M-179.8 23.2 L-179.8 23.15 -180.75 21.35 Q-181.3 20.3 -181.95 19.95 L-182.9 19.8 -184.25 20.0 -184.95 20.15 Q-185.65 20.15 -187.0 19.35 -188.5 18.5 -188.5 17.7 -188.5 17.35 -187.6 16.65 L-188.2 15.65 -187.9 15.3 Q-187.55 15.5 -185.95 17.5 L-184.6 19.05 -184.55 19.05 -181.85 19.45 Q-181.1 19.7 -180.55 20.9 L-179.8 22.7 -179.8 22.35 -177.9 19.3 Q-176.55 17.1 -176.55 16.0 L-176.8 14.75 Q-176.85 13.95 -176.05 13.95 L-175.9 16.1 -177.35 19.8 Q-178.95 23.45 -179.4 23.45 L-179.5 23.45 -179.8 23.25 -179.8 23.2 M-188.35 46.9 L-188.5 44.15 Q-188.5 43.3 -187.4 40.7 L-186.25 38.1 -185.8 38.55 -185.95 39.7 -186.8 43.2 -187.9 46.85 -188.05 47.25 -188.3 47.05 -188.35 47.0 -188.35 46.9 M-184.95 36.5 L-185.7 36.15 -185.65 36.45 -186.1 36.9 Q-187.3 35.7 -187.3 35.1 L-187.0 34.65 -187.0 34.7 -186.4 35.15 -186.0 35.6 -184.95 36.5 M-196.1 37.65 L-195.9 37.4 -195.1 38.75 -194.5 40.2 -194.55 40.6 -195.0 40.7 Q-194.9 41.4 -194.95 42.35 L-195.15 44.1 -195.45 44.1 -195.7 44.0 -195.9 42.05 -195.9 41.9 -196.2 38.15 -196.1 37.65 M-188.9 29.9 L-189.4 30.65 -190.15 31.5 -190.3 31.35 -190.35 31.2 -189.55 28.6 -189.4 28.25 -189.05 28.8 -189.0 28.85 -188.9 29.1 -188.8 29.55 -188.9 29.9 M-190.3 26.75 L-190.45 26.7 -190.6 26.4 Q-190.35 24.25 -190.9 21.1 L-191.55 16.2 -191.5 15.7 -191.55 13.3 -191.5 12.95 -191.5 12.6 -191.65 11.7 -191.35 11.3 -191.25 11.65 -191.2 11.6 Q-191.0 11.9 -190.65 13.3 L-190.55 12.95 -190.35 12.6 Q-189.85 13.05 -189.75 14.35 L-189.7 16.4 -189.75 17.0 -189.85 17.45 -189.75 17.9 -189.3 20.7 Q-189.3 22.55 -189.85 26.7 L-190.15 26.75 -190.3 26.75 M-187.6 29.9 L-187.5 29.7 -187.3 29.7 -186.3 31.05 -185.35 32.5 -185.2 32.7 -184.95 33.25 -185.4 33.15 -185.55 33.2 Q-185.25 33.5 -185.1 34.05 L-185.1 34.2 Q-185.0 33.5 -184.75 33.3 L-183.6 34.5 -182.85 35.45 -182.3 36.05 -182.45 36.25 -182.55 36.1 -182.65 36.35 -182.85 36.35 -184.0 36.35 Q-184.85 36.4 -185.05 35.75 L-185.1 34.95 -185.35 34.95 -185.35 35.3 -185.3 35.7 -186.1 35.1 -186.1 35.05 Q-187.45 33.35 -187.45 31.3 L-187.6 29.95 -187.6 29.9 M-182.65 35.3 L-181.45 32.55 -181.2 32.55 -181.15 32.85 -181.15 32.95 -181.7 34.6 -182.15 35.85 -182.65 35.3 M-203.55 11.7 Q-203.0 11.9 -202.7 12.55 L-202.3 14.25 -201.25 17.25 -201.3 17.5 -201.4 17.55 -201.55 17.55 -202.65 14.6 -203.2 13.15 -203.85 11.6 -203.55 11.7 M-184.75 33.3 L-184.95 33.25 -184.95 33.0 -184.75 33.3" fill="#be965a" fill-rule="evenodd" stroke="none"/>
    <path d="M-233.85 8.85 L-233.8 8.8 -233.9 8.75 -233.85 8.85 M-70.9 24.3 Q-70.9 23.8 -69.9 24.1 -68.85 24.4 -68.85 24.9 -68.3 25.05 -68.3 25.35 L-69.35 26.25 Q-69.1 26.35 -69.1 26.85 L-69.2 27.0 -70.1 27.25 -70.75 27.15 Q-70.8 27.5 -71.3 27.5 L-71.7 27.4 -72.25 27.55 -72.55 27.55 -73.05 27.65 -73.65 27.5 -73.85 27.15 -73.8 27.0 -73.9 27.0 -74.5 26.85 -74.7 26.65 -75.0 26.35 -75.45 25.95 Q-75.45 25.35 -74.55 25.65 -73.75 25.95 -73.65 26.35 -73.05 26.4 -72.95 26.6 -72.75 26.25 -72.15 26.35 L-71.6 26.45 -71.5 26.4 -70.4 26.45 -70.2 26.35 -70.3 26.05 -70.05 25.6 -69.75 25.3 -69.75 25.15 -70.9 24.3 M-80.8 12.35 L-81.0 12.3 -80.8 12.4 -80.8 12.35 M-33.3 7.35 L-33.4 7.35 -33.3 7.55 -33.3 7.35 M-18.15 24.65 Q-18.1 24.45 -17.85 24.45 L-17.5 24.2 -17.1 24.3 -16.5 24.15 -16.55 23.15 -16.3 22.45 Q-16.15 21.5 -15.2 20.7 -14.05 19.7 -14.05 21.0 -14.6 22.95 -15.2 23.4 L-15.15 24.05 -15.25 25.0 Q-15.5 25.85 -16.25 25.85 L-17.25 25.7 Q-17.7 26.25 -18.55 26.25 -19.45 26.25 -20.1 25.15 L-20.6 23.75 -20.25 23.1 Q-19.8 22.8 -19.2 23.35 L-18.9 24.05 -18.35 24.65 -18.15 24.65 M-13.9 15.1 Q-13.9 14.05 -13.3 14.0 -12.65 13.95 -12.65 15.1 L-12.65 15.65 -13.05 16.2 Q-12.55 16.25 -12.55 17.1 L-14.1 18.75 -14.45 18.55 -14.6 18.25 -14.5 18.05 -14.35 17.85 -14.4 17.8 -14.65 17.85 -15.25 17.3 -15.85 16.45 -16.3 15.65 -16.65 14.9 Q-16.65 13.4 -15.25 14.75 -14.0 15.95 -13.9 16.4 L-13.55 16.25 -13.4 16.2 Q-13.95 16.1 -13.9 15.1 M2.85 9.1 L2.85 9.2 Q2.85 9.65 2.25 9.65 L1.95 9.65 Q1.9 10.0 1.4 10.0 0.8 10.0 0.55 9.45 L0.4 9.15 0.25 9.15 0.3 9.2 Q0.3 9.7 -0.65 9.7 L-1.15 9.35 -1.15 8.85 -1.7 9.0 -2.35 8.5 -2.5 8.2 -2.95 8.2 -2.9 8.45 -2.95 8.85 -3.5 9.15 Q-3.9 9.15 -4.2 8.7 L-4.45 8.25 -4.8 8.25 -4.8 8.55 -4.85 8.95 Q-5.0 9.25 -5.5 9.25 L-6.0 9.05 -7.3 9.15 -7.25 9.3 Q-7.25 9.75 -7.6 9.85 L-7.55 10.1 Q-6.95 10.25 -6.95 11.1 -6.95 11.75 -7.6 11.75 L-7.85 11.7 Q-7.7 11.95 -7.7 12.4 L-7.8 12.65 -8.2 12.95 -8.8 12.7 -8.75 13.45 -8.8 13.7 -9.4 13.95 -10.0 13.35 -10.6 13.7 Q-11.35 13.7 -11.35 12.95 L-11.65 12.95 -11.6 13.25 -11.7 13.55 Q-11.85 13.8 -12.3 13.8 -13.05 13.8 -13.05 13.1 L-13.5 13.15 -13.5 13.2 -13.55 13.65 Q-13.7 14.1 -14.25 14.1 L-14.75 13.85 -14.85 13.7 -15.05 13.7 -15.45 13.6 Q-15.6 13.9 -16.2 13.9 -16.8 13.9 -16.8 13.3 L-16.9 13.5 -17.0 13.7 -17.65 14.1 -18.25 13.55 Q-18.5 13.9 -18.85 13.9 -19.4 13.9 -19.45 13.1 L-19.5 13.25 Q-19.7 13.6 -20.05 13.6 L-20.45 13.45 -21.35 13.75 -22.1 13.25 -22.5 13.35 Q-22.95 13.35 -23.1 13.05 -23.4 13.35 -23.85 13.35 L-24.35 13.0 -24.55 12.55 -24.8 12.55 -25.45 12.05 Q-25.6 12.35 -26.05 12.35 -26.65 12.35 -26.65 11.8 L-27.3 11.95 Q-27.95 11.95 -27.95 11.25 L-27.9 11.0 -28.35 11.05 Q-29.2 11.05 -29.2 10.35 -29.2 9.8 -28.65 9.8 L-28.35 9.85 -28.1 9.6 Q-28.45 9.45 -28.45 9.0 L-28.4 8.55 -28.6 8.5 -28.65 8.9 Q-28.8 9.25 -29.3 9.25 L-29.65 9.05 -29.8 8.7 -29.7 8.3 -29.75 8.3 -29.95 8.25 -29.95 8.35 -30.0 8.7 Q-30.1 8.95 -30.5 8.95 -31.15 8.95 -31.15 8.35 L-31.1 8.15 -31.55 8.3 Q-32.1 8.3 -32.2 7.9 L-32.7 8.15 Q-33.25 8.15 -33.3 7.65 L-33.4 7.95 -33.8 8.25 -34.25 7.95 -34.45 7.5 -34.8 7.5 -34.75 7.75 -34.75 8.05 -35.2 8.35 -35.75 8.05 -35.95 7.65 -36.1 7.7 -36.05 7.85 -36.2 8.25 -36.8 8.6 -37.2 8.35 -37.35 7.95 -37.35 7.8 -37.7 7.8 -37.6 8.25 Q-37.6 8.8 -38.15 8.8 -38.6 8.8 -38.6 8.25 L-38.55 7.85 -38.75 7.85 -38.7 8.0 Q-38.7 8.5 -39.35 8.5 L-39.7 8.35 -39.9 8.0 -39.9 7.9 -40.05 7.9 -40.05 8.0 -40.15 8.35 Q-40.35 8.8 -40.7 8.8 -41.25 8.8 -41.25 8.05 L-41.25 7.95 -41.5 7.95 -41.45 8.1 -41.6 8.45 -42.1 8.9 Q-42.6 8.9 -42.6 8.35 L-42.55 7.95 -43.1 8.0 -43.05 8.35 -43.05 8.8 Q-43.15 9.25 -43.7 9.25 -44.35 9.25 -44.35 8.7 L-44.15 8.0 -44.7 8.05 -44.65 8.35 -44.7 8.75 Q-44.8 9.05 -45.2 9.05 -45.75 9.05 -45.75 8.4 L-45.7 8.05 -45.8 8.05 -45.8 8.1 -45.95 8.45 Q-46.2 8.8 -46.65 8.8 -47.3 8.8 -47.3 8.2 L-47.3 8.1 -47.4 8.1 -47.55 8.45 -48.1 8.9 -48.55 8.8 -48.85 8.9 -48.95 8.9 -48.9 9.05 -48.95 9.35 -49.45 9.65 Q-50.05 9.65 -50.1 9.05 L-50.25 9.05 -50.2 9.2 -50.4 9.55 -51.0 9.8 Q-51.75 9.8 -51.75 9.15 L-52.25 9.15 -52.05 9.5 -52.1 9.8 Q-52.2 10.1 -52.65 10.1 L-53.3 9.75 -53.55 9.4 -53.6 9.55 -53.85 9.8 -53.65 10.45 -53.65 10.5 Q-53.3 10.6 -53.3 11.05 L-53.3 11.35 -53.65 11.6 -54.1 11.55 -54.2 11.6 -54.15 11.9 -54.2 12.2 -54.7 12.45 -55.25 12.15 -55.35 12.0 -55.35 12.15 -55.45 12.45 Q-55.6 12.75 -56.05 12.75 -56.55 12.75 -56.65 12.25 L-56.65 12.4 -56.7 12.75 Q-56.85 13.15 -57.2 13.15 L-57.65 12.75 -57.75 12.5 -57.75 12.7 -57.8 13.05 Q-57.9 13.3 -58.35 13.3 L-58.85 12.9 -59.0 12.35 -59.35 12.35 -59.35 12.5 Q-59.35 13.15 -59.95 13.15 -60.25 13.15 -60.5 12.8 L-60.7 12.4 -60.75 12.4 -60.7 12.6 -60.8 13.1 Q-60.95 13.5 -61.35 13.5 -61.75 13.5 -61.85 12.8 L-61.8 12.4 -62.15 12.4 -62.2 12.9 Q-62.3 13.4 -62.75 13.4 -63.3 13.4 -63.3 12.4 L-63.45 12.4 -63.45 12.6 -63.5 13.0 Q-63.6 13.3 -64.05 13.3 L-64.65 12.9 -64.8 12.35 -65.0 12.35 -64.95 12.7 -65.0 13.05 Q-65.1 13.35 -65.55 13.35 L-66.05 12.95 -66.3 12.3 -66.3 12.25 -66.5 12.25 -66.45 12.5 -66.5 13.15 Q-66.65 13.65 -67.1 13.65 -67.5 13.65 -67.65 13.2 L-67.75 13.45 Q-67.9 13.7 -68.25 13.7 L-68.8 13.35 -68.95 12.9 -69.05 13.35 -69.7 13.85 Q-70.35 13.85 -70.35 13.15 L-70.35 12.95 -70.7 12.95 -70.7 13.0 -70.85 13.6 Q-71.05 14.2 -71.4 14.2 -72.1 14.2 -72.1 13.05 L-72.1 13.0 -72.65 13.0 -72.65 13.2 -72.7 13.55 Q-72.8 13.85 -73.25 13.85 L-73.7 13.7 Q-73.9 13.9 -74.2 13.9 -74.75 13.9 -74.75 13.2 L-74.75 13.0 -75.15 12.95 -75.35 13.3 -76.05 13.6 Q-76.55 13.6 -76.65 12.95 L-76.65 12.9 -78.0 12.75 -78.1 13.0 Q-78.4 13.4 -79.0 13.4 -79.65 13.4 -79.75 12.9 L-79.85 13.25 Q-80.15 13.75 -80.95 13.75 L-81.9 13.3 -82.1 13.2 -83.25 13.5 Q-83.95 13.5 -83.95 12.9 L-83.85 12.45 -83.9 12.4 -83.9 12.5 Q-84.1 12.9 -84.55 12.9 -85.15 12.9 -85.15 12.2 L-84.95 11.7 -85.25 11.7 Q-85.9 11.7 -86.05 11.15 L-86.4 11.15 Q-86.5 11.85 -87.85 11.85 L-88.6 11.35 -88.8 10.9 -89.3 10.8 -89.35 10.9 -90.15 11.2 Q-90.95 11.2 -90.95 10.45 L-90.95 10.3 -91.8 9.9 -92.3 10.0 Q-92.95 10.0 -92.95 9.35 L-92.9 9.0 -93.35 8.15 -93.4 8.15 Q-93.25 8.35 -93.25 8.6 L-93.25 9.0 Q-93.35 9.3 -93.9 9.3 -94.4 9.3 -94.8 8.9 L-95.15 8.2 -95.25 8.2 -95.2 8.4 -95.25 8.75 Q-95.35 9.05 -95.8 9.05 -96.65 9.05 -96.75 8.55 -96.9 8.95 -97.5 8.95 -98.25 8.95 -98.3 8.15 L-98.45 8.15 -98.45 8.25 -98.55 8.7 Q-98.75 9.05 -99.25 9.05 L-99.75 8.85 -99.95 8.4 -99.95 8.3 -100.2 8.3 -100.5 8.35 -100.45 8.75 -100.5 9.1 -101.1 9.45 -101.6 9.25 -102.0 9.35 Q-102.9 9.35 -102.9 8.55 L-102.9 8.5 -103.7 8.55 -103.65 9.05 -103.7 9.45 Q-103.8 9.8 -104.25 9.8 -104.65 9.8 -104.9 9.45 L-105.1 8.9 -105.1 8.7 -105.85 8.75 -105.75 9.05 Q-105.75 9.7 -106.65 9.7 -107.35 9.7 -107.35 9.0 L-107.35 8.85 -108.1 9.0 -108.0 9.35 -108.05 9.7 Q-108.2 10.0 -108.65 10.0 L-109.4 9.75 -109.7 9.25 -109.7 9.2 -109.8 9.2 -109.75 9.35 -109.85 9.65 Q-110.05 9.9 -110.55 9.9 -111.3 9.9 -111.4 9.35 L-112.4 9.45 -112.35 9.7 -112.4 10.15 Q-112.55 10.5 -113.2 10.5 -113.75 10.5 -114.3 10.0 L-114.65 9.65 -114.65 9.75 Q-114.65 10.1 -114.85 10.25 -114.5 10.55 -114.4 10.95 -113.85 11.6 -113.85 11.95 L-113.9 12.3 Q-114.05 12.6 -114.7 12.6 L-114.95 12.6 -115.1 12.65 -115.05 13.0 -115.1 13.35 Q-115.25 13.65 -115.8 13.65 L-116.65 13.4 -116.7 13.7 Q-116.9 14.2 -117.6 14.2 L-118.25 13.8 -118.4 13.35 -118.55 13.35 -118.55 13.6 -118.9 14.0 Q-118.9 14.7 -119.7 14.7 -120.35 14.7 -120.35 13.85 L-120.3 13.45 -120.65 13.45 -120.55 13.85 -120.55 14.15 Q-120.6 14.5 -121.05 14.5 -121.7 14.5 -121.85 13.7 L-121.85 13.6 -122.0 13.95 Q-122.25 14.35 -122.8 14.35 -123.65 14.35 -123.65 13.45 L-123.75 13.45 -123.7 13.7 Q-123.7 14.6 -124.45 14.6 -125.15 14.6 -125.15 13.7 L-125.05 13.35 -125.55 13.3 -125.8 13.8 Q-126.15 14.2 -126.85 14.2 -127.25 14.2 -127.5 13.75 L-127.65 13.15 -127.65 13.1 -127.75 13.05 -127.85 13.35 Q-128.05 13.65 -128.5 13.65 -129.1 13.65 -129.2 13.05 L-129.25 13.05 -129.2 13.2 -129.25 13.65 Q-129.4 14.15 -129.85 14.15 L-130.35 13.85 -130.5 13.45 -130.45 13.15 -131.6 13.25 Q-131.2 13.5 -131.2 14.1 L-131.25 14.5 Q-131.4 14.85 -131.9 14.85 -132.45 14.85 -132.8 14.4 L-133.05 13.65 -133.0 13.35 -133.45 13.35 -133.8 13.35 Q-133.85 13.85 -134.55 13.85 -135.1 13.85 -135.2 13.35 L-136.1 13.35 -136.2 13.85 Q-136.45 14.4 -137.2 14.4 -137.9 14.4 -137.95 13.4 L-138.35 13.4 -138.3 13.6 Q-138.3 14.35 -139.25 14.35 -139.9 14.35 -139.9 13.6 L-139.9 13.4 -140.25 13.4 -140.3 13.65 Q-140.4 14.0 -140.85 14.0 L-141.2 13.9 Q-141.25 14.7 -142.3 14.7 -143.0 14.7 -143.0 13.85 L-142.95 13.4 -143.25 13.4 -143.15 13.8 Q-143.15 14.45 -143.75 14.45 L-144.3 14.15 -144.5 13.7 -144.45 13.4 -144.85 13.4 -144.7 13.8 -144.85 14.15 Q-145.05 14.5 -145.45 14.5 -146.1 14.5 -146.1 13.75 L-146.0 13.4 -146.05 13.4 Q-146.75 13.45 -147.2 12.95 L-147.3 12.9 -147.6 12.8 -147.55 13.1 Q-147.55 13.85 -148.5 13.85 -149.35 13.85 -149.35 13.0 L-149.3 12.55 -149.65 12.5 Q-149.65 13.15 -150.55 13.15 -151.35 13.15 -151.35 12.5 L-151.15 12.0 -151.3 11.95 Q-151.5 12.25 -151.85 12.25 -152.05 12.25 -152.25 12.05 L-152.4 11.65 -152.3 11.15 -152.35 11.1 -152.5 11.1 -152.8 10.9 -152.9 10.65 -154.05 10.65 -153.85 11.2 -153.9 11.65 -154.6 11.9 Q-155.85 11.9 -155.85 10.9 L-155.8 10.6 -156.2 10.6 -156.15 10.9 -156.2 11.25 Q-156.35 11.6 -156.85 11.6 -157.55 11.6 -157.55 10.95 L-157.4 10.55 -158.5 10.55 -158.4 11.0 -158.5 11.3 Q-158.65 11.65 -159.1 11.65 -159.7 11.65 -159.75 10.95 -159.9 11.25 -160.3 11.25 L-160.65 11.15 Q-160.9 11.5 -161.6 11.5 L-162.05 11.25 -162.25 10.85 -162.3 10.85 -162.25 11.05 -162.35 11.4 -162.9 11.75 Q-163.55 11.75 -163.55 11.0 L-163.55 10.95 -163.65 10.95 -163.6 11.2 -163.6 11.65 Q-163.7 11.95 -164.2 11.95 -164.85 11.95 -164.85 11.15 L-164.85 11.0 -165.5 11.05 -165.45 11.3 -165.5 11.65 Q-165.65 12.0 -166.0 12.0 L-166.45 11.85 -166.45 11.9 Q-166.65 12.2 -167.15 12.2 -167.7 12.2 -167.85 11.85 -168.0 12.25 -168.6 12.25 -169.3 12.25 -169.3 11.55 L-169.3 11.4 -169.4 11.4 -169.35 11.5 -169.35 12.05 Q-168.95 12.25 -168.95 13.1 L-169.05 13.45 Q-169.3 13.75 -170.0 13.75 -170.45 13.75 -170.7 13.45 L-170.9 13.5 -171.15 13.55 -171.0 13.95 -171.1 14.35 Q-171.3 14.7 -171.9 14.7 -172.95 14.7 -172.95 13.75 L-172.95 13.65 -173.3 13.65 -173.4 14.0 -173.95 14.4 Q-174.3 14.4 -174.55 14.1 L-174.75 13.7 -175.05 13.7 -174.95 14.1 Q-174.95 14.75 -175.65 14.75 -176.35 14.75 -176.35 14.15 L-176.15 13.7 -176.6 13.7 -177.1 13.65 -177.1 13.75 Q-177.1 14.4 -177.65 14.4 -178.35 14.4 -178.35 13.6 L-178.35 13.5 -178.4 13.5 -178.4 13.55 -178.45 13.85 Q-178.6 14.2 -179.05 14.2 -179.55 14.2 -179.7 13.85 L-179.8 14.05 Q-180.1 14.5 -180.6 14.5 -181.5 14.5 -181.5 13.4 L-181.5 13.25 -181.6 13.4 Q-182.15 14.0 -182.9 14.0 -183.6 14.0 -183.6 13.15 L-183.55 12.65 -184.3 12.55 -184.25 12.7 Q-184.25 13.4 -185.25 13.4 -186.35 13.4 -186.35 12.45 L-186.3 12.15 -187.0 12.0 Q-187.05 12.55 -187.95 12.55 -188.85 12.55 -188.85 11.9 L-188.75 11.5 -189.0 11.15 -188.7 10.55 -189.1 10.5 -189.05 10.7 -189.35 11.25 Q-189.75 11.65 -190.5 11.65 -191.15 11.65 -191.15 10.75 L-191.1 10.3 -191.9 10.2 -191.85 10.35 -191.95 10.7 -192.65 11.0 Q-193.45 11.0 -193.45 10.35 L-193.4 9.95 -193.6 9.9 -194.1 9.9 -194.05 10.25 -194.15 10.6 Q-194.3 10.9 -194.75 10.9 -195.4 10.9 -195.4 10.2 L-195.4 9.9 -195.8 9.9 -195.7 10.3 Q-195.7 11.1 -196.6 11.1 -197.35 11.1 -197.8 10.5 L-198.1 9.9 -198.6 9.9 -198.65 10.35 Q-198.8 10.7 -199.3 10.7 -200.0 10.7 -200.1 9.9 L-200.7 9.9 -200.6 10.4 -200.7 10.75 Q-200.9 11.1 -201.35 11.1 -202.1 11.1 -202.1 10.2 L-202.1 10.1 -203.4 10.2 Q-203.25 10.45 -203.25 10.95 L-203.3 11.25 Q-203.45 11.55 -203.95 11.55 -204.5 11.55 -204.85 11.1 L-205.1 10.6 -204.95 10.35 -205.4 10.35 -205.4 10.45 -205.45 10.85 Q-205.6 11.25 -206.05 11.25 L-206.6 10.95 -206.8 10.45 -206.8 10.4 -207.1 10.4 -207.55 10.7 -207.7 10.7 -207.6 11.15 Q-207.6 11.8 -208.35 11.8 L-209.15 11.55 -209.5 10.95 -209.5 10.8 -210.1 11.15 -209.6 11.6 -209.3 12.3 -209.4 12.7 -209.8 13.05 -209.85 13.1 -210.75 13.45 -210.7 13.7 -210.75 14.05 Q-210.9 14.4 -211.45 14.4 -211.8 14.4 -212.15 14.05 L-212.45 13.65 -212.6 13.65 -212.55 13.8 -212.65 14.2 Q-212.8 14.65 -213.25 14.65 -213.6 14.65 -213.85 14.35 L-214.1 13.7 -214.1 13.65 -215.1 13.65 Q-214.95 13.8 -214.95 14.05 L-215.0 14.35 -215.65 14.6 Q-216.05 14.6 -216.3 14.2 L-216.5 13.75 -216.5 13.6 -217.05 13.6 -217.0 13.8 -217.1 14.1 Q-217.25 14.4 -217.7 14.4 -218.3 14.4 -218.3 13.75 L-218.3 13.5 -218.55 13.45 -218.55 13.5 -218.85 14.15 Q-219.25 14.8 -219.75 14.8 -220.45 14.8 -220.45 13.75 L-220.4 13.25 -220.45 13.25 -220.5 13.55 Q-220.7 13.9 -221.3 13.9 L-221.8 13.65 -222.0 13.1 -222.0 13.05 -222.2 13.0 -222.25 13.15 Q-222.5 13.55 -222.95 13.55 -223.2 13.55 -223.35 13.35 L-223.5 13.0 -223.5 12.75 -224.0 12.65 Q-224.05 13.35 -224.8 13.35 -225.55 13.35 -225.55 12.75 L-225.3 12.3 -225.55 12.25 -225.75 12.6 Q-226.1 13.0 -226.6 13.0 -227.65 13.0 -227.65 12.0 L-227.55 11.35 -227.65 11.25 -228.4 11.35 Q-228.85 11.35 -229.1 11.05 L-229.25 10.65 -229.2 10.25 -229.35 10.25 -230.0 10.0 -230.0 10.1 Q-230.25 10.65 -230.95 10.65 L-232.6 9.6 -232.6 9.65 -232.6 10.2 Q-232.8 10.65 -233.6 10.65 -234.15 10.65 -235.0 9.8 L-235.05 9.75 -235.0 10.4 Q-235.0 11.3 -236.05 11.3 -236.95 11.3 -237.45 9.65 -237.6 10.25 -238.45 10.25 -239.2 10.25 -239.65 9.3 L-239.8 9.05 Q-240.0 9.4 -240.85 9.4 -241.15 9.4 -241.7 8.7 L-241.75 8.7 -242.5 8.8 Q-243.45 8.8 -243.45 7.3 -243.45 5.75 -242.4 6.05 L-241.55 6.65 Q-241.3 6.7 -240.95 6.9 L-239.95 7.8 Q-239.9 6.4 -238.7 7.5 -237.9 8.2 -237.6 8.8 -237.45 7.75 -236.3 8.2 L-235.8 8.5 Q-235.7 7.85 -235.05 7.9 -234.45 7.9 -234.1 8.4 -234.0 7.65 -232.55 7.55 -231.05 7.45 -231.3 8.85 L-231.0 8.5 -230.65 8.35 Q-230.3 8.35 -230.15 8.7 L-229.6 8.6 -229.35 8.3 Q-222.55 10.7 -219.0 10.7 -218.25 10.7 -213.15 8.35 -208.1 6.05 -203.7 6.05 L-199.1 6.2 Q-197.25 7.6 -191.0 9.15 L-181.25 11.15 -174.25 11.15 Q-173.4 11.2 -171.9 10.45 -170.5 9.7 -169.8 8.95 L-165.05 8.55 -163.35 8.35 -136.8 10.45 -128.25 10.45 -124.2 9.35 Q-120.7 8.4 -117.0 8.25 -114.75 8.15 -113.3 6.85 -112.05 5.7 -112.15 4.45 L-112.25 4.35 -92.85 5.25 -77.9 5.25 -72.5 4.9 -59.75 4.9 -56.3 5.0 -52.8 4.9 -35.65 4.9 -34.8 5.05 -22.05 5.15 -18.25 6.0 3.65 6.05 4.75 6.2 4.8 6.2 5.95 6.6 5.95 6.65 5.65 7.05 5.8 7.45 Q5.8 8.15 5.0 8.15 L4.45 7.95 4.4 7.9 4.2 8.0 3.95 8.15 4.05 8.7 Q4.1 9.3 3.4 9.3 3.15 9.3 2.85 9.1" fill="#000000" fill-opacity="0.2" fill-rule="evenodd" stroke="none"/>
    <path d="M-235.2 8.45 L-235.05 8.55 -235.05 8.45 -235.2 8.45 M-80.8 11.35 L-80.8 11.3 -81.0 11.25 -80.8 11.35 M-33.3 6.5 L-33.3 6.3 -33.4 6.3 -33.3 6.5 M0.7 -0.95 Q1.2 -0.8 1.35 -0.45 L2.15 -1.4 Q3.05 -1.95 3.05 -0.6 L3.05 -0.25 Q3.5 -0.2 3.6 0.1 L4.05 -0.1 Q4.8 -0.25 4.8 0.5 L4.75 0.65 Q6.35 1.1 6.35 1.85 6.45 2.25 6.05 2.45 6.6 2.85 6.6 3.3 6.6 4.25 5.55 4.5 L5.95 5.6 5.65 6.05 5.8 6.4 Q5.8 7.1 5.0 7.1 L4.45 6.9 4.4 6.85 4.2 6.95 3.95 7.1 4.05 7.65 Q4.1 8.25 3.4 8.25 3.15 8.25 2.85 8.05 L2.85 8.15 Q2.85 8.6 2.25 8.6 L1.95 8.6 Q1.9 9.0 1.4 9.0 0.8 9.0 0.55 8.4 L0.4 8.1 0.25 8.1 0.3 8.15 Q0.3 8.7 -0.65 8.7 L-1.15 8.3 -1.15 7.8 -1.7 7.95 -2.35 7.5 -2.5 7.15 -2.95 7.15 -2.9 7.45 -2.95 7.8 -3.5 8.1 Q-3.9 8.1 -4.2 7.65 L-4.45 7.25 -4.8 7.25 -4.8 7.55 -4.85 7.9 Q-5.0 8.2 -5.5 8.2 L-6.0 8.0 -7.3 8.1 -7.25 8.25 Q-7.25 8.75 -7.6 8.85 L-7.55 9.05 Q-6.95 9.2 -6.95 10.1 -6.95 10.7 -7.6 10.7 L-7.85 10.65 Q-7.7 10.9 -7.7 11.35 L-7.8 11.65 Q-7.95 11.9 -8.2 11.9 L-8.8 11.7 -8.75 12.4 -8.8 12.65 Q-8.95 12.95 -9.4 12.95 L-10.0 12.3 -10.6 12.65 Q-11.35 12.65 -11.35 11.9 L-11.65 11.9 -11.6 12.2 -11.7 12.5 Q-11.85 12.75 -12.3 12.75 -13.05 12.75 -13.05 12.05 L-13.5 12.1 -13.5 12.15 -13.55 12.6 Q-13.7 13.1 -14.25 13.1 L-14.75 12.8 -14.85 12.65 -15.05 12.65 -15.45 12.55 Q-15.6 12.9 -16.2 12.9 -16.8 12.9 -16.8 12.25 L-16.9 12.45 -17.0 12.65 Q-17.2 13.1 -17.65 13.1 L-18.25 12.5 -18.85 12.9 Q-19.4 12.9 -19.45 12.05 L-19.5 12.2 Q-19.7 12.55 -20.05 12.55 L-20.45 12.4 -21.35 12.7 -22.1 12.2 -22.5 12.3 Q-22.95 12.3 -23.1 12.0 -23.4 12.3 -23.85 12.3 L-24.35 11.95 -24.55 11.55 -24.8 11.55 Q-25.35 11.55 -25.45 11.0 -25.6 11.3 -26.05 11.3 -26.65 11.3 -26.65 10.75 L-27.3 10.9 Q-27.95 10.9 -27.95 10.25 L-27.9 9.95 -28.35 10.0 Q-29.2 10.0 -29.2 9.3 -29.2 8.8 -28.65 8.8 L-28.35 8.85 -28.1 8.55 Q-28.45 8.4 -28.45 7.95 L-28.4 7.55 -28.6 7.5 -28.65 7.85 Q-28.8 8.2 -29.3 8.2 L-29.65 8.0 -29.8 7.65 -29.7 7.3 -29.75 7.3 -29.95 7.25 -29.95 7.35 -30.0 7.65 Q-30.1 7.9 -30.5 7.9 -31.15 7.9 -31.15 7.35 L-31.1 7.1 -31.55 7.3 -32.2 6.85 -32.7 7.1 Q-33.25 7.1 -33.3 6.6 L-33.4 6.9 -33.8 7.25 -34.25 6.9 -34.45 6.45 -34.8 6.45 -34.75 6.7 -34.75 7.0 Q-34.8 7.35 -35.2 7.35 L-35.75 7.0 -35.95 6.6 -36.1 6.65 -36.05 6.8 -36.2 7.25 -36.8 7.6 -37.2 7.35 -37.35 6.9 -37.35 6.75 -37.7 6.75 -37.6 7.25 Q-37.6 7.75 -38.15 7.75 -38.6 7.75 -38.6 7.25 L-38.55 6.8 -38.75 6.8 -38.7 6.95 Q-38.7 7.5 -39.35 7.5 L-39.7 7.35 -39.9 6.95 -39.9 6.85 -40.05 6.85 -40.05 6.95 -40.15 7.35 Q-40.35 7.75 -40.7 7.75 -41.25 7.75 -41.25 7.0 L-41.25 6.9 -41.5 6.9 -41.45 7.05 -41.6 7.45 Q-41.8 7.85 -42.1 7.85 -42.6 7.85 -42.6 7.35 L-42.55 6.9 -43.1 6.95 -43.05 7.35 -43.05 7.75 Q-43.15 8.2 -43.7 8.2 -44.35 8.2 -44.35 7.65 L-44.15 6.95 -44.7 7.0 -44.65 7.35 -44.7 7.7 Q-44.8 8.0 -45.2 8.0 -45.75 8.0 -45.75 7.4 L-45.7 7.0 -45.8 7.0 -45.8 7.05 Q-45.8 7.25 -45.95 7.45 L-46.65 7.75 Q-47.3 7.75 -47.3 7.15 L-47.3 7.05 -47.4 7.05 -47.55 7.45 Q-47.75 7.85 -48.1 7.85 L-48.55 7.75 -48.85 7.85 -48.95 7.85 -48.9 8.0 -48.95 8.3 -49.45 8.6 Q-50.05 8.6 -50.1 8.0 L-50.25 8.0 -50.2 8.15 -50.4 8.5 Q-50.65 8.8 -51.0 8.8 -51.75 8.8 -51.75 8.1 L-52.25 8.1 -52.05 8.45 -52.1 8.8 Q-52.2 9.05 -52.65 9.05 L-53.3 8.75 -53.55 8.35 -53.6 8.5 -53.85 8.8 -53.65 9.4 -53.65 9.45 Q-53.3 9.55 -53.3 10.0 L-53.3 10.35 Q-53.35 10.55 -53.65 10.55 L-54.1 10.5 -54.2 10.55 -54.15 10.85 -54.2 11.15 -54.7 11.4 -55.25 11.1 -55.35 10.95 -55.35 11.1 -55.45 11.4 Q-55.6 11.75 -56.05 11.75 -56.55 11.75 -56.65 11.2 L-56.65 11.35 -56.7 11.75 -57.2 12.1 -57.65 11.75 -57.75 11.5 -57.75 11.7 -57.8 12.0 Q-57.9 12.25 -58.35 12.25 L-58.85 11.85 -59.0 11.3 -59.35 11.3 -59.35 11.5 Q-59.35 12.1 -59.95 12.1 L-60.5 11.8 -60.7 11.35 -60.75 11.35 -60.7 11.6 -60.8 12.05 Q-60.95 12.45 -61.35 12.45 -61.75 12.45 -61.85 11.8 L-61.8 11.35 -62.15 11.35 -62.2 11.85 Q-62.3 12.35 -62.75 12.35 -63.3 12.35 -63.3 11.35 L-63.45 11.35 -63.45 11.6 -63.5 11.95 Q-63.6 12.25 -64.05 12.25 L-64.65 11.85 -64.8 11.3 -65.0 11.3 -64.95 11.7 -65.0 12.0 Q-65.1 12.3 -65.55 12.3 L-66.05 11.9 -66.3 11.25 -66.3 11.2 -66.5 11.2 -66.45 11.5 -66.5 12.1 Q-66.65 12.6 -67.1 12.6 -67.5 12.6 -67.65 12.15 L-67.75 12.4 Q-67.9 12.65 -68.25 12.65 L-68.8 12.3 -68.95 11.85 -69.05 12.3 -69.7 12.8 Q-70.35 12.8 -70.35 12.1 L-70.35 11.9 -70.7 11.9 -70.7 11.95 -70.85 12.55 Q-71.05 13.2 -71.4 13.2 -72.1 13.2 -72.1 12.0 L-72.1 11.95 -72.65 11.95 -72.65 12.15 -72.7 12.5 Q-72.8 12.8 -73.25 12.8 L-73.7 12.65 -74.2 12.9 Q-74.75 12.9 -74.75 12.15 L-74.75 11.95 -75.15 11.9 -75.35 12.25 -76.05 12.55 Q-76.55 12.55 -76.65 11.9 L-76.65 11.85 -78.0 11.75 -78.1 11.95 Q-78.4 12.35 -79.0 12.35 -79.65 12.35 -79.75 11.85 L-79.85 12.2 Q-80.15 12.7 -80.95 12.7 L-81.9 12.25 -82.1 12.15 -83.25 12.45 Q-83.95 12.45 -83.95 11.85 L-83.85 11.4 -83.9 11.35 -83.9 11.5 -84.55 11.85 Q-85.15 11.85 -85.15 11.15 L-84.95 10.65 -85.25 10.65 Q-85.9 10.65 -86.05 10.15 L-86.4 10.15 Q-86.5 10.8 -87.85 10.8 -88.3 10.8 -88.6 10.35 L-88.8 9.85 -89.3 9.75 -89.35 9.85 Q-89.55 10.2 -90.15 10.2 -90.95 10.2 -90.95 9.4 L-90.95 9.25 -91.8 8.9 -92.3 9.0 Q-92.95 9.0 -92.95 8.3 L-92.9 7.95 -93.35 7.1 -93.4 7.1 Q-93.25 7.35 -93.25 7.6 L-93.25 7.95 Q-93.35 8.25 -93.9 8.25 -94.4 8.25 -94.8 7.85 L-95.15 7.15 -95.25 7.15 -95.2 7.4 -95.25 7.7 Q-95.35 8.0 -95.8 8.0 -96.65 8.0 -96.75 7.55 -96.9 7.9 -97.5 7.9 -98.25 7.9 -98.3 7.1 L-98.45 7.1 -98.45 7.25 -98.55 7.65 Q-98.75 8.0 -99.25 8.0 L-99.75 7.8 -99.95 7.4 -99.95 7.3 -100.2 7.3 -100.5 7.35 -100.45 7.7 -100.5 8.05 -101.1 8.4 -101.6 8.2 -102.0 8.3 Q-102.9 8.3 -102.9 7.55 L-102.9 7.5 -103.7 7.55 -103.65 8.0 -103.7 8.4 Q-103.8 8.8 -104.25 8.8 L-104.9 8.4 -105.1 7.85 -105.1 7.65 -105.85 7.7 -105.75 8.0 Q-105.75 8.7 -106.65 8.7 -107.35 8.7 -107.35 7.95 L-107.35 7.8 -108.1 7.95 -108.0 8.3 -108.05 8.7 Q-108.2 9.0 -108.65 9.0 L-109.4 8.75 -109.7 8.2 -109.7 8.15 -109.8 8.15 -109.75 8.3 -109.85 8.6 Q-110.05 8.9 -110.55 8.9 -111.3 8.9 -111.4 8.3 L-112.4 8.4 -112.35 8.7 -112.4 9.1 Q-112.55 9.45 -113.2 9.45 -113.75 9.45 -114.3 9.0 L-114.65 8.6 -114.65 8.75 -114.85 9.2 Q-114.5 9.5 -114.4 9.9 -113.85 10.55 -113.85 10.9 L-113.9 11.25 Q-114.05 11.6 -114.7 11.6 L-114.95 11.6 -115.1 11.65 -115.05 11.95 -115.1 12.3 Q-115.25 12.6 -115.8 12.6 L-116.65 12.35 -116.7 12.65 Q-116.9 13.2 -117.6 13.2 L-118.25 12.75 -118.4 12.3 -118.55 12.3 -118.55 12.55 -118.9 13.0 Q-118.9 13.65 -119.7 13.65 -120.35 13.65 -120.35 12.8 L-120.3 12.4 -120.65 12.4 -120.55 12.8 -120.55 13.15 Q-120.6 13.45 -121.05 13.45 -121.7 13.45 -121.85 12.65 L-121.85 12.55 -122.0 12.95 Q-122.25 13.3 -122.8 13.3 -123.65 13.3 -123.65 12.4 L-123.75 12.4 -123.7 12.65 Q-123.7 13.55 -124.45 13.55 -125.15 13.55 -125.15 12.65 L-125.05 12.3 -125.55 12.25 -125.8 12.75 Q-126.15 13.2 -126.85 13.2 L-127.5 12.7 -127.65 12.1 -127.65 12.05 -127.75 12.0 -127.85 12.3 Q-128.05 12.6 -128.5 12.6 -129.1 12.6 -129.2 12.0 L-129.25 12.0 -129.2 12.15 -129.25 12.6 Q-129.4 13.15 -129.85 13.15 L-130.35 12.8 -130.5 12.4 -130.45 12.1 -131.6 12.2 Q-131.2 12.45 -131.2 13.1 L-131.25 13.45 Q-131.4 13.8 -131.9 13.8 -132.45 13.8 -132.8 13.35 L-133.05 12.6 -133.0 12.3 -133.45 12.3 -133.8 12.3 Q-133.85 12.8 -134.55 12.8 -135.1 12.8 -135.2 12.3 L-136.1 12.3 -136.2 12.8 Q-136.45 13.35 -137.2 13.35 -137.9 13.35 -137.95 12.35 L-138.35 12.35 -138.3 12.55 Q-138.3 13.3 -139.25 13.3 -139.9 13.3 -139.9 12.55 L-139.9 12.35 -140.25 12.35 -140.3 12.6 Q-140.4 13.0 -140.85 13.0 L-141.2 12.9 Q-141.25 13.65 -142.3 13.65 -143.0 13.65 -143.0 12.8 L-142.95 12.35 -143.25 12.35 -143.15 12.75 Q-143.15 13.4 -143.75 13.4 L-144.3 13.15 -144.5 12.65 -144.45 12.35 -144.85 12.35 -144.7 12.75 -144.85 13.15 Q-145.05 13.45 -145.45 13.45 -146.1 13.45 -146.1 12.7 L-146.0 12.35 -146.05 12.35 Q-146.75 12.4 -147.2 11.9 L-147.3 11.85 -147.6 11.8 -147.55 12.05 Q-147.55 12.8 -148.5 12.8 -149.35 12.8 -149.35 11.95 L-149.3 11.55 -149.65 11.5 Q-149.65 12.1 -150.55 12.1 -151.35 12.1 -151.35 11.5 -151.35 11.1 -151.15 10.95 L-151.3 10.9 Q-151.5 11.2 -151.85 11.2 -152.05 11.2 -152.25 11.0 L-152.4 10.6 -152.3 10.15 -152.35 10.1 -152.5 10.1 -152.8 9.85 -152.9 9.6 -154.05 9.6 -153.85 10.2 -153.9 10.6 -154.6 10.85 Q-155.85 10.85 -155.85 9.85 L-155.8 9.55 -156.2 9.55 -156.15 9.85 -156.2 10.25 Q-156.35 10.55 -156.85 10.55 -157.55 10.55 -157.55 9.9 L-157.4 9.5 -158.5 9.5 -158.4 9.95 -158.5 10.3 Q-158.65 10.6 -159.1 10.6 -159.7 10.6 -159.75 9.9 -159.9 10.25 -160.3 10.25 L-160.65 10.15 Q-160.9 10.45 -161.6 10.45 L-162.05 10.25 -162.25 9.8 -162.3 9.8 -162.25 10.0 -162.35 10.4 Q-162.55 10.7 -162.9 10.7 -163.55 10.7 -163.55 9.95 L-163.55 9.9 -163.65 9.9 -163.6 10.2 -163.6 10.6 Q-163.7 10.9 -164.2 10.9 -164.85 10.9 -164.85 10.15 L-164.85 9.95 -165.5 10.0 -165.45 10.3 -165.5 10.6 Q-165.65 10.95 -166.0 10.95 L-166.45 10.8 -166.45 10.85 Q-166.65 11.15 -167.15 11.15 -167.7 11.15 -167.85 10.8 -168.0 11.2 -168.6 11.2 -169.3 11.2 -169.3 10.5 L-169.3 10.4 -169.4 10.4 -169.35 10.45 -169.35 11.0 Q-168.95 11.2 -168.95 12.05 L-169.05 12.4 Q-169.3 12.7 -170.0 12.7 -170.45 12.7 -170.7 12.4 L-170.9 12.45 -171.15 12.5 Q-171.0 12.7 -171.0 12.95 L-171.1 13.3 Q-171.3 13.65 -171.9 13.65 -172.95 13.65 -172.95 12.7 L-172.95 12.6 -173.3 12.6 -173.4 13.0 Q-173.6 13.35 -173.95 13.35 L-174.55 13.1 -174.75 12.65 -175.05 12.65 -174.95 13.1 Q-174.95 13.7 -175.65 13.7 -176.35 13.7 -176.35 13.15 L-176.15 12.65 -176.6 12.65 -177.1 12.6 -177.1 12.7 Q-177.1 13.35 -177.65 13.35 -178.35 13.35 -178.35 12.55 L-178.35 12.45 -178.4 12.45 -178.4 12.5 -178.45 12.8 Q-178.6 13.2 -179.05 13.2 L-179.7 12.8 -179.8 13.05 Q-180.1 13.45 -180.6 13.45 -181.5 13.45 -181.5 12.35 L-181.5 12.2 -181.6 12.35 Q-182.15 13.0 -182.9 13.0 -183.6 13.0 -183.6 12.1 L-183.55 11.65 -184.3 11.55 -184.25 11.7 Q-184.25 12.35 -185.25 12.35 -186.35 12.35 -186.35 11.4 L-186.3 11.1 -187.0 10.95 Q-187.05 11.55 -187.95 11.55 -188.85 11.55 -188.85 10.85 L-188.75 10.45 -189.0 10.15 -188.7 9.5 -189.1 9.45 -189.05 9.65 Q-189.05 9.95 -189.35 10.25 -189.75 10.6 -190.5 10.6 -191.15 10.6 -191.15 9.7 L-191.1 9.25 -191.9 9.15 -191.85 9.3 -191.95 9.65 -192.65 9.95 Q-193.45 9.95 -193.45 9.3 L-193.4 8.95 -193.6 8.9 -194.1 8.9 -194.05 9.2 -194.15 9.55 Q-194.3 9.85 -194.75 9.85 -195.4 9.85 -195.4 9.15 L-195.4 8.9 -195.8 8.9 -195.7 9.25 Q-195.7 10.1 -196.6 10.1 -197.35 10.1 -197.8 9.45 L-198.1 8.9 -198.6 8.9 -198.65 9.3 Q-198.8 9.65 -199.3 9.65 -200.0 9.65 -200.1 8.9 L-200.7 8.9 -200.6 9.35 -200.7 9.7 -201.35 10.1 Q-202.1 10.1 -202.1 9.15 L-202.1 9.05 -203.4 9.15 Q-203.25 9.4 -203.25 9.9 L-203.3 10.25 Q-203.45 10.5 -203.95 10.5 -204.5 10.5 -204.85 10.1 L-205.1 9.55 -204.95 9.3 -205.4 9.3 -205.4 9.4 -205.45 9.8 Q-205.6 10.25 -206.05 10.25 -206.35 10.25 -206.6 9.9 L-206.8 9.4 -206.8 9.35 -207.1 9.35 -207.55 9.65 -207.7 9.65 -207.6 10.15 Q-207.6 10.75 -208.35 10.75 L-209.15 10.5 -209.5 9.9 -209.5 9.75 Q-209.85 9.9 -210.1 10.15 L-209.6 10.55 -209.3 11.25 -209.4 11.7 -209.8 12.0 -209.85 12.05 -210.75 12.4 -210.7 12.65 -210.75 13.05 Q-210.9 13.35 -211.45 13.35 -211.8 13.35 -212.15 13.05 L-212.45 12.6 -212.6 12.6 -212.55 12.75 -212.65 13.2 Q-212.8 13.6 -213.25 13.6 -213.6 13.6 -213.85 13.3 L-214.1 12.65 -214.1 12.6 -215.1 12.6 Q-214.95 12.75 -214.95 13.05 L-215.0 13.3 -215.65 13.55 Q-216.05 13.55 -216.3 13.2 L-216.5 12.7 -216.5 12.55 -217.05 12.55 -217.0 12.75 -217.1 13.1 -217.7 13.35 Q-218.3 13.35 -218.3 12.7 L-218.3 12.45 -218.55 12.4 -218.55 12.45 -218.85 13.15 Q-219.25 13.75 -219.75 13.75 -220.45 13.75 -220.45 12.7 L-220.4 12.2 -220.45 12.2 -220.5 12.5 Q-220.7 12.9 -221.3 12.9 L-221.8 12.6 -222.0 12.05 -222.0 12.0 -222.2 11.95 -222.25 12.1 Q-222.5 12.5 -222.95 12.5 -223.2 12.5 -223.35 12.3 L-223.5 11.95 -223.5 11.75 -224.0 11.65 Q-224.05 12.3 -224.8 12.3 -225.55 12.3 -225.55 11.75 L-225.3 11.25 -225.55 11.2 -225.75 11.6 Q-226.1 11.95 -226.6 11.95 -227.65 11.95 -227.65 10.95 L-227.55 10.35 -227.65 10.25 -228.4 10.35 Q-228.85 10.35 -229.1 10.0 L-229.25 9.6 -229.2 9.2 -229.35 9.2 -230.1 8.9 -230.4 8.25 -230.4 8.2 -230.7 8.3 -230.55 8.7 Q-230.55 9.55 -231.4 9.55 L-232.15 8.8 -232.3 8.5 -232.55 8.5 -232.65 9.05 Q-233.0 9.6 -233.9 9.6 -234.75 9.6 -234.95 9.1 L-235.05 8.85 -235.25 9.3 Q-235.5 9.7 -236.05 9.7 -236.65 9.7 -237.0 9.05 L-237.25 8.25 -237.3 8.25 -237.4 8.5 Q-237.75 8.95 -238.7 8.95 -239.35 8.95 -239.75 8.5 L-240.1 7.65 -241.35 7.9 Q-241.65 7.9 -242.05 7.55 L-242.4 6.8 -242.4 6.65 -242.45 6.65 -242.8 6.65 -243.2 6.6 -243.2 6.75 Q-243.35 7.25 -243.85 7.25 -244.5 7.25 -244.5 6.2 -244.5 5.6 -244.15 5.45 L-244.5 5.2 -244.55 5.15 Q-244.95 5.05 -244.95 4.55 -244.95 3.8 -244.1 3.55 L-243.95 3.5 -243.95 3.45 -244.4 3.5 Q-245.1 3.5 -245.1 2.8 -245.1 2.15 -244.3 1.9 L-244.45 1.5 Q-245.05 1.45 -245.05 0.9 -245.05 0.35 -244.45 0.2 L-244.8 -0.4 Q-244.8 -1.1 -244.0 -1.0 L-244.0 -1.2 Q-244.0 -1.9 -243.2 -1.9 -242.5 -1.85 -242.45 -1.2 L-241.45 -1.05 -241.4 -1.05 -241.6 -1.55 Q-241.6 -2.2 -240.8 -2.05 -240.05 -1.9 -239.95 -1.2 L-239.85 -1.2 -239.6 -1.15 Q-239.4 -1.6 -238.75 -1.6 L-238.5 -1.55 -238.0 -1.85 Q-237.25 -2.0 -237.25 -1.05 -237.25 -0.65 -237.4 -0.4 L-237.1 -0.4 Q-237.1 -0.95 -236.7 -1.05 -236.6 -1.55 -236.0 -1.55 -235.3 -1.6 -235.3 -0.9 L-235.3 -0.55 -235.4 -0.4 -235.15 -0.4 -235.2 -0.7 Q-235.2 -1.55 -234.2 -1.35 -233.2 -1.1 -233.2 -0.55 L-233.25 -0.4 -233.05 -0.4 -233.05 -0.55 Q-233.05 -1.15 -232.25 -1.15 -231.45 -1.1 -231.45 -0.55 L-231.5 -0.4 -230.65 -0.4 -230.65 -0.55 Q-230.65 -1.35 -229.8 -1.15 -228.9 -1.05 -228.9 -0.45 L-228.95 -0.4 -227.95 -0.4 -227.95 -0.55 Q-227.95 -1.15 -227.25 -1.15 -226.5 -1.2 -226.5 -0.5 L-226.5 -0.4 -225.25 -0.4 Q-225.15 -0.8 -224.5 -0.75 -223.9 -0.7 -223.8 -0.4 L-223.15 -0.4 -223.15 -0.55 Q-223.15 -1.1 -222.25 -1.15 -221.35 -1.3 -221.35 -0.55 L-221.4 -0.4 -221.05 -0.4 -221.05 -0.6 Q-221.05 -1.55 -220.15 -1.3 -219.3 -1.0 -219.25 -0.4 L-219.1 -0.4 -219.1 -0.7 Q-219.1 -1.75 -217.95 -1.65 -216.75 -1.55 -216.75 -0.75 L-216.85 -0.4 -216.2 -0.4 -216.05 -0.5 -216.1 -1.05 Q-216.1 -2.35 -214.85 -1.95 -213.55 -1.5 -213.55 -0.55 L-213.55 -0.35 -213.35 -0.4 -212.95 -0.35 -213.15 -0.9 Q-213.15 -1.85 -211.8 -1.3 L-210.55 -0.55 -210.2 -0.6 -210.2 -0.85 Q-210.2 -1.75 -209.35 -1.6 -208.5 -1.45 -208.45 -0.8 L-207.5 -0.85 Q-207.35 -1.4 -206.75 -1.15 -206.3 -1.0 -206.15 -0.75 L-205.55 -0.65 -205.3 -0.65 Q-205.2 -1.35 -204.4 -1.0 L-203.65 -0.55 -203.5 -0.55 -203.5 -0.7 Q-203.45 -1.85 -202.8 -1.85 -201.7 -1.85 -201.7 -0.5 L-201.7 -0.45 -201.4 -0.45 -200.9 -0.45 Q-200.85 -1.05 -200.05 -0.9 L-199.25 -0.4 -198.45 -0.4 -198.45 -0.65 Q-198.45 -1.55 -197.6 -1.3 -196.95 -1.05 -196.8 -0.4 L-196.0 -0.4 -196.0 -0.45 -195.55 -0.9 Q-195.1 -0.9 -195.1 -0.45 L-195.1 -0.4 -195.0 -0.4 -195.0 -0.45 Q-195.0 -1.05 -194.4 -1.1 L-194.0 -0.95 Q-193.85 -1.5 -193.25 -1.1 L-192.5 -0.4 -191.95 -0.55 -191.5 -0.4 -190.55 -0.4 Q-190.5 -1.0 -189.95 -1.0 -189.4 -1.0 -189.0 -0.6 L-188.85 -0.4 -188.65 -0.4 -187.6 -1.15 Q-186.45 -1.75 -186.45 -0.7 L-186.6 -0.4 -185.15 -0.4 Q-185.15 -1.4 -184.0 -1.15 L-183.25 -0.85 Q-183.1 -1.6 -182.5 -1.65 -181.7 -1.7 -181.7 -0.6 L-181.7 -0.4 -180.45 -0.4 Q-180.35 -0.9 -179.65 -0.85 -179.05 -0.8 -178.9 -0.4 L-177.75 -0.4 Q-177.7 -1.1 -176.85 -1.05 -176.0 -1.0 -175.95 -0.4 L-175.7 -0.4 -175.8 -0.95 Q-175.9 -1.8 -175.1 -1.8 -174.35 -1.8 -173.95 -1.3 L-173.65 -0.5 -173.65 -0.4 -172.85 -0.4 Q-172.75 -0.95 -172.2 -0.9 -171.6 -0.85 -171.55 -0.4 L-170.65 -0.4 Q-170.5 -0.7 -170.0 -0.7 -169.5 -0.7 -169.35 -0.4 L-168.7 -0.4 Q-168.65 -1.4 -167.7 -1.05 -166.9 -0.8 -166.7 -0.35 L-166.1 -0.35 Q-165.95 -0.85 -165.15 -0.75 L-164.65 -0.6 Q-164.55 -1.4 -164.0 -1.4 -163.3 -1.45 -163.3 -0.55 L-162.75 -0.55 Q-162.65 -1.0 -162.1 -1.0 -161.6 -1.0 -161.25 -0.65 L-161.15 -0.5 -160.9 -0.5 Q-160.7 -1.3 -160.15 -1.3 -159.4 -1.3 -159.4 -0.55 L-159.4 -0.5 -158.25 -0.5 Q-158.25 -1.05 -157.55 -0.95 -156.85 -0.8 -156.8 -0.45 L-156.7 -0.45 -156.7 -0.55 Q-156.7 -1.45 -155.8 -1.3 L-155.1 -0.95 -154.5 -1.4 Q-153.7 -1.6 -153.7 -0.65 L-153.7 -0.45 -153.45 -0.45 -153.0 -0.6 -152.6 -0.45 -151.5 -0.45 -150.85 -0.95 Q-150.25 -1.0 -150.2 -0.4 L-149.6 -0.4 Q-149.55 -0.9 -149.0 -0.9 -148.4 -0.9 -148.25 -0.55 -148.15 -1.1 -147.45 -1.0 -146.95 -0.95 -146.75 -0.7 -146.6 -1.3 -146.1 -1.45 -145.4 -1.65 -145.4 -0.65 L-145.4 -0.4 -145.3 -0.4 -145.3 -0.45 Q-145.3 -1.15 -144.6 -1.1 -143.9 -1.05 -143.9 -0.45 L-143.9 -0.4 -143.8 -0.4 Q-143.65 -0.95 -143.05 -1.05 -142.25 -1.2 -142.25 -0.45 L-142.25 -0.4 -141.3 -0.4 Q-141.15 -0.8 -140.7 -0.8 -140.25 -0.8 -140.15 -0.4 L-139.35 -0.4 Q-139.35 -1.1 -138.55 -0.9 -138.0 -0.75 -137.8 -0.5 L-137.8 -0.55 Q-137.8 -1.4 -137.1 -1.45 -136.35 -1.5 -136.35 -0.6 L-136.4 -0.4 -134.75 -0.4 -134.75 -0.45 Q-134.8 -1.05 -134.15 -1.05 -133.15 -1.05 -133.1 -0.4 L-132.95 -0.4 Q-132.9 -1.1 -132.25 -1.2 -131.55 -1.4 -131.55 -0.55 L-131.55 -0.4 -129.0 -0.4 -129.0 -0.6 Q-129.0 -1.45 -128.15 -1.15 -127.3 -0.85 -127.3 -0.4 L-127.2 -0.4 -127.25 -0.6 Q-127.25 -1.55 -126.4 -1.7 -125.6 -1.85 -125.55 -0.4 L-124.9 -0.4 Q-124.85 -1.05 -124.1 -0.85 -123.45 -0.75 -123.35 -0.4 L-122.1 -0.4 Q-122.1 -0.95 -121.5 -0.95 L-120.9 -0.75 -120.35 -1.3 Q-119.7 -1.55 -119.65 -0.8 -119.55 -1.2 -119.1 -1.2 -118.35 -1.2 -118.35 -0.45 L-118.35 -0.4 -116.7 -0.4 -116.8 -0.7 Q-116.8 -1.75 -115.85 -1.3 L-115.3 -0.95 -114.55 -1.75 Q-113.7 -2.1 -113.7 -1.2 L-113.85 -0.4 -112.6 -0.4 -112.6 -0.7 Q-112.6 -1.4 -111.9 -1.2 -111.2 -1.05 -111.2 -0.55 L-111.25 -0.4 -110.3 -0.4 -110.4 -0.8 Q-110.4 -1.55 -109.8 -1.55 L-109.05 -1.1 -109.0 -1.0 -108.3 -1.75 Q-107.45 -2.4 -107.45 -1.2 L-107.55 -0.4 -106.65 -0.4 -106.15 -0.65 -105.65 -0.4 -105.1 -0.4 -105.15 -0.55 Q-105.15 -1.1 -104.55 -1.1 -103.95 -1.15 -103.95 -0.45 L-103.95 -0.4 -103.75 -0.4 -104.0 -1.15 Q-104.0 -2.5 -102.15 -0.4 L-100.2 -0.4 Q-100.2 -1.15 -99.3 -1.0 L-98.45 -0.55 Q-98.4 -1.2 -97.8 -1.45 -97.1 -1.65 -97.1 -0.9 L-97.15 -0.4 -96.2 -0.4 -96.2 -0.45 Q-96.2 -0.85 -95.6 -0.95 -94.95 -1.05 -94.95 -0.4 L-94.85 -0.4 -94.85 -0.55 Q-94.85 -1.1 -94.3 -1.1 -93.7 -1.1 -93.7 -0.55 L-93.7 -0.4 -93.25 -0.4 -93.25 -0.65 Q-93.25 -1.55 -92.65 -1.5 -92.05 -1.5 -92.05 -0.45 L-92.05 -0.4 -91.75 -0.4 -91.75 -0.5 Q-91.75 -1.6 -90.9 -1.3 L-90.35 -1.0 Q-90.2 -1.65 -89.7 -1.85 -88.95 -2.15 -88.95 -0.95 L-89.0 -0.4 -87.8 -0.4 -87.8 -0.45 Q-87.8 -1.05 -87.25 -0.95 -86.65 -0.9 -86.65 -0.45 L-86.65 -0.4 -86.2 -0.4 -86.2 -0.55 Q-86.2 -1.35 -85.5 -1.15 L-85.0 -0.95 Q-85.0 -2.0 -84.4 -2.05 -83.8 -2.1 -83.8 -1.05 L-83.8 -0.85 -83.2 -1.0 Q-82.55 -0.85 -82.55 -0.4 L-82.3 -0.4 Q-82.3 -1.1 -81.65 -0.85 L-81.3 -0.65 -80.8 -1.3 Q-80.2 -1.55 -80.2 -0.7 L-80.25 -0.4 -79.55 -0.4 Q-79.5 -0.9 -78.95 -0.9 -78.4 -0.9 -78.35 -0.4 L-78.1 -0.4 Q-78.1 -1.35 -77.2 -1.05 L-76.7 -0.8 Q-76.55 -1.6 -76.05 -1.7 -75.35 -1.85 -75.35 -0.85 L-75.35 -0.4 -74.8 -0.4 -74.25 -0.6 -74.05 -0.55 Q-73.95 -0.85 -73.5 -0.85 -73.05 -0.85 -72.9 -0.65 L-72.4 -1.0 Q-71.8 -1.05 -71.75 -0.4 L-70.85 -0.4 Q-70.8 -1.0 -70.1 -0.9 L-69.65 -0.75 Q-69.5 -1.45 -69.1 -1.45 -68.2 -1.45 -68.2 -0.5 L-68.2 -0.4 -67.3 -0.4 Q-67.25 -0.9 -66.7 -0.9 -66.15 -0.9 -66.1 -0.4 L-65.7 -0.4 -65.15 -0.7 Q-64.7 -0.7 -64.55 -0.4 L-64.5 -0.4 -64.55 -0.85 Q-64.6 -1.65 -63.95 -1.65 -63.0 -1.65 -63.0 -0.55 L-63.05 -0.4 -62.45 -0.4 Q-62.4 -0.9 -61.9 -0.9 -61.35 -0.9 -61.3 -0.4 L-61.05 -0.4 -61.05 -0.55 Q-61.1 -1.15 -60.5 -1.15 L-59.75 -0.9 Q-59.6 -1.5 -59.05 -1.65 -58.3 -1.9 -58.3 -1.05 L-58.35 -0.4 -57.95 -0.4 -57.5 -0.55 -57.05 -0.4 -56.0 -0.4 -55.75 -0.65 -55.45 -0.4 -55.15 -0.4 Q-55.1 -1.0 -54.45 -0.95 -53.8 -0.85 -53.75 -0.4 L-53.35 -0.4 -53.35 -0.6 Q-53.35 -1.45 -52.7 -1.55 -52.0 -1.65 -52.0 -0.65 L-52.0 -0.4 -51.2 -0.4 Q-51.1 -1.05 -50.4 -1.1 L-49.95 -1.05 Q-49.95 -2.0 -49.0 -1.45 L-48.0 -0.4 -47.8 -0.4 -47.8 -0.5 Q-47.8 -1.2 -47.05 -1.15 -46.55 -1.1 -46.4 -0.75 L-46.2 -0.75 Q-45.75 -0.7 -45.65 -0.4 L-45.0 -0.4 Q-44.95 -0.95 -44.35 -0.85 L-43.75 -0.4 -43.7 -0.4 Q-43.6 -0.9 -43.05 -0.8 -42.5 -0.7 -42.4 -0.4 L-41.65 -0.4 -41.7 -0.65 Q-41.6 -1.45 -41.1 -1.45 -40.3 -1.45 -40.3 -0.75 L-40.35 -0.4 -39.65 -0.4 Q-39.65 -1.7 -38.7 -1.5 -37.7 -1.35 -37.7 -0.5 L-37.7 -0.4 -36.45 -0.4 -36.45 -0.5 Q-36.35 -1.4 -35.85 -1.4 -35.4 -1.4 -35.0 -0.95 L-34.65 -0.4 -34.55 -0.4 -34.7 -1.0 Q-34.7 -2.2 -33.45 -0.65 L-32.95 -1.2 Q-32.4 -1.45 -32.4 -0.6 L-32.4 -0.4 -31.8 -0.4 -31.8 -0.45 Q-31.8 -1.05 -31.25 -0.85 L-30.9 -0.7 Q-30.8 -1.0 -30.3 -0.95 -29.65 -0.9 -29.6 -0.4 -29.55 -0.9 -28.9 -0.8 L-28.55 -0.75 -28.0 -0.8 Q-27.5 -0.75 -27.3 -0.4 L-26.65 -0.4 -25.95 -1.45 Q-25.25 -1.85 -25.25 -0.95 -25.25 -0.7 -25.4 -0.4 L-24.4 -0.4 Q-24.35 -0.85 -23.9 -0.85 -23.2 -0.85 -23.15 -0.4 L-22.95 -0.4 Q-22.85 -1.2 -22.2 -1.5 -21.4 -1.75 -21.4 -0.6 L-21.4 -0.4 -20.75 -0.4 -20.75 -0.45 Q-20.75 -1.1 -20.2 -1.1 -19.6 -1.15 -19.6 -0.55 L-19.65 -0.4 -19.25 -0.4 Q-19.15 -0.85 -18.55 -0.75 -18.05 -0.7 -17.9 -0.4 L-16.2 -0.4 Q-16.15 -0.95 -15.55 -0.8 L-14.95 -0.4 -14.8 -0.4 Q-14.75 -1.05 -14.0 -1.15 -13.35 -1.3 -13.25 -0.5 -13.2 -0.8 -12.8 -0.8 -12.3 -0.8 -12.3 -0.45 L-12.3 -0.4 -11.45 -0.4 Q-11.35 -0.95 -10.7 -0.75 L-10.1 -0.5 Q-10.0 -1.1 -9.3 -1.5 -8.5 -1.95 -8.5 -0.95 L-8.55 -0.4 -7.2 -0.4 -6.85 -0.5 -6.45 -0.4 -5.75 -0.4 Q-5.55 -0.65 -4.95 -0.7 -4.2 -0.8 -4.1 -0.35 L-3.65 -0.35 -3.5 -0.75 Q-3.25 -1.2 -2.8 -1.2 L-2.25 -0.8 Q-2.2 -1.2 -1.75 -1.15 L-1.25 -0.7 -0.85 -0.85 Q-0.3 -0.85 -0.3 -0.4 L-0.3 -0.25 -0.05 -0.25 Q0.0 -1.3 0.7 -0.95" fill="#55a901" fill-rule="evenodd" stroke="none"/>
    <path d="M-71.45 23.65 L-71.0 23.7 -70.4 23.65 Q-69.6 23.65 -69.6 23.95 L-69.65 24.0 Q-69.2 24.15 -69.2 24.3 L-69.3 24.55 -68.6 24.55 Q-68.05 24.65 -68.05 24.85 -68.05 25.15 -68.75 25.15 L-68.8 25.15 Q-68.2 25.25 -68.2 25.45 L-68.8 25.95 -68.8 26.0 -68.95 26.2 -68.8 26.35 -69.2 26.5 -69.5 26.55 -71.15 26.65 -71.65 26.55 -72.0 26.55 Q-71.55 26.6 -71.55 26.8 -71.55 27.1 -72.3 27.1 -73.1 27.1 -73.1 26.75 L-73.0 26.55 -72.65 26.55 -73.05 26.45 -73.85 26.55 -74.65 26.35 -75.3 25.9 -75.25 25.7 -75.55 25.4 -75.25 25.1 Q-75.1 24.0 -74.15 23.9 -74.0 23.65 -73.35 23.6 L-71.45 23.65 M-19.0 21.8 Q-17.6 20.1 -16.7 20.1 L-16.0 20.15 Q-15.8 19.85 -15.2 19.6 -14.25 19.25 -14.25 20.4 L-14.3 20.9 -14.7 21.35 -14.65 21.7 -15.0 22.3 -15.3 22.9 -15.25 24.25 Q-15.45 25.55 -16.8 25.55 L-17.6 25.55 Q-18.05 25.95 -18.65 25.95 -19.65 25.95 -19.9 24.85 -20.3 24.45 -20.3 23.9 L-20.25 23.6 -20.55 22.95 Q-20.55 22.35 -19.7 22.2 L-19.3 22.2 -19.0 21.8 M-12.45 14.3 L-12.6 14.8 -12.75 15.2 -12.6 15.6 -12.85 15.95 -13.1 16.3 -12.8 16.95 Q-12.7 17.55 -13.55 17.55 L-13.75 17.55 -13.8 17.8 -14.05 17.95 Q-13.9 18.1 -13.9 18.4 -13.9 19.05 -14.55 19.05 L-15.0 18.85 -15.25 18.4 Q-15.25 17.75 -14.65 17.75 L-14.75 17.25 -14.65 16.7 -14.8 16.6 -14.95 16.6 Q-15.65 16.6 -16.35 15.75 L-16.9 14.7 -16.9 14.3 -16.9 14.2 Q-16.75 13.1 -16.0 13.75 L-14.65 13.65 -12.6 13.9 Q-12.45 14.0 -12.45 14.3" fill="#55a901" fill-rule="evenodd" stroke="none"/>
  </g>
  <defs>
    <linearGradient gradientTransform="matrix(-0.015, 0.0, 0.0, 0.0181, -235.2, 20.95)" gradientUnits="userSpaceOnUse" id="gradient0" spreadMethod="pad" x1="-819.2" x2="819.2">
      <stop offset="0.0" stop-color="#866635"/>
      <stop offset="1.0" stop-color="#a0793f"/>
    </linearGradient>
    <linearGradient gradientTransform="matrix(-0.0201, -0.0027, -0.0028, 0.0212, -222.25, 23.85)" gradientUnits="userSpaceOnUse" id="gradient1" spreadMethod="pad" x1="-819.2" x2="819.2">
      <stop offset="0.0" stop-color="#ab7e3d"/>
      <stop offset="1.0" stop-color="#d1b07e"/>
    </linearGradient>
    <linearGradient gradientTransform="matrix(-0.042, -0.0123, -0.0071, 0.0242, -113.0, 21.5)" gradientUnits="userSpaceOnUse" id="gradient2" spreadMethod="pad" x1="-819.2" x2="819.2">
      <stop offset="0.0" stop-color="#ab7e3d"/>
      <stop offset="1.0" stop-color="#d1b07e"/>
    </linearGradient>
  </defs>
</svg>
