<?xml version="1.0" encoding="UTF-8" standalone="no"?>
<svg xmlns:xlink="http://www.w3.org/1999/xlink" height="155.65px" width="221.25px" xmlns="http://www.w3.org/2000/svg">
  <g transform="matrix(1.0, 0.0, 0.0, 1.0, 128.8, 86.35)">
    <path d="M91.9 -31.15 Q93.7 -18.9 89.5 -6.9 85.45 4.55 76.7 13.75 58.7 32.65 33.6 28.7 25.8 27.45 18.15 24.1 L12.15 20.95 27.5 68.7 -18.1 69.3 -18.3 69.3 -63.9 68.7 -48.2 20.95 Q-57.2 26.75 -69.85 28.7 -95.1 32.65 -113.05 13.75 -121.85 4.55 -125.9 -6.9 -130.05 -18.9 -128.3 -31.15 -124.35 -59.25 -92.45 -79.0 -64.15 -96.5 -37.7 -72.35 -25.5 -61.25 -18.2 -47.2 -10.8 -61.25 1.35 -72.35 27.8 -96.5 56.05 -79.0 87.95 -59.25 91.9 -31.15" fill="#bf7926" fill-rule="evenodd" stroke="none"/>
  </g>
</svg>
