<?xml version="1.0" encoding="UTF-8" standalone="no"?>
<svg xmlns:xlink="http://www.w3.org/1999/xlink" height="143.9px" width="749.35px" xmlns="http://www.w3.org/2000/svg">
  <g transform="matrix(1.0, 0.0, 0.0, 1.0, 2.0, 2.0)">
    <path d="M745.35 0.0 L744.05 27.05 735.7 33.5 744.7 43.2 744.7 110.25 733.75 116.05 744.05 119.9 745.35 138.6 672.5 139.9 666.05 132.15 660.25 138.6 346.85 139.9 344.3 131.55 336.55 138.6 1.3 138.6 1.25 128.95 7.05 125.1 2.55 120.55 0.0 85.75 8.35 79.95 2.55 71.55 1.95 4.5 Q1.95 4.9 37.4 4.1 L72.85 3.2 78.65 8.35 84.45 0.0 214.05 1.95 217.9 12.25 224.35 1.3 627.35 1.95 635.75 7.1 640.9 0.65 745.35 0.0" fill="#d7be68" fill-rule="evenodd" stroke="none"/>
    <path d="M745.35 0.0 L640.9 0.65 635.75 7.1 627.35 1.95 224.35 1.3 217.9 12.25 214.05 1.95 84.45 0.0 78.65 8.35 72.85 3.2 37.4 4.1 Q1.95 4.9 1.95 4.5 L2.55 71.55 8.35 79.95 0.0 85.75 2.55 120.55 7.05 125.1 1.25 128.95 1.3 138.6 336.55 138.6 344.3 131.55 346.85 139.9 660.25 138.6 666.05 132.15 672.5 139.9 745.35 138.6 744.05 119.9 733.75 116.05 744.7 110.25 744.7 43.2 735.7 33.5 744.05 27.05 745.35 0.0 Z" fill="none" stroke="#5d3c16" stroke-linecap="round" stroke-linejoin="round" stroke-width="4.0"/>
    <path d="M745.35 0.0 L744.05 27.05 735.7 33.5 744.7 43.2 744.7 110.25 733.75 116.05 744.05 119.9 745.35 138.6 672.5 139.9 666.05 132.15 660.25 138.6 346.85 139.9 344.3 131.55 336.55 138.6 1.3 138.6 1.25 128.95 7.05 125.1 2.55 120.55 0.0 85.75 8.35 79.95 2.55 71.55 1.95 4.5 Q1.95 4.9 37.4 4.1 L72.85 3.2 78.65 8.35 84.45 0.0 214.05 1.95 217.9 12.25 224.35 1.3 627.35 1.95 635.75 7.1 640.9 0.65 745.35 0.0" fill="#d7be68" fill-rule="evenodd" stroke="none"/>
  </g>
</svg>
