<?xml version="1.0" encoding="UTF-8" standalone="no"?>
<svg xmlns:xlink="http://www.w3.org/1999/xlink" height="2.65px" width="6.55px" xmlns="http://www.w3.org/2000/svg">
  <g transform="matrix(1.0, 0.0, 0.0, 1.0, 3.25, 1.3)">
    <path d="M2.05 -1.2 L2.65 -1.3 2.85 -1.1 2.55 -0.75 2.3 -0.55 2.5 -0.65 3.1 -0.7 3.3 -0.55 3.05 -0.2 2.4 0.4 Q1.6 1.0 1.0 1.2 L-1.45 1.1 -3.25 0.65 -1.3 -0.7 -0.7 -0.95 -0.15 -1.05 0.1 -0.85 0.0 -0.75 0.1 -0.85 0.7 -1.15 1.3 -1.2 1.5 -1.05 1.4 -0.85 1.45 -0.9 2.05 -1.2" fill="#ffffff" fill-rule="evenodd" stroke="none"/>
    <path d="M0.3 -0.8 L0.9 -0.8 0.95 -0.5 0.95 -0.35 1.6 -0.65 2.15 -0.6 2.3 -0.3 1.9 0.1 1.55 0.35 1.75 0.3 2.35 0.3 2.45 0.45 2.45 0.4 2.4 0.4 Q1.6 1.0 1.0 1.2 L-1.45 1.1 -3.25 0.65 -1.3 -0.7 -0.7 -0.95 -0.6 -0.95 -0.55 -0.95 -0.4 -0.65 -0.55 -0.45 -0.35 -0.55 0.3 -0.8" fill="#41261b" fill-rule="evenodd" stroke="none"/>
  </g>
</svg>
