<?xml version="1.0" encoding="UTF-8" standalone="no"?>
<svg xmlns:xlink="http://www.w3.org/1999/xlink" height="206.9px" width="265.95px" xmlns="http://www.w3.org/2000/svg">
  <g transform="matrix(1.0, 0.0, 0.0, 1.0, 137.9, 178.2)">
    <path d="M53.2 -24.85 Q60.0 -24.85 64.8 -20.05 69.6 -15.25 69.6 -8.45 69.6 -1.7 64.8 3.1 60.0 7.9 53.2 7.9 46.45 7.9 41.65 3.1 36.85 -1.7 36.85 -8.5 36.85 -15.25 41.65 -20.05 46.45 -24.85 53.2 -24.85 M-64.6 -24.85 Q-57.8 -24.85 -53.0 -20.05 -48.2 -15.25 -48.2 -8.45 -48.2 -1.7 -53.0 3.1 -57.8 7.9 -64.6 7.9 -71.35 7.9 -76.15 3.1 -80.95 -1.7 -80.95 -8.5 -80.95 -15.25 -76.15 -20.05 -71.35 -24.85 -64.6 -24.85" fill="#000000" fill-rule="evenodd" stroke="none"/>
    <path d="M109.6 -72.2 Q111.35 -60.85 113.3 -56.9 117.8 -47.55 122.3 -33.55 127.6 -16.9 128.05 -7.15 125.25 4.55 113.75 16.25 107.45 22.65 99.0 28.7 L104.8 -17.75 Q79.3 -22.6 47.05 -25.35 L-5.15 -27.8 -57.1 -25.35 Q-89.15 -22.6 -114.65 -17.75 L-108.85 28.7 Q-117.3 22.65 -123.65 16.25 -135.1 4.55 -137.9 -7.15 -137.45 -16.9 -132.15 -33.55 -127.65 -47.55 -123.15 -56.9 -121.2 -60.85 -119.45 -72.2 L-115.8 -95.4 Q-109.5 -129.3 -94.25 -151.05 -85.0 -164.25 -58.65 -171.65 -34.7 -178.35 -5.15 -178.2 24.7 -178.4 48.8 -171.65 75.15 -164.25 84.4 -151.05 99.6 -129.3 105.9 -95.4 L109.6 -72.2" fill="#7cb421" fill-rule="evenodd" stroke="none"/>
  </g>
</svg>
