<?xml version="1.0" encoding="UTF-8" standalone="no"?>
<svg xmlns:xlink="http://www.w3.org/1999/xlink" height="11.4px" width="7.25px" xmlns="http://www.w3.org/2000/svg">
  <g transform="matrix(1.0, 0.0, 0.0, 1.0, 2.65, -0.4)">
    <path d="M2.1 1.9 Q2.1 1.5 2.4 1.2 2.7 0.9 3.1 0.9 3.5 0.9 3.8 1.2 L4.1 1.9 4.05 10.3 3.75 11.0 3.05 11.3 Q2.65 11.3 2.35 11.0 2.05 10.7 2.05 10.3 L2.1 1.9" fill="#666666" fill-rule="evenodd" stroke="none"/>
    <path d="M2.1 1.9 L2.05 10.3 Q2.05 10.7 2.35 11.0 2.65 11.3 3.05 11.3 L3.75 11.0 4.05 10.3 4.1 1.9 3.8 1.2 Q3.5 0.9 3.1 0.9 2.7 0.9 2.4 1.2 2.1 1.5 2.1 1.9 Z" fill="none" stroke="#000000" stroke-linecap="round" stroke-linejoin="round" stroke-width="1.0"/>
    <path d="M2.1 1.9 Q2.1 1.5 2.4 1.2 2.7 0.9 3.1 0.9 3.5 0.9 3.8 1.2 L4.1 1.9 4.05 10.3 3.75 11.0 3.05 11.3 Q2.65 11.3 2.35 11.0 2.05 10.7 2.05 10.3 L2.1 1.9" fill="#666666" fill-rule="evenodd" stroke="none"/>
    <path d="M-2.1 1.9 L-1.8 1.2 Q-1.5 0.9 -1.1 0.9 -0.7 0.9 -0.4 1.2 -0.1 1.5 -0.1 1.9 L-0.15 10.3 Q-0.15 10.7 -0.45 11.0 -0.75 11.3 -1.15 11.3 L-1.85 11.0 -2.15 10.3 -2.1 1.9" fill="#666666" fill-rule="evenodd" stroke="none"/>
    <path d="M-2.1 1.9 L-2.15 10.3 -1.85 11.0 -1.15 11.3 Q-0.75 11.3 -0.45 11.0 -0.15 10.7 -0.15 10.3 L-0.1 1.9 Q-0.1 1.5 -0.4 1.2 -0.7 0.9 -1.1 0.9 -1.5 0.9 -1.8 1.2 L-2.1 1.9 Z" fill="none" stroke="#000000" stroke-linecap="round" stroke-linejoin="round" stroke-width="1.0"/>
    <path d="M-2.1 1.9 L-1.8 1.2 Q-1.5 0.9 -1.1 0.9 -0.7 0.9 -0.4 1.2 -0.1 1.5 -0.1 1.9 L-0.15 10.3 Q-0.15 10.7 -0.45 11.0 -0.75 11.3 -1.15 11.3 L-1.85 11.0 -2.15 10.3 -2.1 1.9" fill="#666666" fill-rule="evenodd" stroke="none"/>
  </g>
</svg>
