<?xml version="1.0" encoding="UTF-8" standalone="no"?>
<svg xmlns:xlink="http://www.w3.org/1999/xlink" height="69.0px" width="77.85px" xmlns="http://www.w3.org/2000/svg">
  <g transform="matrix(1.0, 0.0, 0.0, 1.0, 49.85, 56.9)">
    <path d="M26.2 -32.85 Q27.0 -32.85 27.0 -32.05 L26.65 -31.4 Q26.4 -31.15 26.15 -31.15 25.35 -31.15 25.35 -32.15 25.35 -32.8 26.2 -32.85 M21.1 -26.0 L20.9 -25.4 20.4 -25.3 19.95 -25.35 19.75 -25.55 19.9 -26.15 Q20.15 -26.6 21.0 -26.65 L21.1 -26.0 M22.55 -28.75 L22.05 -28.35 Q21.55 -29.0 21.55 -29.15 21.55 -29.65 22.2 -29.85 22.8 -30.0 22.8 -29.35 L22.55 -28.75 M17.65 -41.4 Q17.65 -40.35 16.8 -40.35 L16.4 -40.45 16.0 -40.55 15.95 -40.75 15.85 -41.25 Q15.85 -42.15 16.75 -42.2 17.65 -42.25 17.65 -41.4 M15.55 -38.2 Q15.9 -38.9 16.9 -39.25 18.4 -39.8 18.4 -38.5 L17.65 -37.4 Q16.85 -36.5 16.35 -36.35 L15.85 -35.8 14.65 -34.75 Q14.1 -34.75 13.75 -35.35 L13.55 -36.05 Q13.55 -37.35 15.3 -38.1 L15.55 -38.2 M8.8 -37.35 Q8.4 -36.75 7.8 -36.6 L7.8 -36.5 7.35 -35.5 6.5 -34.5 Q6.3 -34.7 6.3 -35.25 L6.65 -36.25 7.0 -36.9 6.5 -37.8 6.15 -39.0 Q6.15 -40.35 7.7 -40.3 9.25 -40.25 9.25 -38.65 L8.8 -37.35 M6.4 -32.0 L5.75 -31.75 5.6 -32.05 Q5.6 -32.5 5.9 -32.8 6.15 -33.1 6.5 -33.15 L6.4 -32.0 M1.85 -33.65 Q1.85 -35.0 3.45 -35.8 5.0 -36.55 5.0 -34.8 5.0 -34.4 4.1 -33.45 3.0 -32.4 2.75 -31.75 1.85 -32.9 1.85 -33.65 M2.75 -31.3 L2.8 -30.85 2.35 -29.3 1.8 -27.9 1.65 -28.0 1.95 -29.9 Q2.0 -31.25 2.6 -31.5 L2.75 -31.3 M3.9 -29.4 Q4.65 -29.3 4.65 -28.6 L4.4 -27.7 Q3.15 -23.5 2.25 -23.5 L2.0 -23.5 Q1.75 -23.3 1.55 -23.25 L1.45 -23.35 1.25 -22.9 1.05 -22.55 1.1 -22.5 1.35 -21.85 Q1.35 -21.3 0.4 -20.75 L0.1 -20.9 -0.05 -21.5 0.0 -22.55 0.55 -23.45 0.95 -23.8 0.85 -23.9 Q0.85 -24.3 1.35 -24.95 L1.6 -25.75 1.8 -26.65 Q1.8 -27.4 3.15 -28.65 3.2 -29.5 3.9 -29.4 M4.85 -30.35 L5.5 -30.25 5.0 -29.5 4.8 -29.5 4.75 -29.9 4.75 -30.25 4.85 -30.35 M12.5 -33.0 Q12.5 -34.45 13.9 -34.0 L14.0 -33.5 Q14.0 -33.05 13.0 -32.5 L12.6 -32.6 Q12.5 -32.65 12.5 -33.0 M11.85 -31.75 Q11.85 -32.45 13.0 -32.35 L13.1 -32.0 12.25 -31.25 11.95 -31.3 Q11.85 -31.35 11.85 -31.75 M15.6 -22.05 L16.25 -22.85 16.3 -22.85 Q16.75 -23.2 17.45 -23.35 19.4 -23.8 19.4 -22.25 19.4 -21.85 18.1 -20.55 L16.6 -19.35 16.35 -19.35 16.35 -19.1 15.8 -18.05 15.0 -17.15 14.65 -17.25 14.65 -18.4 15.15 -19.0 16.0 -19.55 Q15.65 -19.8 15.55 -20.4 15.45 -20.9 15.5 -21.5 L15.6 -22.05 M11.75 -20.15 L11.05 -18.25 Q10.3 -16.8 10.05 -16.8 9.4 -16.8 9.15 -17.75 L9.1 -18.2 9.9 -19.35 10.55 -21.15 Q11.75 -21.5 11.75 -20.15 M13.35 -16.15 L13.5 -15.75 Q13.5 -15.35 12.3 -13.65 L11.65 -13.6 11.6 -13.5 Q11.5 -13.5 11.5 -13.9 11.5 -14.55 11.95 -15.3 L13.0 -16.25 13.35 -16.15 M20.15 -15.4 Q20.15 -14.9 17.05 -11.1 16.6 -11.1 16.4 -11.35 15.95 -10.9 15.5 -10.7 L15.5 -10.65 15.0 -9.9 14.35 -9.3 13.75 -9.5 13.75 -9.7 Q13.75 -10.25 14.15 -10.65 14.6 -11.05 15.3 -11.1 L15.4 -11.15 15.95 -12.25 16.15 -12.55 Q16.3 -14.95 18.15 -16.3 20.15 -17.75 20.15 -15.4 M3.6 -21.75 L3.25 -20.9 Q2.9 -20.4 2.5 -20.4 L2.0 -20.45 1.8 -20.65 1.75 -21.2 Q1.75 -22.15 2.7 -22.55 3.6 -22.95 3.6 -21.75 M0.0 -20.0 L-0.05 -20.0 -0.1 -20.2 Q0.05 -20.8 0.25 -20.8 0.45 -20.45 0.0 -20.0 M4.35 -16.7 Q4.2 -16.35 4.2 -15.7 L4.4 -14.7 4.5 -13.8 4.25 -12.85 4.05 -12.9 3.35 -12.95 3.15 -14.95 Q3.15 -16.2 4.35 -16.7 M1.4 -13.9 Q0.75 -12.75 -0.65 -12.75 -1.7 -12.75 -1.75 -13.45 L-1.9 -12.9 -1.95 -12.7 Q-0.9 -12.2 -0.65 -11.1 L-0.9 -9.65 -0.9 -9.6 -1.0 -9.5 Q-1.35 -10.95 -2.5 -9.65 L-3.0 -10.55 -3.15 -11.05 Q-3.25 -10.5 -3.7 -10.35 L-4.8 -10.5 -4.95 -10.45 -5.3 -10.85 -5.4 -11.35 Q-5.4 -12.45 -4.25 -12.45 -3.6 -12.45 -3.3 -12.05 -3.25 -13.05 -2.45 -12.9 -2.25 -13.9 -1.85 -14.05 L-1.75 -14.05 -1.75 -13.8 0.05 -16.55 Q1.8 -18.6 1.8 -15.1 L1.4 -13.9 M8.3 -17.75 L8.7 -17.9 9.15 -17.3 Q8.25 -15.9 7.6 -15.6 L7.9 -16.9 8.3 -17.75 M9.2 -9.8 Q9.05 -9.85 9.05 -10.25 9.05 -10.6 9.85 -11.35 10.6 -12.1 11.0 -12.1 11.25 -12.4 11.25 -11.75 L10.55 -10.7 9.6 -9.75 9.2 -9.8 M2.7 -5.15 L2.7 -4.9 2.3 -4.85 2.25 -4.85 Q1.1 -4.85 0.6 -5.4 2.0 -5.4 2.8 -5.8 L2.7 -5.15 M2.8 -10.25 L3.45 -9.7 2.9 -9.0 Q2.5 -9.15 2.5 -9.75 L2.8 -10.25 M6.5 -8.45 L6.5 -8.4 6.1 -8.7 6.4 -9.25 6.5 -8.45 M1.5 -4.8 L0.65 -4.0 0.55 -4.1 0.95 -4.55 1.5 -4.8 M1.45 -0.95 L1.5 0.35 1.7 1.15 Q-1.0 5.8 -2.0 6.8 L-2.2 6.35 -2.25 6.5 -2.65 6.55 -2.75 6.35 -0.75 4.25 -0.2 3.8 Q0.3 3.25 0.3 2.7 0.3 1.95 -0.05 1.6 L1.3 -0.7 1.45 -0.95 M9.95 -4.0 L11.25 -4.0 11.4 -3.4 11.3 -2.8 10.55 -2.6 10.0 -2.65 9.85 -2.75 9.75 -3.45 9.75 -3.55 8.9 -3.25 8.75 -3.35 9.25 -4.05 9.85 -4.5 9.95 -4.0 M7.65 -6.1 Q7.65 -7.6 9.35 -8.2 L10.55 -8.25 10.55 -8.2 Q10.45 -7.85 10.7 -7.35 L10.95 -7.0 8.6 -4.75 Q8.05 -4.75 7.8 -5.4 L7.65 -6.1 M5.25 -3.5 L5.65 -3.85 Q6.0 -3.6 6.0 -3.0 6.0 -2.6 5.6 -2.2 L5.4 -2.0 5.25 -3.5 M11.55 -0.75 L12.75 -0.75 12.9 -0.15 Q12.9 0.4 12.75 0.25 L11.95 0.4 11.65 0.4 11.6 0.4 10.55 0.75 10.75 -0.35 Q10.95 -0.7 11.45 -0.7 L11.55 -0.75 M13.05 -1.75 Q13.05 -2.65 13.6 -3.4 14.05 -3.0 14.9 -3.0 16.55 -3.0 16.55 -4.65 L16.55 -5.2 Q17.35 -5.15 17.35 -3.75 17.35 -3.1 16.45 -2.0 15.35 -0.75 14.3 -0.75 13.65 -0.75 13.3 -1.25 L13.05 -1.75 M19.75 -5.65 Q19.35 -4.55 18.65 -4.55 L18.0 -4.7 Q17.85 -4.8 17.85 -5.2 L18.5 -5.8 Q19.15 -6.15 19.6 -6.15 19.75 -6.3 19.75 -5.65 M27.8 -20.35 Q28.0 -20.4 28.0 -19.75 L27.55 -19.15 27.45 -19.1 27.55 -18.65 Q27.55 -17.8 26.15 -17.35 L25.75 -17.5 Q25.6 -17.6 25.6 -18.0 L26.05 -18.55 26.75 -19.05 Q26.35 -19.2 26.35 -19.8 L26.65 -20.3 27.8 -20.35 M24.9 -16.4 Q24.6 -16.1 24.25 -16.05 L24.5 -16.55 Q24.75 -16.9 25.3 -16.85 L24.9 -16.4 M21.25 -12.7 L20.9 -12.75 Q21.3 -13.15 21.6 -13.0 21.5 -12.8 21.25 -12.7 M24.2 -11.0 Q25.5 -11.35 25.5 -9.65 25.5 -9.0 25.15 -8.75 L23.85 -8.5 23.6 -8.5 23.4 -8.3 22.0 -7.4 21.9 -7.3 21.85 -7.4 Q21.35 -6.55 20.75 -6.25 L20.55 -6.4 21.3 -7.15 21.8 -7.55 21.8 -7.7 Q21.8 -8.25 22.65 -8.8 L22.9 -8.95 22.9 -9.0 22.85 -9.55 Q22.85 -10.6 24.2 -11.0 M25.4 -0.1 L25.55 0.4 25.5 1.0 24.85 1.15 24.1 0.35 Q24.1 0.05 24.4 -0.15 L25.4 -0.1 M7.8 0.95 L6.9 1.25 Q5.95 1.25 5.75 0.65 L5.75 0.15 Q5.75 -1.15 6.6 -0.9 7.3 -0.65 8.05 0.4 L7.8 0.95 M8.15 2.7 L8.25 3.15 Q8.25 3.9 7.25 3.9 6.5 3.9 6.5 3.05 6.5 2.15 8.05 2.55 L8.15 2.7 M4.8 2.4 Q4.8 2.8 4.2 3.45 5.3 3.3 5.3 5.2 5.3 6.15 4.8 6.85 L4.05 7.55 3.5 7.75 2.6 7.85 Q1.9 7.85 1.25 7.25 L0.75 6.55 Q0.75 5.5 2.65 4.25 L2.25 3.7 Q2.25 2.4 4.65 1.85 L4.8 2.4 M2.15 11.3 L2.55 10.8 3.75 10.75 3.85 10.85 3.9 11.3 Q3.9 12.1 3.05 12.1 L2.35 12.0 Q2.15 11.9 2.15 11.3 M-15.55 -56.0 L-15.6 -55.35 -15.4 -54.65 -15.5 -54.15 -15.65 -53.85 -16.05 -53.9 Q-16.6 -52.85 -17.2 -52.85 -18.4 -52.85 -19.0 -53.65 L-19.3 -54.5 Q-19.3 -55.1 -17.4 -56.35 -15.55 -57.6 -15.55 -56.0 M-15.8 -52.8 L-15.0 -52.15 -14.9 -52.1 Q-13.75 -51.4 -13.75 -50.15 -13.75 -48.8 -14.55 -48.65 L-14.15 -47.3 -14.25 -46.8 -14.65 -46.6 -14.95 -47.05 -15.15 -47.8 -15.15 -47.85 -15.5 -47.6 -16.5 -49.4 -16.3 -49.9 -16.1 -49.9 -16.05 -50.55 -15.8 -52.0 -16.0 -52.25 -15.95 -52.7 -15.8 -52.8 M-49.8 -25.75 L-49.5 -25.75 -48.8 -25.2 -48.15 -24.55 -48.6 -24.3 -49.15 -24.7 -49.85 -25.1 -49.8 -25.75 M-41.85 -17.55 L-41.85 -18.05 Q-40.0 -18.05 -39.6 -17.25 L-39.65 -16.95 Q-39.65 -16.85 -40.0 -16.85 L-40.85 -17.1 Q-41.7 -17.35 -41.85 -17.55 M-41.55 -10.75 L-42.45 -10.55 Q-43.6 -10.55 -44.05 -11.35 L-44.3 -12.05 Q-44.3 -13.35 -42.65 -13.1 -41.0 -12.85 -41.0 -11.55 -41.0 -11.0 -41.55 -10.75 M-1.15 -45.3 Q-1.5 -45.55 -1.4 -46.15 -1.4 -47.5 -0.25 -48.0 0.85 -48.5 0.85 -46.8 0.85 -45.1 -0.4 -45.1 L-0.5 -45.1 Q-0.35 -44.9 -0.35 -44.55 L-0.55 -43.85 Q-0.8 -43.6 -1.1 -43.6 -1.8 -43.6 -1.8 -44.5 -1.8 -45.25 -1.15 -45.3 M-8.7 -38.1 Q-9.45 -38.1 -9.55 -38.4 L-9.55 -39.0 -9.5 -39.75 -8.25 -39.7 Q-7.8 -39.4 -7.8 -38.9 -7.8 -38.1 -8.7 -38.1 M-2.1 -40.65 L-2.25 -41.2 Q-2.25 -42.35 -1.1 -42.35 0.0 -42.35 0.0 -41.2 0.0 -40.05 -1.1 -40.05 -1.8 -40.05 -2.1 -40.65 M-14.85 -48.65 L-15.35 -48.75 -15.1 -48.05 -14.85 -48.65 M-14.15 -43.65 Q-14.15 -43.5 -14.3 -43.4 L-14.5 -44.45 -14.4 -45.55 -14.25 -45.55 Q-14.0 -44.7 -14.15 -43.65 M-19.95 -40.5 L-20.45 -39.4 -20.05 -38.95 Q-19.5 -38.2 -19.5 -37.8 -19.5 -37.45 -19.6 -37.5 L-19.5 -37.1 -19.5 -36.9 Q-18.55 -36.5 -18.55 -35.2 L-18.3 -34.1 Q-17.75 -33.55 -17.75 -32.5 -17.75 -31.6 -18.4 -31.6 -19.4 -31.6 -19.85 -32.6 L-20.1 -33.65 -19.95 -34.35 -20.6 -35.95 -20.45 -36.75 -23.2 -41.0 -25.85 -45.75 Q-25.85 -48.85 -22.6 -46.4 -19.4 -43.9 -19.4 -41.85 -19.4 -41.2 -19.95 -40.5 M-13.35 -40.85 L-14.0 -39.8 -14.15 -39.75 -14.95 -40.9 -15.25 -41.9 Q-15.25 -42.9 -14.05 -43.0 -12.9 -43.1 -12.9 -41.9 -12.9 -41.45 -13.35 -40.85 M-10.2 -35.9 L-10.2 -35.75 -10.05 -34.6 Q-9.6 -33.75 -8.1 -33.75 L-6.85 -33.95 -7.0 -33.8 -6.85 -31.15 -7.0 -30.65 -7.15 -30.5 -7.65 -30.4 -7.65 -30.45 Q-7.2 -31.15 -7.2 -32.05 -7.2 -33.75 -8.7 -33.75 L-9.65 -33.5 -9.95 -33.25 -10.25 -33.25 -10.35 -33.25 -11.3 -34.15 -11.3 -34.35 Q-11.3 -35.85 -10.2 -35.9 M-10.5 -25.95 Q-10.0 -25.95 -9.6 -25.25 L-9.7 -24.85 Q-9.85 -24.65 -10.25 -24.65 L-11.25 -25.3 Q-10.95 -25.95 -10.5 -25.95 M-9.35 -29.55 L-8.75 -29.65 -8.4 -27.25 -8.3 -27.3 -7.65 -26.7 -7.5 -26.4 -7.6 -25.9 -8.15 -25.65 -7.8 -23.5 -7.5 -21.8 Q-6.6 -21.45 -6.6 -20.5 -6.6 -19.95 -7.05 -19.25 L-7.1 -19.15 Q-6.5 -14.9 -6.5 -12.9 L-6.9 -13.15 -7.4 -17.6 -7.55 -18.65 Q-7.7 -18.55 -7.8 -18.5 -7.95 -19.75 -9.15 -20.45 -9.15 -22.0 -8.1 -21.9 L-9.35 -29.25 -9.35 -29.55 M-4.35 -25.85 Q-3.25 -25.85 -3.25 -24.7 -3.25 -22.9 -4.25 -22.9 -5.3 -22.9 -5.5 -24.8 -5.5 -25.85 -4.35 -25.85 M-38.25 -29.25 Q-38.25 -31.15 -34.8 -30.95 -31.4 -30.75 -31.4 -29.1 L-32.05 -26.9 Q-31.0 -26.15 -30.8 -24.15 L-30.4 -23.85 -30.35 -23.85 -30.3 -23.65 -29.3 -22.5 -29.2 -22.4 -29.6 -22.3 -30.0 -22.4 -30.05 -22.3 Q-30.4 -22.3 -30.75 -22.65 L-30.75 -22.9 -30.85 -23.0 -31.6 -24.0 -32.7 -24.3 -33.1 -24.75 Q-34.2 -24.85 -36.15 -26.55 -38.25 -28.3 -38.25 -29.25 M-31.15 -36.55 Q-31.15 -38.3 -29.8 -37.45 L-27.6 -35.65 -28.6 -34.65 Q-28.9 -34.3 -29.45 -34.3 -30.6 -34.3 -30.95 -35.4 L-31.15 -36.55 M-27.1 -32.0 L-27.5 -31.65 Q-28.1 -31.85 -28.2 -32.15 L-28.25 -32.65 -28.2 -33.15 -27.25 -33.25 -27.1 -32.0 M-27.65 -29.6 Q-24.15 -25.9 -20.55 -17.25 L-20.15 -16.35 -20.45 -16.4 -20.6 -16.7 Q-24.1 -24.7 -27.75 -29.35 L-27.65 -29.6 M-25.5 -29.25 L-25.0 -29.1 Q-25.0 -28.75 -25.35 -28.75 L-25.5 -29.25 M-24.75 -20.25 Q-26.35 -20.5 -26.35 -21.6 -26.35 -22.85 -25.35 -22.4 -24.35 -22.0 -24.3 -20.5 L-24.75 -20.25 M-29.5 -19.8 L-27.2 -16.35 -27.3 -16.35 -29.5 -19.75 -29.5 -19.8 M-29.05 -21.0 L-28.25 -20.35 -27.8 -19.55 -28.0 -19.4 -29.25 -21.0 -29.05 -21.0 M-25.05 -13.55 L-25.1 -14.35 Q-24.8 -14.95 -24.15 -15.0 L-23.8 -15.0 -24.0 -13.65 -23.55 -11.75 -23.3 -11.3 -23.55 -11.05 -23.3 -11.25 -22.55 -10.35 -22.6 -10.25 Q-23.75 -10.25 -24.0 -9.2 L-24.3 -10.0 -23.75 -10.85 -23.8 -10.9 -24.3 -10.8 Q-25.45 -10.8 -25.45 -12.2 -25.05 -12.8 -25.05 -13.55 M-39.0 -15.25 L-38.9 -15.75 Q-37.85 -16.2 -37.45 -15.45 L-37.0 -14.0 -36.9 -13.9 -37.3 -13.85 Q-37.65 -13.85 -38.2 -14.3 L-39.0 -15.25 M-33.8 -16.55 Q-35.1 -16.55 -35.6 -17.9 L-35.8 -19.1 Q-35.8 -20.65 -34.35 -19.9 -32.9 -19.15 -32.9 -17.5 -32.9 -17.1 -33.25 -16.8 -33.55 -16.55 -33.8 -16.55 M-20.9 -6.4 L-20.65 -6.35 -16.6 0.0 -16.75 0.05 -20.9 -6.4 M-24.45 -6.9 L-24.5 -7.3 -22.55 -5.25 -22.6 -5.1 -22.5 -5.05 -22.9 -5.0 Q-23.45 -5.0 -24.5 -5.95 L-24.4 -5.65 -24.75 -6.0 Q-24.45 -6.45 -24.45 -6.9 M-35.4 -5.05 Q-35.05 -4.2 -33.9 -4.2 L-33.05 -4.4 -32.95 -4.2 -34.1 -3.8 Q-35.4 -3.8 -35.85 -5.8 L-35.5 -6.3 -35.55 -5.9 -35.4 -5.05 M-34.25 -8.4 Q-33.7 -8.45 -33.3 -8.95 L-33.0 -9.4 -33.25 -8.85 Q-33.55 -8.4 -34.1 -8.4 L-34.25 -8.4 M-33.55 -7.35 L-33.65 -7.4 -33.75 -7.75 Q-33.75 -8.9 -32.3 -8.3 L-31.2 -7.65 -29.55 -7.55 -29.55 -7.5 Q-29.55 -6.8 -28.7 -6.15 L-28.4 -5.95 -28.4 -5.9 Q-28.4 -5.15 -29.2 -5.0 L-29.6 -5.0 Q-30.0 -5.95 -31.8 -7.0 -33.0 -7.7 -33.55 -7.35 M-30.65 -13.9 L-30.65 -13.75 -30.65 -13.65 -30.8 -13.9 -30.65 -13.9 M-25.9 -9.55 L-26.0 -9.25 -25.7 -8.65 -27.0 -9.35 -28.7 -9.55 -28.9 -9.95 -29.2 -11.2 -27.9 -10.95 -26.35 -11.35 Q-25.9 -10.6 -25.9 -9.55 M-25.95 -5.4 L-25.85 -5.4 -25.8 -5.1 -25.8 -5.0 -26.2 -4.9 Q-25.75 -4.65 -25.6 -4.1 L-25.45 -4.1 Q-24.3 -4.1 -24.3 -2.95 L-24.55 -2.25 Q-24.9 -1.75 -25.5 -1.75 -26.2 -1.75 -26.5 -2.4 L-26.6 -2.9 Q-28.1 -4.05 -28.1 -4.25 -28.1 -5.1 -27.4 -5.15 L-27.7 -5.65 -25.95 -5.4 M-23.5 -1.75 Q-22.3 -1.65 -21.85 -1.1 L-21.9 -0.6 -22.5 -0.3 -23.4 -0.6 -23.55 -1.4 -23.5 -1.75 M-2.6 -19.35 Q-2.85 -18.6 -3.3 -18.4 L-3.25 -17.1 -3.35 -16.95 -3.75 -16.85 -4.45 -17.15 -4.5 -17.25 -4.5 -17.75 -4.4 -18.35 -4.25 -18.45 Q-4.95 -18.85 -5.15 -20.0 -5.15 -21.65 -3.75 -22.2 -2.35 -22.75 -2.35 -20.75 L-2.6 -19.35 M-9.5 -22.5 Q-9.85 -22.05 -10.4 -22.05 -11.2 -22.05 -11.45 -22.65 L-11.55 -23.2 Q-11.55 -24.35 -10.4 -24.35 -9.25 -24.35 -9.25 -23.2 L-9.5 -22.5 M-9.6 -16.55 L-9.4 -16.55 -9.5 -16.25 -9.55 -16.05 -9.85 -16.0 -9.6 -16.55 M-3.35 -14.8 L-2.25 -16.85 -0.5 -19.0 Q-1.55 -17.25 -1.55 -16.55 -1.55 -16.2 -2.05 -15.15 -2.6 -14.0 -2.9 -13.9 -3.35 -14.2 -3.35 -14.8 M-3.75 -14.0 L-4.05 -14.0 -3.8 -14.3 -3.5 -14.8 -3.5 -14.65 -3.55 -14.15 -3.75 -14.0 M-16.4 -20.1 L-16.95 -20.05 Q-18.15 -20.15 -18.5 -21.75 -18.5 -23.15 -17.1 -23.05 -15.75 -23.0 -15.75 -21.3 -15.75 -20.85 -16.05 -20.45 L-16.4 -20.1 M-17.75 -19.75 Q-18.8 -19.2 -18.9 -17.7 -19.8 -18.0 -20.55 -20.25 -20.55 -21.8 -19.05 -21.0 -18.1 -20.45 -17.75 -19.75 M-12.75 -13.3 L-12.25 -13.25 -12.15 -12.3 -12.25 -11.35 Q-12.45 -10.8 -13.15 -10.8 L-13.5 -10.8 -13.5 -10.9 -13.65 -11.6 -13.35 -11.9 Q-12.8 -12.55 -12.75 -13.3 M-12.4 -10.0 L-12.3 -10.5 Q-11.35 -11.0 -10.55 -10.3 -10.05 -9.85 -9.9 -9.4 L-9.9 -9.75 -9.85 -10.1 -8.85 -9.9 -7.8 -9.95 -7.75 -9.35 Q-7.75 -8.0 -8.6 -8.0 -9.55 -8.0 -9.8 -9.0 L-9.85 -9.15 -9.85 -9.1 Q-9.85 -8.8 -10.1 -8.5 L-10.35 -8.25 -10.55 -7.9 Q-10.85 -7.5 -11.35 -7.5 -12.4 -7.5 -12.75 -8.0 L-12.8 -8.1 -12.9 -8.25 -12.9 -8.5 Q-12.9 -9.15 -12.15 -9.3 L-12.4 -10.0 M-6.75 -10.4 L-6.5 -10.6 -6.55 -8.25 -6.5 -8.25 -6.6 -7.25 -6.3 -6.15 -6.6 -6.05 -6.85 -6.0 -6.85 -6.05 -6.9 -6.05 Q-7.2 -6.65 -7.75 -6.9 -7.75 -8.1 -6.75 -8.2 L-6.75 -10.4 M-1.2 -6.75 L-1.05 -6.2 -0.9 -5.95 Q-1.25 -4.5 -2.0 -4.5 L-2.1 -4.5 -1.2 -6.75 M-14.6 -3.05 L-14.05 -3.15 -13.25 -2.15 -14.6 -3.05 M-17.7 -5.2 L-17.6 -4.85 Q-16.9 -3.1 -15.2 -3.05 L-13.65 -0.25 -13.9 0.15 -14.4 0.25 -16.1 -2.0 -17.75 -4.8 -17.7 -5.2 M-20.25 -6.35 L-20.15 -6.35 -19.7 -6.35 -15.6 -0.45 -15.0 0.45 -15.35 0.7 -15.65 0.6 -20.25 -6.35 M-18.25 -11.8 L-18.05 -11.6 -16.95 -9.1 -17.15 -8.95 -18.3 -11.5 -18.25 -11.8 M-17.0 -10.35 Q-16.6 -9.7 -15.9 -9.45 L-16.9 -9.15 -17.3 -10.0 -17.75 -11.25 -17.75 -11.4 -17.4 -11.2 -17.0 -10.35 M-12.35 -7.55 L-12.65 -7.65 -12.75 -7.9 -12.35 -7.55 M-14.45 -9.4 L-14.0 -9.75 -14.0 -9.7 -14.05 -9.3 -14.45 -9.4 M-6.1 -5.65 L-5.4 -4.8 -5.85 -3.95 -6.25 -4.95 -6.1 -5.65 M-7.1 5.0 L-7.2 5.4 -7.05 6.2 -7.0 6.3 -7.6 7.45 -8.85 6.25 -7.65 5.2 -7.1 5.0 M-2.55 -0.25 L-3.0 -0.95 -3.2 -2.15 -2.6 -3.45 -1.9 -3.4 Q-0.6 -3.15 -0.6 -2.45 L-1.0 -1.15 -1.35 -0.5 -2.25 -0.35 -2.55 -0.25 M-9.75 5.4 L-9.0 6.15 -10.45 5.2 -10.4 5.1 -9.4 5.25 -9.0 5.4 -8.45 5.3 -8.4 5.3 Q-8.7 5.5 -9.15 5.5 L-9.75 5.4 M-0.9 8.55 L-1.0 9.05 -1.55 9.25 -2.05 9.05 -2.15 8.5 Q-2.15 7.6 -1.0 7.85 L-0.9 8.55 M-3.45 7.35 L-3.25 7.9 -3.4 8.55 Q-3.95 8.25 -4.7 8.25 L-3.6 7.2 -3.45 7.35 M-15.8 5.9 L-15.35 5.75 -14.8 6.45 -14.9 6.55 Q-15.2 6.9 -15.65 6.9 L-16.1 6.85 -15.8 5.9 M-18.8 0.85 Q-18.7 -0.85 -17.2 0.4 L-17.15 0.45 Q-18.15 0.45 -18.8 0.85 M-21.0 5.15 L-21.0 5.2 Q-21.05 5.95 -20.7 6.65 L-19.8 7.75 Q-20.1 8.05 -20.5 8.0 L-22.75 8.0 -24.1 6.55 -25.0 5.05 Q-25.0 3.25 -22.25 4.5 L-21.0 5.15" fill="#000000" fill-rule="evenodd" stroke="none"/>
  </g>
</svg>
