<?xml version="1.0" encoding="UTF-8" standalone="no"?>
<svg xmlns:xlink="http://www.w3.org/1999/xlink" height="35.25px" width="39.85px" xmlns="http://www.w3.org/2000/svg">
  <g transform="matrix(1.0, 0.0, 0.0, 1.0, -21.45, -32.6)">
    <path d="M60.9 35.1 L61.1 35.7 61.1 35.9 60.9 37.9 61.1 39.8 61.25 42.4 61.25 43.1 61.25 43.15 61.05 44.3 Q60.8 44.95 60.8 45.8 L60.95 47.5 61.2 49.2 61.25 51.0 61.25 51.75 61.25 52.85 61.1 54.85 60.9 57.05 Q60.9 57.95 61.25 58.95 L61.25 61.45 Q60.9 62.65 60.9 63.35 L61.2 65.7 59.5 66.75 57.45 67.75 57.25 67.85 52.2 67.85 51.65 67.6 50.25 67.85 45.55 67.85 43.4 67.35 Q41.15 66.95 41.1 67.85 L39.95 67.85 37.9 67.6 33.75 67.6 33.4 67.65 33.0 67.65 32.75 67.6 29.3 67.25 26.25 67.5 25.65 67.5 24.25 66.9 23.4 66.7 Q22.15 65.3 22.15 64.0 L22.35 62.9 22.5 61.85 22.3 60.2 22.15 59.5 22.25 54.55 22.05 52.05 21.85 49.45 21.8 46.95 21.45 46.1 21.45 42.9 Q21.7 41.9 21.55 40.15 L21.5 39.05 21.75 37.1 21.8 37.05 22.05 36.45 Q22.3 35.7 22.9 34.65 L23.4 33.75 24.1 33.05 25.2 32.8 25.6 32.6 29.1 32.6 29.9 32.9 32.1 33.1 33.2 33.05 35.25 33.05 35.95 33.2 37.2 33.35 42.25 33.25 45.65 32.85 49.2 32.85 50.1 33.05 51.6 33.2 52.8 32.95 54.15 32.7 57.8 33.05 58.2 33.25 58.7 33.35 59.25 33.6 59.9 34.05 Q60.6 34.5 60.9 35.1" fill="#ecd26f" fill-rule="evenodd" stroke="none"/>
    <path d="M61.0 39.05 L59.75 39.8 57.4 41.2 Q55.1 42.75 53.15 44.55 51.3 46.3 48.65 46.95 47.9 47.05 47.3 47.5 L44.65 49.3 45.05 48.95 Q46.8 47.3 49.15 46.55 L51.45 45.55 Q53.95 44.05 55.95 42.0 L56.35 41.65 60.95 38.75 61.0 38.75 61.0 39.05 M60.85 42.8 L60.15 43.65 58.15 44.85 55.9 45.75 Q54.75 46.25 53.85 47.05 L53.6 47.35 53.55 47.4 53.4 47.4 53.35 47.4 Q54.1 46.45 55.2 45.8 56.35 45.1 57.7 44.85 L58.9 44.35 60.5 42.95 Q60.65 42.8 60.85 42.8 M59.65 34.7 Q57.7 36.45 55.2 37.35 52.4 38.35 50.15 40.3 47.9 42.35 45.15 43.5 L43.3 44.15 Q40.75 44.95 38.95 46.6 L39.05 46.45 Q39.9 45.25 41.55 44.7 44.35 43.85 46.8 42.45 L48.3 41.5 Q50.95 39.35 53.95 37.75 L54.7 37.4 Q57.75 36.25 60.1 34.15 L60.2 34.25 59.65 34.7 M56.2 33.2 Q55.2 33.95 53.95 34.25 52.7 34.5 51.65 35.15 50.65 35.75 50.05 36.65 50.2 35.9 50.95 35.35 51.9 34.6 53.1 34.3 54.4 34.0 55.4 33.3 L56.35 32.75 57.0 32.85 56.7 32.95 56.2 33.2 M48.15 33.05 L47.5 33.45 Q47.2 33.7 46.8 33.65 L47.3 33.35 48.1 32.9 48.2 32.85 48.5 32.85 48.15 33.05 M52.6 41.65 Q54.35 39.95 56.55 38.85 59.0 37.7 61.1 36.1 L60.25 36.8 Q58.4 38.3 56.15 39.45 54.0 40.6 52.2 42.1 49.15 44.65 45.1 45.9 44.1 46.2 43.2 46.8 L38.5 50.1 Q37.15 51.05 35.6 51.6 33.65 52.35 32.75 54.15 32.6 54.5 32.3 54.4 33.65 51.7 36.85 50.7 38.4 50.25 39.55 49.3 L42.25 47.25 Q45.15 45.35 48.45 44.15 50.85 43.3 52.6 41.65 M59.8 47.0 L59.35 47.1 60.05 46.8 60.85 46.45 60.85 46.6 Q61.0 46.5 61.2 46.45 L59.8 47.0 M57.0 48.55 L55.7 49.95 Q53.65 52.0 51.1 53.55 49.45 54.6 47.55 55.15 45.85 55.7 44.55 56.65 46.05 55.2 48.3 54.55 52.4 53.35 55.0 50.3 56.0 49.15 57.25 48.35 L57.0 48.55 M50.85 56.05 L44.75 60.55 Q41.5 62.75 37.8 64.25 L36.25 65.2 33.75 67.6 33.45 67.65 Q35.75 64.9 39.35 63.35 44.4 61.2 48.25 57.65 50.1 55.9 52.7 55.25 57.45 54.05 60.25 50.4 L61.2 49.3 61.2 49.6 60.5 50.45 Q57.15 54.55 51.6 55.75 L50.85 56.05 M53.45 57.5 L55.7 56.45 58.85 53.9 61.25 51.95 61.25 52.1 Q60.75 52.4 60.35 52.75 L58.6 54.25 57.05 55.85 Q54.35 57.75 51.0 58.8 50.55 58.95 50.2 59.25 47.25 61.5 43.8 63.1 41.25 64.25 39.25 66.15 L37.65 67.6 37.35 67.6 39.1 65.95 Q40.7 64.6 42.6 63.65 L45.9 61.75 50.8 58.7 Q52.0 57.95 53.45 57.5 M55.95 58.7 Q52.6 61.05 48.65 62.4 46.45 63.15 44.8 64.6 42.8 66.4 40.7 67.85 L40.5 67.85 45.85 63.75 Q48.15 62.0 51.1 61.05 54.55 59.95 57.15 57.75 L59.25 56.05 61.1 54.7 61.1 54.85 61.1 54.95 57.7 57.55 55.95 58.7 M61.1 58.3 L59.15 59.7 Q56.45 61.8 53.05 62.85 51.9 63.2 50.85 63.7 50.0 64.1 49.2 64.6 L48.6 64.95 48.35 65.1 48.25 65.2 48.3 65.15 46.1 66.55 44.55 67.6 45.95 66.55 47.65 65.45 48.75 64.7 49.0 64.5 49.55 64.05 50.7 63.05 50.1 63.8 Q51.15 63.2 52.5 62.9 55.7 62.05 58.2 60.1 L61.0 58.05 61.1 58.3 M42.75 35.3 L44.9 33.85 Q42.35 36.35 38.3 37.05 38.0 37.1 37.75 37.3 34.8 39.8 30.95 41.1 L29.5 41.7 27.3 43.2 Q25.1 45.25 22.05 46.25 L21.65 46.45 21.55 46.25 Q23.2 45.1 25.35 44.45 L26.4 43.85 Q28.0 42.05 30.35 41.3 34.2 40.1 37.2 37.6 39.0 36.05 41.65 35.75 L42.75 35.3 M46.65 36.05 Q44.75 37.7 41.85 38.65 40.85 38.9 40.05 39.5 L36.9 41.4 34.5 42.4 Q31.6 43.3 29.3 45.0 L27.95 46.15 Q26.0 48.25 23.0 49.05 22.5 49.2 22.0 49.5 L21.85 49.6 21.85 49.45 21.85 49.35 22.45 49.05 26.2 47.3 27.45 46.3 Q29.55 43.7 33.05 42.75 L34.25 42.35 Q35.9 41.85 37.3 41.0 L40.4 39.15 Q42.65 37.9 45.05 36.8 L46.65 36.05 M33.65 36.6 Q30.95 37.65 28.4 39.0 27.95 39.25 27.65 39.55 L27.8 39.35 Q28.65 38.3 30.15 37.85 33.35 36.8 36.05 35.15 L38.45 33.7 Q36.5 35.55 33.65 36.6 M38.35 43.15 L32.6 46.8 Q31.0 47.75 29.1 48.35 28.25 48.6 27.65 49.25 26.2 50.9 24.15 51.9 L22.45 52.7 21.85 53.05 22.15 52.85 22.15 52.5 Q23.15 51.9 24.55 51.6 L25.3 51.2 27.85 48.9 Q29.6 47.55 31.85 47.0 L32.95 46.5 Q35.75 44.65 38.55 42.9 39.65 42.2 40.9 41.8 L41.4 41.65 40.65 42.05 Q39.95 42.5 39.15 42.75 L38.35 43.15 M31.95 33.1 L32.1 33.1 32.45 33.1 31.7 33.6 30.55 34.5 Q28.7 35.75 26.6 36.6 24.6 37.45 23.2 38.75 24.25 37.3 26.4 36.45 28.75 35.55 30.65 34.05 L31.95 33.1 M28.95 32.6 L29.1 32.6 29.25 32.65 Q27.2 33.2 25.95 34.65 L24.2 36.0 Q22.9 36.55 21.75 37.25 L21.75 37.1 21.8 37.05 21.95 36.75 22.25 36.65 Q24.05 36.1 25.45 34.85 L27.2 33.4 Q27.7 33.0 28.35 32.8 L28.95 32.6 M25.4 32.65 L24.55 33.2 22.8 34.25 23.25 34.0 23.4 33.75 23.6 33.55 24.35 33.05 24.85 32.75 24.5 33.0 25.1 32.85 25.4 32.65 M24.25 41.5 Q26.0 41.05 27.25 39.95 25.4 41.85 22.55 42.5 L21.45 42.95 21.45 42.9 21.5 42.8 Q22.6 41.9 24.25 41.5 M30.35 52.55 L29.75 53.3 Q30.55 51.25 33.1 50.5 L34.55 50.0 31.25 51.8 30.35 52.55 M25.05 55.25 L26.7 54.65 25.45 55.3 Q24.8 55.5 24.15 55.8 L22.95 56.5 Q22.5 56.85 22.35 57.3 22.15 57.0 22.5 56.65 23.0 56.15 23.65 55.85 L25.05 55.25 M24.85 58.4 Q26.7 57.25 29.0 56.95 29.7 56.85 30.2 56.5 L31.45 55.55 Q31.6 55.5 31.6 55.65 L31.55 55.8 31.4 55.9 31.25 56.0 31.2 56.0 Q29.85 57.35 27.85 57.5 26.3 57.65 25.15 58.4 L23.0 60.1 22.4 60.75 22.35 60.45 23.1 59.7 24.85 58.4 M41.65 51.35 L40.7 51.8 Q38.65 52.35 37.05 53.4 L38.2 52.6 Q38.75 52.2 39.45 52.05 L42.3 50.9 41.65 51.35 M36.75 48.85 L36.25 49.1 37.65 48.05 37.55 48.15 36.75 48.85 M34.6 55.45 L33.85 55.85 35.65 54.45 34.6 55.45 M36.35 58.55 Q33.95 60.2 31.15 61.1 29.85 61.5 29.15 62.5 27.3 65.2 24.7 66.9 26.95 65.05 28.75 62.7 30.1 60.9 32.5 60.2 35.8 59.2 38.0 56.75 39.3 55.35 41.0 54.3 41.65 53.85 42.45 53.55 46.5 52.05 50.0 49.55 46.85 52.2 42.65 53.65 39.9 54.6 38.25 56.75 37.4 57.8 36.35 58.55 M40.9 60.0 Q37.75 62.35 33.95 64.0 L33.85 64.1 34.2 63.7 Q34.8 63.1 35.6 62.8 39.25 61.35 42.15 58.95 L40.9 60.0 M30.65 67.3 L30.35 67.25 30.05 67.5 33.05 64.8 30.65 67.3 M24.7 62.35 L26.15 61.5 27.35 60.65 27.95 60.1 Q27.65 60.8 26.85 61.25 L25.5 62.1 24.1 63.0 23.0 63.5 24.7 62.35 M60.8 64.65 Q58.95 65.3 57.55 66.55 L55.7 67.85 55.35 67.85 56.25 67.3 56.8 66.9 Q58.15 65.6 60.05 64.85 L61.05 64.45 61.05 64.55 61.3 64.45 60.8 64.65 M60.9 63.4 L56.65 65.0 Q55.6 65.35 54.8 66.15 L52.6 67.85 52.25 67.85 54.05 66.55 Q55.2 65.6 56.5 64.95 58.25 64.1 60.15 63.55 L60.9 63.3 60.9 63.35 60.9 63.4 M61.25 61.45 L59.95 62.15 Q58.25 63.15 56.3 63.65 54.0 64.25 52.2 65.55 53.6 64.45 55.5 63.8 L59.6 62.25 61.25 61.4 61.25 61.45 M49.1 67.85 L50.35 67.05 49.2 67.85 49.1 67.85 M42.9 40.75 Q45.45 38.7 48.55 37.4 L42.9 40.75" fill="#dab42e" fill-rule="evenodd" stroke="none"/>
  </g>
</svg>
