<?xml version="1.0" encoding="UTF-8" standalone="no"?>
<svg xmlns:xlink="http://www.w3.org/1999/xlink" height="97.05px" width="319.3px" xmlns="http://www.w3.org/2000/svg">
  <g transform="matrix(1.0, 0.0, 0.0, 1.0, 161.5, 94.75)">
    <path d="M83.05 -83.4 Q104.55 -91.9 116.0 -93.9 131.6 -96.6 141.15 -90.65 153.3 -83.2 156.65 -74.35 160.75 -63.55 150.4 -52.95 122.55 -24.95 5.05 -6.85 L4.9 -6.85 3.6 -6.65 3.45 -6.6 Q-114.2 11.4 -149.1 -7.0 -162.2 -14.0 -161.45 -25.55 -160.95 -35.0 -151.55 -45.75 -144.2 -54.3 -128.5 -56.4 -116.95 -57.9 -93.95 -56.25 L-50.65 -53.35 Q-24.0 -52.3 -3.95 -55.3 L-3.5 -55.35 -2.5 -55.5 Q17.4 -58.65 42.7 -67.65 L83.05 -83.4" fill="#000000" fill-opacity="0.2" fill-rule="evenodd" stroke="none"/>
  </g>
</svg>
