<?xml version="1.0" encoding="UTF-8" standalone="no"?>
<svg xmlns:xlink="http://www.w3.org/1999/xlink" height="6.6px" width="5.6px" xmlns="http://www.w3.org/2000/svg">
  <g transform="matrix(1.0, 0.0, 0.0, 1.0, 2.75, 3.3)">
    <path d="M-2.25 -1.05 Q-2.25 -1.85 -1.5 -1.85 L-0.7 -1.85 0.05 -2.8 0.85 -1.85 1.55 -1.85 Q2.35 -1.85 2.35 -1.05 L2.35 2.0 Q2.35 2.8 1.55 2.8 L-1.5 2.8 Q-2.25 2.8 -2.25 2.0 L-2.25 -1.05" fill="#cb5b16" fill-rule="evenodd" stroke="none"/>
    <path d="M-2.25 -1.05 L-2.25 2.0 Q-2.25 2.8 -1.5 2.8 L1.55 2.8 Q2.35 2.8 2.35 2.0 L2.35 -1.05 Q2.35 -1.85 1.55 -1.85 L0.85 -1.85 0.05 -2.8 -0.7 -1.85 -1.5 -1.85 Q-2.25 -1.85 -2.25 -1.05 Z" fill="none" stroke="#cb5b16" stroke-linecap="round" stroke-linejoin="round" stroke-width="1.0"/>
    <path d="M1.55 -1.8 Q2.35 -1.8 2.35 -1.0 L2.35 2.05 Q2.35 2.8 1.55 2.8 L-1.5 2.8 Q-2.25 2.8 -2.25 2.05 L-2.25 -1.0 Q-2.25 -1.8 -1.5 -1.8 L1.55 -1.8" fill="#ff9e2c" fill-rule="evenodd" stroke="none"/>
    <path d="M0.05 -1.2 L2.15 -0.7 2.35 -0.55 2.35 1.75 2.15 1.9 0.05 2.4 Q-1.2 2.4 -2.05 1.9 L-2.25 1.75 -2.25 -0.55 -2.05 -0.7 Q-1.2 -1.2 0.05 -1.2" fill="#000000" fill-opacity="0.3019608" fill-rule="evenodd" stroke="none"/>
    <path d="M-1.95 0.9 L-1.15 -0.95 Q-0.3 -2.8 0.05 -2.8 0.4 -2.8 1.25 -0.95 L2.05 0.9 Q-0.05 2.55 -1.95 0.9" fill="#e08923" fill-rule="evenodd" stroke="none"/>
    <path d="M0.05 -2.8 L0.35 -2.6 0.85 -0.85 1.35 1.35 Q0.05 2.0 -1.2 1.35 L-0.7 -0.85 -0.25 -2.6 0.05 -2.8" fill="#ff9e2c" fill-rule="evenodd" stroke="none"/>
    <path d="M-1.3 -0.6 Q0.05 0.15 1.45 -0.6 L1.7 -0.05 Q0.0 1.05 -1.6 -0.05 L-1.3 -0.6" fill="#d9d9d9" fill-rule="evenodd" stroke="none"/>
    <path d="M-0.8 -0.35 L-1.0 0.3 -1.6 -0.05 -1.3 -0.6 -0.8 -0.35 M1.45 -0.6 L1.7 -0.05 1.1 0.25 0.95 -0.4 1.45 -0.6" fill="#c4c4c4" fill-rule="evenodd" stroke="none"/>
  </g>
</svg>
