<?xml version="1.0" encoding="UTF-8" standalone="no"?>
<svg xmlns:xlink="http://www.w3.org/1999/xlink" height="16.2px" width="32.65px" xmlns="http://www.w3.org/2000/svg">
  <g transform="matrix(1.0, 0.0, 0.0, 1.0, 0.0, 0.0)">
    <path d="M32.1 3.65 Q32.65 4.85 32.65 6.2 L32.55 7.4 Q31.9 11.1 27.15 13.7 22.55 16.2 18.25 16.2 L11.4 15.55 Q7.0 14.85 3.3 12.35 0.0 10.15 0.0 8.9 L0.05 8.6 Q0.25 7.95 1.5 7.6 3.0 7.2 3.0 7.0 3.0 6.75 2.2 5.8 L1.25 4.75 2.2 4.75 3.1 5.6 Q3.4 6.05 4.0 6.05 4.4 6.05 4.75 5.7 4.3 5.55 3.75 4.55 3.15 3.55 3.15 2.85 3.15 1.85 3.8 1.25 4.4 0.65 5.7 0.2 L7.6 0.2 7.6 0.3 6.8 1.35 Q6.25 2.35 6.25 3.0 6.25 3.85 6.9 3.85 L8.85 3.2 Q10.35 2.4 10.35 1.15 10.35 0.8 10.0 0.5 L9.35 0.1 9.5 0.1 Q12.4 0.8 12.25 3.05 12.1 4.15 12.3 4.5 12.6 5.1 14.0 5.1 L16.05 4.7 Q18.1 4.05 18.1 2.4 L17.8 1.25 17.95 1.25 Q19.4 1.45 20.7 1.95 21.1 2.1 21.55 3.2 L22.05 4.25 22.05 4.15 Q21.35 3.3 22.25 1.75 23.25 0.1 25.2 0.0 L25.2 0.1 24.6 2.4 24.15 4.45 24.4 5.1 24.8 5.4 Q25.2 5.4 25.65 5.0 26.3 4.4 26.3 3.5 L26.15 2.85 25.35 2.15 28.4 3.05 28.55 2.95 Q29.5 2.35 30.6 2.35 31.5 2.35 32.1 3.65" fill="#ffffff" fill-rule="evenodd" stroke="none"/>
  </g>
</svg>
