<?xml version="1.0" encoding="UTF-8" standalone="no"?>
<svg xmlns:xlink="http://www.w3.org/1999/xlink" height="25.75px" width="21.8px" xmlns="http://www.w3.org/2000/svg">
  <g transform="matrix(1.0, 0.0, 0.0, 1.0, 10.35, 12.4)">
    <path d="M2.45 -12.4 Q6.3 -12.5 9.1 -8.25 11.45 -4.6 11.45 0.45 11.45 5.6 9.1 9.25 6.3 13.45 2.45 13.35 L-0.4 13.3 -1.35 13.35 Q-5.25 13.45 -8.05 9.25 -10.35 5.6 -10.35 0.45 -10.35 -4.6 -8.05 -8.2 L-8.05 -8.25 Q-5.25 -12.5 -1.35 -12.4 L-0.4 -12.3 2.45 -12.4" fill="#423200" fill-rule="evenodd" stroke="none"/>
    <path d="M-0.4 10.6 L-1.3 10.7 Q-4.0 10.7 -6.0 7.7 -7.85 4.7 -7.85 0.45 -7.85 -3.8 -6.0 -6.8 -4.0 -9.8 -1.3 -9.8 L-0.45 -9.7 Q1.7 -9.3 3.35 -6.8 5.25 -3.8 5.25 0.45 5.25 4.7 3.35 7.7 1.75 10.2 -0.4 10.6 M-4.8 -5.05 Q-6.25 -2.75 -6.25 0.45 -6.25 3.65 -4.8 6.0 -3.4 8.2 -1.3 8.2 0.75 8.2 2.2 6.0 3.65 3.65 3.65 0.45 3.65 -2.75 2.2 -5.05 0.75 -7.3 -1.3 -7.3 -3.4 -7.3 -4.8 -5.05" fill="url(#gradient0)" fill-rule="evenodd" stroke="none"/>
    <path d="M-2.05 -6.6 L-2.3 -6.6 -2.6 -6.45 -2.7 -6.05 -2.6 -5.3 Q-3.25 -4.8 -3.55 -3.95 L-3.8 -2.3 -3.25 -0.8 -2.4 0.4 -1.55 1.55 -1.05 2.6 -1.15 3.4 Q-1.3 3.8 -1.55 3.8 L-1.8 3.8 -2.05 3.6 -2.25 3.15 -2.4 2.55 -2.6 2.0 -2.85 2.0 Q-3.25 2.05 -3.4 2.8 L-3.5 4.15 Q-3.4 5.4 -2.8 6.05 -2.15 6.75 -1.25 6.6 L-1.15 7.45 -0.85 7.75 -0.55 7.55 -0.4 7.15 -0.5 6.3 0.45 5.1 0.8 4.0 0.75 2.3 0.2 0.55 Q-0.2 -0.35 -0.65 -0.7 L-1.4 -1.65 -1.85 -2.6 -1.8 -3.35 -1.4 -3.75 -1.05 -3.7 -0.7 -3.65 Q-0.4 -3.75 -0.5 -4.6 -0.65 -5.95 -1.7 -5.65 L-1.8 -5.65 -1.9 -6.35 -2.05 -6.6 M-4.8 -5.05 Q-3.4 -7.3 -1.3 -7.3 0.75 -7.3 2.2 -5.05 3.65 -2.75 3.65 0.45 3.65 3.65 2.2 6.0 0.75 8.2 -1.3 8.2 -3.4 8.2 -4.8 6.0 -6.25 3.65 -6.25 0.45 -6.25 -2.75 -4.8 -5.05" fill="#ffcc33" fill-rule="evenodd" stroke="none"/>
    <path d="M-0.45 -9.7 L2.35 -9.8 Q5.0 -9.8 7.0 -6.8 8.9 -3.8 8.9 0.45 8.9 4.7 7.0 7.7 5.0 10.7 2.35 10.7 L-0.2 10.65 -0.4 10.6 Q1.75 10.2 3.35 7.7 5.25 4.7 5.25 0.45 5.25 -3.8 3.35 -6.8 1.7 -9.3 -0.45 -9.7 M-2.05 -6.6 L-1.9 -6.35 -1.8 -5.65 -1.7 -5.65 Q-0.65 -5.95 -0.5 -4.6 -0.4 -3.75 -0.7 -3.65 L-1.05 -3.7 -1.4 -3.75 -1.8 -3.35 -1.85 -2.6 -1.4 -1.65 -0.65 -0.7 Q-0.2 -0.35 0.2 0.55 L0.75 2.3 0.8 4.0 0.45 5.1 -0.5 6.3 -0.4 7.15 -0.55 7.55 -0.85 7.75 -1.15 7.45 -1.25 6.6 Q-2.15 6.75 -2.8 6.05 -3.4 5.4 -3.5 4.15 L-3.4 2.8 Q-3.25 2.05 -2.85 2.0 L-2.6 2.0 -2.4 2.55 -2.25 3.15 -2.05 3.6 -1.8 3.8 -1.55 3.8 Q-1.3 3.8 -1.15 3.4 L-1.05 2.6 -1.55 1.55 -2.4 0.4 -3.25 -0.8 -3.8 -2.3 -3.55 -3.95 Q-3.25 -4.8 -2.6 -5.3 L-2.7 -6.05 -2.6 -6.45 -2.3 -6.6 -2.05 -6.6" fill="#ce9b00" fill-rule="evenodd" stroke="none"/>
  </g>
  <defs>
    <linearGradient gradientTransform="matrix(-0.0072, -0.0175, -0.0067, 0.0068, -0.3, 4.0)" gradientUnits="userSpaceOnUse" id="gradient0" spreadMethod="pad" x1="-819.2" x2="819.2">
      <stop offset="0.0" stop-color="#ffcc33"/>
      <stop offset="1.0" stop-color="#ffe9a4"/>
    </linearGradient>
  </defs>
</svg>
