<?xml version="1.0" encoding="UTF-8" standalone="no"?>
<svg xmlns:xlink="http://www.w3.org/1999/xlink" height="82.05px" width="64.0px" xmlns="http://www.w3.org/2000/svg">
  <g transform="matrix(1.0, 0.0, 0.0, 1.0, 0.0, 18.05)">
    <path d="M55.55 59.05 L55.4 59.0 55.95 59.0 55.95 59.05 55.55 59.05 M20.2 54.55 Q19.35 54.55 19.2 55.4 L19.2 55.5 19.0 55.5 19.0 55.55 18.85 55.55 18.7 55.6 18.6 55.6 18.5 55.65 18.35 55.75 18.25 55.85 18.2 55.9 18.1 56.0 18.05 56.05 17.85 56.0 15.45 56.05 Q14.95 56.15 14.75 56.65 L14.7 56.9 14.7 57.2 14.8 57.55 14.95 57.8 15.0 57.85 15.45 58.1 16.25 58.3 16.2 58.3 15.8 58.4 15.6 58.4 15.4 58.5 15.25 58.55 14.95 58.7 14.75 58.85 14.65 58.95 14.5 58.75 14.55 58.65 14.45 58.2 14.2 57.7 13.8 57.4 13.35 57.25 Q12.9 57.35 12.5 57.6 L11.45 58.4 Q11.05 58.85 11.05 59.45 L11.15 60.1 9.9 60.9 Q9.45 61.3 9.8 61.7 10.9 63.1 12.8 62.5 L12.9 62.5 13.25 62.85 13.95 63.2 14.7 63.4 15.35 63.5 15.6 63.55 16.05 63.6 17.7 63.9 17.7 63.95 17.7 64.0 0.0 64.0 0.0 0.0 64.0 0.0 64.0 64.0 60.15 64.0 60.85 63.95 Q62.05 63.85 62.95 63.25 63.85 62.65 63.15 61.8 L63.05 61.7 63.1 61.3 62.95 60.95 62.7 60.65 62.15 60.4 59.3 60.45 58.85 60.45 58.35 60.55 57.0 60.55 57.0 60.45 57.05 60.4 57.05 60.3 57.05 60.2 57.05 60.15 57.05 60.05 57.0 60.0 57.0 59.9 57.0 59.8 56.95 59.75 56.9 59.65 56.85 59.6 56.8 59.5 57.75 58.75 Q58.65 57.55 57.3 57.1 55.75 56.55 54.1 56.55 L47.65 56.45 Q48.15 56.3 48.3 55.75 48.4 55.4 48.15 55.2 46.0 53.55 42.95 53.85 L35.55 54.6 20.2 54.55" fill="#e9c572" fill-opacity="0.0" fill-rule="evenodd" stroke="none"/>
    <path d="M61.25 13.85 L61.25 14.05 61.2 14.2 61.05 14.55 60.75 14.8 60.05 15.2 59.85 15.15 59.85 15.5 59.7 15.65 59.55 15.5 Q59.4 15.25 59.6 15.1 L59.65 15.1 59.6 15.0 59.35 14.85 59.1 14.55 58.95 14.2 58.95 13.85 59.0 13.7 59.05 13.55 59.1 13.5 58.95 13.45 58.75 13.3 58.75 13.2 58.7 13.15 58.7 13.05 58.7 13.0 58.75 12.9 58.75 12.85 58.85 12.75 58.95 12.7 59.15 12.65 59.15 12.6 59.35 12.7 59.45 12.75 59.55 12.9 59.6 13.05 59.6 13.1 Q59.7 12.95 59.9 12.9 L60.05 12.95 60.05 12.9 60.55 13.05 60.8 13.2 61.05 13.55 61.25 13.85 M62.0 18.45 Q62.4 18.6 62.35 19.1 62.35 19.45 62.0 19.5 61.5 19.5 61.5 19.1 61.45 18.55 62.0 18.5 L62.0 18.45 M61.85 16.55 L61.65 16.8 61.25 16.55 Q61.1 16.3 61.45 16.25 L61.45 16.2 61.85 16.55 M56.2 0.3 L56.15 0.35 55.7 0.4 56.2 0.3 M21.45 5.95 L21.4 6.0 21.35 6.15 21.2 6.35 21.35 6.4 21.45 6.45 21.5 6.55 21.55 6.5 21.6 6.45 21.65 6.4 21.8 6.4 21.95 6.45 22.05 6.5 22.15 6.65 22.15 6.7 25.65 6.55 28.25 6.55 28.25 5.95 28.3 5.9 28.4 5.8 28.5 5.75 28.7 5.7 28.9 5.7 28.95 5.7 29.0 5.65 29.0 5.6 29.0 5.5 29.05 5.45 29.1 5.35 29.2 5.25 29.3 5.25 29.45 5.2 Q30.25 5.15 30.85 5.65 L30.9 5.6 31.0 5.6 31.15 5.65 31.25 5.7 31.35 5.75 31.45 5.9 31.45 6.0 31.55 6.05 31.6 6.1 31.7 6.2 31.75 6.3 32.0 6.2 32.2 6.1 32.4 6.15 32.6 6.2 32.65 6.2 32.7 6.1 32.95 5.95 33.05 5.95 33.2 6.0 33.3 6.05 33.35 6.15 33.4 6.2 33.35 6.3 33.35 6.4 33.3 6.45 33.25 6.5 33.15 6.6 34.3 6.6 34.3 6.45 34.3 6.25 34.35 6.2 34.45 6.15 34.55 6.1 34.7 6.05 34.85 6.1 34.95 6.2 35.05 6.25 35.1 6.4 35.1 6.5 35.1 6.6 35.55 6.6 35.55 6.55 35.55 6.45 35.6 6.4 35.6 6.3 35.65 6.25 35.95 6.1 36.15 6.05 36.65 6.1 36.8 6.1 36.9 6.2 36.95 6.25 37.0 6.35 37.05 6.45 37.1 6.5 37.1 6.6 37.1 6.65 39.95 6.7 39.95 6.65 39.9 6.6 39.9 6.5 39.9 6.45 39.9 6.35 39.95 6.3 40.0 6.2 40.05 6.1 39.9 6.05 39.6 5.95 39.5 5.9 39.45 5.85 39.4 5.75 39.4 5.7 39.45 5.55 39.55 5.4 39.65 5.35 40.05 5.25 41.0 5.2 41.55 5.25 42.05 5.35 42.55 5.4 Q42.85 5.45 43.0 5.7 L43.05 5.75 43.6 5.7 43.9 5.7 44.1 5.75 44.2 5.8 44.3 5.9 44.3 5.95 44.35 6.05 44.35 6.1 44.35 6.2 44.35 6.25 44.35 6.35 44.3 6.45 44.25 6.5 44.15 6.55 44.0 6.65 44.0 6.75 44.45 6.75 44.45 6.65 44.45 6.6 44.5 6.5 44.5 6.45 44.6 6.35 44.7 6.3 44.9 6.25 44.9 6.2 45.15 6.25 45.45 6.3 45.6 6.35 45.8 6.55 45.85 6.65 46.0 6.5 46.1 6.45 46.25 6.4 46.4 6.5 46.5 6.55 46.55 6.45 46.65 6.4 46.7 6.35 46.75 6.3 46.9 6.25 47.0 6.3 47.15 6.35 47.25 6.4 47.35 6.55 47.35 6.65 47.35 6.7 47.35 6.8 47.35 6.85 50.2 6.9 50.2 6.8 49.7 6.4 49.65 6.0 Q49.9 5.5 50.45 5.45 L50.95 5.4 51.2 5.5 51.35 5.6 51.55 5.8 51.6 6.0 51.6 6.1 52.0 6.45 Q52.25 6.3 52.45 6.3 52.55 6.15 52.75 6.15 L53.25 6.45 53.5 6.4 Q54.15 6.5 54.2 7.0 L54.6 7.0 54.5 6.7 Q54.55 6.3 54.9 6.2 L55.2 6.15 55.6 6.35 55.8 6.75 55.9 7.1 56.1 7.25 56.2 7.2 56.4 7.25 56.5 7.3 56.6 7.45 56.65 7.6 56.65 7.7 56.5 7.9 56.2 8.05 56.1 8.2 56.0 8.25 55.95 8.3 55.8 8.3 55.75 8.3 55.65 8.3 55.7 8.35 55.75 8.4 55.75 8.55 55.7 8.7 55.7 8.9 56.15 8.65 56.35 8.7 56.35 8.55 56.4 8.45 56.5 8.4 56.6 8.4 56.6 8.35 56.8 8.5 56.85 8.75 56.6 8.85 56.7 9.2 Q56.7 9.65 56.15 9.65 L56.05 9.65 Q56.35 9.95 56.25 10.3 L56.1 11.0 56.15 11.0 56.55 11.45 56.55 11.5 56.6 11.6 56.65 11.75 56.6 11.8 56.6 11.9 56.55 11.95 56.5 12.05 56.3 12.45 56.4 12.45 56.6 12.5 56.7 12.55 56.85 12.65 57.0 12.8 57.05 12.95 57.05 13.1 57.0 13.4 56.65 13.85 56.55 13.9 56.6 13.95 56.6 14.0 56.65 13.9 56.8 13.85 57.0 13.8 57.4 14.0 57.5 14.45 57.45 14.55 Q57.8 14.6 57.95 14.85 L58.2 14.9 58.3 14.95 58.3 14.9 58.55 14.75 58.65 14.7 58.8 14.8 58.9 14.85 59.0 15.0 59.05 15.15 59.05 15.25 59.0 15.3 58.95 15.4 58.85 15.45 58.8 15.5 58.55 15.55 58.45 15.5 58.5 15.9 58.65 15.9 58.75 16.0 58.8 16.15 58.85 16.3 58.85 16.35 58.8 16.45 58.65 16.6 58.75 16.55 58.95 16.5 58.95 16.45 59.15 16.55 59.25 16.6 59.3 16.75 59.4 16.9 59.35 17.0 59.25 17.2 58.9 17.35 59.0 17.5 58.95 17.75 58.9 17.8 58.9 17.9 58.8 17.95 58.9 18.0 59.0 18.05 59.05 18.15 59.05 18.3 59.1 18.35 59.05 18.45 58.95 18.55 58.85 18.65 59.0 21.4 59.25 21.3 59.65 21.65 59.85 21.75 60.1 21.95 60.35 22.25 60.55 22.6 60.55 22.8 60.45 23.1 60.1 23.65 59.9 23.8 59.85 23.9 59.85 24.05 60.0 24.35 59.95 24.8 59.8 25.05 59.8 25.1 59.7 25.3 59.65 25.3 59.2 25.65 59.0 25.6 59.0 25.75 59.1 25.7 59.1 25.65 59.25 25.75 59.35 25.8 59.4 25.9 59.5 26.05 59.5 26.1 59.5 26.2 59.45 26.35 59.2 26.55 59.25 26.6 59.3 26.65 59.3 26.7 59.3 26.8 59.3 26.85 59.25 26.95 59.25 27.0 59.4 26.9 59.7 26.85 59.8 26.85 Q60.15 26.95 60.05 27.4 L59.8 27.9 Q59.7 28.15 59.4 28.0 L59.3 28.0 59.25 28.25 59.0 28.45 58.95 28.5 58.95 29.2 59.15 29.1 59.4 29.25 59.6 29.3 59.55 29.25 59.45 29.2 59.45 29.1 59.4 28.95 59.4 28.8 59.45 28.7 59.5 28.65 59.6 28.6 59.8 28.55 59.8 28.5 59.95 28.6 60.05 28.65 60.1 28.7 60.15 28.8 60.15 28.85 60.15 29.05 60.05 29.25 59.8 29.4 59.85 29.4 60.0 29.55 60.1 29.7 60.1 29.95 60.1 30.0 60.05 30.05 59.8 30.15 59.45 30.1 59.35 30.1 58.9 30.15 58.9 30.3 58.95 30.25 59.05 30.25 59.2 30.3 59.3 30.4 59.4 30.45 59.4 30.5 59.55 30.7 59.45 30.95 59.25 31.2 59.05 31.25 58.9 31.2 58.9 32.4 59.1 32.25 59.05 31.95 59.15 31.65 Q59.3 31.3 59.7 31.25 L59.7 31.2 59.9 31.3 60.0 31.35 60.05 31.45 60.1 31.5 60.1 31.55 60.15 31.55 60.2 31.6 60.3 31.7 60.3 31.8 60.3 31.95 60.45 32.05 60.65 32.35 60.7 32.6 60.65 32.75 60.5 33.05 60.55 33.05 60.65 33.1 60.9 33.2 61.05 33.35 61.1 33.45 60.85 33.75 59.8 33.85 59.2 33.6 59.15 33.5 59.1 33.35 59.1 33.15 59.1 33.1 58.9 33.05 58.9 33.55 58.9 34.55 59.15 34.45 59.25 34.45 Q59.65 34.7 59.6 35.15 L59.35 35.55 59.55 35.95 Q59.55 36.25 59.2 36.35 L58.95 36.5 58.95 37.0 59.05 37.05 59.25 37.25 59.3 37.4 59.35 37.55 59.3 37.65 59.35 37.65 59.55 37.75 59.65 37.85 59.75 38.1 59.8 38.15 59.8 38.2 59.75 38.3 59.75 38.35 59.7 38.4 59.6 38.5 59.45 38.6 59.15 38.55 58.95 38.45 58.95 38.9 59.15 38.7 59.65 38.95 Q59.95 39.1 59.85 39.35 L59.55 39.85 59.75 40.1 Q59.95 40.6 59.35 40.7 L58.95 40.65 59.0 43.0 59.0 43.5 Q59.35 43.55 59.55 43.9 59.75 44.4 59.15 44.45 L59.05 44.45 59.0 45.95 59.4 46.1 59.7 46.25 59.75 46.1 59.75 46.0 59.75 45.85 59.85 45.7 60.0 45.5 60.05 45.5 60.35 45.2 61.05 44.9 61.1 44.8 61.5 45.0 61.8 45.15 62.05 45.45 62.2 45.85 62.2 46.0 62.2 46.15 62.05 46.55 61.8 46.8 61.1 47.1 60.55 47.0 60.35 46.85 60.15 46.65 60.05 46.7 60.1 46.9 60.1 47.05 60.1 47.25 59.95 47.6 59.7 47.85 59.0 48.25 58.75 48.2 58.75 48.5 58.85 48.4 59.15 48.25 59.55 48.55 59.65 49.05 59.4 49.25 58.9 49.25 58.65 49.1 58.6 49.45 58.7 49.45 58.75 49.45 59.0 49.35 59.0 49.3 59.4 49.65 59.55 50.1 59.15 50.4 59.1 50.45 58.7 50.7 58.0 50.65 57.9 50.7 Q57.45 51.1 57.15 50.6 L57.05 50.3 56.8 50.55 56.35 50.65 56.05 50.55 56.0 50.65 55.95 50.85 55.95 51.25 55.6 51.4 Q55.3 51.35 55.4 51.05 L55.45 50.9 54.15 50.85 54.1 50.85 53.85 51.1 53.5 51.15 53.45 51.05 53.4 50.85 53.4 50.7 52.7 50.75 52.6 51.25 52.25 51.65 52.25 51.75 52.35 51.85 52.45 51.9 52.6 51.95 52.7 52.1 52.75 52.2 52.25 52.55 51.7 52.3 51.55 51.95 51.55 51.9 Q50.7 51.95 50.1 51.45 L49.95 51.75 49.8 51.9 49.65 51.9 49.4 51.75 49.2 51.4 49.3 51.3 49.2 51.3 48.95 51.1 48.9 50.9 48.95 50.85 49.0 50.8 49.05 50.75 49.15 50.7 49.2 50.7 48.9 50.5 48.85 50.65 48.5 51.05 48.35 51.05 48.15 51.0 48.05 50.85 48.0 50.8 47.95 50.7 47.95 50.65 47.95 50.55 47.9 50.4 47.9 50.3 47.9 50.25 47.85 50.1 47.7 50.05 47.45 50.05 47.25 50.0 47.15 49.9 46.95 49.75 46.85 49.6 46.3 49.5 46.3 49.55 46.25 49.65 46.1 49.75 45.8 49.85 45.85 50.0 45.85 50.05 45.9 50.0 46.1 49.85 46.45 49.8 46.55 49.8 46.75 49.8 46.95 49.9 47.15 50.05 47.25 50.3 47.05 50.55 46.95 50.65 46.9 50.9 46.75 51.15 46.65 51.2 46.4 51.1 46.2 50.85 46.2 50.75 45.85 50.4 45.5 50.65 44.75 50.7 44.65 50.75 44.25 50.6 44.2 50.55 44.1 50.45 43.85 50.55 42.2 50.45 42.1 50.35 42.05 50.3 42.05 50.15 42.0 50.1 42.05 49.9 42.05 49.75 40.85 49.9 41.25 49.95 41.45 50.05 41.5 50.1 41.5 50.25 41.35 50.45 40.3 50.4 40.2 50.35 39.5 50.45 39.35 50.4 39.25 50.3 39.25 50.4 39.2 50.5 39.1 50.65 38.95 50.75 38.75 50.9 38.65 51.0 38.55 51.05 38.4 50.9 38.2 50.8 38.15 50.75 38.1 50.8 38.1 50.9 38.15 50.9 38.2 51.0 38.15 51.25 37.65 51.45 36.95 51.35 36.75 51.1 36.75 51.05 36.75 50.9 36.85 50.85 36.9 50.75 36.75 50.7 36.4 50.4 36.35 50.25 36.35 50.15 35.8 50.15 35.4 50.15 35.55 50.4 35.7 50.35 35.7 50.3 36.0 50.4 36.2 50.6 36.0 50.8 35.7 50.85 35.55 50.8 35.5 50.7 35.45 50.75 35.3 50.85 35.1 50.9 34.9 50.85 34.8 50.8 34.55 50.75 34.2 50.7 34.05 50.65 33.85 50.65 33.75 50.7 33.2 50.9 Q32.8 51.1 32.5 50.9 L32.05 50.75 32.0 50.65 32.0 50.6 31.95 50.5 32.0 50.35 32.0 50.15 32.0 50.1 31.1 50.1 31.4 50.25 31.65 50.4 Q31.9 50.4 31.95 50.6 L31.8 50.7 31.35 50.85 31.5 50.85 32.05 51.0 32.6 51.15 32.75 51.25 32.8 51.3 32.85 51.4 32.9 51.45 32.9 51.55 32.9 51.7 32.9 51.75 32.85 51.85 32.85 51.95 32.85 52.0 32.85 52.15 32.85 52.25 32.9 52.3 33.25 52.4 33.5 52.55 33.65 52.35 33.65 52.3 Q33.85 52.3 34.0 52.45 L33.75 52.8 33.55 52.75 33.55 52.85 33.4 53.25 32.85 53.7 Q33.6 55.2 35.8 55.55 36.15 55.6 35.85 55.8 35.3 56.2 34.6 56.25 L34.6 56.3 34.6 56.35 34.6 56.45 34.7 56.5 34.8 56.5 35.0 56.55 Q35.25 56.6 35.35 56.8 L35.4 56.95 35.35 57.0 35.35 57.05 35.35 57.15 35.35 57.2 35.2 57.45 34.7 57.5 34.55 57.35 33.9 57.15 34.0 57.3 34.0 57.35 33.95 57.45 33.85 57.6 33.7 57.75 33.25 57.75 33.15 57.65 33.1 57.55 33.05 57.5 33.05 57.4 33.05 57.35 33.05 57.25 33.05 57.2 33.1 57.15 33.25 56.95 33.45 56.9 33.55 56.85 33.45 56.65 33.4 56.65 33.4 56.6 33.25 56.55 33.0 56.4 32.95 56.45 32.75 56.65 32.7 56.85 32.65 56.9 32.6 56.95 32.55 57.0 32.4 57.0 32.25 57.05 31.9 57.0 31.8 56.95 31.75 56.8 31.7 56.65 31.75 56.3 32.0 56.05 32.2 55.95 32.05 55.85 32.0 55.75 32.0 55.65 32.0 55.55 31.45 55.15 31.35 55.15 31.05 55.1 30.7 54.95 30.65 54.7 30.65 54.65 30.55 54.7 30.4 54.6 30.3 54.55 30.15 54.4 29.65 54.2 29.45 54.1 29.45 54.0 29.4 53.95 29.4 53.85 29.4 53.7 29.4 53.6 29.2 53.75 28.95 53.7 28.85 53.65 28.85 53.6 28.9 53.45 29.05 53.25 29.1 53.2 29.2 53.15 29.4 53.3 29.4 53.25 29.5 53.15 29.55 53.1 29.7 52.95 29.95 52.8 29.9 52.75 29.9 52.65 29.9 52.5 29.8 52.55 29.65 52.65 29.65 52.8 29.55 52.95 29.5 53.1 29.45 53.1 29.05 53.0 28.95 52.6 29.05 52.4 29.05 52.3 29.05 52.25 29.1 52.15 29.15 52.0 29.2 52.0 29.15 51.9 29.15 51.85 29.15 51.75 29.15 51.65 29.35 51.45 29.5 51.4 29.75 51.3 29.95 51.3 29.95 51.2 30.0 51.15 30.0 51.05 30.05 50.95 30.15 50.9 30.25 50.85 30.3 50.85 30.45 50.8 30.75 50.8 30.35 50.35 Q30.35 50.15 30.5 50.1 L29.45 50.1 Q29.8 50.25 29.65 50.5 L29.2 50.7 28.55 50.75 28.3 50.55 28.4 50.35 29.3 50.15 29.45 50.1 28.2 50.1 28.2 50.15 28.1 50.35 27.9 50.6 27.85 50.65 28.0 50.8 27.95 51.15 27.75 51.3 27.5 51.3 27.4 51.2 27.4 51.15 27.35 51.05 27.35 51.0 27.4 50.85 27.45 50.75 27.55 50.7 27.6 50.65 27.6 50.6 27.55 50.55 27.5 50.45 27.45 50.3 27.45 50.25 27.25 50.35 26.7 50.45 26.1 50.35 26.0 50.25 26.0 50.1 25.8 50.1 25.8 50.15 25.7 50.35 24.75 50.6 Q24.5 50.6 24.3 50.4 L24.3 50.35 24.3 50.25 24.15 50.35 23.95 50.45 24.05 50.6 24.05 50.7 24.0 50.75 23.95 51.0 23.75 51.15 23.45 51.3 23.2 51.2 23.1 51.15 23.0 51.0 22.85 50.75 22.85 50.65 22.55 50.6 22.35 50.55 22.3 50.65 22.3 50.9 22.1 51.2 22.0 51.25 21.4 51.35 20.9 51.3 20.65 51.15 20.6 51.1 20.55 51.0 20.5 50.8 20.5 50.75 20.35 50.85 19.95 51.1 19.65 51.15 19.55 51.05 19.55 51.0 19.5 50.85 19.5 50.75 19.5 50.7 19.5 50.6 19.5 50.55 19.55 50.45 19.6 50.4 19.45 50.4 Q19.1 50.35 18.95 50.15 L18.4 50.6 18.35 50.5 18.35 50.4 18.3 50.4 17.9 50.15 17.45 50.0 17.3 49.85 16.95 49.95 16.4 50.1 16.35 50.35 Q16.15 50.65 15.8 50.55 L15.3 50.35 15.2 50.15 14.95 50.1 14.9 50.1 14.9 50.35 Q14.75 51.1 14.05 50.9 13.3 50.8 13.5 50.05 L13.6 49.85 13.45 49.8 13.45 49.85 13.3 49.95 13.2 50.05 13.05 50.05 12.85 49.95 12.6 49.8 12.55 49.65 12.35 49.6 12.35 49.65 12.3 49.8 12.25 49.85 12.2 49.9 12.15 49.95 12.1 50.0 11.8 50.05 11.4 49.95 11.1 49.8 11.05 49.6 10.4 49.75 10.5 49.8 10.15 50.35 10.2 50.6 10.2 51.1 Q10.15 51.45 9.85 51.4 9.55 51.35 9.4 51.2 L9.35 51.1 9.35 50.85 9.35 50.7 9.35 50.55 9.3 50.55 9.25 50.6 8.85 51.2 8.45 51.65 8.15 51.75 7.75 51.45 7.3 51.55 6.5 51.0 6.5 50.7 6.45 50.65 6.4 50.65 6.45 50.85 Q6.5 51.35 6.0 51.2 L5.65 50.75 Q5.55 50.35 5.95 50.4 L6.3 50.55 6.3 50.35 Q6.4 50.05 6.65 50.1 L6.85 50.3 6.85 50.25 7.0 50.15 6.85 49.85 6.75 49.9 6.35 49.75 6.15 49.6 6.1 49.55 5.7 49.65 Q5.0 49.65 4.65 49.15 L4.5 48.9 4.4 48.9 4.3 48.5 3.8 48.55 Q3.05 48.4 3.3 47.7 3.4 47.2 3.95 47.1 4.5 47.25 4.65 47.65 L4.7 47.6 5.15 47.25 Q5.55 47.3 5.55 47.65 L5.5 48.2 5.85 48.5 5.95 48.6 5.9 47.2 5.85 47.2 5.45 47.05 5.25 47.0 5.1 47.0 4.9 46.9 4.9 46.8 4.85 46.75 4.85 46.65 4.85 46.55 4.85 46.45 4.9 46.4 4.95 46.3 5.0 46.2 5.1 46.2 5.15 46.15 5.25 46.15 5.5 46.2 5.85 46.1 5.6 46.0 5.5 45.8 5.5 45.55 5.5 45.4 5.55 45.25 5.65 45.2 5.85 45.15 5.85 44.7 5.4 44.65 5.0 44.4 4.95 44.35 4.95 44.2 4.95 44.1 4.95 44.05 5.0 43.95 5.0 43.9 4.85 43.8 4.8 43.7 4.8 43.65 4.85 43.55 4.85 43.5 5.05 43.4 5.15 43.35 5.2 43.35 5.3 43.4 5.35 43.45 5.4 43.4 5.55 43.45 5.65 43.55 5.7 43.6 5.75 43.7 5.8 43.7 5.8 43.0 5.75 43.05 5.5 43.2 Q5.0 43.25 4.95 42.85 L4.95 42.7 4.95 42.45 5.0 42.3 4.8 42.3 Q4.3 42.35 4.3 41.95 4.25 41.35 4.8 41.35 L5.2 41.85 5.2 42.1 5.25 42.05 5.5 42.0 5.8 42.15 5.8 41.9 5.8 40.95 5.7 40.95 5.2 40.75 5.1 40.85 4.15 40.95 3.8 40.7 3.8 40.55 3.9 40.2 4.2 39.9 4.8 39.6 5.1 39.7 5.25 39.85 5.3 39.9 5.7 39.7 5.8 39.7 5.85 39.7 5.85 39.55 5.4 39.45 5.1 39.2 5.0 39.05 5.0 38.9 5.0 38.7 5.1 38.55 5.45 38.3 5.55 38.25 5.2 37.4 4.8 37.45 4.7 37.45 Q4.45 37.75 4.5 38.15 L4.4 38.85 3.85 39.35 Q3.6 39.35 3.45 39.15 L3.35 38.9 3.35 38.85 3.4 38.7 3.5 38.4 3.5 38.3 3.45 38.2 3.4 38.15 3.4 38.05 3.4 38.0 3.35 37.9 3.35 37.85 3.35 37.75 3.35 37.7 3.1 37.5 3.05 37.5 2.85 37.5 2.6 37.35 Q2.45 37.0 2.75 36.9 L2.9 36.85 2.9 36.8 2.95 36.75 3.05 36.6 3.35 36.4 3.65 36.3 3.75 36.35 3.75 36.25 3.8 36.15 3.85 36.1 3.95 36.0 4.1 35.85 4.3 35.8 4.3 35.75 4.45 35.75 4.55 35.8 4.7 35.85 4.8 35.95 4.85 36.1 4.85 36.25 4.75 36.35 4.65 36.5 4.8 36.4 5.0 36.55 4.8 34.7 4.4 34.7 4.35 34.85 4.1 35.05 3.8 34.85 Q3.6 34.6 3.95 34.45 L4.15 34.4 Q4.0 33.9 4.45 33.8 L4.85 33.8 4.85 33.35 4.8 33.35 4.7 33.35 Q4.5 33.75 3.95 33.2 3.5 32.7 3.75 32.05 L3.9 31.5 3.3 30.8 Q3.1 30.4 3.35 30.0 3.65 29.55 4.1 29.25 L4.1 29.15 Q4.15 28.85 4.35 28.7 L4.0 28.4 3.9 28.25 3.8 28.1 3.8 27.85 3.8 27.7 3.8 27.55 3.95 27.4 4.1 27.2 4.4 27.05 4.8 26.95 4.8 26.9 5.1 27.05 5.25 27.2 5.3 27.2 5.3 26.15 5.2 26.15 4.7 26.1 4.55 26.0 4.5 25.9 4.3 25.85 4.1 25.9 4.0 26.0 3.95 26.15 3.8 26.25 3.8 26.3 3.1 26.15 2.85 25.7 2.75 25.4 Q2.65 24.95 3.05 24.8 L3.4 24.7 3.4 24.65 3.6 24.7 3.6 24.65 3.65 24.5 3.75 24.35 4.1 24.05 4.8 23.75 4.8 23.7 5.2 23.85 5.25 23.85 5.2 22.2 5.0 22.2 Q4.55 22.2 4.5 21.8 4.45 21.3 5.0 21.2 L5.15 21.25 5.15 21.05 5.0 21.05 Q4.55 21.05 4.55 20.65 4.55 20.25 5.0 20.2 L5.15 20.25 5.0 17.95 5.0 17.25 4.45 17.3 Q4.05 17.25 4.0 16.85 L4.0 16.7 4.05 16.5 4.15 16.4 4.25 16.35 4.45 16.3 4.15 15.95 4.05 15.65 4.05 15.45 4.1 15.3 4.25 15.15 4.35 15.0 4.45 14.95 4.75 14.95 4.75 14.9 4.8 14.85 4.8 14.8 4.95 14.65 5.25 14.55 5.4 14.6 5.5 14.7 5.6 14.8 6.1 13.9 6.0 13.85 6.0 13.75 5.9 13.75 5.65 13.6 5.45 13.8 5.15 13.9 4.95 13.85 4.85 13.85 Q4.6 13.85 4.5 13.65 L4.5 13.6 4.5 13.5 4.5 13.45 4.5 13.35 4.55 13.25 4.65 13.25 4.65 13.1 Q4.7 12.7 5.0 12.7 5.4 12.8 5.3 13.2 L5.35 13.2 5.5 13.25 5.55 13.25 5.55 13.15 5.65 12.9 5.6 12.8 5.6 12.75 5.65 12.65 5.7 12.6 5.5 12.55 5.45 12.5 5.4 12.4 Q5.0 12.45 4.8 12.1 L4.75 11.8 4.8 11.65 4.4 11.55 4.25 11.4 4.15 11.2 4.15 11.05 4.15 10.7 4.2 10.35 4.45 10.1 4.8 10.0 4.8 9.95 5.1 10.1 5.25 10.35 5.25 10.25 5.25 10.2 5.25 9.95 Q5.25 9.7 5.4 9.55 L5.8 9.35 6.2 9.3 6.5 9.3 6.6 9.3 6.6 9.05 Q6.35 9.35 5.75 9.05 L5.45 8.75 5.3 8.65 5.25 8.6 5.25 8.5 5.25 8.45 5.3 8.35 5.4 8.3 5.5 8.25 5.85 7.8 6.55 7.8 6.6 7.3 6.3 7.3 6.3 7.25 6.25 7.05 6.25 6.9 6.3 6.8 6.5 6.7 6.7 6.85 6.75 6.9 6.95 6.8 7.35 6.7 Q7.9 6.6 8.3 7.0 L8.65 7.55 8.65 7.5 8.75 7.35 8.8 7.3 9.05 7.3 9.05 7.25 9.2 7.3 9.4 7.35 9.5 7.5 9.55 7.3 9.5 7.15 9.5 7.05 9.3 7.0 8.7 7.0 8.55 7.0 8.35 6.95 8.25 6.85 8.15 6.8 8.15 6.7 8.1 6.65 8.1 6.55 8.1 6.4 8.1 6.3 8.1 6.25 8.2 6.15 8.25 6.1 8.35 6.05 8.4 6.0 8.65 6.0 8.65 5.95 9.3 6.0 9.5 6.0 9.45 5.95 9.4 5.9 9.4 5.8 9.4 5.75 9.4 5.65 9.4 5.6 9.45 5.5 9.5 5.4 9.6 5.35 9.7 5.3 9.8 5.3 9.8 5.25 9.95 5.35 10.15 5.5 10.2 5.65 10.2 5.85 10.2 5.95 10.1 6.05 10.5 6.25 10.55 6.35 10.7 6.35 10.8 6.3 10.95 6.3 11.15 6.3 11.45 6.45 11.55 6.5 12.3 6.55 12.5 6.55 12.6 6.65 12.65 6.7 12.7 6.85 12.8 7.1 12.9 7.25 12.95 7.4 12.95 7.45 14.65 7.35 14.65 7.2 14.65 7.15 14.65 7.05 14.7 6.95 14.75 6.9 14.9 6.85 15.2 6.7 Q14.8 6.8 14.6 6.5 14.5 6.25 14.7 6.05 L15.8 5.35 16.4 5.2 16.6 5.2 17.65 5.15 17.7 5.15 Q18.65 5.2 18.3 6.0 L18.25 6.15 18.3 6.15 18.5 6.2 18.65 6.35 18.7 6.45 18.75 6.35 18.75 6.3 18.85 6.2 19.0 6.15 19.1 6.15 19.1 6.1 19.35 6.15 19.5 6.1 19.65 6.15 19.8 6.3 19.85 6.35 20.05 6.5 20.6 6.5 21.0 6.35 20.7 6.15 20.7 6.1 20.65 6.0 20.65 5.95 20.65 5.85 20.7 5.8 20.75 5.7 20.85 5.65 21.05 5.6 21.2 5.65 21.3 5.7 21.35 5.8 21.4 5.85 21.45 5.95 21.55 5.75 21.8 5.65 21.95 5.7 22.0 5.8 22.1 5.85 22.15 5.95 22.1 6.0 22.1 6.1 22.05 6.15 22.0 6.25 21.95 6.3 21.9 6.3 21.8 6.35 21.55 6.2 21.45 6.0 21.45 5.95 M55.2 7.55 L55.25 8.05 55.4 8.2 55.5 8.2 55.45 8.1 55.4 8.05 55.35 7.9 55.35 7.75 55.35 7.55 55.2 7.55 M55.6 9.2 L55.5 9.25 55.4 9.3 55.3 9.35 55.3 9.45 55.7 9.5 55.65 9.15 55.6 9.2 M57.45 7.05 L57.6 7.0 57.75 7.1 57.85 7.15 57.95 7.3 58.0 7.45 57.95 7.55 57.9 7.6 57.85 7.7 57.8 7.75 57.75 7.75 57.6 7.8 57.4 7.75 57.3 7.65 57.2 7.5 57.15 7.45 57.05 7.45 56.75 7.25 56.7 7.15 56.65 7.05 57.4 7.1 57.45 7.05 M57.45 8.15 L57.45 8.05 57.5 8.0 57.6 8.05 57.6 8.15 57.45 8.15 M57.1 9.65 L57.15 9.6 57.3 9.6 57.5 9.75 57.5 10.0 57.3 10.15 57.0 10.2 56.9 10.1 56.85 10.05 56.85 9.95 56.85 9.9 56.9 9.8 57.0 9.75 57.1 9.65 M57.85 12.15 L58.05 12.2 58.25 12.3 58.4 12.4 58.5 12.55 58.55 12.6 58.5 12.75 58.2 13.05 58.2 13.15 58.15 13.3 58.0 13.45 57.6 13.35 57.55 13.3 57.5 13.2 57.5 13.15 57.5 13.05 57.5 13.0 57.55 12.9 57.4 12.7 57.35 12.6 57.35 12.55 57.35 12.45 57.4 12.4 57.6 12.25 57.85 12.15 M59.05 10.6 L59.2 10.65 59.3 10.7 59.35 10.8 59.4 10.85 59.35 11.0 59.1 11.3 58.7 11.2 58.6 11.0 58.6 10.95 58.6 10.85 58.65 10.8 58.8 10.65 58.95 10.6 59.05 10.6 M60.65 15.45 L60.6 15.55 60.2 15.55 Q60.1 15.45 60.15 15.35 L60.4 15.1 60.5 15.1 60.65 15.45 M59.75 16.65 L60.0 16.55 60.05 16.9 59.9 17.05 Q59.75 17.05 59.7 16.9 59.6 16.7 59.75 16.65 M59.1 17.65 Q59.15 17.4 59.55 17.45 59.75 17.6 59.6 17.85 L59.25 18.0 Q59.05 17.95 59.1 17.65 M59.6 19.95 Q59.2 19.8 59.25 19.35 59.3 18.95 59.8 19.0 L60.05 19.7 Q60.05 20.15 59.6 19.95 M59.0 20.65 L59.1 20.35 59.15 20.3 59.35 20.25 59.65 20.35 59.8 20.55 59.9 20.75 59.9 21.0 59.7 21.25 59.4 21.25 59.05 20.95 59.0 20.65 M56.75 18.7 L56.4 18.8 56.4 19.15 Q56.35 19.75 55.95 19.8 L55.95 20.2 Q56.5 20.6 56.55 21.2 L56.65 21.0 56.75 18.7 M55.95 23.0 L55.95 24.1 56.0 24.35 55.95 24.6 55.9 24.75 55.9 25.25 56.0 25.3 56.3 25.5 56.45 25.85 56.45 26.2 56.4 26.3 56.7 26.65 56.65 23.15 Q56.35 23.1 56.15 22.65 L55.95 23.0 M60.5 23.55 L60.45 24.0 60.05 24.15 60.0 24.1 60.3 23.6 60.5 23.55 M60.05 25.65 L60.35 25.8 60.5 25.95 60.65 26.1 60.7 26.3 60.75 26.65 60.4 26.75 Q59.95 26.75 59.7 26.4 59.6 26.25 59.65 26.1 L59.8 25.85 Q59.9 25.7 60.05 25.65 M56.4 29.2 L56.5 29.7 56.3 30.1 56.3 30.2 56.25 30.7 55.75 31.2 55.75 31.25 55.7 31.4 55.6 31.45 55.6 32.0 Q55.95 31.95 56.15 32.2 L56.25 32.7 55.95 33.05 55.55 33.15 55.55 35.4 55.9 35.25 Q56.5 35.25 56.5 35.85 56.5 36.4 55.9 36.35 L56.15 37.15 Q56.25 37.9 55.55 37.85 L55.55 39.35 55.8 39.25 56.1 39.35 56.35 39.6 56.35 39.95 56.25 40.15 56.2 40.3 56.35 40.85 56.4 40.9 56.65 41.2 56.65 40.8 56.7 38.9 56.3 38.95 Q55.7 38.9 55.7 38.35 55.65 37.85 56.15 37.8 L56.7 38.1 56.7 34.55 Q56.05 34.4 56.2 33.75 56.3 33.3 56.7 33.25 L56.7 31.5 56.7 28.1 55.7 28.65 55.7 28.85 56.0 28.9 56.4 29.2 M60.1 34.5 Q60.1 34.25 60.4 34.05 60.5 33.95 60.7 33.95 L60.85 34.2 60.95 34.35 61.1 34.5 61.1 34.65 61.15 34.85 61.15 34.95 61.25 35.25 61.15 35.35 60.9 35.35 60.6 35.4 Q60.0 35.4 60.05 34.85 L60.1 34.5 M60.65 36.1 L61.1 35.9 61.2 35.9 61.2 36.2 61.2 36.75 61.1 37.25 60.75 37.4 60.5 37.35 60.35 36.95 60.35 36.65 60.65 36.1 M56.25 42.4 L56.4 42.45 56.5 42.5 56.55 42.65 56.65 42.7 56.65 41.4 56.35 41.9 56.3 41.95 55.65 41.9 55.65 42.45 55.65 42.65 56.15 42.4 56.25 42.4 M59.45 42.3 L59.7 42.25 59.7 42.2 60.1 42.5 Q60.35 42.75 60.2 43.0 60.0 43.35 59.7 43.25 L59.2 43.0 59.1 42.9 59.1 42.75 59.15 42.6 59.25 42.35 59.45 42.3 M55.75 44.6 L55.75 44.9 55.8 45.05 Q56.55 45.15 56.5 45.9 L56.5 45.95 56.7 45.95 56.65 44.2 56.25 44.45 55.75 44.6 M56.65 43.45 L56.45 43.6 56.65 43.85 56.65 43.45 M60.5 47.8 L60.7 48.35 60.6 48.45 Q60.35 48.45 60.15 48.25 60.0 48.05 60.2 47.95 60.35 47.8 60.5 47.8 M61.1 43.15 Q60.6 43.1 60.7 42.75 60.75 42.35 61.1 42.35 61.45 42.4 61.4 42.85 L61.1 43.15 M61.2 49.1 Q61.45 49.3 61.35 49.6 L61.15 49.85 Q60.7 50.05 60.65 49.65 60.65 49.3 60.9 49.15 L61.2 49.1 M32.85 4.5 L32.9 4.4 32.95 4.35 33.0 4.35 33.15 4.3 33.25 4.3 33.4 4.4 33.5 4.45 33.5 4.5 33.55 4.65 33.45 4.8 33.25 4.95 32.9 4.8 32.85 4.55 32.85 4.5 M30.65 4.45 L30.7 4.4 30.7 4.3 30.75 4.25 30.9 4.2 31.05 4.3 31.1 4.55 31.1 4.6 31.2 4.55 31.4 4.7 31.4 4.9 31.2 5.0 30.95 4.9 30.95 4.8 30.95 4.7 30.75 4.65 30.65 4.55 30.65 4.45 M31.5 6.55 L31.4 6.55 31.25 6.55 31.2 6.6 31.5 6.6 31.5 6.55 M25.45 5.55 L25.55 5.7 25.6 5.75 25.5 5.9 25.35 6.05 24.9 6.05 24.75 5.95 24.7 5.85 24.7 5.8 24.7 5.7 24.75 5.65 24.75 5.55 24.85 5.5 24.9 5.4 24.95 5.4 25.1 5.4 25.1 5.35 25.2 5.4 25.35 5.45 25.45 5.55 M26.95 5.9 L27.0 5.8 27.1 5.75 27.2 5.7 27.35 5.65 27.5 5.75 27.65 5.85 27.75 6.0 27.8 6.15 27.8 6.25 27.7 6.4 27.3 6.5 26.95 6.2 26.95 5.95 26.95 5.9 M29.35 4.25 L29.35 4.35 29.15 4.35 Q29.0 4.3 29.15 4.2 L29.2 4.2 29.35 4.25 M22.6 5.4 L22.75 5.45 22.85 5.5 22.95 5.65 22.95 5.75 22.95 5.8 22.95 5.9 22.9 5.95 22.85 6.05 22.75 6.1 22.7 6.1 22.6 6.15 22.3 6.05 22.15 5.9 22.1 5.8 22.1 5.7 22.1 5.65 22.15 5.55 22.3 5.45 22.5 5.4 22.5 5.35 22.6 5.4 M10.75 7.6 L10.85 7.6 10.9 7.55 10.95 7.45 10.75 7.45 10.75 7.6 M19.1 6.95 L18.65 6.85 18.6 6.85 18.6 6.9 18.7 7.0 19.15 7.0 19.15 6.95 19.1 6.95 M7.1 4.5 L7.0 4.7 6.8 4.9 6.6 4.8 6.5 4.75 6.45 4.6 6.4 4.45 6.45 4.35 6.5 4.3 6.6 4.25 6.8 4.15 7.0 4.3 7.1 4.5 M3.6 7.65 L3.75 7.75 3.85 7.8 3.9 7.9 3.9 8.05 3.9 8.1 3.85 8.15 3.7 8.3 3.35 8.2 3.25 8.05 3.25 8.0 3.25 7.9 3.3 7.85 3.45 7.7 3.6 7.65 M3.0 12.15 L3.1 12.05 3.2 11.95 3.4 11.9 3.8 12.25 Q4.05 12.45 3.9 12.7 L3.4 13.05 Q2.9 13.05 2.9 12.65 L2.9 12.5 2.95 12.3 3.0 12.15 M5.4 10.5 L5.35 10.45 5.45 10.85 5.6 10.75 5.6 10.65 5.5 10.6 5.4 10.5 M6.55 12.2 L6.65 12.25 6.7 12.4 6.7 12.1 6.55 12.15 6.55 12.2 M7.7 12.55 L7.65 12.45 7.65 12.6 7.7 12.7 7.7 12.55 M5.2 14.5 L5.05 14.5 5.0 14.25 5.05 14.2 5.3 14.35 5.2 14.5 M3.05 13.85 L3.1 14.05 3.1 14.15 3.2 14.2 3.3 14.25 3.4 14.3 3.45 14.4 3.4 14.5 3.2 14.65 2.8 14.7 2.6 14.6 Q2.1 14.75 1.9 14.15 L1.9 13.9 2.1 13.6 Q2.25 13.45 2.5 13.4 L2.8 13.55 2.95 13.7 3.05 13.85 M2.7 15.3 L2.9 15.35 3.0 15.4 3.15 15.45 3.25 15.6 3.25 15.65 3.15 15.9 2.9 16.0 2.55 15.95 2.35 15.85 2.35 15.75 2.35 15.65 2.35 15.6 2.4 15.5 2.4 15.45 2.55 15.4 2.7 15.3 M5.05 16.5 L5.1 16.35 5.05 16.35 4.95 16.45 5.0 16.45 5.05 16.5 M2.75 17.75 Q2.9 17.45 3.2 17.45 L3.45 17.6 3.55 17.7 3.7 17.9 3.8 18.05 4.0 18.4 3.55 18.7 Q3.0 18.75 2.75 18.35 2.6 18.05 2.75 17.75 M3.95 19.2 L4.25 19.1 4.25 19.05 4.75 19.5 4.65 20.15 4.25 20.35 Q3.8 20.45 3.75 20.0 L3.7 19.85 3.7 19.7 3.75 19.5 3.8 19.35 3.95 19.2 M2.15 22.65 L2.45 22.4 Q2.8 22.2 3.2 22.1 L3.2 22.05 3.6 22.2 3.9 22.35 4.15 22.65 4.3 23.0 4.3 23.15 4.3 23.3 4.15 23.7 3.9 23.95 3.2 24.35 2.65 24.15 2.45 24.0 2.15 23.7 2.05 23.35 2.0 23.0 2.05 22.85 2.15 22.65 M5.2 29.9 L4.85 30.0 4.9 30.6 4.95 30.5 5.15 30.3 5.2 29.9 M5.25 28.6 L5.05 28.65 5.25 28.75 5.25 28.6 M3.0 26.9 Q3.1 26.4 3.55 26.4 L3.65 26.4 Q4.1 26.7 3.95 27.1 L3.4 27.45 Q2.85 27.45 3.0 26.9 M2.2 28.95 L2.25 28.95 2.65 29.25 Q2.85 29.45 2.65 29.75 L2.15 30.1 1.65 30.15 1.5 30.05 1.45 29.9 1.45 29.75 1.45 29.6 1.5 29.4 1.65 29.2 1.9 29.1 2.2 28.95 M1.45 30.6 L1.55 30.5 1.65 30.45 1.95 30.4 2.25 30.5 2.5 30.65 2.55 30.8 2.6 31.2 2.55 31.35 2.45 31.5 2.2 31.6 1.55 31.55 1.3 31.25 1.25 30.9 1.35 30.75 1.45 30.6 M5.05 31.45 L4.9 31.2 4.9 31.25 4.85 32.2 5.0 32.25 5.05 31.45 M2.6 33.65 L2.25 33.55 2.15 33.4 2.15 33.3 2.15 33.25 2.2 33.15 2.35 33.05 2.5 33.0 2.65 33.05 2.75 33.15 2.8 33.2 2.8 33.35 2.8 33.45 2.75 33.5 2.6 33.65 M2.3 34.75 L1.9 34.75 1.75 34.6 1.75 34.55 1.75 34.45 1.8 34.4 1.85 34.3 1.9 34.25 2.1 34.2 2.2 34.2 2.3 34.2 2.45 34.3 2.55 34.35 2.6 34.5 2.5 34.65 2.3 34.75 M3.1 35.35 L3.15 35.25 3.2 35.2 3.4 35.15 3.4 35.1 3.6 35.3 3.6 35.55 3.4 35.6 3.15 35.55 3.1 35.5 3.1 35.4 3.1 35.35 M7.75 37.05 L7.8 37.85 7.85 37.6 7.85 37.1 7.75 37.05 M7.8 38.4 L7.9 38.6 7.9 38.45 7.8 38.35 7.8 38.4 M7.9 39.1 L7.85 39.2 7.8 39.35 7.85 39.85 7.9 39.75 7.9 39.1 M2.15 41.2 L2.5 41.05 2.5 40.95 2.75 41.15 2.95 41.3 3.05 41.45 3.05 41.6 3.05 41.85 3.0 41.95 2.75 42.3 1.95 42.4 1.75 42.15 1.75 42.0 1.8 41.85 1.95 41.45 2.15 41.2 M4.1 40.95 L4.2 41.05 4.3 41.2 4.3 41.35 4.3 41.4 4.2 41.55 3.95 41.65 3.65 41.55 3.6 41.45 3.55 41.4 3.55 41.3 3.55 41.25 3.6 41.15 3.6 41.1 3.7 41.0 3.75 40.95 3.8 40.95 3.95 40.9 4.1 40.95 M4.4 43.65 L4.45 43.8 4.4 43.85 4.3 44.0 4.05 44.1 3.75 44.0 3.8 44.05 3.9 44.2 3.9 44.25 3.9 44.35 3.7 44.6 3.35 44.75 Q3.1 44.75 3.0 44.6 L3.0 44.55 2.95 44.45 2.95 44.35 3.0 44.3 3.0 44.2 3.05 44.15 3.2 44.05 3.35 43.95 3.5 43.9 3.7 43.95 3.65 43.85 3.65 43.75 3.65 43.7 3.7 43.6 3.7 43.55 3.8 43.45 3.85 43.4 3.9 43.4 4.05 43.35 4.2 43.4 4.3 43.5 4.4 43.65 M3.7 45.4 L3.75 45.55 3.8 45.35 Q3.95 44.8 4.45 44.75 5.2 44.9 5.15 45.65 5.05 46.3 4.35 46.2 L3.8 45.9 3.8 45.95 3.5 45.8 3.4 45.5 3.35 45.25 3.45 45.1 3.45 45.05 3.65 45.25 3.7 45.4 M3.25 46.4 L3.25 46.5 3.1 46.45 2.35 46.55 Q1.65 46.3 2.05 45.55 2.25 45.15 2.75 45.15 3.5 45.3 3.3 46.05 L3.25 46.3 3.25 46.4 M1.5 43.75 L1.75 44.4 1.6 44.25 1.5 43.95 1.5 43.9 1.5 43.75 M2.5 48.95 Q2.85 49.0 2.85 49.35 L2.65 49.8 Q2.15 50.1 2.0 49.65 1.9 49.25 2.25 49.0 L2.5 48.95 M39.15 50.15 L39.2 50.15 39.15 50.1 39.15 50.15 M39.9 52.35 L39.6 52.15 39.6 52.1 39.7 51.95 39.9 51.85 40.1 51.8 40.3 51.75 40.6 52.0 40.3 52.3 39.9 52.35 M33.05 50.3 L33.55 50.15 32.95 50.15 32.95 50.35 33.05 50.3 M35.2 51.25 L35.25 51.5 35.15 51.65 35.05 51.75 34.9 51.8 34.7 51.8 Q34.45 51.85 34.35 51.55 L34.3 51.5 34.3 51.4 34.35 51.35 34.35 51.25 34.45 51.15 34.6 51.05 34.8 51.05 34.9 51.05 35.05 51.1 35.2 51.25 M30.8 51.9 L30.85 51.95 30.85 51.9 30.8 51.9 M30.65 56.65 L30.4 56.6 30.25 56.45 30.2 56.4 30.25 56.3 30.25 56.25 30.3 56.2 30.45 56.1 30.55 56.1 30.7 56.15 30.75 56.25 30.85 56.35 30.95 56.45 30.8 56.6 30.65 56.65 M38.2 57.8 L38.2 58.05 37.6 58.5 Q36.9 58.6 36.4 58.15 L36.35 58.05 36.35 57.95 36.35 57.9 36.35 57.8 36.4 57.75 36.5 57.65 36.6 57.6 36.75 57.6 37.25 57.55 37.6 57.55 37.75 57.55 37.9 57.6 38.15 57.7 38.2 57.8 M28.8 51.25 L28.9 51.3 28.95 51.4 29.0 51.45 29.05 51.6 29.0 51.75 29.0 51.9 28.9 52.05 28.85 52.15 28.7 52.15 28.6 52.15 28.5 52.15 27.9 52.1 27.75 51.75 27.85 51.55 28.1 51.45 28.25 51.5 28.25 51.4 28.3 51.35 28.35 51.25 28.45 51.2 28.6 51.2 28.8 51.25 M25.55 51.55 L25.25 51.75 24.95 51.5 24.85 51.5 24.75 51.5 24.6 51.4 24.35 51.25 24.3 51.1 24.3 51.05 24.35 50.9 24.5 50.75 24.65 50.7 24.75 50.65 24.95 50.7 25.05 50.8 25.15 51.0 25.2 51.15 25.25 51.1 25.55 51.25 25.55 51.55 M27.55 51.55 L27.65 51.65 27.6 51.75 27.45 51.9 27.25 51.95 26.9 51.95 26.7 51.9 26.65 51.8 26.65 51.75 26.7 51.6 26.8 51.55 26.9 51.45 26.95 51.45 27.05 51.45 27.05 51.4 27.25 51.45 27.4 51.45 27.55 51.55 M26.1 53.3 L26.1 53.45 26.1 53.55 25.9 53.7 Q25.6 53.8 25.45 53.55 L25.4 53.3 25.5 53.15 25.65 53.05 25.75 53.1 25.9 53.1 26.05 53.15 26.1 53.3 M28.45 53.25 L28.55 53.3 28.65 53.4 28.7 53.45 28.7 53.6 28.7 53.7 28.65 53.75 28.55 53.8 28.3 53.85 28.05 53.75 28.0 53.7 28.0 53.6 28.0 53.45 28.1 53.3 28.3 53.25 28.3 53.2 28.45 53.25 M29.55 55.3 L29.65 55.25 29.8 55.3 29.9 55.4 29.95 55.45 30.0 55.6 29.95 55.7 29.9 55.75 29.75 55.9 29.4 55.8 29.3 55.65 29.3 55.55 29.35 55.5 29.35 55.4 29.55 55.3 M23.1 52.3 L22.95 52.45 22.65 52.6 22.4 52.45 22.3 52.4 22.15 52.25 22.05 52.25 21.8 52.05 21.8 52.0 21.9 51.85 22.05 51.75 22.35 51.55 22.45 51.5 22.55 51.45 22.8 51.8 22.55 52.15 23.25 52.2 23.1 52.3 M24.55 53.0 L24.55 53.4 24.25 53.45 24.1 53.15 24.05 53.05 24.05 53.0 24.1 52.9 24.1 52.85 24.15 52.85 24.25 52.8 Q24.45 52.85 24.55 53.0 M19.45 51.8 L19.15 52.05 Q18.85 52.0 18.9 51.75 18.95 51.5 19.15 51.45 L19.45 51.8 M16.65 50.55 Q16.9 50.7 16.75 51.05 L16.55 51.25 Q16.15 51.25 16.15 50.85 16.2 50.5 16.55 50.55 L16.65 50.55 M17.1 51.65 L16.85 51.6 Q16.55 51.45 16.85 51.2 L17.35 51.1 17.5 51.3 17.35 51.4 17.25 51.5 17.2 51.55 17.1 51.65 M17.7 51.4 L18.0 51.75 17.7 51.95 Q17.4 51.95 17.45 51.65 17.5 51.4 17.7 51.4 M16.85 53.55 L16.85 53.5 16.85 53.4 16.9 53.35 Q17.1 53.2 17.25 53.15 L17.5 53.1 17.85 53.4 17.65 53.7 17.25 53.8 Q16.95 53.75 16.85 53.55 M12.85 50.45 L12.6 50.55 12.4 50.4 12.6 50.15 12.8 50.1 12.85 50.45 M13.2 51.65 Q13.25 52.15 12.8 52.15 12.35 52.15 12.3 51.75 12.25 51.2 12.8 51.2 13.15 51.25 13.2 51.65 M11.4 50.85 L10.8 51.25 Q10.3 51.25 10.25 50.8 L10.25 50.65 10.25 50.5 10.3 50.35 10.4 50.25 Q10.5 50.15 10.55 50.15 L10.75 50.1 10.8 50.05 Q11.25 50.0 11.45 50.35 L11.4 50.85 M12.1 51.65 Q12.1 52.05 11.7 52.05 11.3 52.05 11.35 51.6 11.4 51.2 11.75 51.2 12.1 51.35 12.1 51.65 M8.8 49.85 L8.85 49.85 8.85 49.7 8.8 49.85 M9.8 51.85 Q10.25 51.95 10.25 52.4 10.3 52.95 9.8 52.95 9.3 52.95 9.3 52.4 9.3 51.9 9.8 51.85 M6.75 53.45 Q7.1 53.55 7.25 53.75 7.45 53.95 7.25 54.3 7.1 54.55 6.85 54.5 L6.3 54.25 6.25 54.1 6.25 53.9 6.25 53.75 6.4 53.6 6.55 53.5 6.75 53.45 M5.45 53.35 L5.4 53.55 5.2 53.65 5.05 53.7 Q4.15 53.85 4.05 53.15 L4.1 53.1 4.45 53.0 4.45 52.95 5.15 53.05 5.4 53.2 5.45 53.35 M4.35 50.85 L4.35 51.25 4.3 51.35 4.05 51.35 4.0 51.15 4.25 50.9 4.35 50.85 M2.65 51.45 Q2.45 51.45 2.25 51.25 2.0 51.0 2.3 50.8 L2.6 50.75 Q2.9 51.0 2.85 51.3 L2.65 51.45 M3.7 52.05 L4.0 52.0 4.05 52.3 3.9 52.45 3.6 52.3 Q3.5 52.1 3.7 52.05 M62.55 50.65 L62.55 50.7 62.4 50.8 62.0 50.75 61.95 50.6 61.95 50.5 61.95 50.45 62.0 50.35 62.15 50.25 62.25 50.2 62.4 50.25 62.5 50.35 62.55 50.4 62.6 50.55 62.55 50.65 M61.75 51.7 L61.9 51.8 61.95 51.8 61.95 51.75 62.15 51.85 62.25 51.9 62.3 52.0 62.35 52.05 62.35 52.2 62.35 52.25 62.4 52.3 62.4 52.4 62.45 52.45 62.45 52.55 62.35 52.7 62.3 52.85 62.2 53.0 62.25 53.0 62.35 53.1 62.4 53.15 62.45 53.3 62.45 53.55 62.4 53.65 62.5 53.7 62.6 53.75 62.65 53.85 62.7 54.0 62.75 54.2 62.65 54.45 62.55 54.6 62.35 54.65 62.2 54.6 62.1 54.55 62.05 54.45 62.0 54.55 61.8 54.9 61.9 55.0 61.95 54.95 62.0 54.9 62.05 54.8 62.1 54.8 62.25 54.8 62.25 54.75 62.45 54.85 62.55 54.9 62.6 54.95 62.65 55.05 62.65 55.2 62.65 55.35 62.55 55.6 62.45 55.7 62.4 55.75 62.25 55.75 62.1 55.7 62.0 55.65 61.9 55.55 61.45 55.9 61.0 56.2 61.0 56.25 61.05 56.25 61.1 56.35 61.1 56.5 61.05 56.55 61.05 56.65 60.95 56.7 60.65 56.65 60.6 56.65 60.6 56.75 60.45 57.1 60.1 57.35 59.8 57.5 59.45 57.35 59.35 57.2 59.35 57.15 59.35 57.05 59.4 57.0 59.4 56.95 59.45 56.8 59.5 56.65 59.6 56.55 59.65 56.55 59.6 56.45 59.6 56.4 59.6 56.3 59.6 56.25 59.65 56.15 59.7 56.1 59.75 56.0 59.9 55.95 59.9 55.85 59.9 55.75 59.95 55.65 60.1 55.45 60.25 55.35 60.4 55.3 60.5 55.3 60.7 55.35 60.75 55.4 60.95 55.35 61.15 55.2 61.25 55.1 61.35 55.0 61.3 54.95 61.2 54.85 61.15 54.8 61.15 54.7 61.1 54.65 61.1 54.5 61.05 54.4 61.1 54.35 61.15 54.25 61.2 54.15 61.25 54.1 61.3 54.0 61.3 53.95 61.35 53.85 61.45 53.8 61.65 53.75 61.7 53.75 61.7 53.65 61.7 53.55 61.65 53.4 61.7 53.25 61.7 53.15 61.65 53.15 61.55 53.1 61.3 53.0 61.2 52.85 61.2 52.8 61.2 52.65 61.3 52.4 61.5 52.15 61.55 52.15 61.5 52.05 61.55 51.9 61.65 51.75 61.75 51.7 M62.1 53.95 L62.0 53.95 62.05 54.05 62.1 53.95 M62.0 52.95 L61.85 53.05 61.9 53.05 62.0 53.0 62.0 52.95 M62.4 56.45 L62.45 56.55 62.5 56.7 62.5 56.75 62.6 56.85 62.65 56.9 62.7 57.05 62.7 57.15 62.65 57.2 62.5 57.35 62.1 57.25 62.05 57.15 62.0 57.15 61.95 57.1 61.95 57.2 61.95 57.25 61.9 57.35 61.85 57.4 61.9 57.45 61.9 57.55 61.85 57.65 61.7 57.8 61.35 57.85 61.05 57.65 61.0 57.6 61.0 57.5 61.0 57.45 61.05 57.35 61.1 57.3 61.35 57.15 61.35 57.1 61.4 57.0 61.45 56.95 61.5 56.9 61.55 56.85 61.65 56.85 61.8 56.9 61.8 56.85 61.8 56.75 61.8 56.7 61.8 56.6 61.85 56.5 61.95 56.45 62.0 56.4 62.05 56.4 62.15 56.35 62.3 56.4 62.4 56.45 M58.3 52.45 L57.95 52.6 57.7 52.35 57.7 52.25 57.7 52.2 57.75 52.1 57.85 52.05 57.95 52.05 58.3 52.15 58.3 52.45 M59.9 52.05 Q59.45 52.05 59.55 51.6 59.65 51.3 59.9 51.3 60.3 51.35 60.2 51.75 L59.9 52.05 M55.9 50.4 L55.95 50.45 55.95 50.35 55.9 50.4 M56.7 51.2 L56.95 51.4 56.9 51.8 56.8 51.9 57.0 52.25 57.0 52.35 56.3 52.3 56.3 52.15 56.45 51.9 56.4 51.9 56.3 51.85 56.3 51.8 56.3 51.6 56.35 51.4 56.45 51.3 56.7 51.2 M56.8 53.35 L56.75 53.5 56.9 53.65 56.9 53.95 56.55 54.15 56.3 54.05 56.25 53.9 56.25 53.75 56.3 53.6 56.35 53.6 56.25 53.55 56.2 53.5 56.15 53.4 56.15 53.35 56.2 53.15 56.3 53.0 56.45 52.95 56.75 53.1 56.8 53.35 M54.15 51.4 L54.25 51.4 54.45 51.8 54.35 51.9 54.3 51.95 54.05 52.15 53.8 51.95 53.8 51.85 53.8 51.8 53.8 51.6 53.9 51.45 54.05 51.4 54.15 51.45 54.15 51.4 M53.6 51.55 L53.45 51.75 53.2 51.5 Q53.1 51.35 53.3 51.3 L53.55 51.25 53.6 51.55 M55.5 52.35 L55.55 52.55 55.45 52.7 54.95 52.8 Q54.55 52.7 54.45 52.3 L54.55 52.1 54.75 52.0 55.0 52.05 55.1 52.1 55.35 52.25 55.5 52.35 M53.85 54.1 Q53.55 54.1 53.55 53.75 L53.85 53.5 54.1 53.8 53.85 54.1 M53.45 58.3 L52.8 58.25 52.65 58.05 52.6 58.1 52.45 58.1 52.4 58.1 52.1 58.0 52.0 57.9 51.95 57.8 51.95 57.75 52.0 57.65 52.15 57.5 52.35 57.4 52.45 57.35 52.6 57.4 52.7 57.45 52.8 57.5 52.85 57.6 52.85 57.65 52.85 57.75 53.2 57.55 53.7 57.45 53.8 57.45 53.95 57.45 54.1 57.5 54.15 57.55 54.3 57.5 54.6 57.45 54.85 57.4 55.05 57.4 55.2 57.45 55.35 57.5 55.5 57.65 55.6 57.8 55.45 58.0 54.5 58.15 54.15 58.05 53.45 58.3 M52.1 57.15 L52.1 57.2 52.05 57.3 52.0 57.35 51.95 57.45 52.0 57.55 52.0 57.6 51.9 57.75 51.4 57.85 51.3 57.85 51.25 57.9 51.1 57.9 50.85 57.75 50.8 57.65 50.75 57.5 50.7 57.5 50.6 57.55 49.8 57.45 49.6 57.25 49.4 57.1 49.3 56.95 49.25 56.95 49.15 57.05 49.2 57.15 49.25 57.2 49.25 57.35 49.25 57.55 49.15 57.75 49.0 57.9 48.85 57.9 48.65 57.85 48.55 58.0 47.9 58.3 47.55 58.1 47.45 57.95 47.45 57.9 47.45 57.8 47.55 57.7 47.6 57.65 47.45 57.65 47.3 57.8 47.25 57.85 47.1 57.85 46.85 57.75 46.75 57.6 46.7 57.55 46.75 57.45 46.8 57.35 44.55 57.3 44.55 57.5 44.45 57.75 44.4 57.8 44.2 57.85 44.05 57.8 43.95 57.75 43.9 57.65 43.85 57.6 43.85 57.5 43.85 57.45 43.85 57.35 43.85 57.25 43.9 57.2 43.95 57.1 44.0 57.1 43.9 57.05 43.9 57.0 44.0 56.8 Q44.2 56.55 44.55 56.55 L45.45 56.35 45.4 56.25 45.4 56.2 45.35 56.1 45.35 56.05 45.35 55.95 45.4 55.8 45.45 55.7 45.65 55.6 46.05 55.35 46.45 55.15 46.55 55.05 46.6 54.95 46.65 54.85 46.6 54.8 46.6 54.7 46.6 54.65 46.6 54.55 46.6 54.4 46.65 54.35 46.7 54.25 46.8 54.2 46.9 54.15 46.95 54.1 47.1 54.1 47.1 54.05 47.2 54.1 47.4 54.15 47.55 54.2 47.7 54.3 47.85 54.4 48.55 54.2 50.1 54.25 50.25 54.45 50.3 54.5 50.2 54.8 Q51.0 54.7 51.2 55.55 51.35 56.2 50.6 56.45 L50.4 56.55 50.5 56.55 51.0 56.6 51.4 56.85 51.5 56.8 51.65 56.8 51.75 56.8 51.95 56.85 52.0 56.9 52.05 57.0 52.1 57.05 52.1 57.15 M58.7 57.1 L58.75 57.15 58.85 57.3 58.8 57.45 58.5 57.85 57.95 57.85 57.85 57.75 57.0 57.9 56.4 57.95 56.0 57.7 56.0 57.6 56.0 57.55 56.05 57.45 56.05 57.4 56.2 57.25 56.25 57.15 56.4 57.15 56.8 57.25 57.1 57.35 57.2 57.3 57.35 57.15 57.5 57.05 Q57.65 56.9 57.8 56.9 L58.0 56.95 58.1 57.0 58.1 57.05 58.2 57.0 58.35 56.95 58.55 57.0 58.7 57.1 M48.75 51.4 L48.95 51.5 49.1 51.55 49.2 51.75 49.35 51.9 49.35 52.0 49.35 52.1 49.2 52.25 49.1 52.35 48.75 52.6 48.45 52.45 48.35 52.4 48.25 52.25 48.2 52.1 48.15 51.9 48.2 51.85 48.25 51.75 48.35 51.6 48.75 51.45 48.75 51.4 M50.25 52.2 L49.7 52.2 49.9 52.05 50.25 52.2 M46.55 51.55 L46.65 51.4 46.8 51.35 47.05 51.5 47.15 51.75 46.95 51.95 46.6 51.95 46.55 51.9 46.5 51.8 46.5 51.75 46.55 51.55 M43.45 49.55 L43.45 49.5 43.05 49.55 43.45 49.55 M43.1 51.3 L43.05 51.35 43.0 51.45 42.95 51.5 42.9 51.5 42.55 51.45 Q42.3 51.4 42.2 51.2 L42.2 50.85 Q42.3 50.7 42.5 50.7 L42.75 50.7 42.9 50.75 43.0 50.85 43.1 51.05 43.1 51.1 43.1 51.2 43.1 51.3 M43.9 52.15 L43.7 52.1 43.7 52.0 43.7 51.95 43.75 51.85 43.9 51.8 44.25 51.9 Q44.45 52.0 44.25 52.1 L43.9 52.15 M44.75 52.05 L44.8 51.95 44.85 51.9 45.05 51.85 45.05 51.8 45.25 51.85 45.45 51.95 45.5 52.05 45.5 52.1 45.5 52.2 45.45 52.25 45.05 52.35 44.8 52.25 44.7 52.2 44.7 52.1 44.75 52.05 M41.4 51.6 L41.6 51.65 41.75 51.8 41.85 51.95 42.0 52.1 42.0 52.2 42.0 52.25 41.85 52.45 41.75 52.6 41.4 52.75 41.1 52.7 41.0 52.65 40.9 52.4 40.85 52.25 40.8 52.1 40.85 52.05 40.9 51.95 41.0 51.8 41.4 51.6 M43.05 58.0 L42.85 58.1 Q42.65 58.15 42.55 58.0 L42.55 57.75 42.65 57.65 42.75 57.55 42.9 57.6 43.0 57.7 43.05 57.75 43.1 57.9 43.05 58.0 M45.4 57.5 L45.5 57.55 45.6 57.65 45.6 57.7 45.65 57.75 45.7 57.65 45.8 57.6 45.95 57.55 46.2 57.7 46.3 57.9 46.2 58.1 45.95 58.25 45.8 58.2 45.7 58.1 45.65 57.95 45.6 57.85 45.5 58.0 45.15 58.1 44.9 58.0 44.8 57.95 44.8 57.85 44.8 57.8 44.8 57.7 44.8 57.65 44.9 57.55 44.95 57.5 45.0 57.5 45.1 57.45 45.2 57.45 45.4 57.5" fill="#e9c572" fill-rule="evenodd" stroke="none"/>
    <path d="M51.3 47.6 L56.05 49.8 Q60.75 51.75 60.75 54.5 60.75 57.45 56.7 58.7 L56.85 59.15 Q56.85 59.85 54.55 61.15 51.9 62.55 49.35 62.55 L46.9 62.1 46.75 62.05 Q45.2 62.65 44.1 63.3 L42.85 63.3 39.05 63.85 Q32.35 63.85 29.1 62.55 27.3 61.85 26.85 60.95 L25.05 61.65 21.05 62.4 Q12.65 62.4 7.85 60.45 4.4 59.05 4.4 57.7 4.4 55.6 8.95 53.6 L13.9 51.5 13.8 50.95 Q13.8 50.2 14.75 49.05 L15.65 47.9 15.5 47.55 15.2 47.35 Q13.55 46.3 13.55 45.35 13.55 43.6 16.5 41.9 20.1 39.75 26.0 39.75 30.2 39.75 31.55 41.6 32.85 43.45 34.25 43.45 L38.15 42.75 41.6 41.55 45.45 41.55 Q49.25 42.4 50.6 43.25 51.75 44.0 51.75 45.3 L51.3 47.6 M17.55 11.3 Q17.55 12.7 14.85 14.1 11.95 15.65 8.3 15.65 6.65 15.65 6.2 15.1 L6.0 14.55 Q6.0 14.05 6.45 13.3 L7.35 12.0 7.5 11.75 Q4.3 11.65 3.25 10.8 2.7 10.4 2.7 9.55 2.7 8.55 3.95 7.55 5.45 6.3 7.7 6.3 L13.5 6.3 Q14.4 6.35 14.85 6.95 15.2 7.35 15.2 7.85 15.2 8.5 14.75 8.85 L16.9 10.2 Q17.55 10.65 17.55 11.3 M7.5 32.4 L7.3 32.8 7.05 33.2 Q7.05 35.25 8.6 37.0 10.1 38.7 10.1 39.4 L9.6 41.1 Q8.85 42.45 7.4 42.45 6.85 42.45 5.15 41.35 L2.85 39.9 Q1.75 39.4 1.5 38.7 1.35 38.35 1.35 37.4 1.35 35.05 4.45 32.65 7.5 30.3 7.5 32.4" fill="#ffcc00" fill-rule="evenodd" stroke="none"/>
    <path d="M15.35 -0.45 L14.15 11.25 11.45 11.25 12.65 -0.45 15.35 -0.45 M25.2 -0.45 L26.45 11.25 23.75 11.25 22.5 -0.45 25.2 -0.45" fill="#a36c36" fill-rule="evenodd" stroke="none"/>
    <path d="M15.35 -0.45 L14.15 11.25 11.45 11.25 12.65 -0.45 15.35 -0.45 M25.2 -0.45 L26.45 11.25 23.75 11.25 22.5 -0.45 25.2 -0.45" fill="none" stroke="#50361b" stroke-linecap="butt" stroke-linejoin="round" stroke-width="1.0"/>
    <path d="M21.75 -16.3 L21.15 -13.7 20.4 -16.8 11.0 -16.4 11.55 3.0 15.5 3.15 16.6 1.65 16.75 3.4 26.65 3.3 27.05 -16.55 21.75 -16.3 Z" fill="none" stroke="#50361b" stroke-linecap="butt" stroke-linejoin="round" stroke-width="2.5"/>
    <path d="M21.15 -13.7 L21.75 -16.3 27.05 -16.55 26.65 3.3 16.75 3.4 16.6 1.65 15.5 3.15 11.55 3.0 11.0 -16.4 20.4 -16.8 21.15 -13.7" fill="#a36c36" fill-rule="evenodd" stroke="none"/>
    <path d="M24.3 -12.95 Q25.85 -11.15 25.75 -8.7 25.6 -5.65 24.15 -2.95 22.75 -0.4 19.85 0.65 L19.65 0.7 19.35 0.7 19.6 1.0 20.1 1.7 Q20.4 1.95 20.2 2.25 L18.75 2.55 17.5 2.45 17.45 2.1 17.8 1.6 18.05 1.05 18.15 0.7 17.95 0.6 17.4 0.35 Q15.95 -0.3 14.95 -1.5 13.05 -3.75 12.9 -6.6 12.75 -9.4 13.95 -11.8 15.4 -14.65 18.6 -15.1 22.2 -15.35 24.3 -12.95" fill="#ffffff" fill-opacity="0.69411767" fill-rule="evenodd" stroke="none"/>
    <path d="M23.05 -2.5 Q21.5 -0.45 19.25 -0.45 16.95 -0.45 15.35 -2.5 13.8 -4.5 13.8 -7.35 13.8 -10.25 15.35 -12.3 16.95 -14.25 19.25 -14.25 21.5 -14.25 23.05 -12.3 24.65 -10.25 24.65 -7.35 24.65 -4.5 23.05 -2.5" fill="#0000ff" fill-rule="evenodd" stroke="none"/>
    <path d="M21.8 -4.1 Q20.8 -2.7 19.25 -2.7 17.65 -2.7 16.55 -4.1 15.55 -5.5 15.55 -7.35 15.55 -9.3 16.55 -10.7 17.65 -12.0 19.25 -12.0 20.8 -12.0 21.8 -10.7 22.9 -9.3 22.9 -7.35 22.9 -5.5 21.8 -4.1" fill="#ff0000" fill-rule="evenodd" stroke="none"/>
    <path d="M19.25 -5.2 Q18.5 -5.2 17.95 -5.8 17.5 -6.45 17.5 -7.35 17.5 -8.3 17.95 -8.9 18.5 -9.55 19.25 -9.55 19.95 -9.55 20.35 -8.9 20.95 -8.3 20.95 -7.35 20.95 -6.45 20.35 -5.8 19.95 -5.2 19.25 -5.2" fill="#ffcc00" fill-rule="evenodd" stroke="none"/>
    <path d="M39.15 -0.45 L37.95 11.25 35.25 11.25 36.45 -0.45 39.15 -0.45 M49.0 -0.45 L50.25 11.25 47.55 11.25 46.3 -0.45 49.0 -0.45" fill="#a36c36" fill-rule="evenodd" stroke="none"/>
    <path d="M39.15 -0.45 L37.95 11.25 35.25 11.25 36.45 -0.45 39.15 -0.45 M49.0 -0.45 L50.25 11.25 47.55 11.25 46.3 -0.45 49.0 -0.45" fill="none" stroke="#50361b" stroke-linecap="butt" stroke-linejoin="round" stroke-width="1.0"/>
    <path d="M45.55 -16.3 L44.95 -13.7 44.2 -16.8 34.8 -16.4 35.35 3.0 39.3 3.15 40.4 1.65 40.55 3.4 50.45 3.3 50.85 -16.55 45.55 -16.3 Z" fill="none" stroke="#50361b" stroke-linecap="butt" stroke-linejoin="round" stroke-width="2.5"/>
    <path d="M44.95 -13.7 L45.55 -16.3 50.85 -16.55 50.45 3.3 40.55 3.4 40.4 1.65 39.3 3.15 35.35 3.0 34.8 -16.4 44.2 -16.8 44.95 -13.7" fill="#a36c36" fill-rule="evenodd" stroke="none"/>
    <path d="M36.7 -6.6 Q36.55 -9.4 37.75 -11.8 39.2 -14.65 42.4 -15.1 46.0 -15.35 48.1 -12.95 49.65 -11.15 49.55 -8.7 49.4 -5.65 47.95 -2.95 46.55 -0.4 43.65 0.65 L43.45 0.7 43.15 0.7 43.4 1.0 43.9 1.7 Q44.2 1.95 44.0 2.25 L42.55 2.55 41.3 2.45 41.25 2.1 41.6 1.6 41.85 1.05 41.95 0.7 41.75 0.6 Q41.4 0.55 41.2 0.35 39.75 -0.3 38.75 -1.5 36.85 -3.75 36.7 -6.6" fill="#ffffff" fill-opacity="0.69411767" fill-rule="evenodd" stroke="none"/>
    <path d="M37.6 -7.35 Q37.6 -10.25 39.15 -12.3 40.75 -14.25 43.05 -14.25 45.3 -14.25 46.85 -12.3 48.45 -10.25 48.45 -7.35 48.45 -4.5 46.85 -2.5 45.3 -0.45 43.05 -0.45 40.75 -0.45 39.15 -2.5 37.6 -4.5 37.6 -7.35" fill="#0000ff" fill-rule="evenodd" stroke="none"/>
    <path d="M39.35 -7.35 Q39.35 -9.3 40.35 -10.7 41.45 -12.0 43.05 -12.0 44.6 -12.0 45.6 -10.7 46.7 -9.3 46.7 -7.35 46.7 -5.5 45.6 -4.1 44.6 -2.7 43.05 -2.7 41.45 -2.7 40.35 -4.1 39.35 -5.5 39.35 -7.35" fill="#ff0000" fill-rule="evenodd" stroke="none"/>
    <path d="M44.15 -5.8 Q43.75 -5.2 43.05 -5.2 42.3 -5.2 41.75 -5.8 41.3 -6.45 41.3 -7.35 41.3 -8.3 41.75 -8.9 42.3 -9.55 43.05 -9.55 L44.15 -8.9 Q44.75 -8.3 44.75 -7.35 44.75 -6.45 44.15 -5.8" fill="#ffcc00" fill-rule="evenodd" stroke="none"/>
  </g>
</svg>
