<?xml version="1.0" encoding="UTF-8" standalone="no"?>
<svg xmlns:xlink="http://www.w3.org/1999/xlink" height="163.15px" width="297.0px" xmlns="http://www.w3.org/2000/svg">
  <g transform="matrix(1.0, 0.0, 0.0, 1.0, 149.5, 195.1)">
    <path d="M110.1 -113.7 L107.9 -54.05 Q-2.8 -50.15 -111.95 -31.95 L-126.1 -89.95 Q-120.1 -92.35 -102.5 -95.95 -67.2 -103.2 -8.7 -109.05 49.85 -114.95 85.8 -114.9 L110.1 -113.7" fill="#003358" fill-rule="evenodd" stroke="none"/>
    <path d="M110.1 -113.75 L108.95 -82.2 Q87.35 -84.4 66.1 -84.6 33.05 -85.05 -5.9 -81.1 -44.7 -77.2 -77.15 -70.2 -97.6 -65.8 -118.6 -59.3 L-126.1 -90.0 Q-120.3 -93.95 -102.8 -99.15 -67.85 -109.55 -9.35 -115.4 49.2 -121.3 85.5 -118.1 103.6 -116.45 110.1 -113.75" fill="#ffffff" fill-rule="evenodd" stroke="none"/>
    <path d="M71.15 -52.4 Q-2.65 -48.15 -75.65 -37.65 L-77.75 -52.35 -85.0 -103.8 Q-54.05 -110.9 -9.35 -115.4 35.3 -119.9 67.05 -119.1 L70.2 -67.25 71.15 -52.4" fill="#ffffff" fill-rule="evenodd" stroke="none"/>
    <path d="M23.25 -48.95 L-27.95 -43.8 -35.65 -112.35 -9.35 -115.4 17.15 -117.65 23.25 -48.95" fill="#003358" fill-rule="evenodd" stroke="none"/>
    <path d="M68.1 -55.15 Q71.2 -59.25 75.3 -63.0 88.35 -74.85 106.55 -78.7 117.6 -81.05 132.15 -70.8 145.65 -61.3 147.4 -53.1 148.8 -46.45 133.6 -39.95 119.7 -34.05 109.9 -34.35 90.7 -34.9 76.35 -43.45 71.9 -46.1 68.4 -49.25 L65.85 -51.9 68.1 -55.15" fill="#333333" fill-rule="evenodd" stroke="none"/>
    <path d="M66.1 -84.6 Q33.05 -85.05 -5.9 -81.1 -44.7 -77.2 -77.15 -70.2 L-80.2 -69.55 -85.0 -103.8 Q-54.05 -110.9 -9.35 -115.4 35.3 -119.9 67.05 -119.1 L69.15 -84.55 66.1 -84.6" fill="#003358" fill-rule="evenodd" stroke="none"/>
    <path d="M20.2 -83.3 L-5.9 -81.1 -31.8 -78.05 -35.65 -112.35 -9.35 -115.4 17.15 -117.65 20.2 -83.3" fill="#ffffff" fill-rule="evenodd" stroke="none"/>
    <path d="M95.05 -101.95 Q58.0 -74.9 0.6 -62.75 -56.85 -50.55 -100.55 -60.4 -144.3 -70.3 -148.95 -96.25 -153.65 -122.15 -116.55 -149.15 -79.55 -176.2 -22.1 -188.4 35.3 -200.55 79.05 -190.7 122.7 -180.8 127.4 -154.9 132.05 -128.95 95.05 -101.95" fill="#003358" fill-rule="evenodd" stroke="none"/>
  </g>
</svg>
