<?xml version="1.0" encoding="UTF-8" standalone="no"?>
<svg xmlns:xlink="http://www.w3.org/1999/xlink" height="27.1px" width="29.55px" xmlns="http://www.w3.org/2000/svg">
  <g transform="matrix(1.0, 0.0, 0.0, 1.0, 0.0, 0.0)">
    <path d="M28.0 2.85 L28.05 2.95 28.15 3.3 28.25 3.5 28.4 4.15 Q28.65 6.0 29.45 9.95 L29.45 14.2 29.55 18.5 29.55 19.55 29.55 20.45 29.55 20.5 29.5 20.85 29.45 21.6 29.35 21.8 29.3 22.15 27.65 25.0 27.4 25.4 27.35 25.4 26.1 26.3 25.05 26.65 20.1 26.65 17.15 26.95 16.95 26.85 12.05 26.8 11.05 26.65 8.35 26.8 6.5 27.1 5.35 27.1 4.25 26.7 3.1 26.3 2.4 25.5 1.95 24.8 1.8 24.15 1.45 22.05 1.25 21.45 Q0.1 12.2 0.0 8.4 L0.55 6.95 1.3 5.55 1.85 4.3 2.4 3.35 2.55 3.15 2.75 2.75 3.05 2.2 3.35 1.65 4.85 1.05 Q7.95 0.0 11.85 0.0 L16.8 0.1 17.2 0.25 17.6 0.45 19.95 0.5 21.4 0.55 21.65 0.55 24.55 0.6 25.05 0.65 25.3 0.7 26.15 0.9 26.9 1.25 27.35 1.8 27.7 2.35 27.75 2.45 28.0 2.85" fill="#333333" fill-opacity="0.2" fill-rule="evenodd" stroke="none"/>
  </g>
</svg>
