<?xml version="1.0" encoding="UTF-8" standalone="no"?>
<svg xmlns:xlink="http://www.w3.org/1999/xlink" height="71.9px" width="77.4px" xmlns="http://www.w3.org/2000/svg">
  <g transform="matrix(1.0, 0.0, 0.0, 1.0, 6.75, 6.5)">
    <path d="M48.25 31.05 L48.2 30.9 Q47.15 28.55 45.2 25.6 L45.15 25.55 Q42.0 20.7 38.3 17.35 28.8 8.7 18.1 13.45 7.25 18.3 7.25 31.1 L7.25 31.15 Q7.2 36.05 8.55 41.7 L8.6 41.75 Q9.3 44.9 10.4 48.3 L10.5 48.65 10.9 51.1 Q19.3 49.95 26.85 45.1 36.4 38.9 48.3 34.0 48.9 33.75 49.6 33.45 48.7 32.25 48.25 31.05 M47.7 7.0 Q52.7 11.5 56.9 17.9 L56.85 17.85 Q59.55 21.95 61.0 25.3 L61.0 25.2 Q61.6 25.95 63.15 26.95 L63.25 27.0 Q66.8 29.2 67.35 30.9 70.7 35.45 66.1 40.65 L66.2 40.55 Q65.4 42.1 60.35 44.25 L60.15 44.35 53.6 46.95 53.65 46.95 Q43.0 51.3 34.45 56.85 23.95 63.65 12.25 65.05 L4.4 65.3 4.35 65.3 Q-3.45 64.6 -3.75 61.2 L-3.8 61.1 Q-6.3 58.25 -3.9 53.55 L-3.65 53.1 -3.1 52.1 -5.05 44.9 Q-6.8 37.45 -6.75 31.0 -6.35 9.1 12.35 0.7 L12.3 0.7 Q31.2 -8.1 47.75 7.0 L47.7 7.0" fill="#000000" fill-opacity="0.3019608" fill-rule="evenodd" stroke="none"/>
    <path d="M63.15 31.9 Q63.95 31.0 63.5 30.25 63.2 29.7 61.75 28.8 58.0 26.4 56.9 24.0 55.65 21.15 53.3 17.6 49.65 12.0 45.3 8.05 32.3 -3.8 17.5 2.95 2.75 9.6 2.55 26.95 2.5 32.65 4.05 39.2 4.85 42.65 6.0 46.3 6.65 48.8 5.45 51.1 L4.65 52.55 Q4.35 53.15 4.55 53.5 4.85 54.0 7.25 54.2 L13.7 54.0 Q23.85 52.75 32.95 46.85 42.0 41.0 53.25 36.35 L59.9 33.7 Q62.6 32.55 63.15 31.9 Z" fill="none" stroke="#ffffff" stroke-linecap="round" stroke-linejoin="round" stroke-width="14.0"/>
    <path d="M45.3 8.05 Q32.3 -3.8 17.5 2.95 2.75 9.6 2.55 26.95 2.5 32.65 4.05 39.2 4.85 42.65 6.0 46.3 6.65 48.8 5.45 51.1 L4.65 52.55 Q4.35 53.15 4.55 53.5 4.85 54.0 7.25 54.2 L13.7 54.0 Q23.85 52.75 32.95 46.85 42.0 41.0 53.25 36.35 L59.9 33.7 Q62.6 32.55 63.15 31.9 63.95 31.0 63.5 30.25 63.2 29.7 61.75 28.8 58.0 26.4 56.9 24.0 55.65 21.15 53.3 17.6 49.65 12.0 45.3 8.05 Z" fill="none" stroke="#26370b" stroke-linecap="round" stroke-linejoin="round" stroke-width="8.0"/>
    <path d="M63.5 30.25 Q63.95 31.0 63.15 31.9 62.6 32.55 59.9 33.7 L53.25 36.35 Q42.0 41.0 32.95 46.85 23.85 52.75 13.7 54.0 L7.25 54.2 Q4.85 54.0 4.55 53.5 4.35 53.15 4.65 52.55 L5.45 51.1 Q6.65 48.8 6.0 46.3 4.85 42.65 4.05 39.2 2.5 32.65 2.55 26.95 2.75 9.6 17.5 2.95 32.3 -3.8 45.3 8.05 49.65 12.0 53.3 17.6 55.65 21.15 56.9 24.0 58.0 26.4 61.75 28.8 63.2 29.7 63.5 30.25" fill="url(#gradient0)" fill-rule="evenodd" stroke="none"/>
    <path d="M42.1 31.25 Q39.0 37.1 32.65 39.05 26.3 41.0 20.45 37.9 14.6 34.75 12.7 28.45 10.7 22.1 13.85 16.25 16.95 10.4 23.3 8.45 29.65 6.5 35.45 9.6 41.3 12.75 43.25 19.1 45.2 25.45 42.1 31.25 M38.7 20.5 Q37.35 16.05 33.25 13.85 30.15 12.2 26.9 12.55 L29.85 22.35 38.75 27.05 Q39.75 23.9 38.7 20.5 M22.4 13.95 Q19.6 15.5 18.05 18.5 15.85 22.6 17.25 27.05 18.2 30.2 20.5 32.2 L25.2 23.3 22.4 13.95 M24.05 34.35 Q26.35 35.2 28.8 35.0 L26.95 28.9 24.05 34.35 M33.3 33.65 Q35.4 32.6 36.8 30.75 L31.55 27.9 33.3 33.65" fill="#ffffff" fill-opacity="0.72156864" fill-rule="evenodd" stroke="none"/>
    <path d="M13.55 10.5 Q11.55 16.05 11.15 18.3 10.75 20.35 10.75 25.0 10.75 29.65 12.15 34.2 13.05 37.15 15.25 41.75 17.6 46.65 18.35 48.8 L19.4 52.9 13.7 54.0 7.25 54.2 Q4.85 54.0 4.55 53.5 4.35 53.15 4.65 52.55 L5.45 51.1 Q6.65 48.8 6.0 46.3 4.85 42.65 4.05 39.2 2.5 32.65 2.55 26.95 2.75 9.6 17.5 2.95 L18.1 2.65 17.4 3.35 15.35 6.95 Q14.05 9.1 13.55 10.5" fill="#000000" fill-opacity="0.18039216" fill-rule="evenodd" stroke="none"/>
  </g>
  <defs>
    <linearGradient gradientTransform="matrix(0.0194, -0.0154, 0.0204, 0.0257, 35.45, 22.4)" gradientUnits="userSpaceOnUse" id="gradient0" spreadMethod="pad" x1="-819.2" x2="819.2">
      <stop offset="0.0" stop-color="#71a21e"/>
      <stop offset="1.0" stop-color="#8ac824"/>
    </linearGradient>
  </defs>
</svg>
