<?xml version="1.0" encoding="UTF-8" standalone="no"?>
<svg xmlns:xlink="http://www.w3.org/1999/xlink" height="129.6px" width="142.05px" xmlns="http://www.w3.org/2000/svg">
  <g transform="matrix(1.0, 0.0, 0.0, 1.0, -564.5, -80.05)">
    <path d="M683.35 86.3 Q686.35 86.55 688.25 88.0 L688.6 89.0 Q690.1 92.75 691.45 94.75 L691.45 95.1 691.85 95.4 Q693.15 97.2 694.25 97.2 L694.65 97.2 696.25 97.95 696.8 101.15 697.45 103.35 697.45 103.55 Q698.45 108.05 698.45 115.2 L698.35 115.9 698.4 116.1 699.45 122.75 698.9 125.65 Q698.0 131.55 697.8 134.8 L697.75 137.35 698.4 141.6 Q699.3 147.1 699.4 150.4 L700.0 150.5 701.0 150.3 701.4 151.75 701.25 152.65 701.8 158.7 Q702.05 167.1 702.35 169.0 L702.35 185.9 702.65 186.4 702.8 187.5 Q702.8 188.5 702.0 189.4 L700.4 190.45 694.7 198.8 Q693.5 198.8 692.8 198.25 688.65 200.4 680.75 202.4 L672.6 204.25 671.7 204.1 655.05 204.1 Q654.55 203.6 653.55 203.5 L646.7 204.1 645.85 203.85 Q638.8 202.55 634.65 201.15 L619.75 201.15 Q616.35 201.55 616.35 203.6 L616.55 204.6 597.25 206.55 595.35 206.9 594.45 206.6 Q594.05 206.4 593.95 205.8 592.6 205.55 591.35 204.6 L588.45 202.7 Q584.7 201.3 581.85 200.75 579.6 200.35 579.05 200.0 577.8 199.25 577.35 196.25 L577.15 193.05 Q577.15 189.7 575.0 172.1 572.8 154.45 572.8 149.65 572.8 148.3 573.8 146.45 572.95 141.85 572.0 134.4 L569.9 114.85 569.9 114.7 Q572.0 114.7 572.85 113.1 573.35 112.2 573.35 111.0 573.35 107.8 571.9 104.2 L570.6 101.6 Q570.75 100.95 571.05 100.25 L572.55 97.7 575.35 92.3 576.35 91.2 578.0 91.25 Q583.1 91.25 585.05 90.3 586.5 89.6 586.5 88.0 586.5 86.65 586.0 86.05 L587.65 84.85 592.9 84.85 602.7 84.45 620.05 84.45 635.0 84.0 644.25 84.25 650.75 84.6 664.25 83.5 666.2 83.1 Q674.5 81.7 674.7 85.45 L679.25 86.65 683.35 86.3" fill="#ce9d46" fill-rule="evenodd" stroke="none"/>
    <path d="M665.85 80.95 L666.05 82.85 665.85 85.1 664.9 85.5 Q664.3 84.95 663.85 83.85 663.35 82.7 663.35 81.75 663.35 81.25 663.8 80.95 664.45 80.55 665.85 80.95 M688.55 97.3 L688.3 95.85 690.2 93.65 Q691.8 92.1 693.4 92.1 L693.55 92.2 693.65 92.9 Q693.65 94.55 688.55 97.3 M696.5 113.75 Q696.3 113.6 696.3 112.9 696.3 112.2 697.35 112.05 L703.65 111.8 704.45 112.35 704.8 113.0 704.6 113.95 702.15 114.15 696.65 113.95 696.5 113.75 M700.05 135.2 L700.15 135.95 Q700.15 137.0 694.05 138.1 L693.25 138.0 693.3 137.9 Q693.05 138.4 693.05 137.25 693.05 136.4 695.95 135.35 698.9 134.3 699.9 135.0 L700.05 135.2 M697.55 141.65 L701.2 141.4 701.3 141.6 701.4 142.4 Q701.4 142.85 700.25 143.55 698.95 144.4 697.7 144.4 696.1 144.4 695.45 143.75 695.35 144.25 695.35 143.1 695.35 142.45 697.55 141.65 M700.7 174.95 L699.9 174.75 Q699.6 174.5 699.6 173.75 699.6 172.85 701.0 172.35 L706.3 172.1 706.55 173.05 706.3 174.0 700.7 174.95 M684.25 205.4 Q682.8 205.4 682.05 202.7 L681.6 200.1 Q681.6 196.7 683.7 200.0 685.75 203.3 685.75 204.2 685.75 205.4 684.25 205.4 M665.3 208.7 Q664.45 208.5 664.25 207.65 L664.15 206.2 Q664.15 202.05 665.35 202.05 666.5 202.0 666.5 206.15 L666.35 208.25 665.3 208.7 M603.15 81.55 Q604.2 82.6 604.35 84.8 L604.75 88.85 603.55 89.55 602.25 86.9 602.15 85.0 Q602.15 82.2 603.15 81.55 M592.7 82.7 Q592.7 77.65 596.1 87.95 L596.0 88.9 595.9 89.15 595.05 89.35 Q593.8 89.35 593.15 85.95 L592.7 82.7 M627.7 80.65 Q628.6 82.1 629.6 85.4 L629.5 86.15 Q629.4 86.45 628.7 86.45 627.75 86.45 627.1 84.0 L626.65 81.75 Q626.65 79.05 627.7 80.65 M564.5 101.1 Q564.5 99.15 575.45 101.5 L575.15 102.3 572.05 102.35 565.7 101.9 564.7 101.6 Q564.5 102.2 564.5 101.1 M575.6 138.8 L575.65 139.05 572.9 140.15 569.9 141.05 569.0 140.9 568.95 140.75 Q568.75 141.4 568.75 140.3 568.75 139.8 571.45 139.1 L575.6 138.8 M573.55 156.25 L577.6 156.4 577.75 156.55 577.85 157.25 Q577.85 158.75 572.65 158.75 L570.55 158.65 570.25 157.6 Q571.2 156.55 573.55 156.25 M575.0 176.35 L573.0 176.0 571.1 175.25 Q570.95 175.75 570.95 174.6 570.95 173.3 576.05 173.75 L576.2 175.05 576.05 176.0 575.85 176.2 575.0 176.35 M580.55 197.6 L580.9 198.65 579.3 200.65 577.15 202.75 576.3 202.5 Q576.05 202.3 576.05 201.55 L577.35 199.25 Q578.85 196.95 579.7 196.75 L580.55 197.6 M602.5 202.5 Q605.15 202.3 605.15 206.55 L605.05 207.35 604.75 207.5 Q605.1 207.85 604.0 207.85 602.65 207.85 602.4 206.55 L602.4 205.1 602.5 202.5 M594.2 206.85 Q594.2 200.9 595.5 200.9 596.75 200.85 596.75 206.95 L596.75 208.6 Q596.55 209.65 595.45 209.65 594.45 209.65 594.2 208.1 L594.2 206.85" fill="#ae822f" fill-rule="evenodd" stroke="none"/>
  </g>
</svg>
