<?xml version="1.0" encoding="UTF-8" standalone="no"?>
<svg xmlns:xlink="http://www.w3.org/1999/xlink" height="69.0px" width="83.75px" xmlns="http://www.w3.org/2000/svg">
  <g transform="matrix(1.0, 0.0, 0.0, 1.0, 41.85, 33.9)">
    <path d="M-31.85 -31.9 L31.9 -31.9 39.9 -25.25 -39.85 -25.25 -31.85 -31.9" fill="#5e7e34" fill-rule="evenodd" stroke="none"/>
    <path d="M-31.85 -31.9 L31.9 -31.9 39.9 -25.25 -39.85 -25.25 -31.85 -31.9 Z" fill="none" stroke="#b46301" stroke-linecap="round" stroke-linejoin="round" stroke-width="4.0"/>
    <path d="M-39.85 33.1 L-39.85 -25.2 39.9 -25.2 39.9 33.1 -39.85 33.1" fill="#b46301" fill-rule="evenodd" stroke="none"/>
    <path d="M-39.85 33.1 L-39.85 -25.2 39.9 -25.2 39.9 33.1 -39.85 33.1 Z" fill="none" stroke="#b46301" stroke-linecap="round" stroke-linejoin="round" stroke-width="4.0"/>
    <path d="M-31.85 -31.9 L31.9 -31.9 39.9 -25.25 -39.85 -25.25 -31.85 -31.9" fill="#ffc412" fill-rule="evenodd" stroke="none"/>
    <path d="M39.9 27.4 L-39.85 27.4 -39.85 -1.55 39.9 -1.55 39.9 27.4" fill="#d78e00" fill-rule="evenodd" stroke="none"/>
    <path d="M-39.85 28.75 L39.9 28.75 39.9 33.1 -39.85 33.1 -39.85 28.75" fill="#d7a200" fill-rule="evenodd" stroke="none"/>
    <path d="M-39.85 -19.7 L39.9 -19.7 39.9 -2.85 -39.85 -2.85 -39.85 -19.7" fill="#d78e00" fill-rule="evenodd" stroke="none"/>
    <path d="M-39.85 -25.25 L39.9 -25.25 39.9 -20.9 -39.85 -20.9 -39.85 -25.25" fill="#d7a200" fill-rule="evenodd" stroke="none"/>
    <path d="M18.3 -19.7 L18.3 -2.85 15.25 -2.85 15.3 -19.7 18.3 -19.7 M18.3 -25.25 L18.35 -20.9 15.3 -20.9 15.25 -25.25 18.3 -25.25 M15.25 -1.55 L18.3 -1.55 18.3 27.4 15.25 27.4 15.25 -1.55 M15.25 33.1 L15.2 33.75 15.25 28.75 18.3 28.75 18.3 33.1 15.25 33.1" fill="#ffff99" fill-opacity="0.5019608" fill-rule="evenodd" stroke="none"/>
    <path d="M1.55 16.7 Q1.55 16.1 2.0 15.65 2.45 15.2 3.1 15.2 L10.3 15.15 Q10.95 15.15 11.4 15.6 11.8 16.1 11.8 16.65 L11.85 23.8 11.4 24.85 10.35 25.3 6.75 25.35 Q6.15 25.35 5.7 24.9 5.2 24.4 5.2 23.85 L5.2 20.3 Q5.2 19.65 5.65 19.2 6.1 18.75 6.7 18.75 7.35 18.75 7.8 19.2 8.25 19.65 8.25 20.3 L8.3 22.25 8.8 22.25 8.8 18.25 4.6 18.25 4.6 27.45 1.55 27.45 1.55 16.7" fill="#b46301" fill-rule="evenodd" stroke="none"/>
    <path d="M-15.0 -25.25 L-15.0 -2.85 -24.65 -2.85 -24.6 -19.7 -15.0 -19.7 -15.0 -20.9 -24.6 -20.9 -24.65 -25.25 -15.0 -25.25 M-9.7 -25.25 L-9.7 -2.85 -12.75 -2.85 -12.7 -19.7 -9.7 -19.7 -9.7 -20.9 -12.7 -20.9 -12.75 -25.25 -9.7 -25.25 M-12.75 -1.55 L-9.7 -1.55 -9.7 27.4 -12.75 27.4 -12.75 -1.55 M-24.65 -1.55 L-15.0 -1.55 -15.0 27.4 -24.65 27.4 -24.65 -1.55 M-24.65 33.1 L-24.7 33.75 -24.65 28.75 -15.0 28.75 -15.0 33.1 -24.65 33.1 M-12.75 33.1 L-12.8 33.75 -12.75 28.75 -9.7 28.75 -9.7 33.1 -12.75 33.1" fill="#ffff99" fill-opacity="0.5019608" fill-rule="evenodd" stroke="none"/>
    <path d="M-2.65 16.7 L-2.65 27.45 -5.75 27.45 -5.75 18.25 -9.9 18.25 -9.9 22.25 -9.4 22.25 -9.35 20.3 Q-9.35 19.65 -8.9 19.2 -8.45 18.75 -7.85 18.75 -7.2 18.75 -6.75 19.2 -6.3 19.65 -6.3 20.3 L-6.3 23.85 Q-6.3 24.4 -6.8 24.9 -7.25 25.35 -7.9 25.35 L-11.45 25.3 Q-12.1 25.3 -12.55 24.85 L-13.0 23.8 -12.95 16.65 Q-12.95 16.1 -12.55 15.6 L-12.5 15.6 Q-12.05 15.15 -11.4 15.15 L-4.2 15.2 Q-3.6 15.2 -3.15 15.65 -2.65 16.1 -2.65 16.7" fill="#b46301" fill-rule="evenodd" stroke="none"/>
    <path d="M2.55 16.7 L2.75 16.35 Q2.85 16.2 3.1 16.2 L10.3 16.2 10.65 16.3 10.8 16.65 10.85 23.8 10.65 24.15 10.3 24.3 6.75 24.35 6.4 24.15 6.25 23.8 6.2 20.3 Q6.2 20.05 6.35 19.95 6.5 19.75 6.7 19.75 L7.1 19.95 7.2 20.3 7.25 23.3 9.8 23.25 9.8 17.2 3.6 17.2 3.6 27.45 2.55 27.45 2.55 16.7" fill="#8dd234" fill-rule="evenodd" stroke="none"/>
    <path d="M-3.65 16.7 L-3.65 27.45 -4.7 27.45 -4.7 17.2 -10.9 17.2 -10.9 23.25 -8.35 23.3 -8.35 20.3 -8.2 19.95 -7.85 19.75 -7.45 19.95 Q-7.3 20.05 -7.3 20.3 L-7.35 23.8 -7.5 24.15 Q-7.65 24.35 -7.9 24.35 L-11.4 24.3 -11.75 24.15 -11.95 23.8 -11.9 16.65 -11.75 16.3 -11.4 16.2 -4.2 16.2 Q-4.0 16.2 -3.85 16.35 L-3.65 16.7" fill="#8dd234" fill-rule="evenodd" stroke="none"/>
    <path d="M-16.65 26.15 L-39.85 26.15 -39.85 22.05 -18.95 22.05 -18.9 9.1 -31.05 9.05 -31.15 15.75 -27.3 15.8 -27.25 12.65 Q-27.25 11.6 -26.45 11.05 L-26.5 11.1 Q-25.9 10.55 -25.0 10.55 -24.1 10.55 -23.4 11.15 -22.75 11.75 -22.75 12.65 L-22.85 17.95 Q-22.85 18.75 -23.5 19.35 L-23.6 19.45 -23.6 19.5 -25.05 19.95 -33.45 19.9 Q-34.3 19.9 -34.95 19.25 -35.65 18.65 -35.65 17.8 L-35.55 7.0 Q-35.55 6.15 -34.9 5.5 -34.2 4.95 -33.3 4.95 L-16.65 4.95 Q-15.75 4.95 -15.05 5.6 -14.35 6.25 -14.35 7.05 L-14.4 24.1 Q-14.4 24.9 -15.1 25.55 -15.75 26.15 -16.65 26.15" fill="#b46301" fill-rule="evenodd" stroke="none"/>
    <path d="M22.95 -19.7 L22.95 -2.85 19.9 -2.85 19.95 -19.7 22.95 -19.7 M22.95 -25.25 L23.0 -20.9 19.95 -20.9 19.9 -25.25 22.95 -25.25 M19.9 -1.55 L22.95 -1.55 22.95 27.4 19.9 27.4 19.9 -1.55 M19.9 33.1 L19.85 33.75 19.9 28.75 22.95 28.75 22.95 33.1 19.9 33.1" fill="#ffff99" fill-opacity="0.5019608" fill-rule="evenodd" stroke="none"/>
    <path d="M19.25 -31.9 L23.0 -25.25 19.95 -25.25 16.2 -31.9 19.25 -31.9" fill="#ffff99" fill-opacity="0.5019608" fill-rule="evenodd" stroke="none"/>
    <path d="M21.1 -13.65 L21.1 -13.5 21.9 -13.65 21.1 -13.65 M34.55 -5.5 Q33.75 -5.5 33.15 -6.1 32.55 -6.65 32.55 -7.5 L32.55 -13.65 31.55 -13.65 31.55 -7.5 Q31.55 -6.65 30.9 -6.1 30.3 -5.5 29.5 -5.5 L19.1 -5.5 Q18.25 -5.5 17.7 -6.1 17.05 -6.65 17.05 -7.5 L17.05 -15.65 Q17.05 -16.5 17.7 -17.05 18.25 -17.7 19.1 -17.7 L24.35 -17.7 Q25.15 -17.7 25.8 -17.05 26.4 -16.5 26.4 -15.65 L26.4 -11.65 Q26.4 -10.9 25.8 -10.25 25.15 -9.65 24.35 -9.65 L22.0 -9.65 21.1 -9.85 21.1 -9.5 27.5 -9.5 27.5 -15.65 Q27.5 -16.5 28.1 -17.05 28.7 -17.7 29.5 -17.7 L34.55 -17.7 Q35.4 -17.7 35.95 -17.05 36.55 -16.5 36.55 -15.65 L36.55 -9.5 39.9 -9.5 39.9 -5.5 34.55 -5.5" fill="#b46301" fill-rule="evenodd" stroke="none"/>
    <path d="M-35.65 -5.5 L-39.85 -5.5 -39.85 -9.5 -37.6 -9.5 -37.6 -15.65 Q-37.6 -16.5 -37.05 -17.05 -36.45 -17.7 -35.65 -17.7 L-30.6 -17.7 Q-29.75 -17.7 -29.2 -17.05 -28.55 -16.5 -28.55 -15.65 L-28.55 -9.5 -22.15 -9.5 -22.15 -9.85 -23.05 -9.65 -25.45 -9.65 Q-26.25 -9.65 -26.85 -10.25 -27.45 -10.9 -27.45 -11.65 L-27.45 -15.65 Q-27.45 -16.5 -26.85 -17.05 -26.25 -17.7 -25.45 -17.7 L-20.15 -17.7 Q-19.35 -17.7 -18.75 -17.05 -18.15 -16.5 -18.15 -15.65 L-18.15 -7.5 Q-18.15 -6.65 -18.75 -6.1 -19.35 -5.5 -20.15 -5.5 L-30.6 -5.5 Q-31.4 -5.5 -31.95 -6.1 -32.6 -6.65 -32.6 -7.5 L-32.6 -13.65 -33.6 -13.65 -33.6 -7.5 Q-33.6 -6.65 -34.2 -6.1 -34.85 -5.5 -35.65 -5.5 M-22.15 -13.65 L-22.95 -13.65 -22.15 -13.5 -22.15 -13.65" fill="#b46301" fill-rule="evenodd" stroke="none"/>
    <path d="M27.4 -0.75 Q28.2 -0.75 28.75 -0.25 L29.2 0.35 29.65 -0.25 Q30.15 -0.75 30.95 -0.75 L32.65 -0.75 Q33.45 -0.75 34.0 -0.25 34.55 0.25 34.55 0.95 L34.55 2.55 Q34.55 3.25 34.05 3.75 L34.0 3.8 32.65 4.25 30.95 4.25 Q30.15 4.25 29.65 3.75 L29.2 3.15 28.8 3.75 28.75 3.8 27.4 4.25 25.7 4.25 Q24.9 4.25 24.4 3.75 L23.95 3.15 23.55 3.75 23.5 3.8 22.15 4.25 20.45 4.25 Q19.65 4.25 19.15 3.75 L18.7 3.15 18.3 3.75 18.25 3.8 16.9 4.25 15.2 4.25 Q14.4 4.25 13.9 3.75 13.3 3.25 13.3 2.55 L13.3 0.95 Q13.3 0.25 13.9 -0.25 14.4 -0.75 15.2 -0.75 L16.9 -0.75 Q17.7 -0.75 18.25 -0.25 L18.7 0.35 Q18.85 0.0 19.15 -0.25 19.65 -0.75 20.45 -0.75 L22.15 -0.75 Q22.95 -0.75 23.5 -0.25 L23.95 0.35 24.4 -0.25 Q24.9 -0.75 25.7 -0.75 L27.4 -0.75" fill="#b46301" fill-rule="evenodd" stroke="none"/>
    <path d="M-16.6 -31.9 L-6.95 -31.9 -15.0 -25.25 -24.65 -25.25 -16.6 -31.9 M-4.7 -31.9 L-1.65 -31.9 -9.7 -25.25 -12.75 -25.25 -4.7 -31.9" fill="#ffff99" fill-opacity="0.5019608" fill-rule="evenodd" stroke="none"/>
    <path d="M-21.9 -32.6 L-22.25 -32.35 -18.6 -28.5 -18.3 -28.6 -19.4 -30.55 -20.6 -32.05 -21.4 -32.1 -21.6 -32.25 -21.9 -32.6 M-18.7 -32.1 L-18.9 -32.05 -18.95 -31.9 -18.6 -31.3 -18.0 -30.7 -17.2 -30.7 -16.9 -31.2 -17.5 -31.95 -18.7 -32.1 M-17.35 -31.25 L-17.35 -31.1 Q-18.15 -31.1 -18.4 -31.55 L-18.4 -31.65 -17.65 -31.6 -17.35 -31.25 M-25.7 -29.25 L-25.95 -28.6 -26.05 -28.6 -25.9 -29.0 -25.7 -29.25 M-26.45 -29.45 Q-26.3 -29.35 -26.4 -28.7 -26.45 -28.2 -26.0 -28.2 -25.6 -28.2 -25.45 -28.65 L-25.35 -29.15 Q-25.35 -30.15 -26.45 -29.45 M-28.3 -27.9 L-28.25 -27.8 -27.05 -29.2 -27.15 -29.4 -27.85 -28.7 -28.3 -27.9 M-34.85 -25.1 L-34.25 -23.55 -33.3 -21.85 Q-33.1 -21.95 -33.1 -22.45 L-33.4 -23.7 -33.65 -24.95 Q-33.65 -25.4 -31.15 -27.05 L-29.55 -27.9 Q-28.75 -28.35 -28.6 -28.85 -29.45 -28.7 -30.3 -28.15 L-31.9 -27.2 Q-34.85 -25.65 -34.85 -25.1 M-35.0 -26.9 L-36.25 -26.25 -37.35 -25.3 Q-36.8 -23.25 -36.35 -22.95 L-36.3 -23.65 -36.6 -25.4 -34.9 -26.75 -35.0 -26.9 M-38.7 -20.25 L-39.25 -20.25 -39.3 -20.0 Q-39.3 -19.65 -38.1 -18.4 -37.5 -17.0 -36.95 -17.0 L-36.75 -17.05 -36.65 -17.25 Q-36.65 -17.8 -38.7 -20.25 M-38.7 -2.2 L-38.85 -2.05 -38.8 -1.95 -39.9 -2.4 -39.9 -2.05 -39.2 -1.35 -38.0 -0.35 -37.8 -0.65 Q-37.8 -1.05 -38.15 -1.4 L-37.9 -1.3 -36.95 -0.55 -36.2 0.25 -35.35 0.85 -35.15 0.8 -35.1 0.6 -37.45 -2.05 -37.6 -1.95 -37.7 -1.85 -38.05 -2.0 -38.7 -2.2 M-13.0 -6.4 L-13.35 -6.05 -13.35 -5.75 -14.95 -6.8 -12.75 -4.75 Q-11.4 -3.7 -10.85 -3.65 L-10.8 -3.8 -11.75 -4.65 -11.35 -4.65 -11.25 -4.9 -11.55 -5.65 -11.9 -6.15 -13.0 -6.4 M-15.65 -5.7 L-15.7 -5.55 -14.8 -5.0 -14.0 -4.3 -12.85 -3.85 -11.85 -3.35 -13.45 -4.85 -14.05 -5.25 -14.5 -5.55 Q-15.1 -6.0 -15.65 -5.7 M-37.65 12.95 L-38.75 12.85 -39.8 13.5 -39.9 13.55 -39.9 14.55 -37.65 12.95 M-38.35 17.05 L-36.2 15.3 Q-36.1 14.75 -35.1 13.75 L-33.85 12.5 -35.3 12.9 -37.9 14.3 -39.4 15.1 -39.9 15.4 -39.9 18.3 -38.35 17.05 M32.85 -27.6 Q33.1 -26.85 33.9 -26.0 L34.6 -25.15 34.0 -23.85 33.4 -22.4 33.45 -22.15 33.7 -22.0 Q34.3 -22.0 35.55 -25.3 L34.4 -26.45 32.85 -27.6 M30.55 -27.3 L31.5 -26.1 32.25 -25.35 Q32.25 -24.9 32.55 -24.45 L32.85 -24.45 32.9 -25.1 32.95 -25.25 31.8 -26.5 31.15 -26.95 30.55 -27.3 M19.4 -32.2 L20.3 -31.65 21.0 -31.2 21.3 -31.3 20.4 -32.3 Q19.6 -32.95 19.4 -32.2 M21.05 -32.5 L22.85 -30.95 25.25 -29.7 25.45 -29.75 25.55 -30.0 24.85 -30.85 23.55 -31.9 22.0 -32.95 Q21.05 -33.3 21.05 -32.5 M17.4 -20.7 Q17.4 -20.25 17.7 -20.25 18.2 -20.25 18.2 -20.5 L18.25 -20.35 18.45 -20.4 Q18.7 -21.1 19.45 -22.0 L20.1 -22.95 20.05 -23.15 Q19.15 -23.2 17.4 -20.7 M37.85 13.0 Q37.85 13.3 38.6 13.95 L39.55 14.8 39.85 15.15 39.85 13.5 39.45 13.3 38.55 12.65 Q37.85 12.2 37.85 13.0 M36.55 14.8 L36.5 15.05 Q36.5 15.85 39.65 18.3 L39.85 18.45 39.85 16.35 39.8 16.3 37.95 15.4 Q36.85 14.85 36.55 14.8 M12.35 -6.05 L12.3 -5.85 13.5 -5.15 15.75 -4.0 17.85 -3.0 Q19.15 -2.25 19.45 -2.25 L19.7 -2.55 20.45 -2.35 20.55 -2.5 18.4 -3.55 16.7 -4.2 14.75 -5.4 Q13.6 -6.1 12.35 -6.05 M15.2 -3.5 L15.0 -3.25 Q15.0 -3.0 16.0 -2.6 L17.25 -2.15 17.55 -2.15 16.45 -2.9 15.2 -3.5 M18.7 -20.45 L18.85 -20.35 19.5 -20.75 20.0 -21.6 Q19.7 -21.75 19.2 -21.2 L18.7 -20.45 M27.95 -4.95 L27.9 -4.75 Q27.9 -4.1 31.2 -3.35 L31.35 -3.35 31.3 -3.4 31.45 -3.45 Q29.15 -4.85 27.95 -4.95 M31.15 -4.15 L31.85 -3.35 32.4 -3.35 32.75 -3.85 Q32.75 -4.5 31.95 -4.7 31.15 -4.9 31.15 -4.15 M0.1 21.2 Q1.75 20.05 2.95 17.9 2.4 17.95 2.05 18.4 L1.4 19.4 0.1 21.2 M-1.45 24.65 L-1.45 24.75 1.25 22.05 3.3 19.4 3.25 19.2 3.2 19.15 Q1.35 20.3 -1.45 24.65 M3.35 29.2 L4.7 33.1 5.9 33.1 4.85 31.0 4.25 29.55 Q4.15 29.0 3.75 28.8 3.35 28.55 3.35 29.2 M5.9 30.75 Q5.65 30.85 5.65 31.05 L6.25 32.7 6.45 33.1 7.6 33.1 7.2 32.4 5.9 30.75 M-20.05 28.0 L-20.15 28.05 -20.2 28.2 -17.2 33.1 -16.05 33.1 -17.65 30.6 Q-19.2 28.45 -20.05 28.0 M-21.55 28.35 L-21.65 28.85 Q-21.65 29.65 -20.6 30.7 L-18.55 32.5 Q-21.15 28.65 -21.55 28.35" fill="#b46301" fill-rule="evenodd" stroke="none"/>
    <path d="M-9.6 2.0 Q-9.05 -5.0 -10.75 -12.0 L-1.0 -12.0 -0.1 -12.0 9.65 -12.0 Q7.95 -5.0 8.5 2.0 L-0.1 2.0 -1.0 2.0 -9.6 2.0" fill="#c2421e" fill-rule="evenodd" stroke="none"/>
    <path d="M-9.6 2.0 Q-9.05 -5.0 -10.75 -12.0 L-1.0 -12.0 -0.1 -12.0 9.65 -12.0 Q7.95 -5.0 8.5 2.0 L-0.1 2.0 -1.0 2.0 -9.6 2.0 Z" fill="none" stroke="#b46301" stroke-linecap="round" stroke-linejoin="round" stroke-width="4.0"/>
    <path d="M-28.35 -0.75 Q-29.15 -0.75 -29.7 -0.25 L-30.15 0.35 -30.6 -0.25 Q-31.1 -0.75 -31.9 -0.75 L-33.6 -0.75 Q-34.4 -0.75 -34.95 -0.25 -35.5 0.25 -35.5 0.95 L-35.5 2.55 Q-35.5 3.25 -35.0 3.75 L-34.95 3.8 -33.6 4.25 -31.9 4.25 Q-31.1 4.25 -30.6 3.75 L-30.15 3.15 -29.75 3.75 -29.7 3.8 -28.35 4.25 -26.65 4.25 Q-25.85 4.25 -25.35 3.75 L-24.9 3.15 -24.5 3.75 -24.45 3.8 -23.1 4.25 -21.4 4.25 Q-20.6 4.25 -20.1 3.75 L-19.65 3.15 -19.25 3.75 -19.2 3.8 -17.85 4.25 -16.15 4.25 Q-15.35 4.25 -14.85 3.75 -14.25 3.25 -14.25 2.55 L-14.25 0.95 Q-14.25 0.25 -14.85 -0.25 -15.35 -0.75 -16.15 -0.75 L-17.85 -0.75 Q-18.65 -0.75 -19.2 -0.25 L-19.65 0.35 -20.1 -0.25 Q-20.6 -0.75 -21.4 -0.75 L-23.1 -0.75 Q-23.9 -0.75 -24.45 -0.25 L-24.9 0.35 Q-25.05 0.0 -25.35 -0.25 -25.85 -0.75 -26.65 -0.75 L-28.35 -0.75" fill="#b46301" fill-rule="evenodd" stroke="none"/>
    <path d="M-7.55 10.9 L-9.25 10.9 -9.25 12.5 -7.55 12.5 -7.55 10.9 M-2.3 10.9 L-4.0 10.9 -4.0 12.5 -2.3 12.5 -2.3 10.9 M2.95 10.9 L1.25 10.9 1.25 12.5 2.95 12.5 2.95 10.9 M8.2 10.9 L6.5 10.9 6.5 12.5 8.2 12.5 8.2 10.9" fill="#b46301" fill-rule="evenodd" stroke="none"/>
    <path d="M-7.55 10.9 L-9.25 10.9 -9.25 12.5 -7.55 12.5 -7.55 10.9 M-2.3 10.9 L-4.0 10.9 -4.0 12.5 -2.3 12.5 -2.3 10.9 M2.95 10.9 L1.25 10.9 1.25 12.5 2.95 12.5 2.95 10.9 M8.2 10.9 L6.5 10.9 6.5 12.5 8.2 12.5 8.2 10.9" fill="none" stroke="#b46301" stroke-linecap="round" stroke-linejoin="round" stroke-width="4.0"/>
    <path d="M15.7 26.15 Q14.8 26.15 14.1 25.55 13.45 24.9 13.45 24.1 L13.4 7.05 Q13.4 6.25 14.05 5.6 14.8 4.95 15.7 4.95 L32.35 4.95 Q33.25 4.95 33.9 5.5 34.55 6.15 34.55 7.0 L34.65 17.8 Q34.65 18.65 34.0 19.25 33.3 19.9 32.45 19.9 L24.1 19.95 Q23.25 19.95 22.6 19.5 L22.6 19.45 22.55 19.35 Q21.85 18.75 21.85 17.95 L21.75 12.65 Q21.75 11.75 22.45 11.15 23.1 10.55 24.0 10.55 24.9 10.55 25.55 11.1 L25.5 11.05 Q26.3 11.6 26.3 12.65 L26.35 15.8 30.2 15.75 30.1 9.05 17.9 9.1 17.95 22.05 39.9 22.05 39.9 26.15 15.7 26.15" fill="#b46301" fill-rule="evenodd" stroke="none"/>
    <path d="M15.7 24.75 Q15.4 24.75 15.2 24.55 L14.95 24.1 14.9 7.05 15.15 6.55 15.7 6.35 32.35 6.25 Q32.6 6.25 32.8 6.5 L33.05 7.0 33.2 17.8 32.95 18.3 32.4 18.5 24.1 18.6 23.55 18.4 23.35 17.9 23.3 12.65 23.5 12.15 Q23.75 11.9 24.0 11.9 24.3 11.9 24.55 12.15 L24.75 12.65 24.85 17.2 31.65 17.1 31.55 7.65 16.4 7.75 16.45 23.4 39.9 23.4 39.9 24.75 15.7 24.75" fill="#ffc412" fill-rule="evenodd" stroke="none"/>
    <path d="M16.9 0.6 L17.2 0.7 17.3 0.95 17.3 2.55 17.2 2.8 16.9 2.9 15.2 2.9 14.95 2.8 14.8 2.55 14.8 0.95 14.95 0.7 15.2 0.6 16.9 0.6 M32.65 0.6 L32.95 0.7 33.05 0.95 33.05 2.55 32.95 2.8 32.65 2.9 30.95 2.9 30.7 2.8 30.55 2.55 30.55 0.95 30.7 0.7 Q30.8 0.6 30.95 0.6 L32.65 0.6 M27.4 0.6 L27.7 0.7 27.8 0.95 27.8 2.55 27.7 2.8 27.4 2.9 25.7 2.9 25.45 2.8 25.3 2.55 25.3 0.95 25.45 0.7 25.7 0.6 27.4 0.6 M22.15 0.6 L22.45 0.7 22.55 0.95 22.55 2.55 22.45 2.8 22.15 2.9 20.45 2.9 20.2 2.8 20.05 2.55 20.05 0.95 20.2 0.7 Q20.3 0.6 20.45 0.6 L22.15 0.6" fill="#2ccaff" fill-rule="evenodd" stroke="none"/>
    <path d="M-16.65 24.75 L-39.85 24.75 -39.85 23.4 -17.4 23.4 -17.35 7.75 -32.55 7.65 -32.65 17.1 -25.85 17.2 -25.75 12.65 -25.5 12.15 Q-25.3 11.9 -25.0 11.9 -24.7 11.9 -24.5 12.15 -24.25 12.35 -24.25 12.65 L-24.3 17.9 -24.55 18.4 Q-24.75 18.6 -25.05 18.6 L-33.4 18.5 -33.95 18.3 -34.15 17.8 -34.05 7.0 -33.8 6.5 Q-33.6 6.25 -33.3 6.25 L-16.65 6.35 -16.1 6.55 -15.9 7.05 -15.95 24.1 -16.15 24.55 -16.65 24.75" fill="#ffc412" fill-rule="evenodd" stroke="none"/>
    <path d="M-17.85 0.6 L-18.15 0.7 -18.25 0.95 -18.25 2.55 -18.15 2.8 -17.85 2.9 -16.15 2.9 -15.9 2.8 -15.75 2.55 -15.75 0.95 -15.9 0.7 -16.15 0.6 -17.85 0.6 M-33.6 0.6 L-33.9 0.7 -34.0 0.95 -34.0 2.55 -33.9 2.8 -33.6 2.9 -31.9 2.9 -31.65 2.8 -31.5 2.55 -31.5 0.95 -31.65 0.7 -31.9 0.6 -33.6 0.6 M-28.35 0.6 L-28.65 0.7 -28.75 0.95 -28.75 2.55 -28.65 2.8 -28.35 2.9 -26.65 2.9 -26.4 2.8 -26.25 2.55 -26.25 0.95 -26.4 0.7 -26.65 0.6 -28.35 0.6 M-23.1 0.6 L-23.4 0.7 -23.5 0.95 -23.5 2.55 -23.4 2.8 -23.1 2.9 -21.4 2.9 -21.15 2.8 -21.0 2.55 -21.0 0.95 -21.15 0.7 -21.4 0.6 -23.1 0.6" fill="#2ccaff" fill-rule="evenodd" stroke="none"/>
    <path d="M6.5 10.55 L6.2 10.65 6.1 10.9 6.1 12.5 6.2 12.75 6.5 12.85 8.2 12.85 8.45 12.75 8.6 12.5 8.6 10.9 8.45 10.65 8.2 10.55 6.5 10.55 M-9.25 10.55 L-9.55 10.65 -9.65 10.9 -9.65 12.5 -9.55 12.75 -9.25 12.85 -7.55 12.85 -7.3 12.75 -7.15 12.5 -7.15 10.9 -7.3 10.65 -7.55 10.55 -9.25 10.55 M-4.0 10.55 L-4.3 10.65 -4.4 10.9 -4.4 12.5 -4.3 12.75 -4.0 12.85 -2.3 12.85 -2.05 12.75 -1.9 12.5 -1.9 10.9 -2.05 10.65 -2.3 10.55 -4.0 10.55 M1.25 10.55 L0.95 10.65 0.85 10.9 0.85 12.5 0.95 12.75 1.25 12.85 2.95 12.85 3.2 12.75 3.35 12.5 3.35 10.9 3.2 10.65 2.95 10.55 1.25 10.55" fill="#2ccaff" fill-rule="evenodd" stroke="none"/>
    <path d="M34.55 -6.65 Q34.25 -6.65 34.0 -6.95 33.75 -7.15 33.75 -7.5 L33.75 -14.85 30.3 -14.85 30.3 -7.5 30.05 -6.95 Q29.8 -6.65 29.5 -6.65 L19.1 -6.65 Q18.75 -6.65 18.55 -6.95 18.25 -7.15 18.25 -7.5 L18.25 -15.65 Q18.25 -16.0 18.55 -16.2 L19.1 -16.5 24.35 -16.5 24.95 -16.2 25.15 -15.65 25.15 -11.65 24.95 -11.1 24.35 -10.9 22.0 -10.9 Q21.65 -10.9 21.4 -11.1 L21.2 -11.65 21.4 -12.2 22.0 -12.45 23.55 -12.45 23.55 -14.85 19.9 -14.85 19.9 -8.3 28.7 -8.3 28.7 -15.65 28.95 -16.2 29.5 -16.5 34.55 -16.5 35.1 -16.2 35.4 -15.65 35.4 -8.3 39.9 -8.3 39.9 -6.65 34.55 -6.65" fill="#8dd234" fill-rule="evenodd" stroke="none"/>
    <path d="M-35.65 -6.65 L-39.85 -6.65 -39.85 -8.3 -36.45 -8.3 -36.45 -15.65 -36.2 -16.2 -35.65 -16.5 -30.6 -16.5 Q-30.25 -16.5 -30.0 -16.2 L-29.75 -15.65 -29.75 -8.3 -20.95 -8.3 -20.95 -14.85 -24.6 -14.85 -24.6 -12.45 -23.05 -12.45 -22.45 -12.2 -22.25 -11.65 -22.45 -11.1 Q-22.7 -10.9 -23.05 -10.9 L-25.45 -10.9 -26.0 -11.1 -26.25 -11.65 -26.25 -15.65 -26.0 -16.2 -25.45 -16.5 -20.15 -16.5 Q-19.85 -16.5 -19.6 -16.2 L-19.35 -15.65 -19.35 -7.5 Q-19.35 -7.15 -19.6 -6.95 -19.85 -6.65 -20.15 -6.65 L-30.6 -6.65 -31.1 -6.95 Q-31.4 -7.15 -31.4 -7.5 L-31.4 -14.85 -34.85 -14.85 -34.85 -7.5 Q-34.85 -7.15 -35.05 -6.95 -35.35 -6.65 -35.65 -6.65" fill="#8dd234" fill-rule="evenodd" stroke="none"/>
    <path d="M-9.6 2.0 Q-9.05 -5.0 -10.75 -12.0 L-1.0 -12.0 -0.1 -12.0 9.65 -12.0 Q7.95 -5.0 8.5 2.0 L-0.1 2.0 -1.0 2.0 -9.6 2.0" fill="#ff3c3c" fill-rule="evenodd" stroke="none"/>
    <path d="M-6.85 -8.05 L5.8 -8.05 5.8 1.75 -6.85 1.75 -6.85 -8.05" fill="#3bb7e0" fill-rule="evenodd" stroke="none"/>
    <path d="M-6.85 -8.05 L5.8 -8.05 5.8 1.75 -6.85 1.75 -6.85 -8.05 Z" fill="none" stroke="#b46301" stroke-linecap="round" stroke-linejoin="round" stroke-width="4.0"/>
    <path d="M-6.85 -8.05 L5.8 -8.05 5.8 1.75 -6.85 1.75 -6.85 -8.05" fill="#ffc412" fill-rule="evenodd" stroke="none"/>
    <path d="M1.85 -4.05 Q1.85 -3.0 1.1 -2.3 L0.35 -1.75 0.35 1.05 -1.65 1.05 -1.65 -1.75 -2.4 -2.3 Q-3.15 -3.0 -3.15 -4.05 -3.15 -5.1 -2.4 -5.8 -1.65 -6.55 -0.65 -6.55 0.4 -6.55 1.1 -5.8 1.85 -5.1 1.85 -4.05" fill="#b46301" fill-rule="evenodd" stroke="none"/>
    <path d="M5.8 -8.05 L5.8 1.75 3.9 1.75 3.9 -8.05 5.8 -8.05 M-6.85 -8.05 L-4.95 -8.05 -4.95 1.75 -6.85 1.75 -6.85 -8.05" fill="#de9508" fill-rule="evenodd" stroke="none"/>
    <path d="M-1.65 -1.75 L-2.4 -2.3 Q-3.15 -3.0 -3.15 -4.05 L-3.05 -4.7 Q-2.9 -4.05 -2.4 -3.6 L-1.65 -3.05 -1.65 -1.75 M0.35 1.05 L-1.65 1.05 -1.65 -0.25 0.35 -0.25 0.35 1.05 M1.85 -4.05 Q1.85 -3.0 1.1 -2.3 L0.35 -1.75 0.35 -3.05 1.1 -3.6 1.8 -4.7 1.85 -4.05" fill="#de9508" fill-rule="evenodd" stroke="none"/>
    <path d="M14.6 -31.9 L18.35 -25.25 15.3 -25.25 11.55 -31.9 14.6 -31.9" fill="#ffff99" fill-opacity="0.5019608" fill-rule="evenodd" stroke="none"/>
  </g>
</svg>
