<?xml version="1.0" encoding="UTF-8" standalone="no"?>
<svg xmlns:xlink="http://www.w3.org/1999/xlink" height="17.05px" width="15.6px" xmlns="http://www.w3.org/2000/svg">
  <g transform="matrix(1.0, 0.0, 0.0, 1.0, 1.1, 3.1)">
    <path d="M13.5 -0.2 L13.4 0.3 13.4 0.35 Q13.55 1.05 10.45 6.95 7.2 13.0 6.65 12.95 6.1 12.9 2.95 6.95 -0.1 1.15 0.0 0.45 L0.0 0.4 -0.1 -0.5 0.0 -1.65 1.9 -1.9 6.3 -2.1 13.3 -1.45 Q13.6 -1.2 13.5 -0.2" fill="#868686" fill-rule="evenodd" stroke="none"/>
    <path d="M13.5 -0.2 L13.4 0.3 13.4 0.35 Q13.55 1.05 10.45 6.95 7.2 13.0 6.65 12.95 6.1 12.9 2.95 6.95 -0.1 1.15 0.0 0.45 L0.0 0.4 -0.1 -0.5 0.0 -1.65 1.9 -1.9 6.3 -2.1 13.3 -1.45 Q13.6 -1.2 13.5 -0.2 Z" fill="none" stroke="#333333" stroke-linecap="round" stroke-linejoin="round" stroke-width="2.0"/>
    <path d="M13.5 -0.2 L13.15 1.2 Q13.0 1.6 6.6 1.25 L0.1 0.7 -0.1 -0.5 0.0 -1.65 1.9 -1.9 6.3 -2.1 13.3 -1.45 Q13.6 -1.2 13.5 -0.2" fill="#868686" fill-rule="evenodd" stroke="none"/>
    <path d="M10.45 6.95 Q7.2 13.0 6.65 12.95 6.1 12.9 2.95 6.95 -0.15 1.0 0.0 0.4 L6.65 -0.2 13.4 0.3 Q13.65 0.85 10.45 6.95" fill="#666666" fill-rule="evenodd" stroke="none"/>
    <path d="M7.45 3.65 Q7.0 4.1 6.3 4.1 5.65 4.1 5.2 3.65 4.75 3.2 4.75 2.6 4.75 2.0 5.2 1.55 5.65 1.1 6.3 1.1 7.0 1.1 7.45 1.55 7.9 2.0 7.9 2.6 L7.45 3.65" fill="#868686" fill-rule="evenodd" stroke="none"/>
  </g>
</svg>
