<?xml version="1.0" encoding="UTF-8" standalone="no"?>
<svg xmlns:xlink="http://www.w3.org/1999/xlink" height="256.45px" width="472.25px" xmlns="http://www.w3.org/2000/svg">
  <g transform="matrix(1.0, 0.0, 0.0, 1.0, 18.45, 18.8)">
    <path d="M33.1 -9.35 L33.1 -8.5 44.15 -8.5 62.15 -8.2 74.5 -7.85 88.15 -7.5 95.5 -8.5 103.55 -9.35 251.0 -9.35 251.0 -8.05 265.25 -7.95 267.2 -8.2 296.9 -8.4 296.9 -9.35 326.65 -9.35 326.65 -8.05 339.6 -7.95 345.8 -8.35 351.3 -8.65 386.3 -8.8 389.85 -9.1 393.7 -9.2 415.95 -9.15 415.95 -8.05 422.45 -7.95 426.8 -8.4 440.55 -8.75 440.55 -7.2 442.95 -6.85 445.8 -6.85 445.8 1.3 444.55 1.25 Q444.75 3.0 444.3 7.3 444.3 10.6 445.8 12.95 L445.8 18.15 445.8 56.1 Q445.05 59.25 445.05 61.1 L445.8 66.15 445.8 66.2 444.55 66.2 444.55 93.1 445.05 93.1 Q445.05 98.35 445.2 100.2 445.3 102.35 445.8 104.0 L445.8 116.25 Q445.05 119.3 444.1 126.65 443.2 134.5 443.2 138.75 443.2 140.75 444.45 146.05 445.65 150.9 445.8 153.15 L445.8 173.05 445.3 177.1 443.75 187.65 443.75 196.65 445.8 196.7 445.8 206.9 Q444.75 210.1 443.7 216.65 442.45 224.9 442.45 229.5 L442.65 231.3 370.1 231.3 370.1 230.25 350.8 231.3 315.1 231.3 315.1 230.25 307.9 230.15 307.9 231.0 306.05 230.9 306.1 231.3 267.7 231.3 266.6 230.65 266.6 226.4 265.9 226.4 265.9 224.9 258.85 224.85 258.35 225.2 257.55 225.8 257.55 228.25 256.95 228.2 256.5 229.0 255.5 229.75 255.5 230.25 Q246.15 230.15 245.05 230.35 245.15 230.75 242.6 230.9 L242.6 231.3 179.6 231.3 179.15 231.1 178.65 230.7 173.4 230.4 173.4 227.55 166.3 227.55 166.4 229.45 162.4 229.45 159.65 231.3 -8.3 231.3 -8.95 230.65 -8.95 227.9 Q-10.95 225.85 -11.75 223.0 L-11.75 205.5 -10.95 205.5 -10.95 174.5 -11.75 171.35 -11.75 156.0 -10.95 147.35 -10.95 133.5 -10.3 133.5 -10.3 122.95 Q-10.95 121.75 -10.95 119.45 L-11.75 119.45 -11.75 117.7 -9.6 117.7 -9.6 113.45 Q-10.3 111.9 -10.65 109.3 L-10.95 106.15 -10.85 103.3 -10.3 99.6 -10.3 71.05 -11.75 71.05 -11.75 69.35 -10.3 69.4 -10.3 51.75 -11.75 45.25 -11.75 34.25 -10.95 34.25 Q-10.95 32.8 -10.3 31.7 L-10.3 17.8 Q-10.25 15.7 -9.6 14.75 L-9.6 1.25 Q-10.15 -1.25 -10.25 -6.0 L-7.15 -9.35 -1.85 -9.35 -1.85 -8.5 16.9 -8.4 24.65 -8.85 28.6 -9.35 33.1 -9.35" fill="#000000" fill-opacity="0.3019608" fill-rule="evenodd" stroke="none"/>
    <path d="M35.2 -11.75 L35.2 -11.0 46.2 -11.0 Q50.5 -10.8 64.3 -10.7 L76.6 -10.35 90.25 -10.0 97.6 -11.05 105.65 -11.75 253.05 -11.75 253.05 -10.55 267.35 -10.45 269.4 -10.7 299.05 -10.75 299.05 -11.75 328.75 -11.75 328.75 -10.55 341.75 -10.45 347.85 -10.75 353.35 -11.1 388.3 -11.25 392.0 -11.6 395.85 -11.7 418.1 -11.65 418.1 -10.55 424.5 -10.45 428.9 -10.75 442.65 -11.2 442.65 -9.75 445.1 -9.35 447.9 -9.35 447.9 -1.2 446.65 -1.25 Q446.9 0.6 446.4 4.8 446.4 8.25 447.9 10.5 L447.9 15.65 447.9 53.6 Q447.1 56.7 447.1 58.6 L447.9 63.7 447.9 63.8 446.65 63.8 446.65 90.65 447.1 90.65 447.3 97.7 447.9 101.55 447.9 113.8 Q447.1 116.9 446.25 124.2 445.3 132.05 445.3 136.2 445.3 138.25 446.6 143.5 447.75 148.4 447.9 150.65 L447.9 170.6 447.5 174.65 445.95 185.15 445.95 194.1 447.9 194.2 447.9 204.45 Q446.8 207.55 445.9 214.15 444.6 222.4 444.6 227.05 444.6 228.05 444.75 228.85 L372.25 228.85 372.25 227.75 352.95 228.85 317.2 228.85 317.2 227.75 310.1 227.6 310.1 228.5 308.25 228.45 308.3 228.85 269.75 228.85 268.7 228.15 268.7 223.95 268.05 223.95 268.05 222.4 261.0 222.3 260.5 222.65 259.7 223.3 259.7 225.8 259.1 225.7 258.55 226.55 257.7 227.25 257.7 227.75 Q248.25 227.6 247.1 227.9 247.3 228.25 244.75 228.45 L244.75 228.85 181.65 228.85 181.35 228.55 180.75 228.2 175.55 227.9 175.55 225.15 168.45 225.0 168.55 226.95 164.6 226.95 161.7 228.85 -6.25 228.85 -6.9 228.15 -6.9 225.5 Q-8.85 223.35 -9.6 220.55 L-9.6 203.0 -8.85 203.0 -8.85 172.0 -9.6 168.85 -9.6 153.5 Q-9.3 148.0 -8.85 144.9 L-8.85 131.1 -8.15 131.1 -8.15 120.4 Q-8.85 119.3 -8.85 117.0 L-9.6 117.0 -9.6 115.25 -7.45 115.25 -7.45 111.0 Q-8.15 109.4 -8.55 106.8 L-8.85 103.7 -8.65 100.8 -8.15 97.1 -8.15 68.5 -9.6 68.5 -9.6 66.85 -8.15 66.9 -8.15 49.4 -9.6 42.8 -9.6 31.75 -8.85 31.75 Q-8.85 30.3 -8.15 29.25 L-8.15 15.25 Q-8.1 13.2 -7.45 12.25 L-7.45 -1.25 Q-8.0 -3.8 -8.1 -8.5 L-5.05 -11.75 0.25 -11.75 0.25 -11.0 19.05 -10.75 26.8 -11.35 30.75 -11.75 35.2 -11.75" fill="#ce9d46" fill-rule="evenodd" stroke="none"/>
    <path d="M12.1 -6.25 L11.25 -5.85 10.3 -6.75 Q10.1 -7.15 10.1 -8.2 10.1 -17.05 11.85 -18.8 12.45 -17.9 12.75 -16.05 L13.0 -13.75 Q13.0 -10.1 12.5 -6.6 L12.1 -6.25 M48.2 -14.1 L48.2 -12.8 47.7 -8.05 46.75 -7.85 46.5 -8.35 Q46.35 -8.5 46.35 -9.45 46.35 -10.3 46.8 -12.05 L47.1 -14.7 47.95 -14.7 48.2 -14.1 M65.35 -16.3 L65.5 -16.7 66.3 -16.7 Q67.6 -15.4 67.55 -12.15 67.4 -8.55 67.9 -7.7 L67.35 -7.25 66.25 -7.25 Q65.25 -12.05 65.25 -15.1 L65.35 -16.3 M63.1 -7.1 L63.05 -7.25 64.2 -7.25 63.1 -7.1 M140.6 -15.65 Q140.6 -18.0 141.75 -18.55 L144.1 -8.65 Q143.75 -7.7 143.1 -7.4 142.8 -7.55 141.6 -11.25 140.6 -14.85 140.6 -15.65 M152.95 -15.75 Q154.3 -14.6 154.7 -12.5 L155.35 -9.0 Q155.0 -8.15 154.5 -8.05 153.45 -9.3 152.7 -11.35 152.1 -13.25 152.1 -14.75 152.1 -15.7 152.55 -15.75 L152.95 -15.75 M231.9 -16.65 Q231.9 -14.85 228.5 -7.25 L227.65 -7.25 Q227.5 -7.75 227.5 -9.15 227.5 -10.1 229.0 -14.1 230.45 -18.0 231.05 -18.4 L231.7 -18.0 231.9 -16.65 M225.35 -7.2 L224.4 -7.2 224.4 -7.25 225.5 -7.25 225.35 -7.2 M296.75 -10.75 L295.9 -14.4 296.15 -14.75 Q296.75 -14.45 297.85 -12.0 299.0 -9.45 299.0 -8.65 L298.9 -7.85 298.35 -7.85 Q297.2 -8.65 296.75 -10.75 M343.4 -13.6 Q343.4 -14.6 344.0 -14.85 L344.6 -15.0 Q346.5 -13.1 347.3 -7.4 L347.3 -7.25 345.05 -7.25 344.3 -9.7 Q343.4 -13.0 343.4 -13.6 M343.85 -6.2 Q343.6 -5.85 342.8 -5.85 342.45 -5.85 341.8 -7.25 L344.1 -7.25 343.85 -6.2 M363.5 -14.45 L364.5 -12.0 365.25 -9.45 Q365.25 -7.95 365.15 -8.8 L364.5 -8.05 Q363.9 -8.65 363.4 -10.15 362.85 -11.75 362.85 -13.1 L362.9 -14.4 363.0 -14.45 363.5 -14.45 M424.45 -8.75 L424.35 -10.45 Q424.35 -11.5 425.2 -13.1 425.95 -14.7 426.8 -15.4 L427.65 -15.1 Q427.95 -14.9 427.95 -13.9 427.95 -12.7 427.05 -10.65 L425.65 -7.5 424.95 -7.4 Q424.5 -8.05 424.45 -8.75 M449.65 9.6 Q448.4 10.25 445.9 10.25 L441.7 9.6 441.55 9.0 Q444.45 8.85 447.6 7.95 L450.95 7.1 451.15 8.05 Q450.55 9.15 449.65 9.6 M450.25 15.2 L449.15 15.35 445.8 15.0 Q443.4 14.6 443.05 14.25 444.3 13.7 446.65 13.45 449.0 13.2 450.3 13.45 L450.65 14.4 450.25 15.2 M444.3 59.25 Q444.3 55.6 452.6 60.3 L452.45 61.2 Q452.0 61.6 451.25 61.6 L448.15 60.9 444.6 59.9 Q444.3 60.7 444.3 59.25 M449.9 127.5 Q450.15 127.6 450.15 128.6 L450.1 129.5 449.65 129.9 444.75 129.9 Q441.95 129.35 441.7 128.9 442.8 128.0 444.1 127.65 L449.15 127.35 449.9 127.5 M449.6 121.45 L441.4 121.45 Q441.25 121.4 441.25 120.4 441.25 119.45 441.4 119.4 L441.45 119.45 447.5 119.25 448.6 119.3 450.3 119.6 450.65 120.5 449.6 121.45 M451.5 181.65 L446.8 181.3 442.8 180.7 Q445.95 178.0 449.0 178.1 450.65 178.15 453.5 179.55 L453.8 180.55 Q453.25 181.65 451.5 181.65 M450.7 213.2 Q450.65 214.5 449.6 215.0 L446.95 213.2 444.8 211.7 Q446.0 209.75 448.0 210.7 449.5 211.45 450.7 213.2 M424.8 228.15 Q425.2 224.3 426.5 223.55 427.15 224.4 427.35 227.25 L427.35 234.85 426.3 235.95 Q425.1 235.35 424.8 234.05 424.65 233.6 424.65 232.15 424.6 230.05 424.8 228.15 M383.3 233.6 Q383.1 234.4 383.1 232.85 383.1 231.05 383.8 228.4 384.7 224.65 386.45 223.8 L386.8 223.95 Q387.0 224.0 387.0 224.95 L386.5 227.7 Q386.0 229.7 386.0 230.4 L385.75 232.15 385.35 233.6 384.25 233.95 383.3 233.6 M349.15 227.9 Q349.6 225.6 350.25 224.75 351.5 225.85 351.5 228.4 L350.65 231.4 Q349.75 234.15 349.35 234.25 L348.8 233.0 348.75 231.35 Q348.75 229.8 349.15 227.9 M133.55 229.7 L134.6 234.25 134.25 235.1 Q133.9 235.45 133.05 235.45 L132.1 235.4 132.05 235.2 Q131.4 231.95 131.25 230.3 L130.85 226.4 Q130.85 225.5 131.25 225.45 L131.75 225.3 132.95 225.3 133.55 229.7 M87.9 224.75 Q89.05 225.9 89.6 229.05 90.35 232.8 90.85 234.1 L90.55 234.85 Q90.35 235.35 89.35 235.35 88.35 235.35 86.8 226.6 L87.0 225.25 Q87.2 224.95 87.9 224.75 M104.05 234.55 Q103.55 234.45 103.45 234.25 103.3 234.05 103.3 233.0 103.3 231.0 104.05 227.25 104.95 223.6 105.45 223.3 105.95 224.35 105.95 226.85 L105.75 231.0 Q105.4 233.45 104.05 234.55 M79.45 223.3 L79.95 229.75 80.15 236.1 79.15 237.05 78.35 236.7 78.15 235.35 78.0 228.45 Q78.1 224.35 79.45 223.3 M1.45 225.45 Q1.45 227.25 0.55 230.85 L-0.9 236.1 Q-1.1 236.45 -1.7 236.6 L-2.6 236.3 -2.75 235.1 Q-2.75 233.8 -1.6 229.2 -0.4 224.3 0.45 223.55 L1.25 223.95 1.45 225.45 M36.6 231.2 L37.15 234.25 37.25 235.95 37.15 237.05 37.1 237.3 Q36.8 237.4 36.3 237.65 34.9 235.75 34.3 232.05 33.9 227.6 33.35 225.6 L33.65 225.0 Q35.65 226.25 36.6 231.2 M295.85 225.0 L296.75 229.45 297.2 233.15 297.05 234.25 Q296.85 234.25 296.75 234.4 297.4 234.75 296.05 234.75 294.75 234.75 294.45 233.15 L294.45 231.55 Q294.2 230.25 294.2 228.8 294.3 225.9 295.85 225.0 M-4.3 8.3 L-3.9 9.25 Q-4.0 9.7 -4.6 10.0 -5.25 10.55 -6.15 10.55 L-9.5 10.25 -12.3 9.6 Q-9.3 6.5 -4.3 8.3 M-5.65 46.6 L-5.5 46.55 Q-5.3 46.65 -5.3 47.65 -5.3 48.55 -8.0 49.4 L-13.35 50.15 -14.35 50.05 -14.35 49.8 Q-14.6 50.65 -14.6 49.1 -14.6 47.9 -12.2 47.15 -9.6 46.4 -5.65 46.6 M-13.35 84.25 L-14.35 84.05 -14.35 83.9 Q-14.6 84.7 -14.6 83.1 -14.6 82.5 -10.25 80.25 -5.8 77.9 -4.4 78.0 L-4.25 78.3 -4.15 79.25 Q-4.15 81.7 -13.35 84.25 M-9.3 157.15 L-11.45 157.6 -12.65 157.55 Q-12.85 157.5 -12.85 156.45 -12.85 155.25 -10.85 154.7 L-7.3 154.6 -7.1 155.65 -7.3 156.9 -9.3 157.15 M-17.4 205.6 L-18.45 204.9 Q-17.85 203.6 -13.5 200.8 -8.6 197.6 -6.65 198.15 L-6.55 198.1 -6.45 199.25 -17.4 205.6" fill="#a88335" fill-rule="evenodd" stroke="none"/>
    <path d="M133.6 180.85 Q133.6 177.7 137.25 181.3 139.85 183.85 141.75 186.7 L141.55 187.4 141.4 187.7 Q141.35 188.95 138.9 192.25 136.4 195.5 135.75 195.5 L134.9 195.4 134.9 195.3 134.6 195.1 Q134.45 194.95 134.45 194.3 L136.3 190.6 Q137.4 188.85 138.55 187.9 L130.5 188.2 130.3 185.85 130.4 185.85 137.9 185.65 136.5 184.05 Q133.6 180.6 133.6 180.85 M126.35 187.95 L126.35 188.6 126.1 188.65 122.25 188.65 121.5 188.4 Q121.2 188.2 121.2 187.5 121.2 186.75 121.6 186.6 L122.25 186.5 126.4 186.25 126.35 187.95" fill="#895721" fill-rule="evenodd" stroke="none"/>
    <path d="M209.85 188.4 Q209.55 188.2 209.55 187.5 209.55 186.75 209.95 186.6 L210.6 186.5 214.75 186.25 214.7 187.95 214.7 188.6 214.45 188.65 210.6 188.65 209.85 188.4 M218.65 185.85 L218.75 185.85 226.25 185.65 224.85 184.05 221.95 180.85 Q221.95 177.7 225.6 181.3 228.2 183.85 230.1 186.7 L229.9 187.4 229.75 187.7 Q229.7 188.95 227.25 192.25 224.75 195.5 224.1 195.5 L223.25 195.4 223.25 195.3 222.95 195.1 Q222.8 194.95 222.8 194.3 L224.65 190.6 Q225.75 188.85 226.9 187.9 L218.85 188.2 218.65 185.85" fill="#895721" fill-rule="evenodd" stroke="none"/>
    <path d="M299.6 188.65 L298.85 188.4 Q298.55 188.2 298.55 187.5 298.55 186.75 298.95 186.6 L299.6 186.5 303.75 186.25 303.7 187.95 303.7 188.6 303.45 188.65 299.6 188.65 M310.95 180.85 Q310.95 177.7 314.6 181.3 317.2 183.85 319.1 186.7 L318.9 187.4 318.75 187.7 Q318.7 188.95 316.25 192.25 313.75 195.5 313.1 195.5 L312.25 195.4 312.25 195.3 311.95 195.1 Q311.8 194.95 311.8 194.3 L313.65 190.6 Q314.75 188.85 315.9 187.9 L307.85 188.2 307.65 185.85 307.75 185.85 315.25 185.65 313.85 184.05 310.95 180.85" fill="#895721" fill-rule="evenodd" stroke="none"/>
    <path d="M137.25 21.3 Q139.85 23.85 141.75 26.7 L141.55 27.4 141.4 27.7 Q141.35 28.95 138.9 32.25 136.4 35.5 135.75 35.5 L134.9 35.4 134.9 35.3 134.6 35.1 Q134.45 34.95 134.45 34.3 L136.3 30.6 Q137.4 28.85 138.55 27.9 L130.5 28.2 130.3 25.85 130.4 25.85 137.9 25.65 136.5 24.05 Q133.6 20.6 133.6 20.85 133.6 17.7 137.25 21.3 M126.35 27.95 L126.35 28.6 126.1 28.65 122.25 28.65 121.5 28.4 Q121.2 28.2 121.2 27.5 121.2 26.75 121.6 26.6 L122.25 26.5 126.4 26.25 126.35 27.95" fill="#895721" fill-rule="evenodd" stroke="none"/>
    <path d="M214.7 28.6 L214.45 28.65 210.6 28.65 209.85 28.4 Q209.55 28.2 209.55 27.5 209.55 26.75 209.95 26.6 L210.6 26.5 214.75 26.25 214.7 27.95 214.7 28.6 M218.65 25.85 L218.75 25.85 226.25 25.65 224.85 24.05 221.95 20.85 Q221.95 17.7 225.6 21.3 228.2 23.85 230.1 26.7 L229.9 27.4 229.75 27.7 Q229.7 28.95 227.25 32.25 224.75 35.5 224.1 35.5 L223.25 35.4 223.25 35.3 222.95 35.1 Q222.8 34.95 222.8 34.3 L224.65 30.6 Q225.75 28.85 226.9 27.9 L218.85 28.2 218.65 25.85" fill="#895721" fill-rule="evenodd" stroke="none"/>
    <path d="M186.75 106.3 L186.55 107.0 186.4 107.3 Q186.35 108.55 183.9 111.85 181.4 115.1 180.75 115.1 L179.9 115.0 179.9 114.9 179.6 114.7 Q179.45 114.55 179.45 113.9 L181.3 110.2 Q182.4 108.45 183.55 107.5 L175.5 107.8 175.3 105.45 175.4 105.45 182.9 105.25 181.5 103.65 178.6 100.45 Q178.6 97.3 182.25 100.9 184.85 103.45 186.75 106.3 M166.2 107.1 Q166.2 106.35 166.6 106.2 L167.25 106.1 171.4 105.85 171.35 107.55 171.35 108.2 171.1 108.25 167.25 108.25 166.5 108.0 Q166.2 107.8 166.2 107.1" fill="#895721" fill-rule="evenodd" stroke="none"/>
    <path d="M274.9 107.0 L274.75 107.3 Q274.7 108.55 272.25 111.85 269.75 115.1 269.1 115.1 L268.25 115.0 268.25 114.9 267.95 114.7 Q267.8 114.55 267.8 113.9 L269.65 110.2 Q270.75 108.45 271.9 107.5 L263.85 107.8 263.65 105.45 263.75 105.45 271.25 105.25 269.85 103.65 266.95 100.45 Q266.95 97.3 270.6 100.9 273.2 103.45 275.1 106.3 L274.9 107.0 M254.85 108.0 Q254.55 107.8 254.55 107.1 254.55 106.35 254.95 106.2 L255.6 106.1 259.75 105.85 259.7 107.55 259.7 108.2 259.45 108.25 255.6 108.25 254.85 108.0" fill="#895721" fill-rule="evenodd" stroke="none"/>
    <path d="M314.6 21.3 Q317.2 23.85 319.1 26.7 L318.9 27.4 318.75 27.7 Q318.7 28.95 316.25 32.25 313.75 35.5 313.1 35.5 L312.25 35.4 312.25 35.3 311.95 35.1 Q311.8 34.95 311.8 34.3 L313.65 30.6 Q314.75 28.85 315.9 27.9 L307.85 28.2 307.65 25.85 307.75 25.85 315.25 25.65 313.85 24.05 310.95 20.85 Q310.95 17.7 314.6 21.3 M303.45 28.65 L299.6 28.65 298.85 28.4 Q298.55 28.2 298.55 27.5 298.55 26.75 298.95 26.6 L299.6 26.5 303.75 26.25 303.7 27.95 303.7 28.6 303.45 28.65" fill="#895721" fill-rule="evenodd" stroke="none"/>
    <path d="M102.0 66.5 L102.65 66.6 Q103.05 66.75 103.05 67.5 103.05 68.2 102.75 68.4 L102.0 68.65 98.15 68.65 97.9 68.6 97.9 68.55 97.2 68.55 97.3 67.85 97.4 66.45 97.85 66.45 97.85 66.25 102.0 66.5 M110.45 66.6 Q110.85 66.75 110.85 67.5 110.85 68.2 110.55 68.4 L109.8 68.65 105.95 68.65 105.7 68.6 105.7 68.55 105.0 68.55 105.1 67.85 105.2 66.45 105.65 66.45 105.65 66.25 109.8 66.5 110.45 66.6 M82.0 69.9 L80.3 71.25 79.9 70.85 78.2 70.2 Q79.65 68.75 83.5 66.65 L84.75 68.9 82.0 69.9 M88.6 66.15 L91.2 66.4 94.4 66.45 94.35 68.5 92.45 68.3 88.3 68.3 87.55 68.35 87.0 66.2 88.6 66.15 M77.75 82.65 Q78.45 82.65 78.65 82.95 L78.9 83.7 78.9 87.55 78.85 87.8 78.8 87.8 78.8 88.5 78.1 88.4 76.7 88.3 76.7 87.85 76.5 87.85 76.75 83.7 76.85 83.05 Q77.0 82.65 77.75 82.65 M77.75 73.6 Q78.45 73.6 78.65 73.9 L78.9 74.65 78.9 78.5 78.85 78.75 78.8 78.75 78.8 79.45 78.1 79.35 76.7 79.25 76.7 78.8 76.5 78.8 76.75 74.65 76.85 74.0 Q77.0 73.6 77.75 73.6 M78.75 91.35 L78.55 93.25 78.55 97.4 78.6 98.15 Q77.55 98.25 76.45 98.7 L76.4 97.1 76.65 94.5 76.7 91.3 78.75 91.35 M76.9 102.2 L79.15 100.95 80.15 103.7 81.5 105.4 81.1 105.8 80.45 107.5 Q79.0 106.05 76.9 102.2 M94.8 107.15 L95.0 107.85 Q93.15 110.7 90.55 113.3 86.95 116.95 86.95 113.8 L89.8 110.55 91.15 108.95 Q83.65 109.05 83.65 108.85 L83.55 108.85 83.55 108.8 84.3 106.35 85.25 106.5 85.65 106.6 91.8 106.65 Q90.6 105.75 89.5 104.0 L87.6 100.35 Q87.6 99.7 87.75 99.55 L88.0 99.3 88.0 99.2 88.85 99.1 Q89.5 99.1 92.05 102.3 94.55 105.6 94.65 106.85 L94.8 107.15" fill="#895721" fill-rule="evenodd" stroke="none"/>
    <path d="M385.4 24.45 L386.95 24.5 Q386.5 25.6 386.4 26.65 L385.7 26.6 381.75 26.6 379.95 26.8 379.9 24.75 382.95 24.7 385.4 24.45 M376.3 26.95 L372.65 26.95 371.9 26.7 Q371.65 26.5 371.65 25.8 371.65 25.05 372.0 24.9 L372.65 24.8 376.6 24.55 376.6 24.75 377.0 24.75 377.1 26.15 377.2 26.85 376.55 26.85 376.55 26.9 376.3 26.95 M369.7 26.15 L369.75 26.85 369.1 26.85 369.1 26.9 368.85 26.95 365.2 26.95 364.5 26.7 Q364.2 26.5 364.2 25.8 364.2 25.05 364.55 24.9 L365.2 24.8 369.15 24.55 369.15 24.75 369.6 24.75 369.7 26.15 M396.6 32.3 L396.7 32.95 396.95 37.1 396.75 37.1 396.75 37.55 395.4 37.65 394.75 37.75 394.75 37.05 394.7 37.05 394.65 36.8 394.65 32.95 394.9 32.2 Q395.1 31.9 395.75 31.9 396.45 31.9 396.6 32.3 M389.1 27.2 L390.25 24.95 Q393.95 27.05 395.35 28.5 394.5 28.75 393.7 29.15 L393.3 29.55 391.7 28.2 389.1 27.2 M394.65 42.0 L394.9 41.25 Q395.1 40.95 395.75 40.95 396.45 40.95 396.6 41.35 L396.7 42.0 396.95 46.15 396.75 46.15 396.75 46.6 395.4 46.7 394.75 46.8 394.75 46.1 394.7 46.1 394.65 45.85 394.65 42.0 M395.0 55.7 L395.0 51.55 394.8 49.65 396.75 49.6 396.8 52.8 397.05 55.4 397.0 57.0 Q395.95 56.55 394.95 56.45 L395.0 55.7 M386.0 57.6 L386.2 57.85 386.35 58.65 384.55 62.3 Q383.5 64.05 382.35 64.95 L388.2 64.9 388.6 64.8 389.5 64.65 390.2 67.1 390.2 67.15 390.15 67.15 383.0 67.25 384.25 68.85 387.0 72.1 Q387.0 75.25 383.55 71.6 381.05 69.0 379.3 66.15 L379.5 65.45 379.65 65.15 Q379.75 63.9 382.1 60.6 384.55 57.4 385.15 57.4 L386.0 57.5 386.0 57.6 M393.2 65.8 L392.55 64.1 392.2 63.7 393.45 62.0 394.4 59.25 396.55 60.5 Q394.55 64.35 393.2 65.8" fill="#895721" fill-rule="evenodd" stroke="none"/>
    <path d="M358.7 106.7 L356.1 105.7 357.25 103.45 Q360.95 105.55 362.35 107.0 361.5 107.25 360.7 107.65 L360.3 108.05 358.7 106.7 M362.75 110.4 Q363.45 110.4 363.6 110.8 L363.7 111.45 363.95 115.6 363.75 115.6 363.75 116.05 362.4 116.15 361.75 116.25 361.75 115.55 361.7 115.55 361.65 115.3 361.65 111.45 361.9 110.7 Q362.1 110.4 362.75 110.4 M352.4 102.95 L353.95 103.0 Q353.5 104.1 353.4 105.15 L352.7 105.1 348.75 105.1 346.95 105.3 346.9 103.25 349.95 103.2 352.4 102.95 M361.9 119.75 Q362.1 119.45 362.75 119.45 363.45 119.45 363.6 119.85 L363.7 120.5 363.95 124.65 363.75 124.65 363.75 125.1 362.4 125.2 361.75 125.3 361.75 124.6 361.7 124.6 361.65 124.35 361.65 120.5 361.9 119.75 M344.0 103.25 L344.1 104.65 344.2 105.35 343.55 105.35 343.55 105.4 343.3 105.45 339.65 105.45 338.9 105.2 Q338.65 105.0 338.65 104.3 338.65 103.55 339.0 103.4 L339.65 103.3 343.6 103.05 343.6 103.25 344.0 103.25 M336.7 104.65 L336.75 105.35 336.1 105.35 336.1 105.4 335.85 105.45 332.2 105.45 331.5 105.2 Q331.2 105.0 331.2 104.3 331.2 103.55 331.55 103.4 L332.2 103.3 336.15 103.05 336.15 103.25 336.6 103.25 336.7 104.65 M361.8 128.15 L363.75 128.1 363.8 131.3 364.05 133.9 364.0 135.5 Q362.95 135.05 361.95 134.95 L362.0 134.2 362.0 130.05 361.8 128.15 M353.0 136.1 L353.2 136.35 353.35 137.15 351.55 140.8 Q350.5 142.55 349.35 143.45 L355.2 143.4 355.6 143.3 356.5 143.15 357.2 145.6 357.2 145.65 357.15 145.65 350.0 145.75 351.25 147.35 354.0 150.6 Q354.0 153.75 350.55 150.1 348.05 147.5 346.3 144.65 L346.5 143.95 346.65 143.65 Q346.75 142.4 349.1 139.1 351.55 135.9 352.15 135.9 L353.0 136.0 353.0 136.1 M361.4 137.75 L363.55 139.0 Q361.55 142.85 360.2 144.3 L359.55 142.6 359.2 142.2 360.45 140.5 361.4 137.75" fill="#895721" fill-rule="evenodd" stroke="none"/>
    <path d="M37.3 153.75 L36.9 153.35 35.2 152.7 Q36.65 151.25 40.5 149.15 L41.75 151.4 39.0 152.4 37.3 153.75 M35.65 165.45 L35.9 166.2 35.9 170.05 35.85 170.3 35.8 170.3 35.8 171.0 35.1 170.9 33.7 170.8 33.7 170.35 33.5 170.35 33.75 166.2 33.85 165.55 Q34.0 165.15 34.75 165.15 35.45 165.15 35.65 165.45 M34.75 156.1 Q35.45 156.1 35.65 156.4 L35.9 157.15 35.9 161.0 35.85 161.25 35.8 161.25 35.8 161.95 35.1 161.85 33.7 161.75 33.7 161.3 33.5 161.3 33.75 157.15 33.85 156.5 Q34.0 156.1 34.75 156.1 M35.55 175.75 L35.55 179.9 35.6 180.65 Q34.55 180.75 33.45 181.2 L33.4 179.6 33.65 177.0 33.7 173.8 35.75 173.85 35.55 175.75 M36.15 183.45 L37.15 186.2 38.5 187.9 38.1 188.3 37.45 190.0 Q36.0 188.55 33.9 184.7 L36.15 183.45 M59.65 149.1 Q60.05 149.25 60.05 150.0 L59.75 150.9 59.0 151.15 55.15 151.15 54.9 151.1 54.9 151.05 54.2 151.05 54.3 150.35 54.4 148.95 54.85 148.95 54.85 148.75 59.0 149.0 59.65 149.1 M67.55 150.9 L66.8 151.15 62.95 151.15 62.7 151.1 62.7 151.05 62.0 151.05 62.1 150.35 62.2 148.95 62.65 148.95 62.65 148.75 66.8 149.0 67.45 149.1 Q67.85 149.25 67.85 150.0 L67.55 150.9 M51.35 151.0 L49.45 150.8 45.3 150.8 44.55 150.85 Q44.45 149.8 44.0 148.7 L45.6 148.65 48.2 148.9 51.4 148.95 51.35 151.0 M44.6 182.85 Q44.6 182.2 44.75 182.05 L45.0 181.8 45.0 181.7 45.85 181.6 Q46.5 181.6 49.05 184.8 51.55 188.1 51.65 189.35 L51.8 189.65 52.0 190.35 Q50.15 193.2 47.55 195.8 43.95 199.45 43.95 196.3 L46.8 193.05 48.15 191.45 Q40.65 191.55 40.65 191.35 L40.55 191.35 40.55 191.3 41.3 188.85 42.25 189.0 42.65 189.1 48.8 189.15 Q47.6 188.25 46.5 186.5 L44.6 182.85" fill="#895721" fill-rule="evenodd" stroke="none"/>
  </g>
</svg>
