<?xml version="1.0" encoding="UTF-8" standalone="no"?>
<svg xmlns:xlink="http://www.w3.org/1999/xlink" height="25.35px" width="26.95px" xmlns="http://www.w3.org/2000/svg">
  <g transform="matrix(1.0, 0.0, 0.0, 1.0, -27.55, -5.65)">
    <path d="M42.5 12.9 L42.5 12.8 52.75 12.85 53.5 20.75 53.5 20.85 53.45 20.85 52.45 26.6 42.45 26.6 42.45 26.65 41.4 20.85 42.45 12.9 42.5 12.9" fill="#755026" fill-rule="evenodd" stroke="none"/>
    <path d="M42.5 12.9 L42.45 12.9 41.4 20.85 42.45 26.65 42.45 26.6 52.45 26.6 53.45 20.85 53.5 20.85 53.5 20.75 52.75 12.85 42.5 12.8 42.5 12.9 Z" fill="none" stroke="#463017" stroke-linecap="round" stroke-linejoin="round" stroke-width="2.0"/>
    <path d="M42.35 13.0 L43.2 20.95 42.3 26.7 42.3 26.75 41.25 20.95 42.3 13.0 42.35 13.0" fill="#755026" fill-rule="evenodd" stroke="none"/>
    <path d="M42.35 13.0 L42.35 12.95 52.6 13.0 53.35 20.85 53.35 20.95 53.3 20.95 43.2 20.95 42.35 13.0" fill="#a26f35" fill-rule="evenodd" stroke="none"/>
    <path d="M43.2 20.95 L53.3 20.95 52.3 26.7 42.3 26.7 43.2 20.95" fill="#593d1e" fill-rule="evenodd" stroke="none"/>
    <path d="M42.45 14.65 L42.4 14.45 42.45 14.3 Q42.55 14.2 42.6 14.2 L52.55 14.4 52.7 14.5 52.8 14.65 52.7 14.85 52.55 14.85 42.6 14.7 42.45 14.65 M42.8 16.9 L53.15 16.65 53.3 16.75 53.4 16.9 53.3 17.1 53.15 17.15 42.8 17.4 42.6 17.35 42.55 17.15 42.6 17.0 42.8 16.9 M42.7 19.5 L42.65 19.3 42.7 19.15 42.9 19.1 53.4 19.3 53.55 19.4 53.65 19.55 53.55 19.75 53.4 19.8 42.9 19.55 42.7 19.5" fill="#593d1e" fill-rule="evenodd" stroke="none"/>
    <path d="M40.65 24.1 L40.65 24.25 40.6 24.25 39.6 29.95 29.6 29.95 29.6 30.0 28.55 24.25 29.6 16.25 29.65 16.25 29.65 16.15 39.9 16.2 40.65 24.1" fill="#755026" fill-rule="evenodd" stroke="none"/>
    <path d="M40.65 24.1 L39.9 16.2 29.65 16.15 29.65 16.25 29.6 16.25 28.55 24.25 29.6 30.0 29.6 29.95 39.6 29.95 40.6 24.25 40.65 24.25 40.65 24.1 Z" fill="none" stroke="#463017" stroke-linecap="round" stroke-linejoin="round" stroke-width="2.0"/>
    <path d="M29.5 16.35 L29.5 16.3 39.75 16.35 40.5 24.2 40.5 24.35 40.45 24.35 30.35 24.35 29.5 16.35" fill="#a26f35" fill-rule="evenodd" stroke="none"/>
    <path d="M29.5 16.35 L30.35 24.35 29.45 30.05 29.45 30.1 28.4 24.35 29.45 16.35 29.5 16.35" fill="#755026" fill-rule="evenodd" stroke="none"/>
    <path d="M30.35 24.35 L40.45 24.35 39.45 30.05 29.45 30.05 30.35 24.35" fill="#593d1e" fill-rule="evenodd" stroke="none"/>
    <path d="M40.5 22.75 L30.15 22.95 29.95 22.9 29.9 22.75 29.95 22.6 30.15 22.5 40.5 22.25 40.65 22.35 40.75 22.5 40.65 22.7 40.5 22.75 M29.5 18.1 L29.45 17.9 29.5 17.75 29.7 17.65 40.0 17.45 40.15 17.55 40.25 17.65 40.15 17.85 40.0 17.9 29.7 18.15 29.5 18.1 M29.7 20.55 L29.65 20.35 29.7 20.2 29.85 20.15 40.2 19.9 40.35 20.0 40.45 20.15 40.35 20.3 40.2 20.35 29.85 20.6 29.7 20.55" fill="#593d1e" fill-rule="evenodd" stroke="none"/>
    <path d="M48.95 14.2 L48.0 19.6 38.6 19.6 38.6 19.65 37.65 14.2 38.6 6.75 38.65 6.75 38.65 6.65 48.25 6.7 49.0 14.1 49.0 14.2 48.95 14.2" fill="#755026" fill-rule="evenodd" stroke="none"/>
    <path d="M48.95 14.2 L49.0 14.2 49.0 14.1 48.25 6.7 38.65 6.65 38.65 6.75 38.6 6.75 37.65 14.2 38.6 19.65 38.6 19.6 48.0 19.6 48.95 14.2 Z" fill="none" stroke="#463017" stroke-linecap="round" stroke-linejoin="round" stroke-width="2.0"/>
    <path d="M39.3 14.3 L48.8 14.3 47.85 19.65 38.5 19.65 39.3 14.3" fill="#593d1e" fill-rule="evenodd" stroke="none"/>
    <path d="M38.5 6.8 L48.15 6.8 48.85 14.2 48.85 14.3 48.8 14.3 39.3 14.3 38.5 6.8" fill="#a26f35" fill-rule="evenodd" stroke="none"/>
    <path d="M38.5 6.8 L39.3 14.3 38.5 19.65 38.5 19.7 37.5 14.3 38.5 6.8" fill="#755026" fill-rule="evenodd" stroke="none"/>
    <path d="M48.7 8.15 L48.65 8.35 48.5 8.35 38.8 8.6 38.6 8.55 38.55 8.35 38.6 8.25 38.8 8.15 48.5 7.95 48.65 8.0 48.7 8.15 M48.9 10.45 L48.8 10.65 48.65 10.7 38.95 10.9 38.8 10.85 38.75 10.7 38.8 10.55 38.95 10.45 48.65 10.25 48.8 10.3 48.9 10.45 M49.05 12.55 L49.15 12.65 49.05 12.85 48.95 12.9 39.25 13.1 39.05 13.05 39.0 12.9 39.05 12.75 39.25 12.65 48.95 12.45 49.05 12.55" fill="#593d1e" fill-rule="evenodd" stroke="none"/>
    <path d="M43.4 7.65 L43.45 7.75 43.55 7.8 43.65 7.95 43.9 7.95 43.9 7.85 43.95 7.8 43.95 7.65 43.85 7.6 43.8 7.55 43.8 7.45 44.75 7.7 Q45.6 8.0 46.2 8.45 L46.3 8.6 46.35 8.65 46.45 8.75 46.4 8.85 46.6 9.0 46.7 9.05 46.75 9.05 46.6 9.2 46.7 9.4 46.75 9.4 46.9 9.5 46.85 9.55 46.9 9.75 46.85 9.8 46.8 10.0 46.95 10.15 47.05 10.1 47.05 10.2 47.0 10.3 47.05 10.45 46.9 10.95 46.65 11.4 46.5 11.65 45.1 13.05 44.15 12.7 44.05 13.25 43.1 12.9 43.25 12.4 42.85 12.25 42.75 12.8 41.9 12.5 41.75 12.45 42.0 12.0 41.15 11.65 41.05 11.1 40.95 10.9 40.9 10.45 40.85 9.9 40.9 9.6 40.95 9.6 40.95 9.5 41.1 9.45 41.1 9.35 41.15 9.25 41.1 9.25 41.1 9.2 41.2 9.15 41.25 8.95 41.25 8.85 41.15 8.75 41.25 8.45 41.35 8.35 41.4 8.25 41.45 8.25 41.55 8.1 41.55 8.05 41.6 7.95 41.65 7.95 41.75 8.15 42.0 8.1 42.0 8.0 42.0 7.9 42.0 7.8 41.9 7.75 41.85 7.7 42.5 7.45 42.55 7.55 42.75 7.6 42.9 7.55 42.9 7.5 42.95 7.45 42.95 7.4 42.9 7.35 42.95 7.35 43.05 7.5 43.1 7.5 43.4 7.55 43.4 7.65 M44.05 8.25 L43.95 8.0 43.75 8.1 43.85 8.35 44.05 8.25 M42.15 9.55 L41.95 9.5 41.75 9.6 41.6 9.7 41.55 9.7 41.5 9.85 Q41.3 10.1 41.35 10.4 L41.35 10.5 41.35 10.6 41.4 10.75 41.65 11.1 41.9 11.4 42.4 11.45 42.45 11.4 42.95 10.9 42.8 10.15 42.4 9.65 42.3 9.6 42.15 9.55 M45.4 10.7 L44.75 10.8 44.15 11.35 Q44.0 11.7 44.15 12.0 L44.3 12.2 44.35 12.2 44.75 12.25 45.0 12.35 45.55 12.1 45.9 11.45 45.85 11.1 45.75 11.0 45.55 10.75 45.4 10.7 M43.55 11.35 L43.1 11.75 43.6 11.85 43.55 11.35" fill="#ffffff" fill-opacity="0.4" fill-rule="evenodd" stroke="none"/>
  </g>
</svg>
