<?xml version="1.0" encoding="UTF-8" standalone="no"?>
<svg xmlns:xlink="http://www.w3.org/1999/xlink" height="21.55px" width="98.2px" xmlns="http://www.w3.org/2000/svg">
  <g transform="matrix(1.0, 0.0, 0.0, 1.0, 0.0, 26.45)">
    <path d="M26.8 -5.5 Q8.9 -6.6 0.0 -9.2 1.25 -12.1 3.95 -15.0 9.25 -20.8 16.45 -20.8 22.5 -20.8 27.6 -18.25 32.7 -15.75 34.85 -15.75 38.15 -15.8 42.3 -17.5 L50.0 -21.3 Q60.9 -26.7 71.15 -26.45 80.95 -26.15 88.85 -21.3 96.45 -16.6 98.15 -10.35 98.65 -8.45 89.85 -6.95 80.05 -5.3 62.65 -5.0 42.55 -4.6 26.8 -5.5" fill="url(#gradient0)" fill-rule="evenodd" stroke="none"/>
  </g>
  <defs>
    <linearGradient gradientTransform="matrix(7.0E-4, -0.0126, -0.0289, -4.0E-4, 49.05, -18.35)" gradientUnits="userSpaceOnUse" id="gradient0" spreadMethod="pad" x1="-819.2" x2="819.2">
      <stop offset="0.0" stop-color="#55a901"/>
      <stop offset="1.0" stop-color="#6ad301"/>
      <stop offset="1.0" stop-color="#000000"/>
    </linearGradient>
  </defs>
</svg>
