<?xml version="1.0" encoding="UTF-8" standalone="no"?>
<svg xmlns:xlink="http://www.w3.org/1999/xlink" height="49.35px" width="181.7px" xmlns="http://www.w3.org/2000/svg">
  <g transform="matrix(1.0, 0.0, 0.0, 1.0, 0.0, 71.7)">
    <path d="M104.15 -39.0 L107.95 -37.1 111.85 -40.05 Q113.9 -41.55 117.45 -44.9 L123.45 -50.5 Q130.85 -56.75 135.8 -55.7 143.85 -52.65 150.75 -47.8 155.15 -44.7 160.6 -39.55 164.55 -35.85 173.65 -29.25 L181.7 -23.25 Q181.85 -22.55 180.5 -22.55 L180.45 -22.55 179.95 -22.35 133.5 -22.35 133.35 -22.35 87.1 -22.35 87.0 -22.35 3.9 -22.4 Q1.3 -22.55 0.9 -23.15 L1.05 -23.45 1.0 -23.45 0.15 -23.6 0.1 -23.75 0.0 -24.3 Q0.0 -25.15 9.25 -34.6 18.3 -43.8 23.4 -48.3 L30.2 -55.4 37.6 -63.55 Q46.6 -72.75 51.3 -71.15 58.6 -66.75 64.25 -59.6 67.85 -55.05 72.0 -47.55 73.6 -44.65 76.5 -40.5 L76.85 -40.75 Q84.25 -44.85 89.2 -44.15 97.25 -42.15 104.15 -39.0" fill="#bacbeb" fill-rule="evenodd" stroke="none"/>
    <path d="M125.15 -51.85 L125.3 -51.95 127.7 -53.6 130.2 -54.9 130.3 -54.95 130.4 -54.95 130.6 -55.05 131.0 -55.2 132.95 -55.7 133.8 -55.8 133.9 -55.8 134.25 -55.85 134.35 -55.85 134.7 -55.85 135.3 -55.8 135.65 -55.75 135.7 -55.7 135.8 -55.7 135.95 -55.65 138.85 -54.45 138.6 -53.45 138.6 -53.2 137.55 -53.0 Q136.95 -53.0 136.05 -54.0 136.0 -52.65 135.6 -51.45 L134.85 -51.3 Q134.3 -52.45 134.25 -54.4 L133.5 -53.3 133.05 -53.3 132.75 -54.25 Q131.7 -52.85 130.85 -52.55 L130.25 -52.75 Q129.6 -53.0 129.3 -53.3 L130.0 -54.5 125.55 -51.6 125.15 -51.85 M30.85 -56.1 L37.6 -63.55 38.8 -64.7 40.45 -66.25 40.55 -66.35 40.75 -66.5 41.05 -66.8 41.15 -66.9 41.35 -67.05 41.6 -67.3 42.3 -67.65 Q42.4 -68.4 44.45 -69.4 L44.8 -69.55 46.15 -70.55 Q48.45 -72.05 49.95 -71.55 L50.05 -71.35 50.1 -71.35 50.25 -71.35 50.35 -71.35 50.45 -71.35 50.85 -71.25 51.3 -71.15 51.75 -70.9 51.95 -70.75 52.15 -70.6 52.6 -70.35 52.6 -70.3 52.6 -70.35 53.05 -70.05 53.15 -69.95 53.6 -69.7 53.6 -69.65 53.8 -69.55 54.15 -69.3 54.15 -69.25 54.35 -69.15 54.65 -68.95 55.5 -68.3 55.5 -68.25 55.75 -68.05 56.05 -67.85 56.3 -67.65 56.5 -67.5 56.75 -67.3 Q59.75 -64.8 62.5 -61.7 L64.25 -59.6 65.2 -58.4 66.15 -57.05 66.1 -56.45 65.1 -56.25 Q64.3 -56.25 62.05 -58.8 L61.8 -58.95 60.85 -58.05 59.05 -60.0 58.35 -59.55 57.35 -60.55 58.2 -58.05 58.05 -57.15 57.45 -57.0 56.0 -60.9 55.95 -60.9 Q54.55 -60.9 53.35 -61.55 54.6 -57.2 54.9 -55.25 54.1 -56.5 52.4 -60.3 L51.3 -62.9 50.25 -64.95 Q50.05 -59.2 49.5 -54.95 L48.6 -54.95 Q48.35 -59.25 48.25 -63.7 L48.2 -63.55 Q45.15 -55.25 43.8 -52.7 43.3 -52.95 43.1 -53.35 42.85 -53.85 42.85 -54.9 L44.5 -62.15 Q41.7 -58.35 38.25 -54.65 L37.85 -54.85 Q37.45 -55.1 37.35 -55.4 39.3 -59.1 44.0 -65.05 L46.1 -67.6 46.25 -68.0 46.15 -67.95 42.45 -64.85 Q33.65 -57.5 30.85 -56.1" fill="#e9eef8" fill-rule="evenodd" stroke="none"/>
    <path d="M138.85 -54.45 Q145.15 -51.75 150.75 -47.8 155.15 -44.7 160.6 -39.55 164.55 -35.85 173.65 -29.25 L181.7 -23.25 Q181.85 -22.55 180.5 -22.55 L180.45 -22.55 179.95 -22.35 133.5 -22.35 133.35 -22.35 87.1 -22.35 87.0 -22.35 3.9 -22.4 Q1.3 -22.55 0.9 -23.15 L1.05 -23.45 1.0 -23.45 0.15 -23.6 0.1 -23.75 0.0 -24.3 Q0.0 -25.15 9.25 -34.6 18.3 -43.8 23.4 -48.3 L30.2 -55.4 30.85 -56.1 Q33.65 -57.5 42.45 -64.85 L46.15 -67.95 46.25 -68.0 46.1 -67.6 44.0 -65.05 Q39.3 -59.1 37.35 -55.4 37.45 -55.1 37.85 -54.85 L38.25 -54.65 Q41.7 -58.35 44.5 -62.15 L42.85 -54.9 Q42.85 -53.85 43.1 -53.35 43.3 -52.95 43.8 -52.7 45.15 -55.25 48.2 -63.55 L48.25 -63.7 Q48.35 -59.25 48.6 -54.95 L49.5 -54.95 Q50.05 -59.2 50.25 -64.95 L51.3 -62.9 52.4 -60.3 Q54.1 -56.5 54.9 -55.25 54.6 -57.2 53.35 -61.55 54.55 -60.9 55.95 -60.9 L56.0 -60.9 57.45 -57.0 58.05 -57.15 58.2 -58.05 57.35 -60.55 58.35 -59.55 59.05 -60.0 60.85 -58.05 61.8 -58.95 62.05 -58.8 Q64.3 -56.25 65.1 -56.25 L66.1 -56.45 66.15 -57.05 Q68.9 -53.1 72.0 -47.55 73.6 -44.65 76.5 -40.5 L76.85 -40.75 Q84.25 -44.85 89.2 -44.15 97.25 -42.15 104.15 -39.0 L107.95 -37.1 111.85 -40.05 Q113.9 -41.55 117.45 -44.9 L123.45 -50.5 125.15 -51.85 125.55 -51.6 130.0 -54.5 129.3 -53.3 Q129.6 -53.0 130.25 -52.75 L130.85 -52.55 Q131.7 -52.85 132.75 -54.25 L133.05 -53.3 133.5 -53.3 134.25 -54.4 Q134.3 -52.45 134.85 -51.3 L135.6 -51.45 Q136.0 -52.65 136.05 -54.0 136.95 -53.0 137.55 -53.0 L138.6 -53.2 138.6 -53.45 138.85 -54.45" fill="#bacbeb" fill-rule="evenodd" stroke="none"/>
  </g>
</svg>
