<?xml version="1.0" encoding="UTF-8" standalone="no"?>
<svg xmlns:xlink="http://www.w3.org/1999/xlink" height="14.75px" width="303.75px" xmlns="http://www.w3.org/2000/svg">
  <g transform="matrix(1.0, 0.0, 0.0, 1.0, 152.0, 7.25)">
    <path d="M-151.35 6.75 L-152.0 6.4 -152.0 -4.85 -151.1 -6.1 Q-150.75 -6.7 -150.55 -7.25 L-105.05 -7.25 -103.35 -7.0 -99.85 -7.15 Q-98.85 -6.5 -97.1 -6.5 -94.3 -6.5 -92.9 -7.25 L-91.15 -7.25 Q-90.3 -6.75 -89.1 -6.75 L-84.85 -7.25 38.65 -7.25 40.0 -7.0 47.5 -7.0 48.45 -7.25 95.8 -7.25 Q97.1 -6.5 100.1 -6.5 102.8 -6.5 104.45 -7.25 L139.1 -7.25 141.0 -7.0 143.0 -7.25 151.1 -7.25 151.4 -6.8 151.75 -6.25 151.75 6.75 150.6 7.5 43.15 7.5 Q41.75 6.9 39.25 6.95 L35.6 7.5 -111.55 7.5 -113.25 7.25 -150.1 7.5 -151.35 6.75" fill="#666666" fill-rule="evenodd" stroke="none"/>
    <path d="M13.25 -5.75 L13.1 -5.25 12.75 -5.25 12.65 -5.9 13.25 -5.75 M18.35 -5.5 L18.6 -5.15 18.25 -4.8 17.6 -5.05 17.85 -5.35 18.35 -5.5 M89.85 -5.5 L89.5 -5.25 89.35 -5.3 89.15 -5.65 89.85 -5.5 M82.9 -6.65 L83.0 -6.25 Q83.0 -5.6 82.5 -5.5 82.4 -5.5 81.5 -6.05 82.15 -7.0 82.9 -6.65 M95.1 -5.4 L94.5 -5.15 94.35 -5.75 95.1 -5.4 M117.35 -5.0 L117.0 -4.65 116.65 -4.75 116.6 -5.5 117.1 -5.5 117.35 -5.0 M150.35 -4.65 Q150.25 -4.5 149.75 -4.4 L149.6 -5.0 Q150.1 -5.0 150.35 -4.65 M144.35 -5.5 Q144.25 -5.3 144.0 -5.25 L143.85 -5.3 143.65 -5.65 144.35 -5.5 M151.1 1.75 Q151.0 2.0 150.5 2.0 150.35 1.85 150.35 1.5 150.9 1.5 151.1 1.75 M147.35 5.4 L147.6 5.75 147.25 6.1 146.6 5.85 146.85 5.55 147.35 5.4 M142.75 5.5 Q143.15 5.75 143.15 6.25 L142.75 6.4 142.25 6.1 Q142.25 5.7 142.75 5.5 M69.5 5.9 L69.25 6.25 Q68.65 6.25 68.65 5.85 L69.5 5.9 M36.85 4.9 L37.1 5.25 36.5 5.75 36.35 5.25 36.5 4.9 36.85 4.9 M25.35 6.25 L25.6 6.5 25.1 6.6 24.75 6.5 24.75 6.25 25.35 6.25 M-106.3 -6.0 L-106.75 -5.75 -106.85 -5.8 -107.0 -6.15 -106.3 -6.0 M-7.15 4.9 Q-7.7 5.4 -8.35 5.6 L-9.75 6.15 -10.3 6.0 Q-8.1 4.9 -7.15 4.9 M-11.0 4.25 L-10.3 4.5 Q-11.55 5.25 -13.2 5.8 L-15.25 6.6 Q-15.55 7.05 -15.55 6.45 L-13.75 5.6 Q-11.7 4.7 -11.0 4.25 M-45.0 5.5 Q-44.5 5.7 -44.5 6.25 L-45.0 6.65 -45.4 6.65 -45.55 6.25 Q-45.55 5.7 -45.0 5.5 M-141.5 6.0 L-141.8 6.1 -142.25 6.0 -142.15 5.75 Q-141.55 5.75 -141.5 6.0" fill="#171717" fill-rule="evenodd" stroke="none"/>
  </g>
</svg>
