<?xml version="1.0" encoding="UTF-8" standalone="no"?>
<svg xmlns:xlink="http://www.w3.org/1999/xlink" height="12.15px" width="17.5px" xmlns="http://www.w3.org/2000/svg">
  <g transform="matrix(1.0, 0.0, 0.0, 1.0, 7.6, 9.85)">
    <path d="M0.9 -4.4 L1.3 -4.55 1.65 -4.4 1.75 -4.0 1.6 -3.65 Q0.75 -2.9 0.0 -3.05 -0.75 -3.1 -1.35 -4.05 L-1.45 -4.45 -1.2 -4.75 -0.85 -4.85 -0.5 -4.6 Q-0.2 -4.15 0.15 -4.05 0.5 -4.05 0.9 -4.4" fill="#000000" fill-rule="evenodd" stroke="none"/>
    <path d="M0.9 -4.4 Q0.5 -4.05 0.15 -4.05 -0.2 -4.15 -0.5 -4.6 L-0.85 -4.85 -1.2 -4.75 -1.45 -4.45 -1.35 -4.05 Q-0.75 -3.1 0.0 -3.05 0.75 -2.9 1.6 -3.65 L1.75 -4.0 1.65 -4.4 1.3 -4.55 0.9 -4.4 Z" fill="none" stroke="#000000" stroke-linecap="round" stroke-linejoin="round" stroke-width="1.5"/>
    <path d="M7.15 -2.85 L7.35 -2.9 7.65 -2.95 7.9 -2.85 7.9 -2.7 7.7 -2.4 8.35 -2.9 8.6 -2.95 8.85 -2.9 9.05 -2.8 9.0 -2.65 8.35 -2.15 Q8.55 -2.2 8.75 -2.35 L9.05 -2.4 9.3 -2.3 9.4 -2.1 9.25 -2.0 7.2 -1.15 6.25 -1.5 7.15 -2.85" fill="#41261b" fill-rule="evenodd" stroke="none"/>
    <path d="M7.15 -2.85 L6.25 -1.5 7.2 -1.15 9.25 -2.0 9.4 -2.1 9.3 -2.3 9.05 -2.4 8.75 -2.35 Q8.55 -2.2 8.35 -2.15 L9.0 -2.65 9.05 -2.8 8.85 -2.9 8.6 -2.95 8.35 -2.9 7.7 -2.4 7.9 -2.7 7.9 -2.85 7.65 -2.95 7.35 -2.9 7.15 -2.85 Z" fill="none" stroke="#000406" stroke-linecap="round" stroke-linejoin="round" stroke-width="1.0"/>
    <path d="M7.15 -0.9 L8.3 -0.45 8.4 -0.25 8.45 -0.1 8.3 0.05 8.1 0.05 7.45 -0.15 7.55 0.05 7.55 0.25 7.4 0.4 7.2 0.35 7.1 0.25 6.9 -0.25 5.9 -0.05 Q5.3 -0.2 5.45 -0.9 L5.45 -0.95 5.6 -1.45 5.75 -1.6 5.95 -1.6 6.1 -1.5 6.1 -1.25 5.9 -0.8 Q5.9 -0.65 6.05 -0.55 6.4 -0.5 6.8 -0.75 L6.85 -0.8 6.95 -0.85 7.1 -0.9 7.15 -0.9" fill="#ffcc00" fill-rule="evenodd" stroke="none"/>
    <path d="M7.15 -0.9 L7.1 -0.9 6.95 -0.85 6.85 -0.8 6.8 -0.75 Q6.4 -0.5 6.05 -0.55 5.9 -0.65 5.9 -0.8 L6.1 -1.25 6.1 -1.5 5.95 -1.6 5.75 -1.6 5.6 -1.45 5.45 -0.95 5.45 -0.9 Q5.3 -0.2 5.9 -0.05 L6.9 -0.25 7.1 0.25 7.2 0.35 7.4 0.4 7.55 0.25 7.55 0.05 7.45 -0.15 8.1 0.05 8.3 0.05 8.45 -0.1 8.4 -0.25 8.3 -0.45 7.15 -0.9 Z" fill="none" stroke="#000406" stroke-linecap="round" stroke-linejoin="round" stroke-width="1.0"/>
    <path d="M0.05 -5.3 Q-0.3 -4.0 -1.4 -3.3 -2.5 -2.55 -3.65 -2.85 -4.75 -3.2 -5.25 -4.3 L-7.1 -5.25 Q-6.75 -6.8 -5.55 -6.65 L-5.55 -6.8 Q-5.2 -8.15 -4.1 -8.85 -3.05 -9.6 -1.9 -9.25 -0.75 -8.95 -0.2 -7.8 0.4 -6.65 0.05 -5.3" fill="#000406" fill-rule="evenodd" stroke="none"/>
    <path d="M0.05 -5.3 Q-0.3 -4.0 -1.4 -3.3 -2.5 -2.55 -3.65 -2.85 -4.75 -3.2 -5.25 -4.3 L-7.1 -5.25 Q-6.75 -6.8 -5.55 -6.65 L-5.55 -6.8 Q-5.2 -8.15 -4.1 -8.85 -3.05 -9.6 -1.9 -9.25 -0.75 -8.95 -0.2 -7.8 0.4 -6.65 0.05 -5.3 Z" fill="none" stroke="#000406" stroke-linecap="round" stroke-linejoin="round" stroke-width="1.0"/>
    <path d="M5.65 0.65 L2.7 0.5 Q1.15 -0.05 0.4 -1.25 -0.45 -2.45 -0.05 -3.6 0.35 -4.7 1.8 -5.15 L4.65 -5.0 Q6.2 -4.45 7.05 -3.25 7.75 -2.05 7.35 -0.95 6.95 0.2 5.65 0.65" fill="#41261b" fill-rule="evenodd" stroke="none"/>
    <path d="M5.65 0.65 L2.7 0.5 Q1.15 -0.05 0.4 -1.25 -0.45 -2.45 -0.05 -3.6 0.35 -4.7 1.8 -5.15 L4.65 -5.0 Q6.2 -4.45 7.05 -3.25 7.75 -2.05 7.35 -0.95 6.95 0.2 5.65 0.65 Z" fill="none" stroke="#000406" stroke-linecap="round" stroke-linejoin="round" stroke-width="1.0"/>
    <path d="M5.85 -1.35 L5.7 -0.9 Q5.6 -0.45 5.95 -0.3 6.45 -0.2 7.05 -0.65 L8.2 -0.2 M7.3 0.1 L7.05 -0.65" fill="none" stroke="#ffcc00" stroke-linecap="round" stroke-linejoin="round" stroke-width="0.5"/>
    <path d="M-4.9 -4.1 L-7.1 -5.25 Q-6.65 -7.15 -5.0 -6.55 -3.6 -5.4 -4.9 -4.1" fill="#fffbc2" fill-rule="evenodd" stroke="none"/>
    <path d="M5.4 0.5 L6.55 0.95 6.65 1.15 6.7 1.3 6.55 1.45 6.35 1.45 5.7 1.25 5.8 1.45 5.8 1.65 5.65 1.8 5.45 1.75 5.35 1.65 5.15 1.15 4.15 1.35 Q3.55 1.2 3.7 0.5 L3.7 0.45 3.85 -0.05 4.0 -0.2 4.2 -0.2 4.35 -0.1 4.35 0.15 4.15 0.6 4.3 0.85 5.05 0.65 5.1 0.6 Q5.1 0.5 5.2 0.55 L5.35 0.5 5.4 0.5" fill="#ffcc00" fill-rule="evenodd" stroke="none"/>
    <path d="M5.4 0.5 L5.35 0.5 5.2 0.55 Q5.1 0.5 5.1 0.6 L5.05 0.65 4.3 0.85 4.15 0.6 4.35 0.15 4.35 -0.1 4.2 -0.2 4.0 -0.2 3.85 -0.05 3.7 0.45 3.7 0.5 Q3.55 1.2 4.15 1.35 L5.15 1.15 5.35 1.65 5.45 1.75 5.65 1.8 5.8 1.65 5.8 1.45 5.7 1.25 6.35 1.45 6.55 1.45 6.7 1.3 6.65 1.15 6.55 0.95 5.4 0.5 Z" fill="none" stroke="#000406" stroke-linecap="round" stroke-linejoin="round" stroke-width="1.0"/>
    <path d="M5.55 1.5 L5.3 0.75 Q4.7 1.2 4.2 1.1 3.85 0.95 3.95 0.5 L4.1 0.05 M5.3 0.75 L6.45 1.2" fill="none" stroke="#ffcc00" stroke-linecap="round" stroke-linejoin="round" stroke-width="0.5"/>
    <path d="M-4.1 -8.85 Q-3.05 -9.6 -1.9 -9.25 -0.75 -8.95 -0.2 -7.8 0.4 -6.65 0.05 -5.3 -0.3 -4.0 -1.4 -3.3 -2.5 -2.55 -3.65 -2.85 -4.8 -3.2 -5.3 -4.35 -5.9 -5.5 -5.55 -6.8 -5.2 -8.15 -4.1 -8.85" fill="#ff779c" fill-rule="evenodd" stroke="none"/>
    <path d="M-0.95 -4.35 Q0.0 -2.9 1.25 -4.05" fill="none" stroke="#ff779c" stroke-linecap="round" stroke-linejoin="round" stroke-width="1.0"/>
    <path d="M-5.15 -7.7 L-4.75 -7.5 Q-4.1 -7.1 -3.9 -6.3 -3.65 -5.5 -4.0 -4.8 -4.35 -4.15 -5.0 -4.0 L-5.1 -3.95 -5.3 -4.35 Q-5.9 -5.5 -5.55 -6.8 L-5.15 -7.7" fill="#d74d72" fill-rule="evenodd" stroke="none"/>
    <path d="M-5.75 -6.3 L-5.9 -5.65 -5.75 -5.05 -5.35 -4.8 -4.95 -5.05 Q-4.8 -5.3 -4.8 -5.7 L-4.95 -6.3 -5.35 -6.55 -5.75 -6.3" fill="#000000" fill-rule="evenodd" stroke="none"/>
    <path d="M-5.65 -6.35 Q-5.55 -6.55 -5.35 -6.55 L-4.95 -6.3 -4.8 -5.75 -5.45 -6.1 -5.65 -6.35" fill="#ff779c" fill-rule="evenodd" stroke="none"/>
    <path d="M5.65 0.65 L2.7 0.5 Q1.15 -0.05 0.4 -1.25 -0.45 -2.45 -0.05 -3.6 0.35 -4.7 1.8 -5.15 L4.65 -5.0 Q6.2 -4.45 7.05 -3.25 7.75 -2.05 7.35 -0.95 6.95 0.2 5.65 0.65" fill="#41261b" fill-rule="evenodd" stroke="none"/>
    <path d="M7.05 -3.15 L7.1 -3.15 7.45 -2.35 7.4 -2.25 7.45 -2.3 7.5 -1.45 7.2 -1.2 6.25 -1.55 6.05 -3.0 6.1 -3.05 6.35 -3.1 6.6 -3.0 6.7 -2.85 6.75 -2.5 6.9 -3.05 7.05 -3.15" fill="#311b12" fill-rule="evenodd" stroke="none"/>
    <path d="M7.15 -2.85 L7.35 -2.9 7.65 -2.95 7.9 -2.85 7.9 -2.7 7.7 -2.4 8.35 -2.9 8.6 -2.95 8.85 -2.9 9.05 -2.8 9.0 -2.65 8.35 -2.15 Q8.55 -2.2 8.75 -2.35 L9.05 -2.4 9.3 -2.3 9.4 -2.1 9.25 -2.0 7.2 -1.15 6.25 -1.5 7.15 -2.85" fill="#41261b" fill-rule="evenodd" stroke="none"/>
  </g>
</svg>
