<?xml version="1.0" encoding="UTF-8" standalone="no"?>
<svg xmlns:xlink="http://www.w3.org/1999/xlink" height="38.65px" width="39.6px" xmlns="http://www.w3.org/2000/svg">
  <g transform="matrix(1.0, 0.0, 0.0, 1.0, -1.65, 8.5)">
    <path d="M31.3 13.05 L12.1 13.05 12.1 2.15 31.3 2.15 31.3 13.05" fill="#d0a067" fill-rule="evenodd" stroke="none"/>
    <path d="M38.75 -7.5 L36.85 2.15 36.85 13.05 40.25 13.05 36.85 19.75 35.3 29.15 7.6 29.15 6.1 19.75 6.05 19.75 2.65 13.05 6.05 13.05 6.05 2.15 4.2 -7.5 38.75 -7.5 M31.3 13.05 L31.3 2.15 12.1 2.15 12.1 13.05 31.3 13.05" fill="#bd8d53" fill-rule="evenodd" stroke="none"/>
    <path d="M38.75 -7.5 L36.85 2.15 36.85 13.05 40.25 13.05 36.85 19.75 35.3 29.15 7.6 29.15 6.1 19.75 6.05 19.75 2.65 13.05 6.05 13.05 6.05 2.15 4.2 -7.5 38.75 -7.5 M31.3 13.05 L12.1 13.05 12.1 2.15 31.3 2.15 31.3 13.05" fill="none" stroke="#855a27" stroke-linecap="round" stroke-linejoin="round" stroke-width="2.0"/>
    <path d="M6.05 2.15 L36.85 2.15 36.85 19.65 6.05 19.65 6.05 2.15" fill="#d0a067" fill-rule="evenodd" stroke="none"/>
    <path d="M34.55 17.8 L8.35 17.8 8.35 3.95 34.55 3.95 34.55 17.8" fill="#a37743" fill-rule="evenodd" stroke="none"/>
    <path d="M6.05 19.65 L36.85 19.65 35.3 29.15 7.6 29.15 6.05 19.65" fill="#bd8d53" fill-rule="evenodd" stroke="none"/>
    <path d="M4.2 -7.5 L38.75 -7.5 36.85 2.15 6.05 2.15 4.2 -7.5" fill="#bd8d53" fill-rule="evenodd" stroke="none"/>
    <path d="M30.9 13.55 L30.9 -5.3 36.2 1.7 36.2 14.65 31.75 14.65 30.9 13.55 M6.65 1.7 L12.45 -5.3 12.45 13.55 11.55 14.65 6.65 14.65 6.65 1.7" fill="#a37743" fill-rule="evenodd" stroke="none"/>
    <path d="M31.3 13.15 L31.3 -4.35 36.85 2.15 36.85 19.65 31.3 13.15 M6.05 19.65 L6.05 2.15 12.1 -4.35 12.1 13.15 6.05 19.65" fill="#bd8d53" fill-rule="evenodd" stroke="none"/>
    <path d="M31.3 13.15 L31.3 12.15 36.85 12.15 36.85 18.85 36.2 18.85 31.3 13.15 M12.1 13.15 L6.8 18.85 6.05 18.85 6.05 12.15 12.1 12.15 12.1 13.15" fill="#a37743" fill-rule="evenodd" stroke="none"/>
    <path d="M36.85 19.75 L6.05 19.75 2.65 13.05 40.25 13.05 36.85 19.75" fill="#bd8d53" fill-rule="evenodd" stroke="none"/>
  </g>
</svg>
