<?xml version="1.0" encoding="UTF-8" standalone="no"?>
<svg xmlns:xlink="http://www.w3.org/1999/xlink" height="94.1px" width="61.45px" xmlns="http://www.w3.org/2000/svg">
  <g transform="matrix(1.0, 0.0, 0.0, 1.0, 30.75, 47.05)">
    <path d="M-0.05 -43.05 L0.0 -43.05 Q11.05 -43.05 18.85 -34.65 26.7 -26.25 26.7 -14.4 L25.55 33.65 24.35 35.2 Q22.6 36.8 20.15 36.8 18.1 36.8 15.65 35.2 13.2 33.65 11.4 33.65 10.2 33.65 9.0 35.1 L6.9 38.35 Q3.85 43.05 -0.1 43.05 -4.05 43.05 -7.2 38.35 L-9.4 35.1 Q-10.65 33.65 -11.95 33.65 -13.9 33.65 -15.75 35.4 -17.6 37.2 -20.1 37.2 -23.1 37.2 -24.65 35.4 L-25.45 34.2 -25.6 33.65 -26.75 -14.4 Q-26.75 -26.25 -18.95 -34.65 -11.1 -43.05 -0.05 -43.05" fill="#aaaaaa" fill-rule="evenodd" stroke="none"/>
    <path d="M-0.05 -43.05 L0.0 -43.05 Q11.05 -43.05 18.85 -34.65 26.7 -26.25 26.7 -14.4 L25.55 33.65 24.35 35.2 Q22.6 36.8 20.15 36.8 18.1 36.8 15.65 35.2 13.2 33.65 11.4 33.65 10.2 33.65 9.0 35.1 L6.9 38.35 Q3.85 43.05 -0.1 43.05 -4.05 43.05 -7.2 38.35 L-9.4 35.1 Q-10.65 33.65 -11.95 33.65 -13.9 33.65 -15.75 35.4 -17.6 37.2 -20.1 37.2 -23.1 37.2 -24.65 35.4 L-25.45 34.2 -25.6 33.65 -26.75 -14.4 Q-26.75 -26.25 -18.95 -34.65 -11.1 -43.05 -0.05 -43.05 Z" fill="none" stroke="#000000" stroke-linecap="round" stroke-linejoin="round" stroke-width="8.0"/>
    <path d="M-0.05 -43.05 L0.0 -43.05 Q11.05 -43.05 18.85 -34.65 26.7 -26.25 26.7 -14.4 L25.55 33.65 24.35 35.2 Q22.6 36.8 20.15 36.8 18.1 36.8 15.65 35.2 13.2 33.65 11.4 33.65 10.2 33.65 9.0 35.1 L6.9 38.35 Q3.85 43.05 -0.1 43.05 -4.05 43.05 -7.2 38.35 L-9.4 35.1 Q-10.65 33.65 -11.95 33.65 -13.9 33.65 -15.75 35.4 -17.6 37.2 -20.1 37.2 -23.1 37.2 -24.65 35.4 L-25.45 34.2 -25.6 33.65 -26.75 -14.4 Q-26.75 -26.25 -18.95 -34.65 -11.1 -43.05 -0.05 -43.05" fill="#58a2ec" fill-rule="evenodd" stroke="none"/>
    <path d="M25.55 33.65 L24.35 35.2 Q22.6 36.8 20.15 36.8 18.1 36.8 15.65 35.2 13.2 33.65 11.4 33.65 10.2 33.65 9.0 35.1 L6.9 38.35 Q3.85 43.05 -0.1 43.05 -4.05 43.05 -7.2 38.35 L-9.4 35.1 Q-10.65 33.65 -11.95 33.65 -13.9 33.65 -15.75 35.4 -17.6 37.2 -20.1 37.2 -23.1 37.2 -24.65 35.4 L-25.45 34.2 -25.6 33.65 -25.75 27.75 Q-24.15 29.35 -21.15 29.35 -18.5 29.35 -16.55 27.55 -14.6 25.8 -12.6 25.8 -11.2 25.8 -9.9 27.25 L-7.55 30.5 Q-4.25 35.2 -0.1 35.2 4.05 35.2 7.3 30.5 L9.45 27.25 Q10.7 25.8 12.0 25.8 13.9 25.8 16.45 27.4 19.05 28.95 21.15 28.95 23.8 28.95 25.6 27.4 L25.75 27.3 25.55 33.65" fill="#488cd0" fill-rule="evenodd" stroke="none"/>
    <path d="M23.05 -18.0 Q23.05 -9.0 16.3 -2.7 9.55 3.65 0.0 3.65 -9.55 3.65 -16.3 -2.7 -23.05 -9.0 -23.05 -18.0 -23.05 -26.95 -16.3 -33.35 -9.55 -39.65 0.0 -39.65 9.55 -39.65 16.3 -33.35 23.05 -26.95 23.05 -18.0" fill="#77bbff" fill-rule="evenodd" stroke="none"/>
    <path d="M12.6 -30.25 Q12.6 -27.75 10.7 -26.05 8.8 -24.3 6.1 -24.3 3.4 -24.3 1.45 -26.05 -0.45 -27.75 -0.45 -30.25 -0.45 -32.75 1.45 -34.45 3.4 -36.2 6.1 -36.2 8.8 -36.2 10.7 -34.45 12.6 -32.75 12.6 -30.25 M19.7 -21.35 Q19.7 -19.8 18.5 -18.7 17.3 -17.6 15.6 -17.6 13.9 -17.6 12.65 -18.7 11.45 -19.8 11.45 -21.35 11.45 -22.95 12.65 -24.05 13.9 -25.15 15.6 -25.15 17.3 -25.15 18.5 -24.05 19.7 -22.95 19.7 -21.35" fill="#ffffff" fill-rule="evenodd" stroke="none"/>
    <path d="M4.4 -0.85 Q4.4 2.45 3.15 4.75 1.95 7.05 0.05 7.05 -1.85 7.05 -3.1 4.75 -4.35 2.45 -4.35 -0.9 -4.35 -4.15 -3.1 -6.45 -1.85 -8.75 0.05 -8.75 1.95 -8.75 3.15 -6.45 4.4 -4.15 4.4 -0.85" fill="#000000" fill-rule="evenodd" stroke="none"/>
    <path d="M4.4 -0.85 Q4.4 2.45 3.15 4.75 1.95 7.05 0.05 7.05 -1.85 7.05 -3.1 4.75 -4.35 2.45 -4.35 -0.9 -4.35 -4.15 -3.1 -6.45 -1.85 -8.75 0.05 -8.75 1.95 -8.75 3.15 -6.45 4.4 -4.15 4.4 -0.85 Z" fill="none" stroke="#ffff33" stroke-linecap="round" stroke-linejoin="round" stroke-width="3.0"/>
    <path d="M4.4 -0.85 Q4.4 2.45 3.15 4.75 1.95 7.05 0.05 7.05 -1.85 7.05 -3.1 4.75 -4.35 2.45 -4.35 -0.9 -4.35 -4.15 -3.1 -6.45 -1.85 -8.75 0.05 -8.75 1.95 -8.75 3.15 -6.45 4.4 -4.15 4.4 -0.85" fill="#000000" fill-rule="evenodd" stroke="none"/>
    <path d="M-3.95 1.7 Q-2.3 0.0 0.0 0.0 2.3 0.0 3.95 1.7 L4.15 1.95 Q3.85 3.45 3.15 4.75 1.95 7.05 0.05 7.05 -1.85 7.05 -3.1 4.75 -3.8 3.45 -4.1 1.85 L-3.95 1.7" fill="#ff779c" fill-rule="evenodd" stroke="none"/>
    <path d="M26.55 -14.0 Q26.55 -9.9 23.55 -6.9 20.55 -3.9 16.5 -3.9 12.45 -3.9 9.45 -6.9 6.45 -9.9 6.45 -14.0 6.45 -18.0 9.45 -21.0 12.45 -24.0 16.5 -24.0 20.55 -24.0 23.55 -21.0 26.55 -18.0 26.55 -14.0 M-6.2 -14.0 Q-6.2 -9.9 -9.2 -6.9 -12.2 -3.9 -16.25 -3.9 -20.3 -3.9 -23.3 -6.9 -26.3 -9.9 -26.3 -14.0 -26.3 -18.0 -23.3 -21.0 -20.3 -24.0 -16.25 -24.0 -12.2 -24.0 -9.2 -21.0 -6.2 -18.0 -6.2 -14.0" fill="#488cd0" fill-rule="evenodd" stroke="none"/>
    <path d="M24.15 -14.0 Q24.15 -10.85 21.85 -8.55 19.55 -6.25 16.4 -6.25 13.3 -6.25 11.0 -8.55 8.7 -10.85 8.7 -14.0 8.7 -17.1 11.0 -19.4 13.3 -21.7 16.4 -21.7 19.55 -21.7 21.85 -19.4 24.15 -17.1 24.15 -14.0 M-8.55 -14.0 Q-8.55 -10.85 -10.85 -8.55 -13.15 -6.25 -16.3 -6.25 -19.4 -6.25 -21.7 -8.55 -24.0 -10.85 -24.0 -14.0 -24.0 -17.1 -21.7 -19.4 -19.4 -21.7 -16.3 -21.7 -13.15 -21.7 -10.85 -19.4 -8.55 -17.1 -8.55 -14.0" fill="#000000" fill-rule="evenodd" stroke="none"/>
  </g>
</svg>
