<?xml version="1.0" encoding="UTF-8" standalone="no"?>
<svg xmlns:xlink="http://www.w3.org/1999/xlink" height="34.75px" width="24.8px" xmlns="http://www.w3.org/2000/svg">
  <g transform="matrix(1.0, 0.0, 0.0, 1.0, 13.1, 18.1)">
    <path d="M0.85 -18.1 Q5.35 -18.1 8.55 -14.4 11.7 -10.75 11.7 -5.55 L11.7 -5.45 Q11.7 -2.55 10.15 1.25 L8.8 4.3 Q9.8 0.85 9.8 -1.85 L9.8 -2.0 Q9.8 -9.0 5.6 -13.9 3.05 -16.85 -0.1 -18.05 L0.85 -18.1" fill="#ffffff" fill-rule="evenodd" stroke="none"/>
    <path d="M-5.9 10.15 Q-1.4 15.3 2.35 15.3 L4.35 14.85 Q2.3 16.65 0.4 16.65 -2.85 16.65 -6.75 12.1 -9.75 8.6 -11.05 5.4 -13.1 0.7 -13.1 -2.55 L-13.1 -2.7 -12.95 -4.7 Q-12.55 -1.65 -10.7 2.45 -9.25 6.15 -5.9 10.15" fill="#4bd8e8" fill-rule="evenodd" stroke="none"/>
  </g>
</svg>
