<?xml version="1.0" encoding="UTF-8" standalone="no"?>
<svg xmlns:xlink="http://www.w3.org/1999/xlink" height="49.9px" width="55.75px" xmlns="http://www.w3.org/2000/svg">
  <g transform="matrix(1.0, 0.0, 0.0, 1.0, -13.0, -29.0)">
    <path d="M23.55 71.65 L23.6 71.85 23.65 71.9 23.55 71.65 M16.25 76.85 L14.25 76.25 Q14.2 76.1 14.3 76.0 L14.3 30.25 67.5 30.25 67.5 75.65 67.5 76.2 67.5 76.65 67.25 76.85 Q66.8 77.2 66.1 77.2 L62.6 76.5 61.8 76.25 59.95 76.25 57.8 77.05 55.1 76.6 53.6 76.25 51.75 76.25 49.3 77.25 48.55 77.45 46.55 77.65 Q44.35 77.65 43.55 76.95 L43.45 76.85 43.15 76.55 42.55 76.35 42.4 76.25 41.85 76.25 41.8 76.3 40.3 77.15 37.6 77.2 36.35 77.4 Q35.6 77.4 34.7 76.8 L34.5 76.65 33.35 76.55 32.4 76.4 31.55 76.25 29.45 76.25 28.45 76.55 26.35 76.9 24.15 76.7 23.95 76.7 22.55 76.55 21.45 76.65 21.4 76.65 21.0 76.85 20.85 76.9 19.55 77.25 16.25 76.85 M60.1 71.3 L59.95 71.5 60.0 71.4 60.1 71.3 M46.65 72.65 L46.7 72.75 46.65 72.65 M41.2 73.5 L41.25 73.45 40.7 73.75 41.2 73.5" fill="#ad8b3a" fill-rule="evenodd" stroke="none"/>
    <path d="M16.25 76.85 L14.25 76.25 Q14.2 76.1 14.3 76.0 L14.3 30.25 67.5 30.25 67.5 75.65 67.5 76.2 67.5 76.65 67.25 76.85 Q66.8 77.2 66.1 77.2 L62.6 76.5 61.8 76.25 59.95 76.25 57.8 77.05 55.1 76.6 53.6 76.25 51.75 76.25 49.3 77.25 48.55 77.45 46.55 77.65 Q44.35 77.65 43.55 76.95 L43.45 76.85 43.15 76.55 42.55 76.35 42.4 76.25 41.85 76.25 41.8 76.3 40.3 77.15 37.6 77.2 36.35 77.4 Q35.6 77.4 34.7 76.8 L34.5 76.65 33.35 76.55 32.4 76.4 31.55 76.25 29.45 76.25 28.45 76.55 26.35 76.9 24.15 76.7 23.95 76.7 22.55 76.55 21.45 76.65 21.4 76.65 21.0 76.85 20.85 76.9 19.55 77.25 16.25 76.85 Z" fill="none" stroke="#5b3e1e" stroke-linecap="round" stroke-linejoin="round" stroke-width="2.5"/>
    <path d="M20.8 72.7 L20.75 75.1 20.85 76.9 19.55 77.25 16.25 76.85 14.25 76.25 Q14.2 76.1 14.3 76.0 L14.3 75.25 16.3 72.0 Q17.1 71.85 18.1 70.85 L18.6 70.25 Q18.6 70.85 19.1 71.55 19.7 72.5 20.8 72.7 M24.15 76.7 L24.25 76.7 24.5 76.75 24.5 74.2 24.85 72.05 25.05 72.1 25.4 72.45 26.6 72.45 26.7 72.4 Q26.8 74.2 27.15 74.2 L27.5 74.0 27.65 73.55 27.8 73.55 Q28.15 75.6 28.45 76.55 L26.35 76.9 24.15 76.7 M23.1 72.15 L23.5 74.05 23.45 75.25 22.75 73.85 22.3 72.6 23.1 72.15 M33.35 76.55 L33.5 75.3 Q33.45 74.1 34.15 74.05 34.9 74.0 34.9 73.45 L34.7 72.1 35.3 72.15 Q37.05 72.15 37.6 70.85 L37.8 71.85 37.95 72.25 38.15 73.15 Q38.65 74.8 39.25 74.8 L40.1 73.85 39.9 73.85 41.2 73.5 41.65 75.0 41.6 75.75 41.8 76.15 41.8 76.3 40.3 77.15 37.6 77.2 36.35 77.4 Q35.6 77.4 34.7 76.8 L34.5 76.65 33.35 76.55 M47.8 73.5 L48.15 73.5 Q48.9 73.5 49.3 72.8 L50.2 72.9 50.5 72.9 50.5 74.0 52.05 76.25 51.75 76.25 49.3 77.25 48.55 77.45 46.55 77.65 Q44.35 77.65 43.55 76.95 L43.45 76.85 43.15 76.55 42.55 76.35 43.85 74.05 44.85 73.85 45.3 73.85 Q45.9 74.45 47.75 75.15 48.1 75.15 48.1 74.75 L47.8 73.5 M53.3 71.9 Q53.75 72.45 54.9 72.45 55.75 72.45 56.25 71.4 L56.6 70.1 56.6 69.85 56.9 69.85 56.85 70.4 Q56.85 71.05 57.0 71.25 57.45 71.85 58.9 71.9 L58.7 71.9 Q59.45 75.1 59.9 76.3 L59.95 76.25 57.8 77.05 55.1 76.6 53.6 76.25 52.6 76.25 Q52.95 75.25 53.3 71.9 M59.65 71.75 L59.75 71.65 59.75 72.4 59.65 71.75 M65.25 71.35 Q65.7 71.9 66.55 71.9 L67.5 71.7 67.5 75.65 67.5 76.2 67.5 76.65 67.25 76.85 Q66.8 77.2 66.1 77.2 L62.6 76.5 63.65 73.0 64.65 72.0 65.25 71.35 M26.25 69.85 L26.65 69.85 26.65 69.95 26.3 70.35 Q26.25 70.65 26.25 70.25 L26.25 69.85 M47.6 70.0 L47.55 70.0 47.5 69.85 47.65 69.85 47.6 70.0" fill="#be9941" fill-rule="evenodd" stroke="none"/>
    <path d="M20.8 72.7 L21.05 72.75 21.45 72.75 21.5 72.75 22.3 72.6 22.75 73.85 23.45 75.25 23.5 74.05 23.1 72.15 23.75 71.25 23.8 71.35 23.8 71.4 Q23.95 71.8 24.6 72.0 L24.85 72.05 24.5 74.2 24.5 76.75 24.25 76.7 24.15 76.7 23.95 76.7 22.55 76.55 21.45 76.65 21.4 76.65 21.0 76.85 20.85 76.9 20.75 75.1 20.8 72.7 M23.65 71.9 L23.55 71.65 23.6 71.85 23.65 71.9 M26.7 72.4 L27.45 71.7 28.3 70.9 28.5 70.35 28.5 70.55 28.9 71.65 Q29.55 72.75 30.65 72.75 32.45 72.75 33.25 71.2 L33.45 71.4 33.65 71.55 33.65 71.6 34.7 72.1 34.9 73.45 Q34.9 74.0 34.15 74.05 33.45 74.1 33.5 75.3 L33.35 76.55 32.4 76.4 31.55 76.25 29.45 76.25 28.45 76.55 Q28.15 75.6 27.8 73.55 L27.65 73.55 27.5 74.0 27.15 74.2 Q26.8 74.2 26.7 72.4 M37.95 72.25 Q38.65 73.85 39.85 73.85 L39.9 73.85 40.1 73.85 39.25 74.8 Q38.65 74.8 38.15 73.15 L37.95 72.25 M41.2 73.5 L41.25 73.45 42.7 70.6 42.7 70.5 42.75 70.65 42.75 70.85 42.8 71.85 Q43.05 72.5 43.95 72.6 L44.1 72.65 44.45 72.65 44.5 72.65 44.75 72.65 Q45.5 72.5 46.2 71.9 L46.55 71.6 46.5 72.2 46.65 72.65 46.7 72.75 46.8 72.9 Q47.15 73.4 47.8 73.5 L48.1 74.75 Q48.1 75.15 47.75 75.15 45.9 74.45 45.3 73.85 L44.85 73.85 43.85 74.05 42.55 76.35 42.4 76.25 41.85 76.25 41.8 76.3 41.8 76.15 41.6 75.75 41.65 75.0 41.2 73.5 M50.5 72.9 L51.55 72.45 Q52.35 72.3 52.85 71.35 L53.0 71.05 53.1 71.6 53.3 71.9 Q52.95 75.25 52.6 76.25 L52.05 76.25 50.5 74.0 50.5 72.9 M58.9 71.9 L59.1 71.9 59.2 71.9 59.25 71.9 59.65 71.75 59.75 72.4 59.75 71.65 59.85 71.55 59.95 71.5 60.0 71.4 60.25 71.0 60.3 70.9 60.4 71.75 60.85 72.35 61.2 72.5 61.9 72.6 62.85 72.5 62.85 72.45 63.55 72.15 63.95 71.85 64.25 71.45 64.85 70.1 65.05 71.0 65.25 71.35 64.65 72.0 63.65 73.0 62.6 76.5 61.8 76.25 59.95 76.25 59.9 76.3 Q59.45 75.1 58.7 71.9 L58.9 71.9 M14.3 75.25 L14.3 71.3 Q14.9 72.0 16.05 72.0 L16.3 72.0 14.3 75.25" fill="#ad8b3a" fill-rule="evenodd" stroke="none"/>
    <path d="M67.5 69.8 L64.2 69.8 Q63.3 69.1 62.15 69.1 L62.1 69.1 Q61.45 68.5 58.2 68.65 54.5 68.85 54.2 69.8 L49.8 69.8 Q49.75 69.05 48.65 68.75 L45.85 68.75 46.6 68.75 43.9 68.8 Q40.9 69.15 39.45 69.8 L36.65 69.8 36.45 69.9 35.4 69.95 28.85 69.2 25.25 68.45 22.8 68.45 22.25 68.4 19.2 69.45 18.95 69.3 Q18.0 69.6 17.65 69.8 L14.3 69.8 14.3 30.25 67.5 30.25 67.5 69.8" fill="#ecd26f" fill-rule="evenodd" stroke="none"/>
    <path d="M67.5 69.8 L67.5 71.7 66.55 71.9 Q65.5 71.9 65.05 71.0 L64.85 70.05 64.25 71.45 Q63.4 72.6 61.9 72.6 60.75 72.6 60.4 71.75 L60.3 70.9 Q59.8 71.9 59.1 71.9 57.5 71.9 57.0 71.25 56.85 71.05 56.85 70.4 L56.6 70.45 56.25 71.4 Q55.75 72.45 54.9 72.45 53.5 72.45 53.1 71.6 L53.0 71.05 52.85 71.35 Q52.35 72.3 51.55 72.45 L50.2 72.9 49.3 72.8 Q48.9 73.5 48.15 73.5 47.25 73.5 46.8 72.9 L46.5 72.2 46.55 71.6 46.2 71.9 Q45.35 72.65 44.45 72.65 43.15 72.65 42.8 71.85 L42.75 70.85 42.75 70.8 42.65 70.8 Q42.05 73.85 39.85 73.85 38.5 73.85 37.8 71.85 L37.6 70.85 Q37.05 72.15 35.3 72.15 34.25 72.15 33.45 71.4 L33.25 71.2 Q32.45 72.75 30.65 72.75 29.55 72.75 28.9 71.65 L28.5 70.55 28.5 70.35 28.3 70.9 27.05 72.1 26.6 72.45 Q26.2 72.75 25.8 72.75 25.1 72.75 24.4 72.1 L24.0 71.7 23.75 71.25 Q22.9 72.75 21.45 72.75 19.9 72.75 19.1 71.55 18.6 70.85 18.6 70.25 L18.1 70.85 Q16.95 72.0 16.05 72.0 14.9 72.0 14.3 71.3 L14.3 69.8 17.65 69.8 Q18.0 69.6 18.95 69.3 L19.2 69.45 22.25 68.4 22.8 68.45 25.25 68.45 28.85 69.2 35.4 69.95 36.45 69.9 36.65 69.8 39.45 69.8 Q40.9 69.15 43.9 68.8 L46.6 68.75 45.85 68.75 48.65 68.75 Q49.75 69.05 49.8 69.8 L54.2 69.8 Q54.5 68.85 58.2 68.65 61.45 68.5 62.1 69.1 L62.15 69.1 Q63.3 69.1 64.2 69.8 L67.5 69.8" fill="#d9bb42" fill-rule="evenodd" stroke="none"/>
    <path d="M51.8 35.65 Q52.0 34.85 52.95 34.25 54.1 33.5 55.65 33.2 57.25 32.9 58.55 32.15 59.75 31.45 61.15 31.1 61.25 31.55 60.15 31.8 L59.5 32.05 Q58.3 32.85 56.7 33.1 55.15 33.4 53.8 34.05 52.55 34.7 51.8 35.65 M50.9 31.0 L50.3 31.45 49.45 31.9 48.6 32.35 47.75 32.5 48.3 32.2 49.35 31.75 50.05 31.3 50.8 31.0 50.9 31.0 M57.65 36.4 Q61.75 35.1 64.8 32.75 65.95 31.8 67.35 31.1 L67.35 31.3 Q65.6 32.35 63.8 33.65 61.4 35.45 58.25 36.35 54.75 37.4 51.9 39.45 49.1 41.5 45.65 42.75 L43.35 43.4 Q40.15 44.2 37.9 45.9 L38.0 45.8 Q39.05 44.5 41.15 44.0 44.65 43.1 47.75 41.65 L49.6 40.65 Q52.95 38.45 56.65 36.75 L57.65 36.4 M41.1 31.9 L40.75 32.0 41.1 31.8 41.3 31.7 Q41.4 31.6 41.55 31.55 L41.75 31.45 41.8 31.4 41.65 31.6 41.35 31.75 41.1 31.9 M42.6 34.25 L45.35 32.75 Q42.15 35.3 37.1 36.05 36.65 36.1 36.4 36.3 32.65 38.9 27.9 40.25 L26.0 40.85 Q24.55 41.5 23.3 42.4 20.5 44.55 16.7 45.6 15.85 45.8 15.3 46.3 L14.45 47.0 14.45 46.65 Q17.05 44.65 20.85 43.7 21.65 43.55 22.15 43.1 24.15 41.2 27.1 40.45 31.9 39.2 35.7 36.6 37.95 35.0 41.3 34.7 L42.6 34.25 M47.55 35.0 Q45.15 36.75 41.55 37.7 40.25 38.0 39.3 38.6 37.4 39.7 35.3 40.55 L32.3 41.55 Q28.7 42.55 25.75 44.25 24.8 44.8 24.05 45.45 21.7 47.65 17.9 48.45 L16.65 48.95 Q15.45 49.55 14.45 50.4 L14.45 50.3 Q15.3 49.15 17.2 48.45 L21.9 46.65 23.45 45.65 Q26.1 42.95 30.5 41.95 L32.0 41.55 Q34.05 41.05 35.8 40.1 L39.7 38.2 Q42.55 36.9 45.55 35.8 L47.55 35.0 M45.5 48.35 Q47.75 46.65 50.7 45.9 52.2 45.5 53.55 44.8 56.7 43.3 59.2 41.15 59.4 40.95 59.7 40.8 L65.45 37.85 Q66.35 37.3 67.35 36.9 L67.35 37.15 63.95 38.9 61.0 40.35 Q58.15 41.95 55.7 43.85 53.35 45.65 50.0 46.25 49.1 46.4 48.3 46.85 L45.0 48.75 45.5 48.35 M43.25 46.15 L37.35 49.55 Q35.65 50.5 33.7 51.15 31.2 51.9 30.15 53.75 29.95 54.1 29.55 54.0 31.25 51.2 35.25 50.2 37.15 49.7 38.65 48.7 40.25 47.55 42.05 46.6 45.65 44.6 49.8 43.4 52.8 42.5 55.0 40.8 57.15 39.05 59.95 37.9 62.9 36.75 65.4 35.3 L64.6 35.8 Q62.25 37.35 59.45 38.55 56.75 39.7 54.5 41.25 50.7 43.9 45.6 45.2 44.3 45.5 43.25 46.15 M56.6 46.4 L56.25 46.7 56.2 46.75 56.0 46.75 55.95 46.75 Q56.85 45.8 58.3 45.1 59.7 44.35 61.4 44.1 L62.85 43.6 64.95 42.15 Q65.1 42.0 65.35 42.0 L64.45 42.9 Q63.4 43.7 61.95 44.15 L59.1 45.05 Q57.7 45.6 56.6 46.4 M58.85 49.4 Q56.3 51.5 53.1 53.1 51.05 54.2 48.65 54.8 46.55 55.35 44.9 56.35 46.8 54.85 49.6 54.15 54.75 52.95 58.05 49.75 59.25 48.6 60.85 47.7 L60.5 47.95 58.85 49.4 M67.35 34.0 L66.75 34.4 67.35 33.95 67.35 34.0 M64.35 46.1 Q66.0 45.55 67.35 44.65 L67.35 44.7 66.1 45.55 64.0 46.35 63.45 46.45 64.35 46.1 M67.35 47.75 L64.9 49.9 Q60.7 54.15 53.75 55.4 53.2 55.5 52.85 55.75 L45.15 60.35 Q41.1 62.65 36.45 64.2 35.3 64.6 34.55 65.2 L30.25 68.5 Q33.35 65.1 38.4 63.3 44.75 61.05 49.5 57.35 51.9 55.55 55.1 54.9 61.05 53.65 64.55 49.85 65.75 48.55 67.35 47.55 L67.35 47.75 M20.15 30.35 L19.15 30.9 17.7 31.65 16.0 32.3 Q14.9 32.5 14.45 33.05 L14.45 32.8 Q14.65 32.4 15.5 32.3 17.1 32.0 18.15 31.15 L19.45 30.4 19.55 30.35 20.15 30.35 M16.95 30.55 L16.05 31.0 15.05 31.55 14.45 31.7 14.45 31.55 15.3 31.15 16.25 30.7 16.7 30.35 17.25 30.35 16.95 30.55 M14.45 34.7 Q15.05 33.95 16.3 33.45 L19.55 31.9 Q20.65 31.3 21.85 30.85 L22.95 30.35 23.55 30.35 21.95 31.05 19.8 32.05 16.95 33.45 Q15.55 34.05 14.45 34.8 L14.45 34.7 M15.15 36.85 L14.45 37.3 14.45 37.2 Q15.05 36.1 16.95 35.65 19.25 35.05 21.0 33.8 22.05 33.0 23.15 32.3 23.8 31.85 24.6 31.65 L28.1 30.35 29.0 30.35 Q27.8 31.05 26.1 31.4 23.3 31.95 21.6 33.6 L19.4 34.95 15.15 36.85 M14.7 43.15 Q16.25 41.3 19.5 40.65 21.7 40.2 23.2 39.05 20.9 41.0 17.35 41.7 15.65 42.05 14.85 43.15 L14.7 43.15 M34.05 30.35 L33.8 30.4 Q30.95 31.15 28.85 32.5 L27.35 33.4 Q25.05 34.7 22.4 35.6 19.9 36.45 18.15 37.8 19.5 36.3 22.15 35.4 25.1 34.5 27.5 32.9 28.35 32.35 29.3 31.85 30.6 31.2 32.05 30.8 L33.5 30.35 34.05 30.35 M37.25 32.6 Q34.8 34.5 31.25 35.6 27.85 36.65 24.65 38.05 24.1 38.3 23.7 38.65 L23.9 38.45 Q25.0 37.3 26.85 36.85 30.85 35.8 34.3 34.1 L37.25 32.6 M25.55 47.7 Q24.45 48.0 23.7 48.7 21.9 50.4 19.35 51.4 L17.2 52.25 Q15.5 52.9 14.45 53.95 L14.45 53.85 Q16.2 51.75 19.8 51.1 L20.75 50.7 24.0 48.3 Q26.15 46.9 29.0 46.35 L30.35 45.8 Q33.9 43.9 37.4 42.1 38.75 41.4 40.35 40.95 L40.95 40.8 40.0 41.25 38.1 41.95 Q37.6 42.1 37.15 42.4 L29.95 46.1 Q27.9 47.1 25.55 47.7 M34.6 48.5 L36.25 47.4 36.15 47.55 35.1 48.25 34.6 48.5 M35.5 53.0 L36.95 52.1 Q37.6 51.75 38.5 51.55 L42.0 50.45 41.3 50.85 40.05 51.3 Q37.55 51.9 35.5 53.0 M32.4 55.1 Q32.0 55.5 31.5 55.55 L33.8 54.05 32.4 55.1 M34.6 58.3 Q31.65 60.0 28.1 60.95 26.45 61.4 25.6 62.4 23.3 65.2 20.05 66.95 22.9 65.05 25.1 62.6 26.8 60.75 29.8 60.0 33.95 59.0 36.7 56.45 38.35 55.0 40.45 53.9 41.25 53.45 42.25 53.15 47.35 51.6 51.7 49.0 47.8 51.75 42.5 53.25 39.05 54.25 37.0 56.45 L34.6 58.3 M26.35 52.9 Q27.35 50.75 30.55 50.0 L32.4 49.45 28.2 51.3 27.1 52.1 26.35 52.9 M28.7 55.3 L28.6 55.45 28.45 55.55 28.25 55.65 28.15 55.7 Q26.45 57.05 23.95 57.2 22.05 57.35 20.55 58.15 L17.9 59.95 16.1 61.45 Q16.8 60.35 18.05 59.5 19.1 58.75 20.2 58.15 22.5 56.95 25.45 56.65 L26.95 56.15 28.5 55.2 28.7 55.3 M22.5 54.25 Q21.95 54.65 21.0 54.95 L19.35 55.45 17.85 56.2 Q17.25 56.55 17.05 57.0 16.85 56.7 17.3 56.3 17.9 55.85 18.7 55.5 L20.45 54.85 22.5 54.25 M24.1 59.95 L22.75 61.1 21.0 62.0 19.3 62.9 17.9 63.45 20.05 62.25 21.85 61.4 23.35 60.5 24.1 59.95 M24.75 68.95 L30.5 64.75 Q28.05 67.25 24.85 68.95 L24.75 68.95 M38.1 65.95 Q40.1 64.55 42.45 63.6 L46.65 61.6 52.75 58.5 Q54.25 57.7 56.05 57.2 57.6 56.85 58.85 56.15 L62.8 53.5 Q64.95 51.95 67.35 50.65 L67.35 51.0 66.55 51.35 Q65.5 51.7 64.7 52.3 L62.55 53.85 Q61.4 54.6 60.6 55.5 57.15 57.45 53.0 58.6 52.4 58.75 51.95 59.05 48.3 61.35 43.95 63.0 40.75 64.2 38.25 66.2 L34.55 68.9 Q36.0 67.4 38.1 65.95 M31.45 64.05 L31.95 63.6 Q32.7 63.05 33.7 62.7 38.3 61.2 41.9 58.75 L40.3 59.8 Q36.4 62.25 31.65 63.95 L31.45 64.05 M67.35 53.2 Q64.8 55.45 61.4 57.25 60.25 57.85 59.2 58.5 55.0 60.85 50.0 62.3 47.3 63.05 45.2 64.6 41.9 67.0 38.35 68.9 L46.5 63.65 Q49.4 61.9 53.1 60.9 57.45 59.75 60.7 57.45 L63.35 55.75 67.35 53.05 67.35 53.2 M67.35 57.05 Q65.2 58.2 63.25 59.5 59.85 61.65 55.55 62.75 L52.8 63.65 Q51.7 64.05 50.75 64.55 L50.0 64.95 49.7 65.1 49.6 65.15 49.55 65.2 Q48.2 65.8 46.9 66.55 L44.85 67.7 46.65 66.55 48.8 65.45 50.2 64.7 50.5 64.5 51.15 64.0 52.6 62.95 51.85 63.75 54.85 62.8 Q58.9 61.95 62.0 59.95 64.5 58.25 67.35 56.85 L67.35 57.05 M67.35 60.55 L64.25 62.05 Q62.1 63.05 59.65 63.6 56.75 64.2 54.5 65.55 56.25 64.4 58.6 63.75 L63.75 62.15 67.35 60.5 67.35 60.55 M66.6 62.75 L67.35 62.45 67.35 62.6 65.5 63.3 60.05 65.0 Q58.75 65.35 57.8 66.2 55.75 68.0 52.6 68.7 54.95 67.9 56.85 66.6 58.25 65.6 59.9 64.95 62.1 64.05 64.45 63.5 L66.6 62.75 M67.35 63.6 L67.35 63.8 65.25 64.6 Q62.95 65.3 61.2 66.6 60.1 67.45 58.6 68.0 L56.1 68.95 55.9 68.95 59.55 67.4 60.25 66.95 Q61.95 65.6 64.35 64.85 L67.35 63.6 M42.35 68.85 L42.9 68.7 42.35 68.95 42.1 68.95 42.35 68.85 M47.85 68.95 Q50.2 68.25 52.15 67.1 50.3 68.25 48.1 68.95 L47.85 68.95" fill="#dab42e" fill-rule="evenodd" stroke="none"/>
  </g>
</svg>
