<?xml version="1.0" encoding="UTF-8" standalone="no"?>
<svg xmlns:xlink="http://www.w3.org/1999/xlink" height="9.55px" width="26.2px" xmlns="http://www.w3.org/2000/svg">
  <g transform="matrix(1.0, 0.0, 0.0, 1.0, -16.7, -36.15)">
    <path d="M38.7 37.4 L40.85 37.0 Q41.5 37.0 41.95 37.95 L39.1 38.3 38.7 37.4 M42.15 38.4 L42.35 39.1 42.5 39.8 39.6 40.4 39.25 38.85 42.15 38.4 M42.65 40.65 L42.7 41.75 Q42.7 42.6 42.05 42.85 L40.3 43.05 39.8 43.05 39.75 41.2 42.65 40.65" fill="#272727" fill-rule="evenodd" stroke="none"/>
    <path d="M41.95 37.95 L42.15 38.4 39.25 38.85 39.2 38.75 39.1 38.3 41.95 37.95 M42.5 39.8 L42.65 40.65 39.75 41.2 39.7 40.85 39.6 40.4 42.5 39.8" fill="#747474" fill-rule="evenodd" stroke="none"/>
    <path d="M38.15 42.65 L38.1 42.55 38.05 42.15 37.9 40.65 Q37.9 37.7 38.5 37.4 L38.7 37.4 39.1 38.3 39.2 38.75 39.25 38.85 39.6 40.4 39.7 40.85 39.75 41.2 39.8 43.05 38.15 42.65" fill="#d0d0d0" fill-rule="evenodd" stroke="none"/>
    <path d="M38.7 37.4 L40.85 37.0 Q41.5 37.0 41.95 37.95 L42.15 38.4 42.35 39.1 42.5 39.8 42.65 40.65 42.7 41.75 Q42.7 42.6 42.05 42.85 L40.3 43.05 39.8 43.05 39.8 43.25 Q39.8 44.05 39.35 44.05 38.8 44.05 38.35 43.2 L38.15 42.75 38.15 42.65 38.1 42.55 38.05 42.15 37.9 40.65 Q37.9 37.7 38.5 37.4 L38.65 37.35 38.7 37.4 39.1 38.3 41.95 37.95 M38.5 37.4 L38.7 37.4 M39.1 38.3 L39.2 38.75 39.25 38.85 42.15 38.4 M39.6 40.4 L39.7 40.85 39.75 41.2 42.65 40.65 M39.8 43.05 L38.15 42.65 M39.75 41.2 L39.8 43.05 M39.25 38.85 L39.6 40.4 42.5 39.8" fill="none" stroke="#3a3a3a" stroke-linecap="round" stroke-linejoin="round" stroke-width="0.4"/>
    <path d="M20.15 45.35 L20.1 45.2 20.45 42.1 20.5 41.95 20.65 41.9 20.8 41.95 20.85 42.1 20.5 45.25 20.45 45.35 20.3 45.4 20.15 45.35 M20.05 40.15 L20.15 40.0 20.3 39.95 20.4 40.05 20.45 40.2 19.9 44.55 19.9 44.85 19.85 45.0 19.7 45.05 19.55 45.0 19.5 44.85 19.5 44.55 20.05 40.15 M18.65 37.5 L18.8 37.55 18.85 37.7 18.8 39.15 18.55 44.05 18.45 44.2 18.3 44.2 18.2 44.1 18.15 43.95 18.4 39.15 18.45 37.7 18.5 37.55 18.65 37.5 M19.35 38.6 L19.45 38.55 19.6 38.65 19.65 38.75 19.3 44.0 19.25 44.1 19.1 44.15 18.95 44.1 18.9 43.95 19.25 38.75 19.35 38.6 M17.6 36.95 L17.7 36.8 17.85 36.75 17.95 36.85 18.0 37.0 17.75 42.1 17.85 42.95 17.85 43.05 17.65 43.65 17.55 43.75 17.4 43.75 17.3 43.65 17.25 43.5 17.45 42.9 17.35 42.15 17.35 42.1 17.6 36.95" fill="#c9c9c9" fill-rule="evenodd" stroke="none"/>
    <path d="M18.65 37.65 L17.8 36.9 17.05 36.5 17.05 42.85 17.45 43.5 18.0 44.4 Q18.55 45.35 19.25 45.35 L20.3 45.15 21.1 44.15 21.3 43.25 21.35 42.8 20.25 40.1 19.95 39.55 19.45 38.7 18.65 37.65 Z" fill="none" stroke="#8a8100" stroke-linecap="round" stroke-linejoin="round" stroke-width="0.7000000000000001"/>
  </g>
</svg>
