<?xml version="1.0" encoding="UTF-8" standalone="no"?>
<svg xmlns:xlink="http://www.w3.org/1999/xlink" height="200.6px" width="210.6px" xmlns="http://www.w3.org/2000/svg">
  <g transform="matrix(1.0, 0.0, 0.0, 1.0, 131.95, 131.25)">
    <path d="M10.6 -129.2 Q29.75 -125.3 44.5 -114.65 58.65 -104.45 67.0 -89.2 L68.1 -87.15 68.45 -86.5 68.9 -85.55 69.75 -83.65 71.15 -79.9 Q78.3 -58.5 78.2 -33.3 78.1 -23.95 77.05 -14.05 L77.05 -13.7 76.65 -10.35 76.7 -10.85 75.2 -0.7 Q73.85 7.25 72.0 14.85 L72.0 14.8 71.7 15.95 66.85 32.0 Q62.05 45.75 57.15 53.1 52.9 59.5 35.1 63.85 19.0 67.75 -3.15 68.9 -24.75 70.05 -42.6 68.1 -61.6 66.0 -68.3 61.1 -75.4 55.9 -83.05 42.4 -91.0 28.4 -96.4 10.8 -100.65 -3.0 -102.5 -15.8 L-102.55 -16.2 -102.7 -17.05 -102.75 -17.5 -103.5 -24.45 -103.6 -25.25 -103.85 -29.05 Q-104.3 -34.55 -104.15 -38.5 L-103.7 -44.8 Q-103.2 -51.25 -102.0 -57.4 L-103.2 -54.95 Q-106.2 -48.4 -107.5 -39.4 -108.7 -31.35 -107.8 -22.5 -107.2 -16.45 -107.9 -16.55 -125.4 -19.35 -130.2 -31.5 -134.6 -42.5 -127.8 -58.75 -121.25 -74.35 -106.7 -89.45 -91.55 -105.2 -73.0 -114.9 -51.75 -126.05 -29.8 -129.65 -8.7 -133.1 10.6 -129.2 M-95.2 -3.75 Q-90.85 8.4 -82.85 15.45 -74.85 22.5 -62.55 24.9 -38.15 29.65 -21.2 18.0 L-10.5 9.35 Q-5.45 5.15 -2.25 5.15 1.15 5.15 5.95 8.6 L15.45 16.0 Q29.45 26.2 44.45 24.1 61.25 21.75 69.05 8.95 73.6 1.45 75.15 -10.55 24.05 -2.85 -5.45 -2.5 -48.85 -1.95 -97.5 -13.5 -96.7 -8.05 -95.2 -3.75" fill="#62594e" fill-rule="evenodd" stroke="none"/>
    <path d="M78.65 -52.45 L77.2 -52.2 Q79.4 -32.9 76.75 -11.1 -17.0 7.9 -102.25 -14.15 -105.7 -36.1 -102.4 -55.2 -12.05 -36.15 78.65 -52.45" fill="#fff6ec" fill-rule="evenodd" stroke="none"/>
  </g>
</svg>
