<?xml version="1.0" encoding="UTF-8" standalone="no"?>
<svg xmlns:xlink="http://www.w3.org/1999/xlink" height="55.8px" width="111.4px" xmlns="http://www.w3.org/2000/svg">
  <g transform="matrix(1.0, 0.0, 0.0, 1.0, 55.45, -57.45)">
    <path d="M-1.95 84.7 Q2.2 89.9 2.9 95.3 L3.3 98.35 Q-24.9 108.1 -53.2 106.0 -54.75 100.0 -55.45 90.25 -28.35 91.9 -2.25 84.35 L-1.95 84.7" fill="#fff6ec" fill-rule="evenodd" stroke="none"/>
    <path d="M21.95 99.6 L34.0 95.15 Q40.45 93.0 43.7 93.0 50.25 92.9 53.5 94.75 55.2 95.75 55.5 96.65 L45.95 113.15 Q45.15 112.6 43.65 112.1 40.7 111.1 37.55 110.95 L31.1 111.5 21.2 112.75 Q7.3 114.05 1.5 111.8 -4.5 109.4 -7.9 101.65 -9.05 99.15 -9.7 96.45 L-10.05 95.1 -10.15 94.7 -10.2 94.2 -10.05 95.1 -9.3 96.25 Q-7.05 99.0 -0.25 102.2 3.5 104.0 9.85 103.0 14.55 102.2 21.95 99.6" fill="#fff6ec" fill-rule="evenodd" stroke="none"/>
    <path d="M35.9 62.05 Q40.2 58.3 47.35 57.65 50.95 57.3 53.65 57.65 L55.95 76.1 Q54.0 75.2 51.15 75.0 45.35 74.5 40.45 78.0 38.1 79.6 34.25 83.55 L27.4 90.45 Q18.35 99.05 10.95 99.9 3.15 100.8 -4.0 97.75 -6.3 96.7 -8.15 95.45 L-9.45 94.3 -8.45 94.7 -5.3 95.1 Q0.65 95.35 9.15 92.8 17.2 90.35 25.1 78.1 L30.75 68.8 Q33.8 63.9 35.9 62.05" fill="#fff6ec" fill-rule="evenodd" stroke="none"/>
  </g>
</svg>
