<?xml version="1.0" encoding="UTF-8" standalone="no"?>
<svg xmlns:xlink="http://www.w3.org/1999/xlink" height="50.05px" width="55.8px" xmlns="http://www.w3.org/2000/svg">
  <g transform="matrix(1.0, 0.0, 0.0, 1.0, -13.1, -28.9)">
    <path d="M67.65 77.7 L14.35 77.7 14.35 30.15 67.65 30.15 67.65 77.7" fill="#00a2ca" fill-rule="evenodd" stroke="none"/>
    <path d="M67.65 77.7 L14.35 77.7 14.35 30.15 67.65 30.15 67.65 77.7 Z" fill="none" stroke="#277087" stroke-linecap="round" stroke-linejoin="round" stroke-width="2.5"/>
    <path d="M67.65 30.15 L67.65 77.7 14.35 77.7 14.35 30.15 67.65 30.15" fill="#00a2ca" fill-rule="evenodd" stroke="none"/>
    <path d="M14.35 70.0 L14.35 30.15 67.65 30.15 67.65 70.0 Q65.15 69.2 60.3 68.8 50.65 67.95 39.15 70.0 27.65 72.05 19.85 71.2 L14.35 70.0" fill="#00ccff" fill-rule="evenodd" stroke="none"/>
    <path d="M22.3 43.4 L21.45 43.75 Q20.95 43.75 20.6 43.4 20.25 43.05 20.25 42.55 20.25 42.05 20.6 41.7 20.95 41.35 21.45 41.35 21.95 41.35 22.3 41.7 22.65 42.05 22.65 42.55 L22.3 43.4" fill="#ffffff" fill-opacity="0.4" fill-rule="evenodd" stroke="none"/>
    <path d="M23.8 43.45 L22.95 43.8 Q22.45 43.8 22.1 43.45 21.75 43.1 21.75 42.6 21.75 42.1 22.1 41.75 22.45 41.4 22.95 41.4 23.45 41.4 23.8 41.75 24.15 42.1 24.15 42.6 L23.8 43.45" fill="#ffffff" fill-opacity="0.4" fill-rule="evenodd" stroke="none"/>
    <path d="M25.65 43.6 Q25.3 43.95 24.8 43.95 24.3 43.95 23.95 43.6 23.6 43.25 23.6 42.75 23.6 42.25 23.95 41.9 24.3 41.55 24.8 41.55 25.3 41.55 25.65 41.9 26.0 42.25 26.0 42.75 26.0 43.25 25.65 43.6" fill="#ffffff" fill-opacity="0.4" fill-rule="evenodd" stroke="none"/>
    <path d="M28.55 44.2 Q28.0 44.75 27.15 44.75 26.3 44.75 25.75 44.2 25.15 43.6 25.15 42.75 25.15 41.95 25.75 41.35 26.3 40.75 27.15 40.75 28.0 40.75 28.55 41.35 29.15 41.95 29.15 42.75 29.15 43.6 28.55 44.2" fill="#ffffff" fill-opacity="0.4" fill-rule="evenodd" stroke="none"/>
    <path d="M19.15 43.7 L18.3 44.05 Q17.8 44.05 17.45 43.7 17.1 43.35 17.1 42.85 17.1 42.35 17.45 42.0 17.8 41.65 18.3 41.65 18.8 41.65 19.15 42.0 19.5 42.35 19.5 42.85 L19.15 43.7" fill="#ffffff" fill-opacity="0.4" fill-rule="evenodd" stroke="none"/>
    <path d="M33.3 43.4 Q33.05 43.7 32.65 43.7 32.25 43.7 31.95 43.4 L31.7 42.75 Q31.7 42.35 31.95 42.05 32.25 41.8 32.65 41.8 33.05 41.8 33.3 42.05 L33.6 42.75 33.3 43.4" fill="#ffffff" fill-opacity="0.4" fill-rule="evenodd" stroke="none"/>
    <path d="M23.7 61.45 Q23.25 61.9 22.6 61.9 21.95 61.9 21.5 61.45 21.05 61.0 21.05 60.35 21.05 59.7 21.5 59.25 21.95 58.8 22.6 58.8 23.25 58.8 23.7 59.25 24.15 59.7 24.15 60.35 24.15 61.0 23.7 61.45" fill="#ffffff" fill-opacity="0.4" fill-rule="evenodd" stroke="none"/>
    <path d="M26.05 60.95 L25.6 61.15 Q25.35 61.15 25.15 60.95 L24.95 60.5 25.15 60.05 Q25.35 59.85 25.6 59.85 L26.05 60.05 26.25 60.5 26.05 60.95" fill="#ffffff" fill-opacity="0.4" fill-rule="evenodd" stroke="none"/>
    <path d="M29.05 60.85 L28.65 61.0 28.25 60.85 Q28.1 60.7 28.1 60.45 28.1 60.2 28.25 60.05 28.4 59.9 28.65 59.9 L29.05 60.05 29.2 60.45 29.05 60.85" fill="#ffffff" fill-opacity="0.4" fill-rule="evenodd" stroke="none"/>
    <path d="M33.2 61.8 Q32.65 62.4 31.8 62.4 30.95 62.4 30.35 61.8 29.8 61.25 29.8 60.4 29.8 59.55 30.35 58.95 30.95 58.4 31.8 58.4 32.65 58.4 33.2 58.95 33.8 59.55 33.8 60.4 33.8 61.25 33.2 61.8" fill="#ffffff" fill-opacity="0.4" fill-rule="evenodd" stroke="none"/>
    <path d="M34.0 62.05 Q33.7 62.4 33.25 62.4 32.8 62.4 32.45 62.05 32.15 61.75 32.15 61.3 32.15 60.85 32.45 60.5 32.8 60.2 33.25 60.2 33.7 60.2 34.0 60.5 34.35 60.85 34.35 61.3 L34.0 62.05" fill="#ffffff" fill-opacity="0.4" fill-rule="evenodd" stroke="none"/>
    <path d="M36.75 61.5 L36.15 61.75 35.55 61.5 35.3 60.9 Q35.3 60.55 35.55 60.3 L36.15 60.05 36.75 60.3 37.0 60.9 36.75 61.5" fill="#ffffff" fill-opacity="0.4" fill-rule="evenodd" stroke="none"/>
    <path d="M38.65 61.7 L38.1 61.95 37.5 61.7 37.3 61.15 37.5 60.55 38.1 60.35 38.65 60.55 38.9 61.15 38.65 61.7" fill="#ffffff" fill-opacity="0.4" fill-rule="evenodd" stroke="none"/>
    <path d="M39.6 61.15 L39.35 60.5 Q39.35 60.1 39.6 59.8 39.9 59.55 40.3 59.55 40.7 59.55 40.95 59.8 L41.25 60.5 40.95 61.15 40.3 61.45 39.6 61.15" fill="#ffffff" fill-opacity="0.4" fill-rule="evenodd" stroke="none"/>
    <path d="M42.7 61.8 L42.1 62.05 41.5 61.8 41.25 61.2 Q41.25 60.85 41.5 60.6 41.75 60.35 42.1 60.35 42.45 60.35 42.7 60.6 L42.95 61.2 42.7 61.8" fill="#ffffff" fill-opacity="0.4" fill-rule="evenodd" stroke="none"/>
    <path d="M22.15 62.7 Q21.7 63.2 21.05 63.2 20.4 63.2 19.9 62.7 19.45 62.25 19.45 61.6 19.45 60.95 19.9 60.45 20.4 60.0 21.05 60.0 21.7 60.0 22.15 60.45 22.65 60.95 22.65 61.6 22.65 62.25 22.15 62.7" fill="#ffffff" fill-opacity="0.4" fill-rule="evenodd" stroke="none"/>
    <path d="M51.65 49.05 L52.35 49.35 52.65 50.05 52.35 50.75 51.65 51.05 Q51.25 51.05 50.95 50.75 50.65 50.45 50.65 50.05 50.65 49.65 50.95 49.35 51.25 49.05 51.65 49.05" fill="#ffffff" fill-opacity="0.4" fill-rule="evenodd" stroke="none"/>
    <path d="M53.85 51.5 Q53.5 51.9 53.0 51.9 52.5 51.9 52.1 51.5 51.75 51.15 51.75 50.65 51.75 50.15 52.1 49.75 52.5 49.4 53.0 49.4 53.5 49.4 53.85 49.75 54.25 50.15 54.25 50.65 54.25 51.15 53.85 51.5" fill="#ffffff" fill-opacity="0.4" fill-rule="evenodd" stroke="none"/>
    <path d="M55.5 48.9 Q56.0 48.9 56.35 49.25 56.75 49.65 56.75 50.15 56.75 50.65 56.35 51.0 56.0 51.4 55.5 51.4 55.0 51.4 54.6 51.0 54.25 50.65 54.25 50.15 54.25 49.65 54.6 49.25 55.0 48.9 55.5 48.9" fill="#ffffff" fill-opacity="0.4" fill-rule="evenodd" stroke="none"/>
    <path d="M57.55 49.2 L58.1 49.4 58.35 50.0 58.1 50.55 57.55 50.8 Q57.2 50.8 56.95 50.55 L56.75 50.0 56.95 49.4 Q57.2 49.2 57.55 49.2" fill="#ffffff" fill-opacity="0.4" fill-rule="evenodd" stroke="none"/>
    <path d="M60.4 51.0 L59.8 51.25 59.2 51.0 Q58.95 50.75 58.95 50.4 58.95 50.05 59.2 49.8 59.45 49.55 59.8 49.55 60.15 49.55 60.4 49.8 L60.65 50.4 60.4 51.0" fill="#ffffff" fill-opacity="0.4" fill-rule="evenodd" stroke="none"/>
    <path d="M62.95 49.0 Q63.55 49.0 64.0 49.45 64.45 49.9 64.45 50.5 L64.0 51.55 Q63.55 52.0 62.95 52.0 62.35 52.0 61.9 51.55 61.45 51.1 61.45 50.5 61.45 49.9 61.9 49.45 62.35 49.0 62.95 49.0" fill="#ffffff" fill-opacity="0.4" fill-rule="evenodd" stroke="none"/>
    <path d="M64.8 51.9 Q64.5 52.2 64.05 52.2 L63.3 51.9 Q63.0 51.6 63.0 51.15 63.0 50.7 63.3 50.4 63.6 50.1 64.05 50.1 64.5 50.1 64.8 50.4 L65.1 51.15 64.8 51.9" fill="#ffffff" fill-opacity="0.4" fill-rule="evenodd" stroke="none"/>
    <path d="M66.25 52.0 L65.75 52.2 Q65.45 52.2 65.25 52.0 L65.05 51.5 65.25 51.0 65.75 50.8 66.25 51.0 66.45 51.5 66.25 52.0" fill="#ffffff" fill-opacity="0.4" fill-rule="evenodd" stroke="none"/>
  </g>
</svg>
