<?xml version="1.0" encoding="UTF-8" standalone="no"?>
<svg xmlns:xlink="http://www.w3.org/1999/xlink" height="69.6px" width="140.75px" xmlns="http://www.w3.org/2000/svg">
  <g transform="matrix(1.0, 0.0, 0.0, 1.0, 63.7, 17.25)">
    <path d="M52.0 -17.2 L31.45 47.2 Q28.15 45.1 25.2 42.15 L23.45 40.3 24.0 40.85 42.3 -16.5 49.8 -17.25 52.0 -17.2 M74.4 -7.05 L77.05 -4.15 59.35 51.1 Q54.85 52.35 49.8 52.35 43.15 52.35 37.45 50.2 L58.65 -16.2 Q67.5 -13.95 74.4 -7.05 M-10.0 -4.9 L-28.0 51.35 Q-32.1 52.35 -36.6 52.35 -43.7 52.35 -49.75 49.9 L-28.55 -16.35 -35.25 -17.2 -55.7 46.7 Q-58.6 44.75 -61.2 42.15 L-63.7 39.4 -63.05 40.15 -45.05 -16.25 Q-41.05 -17.25 -36.6 -17.25 -22.2 -17.25 -12.0 -7.05 L-10.0 -4.9" fill="#a100b4" fill-opacity="0.2509804" fill-rule="evenodd" stroke="none"/>
  </g>
</svg>
