<?xml version="1.0" encoding="UTF-8" standalone="no"?>
<svg xmlns:xlink="http://www.w3.org/1999/xlink" height="45.15px" width="126.5px" xmlns="http://www.w3.org/2000/svg">
  <g transform="matrix(1.0, 0.0, 0.0, 1.0, 98.05, -6.4)">
    <path d="M-49.95 29.25 Q-49.8 38.3 -56.75 44.8 -63.7 51.35 -73.65 51.55 -83.65 51.7 -90.8 45.4 -97.9 39.15 -98.05 30.1 -98.2 21.05 -91.35 14.55 -84.4 8.0 -74.4 7.85 -64.45 7.65 -57.3 13.95 -50.1 20.2 -49.95 29.25" fill="#bf7926" fill-rule="evenodd" stroke="none"/>
    <path d="M-13.3 28.65 Q-13.15 37.7 -6.9 43.9 -0.7 50.25 7.95 50.1 16.6 49.95 22.6 43.4 28.6 36.95 28.45 27.9 28.3 18.85 22.05 12.55 15.85 6.25 7.2 6.4 -1.45 6.55 -7.45 13.05 -13.45 19.6 -13.3 28.65" fill="#bf7926" fill-rule="evenodd" stroke="none"/>
    <path d="M-58.8 26.7 Q-61.3 23.4 -64.05 21.35 L-66.35 19.95 -65.55 19.9 -63.55 20.1 Q-60.15 21.1 -57.15 25.55 -54.2 29.9 -53.55 34.0 -53.2 36.0 -53.45 37.2 -53.8 35.85 -54.7 33.95 -56.4 30.05 -58.8 26.7 M-74.8 28.4 Q-82.8 25.05 -90.55 24.65 L-96.65 24.95 -95.05 23.7 Q-92.9 22.35 -90.3 21.6 -82.05 19.3 -72.1 24.1 -62.1 28.9 -57.55 35.85 -55.25 39.3 -54.95 41.9 -56.7 39.85 -60.1 37.15 -66.85 31.8 -74.8 28.4" fill="#a8620f" fill-rule="evenodd" stroke="none"/>
    <path d="M-5.65 25.75 Q-3.55 22.45 -1.15 20.45 L0.85 19.15 0.15 19.05 -1.6 19.25 Q-4.65 20.2 -7.1 24.6 -9.65 28.95 -10.15 32.95 -10.4 34.95 -10.15 36.15 L-9.15 32.95 Q-7.7 29.05 -5.65 25.75 M8.6 27.6 Q15.6 24.35 22.45 24.05 L27.85 24.35 26.4 23.15 Q24.5 21.7 22.2 20.95 14.75 18.6 6.05 23.3 -2.7 28.0 -6.55 34.85 -8.55 38.3 -8.7 40.9 -7.2 38.85 -4.25 36.2 1.6 30.9 8.6 27.6" fill="#a8620f" fill-rule="evenodd" stroke="none"/>
  </g>
</svg>
