<?xml version="1.0" encoding="UTF-8" standalone="no"?>
<svg xmlns:xlink="http://www.w3.org/1999/xlink" height="57.25px" width="38.45px" xmlns="http://www.w3.org/2000/svg">
  <g transform="matrix(1.0, 0.0, 0.0, 1.0, 19.25, 28.65)">
    <path d="M9.65 25.3 L9.5 24.4 Q8.6 18.8 8.6 13.75 8.6 9.2 9.7 4.0 10.9 -1.4 10.95 -2.85 11.0 -6.2 9.9 -7.7 8.5 -9.45 5.2 -9.55 2.7 -9.65 -2.75 -5.4 -8.45 -1.0 -10.35 -0.7 L-13.4 -0.9 Q-14.35 -1.45 -15.3 -2.3 -17.0 -3.85 -17.25 -10.3 -17.45 -16.65 -15.9 -19.25 -14.45 -21.7 -6.2 -24.2 1.55 -26.65 5.95 -26.65 9.7 -26.65 12.15 -24.65 14.2 -22.9 15.75 -19.2 17.1 -16.0 16.7 -10.8 16.35 -6.3 15.05 -2.85 13.45 1.55 13.9 13.9 14.0 16.2 15.6 21.6 L17.2 26.6 9.65 25.3" fill="#32ad80" fill-rule="evenodd" stroke="none"/>
    <path d="M-13.4 -0.9 L-10.35 -0.7 Q-8.45 -1.0 -2.75 -5.4 2.7 -9.65 5.2 -9.55 8.5 -9.45 9.9 -7.7 11.0 -6.2 10.95 -2.85 10.9 -1.4 9.7 4.0 8.6 9.2 8.6 13.75 8.6 18.8 9.5 24.4 L9.65 25.3 1.65 23.95 1.15 21.3 Q0.6 18.15 0.6 15.25 L0.6 15.05 0.65 13.65 0.7 12.95 0.95 9.55 2.45 -2.65 2.5 -3.0 2.3 -3.1 2.25 -3.1 1.6 -3.0 Q0.95 -2.85 0.15 -2.25 L-0.15 -2.0 Q-0.95 -1.45 -1.75 -1.05 L-1.8 -1.0 -2.6 -0.65 -3.05 -0.5 -5.9 0.15 -7.15 0.25 -7.3 0.25 -11.9 -0.1 -13.4 -0.9" fill="#ffe693" fill-rule="evenodd" stroke="none"/>
    <path d="M-13.4 -0.9 L-10.35 -0.7 Q-8.45 -1.0 -2.75 -5.4 2.7 -9.65 5.2 -9.55 8.5 -9.45 9.9 -7.7 11.0 -6.2 10.95 -2.85 10.9 -1.4 9.7 4.0 8.6 9.2 8.6 13.75 8.6 18.8 9.5 24.4 L9.65 25.3 17.2 26.6 15.6 21.6 Q14.0 16.2 13.9 13.9 13.45 1.55 15.05 -2.85 16.35 -6.3 16.7 -10.8 17.1 -16.0 15.75 -19.2 14.2 -22.9 12.15 -24.65 9.7 -26.65 5.95 -26.65 1.55 -26.65 -6.2 -24.2 -14.45 -21.7 -15.9 -19.25 -17.45 -16.65 -17.25 -10.3 -17.0 -3.85 -15.3 -2.3 -14.35 -1.45 -13.4 -0.9 L-11.9 -0.1 -7.3 0.25 -7.15 0.25 -5.9 0.15 -3.05 -0.5 -2.6 -0.65 -1.8 -1.0 -1.75 -1.05 Q-0.95 -1.45 -0.15 -2.0 L0.15 -2.25 Q0.95 -2.85 1.6 -3.0 L2.25 -3.1 2.3 -3.1 2.5 -3.0 2.45 -2.65 0.95 9.55 0.7 12.95 0.65 13.65 0.6 15.05 0.6 15.25 Q0.6 18.15 1.15 21.3 L1.65 23.95 9.65 25.3" fill="none" stroke="#003f36" stroke-linecap="round" stroke-linejoin="round" stroke-width="4.0"/>
    <path d="M-13.4 -0.9 Q-14.35 -1.45 -15.3 -2.3 -17.05 -3.9 -17.25 -10.3 -17.45 -16.65 -15.9 -19.25 -14.45 -21.65 -6.2 -24.25 1.55 -26.65 5.95 -26.65 9.7 -26.65 12.1 -24.65 14.2 -22.95 15.75 -19.25 17.05 -16.0 16.7 -10.8 16.35 -6.3 15.05 -2.9 13.4 1.5 13.85 13.9 13.95 16.15 15.6 21.6 L17.15 26.6 9.65 25.35 9.45 24.4 Q8.55 18.75 8.55 13.75 8.55 9.2 9.7 4.0 10.85 -1.4 10.9 -2.9 11.0 -6.2 9.85 -7.7 8.5 -9.45 5.15 -9.6 2.7 -9.65 -2.75 -5.4 -8.45 -1.0 -10.35 -0.75 L-13.4 -0.9" fill="#32ad80" fill-rule="evenodd" stroke="none"/>
    <path d="M9.65 25.35 L1.65 23.95 1.1 21.35 Q0.55 18.15 0.6 15.2 L0.6 15.05 0.75 12.35 Q1.1 7.3 2.45 -2.65 L2.5 -3.05 2.25 -3.1 1.6 -3.05 0.1 -2.2 -0.3 -1.95 -1.8 -1.05 -3.05 -0.5 -7.15 0.25 -7.35 0.25 -11.9 -0.1 -13.4 -0.9 -10.35 -0.75 Q-8.45 -1.0 -2.75 -5.4 2.7 -9.65 5.15 -9.6 8.5 -9.45 9.85 -7.7 11.0 -6.2 10.9 -2.9 10.85 -1.4 9.7 4.0 8.55 9.2 8.55 13.75 8.55 18.75 9.45 24.4 L9.65 25.35" fill="#ffe693" fill-rule="evenodd" stroke="none"/>
    <path d="M-13.4 -0.9 L-10.35 -0.75 Q-8.45 -1.0 -2.75 -5.4 2.7 -9.65 5.15 -9.6 8.5 -9.45 9.85 -7.7 11.0 -6.2 10.9 -2.9 10.85 -1.4 9.7 4.0 8.55 9.2 8.55 13.75 8.55 18.75 9.45 24.4 L9.65 25.35 1.65 23.95 1.1 21.35 Q0.55 18.15 0.6 15.2 0.65 10.55 2.5 -3.05 1.7 -3.35 0.1 -2.2 L-3.05 -0.5 -7.35 0.25 -11.9 -0.1 -13.4 -0.9" fill="#ffe693" fill-rule="evenodd" stroke="none"/>
    <path d="M-12.8 -18.3 Q-12.8 -17.9 -13.1 -17.6 -13.35 -17.35 -13.75 -17.35 -14.15 -17.35 -14.4 -17.6 L-14.7 -18.3 -14.4 -18.95 -13.75 -19.25 Q-13.35 -19.25 -13.1 -18.95 -12.8 -18.65 -12.8 -18.3" fill="#003f36" fill-rule="evenodd" stroke="none"/>
    <path d="M2.6 -13.75 Q1.05 -13.75 0.0 -14.8 -1.1 -15.9 -1.1 -17.4 -1.1 -18.95 0.0 -20.05 1.05 -21.05 2.6 -21.05 4.1 -21.05 5.2 -20.05 6.3 -18.95 6.3 -17.4 6.3 -15.9 5.2 -14.8 4.1 -13.75 2.6 -13.75" fill="#1b9166" fill-rule="evenodd" stroke="none"/>
    <path d="M2.55 -15.9 Q1.5 -15.9 0.8 -16.65 0.1 -17.35 0.1 -18.35 0.1 -19.4 0.8 -20.1 1.5 -20.8 2.55 -20.8 3.55 -20.8 4.25 -20.1 5.0 -19.4 5.0 -18.35 5.0 -17.35 4.25 -16.65 3.55 -15.9 2.55 -15.9" fill="#000000" fill-rule="evenodd" stroke="none"/>
    <path d="M15.75 -19.2 Q17.1 -16.0 16.7 -10.8 L16.65 -10.1 14.65 -11.6 Q12.35 -13.8 12.35 -16.95 12.35 -19.85 14.35 -22.0 L15.75 -19.2 M13.55 -1.8 Q12.9 -2.4 12.9 -3.3 12.9 -4.2 13.55 -4.85 14.15 -5.45 15.05 -5.45 L16.25 -5.1 15.85 -5.3 15.05 -2.85 14.6 -1.2 14.95 -1.15 Q14.1 -1.2 13.55 -1.8 M14.4 7.0 L13.8 7.75 13.9 13.9 Q14.0 15.9 15.3 20.35 14.4 19.8 13.7 18.6 12.35 16.4 12.35 13.25 12.35 10.1 13.7 7.85 14.0 7.35 14.4 7.0" fill="#006b5c" fill-rule="evenodd" stroke="none"/>
  </g>
</svg>
