<?xml version="1.0" encoding="UTF-8" standalone="no"?>
<svg xmlns:xlink="http://www.w3.org/1999/xlink" height="134.7px" width="235.35px" xmlns="http://www.w3.org/2000/svg">
  <g transform="matrix(1.0, 0.0, 0.0, 1.0, 123.2, 155.7)">
    <path d="M-108.0 -111.95 Q-113.9 -96.25 -116.15 -76.3 -118.2 -57.55 -116.3 -43.55 -114.25 -28.95 -108.7 -27.3 -102.95 -25.5 -86.35 -35.4 -67.15 -46.75 -61.2 -47.9 -53.4 -49.35 -25.65 -44.6 18.1 -37.1 27.5 -35.9 59.65 -31.75 77.85 -34.9 101.1 -38.9 105.25 -54.85 110.05 -73.1 88.6 -95.05 68.55 -115.6 34.55 -131.0 -0.5 -146.8 -33.4 -149.3 -70.1 -152.0 -91.65 -136.6 -101.3 -129.7 -108.0 -111.95" fill="#7cb421" fill-rule="evenodd" stroke="none"/>
    <path d="M-108.0 -111.95 Q-113.9 -96.25 -116.15 -76.3 -118.2 -57.55 -116.3 -43.55 -114.25 -28.95 -108.7 -27.3 -102.95 -25.5 -86.35 -35.4 -67.15 -46.75 -61.2 -47.9 -53.4 -49.35 -25.65 -44.6 18.1 -37.1 27.5 -35.9 59.65 -31.75 77.85 -34.9 101.1 -38.9 105.25 -54.85 110.05 -73.1 88.6 -95.05 68.55 -115.6 34.55 -131.0 -0.5 -146.8 -33.4 -149.3 -70.1 -152.0 -91.65 -136.6 -101.3 -129.7 -108.0 -111.95 Z" fill="none" stroke="#416409" stroke-linecap="round" stroke-linejoin="round" stroke-width="12.0"/>
    <path d="M80.6 -61.55 Q83.3 -44.6 82.15 -25.6 -10.4 -18.2 -98.8 -23.0 -101.0 -42.1 -97.85 -59.0 L80.6 -61.55" fill="#416409" fill-rule="evenodd" stroke="none"/>
    <path d="M105.25 -54.85 Q101.1 -38.95 77.95 -34.95 59.7 -31.85 27.5 -35.95 18.15 -37.1 -25.6 -44.6 -53.35 -49.4 -61.15 -47.95 -67.15 -46.8 -86.35 -35.45 -102.95 -25.55 -108.7 -27.3 -114.25 -28.95 -116.2 -43.65 -118.15 -57.6 -116.1 -76.35 -113.85 -96.25 -107.95 -111.95 -106.15 -116.7 -104.2 -120.65 -98.7 -131.55 -91.65 -136.65 -76.45 -147.45 -53.8 -149.35 -44.3 -150.15 -33.4 -149.3 -0.4 -146.85 34.6 -131.05 68.55 -115.65 88.65 -95.1 110.05 -73.1 105.25 -54.85" fill="#7cb421" fill-rule="evenodd" stroke="none"/>
    <path d="M-25.6 -44.6 Q18.15 -37.05 27.5 -35.9 59.7 -31.8 77.95 -34.9 101.1 -38.9 105.25 -54.85 109.05 -69.25 96.45 -86.0 97.3 -80.3 95.9 -74.7 91.6 -57.9 67.9 -51.85 49.2 -47.1 16.25 -48.7 L-38.15 -53.2 Q-66.65 -55.85 -74.55 -53.7 -80.7 -52.1 -100.35 -38.75 -107.6 -33.85 -112.9 -31.15 -111.15 -27.95 -108.7 -27.25 -102.95 -25.5 -86.35 -35.4 -67.15 -46.8 -61.15 -47.9 -53.35 -49.35 -25.6 -44.6" fill="#719d17" fill-rule="evenodd" stroke="none"/>
  </g>
</svg>
