<?xml version="1.0" encoding="UTF-8" standalone="no"?>
<svg xmlns:xlink="http://www.w3.org/1999/xlink" height="20.65px" width="9.2px" xmlns="http://www.w3.org/2000/svg">
  <g transform="matrix(1.0, 0.0, 0.0, 1.0, 4.0, 25.65)">
    <path d="M1.55 -25.6 L1.7 -25.55 1.9 -25.55 Q3.2 -25.55 4.25 -24.25 2.75 -24.2 1.7 -21.8 0.55 -19.4 0.55 -15.95 0.55 -12.5 1.7 -10.1 2.8 -7.7 4.4 -7.7 L5.2 -7.85 Q3.85 -5.0 1.9 -5.0 L1.0 -5.15 0.1 -5.25 Q-0.4 -5.45 -0.55 -5.8 L-0.65 -5.9 Q-3.25 -8.45 -3.5 -12.05 -4.2 -14.15 -3.95 -16.45 L-3.75 -17.3 Q-3.45 -21.05 -1.2 -24.2 -0.25 -25.5 1.3 -25.65 L1.55 -25.6" fill="#ffcc00" fill-rule="evenodd" stroke="none"/>
  </g>
</svg>
