<?xml version="1.0" encoding="UTF-8" standalone="no"?>
<svg xmlns:xlink="http://www.w3.org/1999/xlink" height="20.5px" width="13.45px" xmlns="http://www.w3.org/2000/svg">
  <g transform="matrix(1.0, 0.0, 0.0, 1.0, 5.25, 25.6)">
    <path d="M2.7 -25.55 L2.9 -25.55 3.05 -25.55 Q4.75 -25.55 6.15 -24.6 L6.45 -24.05 Q5.05 -23.8 3.9 -22.7 L2.4 -20.95 Q1.1 -19.05 0.9 -16.6 L0.85 -15.55 Q0.9 -12.5 2.6 -10.3 L2.9 -9.9 Q4.5 -7.8 6.75 -7.7 L7.5 -7.75 7.55 -7.75 8.2 -7.4 Q6.8 -5.7 4.95 -5.3 L3.8 -5.2 2.7 -5.1 2.0 -5.25 1.85 -5.35 1.75 -5.4 Q-1.4 -6.35 -3.3 -9.15 L-4.15 -10.7 Q-5.3 -12.95 -5.25 -15.6 L-5.25 -15.8 -5.15 -16.85 Q-4.85 -20.0 -2.9 -22.4 L-1.05 -24.3 Q0.45 -25.45 2.45 -25.6 L2.7 -25.55" fill="#ffcc00" fill-rule="evenodd" stroke="none"/>
  </g>
</svg>
