<?xml version="1.0" encoding="UTF-8" standalone="no"?>
<svg xmlns:xlink="http://www.w3.org/1999/xlink" height="88.55px" width="64.3px" xmlns="http://www.w3.org/2000/svg">
  <g transform="matrix(1.0, 0.0, 0.0, 1.0, 0.3, 24.55)">
    <path d="M55.55 59.05 L55.4 59.0 55.95 59.0 55.95 59.05 55.55 59.05 M20.2 54.55 Q19.35 54.55 19.2 55.4 L19.2 55.5 19.0 55.5 19.0 55.55 18.85 55.55 18.7 55.6 18.6 55.6 18.5 55.65 18.35 55.75 18.25 55.85 18.2 55.9 18.1 56.0 18.05 56.05 17.85 56.0 15.45 56.05 Q14.95 56.15 14.75 56.65 L14.7 56.9 14.7 57.2 14.8 57.55 14.95 57.8 15.0 57.85 15.45 58.1 16.25 58.3 16.2 58.3 15.8 58.4 15.6 58.4 15.4 58.5 15.25 58.55 14.95 58.7 14.75 58.85 14.65 58.95 14.5 58.75 14.55 58.65 14.45 58.2 14.2 57.7 13.8 57.4 13.35 57.25 Q12.9 57.35 12.5 57.6 L11.45 58.4 Q11.05 58.85 11.05 59.45 L11.15 60.1 9.9 60.9 Q9.45 61.3 9.8 61.7 10.9 63.1 12.8 62.5 L12.9 62.5 13.25 62.85 13.95 63.2 14.7 63.4 15.35 63.5 15.6 63.55 16.05 63.6 17.7 63.9 17.7 63.95 17.7 64.0 0.0 64.0 0.0 0.0 64.0 0.0 64.0 64.0 60.15 64.0 60.85 63.95 Q62.05 63.85 62.95 63.25 63.85 62.65 63.15 61.8 L63.05 61.7 63.1 61.3 62.95 60.95 62.7 60.65 62.15 60.4 59.3 60.45 58.85 60.45 58.35 60.55 57.0 60.55 57.0 60.45 57.05 60.4 57.05 60.3 57.05 60.2 57.05 60.15 57.05 60.05 57.0 60.0 57.0 59.9 57.0 59.8 56.95 59.75 56.9 59.65 56.85 59.6 56.8 59.5 57.75 58.75 Q58.65 57.55 57.3 57.1 55.75 56.55 54.1 56.55 L47.65 56.45 Q48.15 56.3 48.3 55.75 48.4 55.4 48.15 55.2 46.0 53.55 42.95 53.85 L35.55 54.6 20.2 54.55" fill="#e9c572" fill-opacity="0.0" fill-rule="evenodd" stroke="none"/>
    <path d="M47.65 4.2 L47.6 4.25 47.2 4.3 47.65 4.2 M24.25 50.75 L22.6 50.75 22.45 50.85 22.3 50.95 21.8 51.05 21.25 50.95 21.15 50.85 21.15 50.75 21.05 50.75 21.05 50.8 20.95 50.95 20.1 51.2 Q19.85 51.2 19.7 51.0 L19.7 50.95 19.7 50.85 19.55 50.95 19.4 51.05 19.5 51.2 19.5 51.3 19.45 51.35 19.4 51.55 19.2 51.7 18.95 51.85 18.75 51.75 18.65 51.7 18.55 51.55 18.45 51.35 18.45 51.25 18.15 51.2 17.95 51.15 17.95 51.25 17.95 51.5 17.8 51.75 17.7 51.8 17.15 51.9 16.7 51.85 16.5 51.7 16.45 51.65 16.4 51.55 16.35 51.4 16.35 51.35 16.25 51.45 Q16.05 51.45 15.9 51.65 L15.6 51.7 15.55 51.6 15.55 51.55 15.5 51.45 15.5 51.35 15.5 51.3 15.5 51.2 15.5 51.15 15.55 51.05 15.55 51.0 15.45 51.0 15.0 50.8 14.55 51.2 14.5 51.1 14.5 51.0 14.45 51.0 Q14.15 51.0 14.05 50.8 L13.7 50.65 13.55 50.5 13.25 50.6 12.75 50.75 12.7 50.95 Q12.55 51.25 12.25 51.15 L11.8 50.95 11.7 50.8 11.5 50.75 11.45 50.75 11.45 50.95 Q11.35 51.65 10.75 51.5 10.05 51.4 10.2 50.7 L10.3 50.5 10.15 50.45 10.15 50.5 10.05 50.6 9.95 50.7 9.85 50.7 9.65 50.6 9.45 50.45 9.4 50.3 9.2 50.25 9.2 50.3 9.15 50.45 9.15 50.5 9.1 50.55 9.05 50.6 9.0 50.65 8.75 50.7 8.35 50.6 8.15 50.45 8.1 50.25 7.55 50.4 7.55 50.45 7.3 50.95 7.35 51.2 7.35 51.65 7.0 51.95 6.65 51.75 6.6 51.65 6.6 51.45 6.6 51.3 6.6 51.15 6.55 51.15 6.5 51.2 6.15 51.75 5.8 52.2 5.55 52.25 5.15 52.0 4.8 52.1 4.1 51.55 4.1 51.3 4.05 51.25 4.0 51.25 4.05 51.45 Q4.1 51.9 3.65 51.75 L3.35 51.35 Q3.25 50.95 3.6 51.0 L3.9 51.15 3.9 50.95 Q4.0 50.7 4.25 50.75 L4.35 50.9 4.35 50.85 4.5 50.8 4.35 50.55 3.95 50.4 3.75 50.25 3.7 50.2 3.4 50.3 Q2.75 50.3 2.45 49.85 L2.35 49.6 2.25 49.6 2.15 49.25 1.75 49.3 Q1.1 49.15 1.25 48.5 1.35 48.0 1.85 47.95 2.35 48.05 2.45 48.45 L2.5 48.4 2.9 48.05 Q3.25 48.1 3.25 48.45 L3.2 48.95 3.55 49.25 3.6 49.35 3.55 48.0 3.15 47.9 3.0 47.85 2.85 47.85 2.7 47.75 2.7 47.65 2.65 47.6 2.65 47.5 2.65 47.4 2.65 47.3 2.7 47.25 2.75 47.2 2.75 47.1 2.85 47.1 2.9 47.05 3.0 47.05 3.2 47.1 3.55 47.0 3.3 46.9 3.2 46.7 3.2 46.5 3.2 46.35 3.25 46.2 3.35 46.15 3.55 46.1 3.5 44.1 3.45 44.15 3.2 44.3 Q2.75 44.35 2.75 43.95 L2.75 43.8 2.75 43.6 2.75 43.45 2.6 43.45 Q2.15 43.5 2.15 43.1 2.1 42.55 2.6 42.55 L2.95 43.0 2.95 43.25 3.0 43.2 3.2 43.15 3.5 43.3 3.5 43.05 3.5 42.2 3.4 42.2 2.95 42.0 2.85 42.1 2.0 42.2 1.75 41.95 1.75 41.8 1.8 41.5 2.05 41.2 2.6 40.9 2.85 41.0 3.0 41.15 3.05 41.2 3.4 41.0 3.5 41.0 3.55 41.0 3.55 40.85 3.1 40.8 2.85 40.55 2.75 40.4 2.75 40.25 2.75 40.1 2.85 39.95 3.15 39.7 3.25 39.65 2.95 38.85 2.6 38.9 2.15 38.7 2.05 38.55 2.05 38.4 2.1 38.25 2.2 38.1 2.4 38.0 2.6 37.95 2.75 38.05 2.6 36.35 2.25 36.35 2.2 36.5 1.95 36.65 1.75 36.5 Q1.55 36.25 1.85 36.1 L2.0 36.05 Q1.9 35.6 2.3 35.5 L2.65 35.5 2.65 35.1 2.6 35.1 2.15 34.85 2.05 34.6 2.05 34.45 2.1 34.3 2.25 34.15 Q2.3 34.05 2.4 34.05 L2.6 34.0 2.6 33.95 2.75 34.05 2.8 33.3 2.7 33.05 2.7 32.9 2.7 32.7 2.7 32.55 2.75 32.4 2.9 32.25 2.95 31.85 2.45 31.95 Q1.8 31.8 1.95 31.15 L2.2 30.75 1.9 30.45 1.8 30.3 1.75 30.15 1.75 29.95 1.75 29.8 1.75 29.65 1.85 29.5 1.95 29.35 2.25 29.2 2.6 29.1 2.6 29.05 2.85 29.2 3.0 29.35 3.05 29.35 3.05 28.35 2.95 28.35 2.5 28.3 2.4 28.2 2.35 28.1 2.15 28.05 1.95 28.1 1.9 28.2 1.85 28.35 1.75 28.45 1.75 28.5 Q1.35 28.7 1.15 28.35 L0.9 27.95 0.8 27.65 Q0.7 27.25 1.1 27.1 L1.35 27.0 1.35 26.95 1.55 27.0 1.55 26.95 1.6 26.8 1.7 26.65 1.95 26.4 Q2.25 26.2 2.6 26.1 L2.6 26.05 2.95 26.2 3.0 26.2 2.95 24.65 2.75 24.65 Q2.4 24.65 2.35 24.3 2.3 23.8 2.75 23.7 L2.9 23.75 2.9 23.6 2.75 23.6 Q2.4 23.6 2.4 23.2 2.4 22.85 2.75 22.8 L2.9 22.85 2.75 20.7 2.75 20.05 2.3 20.1 Q1.95 20.05 1.9 19.65 L1.9 19.5 1.95 19.35 2.0 19.25 2.1 19.2 2.3 19.15 2.0 18.8 1.95 18.55 1.95 18.35 1.95 18.2 2.1 18.05 2.2 17.95 2.3 17.9 2.6 17.85 2.85 17.95 3.05 18.1 3.1 18.15 3.7 16.9 3.65 16.85 Q3.55 16.25 4.0 15.75 L4.3 15.5 4.25 13.6 4.1 13.3 4.05 13.0 4.05 12.95 4.1 12.85 4.2 12.75 4.2 12.35 Q3.95 12.65 3.45 12.35 3.0 12.1 3.2 11.6 L3.55 11.2 4.15 11.2 Q4.1 10.9 4.2 10.6 4.25 10.35 4.45 10.25 L4.85 10.15 Q5.3 10.1 5.65 10.45 L5.95 10.95 5.95 10.9 6.05 10.8 6.1 10.75 6.3 10.75 6.3 10.7 6.45 10.75 6.65 10.8 6.75 10.9 Q6.75 10.4 7.25 10.4 7.7 10.5 7.8 11.0 L16.4 10.3 20.9 10.05 Q31.65 10.05 42.4 10.35 L42.4 10.25 41.95 9.9 41.95 9.5 Q42.15 9.05 42.65 9.0 L43.05 8.95 43.3 9.05 43.45 9.15 43.55 9.35 43.6 9.5 43.6 9.6 44.0 9.95 44.35 9.8 Q44.45 9.65 44.65 9.65 45.0 9.7 45.1 9.95 L45.3 9.9 Q45.9 10.0 45.95 10.45 L46.25 10.45 46.15 10.15 Q46.2 9.8 46.55 9.7 L46.75 9.65 47.15 9.85 47.35 10.2 47.4 10.55 47.55 10.7 47.75 10.95 47.7 11.35 47.55 11.55 47.5 11.6 47.45 11.65 47.35 11.65 47.3 11.65 47.2 11.65 47.25 11.7 47.3 11.75 47.3 11.9 47.25 12.05 47.25 12.25 47.6 12.0 Q48.1 12.05 48.1 12.5 48.1 12.95 47.6 12.95 L47.55 12.95 Q47.8 13.2 47.7 13.55 L47.5 14.3 47.1 14.75 47.0 14.75 47.15 16.9 47.35 19.6 47.4 19.55 47.55 19.6 47.7 19.65 47.8 19.7 47.9 19.85 48.0 20.0 48.0 20.05 48.0 20.15 47.95 20.2 47.95 20.25 47.9 20.3 47.8 20.4 47.7 20.45 47.6 20.45 47.35 20.4 47.4 21.0 Q47.95 21.15 47.85 21.8 47.8 22.35 47.45 22.4 L47.45 22.8 Q47.95 23.15 48.0 23.7 L48.05 23.55 Q48.1 21.1 48.3 18.7 48.0 18.5 48.15 18.0 48.25 17.5 48.7 17.5 L49.2 17.8 49.4 17.85 49.6 18.0 50.1 23.9 50.35 23.8 50.7 24.15 50.85 24.25 51.1 24.4 51.3 24.7 51.5 25.05 51.5 25.2 51.4 25.5 51.1 26.0 50.25 26.25 50.2 26.25 50.1 26.4 50.05 28.55 50.15 28.55 50.25 28.65 50.3 28.7 50.35 28.75 50.4 28.8 50.4 28.85 50.4 28.95 50.4 29.0 50.35 29.1 50.35 29.15 50.5 29.05 50.75 29.0 50.8 29.0 Q51.15 29.1 51.05 29.5 L50.8 30.0 50.5 30.1 50.4 30.1 50.35 30.3 50.1 30.5 50.05 30.55 50.05 31.2 50.25 31.1 50.5 31.25 50.7 31.4 50.75 31.55 50.75 31.7 50.75 31.85 50.45 32.05 50.0 32.1 50.0 32.25 50.05 32.2 50.15 32.2 50.3 32.25 50.4 32.3 50.5 32.35 50.5 32.4 50.6 32.6 50.55 32.85 50.35 33.05 50.15 33.1 50.0 33.05 50.0 34.2 Q50.1 34.05 50.25 34.05 50.6 34.1 50.6 34.5 L50.25 34.85 50.0 34.8 50.0 35.25 50.0 36.2 50.25 36.1 50.35 36.1 Q50.7 36.35 50.65 36.75 L50.45 37.15 50.6 37.5 Q50.6 37.8 50.3 37.9 L50.05 38.0 50.05 38.5 50.15 38.55 50.35 38.7 50.4 38.85 50.45 39.0 50.4 39.1 50.45 39.1 50.6 39.2 50.7 39.3 50.75 39.5 50.8 39.55 50.8 39.6 50.75 39.7 50.75 39.8 50.65 39.9 50.55 40.0 50.25 39.95 50.05 39.85 50.05 40.25 50.25 40.1 50.7 40.3 Q50.95 40.45 50.85 40.7 L50.6 41.15 50.75 41.4 Q50.95 41.85 50.45 41.95 L50.05 41.9 50.1 44.1 50.1 44.55 50.6 44.95 Q50.75 45.4 50.25 45.45 L50.15 45.45 50.1 46.85 50.5 47.0 50.75 47.15 50.75 47.0 50.75 46.9 50.75 46.75 50.85 46.6 51.0 46.45 51.05 46.45 51.3 46.15 51.9 45.85 51.95 45.8 52.35 45.95 52.55 46.1 52.8 46.4 52.95 46.75 52.95 46.9 52.95 47.05 52.8 47.4 52.55 47.65 51.95 47.95 51.5 47.85 51.3 47.7 51.15 47.5 51.05 47.55 51.1 47.75 51.1 47.9 51.1 48.05 50.95 48.4 50.75 48.65 Q50.45 48.85 50.1 49.0 L49.95 48.95 49.95 49.15 50.25 49.0 50.6 49.3 50.7 49.75 50.5 49.95 50.0 49.95 49.85 49.8 49.8 50.1 49.9 50.1 49.95 50.1 50.1 50.05 50.1 50.0 50.5 50.3 50.6 50.75 50.25 51.0 50.2 51.05 49.9 51.3 49.25 51.25 49.15 51.3 Q48.75 51.65 48.5 51.2 L48.4 50.9 48.2 51.15 47.8 51.25 47.55 51.15 47.5 51.25 47.45 51.45 47.45 51.8 47.15 51.95 Q46.85 51.9 46.95 51.6 L47.0 51.5 45.9 51.45 45.85 51.45 45.6 51.65 45.3 51.7 45.25 51.6 45.2 51.45 45.2 51.3 44.6 51.35 44.5 51.8 44.2 52.2 44.2 52.25 44.3 52.35 44.35 52.4 44.5 52.45 44.6 52.6 44.65 52.7 44.2 53.0 43.7 52.8 43.55 52.45 43.55 52.4 Q42.85 52.45 42.3 52.0 L42.2 52.25 42.05 52.4 41.95 52.4 41.7 52.25 41.55 51.95 41.6 51.85 41.55 51.85 41.3 51.65 41.25 51.5 41.3 51.45 41.35 51.4 41.4 51.35 41.5 51.3 41.55 51.3 41.25 51.1 41.2 51.25 40.95 51.6 40.8 51.6 40.6 51.55 40.5 51.45 40.45 51.4 40.4 51.3 40.4 51.25 40.4 51.15 40.35 51.0 40.35 50.9 40.35 50.85 40.35 50.75 40.25 50.7 40.0 50.7 39.8 50.65 39.7 50.55 39.55 50.4 39.5 50.25 39.0 50.15 39.0 50.2 38.95 50.3 38.8 50.4 38.55 50.5 38.6 50.65 38.6 50.7 38.65 50.65 38.8 50.5 39.1 50.45 39.2 50.45 39.4 50.45 39.55 50.55 39.7 50.7 39.8 50.9 39.65 51.15 39.55 51.25 39.55 51.5 39.4 51.7 39.3 51.75 39.05 51.65 38.9 51.45 38.9 51.35 38.6 51.0 38.3 51.25 37.65 51.3 37.55 51.35 37.15 51.2 37.15 51.15 37.1 51.05 36.85 51.15 35.4 51.05 35.3 50.95 35.25 50.9 35.25 50.8 35.2 50.75 35.25 50.55 35.25 50.4 34.2 50.55 34.55 50.6 34.75 50.7 34.75 50.75 34.75 50.85 34.65 51.05 33.75 51.0 33.65 50.95 33.05 51.05 32.9 51.0 32.8 50.9 32.8 51.0 32.75 51.1 32.65 51.25 32.55 51.35 32.35 51.5 32.3 51.55 32.2 51.6 32.05 51.5 31.9 51.4 31.85 51.35 31.8 51.4 31.8 51.5 31.85 51.5 31.9 51.55 31.85 51.8 31.4 52.0 30.75 51.9 30.65 51.65 30.65 51.6 30.65 51.5 30.7 51.45 30.75 51.35 30.65 51.3 30.3 51.0 30.25 50.85 30.25 50.8 29.8 50.8 29.4 50.8 29.55 51.0 29.7 50.95 29.7 50.9 29.95 51.0 30.1 51.2 29.95 51.4 29.7 51.45 29.55 51.4 29.5 51.3 29.45 51.35 29.35 51.45 29.15 51.5 29.0 51.45 28.9 51.4 28.7 51.35 28.35 51.3 28.25 51.25 28.1 51.25 28.0 51.3 27.5 51.5 26.85 51.5 26.5 51.35 26.45 51.25 26.45 51.2 26.4 51.1 26.45 50.95 26.45 50.8 26.45 50.75 25.65 50.75 25.95 50.85 26.15 51.0 Q26.35 51.0 26.4 51.2 L26.25 51.3 25.55 51.45 Q25.1 51.4 25.0 50.95 25.0 50.8 25.15 50.75 L24.25 50.75 Q24.5 50.85 24.35 51.1 24.25 51.3 24.0 51.3 L23.45 51.35 23.2 51.15 23.3 50.95 24.1 50.8 24.25 50.75 M46.8 11.45 L46.95 11.55 47.05 11.55 47.0 11.5 46.95 11.45 46.9 11.3 46.9 11.15 46.9 10.95 46.75 10.95 46.8 11.45 M48.7 10.7 L48.4 10.85 48.15 10.7 48.1 10.6 48.05 10.5 48.8 10.55 48.7 10.7 M46.85 12.65 L46.85 12.75 47.25 12.8 47.2 12.45 47.15 12.5 47.05 12.55 46.95 12.6 46.85 12.65 M50.1 16.7 L50.15 16.55 50.45 16.3 50.6 16.25 50.9 15.95 51.05 16.0 51.05 15.95 51.5 16.1 51.7 16.25 51.9 16.55 52.1 16.85 52.1 17.05 52.05 17.2 51.9 17.5 51.65 17.75 51.05 18.1 50.85 18.05 50.85 18.4 50.75 18.55 50.6 18.4 Q50.5 18.15 50.65 18.0 L50.7 18.0 50.65 17.95 50.45 17.8 50.2 17.5 50.05 17.2 50.05 16.85 50.1 16.7 M50.6 20.2 L50.65 20.6 50.35 20.75 50.2 20.4 Q50.25 20.15 50.6 20.2 M50.15 23.5 L50.1 23.2 50.2 22.95 50.25 22.9 50.45 22.85 50.7 22.95 50.8 23.1 50.9 23.3 50.9 23.55 50.75 23.75 50.5 23.75 50.15 23.5 M51.15 18.25 L51.35 18.0 51.45 18.0 51.55 18.35 51.55 18.45 51.2 18.45 Q51.1 18.35 51.15 18.25 M52.1 19.4 Q51.95 19.15 52.3 19.1 L52.3 19.05 52.6 19.4 52.45 19.6 52.1 19.4 M50.9 19.85 L50.75 19.7 50.75 19.45 51.0 19.4 51.05 19.7 50.9 19.85 M52.75 21.15 Q53.15 21.3 53.1 21.75 L52.75 22.15 Q52.35 22.15 52.35 21.75 52.3 21.25 52.75 21.2 L52.75 21.15 M50.65 22.55 Q50.3 22.4 50.35 22.0 50.4 21.6 50.8 21.65 51.1 21.9 51.05 22.3 51.05 22.75 50.65 22.55 M51.45 25.9 L51.4 26.35 51.05 26.5 51.0 26.45 51.25 25.95 51.45 25.9 M50.75 27.0 L50.8 27.35 50.75 27.55 50.65 27.5 50.65 27.1 50.75 27.0 M51.55 28.3 L51.6 28.5 51.65 28.8 51.35 28.9 Q50.95 28.9 50.75 28.6 L50.7 28.3 50.8 28.05 51.05 27.9 51.3 28.0 51.45 28.15 51.55 28.3 M51.15 33.4 L51.2 33.45 51.25 33.55 51.25 33.65 51.25 33.7 51.25 33.8 51.05 34.0 50.75 34.0 50.7 33.9 50.6 33.8 50.6 33.65 50.6 33.55 50.6 33.5 50.65 33.45 50.75 33.35 50.8 33.3 50.9 33.3 51.05 33.35 51.15 33.4 M51.75 35.85 L51.85 36.0 51.95 36.15 51.95 36.3 52.0 36.5 52.0 36.55 52.1 36.85 52.0 36.95 51.8 36.95 51.55 37.0 Q51.0 37.0 51.05 36.5 L51.1 36.15 51.35 35.75 51.6 35.65 51.75 35.85 M47.45 25.4 L47.45 26.45 47.5 26.65 47.45 26.9 47.4 27.05 47.4 27.5 47.5 27.55 47.75 27.75 47.9 28.05 47.9 28.4 47.85 28.5 48.1 28.8 48.05 25.55 47.6 25.1 47.45 25.4 M48.0 30.35 L48.1 30.4 48.1 30.15 47.95 30.35 48.0 30.35 M47.15 33.8 L47.3 33.8 47.25 33.25 47.15 33.3 47.15 33.8 M50.35 43.5 L50.55 43.45 50.75 43.4 50.75 43.35 51.1 43.65 51.2 44.1 Q51.0 44.4 50.75 44.35 L50.3 44.1 50.2 44.0 50.2 43.85 50.25 43.7 50.35 43.5 M47.95 46.85 L48.1 46.85 48.1 46.6 47.95 46.85 M52.05 37.45 L52.05 37.75 52.05 38.25 51.95 38.7 51.65 38.85 51.45 38.8 51.3 38.45 51.3 38.15 51.55 37.65 51.95 37.45 52.05 37.45 M52.25 43.95 L51.95 44.25 Q51.55 44.2 51.6 43.85 51.65 43.5 51.95 43.5 52.3 43.55 52.25 43.95 M51.6 49.1 L51.55 49.2 Q51.3 49.2 51.15 49.0 51.0 48.8 51.2 48.7 51.3 48.6 51.45 48.6 L51.6 49.1 M5.1 15.7 L5.15 15.8 5.15 15.65 5.1 15.55 5.1 15.7 M2.85 13.35 L3.05 13.65 3.15 14.15 3.05 14.45 3.0 14.55 3.2 14.6 3.45 14.8 3.55 14.95 3.55 15.1 3.55 15.25 3.15 15.45 Q2.75 15.6 2.6 15.2 L2.55 14.95 2.6 14.8 2.25 14.7 2.1 14.55 2.0 14.4 2.0 14.25 2.0 13.9 2.05 13.6 2.3 13.35 2.6 13.25 2.6 13.2 2.85 13.35 M1.15 15.1 L1.35 15.05 1.75 15.35 Q1.95 15.55 1.8 15.8 L1.35 16.1 Q0.95 16.1 0.95 15.75 L0.95 15.6 1.0 15.4 1.05 15.25 1.15 15.15 1.15 15.1 M0.25 16.6 L0.55 16.45 0.85 16.55 1.0 16.7 1.1 16.85 1.15 17.05 1.15 17.2 0.85 17.45 Q0.3 17.8 0.05 17.15 L0.05 16.9 0.25 16.6 M2.75 16.55 Q2.4 16.5 2.45 16.15 2.5 15.8 2.75 15.8 3.1 15.85 3.05 16.25 L2.75 16.55 M2.8 19.2 L2.75 19.3 2.8 19.35 2.85 19.2 2.8 19.2 M1.15 20.2 L1.4 20.35 1.5 20.45 1.65 20.65 1.75 20.8 1.9 21.1 Q1.8 21.4 1.5 21.4 1.05 21.45 0.8 21.05 0.65 20.8 0.8 20.5 L1.15 20.2 M2.1 21.7 L2.55 22.15 2.45 22.75 2.1 22.95 Q1.75 23.0 1.7 22.6 L1.65 22.45 1.65 22.3 1.7 22.15 1.75 22.0 1.85 21.85 2.1 21.75 2.1 21.7 M1.15 24.5 L1.55 24.65 1.8 24.8 2.0 25.1 2.15 25.4 2.15 25.55 2.15 25.7 2.0 26.05 1.8 26.3 1.15 26.65 0.7 26.5 0.5 26.35 0.3 26.05 0.2 25.75 0.15 25.4 0.2 25.25 0.3 25.1 0.5 24.85 Q0.85 24.65 1.15 24.55 L1.15 24.5 M1.6 28.6 Q1.95 28.85 1.85 29.25 1.7 29.6 1.35 29.55 0.9 29.55 1.05 29.05 1.15 28.6 1.5 28.6 L1.6 28.6 M3.0 30.65 L2.8 30.7 3.0 30.8 3.0 30.65 M2.4 32.45 Q2.45 32.8 2.1 32.8 L1.65 32.4 Q1.45 31.95 1.95 31.9 L1.95 31.85 Q2.35 32.0 2.4 32.45 M0.8 31.6 L0.35 30.95 0.7 31.25 0.8 31.6 M5.3 39.85 L5.2 39.75 5.2 39.8 5.3 40.0 5.3 39.85 M5.25 39.05 L5.25 38.6 5.15 38.55 5.2 39.3 5.25 39.05 M5.25 40.55 L5.2 40.7 5.25 41.15 5.3 41.05 5.3 40.45 5.25 40.55 M1.05 38.35 Q1.3 38.55 1.15 38.8 L0.9 38.95 0.65 38.8 Q0.5 38.5 0.8 38.4 L1.05 38.35 M1.0 42.5 L1.1 42.65 1.1 42.8 1.1 43.0 1.05 43.1 0.8 43.45 0.1 43.55 -0.1 43.3 -0.1 43.15 -0.05 43.0 0.1 42.65 0.3 42.4 0.55 42.25 0.55 42.2 0.8 42.35 1.0 42.5 M1.15 45.1 L1.3 45.0 1.45 44.95 1.65 45.0 1.7 45.05 1.75 45.1 1.8 45.2 1.8 45.25 1.8 45.35 1.65 45.6 1.3 45.75 1.05 45.6 1.05 45.55 1.0 45.45 1.0 45.35 1.05 45.3 1.05 45.2 1.1 45.15 1.15 45.1 M1.65 46.35 L1.7 46.5 1.75 46.3 Q1.85 45.8 2.3 45.75 2.95 45.85 2.9 46.55 2.8 47.2 2.2 47.1 L1.75 46.8 1.75 46.85 Q1.55 46.9 1.45 46.7 L1.35 46.45 1.3 46.2 1.4 46.05 1.4 46.0 1.6 46.2 1.65 46.35 M0.2 46.5 Q0.35 46.1 0.8 46.1 1.45 46.25 1.25 46.95 L1.2 47.2 1.2 47.25 1.2 47.35 1.15 47.3 0.45 47.4 Q-0.15 47.2 0.2 46.5 M39.15 52.3 L39.15 52.25 39.2 52.1 39.3 51.95 39.45 51.9 39.65 52.05 39.7 52.25 39.55 52.45 39.25 52.45 39.2 52.4 39.15 52.3 M38.3 52.55 L38.3 52.6 38.3 52.7 38.25 52.75 37.9 52.85 37.7 52.75 37.6 52.7 37.6 52.6 37.65 52.55 37.7 52.45 37.75 52.4 37.9 52.35 37.9 52.3 38.05 52.35 38.25 52.45 38.3 52.55 M36.15 50.2 L36.45 50.2 36.45 50.15 36.15 50.2 M36.2 51.75 L36.2 51.85 36.15 51.9 36.1 52.0 36.05 52.05 36.0 52.05 35.7 52.0 35.4 51.75 35.4 51.45 Q35.5 51.3 35.65 51.3 L35.85 51.3 36.0 51.35 36.1 51.45 36.2 51.6 36.2 51.65 36.2 51.75 M36.7 52.45 L36.75 52.35 36.9 52.3 37.15 52.4 Q37.35 52.5 37.15 52.6 L36.9 52.65 36.7 52.6 36.7 52.5 36.7 52.45 M33.95 52.5 L33.75 52.8 33.35 52.85 33.15 52.65 33.15 52.6 33.2 52.45 33.35 52.35 33.55 52.3 33.75 52.25 33.95 52.5 M34.25 52.45 L34.35 52.3 34.7 52.15 34.85 52.2 35.0 52.3 35.1 52.45 35.2 52.6 35.2 52.7 35.2 52.75 35.1 52.95 35.0 53.05 34.7 53.2 34.45 53.15 34.35 53.1 34.25 52.9 34.2 52.75 34.15 52.6 34.2 52.55 34.25 52.45 M32.7 50.75 L32.7 50.8 32.75 50.8 32.7 50.75 M28.75 51.6 L28.9 51.6 29.0 51.6 29.15 51.65 29.25 51.8 29.3 52.05 29.2 52.2 29.15 52.25 29.0 52.3 28.8 52.3 28.5 52.1 28.45 52.05 28.45 51.95 28.5 51.9 28.5 51.8 28.6 51.7 28.75 51.6 M27.8 50.8 L27.3 50.8 27.3 50.95 27.4 50.9 27.8 50.8 M25.45 52.4 L25.8 52.55 25.75 52.85 25.45 52.95 25.2 52.75 25.2 52.65 25.2 52.6 25.25 52.5 25.35 52.45 25.45 52.45 25.45 52.4 M26.6 53.4 L26.35 53.4 26.2 53.35 26.15 53.25 26.1 53.2 26.1 53.1 26.2 53.0 26.35 52.9 26.75 52.95 26.8 53.25 26.6 53.4 M28.0 53.25 L27.75 53.1 Q27.65 52.85 27.9 52.85 L27.9 52.8 Q28.1 52.8 28.2 52.95 L28.0 53.25 M22.9 51.7 L22.75 51.85 22.5 51.85 22.4 51.75 22.4 51.7 22.35 51.6 22.35 51.55 22.4 51.45 22.45 51.35 22.55 51.3 22.6 51.25 22.65 51.2 22.75 51.2 22.95 51.4 22.9 51.7 M23.3 52.15 L23.4 52.2 23.5 52.35 23.5 52.45 23.4 52.6 Q23.15 52.8 22.85 52.6 L22.75 52.25 22.8 52.1 23.0 52.0 23.2 52.05 23.3 52.15 M20.3 52.05 L20.2 52.05 20.1 52.05 19.95 51.95 19.75 51.8 19.7 51.65 19.7 51.6 19.75 51.5 19.85 51.35 20.0 51.3 20.1 51.25 20.3 51.3 20.35 51.4 20.4 51.55 20.45 51.7 20.5 51.65 Q20.7 51.6 20.8 51.8 L20.8 52.1 20.5 52.25 20.3 52.05 M22.1 52.0 L22.1 51.95 22.3 52.0 22.4 52.0 22.55 52.1 22.65 52.2 22.6 52.25 22.45 52.4 22.3 52.45 21.95 52.45 21.8 52.4 21.75 52.3 21.75 52.25 21.8 52.15 21.9 52.1 21.95 52.0 22.0 52.0 22.1 52.0 M20.75 53.6 L20.9 53.5 21.0 53.55 21.1 53.55 21.2 53.6 21.25 53.7 21.25 53.85 21.25 53.95 21.1 54.1 Q20.85 54.2 20.7 53.95 L20.65 53.7 20.75 53.6 M17.95 52.1 L18.05 52.05 18.15 52.0 18.4 52.3 18.15 52.65 18.75 52.7 18.65 52.8 18.5 52.95 18.25 53.05 18.0 52.95 17.95 52.9 17.85 52.75 17.75 52.75 17.5 52.55 17.5 52.5 17.6 52.35 Q17.65 52.25 17.75 52.25 L17.95 52.1 M15.45 52.3 L15.2 52.55 Q14.9 52.5 14.95 52.25 15.0 52.05 15.2 52.0 L15.45 52.3 M19.55 53.3 L19.65 53.25 19.9 53.45 19.9 53.8 19.65 53.85 19.55 53.6 19.5 53.5 19.5 53.45 19.55 53.35 19.55 53.3 M13.0 51.15 L13.1 51.6 12.9 51.8 Q12.55 51.8 12.55 51.45 L12.9 51.15 13.0 51.15 M13.6 51.95 L13.5 52.05 13.45 52.1 13.35 52.2 13.15 52.15 Q12.9 52.0 13.15 51.75 L13.6 51.65 13.75 51.85 13.6 51.95 M13.95 52.45 Q13.65 52.45 13.7 52.2 13.75 51.95 13.95 51.95 L14.15 52.25 13.95 52.45 M13.15 53.8 L13.2 53.75 13.5 53.6 13.75 53.55 14.0 53.8 13.9 54.1 13.5 54.2 13.15 53.95 13.15 53.9 13.15 53.8 M9.45 50.8 L9.6 50.75 9.65 51.05 9.45 51.15 9.25 51.0 9.45 50.8 M7.8 50.75 L7.85 50.7 Q8.25 50.65 8.4 50.95 L8.35 51.45 Q8.2 51.8 7.85 51.8 7.45 51.8 7.4 51.4 L7.4 51.25 7.4 51.1 7.45 50.95 7.55 50.85 7.6 50.8 7.8 50.75 M8.35 52.15 Q8.35 51.75 8.7 51.75 L9.0 52.2 8.65 52.55 Q8.3 52.55 8.35 52.15 M9.95 52.2 Q10.0 52.65 9.6 52.65 9.2 52.65 9.15 52.25 9.15 51.75 9.6 51.75 9.95 51.8 9.95 52.2 M6.1 50.5 L6.15 50.5 6.15 50.35 6.1 50.5 M6.55 52.9 Q6.55 52.4 6.95 52.35 7.4 52.45 7.4 52.9 7.45 53.4 6.95 53.4 6.55 53.4 6.55 52.9 M0.9 50.05 L0.7 50.45 Q0.3 50.75 0.15 50.3 0.05 49.95 0.35 49.7 L0.55 49.65 Q0.9 49.7 0.9 50.05 M0.4 51.4 L0.65 51.35 0.9 51.85 Q0.9 52.0 0.7 52.0 L0.35 51.8 Q0.15 51.55 0.4 51.4 M2.2 51.45 L2.2 51.8 2.15 51.9 1.95 51.9 1.9 51.7 2.1 51.5 2.2 51.45 M1.9 52.5 L1.95 52.8 1.8 52.95 Q1.65 52.95 1.55 52.8 1.45 52.6 1.65 52.55 L1.9 52.5 M2.3 53.45 L2.3 53.4 2.9 53.5 3.1 53.65 3.15 53.75 3.1 53.95 2.95 54.05 2.8 54.1 Q2.0 54.25 1.95 53.6 L1.95 53.55 2.3 53.45 M4.35 53.85 L4.75 54.15 Q4.95 54.35 4.75 54.65 4.6 54.9 4.35 54.85 L3.9 54.6 3.85 54.45 3.85 54.3 3.85 54.15 4.0 54.0 4.15 53.9 4.35 53.85 M52.05 49.8 L52.2 50.25 52.0 50.5 Q51.6 50.7 51.55 50.3 51.55 50.0 51.8 49.85 L52.05 49.8 M50.9 52.55 Q50.55 52.55 50.6 52.15 50.7 51.85 50.9 51.85 51.25 51.9 51.2 52.25 L50.9 52.55 M48.35 51.95 L48.3 52.3 48.2 52.4 48.35 52.75 48.35 52.85 47.75 52.8 47.75 52.65 47.9 52.4 47.85 52.4 47.75 52.35 47.75 52.3 47.75 52.15 47.8 51.95 47.9 51.85 48.1 51.75 48.35 51.95 M49.2 52.55 L49.5 52.65 49.5 52.95 49.2 53.05 49.0 52.85 49.0 52.75 49.0 52.7 49.05 52.6 49.15 52.55 49.2 52.55 M47.4 51.0 L47.45 51.05 47.45 50.95 47.4 51.0 M45.9 51.95 L45.95 51.95 46.1 52.3 46.05 52.4 46.0 52.45 45.8 52.65 45.55 52.45 45.55 52.35 45.55 52.3 45.55 52.15 45.65 52.0 45.8 51.95 45.9 52.0 45.9 51.95 M46.65 52.55 L46.75 52.6 46.9 52.75 47.05 52.85 47.1 53.0 47.0 53.15 46.6 53.25 46.1 52.8 46.2 52.6 46.4 52.5 46.65 52.55 M47.75 53.45 L47.9 53.4 48.15 53.55 48.2 53.75 48.15 53.9 48.3 54.05 48.3 54.35 48.0 54.5 47.75 54.4 47.7 54.3 47.7 54.15 47.75 54.0 47.8 54.0 47.7 53.95 47.65 53.9 47.6 53.8 47.6 53.75 47.65 53.6 47.75 53.45 M45.6 54.45 L45.35 54.15 Q45.4 53.95 45.6 53.9 L45.85 54.2 45.6 54.45 M45.25 52.25 L45.05 52.05 Q44.95 51.9 45.15 51.85 L45.35 51.8 45.4 52.1 45.25 52.25 M40.8 52.15 L41.15 52.0 41.15 51.95 41.3 52.05 41.45 52.1 41.55 52.25 41.65 52.4 41.65 52.5 41.65 52.6 41.55 52.75 41.45 52.85 41.15 53.05 40.9 52.95 40.8 52.9 40.7 52.75 40.65 52.6 40.6 52.4 40.65 52.35 40.7 52.25 40.8 52.15 M-0.3 44.8 L-0.1 45.4 -0.2 45.25 -0.3 45.0 -0.3 44.95 -0.3 44.8 M42.45 52.7 L41.95 52.7 42.15 52.55 42.45 52.7" fill="#e9c572" fill-rule="evenodd" stroke="none"/>
    <path d="M3.55 -3.45 L14.7 -12.75 14.8 -3.75 25.15 -14.15 24.95 -23.2 Q24.95 -23.35 36.65 -23.3 L48.4 -23.2 49.1 8.85 49.25 8.85 45.65 44.8 Q45.9 45.0 6.95 45.9 L3.35 27.25 3.45 27.15 3.55 -3.45" fill="#339fff" fill-rule="evenodd" stroke="none"/>
    <path d="M3.55 -3.45 L3.45 27.15 3.35 27.25 6.95 45.9 Q45.9 45.0 45.65 44.8 L49.25 8.85 49.1 8.85 48.4 -23.2 36.65 -23.3 Q24.95 -23.35 24.95 -23.2 L25.15 -14.15 14.8 -3.75 14.7 -12.75 3.55 -3.45 Z" fill="none" stroke="#333333" stroke-linecap="butt" stroke-linejoin="round" stroke-width="2.5"/>
    <path d="M26.5 -15.5 L27.2 18.2 13.1 27.75 13.3 12.65 13.3 -2.3 26.5 -15.5" fill="url(#gradient0)" fill-rule="evenodd" stroke="none"/>
    <path d="M15.05 -13.1 L15.3 18.05 Q3.8 27.8 3.8 27.35 L3.9 -3.8 15.05 -13.1" fill="#2c7ebc" fill-rule="evenodd" stroke="none"/>
    <path d="M24.95 -23.2 Q24.95 -23.35 36.65 -23.3 L48.4 -23.2 49.1 9.1 25.65 9.3 24.95 -23.2" fill="#2c7ebc" fill-rule="evenodd" stroke="none"/>
  </g>
  <defs>
    <linearGradient gradientTransform="matrix(0.0086, 0.0, 0.0, 0.0264, 20.15, 6.1)" gradientUnits="userSpaceOnUse" id="gradient0" spreadMethod="pad" x1="-819.2" x2="819.2">
      <stop offset="0.0" stop-color="#1d537a"/>
      <stop offset="1.0" stop-color="#2c7ebc"/>
    </linearGradient>
  </defs>
</svg>
