<?xml version="1.0" encoding="UTF-8" standalone="no"?>
<svg xmlns:xlink="http://www.w3.org/1999/xlink" height="16.5px" width="14.55px" xmlns="http://www.w3.org/2000/svg">
  <g transform="matrix(1.0, 0.0, 0.0, 1.0, -7.15, -9.1)">
    <path d="M13.55 10.4 Q13.9 10.1 14.35 10.1 14.8 10.1 15.1 10.4 15.45 10.75 15.45 11.2 15.45 11.65 15.1 11.95 L14.8 12.2 Q15.8 12.3 16.85 13.05 17.95 13.9 18.2 14.8 L18.6 18.2 18.85 20.7 18.9 20.7 Q20.7 21.25 20.7 22.0 20.7 22.75 18.9 23.3 L15.8 23.8 15.5 24.2 Q15.1 24.6 14.5 24.6 13.9 24.6 13.5 24.2 L13.25 23.85 10.0 23.3 Q8.15 22.75 8.15 22.0 8.15 21.25 10.0 20.7 L10.15 20.65 10.3 18.55 10.55 15.45 Q10.75 14.45 11.75 13.45 12.75 12.4 14.0 12.25 L13.55 11.95 Q13.25 11.65 13.25 11.2 13.25 10.75 13.55 10.4" fill="#000000" fill-rule="evenodd" stroke="none"/>
    <path d="M13.55 10.4 Q13.9 10.1 14.35 10.1 14.8 10.1 15.1 10.4 15.45 10.75 15.45 11.2 15.45 11.65 15.1 11.95 L14.8 12.2 Q15.8 12.3 16.85 13.05 17.95 13.9 18.2 14.8 L18.6 18.2 18.85 20.7 18.9 20.7 Q20.7 21.25 20.7 22.0 20.7 22.75 18.9 23.3 L15.8 23.8 15.5 24.2 Q15.1 24.6 14.5 24.6 13.9 24.6 13.5 24.2 L13.25 23.85 10.0 23.3 Q8.15 22.75 8.15 22.0 8.15 21.25 10.0 20.7 L10.15 20.65 10.3 18.55 10.55 15.45 Q10.75 14.45 11.75 13.45 12.75 12.4 14.0 12.25 L13.55 11.95 Q13.25 11.65 13.25 11.2 13.25 10.75 13.55 10.4 Z" fill="none" stroke="#3a250e" stroke-linecap="round" stroke-linejoin="round" stroke-width="2.0"/>
  </g>
</svg>
