<?xml version="1.0" encoding="UTF-8" standalone="no"?>
<svg xmlns:xlink="http://www.w3.org/1999/xlink" height="17.6px" width="14.35px" xmlns="http://www.w3.org/2000/svg">
  <g transform="matrix(1.0, 0.0, 0.0, 1.0, -7.25, -9.1)">
    <path d="M15.45 11.2 Q15.45 11.65 15.1 11.95 L14.8 12.2 Q15.8 12.3 16.85 13.05 17.95 13.9 18.2 14.8 L18.6 18.2 18.9 21.2 19.05 21.3 Q20.6 21.7 20.6 22.2 20.6 22.75 18.8 23.2 L15.8 23.6 16.0 24.3 Q16.0 24.9 15.6 25.3 15.2 25.7 14.6 25.7 14.0 25.7 13.6 25.3 13.2 24.9 13.2 24.3 L13.4 23.6 10.05 23.2 Q8.25 22.75 8.25 22.2 8.25 21.65 9.95 21.3 L9.95 21.25 Q10.25 20.85 10.3 18.55 L10.55 15.45 Q10.75 14.45 11.75 13.45 12.75 12.4 14.0 12.25 L13.55 11.95 Q13.25 11.65 13.25 11.2 13.25 10.75 13.55 10.4 13.9 10.1 14.35 10.1 14.8 10.1 15.1 10.4 15.45 10.75 15.45 11.2" fill="#000000" fill-rule="evenodd" stroke="none"/>
    <path d="M15.45 11.2 Q15.45 11.65 15.1 11.95 L14.8 12.2 Q15.8 12.3 16.85 13.05 17.95 13.9 18.2 14.8 L18.6 18.2 18.9 21.2 19.05 21.3 Q20.6 21.7 20.6 22.2 20.6 22.75 18.8 23.2 L15.8 23.6 16.0 24.3 Q16.0 24.9 15.6 25.3 15.2 25.7 14.6 25.7 14.0 25.7 13.6 25.3 13.2 24.9 13.2 24.3 L13.4 23.6 10.05 23.2 Q8.25 22.75 8.25 22.2 8.25 21.65 9.95 21.3 L9.95 21.25 Q10.25 20.85 10.3 18.55 L10.55 15.45 Q10.75 14.45 11.75 13.45 12.75 12.4 14.0 12.25 L13.55 11.95 Q13.25 11.65 13.25 11.2 13.25 10.75 13.55 10.4 13.9 10.1 14.35 10.1 14.8 10.1 15.1 10.4 15.45 10.75 15.45 11.2 Z" fill="none" stroke="#3a250e" stroke-linecap="round" stroke-linejoin="round" stroke-width="2.0"/>
  </g>
</svg>
