<?xml version="1.0" encoding="UTF-8" standalone="no"?>
<svg xmlns:xlink="http://www.w3.org/1999/xlink" height="14.95px" width="14.3px" xmlns="http://www.w3.org/2000/svg">
  <g transform="matrix(1.0, 0.0, 0.0, 1.0, -7.5, -9.1)">
    <path d="M13.55 10.4 Q13.9 10.1 14.35 10.1 14.8 10.1 15.1 10.4 15.45 10.75 15.45 11.2 15.45 11.65 15.1 11.95 L14.8 12.2 Q15.85 12.3 16.85 12.9 17.95 13.65 18.2 14.4 L18.6 17.2 18.65 17.65 19.0 17.8 Q20.8 18.75 20.8 19.95 20.8 21.2 19.0 22.1 17.2 23.05 14.65 23.05 12.1 23.05 10.3 22.1 8.5 21.2 8.5 19.95 8.5 18.75 10.3 17.8 L10.3 17.55 10.55 14.95 Q10.75 14.1 11.75 13.25 12.75 12.35 13.95 12.25 L13.55 11.95 Q13.25 11.65 13.25 11.2 13.25 10.75 13.55 10.4" fill="#000000" fill-rule="evenodd" stroke="none"/>
    <path d="M13.55 10.4 Q13.9 10.1 14.35 10.1 14.8 10.1 15.1 10.4 15.45 10.75 15.45 11.2 15.45 11.65 15.1 11.95 L14.8 12.2 Q15.85 12.3 16.85 12.9 17.95 13.65 18.2 14.4 L18.6 17.2 18.65 17.65 19.0 17.8 Q20.8 18.75 20.8 19.95 20.8 21.2 19.0 22.1 17.2 23.05 14.65 23.05 12.1 23.05 10.3 22.1 8.5 21.2 8.5 19.95 8.5 18.75 10.3 17.8 L10.3 17.55 10.55 14.95 Q10.75 14.1 11.75 13.25 12.75 12.35 13.95 12.25 L13.55 11.95 Q13.25 11.65 13.25 11.2 13.25 10.75 13.55 10.4 Z" fill="none" stroke="#3a250e" stroke-linecap="round" stroke-linejoin="round" stroke-width="2.0"/>
  </g>
</svg>
