<?xml version="1.0" encoding="UTF-8" standalone="no"?>
<svg xmlns:xlink="http://www.w3.org/1999/xlink" height="92.5px" width="104.25px" xmlns="http://www.w3.org/2000/svg">
  <g transform="matrix(1.0, 0.0, 0.0, 1.0, 11.25, 11.4)">
    <path d="M64.3 76.5 L63.55 76.55 36.55 77.8 Q25.1 77.65 25.9 65.95 33.2 62.8 43.9 60.45 54.6 58.05 63.95 57.3 L64.3 76.5 M38.65 72.65 Q48.55 63.35 62.4 59.4 49.2 60.4 37.9 64.75 L38.65 72.65" fill="#9fadb8" fill-rule="evenodd" stroke="none"/>
    <path d="M63.95 57.3 L86.65 58.15 84.95 64.8 Q84.4 67.4 82.5 71.15 80.6 74.8 64.3 76.5 L63.95 57.3" fill="#8d9ba6" fill-rule="evenodd" stroke="none"/>
    <path d="M38.65 72.65 L37.9 64.75 Q49.2 60.4 62.4 59.4 48.55 63.35 38.65 72.65" fill="#ffffff" fill-rule="evenodd" stroke="none"/>
    <path d="M63.95 57.3 L86.65 58.15 84.95 64.8 Q84.4 67.4 82.5 71.15 80.6 74.8 64.3 76.5 L63.55 76.55 36.55 77.8 Q25.1 77.65 25.9 65.95 33.2 62.8 43.9 60.45 54.6 58.05 63.95 57.3 Z" fill="none" stroke="#1e2027" stroke-linecap="butt" stroke-linejoin="miter" stroke-miterlimit="3.0" stroke-width="2.0"/>
    <path d="M62.4 75.4 L62.4 62.45 65.55 62.1 65.55 75.0 62.4 75.4" fill="#191c1e" fill-rule="evenodd" stroke="none"/>
    <path d="M65.55 62.1 L67.45 61.9 67.45 76.1 67.4 76.1 65.55 75.0 65.55 62.1" fill="#73838c" fill-rule="evenodd" stroke="none"/>
    <path d="M67.4 76.1 L62.4 76.65 62.4 75.4 65.55 75.0 67.4 76.1" fill="#b3c2cd" fill-rule="evenodd" stroke="none"/>
    <path d="M81.65 58.15 Q57.65 54.95 33.65 63.15 L12.9 53.65 9.65 36.15 68.15 40.65 88.4 29.15 87.65 50.15 81.65 58.15" fill="#191c1e" fill-opacity="0.9019608" fill-rule="evenodd" stroke="none"/>
    <path d="M53.15 -10.3 Q70.05 -9.25 80.6 1.95 88.8 10.55 91.7 22.5 87.95 26.55 73.25 28.5 L73.3 28.45 72.45 28.55 Q69.95 0.85 53.15 -10.3 M0.35 30.7 L-1.25 20.15 Q0.5 13.55 6.8 6.45 19.5 -7.7 42.8 -10.05 L48.5 -10.4 Q66.95 1.05 69.45 28.85 45.5 31.1 0.4 29.25 L0.35 30.7" fill="#555c72" fill-rule="evenodd" stroke="none"/>
    <path d="M48.5 -10.4 L53.15 -10.3 Q69.95 0.85 72.45 28.55 L73.3 28.45 73.25 28.5 Q87.95 26.55 91.7 22.5 L91.7 22.45 91.75 22.85 92.0 23.85 91.75 26.25 Q87.3 29.65 73.65 31.45 L72.75 31.55 Q48.6 34.25 0.6 32.25 L0.3 32.25 0.35 30.7 0.4 29.25 Q45.5 31.1 69.45 28.85 66.95 1.05 48.5 -10.4" fill="#1e2027" fill-rule="evenodd" stroke="none"/>
    <path d="M68.3 43.65 L36.4 42.15 Q21.7 40.5 15.75 37.7 15.9 41.85 16.35 44.45 L17.45 49.9 Q18.1 52.75 18.4 53.2 L10.85 53.95 2.8 46.6 0.9 34.4 32.1 35.85 69.95 34.3 68.3 43.65" fill="#7983a1" fill-rule="evenodd" stroke="none"/>
    <path d="M81.65 58.15 Q83.95 54.5 85.35 50.3 L88.8 49.4 84.95 56.85 84.4 57.9 81.65 58.15 M18.4 53.2 Q20.15 55.15 26.0 58.2 31.85 61.25 35.65 62.5 L30.65 63.9 12.2 55.15 10.85 53.95 18.4 53.2" fill="#868faa" fill-rule="evenodd" stroke="none"/>
    <path d="M84.95 72.8 L81.65 74.2 81.65 58.15 84.4 57.9 84.95 56.85 84.95 72.8 M35.65 62.5 L36.7 80.1 32.8 80.1 30.65 63.9 35.65 62.5" fill="#495166" fill-rule="evenodd" stroke="none"/>
    <path d="M89.55 47.9 L89.25 57.45 84.95 72.8 84.95 56.85 88.8 49.4 89.55 47.9 M32.8 80.1 L17.65 72.25 4.3 56.7 2.8 46.6 10.85 53.95 12.2 55.15 30.65 63.9 32.8 80.1" fill="#5a6177" fill-rule="evenodd" stroke="none"/>
    <path d="M91.75 26.25 L91.45 29.35 Q83.1 32.65 69.95 34.3 L32.1 35.85 0.9 34.4 0.6 32.25 Q48.6 34.25 72.75 31.55 L73.65 31.45 Q87.3 29.65 91.75 26.25" fill="#5a6074" fill-rule="evenodd" stroke="none"/>
    <path d="M91.45 29.35 L89.55 46.7 89.55 47.9 88.8 49.4 85.35 50.3 86.1 34.45 Q81.6 40.15 68.3 43.65 L69.95 34.3 Q83.1 32.65 91.45 29.35" fill="#646d87" fill-rule="evenodd" stroke="none"/>
    <path d="M84.95 72.8 L81.65 74.2 81.65 58.15 Q83.95 54.5 85.35 50.3 L86.1 34.45 Q81.6 40.15 68.3 43.65 L36.4 42.15 Q21.7 40.5 15.75 37.7 15.9 41.85 16.35 44.45 L17.45 49.9 Q18.1 52.75 18.4 53.2 20.15 55.15 26.0 58.2 31.85 61.25 35.65 62.5 L36.7 80.1 32.8 80.1" fill="none" stroke="#1e2027" stroke-linecap="butt" stroke-linejoin="miter" stroke-miterlimit="3.0" stroke-width="2.0"/>
    <path d="M-8.05 47.1 Q-9.2 44.0 -9.85 39.8 L-10.0 38.5 Q-9.9 28.65 -2.75 33.95 L-2.1 36.7 -1.8 38.6 -1.35 42.95 Q-5.25 49.8 -8.05 47.1" fill="#8d94aa" fill-rule="evenodd" stroke="none"/>
    <path d="M5.35 21.65 L6.45 23.1 Q9.65 27.65 11.05 34.25 L11.45 36.65 11.7 38.55 Q10.85 46.4 5.3 51.75 -0.1 53.5 -1.6 48.0 L-1.6 47.9 Q-1.25 45.65 -1.35 42.95 L-1.8 38.6 -2.1 36.7 -2.75 33.95 Q-3.4 31.6 -4.3 29.75 L-4.9 28.6 Q-1.6 19.85 5.35 21.65" fill="#474d5f" fill-rule="evenodd" stroke="none"/>
    <path d="M11.7 38.55 Q12.4 45.6 10.6 51.1 L9.95 52.85 Q8.4 56.35 6.05 57.55 L4.45 58.0 Q0.35 58.6 -3.4 53.25 L-4.1 52.1 -3.9 52.05 Q-2.2 51.85 -1.6 48.0 -0.1 53.5 5.3 51.75 10.85 46.4 11.7 38.55" fill="#363b48" fill-rule="evenodd" stroke="none"/>
    <path d="M-10.0 38.5 Q-10.5 34.0 -10.0 30.55 -9.45 26.9 -7.95 26.45 L-7.7 26.4 Q-6.3 26.25 -4.9 28.6 L-4.3 29.75 Q-3.4 31.6 -2.75 33.95 -9.9 28.65 -10.0 38.5" fill="#afb6cd" fill-rule="evenodd" stroke="none"/>
    <path d="M-4.1 52.1 Q-5.65 52.05 -7.35 48.75 L-8.05 47.1 Q-5.25 49.8 -1.35 42.95 -1.25 45.65 -1.6 47.9 L-1.6 48.0 Q-2.2 51.85 -3.9 52.05 L-4.1 52.1" fill="#73788a" fill-rule="evenodd" stroke="none"/>
    <path d="M-7.95 26.45 L-7.55 25.2 Q-5.5 19.0 -1.4 18.35 L-1.0 18.3 Q2.25 18.05 5.35 21.65 -1.6 19.85 -4.9 28.6 -6.3 26.25 -7.7 26.4 L-7.95 26.45" fill="#878fa6" fill-rule="evenodd" stroke="none"/>
    <path d="M5.35 21.65 L6.45 23.1 Q9.65 27.65 11.05 34.25 L11.45 36.65 11.7 38.55 Q12.4 45.6 10.6 51.1 L9.95 52.85 Q8.4 56.35 6.05 57.55 M-1.0 18.3 Q2.25 18.05 5.35 21.65 Z" fill="none" stroke="#1e2027" stroke-linecap="round" stroke-linejoin="round" stroke-width="1.0"/>
    <path d="M90.5 23.55 Q86.3 26.25 81.65 26.9 81.65 18.95 77.55 7.6 75.45 1.95 69.4 -4.1 80.3 0.55 86.3 12.0 89.3 17.7 90.5 23.55" fill="#000000" fill-opacity="0.2509804" fill-rule="evenodd" stroke="none"/>
    <path d="M6.05 57.55 Q8.4 56.35 9.95 52.85 L10.6 51.1 Q12.4 45.6 11.7 38.55 L11.45 36.65 11.05 34.25 Q9.65 27.65 6.45 23.1 L5.35 21.65 Q2.45 18.25 -0.65 18.3 L-1.0 18.3 -1.4 18.35 Q-5.5 19.0 -7.55 25.2 L-7.95 26.45 Q-9.45 26.9 -10.0 30.55 -10.5 34.0 -10.0 38.5 L-9.85 39.8 Q-9.2 44.0 -8.05 47.1 L-7.35 48.75 Q-5.65 52.05 -4.1 52.1 L-3.4 53.25 Q0.35 58.6 4.45 58.0 L5.3 57.85 17.65 72.25 32.8 80.1 36.7 80.1 36.45 77.8 36.55 77.8 62.4 76.65 63.55 76.55 64.3 76.5 Q78.3 75.05 81.65 72.15 L81.65 74.2 84.95 72.8 89.25 57.45 89.55 46.7 92.0 23.85 91.75 22.85 91.7 22.45 91.7 22.5 Q88.8 10.55 80.6 1.95 70.05 -9.25 53.15 -10.3 L48.5 -10.4 42.8 -10.05 Q19.5 -7.7 6.8 6.45 1.4 12.55 -0.65 18.3" fill="none" stroke="#1e2027" stroke-linecap="round" stroke-linejoin="round" stroke-width="2.0"/>
    <path d="M9.0 69.9 Q10.2 71.3 11.05 68.55 12.85 62.25 12.7 57.9 L12.55 53.65 16.7 55.25 Q17.3 62.65 16.2 68.15 15.05 73.55 10.65 76.1 L8.6 76.05 Q7.65 72.6 9.0 69.9" fill="#666600" fill-rule="evenodd" stroke="none"/>
    <path d="M-0.4 56.75 L1.85 58.9 5.1 58.9 Q7.4 68.1 9.0 69.9 7.65 72.6 8.6 76.05 5.0 74.05 -0.4 56.75" fill="#434300" fill-rule="evenodd" stroke="none"/>
    <path d="M9.0 69.9 Q10.2 71.3 11.05 68.55 12.85 62.25 12.7 57.9 L12.55 53.65 16.7 55.25 Q17.3 62.65 16.2 68.15 15.05 73.55 10.65 76.1 L8.6 76.05 8.55 76.75" fill="none" stroke="#3a3a00" stroke-linecap="butt" stroke-linejoin="miter" stroke-miterlimit="3.0" stroke-width="2.0"/>
    <path d="M5.1 58.9 Q7.4 68.1 9.0 69.9 M8.6 76.05 Q5.0 74.05 -0.4 56.75" fill="none" stroke="#151500" stroke-linecap="butt" stroke-linejoin="miter" stroke-miterlimit="3.0" stroke-width="2.0"/>
    <path d="M35.55 -7.9 Q53.4 2.15 55.0 29.75 L39.7 30.1 Q38.3 -1.7 24.65 -4.6 35.3 -8.8 35.55 -7.9" fill="#ffffff" fill-opacity="0.73333335" fill-rule="evenodd" stroke="none"/>
    <path d="M65.35 47.35 L62.3 60.35 55.7 63.8 25.9 63.8 25.75 63.8 21.5 57.45 21.4 59.25 8.4 54.0 9.15 50.35 9.4 47.35 9.4 43.1 9.2 39.55 21.5 39.55 21.5 38.0 21.55 38.0 Q43.8 38.8 67.65 37.4 L65.35 47.35" fill="#000000" fill-opacity="0.49803922" fill-rule="evenodd" stroke="none"/>
    <path d="M6.6 47.2 L6.85 44.2 6.85 39.95 9.25 40.05 9.25 40.95 9.25 47.05 9.25 47.85 6.6 47.2 M13.15 40.2 L18.95 40.45 18.95 50.15 13.15 48.75 13.15 43.35 13.15 40.2" fill="#555c72" fill-rule="evenodd" stroke="none"/>
    <path d="M18.95 54.3 L18.85 56.1 5.85 50.85 6.6 47.2 9.25 47.85 9.25 49.75 13.15 51.4 13.15 48.75 18.95 50.15 18.95 54.3" fill="#363b48" fill-rule="evenodd" stroke="none"/>
    <path d="M6.85 39.95 L6.65 36.4 18.95 36.4 18.95 40.45 13.15 40.2 13.15 39.0 9.25 39.0 9.25 40.05 6.85 39.95" fill="#878fa6" fill-rule="evenodd" stroke="none"/>
    <path d="M65.1 34.25 L62.8 44.2 59.75 57.2 57.05 55.2 59.8 44.2 61.35 38.1 65.1 34.25 M19.05 54.45 L18.95 54.3 18.95 50.15 18.95 40.45 18.95 36.4 18.95 34.85 19.0 34.85 22.5 38.55 22.5 52.95 19.05 54.45" fill="#3c4151" fill-rule="evenodd" stroke="none"/>
    <path d="M57.05 55.2 L59.75 57.2 53.15 60.65 51.4 57.95 57.05 55.2 M23.35 60.65 L23.2 60.65 19.05 54.45 22.5 52.95 26.1 57.95 23.35 60.65" fill="#6d748c" fill-rule="evenodd" stroke="none"/>
    <path d="M53.15 60.65 L23.35 60.65 26.1 57.95 51.4 57.95 53.15 60.65" fill="#838eaf" fill-rule="evenodd" stroke="none"/>
    <path d="M65.1 34.25 L61.35 38.1 Q41.2 39.2 22.5 38.55 L19.0 34.85 Q41.25 35.65 65.1 34.25" fill="#2e323f" fill-rule="evenodd" stroke="none"/>
    <path d="M61.35 38.1 L59.8 44.2 57.05 55.2 51.4 57.95 26.1 57.95 22.5 52.95 22.5 38.55 Q41.2 39.2 61.35 38.1 M9.25 47.05 L9.25 40.95 13.15 43.35 13.15 48.75 9.25 47.05" fill="#de0000" fill-rule="evenodd" stroke="none"/>
    <path d="M9.25 40.05 L9.25 39.0 13.15 39.0 13.15 40.2 13.15 43.35 9.25 40.95 9.25 40.05" fill="#ff5f5f" fill-rule="evenodd" stroke="none"/>
    <path d="M9.25 47.85 L9.25 47.05 13.15 48.75 13.15 51.4 9.25 49.75 9.25 47.85" fill="#830000" fill-rule="evenodd" stroke="none"/>
    <path d="M59.75 57.2 L62.8 44.2 65.1 34.25 M59.75 57.2 L53.15 60.65 23.35 60.65 23.2 60.65 19.05 54.45 M19.0 34.85 Q41.25 35.65 65.1 34.25 M18.95 40.45 L18.95 36.4 M18.95 50.15 L18.95 40.45 M18.95 50.15 L18.95 54.3" fill="none" stroke="#1e2027" stroke-linecap="butt" stroke-linejoin="miter" stroke-miterlimit="3.0" stroke-width="2.0"/>
    <path d="M18.85 56.1 L5.85 50.85 6.6 47.2 6.85 44.2 6.85 39.95 6.65 36.4 18.95 36.4 M9.25 40.05 L9.25 39.0 13.15 39.0 13.15 40.2 M9.25 40.95 L9.25 40.05 M9.25 47.05 L9.25 40.95 M13.15 43.35 L13.15 40.2 M9.25 47.85 L9.25 47.05 M13.15 48.75 L13.15 43.35 M9.25 47.85 L9.25 49.75 13.15 51.4 13.15 48.75" fill="none" stroke="#1e2027" stroke-linecap="butt" stroke-linejoin="miter" stroke-miterlimit="3.0" stroke-width="1.0"/>
    <path d="M61.35 38.1 L59.8 44.2 57.05 55.2 M22.5 52.95 L26.1 57.95 51.4 57.95 57.05 55.2 M22.5 52.95 L22.5 38.55 Q41.2 39.2 61.35 38.1" fill="none" stroke="#5d0000" stroke-linecap="butt" stroke-linejoin="miter" stroke-miterlimit="3.0" stroke-width="2.0"/>
    <path d="M47.15 40.45 L58.0 40.05 54.65 53.9 50.6 55.8 Q54.05 47.05 47.15 40.45" fill="#ffd0d0" fill-opacity="0.49803922" fill-rule="evenodd" stroke="none"/>
    <path d="M28.1 40.6 Q27.05 51.05 35.55 56.05 L27.8 56.05 24.7 52.2 24.7 40.4 28.1 40.6" fill="#8e0000" fill-opacity="0.73333335" fill-rule="evenodd" stroke="none"/>
    <path d="M26.7 75.05 L18.6 59.75 28.95 64.25 31.1 77.5 26.7 75.05" fill="#b3b5b8" fill-rule="evenodd" stroke="none"/>
  </g>
</svg>
