<?xml version="1.0" encoding="UTF-8" standalone="no"?>
<svg xmlns:xlink="http://www.w3.org/1999/xlink" height="27.45px" width="5.05px" xmlns="http://www.w3.org/2000/svg">
  <g transform="matrix(1.0, 0.0, 0.0, 1.0, 0.4, 0.25)">
    <path d="M4.65 11.05 L4.6 10.05 4.65 9.9 4.65 11.05" fill="#ffffff" fill-rule="evenodd" stroke="none"/>
    <path d="M-0.4 2.9 L-0.4 1.3 0.75 0.6 1.1 0.25 1.15 0.25 1.4 0.0 1.55 -0.15 1.6 -0.25 4.0 -0.25 4.15 2.5 4.2 3.1 Q4.35 4.7 4.65 5.85 L4.65 9.9 4.6 10.05 4.65 11.05 4.65 14.25 3.5 14.65 Q2.9 14.65 2.2 13.1 L1.95 12.45 Q2.2 9.65 1.95 6.75 L1.65 2.75 -0.35 2.9 -0.4 2.9 M2.8 27.2 L2.8 26.6 Q2.95 25.65 2.7 24.8 L2.6 24.5 2.95 19.15 3.05 17.05 4.65 17.0 4.65 24.75 3.55 27.2 2.8 27.2" fill="#333333" fill-rule="evenodd" stroke="none"/>
    <path d="M-0.4 2.9 L-0.35 2.9 1.65 2.75 1.95 6.75 Q2.2 9.65 1.95 12.45 L2.2 13.1 Q2.9 14.65 3.5 14.65 L4.65 14.25 4.65 17.0 3.05 17.05 2.95 19.15 2.6 24.5 2.7 24.8 Q2.95 25.65 2.8 26.6 L2.8 27.2 -0.15 27.2 -0.25 26.95 -0.4 26.55 -0.4 23.75 -0.3 23.2 0.0 20.9 0.0 20.15 Q0.35 18.6 0.4 15.4 L0.15 10.65 Q-0.05 9.3 -0.4 8.7 L-0.4 2.9" fill="#e9e9e9" fill-rule="evenodd" stroke="none"/>
  </g>
</svg>
