<?xml version="1.0" encoding="UTF-8" standalone="no"?>
<svg xmlns:xlink="http://www.w3.org/1999/xlink" height="21.2px" width="37.05px" xmlns="http://www.w3.org/2000/svg">
  <g transform="matrix(1.0, 0.0, 0.0, 1.0, 7.2, 1.6)">
    <path d="M-5.75 11.35 Q-6.25 10.8 -6.2 10.1 -6.1 9.35 -5.6 8.85 -5.1 8.4 -4.35 8.4 -3.65 8.5 -3.15 9.0 L-2.85 9.3 0.0 9.2 0.1 10.85 -2.9 10.95 -3.25 11.45 Q-3.8 11.95 -4.5 11.95 -5.25 11.9 -5.75 11.35" fill="#ffffff" fill-rule="evenodd" stroke="none"/>
    <path d="M-5.75 11.35 Q-5.25 11.9 -4.5 11.95 -3.8 11.95 -3.25 11.45 L-2.9 10.95 0.1 10.85 0.0 9.2 -2.85 9.3 -3.15 9.0 Q-3.65 8.5 -4.35 8.4 -5.1 8.4 -5.6 8.85 -6.1 9.35 -6.2 10.1 -6.25 10.8 -5.75 11.35 Z" fill="none" stroke="#000000" stroke-linecap="round" stroke-linejoin="miter" stroke-miterlimit="3.0" stroke-width="2.0"/>
    <path d="M-6.15 10.1 Q-6.2 10.85 -5.7 11.35 -5.2 11.9 -4.5 11.9 -3.8 11.95 -3.2 11.5 L-2.85 11.0 0.1 10.85 0.0 9.2 -2.85 9.35 -3.1 9.05 Q-3.6 8.5 -4.3 8.45 -5.0 8.45 -5.6 8.9 -6.1 9.4 -6.15 10.1" fill="#0f1015" fill-rule="evenodd" stroke="none"/>
    <path d="M26.1 0.8 Q27.1 1.05 27.9 3.1 28.8 5.35 28.85 8.5 28.9 11.65 28.1 13.8 27.4 15.8 26.35 15.95 L16.95 17.75 Q6.9 19.35 3.4 17.95 1.35 17.15 -0.05 14.9 -1.4 12.8 -1.75 10.2 -2.1 7.4 -1.15 5.15 -0.1 2.6 2.25 1.2 6.45 -1.15 16.65 -0.4 L26.1 0.8" fill="#ffffff" fill-rule="evenodd" stroke="none"/>
    <path d="M26.1 0.8 Q27.1 1.05 27.9 3.1 28.8 5.35 28.85 8.5 28.9 11.65 28.1 13.8 27.4 15.8 26.35 15.95 L16.95 17.75 Q6.9 19.35 3.4 17.95 1.35 17.15 -0.05 14.9 -1.4 12.8 -1.75 10.2 -2.1 7.4 -1.15 5.15 -0.1 2.6 2.25 1.2 6.45 -1.15 16.65 -0.4 L26.1 0.8 Z" fill="none" stroke="#000000" stroke-linecap="round" stroke-linejoin="miter" stroke-miterlimit="3.0" stroke-width="2.0"/>
    <path d="M26.15 0.8 L26.4 15.9 17.0 17.8 Q6.95 19.35 3.4 17.95 1.4 17.1 -0.05 14.85 -1.35 12.85 -1.75 10.15 -2.05 7.4 -1.1 5.1 -0.05 2.55 2.35 1.25 6.5 -1.2 16.7 -0.45 L26.15 0.8" fill="#0f1015" fill-rule="evenodd" stroke="none"/>
    <path d="M26.15 0.75 L26.35 15.9 20.35 17.15 Q18.6 13.85 18.15 9.2 17.65 4.0 18.9 0.15 L19.1 -0.25 26.15 0.75" fill="#3f9306" fill-rule="evenodd" stroke="none"/>
    <path d="M12.15 -0.55 Q10.0 9.9 12.95 18.35 L10.3 18.55 10.35 18.6 Q6.95 9.5 9.45 -0.5 L12.15 -0.55 M16.35 -0.45 Q14.0 9.6 17.15 17.85 L17.15 17.75 17.0 17.8 14.35 18.15 Q11.15 9.25 13.65 -0.55 L16.35 -0.45" fill="#3f9306" fill-rule="evenodd" stroke="none"/>
    <path d="M8.45 -0.4 Q7.05 1.0 5.95 2.45 4.6 4.25 3.95 5.75 L3.35 3.1 Q2.35 3.9 0.65 5.5 L-1.8 7.9 Q-1.65 6.45 -1.15 5.15 -0.1 2.6 2.3 1.2 4.5 -0.05 8.45 -0.4" fill="#3f9306" fill-rule="evenodd" stroke="none"/>
    <path d="M-1.75 7.55 Q-0.6 5.6 1.55 4.4 6.15 1.85 17.35 2.0 L20.05 2.1 23.8 2.35 23.85 2.35 23.95 2.35 24.0 2.35 25.7 2.55 25.8 2.55 25.95 2.55 26.05 2.55 26.15 2.55 26.2 2.55 26.2 1.2 26.15 1.2 26.05 1.2 26.0 1.2 25.85 1.15 25.75 1.1 25.55 1.05 25.5 1.05 25.4 1.05 25.35 1.05 25.3 1.05 25.2 1.0 25.1 1.0 25.05 1.0 24.9 1.0 24.8 0.95 23.25 0.7 23.2 0.7 23.15 0.7 23.1 0.7 19.65 0.3 17.2 0.05 Q6.95 -0.7 2.65 1.7 0.2 3.05 -1.05 5.6 L-1.75 7.55" fill="#ffffff" fill-opacity="0.49803922" fill-rule="evenodd" stroke="none"/>
    <path d="M23.95 2.95 Q23.15 5.1 23.2 8.25 23.25 11.4 24.15 13.65 25.0 15.9 26.2 15.95 27.35 16.0 28.15 13.85 28.9 11.7 28.85 8.55 28.8 5.4 27.95 3.15 27.05 0.9 25.9 0.85 24.7 0.8 23.95 2.95" fill="#7cb421" fill-rule="evenodd" stroke="none"/>
    <path d="M25.5 4.1 Q25.15 5.8 25.2 8.25 25.2 10.7 25.65 12.45 26.15 14.25 26.75 14.25 27.35 14.3 27.75 12.55 28.1 10.85 28.1 8.4 28.05 5.95 27.6 4.2 27.1 2.45 26.5 2.4 25.9 2.4 25.5 4.1" fill="#416409" fill-rule="evenodd" stroke="none"/>
  </g>
</svg>
