<?xml version="1.0" encoding="UTF-8" standalone="no"?>
<svg xmlns:xlink="http://www.w3.org/1999/xlink" height="28.75px" width="11.3px" xmlns="http://www.w3.org/2000/svg">
  <g transform="matrix(1.0, 0.0, 0.0, 1.0, 5.65, 14.35)">
    <path d="M2.4 -2.9 Q3.45 -2.45 3.45 -1.85 3.45 -1.2 2.4 -0.8 L1.5 -0.5 1.6 0.2 2.85 0.6 Q4.05 1.15 4.05 1.95 4.05 2.7 2.85 3.3 L1.85 3.65 1.9 4.4 3.4 4.85 Q4.9 5.55 4.9 6.55 4.9 7.5 3.4 8.15 L2.15 8.6 2.35 12.25 2.35 12.35 Q2.35 12.85 1.65 13.2 L0.0 13.65 -1.7 13.2 Q-2.4 12.85 -2.4 12.35 L-2.4 12.25 -2.2 8.6 -3.5 8.15 Q-4.9 7.5 -4.9 6.55 -4.9 5.55 -3.5 4.85 L-1.9 4.4 -1.85 3.65 -2.95 3.3 Q-4.1 2.7 -4.1 1.95 -4.1 1.15 -2.95 0.6 L-1.55 0.2 -1.55 -0.5 -2.6 -0.8 Q-3.65 -1.2 -3.65 -1.85 -3.65 -2.45 -2.6 -2.9 L-1.25 -3.2 -1.2 -3.7 -2.15 -3.95 Q-3.0 -4.3 -3.0 -4.85 -3.0 -5.35 -2.15 -5.7 L-0.95 -6.0 -0.7 -7.95 -2.05 -8.75 Q-2.9 -9.55 -2.9 -10.75 -2.9 -11.95 -2.05 -12.75 -1.2 -13.6 -0.05 -13.6 1.15 -13.6 1.95 -12.75 2.8 -11.95 2.8 -10.75 2.8 -9.55 1.95 -8.75 1.4 -8.15 0.7 -8.0 L0.95 -5.95 1.95 -5.7 Q2.85 -5.35 2.85 -4.85 2.85 -4.3 1.95 -3.95 L1.25 -3.7 1.25 -3.2 2.4 -2.9 M1.65 1.35 L1.65 1.4 1.65 1.35 M2.4 5.5 L1.95 5.85 1.95 5.9 2.4 5.5" fill="#515151" fill-rule="evenodd" stroke="none"/>
    <path d="M2.4 -2.9 Q3.45 -2.45 3.45 -1.85 3.45 -1.2 2.4 -0.8 L1.5 -0.5 1.6 0.2 2.85 0.6 Q4.05 1.15 4.05 1.95 4.05 2.7 2.85 3.3 L1.85 3.65 1.9 4.4 3.4 4.85 Q4.9 5.55 4.9 6.55 4.9 7.5 3.4 8.15 L2.15 8.6 2.35 12.25 2.35 12.35 Q2.35 12.85 1.65 13.2 L0.0 13.65 -1.7 13.2 Q-2.4 12.85 -2.4 12.35 L-2.4 12.25 -2.2 8.6 -3.5 8.15 Q-4.9 7.5 -4.9 6.55 -4.9 5.55 -3.5 4.85 L-1.9 4.4 -1.85 3.65 -2.95 3.3 Q-4.1 2.7 -4.1 1.95 -4.1 1.15 -2.95 0.6 L-1.55 0.2 -1.55 -0.5 -2.6 -0.8 Q-3.65 -1.2 -3.65 -1.85 -3.65 -2.45 -2.6 -2.9 L-1.25 -3.2 -1.2 -3.7 -2.15 -3.95 Q-3.0 -4.3 -3.0 -4.85 -3.0 -5.35 -2.15 -5.7 L-0.95 -6.0 -0.7 -7.95 -2.05 -8.75 Q-2.9 -9.55 -2.9 -10.75 -2.9 -11.95 -2.05 -12.75 -1.2 -13.6 -0.05 -13.6 1.15 -13.6 1.95 -12.75 2.8 -11.95 2.8 -10.75 2.8 -9.55 1.95 -8.75 1.4 -8.15 0.7 -8.0 L0.95 -5.95 1.95 -5.7 Q2.85 -5.35 2.85 -4.85 2.85 -4.3 1.95 -3.95 L1.25 -3.7 1.25 -3.2 2.4 -2.9 M1.65 1.35 L1.65 1.4 1.65 1.35 M2.4 5.5 L1.95 5.85 1.95 5.9 2.4 5.5" fill="none" stroke="#4a4a4a" stroke-linecap="round" stroke-linejoin="round" stroke-width="1.5"/>
    <path d="M0.0 -10.25 Q0.75 -10.25 1.6 1.0 L2.35 12.3 2.35 12.35 Q2.35 12.9 1.65 13.25 1.0 13.65 0.0 13.65 -1.0 13.65 -1.7 13.25 -2.4 12.9 -2.4 12.35 L-2.4 12.3 -1.65 1.0 Q-0.75 -10.25 0.0 -10.25" fill="#6c6b6b" fill-rule="evenodd" stroke="none"/>
    <path d="M1.3 -2.75 L-0.1 -2.6 -1.3 -2.7 -1.1 -4.95 -0.95 -5.0 -1.05 -4.05 -0.1 -3.8 Q0.55 -3.8 1.05 -4.15 L0.95 -4.95 1.1 -4.9 1.3 -2.75 M-1.4 -1.1 L-0.1 -0.85 1.35 -1.2 1.35 -1.55 1.4 -1.55 1.6 0.45 -0.1 0.6 -1.65 0.5 -1.6 0.5 -1.4 -1.55 -1.35 -1.55 -1.4 -1.1 M-1.65 2.45 L-0.1 2.8 Q0.95 2.8 1.65 2.35 L1.6 2.15 1.7 2.15 1.9 4.65 0.0 4.8 -1.9 4.65 -1.75 2.15 -1.65 2.15 -1.65 2.45 M-0.05 7.45 Q1.1 7.45 1.95 6.9 L2.05 6.85 1.95 6.9 1.95 6.45 2.0 6.45 2.05 6.85 2.25 9.6 0.0 9.8 -2.25 9.6 -2.05 6.45 -1.95 6.45 -2.0 6.95 Q-1.15 7.45 -0.05 7.45" fill="#585454" fill-rule="evenodd" stroke="none"/>
    <path d="M1.45 -7.45 Q0.8 -7.05 -0.05 -7.05 -0.85 -7.05 -1.5 -7.4 L-0.85 -7.1 Q-0.4 -10.25 0.0 -10.25 0.4 -10.25 0.85 -7.15 1.15 -7.25 1.45 -7.45" fill="#585454" fill-rule="evenodd" stroke="none"/>
    <path d="M2.0 -12.75 Q2.8 -11.9 2.8 -10.75 2.8 -9.55 2.0 -8.75 1.15 -7.9 -0.05 -7.9 -1.2 -7.9 -2.05 -8.75 -2.85 -9.55 -2.85 -10.75 -2.85 -11.9 -2.05 -12.75 -1.2 -13.6 -0.05 -13.6 1.15 -13.6 2.0 -12.75" fill="#6c6b6b" fill-rule="evenodd" stroke="none"/>
    <path d="M1.65 -9.1 Q0.95 -8.45 0.0 -8.45 -1.0 -8.45 -1.7 -9.1 -2.35 -9.8 -2.35 -10.75 -2.35 -11.75 -1.7 -12.45 L-0.8 -13.0 -1.0 -12.85 Q-1.55 -12.2 -1.55 -11.4 -1.55 -10.5 -1.0 -9.9 -0.4 -9.35 0.5 -9.35 1.3 -9.35 1.95 -9.9 L2.3 -10.4 Q2.2 -9.65 1.65 -9.1" fill="#585454" fill-rule="evenodd" stroke="none"/>
    <path d="M2.85 -4.85 Q2.85 -4.3 1.95 -3.95 L-0.1 -3.6 -2.15 -3.95 Q-3.0 -4.3 -3.0 -4.85 -3.0 -5.35 -2.15 -5.7 L-0.95 -6.0 -1.05 -5.05 -1.2 -5.15 Q-0.7 -4.8 -0.1 -4.8 0.55 -4.8 1.05 -5.15 L0.95 -5.95 1.95 -5.7 Q2.85 -5.35 2.85 -4.85 M2.4 -2.9 Q3.45 -2.45 3.45 -1.85 3.45 -1.2 2.4 -0.8 L-0.1 -0.4 -2.6 -0.8 Q-3.65 -1.2 -3.65 -1.85 -3.65 -2.45 -2.6 -2.9 L-1.25 -3.2 -1.4 -2.1 -0.1 -1.85 1.35 -2.2 1.25 -3.2 2.4 -2.9 M-0.1 1.8 Q0.95 1.8 1.65 1.35 L1.6 1.0 1.6 0.2 2.85 0.6 Q4.05 1.15 4.05 1.95 4.05 2.7 2.85 3.3 L0.0 3.8 -2.95 3.3 Q-4.1 2.7 -4.1 1.95 -4.1 1.15 -2.95 0.6 L-1.55 0.2 -1.65 1.0 -1.65 1.45 -0.1 1.8 M-0.05 6.45 Q1.1 6.45 1.95 5.9 L2.4 5.5 1.95 5.85 1.9 4.4 3.4 4.85 Q4.9 5.55 4.9 6.55 4.9 7.5 3.4 8.15 L0.0 8.8 Q-2.0 8.8 -3.5 8.15 -4.9 7.5 -4.9 6.55 -4.9 5.55 -3.5 4.85 L-1.9 4.4 -2.0 5.95 Q-1.15 6.45 -0.05 6.45" fill="#989898" fill-rule="evenodd" stroke="none"/>
  </g>
</svg>
