<?xml version="1.0" encoding="UTF-8" standalone="no"?>
<svg xmlns:xlink="http://www.w3.org/1999/xlink" height="24.2px" width="10.5px" xmlns="http://www.w3.org/2000/svg">
  <g transform="matrix(1.0, 0.0, 0.0, 1.0, 5.25, 12.1)">
    <path d="M-1.7 -11.25 L4.4 -9.05 4.4 9.05 -1.7 11.25 -4.4 11.25 -4.4 10.8 -4.1 10.35 -4.1 9.05 -4.4 8.8 -4.4 -6.0 -3.65 -6.2 -4.4 -6.45 -4.4 -11.25 -1.7 -11.25" fill="#98612c" fill-rule="evenodd" stroke="none"/>
    <path d="M-1.7 -11.25 L4.4 -9.05 4.4 9.05 -1.7 11.25 -4.4 11.25 -4.4 10.8 -4.1 10.35 -4.1 9.05 -4.4 8.8 -4.4 -6.0 -3.65 -6.2 -4.4 -6.45 -4.4 -11.25 -1.7 -11.25 Z" fill="none" stroke="#744416" stroke-linecap="round" stroke-linejoin="round" stroke-width="1.7000000000000002"/>
    <path d="M-1.7 -11.25 L4.4 -9.05 4.4 9.05 -1.7 11.25 -4.4 11.25 -4.4 10.8 -4.1 10.35 -4.1 9.05 -4.4 8.8 -4.4 -6.0 -3.65 -6.2 -4.4 -6.45 -4.4 -11.25 -1.7 -11.25" fill="#eec36f" fill-rule="evenodd" stroke="none"/>
    <path d="M-1.75 -11.25 L-1.75 11.25 -4.4 11.25 -4.4 10.8 -4.1 10.35 -4.1 9.05 -4.4 8.8 -4.4 -6.0 -3.65 -6.2 -4.4 -6.45 -4.4 -11.25 -1.75 -11.25" fill="#98612c" fill-rule="evenodd" stroke="none"/>
    <path d="M-4.4 -10.4 L-3.25 -10.85 -4.3 -9.25 -4.4 -9.1 -4.4 -10.4 M-2.35 -9.85 L-1.7 -10.15 -1.7 -9.7 -2.35 -9.85 M-1.7 -5.25 L-2.1 -5.3 -1.7 -5.55 -1.7 -5.25 M-1.7 -6.75 L-2.2 -7.0 -1.7 -7.2 -1.7 -6.75 M-1.7 -1.7 L-4.4 1.15 -4.4 -0.45 -1.7 -2.15 -1.7 -1.7 M-2.5 1.5 L-1.7 0.15 -1.7 0.95 -2.5 1.5 M-4.4 5.1 L-3.25 5.3 -4.4 6.05 -4.4 5.1 M-2.85 6.65 L-1.7 6.4 -1.7 7.05 -2.85 6.65 M-4.4 7.55 L-4.4 6.35 -3.15 7.0 -4.4 7.55 M-1.7 10.75 L-2.0 10.85 -1.7 10.4 -1.7 10.75" fill="#744416" fill-rule="evenodd" stroke="none"/>
    <path d="M4.0 -7.25 L3.5 -2.2 3.8 0.75 3.65 9.35 3.4 9.4 3.5 0.8 3.15 -2.45 3.65 -7.25 3.45 -9.4 3.85 -9.25 4.0 -7.25 M0.8 -10.35 L1.4 -10.15 1.0 -7.5 1.8 -2.65 1.2 0.6 1.4 10.15 0.95 10.3 0.75 0.5 1.2 -2.45 1.0 -5.0 0.45 -7.5 0.8 -10.35 M0.1 -3.15 L0.0 -2.55 0.1 -1.95 0.4 -1.7 0.7 -1.95 0.85 -2.45 0.75 -2.1 0.45 -1.9 0.2 -2.1 0.1 -2.55 0.2 -3.05 0.45 -3.25 0.75 -3.05 0.7 -3.15 0.4 -3.4 0.1 -3.15 M0.8 -3.35 L0.95 -2.55 0.8 -1.8 0.35 -1.45 -0.1 -1.8 -0.25 -2.55 -0.1 -3.35 Q0.1 -3.65 0.35 -3.65 L0.8 -3.35 M0.7 -2.95 L0.5 -3.1 0.3 -2.95 0.25 -2.55 0.3 -2.2 0.5 -2.0 0.7 -2.2 0.75 -2.5 0.7 -2.25 0.55 -2.15 0.4 -2.25 0.3 -2.55 0.4 -2.85 0.55 -2.95 0.7 -2.85 0.75 -2.55 0.7 -2.95 M3.3 5.75 L3.25 6.1 3.0 6.3 2.8 6.1 2.7 5.75 2.8 5.35 Q2.9 5.2 3.0 5.2 L3.25 5.35 3.3 5.75" fill="#744416" fill-rule="evenodd" stroke="none"/>
  </g>
</svg>
