<?xml version="1.0" encoding="UTF-8" standalone="no"?>
<svg xmlns:xlink="http://www.w3.org/1999/xlink" height="44.0px" width="5.7px" xmlns="http://www.w3.org/2000/svg">
  <g transform="matrix(1.0, 0.0, 0.0, 1.0, -60.3, -4.5)">
    <path d="M62.5 4.65 L63.6 4.75 64.5 4.5 Q65.6 4.5 65.55 5.4 L65.55 5.65 Q66.0 5.8 66.0 6.5 L65.7 7.25 65.45 7.95 64.75 8.4 64.35 8.25 64.2 8.5 Q64.9 8.65 64.9 9.3 64.9 10.1 64.05 10.1 63.2 10.1 63.2 9.2 L63.2 9.05 Q62.65 8.95 62.35 8.2 L62.15 7.45 62.0 7.25 61.95 7.05 Q61.4 7.05 61.2 6.45 L61.05 5.85 Q61.05 4.9 62.5 4.65 M64.15 12.15 L63.55 11.15 Q63.55 10.25 64.15 10.35 64.75 10.4 64.75 11.2 64.75 11.55 64.15 12.15 M62.45 15.8 L63.5 16.0 Q63.75 15.7 64.25 15.75 65.15 15.75 65.15 16.45 L65.15 16.7 Q65.85 16.75 65.85 17.3 L65.7 17.75 65.7 18.0 65.4 18.95 65.0 19.35 65.3 19.7 65.1 20.15 64.55 20.4 64.15 20.35 63.9 20.15 63.85 19.7 Q63.85 19.4 64.0 19.25 L63.85 18.95 63.85 18.75 63.55 18.7 62.95 18.75 Q62.2 18.75 61.8 18.3 L61.6 18.0 Q61.1 18.0 60.9 17.55 L60.75 17.1 Q60.75 15.8 62.45 15.8 M62.75 22.7 Q62.85 22.25 63.45 22.25 64.15 22.25 64.2 22.85 L64.4 22.95 65.15 22.8 Q65.6 22.8 65.85 23.15 L66.0 23.65 65.85 24.2 65.15 24.6 64.8 24.6 64.7 24.65 Q64.6 25.2 63.75 25.2 63.05 25.2 62.8 24.7 L62.4 24.45 61.85 24.8 Q61.25 24.8 61.1 24.25 L61.05 23.85 Q61.05 22.8 62.75 22.7 M60.7 30.6 Q60.3 30.35 60.3 29.85 60.3 28.05 62.2 27.5 63.75 27.05 64.0 28.65 L64.25 28.65 Q65.4 28.65 65.4 29.45 L65.1 30.2 64.5 30.6 64.15 30.6 64.1 30.7 64.15 31.35 Q64.15 31.85 63.75 32.4 L63.3 32.85 63.35 33.0 63.25 33.55 62.6 33.8 61.85 33.55 61.8 33.1 61.8 33.0 Q61.1 32.8 60.8 32.15 L60.6 31.3 60.7 30.6 M64.35 39.65 L64.35 39.8 Q64.35 40.4 63.9 40.4 L63.55 40.3 62.75 40.5 Q61.6 40.5 61.15 39.95 L60.9 39.35 Q60.9 37.1 62.6 37.2 62.75 36.5 63.9 36.5 64.95 36.5 64.95 37.35 65.7 37.6 65.7 38.5 65.7 39.15 65.35 39.4 L65.2 39.45 64.5 39.65 64.35 39.65 M65.05 46.0 L65.05 46.05 64.95 46.1 65.0 46.1 Q65.4 46.1 65.4 46.5 L65.0 46.9 64.65 46.8 64.6 46.5 64.65 46.3 64.2 46.55 63.25 46.9 63.35 47.75 Q63.35 48.5 62.6 48.5 61.6 48.5 61.85 47.45 L61.95 46.9 Q61.1 46.65 61.15 45.8 L61.15 45.75 Q60.35 45.7 60.4 44.8 60.4 44.45 61.05 43.85 61.8 43.1 62.7 43.1 63.5 43.1 63.85 43.4 L64.75 43.45 Q65.85 44.0 65.85 45.05 65.9 46.0 65.2 46.0 L65.05 46.0" fill="#ffffff" fill-rule="evenodd" stroke="none"/>
  </g>
</svg>
