<?xml version="1.0" encoding="UTF-8" standalone="no"?>
<svg xmlns:xlink="http://www.w3.org/1999/xlink" height="211.6px" width="177.65px" xmlns="http://www.w3.org/2000/svg">
  <g transform="matrix(1.0, 0.0, 0.0, 1.0, -5.35, 36.55)">
    <path d="M171.3 45.85 Q172.4 45.95 172.4 47.05 L172.15 47.75 172.1 47.85 Q173.1 47.65 173.1 48.75 173.1 49.2 172.55 49.85 L171.45 50.55 Q170.75 50.55 170.4 50.0 L170.3 49.65 170.3 50.45 170.55 51.1 Q170.55 51.7 170.0 51.8 L170.0 52.15 Q170.0 53.3 168.95 53.3 168.15 53.3 167.75 52.55 L167.55 51.85 167.55 51.65 165.9 51.9 165.25 52.35 Q164.9 52.35 164.8 52.15 L163.9 52.35 164.0 52.5 164.45 52.7 Q164.55 52.35 165.0 52.45 165.5 52.55 165.6 52.95 L166.3 52.7 Q167.4 52.65 167.4 53.95 167.4 55.2 166.3 55.2 165.6 55.2 165.3 54.65 L165.15 54.05 165.2 53.75 165.05 53.75 Q164.75 53.75 164.6 53.4 L163.95 53.6 Q163.4 53.6 163.25 53.3 L163.2 53.15 Q162.75 53.1 162.6 52.85 L162.5 52.9 159.8 54.65 159.8 54.8 160.4 55.0 161.45 55.8 Q162.15 56.0 162.4 56.7 L163.45 56.65 Q164.7 57.15 164.7 57.95 L164.45 58.55 164.15 58.8 164.75 58.8 Q165.95 59.0 165.95 60.1 L165.75 60.75 165.55 61.0 165.8 61.8 166.1 61.65 166.05 61.4 Q166.05 60.7 166.75 60.95 167.35 61.25 167.4 61.65 L167.6 61.8 Q167.85 61.5 168.4 61.55 169.5 61.65 169.5 62.8 169.5 64.1 168.35 64.1 167.65 64.1 167.35 63.5 L166.9 63.85 167.7 65.3 168.15 67.3 167.65 70.9 168.1 71.85 168.5 73.05 167.2 74.45 Q165.65 76.35 164.5 79.9 L163.85 83.3 Q163.3 86.25 163.3 86.7 163.3 87.8 168.8 93.95 174.3 100.1 174.3 102.65 174.3 104.25 173.9 104.75 173.5 105.25 173.5 106.35 173.5 107.7 174.1 109.45 174.65 111.2 174.65 113.7 174.65 117.25 173.75 118.25 171.3 120.35 168.05 124.15 L166.55 125.15 Q165.3 125.95 165.05 126.45 L164.85 127.8 164.5 129.15 Q163.25 131.2 162.35 131.65 161.35 132.15 159.5 132.45 L159.5 132.5 159.05 133.3 158.8 133.45 158.5 133.8 158.05 134.1 158.15 134.65 157.8 135.4 Q157.4 135.75 156.8 135.75 155.95 135.75 155.7 135.25 L155.6 134.75 Q155.6 134.45 155.75 134.2 L154.8 134.45 154.8 134.5 154.6 135.2 Q154.3 135.6 153.8 135.6 L153.5 135.6 153.4 135.75 153.45 136.15 153.15 136.95 152.3 137.4 Q151.65 137.4 151.45 136.95 L150.9 137.0 150.1 136.85 149.65 136.5 149.65 136.45 149.55 136.35 149.55 136.3 149.45 136.4 147.45 139.0 147.45 139.2 147.15 139.8 146.55 140.15 146.35 140.4 146.4 140.4 Q147.6 140.25 147.6 141.45 L147.15 142.35 Q146.7 142.8 146.25 142.8 146.7 143.0 146.7 143.65 L146.3 144.45 145.4 144.9 Q144.45 144.9 144.45 143.85 144.45 142.7 145.6 142.7 L145.7 142.7 Q145.25 142.5 145.2 141.9 144.0 143.8 142.1 149.15 L142.8 149.0 Q143.85 149.0 143.85 149.75 L143.85 149.95 144.15 149.95 Q145.25 150.1 145.25 150.95 145.25 151.7 144.6 151.9 L144.75 152.4 144.75 152.7 145.3 152.55 Q146.55 152.35 146.55 153.45 146.55 153.95 146.05 154.25 L145.05 154.5 Q144.4 154.5 144.15 154.05 L144.05 153.8 143.85 154.25 144.25 154.35 Q145.25 154.75 145.5 155.15 L145.55 155.15 146.35 155.55 146.45 155.3 146.2 155.0 146.1 154.7 Q146.1 153.95 146.9 153.95 147.5 153.95 147.6 154.4 147.7 153.45 148.8 153.45 149.85 153.45 150.0 154.2 150.45 154.3 150.45 155.0 L150.3 155.65 149.55 156.15 149.45 156.15 149.9 157.2 149.9 157.25 150.2 157.2 150.5 157.25 150.45 157.15 150.65 156.55 150.65 156.35 Q150.65 155.9 150.95 155.55 151.4 155.0 152.2 155.0 153.45 155.0 153.6 156.65 L153.3 157.5 Q152.95 158.0 152.25 158.0 L151.95 158.0 151.5 158.15 151.45 158.15 151.5 158.5 151.45 158.8 151.65 159.4 151.4 160.05 Q151.15 160.4 150.65 160.4 150.0 160.4 149.8 159.95 L149.35 159.85 149.2 160.25 149.55 160.2 Q150.3 160.2 150.3 160.95 L150.15 161.4 149.7 161.7 149.7 161.9 Q149.7 162.55 148.9 162.65 L149.1 163.25 148.75 163.85 148.7 163.95 148.85 164.5 Q148.85 165.15 148.25 165.15 L147.75 165.0 147.75 164.45 147.75 164.3 147.6 164.25 147.2 164.95 147.15 165.0 147.15 165.1 Q147.15 165.6 146.5 165.6 L146.1 165.55 146.1 165.8 Q146.1 166.55 145.5 166.55 L145.35 166.55 Q144.65 167.85 142.75 169.5 140.9 171.1 138.65 172.0 138.65 172.7 137.9 172.7 L137.1 172.5 134.55 172.95 134.4 173.35 134.15 173.8 133.5 174.15 Q132.95 174.15 132.8 173.75 L132.75 173.45 132.75 173.35 132.75 173.0 132.05 173.0 132.05 173.25 Q132.05 174.15 131.15 174.15 130.5 174.15 130.35 173.75 L130.25 173.35 130.35 173.0 128.3 172.95 128.4 173.35 128.3 173.7 128.4 174.2 Q128.4 175.05 127.6 175.05 127.05 175.05 126.85 174.7 L126.75 174.4 126.3 174.0 126.2 173.55 Q126.2 173.1 126.6 172.85 L126.1 172.85 126.0 172.95 125.45 173.3 Q124.75 173.3 124.5 172.8 L124.5 172.75 121.95 172.45 121.95 172.75 122.65 172.6 Q123.65 172.6 123.65 173.35 123.65 174.15 122.7 174.15 122.05 174.15 121.8 173.7 L121.7 173.45 121.05 173.6 Q119.85 173.6 119.85 172.85 119.85 172.55 120.0 172.35 L120.0 172.3 120.0 172.15 119.7 172.1 Q119.7 172.85 118.45 172.85 L118.25 172.85 Q118.1 173.15 117.6 173.15 117.05 173.15 116.85 172.75 L116.75 172.4 Q116.75 171.9 117.3 171.75 L117.4 171.65 116.85 171.25 116.0 170.65 115.25 169.85 Q115.1 170.15 114.6 170.15 L114.3 170.1 113.5 170.55 Q112.9 170.55 112.7 170.2 L112.65 169.8 Q112.65 169.0 113.5 169.0 L113.55 169.0 113.4 168.35 Q113.4 167.6 113.8 167.45 L113.5 166.5 Q113.5 166.15 114.0 164.9 114.5 163.7 114.5 162.55 L114.6 161.45 114.3 161.65 Q114.25 162.3 113.65 162.35 114.0 162.55 114.0 163.05 114.0 163.8 113.1 163.8 112.55 163.8 112.35 163.5 112.2 164.0 111.4 164.0 L110.95 163.95 111.15 164.5 Q111.15 165.35 110.25 165.35 L109.65 165.15 109.25 165.5 109.25 165.7 Q109.25 166.5 108.5 166.5 L108.15 166.45 108.15 166.5 Q108.15 167.25 107.4 167.25 106.9 167.25 106.75 166.8 L106.65 166.5 Q106.65 165.75 107.4 165.75 L107.8 165.85 107.75 165.7 Q107.75 165.05 108.25 164.95 L108.2 164.75 Q108.2 164.15 108.95 164.05 L109.5 164.15 Q109.65 163.75 110.3 163.75 L110.7 163.8 110.6 163.65 110.55 163.25 Q110.55 162.45 111.45 162.45 112.0 162.45 112.25 162.8 112.35 162.3 113.05 162.25 L112.7 161.9 112.65 161.45 112.65 161.4 Q112.15 161.3 112.0 160.95 L111.9 160.5 111.95 160.15 111.0 160.2 111.0 160.3 Q111.0 160.9 110.6 161.05 111.0 161.2 111.0 161.75 111.0 162.5 110.25 162.5 109.75 162.5 109.5 162.05 L109.4 161.75 Q109.4 161.15 109.9 161.05 L109.5 160.7 109.4 160.35 109.4 160.45 Q109.4 161.25 108.6 161.25 L107.85 161.0 107.7 161.15 107.65 161.3 108.15 161.25 Q109.55 161.3 109.55 162.5 L109.1 163.45 Q108.65 163.95 108.05 163.95 L108.0 163.95 108.0 164.3 Q108.0 165.8 106.5 165.8 L106.2 165.8 105.95 166.35 105.75 166.5 105.75 166.8 105.45 167.5 Q105.1 167.85 104.75 167.85 L104.1 167.6 103.55 167.75 102.9 167.6 102.9 167.25 Q102.9 166.9 103.2 166.7 L103.1 166.7 Q102.15 166.7 101.85 166.0 L101.75 165.45 101.15 165.65 Q100.7 165.65 100.45 165.35 99.8 165.6 99.35 165.8 100.05 165.85 100.05 166.5 100.05 167.25 99.05 167.25 98.4 167.25 98.15 166.8 97.65 166.7 97.5 166.35 L95.6 166.75 95.6 166.95 95.4 167.45 94.85 167.7 Q94.25 167.7 94.0 167.15 L93.95 166.9 93.6 166.9 91.3 166.45 91.35 166.85 Q91.35 167.55 90.7 167.55 90.25 167.55 90.05 167.3 L90.0 167.0 Q90.0 166.45 90.7 166.3 L91.0 166.25 90.8 166.05 90.45 166.1 Q89.7 166.1 89.7 165.45 L89.7 165.0 89.9 164.95 89.7 164.45 89.3 164.45 89.1 164.8 88.7 165.05 Q88.6 165.45 88.05 165.45 87.2 165.45 87.2 165.0 L86.8 165.05 Q86.35 165.05 86.25 164.8 L86.25 164.55 86.25 164.45 86.1 164.45 86.1 164.5 Q86.1 165.3 85.35 165.3 84.85 165.3 84.7 164.85 L84.6 164.5 84.6 164.4 84.4 164.4 84.45 164.85 84.4 165.3 84.6 165.85 84.4 166.45 Q84.1 166.8 83.7 166.8 83.25 166.8 83.05 166.35 L82.95 165.85 83.05 165.5 82.8 164.9 83.0 164.4 82.95 164.4 82.65 164.7 82.0 164.9 Q81.45 164.9 81.3 164.65 L81.3 164.35 81.0 164.4 80.4 164.25 80.4 163.7 Q80.4 163.15 80.9 163.0 L79.65 161.65 79.8 162.45 79.55 163.25 79.3 163.55 79.4 164.05 79.2 164.65 Q78.9 165.0 78.5 165.0 L77.8 164.6 77.7 164.2 77.9 163.7 Q77.3 163.4 76.85 162.65 L76.4 161.7 76.0 162.1 Q76.35 162.35 76.35 162.85 L76.15 163.4 75.65 163.65 Q75.15 163.65 74.85 163.15 L74.6 162.65 74.7 162.2 74.35 161.95 73.95 162.15 73.35 162.0 73.35 161.6 Q73.35 160.9 73.95 160.85 L74.0 160.35 73.95 160.3 73.95 160.05 Q73.95 159.55 74.45 159.4 L74.25 159.0 Q74.25 158.45 74.95 158.3 75.65 158.1 75.65 158.8 L75.6 159.05 Q76.6 159.0 76.7 160.3 77.1 159.9 78.1 160.3 78.7 160.6 79.1 160.95 L79.0 160.8 78.3 159.3 78.0 159.35 Q77.6 159.35 77.45 159.1 L77.4 158.8 Q77.4 158.15 78.0 158.0 L77.95 157.7 Q77.4 157.6 77.4 157.05 L77.45 156.8 77.1 156.85 77.25 157.35 77.05 157.9 77.1 157.95 76.95 158.15 76.65 158.4 76.35 158.25 Q76.25 158.35 76.25 158.1 L75.8 157.95 75.75 157.6 Q75.75 157.2 76.3 156.9 L74.55 156.9 Q75.15 157.0 75.15 157.55 75.15 158.1 74.45 158.1 73.95 158.1 73.85 157.8 L73.8 157.5 73.65 157.1 73.75 156.9 73.4 156.9 Q72.0 156.05 71.5 153.55 L71.35 152.05 70.6 152.45 70.45 152.45 Q70.3 152.8 69.85 152.8 L69.85 152.9 69.4 153.3 69.0 153.25 68.9 152.85 68.95 152.4 69.0 152.45 69.15 152.45 69.05 152.1 Q69.05 151.5 69.8 151.5 L69.85 151.25 69.75 151.05 69.75 150.85 69.55 150.7 69.4 150.3 69.5 149.45 Q71.0 149.15 71.0 150.3 L71.0 150.9 71.25 150.95 71.35 151.1 71.4 150.65 71.25 150.5 71.5 149.85 71.55 149.65 Q70.75 149.6 69.85 148.85 L69.1 149.1 68.25 148.65 68.1 148.2 Q68.1 147.65 68.55 147.65 67.75 147.0 66.65 146.7 L66.65 146.75 66.6 146.95 66.85 146.95 Q67.55 147.05 67.55 147.6 67.55 148.15 67.05 148.2 L67.1 148.5 67.05 148.8 66.4 149.2 65.75 148.45 Q65.75 148.15 66.35 148.05 L66.2 147.9 66.15 147.55 66.2 147.3 65.1 147.3 64.55 146.75 64.65 146.45 64.6 146.45 62.85 146.6 62.85 146.75 62.65 147.15 62.75 147.15 Q63.7 147.15 63.6 147.75 L63.3 148.3 63.1 148.4 63.15 148.75 Q63.15 149.55 62.4 149.55 61.8 149.55 61.8 148.9 61.8 148.55 62.05 148.35 L62.0 148.35 61.95 147.85 Q61.95 147.6 62.1 147.45 L61.95 147.45 61.4 147.3 61.4 147.1 61.15 147.25 60.9 147.45 60.95 147.75 60.65 148.3 60.45 148.45 60.45 148.6 Q60.45 149.25 59.75 149.25 59.1 149.25 59.1 148.7 59.1 148.4 59.35 148.25 L59.25 147.95 58.8 148.0 58.8 148.25 Q58.8 148.8 58.1 148.95 L57.65 148.8 57.25 149.25 Q57.6 149.35 57.6 149.85 L57.6 150.1 57.7 150.1 Q58.35 150.1 58.35 150.7 58.35 151.25 57.7 151.25 L57.1 151.0 57.05 150.7 57.1 150.45 57.0 150.45 Q56.55 150.45 56.4 150.25 L54.9 151.5 54.7 151.75 54.75 152.1 Q54.75 152.7 54.0 152.7 53.4 152.7 53.25 152.3 L53.25 152.05 53.1 152.05 52.85 152.05 52.25 152.15 51.5 151.9 51.3 151.85 Q51.25 152.4 50.75 152.4 L50.7 152.4 Q50.65 152.9 50.2 152.9 L49.6 152.65 49.55 152.35 49.65 152.0 49.35 152.0 Q48.5 152.0 48.5 151.5 L48.5 151.4 48.0 151.1 47.9 151.0 47.75 150.75 47.6 150.3 46.95 150.1 46.95 150.3 Q47.4 150.4 47.4 150.9 L47.1 151.5 46.9 151.65 46.1 151.85 Q45.6 151.85 45.5 151.6 L45.5 151.55 Q45.1 151.55 45.05 151.3 L45.0 151.0 45.0 150.9 45.0 150.85 44.25 151.3 44.25 151.8 43.7 152.0 43.5 151.95 43.5 152.0 43.2 152.55 43.35 153.0 43.2 153.4 42.75 153.6 42.4 153.5 41.6 153.9 41.4 153.8 41.4 153.9 41.25 154.3 41.2 154.35 40.85 154.75 40.95 155.1 Q40.95 155.7 40.35 155.7 39.8 155.7 39.65 155.3 L39.6 154.9 39.65 154.8 39.25 154.6 39.05 154.7 39.2 155.0 39.35 155.45 39.15 155.9 38.9 156.2 Q38.85 156.75 38.25 156.75 L37.95 156.7 37.8 156.85 38.0 157.1 38.45 157.0 Q39.05 157.15 39.05 157.85 L39.0 158.3 38.45 158.45 38.25 158.45 37.55 158.75 Q37.15 158.75 37.05 158.45 L37.0 158.1 37.05 157.8 Q36.6 157.7 36.6 157.3 36.6 156.8 37.0 156.75 L36.9 156.45 36.55 156.35 36.25 156.55 36.2 156.75 35.7 156.9 35.5 157.05 35.65 157.05 36.05 157.1 36.1 157.2 36.1 157.15 36.15 157.3 36.3 157.75 Q36.3 158.25 35.75 158.25 35.25 158.25 35.1 158.05 L34.95 158.0 Q34.8 157.7 35.0 157.45 L34.05 157.9 33.5 157.9 33.45 158.0 33.3 158.1 33.45 158.5 Q33.45 159.05 32.7 159.05 32.15 159.05 32.0 158.75 L31.95 158.5 Q31.95 158.0 32.45 157.95 L32.55 157.75 Q29.15 157.15 24.1 154.0 L24.05 153.95 23.9 154.25 24.15 154.85 Q24.15 155.65 23.15 155.65 L22.5 155.5 22.15 155.7 Q22.65 155.85 22.6 156.4 L22.5 156.9 Q22.3 157.25 21.75 157.25 L21.45 157.2 Q20.6 157.1 20.6 156.4 20.6 155.75 21.3 155.65 L21.05 155.35 20.95 154.95 Q20.95 154.1 21.95 153.85 L22.3 153.8 22.3 153.65 22.5 153.0 Q18.45 150.4 17.4 148.9 L17.15 149.0 Q17.6 149.15 17.6 149.75 L17.55 150.05 17.8 150.05 Q18.65 150.2 18.65 151.3 L18.45 151.8 17.8 152.1 Q17.25 152.1 17.05 151.6 L16.95 151.05 17.05 150.5 16.4 150.6 Q15.6 150.6 15.6 149.8 L15.7 149.4 Q13.65 149.65 12.75 148.1 12.25 147.2 11.85 143.7 L11.75 143.05 11.5 143.5 10.65 144.0 Q10.2 144.0 10.0 143.6 L9.9 143.2 Q9.9 142.25 10.85 142.1 L11.0 142.1 10.9 141.6 11.1 140.95 10.8 140.05 Q10.55 140.35 10.05 140.35 9.2 140.35 9.2 139.55 L9.25 139.35 8.85 139.4 Q8.15 139.4 8.15 138.7 8.15 138.15 8.85 138.15 L9.1 138.2 Q9.2 137.85 9.7 137.8 L9.9 137.5 10.1 136.75 9.95 136.6 9.85 136.2 9.95 135.75 9.5 135.45 9.45 135.15 9.55 134.75 9.65 134.3 9.6 134.0 Q9.6 133.05 10.5 133.25 11.35 133.4 11.35 134.1 11.35 134.65 10.95 134.75 L10.95 134.85 10.9 135.3 10.95 135.3 Q11.85 134.2 13.5 132.8 L12.9 132.45 12.85 132.1 Q12.85 131.85 13.15 131.55 13.6 131.05 14.6 131.05 L15.45 131.25 16.05 130.85 Q16.1 130.05 16.75 129.85 L17.3 129.95 17.35 129.85 Q16.95 129.85 16.85 129.5 L16.85 129.15 Q16.85 128.8 17.0 128.65 L16.85 128.45 16.8 128.1 Q16.8 127.55 17.7 127.15 L17.7 126.95 Q17.7 126.2 18.6 126.15 L19.15 126.25 19.35 126.05 19.1 125.8 19.0 125.45 Q19.0 124.8 19.8 124.65 20.55 124.55 20.55 125.35 L20.35 125.95 20.75 126.45 Q20.85 125.95 21.6 125.85 L21.55 125.8 21.5 125.45 Q21.5 124.9 21.85 124.65 21.95 124.25 22.35 124.25 L22.7 124.45 23.1 124.65 23.25 124.25 24.0 122.1 23.5 121.75 23.45 121.4 Q23.45 120.95 23.6 120.7 L23.5 120.55 23.45 120.2 Q23.45 119.8 23.75 119.55 L23.65 119.4 23.55 118.95 Q23.55 118.2 24.35 118.2 24.7 118.2 24.9 118.45 24.95 117.8 25.3 117.65 L25.2 117.45 25.15 117.1 24.65 117.25 Q24.15 117.25 24.0 116.9 L23.95 116.55 Q23.95 115.75 24.65 115.85 25.2 115.9 25.35 116.25 L25.95 116.2 Q26.6 113.65 26.6 110.55 L26.0 104.8 Q26.0 103.8 26.95 100.0 L27.9 96.4 24.1 91.4 Q20.0 86.15 18.75 83.05 17.95 81.0 17.1 75.6 16.35 71.0 16.35 69.95 16.35 68.2 17.85 66.55 L19.85 64.6 18.85 64.65 Q17.35 64.65 16.95 64.2 L16.8 63.7 Q16.8 62.85 18.95 62.85 20.35 62.85 20.75 63.25 L20.9 63.55 20.95 63.5 20.85 62.95 Q20.85 61.75 21.7 61.85 L22.95 61.65 23.65 61.8 Q24.15 61.55 24.8 61.4 L24.4 61.4 Q23.75 61.4 23.55 60.95 L23.4 60.5 Q23.4 59.4 25.15 59.4 L25.7 59.5 26.25 59.4 26.3 59.4 27.15 59.25 27.35 59.25 27.25 59.15 27.15 58.7 27.25 58.3 25.6 58.4 24.9 58.25 24.75 58.35 23.9 58.7 Q23.2 58.7 22.95 58.25 L22.85 57.8 Q22.85 56.95 24.0 56.8 25.0 56.65 25.1 57.5 L26.9 57.1 Q28.7 56.95 28.95 57.45 29.2 57.3 29.55 57.1 30.4 56.65 30.4 57.55 L30.0 58.2 29.25 58.5 29.25 58.75 29.2 59.15 29.55 59.05 Q30.75 58.95 30.75 59.95 L30.7 60.35 34.4 59.65 34.2 59.4 34.2 59.3 Q33.45 59.85 33.15 59.85 32.45 59.85 32.2 59.4 L32.1 58.95 Q32.1 58.3 33.1 57.8 L33.0 57.5 Q33.0 57.2 33.15 57.0 L32.95 56.7 32.85 56.2 Q32.85 55.65 33.45 55.2 L34.35 54.8 34.0 54.5 33.75 54.0 Q33.75 52.7 34.7 53.25 35.6 53.8 35.6 54.4 L35.4 54.9 Q35.75 55.05 35.75 55.6 L35.05 56.5 34.6 56.85 34.8 57.5 34.8 57.65 34.85 57.7 35.05 57.65 Q35.55 57.6 35.8 57.9 L36.25 57.7 Q37.1 57.5 37.4 57.95 L38.0 57.9 38.1 57.9 37.65 57.4 37.55 56.85 Q37.55 56.4 37.8 56.15 37.35 53.8 37.35 52.8 L37.4 52.0 Q37.0 52.0 36.85 51.7 L36.8 51.45 Q36.8 50.8 37.45 50.85 L37.65 50.9 Q37.85 50.3 38.3 50.05 L40.7 49.45 40.65 49.2 Q40.65 47.8 41.9 48.0 L41.85 47.85 Q41.85 46.9 42.9 46.95 43.55 47.0 43.8 47.3 44.0 46.9 44.65 46.95 45.6 47.0 45.6 47.85 L45.6 47.95 45.9 47.95 Q46.9 48.05 46.9 48.7 L46.85 49.0 47.95 49.0 47.85 48.45 Q47.25 48.35 46.9 47.7 L46.7 47.0 46.05 47.1 Q45.55 47.1 45.4 46.8 L45.35 46.5 Q45.35 46.05 46.2 45.95 46.8 45.85 46.95 46.2 47.25 45.9 47.9 45.95 L48.7 46.25 Q48.75 45.8 49.5 45.8 50.35 45.8 50.35 46.35 L50.15 46.75 49.55 47.0 49.55 47.15 49.6 47.15 Q51.2 47.35 51.35 48.2 L51.45 48.2 51.75 48.2 51.75 48.15 51.8 47.9 51.75 47.9 Q51.3 47.9 51.1 47.35 L51.0 46.9 Q51.0 46.3 51.9 46.35 52.7 46.4 52.75 46.95 L52.8 46.95 Q52.9 45.8 54.3 45.8 55.35 45.8 55.5 46.5 56.7 46.5 56.7 47.55 L56.7 47.9 56.9 47.85 57.0 47.9 57.05 47.8 57.0 47.6 Q57.0 46.9 57.7 46.9 58.35 46.9 58.35 47.55 L58.25 47.85 58.05 48.2 57.6 48.35 57.45 48.35 57.35 48.4 57.3 48.65 Q57.8 48.95 57.8 49.65 L57.8 49.85 57.85 49.85 Q58.5 49.75 58.5 50.55 L58.5 50.6 Q58.85 50.4 59.4 50.35 L59.8 50.35 59.8 50.05 60.1 49.95 Q60.15 49.75 60.4 49.8 L60.55 49.85 60.0 49.3 59.9 48.8 Q59.55 48.8 59.5 48.6 L59.45 48.4 Q59.45 47.95 59.95 47.95 L60.1 47.95 Q60.35 47.7 60.9 47.8 61.95 48.0 61.95 48.9 L61.95 49.15 62.1 49.25 Q62.5 49.2 62.6 49.6 L62.7 49.85 62.6 50.1 62.0 50.5 Q61.55 50.5 61.45 50.25 L61.45 50.2 61.05 49.95 60.85 49.95 60.85 50.05 60.8 50.2 60.25 50.4 60.2 50.3 60.1 50.4 60.6 50.7 61.0 50.7 Q61.85 50.8 62.2 51.2 L62.6 50.95 62.9 51.05 63.2 50.9 63.5 51.0 64.05 50.95 64.0 50.8 63.65 50.85 Q63.15 50.85 63.0 50.55 L62.9 50.2 Q62.9 49.65 63.65 49.5 L63.55 49.4 63.55 49.3 63.75 49.0 Q64.0 48.95 64.0 49.15 L63.9 49.4 63.85 49.5 Q64.4 49.45 64.4 50.1 L64.4 50.35 64.8 50.25 64.95 50.05 64.95 50.0 65.35 49.7 65.45 49.7 65.6 49.6 66.4 49.55 66.7 49.5 Q67.2 49.5 67.2 49.95 67.2 50.5 66.8 50.5 L66.4 50.4 65.75 51.05 Q66.05 51.35 66.05 52.0 L65.95 52.55 71.0 52.95 80.55 52.95 90.45 51.8 106.9 50.65 117.7 51.25 126.65 50.45 Q126.8 48.95 129.15 48.6 L129.2 48.6 Q129.3 47.75 130.45 47.85 L130.7 47.9 130.7 47.85 Q130.7 46.9 132.0 46.9 133.15 46.9 133.25 47.8 L133.4 47.75 133.3 47.6 133.2 47.15 Q133.2 46.8 133.5 46.55 133.5 45.75 134.65 45.6 L135.5 45.8 135.95 45.6 Q135.4 45.55 135.15 45.15 L135.05 44.7 Q135.05 43.85 136.25 43.75 137.4 43.65 137.4 44.55 137.4 45.05 136.9 45.35 L136.6 45.5 136.8 45.5 137.0 45.5 137.1 45.5 Q138.15 45.45 138.15 46.7 L138.05 47.25 Q138.3 47.0 138.85 46.9 L139.55 46.9 Q139.7 46.5 140.45 46.25 140.45 45.55 141.05 45.45 141.1 44.15 142.2 44.2 L142.95 44.45 143.4 44.3 Q144.35 44.2 144.35 45.25 L144.3 45.55 145.2 45.4 145.5 45.25 145.3 44.95 145.25 44.55 Q145.25 43.85 146.0 43.75 146.45 43.7 146.6 44.05 L147.6 43.8 147.8 43.8 Q148.05 43.45 148.75 43.5 149.85 43.55 149.85 44.45 L149.8 44.8 150.45 44.75 152.1 45.0 Q157.85 43.7 163.4 44.95 169.8 46.45 170.3 49.25 170.4 48.55 171.2 48.15 170.6 48.1 170.3 47.55 L170.15 46.95 Q170.15 45.7 171.3 45.85 M182.7 66.5 L182.15 66.75 Q181.55 66.75 181.4 66.3 L181.35 65.85 Q181.35 64.75 182.2 64.95 183.0 65.1 183.0 65.85 L182.7 66.5 M175.2 59.4 L175.05 58.75 Q175.05 58.3 175.2 58.05 L175.2 57.9 Q175.2 56.75 176.25 56.75 177.3 56.75 177.3 57.95 L177.25 58.25 177.45 58.95 Q177.45 60.05 176.35 60.05 175.55 60.05 175.2 59.4 M171.1 53.35 Q171.8 53.35 171.8 54.05 L171.5 54.75 Q172.3 54.7 172.5 55.65 172.5 56.25 171.85 56.25 L171.5 56.1 171.3 55.95 171.3 54.8 171.15 54.8 Q170.7 54.8 170.5 54.4 L170.4 54.05 Q170.4 53.35 171.1 53.35 M162.35 58.0 L161.75 58.4 163.75 59.0 164.0 58.85 163.8 58.85 Q162.8 58.85 162.4 58.2 L162.35 58.0 M166.65 60.2 Q166.65 59.5 167.55 59.6 168.45 59.7 168.45 60.3 L168.1 60.75 167.55 60.95 Q167.0 60.95 166.8 60.6 L166.65 60.2 M169.4 61.1 Q169.4 60.55 170.1 60.65 170.75 60.75 170.75 61.25 170.75 61.8 170.15 61.8 169.65 61.8 169.5 61.4 L169.4 61.1 M172.3 67.15 L172.2 66.8 Q172.2 66.1 173.05 66.1 173.85 66.1 173.85 66.8 173.85 67.5 173.0 67.5 172.55 67.5 172.3 67.15 M122.3 47.1 Q123.0 47.25 123.0 47.85 123.0 48.45 122.4 48.45 121.95 48.45 121.7 48.05 L121.55 47.6 Q121.55 46.95 122.3 47.1 M124.8 48.75 L124.2 48.5 124.2 48.2 Q124.2 47.65 124.8 47.65 125.4 47.65 125.4 48.2 L124.8 48.75 M126.65 48.0 Q126.0 48.0 126.0 47.5 126.0 47.0 126.6 47.0 127.2 47.0 127.2 47.5 127.2 48.0 126.65 48.0 M135.1 42.1 Q135.75 42.05 135.75 42.65 135.75 43.25 135.2 43.25 134.65 43.25 134.45 42.9 L134.4 42.55 Q134.4 42.1 135.1 42.1 M131.7 48.9 L131.6 49.4 131.7 49.75 132.4 49.65 132.3 49.05 132.35 48.75 132.0 48.75 131.7 48.75 131.7 48.9 M137.75 47.65 L137.6 47.75 137.7 47.75 137.75 47.65 M141.45 43.0 Q141.45 42.0 142.75 41.85 144.05 41.65 144.05 42.95 144.05 44.1 142.8 44.1 141.95 44.1 141.6 43.55 L141.45 43.0 M147.65 43.2 Q147.05 43.2 146.8 42.8 L146.7 42.45 Q146.7 41.8 147.7 41.8 148.65 41.8 148.65 42.45 148.65 43.2 147.65 43.2 M144.9 44.1 Q144.45 44.1 144.25 43.7 L144.15 43.4 Q144.15 42.9 144.85 42.75 145.55 42.65 145.55 43.4 145.55 44.1 144.9 44.1 M147.15 45.85 L147.4 45.7 147.45 45.7 147.45 45.6 147.1 45.55 147.15 45.85 M153.25 41.2 Q153.0 41.55 152.7 41.55 151.95 41.55 151.95 40.7 151.95 40.0 152.75 39.95 153.5 39.9 153.5 40.65 L153.25 41.2 M48.95 41.05 Q49.8 41.05 49.8 42.0 L49.6 42.55 Q49.4 42.9 48.95 42.9 48.35 42.9 48.15 42.4 L48.05 42.0 Q48.05 41.05 48.95 41.05 M45.15 44.25 Q45.15 43.8 46.05 43.55 46.9 43.25 46.9 44.1 46.9 44.85 45.85 44.85 45.35 44.85 45.2 44.55 L45.15 44.25 M42.7 44.2 Q43.3 44.2 43.3 44.75 43.3 45.3 42.7 45.3 42.25 45.3 42.15 45.0 L42.1 44.75 Q42.1 44.2 42.7 44.2 M41.6 46.75 Q41.6 47.55 40.65 47.55 40.0 47.55 39.75 47.05 L39.65 46.7 Q39.65 46.05 40.25 45.9 L40.95 45.75 Q41.7 45.9 41.7 46.45 L41.6 46.75 M44.6 48.75 Q44.05 48.75 43.8 48.4 L43.25 48.75 43.4 49.15 44.6 49.1 44.65 48.75 44.6 48.75 M48.45 45.45 L48.4 45.15 Q48.4 44.55 49.0 44.5 49.6 44.45 49.6 45.05 49.6 45.7 49.0 45.7 L48.45 45.45 M49.85 45.1 L49.8 44.85 Q49.8 44.25 50.65 44.25 50.9 43.8 51.8 43.8 52.95 43.8 52.95 44.65 52.95 45.6 51.75 45.6 L51.55 45.6 51.45 45.6 51.1 45.5 50.85 45.4 50.6 45.4 Q50.0 45.4 49.85 45.1 M54.2 48.1 L54.2 48.4 54.15 48.8 54.15 48.95 54.05 49.35 54.3 49.4 Q54.4 49.05 55.15 49.05 L55.25 49.1 55.3 48.9 55.2 48.9 Q54.35 48.9 54.3 48.05 L54.2 48.1 M58.5 48.8 L58.5 48.75 Q58.9 48.5 58.9 48.9 L58.9 49.05 58.7 49.1 58.5 49.05 58.5 48.8 58.3 49.0 58.1 48.8 Q58.1 48.45 58.45 48.65 L58.5 48.8 M62.9 48.7 L63.0 48.85 62.85 49.05 62.65 49.0 62.65 48.8 Q62.75 48.6 62.9 48.7 M65.2 49.15 L64.9 49.05 64.55 49.2 64.25 49.15 64.85 48.95 64.8 48.65 Q64.8 48.25 65.25 48.25 65.65 48.2 65.65 48.7 L65.55 48.95 Q65.45 49.15 65.2 49.15 M31.15 50.6 L31.0 50.95 30.55 51.15 Q30.1 51.15 29.95 50.75 L29.85 50.4 Q29.85 49.7 30.5 49.9 31.15 50.05 31.15 50.6 M32.25 54.15 Q31.95 54.5 31.5 54.5 L31.2 54.45 31.2 54.75 Q31.2 55.65 30.15 55.65 29.45 55.65 29.25 55.15 L29.25 54.5 Q29.25 53.3 30.25 53.45 L30.6 53.55 30.6 53.5 Q30.6 52.65 31.6 52.6 32.55 52.55 32.55 53.5 L32.25 54.15 M35.55 57.15 L35.4 56.65 Q35.4 55.7 36.45 55.55 37.5 55.35 37.5 56.55 L37.3 57.2 Q37.0 57.6 36.45 57.6 35.8 57.6 35.55 57.15 M25.7 52.5 L24.95 52.05 24.8 51.6 Q24.8 50.75 25.75 50.75 26.7 50.75 26.7 51.6 L26.4 52.2 25.7 52.5 M26.55 53.2 L26.4 52.65 Q26.4 51.9 27.4 51.7 28.35 51.45 28.35 52.55 28.35 53.7 27.4 53.7 26.75 53.7 26.55 53.2 M21.6 60.9 Q21.6 61.85 20.7 61.85 20.1 61.85 19.8 61.35 L19.65 60.8 Q19.65 59.85 20.65 59.9 21.6 59.95 21.6 60.9 M28.45 59.7 L28.25 59.7 28.2 59.7 28.25 60.1 28.05 60.7 28.5 60.65 28.45 60.6 28.35 60.1 28.45 59.7 M18.45 54.35 Q18.45 55.35 17.4 55.35 16.75 55.35 16.5 54.9 L16.35 54.45 Q16.35 53.55 17.4 53.45 18.45 53.35 18.45 54.35 M13.35 61.6 Q13.35 62.55 12.4 62.55 11.75 62.55 11.55 62.1 L11.45 61.65 Q11.45 60.75 12.55 60.75 13.4 60.75 13.35 61.6 M18.05 58.0 L17.45 58.35 17.45 58.5 Q17.45 59.05 17.1 59.25 L17.3 59.25 Q18.35 59.25 18.3 60.05 18.3 61.05 17.15 61.05 16.45 61.05 16.15 60.6 L16.05 60.1 Q16.05 59.6 16.5 59.4 15.85 59.4 15.6 58.95 L15.5 58.5 Q15.5 57.75 16.1 57.65 L16.05 57.5 Q16.05 56.6 17.35 56.35 18.6 56.05 18.6 57.2 18.6 57.6 18.05 58.0 M6.6 63.75 Q6.6 62.85 7.65 62.85 8.45 62.85 8.45 63.8 8.45 64.8 7.55 64.8 6.9 64.8 6.7 64.3 L6.6 63.75 M11.15 64.0 Q11.15 63.45 11.55 63.3 L12.8 63.15 Q14.25 63.15 14.25 64.0 14.25 65.0 12.65 65.0 11.6 65.0 11.25 64.5 L11.15 64.0 M62.6 51.55 L62.5 51.55 62.4 51.55 62.45 51.9 62.3 52.4 62.7 52.4 62.55 51.9 62.6 51.55 M58.0 52.0 L57.95 52.1 58.05 52.1 58.0 52.0 M21.35 120.2 Q21.35 119.4 22.15 119.4 22.9 119.4 22.9 120.2 22.9 120.9 22.1 120.9 21.65 120.9 21.45 120.55 L21.35 120.2 M18.85 128.3 L17.9 128.75 17.95 129.1 17.95 129.45 19.05 128.6 19.0 128.55 18.95 128.25 18.85 128.3 M20.2 127.65 L20.9 127.05 20.8 126.95 20.75 126.8 20.5 127.15 20.0 127.5 20.2 127.65 M10.7 131.6 Q10.15 131.6 10.05 131.25 L10.0 130.9 Q10.0 130.15 10.75 130.1 11.5 130.05 11.5 130.85 11.5 131.6 10.7 131.6 M7.35 134.3 L7.5 134.0 Q7.7 133.75 8.1 133.75 8.75 133.75 8.7 134.3 8.7 134.95 8.05 134.95 7.6 134.95 7.45 134.65 L7.35 134.3 M8.9 136.0 Q9.9 135.7 9.9 136.65 9.9 137.0 9.4 137.35 L8.2 137.75 Q7.55 137.75 7.35 137.4 L7.25 137.05 7.35 136.75 7.05 136.5 7.0 136.15 Q7.0 135.45 8.0 135.45 8.75 135.45 8.9 136.0 M5.45 141.7 L5.35 141.3 Q5.35 140.45 6.15 140.45 6.95 140.45 6.95 141.3 6.95 142.1 6.15 142.1 L5.45 141.7 M9.65 141.1 Q9.65 140.5 10.35 140.5 10.95 140.5 10.9 141.1 10.9 141.7 10.3 141.7 9.85 141.7 9.7 141.4 L9.65 141.1 M9.45 148.1 L9.4 147.8 Q9.4 147.0 10.05 146.95 10.65 146.9 10.65 147.65 10.65 148.4 10.0 148.4 9.55 148.4 9.45 148.1 M30.9 158.9 L30.3 159.05 Q29.8 159.05 29.7 158.75 L29.7 158.5 Q29.7 157.9 30.3 157.9 30.9 157.9 30.95 158.5 L30.9 158.9 M32.85 159.85 Q33.45 159.85 33.45 160.55 33.45 161.2 32.85 161.2 32.4 161.2 32.3 160.9 L32.25 160.55 Q32.25 159.85 32.85 159.85 M34.4 159.0 L33.9 158.85 33.9 158.6 Q33.9 158.25 34.8 158.15 L34.95 158.85 34.4 159.0 M33.9 159.3 L33.95 159.75 Q33.9 159.95 33.55 159.95 L33.2 159.9 Q33.05 159.9 33.05 159.55 L33.05 159.35 33.15 159.3 33.9 159.3 M34.8 159.9 Q34.8 159.35 35.6 159.35 36.3 159.35 36.35 159.95 L36.1 160.45 35.55 160.65 34.9 160.3 34.8 159.9 M39.0 156.85 Q39.0 156.25 39.75 156.25 40.5 156.25 40.5 156.85 40.5 157.4 39.75 157.4 L39.05 157.15 39.0 156.85 M37.2 159.15 L36.9 159.3 36.45 158.9 36.6 158.6 36.9 158.55 Q37.2 158.65 37.2 159.15 M39.45 159.9 Q40.05 159.95 40.05 160.5 L39.85 160.95 39.45 161.1 Q39.05 161.1 38.95 160.8 L38.85 160.5 Q38.85 159.9 39.45 159.9 M38.7 159.6 L38.4 159.8 37.95 159.3 Q38.0 159.05 38.4 158.75 L38.7 159.6 M20.55 153.5 L19.8 153.85 Q19.0 153.85 19.0 153.05 L19.25 152.45 Q19.55 152.1 20.05 152.1 20.85 152.1 20.85 152.9 L20.55 153.5 M25.15 157.2 Q25.15 156.25 26.05 156.4 26.9 156.6 26.9 157.35 26.9 158.15 26.1 158.15 25.55 158.15 25.3 157.7 L25.15 157.2 M39.15 163.25 Q39.15 162.65 39.75 162.65 40.35 162.7 40.35 163.25 40.35 163.8 39.75 163.8 39.15 163.8 39.15 163.25 M40.2 161.1 Q40.2 160.5 40.9 160.5 L41.05 160.5 Q41.1 160.1 41.55 160.05 L41.45 159.95 41.3 159.65 41.3 159.5 Q40.85 159.35 40.85 158.85 40.85 158.1 41.6 158.3 42.25 158.45 42.3 158.9 L42.65 159.0 42.75 158.7 42.55 158.5 42.5 158.25 42.15 158.1 42.1 157.95 Q41.95 158.25 41.6 158.25 41.1 158.25 40.95 157.95 L40.85 157.65 Q40.85 156.95 41.5 156.9 42.0 156.85 42.1 157.25 42.25 156.9 42.7 156.85 43.35 156.8 43.35 157.5 L43.35 157.65 Q43.65 157.75 43.65 158.2 L43.65 158.45 43.7 158.5 43.95 157.85 43.8 157.45 Q43.8 156.9 44.5 156.8 44.95 156.7 45.1 156.95 L45.35 156.85 45.5 156.6 45.4 156.45 45.3 156.1 Q45.3 155.7 45.5 155.6 L45.3 155.35 Q45.3 155.0 45.45 154.95 L46.2 154.95 46.2 155.25 46.05 155.6 Q46.55 155.75 46.55 156.2 L46.55 156.4 46.7 156.35 46.7 156.3 Q46.7 156.1 47.0 156.0 L47.55 156.0 47.55 156.05 47.65 156.0 47.6 155.7 48.15 155.15 48.5 155.6 48.5 155.7 48.85 155.55 48.8 155.3 Q48.8 154.75 49.45 154.75 L49.9 154.85 49.8 154.7 Q49.8 153.95 50.65 153.95 51.4 153.95 51.5 154.55 L51.6 154.5 52.25 154.25 Q52.25 153.5 53.2 153.5 53.9 153.5 54.1 153.9 L54.6 153.75 Q55.5 153.55 55.5 154.45 L55.5 154.7 56.5 155.4 Q56.55 154.65 57.45 154.55 58.4 154.45 58.4 155.25 L58.25 155.85 58.4 155.9 Q58.4 155.2 59.5 155.0 60.55 154.85 60.6 155.7 L61.0 155.75 60.95 155.5 61.0 155.2 60.3 154.85 60.15 154.7 59.8 154.75 Q59.35 154.75 59.15 154.4 L59.05 154.0 Q59.05 153.15 59.8 153.25 L60.25 153.45 61.1 153.35 61.6 153.5 61.5 153.1 Q61.5 152.1 62.6 151.95 63.4 151.8 63.6 152.45 L63.95 152.35 Q64.5 152.2 64.7 152.65 64.85 152.5 65.2 152.45 65.9 152.35 65.9 153.0 L65.7 153.55 65.35 153.85 Q65.85 153.9 66.05 154.15 L66.45 154.05 Q66.6 153.65 67.1 153.6 L66.9 153.35 66.8 153.0 Q66.8 152.45 67.45 152.45 68.1 152.45 68.1 153.05 L67.9 153.45 67.7 153.6 Q68.0 153.75 68.0 154.2 L67.65 154.75 67.3 154.95 Q67.2 155.55 66.5 155.55 66.0 155.55 65.85 155.2 L65.8 155.25 65.8 155.5 Q65.8 156.6 64.8 156.6 63.3 156.6 62.95 155.9 L62.85 156.1 62.55 156.4 62.85 157.0 62.85 157.05 63.45 157.6 63.75 157.55 63.65 157.2 Q63.65 156.6 64.4 156.6 65.05 156.6 65.05 157.25 65.05 157.8 64.45 157.85 L64.55 158.35 64.4 158.8 64.0 159.15 64.0 159.55 63.8 160.55 Q64.35 160.55 64.35 161.1 L64.05 161.65 64.05 161.7 64.05 161.95 63.9 162.5 64.4 162.2 65.2 162.3 Q65.25 161.85 65.85 161.7 L66.2 161.7 66.15 161.45 Q66.15 160.9 66.85 160.75 67.55 160.55 67.55 161.3 67.55 162.0 66.9 162.0 L66.5 161.95 66.5 162.25 Q66.5 163.05 65.85 163.05 L65.3 162.9 Q64.95 163.8 64.1 163.8 63.5 163.8 63.5 163.15 L63.8 162.6 63.15 162.75 62.4 162.45 62.3 162.25 61.75 162.45 61.65 162.45 61.5 162.5 60.95 162.75 60.95 162.95 60.95 163.1 61.0 163.1 Q61.65 163.1 61.65 163.7 61.65 164.25 60.95 164.25 60.45 164.25 60.35 163.95 L60.3 163.7 60.35 163.5 60.3 163.5 59.75 163.15 59.3 163.25 Q59.3 163.8 58.5 163.8 57.9 163.8 57.75 163.5 L57.6 163.55 57.6 163.7 57.3 164.2 Q57.05 164.4 56.85 164.4 L56.5 164.35 56.05 164.4 Q55.2 164.4 55.2 163.9 L55.3 163.65 55.25 163.65 54.8 163.65 54.9 164.05 54.6 164.55 54.0 164.75 53.45 164.6 53.45 164.75 Q53.45 165.45 52.45 165.45 L51.75 165.2 51.75 165.1 51.45 165.15 Q50.9 165.15 50.75 164.8 L50.7 164.4 50.55 164.4 50.2 164.4 50.25 164.75 Q50.25 165.3 49.55 165.3 49.05 165.3 48.9 165.0 L48.8 164.7 Q48.8 164.45 48.95 164.3 L47.55 163.95 47.05 164.1 Q46.4 164.1 46.35 163.65 45.75 163.6 45.75 163.1 L45.75 163.0 45.7 162.9 45.25 163.05 44.75 162.95 44.45 163.05 43.8 162.9 43.8 162.3 43.5 162.3 Q43.1 162.3 42.9 162.0 L42.9 162.2 Q42.9 162.75 42.2 162.9 L42.15 162.9 42.15 162.95 41.85 163.45 41.35 163.65 Q40.65 163.65 40.65 163.1 40.65 162.8 40.95 162.6 L41.6 162.45 41.6 162.35 41.8 161.9 41.7 161.75 41.6 161.45 41.6 161.4 41.5 161.4 Q41.35 161.65 40.9 161.7 40.45 161.7 40.25 161.4 L40.2 161.1 M37.05 162.65 Q37.05 162.05 37.6 162.05 38.15 162.1 38.15 162.65 38.15 163.2 37.7 163.2 L37.05 162.95 37.05 162.65 M11.65 151.8 Q11.65 151.25 12.35 151.25 12.95 151.25 13.0 151.95 13.0 152.55 12.35 152.55 L11.75 152.2 11.65 151.8 M9.15 150.65 Q9.15 150.05 10.05 150.05 10.9 150.05 10.8 150.65 10.8 151.25 9.95 151.25 9.35 151.25 9.2 150.95 L9.15 150.65 M71.3 154.05 L71.35 154.05 71.4 154.5 71.35 154.9 71.4 155.15 71.3 155.55 71.3 155.6 Q71.8 155.75 71.7 156.15 71.5 156.45 71.15 156.45 L70.65 156.2 70.65 156.0 70.75 155.7 70.35 155.45 Q70.25 155.6 70.25 155.35 L69.85 155.25 69.8 154.55 69.9 153.9 70.25 153.9 70.25 153.65 Q70.25 153.0 70.85 153.0 71.4 153.0 71.4 153.65 L71.3 154.05 M73.05 160.85 Q73.05 161.7 71.85 161.7 71.25 161.7 71.05 161.4 L71.0 161.1 Q71.0 160.6 72.05 160.3 73.05 159.95 73.05 160.85 M72.65 159.35 Q72.65 159.75 72.05 160.05 L71.55 159.8 71.55 159.0 Q72.15 158.6 72.45 158.85 L72.65 159.35 M71.15 159.0 L71.15 159.15 70.85 159.15 70.25 158.75 70.85 158.25 Q71.25 158.1 71.25 158.75 L71.15 159.0 M67.3 150.8 Q68.0 150.9 68.0 151.5 L67.8 151.95 Q67.6 152.15 67.3 152.15 66.85 152.15 66.7 151.85 L66.6 151.5 Q66.6 150.7 67.3 150.8 M67.55 149.8 L67.95 149.7 Q68.3 149.55 68.3 149.05 L69.05 149.8 68.3 150.55 67.55 149.8 M64.6 151.45 Q64.6 152.15 64.0 152.15 63.6 152.15 63.45 151.85 L63.35 151.5 Q63.35 150.75 64.0 150.75 64.6 150.75 64.6 151.45 M62.25 154.15 L62.3 154.45 62.3 154.55 Q62.75 154.6 62.95 154.95 63.2 154.3 64.2 154.35 64.3 153.9 64.85 153.8 L64.6 153.65 64.55 153.7 Q64.3 154.0 63.95 154.0 L63.35 153.8 Q63.05 154.15 62.55 154.15 L62.25 154.15 M64.35 159.7 Q64.35 158.95 65.15 158.95 65.7 158.95 65.85 159.4 66.5 159.55 66.5 160.0 66.5 160.7 65.45 160.7 64.8 160.7 64.65 160.4 L64.6 160.3 64.45 160.1 64.35 159.7 M69.6 155.4 L69.3 155.9 69.0 156.1 69.15 156.65 Q69.15 157.45 68.55 157.45 68.1 157.45 67.9 157.1 L67.85 156.85 67.75 157.05 67.25 157.35 Q66.8 157.35 66.6 156.95 L66.5 156.6 Q66.5 156.05 67.0 156.0 L67.35 155.9 Q67.85 155.9 68.0 156.25 68.1 156.1 68.35 156.05 68.1 155.85 68.1 155.45 68.1 154.85 68.85 154.8 69.6 154.75 69.6 155.4 M68.65 163.35 Q67.95 163.35 67.95 162.8 67.95 162.15 68.65 162.0 69.3 161.85 69.3 162.6 69.3 163.35 68.65 163.35 M70.1 165.45 L70.05 165.0 Q70.05 164.35 70.65 164.35 71.25 164.35 71.25 165.0 L71.15 165.45 70.65 165.6 70.1 165.45 M61.5 164.4 Q61.5 163.75 62.1 163.75 62.7 163.75 62.7 164.35 62.7 164.9 62.1 164.9 61.5 164.9 61.5 164.4 M57.5 153.75 Q57.5 153.15 58.25 153.15 58.95 153.15 58.95 153.75 L58.65 154.2 58.25 154.35 Q57.75 154.35 57.6 154.05 L57.5 153.75 M57.1 152.45 L56.65 152.6 Q56.2 152.6 56.0 152.25 L55.9 151.9 Q55.9 151.25 56.65 151.3 57.4 151.35 57.4 151.95 L57.1 152.45 M59.55 151.6 Q59.55 150.95 60.4 151.0 61.2 151.05 61.2 151.65 61.2 152.25 60.35 152.25 L59.85 152.15 59.9 152.35 59.85 152.6 59.3 152.7 58.65 152.7 58.5 152.3 Q58.5 151.8 59.75 152.1 L59.65 151.95 59.55 151.6 M52.75 152.8 L53.4 152.9 53.4 153.35 52.95 153.5 52.55 153.45 52.5 153.1 52.75 152.8 M51.7 152.25 Q52.4 152.25 52.4 152.85 52.4 153.35 51.8 153.35 51.0 153.35 51.0 152.85 51.0 152.25 51.7 152.25 M46.45 153.4 Q47.25 153.2 47.25 153.9 L46.85 154.5 46.25 154.8 Q45.6 154.8 45.6 154.25 45.6 153.65 46.45 153.4 M48.35 154.65 L48.3 155.1 47.85 155.15 47.3 155.0 Q47.5 154.45 48.15 154.35 L48.35 154.65 M45.55 152.4 Q46.25 152.4 46.25 153.0 46.05 153.75 45.35 153.75 L45.2 153.75 45.2 154.1 Q45.2 154.8 44.6 154.8 44.05 154.8 43.8 154.45 L43.65 154.05 Q43.65 153.45 44.45 153.45 L44.95 153.55 44.9 153.4 44.85 153.1 44.45 153.2 Q43.65 153.2 43.65 152.7 43.65 152.0 44.35 152.1 44.95 152.15 45.05 152.55 45.2 152.4 45.55 152.4 M43.95 155.7 L43.4 155.85 42.9 155.7 42.8 155.2 Q42.8 154.55 43.4 154.55 43.95 154.55 43.95 155.2 L43.95 155.7 M44.5 161.6 L44.35 161.45 44.1 161.6 44.1 161.65 44.45 161.6 44.5 161.6 M45.1 163.1 Q45.65 163.1 45.65 163.7 L45.5 164.15 Q45.5 164.75 44.9 164.75 L44.3 164.5 44.25 164.2 Q44.25 163.85 44.55 163.7 44.55 163.1 45.1 163.1 M52.0 164.35 L51.95 164.35 51.95 164.5 52.15 164.4 52.0 164.35 M53.25 164.0 L53.05 164.25 53.3 164.35 53.25 164.2 53.3 164.0 53.25 164.0 M156.4 132.75 L156.45 133.2 156.55 132.75 156.4 132.75 M156.45 133.35 L156.3 133.8 156.55 133.7 156.45 133.35 M151.1 138.45 Q151.1 139.35 150.0 139.35 149.25 139.35 149.05 138.9 L148.95 138.45 Q148.95 137.45 150.05 137.45 151.1 137.45 151.1 138.45 M144.55 146.65 Q145.95 146.6 145.95 147.6 145.95 148.7 144.15 148.7 143.15 148.7 143.15 147.75 143.15 146.7 144.55 146.65 M148.5 144.0 Q147.8 144.0 147.45 143.45 L147.3 142.9 Q147.3 141.9 148.45 141.9 149.55 141.9 149.55 142.95 149.55 144.0 148.5 144.0 M106.7 162.3 L106.1 162.8 106.5 162.7 106.7 162.7 106.7 162.5 106.7 162.3 M111.05 166.3 Q111.05 165.65 112.1 165.45 113.1 165.3 113.1 166.2 113.1 167.1 112.05 167.1 111.4 167.1 111.15 166.7 L111.05 166.3 M105.15 165.15 L105.0 164.5 Q105.0 163.7 105.4 163.25 L103.9 164.0 104.4 164.45 104.7 165.25 104.25 166.15 103.9 166.45 104.1 166.5 Q104.3 166.3 104.75 166.2 L104.7 166.0 Q104.7 165.45 105.25 165.25 L105.15 165.15 M101.3 167.7 L100.9 167.9 Q100.1 167.9 100.1 167.4 100.1 166.75 100.85 166.55 101.55 166.4 101.55 167.2 L101.3 167.7 M111.05 168.5 Q111.05 167.6 112.0 167.65 112.95 167.7 112.95 168.5 112.95 169.35 112.0 169.35 111.35 169.35 111.15 168.95 L111.05 168.5 M109.7 169.4 Q109.7 170.25 108.8 170.25 108.25 170.25 108.1 169.9 L108.05 169.5 Q108.05 168.8 108.9 168.7 109.7 168.6 109.7 169.4 M109.5 171.55 L109.4 171.1 Q109.4 170.25 110.3 170.35 111.15 170.4 111.15 171.2 L110.9 171.75 110.3 171.95 Q109.75 171.95 109.5 171.55 M113.95 171.75 L113.85 171.25 Q113.85 170.6 114.75 170.4 115.65 170.2 115.65 171.05 115.35 172.2 114.6 172.2 114.1 172.2 113.95 171.75 M96.15 167.4 Q96.15 166.8 96.85 166.7 97.55 166.6 97.55 167.2 97.55 167.9 96.75 167.9 L96.15 167.75 96.15 167.4 M152.9 159.2 Q153.8 159.5 153.8 160.15 L153.6 160.7 Q153.35 161.1 152.75 161.1 152.15 161.1 152.0 160.6 L152.0 160.1 Q152.0 158.9 152.9 159.2 M147.15 149.6 Q145.8 149.6 145.8 148.65 145.8 147.65 147.15 147.65 148.5 147.65 148.5 148.7 148.5 149.6 147.15 149.6 M148.1 152.75 L147.5 153.0 146.7 152.55 146.6 152.15 Q146.6 151.3 147.5 151.4 148.35 151.5 148.35 152.25 L148.1 152.75 M151.6 153.5 Q152.75 153.5 152.75 154.25 152.75 155.0 151.6 155.0 150.8 155.0 150.55 154.55 L150.45 154.25 Q150.45 153.5 151.6 153.5 M142.75 151.35 L142.15 151.25 142.25 152.0 142.5 152.05 142.85 152.2 Q142.9 151.8 143.3 151.7 L143.05 151.35 142.75 151.35 M142.7 154.45 L143.25 157.2 144.65 161.5 145.2 163.05 Q145.4 162.9 145.65 162.85 L145.55 162.5 Q145.55 162.1 145.7 161.8 L145.3 161.25 Q144.95 160.6 144.95 160.15 L145.05 159.6 144.8 158.9 Q144.8 158.25 145.05 158.0 L145.9 157.6 145.6 157.25 145.4 156.8 144.7 156.3 144.25 156.3 Q143.55 156.3 143.2 155.7 L142.95 154.95 143.05 154.5 142.7 154.45 M147.7 155.05 L147.65 154.9 147.65 155.0 147.7 155.05 M148.8 160.95 L148.85 160.7 148.0 160.95 147.95 160.95 148.3 161.2 148.6 161.15 148.9 161.2 148.8 160.95" fill="#e9c572" fill-rule="evenodd" stroke="none"/>
    <path d="M104.2 -11.3 L104.2 -35.8 M98.45 -13.45 L98.45 -36.05" fill="none" stroke="#1e1e1e" stroke-linecap="round" stroke-linejoin="round" stroke-width="1.0"/>
  </g>
</svg>
