<?xml version="1.0" encoding="UTF-8" standalone="no"?>
<svg xmlns:xlink="http://www.w3.org/1999/xlink" height="20.95px" width="11.7px" xmlns="http://www.w3.org/2000/svg">
  <g transform="matrix(1.0, 0.0, 0.0, 1.0, 0.4, 0.4)">
    <path d="M9.9 4.15 L9.9 5.2 Q9.7 6.7 8.6 7.85 L7.85 8.5 Q6.75 9.15 5.45 9.15 4.05 9.15 3.0 8.5 L2.2 7.85 Q1.1 6.7 0.95 5.1 L0.95 4.15 Q1.15 2.65 2.2 1.55 3.5 0.2 5.45 0.2 7.3 0.2 8.6 1.55 9.7 2.65 9.9 4.15" fill="#a85151" fill-rule="evenodd" stroke="none"/>
    <path d="M9.9 4.15 Q9.7 2.65 8.6 1.55 7.3 0.2 5.45 0.2 3.5 0.2 2.2 1.55 1.15 2.65 0.95 4.15 L0.95 5.1 Q1.1 6.7 2.2 7.85 L3.0 8.5 Q4.05 9.15 5.45 9.15 6.75 9.15 7.85 8.5 L8.6 7.85 Q9.7 6.7 9.9 5.2 L9.9 4.15 M9.3 1.6 Q10.65 2.9 10.85 4.8 L10.9 14.65 10.9 14.8 Q10.85 17.0 9.3 18.5 7.65 20.15 5.45 20.15 3.2 20.15 1.55 18.5 0.0 16.95 0.0 14.65 L0.0 14.3 0.0 4.8 Q0.2 2.9 1.55 1.6 3.2 0.0 5.45 0.0 7.65 0.0 9.3 1.6" fill="#793636" fill-rule="evenodd" stroke="none"/>
    <path d="M9.3 1.6 Q10.65 2.9 10.85 4.8 L10.9 14.65 10.9 14.8 Q10.85 17.0 9.3 18.5 7.65 20.15 5.45 20.15 3.2 20.15 1.55 18.5 0.0 16.95 0.0 14.65 L0.0 14.3 0.0 4.8 Q0.2 2.9 1.55 1.6 3.2 0.0 5.45 0.0 7.65 0.0 9.3 1.6 Z" fill="none" stroke="#000000" stroke-linecap="round" stroke-linejoin="round" stroke-width="0.8"/>
  </g>
</svg>
