<?xml version="1.0" encoding="UTF-8" standalone="no"?>
<svg xmlns:xlink="http://www.w3.org/1999/xlink" height="25.8px" width="25.8px" xmlns="http://www.w3.org/2000/svg">
  <g transform="matrix(1.0, 0.0, 0.0, 1.0, -51.25, -162.65)">
    <path d="M72.1 167.45 Q75.55 170.9 75.55 175.55 75.55 180.25 72.1 183.55 69.65 186.05 66.5 186.75 L64.15 186.95 Q59.45 186.95 56.05 183.55 52.75 180.25 52.75 175.55 52.75 170.9 56.05 167.45 59.45 164.15 64.15 164.15 L66.5 164.4 Q69.65 165.0 72.1 167.45" fill="#a37a32" fill-rule="evenodd" stroke="none"/>
    <path d="M72.1 167.45 Q75.55 170.9 75.55 175.55 75.55 180.25 72.1 183.55 69.65 186.05 66.5 186.75 L64.15 186.95 Q59.45 186.95 56.05 183.55 52.75 180.25 52.75 175.55 52.75 170.9 56.05 167.45 59.45 164.15 64.15 164.15 L66.5 164.4 Q69.65 165.0 72.1 167.45 Z" fill="none" stroke="#816025" stroke-linecap="round" stroke-linejoin="round" stroke-width="3.0"/>
  </g>
</svg>
