<?xml version="1.0" encoding="UTF-8" standalone="no"?>
<svg xmlns:xlink="http://www.w3.org/1999/xlink" height="27.2px" width="67.1px" xmlns="http://www.w3.org/2000/svg">
  <g transform="matrix(1.0, 0.0, 0.0, 1.0, 38.1, 12.35)">
    <path d="M8.0 -11.75 L9.4 -11.9 13.45 -12.35 13.75 -12.35 Q14.65 -12.45 15.25 -11.35 L16.4 -9.4 17.5 -6.05 17.9 -5.0 18.05 -9.15 Q18.4 -11.55 19.45 -11.55 19.8 -11.8 20.35 -11.55 L20.7 -11.55 27.95 -11.55 28.5 -11.35 28.9 -10.9 29.0 -10.3 26.45 11.75 Q26.3 13.1 25.75 13.6 L25.45 13.9 24.0 14.35 17.75 14.8 17.65 14.85 16.85 14.85 Q15.95 14.7 15.55 14.3 14.45 13.5 13.4 10.3 L12.9 8.25 12.85 9.55 13.05 12.1 Q13.05 13.5 12.15 13.7 L11.6 13.8 11.0 14.0 4.45 14.0 Q4.0 14.0 3.7 13.65 3.4 13.35 3.4 12.9 L3.4 11.75 3.35 12.8 3.2 13.2 2.85 13.55 2.3 13.9 Q1.95 14.2 1.5 14.2 L-6.6 14.2 -7.6 13.85 -7.95 13.1 -7.95 4.75 Q-9.3 12.5 -10.8 13.15 L-12.15 13.7 -12.1 13.7 -18.1 14.4 -18.4 14.4 -18.8 14.4 -18.9 14.4 -19.25 14.35 -19.5 14.35 -20.0 14.2 Q-20.6 14.0 -20.95 13.05 -21.65 12.05 -22.25 10.25 L-22.75 8.5 -23.4 9.75 -24.25 12.4 Q-25.1 14.35 -26.15 14.35 L-26.35 14.35 -26.8 14.35 -29.4 14.2 -31.55 14.0 -34.35 13.6 -34.7 13.6 -35.25 13.3 -35.7 12.85 -35.95 12.3 Q-36.5 11.45 -36.75 9.35 L-37.1 4.0 Q-38.1 -2.6 -38.1 -4.85 L-38.1 -7.65 -37.85 -9.2 -37.85 -9.45 Q-38.15 -10.4 -36.35 -10.85 L-35.2 -11.15 -35.1 -11.15 -31.85 -11.9 -31.8 -11.9 -30.9 -12.15 -30.65 -12.15 -30.4 -12.2 -28.95 -12.3 -28.65 -12.25 Q-27.5 -12.45 -27.0 -11.05 -26.65 -10.15 -26.65 -8.8 L-26.75 -7.55 -26.65 -8.05 -26.6 -8.2 -26.25 -9.3 -25.85 -9.85 -25.25 -10.1 -25.0 -10.15 -24.9 -10.15 -23.35 -10.2 -21.35 -10.1 -19.8 -9.85 -19.9 -9.9 -19.25 -9.8 -19.05 -9.75 -18.35 -9.4 -18.1 -9.05 -17.95 -8.8 Q-17.35 -8.3 -17.2 -7.35 L-17.15 -6.4 Q-16.25 -10.8 -15.1 -11.4 -14.8 -11.7 -14.45 -11.7 L-7.15 -11.7 Q-6.7 -11.7 -6.4 -11.35 L-5.3 -11.35 Q-1.2 -11.35 3.45 -10.2 3.65 -10.8 4.55 -11.1 L4.65 -11.1 5.35 -11.3 5.4 -11.3 6.0 -11.5 6.45 -11.6 6.8 -11.6 6.9 -11.65 8.0 -11.75 M8.5 -9.5 L7.4 -9.4 6.95 -9.3 6.1 -9.1 5.4 -8.95 Q5.05 -8.85 5.05 -8.55 L5.05 11.7 11.15 11.7 11.15 -2.65 11.75 -1.95 12.55 0.55 12.95 2.1 13.15 2.85 13.75 4.65 16.1 12.05 Q16.1 12.35 16.7 12.45 L17.25 12.45 17.5 12.4 23.1 12.05 24.25 11.7 24.6 10.6 27.0 -9.25 20.15 -9.25 20.0 -8.3 19.9 -7.45 19.75 -6.75 19.6 -1.4 19.5 0.8 19.45 2.7 19.45 3.95 Q18.85 3.55 18.45 2.0 L17.95 0.3 17.3 -1.5 15.2 -7.65 14.65 -8.95 14.3 -9.55 13.75 -10.1 13.55 -10.1 9.75 -9.65 8.5 -9.5 M2.1 -8.55 Q-1.3 -9.7 -4.35 -9.7 L-5.25 -9.7 -5.25 12.4 0.6 12.4 1.0 12.05 1.05 11.05 1.25 8.3 1.95 0.4 2.25 -3.7 2.5 -8.25 2.1 -8.55 M12.9 5.95 L13.0 6.25 12.9 5.9 12.9 5.95 M-34.4 -8.85 L-35.5 -8.55 Q-36.2 -8.4 -36.2 -8.25 L-36.2 -4.9 -34.4 11.35 -34.0 11.7 -33.7 11.75 -31.05 12.05 -29.1 12.25 -26.65 12.4 -26.35 12.4 -25.75 11.05 -25.2 9.7 -24.5 8.0 -24.1 6.9 -23.5 4.8 -22.65 2.85 -22.25 3.55 -19.7 12.4 -19.45 12.4 -19.0 12.4 -18.65 12.4 -18.35 12.4 -12.9 11.85 Q-12.05 11.65 -11.9 11.35 L-11.75 10.7 -11.6 10.2 -11.55 9.9 -10.9 6.75 -8.55 -4.35 -8.05 -6.9 -7.9 -7.8 -7.9 -9.25 -14.85 -9.25 -14.9 -9.15 -15.25 -7.8 -15.55 -5.3 -16.15 -2.1 -16.75 1.25 -16.95 2.4 -17.05 2.85 -17.45 3.25 -17.85 2.85 -18.9 -6.75 -19.35 -7.45 -19.55 -7.55 -20.2 -7.65 -21.5 -7.8 -23.4 -7.9 -24.85 -7.8 -25.2 -7.8 -25.6 -6.75 -27.05 0.35 -27.45 2.1 -28.25 3.7 -28.65 3.95 -28.65 -9.85 -30.0 -9.75 -30.35 -9.7 -31.3 -9.5 -34.4 -8.85" fill="#000000" fill-rule="evenodd" stroke="none"/>
    <path d="M2.1 -8.55 L2.5 -8.25 2.25 -3.7 1.95 0.4 1.25 8.3 1.05 11.05 1.0 12.05 0.6 12.4 -5.25 12.4 -5.25 -9.7 -4.35 -9.7 Q-1.3 -9.7 2.1 -8.55 M8.5 -9.5 L9.75 -9.65 13.55 -10.1 13.75 -10.1 14.3 -9.55 14.65 -8.95 15.2 -7.65 17.3 -1.5 17.95 0.3 18.45 2.0 Q18.85 3.55 19.45 3.95 L19.45 2.7 19.5 0.8 19.6 -1.4 19.75 -6.75 19.9 -7.45 20.0 -8.3 20.15 -9.25 27.0 -9.25 24.6 10.6 24.25 11.7 23.1 12.05 17.5 12.4 17.25 12.45 16.7 12.45 Q16.1 12.35 16.1 12.05 L13.75 4.65 13.15 2.85 12.95 2.1 12.55 0.55 11.75 -1.95 11.15 -2.65 11.15 11.7 5.05 11.7 5.05 -8.55 Q5.05 -8.85 5.4 -8.95 L6.1 -9.1 6.95 -9.3 7.4 -9.4 8.5 -9.5 M-34.4 -8.85 L-31.3 -9.5 -30.35 -9.7 -30.0 -9.75 -28.65 -9.85 -28.65 3.95 -28.25 3.7 -27.45 2.1 -27.05 0.35 -25.6 -6.75 -25.2 -7.8 -24.85 -7.8 -23.4 -7.9 -21.5 -7.8 -20.2 -7.65 -19.55 -7.55 -19.35 -7.45 -18.9 -6.75 -17.85 2.85 -17.45 3.25 -17.05 2.85 -16.95 2.4 -16.75 1.25 -16.15 -2.1 -15.55 -5.3 -15.25 -7.8 -14.9 -9.15 -14.85 -9.25 -7.9 -9.25 -7.9 -7.8 -8.05 -6.9 -8.55 -4.35 -10.9 6.75 -11.55 9.9 -11.6 10.2 -11.75 10.7 -11.9 11.35 Q-12.05 11.65 -12.9 11.85 L-18.35 12.4 -18.65 12.4 -19.0 12.4 -19.45 12.4 -19.7 12.4 -22.25 3.55 -22.65 2.85 -23.5 4.8 -24.1 6.9 -24.5 8.0 -25.2 9.7 -25.75 11.05 -26.35 12.4 -26.65 12.4 -29.1 12.25 -31.05 12.05 -33.7 11.75 -34.0 11.7 -34.4 11.35 -36.2 -4.9 -36.2 -8.25 Q-36.2 -8.4 -35.5 -8.55 L-34.4 -8.85" fill="#ffffff" fill-rule="evenodd" stroke="none"/>
  </g>
</svg>
