<?xml version="1.0" encoding="UTF-8" standalone="no"?>
<svg xmlns:xlink="http://www.w3.org/1999/xlink" height="49.9px" width="49.9px" xmlns="http://www.w3.org/2000/svg">
  <g transform="matrix(1.0, 0.0, 0.0, 1.0, 24.85, 25.7)">
    <path d="M17.75 -18.4 Q25.05 -11.1 25.05 -0.75 25.05 9.6 17.75 16.9 10.45 24.2 0.1 24.2 -10.25 24.2 -17.55 16.9 -24.85 9.6 -24.85 -0.75 -24.85 -11.1 -17.55 -18.4 -10.25 -25.7 0.1 -25.7 10.45 -25.7 17.75 -18.4" fill="url(#gradient0)" fill-rule="evenodd" stroke="none"/>
    <path d="M25.05 -0.75 Q25.05 9.6 17.75 16.9 10.45 24.2 0.1 24.2 -10.25 24.2 -17.55 16.9 -24.85 9.6 -24.85 -0.75 -24.85 -11.1 -17.55 -18.4 -10.25 -25.7 0.1 -25.7 10.45 -25.7 17.75 -18.4 25.05 -11.1 25.05 -0.75" fill="url(#gradient1)" fill-rule="evenodd" stroke="none"/>
    <path d="M13.5 -13.8 Q18.8 -8.5 18.8 -0.95 18.8 4.95 15.55 9.55 16.4 6.75 16.4 3.6 16.4 -4.55 10.7 -10.25 4.95 -16.0 -3.2 -16.0 -8.1 -16.0 -12.15 -13.9 -6.85 -19.15 0.6 -19.15 8.15 -19.15 13.5 -13.8" fill="#ffffff" fill-opacity="0.3137255" fill-rule="evenodd" stroke="none"/>
  </g>
  <defs>
    <radialGradient cx="0" cy="0" gradientTransform="matrix(0.0354, 0.0, 0.0, 0.0354, 2.35, -8.55)" gradientUnits="userSpaceOnUse" id="gradient0" r="819.2" spreadMethod="pad">
      <stop offset="0.42745098039215684" stop-color="#ffffff" stop-opacity="0.12941177"/>
      <stop offset="1.0" stop-color="#000000" stop-opacity="0.6"/>
    </radialGradient>
    <radialGradient cx="0" cy="0" gradientTransform="matrix(0.0147, 0.0, 0.0, 0.0147, 6.95, -14.8)" gradientUnits="userSpaceOnUse" id="gradient1" r="819.2" spreadMethod="pad">
      <stop offset="0.0" stop-color="#ffffff" stop-opacity="0.8"/>
      <stop offset="1.0" stop-color="#ffffff" stop-opacity="0.0"/>
    </radialGradient>
  </defs>
</svg>
