<?xml version="1.0" encoding="UTF-8" standalone="no"?>
<svg xmlns:xlink="http://www.w3.org/1999/xlink" height="109.95px" width="142.9px" xmlns="http://www.w3.org/2000/svg">
  <g transform="matrix(1.0, 0.0, 0.0, 1.0, 71.45, 54.95)">
    <path d="M50.15 -35.7 Q66.95 -20.9 66.95 0.0 66.95 20.9 50.15 35.7 33.35 50.5 9.6 50.5 -12.3 50.5 -28.25 38.0 -32.4 39.55 -37.0 39.55 -49.4 39.55 -58.2 28.0 -66.95 16.4 -66.95 0.0 -66.95 -16.4 -58.2 -28.0 -49.4 -39.6 -37.0 -39.6 -32.4 -39.6 -28.25 -37.95 -12.25 -50.45 9.6 -50.45 33.35 -50.45 50.15 -35.7" fill="#1a1c23" fill-rule="evenodd" stroke="none"/>
    <path d="M50.15 -35.7 Q66.95 -20.9 66.95 0.0 66.95 20.9 50.15 35.7 33.35 50.5 9.6 50.5 -12.3 50.5 -28.25 38.0 -32.4 39.55 -37.0 39.55 -49.4 39.55 -58.2 28.0 -66.95 16.4 -66.95 0.0 -66.95 -16.4 -58.2 -28.0 -49.4 -39.6 -37.0 -39.6 -32.4 -39.6 -28.25 -37.95 -12.25 -50.45 9.6 -50.45 33.35 -50.45 50.15 -35.7 Z" fill="none" stroke="#000000" stroke-linecap="round" stroke-linejoin="round" stroke-width="9.0"/>
    <path d="M50.2 35.65 Q33.4 50.45 9.65 50.45 -14.15 50.45 -30.95 35.65 -47.75 20.9 -47.75 0.0 -47.75 -20.95 -30.95 -35.7 -14.15 -50.5 9.65 -50.5 33.4 -50.5 50.2 -35.7 67.0 -20.95 67.0 0.0 67.0 20.9 50.2 35.65" fill="#1a1c23" fill-rule="evenodd" stroke="none"/>
    <path d="M-27.8 -38.25 Q-19.2 -35.3 -12.2 -28.7 0.5 -16.8 0.5 0.0 0.5 16.85 -12.2 28.75 -19.2 35.35 -27.8 38.35 L-31.0 35.7 Q-47.8 20.95 -47.8 0.05 -47.8 -20.85 -31.0 -35.65 L-27.8 -38.25" fill="#000000" fill-rule="evenodd" stroke="none"/>
    <path d="M-15.85 -28.05 Q-7.1 -16.45 -7.1 -0.05 -7.1 16.35 -15.85 27.95 -24.6 39.55 -37.0 39.55 -49.4 39.55 -58.2 27.95 -66.95 16.35 -66.95 -0.05 -66.95 -16.45 -58.2 -28.05 -49.4 -39.6 -37.0 -39.6 -24.6 -39.6 -15.85 -28.05" fill="#1a1c23" fill-rule="evenodd" stroke="none"/>
    <path d="M-32.85 -17.35 Q-28.95 -10.2 -28.95 -0.05 -28.95 10.15 -32.85 17.3 -36.75 24.5 -42.25 24.5 -47.75 24.5 -51.65 17.3 -55.55 10.15 -55.55 -0.05 -55.55 -10.2 -51.65 -17.35 -47.75 -24.55 -42.25 -24.55 -36.75 -24.55 -32.85 -17.35" fill="#000000" fill-rule="evenodd" stroke="none"/>
    <path d="M41.0 -36.9 L41.75 -36.35 Q42.65 -35.65 42.85 -34.45 43.05 -33.25 42.4 -32.2 41.75 -31.2 40.7 -31.0 39.55 -30.8 38.65 -31.5 L38.2 -31.8 Q37.25 -32.45 37.0 -33.65 36.7 -34.8 37.3 -35.9 37.85 -36.95 38.95 -37.25 40.0 -37.55 41.0 -36.9 M-11.2 -36.2 L-13.3 -36.25 Q-14.3 -36.75 -14.75 -37.85 -15.2 -39.05 -14.75 -40.15 -14.3 -41.3 -13.25 -41.75 -2.8 -46.45 9.6 -46.45 19.3 -46.45 27.75 -43.6 L29.95 -42.8 30.0 -42.75 31.95 -41.95 32.9 -41.5 Q33.8 -40.9 34.1 -39.7 34.35 -38.5 33.8 -37.45 33.2 -36.4 32.15 -36.1 L30.35 -36.25 30.15 -36.3 28.15 -37.15 28.2 -37.15 26.15 -37.9 Q18.45 -40.5 9.6 -40.5 -1.75 -40.5 -11.2 -36.2" fill="#ffffff" fill-opacity="0.5019608" fill-rule="evenodd" stroke="none"/>
  </g>
</svg>
