<?xml version="1.0" encoding="UTF-8" standalone="no"?>
<svg xmlns:xlink="http://www.w3.org/1999/xlink" height="104.35px" width="178.6px" xmlns="http://www.w3.org/2000/svg">
  <g transform="matrix(1.0, 0.0, 0.0, 1.0, 96.9, 28.5)">
    <path d="M-96.9 -0.45 Q-91.2 -4.05 -84.7 -7.4 -37.75 -31.65 21.0 -28.05 55.15 -25.95 81.7 -15.15 81.15 -6.1 79.8 3.4 77.3 20.8 72.3 36.3 67.85 50.15 63.15 57.65 59.05 64.15 41.35 68.95 25.35 73.25 3.25 74.95 -18.3 76.65 -36.15 75.15 -55.25 73.55 -62.05 68.9 -69.3 63.85 -77.3 50.55 -85.6 36.75 -91.45 19.3 -94.85 9.2 -96.9 -0.45" fill="#70381f" fill-rule="evenodd" stroke="none"/>
  </g>
</svg>
