<?xml version="1.0" encoding="UTF-8" standalone="no"?>
<svg xmlns:xlink="http://www.w3.org/1999/xlink" height="6.9px" width="81.95px" xmlns="http://www.w3.org/2000/svg">
  <g transform="matrix(1.0, 0.0, 0.0, 1.0, 34.65, 2.9)">
    <path d="M-27.4 0.55 Q-27.4 2.0 -28.45 3.0 -29.5 4.0 -31.0 4.0 -32.5 4.0 -33.6 3.0 -34.65 2.0 -34.65 0.55 -34.65 -0.9 -33.6 -1.9 -32.5 -2.9 -31.0 -2.9 -29.5 -2.9 -28.45 -1.9 -27.4 -0.9 -27.4 0.55" fill="#000000" fill-rule="evenodd" stroke="none"/>
    <path d="M-31.65 -0.8 Q-31.65 -0.35 -31.95 -0.1 -32.25 0.2 -32.7 0.2 L-33.45 -0.1 -33.75 -0.8 -33.45 -1.5 -32.7 -1.8 Q-32.25 -1.8 -31.95 -1.5 -31.65 -1.2 -31.65 -0.8" fill="#ffffff" fill-rule="evenodd" stroke="none"/>
    <path d="M47.3 0.55 Q47.3 1.9 46.45 2.8 45.6 3.7 44.4 3.7 43.25 3.7 42.4 2.8 41.55 1.9 41.55 0.55 41.55 -0.75 42.4 -1.65 43.25 -2.6 44.4 -2.6 45.6 -2.6 46.45 -1.65 47.3 -0.75 47.3 0.55" fill="#000000" fill-rule="evenodd" stroke="none"/>
    <path d="M43.9 -0.65 L43.65 0.0 43.05 0.25 Q42.7 0.25 42.45 0.0 L42.25 -0.65 42.45 -1.3 Q42.7 -1.55 43.05 -1.55 L43.65 -1.3 43.9 -0.65" fill="#ffffff" fill-rule="evenodd" stroke="none"/>
  </g>
</svg>
