<?xml version="1.0" encoding="UTF-8" standalone="no"?>
<svg xmlns:xlink="http://www.w3.org/1999/xlink" height="72.2px" width="70.1px" xmlns="http://www.w3.org/2000/svg">
  <g transform="matrix(1.0, 0.0, 0.0, 1.0, 35.05, 38.05)">
    <path d="M-35.05 3.35 L35.05 3.35 26.5 32.75 -26.55 32.75 -35.05 3.35" fill="#000000" fill-opacity="0.3019608" fill-rule="evenodd" stroke="none"/>
    <path d="M-26.45 -35.7 L26.55 -35.7 26.55 32.65 -26.45 32.65 -26.45 -35.7" fill="#432e16" fill-rule="evenodd" stroke="none"/>
    <path d="M-26.45 -35.7 L26.55 -35.7 26.55 32.65 -26.45 32.65 -26.45 -35.7 Z" fill="none" stroke="#432e16" stroke-linecap="round" stroke-linejoin="round" stroke-width="3.0"/>
    <path d="M-26.55 -35.7 L26.45 -35.7 26.45 32.65 -26.55 32.65 -26.55 -35.7" fill="#ffcc33" fill-rule="evenodd" stroke="none"/>
    <path d="M23.35 32.65 L-23.6 32.65 -23.6 -4.95 23.35 -4.95 23.35 32.65" fill="#a26f35" fill-rule="evenodd" stroke="none"/>
    <path d="M-7.65 32.6 L-10.0 11.0 9.4 11.0 7.05 32.6 -7.65 32.6" fill="#ffcc33" fill-rule="evenodd" stroke="none"/>
    <path d="M5.25 32.6 L-5.75 32.6 -7.4 13.25 6.9 13.25 5.25 32.6" fill="#593d1e" fill-rule="evenodd" stroke="none"/>
    <path d="M13.1 13.05 L19.95 13.05 19.95 21.75 13.1 21.75 13.1 13.05" fill="#ffcc33" fill-rule="evenodd" stroke="none"/>
    <path d="M13.1 13.05 L13.1 21.75 19.95 21.75 19.95 13.05 13.1 13.05 Z" fill="none" stroke="#ffcc33" stroke-linecap="round" stroke-linejoin="miter" stroke-miterlimit="3.0" stroke-width="3.0"/>
    <path d="M19.8 21.45 L13.2 21.45 13.2 13.25 19.8 13.25 19.8 21.45" fill="#b4f0ff" fill-rule="evenodd" stroke="none"/>
    <path d="M-20.55 13.05 L-13.0 13.05 -13.0 21.75 -20.55 21.75 -20.55 13.05" fill="#ffcc33" fill-rule="evenodd" stroke="none"/>
    <path d="M-20.55 13.05 L-20.55 21.75 -13.0 21.75 -13.0 13.05 -20.55 13.05 Z" fill="none" stroke="#ffcc33" stroke-linecap="round" stroke-linejoin="miter" stroke-miterlimit="3.0" stroke-width="3.0"/>
    <path d="M-13.25 21.45 L-20.45 21.45 -20.45 13.25 -13.25 13.25 -13.25 21.45" fill="#b4f0ff" fill-rule="evenodd" stroke="none"/>
    <path d="M-3.65 21.5 L-4.5 15.7 4.0 15.7 3.15 21.5 -3.65 21.5" fill="#b4f0ff" fill-rule="evenodd" stroke="none"/>
    <path d="M26.5 17.45 L-26.6 17.45 -26.6 3.45 26.5 3.45 26.5 17.45" fill="#000000" fill-opacity="0.3019608" fill-rule="evenodd" stroke="none"/>
    <path d="M-5.25 24.85 L-5.55 24.0 Q-5.55 23.5 -5.25 23.15 -4.95 22.8 -4.55 22.8 -4.15 22.8 -3.85 23.15 -3.6 23.5 -3.6 24.0 L-3.85 24.85 Q-4.15 25.2 -4.55 25.2 -4.95 25.2 -5.25 24.85" fill="#c2c2c2" fill-rule="evenodd" stroke="none"/>
    <path d="M30.8 10.6 L-30.9 10.6 -30.9 -36.55 30.8 -36.55 30.8 10.6" fill="#432e16" fill-rule="evenodd" stroke="none"/>
    <path d="M30.8 10.6 L-30.9 10.6 -30.9 -36.55 30.8 -36.55 30.8 10.6 Z" fill="none" stroke="#432e16" stroke-linecap="round" stroke-linejoin="round" stroke-width="3.0"/>
    <path d="M30.8 10.6 L-30.9 10.6 -30.9 -36.55 30.8 -36.55 30.8 10.6" fill="#ffcc33" fill-rule="evenodd" stroke="none"/>
    <path d="M23.9 10.6 L-24.2 10.6 -24.2 -36.55 23.9 -36.55 23.9 10.6" fill="#a26f35" fill-rule="evenodd" stroke="none"/>
    <path d="M7.35 -36.55 L9.55 -36.55 10.45 -36.55 11.65 -36.55 12.3 -36.55 16.5 -36.55 16.55 -36.55 16.85 -36.55 17.25 -36.55 17.45 -36.55 17.45 10.65 -17.75 10.65 -17.75 -36.55 -12.65 -36.55 -11.95 -36.55 -10.85 -36.55 -9.85 -36.55 -7.75 -36.55 -7.05 -36.55 -4.25 -36.55 -3.3 -36.55 -3.1 -36.55 -2.4 -36.55 1.8 -36.55 2.5 -36.55 2.65 -36.55 3.65 -36.55 6.7 -36.55 7.35 -36.55" fill="#ffcc33" fill-rule="evenodd" stroke="none"/>
    <path d="M9.55 -36.55 L9.7 -36.55 9.85 -36.55 10.1 -36.55 10.45 -36.55 10.45 10.65 -10.85 10.65 -10.85 -36.55 -7.5 -36.55 -7.15 -36.55 -4.65 -36.55 -4.25 -36.55 -4.2 -36.55 -3.3 -36.55 -1.85 -36.55 -1.5 -36.55 1.0 -36.55 1.4 -36.55 2.65 -36.55 3.65 -36.55 3.9 -36.55 4.25 -36.55 6.8 -36.55 7.2 -36.55 9.55 -36.55" fill="#a26f35" fill-rule="evenodd" stroke="none"/>
    <path d="M0.25 -36.55 L1.1 -36.55 1.25 -36.55 2.1 -36.55 2.25 -36.55 2.65 -36.55 3.1 -36.55 3.2 -36.55 3.25 -36.55 3.65 -36.55 3.65 10.65 -4.25 10.65 -4.25 -36.55 -2.85 -36.55 -2.65 -36.55 -1.8 -36.55 -1.7 -36.55 -0.9 -36.55 -0.75 -36.55 0.1 -36.55 0.25 -36.55" fill="#ffcc33" fill-rule="evenodd" stroke="none"/>
    <path d="M9.3 -10.8 Q14.8 -15.05 18.7 -16.6 L19.0 -16.7 19.35 -16.9 19.5 -17.25 19.55 -17.5 19.6 -18.55 19.6 -18.7 19.5 -18.8 Q16.15 -19.8 12.6 -19.65 L13.4 -20.25 13.75 -20.6 14.0 -20.8 14.15 -21.15 14.15 -21.5 13.55 -22.8 13.3 -22.9 13.15 -23.0 Q7.65 -23.2 3.0 -21.75 L3.75 -22.7 4.05 -23.05 4.4 -23.5 4.3 -24.0 3.9 -24.4 2.35 -25.7 Q2.05 -25.7 1.85 -25.85 L1.6 -25.8 Q-2.35 -24.9 -5.55 -23.45 -18.15 -17.9 -16.05 -9.5 L-15.25 -7.4 -13.85 -5.55 Q-12.65 -4.15 -10.65 -3.15 -7.15 -1.25 -1.65 -0.4 L0.45 1.25 0.65 1.25 0.85 1.25 1.0 1.15 1.15 1.1 4.65 -0.95 4.85 -1.05 4.75 -1.15 4.7 -1.25 1.85 -1.55 Q2.45 -5.45 9.3 -10.8" fill="#000000" fill-opacity="0.3019608" fill-rule="evenodd" stroke="none"/>
    <path d="M30.8 -21.85 L-30.9 -21.85 -30.9 -36.5 30.8 -36.5 30.8 -21.85" fill="#000000" fill-opacity="0.3019608" fill-rule="evenodd" stroke="none"/>
  </g>
</svg>
