<?xml version="1.0" encoding="UTF-8" standalone="no"?>
<svg xmlns:xlink="http://www.w3.org/1999/xlink" height="105.8px" width="109.05px" xmlns="http://www.w3.org/2000/svg">
  <g transform="matrix(1.0, 0.0, 0.0, 1.0, 263.75, -186.6)">
    <path d="M-191.55 219.0 L-191.45 218.8 Q-190.1 215.55 -191.35 212.6 -192.55 209.6 -195.6 208.6 L-199.7 208.4 Q-199.65 206.05 -200.65 203.65 -201.7 200.9 -203.7 199.3 L-205.6 198.15 Q-206.7 197.65 -207.85 197.45 -208.6 195.75 -209.95 194.65 -210.9 193.9 -212.05 193.45 -215.15 192.25 -218.2 193.8 -221.3 195.35 -222.55 198.75 -223.15 200.35 -223.15 202.05 L-222.8 202.1 Q-220.85 202.75 -220.45 204.5 -220.3 204.7 -220.3 205.0 L-219.8 203.85 Q-218.0 199.85 -214.3 198.6 -210.55 197.25 -207.2 199.35 -203.7 201.45 -202.55 205.75 -201.4 210.05 -203.25 214.0 L-204.25 215.8 Q-203.65 216.05 -203.1 216.55 -202.0 214.9 -200.2 214.3 -197.75 213.4 -195.35 214.95 -193.4 216.25 -192.5 218.65 L-191.8 218.9 -191.55 219.0 -191.8 218.9 -192.5 218.65 -192.25 219.5 Q-191.45 222.5 -192.6 225.3 L-193.15 226.35 Q-191.05 228.25 -190.2 231.45 L-190.15 231.65 Q-188.65 230.35 -187.9 228.4 -186.85 225.5 -188.0 222.7 -189.1 220.05 -191.55 219.0 M-230.65 204.8 Q-231.7 202.3 -234.5 201.5 -237.3 200.75 -240.25 202.25 -243.15 203.7 -244.5 206.55 L-244.65 206.9 -243.2 207.15 Q-241.85 207.6 -241.45 208.55 -240.4 209.5 -240.0 210.9 -239.65 212.35 -240.05 213.8 -239.45 214.0 -238.9 214.55 L-238.1 215.55 Q-236.65 215.3 -235.15 214.6 -232.2 213.15 -230.85 210.3 L-230.75 209.85 -231.55 208.45 Q-232.0 206.7 -230.7 204.9 L-230.65 204.8 M-247.15 207.2 Q-249.75 206.85 -252.3 208.15 L-253.95 209.2 Q-256.3 210.95 -257.5 214.05 -259.0 218.0 -257.45 221.9 L-257.05 222.75 -255.8 221.9 Q-254.55 220.75 -252.85 220.3 -250.55 219.65 -248.6 220.65 L-248.6 219.6 -250.6 219.1 Q-253.1 218.15 -253.75 215.75 -254.35 213.3 -252.8 210.9 -251.25 208.55 -248.4 207.5 L-247.15 207.2 M-258.15 223.95 Q-259.3 223.9 -260.4 224.5 -262.6 225.6 -263.4 228.2 -264.2 230.85 -263.15 233.5 -262.05 236.1 -259.75 237.15 L-258.95 237.5 -259.3 238.65 Q-259.75 240.8 -258.8 243.15 -257.9 245.4 -256.15 246.45 L-255.2 246.9 Q-255.75 244.5 -254.65 242.2 L-254.7 242.25 Q-257.6 240.8 -258.45 237.65 L-258.6 236.85 Q-259.0 234.15 -257.55 231.55 L-257.35 231.2 Q-258.9 230.3 -259.35 228.65 -259.95 226.5 -258.45 224.3 L-258.15 223.95 M-247.5 251.35 Q-248.75 252.35 -249.3 254.2 -250.0 256.55 -249.05 258.95 -248.1 261.35 -246.0 262.3 L-244.5 262.75 Q-244.9 260.45 -243.35 258.15 -241.85 255.95 -239.3 254.85 L-239.6 254.2 Q-240.55 251.8 -242.6 250.8 -244.3 250.0 -245.95 250.5 -246.65 251.05 -247.5 251.35 M-241.9 266.3 L-241.6 267.25 Q-240.35 270.4 -237.6 271.65 -234.95 272.9 -232.35 271.65 -229.95 270.4 -228.95 267.6 -231.15 266.6 -231.8 264.65 -233.25 265.85 -235.25 266.6 -238.4 267.75 -241.05 266.7 L-241.9 266.3 M-227.15 268.1 Q-225.95 269.45 -223.85 270.05 -220.75 270.95 -217.5 269.35 -214.35 267.75 -212.95 264.65 -211.9 266.8 -209.7 267.6 L-205.05 267.4 Q-202.65 266.15 -201.7 263.6 -200.85 261.15 -201.6 258.85 -199.3 259.25 -196.9 258.1 -194.05 256.7 -192.8 253.9 -191.55 251.15 -192.6 248.65 -193.6 246.05 -196.3 245.3 L-197.5 245.0 -198.65 245.55 -198.05 247.05 Q-197.55 248.8 -198.3 250.45 -198.9 252.1 -200.4 252.6 L-200.85 252.75 Q-201.05 254.75 -202.0 256.7 L-202.4 257.4 Q-204.3 260.75 -207.85 261.95 -210.1 262.8 -212.2 262.45 -213.75 262.2 -215.25 261.4 L-216.95 260.25 Q-216.8 262.1 -218.1 264.0 -219.85 266.45 -222.9 267.55 -225.15 268.35 -227.15 268.1 M-197.4 245.0 Q-195.5 245.0 -193.6 244.05 -190.95 242.7 -189.65 240.25 -188.35 237.8 -189.25 235.65 -189.45 235.1 -189.8 234.65 -189.8 236.7 -190.55 238.65 -191.95 242.1 -194.85 243.15 L-195.9 243.4 -197.4 245.0 M-220.85 207.4 L-221.05 207.7 -220.9 207.7 -220.85 207.4 M-258.95 237.5 L-258.6 236.85 -258.95 237.5 M-212.95 264.65 L-212.9 264.55 -212.2 262.45 -212.9 264.55 -212.95 264.65 M-202.4 257.4 L-201.75 258.6 -201.6 258.85 -201.75 258.6 -202.4 257.4" fill="#696565" fill-rule="evenodd" stroke="none"/>
    <path d="M-223.15 202.05 L-227.1 202.25 Q-229.4 203.05 -230.65 204.8 L-230.7 204.9 Q-232.0 206.7 -231.55 208.45 L-230.75 209.85 -230.3 210.25 -231.45 211.8 Q-233.25 214.45 -232.6 217.1 -231.35 217.35 -230.25 218.05 -228.8 218.95 -227.95 220.3 L-227.55 220.25 Q-224.65 219.45 -222.15 220.8 L-220.85 220.1 -221.35 218.35 Q-221.6 216.5 -221.2 214.85 L-222.75 215.4 -226.65 215.5 Q-228.4 215.0 -228.65 213.75 -228.85 212.5 -227.45 211.2 -226.1 209.85 -223.9 209.35 L-220.05 209.25 Q-218.65 209.65 -218.25 210.55 L-217.35 210.0 Q-217.25 208.2 -216.2 206.55 -214.7 204.0 -212.1 203.3 -209.4 202.65 -207.1 204.1 -204.85 205.7 -204.35 208.55 -203.8 211.45 -205.3 214.0 -206.3 215.65 -207.9 216.55 -207.9 217.15 -208.05 217.75 L-208.3 218.75 -207.55 218.55 -206.95 218.4 Q-205.55 218.2 -204.25 219.0 L-203.05 219.95 Q-201.6 221.3 -200.85 223.3 -201.1 221.4 -200.3 219.8 L-200.25 219.75 Q-199.4 218.0 -197.8 217.6 -196.2 217.15 -194.75 218.35 -193.3 219.5 -192.95 221.65 -192.55 223.7 -193.45 225.5 -194.3 227.3 -195.95 227.7 -197.3 228.05 -198.55 227.25 L-199.0 226.95 -200.35 225.15 -200.25 225.45 Q-199.65 228.85 -200.85 231.75 L-201.55 233.1 -201.1 232.95 -200.1 232.8 Q-198.6 232.75 -197.3 233.9 -195.5 235.4 -195.0 238.0 -194.5 240.6 -195.65 242.8 L-195.9 243.4 -194.85 243.15 Q-191.95 242.1 -190.55 238.65 -189.8 236.7 -189.8 234.65 -189.75 233.15 -190.15 231.65 L-190.2 231.45 Q-191.05 228.25 -193.15 226.35 L-192.6 225.3 Q-191.45 222.5 -192.25 219.5 L-192.5 218.65 Q-193.4 216.25 -195.35 214.95 -197.75 213.4 -200.2 214.3 -202.0 214.9 -203.1 216.55 -203.65 216.05 -204.25 215.8 L-203.25 214.0 Q-201.4 210.05 -202.55 205.75 -203.7 201.45 -207.2 199.35 -210.55 197.25 -214.3 198.6 -218.0 199.85 -219.8 203.85 L-220.3 205.0 Q-220.3 204.7 -220.45 204.5 -220.85 202.75 -222.8 202.1 L-223.15 202.05 M-247.05 207.15 L-247.15 207.2 -248.4 207.5 Q-251.25 208.55 -252.8 210.9 -254.35 213.3 -253.75 215.75 -253.1 218.15 -250.6 219.1 L-248.6 219.6 Q-248.4 217.95 -247.85 216.55 -247.1 214.75 -246.0 213.8 L-249.5 213.7 Q-251.15 213.1 -251.4 211.75 -251.65 210.4 -250.3 209.0 -249.05 207.65 -247.05 207.15 M-257.05 222.75 L-258.15 223.95 -258.45 224.3 Q-259.95 226.5 -259.35 228.65 -258.9 230.3 -257.35 231.2 L-257.55 231.55 Q-259.0 234.15 -258.6 236.85 L-258.45 237.65 Q-257.6 240.8 -254.7 242.25 L-254.65 242.2 Q-255.75 244.5 -255.2 246.9 L-255.15 247.2 Q-254.45 249.8 -252.2 251.0 -250.0 252.2 -247.55 251.35 L-247.5 251.35 Q-246.65 251.05 -245.95 250.5 -244.65 249.6 -243.8 248.05 -242.6 245.75 -243.15 243.35 L-243.75 243.65 Q-243.65 245.35 -244.3 246.9 -245.2 249.0 -247.0 249.45 -248.75 249.9 -250.3 248.45 -251.85 247.0 -252.3 244.45 -252.75 241.95 -251.9 239.85 -251.45 238.85 -250.85 238.3 -252.0 238.25 -253.1 237.4 -254.7 236.05 -255.15 233.75 -255.45 231.85 -254.9 230.25 L-255.35 230.05 Q-257.3 228.95 -257.7 226.9 -258.1 224.75 -256.65 222.85 L-255.8 221.9 -257.05 222.75 M-244.5 262.75 L-244.4 263.2 Q-243.85 265.25 -241.9 266.3 L-241.05 266.7 Q-238.4 267.75 -235.25 266.6 -233.25 265.85 -231.8 264.65 -231.15 266.6 -228.95 267.6 L-228.65 267.65 -227.15 268.1 Q-225.15 268.35 -222.9 267.55 -219.85 266.45 -218.1 264.0 -216.8 262.1 -216.95 260.25 L-215.25 261.4 Q-213.75 262.2 -212.2 262.45 -210.1 262.8 -207.85 261.95 -204.3 260.75 -202.4 257.4 L-202.0 256.7 Q-201.05 254.75 -200.85 252.75 L-200.4 252.6 Q-198.9 252.1 -198.3 250.45 -197.55 248.8 -198.05 247.05 L-198.65 245.55 -198.8 245.65 Q-200.85 246.15 -202.6 244.65 L-203.15 244.1 -203.6 244.35 Q-204.55 243.3 -205.85 242.65 L-206.25 242.35 Q-206.3 243.3 -206.9 244.25 L-207.25 244.75 Q-204.4 246.6 -203.75 250.1 -203.15 253.6 -205.05 256.7 -206.95 259.8 -210.35 260.7 -213.7 261.55 -216.55 259.7 -218.2 258.65 -219.05 257.1 -219.7 256.05 -219.95 254.85 -220.7 253.65 -220.8 252.15 -221.0 249.3 -219.25 247.0 L-219.2 246.9 -220.8 245.65 Q-223.35 244.3 -226.2 245.3 L-228.55 246.6 Q-228.1 246.75 -227.8 246.95 -226.85 247.45 -226.25 248.25 L-223.75 248.4 Q-222.35 248.9 -222.2 250.1 -221.95 251.2 -223.05 252.3 -223.95 253.3 -225.45 253.8 L-225.45 253.85 Q-223.5 253.65 -221.85 254.45 -221.55 254.55 -221.35 254.75 L-220.15 255.7 Q-219.5 256.45 -219.3 257.4 L-219.15 257.8 Q-218.8 260.05 -220.4 262.15 -222.1 264.25 -224.9 265.0 -227.65 265.7 -229.9 264.6 -232.15 263.6 -232.6 261.3 -232.85 259.9 -232.25 258.5 -233.85 258.5 -235.3 257.75 -237.3 256.5 -237.85 254.3 L-238.5 254.5 -239.3 254.85 Q-241.85 255.95 -243.35 258.15 -244.9 260.45 -244.5 262.75 M-241.45 208.55 L-241.25 209.1 Q-241.0 210.45 -242.3 211.85 L-243.35 212.7 Q-241.85 212.6 -240.5 213.6 L-240.05 213.8 Q-239.65 212.35 -240.0 210.9 -240.4 209.5 -241.45 208.55 M-246.45 231.6 L-246.35 232.3 -245.5 232.2 -245.55 232.0 -245.55 231.75 -246.45 231.6 M-228.7 206.45 Q-228.9 205.5 -227.95 204.6 -227.0 203.65 -225.45 203.2 -223.95 202.8 -222.7 203.2 -221.5 203.55 -221.35 204.55 -221.15 205.45 -222.1 206.45 -223.05 207.35 -224.65 207.8 -226.2 208.2 -227.35 207.8 -228.5 207.4 -228.7 206.45 M-220.85 207.4 L-220.9 207.7 -221.05 207.7 -220.85 207.4 M-211.7 230.6 Q-210.65 232.75 -208.9 234.15 -206.75 235.8 -204.55 235.65 L-204.45 236.1 -204.3 235.7 -204.15 235.6 -203.9 235.1 -204.5 235.3 -204.6 235.35 Q-206.9 235.85 -209.0 233.9 -211.2 231.85 -211.8 228.45 -212.2 226.1 -211.85 224.1 L-213.25 224.95 -213.1 226.25 Q-211.9 227.8 -211.75 230.0 L-211.7 230.6 M-212.9 241.9 L-213.2 242.05 Q-216.45 243.1 -218.3 246.0 -216.95 244.8 -215.15 244.4 -214.4 243.95 -213.5 243.75 L-212.9 243.65 -212.95 243.3 Q-213.1 242.55 -212.9 241.9" fill="#95847e" fill-rule="evenodd" stroke="none"/>
    <path d="M-244.65 206.9 L-246.95 207.1 -247.05 207.15 Q-249.05 207.65 -250.3 209.0 -251.65 210.4 -251.4 211.75 -251.15 213.1 -249.5 213.7 L-246.0 213.8 Q-247.1 214.75 -247.85 216.55 -248.4 217.95 -248.6 219.6 L-248.6 220.65 Q-250.55 219.65 -252.85 220.3 -254.55 220.75 -255.8 221.9 L-256.65 222.85 Q-258.1 224.75 -257.7 226.9 -257.3 228.95 -255.35 230.05 L-254.9 230.25 Q-255.45 231.85 -255.15 233.75 -254.7 236.05 -253.1 237.4 -252.0 238.25 -250.85 238.3 -251.45 238.85 -251.9 239.85 -252.75 241.95 -252.3 244.45 -251.85 247.0 -250.3 248.45 -248.75 249.9 -247.0 249.45 -245.2 249.0 -244.3 246.9 -243.65 245.35 -243.75 243.65 L-243.15 243.35 Q-242.1 242.65 -241.4 241.35 -240.55 239.6 -240.75 237.65 L-241.6 236.5 -242.8 236.1 -243.7 235.55 Q-245.25 234.25 -245.5 232.2 L-246.35 232.3 -246.45 231.6 Q-247.45 231.25 -248.35 230.5 -250.15 229.0 -250.35 226.5 -250.6 224.0 -249.1 221.95 L-248.55 221.4 Q-247.2 219.9 -245.3 219.6 L-245.15 219.55 -245.2 219.1 -245.25 218.9 Q-245.4 216.9 -244.35 215.4 -243.35 213.85 -241.75 213.6 L-240.5 213.6 Q-241.85 212.6 -243.35 212.7 L-242.3 211.85 Q-241.0 210.45 -241.25 209.1 L-241.45 208.55 Q-241.85 207.6 -243.2 207.15 L-244.65 206.9 M-197.5 245.0 L-197.4 245.0 -195.9 243.4 -195.65 242.8 Q-194.5 240.6 -195.0 238.0 -195.5 235.4 -197.3 233.9 -198.6 232.75 -200.1 232.8 L-201.1 232.95 -201.55 233.1 -200.85 231.75 Q-199.65 228.85 -200.25 225.45 L-200.35 225.15 -199.0 226.95 -198.55 227.25 Q-197.3 228.05 -195.95 227.7 -194.3 227.3 -193.45 225.5 -192.55 223.7 -192.95 221.65 -193.3 219.5 -194.75 218.35 -196.2 217.15 -197.8 217.6 -199.4 218.0 -200.25 219.75 L-200.3 219.8 Q-201.1 221.4 -200.85 223.3 -201.6 221.3 -203.05 219.95 L-204.25 219.0 Q-205.55 218.2 -206.95 218.4 L-207.55 218.55 -208.3 218.75 -208.05 217.75 Q-207.9 217.15 -207.9 216.55 -206.3 215.65 -205.3 214.0 -203.8 211.45 -204.35 208.55 -204.85 205.7 -207.1 204.1 -209.4 202.65 -212.1 203.3 -214.7 204.0 -216.2 206.55 -217.25 208.2 -217.35 210.0 L-218.25 210.55 Q-218.65 209.65 -220.05 209.25 L-223.9 209.35 Q-226.1 209.85 -227.45 211.2 -228.85 212.5 -228.65 213.75 -228.4 215.0 -226.65 215.5 L-222.75 215.4 -221.2 214.85 Q-221.6 216.5 -221.35 218.35 L-220.85 220.1 -219.55 221.95 -219.85 220.6 Q-220.0 218.3 -218.65 216.45 -217.35 214.65 -215.3 214.35 -213.2 214.0 -211.6 215.4 -210.05 216.8 -209.85 219.0 -209.65 221.3 -210.95 223.1 L-211.85 224.1 Q-212.2 226.1 -211.8 228.45 -211.2 231.85 -209.0 233.9 -206.9 235.85 -204.6 235.35 L-204.5 235.3 -203.9 235.1 -204.15 235.6 -204.3 235.7 -204.45 236.1 Q-205.3 238.15 -204.85 240.55 -204.45 242.7 -203.15 244.1 L-202.6 244.65 Q-200.85 246.15 -198.8 245.65 L-198.65 245.55 -197.5 245.0 M-228.7 206.45 Q-228.5 207.4 -227.35 207.8 -226.2 208.2 -224.65 207.8 -223.05 207.35 -222.1 206.45 -221.15 205.45 -221.35 204.55 -221.5 203.55 -222.7 203.2 -223.95 202.8 -225.45 203.2 -227.0 203.65 -227.95 204.6 -228.9 205.5 -228.7 206.45 M-237.4 217.65 L-237.45 217.7 -237.45 217.75 -237.6 219.65 -237.0 219.15 Q-235.75 218.35 -234.3 218.15 -231.55 217.7 -229.4 219.4 -227.3 221.2 -227.05 224.05 -226.8 226.9 -228.55 229.2 -229.9 230.95 -231.8 231.65 L-231.6 232.65 Q-231.45 234.65 -232.5 236.3 -230.55 236.2 -229.05 237.45 -227.35 238.7 -227.05 240.85 L-223.7 240.7 Q-221.6 240.15 -220.05 238.65 -221.95 238.45 -223.55 237.15 -225.85 235.3 -226.1 232.2 -226.4 229.1 -224.45 226.55 -222.55 224.05 -219.6 223.6 L-218.95 223.55 Q-219.75 222.45 -220.9 221.65 L-222.15 220.8 Q-224.65 219.45 -227.55 220.25 L-227.95 220.3 Q-228.8 218.95 -230.25 218.05 -231.35 217.35 -232.6 217.1 L-236.3 217.25 -237.4 217.65 M-229.2 246.35 Q-230.5 247.45 -232.25 247.75 L-235.05 247.45 -236.8 249.3 Q-238.35 251.5 -237.9 253.95 L-237.85 254.3 Q-237.3 256.5 -235.3 257.75 -233.85 258.5 -232.25 258.5 -232.85 259.9 -232.6 261.3 -232.15 263.6 -229.9 264.6 -227.65 265.7 -224.9 265.0 -222.1 264.25 -220.4 262.15 -218.8 260.05 -219.15 257.8 L-219.3 257.4 Q-219.5 256.45 -220.15 255.7 L-221.35 254.75 Q-221.55 254.55 -221.85 254.45 -223.5 253.65 -225.45 253.85 L-225.45 253.8 Q-223.95 253.3 -223.05 252.3 -221.95 251.2 -222.2 250.1 -222.35 248.9 -223.75 248.4 L-226.25 248.25 Q-226.85 247.45 -227.8 246.95 -228.1 246.75 -228.55 246.6 L-229.2 246.35 M-248.2 235.8 Q-247.65 234.65 -246.65 234.5 -245.75 234.3 -244.9 235.3 -244.15 236.3 -244.05 237.85 L-244.0 238.85 Q-244.1 239.75 -244.5 240.55 L-244.45 240.6 Q-245.05 241.8 -246.05 241.95 -247.05 242.1 -247.8 241.1 -248.55 240.1 -248.7 238.6 -248.8 237.0 -248.2 235.8 M-206.25 242.35 L-206.35 241.55 Q-206.55 240.15 -207.75 239.45 -208.95 238.7 -210.3 239.05 -211.65 239.4 -212.45 240.7 L-212.9 241.9 Q-213.1 242.55 -212.95 243.3 L-212.9 243.65 -213.5 243.75 Q-214.4 243.95 -215.15 244.4 L-214.75 244.3 Q-211.95 243.9 -209.85 245.6 -207.75 247.25 -207.55 250.1 -207.3 252.85 -209.05 255.1 -210.8 257.4 -213.6 257.85 -216.35 258.25 -218.45 256.55 L-219.95 254.85 Q-219.7 256.05 -219.05 257.1 -218.2 258.65 -216.55 259.7 -213.7 261.55 -210.35 260.7 -206.95 259.8 -205.05 256.7 -203.15 253.6 -203.75 250.1 -204.4 246.6 -207.25 244.75 L-206.9 244.25 Q-206.3 243.3 -206.25 242.35 M-199.95 222.9 Q-199.5 222.15 -198.8 222.05 -198.15 221.95 -197.65 222.55 -197.1 223.15 -197.05 224.1 -196.95 225.1 -197.35 225.9 -197.8 226.6 -198.45 226.7 -199.1 226.85 -199.65 226.25 -200.15 225.55 -200.25 224.65 -200.35 223.7 -199.95 222.9 M-209.3 223.25 Q-208.25 221.25 -206.5 221.0 -204.8 220.7 -203.35 222.3 -202.0 223.95 -201.75 226.4 -201.6 229.0 -202.65 230.95 -203.75 232.95 -205.5 233.2 -207.2 233.5 -208.55 231.85 -209.95 230.3 -210.2 227.75 -210.4 225.25 -209.3 223.25 M-212.25 241.05 Q-211.9 240.55 -211.3 240.5 -210.75 240.35 -210.3 240.75 -209.85 241.1 -209.85 241.7 -209.8 242.3 -210.15 242.75 L-211.05 243.3 -212.1 243.05 Q-212.55 242.7 -212.55 242.1 -212.65 241.5 -212.25 241.05" fill="#a8a491" fill-rule="evenodd" stroke="none"/>
    <path d="M-240.05 213.8 L-240.5 213.6 -241.75 213.6 Q-243.35 213.85 -244.35 215.4 -245.4 216.9 -245.25 218.9 L-245.2 219.1 -245.15 219.55 -245.3 219.6 Q-247.2 219.9 -248.55 221.4 L-249.1 221.95 Q-250.6 224.0 -250.35 226.5 -250.15 229.0 -248.35 230.5 -247.45 231.25 -246.45 231.6 L-245.55 231.75 -245.55 232.0 -245.5 232.2 Q-245.25 234.25 -243.7 235.55 L-242.8 236.1 -241.6 236.5 -240.75 237.65 -240.35 237.95 Q-239.05 239.1 -237.4 239.1 -238.55 240.85 -238.4 242.95 -238.2 245.3 -236.4 246.7 L-235.05 247.45 -232.25 247.75 Q-230.5 247.45 -229.2 246.35 L-228.35 245.45 Q-226.9 243.55 -227.05 241.2 L-227.05 240.85 Q-227.35 238.7 -229.05 237.45 -230.55 236.2 -232.5 236.3 -231.45 234.65 -231.6 232.65 L-231.8 231.65 Q-229.9 230.95 -228.55 229.2 -226.8 226.9 -227.05 224.05 -227.3 221.2 -229.4 219.4 -231.55 217.7 -234.3 218.15 -235.75 218.35 -237.0 219.15 L-237.6 219.65 -237.45 217.75 -237.45 217.7 -237.4 217.65 Q-237.55 216.45 -238.1 215.55 L-238.9 214.55 Q-239.45 214.0 -240.05 213.8 M-211.85 224.1 L-210.95 223.1 Q-209.65 221.3 -209.85 219.0 -210.05 216.8 -211.6 215.4 -213.2 214.0 -215.3 214.35 -217.35 214.65 -218.65 216.45 -220.0 218.3 -219.85 220.6 L-219.55 221.95 -218.65 223.5 -218.95 223.55 -219.6 223.6 Q-222.55 224.05 -224.45 226.55 -226.4 229.1 -226.1 232.2 -225.85 235.3 -223.55 237.15 -221.95 238.45 -220.05 238.65 L-218.25 238.55 Q-215.3 238.1 -213.4 235.6 -211.7 233.35 -211.7 230.6 L-211.75 230.0 Q-211.9 227.8 -213.1 226.25 -213.5 225.65 -214.05 225.2 L-213.25 224.95 -211.85 224.1 M-248.2 235.8 Q-248.8 237.0 -248.7 238.6 -248.55 240.1 -247.8 241.1 -247.05 242.1 -246.05 241.95 -245.05 241.8 -244.45 240.6 L-244.5 240.55 Q-244.1 239.75 -244.0 238.85 L-244.05 237.85 Q-244.15 236.3 -244.9 235.3 -245.75 234.3 -246.65 234.5 -247.65 234.65 -248.2 235.8 M-218.3 246.0 L-219.2 246.9 -219.25 247.0 Q-221.0 249.3 -220.8 252.15 -220.7 253.65 -219.95 254.85 L-218.45 256.55 Q-216.35 258.25 -213.6 257.85 -210.8 257.4 -209.05 255.1 -207.3 252.85 -207.55 250.1 -207.75 247.25 -209.85 245.6 -211.95 243.9 -214.75 244.3 L-215.15 244.4 Q-216.95 244.8 -218.3 246.0 M-209.3 223.25 Q-210.4 225.25 -210.2 227.75 -209.95 230.3 -208.55 231.85 -207.2 233.5 -205.5 233.2 -203.75 232.95 -202.65 230.95 -201.6 229.0 -201.75 226.4 -202.0 223.95 -203.35 222.3 -204.8 220.7 -206.5 221.0 -208.25 221.25 -209.3 223.25 M-199.95 222.9 Q-200.35 223.7 -200.25 224.65 -200.15 225.55 -199.65 226.25 -199.1 226.85 -198.45 226.7 -197.8 226.6 -197.35 225.9 -196.95 225.1 -197.05 224.1 -197.1 223.15 -197.65 222.55 -198.15 221.95 -198.8 222.05 -199.5 222.15 -199.95 222.9 M-212.25 241.05 Q-212.65 241.5 -212.55 242.1 -212.55 242.7 -212.1 243.05 L-211.05 243.3 -210.15 242.75 Q-209.8 242.3 -209.85 241.7 -209.85 241.1 -210.3 240.75 -210.75 240.35 -211.3 240.5 -211.9 240.55 -212.25 241.05" fill="#ffeea1" fill-rule="evenodd" stroke="none"/>
    <path d="M-258.95 237.5 L-259.3 238.65 Q-259.75 240.8 -258.8 243.15 -257.9 245.4 -256.15 246.45 L-255.2 246.9 M-247.5 251.35 Q-248.75 252.35 -249.3 254.2 -250.0 256.55 -249.05 258.95 -248.1 261.35 -246.0 262.3 L-244.5 262.75 M-241.9 266.3 L-241.6 267.25 Q-240.35 270.4 -237.6 271.65 -234.95 272.9 -232.35 271.65 -229.95 270.4 -228.95 267.6 M-227.15 268.1 Q-225.95 269.45 -223.85 270.05 -220.75 270.95 -217.5 269.35 -214.35 267.75 -212.95 264.65 -211.9 266.8 -209.7 267.6 L-205.05 267.4 Q-202.65 266.15 -201.7 263.6 -200.85 261.15 -201.6 258.85 -199.3 259.25 -196.9 258.1 -194.05 256.7 -192.8 253.9 -191.55 251.15 -192.6 248.65 -193.6 246.05 -196.3 245.3 L-197.5 245.0 M-197.4 245.0 Q-195.5 245.0 -193.6 244.05 -190.95 242.7 -189.65 240.25 -188.35 237.8 -189.25 235.65 -189.45 235.1 -189.8 234.65 M-190.15 231.65 Q-188.65 230.35 -187.9 228.4 -186.85 225.5 -188.0 222.7 -189.1 220.05 -191.55 219.0 L-191.8 218.9 -192.5 218.65 M-258.6 236.85 L-258.95 237.5 M-245.95 250.5 Q-244.3 250.0 -242.6 250.8 -240.55 251.8 -239.6 254.2 L-239.3 254.85 M-201.6 258.85 L-201.75 258.6 -202.4 257.4 M-212.2 262.45 L-212.9 264.55 -212.95 264.65" fill="none" stroke="#a80f06" stroke-linecap="round" stroke-linejoin="round" stroke-opacity="0.0" stroke-width="6.0"/>
    <path d="M-235.75 220.75 Q-206.95 227.95 -210.55 203.9 -199.05 220.25 -181.0 210.2 -192.8 230.9 -173.1 227.35 -192.45 242.9 -171.35 251.5 -192.25 249.9 -181.9 267.85 -203.4 254.95 -211.8 275.0 -209.3 255.4 -236.2 264.25 -209.85 247.6 -239.2 239.05 -217.5 237.4 -235.75 220.75 M-255.75 238.9 Q-212.0 251.65 -251.25 276.5 -211.2 263.25 -214.85 292.4 -202.45 262.5 -170.4 281.8 -185.8 255.05 -154.7 257.5 -186.1 244.7 -157.3 221.5 -186.6 226.85 -169.0 195.95 -195.9 211.0 -213.0 186.6 -207.7 222.35 -250.5 211.65 -223.4 236.5 -255.75 238.9" fill="#ffe843" fill-rule="evenodd" stroke="none"/>
  </g>
</svg>
