<?xml version="1.0" encoding="UTF-8" standalone="no"?>
<svg xmlns:xlink="http://www.w3.org/1999/xlink" height="101.55px" width="109.5px" xmlns="http://www.w3.org/2000/svg">
  <g transform="matrix(1.0, 0.0, 0.0, 1.0, 52.2, 50.75)">
    <path d="M39.75 -32.7 Q52.8 -19.15 52.8 0.0 52.8 19.2 39.75 32.7 26.7 46.3 8.25 46.3 -10.25 46.3 -23.3 32.7 L-23.35 32.65 Q-31.15 30.1 -37.45 23.7 -47.7 13.05 -47.7 -2.0 -47.7 -17.0 -37.45 -27.7 -28.85 -36.45 -17.35 -37.95 -6.2 -46.25 8.25 -46.25 26.7 -46.25 39.75 -32.7" fill="#1a1c23" fill-rule="evenodd" stroke="none"/>
    <path d="M39.75 -32.7 Q52.8 -19.15 52.8 0.0 52.8 19.2 39.75 32.7 26.7 46.3 8.25 46.3 -10.25 46.3 -23.3 32.7 L-23.35 32.65 Q-31.15 30.1 -37.45 23.7 -47.7 13.05 -47.7 -2.0 -47.7 -17.0 -37.45 -27.7 -28.85 -36.45 -17.35 -37.95 -6.2 -46.25 8.25 -46.25 26.7 -46.25 39.75 -32.7 Z" fill="none" stroke="#000000" stroke-linecap="round" stroke-linejoin="round" stroke-width="9.0"/>
    <path d="M39.75 32.75 Q26.7 46.3 8.25 46.3 -10.2 46.3 -23.3 32.75 -36.35 19.2 -36.35 0.0 -36.35 -19.15 -23.3 -32.7 -10.2 -46.3 8.25 -46.3 26.7 -46.3 39.75 -32.7 52.8 -19.15 52.8 0.0 52.8 19.2 39.75 32.75" fill="#1a1c23" fill-rule="evenodd" stroke="none"/>
    <path d="M-15.45 -39.35 L-9.85 -39.7 Q6.15 -39.7 17.4 -28.0 28.75 -16.35 28.75 0.2 28.75 16.7 17.4 28.35 6.15 40.0 -9.85 40.0 L-14.85 39.7 Q-19.35 36.85 -23.3 32.7 -36.4 19.2 -36.4 0.0 -36.4 -19.15 -23.3 -32.7 -19.6 -36.6 -15.45 -39.35" fill="#000000" fill-rule="evenodd" stroke="none"/>
    <path d="M32.6 -33.85 L33.2 -33.3 Q33.9 -32.7 34.05 -31.6 34.2 -30.45 33.7 -29.5 33.2 -28.6 32.35 -28.4 31.45 -28.2 30.75 -28.85 L30.4 -29.15 Q29.65 -29.75 29.45 -30.85 29.25 -31.9 29.7 -32.9 30.15 -33.85 31.0 -34.15 31.8 -34.4 32.6 -33.85 M-7.95 -33.2 L-9.6 -33.25 Q-10.4 -33.7 -10.7 -34.7 -11.05 -35.8 -10.7 -36.8 -10.35 -37.85 -9.55 -38.25 -1.45 -42.6 8.2 -42.6 15.7 -42.6 22.3 -39.95 L24.0 -39.25 24.05 -39.2 25.55 -38.45 26.3 -38.05 Q27.0 -37.5 27.2 -36.4 27.45 -35.3 27.0 -34.3 26.55 -33.35 25.7 -33.05 L24.3 -33.25 24.2 -33.3 22.6 -34.1 22.65 -34.1 21.05 -34.75 Q15.05 -37.1 8.2 -37.1 -0.6 -37.1 -7.95 -33.2" fill="#ffffff" fill-opacity="0.5019608" fill-rule="evenodd" stroke="none"/>
    <path d="M12.25 -27.65 Q22.55 -17.05 22.55 -2.0 22.55 13.05 12.25 23.65 1.95 34.3 -12.6 34.3 -27.15 34.3 -37.45 23.65 -47.7 13.05 -47.7 -2.0 -47.7 -17.05 -37.45 -27.65 -27.15 -38.3 -12.6 -38.3 1.95 -38.3 12.25 -27.65" fill="#1a1c23" fill-rule="evenodd" stroke="none"/>
    <path d="M-0.8 -17.8 Q5.4 -11.25 5.4 -1.9 5.4 7.4 -0.8 14.0 -7.0 20.55 -15.8 20.55 -24.55 20.55 -30.8 14.0 -36.95 7.4 -36.95 -1.9 -36.95 -11.25 -30.8 -17.8 -24.55 -24.4 -15.8 -24.4 -7.0 -24.4 -0.8 -17.8" fill="#000000" fill-rule="evenodd" stroke="none"/>
  </g>
</svg>
