<?xml version="1.0" encoding="UTF-8" standalone="no"?>
<svg xmlns:xlink="http://www.w3.org/1999/xlink" height="46.15px" width="44.9px" xmlns="http://www.w3.org/2000/svg">
  <g transform="matrix(1.0, 0.0, 0.0, 1.0, 23.3, 24.1)">
    <path d="M3.3 12.05 Q9.05 12.05 13.9 13.25 L15.6 7.1 Q17.95 -3.75 14.7 -11.4 11.55 -19.1 4.75 -19.1 -2.05 -19.1 -8.6 -11.4 -15.0 -3.75 -17.35 7.1 -18.5 12.5 -18.25 17.05 -8.25 12.05 3.3 12.05" fill="#8a1d00" fill-rule="evenodd" stroke="none"/>
    <path d="M3.3 12.05 Q-8.25 12.05 -18.25 17.05 -18.5 12.5 -17.35 7.1 -15.0 -3.75 -8.6 -11.4 -2.05 -19.1 4.75 -19.1 11.55 -19.1 14.7 -11.4 17.95 -3.75 15.6 7.1 L13.9 13.25 Q9.05 12.05 3.3 12.05 Z" fill="none" stroke="#a8620f" stroke-linecap="round" stroke-linejoin="round" stroke-width="10.0"/>
    <path d="M14.7 -11.4 Q17.95 -3.75 15.65 7.1 L13.95 13.25 Q9.15 12.05 3.4 12.05 -8.2 12.05 -18.2 17.05 -18.5 12.5 -17.35 7.1 -15.05 -3.75 -8.55 -11.4 -2.05 -19.1 4.8 -19.1 11.55 -19.1 14.7 -11.4" fill="#8a1d00" fill-rule="evenodd" stroke="none"/>
    <path d="M13.95 13.25 Q9.15 12.05 3.4 12.05 -8.2 12.05 -18.2 17.05 -18.45 13.15 -17.65 8.65 -1.4 8.4 14.85 10.45 L13.95 13.25" fill="#ffffff" fill-rule="evenodd" stroke="none"/>
    <path d="M-8.75 -10.4 Q-1.25 -9.05 2.15 -5.35 5.65 -1.55 4.2 4.2 2.9 9.0 -1.9 8.4 -7.95 6.75 -11.15 6.65 L-17.35 7.3 -17.35 7.1 Q-15.2 -3.1 -9.3 -10.5 L-8.75 -10.4" fill="#d74533" fill-rule="evenodd" stroke="none"/>
    <path d="M12.3 -15.6 L11.0 -12.25 Q8.8 -7.7 5.25 -7.65 1.7 -7.55 -1.1 -11.9 -2.55 -14.1 -3.4 -16.8 L-3.25 -16.35 Q0.7 -19.1 4.8 -19.1 9.35 -19.1 12.3 -15.6" fill="#ffcc33" fill-rule="evenodd" stroke="none"/>
    <path d="M-8.55 -11.4 Q-4.45 -16.25 -0.2 -18.05 -0.35 -13.1 -2.55 -9.3 -5.15 -4.7 -9.1 -4.55 -11.0 -4.5 -12.7 -5.45 -10.9 -8.65 -8.55 -11.4" fill="#ffffff" fill-rule="evenodd" stroke="none"/>
  </g>
</svg>
