<?xml version="1.0" encoding="UTF-8" standalone="no"?>
<svg xmlns:xlink="http://www.w3.org/1999/xlink" height="45.65px" width="50.4px" xmlns="http://www.w3.org/2000/svg">
  <g transform="matrix(1.0, 0.0, 0.0, 1.0, 25.2, 22.4)">
    <path d="M-12.95 -19.4 L16.95 -19.4 Q19.15 -19.4 20.7 -13.85 22.0 -9.2 22.2 -3.45 L11.15 -3.45 Q8.25 8.4 9.55 20.25 L-20.35 20.25 Q-24.0 11.2 -20.4 -4.45 -18.9 -10.75 -16.85 -15.05 -14.7 -19.4 -12.95 -19.4" fill="#aed02f" fill-rule="evenodd" stroke="none"/>
    <path d="M-12.95 -19.4 L16.95 -19.4 Q19.15 -19.4 20.7 -13.85 22.0 -9.2 22.2 -3.45 L11.15 -3.45 Q8.25 8.4 9.55 20.25 L-20.35 20.25 Q-24.0 11.2 -20.4 -4.45 -18.9 -10.75 -16.85 -15.05 -14.7 -19.4 -12.95 -19.4 Z" fill="none" stroke="#2c4808" stroke-linecap="round" stroke-linejoin="round" stroke-width="6.0"/>
    <path d="M-12.95 -19.4 L16.95 -19.4 Q19.15 -19.4 20.7 -13.85 22.0 -9.2 22.2 -3.45 L11.15 -3.45 Q8.25 8.4 9.55 20.25 L-20.35 20.25 Q-24.0 11.2 -20.4 -4.45 -18.9 -10.75 -16.85 -15.05 -14.7 -19.4 -12.95 -19.4" fill="#aed02f" fill-rule="evenodd" stroke="none"/>
    <path d="M16.95 -19.4 Q19.15 -19.4 20.7 -13.85 22.0 -9.2 22.2 -3.45 L11.15 -3.45 Q13.05 -11.4 16.95 -19.4" fill="#63981e" fill-rule="evenodd" stroke="none"/>
    <path d="M18.85 -14.5 Q19.9 -10.7 20.05 -5.95 L19.95 -5.55 19.65 -5.25 19.25 -5.15 11.6 -5.15 12.05 -6.75 18.4 -6.75 Q18.2 -10.75 17.25 -14.05 16.6 -16.35 15.95 -17.25 L16.7 -18.9 Q17.95 -17.75 18.85 -14.5" fill="#2c4808" fill-rule="evenodd" stroke="none"/>
    <path d="M8.9 -4.8 Q6.0 5.0 6.55 16.7 L6.45 17.25 6.05 17.6 5.55 17.75 -17.0 17.75 -17.55 17.6 -17.9 17.1 Q-21.2 8.7 -16.75 -7.2 -14.85 -13.85 -12.4 -18.4 L-11.85 -19.4 -9.5 -19.4 -9.2 -19.85 -10.65 -17.45 Q-13.05 -13.05 -14.85 -6.65 L-14.8 -6.65 Q-18.85 7.8 -16.3 15.75 L4.5 15.75 Q4.15 4.3 7.0 -5.35 L7.0 -5.4 Q9.3 -12.95 12.55 -19.4 L14.8 -19.4 Q11.3 -12.7 8.9 -4.8" fill="#63981e" fill-rule="evenodd" stroke="none"/>
    <path d="M16.6 -11.05 L17.95 -11.05 18.4 -6.75 14.55 -6.75 14.55 -9.0 Q14.55 -11.05 16.6 -11.05" fill="#2c4808" fill-rule="evenodd" stroke="none"/>
    <path d="M2.2 10.45 L4.5 10.45 4.5 15.75 0.15 15.75 0.15 12.5 Q0.15 10.45 2.2 10.45 M-15.2 10.45 Q-13.15 10.45 -13.15 12.5 L-13.15 15.75 -16.3 15.75 Q-17.05 13.4 -17.25 10.45 L-15.2 10.45" fill="#63981e" fill-rule="evenodd" stroke="none"/>
    <path d="M7.65 -10.0 Q5.55 -5.5 1.55 -3.35 -2.45 -1.15 -6.05 -2.55 -9.65 -3.9 -10.7 -8.05 -11.75 -12.1 -9.65 -16.6 L-7.95 -19.4 8.4 -19.4 8.1 -20.25 8.65 -18.6 Q9.75 -14.45 7.65 -10.0" fill="#63981e" fill-rule="evenodd" stroke="none"/>
  </g>
</svg>
