<?xml version="1.0" encoding="UTF-8" standalone="no"?>
<svg xmlns:xlink="http://www.w3.org/1999/xlink" height="16.65px" width="18.65px" xmlns="http://www.w3.org/2000/svg">
  <g transform="matrix(1.0, 0.0, 0.0, 1.0, -22.75, 6.1)">
    <path d="M22.75 -6.0 L23.3 -6.1 23.85 -5.95 23.85 10.5 23.3 10.35 22.75 10.5 22.75 -6.0 M26.8 -6.1 L27.4 -5.95 27.4 10.55 26.8 10.35 26.65 10.35 26.6 10.35 26.3 10.45 26.3 -6.0 26.8 -6.1 M30.3 -6.1 L30.95 -5.95 30.95 10.55 30.15 10.35 30.1 10.35 29.8 10.4 29.8 -6.0 30.3 -6.1 M33.25 -6.0 L33.75 -6.1 34.35 -5.95 34.35 10.5 33.65 10.35 33.6 10.35 33.25 10.4 33.25 -6.0 M37.3 -6.1 L37.9 -5.95 37.9 10.5 37.3 10.35 37.15 10.35 36.9 10.4 36.75 10.4 36.75 -6.0 37.3 -6.1 M40.8 -6.1 L41.4 -5.95 41.4 10.5 40.8 10.35 40.7 10.35 40.65 10.35 40.25 10.45 40.25 -6.0 40.8 -6.1" fill="#515151" fill-rule="evenodd" stroke="none"/>
  </g>
</svg>
