<?xml version="1.0" encoding="UTF-8" standalone="no"?>
<svg xmlns:xlink="http://www.w3.org/1999/xlink" height="93.85px" width="54.9px" xmlns="http://www.w3.org/2000/svg">
  <g transform="matrix(1.0, 0.0, 0.0, 1.0, 35.2, 35.75)">
    <path d="M9.2 -23.2 Q4.95 -18.4 1.15 -12.5 -6.55 -0.7 -4.55 4.9 -2.85 9.6 5.45 16.15 13.55 22.55 14.45 25.65 15.65 29.8 14.9 38.15 L13.95 45.65 8.6 46.4 2.8 52.0 -4.25 48.85 -12.45 53.6 -24.85 43.3 -21.25 34.6 Q-20.05 36.0 -17.65 37.25 -15.45 38.4 -13.95 38.55 -18.05 33.85 -22.2 27.85 -30.5 15.9 -30.7 9.45 -30.9 3.0 -15.05 -14.75 -7.15 -23.65 0.8 -31.25 L9.2 -23.2" fill="#4f025f" fill-rule="evenodd" stroke="none"/>
    <path d="M9.2 -23.2 Q4.95 -18.4 1.15 -12.5 -6.55 -0.7 -4.55 4.9 -2.85 9.6 5.45 16.15 13.55 22.55 14.45 25.65 15.65 29.8 14.9 38.15 L13.95 45.65 8.6 46.4 2.8 52.0 -4.25 48.85 -12.45 53.6 -24.85 43.3 -21.25 34.6 Q-20.05 36.0 -17.65 37.25 -15.45 38.4 -13.95 38.55 -18.05 33.85 -22.2 27.85 -30.5 15.9 -30.7 9.45 -30.9 3.0 -15.05 -14.75 -7.15 -23.65 0.8 -31.25 L9.2 -23.2 Z" fill="none" stroke="#4f025f" stroke-linecap="round" stroke-linejoin="round" stroke-width="9.0"/>
    <path d="M9.2 -23.2 Q4.95 -18.4 1.15 -12.5 -6.55 -0.7 -4.55 4.9 -2.85 9.6 5.45 16.15 13.55 22.55 14.45 25.65 15.65 29.8 14.9 38.15 L13.95 45.65 8.6 46.4 2.8 52.0 -4.25 48.85 -12.45 53.6 -24.85 43.3 -21.25 34.6 Q-20.05 36.0 -17.65 37.25 -15.45 38.4 -13.95 38.55 -18.05 33.85 -22.2 27.85 -30.5 15.9 -30.7 9.45 -30.9 3.0 -15.05 -14.75 -7.15 -23.65 0.8 -31.25 L9.2 -23.2" fill="#bf7926" fill-rule="evenodd" stroke="none"/>
    <path d="M9.2 -23.2 Q4.95 -18.4 1.15 -12.5 -6.55 -0.7 -4.55 4.9 -2.85 9.6 5.45 16.15 13.0 22.1 14.3 25.25 L14.45 25.65 Q15.55 29.5 15.0 36.9 12.85 34.5 11.5 29.65 10.25 38.05 7.2 43.7 2.55 39.55 -0.7 32.55 0.1 39.4 -3.2 44.6 -11.25 40.15 -14.1 31.85 -13.9 34.45 -15.25 37.05 L-22.2 27.85 Q-30.5 15.9 -30.7 9.45 -30.9 3.0 -15.05 -14.75 -7.15 -23.65 0.8 -31.2 L9.2 -23.2" fill="#70381f" fill-rule="evenodd" stroke="none"/>
    <path d="M9.2 -23.2 Q4.95 -18.4 1.15 -12.5 -6.55 -0.7 -4.55 4.9 -3.0 9.15 4.0 14.95 L4.45 15.35 4.95 15.75 5.45 16.15 11.65 21.65 Q4.2 21.55 -3.35 23.85 -12.9 26.7 -19.25 32.4 L-19.05 32.2 -22.2 27.85 Q-30.5 15.9 -30.7 9.45 -30.9 3.0 -15.05 -14.75 -7.15 -23.65 0.8 -31.2 L9.2 -23.2" fill="#a100b4" fill-rule="evenodd" stroke="none"/>
  </g>
</svg>
