<?xml version="1.0" encoding="UTF-8" standalone="no"?>
<svg xmlns:xlink="http://www.w3.org/1999/xlink" height="10.3px" width="10.5px" xmlns="http://www.w3.org/2000/svg">
  <g transform="matrix(1.0, 0.0, 0.0, 1.0, 5.25, 4.8)">
    <path d="M-5.25 -1.0 L-0.5 -4.8 5.25 -2.2 0.75 2.1 -3.15 0.05 -3.3 0.1 -3.85 0.3 -4.0 0.3 -3.9 0.95 -3.85 0.95 -3.8 1.05 -3.75 1.1 -3.65 1.35 -3.9 1.85 -4.0 2.0 -4.0 2.85 -3.9 4.3 -3.85 4.8 -3.9 5.5 -4.1 5.3 -4.25 5.3 Q-4.65 4.95 -4.5 4.0 L-4.35 2.5 -4.3 2.0 -4.35 1.85 -4.65 1.55 Q-4.8 1.25 -4.5 1.0 L-4.35 0.85 -4.35 0.8 -4.3 0.3 -4.35 0.3 -4.35 0.2 -4.3 0.1 -3.8 -0.2 -5.25 -1.0 M-2.6 1.0 L0.7 2.75 0.85 2.75 1.0 2.7 3.35 0.45 3.5 1.55 Q1.7 2.2 0.7 4.25 -0.8 2.7 -2.65 2.2 L-2.6 1.0" fill="#ffffff" fill-rule="evenodd" stroke="none"/>
  </g>
</svg>
