<?xml version="1.0" encoding="UTF-8" standalone="no"?>
<svg xmlns:xlink="http://www.w3.org/1999/xlink" height="16.55px" width="62.65px" xmlns="http://www.w3.org/2000/svg">
  <g transform="matrix(1.0, 0.0, 0.0, 1.0, -0.8, -17.55)">
    <path d="M61.0 32.85 L2.7 32.3 2.45 27.15 4.05 26.15 2.4 25.75 2.05 19.9 62.2 18.8 61.6 25.4 59.6 26.5 61.4 27.35 61.0 32.85" fill="#ddaf44" fill-rule="evenodd" stroke="none"/>
    <path d="M61.0 32.85 L2.7 32.3 2.45 27.15 4.05 26.15 2.4 25.75 2.05 19.9 62.2 18.8 61.6 25.4 59.6 26.5 61.4 27.35 61.0 32.85 Z" fill="none" stroke="#412910" stroke-linecap="round" stroke-linejoin="round" stroke-width="2.5"/>
    <path d="M59.6 26.5 L61.4 27.35 61.0 32.85 2.7 32.3 2.45 27.15 4.05 26.15 2.4 25.75 2.05 19.9 62.2 18.8 61.6 25.4 59.6 26.5" fill="#ddaf44" fill-rule="evenodd" stroke="none"/>
  </g>
</svg>
