<?xml version="1.0" encoding="UTF-8" standalone="no"?>
<svg xmlns:xlink="http://www.w3.org/1999/xlink" height="40.05px" width="82.0px" xmlns="http://www.w3.org/2000/svg">
  <g transform="matrix(1.0, 0.0, 0.0, 1.0, 0.0, 0.0)">
    <path d="M74.55 5.65 Q75.7 6.85 77.15 7.5 L77.15 13.2 Q76.95 17.65 77.1 21.75 75.8 22.85 75.8 25.0 75.8 25.7 76.2 26.4 76.65 27.15 77.4 27.5 L77.4 32.6 77.4 38.5 62.4 38.6 55.65 39.1 47.65 39.55 38.65 39.55 36.3 39.25 33.75 39.1 30.3 39.4 28.25 39.8 17.55 39.9 17.1 40.05 13.85 40.05 Q13.25 38.85 11.4 38.85 9.5 38.85 8.9 40.05 L3.0 40.05 2.7 39.3 2.75 38.9 2.75 34.7 2.5 28.45 2.55 28.4 Q4.65 26.45 4.65 25.75 4.65 22.6 1.5 22.85 L1.45 22.1 1.4 17.0 Q1.4 11.35 1.1 9.75 L2.5 5.3 8.4 5.15 11.25 5.25 16.9 5.3 24.9 5.25 Q30.55 5.25 34.95 4.25 37.4 3.7 40.75 4.65 L52.0 4.65 52.4 4.5 57.45 4.45 57.45 4.5 Q58.2 5.95 60.8 5.95 62.7 5.95 64.25 4.4 L71.15 4.3 73.3 4.15 74.55 5.65" fill="#000000" fill-opacity="0.4" fill-rule="evenodd" stroke="none"/>
    <path d="M78.4 5.75 L78.4 11.45 Q78.2 15.9 78.35 20.0 77.05 21.1 77.05 23.25 77.05 23.95 77.45 24.65 77.9 25.4 78.65 25.75 L78.65 30.85 78.65 36.75 63.65 36.85 56.9 37.35 48.9 37.8 39.9 37.8 37.55 37.5 35.0 37.35 31.55 37.65 29.5 38.05 18.8 38.15 18.35 38.3 15.1 38.3 Q14.5 37.1 12.65 37.1 10.75 37.1 10.15 38.3 L4.25 38.3 3.95 37.55 4.0 37.15 4.0 32.95 3.75 26.7 3.8 26.65 Q5.9 24.7 5.9 24.0 5.9 20.85 2.75 21.1 L2.7 20.35 2.65 15.25 Q2.65 9.6 2.35 8.0 L3.75 3.55 9.65 3.4 12.5 3.5 18.15 3.55 26.15 3.5 Q31.8 3.5 36.2 2.5 L42.0 2.9 53.25 2.9 53.65 2.75 58.7 2.7 58.7 2.75 Q59.45 4.2 62.05 4.2 63.95 4.2 65.5 2.65 L72.4 2.55 74.55 2.4 75.8 3.9 Q76.95 5.1 78.4 5.75" fill="#3cadc6" fill-rule="evenodd" stroke="none"/>
    <path d="M81.5 10.55 Q81.7 10.65 81.7 11.05 L81.05 11.8 75.25 11.75 75.0 11.6 74.9 11.15 74.9 10.8 75.0 10.75 76.5 10.55 81.05 10.45 81.5 10.55 M81.9 31.3 L81.05 31.45 80.1 31.15 79.2 30.85 75.95 30.6 74.95 30.4 Q76.65 28.2 79.45 28.9 82.0 29.5 82.0 30.7 L81.9 31.3 M54.15 5.05 Q53.7 4.5 53.35 3.45 53.05 2.45 53.05 1.5 53.05 0.4 53.65 0.0 54.25 1.2 54.75 4.75 L54.15 5.05 M70.65 34.3 Q72.15 34.25 72.45 36.2 L72.4 38.25 72.4 38.85 Q72.4 39.1 71.75 39.1 71.15 39.1 70.85 36.95 L70.65 34.7 70.65 34.3 M24.9 4.5 L24.4 5.65 Q23.8 5.3 23.8 4.05 23.8 2.55 23.95 2.1 24.2 1.0 25.25 1.05 L25.4 3.05 24.9 4.5 M11.05 3.0 L11.65 6.15 10.9 7.45 Q10.45 7.05 10.1 5.35 9.75 3.85 9.75 2.75 L9.9 0.55 10.35 0.55 11.05 3.0 M0.5 14.25 Q0.5 13.55 4.85 13.2 5.1 13.05 5.1 13.7 5.1 14.8 1.95 14.8 L0.65 14.8 Q0.5 14.85 0.5 14.25 M1.65 33.3 L3.65 32.8 5.65 32.3 5.8 32.35 5.9 32.8 4.5 33.75 Q2.9 34.55 1.85 34.55 0.7 34.55 0.0 33.85 L0.0 33.3 1.65 33.3" fill="#367583" fill-rule="evenodd" stroke="none"/>
  </g>
</svg>
