<?xml version="1.0" encoding="UTF-8" standalone="no"?>
<svg xmlns:xlink="http://www.w3.org/1999/xlink" height="27.95px" width="29.6px" xmlns="http://www.w3.org/2000/svg">
  <g transform="matrix(1.0, 0.0, 0.0, 1.0, 0.45, 4.8)">
    <path d="M28.1 17.2 L7.05 22.1 7.05 22.15 7.0 22.1 6.95 22.1 0.55 16.75 0.65 0.55 0.65 0.45 0.75 0.55 20.65 -3.8 28.0 0.85 28.1 0.8 28.1 0.95 28.15 0.95 28.1 1.0 28.1 17.2" fill="#858585" fill-rule="evenodd" stroke="none"/>
    <path d="M28.1 17.2 L7.05 22.1 7.05 22.15 7.0 22.1 6.95 22.1 0.55 16.75 0.65 0.55 0.65 0.45 0.75 0.55 20.65 -3.8 28.0 0.85 28.1 0.8 28.1 0.95 28.15 0.95 28.1 1.0 28.1 17.2 Z" fill="none" stroke="#333333" stroke-linecap="round" stroke-linejoin="round" stroke-width="2.0"/>
    <path d="M7.65 5.65 L7.45 13.85 7.05 22.15 0.55 16.75 0.65 0.45 7.65 5.65" fill="#858585" fill-rule="evenodd" stroke="none"/>
    <path d="M7.2 6.1 L0.65 0.55 20.65 -3.8 28.15 0.95 17.7 3.55 7.2 6.1" fill="#aeaeae" fill-rule="evenodd" stroke="none"/>
    <path d="M6.95 5.7 L28.1 0.8 28.1 17.2 6.95 22.1 6.95 5.7" fill="#999999" fill-rule="evenodd" stroke="none"/>
    <path d="M9.2 -0.4 L9.35 -0.05 9.05 0.2 8.7 0.2 8.55 0.15 8.55 0.05 8.5 -0.05 8.55 -0.25 8.65 -0.4 8.9 -0.5 9.2 -0.4 M11.3 -1.65 L11.4 -1.6 11.45 -1.45 11.5 -1.3 11.5 -1.2 11.5 -1.1 11.45 -1.0 11.3 -0.85 10.9 -0.8 10.75 -1.0 10.7 -1.2 10.65 -1.25 10.6 -1.25 10.5 -1.3 10.55 -1.45 10.65 -1.5 10.8 -1.5 10.8 -1.55 11.1 -1.75 11.3 -1.65 M10.3 -1.1 L10.55 -0.8 10.3 -0.5 Q10.1 -0.5 10.05 -0.75 10.0 -1.05 10.3 -1.05 L10.3 -1.1 M11.85 -0.25 L12.05 -0.4 12.2 -0.45 12.4 -0.35 12.55 -0.25 12.6 -0.15 12.65 0.0 12.6 0.1 12.55 0.2 12.35 0.35 11.9 0.25 11.8 0.05 11.8 -0.05 11.8 -0.15 11.85 -0.25 M14.8 -2.6 L14.95 -2.85 15.1 -2.9 15.2 -2.6 15.05 -2.45 Q14.8 -2.35 14.8 -2.6 M14.05 -1.75 Q13.85 -1.5 13.65 -1.75 L13.7 -2.05 13.8 -2.1 Q14.05 -2.15 14.1 -1.9 L14.05 -1.75 M15.1 -2.1 L15.15 -2.15 15.25 -2.2 15.6 -2.1 15.7 -2.05 15.95 -2.3 16.05 -2.3 16.2 -2.0 Q16.15 -1.75 15.95 -1.8 L15.7 -2.0 15.65 -1.9 15.55 -1.85 15.2 -1.85 15.05 -2.0 15.1 -2.1 M13.2 -1.6 L13.15 -1.45 12.9 -1.5 Q12.7 -1.65 12.9 -1.8 L13.0 -1.85 13.2 -1.6 M13.75 -0.95 Q13.75 -0.65 13.5 -0.65 13.25 -0.65 13.25 -0.95 L13.5 -1.2 13.75 -0.95 M13.1 -1.25 Q13.15 -0.95 12.85 -0.95 L12.55 -1.2 Q12.55 -1.5 12.85 -1.5 L13.1 -1.25 M13.25 -0.7 Q13.65 -0.6 13.55 -0.35 L13.25 -0.05 Q12.85 0.1 12.9 -0.3 L13.25 -0.7 M14.4 -0.6 L14.6 -0.65 14.65 -0.7 14.9 -0.45 14.9 -0.15 Q14.8 -0.05 14.65 -0.05 L14.35 -0.15 14.25 -0.2 14.25 -0.3 14.25 -0.4 14.35 -0.5 14.4 -0.6 M18.2 -3.0 L18.2 -3.1 18.2 -3.2 18.3 -3.3 18.45 -3.35 18.45 -3.4 18.75 -3.35 19.0 -3.1 19.0 -3.05 19.4 -3.15 19.4 -3.3 19.45 -3.5 19.55 -3.55 19.65 -3.6 19.8 -3.6 19.95 -3.55 20.1 -3.45 20.1 -3.5 20.2 -3.5 20.8 -3.5 20.9 -3.45 20.95 -3.35 21.05 -3.4 21.2 -3.2 21.1 -3.2 21.1 -3.15 21.1 -3.05 21.05 -2.95 21.05 -2.85 20.95 -2.75 20.9 -2.7 20.8 -2.65 20.6 -2.75 20.45 -2.8 20.4 -2.8 20.7 -2.65 Q20.9 -2.45 21.1 -2.35 L21.4 -2.05 21.5 -2.15 21.55 -2.15 21.5 -2.2 21.45 -2.35 21.4 -2.35 21.2 -2.35 20.95 -2.5 20.95 -2.6 21.0 -2.7 21.05 -2.75 21.1 -2.75 21.1 -2.8 21.1 -2.9 21.15 -3.0 21.2 -3.05 21.3 -3.05 21.4 -3.1 21.7 -3.0 21.85 -2.8 22.0 -2.8 22.15 -2.75 22.25 -2.65 22.35 -2.45 22.4 -2.35 22.25 -2.15 22.9 -1.7 22.9 -1.75 23.1 -1.65 23.2 -1.7 23.4 -1.6 23.45 -1.5 23.55 -1.4 23.6 -1.5 23.7 -1.55 23.8 -1.55 23.95 -1.6 24.2 -1.55 24.3 -1.45 24.4 -1.25 24.45 -1.05 24.45 -1.0 24.55 -0.8 24.35 -0.6 24.2 -0.65 23.95 -0.65 23.6 -0.8 23.5 -0.9 23.45 -1.0 23.45 -1.1 23.35 -1.15 23.25 -1.2 23.2 -1.1 23.15 -1.05 23.15 -0.85 22.9 -0.7 Q22.65 -0.7 22.75 -0.9 L22.85 -1.0 22.8 -1.0 22.65 -0.95 22.65 -0.7 22.55 -0.65 Q22.35 -0.7 22.3 -0.8 22.2 -0.95 22.4 -0.95 L22.55 -1.0 22.4 -1.05 22.35 -1.05 22.1 -1.0 Q21.85 -0.9 21.75 -1.1 L21.55 -1.15 21.55 -1.1 21.4 -1.0 21.2 -1.15 Q21.1 -1.3 21.3 -1.3 L21.4 -1.3 21.3 -1.45 21.3 -1.5 21.25 -1.4 21.2 -1.4 21.15 -1.35 21.15 -1.15 21.15 -1.1 21.05 -1.05 21.05 -1.0 21.05 -0.6 20.9 -0.4 20.85 -0.3 20.65 -0.15 20.65 -0.1 20.65 -0.05 20.7 0.0 20.65 0.1 20.5 0.2 20.4 0.2 20.1 0.1 20.0 -0.05 20.1 -0.2 20.2 -0.25 20.25 -0.25 Q20.15 -0.4 20.2 -0.5 L20.4 -0.7 20.45 -0.7 20.45 -0.8 20.3 -0.7 19.55 -0.6 19.5 -0.4 19.15 -0.25 19.0 -0.25 Q18.85 -0.05 18.6 -0.1 L18.25 -0.2 18.2 -0.05 18.05 0.1 17.85 -0.1 18.05 -0.3 18.15 -0.3 18.1 -0.4 18.1 -0.5 18.1 -0.55 18.05 -0.55 17.85 -0.6 17.8 -0.7 17.8 -0.8 17.8 -0.9 17.8 -0.95 17.85 -1.0 17.65 -1.05 17.6 -1.05 17.4 -1.3 Q17.25 -1.55 17.55 -1.6 L17.9 -1.55 17.9 -1.6 17.95 -1.7 17.8 -1.7 17.55 -1.8 17.5 -1.95 17.55 -2.1 17.65 -2.15 17.4 -2.25 17.35 -2.3 17.3 -2.4 17.1 -2.45 Q16.85 -2.5 17.05 -2.65 L17.15 -2.75 17.45 -2.65 17.7 -2.7 17.65 -2.75 17.6 -2.85 17.7 -2.95 17.8 -3.0 17.95 -3.05 18.05 -3.1 18.15 -3.1 18.2 -3.0 18.25 -2.85 18.45 -2.9 18.2 -3.0 M17.05 -2.4 L17.1 -2.2 17.35 -2.0 Q17.5 -1.7 17.15 -1.65 L16.8 -1.85 Q16.7 -2.1 16.95 -2.15 L16.9 -2.25 16.95 -2.4 17.05 -2.4 M15.75 -1.7 L15.85 -1.4 15.65 -1.2 Q15.45 -1.15 15.45 -1.4 L15.6 -1.65 15.75 -1.7 M16.25 -0.7 L16.05 -0.9 Q16.0 -1.15 16.25 -1.2 L16.55 -1.05 16.65 -1.1 16.9 -0.75 Q16.8 -0.45 16.45 -0.55 L16.25 -0.7 M17.65 -0.05 L17.7 0.15 17.6 0.15 17.45 0.05 17.55 -0.05 17.65 -0.05 M19.45 -2.05 L19.4 -2.05 19.2 -1.95 19.05 -1.9 19.1 -1.75 19.1 -1.6 19.15 -1.7 19.4 -1.9 19.4 -1.95 19.45 -2.05 M18.1 -1.95 L18.15 -1.9 18.1 -1.8 18.2 -1.85 18.5 -1.55 18.45 -1.2 18.35 -1.1 18.45 -1.05 18.45 -1.1 18.6 -1.15 18.75 -1.2 18.85 -1.2 18.9 -1.2 19.0 -1.4 19.0 -1.5 19.05 -1.55 18.85 -1.5 Q18.6 -1.5 18.6 -1.75 L18.8 -2.0 18.8 -2.05 18.85 -2.1 18.3 -2.05 18.2 -2.05 18.1 -2.05 17.95 -2.1 18.05 -2.05 18.1 -1.95 M19.15 -0.9 L19.25 -0.85 19.0 -1.05 18.95 -0.95 19.05 -0.85 19.15 -0.9 M19.65 -0.2 L19.8 0.05 19.75 0.1 19.5 0.05 Q19.35 0.0 19.5 -0.1 L19.65 -0.2 M21.8 -2.0 L21.75 -1.9 21.8 -1.95 21.85 -2.0 21.8 -2.0 M21.5 -1.8 L21.45 -1.8 21.4 -1.8 21.4 -1.75 21.5 -1.8 M21.0 -1.35 L20.75 -1.45 20.6 -1.45 20.55 -1.45 20.5 -1.4 20.55 -1.35 20.75 -1.25 20.8 -1.3 20.9 -1.25 21.0 -1.35 M21.1 -0.3 L21.2 -0.35 21.3 -0.4 21.5 -0.2 21.5 -0.35 21.7 -0.55 21.95 -0.3 21.7 -0.1 21.55 -0.15 21.5 0.05 21.2 0.2 21.0 0.1 20.9 0.1 20.8 0.05 20.8 -0.1 20.95 -0.15 21.0 -0.2 21.1 -0.3 M22.6 -0.2 Q22.7 0.05 22.4 0.1 22.1 0.15 22.05 -0.1 L22.2 -0.4 Q22.5 -0.4 22.6 -0.2 M23.1 -0.35 L23.4 -0.6 23.6 -0.35 23.7 -0.4 23.95 -0.15 23.95 -0.05 24.1 -0.1 24.15 -0.25 24.3 -0.3 24.3 -0.1 24.2 -0.05 24.15 0.1 24.25 0.05 24.3 0.05 24.4 0.25 24.35 0.35 24.15 0.35 24.1 0.2 24.1 0.15 23.9 0.15 23.85 0.1 23.85 0.25 23.75 0.45 23.6 0.55 23.35 0.5 23.2 0.35 23.3 0.25 23.5 0.15 23.6 0.1 23.45 -0.1 23.3 -0.1 Q23.05 -0.1 23.1 -0.35 M25.15 -0.3 L24.9 -0.3 Q24.65 -0.3 24.65 -0.55 L24.9 -0.8 Q25.2 -0.85 25.25 -0.65 L25.4 -0.7 25.7 -0.45 25.55 -0.15 25.65 0.1 25.4 0.4 25.25 0.35 25.0 0.65 24.9 0.65 24.9 0.75 24.7 0.75 24.65 0.6 24.7 0.5 24.7 0.4 24.9 0.05 25.0 0.0 25.15 0.1 25.3 -0.15 25.15 -0.3 M26.95 0.55 L26.75 0.75 Q26.5 0.75 26.55 0.5 L26.75 0.3 26.95 0.55 M26.0 0.65 L25.8 0.65 25.75 0.5 25.85 0.4 25.95 0.35 26.05 0.55 26.0 0.65 M25.55 0.75 L25.3 0.65 Q25.2 0.45 25.4 0.45 25.6 0.5 25.65 0.65 L25.55 0.75 M24.2 0.4 L24.35 0.5 24.35 0.55 24.15 0.55 24.05 0.5 24.2 0.4 M24.15 0.95 L23.95 1.05 23.7 1.15 23.45 0.95 Q23.5 0.7 23.7 0.65 L23.9 0.8 23.95 0.75 24.15 0.85 24.15 0.95 M23.1 0.8 L23.1 0.95 22.9 1.05 22.85 0.95 Q22.85 0.8 23.0 0.8 L23.1 0.8 M22.1 0.15 L22.3 0.4 22.1 0.6 Q21.85 0.6 21.9 0.35 L22.1 0.15 M22.45 1.15 L22.55 1.35 22.5 1.45 22.3 1.45 22.25 1.3 22.4 1.15 22.45 1.15 M20.8 0.7 L20.85 0.85 20.9 0.8 21.1 1.05 20.9 1.25 Q20.65 1.25 20.7 1.0 L20.75 0.9 20.55 0.85 20.35 0.65 Q20.4 0.45 20.6 0.5 L20.8 0.7 M21.5 1.8 L21.45 1.85 21.25 1.85 21.2 1.7 21.3 1.6 21.4 1.55 21.5 1.8 M18.2 2.15 Q18.5 2.1 18.55 2.35 18.65 2.6 18.35 2.65 L18.05 2.45 Q17.95 2.2 18.2 2.15 M15.4 0.5 L15.2 0.5 15.15 0.4 15.25 0.25 15.35 0.25 15.4 0.45 15.4 0.5 M16.45 0.05 Q16.8 0.15 16.75 0.4 L16.45 0.7 Q16.1 0.7 16.15 0.35 L16.45 0.05 M13.25 1.0 L13.1 1.1 13.0 1.0 13.05 0.85 13.2 0.85 13.25 1.0 M14.7 0.85 Q14.6 0.6 14.85 0.55 15.15 0.5 15.2 0.75 15.3 1.0 15.05 1.05 14.75 1.1 14.7 0.85 M10.95 3.75 L11.1 3.7 11.1 3.9 11.0 3.95 10.9 3.85 10.95 3.75 M10.5 3.85 L10.55 3.85 10.6 4.05 10.55 4.2 10.3 4.3 10.05 4.2 10.05 4.15 10.05 4.05 10.15 3.95 10.35 3.85 10.5 3.85 M6.5 3.85 L6.45 3.9 6.25 3.85 6.2 3.7 Q6.2 3.6 6.35 3.65 L6.5 3.85 M6.55 4.15 L6.6 4.15 6.55 4.05 6.55 3.95 6.6 3.9 6.75 3.85 6.9 3.95 7.05 4.1 7.05 4.2 7.0 4.25 7.05 4.3 7.1 4.25 7.15 4.25 7.35 4.15 7.6 4.4 7.6 4.45 7.65 4.6 7.65 4.65 7.5 4.7 7.35 4.7 7.15 4.55 7.05 4.5 7.0 4.55 7.15 4.8 6.85 5.05 6.6 4.8 6.75 4.6 6.7 4.5 6.75 4.35 6.55 4.25 6.55 4.15 M5.85 3.65 L5.65 3.7 5.45 3.6 Q5.35 3.45 5.55 3.45 L5.65 3.5 5.75 3.3 5.95 3.3 6.0 3.55 5.85 3.65 M6.25 4.05 L6.35 4.25 6.3 4.35 Q6.15 4.35 6.05 4.2 5.95 4.05 6.15 4.05 L6.25 4.05 M9.1 3.7 L9.2 3.65 9.25 3.9 9.25 3.95 9.05 3.95 9.0 3.8 9.1 3.7 M9.0 3.2 L9.1 3.15 9.15 3.4 9.15 3.45 8.95 3.45 8.9 3.3 9.0 3.2 M9.1 4.1 L9.1 4.3 9.0 4.35 8.9 4.3 8.9 4.25 8.65 4.4 8.4 4.2 8.6 3.95 8.7 3.9 8.9 4.15 9.1 4.1 M7.75 3.65 L7.85 3.9 7.8 3.95 7.6 3.95 7.55 3.8 7.7 3.7 7.75 3.65 M8.15 4.3 L8.4 4.5 Q8.55 4.7 8.3 4.75 8.05 4.85 8.0 4.6 7.9 4.3 8.15 4.3 M4.95 2.7 L4.85 2.75 4.75 2.65 4.8 2.55 4.95 2.5 4.95 2.7" fill="#ffffff" fill-rule="evenodd" stroke="none"/>
  </g>
</svg>
