<?xml version="1.0" encoding="UTF-8" standalone="no"?>
<svg xmlns:xlink="http://www.w3.org/1999/xlink" height="200.6px" width="210.15px" xmlns="http://www.w3.org/2000/svg">
  <g transform="matrix(1.0, 0.0, 0.0, 1.0, 131.95, 131.25)">
    <path d="M-102.0 -57.4 L-103.2 -54.95 Q-106.2 -48.4 -107.5 -39.4 -108.7 -31.35 -107.8 -22.5 -107.2 -16.45 -107.9 -16.55 -125.4 -19.35 -130.2 -31.5 -134.6 -42.5 -127.8 -58.75 -121.25 -74.35 -106.7 -89.45 -91.55 -105.2 -73.0 -114.9 -51.75 -126.05 -29.8 -129.65 -8.7 -133.1 10.6 -129.2 29.75 -125.3 44.5 -114.65 59.6 -103.75 68.1 -87.15 L68.55 -86.2 Q70.1 -83.1 71.15 -79.9 78.3 -58.5 78.2 -33.3 L77.05 -13.7 76.65 -10.35 76.7 -10.85 75.25 -1.0 Q27.35 6.1 0.7 6.25 -39.6 6.55 -88.45 -5.05 L-87.3 1.85 Q-85.85 8.35 -82.8 14.0 -73.45 31.3 -51.0 38.0 -29.7 44.35 -10.8 32.9 L1.6 24.15 Q7.6 19.8 10.8 19.8 14.3 19.8 19.1 23.15 L28.15 30.45 Q40.8 40.75 50.4 39.8 59.8 38.85 66.4 33.3 61.8 46.1 57.15 53.1 52.9 59.5 35.1 63.85 19.0 67.75 -3.15 68.9 -24.75 70.05 -42.6 68.1 -61.6 66.0 -68.3 61.1 -75.4 55.9 -83.05 42.4 -91.0 28.4 -96.4 10.8 -100.7 -3.2 -102.55 -16.2 L-102.7 -17.05 -102.75 -17.5 -103.6 -25.25 -103.85 -29.05 Q-104.3 -34.55 -104.15 -38.5 L-103.7 -44.8 Q-102.85 -51.75 -100.65 -59.3 L-102.0 -57.4" fill="#fff6ec" fill-rule="evenodd" stroke="none"/>
    <path d="M-102.0 -57.4 L-100.65 -59.3 Q-102.85 -51.75 -103.7 -44.8 -103.2 -51.25 -102.0 -57.4" fill="#70381f" fill-rule="evenodd" stroke="none"/>
    <path d="M78.05 -41.2 Q78.85 -22.1 75.2 -0.7 L75.0 0.4 75.6 0.3 Q-16.1 17.55 -99.9 -2.15 -105.1 -24.55 -103.7 -44.2 -13.05 -26.0 78.05 -41.2" fill="#ff0000" fill-rule="evenodd" stroke="none"/>
  </g>
</svg>
