<?xml version="1.0" encoding="UTF-8" standalone="no"?>
<svg xmlns:xlink="http://www.w3.org/1999/xlink" height="60.85px" width="49.5px" xmlns="http://www.w3.org/2000/svg">
  <g transform="matrix(1.0, 0.0, 0.0, 1.0, 16.6, 155.75)">
    <path d="M15.85 -155.6 Q20.85 -154.05 23.75 -150.9 L25.3 -149.05 Q11.3 -130.2 -8.15 -119.0 -11.8 -122.2 -16.6 -128.25 1.85 -139.25 15.5 -155.75 L15.85 -155.6" fill="#62594e" fill-rule="evenodd" stroke="none"/>
    <path d="M8.3 -100.5 Q12.95 -109.6 13.6 -121.05 14.05 -129.55 12.3 -142.35 26.5 -126.8 18.25 -94.9 L8.3 -100.5" fill="#62594e" fill-rule="evenodd" stroke="none"/>
    <path d="M20.6 -127.85 Q18.8 -133.3 16.05 -137.5 13.75 -141.1 12.6 -141.4 22.3 -139.25 27.45 -129.1 32.65 -118.75 32.9 -100.45 L20.65 -97.9 Q25.8 -112.4 20.6 -127.85" fill="#62594e" fill-rule="evenodd" stroke="none"/>
  </g>
</svg>
