<?xml version="1.0" encoding="UTF-8" standalone="no"?>
<svg xmlns:xlink="http://www.w3.org/1999/xlink" height="63.75px" width="60.75px" xmlns="http://www.w3.org/2000/svg">
  <g transform="matrix(1.0, 0.0, 0.0, 1.0, 19.9, -62.65)">
    <path d="M10.1 62.65 L39.75 64.25 Q42.95 84.1 36.9 100.3 L30.45 100.15 Q31.3 97.15 31.6 94.25 30.0 100.15 27.95 103.75 26.1 107.05 22.6 110.6 L14.8 109.8 Q17.8 103.25 19.1 92.8 18.05 97.8 16.7 101.2 15.45 104.35 13.0 108.4 L4.5 105.1 Q7.4 95.2 8.95 83.95 L5.65 96.75 -0.5 91.15 1.95 86.0 Q5.05 79.95 8.35 75.3 9.9 69.8 10.1 62.65" fill="#bf7926" fill-rule="evenodd" stroke="none"/>
    <path d="M39.65 90.0 Q38.1 92.5 36.1 94.65 33.55 89.15 33.35 81.65 30.75 89.05 25.4 94.15 23.25 85.5 24.5 76.65 21.25 83.6 15.1 88.55 13.7 80.55 13.9 72.55 12.25 78.2 10.1 81.6 8.5 79.75 7.25 76.95 L8.35 75.3 Q9.9 69.8 10.1 62.65 L39.6 64.25 Q40.75 71.65 40.65 78.8 40.6 84.65 39.65 90.0 L39.8 89.8 39.75 89.85 39.65 90.0" fill="#70381f" fill-rule="evenodd" stroke="none"/>
    <path d="M39.75 64.25 Q42.95 84.15 36.9 100.3 L30.45 100.15 Q31.3 97.15 31.6 94.25 30.0 100.15 27.95 103.75 26.1 107.05 22.6 110.6 L14.8 109.8 Q17.8 103.25 19.1 92.8 18.05 97.8 16.7 101.2 15.45 104.35 13.0 108.4 L4.5 105.1 Q7.4 95.2 8.95 83.95 L5.65 96.75 -0.5 91.15 1.95 86.0 Q5.05 79.95 8.35 75.3 9.9 69.8 10.1 62.65 L39.75 64.25" fill="#bf7926" fill-rule="evenodd" stroke="none"/>
    <path d="M5.3 102.05 Q4.25 100.25 2.1 99.8 -0.05 99.4 -2.2 100.55 -3.9 102.0 -4.35 104.15 -4.8 106.25 -3.65 108.1 -2.15 110.2 0.0 110.6 2.1 111.1 3.9 109.7 6.0 108.35 6.45 106.3 6.9 104.1 5.3 102.05 M-6.55 105.85 L-15.4 91.2 0.5 97.6 15.1 88.75 8.75 104.7 17.65 119.4 1.75 112.95 -12.9 121.9 -6.55 105.85" fill="#555c72" fill-rule="evenodd" stroke="none"/>
    <path d="M5.3 102.05 Q6.9 104.1 6.45 106.3 6.0 108.35 3.9 109.7 2.1 111.1 0.0 110.6 -2.15 110.2 -3.65 108.1 -4.8 106.25 -4.35 104.15 -3.9 102.0 -2.2 100.55 -0.05 99.4 2.1 99.8 4.25 100.25 5.3 102.05 M-6.55 105.85 L-15.4 91.2 0.5 97.6 15.1 88.75 8.75 104.7 17.65 119.4 1.75 112.95 -12.9 121.9 -6.55 105.85" fill="none" stroke="#191c1e" stroke-linecap="round" stroke-linejoin="round" stroke-width="9.0"/>
    <path d="M-2.2 100.55 Q-3.9 102.0 -4.35 104.15 -4.8 106.25 -3.65 108.1 -2.15 110.2 0.0 110.6 2.1 111.1 3.9 109.7 6.0 108.35 6.45 106.3 6.9 104.1 5.3 102.05 4.25 100.25 2.1 99.8 -0.05 99.4 -2.2 100.55 M-6.55 105.85 L-15.4 91.2 0.5 97.6 15.1 88.75 8.75 104.7 17.65 119.4 1.75 112.95 -12.9 121.9 -6.55 105.85" fill="#555c72" fill-rule="evenodd" stroke="none"/>
    <path d="M22.6 110.6 L14.8 109.8 Q17.8 103.25 19.1 92.8 18.05 97.8 16.7 101.2 15.45 104.35 13.0 108.4 L4.5 105.1 Q7.4 95.2 8.95 83.95 7.5 83.65 6.65 82.4 5.05 79.95 8.35 75.3 9.15 72.35 9.6 68.95 L40.4 68.95 Q42.2 86.05 36.9 100.3 L30.45 100.15 Q31.3 97.15 31.6 94.25 30.0 100.15 27.95 103.75 26.1 107.05 22.6 110.6" fill="#bf7926" fill-rule="evenodd" stroke="none"/>
    <path d="M7.75 76.25 L7.85 76.05 8.35 75.3 Q9.15 72.35 9.6 68.95 L40.2 68.95 Q40.7 73.95 40.65 78.8 40.6 84.65 39.65 90.0 L39.8 89.8 39.8 89.85 36.1 94.65 Q33.55 89.15 33.35 81.65 30.75 89.05 25.4 94.15 23.25 85.5 24.5 76.65 21.25 83.6 15.1 88.55 13.7 80.55 13.9 72.55 12.25 78.2 10.1 81.6 8.5 79.75 7.3 77.0 L7.75 76.25" fill="#70381f" fill-rule="evenodd" stroke="none"/>
    <path d="M3.5 83.1 Q5.85 78.8 8.35 75.3 9.9 69.8 10.1 62.65 L39.75 64.25 Q41.65 76.1 40.3 86.7 L40.1 88.1 Q23.45 87.3 8.9 84.3 L8.85 84.3 3.5 83.1" fill="#f73600" fill-rule="evenodd" stroke="none"/>
  </g>
</svg>
