<?xml version="1.0" encoding="UTF-8" standalone="no"?>
<svg xmlns:xlink="http://www.w3.org/1999/xlink" height="133.45px" width="102.35px" xmlns="http://www.w3.org/2000/svg">
  <g transform="matrix(1.0, 0.0, 0.0, 1.0, 51.2, 66.7)">
    <path d="M1.55 -56.7 L40.0 -56.7 Q41.05 -41.95 41.15 -23.6 L41.15 -15.8 41.0 -4.05 Q39.6 -0.6 38.55 3.7 36.95 10.35 15.55 20.8 L10.0 23.55 8.5 23.55 8.4 23.2 0.0 22.0 Q-4.0 22.25 -8.45 23.2 L-10.5 34.9 Q-11.8 45.4 -10.95 55.3 L-34.0 56.75 Q-41.05 30.4 -41.2 -15.8 -41.3 -38.85 -40.0 -56.7 L-1.6 -56.7 1.55 -56.7" fill="#000000" fill-rule="evenodd" stroke="none"/>
    <path d="M1.55 -56.7 L-1.6 -56.7 -40.0 -56.7 Q-41.3 -38.85 -41.2 -15.8 -41.05 30.4 -34.0 56.75 L-10.95 55.3 Q-11.8 45.4 -10.5 34.9 L-8.45 23.2 Q-4.0 22.25 0.0 22.0 L8.4 23.2 8.5 23.55 10.0 23.55 15.55 20.8 Q36.95 10.35 38.55 3.7 39.6 -0.6 41.0 -4.05 L41.15 -15.8 41.15 -23.6 Q41.05 -41.95 40.0 -56.7 L1.55 -56.7 Z" fill="none" stroke="#000000" stroke-linecap="round" stroke-linejoin="round" stroke-width="20.0"/>
  </g>
</svg>
