<?xml version="1.0" encoding="UTF-8" standalone="no"?>
<svg xmlns:xlink="http://www.w3.org/1999/xlink" height="80.45px" width="68.95px" xmlns="http://www.w3.org/2000/svg">
  <g transform="matrix(1.0, 0.0, 0.0, 1.0, 34.5, 40.2)">
    <path d="M17.95 -30.2 Q-15.6 -17.5 -24.5 26.4 -7.55 32.75 9.75 28.65 7.8 -0.95 24.45 -24.3 17.95 -30.0 17.95 -30.2" fill="#70381f" fill-rule="evenodd" stroke="none"/>
    <path d="M17.95 -30.2 Q-15.6 -17.5 -24.5 26.4 -7.55 32.75 9.75 28.65 7.8 -0.95 24.45 -24.3 17.95 -30.0 17.95 -30.2 Z" fill="none" stroke="#000000" stroke-linecap="round" stroke-linejoin="round" stroke-width="20.0"/>
    <path d="M17.95 -30.2 Q-15.6 -17.5 -24.5 26.4 -7.55 32.75 9.75 28.65 7.8 -0.95 24.45 -24.3 17.95 -30.0 17.95 -30.2" fill="#70381f" fill-rule="evenodd" stroke="none"/>
    <path d="M-14.85 -1.3 Q-21.25 10.45 -24.5 26.4 -7.55 32.75 9.75 28.65 9.15 19.3 10.4 10.65 L8.65 6.45 3.35 12.9 1.8 -0.45 -10.25 6.95 -11.2 -2.8 -14.85 -1.3" fill="#bf7926" fill-rule="evenodd" stroke="none"/>
    <path d="M17.95 -30.2 Q17.95 -30.0 24.45 -24.3 14.75 -10.7 11.35 5.05 -1.7 2.55 -14.3 -2.2 -2.95 -22.3 17.95 -30.2" fill="#40444f" fill-rule="evenodd" stroke="none"/>
  </g>
</svg>
