<?xml version="1.0" encoding="UTF-8" standalone="no"?>
<svg xmlns:xlink="http://www.w3.org/1999/xlink" height="63.6px" width="27.75px" xmlns="http://www.w3.org/2000/svg">
  <g transform="matrix(1.0, 0.0, 0.0, 1.0, -15.45, -2.8)">
    <path d="M42.2 3.8 L40.8 29.65 40.0 29.65 40.0 52.95 38.2 52.95 38.2 29.65 37.25 29.65 37.25 63.7 35.45 63.7 35.45 29.65 33.45 29.65 32.65 65.4 31.7 65.4 31.75 61.8 27.45 61.65 27.5 65.4 26.55 65.4 26.5 61.6 26.35 61.6 26.4 60.25 26.45 60.25 25.8 29.65 23.55 29.65 23.55 63.7 21.75 63.7 21.75 29.65 20.9 29.65 20.9 52.95 19.1 52.95 19.1 29.65 17.65 29.65 16.45 3.8 42.2 3.8 M27.0 31.7 L32.25 31.0 32.25 29.65 27.0 29.65 27.0 31.7 M32.1 38.9 L27.1 38.5 27.2 43.45 32.05 43.3 32.1 38.9 M27.2 44.8 L27.25 49.3 31.95 49.5 32.05 44.65 27.2 44.8 M27.05 33.1 L27.1 37.15 32.15 37.55 32.2 32.35 27.05 33.1 M27.3 50.65 L27.35 54.55 31.9 54.15 31.95 50.85 27.3 50.65 M27.35 55.9 L27.45 60.3 31.8 60.45 31.85 55.5 27.35 55.9" fill="#452f16" fill-rule="evenodd" stroke="none"/>
    <path d="M42.2 3.8 L40.8 29.65 40.0 29.65 40.0 52.95 38.2 52.95 38.2 29.65 37.25 29.65 37.25 63.7 35.45 63.7 35.45 29.65 33.45 29.65 32.65 65.4 31.7 65.4 31.75 61.8 27.45 61.65 27.5 65.4 26.55 65.4 26.5 61.6 26.35 61.6 26.4 60.25 26.45 60.25 25.8 29.65 23.55 29.65 23.55 63.7 21.75 63.7 21.75 29.65 20.9 29.65 20.9 52.95 19.1 52.95 19.1 29.65 17.65 29.65 16.45 3.8 42.2 3.8 M27.0 31.7 L32.25 31.0 32.25 29.65 27.0 29.65 27.0 31.7 M32.1 38.9 L27.1 38.5 27.2 43.45 32.05 43.3 32.1 38.9 M27.2 44.8 L27.25 49.3 31.95 49.5 32.05 44.65 27.2 44.8 M27.05 33.1 L27.1 37.15 32.15 37.55 32.2 32.35 27.05 33.1 M27.3 50.65 L27.35 54.55 31.9 54.15 31.95 50.85 27.3 50.65 M27.35 55.9 L27.45 60.3 31.8 60.45 31.85 55.5 27.35 55.9" fill="none" stroke="#452f16" stroke-linecap="round" stroke-linejoin="round" stroke-width="2.0"/>
    <path d="M38.2 34.5 L38.2 17.8 40.0 17.8 40.0 34.1 38.2 34.5 M20.9 34.5 L19.1 34.65 19.1 17.8 20.9 17.8 20.9 34.5" fill="#4a3217" fill-rule="evenodd" stroke="none"/>
    <path d="M37.25 31.05 L35.45 31.05 35.45 28.55 37.25 28.55 37.25 31.05 M21.75 31.15 L21.75 28.55 23.55 28.55 23.55 31.15 21.75 31.15" fill="#6a4822" fill-rule="evenodd" stroke="none"/>
    <path d="M35.45 31.05 L37.25 31.05 37.25 63.7 35.45 63.7 35.45 31.05 M23.55 31.15 L23.55 63.7 21.75 63.7 21.75 31.15 23.55 31.15" fill="#8d602e" fill-rule="evenodd" stroke="none"/>
    <path d="M40.0 34.1 L40.0 52.95 38.2 52.95 38.2 34.5 40.0 34.1 M19.1 34.65 L20.9 34.5 20.9 52.95 19.1 52.95 19.1 34.65" fill="#644420" fill-rule="evenodd" stroke="none"/>
    <path d="M32.65 28.85 L32.25 29.05 32.25 28.85 32.65 28.85" fill="#644420" fill-rule="evenodd" stroke="none"/>
    <path d="M32.65 28.85 L33.45 28.85 33.4 30.6 32.9 30.7 32.25 30.75 32.25 29.05 32.65 28.85 M27.0 30.8 L26.95 30.8 26.15 31.0 26.0 31.05 25.85 31.0 25.8 30.95 25.75 28.85 26.95 28.85 27.0 30.8" fill="#6d4a23" fill-rule="evenodd" stroke="none"/>
    <path d="M32.25 30.75 L32.9 30.7 33.4 30.6 32.65 65.4 31.7 65.4 32.25 30.75 M25.8 30.95 L25.85 31.0 26.0 31.05 26.15 31.0 26.95 30.8 27.0 30.8 27.5 65.4 26.55 65.4 25.8 30.95" fill="#8d602e" fill-rule="evenodd" stroke="none"/>
    <path d="M32.55 32.3 L26.5 33.15 26.3 31.8 32.35 30.95 32.55 32.3 M32.5 44.6 L26.4 44.8 26.35 43.45 32.45 43.25 32.5 44.6 M32.45 38.9 L26.35 38.45 26.45 37.1 32.55 37.55 32.45 38.9 M26.35 54.6 L32.45 54.1 32.55 55.45 26.45 55.95 26.35 54.6 M26.35 61.6 L26.4 60.25 32.5 60.45 32.45 61.8 26.35 61.6 M26.4 49.25 L32.5 49.5 32.45 50.85 26.35 50.6 26.4 49.25" fill="#8d602e" fill-rule="evenodd" stroke="none"/>
    <path d="M42.2 3.8 L40.8 29.65 17.65 29.65 16.45 3.8 42.2 3.8" fill="#8d602e" fill-rule="evenodd" stroke="none"/>
    <path d="M40.9 5.1 L39.65 28.35 18.85 28.35 17.75 5.1 40.9 5.1" fill="#644420" fill-rule="evenodd" stroke="none"/>
    <path d="M40.9 5.1 L40.65 10.4 18.0 10.4 17.75 5.1 40.9 5.1" fill="#4a3217" fill-rule="evenodd" stroke="none"/>
    <path d="M17.4 24.75 L40.7 24.75 40.7 29.4 17.4 29.4 17.4 24.75" fill="#8d602e" fill-rule="evenodd" stroke="none"/>
  </g>
</svg>
