<?xml version="1.0" encoding="UTF-8" standalone="no"?>
<svg xmlns:xlink="http://www.w3.org/1999/xlink" height="22.15px" width="22.95px" xmlns="http://www.w3.org/2000/svg">
  <g transform="matrix(1.0, 0.0, 0.0, 1.0, 0.5, 1.5)">
    <path d="M15.0 6.6 Q12.7 7.6 11.3 4.85 L15.6 0.2 15.0 6.6" fill="url(#gradient0)" fill-rule="evenodd" stroke="none"/>
    <path d="M15.0 6.6 L15.6 0.2 11.3 4.85 Q12.7 7.6 15.0 6.6 Z" fill="none" stroke="#313131" stroke-linecap="round" stroke-linejoin="round" stroke-width="1.0"/>
    <path d="M3.95 14.85 L6.75 9.25 Q9.35 9.25 9.65 12.35 L3.95 14.85" fill="url(#gradient1)" fill-rule="evenodd" stroke="none"/>
    <path d="M3.95 14.85 L9.65 12.35 Q9.35 9.25 6.75 9.25 L3.95 14.85 Z" fill="none" stroke="#313131" stroke-linecap="round" stroke-linejoin="round" stroke-width="1.0"/>
    <path d="M6.65 6.75 Q8.15 8.9 5.6 10.85 L0.0 7.5 6.65 6.75" fill="url(#gradient2)" fill-rule="evenodd" stroke="none"/>
    <path d="M6.65 6.75 L0.0 7.5 5.6 10.85 Q8.15 8.9 6.65 6.75 Z" fill="none" stroke="#313131" stroke-linecap="round" stroke-linejoin="round" stroke-width="1.0"/>
    <path d="M5.2 2.4 L10.8 6.0 Q10.65 8.55 7.45 8.5 L5.2 2.4" fill="url(#gradient3)" fill-rule="evenodd" stroke="none"/>
    <path d="M5.2 2.4 L7.45 8.5 Q10.65 8.55 10.8 6.0 L5.2 2.4 Z" fill="none" stroke="#313131" stroke-linecap="round" stroke-linejoin="round" stroke-width="1.0"/>
    <path d="M12.3 6.4 L18.55 4.75 14.45 9.95 Q11.95 9.6 12.3 6.4" fill="url(#gradient4)" fill-rule="evenodd" stroke="none"/>
    <path d="M12.3 6.4 Q11.95 9.6 14.45 9.95 L18.55 4.75 12.3 6.4 Z" fill="none" stroke="#313131" stroke-linecap="round" stroke-linejoin="round" stroke-width="1.0"/>
    <path d="M15.2 9.35 L20.4 12.8 14.0 13.4 Q12.7 11.2 15.2 9.35" fill="url(#gradient5)" fill-rule="evenodd" stroke="none"/>
    <path d="M15.2 9.35 Q12.7 11.2 14.0 13.4 L20.4 12.8 15.2 9.35 Z" fill="none" stroke="#313131" stroke-linecap="round" stroke-linejoin="round" stroke-width="1.0"/>
    <path d="M16.5 9.75 Q16.5 12.05 14.9 13.65 13.3 15.25 11.0 15.25 8.7 15.25 7.1 13.65 5.5 12.05 5.5 9.75 5.5 7.45 7.1 5.85 8.7 4.25 11.0 4.25 13.3 4.25 14.9 5.85 16.5 7.45 16.5 9.75" fill="#000000" fill-rule="evenodd" stroke="none"/>
    <path d="M13.55 7.5 Q13.1 7.75 13.1 8.2 L13.2 8.6 13.6 8.95 14.2 9.25 14.2 9.45 Q14.2 10.8 13.2 11.75 L12.75 12.2 12.25 12.0 11.9 11.9 11.45 11.8 Q10.75 11.8 10.75 12.45 L10.85 12.75 Q9.55 12.75 8.55 11.75 7.6 10.8 7.6 9.45 7.6 8.1 8.55 7.1 9.55 6.15 10.9 6.15 12.25 6.15 13.2 7.1 L13.55 7.5 M10.55 11.35 L10.9 10.6 Q10.9 10.15 10.55 9.8 10.25 9.45 9.8 9.45 9.3 9.45 9.0 9.8 8.65 10.15 8.65 10.6 8.65 11.05 9.0 11.35 9.3 11.7 9.8 11.7 10.25 11.7 10.55 11.35 M11.1 9.85 L11.25 10.2 11.8 10.55 12.35 10.25 12.5 9.85 Q12.5 9.2 11.8 9.2 11.1 9.2 11.1 9.85 M12.25 8.65 L12.6 7.9 Q12.6 7.45 12.25 7.1 11.95 6.75 11.5 6.75 11.0 6.75 10.7 7.1 10.35 7.45 10.35 7.9 10.35 8.35 10.7 8.65 11.0 9.0 11.5 9.0 11.95 9.0 12.25 8.65" fill="#c6c6c6" fill-rule="evenodd" stroke="none"/>
    <path d="M11.65 14.7 L8.5 20.15 7.65 13.8 Q9.7 12.3 11.65 14.7" fill="url(#gradient6)" fill-rule="evenodd" stroke="none"/>
    <path d="M11.65 14.7 Q9.7 12.3 7.65 13.8 L8.5 20.15 11.65 14.7 Z" fill="none" stroke="#313131" stroke-linecap="round" stroke-linejoin="round" stroke-width="1.0"/>
    <path d="M11.7 4.25 Q10.5 6.5 7.7 5.3 L8.0 -1.0 11.7 4.25" fill="url(#gradient7)" fill-rule="evenodd" stroke="none"/>
    <path d="M11.7 4.25 L8.0 -1.0 7.7 5.3 Q10.5 6.5 11.7 4.25 Z" fill="none" stroke="#313131" stroke-linecap="round" stroke-linejoin="round" stroke-width="1.0"/>
    <path d="M15.6 6.7 L21.95 7.5 16.4 10.75 Q14.25 9.45 15.6 6.7" fill="url(#gradient8)" fill-rule="evenodd" stroke="none"/>
    <path d="M15.6 6.7 Q14.25 9.45 16.4 10.75 L21.95 7.5 15.6 6.7 Z" fill="none" stroke="#313131" stroke-linecap="round" stroke-linejoin="round" stroke-width="1.0"/>
    <path d="M12.9 14.45 Q12.5 12.0 15.45 11.2 L19.0 16.6 12.9 14.45" fill="url(#gradient9)" fill-rule="evenodd" stroke="none"/>
    <path d="M12.9 14.45 L19.0 16.6 15.45 11.2 Q12.5 12.0 12.9 14.45 Z" fill="none" stroke="#313131" stroke-linecap="round" stroke-linejoin="round" stroke-width="1.0"/>
    <path d="M2.55 10.65 L6.4 8.15 Q7.8 9.35 6.8 11.7 L2.55 10.65" fill="url(#gradient10)" fill-rule="evenodd" stroke="none"/>
    <path d="M2.55 10.65 L6.8 11.7 Q7.8 9.35 6.4 8.15 L2.55 10.65 Z" fill="none" stroke="#313131" stroke-linecap="round" stroke-linejoin="round" stroke-width="1.0"/>
  </g>
  <defs>
    <linearGradient gradientTransform="matrix(-0.002, 0.003, -0.0014, -0.001, 14.3, 3.0)" gradientUnits="userSpaceOnUse" id="gradient0" spreadMethod="pad" x1="-819.2" x2="819.2">
      <stop offset="0.0" stop-color="#fae96e"/>
      <stop offset="1.0" stop-color="#c40000"/>
    </linearGradient>
    <linearGradient gradientTransform="matrix(0.0029, -0.0019, 0.001, 0.0015, 6.2, 12.8)" gradientUnits="userSpaceOnUse" id="gradient1" spreadMethod="pad" x1="-819.2" x2="819.2">
      <stop offset="0.0" stop-color="#fae96e"/>
      <stop offset="1.0" stop-color="#c40000"/>
    </linearGradient>
    <linearGradient gradientTransform="matrix(0.0035, 0.0014, -7.0E-4, 0.0017, 3.1, 8.2)" gradientUnits="userSpaceOnUse" id="gradient2" spreadMethod="pad" x1="-819.2" x2="819.2">
      <stop offset="0.0" stop-color="#fae96e"/>
      <stop offset="1.0" stop-color="#c40000"/>
    </linearGradient>
    <linearGradient gradientTransform="matrix(0.0018, 0.0033, -0.0016, 9.0E-4, 7.15, 4.9)" gradientUnits="userSpaceOnUse" id="gradient3" spreadMethod="pad" x1="-819.2" x2="819.2">
      <stop offset="0.0" stop-color="#fae96e"/>
      <stop offset="1.0" stop-color="#c40000"/>
    </linearGradient>
    <linearGradient gradientTransform="matrix(-0.0034, 0.0015, -7.0E-4, -0.0017, 15.85, 6.45)" gradientUnits="userSpaceOnUse" id="gradient4" spreadMethod="pad" x1="-819.2" x2="819.2">
      <stop offset="0.0" stop-color="#fae96e"/>
      <stop offset="1.0" stop-color="#c40000"/>
    </linearGradient>
    <linearGradient gradientTransform="matrix(-0.0033, -0.0015, 7.0E-4, -0.0016, 17.4, 12.05)" gradientUnits="userSpaceOnUse" id="gradient5" spreadMethod="pad" x1="-819.2" x2="819.2">
      <stop offset="0.0" stop-color="#fae96e"/>
      <stop offset="1.0" stop-color="#c40000"/>
    </linearGradient>
    <linearGradient gradientTransform="matrix(0.0013, -0.0034, 0.0016, 6.0E-4, 9.15, 17.15)" gradientUnits="userSpaceOnUse" id="gradient6" spreadMethod="pad" x1="-819.2" x2="819.2">
      <stop offset="0.0" stop-color="#fae96e"/>
      <stop offset="1.0" stop-color="#c40000"/>
    </linearGradient>
    <linearGradient gradientTransform="matrix(4.0E-4, 0.0036, -0.0017, 2.0E-4, 8.8, 2.0)" gradientUnits="userSpaceOnUse" id="gradient7" spreadMethod="pad" x1="-819.2" x2="819.2">
      <stop offset="0.0" stop-color="#fae96e"/>
      <stop offset="1.0" stop-color="#c40000"/>
    </linearGradient>
    <linearGradient gradientTransform="matrix(-0.0036, 1.0E-4, -1.0E-4, -0.0017, 18.9, 8.1)" gradientUnits="userSpaceOnUse" id="gradient8" spreadMethod="pad" x1="-819.2" x2="819.2">
      <stop offset="0.0" stop-color="#fae96e"/>
      <stop offset="1.0" stop-color="#c40000"/>
    </linearGradient>
    <linearGradient gradientTransform="matrix(-0.0024, -0.0027, 0.0013, -0.0012, 16.55, 14.65)" gradientUnits="userSpaceOnUse" id="gradient9" spreadMethod="pad" x1="-819.2" x2="819.2">
      <stop offset="0.0" stop-color="#fae96e"/>
      <stop offset="1.0" stop-color="#c40000"/>
    </linearGradient>
    <linearGradient gradientTransform="matrix(0.0025, 1.0E-4, 0.0, 0.0015, 4.65, 10.35)" gradientUnits="userSpaceOnUse" id="gradient10" spreadMethod="pad" x1="-819.2" x2="819.2">
      <stop offset="0.0" stop-color="#fae96e"/>
      <stop offset="1.0" stop-color="#c40000"/>
    </linearGradient>
  </defs>
</svg>
