<?xml version="1.0" encoding="UTF-8" standalone="no"?>
<svg xmlns:xlink="http://www.w3.org/1999/xlink" height="543.2px" width="363.6px" xmlns="http://www.w3.org/2000/svg">
  <g transform="matrix(1.0, 0.0, 0.0, 1.0, 226.0, 364.75)">
    <path d="M-12.95 -153.05 Q3.3 -144.9 3.3 -133.4 3.3 -121.9 -12.95 -113.75 -29.15 -105.6 -52.05 -105.6 -74.9 -105.6 -91.15 -113.75 -107.35 -121.9 -107.35 -133.4 -107.35 -144.9 -91.15 -153.05 -74.9 -161.2 -52.05 -161.2 -29.15 -161.2 -12.95 -153.05" fill="#679112" fill-rule="evenodd" stroke="none"/>
    <path d="M-12.95 -153.05 Q3.3 -144.9 3.3 -133.4 3.3 -121.9 -12.95 -113.75 -29.15 -105.6 -52.05 -105.6 -74.9 -105.6 -91.15 -113.75 -107.35 -121.9 -107.35 -133.4 -107.35 -144.9 -91.15 -153.05 -74.9 -161.2 -52.05 -161.2 -29.15 -161.2 -12.95 -153.05 Z" fill="none" stroke="#5d3c16" stroke-linecap="round" stroke-linejoin="round" stroke-width="9.0"/>
    <path d="M55.0 95.5 L55.0 -27.75 60.65 -27.75 60.65 -38.5 60.65 -27.75 55.0 -27.75 55.0 95.5 Q46.7 88.45 25.9 82.8 -0.1 75.7 -34.2 73.95 L-34.2 137.15 Q-49.4 137.7 -57.75 137.7 -106.8 137.7 -141.45 128.3 -175.9 118.95 -176.1 105.7 L-176.1 105.55 -176.1 -52.65 60.65 -52.65 60.65 -38.5 72.75 -38.5 72.75 105.1 73.1 105.1 60.65 105.65 60.6 105.65 60.65 105.65 60.65 105.7 60.6 105.7 60.6 105.65 55.9 105.7 55.0 105.7 55.0 95.5 M55.0 -27.75 L-34.2 -27.75 -34.2 73.95 -34.2 -27.75 55.0 -27.75" fill="#5d3c16" fill-rule="evenodd" stroke="none"/>
    <path d="M60.65 -38.5 L60.65 -27.75 55.0 -27.75 55.0 95.5 55.0 105.7 55.9 105.7 60.6 105.65 60.65 105.65 73.1 105.1 72.75 105.1 72.75 -38.5 60.65 -38.5 60.65 -52.65 -176.1 -52.65 -176.1 105.55 -176.1 105.7 Q-175.9 118.95 -141.45 128.3 -106.8 137.7 -57.75 137.7 -49.4 137.7 -34.2 137.15 L-34.2 73.95 -34.2 -27.75 55.0 -27.75 M60.65 105.65 L60.65 105.7 60.6 105.7 60.6 105.65 M55.0 95.5 Q46.7 88.45 25.9 82.8 -0.1 75.7 -34.2 73.95" fill="none" stroke="#5d3c16" stroke-linecap="round" stroke-linejoin="round" stroke-width="9.0"/>
    <path d="M89.15 -60.55 Q88.45 -59.45 87.2 -58.75 118.85 -25.0 110.35 -19.25 105.45 -15.9 92.55 -25.6 105.95 1.3 95.9 5.6 84.45 10.55 61.55 -23.2 73.8 22.0 60.0 24.5 49.9 26.3 39.35 3.5 45.45 35.75 30.65 38.6 15.75 41.45 2.2 10.05 6.4 49.45 -10.15 50.9 -29.7 52.55 -39.85 -1.65 -42.7 47.2 -61.1 47.9 -78.65 48.6 -79.65 4.9 -88.55 39.65 -104.25 38.6 -119.05 37.6 -117.95 5.8 -131.0 29.9 -144.05 26.95 -159.5 23.55 -150.55 -11.9 -166.7 14.15 -179.45 9.9 -191.55 5.95 -182.75 -20.0 -199.9 -4.45 -206.5 -8.75 -215.4 -14.45 -188.45 -45.05 L-190.35 -46.5 Q-199.0 -56.05 -157.6 -83.0 -158.75 -83.5 -159.5 -84.4 -166.05 -92.6 -122.6 -115.4 -104.35 -124.95 -85.1 -133.5 L-78.65 -139.35 -72.05 -134.95 -69.85 -134.25 -69.75 -134.7 -46.1 -134.35 Q-45.95 -133.3 -45.95 -132.25 L-33.95 -134.35 -32.65 -131.65 -20.35 -136.7 -17.7 -133.3 -12.95 -137.25 -2.25 -129.55 Q11.9 -123.05 25.35 -115.75 60.4 -96.85 57.95 -88.3 95.3 -69.55 89.15 -60.55" fill="#ffffff" fill-rule="evenodd" stroke="none"/>
    <path d="M89.15 -60.55 Q95.3 -69.55 57.95 -88.3 60.4 -96.85 25.35 -115.75 11.9 -123.05 -2.25 -129.55 L-12.95 -137.25 -17.7 -133.3 -20.35 -136.7 -32.65 -131.65 -33.95 -134.35 -45.95 -132.25 Q-45.95 -133.3 -46.1 -134.35 L-69.75 -134.7 -69.85 -134.25 -72.05 -134.95 -78.65 -139.35 -85.1 -133.5 Q-104.35 -124.95 -122.6 -115.4 -166.05 -92.6 -159.5 -84.4 -158.75 -83.5 -157.6 -83.0 -199.0 -56.05 -190.35 -46.5 L-188.45 -45.05 Q-215.4 -14.45 -206.5 -8.75 -199.9 -4.45 -182.75 -20.0 -191.55 5.95 -179.45 9.9 -166.7 14.15 -150.55 -11.9 -159.5 23.55 -144.05 26.95 -131.0 29.9 -117.95 5.8 -119.05 37.6 -104.25 38.6 -88.55 39.65 -79.65 4.9 -78.65 48.6 -61.1 47.9 -42.7 47.2 -39.85 -1.65 -29.7 52.55 -10.15 50.9 6.4 49.45 2.2 10.05 15.75 41.45 30.65 38.6 45.45 35.75 39.35 3.5 49.9 26.3 60.0 24.5 73.8 22.0 61.55 -23.2 84.45 10.55 95.9 5.6 105.95 1.3 92.55 -25.6 105.45 -15.9 110.35 -19.25 118.85 -25.0 87.2 -58.75 88.45 -59.45 89.15 -60.55 Z" fill="none" stroke="#5d3c16" stroke-linecap="round" stroke-linejoin="round" stroke-width="9.0"/>
    <path d="M-94.85 -193.0 Q-93.2 -196.7 -86.6 -196.6 -79.35 -196.5 -73.95 -192.2 -72.8 -199.5 -66.0 -203.15 -55.5 -208.7 -50.5 -195.05 -48.8 -202.75 -41.05 -205.6 -30.25 -209.6 -26.4 -196.55 -22.95 -199.7 -17.85 -201.0 -6.45 -203.8 -7.0 -191.35 -1.35 -195.5 5.15 -195.75 18.0 -196.25 6.6 -179.65 14.45 -177.35 0.95 -158.0 -7.25 -146.35 -18.35 -134.4 L-21.95 -134.8 -26.75 -129.5 -35.5 -131.3 Q-38.0 -127.65 -40.85 -124.1 L-50.1 -126.9 -51.45 -124.8 -63.05 -126.65 -63.6 -131.0 -74.2 -131.75 -75.7 -134.9 -82.9 -133.65 Q-94.7 -145.0 -103.6 -156.2 -121.35 -178.55 -106.45 -178.0 L-106.25 -178.0 Q-120.3 -199.05 -106.2 -197.65 -100.1 -197.05 -94.85 -193.0" fill="#ffffff" fill-rule="evenodd" stroke="none"/>
    <path d="M-94.85 -193.0 Q-93.2 -196.7 -86.6 -196.6 -79.35 -196.5 -73.95 -192.2 -72.8 -199.5 -66.0 -203.15 -55.5 -208.7 -50.5 -195.05 -48.8 -202.75 -41.05 -205.6 -30.25 -209.6 -26.4 -196.55 -22.95 -199.7 -17.85 -201.0 -6.45 -203.8 -7.0 -191.35 -1.35 -195.5 5.15 -195.75 18.0 -196.25 6.6 -179.65 14.45 -177.35 0.95 -158.0 -7.25 -146.35 -18.35 -134.4 L-21.95 -134.8 -26.75 -129.5 -35.5 -131.3 Q-38.0 -127.65 -40.85 -124.1 L-50.1 -126.9 -51.45 -124.8 -63.05 -126.65 -63.6 -131.0 -74.2 -131.75 -75.7 -134.9 -82.9 -133.65 Q-94.7 -145.0 -103.6 -156.2 -121.35 -178.55 -106.45 -178.0 L-106.25 -178.0 Q-120.3 -199.05 -106.2 -197.65 -100.1 -197.05 -94.85 -193.0 Z" fill="none" stroke="#5d3c16" stroke-linecap="round" stroke-linejoin="round" stroke-width="9.0"/>
    <path d="M-12.95 -153.05 Q3.3 -144.9 3.3 -133.4 3.3 -121.9 -12.95 -113.75 -29.15 -105.6 -52.05 -105.6 -74.9 -105.6 -91.15 -113.75 -107.35 -121.9 -107.35 -133.4 -107.35 -144.9 -91.15 -153.05 -74.9 -161.2 -52.05 -161.2 -29.15 -161.2 -12.95 -153.05" fill="#679112" fill-rule="evenodd" stroke="none"/>
    <path d="M115.7 125.1 L113.45 120.9 116.6 116.5 126.65 116.3 133.1 122.05 130.75 134.45 125.65 137.5 119.55 123.25 115.7 125.1 119.55 123.25 125.65 137.5 131.1 150.2 126.15 156.15 111.8 155.2 108.9 152.2 114.95 159.6 113.35 167.95 82.6 173.95 80.3 163.45 73.4 168.6 59.65 167.9 55.4 162.25 57.25 159.2 43.1 158.45 32.5 148.55 36.05 137.25 30.25 134.35 27.0 122.1 33.1 116.0 43.15 115.45 46.55 119.6 43.25 127.05 52.8 122.8 64.45 147.5 68.9 140.25 79.35 146.3 81.45 156.95 90.9 144.05 103.35 146.5 103.2 146.25 108.05 128.8 115.7 125.1 M64.45 147.5 L57.25 159.2 64.45 147.5 M81.45 156.95 L79.45 159.6 80.3 163.45 79.45 159.6 81.45 156.95 M108.9 152.2 L104.35 146.65 103.35 146.5 104.35 146.65 108.9 152.2 M36.05 137.25 L38.6 129.1 43.25 127.05 38.6 129.1 36.05 137.25" fill="#50505f" fill-rule="evenodd" stroke="none"/>
    <path d="M125.65 137.5 L130.75 134.45 133.1 122.05 126.65 116.3 116.6 116.5 113.45 120.9 115.7 125.1 119.55 123.25 125.65 137.5 131.1 150.2 126.15 156.15 111.8 155.2 108.9 152.2 114.95 159.6 113.35 167.95 82.6 173.95 80.3 163.45 73.4 168.6 59.65 167.9 55.4 162.25 57.25 159.2 43.1 158.45 32.5 148.55 36.05 137.25 30.25 134.35 27.0 122.1 33.1 116.0 43.15 115.45 46.55 119.6 43.25 127.05 52.8 122.8 64.45 147.5 68.9 140.25 79.35 146.3 81.45 156.95 90.9 144.05 103.35 146.5 103.2 146.25 108.05 128.8 115.7 125.1 M43.25 127.05 L38.6 129.1 36.05 137.25 M103.35 146.5 L104.35 146.65 108.9 152.2 M80.3 163.45 L79.45 159.6 81.45 156.95 M57.25 159.2 L64.45 147.5" fill="none" stroke="#50505f" stroke-linecap="round" stroke-linejoin="round" stroke-width="9.0"/>
    <path d="M-34.15 -27.8 L60.65 -27.8 60.65 105.7 60.6 105.7 60.6 105.55 Q60.6 92.2 25.95 82.8 -0.1 75.7 -34.15 73.95 L-34.15 -27.8" fill="#5d3c16" fill-rule="evenodd" stroke="none"/>
    <path d="M72.7 -38.5 L72.7 105.1 73.05 105.1 55.9 105.7 55.0 105.7 55.0 -38.5 72.7 -38.5" fill="#76a613" fill-rule="evenodd" stroke="none"/>
    <path d="M72.75 -38.5 L72.75 105.1 73.1 105.1 67.75 105.4 67.75 -38.5 72.75 -38.5" fill="#96cd25" fill-rule="evenodd" stroke="none"/>
    <path d="M60.65 -27.75 L-34.2 -27.75 -34.2 137.15 Q-49.4 137.7 -57.75 137.7 -106.8 137.7 -141.45 128.3 -175.9 118.95 -176.1 105.7 L-176.1 105.55 -176.1 -52.65 60.65 -52.65 60.65 -27.75" fill="#af7c3e" fill-rule="evenodd" stroke="none"/>
    <path d="M-162.95 106.45 L-162.95 110.8 -163.4 110.85 Q-170.55 110.75 -176.1 105.05 L-176.1 97.9 Q-170.75 106.0 -163.25 106.45 L-162.95 106.45 M-161.95 51.0 Q-162.6 51.7 -163.45 51.8 -172.15 52.55 -176.1 50.4 L-176.1 43.8 -176.0 43.85 Q-175.15 44.3 -174.9 45.2 -173.5 48.2 -163.85 47.3 -163.0 47.3 -162.25 47.85 -161.55 48.45 -161.45 49.35 -161.4 50.25 -161.95 51.0 M-142.6 92.05 Q-141.7 91.8 -140.9 92.3 -140.15 92.75 -139.95 93.65 -139.7 94.55 -140.2 95.35 -140.7 96.15 -141.6 96.35 -159.15 100.35 -165.6 88.55 -166.05 87.75 -165.8 86.85 -165.55 85.95 -164.75 85.5 L-163.05 85.35 Q-162.2 85.55 -161.75 86.35 -156.5 95.2 -142.6 92.05 M-85.55 104.7 L-85.05 104.95 Q-70.45 115.2 -49.25 110.9 -48.35 110.75 -47.6 111.25 -46.8 111.75 -46.65 112.65 -46.45 113.5 -46.95 114.3 -47.45 115.1 -48.35 115.3 -70.2 119.7 -85.55 110.0 L-85.55 104.7 M-114.9 77.95 Q-115.15 77.05 -114.65 76.3 -114.15 75.5 -113.25 75.3 -112.4 75.05 -111.65 75.55 -101.5 81.6 -86.2 80.05 -85.25 79.95 -84.55 80.55 -83.85 81.1 -83.75 82.0 -83.65 82.95 -84.2 83.65 -84.8 84.35 -85.75 84.5 -102.7 86.25 -113.95 79.35 -114.7 78.85 -114.9 77.95 M-140.15 47.7 Q-139.3 47.7 -138.6 48.45 -132.2 55.1 -113.9 54.8 L-113.9 59.25 Q-134.75 59.6 -141.9 51.45 -142.5 50.75 -142.45 49.85 -142.45 48.9 -141.75 48.3 -141.1 47.7 -140.15 47.7 M-53.85 55.6 Q-53.0 55.35 -52.2 55.8 -51.35 56.25 -51.1 57.1 -50.9 58.0 -51.3 58.8 -51.75 59.6 -52.65 59.85 -71.15 65.2 -86.65 56.7 -87.45 56.25 -87.7 55.4 -87.95 54.5 -87.5 53.7 -87.15 52.9 -86.25 52.65 L-84.5 52.8 Q-70.6 60.35 -53.85 55.6" fill="#8e6129" fill-rule="evenodd" stroke="none"/>
    <path d="M-87.85 3.15 Q-87.85 2.25 -87.15 1.6 -86.55 0.95 -85.6 0.95 -84.7 0.95 -84.0 1.6 -83.4 2.25 -83.4 3.15 L-83.4 136.95 -87.85 136.65 -87.85 3.15 M-165.9 3.15 Q-165.9 2.25 -165.25 1.6 -164.6 0.95 -163.65 0.95 -162.75 0.95 -162.05 1.6 -161.45 2.25 -161.45 3.15 L-161.45 121.1 -165.9 118.75 -165.9 3.15 M-142.85 3.15 Q-142.85 2.25 -142.2 1.6 -141.55 0.95 -140.6 0.95 -139.7 0.95 -139.0 1.6 -138.4 2.25 -138.4 3.15 L-138.4 129.05 -141.4 128.2 -142.85 127.8 -142.85 3.15 M-115.85 3.15 Q-115.85 2.25 -115.2 1.6 -114.55 0.95 -113.65 0.95 -112.7 0.95 -112.05 1.6 -111.4 2.25 -111.4 3.15 L-111.4 134.25 -115.85 133.6 -115.85 3.15" fill="#8e6129" fill-rule="evenodd" stroke="none"/>
    <path d="M-34.15 -6.5 L-34.15 137.1 -33.65 137.1 Q-45.25 137.7 -57.75 137.7 L-59.0 137.7 -59.0 -6.5 -34.15 -6.5" fill="#af7c3e" fill-rule="evenodd" stroke="none"/>
    <path d="M-34.2 -6.45 L-34.2 137.15 Q-49.4 137.7 -57.75 137.7 L-59.05 137.7 -59.05 -6.45 -34.2 -6.45" fill="#76a613" fill-rule="evenodd" stroke="none"/>
    <path d="M-50.4 -6.45 L-50.4 137.65 -57.75 137.7 -59.05 137.7 -59.05 -6.45 -50.4 -6.45" fill="#96cd25" fill-rule="evenodd" stroke="none"/>
    <path d="M70.4 -43.05 Q70.4 -24.8 35.75 -11.9 1.1 1.0 -47.95 1.0 -96.95 1.0 -131.6 -11.9 -166.3 -24.8 -166.3 -43.05 -166.3 -61.25 -131.6 -74.15 -96.95 -87.05 -47.95 -87.05 1.1 -87.05 35.75 -74.15 70.4 -61.25 70.4 -43.05" fill="#ff8c02" fill-rule="evenodd" stroke="none"/>
    <path d="M40.9 -103.45 Q62.0 -84.75 81.2 -65.05 119.5 -25.6 110.3 -19.35 105.35 -16.0 92.45 -25.7 105.85 1.15 95.9 5.45 84.35 10.4 61.5 -23.25 73.8 21.9 59.95 24.4 49.85 26.25 39.3 3.35 45.4 35.6 30.55 38.45 15.7 41.35 2.15 9.9 6.35 49.35 -10.2 50.8 -29.75 52.5 -39.9 -1.75 -42.8 47.1 -61.2 47.85 -78.7 48.5 -79.7 4.8 -88.65 39.5 -104.25 38.45 -119.1 37.5 -117.95 5.75 -131.0 29.75 -144.15 26.8 -159.55 23.4 -150.65 -12.0 -166.75 14.0 -179.5 9.8 -191.6 5.85 -182.8 -20.1 -200.0 -4.55 -206.6 -8.85 -216.25 -15.0 -183.55 -50.7 -167.75 -68.0 -149.95 -84.3 L-143.9 -93.7 -121.8 -86.2 -117.95 -93.75 -88.4 -86.9 -89.0 -83.55 -69.85 -82.1 -70.0 -74.7 -42.45 -75.55 -41.85 -69.6 -20.15 -71.6 -20.95 -76.75 8.9 -82.9 Q14.75 -70.3 19.9 -57.6 16.05 -73.4 13.15 -89.4 L28.75 -92.45 27.45 -94.05 40.9 -103.45" fill="#cd7c1e" fill-rule="evenodd" stroke="none"/>
    <path d="M42.65 -67.85 Q61.7 -45.85 53.0 -39.25 45.1 -33.25 25.05 -47.85 33.8 -23.45 20.75 -18.55 4.95 -12.6 -15.95 -45.55 -12.85 -9.4 -29.65 -8.3 -47.75 -7.05 -56.15 -48.85 -64.9 -20.9 -81.1 -22.6 -95.3 -24.1 -95.0 -46.0 -113.95 -10.85 -129.2 -15.9 -143.75 -20.65 -130.3 -53.95 -158.45 -27.35 -169.45 -35.05 -174.45 -38.6 -171.8 -46.5 -185.8 -41.45 -190.4 -46.5 -199.55 -56.6 -152.45 -86.25 -135.9 -96.7 -118.4 -106.2 L-105.3 -117.0 -98.75 -112.25 -95.7 -116.9 -79.45 -111.3 -78.05 -115.05 -62.35 -113.25 -62.35 -116.0 -31.85 -118.3 -31.65 -117.7 -28.85 -118.75 -20.95 -124.9 -11.9 -117.85 Q13.8 -108.45 38.25 -97.55 96.65 -71.65 89.1 -60.55 82.9 -51.5 42.65 -67.85" fill="#d7984e" fill-rule="evenodd" stroke="none"/>
    <path d="M-94.85 -193.0 Q-93.2 -196.7 -86.6 -196.6 -79.35 -196.5 -73.95 -192.2 -72.8 -199.5 -66.0 -203.15 -55.5 -208.7 -50.5 -195.05 -48.8 -202.75 -41.05 -205.6 -30.25 -209.6 -26.4 -196.55 -22.95 -199.7 -17.85 -201.0 -6.45 -203.8 -7.0 -191.35 -1.35 -195.5 5.15 -195.75 20.05 -196.35 2.3 -173.95 -6.55 -162.75 -18.4 -151.45 L-20.85 -151.85 -31.7 -151.4 -32.55 -154.85 -37.65 -154.15 Q-42.8 -162.25 -46.3 -170.95 -45.8 -163.0 -46.2 -154.65 L-57.3 -151.55 -59.55 -154.55 -59.5 -151.7 -70.75 -149.65 -76.15 -155.95 -75.7 -153.3 -85.45 -152.15 Q-96.55 -164.1 -104.7 -175.8 -121.05 -199.15 -106.2 -197.65 -100.1 -197.05 -94.85 -193.0" fill="#cd7c1e" fill-rule="evenodd" stroke="none"/>
    <path d="M-26.0 -186.95 Q-17.35 -188.9 -17.8 -180.2 -13.45 -183.15 -8.55 -183.35 2.7 -183.7 -10.7 -168.05 -17.4 -160.2 -26.4 -152.35 L-28.45 -152.65 -36.45 -152.3 -37.1 -154.7 -40.95 -154.25 Q-44.9 -159.85 -47.5 -166.0 -47.15 -160.45 -47.4 -154.55 L-55.85 -152.4 -57.55 -154.45 -57.45 -152.5 -66.0 -151.05 -70.1 -155.55 -69.75 -153.6 -77.15 -152.8 Q-85.55 -161.1 -91.7 -169.35 -104.05 -185.6 -92.8 -184.6 -88.15 -184.15 -84.2 -181.3 -83.0 -183.95 -77.95 -183.9 -72.5 -183.85 -68.4 -180.85 -67.55 -185.9 -62.4 -188.45 -54.5 -192.3 -50.65 -182.85 -49.4 -188.2 -43.55 -190.15 -35.35 -193.0 -32.45 -183.85 -29.85 -186.1 -26.0 -186.95" fill="#a35f10" fill-rule="evenodd" stroke="none"/>
    <path d="M57.2 -86.9 Q53.95 -82.75 42.8 -86.0 45.45 -80.0 41.75 -77.05 33.75 -70.5 10.3 -89.75 22.75 -64.7 11.9 -60.35 0.4 -55.7 -16.4 -81.95 -14.8 -64.9 -25.65 -63.1 -38.1 -61.0 -46.6 -82.2 -50.5 -49.55 -64.55 -49.65 -77.6 -49.7 -77.5 -77.75 -91.5 -51.3 -104.2 -55.2 -114.55 -58.35 -109.35 -77.6 -123.85 -65.45 -130.35 -69.65 -137.45 -74.3 -124.05 -92.3 -154.15 -77.7 -159.5 -84.4 -166.05 -92.6 -122.6 -115.4 -104.35 -124.95 -85.1 -133.5 L-78.65 -139.35 -72.05 -134.95 -69.85 -134.25 -69.75 -134.7 -46.1 -134.35 Q-45.95 -133.3 -45.95 -132.25 L-33.95 -134.35 -32.65 -131.65 -20.35 -136.7 -17.7 -133.3 -12.95 -137.25 -2.25 -129.55 Q11.9 -123.05 25.35 -115.75 63.6 -95.15 57.2 -86.9" fill="#deb07a" fill-rule="evenodd" stroke="none"/>
    <path d="M-69.9 -134.35 L-69.85 -134.75 -46.15 -134.4 -46.0 -132.3 -34.05 -134.45 -32.75 -131.65 -20.45 -136.7 -17.8 -133.3 -13.05 -137.3 -2.3 -129.6 11.45 -123.0 Q7.2 -113.8 -7.25 -106.85 -27.45 -97.05 -55.75 -97.55 -84.05 -98.0 -103.95 -108.45 -112.55 -112.95 -117.4 -118.15 -101.7 -126.25 -85.2 -133.55 L-78.65 -139.4 -72.1 -135.0 -69.9 -134.35" fill="#d7984e" fill-rule="evenodd" stroke="none"/>
    <path d="M-154.8 33.85 Q-155.55 35.4 -156.6 35.4 -157.7 35.4 -158.45 33.85 -159.2 32.35 -159.2 30.2 -159.2 28.05 -158.45 26.5 -157.7 24.95 -156.6 24.95 -155.55 24.95 -154.8 26.5 -154.0 28.05 -154.0 30.2 -154.0 32.35 -154.8 33.85 M-173.15 57.75 Q-172.3 57.75 -171.7 58.55 -171.1 59.35 -171.1 60.5 -171.1 61.65 -171.7 62.5 -172.3 63.3 -173.15 63.3 -174.0 63.3 -174.6 62.5 -175.15 61.65 -175.15 60.5 -175.15 59.35 -174.6 58.55 -174.0 57.75 -173.15 57.75 M-121.85 70.7 Q-121.3 70.7 -120.95 72.7 -120.55 74.75 -120.55 77.6 -120.55 80.45 -120.95 82.45 -121.3 84.5 -121.85 84.5 -122.35 84.5 -122.75 82.45 -123.15 80.45 -123.15 77.6 -123.15 74.75 -122.75 72.7 -122.35 70.7 -121.85 70.7 M-152.25 75.05 Q-151.7 74.45 -150.8 74.45 -149.95 74.45 -149.4 75.05 -148.8 75.75 -148.8 76.65 -148.8 77.6 -149.4 78.2 -149.95 78.9 -150.8 78.9 -151.7 78.9 -152.25 78.2 -152.85 77.6 -152.85 76.65 -152.85 75.75 -152.25 75.05 M-97.5 98.4 Q-97.5 96.5 -96.65 95.1 -95.75 93.75 -94.5 93.75 -93.3 93.75 -92.45 95.1 -91.55 96.5 -91.55 98.4 -91.55 100.35 -92.45 101.65 -93.3 103.05 -94.5 103.05 -95.75 103.05 -96.65 101.65 -97.5 100.35 -97.5 98.4 M-78.15 71.3 Q-77.4 70.0 -76.3 70.0 -75.2 70.0 -74.45 71.3 -73.65 72.7 -73.65 74.6 -73.65 76.55 -74.45 77.9 -75.2 79.25 -76.3 79.25 -77.4 79.25 -78.15 77.9 -78.95 76.55 -78.95 74.6 -78.95 72.7 -78.15 71.3" fill="#8e6129" fill-rule="evenodd" stroke="none"/>
    <path d="M46.55 119.65 L43.15 115.5 33.15 116.0 27.05 122.15 30.25 134.35 38.25 138.35 46.55 119.65" fill="#77778c" fill-rule="evenodd" stroke="none"/>
    <path d="M113.5 120.95 L116.6 116.55 126.6 116.4 133.1 122.1 130.75 134.5 123.05 139.05 113.5 120.95" fill="#77778c" fill-rule="evenodd" stroke="none"/>
    <path d="M128.6 118.05 L127.6 123.1 119.9 127.65 115.1 118.6 116.6 116.5 126.65 116.3 128.6 118.05" fill="#9898af" fill-rule="evenodd" stroke="none"/>
    <path d="M41.0 126.65 L33.1 122.65 31.55 117.0 31.7 117.4 33.1 116.0 43.15 115.45 45.0 117.75 41.0 126.65" fill="#9898af" fill-rule="evenodd" stroke="none"/>
    <path d="M122.05 127.75 Q119.7 141.6 102.65 150.75 88.5 158.35 77.35 157.85 64.0 157.25 53.9 150.5 39.0 140.5 38.3 119.95 37.9 108.4 61.05 95.75 81.5 84.3 76.75 78.05 72.95 73.05 61.7 70.9 52.45 69.25 51.05 60.05 49.65 50.65 65.6 41.6 82.05 32.15 81.9 27.9 81.7 22.3 75.7 13.85 L72.4 8.9 Q71.35 6.7 72.55 5.9 73.9 5.05 77.05 7.0 80.0 8.85 83.3 12.4 91.3 21.0 91.5 27.55 91.65 31.85 84.15 37.9 77.3 43.75 78.75 49.25 80.0 54.35 97.85 67.05 115.0 79.3 115.6 84.7 116.0 89.6 111.4 94.0 107.5 98.25 109.4 103.95 110.85 108.0 117.95 115.45 123.3 120.9 122.05 127.75" fill="#ff9933" fill-rule="evenodd" stroke="none"/>
    <path d="M90.85 95.7 Q90.65 97.75 86.75 100.6 83.2 103.45 83.6 106.05 83.9 108.5 91.7 114.55 99.15 120.45 99.15 123.0 99.1 125.35 96.7 127.5 94.6 129.5 95.2 132.25 95.65 134.15 98.6 137.75 100.85 140.3 99.9 143.65 98.1 150.25 89.45 154.6 82.35 158.25 77.1 158.05 70.8 157.75 66.35 154.5 59.8 149.7 60.55 139.85 61.0 134.35 72.7 128.35 83.0 122.85 81.05 119.85 79.55 117.4 74.3 116.4 70.05 115.6 69.8 111.2 69.7 106.75 77.75 102.35 86.05 97.9 86.25 95.85 86.5 92.65 84.75 88.7 L82.95 85.3 87.1 88.85 Q91.05 92.9 90.85 95.7" fill="#db6a24" fill-rule="evenodd" stroke="none"/>
    <path d="M67.0 152.85 L60.8 159.5 43.1 158.5 32.5 148.6 38.6 129.1 52.8 122.85 67.0 152.85" fill="#77778c" fill-rule="evenodd" stroke="none"/>
    <path d="M55.4 162.2 L59.65 167.9 73.35 168.6 82.4 161.85 79.35 146.3 68.9 140.25 55.4 162.2" fill="#77778c" fill-rule="evenodd" stroke="none"/>
    <path d="M131.15 150.2 L126.15 156.15 111.8 155.2 103.2 146.25 108.05 128.85 119.55 123.25 131.15 150.2" fill="#77778c" fill-rule="evenodd" stroke="none"/>
    <path d="M113.4 168.0 L114.95 159.6 104.35 146.65 90.85 144.1 79.4 159.6 82.6 173.95 113.4 168.0" fill="#77778c" fill-rule="evenodd" stroke="none"/>
    <path d="M39.25 138.65 L42.85 127.2 52.8 122.8 65.4 149.4 49.85 148.55 39.25 138.65" fill="#9898af" fill-rule="evenodd" stroke="none"/>
    <path d="M79.35 146.3 L81.0 154.65 78.0 156.9 64.25 156.2 61.25 152.2 61.4 152.45 68.9 140.25 79.35 146.3" fill="#9898af" fill-rule="evenodd" stroke="none"/>
    <path d="M119.55 123.25 L121.9 128.65 120.05 146.25 112.8 149.05 104.05 143.35 108.05 128.8 119.55 123.25" fill="#9898af" fill-rule="evenodd" stroke="none"/>
    <path d="M104.35 146.65 L112.15 156.15 84.0 161.6 82.65 155.25 90.9 144.05 104.35 146.65" fill="#9898af" fill-rule="evenodd" stroke="none"/>
    <path d="M-54.85 -341.0 L6.75 -334.75 -15.25 -149.25 -48.5 -132.9 -84.95 -149.25 -110.1 -331.4 -54.85 -341.0" fill="#7a301b" fill-rule="evenodd" stroke="none"/>
    <path d="M-54.85 -341.0 L6.75 -334.75 -15.25 -149.25 -48.5 -132.9 -84.95 -149.25 -110.1 -331.4 -54.85 -341.0 Z" fill="none" stroke="#7a301b" stroke-linecap="round" stroke-linejoin="round" stroke-width="9.0"/>
    <path d="M113.4 -295.95 Q113.5 -301.2 109.85 -304.9 106.2 -308.6 100.95 -308.6 95.7 -308.6 91.9 -304.9 88.55 -301.55 88.15 -296.95 L70.55 -298.35 Q70.2 -318.75 62.5 -333.35 54.45 -348.7 43.05 -348.7 36.45 -348.7 30.9 -343.55 L-12.15 -309.15 -12.2 -309.05 Q-13.7 -308.1 -14.95 -305.8 -17.0 -301.8 -17.0 -296.15 -17.0 -290.5 -14.95 -286.45 -13.7 -284.1 -12.15 -283.15 L32.8 -247.3 32.6 -247.45 Q37.4 -243.7 43.05 -243.7 54.45 -243.7 62.5 -259.1 69.85 -273.05 70.5 -292.25 L88.15 -294.4 Q88.55 -290.6 91.05 -287.7 L91.7 -287.0 Q95.35 -283.3 100.6 -283.3 105.85 -283.3 109.6 -287.0 113.35 -290.7 113.4 -295.95" fill="#606474" fill-rule="evenodd" stroke="none"/>
    <path d="M113.4 -295.95 Q113.35 -290.7 109.6 -287.0 105.85 -283.3 100.6 -283.3 95.35 -283.3 91.7 -287.0 L91.05 -287.7 Q88.55 -290.6 88.15 -294.4 L70.5 -292.25 Q69.85 -273.05 62.5 -259.1 54.45 -243.7 43.05 -243.7 37.4 -243.7 32.6 -247.45 L32.8 -247.3 -12.15 -283.15 Q-13.7 -284.1 -14.95 -286.45 -17.0 -290.5 -17.0 -296.15 -17.0 -301.8 -14.95 -305.8 -13.7 -308.1 -12.2 -309.05 L-12.15 -309.15 30.9 -343.55 Q36.45 -348.7 43.05 -348.7 54.45 -348.7 62.5 -333.35 70.2 -318.75 70.55 -298.35 L88.15 -296.95 Q88.55 -301.55 91.9 -304.9 95.7 -308.6 100.95 -308.6 106.2 -308.6 109.85 -304.9 113.5 -301.2 113.4 -295.95 Z" fill="none" stroke="#606474" stroke-linecap="round" stroke-linejoin="round" stroke-width="9.0"/>
    <path d="M-221.5 -300.0 Q-221.6 -305.95 -217.4 -310.2 -213.25 -314.45 -207.25 -314.45 -201.25 -314.45 -196.95 -310.2 -193.1 -306.4 -192.65 -301.1 L-172.55 -302.7 Q-172.15 -326.0 -163.35 -342.7 -154.15 -360.25 -141.1 -360.25 -133.55 -360.25 -127.3 -354.3 L-78.1 -315.05 -78.0 -314.95 Q-76.3 -313.85 -74.9 -311.2 -72.55 -306.65 -72.55 -300.2 -72.55 -293.75 -74.9 -289.15 -76.35 -286.45 -78.1 -285.35 L-129.4 -244.4 -129.2 -244.6 Q-134.7 -240.3 -141.1 -240.3 -154.15 -240.3 -163.35 -257.9 -171.7 -273.85 -172.45 -295.75 L-192.65 -298.2 Q-193.1 -293.85 -195.95 -290.55 L-196.7 -289.75 Q-200.85 -285.55 -206.85 -285.55 -212.85 -285.55 -217.15 -289.75 -221.45 -294.0 -221.5 -300.0" fill="#606474" fill-rule="evenodd" stroke="none"/>
    <path d="M-221.5 -300.0 Q-221.45 -294.0 -217.15 -289.75 -212.85 -285.55 -206.85 -285.55 -200.85 -285.55 -196.7 -289.75 L-195.95 -290.55 Q-193.1 -293.85 -192.65 -298.2 L-172.45 -295.75 Q-171.7 -273.85 -163.35 -257.9 -154.15 -240.3 -141.1 -240.3 -134.7 -240.3 -129.2 -244.6 L-129.4 -244.4 -78.1 -285.35 Q-76.35 -286.45 -74.9 -289.15 -72.55 -293.75 -72.55 -300.2 -72.55 -306.65 -74.9 -311.2 -76.3 -313.85 -78.0 -314.95 L-78.1 -315.05 -127.3 -354.3 Q-133.55 -360.25 -141.1 -360.25 -154.15 -360.25 -163.35 -342.7 -172.15 -326.0 -172.55 -302.7 L-192.65 -301.1 Q-193.1 -306.4 -196.95 -310.2 -201.25 -314.45 -207.25 -314.45 -213.25 -314.45 -217.4 -310.2 -221.6 -305.95 -221.5 -300.0 Z" fill="none" stroke="#606474" stroke-linecap="round" stroke-linejoin="round" stroke-width="9.0"/>
    <path d="M79.6 -297.6 L88.25 -296.9 Q88.65 -301.5 92.0 -304.9 95.75 -308.55 101.0 -308.55 106.3 -308.55 109.9 -304.9 113.6 -301.15 113.5 -295.9 113.45 -290.7 109.7 -286.95 105.95 -283.25 100.65 -283.25 95.4 -283.25 91.75 -286.95 L91.1 -287.65 Q88.65 -290.55 88.2 -294.35 L88.2 -295.9 79.6 -295.45 79.6 -296.15 79.6 -297.6 M108.1 -288.95 Q103.7 -289.8 100.8 -291.55 94.45 -295.3 94.45 -303.2 L93.8 -302.6 Q90.85 -299.65 90.85 -295.45 90.85 -291.25 93.8 -288.25 96.75 -285.25 100.95 -285.2 105.15 -285.15 108.15 -288.05 L108.85 -288.85 108.1 -288.95" fill="#969bb4" fill-rule="evenodd" stroke="none"/>
    <path d="M88.2 -294.35 L16.05 -285.6 15.65 -292.25 15.55 -296.15 15.75 -302.6 79.6 -297.6 79.6 -296.15 79.6 -295.45 88.2 -295.9 88.2 -294.35 M108.1 -288.95 L108.85 -288.85 108.15 -288.05 Q105.15 -285.15 100.95 -285.2 96.75 -285.25 93.8 -288.25 90.85 -291.25 90.85 -295.45 90.85 -299.65 93.8 -302.6 L94.45 -303.2 Q94.45 -295.3 100.8 -291.55 103.7 -289.8 108.1 -288.95" fill="#71768c" fill-rule="evenodd" stroke="none"/>
    <path d="M43.1 -348.65 Q54.5 -348.65 62.6 -333.3 70.65 -317.9 70.65 -296.15 70.65 -274.4 62.6 -259.05 54.5 -243.65 43.1 -243.65 37.5 -243.65 32.65 -247.4 L32.85 -247.25 -12.1 -283.1 Q-13.6 -284.05 -14.85 -286.4 -16.95 -290.45 -16.95 -296.1 -16.95 -301.75 -14.85 -305.75 -13.65 -308.05 -12.15 -309.0 L-12.1 -309.1 31.0 -343.5 Q36.5 -348.65 43.1 -348.65" fill="#969bb4" fill-rule="evenodd" stroke="none"/>
    <path d="M32.65 -247.4 L32.85 -247.25 -12.1 -283.1 Q-13.25 -283.85 -14.25 -285.35 L-14.85 -286.4 Q-16.95 -290.45 -16.95 -296.1 L-16.95 -296.45 -16.65 -300.15 66.25 -267.45 Q64.65 -263.05 62.6 -259.05 59.0 -252.2 54.75 -248.4 49.45 -243.65 43.1 -243.65 37.5 -243.65 32.65 -247.4" fill="#71768c" fill-rule="evenodd" stroke="none"/>
    <path d="M-54.85 -341.0 L6.75 -334.75 -15.25 -149.25 -48.5 -132.9 -84.95 -149.25 -110.1 -331.4 -54.85 -341.0" fill="#f73600" fill-rule="evenodd" stroke="none"/>
    <path d="M-54.85 -341.0 L-48.5 -132.9 -84.95 -149.25 -110.1 -331.4 -54.85 -341.0" fill="#ad0303" fill-rule="evenodd" stroke="none"/>
    <path d="M0.45 -316.2 L-3.15 -287.4 -16.4 -301.25 0.45 -316.2 M-5.95 -264.5 L-10.15 -230.25 -20.1 -244.2 -5.95 -264.5 M-45.3 -321.0 L-27.15 -302.05 -46.4 -285.55 -47.5 -323.7 -45.3 -321.0 M-100.0 -324.55 L-63.6 -330.2 -81.0 -306.85 -100.0 -324.55 M-21.75 -296.4 L-6.55 -280.5 -41.2 -279.0 -21.75 -296.4 M-37.55 -269.25 L-7.55 -271.2 -23.45 -248.95 -37.55 -269.25 M-80.3 -295.1 L-64.15 -278.6 -93.25 -277.3 -80.3 -295.1 M-86.05 -215.35 L-74.6 -231.95 -62.45 -213.45 -86.05 -215.35 M-85.65 -300.65 L-97.8 -284.3 -102.25 -317.7 -85.65 -300.65 M-75.9 -246.6 L-89.15 -266.85 -63.2 -266.85 -75.9 -246.6 M-89.9 -224.1 L-94.95 -262.7 -79.95 -240.0 -89.9 -224.1 M-71.75 -180.85 L-85.35 -205.1 -62.65 -202.2 -71.75 -180.85 M-74.35 -174.75 L-81.15 -158.6 -86.45 -198.3 -74.35 -174.75 M-39.65 -216.0 L-25.15 -236.9 -13.55 -221.75 -39.65 -216.0 M-38.85 -204.3 L-15.7 -211.4 -28.55 -182.1 -38.85 -204.3 M-44.45 -219.5 L-45.75 -264.0 -28.7 -241.6 -44.45 -219.5 M-58.2 -255.85 L-57.2 -218.05 -70.3 -238.1 -58.2 -255.85 M-75.4 -301.65 L-60.05 -322.35 -59.0 -286.3 -75.4 -301.65 M-28.95 -167.85 L-22.3 -154.2 -38.0 -146.1 -28.95 -167.85 M-67.3 -172.85 L-56.6 -194.0 -55.3 -151.55 -67.3 -172.85 M-42.45 -150.6 L-43.8 -198.1 -32.05 -174.15 -42.45 -150.6 M-21.7 -306.75 L-42.4 -328.25 -1.35 -324.2 -21.7 -306.75 M-18.75 -160.8 L-25.6 -175.75 -13.2 -205.5 -18.75 -160.8 M-77.5 -152.65 L-70.25 -166.9 -58.7 -144.3 -77.5 -152.65" fill="#6d1800" fill-rule="evenodd" stroke="none"/>
    <path d="M-119.85 -343.35 Q-123.7 -350.8 -128.2 -355.15 L-78.0 -315.05 -77.9 -314.95 Q-76.2 -313.85 -74.8 -311.2 -72.45 -306.65 -72.45 -300.2 -72.45 -293.75 -74.8 -289.15 -76.25 -286.45 -78.0 -285.35 L-129.3 -244.4 Q-124.15 -248.85 -119.85 -257.25 -110.6 -275.05 -110.6 -300.25 -110.6 -325.5 -119.85 -343.35" fill="#969bb4" fill-rule="evenodd" stroke="none"/>
    <path d="M-163.35 -342.7 Q-154.15 -360.25 -141.1 -360.25 -128.1 -360.25 -118.9 -342.7 -109.65 -325.1 -109.65 -300.25 -109.65 -275.45 -118.9 -257.9 -128.1 -240.3 -141.1 -240.3 -154.15 -240.3 -163.35 -257.9 -172.55 -275.45 -172.55 -300.25 -172.55 -325.1 -163.35 -342.7" fill="#71768c" fill-rule="evenodd" stroke="none"/>
    <path d="M-172.55 -300.45 L-109.65 -300.45 -109.65 -300.25 Q-109.65 -275.45 -118.9 -257.9 -128.1 -240.3 -141.1 -240.3 -154.15 -240.3 -163.35 -257.9 -172.55 -275.45 -172.55 -300.25 L-172.55 -300.45" fill="#969bb4" fill-rule="evenodd" stroke="none"/>
    <path d="M-192.65 -298.2 Q-193.1 -293.85 -195.95 -290.55 L-196.7 -289.75 Q-200.85 -285.55 -206.85 -285.55 -212.85 -285.55 -217.15 -289.75 -221.45 -294.0 -221.5 -300.0 -221.6 -305.95 -217.4 -310.2 -213.25 -314.45 -207.25 -314.45 -201.25 -314.45 -196.95 -310.2 -193.1 -306.4 -192.65 -301.1 L-109.85 -307.65 -109.65 -300.25 -109.75 -295.75 -192.6 -300.0 -192.65 -298.2 M-214.45 -309.0 L-215.35 -308.2 Q-218.7 -304.8 -218.6 -300.0 -218.55 -295.2 -215.1 -291.85 -211.7 -288.45 -206.9 -288.45 -202.1 -288.45 -198.75 -291.85 L-198.05 -292.6 Q-211.65 -292.5 -214.45 -309.0" fill="#969bb4" fill-rule="evenodd" stroke="none"/>
    <path d="M-192.65 -298.2 L-192.6 -300.0 -109.75 -295.75 Q-109.85 -291.9 -110.25 -288.2 L-192.65 -298.2 M-214.45 -309.0 Q-211.65 -292.5 -198.05 -292.6 L-198.75 -291.85 Q-202.1 -288.45 -206.9 -288.45 -211.7 -288.45 -215.1 -291.85 -218.55 -295.2 -218.6 -300.0 -218.7 -304.8 -215.35 -308.2 L-214.45 -309.0" fill="#71768c" fill-rule="evenodd" stroke="none"/>
    <path d="M-74.9 -289.15 Q-76.35 -286.45 -78.1 -285.35 L-129.4 -244.4 Q-124.25 -248.85 -119.95 -257.25 -113.3 -270.05 -111.45 -286.75 L-72.7 -297.0 Q-73.15 -292.55 -74.9 -289.15" fill="#71768c" fill-rule="evenodd" stroke="none"/>
    <path d="M2.4 -179.9 Q17.25 -181.35 0.9 -158.0 -7.25 -146.35 -18.35 -134.4 L-21.95 -134.8 -26.75 -129.5 -35.5 -131.3 Q-38.0 -127.65 -40.85 -124.1 L-50.1 -126.9 -51.45 -124.8 -63.05 -126.65 -63.6 -131.0 -74.2 -131.75 -75.7 -134.9 -82.9 -133.65 Q-94.7 -145.0 -103.6 -156.2 -121.35 -178.55 -106.45 -178.0 -95.0 -177.5 -86.1 -165.05 -89.85 -184.6 -75.9 -180.85 -65.75 -178.1 -62.0 -167.75 -58.0 -180.35 -47.35 -176.15 -45.2 -175.3 -43.55 -174.05 -38.8 -179.6 -31.5 -175.5 -27.5 -173.25 -25.45 -169.75 -19.25 -176.25 -10.3 -176.15 L-7.95 -175.95 Q-3.15 -179.35 2.4 -179.9" fill="#d7984e" fill-rule="evenodd" stroke="none"/>
    <path d="M-12.95 -139.95 Q-6.9 -143.0 -3.1 -146.5 3.25 -140.6 3.25 -133.4 3.25 -121.9 -12.95 -113.75 -29.15 -105.55 -52.05 -105.55 -74.95 -105.55 -91.2 -113.75 -107.35 -121.9 -107.35 -133.4 -107.35 -140.6 -101.0 -146.5 -97.2 -143.0 -91.2 -139.95 -74.95 -131.75 -52.05 -131.75 -29.15 -131.75 -12.95 -139.95" fill="#76a613" fill-rule="evenodd" stroke="none"/>
  </g>
</svg>
