<?xml version="1.0" encoding="UTF-8" standalone="no"?>
<svg xmlns:xlink="http://www.w3.org/1999/xlink" height="16.05px" width="51.4px" xmlns="http://www.w3.org/2000/svg">
  <g transform="matrix(1.0, 0.0, 0.0, 1.0, -7.8, -41.7)">
    <path d="M55.5 42.55 L55.5 42.5 55.6 42.45 55.6 42.5 Q55.85 42.45 56.15 42.75 L57.0 43.4 57.35 43.65 Q58.05 44.3 58.25 45.25 L58.3 45.3 58.25 45.3 58.35 45.8 58.45 46.3 58.35 46.35 58.35 46.45 57.95 47.3 57.0 48.05 56.85 48.0 56.85 48.05 56.5 48.1 56.4 48.15 55.95 48.25 55.5 47.8 54.65 47.35 54.45 46.85 Q54.4 46.5 54.7 45.5 L54.9 44.25 Q54.7 43.5 55.4 42.6 L55.5 42.55 55.4 42.6 Q54.7 43.5 54.9 44.25 L54.7 45.5 Q54.4 46.5 54.45 46.85 L54.65 47.35 55.5 47.8 55.95 48.25 55.6 48.3 53.5 48.1 52.3 47.75 51.6 47.1 51.7 46.9 Q51.65 46.6 52.1 45.45 L52.65 44.2 Q53.15 43.4 55.5 42.55" fill="#aa6e36" fill-rule="evenodd" stroke="none"/>
    <path d="M55.95 48.25 L56.4 48.15 56.5 48.1 56.85 48.05 56.85 48.0 57.0 48.05 57.95 47.3 58.35 46.45 58.35 46.35 58.45 46.3 58.35 45.8 58.25 45.3 58.3 45.3 58.25 45.25 Q58.05 44.3 57.35 43.65 L57.0 43.4 56.15 42.75 Q55.85 42.45 55.6 42.5 L55.6 42.45 55.5 42.5 55.5 42.55 55.4 42.6 Q54.7 43.5 54.9 44.25 L54.7 45.5 Q54.4 46.5 54.45 46.85 L54.65 47.35 55.5 47.8 55.95 48.25 55.6 48.3 53.5 48.1 52.3 47.75 51.6 47.1 51.7 46.9 Q51.65 46.6 52.1 45.45 L52.65 44.2 Q53.15 43.4 55.5 42.55" fill="none" stroke="#80491d" stroke-linecap="round" stroke-linejoin="round" stroke-width="1.5"/>
    <path d="M55.95 48.3 L55.55 48.3 53.45 48.15 52.25 47.75 Q51.55 47.35 51.55 47.15 L51.65 46.95 52.05 45.55 52.65 44.25 Q53.15 43.45 55.4 42.55 L55.4 42.6 Q54.7 43.6 54.85 44.3 L54.65 45.55 Q54.35 46.55 54.4 46.9 54.45 47.25 54.65 47.4 L55.5 47.85 55.95 48.3" fill="#c47b35" fill-rule="evenodd" stroke="none"/>
    <path d="M55.4 42.55 L55.55 42.5 55.55 42.55 Q55.85 42.5 56.15 42.75 L56.95 43.4 57.35 43.7 Q58.05 44.4 58.2 45.25 L58.25 45.3 58.2 45.35 58.35 46.35 58.3 46.4 58.3 46.5 57.95 47.35 Q57.45 48.0 56.95 48.05 L56.8 48.05 56.8 48.1 56.5 48.2 56.4 48.2 55.95 48.3 55.5 47.85 54.65 47.4 Q54.45 47.25 54.4 46.9 54.35 46.55 54.65 45.55 L54.85 44.3 Q54.7 43.6 55.4 42.6 L55.4 42.55" fill="#945727" fill-rule="evenodd" stroke="none"/>
    <path d="M13.7 49.35 L13.7 49.3 13.85 49.2 13.85 49.3 Q14.2 49.25 14.6 49.55 L15.65 50.45 16.15 50.8 Q17.1 51.7 17.4 52.9 L17.4 52.95 17.35 53.0 17.5 53.65 17.6 54.3 Q17.55 54.3 17.45 54.4 L17.45 54.55 16.95 55.65 Q16.3 56.5 15.65 56.6 L15.5 56.6 15.45 56.65 15.05 56.7 14.95 56.75 14.35 56.85 13.7 56.25 12.65 55.65 Q12.35 55.5 12.3 55.05 12.2 54.6 12.65 53.25 L12.95 51.6 Q12.65 50.65 13.6 49.4 L13.7 49.35 13.6 49.4 Q12.65 50.65 12.95 51.6 L12.65 53.25 Q12.2 54.6 12.3 55.05 12.35 55.5 12.65 55.65 L13.7 56.25 14.35 56.85 13.9 56.9 11.1 56.7 Q10.4 56.75 9.5 56.15 L8.55 55.4 8.65 55.1 Q8.65 54.7 9.2 53.25 9.65 52.05 10.05 51.55 10.65 50.5 13.7 49.35" fill="#aa6e36" fill-rule="evenodd" stroke="none"/>
    <path d="M14.35 56.85 L14.95 56.75 15.05 56.7 15.45 56.65 15.5 56.6 15.65 56.6 Q16.3 56.5 16.95 55.65 L17.45 54.55 17.45 54.4 Q17.55 54.3 17.6 54.3 L17.5 53.65 17.35 53.0 17.4 52.95 17.4 52.9 Q17.1 51.7 16.15 50.8 L15.65 50.45 14.6 49.55 Q14.2 49.25 13.85 49.3 L13.85 49.2 13.7 49.3 13.7 49.35 13.6 49.4 Q12.65 50.65 12.95 51.6 L12.65 53.25 Q12.2 54.6 12.3 55.05 12.35 55.5 12.65 55.65 L13.7 56.25 14.35 56.85 13.9 56.9 11.1 56.7 Q10.4 56.75 9.5 56.15 L8.55 55.4 8.65 55.1 Q8.65 54.7 9.2 53.25 9.65 52.05 10.05 51.55 10.65 50.5 13.7 49.35" fill="none" stroke="#80491d" stroke-linecap="round" stroke-linejoin="round" stroke-width="1.5"/>
    <path d="M14.3 56.9 L13.7 56.3 12.65 55.7 12.25 55.1 Q12.2 54.65 12.65 53.3 13.05 52.05 12.9 51.65 12.65 50.7 13.6 49.4 L13.65 49.35 13.8 49.25 13.8 49.35 Q14.2 49.3 14.55 49.6 L15.65 50.5 16.15 50.85 Q17.1 51.75 17.3 52.9 L17.35 52.95 17.3 53.05 17.55 54.35 17.4 54.4 17.45 54.55 Q17.5 54.9 16.95 55.65 16.3 56.55 15.65 56.6 L15.45 56.6 15.45 56.65 15.05 56.75 14.9 56.8 14.3 56.9" fill="#945727" fill-rule="evenodd" stroke="none"/>
    <path d="M13.6 49.4 Q12.65 50.7 12.9 51.65 13.05 52.05 12.65 53.3 12.2 54.65 12.25 55.1 L12.65 55.7 13.7 56.3 14.3 56.9 13.8 56.95 11.05 56.7 Q10.4 56.8 9.45 56.2 L8.5 55.4 Q8.5 55.2 8.65 55.15 8.65 54.75 9.15 53.3 L10.0 51.6 Q10.6 50.5 13.6 49.4" fill="#c47b35" fill-rule="evenodd" stroke="none"/>
  </g>
</svg>
