<?xml version="1.0" encoding="UTF-8" standalone="no"?>
<svg xmlns:xlink="http://www.w3.org/1999/xlink" height="3.9px" width="4.0px" xmlns="http://www.w3.org/2000/svg">
  <g transform="matrix(1.0, 0.0, 0.0, 1.0, -0.05, -0.45)">
    <path d="M3.1 3.1 Q2.7 3.55 2.1 3.55 1.5 3.55 1.05 3.1 0.65 2.7 0.65 2.1 0.65 1.5 1.05 1.05 1.5 0.65 2.1 0.65 2.7 0.65 3.1 1.05 3.55 1.5 3.55 2.1 L3.1 3.1" fill="#ffffff" fill-opacity="0.7019608" fill-rule="evenodd" stroke="none"/>
    <path d="M0.35 1.85 L1.7 1.9 1.7 1.85 Q1.55 0.75 2.0 0.45 L2.15 1.9 2.15 1.95 4.05 2.1 2.15 2.3 2.1 4.2 1.85 4.35 1.75 2.3 1.5 2.3 0.15 2.25 0.05 2.15 0.35 1.85" fill="#ffffff" fill-rule="evenodd" stroke="none"/>
  </g>
</svg>
