<?xml version="1.0" encoding="UTF-8" standalone="no"?>
<svg xmlns:xlink="http://www.w3.org/1999/xlink" height="50.7px" width="60.3px" xmlns="http://www.w3.org/2000/svg">
  <g transform="matrix(1.0, 0.0, 0.0, 1.0, -3.55, -6.4)">
    <path d="M49.7 34.2 Q43.8 34.2 39.65 32.9 35.55 31.6 35.55 29.8 35.55 27.95 39.65 26.65 43.8 25.35 49.7 25.35 55.6 25.35 59.7 26.65 63.85 27.95 63.85 29.8 63.85 31.6 59.7 32.9 55.6 34.2 49.7 34.2" fill="#000000" fill-opacity="0.10980392" fill-rule="evenodd" stroke="none"/>
    <path d="M40.75 12.4 Q37.55 13.45 33.0 13.45 28.4 13.45 25.2 12.4 22.0 11.35 22.0 9.9 22.0 8.45 25.2 7.4 28.4 6.4 33.0 6.4 37.55 6.4 40.75 7.4 43.95 8.45 43.95 9.9 43.95 11.35 40.75 12.4" fill="#000000" fill-opacity="0.11372549" fill-rule="evenodd" stroke="none"/>
    <path d="M23.9 42.7 Q23.9 44.35 20.95 45.5 18.0 46.65 13.75 46.65 9.5 46.65 6.55 45.5 3.55 44.35 3.55 42.7 3.55 41.1 6.55 39.9 9.5 38.75 13.75 38.75 18.0 38.75 20.95 39.9 23.9 41.1 23.9 42.7" fill="#000000" fill-opacity="0.11764706" fill-rule="evenodd" stroke="none"/>
    <path d="M34.8 53.0 Q34.8 51.35 38.4 50.15 42.05 48.95 47.2 48.95 52.35 48.95 55.95 50.15 59.6 51.35 59.6 53.0 59.6 54.7 55.95 55.9 52.35 57.1 47.2 57.1 42.05 57.1 38.4 55.9 34.8 54.7 34.8 53.0" fill="#000000" fill-opacity="0.10980392" fill-rule="evenodd" stroke="none"/>
  </g>
</svg>
