<?xml version="1.0" encoding="UTF-8" standalone="no"?>
<svg xmlns:xlink="http://www.w3.org/1999/xlink" height="83.6px" width="179.95px" xmlns="http://www.w3.org/2000/svg">
  <g transform="matrix(1.0, 0.0, 0.0, 1.0, -6.7, -6.0)">
    <path d="M178.9 15.75 Q180.25 19.05 181.8 19.7 L181.8 46.85 181.75 46.95 Q181.1 48.45 181.1 51.05 181.1 53.75 181.55 57.35 181.6 58.55 181.8 59.5 L181.8 68.2 Q181.3 70.25 181.3 74.35 L181.3 75.7 180.9 80.8 Q180.4 80.15 179.7 80.3 178.75 80.4 178.05 82.05 177.55 83.15 177.4 84.75 176.25 84.1 175.0 83.8 172.35 83.15 170.65 84.4 169.45 85.1 169.0 86.65 L144.45 86.65 143.2 85.0 117.95 84.8 109.65 86.65 95.9 86.65 93.8 86.05 88.2 84.5 Q84.6 85.1 82.4 84.55 81.2 84.75 80.55 86.65 L66.25 86.65 65.5 85.15 Q64.95 84.5 64.0 84.15 L59.0 85.15 55.95 85.1 55.3 85.05 Q53.2 85.7 52.25 86.65 L38.05 86.65 Q37.55 85.35 36.65 84.7 L32.4 84.55 30.75 84.45 Q25.4 86.6 24.25 86.65 L24.1 86.65 21.15 86.15 18.1 85.7 Q16.55 85.7 15.7 86.65 L12.0 86.65 Q11.85 82.85 11.2 79.65 L10.6 77.0 10.6 73.9 11.0 71.1 11.05 65.35 10.85 58.15 10.6 54.15 10.6 40.6 10.85 37.9 10.6 26.8 10.6 24.1 10.6 22.9 10.65 22.7 10.6 22.25 Q10.6 20.5 11.05 19.65 L11.4 19.05 11.9 17.15 12.45 14.9 13.85 14.65 13.95 14.65 14.7 13.7 16.8 13.7 19.6 13.35 30.0 13.2 33.45 13.05 61.95 13.05 Q62.85 13.05 63.2 13.55 L63.3 13.7 84.95 13.7 85.15 14.3 85.3 14.6 97.4 14.6 Q101.3 14.7 102.8 15.55 L103.3 15.55 103.5 14.9 Q104.5 15.5 106.05 15.5 109.0 15.5 112.25 13.7 L130.75 13.7 132.7 14.95 135.85 15.0 139.55 15.0 140.3 14.8 144.35 14.6 144.55 14.45 150.8 14.45 151.05 14.8 151.35 14.6 156.8 14.45 157.5 13.7 178.15 13.7 178.9 15.75" fill="#000000" fill-opacity="0.4" fill-rule="evenodd" stroke="none"/>
    <path d="M182.55 17.25 L182.55 44.45 Q181.9 45.9 181.9 48.6 181.9 51.2 182.3 54.8 L182.55 57.0 182.55 65.6 Q182.05 67.6 182.05 71.7 L182.1 73.05 181.7 78.15 Q181.15 77.5 180.5 77.65 179.5 77.7 178.85 79.35 178.4 80.5 178.2 82.1 177.1 81.45 175.85 81.15 173.25 80.5 171.55 81.75 170.35 82.45 169.9 84.0 L145.6 84.0 144.4 82.25 119.4 82.15 111.2 84.0 97.55 84.0 95.55 83.4 Q91.45 82.4 90.0 81.85 86.4 82.45 84.2 81.9 83.0 82.1 82.35 84.0 L68.2 84.0 67.45 82.5 Q66.95 81.85 66.05 81.5 L61.05 82.5 58.05 82.45 57.4 82.4 Q55.35 83.05 54.4 84.0 L40.3 84.0 Q39.8 82.7 38.9 81.95 L34.75 81.9 33.15 81.8 26.7 84.0 26.6 84.0 23.55 83.5 20.6 83.05 Q19.05 83.05 18.2 84.0 L14.55 84.0 Q14.4 80.2 13.8 77.0 L13.2 74.4 13.2 71.3 13.55 68.5 13.6 62.75 13.4 55.6 13.2 51.6 13.2 38.1 13.4 35.4 13.2 24.3 13.2 21.7 13.2 20.45 13.25 20.3 13.2 19.8 Q13.2 18.1 13.6 17.2 L13.95 16.6 14.45 14.7 15.0 12.5 16.35 12.3 16.45 12.3 17.2 11.35 19.3 11.35 22.15 11.0 32.35 10.8 35.8 10.7 64.0 10.7 Q64.85 10.7 65.2 11.2 L65.35 11.35 86.7 11.35 86.9 11.95 87.05 12.2 99.05 12.2 Q102.9 12.35 104.4 13.15 L104.85 13.15 105.1 12.5 Q106.1 13.05 107.65 13.05 110.55 13.05 113.75 11.35 L132.05 11.35 134.0 12.6 137.1 12.65 140.8 12.65 141.45 12.4 145.5 12.2 145.7 12.05 151.9 12.05 152.15 12.4 152.45 12.2 157.85 12.05 158.5 11.35 178.95 11.35 179.7 13.35 Q181.05 16.6 182.55 17.25" fill="#71b632" fill-rule="evenodd" stroke="none"/>
    <path d="M171.2 8.3 Q171.2 10.1 170.2 12.45 L168.45 16.3 167.9 16.55 167.1 16.35 Q166.9 16.2 166.9 15.4 166.9 14.6 168.25 11.2 169.65 7.6 170.4 7.1 L171.0 7.35 Q171.2 7.5 171.2 8.3 M179.45 38.4 Q179.2 38.15 179.2 37.4 179.2 36.6 182.45 35.7 185.5 34.9 186.4 35.05 L186.55 35.1 186.65 35.9 Q186.65 37.5 184.5 38.05 L179.65 38.6 179.45 38.4 M185.85 69.7 L186.2 70.1 Q186.2 70.9 185.75 71.1 L184.9 71.3 180.4 71.3 Q179.15 70.85 177.7 69.6 177.85 68.45 178.4 68.35 L184.9 68.8 185.85 69.7 M167.55 86.55 Q167.4 86.8 167.4 87.1 L167.3 87.35 166.4 87.6 Q165.3 87.6 164.65 84.8 164.2 82.85 164.2 81.7 L164.3 80.4 164.45 79.3 Q167.1 79.2 167.65 82.4 167.9 84.0 167.65 85.65 L167.55 86.55 M146.65 11.15 L146.75 8.75 Q146.95 7.45 147.9 7.05 148.6 7.55 149.15 9.55 L149.15 14.05 148.9 14.35 147.9 14.6 Q146.85 14.6 146.65 12.95 L146.65 11.15 M112.95 83.0 Q112.9 86.2 113.45 87.1 L113.2 87.75 Q112.95 88.1 112.15 88.1 L111.2 88.0 111.15 87.85 Q110.7 86.8 110.7 84.1 L110.8 81.3 Q111.05 79.55 111.9 79.05 113.0 80.1 112.95 83.0 M127.15 83.55 Q127.05 82.65 127.2 81.75 127.4 80.05 128.4 79.35 129.75 80.55 129.7 82.65 129.6 85.3 129.95 86.05 L129.9 86.7 Q129.7 87.1 128.9 87.1 127.45 87.1 127.15 85.35 L127.15 83.55 M46.45 6.35 Q48.4 5.55 48.95 6.5 L49.2 8.3 48.85 11.2 Q48.45 13.95 47.9 14.55 47.65 14.35 46.9 11.25 46.2 8.15 46.2 7.45 L46.25 6.7 46.45 6.35 M22.15 10.05 L22.2 8.55 Q24.4 8.1 24.95 9.55 L25.15 11.65 24.95 14.55 24.8 14.85 23.9 15.1 Q22.9 15.1 22.15 10.05 M7.5 67.55 L6.7 66.6 Q7.65 65.3 11.3 64.65 L15.45 64.3 15.7 64.55 Q15.9 64.8 15.9 65.55 15.9 66.25 14.4 67.1 12.85 68.05 11.4 68.05 L7.5 67.55 M25.4 88.55 L24.4 89.05 Q23.4 87.7 23.4 86.45 L23.7 79.55 24.65 79.55 25.15 82.35 25.4 85.1 25.4 88.55 M74.7 86.7 Q74.7 85.1 75.2 80.1 L76.15 80.05 76.95 84.85 76.95 89.05 75.9 89.6 Q74.7 88.35 74.7 86.7" fill="#6c833f" fill-rule="evenodd" stroke="none"/>
  </g>
</svg>
