<?xml version="1.0" encoding="UTF-8" standalone="no"?>
<svg xmlns:xlink="http://www.w3.org/1999/xlink" height="32.6px" width="76.4px" xmlns="http://www.w3.org/2000/svg">
  <g transform="matrix(1.0, 0.0, 0.0, 1.0, -18.2, -14.1)">
    <path d="M32.5 33.9 L32.75 34.1 32.6 36.85 32.45 39.35 32.05 44.2 31.9 45.85 31.85 46.5 31.6 46.7 28.0 46.7 28.0 33.2 28.6 33.2 Q30.45 33.2 32.5 33.9 M34.45 17.05 L34.35 17.05 34.1 17.5 34.0 18.15 33.65 20.9 33.65 21.1 33.6 21.8 33.6 22.05 34.15 22.0 34.5 21.95 35.9 21.55 36.55 21.1 37.0 20.0 37.3 18.85 35.9 17.75 Q34.85 17.05 34.45 17.05 M27.95 14.35 Q27.95 16.15 27.0 17.75 L26.2 17.75 25.0 17.85 22.95 17.95 22.75 18.0 22.45 18.05 22.05 18.2 22.05 18.45 Q22.05 19.05 22.3 19.1 L23.1 19.2 24.3 19.4 25.5 19.6 26.35 19.75 26.5 19.8 27.0 20.0 27.2 20.4 27.75 21.6 28.05 22.3 28.2 22.65 28.35 23.15 28.4 23.3 28.4 23.6 28.4 23.8 28.35 24.05 26.55 26.55 26.1 27.2 25.8 27.5 25.6 27.7 25.45 27.85 23.4 27.85 22.75 27.8 21.8 27.75 20.25 27.6 19.3 27.45 19.1 27.35 19.05 27.15 18.75 26.15 Q18.4 24.85 18.4 24.05 L24.3 24.7 24.3 24.35 24.3 23.85 Q24.2 22.7 23.4 22.7 L22.05 22.9 21.9 22.9 21.65 22.9 21.35 22.9 21.1 22.9 20.75 22.9 20.5 22.9 18.25 20.65 18.2 20.3 Q18.2 18.95 18.8 16.5 L18.9 16.15 19.0 16.1 19.2 15.95 19.4 15.8 19.6 15.7 20.35 15.2 21.15 14.8 27.95 14.35 M43.85 33.45 Q44.25 33.45 44.25 33.85 44.25 35.95 43.6 37.5 L43.35 37.8 41.1 37.8 40.8 38.15 40.8 46.7 35.5 46.7 35.25 46.5 35.25 46.35 35.25 46.25 35.45 45.45 36.05 42.85 36.85 39.5 36.9 39.25 37.05 38.15 34.1 38.6 Q34.1 36.3 34.6 33.9 L41.55 33.45 43.85 33.45 M57.85 33.85 L58.55 33.7 61.65 33.15 62.5 33.0 62.65 33.0 63.05 33.5 63.5 36.5 63.65 38.4 Q63.85 40.6 64.1 41.3 L65.35 37.75 67.2 33.55 67.25 33.45 73.15 33.45 73.15 34.1 73.15 36.1 73.1 36.8 73.05 38.25 72.85 41.9 72.75 43.6 72.7 44.85 72.65 45.35 72.45 46.25 68.6 46.25 68.6 38.6 68.4 38.75 68.25 38.9 67.95 39.3 67.8 39.6 67.7 39.95 66.2 43.35 64.55 46.7 64.3 46.7 64.05 46.7 63.5 46.65 62.2 46.45 Q61.5 46.25 61.4 46.05 L61.3 43.75 61.2 42.4 61.2 41.55 61.2 40.8 61.2 40.15 60.95 38.85 60.8 39.4 60.4 41.15 60.1 42.75 59.8 44.35 59.65 44.95 59.6 45.35 59.4 46.0 59.15 46.25 56.7 46.25 56.55 46.15 56.45 46.05 56.45 45.8 56.6 43.9 57.2 37.1 57.35 35.0 57.55 33.9 57.85 33.85 M53.55 33.0 L53.9 32.95 54.15 33.25 54.25 33.75 54.6 35.9 54.6 36.1 54.6 36.3 Q54.6 36.7 53.55 36.85 L51.55 37.1 Q50.5 37.35 50.5 38.05 L50.5 38.2 50.55 38.4 Q50.6 38.7 50.75 38.7 L53.7 38.7 53.75 38.85 53.8 39.3 53.9 40.2 53.9 41.1 Q51.9 42.0 51.0 42.65 L50.75 42.9 50.8 43.25 50.85 43.5 50.85 43.65 54.85 43.65 54.8 44.0 54.65 44.7 54.4 45.5 54.15 46.5 53.9 46.7 46.7 46.7 46.7 37.95 47.15 37.35 45.3 37.35 45.35 37.15 45.35 36.35 45.45 35.65 45.55 34.9 45.8 33.45 53.55 33.0 M41.55 17.5 L41.55 18.2 41.45 18.85 41.1 21.55 40.65 22.25 40.3 22.55 38.65 24.05 38.5 24.15 38.4 24.25 36.2 24.7 35.45 24.7 35.15 24.95 35.15 27.4 35.05 27.45 34.35 27.65 31.35 27.85 30.95 27.85 30.75 27.85 30.55 26.5 29.85 15.25 30.25 15.0 30.95 14.95 31.95 14.8 33.1 14.7 35.9 14.35 36.4 14.35 37.5 15.0 38.3 15.45 40.2 16.6 40.45 16.8 40.85 17.05 41.55 17.5 M42.65 16.8 L42.75 16.05 43.0 14.6 50.75 14.15 51.1 14.1 Q51.3 14.1 51.35 14.4 L51.45 14.9 51.8 17.05 51.8 17.25 51.8 17.45 Q51.8 17.85 50.75 18.0 L48.75 18.25 Q47.7 18.5 47.7 19.2 L47.7 19.35 47.75 19.55 47.95 19.85 50.9 19.85 50.95 20.0 51.0 20.45 51.1 21.35 51.1 22.25 Q49.1 23.15 48.2 23.8 L47.95 24.05 48.0 24.4 48.05 24.65 48.05 24.8 52.05 24.8 52.0 25.15 51.85 25.85 51.6 26.65 51.35 27.65 51.1 27.85 43.9 27.85 43.9 19.1 44.35 18.5 42.5 18.5 42.55 18.3 42.55 17.5 42.65 16.8 M77.1 17.2 L77.1 17.45 77.1 18.05 77.1 18.65 77.15 19.5 77.2 20.5 77.35 21.8 77.55 22.25 77.75 22.25 78.0 22.25 Q79.75 22.25 80.2 21.6 L80.7 20.5 80.95 19.3 80.95 19.2 80.95 19.1 Q80.95 18.7 80.1 18.2 L78.35 17.5 77.1 17.2 M64.3 17.25 L64.1 18.2 64.0 18.85 63.6 18.85 63.2 18.85 61.7 18.75 60.25 18.6 59.35 18.75 Q58.3 19.2 57.25 20.45 L58.1 20.45 58.15 20.85 58.35 22.45 58.55 23.65 58.55 23.8 58.75 23.85 59.1 23.9 59.55 24.0 59.95 24.05 60.1 24.05 60.4 24.05 Q61.15 24.05 62.3 23.25 63.45 22.45 63.85 22.45 64.3 22.45 64.6 23.15 L64.9 24.25 64.9 24.55 64.65 25.15 64.4 25.85 64.1 26.55 Q63.85 26.95 62.85 27.2 L62.1 27.35 59.5 27.85 59.35 27.85 59.2 27.85 59.0 27.85 58.75 27.75 58.25 27.45 57.7 27.2 56.75 26.7 55.2 25.85 55.1 25.7 54.9 25.4 54.5 24.25 54.3 23.45 53.6 21.0 53.4 20.2 53.35 20.1 53.35 20.0 Q53.35 19.45 53.9 18.85 L55.4 17.1 55.85 16.5 56.35 15.85 57.15 14.85 57.35 14.7 57.5 14.5 57.7 14.35 57.85 14.35 58.1 14.35 58.4 14.35 58.8 14.35 59.05 14.35 59.35 14.35 62.75 14.85 63.75 15.05 63.9 15.05 64.65 15.25 64.65 15.7 64.5 16.35 64.3 17.25 M66.5 14.35 L67.1 14.35 Q68.95 14.35 71.0 15.05 71.25 15.1 71.25 15.25 L71.1 18.0 70.95 20.5 70.55 25.35 70.4 27.0 70.35 27.65 70.1 27.85 66.5 27.85 66.5 14.35 M82.65 36.6 L81.45 36.7 79.4 36.8 79.2 36.85 78.9 36.9 78.5 37.05 78.5 37.3 Q78.5 37.9 78.75 37.95 L79.55 38.05 80.75 38.25 81.95 38.45 82.8 38.6 82.95 38.65 83.45 38.85 83.65 39.25 84.2 40.45 84.5 41.15 84.65 41.5 84.8 42.0 84.85 42.15 84.85 42.45 84.85 42.65 84.8 42.9 83.0 45.4 82.55 46.05 82.25 46.35 82.05 46.55 81.9 46.7 79.85 46.7 79.2 46.65 78.25 46.6 76.7 46.45 75.75 46.3 75.55 46.2 75.5 46.0 75.2 45.0 Q74.85 43.7 74.85 42.9 L80.75 43.55 80.75 43.2 80.75 42.7 Q80.65 41.55 79.85 41.55 L78.5 41.75 78.35 41.75 78.1 41.75 77.8 41.75 77.55 41.75 77.2 41.75 76.95 41.75 74.7 39.5 74.65 39.15 Q74.65 37.8 75.25 35.35 L75.35 35.0 75.45 34.95 75.65 34.8 75.85 34.65 76.05 34.55 76.8 34.05 Q77.3 33.7 77.6 33.65 L84.4 33.2 Q84.4 35.0 83.45 36.6 L82.65 36.6 M81.15 14.6 L81.8 14.6 83.15 14.75 83.4 14.8 84.75 26.75 84.8 27.1 84.55 27.65 80.6 27.9 80.6 24.95 80.05 24.7 77.35 25.2 77.35 27.65 72.65 27.65 74.4 15.5 74.6 14.7 Q74.75 14.35 75.25 14.35 L75.75 14.35 77.05 14.4 80.3 14.55 81.15 14.6 M90.35 15.0 L90.75 15.0 91.45 14.95 90.3 24.25 90.1 24.7 90.3 24.7 91.65 24.25 93.0 23.8 93.4 23.8 93.55 23.8 93.7 23.8 93.8 24.05 94.05 25.05 94.6 27.65 94.6 27.75 94.6 27.85 86.5 27.85 86.5 15.5 87.9 15.25 90.1 15.05 90.35 15.0" fill="#ffffff" fill-rule="evenodd" stroke="none"/>
  </g>
</svg>
