<?xml version="1.0" encoding="UTF-8" standalone="no"?>
<svg xmlns:xlink="http://www.w3.org/1999/xlink" height="3.25px" width="2.7px" xmlns="http://www.w3.org/2000/svg">
  <g transform="matrix(1.0, 0.0, 0.0, 1.0, 0.0, 0.0)">
    <path d="M2.7 1.6 L2.7 1.7 2.65 1.75 2.6 1.8 2.5 1.9 1.7 2.05 1.75 2.7 Q1.8 3.15 1.5 3.25 1.15 3.0 1.2 2.45 L1.3 2.05 0.0 1.65 0.0 1.55 0.05 1.5 0.1 1.45 0.15 1.35 0.3 1.35 0.95 1.3 1.3 1.3 1.25 0.55 Q1.2 0.1 1.5 0.0 1.85 0.25 1.8 0.8 L1.75 1.3 2.4 1.3 Q2.65 1.3 2.7 1.5 L2.7 1.6" fill="#ffffff" fill-rule="evenodd" stroke="none"/>
  </g>
</svg>
