<?xml version="1.0" encoding="UTF-8" standalone="no"?>
<svg xmlns:xlink="http://www.w3.org/1999/xlink" height="44.0px" width="39.45px" xmlns="http://www.w3.org/2000/svg">
  <g transform="matrix(1.0, 0.0, 0.0, 1.0, 19.55, 21.15)">
    <path d="M9.75 22.85 L19.9 9.5 19.9 22.85 9.75 22.85 M16.8 -7.7 Q16.4 -5.8 15.85 -4.9 15.0 -3.65 12.85 -2.5 8.85 -0.55 7.0 5.2 6.65 6.45 4.85 7.45 3.2 8.45 2.5 11.1 1.8 14.1 -0.35 16.15 L-2.35 17.55 4.7 22.85 -0.45 22.85 Q-0.3 20.1 -1.9 18.45 L-3.7 16.1 Q-4.2 14.65 -3.95 12.3 -3.3 7.85 -7.0 3.1 -7.85 2.05 -7.7 -0.05 -7.55 -1.95 -9.35 -3.95 -11.4 -6.25 -11.85 -9.2 L-11.9 -11.6 -19.55 -9.05 -19.55 -21.15 19.9 -21.15 19.9 -11.2 19.65 -11.45 Q17.25 -10.0 16.8 -7.7 M-19.55 22.85 L-19.55 6.05 -14.0 22.85 -19.55 22.85" fill="#00ccff" fill-rule="evenodd" stroke="none"/>
  </g>
</svg>
