<?xml version="1.0" encoding="UTF-8" standalone="no"?>
<svg xmlns:xlink="http://www.w3.org/1999/xlink" height="23.15px" width="20.15px" xmlns="http://www.w3.org/2000/svg">
  <g transform="matrix(1.0, 0.0, 0.0, 1.0, -17.5, -1.35)">
    <path d="M31.05 10.25 L31.1 10.25 31.45 10.8 31.05 10.25" fill="#00b72e" fill-rule="evenodd" stroke="none"/>
    <path d="M31.45 10.8 L31.95 11.9 31.5 14.95 Q30.7 18.3 28.5 19.8 25.6 21.7 21.55 23.1 L18.05 24.0 18.0 23.55 19.9 21.2 24.55 16.1 29.9 11.15 31.05 10.25 31.45 10.8" fill="#009b27" fill-rule="evenodd" stroke="none"/>
    <path d="M18.0 23.55 Q18.2 21.6 18.7 19.35 19.9 14.55 22.05 12.75 25.1 10.25 28.35 10.0 L31.0 10.15 31.05 10.25 29.9 11.15 24.55 16.1 19.9 21.2 18.0 23.55" fill="#00ae2c" fill-rule="evenodd" stroke="none"/>
    <path d="M18.0 23.55 Q18.2 21.6 18.7 19.35 19.9 14.55 22.05 12.75 25.1 10.25 28.35 10.0 L31.0 10.15 31.05 10.25 31.45 10.8 31.95 11.9 31.5 14.95 Q30.7 18.3 28.5 19.8 25.6 21.7 21.55 23.1 L18.05 24.0 18.0 23.55 Z" fill="none" stroke="#008822" stroke-linecap="round" stroke-linejoin="round" stroke-width="1.0"/>
    <path d="M31.05 20.35 Q30.8 20.45 30.65 20.65 L29.3 17.35 Q27.85 13.2 27.65 9.65 27.55 7.0 29.7 4.4 30.7 3.1 31.8 2.15 L33.0 1.95 33.75 1.85 33.7 3.4 33.0 10.6 31.75 17.35 31.05 20.35" fill="#009b27" fill-rule="evenodd" stroke="none"/>
    <path d="M33.0 1.95 L33.75 1.8 33.75 1.85 33.0 1.95" fill="#00b72e" fill-rule="evenodd" stroke="none"/>
    <path d="M33.75 1.85 Q34.75 2.55 35.55 3.85 37.35 6.65 37.1 10.6 37.0 13.4 33.95 17.3 L31.05 20.35 31.75 17.35 33.0 10.6 33.7 3.4 33.75 1.85" fill="#00ae2c" fill-rule="evenodd" stroke="none"/>
    <path d="M33.75 1.85 Q34.75 2.55 35.55 3.85 37.35 6.65 37.1 10.6 37.0 13.4 33.95 17.3 L31.05 20.35 Q30.8 20.45 30.65 20.65 L29.3 17.35 Q27.85 13.2 27.65 9.65 27.55 7.0 29.7 4.4 30.7 3.1 31.8 2.15 L33.0 1.95 M33.75 1.85 L33.0 1.95" fill="none" stroke="#008822" stroke-linecap="round" stroke-linejoin="round" stroke-width="1.0"/>
  </g>
</svg>
