<?xml version="1.0" encoding="UTF-8" standalone="no"?>
<svg xmlns:xlink="http://www.w3.org/1999/xlink" height="41.35px" width="31.0px" xmlns="http://www.w3.org/2000/svg">
  <g transform="matrix(1.0, 0.0, 0.0, 1.0, 13.75, 22.85)">
    <path d="M11.3 -22.85 L12.85 -22.55 15.85 -20.85 16.9 -19.85 17.25 -18.6 17.15 14.0 Q17.15 14.9 16.65 15.55 L15.25 16.6 12.4 17.6 11.9 17.8 10.5 18.25 8.95 18.45 Q8.1 18.35 7.45 17.8 L-12.8 1.05 -13.55 -0.1 -13.7 -1.4 -13.3 -4.2 Q-13.05 -5.25 -12.2 -5.85 L9.75 -22.25 Q10.4 -22.8 11.3 -22.85 M10.05 12.65 L11.4 12.1 11.45 -16.7 -7.8 -2.3 -8.05 -2.2 10.0 12.65 10.05 12.65" fill="#35220d" fill-rule="evenodd" stroke="none"/>
    <path d="M-7.65 -3.2 L8.75 -15.3 11.55 -13.75 11.45 12.25 11.15 12.35 -7.65 -3.2" fill="#6d461b" fill-rule="evenodd" stroke="none"/>
    <path d="M-8.9 -4.95 L11.45 -20.15 Q12.4 -19.75 14.35 -18.6 L14.25 11.2 Q13.5 11.4 12.95 11.75 L11.45 12.25 11.55 -13.75 8.75 -15.3 -7.65 -3.2 -9.1 -4.45 -8.9 -4.95" fill="#603e17" fill-rule="evenodd" stroke="none"/>
    <path d="M14.25 11.2 L14.25 14.0 11.45 15.05 11.15 15.2 9.35 15.75 -10.65 -0.8 -10.9 -1.0 -10.5 -3.8 -8.9 -4.95 -9.1 -4.45 -7.65 -3.2 11.15 12.35 11.45 12.25 12.95 11.75 Q13.5 11.4 14.25 11.2" fill="#895721" fill-rule="evenodd" stroke="none"/>
    <path d="M9.1 -11.9 L10.0 -11.35 10.0 4.75 9.75 6.55 Q9.65 6.5 9.5 4.85 L9.6 4.75 9.6 -11.2 Q9.35 -11.6 8.75 -11.6 7.05 -11.6 3.25 -8.6 L4.1 -9.3 Q7.05 -11.9 9.1 -11.9 M6.05 -6.6 L6.95 -6.5 7.6 -5.75 7.6 0.3 6.95 4.25 Q6.6 5.15 6.05 5.15 3.9 5.15 -0.05 1.4 -4.2 -2.65 -1.1 -4.9 L1.75 -7.25 Q-0.95 -4.85 -1.95 -3.15 L-1.95 -2.05 Q-1.55 -0.4 1.6 2.2 4.8 4.85 6.05 4.85 6.3 4.85 6.35 3.95 L7.25 0.4 7.25 -5.75 Q6.85 -6.25 6.05 -6.25 4.9 -6.1 3.9 -5.45 1.75 -4.05 1.75 -1.6 L1.85 -0.4 Q2.2 0.6 4.15 0.6 5.85 -0.1 5.65 -2.55 5.5 -3.0 4.8 -3.0 L3.9 -2.5 3.9 -1.65 4.55 -1.75 4.55 -1.5 4.45 -1.4 3.65 -1.5 3.6 -2.5 4.25 -3.15 4.9 -3.2 5.35 -3.2 Q6.0 -3.0 6.0 -1.8 6.0 1.0 3.3 1.0 L2.4 0.8 1.45 -0.4 1.45 -1.6 Q1.75 -4.25 3.6 -5.6 4.8 -6.6 6.05 -6.6" fill="#563715" fill-rule="evenodd" stroke="none"/>
    <path d="M17.25 -18.6 L17.15 14.0 Q17.15 14.9 16.65 15.55 L15.25 16.6 12.4 17.6 11.9 17.8 10.5 18.25 8.95 18.45 Q8.1 18.35 7.45 17.8 L-12.8 1.05 -13.55 -0.1 -13.7 -1.4 -13.3 -4.2 Q-13.05 -5.25 -12.2 -5.85 L9.75 -22.25 Q10.4 -22.8 11.3 -22.85 L12.85 -22.55 15.85 -20.85 16.9 -19.85 17.25 -18.6" fill="#c5ad5a" fill-opacity="0.7019608" fill-rule="evenodd" stroke="none"/>
  </g>
</svg>
