<?xml version="1.0" encoding="UTF-8" standalone="no"?>
<svg xmlns:xlink="http://www.w3.org/1999/xlink" height="67.7px" width="36.7px" xmlns="http://www.w3.org/2000/svg">
  <g transform="matrix(1.0, 0.0, 0.0, 1.0, 22.75, 131.85)">
    <path d="M-5.4 -130.35 Q1.65 -130.65 6.85 -122.5 12.0 -114.35 12.45 -102.6 12.55 -97.7 5.4 -81.2 1.8 -72.95 -1.85 -65.65 -6.65 -72.55 -11.4 -80.55 -21.05 -96.5 -21.2 -101.45 -21.65 -113.2 -17.0 -121.65 -12.45 -130.1 -5.4 -130.35" fill="#ff9933" fill-rule="evenodd" stroke="none"/>
    <path d="M-5.4 -130.35 Q1.65 -130.65 6.85 -122.5 12.0 -114.35 12.45 -102.6 12.55 -97.7 5.4 -81.2 1.8 -72.95 -1.85 -65.65 -6.65 -72.55 -11.4 -80.55 -21.05 -96.5 -21.2 -101.45 -21.65 -113.2 -17.0 -121.65 -12.45 -130.1 -5.4 -130.35 Z" fill="none" stroke="#db6a24" stroke-linecap="round" stroke-linejoin="round" stroke-width="3.0"/>
    <path d="M-7.9 -102.05 Q-13.3 -111.0 -13.4 -113.8 -13.65 -120.35 -11.05 -125.15 -8.5 -129.9 -4.5 -130.05 -0.55 -130.2 2.4 -125.6 5.3 -121.05 5.55 -114.45 5.6 -111.65 1.55 -102.4 -0.45 -97.75 -2.5 -93.6 -5.2 -97.5 -7.9 -102.05" fill="#db6a24" fill-rule="evenodd" stroke="none"/>
  </g>
</svg>
