<?xml version="1.0" encoding="UTF-8" standalone="no"?>
<svg xmlns:xlink="http://www.w3.org/1999/xlink" height="28.5px" width="21.95px" xmlns="http://www.w3.org/2000/svg">
  <g transform="matrix(1.0, 0.0, 0.0, 1.0, -20.2, 7.6)">
    <path d="M30.3 -6.6 L29.15 -6.35 28.8 -6.1 28.35 -5.75 28.1 -5.45 Q26.05 -3.65 25.4 -0.8 L23.5 7.05 23.45 7.05 23.25 7.95 22.55 10.65 22.2 11.35 Q20.9 13.3 21.25 15.65 L21.6 17.15 Q22.35 19.7 25.4 19.2 L26.85 19.05 30.05 19.15 32.65 19.6 36.55 19.75 38.6 19.5 39.55 19.45 40.2 19.15 Q40.6 18.85 40.35 18.15 L40.55 17.75 Q41.25 15.6 41.15 13.25 41.05 8.95 38.35 5.4 L38.2 4.95 Q37.7 0.45 36.2 -3.8 35.3 -6.35 32.5 -6.55 L31.9 -6.55 30.3 -6.6 Z" fill="none" stroke="#4f4f4f" stroke-linecap="round" stroke-linejoin="round" stroke-width="2.0"/>
    <path d="M27.85 -2.1 L27.95 -2.3 27.85 -2.2 27.8 -2.1 27.85 -2.1 M27.7 -1.75 L27.75 -1.85 27.7 -1.8 27.7 -1.75 M29.15 -6.35 L30.3 -6.6 31.9 -6.55 32.5 -6.55 Q35.3 -6.35 36.2 -3.8 37.7 0.45 38.2 4.95 L38.35 5.4 Q41.05 8.95 41.15 13.25 41.25 15.6 40.55 17.75 L40.35 18.15 Q40.8 19.55 38.6 19.5 L36.55 19.75 32.65 19.6 30.05 19.15 26.85 19.05 25.4 19.2 Q22.35 19.7 21.6 17.15 L21.25 15.65 Q20.9 13.3 22.2 11.35 L22.55 10.65 25.4 -0.8 Q26.05 -3.65 28.1 -5.45 L28.35 -5.75 28.8 -6.1 29.15 -6.35" fill="#999999" fill-rule="evenodd" stroke="none"/>
    <path d="M28.0 -1.4 Q31.3 -2.65 34.5 -1.25 L35.3 -0.95 35.55 0.65 35.9 4.05 Q36.25 5.95 37.55 7.25 40.3 10.0 40.45 13.85 40.6 16.6 40.2 19.1 L40.2 19.15 38.6 19.5 36.55 19.75 32.65 19.6 30.05 19.15 26.85 19.05 25.4 19.2 Q22.35 19.7 21.6 17.15 L21.25 15.65 Q20.9 13.3 22.2 11.35 L22.55 10.65 23.45 7.05 24.4 5.95 24.6 5.9 25.15 5.55 Q26.6 3.5 27.0 1.15 L27.55 -0.35 28.0 -1.4" fill="#737373" fill-rule="evenodd" stroke="none"/>
    <path d="M34.85 2.85 Q34.7 2.25 33.95 1.75 32.95 1.15 31.5 1.15 30.05 1.15 29.05 1.75 28.3 2.25 28.1 2.85 L28.05 2.4 Q28.05 1.5 29.05 0.85 30.05 0.25 31.5 0.25 32.95 0.25 33.95 0.85 34.95 1.5 34.95 2.4 L34.85 2.85" fill="#8a5e2d" fill-rule="evenodd" stroke="none"/>
    <path d="M34.85 2.85 L34.95 3.3 Q34.95 4.2 33.95 4.8 32.95 5.45 31.5 5.45 30.05 5.45 29.05 4.8 28.05 4.2 28.05 3.3 L28.1 2.85 Q28.3 2.25 29.05 1.75 30.05 1.15 31.5 1.15 32.95 1.15 33.95 1.75 34.7 2.25 34.85 2.85" fill="#684721" fill-rule="evenodd" stroke="none"/>
    <path d="M32.3 10.15 Q31.9 10.55 31.4 10.55 30.9 10.55 30.55 10.15 30.15 9.8 30.15 9.3 L30.15 4.1 Q30.15 3.6 30.55 3.2 30.9 2.85 31.4 2.85 31.9 2.85 32.3 3.2 32.65 3.6 32.65 4.1 L32.65 9.3 32.3 10.15" fill="#8a5e2d" fill-rule="evenodd" stroke="none"/>
  </g>
</svg>
