<?xml version="1.0" encoding="UTF-8" standalone="no"?>
<svg xmlns:xlink="http://www.w3.org/1999/xlink" height="35.25px" width="52.0px" xmlns="http://www.w3.org/2000/svg">
  <g transform="matrix(1.0, 0.0, 0.0, 1.0, -5.55, -6.95)">
    <path d="M53.2 20.75 Q52.5 17.55 46.95 15.25 40.55 12.5 31.55 12.5 22.5 12.5 16.15 15.25 10.55 17.55 9.8 20.75 10.55 23.95 16.15 26.3 22.5 28.95 31.55 28.95 40.55 28.95 46.95 26.3 52.5 23.95 53.2 20.75 M56.55 21.5 Q56.55 26.3 49.25 29.65 41.9 33.05 31.55 33.05 21.2 33.05 13.9 29.65 6.55 26.3 6.55 21.5 L6.6 20.5 6.55 19.45 Q6.55 14.65 13.9 11.25 21.2 7.95 31.55 7.95 41.9 7.95 49.25 11.25 56.55 14.65 56.55 19.45 L56.45 20.5 56.55 21.5" fill="#4a3217" fill-rule="evenodd" stroke="none"/>
    <path d="M53.2 20.75 Q52.5 17.55 46.95 15.25 40.55 12.5 31.55 12.5 22.5 12.5 16.15 15.25 10.55 17.55 9.8 20.75 10.55 23.95 16.15 26.3 22.5 28.95 31.55 28.95 40.55 28.95 46.95 26.3 52.5 23.95 53.2 20.75 M56.55 21.5 L56.45 20.5 56.55 19.45 Q56.55 14.65 49.25 11.25 41.9 7.95 31.55 7.95 21.2 7.95 13.9 11.25 6.55 14.65 6.55 19.45 L6.6 20.5 6.55 21.5 Q6.55 26.3 13.9 29.65 21.2 33.05 31.55 33.05 41.9 33.05 49.25 29.65 56.55 26.3 56.55 21.5" fill="none" stroke="#4a3217" stroke-linecap="round" stroke-linejoin="round" stroke-width="2.0"/>
    <path d="M6.6 20.5 Q7.35 16.35 13.9 13.3 21.2 10.0 31.55 10.0 41.9 10.0 49.25 13.3 55.75 16.35 56.45 20.5 L56.55 21.5 Q56.55 26.3 49.25 29.65 41.9 33.05 31.55 33.05 21.2 33.05 13.9 29.65 6.55 26.3 6.55 21.5 L6.6 20.5 M53.2 20.75 Q52.5 17.55 46.95 15.25 40.55 12.5 31.55 12.5 22.5 12.5 16.15 15.25 10.55 17.55 9.8 20.75 L9.7 21.75 Q9.7 25.65 16.15 28.35 19.1 29.6 22.7 30.3 L30.4 31.0 31.55 31.0 31.85 31.0 32.15 31.0 40.15 30.3 Q43.85 29.65 46.95 28.35 53.35 25.65 53.35 21.75 L53.2 20.75" fill="#714d24" fill-rule="evenodd" stroke="none"/>
    <path d="M6.6 20.5 L6.55 19.45 Q6.55 14.65 13.9 11.25 21.2 7.95 31.55 7.95 41.9 7.95 49.25 11.25 56.55 14.65 56.55 19.45 L56.45 20.5 Q55.75 16.35 49.25 13.3 41.9 10.0 31.55 10.0 21.2 10.0 13.9 13.3 7.35 16.35 6.6 20.5 M9.8 20.75 Q10.55 23.95 16.15 26.3 22.5 28.95 31.55 28.95 40.55 28.95 46.95 26.3 52.5 23.95 53.2 20.75 L53.35 21.75 Q53.35 25.65 46.95 28.35 43.85 29.65 40.15 30.3 L32.15 31.0 31.85 31.0 31.55 31.0 30.4 31.0 22.7 30.3 Q19.1 29.6 16.15 28.35 9.7 25.65 9.7 21.75 L9.8 20.75" fill="#8b5f2d" fill-rule="evenodd" stroke="none"/>
    <path d="M54.45 21.25 L54.45 29.15 52.8 29.15 Q52.75 28.75 52.25 28.5 L44.9 25.45 40.45 23.7 38.85 23.25 30.9 23.45 Q26.9 23.4 23.05 24.35 19.2 25.3 15.45 26.55 13.7 27.1 13.05 28.55 L12.95 29.15 8.85 29.15 8.85 22.5 8.75 21.6 Q8.75 17.85 15.45 14.95 22.2 12.05 31.6 12.15 41.0 12.25 47.5 15.0 54.05 17.75 54.3 21.25 L54.45 21.25" fill="#4a3217" fill-rule="evenodd" stroke="none"/>
    <path d="M48.35 39.2 Q41.55 42.2 31.95 42.2 22.35 42.2 15.55 39.2 8.75 36.2 8.75 31.95 8.75 29.35 11.25 27.25 12.85 28.6 15.55 29.8 22.35 32.8 31.95 32.8 41.55 32.8 48.35 29.8 51.05 28.6 52.65 27.25 55.15 29.35 55.15 31.95 55.15 36.2 48.35 39.2" fill="#412c14" fill-rule="evenodd" stroke="none"/>
  </g>
</svg>
