<?xml version="1.0" encoding="UTF-8" standalone="no"?>
<svg xmlns:xlink="http://www.w3.org/1999/xlink" height="243.6px" width="234.65px" xmlns="http://www.w3.org/2000/svg">
  <g transform="matrix(1.0, 0.0, 0.0, 1.0, 116.45, 160.35)">
    <path d="M-22.1 -29.45 Q-10.55 -30.05 1.45 -32.3 L1.45 -62.3 Q-10.35 -61.55 -22.1 -61.95 L-22.1 -107.55 Q-2.2 -112.1 23.1 -112.95 73.6 -114.65 100.3 -96.1 104.75 -65.75 106.9 -31.85 111.35 35.95 100.3 53.8 93.9 64.1 80.05 69.05 67.2 73.7 49.4 73.2 32.4 72.7 13.6 67.6 -5.15 62.5 -22.1 53.8 L-22.1 -29.45" fill="#363636" fill-rule="evenodd" stroke="none"/>
    <path d="M-22.1 -61.95 Q-10.35 -61.55 1.45 -62.3 L1.45 -32.3 Q-10.55 -30.05 -22.1 -29.45 -67.45 -27.1 -106.45 -49.8 L-106.45 -79.8 Q-64.3 -63.45 -22.1 -61.95" fill="#4b4b4b" fill-rule="evenodd" stroke="none"/>
    <path d="M-22.1 -61.95 Q-10.35 -61.55 1.45 -62.3 L1.45 -32.3 Q-10.55 -30.05 -22.1 -29.45 L-22.1 53.8 Q-5.15 62.5 13.6 67.6 32.4 72.7 49.4 73.2 67.2 73.7 80.05 69.05 93.9 64.1 100.3 53.8 111.35 35.95 106.9 -31.85 104.75 -65.75 100.3 -96.1 73.6 -114.65 23.1 -112.95 -2.2 -112.1 -22.1 -107.55 L-22.1 -61.95 Q-64.3 -63.45 -106.45 -79.8 L-106.45 -49.8 Q-67.45 -27.1 -22.1 -29.45" fill="none" stroke="#3c190a" stroke-linecap="round" stroke-linejoin="round" stroke-width="20.0"/>
    <path d="M23.1 -112.95 Q73.6 -114.65 100.3 -96.1 104.75 -65.75 106.9 -31.85 111.35 35.95 100.3 53.8 93.9 64.1 80.05 69.05 67.2 73.7 49.4 73.2 32.4 72.7 13.6 67.6 -5.15 62.5 -22.1 53.8 L-22.1 -107.55 Q-2.2 -112.1 23.1 -112.95" fill="#363636" fill-rule="evenodd" stroke="none"/>
    <path d="M97.35 -63.35 Q98.9 -40.95 92.9 -16.2 87.75 4.55 78.55 22.55 70.35 38.6 63.3 44.5 57.15 49.6 37.4 52.9 L-3.1 54.2 -44.6 52.9 Q-64.4 49.6 -70.55 44.5 -77.6 38.6 -85.8 22.55 -95.0 4.55 -100.1 -16.2 -106.15 -40.95 -104.6 -63.35 -102.8 -89.7 -90.45 -110.2 -77.8 -131.15 -52.65 -141.55 -31.6 -150.35 -3.6 -150.35 24.15 -150.35 45.4 -141.55 70.6 -131.15 83.2 -110.2 95.55 -89.7 97.35 -63.35" fill="#70381f" fill-rule="evenodd" stroke="none"/>
    <path d="M97.35 -63.35 Q98.9 -40.95 92.9 -16.2 87.75 4.55 78.55 22.55 70.35 38.6 63.3 44.5 57.15 49.6 37.4 52.9 L-3.1 54.2 -44.6 52.9 Q-64.4 49.6 -70.55 44.5 -77.6 38.6 -85.8 22.55 -95.0 4.55 -100.1 -16.2 -106.15 -40.95 -104.6 -63.35 -102.8 -89.7 -90.45 -110.2 -77.8 -131.15 -52.65 -141.55 -31.6 -150.35 -3.6 -150.35 24.15 -150.35 45.4 -141.55 70.6 -131.15 83.2 -110.2 95.55 -89.7 97.35 -63.35 Z" fill="none" stroke="#3c190a" stroke-linecap="round" stroke-linejoin="round" stroke-width="20.0"/>
  </g>
</svg>
