<?xml version="1.0" encoding="UTF-8" standalone="no"?>
<svg xmlns:xlink="http://www.w3.org/1999/xlink" height="58.45px" width="125.7px" xmlns="http://www.w3.org/2000/svg">
  <g transform="matrix(1.0, 0.0, 0.0, 1.0, -0.95, 20.95)">
    <path d="M32.65 6.35 Q35.75 8.6 35.75 11.8 35.75 14.95 32.65 17.15 29.55 19.4 25.15 19.4 20.75 19.4 17.65 17.15 14.5 14.95 14.5 11.8 14.5 8.6 17.65 6.35 20.75 4.15 25.15 4.15 29.55 4.15 32.65 6.35" fill="#000000" fill-opacity="0.2" fill-rule="evenodd" stroke="none"/>
    <path d="M24.95 -16.35 Q25.3 -16.5 25.45 -16.05 L25.65 -15.4 25.6 -14.65 25.7 -14.6 25.9 -14.45 25.95 -14.4 26.05 -14.35 26.1 -14.35 26.3 -14.05 26.3 -14.0 26.45 -13.25 26.2 -12.2 26.3 -12.1 Q27.7 -10.65 27.7 -9.45 L27.65 -8.95 27.85 -8.7 Q28.3 -8.2 28.35 -7.55 L28.4 -6.5 28.35 -4.7 Q29.1 -4.1 29.1 -3.45 L28.95 -2.05 29.85 -1.3 30.1 -0.6 30.15 0.85 30.2 0.95 30.15 2.15 30.15 2.25 30.1 2.45 30.2 2.55 Q31.4 3.6 31.4 4.7 L31.3 6.15 31.45 6.25 Q32.9 7.4 32.9 8.45 L32.55 9.55 Q32.9 9.85 32.9 10.25 L32.45 11.3 32.15 11.65 31.7 11.9 30.9 12.05 30.55 12.05 30.55 12.2 30.55 12.4 Q30.55 14.95 28.15 14.95 L28.05 14.95 Q26.95 14.9 26.55 14.5 L26.5 14.4 26.25 14.7 26.05 14.95 Q25.05 15.75 23.65 15.75 22.5 15.75 21.75 15.0 20.5 14.7 20.15 13.9 18.85 14.1 18.2 13.45 17.75 13.05 17.75 12.55 L17.9 11.55 Q17.4 11.3 17.2 10.7 17.05 10.2 17.15 9.6 17.15 8.15 17.85 7.75 L18.35 6.65 18.2 6.0 Q18.2 4.9 19.4 4.35 L19.7 4.2 19.8 4.1 19.55 3.85 Q19.35 3.55 19.35 2.65 19.35 1.1 20.05 0.65 L20.25 -0.5 20.25 -0.6 Q20.25 -1.6 21.15 -3.05 L21.45 -3.6 21.25 -4.3 Q21.25 -5.7 22.4 -6.2 L22.45 -6.2 22.55 -6.45 22.65 -6.55 22.25 -7.05 22.15 -7.75 Q22.15 -9.15 23.05 -9.75 L23.5 -10.5 23.45 -10.55 23.4 -11.2 Q23.4 -12.0 23.95 -12.3 L23.95 -12.4 Q23.7 -12.7 23.7 -13.25 23.7 -14.85 24.45 -15.0 L24.4 -15.3 Q24.4 -16.1 24.8 -16.3 L24.95 -16.35 M26.55 -7.9 L26.5 -8.0 26.5 -7.95 26.55 -7.9 M25.45 -2.15 L25.5 -2.15 25.9 -2.75 25.75 -2.55 25.45 -2.15 M26.3 0.9 L26.35 0.7 26.3 0.7 26.3 0.9 M28.35 6.7 L28.35 6.65 28.15 6.7 Q28.35 6.75 28.4 6.9 L28.35 6.7" fill="#099700" fill-rule="evenodd" stroke="none"/>
    <path d="M24.95 -16.35 Q25.3 -16.5 25.45 -16.05 L25.65 -15.4 25.6 -14.65 25.7 -14.6 25.9 -14.45 25.95 -14.4 26.05 -14.35 26.1 -14.35 26.3 -14.05 26.3 -14.0 26.45 -13.25 26.2 -12.2 26.3 -12.1 Q27.7 -10.65 27.7 -9.45 L27.65 -8.95 27.85 -8.7 Q28.3 -8.2 28.35 -7.55 L28.4 -6.5 28.35 -4.7 Q29.1 -4.1 29.1 -3.45 L28.95 -2.05 29.85 -1.3 30.1 -0.6 30.15 0.85 30.2 0.95 30.15 2.15 30.15 2.25 30.1 2.45 30.2 2.55 Q31.4 3.6 31.4 4.7 L31.3 6.15 31.45 6.25 Q32.9 7.4 32.9 8.45 L32.55 9.55 Q32.9 9.85 32.9 10.25 L32.45 11.3 32.15 11.65 31.7 11.9 30.9 12.05 30.55 12.05 30.55 12.2 30.55 12.4 Q30.55 14.95 28.15 14.95 L28.05 14.95 Q26.95 14.9 26.55 14.5 L26.5 14.4 26.25 14.7 26.05 14.95 Q25.05 15.75 23.65 15.75 22.5 15.75 21.75 15.0 20.5 14.7 20.15 13.9 18.85 14.1 18.2 13.45 17.75 13.05 17.75 12.55 L17.9 11.55 Q17.4 11.3 17.2 10.7 17.05 10.2 17.15 9.6 17.15 8.15 17.85 7.75 L18.35 6.65 18.2 6.0 Q18.2 4.9 19.4 4.35 L19.7 4.2 19.8 4.1 19.55 3.85 Q19.35 3.55 19.35 2.65 19.35 1.1 20.05 0.65 L20.25 -0.5 20.25 -0.6 Q20.25 -1.6 21.15 -3.05 L21.45 -3.6 21.25 -4.3 Q21.25 -5.7 22.4 -6.2 L22.45 -6.2 22.55 -6.45 22.65 -6.55 22.25 -7.05 22.15 -7.75 Q22.15 -9.15 23.05 -9.75 L23.5 -10.5 23.45 -10.55 23.4 -11.2 Q23.4 -12.0 23.95 -12.3 L23.95 -12.4 Q23.7 -12.7 23.7 -13.25 23.7 -14.85 24.45 -15.0 L24.4 -15.3 Q24.4 -16.1 24.8 -16.3 L24.95 -16.35 Z" fill="none" stroke="#045100" stroke-linecap="round" stroke-linejoin="round" stroke-width="2.0"/>
    <path d="M24.8 -16.3 L25.3 -14.15 25.05 -13.55 Q24.75 -13.25 24.75 -12.85 L24.75 -12.1 Q24.05 -12.05 24.05 -11.5 L24.15 -11.2 Q24.3 -10.95 24.7 -10.95 L24.65 -10.6 24.7 -10.3 24.65 -10.05 24.7 -9.65 Q24.8 -9.25 25.15 -9.2 L25.35 -8.25 25.25 -7.55 24.6 -7.6 Q23.8 -7.45 23.8 -6.75 L24.05 -5.9 Q24.3 -5.25 24.7 -5.05 L24.85 -4.5 25.05 -3.95 24.55 -2.95 Q24.0 -2.1 24.0 -1.45 L24.3 -0.15 Q24.35 0.35 24.8 0.65 L25.15 1.3 24.85 2.65 25.15 4.95 Q24.6 5.45 24.6 6.2 L24.9 7.0 Q25.35 7.75 26.4 7.75 L26.8 7.75 Q26.65 7.9 26.65 8.15 26.65 8.6 27.1 8.75 L26.9 9.0 26.65 9.4 26.15 9.4 Q25.35 9.65 25.35 10.75 L25.65 11.5 25.45 12.0 25.45 13.1 25.5 14.2 Q25.6 14.65 26.05 14.95 25.05 15.75 23.65 15.75 22.5 15.75 21.75 15.0 20.5 14.7 20.15 13.9 18.85 14.1 18.2 13.45 17.75 13.05 17.75 12.55 L17.9 11.55 Q17.4 11.3 17.2 10.7 17.05 10.2 17.15 9.6 17.15 8.15 17.85 7.75 L18.35 6.65 18.2 6.0 Q18.2 4.9 19.4 4.35 L19.7 4.2 19.8 4.1 19.55 3.85 Q19.35 3.55 19.35 2.65 19.35 1.1 20.05 0.65 L20.25 -0.5 20.25 -0.6 Q20.25 -1.6 21.15 -3.05 L21.45 -3.6 21.25 -4.3 Q21.25 -5.7 22.4 -6.2 L22.45 -6.2 22.55 -6.45 22.65 -6.55 22.25 -7.05 22.15 -7.75 Q22.15 -9.15 23.05 -9.75 L23.5 -10.5 23.45 -10.55 23.4 -11.2 Q23.4 -12.0 23.95 -12.3 L23.95 -12.4 Q23.7 -12.7 23.7 -13.25 23.7 -14.85 24.45 -15.0 L24.4 -15.3 Q24.4 -16.1 24.8 -16.3 M28.4 6.9 Q28.35 6.75 28.15 6.7 L28.35 6.65 28.35 6.7 28.4 6.9 M26.35 0.7 L26.3 0.9 26.3 0.7 26.35 0.7 M25.9 -2.75 L25.5 -2.15 25.45 -2.15 25.75 -2.55 25.9 -2.75 M26.5 -7.95 L26.5 -8.0 26.55 -7.9 26.5 -7.95" fill="#037700" fill-rule="evenodd" stroke="none"/>
    <path d="M26.05 14.95 Q25.6 14.65 25.5 14.2 L25.45 13.1 25.45 12.0 25.65 11.5 25.35 10.75 Q25.35 9.65 26.15 9.4 L26.65 9.4 26.9 9.0 27.1 8.75 Q26.65 8.6 26.65 8.15 26.65 7.9 26.8 7.75 L26.4 7.75 Q25.35 7.75 24.9 7.0 L24.6 6.2 Q24.6 5.45 25.15 4.95 L24.85 2.65 25.15 1.3 24.8 0.65 Q24.35 0.35 24.3 -0.15 L24.0 -1.45 Q24.0 -2.1 24.55 -2.95 L25.05 -3.95 24.85 -4.5 24.7 -5.05 Q24.3 -5.25 24.05 -5.9 L23.8 -6.75 Q23.8 -7.45 24.6 -7.6 L25.25 -7.55 25.35 -8.25 25.15 -9.2 Q24.8 -9.25 24.7 -9.65 L24.65 -10.05 24.7 -10.3 24.65 -10.6 24.7 -10.95 Q24.3 -10.95 24.15 -11.2 L24.05 -11.5 Q24.05 -12.05 24.75 -12.1 L24.75 -12.85 Q24.75 -13.25 25.05 -13.55 L25.3 -14.15 24.8 -16.3 24.95 -16.35 Q25.3 -16.5 25.45 -16.05 L25.65 -15.4 25.6 -14.65 25.7 -14.6 25.9 -14.45 25.95 -14.4 26.05 -14.35 26.1 -14.35 26.3 -14.05 26.3 -14.0 26.45 -13.25 26.2 -12.2 26.3 -12.1 Q27.7 -10.65 27.7 -9.45 L27.65 -8.95 27.85 -8.7 Q28.3 -8.2 28.35 -7.55 L28.4 -6.5 28.35 -4.7 Q29.1 -4.1 29.1 -3.45 L28.95 -2.05 29.85 -1.3 30.1 -0.6 30.15 0.85 30.2 0.95 30.15 2.15 30.15 2.25 30.1 2.45 30.2 2.55 Q31.4 3.6 31.4 4.7 L31.3 6.15 31.45 6.25 Q32.9 7.4 32.9 8.45 L32.55 9.55 Q32.9 9.85 32.9 10.25 L32.45 11.3 32.15 11.65 31.7 11.9 30.9 12.05 30.55 12.05 30.55 12.2 30.55 12.4 Q30.55 14.95 28.15 14.95 L28.05 14.95 Q26.95 14.9 26.55 14.5 L26.5 14.4 26.25 14.7 26.05 14.95 M26.5 -7.95 L26.55 -7.9 26.5 -8.0 26.5 -7.95 M25.9 -2.75 L25.75 -2.55 25.45 -2.15 25.5 -2.15 25.9 -2.75 M26.35 0.7 L26.3 0.7 26.3 0.9 26.35 0.7 M28.4 6.9 L28.35 6.7 28.35 6.65 28.15 6.7 Q28.35 6.75 28.4 6.9" fill="#099700" fill-rule="evenodd" stroke="none"/>
    <path d="M19.7 6.2 Q22.8 8.45 22.8 11.65 22.8 14.8 19.7 17.0 16.6 19.25 12.2 19.25 7.8 19.25 4.7 17.0 1.55 14.8 1.55 11.65 1.55 8.45 4.7 6.2 7.8 4.0 12.2 4.0 16.6 4.0 19.7 6.2" fill="#000000" fill-opacity="0.2" fill-rule="evenodd" stroke="none"/>
    <path d="M12.5 -16.2 L12.7 -15.55 12.65 -14.8 12.75 -14.75 12.95 -14.6 13.0 -14.55 13.1 -14.5 13.15 -14.5 13.35 -14.2 13.35 -14.15 13.5 -13.4 13.25 -12.35 13.35 -12.25 Q14.75 -10.8 14.75 -9.6 L14.7 -9.1 14.9 -8.85 Q15.35 -8.35 15.4 -7.7 L15.45 -6.65 15.4 -4.85 Q16.15 -4.25 16.15 -3.6 L16.0 -2.2 16.9 -1.45 17.15 -0.75 17.2 0.7 17.25 0.8 17.2 2.0 17.2 2.1 17.15 2.3 17.25 2.4 Q18.45 3.45 18.45 4.55 L18.35 6.0 18.5 6.1 Q19.95 7.25 19.95 8.3 L19.6 9.4 19.95 10.1 19.5 11.15 19.2 11.5 18.75 11.75 17.95 11.9 17.6 11.9 17.6 12.05 17.6 12.25 Q17.6 14.8 15.2 14.8 L15.1 14.8 Q14.0 14.75 13.6 14.35 L13.55 14.25 13.3 14.55 13.1 14.8 Q12.1 15.6 10.7 15.6 9.55 15.6 8.8 14.85 7.55 14.55 7.2 13.75 5.9 13.95 5.25 13.3 4.8 12.9 4.8 12.4 L4.95 11.4 Q4.45 11.15 4.25 10.55 4.1 10.05 4.2 9.45 4.2 8.0 4.9 7.6 L5.4 6.5 5.25 5.85 Q5.25 4.75 6.45 4.2 L6.75 4.05 6.85 3.95 6.6 3.7 Q6.4 3.4 6.4 2.5 6.4 0.95 7.1 0.5 L7.3 -0.65 7.3 -0.75 Q7.3 -1.75 8.2 -3.2 L8.5 -3.75 8.3 -4.45 Q8.3 -5.85 9.45 -6.35 L9.5 -6.35 9.6 -6.6 9.7 -6.7 9.3 -7.2 9.2 -7.9 Q9.2 -9.3 10.1 -9.9 L10.55 -10.65 10.5 -10.7 10.45 -11.35 Q10.45 -12.15 11.0 -12.45 L11.0 -12.55 Q10.75 -12.85 10.75 -13.4 10.75 -15.0 11.5 -15.15 L11.45 -15.45 Q11.45 -16.25 11.85 -16.45 L12.0 -16.5 Q12.35 -16.65 12.5 -16.2 M13.55 -8.1 L13.6 -8.05 13.55 -8.15 13.55 -8.1 M12.55 -2.3 L12.95 -2.9 12.8 -2.7 12.5 -2.3 12.55 -2.3 M13.35 0.75 L13.4 0.55 13.35 0.55 13.35 0.75 M15.45 6.75 L15.4 6.55 15.4 6.5 15.2 6.55 Q15.4 6.6 15.45 6.75" fill="#099700" fill-rule="evenodd" stroke="none"/>
    <path d="M12.5 -16.2 L12.7 -15.55 12.65 -14.8 12.75 -14.75 12.95 -14.6 13.0 -14.55 13.1 -14.5 13.15 -14.5 13.35 -14.2 13.35 -14.15 13.5 -13.4 13.25 -12.35 13.35 -12.25 Q14.75 -10.8 14.75 -9.6 L14.7 -9.1 14.9 -8.85 Q15.35 -8.35 15.4 -7.7 L15.45 -6.65 15.4 -4.85 Q16.15 -4.25 16.15 -3.6 L16.0 -2.2 16.9 -1.45 17.15 -0.75 17.2 0.7 17.25 0.8 17.2 2.0 17.2 2.1 17.15 2.3 17.25 2.4 Q18.45 3.45 18.45 4.55 L18.35 6.0 18.5 6.1 Q19.95 7.25 19.95 8.3 L19.6 9.4 19.95 10.1 19.5 11.15 19.2 11.5 18.75 11.75 17.95 11.9 17.6 11.9 17.6 12.05 17.6 12.25 Q17.6 14.8 15.2 14.8 L15.1 14.8 Q14.0 14.75 13.6 14.35 L13.55 14.25 13.3 14.55 13.1 14.8 Q12.1 15.6 10.7 15.6 9.55 15.6 8.8 14.85 7.55 14.55 7.2 13.75 5.9 13.95 5.25 13.3 4.8 12.9 4.8 12.4 L4.95 11.4 Q4.45 11.15 4.25 10.55 4.1 10.05 4.2 9.45 4.2 8.0 4.9 7.6 L5.4 6.5 5.25 5.85 Q5.25 4.75 6.45 4.2 L6.75 4.05 6.85 3.95 6.6 3.7 Q6.4 3.4 6.4 2.5 6.4 0.95 7.1 0.5 L7.3 -0.65 7.3 -0.75 Q7.3 -1.75 8.2 -3.2 L8.5 -3.75 8.3 -4.45 Q8.3 -5.85 9.45 -6.35 L9.5 -6.35 9.6 -6.6 9.7 -6.7 9.3 -7.2 9.2 -7.9 Q9.2 -9.3 10.1 -9.9 L10.55 -10.65 10.5 -10.7 10.45 -11.35 Q10.45 -12.15 11.0 -12.45 L11.0 -12.55 Q10.75 -12.85 10.75 -13.4 10.75 -15.0 11.5 -15.15 L11.45 -15.45 Q11.45 -16.25 11.85 -16.45 L12.0 -16.5 Q12.35 -16.65 12.5 -16.2 Z" fill="none" stroke="#045100" stroke-linecap="round" stroke-linejoin="round" stroke-width="2.0"/>
    <path d="M11.85 -16.45 L12.0 -16.5 Q12.35 -16.65 12.5 -16.2 L12.7 -15.55 12.65 -14.8 12.75 -14.75 12.95 -14.6 13.0 -14.55 13.1 -14.5 13.15 -14.5 13.35 -14.2 13.35 -14.15 13.5 -13.4 13.25 -12.35 13.35 -12.25 Q14.75 -10.8 14.75 -9.6 L14.7 -9.1 14.9 -8.85 Q15.35 -8.35 15.4 -7.7 L15.45 -6.65 15.4 -4.85 Q16.15 -4.25 16.15 -3.6 L16.0 -2.2 16.9 -1.45 17.15 -0.75 17.2 0.7 17.25 0.8 17.2 2.0 17.2 2.1 17.15 2.3 17.25 2.4 Q18.45 3.45 18.45 4.55 L18.35 6.0 18.5 6.1 Q19.95 7.25 19.95 8.3 L19.6 9.4 19.95 10.1 19.5 11.15 19.2 11.5 18.75 11.75 17.95 11.9 17.6 11.9 17.6 12.05 17.6 12.25 Q17.6 14.8 15.2 14.8 L15.1 14.8 Q14.0 14.75 13.6 14.35 L13.55 14.25 13.3 14.55 13.1 14.8 Q12.65 14.5 12.55 14.05 L12.5 12.95 12.5 11.85 12.7 11.35 12.4 10.6 Q12.4 9.5 13.2 9.25 L13.7 9.25 13.95 8.85 14.15 8.6 Q13.7 8.45 13.7 8.0 13.7 7.75 13.85 7.6 L13.45 7.6 Q12.4 7.6 11.95 6.85 L11.65 6.05 Q11.65 5.3 12.2 4.8 L11.9 2.5 12.2 1.15 Q12.2 0.8 11.85 0.5 11.4 0.2 11.35 -0.3 L11.05 -1.6 Q11.05 -2.25 11.6 -3.1 L12.1 -4.1 11.9 -4.65 11.75 -5.2 Q11.35 -5.4 11.1 -6.05 10.9 -6.45 10.85 -6.9 10.85 -7.6 11.65 -7.75 L12.3 -7.7 12.4 -8.4 12.2 -9.35 Q11.85 -9.4 11.75 -9.8 L11.7 -10.2 11.75 -10.45 11.7 -10.75 11.75 -11.1 Q11.35 -11.1 11.2 -11.35 L11.1 -11.65 Q11.1 -12.2 11.8 -12.25 L11.8 -13.0 Q11.8 -13.4 12.1 -13.7 L12.35 -14.3 11.85 -16.45 M13.6 -8.05 L13.55 -8.15 13.55 -8.1 13.6 -8.05 M12.55 -2.3 L12.95 -2.9 12.8 -2.7 12.5 -2.3 12.55 -2.3 M13.35 0.75 L13.4 0.55 13.35 0.55 13.35 0.75 M15.45 6.75 L15.4 6.55 15.4 6.5 15.2 6.55 Q15.4 6.6 15.45 6.75" fill="#099700" fill-rule="evenodd" stroke="none"/>
    <path d="M13.1 14.8 Q12.1 15.6 10.7 15.6 9.55 15.6 8.8 14.85 7.55 14.55 7.2 13.75 5.9 13.95 5.25 13.3 4.8 12.9 4.8 12.4 L4.95 11.4 Q4.45 11.15 4.25 10.55 4.1 10.05 4.2 9.45 4.2 8.0 4.9 7.6 L5.4 6.5 5.25 5.85 Q5.25 4.75 6.45 4.2 L6.75 4.05 6.85 3.95 6.6 3.7 Q6.4 3.4 6.4 2.5 6.4 0.95 7.1 0.5 L7.3 -0.65 7.3 -0.75 Q7.3 -1.75 8.2 -3.2 L8.5 -3.75 8.3 -4.45 Q8.3 -5.85 9.45 -6.35 L9.5 -6.35 9.6 -6.6 9.7 -6.7 9.3 -7.2 9.2 -7.9 Q9.2 -9.3 10.1 -9.9 L10.55 -10.65 10.5 -10.7 10.45 -11.35 Q10.45 -12.15 11.0 -12.45 L11.0 -12.55 Q10.75 -12.85 10.75 -13.4 10.75 -15.0 11.5 -15.15 L11.45 -15.45 Q11.45 -16.25 11.85 -16.45 L12.35 -14.3 12.1 -13.7 Q11.8 -13.4 11.8 -13.0 L11.8 -12.25 Q11.1 -12.2 11.1 -11.65 L11.2 -11.35 Q11.35 -11.1 11.75 -11.1 L11.7 -10.75 11.75 -10.45 11.7 -10.2 11.75 -9.8 Q11.85 -9.4 12.2 -9.35 L12.4 -8.4 12.3 -7.7 11.65 -7.75 Q10.85 -7.6 10.85 -6.9 10.9 -6.45 11.1 -6.05 11.35 -5.4 11.75 -5.2 L11.9 -4.65 12.1 -4.1 11.6 -3.1 Q11.05 -2.25 11.05 -1.6 L11.35 -0.3 Q11.4 0.2 11.85 0.5 12.2 0.8 12.2 1.15 L11.9 2.5 12.2 4.8 Q11.65 5.3 11.65 6.05 L11.95 6.85 Q12.4 7.6 13.45 7.6 L13.85 7.6 Q13.7 7.75 13.7 8.0 13.7 8.45 14.15 8.6 L13.95 8.85 13.7 9.25 13.2 9.25 Q12.4 9.5 12.4 10.6 L12.7 11.35 12.5 11.85 12.5 12.95 12.55 14.05 Q12.65 14.5 13.1 14.8 M15.45 6.75 Q15.4 6.6 15.2 6.55 L15.4 6.5 15.4 6.55 15.45 6.75 M13.35 0.75 L13.35 0.55 13.4 0.55 13.35 0.75 M12.55 -2.3 L12.5 -2.3 12.8 -2.7 12.95 -2.9 12.55 -2.3 M13.6 -8.05 L13.55 -8.1 13.55 -8.15 13.6 -8.05" fill="#037700" fill-rule="evenodd" stroke="none"/>
    <path d="M112.55 8.25 Q112.55 11.4 109.45 13.6 106.35 15.85 101.95 15.85 97.55 15.85 94.45 13.6 91.3 11.4 91.3 8.25 91.3 5.05 94.45 2.8 97.55 0.6 101.95 0.6 106.35 0.6 109.45 2.8 112.55 5.05 112.55 8.25" fill="#000000" fill-opacity="0.2" fill-rule="evenodd" stroke="none"/>
    <path d="M100.75 -15.85 L100.75 -15.95 Q100.5 -16.25 100.5 -16.8 100.5 -18.4 101.25 -18.55 L101.2 -18.85 Q101.2 -19.65 101.6 -19.85 L101.75 -19.9 Q102.1 -20.05 102.25 -19.6 L102.45 -18.95 102.4 -18.2 102.5 -18.15 102.7 -18.0 102.75 -17.95 102.85 -17.9 102.9 -17.9 103.1 -17.6 103.1 -17.55 103.25 -16.8 103.0 -15.75 103.1 -15.65 Q104.5 -14.2 104.5 -13.0 L104.45 -12.5 104.65 -12.25 Q105.1 -11.75 105.15 -11.1 L105.2 -10.05 105.15 -8.25 Q105.9 -7.65 105.9 -7.0 L105.75 -5.6 106.65 -4.85 106.9 -4.15 106.95 -2.7 107.0 -2.6 106.95 -1.4 106.95 -1.3 106.9 -1.1 107.0 -1.0 Q108.2 0.05 108.2 1.15 L108.1 2.6 108.25 2.7 Q109.7 3.85 109.7 4.9 L109.35 6.0 Q109.7 6.3 109.7 6.7 L109.25 7.75 108.95 8.1 108.5 8.35 107.7 8.5 107.35 8.5 107.35 8.65 107.35 8.85 Q107.35 11.4 104.95 11.4 L104.85 11.4 Q103.75 11.35 103.35 10.95 L103.3 10.85 103.05 11.15 102.85 11.4 Q101.85 12.2 100.45 12.2 99.3 12.2 98.55 11.45 97.3 11.15 96.95 10.35 95.65 10.55 95.0 9.9 94.55 9.5 94.55 9.0 94.55 8.55 94.7 8.0 94.2 7.75 94.0 7.15 L93.95 6.05 Q93.95 4.6 94.65 4.2 L95.15 3.1 95.0 2.45 Q95.0 1.35 96.2 0.8 L96.5 0.65 96.6 0.55 96.35 0.3 Q96.15 0.0 96.15 -0.9 96.15 -2.45 96.85 -2.9 L97.05 -4.05 97.05 -4.15 Q97.05 -5.15 97.95 -6.6 L98.25 -7.15 98.05 -7.85 Q98.05 -9.25 99.2 -9.75 L99.25 -9.75 99.35 -10.0 99.45 -10.1 99.05 -10.6 98.95 -11.3 Q98.95 -12.7 99.85 -13.3 L100.3 -14.05 100.25 -14.1 100.2 -14.75 Q100.2 -15.55 100.75 -15.85 M103.3 -11.55 L103.3 -11.5 103.35 -11.45 103.3 -11.55 M102.3 -5.7 L102.7 -6.3 102.55 -6.1 102.25 -5.7 102.3 -5.7 M103.1 -2.85 L103.1 -2.65 103.15 -2.85 103.1 -2.85 M105.2 3.35 L105.15 3.15 105.15 3.1 104.95 3.15 Q105.15 3.2 105.2 3.35" fill="#099700" fill-rule="evenodd" stroke="none"/>
    <path d="M100.75 -15.85 L100.75 -15.95 Q100.5 -16.25 100.5 -16.8 100.5 -18.4 101.25 -18.55 L101.2 -18.85 Q101.2 -19.65 101.6 -19.85 L101.75 -19.9 Q102.1 -20.05 102.25 -19.6 L102.45 -18.95 102.4 -18.2 102.5 -18.15 102.7 -18.0 102.75 -17.95 102.85 -17.9 102.9 -17.9 103.1 -17.6 103.1 -17.55 103.25 -16.8 103.0 -15.75 103.1 -15.65 Q104.5 -14.2 104.5 -13.0 L104.45 -12.5 104.65 -12.25 Q105.1 -11.75 105.15 -11.1 L105.2 -10.05 105.15 -8.25 Q105.9 -7.65 105.9 -7.0 L105.75 -5.6 106.65 -4.85 106.9 -4.15 106.95 -2.7 107.0 -2.6 106.95 -1.4 106.95 -1.3 106.9 -1.1 107.0 -1.0 Q108.2 0.05 108.2 1.15 L108.1 2.6 108.25 2.7 Q109.7 3.85 109.7 4.9 L109.35 6.0 Q109.7 6.3 109.7 6.7 L109.25 7.75 108.95 8.1 108.5 8.35 107.7 8.5 107.35 8.5 107.35 8.65 107.35 8.85 Q107.35 11.4 104.95 11.4 L104.85 11.4 Q103.75 11.35 103.35 10.95 L103.3 10.85 103.05 11.15 102.85 11.4 Q101.85 12.2 100.45 12.2 99.3 12.2 98.55 11.45 97.3 11.15 96.95 10.35 95.65 10.55 95.0 9.9 94.55 9.5 94.55 9.0 94.55 8.55 94.7 8.0 94.2 7.75 94.0 7.15 L93.95 6.05 Q93.95 4.6 94.65 4.2 L95.15 3.1 95.0 2.45 Q95.0 1.35 96.2 0.8 L96.5 0.65 96.6 0.55 96.35 0.3 Q96.15 0.0 96.15 -0.9 96.15 -2.45 96.85 -2.9 L97.05 -4.05 97.05 -4.15 Q97.05 -5.15 97.95 -6.6 L98.25 -7.15 98.05 -7.85 Q98.05 -9.25 99.2 -9.75 L99.25 -9.75 99.35 -10.0 99.45 -10.1 99.05 -10.6 98.95 -11.3 Q98.95 -12.7 99.85 -13.3 L100.3 -14.05 100.25 -14.1 100.2 -14.75 Q100.2 -15.55 100.75 -15.85 Z" fill="none" stroke="#045100" stroke-linecap="round" stroke-linejoin="round" stroke-width="2.0"/>
    <path d="M102.85 11.4 Q101.85 12.2 100.45 12.2 99.3 12.2 98.55 11.45 97.3 11.15 96.95 10.35 95.65 10.55 95.0 9.9 94.55 9.5 94.55 9.0 94.55 8.55 94.7 8.0 94.2 7.75 94.0 7.15 L93.95 6.05 Q93.95 4.6 94.65 4.2 L95.15 3.1 95.0 2.45 Q95.0 1.35 96.2 0.8 L96.5 0.65 96.6 0.55 96.35 0.3 Q96.15 0.0 96.15 -0.9 96.15 -2.45 96.85 -2.9 L97.05 -4.05 97.05 -4.15 Q97.05 -5.15 97.95 -6.6 L98.25 -7.15 98.05 -7.85 Q98.05 -9.25 99.2 -9.75 L99.25 -9.75 99.35 -10.0 99.45 -10.1 99.05 -10.6 98.95 -11.3 Q98.95 -12.7 99.85 -13.3 L100.3 -14.05 100.25 -14.1 100.2 -14.75 Q100.2 -15.55 100.75 -15.85 L100.75 -15.95 Q100.5 -16.25 100.5 -16.8 100.5 -18.4 101.25 -18.55 L101.2 -18.85 Q101.2 -19.65 101.6 -19.85 L102.1 -17.7 101.85 -17.1 Q101.55 -16.8 101.55 -16.4 L101.55 -15.65 Q100.85 -15.6 100.85 -15.05 L100.95 -14.75 Q101.1 -14.5 101.5 -14.5 L101.45 -14.15 101.5 -13.85 101.45 -13.6 101.5 -13.2 Q101.6 -12.8 101.95 -12.75 L102.15 -11.8 102.05 -11.1 101.4 -11.15 Q100.6 -11.0 100.6 -10.3 100.65 -9.85 100.85 -9.45 101.1 -8.8 101.5 -8.6 L101.65 -8.05 101.85 -7.5 101.35 -6.5 Q100.8 -5.65 100.8 -5.0 L101.1 -3.7 Q101.15 -3.2 101.6 -2.9 L101.95 -2.25 101.65 -0.9 101.95 1.4 Q101.4 1.9 101.4 2.65 L101.7 3.45 Q102.15 4.2 103.2 4.2 L103.6 4.2 Q103.45 4.35 103.45 4.6 103.45 5.05 103.9 5.2 L103.7 5.45 103.45 5.85 102.95 5.85 Q102.15 6.1 102.15 7.2 102.15 7.45 102.45 7.95 L102.25 8.45 102.25 9.55 102.3 10.65 Q102.4 11.1 102.85 11.4 M105.2 3.35 Q105.15 3.2 104.95 3.15 L105.15 3.1 105.15 3.15 105.2 3.35 M103.1 -2.65 L103.1 -2.85 103.15 -2.85 103.1 -2.65 M102.25 -5.7 L102.55 -6.1 102.7 -6.3 102.3 -5.7 102.25 -5.7 M103.3 -11.55 L103.35 -11.45 103.3 -11.5 103.3 -11.55" fill="#037700" fill-rule="evenodd" stroke="none"/>
    <path d="M101.6 -19.85 L101.75 -19.9 Q102.1 -20.05 102.25 -19.6 L102.45 -18.95 102.4 -18.2 102.5 -18.15 102.7 -18.0 102.75 -17.95 102.85 -17.9 102.9 -17.9 103.1 -17.6 103.1 -17.55 103.25 -16.8 103.0 -15.75 103.1 -15.65 Q104.5 -14.2 104.5 -13.0 L104.45 -12.5 104.65 -12.25 Q105.1 -11.75 105.15 -11.1 L105.2 -10.05 105.15 -8.25 Q105.9 -7.65 105.9 -7.0 L105.75 -5.6 106.65 -4.85 106.9 -4.15 106.95 -2.7 107.0 -2.6 106.95 -1.4 106.95 -1.3 106.9 -1.1 107.0 -1.0 Q108.2 0.05 108.2 1.15 L108.1 2.6 108.25 2.7 Q109.7 3.85 109.7 4.9 L109.35 6.0 Q109.7 6.3 109.7 6.7 L109.25 7.75 108.95 8.1 108.5 8.35 107.7 8.5 107.35 8.5 107.35 8.65 107.35 8.85 Q107.35 11.4 104.95 11.4 L104.85 11.4 Q103.75 11.35 103.35 10.95 L103.3 10.85 103.05 11.15 102.85 11.4 Q102.4 11.1 102.3 10.65 L102.25 9.55 102.25 8.45 102.45 7.95 Q102.15 7.45 102.15 7.2 102.15 6.1 102.95 5.85 L103.45 5.85 103.7 5.45 103.9 5.2 Q103.45 5.05 103.45 4.6 103.45 4.35 103.6 4.2 L103.2 4.2 Q102.15 4.2 101.7 3.45 L101.4 2.65 Q101.4 1.9 101.95 1.4 L101.65 -0.9 101.95 -2.25 101.6 -2.9 Q101.15 -3.2 101.1 -3.7 L100.8 -5.0 Q100.8 -5.65 101.35 -6.5 L101.85 -7.5 101.65 -8.05 101.5 -8.6 Q101.1 -8.8 100.85 -9.45 100.65 -9.85 100.6 -10.3 100.6 -11.0 101.4 -11.15 L102.05 -11.1 102.15 -11.8 101.95 -12.75 Q101.6 -12.8 101.5 -13.2 L101.45 -13.6 101.5 -13.85 101.45 -14.15 101.5 -14.5 Q101.1 -14.5 100.95 -14.75 L100.85 -15.05 Q100.85 -15.6 101.55 -15.65 L101.55 -16.4 Q101.55 -16.8 101.85 -17.1 L102.1 -17.7 101.6 -19.85 M103.3 -11.55 L103.3 -11.5 103.35 -11.45 103.3 -11.55 M102.25 -5.7 L102.3 -5.7 102.7 -6.3 102.55 -6.1 102.25 -5.7 M103.1 -2.65 L103.15 -2.85 103.1 -2.85 103.1 -2.65 M105.2 3.35 L105.15 3.15 105.15 3.1 104.95 3.15 Q105.15 3.2 105.2 3.35" fill="#099700" fill-rule="evenodd" stroke="none"/>
    <path d="M125.85 15.2 Q125.85 18.35 122.75 20.55 119.65 22.8 115.25 22.8 110.85 22.8 107.75 20.55 104.6 18.35 104.6 15.2 104.6 12.0 107.75 9.75 110.85 7.55 115.25 7.55 119.65 7.55 122.75 9.75 125.85 12.0 125.85 15.2" fill="#000000" fill-opacity="0.2" fill-rule="evenodd" stroke="none"/>
    <path d="M115.55 -12.65 L115.75 -12.0 115.7 -11.25 115.8 -11.2 116.0 -11.05 116.05 -11.0 116.15 -10.95 116.2 -10.95 116.4 -10.65 116.4 -10.6 116.55 -9.85 116.3 -8.8 116.4 -8.7 Q117.8 -7.25 117.8 -6.05 L117.75 -5.55 117.95 -5.3 Q118.4 -4.8 118.45 -4.15 L118.5 -3.1 118.45 -1.3 Q119.2 -0.7 119.2 -0.05 L119.05 1.35 119.95 2.1 120.2 2.8 120.25 4.25 120.3 4.35 120.25 5.55 120.25 5.65 120.2 5.85 120.3 5.95 Q121.5 7.0 121.5 8.1 L121.4 9.55 121.55 9.65 Q123.0 10.8 123.0 11.85 L122.65 12.95 Q123.0 13.25 123.0 13.65 L122.55 14.7 122.25 15.05 121.8 15.3 121.0 15.45 120.65 15.45 120.65 15.6 120.65 15.8 Q120.65 18.35 118.25 18.35 L118.15 18.35 Q117.05 18.3 116.65 17.9 L116.6 17.8 116.35 18.1 116.15 18.35 Q115.15 19.15 113.75 19.15 112.6 19.15 111.85 18.4 110.6 18.1 110.25 17.3 108.95 17.5 108.3 16.85 107.85 16.45 107.85 15.95 107.85 15.5 108.0 14.95 107.5 14.7 107.3 14.1 L107.25 13.0 Q107.25 11.55 107.95 11.15 L108.45 10.05 108.3 9.4 Q108.3 8.3 109.5 7.75 L109.8 7.6 109.9 7.5 109.65 7.25 109.45 6.05 Q109.45 4.5 110.15 4.05 L110.35 2.9 110.35 2.8 Q110.35 1.8 111.25 0.35 L111.55 -0.2 111.35 -0.9 Q111.35 -2.3 112.5 -2.8 L112.55 -2.8 112.65 -3.05 112.75 -3.15 112.35 -3.65 112.25 -4.35 Q112.25 -5.75 113.15 -6.35 L113.6 -7.1 113.55 -7.15 113.5 -7.8 Q113.5 -8.6 114.05 -8.9 L114.05 -9.0 Q113.8 -9.3 113.8 -9.85 113.8 -11.45 114.55 -11.6 L114.5 -11.9 Q114.5 -12.7 114.9 -12.9 L115.05 -12.95 Q115.4 -13.1 115.55 -12.65 M116.6 -4.6 L116.6 -4.55 116.65 -4.5 116.6 -4.6 M116.4 4.3 L116.45 4.1 116.4 4.1 116.4 4.3 M116.0 0.65 L115.85 0.85 115.55 1.25 115.6 1.25 116.0 0.65 M118.45 10.1 L118.45 10.05 118.25 10.1 118.5 10.3 118.45 10.1" fill="#099700" fill-rule="evenodd" stroke="none"/>
    <path d="M115.55 -12.65 L115.75 -12.0 115.7 -11.25 115.8 -11.2 116.0 -11.05 116.05 -11.0 116.15 -10.95 116.2 -10.95 116.4 -10.65 116.4 -10.6 116.55 -9.85 116.3 -8.8 116.4 -8.7 Q117.8 -7.25 117.8 -6.05 L117.75 -5.55 117.95 -5.3 Q118.4 -4.8 118.45 -4.15 L118.5 -3.1 118.45 -1.3 Q119.2 -0.7 119.2 -0.05 L119.05 1.35 119.95 2.1 120.2 2.8 120.25 4.25 120.3 4.35 120.25 5.55 120.25 5.65 120.2 5.85 120.3 5.95 Q121.5 7.0 121.5 8.1 L121.4 9.55 121.55 9.65 Q123.0 10.8 123.0 11.85 L122.65 12.95 Q123.0 13.25 123.0 13.65 L122.55 14.7 122.25 15.05 121.8 15.3 121.0 15.45 120.65 15.45 120.65 15.6 120.65 15.8 Q120.65 18.35 118.25 18.35 L118.15 18.35 Q117.05 18.3 116.65 17.9 L116.6 17.8 116.35 18.1 116.15 18.35 Q115.15 19.15 113.75 19.15 112.6 19.15 111.85 18.4 110.6 18.1 110.25 17.3 108.95 17.5 108.3 16.85 107.85 16.45 107.85 15.95 107.85 15.5 108.0 14.95 107.5 14.7 107.3 14.1 L107.25 13.0 Q107.25 11.55 107.95 11.15 L108.45 10.05 108.3 9.4 Q108.3 8.3 109.5 7.75 L109.8 7.6 109.9 7.5 109.65 7.25 109.45 6.05 Q109.45 4.5 110.15 4.05 L110.35 2.9 110.35 2.8 Q110.35 1.8 111.25 0.35 L111.55 -0.2 111.35 -0.9 Q111.35 -2.3 112.5 -2.8 L112.55 -2.8 112.65 -3.05 112.75 -3.15 112.35 -3.65 112.25 -4.35 Q112.25 -5.75 113.15 -6.35 L113.6 -7.1 113.55 -7.15 113.5 -7.8 Q113.5 -8.6 114.05 -8.9 L114.05 -9.0 Q113.8 -9.3 113.8 -9.85 113.8 -11.45 114.55 -11.6 L114.5 -11.9 Q114.5 -12.7 114.9 -12.9 L115.05 -12.95 Q115.4 -13.1 115.55 -12.65 Z" fill="none" stroke="#045100" stroke-linecap="round" stroke-linejoin="round" stroke-width="2.0"/>
    <path d="M114.9 -12.9 L115.05 -12.95 Q115.4 -13.1 115.55 -12.65 L115.75 -12.0 115.7 -11.25 115.8 -11.2 116.0 -11.05 116.05 -11.0 116.15 -10.95 116.2 -10.95 116.4 -10.65 116.4 -10.6 116.55 -9.85 116.3 -8.8 116.4 -8.7 Q117.8 -7.25 117.8 -6.05 L117.75 -5.55 117.95 -5.3 Q118.4 -4.8 118.45 -4.15 L118.5 -3.1 118.45 -1.3 Q119.2 -0.7 119.2 -0.05 L119.05 1.35 119.95 2.1 120.2 2.8 120.25 4.25 120.3 4.35 120.25 5.55 120.25 5.65 120.2 5.85 120.3 5.95 Q121.5 7.0 121.5 8.1 L121.4 9.55 121.55 9.65 Q123.0 10.8 123.0 11.85 L122.65 12.95 Q123.0 13.25 123.0 13.65 L122.55 14.7 122.25 15.05 121.8 15.3 121.0 15.45 120.65 15.45 120.65 15.6 120.65 15.8 Q120.65 18.35 118.25 18.35 L118.15 18.35 Q117.05 18.3 116.65 17.9 L116.6 17.8 116.35 18.1 116.15 18.35 Q115.7 18.05 115.6 17.6 L115.55 16.5 115.55 15.4 115.75 14.9 115.45 14.15 Q115.45 13.05 116.25 12.8 L116.75 12.8 117.0 12.4 117.2 12.15 Q116.75 12.0 116.75 11.55 116.75 11.3 116.9 11.15 L116.5 11.15 Q115.45 11.15 115.0 10.4 L114.7 9.6 Q114.7 8.85 115.25 8.35 L114.95 6.05 115.25 4.7 114.9 4.05 Q114.45 3.75 114.4 3.25 L114.1 1.95 Q114.1 1.3 114.65 0.45 L115.15 -0.55 114.95 -1.1 114.8 -1.65 Q114.4 -1.85 114.15 -2.5 L113.9 -3.35 Q113.9 -4.05 114.7 -4.2 L115.35 -4.15 115.45 -4.85 115.25 -5.8 Q114.9 -5.85 114.8 -6.25 L114.75 -6.65 114.8 -6.9 114.75 -7.2 114.8 -7.55 Q114.4 -7.55 114.25 -7.8 L114.15 -8.1 Q114.15 -8.65 114.85 -8.7 L114.85 -9.45 Q114.85 -9.85 115.15 -10.15 L115.4 -10.75 114.9 -12.9 M116.6 -4.55 L116.65 -4.5 116.6 -4.6 116.6 -4.55 M115.55 1.25 L115.6 1.25 116.0 0.65 115.85 0.85 115.55 1.25 M116.4 4.3 L116.45 4.1 116.4 4.1 116.4 4.3 M118.5 10.3 L118.45 10.1 118.45 10.05 118.25 10.1 118.5 10.3" fill="#099700" fill-rule="evenodd" stroke="none"/>
    <path d="M116.15 18.35 Q115.15 19.15 113.75 19.15 112.6 19.15 111.85 18.4 110.6 18.1 110.25 17.3 108.95 17.5 108.3 16.85 107.85 16.45 107.85 15.95 107.85 15.5 108.0 14.95 107.5 14.7 107.3 14.1 L107.25 13.0 Q107.25 11.55 107.95 11.15 L108.45 10.05 108.3 9.4 Q108.3 8.3 109.5 7.75 L109.8 7.6 109.9 7.5 109.65 7.25 109.45 6.05 Q109.45 4.5 110.15 4.05 L110.35 2.9 110.35 2.8 Q110.35 1.8 111.25 0.35 L111.55 -0.2 111.35 -0.9 Q111.35 -2.3 112.5 -2.8 L112.55 -2.8 112.65 -3.05 112.75 -3.15 112.35 -3.65 112.25 -4.35 Q112.25 -5.75 113.15 -6.35 L113.6 -7.1 113.55 -7.15 113.5 -7.8 Q113.5 -8.6 114.05 -8.9 L114.05 -9.0 Q113.8 -9.3 113.8 -9.85 113.8 -11.45 114.55 -11.6 L114.5 -11.9 Q114.5 -12.7 114.9 -12.9 L115.4 -10.75 115.15 -10.15 Q114.85 -9.85 114.85 -9.45 L114.85 -8.7 Q114.15 -8.65 114.15 -8.1 L114.25 -7.8 Q114.4 -7.55 114.8 -7.55 L114.75 -7.2 114.8 -6.9 114.75 -6.65 114.8 -6.25 Q114.9 -5.85 115.25 -5.8 L115.45 -4.85 115.35 -4.15 114.7 -4.2 Q113.9 -4.05 113.9 -3.35 L114.15 -2.5 Q114.4 -1.85 114.8 -1.65 L114.95 -1.1 115.15 -0.55 114.65 0.45 Q114.1 1.3 114.1 1.95 L114.4 3.25 Q114.45 3.75 114.9 4.05 L115.25 4.7 114.95 6.05 115.25 8.35 Q114.7 8.85 114.7 9.6 L115.0 10.4 Q115.45 11.15 116.5 11.15 L116.9 11.15 Q116.75 11.3 116.75 11.55 116.75 12.0 117.2 12.15 L117.0 12.4 116.75 12.8 116.25 12.8 Q115.45 13.05 115.45 14.15 L115.75 14.9 115.55 15.4 115.55 16.5 115.6 17.6 Q115.7 18.05 116.15 18.35 M118.5 10.3 L118.25 10.1 118.45 10.05 118.45 10.1 118.5 10.3 M116.4 4.3 L116.4 4.1 116.45 4.1 116.4 4.3 M115.55 1.25 L115.85 0.85 116.0 0.65 115.6 1.25 115.55 1.25 M116.6 -4.55 L116.6 -4.6 116.65 -4.5 116.6 -4.55" fill="#037700" fill-rule="evenodd" stroke="none"/>
    <path d="M126.65 28.45 Q126.65 31.2 123.95 33.15 121.2 35.1 117.4 35.1 113.5 35.1 110.8 33.15 108.1 31.2 108.1 28.45 108.1 25.7 110.8 23.7 113.5 21.75 117.4 21.75 121.2 21.75 123.95 23.7 126.65 25.7 126.65 28.45" fill="#000000" fill-opacity="0.2" fill-rule="evenodd" stroke="none"/>
    <path d="M121.8 20.4 Q122.85 21.3 122.85 22.3 L122.75 23.5 122.9 23.65 Q124.15 24.6 124.15 25.55 L123.85 26.5 124.15 27.15 123.75 28.05 123.45 28.35 123.1 28.55 122.4 28.65 122.1 28.65 122.1 28.8 122.1 29.0 Q122.1 31.2 120.0 31.2 L119.9 31.2 Q118.95 31.2 118.6 30.8 L118.55 30.75 118.35 31.0 118.15 31.2 Q117.3 31.9 116.05 31.9 115.05 31.9 114.4 31.25 113.35 31.0 113.0 30.3 111.85 30.5 111.3 29.9 110.95 29.55 110.95 29.1 L111.05 28.25 110.45 27.5 110.4 26.55 Q110.4 25.25 111.0 24.9 L111.45 23.95 111.3 23.4 Q111.3 22.45 112.35 21.95 L112.65 21.85 112.7 21.75 112.5 21.5 Q112.3 21.25 112.3 20.45 112.3 19.1 112.95 18.75 L113.1 17.75 113.1 17.65 Q113.1 16.8 113.9 15.5 L114.15 15.05 114.0 14.4 Q114.0 13.2 114.95 12.75 L115.0 12.75 115.1 12.5 115.2 12.45 114.85 12.0 114.75 11.4 Q114.75 10.2 115.55 9.65 L115.9 9.0 115.9 8.95 115.85 8.4 Q115.85 7.7 116.3 7.45 L116.3 7.35 116.1 6.6 Q116.1 5.2 116.75 5.05 L116.7 4.8 Q116.7 4.1 117.1 3.95 L117.2 3.85 Q117.55 3.75 117.65 4.15 L117.8 4.7 117.8 5.35 117.85 5.4 118.05 5.55 118.05 5.6 118.15 5.6 118.2 5.65 118.4 5.9 118.4 5.95 118.5 6.6 118.3 7.5 118.35 7.6 Q119.6 8.85 119.6 9.9 L119.55 10.35 119.75 10.6 120.2 11.55 120.25 12.45 120.15 14.05 Q120.85 14.6 120.85 15.15 L120.7 16.4 121.45 17.05 121.7 17.65 121.75 18.9 121.8 19.0 121.75 20.0 121.75 20.15 121.7 20.3 121.8 20.4 M118.55 11.25 L118.6 11.25 118.55 11.15 118.55 11.25 M118.05 15.75 L117.9 15.95 117.7 16.25 118.05 15.75 M120.0 24.0 L120.25 24.2 120.2 24.0 120.2 23.95 120.0 24.0 M118.35 18.8 L118.4 18.95 118.45 18.8 118.35 18.8" fill="#099700" fill-rule="evenodd" stroke="none"/>
    <path d="M121.8 20.4 Q122.85 21.3 122.85 22.3 L122.75 23.5 122.9 23.65 Q124.15 24.6 124.15 25.55 L123.85 26.5 124.15 27.15 123.75 28.05 123.45 28.35 123.1 28.55 122.4 28.65 122.1 28.65 122.1 28.8 122.1 29.0 Q122.1 31.2 120.0 31.2 L119.9 31.2 Q118.95 31.2 118.6 30.8 L118.55 30.75 118.35 31.0 118.15 31.2 Q117.3 31.9 116.05 31.9 115.05 31.9 114.4 31.25 113.35 31.0 113.0 30.3 111.85 30.5 111.3 29.9 110.95 29.55 110.95 29.1 L111.05 28.25 110.45 27.5 110.4 26.55 Q110.4 25.25 111.0 24.9 L111.45 23.95 111.3 23.4 Q111.3 22.45 112.35 21.95 L112.65 21.85 112.7 21.75 112.5 21.5 Q112.3 21.25 112.3 20.45 112.3 19.1 112.95 18.75 L113.1 17.75 113.1 17.65 Q113.1 16.8 113.9 15.5 L114.15 15.05 114.0 14.4 Q114.0 13.2 114.95 12.75 L115.0 12.75 115.1 12.5 115.2 12.45 114.85 12.0 114.75 11.4 Q114.75 10.2 115.55 9.65 L115.9 9.0 115.9 8.95 115.85 8.4 Q115.85 7.7 116.3 7.45 L116.3 7.35 116.1 6.6 Q116.1 5.2 116.75 5.05 L116.7 4.8 Q116.7 4.1 117.1 3.95 L117.2 3.85 Q117.55 3.75 117.65 4.15 L117.8 4.7 117.8 5.35 117.85 5.4 118.05 5.55 118.05 5.6 118.15 5.6 118.2 5.65 118.4 5.9 118.4 5.95 118.5 6.6 118.3 7.5 118.35 7.6 Q119.6 8.85 119.6 9.9 L119.55 10.35 119.75 10.6 120.2 11.55 120.25 12.45 120.15 14.05 Q120.85 14.6 120.85 15.15 L120.7 16.4 121.45 17.05 121.7 17.65 121.75 18.9 121.8 19.0 121.75 20.0 121.75 20.15 121.7 20.3 121.8 20.4 Z" fill="none" stroke="#045100" stroke-linecap="round" stroke-linejoin="round" stroke-width="2.0"/>
    <path d="M117.1 3.95 L117.2 3.85 Q117.55 3.75 117.65 4.15 L117.8 4.7 117.8 5.35 117.85 5.4 118.05 5.55 118.05 5.6 118.15 5.6 118.2 5.65 118.4 5.9 118.4 5.95 118.5 6.6 118.3 7.5 118.35 7.6 Q119.6 8.85 119.6 9.9 L119.55 10.35 119.75 10.6 120.2 11.55 120.25 12.45 120.15 14.05 Q120.85 14.6 120.85 15.15 L120.7 16.4 121.45 17.05 121.7 17.65 121.75 18.9 121.8 19.0 121.75 20.0 121.75 20.15 121.7 20.3 121.8 20.4 Q122.85 21.3 122.85 22.3 L122.75 23.5 122.9 23.65 Q124.15 24.6 124.15 25.55 L123.85 26.5 124.15 27.15 123.75 28.05 123.45 28.35 123.1 28.55 122.4 28.65 122.1 28.65 122.1 28.8 122.1 29.0 Q122.1 31.2 120.0 31.2 L119.9 31.2 Q118.95 31.2 118.6 30.8 L118.55 30.75 118.35 31.0 118.15 31.2 117.65 30.55 117.65 29.6 117.65 28.65 117.8 28.2 117.55 27.55 Q117.55 26.6 118.25 26.35 L118.7 26.35 118.9 26.05 119.05 25.8 Q118.7 25.7 118.7 25.25 L118.8 24.9 118.5 24.95 Q117.55 24.95 117.15 24.3 L116.9 23.55 Q116.9 22.9 117.4 22.5 L117.15 20.45 117.4 19.3 117.05 18.75 116.6 18.05 116.35 16.9 Q116.35 16.35 116.85 15.55 L117.3 14.75 117.15 14.2 117.0 13.75 116.4 13.0 116.2 12.25 Q116.2 11.65 116.9 11.55 117.25 11.4 117.45 11.55 L117.55 10.95 117.4 10.15 117.0 9.75 116.95 9.35 117.0 9.15 116.95 8.9 117.0 8.6 116.5 8.4 116.45 8.15 Q116.45 7.6 117.0 7.6 L117.0 6.95 117.25 6.3 117.5 5.8 117.1 3.95 M118.55 11.15 L118.55 11.25 118.6 11.25 118.55 11.15 M118.05 15.75 L117.9 15.95 117.7 16.25 118.05 15.75 M118.4 18.95 L118.45 18.8 118.35 18.8 118.4 18.95 M120.2 23.95 L120.0 24.0 120.25 24.2 120.2 24.0 120.2 23.95" fill="#099700" fill-rule="evenodd" stroke="none"/>
    <path d="M118.15 31.2 Q117.3 31.9 116.05 31.9 115.05 31.9 114.4 31.25 113.35 31.0 113.0 30.3 111.85 30.5 111.3 29.9 110.95 29.55 110.95 29.1 L111.05 28.25 110.45 27.5 110.4 26.55 Q110.4 25.25 111.0 24.9 L111.45 23.95 111.3 23.4 Q111.3 22.45 112.35 21.95 L112.65 21.85 112.7 21.75 112.5 21.5 Q112.3 21.25 112.3 20.45 112.3 19.1 112.95 18.75 L113.1 17.75 113.1 17.65 Q113.1 16.8 113.9 15.5 L114.15 15.05 114.0 14.4 Q114.0 13.2 114.95 12.75 L115.0 12.75 115.1 12.5 115.2 12.45 114.85 12.0 114.75 11.4 Q114.75 10.2 115.55 9.65 L115.9 9.0 115.9 8.95 115.85 8.4 Q115.85 7.7 116.3 7.45 L116.3 7.35 116.1 6.6 Q116.1 5.2 116.75 5.05 L116.7 4.8 Q116.7 4.1 117.1 3.95 L117.5 5.8 117.25 6.3 117.0 6.95 117.0 7.6 Q116.45 7.6 116.45 8.15 L116.5 8.4 117.0 8.6 116.95 8.9 117.0 9.15 116.95 9.35 117.0 9.75 117.4 10.15 117.55 10.95 117.45 11.55 Q117.25 11.4 116.9 11.55 116.2 11.65 116.2 12.25 L116.4 13.0 117.0 13.75 117.15 14.2 117.3 14.75 116.85 15.55 Q116.35 16.35 116.35 16.9 L116.6 18.05 117.05 18.75 117.4 19.3 117.15 20.45 117.4 22.5 Q116.9 22.9 116.9 23.55 L117.15 24.3 Q117.55 24.95 118.5 24.95 L118.8 24.9 118.7 25.25 Q118.7 25.7 119.05 25.8 L118.9 26.05 118.7 26.35 118.25 26.35 Q117.55 26.6 117.55 27.55 L117.8 28.2 117.65 28.65 117.65 29.6 117.65 30.55 118.15 31.2 M120.2 23.95 L120.2 24.0 120.25 24.2 120.0 24.0 120.2 23.95 M118.4 18.95 L118.35 18.8 118.45 18.8 118.4 18.95 M118.05 15.75 L117.7 16.25 117.9 15.95 118.05 15.75 M118.55 11.15 L118.6 11.25 118.55 11.25 118.55 11.15" fill="#037700" fill-rule="evenodd" stroke="none"/>
    <path d="M0.95 29.9 Q0.95 26.7 4.1 24.45 7.2 22.25 11.6 22.25 16.0 22.25 19.1 24.45 22.2 26.7 22.2 29.9 22.2 33.05 19.1 35.25 16.0 37.5 11.6 37.5 7.2 37.5 4.1 35.25 0.95 33.05 0.95 29.9" fill="#000000" fill-opacity="0.2" fill-rule="evenodd" stroke="none"/>
    <path d="M11.4 1.75 Q11.75 1.6 11.9 2.05 12.1 2.2 12.1 2.7 L12.05 3.45 12.15 3.5 12.35 3.65 12.4 3.7 12.5 3.75 12.55 3.75 12.75 4.05 12.75 4.1 12.9 4.85 12.65 5.9 12.75 6.0 Q14.15 7.45 14.15 8.65 L14.1 9.15 14.3 9.4 Q14.75 9.9 14.8 10.55 L14.85 11.6 14.8 13.4 Q15.55 14.0 15.55 14.65 L15.4 16.05 16.3 16.8 16.55 17.5 16.6 18.95 16.65 19.05 16.6 20.25 16.6 20.35 16.55 20.55 16.65 20.65 Q17.85 21.7 17.85 22.8 L17.75 24.25 17.9 24.35 Q19.35 25.5 19.35 26.55 L19.0 27.65 19.35 28.35 18.9 29.4 18.6 29.75 18.15 30.0 17.35 30.15 17.0 30.15 17.0 30.3 17.0 30.5 Q17.0 33.05 14.6 33.05 L14.5 33.05 Q13.4 33.0 13.0 32.6 L12.95 32.5 12.7 32.8 12.5 33.05 Q11.5 33.85 10.1 33.85 8.95 33.85 8.2 33.1 6.95 32.8 6.6 32.0 5.3 32.2 4.65 31.55 4.2 31.15 4.2 30.65 4.2 30.2 4.35 29.65 3.85 29.4 3.65 28.8 L3.6 27.7 Q3.6 26.25 4.3 25.85 L4.8 24.75 4.65 24.1 Q4.65 23.0 5.85 22.45 L6.15 22.3 6.25 22.2 6.0 21.95 Q5.8 21.65 5.8 20.75 5.8 19.2 6.5 18.75 L6.7 17.6 6.7 17.5 Q6.7 16.5 7.6 15.05 L7.9 14.5 7.7 13.8 Q7.7 12.4 8.85 11.9 L8.9 11.9 9.0 11.65 9.1 11.55 8.7 11.05 8.6 10.35 Q8.6 8.95 9.5 8.35 L9.95 7.6 9.9 7.55 9.85 6.9 Q9.85 6.1 10.4 5.8 L10.4 5.7 10.15 4.85 Q10.15 3.25 10.9 3.1 L10.85 2.8 Q10.85 2.0 11.25 1.8 L11.4 1.75 M12.95 10.15 L13.0 10.2 12.95 10.1 12.95 10.15 M12.35 15.35 L12.2 15.55 11.9 15.95 11.95 15.95 12.35 15.35 M12.75 19.0 L12.8 18.8 12.75 18.8 12.75 19.0 M14.85 25.0 L14.8 24.8 14.8 24.75 14.6 24.8 14.85 25.0" fill="#099700" fill-rule="evenodd" stroke="none"/>
    <path d="M11.4 1.75 Q11.75 1.6 11.9 2.05 12.1 2.2 12.1 2.7 L12.05 3.45 12.15 3.5 12.35 3.65 12.4 3.7 12.5 3.75 12.55 3.75 12.75 4.05 12.75 4.1 12.9 4.85 12.65 5.9 12.75 6.0 Q14.15 7.45 14.15 8.65 L14.1 9.15 14.3 9.4 Q14.75 9.9 14.8 10.55 L14.85 11.6 14.8 13.4 Q15.55 14.0 15.55 14.65 L15.4 16.05 16.3 16.8 16.55 17.5 16.6 18.95 16.65 19.05 16.6 20.25 16.6 20.35 16.55 20.55 16.65 20.65 Q17.85 21.7 17.85 22.8 L17.75 24.25 17.9 24.35 Q19.35 25.5 19.35 26.55 L19.0 27.65 19.35 28.35 18.9 29.4 18.6 29.75 18.15 30.0 17.35 30.15 17.0 30.15 17.0 30.3 17.0 30.5 Q17.0 33.05 14.6 33.05 L14.5 33.05 Q13.4 33.0 13.0 32.6 L12.95 32.5 12.7 32.8 12.5 33.05 Q11.5 33.85 10.1 33.85 8.95 33.85 8.2 33.1 6.95 32.8 6.6 32.0 5.3 32.2 4.65 31.55 4.2 31.15 4.2 30.65 4.2 30.2 4.35 29.65 3.85 29.4 3.65 28.8 L3.6 27.7 Q3.6 26.25 4.3 25.85 L4.8 24.75 4.65 24.1 Q4.65 23.0 5.85 22.45 L6.15 22.3 6.25 22.2 6.0 21.95 Q5.8 21.65 5.8 20.75 5.8 19.2 6.5 18.75 L6.7 17.6 6.7 17.5 Q6.7 16.5 7.6 15.05 L7.9 14.5 7.7 13.8 Q7.7 12.4 8.85 11.9 L8.9 11.9 9.0 11.65 9.1 11.55 8.7 11.05 8.6 10.35 Q8.6 8.95 9.5 8.35 L9.95 7.6 9.9 7.55 9.85 6.9 Q9.85 6.1 10.4 5.8 L10.4 5.7 10.15 4.85 Q10.15 3.25 10.9 3.1 L10.85 2.8 Q10.85 2.0 11.25 1.8 L11.4 1.75 Z" fill="none" stroke="#045100" stroke-linecap="round" stroke-linejoin="round" stroke-width="2.0"/>
    <path d="M12.5 33.05 Q11.5 33.85 10.1 33.85 8.95 33.85 8.2 33.1 6.95 32.8 6.6 32.0 5.3 32.2 4.65 31.55 4.2 31.15 4.2 30.65 4.2 30.2 4.35 29.65 3.85 29.4 3.65 28.8 L3.6 27.7 Q3.6 26.25 4.3 25.85 L4.8 24.75 4.65 24.1 Q4.65 23.0 5.85 22.45 L6.15 22.3 6.25 22.2 6.0 21.95 Q5.8 21.65 5.8 20.75 5.8 19.2 6.5 18.75 L6.7 17.6 6.7 17.5 Q6.7 16.5 7.6 15.05 L7.9 14.5 7.7 13.8 Q7.7 12.4 8.85 11.9 L8.9 11.9 9.0 11.65 9.1 11.55 8.7 11.05 8.6 10.35 Q8.6 8.95 9.5 8.35 L9.95 7.6 9.9 7.55 9.85 6.9 Q9.85 6.1 10.4 5.8 L10.4 5.7 10.15 4.85 Q10.15 3.25 10.9 3.1 L10.85 2.8 Q10.85 2.0 11.25 1.8 L11.75 3.95 11.5 4.55 Q11.2 4.85 11.2 5.25 L11.2 6.0 Q10.5 6.05 10.5 6.6 L10.6 6.9 11.15 7.15 11.1 7.5 11.15 7.8 11.1 8.05 11.15 8.45 Q11.25 8.85 11.6 8.9 L11.8 9.85 11.7 10.55 11.05 10.5 Q10.25 10.65 10.25 11.35 L10.5 12.2 Q10.75 12.85 11.15 13.05 L11.3 13.6 11.5 14.15 11.0 15.15 Q10.45 16.0 10.45 16.65 L10.75 17.95 Q10.8 18.45 11.25 18.75 L11.6 19.4 11.3 20.75 11.6 23.05 Q11.05 23.55 11.05 24.3 L11.35 25.1 Q11.8 25.85 12.85 25.85 L13.25 25.85 Q13.1 26.0 13.1 26.25 13.1 26.7 13.55 26.85 L13.35 27.1 13.1 27.5 12.6 27.5 Q11.8 27.75 11.8 28.85 L12.1 29.6 11.9 30.1 11.9 31.2 11.95 32.3 Q12.05 32.75 12.5 33.05 M14.6 24.8 L14.8 24.75 14.8 24.8 14.85 25.0 14.6 24.8 M12.75 19.0 L12.75 18.8 12.8 18.8 12.75 19.0 M11.9 15.95 L12.2 15.55 12.35 15.35 11.95 15.95 11.9 15.95 M12.95 10.1 L13.0 10.2 12.95 10.15 12.95 10.1" fill="#037700" fill-rule="evenodd" stroke="none"/>
    <path d="M11.25 1.8 L11.4 1.75 Q11.75 1.6 11.9 2.05 12.1 2.2 12.1 2.7 L12.05 3.45 12.15 3.5 12.35 3.65 12.4 3.7 12.5 3.75 12.55 3.75 12.75 4.05 12.75 4.1 12.9 4.85 12.65 5.9 12.75 6.0 Q14.15 7.45 14.15 8.65 L14.1 9.15 14.3 9.4 Q14.75 9.9 14.8 10.55 L14.85 11.6 14.8 13.4 Q15.55 14.0 15.55 14.65 L15.4 16.05 16.3 16.8 16.55 17.5 16.6 18.95 16.65 19.05 16.6 20.25 16.6 20.35 16.55 20.55 16.65 20.65 Q17.85 21.7 17.85 22.8 L17.75 24.25 17.9 24.35 Q19.35 25.5 19.35 26.55 L19.0 27.65 19.35 28.35 18.9 29.4 18.6 29.75 18.15 30.0 17.35 30.15 17.0 30.15 17.0 30.3 17.0 30.5 Q17.0 33.05 14.6 33.05 L14.5 33.05 Q13.4 33.0 13.0 32.6 L12.95 32.5 12.7 32.8 12.5 33.05 Q12.05 32.75 11.95 32.3 L11.9 31.2 11.9 30.1 12.1 29.6 11.8 28.85 Q11.8 27.75 12.6 27.5 L13.1 27.5 13.35 27.1 13.55 26.85 Q13.1 26.7 13.1 26.25 13.1 26.0 13.25 25.85 L12.85 25.85 Q11.8 25.85 11.35 25.1 L11.05 24.3 Q11.05 23.55 11.6 23.05 L11.3 20.75 11.6 19.4 11.25 18.75 Q10.8 18.45 10.75 17.95 L10.45 16.65 Q10.45 16.0 11.0 15.15 L11.5 14.15 11.3 13.6 11.15 13.05 Q10.75 12.85 10.5 12.2 L10.25 11.35 Q10.25 10.65 11.05 10.5 L11.7 10.55 11.8 9.85 11.6 8.9 Q11.25 8.85 11.15 8.45 L11.1 8.05 11.15 7.8 11.1 7.5 11.15 7.15 10.6 6.9 10.5 6.6 Q10.5 6.05 11.2 6.0 L11.2 5.25 Q11.2 4.85 11.5 4.55 L11.75 3.95 11.25 1.8 M12.95 10.1 L12.95 10.15 13.0 10.2 12.95 10.1 M11.9 15.95 L11.95 15.95 12.35 15.35 12.2 15.55 11.9 15.95 M12.75 19.0 L12.8 18.8 12.75 18.8 12.75 19.0 M14.6 24.8 L14.85 25.0 14.8 24.8 14.8 24.75 14.6 24.8" fill="#099700" fill-rule="evenodd" stroke="none"/>
  </g>
</svg>
