<?xml version="1.0" encoding="UTF-8" standalone="no"?>
<svg xmlns:xlink="http://www.w3.org/1999/xlink" height="69.35px" width="64.05px" xmlns="http://www.w3.org/2000/svg">
  <g transform="matrix(1.0, 0.0, 0.0, 1.0, -0.15, 25.8)">
    <path d="M13.35 10.3 L6.95 12.65 4.05 11.1 1.15 9.4 6.2 -3.15 8.5 5.05 10.8 3.5 13.35 10.3 Z" fill="none" stroke="#2f87a4" stroke-linecap="round" stroke-linejoin="round" stroke-width="2.0"/>
    <path d="M5.6 -1.6 L6.2 -3.15 8.5 5.05 10.8 3.5 13.35 10.3 9.85 11.6 7.95 6.4 6.25 8.15 5.6 -1.6" fill="url(#gradient0)" fill-rule="evenodd" stroke="none"/>
    <path d="M9.85 11.6 L6.95 12.65 4.05 11.1 1.15 9.4 5.6 -1.6 6.25 8.15 7.95 6.4 9.85 11.6" fill="#85c7dc" fill-rule="evenodd" stroke="none"/>
    <path d="M56.4 12.05 L55.6 -3.5 53.75 -1.3 54.2 -11.2 54.9 -13.9 60.5 10.35 56.4 12.05" fill="#e4f3f8" fill-rule="evenodd" stroke="none"/>
    <path d="M54.2 -11.2 L53.75 -1.3 55.6 -3.5 56.4 12.05 52.3 13.75 48.85 8.6 54.2 -11.2" fill="#a4d3e4" fill-rule="evenodd" stroke="none"/>
    <path d="M56.4 12.05 L60.5 10.35 54.9 -13.9 54.2 -11.2 48.85 8.6 52.3 13.75 56.4 12.05 Z" fill="none" stroke="#2f87a4" stroke-linecap="round" stroke-linejoin="round" stroke-width="1.0"/>
    <path d="M14.0 7.85 L13.2 -7.7 11.35 -5.5 11.8 -15.4 12.5 -18.1 18.1 6.15 14.0 7.85" fill="#e4f3f8" fill-rule="evenodd" stroke="none"/>
    <path d="M11.8 -15.4 L11.35 -5.5 13.2 -7.7 14.0 7.85 9.9 9.55 6.45 4.4 11.8 -15.4" fill="#a4d3e4" fill-rule="evenodd" stroke="none"/>
    <path d="M14.0 7.85 L18.1 6.15 12.5 -18.1 11.8 -15.4 6.45 4.4 9.9 9.55 14.0 7.85 Z" fill="none" stroke="#2f87a4" stroke-linecap="round" stroke-linejoin="round" stroke-width="1.0"/>
    <path d="M34.25 -15.45 L41.15 -9.95 46.95 -16.1 63.2 19.2 58.2 22.55 22.8 26.25 Q6.0 37.3 5.85 37.15 L1.9 35.9 3.55 32.65 1.9 29.1 5.6 24.7 1.6 20.6 5.5 12.9 22.8 -24.8 31.55 -12.9 34.25 -15.45 Z" fill="none" stroke="#2f87a4" stroke-linecap="round" stroke-linejoin="round" stroke-width="2.0"/>
    <path d="M22.9 -24.45 L21.0 -16.0 23.6 -17.4 10.2 34.5 5.85 37.15 1.9 35.9 3.55 32.65 1.9 29.1 5.6 24.7 2.4 21.0 5.5 12.9 22.9 -24.45" fill="#85c7dc" fill-rule="evenodd" stroke="none"/>
    <path d="M22.9 -24.45 L22.8 -24.8 31.55 -12.9 34.25 -15.45 41.15 -9.95 46.7 -15.5 48.2 -1.7 43.7 -6.5 45.45 25.5 22.8 26.25 10.2 34.5 23.6 -17.4 21.0 -16.0 22.9 -24.45" fill="url(#gradient1)" fill-rule="evenodd" stroke="none"/>
    <path d="M45.45 25.5 L43.7 -6.5 48.2 -1.7 46.7 -15.5 47.0 -15.8 62.8 19.0 54.4 25.2 45.45 25.5" fill="url(#gradient2)" fill-rule="evenodd" stroke="none"/>
    <path d="M59.85 42.55 L32.55 41.1 14.3 42.55 14.55 14.7 21.75 8.15 25.5 -2.5 28.8 1.35 32.65 1.85 34.85 5.6 41.5 11.1 53.2 29.85 58.2 27.5 60.4 32.15 63.05 40.35 59.85 42.55 Z" fill="none" stroke="#2f87a4" stroke-linecap="round" stroke-linejoin="round" stroke-width="2.0"/>
    <path d="M58.2 27.5 L60.4 32.15 63.05 40.35 59.85 42.55 32.55 41.1 14.3 42.55 14.55 14.7 21.75 8.15 25.5 -2.5 28.8 1.35 32.65 1.85 34.85 5.6 41.5 11.1 53.2 29.85 58.2 27.5" fill="#a0d2e3" fill-rule="evenodd" stroke="none"/>
    <path d="M39.2 -19.2 L39.3 -19.25 39.8 -19.45 40.1 -19.55 40.15 -19.55 42.2 -19.95 44.9 -19.85 Q45.95 -19.65 46.35 -19.0 47.4 -18.3 47.85 -15.95 L48.1 -14.55 48.1 -14.5 48.15 -14.15 48.2 -13.0 48.25 -11.6 48.25 -11.1 48.2 -8.8 48.2 -6.95 48.15 -5.2 48.1 -3.7 48.05 3.15 48.05 3.9 48.05 3.95 47.95 8.25 Q47.9 8.4 47.65 8.4 L47.55 8.4 47.5 8.4 41.2 3.95 40.75 3.7 38.25 2.15 Q35.75 0.55 35.75 0.0 L35.75 -0.1 35.75 -0.25 36.15 -3.9 36.6 -6.8 37.1 -9.65 37.1 -10.05 37.15 -10.55 37.2 -10.85 37.3 -11.3 37.45 -12.05 37.55 -12.45 37.75 -13.35 37.8 -13.8 37.9 -14.55 37.95 -14.75 37.95 -15.55 37.95 -15.6 37.95 -15.75 37.9 -16.1 37.9 -16.15 37.85 -16.95 37.85 -17.15 37.9 -17.5 38.0 -18.0 38.05 -18.2 38.15 -18.5 38.2 -18.6 38.6 -19.2 39.2 -19.2" fill="#2f87a4" fill-rule="evenodd" stroke="none"/>
    <path d="M39.2 -19.2 L39.3 -19.25 39.8 -19.45 40.1 -19.55 40.15 -19.55 42.2 -19.95 44.9 -19.85 Q45.95 -19.65 46.35 -19.0 47.4 -18.3 47.85 -15.95 L48.1 -14.55 48.1 -14.5 48.15 -14.15 48.2 -13.0 48.25 -11.6 48.25 -11.1 48.2 -8.8 48.2 -6.95 48.15 -5.2 48.1 -3.7 48.05 3.15 48.05 3.9 48.05 3.95 47.95 8.25 Q47.9 8.4 47.65 8.4 L47.55 8.4 47.5 8.4 41.2 3.95 40.75 3.7 38.25 2.15 Q35.75 0.55 35.75 0.0 L35.75 -0.1 35.75 -0.25 36.15 -3.9 36.6 -6.8 37.1 -9.65 37.1 -10.05 37.15 -10.55 37.2 -10.85 37.3 -11.3 37.45 -12.05 37.55 -12.45 37.75 -13.35 37.8 -13.8 37.9 -14.55 37.95 -14.75 37.95 -15.55 37.95 -15.6 37.95 -15.75 37.9 -16.1 37.9 -16.15 37.85 -16.95 37.85 -17.15 37.9 -17.5 38.0 -18.0 38.05 -18.2 38.15 -18.5 38.2 -18.6 38.6 -19.2 39.2 -19.2 Z" fill="none" stroke="#2f87a4" stroke-linecap="round" stroke-linejoin="round" stroke-width="2.0"/>
    <path d="M37.95 -14.75 L37.95 -15.55 37.95 -15.6 37.95 -15.75 37.9 -16.1 37.9 -16.15 37.85 -16.95 37.85 -17.15 37.9 -17.5 38.0 -18.0 38.05 -18.2 38.15 -18.5 38.2 -18.6 38.6 -19.2 39.2 -19.2 39.3 -19.25 39.8 -19.45 40.1 -19.55 40.15 -19.55 44.9 -19.85 Q45.95 -19.65 46.35 -19.0 47.4 -18.3 47.85 -15.95 L48.1 -14.55 48.1 -14.5 48.15 -14.15 48.15 -13.95 48.2 -13.3 47.8 -13.1 47.7 -13.15 46.55 -13.05 43.55 -13.15 42.8 -13.3 40.7 -13.5 Q38.8 -13.9 38.05 -14.6 L37.95 -14.75 M40.05 -16.65 L39.95 -16.15 Q39.95 -15.35 40.1 -15.2 40.9 -14.55 44.6 -14.55 46.1 -14.55 46.1 -15.6 46.1 -18.35 43.05 -18.15 L41.55 -17.9 Q39.95 -17.7 39.95 -17.15 L40.05 -16.65" fill="#f4fbfd" fill-rule="evenodd" stroke="none"/>
    <path d="M40.05 -16.65 L39.95 -17.15 Q39.95 -17.7 41.55 -17.9 L43.05 -18.15 Q46.1 -18.35 46.1 -15.6 46.1 -14.55 44.6 -14.55 40.9 -14.55 40.1 -15.2 39.95 -15.35 39.95 -16.15 L40.05 -16.65" fill="#75c0d9" fill-rule="evenodd" stroke="none"/>
    <path d="M40.15 -19.55 L42.2 -19.95 44.9 -19.85 40.15 -19.55 M48.2 -13.3 L48.2 -13.0 48.25 -11.6 46.85 -11.6 46.35 -12.1 46.25 -12.3 Q46.25 -12.85 46.55 -13.05 L47.7 -13.15 47.8 -13.1 48.2 -13.3 M48.2 -8.8 L48.2 -6.95 48.15 -5.2 Q47.5 -4.55 45.6 -4.55 42.7 -4.55 41.95 -6.1 L41.75 -7.8 Q41.75 -10.8 45.15 -10.9 47.5 -10.95 48.2 -8.8 M48.1 -3.7 L48.05 3.15 47.95 3.15 Q45.8 3.15 45.8 1.15 L46.1 -1.5 Q46.45 -3.1 47.75 -3.6 L48.1 -3.7 M48.05 3.9 L48.05 3.95 47.95 8.25 Q47.9 8.4 47.65 8.4 L47.5 8.4 41.2 3.95 40.75 3.7 Q41.75 3.05 44.75 3.25 47.1 3.4 48.05 3.9 M35.75 -0.1 L35.75 -0.25 36.15 -3.9 36.2 -4.2 36.25 -4.4 36.3 -4.6 36.3 -4.65 38.05 -4.85 44.35 -3.7 Q45.05 -3.4 45.05 -2.0 L44.75 0.1 Q44.1 1.95 42.15 1.95 L38.9 1.2 36.5 0.4 35.75 -0.1 M36.6 -6.8 L37.1 -9.65 37.1 -10.05 37.15 -10.55 37.2 -10.85 37.3 -11.3 Q41.2 -11.45 41.2 -7.75 41.2 -6.3 38.7 -6.3 37.3 -6.3 36.6 -6.8 M37.55 -12.45 L37.75 -13.35 37.8 -13.8 37.85 -13.9 37.9 -14.15 37.9 -14.55 37.95 -14.75 38.05 -14.6 Q38.8 -13.9 40.7 -13.5 L42.8 -13.3 43.55 -13.15 44.0 -12.6 43.85 -11.7 Q43.5 -11.25 42.05 -11.25 39.4 -11.25 38.05 -12.05 L37.55 -12.45" fill="#acd9e8" fill-rule="evenodd" stroke="none"/>
    <path d="M48.25 -11.6 L48.25 -11.1 48.2 -8.8 Q47.5 -10.95 45.15 -10.9 41.75 -10.8 41.75 -7.8 L41.95 -6.1 Q42.7 -4.55 45.6 -4.55 47.5 -4.55 48.15 -5.2 L48.1 -3.7 47.75 -3.6 Q46.45 -3.1 46.1 -1.5 L45.8 1.15 Q45.8 3.15 47.95 3.15 L48.05 3.15 48.05 3.9 Q47.1 3.4 44.75 3.25 41.75 3.05 40.75 3.7 L38.25 2.15 Q35.75 0.55 35.75 0.0 L35.75 -0.1 36.5 0.4 38.9 1.2 42.15 1.95 Q44.1 1.95 44.75 0.1 L45.05 -2.0 Q45.05 -3.4 44.35 -3.7 L38.05 -4.85 36.3 -4.65 36.6 -6.8 Q37.3 -6.3 38.7 -6.3 41.2 -6.3 41.2 -7.75 41.2 -11.45 37.3 -11.3 L37.45 -12.05 37.55 -12.45 38.05 -12.05 Q39.4 -11.25 42.05 -11.25 43.5 -11.25 43.85 -11.7 L44.0 -12.6 43.55 -13.15 46.55 -13.05 Q46.25 -12.85 46.25 -12.3 L46.35 -12.1 46.85 -11.6 48.25 -11.6" fill="#dff1f7" fill-rule="evenodd" stroke="none"/>
    <path d="M54.25 -12.9 Q55.3 -12.7 55.7 -12.05 56.75 -11.35 57.2 -9.0 L57.45 -7.6 57.45 -7.55 57.5 -7.2 57.55 -6.05 57.6 -4.65 57.6 -4.15 57.55 -1.85 57.55 0.0 57.5 1.75 57.45 3.25 57.4 10.1 57.4 10.85 57.4 10.9 57.3 15.2 57.0 15.35 56.9 15.35 56.85 15.35 50.55 10.9 50.1 10.65 47.6 9.1 Q45.1 7.5 45.1 6.95 L45.1 6.85 45.1 6.7 45.5 3.05 45.95 0.15 46.45 -2.7 46.45 -3.1 46.5 -3.6 46.55 -3.9 46.65 -4.35 46.8 -5.1 46.9 -5.5 47.1 -6.4 47.15 -6.85 47.25 -7.6 47.3 -7.8 47.3 -8.6 47.3 -8.65 47.3 -8.8 47.25 -9.15 47.25 -9.2 47.2 -10.0 47.2 -10.2 47.25 -10.55 47.35 -11.05 47.4 -11.25 47.5 -11.55 47.55 -11.65 47.95 -12.25 48.55 -12.25 48.65 -12.3 49.15 -12.5 49.45 -12.6 49.5 -12.6 51.55 -13.0 54.25 -12.9" fill="#2f87a4" fill-rule="evenodd" stroke="none"/>
    <path d="M54.25 -12.9 Q55.3 -12.7 55.7 -12.05 56.75 -11.35 57.2 -9.0 L57.45 -7.6 57.45 -7.55 57.5 -7.2 57.55 -6.05 57.6 -4.65 57.6 -4.15 57.55 -1.85 57.55 0.0 57.5 1.75 57.45 3.25 57.4 10.1 57.4 10.85 57.4 10.9 57.3 15.2 57.0 15.35 56.9 15.35 56.85 15.35 50.55 10.9 50.1 10.65 47.6 9.1 Q45.1 7.5 45.1 6.95 L45.1 6.85 45.1 6.7 45.5 3.05 45.95 0.15 46.45 -2.7 46.45 -3.1 46.5 -3.6 46.55 -3.9 46.65 -4.35 46.8 -5.1 46.9 -5.5 47.1 -6.4 47.15 -6.85 47.25 -7.6 47.3 -7.8 47.3 -8.6 47.3 -8.65 47.3 -8.8 47.25 -9.15 47.25 -9.2 47.2 -10.0 47.2 -10.2 47.25 -10.55 47.35 -11.05 47.4 -11.25 47.5 -11.55 47.55 -11.65 47.95 -12.25 48.55 -12.25 48.65 -12.3 49.15 -12.5 49.45 -12.6 49.5 -12.6 51.55 -13.0 54.25 -12.9 Z" fill="none" stroke="#2f87a4" stroke-linecap="round" stroke-linejoin="round" stroke-width="2.0"/>
    <path d="M49.5 -12.6 L51.55 -13.0 54.25 -12.9 49.5 -12.6 M57.55 -6.35 L57.55 -6.05 57.6 -4.65 56.2 -4.65 55.7 -5.15 55.6 -5.35 Q55.6 -5.9 55.9 -6.1 L57.05 -6.2 57.15 -6.15 57.55 -6.35 M57.55 -1.85 L57.55 0.0 57.5 1.75 Q56.85 2.4 54.95 2.4 52.05 2.4 51.3 0.85 L51.1 -0.85 Q51.1 -3.85 54.5 -3.95 56.85 -4.0 57.55 -1.85 M57.45 3.25 L57.4 10.1 57.3 10.1 Q55.15 10.1 55.15 8.1 L55.45 5.45 Q55.8 3.85 57.1 3.35 L57.45 3.25 M57.4 10.85 L57.4 10.9 57.3 15.2 57.0 15.35 56.85 15.35 50.55 10.9 50.1 10.65 Q51.1 10.0 54.1 10.2 56.45 10.35 57.4 10.85 M45.1 6.85 L45.1 6.7 45.5 3.05 45.55 2.75 45.6 2.55 45.65 2.35 45.65 2.3 47.4 2.1 Q52.7 2.75 53.7 3.25 54.4 3.55 54.4 4.95 L54.1 7.05 Q53.45 8.9 51.5 8.9 50.55 8.9 48.25 8.15 L45.85 7.35 45.1 6.85 M45.95 0.15 L46.45 -2.7 46.45 -3.1 46.5 -3.6 46.55 -3.9 46.65 -4.35 Q50.55 -4.5 50.55 -0.8 50.55 0.65 48.05 0.65 46.65 0.65 45.95 0.15 M46.9 -5.5 L47.1 -6.4 47.15 -6.85 47.2 -6.95 47.25 -7.2 47.25 -7.6 47.3 -7.8 47.4 -7.65 Q48.15 -6.95 50.05 -6.55 L52.15 -6.35 52.9 -6.2 53.35 -5.65 53.2 -4.75 Q52.85 -4.3 51.4 -4.3 48.75 -4.3 47.4 -5.1 L46.9 -5.5" fill="#acd9e8" fill-rule="evenodd" stroke="none"/>
    <path d="M54.25 -12.9 Q55.3 -12.7 55.7 -12.05 56.75 -11.35 57.2 -9.0 L57.45 -7.6 57.45 -7.55 57.5 -7.2 57.5 -7.0 57.55 -6.35 57.15 -6.15 57.05 -6.2 55.9 -6.1 52.9 -6.2 52.15 -6.35 50.05 -6.55 Q48.15 -6.95 47.4 -7.65 L47.3 -7.8 47.3 -8.6 47.3 -8.65 47.3 -8.8 47.25 -9.15 47.25 -9.2 47.2 -10.0 47.2 -10.2 47.25 -10.55 47.35 -11.05 47.4 -11.25 47.5 -11.55 47.55 -11.65 47.95 -12.25 48.55 -12.25 48.65 -12.3 49.15 -12.5 49.45 -12.6 49.5 -12.6 54.25 -12.9 M49.3 -10.2 L49.4 -9.7 49.3 -9.2 Q49.3 -8.4 49.45 -8.25 50.25 -7.6 53.95 -7.6 55.45 -7.6 55.45 -8.65 55.45 -11.4 52.4 -11.2 L50.9 -10.95 Q49.3 -10.75 49.3 -10.2" fill="#f4fbfd" fill-rule="evenodd" stroke="none"/>
    <path d="M49.3 -10.2 Q49.3 -10.75 50.9 -10.95 L52.4 -11.2 Q55.45 -11.4 55.45 -8.65 55.45 -7.6 53.95 -7.6 50.25 -7.6 49.45 -8.25 49.3 -8.4 49.3 -9.2 L49.4 -9.7 49.3 -10.2" fill="#75c0d9" fill-rule="evenodd" stroke="none"/>
    <path d="M57.6 -4.65 L57.6 -4.15 57.55 -1.85 Q56.85 -4.0 54.5 -3.95 51.1 -3.85 51.1 -0.85 L51.3 0.85 Q52.05 2.4 54.95 2.4 56.85 2.4 57.5 1.75 L57.45 3.25 57.1 3.35 Q55.8 3.85 55.45 5.45 L55.15 8.1 Q55.15 10.1 57.3 10.1 L57.4 10.1 57.4 10.85 Q56.45 10.35 54.1 10.2 51.1 10.0 50.1 10.65 L47.6 9.1 Q45.1 7.5 45.1 6.95 L45.1 6.85 45.85 7.35 48.25 8.15 Q50.55 8.9 51.5 8.9 53.45 8.9 54.1 7.05 L54.4 4.95 Q54.4 3.55 53.7 3.25 52.7 2.75 47.4 2.1 L45.65 2.3 45.95 0.15 Q46.65 0.65 48.05 0.65 50.55 0.65 50.55 -0.8 50.55 -4.5 46.65 -4.35 L46.8 -5.1 46.9 -5.5 47.4 -5.1 Q48.75 -4.3 51.4 -4.3 52.85 -4.3 53.2 -4.75 L53.35 -5.65 52.9 -6.2 55.9 -6.1 Q55.6 -5.9 55.6 -5.35 L55.7 -5.15 56.2 -4.65 57.6 -4.65" fill="#dff1f7" fill-rule="evenodd" stroke="none"/>
    <path d="M17.3 -20.1 L18.05 -23.7 24.35 8.55 19.75 10.75 18.85 -9.85 16.8 -7.0 17.3 -20.1" fill="#e4f3f8" fill-rule="evenodd" stroke="none"/>
    <path d="M17.3 -20.1 L16.8 -7.0 18.85 -9.85 19.75 10.75 15.15 13.0 11.3 6.2 17.3 -20.1" fill="#a4d3e4" fill-rule="evenodd" stroke="none"/>
    <path d="M19.75 10.75 L24.35 8.55 18.05 -23.7 17.3 -20.1 M19.75 10.75 L15.15 13.0 11.3 6.2 17.3 -20.1" fill="none" stroke="#2f87a4" stroke-linecap="round" stroke-linejoin="round" stroke-width="1.0"/>
  </g>
  <defs>
    <linearGradient gradientTransform="matrix(-0.0069, 0.0107, -0.0076, -0.0049, 8.1, 7.1)" gradientUnits="userSpaceOnUse" id="gradient0" spreadMethod="pad" x1="-819.2" x2="819.2">
      <stop offset="0.0" stop-color="#eef1f7"/>
      <stop offset="1.0" stop-color="#95cee1"/>
    </linearGradient>
    <linearGradient gradientTransform="matrix(-0.0088, 0.031, -0.0347, -0.0098, 26.35, 1.95)" gradientUnits="userSpaceOnUse" id="gradient1" spreadMethod="pad" x1="-819.2" x2="819.2">
      <stop offset="0.0" stop-color="#eef1f7"/>
      <stop offset="1.0" stop-color="#95cee1"/>
    </linearGradient>
    <linearGradient gradientTransform="matrix(0.0086, 0.0286, -0.0241, 0.0073, 58.65, 15.05)" gradientUnits="userSpaceOnUse" id="gradient2" spreadMethod="pad" x1="-819.2" x2="819.2">
      <stop offset="0.0" stop-color="#eef1f7"/>
      <stop offset="1.0" stop-color="#95cee1"/>
    </linearGradient>
  </defs>
</svg>
