<?xml version="1.0" encoding="UTF-8" standalone="no"?>
<svg xmlns:xlink="http://www.w3.org/1999/xlink" height="19.05px" width="68.75px" xmlns="http://www.w3.org/2000/svg">
  <g transform="matrix(1.0, 0.0, 0.0, 1.0, 26.95, 9.4)">
    <path d="M3.65 -5.75 L2.7 -5.95 1.7 -6.05 -0.4 -6.35 -1.3 -6.45 -1.5 -6.45 -4.5 -3.2 -5.35 -2.15 -5.8 -1.5 -5.8 -1.35 -5.8 -1.25 -4.85 2.9 -4.45 4.6 -4.3 5.05 -4.05 5.5 -3.75 5.7 0.55 7.15 5.25 4.8 Q5.55 4.65 6.1 3.3 L7.1 0.75 7.5 -1.05 7.5 -1.2 7.5 -1.25 4.1 -5.55 3.65 -5.75 M3.0 -1.25 L3.0 1.9 2.65 2.45 2.1 3.25 1.6 3.7 1.5 3.7 1.4 3.7 1.0 3.45 -0.2 2.75 -0.65 2.55 -1.2 2.2 -1.5 1.65 -1.55 1.3 -1.7 -0.35 -1.75 -1.05 -1.75 -1.25 -0.85 -2.0 -0.65 -2.15 Q0.3 -2.85 0.85 -2.85 L1.0 -2.85 1.2 -2.85 Q1.55 -2.55 2.25 -1.95 L2.55 -1.7 3.0 -1.25 M9.3 -6.0 L9.3 6.15 13.7 6.15 13.7 2.55 14.1 2.9 14.5 3.25 15.2 4.2 16.25 5.8 16.95 6.85 17.15 7.05 17.4 7.05 21.0 5.5 21.0 5.35 21.0 5.25 Q21.0 4.75 20.35 3.9 L19.35 2.9 18.5 1.7 18.3 1.0 Q18.3 0.6 18.9 0.35 L19.35 0.2 19.65 -0.15 Q20.1 -1.3 20.1 -4.1 L20.1 -4.65 15.85 -6.9 15.35 -6.9 14.7 -6.8 13.75 -6.7 11.6 -6.4 10.2 -6.2 9.4 -6.05 9.3 -6.0 M12.65 -1.6 Q12.65 -1.8 13.75 -2.8 L15.15 -3.95 15.2 -4.0 15.25 -4.0 15.35 -4.0 15.35 -3.95 15.85 -3.5 16.6 -2.6 16.75 -2.4 16.75 -2.3 16.75 -2.2 16.75 -2.15 16.3 -1.45 15.85 -0.8 15.35 -0.6 15.15 -0.6 14.05 -0.9 13.35 -1.15 12.9 -1.25 12.65 -1.5 12.65 -1.6 M24.1 -1.7 L24.1 7.05 31.3 7.05 31.55 6.85 31.8 5.85 32.05 5.05 32.2 4.35 32.25 4.0 28.25 4.0 28.25 3.85 28.2 3.6 28.15 3.25 28.4 3.0 Q29.3 2.35 31.3 1.45 L31.3 0.55 31.2 -0.35 31.15 -0.8 31.1 -0.95 28.15 -0.95 Q28.0 -0.95 27.95 -1.25 L27.9 -1.45 27.9 -1.6 Q27.9 -2.3 28.95 -2.55 L30.95 -2.8 Q32.0 -2.95 32.0 -3.35 L32.0 -3.55 32.0 -3.75 31.65 -5.9 31.55 -6.4 31.3 -6.7 30.95 -6.65 23.2 -6.2 22.95 -4.75 22.85 -4.0 22.75 -3.3 22.75 -2.5 22.7 -2.3 24.55 -2.3 24.1 -1.7 M39.3 -4.1 L39.3 -4.2 38.25 -5.2 Q37.25 -5.8 36.85 -5.8 L35.65 -5.45 Q35.05 -5.05 35.05 -4.4 L35.35 0.9 35.45 2.8 35.7 3.25 35.9 3.25 37.05 3.0 37.4 2.85 37.7 2.55 39.3 -3.95 39.3 -4.1 M35.95 4.35 Q35.85 4.4 35.5 4.75 L35.05 5.25 35.05 5.3 35.0 5.45 Q35.0 6.8 36.05 7.0 L36.85 7.05 37.25 7.05 37.5 6.85 38.0 5.95 38.25 5.4 38.4 5.05 38.45 5.0 38.45 4.9 Q38.45 4.6 37.6 4.45 L36.5 4.35 36.2 4.35 35.95 4.35 M-23.7 -2.55 L-24.3 4.25 -24.45 6.15 -24.45 6.4 -24.35 6.5 -24.2 6.6 -21.75 6.6 -21.5 6.35 -21.3 5.7 -21.25 5.3 -21.1 4.7 -20.8 3.1 -20.5 1.5 -20.1 -0.25 -19.95 -0.8 -19.7 0.5 -19.7 1.15 -19.7 1.9 -19.7 2.75 -19.6 4.1 -19.5 6.4 Q-19.4 6.6 -18.7 6.8 L-17.4 7.0 -16.85 7.05 -16.6 7.05 -16.35 7.05 -14.7 3.7 -13.2 0.3 -13.1 -0.05 -12.95 -0.35 -12.65 -0.75 -12.5 -0.9 Q-12.35 -1.0 -12.3 -1.05 L-12.3 6.6 -8.45 6.6 -8.25 5.7 -8.2 5.2 -8.15 3.95 -8.05 2.25 -7.85 -1.4 -7.8 -2.85 -7.75 -3.55 -7.75 -5.55 -7.75 -6.2 -13.65 -6.2 -13.7 -6.1 -15.55 -1.9 -16.8 1.65 -17.25 -1.25 -17.4 -3.15 -17.85 -6.15 -18.25 -6.65 -18.4 -6.65 -19.25 -6.5 -22.35 -5.95 -23.05 -5.8 -23.35 -5.75 -23.55 -4.65 -23.7 -2.55" fill="none" stroke="#ffffff" stroke-linecap="round" stroke-linejoin="round" stroke-width="5.0"/>
    <path d="M-23.7 -2.55 L-23.55 -4.65 -23.35 -5.75 -23.05 -5.8 -22.35 -5.95 -19.25 -6.5 -18.4 -6.65 -18.25 -6.65 -17.85 -6.15 -17.4 -3.15 -17.25 -1.25 -16.8 1.65 -15.55 -1.9 -13.7 -6.1 -13.65 -6.2 -7.75 -6.2 -7.75 -5.55 -7.75 -3.55 -7.8 -2.85 -7.85 -1.4 -8.05 2.25 -8.15 3.95 -8.2 5.2 -8.25 5.7 -8.45 6.6 -12.3 6.6 -12.3 -1.05 Q-12.35 -1.0 -12.5 -0.9 L-12.65 -0.75 -12.95 -0.35 -13.1 -0.05 -13.2 0.3 -14.7 3.7 -16.35 7.05 -16.6 7.05 -16.85 7.05 -17.4 7.0 -18.7 6.8 Q-19.4 6.6 -19.5 6.4 L-19.6 4.1 -19.7 2.75 -19.7 1.9 -19.7 1.15 -19.7 0.5 -19.95 -0.8 -20.1 -0.25 -20.5 1.5 -20.8 3.1 -21.1 4.7 -21.25 5.3 -21.3 5.7 -21.5 6.35 -21.75 6.6 -24.2 6.6 -24.35 6.5 -24.45 6.4 -24.45 6.15 -24.3 4.25 -23.7 -2.55 M35.95 4.35 L36.2 4.35 36.5 4.35 37.6 4.45 Q38.45 4.6 38.45 4.9 L38.45 5.0 38.4 5.05 38.25 5.4 38.0 5.95 37.5 6.85 37.25 7.05 36.85 7.05 36.05 7.0 Q35.0 6.8 35.0 5.45 L35.05 5.3 35.05 5.25 35.5 4.75 Q35.85 4.4 35.95 4.35 M39.3 -4.1 L39.3 -3.95 37.7 2.55 37.4 2.85 37.05 3.0 35.9 3.25 35.7 3.25 35.45 2.8 35.35 0.9 35.05 -4.4 Q35.05 -5.05 35.65 -5.45 L36.85 -5.8 Q37.25 -5.8 38.25 -5.2 L39.3 -4.2 39.3 -4.1 M24.55 -2.3 L22.7 -2.3 22.75 -2.5 22.75 -3.3 22.85 -4.0 22.95 -4.75 23.2 -6.2 30.95 -6.65 31.3 -6.7 31.55 -6.4 31.65 -5.9 32.0 -3.75 32.0 -3.55 32.0 -3.35 Q32.0 -2.95 30.95 -2.8 L28.95 -2.55 Q27.9 -2.3 27.9 -1.6 L27.9 -1.45 27.95 -1.25 Q28.0 -0.95 28.15 -0.95 L31.1 -0.95 31.15 -0.8 31.2 -0.35 31.3 0.55 31.3 1.45 Q29.3 2.35 28.4 3.0 L28.15 3.25 28.2 3.6 28.25 3.85 28.25 4.0 32.25 4.0 32.2 4.35 32.05 5.05 31.8 5.85 31.55 6.85 31.3 7.05 24.1 7.05 24.1 -1.7 24.55 -2.3 M12.65 -1.5 L12.9 -1.25 13.35 -1.15 14.05 -0.9 15.15 -0.6 15.35 -0.6 15.85 -0.8 16.3 -1.45 16.75 -2.15 16.75 -2.2 16.75 -2.3 16.75 -2.4 16.6 -2.6 15.85 -3.5 15.35 -3.95 15.35 -4.0 15.25 -4.0 15.2 -4.0 15.15 -3.95 13.75 -2.8 Q12.65 -1.8 12.65 -1.6 L12.65 -1.5 M9.3 -6.0 L9.4 -6.05 10.2 -6.2 11.6 -6.4 13.75 -6.7 14.7 -6.8 15.35 -6.9 15.85 -6.9 20.1 -4.65 20.1 -4.1 Q20.1 -1.3 19.65 -0.15 L19.35 0.2 18.9 0.35 Q18.3 0.6 18.3 1.0 L18.5 1.7 19.35 2.9 20.35 3.9 Q21.0 4.75 21.0 5.25 L21.0 5.35 21.0 5.5 17.4 7.05 17.15 7.05 16.95 6.85 16.25 5.8 15.2 4.2 14.5 3.25 14.1 2.9 13.7 2.55 13.7 6.15 9.3 6.15 9.3 -6.0 M1.2 -2.85 L1.0 -2.85 0.85 -2.85 Q0.3 -2.85 -0.65 -2.15 L-0.85 -2.0 -1.75 -1.25 -1.75 -1.05 -1.7 -0.35 -1.55 1.3 -1.5 1.65 -1.2 2.2 -0.65 2.55 -0.2 2.75 1.0 3.45 1.4 3.7 1.5 3.7 1.6 3.7 2.1 3.25 2.65 2.45 3.0 1.9 3.0 -1.25 2.55 -1.7 2.25 -1.95 Q1.55 -2.55 1.2 -2.85 M2.7 -5.95 L3.65 -5.75 4.1 -5.55 7.5 -1.25 7.5 -1.2 7.5 -1.05 7.1 0.75 6.1 3.3 Q5.55 4.65 5.25 4.8 L0.55 7.15 -3.75 5.7 -4.05 5.5 -4.3 5.05 -4.45 4.6 -4.85 2.9 -5.8 -1.25 -5.8 -1.35 -5.8 -1.5 -5.35 -2.15 -4.5 -3.2 -1.5 -6.45 -1.3 -6.45 -0.4 -6.35 1.7 -6.05 2.7 -5.95" fill="#069bfc" fill-rule="evenodd" stroke="none"/>
  </g>
</svg>
