<?xml version="1.0" encoding="UTF-8" standalone="no"?>
<svg xmlns:xlink="http://www.w3.org/1999/xlink" height="304.15px" width="227.65px" xmlns="http://www.w3.org/2000/svg">
  <g transform="matrix(1.0, 0.0, 0.0, 1.0, 115.85, 350.3)">
    <path d="M1.05 -125.0 Q11.5 -125.0 18.95 -113.45 26.35 -101.85 26.35 -85.45 26.35 -69.1 18.95 -57.5 15.7 -52.4 10.7 -51.2 L5.95 -50.65 0.9 -50.65 -4.1 -50.65 -8.75 -51.2 Q-13.6 -52.4 -16.85 -57.5 -24.25 -69.1 -24.25 -85.45 -24.25 -101.85 -16.85 -113.45 -9.45 -125.0 1.05 -125.0" fill="#000000" fill-rule="evenodd" stroke="none"/>
    <path d="M1.05 -125.0 Q11.5 -125.0 18.95 -113.45 26.35 -101.85 26.35 -85.45 26.35 -69.1 18.95 -57.5 15.7 -52.4 10.7 -51.2 L5.95 -50.65 0.9 -50.65 -4.1 -50.65 -8.75 -51.2 Q-13.6 -52.4 -16.85 -57.5 -24.25 -69.1 -24.25 -85.45 -24.25 -101.85 -16.85 -113.45 -9.45 -125.0 1.05 -125.0 Z" fill="none" stroke="#000000" stroke-linecap="round" stroke-linejoin="round" stroke-width="9.0"/>
    <path d="M14.4 -254.05 L28.05 -252.7 28.5 -246.7 32.0 -247.45 32.75 -244.0 31.9 -252.1 40.75 -250.3 41.15 -249.5 41.25 -249.35 41.9 -247.95 Q43.6 -244.35 44.7 -240.35 L44.9 -239.7 Q50.8 -236.95 50.85 -233.5 50.9 -227.9 35.25 -223.75 19.6 -219.65 -2.55 -219.4 -24.65 -219.15 -40.35 -222.9 -56.05 -226.7 -56.1 -232.35 -56.1 -235.85 -50.0 -238.75 L-49.8 -239.45 -48.3 -244.05 -47.75 -245.5 -46.75 -247.7 -46.65 -247.85 Q-42.1 -249.3 -37.1 -250.4 L-37.8 -242.75 -37.25 -242.9 -36.65 -245.55 -33.5 -245.05 -33.15 -251.2 -19.45 -253.2 -19.95 -245.55 -13.45 -246.05 -13.4 -253.7 -3.0 -254.2 8.45 -254.25 8.55 -246.3 15.0 -245.9 14.4 -254.05" fill="#ffffff" fill-rule="evenodd" stroke="none"/>
    <path d="M14.4 -254.05 L28.05 -252.7 28.5 -246.7 32.0 -247.45 32.75 -244.0 31.9 -252.1 40.75 -250.3 41.15 -249.5 41.25 -249.35 41.9 -247.95 Q43.6 -244.35 44.7 -240.35 L44.9 -239.7 Q50.8 -236.95 50.85 -233.5 50.9 -227.9 35.25 -223.75 19.6 -219.65 -2.55 -219.4 -24.65 -219.15 -40.35 -222.9 -56.05 -226.7 -56.1 -232.35 -56.1 -235.85 -50.0 -238.75 L-49.8 -239.45 -48.3 -244.05 -47.75 -245.5 -46.75 -247.7 -46.65 -247.85 Q-42.1 -249.3 -37.1 -250.4 L-37.8 -242.75 -37.25 -242.9 -36.65 -245.55 -33.5 -245.05 -33.15 -251.2 -19.45 -253.2 -19.95 -245.55 -13.45 -246.05 -13.4 -253.7 -3.0 -254.2 8.45 -254.25 8.55 -246.3 15.0 -245.9 14.4 -254.05 Z" fill="none" stroke="#000000" stroke-linecap="round" stroke-linejoin="round" stroke-width="9.0"/>
    <path d="M-39.6 -242.45 Q-24.75 -245.3 -5.35 -245.95 L-2.15 -246.05 1.05 -245.95 Q20.45 -245.3 35.3 -242.45 51.45 -239.35 56.45 -234.7 61.5 -230.0 67.95 -212.0 73.95 -195.2 79.05 -173.1 84.2 -150.6 86.1 -132.4 88.25 -112.45 85.55 -104.45 82.55 -95.45 73.9 -88.25 65.85 -81.5 53.35 -76.7 41.5 -72.15 26.85 -69.8 12.65 -67.5 -2.55 -67.5 -17.8 -67.55 -31.95 -69.85 -46.55 -72.25 -58.3 -76.8 -70.65 -81.6 -78.6 -88.35 -87.1 -95.55 -89.85 -104.45 -92.35 -112.5 -90.25 -132.5 -88.3 -150.7 -83.2 -173.15 -78.15 -195.3 -72.2 -212.0 -65.8 -230.0 -60.75 -234.7 -55.75 -239.35 -39.6 -242.45" fill="#000000" fill-rule="evenodd" stroke="none"/>
    <path d="M-39.6 -242.45 Q-24.75 -245.3 -5.35 -245.95 L-2.15 -246.05 1.05 -245.95 Q20.45 -245.3 35.3 -242.45 51.45 -239.35 56.45 -234.7 61.5 -230.0 67.95 -212.0 73.95 -195.2 79.05 -173.1 84.2 -150.6 86.1 -132.4 88.25 -112.45 85.55 -104.45 82.55 -95.45 73.9 -88.25 65.85 -81.5 53.35 -76.7 41.5 -72.15 26.85 -69.8 12.65 -67.5 -2.55 -67.5 -17.8 -67.55 -31.95 -69.85 -46.55 -72.25 -58.3 -76.8 -70.65 -81.6 -78.6 -88.35 -87.1 -95.55 -89.85 -104.45 -92.35 -112.5 -90.25 -132.5 -88.3 -150.7 -83.2 -173.15 -78.15 -195.3 -72.2 -212.0 -65.8 -230.0 -60.75 -234.7 -55.75 -239.35 -39.6 -242.45 Z" fill="none" stroke="#000000" stroke-linecap="round" stroke-linejoin="round" stroke-width="9.0"/>
    <path d="M105.0 -127.35 Q108.35 -117.45 106.8 -110.5 105.35 -103.9 98.8 -101.05 93.5 -98.8 85.2 -99.05 79.3 -99.2 72.4 -100.6 L68.3 -101.55 66.75 -101.95 59.15 -158.35 59.95 -159.05 62.2 -160.75 Q66.0 -163.35 69.85 -164.35 75.35 -165.8 80.2 -163.9 86.3 -161.55 91.15 -154.05 101.25 -138.45 105.0 -127.35 M-84.3 -157.85 Q-79.4 -159.7 -73.95 -158.3 -70.05 -157.25 -66.3 -154.65 L-64.05 -153.0 -63.25 -152.25 -70.85 -95.85 -72.4 -95.45 -76.5 -94.5 Q-83.35 -93.1 -89.3 -92.95 -97.6 -92.7 -102.85 -94.95 -109.45 -97.8 -110.9 -104.4 -112.4 -111.4 -109.1 -121.25 -105.35 -132.35 -95.25 -147.95 -90.4 -155.45 -84.3 -157.85" fill="#000000" fill-rule="evenodd" stroke="none"/>
    <path d="M105.0 -127.35 Q108.35 -117.45 106.8 -110.5 105.35 -103.9 98.8 -101.05 93.5 -98.8 85.2 -99.05 79.3 -99.2 72.4 -100.6 L68.3 -101.55 66.75 -101.95 59.15 -158.35 59.95 -159.05 62.2 -160.75 Q66.0 -163.35 69.85 -164.35 75.35 -165.8 80.2 -163.9 86.3 -161.55 91.15 -154.05 101.25 -138.45 105.0 -127.35 M-84.3 -157.85 Q-90.4 -155.45 -95.25 -147.95 -105.35 -132.35 -109.1 -121.25 -112.4 -111.4 -110.9 -104.4 -109.45 -97.8 -102.85 -94.95 -97.6 -92.7 -89.3 -92.95 -83.35 -93.1 -76.5 -94.5 L-72.4 -95.45 -70.85 -95.85 -63.25 -152.25 -64.05 -153.0 -66.3 -154.65 Q-70.05 -157.25 -73.95 -158.3 -79.4 -159.7 -84.3 -157.85" fill="none" stroke="#000000" stroke-linecap="round" stroke-linejoin="round" stroke-width="9.0"/>
    <path d="M69.75 -164.4 Q75.2 -165.85 80.05 -163.9 86.2 -161.55 91.05 -154.05 101.15 -138.45 104.85 -127.4 108.2 -117.5 106.7 -110.5 105.25 -103.9 98.65 -101.05 93.4 -98.85 85.05 -99.05 79.15 -99.2 72.3 -100.6 L68.2 -101.6 66.6 -102.0 59.05 -158.4 59.85 -159.1 62.1 -160.8 Q65.85 -163.35 69.75 -164.4" fill="#333333" fill-rule="evenodd" stroke="none"/>
    <path d="M-74.0 -158.3 Q-79.45 -159.75 -84.3 -157.8 -90.45 -155.45 -95.3 -147.95 -105.4 -132.35 -109.1 -121.3 -112.45 -111.4 -110.95 -104.4 -109.5 -97.8 -102.9 -94.95 -97.65 -92.75 -89.3 -92.95 -83.4 -93.1 -76.55 -94.5 L-72.45 -95.5 -70.85 -95.9 -63.3 -152.3 -64.1 -153.0 -66.35 -154.7 Q-70.1 -157.25 -74.0 -158.3" fill="#333333" fill-rule="evenodd" stroke="none"/>
    <path d="M82.2 -163.0 Q87.1 -160.3 91.15 -154.05 101.2 -138.45 104.95 -127.35 106.35 -123.2 106.95 -119.6 106.15 -117.2 104.35 -116.3 100.65 -114.55 94.75 -120.15 88.85 -125.8 84.1 -135.5 79.4 -145.2 78.6 -153.35 77.8 -161.45 81.5 -163.25 L81.75 -163.35 81.55 -163.25 82.2 -163.0" fill="#484848" fill-rule="evenodd" stroke="none"/>
    <path d="M-84.35 -157.8 Q-82.0 -158.75 -79.5 -158.85 -78.1 -156.1 -78.8 -150.35 -79.85 -141.55 -85.1 -130.85 -90.35 -120.2 -96.7 -114.05 -103.1 -107.85 -106.85 -109.7 -110.45 -111.45 -109.7 -119.45 L-109.15 -121.25 Q-105.4 -132.35 -95.3 -147.95 -90.45 -155.45 -84.35 -157.8" fill="#484848" fill-rule="evenodd" stroke="none"/>
    <path d="M-39.6 -242.45 Q-24.75 -245.3 -5.35 -245.95 L-2.15 -246.05 1.05 -245.95 Q20.45 -245.3 35.3 -242.45 51.45 -239.35 56.45 -234.7 61.5 -230.0 67.95 -212.0 73.95 -195.2 79.05 -173.1 84.2 -150.6 86.1 -132.4 88.25 -112.45 85.55 -104.45 82.55 -95.45 73.9 -88.25 65.85 -81.5 53.35 -76.7 41.5 -72.15 26.85 -69.8 12.65 -67.5 -2.55 -67.5 -17.8 -67.55 -31.95 -69.85 -46.55 -72.25 -58.3 -76.8 -70.65 -81.6 -78.6 -88.35 -87.1 -95.55 -89.85 -104.45 -92.35 -112.5 -90.25 -132.5 -88.3 -150.7 -83.2 -173.15 -78.15 -195.3 -72.2 -212.0 -65.8 -230.0 -60.75 -234.7 -55.75 -239.35 -39.6 -242.45" fill="#ff0000" fill-rule="evenodd" stroke="none"/>
    <path d="M35.3 -242.5 Q51.45 -239.4 56.5 -234.75 60.7 -230.8 65.85 -217.6 L66.2 -217.7 Q62.15 -216.1 57.1 -214.65 32.45 -207.35 -2.45 -206.95 -37.4 -206.6 -62.15 -213.35 -66.9 -214.6 -70.7 -216.0 -65.2 -230.55 -60.75 -234.75 -55.75 -239.4 -39.6 -242.5 -24.75 -245.3 -5.3 -246.0 L-2.1 -246.05 1.05 -246.0 Q20.5 -245.3 35.3 -242.5" fill="#484848" fill-rule="evenodd" stroke="none"/>
    <path d="M73.95 -136.9 Q80.7 -142.0 84.05 -148.05 85.35 -139.9 86.15 -132.45 88.25 -112.5 85.6 -104.5 82.6 -95.5 73.95 -88.25 65.85 -81.55 53.4 -76.75 41.55 -72.2 26.9 -69.85 12.65 -67.55 -2.55 -67.55 -17.75 -67.55 -31.95 -69.9 -46.55 -72.3 -58.25 -76.85 -70.65 -81.65 -78.6 -88.4 -87.05 -95.55 -89.85 -104.5 -92.35 -112.55 -90.2 -132.5 -89.45 -139.8 -88.15 -147.7 -85.0 -141.9 -78.6 -137.0 -70.65 -130.95 -58.25 -126.6 -46.55 -122.5 -31.95 -120.35 -17.75 -118.25 -2.55 -118.25 12.65 -118.25 26.9 -120.3 41.55 -122.4 53.4 -126.5 65.85 -130.8 73.95 -136.9" fill="#333333" fill-rule="evenodd" stroke="none"/>
    <path d="M50.75 -232.05 Q48.45 -234.3 48.45 -237.5 L48.6 -239.05 Q53.95 -237.05 56.5 -234.75 58.0 -233.3 59.7 -230.65 58.1 -229.8 56.15 -229.8 53.0 -229.8 50.75 -232.05 M57.1 -223.05 Q59.35 -225.3 62.55 -225.3 L62.6 -225.3 65.85 -217.6 66.2 -217.7 Q62.15 -216.1 57.1 -214.65 L55.65 -214.2 Q54.85 -215.75 54.85 -217.65 54.85 -220.8 57.1 -223.05 M38.0 -231.9 Q41.15 -231.9 43.45 -229.65 45.65 -227.4 45.65 -224.2 45.65 -221.05 43.45 -218.8 41.15 -216.55 38.0 -216.55 34.8 -216.55 32.55 -218.8 30.3 -221.05 30.3 -224.2 30.3 -227.4 32.55 -229.65 34.8 -231.9 38.0 -231.9 M5.05 -226.45 Q7.3 -224.2 7.3 -221.0 7.3 -217.8 5.05 -215.6 2.8 -213.35 -0.4 -213.35 -3.55 -213.35 -5.8 -215.6 -8.1 -217.8 -8.1 -221.0 -8.1 -224.2 -5.8 -226.45 -3.55 -228.7 -0.4 -228.7 2.8 -228.7 5.05 -226.45 M14.95 -208.85 Q14.95 -212.05 17.2 -214.3 19.45 -216.55 22.6 -216.55 25.8 -216.55 28.05 -214.3 30.2 -212.15 30.3 -209.1 L15.05 -207.65 14.95 -208.85 M-33.75 -221.45 Q-33.75 -218.25 -36.0 -216.05 -38.25 -213.8 -41.45 -213.8 -44.6 -213.8 -46.85 -216.05 -49.1 -218.25 -49.1 -221.45 -49.1 -224.65 -46.85 -226.9 -44.6 -229.15 -41.45 -229.15 -38.25 -229.15 -36.0 -226.9 -33.75 -224.65 -33.75 -221.45 M-22.3 -216.1 Q-19.1 -216.1 -16.85 -213.9 -14.65 -211.65 -14.65 -208.45 L-14.75 -207.05 -29.95 -207.9 -29.95 -207.35 -30.0 -208.45 Q-30.0 -211.65 -27.75 -213.9 -25.5 -216.1 -22.3 -216.1 M-60.75 -234.75 Q-58.35 -236.95 -53.4 -238.8 -53.15 -237.8 -53.15 -236.65 -53.15 -233.45 -55.35 -231.2 -57.65 -228.95 -60.8 -228.95 -62.8 -228.95 -64.4 -229.85 -62.5 -233.1 -60.75 -234.75 M-61.35 -223.05 Q-59.1 -220.8 -59.1 -217.65 -59.1 -214.95 -60.7 -212.9 L-62.15 -213.35 Q-66.9 -214.6 -70.7 -216.0 -68.7 -221.35 -66.8 -225.3 -63.6 -225.3 -61.35 -223.05" fill="#000000" fill-rule="evenodd" stroke="none"/>
    <path d="M1.05 -125.0 Q11.5 -125.0 18.95 -113.45 26.35 -101.85 26.35 -85.45 26.35 -69.1 18.95 -57.5 15.7 -52.4 10.7 -51.2 L5.95 -50.65 0.9 -50.65 -4.1 -50.65 -8.75 -51.2 Q-13.6 -52.4 -16.85 -57.5 -24.25 -69.1 -24.25 -85.45 -24.25 -101.85 -16.85 -113.45 -9.45 -125.0 1.05 -125.0" fill="#333333" fill-rule="evenodd" stroke="none"/>
    <path d="M-40.55 -242.1 Q-24.9 -246.2 -2.7 -246.45 19.45 -246.7 35.1 -242.95 50.8 -239.15 50.85 -233.5 50.85 -227.9 35.25 -223.8 19.65 -219.65 -2.5 -219.4 -24.7 -219.15 -40.4 -222.95 -56.1 -226.75 -56.1 -232.35 -56.15 -238.0 -40.55 -242.1" fill="#7e7e7e" fill-rule="evenodd" stroke="none"/>
    <path d="M-31.2 -241.35 Q-19.5 -243.95 -2.85 -244.25 13.8 -244.6 25.6 -242.5 37.45 -240.3 37.5 -236.95 37.6 -233.6 25.85 -231.05 14.15 -228.4 -2.5 -228.05 -19.15 -227.75 -30.95 -229.9 -42.75 -232.0 -42.85 -235.35 -42.9 -238.7 -31.2 -241.35" fill="#484848" fill-rule="evenodd" stroke="none"/>
    <path d="M28.05 -252.7 Q28.7 -245.95 28.6 -239.75 L15.2 -241.0 Q15.0 -247.25 14.4 -254.0 L28.05 -252.7 M41.9 -247.95 Q43.6 -244.3 44.7 -240.35 45.65 -237.0 45.65 -235.35 L45.65 -234.8 45.15 -234.8 Q43.05 -237.3 33.1 -239.05 L31.9 -252.1 40.75 -250.3 41.9 -247.95 M8.4 -241.25 L-2.85 -241.25 -13.35 -240.85 Q-13.6 -247.15 -13.4 -253.7 L-3.0 -254.2 8.45 -254.25 Q8.65 -247.65 8.4 -241.25 M-37.1 -250.4 Q-37.9 -243.45 -38.1 -237.75 -50.2 -235.2 -50.95 -232.0 L-51.05 -232.75 Q-51.1 -234.35 -50.25 -237.8 -49.25 -241.8 -47.75 -245.5 L-46.65 -247.85 Q-42.1 -249.3 -37.1 -250.4 M-50.75 -231.4 L-50.8 -231.4 -50.95 -231.8 -50.75 -231.4 M-33.15 -251.15 L-19.45 -253.15 Q-20.05 -246.5 -20.15 -240.35 L-33.5 -238.65 Q-33.7 -244.6 -33.15 -251.15" fill="#333333" fill-rule="evenodd" stroke="none"/>
    <path d="M-51.0 -232.0 Q-50.25 -235.3 -37.05 -238.0 -22.95 -240.8 -2.9 -241.2 17.15 -241.65 31.35 -239.35 44.9 -237.2 45.65 -233.8 L45.6 -233.9 Q44.85 -230.2 31.65 -227.25 L25.25 -226.0 24.35 -225.9 20.65 -225.35 20.05 -225.25 16.05 -224.75 18.15 -224.95 -2.5 -223.7 Q-13.8 -223.5 -23.25 -224.15 L-21.2 -224.05 -25.1 -224.35 -25.75 -224.4 -29.5 -224.8 -30.4 -224.9 -36.75 -225.9 Q-50.05 -228.3 -51.0 -232.0" fill="#000000" fill-rule="evenodd" stroke="none"/>
    <path d="M32.0 -247.45 L35.95 -228.35 31.65 -227.3 25.25 -226.0 24.4 -225.9 20.7 -225.35 20.05 -225.25 19.15 -225.15 Q18.4 -234.85 16.8 -244.9 24.85 -245.85 32.0 -247.45 M41.9 -247.95 Q43.6 -244.3 44.7 -240.35 45.65 -237.0 45.65 -235.35 L45.6 -234.5 45.4 -234.45 45.55 -234.2 Q45.2 -233.05 44.3 -231.95 43.1 -230.95 40.9 -230.0 39.05 -239.2 36.8 -248.6 L41.0 -249.8 41.9 -247.95 M9.05 -224.2 L-2.45 -223.75 Q-8.8 -223.6 -14.5 -223.75 -13.9 -232.25 -12.6 -243.5 L-2.3 -243.55 7.15 -244.0 9.1 -223.85 9.05 -224.2 M-41.55 -246.45 Q-43.8 -237.2 -45.5 -228.1 -50.25 -229.75 -50.95 -231.85 L-51.05 -232.35 -50.95 -232.0 -50.4 -233.05 -51.05 -233.3 Q-50.95 -234.9 -50.25 -237.8 -49.25 -241.8 -47.75 -245.5 L-46.75 -247.7 -41.55 -246.45 M-22.35 -243.9 Q-23.9 -233.95 -24.6 -224.3 L-25.1 -224.35 -25.7 -224.45 -29.5 -224.85 -30.35 -224.95 -36.75 -225.9 -40.55 -226.7 -36.65 -245.55 -22.35 -243.9" fill="#484848" fill-rule="evenodd" stroke="none"/>
    <path d="M19.0 -108.9 Q19.0 -92.5 13.7 -80.9 8.5 -69.3 1.1 -69.3 -6.3 -69.3 -11.5 -80.9 -16.75 -92.5 -16.75 -108.9 L-16.65 -113.7 Q-9.3 -125.05 1.05 -125.05 11.5 -125.05 18.9 -113.55 L18.85 -114.05 19.0 -108.9" fill="#484848" fill-rule="evenodd" stroke="none"/>
    <path d="M-74.8 -204.2 Q-71.05 -206.25 -66.8 -207.45 -48.65 -212.45 -33.5 -199.0 -15.95 -183.45 -15.95 -156.6 -15.95 -129.75 -33.5 -114.15 -48.65 -100.75 -66.8 -105.75 -81.65 -109.9 -90.9 -124.9 L-90.45 -130.35 -89.1 -128.05 Q-80.55 -114.1 -66.8 -110.65 -50.6 -106.65 -37.25 -118.9 -22.05 -132.95 -22.05 -156.6 -22.05 -180.25 -37.25 -194.25 -50.6 -206.55 -66.8 -202.5 -72.1 -201.2 -76.65 -198.25 L-74.8 -204.2 M-81.5 -180.15 L-81.6 -180.2 -75.6 -177.6 Q-73.25 -179.55 -70.6 -180.55 L-66.25 -194.25 -61.65 -181.25 Q-58.45 -180.6 -55.6 -178.45 L-43.25 -185.7 -48.6 -170.1 Q-47.4 -167.65 -46.65 -164.8 L-33.0 -158.6 -46.05 -152.6 Q-46.65 -148.15 -48.5 -144.4 L-43.25 -128.65 -55.3 -135.9 Q-58.35 -133.6 -61.65 -132.8 L-66.55 -119.6 -70.85 -133.6 Q-73.5 -134.7 -75.75 -136.65 -80.5 -134.7 -85.3 -132.7 L-81.65 -144.6 Q-83.65 -148.65 -84.1 -153.35 L-86.9 -155.1 -85.45 -162.45 -85.8 -162.25 -83.65 -163.6 Q-82.9 -167.1 -81.35 -170.2 L-82.75 -175.05 -81.5 -180.15" fill="#ffcc33" fill-rule="evenodd" stroke="none"/>
    <path d="M-31.4 -322.7 L-16.45 -328.45 -23.05 -314.25 -21.45 -310.85 -21.05 -309.85 -3.95 -304.35 Q-12.0 -300.35 -20.1 -296.4 L-20.25 -296.05 -9.55 -285.4 -25.3 -285.6 Q-26.6 -284.0 -28.0 -282.75 L-29.1 -281.85 -29.1 -264.55 -41.05 -276.9 -44.45 -276.65 -53.35 -264.65 -55.3 -279.3 -57.2 -280.4 -74.25 -274.0 -66.4 -290.55 -67.25 -292.4 -67.75 -293.65 -68.0 -294.55 -83.2 -299.5 -69.95 -305.85 -81.1 -316.95 -63.95 -316.7 Q-61.75 -319.65 -58.8 -321.65 L-58.9 -337.55 -47.8 -326.1 -44.95 -326.4 -34.4 -340.95 -31.95 -322.9 -31.4 -322.7" fill="#ffffff" fill-rule="evenodd" stroke="none"/>
    <path d="M-31.4 -322.7 L-16.45 -328.45 -23.05 -314.25 -21.45 -310.85 -21.05 -309.85 -3.95 -304.35 Q-12.0 -300.35 -20.1 -296.4 L-20.25 -296.05 -9.55 -285.4 -25.3 -285.6 Q-26.6 -284.0 -28.0 -282.75 L-29.1 -281.85 -29.1 -264.55 -41.05 -276.9 -44.45 -276.65 -53.35 -264.65 -55.3 -279.3 -57.2 -280.4 -74.25 -274.0 -66.4 -290.55 -67.25 -292.4 -67.75 -293.65 -68.0 -294.55 -83.2 -299.5 -69.95 -305.85 -81.1 -316.95 -63.95 -316.7 Q-61.75 -319.65 -58.8 -321.65 L-58.9 -337.55 -47.8 -326.1 -44.95 -326.4 -34.4 -340.95 -31.95 -322.9 -31.4 -322.7 Z" fill="none" stroke="#000000" stroke-linecap="round" stroke-linejoin="round" stroke-width="9.0"/>
    <path d="M-44.95 -326.4 Q-39.95 -326.55 -34.7 -324.3 L-31.95 -322.9 -31.4 -322.7 -36.6 -320.75 Q-34.7 -312.1 -25.5 -309.05 L-23.05 -314.25 -21.45 -310.85 -21.05 -309.85 Q-18.6 -303.25 -20.1 -296.4 L-20.25 -296.05 -24.9 -300.75 Q-32.15 -295.3 -31.1 -285.7 L-25.3 -285.6 Q-26.6 -284.0 -28.0 -282.75 L-29.1 -281.85 Q-31.8 -279.9 -35.05 -278.6 -38.05 -277.35 -41.05 -276.9 L-44.45 -276.65 -40.6 -282.2 Q-47.0 -288.45 -56.15 -285.8 L-55.3 -279.3 -57.2 -280.4 Q-63.3 -284.05 -66.4 -290.55 L-67.25 -292.4 -67.75 -293.65 -68.0 -294.55 -62.6 -292.8 Q-58.75 -300.95 -64.0 -308.85 L-68.6 -306.55 Q-68.1 -308.9 -67.1 -311.2 -65.85 -314.2 -63.95 -316.7 -61.75 -319.65 -58.8 -321.65 L-58.8 -315.85 Q-50.0 -314.65 -44.0 -322.15 L-47.8 -326.1 -44.95 -326.4" fill="#232222" fill-rule="evenodd" stroke="none"/>
    <path d="M-31.95 -322.9 L-34.7 -324.3 Q-39.95 -326.55 -44.95 -326.4 L-34.4 -340.95 -31.95 -322.9" fill="url(#gradient0)" fill-rule="evenodd" stroke="none"/>
    <path d="M-47.8 -326.1 L-44.0 -322.15 Q-50.0 -314.65 -58.8 -315.85 L-58.8 -321.65 -58.9 -337.55 -47.8 -326.1" fill="url(#gradient1)" fill-rule="evenodd" stroke="none"/>
    <path d="M-23.05 -314.25 L-25.5 -309.05 Q-34.7 -312.1 -36.6 -320.75 L-31.4 -322.7 -16.45 -328.45 -23.05 -314.25" fill="url(#gradient2)" fill-rule="evenodd" stroke="none"/>
    <path d="M-68.6 -306.55 L-64.0 -308.85 Q-58.75 -300.95 -62.6 -292.8 L-68.0 -294.55 -83.2 -299.5 -69.95 -305.85 -68.6 -306.55" fill="url(#gradient3)" fill-rule="evenodd" stroke="none"/>
    <path d="M-63.95 -316.7 Q-65.85 -314.2 -67.1 -311.2 -68.1 -308.9 -68.6 -306.55 L-69.95 -305.85 -81.1 -316.95 -63.95 -316.7" fill="url(#gradient4)" fill-rule="evenodd" stroke="none"/>
    <path d="M-55.3 -279.3 L-56.15 -285.8 Q-47.0 -288.45 -40.6 -282.2 L-44.45 -276.65 -53.35 -264.65 -55.3 -279.3" fill="url(#gradient5)" fill-rule="evenodd" stroke="none"/>
    <path d="M-66.4 -290.55 Q-63.3 -284.05 -57.2 -280.4 L-74.25 -274.0 -66.4 -290.55" fill="url(#gradient6)" fill-rule="evenodd" stroke="none"/>
    <path d="M-41.05 -276.9 Q-38.05 -277.35 -35.05 -278.6 -31.8 -279.9 -29.1 -281.85 L-29.1 -264.55 -41.05 -276.9" fill="url(#gradient7)" fill-rule="evenodd" stroke="none"/>
    <path d="M-20.1 -296.4 Q-18.6 -303.25 -21.05 -309.85 L-3.95 -304.35 Q-12.0 -300.35 -20.1 -296.4" fill="url(#gradient8)" fill-rule="evenodd" stroke="none"/>
    <path d="M-25.3 -285.6 L-31.1 -285.7 Q-32.15 -295.3 -24.9 -300.75 L-20.25 -296.05 -9.55 -285.4 -25.3 -285.6" fill="url(#gradient9)" fill-rule="evenodd" stroke="none"/>
    <path d="M66.75 -311.75 L80.9 -304.15 65.75 -300.0 64.25 -296.5 63.75 -295.5 70.65 -279.0 54.15 -286.1 53.75 -286.0 52.6 -270.9 42.5 -283.05 38.6 -283.25 37.25 -283.5 24.1 -272.25 25.7 -289.35 23.3 -291.8 8.4 -290.7 18.3 -301.75 17.9 -303.9 Q9.9 -308.3 1.95 -312.75 L19.65 -317.5 20.45 -319.35 21.1 -320.55 21.6 -321.3 15.45 -336.05 28.95 -330.1 30.15 -345.8 41.05 -332.65 48.2 -332.0 60.15 -342.35 58.7 -326.5 60.75 -324.5 78.75 -325.95 66.6 -312.35 66.75 -311.75" fill="#ffffff" fill-rule="evenodd" stroke="none"/>
    <path d="M66.75 -311.75 L80.9 -304.15 65.75 -300.0 64.25 -296.5 63.75 -295.5 70.65 -279.0 54.15 -286.1 53.75 -286.0 52.6 -270.9 42.5 -283.05 38.6 -283.25 37.25 -283.5 24.1 -272.25 25.7 -289.35 23.3 -291.8 8.4 -290.7 18.3 -301.75 17.9 -303.9 Q9.9 -308.3 1.95 -312.75 L19.65 -317.5 20.45 -319.35 21.1 -320.55 21.6 -321.3 15.45 -336.05 28.95 -330.1 30.15 -345.8 41.05 -332.65 48.2 -332.0 60.15 -342.35 58.7 -326.5 60.75 -324.5 78.75 -325.95 66.6 -312.35 66.75 -311.75 Z" fill="none" stroke="#000000" stroke-linecap="round" stroke-linejoin="round" stroke-width="9.0"/>
    <path d="M66.6 -312.35 L66.75 -311.75 61.95 -314.45 Q56.5 -307.35 60.25 -298.45 L65.75 -300.0 64.25 -296.5 63.75 -295.5 Q60.25 -289.45 54.15 -286.1 L53.75 -286.0 54.25 -292.55 Q45.45 -294.55 38.85 -287.5 L42.5 -283.05 38.6 -283.25 37.25 -283.5 Q34.0 -284.25 30.9 -285.9 28.0 -287.4 25.7 -289.35 L23.3 -291.8 30.05 -292.45 Q30.6 -301.4 22.65 -306.65 L18.3 -301.75 17.9 -303.9 Q16.65 -310.95 19.65 -317.5 L20.45 -319.35 21.1 -320.55 21.6 -321.3 23.8 -316.1 Q32.45 -318.45 35.05 -327.55 L30.3 -329.55 Q32.45 -330.7 34.85 -331.45 37.95 -332.45 41.05 -332.65 L48.2 -332.0 43.8 -328.2 Q48.55 -320.7 58.15 -321.0 L58.7 -326.5 60.75 -324.5 Q64.15 -320.75 65.85 -315.3 L66.6 -312.35" fill="#232222" fill-rule="evenodd" stroke="none"/>
    <path d="M60.75 -324.5 L78.75 -325.95 66.6 -312.35 65.85 -315.3 Q64.15 -320.75 60.75 -324.5" fill="url(#gradient10)" fill-rule="evenodd" stroke="none"/>
    <path d="M48.2 -332.0 L60.15 -342.35 58.7 -326.5 58.15 -321.0 Q48.55 -320.7 43.8 -328.2 L48.2 -332.0" fill="url(#gradient11)" fill-rule="evenodd" stroke="none"/>
    <path d="M66.75 -311.75 L80.9 -304.15 65.75 -300.0 60.25 -298.45 Q56.5 -307.35 61.95 -314.45 L66.75 -311.75" fill="url(#gradient12)" fill-rule="evenodd" stroke="none"/>
    <path d="M21.6 -321.3 L15.45 -336.05 28.95 -330.1 30.3 -329.55 35.05 -327.55 Q32.45 -318.45 23.8 -316.1 L21.6 -321.3" fill="url(#gradient13)" fill-rule="evenodd" stroke="none"/>
    <path d="M28.95 -330.1 L30.15 -345.8 41.05 -332.65 Q37.95 -332.45 34.85 -331.45 32.45 -330.7 30.3 -329.55 L28.95 -330.1" fill="url(#gradient14)" fill-rule="evenodd" stroke="none"/>
    <path d="M23.3 -291.8 L8.4 -290.7 18.3 -301.75 22.65 -306.65 Q30.6 -301.4 30.05 -292.45 L23.3 -291.8" fill="url(#gradient15)" fill-rule="evenodd" stroke="none"/>
    <path d="M17.9 -303.9 Q9.9 -308.3 1.95 -312.75 L19.65 -317.5 Q16.65 -310.95 17.9 -303.9" fill="url(#gradient16)" fill-rule="evenodd" stroke="none"/>
    <path d="M37.25 -283.5 L24.1 -272.25 25.7 -289.35 Q28.0 -287.4 30.9 -285.9 34.0 -284.25 37.25 -283.5" fill="url(#gradient17)" fill-rule="evenodd" stroke="none"/>
    <path d="M63.75 -295.5 L70.65 -279.0 54.15 -286.1 Q60.25 -289.45 63.75 -295.5" fill="url(#gradient18)" fill-rule="evenodd" stroke="none"/>
    <path d="M53.75 -286.0 L52.6 -270.9 42.5 -283.05 38.85 -287.5 Q45.45 -294.55 54.25 -292.55 L53.75 -286.0" fill="url(#gradient19)" fill-rule="evenodd" stroke="none"/>
    <path d="M38.45 -197.3 Q39.15 -197.85 41.3 -198.35 L44.7 -199.3 Q52.2 -201.65 59.1 -204.75 63.55 -206.7 68.75 -209.55 74.4 -193.4 79.2 -172.55 81.65 -161.85 83.35 -152.1 L79.1 -148.3 Q74.55 -144.45 69.6 -141.65 L62.95 -137.9 Q59.15 -135.95 56.0 -134.7 45.3 -130.45 43.3 -143.4 L36.2 -188.45 Q35.1 -195.0 38.45 -197.3" fill="#ff8425" fill-rule="evenodd" stroke="none"/>
    <path d="M46.8 -195.85 Q53.3 -197.85 59.35 -200.55 64.2 -202.75 70.25 -206.15 L70.0 -206.0 Q74.95 -191.15 79.2 -172.55 L82.5 -156.85 76.75 -151.4 Q72.75 -148.05 68.45 -145.6 L62.65 -142.4 Q59.35 -140.65 56.6 -139.55 47.3 -135.9 45.55 -147.15 L39.4 -186.4 Q38.45 -192.05 41.3 -194.1 41.95 -194.55 43.8 -195.05 L46.8 -195.85" fill="#484848" fill-rule="evenodd" stroke="none"/>
    <path d="M50.2 -190.25 Q52.35 -190.85 54.15 -189.7 55.95 -188.6 56.35 -186.5 L62.15 -153.05 Q62.5 -150.9 61.25 -148.95 59.95 -147.1 57.85 -146.5 55.65 -145.95 53.85 -147.05 52.05 -148.15 51.65 -150.3 L45.85 -183.75 Q45.5 -185.9 46.75 -187.85 48.0 -189.75 50.2 -190.25 M61.1 -190.95 Q60.65 -193.1 61.85 -195.05 63.0 -197.0 65.2 -197.65 67.35 -198.25 69.2 -197.2 71.05 -196.15 71.5 -194.05 L78.5 -160.95 Q78.9 -158.8 77.75 -156.85 76.55 -154.9 74.4 -154.3 72.2 -153.65 70.35 -154.7 68.55 -155.75 68.1 -157.9 L61.1 -190.95" fill="#333333" fill-rule="evenodd" stroke="none"/>
    <path d="M49.7 -187.55 Q51.5 -186.45 51.9 -184.3 L57.75 -150.85 Q58.1 -148.7 56.8 -146.85 L56.45 -146.35 Q55.05 -146.35 53.85 -147.05 52.05 -148.15 51.65 -150.3 L45.85 -183.75 Q45.5 -185.9 46.75 -187.85 L47.15 -188.3 Q48.5 -188.35 49.7 -187.55 M62.3 -195.7 L64.75 -195.05 Q66.6 -194.0 67.05 -191.85 L74.1 -158.75 Q74.5 -156.65 73.25 -154.7 L72.85 -154.05 Q71.55 -154.0 70.35 -154.7 68.55 -155.75 68.1 -157.9 L61.1 -190.95 Q60.65 -193.1 61.85 -195.05 L62.3 -195.7" fill="#000000" fill-rule="evenodd" stroke="none"/>
  </g>
  <defs>
    <linearGradient gradientTransform="matrix(-0.0026, 0.0103, -0.0286, -0.0072, -37.2, -330.25)" gradientUnits="userSpaceOnUse" id="gradient0" spreadMethod="pad" x1="-819.2" x2="819.2">
      <stop offset="0.0" stop-color="#ffffff"/>
      <stop offset="0.24705882352941178" stop-color="#ffcc33"/>
      <stop offset="1.0" stop-color="#ff0000"/>
    </linearGradient>
    <linearGradient gradientTransform="matrix(0.004, 0.0099, -0.0274, 0.0109, -54.75, -327.15)" gradientUnits="userSpaceOnUse" id="gradient1" spreadMethod="pad" x1="-819.2" x2="819.2">
      <stop offset="0.0" stop-color="#ffffff"/>
      <stop offset="0.24705882352941178" stop-color="#ffcc33"/>
      <stop offset="1.0" stop-color="#ff0000"/>
    </linearGradient>
    <linearGradient gradientTransform="matrix(-0.0078, 0.0072, -0.02, -0.0218, -24.6, -320.9)" gradientUnits="userSpaceOnUse" id="gradient2" spreadMethod="pad" x1="-819.2" x2="819.2">
      <stop offset="0.0" stop-color="#ffffff"/>
      <stop offset="0.24705882352941178" stop-color="#ffcc33"/>
      <stop offset="1.0" stop-color="#ff0000"/>
    </linearGradient>
    <linearGradient gradientTransform="matrix(0.0106, -7.0E-4, 0.0019, 0.0294, -72.2, -300.3)" gradientUnits="userSpaceOnUse" id="gradient3" spreadMethod="pad" x1="-819.2" x2="819.2">
      <stop offset="0.0" stop-color="#ffffff"/>
      <stop offset="0.24705882352941178" stop-color="#ffcc33"/>
      <stop offset="1.0" stop-color="#ff0000"/>
    </linearGradient>
    <linearGradient gradientTransform="matrix(0.0098, 0.0042, -0.0116, 0.0271, -70.7, -312.5)" gradientUnits="userSpaceOnUse" id="gradient4" spreadMethod="pad" x1="-819.2" x2="819.2">
      <stop offset="0.0" stop-color="#ffffff"/>
      <stop offset="0.24705882352941178" stop-color="#ffcc33"/>
      <stop offset="1.0" stop-color="#ff0000"/>
    </linearGradient>
    <linearGradient gradientTransform="matrix(0.0026, -0.0103, 0.0286, 0.0072, -50.5, -275.45)" gradientUnits="userSpaceOnUse" id="gradient5" spreadMethod="pad" x1="-819.2" x2="819.2">
      <stop offset="0.0" stop-color="#ffffff"/>
      <stop offset="0.24705882352941178" stop-color="#ffcc33"/>
      <stop offset="1.0" stop-color="#ff0000"/>
    </linearGradient>
    <linearGradient gradientTransform="matrix(0.0078, -0.0072, 0.02, 0.0218, -66.05, -281.5)" gradientUnits="userSpaceOnUse" id="gradient6" spreadMethod="pad" x1="-819.2" x2="819.2">
      <stop offset="0.0" stop-color="#ffffff"/>
      <stop offset="0.24705882352941178" stop-color="#ffcc33"/>
      <stop offset="1.0" stop-color="#ff0000"/>
    </linearGradient>
    <linearGradient gradientTransform="matrix(-0.004, -0.0099, 0.0274, -0.0109, -33.3, -274.95)" gradientUnits="userSpaceOnUse" id="gradient7" spreadMethod="pad" x1="-819.2" x2="819.2">
      <stop offset="0.0" stop-color="#ffffff"/>
      <stop offset="0.24705882352941178" stop-color="#ffcc33"/>
      <stop offset="1.0" stop-color="#ff0000"/>
    </linearGradient>
    <linearGradient gradientTransform="matrix(-0.0106, 7.0E-4, -0.0019, -0.0294, -14.95, -303.55)" gradientUnits="userSpaceOnUse" id="gradient8" spreadMethod="pad" x1="-819.2" x2="819.2">
      <stop offset="0.0" stop-color="#ffffff"/>
      <stop offset="0.24705882352941178" stop-color="#ffcc33"/>
      <stop offset="1.0" stop-color="#ff0000"/>
    </linearGradient>
    <linearGradient gradientTransform="matrix(-0.0098, -0.0042, 0.0116, -0.0271, -19.95, -289.8)" gradientUnits="userSpaceOnUse" id="gradient9" spreadMethod="pad" x1="-819.2" x2="819.2">
      <stop offset="0.0" stop-color="#ffffff"/>
      <stop offset="0.24705882352941178" stop-color="#ffcc33"/>
      <stop offset="1.0" stop-color="#ff0000"/>
    </linearGradient>
    <linearGradient gradientTransform="matrix(-0.0095, 0.0047, -0.0131, -0.0264, 68.7, -321.1)" gradientUnits="userSpaceOnUse" id="gradient10" spreadMethod="pad" x1="-819.2" x2="819.2">
      <stop offset="0.0" stop-color="#ffffff"/>
      <stop offset="0.24705882352941178" stop-color="#ffcc33"/>
      <stop offset="1.0" stop-color="#ff0000"/>
    </linearGradient>
    <linearGradient gradientTransform="matrix(-0.0049, 0.0094, -0.0261, -0.0137, 54.95, -332.4)" gradientUnits="userSpaceOnUse" id="gradient11" spreadMethod="pad" x1="-819.2" x2="819.2">
      <stop offset="0.0" stop-color="#ffffff"/>
      <stop offset="0.24705882352941178" stop-color="#ffcc33"/>
      <stop offset="1.0" stop-color="#ff0000"/>
    </linearGradient>
    <linearGradient gradientTransform="matrix(-0.0105, -0.0013, 0.0036, -0.0293, 69.85, -305.45)" gradientUnits="userSpaceOnUse" id="gradient12" spreadMethod="pad" x1="-819.2" x2="819.2">
      <stop offset="0.0" stop-color="#ffffff"/>
      <stop offset="0.24705882352941178" stop-color="#ffcc33"/>
      <stop offset="1.0" stop-color="#ff0000"/>
    </linearGradient>
    <linearGradient gradientTransform="matrix(0.0074, 0.0076, -0.0211, 0.0206, 23.25, -328.2)" gradientUnits="userSpaceOnUse" id="gradient13" spreadMethod="pad" x1="-819.2" x2="819.2">
      <stop offset="0.0" stop-color="#ffffff"/>
      <stop offset="0.24705882352941178" stop-color="#ffcc33"/>
      <stop offset="1.0" stop-color="#ff0000"/>
    </linearGradient>
    <linearGradient gradientTransform="matrix(0.0032, 0.0101, -0.0282, 0.0088, 33.5, -335.05)" gradientUnits="userSpaceOnUse" id="gradient14" spreadMethod="pad" x1="-819.2" x2="819.2">
      <stop offset="0.0" stop-color="#ffffff"/>
      <stop offset="0.24705882352941178" stop-color="#ffcc33"/>
      <stop offset="1.0" stop-color="#ff0000"/>
    </linearGradient>
    <linearGradient gradientTransform="matrix(0.0095, -0.0047, 0.0131, 0.0264, 18.4, -295.6)" gradientUnits="userSpaceOnUse" id="gradient15" spreadMethod="pad" x1="-819.2" x2="819.2">
      <stop offset="0.0" stop-color="#ffffff"/>
      <stop offset="0.24705882352941178" stop-color="#ffcc33"/>
      <stop offset="1.0" stop-color="#ff0000"/>
    </linearGradient>
    <linearGradient gradientTransform="matrix(0.0105, 0.0013, -0.0036, 0.0293, 12.95, -311.4)" gradientUnits="userSpaceOnUse" id="gradient16" spreadMethod="pad" x1="-819.2" x2="819.2">
      <stop offset="0.0" stop-color="#ffffff"/>
      <stop offset="0.24705882352941178" stop-color="#ffcc33"/>
      <stop offset="1.0" stop-color="#ff0000"/>
    </linearGradient>
    <linearGradient gradientTransform="matrix(0.0049, -0.0094, 0.0261, 0.0137, 29.25, -282.15)" gradientUnits="userSpaceOnUse" id="gradient17" spreadMethod="pad" x1="-819.2" x2="819.2">
      <stop offset="0.0" stop-color="#ffffff"/>
      <stop offset="0.24705882352941178" stop-color="#ffcc33"/>
      <stop offset="1.0" stop-color="#ff0000"/>
    </linearGradient>
    <linearGradient gradientTransform="matrix(-0.0074, -0.0076, 0.0211, -0.0206, 62.85, -286.85)" gradientUnits="userSpaceOnUse" id="gradient18" spreadMethod="pad" x1="-819.2" x2="819.2">
      <stop offset="0.0" stop-color="#ffffff"/>
      <stop offset="0.24705882352941178" stop-color="#ffcc33"/>
      <stop offset="1.0" stop-color="#ff0000"/>
    </linearGradient>
    <linearGradient gradientTransform="matrix(-0.0032, -0.0101, 0.0282, -0.0088, 49.2, -281.65)" gradientUnits="userSpaceOnUse" id="gradient19" spreadMethod="pad" x1="-819.2" x2="819.2">
      <stop offset="0.0" stop-color="#ffffff"/>
      <stop offset="0.24705882352941178" stop-color="#ffcc33"/>
      <stop offset="1.0" stop-color="#ff0000"/>
    </linearGradient>
  </defs>
</svg>
