<?xml version="1.0" encoding="UTF-8" standalone="no"?>
<svg xmlns:xlink="http://www.w3.org/1999/xlink" height="51.3px" width="59.05px" xmlns="http://www.w3.org/2000/svg">
  <g transform="matrix(1.0, 0.0, 0.0, 1.0, 7.05, 21.6)">
    <path d="M0.65 -19.85 L0.5 -19.6 0.45 -19.55 1.35 -19.1 1.65 -18.9 5.2 -16.95 3.6 -14.45 6.0 -16.4 13.55 -12.1 12.55 -9.45 14.5 -11.55 18.85 -8.95 18.2 -7.25 19.7 -8.4 20.7 -7.85 21.65 -7.35 21.8 -7.6 22.35 -7.15 18.8 -2.05 17.6 -0.35 19.55 0.7 Q20.75 -0.25 22.5 -0.25 23.8 -0.25 24.85 0.3 L40.3 -21.6 42.2 -20.65 42.0 -20.35 42.5 -20.0 43.05 -19.7 50.5 -15.4 49.95 -14.95 49.65 -15.1 46.65 -11.0 43.8 -12.4 46.0 -10.25 41.0 -3.7 37.9 -4.55 40.45 -2.9 37.4 0.95 35.45 0.35 36.8 1.7 35.6 3.3 35.85 3.45 35.35 3.95 27.55 -0.2 26.3 1.5 Q27.1 2.45 27.1 3.75 27.1 4.95 26.45 5.9 L52.0 19.6 50.9 21.2 50.6 21.0 44.85 28.45 44.3 27.95 44.5 27.7 43.65 27.2 43.35 27.05 39.75 25.05 41.35 22.55 38.95 24.5 31.4 20.2 32.4 17.55 30.45 19.65 26.1 17.05 26.75 15.35 25.25 16.5 23.35 15.45 23.15 15.7 22.6 15.25 26.2 10.15 27.4 8.5 27.35 8.45 25.0 7.2 Q23.9 7.8 22.5 7.8 L20.4 7.4 4.65 29.7 2.75 28.75 3.0 28.45 -5.55 23.5 -5.0 23.05 -4.7 23.2 -1.7 19.1 1.15 20.5 -1.05 18.35 3.95 11.8 7.05 12.65 4.5 11.0 7.55 7.15 9.5 7.75 8.15 6.4 8.8 5.6 9.4 4.8 9.1 4.65 9.6 4.15 17.45 8.3 18.9 6.35 Q17.85 5.25 17.85 3.75 17.85 2.85 18.3 2.05 L-7.05 -11.5 -5.95 -13.1 -5.6 -12.9 0.1 -20.35 0.65 -19.85" fill="#000000" fill-opacity="0.21960784" fill-rule="evenodd" stroke="none"/>
  </g>
</svg>
