<?xml version="1.0" encoding="UTF-8" standalone="no"?>
<svg xmlns:xlink="http://www.w3.org/1999/xlink" height="67.4px" width="26.8px" xmlns="http://www.w3.org/2000/svg">
  <g transform="matrix(1.0, 0.0, 0.0, 1.0, 3.4, 64.95)">
    <path d="M-1.4 -62.85 L2.55 -62.95 2.55 -62.15 21.4 -61.65 21.05 -60.3 20.4 -60.3 20.3 -50.0 14.35 -49.7 20.15 -48.1 19.75 -31.5 14.0 -30.1 19.75 -29.45 19.4 -19.75 15.65 -18.9 19.2 -17.8 19.15 -13.65 19.75 -13.65 19.55 -12.3 2.75 -12.15 2.75 0.45 -0.85 0.2 -1.4 -62.85 Z" fill="none" stroke="#5f411f" stroke-linecap="round" stroke-linejoin="round" stroke-width="4.0"/>
    <path d="M20.3 -50.0 L14.35 -49.7 20.15 -48.1 19.75 -31.5 14.0 -30.1 19.75 -29.45 19.4 -19.75 15.65 -18.9 19.2 -17.8 19.15 -12.8 1.0 -12.6 0.65 -61.9 20.4 -61.35 20.3 -50.0" fill="#e8c991" fill-rule="evenodd" stroke="none"/>
    <path d="M16.1 -61.45 L12.8 -60.9 10.2 -60.9 Q8.25 -63.2 8.25 -58.4 L8.4 -57.1 Q8.65 -55.85 9.45 -55.85 L12.75 -56.15 Q16.65 -56.15 17.4 -57.2 17.6 -57.5 17.6 -59.8 L17.6 -60.65 Q17.45 -61.3 16.8 -61.45 L20.4 -61.35 20.3 -50.0 14.35 -49.7 20.15 -48.1 19.75 -31.5 14.0 -30.1 19.75 -29.45 19.5 -21.6 15.55 -21.2 Q9.0 -20.1 9.0 -18.35 L9.3 -17.0 9.1 -16.2 Q9.0 -15.75 9.6 -15.3 L8.7 -14.4 8.4 -13.85 Q8.4 -13.5 8.55 -13.2 8.75 -12.85 9.25 -12.7 L12.05 -12.9 12.0 -12.7 1.0 -12.6 0.9 -29.65 Q1.2 -29.4 1.8 -29.4 L12.0 -30.65 Q13.55 -30.9 13.9 -32.55 L14.0 -34.3 14.1 -40.0 Q13.9 -43.65 12.45 -44.4 L8.1 -44.4 2.6 -43.8 Q1.35 -43.75 1.35 -43.1 1.35 -42.5 2.2 -42.35 L3.0 -42.3 Q2.2 -41.15 2.1 -38.8 L2.4 -34.4 Q2.4 -33.75 3.0 -33.3 1.9 -32.95 1.5 -32.6 1.2 -32.25 1.2 -31.65 L1.2 -31.5 0.9 -31.25 0.65 -61.9 16.1 -61.45 M9.75 -36.3 L9.6 -35.15 9.2 -35.9 9.75 -36.3 M19.2 -15.95 L19.2 -15.85 19.05 -15.9 19.2 -15.95" fill="#e8c991" fill-rule="evenodd" stroke="none"/>
    <path d="M16.8 -61.45 Q17.45 -61.3 17.6 -60.65 L17.6 -59.8 Q17.6 -57.5 17.4 -57.2 16.65 -56.15 12.75 -56.15 L9.45 -55.85 Q8.65 -55.85 8.4 -57.1 L8.25 -58.4 Q8.25 -63.2 10.2 -60.9 L12.8 -60.9 16.1 -61.45 16.8 -61.45" fill="#dbc191" fill-rule="evenodd" stroke="none"/>
    <path d="M0.9 -31.25 L1.2 -31.5 1.2 -31.65 Q1.2 -32.25 1.5 -32.6 1.9 -32.95 3.0 -33.3 2.4 -33.75 2.4 -34.4 L2.1 -38.8 Q2.2 -41.15 3.0 -42.3 L2.2 -42.35 Q1.35 -42.5 1.35 -43.1 1.35 -43.75 2.6 -43.8 L8.1 -44.4 12.45 -44.4 Q13.9 -43.65 14.1 -40.0 L14.0 -34.3 13.9 -32.55 Q13.55 -30.9 12.0 -30.65 L1.8 -29.4 Q1.2 -29.4 0.9 -29.65 L0.9 -31.2 0.9 -31.25 M12.0 -12.7 L12.05 -12.9 9.25 -12.7 Q8.75 -12.85 8.55 -13.2 8.4 -13.5 8.4 -13.85 L8.7 -14.4 9.6 -15.3 Q9.0 -15.75 9.1 -16.2 L9.3 -17.0 9.0 -18.35 Q9.0 -20.1 15.55 -21.2 L19.5 -21.6 19.4 -19.75 15.65 -18.9 19.2 -17.8 19.2 -15.95 19.05 -15.9 19.2 -15.85 19.15 -12.8 12.0 -12.7 M9.75 -36.3 L9.2 -35.9 9.6 -35.15 9.75 -36.3" fill="#e3be79" fill-rule="evenodd" stroke="none"/>
    <path d="M2.55 -62.95 L2.75 0.45 -0.85 0.2 -1.4 -62.85 2.55 -62.95" fill="#bd813e" fill-rule="evenodd" stroke="none"/>
    <path d="M21.4 -61.65 L21.05 -60.3 -0.15 -60.3 Q0.3 -62.25 0.05 -62.25 L21.4 -61.65 M1.1 -12.15 L0.7 -13.85 19.75 -13.65 19.55 -12.3 1.1 -12.15" fill="#bd813e" fill-rule="evenodd" stroke="none"/>
  </g>
</svg>
