<?xml version="1.0" encoding="UTF-8" standalone="no"?>
<svg xmlns:xlink="http://www.w3.org/1999/xlink" height="13.3px" width="15.7px" xmlns="http://www.w3.org/2000/svg">
  <g transform="matrix(1.0, 0.0, 0.0, 1.0, -2.2, -2.05)">
    <path d="M10.95 7.55 L11.5 6.35 Q11.55 5.6 11.25 5.3 L10.05 4.95 Q9.3 4.75 7.8 5.4 7.05 5.65 6.4 6.0 L5.55 4.9 5.0 5.45 Q3.25 7.2 3.55 9.55 3.9 11.75 5.85 13.2 L7.2 13.95 6.4 6.65 8.7 6.55 8.8 8.05 9.3 8.1 10.05 8.1 10.95 7.55 M14.75 5.15 L13.1 4.0 Q13.45 4.7 13.45 5.75 L13.05 7.15 12.6 7.8 12.3 7.95 13.45 8.3 Q14.6 8.8 15.0 9.6 15.4 10.45 15.25 11.15 L14.8 12.25 13.6 13.65 14.55 12.9 Q16.4 11.4 16.6 9.25 16.7 6.85 14.75 5.15 M12.95 11.25 L12.5 10.25 11.7 9.6 9.75 9.35 8.9 9.5 9.25 13.45 10.0 13.65 Q11.15 13.6 12.1 13.05 L12.9 12.2 12.95 11.25 M17.9 9.2 Q17.7 11.8 15.45 13.6 13.2 15.25 10.35 15.35 7.35 15.5 5.1 13.85 2.7 12.2 2.3 9.6 1.85 6.75 3.95 4.55 6.2 2.15 9.7 2.05 13.35 2.0 15.8 4.25 18.05 6.3 17.9 9.2" fill="#ffbf1e" fill-rule="evenodd" stroke="none"/>
  </g>
</svg>
