<?xml version="1.0" encoding="UTF-8" standalone="no"?>
<svg xmlns:xlink="http://www.w3.org/1999/xlink" height="84.75px" width="49.5px" xmlns="http://www.w3.org/2000/svg">
  <g transform="matrix(1.0, 0.0, 0.0, 1.0, 1.6, 30.25)">
    <path d="M45.55 25.85 L45.6 26.0 36.45 29.15 36.4 29.15 33.2 19.95 32.85 15.55 43.05 12.05 46.6 22.35 46.4 22.45 45.55 25.85" fill="#7e7e7e" fill-rule="evenodd" stroke="none"/>
    <path d="M45.55 25.85 L45.6 26.0 36.45 29.15 36.4 29.15 33.2 19.95 32.85 15.55 43.05 12.05 46.6 22.35 46.4 22.45 45.55 25.85 Z" fill="none" stroke="#624326" stroke-linecap="square" stroke-linejoin="miter" stroke-miterlimit="3.0" stroke-width="2.0"/>
    <path d="M42.05 16.3 L42.65 17.9 40.35 18.4 37.85 17.25 42.05 16.3 M37.35 19.2 L35.9 19.6 35.35 18.05 37.35 19.2 M36.4 20.95 L39.3 20.35 41.5 21.65 37.1 23.05 36.4 20.95" fill="#a37743" fill-rule="evenodd" stroke="none"/>
    <path d="M42.65 17.9 L42.05 16.3 41.45 14.6 36.0 16.4 37.85 17.25 40.35 18.4 43.3 19.8 42.65 17.9 M32.9 15.95 L32.85 15.55 43.05 12.05 46.6 22.35 46.4 22.45 36.3 25.85 36.25 25.75 32.9 15.95 M39.3 20.35 L37.35 19.2 35.35 18.05 35.9 19.6 36.4 20.95 37.1 23.05 41.5 21.65 39.3 20.35" fill="#d0a067" fill-rule="evenodd" stroke="none"/>
    <path d="M42.05 16.3 L37.85 17.25 36.0 16.4 41.45 14.6 42.05 16.3 M40.35 18.4 L42.65 17.9 43.3 19.8 40.35 18.4 M37.35 19.2 L39.3 20.35 36.4 20.95 35.9 19.6 37.35 19.2" fill="#bd8d53" fill-rule="evenodd" stroke="none"/>
    <path d="M46.4 22.45 L45.55 25.85 45.6 26.0 36.45 29.15 36.25 25.75 36.3 25.85 46.4 22.45 M44.55 24.8 L41.15 26.65 44.45 25.5 44.55 24.8 M37.45 27.45 L43.15 24.35 37.45 26.2 37.45 27.45" fill="#8c612b" fill-rule="evenodd" stroke="none"/>
    <path d="M36.45 29.15 L36.4 29.15 33.2 19.95 33.3 19.95 32.9 15.95 36.25 25.75 36.45 29.15 M44.55 24.8 L44.45 25.5 41.15 26.65 44.55 24.8 M37.45 27.45 L37.45 26.2 43.15 24.35 37.45 27.45" fill="#6b491d" fill-rule="evenodd" stroke="none"/>
    <path d="M19.25 -27.25 L35.3 -11.3 35.3 32.9 35.0 32.55 31.7 49.35 27.8 49.35 27.8 48.35 9.7 48.35 9.7 49.35 5.1 49.35 1.85 32.6 1.4 33.0 1.4 -11.3 18.0 -27.25 19.25 -27.25" fill="#747474" fill-rule="evenodd" stroke="none"/>
    <path d="M19.25 -27.25 L18.0 -27.25 1.4 -11.3 1.4 33.0 1.85 32.6 5.1 49.35 9.7 49.35 9.7 48.35 27.8 48.35 27.8 49.35 31.7 49.35 35.0 32.55 35.3 32.9 35.3 -11.3 19.25 -27.25 M20.5 -30.25 L38.3 -12.55 38.3 40.15 36.85 38.65 34.45 50.95 34.45 52.35 24.8 52.35 24.8 51.35 11.2 51.35 11.2 52.35 2.2 52.35 2.2 50.2 -0.05 38.55 -1.6 40.0 -1.6 -12.6 16.8 -30.25 20.5 -30.25" fill="#4a1c00" fill-rule="evenodd" stroke="none"/>
    <path d="M17.35 33.95 L17.35 39.9 11.25 39.9 10.95 33.95 17.35 33.95 M17.35 48.15 L11.7 48.15 11.3 40.75 17.35 40.75 17.35 48.15 M19.85 48.15 L19.85 40.8 25.45 40.8 25.05 48.15 19.85 48.15 M19.85 40.0 L19.85 33.95 25.8 33.95 25.5 40.0 19.85 40.0" fill="#a1581f" fill-rule="evenodd" stroke="none"/>
    <path d="M17.35 33.95 L10.95 33.95 11.25 39.9 17.35 39.9 17.35 33.95 M10.4 48.15 L9.55 33.95 9.45 32.9 18.6 32.9 27.2 32.9 27.15 33.95 26.4 48.15 25.05 48.15 25.45 40.8 19.85 40.8 19.85 48.15 18.6 48.15 17.35 48.15 17.35 40.75 11.3 40.75 11.7 48.15 10.4 48.15 M19.85 40.0 L25.5 40.0 25.8 33.95 19.85 33.95 19.85 40.0" fill="#874b1b" fill-rule="evenodd" stroke="none"/>
    <path d="M26.3 49.85 L19.65 49.85 18.6 49.85 17.35 49.85 10.5 49.85 10.4 48.15 11.7 48.15 17.35 48.15 18.6 48.15 19.85 48.15 25.05 48.15 26.4 48.15 26.3 49.85" fill="#744016" fill-rule="evenodd" stroke="none"/>
    <path d="M27.3 50.85 L26.3 50.85 26.3 49.85 26.4 48.15 27.15 33.95 27.2 32.9 18.6 32.9 9.45 32.9 9.55 33.95 10.4 48.15 10.5 49.85 10.55 50.85 9.7 50.85 8.4 32.05 28.2 32.05 27.3 50.85" fill="#643611" fill-rule="evenodd" stroke="none"/>
    <path d="M0.9 35.55 L-0.1 36.5 -0.1 20.45 6.3 13.2 6.05 7.25 -0.1 13.25 -0.1 -11.95 17.4 -28.75 17.4 -23.85 17.4 -21.6 11.1 -15.1 11.0 -10.3 17.4 -14.9 17.4 -11.5 17.4 19.7 0.9 35.55" fill="#a65800" fill-rule="evenodd" stroke="none"/>
    <path d="M19.85 -28.75 L36.8 -11.95 36.8 -7.2 29.45 -12.3 29.25 -4.55 36.8 1.2 36.8 36.5 35.9 35.6 19.85 19.7 19.85 -28.75" fill="#cd6d00" fill-rule="evenodd" stroke="none"/>
    <path d="M36.8 -7.2 L36.8 1.2 29.25 -4.55 29.45 -12.3 36.8 -7.2" fill="#bf6600" fill-rule="evenodd" stroke="none"/>
    <path d="M-0.1 20.45 L-0.1 13.25 6.05 7.25 6.3 13.2 -0.1 20.45 M17.4 -21.6 L17.4 -14.9 11.0 -10.3 11.1 -15.1 17.4 -21.6" fill="#934e00" fill-rule="evenodd" stroke="none"/>
    <path d="M17.4 -28.75 L19.85 -28.75 19.85 19.7 17.4 19.7 17.4 -11.5 17.4 -14.9 17.4 -21.6 17.4 -23.85 17.4 -28.75" fill="#ec7d00" fill-rule="evenodd" stroke="none"/>
    <path d="M35.9 35.6 L35.85 35.9 35.8 36.15 32.95 50.8 32.95 50.85 27.3 50.85 28.2 32.05 8.4 32.05 9.7 50.85 3.7 50.85 3.7 50.2 1.0 36.1 0.95 35.85 0.9 35.55 17.4 19.7 19.85 19.7 35.9 35.6" fill="#777777" fill-rule="evenodd" stroke="none"/>
    <path d="M19.45 21.15 L17.85 21.15 1.7 36.85 1.0 37.1 Q0.6 37.1 0.3 36.8 0.0 36.5 0.0 36.1 0.0 35.7 0.3 35.4 L16.7 19.45 Q17.0 19.15 17.4 19.15 L19.85 19.15 Q20.25 19.15 20.55 19.45 L36.5 35.45 36.8 36.15 36.5 36.85 35.8 37.15 Q35.4 37.15 35.1 36.85 L19.45 21.15" fill="#4a1c00" fill-rule="evenodd" stroke="none"/>
    <path d="M18.7 26.8 L18.1 26.65 Q17.75 26.65 17.55 26.8 17.3 26.95 17.3 27.2 L17.55 27.55 18.1 27.7 18.7 27.55 18.95 27.2 18.7 26.8 M12.95 24.95 L12.95 24.9 17.15 24.8 17.05 23.2 20.15 25.05 21.9 23.95 21.95 26.6 24.5 26.45 24.5 26.5 21.5 28.45 23.3 29.5 23.3 29.55 19.2 29.5 19.35 31.15 16.25 29.25 14.6 30.5 14.45 27.8 12.0 27.9 14.85 25.95 12.95 24.95" fill="#000000" fill-rule="evenodd" stroke="none"/>
    <path d="M4.05 48.3 L4.3 48.4 6.25 49.5 6.2 49.5 7.0 50.15 8.15 50.6 Q8.65 50.5 9.2 50.05 L9.35 50.0 9.65 50.0 9.95 50.1 10.05 50.2 Q10.5 50.9 10.4 51.4 L10.15 51.85 10.7 52.5 12.75 52.7 13.05 52.8 13.25 52.9 13.4 53.05 13.35 53.15 11.9 53.7 11.0 53.75 10.55 54.2 10.65 54.25 10.95 54.45 10.5 54.4 10.45 54.5 10.3 54.5 10.0 54.35 1.9 52.95 1.8 52.9 1.5 52.8 1.55 52.7 1.65 52.45 1.15 51.8 -0.95 51.45 -1.2 51.45 -1.4 51.4 -1.5 51.2 -1.5 51.1 Q-0.95 50.65 0.0 50.6 L0.85 50.5 1.35 50.05 Q0.8 49.65 -0.45 49.2 L-0.65 49.05 -0.75 48.95 -0.65 48.85 -0.45 48.8 2.0 49.25 3.0 49.55 4.2 49.55 Q4.25 49.25 3.75 48.6 L3.65 48.4 Q3.65 48.3 3.8 48.35 L4.05 48.3 M10.1 53.9 L10.45 53.35 10.4 52.9 10.4 52.85 Q10.1 52.15 9.3 51.6 L8.6 51.2 8.5 51.1 6.2 50.2 5.25 50.0 5.15 50.0 4.25 49.9 3.3 49.9 2.9 49.95 2.75 49.95 2.25 50.05 1.85 50.35 Q1.4 50.6 1.4 50.95 L1.45 51.35 1.5 51.4 Q1.7 52.1 2.65 52.75 L2.7 52.75 3.65 52.9 6.25 53.35 8.3 53.75 8.75 53.8 9.15 53.85 9.7 53.95 9.8 53.95 10.0 54.0 10.1 53.9 M5.2 49.85 L6.0 50.0 6.7 50.2 6.0 49.55 Q5.3 49.0 4.2 48.55 4.85 49.4 4.8 49.8 L5.2 49.85 M8.7 51.1 L8.75 51.1 9.4 51.45 9.8 51.85 10.0 51.35 Q10.05 50.8 9.7 50.2 9.05 50.75 8.45 50.9 L8.7 51.1 M10.65 52.7 L10.6 52.7 10.65 52.85 10.65 52.9 10.7 53.3 10.65 53.55 11.75 53.5 13.05 53.05 10.65 52.7 M6.7 51.85 L6.75 51.9 7.3 52.4 7.3 52.65 7.05 52.75 6.9 52.8 6.1 52.8 5.1 52.45 4.55 51.9 Q4.45 51.6 4.75 51.45 L4.8 51.5 4.9 51.45 4.95 51.45 5.7 51.5 Q6.25 51.55 6.7 51.85 M5.5 52.3 Q5.75 52.5 6.0 52.5 L6.55 52.5 6.7 52.25 6.4 52.0 5.8 51.8 5.35 51.8 5.3 51.8 5.15 52.0 5.5 52.3 M6.7 52.7 L6.65 52.65 6.4 52.7 6.7 52.7 M2.2 49.9 L2.5 49.85 2.55 49.85 Q2.75 49.7 2.95 49.7 L2.05 49.45 -0.2 49.05 Q1.25 49.65 1.85 50.1 L2.05 50.0 2.05 49.95 2.2 49.9 M1.95 52.65 L2.3 52.7 2.05 52.5 1.95 52.65 M1.2 50.75 L0.15 50.75 -1.15 51.25 1.25 51.55 1.3 51.55 1.2 51.4 1.2 51.35 1.15 51.0 1.2 50.75" fill="#2e2d2d" fill-rule="evenodd" stroke="none"/>
    <path d="M4.25 49.9 L5.15 50.0 5.25 50.0 6.2 50.2 8.5 51.1 8.6 51.2 9.3 51.6 Q10.1 52.15 10.4 52.85 L10.4 52.9 10.45 53.35 10.1 53.9 9.3 53.35 9.35 52.75 Q9.15 52.1 7.95 51.4 6.75 50.75 5.3 50.5 L5.1 50.5 4.25 49.9 M9.15 53.85 L8.75 53.8 8.95 53.75 9.15 53.85 M3.65 52.9 L2.7 52.75 2.65 52.75 Q1.7 52.1 1.5 51.4 L1.45 51.35 1.4 50.95 Q1.4 50.6 1.85 50.35 L2.55 50.85 Q2.2 51.1 2.35 51.55 2.6 52.25 3.65 52.9 M2.75 49.95 L2.9 49.95 3.3 49.9 4.05 50.35 3.45 50.45 2.75 49.95" fill="#727272" fill-rule="evenodd" stroke="none"/>
    <path d="M8.75 53.8 L8.3 53.75 6.9 52.8 7.05 52.75 7.3 52.65 8.95 53.75 8.75 53.8 M6.25 53.35 L3.65 52.9 Q2.6 52.25 2.35 51.55 2.2 51.1 2.55 50.85 L6.25 53.35 M5.1 50.5 L5.3 50.5 Q6.75 50.75 7.95 51.4 9.15 52.1 9.35 52.75 L9.3 53.35 5.1 50.5 M10.65 52.7 L13.05 53.05 11.75 53.5 10.65 53.55 10.7 53.3 10.65 52.9 10.65 52.85 10.6 52.7 10.65 52.7 M8.7 51.1 L8.45 50.9 Q9.05 50.75 9.7 50.2 10.05 50.8 10.0 51.35 L9.8 51.85 9.4 51.45 8.75 51.1 8.7 51.1 M5.2 49.85 L4.8 49.8 Q4.85 49.4 4.2 48.55 5.3 49.0 6.0 49.55 L6.7 50.2 6.0 50.0 5.2 49.85 M4.05 50.35 L5.6 51.4 5.7 51.45 6.6 51.75 6.7 51.85 Q6.25 51.55 5.7 51.5 L4.95 51.45 3.45 50.45 4.05 50.35 M4.9 51.45 L4.8 51.5 4.85 51.45 4.9 51.45 M1.85 50.1 Q1.25 49.65 -0.2 49.05 L2.05 49.45 2.95 49.7 Q2.75 49.7 2.55 49.85 L2.5 49.85 2.2 49.9 2.1 49.9 2.0 49.95 1.85 50.1 M1.2 50.75 L1.15 51.0 1.2 51.35 1.2 51.4 1.3 51.55 1.25 51.55 -1.15 51.25 0.15 50.75 1.2 50.75 M1.95 52.65 L2.05 52.5 2.3 52.7 1.95 52.65" fill="#9f9f9f" fill-rule="evenodd" stroke="none"/>
    <path d="M6.7 52.7 L6.4 52.7 6.65 52.65 6.7 52.7 M2.2 49.9 L2.05 49.95 2.05 50.0 1.85 50.1 2.0 49.95 2.1 49.9 2.2 49.9" fill="#ffffff" fill-opacity="0.7058824" fill-rule="evenodd" stroke="none"/>
    <path d="M10.1 53.9 L10.0 54.0 9.8 53.95 9.7 53.95 9.15 53.85 8.95 53.75 7.3 52.65 7.3 52.4 6.75 51.9 6.7 51.85 6.6 51.75 5.7 51.45 5.6 51.4 4.05 50.35 3.3 49.9 4.25 49.9 5.1 50.5 9.3 53.35 10.1 53.9 M8.3 53.75 L6.25 53.35 2.55 50.85 1.85 50.35 2.25 50.05 2.75 49.95 3.45 50.45 4.95 51.45 4.9 51.45 4.85 51.45 4.8 51.5 4.75 51.45 Q4.45 51.6 4.55 51.9 L5.1 52.45 6.1 52.8 6.9 52.8 8.3 53.75" fill="#e3e3e3" fill-rule="evenodd" stroke="none"/>
  </g>
</svg>
