<?xml version="1.0" encoding="UTF-8" standalone="no"?>
<svg xmlns:xlink="http://www.w3.org/1999/xlink" height="11.9px" width="14.5px" xmlns="http://www.w3.org/2000/svg">
  <g transform="matrix(1.0, 0.0, 0.0, 1.0, 7.2, 5.95)">
    <path d="M-4.0 -2.9 L-3.75 -3.2 -3.8 -3.6 -3.7 -3.95 -3.1 -4.6 -1.75 -4.95 Q-0.95 -4.9 -0.45 -4.45 L-0.35 -4.35 0.75 -4.6 1.05 -4.6 1.75 -4.2 2.05 -3.85 2.45 -3.85 Q3.0 -3.85 3.35 -3.5 L3.65 -2.9 3.65 -2.8 3.5 -2.3 3.85 -1.25 3.8 -0.9 Q3.65 -0.4 3.15 -0.05 2.45 0.45 1.55 0.4 L0.7 0.2 0.65 0.25 Q0.1 0.6 -0.65 0.55 L-1.0 0.5 -1.8 0.05 -1.95 -0.1 -2.1 -0.05 -3.15 -0.5 Q-3.55 -0.9 -3.45 -1.4 L-3.45 -1.45 -3.75 -1.7 Q-4.15 -2.05 -4.1 -2.6 L-4.0 -2.9 -4.1 -2.6 Q-4.15 -2.05 -3.75 -1.7 L-3.45 -1.45 -3.45 -1.4 Q-3.55 -0.9 -3.15 -0.5 L-2.1 -0.05 -1.95 -0.1 -1.8 0.05 -1.0 0.5 -0.65 0.55 Q0.1 0.6 0.65 0.25 L0.7 0.2 1.55 0.4 Q2.45 0.45 3.15 -0.05 3.65 -0.4 3.8 -0.9 L3.85 -1.25 3.5 -2.3 3.65 -2.8 3.65 -2.9 3.8 -2.85 4.5 -2.15 Q5.1 -1.7 5.1 -0.95 L5.05 -0.9 5.6 -0.65 Q6.35 -0.15 6.3 0.65 L6.25 0.85 5.95 1.65 6.0 2.25 6.0 2.55 5.9 2.7 5.1 3.85 Q4.3 4.5 3.2 4.7 L1.25 4.35 1.05 4.25 1.05 4.3 Q0.5 4.8 -0.4 4.95 L-0.9 4.95 -1.95 4.7 -2.45 4.3 -3.05 4.4 -4.4 4.2 Q-5.05 3.9 -5.2 3.35 L-5.1 2.6 Q-5.85 2.05 -6.1 1.25 L-6.2 0.65 Q-6.2 -0.15 -5.6 -0.8 L-5.45 -1.05 -5.45 -1.2 -5.0 -2.2 -4.0 -2.9 M4.5 -2.15 L4.55 -2.0 4.5 -1.3 Q5.2 -0.85 5.35 -0.15 L5.4 0.3 Q5.35 0.95 4.8 1.5 4.1 2.25 2.95 2.4 L1.8 2.4 1.75 2.5 Q1.2 3.05 0.3 3.2 L-0.2 3.25 -1.35 2.95 -1.55 2.8 -1.75 2.85 -3.15 2.65 -3.95 1.75 -3.95 1.7 -4.45 1.5 -5.25 0.55 -5.15 -0.25 -5.4 -0.75 -5.45 -1.05 -5.4 -0.75 -5.15 -0.25 -5.25 0.55 -4.45 1.5 -3.95 1.7 -3.95 1.75 -3.15 2.65 -1.75 2.85 -1.55 2.8 -1.35 2.95 -0.2 3.25 0.3 3.2 Q1.2 3.05 1.75 2.5 L1.8 2.4 2.95 2.4 Q4.1 2.25 4.8 1.5 5.35 0.95 5.4 0.3 L5.35 -0.15 Q5.2 -0.85 4.5 -1.3 L4.55 -2.0 4.5 -2.15" fill="#4c730d" fill-rule="evenodd" stroke="none"/>
    <path d="M3.65 -2.9 L3.35 -3.5 Q3.0 -3.85 2.45 -3.85 L2.05 -3.85 1.75 -4.2 1.05 -4.6 0.75 -4.6 -0.35 -4.35 -0.45 -4.45 Q-0.95 -4.9 -1.75 -4.95 L-3.1 -4.6 -3.7 -3.95 -3.8 -3.6 -3.75 -3.2 -4.0 -2.9 -4.1 -2.6 Q-4.15 -2.05 -3.75 -1.7 L-3.45 -1.45 -3.45 -1.4 Q-3.55 -0.9 -3.15 -0.5 L-2.1 -0.05 -1.95 -0.1 -1.8 0.05 -1.0 0.5 -0.65 0.55 Q0.1 0.6 0.65 0.25 L0.7 0.2 1.55 0.4 Q2.45 0.45 3.15 -0.05 3.65 -0.4 3.8 -0.9 L3.85 -1.25 3.5 -2.3 3.65 -2.8 3.65 -2.9 3.8 -2.85 4.5 -2.15 Q5.1 -1.7 5.1 -0.95 L5.05 -0.9 5.6 -0.65 Q6.35 -0.15 6.3 0.65 L6.25 0.85 5.95 1.65 6.0 2.25 6.0 2.55 5.9 2.7 5.1 3.85 Q4.3 4.5 3.2 4.7 L1.25 4.35 1.05 4.25 1.05 4.3 Q0.5 4.8 -0.4 4.95 L-0.9 4.95 -1.95 4.7 -2.45 4.3 -3.05 4.4 -4.4 4.2 Q-5.05 3.9 -5.2 3.35 L-5.1 2.6 Q-5.85 2.05 -6.1 1.25 L-6.2 0.65 Q-6.2 -0.15 -5.6 -0.8 L-5.45 -1.05 -5.45 -1.2 -5.0 -2.2 -4.0 -2.9 M-5.45 -1.05 L-5.4 -0.75 -5.15 -0.25 -5.25 0.55 -4.45 1.5 -3.95 1.7 -3.95 1.75 -3.15 2.65 -1.75 2.85 -1.55 2.8 -1.35 2.95 -0.2 3.25 0.3 3.2 Q1.2 3.05 1.75 2.5 L1.8 2.4 2.95 2.4 Q4.1 2.25 4.8 1.5 5.35 0.95 5.4 0.3 L5.35 -0.15 Q5.2 -0.85 4.5 -1.3 L4.55 -2.0 4.5 -2.15" fill="none" stroke="#4c730d" stroke-linecap="round" stroke-linejoin="round" stroke-width="2.0"/>
    <path d="M-3.45 -2.1 Q-4.85 -1.9 -5.65 -0.9 -6.25 -0.2 -6.25 0.6 L-6.15 1.15 Q-5.9 2.0 -5.15 2.55 L-5.25 3.25 Q-5.1 3.85 -4.45 4.15 L-3.1 4.35 -2.5 4.25 -2.0 4.65 -0.95 4.9 -0.45 4.9 Q0.45 4.75 1.0 4.25 L1.0 4.2 1.2 4.3 3.15 4.65 Q4.25 4.45 5.05 3.8 L5.85 2.65 5.9 2.45 5.95 2.2 5.9 1.55 6.2 0.8 6.25 0.6 Q6.3 -0.2 5.55 -0.7 5.35 -0.9 5.0 -0.95 L5.05 -1.0 Q5.05 -1.85 4.35 -2.3 3.6 -2.85 2.55 -2.65 L2.35 -2.6 2.05 -2.8 0.8 -3.25 0.6 -3.25 0.55 -3.25 0.0 -3.2 Q-1.2 -3.0 -1.95 -2.2 L-2.0 -2.05 -3.45 -2.1" fill="#669816" fill-rule="evenodd" stroke="none"/>
    <path d="M-2.4 3.25 L-2.4 3.1 -2.5 3.2 -2.65 3.4 -2.5 3.6 -2.25 3.7 -2.25 3.75 -2.0 4.2 -1.45 4.4 -1.15 4.5 -0.75 4.4 -0.6 4.1 -0.2 4.2 0.1 4.2 0.25 4.3 0.75 4.45 1.25 4.3 1.45 3.9 1.45 3.75 1.55 3.75 2.05 3.6 2.25 3.25 2.05 2.9 Q1.85 2.75 1.65 2.75 L1.7 2.8 1.9 3.1 1.7 3.4 1.3 3.55 1.2 3.5 1.2 3.65 1.0 3.95 0.55 4.1 0.1 3.95 0.0 3.9 -0.25 3.9 -0.65 3.85 -0.75 4.05 -1.1 4.15 -1.4 4.1 -1.85 3.9 -2.05 3.55 -2.05 3.5 -2.3 3.4 -2.4 3.25" fill="#4c730d" fill-rule="evenodd" stroke="none"/>
    <path d="M2.05 -2.9 L1.5 -3.3 0.4 -3.5 -0.05 -3.45 Q-0.85 -3.35 -1.35 -2.8 L-1.5 -2.85 -3.4 -3.1 Q-4.4 -2.9 -4.95 -2.25 L-5.4 -1.25 -5.35 -0.8 -5.1 -0.3 -5.2 0.5 Q-5.05 1.1 -4.35 1.5 L-3.9 1.65 -3.85 1.7 Q-3.7 2.3 -3.1 2.6 L-1.7 2.8 -1.55 2.75 -1.3 2.9 -0.15 3.2 0.35 3.15 Q1.25 3.0 1.8 2.45 L1.9 2.35 3.05 2.35 Q4.2 2.2 4.85 1.5 5.4 0.9 5.45 0.3 L5.4 -0.2 Q5.25 -0.9 4.55 -1.35 L4.65 -2.05 3.9 -2.85 2.6 -3.1 2.05 -2.9" fill="#7cb421" fill-rule="evenodd" stroke="none"/>
    <path d="M2.5 -3.9 L2.1 -3.85 1.8 -4.25 1.1 -4.55 0.8 -4.65 Q0.2 -4.7 -0.3 -4.35 L-0.35 -4.35 -0.4 -4.45 Q-0.95 -4.9 -1.7 -4.9 L-3.05 -4.6 -3.65 -3.95 -3.75 -3.6 -3.7 -3.15 -4.1 -2.6 -3.75 -1.65 -3.4 -1.5 -3.4 -1.4 Q-3.45 -0.9 -3.1 -0.5 -2.7 -0.15 -2.05 -0.1 L-1.9 -0.1 -1.8 0.1 -1.0 0.5 -0.6 0.55 0.7 0.25 0.75 0.15 1.6 0.35 Q2.55 0.4 3.2 -0.05 3.7 -0.4 3.85 -0.85 L3.9 -1.25 Q3.95 -1.85 3.55 -2.3 L3.75 -2.75 3.4 -3.5 Q3.05 -3.8 2.5 -3.9" fill="#9dd700" fill-rule="evenodd" stroke="none"/>
    <path d="M4.55 -0.1 L4.4 -0.4 3.95 -0.5 4.05 -0.45 4.2 -0.2 4.05 0.05 4.15 0.15 4.35 0.5 4.15 0.85 3.7 1.0 3.55 1.0 3.6 1.1 3.4 1.5 2.85 1.65 2.35 1.5 2.15 1.2 1.8 1.05 1.6 0.75 1.55 0.95 1.8 1.35 2.2 1.5 2.45 1.85 Q2.65 2.05 3.0 2.05 L3.6 1.85 3.85 1.4 3.8 1.25 3.95 1.3 4.5 1.1 4.75 0.7 4.5 0.3 4.4 0.2 4.55 -0.1" fill="#9dd700" fill-rule="evenodd" stroke="none"/>
    <path d="M-4.85 -0.55 L-4.75 -0.75 -4.45 -0.85 -4.55 -0.8 -4.65 -0.65 -4.55 -0.45 -4.6 -0.4 -4.75 -0.15 -4.6 0.1 -4.3 0.2 -4.2 0.15 -4.2 0.25 -4.05 0.5 -3.7 0.65 -3.35 0.5 -3.2 0.3 -3.0 0.2 -2.85 0.0 -2.85 0.15 -3.0 0.4 -3.25 0.5 -3.4 0.75 -3.8 0.9 -4.2 0.75 -4.4 0.45 -4.35 0.35 -4.45 0.35 -4.85 0.25 -5.0 0.0 -4.85 -0.3 -4.75 -0.35 -4.85 -0.55" fill="#9dd700" fill-rule="evenodd" stroke="none"/>
    <path d="M0.9 -3.6 L1.35 -3.45 1.55 -3.05 1.5 -2.85 1.8 -2.7 2.05 -2.25 1.8 -1.75 1.2 -1.55 0.85 -1.6 0.85 -1.55 0.65 -1.15 0.15 -1.0 -0.2 -1.05 -0.45 -1.0 -0.9 -1.15 -1.05 -1.45 -1.05 -1.55 -1.35 -1.7 -1.55 -2.0 -1.55 -2.05 -1.65 -1.8 -1.4 -1.4 -1.05 -1.25 -1.05 -1.15 -0.85 -0.75 -0.35 -0.6 -0.05 -0.65 0.35 -0.6 0.95 -0.8 1.2 -1.25 1.2 -1.3 1.55 -1.25 Q2.0 -1.25 2.3 -1.5 2.6 -1.7 2.6 -2.05 L2.3 -2.6 1.95 -2.75 2.0 -3.0 1.75 -3.45 1.2 -3.65 0.9 -3.6" fill="#aeee02" fill-rule="evenodd" stroke="none"/>
  </g>
</svg>
