<?xml version="1.0" encoding="UTF-8" standalone="no"?>
<svg xmlns:xlink="http://www.w3.org/1999/xlink" height="45.35px" width="345.0px" xmlns="http://www.w3.org/2000/svg">
  <g transform="matrix(1.0, 0.0, 0.0, 1.0, -70.3, -7.0)">
    <path d="M405.0 10.7 L406.45 11.8 Q409.2 13.5 412.25 13.8 L412.25 27.95 412.2 28.0 Q410.95 28.8 410.95 30.15 410.95 31.5 411.65 33.4 L412.25 34.55 412.25 39.05 Q411.25 40.1 411.25 42.25 L411.4 42.95 410.6 45.6 408.1 45.35 Q406.15 45.4 404.85 46.25 403.9 46.8 403.5 47.65 L398.8 47.15 390.15 47.45 Q387.75 47.8 386.85 48.65 L338.1 48.65 Q337.15 48.15 335.7 47.75 L285.55 47.7 268.95 48.65 241.75 48.65 237.6 48.3 226.5 47.55 Q219.35 47.8 214.85 47.55 212.5 47.65 211.25 48.65 L182.8 48.65 Q182.15 48.2 181.35 47.9 L178.45 47.35 168.4 47.9 162.45 47.8 161.05 47.8 Q157.0 48.15 155.0 48.65 L126.8 48.65 Q125.9 47.95 124.0 47.6 L115.6 47.55 112.4 47.5 99.5 48.65 99.3 48.65 93.3 48.4 87.25 48.15 82.45 48.65 75.1 48.65 Q74.85 46.7 73.6 45.0 L72.35 43.65 72.35 42.05 Q72.95 41.5 73.15 40.6 L73.25 37.55 Q73.25 35.6 72.7 33.8 L72.35 31.75 72.35 24.65 Q72.95 24.0 72.95 23.3 L72.5 17.55 72.35 16.15 72.35 15.5 72.5 15.4 72.5 15.15 Q72.5 14.25 73.25 13.8 L73.95 13.5 74.85 12.5 76.05 11.3 78.75 11.2 78.9 11.2 80.45 10.7 84.65 10.7 90.35 10.5 110.9 10.45 117.75 10.4 174.3 10.4 176.85 10.65 177.0 10.7 219.95 10.7 220.35 11.0 220.65 11.15 244.75 11.15 255.5 11.7 256.45 11.7 256.9 11.3 261.9 11.6 274.15 10.7 310.8 10.7 314.9 11.35 321.1 11.4 337.95 11.15 338.3 11.1 350.7 11.1 351.25 11.3 351.85 11.15 362.55 11.1 364.0 10.7 405.0 10.7" fill="#000000" fill-opacity="0.4" fill-rule="evenodd" stroke="none"/>
    <path d="M406.65 9.75 L408.1 10.85 Q410.7 12.55 413.85 12.9 L413.85 27.05 Q412.45 27.85 412.45 29.2 412.45 30.6 413.25 32.45 L413.85 33.6 413.85 38.1 Q412.9 39.2 412.9 41.3 L412.9 42.05 412.15 44.65 409.7 44.4 Q407.75 44.4 406.4 45.35 405.45 45.85 405.2 46.7 L400.4 46.25 391.7 46.5 Q389.3 46.9 388.45 47.7 L339.6 47.7 Q338.75 47.2 337.3 46.8 L287.2 46.75 270.55 47.7 243.35 47.7 239.2 47.4 228.05 46.6 Q220.95 46.9 216.4 46.65 214.0 46.7 212.8 47.7 L184.4 47.7 182.95 46.95 180.1 46.4 170.0 46.95 164.05 46.9 162.65 46.9 156.6 47.7 128.35 47.7 Q127.5 47.0 125.6 46.7 L117.25 46.65 113.95 46.55 101.0 47.7 100.95 47.7 94.9 47.45 88.85 47.2 84.05 47.7 76.7 47.7 Q76.4 45.7 75.2 44.05 L73.95 42.7 73.95 41.05 Q74.5 40.55 74.75 39.65 L74.8 36.6 Q74.8 34.65 74.4 32.9 L73.95 30.8 73.95 23.75 Q74.45 23.1 74.45 22.35 L74.1 16.55 73.95 15.2 73.95 14.55 74.1 14.45 74.1 14.2 Q74.1 13.35 74.8 12.85 L75.55 12.55 76.5 11.55 77.6 10.4 80.35 10.25 80.5 10.25 82.0 9.75 86.25 9.75 91.9 9.55 112.45 9.55 119.3 9.45 175.95 9.45 178.45 9.7 178.6 9.75 221.5 9.75 221.9 10.1 222.25 10.2 246.25 10.2 257.0 10.75 257.95 10.75 258.4 10.4 263.45 10.65 275.8 9.75 312.4 9.75 316.5 10.4 322.65 10.45 339.45 10.2 339.9 10.15 352.3 10.15 352.85 10.35 353.45 10.2 364.2 10.15 Q365.0 10.05 365.5 9.75 L406.65 9.75" fill="#97d82c" fill-rule="evenodd" stroke="none"/>
    <path d="M414.65 14.55 L414.75 15.1 413.4 15.95 411.8 16.7 411.3 16.6 411.05 16.45 410.95 16.1 Q410.95 15.65 412.4 15.05 413.8 14.35 414.55 14.4 L414.65 14.55 M415.05 23.1 Q415.05 23.4 414.25 23.55 L411.2 24.1 Q411.0 24.05 411.0 23.4 411.0 23.0 412.15 22.65 L414.95 22.55 415.0 22.65 415.05 23.1 M414.6 37.45 L412.3 37.45 410.95 36.7 411.2 35.95 414.6 36.1 415.3 36.75 414.6 37.45 M401.4 7.7 Q402.3 6.8 402.3 8.45 L402.0 10.05 Q401.7 11.3 401.25 11.3 400.6 11.3 400.45 10.6 L400.45 9.8 Q400.45 8.65 401.4 7.7 M382.8 47.1 L383.2 50.65 382.75 50.9 382.4 50.75 382.3 50.2 382.5 47.1 382.8 47.1 M396.45 45.9 L396.85 45.75 397.8 47.5 398.35 49.3 398.3 49.85 Q398.3 50.15 397.6 50.15 397.05 50.15 396.6 48.35 L396.3 46.45 Q396.3 46.05 396.45 45.9 M326.85 12.35 L326.8 12.85 326.6 13.1 326.1 13.2 Q325.5 13.2 325.4 12.7 L325.4 12.25 325.55 10.3 Q325.8 8.8 326.1 8.55 326.4 8.75 326.65 10.3 L326.85 12.35 M333.85 12.35 L333.8 12.85 333.6 13.1 333.1 13.2 Q332.5 13.2 332.4 12.7 L332.4 12.25 332.55 10.3 Q332.8 8.8 333.1 8.55 333.4 8.75 333.65 10.3 L333.85 12.35 M249.65 10.3 L249.85 12.35 249.8 12.85 249.6 13.1 249.1 13.2 Q248.5 13.2 248.4 12.7 L248.4 12.25 248.55 10.3 Q248.8 8.8 249.1 8.55 249.4 8.75 249.65 10.3 M271.9 47.35 Q271.9 46.6 272.55 46.2 272.9 46.4 273.3 47.7 L273.7 49.25 273.65 49.9 273.55 50.0 273.05 50.1 Q272.5 50.1 272.15 48.75 L271.9 47.35 M210.05 48.9 L210.15 51.55 210.15 51.9 209.9 52.15 209.25 52.35 Q208.4 52.35 208.05 49.95 L207.85 47.55 207.95 46.4 Q209.6 46.35 210.05 48.9 M219.3 47.75 L219.7 49.85 219.7 50.5 Q219.7 50.8 219.0 50.8 218.2 50.8 218.05 49.5 L218.05 48.15 Q218.05 46.6 218.75 46.05 L219.3 47.75 M186.65 10.3 L186.85 12.35 186.8 12.85 186.6 13.1 186.1 13.2 Q185.5 13.2 185.4 12.7 L185.4 12.25 185.55 10.3 Q185.8 8.8 186.1 8.55 186.4 8.75 186.65 10.3 M125.55 11.05 L125.0 11.55 Q124.15 10.85 124.15 9.85 124.15 8.1 124.75 7.55 125.3 8.05 125.5 9.2 L125.55 11.05 M158.95 46.4 Q160.6 46.35 161.05 48.9 L161.15 51.55 161.15 51.9 160.9 52.15 160.25 52.35 Q159.4 52.35 159.05 49.95 L158.85 47.55 158.95 46.4 M90.0 9.55 Q89.8 10.75 89.2 11.2 88.7 10.75 88.5 9.5 L88.35 8.3 88.5 7.1 Q89.65 6.8 89.95 7.25 L90.0 8.35 90.0 9.55 M90.85 48.15 L92.25 51.35 91.95 51.75 91.25 51.95 Q90.5 51.95 90.0 50.35 L89.7 48.85 Q89.7 45.95 90.85 48.15 M105.45 47.45 Q105.55 46.0 106.2 45.5 106.95 45.75 106.95 49.0 L106.9 49.75 Q106.75 50.3 106.2 50.35 105.45 49.75 105.45 49.1 L105.45 47.45 M76.2 17.7 L75.95 18.0 75.4 18.25 73.55 17.95 Q72.05 17.6 71.7 17.15 72.45 16.3 74.05 16.4 75.75 16.5 76.2 17.7 M75.95 25.5 Q75.95 26.4 74.45 26.4 L72.45 26.25 70.3 25.85 Q71.55 24.85 73.6 24.8 L75.75 25.0 75.85 25.1 75.95 25.5 M70.95 41.6 Q70.8 41.5 70.8 41.15 70.8 40.95 73.1 40.2 75.5 39.4 76.1 39.5 L76.2 39.7 76.25 40.2 Q76.25 41.3 72.05 41.8 L71.0 41.7 70.95 41.6" fill="#638d1b" fill-rule="evenodd" stroke="none"/>
  </g>
</svg>
