<?xml version="1.0" encoding="UTF-8" standalone="no"?>
<svg xmlns:xlink="http://www.w3.org/1999/xlink" height="38.4px" width="28.75px" xmlns="http://www.w3.org/2000/svg">
  <g transform="matrix(1.0, 0.0, 0.0, 1.0, 12.5, 19.15)">
    <path d="M8.25 -17.75 Q11.75 -16.8 13.65 -14.35 15.65 -12.1 15.15 -9.65 L15.2 -9.65 5.7 13.65 5.6 14.0 Q4.9 16.5 1.9 17.6 L-4.45 17.8 Q-7.95 16.9 -10.0 14.45 -12.0 12.05 -11.3 9.55 L-10.7 8.2 -10.75 8.15 -1.85 -13.6 -1.8 -13.85 -1.15 -15.3 -0.8 -16.2 -0.55 -16.1 1.75 -17.5 8.25 -17.75" fill="#7cb421" fill-rule="evenodd" stroke="none"/>
    <path d="M8.25 -17.75 Q11.75 -16.8 13.65 -14.35 15.65 -12.1 15.15 -9.65 L15.2 -9.65 5.7 13.65 5.6 14.0 Q4.9 16.5 1.9 17.6 L-4.45 17.8 Q-7.95 16.9 -10.0 14.45 -12.0 12.05 -11.3 9.55 L-10.7 8.2 -10.75 8.15 -1.85 -13.6 -1.8 -13.85 -1.15 -15.3 -0.8 -16.2 -0.55 -16.1 1.75 -17.5 8.25 -17.75 Z" fill="none" stroke="#416409" stroke-linecap="round" stroke-linejoin="round" stroke-width="2.0"/>
    <path d="M15.2 -9.65 L5.7 13.65 5.6 14.0 Q4.9 16.5 1.9 17.6 L-4.45 17.8 Q-7.95 16.9 -10.0 14.45 -12.0 12.05 -11.3 9.55 L-10.7 8.2 -10.75 8.15 -0.8 -16.2 15.2 -9.65" fill="#7cb421" fill-rule="evenodd" stroke="none"/>
    <path d="M11.45 -0.4 Q10.8 0.55 9.3 1.2 L2.3 1.0 Q-2.55 -0.75 -4.05 -3.9 -4.8 -5.4 -4.6 -7.0 L-2.85 -11.45 Q-3.05 -9.8 -2.3 -7.9 -0.8 -4.1 3.9 -2.95 8.6 -1.8 11.7 -3.8 13.2 -4.75 13.8 -6.0 L11.45 -0.4 M6.65 7.5 L-0.45 7.3 Q-5.3 5.55 -6.85 2.6 -7.55 1.2 -7.4 -0.3 L-5.55 -4.65 Q-5.75 -3.1 -5.05 -1.35 -3.55 2.2 1.15 3.35 5.85 4.5 8.7 3.25 10.1 2.6 10.55 1.75 L8.9 5.9 Q8.2 6.85 6.65 7.5" fill="#ffcc00" fill-rule="evenodd" stroke="none"/>
    <path d="M2.7 -7.9 L3.15 -7.35 3.35 -7.45 Q4.55 -6.6 3.65 -4.95 L2.95 -3.6 0.35 3.15 Q-0.9 6.5 -2.65 9.6 L-4.65 13.4 -5.65 15.05 -5.95 15.95 Q-6.15 16.65 -6.7 16.35 L-6.6 15.55 -6.35 15.0 -5.65 13.55 -5.25 12.95 -5.0 12.55 Q-4.4 9.85 -3.3 7.3 L-1.2 1.6 0.65 -4.1 Q1.2 -5.9 2.15 -7.55 L2.7 -7.9" fill="#ffffff" fill-opacity="0.4" fill-rule="evenodd" stroke="none"/>
    <path d="M15.1 -9.4 Q14.4 -6.9 11.4 -5.8 L5.05 -5.6 Q1.55 -6.5 -0.5 -8.95 -2.5 -11.35 -1.8 -13.85 -1.15 -16.4 1.75 -17.5 L8.25 -17.75 Q11.75 -16.8 13.65 -14.35 15.75 -11.95 15.1 -9.4" fill="#9cda34" fill-rule="evenodd" stroke="none"/>
    <path d="M13.1 -10.1 Q12.65 -8.25 10.45 -7.45 L5.75 -7.3 Q3.2 -7.95 1.7 -9.75 0.3 -11.5 0.75 -13.35 1.25 -15.2 3.35 -16.05 L8.05 -16.2 Q10.65 -15.5 12.1 -13.75 13.6 -11.95 13.1 -10.1" fill="#416409" fill-rule="evenodd" stroke="none"/>
  </g>
</svg>
