<?xml version="1.0" encoding="UTF-8" standalone="no"?>
<svg xmlns:xlink="http://www.w3.org/1999/xlink" height="43.35px" width="31.6px" xmlns="http://www.w3.org/2000/svg">
  <g transform="matrix(1.0, 0.0, 0.0, 1.0, 18.7, 22.85)">
    <path d="M11.85 -15.65 L11.9 -15.6 11.05 11.9 11.1 12.35 Q11.45 15.2 7.4 17.3 3.8 19.4 -2.3 19.5 -8.2 19.65 -12.8 17.75 -17.35 15.85 -17.65 13.05 -17.8 12.2 -17.55 11.45 L-17.65 11.45 -17.05 -14.2 -17.0 -14.45 Q-17.25 -15.45 -17.0 -16.2 L-16.85 -17.25 -16.45 -17.25 Q-15.7 -18.5 -13.7 -19.45 -9.85 -21.7 -3.8 -21.85 2.25 -22.0 6.65 -20.05 11.05 -18.4 11.85 -15.65" fill="#7cb421" fill-rule="evenodd" stroke="none"/>
    <path d="M11.85 -15.65 L11.9 -15.6 11.05 11.9 11.1 12.35 Q11.45 15.2 7.4 17.3 3.8 19.4 -2.3 19.5 -8.2 19.65 -12.8 17.75 -17.35 15.85 -17.65 13.05 -17.8 12.2 -17.55 11.45 L-17.65 11.45 -17.05 -14.2 -17.0 -14.45 Q-17.25 -15.45 -17.0 -16.2 L-16.85 -17.25 -16.45 -17.25 Q-15.7 -18.5 -13.7 -19.45 -9.85 -21.7 -3.8 -21.85 2.25 -22.0 6.65 -20.05 11.05 -18.4 11.85 -15.65 Z" fill="none" stroke="#856301" stroke-linecap="round" stroke-linejoin="round" stroke-width="2.0"/>
    <path d="M7.4 17.3 Q3.8 19.4 -2.3 19.5 -8.2 19.65 -12.8 17.75 -17.35 15.85 -17.65 13.05 -17.8 12.2 -17.55 11.45 L-17.65 11.45 -16.85 -17.25 11.9 -15.6 11.05 11.9 11.1 12.35 Q11.45 15.2 7.4 17.3" fill="#ffcc33" fill-rule="evenodd" stroke="none"/>
    <path d="M11.95 -11.2 L11.95 -4.65 Q11.4 -3.45 9.4 -2.2 5.45 0.05 -1.7 -0.1 -10.35 -0.45 -14.5 -3.2 -16.6 -4.6 -17.2 -6.3 L-17.15 -11.5 Q-16.45 -9.7 -14.15 -7.95 -9.6 -4.45 -1.55 -4.85 6.35 -5.15 10.05 -8.2 11.75 -9.7 11.95 -11.2" fill="#7cb421" fill-rule="evenodd" stroke="none"/>
    <path d="M5.05 7.9 L5.05 8.4 -0.2 8.45 -0.15 7.9 Q-0.15 6.75 -0.95 6.0 -1.3 5.65 -1.7 5.5 L1.45 1.35 2.8 2.4 Q5.05 4.65 5.05 7.9 M-4.65 6.0 Q-5.4 6.75 -5.4 7.9 L-5.4 8.45 -10.45 8.4 -10.5 7.9 Q-10.5 4.65 -8.2 2.4 L-7.0 1.45 -3.85 5.45 Q-4.3 5.65 -4.65 6.0 M-0.95 7.9 Q-0.95 8.65 -1.5 9.2 -2.05 9.75 -2.8 9.75 -3.55 9.75 -4.1 9.2 -4.6 8.65 -4.6 7.9 -4.6 7.15 -4.1 6.6 -3.55 6.1 -2.8 6.1 -2.05 6.1 -1.5 6.6 -0.95 7.15 -0.95 7.9 M-4.55 9.9 Q-3.8 10.55 -2.8 10.55 -1.75 10.55 -1.05 9.9 L1.55 14.4 Q-0.3 15.65 -2.7 15.65 -5.2 15.65 -7.1 14.35 L-4.55 9.9" fill="#856301" fill-rule="evenodd" stroke="none"/>
    <path d="M4.4 18.6 Q1.55 19.45 -2.3 19.5 L-3.65 19.5 -3.65 -16.5 4.4 -16.0 4.4 18.6" fill="#ffffff" fill-opacity="0.6" fill-rule="evenodd" stroke="none"/>
    <path d="M8.35 -10.35 Q4.5 -8.2 -1.45 -8.1 -7.5 -7.85 -12.1 -9.8 -16.65 -11.65 -17.0 -14.45 -17.55 -17.3 -13.7 -19.45 -9.85 -21.7 -3.8 -21.85 2.25 -22.0 6.65 -20.05 11.4 -18.25 11.95 -15.35 12.25 -12.5 8.35 -10.35" fill="#ffdf80" fill-rule="evenodd" stroke="none"/>
    <path d="M5.85 -11.8 Q3.05 -10.15 -1.45 -10.05 -5.8 -9.95 -9.15 -11.25 -12.4 -12.75 -12.85 -14.75 -13.15 -16.9 -10.35 -18.5 -7.5 -20.05 -3.2 -20.2 1.3 -20.3 4.6 -18.95 7.95 -17.55 8.35 -15.45 8.75 -13.35 5.85 -11.8" fill="#856301" fill-rule="evenodd" stroke="none"/>
  </g>
</svg>
