<?xml version="1.0" encoding="UTF-8" standalone="no"?>
<svg xmlns:xlink="http://www.w3.org/1999/xlink" height="52.55px" width="54.05px" xmlns="http://www.w3.org/2000/svg">
  <g transform="matrix(1.0, 0.0, 0.0, 1.0, -4.9, -1.0)">
    <path d="M42.75 30.05 Q43.85 30.3 44.75 31.85 45.8 33.75 45.95 36.4 46.1 39.05 45.25 40.85 L44.3 42.2 44.25 42.2 Q42.15 43.05 39.3 42.75 L38.6 42.55 Q37.6 42.2 36.8 40.75 35.7 38.9 35.55 36.25 35.4 33.6 36.3 31.8 36.85 30.6 37.7 30.25 L42.75 30.05" fill="#47566b" fill-rule="evenodd" stroke="none"/>
    <path d="M42.75 30.05 L37.7 30.25 Q36.85 30.6 36.3 31.8 35.4 33.6 35.55 36.25 35.7 38.9 36.8 40.75 37.6 42.2 38.6 42.55 L39.3 42.75 Q42.15 43.05 44.25 42.2 L44.3 42.2 45.25 40.85 Q46.1 39.05 45.95 36.4 45.8 33.75 44.75 31.85 43.85 30.3 42.75 30.05 Z" fill="none" stroke="#27313f" stroke-linecap="round" stroke-linejoin="round" stroke-width="3.0"/>
    <path d="M39.3 42.75 Q40.85 42.15 41.2 41.7 L41.35 41.4 41.55 40.95 Q42.45 39.2 42.3 36.55 42.15 33.9 41.05 32.0 L40.75 31.6 40.35 30.95 Q39.75 30.35 37.7 30.25 L42.75 30.05 Q43.85 30.3 44.75 31.85 45.8 33.75 45.95 36.4 46.1 39.05 45.25 40.85 L44.3 42.2 44.25 42.2 Q42.15 43.05 39.3 42.75" fill="#344050" fill-rule="evenodd" stroke="none"/>
    <path d="M37.7 30.25 Q39.75 30.35 40.35 30.95 L40.75 31.6 41.05 32.0 Q42.15 33.9 42.3 36.55 42.45 39.2 41.55 40.95 L41.35 41.4 41.2 41.7 Q40.85 42.15 39.3 42.75 L38.6 42.55 Q37.6 42.2 36.8 40.75 35.7 38.9 35.55 36.25 35.4 33.6 36.3 31.8 36.85 30.6 37.7 30.25" fill="#47566b" fill-rule="evenodd" stroke="none"/>
    <path d="M54.25 35.15 Q55.35 35.4 56.25 36.95 57.3 38.85 57.45 41.5 57.6 44.15 56.75 45.95 L55.8 47.3 55.75 47.3 Q53.65 48.15 50.8 47.85 L50.1 47.65 Q49.1 47.3 48.3 45.85 47.2 44.0 47.05 41.35 46.9 38.7 47.8 36.9 48.35 35.7 49.2 35.35 L54.25 35.15" fill="#47566b" fill-rule="evenodd" stroke="none"/>
    <path d="M54.25 35.15 L49.2 35.35 Q48.35 35.7 47.8 36.9 46.9 38.7 47.05 41.35 47.2 44.0 48.3 45.85 49.1 47.3 50.1 47.65 L50.8 47.85 Q53.65 48.15 55.75 47.3 L55.8 47.3 56.75 45.95 Q57.6 44.15 57.45 41.5 57.3 38.85 56.25 36.95 55.35 35.4 54.25 35.15 Z" fill="none" stroke="#27313f" stroke-linecap="round" stroke-linejoin="round" stroke-width="3.0"/>
    <path d="M49.2 35.35 L54.25 35.15 Q55.35 35.4 56.25 36.95 57.3 38.85 57.45 41.5 57.6 44.15 56.75 45.95 L55.8 47.3 55.75 47.3 Q53.65 48.15 50.8 47.85 52.35 47.25 52.7 46.8 L52.85 46.5 53.05 46.05 Q53.95 44.3 53.8 41.65 53.65 39.0 52.55 37.1 L52.25 36.7 51.85 36.05 Q51.25 35.45 49.2 35.35" fill="#344050" fill-rule="evenodd" stroke="none"/>
    <path d="M49.2 35.35 Q51.25 35.45 51.85 36.05 L52.25 36.7 52.55 37.1 Q53.65 39.0 53.8 41.65 53.95 44.3 53.05 46.05 L52.85 46.5 52.7 46.8 Q52.35 47.25 50.8 47.85 L50.1 47.65 Q49.1 47.3 48.3 45.85 47.2 44.0 47.05 41.35 46.9 38.7 47.8 36.9 48.35 35.7 49.2 35.35" fill="#47566b" fill-rule="evenodd" stroke="none"/>
    <path d="M8.8 29.6 L35.35 27.75 57.1 33.65 56.1 45.6 32.65 49.6 11.45 40.7 8.8 29.6" fill="#339fff" fill-rule="evenodd" stroke="none"/>
    <path d="M8.8 29.6 L11.45 40.7 32.65 49.6 56.1 45.6 57.1 33.65 35.35 27.75 8.8 29.6 Z" fill="none" stroke="#23608e" stroke-linecap="round" stroke-linejoin="round" stroke-width="3.0"/>
    <path d="M30.05 36.65 L32.1 49.05 10.9 40.1 8.25 29.05 30.05 36.65" fill="#1f64a3" fill-rule="evenodd" stroke="none"/>
    <path d="M45.4 30.8 L39.55 29.0 35.15 27.75 30.45 28.1 26.2 28.45 23.25 28.75 22.85 28.75 14.9 29.35 12.4 29.6 17.85 31.55 26.7 34.7 30.05 36.0 34.1 35.45 40.25 34.55 42.4 34.35 51.65 33.05 52.5 32.9 45.4 30.8 M56.55 33.1 L30.05 36.65 8.25 29.05 34.8 27.15 56.55 33.1" fill="#339fff" fill-rule="evenodd" stroke="none"/>
    <path d="M32.1 49.05 L30.05 36.65 56.55 33.1 55.6 45.0 32.1 49.05" fill="#2579c4" fill-rule="evenodd" stroke="none"/>
    <path d="M39.55 29.0 L45.4 30.8 28.3 29.2 26.2 28.45 30.45 28.1 39.55 29.0 M51.65 33.05 L42.4 34.35 34.0 31.3 51.65 33.05 M34.1 35.45 L30.05 36.0 26.7 34.7 34.1 35.45 M17.85 31.55 L12.4 29.6 14.9 29.35 30.0 30.85 38.55 34.0 17.85 31.55" fill="#ffcc33" fill-rule="evenodd" stroke="none"/>
    <path d="M45.4 30.8 L52.5 32.9 51.65 33.05 34.0 31.3 28.3 29.2 45.4 30.8 M40.25 34.55 L34.1 35.45 26.7 34.7 17.85 31.55 38.55 34.0 40.25 34.55 M14.9 29.35 L22.85 28.75 23.25 28.75 24.45 28.85 30.0 30.85 14.9 29.35 M30.45 28.1 L35.15 27.75 39.55 29.0 30.45 28.1" fill="#434343" fill-rule="evenodd" stroke="none"/>
    <path d="M42.4 34.35 L40.25 34.55 38.55 34.0 30.0 30.85 24.45 28.85 23.25 28.75 26.2 28.45 28.3 29.2 34.0 31.3 42.4 34.35" fill="#1c1c1c" fill-rule="evenodd" stroke="none"/>
    <path d="M13.35 34.85 Q14.5 35.1 15.45 36.65 16.6 38.6 16.85 41.2 17.15 43.85 16.35 45.65 L15.45 47.0 15.4 47.0 Q13.35 47.85 10.5 47.55 L9.8 47.4 Q8.8 47.0 7.95 45.55 6.75 43.7 6.45 41.05 6.2 38.45 7.0 36.6 7.55 35.4 8.35 35.05 L13.35 34.85" fill="#47566b" fill-rule="evenodd" stroke="none"/>
    <path d="M13.35 34.85 L8.35 35.05 Q7.55 35.4 7.0 36.6 6.2 38.45 6.45 41.05 6.75 43.7 7.95 45.55 8.8 47.0 9.8 47.4 L10.5 47.55 Q13.35 47.85 15.4 47.0 L15.45 47.0 16.35 45.65 Q17.15 43.85 16.85 41.2 16.6 38.6 15.45 36.65 14.5 35.1 13.35 34.85 Z" fill="none" stroke="#27313f" stroke-linecap="round" stroke-linejoin="round" stroke-width="3.0"/>
    <path d="M8.35 35.05 L13.35 34.85 Q14.5 35.1 15.45 36.65 16.6 38.6 16.85 41.2 17.15 43.85 16.35 45.65 L15.45 47.0 15.4 47.0 Q13.35 47.85 10.5 47.55 L12.35 46.5 12.5 46.2 12.7 45.8 Q13.5 44.0 13.25 41.35 12.95 38.7 11.8 36.8 L11.5 36.4 11.0 35.8 Q10.4 35.15 8.35 35.05" fill="#344050" fill-rule="evenodd" stroke="none"/>
    <path d="M8.35 35.05 Q10.4 35.15 11.0 35.8 L11.5 36.4 11.8 36.8 Q12.95 38.7 13.25 41.35 13.5 44.0 12.7 45.8 L12.5 46.2 12.35 46.5 10.5 47.55 9.8 47.4 Q8.8 47.0 7.95 45.55 6.75 43.7 6.45 41.05 6.2 38.45 7.0 36.6 7.55 35.4 8.35 35.05" fill="#47566b" fill-rule="evenodd" stroke="none"/>
    <path d="M25.35 39.25 Q26.5 39.5 27.45 41.05 28.6 43.0 28.85 45.6 29.15 48.25 28.35 50.05 L27.45 51.4 27.4 51.4 Q25.35 52.25 22.5 51.95 L21.8 51.8 Q20.8 51.4 19.95 49.95 18.75 48.1 18.45 45.45 18.2 42.85 19.0 41.0 19.55 39.8 20.35 39.45 L25.35 39.25" fill="#47566b" fill-rule="evenodd" stroke="none"/>
    <path d="M25.35 39.25 L20.35 39.45 Q19.55 39.8 19.0 41.0 18.2 42.85 18.45 45.45 18.75 48.1 19.95 49.95 20.8 51.4 21.8 51.8 L22.5 51.95 Q25.35 52.25 27.4 51.4 L27.45 51.4 28.35 50.05 Q29.15 48.25 28.85 45.6 28.6 43.0 27.45 41.05 26.5 39.5 25.35 39.25 Z" fill="none" stroke="#27313f" stroke-linecap="round" stroke-linejoin="round" stroke-width="3.0"/>
    <path d="M22.5 51.95 Q24.0 51.35 24.35 50.9 L24.5 50.6 24.7 50.2 Q25.5 48.4 25.25 45.75 24.95 43.1 23.8 41.2 L23.5 40.8 23.0 40.2 Q22.4 39.55 20.35 39.45 L25.35 39.25 Q26.5 39.5 27.45 41.05 28.6 43.0 28.85 45.6 29.15 48.25 28.35 50.05 L27.45 51.4 27.4 51.4 Q25.35 52.25 22.5 51.95" fill="#344050" fill-rule="evenodd" stroke="none"/>
    <path d="M20.35 39.45 Q22.4 39.55 23.0 40.2 L23.5 40.8 23.8 41.2 Q24.95 43.1 25.25 45.75 25.5 48.4 24.7 50.2 L24.5 50.6 24.35 50.9 Q24.0 51.35 22.5 51.95 L21.8 51.8 Q20.8 51.4 19.95 49.95 18.75 48.1 18.45 45.45 18.2 42.85 19.0 41.0 19.55 39.8 20.35 39.45" fill="#47566b" fill-rule="evenodd" stroke="none"/>
    <path d="M34.45 26.7 L34.2 5.25" fill="none" stroke="#27313f" stroke-linecap="round" stroke-linejoin="round" stroke-width="1.0"/>
    <path d="M35.75 5.75 Q35.15 6.35 34.3 6.35 33.4 6.35 32.65 5.7 32.0 5.05 31.95 4.15 31.9 3.3 32.45 2.6 33.1 2.0 34.0 2.0 34.85 2.0 35.55 2.65 36.25 3.35 36.3 4.2 36.35 5.1 35.75 5.75" fill="#8c8c8c" fill-rule="evenodd" stroke="none"/>
    <path d="M35.75 5.75 Q35.15 6.35 34.3 6.35 33.4 6.35 32.65 5.7 32.0 5.05 31.95 4.15 31.9 3.3 32.45 2.6 33.1 2.0 34.0 2.0 34.85 2.0 35.55 2.65 36.25 3.35 36.3 4.2 36.35 5.1 35.75 5.75 Z" fill="none" stroke="#8c8c8c" stroke-linecap="round" stroke-linejoin="round" stroke-width="2.0"/>
    <path d="M35.85 4.3 Q35.9 5.2 35.35 5.8 34.75 6.45 33.9 6.45 32.95 6.4 32.25 5.75 31.55 5.15 31.5 4.25 31.45 3.35 32.05 2.7 32.7 2.05 33.65 2.1 34.5 2.1 35.15 2.75 35.8 3.4 35.85 4.3" fill="#cccccc" fill-rule="evenodd" stroke="none"/>
  </g>
</svg>
