<?xml version="1.0" encoding="UTF-8" standalone="no"?>
<svg xmlns:xlink="http://www.w3.org/1999/xlink" height="73.2px" width="77.95px" xmlns="http://www.w3.org/2000/svg">
  <g transform="matrix(1.0, 0.0, 0.0, 1.0, 14.15, 11.65)">
    <path d="M28.65 -3.15 L28.7 -3.25 28.85 -3.25 28.95 -3.1 28.9 -3.05 28.9 -2.85 28.9 -2.8 28.95 -2.55 28.85 -2.3 28.8 -2.2 29.05 0.35 29.35 4.05 29.35 5.85 29.35 6.35 29.45 6.8 29.65 8.1 Q29.65 8.7 29.05 8.7 28.55 8.7 28.55 8.25 L28.6 7.9 Q28.6 5.75 28.85 5.1 L28.85 4.45 28.65 1.55 28.5 -0.5 28.4 -0.9 28.45 -1.35 28.45 -1.85 28.45 -2.0 28.4 -2.2 28.4 -2.35 28.35 -2.55 28.35 -2.75 28.45 -2.8 28.5 -2.75 28.5 -2.8 Q28.5 -3.05 28.65 -3.1 L28.65 -3.15 M38.2 -6.0 L38.3 -5.75 38.4 -5.9 38.5 -5.35 38.6 -4.9 39.2 -2.55 Q39.6 -0.8 40.15 1.0 L40.4 1.65 Q40.5 2.15 40.75 2.65 L41.15 3.65 41.2 4.15 41.45 4.5 41.7 5.2 42.2 6.0 42.35 6.5 42.55 7.05 42.8 8.5 43.8 11.0 43.5 11.35 43.05 10.3 42.55 8.75 42.15 7.4 41.85 6.85 41.65 6.85 41.15 6.1 40.9 5.3 40.85 4.9 39.85 1.6 38.75 -2.0 37.9 -5.65 37.9 -5.85 37.85 -6.0 Q37.8 -6.2 38.05 -6.2 L38.15 -6.0 38.2 -6.0 M20.55 0.65 L20.6 0.8 20.55 1.0 20.5 1.15 20.5 1.2 20.55 1.35 20.35 2.35 20.45 3.15 20.3 3.85 20.05 5.2 19.75 6.2 19.8 6.4 Q18.6 9.85 17.9 10.2 L17.25 11.3 16.35 13.1 16.0 13.1 15.95 12.85 Q15.95 11.8 17.45 10.15 L17.4 10.05 17.4 9.8 17.8 8.8 18.2 8.2 18.1 7.75 18.7 6.65 18.85 6.5 19.1 5.75 19.05 5.25 19.4 4.5 19.45 4.25 19.65 3.65 Q19.6 3.4 19.7 3.25 L19.75 3.0 19.8 2.9 19.75 2.85 19.8 2.85 19.95 0.85 Q19.95 0.5 20.2 0.3 L20.2 0.5 20.25 0.5 20.35 0.5 20.35 0.55 20.4 0.6 20.5 0.6 20.55 0.65" fill="#ff6600" fill-rule="evenodd" stroke="none"/>
    <path d="M-14.15 13.65 L-14.15 13.55 -13.95 13.6 -14.15 13.65" fill="url(#gradient0)" fill-rule="evenodd" stroke="none"/>
    <path d="M25.45 -7.45 L25.2 -7.4 25.0 -6.7 25.2 -4.2 25.2 -4.1 25.25 -3.75 25.05 -3.2 25.0 -3.05 25.05 -2.8 25.1 -2.75 25.1 -2.45 25.1 -2.4 25.15 -1.05 25.1 -0.55 Q24.75 -0.6 24.7 -1.45 L24.75 -2.55 24.75 -3.0 24.75 -3.1 24.8 -3.65 24.6 -3.95 24.6 -6.0 24.5 -7.4 24.1 -7.65 23.05 -6.85 23.15 -7.95 Q23.25 -9.25 24.45 -10.05 25.3 -9.35 25.6 -8.35 L25.95 -7.05 25.45 -7.45 M36.7 -9.85 Q36.3 -9.85 36.1 -10.0 L35.85 -9.5 36.1 -6.9 36.1 -6.85 36.15 -6.55 36.05 -6.05 36.05 -6.0 36.05 -5.85 35.8 -5.0 36.05 -4.55 36.3 -3.6 36.4 -2.8 36.55 -2.2 36.55 -2.1 36.65 -1.4 36.55 -1.1 36.15 -1.1 36.1 -1.25 36.15 -1.85 35.9 -2.75 36.0 -3.55 Q36.0 -4.1 35.65 -4.3 35.3 -4.45 35.3 -4.75 L35.5 -5.3 35.65 -5.65 35.35 -5.9 35.2 -6.15 35.3 -6.55 35.45 -6.9 35.35 -7.75 35.35 -10.4 35.3 -10.4 34.2 -10.6 34.15 -10.85 35.3 -11.2 36.6 -11.65 36.7 -10.65 36.8 -9.85 36.7 -9.85" fill="#ff6600" fill-rule="evenodd" stroke="none"/>
    <path d="M11.7 -2.6 L12.0 -2.45 12.2 -2.2 12.65 -2.2 12.9 -2.1 13.05 -2.1 13.1 -2.15 13.15 -2.1 13.25 -2.15 14.1 -2.1 14.2 -2.15 14.35 -2.1 15.0 -2.05 15.6 -1.9 15.9 -1.8 16.0 -1.9 16.25 -2.1 16.35 -2.3 16.55 -2.45 16.7 -2.4 16.85 -2.45 17.0 -2.45 17.1 -2.25 17.25 -2.1 17.3 -2.0 17.45 -2.05 17.75 -1.95 17.85 -1.7 Q17.85 -1.6 17.65 -1.6 17.4 -1.6 17.3 -1.8 L17.3 -1.85 17.25 -1.8 16.85 -1.65 16.5 -1.7 16.35 -1.7 16.1 -1.7 16.35 -1.6 16.45 -1.5 16.35 -1.45 13.1 -1.25 13.05 -1.25 12.55 -0.95 12.5 -0.85 12.7 -0.65 12.7 -0.4 12.5 -0.35 12.3 -0.35 12.2 -0.25 12.05 -0.1 11.9 0.05 11.7 0.05 11.3 0.05 11.15 0.05 11.1 0.1 10.9 0.25 11.0 0.55 11.1 0.9 11.15 1.2 11.1 1.55 11.05 1.85 10.75 2.15 9.9 2.7 9.35 3.05 9.4 3.15 9.65 3.85 9.85 4.55 10.0 5.0 10.65 5.5 10.8 5.5 11.15 5.6 11.5 5.75 11.75 5.9 11.85 6.05 11.9 6.4 12.05 6.95 12.15 7.15 13.1 7.55 13.4 7.7 15.9 7.8 16.25 7.85 16.45 8.0 17.8 8.9 19.4 9.4 Q20.0 9.5 20.5 9.75 L20.65 9.8 20.8 9.75 21.2 9.65 21.2 9.6 22.7 9.75 23.7 9.95 24.8 9.9 25.35 10.0 24.75 10.25 22.95 10.7 21.15 10.8 20.75 11.1 20.6 11.15 19.95 11.2 19.4 10.95 19.3 10.85 19.1 10.8 19.05 10.8 16.0 11.0 13.25 10.7 Q12.8 10.8 12.6 10.4 L12.6 10.35 10.85 10.2 10.7 10.05 10.6 9.9 10.5 9.75 10.15 9.8 9.15 9.7 7.55 9.4 6.8 8.7 5.0 6.6 4.25 5.4 Q3.95 4.75 4.05 3.95 L4.05 2.8 4.0 2.65 4.15 2.5 4.3 2.35 4.6 2.1 4.85 1.95 4.8 1.85 Q4.9 0.7 6.0 0.4 L6.0 0.35 5.95 0.2 5.95 0.05 5.95 -0.3 6.0 -0.6 6.0 -0.8 6.2 -0.95 6.35 -1.1 6.45 -1.2 6.55 -1.25 6.85 -1.3 6.85 -1.35 7.95 -1.3 8.3 -1.2 8.4 -1.05 8.6 -1.2 8.8 -1.25 9.05 -1.35 9.25 -1.3 9.6 -1.2 9.7 -1.15 9.7 -1.2 10.0 -1.25 10.0 -1.3 10.1 -1.3 10.05 -1.45 10.1 -1.75 10.5 -2.15 11.55 -2.6 11.7 -2.6" fill="url(#gradient1)" fill-rule="evenodd" stroke="none"/>
    <path d="M46.2 -2.85 Q46.0 -2.7 45.75 -2.85 45.45 -3.05 45.8 -3.1 L46.2 -2.95 46.2 -2.85" fill="url(#gradient2)" fill-rule="evenodd" stroke="none"/>
    <path d="M49.1 -2.6 L49.6 -2.55 49.65 -2.65 49.75 -2.8 49.95 -2.9 50.8 -3.0 50.8 -3.05 51.1 -3.0 51.35 -2.9 51.5 -2.7 51.6 -2.55 51.65 -2.4 51.7 -2.3 52.2 -2.2 52.35 -2.15 52.75 -2.0 52.85 -1.95 54.35 -1.85 55.1 -1.65 55.25 -1.55 55.65 -1.8 56.55 -1.75 56.85 -1.65 56.95 -1.6 57.2 -1.6 57.55 -1.5 57.95 -1.0 58.45 -0.1 58.8 0.65 58.85 0.8 58.95 0.85 59.1 1.0 59.2 1.15 59.3 1.65 59.0 2.45 58.4 3.35 57.9 3.8 57.9 3.85 57.9 4.0 57.85 4.2 57.75 4.5 57.65 4.7 57.5 4.75 56.85 4.65 56.4 4.6 56.4 4.65 56.25 4.75 56.15 4.8 55.85 4.95 55.65 5.05 55.65 5.1 55.65 5.3 55.5 5.55 55.0 5.7 54.55 5.6 54.35 5.65 54.2 5.8 53.95 6.0 53.75 6.05 53.25 6.0 53.05 6.1 52.95 6.2 52.65 6.35 51.9 6.65 51.7 6.95 51.6 7.1 51.45 7.2 51.35 7.25 51.1 7.3 50.9 7.35 50.8 7.4 50.6 7.45 50.35 7.45 50.15 7.4 50.15 7.55 50.1 7.7 50.0 7.9 49.85 8.0 49.8 8.05 49.55 8.1 49.25 8.2 48.7 8.35 48.1 8.4 47.95 8.2 47.9 8.05 47.9 7.9 47.9 7.7 47.9 7.55 47.9 7.4 48.15 7.1 48.55 6.4 Q48.7 5.8 49.25 5.4 49.75 5.0 50.35 4.95 L51.25 4.8 51.9 4.85 52.5 5.05 52.65 5.15 53.1 4.8 54.2 4.25 54.15 3.65 Q54.15 3.25 54.4 3.0 L54.9 2.55 54.8 2.4 54.8 2.25 54.35 2.25 54.0 2.1 53.8 2.0 53.7 1.8 53.65 1.5 53.65 0.8 53.65 0.7 53.55 0.65 53.4 0.55 53.3 0.35 53.3 0.2 53.3 0.05 53.25 -0.1 53.25 -0.4 52.8 -0.55 Q52.55 -0.65 52.35 -0.8 L52.1 -1.1 52.1 -1.3 52.1 -1.35 51.9 -1.4 50.8 -1.3 50.5 -1.4 50.4 -1.55 50.25 -1.75 50.2 -1.8 50.15 -1.8 Q48.3 -1.35 48.5 -2.35 L48.15 -2.6 Q47.75 -2.9 48.1 -3.05 L48.3 -3.15 48.45 -3.15 48.55 -3.15 48.8 -3.0 49.05 -2.8 49.1 -2.6 M42.3 9.5 Q42.7 9.6 42.4 9.9 L42.2 10.0 41.6 9.9 Q41.25 9.75 41.55 9.5 L41.75 9.4 42.3 9.5 M43.5 9.65 L43.5 9.5 43.55 9.35 Q44.05 8.85 44.8 8.9 L45.05 8.85 45.35 8.9 45.75 9.0 45.85 9.1 45.65 9.35 45.0 9.7 44.0 9.85 43.5 9.65 M47.4 8.15 L47.1 8.75 46.9 8.8 46.15 8.85 Q45.7 8.8 45.9 8.45 L45.95 8.3 46.2 8.05 46.8 7.8 47.05 7.7 47.4 8.15 M50.05 6.8 L50.0 6.75 50.0 6.8 50.05 6.8 M39.6 9.75 L39.75 9.7 Q40.4 9.8 40.15 9.95 L39.7 10.45 39.55 10.5 38.95 10.5 Q38.5 10.5 38.55 10.1 L38.6 9.95 38.7 9.85 39.55 9.75 39.6 9.75 M34.7 9.7 L35.1 9.45 36.45 9.55 36.75 9.75 36.9 10.05 36.8 10.2 Q36.2 10.8 35.1 10.5 34.6 10.35 34.65 9.85 L34.7 9.7" fill="url(#gradient3)" fill-rule="evenodd" stroke="none"/>
    <path d="M29.5 9.6 L29.35 9.9 29.2 9.95 29.15 9.8 Q29.25 9.6 29.45 9.6 L29.5 9.6" fill="url(#gradient4)" fill-rule="evenodd" stroke="none"/>
    <path d="M56.05 -0.45 L55.5 -0.35 55.25 -0.25 55.2 -0.25 55.2 -0.1 55.25 0.0 55.3 0.25 55.15 0.6 54.95 0.85 54.6 1.0 54.5 0.95 54.3 0.9 54.2 0.85 54.2 0.8 54.0 0.8 53.7 0.8 53.45 0.7 53.4 0.6 53.5 0.3 54.25 -0.35 54.65 -0.85 Q54.85 -1.1 55.15 -1.15 L55.5 -1.15 55.65 -1.05 55.75 -0.9 55.8 -0.75 55.8 -0.7 56.15 -0.8 56.25 -0.85 Q56.55 -0.75 56.3 -0.55 56.2 -0.45 56.05 -0.45 M56.85 2.35 L56.2 2.65 Q55.8 2.65 55.55 2.95 L55.45 3.1 55.35 3.35 55.3 3.4 55.25 3.45 55.15 3.45 55.0 3.45 54.8 3.6 Q54.5 3.65 54.45 3.4 54.4 3.25 54.5 3.15 L54.5 3.1 54.45 3.0 54.45 2.9 54.45 2.85 54.45 2.75 54.5 2.7 54.7 2.5 55.0 2.2 Q55.2 1.9 55.5 1.9 L55.5 1.85 56.6 1.9 56.9 2.1 56.9 2.25 56.85 2.35 M52.95 -1.0 L53.15 -1.25 53.35 -1.0 53.15 -0.8 Q52.9 -0.8 52.95 -1.0 M50.65 5.45 L50.6 5.55 50.55 5.6 50.4 5.65 50.05 5.7 50.0 5.8 49.95 5.85 49.9 5.95 49.85 6.0 49.6 6.05 49.55 5.95 49.55 5.85 49.5 5.7 49.55 5.55 49.65 5.4 49.7 5.3 49.9 5.2 50.05 5.15 50.4 5.15 50.55 5.2 50.6 5.3 50.7 5.35 50.65 5.45 M12.75 -1.45 Q12.65 -1.3 12.5 -1.3 L12.4 -1.3 12.15 -1.45 12.1 -1.6 12.15 -1.85 12.4 -1.95 12.65 -1.9 12.8 -1.65 12.75 -1.45 M11.65 -1.4 L11.8 -1.3 11.9 -1.15 11.95 -0.9 11.9 -0.75 11.75 -0.75 11.7 -0.75 11.65 -0.7 11.55 -0.55 11.25 -0.55 11.25 -0.5 11.2 -0.45 11.15 -0.4 10.9 -0.45 10.65 -0.5 Q10.4 -0.55 10.3 -0.75 L10.25 -0.8 10.3 -0.9 10.35 -0.95 10.5 -1.0 10.65 -1.05 10.9 -1.0 11.05 -0.95 11.05 -1.0 11.1 -1.05 11.2 -1.1 11.2 -1.2 11.3 -1.3 11.5 -1.4 11.65 -1.4 M10.35 -0.25 L10.35 -0.05 10.3 0.1 10.1 0.0 9.9 -0.2 9.8 -0.15 9.7 -0.05 9.8 0.05 9.8 0.1 9.55 0.05 9.45 0.0 9.4 -0.1 9.3 -0.2 9.3 -0.25 9.3 -0.35 9.3 -0.4 9.3 -0.5 9.25 -0.55 9.25 -0.6 9.35 -0.6 9.4 -0.55 9.4 -0.6 9.5 -0.7 9.65 -0.75 9.9 -0.65 10.05 -0.5 10.1 -0.5 10.25 -0.4 10.35 -0.25 M10.35 0.25 L10.4 0.35 10.45 0.5 10.45 0.6 10.35 0.75 10.1 0.9 9.8 0.7 9.7 0.55 9.7 0.45 9.75 0.4 9.8 0.3 10.0 0.2 10.1 0.15 10.25 0.2 10.35 0.25 M10.35 6.1 L10.5 6.05 10.75 6.05 10.95 6.05 11.1 6.1 11.2 6.2 11.3 6.25 11.35 6.35 11.35 6.4 11.4 6.6 11.4 6.75 11.4 7.0 11.3 7.15 11.05 7.3 10.45 7.2 10.1 6.85 10.1 6.75 10.1 6.7 9.95 6.75 9.95 6.8 9.9 6.85 9.65 7.05 8.75 7.0 8.65 6.95 8.55 6.9 8.55 6.8 8.6 6.75 8.65 6.65 8.85 6.55 8.95 6.5 9.35 6.55 9.25 6.2 9.3 6.1 9.55 6.0 10.1 6.05 10.3 6.1 10.35 6.1 M12.2 7.85 L12.75 7.9 12.95 7.95 13.15 8.1 13.15 8.15 13.2 8.25 13.2 8.35 13.15 8.5 13.1 8.65 13.0 8.75 12.95 8.8 12.9 8.8 12.2 8.8 11.95 8.7 11.9 8.65 11.85 8.55 11.85 8.45 11.8 8.3 11.85 8.15 11.85 8.05 11.95 8.0 12.0 7.9 12.05 7.9 12.2 7.85 M13.7 7.9 L13.8 8.0 13.9 8.15 13.9 8.3 13.85 8.35 13.7 8.4 13.4 8.25 13.35 8.0 13.45 7.9 13.5 7.9 13.7 7.9 M14.85 8.6 L14.95 8.5 15.2 8.6 15.15 8.8 14.85 8.8 Q14.7 8.7 14.85 8.6 M16.65 9.85 L16.5 9.95 16.25 9.95 16.15 9.85 16.15 9.75 16.15 9.7 16.2 9.6 16.25 9.55 16.4 9.5 16.4 9.45 16.6 9.6 16.65 9.85 M9.45 0.45 L9.55 0.6 9.5 0.75 9.5 0.85 9.3 0.95 Q9.2 1.05 9.05 1.1 L8.8 1.05 8.75 1.3 8.75 1.75 8.75 2.15 8.7 2.2 8.5 2.35 8.15 2.5 7.55 2.4 7.5 2.35 7.45 2.1 7.35 1.65 7.35 1.25 7.45 0.85 7.5 0.75 7.6 0.7 7.7 0.65 7.85 0.6 8.3 0.6 8.5 0.65 8.6 0.75 8.6 0.65 8.65 0.6 8.85 0.4 8.95 0.35 9.1 0.3 9.2 0.3 9.35 0.35 9.45 0.45 M5.75 2.55 L5.9 2.55 6.1 2.5 6.15 2.5 6.3 2.4 6.85 2.35 7.45 2.55 7.85 2.6 8.15 3.0 8.15 3.1 8.35 3.35 8.35 3.9 Q8.05 4.1 7.95 3.75 L7.95 3.7 7.65 3.55 6.4 3.35 5.75 3.1 5.6 2.85 5.6 2.8 5.65 2.7 5.7 2.6 5.75 2.55 M9.15 4.45 L9.15 4.5 9.15 4.6 9.3 4.85 9.25 4.95 9.1 5.1 7.5 5.05 7.45 5.15 7.4 5.25 7.35 5.3 7.2 5.3 7.15 5.25 7.05 5.1 6.85 4.85 6.75 4.55 6.95 4.35 7.1 4.3 7.5 4.3 7.65 4.1 7.75 4.05 8.75 4.05 8.9 4.1 8.95 4.2 9.05 4.25 9.1 4.35 9.15 4.45 M9.4 5.15 L9.5 5.2 9.65 5.35 9.65 5.45 9.65 5.5 9.6 5.6 9.5 5.65 9.4 5.75 9.3 5.7 Q8.95 5.75 8.75 5.5 L8.7 5.3 8.95 5.15 9.4 5.15 M8.25 7.4 Q7.95 7.45 8.05 7.2 L8.3 6.95 8.5 7.15 8.25 7.4" fill="#ff9900" fill-rule="evenodd" stroke="none"/>
    <path d="M50.7 29.55 Q52.45 32.1 54.85 34.5 L58.6 38.4 62.35 42.6 62.45 42.55 62.65 42.6 62.75 42.6 62.85 42.7 63.05 42.8 63.15 42.9 63.35 43.2 63.6 43.45 63.75 43.65 63.8 43.85 63.65 43.9 62.35 44.2 62.25 44.35 Q62.7 46.1 60.7 47.25 L59.3 47.85 Q50.25 50.05 40.55 48.8 L39.45 48.45 Q36.8 47.0 33.45 46.2 L30.65 47.1 28.4 47.6 Q20.7 48.9 12.9 47.8 L10.3 47.7 Q3.05 48.15 0.15 44.65 L0.15 44.55 0.15 44.45 0.15 44.35 0.2 44.25 0.3 44.1 0.4 44.0 0.5 44.0 0.5 43.95 1.15 42.35 1.6 40.85 Q1.8 40.15 2.7 39.6 L3.0 39.55 3.3 39.55 3.55 39.6 3.65 39.6 3.8 39.7 3.95 39.8 Q5.4 38.8 5.8 37.05 6.3 34.95 7.1 32.85 L8.45 28.6 Q8.9 26.35 11.05 24.65 12.4 25.7 12.5 27.4 12.6 29.3 13.1 31.2 L14.25 35.05 Q14.85 36.95 16.5 38.5 L16.95 38.1 17.85 37.25 18.5 36.35 Q18.7 35.85 19.5 35.95 20.05 36.2 20.2 36.55 20.45 37.4 21.15 38.1 L22.3 39.55 Q22.75 40.45 24.1 40.55 L24.5 40.1 Q24.8 39.5 25.5 39.0 L26.8 37.95 Q27.4 37.3 28.45 37.25 29.4 37.6 29.6 38.4 29.9 39.35 30.6 40.3 L32.0 42.05 32.3 42.75 33.2 41.45 34.65 39.0 36.25 35.8 38.2 32.8 Q38.6 32.65 39.05 32.8 L40.05 33.2 41.5 33.4 42.7 31.95 Q43.2 30.85 44.0 29.9 L45.55 28.0 Q46.3 27.0 47.6 26.4 49.45 27.7 50.7 29.55" fill="url(#gradient5)" fill-rule="evenodd" stroke="none"/>
    <path d="M53.8 49.3 Q54.45 50.05 55.5 49.95 L55.65 49.8 55.8 49.6 55.9 49.5 56.05 49.45 56.3 49.4 56.75 49.45 57.1 49.5 57.55 50.2 57.8 51.2 58.25 52.35 58.75 53.45 58.95 54.2 59.25 55.4 Q59.3 56.1 59.75 56.65 L60.4 57.75 60.35 58.05 60.25 58.4 60.15 58.9 60.15 59.4 59.95 59.9 Q34.0 63.1 8.0 60.1 L4.05 59.25 Q2.0 58.5 0.95 56.7 1.1 56.2 1.6 55.85 L2.65 55.15 3.8 54.3 Q4.35 52.95 5.45 51.85 L7.7 49.5 10.3 46.65 12.25 44.25 12.45 44.0 12.55 43.95 12.8 43.9 13.15 43.85 13.15 43.8 Q14.4 44.6 15.25 45.85 L17.1 48.0 19.15 50.15 19.75 50.9 20.3 50.5 21.2 50.0 22.45 49.05 22.65 48.95 Q23.7 48.8 24.6 49.35 L26.25 50.45 Q27.05 50.95 27.95 51.05 L29.9 51.2 30.55 50.85 Q31.0 50.4 31.6 50.3 32.45 50.2 33.1 50.95 L33.85 51.45 34.35 51.95 34.4 52.05 35.75 51.65 37.1 51.25 37.1 51.2 Q37.8 51.2 38.1 51.85 L38.7 52.9 39.05 53.35 40.55 51.5 43.45 48.55 45.65 45.85 Q46.7 44.25 48.5 44.0 49.85 44.1 50.75 45.15 L52.2 47.2 53.8 49.3" fill="url(#gradient6)" fill-rule="evenodd" stroke="none"/>
  </g>
  <defs>
    <linearGradient gradientTransform="matrix(0.0, 0.0, 0.0, 0.0, 0.0, 0.0)" gradientUnits="userSpaceOnUse" id="gradient0" spreadMethod="pad" x1="-819.2" x2="819.2">
      <stop offset="0.0" stop-color="#000000"/>
      <stop offset="1.0" stop-color="#999999"/>
    </linearGradient>
    <radialGradient cx="0" cy="0" gradientTransform="matrix(0.024, 0.0, 0.0, 0.0131, 20.2, 3.45)" gradientUnits="userSpaceOnUse" id="gradient1" r="819.2" spreadMethod="pad">
      <stop offset="0.0" stop-color="#ff6600" stop-opacity="0.2"/>
      <stop offset="1.0" stop-color="#881c00" stop-opacity="0.2"/>
      <stop offset="1.0" stop-color="#000000"/>
    </radialGradient>
    <radialGradient cx="0" cy="0" gradientTransform="matrix(0.001, 0.0, 0.0, 0.001, 45.95, -2.95)" gradientUnits="userSpaceOnUse" id="gradient2" r="819.2" spreadMethod="pad">
      <stop offset="0.0" stop-color="#ff6600" stop-opacity="0.2"/>
      <stop offset="1.0" stop-color="#881c00" stop-opacity="0.2"/>
      <stop offset="1.0" stop-color="#000000"/>
    </radialGradient>
    <radialGradient cx="0" cy="0" gradientTransform="matrix(0.0276, 0.0, 0.0, 0.0168, 43.5, 1.35)" gradientUnits="userSpaceOnUse" id="gradient3" r="819.2" spreadMethod="pad">
      <stop offset="0.0" stop-color="#ff6600" stop-opacity="0.2"/>
      <stop offset="1.0" stop-color="#881c00" stop-opacity="0.2"/>
      <stop offset="1.0" stop-color="#000000"/>
    </radialGradient>
    <radialGradient cx="0" cy="0" gradientTransform="matrix(5.0E-4, 0.0, 0.0, 5.0E-4, 29.35, 9.8)" gradientUnits="userSpaceOnUse" id="gradient4" r="819.2" spreadMethod="pad">
      <stop offset="0.0" stop-color="#ff6600" stop-opacity="0.2"/>
      <stop offset="1.0" stop-color="#881c00" stop-opacity="0.2"/>
      <stop offset="1.0" stop-color="#000000"/>
    </radialGradient>
    <linearGradient gradientTransform="matrix(-1.0E-4, 0.014, 0.0244, 1.0E-4, 31.8, 34.7)" gradientUnits="userSpaceOnUse" id="gradient5" spreadMethod="pad" x1="-819.2" x2="819.2">
      <stop offset="0.0" stop-color="#000000"/>
      <stop offset="1.0" stop-color="#999999"/>
    </linearGradient>
    <linearGradient gradientTransform="matrix(1.0E-4, 0.0166, -0.0236, 1.0E-4, 30.05, 41.75)" gradientUnits="userSpaceOnUse" id="gradient6" spreadMethod="pad" x1="-819.2" x2="819.2">
      <stop offset="0.0" stop-color="#000000"/>
      <stop offset="1.0" stop-color="#999999"/>
    </linearGradient>
  </defs>
</svg>
