<?xml version="1.0" encoding="UTF-8" standalone="no"?>
<svg xmlns:xlink="http://www.w3.org/1999/xlink" height="83.05px" width="58.5px" xmlns="http://www.w3.org/2000/svg">
  <g transform="matrix(1.0, 0.0, 0.0, 1.0, -2.75, 22.0)">
    <path d="M49.4 33.2 L16.3 33.2 16.3 28.9 49.4 28.9 49.4 33.2" fill="#000000" fill-opacity="0.29803923" fill-rule="evenodd" stroke="none"/>
    <path d="M51.55 25.7 L50.05 48.7 46.4 51.35 45.95 49.0 47.15 28.85 18.3 30.05 19.15 49.4 18.85 51.3 Q18.85 51.05 14.8 48.45 L13.3 26.1 51.55 25.7" fill="#821d00" fill-rule="evenodd" stroke="none"/>
    <path d="M47.05 41.15 L47.75 31.15 17.65 31.15 18.4 43.65 18.5 45.5 18.8 51.3 11.15 51.3 9.45 22.3 55.4 22.3 53.7 51.3 46.4 51.3 46.85 43.65 47.05 41.15" fill="#d73000" fill-rule="evenodd" stroke="none"/>
    <path d="M55.05 28.75 L34.9 28.85 Q31.85 30.6 27.75 30.6 23.7 30.6 20.7 28.9 L9.85 28.9 9.45 22.3 16.4 22.3 Q16.55 19.15 19.7 16.9 23.05 14.5 27.75 14.5 32.45 14.5 35.75 16.9 38.95 19.15 39.1 22.3 L55.4 22.3 55.05 28.75" fill="#9f2400" fill-rule="evenodd" stroke="none"/>
    <path d="M30.6 -15.1 L50.7 -15.25 55.6 -12.45 56.7 24.45 7.7 24.45 8.85 -12.45 13.25 -14.65 13.25 -15.0 13.95 -15.0 22.3 -15.0 30.6 -15.1" fill="#7f7f7f" fill-rule="evenodd" stroke="none"/>
    <path d="M30.6 -15.1 L50.7 -15.25 55.6 -12.45 56.7 24.45 7.7 24.45 8.85 -12.45 13.25 -14.65 13.25 -15.0 13.95 -15.0 22.3 -15.0 30.6 -15.1 Z" fill="none" stroke="#333333" stroke-linecap="round" stroke-linejoin="round" stroke-width="2.0"/>
    <path d="M30.85 -0.5 L30.8 -3.4 30.6 -15.1 50.7 -15.25 55.6 -12.45 56.7 23.95 30.85 -0.5" fill="#575757" fill-rule="evenodd" stroke="none"/>
    <path d="M30.8 -3.4 L29.45 -1.8 7.7 24.4 8.85 -12.45 13.95 -15.0 30.6 -15.1 30.8 -3.4" fill="#333333" fill-rule="evenodd" stroke="none"/>
    <path d="M29.45 -1.8 L30.85 -0.5 56.7 23.95 56.7 24.45 7.7 24.45 7.7 24.4 29.45 -1.8" fill="#454545" fill-rule="evenodd" stroke="none"/>
    <path d="M51.05 -15.0 L51.95 19.1 12.3 19.1 13.25 -15.0 51.05 -15.0" fill="#6e6e6e" fill-rule="evenodd" stroke="none"/>
    <path d="M50.55 -12.9 L50.55 3.35 29.15 3.35 29.15 -12.9 50.55 -12.9" fill="#000000" fill-opacity="0.29803923" fill-rule="evenodd" stroke="none"/>
    <path d="M49.05 -5.4 L49.05 0.15 31.25 0.15 31.25 -5.4 49.05 -5.4" fill="#454545" fill-rule="evenodd" stroke="none"/>
    <path d="M49.05 -5.4 L49.05 0.15 31.25 0.15 31.25 -5.4 49.05 -5.4 Z" fill="none" stroke="#333333" stroke-linecap="round" stroke-linejoin="round" stroke-width="1.5"/>
    <path d="M49.05 -5.4 L49.05 0.15 31.25 0.15 31.25 -5.4 49.05 -5.4" fill="#575757" fill-rule="evenodd" stroke="none"/>
    <path d="M32.6 -20.75 L32.6 -20.9 32.85 -20.9 36.2 -20.9 39.55 -20.9 47.65 -21.0 49.6 -19.85 50.05 -5.0 30.35 -5.0 30.8 -19.85 32.6 -20.75" fill="#7f7f7f" fill-rule="evenodd" stroke="none"/>
    <path d="M32.6 -20.75 L32.6 -20.9 32.85 -20.9 36.2 -20.9 39.55 -20.9 47.65 -21.0 49.6 -19.85 50.05 -5.0 30.35 -5.0 30.8 -19.85 32.6 -20.75 Z" fill="none" stroke="#333333" stroke-linecap="round" stroke-linejoin="round" stroke-width="2.0"/>
    <path d="M39.65 -15.05 L39.65 -16.2 39.55 -20.9 47.65 -21.0 49.6 -19.85 50.05 -5.2 39.65 -15.05" fill="#d23000" fill-rule="evenodd" stroke="none"/>
    <path d="M39.65 -16.2 L39.1 -15.55 30.35 -5.05 30.8 -19.85 32.85 -20.9 39.55 -20.9 39.65 -16.2" fill="#952200" fill-rule="evenodd" stroke="none"/>
    <path d="M39.1 -15.55 L39.65 -15.05 50.05 -5.2 50.05 -5.0 30.35 -5.0 30.35 -5.05 39.1 -15.55" fill="#b02700" fill-rule="evenodd" stroke="none"/>
    <path d="M32.6 -20.9 L47.75 -20.9 48.15 -7.15 32.2 -7.15 32.6 -20.9" fill="#f73600" fill-rule="evenodd" stroke="none"/>
    <path d="M44.55 19.7 L44.55 20.35 44.55 21.0 Q44.55 24.7 40.85 27.3 37.2 29.9 32.05 29.9 26.85 29.9 23.2 27.3 19.55 24.7 19.55 21.0 L19.6 20.35 19.55 19.7 Q19.55 16.05 23.2 13.45 26.85 10.85 32.05 10.85 37.2 10.85 40.85 13.45 44.55 16.05 44.55 19.7" fill="#ffcc33" fill-rule="evenodd" stroke="none"/>
    <path d="M44.55 19.7 L44.55 20.35 44.55 21.0 Q44.55 24.7 40.85 27.3 37.2 29.9 32.05 29.9 26.85 29.9 23.2 27.3 19.55 24.7 19.55 21.0 L19.6 20.35 19.55 19.7 Q19.55 16.05 23.2 13.45 26.85 10.85 32.05 10.85 37.2 10.85 40.85 13.45 44.55 16.05 44.55 19.7 Z" fill="none" stroke="#333333" stroke-linecap="round" stroke-linejoin="round" stroke-width="2.0"/>
    <path d="M44.55 19.7 Q44.55 23.4 40.85 25.95 37.2 28.55 32.05 28.55 26.85 28.55 23.2 25.95 19.55 23.4 19.55 19.7 19.55 16.05 23.2 13.45 26.85 10.85 32.05 10.85 37.2 10.85 40.85 13.45 44.55 16.05 44.55 19.7" fill="#ffdb6f" fill-rule="evenodd" stroke="none"/>
    <path d="M40.85 27.3 Q37.2 29.9 32.05 29.9 26.85 29.9 23.2 27.3 19.55 24.7 19.55 21.0 19.55 17.4 23.2 14.8 26.85 12.15 32.05 12.15 37.2 12.15 40.85 14.8 44.55 17.4 44.55 21.0 44.55 24.7 40.85 27.3" fill="#ffcc33" fill-rule="evenodd" stroke="none"/>
    <path d="M24.6 26.25 Q21.6 24.1 21.6 21.0 21.6 18.0 24.6 15.8 27.7 13.6 32.05 13.6 36.35 13.6 39.35 15.8 42.5 18.0 42.5 21.0 42.5 24.1 39.35 26.25 36.35 28.45 32.05 28.45 27.7 28.45 24.6 26.25" fill="#454545" fill-rule="evenodd" stroke="none"/>
    <path d="M30.15 17.6 Q30.35 17.0 31.1 16.3 31.85 15.65 32.5 15.3 L33.55 15.25 33.9 15.7 33.9 16.3 33.45 17.15 Q40.55 22.7 40.25 23.0 39.95 23.2 32.45 18.1 L31.55 18.65 30.75 18.7 30.25 18.5 Q29.9 18.25 30.15 17.6 M29.65 16.55 L29.65 17.45 28.9 18.55 Q38.85 26.25 38.45 26.65 38.1 26.95 27.6 19.9 L26.3 20.65 25.25 20.7 24.5 20.45 Q24.0 20.15 24.4 19.25 24.8 18.35 25.7 17.4 26.7 16.45 27.7 16.0 L29.15 15.9 29.65 16.55 M28.6 21.45 L28.55 21.9 28.2 22.45 Q33.3 26.45 33.1 26.65 32.9 26.85 27.5 23.15 L26.9 23.55 26.35 23.6 25.85 23.45 Q25.7 23.3 25.8 22.8 L26.55 21.9 27.55 21.15 28.3 21.1 28.6 21.45" fill="#ffcc33" fill-rule="evenodd" stroke="none"/>
    <path d="M24.35 48.75 Q25.3 49.4 25.7 50.55 26.1 51.75 25.75 52.75 25.35 53.85 24.4 54.15 23.5 54.5 22.55 53.85 21.6 53.3 21.2 52.1 20.8 50.95 21.15 49.85 21.55 48.85 22.45 48.5 23.4 48.2 24.35 48.75 M7.25 48.35 Q8.2 48.65 8.55 49.7 8.9 50.8 8.5 51.95 8.05 53.15 7.1 53.7 L5.2 53.95 Q4.25 53.6 3.9 52.55 3.55 51.5 4.0 50.3 4.4 49.15 5.35 48.55 L7.25 48.35" fill="#ffcc33" fill-rule="evenodd" stroke="none"/>
    <path d="M24.35 48.75 Q25.3 49.4 25.7 50.55 26.1 51.75 25.75 52.75 25.35 53.85 24.4 54.15 23.5 54.5 22.55 53.85 21.6 53.3 21.2 52.1 20.8 50.95 21.15 49.85 21.55 48.85 22.45 48.5 23.4 48.2 24.35 48.75 M7.25 48.35 Q8.2 48.65 8.55 49.7 8.9 50.8 8.5 51.95 8.05 53.15 7.1 53.7 L5.2 53.95 Q4.25 53.6 3.9 52.55 3.55 51.5 4.0 50.3 4.4 49.15 5.35 48.55 L7.25 48.35" fill="none" stroke="#333333" stroke-linecap="round" stroke-linejoin="round" stroke-width="2.0"/>
    <path d="M24.35 48.75 Q25.3 49.4 25.7 50.55 26.1 51.75 25.75 52.75 25.35 53.85 24.4 54.15 23.5 54.5 22.55 53.85 21.6 53.3 21.2 52.1 20.8 50.95 21.15 49.85 21.55 48.85 22.45 48.5 23.4 48.2 24.35 48.75 M7.25 48.35 Q8.2 48.65 8.55 49.7 8.9 50.8 8.5 51.95 8.05 53.15 7.1 53.7 L5.2 53.95 Q4.25 53.6 3.9 52.55 3.55 51.5 4.0 50.3 4.4 49.15 5.35 48.55 L7.25 48.35" fill="#666666" fill-rule="evenodd" stroke="none"/>
    <path d="M19.2 40.3 Q20.15 41.05 20.6 41.95 L21.0 43.1 Q22.4 46.3 23.15 49.5 L23.25 49.85 23.4 50.2 Q23.75 51.1 23.75 52.15 23.75 54.9 21.15 56.85 18.45 58.85 14.8 58.85 11.05 58.85 8.45 56.85 5.8 54.9 5.8 52.15 5.8 51.25 6.1 50.45 L6.25 50.05 6.4 49.45 Q7.35 45.65 8.65 42.85 L8.95 41.95 Q9.4 41.05 10.4 40.3 12.2 38.95 14.8 38.95 17.35 38.95 19.2 40.3" fill="#666666" fill-rule="evenodd" stroke="none"/>
    <path d="M19.2 40.3 Q20.15 41.05 20.6 41.95 L21.0 43.1 Q22.4 46.3 23.15 49.5 L23.25 49.85 23.4 50.2 Q23.75 51.1 23.75 52.15 23.75 54.9 21.15 56.85 18.45 58.85 14.8 58.85 11.05 58.85 8.45 56.85 5.8 54.9 5.8 52.15 5.8 51.25 6.1 50.45 L6.25 50.05 6.4 49.45 Q7.35 45.65 8.65 42.85 L8.95 41.95 Q9.4 41.05 10.4 40.3 12.2 38.95 14.8 38.95 17.35 38.95 19.2 40.3 Z" fill="none" stroke="#333333" stroke-linecap="round" stroke-linejoin="round" stroke-width="2.0"/>
    <path d="M6.4 49.45 Q7.35 45.65 8.65 42.85 L8.95 41.95 Q9.4 41.05 10.4 40.3 12.2 38.95 14.8 38.95 17.35 38.95 19.2 40.3 20.15 41.05 20.6 41.95 L21.0 43.1 Q22.4 46.3 23.15 49.5 22.5 50.7 21.15 51.7 18.5 53.75 14.8 53.75 11.05 53.75 8.45 51.7 7.05 50.7 6.4 49.45" fill="#f73600" fill-rule="evenodd" stroke="none"/>
    <path d="M23.15 49.5 L23.25 49.85 23.4 50.2 Q23.75 51.1 23.75 52.15 23.75 54.9 21.15 56.85 18.45 58.85 14.8 58.85 11.05 58.85 8.45 56.85 5.8 54.9 5.8 52.15 5.8 51.25 6.1 50.45 L6.25 50.05 6.4 49.45 Q7.05 50.7 8.45 51.7 11.05 53.75 14.8 53.75 18.5 53.75 21.15 51.7 22.5 50.7 23.15 49.5" fill="#454545" fill-rule="evenodd" stroke="none"/>
    <path d="M20.5 47.2 L21.4 49.7 Q19.65 51.05 17.65 51.45 L16.75 48.95 Q18.95 48.7 20.5 47.2" fill="#454545" fill-rule="evenodd" stroke="none"/>
    <path d="M13.0 54.15 Q14.0 54.2 14.65 55.05 15.35 55.95 15.3 57.2 15.25 58.45 14.5 59.25 13.8 60.1 12.8 60.05 11.8 60.0 11.1 59.15 10.45 58.25 10.5 57.0 10.55 55.75 11.25 54.95 12.0 54.1 13.0 54.15" fill="#ffcc33" fill-rule="evenodd" stroke="none"/>
    <path d="M13.0 54.15 Q14.0 54.2 14.65 55.05 15.35 55.95 15.3 57.2 15.25 58.45 14.5 59.25 13.8 60.1 12.8 60.05 11.8 60.0 11.1 59.15 10.45 58.25 10.5 57.0 10.55 55.75 11.25 54.95 12.0 54.1 13.0 54.15 Z" fill="none" stroke="#333333" stroke-linecap="round" stroke-linejoin="round" stroke-width="2.0"/>
    <path d="M12.8 60.05 Q11.8 60.0 11.1 59.15 10.45 58.25 10.5 57.0 10.55 55.75 11.25 54.95 12.0 54.1 13.0 54.15 14.0 54.2 14.65 55.05 15.35 55.95 15.3 57.2 15.25 58.45 14.5 59.25 13.8 60.1 12.8 60.05" fill="#666666" fill-rule="evenodd" stroke="none"/>
    <path d="M18.35 40.95 Q19.8 42.05 19.8 43.6 19.8 45.15 18.35 46.2 16.85 47.35 14.8 47.35 12.7 47.35 11.25 46.2 9.75 45.15 9.75 43.6 9.75 42.05 11.25 40.95 12.7 39.85 14.8 39.85 16.85 39.85 18.35 40.95" fill="#666666" fill-rule="evenodd" stroke="none"/>
    <path d="M17.2 41.6 Q18.15 42.35 18.15 43.4 18.15 44.4 17.2 45.15 16.2 45.9 14.8 45.9 13.4 45.9 12.4 45.15 11.4 44.4 11.4 43.4 11.4 42.35 12.4 41.6 13.4 40.85 14.8 40.85 16.2 40.85 17.2 41.6" fill="#333333" fill-rule="evenodd" stroke="none"/>
    <path d="M56.8 47.0 Q57.75 46.7 58.7 47.25 59.65 47.9 60.05 49.05 60.45 50.25 60.1 51.25 59.7 52.35 58.75 52.65 57.85 53.0 56.9 52.35 55.95 51.8 55.55 50.6 55.15 49.45 55.5 48.35 55.9 47.35 56.8 47.0 M42.9 48.2 Q43.25 49.3 42.85 50.45 42.4 51.65 41.45 52.2 L39.55 52.45 Q38.6 52.1 38.25 51.05 37.9 50.0 38.35 48.8 38.75 47.65 39.7 47.05 40.65 46.5 41.6 46.85 42.55 47.15 42.9 48.2" fill="#ffcc33" fill-rule="evenodd" stroke="none"/>
    <path d="M56.8 47.0 Q57.75 46.7 58.7 47.25 59.65 47.9 60.05 49.05 60.45 50.25 60.1 51.25 59.7 52.35 58.75 52.65 57.85 53.0 56.9 52.35 55.95 51.8 55.55 50.6 55.15 49.45 55.5 48.35 55.9 47.35 56.8 47.0 M42.9 48.2 Q43.25 49.3 42.85 50.45 42.4 51.65 41.45 52.2 L39.55 52.45 Q38.6 52.1 38.25 51.05 37.9 50.0 38.35 48.8 38.75 47.65 39.7 47.05 40.65 46.5 41.6 46.85 42.55 47.15 42.9 48.2" fill="none" stroke="#333333" stroke-linecap="round" stroke-linejoin="round" stroke-width="2.0"/>
    <path d="M56.8 47.0 Q57.75 46.7 58.7 47.25 59.65 47.9 60.05 49.05 60.45 50.25 60.1 51.25 59.7 52.35 58.75 52.65 57.85 53.0 56.9 52.35 55.95 51.8 55.55 50.6 55.15 49.45 55.5 48.35 55.9 47.35 56.8 47.0 M42.9 48.2 Q43.25 49.3 42.85 50.45 42.4 51.65 41.45 52.2 L39.55 52.45 Q38.6 52.1 38.25 51.05 37.9 50.0 38.35 48.8 38.75 47.65 39.7 47.05 40.65 46.5 41.6 46.85 42.55 47.15 42.9 48.2" fill="#666666" fill-rule="evenodd" stroke="none"/>
    <path d="M44.75 38.8 Q46.55 37.45 49.15 37.45 51.7 37.45 53.55 38.8 54.5 39.55 54.95 40.45 L55.35 41.6 Q56.75 44.8 57.5 48.0 L57.6 48.35 57.75 48.7 Q58.1 49.6 58.1 50.65 58.1 53.4 55.5 55.35 52.8 57.35 49.15 57.35 45.4 57.35 42.8 55.35 40.15 53.4 40.15 50.65 40.15 49.75 40.45 48.95 L40.6 48.55 40.75 47.95 Q41.7 44.15 43.0 41.35 L43.3 40.45 Q43.75 39.55 44.75 38.8" fill="#666666" fill-rule="evenodd" stroke="none"/>
    <path d="M44.75 38.8 Q46.55 37.45 49.15 37.45 51.7 37.45 53.55 38.8 54.5 39.55 54.95 40.45 L55.35 41.6 Q56.75 44.8 57.5 48.0 L57.6 48.35 57.75 48.7 Q58.1 49.6 58.1 50.65 58.1 53.4 55.5 55.35 52.8 57.35 49.15 57.35 45.4 57.35 42.8 55.35 40.15 53.4 40.15 50.65 40.15 49.75 40.45 48.95 L40.6 48.55 40.75 47.95 Q41.7 44.15 43.0 41.35 L43.3 40.45 Q43.75 39.55 44.75 38.8 Z" fill="none" stroke="#333333" stroke-linecap="round" stroke-linejoin="round" stroke-width="2.0"/>
    <path d="M40.75 47.95 Q41.7 44.15 43.0 41.35 L43.3 40.45 Q43.75 39.55 44.75 38.8 46.55 37.45 49.15 37.45 51.7 37.45 53.55 38.8 54.5 39.55 54.95 40.45 L55.35 41.6 Q56.75 44.8 57.5 48.0 56.85 49.2 55.5 50.2 52.85 52.25 49.15 52.25 45.4 52.25 42.8 50.2 41.4 49.2 40.75 47.95" fill="#f73600" fill-rule="evenodd" stroke="none"/>
    <path d="M57.5 48.0 L57.6 48.35 57.75 48.7 Q58.1 49.6 58.1 50.65 58.1 53.4 55.5 55.35 52.8 57.35 49.15 57.35 45.4 57.35 42.8 55.35 40.15 53.4 40.15 50.65 40.15 49.75 40.45 48.95 L40.6 48.55 40.75 47.95 Q41.4 49.2 42.8 50.2 45.4 52.25 49.15 52.25 52.85 52.25 55.5 50.2 56.85 49.2 57.5 48.0" fill="#454545" fill-rule="evenodd" stroke="none"/>
    <path d="M55.75 48.2 Q54.0 49.55 52.0 49.95 L51.1 47.45 Q53.3 47.2 54.85 45.7 L55.75 48.2" fill="#454545" fill-rule="evenodd" stroke="none"/>
    <path d="M49.0 53.55 Q49.7 54.45 49.65 55.7 49.6 56.95 48.85 57.75 48.15 58.6 47.15 58.55 46.15 58.5 45.45 57.65 44.8 56.75 44.85 55.5 44.9 54.25 45.6 53.45 46.35 52.6 47.35 52.65 48.35 52.7 49.0 53.55" fill="#ffcc33" fill-rule="evenodd" stroke="none"/>
    <path d="M49.0 53.55 Q49.7 54.45 49.65 55.7 49.6 56.95 48.85 57.75 48.15 58.6 47.15 58.55 46.15 58.5 45.45 57.65 44.8 56.75 44.85 55.5 44.9 54.25 45.6 53.45 46.35 52.6 47.35 52.65 48.35 52.7 49.0 53.55 Z" fill="none" stroke="#333333" stroke-linecap="round" stroke-linejoin="round" stroke-width="2.0"/>
    <path d="M45.45 57.65 Q44.8 56.75 44.85 55.5 44.9 54.25 45.6 53.45 46.35 52.6 47.35 52.65 48.35 52.7 49.0 53.55 49.7 54.45 49.65 55.7 49.6 56.95 48.85 57.75 48.15 58.6 47.15 58.55 46.15 58.5 45.45 57.65" fill="#666666" fill-rule="evenodd" stroke="none"/>
    <path d="M54.15 42.1 Q54.15 43.65 52.7 44.7 51.2 45.85 49.15 45.85 47.05 45.85 45.6 44.7 44.1 43.65 44.1 42.1 44.1 40.55 45.6 39.45 47.05 38.35 49.15 38.35 51.2 38.35 52.7 39.45 54.15 40.55 54.15 42.1" fill="#666666" fill-rule="evenodd" stroke="none"/>
    <path d="M52.5 41.9 Q52.5 42.9 51.55 43.65 50.55 44.4 49.15 44.4 47.75 44.4 46.75 43.65 45.75 42.9 45.75 41.9 45.75 40.85 46.75 40.1 47.75 39.35 49.15 39.35 50.55 39.35 51.55 40.1 52.5 40.85 52.5 41.9" fill="#333333" fill-rule="evenodd" stroke="none"/>
  </g>
</svg>
