<?xml version="1.0" encoding="UTF-8" standalone="no"?>
<svg xmlns:xlink="http://www.w3.org/1999/xlink" height="34.4px" width="29.95px" xmlns="http://www.w3.org/2000/svg">
  <g transform="matrix(1.0, 0.0, 0.0, 1.0, -22.65, -1.0)">
    <path d="M47.4 8.25 Q49.1 9.5 50.15 12.2 51.8 16.65 50.65 22.15 49.55 27.7 46.3 31.1 43.05 34.5 39.55 33.8 L38.3 33.8 31.45 32.85 26.5 32.0 Q25.55 30.25 24.85 27.25 23.45 21.3 24.8 15.3 26.15 9.3 30.2 5.3 32.25 3.3 34.0 2.5 L39.45 4.35 Q45.25 6.45 46.9 7.8 L47.4 8.25" fill="#bb2b00" fill-rule="evenodd" stroke="none"/>
    <path d="M47.4 8.25 Q49.1 9.5 50.15 12.2 51.8 16.65 50.65 22.15 49.55 27.7 46.3 31.1 43.05 34.5 39.55 33.8 L38.3 33.8 31.45 32.85 26.5 32.0 Q25.55 30.25 24.85 27.25 23.45 21.3 24.8 15.3 26.15 9.3 30.2 5.3 32.25 3.3 34.0 2.5 L39.45 4.35 Q45.25 6.45 46.9 7.8 L47.4 8.25 Z" fill="none" stroke="#000000" stroke-linecap="round" stroke-linejoin="round" stroke-width="3.0"/>
    <path d="M49.6 25.3 Q47.35 30.95 43.65 32.85 41.55 33.9 38.3 33.8 L31.45 32.85 26.5 32.0 Q25.55 30.25 24.85 27.25 23.45 21.3 24.8 15.3 26.15 9.3 30.2 5.3 32.25 3.3 34.0 2.5 L39.45 4.35 Q45.25 6.45 46.9 7.8 49.45 9.95 50.55 14.1 51.9 19.45 49.6 25.3" fill="#bb2b00" fill-rule="evenodd" stroke="none"/>
    <path d="M42.8 5.65 L43.0 5.75 43.05 5.75 Q45.85 6.95 46.9 7.8 49.45 9.95 50.55 14.1 51.9 19.45 49.6 25.3 47.35 30.95 43.65 32.85 41.55 33.9 38.3 33.8 L37.0 33.7 37.0 33.6 36.2 33.55 36.05 33.45 Q32.75 33.3 31.45 32.5 L31.3 32.4 30.55 31.95 29.55 31.55 27.4 31.65 26.95 31.55 27.0 31.45 Q27.6 31.25 27.6 30.2 L27.3 29.15 27.55 29.75 27.9 30.1 28.8 30.4 29.25 30.4 30.3 30.1 30.45 29.95 30.7 29.65 30.8 28.7 30.6 27.65 Q30.25 27.05 29.05 26.65 L29.1 26.6 28.95 26.6 27.4 26.3 26.75 25.75 26.75 25.55 27.0 25.5 27.6 25.75 28.6 26.0 Q29.4 26.0 29.9 25.4 L29.85 25.2 30.1 23.95 Q30.1 22.95 29.65 22.05 28.9 20.5 27.1 20.5 L26.35 20.7 26.05 20.65 26.0 20.45 26.3 20.2 26.3 20.15 Q26.35 19.75 26.7 19.65 L27.4 19.2 Q28.1 19.2 28.85 19.7 L29.95 20.2 Q31.05 20.2 31.6 19.35 L31.9 18.2 Q31.9 17.3 31.45 17.05 29.75 16.8 29.4 16.05 29.25 15.25 28.95 14.95 L28.95 14.2 29.4 14.9 Q29.75 15.45 30.6 15.45 31.75 15.45 32.65 14.55 33.4 13.75 33.4 13.1 33.35 10.8 31.45 10.8 L29.75 11.0 29.3 11.35 28.3 11.35 27.75 10.9 Q28.9 10.85 29.45 10.3 29.85 9.9 29.85 9.5 29.85 8.7 29.35 8.25 L29.45 8.2 30.25 8.2 30.2 9.25 Q30.45 10.15 32.0 10.15 33.75 10.15 34.8 9.15 L35.1 8.85 35.4 7.15 Q35.4 5.85 34.6 4.2 L34.7 3.95 34.85 4.15 35.1 4.2 37.95 4.8 39.0 4.8 39.95 4.8 40.0 4.95 41.8 5.25 42.8 5.65 M36.4 5.5 L36.4 5.45 36.35 5.45 36.3 5.5 36.4 5.5 M35.95 5.85 L35.95 5.75 35.9 5.7 35.95 5.85" fill="#fe9901" fill-rule="evenodd" stroke="none"/>
    <path d="M26.6 24.4 L27.35 25.75 27.75 26.45 28.7 26.65 32.15 27.75 35.3 28.65 Q38.1 29.6 38.1 30.15 L38.05 30.4 37.95 30.75 37.6 31.0 37.4 31.0 36.95 31.1 34.2 30.2 33.3 29.9 31.05 29.25 27.3 28.0 27.0 28.05 Q26.15 28.05 25.8 26.4 L25.6 24.65 25.65 23.05 Q25.75 22.25 26.1 21.85 L26.15 21.75 26.2 21.7 26.4 22.0 26.4 22.25 26.45 23.0 26.6 24.4" fill="#000000" fill-opacity="0.4" fill-rule="evenodd" stroke="none"/>
    <path d="M46.3 31.1 Q43.05 34.5 39.55 33.8 36.05 33.05 34.35 28.7 32.7 24.3 33.8 18.75 34.95 13.25 38.2 9.8 41.45 6.4 44.95 7.15 48.45 7.85 50.15 12.2 51.8 16.65 50.65 22.15 49.55 27.7 46.3 31.1" fill="#ffcc00" fill-rule="evenodd" stroke="none"/>
  </g>
</svg>
