<?xml version="1.0" encoding="UTF-8" standalone="no"?>
<svg xmlns:xlink="http://www.w3.org/1999/xlink" height="46.6px" width="67.6px" xmlns="http://www.w3.org/2000/svg">
  <g transform="matrix(1.0, 0.0, 0.0, 1.0, 33.55, 19.0)">
    <path d="M14.35 -18.3 L16.65 -18.5 Q23.65 -18.5 28.6 -12.4 L31.0 -8.8 Q33.55 -3.85 33.55 2.4 L33.55 3.75 Q30.55 -3.8 27.25 -8.8 21.25 -17.75 14.35 -18.3 M-0.65 3.75 Q-2.45 -0.75 -4.3 -4.3 L-4.4 -4.45 -6.95 -8.8 Q-12.9 -17.75 -19.8 -18.3 L-17.55 -18.5 Q-10.55 -18.5 -5.6 -12.4 -4.2 -10.7 -3.2 -8.8 -2.15 -6.8 -1.5 -4.6 L-1.35 -4.05 -1.85 -4.2 -1.35 -4.05 Q-0.6 -1.05 -0.6 2.4 L-0.65 3.75 M-1.5 -4.6 Q-1.45 -4.3 -1.85 -4.2 L-2.15 -4.2 -2.85 -4.25 -2.95 -4.25 -3.0 -4.25 -3.6 -4.4 -4.4 -4.45 -3.6 -4.4 -3.0 -4.25 -2.95 -4.25 -2.85 -4.25 -2.15 -4.2 -1.85 -4.2 Q-1.45 -4.3 -1.5 -4.6 M-4.3 -4.3 L-3.0 -4.25 -4.3 -4.3" fill="#ffffff" fill-rule="evenodd" stroke="none"/>
    <path d="M33.55 3.75 Q33.15 11.55 28.6 17.15 L27.5 18.4 Q24.6 21.45 21.15 22.6 16.4 21.1 12.95 18.4 2.5 10.25 4.1 -8.8 L4.45 -12.1 4.65 -12.4 Q8.8 -17.45 14.35 -18.3 21.25 -17.75 27.25 -8.8 30.55 -3.8 33.55 3.75 M-1.3 8.45 Q-2.45 13.3 -5.6 17.15 L-6.65 18.4 Q-9.55 21.45 -13.0 22.6 L-16.4 21.3 -16.4 21.25 Q-16.25 20.7 -15.5 20.1 L-13.55 19.0 -12.9 18.7 -12.45 18.4 -12.25 18.15 Q-11.6 17.2 -12.85 16.7 -13.4 16.15 -14.15 16.2 L-11.25 11.85 -9.95 10.4 -9.35 9.65 -9.95 10.4 -11.25 11.85 -14.15 16.2 Q-13.4 16.15 -12.85 16.7 -11.6 17.2 -12.25 18.15 L-12.45 18.4 -12.9 18.7 -13.55 19.0 -15.5 20.1 Q-16.25 20.7 -16.4 21.25 L-16.4 21.3 Q-19.05 20.05 -21.2 18.4 L-21.6 18.1 -20.55 16.4 Q-19.85 15.5 -18.15 15.6 L-17.35 15.7 Q-16.65 15.8 -16.4 16.2 L-15.85 16.5 -12.95 13.6 -11.85 12.5 -11.25 11.85 -11.85 12.5 -12.95 13.6 -15.85 16.5 -16.4 16.2 Q-16.65 15.8 -17.35 15.7 L-18.15 15.6 Q-19.85 15.5 -20.55 16.4 L-21.6 18.1 Q-24.8 15.5 -26.85 11.8 L-26.15 11.85 -25.35 12.2 -25.15 13.2 Q-23.45 13.3 -21.75 12.5 -20.95 12.4 -21.15 13.4 -21.3 14.15 -20.95 14.4 L-19.95 13.6 Q-19.05 12.35 -17.75 11.4 L-15.8 9.95 Q-15.0 9.35 -13.8 9.25 -11.6 10.2 -9.35 9.65 L-8.75 9.5 Q-8.0 10.05 -6.95 10.2 -5.55 10.35 -4.65 9.7 L-4.0 9.3 Q-2.7 8.65 -1.3 8.45 M-4.3 -4.3 L-4.75 -4.3 -4.8 -4.3 -5.75 -4.3 Q-7.0 -3.35 -8.75 -2.55 -9.6 -2.15 -10.4 -1.9 L-10.95 -1.6 -12.75 -1.3 -14.55 -1.55 -15.35 -1.75 -16.7 -2.3 -17.4 -2.75 -18.75 -3.45 -20.15 -3.75 Q-20.65 -3.8 -21.0 -3.25 -21.6 -2.2 -22.95 -2.1 L-23.55 -2.0 -24.75 -1.9 Q-26.0 -2.55 -27.0 -3.95 L-27.9 -4.85 -28.9 -5.5 -29.6 -6.1 Q-30.0 -6.3 -30.25 -6.85 L-30.25 -6.9 -30.1 -8.8 -29.75 -12.1 -29.55 -12.4 Q-25.35 -17.45 -19.8 -18.3 -12.9 -17.75 -6.95 -8.8 L-4.4 -4.45 -4.3 -4.3 M-19.55 -9.4 Q-18.55 -9.5 -17.65 -8.8 L-17.45 -8.0 Q-17.2 -7.0 -16.4 -6.15 L-15.7 -5.45 Q-15.45 -5.2 -15.45 -4.75 L-15.55 -4.8 Q-17.35 -5.45 -18.5 -6.45 L-19.95 -8.0 -20.5 -8.8 -21.75 -10.8 -22.2 -9.2 -22.35 -8.8 Q-22.7 -8.05 -23.35 -7.6 -22.7 -8.05 -22.35 -8.8 L-22.2 -9.2 -21.75 -10.8 -20.5 -8.8 -19.95 -8.0 -18.5 -6.45 Q-17.35 -5.45 -15.55 -4.8 L-15.45 -4.75 Q-15.45 -5.2 -15.7 -5.45 L-16.4 -6.15 Q-17.2 -7.0 -17.45 -8.0 L-17.65 -8.8 Q-18.55 -9.5 -19.55 -9.4 M-15.45 -4.75 L-14.6 -4.3 Q-12.25 -2.65 -9.35 -3.2 -12.25 -2.65 -14.6 -4.3 L-15.45 -4.75 M-14.55 -8.4 L-13.75 -8.6 -13.0 -8.55 Q-12.1 -7.6 -12.15 -6.2 -12.2 -5.5 -11.7 -5.3 L-10.6 -4.55 Q-9.8 -3.9 -8.75 -3.5 -9.8 -3.9 -10.6 -4.55 L-11.7 -5.3 Q-12.2 -5.5 -12.15 -6.2 -12.1 -7.6 -13.0 -8.55 L-13.75 -8.6 -14.55 -8.4 M-20.15 -13.8 Q-19.1 -13.5 -18.2 -12.7 -16.95 -13.2 -15.95 -12.4 L-14.3 -11.5 Q-13.3 -11.15 -12.85 -12.45 L-10.95 -12.3 Q-10.2 -12.15 -9.95 -11.6 L-9.75 -11.0 -8.9 -8.8 -7.9 -6.0 -7.45 -5.3 Q-6.65 -4.35 -5.75 -4.3 -6.65 -4.35 -7.45 -5.3 L-7.9 -6.0 -8.9 -8.8 -9.75 -11.0 -9.95 -11.6 Q-10.2 -12.15 -10.95 -12.3 L-12.85 -12.45 Q-13.3 -11.15 -14.3 -11.5 L-15.95 -12.4 Q-16.95 -13.2 -18.2 -12.7 -19.1 -13.5 -20.15 -13.8 M-4.75 -4.3 L-4.4 -4.45 -4.75 -4.3 M-5.35 14.4 L-4.5 13.65 Q-3.35 12.15 -3.55 10.0 -3.35 12.15 -4.5 13.65 L-5.35 14.4 M-11.35 20.6 Q-11.15 20.3 -10.75 20.3 -9.9 20.25 -8.85 19.55 L-8.35 18.4 Q-7.9 17.15 -7.85 15.7 -8.2 15.45 -8.15 15.0 L-4.95 10.2 -8.15 15.0 Q-8.2 15.45 -7.85 15.7 -7.9 17.15 -8.35 18.4 L-8.85 19.55 Q-9.9 20.25 -10.75 20.3 -11.15 20.3 -11.35 20.6" fill="#cc0000" fill-rule="evenodd" stroke="none"/>
    <path d="M21.15 22.6 Q19.0 23.3 16.65 23.3 L19.25 27.1 14.9 27.1 14.9 23.2 Q9.75 22.6 5.75 18.4 L4.65 17.15 Q1.35 13.1 0.3 7.95 -0.3 5.35 -0.3 2.4 -0.3 -3.85 2.3 -8.8 3.2 -10.55 4.45 -12.1 L4.1 -8.8 Q2.5 10.25 12.95 18.4 16.4 21.1 21.15 22.6 M-13.0 22.6 L-17.55 23.3 -14.9 27.1 -19.25 27.1 -19.25 23.2 Q-24.45 22.6 -28.45 18.4 L-29.55 17.15 -32.0 13.35 -30.35 13.1 Q-29.35 13.15 -29.1 12.4 -28.8 11.55 -28.35 11.2 -28.25 11.8 -27.55 11.75 L-26.85 11.8 Q-24.8 15.5 -21.6 18.1 L-21.2 18.4 Q-19.05 20.05 -16.4 21.3 L-13.0 22.6 M-30.25 -6.9 Q-30.35 -7.6 -31.3 -7.25 -31.2 -6.05 -32.15 -6.15 L-33.05 -6.15 -31.85 -8.8 Q-31.0 -10.5 -29.75 -12.1 L-30.1 -8.8 -30.25 -6.9 M-16.95 22.6 L-16.4 21.3 -16.95 22.6 M-21.95 18.8 L-21.75 18.4 -21.6 18.1 -21.75 18.4 -21.95 18.8" fill="#830000" fill-rule="evenodd" stroke="none"/>
    <path d="M14.35 -18.3 L16.65 -18.5 Q23.65 -18.5 28.6 -12.4 L31.0 -8.8 Q33.55 -3.85 33.55 2.4 L33.55 3.75 Q33.15 11.55 28.6 17.15 L27.5 18.4 Q24.6 21.45 21.15 22.6 19.0 23.3 16.65 23.3 L19.25 27.1 14.9 27.1 14.9 23.2 Q9.75 22.6 5.75 18.4 L4.65 17.15 Q1.35 13.1 0.3 7.95 L-1.25 8.45 -1.3 8.45 Q-2.45 13.3 -5.6 17.15 L-6.65 18.4 Q-9.55 21.45 -13.0 22.6 L-17.55 23.3 -14.9 27.1 -19.25 27.1 -19.25 23.2 Q-24.45 22.6 -28.45 18.4 L-29.55 17.15 -32.0 13.35 -30.35 13.1 Q-29.35 13.15 -29.1 12.4 -28.8 11.55 -28.35 11.2 -28.25 11.8 -27.55 11.75 L-26.85 11.8 -26.15 11.85 -25.35 12.2 -25.15 13.2 Q-23.45 13.3 -21.75 12.5 -20.95 12.4 -21.15 13.4 -21.3 14.15 -20.95 14.4 L-19.95 13.6 Q-19.05 12.35 -17.75 11.4 L-15.8 9.95 Q-15.0 9.35 -13.8 9.25 -11.6 10.2 -9.35 9.65 L-8.75 9.5 Q-8.0 10.05 -6.95 10.2 -5.55 10.35 -4.65 9.7 L-4.0 9.3 Q-2.7 8.65 -1.3 8.45 -0.75 6.2 -0.65 3.75 L-0.6 2.4 Q-0.6 -1.05 -1.35 -4.05 L-1.3 -4.0 -0.65 -3.9 M-4.3 -4.3 L-4.75 -4.3 -4.8 -4.3 -5.75 -4.3 Q-7.0 -3.35 -8.75 -2.55 -9.6 -2.15 -10.4 -1.9 L-10.95 -1.6 -12.75 -1.3 -14.55 -1.55 -15.35 -1.75 -16.7 -2.3 -17.4 -2.75 -18.75 -3.45 -20.15 -3.75 Q-20.65 -3.8 -21.0 -3.25 -21.6 -2.2 -22.95 -2.1 L-23.55 -2.0 -24.75 -1.9 Q-26.0 -2.55 -27.0 -3.95 L-27.9 -4.85 -28.9 -5.5 -29.6 -6.1 Q-30.0 -6.3 -30.25 -6.85 L-30.25 -6.9 Q-30.35 -7.6 -31.3 -7.25 -31.2 -6.05 -32.15 -6.15 L-33.05 -6.15 -31.85 -8.8 Q-31.0 -10.5 -29.75 -12.1 L-29.55 -12.4 Q-25.35 -17.45 -19.8 -18.3 L-17.55 -18.5 Q-10.55 -18.5 -5.6 -12.4 -4.2 -10.7 -3.2 -8.8 -2.15 -6.8 -1.5 -4.6 L-1.35 -4.05 -1.85 -4.2 Q-1.45 -4.3 -1.5 -4.6 M4.45 -12.1 L4.65 -12.4 Q8.8 -17.45 14.35 -18.3 M0.3 7.95 Q-0.3 5.35 -0.3 2.4 -0.3 -3.85 2.3 -8.8 3.2 -10.55 4.45 -12.1 M-23.35 -7.6 Q-22.7 -8.05 -22.35 -8.8 L-22.2 -9.2 -21.75 -10.8 -20.5 -8.8 -19.95 -8.0 -18.5 -6.45 Q-17.35 -5.45 -15.55 -4.8 L-15.45 -4.75 Q-15.45 -5.2 -15.7 -5.45 L-16.4 -6.15 Q-17.2 -7.0 -17.45 -8.0 L-17.65 -8.8 Q-18.55 -9.5 -19.55 -9.4 M-5.75 -4.3 Q-6.65 -4.35 -7.45 -5.3 L-7.9 -6.0 -8.9 -8.8 -9.75 -11.0 -9.95 -11.6 Q-10.2 -12.15 -10.95 -12.3 L-12.85 -12.45 Q-13.3 -11.15 -14.3 -11.5 L-15.95 -12.4 Q-16.95 -13.2 -18.2 -12.7 -19.1 -13.5 -20.15 -13.8 M-8.75 -3.5 Q-9.8 -3.9 -10.6 -4.55 L-11.7 -5.3 Q-12.2 -5.5 -12.15 -6.2 -12.1 -7.6 -13.0 -8.55 L-13.75 -8.6 -14.55 -8.4 M-9.35 -3.2 Q-12.25 -2.65 -14.6 -4.3 L-15.45 -4.75 M-4.4 -4.45 L-3.6 -4.4 -3.0 -4.25 -2.95 -4.25 -2.85 -4.25 -2.15 -4.2 -1.85 -4.2 M-4.4 -4.45 L-4.75 -4.3 M-3.0 -4.25 L-4.3 -4.3 M-9.35 9.65 L-9.95 10.4 -11.25 11.85 -14.15 16.2 Q-13.4 16.15 -12.85 16.7 -11.6 17.2 -12.25 18.15 L-12.45 18.4 -12.9 18.7 -13.55 19.0 -15.5 20.1 Q-16.25 20.7 -16.4 21.25 L-16.4 21.3 -16.95 22.6 M-11.25 11.85 L-11.85 12.5 -12.95 13.6 -15.85 16.5 -16.4 16.2 Q-16.65 15.8 -17.35 15.7 L-18.15 15.6 Q-19.85 15.5 -20.55 16.4 L-21.6 18.1 -21.75 18.4 -21.95 18.8 M-4.95 10.2 L-8.15 15.0 Q-8.2 15.45 -7.85 15.7 -7.9 17.15 -8.35 18.4 L-8.85 19.55 Q-9.9 20.25 -10.75 20.3 -11.15 20.3 -11.35 20.6 M-3.55 10.0 Q-3.35 12.15 -4.5 13.65 L-5.35 14.4" fill="none" stroke="#620505" stroke-linecap="round" stroke-linejoin="round" stroke-width="1.0"/>
  </g>
</svg>
