<?xml version="1.0" encoding="UTF-8" standalone="no"?>
<svg xmlns:xlink="http://www.w3.org/1999/xlink" height="58.55px" width="30.8px" xmlns="http://www.w3.org/2000/svg">
  <g transform="matrix(1.0, 0.0, 0.0, 1.0, 15.35, 27.8)">
    <path d="M2.55 -14.45 L0.1 -19.05 Q-1.4 -21.6 -3.6 -23.55 L-4.25 -24.2 Q-4.85 -24.65 -4.05 -25.2 L-1.7 -26.8 Q-2.35 -25.95 -2.25 -24.65 -2.2 -24.05 -1.6 -23.65 L-0.5 -22.85 Q3.15 -19.4 6.2 -15.45 L7.0 -14.45 7.2 -14.15 Q8.45 -12.4 8.4 -10.25 8.35 -7.15 7.45 -4.15 L6.75 -2.1 6.5 -1.45 Q6.15 -0.5 6.1 0.5 5.8 1.9 5.9 3.3 5.95 4.0 6.3 4.55 7.25 6.3 8.55 4.95 L9.25 3.85 Q10.4 0.6 10.1 -2.85 9.95 -4.75 10.7 -6.4 11.4 -7.05 11.85 -6.95 11.2 -5.85 11.1 -4.65 10.85 -0.95 12.45 2.4 L13.45 4.85 Q14.65 8.5 14.4 12.2 L14.2 14.1 13.85 15.85 Q13.4 18.2 12.6 20.45 L12.15 21.5 12.05 21.7 12.05 21.8 12.0 21.9 11.0 24.0 10.4 24.9 10.2 25.15 9.25 26.15 Q5.6 29.75 0.5 29.75 -4.7 29.75 -8.3 26.15 L-9.75 24.45 -10.35 23.65 -11.45 21.5 -11.85 20.45 -12.7 17.5 -13.5 15.15 -14.05 12.2 Q-14.65 8.65 -14.05 5.1 L-13.3 1.85 Q-12.0 -2.45 -9.65 -6.2 -9.05 -7.2 -9.2 -7.2 -8.95 -8.1 -9.05 -9.8 L-9.5 -10.7 Q-7.9 -10.65 -7.3 -9.0 L-7.2 -7.75 Q-7.2 -7.3 -7.35 -6.95 -8.95 -3.2 -9.4 0.75 -9.75 2.8 -8.75 4.45 L-7.85 5.55 -7.0 6.15 Q-4.9 6.1 -3.05 4.25 -2.3 3.4 -2.05 2.25 -1.7 0.75 -1.85 -0.8 -1.85 -1.65 -2.2 -2.6 -3.55 -5.95 -5.65 -8.9 L-7.15 -11.3 Q-8.0 -12.75 -8.3 -14.4 L-8.3 -14.45 Q-8.7 -16.55 -7.15 -18.0 L-4.05 -20.3 Q-5.5 -17.3 -5.05 -14.45 -4.85 -12.5 -3.75 -10.6 -1.9 -7.35 1.5 -8.55 L2.6 -9.3 Q3.95 -11.0 3.05 -13.1 L2.55 -14.45 M9.05 12.2 L7.6 10.5 Q4.7 7.55 0.5 7.55 -3.8 7.55 -6.8 10.5 L-8.2 12.2 Q-9.7 14.65 -9.7 17.7 -9.7 19.15 -9.35 20.45 L-9.05 21.5 Q-8.3 23.35 -6.8 24.9 -3.8 27.9 0.5 27.9 4.7 27.9 7.6 24.9 9.2 23.35 9.95 21.5 L10.3 20.45 10.6 17.7 Q10.6 14.65 9.05 12.2" fill="#ff9933" fill-rule="evenodd" stroke="none"/>
    <path d="M9.05 12.2 Q10.6 14.65 10.6 17.7 L10.3 20.45 9.95 21.5 Q9.2 23.35 7.6 24.9 4.7 27.9 0.5 27.9 -3.8 27.9 -6.8 24.9 -8.3 23.35 -9.05 21.5 L-9.35 20.45 Q-9.7 19.15 -9.7 17.7 -9.7 14.65 -8.2 12.2 L-6.8 10.5 Q-3.8 7.55 0.5 7.55 4.7 7.55 7.6 10.5 L9.05 12.2" fill="#ffcc00" fill-rule="evenodd" stroke="none"/>
    <path d="M2.55 -14.45 L0.1 -19.05 Q-1.4 -21.6 -3.6 -23.55 L-4.25 -24.2 Q-4.85 -24.65 -4.05 -25.2 L-1.7 -26.8 Q-2.35 -25.95 -2.25 -24.65 -2.2 -24.05 -1.6 -23.65 L-0.5 -22.85 Q3.15 -19.4 6.2 -15.45 L7.0 -14.45 7.2 -14.15 Q8.45 -12.4 8.4 -10.25 8.35 -7.15 7.45 -4.15 L6.75 -2.1 6.5 -1.45 Q6.15 -0.5 6.1 0.5 5.8 1.9 5.9 3.3 5.95 4.0 6.3 4.55 7.25 6.3 8.55 4.95 L9.25 3.85 Q10.4 0.6 10.1 -2.85 9.95 -4.75 10.7 -6.4 11.4 -7.05 11.85 -6.95 11.2 -5.85 11.1 -4.65 10.85 -0.95 12.45 2.4 L13.45 4.85 Q14.65 8.5 14.4 12.2 L14.2 14.1 13.85 15.85 Q13.4 18.2 12.6 20.45 L12.15 21.5 12.05 21.7 12.05 21.8 12.0 21.9 11.0 24.0 10.4 24.9 10.2 25.15 9.25 26.15 Q5.6 29.75 0.5 29.75 -4.7 29.75 -8.3 26.15 L-9.75 24.45 -10.35 23.65 -11.45 21.5 -11.85 20.45 -12.7 17.5 -13.5 15.15 -14.05 12.2 Q-14.65 8.65 -14.05 5.1 L-13.3 1.85 Q-12.0 -2.45 -9.65 -6.2 -9.05 -7.2 -9.2 -7.2 -8.95 -8.1 -9.05 -9.8 L-9.5 -10.7 Q-7.9 -10.65 -7.3 -9.0 L-7.2 -7.75 Q-7.2 -7.3 -7.35 -6.95 -8.95 -3.2 -9.4 0.75 -9.75 2.8 -8.75 4.45 L-7.85 5.55 -7.0 6.15 Q-4.9 6.1 -3.05 4.25 -2.3 3.4 -2.05 2.25 -1.7 0.75 -1.85 -0.8 -1.85 -1.65 -2.2 -2.6 -3.55 -5.95 -5.65 -8.9 L-7.15 -11.3 Q-8.0 -12.75 -8.3 -14.4 L-8.3 -14.45 Q-8.7 -16.55 -7.15 -18.0 L-4.05 -20.3 Q-5.5 -17.3 -5.05 -14.45 -4.85 -12.5 -3.75 -10.6 -1.9 -7.35 1.5 -8.55 L2.6 -9.3 Q3.95 -11.0 3.05 -13.1 L2.55 -14.45 Z" fill="none" stroke="#cc6600" stroke-linecap="round" stroke-linejoin="round" stroke-width="2.0"/>
  </g>
</svg>
