<?xml version="1.0" encoding="UTF-8" standalone="no"?>
<svg xmlns:xlink="http://www.w3.org/1999/xlink" height="6.0px" width="15.2px" xmlns="http://www.w3.org/2000/svg">
  <g transform="matrix(1.0, 0.0, 0.0, 1.0, 2.25, 5.5)">
    <path d="M10.7 -1.7 L10.45 -1.1 9.95 -0.85 10.6 -1.75 10.7 -2.35 10.95 -2.7 Q11.35 -2.65 11.35 -1.15 L11.35 -1.1 11.3 -1.15 11.3 -1.2 11.25 -1.7 11.2 -1.85 11.15 -1.9 11.0 -2.0 10.85 -1.95 10.75 -1.85 10.7 -1.7 M-1.75 -0.65 L-1.75 -0.6 -1.65 -0.5 -1.5 -0.35 -1.15 -0.15 -1.0 -0.1 -0.45 -0.1 -0.3 -0.15 -0.2 -0.25 0.0 -1.35 0.0 -1.15 Q0.0 -0.55 -0.15 -0.2 -0.3 0.0 -0.6 0.0 -1.25 0.0 -1.55 -0.3 L-1.6 -0.3 -1.75 -0.55 -1.75 -0.6 -1.75 -0.65" fill="#ffffff" fill-rule="evenodd" stroke="none"/>
    <path d="M3.3 -3.6 L4.15 -3.2 4.5 -3.2 4.65 -3.3 4.8 -3.35 5.45 -3.45 Q6.55 -3.5 6.65 -2.05 L6.65 -2.0 6.45 -1.05 6.45 -1.0 8.95 -1.05 Q9.95 -1.25 10.1 -1.85 L10.15 -1.9 10.2 -2.45 10.2 -2.5 Q10.4 -3.25 10.95 -3.2 11.8 -3.25 11.85 -1.45 L12.3 -1.65 12.4 -1.7 12.85 -1.55 12.95 -1.2 12.95 -1.15 12.5 -0.7 11.55 -0.55 Q11.05 -0.55 10.9 -0.8 L10.75 -0.7 Q10.2 -0.3 9.0 -0.1 L6.25 0.0 Q5.5 0.0 5.4 -0.4 5.25 -0.55 5.35 -0.85 L5.55 -2.05 5.5 -2.3 5.5 -2.25 5.4 -2.35 4.25 -2.1 3.65 -2.1 3.5 -2.15 3.4 -2.25 Q2.8 -2.4 1.95 -3.15 L1.0 -4.05 Q0.4 -2.95 0.5 -1.15 L0.3 0.05 Q0.0 0.5 -0.6 0.5 -1.45 0.5 -1.9 0.1 L-2.25 -0.55 Q-2.25 -1.2 -1.75 -1.15 L-1.35 -0.9 -1.3 -0.85 -1.3 -0.8 -0.9 -0.6 -0.6 -0.6 -0.45 -2.2 -0.2 -4.15 0.25 -5.15 Q0.65 -5.7 1.15 -5.35 L1.2 -5.3 1.6 -4.9 1.7 -4.85 2.45 -4.05 2.5 -4.0 3.3 -3.6 M-1.75 -0.65 L-1.75 -0.6 -1.75 -0.55 -1.6 -0.3 -1.55 -0.3 Q-1.25 0.0 -0.6 0.0 -0.3 0.0 -0.15 -0.2 0.0 -0.55 0.0 -1.15 L0.0 -1.35 -0.2 -0.25 -0.3 -0.15 -0.45 -0.1 -1.0 -0.1 -1.15 -0.15 -1.5 -0.35 -1.65 -0.5 -1.75 -0.6 -1.75 -0.65 M10.7 -1.7 L10.75 -1.85 10.85 -1.95 11.0 -2.0 11.15 -1.9 11.2 -1.85 11.25 -1.7 11.3 -1.2 11.3 -1.15 11.35 -1.1 11.35 -1.15 Q11.35 -2.65 10.95 -2.7 L10.7 -2.35 10.6 -1.75 9.95 -0.85 10.45 -1.1 10.7 -1.7" fill="#cf96fe" fill-rule="evenodd" stroke="none"/>
    <path d="M1.0 -5.15 L1.5 -4.7 2.4 -3.8 3.15 -3.4 4.05 -2.95 4.55 -2.95 4.85 -3.15 5.45 -3.2 Q6.3 -3.2 6.4 -2.05 L6.2 -1.1 6.2 -0.75 9.0 -0.8 Q10.2 -1.05 10.35 -1.8 L10.45 -2.45 Q10.6 -2.95 10.95 -2.95 11.6 -2.95 11.6 -1.15 L12.4 -1.45 Q12.8 -1.45 12.7 -1.2 L12.4 -0.95 11.55 -0.8 Q11.1 -0.8 11.05 -1.15 L11.0 -1.7 10.95 -1.75 Q11.2 -0.75 8.95 -0.35 L6.25 -0.25 Q5.7 -0.25 5.6 -0.5 L5.6 -0.8 5.8 -2.05 5.7 -2.4 5.4 -2.65 4.25 -2.35 3.65 -2.35 3.65 -2.5 Q3.05 -2.5 2.1 -3.35 L0.9 -4.5 Q0.15 -3.25 0.25 -1.15 0.3 0.25 -0.6 0.25 L-1.75 -0.1 -2.0 -0.55 -1.75 -0.9 -1.55 -0.75 -1.45 -0.6 -1.0 -0.35 -0.45 -0.35 Q-0.25 -0.95 -0.2 -2.2 L0.05 -4.1 0.45 -5.0 1.0 -5.15" fill="#ffffff" fill-rule="evenodd" stroke="none"/>
  </g>
</svg>
