<?xml version="1.0" encoding="UTF-8" standalone="no"?>
<svg xmlns:xlink="http://www.w3.org/1999/xlink" height="3.55px" width="10.75px" xmlns="http://www.w3.org/2000/svg">
  <g transform="matrix(1.0, 0.0, 0.0, 1.0, -0.7, 13.0)">
    <path d="M5.25 -12.45 L5.45 -12.5 5.55 -12.3 6.05 -11.1 6.8 -10.05 6.2 -10.75 Q5.7 -11.55 5.5 -12.25 L5.4 -12.4 5.25 -12.45 M8.85 -12.1 L9.95 -10.4 10.05 -10.25 10.2 -10.25 10.35 -10.3 10.5 -10.95 10.7 -11.15 10.95 -10.95 10.7 -10.45 10.1 -10.05 Q9.8 -10.1 9.45 -10.85 8.95 -12.0 8.4 -11.95 8.0 -12.0 7.6 -10.75 7.45 -10.1 7.15 -9.95 L7.7 -11.4 Q7.85 -12.1 8.85 -12.1 M3.3 -11.75 L3.3 -11.7 3.2 -11.25 3.2 -11.2 3.25 -11.05 3.4 -10.95 3.55 -10.95 3.75 -11.1 3.5 -10.8 3.2 -10.5 3.1 -10.6 3.1 -10.65 3.1 -10.95 3.1 -11.0 3.2 -11.65 3.25 -11.65 3.3 -11.75 M3.25 -12.0 L3.05 -12.1 2.9 -12.1 3.15 -12.15 3.3 -11.95 3.3 -11.9 3.25 -12.0 M3.0 -11.55 L3.05 -11.6 3.1 -11.6 3.0 -11.55 M1.3 -11.3 L1.2 -11.3 1.75 -11.55 1.3 -11.3" fill="#ffffff" fill-rule="evenodd" stroke="none"/>
    <path d="M4.55 -12.5 Q5.1 -13.05 5.45 -13.0 5.95 -13.05 6.05 -12.4 L6.05 -12.35 Q6.1 -11.95 6.5 -11.35 L7.0 -10.65 7.2 -11.5 Q7.35 -12.6 8.85 -12.6 9.3 -12.65 10.05 -11.25 10.2 -11.65 10.7 -11.65 11.3 -11.65 11.45 -11.05 L11.45 -11.0 11.1 -10.15 Q10.65 -9.55 10.1 -9.55 9.5 -9.5 9.0 -10.65 L8.4 -11.45 8.1 -10.6 8.1 -10.65 Q7.8 -9.4 7.0 -9.45 6.5 -9.4 5.8 -10.5 L5.15 -11.8 4.3 -11.05 3.9 -10.45 Q3.45 -9.95 3.2 -10.0 2.7 -10.0 2.6 -10.55 L2.6 -11.05 2.65 -11.5 1.5 -10.85 1.35 -10.8 Q0.65 -10.8 0.7 -11.3 L1.85 -12.15 3.15 -12.65 Q3.8 -12.65 3.8 -11.95 L3.8 -11.9 3.8 -11.8 4.55 -12.5 M1.3 -11.3 L1.75 -11.55 1.2 -11.3 1.3 -11.3 M3.0 -11.55 L3.1 -11.6 3.05 -11.6 3.0 -11.55 M3.25 -12.0 L3.3 -11.9 3.3 -11.95 3.15 -12.15 2.9 -12.1 3.05 -12.1 3.25 -12.0 M3.3 -11.75 L3.25 -11.65 3.2 -11.65 3.1 -11.0 3.1 -10.95 3.1 -10.65 3.1 -10.6 3.2 -10.5 3.5 -10.8 3.75 -11.1 3.55 -10.95 3.4 -10.95 3.25 -11.05 3.2 -11.2 3.2 -11.25 3.3 -11.7 3.3 -11.75 M8.85 -12.1 Q7.85 -12.1 7.7 -11.4 L7.15 -9.95 Q7.45 -10.1 7.6 -10.75 8.0 -12.0 8.4 -11.95 8.95 -12.0 9.45 -10.85 9.8 -10.1 10.1 -10.05 L10.7 -10.45 10.95 -10.95 10.7 -11.15 10.5 -10.95 10.35 -10.3 10.2 -10.25 10.05 -10.25 9.95 -10.4 8.85 -12.1 M5.25 -12.45 L5.4 -12.4 5.5 -12.25 Q5.7 -11.55 6.2 -10.75 L6.8 -10.05 6.05 -11.1 5.55 -12.3 5.45 -12.5 5.25 -12.45" fill="#cf96fe" fill-rule="evenodd" stroke="none"/>
    <path d="M9.2 -10.75 Q8.8 -11.7 8.4 -11.7 8.15 -11.7 7.85 -10.7 7.6 -9.7 7.0 -9.7 6.6 -9.7 6.0 -10.65 5.5 -11.45 5.25 -12.2 L4.05 -11.15 3.7 -10.65 3.2 -10.25 Q2.9 -10.25 2.85 -10.6 L2.85 -11.0 Q2.85 -11.45 3.0 -11.8 L3.05 -11.85 Q2.6 -11.85 1.35 -11.05 L0.95 -11.3 1.95 -11.95 3.15 -12.4 Q3.55 -12.4 3.55 -11.95 L3.45 -11.25 3.45 -11.2 4.7 -12.35 Q5.65 -13.2 5.8 -12.35 5.85 -11.9 6.25 -11.25 L7.0 -10.2 7.45 -11.45 Q7.6 -12.35 8.85 -12.35 9.25 -12.35 10.15 -10.5 L10.25 -11.0 Q10.3 -11.4 10.7 -11.4 L11.2 -11.0 10.9 -10.3 Q10.55 -9.8 10.1 -9.8 9.65 -9.8 9.2 -10.75" fill="#ffffff" fill-rule="evenodd" stroke="none"/>
  </g>
</svg>
