<?xml version="1.0" encoding="UTF-8" standalone="no"?>
<svg xmlns:xlink="http://www.w3.org/1999/xlink" height="95.05px" width="99.8px" xmlns="http://www.w3.org/2000/svg">
  <g transform="matrix(1.0, 0.0, 0.0, 1.0, 32.9, 43.2)">
    <path d="M15.3 -1.0 Q15.25 -3.3 13.5 -5.2 11.85 -6.95 8.7 -8.4 2.2 -11.25 -6.85 -10.85 -15.9 -10.45 -22.25 -6.95 -24.35 -5.8 -25.8 -4.45 -28.5 -1.95 -28.4 1.0 -28.35 3.4 -26.55 5.35 -24.9 7.1 -21.8 8.45 -15.3 11.35 -6.2 10.9 2.8 10.55 9.1 7.05 11.3 5.8 12.7 4.55 15.35 1.95 15.3 -1.0" fill="#ffffff" fill-rule="evenodd" stroke="none"/>
    <path d="M15.3 -1.0 Q15.25 -3.3 13.5 -5.2 11.85 -6.95 8.7 -8.4 2.2 -11.25 -6.85 -10.85 -15.9 -10.45 -22.25 -6.95 -24.35 -5.8 -25.8 -4.45 -28.5 -1.95 -28.4 1.0 -28.35 3.4 -26.55 5.35 -24.9 7.1 -21.8 8.45 -15.3 11.35 -6.2 10.9 2.8 10.55 9.1 7.05 11.3 5.8 12.7 4.55 15.35 1.95 15.3 -1.0 Z" fill="none" stroke="#954900" stroke-linecap="round" stroke-linejoin="round" stroke-width="9.0"/>
    <path d="M4.2 11.55 Q3.25 17.65 0.05 21.75 -4.15 18.7 -6.1 13.1 -7.55 22.25 -12.4 29.25 -16.95 22.9 -17.75 12.95 -19.1 22.15 -23.9 29.45 -26.55 24.8 -26.55 13.05 L-27.95 17.1 -28.0 17.1 Q-28.4 23.7 -25.8 33.6 -23.9 41.2 -21.4 47.35 L-12.9 42.95 Q-16.85 34.6 -18.35 23.55 -14.3 35.65 -6.05 44.95 L2.6 39.55 Q-3.35 29.95 -6.85 19.35 -1.0 29.4 6.85 35.1 L13.9 29.25 Q10.0 23.3 7.45 15.9 L4.2 11.55" fill="#bf7926" fill-rule="evenodd" stroke="none"/>
    <path d="M-27.95 17.1 Q-27.7 13.45 -26.6 10.8 -24.95 6.65 -21.4 3.55 -18.2 0.85 -12.25 -2.05 M4.2 11.55 L7.45 15.9 Q10.0 23.3 13.9 29.25 L6.85 35.1 Q-1.0 29.4 -6.85 19.35 -3.35 29.95 2.6 39.55 L-6.05 44.95 Q-14.3 35.65 -18.35 23.55 -16.85 34.6 -12.9 42.95 L-21.4 47.35 Q-23.9 41.2 -25.8 33.6 -28.4 23.7 -28.0 17.1 L-27.95 17.1 -26.55 13.05 Q-26.55 24.8 -23.9 29.45 -19.1 22.15 -17.75 12.95 -16.95 22.9 -12.4 29.25 -7.55 22.25 -6.1 13.1 -4.15 18.7 0.05 21.75 3.25 17.65 4.2 11.55 M7.45 -6.85 Q8.4 -2.0 7.95 4.25 7.65 9.5 6.65 13.45 L7.45 15.9" fill="none" stroke="#954900" stroke-linecap="round" stroke-linejoin="round" stroke-width="9.0"/>
    <path d="M58.95 2.8 Q56.3 3.7 47.45 -1.7 33.2 -10.45 30.5 -11.8 20.05 -17.0 13.65 -15.5 6.45 -13.85 3.4 -3.85 L-3.2 4.9 -9.25 0.35 -15.35 8.4 Q-17.6 3.9 -18.1 -0.25 -19.75 -14.1 -9.4 -26.5 0.9 -38.75 13.8 -38.7 26.9 -38.6 41.1 -31.9 53.9 -25.85 57.7 -19.8 61.9 -13.1 62.35 -5.85 62.8 1.5 58.95 2.8" fill="#ffcf2e" fill-rule="evenodd" stroke="none"/>
    <path d="M58.95 2.8 Q62.8 1.5 62.35 -5.85 61.9 -13.1 57.7 -19.8 53.9 -25.85 41.1 -31.9 26.9 -38.6 13.8 -38.7 0.9 -38.75 -9.4 -26.5 -19.75 -14.1 -18.1 -0.25 -17.6 3.9 -15.35 8.4 L-9.25 0.35 -3.2 4.9 3.4 -3.85 Q6.45 -13.85 13.65 -15.5 20.05 -17.0 30.5 -11.8 33.2 -10.45 47.45 -1.7 56.3 3.7 58.95 2.8 Z" fill="none" stroke="#954900" stroke-linecap="round" stroke-linejoin="round" stroke-width="9.0"/>
    <path d="M58.95 2.8 Q56.3 3.7 47.45 -1.7 33.2 -10.45 30.5 -11.8 20.05 -17.0 13.65 -15.5 6.45 -13.85 3.4 -3.85 L-3.2 4.9 -9.25 0.35 -15.35 8.4 Q-17.6 3.9 -18.1 -0.25 -19.75 -14.1 -9.4 -26.5 0.9 -38.75 13.8 -38.7 26.9 -38.6 41.1 -31.9 53.9 -25.85 57.7 -19.8 61.9 -13.1 62.35 -5.85 62.8 1.5 58.95 2.8" fill="#ffcf2e" fill-rule="evenodd" stroke="none"/>
  </g>
</svg>
