<?xml version="1.0" encoding="UTF-8" standalone="no"?>
<svg xmlns:xlink="http://www.w3.org/1999/xlink" height="56.5px" width="47.3px" xmlns="http://www.w3.org/2000/svg">
  <g transform="matrix(1.0, 0.0, 0.0, 1.0, 23.6, 28.3)">
    <path d="M-8.4 -24.1 L-11.0 -24.4 -10.65 -25.8 -0.8 -24.7 Q0.4 -21.65 0.7 -17.85 1.0 -14.35 0.5 -10.8 L-5.8 -12.15 Q-5.95 -15.0 -6.6 -18.3 -7.4 -21.8 -8.4 -24.1 M-18.1 -24.2 L-10.0 -23.15 Q-9.0 -20.85 -8.3 -17.8 -7.6 -14.8 -7.45 -12.15 L-10.6 -12.95 -15.4 -13.6 -15.7 -15.25 Q-16.15 -18.0 -17.15 -19.7 -16.25 -16.45 -16.85 -14.05 L-18.1 -13.9 -19.4 -13.9 Q-19.7 -16.1 -19.3 -19.0 -19.0 -21.6 -18.1 -24.2 M19.45 -3.9 L20.15 -0.8 20.2 2.2 19.45 2.2 18.7 2.1 Q18.35 0.65 18.85 -1.25 18.3 -0.25 17.95 1.4 L17.85 2.4 14.95 2.8 13.15 3.2 Q13.2 1.65 13.6 -0.1 14.05 -1.9 14.65 -3.3 L19.45 -3.9 M1.85 -20.05 L7.75 -19.45 Q8.45 -16.35 8.45 -13.75 8.5 -11.05 7.75 -8.05 L0.5 -8.45 0.45 -10.0 1.7 -9.7 Q2.75 -15.2 1.85 -20.05 M12.1 10.95 L13.65 9.9 Q14.05 9.65 14.4 9.55 15.4 9.0 17.05 8.45 15.8 8.3 14.65 8.85 13.85 9.1 12.85 9.85 L11.85 6.7 11.15 4.75 12.25 4.25 13.45 3.8 Q16.95 2.85 20.7 3.3 L21.2 8.55 19.6 9.9 18.85 10.6 18.65 11.4 18.3 13.2 17.6 17.1 17.2 19.25 Q16.65 22.45 16.25 25.7 L-12.65 25.7 Q-13.4 20.3 -14.3 14.85 L-14.95 11.2 -16.15 4.65 -16.8 1.65 -17.1 0.25 -18.45 -0.9 -21.1 -3.15 -20.25 -11.95 Q-13.9 -12.85 -8.0 -11.2 L-6.0 -10.4 -4.15 -9.55 -5.3 -6.3 -6.95 -1.0 Q-8.7 -2.25 -9.95 -2.75 -11.95 -3.55 -14.15 -3.35 -11.3 -2.45 -9.55 -1.6 L-8.3 -0.9 -5.75 0.85 -4.05 -4.1 Q-1.05 -1.7 -0.55 2.0 L-0.45 3.0 -0.45 3.55 Q1.35 -2.6 -3.8 -5.15 L-2.85 -10.25 -0.65 -9.65 -0.5 -7.1 7.15 -6.35 7.1 -1.4 7.6 -1.45 Q7.05 1.45 7.7 4.7 L8.4 4.55 8.35 5.4 6.8 5.5 6.75 6.45 9.0 6.25 9.1 4.7 10.4 4.4 10.95 7.4 Q7.95 8.9 8.95 12.6 L8.95 12.2 9.0 11.65 Q9.35 9.45 11.1 8.0 L12.1 10.95 M13.65 -3.85 Q13.1 -2.45 12.65 -0.4 12.2 1.55 12.15 3.2 L8.4 4.05 Q8.1 1.95 8.3 -0.15 8.45 -2.4 9.15 -4.2 L15.0 -4.9 15.2 -4.05 13.65 -3.85" fill="#3c190a" fill-rule="evenodd" stroke="none"/>
    <path d="M-8.4 -24.1 Q-7.4 -21.8 -6.6 -18.3 -5.95 -15.0 -5.8 -12.15 L0.5 -10.8 Q1.0 -14.35 0.7 -17.85 0.4 -21.65 -0.8 -24.7 L-10.65 -25.8 -11.0 -24.4 -8.4 -24.1 M-18.1 -24.2 L-10.0 -23.15 Q-9.0 -20.85 -8.3 -17.8 -7.6 -14.8 -7.45 -12.15 L-10.6 -12.95 -15.4 -13.6 -15.7 -15.25 Q-16.15 -18.0 -17.15 -19.7 -16.25 -16.45 -16.85 -14.05 L-18.1 -13.9 -19.4 -13.9 Q-19.7 -16.1 -19.3 -19.0 -19.0 -21.6 -18.1 -24.2 M12.1 10.95 L11.1 8.0 Q9.35 9.45 9.0 11.65 L8.95 12.2 8.95 12.6 Q7.95 8.9 10.95 7.4 L10.4 4.4 9.1 4.7 9.0 6.25 6.75 6.45 6.8 5.5 8.35 5.4 8.4 4.55 7.7 4.7 Q7.05 1.45 7.6 -1.45 L7.1 -1.4 7.15 -6.35 -0.5 -7.1 -0.65 -9.65 -2.85 -10.25 -3.8 -5.15 Q1.35 -2.6 -0.45 3.55 L-0.45 3.0 -0.55 2.0 Q-1.05 -1.7 -4.05 -4.1 L-5.75 0.85 -8.3 -0.9 -9.55 -1.6 Q-11.3 -2.45 -14.15 -3.35 -11.95 -3.55 -9.95 -2.75 -8.7 -2.25 -6.95 -1.0 L-5.3 -6.3 -4.15 -9.55 -6.0 -10.4 -8.0 -11.2 Q-13.9 -12.85 -20.25 -11.95 L-21.1 -3.15 -18.45 -0.9 -17.1 0.25 -16.8 1.65 -16.15 4.65 -14.95 11.2 -14.3 14.85 Q-13.4 20.3 -12.65 25.7 L16.25 25.7 Q16.65 22.45 17.2 19.25 L17.6 17.1 18.3 13.2 18.65 11.4 18.85 10.6 19.6 9.9 21.2 8.55 20.7 3.3 Q16.95 2.85 13.45 3.8 L12.25 4.25 11.15 4.75 11.85 6.7 12.85 9.85 Q13.85 9.1 14.65 8.85 15.8 8.3 17.05 8.45 15.4 9.0 14.4 9.55 14.05 9.65 13.65 9.9 L12.1 10.95 M1.85 -20.05 Q2.75 -15.2 1.7 -9.7 L0.45 -10.0 0.5 -8.45 7.75 -8.05 Q8.5 -11.05 8.45 -13.75 8.45 -16.35 7.75 -19.45 L1.85 -20.05 M19.45 -3.9 L14.65 -3.3 Q14.05 -1.9 13.6 -0.1 13.2 1.65 13.15 3.2 L14.95 2.8 17.85 2.4 17.95 1.4 Q18.3 -0.25 18.85 -1.25 18.35 0.65 18.7 2.1 L19.45 2.2 20.2 2.2 20.15 -0.8 19.45 -3.9 M13.65 -3.85 Q13.1 -2.45 12.65 -0.4 12.2 1.55 12.15 3.2 L8.4 4.05 Q8.1 1.95 8.3 -0.15 8.45 -2.4 9.15 -4.2 L15.0 -4.9 15.2 -4.05 13.65 -3.85" fill="none" stroke="#3c190a" stroke-linecap="round" stroke-linejoin="round" stroke-width="5.0"/>
    <path d="M19.4 -3.85 L14.6 -3.25 13.6 -0.1 Q13.15 1.7 13.05 3.25 L14.95 2.8 17.8 2.4 17.95 1.4 Q18.25 -0.25 18.8 -1.2 18.3 0.7 18.65 2.15 L19.4 2.2 20.15 2.25 20.1 -0.8 19.4 -3.85 M12.05 10.95 L11.05 8.05 Q9.3 9.45 9.0 11.65 L8.9 12.25 8.9 12.6 Q7.85 8.95 10.9 7.4 L10.35 4.4 9.05 4.75 8.95 6.25 4.4 6.7 4.5 10.45 4.85 19.3 5.35 25.75 16.2 25.75 Q16.6 22.5 17.15 19.3 L17.5 17.15 18.25 13.2 18.6 11.45 18.8 10.6 19.6 9.95 Q20.35 9.3 21.2 8.6 L20.65 3.35 13.4 3.85 12.2 4.3 11.1 4.8 11.8 6.75 12.8 9.9 14.55 8.85 Q15.75 8.35 17.05 8.5 15.35 9.0 14.35 9.55 L13.6 9.95 12.05 10.95 M7.55 -1.4 L4.05 -1.05 Q3.65 0.75 3.65 2.3 3.6 3.9 4.05 5.7 L8.35 5.45 8.4 4.55 7.65 4.75 Q7.05 1.45 7.55 -1.4 M13.65 -3.8 L15.2 -4.0 14.95 -4.85 9.1 -4.2 Q8.4 -2.35 8.25 -0.1 8.05 1.95 8.35 4.05 L12.1 3.25 Q12.2 1.6 12.6 -0.4 13.05 -2.45 13.65 -3.8" fill="#8a561a" fill-rule="evenodd" stroke="none"/>
    <path d="M16.7 11.2 Q16.8 10.05 16.25 9.2 13.15 11.8 11.3 15.0 11.6 12.9 10.8 10.9 9.8 11.65 9.35 12.3 L8.4 13.6 Q8.15 12.55 7.35 11.05 L6.1 8.95 Q5.3 9.85 4.95 11.1 L4.5 10.4 4.5 11.4 4.85 19.3 5.35 25.75 16.2 25.75 Q17.15 18.6 18.6 11.5 L18.55 11.75 18.6 11.45 18.65 11.25 18.8 10.6 21.2 8.6 20.95 6.25 21.1 6.1 Q18.2 8.9 16.7 11.2" fill="#4f2310" fill-rule="evenodd" stroke="none"/>
    <path d="M-18.15 -24.2 L-10.05 -23.15 Q-9.0 -20.85 -8.35 -17.8 -7.65 -14.85 -7.45 -12.15 L-10.6 -12.9 -15.4 -13.6 -15.7 -15.3 Q-16.2 -18.05 -17.15 -19.7 -16.3 -16.5 -16.9 -14.05 L-18.1 -13.95 -19.45 -13.9 Q-19.75 -16.1 -19.35 -19.0 -19.0 -21.6 -18.15 -24.2 M-5.75 0.8 L-4.05 -4.1 Q-1.1 -1.75 -0.55 2.0 L-0.45 2.95 -0.45 3.55 Q1.3 -2.6 -3.8 -5.15 L-2.9 -10.25 -0.65 -9.65 -0.55 -7.1 7.1 -6.35 7.0 0.0 6.35 14.85 5.55 25.7 -12.7 25.7 Q-13.45 20.3 -14.35 14.85 L-14.95 11.2 -16.2 4.65 -16.8 1.65 -17.1 0.25 -18.45 -0.9 -21.15 -3.15 -20.25 -12.0 Q-13.95 -12.85 -8.05 -11.2 L-6.05 -10.45 -4.15 -9.55 -5.35 -6.3 -7.0 -1.0 Q-8.75 -2.25 -10.0 -2.75 -12.0 -3.6 -14.15 -3.35 -11.35 -2.45 -9.6 -1.55 L-8.35 -0.9 -5.75 0.8 M1.8 -20.05 L7.7 -19.45 Q8.45 -16.4 8.45 -13.75 8.45 -11.05 7.7 -8.05 L0.5 -8.5 0.45 -10.0 1.65 -9.65 Q2.7 -15.2 1.8 -20.05 M-8.45 -24.1 L-11.05 -24.4 -10.7 -25.8 -0.8 -24.75 Q0.35 -21.65 0.7 -17.9 1.0 -14.35 0.45 -10.8 L-5.85 -12.15 Q-5.95 -15.0 -6.65 -18.35 -7.45 -21.8 -8.45 -24.1" fill="#bf7926" fill-rule="evenodd" stroke="none"/>
    <path d="M-13.55 1.25 Q-13.8 -0.7 -12.85 -2.2 -7.65 2.2 -4.5 7.65 -5.0 4.1 -3.6 0.7 -2.0 2.0 -1.15 3.05 -0.35 3.9 0.45 5.3 0.8 3.5 2.15 0.95 L4.25 -2.55 Q5.6 -1.1 6.2 1.05 L7.0 -0.15 6.95 1.5 6.35 14.85 5.55 25.7 -12.7 25.7 Q-14.3 13.65 -16.8 1.7 L-16.7 2.15 -16.8 1.65 -16.9 1.3 -17.1 0.25 -21.15 -3.15 -20.75 -7.1 -21.0 -7.35 Q-16.1 -2.65 -13.55 1.25" fill="#70381f" fill-rule="evenodd" stroke="none"/>
  </g>
</svg>
