<?xml version="1.0" encoding="UTF-8" standalone="no"?>
<svg xmlns:xlink="http://www.w3.org/1999/xlink" height="10.15px" width="4.7px" xmlns="http://www.w3.org/2000/svg">
  <g transform="matrix(1.0, 0.0, 0.0, 1.0, 3.35, -1.25)">
    <path d="M-3.05 6.0 L-3.15 4.75 Q-3.15 1.25 -2.15 1.25 -0.95 1.25 0.15 3.4 L1.15 6.45 1.0 6.75 1.15 7.9 1.15 8.2 Q-1.25 8.4 -2.25 7.35 L-3.05 6.0 M1.15 8.8 Q0.9 10.7 -0.05 11.4 L-0.75 11.4 Q-1.95 11.3 -2.6 8.6 L-3.0 6.65 -2.7 7.35 Q-1.65 8.9 0.0 8.9 L1.15 8.8" fill="#8c5410" fill-rule="evenodd" stroke="none"/>
    <path d="M1.15 8.2 L1.2 8.2 1.35 8.4 1.2 8.7 1.15 8.8 0.0 8.9 Q-1.65 8.9 -2.7 7.35 L-3.0 6.65 -3.35 5.8 -3.05 6.0 -2.25 7.35 Q-1.25 8.4 1.15 8.2" fill="#000000" fill-rule="evenodd" stroke="none"/>
  </g>
</svg>
