<?xml version="1.0" encoding="UTF-8" standalone="no"?>
<svg xmlns:xlink="http://www.w3.org/1999/xlink" height="58.0px" width="44.1px" xmlns="http://www.w3.org/2000/svg">
  <g transform="matrix(1.0, 0.0, 0.0, 1.0, -19.25, 13.55)">
    <path d="M53.7 3.1 L51.25 3.75 49.25 4.45 Q41.2 7.4 33.7 14.9 26.2 22.4 23.25 30.45 L22.55 32.45 Q22.05 33.95 21.9 34.9 L22.45 35.45 23.0 36.0 24.05 37.05 30.45 43.45 31.85 42.05 32.15 40.0 32.7 37.9 Q35.05 30.25 42.05 23.25 49.05 16.25 56.65 13.95 L58.8 13.4 60.8 13.1 62.25 11.65 53.7 3.1" fill="#593d1e" fill-rule="evenodd" stroke="none"/>
    <path d="M53.7 3.1 L62.25 11.65 60.8 13.1 58.8 13.4 56.65 13.95 Q49.05 16.25 42.05 23.25 35.05 30.25 32.7 37.9 L32.15 40.0 31.85 42.05 30.45 43.45 24.05 37.05 23.0 36.0 22.45 35.45 21.9 34.9 Q22.05 33.95 22.55 32.45 L23.25 30.45 Q26.2 22.4 33.7 14.9 41.2 7.4 49.25 4.45 L51.25 3.75 53.7 3.1 Z" fill="none" stroke="#911d0e" stroke-linecap="round" stroke-linejoin="round" stroke-width="2.0"/>
    <path d="M49.55 2.05 L47.65 2.75 Q39.55 5.75 32.1 13.2 24.6 20.7 21.6 28.8 L20.9 30.7 Q20.5 32.0 20.25 33.25 L21.1 34.1 22.2 35.2 23.65 33.75 23.95 31.75 24.5 29.6 Q26.8 22.0 33.85 14.95 40.8 8.0 48.45 5.65 L50.6 5.1 52.6 4.8 54.05 3.35 52.95 2.25 52.05 1.45 49.55 2.05" fill="#4c730d" fill-rule="evenodd" stroke="none"/>
    <path d="M49.55 2.05 L52.05 1.45 52.95 2.25 54.05 3.35 52.6 4.8 50.6 5.1 48.45 5.65 Q40.8 8.0 33.85 14.95 26.8 22.0 24.5 29.6 L23.95 31.75 23.65 33.75 22.2 35.2 21.1 34.1 20.25 33.25 Q20.5 32.0 20.9 30.7 L21.6 28.8 Q24.6 20.7 32.1 13.2 39.55 5.75 47.65 2.75 L49.55 2.05 Z" fill="none" stroke="#911d0e" stroke-linecap="round" stroke-linejoin="round" stroke-width="2.0"/>
    <path d="M49.55 2.05 L47.65 2.75 Q39.55 5.75 32.1 13.2 24.6 20.7 21.6 28.8 L20.9 30.7 Q20.5 32.0 20.25 33.25 L21.1 34.1 22.2 35.2 23.65 33.75 23.95 31.75 24.5 29.6 Q26.8 22.0 33.85 14.95 40.8 8.0 48.45 5.65 L50.6 5.1 52.6 4.8 54.05 3.35 52.95 2.25 52.05 1.45 49.55 2.05" fill="#ff5941" fill-rule="evenodd" stroke="none"/>
    <path d="M48.4 5.7 L50.55 5.2 52.55 4.85 54.0 3.4 53.9 3.3 53.05 2.45 50.6 3.1 48.6 3.8 Q40.55 6.8 33.05 14.3 25.55 21.8 22.6 29.8 L21.9 31.8 21.25 34.25 22.1 35.1 22.2 35.2 23.6 33.8 23.9 31.75 24.45 29.65 Q26.8 22.0 33.8 15.0 40.8 8.0 48.4 5.7" fill="#c93523" fill-rule="evenodd" stroke="none"/>
    <path d="M53.7 3.1 L51.25 3.75 49.25 4.45 Q41.2 7.4 33.7 14.9 26.2 22.4 23.25 30.45 L22.55 32.45 Q22.05 33.95 21.9 34.9 L22.45 35.45 23.0 36.0 24.05 37.05 30.45 43.45 31.85 42.05 32.15 40.0 32.7 37.9 Q35.05 30.25 42.05 23.25 49.05 16.25 56.65 13.95 L58.8 13.4 60.8 13.1 62.25 11.65 53.7 3.1" fill="#959595" fill-rule="evenodd" stroke="none"/>
    <path d="M23.9 27.25 L28.5 31.8 33.15 36.5 Q35.65 29.6 42.05 23.2 48.45 16.8 55.35 14.35 L46.55 5.55 Q39.9 8.7 33.7 14.9 27.5 21.1 24.35 27.7 L23.9 27.25" fill="#9f9f9f" fill-rule="evenodd" stroke="none"/>
    <path d="M26.85 23.2 L31.8 28.1 35.4 31.7 Q37.9 27.35 42.05 23.2 46.25 19.0 50.7 16.5 L42.15 8.0 Q37.85 10.75 33.7 14.9 29.65 18.95 26.85 23.2" fill="#b0b0b0" fill-rule="evenodd" stroke="none"/>
    <path d="M57.85 10.25 L55.95 10.95 Q47.85 13.95 40.4 21.4 32.9 28.9 29.9 37.0 L29.2 38.9 Q28.8 40.2 28.55 41.45 L29.4 42.3 30.5 43.4 31.95 41.95 32.25 39.95 32.8 37.8 Q35.1 30.2 42.15 23.15 49.1 16.2 56.75 13.85 L58.9 13.3 60.9 13.0 62.35 11.55 61.25 10.45 60.35 9.65 57.85 10.25" fill="#4c730d" fill-rule="evenodd" stroke="none"/>
    <path d="M57.85 10.25 L60.35 9.65 61.25 10.45 62.35 11.55 60.9 13.0 58.9 13.3 56.75 13.85 Q49.1 16.2 42.15 23.15 35.1 30.2 32.8 37.8 L32.25 39.95 31.95 41.95 30.5 43.4 29.4 42.3 28.55 41.45 Q28.8 40.2 29.2 38.9 L29.9 37.0 Q32.9 28.9 40.4 21.4 47.85 13.95 55.95 10.95 L57.85 10.25 Z" fill="none" stroke="#911d0e" stroke-linecap="round" stroke-linejoin="round" stroke-width="2.0"/>
    <path d="M57.85 10.25 L55.95 10.95 Q47.85 13.95 40.4 21.4 32.9 28.9 29.9 37.0 L29.2 38.9 Q28.8 40.2 28.55 41.45 L29.4 42.3 30.5 43.4 31.95 41.95 32.25 39.95 32.8 37.8 Q35.1 30.2 42.15 23.15 49.1 16.2 56.75 13.85 L58.9 13.3 60.9 13.0 62.35 11.55 61.25 10.45 60.35 9.65 57.85 10.25" fill="#ff5941" fill-rule="evenodd" stroke="none"/>
    <path d="M29.5 42.5 L30.35 43.35 30.45 43.45 31.85 42.05 32.15 40.0 32.7 37.9 Q35.05 30.25 42.05 23.25 49.05 16.25 56.65 13.95 L58.8 13.4 60.8 13.1 62.25 11.65 62.15 11.55 61.3 10.7 58.85 11.35 56.85 12.05 Q48.8 15.05 41.3 22.55 33.8 30.05 30.85 38.05 L30.15 40.05 29.5 42.5" fill="#c93523" fill-rule="evenodd" stroke="none"/>
    <path d="M56.25 5.65 L58.15 7.15 59.1 6.75 Q59.45 6.35 59.15 6.05 L57.25 4.5 56.35 4.9 Q55.65 5.1 56.25 5.65 M59.1 3.75 Q58.65 3.85 59.15 4.3 L61.3 6.2 62.15 6.35 63.15 7.2 53.65 12.7 51.35 12.4 49.9 11.45 52.85 9.9 Q53.5 9.45 53.0 9.15 L50.6 7.45 49.5 8.05 49.35 8.05 47.9 8.6 45.25 8.35 Q44.2 7.6 43.15 6.95 L56.0 2.1 57.85 2.65 59.1 3.75 M56.25 7.5 L54.15 5.9 53.1 6.45 Q52.25 6.55 53.0 7.15 L55.15 8.7 56.2 8.2 Q56.7 7.85 56.25 7.5 M37.35 15.15 Q36.85 15.65 37.55 16.25 L40.7 18.65 41.75 18.7 43.4 19.95 Q37.75 23.5 34.55 30.5 L32.4 30.45 30.7 29.05 32.9 26.55 Q33.35 25.75 32.75 25.4 L30.15 23.45 29.2 24.45 29.15 24.45 28.15 25.7 25.75 25.55 23.95 24.2 Q27.8 16.9 33.45 13.65 L35.5 13.8 37.35 15.15 M34.9 19.25 L37.5 21.3 38.35 20.25 Q38.75 19.55 38.15 19.1 L35.6 17.15 34.7 18.1 Q34.1 18.65 34.9 19.25 M32.1 22.35 L34.8 24.3 35.65 23.3 Q36.15 22.7 35.55 22.2 L32.95 20.2 32.0 21.25 Q31.4 21.75 32.1 22.35" fill="#000000" fill-opacity="0.3019608" fill-rule="evenodd" stroke="none"/>
    <path d="M60.6 9.45 L60.9 9.9 60.8 10.45 60.3 10.75 59.75 10.65 Q54.3 6.8 51.8 -4.5 L51.9 -5.1 Q52.05 -5.35 52.35 -5.35 L52.9 -5.3 53.25 -4.8 Q55.55 5.8 60.6 9.45" fill="#ff5941" fill-rule="evenodd" stroke="none"/>
    <path d="M60.6 9.45 Q55.55 5.8 53.25 -4.8 L52.9 -5.3 52.35 -5.35 Q52.05 -5.35 51.9 -5.1 L51.8 -4.5 Q54.3 6.8 59.75 10.65 L60.3 10.75 60.8 10.45 60.9 9.9 60.6 9.45 Z" fill="none" stroke="#911d0e" stroke-linecap="round" stroke-linejoin="round" stroke-width="1.0"/>
    <path d="M60.6 9.45 L60.9 9.9 60.8 10.45 60.3 10.75 59.75 10.65 Q54.3 6.8 51.8 -4.5 L51.9 -5.1 Q52.05 -5.35 52.35 -5.35 L52.9 -5.3 53.25 -4.8 Q55.55 5.8 60.6 9.45" fill="#ff5941" fill-rule="evenodd" stroke="none"/>
    <path d="M57.85 9.0 Q53.8 4.75 51.8 -4.5 L51.75 -4.65 51.45 -4.5 52.9 -5.35 52.9 -5.3 53.25 -4.8 Q55.2 4.25 59.15 8.2 59.4 9.3 57.85 9.0" fill="#e73b25" fill-rule="evenodd" stroke="none"/>
    <path d="M56.0 6.65 Q54.5 4.3 53.35 1.05 54.45 1.6 54.6 0.15 55.7 3.45 57.25 5.8 57.0 7.05 56.0 6.65" fill="#c93523" fill-rule="evenodd" stroke="none"/>
    <path d="M43.7 -12.1 L45.05 -12.55 46.85 -10.95 Q46.9 -10.1 47.5 -9.55 L50.75 -6.75 Q51.4 -6.2 51.4 -7.05 L53.1 -5.6 53.1 12.3 51.8 12.75 50.05 11.05 50.05 6.85 Q50.05 5.8 49.4 5.2 L46.8 3.0 46.8 4.7 46.8 4.8 46.8 6.7 45.5 7.05 43.7 5.6 43.7 -12.1 M46.8 -5.9 Q46.8 -4.85 47.5 -4.25 L50.05 -2.05 50.05 -3.75 Q50.05 -4.8 49.4 -5.4 L46.8 -7.55 46.8 -5.9 M46.8 -0.55 Q46.8 0.45 47.5 1.05 L50.05 3.2 50.05 1.5 Q50.05 0.5 49.4 -0.1 L46.8 -2.3 46.8 -0.55" fill="#ff5941" fill-rule="evenodd" stroke="none"/>
    <path d="M43.7 -12.1 L43.7 5.6 45.5 7.05 46.8 6.7 46.8 4.8 46.8 4.7 46.8 3.0 49.4 5.2 Q50.05 5.8 50.05 6.85 L50.05 11.05 51.8 12.75 53.1 12.3 53.1 -5.6 51.4 -7.05 Q51.4 -6.2 50.75 -6.75 L47.5 -9.55 Q46.9 -10.1 46.85 -10.95 L45.05 -12.55 43.7 -12.1 M46.8 -5.9 Q46.8 -4.85 47.5 -4.25 L50.05 -2.05 50.05 -3.75 Q50.05 -4.8 49.4 -5.4 L46.8 -7.55 46.8 -5.9 M46.8 -0.55 Q46.8 0.45 47.5 1.05 L50.05 3.2 50.05 1.5 Q50.05 0.5 49.4 -0.1 L46.8 -2.3 46.8 -0.55" fill="none" stroke="#911d0e" stroke-linecap="round" stroke-linejoin="round" stroke-width="2.0"/>
    <path d="M43.7 -12.1 L45.05 -12.55 46.85 -10.95 Q46.9 -10.1 47.5 -9.55 L50.75 -6.75 Q51.4 -6.2 51.4 -7.05 L53.1 -5.6 53.1 12.3 51.8 12.75 50.05 11.05 50.05 6.85 Q50.05 5.8 49.4 5.2 L46.8 3.0 46.8 4.7 46.8 4.8 46.8 6.7 45.5 7.05 43.7 5.6 43.7 -12.1 M46.8 -0.55 Q46.8 0.45 47.5 1.05 L50.05 3.2 50.05 1.5 Q50.05 0.5 49.4 -0.1 L46.8 -2.3 46.8 -0.55 M46.8 -5.9 Q46.8 -4.85 47.5 -4.25 L50.05 -2.05 50.05 -3.75 Q50.05 -4.8 49.4 -5.4 L46.8 -7.55 46.8 -5.9" fill="#ff5941" fill-rule="evenodd" stroke="none"/>
    <path d="M45.55 -2.5 L45.55 -0.2 Q45.55 0.8 46.2 1.45 L49.45 4.2 Q50.15 4.85 50.15 3.85 L50.15 1.55 Q50.15 0.5 49.45 -0.1 L46.2 -2.85 Q45.55 -3.5 45.55 -2.5 M46.2 -9.15 L49.45 -6.4 Q50.1 -5.85 50.15 -6.6 L51.85 -5.15 51.85 12.75 50.15 11.1 50.15 6.85 Q50.15 5.85 49.45 5.2 L46.2 2.45 Q45.55 1.8 45.55 2.85 L45.55 5.1 45.55 5.15 45.55 7.05 43.75 5.6 43.75 -12.1 45.55 -10.55 Q45.6 -9.7 46.2 -9.15 M45.55 -7.75 L45.55 -5.5 Q45.55 -4.45 46.2 -3.85 L49.45 -1.1 Q50.15 -0.45 50.15 -1.45 L50.15 -3.75 Q50.15 -4.75 49.45 -5.4 L46.2 -8.15 Q45.55 -8.8 45.55 -7.75" fill="#e73b25" fill-rule="evenodd" stroke="none"/>
    <path d="M51.35 -4.55 L51.4 -4.0 Q45.55 16.35 31.9 14.0 31.6 13.95 31.4 13.7 L31.3 13.15 Q31.35 12.85 31.6 12.7 L32.15 12.55 Q44.55 14.5 50.0 -4.4 L50.35 -4.85 50.9 -4.95 51.35 -4.55" fill="#ff5941" fill-rule="evenodd" stroke="none"/>
    <path d="M51.35 -4.55 L51.4 -4.0 Q45.55 16.35 31.9 14.0 31.6 13.95 31.4 13.7 L31.3 13.15 Q31.35 12.85 31.6 12.7 L32.15 12.55 Q44.55 14.5 50.0 -4.4 L50.35 -4.85 50.9 -4.95 51.35 -4.55 M44.1 -9.6 L44.45 -10.05 45.0 -10.1 45.45 -9.75 45.5 -9.2 Q39.6 11.15 26.0 8.85 L25.5 8.55 25.4 8.0 25.7 7.5 26.2 7.4 Q38.65 9.3 44.1 -9.6" fill="#ff5941" fill-rule="evenodd" stroke="none"/>
    <path d="M44.1 -9.6 Q38.65 9.3 26.2 7.4 L25.7 7.5 25.4 8.0 25.5 8.55 26.0 8.85 Q39.6 11.15 45.5 -9.2 L45.45 -9.75 45.0 -10.1 44.45 -10.05 44.1 -9.6 M51.35 -4.55 L50.9 -4.95 50.35 -4.85 50.0 -4.4 Q44.55 14.5 32.15 12.55 L31.6 12.7 Q31.35 12.85 31.3 13.15 L31.4 13.7 Q31.6 13.95 31.9 14.0 45.55 16.35 51.4 -4.0 L51.35 -4.55" fill="none" stroke="#911d0e" stroke-linecap="round" stroke-linejoin="round" stroke-width="1.0"/>
    <path d="M51.35 -4.55 L51.4 -4.0 Q45.55 16.35 31.9 14.0 31.6 13.95 31.4 13.7 L31.3 13.15 Q31.35 12.85 31.6 12.7 L32.15 12.55 Q44.55 14.5 50.0 -4.4 L50.35 -4.85 50.9 -4.95 51.35 -4.55" fill="#ff5941" fill-rule="evenodd" stroke="none"/>
    <path d="M49.95 0.35 Q45.35 12.45 37.15 14.0 37.05 12.55 35.5 12.7 44.1 11.9 48.8 -0.6 49.7 -1.0 49.95 0.35" fill="#e73b25" fill-rule="evenodd" stroke="none"/>
    <path d="M45.4 -9.7 L45.45 -9.15 Q39.6 11.2 25.95 8.85 25.65 8.8 25.45 8.55 L25.35 8.0 25.65 7.55 26.2 7.4 Q38.6 9.35 44.05 -9.55 L44.4 -10.0 44.95 -10.1 45.4 -9.7" fill="#ff5941" fill-rule="evenodd" stroke="none"/>
    <path d="M44.0 -4.8 Q39.4 7.3 31.2 8.85 31.1 7.4 29.55 7.55 38.15 6.75 42.85 -5.75 43.75 -6.15 44.0 -4.8" fill="#e73b25" fill-rule="evenodd" stroke="none"/>
    <path d="M41.9 -0.1 Q39.45 4.3 36.35 6.6 36.7 5.25 35.55 5.25 38.45 3.05 40.7 -1.05 41.55 -1.6 41.9 -0.1" fill="#c93523" fill-rule="evenodd" stroke="none"/>
    <path d="M47.85 5.05 Q45.4 9.45 42.3 11.75 42.65 10.4 41.5 10.4 44.4 8.2 46.65 4.1 47.5 3.55 47.85 5.05" fill="#c93523" fill-rule="evenodd" stroke="none"/>
    <path d="M23.85 6.3 L25.2 5.85 27.0 7.45 Q27.05 8.3 27.65 8.85 L30.9 11.65 Q31.55 12.2 31.55 11.35 L33.25 12.8 33.25 30.7 31.95 31.15 30.2 29.45 30.2 25.25 Q30.2 24.2 29.55 23.6 L26.95 21.4 26.95 23.1 26.95 23.2 26.95 25.1 25.65 25.45 23.85 24.0 23.85 6.3 M26.95 12.5 Q26.95 13.55 27.65 14.15 L30.2 16.35 30.2 14.65 Q30.2 13.6 29.55 13.0 L26.95 10.85 26.95 12.5 M26.95 17.85 Q26.95 18.85 27.65 19.45 L30.2 21.6 30.2 19.9 Q30.2 18.9 29.55 18.3 L26.95 16.1 26.95 17.85" fill="#ff5941" fill-rule="evenodd" stroke="none"/>
    <path d="M23.85 6.3 L23.85 24.0 25.65 25.45 26.95 25.1 26.95 23.2 26.95 23.1 26.95 21.4 29.55 23.6 Q30.2 24.2 30.2 25.25 L30.2 29.45 31.95 31.15 33.25 30.7 33.25 12.8 31.55 11.35 Q31.55 12.2 30.9 11.65 L27.65 8.85 Q27.05 8.3 27.0 7.45 L25.2 5.85 23.85 6.3 M26.95 12.5 Q26.95 13.55 27.65 14.15 L30.2 16.35 30.2 14.65 Q30.2 13.6 29.55 13.0 L26.95 10.85 26.95 12.5 M26.95 17.85 Q26.95 18.85 27.65 19.45 L30.2 21.6 30.2 19.9 Q30.2 18.9 29.55 18.3 L26.95 16.1 26.95 17.85" fill="none" stroke="#911d0e" stroke-linecap="round" stroke-linejoin="round" stroke-width="2.0"/>
    <path d="M23.85 6.3 L25.2 5.85 27.0 7.45 Q27.05 8.3 27.65 8.85 L30.9 11.65 Q31.55 12.2 31.55 11.35 L33.25 12.8 33.25 30.7 31.95 31.15 30.2 29.45 30.2 25.25 Q30.2 24.2 29.55 23.6 L26.95 21.4 26.95 23.1 26.95 23.2 26.95 25.1 25.65 25.45 23.85 24.0 23.85 6.3 M26.95 17.85 Q26.95 18.85 27.65 19.45 L30.2 21.6 30.2 19.9 Q30.2 18.9 29.55 18.3 L26.95 16.1 26.95 17.85 M26.95 12.5 Q26.95 13.55 27.65 14.15 L30.2 16.35 30.2 14.65 Q30.2 13.6 29.55 13.0 L26.95 10.85 26.95 12.5" fill="#ff5941" fill-rule="evenodd" stroke="none"/>
    <path d="M25.7 15.9 L25.7 18.2 Q25.7 19.2 26.35 19.85 L29.6 22.6 Q30.3 23.25 30.3 22.25 L30.3 19.95 Q30.3 18.9 29.6 18.3 L26.35 15.55 Q25.7 14.9 25.7 15.9 M26.35 9.25 L29.6 12.0 Q30.25 12.55 30.3 11.8 L32.0 13.25 32.0 31.15 30.3 29.5 30.3 25.25 Q30.3 24.25 29.6 23.6 L26.35 20.85 Q25.7 20.2 25.7 21.25 L25.7 23.5 25.7 23.55 25.7 25.45 23.9 24.0 23.9 6.3 25.7 7.85 Q25.75 8.7 26.35 9.25 M25.7 10.65 L25.7 12.9 Q25.7 13.95 26.35 14.55 L29.6 17.3 Q30.3 17.95 30.3 16.95 L30.3 14.65 Q30.3 13.65 29.6 13.0 L26.35 10.25 Q25.7 9.6 25.7 10.65" fill="#e73b25" fill-rule="evenodd" stroke="none"/>
    <path d="M25.2 7.9 L25.45 8.4 Q26.55 21.4 21.65 33.75 L21.25 34.15 20.7 34.15 20.25 33.75 Q20.1 33.55 20.25 33.25 25.05 21.2 23.95 8.5 L24.15 8.0 Q24.35 7.75 24.65 7.75 L25.2 7.9 M31.55 13.6 L31.8 14.1 Q32.9 27.6 28.0 40.4 L27.6 40.85 27.05 40.85 26.6 40.45 26.6 39.9 Q31.4 27.4 30.3 14.25 L30.5 13.7 Q30.7 13.45 31.0 13.4 L31.55 13.6" fill="#911d0e" fill-rule="evenodd" stroke="none"/>
    <path d="M31.55 13.6 L31.0 13.4 Q30.7 13.45 30.5 13.7 L30.3 14.25 Q31.4 27.4 26.6 39.9 L26.6 40.45 27.05 40.85 27.6 40.85 28.0 40.4 Q32.9 27.6 31.8 14.1 L31.55 13.6 M25.2 7.9 L24.65 7.75 Q24.35 7.75 24.15 8.0 L23.95 8.5 Q25.05 21.2 20.25 33.25 20.1 33.55 20.25 33.75 L20.7 34.15 21.25 34.15 21.65 33.75 Q26.55 21.4 25.45 8.4 L25.2 7.9" fill="none" stroke="#911d0e" stroke-linecap="round" stroke-linejoin="round" stroke-width="1.0"/>
    <path d="M25.2 7.9 L25.45 8.4 Q26.55 21.4 21.65 33.75 L21.25 34.15 20.7 34.15 20.25 33.75 Q20.1 33.55 20.25 33.25 25.05 21.2 23.95 8.5 L24.15 8.0 Q24.35 7.75 24.65 7.75 L25.2 7.9 M31.55 13.6 L31.8 14.1 Q32.9 27.6 28.0 40.4 L27.6 40.85 27.05 40.85 26.6 40.45 26.6 39.9 Q31.4 27.4 30.3 14.25 L30.5 13.7 Q30.7 13.45 31.0 13.4 L31.55 13.6" fill="#ff5941" fill-rule="evenodd" stroke="none"/>
    <path d="M32.0 19.2 Q32.0 28.25 29.15 37.0 28.7 35.15 27.95 36.0 30.7 27.2 30.55 18.05 31.4 17.15 32.0 19.2 M25.65 14.1 Q25.5 23.0 22.45 31.6 22.1 29.85 21.25 30.6 24.2 21.9 24.2 12.85 24.9 12.2 25.65 14.1" fill="#e73b25" fill-rule="evenodd" stroke="none"/>
    <path d="M31.85 23.85 Q31.4 28.55 30.25 33.25 30.1 31.9 29.0 32.2 30.1 27.5 30.45 22.7 31.45 22.1 31.85 23.85 M25.4 18.6 Q24.9 23.3 23.65 27.85 23.35 26.1 22.4 26.85 23.65 22.2 24.0 17.5 24.9 16.85 25.4 18.6" fill="#c93523" fill-rule="evenodd" stroke="none"/>
  </g>
</svg>
