<?xml version="1.0" encoding="UTF-8" standalone="no"?>
<svg xmlns:xlink="http://www.w3.org/1999/xlink" height="73.5px" width="46.25px" xmlns="http://www.w3.org/2000/svg">
  <g transform="matrix(1.0, 0.0, 0.0, 1.0, -9.0, 25.2)">
    <path d="M45.0 42.2 Q40.0 45.35 32.85 45.35 25.7 45.35 20.65 42.2 15.65 39.05 15.65 34.4 15.65 29.85 20.65 26.6 25.7 23.45 32.85 23.45 40.0 23.45 45.0 26.6 50.05 29.85 50.05 34.4 50.05 39.05 45.0 42.2" fill="#000000" fill-opacity="0.2" fill-rule="evenodd" stroke="none"/>
    <path d="M41.35 46.8 L24.6 46.8 24.6 25.2 41.35 25.2 41.35 46.8" fill="#a83f2b" fill-rule="evenodd" stroke="none"/>
    <path d="M41.35 46.8 L24.6 46.8 24.6 25.2 41.35 25.2 41.35 46.8 Z" fill="none" stroke="#64362e" stroke-linecap="round" stroke-linejoin="round" stroke-width="3.0"/>
    <path d="M41.35 46.9 L24.55 46.9 24.55 42.75 41.35 42.75 41.35 46.9" fill="#a83f2b" fill-rule="evenodd" stroke="none"/>
    <path d="M39.9 42.6 L39.9 46.75 26.25 46.75 26.25 42.6 39.9 42.6" fill="#64362e" fill-rule="evenodd" stroke="none"/>
    <path d="M39.35 42.6 L39.35 46.75 26.85 46.75 26.85 42.6 39.35 42.6" fill="#ad5f3a" fill-rule="evenodd" stroke="none"/>
    <path d="M35.7 42.6 L35.7 46.75 30.4 46.75 30.4 42.6 35.7 42.6" fill="#64362e" fill-rule="evenodd" stroke="none"/>
    <path d="M35.05 42.6 L35.05 46.75 31.0 46.75 31.0 42.6 35.05 42.6" fill="#a83f2b" fill-rule="evenodd" stroke="none"/>
    <path d="M41.35 44.1 L24.55 44.1 24.55 39.95 41.35 39.95 41.35 44.1" fill="#64362e" fill-rule="evenodd" stroke="none"/>
    <path d="M41.35 43.35 L24.55 43.35 24.55 25.25 41.35 25.25 41.35 43.35" fill="#a83f2b" fill-rule="evenodd" stroke="none"/>
    <path d="M37.25 25.25 L37.25 43.35 28.8 43.35 28.8 25.25 37.25 25.25" fill="#64362e" fill-rule="evenodd" stroke="none"/>
    <path d="M36.7 25.25 L36.7 43.35 29.35 43.35 29.35 25.25 36.7 25.25" fill="#ad5f3a" fill-rule="evenodd" stroke="none"/>
    <path d="M42.7 38.75 L42.7 40.55 23.3 40.55 23.3 38.75 42.7 38.75" fill="#ad5f3a" fill-rule="evenodd" stroke="none"/>
    <path d="M23.3 38.75 L23.3 19.3 42.7 19.3 42.7 38.75 23.3 38.75" fill="#db7748" fill-rule="evenodd" stroke="none"/>
    <path d="M23.3 38.75 L23.3 19.3 42.7 19.3 42.7 38.75 42.7 40.55 23.3 40.55 23.3 38.75 42.7 38.75" fill="none" stroke="#64362e" stroke-linecap="round" stroke-linejoin="round" stroke-width="3.0"/>
    <path d="M42.7 40.6 L23.3 40.6 23.3 19.65 42.7 19.65 42.7 40.6" fill="#ad5f3a" fill-rule="evenodd" stroke="none"/>
    <path d="M40.85 40.6 L25.1 40.6 25.1 19.6 40.85 19.6 40.85 40.6" fill="#64362e" fill-rule="evenodd" stroke="none"/>
    <path d="M40.25 19.6 L40.25 40.6 25.8 40.6 25.8 19.6 40.25 19.6" fill="#a83f2b" fill-rule="evenodd" stroke="none"/>
    <path d="M36.05 19.6 L36.05 40.6 29.9 40.6 29.9 19.6 36.05 19.6" fill="#64362e" fill-rule="evenodd" stroke="none"/>
    <path d="M35.3 40.6 L30.6 40.6 30.6 19.6 35.3 19.6 35.3 40.6" fill="#ad5f3a" fill-rule="evenodd" stroke="none"/>
    <path d="M42.7 38.8 L23.3 38.8 23.3 19.4 42.7 19.4 42.7 38.8" fill="#db7748" fill-rule="evenodd" stroke="none"/>
    <path d="M42.7 36.95 L23.25 36.95 23.25 21.2 42.7 21.2 42.7 36.95" fill="#87473b" fill-rule="evenodd" stroke="none"/>
    <path d="M42.7 36.35 L23.25 36.35 23.25 21.9 42.7 21.9 42.7 36.35" fill="#d0492f" fill-rule="evenodd" stroke="none"/>
    <path d="M42.7 32.15 L23.25 32.15 23.25 26.05 42.7 26.05 42.7 32.15" fill="#87473b" fill-rule="evenodd" stroke="none"/>
    <path d="M42.7 31.35 L23.25 31.35 23.25 26.65 42.7 26.65 42.7 31.35" fill="#db7748" fill-rule="evenodd" stroke="none"/>
    <path d="M40.85 38.75 L25.1 38.75 25.1 19.3 40.85 19.3 40.85 38.75" fill="#87473b" fill-rule="evenodd" stroke="none"/>
    <path d="M40.25 19.3 L40.25 38.75 25.8 38.75 25.8 19.3 40.25 19.3" fill="#d0492f" fill-rule="evenodd" stroke="none"/>
    <path d="M36.05 19.3 L36.05 38.75 29.95 38.75 29.95 19.3 36.05 19.3" fill="#87473b" fill-rule="evenodd" stroke="none"/>
    <path d="M35.25 38.75 L30.55 38.75 30.55 19.3 35.25 19.3 35.25 38.75" fill="#db7748" fill-rule="evenodd" stroke="none"/>
    <path d="M40.9 36.95 L25.1 36.95 25.1 21.2 40.9 21.2 40.9 36.95" fill="#624229" fill-rule="evenodd" stroke="none"/>
    <path d="M30.05 21.1 L30.7 21.25 31.05 21.85 30.9 22.5 30.35 22.9 Q25.6 23.8 24.45 18.2 24.4 17.85 24.6 17.55 24.8 17.2 25.15 17.15 L25.8 17.3 26.2 17.85 Q26.95 21.55 30.05 21.1 Z" fill="none" stroke="#101010" stroke-linecap="round" stroke-linejoin="round" stroke-width="3.0"/>
    <path d="M35.4 8.9 L37.95 29.85 Q36.9 33.4 33.2 33.45 29.45 33.5 28.35 29.85 L30.9 8.9 35.4 8.9" fill="#434343" fill-rule="evenodd" stroke="none"/>
    <path d="M35.4 8.9 L37.95 29.85 Q36.9 33.4 33.2 33.45 29.45 33.5 28.35 29.85 L30.9 8.9 35.4 8.9 Z" fill="none" stroke="#101010" stroke-linecap="round" stroke-linejoin="round" stroke-width="3.0"/>
    <path d="M30.05 21.1 L30.7 21.25 31.05 21.85 30.9 22.5 30.35 22.9 Q25.6 23.8 24.45 18.2 24.4 17.85 24.6 17.55 24.8 17.2 25.15 17.15 L25.8 17.3 26.2 17.85 Q26.95 21.55 30.05 21.1" fill="#2e2e2e" fill-rule="evenodd" stroke="none"/>
    <path d="M41.7 19.0 L42.25 19.4 42.4 20.05 Q41.25 25.65 36.5 24.75 L35.95 24.35 Q35.7 24.05 35.8 23.7 L36.15 23.1 36.8 22.95 Q39.9 23.4 40.65 19.7 40.7 19.35 41.05 19.15 41.35 18.9 41.7 19.0" fill="#2e2e2e" fill-rule="evenodd" stroke="none"/>
    <path d="M41.7 19.0 Q41.35 18.9 41.05 19.15 40.7 19.35 40.65 19.7 39.9 23.4 36.8 22.95 L36.15 23.1 35.8 23.7 Q35.7 24.05 35.95 24.35 L36.5 24.75 Q41.25 25.65 42.4 20.05 L42.25 19.4 41.7 19.0 Z" fill="none" stroke="#101010" stroke-linecap="round" stroke-linejoin="round" stroke-width="3.0"/>
    <path d="M41.7 19.0 L42.25 19.4 42.4 20.05 Q41.25 25.65 36.5 24.75 L35.95 24.35 Q35.7 24.05 35.8 23.7 L36.15 23.1 36.8 22.95 Q39.9 23.4 40.65 19.7 40.7 19.35 41.05 19.15 41.35 18.9 41.7 19.0" fill="#2e2e2e" fill-rule="evenodd" stroke="none"/>
    <path d="M35.4 8.9 L37.95 29.85 Q36.9 33.4 33.2 33.45 29.45 33.5 28.35 29.85 L30.9 8.9 35.4 8.9" fill="#434343" fill-rule="evenodd" stroke="none"/>
    <path d="M34.65 8.9 L36.1 32.65 Q35.0 33.4 33.3 33.4 31.5 33.45 30.25 32.6 L31.75 8.9 34.65 8.9" fill="#5d5d5d" fill-rule="evenodd" stroke="none"/>
    <path d="M34.85 22.25 Q35.6 23.45 35.6 25.05 35.6 26.65 34.85 27.85 34.1 29.0 33.0 29.0 31.95 29.0 31.15 27.85 30.4 26.65 30.4 25.05 30.4 23.45 31.15 22.25 31.95 21.1 33.0 21.1 34.1 21.1 34.85 22.25" fill="#707070" fill-rule="evenodd" stroke="none"/>
    <path d="M33.05 27.55 Q32.3 27.55 31.75 26.7 31.2 25.85 31.2 24.7 31.2 23.55 31.75 22.7 32.3 21.85 33.05 21.85 33.85 21.85 34.4 22.7 34.95 23.55 34.95 24.7 34.95 25.85 34.4 26.7 33.85 27.55 33.05 27.55" fill="#000000" fill-rule="evenodd" stroke="none"/>
    <path d="M29.9 22.2 L29.3 22.8 31.0 8.9 35.5 8.9 37.4 24.3 Q36.2 25.25 34.8 25.45 L33.6 25.3 Q31.4 24.75 30.0 22.4 L29.9 22.2" fill="#000000" fill-opacity="0.3019608" fill-rule="evenodd" stroke="none"/>
    <path d="M45.3 -15.65 L46.05 -14.45 Q48.25 -13.4 49.65 -11.2 51.0 -8.95 51.05 -6.55 L51.05 -5.85 51.7 -4.9 Q53.7 -1.7 53.75 1.85 L53.45 4.45 Q52.6 8.25 49.95 10.7 50.45 12.2 50.15 14.05 49.7 16.6 47.55 18.05 45.35 19.5 42.8 19.05 L40.8 18.4 39.0 20.25 Q37.25 21.35 35.3 21.55 L33.65 21.4 Q30.6 20.8 28.7 18.5 L28.55 18.3 Q28.15 18.45 27.95 18.7 25.05 20.75 21.25 20.25 17.4 19.45 14.6 16.4 12.35 14.0 11.8 11.3 L11.6 10.4 11.5 9.1 Q11.4 7.5 11.75 6.3 10.75 4.55 10.6 2.8 L10.5 1.8 Q10.35 -1.8 12.85 -4.05 13.6 -4.9 14.7 -5.2 L14.7 -5.45 Q14.6 -8.95 16.65 -11.05 17.2 -13.0 19.05 -14.1 L19.6 -14.4 Q19.7 -15.95 20.75 -17.15 21.95 -18.65 23.75 -18.75 L25.2 -18.7 26.2 -20.4 Q27.2 -21.6 28.6 -22.05 L29.75 -22.25 Q31.85 -22.45 33.45 -21.05 L33.55 -20.95 33.85 -21.35 Q35.6 -23.45 38.25 -23.65 40.85 -23.9 42.95 -22.2 44.45 -20.9 45.05 -19.1 L45.35 -17.6 45.3 -15.65 M51.05 -5.85 L50.95 -4.6 50.15 -2.25 Q50.8 -0.5 50.5 1.4 49.9 4.15 47.6 5.7 L45.9 6.5 45.85 6.8 Q45.35 9.4 43.2 10.95 40.95 12.35 38.3 11.9 L37.65 11.75 36.9 12.3 Q35.1 13.55 32.95 13.6 L31.25 13.4 Q28.15 12.85 26.3 10.2 L26.05 9.9 Q24.1 10.25 22.05 9.9 18.0 9.05 15.65 5.75 13.8 3.2 13.65 0.35 13.55 -0.75 13.8 -1.75 14.3 -5.1 16.75 -7.15 16.2 -8.65 16.45 -10.3 L16.65 -11.05 16.45 -10.3 Q16.2 -8.65 16.75 -7.15 14.3 -5.1 13.8 -1.75 13.55 -0.75 13.65 0.35 13.8 3.2 15.65 5.75 18.0 9.05 22.05 9.9 24.1 10.25 26.05 9.9 L26.3 10.2 Q28.15 12.85 31.25 13.4 L32.95 13.6 Q35.1 13.55 36.9 12.3 L37.65 11.75 38.3 11.9 Q40.95 12.35 43.2 10.95 45.35 9.4 45.85 6.8 L45.9 6.5 47.6 5.7 Q49.9 4.15 50.5 1.4 50.8 -0.5 50.15 -2.25 L50.95 -4.6 51.05 -5.85 M19.6 -14.4 L19.6 -13.85 Q19.6 -12.55 20.25 -11.55 18.8 -9.45 18.9 -6.8 18.95 -5.95 19.15 -5.15 19.65 -2.95 21.45 -1.25 23.7 0.85 26.85 0.65 28.45 0.45 29.8 -0.3 L30.05 -0.05 Q32.0 1.65 34.5 1.5 L35.8 1.2 Q37.45 0.7 38.55 -0.85 L39.05 -1.5 39.6 -1.45 Q41.7 -1.7 43.15 -3.45 44.45 -5.3 44.2 -7.5 L44.2 -7.75 45.3 -8.8 Q46.7 -10.6 46.5 -12.9 L46.05 -14.45 46.5 -12.9 Q46.7 -10.6 45.3 -8.8 L44.2 -7.75 44.2 -7.5 Q44.45 -5.3 43.15 -3.45 41.7 -1.7 39.6 -1.45 L39.05 -1.5 38.55 -0.85 Q37.45 0.7 35.8 1.2 L34.5 1.5 Q32.0 1.65 30.05 -0.05 L29.8 -0.3 Q28.45 0.45 26.85 0.65 23.7 0.85 21.45 -1.25 19.65 -2.95 19.15 -5.15 18.95 -5.95 18.9 -6.8 18.8 -9.45 20.25 -11.55 19.6 -12.55 19.6 -13.85 L19.6 -14.4" fill="#c62828" fill-rule="evenodd" stroke="none"/>
    <path d="M45.3 -15.65 L46.05 -14.45 Q48.25 -13.4 49.65 -11.2 51.0 -8.95 51.05 -6.55 L51.05 -5.85 51.7 -4.9 Q53.7 -1.7 53.75 1.85 L53.45 4.45 Q52.6 8.25 49.95 10.7 50.45 12.2 50.15 14.05 49.7 16.6 47.55 18.05 45.35 19.5 42.8 19.05 L40.8 18.4 39.0 20.25 Q37.25 21.35 35.3 21.55 L33.65 21.4 Q30.6 20.8 28.7 18.5 L28.55 18.3 Q28.15 18.45 27.95 18.7 25.05 20.75 21.25 20.25 17.4 19.45 14.6 16.4 12.35 14.0 11.8 11.3 L11.6 10.4 11.5 9.1 Q11.4 7.5 11.75 6.3 10.75 4.55 10.6 2.8 L10.5 1.8 Q10.35 -1.8 12.85 -4.05 13.6 -4.9 14.7 -5.2 L14.7 -5.45 Q14.6 -8.95 16.65 -11.05 17.2 -13.0 19.05 -14.1 L19.6 -14.4 Q19.7 -15.95 20.75 -17.15 21.95 -18.65 23.75 -18.75 L25.2 -18.7 26.2 -20.4 Q27.2 -21.6 28.6 -22.05 L29.75 -22.25 Q31.85 -22.45 33.45 -21.05 L33.55 -20.95 33.85 -21.35 Q35.6 -23.45 38.25 -23.65 40.85 -23.9 42.95 -22.2 44.45 -20.9 45.05 -19.1 L45.35 -17.6 45.3 -15.65 M46.05 -14.45 L46.5 -12.9 Q46.7 -10.6 45.3 -8.8 L44.2 -7.75 44.2 -7.5 Q44.45 -5.3 43.15 -3.45 41.7 -1.7 39.6 -1.45 L39.05 -1.5 38.55 -0.85 Q37.45 0.7 35.8 1.2 L34.5 1.5 Q32.0 1.65 30.05 -0.05 L29.8 -0.3 Q28.45 0.45 26.85 0.65 23.7 0.85 21.45 -1.25 19.65 -2.95 19.15 -5.15 18.95 -5.95 18.9 -6.8 18.8 -9.45 20.25 -11.55 19.6 -12.55 19.6 -13.85 L19.6 -14.4 M16.65 -11.05 L16.45 -10.3 Q16.2 -8.65 16.75 -7.15 14.3 -5.1 13.8 -1.75 13.55 -0.75 13.65 0.35 13.8 3.2 15.65 5.75 18.0 9.05 22.05 9.9 24.1 10.25 26.05 9.9 L26.3 10.2 Q28.15 12.85 31.25 13.4 L32.95 13.6 Q35.1 13.55 36.9 12.3 L37.65 11.75 38.3 11.9 Q40.95 12.35 43.2 10.95 45.35 9.4 45.85 6.8 L45.9 6.5 47.6 5.7 Q49.9 4.15 50.5 1.4 50.8 -0.5 50.15 -2.25 L50.95 -4.6 51.05 -5.85" fill="none" stroke="#c62828" stroke-linecap="round" stroke-linejoin="round" stroke-width="3.0"/>
    <path d="M39.0 -10.4 Q41.3 -11.15 44.05 -10.5 48.95 -9.5 51.7 -4.9 53.7 -1.75 53.75 1.8 L53.45 4.45 Q52.6 8.25 49.95 10.7 50.45 12.2 50.2 14.0 49.7 16.55 47.55 18.05 45.35 19.45 42.8 19.0 L40.85 18.4 39.0 20.2 Q37.25 21.35 35.3 21.5 L33.65 21.35 Q30.65 20.8 28.7 18.5 L28.6 18.25 27.95 18.7 Q25.05 20.7 21.25 20.2 17.4 19.4 14.6 16.4 12.35 14.0 11.8 11.25 L11.6 10.35 11.5 9.1 Q11.4 7.5 11.75 6.25 10.75 4.55 10.6 2.75 L10.5 1.75 Q10.35 -1.85 12.85 -4.05 13.6 -4.9 14.75 -5.2 L14.7 -5.5 Q14.6 -9.3 17.1 -11.5 19.65 -13.9 23.35 -13.1 L24.05 -12.85 24.95 -13.7 Q26.85 -15.5 29.4 -15.75 L30.25 -15.75 32.15 -15.55 Q36.25 -14.7 38.8 -10.85 L39.0 -10.4" fill="#ff3333" fill-rule="evenodd" stroke="none"/>
    <path d="M41.35 14.4 L40.9 15.35 Q40.5 15.8 40.0 15.8 L40.0 16.1 Q40.0 17.3 39.1 18.1 38.35 18.95 37.3 19.0 36.85 19.4 36.15 19.4 35.4 19.4 34.85 18.9 34.4 18.4 34.35 17.7 33.7 18.1 32.85 18.1 L31.85 17.9 31.45 18.4 Q30.75 19.15 29.7 19.15 28.65 19.15 27.95 18.4 27.2 17.7 27.2 16.65 L27.3 15.95 26.85 16.0 Q25.9 16.0 25.2 15.3 24.55 14.65 24.55 13.65 24.55 12.7 25.2 12.05 25.8 11.45 26.6 11.4 L26.35 11.6 Q25.75 12.15 25.75 13.0 25.75 13.8 26.35 14.4 26.95 14.95 27.8 14.95 L28.2 14.9 28.1 15.5 Q28.1 16.4 28.75 17.0 29.4 17.65 30.3 17.65 31.2 17.65 31.85 17.0 L32.25 16.6 33.1 16.75 34.45 16.4 Q34.45 17.0 34.85 17.45 35.3 17.9 36.0 17.9 36.6 17.9 37.05 17.5 37.95 17.5 38.65 16.75 39.4 16.1 39.4 15.05 L39.4 14.8 Q39.85 14.8 40.2 14.45 40.6 14.1 40.6 13.6 L40.5 13.1 40.9 13.4 41.35 14.4" fill="#c62828" fill-rule="evenodd" stroke="none"/>
    <path d="M37.15 -13.6 L37.65 -14.0 Q40.7 -16.0 44.15 -15.1 47.65 -14.3 49.6 -11.2 51.0 -8.95 51.05 -6.55 L50.9 -4.65 Q50.6 -3.35 50.1 -2.3 50.75 -0.55 50.4 1.4 49.85 4.2 47.6 5.7 L45.9 6.5 45.85 6.8 Q45.35 9.4 43.2 10.95 40.9 12.4 38.3 11.85 L37.7 11.75 36.9 12.3 Q35.0 13.55 32.9 13.6 L31.2 13.45 Q28.1 12.85 26.25 10.2 L26.0 9.9 Q24.1 10.25 22.05 9.9 18.0 9.05 15.65 5.75 13.75 3.15 13.6 0.35 L13.75 -1.8 Q14.25 -5.15 16.7 -7.2 16.15 -8.65 16.45 -10.3 16.9 -12.8 19.0 -14.1 21.0 -15.5 23.5 -15.0 L25.45 -14.15 Q26.1 -15.3 27.3 -16.05 29.0 -17.2 31.0 -17.1 L32.55 -16.9 Q35.4 -16.25 37.05 -13.75 L37.15 -13.6" fill="#ff5b5b" fill-rule="evenodd" stroke="none"/>
    <path d="M18.45 -3.25 L18.1 -3.0 Q17.6 -2.45 17.6 -1.75 17.6 -1.05 18.05 -0.55 L17.7 -0.25 Q17.0 0.45 17.0 1.4 17.0 2.35 17.7 3.0 18.4 3.7 19.3 3.7 L19.8 3.65 19.7 4.2 Q19.7 5.2 20.45 5.95 21.2 6.75 22.25 6.75 23.25 6.75 24.0 5.95 24.65 5.35 24.75 4.55 25.4 4.45 25.95 3.9 L26.6 2.65 26.7 3.4 Q26.7 4.5 25.95 5.2 L24.6 5.95 Q24.45 6.9 23.7 7.55 22.9 8.45 21.7 8.45 20.55 8.45 19.65 7.55 18.8 6.75 18.8 5.55 L18.9 4.95 18.4 5.0 Q17.3 5.0 16.5 4.2 15.75 3.4 15.75 2.35 15.75 1.25 16.5 0.5 L16.9 0.15 Q16.35 -0.45 16.35 -1.25 16.35 -2.05 16.95 -2.65 17.55 -3.25 18.4 -3.25 L18.45 -3.25" fill="#ff3333" fill-rule="evenodd" stroke="none"/>
    <path d="M43.0 -22.15 Q44.5 -20.85 45.1 -19.0 L45.45 -17.55 45.4 -15.55 Q46.25 -14.35 46.5 -12.85 46.7 -10.55 45.35 -8.7 L44.25 -7.7 44.25 -7.45 Q44.5 -5.2 43.15 -3.4 41.75 -1.65 39.6 -1.45 L39.0 -1.4 38.55 -0.75 Q37.45 0.75 35.8 1.3 L34.5 1.55 Q32.05 1.75 30.1 0.0 L29.85 -0.25 Q28.5 0.5 26.9 0.7 23.7 0.95 21.45 -1.2 19.7 -2.9 19.2 -5.05 18.95 -5.85 18.95 -6.75 18.8 -9.4 20.25 -11.5 19.6 -12.5 19.6 -13.8 19.5 -15.65 20.8 -17.1 22.0 -18.6 23.8 -18.75 L25.2 -18.65 Q25.55 -19.6 26.2 -20.35 27.25 -21.55 28.6 -21.95 L29.75 -22.2 Q31.8 -22.35 33.45 -21.0 L33.6 -20.9 33.85 -21.35 Q35.6 -23.4 38.25 -23.65 40.95 -23.85 43.0 -22.15" fill="#ff8272" fill-rule="evenodd" stroke="none"/>
    <path d="M37.95 -9.05 Q37.95 -7.95 37.2 -7.25 L35.9 -6.55 35.95 -6.0 Q35.95 -5.0 35.25 -4.3 34.55 -3.55 33.5 -3.55 L32.4 -3.8 31.1 -3.55 Q29.9 -3.55 29.0 -4.45 28.15 -5.3 28.15 -6.55 L28.2 -6.85 26.85 -6.65 Q25.4 -6.65 24.3 -7.7 23.3 -8.75 23.3 -10.2 23.3 -11.7 24.3 -12.75 24.9 -13.25 25.55 -13.55 L25.35 -14.6 Q25.35 -15.8 26.15 -16.65 27.0 -17.45 28.2 -17.45 L29.15 -17.3 Q28.3 -17.25 27.6 -16.6 26.85 -15.9 26.85 -14.85 L27.05 -13.95 Q26.5 -13.75 26.0 -13.25 25.15 -12.35 25.15 -11.15 25.15 -9.85 26.0 -9.0 26.9 -8.05 28.2 -8.05 L29.3 -8.2 29.25 -7.95 Q29.25 -6.95 30.05 -6.15 30.75 -5.45 31.8 -5.45 L32.9 -5.65 33.85 -5.45 Q34.75 -5.45 35.35 -6.05 35.95 -6.7 35.95 -7.55 L35.9 -7.95 Q36.6 -8.1 37.0 -8.55 37.65 -9.2 37.65 -10.1 L37.65 -10.25 37.95 -9.05" fill="#ff5b5b" fill-rule="evenodd" stroke="none"/>
  </g>
</svg>
