<?xml version="1.0" encoding="UTF-8" standalone="no"?>
<svg xmlns:xlink="http://www.w3.org/1999/xlink" height="34.45px" width="78.35px" xmlns="http://www.w3.org/2000/svg">
  <g transform="matrix(1.0, 0.0, 0.0, 1.0, -1.45, -16.35)">
    <path d="M10.55 45.8 Q9.9 43.6 11.7 41.3 13.55 39.05 16.8 38.1 20.0 37.15 22.75 38.1 25.55 39.05 26.2 41.25 26.85 43.5 25.0 45.75 L23.05 47.5 Q22.8 47.15 22.25 47.25 L21.95 47.05 22.0 47.0 21.95 46.75 21.85 46.6 21.15 46.65 20.95 46.9 20.95 46.95 20.9 46.85 20.85 46.75 20.35 46.9 20.2 47.15 19.9 47.3 19.85 47.3 19.85 47.2 19.7 47.0 19.65 47.0 19.15 47.05 19.1 47.15 19.0 47.05 18.75 47.2 Q18.65 47.25 18.7 47.45 18.55 47.2 18.25 47.1 L18.0 47.3 18.0 47.65 18.05 47.75 17.95 48.1 18.1 48.25 18.0 48.25 17.5 48.3 Q17.3 48.45 17.35 48.65 L17.45 48.8 17.1 49.4 13.95 48.95 Q11.2 48.05 10.55 45.8 M18.65 47.8 L18.75 47.6 18.8 47.7 18.65 47.8" fill="#cd9c41" fill-rule="evenodd" stroke="none"/>
    <path d="M18.15 37.25 Q20.7 37.15 22.45 38.75 23.8 39.95 24.3 41.65 24.55 42.6 24.3 44.8 24.1 47.1 23.5 47.3 L21.85 46.2 Q20.05 45.15 18.25 45.05 L16.65 45.5 15.0 46.7 Q13.9 47.0 12.95 45.1 L12.25 43.2 Q11.7 41.25 12.5 39.6 13.75 37.05 18.15 37.25" fill="#000000" fill-opacity="0.3019608" fill-rule="evenodd" stroke="none"/>
    <path d="M18.1 41.8 Q16.7 42.2 16.0 43.45 15.3 44.75 15.7 46.1 L16.7 49.45 14.8 49.25 Q13.3 48.95 11.45 47.95 10.85 47.65 8.65 44.0 L6.6 40.35 15.15 35.65 23.6 30.9 24.8 35.7 Q26.0 40.85 25.9 42.45 25.8 44.15 25.3 45.1 24.65 46.2 23.25 47.2 L22.35 44.2 Q21.95 42.85 20.7 42.05 19.45 41.4 18.1 41.8" fill="#bd813e" fill-rule="evenodd" stroke="none"/>
    <path d="M18.1 41.8 Q19.45 41.4 20.7 42.05 21.95 42.85 22.35 44.2 L23.25 47.2 Q24.65 46.2 25.3 45.1 25.8 44.15 25.9 42.45 26.0 40.85 24.8 35.7 L23.6 30.9 15.15 35.65 6.6 40.35 8.65 44.0 Q10.85 47.65 11.45 47.95 13.3 48.95 14.8 49.25 L16.7 49.45 15.7 46.1 Q15.3 44.75 16.0 43.45 16.7 42.2 18.1 41.8 Z" fill="none" stroke="#623a0f" stroke-linecap="round" stroke-linejoin="round" stroke-width="2.0"/>
    <path d="M15.5 49.4 L14.8 49.25 Q13.3 48.95 11.45 47.95 10.85 47.65 8.65 44.0 L6.6 40.35 15.15 35.65 23.6 30.9 24.8 35.7 Q26.0 40.85 25.9 42.45 25.8 44.15 25.3 45.1 L24.25 46.4 23.5 43.85 Q23.0 42.0 21.25 41.1 19.65 40.15 17.8 40.7 15.95 41.25 15.0 42.9 14.1 44.6 14.6 46.45 L15.5 49.4" fill="#bd813e" fill-rule="evenodd" stroke="none"/>
    <path d="M15.5 49.4 L14.6 46.45 Q14.1 44.6 15.0 42.9 15.95 41.25 17.8 40.7 19.65 40.15 21.25 41.1 23.0 42.0 23.5 43.85 L24.25 46.4 23.25 47.2 22.35 44.2 Q21.95 42.85 20.7 42.05 19.45 41.4 18.1 41.8 16.7 42.2 16.0 43.45 15.3 44.75 15.7 46.1 L16.7 49.45 15.5 49.4" fill="#7cb421" fill-rule="evenodd" stroke="none"/>
    <path d="M8.65 44.0 L6.6 40.35 15.15 35.65 23.6 30.9 24.8 35.7 Q25.6 39.0 25.8 40.85 L25.75 40.85 Q25.55 40.95 25.5 41.95 25.45 43.05 24.75 43.25 L24.2 43.25 23.95 43.2 Q23.7 43.25 23.65 43.85 L23.5 44.7 23.05 44.85 22.5 44.7 22.35 44.2 Q21.95 42.85 20.7 42.05 19.45 41.4 18.1 41.8 16.7 42.2 16.0 43.45 15.3 44.75 15.7 46.1 L16.1 47.45 15.7 47.65 14.65 47.5 Q14.25 47.15 14.1 47.2 L12.85 48.15 12.05 47.8 11.65 47.35 Q11.4 46.75 10.9 46.9 10.7 46.9 10.6 47.05 L8.65 44.0" fill="#000000" fill-opacity="0.2" fill-rule="evenodd" stroke="none"/>
    <path d="M11.1 47.55 L11.25 47.8 11.0 47.6 11.1 47.55" fill="#845a2b" fill-rule="evenodd" stroke="none"/>
    <path d="M20.6 23.45 L21.25 23.65 21.55 24.2 21.35 24.85 21.15 25.05 24.05 25.25 Q24.4 25.25 24.65 25.5 L24.85 26.15 24.6 26.8 23.95 27.0 22.85 26.85 25.35 27.4 25.9 27.75 26.05 28.45 25.65 28.95 25.05 29.1 23.15 28.75 26.5 29.9 27.05 30.35 27.0 31.0 26.6 31.5 25.9 31.55 22.5 30.3 26.95 32.7 27.4 33.2 27.35 33.85 26.8 34.25 26.2 34.2 23.05 32.55 26.65 35.3 27.05 35.9 26.85 36.5 26.25 36.85 25.65 36.65 20.6 32.85 25.6 37.4 25.85 37.95 25.65 38.6 25.05 38.85 24.4 38.65 20.7 35.25 23.7 39.2 23.85 39.85 23.5 40.45 22.85 40.6 Q22.5 40.55 22.3 40.25 L17.55 33.95 21.25 41.0 21.3 41.65 20.85 42.15 20.25 42.2 19.75 41.8 18.55 39.5 19.5 42.15 19.45 42.8 19.0 43.25 18.35 43.2 17.9 42.7 16.5 38.9 17.8 43.8 17.8 44.5 17.25 44.9 Q16.9 45.0 16.6 44.75 L16.2 44.3 15.4 41.55 15.85 44.0 15.75 44.65 15.2 45.0 14.55 44.9 14.15 44.35 13.05 37.8 13.5 44.6 13.3 45.25 12.75 45.5 12.1 45.3 11.8 44.75 11.25 38.05 10.75 43.05 10.5 43.6 9.85 43.8 Q9.5 43.75 9.25 43.5 L9.1 42.85 9.7 36.6 7.75 43.35 7.35 43.85 6.75 43.95 6.25 43.5 Q6.05 43.25 6.1 42.9 L7.35 38.75 6.1 41.25 5.7 41.65 5.0 41.65 4.6 41.15 Q4.45 40.8 4.6 40.5 L6.4 36.7 4.5 39.6 3.95 39.95 3.35 39.85 2.95 39.3 Q2.85 38.95 3.1 38.65 L5.45 35.0 4.15 36.45 3.5 36.7 2.9 36.5 Q2.6 36.25 2.6 35.85 2.55 35.55 2.85 35.25 L4.15 33.9 3.85 34.15 3.2 34.3 2.6 33.95 2.45 33.3 2.75 32.8 4.7 31.3 4.1 31.6 3.45 31.6 2.95 31.15 Q2.8 30.85 2.9 30.55 3.0 30.15 3.35 30.0 L4.2 29.6 4.1 29.55 3.75 29.0 Q3.65 28.65 3.9 28.35 4.1 28.0 4.45 28.0 L5.0 27.9 4.8 27.4 Q4.8 27.05 5.1 26.8 5.3 26.5 5.65 26.55 L6.3 26.5 6.2 26.4 6.15 25.8 6.6 25.25 7.2 25.15 7.5 25.25 Q7.45 24.9 7.65 24.6 7.8 24.3 8.15 24.2 L8.8 24.3 8.85 24.35 8.85 24.05 Q8.9 23.65 9.15 23.4 9.4 23.15 9.75 23.25 L10.15 23.35 Q10.25 22.95 10.6 22.8 10.9 22.65 11.3 22.8 L11.75 23.25 11.75 23.3 11.8 23.25 Q11.85 22.9 12.2 22.7 L12.8 22.55 13.35 23.0 13.65 22.9 14.3 23.1 14.5 23.5 16.95 22.65 17.6 22.7 18.0 23.15 18.05 23.7 20.6 23.45" fill="#cd7c1e" fill-rule="evenodd" stroke="none"/>
    <path d="M20.6 23.45 L18.05 23.7 18.0 23.15 17.6 22.7 16.95 22.65 14.5 23.5 14.3 23.1 13.65 22.9 13.35 23.0 12.8 22.55 12.2 22.7 Q11.85 22.9 11.8 23.25 L11.75 23.3 11.75 23.25 11.3 22.8 Q10.9 22.65 10.6 22.8 10.25 22.95 10.15 23.35 L9.75 23.25 Q9.4 23.15 9.15 23.4 8.9 23.65 8.85 24.05 L8.85 24.35 8.8 24.3 8.15 24.2 Q7.8 24.3 7.65 24.6 7.45 24.9 7.5 25.25 L7.2 25.15 6.6 25.25 6.15 25.8 6.2 26.4 6.3 26.5 5.65 26.55 Q5.3 26.5 5.1 26.8 4.8 27.05 4.8 27.4 L5.0 27.9 4.45 28.0 Q4.1 28.0 3.9 28.35 3.65 28.65 3.75 29.0 L4.1 29.55 4.2 29.6 3.35 30.0 Q3.0 30.15 2.9 30.55 2.8 30.85 2.95 31.15 L3.45 31.6 4.1 31.6 4.7 31.3 2.75 32.8 2.45 33.3 2.6 33.95 3.2 34.3 3.85 34.15 4.15 33.9 2.85 35.25 Q2.55 35.55 2.6 35.85 2.6 36.25 2.9 36.5 L3.5 36.7 4.15 36.45 5.45 35.0 3.1 38.65 Q2.85 38.95 2.95 39.3 L3.35 39.85 3.95 39.95 4.5 39.6 6.4 36.7 4.6 40.5 Q4.45 40.8 4.6 41.15 L5.0 41.65 5.7 41.65 6.1 41.25 7.35 38.75 6.1 42.9 Q6.05 43.25 6.25 43.5 L6.75 43.95 7.35 43.85 7.75 43.35 9.7 36.6 9.1 42.85 9.25 43.5 Q9.5 43.75 9.85 43.8 L10.5 43.6 10.75 43.05 11.25 38.05 11.8 44.75 12.1 45.3 12.75 45.5 13.3 45.25 13.5 44.6 13.05 37.8 14.15 44.35 14.55 44.9 15.2 45.0 15.75 44.65 15.85 44.0 15.4 41.55 16.2 44.3 16.6 44.75 Q16.9 45.0 17.25 44.9 L17.8 44.5 17.8 43.8 16.5 38.9 17.9 42.7 18.35 43.2 19.0 43.25 19.45 42.8 19.5 42.15 18.55 39.5 19.75 41.8 20.25 42.2 20.85 42.15 21.3 41.65 21.25 41.0 17.55 33.95 22.3 40.25 Q22.5 40.55 22.85 40.6 L23.5 40.45 23.85 39.85 23.7 39.2 20.7 35.25 24.4 38.65 25.05 38.85 25.65 38.6 25.85 37.95 25.6 37.4 20.6 32.85 25.65 36.65 26.25 36.85 26.85 36.5 27.05 35.9 26.65 35.3 23.05 32.55 26.2 34.2 26.8 34.25 27.35 33.85 27.4 33.2 26.95 32.7 22.5 30.3 25.9 31.55 26.6 31.5 27.0 31.0 27.05 30.35 26.5 29.9 23.15 28.75 25.05 29.1 25.65 28.95 26.05 28.45 25.9 27.75 25.35 27.4 22.85 26.85 23.95 27.0 24.6 26.8 24.85 26.15 24.65 25.5 Q24.4 25.25 24.05 25.25 L21.15 25.05 21.35 24.85 21.55 24.2 21.25 23.65 20.6 23.45 Z" fill="none" stroke="#623a0f" stroke-linecap="round" stroke-linejoin="round" stroke-width="2.0"/>
    <path d="M20.6 23.45 L21.25 23.65 21.55 24.2 21.35 24.85 21.15 25.05 24.05 25.25 Q24.4 25.25 24.65 25.5 L24.85 26.15 24.6 26.8 23.95 27.0 22.85 26.85 25.35 27.4 25.9 27.75 26.05 28.45 25.65 28.95 25.05 29.1 23.15 28.75 26.5 29.9 27.05 30.35 27.0 31.0 26.6 31.5 25.9 31.55 22.5 30.3 26.95 32.7 27.4 33.2 27.35 33.85 26.8 34.25 26.2 34.2 23.05 32.55 26.65 35.3 27.05 35.9 26.85 36.5 26.25 36.85 25.65 36.65 20.6 32.85 25.6 37.4 25.85 37.95 25.65 38.6 25.05 38.85 24.4 38.65 20.7 35.25 23.7 39.2 23.85 39.85 23.5 40.45 22.85 40.6 Q22.5 40.55 22.3 40.25 L17.55 33.95 21.25 41.0 21.3 41.65 20.85 42.15 20.25 42.2 19.75 41.8 18.55 39.5 19.5 42.15 19.45 42.8 19.0 43.25 18.35 43.2 17.9 42.7 16.5 38.9 17.8 43.8 17.8 44.5 17.25 44.9 Q16.9 45.0 16.6 44.75 L16.2 44.3 15.4 41.55 15.85 44.0 15.75 44.65 15.2 45.0 14.55 44.9 14.15 44.35 13.05 37.8 13.5 44.6 13.3 45.25 12.75 45.5 12.1 45.3 11.8 44.75 11.25 38.05 10.75 43.05 10.5 43.6 9.85 43.8 Q9.5 43.75 9.25 43.5 L9.1 42.85 9.7 36.6 7.75 43.35 7.35 43.85 6.75 43.95 6.25 43.5 Q6.05 43.25 6.1 42.9 L7.35 38.75 6.1 41.25 5.7 41.65 5.0 41.65 4.6 41.15 Q4.45 40.8 4.6 40.5 L6.4 36.7 4.5 39.6 3.95 39.95 3.35 39.85 2.95 39.3 Q2.85 38.95 3.1 38.65 L5.45 35.0 4.15 36.45 3.5 36.7 2.9 36.5 Q2.6 36.25 2.6 35.85 2.55 35.55 2.85 35.25 L4.15 33.9 3.85 34.15 3.2 34.3 2.6 33.95 2.45 33.3 2.75 32.8 4.7 31.3 4.1 31.6 3.45 31.6 2.95 31.15 Q2.8 30.85 2.9 30.55 3.0 30.15 3.35 30.0 L4.2 29.6 4.1 29.55 3.75 29.0 Q3.65 28.65 3.9 28.35 4.1 28.0 4.45 28.0 L5.0 27.9 4.8 27.4 Q4.8 27.05 5.1 26.8 5.3 26.5 5.65 26.55 L6.3 26.5 6.2 26.4 6.15 25.8 6.6 25.25 7.2 25.15 7.5 25.25 Q7.45 24.9 7.65 24.6 7.8 24.3 8.15 24.2 L8.8 24.3 8.85 24.35 8.85 24.05 Q8.9 23.65 9.15 23.4 9.4 23.15 9.75 23.25 L10.15 23.35 Q10.25 22.95 10.6 22.8 10.9 22.65 11.3 22.8 L11.75 23.25 11.75 23.3 11.8 23.25 Q11.85 22.9 12.2 22.7 L12.8 22.55 13.35 23.0 13.65 22.9 14.3 23.1 14.5 23.5 16.95 22.65 17.6 22.7 18.0 23.15 18.05 23.7 20.6 23.45" fill="#cd7c1e" fill-rule="evenodd" stroke="none"/>
    <path d="M8.75 24.7 L8.9 24.05 Q9.15 23.85 9.5 23.75 L9.8 23.75 10.05 23.3 Q10.35 23.05 10.65 23.05 L11.3 23.4 11.55 23.7 11.55 23.45 11.8 22.85 Q12.05 22.6 12.45 22.6 L12.9 22.8 13.1 22.7 13.7 22.8 14.15 23.25 14.2 23.7 15.25 23.25 15.95 23.35 16.4 23.8 16.95 23.55 17.6 23.6 18.05 24.1 18.05 24.75 17.55 25.15 20.95 24.9 21.55 25.15 21.85 25.75 21.65 26.4 21.05 26.6 18.9 26.8 22.05 27.3 Q22.4 27.4 22.55 27.7 L22.7 28.35 22.4 28.9 22.15 29.0 22.6 29.4 22.6 30.05 22.15 30.6 21.5 30.6 20.3 30.2 21.85 31.2 Q22.2 31.4 22.25 31.75 L22.15 32.4 21.6 32.75 21.8 33.2 21.6 33.8 Q21.35 34.05 20.95 34.1 L20.3 33.95 19.15 32.9 21.05 35.35 Q21.25 35.6 21.25 36.0 L20.9 36.55 20.3 36.7 19.75 36.4 16.0 31.65 18.2 36.0 18.3 36.7 17.85 37.15 17.2 37.2 16.7 36.85 15.7 34.8 17.25 40.1 17.2 40.7 16.7 41.1 16.05 41.05 15.6 40.55 14.4 36.65 14.9 40.35 14.75 40.95 14.2 41.35 Q13.85 41.4 13.6 41.15 L13.25 40.6 13.05 39.2 13.05 40.7 12.8 41.3 12.25 41.6 11.6 41.35 11.35 40.75 11.3 35.35 10.9 37.9 10.55 38.45 9.9 38.65 9.4 38.25 Q9.15 38.0 9.2 37.65 L9.85 33.1 7.95 37.3 7.45 37.7 6.75 37.7 6.35 37.25 Q6.2 36.9 6.4 36.55 L8.95 31.1 5.7 34.6 5.15 34.8 4.5 34.6 4.25 34.05 Q4.2 33.65 4.45 33.4 L7.45 30.15 6.35 30.8 5.75 30.95 5.2 30.55 5.05 29.9 5.45 29.4 6.4 28.75 6.1 28.7 5.65 28.2 Q5.55 27.85 5.7 27.55 5.8 27.25 6.15 27.1 L7.65 26.55 7.45 26.4 7.3 25.75 Q7.3 25.4 7.65 25.2 7.9 24.95 8.3 25.0 L8.9 25.1 Q8.75 24.95 8.75 24.7" fill="#d7984e" fill-rule="evenodd" stroke="none"/>
    <path d="M9.15 24.7 L9.35 24.1 Q9.55 23.85 9.9 23.8 L10.55 24.0 11.15 24.45 11.2 23.65 11.6 23.1 Q11.85 22.85 12.2 22.9 L12.75 23.25 12.85 23.25 13.2 23.15 Q13.5 23.05 13.8 23.3 L14.1 23.75 14.6 23.35 Q14.85 23.1 15.2 23.15 15.55 23.15 15.8 23.45 L16.0 24.1 15.7 24.65 15.25 25.05 17.45 24.45 Q17.8 24.35 18.15 24.6 L18.5 25.1 18.45 25.75 17.9 26.1 16.35 26.55 19.9 26.9 20.5 27.2 Q20.75 27.55 20.65 27.85 L20.35 28.45 19.75 28.65 16.4 28.3 19.15 29.65 19.6 30.2 19.5 30.8 19.05 31.2 18.4 31.2 16.85 30.45 18.1 31.5 18.4 32.1 18.2 32.7 Q18.0 33.0 17.6 33.0 L17.0 32.8 15.3 31.35 16.25 33.05 16.35 33.7 15.95 34.2 15.35 34.35 14.85 34.0 15.25 35.25 15.25 35.9 14.75 36.3 14.1 36.3 13.65 35.8 13.25 34.65 13.4 36.4 13.2 37.05 12.6 37.3 Q12.25 37.35 11.95 37.05 11.75 36.85 11.7 36.5 L11.5 34.6 11.25 34.85 10.65 35.05 10.1 34.75 Q9.85 34.45 9.9 34.15 L10.1 32.5 9.0 34.85 8.5 35.3 7.8 35.3 7.4 34.8 Q7.25 34.45 7.4 34.1 L8.95 30.9 8.1 31.6 7.5 31.8 6.9 31.55 Q6.65 31.25 6.7 30.9 6.7 30.5 6.95 30.3 L8.6 28.85 7.65 29.15 7.0 29.1 6.55 28.6 Q6.45 28.25 6.65 27.9 6.85 27.6 7.2 27.5 L8.75 27.05 8.55 27.05 8.0 26.65 Q7.8 26.35 7.9 26.05 L8.25 25.45 8.95 25.35 9.7 25.5 9.45 25.25 9.15 24.7" fill="#deb07a" fill-rule="evenodd" stroke="none"/>
    <path d="M15.6 24.35 L15.7 25.2 16.05 25.95 Q16.5 27.45 15.6 28.85 14.7 30.25 13.0 30.75 L9.8 30.55 Q8.3 29.85 7.85 28.35 L7.7 27.5 7.4 26.75 Q6.95 25.25 7.85 23.85 8.75 22.45 10.45 21.95 L13.65 22.15 Q15.15 22.85 15.6 24.35" fill="#658d10" fill-rule="evenodd" stroke="none"/>
    <path d="M15.6 24.35 L15.7 25.2 16.05 25.95 Q16.5 27.45 15.6 28.85 14.7 30.25 13.0 30.75 L9.8 30.55 Q8.3 29.85 7.85 28.35 L7.7 27.5 7.4 26.75 Q6.95 25.25 7.85 23.85 8.75 22.45 10.45 21.95 L13.65 22.15 Q15.15 22.85 15.6 24.35 Z" fill="none" stroke="#44600b" stroke-linecap="round" stroke-linejoin="round" stroke-width="4.0"/>
    <path d="M16.05 25.95 Q16.5 27.45 15.6 28.85 14.7 30.25 13.0 30.75 L9.8 30.55 Q8.3 29.85 7.85 28.35 7.45 26.9 8.3 25.45 9.2 24.1 10.9 23.6 L14.1 23.75 Q15.65 24.5 16.05 25.95" fill="#658d10" fill-rule="evenodd" stroke="none"/>
    <path d="M15.1 27.2 Q14.2 28.6 12.5 29.1 L9.3 28.9 Q7.8 28.2 7.4 26.75 6.95 25.25 7.85 23.85 8.75 22.45 10.45 21.95 L13.65 22.15 Q15.15 22.85 15.6 24.35 16.0 25.8 15.1 27.2" fill="#76a613" fill-rule="evenodd" stroke="none"/>
    <path d="M6.65 23.85 L5.7 22.75 5.5 22.2 Q5.55 21.85 5.8 21.65 L6.3 21.5 6.8 21.8 7.6 22.7 6.9 21.5 6.85 20.95 Q6.9 20.65 7.2 20.5 L7.8 20.45 8.05 20.65 8.0 20.45 8.0 19.9 Q8.15 19.6 8.45 19.5 L9.05 19.55 9.35 19.95 9.85 21.3 9.65 19.9 Q9.6 19.65 9.8 19.35 9.95 19.15 10.25 19.1 L10.8 19.25 10.85 19.3 11.05 18.95 11.6 18.75 Q11.85 18.7 12.05 19.0 L12.35 19.5 12.35 19.9 12.6 19.6 13.15 19.5 13.55 19.85 13.65 20.4 13.8 20.45 14.1 20.55 14.35 20.2 14.85 19.85 15.35 20.0 15.7 20.4 15.65 21.0 15.35 21.45 15.4 21.85 15.05 25.45 14.8 25.95 14.25 26.1 13.95 25.95 13.7 27.0 13.4 27.5 13.2 27.55 13.15 27.55 12.95 27.8 12.85 27.9 12.4 28.3 11.9 28.25 11.6 28.05 11.4 28.25 10.8 28.25 10.4 27.85 10.2 27.4 10.15 27.45 9.55 27.5 9.1 27.2 8.9 27.0 8.65 27.1 Q8.3 27.1 8.1 26.9 L5.75 25.1 5.45 24.6 5.65 24.05 Q5.8 23.85 6.15 23.8 L6.65 23.85 6.7 23.95 6.7 23.9 6.65 23.85 6.7 23.9 6.7 23.95 6.65 23.85" fill="#b56b16" fill-rule="evenodd" stroke="none"/>
    <path d="M6.65 23.85 L6.15 23.8 Q5.8 23.85 5.65 24.05 L5.45 24.6 5.75 25.1 8.1 26.9 Q8.3 27.1 8.65 27.1 L8.9 27.0 9.1 27.2 9.55 27.5 10.15 27.45 10.2 27.4 10.4 27.85 10.8 28.25 11.4 28.25 11.6 28.05 11.9 28.25 12.4 28.3 12.85 27.9 12.95 27.8 13.15 27.55 13.2 27.55 13.4 27.5 13.7 27.0 13.95 25.95 14.25 26.1 14.8 25.95 15.05 25.45 15.4 21.85 15.35 21.45 15.65 21.0 15.7 20.4 15.35 20.0 14.85 19.85 14.35 20.2 14.1 20.55 13.8 20.45 13.65 20.4 13.55 19.85 13.15 19.5 12.6 19.6 12.35 19.9 12.35 19.5 12.05 19.0 Q11.85 18.7 11.6 18.75 L11.05 18.95 10.85 19.3 10.8 19.25 10.25 19.1 Q9.95 19.15 9.8 19.35 9.6 19.65 9.65 19.9 L9.85 21.3 9.35 19.95 9.05 19.55 8.45 19.5 Q8.15 19.6 8.0 19.9 L8.0 20.45 8.05 20.65 7.8 20.45 7.2 20.5 Q6.9 20.65 6.85 20.95 L6.9 21.5 7.6 22.7 6.8 21.8 6.3 21.5 5.8 21.65 Q5.55 21.85 5.5 22.2 L5.7 22.75 6.65 23.85 6.7 23.9 6.7 23.95 6.65 23.85 Z" fill="none" stroke="#623a0f" stroke-linecap="round" stroke-linejoin="round" stroke-width="2.0"/>
    <path d="M9.65 19.9 Q9.6 19.65 9.8 19.35 9.95 19.15 10.25 19.1 L10.8 19.25 10.85 19.3 11.05 18.95 11.6 18.75 Q11.85 18.7 12.05 19.0 L12.35 19.5 12.35 19.9 12.6 19.6 13.15 19.5 13.55 19.85 13.65 20.4 13.8 20.45 14.1 20.55 14.35 20.2 14.85 19.85 15.35 20.0 15.7 20.4 15.65 21.0 13.85 23.65 13.55 24.0 13.0 23.95 12.65 23.7 12.05 23.75 12.0 23.75 11.5 23.9 11.1 23.8 11.0 23.85 10.75 23.8 11.05 24.55 11.0 25.1 10.55 25.5 10.0 25.45 9.65 25.0 9.5 24.65 9.4 24.7 8.9 24.7 8.6 25.2 8.05 25.35 7.55 25.1 5.7 22.75 5.5 22.2 Q5.55 21.85 5.8 21.65 L6.3 21.5 6.8 21.8 7.6 22.7 6.9 21.5 6.85 20.95 Q6.9 20.65 7.2 20.5 L7.8 20.45 8.05 20.65 8.0 20.45 8.0 19.9 Q8.15 19.6 8.45 19.5 L9.05 19.55 9.35 19.95 9.85 21.3 9.65 19.9" fill="url(#gradient0)" fill-rule="evenodd" stroke="none"/>
    <path d="M5.65 24.05 Q5.8 23.85 6.15 23.8 L6.7 23.9 7.6 24.65 7.6 24.5 Q7.7 24.2 7.9 24.05 L8.45 23.95 Q8.75 24.0 8.9 24.3 L9.15 24.5 Q9.2 24.25 9.45 24.15 L10.0 24.15 Q10.2 24.2 10.35 24.35 L10.1 23.7 Q10.0 23.45 10.15 23.15 L10.6 22.8 11.15 22.85 11.5 23.25 11.7 23.75 11.7 23.5 Q11.65 23.1 11.85 22.95 12.0 22.7 12.35 22.7 L12.9 22.85 13.1 23.2 13.35 22.9 13.85 22.75 13.95 21.7 Q13.95 21.4 14.25 21.15 L14.75 21.05 15.25 21.3 15.4 21.85 15.05 25.45 14.8 25.95 14.25 26.1 13.95 25.95 13.7 27.0 13.4 27.5 13.2 27.55 13.15 27.55 12.95 27.8 12.85 27.9 12.4 28.3 11.9 28.25 11.6 28.05 11.4 28.25 10.8 28.25 10.4 27.85 10.2 27.4 10.15 27.45 9.55 27.5 9.1 27.2 8.9 27.0 8.65 27.1 Q8.3 27.1 8.1 26.9 L5.75 25.1 5.45 24.6 5.65 24.05" fill="#cd7c1e" fill-rule="evenodd" stroke="none"/>
    <path d="M58.4 46.25 L58.2 46.5 58.15 46.65 Q57.95 46.7 57.8 46.85 L57.9 47.0 57.85 47.05 Q57.6 46.75 57.35 46.7 57.1 46.7 57.05 46.9 56.95 47.0 57.0 47.05 56.55 47.15 56.3 47.35 54.9 46.2 54.05 44.75 52.45 42.1 53.55 39.9 54.55 37.65 57.55 37.15 60.6 36.6 63.85 38.1 67.05 39.6 68.6 42.25 70.2 44.8 69.15 47.1 68.1 49.3 65.1 49.85 L62.4 49.9 Q62.35 49.45 61.85 49.15 L61.8 48.8 61.85 48.8 62.0 48.55 61.95 48.3 Q61.75 47.95 61.4 47.9 L61.05 48.0 61.0 48.0 61.1 47.85 61.05 47.75 60.6 47.55 Q60.5 47.55 60.3 47.7 L59.95 47.55 59.9 47.5 59.95 47.4 60.05 47.2 60.0 47.15 59.5 46.85 59.4 46.85 59.4 46.75 59.1 46.65 58.9 46.85 58.85 46.95 58.75 46.2 58.4 46.25 M58.85 47.05 L58.75 47.1 58.65 47.1 58.85 47.05" fill="#cd9c41" fill-rule="evenodd" stroke="none"/>
    <path d="M56.4 43.65 Q55.35 43.2 56.0 41.0 L56.75 39.0 Q57.65 37.1 59.4 36.35 62.1 35.15 65.45 38.3 67.6 39.95 67.95 42.5 68.15 44.4 67.4 46.1 66.95 47.05 65.2 48.65 63.4 50.3 62.8 50.0 L62.35 48.1 Q61.55 45.9 60.2 44.65 L58.55 43.9 56.4 43.65" fill="#000000" fill-opacity="0.3019608" fill-rule="evenodd" stroke="none"/>
    <path d="M53.35 37.1 L54.15 32.85 64.15 34.95 74.2 37.05 71.9 41.75 Q69.3 46.65 68.1 47.85 66.8 49.15 65.75 49.5 L62.75 49.75 64.1 46.8 Q64.75 45.45 64.2 43.95 63.65 42.5 62.3 41.9 L59.55 41.8 Q58.05 42.35 57.4 43.75 L55.9 47.1 54.5 45.6 Q53.55 44.35 52.7 42.25 52.5 41.55 53.35 37.1" fill="#bd813e" fill-rule="evenodd" stroke="none"/>
    <path d="M53.35 37.1 Q52.5 41.55 52.7 42.25 53.55 44.35 54.5 45.6 L55.9 47.1 57.4 43.75 Q58.05 42.35 59.55 41.8 L62.3 41.9 Q63.65 42.5 64.2 43.95 64.75 45.45 64.1 46.8 L62.75 49.75 65.75 49.5 Q66.8 49.15 68.1 47.85 69.3 46.65 71.9 41.75 L74.2 37.05 64.15 34.95 54.15 32.85 53.35 37.1 Z" fill="none" stroke="#623a0f" stroke-linecap="round" stroke-linejoin="round" stroke-width="2.0"/>
    <path d="M55.0 46.2 L54.5 45.6 Q53.55 44.35 52.7 42.25 52.5 41.55 53.35 37.1 L54.15 32.85 64.15 34.95 74.2 37.05 71.9 41.75 Q69.3 46.65 68.1 47.85 66.8 49.15 65.75 49.5 L64.05 49.85 65.2 47.3 Q66.05 45.45 65.35 43.55 64.7 41.65 62.85 40.8 L59.1 40.65 Q57.2 41.35 56.35 43.2 L55.0 46.2" fill="#bd813e" fill-rule="evenodd" stroke="none"/>
    <path d="M55.0 46.2 L56.35 43.2 Q57.2 41.35 59.1 40.65 L62.85 40.8 Q64.7 41.65 65.35 43.55 66.05 45.45 65.2 47.3 L64.05 49.85 62.75 49.75 64.1 46.8 Q64.75 45.45 64.2 43.95 63.65 42.5 62.3 41.9 L59.55 41.8 Q58.05 42.35 57.4 43.75 L55.9 47.1 55.0 46.2" fill="#7cb421" fill-rule="evenodd" stroke="none"/>
    <path d="M53.35 37.1 L54.15 32.85 64.15 34.95 74.2 37.05 71.9 41.75 69.15 46.5 69.1 46.45 Q68.85 46.35 68.1 47.2 67.35 48.05 66.7 47.7 L66.2 47.35 66.05 47.1 Q65.8 46.95 65.3 47.4 L64.65 47.95 64.15 47.75 Q63.95 47.7 63.85 47.3 L64.1 46.8 Q64.75 45.45 64.2 43.95 63.65 42.5 62.3 41.9 L59.55 41.8 Q58.05 42.35 57.4 43.75 L56.8 45.1 56.4 44.9 Q55.75 44.6 55.65 44.1 L55.45 43.45 53.75 43.35 53.35 42.5 Q53.2 42.15 53.35 41.9 53.55 41.25 53.05 41.05 L52.7 40.95 Q52.85 39.6 53.35 37.1" fill="#000000" fill-opacity="0.2" fill-rule="evenodd" stroke="none"/>
    <path d="M52.7 41.95 L52.65 41.65 52.75 41.65 52.7 41.95" fill="#845a2b" fill-rule="evenodd" stroke="none"/>
    <path d="M65.15 21.1 L65.3 21.35 Q65.5 21.05 65.85 20.95 L66.55 21.0 67.0 21.55 67.05 21.6 67.25 21.3 Q67.5 21.05 67.85 21.1 68.25 21.05 68.5 21.35 L68.8 21.7 69.45 21.6 70.05 22.05 70.1 22.75 70.05 22.8 70.15 22.75 Q70.45 22.5 70.8 22.55 71.2 22.65 71.35 22.9 L71.55 23.65 71.8 23.75 72.2 24.35 72.1 24.85 74.65 25.85 75.1 26.4 75.15 27.0 74.8 27.5 76.95 29.0 77.35 29.65 77.25 30.25 76.6 30.65 76.35 30.65 78.55 32.85 Q78.85 33.1 78.8 33.5 L78.55 34.15 77.9 34.4 77.2 34.15 76.45 33.3 78.05 35.5 78.25 36.1 77.95 36.75 77.25 36.9 76.65 36.55 75.4 34.95 77.3 38.2 77.35 38.95 76.9 39.5 76.2 39.55 75.7 39.15 73.8 35.8 75.7 40.8 75.7 41.5 75.2 41.95 74.5 41.95 Q74.2 41.8 74.05 41.45 L72.7 37.95 73.7 42.65 Q73.8 43.1 73.55 43.35 L72.95 43.75 72.3 43.65 71.95 43.0 70.55 36.5 71.35 43.55 71.2 44.25 70.55 44.6 69.9 44.35 69.55 43.8 68.9 38.45 68.6 43.7 68.2 44.35 67.6 44.55 67.0 44.3 Q66.7 43.95 66.75 43.55 L67.3 35.3 65.4 43.5 65.0 44.05 64.25 44.1 63.75 43.75 Q63.5 43.45 63.65 43.1 L64.2 40.4 63.2 43.2 62.75 43.65 62.05 43.7 61.5 43.15 61.5 42.5 63.05 38.45 60.7 43.35 60.2 43.85 59.5 43.8 59.1 43.3 Q58.95 42.95 59.1 42.6 L60.4 39.9 59.0 42.15 58.5 42.6 57.85 42.5 57.35 41.9 Q57.25 41.5 57.45 41.2 L61.05 35.2 56.75 40.95 Q56.55 41.3 56.1 41.35 L55.45 41.2 55.1 40.6 Q55.05 40.2 55.3 39.9 L59.5 34.25 55.65 37.85 55.0 38.15 54.35 37.8 Q54.1 37.5 54.15 37.15 54.15 36.75 54.4 36.5 L59.25 32.0 53.05 36.05 52.35 36.2 51.75 35.75 Q51.55 35.45 51.65 35.05 51.7 34.7 52.05 34.5 L55.85 32.0 53.15 33.2 52.5 33.25 52.0 32.7 51.95 32.05 52.45 31.55 56.5 29.75 53.0 30.75 52.35 30.7 51.9 30.15 Q51.8 29.8 52.0 29.5 52.15 29.1 52.5 29.05 L56.95 27.8 54.9 28.05 Q54.45 28.0 54.2 27.75 53.9 27.55 53.9 27.2 53.8 26.8 54.05 26.55 54.3 26.2 54.7 26.2 L56.7 25.95 56.2 25.95 Q55.85 25.95 55.6 25.65 L55.35 25.0 Q55.4 24.55 55.65 24.35 56.0 24.1 56.35 24.1 L58.85 24.3 58.15 24.05 57.65 23.65 57.6 22.95 57.95 22.4 58.65 22.35 59.7 22.65 59.6 22.45 Q59.5 22.05 59.8 21.8 L60.3 21.35 Q60.7 21.25 61.0 21.5 L61.45 21.8 61.7 21.25 Q61.95 21.0 62.35 20.9 L62.95 21.15 63.5 21.55 63.45 21.45 63.85 20.9 Q64.2 20.65 64.55 20.75 L65.15 21.1" fill="#cd7c1e" fill-rule="evenodd" stroke="none"/>
    <path d="M65.15 21.1 L64.55 20.75 Q64.2 20.65 63.85 20.9 L63.45 21.45 63.5 21.55 62.95 21.15 62.35 20.9 Q61.95 21.0 61.7 21.25 L61.45 21.8 61.0 21.5 Q60.7 21.25 60.3 21.35 L59.8 21.8 Q59.5 22.05 59.6 22.45 L59.7 22.65 58.65 22.35 57.95 22.4 57.6 22.95 57.65 23.65 58.15 24.05 58.85 24.3 56.35 24.1 Q56.0 24.1 55.65 24.35 55.4 24.55 55.35 25.0 L55.6 25.65 Q55.85 25.95 56.2 25.95 L56.7 25.95 54.7 26.2 Q54.3 26.2 54.05 26.55 53.8 26.8 53.9 27.2 53.9 27.55 54.2 27.75 54.45 28.0 54.9 28.05 L56.95 27.8 52.5 29.05 Q52.15 29.1 52.0 29.5 51.8 29.8 51.9 30.15 L52.35 30.7 53.0 30.75 56.5 29.75 52.45 31.55 51.95 32.05 52.0 32.7 52.5 33.25 53.15 33.2 55.85 32.0 52.05 34.5 Q51.7 34.7 51.65 35.05 51.55 35.45 51.75 35.75 L52.35 36.2 53.05 36.05 59.25 32.0 54.4 36.5 Q54.15 36.75 54.15 37.15 54.1 37.5 54.35 37.8 L55.0 38.15 55.65 37.85 59.5 34.25 55.3 39.9 Q55.05 40.2 55.1 40.6 L55.45 41.2 56.1 41.35 Q56.55 41.3 56.75 40.95 L61.05 35.2 57.45 41.2 Q57.25 41.5 57.35 41.9 L57.85 42.5 58.5 42.6 59.0 42.15 60.4 39.9 59.1 42.6 Q58.95 42.95 59.1 43.3 L59.5 43.8 60.2 43.85 60.7 43.35 63.05 38.45 61.5 42.5 61.5 43.15 62.05 43.7 62.75 43.65 63.2 43.2 64.2 40.4 63.65 43.1 Q63.5 43.45 63.75 43.75 L64.25 44.1 65.0 44.05 65.4 43.5 67.3 35.3 66.75 43.55 Q66.7 43.95 67.0 44.3 L67.6 44.55 68.2 44.35 68.6 43.7 68.9 38.45 69.55 43.8 69.9 44.35 70.55 44.6 71.2 44.25 71.35 43.55 70.55 36.5 71.95 43.0 72.3 43.65 72.95 43.75 73.55 43.35 Q73.8 43.1 73.7 42.65 L72.7 37.95 74.05 41.45 Q74.2 41.8 74.5 41.95 L75.2 41.95 75.7 41.5 75.7 40.8 73.8 35.8 75.7 39.15 76.2 39.55 76.9 39.5 77.35 38.95 77.3 38.2 75.4 34.95 76.65 36.55 77.25 36.9 77.95 36.75 78.25 36.1 78.05 35.5 76.45 33.3 77.2 34.15 77.9 34.4 78.55 34.15 78.8 33.5 Q78.85 33.1 78.55 32.85 L76.35 30.65 76.6 30.65 77.25 30.25 77.35 29.65 76.95 29.0 74.8 27.5 75.15 27.0 75.1 26.4 74.65 25.85 72.1 24.85 72.2 24.35 71.8 23.75 71.55 23.65 71.35 22.9 Q71.2 22.65 70.8 22.55 70.45 22.5 70.15 22.75 L70.05 22.8 70.1 22.75 70.05 22.05 69.45 21.6 68.8 21.7 68.5 21.35 Q68.25 21.05 67.85 21.1 67.5 21.05 67.25 21.3 L67.05 21.6 67.0 21.55 66.55 21.0 65.85 20.95 Q65.5 21.05 65.3 21.35 L65.15 21.1 Z" fill="none" stroke="#623a0f" stroke-linecap="round" stroke-linejoin="round" stroke-width="2.0"/>
    <path d="M65.15 21.1 L65.3 21.35 Q65.5 21.05 65.85 20.95 L66.55 21.0 67.0 21.55 67.05 21.6 67.25 21.3 Q67.5 21.05 67.85 21.1 68.25 21.05 68.5 21.35 L68.8 21.7 69.45 21.6 70.05 22.05 70.1 22.75 70.05 22.8 70.15 22.75 Q70.45 22.5 70.8 22.55 71.2 22.65 71.35 22.9 L71.55 23.65 71.8 23.75 72.2 24.35 72.1 24.85 74.65 25.85 75.1 26.4 75.15 27.0 74.8 27.5 76.95 29.0 77.35 29.65 77.25 30.25 76.6 30.65 76.35 30.65 78.55 32.85 Q78.85 33.1 78.8 33.5 L78.55 34.15 77.9 34.4 77.2 34.15 76.45 33.3 78.05 35.5 78.25 36.1 77.95 36.75 77.25 36.9 76.65 36.55 75.4 34.95 77.3 38.2 77.35 38.95 76.9 39.5 76.2 39.55 75.7 39.15 73.8 35.8 75.7 40.8 75.7 41.5 75.2 41.95 74.5 41.95 Q74.2 41.8 74.05 41.45 L72.7 37.95 73.7 42.65 Q73.8 43.1 73.55 43.35 L72.95 43.75 72.3 43.65 71.95 43.0 70.55 36.5 71.35 43.55 71.2 44.25 70.55 44.6 69.9 44.35 69.55 43.8 68.9 38.45 68.6 43.7 68.2 44.35 67.6 44.55 67.0 44.3 Q66.7 43.95 66.75 43.55 L67.3 35.3 65.4 43.5 65.0 44.05 64.25 44.1 63.75 43.75 Q63.5 43.45 63.65 43.1 L64.2 40.4 63.2 43.2 62.75 43.65 62.05 43.7 61.5 43.15 61.5 42.5 63.05 38.45 60.7 43.35 60.2 43.85 59.5 43.8 59.1 43.3 Q58.95 42.95 59.1 42.6 L60.4 39.9 59.0 42.15 58.5 42.6 57.85 42.5 57.35 41.9 Q57.25 41.5 57.45 41.2 L61.05 35.2 56.75 40.95 Q56.55 41.3 56.1 41.35 L55.45 41.2 55.1 40.6 Q55.05 40.2 55.3 39.9 L59.5 34.25 55.65 37.85 55.0 38.15 54.35 37.8 Q54.1 37.5 54.15 37.15 54.15 36.75 54.4 36.5 L59.25 32.0 53.05 36.05 52.35 36.2 51.75 35.75 Q51.55 35.45 51.65 35.05 51.7 34.7 52.05 34.5 L55.85 32.0 53.15 33.2 52.5 33.25 52.0 32.7 51.95 32.05 52.45 31.55 56.5 29.75 53.0 30.75 52.35 30.7 51.9 30.15 Q51.8 29.8 52.0 29.5 52.15 29.1 52.5 29.05 L56.95 27.8 54.9 28.05 Q54.45 28.0 54.2 27.75 53.9 27.55 53.9 27.2 53.8 26.8 54.05 26.55 54.3 26.2 54.7 26.2 L56.7 25.95 56.2 25.95 Q55.85 25.95 55.6 25.65 L55.35 25.0 Q55.4 24.55 55.65 24.35 56.0 24.1 56.35 24.1 L58.85 24.3 58.15 24.05 57.65 23.65 57.6 22.95 57.95 22.4 58.65 22.35 59.7 22.65 59.6 22.45 Q59.5 22.05 59.8 21.8 L60.3 21.35 Q60.7 21.25 61.0 21.5 L61.45 21.8 61.7 21.25 Q61.95 21.0 62.35 20.9 L62.95 21.15 63.5 21.55 63.45 21.45 63.85 20.9 Q64.2 20.65 64.55 20.75 L65.15 21.1" fill="#cd7c1e" fill-rule="evenodd" stroke="none"/>
    <path d="M64.8 21.6 Q65.1 21.35 65.5 21.45 L66.05 21.75 66.55 22.25 66.7 21.85 67.25 21.45 67.95 21.6 68.15 21.8 Q68.35 21.6 68.7 21.6 69.1 21.65 69.3 21.85 L69.6 22.5 69.65 22.85 69.75 22.75 Q70.0 22.5 70.4 22.45 70.75 22.4 71.1 22.7 L71.3 23.15 71.5 23.2 72.05 23.75 71.95 24.4 71.75 24.75 72.85 25.25 Q73.2 25.3 73.4 25.65 L73.4 26.35 74.0 26.55 74.5 27.05 Q74.7 27.35 74.55 27.75 L74.1 28.2 73.4 28.25 76.25 30.45 76.65 31.05 76.45 31.7 75.8 32.05 75.15 31.85 73.3 30.45 75.5 33.1 75.7 33.8 75.35 34.35 74.65 34.55 74.35 34.45 74.45 35.1 74.05 35.7 73.35 35.8 72.85 35.35 72.1 34.2 72.7 36.0 72.6 36.8 72.05 37.2 71.4 37.1 71.2 37.6 Q71.0 37.9 70.6 37.9 L69.95 37.8 69.55 37.2 69.35 35.6 69.15 38.8 68.9 39.5 68.2 39.65 Q67.9 39.65 67.55 39.35 67.3 39.1 67.35 38.75 L67.65 32.4 66.4 37.4 66.0 37.95 65.35 38.05 64.75 37.65 64.7 36.95 65.25 34.65 62.9 39.9 62.4 40.4 61.65 40.4 61.2 39.85 Q61.0 39.5 61.2 39.2 L62.95 35.25 60.8 38.6 60.25 38.95 59.55 38.9 59.15 38.25 59.3 37.6 60.1 36.35 59.1 37.55 58.4 37.9 57.85 37.65 Q57.5 37.45 57.45 37.1 L57.65 36.45 61.35 32.05 59.3 33.8 Q59.0 34.1 58.65 34.05 58.25 34.05 57.95 33.7 57.7 33.45 57.8 33.05 57.75 32.7 58.05 32.45 L61.75 29.3 57.4 31.3 56.7 31.3 Q56.3 31.2 56.15 30.85 55.95 30.45 56.15 30.15 56.25 29.75 56.55 29.65 L62.4 27.05 57.45 27.6 56.75 27.35 56.45 26.8 Q56.4 26.4 56.65 26.1 56.9 25.8 57.3 25.8 L61.95 25.25 60.5 25.1 60.0 24.7 Q59.75 24.4 59.85 24.05 59.85 23.65 60.15 23.4 L60.85 23.3 62.0 23.45 61.8 23.2 Q61.6 22.85 61.8 22.5 61.9 22.15 62.3 21.95 L63.0 22.0 64.5 22.55 64.55 22.25 Q64.5 21.85 64.8 21.6" fill="#d7984e" fill-rule="evenodd" stroke="none"/>
    <path d="M62.75 24.6 L62.25 24.1 Q62.15 23.75 62.3 23.4 L62.8 22.9 63.5 23.0 65.05 23.7 64.95 23.55 Q64.7 23.2 64.8 22.9 64.85 22.45 65.15 22.35 L65.75 22.05 66.4 22.45 66.9 23.1 66.85 22.75 Q66.75 22.4 67.0 22.1 L67.6 21.75 68.25 21.9 68.6 22.45 68.75 23.3 69.4 22.7 Q69.65 22.45 70.05 22.5 70.4 22.45 70.7 22.75 L70.9 23.4 70.95 23.5 71.3 23.65 71.7 24.15 71.6 24.75 72.25 24.8 Q72.65 24.75 72.95 25.05 L73.2 25.7 72.9 26.35 72.2 26.55 71.65 26.6 73.8 27.65 74.25 28.2 74.25 28.85 73.7 29.35 73.0 29.3 71.45 28.5 74.05 31.3 74.35 31.95 74.05 32.55 73.35 32.85 Q73.0 32.8 72.75 32.5 L70.3 29.95 71.55 32.95 71.55 33.65 71.1 34.15 70.4 34.15 69.9 33.65 69.25 32.0 69.5 33.7 69.25 34.45 68.7 34.8 Q68.35 34.85 68.0 34.55 67.65 34.35 67.65 33.95 L67.35 31.6 66.85 33.7 66.55 34.3 65.85 34.4 65.25 34.05 65.05 33.45 64.6 34.75 64.1 35.2 63.45 35.2 62.95 34.75 Q62.8 34.4 62.95 34.05 L63.45 32.85 62.3 34.35 61.7 34.7 61.05 34.6 Q60.75 34.35 60.7 33.95 60.65 33.6 60.85 33.3 L62.05 31.6 61.65 31.65 Q61.35 31.65 61.1 31.35 L60.85 30.8 Q60.9 30.4 61.1 30.1 L62.4 28.95 59.85 30.05 59.15 30.1 58.65 29.55 Q58.45 29.25 58.6 28.95 L59.05 28.4 62.6 26.9 61.4 26.9 60.8 26.65 Q60.5 26.35 60.5 26.0 60.55 25.6 60.75 25.35 61.0 25.05 61.4 25.1 L63.7 25.05 62.75 24.6" fill="#deb07a" fill-rule="evenodd" stroke="none"/>
    <path d="M72.4 23.2 Q73.05 24.8 72.35 26.25 L71.95 27.0 71.6 27.85 Q70.9 29.3 69.3 29.8 L65.9 29.55 Q64.25 28.8 63.5 27.15 62.8 25.55 63.5 24.1 63.65 23.65 63.95 23.35 L64.15 22.45 Q64.85 21.0 66.6 20.55 68.25 20.0 70.0 20.8 71.65 21.55 72.4 23.2" fill="#658d10" fill-rule="evenodd" stroke="none"/>
    <path d="M72.4 23.2 Q73.05 24.8 72.35 26.25 L71.95 27.0 71.6 27.85 Q70.9 29.3 69.3 29.8 L65.9 29.55 Q64.25 28.8 63.5 27.15 62.8 25.55 63.5 24.1 63.65 23.65 63.95 23.35 L64.15 22.45 Q64.85 21.0 66.6 20.55 68.25 20.0 70.0 20.8 71.65 21.55 72.4 23.2 Z" fill="none" stroke="#44600b" stroke-linecap="round" stroke-linejoin="round" stroke-width="4.0"/>
    <path d="M69.3 29.8 L65.9 29.55 Q64.25 28.8 63.5 27.15 62.8 25.55 63.5 24.1 64.1 22.65 65.8 22.1 67.5 21.65 69.2 22.4 70.9 23.25 71.6 24.75 72.3 26.4 71.6 27.85 70.9 29.3 69.3 29.8" fill="#658d10" fill-rule="evenodd" stroke="none"/>
    <path d="M66.65 27.95 Q64.9 27.15 64.25 25.55 63.5 23.9 64.15 22.45 64.85 21.0 66.6 20.55 68.25 20.0 70.0 20.8 71.65 21.55 72.4 23.2 73.05 24.8 72.35 26.25 71.7 27.7 70.0 28.2 L66.65 27.95" fill="#76a613" fill-rule="evenodd" stroke="none"/>
    <path d="M65.85 17.55 Q66.1 17.3 66.45 17.35 L66.95 17.6 67.2 18.15 67.1 19.35 67.4 18.0 67.8 17.5 68.35 17.35 68.85 17.75 68.95 18.05 69.05 17.9 69.5 17.5 70.05 17.45 70.5 17.85 70.5 18.45 69.95 19.85 70.7 18.6 71.2 18.25 71.75 18.35 72.15 18.85 72.1 18.95 72.55 18.8 73.05 19.05 73.3 19.55 73.2 20.15 72.85 20.45 73.25 20.4 Q73.6 20.4 73.8 20.75 L73.95 21.25 73.55 21.75 73.65 21.9 73.8 22.25 74.25 22.15 74.9 22.2 Q75.15 22.35 75.2 22.65 L75.2 23.2 74.75 23.6 74.25 23.75 73.95 24.15 71.2 26.75 70.65 26.95 70.1 26.7 69.95 26.4 69.05 27.1 68.45 27.2 68.25 27.15 67.9 27.15 67.7 27.2 67.1 27.2 Q66.8 27.1 66.75 26.8 L66.65 26.5 66.4 26.4 Q66.1 26.4 65.9 26.1 L65.85 25.5 66.0 24.95 65.85 24.95 65.4 24.65 65.2 24.15 65.25 23.75 64.95 23.65 Q64.65 23.45 64.65 23.1 L64.05 20.0 Q63.95 19.75 64.15 19.45 64.3 19.2 64.65 19.15 L65.2 19.3 65.55 19.8 65.6 19.8 65.6 18.05 65.85 17.55" fill="#b56b16" fill-rule="evenodd" stroke="none"/>
    <path d="M65.85 17.55 L65.6 18.05 65.6 19.8 65.55 19.8 65.2 19.3 64.65 19.15 Q64.3 19.2 64.15 19.45 63.95 19.75 64.05 20.0 L64.65 23.1 Q64.65 23.45 64.95 23.65 L65.25 23.75 65.2 24.15 65.4 24.65 65.85 24.95 66.0 24.95 65.85 25.5 65.9 26.1 Q66.1 26.4 66.4 26.4 L66.65 26.5 66.75 26.8 Q66.8 27.1 67.1 27.2 L67.7 27.2 67.9 27.15 68.25 27.15 68.45 27.2 69.05 27.1 69.95 26.4 70.1 26.7 70.65 26.95 71.2 26.75 73.95 24.15 74.25 23.75 74.75 23.6 75.2 23.2 75.2 22.65 Q75.15 22.35 74.9 22.2 L74.25 22.15 73.8 22.25 73.65 21.9 73.55 21.75 73.95 21.25 73.8 20.75 Q73.6 20.4 73.25 20.4 L72.85 20.45 73.2 20.15 73.3 19.55 73.05 19.05 72.55 18.8 72.1 18.95 72.15 18.85 71.75 18.35 71.2 18.25 70.7 18.6 69.95 19.85 70.5 18.45 70.5 17.85 70.05 17.45 69.5 17.5 69.05 17.9 68.95 18.05 68.85 17.75 68.35 17.35 67.8 17.5 67.4 18.0 67.1 19.35 67.2 18.15 66.95 17.6 66.45 17.35 Q66.1 17.3 65.85 17.55 Z" fill="none" stroke="#623a0f" stroke-linecap="round" stroke-linejoin="round" stroke-width="2.0"/>
    <path d="M65.85 17.55 Q66.1 17.3 66.45 17.35 L66.95 17.6 67.2 18.15 67.1 19.35 67.4 18.0 67.8 17.5 68.35 17.35 68.85 17.75 68.95 18.05 69.05 17.9 69.5 17.5 70.05 17.45 70.5 17.85 70.5 18.45 69.95 19.85 70.7 18.6 71.2 18.25 71.75 18.35 72.15 18.85 72.1 18.95 72.55 18.8 73.05 19.05 73.3 19.55 73.2 20.15 72.85 20.45 73.25 20.4 Q73.6 20.4 73.8 20.75 L73.95 21.25 73.55 21.75 73.65 21.9 73.8 22.25 74.25 22.15 74.9 22.2 Q75.15 22.35 75.2 22.65 L75.2 23.2 74.75 23.6 71.45 24.55 70.95 24.6 70.6 24.15 70.5 23.7 69.95 23.4 69.95 23.35 69.4 23.15 69.2 22.75 69.1 22.65 68.9 22.5 68.6 23.2 68.2 23.7 67.6 23.7 67.25 23.3 Q67.05 23.0 67.2 22.65 L67.3 22.35 67.2 22.25 66.75 22.0 66.25 22.15 Q65.9 22.1 65.7 21.85 L65.5 21.35 65.6 18.05 65.85 17.55" fill="url(#gradient1)" fill-rule="evenodd" stroke="none"/>
    <path d="M65.2 19.3 L65.55 19.8 65.8 20.95 65.9 20.9 66.5 20.7 67.0 21.0 67.15 21.55 67.15 21.9 67.6 21.85 68.1 22.25 68.2 22.6 68.5 21.95 68.9 21.55 69.5 21.6 69.85 22.0 69.85 22.6 69.6 23.1 69.85 22.85 Q70.1 22.55 70.4 22.5 L70.95 22.65 71.25 23.25 71.2 23.65 71.65 23.55 72.1 23.8 72.9 22.95 73.5 22.8 Q73.8 22.8 74.0 23.05 L74.2 23.6 73.95 24.15 71.2 26.75 70.65 26.95 70.1 26.7 69.95 26.4 69.05 27.1 68.45 27.2 68.25 27.15 67.9 27.15 67.7 27.2 67.1 27.2 Q66.8 27.1 66.75 26.8 L66.65 26.5 66.4 26.4 Q66.1 26.4 65.9 26.1 L65.85 25.5 66.0 24.95 65.85 24.95 65.4 24.65 65.2 24.15 65.25 23.75 64.95 23.65 Q64.65 23.45 64.65 23.1 L64.05 20.0 Q63.95 19.75 64.15 19.45 64.3 19.2 64.65 19.15 L65.2 19.3" fill="#cd7c1e" fill-rule="evenodd" stroke="none"/>
  </g>
  <defs>
    <linearGradient gradientTransform="matrix(-0.001, -0.0024, 0.0036, -0.0015, 10.8, 22.1)" gradientUnits="userSpaceOnUse" id="gradient0" spreadMethod="pad" x1="-819.2" x2="819.2">
      <stop offset="0.0" stop-color="#6c3e0b"/>
      <stop offset="1.0" stop-color="#cd7c1e"/>
    </linearGradient>
    <linearGradient gradientTransform="matrix(9.0E-4, -0.0026, 0.0039, 0.0013, 70.15, 21.2)" gradientUnits="userSpaceOnUse" id="gradient1" spreadMethod="pad" x1="-819.2" x2="819.2">
      <stop offset="0.0" stop-color="#6c3e0b"/>
      <stop offset="1.0" stop-color="#cd7c1e"/>
    </linearGradient>
  </defs>
</svg>
