<?xml version="1.0" encoding="UTF-8" standalone="no"?>
<svg xmlns:xlink="http://www.w3.org/1999/xlink" height="76.9px" width="64.0px" xmlns="http://www.w3.org/2000/svg">
  <g transform="matrix(1.0, 0.0, 0.0, 1.0, 0.0, 12.9)">
    <path d="M64.0 0.0 L64.0 64.0 0.0 64.0 0.0 0.0 64.0 0.0" fill="#e9c572" fill-opacity="0.0" fill-rule="evenodd" stroke="none"/>
    <path d="M54.5 8.05 L53.9 8.1 54.55 8.0 54.5 8.05 M48.85 51.3 Q48.75 51.5 48.45 51.5 L48.4 51.75 Q48.8 52.1 48.8 52.4 48.8 53.3 47.7 53.3 47.2 53.3 47.05 53.0 L47.0 52.8 46.4 52.9 45.65 53.55 Q45.3 53.55 45.2 53.35 L45.15 53.15 45.2 53.1 44.65 53.2 44.7 53.4 44.6 53.6 44.4 53.7 44.1 53.55 44.2 53.2 44.05 53.25 44.05 53.5 43.9 54.05 43.55 53.9 43.55 53.25 43.45 53.25 43.45 53.2 42.95 52.85 Q42.95 53.35 42.45 53.35 42.15 53.35 42.05 53.15 L41.95 53.15 41.95 53.05 41.75 53.55 41.7 53.15 40.8 52.8 40.75 52.85 40.95 53.15 40.9 53.35 40.65 53.45 40.5 53.4 40.3 53.55 40.0 53.25 40.0 53.15 39.35 53.45 39.6 53.55 Q39.65 53.35 39.9 53.35 40.25 53.35 40.25 53.7 L39.9 54.15 39.7 54.05 39.4 54.25 Q38.95 54.25 38.95 53.8 L38.95 53.75 38.5 54.1 38.05 54.5 38.1 54.5 38.15 54.75 37.8 55.15 37.55 55.05 37.3 55.45 37.4 55.45 37.75 55.85 37.45 56.25 37.25 56.25 37.25 56.45 37.5 56.45 37.9 56.85 37.8 57.05 37.75 57.1 Q38.25 57.1 38.3 57.55 L38.0 57.65 37.95 57.65 37.95 57.8 37.95 57.95 Q38.35 58.35 38.35 58.95 38.35 59.5 37.65 59.5 37.2 59.5 37.1 59.05 L37.1 58.65 Q36.95 58.9 36.95 59.2 L37.45 60.05 Q37.55 59.7 38.1 59.7 38.45 59.7 38.45 60.05 L38.45 60.15 38.65 60.1 Q39.0 60.1 39.0 60.45 39.0 60.8 38.6 60.8 L38.3 60.6 38.25 60.45 38.3 60.3 38.2 60.4 38.1 60.5 37.95 60.6 38.15 61.5 Q38.15 62.0 37.0 62.0 36.6 62.0 36.55 61.65 L36.55 61.7 36.45 61.7 34.8 61.85 30.95 62.8 Q30.9 63.1 30.35 63.1 29.9 63.1 29.75 62.8 L29.7 62.45 Q29.7 61.95 30.35 62.15 30.7 62.25 30.85 62.45 L30.9 61.9 Q30.9 61.35 30.4 60.7 30.3 61.0 30.0 61.0 L29.7 60.9 29.7 60.95 29.65 61.25 29.8 61.15 Q30.35 60.95 30.35 61.5 L30.05 61.9 29.6 62.2 29.55 62.2 Q29.2 62.2 29.2 61.8 29.2 61.6 29.35 61.5 L29.2 61.5 28.75 61.25 28.75 61.1 28.6 61.1 28.45 61.1 28.4 61.1 28.2 61.2 27.85 60.9 Q27.85 60.65 28.15 60.6 L28.05 60.35 Q28.05 59.65 28.6 59.75 29.1 59.85 29.15 60.5 L29.2 60.5 29.45 60.55 29.3 60.2 Q29.3 59.8 29.6 59.75 L29.5 59.6 29.2 59.7 28.9 59.55 28.9 59.35 Q28.9 59.0 29.4 58.9 L29.75 58.9 29.75 58.75 28.8 58.95 Q28.3 58.95 28.2 58.65 L28.2 58.35 Q28.2 57.9 28.4 57.8 L28.8 57.65 28.85 57.5 28.25 57.5 27.75 57.6 Q26.8 57.6 26.7 57.25 L26.55 57.4 26.2 57.55 Q25.75 57.55 25.65 57.35 L25.6 57.0 25.6 56.95 25.45 56.95 25.3 56.95 25.35 57.0 25.05 56.9 25.05 56.85 24.8 56.6 24.6 56.45 24.6 56.25 24.6 56.15 24.55 56.15 Q24.25 56.15 24.2 55.9 L24.2 55.7 Q24.2 55.35 24.55 55.35 24.9 55.35 24.9 55.7 L24.9 55.8 24.95 55.8 25.35 55.8 25.4 55.85 25.25 55.4 Q25.25 55.1 25.4 55.0 L25.35 54.95 25.25 54.65 25.0 54.8 24.65 54.65 24.6 54.5 Q24.6 54.05 24.95 54.05 L25.0 54.05 24.85 53.7 24.4 53.85 Q24.05 53.85 24.05 53.5 L24.1 53.3 23.15 53.3 22.05 53.5 Q21.85 53.65 21.85 54.15 L21.85 54.2 21.8 54.1 21.8 54.05 21.35 54.25 Q21.7 54.4 21.65 54.9 21.55 55.55 20.9 55.4 20.2 55.3 20.35 54.6 20.5 54.1 21.0 54.1 20.75 53.95 20.85 53.65 L19.25 54.05 19.1 53.65 19.1 53.45 18.95 52.9 18.3 52.7 18.1 52.85 17.3 53.15 17.1 53.05 16.6 53.25 16.25 53.2 16.25 53.25 16.2 53.45 16.15 53.5 15.85 53.5 15.8 53.25 Q15.8 53.1 15.9 53.1 L15.75 52.95 15.5 52.5 15.55 52.3 15.5 52.25 15.5 52.3 15.2 52.4 15.1 52.4 14.9 52.45 14.55 52.15 14.45 51.85 Q14.45 51.6 14.6 51.5 L14.35 51.05 14.1 50.65 14.0 50.7 13.15 51.2 12.7 50.95 12.7 50.8 12.5 50.9 11.85 50.45 11.9 50.25 11.85 50.1 Q11.85 49.8 12.35 49.8 12.55 49.8 12.7 49.95 L12.75 50.05 12.45 50.25 12.65 50.5 Q12.7 50.0 13.0 49.75 L12.7 49.55 11.75 48.95 11.55 49.0 11.3 48.9 11.25 48.7 11.35 48.65 10.85 48.2 Q10.5 47.65 10.5 46.75 L10.5 45.4 10.25 45.7 Q9.7 45.7 9.55 45.15 L9.5 44.55 Q9.5 43.95 10.1 44.0 9.95 43.4 9.55 43.65 9.25 43.45 9.4 43.1 L9.5 42.85 9.5 42.4 8.0 41.4 Q7.7 41.05 8.0 40.65 L8.95 39.65 9.35 39.45 9.3 38.9 9.0 39.0 Q8.6 39.0 8.6 38.65 8.6 38.3 9.0 38.2 L9.25 38.2 9.25 38.0 9.05 37.6 9.1 37.45 8.7 37.3 Q8.9 36.95 9.1 36.95 L9.2 36.95 9.15 36.8 8.7 36.85 8.3 37.25 Q7.75 37.4 7.5 36.95 7.3 36.5 7.45 36.1 L7.55 36.05 7.65 36.0 7.8 35.95 8.1 36.1 8.15 35.9 8.25 35.75 7.8 35.2 Q7.65 34.85 7.8 34.45 7.9 34.0 8.15 33.65 8.35 33.3 8.65 33.3 8.5 33.1 8.5 32.7 8.5 32.25 8.85 32.1 L8.85 31.85 8.5 31.8 Q7.75 31.7 7.6 30.9 7.5 30.3 8.05 30.1 L8.0 30.05 Q8.0 29.6 8.45 29.75 L8.75 29.9 8.75 29.65 Q7.85 29.15 7.5 28.25 7.25 27.65 7.4 26.95 L7.45 26.9 7.05 26.45 6.95 25.95 Q6.95 25.4 7.35 25.4 7.7 25.4 7.7 26.0 L7.8 26.35 Q8.05 26.1 8.4 26.0 L8.6 26.05 8.6 25.95 8.45 25.95 8.0 25.6 7.95 25.45 Q8.75 25.4 8.8 24.6 L8.75 23.6 9.45 22.1 9.15 21.7 9.0 21.95 8.55 21.65 8.7 21.35 9.0 21.4 8.75 21.0 9.0 20.55 9.05 19.95 9.25 19.45 9.2 19.4 9.05 19.45 8.85 19.35 9.05 19.05 9.2 19.2 9.5 18.95 10.6 17.85 10.45 17.85 10.2 17.75 10.05 18.05 Q9.75 18.05 9.65 17.85 L9.6 17.45 Q9.9 17.3 10.05 17.45 L10.1 17.5 10.1 17.25 Q10.7 17.2 10.7 17.55 L10.65 17.8 12.35 16.35 Q12.35 15.1 11.45 15.4 L11.7 15.1 12.15 14.65 12.2 14.8 21.35 14.1 26.1 13.85 Q37.45 13.85 48.75 14.15 L48.75 14.2 48.85 14.65 Q49.05 15.1 49.65 15.1 L50.15 14.9 50.5 14.75 50.85 14.6 Q51.25 14.55 51.25 14.95 L51.25 15.05 52.4 16.0 52.8 15.9 Q53.3 15.9 53.3 16.45 L53.1 17.0 53.15 17.6 53.2 17.55 Q53.45 17.4 53.65 17.4 L53.7 17.65 53.5 17.95 53.2 18.15 53.2 18.9 Q53.35 20.2 54.0 20.45 L54.0 20.7 54.05 21.05 Q54.1 20.9 54.35 20.9 54.75 20.9 54.75 21.25 L54.5 21.75 54.55 22.3 54.95 22.8 54.4 23.4 54.6 23.45 54.7 23.5 54.8 23.65 54.9 23.8 54.9 23.85 54.9 23.95 54.85 24.0 54.85 24.05 54.8 24.1 54.7 24.2 54.6 24.25 54.5 24.25 54.2 24.2 54.25 24.8 Q54.85 24.95 54.75 25.6 54.7 26.15 54.3 26.2 L54.3 26.6 Q54.85 26.95 54.9 27.5 L54.95 27.35 Q55.05 26.95 55.4 26.95 55.75 26.95 55.9 27.3 L55.8 27.95 55.55 28.55 55.5 29.0 Q54.95 29.7 54.5 28.9 L54.3 29.2 54.3 30.25 54.35 30.45 54.3 30.7 54.3 30.8 54.5 31.15 54.45 31.4 54.65 31.55 54.8 31.85 54.8 32.2 54.75 32.3 55.2 32.95 Q55.45 33.35 55.15 33.75 L54.1 34.5 54.1 34.65 54.35 34.7 54.75 35.0 54.85 35.45 54.65 35.85 54.65 35.95 54.6 36.4 54.15 36.85 54.15 36.9 54.1 37.05 54.0 37.1 54.0 37.6 Q54.3 37.55 54.5 37.8 L54.6 38.25 54.3 38.6 53.95 38.7 53.95 40.8 54.25 40.65 Q54.85 40.65 54.85 41.2 54.85 41.75 54.25 41.7 L54.5 42.45 Q54.6 43.15 53.95 43.1 L53.95 44.5 54.2 44.4 54.45 44.5 54.7 44.7 54.75 44.95 Q54.15 45.15 53.7 46.1 L53.1 47.4 53.05 48.0 Q53.3 48.0 53.3 48.55 53.3 49.35 52.5 49.35 L52.1 49.25 51.35 49.55 51.4 49.7 51.35 49.85 51.5 49.85 Q52.0 49.9 52.0 50.3 L51.8 50.65 51.5 50.8 51.05 50.65 50.75 50.7 50.7 50.5 50.85 50.3 50.55 50.05 50.5 49.85 Q49.4 50.25 48.85 50.85 L48.9 51.1 48.85 51.3 49.05 51.1 49.25 51.2 49.25 51.35 Q49.35 51.15 49.6 51.2 L49.95 51.55 49.6 51.9 Q49.2 51.9 49.2 51.55 L49.25 51.45 49.05 51.5 48.85 51.3 M48.8 12.95 L49.2 13.4 Q48.85 13.6 48.8 13.95 L48.5 13.7 48.45 13.3 48.8 12.95 M40.65 11.8 L41.75 11.55 41.75 11.75 41.9 12.1 41.95 12.15 32.3 12.05 40.65 11.8 M42.9 9.95 L42.9 10.3 42.95 10.55 42.95 10.6 42.35 10.75 42.35 10.65 Q42.45 10.2 42.05 10.15 33.5 8.85 24.8 9.85 L21.35 10.05 21.5 10.0 28.7 9.2 35.95 8.5 42.65 8.2 Q43.0 8.95 43.8 9.1 L43.2 9.45 42.9 9.95 M42.75 4.5 L44.1 5.45 44.55 5.65 42.85 6.35 42.6 6.5 40.75 6.6 38.95 6.75 32.55 7.3 27.45 7.75 25.55 7.95 20.5 8.4 20.6 8.15 Q20.65 7.8 20.35 7.6 L18.8 7.0 Q18.35 5.7 16.1 5.9 L17.35 5.65 Q18.35 5.5 18.7 4.55 19.0 3.9 18.7 3.25 L18.15 2.4 18.1 2.3 18.15 2.2 18.15 2.05 18.2 1.9 18.2 1.8 18.2 1.65 18.15 1.5 Q19.0 1.4 19.6 0.8 L20.05 0.0 40.1 0.0 Q40.05 0.9 40.7 1.55 L42.25 2.65 42.35 2.75 42.35 3.3 Q42.3 4.0 42.75 4.5 M52.6 15.05 L52.3 15.4 Q51.95 15.4 51.9 15.2 L51.9 15.05 Q51.9 14.7 52.25 14.7 52.6 14.7 52.6 15.05 M54.0 17.15 Q54.0 16.8 54.45 16.95 L54.5 17.15 54.45 17.45 54.3 17.5 54.05 17.45 54.0 17.15 M54.05 18.5 L54.35 18.45 54.4 18.7 54.35 18.95 54.2 19.0 53.95 18.95 53.7 19.05 53.45 18.85 53.4 18.65 Q53.4 18.35 53.7 18.35 L53.95 18.55 54.05 18.5 M55.05 21.8 Q55.15 21.3 55.65 21.3 56.35 21.4 56.3 22.05 56.2 22.75 55.55 22.6 54.85 22.5 55.05 21.8 M55.65 23.45 Q56.25 23.45 56.25 24.0 56.25 24.55 55.65 24.5 55.05 24.5 55.15 23.9 55.25 23.5 55.65 23.45 M57.45 28.95 L57.5 29.05 57.5 29.1 57.45 29.2 57.35 29.3 57.2 29.45 57.1 29.45 56.95 29.4 56.8 29.3 56.7 29.15 56.7 29.1 56.75 29.0 56.8 28.85 57.0 28.7 57.1 28.7 57.25 28.75 57.35 28.8 57.4 28.85 57.45 28.9 57.45 28.95 M56.95 29.45 L57.1 29.5 57.2 29.55 57.2 29.65 57.3 29.75 57.3 29.9 57.25 30.05 57.15 30.2 57.1 30.2 56.95 30.2 56.7 30.15 56.65 30.1 56.65 30.0 56.6 29.9 56.65 29.7 56.75 29.55 56.95 29.5 56.95 29.45 M56.4 30.15 L56.35 30.3 56.25 30.4 56.0 30.5 55.8 30.45 55.75 30.4 55.65 30.3 55.6 30.15 55.6 30.05 55.6 30.0 55.65 29.95 55.75 29.8 56.0 29.7 56.15 29.75 56.25 29.8 56.35 29.9 56.4 30.05 56.4 30.15 M55.65 35.25 L55.8 35.15 56.0 35.3 56.15 35.45 56.2 35.65 56.2 35.85 56.15 35.9 55.9 36.0 55.5 35.65 55.5 35.4 55.65 35.25 M57.3 32.45 L57.35 32.5 57.4 32.55 57.45 32.6 57.45 32.65 57.45 32.75 57.45 32.8 57.4 32.9 57.3 33.1 57.25 33.15 57.25 33.2 57.3 33.25 57.3 33.3 57.35 33.35 57.35 33.4 57.4 33.5 57.4 33.55 57.3 33.5 57.2 33.4 57.2 33.3 57.15 33.15 56.9 33.2 56.55 33.0 56.5 32.95 56.5 32.85 56.45 32.75 56.45 32.65 56.5 32.6 56.55 32.55 56.6 32.45 56.65 32.4 56.7 32.35 56.8 32.35 56.9 32.35 56.9 32.3 57.05 32.35 57.2 32.35 57.3 32.45 M56.95 34.0 L56.95 33.95 57.15 34.15 57.05 34.35 56.85 34.45 56.65 34.3 56.65 34.15 56.75 34.05 56.85 34.0 56.95 34.0 M56.85 36.2 L56.9 36.15 56.95 36.05 57.05 36.05 57.1 36.0 57.2 36.0 57.35 36.05 57.45 36.1 57.55 36.15 57.55 36.2 57.65 36.4 57.6 36.65 57.4 36.85 57.2 36.9 57.05 36.85 56.9 36.75 56.8 36.55 56.8 36.3 56.85 36.2 M58.0 37.1 L58.15 37.15 58.25 37.2 58.3 37.25 58.35 37.35 58.35 37.45 58.35 37.5 58.35 37.6 58.15 37.8 57.85 37.8 57.75 37.7 57.65 37.6 57.65 37.45 57.65 37.35 57.65 37.3 57.7 37.25 57.8 37.15 57.9 37.1 58.0 37.1 M56.75 38.05 Q56.7 38.7 56.05 38.6 55.35 38.45 55.5 37.8 55.65 37.3 56.15 37.25 56.85 37.35 56.75 38.05 M56.65 42.15 L56.8 42.15 56.8 42.1 56.95 42.15 57.05 42.25 57.1 42.35 57.15 42.45 57.15 42.5 57.05 42.7 56.65 42.75 56.5 42.65 56.5 42.6 56.45 42.5 56.45 42.4 56.5 42.35 56.5 42.3 56.55 42.2 56.65 42.15 M57.35 42.85 L57.5 42.9 57.65 43.0 57.75 43.1 57.85 43.3 57.9 43.35 57.9 43.4 57.85 43.5 57.85 43.55 57.8 43.6 57.7 43.7 57.6 43.8 57.3 43.75 57.0 43.55 56.9 43.25 57.0 43.0 57.05 42.95 57.2 42.9 57.35 42.85 M55.65 39.5 Q55.6 40.15 55.0 40.0 54.4 39.85 54.55 39.25 54.65 38.8 55.1 38.8 55.7 38.9 55.65 39.5 M54.65 44.1 Q54.1 44.05 54.1 43.55 54.05 43.1 54.5 43.05 55.0 43.1 55.1 43.6 55.15 44.1 54.65 44.1 M8.35 18.35 L8.15 18.45 7.9 18.4 7.85 18.2 7.95 17.95 Q8.1 17.85 8.35 18.1 L8.35 18.35 M8.15 20.9 L7.85 21.25 7.6 20.9 7.65 20.65 8.1 20.7 8.15 20.9 M6.6 19.7 L6.6 19.85 6.7 20.35 Q6.45 20.25 6.5 19.95 L6.6 19.7 M7.55 22.45 L7.3 22.55 Q6.95 22.55 6.95 22.15 L7.5 22.05 7.55 22.45 M7.95 22.05 L7.7 21.85 7.6 21.6 Q8.1 21.3 8.2 21.95 L7.95 22.05 M8.55 27.55 L8.25 28.1 8.7 28.15 8.65 27.4 8.55 27.55 M6.8 28.75 L6.5 28.45 Q6.5 28.25 6.85 28.1 7.15 28.0 7.15 28.35 L6.8 28.75 M6.85 33.4 Q7.4 33.5 7.35 34.05 L6.9 34.5 Q7.3 34.65 7.25 35.2 7.15 35.85 6.5 35.75 5.8 35.6 6.0 34.95 6.1 34.45 6.6 34.4 6.25 34.25 6.35 33.8 6.45 33.4 6.85 33.4 M8.75 42.75 L9.05 43.0 9.15 43.45 9.15 43.9 9.15 43.95 Q8.9 44.2 8.8 44.6 L8.75 44.6 8.5 44.7 8.25 44.8 8.0 44.7 7.9 44.6 7.8 44.45 7.6 44.25 7.6 44.0 7.6 43.65 7.65 43.25 7.95 42.9 8.1 42.85 8.25 42.8 8.75 42.8 8.75 42.75 M3.7 48.85 L3.65 48.95 3.6 48.8 3.6 48.75 3.6 48.6 3.7 48.85 M7.85 46.05 Q7.85 45.55 8.2 45.7 L8.35 45.55 Q8.6 45.5 8.8 45.8 L8.45 46.1 8.4 46.1 8.4 46.3 8.2 46.4 7.85 46.25 7.85 46.05 M9.55 46.85 Q10.2 46.8 10.2 47.3 10.2 47.75 9.55 47.75 9.1 47.75 8.95 47.5 L8.9 47.3 Q8.9 46.85 9.55 46.85 M8.65 47.4 L8.6 47.65 8.3 47.75 8.0 47.65 7.95 47.4 8.05 47.15 8.6 47.2 8.65 47.4 M9.45 48.15 Q9.45 47.75 9.75 47.9 L10.1 48.4 9.85 48.6 9.5 48.35 9.45 48.15 M37.7 52.65 L37.6 52.7 37.7 52.65 M38.3 57.65 L38.35 57.5 38.5 57.45 38.7 57.75 38.5 57.95 38.3 57.65 M38.5 58.55 L38.35 58.5 38.6 58.45 38.5 58.55 M40.2 58.25 L40.0 58.35 Q39.65 58.35 39.65 58.0 39.65 57.65 39.95 57.65 40.25 57.65 40.25 58.0 L40.2 58.25 M39.8 58.75 L39.75 58.95 39.5 59.0 39.3 58.9 39.25 58.8 Q39.3 58.6 39.75 58.55 L39.8 58.75 M37.4 57.25 L37.45 57.4 37.55 57.35 37.65 57.35 37.7 57.2 37.5 57.25 37.4 57.25 M37.0 61.25 Q37.4 61.15 37.4 60.6 L37.4 60.15 36.75 61.35 37.0 61.25 M40.1 59.7 L40.05 59.8 39.75 59.85 39.65 59.75 Q39.65 59.5 40.05 59.6 L40.1 59.7 M39.75 60.75 L39.4 60.8 39.3 60.6 39.7 60.3 39.8 60.5 39.75 60.75 M20.4 50.5 L20.3 50.55 20.35 50.6 21.55 50.6 20.4 50.5 M20.3 54.95 L20.3 55.0 20.25 55.05 20.2 55.15 20.15 55.2 19.9 55.3 19.75 55.25 19.6 55.2 19.4 55.05 19.3 54.9 19.3 54.7 19.35 54.65 19.35 54.6 19.45 54.5 19.55 54.45 19.7 54.45 19.7 54.4 19.85 54.45 20.0 54.5 20.15 54.65 20.3 54.85 20.3 54.95 M23.35 53.5 L23.4 53.65 23.25 54.0 22.95 53.75 23.2 53.45 23.35 53.5 M23.7 54.5 L23.65 54.25 Q23.65 53.9 23.95 53.9 L24.25 54.2 Q24.25 54.75 23.95 54.75 L23.7 54.5 M24.25 56.9 L23.95 56.6 24.0 56.3 Q24.5 56.05 24.5 56.55 L24.25 56.9 M23.35 56.95 L23.0 57.0 22.95 56.8 23.3 56.7 23.35 56.95 M23.3 56.3 L23.05 56.45 Q22.7 56.45 22.7 56.1 22.7 55.75 23.05 55.75 23.4 55.75 23.4 56.1 L23.3 56.3 M24.95 58.2 Q24.65 58.2 24.65 57.8 24.65 57.5 25.0 57.5 L25.35 57.8 25.2 58.05 24.95 58.2 M21.1 57.85 L21.2 57.95 21.25 58.1 21.25 58.2 21.2 58.35 21.1 58.4 20.85 58.55 20.7 58.5 20.6 58.45 20.5 58.3 20.45 58.2 20.45 58.1 20.45 58.0 20.5 57.95 20.6 57.85 20.85 57.75 21.0 57.8 21.1 57.85 M26.75 56.85 L26.55 56.85 26.7 57.05 26.75 56.85 M26.55 58.05 L26.3 58.3 26.05 58.25 26.0 58.05 26.05 57.85 26.5 57.85 26.55 58.05 M27.2 60.7 L26.8 60.2 Q26.8 59.85 27.2 59.8 27.55 59.75 27.55 60.1 L27.2 60.7 M28.45 61.75 L28.1 62.05 27.85 61.8 28.45 61.75 M28.65 62.05 L28.7 62.15 Q28.7 62.6 28.35 62.6 L28.1 62.45 28.05 62.3 Q28.05 62.1 28.65 62.05 M10.65 49.95 L10.35 50.3 10.05 50.2 Q10.05 49.7 10.35 49.65 L10.65 49.95 M11.35 51.35 L11.65 51.65 11.4 51.95 11.05 51.8 Q11.05 51.35 11.35 51.35 M12.55 51.25 L12.5 51.3 12.4 51.2 12.55 51.25 M12.55 51.7 Q12.8 51.65 12.8 51.9 12.8 52.3 12.4 52.2 L12.3 51.9 12.55 51.7 M14.7 53.2 L14.8 53.0 14.9 52.95 15.2 53.25 14.95 53.5 Q14.7 53.45 14.7 53.2 M8.95 50.15 L8.75 50.45 8.45 50.5 8.25 50.45 8.1 49.9 8.1 49.75 8.3 49.55 8.45 49.5 Q8.75 49.45 8.9 49.7 L8.95 50.15 M52.5 50.55 L52.05 50.25 51.95 50.05 Q51.95 49.75 52.5 49.55 53.0 49.3 53.0 50.05 53.0 50.55 52.5 50.55 M50.8 51.3 Q50.8 51.7 50.5 51.7 50.15 51.7 50.15 51.4 L50.25 51.15 50.75 51.05 50.8 51.3 M50.65 55.95 L50.55 56.05 50.35 56.15 Q50.15 56.15 50.05 56.0 L50.05 55.9 50.05 55.8 50.1 55.7 50.2 55.6 50.35 55.55 50.5 55.6 50.55 55.65 50.6 55.75 50.65 55.9 50.65 55.95 M46.25 55.05 Q46.25 55.5 45.85 55.5 45.6 55.5 45.5 55.3 L45.45 55.1 Q45.45 54.75 45.85 54.75 46.25 54.75 46.25 55.05 M46.0 54.25 L46.7 54.2 46.25 54.3 46.0 54.25 M47.4 55.65 L47.0 55.8 46.9 55.5 47.15 55.2 47.4 55.65 M40.9 53.5 L41.1 53.25 41.3 53.6 41.1 53.75 40.9 53.5 M41.6 53.65 L41.4 53.6 41.4 53.45 41.65 53.5 41.6 53.65 M41.4 55.6 L41.1 55.35 41.05 55.15 Q41.05 54.9 41.4 54.85 41.75 54.75 41.75 55.15 L41.4 55.6 M42.55 54.45 L42.55 54.3 Q42.55 54.05 42.75 54.1 L43.15 54.5 42.8 54.6 Q42.6 54.6 42.55 54.45 M42.55 55.1 L42.5 55.4 42.35 55.45 42.15 55.4 42.15 55.2 42.4 54.85 42.55 55.1 M44.2 54.2 Q44.65 53.95 44.65 54.55 L44.45 55.05 44.05 55.4 43.8 55.2 43.45 55.3 Q43.15 55.3 43.15 55.15 L43.15 55.0 Q43.15 54.7 43.55 54.7 L43.8 54.8 Q43.85 54.4 44.2 54.2 M46.45 56.3 L46.15 56.1 46.15 55.95 Q46.15 55.55 46.5 55.65 L46.85 55.95 Q46.85 56.3 46.45 56.3 M50.15 64.0 L50.1 64.0 50.1 63.95 50.15 64.0" fill="#e9c572" fill-rule="evenodd" stroke="none"/>
    <path d="M36.15 62.2 Q35.2 63.5 33.25 63.5 31.8 63.5 30.95 61.9 L30.4 60.2 Q30.4 59.15 30.85 58.35 31.65 56.8 33.7 56.8 L35.25 57.1 Q36.05 57.4 36.5 58.2 36.9 58.9 36.9 59.75 36.9 60.85 36.4 61.8 L36.15 62.2 Q35.2 62.95 33.65 62.95 32.2 62.95 31.35 61.55 L30.8 60.0 Q30.8 59.05 31.25 58.35 32.05 56.95 34.1 56.95 L35.25 57.1 34.1 56.95 Q32.05 56.95 31.25 58.35 30.8 59.05 30.8 60.0 L31.35 61.55 Q32.2 62.95 33.65 62.95 35.2 62.95 36.15 62.2 M31.15 59.7 L31.15 60.2 31.2 60.25 31.2 59.7 31.15 59.7" fill="#cccccc" fill-rule="evenodd" stroke="none"/>
    <path d="M30.9 51.1 Q30.55 51.55 29.85 51.55 L27.9 51.2 Q27.25 50.9 27.25 50.55 27.25 48.65 29.2 48.35 31.15 48.1 31.15 50.35 L30.9 51.1" fill="#a49db7" fill-rule="evenodd" stroke="none"/>
    <path d="M31.65 50.85 L31.85 49.8 Q32.3 48.85 33.75 48.85 36.75 48.85 36.75 51.75 36.75 53.8 35.05 53.8 33.7 53.8 32.55 52.4 31.65 51.3 31.65 50.85 M31.65 54.35 L31.3 55.7 Q30.7 56.75 29.5 56.75 28.05 56.75 27.35 55.85 26.9 55.3 26.9 54.8 26.9 52.8 29.65 52.8 31.15 52.8 31.55 53.55 L31.65 54.35" fill="#bdb8cb" fill-rule="evenodd" stroke="none"/>
    <path d="M30.9 51.1 Q30.55 51.55 29.85 51.55 L27.9 51.2 Q27.25 50.9 27.25 50.55 27.25 48.65 29.2 48.35 31.15 48.1 31.15 50.35 L30.9 51.1 M31.65 50.85 L31.85 49.8 Q32.3 48.85 33.75 48.85 36.75 48.85 36.75 51.75 36.75 53.8 35.05 53.8 33.7 53.8 32.55 52.4 31.65 51.3 31.65 50.85 M31.65 54.35 L31.3 55.7 Q30.7 56.75 29.5 56.75 28.05 56.75 27.35 55.85 26.9 55.3 26.9 54.8 26.9 52.8 29.65 52.8 31.15 52.8 31.55 53.55 L31.65 54.35 M35.25 57.1 Q36.35 57.35 36.9 58.2 37.3 58.85 37.3 59.6 37.3 60.6 36.8 61.45 L36.15 62.2 M35.25 57.1 L34.1 56.95 Q32.05 56.95 31.25 58.35 30.8 59.05 30.8 60.0 L31.35 61.55 Q32.2 62.95 33.65 62.95 35.2 62.95 36.15 62.2" fill="none" stroke="#494949" stroke-linecap="round" stroke-linejoin="round" stroke-width="1.5"/>
    <path d="M30.8 60.0 Q30.8 59.05 31.25 58.35 32.05 56.95 34.1 56.95 36.1 56.95 36.9 58.2 37.3 58.85 37.3 59.6 37.3 60.6 36.8 61.45 35.85 62.95 33.65 62.95 32.2 62.95 31.35 61.55 L30.8 60.0 M31.55 60.0 L31.6 60.05 31.6 59.55 31.55 59.55 31.55 60.0" fill="#cccccc" fill-rule="evenodd" stroke="none"/>
    <path d="M32.55 52.4 Q31.65 51.3 31.65 50.85 L31.85 49.8 Q32.3 48.85 33.75 48.85 36.75 48.85 36.75 51.75 36.75 53.8 35.05 53.8 33.7 53.8 32.55 52.4 M31.65 54.35 L31.3 55.7 Q30.7 56.75 29.5 56.75 28.05 56.75 27.35 55.85 26.9 55.3 26.9 54.8 26.9 52.8 29.65 52.8 31.15 52.8 31.55 53.55 L31.65 54.35" fill="#bdb8cb" fill-rule="evenodd" stroke="none"/>
    <path d="M30.9 51.1 Q30.55 51.55 29.85 51.55 L27.9 51.2 Q27.25 50.9 27.25 50.55 27.25 48.65 29.2 48.35 31.15 48.1 31.15 50.35 L30.9 51.1" fill="#a49db7" fill-rule="evenodd" stroke="none"/>
    <path d="M26.8 -9.25 Q31.05 -12.8 31.05 -11.55 L31.0 -11.25 Q32.65 -10.9 39.7 -5.8 L48.9 1.25 Q48.75 1.85 48.35 1.85 L44.0 -1.25 48.6 2.25 48.5 2.45 46.0 1.05 48.9 3.3 48.9 3.6 Q48.9 3.8 48.5 3.8 34.75 -5.05 30.6 -7.5 31.3 -8.2 34.95 -6.3 L35.3 -6.1 Q33.05 -7.7 31.35 -8.85 31.35 -7.4 21.35 -0.95 L15.55 3.25 11.2 6.5 Q10.35 6.5 10.35 5.8 10.35 5.5 11.7 4.4 L11.5 4.15 11.45 3.75 Q11.45 2.75 16.15 -0.9 20.45 -4.15 21.0 -4.35 L26.8 -9.25 M26.4 -6.45 Q29.9 -9.0 30.95 -9.1 L30.45 -9.45 Q31.7 -9.75 34.3 -8.25 32.6 -9.45 30.75 -10.8 29.35 -8.8 22.2 -3.45 L19.8 -1.6 20.75 -2.25 26.4 -6.45 M31.3 -4.15 Q32.5 -4.0 35.2 -2.45 L40.5 0.75 46.0 4.1 Q49.65 6.45 49.65 6.85 49.65 7.45 49.0 7.35 L48.85 7.35 49.5 8.1 49.35 8.4 48.95 8.55 Q47.7 8.55 39.15 3.05 L31.75 -1.9 Q30.7 -0.9 25.85 2.65 29.45 0.75 31.4 -0.05 L31.1 -0.45 Q31.1 -1.45 40.45 4.45 49.8 10.35 49.8 11.2 49.7 11.85 49.2 11.85 L40.35 5.55 35.05 2.4 Q32.75 1.0 31.8 0.25 L29.75 2.0 31.15 1.7 31.4 1.35 31.75 1.35 Q32.95 1.35 41.2 7.35 49.2 13.15 49.2 13.35 49.2 13.85 48.65 13.85 36.7 6.5 31.35 2.05 31.35 2.55 26.95 5.5 L21.6 9.0 12.3 15.5 Q11.55 15.5 11.55 14.75 11.55 14.15 15.9 11.1 19.2 8.8 20.85 7.8 L25.8 4.45 21.9 6.65 Q16.85 9.3 16.1 9.8 L11.6 12.95 Q10.7 12.95 10.7 12.25 10.7 11.6 12.8 10.1 L12.75 9.9 11.25 10.85 Q10.7 10.85 10.5 10.55 L10.4 10.2 Q10.4 9.3 15.4 5.6 L20.55 2.0 Q21.9 1.15 27.0 -2.7 31.5 -5.85 31.5 -4.4 L31.3 -4.15 M31.55 -2.5 L32.0 -2.35 Q34.0 -1.55 39.75 2.0 L41.75 3.15 41.4 2.95 Q34.85 -1.2 31.15 -4.0 L21.55 3.35 17.95 6.1 Q20.05 4.65 22.65 3.0 L27.55 -0.4 31.05 -2.35 30.9 -2.45 31.55 -2.5 M30.75 -5.55 Q30.75 -6.6 35.1 -4.35 L41.1 -0.9 Q49.35 4.5 49.35 4.85 49.35 5.45 48.7 5.45 L45.0 3.2 40.2 0.0 Q37.3 -1.45 35.1 -2.65 30.75 -4.95 30.75 -5.55 M31.4 -6.35 L21.8 0.75 12.05 7.85 11.35 7.55 11.3 7.25 Q11.3 6.25 16.1 2.95 L21.2 -0.35 Q31.4 -8.15 31.4 -6.35 M42.4 14.15 Q35.2 9.1 31.35 5.9 32.1 5.35 33.7 6.3 L36.2 8.0 41.25 11.4 46.85 15.25 Q50.7 17.95 50.7 18.3 50.7 19.05 50.0 19.05 49.4 19.05 42.4 14.15 M47.5 22.35 Q51.9 25.2 51.9 25.6 51.9 26.25 51.3 26.25 50.95 26.25 43.4 21.25 36.25 16.5 32.55 13.75 31.25 15.2 22.6 20.65 12.55 27.0 11.4 27.0 10.65 27.0 10.65 26.15 10.65 25.35 21.8 19.4 22.55 19.05 27.8 15.5 30.65 13.7 31.9 13.25 L31.8 13.2 Q32.65 12.55 34.05 13.45 L36.75 15.35 41.9 18.8 47.5 22.35 M31.25 7.5 Q36.9 10.1 50.0 20.85 50.0 21.35 49.4 21.35 49.0 21.35 45.25 18.65 L39.75 14.55 35.25 11.35 Q31.2 8.35 31.2 7.7 L31.25 7.5 Q28.5 9.7 12.2 19.95 11.65 19.95 11.45 19.6 L11.4 19.2 Q11.4 18.25 21.6 11.85 31.8 5.45 31.8 6.95 L31.25 7.5 M42.45 24.05 L40.35 22.3 32.65 15.8 Q32.3 16.45 28.15 19.35 L22.55 23.1 Q11.6 30.15 11.25 30.15 10.65 30.15 10.45 29.8 L10.4 29.4 Q10.4 28.3 21.35 22.2 L28.25 17.6 Q31.2 15.6 32.2 15.45 L32.1 15.35 Q32.1 13.2 45.0 23.95 L49.15 27.15 51.95 29.45 Q51.95 30.2 51.3 30.2 L49.8 29.3 49.2 29.0 52.4 31.45 Q52.4 32.15 51.65 32.15 51.1 32.15 48.2 29.65 L41.7 24.9 32.55 17.85 32.55 18.0 32.0 18.4 Q30.35 20.5 23.7 24.8 L20.65 26.7 17.25 28.65 12.15 32.3 12.0 32.3 10.95 33.0 Q10.2 33.0 10.2 32.3 10.2 32.05 12.15 30.55 L14.95 28.5 15.05 28.4 20.75 24.45 27.2 20.35 28.25 19.75 Q30.75 17.8 32.4 16.95 L32.5 17.0 32.55 17.25 Q33.4 17.3 36.7 19.7 L41.55 23.4 42.45 24.05 M49.8 15.9 Q49.8 16.5 49.2 16.5 L42.0 11.55 31.35 4.05 31.35 4.2 Q31.35 5.2 22.95 10.95 L12.65 17.45 Q12.2 17.45 12.0 17.05 L11.9 16.65 Q11.9 15.75 16.7 12.8 19.15 11.3 21.65 9.95 L27.5 5.8 Q30.3 3.8 31.05 3.85 L30.9 3.75 Q31.05 2.75 32.9 3.85 L35.6 5.45 40.8 9.0 45.65 12.4 Q49.8 15.35 49.8 15.9 M50.7 24.15 Q50.45 24.15 46.35 21.35 L40.2 16.95 35.3 13.45 Q32.6 11.45 31.45 9.9 L22.95 16.3 21.05 17.7 22.2 17.1 Q23.35 16.3 25.05 15.4 L27.9 13.8 Q28.7 13.35 30.5 11.8 32.05 10.7 32.7 11.6 31.4 12.9 28.4 14.8 L22.8 18.3 20.1 19.8 17.25 21.3 Q13.25 24.3 12.35 24.3 L11.75 23.95 11.7 23.55 Q11.7 23.25 12.05 22.9 L11.75 22.55 11.7 22.15 Q11.7 21.55 15.8 18.85 L21.9 15.15 27.95 10.95 Q32.1 8.1 32.1 9.15 L31.65 9.75 Q33.3 10.5 41.65 16.4 51.3 23.25 51.3 23.55 L51.1 24.0 50.7 24.15 M51.7 36.65 L51.1 36.9 Q50.55 36.9 41.55 29.55 32.45 22.55 32.45 22.0 32.45 20.8 42.2 28.35 L51.9 36.2 51.7 36.65 M32.45 17.7 L32.4 17.8 32.5 17.75 32.45 17.7 M32.65 19.4 L32.55 19.55 32.9 20.2 31.55 21.25 33.0 21.3 32.15 22.0 32.15 22.1 Q16.85 36.45 14.6 36.45 L14.15 36.4 13.65 36.75 13.4 36.65 13.35 36.35 13.8 35.8 13.8 35.65 Q13.8 35.25 17.45 32.45 L19.15 31.0 Q13.6 35.25 12.95 35.25 11.55 35.25 11.55 34.15 11.55 33.5 16.65 30.05 L22.5 26.25 29.2 21.0 Q31.8 19.1 32.65 19.4" fill="#ae8420" fill-rule="evenodd" stroke="none"/>
    <path d="M26.8 -9.25 Q31.05 -12.8 31.05 -11.55 L31.0 -11.25 Q32.65 -10.9 39.7 -5.8 L48.9 1.25 Q48.75 1.85 48.35 1.85 L44.0 -1.25 48.6 2.25 48.5 2.45 46.0 1.05 48.9 3.3 48.9 3.6 Q48.9 3.8 48.5 3.8 34.75 -5.05 30.6 -7.5 31.3 -8.2 34.95 -6.3 L35.3 -6.1 Q33.05 -7.7 31.35 -8.85 31.35 -7.4 21.35 -0.95 L15.55 3.25 11.2 6.5 Q10.35 6.5 10.35 5.8 10.35 5.5 11.7 4.4 L11.5 4.15 11.45 3.75 Q11.45 2.75 16.15 -0.9 20.45 -4.15 21.0 -4.35 L26.8 -9.25 M31.3 -4.15 Q32.5 -4.0 35.2 -2.45 L40.5 0.75 46.0 4.1 Q49.65 6.45 49.65 6.85 49.65 7.45 49.0 7.35 L48.85 7.35 49.5 8.1 49.35 8.4 48.95 8.55 Q47.7 8.55 39.15 3.05 L31.75 -1.9 Q30.7 -0.9 25.85 2.65 29.45 0.75 31.4 -0.05 L31.1 -0.45 Q31.1 -1.45 40.45 4.45 49.8 10.35 49.8 11.2 49.7 11.85 49.2 11.85 L40.35 5.55 35.05 2.4 Q32.75 1.0 31.8 0.25 L29.75 2.0 31.15 1.7 31.4 1.35 31.75 1.35 Q32.95 1.35 41.2 7.35 49.2 13.15 49.2 13.35 49.2 13.85 48.65 13.85 36.7 6.5 31.35 2.05 31.35 2.55 26.95 5.5 L21.6 9.0 12.3 15.5 Q11.55 15.5 11.55 14.75 11.55 14.15 15.9 11.1 19.2 8.8 20.85 7.8 L25.8 4.45 21.9 6.65 Q16.85 9.3 16.1 9.8 L11.6 12.95 Q10.7 12.95 10.7 12.25 10.7 11.6 12.8 10.1 L12.75 9.9 11.25 10.85 Q10.7 10.85 10.5 10.55 L10.4 10.2 Q10.4 9.3 15.4 5.6 L20.55 2.0 Q21.9 1.15 27.0 -2.7 31.5 -5.85 31.5 -4.4 L31.3 -4.15 M42.4 14.15 Q35.2 9.1 31.35 5.9 32.1 5.35 33.7 6.3 L36.2 8.0 41.25 11.4 46.85 15.25 Q50.7 17.95 50.7 18.3 50.7 19.05 50.0 19.05 49.4 19.05 42.4 14.15 M47.5 22.35 Q51.9 25.2 51.9 25.6 51.9 26.25 51.3 26.25 50.95 26.25 43.4 21.25 36.25 16.5 32.55 13.75 31.25 15.2 22.6 20.65 12.55 27.0 11.4 27.0 10.65 27.0 10.65 26.15 10.65 25.35 21.8 19.4 22.55 19.05 27.8 15.5 30.65 13.7 31.9 13.25 L31.8 13.2 Q32.65 12.55 34.05 13.45 L36.75 15.35 41.9 18.8 47.5 22.35 M31.25 7.5 Q28.5 9.7 12.2 19.95 11.65 19.95 11.45 19.6 L11.4 19.2 Q11.4 18.25 21.6 11.85 31.8 5.45 31.8 6.95 L31.25 7.5 M42.45 24.05 L40.35 22.3 32.65 15.8 Q32.3 16.45 28.15 19.35 L22.55 23.1 Q11.6 30.15 11.25 30.15 10.65 30.15 10.45 29.8 L10.4 29.4 Q10.4 28.3 21.35 22.2 L28.25 17.6 Q31.2 15.6 32.2 15.45 L32.1 15.35 Q32.1 13.2 45.0 23.95 L49.15 27.15 51.95 29.45 Q51.95 30.2 51.3 30.2 L49.8 29.3 49.2 29.0 52.4 31.45 Q52.4 32.15 51.65 32.15 51.1 32.15 48.2 29.65 L41.7 24.9 32.55 17.85 32.55 18.0 32.0 18.4 Q30.35 20.5 23.7 24.8 L20.65 26.7 17.25 28.65 12.15 32.3 12.0 32.3 10.95 33.0 Q10.2 33.0 10.2 32.3 10.2 32.05 12.15 30.55 L14.95 28.5 15.05 28.4 20.75 24.45 27.2 20.35 28.25 19.75 Q30.75 17.8 32.4 16.95 L32.5 17.0 32.55 17.25 Q33.4 17.3 36.7 19.7 L41.55 23.4 42.45 24.05 M49.8 15.9 Q49.8 16.5 49.2 16.5 L42.0 11.55 31.35 4.05 31.35 4.2 Q31.35 5.2 22.95 10.95 L12.65 17.45 Q12.2 17.45 12.0 17.05 L11.9 16.65 Q11.9 15.75 16.7 12.8 19.15 11.3 21.65 9.95 L27.5 5.8 Q30.3 3.8 31.05 3.85 L30.9 3.75 Q31.05 2.75 32.9 3.85 L35.6 5.45 40.8 9.0 45.65 12.4 Q49.8 15.35 49.8 15.9 M50.7 24.15 Q50.45 24.15 46.35 21.35 L40.2 16.95 35.3 13.45 Q32.6 11.45 31.45 9.9 L22.95 16.3 21.05 17.7 22.2 17.1 Q23.35 16.3 25.05 15.4 L27.9 13.8 Q28.7 13.35 30.5 11.8 32.05 10.7 32.7 11.6 31.4 12.9 28.4 14.8 L22.8 18.3 20.1 19.8 17.25 21.3 Q13.25 24.3 12.35 24.3 L11.75 23.95 11.7 23.55 Q11.7 23.25 12.05 22.9 L11.75 22.55 11.7 22.15 Q11.7 21.55 15.8 18.85 L21.9 15.15 27.95 10.95 Q32.1 8.1 32.1 9.15 L31.65 9.75 Q33.3 10.5 41.65 16.4 51.3 23.25 51.3 23.55 L51.1 24.0 50.7 24.15 M51.7 36.65 L51.1 36.9 Q50.55 36.9 41.55 29.55 32.45 22.55 32.45 22.0 32.45 20.8 42.2 28.35 L51.9 36.2 51.7 36.65 M32.65 19.4 Q31.8 19.1 29.2 21.0 L22.5 26.25 16.65 30.05 Q11.55 33.5 11.55 34.15 11.55 35.25 12.95 35.25 13.6 35.25 19.15 31.0 L17.45 32.45 Q13.8 35.25 13.8 35.65 L13.8 35.8 13.35 36.35 13.4 36.65 13.65 36.75 14.15 36.4 14.6 36.45 Q16.85 36.45 32.15 22.1 L32.15 22.0 33.0 21.3 31.55 21.25 32.9 20.2 32.55 19.55 32.65 19.4" fill="none" stroke="#432e16" stroke-linecap="round" stroke-linejoin="round" stroke-width="2.0"/>
    <path d="M5.9 38.75 L5.65 7.8 32.95 -1.8 44.9 36.15 22.9 36.15 17.05 48.7 5.9 38.75" fill="url(#gradient0)" fill-rule="evenodd" stroke="none"/>
    <path d="M42.45 43.15 L38.05 48.7 32.6 42.8 21.0 42.65 19.05 31.5 42.65 29.45 42.45 43.15" fill="#000000" fill-opacity="0.4" fill-rule="evenodd" stroke="none"/>
    <path d="M48.2 33.3 L31.65 15.15 14.95 31.55 15.75 34.9 17.4 48.45 25.8 48.55 25.6 35.65 38.5 35.65 37.85 48.7 46.05 48.9 48.2 33.3 Z" fill="none" stroke="#432e16" stroke-linecap="round" stroke-linejoin="round" stroke-width="2.0"/>
    <path d="M48.2 33.3 L46.05 48.9 37.85 48.7 38.5 35.65 25.6 35.65 25.8 48.55 17.4 48.45 15.75 34.9 14.95 31.55 31.65 15.15 48.2 33.3" fill="#755026" fill-rule="evenodd" stroke="none"/>
    <path d="M48.15 33.85 L47.5 37.6 32.15 25.05 16.25 37.75 15.55 34.3 31.8 18.65 48.15 33.85" fill="#593d1e" fill-rule="evenodd" stroke="none"/>
    <path d="M23.85 33.9 L39.3 33.45 38.95 37.1 24.5 37.25 23.85 33.9 Z" fill="none" stroke="#432e16" stroke-linecap="round" stroke-linejoin="round" stroke-width="1.5"/>
    <path d="M24.5 37.25 L23.85 33.9 39.3 33.45 38.95 37.1 24.5 37.25" fill="#a87337" fill-rule="evenodd" stroke="none"/>
    <path d="M30.35 -11.75 L30.35 -11.8 30.4 -11.75 30.35 -11.75" fill="#a87337" fill-rule="evenodd" stroke="none"/>
    <path d="M30.35 -11.75 L12.4 3.05 12.7 8.55 13.9 8.7 12.7 11.5 13.15 24.1 15.4 23.2 13.3 25.3 13.65 35.35 15.4 36.0 32.0 22.3 48.7 36.15 50.45 35.75 49.9 27.75 48.45 24.7 49.7 24.8 48.7 11.25 46.05 8.15 48.5 8.35 48.05 2.4 30.4 -11.75" fill="none" stroke="#432e16" stroke-linecap="round" stroke-linejoin="round" stroke-width="1.5"/>
    <path d="M13.65 35.35 L32.25 20.75 50.45 35.75 48.7 36.15 32.0 22.3 15.4 36.0 13.65 35.35" fill="#875b2c" fill-rule="evenodd" stroke="none"/>
    <path d="M13.65 35.35 L13.3 25.3 15.4 23.2 13.15 24.1 12.7 11.5 13.9 8.7 12.7 8.55 12.4 3.05 30.35 -11.75 30.4 -11.8 30.4 -11.75 32.25 20.75 13.65 35.35" fill="#6f4b24" fill-rule="evenodd" stroke="none"/>
    <path d="M32.25 20.75 L30.4 -11.75 48.05 2.4 48.5 8.35 46.05 8.15 48.7 11.25 49.7 24.8 48.45 24.7 49.9 27.75 50.45 35.75 32.25 20.75" fill="#926330" fill-rule="evenodd" stroke="none"/>
    <path d="M26.8 -9.25 Q31.05 -12.8 31.05 -11.55 31.05 -10.05 22.2 -3.45 L19.8 -1.6 20.75 -2.25 26.4 -6.45 Q31.35 -10.0 31.35 -8.85 31.35 -7.4 21.35 -0.95 L15.55 3.25 11.2 6.5 Q10.35 6.5 10.35 5.8 10.35 5.5 11.7 4.4 L11.5 4.15 11.45 3.75 Q11.45 2.75 16.15 -0.9 20.45 -4.15 21.0 -4.35 L26.8 -9.25 M31.4 -6.35 L21.8 0.75 12.05 7.85 11.35 7.55 11.3 7.25 Q11.3 6.25 16.1 2.95 L21.2 -0.35 Q31.4 -8.15 31.4 -6.35 M32.0 -2.25 Q32.0 -1.85 25.85 2.65 29.75 0.6 31.7 -0.2 L31.8 0.15 Q31.8 0.6 29.75 2.0 L31.35 2.05 Q31.35 2.55 26.95 5.5 L21.6 9.0 12.3 15.5 Q11.55 15.5 11.55 14.75 11.55 14.15 15.9 11.1 19.2 8.8 20.85 7.8 L25.8 4.45 21.9 6.65 Q16.85 9.3 16.1 9.8 L11.6 12.95 Q10.7 12.95 10.7 12.25 10.7 11.6 12.8 10.1 L12.75 9.9 11.25 10.85 Q10.7 10.85 10.5 10.55 L10.4 10.2 Q10.4 9.3 15.4 5.6 L20.55 2.0 Q21.9 1.15 27.0 -2.7 31.5 -5.85 31.5 -4.4 31.5 -4.15 21.55 3.35 L17.95 6.1 Q20.05 4.65 22.65 3.0 L27.55 -0.4 Q32.0 -3.3 32.0 -2.25 M32.7 11.6 Q31.4 12.9 28.4 14.8 L22.8 18.3 20.1 19.8 17.25 21.3 Q13.25 24.3 12.35 24.3 L11.75 23.95 11.7 23.55 Q11.7 23.25 12.05 22.9 L11.75 22.55 11.7 22.15 Q11.7 21.55 15.8 18.85 L21.9 15.15 27.95 10.95 Q32.1 8.1 32.1 9.15 32.1 9.7 22.95 16.3 L21.05 17.7 22.2 17.1 Q23.35 16.3 25.05 15.4 L27.9 13.8 Q28.7 13.35 30.5 11.8 32.05 10.7 32.7 11.6 M27.5 5.8 Q31.35 3.05 31.35 4.2 31.35 5.2 22.95 10.95 L12.65 17.45 Q12.2 17.45 12.0 17.05 L11.9 16.65 Q11.9 15.75 16.7 12.8 19.15 11.3 21.65 9.95 L27.5 5.8 M28.25 19.75 Q30.75 17.8 32.4 16.95 L32.5 17.0 32.55 17.25 32.4 17.8 32.55 17.75 32.55 18.0 32.0 18.4 Q30.35 20.5 23.7 24.8 L20.65 26.7 17.25 28.65 12.15 32.3 12.0 32.3 10.95 33.0 Q10.2 33.0 10.2 32.3 10.2 32.05 12.15 30.55 L14.95 28.5 15.05 28.4 20.75 24.45 27.2 20.35 28.25 19.75 M22.55 23.1 Q11.6 30.15 11.25 30.15 10.65 30.15 10.45 29.8 L10.4 29.4 Q10.4 28.3 21.35 22.2 L28.25 17.6 Q32.7 14.6 32.7 15.7 32.7 16.15 28.15 19.35 L22.55 23.1 M27.8 15.5 Q32.75 12.35 32.75 13.35 32.75 14.25 22.6 20.65 12.55 27.0 11.4 27.0 10.65 27.0 10.65 26.15 10.65 25.35 21.8 19.4 22.55 19.05 27.8 15.5 M31.55 21.25 L33.0 21.3 32.15 22.0 32.15 22.1 Q16.85 36.45 14.6 36.45 L14.15 36.4 13.65 36.75 13.4 36.65 13.35 36.35 13.8 35.8 13.8 35.65 Q13.8 35.25 17.45 32.45 L19.15 31.0 Q13.6 35.25 12.95 35.25 11.55 35.25 11.55 34.15 11.55 33.5 16.65 30.05 L22.5 26.25 29.2 21.0 Q33.0 18.25 33.0 20.1 L31.55 21.25 M31.8 6.95 Q31.8 7.65 12.2 19.95 11.65 19.95 11.45 19.6 L11.4 19.2 Q11.4 18.25 21.6 11.85 31.8 5.45 31.8 6.95" fill="#936828" fill-rule="evenodd" stroke="none"/>
    <path d="M30.45 -11.0 Q30.45 -12.5 39.7 -5.8 L48.9 1.25 Q48.75 1.85 48.35 1.85 L44.0 -1.25 48.6 2.25 48.5 2.45 46.0 1.05 48.9 3.3 48.9 3.6 Q48.9 3.8 48.5 3.8 34.75 -5.05 30.6 -7.5 31.3 -8.2 34.95 -6.3 L35.3 -6.1 30.45 -9.45 Q31.7 -9.75 34.3 -8.25 L30.45 -11.0 M35.2 -2.45 L40.5 0.75 46.0 4.1 Q49.65 6.45 49.65 6.85 49.65 7.45 49.0 7.35 L48.85 7.35 49.5 8.1 49.35 8.4 48.95 8.55 Q47.7 8.55 39.15 3.05 L30.9 -2.45 Q30.9 -3.45 39.75 2.0 L41.75 3.15 41.4 2.95 Q34.65 -1.35 30.9 -4.2 31.95 -4.3 35.2 -2.45 M30.75 -5.55 Q30.75 -6.6 35.1 -4.35 L41.1 -0.9 Q49.35 4.5 49.35 4.85 49.35 5.45 48.7 5.45 L45.0 3.2 40.2 0.0 Q37.3 -1.45 35.1 -2.65 30.75 -4.95 30.75 -5.55 M49.2 11.85 L40.35 5.55 35.05 2.4 Q31.1 0.0 31.1 -0.45 31.1 -1.45 40.45 4.45 49.8 10.35 49.8 11.2 49.7 11.85 49.2 11.85 M49.8 15.9 Q49.8 16.5 49.2 16.5 L42.0 11.55 30.9 3.75 Q31.05 2.75 32.9 3.85 L35.6 5.45 40.8 9.0 45.65 12.4 Q49.8 15.35 49.8 15.9 M48.65 13.85 Q36.35 6.3 31.05 1.8 L31.4 1.35 31.75 1.35 Q32.95 1.35 41.2 7.35 49.2 13.15 49.2 13.35 49.2 13.85 48.65 13.85 M42.45 24.05 L40.35 22.3 32.1 15.35 Q32.1 13.2 45.0 23.95 L49.15 27.15 51.95 29.45 Q51.95 30.2 51.3 30.2 L49.8 29.3 49.2 29.0 52.4 31.45 Q52.4 32.15 51.65 32.15 51.1 32.15 48.2 29.65 L41.7 24.9 Q32.25 17.9 32.25 17.45 32.25 16.45 36.7 19.7 L41.55 23.4 42.45 24.05 M49.4 21.35 Q49.0 21.35 45.25 18.65 L39.75 14.55 35.25 11.35 Q31.2 8.35 31.2 7.7 L31.25 7.5 Q36.9 10.1 50.0 20.85 50.0 21.35 49.4 21.35 M47.5 22.35 Q51.9 25.2 51.9 25.6 51.9 26.25 51.3 26.25 50.95 26.25 43.4 21.25 35.5 16.0 31.8 13.2 32.65 12.55 34.05 13.45 L36.75 15.35 41.9 18.8 47.5 22.35 M42.4 14.15 Q35.2 9.1 31.35 5.9 32.1 5.35 33.7 6.3 L36.2 8.0 41.25 11.4 46.85 15.25 Q50.7 17.95 50.7 18.3 50.7 19.05 50.0 19.05 49.4 19.05 42.4 14.15 M50.7 24.15 Q50.45 24.15 46.35 21.35 L40.2 16.95 35.3 13.45 Q32.35 11.25 31.25 9.6 31.95 9.55 41.65 16.4 51.3 23.25 51.3 23.55 L51.1 24.0 50.7 24.15 M51.7 36.65 L51.1 36.9 Q50.55 36.9 41.55 29.55 32.45 22.55 32.45 22.0 32.45 20.8 42.2 28.35 L51.9 36.2 51.7 36.65 M50.7 34.4 Q49.9 34.4 40.8 27.0 L33.45 20.8 33.3 20.7 33.35 20.7 32.55 19.55 Q32.55 18.6 37.55 22.4 L40.05 24.2 42.15 26.05 42.2 26.1 51.3 33.8 Q51.3 34.4 50.7 34.4" fill="#b78233" fill-rule="evenodd" stroke="none"/>
  </g>
  <defs>
    <linearGradient gradientTransform="matrix(0.0114, 0.0, 0.0, 0.0308, 11.55, 22.35)" gradientUnits="userSpaceOnUse" id="gradient0" spreadMethod="pad" x1="-819.2" x2="819.2">
      <stop offset="0.0" stop-color="#000000" stop-opacity="0.0"/>
      <stop offset="1.0" stop-color="#000000" stop-opacity="0.49803922"/>
    </linearGradient>
  </defs>
</svg>
