<?xml version="1.0" encoding="UTF-8" standalone="no"?>
<svg xmlns:xlink="http://www.w3.org/1999/xlink" height="95.15px" width="68.0px" xmlns="http://www.w3.org/2000/svg">
  <g transform="matrix(1.0, 0.0, 0.0, 1.0, 35.7, 48.1)">
    <path d="M14.75 -12.35 Q13.85 -7.9 10.05 -4.95 5.9 -1.7 0.45 -1.55 L-0.95 -1.55 Q-5.75 -1.8 -9.6 -4.4 -14.15 -7.55 -15.05 -12.5 -15.95 -17.95 -12.05 -22.35 -7.65 -26.95 -0.65 -27.25 6.2 -27.3 11.05 -22.95 15.4 -18.8 14.9 -13.4 L14.75 -12.35" fill="#333333" fill-rule="evenodd" stroke="none"/>
    <path d="M12.7 -12.65 Q12.05 -8.9 8.6 -6.3 5.1 -3.45 0.3 -3.35 L-0.9 -3.45 Q-4.95 -3.6 -8.3 -5.75 -12.35 -8.5 -13.0 -12.8 -13.75 -17.6 -10.4 -21.3 -6.65 -25.3 -0.65 -25.5 5.3 -25.65 9.5 -21.9 13.25 -18.35 12.8 -13.55 L12.7 -12.65 M4.4 -21.25 L6.9 -19.5 Q9.8 -17.0 9.65 -13.4 9.35 -10.15 6.6 -7.9 L5.15 -6.8 Q6.3 -7.75 6.95 -8.9 7.5 -9.65 7.65 -10.55 7.85 -11.6 7.25 -12.85 6.65 -14.05 4.95 -14.8 L3.2 -15.35 3.65 -15.55 4.35 -16.55 4.95 -18.65 Q4.95 -20.2 4.4 -21.25 M1.2 -15.95 Q0.6 -15.25 -0.15 -15.1 L-1.25 -15.1 -2.0 -15.2 -2.15 -17.45 -5.6 -17.3 -4.4 -6.35 -6.45 -7.5 Q-9.35 -9.65 -9.9 -12.95 -10.35 -16.45 -7.7 -19.05 L-6.9 -19.9 -5.6 -18.25 -3.5 -19.15 Q-1.25 -20.1 -0.15 -19.8 L1.65 -19.3 Q2.1 -18.85 2.0 -17.75 1.95 -16.6 1.2 -15.95 M0.3 -4.25 Q4.55 -4.4 7.95 -6.9 11.3 -9.55 11.6 -13.45 11.8 -17.8 8.45 -20.85 4.8 -24.25 -0.65 -24.15 -5.9 -24.0 -9.3 -20.4 -12.4 -17.15 -11.75 -12.85 -11.15 -8.95 -7.55 -6.5 -4.2 -4.05 0.3 -4.25 M4.2 -10.4 Q4.4 -9.65 4.1 -8.95 3.75 -8.15 2.9 -7.7 1.5 -6.9 -0.25 -6.8 L-1.35 -7.1 -1.85 -13.0 -0.6 -13.25 2.3 -12.85 3.5 -11.9 Q4.05 -11.3 4.2 -10.4" fill="#137bf0" fill-rule="evenodd" stroke="none"/>
    <path d="M1.2 -15.95 Q1.95 -16.6 2.0 -17.75 2.1 -18.85 1.65 -19.3 L-0.15 -19.8 Q-1.25 -20.1 -3.5 -19.15 L-5.6 -18.25 -6.9 -19.9 -7.7 -19.05 Q-10.35 -16.45 -9.9 -12.95 -9.35 -9.65 -6.45 -7.5 L-4.4 -6.35 -5.6 -17.3 -2.15 -17.45 -2.0 -15.2 -1.25 -15.1 -0.15 -15.1 Q0.6 -15.25 1.2 -15.95 M4.4 -21.25 Q4.95 -20.2 4.95 -18.65 L4.35 -16.55 3.65 -15.55 3.2 -15.35 4.95 -14.8 Q6.65 -14.05 7.25 -12.85 7.85 -11.6 7.65 -10.55 7.5 -9.65 6.95 -8.9 6.3 -7.75 5.15 -6.8 L6.6 -7.9 Q9.35 -10.15 9.65 -13.4 9.8 -17.0 6.9 -19.5 L4.4 -21.25 M4.2 -10.4 Q4.05 -11.3 3.5 -11.9 L2.3 -12.85 -0.6 -13.25 -1.85 -13.0 -1.35 -7.1 -0.25 -6.8 Q1.5 -6.9 2.9 -7.7 3.75 -8.15 4.1 -8.95 4.4 -9.65 4.2 -10.4 M0.3 -4.25 Q-4.2 -4.05 -7.55 -6.5 -11.15 -8.95 -11.75 -12.85 -12.4 -17.15 -9.3 -20.4 -5.9 -24.0 -0.65 -24.15 4.8 -24.25 8.45 -20.85 11.8 -17.8 11.6 -13.45 11.3 -9.55 7.95 -6.9 4.55 -4.4 0.3 -4.25" fill="#ffbf1e" fill-rule="evenodd" stroke="none"/>
    <path d="M26.75 -30.1 Q32.65 -24.3 32.3 -19.45 L28.0 14.7 23.85 47.05 -23.7 47.05 -32.25 -19.75 -32.2 -19.75 -35.7 -48.05 -32.45 -48.1 Q-7.0 -48.1 12.0 -39.7 20.95 -35.75 26.75 -30.1" fill="url(#gradient0)" fill-rule="evenodd" stroke="none"/>
  </g>
  <defs>
    <linearGradient gradientTransform="matrix(0.0, 0.0436, -0.0493, 0.0, -70.8, 33.8)" gradientUnits="userSpaceOnUse" id="gradient0" spreadMethod="pad" x1="-819.2" x2="819.2">
      <stop offset="0.0" stop-color="#ffffff" stop-opacity="0.0"/>
      <stop offset="1.0" stop-color="#ffffff" stop-opacity="0.8"/>
    </linearGradient>
  </defs>
</svg>
