<?xml version="1.0" encoding="UTF-8" standalone="no"?>
<svg xmlns:xlink="http://www.w3.org/1999/xlink" height="22.85px" width="29.05px" xmlns="http://www.w3.org/2000/svg">
  <g transform="matrix(1.0, 0.0, 0.0, 1.0, -32.1, -39.8)">
    <path d="M60.15 41.8 L60.05 61.65 33.1 61.65 33.1 41.8 34.7 40.8 58.4 40.8 60.15 41.8" fill="#63901a" fill-rule="evenodd" stroke="none"/>
    <path d="M60.15 41.8 L60.05 61.65 33.1 61.65 33.1 41.8 34.7 40.8 58.4 40.8 60.15 41.8 Z" fill="none" stroke="#856301" stroke-linecap="round" stroke-linejoin="round" stroke-width="2.0"/>
    <path d="M60.15 41.8 L60.05 61.65 33.1 61.65 33.1 41.8 34.7 40.8 58.4 40.8 60.15 41.8" fill="#ce9b00" fill-rule="evenodd" stroke="none"/>
    <path d="M34.7 59.05 L34.7 40.8 58.6 40.8 58.6 59.05 34.7 59.05" fill="#ffcc33" fill-rule="evenodd" stroke="none"/>
  </g>
</svg>
