<?xml version="1.0" encoding="UTF-8" standalone="no"?>
<svg xmlns:xlink="http://www.w3.org/1999/xlink" height="113.45px" width="82.35px" xmlns="http://www.w3.org/2000/svg">
  <g transform="matrix(1.0, 0.0, 0.0, 1.0, 41.2, 56.7)">
    <path d="M40.0 -56.7 Q41.25 -38.85 41.15 -15.8 41.0 30.4 34.0 56.75 L10.95 55.3 Q11.8 45.4 10.45 34.9 L8.4 23.2 0.0 22.0 Q-4.0 22.25 -8.45 23.2 L-10.5 34.9 Q-11.8 45.4 -10.95 55.3 L-34.0 56.75 Q-41.05 30.4 -41.2 -15.8 -41.3 -38.85 -40.0 -56.7 L-1.6 -56.7 1.55 -56.7 40.0 -56.7" fill="#ed4a2e" fill-rule="evenodd" stroke="none"/>
    <path d="M-7.85 30.85 L-9.8 31.05 -10.5 34.9 Q-11.8 45.4 -10.95 55.3 L-34.0 56.75 Q-36.95 45.75 -38.65 31.3 -23.0 32.55 -7.85 30.85" fill="#666666" fill-rule="evenodd" stroke="none"/>
    <path d="M39.3 31.5 L38.65 31.55 Q36.9 45.85 34.0 56.75 L10.95 55.3 Q11.8 45.4 10.45 34.9 L9.7 30.7 Q24.75 32.45 39.3 31.5" fill="#666666" fill-rule="evenodd" stroke="none"/>
  </g>
</svg>
