<?xml version="1.0" encoding="UTF-8" standalone="no"?>
<svg xmlns:xlink="http://www.w3.org/1999/xlink" height="15.5px" width="9.1px" xmlns="http://www.w3.org/2000/svg">
  <g transform="matrix(1.0, 0.0, 0.0, 1.0, 0.75, 0.75)">
    <path d="M0.0 5.3 L4.9 0.1 4.95 0.0 7.5 2.1 7.6 6.35 1.4 14.0 0.0 5.3" fill="#c9b8e0" fill-rule="evenodd" stroke="none"/>
    <path d="M0.0 5.3 L4.9 0.1 4.95 0.0 7.5 2.1 7.6 6.35 1.4 14.0 0.0 5.3 Z" fill="none" stroke="#8d69bd" stroke-linecap="round" stroke-linejoin="round" stroke-width="1.5"/>
    <path d="M0.05 5.55 L0.0 5.3 4.9 0.1 4.75 4.15 4.7 4.1 0.05 5.55" fill="#d2e8f3" fill-rule="evenodd" stroke="none"/>
    <path d="M4.9 0.1 L4.95 0.0 7.5 2.1 7.6 6.35 4.75 4.15 4.9 0.1" fill="url(#gradient0)" fill-rule="evenodd" stroke="none"/>
    <path d="M7.6 6.35 L1.4 14.0 0.05 5.55 4.7 4.1 4.75 4.15 7.6 6.35" fill="url(#gradient1)" fill-rule="evenodd" stroke="none"/>
  </g>
  <defs>
    <linearGradient gradientTransform="matrix(0.0047, 0.0014, -0.0011, 0.0037, 6.85, 3.55)" gradientUnits="userSpaceOnUse" id="gradient0" spreadMethod="pad" x1="-819.2" x2="819.2">
      <stop offset="0.0" stop-color="#8761ba"/>
      <stop offset="1.0" stop-color="#ffffff"/>
    </linearGradient>
    <linearGradient gradientTransform="matrix(0.0016, -0.0108, 0.0428, 0.0048, -19.8, 6.0)" gradientUnits="userSpaceOnUse" id="gradient1" spreadMethod="pad" x1="-819.2" x2="819.2">
      <stop offset="0.0" stop-color="#ff9900"/>
      <stop offset="0.5333333333333333" stop-color="#dbbcdc"/>
      <stop offset="1.0" stop-color="#ceffff"/>
    </linearGradient>
  </defs>
</svg>
