<?xml version="1.0" encoding="UTF-8" standalone="no"?>
<svg xmlns:xlink="http://www.w3.org/1999/xlink" height="56.75px" width="50.7px" xmlns="http://www.w3.org/2000/svg">
  <g transform="matrix(1.0, 0.0, 0.0, 1.0, -1.75, -2.2)">
    <path d="M8.8 42.15 Q10.35 41.05 12.05 40.55 L12.25 40.6 12.3 40.65 12.6 40.55 14.35 40.25 16.65 39.35 18.55 38.6 Q19.8 38.1 21.1 37.75 L23.05 37.2 23.1 37.2 Q23.6 36.75 24.3 36.4 L26.6 35.05 26.9 34.95 Q27.5 34.95 27.6 35.45 L27.75 36.5 27.75 37.5 27.75 38.3 Q31.2 40.0 34.3 42.35 36.0 43.7 35.85 45.45 L35.4 45.8 28.05 46.75 24.9 50.55 22.75 52.8 19.95 55.65 Q18.7 56.85 18.3 58.5 L18.0 58.95 17.85 58.95 17.65 58.9 17.55 58.8 17.45 58.7 16.25 54.55 15.75 52.0 Q15.5 50.3 15.5 48.6 L15.55 47.1 15.0 46.7 13.75 46.25 Q11.9 45.0 9.75 44.3 7.0 43.4 8.8 42.15" fill="#000000" fill-opacity="0.14901961" fill-rule="evenodd" stroke="none"/>
    <path d="M44.75 9.65 L44.85 10.65 44.85 11.6 44.85 12.35 Q48.1 13.95 51.0 16.15 52.6 17.4 52.45 19.05 52.45 19.4 52.05 19.4 L45.15 20.25 42.2 23.85 40.2 25.95 37.55 28.6 Q36.4 29.75 36.0 31.3 L35.7 31.7 35.6 31.7 35.4 31.65 35.3 31.6 35.2 31.5 34.1 27.6 33.6 25.2 Q33.35 23.6 33.35 22.0 L33.4 20.6 32.9 20.2 Q32.3 20.2 31.75 19.8 30.0 18.6 27.95 17.95 25.4 17.1 27.1 15.95 28.55 14.9 30.15 14.45 L30.3 14.5 30.35 14.55 30.65 14.45 32.3 14.15 34.45 13.3 36.25 12.6 Q37.4 12.15 38.65 11.8 L40.45 11.3 40.5 11.3 41.65 10.55 43.8 9.3 44.05 9.2 Q44.65 9.2 44.75 9.65" fill="#000000" fill-opacity="0.14901961" fill-rule="evenodd" stroke="none"/>
    <path d="M29.1 9.95 Q30.9 11.35 30.75 13.15 30.75 13.55 30.3 13.55 L22.6 14.5 Q21.1 16.7 19.3 18.5 L17.1 20.85 14.15 23.8 Q12.85 25.1 12.4 26.8 L12.1 27.25 11.95 27.25 11.75 27.2 11.65 27.15 11.55 27.05 10.3 22.7 9.75 20.0 Q9.45 18.25 9.45 16.45 L9.5 14.9 8.95 14.45 7.7 14.0 Q5.75 12.65 3.45 11.95 0.6 11.0 2.5 9.7 4.1 8.55 5.9 8.05 L6.05 8.1 6.15 8.15 6.45 8.05 8.3 7.7 10.7 6.75 12.7 6.0 15.35 5.1 17.35 4.55 17.45 4.55 18.7 3.7 21.1 2.3 21.4 2.2 Q22.05 2.2 22.15 2.7 L22.25 3.8 22.25 4.9 22.25 5.7 Q25.9 7.5 29.1 9.95" fill="#000000" fill-opacity="0.14901961" fill-rule="evenodd" stroke="none"/>
  </g>
</svg>
