<?xml version="1.0" encoding="UTF-8" standalone="no"?>
<svg xmlns:xlink="http://www.w3.org/1999/xlink" height="30.5px" width="32.8px" xmlns="http://www.w3.org/2000/svg">
  <g transform="matrix(1.0, 0.0, 0.0, 1.0, -8.3, -2.9)">
    <path d="M40.5 14.3 L40.6 14.6 40.6 14.9 40.6 15.2 40.6 15.5 40.7 15.8 40.9 16.1 40.9 16.4 40.9 16.7 40.9 17.0 40.9 17.3 40.9 17.6 41.0 17.9 41.0 18.2 41.0 18.5 41.0 18.8 41.0 19.1 41.0 19.4 41.1 19.7 41.1 20.0 41.1 20.6 41.1 21.2 41.1 21.8 41.1 22.4 41.1 23.0 41.1 23.6 41.1 23.9 41.0 24.2 41.0 24.5 40.9 24.8 40.9 25.1 40.8 25.4 40.7 25.7 40.7 26.0 40.7 26.3 40.7 26.6 40.7 26.9 40.7 27.2 40.7 27.5 40.7 27.8 40.6 28.1 40.6 28.4 40.6 28.7 40.6 29.0 40.5 29.3 40.4 29.6 40.2 29.9 40.1 30.2 40.0 30.5 39.9 30.8 39.8 31.1 39.8 31.4 39.7 31.7 39.5 32.0 39.2 32.3 39.0 32.6 38.8 32.9 38.5 33.2 38.0 33.4 37.4 33.2 37.1 32.9 37.0 32.6 37.0 32.3 37.0 32.0 37.1 31.7 37.0 31.4 36.9 31.1 36.8 30.8 36.8 30.5 36.8 30.2 36.8 29.9 36.9 29.6 37.0 29.3 37.0 29.0 37.0 28.7 37.0 28.4 36.9 28.1 36.9 27.8 36.9 27.5 36.9 27.2 36.9 26.9 36.9 26.6 36.9 26.3 36.9 26.0 36.9 25.7 36.9 25.4 36.9 25.1 37.0 24.8 37.0 24.5 37.1 24.2 37.1 23.9 37.2 23.6 37.3 23.3 37.3 23.0 37.3 22.7 37.3 22.1 37.3 21.5 37.3 20.9 37.3 20.3 37.3 19.7 37.4 19.4 37.4 19.1 37.4 18.8 37.4 18.5 37.4 18.2 37.4 17.9 37.4 17.6 37.5 17.3 37.5 17.0 37.5 16.7 37.5 16.4 37.5 16.1 37.6 15.8 37.7 15.5 37.8 15.2 37.8 14.9 37.8 14.6 37.9 14.3 37.9 14.0 37.9 13.7 38.0 13.4 38.0 13.1 38.0 12.8 38.2 12.5 38.5 12.2 39.2 12.05 39.2 12.0 39.8 12.2 40.1 12.5 40.3 12.8 40.4 13.1 40.4 13.4 40.4 13.7 40.5 14.0 40.5 14.3 M31.6 4.9 L32.4 5.2 32.9 5.5 33.3 5.8 34.0 6.1 34.8 6.4 35.2 6.7 35.5 7.0 35.8 7.3 36.1 7.6 36.3 7.9 36.6 8.2 36.9 8.5 37.0 8.8 37.2 9.1 37.4 9.4 37.6 9.7 37.8 10.0 37.9 10.3 38.1 10.6 38.1 10.9 38.2 11.2 38.1 11.5 38.0 11.8 37.8 12.1 37.5 12.4 36.8 12.6 36.1 12.4 35.7 12.1 35.5 11.8 35.3 11.5 35.0 11.2 34.5 10.9 34.2 10.6 33.8 10.3 33.5 10.0 33.2 9.7 32.5 9.4 31.8 9.1 31.3 8.8 30.9 8.5 29.2 7.9 28.3 7.6 27.4 7.3 26.7 7.0 26.0 6.7 25.6 6.5 24.8 6.4 24.0 6.2 23.6 5.9 23.1 5.7 22.8 5.6 22.3 5.8 21.9 6.1 21.3 6.3 20.9 6.4 20.3 6.6 19.8 6.9 19.2 7.2 18.8 7.5 18.0 7.8 17.4 8.0 16.6 8.2 16.2 8.3 15.8 8.4 15.2 8.5 15.0 8.5 14.6 8.6 14.2 8.7 13.4 8.8 12.9 9.0 12.4 9.1 11.7 9.2 11.1 9.5 10.6 9.8 10.0 10.0 9.6 10.0 9.2 10.1 8.6 9.9 8.4 9.6 8.3 9.3 8.3 9.0 8.4 8.7 8.7 8.4 9.0 8.1 9.2 7.8 9.5 7.5 9.9 7.2 10.5 6.9 11.2 6.6 11.7 6.3 12.4 6.0 12.8 5.8 13.0 5.7 13.4 5.6 13.8 5.5 15.0 5.1 15.8 4.9 17.1 4.5 17.4 4.4 18.0 4.2 18.6 3.9 19.0 3.7 19.6 3.6 19.9 3.6 20.3 3.5 20.7 3.4 21.2 3.3 21.6 3.3 21.9 3.2 22.4 3.1 22.8 3.2 23.1 3.1 23.5 3.0 24.0 2.95 24.0 2.9 24.5 3.0 24.7 3.1 26.0 3.1 26.8 3.3 27.4 3.6 28.9 4.0 29.8 4.3 30.7 4.6 31.6 4.9" fill="#ffffff" fill-rule="evenodd" stroke="none"/>
  </g>
</svg>
