<?xml version="1.0" encoding="UTF-8" standalone="no"?>
<svg xmlns:xlink="http://www.w3.org/1999/xlink" height="46.0px" width="53.5px" xmlns="http://www.w3.org/2000/svg">
  <g transform="matrix(1.0, 0.0, 0.0, 1.0, 22.2, 25.0)">
    <path d="M-16.5 9.5 Q-16.1 9.5 -15.75 9.75 L-15.8 9.7 Q-17.85 7.65 -19.15 9.65 L-19.15 9.75 -18.65 9.45 -16.5 9.5 M-18.25 8.55 L-16.05 8.65 -13.25 10.45 Q7.65 -9.55 8.6 -8.8 9.4 -7.9 -10.15 13.35 -9.05 14.75 -8.6 16.1 -8.2 17.1 -8.4 18.3 -8.95 19.55 -9.4 20.0 -10.3 21.0 -12.5 20.0 -14.6 19.1 -16.8 16.9 -19.05 14.75 -19.95 12.55 -20.8 10.5 -19.95 9.45 -19.5 9.0 -18.25 8.55 M-18.95 13.35 L-18.5 13.5 -19.5 11.9 Q-19.75 11.15 -19.6 10.7 -20.15 12.15 -18.95 13.35" fill="#666666" fill-rule="evenodd" stroke="none"/>
    <path d="M-18.25 8.55 Q-19.5 9.0 -19.95 9.45 -20.8 10.5 -19.95 12.55 -19.05 14.75 -16.8 16.9 -14.6 19.1 -12.5 20.0 -10.3 21.0 -9.4 20.0 -8.95 19.55 -8.4 18.3 -8.2 17.1 -8.6 16.1 -9.05 14.75 -10.15 13.35 9.4 -7.9 8.6 -8.8 7.65 -9.55 -13.25 10.45 L-16.05 8.65 -18.25 8.55 Z" fill="none" stroke="#333333" stroke-linecap="round" stroke-linejoin="round" stroke-width="1.0"/>
    <path d="M5.65 9.5 L6.4 9.75 6.35 9.7 Q4.3 7.65 3.0 9.65 L3.0 9.75 Q3.1 9.55 3.5 9.45 L5.65 9.5 M3.9 8.55 L6.1 8.65 8.9 10.45 Q29.8 -9.55 30.75 -8.8 31.55 -7.9 12.0 13.35 13.1 14.75 13.55 16.1 13.95 17.1 13.75 18.3 L12.75 20.0 Q11.85 21.0 9.65 20.0 7.55 19.1 5.35 16.9 3.1 14.75 2.2 12.55 1.35 10.5 2.2 9.45 2.65 9.0 3.9 8.55 M3.2 13.35 L3.65 13.5 2.65 11.9 Q2.4 11.15 2.55 10.7 2.0 12.15 3.2 13.35" fill="#666666" fill-rule="evenodd" stroke="none"/>
    <path d="M3.9 8.55 Q2.65 9.0 2.2 9.45 1.35 10.5 2.2 12.55 3.1 14.75 5.35 16.9 7.55 19.1 9.65 20.0 11.85 21.0 12.75 20.0 L13.75 18.3 Q13.95 17.1 13.55 16.1 13.1 14.75 12.0 13.35 31.55 -7.9 30.75 -8.8 29.8 -9.55 8.9 10.45 L6.1 8.65 3.9 8.55 Z" fill="none" stroke="#333333" stroke-linecap="round" stroke-linejoin="round" stroke-width="1.0"/>
    <path d="M-17.8 -6.15 L-17.05 -5.9 -17.1 -5.95 Q-19.15 -8.0 -20.45 -6.0 L-20.45 -5.9 -19.95 -6.2 -17.8 -6.15 M-19.55 -7.1 L-17.35 -7.0 Q-15.95 -6.3 -14.55 -5.2 6.35 -25.2 7.3 -24.45 8.1 -23.55 -11.45 -2.3 -10.35 -0.9 -9.9 0.45 -9.5 1.45 -9.7 2.65 -10.25 3.9 -10.7 4.35 -11.6 5.35 -13.8 4.35 -15.9 3.45 -18.1 1.25 -20.35 -0.9 -21.25 -3.1 -22.1 -5.15 -21.25 -6.2 -20.8 -6.65 -19.55 -7.1 M-20.25 -2.3 L-19.8 -2.15 -20.8 -3.75 Q-21.05 -4.5 -20.9 -4.95 -21.45 -3.5 -20.25 -2.3" fill="#666666" fill-rule="evenodd" stroke="none"/>
    <path d="M-19.55 -7.1 Q-20.8 -6.65 -21.25 -6.2 -22.1 -5.15 -21.25 -3.1 -20.35 -0.9 -18.1 1.25 -15.9 3.45 -13.8 4.35 -11.6 5.35 -10.7 4.35 -10.25 3.9 -9.7 2.65 -9.5 1.45 -9.9 0.45 -10.35 -0.9 -11.45 -2.3 8.1 -23.55 7.3 -24.45 6.35 -25.2 -14.55 -5.2 -15.95 -6.3 -17.35 -7.0 L-19.55 -7.1 Z" fill="none" stroke="#333333" stroke-linecap="round" stroke-linejoin="round" stroke-width="1.0"/>
    <path d="M-17.0 -3.1 Q-17.6 -1.75 -18.25 -1.75 -20.1 -1.75 -20.6 -2.7 L-20.75 -4.0 Q-20.75 -6.5 -18.6 -6.9 -16.5 -7.3 -16.5 -4.95 -16.5 -4.25 -17.0 -3.1 M-17.5 9.05 Q-16.35 9.05 -15.85 9.7 -15.5 10.15 -15.5 10.95 -15.5 11.65 -15.85 12.5 -16.35 13.75 -17.25 13.75 -18.45 13.75 -19.1 12.25 L-19.5 10.85 Q-19.5 10.15 -19.15 9.7 -18.7 9.05 -17.5 9.05 M7.1 13.5 Q6.35 15.0 5.5 15.0 4.25 15.0 3.25 13.0 L2.5 11.1 Q2.5 8.75 5.15 9.25 7.75 9.75 7.75 11.55 L7.1 13.5" fill="#999999" fill-rule="evenodd" stroke="none"/>
  </g>
</svg>
