<?xml version="1.0" encoding="UTF-8" standalone="no"?>
<svg xmlns:xlink="http://www.w3.org/1999/xlink" height="62.2px" width="71.15px" xmlns="http://www.w3.org/2000/svg">
  <g transform="matrix(1.0, 0.0, 0.0, 1.0, 12.95, 27.05)">
    <path d="M25.85 -26.4 L25.5 -26.3 25.7 -25.55 25.75 -25.3 25.85 -24.95 25.95 -24.5 26.75 -21.55 23.65 -20.75 26.95 -20.65 28.85 -12.95 26.0 -11.65 29.15 -12.0 30.15 -7.45 28.3 -6.65 30.3 -6.55 30.8 -4.65 30.8 -4.6 31.15 -4.7 31.15 -4.1 22.3 -2.1 22.8 -0.25 22.85 -0.25 Q24.5 -0.15 25.75 0.95 26.6 1.7 26.95 2.65 L55.9 -3.65 56.5 -1.8 56.1 -1.7 58.2 7.05 57.45 7.0 57.35 6.7 51.9 7.8 50.95 5.05 50.85 7.95 42.0 9.6 40.5 7.1 40.95 9.8 35.75 10.75 34.8 9.1 34.65 10.85 32.5 11.3 32.5 11.35 32.55 11.6 31.8 11.65 29.7 4.4 29.7 4.25 29.55 3.9 27.05 4.4 27.05 4.45 Q26.8 5.7 25.75 6.65 24.95 7.35 23.95 7.6 L31.35 33.15 29.25 33.65 29.15 33.3 19.1 35.15 19.1 34.5 19.5 34.45 19.3 33.65 19.2 33.4 19.15 33.1 19.0 32.65 18.2 29.65 21.3 28.85 18.0 28.75 16.1 21.05 18.95 19.75 15.8 20.1 14.8 15.55 16.65 14.75 14.65 14.65 14.15 12.75 13.8 12.8 13.8 12.2 22.65 10.2 22.7 10.2 22.0 7.8 Q20.35 7.65 19.2 6.65 18.55 6.1 18.25 5.4 L-10.95 11.75 -11.55 9.9 -10.95 9.8 -12.95 1.55 -6.95 0.3 -6.0 3.05 -5.9 0.15 2.95 -1.5 4.45 1.0 4.0 -1.7 9.2 -2.65 10.15 -1.0 10.3 -2.75 12.5 -3.2 12.5 -3.25 12.4 -3.5 13.15 -3.55 15.25 3.75 15.3 3.85 15.4 4.25 17.85 3.7 Q17.9 2.1 19.2 0.95 19.95 0.3 20.85 0.0 L13.6 -25.05 15.7 -25.55 15.8 -25.2 25.85 -27.05 25.85 -26.4" fill="#000000" fill-opacity="0.21960784" fill-rule="evenodd" stroke="none"/>
  </g>
</svg>
