<?xml version="1.0" encoding="UTF-8" standalone="no"?>
<svg xmlns:xlink="http://www.w3.org/1999/xlink" height="62.35px" width="71.35px" xmlns="http://www.w3.org/2000/svg">
  <g transform="matrix(1.0, 0.0, 0.0, 1.0, 13.05, 27.1)">
    <path d="M24.85 -26.45 L24.5 -26.35 25.9 -21.65 22.8 -20.75 26.1 -20.75 28.25 -13.1 25.4 -11.75 28.55 -12.15 29.75 -7.65 27.95 -6.8 29.95 -6.75 30.25 -5.8 30.4 -5.3 30.45 -5.2 30.55 -4.8 30.85 -4.9 30.95 -4.3 22.1 -2.1 22.4 -1.15 22.7 -0.25 Q24.45 -0.2 25.75 0.95 26.6 1.65 26.9 2.6 L55.65 -4.5 56.25 -2.7 55.9 -2.6 56.2 -1.5 56.5 -0.4 58.3 6.1 57.5 6.1 57.45 5.85 56.1 6.15 52.0 7.05 50.95 4.35 51.0 7.25 42.2 9.1 40.6 6.65 41.1 9.35 35.95 10.45 34.95 8.8 34.85 10.6 32.7 11.05 32.8 11.35 32.05 11.4 30.2 5.7 29.85 4.75 29.55 3.75 27.05 4.35 Q26.85 5.65 25.75 6.65 L24.1 7.6 32.35 32.95 30.25 33.45 30.15 33.1 20.15 35.25 20.1 34.55 20.45 34.5 20.45 34.45 19.05 29.75 22.15 28.85 18.85 28.85 16.7 21.2 19.55 19.85 16.4 20.25 15.2 15.8 17.0 14.9 15.0 14.85 14.7 13.9 14.45 12.95 14.1 13.0 14.0 12.4 22.9 10.2 22.15 7.8 22.1 7.8 Q20.4 7.7 19.2 6.65 L18.3 5.5 -10.7 12.6 -11.3 10.8 -10.9 10.7 -10.75 10.7 -13.05 2.4 -7.05 1.05 -6.0 3.75 -6.05 0.85 2.75 -1.0 4.35 1.45 3.85 -1.25 9.0 -2.35 10.0 -0.7 10.1 -2.45 12.25 -2.95 12.15 -3.25 12.9 -3.3 15.4 4.35 15.45 4.4 17.85 3.85 17.85 3.75 Q17.85 2.1 19.2 0.95 19.9 0.35 20.7 0.05 L12.6 -24.8 14.7 -25.35 14.85 -24.95 16.7 -25.35 24.8 -27.1 24.85 -26.45" fill="#000000" fill-opacity="0.21960784" fill-rule="evenodd" stroke="none"/>
  </g>
</svg>
