<?xml version="1.0" encoding="UTF-8" standalone="no"?>
<svg xmlns:xlink="http://www.w3.org/1999/xlink" height="13.4px" width="8.4px" xmlns="http://www.w3.org/2000/svg">
  <g transform="matrix(1.0, 0.0, 0.0, 1.0, -34.9, -15.3)">
    <path d="M40.6 19.1 L40.6 26.9 Q40.15 27.65 39.1 27.7 38.1 27.75 37.65 26.9 L37.65 19.4 37.6 19.25 37.7 19.1 Q37.75 18.7 38.1 18.35 38.5 17.95 39.15 17.95 39.75 17.95 40.2 18.4 L40.2 18.35 40.6 19.1" fill="#775228" fill-rule="evenodd" stroke="none"/>
    <path d="M41.6 27.0 L41.55 27.25 Q40.9 28.65 39.15 28.7 37.45 28.75 36.7 27.25 L36.65 27.0 36.65 19.4 36.7 19.15 36.7 18.9 Q36.85 18.2 37.4 17.65 38.1 16.95 39.15 16.95 40.15 16.95 40.9 17.65 41.45 18.2 41.6 18.9 L41.6 19.0 41.6 27.0 M40.6 19.1 L40.2 18.35 40.2 18.4 Q39.75 17.95 39.15 17.95 38.5 17.95 38.1 18.35 37.75 18.7 37.7 19.1 L37.6 19.25 37.65 19.4 37.65 26.9 Q38.1 27.75 39.1 27.7 40.15 27.65 40.6 26.9 L40.6 19.1" fill="#44505b" fill-rule="evenodd" stroke="none"/>
    <path d="M41.1 19.75 Q41.1 20.2 40.55 20.7 39.95 21.25 39.15 21.25 38.3 21.25 37.75 20.7 37.2 20.2 37.15 19.4 L37.15 19.3 37.2 19.0 Q37.3 18.45 37.75 18.0 38.3 17.45 39.15 17.45 39.95 17.45 40.55 18.0 L41.1 19.0 41.1 19.75" fill="#bcc5cd" fill-rule="evenodd" stroke="none"/>
    <path d="M41.1 19.75 L41.1 22.3 41.1 27.0 Q40.55 28.15 39.15 28.2 37.75 28.25 37.15 27.0 L37.15 22.3 37.15 19.4 Q37.2 20.2 37.75 20.7 38.3 21.25 39.15 21.25 39.95 21.25 40.55 20.7 41.1 20.2 41.1 19.75" fill="#d8dce0" fill-rule="evenodd" stroke="none"/>
    <path d="M37.15 19.3 L37.15 19.0 37.2 19.0 37.15 19.3" fill="#7e5629" fill-rule="evenodd" stroke="none"/>
    <path d="M41.1 23.35 L39.5 23.95 38.5 23.95 37.25 23.55 37.15 23.5 37.15 22.3 37.15 19.4 37.15 19.0 37.2 19.0 Q37.3 18.45 37.75 18.0 38.3 17.45 39.15 17.45 39.95 17.45 40.55 18.0 L41.1 19.0 41.1 23.35" fill="#afb8c0" fill-rule="evenodd" stroke="none"/>
    <path d="M41.75 16.7 Q40.65 15.8 39.1 15.8 37.55 15.8 36.5 16.7 35.4 17.65 35.4 18.95 35.4 20.25 36.5 21.15 37.55 22.1 39.1 22.1 40.65 22.1 41.75 21.15 42.8 20.25 42.8 18.95 42.8 17.65 41.75 16.7 Z" fill="none" stroke="#44505b" stroke-linecap="round" stroke-linejoin="round" stroke-width="1.0"/>
    <path d="M41.75 16.7 Q42.8 17.65 42.8 18.95 42.8 20.25 41.75 21.15 40.65 22.1 39.1 22.1 37.55 22.1 36.5 21.15 35.4 20.25 35.4 18.95 35.4 17.65 36.5 16.7 37.55 15.8 39.1 15.8 40.65 15.8 41.75 16.7" fill="#eceef0" fill-rule="evenodd" stroke="none"/>
  </g>
</svg>
