<?xml version="1.0" encoding="UTF-8" standalone="no"?>
<svg xmlns:xlink="http://www.w3.org/1999/xlink" height="611.35px" width="463.05px" xmlns="http://www.w3.org/2000/svg">
  <g transform="matrix(1.0, 0.0, 0.0, 1.0, 228.0, 291.3)">
    <path d="M-48.25 -7.7 L-27.55 -12.4 -14.2 -15.4 19.8 -22.95 66.3 54.05 11.8 57.7 Q-44.15 60.0 -51.5 53.3 -55.15 49.95 -55.85 41.35 -56.55 32.7 -54.3 18.8 -52.85 10.1 -50.4 0.35 L-48.25 -7.7" fill="#ffffff" fill-rule="evenodd" stroke="none"/>
    <path d="M-48.25 -7.7 L-50.4 0.35 Q-52.85 10.1 -54.3 18.8 -56.55 32.7 -55.85 41.35 -55.15 49.95 -51.5 53.3 -44.15 60.0 11.8 57.7 L66.3 54.05 19.8 -22.95 -14.2 -15.4 -27.55 -12.4 -48.25 -7.7 Z" fill="none" stroke="#252525" stroke-linecap="square" stroke-linejoin="miter" stroke-miterlimit="3.0" stroke-width="9.0"/>
    <path d="M-18.0 27.0 L-18.5 41.4 27.3 35.65 -18.0 27.0" fill="#000000" fill-rule="evenodd" stroke="none"/>
    <path d="M-84.8 20.65 Q-84.9 23.8 -84.65 26.75 L-84.45 28.7 -63.8 32.2 -67.25 13.3 Q-69.25 12.15 -72.0 11.3 L-80.95 11.0 Q-84.5 12.35 -84.8 20.65" fill="#ffcc33" fill-rule="evenodd" stroke="none"/>
    <path d="M-84.8 20.65 Q-84.9 23.8 -84.65 26.75 L-84.45 28.7 -63.8 32.2 -67.25 13.3 Q-69.25 12.15 -72.0 11.3 L-80.95 11.0 Q-84.5 12.35 -84.8 20.65 Z" fill="none" stroke="#856301" stroke-linecap="round" stroke-linejoin="round" stroke-width="2.0"/>
    <path d="M-85.55 44.85 Q-85.5 41.75 -84.95 38.8 L-84.65 36.85 -63.75 35.1 -68.65 53.65 Q-70.7 54.6 -73.5 55.25 -79.0 56.5 -82.5 54.8 -85.9 53.15 -85.55 44.85" fill="#ffcc33" fill-rule="evenodd" stroke="none"/>
    <path d="M-85.55 44.85 Q-85.5 41.75 -84.95 38.8 L-84.65 36.85 -63.75 35.1 -68.65 53.65 Q-70.7 54.6 -73.5 55.25 -79.0 56.5 -82.5 54.8 -85.9 53.15 -85.55 44.85 Z" fill="none" stroke="#856301" stroke-linecap="round" stroke-linejoin="round" stroke-width="2.0"/>
    <path d="M-48.25 -7.7 L-27.55 -12.4 Q-25.85 -2.55 -27.25 18.55 -28.1 31.15 -29.85 40.2 -31.75 49.9 -33.85 50.95 -37.75 52.9 -44.55 50.7 -50.15 48.95 -52.75 46.55 -54.75 44.7 -55.85 41.35 -56.55 32.7 -54.3 18.8 -52.85 10.1 -50.4 0.35 L-48.25 -7.7" fill="#30363f" fill-rule="evenodd" stroke="none"/>
    <path d="M-50.6 31.95 L-85.95 26.95 -86.4 39.0 -50.75 36.6 -50.6 31.95" fill="#000000" fill-rule="evenodd" stroke="none"/>
    <path d="M-24.35 48.3 Q1.8 49.3 2.25 36.1 2.75 22.85 -23.4 21.85 -28.8 21.65 -39.35 26.55 -49.95 31.45 -50.05 34.15 -50.15 36.8 -39.95 42.55 -29.75 48.1 -24.35 48.3" fill="#333333" fill-rule="evenodd" stroke="none"/>
    <path d="M-24.35 48.3 Q1.8 49.3 2.25 36.1 2.75 22.85 -23.4 21.85 -28.8 21.65 -39.35 26.55 -49.95 31.45 -50.05 34.15 -50.15 36.8 -39.95 42.55 -29.75 48.1 -24.35 48.3 Z" fill="none" stroke="#000000" stroke-linecap="round" stroke-linejoin="round" stroke-width="2.0"/>
    <path d="M-18.0 27.0 L-18.5 41.4 27.3 35.65 -18.0 27.0" fill="#000000" fill-rule="evenodd" stroke="none"/>
    <path d="M-50.6 31.95 L-85.95 26.95 -86.4 39.0 -50.75 36.6 -50.6 31.95" fill="#000000" fill-rule="evenodd" stroke="none"/>
    <path d="M-24.35 48.3 Q1.8 49.3 2.25 36.1 2.75 22.85 -23.4 21.85 -28.8 21.65 -39.35 26.55 -49.95 31.45 -50.05 34.15 -50.15 36.8 -39.95 42.55 -29.75 48.1 -24.35 48.3" fill="#333333" fill-rule="evenodd" stroke="none"/>
    <path d="M-24.35 48.3 Q1.8 49.3 2.25 36.1 2.75 22.85 -23.4 21.85 -28.8 21.65 -39.35 26.55 -49.95 31.45 -50.05 34.15 -50.15 36.8 -39.95 42.55 -29.75 48.1 -24.35 48.3 Z" fill="none" stroke="#000000" stroke-linecap="round" stroke-linejoin="round" stroke-width="2.0"/>
    <path d="M-18.0 27.0 L-18.5 41.4 27.3 35.65 -18.0 27.0" fill="#000000" fill-rule="evenodd" stroke="none"/>
    <path d="M-50.6 31.95 L-85.95 26.95 -86.4 39.0 -50.75 36.6 -50.6 31.95" fill="#000000" fill-rule="evenodd" stroke="none"/>
    <path d="M-24.35 48.3 Q1.8 49.3 2.25 36.1 2.75 22.85 -23.4 21.85 -28.8 21.65 -39.35 26.55 -49.95 31.45 -50.05 34.15 -50.15 36.8 -39.95 42.55 -29.75 48.1 -24.35 48.3" fill="#333333" fill-rule="evenodd" stroke="none"/>
    <path d="M-24.35 48.3 Q1.8 49.3 2.25 36.1 2.75 22.85 -23.4 21.85 -28.8 21.65 -39.35 26.55 -49.95 31.45 -50.05 34.15 -50.15 36.8 -39.95 42.55 -29.75 48.1 -24.35 48.3 Z" fill="none" stroke="#000000" stroke-linecap="round" stroke-linejoin="round" stroke-width="2.0"/>
    <path d="M-18.0 27.0 L-18.5 41.4 27.3 35.65 -18.0 27.0" fill="#000000" fill-rule="evenodd" stroke="none"/>
    <path d="M-50.6 31.95 L-85.95 26.95 -86.4 39.0 -50.75 36.6 -50.6 31.95" fill="#000000" fill-rule="evenodd" stroke="none"/>
    <path d="M-24.35 48.3 Q1.8 49.3 2.25 36.1 2.75 22.85 -23.4 21.85 -28.8 21.65 -39.35 26.55 -49.95 31.45 -50.05 34.15 -50.15 36.8 -39.95 42.55 -29.75 48.1 -24.35 48.3" fill="#333333" fill-rule="evenodd" stroke="none"/>
    <path d="M-24.35 48.3 Q1.8 49.3 2.25 36.1 2.75 22.85 -23.4 21.85 -28.8 21.65 -39.35 26.55 -49.95 31.45 -50.05 34.15 -50.15 36.8 -39.95 42.55 -29.75 48.1 -24.35 48.3 Z" fill="none" stroke="#000000" stroke-linecap="round" stroke-linejoin="round" stroke-width="2.0"/>
    <path d="M-18.0 27.0 L-18.5 41.4 27.3 35.65 -18.0 27.0" fill="#000000" fill-rule="evenodd" stroke="none"/>
    <path d="M-50.6 31.95 L-85.95 26.95 -86.4 39.0 -50.75 36.6 -50.6 31.95" fill="#000000" fill-rule="evenodd" stroke="none"/>
    <path d="M-24.35 48.3 Q1.8 49.3 2.25 36.1 2.75 22.85 -23.4 21.85 -28.8 21.65 -39.35 26.55 -49.95 31.45 -50.05 34.15 -50.15 36.8 -39.95 42.55 -29.75 48.1 -24.35 48.3" fill="#333333" fill-rule="evenodd" stroke="none"/>
    <path d="M-24.35 48.3 Q1.8 49.3 2.25 36.1 2.75 22.85 -23.4 21.85 -28.8 21.65 -39.35 26.55 -49.95 31.45 -50.05 34.15 -50.15 36.8 -39.95 42.55 -29.75 48.1 -24.35 48.3 Z" fill="none" stroke="#000000" stroke-linecap="round" stroke-linejoin="round" stroke-width="2.0"/>
    <path d="M-18.0 27.0 L-18.5 41.4 27.3 35.65 -18.0 27.0" fill="#000000" fill-rule="evenodd" stroke="none"/>
    <path d="M-50.6 31.95 L-85.95 26.95 -86.4 39.0 -50.75 36.6 -50.6 31.95" fill="#000000" fill-rule="evenodd" stroke="none"/>
    <path d="M-24.35 48.3 Q1.8 49.3 2.25 36.1 2.75 22.85 -23.4 21.85 -28.8 21.65 -39.35 26.55 -49.95 31.45 -50.05 34.15 -50.15 36.8 -39.95 42.55 -29.75 48.1 -24.35 48.3" fill="#333333" fill-rule="evenodd" stroke="none"/>
    <path d="M-24.35 48.3 Q1.8 49.3 2.25 36.1 2.75 22.85 -23.4 21.85 -28.8 21.65 -39.35 26.55 -49.95 31.45 -50.05 34.15 -50.15 36.8 -39.95 42.55 -29.75 48.1 -24.35 48.3 Z" fill="none" stroke="#000000" stroke-linecap="round" stroke-linejoin="round" stroke-width="2.0"/>
    <path d="M-18.0 27.0 L-18.5 41.4 27.3 35.65 -18.0 27.0" fill="#000000" fill-rule="evenodd" stroke="none"/>
    <path d="M-50.6 31.95 L-85.95 26.95 -86.4 39.0 -50.75 36.6 -50.6 31.95" fill="#000000" fill-rule="evenodd" stroke="none"/>
    <path d="M-24.35 48.3 Q1.8 49.3 2.25 36.1 2.75 22.85 -23.4 21.85 -28.8 21.65 -39.35 26.55 -49.95 31.45 -50.05 34.15 -50.15 36.8 -39.95 42.55 -29.75 48.1 -24.35 48.3" fill="#333333" fill-rule="evenodd" stroke="none"/>
    <path d="M-24.35 48.3 Q1.8 49.3 2.25 36.1 2.75 22.85 -23.4 21.85 -28.8 21.65 -39.35 26.55 -49.95 31.45 -50.05 34.15 -50.15 36.8 -39.95 42.55 -29.75 48.1 -24.35 48.3 Z" fill="none" stroke="#000000" stroke-linecap="round" stroke-linejoin="round" stroke-width="2.0"/>
    <path d="M-18.0 27.0 L-18.5 41.4 27.3 35.65 -18.0 27.0" fill="#000000" fill-rule="evenodd" stroke="none"/>
    <path d="M-50.6 31.95 L-85.95 26.95 -86.4 39.0 -50.75 36.6 -50.6 31.95" fill="#000000" fill-rule="evenodd" stroke="none"/>
    <path d="M-24.35 48.3 Q1.8 49.3 2.25 36.1 2.75 22.85 -23.4 21.85 -28.8 21.65 -39.35 26.55 -49.95 31.45 -50.05 34.15 -50.15 36.8 -39.95 42.55 -29.75 48.1 -24.35 48.3" fill="#333333" fill-rule="evenodd" stroke="none"/>
    <path d="M-24.35 48.3 Q1.8 49.3 2.25 36.1 2.75 22.85 -23.4 21.85 -28.8 21.65 -39.35 26.55 -49.95 31.45 -50.05 34.15 -50.15 36.8 -39.95 42.55 -29.75 48.1 -24.35 48.3 Z" fill="none" stroke="#000000" stroke-linecap="round" stroke-linejoin="round" stroke-width="9.0"/>
    <path d="M-24.35 48.3 Q1.8 49.3 2.25 36.1 2.75 22.85 -23.4 21.85 -28.8 21.65 -39.35 26.55 -49.95 31.45 -50.05 34.15 -50.15 36.8 -39.95 42.55 -29.75 48.1 -24.35 48.3" fill="#333333" fill-rule="evenodd" stroke="none"/>
    <path d="M-7.75 5.3 L-11.1 19.3 34.9 22.8 Q13.6 14.0 -7.75 5.3" fill="#000000" fill-rule="evenodd" stroke="none"/>
    <path d="M-71.95 -14.15 Q-72.75 -11.1 -73.05 -8.15 L-73.25 -6.15 -53.65 1.35 -53.3 -17.9 Q-55.05 -19.4 -57.55 -20.75 -62.55 -23.5 -66.3 -22.85 -70.0 -22.2 -71.95 -14.15" fill="#ffcc33" fill-rule="evenodd" stroke="none"/>
    <path d="M-71.95 -14.15 Q-72.75 -11.1 -73.05 -8.15 L-73.25 -6.15 -53.65 1.35 -53.3 -17.9 Q-55.05 -19.4 -57.55 -20.75 -62.55 -23.5 -66.3 -22.85 -70.0 -22.2 -71.95 -14.15 Z" fill="none" stroke="#856301" stroke-linecap="round" stroke-linejoin="round" stroke-width="2.0"/>
    <path d="M-77.6 9.4 Q-76.85 6.35 -75.8 3.6 L-75.05 1.8 -54.25 4.2 -62.7 21.4 -67.75 22.0 Q-73.45 22.1 -76.45 19.8 -79.5 17.5 -77.6 9.4" fill="#ffcc33" fill-rule="evenodd" stroke="none"/>
    <path d="M-77.6 9.4 Q-76.85 6.35 -75.8 3.6 L-75.05 1.8 -54.25 4.2 -62.7 21.4 -67.75 22.0 Q-73.45 22.1 -76.45 19.8 -79.5 17.5 -77.6 9.4 Z" fill="none" stroke="#856301" stroke-linecap="round" stroke-linejoin="round" stroke-width="2.0"/>
    <path d="M-40.7 3.8 L-74.35 -8.2 -77.2 3.55 -41.75 8.3 -40.7 3.8" fill="#000000" fill-rule="evenodd" stroke="none"/>
    <path d="M-18.25 24.95 Q7.2 31.1 10.3 18.25 13.4 5.4 -12.05 -0.75 -17.3 -2.0 -28.55 0.65 -39.95 3.4 -40.6 6.0 -41.2 8.6 -32.3 16.2 -23.5 23.7 -18.25 24.95" fill="#333333" fill-rule="evenodd" stroke="none"/>
    <path d="M-18.25 24.95 Q7.2 31.1 10.3 18.25 13.4 5.4 -12.05 -0.75 -17.3 -2.0 -28.55 0.65 -39.95 3.4 -40.6 6.0 -41.2 8.6 -32.3 16.2 -23.5 23.7 -18.25 24.95 Z" fill="none" stroke="#000000" stroke-linecap="round" stroke-linejoin="round" stroke-width="2.0"/>
    <path d="M-7.75 5.3 L-11.1 19.3 34.9 22.8 Q13.6 14.0 -7.75 5.3" fill="#000000" fill-rule="evenodd" stroke="none"/>
    <path d="M-71.95 -14.15 Q-72.75 -11.1 -73.05 -8.15 L-73.25 -6.15 -53.65 1.35 -53.3 -17.9 Q-55.05 -19.4 -57.55 -20.75 -62.55 -23.5 -66.3 -22.85 -70.0 -22.2 -71.95 -14.15" fill="#ffcc33" fill-rule="evenodd" stroke="none"/>
    <path d="M-71.95 -14.15 Q-72.75 -11.1 -73.05 -8.15 L-73.25 -6.15 -53.65 1.35 -53.3 -17.9 Q-55.05 -19.4 -57.55 -20.75 -62.55 -23.5 -66.3 -22.85 -70.0 -22.2 -71.95 -14.15 Z" fill="none" stroke="#856301" stroke-linecap="round" stroke-linejoin="round" stroke-width="2.0"/>
    <path d="M-77.6 9.4 Q-76.85 6.35 -75.8 3.6 L-75.05 1.8 -54.25 4.2 -62.7 21.4 -67.75 22.0 Q-73.45 22.1 -76.45 19.8 -79.5 17.5 -77.6 9.4" fill="#ffcc33" fill-rule="evenodd" stroke="none"/>
    <path d="M-77.6 9.4 Q-76.85 6.35 -75.8 3.6 L-75.05 1.8 -54.25 4.2 -62.7 21.4 -67.75 22.0 Q-73.45 22.1 -76.45 19.8 -79.5 17.5 -77.6 9.4 Z" fill="none" stroke="#856301" stroke-linecap="round" stroke-linejoin="round" stroke-width="2.0"/>
    <path d="M-40.7 3.8 L-74.35 -8.2 -77.2 3.55 -41.75 8.3 -40.7 3.8" fill="#000000" fill-rule="evenodd" stroke="none"/>
    <path d="M-18.25 24.95 Q7.2 31.1 10.3 18.25 13.4 5.4 -12.05 -0.75 -17.3 -2.0 -28.55 0.65 -39.95 3.4 -40.6 6.0 -41.2 8.6 -32.3 16.2 -23.5 23.7 -18.25 24.95" fill="#333333" fill-rule="evenodd" stroke="none"/>
    <path d="M-18.25 24.95 Q7.2 31.1 10.3 18.25 13.4 5.4 -12.05 -0.75 -17.3 -2.0 -28.55 0.65 -39.95 3.4 -40.6 6.0 -41.2 8.6 -32.3 16.2 -23.5 23.7 -18.25 24.95 Z" fill="none" stroke="#000000" stroke-linecap="round" stroke-linejoin="round" stroke-width="2.0"/>
    <path d="M-7.75 5.3 L-11.1 19.3 34.9 22.8 Q13.6 14.0 -7.75 5.3" fill="#000000" fill-rule="evenodd" stroke="none"/>
    <path d="M-71.95 -14.15 Q-72.75 -11.1 -73.05 -8.15 L-73.25 -6.15 -53.65 1.35 -53.3 -17.9 Q-55.05 -19.4 -57.55 -20.75 -62.55 -23.5 -66.3 -22.85 -70.0 -22.2 -71.95 -14.15" fill="#ffcc33" fill-rule="evenodd" stroke="none"/>
    <path d="M-71.95 -14.15 Q-72.75 -11.1 -73.05 -8.15 L-73.25 -6.15 -53.65 1.35 -53.3 -17.9 Q-55.05 -19.4 -57.55 -20.75 -62.55 -23.5 -66.3 -22.85 -70.0 -22.2 -71.95 -14.15 Z" fill="none" stroke="#856301" stroke-linecap="round" stroke-linejoin="round" stroke-width="2.0"/>
    <path d="M-77.6 9.4 Q-76.85 6.35 -75.8 3.6 L-75.05 1.8 -54.25 4.2 -62.7 21.4 -67.75 22.0 Q-73.45 22.1 -76.45 19.8 -79.5 17.5 -77.6 9.4" fill="#ffcc33" fill-rule="evenodd" stroke="none"/>
    <path d="M-77.6 9.4 Q-76.85 6.35 -75.8 3.6 L-75.05 1.8 -54.25 4.2 -62.7 21.4 -67.75 22.0 Q-73.45 22.1 -76.45 19.8 -79.5 17.5 -77.6 9.4 Z" fill="none" stroke="#856301" stroke-linecap="round" stroke-linejoin="round" stroke-width="2.0"/>
    <path d="M-40.7 3.8 L-74.35 -8.2 -77.2 3.55 -41.75 8.3 -40.7 3.8" fill="#000000" fill-rule="evenodd" stroke="none"/>
    <path d="M-18.25 24.95 Q7.2 31.1 10.3 18.25 13.4 5.4 -12.05 -0.75 -17.3 -2.0 -28.55 0.65 -39.95 3.4 -40.6 6.0 -41.2 8.6 -32.3 16.2 -23.5 23.7 -18.25 24.95" fill="#333333" fill-rule="evenodd" stroke="none"/>
    <path d="M-18.25 24.95 Q7.2 31.1 10.3 18.25 13.4 5.4 -12.05 -0.75 -17.3 -2.0 -28.55 0.65 -39.95 3.4 -40.6 6.0 -41.2 8.6 -32.3 16.2 -23.5 23.7 -18.25 24.95 Z" fill="none" stroke="#000000" stroke-linecap="round" stroke-linejoin="round" stroke-width="2.0"/>
    <path d="M-7.75 5.3 L-11.1 19.3 34.9 22.8 Q13.6 14.0 -7.75 5.3" fill="#000000" fill-rule="evenodd" stroke="none"/>
    <path d="M-71.95 -14.15 Q-72.75 -11.1 -73.05 -8.15 L-73.25 -6.15 -53.65 1.35 -53.3 -17.9 Q-55.05 -19.4 -57.55 -20.75 -62.55 -23.5 -66.3 -22.85 -70.0 -22.2 -71.95 -14.15" fill="#ffcc33" fill-rule="evenodd" stroke="none"/>
    <path d="M-71.95 -14.15 Q-72.75 -11.1 -73.05 -8.15 L-73.25 -6.15 -53.65 1.35 -53.3 -17.9 Q-55.05 -19.4 -57.55 -20.75 -62.55 -23.5 -66.3 -22.85 -70.0 -22.2 -71.95 -14.15 Z" fill="none" stroke="#856301" stroke-linecap="round" stroke-linejoin="round" stroke-width="2.0"/>
    <path d="M-77.6 9.4 Q-76.85 6.35 -75.8 3.6 L-75.05 1.8 -54.25 4.2 -62.7 21.4 -67.75 22.0 Q-73.45 22.1 -76.45 19.8 -79.5 17.5 -77.6 9.4" fill="#ffcc33" fill-rule="evenodd" stroke="none"/>
    <path d="M-77.6 9.4 Q-76.85 6.35 -75.8 3.6 L-75.05 1.8 -54.25 4.2 -62.7 21.4 -67.75 22.0 Q-73.45 22.1 -76.45 19.8 -79.5 17.5 -77.6 9.4 Z" fill="none" stroke="#856301" stroke-linecap="round" stroke-linejoin="round" stroke-width="2.0"/>
    <path d="M-40.7 3.8 L-74.35 -8.2 -77.2 3.55 -41.75 8.3 -40.7 3.8" fill="#000000" fill-rule="evenodd" stroke="none"/>
    <path d="M-18.25 24.95 Q7.2 31.1 10.3 18.25 13.4 5.4 -12.05 -0.75 -17.3 -2.0 -28.55 0.65 -39.95 3.4 -40.6 6.0 -41.2 8.6 -32.3 16.2 -23.5 23.7 -18.25 24.95" fill="#333333" fill-rule="evenodd" stroke="none"/>
    <path d="M-18.25 24.95 Q7.2 31.1 10.3 18.25 13.4 5.4 -12.05 -0.75 -17.3 -2.0 -28.55 0.65 -39.95 3.4 -40.6 6.0 -41.2 8.6 -32.3 16.2 -23.5 23.7 -18.25 24.95 Z" fill="none" stroke="#000000" stroke-linecap="round" stroke-linejoin="round" stroke-width="2.0"/>
    <path d="M-7.75 5.3 L-11.1 19.3 34.9 22.8 Q13.6 14.0 -7.75 5.3" fill="#000000" fill-rule="evenodd" stroke="none"/>
    <path d="M-71.95 -14.15 Q-72.75 -11.1 -73.05 -8.15 L-73.25 -6.15 -53.65 1.35 -53.3 -17.9 Q-55.05 -19.4 -57.55 -20.75 -62.55 -23.5 -66.3 -22.85 -70.0 -22.2 -71.95 -14.15" fill="#ffcc33" fill-rule="evenodd" stroke="none"/>
    <path d="M-71.95 -14.15 Q-72.75 -11.1 -73.05 -8.15 L-73.25 -6.15 -53.65 1.35 -53.3 -17.9 Q-55.05 -19.4 -57.55 -20.75 -62.55 -23.5 -66.3 -22.85 -70.0 -22.2 -71.95 -14.15 Z" fill="none" stroke="#856301" stroke-linecap="round" stroke-linejoin="round" stroke-width="2.0"/>
    <path d="M-77.6 9.4 Q-76.85 6.35 -75.8 3.6 L-75.05 1.8 -54.25 4.2 -62.7 21.4 -67.75 22.0 Q-73.45 22.1 -76.45 19.8 -79.5 17.5 -77.6 9.4" fill="#ffcc33" fill-rule="evenodd" stroke="none"/>
    <path d="M-77.6 9.4 Q-76.85 6.35 -75.8 3.6 L-75.05 1.8 -54.25 4.2 -62.7 21.4 -67.75 22.0 Q-73.45 22.1 -76.45 19.8 -79.5 17.5 -77.6 9.4 Z" fill="none" stroke="#856301" stroke-linecap="round" stroke-linejoin="round" stroke-width="2.0"/>
    <path d="M-40.7 3.8 L-74.35 -8.2 -77.2 3.55 -41.75 8.3 -40.7 3.8" fill="#000000" fill-rule="evenodd" stroke="none"/>
    <path d="M-18.25 24.95 Q7.2 31.1 10.3 18.25 13.4 5.4 -12.05 -0.75 -17.3 -2.0 -28.55 0.65 -39.95 3.4 -40.6 6.0 -41.2 8.6 -32.3 16.2 -23.5 23.7 -18.25 24.95" fill="#333333" fill-rule="evenodd" stroke="none"/>
    <path d="M-18.25 24.95 Q7.2 31.1 10.3 18.25 13.4 5.4 -12.05 -0.75 -17.3 -2.0 -28.55 0.65 -39.95 3.4 -40.6 6.0 -41.2 8.6 -32.3 16.2 -23.5 23.7 -18.25 24.95 Z" fill="none" stroke="#000000" stroke-linecap="round" stroke-linejoin="round" stroke-width="2.0"/>
    <path d="M-7.75 5.3 L-11.1 19.3 34.9 22.8 Q13.6 14.0 -7.75 5.3" fill="#000000" fill-rule="evenodd" stroke="none"/>
    <path d="M-71.95 -14.15 Q-72.75 -11.1 -73.05 -8.15 L-73.25 -6.15 -53.65 1.35 -53.3 -17.9 Q-55.05 -19.4 -57.55 -20.75 -62.55 -23.5 -66.3 -22.85 -70.0 -22.2 -71.95 -14.15" fill="#ffcc33" fill-rule="evenodd" stroke="none"/>
    <path d="M-71.95 -14.15 Q-72.75 -11.1 -73.05 -8.15 L-73.25 -6.15 -53.65 1.35 -53.3 -17.9 Q-55.05 -19.4 -57.55 -20.75 -62.55 -23.5 -66.3 -22.85 -70.0 -22.2 -71.95 -14.15 Z" fill="none" stroke="#856301" stroke-linecap="round" stroke-linejoin="round" stroke-width="2.0"/>
    <path d="M-77.6 9.4 Q-76.85 6.35 -75.8 3.6 L-75.05 1.8 -54.25 4.2 -62.7 21.4 -67.75 22.0 Q-73.45 22.1 -76.45 19.8 -79.5 17.5 -77.6 9.4" fill="#ffcc33" fill-rule="evenodd" stroke="none"/>
    <path d="M-77.6 9.4 Q-76.85 6.35 -75.8 3.6 L-75.05 1.8 -54.25 4.2 -62.7 21.4 -67.75 22.0 Q-73.45 22.1 -76.45 19.8 -79.5 17.5 -77.6 9.4 Z" fill="none" stroke="#856301" stroke-linecap="round" stroke-linejoin="round" stroke-width="2.0"/>
    <path d="M-40.7 3.8 L-74.35 -8.2 -77.2 3.55 -41.75 8.3 -40.7 3.8" fill="#000000" fill-rule="evenodd" stroke="none"/>
    <path d="M-18.25 24.95 Q7.2 31.1 10.3 18.25 13.4 5.4 -12.05 -0.75 -17.3 -2.0 -28.55 0.65 -39.95 3.4 -40.6 6.0 -41.2 8.6 -32.3 16.2 -23.5 23.7 -18.25 24.95" fill="#333333" fill-rule="evenodd" stroke="none"/>
    <path d="M-18.25 24.95 Q7.2 31.1 10.3 18.25 13.4 5.4 -12.05 -0.75 -17.3 -2.0 -28.55 0.65 -39.95 3.4 -40.6 6.0 -41.2 8.6 -32.3 16.2 -23.5 23.7 -18.25 24.95 Z" fill="none" stroke="#000000" stroke-linecap="round" stroke-linejoin="round" stroke-width="2.0"/>
    <path d="M-7.75 5.3 L-11.1 19.3 34.9 22.8 Q13.6 14.0 -7.75 5.3" fill="#000000" fill-rule="evenodd" stroke="none"/>
    <path d="M-71.95 -14.15 Q-72.75 -11.1 -73.05 -8.15 L-73.25 -6.15 -53.65 1.35 -53.3 -17.9 Q-55.05 -19.4 -57.55 -20.75 -62.55 -23.5 -66.3 -22.85 -70.0 -22.2 -71.95 -14.15" fill="#ffcc33" fill-rule="evenodd" stroke="none"/>
    <path d="M-71.95 -14.15 Q-72.75 -11.1 -73.05 -8.15 L-73.25 -6.15 -53.65 1.35 -53.3 -17.9 Q-55.05 -19.4 -57.55 -20.75 -62.55 -23.5 -66.3 -22.85 -70.0 -22.2 -71.95 -14.15 Z" fill="none" stroke="#856301" stroke-linecap="round" stroke-linejoin="round" stroke-width="2.0"/>
    <path d="M-77.6 9.4 Q-76.85 6.35 -75.8 3.6 L-75.05 1.8 -54.25 4.2 -62.7 21.4 -67.75 22.0 Q-73.45 22.1 -76.45 19.8 -79.5 17.5 -77.6 9.4" fill="#ffcc33" fill-rule="evenodd" stroke="none"/>
    <path d="M-77.6 9.4 Q-76.85 6.35 -75.8 3.6 L-75.05 1.8 -54.25 4.2 -62.7 21.4 -67.75 22.0 Q-73.45 22.1 -76.45 19.8 -79.5 17.5 -77.6 9.4 Z" fill="none" stroke="#856301" stroke-linecap="round" stroke-linejoin="round" stroke-width="2.0"/>
    <path d="M-40.7 3.8 L-74.35 -8.2 -77.2 3.55 -41.75 8.3 -40.7 3.8" fill="#000000" fill-rule="evenodd" stroke="none"/>
    <path d="M-18.25 24.95 Q7.2 31.1 10.3 18.25 13.4 5.4 -12.05 -0.75 -17.3 -2.0 -28.55 0.65 -39.95 3.4 -40.6 6.0 -41.2 8.6 -32.3 16.2 -23.5 23.7 -18.25 24.95" fill="#333333" fill-rule="evenodd" stroke="none"/>
    <path d="M-18.25 24.95 Q7.2 31.1 10.3 18.25 13.4 5.4 -12.05 -0.75 -17.3 -2.0 -28.55 0.65 -39.95 3.4 -40.6 6.0 -41.2 8.6 -32.3 16.2 -23.5 23.7 -18.25 24.95 Z" fill="none" stroke="#000000" stroke-linecap="round" stroke-linejoin="round" stroke-width="2.0"/>
    <path d="M-7.75 5.3 L-11.1 19.3 34.9 22.8 Q13.6 14.0 -7.75 5.3" fill="#000000" fill-rule="evenodd" stroke="none"/>
    <path d="M-71.95 -14.15 Q-72.75 -11.1 -73.05 -8.15 L-73.25 -6.15 -53.65 1.35 -53.3 -17.9 Q-55.05 -19.4 -57.55 -20.75 -62.55 -23.5 -66.3 -22.85 -70.0 -22.2 -71.95 -14.15" fill="#ffcc33" fill-rule="evenodd" stroke="none"/>
    <path d="M-71.95 -14.15 Q-72.75 -11.1 -73.05 -8.15 L-73.25 -6.15 -53.65 1.35 -53.3 -17.9 Q-55.05 -19.4 -57.55 -20.75 -62.55 -23.5 -66.3 -22.85 -70.0 -22.2 -71.95 -14.15 Z" fill="none" stroke="#856301" stroke-linecap="round" stroke-linejoin="round" stroke-width="2.0"/>
    <path d="M-77.6 9.4 Q-76.85 6.35 -75.8 3.6 L-75.05 1.8 -54.25 4.2 -62.7 21.4 -67.75 22.0 Q-73.45 22.1 -76.45 19.8 -79.5 17.5 -77.6 9.4" fill="#ffcc33" fill-rule="evenodd" stroke="none"/>
    <path d="M-77.6 9.4 Q-76.85 6.35 -75.8 3.6 L-75.05 1.8 -54.25 4.2 -62.7 21.4 -67.75 22.0 Q-73.45 22.1 -76.45 19.8 -79.5 17.5 -77.6 9.4 Z" fill="none" stroke="#856301" stroke-linecap="round" stroke-linejoin="round" stroke-width="2.0"/>
    <path d="M-40.7 3.8 L-74.35 -8.2 -77.2 3.55 -41.75 8.3 -40.7 3.8" fill="#000000" fill-rule="evenodd" stroke="none"/>
    <path d="M-18.25 24.95 Q7.2 31.1 10.3 18.25 13.4 5.4 -12.05 -0.75 -17.3 -2.0 -28.55 0.65 -39.95 3.4 -40.6 6.0 -41.2 8.6 -32.3 16.2 -23.5 23.7 -18.25 24.95" fill="#333333" fill-rule="evenodd" stroke="none"/>
    <path d="M-18.25 24.95 Q7.2 31.1 10.3 18.25 13.4 5.4 -12.05 -0.75 -17.3 -2.0 -28.55 0.65 -39.95 3.4 -40.6 6.0 -41.2 8.6 -32.3 16.2 -23.5 23.7 -18.25 24.95 Z" fill="none" stroke="#000000" stroke-linecap="round" stroke-linejoin="round" stroke-width="9.0"/>
    <path d="M-18.25 24.95 Q7.2 31.1 10.3 18.25 13.4 5.4 -12.05 -0.75 -17.3 -2.0 -28.55 0.65 -39.95 3.4 -40.6 6.0 -41.2 8.6 -32.3 16.2 -23.5 23.7 -18.25 24.95" fill="#333333" fill-rule="evenodd" stroke="none"/>
    <path d="M-14.2 -15.4 L19.8 -22.95 66.3 54.05 11.8 57.7 Q-44.15 60.0 -51.5 53.3 -55.15 49.95 -55.85 41.35 -54.75 44.7 -52.75 46.55 -50.15 48.95 -44.55 50.7 -37.75 52.9 -33.85 50.95 -31.75 49.9 -29.85 40.2 -28.1 31.15 -27.25 18.55 -25.85 -2.55 -27.55 -12.4 L-14.2 -15.4" fill="#666666" fill-rule="evenodd" stroke="none"/>
    <path d="M-71.6 -5.8 Q-79.3 -11.2 -83.6 -17.95 -88.4 -25.45 -87.8 -33.0 -86.7 -46.3 -73.85 -47.1 -67.45 -47.5 -61.25 -45.25 L-31.5 -8.45 Q-30.8 -6.95 -31.95 -4.9 -34.2 -0.75 -43.25 2.05 -48.6 3.7 -56.55 1.45 -64.35 -0.75 -71.6 -5.8" fill="#ffffff" fill-rule="evenodd" stroke="none"/>
    <path d="M-71.6 -5.8 Q-64.35 -0.75 -56.55 1.45 -48.6 3.7 -43.25 2.05 -34.2 -0.75 -31.95 -4.9 -30.8 -6.95 -31.5 -8.45 L-61.25 -45.25 Q-67.45 -47.5 -73.85 -47.1 -86.7 -46.3 -87.8 -33.0 -88.4 -25.45 -83.6 -17.95 -79.3 -11.2 -71.6 -5.8 Z" fill="none" stroke="#3c190a" stroke-linecap="square" stroke-linejoin="miter" stroke-miterlimit="3.0" stroke-width="9.0"/>
    <path d="M-71.6 -5.8 Q-79.3 -11.2 -83.6 -17.95 -88.4 -25.45 -87.8 -33.0 -86.7 -46.3 -73.85 -47.1 -67.45 -47.5 -61.25 -45.25 L-31.5 -8.45 Q-30.8 -6.95 -31.95 -4.9 -34.2 -0.75 -43.25 2.05 -48.6 3.7 -56.55 1.45 -64.35 -0.75 -71.6 -5.8" fill="#70381f" fill-rule="evenodd" stroke="none"/>
    <path d="M-71.6 -5.8 Q-75.5 -8.55 -78.55 -11.6 -79.0 -14.3 -78.8 -17.0 -77.7 -30.3 -64.85 -31.1 -58.45 -31.5 -52.25 -29.25 L-32.2 -4.45 Q-34.7 -0.6 -43.25 2.05 -48.6 3.7 -56.55 1.45 -64.35 -0.75 -71.6 -5.8" fill="#bf7926" fill-rule="evenodd" stroke="none"/>
    <path d="M165.95 -240.25 Q164.65 -156.6 88.7 -111.2 142.6 -178.9 132.2 -256.75 L165.95 -240.25" fill="#ffffff" fill-rule="evenodd" stroke="none"/>
    <path d="M165.95 -240.25 Q164.65 -156.6 88.7 -111.2 142.6 -178.9 132.2 -256.75 L165.95 -240.25 Z" fill="none" stroke="#000000" stroke-linecap="square" stroke-linejoin="miter" stroke-miterlimit="3.0" stroke-width="9.0"/>
    <path d="M207.45 -193.35 Q170.8 -100.6 86.95 -112.55 164.65 -148.45 187.2 -221.1 L207.45 -193.35" fill="#ffffff" fill-rule="evenodd" stroke="none"/>
    <path d="M207.45 -193.35 L187.2 -221.1 Q164.65 -148.45 86.95 -112.55 170.8 -100.6 207.45 -193.35 Z" fill="none" stroke="#000000" stroke-linecap="square" stroke-linejoin="miter" stroke-miterlimit="3.0" stroke-width="9.0"/>
    <path d="M165.95 -240.25 Q164.65 -156.6 88.7 -111.2 142.6 -178.9 132.2 -256.75 L165.95 -240.25" fill="#30363f" fill-rule="evenodd" stroke="none"/>
    <path d="M207.45 -193.35 Q170.8 -100.6 86.95 -112.55 164.65 -148.45 187.2 -221.1 L207.45 -193.35" fill="#30363f" fill-rule="evenodd" stroke="none"/>
    <path d="M197.55 -111.35 L178.9 -101.85 165.25 -120.05 185.8 -138.85 197.55 -111.35 M139.2 -101.35 L157.45 -121.95 183.4 -91.6 167.85 -83.1 157.05 -96.1 168.45 -76.85 155.8 -70.7 171.6 -75.45 167.95 -81.2 171.95 -83.45 192.85 -56.35 Q183.85 -49.1 176.55 -43.9 137.8 -16.5 88.15 1.65 L76.5 -13.85 Q117.05 -44.8 131.65 -69.3 142.2 -87.0 139.2 -101.35 M173.8 -84.45 L186.65 -91.45 180.9 -99.2 192.5 -104.85 197.7 -83.1 180.3 -75.85 173.8 -84.45" fill="#ffffff" fill-rule="evenodd" stroke="none"/>
    <path d="M197.55 -111.35 L178.9 -101.85 165.25 -120.05 185.8 -138.85 197.55 -111.35 M139.2 -101.35 L157.45 -121.95 183.4 -91.6 167.85 -83.1 157.05 -96.1 168.45 -76.85 155.8 -70.7 171.6 -75.45 167.95 -81.2 171.95 -83.45 192.85 -56.35 Q183.85 -49.1 176.55 -43.9 137.8 -16.5 88.15 1.65 L76.5 -13.85 Q117.05 -44.8 131.65 -69.3 142.2 -87.0 139.2 -101.35 M173.8 -84.45 L186.65 -91.45 180.9 -99.2 192.5 -104.85 197.7 -83.1 180.3 -75.85 173.8 -84.45" fill="none" stroke="#3c190a" stroke-linecap="square" stroke-linejoin="miter" stroke-miterlimit="3.0" stroke-width="9.0"/>
    <path d="M197.55 -111.35 L178.9 -101.85 165.25 -120.05 185.8 -138.85 197.55 -111.35 M139.2 -101.35 L157.45 -121.95 183.4 -91.6 167.85 -83.1 157.05 -96.1 168.45 -76.85 155.8 -70.7 171.6 -75.45 167.95 -81.2 171.95 -83.45 192.85 -56.35 Q183.85 -49.1 176.55 -43.9 137.8 -16.5 88.15 1.65 L76.5 -13.85 Q117.05 -44.8 131.65 -69.3 142.2 -87.0 139.2 -101.35 M173.8 -84.45 L186.65 -91.45 180.9 -99.2 192.5 -104.85 197.7 -83.1 180.3 -75.85 173.8 -84.45" fill="#70381f" fill-rule="evenodd" stroke="none"/>
    <path d="M197.55 -111.35 L178.9 -101.85 165.25 -120.05 185.8 -138.85 197.55 -111.35 M139.2 -101.35 L157.45 -121.95 183.4 -91.6 167.85 -83.1 157.05 -96.1 168.45 -76.85 155.8 -70.7 171.6 -75.45 167.95 -81.2 171.95 -83.45 192.85 -56.35 Q183.85 -49.1 176.55 -43.9 L176.2 -43.7 154.55 -43.45 155.8 -55.95 143.05 -44.7 150.05 -65.2 132.05 -57.2 129.8 -66.35 131.65 -69.3 Q142.2 -87.0 139.2 -101.35 M173.8 -84.45 L186.65 -91.45 180.9 -99.2 192.5 -104.85 197.7 -83.1 180.3 -75.85 173.8 -84.45" fill="#bf7926" fill-rule="evenodd" stroke="none"/>
    <path d="M210.8 -66.15 L191.55 -54.15 179.3 -73.6 205.4 -84.8 208.2 -75.45 210.8 -66.15" fill="#ffffff" fill-rule="evenodd" stroke="none"/>
    <path d="M210.8 -66.15 L208.2 -75.45 205.4 -84.8 179.3 -73.6 191.55 -54.15 210.8 -66.15 Z" fill="none" stroke="#3c190a" stroke-linecap="square" stroke-linejoin="miter" stroke-miterlimit="3.0" stroke-width="9.0"/>
    <path d="M210.8 -66.15 L191.55 -54.15 179.3 -73.6 205.4 -84.8 208.2 -75.45 210.8 -66.15" fill="#bf7926" fill-rule="evenodd" stroke="none"/>
    <path d="M127.55 -36.95 Q139.75 -46.0 158.6 -14.75 168.05 0.85 175.05 18.3 L173.55 33.85 Q177.95 22.45 177.3 1.65 177.05 -6.2 174.3 -34.45 L197.05 -41.95 Q206.35 -24.5 199.05 -5.2 207.5 -15.2 205.05 -29.45 L228.05 -12.45 Q213.8 29.55 187.55 65.05 L175.55 62.55 Q168.0 45.0 161.65 34.45 157.45 27.45 144.55 9.55 L122.55 85.55 Q142.85 144.6 169.0 173.2 193.25 199.7 226.1 203.6 L199.05 234.6 175.8 209.6 190.55 228.85 171.55 240.1 124.05 188.6 Q116.55 84.35 -23.0 -3.95 L66.0 -26.45 108.55 9.05 Q106.75 23.25 104.9 30.8 102.05 42.3 97.05 50.05 103.15 46.4 106.75 33.9 108.9 26.5 111.85 7.9 114.75 -10.65 117.1 -18.8 121.05 -32.1 127.55 -36.95" fill="#ffffff" fill-rule="evenodd" stroke="none"/>
    <path d="M127.55 -36.95 Q139.75 -46.0 158.6 -14.75 168.05 0.85 175.05 18.3 L173.55 33.85 Q177.95 22.45 177.3 1.65 177.05 -6.2 174.3 -34.45 L197.05 -41.95 Q206.35 -24.5 199.05 -5.2 207.5 -15.2 205.05 -29.45 L228.05 -12.45 Q213.8 29.55 187.55 65.05 L175.55 62.55 Q168.0 45.0 161.65 34.45 157.45 27.45 144.55 9.55 L122.55 85.55 Q142.85 144.6 169.0 173.2 193.25 199.7 226.1 203.6 L199.05 234.6 175.8 209.6 190.55 228.85 171.55 240.1 124.05 188.6 Q116.55 84.35 -23.0 -3.95 L66.0 -26.45 108.55 9.05 Q106.75 23.25 104.9 30.8 102.05 42.3 97.05 50.05 103.15 46.4 106.75 33.9 108.9 26.5 111.85 7.9 114.75 -10.65 117.1 -18.8 121.05 -32.1 127.55 -36.95 Z" fill="none" stroke="#3c190a" stroke-linecap="square" stroke-linejoin="miter" stroke-miterlimit="3.0" stroke-width="9.0"/>
    <path d="M127.55 -36.95 Q139.75 -46.0 158.6 -14.75 168.05 0.85 175.05 18.3 L173.55 33.85 Q177.95 22.45 177.3 1.65 177.05 -6.2 174.3 -34.45 L197.05 -41.95 Q206.35 -24.5 199.05 -5.2 207.5 -15.2 205.05 -29.45 L228.05 -12.45 Q213.8 29.55 187.55 65.05 L175.55 62.55 Q168.0 45.0 161.65 34.45 157.45 27.45 144.55 9.55 L122.55 85.55 Q142.85 144.6 169.0 173.2 193.25 199.7 226.1 203.6 L199.05 234.6 175.8 209.6 190.55 228.85 171.55 240.1 124.05 188.6 Q116.55 84.35 -23.0 -3.95 L66.0 -26.45 108.55 9.05 Q106.75 23.25 104.9 30.8 102.05 42.3 97.05 50.05 103.15 46.4 106.75 33.9 108.9 26.5 111.85 7.9 114.75 -10.65 117.1 -18.8 121.05 -32.1 127.55 -36.95" fill="#70381f" fill-rule="evenodd" stroke="none"/>
    <path d="M104.9 30.8 Q103.3 37.3 101.0 42.6 L93.8 43.1 Q86.25 42.65 72.75 33.5 59.35 24.4 42.8 8.55 34.45 0.55 20.55 -8.6 L12.75 -13.45 13.3 -13.1 66.0 -26.45 108.55 9.05 Q106.75 23.25 104.9 30.8" fill="#bf7926" fill-rule="evenodd" stroke="none"/>
    <path d="M199.05 -5.2 Q207.5 -15.2 205.05 -29.45 L228.05 -12.45 Q213.8 29.55 187.55 65.05 L175.55 62.55 Q171.1 52.25 166.25 42.4 L164.05 31.55 172.3 37.3 171.05 22.3 174.65 22.5 173.55 33.85 Q177.95 22.45 177.3 1.65 177.05 -6.2 174.3 -34.45 L197.05 -41.95 Q206.35 -24.5 199.05 -5.2" fill="#bf7926" fill-rule="evenodd" stroke="none"/>
    <path d="M119.0 158.35 L133.2 167.05 135.45 150.8 149.2 160.55 153.4 152.6 Q160.9 164.35 169.0 173.2 190.2 196.4 218.05 202.25 L213.9 201.05 Q219.9 202.85 226.1 203.6 L199.05 234.6 175.8 209.6 190.55 228.85 171.55 240.1 124.05 188.6 Q122.95 173.3 119.0 158.35" fill="#bf7926" fill-rule="evenodd" stroke="none"/>
    <path d="M-14.8 -245.2 Q-10.95 -244.95 -6.2 -240.2 -3.8 -237.85 -2.2 -235.5 7.15 -238.8 15.3 -235.7 22.95 -232.8 31.2 -223.55 L20.65 -206.55 Q10.35 -214.55 -1.75 -213.45 -21.9 -194.9 -29.55 -172.7 L-69.1 -134.25 Q-90.75 -222.35 -3.45 -285.3 L8.0 -273.05 -6.25 -254.75 Q15.65 -273.05 40.2 -269.45 L41.95 -249.1 Q25.85 -251.4 11.35 -244.35 38.45 -252.05 46.55 -239.55 L46.95 -227.75 30.95 -227.75 Q16.2 -241.7 -2.0 -237.9 -2.75 -240.05 -4.75 -242.25 -8.65 -246.8 -14.55 -247.4 -20.45 -247.95 -24.35 -243.1 -25.5 -241.65 -26.45 -239.8 L-27.0 -238.15 -23.2 -241.85 Q-18.6 -245.4 -14.8 -245.2" fill="#ffffff" fill-rule="evenodd" stroke="none"/>
    <path d="M-14.8 -245.2 Q-10.95 -244.95 -6.2 -240.2 -3.8 -237.85 -2.2 -235.5 7.15 -238.8 15.3 -235.7 22.95 -232.8 31.2 -223.55 L20.65 -206.55 Q10.35 -214.55 -1.75 -213.45 -21.9 -194.9 -29.55 -172.7 L-69.1 -134.25 Q-90.75 -222.35 -3.45 -285.3 L8.0 -273.05 -6.25 -254.75 Q15.65 -273.05 40.2 -269.45 L41.95 -249.1 Q25.85 -251.4 11.35 -244.35 38.45 -252.05 46.55 -239.55 L46.95 -227.75 30.95 -227.75 Q16.2 -241.7 -2.0 -237.9 -2.75 -240.05 -4.75 -242.25 -8.65 -246.8 -14.55 -247.4 -20.45 -247.95 -24.35 -243.1 -25.5 -241.65 -26.45 -239.8 L-27.0 -238.15 -23.2 -241.85 Q-18.6 -245.4 -14.8 -245.2 Z" fill="none" stroke="#3c190a" stroke-linecap="square" stroke-linejoin="miter" stroke-miterlimit="3.0" stroke-width="9.0"/>
    <path d="M-14.8 -245.2 Q-10.95 -244.95 -6.2 -240.2 -3.8 -237.85 -2.2 -235.5 7.15 -238.8 15.3 -235.7 22.95 -232.8 31.2 -223.55 L20.65 -206.55 Q10.35 -214.55 -1.75 -213.45 -21.9 -194.9 -29.55 -172.7 L-69.1 -134.25 Q-90.75 -222.35 -3.45 -285.3 L8.0 -273.05 -6.25 -254.75 Q15.65 -273.05 40.2 -269.45 L41.95 -249.1 Q25.85 -251.4 11.35 -244.35 38.45 -252.05 46.55 -239.55 L46.95 -227.75 30.95 -227.75 Q16.2 -241.7 -2.0 -237.9 -2.75 -240.05 -4.75 -242.25 -8.65 -246.8 -14.55 -247.4 -20.45 -247.95 -24.35 -243.1 -25.5 -241.65 -26.45 -239.8 L-27.0 -238.15 -23.2 -241.85 Q-18.6 -245.4 -14.8 -245.2" fill="#70381f" fill-rule="evenodd" stroke="none"/>
    <path d="M-52.05 -216.5 L-53.5 -234.65 Q-36.1 -261.75 -3.45 -285.3 L8.0 -273.05 -6.25 -254.75 Q15.65 -273.05 40.2 -269.45 L41.95 -249.1 Q25.85 -251.4 11.35 -244.35 38.45 -252.05 46.55 -239.55 L46.95 -227.75 30.95 -227.75 Q16.2 -241.7 -2.0 -237.9 -2.75 -240.05 -4.75 -242.25 -8.65 -246.8 -14.55 -247.4 -20.45 -247.95 -24.35 -243.1 -25.5 -241.65 -26.45 -239.8 L-27.0 -238.15 -23.2 -241.85 Q-18.6 -245.4 -14.8 -245.2 -10.95 -244.95 -6.2 -240.2 -3.8 -237.85 -2.2 -235.5 7.15 -238.8 15.3 -235.7 22.95 -232.8 31.2 -223.55 L20.65 -206.55 Q10.35 -214.55 -1.75 -213.45 -8.7 -207.05 -14.1 -200.3 L-21.3 -199.45 -14.5 -219.15 -32.95 -207.45 -31.65 -223.1 -52.05 -216.5" fill="#bf7926" fill-rule="evenodd" stroke="none"/>
    <path d="M60.65 -220.3 Q39.15 -203.75 34.05 -182.5 51.25 -213.7 82.6 -222.05 L93.9 -193.5 Q63.8 -196.6 36.6 -181.1 L46.3 -179.05 Q67.9 -173.6 79.5 -164.0 89.85 -155.4 94.8 -132.3 99.05 -112.4 98.7 -85.3 L98.7 -83.6 Q102.85 -87.55 108.05 -89.8 120.5 -95.2 128.1 -83.65 132.4 -77.1 131.6 -67.95 130.9 -59.8 126.35 -51.25 122.0 -43.15 115.8 -37.45 109.45 -31.6 103.65 -30.55 L92.65 -30.2 Q89.65 -17.45 86.0 -12.95 81.3 -7.15 67.4 -1.65 54.45 3.45 37.65 6.8 20.75 10.15 6.55 10.4 -8.8 10.65 -16.0 7.05 -25.55 2.3 -36.9 -7.6 -51.45 -20.3 -61.55 -35.75 -89.75 -78.65 -74.5 -126.95 -66.25 -153.15 -44.65 -167.65 -26.05 -180.15 0.25 -182.6 15.35 -184.05 30.45 -182.05 17.1 -202.8 26.5 -227.2 L60.65 -220.3" fill="#ffffff" fill-rule="evenodd" stroke="none"/>
    <path d="M60.65 -220.3 Q39.15 -203.75 34.05 -182.5 51.25 -213.7 82.6 -222.05 L93.9 -193.5 Q63.8 -196.6 36.6 -181.1 L46.3 -179.05 Q67.9 -173.6 79.5 -164.0 89.85 -155.4 94.8 -132.3 99.05 -112.4 98.7 -85.3 L98.7 -83.6 Q102.85 -87.55 108.05 -89.8 120.5 -95.2 128.1 -83.65 132.4 -77.1 131.6 -67.95 130.9 -59.8 126.35 -51.25 122.0 -43.15 115.8 -37.45 109.45 -31.6 103.65 -30.55 L92.65 -30.2 Q89.65 -17.45 86.0 -12.95 81.3 -7.15 67.4 -1.65 54.45 3.45 37.65 6.8 20.75 10.15 6.55 10.4 -8.8 10.65 -16.0 7.05 -25.55 2.3 -36.9 -7.6 -51.45 -20.3 -61.55 -35.75 -89.75 -78.65 -74.5 -126.95 -66.25 -153.15 -44.65 -167.65 -26.05 -180.15 0.25 -182.6 15.35 -184.05 30.45 -182.05 17.1 -202.8 26.5 -227.2 L60.65 -220.3 Z" fill="none" stroke="#3c190a" stroke-linecap="square" stroke-linejoin="miter" stroke-miterlimit="3.0" stroke-width="9.0"/>
    <path d="M126.35 -51.25 Q130.9 -59.8 131.6 -67.95 132.4 -77.1 128.1 -83.65 120.5 -95.2 108.05 -89.8 101.85 -87.1 97.15 -82.1 L87.4 -34.5 Q87.5 -32.8 89.6 -31.45 93.75 -28.75 103.65 -30.55 109.45 -31.6 115.8 -37.45 122.0 -43.15 126.35 -51.25" fill="#70381f" fill-rule="evenodd" stroke="none"/>
    <path d="M120.85 -55.6 Q120.15 -47.45 115.6 -38.8 L113.8 -35.65 Q108.5 -31.4 103.65 -30.55 93.75 -28.75 89.6 -31.45 87.5 -32.75 87.4 -34.45 L96.1 -76.9 97.3 -77.45 Q109.75 -82.85 117.35 -71.25 121.65 -64.7 120.85 -55.6" fill="#bf7926" fill-rule="evenodd" stroke="none"/>
    <path d="M171.25 48.55 Q139.95 94.75 105.35 123.25 56.9 163.2 8.7 162.15 -51.55 160.8 -107.95 95.05 -157.35 37.65 -137.95 -74.15 -130.75 -115.7 -114.55 -160.8 -101.8 -196.35 -86.8 -225.55 -109.55 -157.55 -113.2 -94.35 -118.4 -5.65 -80.45 37.75 -23.2 103.5 38.9 105.15 88.6 106.5 139.1 66.95 167.25 44.95 193.45 12.25 185.05 28.2 171.25 48.55" fill="#ffffff" fill-rule="evenodd" stroke="none"/>
    <path d="M60.65 -220.3 Q36.95 -202.05 33.15 -178.2 16.2 -200.5 26.5 -227.2 L60.65 -220.3" fill="#70381f" fill-rule="evenodd" stroke="none"/>
    <path d="M93.9 -193.5 Q61.1 -196.9 31.75 -178.2 49.1 -213.15 82.6 -222.05 L93.9 -193.5" fill="#70381f" fill-rule="evenodd" stroke="none"/>
    <path d="M94.8 -132.3 Q99.05 -112.4 98.7 -85.3 98.35 -60.95 94.6 -39.85 90.9 -19.0 86.0 -12.95 81.3 -7.15 67.4 -1.65 54.45 3.45 37.65 6.8 20.75 10.15 6.55 10.4 -8.8 10.65 -16.0 7.05 -25.55 2.3 -36.9 -7.6 -51.45 -20.3 -61.55 -35.75 -89.75 -78.65 -74.5 -126.95 -66.25 -153.15 -44.65 -167.65 -26.05 -180.15 0.25 -182.6 23.3 -184.8 46.3 -179.05 67.9 -173.6 79.5 -164.0 89.85 -155.4 94.8 -132.3" fill="#70381f" fill-rule="evenodd" stroke="none"/>
    <path d="M96.15 -49.55 Q90.25 -40.15 76.35 -33.4 69.85 -30.25 62.3 -28.0 L56.05 -26.45 Q61.05 -13.6 69.45 -2.45 L67.4 -1.65 Q54.45 3.45 37.65 6.8 20.75 10.15 6.55 10.4 L-6.55 9.75 Q-8.55 -0.1 -6.95 -11.45 -11.05 -8.2 -17.1 -6.15 -26.85 -2.8 -35.0 -6.0 L-36.9 -7.6 Q-51.45 -20.3 -61.55 -35.75 -69.2 -47.35 -73.6 -59.35 L97.3 -116.65 Q98.9 -102.4 98.7 -85.3 98.45 -66.45 96.15 -49.55" fill="#bf7926" fill-rule="evenodd" stroke="none"/>
    <path d="M-30.2 -19.6 Q-34.5 -23.4 -36.55 -30.1 -38.55 -36.8 -37.15 -42.45 -35.7 -48.0 -31.65 -49.25 -27.6 -50.5 -23.25 -46.65 -18.95 -42.8 -16.95 -36.1 -14.9 -29.4 -16.3 -23.8 -17.75 -18.2 -21.8 -16.95 -25.85 -15.7 -30.2 -19.6" fill="#000000" fill-rule="evenodd" stroke="none"/>
    <path d="M49.8 -43.35 Q45.5 -47.15 43.45 -53.85 41.45 -60.55 42.85 -66.2 44.3 -71.75 48.35 -73.0 52.4 -74.25 56.75 -70.4 61.05 -66.55 63.05 -59.85 65.1 -53.15 63.7 -47.55 62.25 -41.95 58.2 -40.7 54.15 -39.45 49.8 -43.35" fill="#000000" fill-rule="evenodd" stroke="none"/>
    <path d="M49.4 -51.0 Q47.15 -53.0 46.1 -56.45 45.05 -59.9 45.8 -62.75 46.5 -65.65 48.6 -66.3 50.7 -66.95 52.9 -64.95 55.15 -63.0 56.2 -59.55 57.25 -56.1 56.5 -53.2 55.75 -50.35 53.65 -49.7 51.55 -49.05 49.4 -51.0" fill="#ffffff" fill-rule="evenodd" stroke="none"/>
    <path d="M-27.6 -30.95 Q-29.85 -32.95 -30.9 -36.4 -31.95 -39.85 -31.2 -42.7 -30.5 -45.6 -28.4 -46.25 -26.3 -46.9 -24.1 -44.9 -21.85 -42.95 -20.8 -39.5 -19.75 -36.05 -20.5 -33.15 -21.25 -30.3 -23.35 -29.65 -25.45 -29.0 -27.6 -30.95" fill="#ffffff" fill-rule="evenodd" stroke="none"/>
    <path d="M94.8 -132.3 Q98.2 -116.35 98.65 -95.7 25.55 -34.5 -68.6 -47.85 -78.8 -68.05 -79.75 -89.35 16.5 -79.45 93.6 -137.5 L94.8 -132.3" fill="#30363f" fill-rule="evenodd" stroke="none"/>
    <path d="M46.5 -109.2 L46.2 -109.65 Q55.05 -96.95 55.05 -80.5 55.05 -72.75 53.1 -65.8 13.45 -46.35 -31.4 -45.5 -45.0 -60.1 -45.0 -80.5 -45.0 -84.35 -44.5 -88.0 3.55 -89.45 46.5 -109.2" fill="#ff0000" fill-rule="evenodd" stroke="none"/>
    <path d="M1.55 -20.1 Q1.65 -22.6 4.05 -25.3 6.5 -27.95 10.4 -29.75 19.95 -34.15 28.9 -30.0 37.3 -26.05 42.7 -16.65 46.7 -9.55 46.95 -4.4 47.1 -1.25 31.0 2.9 14.85 7.05 15.6 4.75 17.15 -0.1 9.6 -8.5 L4.05 -14.7 Q1.5 -18.0 1.55 -20.1" fill="#8a1d00" fill-rule="evenodd" stroke="none"/>
    <path d="M46.95 -4.4 Q47.1 -1.25 31.0 2.9 22.65 5.05 18.8 5.5 20.2 0.3 24.3 -3.9 30.6 -10.3 39.45 -10.75 L45.7 -10.2 Q46.8 -7.05 46.95 -4.4" fill="#d74533" fill-rule="evenodd" stroke="none"/>
    <path d="M-62.3 183.7 L-80.9 169.35 -116.7 235.55 -62.3 183.7" fill="#000000" fill-rule="evenodd" stroke="none"/>
    <path d="M9.4 100.95 Q5.35 97.8 1.15 95.4 L-1.65 93.8 -25.85 117.95 2.55 131.2 Q5.9 129.6 9.65 126.8 17.05 121.25 18.6 115.25 20.1 109.25 9.4 100.95" fill="#ffcc33" fill-rule="evenodd" stroke="none"/>
    <path d="M9.4 100.95 Q5.35 97.8 1.15 95.4 L-1.65 93.8 -25.85 117.95 2.55 131.2 Q5.9 129.6 9.65 126.8 17.05 121.25 18.6 115.25 20.1 109.25 9.4 100.95 Z" fill="none" stroke="#856301" stroke-linecap="round" stroke-linejoin="round" stroke-width="4.0"/>
    <path d="M-22.0 77.0 Q-18.0 80.15 -14.6 83.6 L-12.35 85.85 -29.75 115.25 -49.75 91.15 Q-49.05 87.55 -47.25 83.25 -43.7 74.75 -38.2 71.75 -32.8 68.75 -22.0 77.0" fill="#ffcc33" fill-rule="evenodd" stroke="none"/>
    <path d="M-22.0 77.0 Q-18.0 80.15 -14.6 83.6 L-12.35 85.85 -29.75 115.25 -49.75 91.15 Q-49.05 87.55 -47.25 83.25 -43.7 74.75 -38.2 71.75 -32.8 68.75 -22.0 77.0 Z" fill="none" stroke="#856301" stroke-linecap="round" stroke-linejoin="round" stroke-width="4.0"/>
    <path d="M-38.05 135.65 L2.1 93.45 -13.45 81.45 -44.05 131.05 -38.05 135.65" fill="#000000" fill-rule="evenodd" stroke="none"/>
    <path d="M-84.55 154.95 Q-110.6 188.75 -93.5 201.9 -76.45 215.05 -50.4 181.25 -45.05 174.3 -41.5 155.7 -37.95 137.0 -41.4 134.35 -44.85 131.7 -62.15 139.8 -79.2 148.0 -84.55 154.95" fill="#333333" fill-rule="evenodd" stroke="none"/>
    <path d="M-84.55 154.95 Q-110.6 188.75 -93.5 201.9 -76.45 215.05 -50.4 181.25 -45.05 174.3 -41.5 155.7 -37.95 137.0 -41.4 134.35 -44.85 131.7 -62.15 139.8 -79.2 148.0 -84.55 154.95 Z" fill="none" stroke="#000000" stroke-linecap="round" stroke-linejoin="round" stroke-width="2.0"/>
    <path d="M-62.3 183.7 L-80.9 169.35 -116.7 235.55 -62.3 183.7" fill="#000000" fill-rule="evenodd" stroke="none"/>
    <path d="M-84.55 154.95 Q-110.6 188.75 -93.5 201.9 -76.45 215.05 -50.4 181.25 -45.05 174.3 -41.5 155.7 -37.95 137.0 -41.4 134.35 -44.85 131.7 -62.15 139.8 -79.2 148.0 -84.55 154.95" fill="#333333" fill-rule="evenodd" stroke="none"/>
    <path d="M-84.55 154.95 Q-110.6 188.75 -93.5 201.9 -76.45 215.05 -50.4 181.25 -45.05 174.3 -41.5 155.7 -37.95 137.0 -41.4 134.35 -44.85 131.7 -62.15 139.8 -79.2 148.0 -84.55 154.95 Z" fill="none" stroke="#000000" stroke-linecap="round" stroke-linejoin="round" stroke-width="2.0"/>
    <path d="M-62.3 183.7 L-80.9 169.35 -116.7 235.55 -62.3 183.7" fill="#000000" fill-rule="evenodd" stroke="none"/>
    <path d="M-84.55 154.95 Q-110.6 188.75 -93.5 201.9 -76.45 215.05 -50.4 181.25 -45.05 174.3 -41.5 155.7 -37.95 137.0 -41.4 134.35 -44.85 131.7 -62.15 139.8 -79.2 148.0 -84.55 154.95" fill="#333333" fill-rule="evenodd" stroke="none"/>
    <path d="M-84.55 154.95 Q-110.6 188.75 -93.5 201.9 -76.45 215.05 -50.4 181.25 -45.05 174.3 -41.5 155.7 -37.95 137.0 -41.4 134.35 -44.85 131.7 -62.15 139.8 -79.2 148.0 -84.55 154.95 Z" fill="none" stroke="#000000" stroke-linecap="round" stroke-linejoin="round" stroke-width="2.0"/>
    <path d="M-62.3 183.7 L-80.9 169.35 -116.7 235.55 -62.3 183.7" fill="#000000" fill-rule="evenodd" stroke="none"/>
    <path d="M-84.55 154.95 Q-110.6 188.75 -93.5 201.9 -76.45 215.05 -50.4 181.25 -45.05 174.3 -41.5 155.7 -37.95 137.0 -41.4 134.35 -44.85 131.7 -62.15 139.8 -79.2 148.0 -84.55 154.95" fill="#333333" fill-rule="evenodd" stroke="none"/>
    <path d="M-84.55 154.95 Q-110.6 188.75 -93.5 201.9 -76.45 215.05 -50.4 181.25 -45.05 174.3 -41.5 155.7 -37.95 137.0 -41.4 134.35 -44.85 131.7 -62.15 139.8 -79.2 148.0 -84.55 154.95 Z" fill="none" stroke="#000000" stroke-linecap="round" stroke-linejoin="round" stroke-width="2.0"/>
    <path d="M-62.3 183.7 L-80.9 169.35 -116.7 235.55 -62.3 183.7" fill="#000000" fill-rule="evenodd" stroke="none"/>
    <path d="M-84.55 154.95 Q-110.6 188.75 -93.5 201.9 -76.45 215.05 -50.4 181.25 -45.05 174.3 -41.5 155.7 -37.95 137.0 -41.4 134.35 -44.85 131.7 -62.15 139.8 -79.2 148.0 -84.55 154.95" fill="#333333" fill-rule="evenodd" stroke="none"/>
    <path d="M-84.55 154.95 Q-110.6 188.75 -93.5 201.9 -76.45 215.05 -50.4 181.25 -45.05 174.3 -41.5 155.7 -37.95 137.0 -41.4 134.35 -44.85 131.7 -62.15 139.8 -79.2 148.0 -84.55 154.95 Z" fill="none" stroke="#000000" stroke-linecap="round" stroke-linejoin="round" stroke-width="2.0"/>
    <path d="M-62.3 183.7 L-80.9 169.35 -116.7 235.55 -62.3 183.7" fill="#000000" fill-rule="evenodd" stroke="none"/>
    <path d="M-84.55 154.95 Q-110.6 188.75 -93.5 201.9 -76.45 215.05 -50.4 181.25 -45.05 174.3 -41.5 155.7 -37.95 137.0 -41.4 134.35 -44.85 131.7 -62.15 139.8 -79.2 148.0 -84.55 154.95" fill="#333333" fill-rule="evenodd" stroke="none"/>
    <path d="M-84.55 154.95 Q-110.6 188.75 -93.5 201.9 -76.45 215.05 -50.4 181.25 -45.05 174.3 -41.5 155.7 -37.95 137.0 -41.4 134.35 -44.85 131.7 -62.15 139.8 -79.2 148.0 -84.55 154.95 Z" fill="none" stroke="#000000" stroke-linecap="round" stroke-linejoin="round" stroke-width="2.0"/>
    <path d="M-62.3 183.7 L-80.9 169.35 -116.7 235.55 -62.3 183.7" fill="#000000" fill-rule="evenodd" stroke="none"/>
    <path d="M-84.55 154.95 Q-110.6 188.75 -93.5 201.9 -76.45 215.05 -50.4 181.25 -45.05 174.3 -41.5 155.7 -37.95 137.0 -41.4 134.35 -44.85 131.7 -62.15 139.8 -79.2 148.0 -84.55 154.95" fill="#333333" fill-rule="evenodd" stroke="none"/>
    <path d="M-84.55 154.95 Q-110.6 188.75 -93.5 201.9 -76.45 215.05 -50.4 181.25 -45.05 174.3 -41.5 155.7 -37.95 137.0 -41.4 134.35 -44.85 131.7 -62.15 139.8 -79.2 148.0 -84.55 154.95 Z" fill="none" stroke="#000000" stroke-linecap="round" stroke-linejoin="round" stroke-width="2.0"/>
    <path d="M-62.3 183.7 L-80.9 169.35 -116.7 235.55 -62.3 183.7" fill="#000000" fill-rule="evenodd" stroke="none"/>
    <path d="M-84.55 154.95 Q-110.6 188.75 -93.5 201.9 -76.45 215.05 -50.4 181.25 -45.05 174.3 -41.5 155.7 -37.95 137.0 -41.4 134.35 -44.85 131.7 -62.15 139.8 -79.2 148.0 -84.55 154.95" fill="#333333" fill-rule="evenodd" stroke="none"/>
    <path d="M-84.55 154.95 Q-110.6 188.75 -93.5 201.9 -76.45 215.05 -50.4 181.25 -45.05 174.3 -41.5 155.7 -37.95 137.0 -41.4 134.35 -44.85 131.7 -62.15 139.8 -79.2 148.0 -84.55 154.95 Z" fill="none" stroke="#000000" stroke-linecap="round" stroke-linejoin="round" stroke-width="9.0"/>
    <path d="M-84.55 154.95 Q-110.6 188.75 -93.5 201.9 -76.45 215.05 -50.4 181.25 -45.05 174.3 -41.5 155.7 -37.95 137.0 -41.4 134.35 -44.85 131.7 -62.15 139.8 -79.2 148.0 -84.55 154.95" fill="#333333" fill-rule="evenodd" stroke="none"/>
    <path d="M-167.85 120.85 L-179.95 103.7 -228.0 150.8 -167.85 120.85" fill="#000000" fill-rule="evenodd" stroke="none"/>
    <path d="M-84.75 69.05 Q-87.35 65.35 -90.35 62.15 L-92.3 60.05 -119.35 74.25 -98.6 93.1 Q-95.3 92.65 -91.4 91.25 -83.6 88.4 -80.7 83.7 -77.8 79.0 -84.75 69.05" fill="#ffcc33" fill-rule="evenodd" stroke="none"/>
    <path d="M-84.75 69.05 Q-87.35 65.35 -90.35 62.15 L-92.3 60.05 -119.35 74.25 -98.6 93.1 Q-95.3 92.65 -91.4 91.25 -83.6 88.4 -80.7 83.7 -77.8 79.0 -84.75 69.05 Z" fill="none" stroke="#856301" stroke-linecap="round" stroke-linejoin="round" stroke-width="4.0"/>
    <path d="M-105.25 40.35 Q-102.65 44.05 -100.6 47.9 L-99.35 50.45 -121.95 70.95 -132.7 45.15 Q-131.1 42.2 -128.45 38.95 -123.15 32.65 -117.75 31.55 -112.3 30.4 -105.25 40.35" fill="#ffcc33" fill-rule="evenodd" stroke="none"/>
    <path d="M-105.25 40.35 Q-102.65 44.05 -100.6 47.9 L-99.35 50.45 -121.95 70.95 -132.7 45.15 Q-131.1 42.2 -128.45 38.95 -123.15 32.65 -117.75 31.55 -112.3 30.4 -105.25 40.35 Z" fill="none" stroke="#856301" stroke-linecap="round" stroke-linejoin="round" stroke-width="4.0"/>
    <path d="M-134.45 86.25 L-89.05 60.8 -99.15 46.45 -138.35 80.7 -134.45 86.25" fill="#000000" fill-rule="evenodd" stroke="none"/>
    <path d="M-179.25 90.45 Q-210.4 112.45 -199.3 128.2 -188.15 143.95 -157.0 121.95 -150.55 117.4 -142.65 102.45 -134.75 87.35 -137.0 84.2 -139.2 81.0 -156.1 83.4 -172.8 85.9 -179.25 90.45" fill="#333333" fill-rule="evenodd" stroke="none"/>
    <path d="M-179.25 90.45 Q-210.4 112.45 -199.3 128.2 -188.15 143.95 -157.0 121.95 -150.55 117.4 -142.65 102.45 -134.75 87.35 -137.0 84.2 -139.2 81.0 -156.1 83.4 -172.8 85.9 -179.25 90.45 Z" fill="none" stroke="#000000" stroke-linecap="round" stroke-linejoin="round" stroke-width="2.0"/>
    <path d="M-167.85 120.85 L-179.95 103.7 -228.0 150.8 -167.85 120.85" fill="#000000" fill-rule="evenodd" stroke="none"/>
    <path d="M-179.25 90.45 Q-210.4 112.45 -199.3 128.2 -188.15 143.95 -157.0 121.95 -150.55 117.4 -142.65 102.45 -134.75 87.35 -137.0 84.2 -139.2 81.0 -156.1 83.4 -172.8 85.9 -179.25 90.45" fill="#333333" fill-rule="evenodd" stroke="none"/>
    <path d="M-179.25 90.45 Q-210.4 112.45 -199.3 128.2 -188.15 143.95 -157.0 121.95 -150.55 117.4 -142.65 102.45 -134.75 87.35 -137.0 84.2 -139.2 81.0 -156.1 83.4 -172.8 85.9 -179.25 90.45 Z" fill="none" stroke="#000000" stroke-linecap="round" stroke-linejoin="round" stroke-width="2.0"/>
    <path d="M-167.85 120.85 L-179.95 103.7 -228.0 150.8 -167.85 120.85" fill="#000000" fill-rule="evenodd" stroke="none"/>
    <path d="M-179.25 90.45 Q-210.4 112.45 -199.3 128.2 -188.15 143.95 -157.0 121.95 -150.55 117.4 -142.65 102.45 -134.75 87.35 -137.0 84.2 -139.2 81.0 -156.1 83.4 -172.8 85.9 -179.25 90.45" fill="#333333" fill-rule="evenodd" stroke="none"/>
    <path d="M-179.25 90.45 Q-210.4 112.45 -199.3 128.2 -188.15 143.95 -157.0 121.95 -150.55 117.4 -142.65 102.45 -134.75 87.35 -137.0 84.2 -139.2 81.0 -156.1 83.4 -172.8 85.9 -179.25 90.45 Z" fill="none" stroke="#000000" stroke-linecap="round" stroke-linejoin="round" stroke-width="2.0"/>
    <path d="M-167.85 120.85 L-179.95 103.7 -228.0 150.8 -167.85 120.85" fill="#000000" fill-rule="evenodd" stroke="none"/>
    <path d="M-179.25 90.45 Q-210.4 112.45 -199.3 128.2 -188.15 143.95 -157.0 121.95 -150.55 117.4 -142.65 102.45 -134.75 87.35 -137.0 84.2 -139.2 81.0 -156.1 83.4 -172.8 85.9 -179.25 90.45" fill="#333333" fill-rule="evenodd" stroke="none"/>
    <path d="M-179.25 90.45 Q-210.4 112.45 -199.3 128.2 -188.15 143.95 -157.0 121.95 -150.55 117.4 -142.65 102.45 -134.75 87.35 -137.0 84.2 -139.2 81.0 -156.1 83.4 -172.8 85.9 -179.25 90.45 Z" fill="none" stroke="#000000" stroke-linecap="round" stroke-linejoin="round" stroke-width="2.0"/>
    <path d="M-167.85 120.85 L-179.95 103.7 -228.0 150.8 -167.85 120.85" fill="#000000" fill-rule="evenodd" stroke="none"/>
    <path d="M-179.25 90.45 Q-210.4 112.45 -199.3 128.2 -188.15 143.95 -157.0 121.95 -150.55 117.4 -142.65 102.45 -134.75 87.35 -137.0 84.2 -139.2 81.0 -156.1 83.4 -172.8 85.9 -179.25 90.45" fill="#333333" fill-rule="evenodd" stroke="none"/>
    <path d="M-179.25 90.45 Q-210.4 112.45 -199.3 128.2 -188.15 143.95 -157.0 121.95 -150.55 117.4 -142.65 102.45 -134.75 87.35 -137.0 84.2 -139.2 81.0 -156.1 83.4 -172.8 85.9 -179.25 90.45 Z" fill="none" stroke="#000000" stroke-linecap="round" stroke-linejoin="round" stroke-width="2.0"/>
    <path d="M-167.85 120.85 L-179.95 103.7 -228.0 150.8 -167.85 120.85" fill="#000000" fill-rule="evenodd" stroke="none"/>
    <path d="M-179.25 90.45 Q-210.4 112.45 -199.3 128.2 -188.15 143.95 -157.0 121.95 -150.55 117.4 -142.65 102.45 -134.75 87.35 -137.0 84.2 -139.2 81.0 -156.1 83.4 -172.8 85.9 -179.25 90.45" fill="#333333" fill-rule="evenodd" stroke="none"/>
    <path d="M-179.25 90.45 Q-210.4 112.45 -199.3 128.2 -188.15 143.95 -157.0 121.95 -150.55 117.4 -142.65 102.45 -134.75 87.35 -137.0 84.2 -139.2 81.0 -156.1 83.4 -172.8 85.9 -179.25 90.45 Z" fill="none" stroke="#000000" stroke-linecap="round" stroke-linejoin="round" stroke-width="2.0"/>
    <path d="M-167.85 120.85 L-179.95 103.7 -228.0 150.8 -167.85 120.85" fill="#000000" fill-rule="evenodd" stroke="none"/>
    <path d="M-179.25 90.45 Q-210.4 112.45 -199.3 128.2 -188.15 143.95 -157.0 121.95 -150.55 117.4 -142.65 102.45 -134.75 87.35 -137.0 84.2 -139.2 81.0 -156.1 83.4 -172.8 85.9 -179.25 90.45" fill="#333333" fill-rule="evenodd" stroke="none"/>
    <path d="M-179.25 90.45 Q-210.4 112.45 -199.3 128.2 -188.15 143.95 -157.0 121.95 -150.55 117.4 -142.65 102.45 -134.75 87.35 -137.0 84.2 -139.2 81.0 -156.1 83.4 -172.8 85.9 -179.25 90.45 Z" fill="none" stroke="#000000" stroke-linecap="round" stroke-linejoin="round" stroke-width="2.0"/>
    <path d="M-167.85 120.85 L-179.95 103.7 -228.0 150.8 -167.85 120.85" fill="#000000" fill-rule="evenodd" stroke="none"/>
    <path d="M-179.25 90.45 Q-210.4 112.45 -199.3 128.2 -188.15 143.95 -157.0 121.95 -150.55 117.4 -142.65 102.45 -134.75 87.35 -137.0 84.2 -139.2 81.0 -156.1 83.4 -172.8 85.9 -179.25 90.45" fill="#333333" fill-rule="evenodd" stroke="none"/>
    <path d="M-179.25 90.45 Q-210.4 112.45 -199.3 128.2 -188.15 143.95 -157.0 121.95 -150.55 117.4 -142.65 102.45 -134.75 87.35 -137.0 84.2 -139.2 81.0 -156.1 83.4 -172.8 85.9 -179.25 90.45 Z" fill="none" stroke="#000000" stroke-linecap="round" stroke-linejoin="round" stroke-width="9.0"/>
    <path d="M-179.25 90.45 Q-210.4 112.45 -199.3 128.2 -188.15 143.95 -157.0 121.95 -150.55 117.4 -142.65 102.45 -134.75 87.35 -137.0 84.2 -139.2 81.0 -156.1 83.4 -172.8 85.9 -179.25 90.45" fill="#333333" fill-rule="evenodd" stroke="none"/>
    <path d="M97.2 229.35 L68.25 227.55 77.45 320.05 97.2 229.35" fill="#000000" fill-rule="evenodd" stroke="none"/>
    <path d="M113.35 95.05 Q107.0 94.65 101.1 95.1 L97.1 95.4 89.05 136.85 127.3 130.75 Q129.65 126.8 131.55 121.3 135.2 110.5 132.65 103.3 130.05 96.1 113.35 95.05" fill="#ffcc33" fill-rule="evenodd" stroke="none"/>
    <path d="M113.35 95.05 Q107.0 94.65 101.1 95.1 L97.1 95.4 89.05 136.85 127.3 130.75 Q129.65 126.8 131.55 121.3 135.2 110.5 132.65 103.3 130.05 96.1 113.35 95.05 Z" fill="none" stroke="#856301" stroke-linecap="round" stroke-linejoin="round" stroke-width="4.0"/>
    <path d="M64.65 92.35 Q70.95 92.7 76.75 93.85 L80.65 94.65 83.15 136.75 46.05 126.0 Q44.25 121.8 43.1 116.1 40.9 104.95 44.35 98.1 47.9 91.3 64.65 92.35" fill="#ffcc33" fill-rule="evenodd" stroke="none"/>
    <path d="M64.65 92.35 Q70.95 92.7 76.75 93.85 L80.65 94.65 83.15 136.75 46.05 126.0 Q44.25 121.8 43.1 116.1 40.9 104.95 44.35 98.1 47.9 91.3 64.65 92.35 Z" fill="none" stroke="#856301" stroke-linecap="round" stroke-linejoin="round" stroke-width="4.0"/>
    <path d="M54.6 215.35 Q51.35 267.95 77.9 269.6 104.5 271.25 107.75 218.65 108.4 207.8 99.2 186.35 89.75 164.7 84.4 164.4 79.05 164.05 67.0 184.35 55.25 204.5 54.6 215.35" fill="#333333" fill-rule="evenodd" stroke="none"/>
    <path d="M54.6 215.35 Q51.35 267.95 77.9 269.6 104.5 271.25 107.75 218.65 108.4 207.8 99.2 186.35 89.75 164.7 84.4 164.4 79.05 164.05 67.0 184.35 55.25 204.5 54.6 215.35 Z" fill="none" stroke="#000000" stroke-linecap="round" stroke-linejoin="round" stroke-width="2.0"/>
    <path d="M97.2 229.35 L68.25 227.55 77.45 320.05 97.2 229.35" fill="#000000" fill-rule="evenodd" stroke="none"/>
    <path d="M54.6 215.35 Q51.35 267.95 77.9 269.6 104.5 271.25 107.75 218.65 108.4 207.8 99.2 186.35 89.75 164.7 84.4 164.4 79.05 164.05 67.0 184.35 55.25 204.5 54.6 215.35" fill="#333333" fill-rule="evenodd" stroke="none"/>
    <path d="M54.6 215.35 Q51.35 267.95 77.9 269.6 104.5 271.25 107.75 218.65 108.4 207.8 99.2 186.35 89.75 164.7 84.4 164.4 79.05 164.05 67.0 184.35 55.25 204.5 54.6 215.35 Z" fill="none" stroke="#000000" stroke-linecap="round" stroke-linejoin="round" stroke-width="2.0"/>
    <path d="M97.2 229.35 L68.25 227.55 77.45 320.05 97.2 229.35" fill="#000000" fill-rule="evenodd" stroke="none"/>
    <path d="M54.6 215.35 Q51.35 267.95 77.9 269.6 104.5 271.25 107.75 218.65 108.4 207.8 99.2 186.35 89.75 164.7 84.4 164.4 79.05 164.05 67.0 184.35 55.25 204.5 54.6 215.35" fill="#333333" fill-rule="evenodd" stroke="none"/>
    <path d="M54.6 215.35 Q51.35 267.95 77.9 269.6 104.5 271.25 107.75 218.65 108.4 207.8 99.2 186.35 89.75 164.7 84.4 164.4 79.05 164.05 67.0 184.35 55.25 204.5 54.6 215.35 Z" fill="none" stroke="#000000" stroke-linecap="round" stroke-linejoin="round" stroke-width="2.0"/>
    <path d="M97.2 229.35 L68.25 227.55 77.45 320.05 97.2 229.35" fill="#000000" fill-rule="evenodd" stroke="none"/>
    <path d="M54.6 215.35 Q51.35 267.95 77.9 269.6 104.5 271.25 107.75 218.65 108.4 207.8 99.2 186.35 89.75 164.7 84.4 164.4 79.05 164.05 67.0 184.35 55.25 204.5 54.6 215.35" fill="#333333" fill-rule="evenodd" stroke="none"/>
    <path d="M54.6 215.35 Q51.35 267.95 77.9 269.6 104.5 271.25 107.75 218.65 108.4 207.8 99.2 186.35 89.75 164.7 84.4 164.4 79.05 164.05 67.0 184.35 55.25 204.5 54.6 215.35 Z" fill="none" stroke="#000000" stroke-linecap="round" stroke-linejoin="round" stroke-width="2.0"/>
    <path d="M97.2 229.35 L68.25 227.55 77.45 320.05 97.2 229.35" fill="#000000" fill-rule="evenodd" stroke="none"/>
    <path d="M54.6 215.35 Q51.35 267.95 77.9 269.6 104.5 271.25 107.75 218.65 108.4 207.8 99.2 186.35 89.75 164.7 84.4 164.4 79.05 164.05 67.0 184.35 55.25 204.5 54.6 215.35" fill="#333333" fill-rule="evenodd" stroke="none"/>
    <path d="M54.6 215.35 Q51.35 267.95 77.9 269.6 104.5 271.25 107.75 218.65 108.4 207.8 99.2 186.35 89.75 164.7 84.4 164.4 79.05 164.05 67.0 184.35 55.25 204.5 54.6 215.35 Z" fill="none" stroke="#000000" stroke-linecap="round" stroke-linejoin="round" stroke-width="2.0"/>
    <path d="M97.2 229.35 L68.25 227.55 77.45 320.05 97.2 229.35" fill="#000000" fill-rule="evenodd" stroke="none"/>
    <path d="M54.6 215.35 Q51.35 267.95 77.9 269.6 104.5 271.25 107.75 218.65 108.4 207.8 99.2 186.35 89.75 164.7 84.4 164.4 79.05 164.05 67.0 184.35 55.25 204.5 54.6 215.35" fill="#333333" fill-rule="evenodd" stroke="none"/>
    <path d="M54.6 215.35 Q51.35 267.95 77.9 269.6 104.5 271.25 107.75 218.65 108.4 207.8 99.2 186.35 89.75 164.7 84.4 164.4 79.05 164.05 67.0 184.35 55.25 204.5 54.6 215.35 Z" fill="none" stroke="#000000" stroke-linecap="round" stroke-linejoin="round" stroke-width="2.0"/>
    <path d="M97.2 229.35 L68.25 227.55 77.45 320.05 97.2 229.35" fill="#000000" fill-rule="evenodd" stroke="none"/>
    <path d="M54.6 215.35 Q51.35 267.95 77.9 269.6 104.5 271.25 107.75 218.65 108.4 207.8 99.2 186.35 89.75 164.7 84.4 164.4 79.05 164.05 67.0 184.35 55.25 204.5 54.6 215.35" fill="#333333" fill-rule="evenodd" stroke="none"/>
    <path d="M54.6 215.35 Q51.35 267.95 77.9 269.6 104.5 271.25 107.75 218.65 108.4 207.8 99.2 186.35 89.75 164.7 84.4 164.4 79.05 164.05 67.0 184.35 55.25 204.5 54.6 215.35 Z" fill="none" stroke="#000000" stroke-linecap="round" stroke-linejoin="round" stroke-width="2.0"/>
    <path d="M97.2 229.35 L68.25 227.55 77.45 320.05 97.2 229.35" fill="#000000" fill-rule="evenodd" stroke="none"/>
    <path d="M88.8 163.45 L100.65 92.5 76.45 91.0 79.5 162.9 88.8 163.45" fill="#000000" fill-rule="evenodd" stroke="none"/>
    <path d="M54.6 215.35 Q51.35 267.95 77.9 269.6 104.5 271.25 107.75 218.65 108.4 207.8 99.2 186.35 89.75 164.7 84.4 164.4 79.05 164.05 67.0 184.35 55.25 204.5 54.6 215.35" fill="#333333" fill-rule="evenodd" stroke="none"/>
    <path d="M54.6 215.35 Q51.35 267.95 77.9 269.6 104.5 271.25 107.75 218.65 108.4 207.8 99.2 186.35 89.75 164.7 84.4 164.4 79.05 164.05 67.0 184.35 55.25 204.5 54.6 215.35 Z" fill="none" stroke="#000000" stroke-linecap="round" stroke-linejoin="round" stroke-width="9.0"/>
    <path d="M54.6 215.35 Q51.35 267.95 77.9 269.6 104.5 271.25 107.75 218.65 108.4 207.8 99.2 186.35 89.75 164.7 84.4 164.4 79.05 164.05 67.0 184.35 55.25 204.5 54.6 215.35" fill="#333333" fill-rule="evenodd" stroke="none"/>
  </g>
</svg>
