<?xml version="1.0" encoding="UTF-8" standalone="no"?>
<svg xmlns:xlink="http://www.w3.org/1999/xlink" height="11.2px" width="249.6px" xmlns="http://www.w3.org/2000/svg">
  <g transform="matrix(1.0, 0.0, 0.0, 1.0, -6.35, -14.65)">
    <path d="M7.9 24.2 Q6.85 23.05 6.85 21.5 6.85 19.95 7.9 18.8 9.15 17.75 10.7 17.75 12.25 17.75 13.3 18.8 14.55 19.95 14.55 21.5 14.55 23.05 13.3 24.2 12.25 25.35 10.7 25.35 9.15 25.35 7.9 24.2" fill="#999999" fill-rule="evenodd" stroke="none"/>
    <path d="M7.9 24.2 Q6.85 23.05 6.85 21.5 6.85 19.95 7.9 18.8 9.15 17.75 10.7 17.75 12.25 17.75 13.3 18.8 14.55 19.95 14.55 21.5 14.55 23.05 13.3 24.2 12.25 25.35 10.7 25.35 9.15 25.35 7.9 24.2 Z" fill="none" stroke="#333333" stroke-linecap="round" stroke-linejoin="round" stroke-width="1.0"/>
    <path d="M251.6 15.15 Q253.15 15.15 254.2 16.2 255.45 17.35 255.45 18.9 255.45 20.45 254.2 21.6 253.15 22.75 251.6 22.75 250.05 22.75 248.8 21.6 247.75 20.45 247.75 18.9 247.75 17.35 248.8 16.2 250.05 15.15 251.6 15.15" fill="#999999" fill-rule="evenodd" stroke="none"/>
    <path d="M251.6 15.15 Q253.15 15.15 254.2 16.2 255.45 17.35 255.45 18.9 255.45 20.45 254.2 21.6 253.15 22.75 251.6 22.75 250.05 22.75 248.8 21.6 247.75 20.45 247.75 18.9 247.75 17.35 248.8 16.2 250.05 15.15 251.6 15.15 Z" fill="none" stroke="#333333" stroke-linecap="round" stroke-linejoin="round" stroke-width="1.0"/>
  </g>
</svg>
