<?xml version="1.0" encoding="UTF-8" standalone="no"?>
<svg xmlns:xlink="http://www.w3.org/1999/xlink" height="108.0px" width="198.25px" xmlns="http://www.w3.org/2000/svg">
  <g transform="matrix(1.0, 0.0, 0.0, 1.0, 102.25, 100.2)">
    <path d="M96.0 -75.85 Q0.65 -34.25 -100.15 -16.85 L-102.25 -26.65 Q-1.55 -44.0 93.75 -85.8 95.05 -80.95 96.0 -75.85" fill="#3c190a" fill-rule="evenodd" stroke="none"/>
    <path d="M73.1 -77.05 L72.9 -77.15 Q76.85 -74.7 80.6 -71.5 L82.3 -70.0 Q26.1 -46.6 -31.9 -31.55 L-31.7 -33.35 Q-31.05 -38.1 -29.65 -42.5 22.45 -56.4 73.1 -77.05" fill="#216b48" fill-rule="evenodd" stroke="none"/>
    <path d="M-35.25 -58.05 Q-35.85 -60.05 -34.85 -61.85 -33.85 -63.7 -31.85 -64.25 -29.9 -64.9 -28.05 -63.9 -26.25 -62.9 -25.65 -60.9 L-14.8 -24.75 Q-14.2 -22.8 -15.2 -20.95 -16.2 -19.15 -18.15 -18.55 -20.15 -17.95 -21.95 -18.95 -23.8 -19.95 -24.4 -21.9 L-35.25 -58.05 M-86.85 -51.4 Q-84.9 -52.05 -83.05 -51.05 -81.25 -50.05 -80.65 -48.05 L-69.8 -11.9 Q-69.2 -9.95 -70.2 -8.1 -71.2 -6.3 -73.15 -5.7 -75.15 -5.1 -76.95 -6.1 -78.8 -7.1 -79.4 -9.05 L-90.25 -45.2 Q-90.85 -47.2 -89.85 -49.0 -88.85 -50.85 -86.85 -51.4 M21.2 -76.6 Q20.6 -78.6 21.6 -80.4 22.6 -82.25 24.6 -82.8 26.55 -83.45 28.4 -82.45 30.2 -81.45 30.8 -79.45 L41.65 -43.3 Q42.25 -41.35 41.25 -39.5 40.25 -37.7 38.3 -37.1 36.3 -36.5 34.5 -37.5 32.65 -38.5 32.05 -40.45 L21.2 -76.6 M68.9 -99.95 Q70.85 -100.6 72.7 -99.6 74.5 -98.6 75.1 -96.6 L85.95 -60.45 Q86.55 -58.5 85.55 -56.65 84.55 -54.85 82.6 -54.25 80.6 -53.65 78.8 -54.65 76.95 -55.65 76.35 -57.6 L65.5 -93.75 Q64.9 -95.75 65.9 -97.55 66.9 -99.4 68.9 -99.95" fill="#000000" fill-rule="evenodd" stroke="none"/>
    <path d="M61.25 -20.15 Q66.05 -15.35 66.05 -8.55 66.05 -1.8 61.25 3.0 56.45 7.8 49.65 7.8 42.9 7.8 38.1 3.0 33.3 -1.8 33.3 -8.6 33.3 -15.35 38.1 -20.15 42.9 -24.95 49.65 -24.95 56.45 -24.95 61.25 -20.15" fill="#ffffff" fill-rule="evenodd" stroke="none"/>
  </g>
</svg>
