<?xml version="1.0" encoding="UTF-8" standalone="no"?>
<svg xmlns:xlink="http://www.w3.org/1999/xlink" height="28.95px" width="18.0px" xmlns="http://www.w3.org/2000/svg">
  <g transform="matrix(1.0, 0.0, 0.0, 1.0, -19.25, 0.05)">
    <path d="M31.9 9.3 Q31.9 11.25 28.0 11.25 25.75 11.25 25.1 10.5 L24.9 9.7 Q24.9 8.75 26.85 9.1 L29.35 9.1 29.75 8.95 28.3 5.2 28.4 4.75 Q29.85 4.75 31.05 7.0 L31.9 9.3 M32.35 0.3 Q31.2 1.85 28.1 1.85 27.05 1.85 26.75 1.4 L26.65 0.95 Q26.65 0.25 28.6 0.05 30.15 -0.15 32.1 0.05 L32.35 0.3 M25.1 13.15 Q25.7 13.6 25.7 14.85 25.7 16.2 23.4 17.65 21.35 18.95 20.3 18.95 19.5 18.95 19.3 18.5 L19.25 18.0 Q19.25 17.05 21.35 16.3 23.65 15.5 23.9 14.6 24.45 12.6 25.1 13.15 M24.6 20.7 Q25.6 22.35 25.6 23.0 L24.95 24.3 Q24.2 25.3 23.4 25.5 L22.65 25.25 22.55 24.55 Q22.55 22.1 23.0 20.6 23.5 18.85 24.6 20.7 M28.75 23.95 Q29.65 21.95 30.55 20.9 32.3 18.75 32.3 23.2 32.3 23.85 31.6 24.55 30.85 25.25 30.1 25.25 29.2 25.25 28.9 24.65 L28.75 23.95 M35.75 14.3 Q36.15 12.7 36.7 12.25 37.25 11.8 37.25 13.15 37.25 15.3 36.85 16.3 35.95 18.55 33.0 18.55 32.3 18.55 32.1 18.05 L32.05 17.55 Q32.05 16.7 33.6 16.35 35.3 16.0 35.75 14.3 M29.65 27.15 Q29.65 27.8 29.3 28.3 28.9 28.9 28.1 28.9 27.45 28.9 27.25 28.55 L27.2 28.2 28.45 26.7 Q29.65 25.55 29.65 27.15" fill="#ffffff" fill-rule="evenodd" stroke="none"/>
  </g>
</svg>
