<?xml version="1.0" encoding="UTF-8" standalone="no"?>
<svg xmlns:xlink="http://www.w3.org/1999/xlink" height="28.5px" width="16.05px" xmlns="http://www.w3.org/2000/svg">
  <g transform="matrix(1.0, 0.0, 0.0, 1.0, -21.05, -0.05)">
    <path d="M30.75 0.95 L30.3 1.15 28.35 0.85 28.3 0.55 Q28.3 0.15 28.95 0.05 29.75 -0.05 30.95 0.6 L30.75 0.95 M29.2 11.2 Q28.4 11.2 28.4 10.25 28.4 9.8 28.7 9.6 L29.35 8.75 Q29.35 7.6 29.8 7.25 L30.25 8.45 30.65 9.9 30.0 10.7 29.2 11.2 M21.9 18.35 Q21.25 18.35 21.1 18.0 L21.05 17.65 Q21.05 17.2 22.45 16.2 23.85 15.15 23.85 16.45 L23.15 17.5 Q22.35 18.35 21.9 18.35 M23.7 21.6 Q24.3 21.85 24.3 23.15 L24.25 24.3 23.8 24.5 23.4 23.65 23.3 23.05 23.35 22.4 Q23.45 21.8 23.7 21.6 M30.1 22.85 Q30.3 22.45 31.25 22.35 L31.4 23.0 Q31.4 23.6 30.6 24.4 30.0 24.25 30.0 23.55 L30.1 22.85 M37.1 15.6 L36.45 16.65 Q35.7 17.55 35.0 17.6 L34.35 17.45 Q34.25 17.5 34.25 17.0 34.25 16.4 35.7 15.3 37.1 14.2 37.1 15.6 M29.6 27.7 Q29.6 28.3 29.0 28.55 28.4 28.4 28.4 27.7 28.4 26.85 29.0 26.85 29.6 26.85 29.6 27.7" fill="#ffffff" fill-rule="evenodd" stroke="none"/>
  </g>
</svg>
