<?xml version="1.0" encoding="UTF-8" standalone="no"?>
<svg xmlns:xlink="http://www.w3.org/1999/xlink" height="31.1px" width="25.15px" xmlns="http://www.w3.org/2000/svg">
  <g transform="matrix(1.0, 0.0, 0.0, 1.0, -14.4, 2.75)">
    <path d="M29.1 -2.6 L31.05 -2.7 Q31.1 -2.6 31.15 -2.65 L31.2 -2.3 31.15 -1.95 30.6 -1.8 Q30.3 -1.8 29.1 -2.3 L29.1 -2.6 M38.8 -0.1 L38.7 0.35 Q38.7 0.55 38.2 0.55 37.6 0.55 37.4 -0.15 L37.35 -0.8 Q37.35 -2.1 38.1 -1.75 38.8 -1.4 38.8 -0.1 M29.85 3.2 Q29.85 3.6 29.45 4.1 L28.4 4.9 28.05 4.8 Q27.9 4.7 27.9 4.35 27.9 3.95 28.4 3.45 28.9 2.9 29.4 2.8 L29.7 2.85 29.85 3.2 M24.0 10.6 L24.15 11.2 23.6 11.75 22.7 11.95 21.5 11.85 Q21.35 11.85 21.35 11.35 21.35 11.0 21.95 10.9 L24.0 10.6 M30.25 17.7 L29.6 19.0 29.2 18.9 29.1 18.5 Q29.1 17.6 29.8 17.0 30.25 17.2 30.25 17.7 M25.8 16.55 Q25.45 16.55 24.9 16.05 L24.4 15.4 24.45 15.15 Q24.8 15.2 26.45 16.1 L26.5 16.25 25.8 16.55 M38.6 12.75 L39.05 13.35 39.0 13.9 38.6 14.05 38.15 13.35 Q38.15 12.85 38.6 12.75 M39.55 17.4 L39.5 17.75 39.15 17.85 38.75 17.75 38.65 17.55 38.7 17.0 39.1 17.05 39.55 17.4 M34.35 12.9 L34.55 13.35 34.0 13.8 33.15 13.6 33.0 13.05 34.35 12.9 M34.15 21.95 L35.65 21.55 35.75 22.0 Q35.75 22.5 35.05 22.9 L34.0 23.35 33.3 22.8 Q33.3 22.4 34.15 21.95 M15.5 13.7 L14.8 14.35 14.5 14.25 14.4 13.8 Q14.4 13.15 15.4 12.65 L15.7 12.8 15.8 13.2 15.5 13.7 M19.8 22.05 L20.05 22.15 20.15 22.5 Q20.15 23.15 19.3 23.25 19.15 23.5 19.15 23.0 L19.4 22.5 19.8 22.05 M29.4 25.95 L29.35 25.35 Q29.35 24.6 29.85 24.8 30.35 25.0 30.45 25.6 L29.9 26.05 29.4 25.95 M28.15 27.15 Q27.5 27.95 27.0 27.95 L26.35 27.85 26.3 27.75 25.4 28.35 25.15 28.35 25.05 28.0 Q25.05 27.75 25.55 27.05 L26.2 26.35 26.6 26.65 26.65 26.6 28.05 26.55 28.15 27.15" fill="#ffffff" fill-rule="evenodd" stroke="none"/>
  </g>
</svg>
