<?xml version="1.0" encoding="UTF-8" standalone="no"?>
<svg xmlns:xlink="http://www.w3.org/1999/xlink" height="25.05px" width="35.55px" xmlns="http://www.w3.org/2000/svg">
  <g transform="matrix(1.0, 0.0, 0.0, 1.0, -406.85, -172.45)">
    <path d="M431.05 175.2 Q430.35 174.65 429.5 174.35 L428.15 174.1 427.4 174.05 427.25 174.0 426.9 174.0 Q429.55 175.5 430.2 178.55 430.7 180.85 429.9 183.2 L429.25 184.65 429.3 184.6 429.25 184.7 429.1 185.0 428.35 186.05 427.7 187.05 427.6 187.0 426.7 186.8 Q426.95 186.2 427.55 185.45 428.55 184.1 428.95 182.9 429.65 180.8 429.25 178.75 428.65 176.15 426.45 174.9 L425.95 174.3 Q425.85 173.85 426.05 173.55 426.2 173.15 426.65 173.05 L427.25 173.0 427.55 173.05 427.7 173.1 428.2 173.1 428.25 173.15 429.8 173.4 Q432.9 174.35 434.3 178.25 434.95 179.8 435.1 181.35 L435.15 181.0 435.5 180.6 436.1 180.35 436.45 180.35 438.75 180.8 439.3 181.05 439.65 181.25 440.3 181.8 440.55 182.1 440.65 182.35 440.85 182.55 440.85 182.6 Q441.65 183.5 442.0 184.75 L442.05 185.05 442.3 186.35 442.3 186.4 Q442.7 189.1 441.55 192.45 L441.5 192.7 441.05 194.15 440.05 196.5 439.95 196.65 439.8 196.9 439.35 196.75 437.85 196.9 438.55 196.7 439.15 196.1 439.55 195.2 439.6 194.95 440.1 193.85 440.25 193.4 440.55 192.4 440.6 192.15 Q441.65 189.05 441.3 186.6 L441.05 185.0 Q440.8 183.95 440.15 183.25 L439.85 182.9 439.65 182.55 439.0 182.0 438.8 181.95 438.4 181.75 436.45 181.35 436.1 181.35 436.3 181.5 Q436.65 181.6 437.1 181.95 438.3 182.85 438.4 184.15 L438.35 185.65 438.0 187.25 437.85 187.7 437.7 188.15 435.35 191.95 433.8 193.7 433.15 193.35 432.9 193.3 434.55 191.35 Q436.45 188.8 436.75 187.85 L436.9 187.4 437.05 186.95 437.35 185.55 437.4 184.3 437.4 184.2 Q437.3 183.4 436.5 182.75 L436.45 182.75 436.15 182.5 435.6 182.25 435.5 182.15 435.15 181.7 435.2 182.2 434.35 186.2 434.1 187.9 434.1 188.05 433.85 187.9 433.05 187.75 433.1 187.25 433.15 187.2 433.2 186.9 433.25 186.55 433.3 186.45 433.4 185.95 434.2 182.25 Q434.05 180.45 433.35 178.55 432.5 176.3 431.05 175.2 M425.65 195.55 L423.7 192.75 423.6 192.6 423.6 192.55 423.25 192.0 423.05 191.75 421.35 186.25 421.35 185.85 421.4 185.5 Q421.5 184.5 421.85 183.6 L421.85 183.7 422.05 183.15 422.1 183.05 Q422.8 181.65 424.35 180.0 L424.55 179.75 424.1 179.85 423.5 180.15 423.45 180.2 422.4 180.7 Q420.45 182.3 419.1 184.45 417.25 187.5 417.25 190.35 L417.9 194.25 Q418.55 196.1 419.6 197.05 L419.65 197.05 Q419.0 197.25 418.6 197.5 417.6 196.4 416.95 194.6 L416.95 194.45 416.7 193.0 416.4 191.2 415.05 189.5 Q413.5 187.5 412.8 185.5 412.25 183.9 412.25 182.3 412.25 179.5 414.55 176.45 L414.65 176.35 415.7 175.0 415.7 174.95 416.8 173.45 416.6 173.5 416.3 173.6 413.05 174.85 Q409.7 177.05 408.65 179.05 407.85 180.65 407.85 185.65 L409.5 190.75 Q410.5 193.3 411.55 194.65 411.05 194.9 410.8 195.3 409.65 193.9 408.6 191.15 L408.55 191.05 406.85 185.65 Q406.85 180.3 407.75 178.6 L407.8 178.6 Q408.9 176.4 412.5 174.05 L412.6 174.0 Q413.75 173.35 416.15 172.6 L416.8 172.45 Q417.2 172.45 417.5 172.7 L417.8 173.35 417.65 174.05 415.35 177.05 Q413.3 179.8 413.25 182.3 413.3 185.6 415.85 188.9 L416.3 189.45 Q416.55 186.8 418.25 183.95 419.7 181.65 421.8 179.95 L422.0 179.8 423.7 178.95 423.65 178.95 424.4 178.75 425.0 178.85 425.45 179.3 425.55 179.9 425.3 180.45 Q423.7 182.1 423.0 183.5 422.35 184.8 422.35 186.25 422.4 189.0 424.55 192.2 L426.4 194.9 Q425.85 195.05 425.65 195.55 M419.9 196.65 Q420.0 196.4 420.25 196.3 L420.3 196.3 419.9 196.65" fill="#5e582f" fill-rule="evenodd" stroke="none"/>
    <path d="M420.25 196.3 Q420.6 196.05 421.1 196.05 420.6 196.1 420.3 196.3 L420.25 196.3" fill="#ffffff" fill-rule="evenodd" stroke="none"/>
    <path d="M431.05 175.2 L432.35 177.25 Q433.3 179.05 433.1 181.4 L432.45 184.5 Q432.0 185.8 430.55 187.65 L430.45 187.85 429.5 187.6 428.85 187.1 Q428.55 186.65 428.75 185.8 L429.25 184.7 429.3 184.6 429.25 184.65 429.9 183.2 Q430.7 180.85 430.2 178.55 429.55 175.5 426.9 174.0 L427.25 174.0 427.4 174.05 428.15 174.1 429.5 174.35 Q430.35 174.65 431.05 175.2 M433.8 193.7 L435.35 191.95 437.7 188.15 437.85 187.7 438.0 187.25 438.35 185.65 438.4 184.15 Q438.3 182.85 437.1 181.95 436.65 181.6 436.3 181.5 L436.1 181.35 436.45 181.35 438.4 181.75 438.8 181.95 439.85 184.2 Q440.3 185.45 440.35 186.75 440.45 188.85 439.65 191.15 439.2 192.55 437.95 194.1 436.75 194.55 435.55 195.25 L435.15 195.1 435.05 195.05 434.6 194.4 433.8 193.7 M423.45 180.2 L422.95 180.9 422.85 180.95 Q421.0 182.9 421.0 185.9 L421.15 187.25 421.15 187.65 Q421.15 189.6 422.15 191.15 422.8 192.3 423.05 193.5 L423.1 194.5 Q423.1 195.5 422.4 196.6 L422.35 196.6 Q422.0 196.0 421.1 196.05 420.6 196.05 420.25 196.3 420.0 196.4 419.9 196.65 L419.65 197.05 419.6 197.05 Q418.55 196.1 417.9 194.25 L417.25 190.35 Q417.25 187.5 419.1 184.45 420.45 182.3 422.4 180.7 L423.45 180.2 M411.55 194.65 Q410.5 193.3 409.5 190.75 L407.85 185.65 Q407.85 180.65 408.65 179.05 409.7 177.05 413.05 174.85 L416.3 173.6 414.65 175.8 413.45 177.0 411.85 179.15 Q411.05 180.5 411.05 181.7 L411.15 183.6 411.15 183.65 411.1 184.45 Q411.1 185.05 412.3 187.75 413.5 190.45 413.5 191.35 413.5 192.8 412.3 193.95 L412.1 194.1 411.55 194.6 411.55 194.65" fill="#f7f7ea" fill-rule="evenodd" stroke="none"/>
    <path d="M429.25 184.7 L428.75 185.8 Q428.55 186.65 428.85 187.1 L429.5 187.6 430.45 187.85 430.55 187.65 Q432.0 185.8 432.45 184.5 L433.1 181.4 Q433.3 179.05 432.35 177.25 L431.05 175.2 Q432.5 176.3 433.35 178.55 434.05 180.45 434.2 182.25 L433.4 185.95 433.3 186.45 433.25 186.55 433.2 186.9 433.15 187.2 433.1 187.25 433.05 187.75 432.8 187.85 432.75 187.85 Q432.3 188.0 432.0 188.75 431.65 188.4 431.05 188.25 L431.0 188.25 429.55 188.45 429.45 188.5 429.4 188.45 429.2 188.0 429.1 187.9 428.6 187.5 Q428.25 187.2 427.7 187.05 L428.35 186.05 429.1 185.0 429.25 184.7 M438.8 181.95 L439.0 182.0 439.65 182.55 439.85 182.9 440.15 183.25 Q440.8 183.95 441.05 185.0 L441.3 186.6 Q441.65 189.05 440.6 192.15 L440.55 192.4 440.25 193.4 440.1 193.85 439.6 194.95 439.55 195.2 439.15 196.1 438.55 196.7 437.85 196.9 Q437.5 196.2 436.4 195.95 L435.2 195.85 435.1 195.4 435.05 195.05 435.15 195.1 435.55 195.25 Q436.75 194.55 437.95 194.1 439.2 192.55 439.65 191.15 440.45 188.85 440.35 186.75 440.3 185.45 439.85 184.2 L438.8 181.95 M422.35 196.6 L422.4 196.6 Q423.1 195.5 423.1 194.5 L423.05 193.5 Q422.8 192.3 422.15 191.15 421.15 189.6 421.15 187.65 L421.15 187.25 421.0 185.9 Q421.0 182.9 422.85 180.95 L422.95 180.9 423.45 180.2 423.5 180.15 424.1 179.85 424.55 179.75 424.35 180.0 Q422.8 181.65 422.1 183.05 L422.05 183.15 421.85 183.7 421.85 183.6 Q421.5 184.5 421.4 185.5 L421.35 185.85 421.35 186.25 423.05 191.75 423.25 192.0 423.6 192.55 423.6 192.6 423.7 192.75 425.65 195.55 425.6 195.6 425.25 195.55 424.45 195.6 Q423.8 195.7 423.35 196.0 L423.1 196.2 Q422.75 196.55 422.65 197.15 L422.55 197.15 422.35 196.6 M416.3 173.6 L416.6 173.5 416.8 173.45 415.7 174.95 415.7 175.0 414.65 176.35 414.55 176.45 Q412.25 179.5 412.25 182.3 412.25 183.9 412.8 185.5 413.5 187.5 415.05 189.5 L416.4 191.2 416.7 193.0 Q416.15 193.05 415.9 193.4 L415.85 193.45 415.55 194.05 415.55 194.15 415.5 194.3 415.35 194.45 415.1 194.35 415.0 194.3 413.35 194.15 412.55 194.25 Q411.95 194.35 411.55 194.6 L412.1 194.1 412.3 193.95 Q413.5 192.8 413.5 191.35 413.5 190.45 412.3 187.75 411.1 185.05 411.1 184.45 L411.15 183.65 411.15 183.6 411.05 181.7 Q411.05 180.5 411.85 179.15 L413.45 177.0 414.65 175.8 416.3 173.6" fill="#cccccc" fill-rule="evenodd" stroke="none"/>
  </g>
</svg>
