<?xml version="1.0" encoding="UTF-8" standalone="no"?>
<svg xmlns:xlink="http://www.w3.org/1999/xlink" height="38.3px" width="42.9px" xmlns="http://www.w3.org/2000/svg">
  <g transform="matrix(1.0, 0.0, 0.0, 1.0, 21.5, 50.55)">
    <path d="M19.1 -13.75 L-19.2 -13.75 -19.2 -21.4 -20.0 -21.4 -20.0 -49.05 19.9 -49.05 19.9 -21.4 19.1 -21.4 19.1 -13.75 M-19.2 -21.4 L19.1 -21.4 -19.2 -21.4" fill="#9a9a9a" fill-rule="evenodd" stroke="none"/>
    <path d="M19.1 -13.75 L-19.2 -13.75 -19.2 -21.4 -20.0 -21.4 -20.0 -49.05 19.9 -49.05 19.9 -21.4 19.1 -21.4 19.1 -13.75 M19.1 -21.4 L-19.2 -21.4" fill="none" stroke="#9a9a9a" stroke-linecap="round" stroke-linejoin="round" stroke-width="3.0"/>
    <path d="M19.1 -13.65 L-19.15 -13.65 -19.15 -44.55 19.1 -44.55 19.1 -13.65" fill="#ffffff" fill-rule="evenodd" stroke="none"/>
    <path d="M16.95 -13.65 L-16.85 -13.65 -16.85 -44.55 16.95 -44.55 16.95 -13.65" fill="#dbdbdb" fill-rule="evenodd" stroke="none"/>
    <path d="M5.95 -17.5 L5.95 -23.1 13.7 -23.1 13.7 -17.5 5.95 -17.5 M-6.05 -23.1 L-6.05 -17.5 -13.8 -17.5 -13.8 -23.1 -6.05 -23.1" fill="#ffffff" fill-rule="evenodd" stroke="none"/>
    <path d="M-6.05 -23.1 L-13.8 -23.1 -13.8 -17.5 -6.05 -17.5 -6.05 -23.1 M5.95 -17.5 L13.7 -17.5 13.7 -23.1 5.95 -23.1 5.95 -17.5" fill="none" stroke="#ffffff" stroke-linecap="round" stroke-linejoin="miter" stroke-miterlimit="3.0" stroke-width="3.0"/>
    <path d="M5.95 -17.5 L5.95 -23.1 13.7 -23.1 13.7 -17.5 5.95 -17.5 M-6.05 -23.1 L-6.05 -17.5 -13.8 -17.5 -13.8 -23.1 -6.05 -23.1" fill="#b4f0ff" fill-rule="evenodd" stroke="none"/>
    <path d="M19.1 -18.7 L-19.15 -18.7 -19.15 -46.0 19.1 -46.0 19.1 -18.7" fill="#000000" fill-opacity="0.3019608" fill-rule="evenodd" stroke="none"/>
    <path d="M20.0 -21.45 L-19.95 -21.45 -19.95 -49.1 20.0 -49.1 20.0 -21.45" fill="#59acff" fill-rule="evenodd" stroke="none"/>
    <path d="M14.7 -21.45 L-14.6 -21.45 -14.6 -49.1 14.7 -49.1 14.7 -21.45" fill="#ffffff" fill-rule="evenodd" stroke="none"/>
    <path d="M8.3 -21.45 L-8.3 -21.45 -8.3 -49.1 8.3 -49.1 8.3 -21.45" fill="#dd0000" fill-rule="evenodd" stroke="none"/>
    <path d="M2.85 -21.45 L-2.95 -21.45 -2.95 -49.1 2.85 -49.1 2.85 -21.45" fill="#ffffff" fill-rule="evenodd" stroke="none"/>
    <path d="M20.0 -39.4 L-19.95 -39.4 -19.95 -49.05 20.0 -49.05 20.0 -39.4" fill="#000000" fill-opacity="0.2" fill-rule="evenodd" stroke="none"/>
  </g>
</svg>
