<?xml version="1.0" encoding="UTF-8" standalone="no"?>
<svg xmlns:xlink="http://www.w3.org/1999/xlink" height="64.0px" width="64.0px" xmlns="http://www.w3.org/2000/svg">
  <g transform="matrix(1.0, 0.0, 0.0, 1.0, 0.0, 0.0)">
    <path d="M48.45 60.3 L48.45 60.2 48.4 60.2 48.3 60.25 48.3 60.3 48.25 60.6 48.25 60.7 48.45 60.8 48.5 60.65 48.5 60.55 48.5 60.45 48.5 60.35 48.45 60.3 M46.15 59.75 L46.05 59.9 46.2 60.25 46.3 60.65 46.6 60.85 46.5 60.55 46.4 60.25 46.35 60.0 46.25 59.7 46.15 59.75 M48.0 59.9 L47.95 59.7 47.8 59.8 47.75 59.95 47.75 60.2 47.75 60.5 47.85 60.7 47.95 60.6 48.05 60.45 48.05 60.2 48.0 59.9 M45.25 60.1 L45.2 60.0 45.15 60.0 45.1 60.05 45.05 60.2 45.1 60.35 45.15 60.55 45.25 60.65 45.3 60.55 45.35 60.35 45.3 60.2 45.25 60.1 M42.5 60.7 L42.65 60.55 42.5 60.2 42.3 60.45 42.5 60.7 M41.2 60.0 L41.15 59.6 41.05 59.25 41.0 59.25 40.85 59.45 40.95 59.9 41.0 60.35 Q40.95 60.7 41.25 60.8 L41.3 60.75 41.25 60.35 41.2 60.0 M41.95 59.65 L41.9 59.65 41.8 59.7 41.75 59.95 41.75 60.2 41.8 60.5 41.85 60.8 41.95 60.75 42.0 60.5 42.0 60.2 42.05 59.95 41.95 59.65 M45.4 54.05 L45.15 53.8 45.0 53.85 Q44.85 53.85 44.8 53.95 L44.85 54.35 45.0 54.7 45.25 54.95 45.5 54.7 45.5 54.35 45.4 54.05 M42.65 55.15 L42.45 54.95 42.25 55.05 42.3 55.35 42.45 55.75 42.7 56.05 Q43.0 56.15 43.1 55.9 L43.1 55.75 42.95 55.55 42.8 55.35 42.65 55.15 M41.6 54.9 L41.6 54.8 41.6 54.7 41.6 54.6 41.55 54.55 41.45 54.45 41.25 54.45 41.15 54.7 41.0 55.1 41.0 55.45 Q40.95 55.75 41.25 55.8 L41.35 55.7 41.45 55.55 41.5 55.35 41.55 55.2 41.65 55.0 41.6 54.9 M14.8 62.0 L14.85 62.15 15.0 62.1 15.05 62.05 14.95 61.85 14.9 61.9 14.8 62.0 M15.7 62.35 L15.75 62.25 15.7 62.0 15.65 62.0 Q15.45 62.0 15.55 62.2 L15.7 62.35 M8.85 59.45 L8.85 59.35 8.85 59.25 8.8 59.15 Q8.7 59.1 8.65 59.2 L8.6 59.35 8.6 59.55 8.7 59.75 8.85 59.8 8.85 59.7 8.85 59.6 8.85 59.55 8.85 59.45 M8.25 59.55 L8.25 59.35 8.25 59.2 8.2 59.0 8.05 59.05 8.05 59.1 8.0 59.35 8.0 59.65 8.15 59.9 8.25 59.75 8.25 59.55 M7.4 58.9 L7.25 59.1 7.25 59.45 7.3 59.85 7.5 60.1 7.55 60.05 7.55 59.75 7.5 59.45 7.55 59.2 7.45 58.9 7.4 58.9 M5.45 55.85 L5.35 55.75 5.3 55.65 5.15 55.7 5.15 55.85 5.25 56.15 5.35 56.25 5.5 56.3 5.5 56.1 5.45 55.95 5.45 55.85 M6.45 55.8 L6.35 55.8 6.3 55.85 6.35 55.95 6.4 56.1 6.4 56.3 6.45 56.4 6.65 56.4 6.65 56.35 6.6 56.15 6.55 55.95 6.45 55.8 M9.85 56.05 L9.85 55.85 9.8 55.65 9.65 55.7 9.65 55.75 9.6 55.95 9.6 56.1 9.65 56.3 9.75 56.4 9.85 56.2 9.85 56.05 M3.55 59.7 L3.45 59.6 3.3 59.65 3.25 59.8 3.25 60.0 3.3 60.25 3.45 60.35 3.55 60.25 3.55 60.1 3.55 59.9 3.55 59.7 M4.5 55.45 L4.4 55.55 4.35 55.8 4.35 56.1 4.4 56.35 4.5 56.55 4.6 56.3 4.6 56.0 4.6 55.7 4.5 55.45 M3.65 55.3 L3.6 55.65 3.7 56.15 3.75 56.5 3.9 56.85 3.95 56.75 4.05 56.4 3.95 56.05 3.85 55.65 3.75 55.3 3.65 55.3 M4.4 50.05 L4.5 49.9 4.5 49.7 4.4 49.55 4.25 49.45 4.2 49.5 4.25 49.65 4.3 49.85 4.3 49.95 4.3 50.05 4.4 50.05 M8.9 55.55 L8.8 55.65 8.85 55.95 8.9 56.1 8.95 56.3 9.05 56.3 9.05 56.15 9.0 55.95 8.95 55.75 8.95 55.55 8.9 55.55 M9.95 50.15 L9.9 50.0 9.85 49.85 9.8 49.65 9.75 49.65 Q9.55 49.65 9.6 49.9 L9.7 50.1 9.8 50.45 10.0 50.4 10.0 50.3 9.95 50.15 M14.05 61.65 L14.0 61.8 14.15 62.1 14.3 62.35 Q14.4 62.6 14.55 62.35 L14.55 62.2 14.5 62.0 14.4 61.9 14.3 61.75 14.2 61.6 14.05 61.65 M10.6 58.65 L10.55 58.45 10.4 58.55 10.35 58.7 10.35 58.95 10.35 59.25 10.6 59.4 10.65 59.2 10.65 59.05 10.65 58.85 10.6 58.65 M10.5 56.0 L10.45 55.9 10.45 55.8 10.45 55.7 10.35 55.75 10.3 55.95 10.3 56.1 10.35 56.3 10.45 56.35 10.5 56.3 10.5 56.2 10.5 56.1 10.5 56.0 M11.55 56.1 L11.45 55.75 Q11.2 55.7 11.2 55.95 L11.4 56.25 11.55 56.1 M35.7 59.2 L35.5 59.35 35.55 59.8 35.65 60.25 Q35.65 60.65 36.0 60.7 L36.0 60.35 35.85 59.95 35.85 59.6 35.7 59.2 M37.7 59.85 L37.7 59.65 37.65 59.65 37.55 59.7 37.45 59.85 37.35 60.05 37.3 60.2 37.35 60.4 37.4 60.4 37.55 60.2 37.6 60.05 37.7 59.85 M36.75 60.0 L36.75 59.7 36.75 59.45 36.7 59.25 Q36.6 59.2 36.55 59.3 L36.5 59.55 36.5 59.8 36.5 60.1 36.7 60.3 36.7 60.2 36.75 60.0 M40.4 54.5 L40.35 54.85 40.5 55.1 40.55 55.0 40.6 54.75 40.65 54.45 40.75 54.2 40.7 53.9 40.65 53.9 40.5 54.1 40.4 54.5 M38.55 47.25 L38.45 47.5 38.45 47.85 38.45 48.25 38.75 48.6 38.85 48.25 38.85 47.85 38.85 47.5 38.7 47.2 38.55 47.25 M39.45 47.7 L39.3 47.75 39.25 47.9 39.25 48.2 39.25 48.45 Q39.2 48.65 39.45 48.65 L39.5 48.45 39.55 48.3 39.55 48.1 39.55 47.9 39.45 47.7 M37.7 47.1 Q37.45 47.1 37.45 47.35 L37.45 47.8 37.5 48.3 Q37.5 48.65 37.85 48.6 L37.95 48.25 37.9 47.85 37.8 47.5 37.7 47.1 M34.7 47.95 L34.6 47.95 34.55 48.1 34.55 48.4 34.65 48.7 34.75 48.8 34.75 48.7 34.75 48.5 34.75 48.3 34.7 48.1 34.7 47.95 M33.7 42.0 Q33.6 41.95 33.55 42.05 L33.5 42.2 33.5 42.45 33.5 42.75 33.7 42.95 33.8 42.75 33.8 42.55 33.8 42.35 33.75 42.2 33.7 42.0 M32.45 42.95 L32.6 42.7 32.45 42.35 32.4 42.35 Q32.15 42.4 32.15 42.7 L32.45 42.95 M38.45 40.95 L38.3 41.0 38.2 41.15 38.25 41.6 38.2 42.1 Q38.15 42.4 38.45 42.35 L38.5 42.25 38.55 42.0 38.55 41.6 38.6 41.25 38.45 40.95 M40.05 41.35 L39.9 41.4 39.8 41.65 39.8 41.95 39.85 42.2 40.2 42.4 40.3 42.3 40.3 42.05 40.2 41.85 40.1 41.55 40.05 41.35 M39.3 41.6 L39.3 41.4 39.2 41.2 39.05 41.25 39.0 41.4 38.95 41.7 38.95 41.95 39.2 42.15 39.3 42.05 39.35 41.85 39.3 41.6 M37.7 39.95 L37.6 40.0 Q37.45 40.2 37.45 40.45 L37.45 41.0 37.4 41.55 37.65 42.1 37.9 41.65 37.85 41.1 37.85 40.55 37.7 39.95 M29.2 34.35 L29.2 34.2 29.0 34.1 29.0 34.15 Q28.8 34.15 28.95 34.3 L29.2 34.35 M27.2 33.2 L27.15 33.2 27.0 33.4 27.0 33.8 26.95 34.15 27.25 34.4 27.3 34.3 27.3 34.05 27.3 33.75 27.3 33.45 27.2 33.2 M26.25 33.15 L26.05 32.6 26.0 32.6 Q25.7 32.65 25.75 32.95 L25.85 33.65 26.0 34.3 26.3 34.85 26.35 34.3 26.3 33.7 26.25 33.15 M29.85 33.9 L29.85 33.95 29.95 34.15 30.0 34.25 30.0 34.35 30.2 34.4 30.3 34.35 30.3 34.15 30.2 34.0 30.05 33.85 30.0 33.85 29.9 33.9 29.85 33.9 M28.3 33.8 L28.2 33.5 28.15 33.5 28.05 33.55 28.0 33.7 27.95 33.95 27.95 34.25 28.15 34.5 28.3 34.3 28.35 34.05 28.3 33.8 M23.75 24.95 L23.9 25.25 24.1 25.15 24.05 24.75 Q23.8 24.7 23.75 24.95 M39.15 35.25 L39.05 35.05 38.95 34.85 38.8 34.9 38.75 35.05 38.75 35.25 38.85 35.5 Q38.95 35.8 39.2 35.6 L39.15 35.45 39.15 35.25 M38.15 35.55 L38.1 35.25 38.0 35.05 37.95 35.45 38.0 36.05 38.25 36.1 38.25 35.85 38.15 35.55 M40.3 34.75 L40.25 34.75 Q40.05 34.75 40.05 35.05 40.1 35.3 40.25 35.2 L40.35 35.05 40.3 34.75 M36.9 34.1 L36.9 34.15 36.85 34.15 37.05 34.2 36.9 34.1 M33.9 34.9 Q33.65 34.9 33.6 35.2 L33.7 35.65 33.8 36.15 Q33.9 36.5 34.25 36.45 L34.45 36.05 34.3 35.65 34.15 35.2 33.9 34.85 33.9 34.9 M34.8 35.55 L34.7 35.35 34.55 35.4 34.45 35.55 34.45 35.95 34.55 36.2 34.8 36.4 34.9 36.3 34.95 36.1 34.95 35.85 34.8 35.55 M9.1 49.2 L9.05 49.45 9.05 49.75 8.95 50.05 8.95 50.3 9.0 50.3 9.2 50.0 9.25 49.75 9.25 49.45 9.2 49.2 9.1 49.2 M8.2 48.8 L8.1 48.85 8.05 49.3 8.05 49.8 8.05 50.25 Q8.0 50.6 8.2 50.6 L8.2 50.2 8.25 49.75 8.25 49.3 8.2 48.8 M2.25 48.95 Q2.1 49.05 2.2 49.25 L2.35 49.65 2.4 50.05 2.7 50.3 2.7 50.1 2.6 49.8 2.55 49.5 2.4 49.25 2.25 48.95 M3.2 49.15 L3.1 49.2 3.05 49.4 3.15 49.65 3.3 49.95 3.45 49.9 3.5 49.8 3.45 49.65 3.4 49.45 3.3 49.25 3.2 49.15 M22.8 24.45 L22.8 24.5 22.75 24.8 22.75 25.05 22.9 25.3 23.0 25.15 23.05 24.95 23.05 24.8 23.0 24.6 22.95 24.4 22.8 24.45 M20.7 24.4 L20.65 24.4 Q20.45 24.4 20.5 24.65 L20.65 25.1 20.8 25.5 21.15 25.55 21.05 25.25 20.95 24.95 20.85 24.65 20.7 24.4 M21.85 24.7 L21.7 24.5 21.6 24.55 Q21.5 24.7 21.55 24.85 L21.7 25.1 21.8 25.4 Q21.85 25.6 22.05 25.55 L22.05 25.45 22.05 25.15 21.95 24.85 21.85 24.7 M20.55 19.2 L20.5 19.05 20.45 19.1 20.4 19.2 20.4 19.4 20.4 19.7 Q20.4 19.9 20.7 19.85 L20.7 19.8 20.6 19.6 20.6 19.4 20.55 19.2 M21.2 18.75 Q21.0 18.7 21.05 18.9 L21.1 19.3 Q21.05 19.55 21.15 19.7 L21.5 19.85 21.55 19.8 21.45 19.5 21.4 19.3 21.35 19.05 21.2 18.75 M22.7 18.7 L22.6 18.75 22.55 19.0 22.5 19.3 22.5 19.55 22.65 19.8 22.75 19.55 22.75 19.3 22.75 19.0 22.7 18.7 M24.0 18.9 L24.05 18.7 24.0 18.55 23.9 18.6 23.85 18.7 23.8 18.9 23.8 19.1 23.85 19.3 23.9 19.25 23.95 19.1 24.0 18.9 M25.35 5.3 L25.4 5.3 25.3 4.9 25.25 4.55 25.25 4.05 25.2 3.7 25.15 3.7 Q25.0 3.7 25.0 3.9 L25.05 4.35 25.05 4.8 25.35 5.3 M26.15 3.35 L25.95 3.6 26.0 3.9 26.2 4.3 Q26.45 4.6 26.6 4.3 L26.55 4.15 26.45 3.95 26.35 3.75 26.3 3.55 26.2 3.35 26.15 3.35 M27.15 3.55 L27.05 3.15 27.0 3.15 26.8 3.45 26.85 3.95 26.9 4.35 Q27.0 4.7 27.25 4.55 L27.3 4.2 27.25 3.85 27.15 3.55 M29.3 2.9 L29.15 2.95 29.1 3.1 29.1 3.45 29.15 3.85 29.45 4.1 29.45 4.05 29.4 3.75 29.35 3.45 29.4 3.2 29.3 2.9 M30.5 3.8 L30.45 3.7 30.35 3.7 30.3 3.75 30.35 3.85 30.4 4.05 30.45 4.2 30.65 4.3 30.65 4.25 30.6 4.15 30.6 3.95 30.5 3.8 M31.3 3.75 L31.25 3.75 31.1 3.95 31.2 4.25 31.3 4.5 Q31.4 4.75 31.5 4.5 L31.5 4.4 31.5 4.2 31.45 4.05 31.4 3.95 31.3 3.75 M38.35 3.85 L38.35 3.6 38.3 3.4 38.15 3.45 38.1 3.7 38.1 3.95 38.1 4.25 38.3 4.45 38.35 4.35 38.35 4.15 38.35 3.85 M39.85 3.65 L39.75 3.45 39.65 3.55 39.6 3.75 39.6 3.95 39.65 4.1 39.7 4.3 39.8 4.15 39.85 4.0 39.85 3.8 39.85 3.65 M36.55 3.45 L36.45 3.15 36.35 3.2 36.25 3.35 36.25 3.7 36.3 4.1 36.5 4.3 36.5 4.0 36.5 3.7 36.55 3.45 M37.45 3.85 L37.4 3.55 37.3 3.25 37.2 3.3 37.05 3.55 37.15 3.9 37.25 4.3 37.45 4.55 37.5 4.45 37.55 4.2 37.45 3.85 M62.25 39.45 L62.3 39.35 62.3 39.15 62.15 39.2 62.15 39.4 62.25 39.45 M46.05 47.8 L45.95 47.4 45.9 47.4 45.75 47.6 45.75 48.05 45.8 48.55 46.2 48.9 46.15 48.5 46.05 48.15 46.05 47.8 M40.85 48.8 L40.9 48.75 40.85 48.55 40.8 48.3 40.7 48.1 40.65 48.1 40.55 48.15 40.45 48.3 40.45 48.5 40.5 48.65 40.65 48.85 40.85 48.8 M42.85 47.45 L42.95 47.8 43.0 48.2 Q42.95 48.45 43.25 48.35 L43.3 48.15 43.3 47.85 43.25 47.6 43.15 47.4 43.05 47.2 43.0 47.2 Q42.8 47.25 42.85 47.45 M44.95 41.2 L44.9 41.4 45.0 41.5 45.1 41.4 45.05 41.15 44.95 41.2 M42.65 40.65 L42.55 40.8 42.5 41.05 42.5 41.45 42.75 41.7 42.85 41.6 42.9 41.45 42.95 41.15 42.95 40.85 42.8 40.6 42.65 40.65 M41.3 40.1 L41.15 40.15 41.05 40.3 41.1 40.8 41.2 41.25 Q41.2 41.6 41.55 41.6 L41.6 41.25 41.6 40.85 41.5 40.45 41.3 40.1 M46.35 19.5 L46.35 19.7 46.4 19.75 46.45 19.6 46.45 19.45 Q46.35 19.4 46.35 19.5 M45.2 19.95 L45.45 20.1 45.6 19.9 45.3 19.65 Q45.2 19.65 45.15 19.75 45.05 19.85 45.2 19.95 M62.9 21.0 L62.85 21.1 62.85 21.3 62.9 21.6 62.95 21.8 63.05 21.65 63.1 21.45 63.1 21.3 63.1 21.1 63.05 20.9 Q62.95 20.9 62.9 21.0 M62.0 21.15 L61.9 21.3 61.85 21.55 61.85 21.85 61.95 22.1 62.0 22.05 62.1 21.9 62.1 21.6 62.1 21.35 62.05 21.15 62.0 21.15 M61.15 21.3 L61.1 21.45 61.1 21.7 61.1 22.1 61.45 22.35 61.5 22.3 61.45 22.1 Q61.35 21.95 61.4 21.8 L61.4 21.55 61.3 21.25 Q61.2 21.2 61.15 21.3 M0.0 64.0 L0.0 0.0 64.0 0.0 64.0 64.0 0.0 64.0" fill="#55a901" fill-rule="evenodd" stroke="none"/>
    <path d="M61.15 21.3 Q61.2 21.2 61.3 21.25 L61.4 21.55 61.4 21.8 Q61.35 21.95 61.45 22.1 L61.5 22.3 61.45 22.35 61.1 22.1 61.1 21.7 61.1 21.45 61.15 21.3 M62.0 21.15 L62.05 21.15 62.1 21.35 62.1 21.6 62.1 21.9 62.0 22.05 61.95 22.1 61.85 21.85 61.85 21.55 61.9 21.3 62.0 21.15 M62.9 21.0 Q62.95 20.9 63.05 20.9 L63.1 21.1 63.1 21.3 63.1 21.45 63.05 21.65 62.95 21.8 62.9 21.6 62.85 21.3 62.85 21.1 62.9 21.0 M45.2 19.95 Q45.05 19.85 45.15 19.75 45.2 19.65 45.3 19.65 L45.6 19.9 45.45 20.1 45.2 19.95 M46.35 19.5 Q46.35 19.4 46.45 19.45 L46.45 19.6 46.4 19.75 46.35 19.7 46.35 19.5 M41.3 40.1 L41.5 40.45 41.6 40.85 41.6 41.25 41.55 41.6 Q41.2 41.6 41.2 41.25 L41.1 40.8 41.05 40.3 41.15 40.15 41.3 40.1 M42.65 40.65 L42.8 40.6 42.95 40.85 42.95 41.15 42.9 41.45 42.85 41.6 42.75 41.7 42.5 41.45 42.5 41.05 42.55 40.8 42.65 40.65 M44.95 41.2 L45.05 41.15 45.1 41.4 45.0 41.5 44.9 41.4 44.95 41.2 M42.85 47.45 Q42.8 47.25 43.0 47.2 L43.05 47.2 43.15 47.4 43.25 47.6 43.3 47.85 43.3 48.15 43.25 48.35 Q42.95 48.45 43.0 48.2 L42.95 47.8 42.85 47.45 M40.85 48.8 L40.65 48.85 40.5 48.65 40.45 48.5 40.45 48.3 40.55 48.15 40.65 48.1 40.7 48.1 40.8 48.3 40.85 48.55 40.9 48.75 40.85 48.8 M46.05 47.8 L46.05 48.15 46.15 48.5 46.2 48.9 45.8 48.55 45.75 48.05 45.75 47.6 45.9 47.4 45.95 47.4 46.05 47.8 M62.25 39.45 L62.15 39.4 62.15 39.2 62.3 39.15 62.3 39.35 62.25 39.45 M37.45 3.85 L37.55 4.2 37.5 4.45 37.45 4.55 37.25 4.3 37.15 3.9 37.05 3.55 37.2 3.3 37.3 3.25 37.4 3.55 37.45 3.85 M36.55 3.45 L36.5 3.7 36.5 4.0 36.5 4.3 36.3 4.1 36.25 3.7 36.25 3.35 36.35 3.2 36.45 3.15 36.55 3.45 M39.85 3.65 L39.85 3.8 39.85 4.0 39.8 4.15 39.7 4.3 39.65 4.1 39.6 3.95 39.6 3.75 39.65 3.55 39.75 3.45 39.85 3.65 M38.35 3.85 L38.35 4.15 38.35 4.35 38.3 4.45 38.1 4.25 38.1 3.95 38.1 3.7 38.15 3.45 38.3 3.4 38.35 3.6 38.35 3.85 M31.3 3.75 L31.4 3.95 31.45 4.05 31.5 4.2 31.5 4.4 31.5 4.5 Q31.4 4.75 31.3 4.5 L31.2 4.25 31.1 3.95 31.25 3.75 31.3 3.75 M30.5 3.8 L30.6 3.95 30.6 4.15 30.65 4.25 30.65 4.3 30.45 4.2 30.4 4.05 30.35 3.85 30.3 3.75 30.35 3.7 30.45 3.7 30.5 3.8 M29.3 2.9 L29.4 3.2 29.35 3.45 29.4 3.75 29.45 4.05 29.45 4.1 29.15 3.85 29.1 3.45 29.1 3.1 29.15 2.95 29.3 2.9 M27.15 3.55 L27.25 3.85 27.3 4.2 27.25 4.55 Q27.0 4.7 26.9 4.35 L26.85 3.95 26.8 3.45 27.0 3.15 27.05 3.15 27.15 3.55 M26.15 3.35 L26.2 3.35 26.3 3.55 26.35 3.75 26.45 3.95 26.55 4.15 26.6 4.3 Q26.45 4.6 26.2 4.3 L26.0 3.9 25.95 3.6 26.15 3.35 M25.35 5.3 L25.05 4.8 25.05 4.35 25.0 3.9 Q25.0 3.7 25.15 3.7 L25.2 3.7 25.25 4.05 25.25 4.55 25.3 4.9 25.4 5.3 25.35 5.3 M24.0 18.9 L23.95 19.1 23.9 19.25 23.85 19.3 23.8 19.1 23.8 18.9 23.85 18.7 23.9 18.6 24.0 18.55 24.05 18.7 24.0 18.9 M22.7 18.7 L22.75 19.0 22.75 19.3 22.75 19.55 22.65 19.8 22.5 19.55 22.5 19.3 22.55 19.0 22.6 18.75 22.7 18.7 M21.2 18.75 L21.35 19.05 21.4 19.3 21.45 19.5 21.55 19.8 21.5 19.85 21.15 19.7 Q21.05 19.55 21.1 19.3 L21.05 18.9 Q21.0 18.7 21.2 18.75 M20.55 19.2 L20.6 19.4 20.6 19.6 20.7 19.8 20.7 19.85 Q20.4 19.9 20.4 19.7 L20.4 19.4 20.4 19.2 20.45 19.1 20.5 19.05 20.55 19.2 M21.85 24.7 L21.95 24.85 22.05 25.15 22.05 25.45 22.05 25.55 Q21.85 25.6 21.8 25.4 L21.7 25.1 21.55 24.85 Q21.5 24.7 21.6 24.55 L21.7 24.5 21.85 24.7 M20.7 24.4 L20.85 24.65 20.95 24.95 21.05 25.25 21.15 25.55 20.8 25.5 20.65 25.1 20.5 24.65 Q20.45 24.4 20.65 24.4 L20.7 24.4 M22.8 24.45 L22.95 24.4 23.0 24.6 23.05 24.8 23.05 24.95 23.0 25.15 22.9 25.3 22.75 25.05 22.75 24.8 22.8 24.5 22.8 24.45 M3.2 49.15 L3.3 49.25 3.4 49.45 3.45 49.65 3.5 49.8 3.45 49.9 3.3 49.95 3.15 49.65 3.05 49.4 3.1 49.2 3.2 49.15 M2.25 48.95 L2.4 49.25 2.55 49.5 2.6 49.8 2.7 50.1 2.7 50.3 2.4 50.05 2.35 49.65 2.2 49.25 Q2.1 49.05 2.25 48.95 M8.2 48.8 L8.25 49.3 8.25 49.75 8.2 50.2 8.2 50.6 Q8.0 50.6 8.05 50.25 L8.05 49.8 8.05 49.3 8.1 48.85 8.2 48.8 M9.1 49.2 L9.2 49.2 9.25 49.45 9.25 49.75 9.2 50.0 9.0 50.3 8.95 50.3 8.95 50.05 9.05 49.75 9.05 49.45 9.1 49.2 M34.8 35.55 L34.95 35.85 34.95 36.1 34.9 36.3 34.8 36.4 34.55 36.2 34.45 35.95 34.45 35.55 34.55 35.4 34.7 35.35 34.8 35.55 M33.9 34.9 L33.9 34.85 34.15 35.2 34.3 35.65 34.45 36.05 34.25 36.45 Q33.9 36.5 33.8 36.15 L33.7 35.65 33.6 35.2 Q33.65 34.9 33.9 34.9 M36.9 34.1 L37.05 34.2 36.85 34.15 36.9 34.15 36.9 34.1 M40.3 34.75 L40.35 35.05 40.25 35.2 Q40.1 35.3 40.05 35.05 40.05 34.75 40.25 34.75 L40.3 34.75 M38.15 35.55 L38.25 35.85 38.25 36.1 38.0 36.05 37.95 35.45 38.0 35.05 38.1 35.25 38.15 35.55 M39.15 35.25 L39.15 35.45 39.2 35.6 Q38.95 35.8 38.85 35.5 L38.75 35.25 38.75 35.05 38.8 34.9 38.95 34.85 39.05 35.05 39.15 35.25 M23.75 24.95 Q23.8 24.7 24.05 24.75 L24.1 25.15 23.9 25.25 23.75 24.95 M28.3 33.8 L28.35 34.05 28.3 34.3 28.15 34.5 27.95 34.25 27.95 33.95 28.0 33.7 28.05 33.55 28.15 33.5 28.2 33.5 28.3 33.8 M29.85 33.9 L29.9 33.9 30.0 33.85 30.05 33.85 30.2 34.0 30.3 34.15 30.3 34.35 30.2 34.4 30.0 34.35 30.0 34.25 29.95 34.15 29.85 33.95 29.85 33.9 M26.25 33.15 L26.3 33.7 26.35 34.3 26.3 34.85 26.0 34.3 25.85 33.65 25.75 32.95 Q25.7 32.65 26.0 32.6 L26.05 32.6 26.25 33.15 M27.2 33.2 L27.3 33.45 27.3 33.75 27.3 34.05 27.3 34.3 27.25 34.4 26.95 34.15 27.0 33.8 27.0 33.4 27.15 33.2 27.2 33.2 M29.2 34.35 L28.95 34.3 Q28.8 34.15 29.0 34.15 L29.0 34.1 29.2 34.2 29.2 34.35 M37.7 39.95 L37.85 40.55 37.85 41.1 37.9 41.65 37.65 42.1 37.4 41.55 37.45 41.0 37.45 40.45 Q37.45 40.2 37.6 40.0 L37.7 39.95 M39.3 41.6 L39.35 41.85 39.3 42.05 39.2 42.15 38.95 41.95 38.95 41.7 39.0 41.4 39.05 41.25 39.2 41.2 39.3 41.4 39.3 41.6 M40.05 41.35 L40.1 41.55 40.2 41.85 40.3 42.05 40.3 42.3 40.2 42.4 39.85 42.2 39.8 41.95 39.8 41.65 39.9 41.4 40.05 41.35 M38.45 40.95 L38.6 41.25 38.55 41.6 38.55 42.0 38.5 42.25 38.45 42.35 Q38.15 42.4 38.2 42.1 L38.25 41.6 38.2 41.15 38.3 41.0 38.45 40.95 M32.45 42.95 L32.15 42.7 Q32.15 42.4 32.4 42.35 L32.45 42.35 32.6 42.7 32.45 42.95 M33.7 42.0 L33.75 42.2 33.8 42.35 33.8 42.55 33.8 42.75 33.7 42.95 33.5 42.75 33.5 42.45 33.5 42.2 33.55 42.05 Q33.6 41.95 33.7 42.0 M34.7 47.95 L34.7 48.1 34.75 48.3 34.75 48.5 34.75 48.7 34.75 48.8 34.65 48.7 34.55 48.4 34.55 48.1 34.6 47.95 34.7 47.95 M37.7 47.1 L37.8 47.5 37.9 47.85 37.95 48.25 37.85 48.6 Q37.5 48.65 37.5 48.3 L37.45 47.8 37.45 47.35 Q37.45 47.1 37.7 47.1 M39.45 47.7 L39.55 47.9 39.55 48.1 39.55 48.3 39.5 48.45 39.45 48.65 Q39.2 48.65 39.25 48.45 L39.25 48.2 39.25 47.9 39.3 47.75 39.45 47.7 M38.55 47.25 L38.7 47.2 38.85 47.5 38.85 47.85 38.85 48.25 38.75 48.6 38.45 48.25 38.45 47.85 38.45 47.5 38.55 47.25 M40.4 54.5 L40.5 54.1 40.65 53.9 40.7 53.9 40.75 54.2 40.65 54.45 40.6 54.75 40.55 55.0 40.5 55.1 40.35 54.85 40.4 54.5 M36.75 60.0 L36.7 60.2 36.7 60.3 36.5 60.1 36.5 59.8 36.5 59.55 36.55 59.3 Q36.6 59.2 36.7 59.25 L36.75 59.45 36.75 59.7 36.75 60.0 M37.7 59.85 L37.6 60.05 37.55 60.2 37.4 60.4 37.35 60.4 37.3 60.2 37.35 60.05 37.45 59.85 37.55 59.7 37.65 59.65 37.7 59.65 37.7 59.85 M35.7 59.2 L35.85 59.6 35.85 59.95 36.0 60.35 36.0 60.7 Q35.65 60.65 35.65 60.25 L35.55 59.8 35.5 59.35 35.7 59.2 M11.55 56.1 L11.4 56.25 11.2 55.95 Q11.2 55.7 11.45 55.75 L11.55 56.1 M10.5 56.0 L10.5 56.1 10.5 56.2 10.5 56.3 10.45 56.35 10.35 56.3 10.3 56.1 10.3 55.95 10.35 55.75 10.45 55.7 10.45 55.8 10.45 55.9 10.5 56.0 M10.6 58.65 L10.65 58.85 10.65 59.05 10.65 59.2 10.6 59.4 10.35 59.25 10.35 58.95 10.35 58.7 10.4 58.55 10.55 58.45 10.6 58.65 M14.05 61.65 L14.2 61.6 14.3 61.75 14.4 61.9 14.5 62.0 14.55 62.2 14.55 62.35 Q14.4 62.6 14.3 62.35 L14.15 62.1 14.0 61.8 14.05 61.65 M9.95 50.15 L10.0 50.3 10.0 50.4 9.8 50.45 9.7 50.1 9.6 49.9 Q9.55 49.65 9.75 49.65 L9.8 49.65 9.85 49.85 9.9 50.0 9.95 50.15 M8.9 55.55 L8.95 55.55 8.95 55.75 9.0 55.95 9.05 56.15 9.05 56.3 8.95 56.3 8.9 56.1 8.85 55.95 8.8 55.65 8.9 55.55 M4.4 50.05 L4.3 50.05 4.3 49.95 4.3 49.85 4.25 49.65 4.2 49.5 4.25 49.45 4.4 49.55 4.5 49.7 4.5 49.9 4.4 50.05 M3.65 55.3 L3.75 55.3 3.85 55.65 3.95 56.05 4.05 56.4 3.95 56.75 3.9 56.85 3.75 56.5 3.7 56.15 3.6 55.65 3.65 55.3 M4.5 55.45 L4.6 55.7 4.6 56.0 4.6 56.3 4.5 56.55 4.4 56.35 4.35 56.1 4.35 55.8 4.4 55.55 4.5 55.45 M3.55 59.7 L3.55 59.9 3.55 60.1 3.55 60.25 3.45 60.35 3.3 60.25 3.25 60.0 3.25 59.8 3.3 59.65 3.45 59.6 3.55 59.7 M9.85 56.05 L9.85 56.2 9.75 56.4 9.65 56.3 9.6 56.1 9.6 55.95 9.65 55.75 9.65 55.7 9.8 55.65 9.85 55.85 9.85 56.05 M6.45 55.8 L6.55 55.95 6.6 56.15 6.65 56.35 6.65 56.4 6.45 56.4 6.4 56.3 6.4 56.1 6.35 55.95 6.3 55.85 6.35 55.8 6.45 55.8 M5.45 55.85 L5.45 55.95 5.5 56.1 5.5 56.3 5.35 56.25 5.25 56.15 5.15 55.85 5.15 55.7 5.3 55.65 5.35 55.75 5.45 55.85 M7.4 58.9 L7.45 58.9 7.55 59.2 7.5 59.45 7.55 59.75 7.55 60.05 7.5 60.1 7.3 59.85 7.25 59.45 7.25 59.1 7.4 58.9 M8.25 59.55 L8.25 59.75 8.15 59.9 8.0 59.65 8.0 59.35 8.05 59.1 8.05 59.05 8.2 59.0 8.25 59.2 8.25 59.35 8.25 59.55 M8.85 59.45 L8.85 59.55 8.85 59.6 8.85 59.7 8.85 59.8 8.7 59.75 8.6 59.55 8.6 59.35 8.65 59.2 Q8.7 59.1 8.8 59.15 L8.85 59.25 8.85 59.35 8.85 59.45 M15.7 62.35 L15.55 62.2 Q15.45 62.0 15.65 62.0 L15.7 62.0 15.75 62.25 15.7 62.35 M14.8 62.0 L14.9 61.9 14.95 61.85 15.05 62.05 15.0 62.1 14.85 62.15 14.8 62.0 M41.6 54.9 L41.65 55.0 41.55 55.2 41.5 55.35 41.45 55.55 41.35 55.7 41.25 55.8 Q40.95 55.75 41.0 55.45 L41.0 55.1 41.15 54.7 41.25 54.45 41.45 54.45 41.55 54.55 41.6 54.6 41.6 54.7 41.6 54.8 41.6 54.9 M42.65 55.15 L42.8 55.35 42.95 55.55 43.1 55.75 43.1 55.9 Q43.0 56.15 42.7 56.05 L42.45 55.75 42.3 55.35 42.25 55.05 42.45 54.95 42.65 55.15 M45.4 54.05 L45.5 54.35 45.5 54.7 45.25 54.95 45.0 54.7 44.85 54.35 44.8 53.95 Q44.85 53.85 45.0 53.85 L45.15 53.8 45.4 54.05 M41.95 59.65 L42.05 59.95 42.0 60.2 42.0 60.5 41.95 60.75 41.85 60.8 41.8 60.5 41.75 60.2 41.75 59.95 41.8 59.7 41.9 59.65 41.95 59.65 M41.2 60.0 L41.25 60.35 41.3 60.75 41.25 60.8 Q40.95 60.7 41.0 60.35 L40.95 59.9 40.85 59.45 41.0 59.25 41.05 59.25 41.15 59.6 41.2 60.0 M42.5 60.7 L42.3 60.45 42.5 60.2 42.65 60.55 42.5 60.7 M45.25 60.1 L45.3 60.2 45.35 60.35 45.3 60.55 45.25 60.65 45.15 60.55 45.1 60.35 45.05 60.2 45.1 60.05 45.15 60.0 45.2 60.0 45.25 60.1 M48.0 59.9 L48.05 60.2 48.05 60.45 47.95 60.6 47.85 60.7 47.75 60.5 47.75 60.2 47.75 59.95 47.8 59.8 47.95 59.7 48.0 59.9 M46.15 59.75 L46.25 59.7 46.35 60.0 46.4 60.25 46.5 60.55 46.6 60.85 46.3 60.65 46.2 60.25 46.05 59.9 46.15 59.75 M48.45 60.3 L48.5 60.35 48.5 60.45 48.5 60.55 48.5 60.65 48.45 60.8 48.25 60.7 48.25 60.6 48.3 60.3 48.3 60.25 48.4 60.2 48.45 60.2 48.45 60.3" fill="#6ad301" fill-rule="evenodd" stroke="none"/>
  </g>
</svg>
