<?xml version="1.0" encoding="UTF-8" standalone="no"?>
<svg xmlns:xlink="http://www.w3.org/1999/xlink" height="96.3px" width="57.15px" xmlns="http://www.w3.org/2000/svg">
  <g transform="matrix(1.0, 0.0, 0.0, 1.0, -3.5, 36.85)">
    <path d="M18.4 -4.95 L45.3 -4.95 46.35 -4.95 46.4 -4.9 46.4 -4.85 49.95 1.45 51.5 1.45 53.15 1.45 53.15 1.5 53.15 1.55 58.7 11.3 59.65 58.45 4.5 58.45 5.5 11.3 11.0 1.75 11.0 1.5 11.1 1.5 11.1 1.45 11.95 1.45 14.2 1.45 17.75 -4.75 17.75 -4.9 17.85 -4.9 17.85 -4.95 18.4 -4.95" fill="#d7a200" fill-rule="evenodd" stroke="none"/>
    <path d="M18.4 -4.95 L45.3 -4.95 46.35 -4.95 46.4 -4.9 46.4 -4.85 49.95 1.45 51.5 1.45 53.15 1.45 53.15 1.5 53.15 1.55 58.7 11.3 59.65 58.45 4.5 58.45 5.5 11.3 11.0 1.75 11.0 1.5 11.1 1.5 11.1 1.45 11.95 1.45 14.2 1.45 17.75 -4.75 17.75 -4.9 17.85 -4.9 17.85 -4.95 18.4 -4.95 Z" fill="none" stroke="#985a10" stroke-linecap="round" stroke-linejoin="round" stroke-width="2.0"/>
    <path d="M53.15 1.55 L58.7 11.3 59.65 58.45 59.5 58.45 52.95 36.5 53.45 36.5 53.15 1.55 M51.5 1.45 L53.15 1.45 53.15 1.5 51.5 1.5 51.5 1.45" fill="#ffc922" fill-rule="evenodd" stroke="none"/>
    <path d="M11.0 1.75 L11.0 1.5 11.1 1.5 11.95 1.5 51.5 1.5 53.15 1.5 53.15 1.55 53.45 36.5 52.95 36.5 10.8 36.5 10.7 36.5 11.0 1.75" fill="#ffd351" fill-rule="evenodd" stroke="none"/>
    <path d="M59.5 58.45 L4.5 58.45 10.8 36.5 52.95 36.5 59.5 58.45 M11.95 1.45 L51.5 1.45 51.5 1.5 11.95 1.5 11.95 1.45" fill="#fdbe00" fill-rule="evenodd" stroke="none"/>
    <path d="M4.5 58.45 L5.5 11.3 11.0 1.75 10.7 36.5 10.8 36.5 4.5 58.45 M11.1 1.5 L11.1 1.45 11.95 1.45 11.95 1.5 11.1 1.5" fill="#d7a200" fill-rule="evenodd" stroke="none"/>
    <path d="M17.85 -4.9 L17.85 -4.95 18.4 -4.95 18.4 -4.9 17.85 -4.9 M14.0 30.45 L14.15 1.55 17.75 -4.75 18.05 16.05 18.1 16.05 14.0 30.45" fill="#d7a200" fill-rule="evenodd" stroke="none"/>
    <path d="M17.75 -4.75 L17.75 -4.9 17.85 -4.9 18.4 -4.9 45.3 -4.9 46.4 -4.9 46.4 -4.85 46.1 16.05 45.75 16.05 18.1 16.05 18.05 16.05 17.75 -4.75" fill="#ffd351" fill-rule="evenodd" stroke="none"/>
    <path d="M18.4 -4.95 L45.3 -4.95 45.3 -4.9 18.4 -4.9 18.4 -4.95 M50.1 30.45 L14.0 30.45 18.1 16.05 45.75 16.05 50.1 30.45" fill="#fdbe00" fill-rule="evenodd" stroke="none"/>
    <path d="M45.3 -4.95 L46.35 -4.95 46.4 -4.9 45.3 -4.9 45.3 -4.95 M46.4 -4.85 L50.0 1.55 50.2 30.45 50.1 30.45 45.75 16.05 46.1 16.05 46.4 -4.85" fill="#ffc922" fill-rule="evenodd" stroke="none"/>
    <path d="M17.75 -4.9 L17.85 -4.9 18.4 -4.9 45.3 -4.9 46.4 -4.9 46.4 -4.85 46.25 7.5 45.75 8.9 44.25 12.45 42.3 16.05 41.35 16.05 40.4 15.45 37.7 14.0 Q34.95 12.85 33.45 11.55 32.75 11.0 31.5 12.1 L29.4 13.95 26.6 15.1 Q25.15 15.7 24.65 16.05 L18.05 16.05 17.75 -4.75 17.75 -4.9" fill="#d7a200" fill-rule="evenodd" stroke="none"/>
    <path d="M42.4 24.2 Q42.4 24.55 42.85 24.55 43.25 24.55 43.25 24.4 L43.35 24.0 Q43.05 23.55 42.65 23.75 42.4 23.9 42.4 24.2 M41.1 22.6 L40.9 22.65 40.45 22.35 40.25 22.0 Q40.25 21.5 40.7 21.75 L41.15 22.4 41.1 22.6 M42.4 21.7 Q42.4 21.25 42.7 21.25 43.05 21.25 43.05 21.75 L42.8 22.4 Q42.4 22.4 42.4 21.7 M44.0 23.95 L43.8 24.7 Q43.45 25.2 42.95 25.2 42.05 25.2 41.9 24.75 L41.85 24.2 Q41.85 23.0 43.05 23.0 43.6 23.0 43.9 23.45 L44.0 23.95 M43.95 22.05 Q43.95 21.5 44.4 21.35 44.85 21.2 44.85 21.7 L44.65 22.15 44.25 22.5 Q43.95 22.5 43.95 22.05 M44.85 23.95 Q44.85 23.45 45.85 23.45 46.25 23.45 46.25 23.8 L46.0 24.15 45.2 24.35 Q44.85 24.35 44.85 23.95 M45.3 26.15 L44.85 25.9 44.6 25.55 Q44.6 25.1 45.1 25.25 45.55 25.4 45.55 25.8 L45.45 26.0 45.3 26.15 M42.4 26.95 L42.4 26.7 Q42.4 26.2 42.7 26.15 43.05 26.1 43.05 26.7 43.05 27.2 42.7 27.2 L42.4 26.95 M41.05 25.8 L40.7 26.3 40.3 26.6 40.0 26.45 40.0 26.25 Q40.0 26.0 40.3 25.7 40.65 25.35 41.0 25.55 L41.05 25.8 M46.15 42.25 L47.2 44.85 47.45 44.95 47.65 44.55 48.95 42.7 Q49.0 42.6 49.2 42.6 L49.5 42.6 49.0 45.45 51.55 45.2 Q51.75 45.4 51.6 45.65 L50.25 47.1 50.9 47.35 52.15 48.1 Q52.4 48.35 52.15 48.7 L50.3 49.25 50.25 49.35 50.9 50.65 51.1 51.45 49.55 51.3 48.8 51.1 48.55 52.15 48.1 53.25 Q47.6 53.85 47.0 52.55 L46.75 51.85 46.45 52.25 45.55 53.1 Q44.7 53.65 44.8 52.7 L44.95 51.4 45.0 50.9 44.15 51.5 Q43.15 52.1 42.9 51.9 L43.85 49.25 43.7 48.95 42.6 48.7 Q41.15 48.25 41.5 47.8 43.25 46.7 43.8 46.5 L43.85 46.45 43.45 46.15 Q42.95 45.7 42.6 45.05 42.2 44.4 42.35 44.2 L43.7 44.35 Q44.9 44.7 45.3 45.1 L45.45 45.05 45.35 44.2 Q45.4 42.55 45.6 42.3 L46.15 42.25 M40.55 42.2 L38.95 43.2 Q38.45 43.2 38.45 42.8 38.45 42.55 40.25 41.15 41.9 39.7 41.9 40.85 L40.55 42.2 M44.2 46.0 L44.7 45.55 43.9 45.25 43.8 45.2 44.2 46.0 M44.65 48.85 Q45.7 50.05 45.95 50.7 47.25 50.95 47.9 50.7 L48.95 49.75 49.25 49.3 Q48.95 49.2 49.35 48.7 L48.75 46.85 Q47.6 45.45 46.2 45.65 45.3 45.8 44.9 46.3 43.95 47.5 44.55 48.75 L44.6 48.75 44.65 48.85 M43.55 47.85 L43.6 47.4 42.65 47.9 43.5 48.15 43.55 48.15 43.55 47.85 M48.25 45.3 L48.3 44.8 48.25 44.75 47.8 45.05 48.25 45.35 48.25 45.3 M49.55 46.1 L49.05 46.05 49.55 46.75 50.25 46.0 49.55 46.1 M46.05 44.8 L46.45 44.75 46.2 44.15 46.05 44.8 M47.3 47.0 Q47.9 47.6 47.85 48.25 L47.6 48.75 Q46.8 49.75 45.85 48.9 44.9 48.05 45.55 47.2 45.8 46.9 46.1 46.8 46.75 46.55 47.3 47.0 M47.1 48.3 Q47.25 48.1 46.8 47.75 46.45 47.4 46.15 47.75 45.95 48.05 46.4 48.3 46.85 48.6 47.1 48.3 M50.05 48.45 L50.7 48.3 50.75 48.25 50.1 48.0 50.05 48.45 M30.1 17.5 L30.85 18.45 31.55 17.3 Q32.45 16.05 32.45 16.75 L33.2 17.9 33.65 18.85 Q33.95 18.65 34.55 18.35 L35.85 18.4 35.15 20.1 35.1 20.15 36.5 20.05 36.8 20.45 35.9 21.9 36.7 22.0 37.75 22.0 38.0 22.35 36.1 23.9 36.5 24.25 37.8 25.65 Q37.8 26.1 35.05 26.5 L35.4 27.05 35.8 28.35 Q35.8 28.9 35.4 28.9 34.95 28.9 33.9 28.3 L33.35 27.95 Q32.95 30.3 32.7 30.3 32.25 30.3 31.55 29.25 L31.05 28.4 29.55 30.1 Q29.1 30.1 28.8 28.7 L28.7 27.65 28.25 27.9 26.85 28.55 26.55 28.35 26.55 28.1 Q26.55 27.2 27.35 26.0 L27.5 25.75 25.45 25.75 25.1 25.35 Q25.1 25.05 26.1 24.4 26.4 24.2 26.65 24.1 L25.5 23.35 24.75 22.5 Q24.75 22.3 25.8 22.0 L27.1 21.7 26.65 20.65 26.2 19.2 Q26.2 18.6 27.45 19.1 L28.15 19.45 Q28.15 18.2 28.75 17.2 29.1 16.4 30.1 17.5 M29.25 17.85 L28.95 19.2 30.0 18.65 29.8 18.5 29.25 17.85 M20.7 24.05 Q20.7 23.65 20.15 23.65 19.6 23.6 19.6 24.15 19.6 24.6 20.4 24.6 20.65 24.6 20.7 24.05 M22.3 22.35 Q21.9 22.5 21.75 22.6 L21.45 22.3 21.65 21.95 Q21.9 21.6 22.2 21.6 22.55 21.6 22.55 21.95 L22.3 22.35 M23.3 24.7 L22.6 24.45 23.8 24.4 23.3 24.7 M28.45 20.1 Q27.9 20.55 27.6 21.35 L27.75 21.7 27.7 21.9 27.7 21.95 27.45 22.2 27.35 23.2 27.4 23.55 27.5 23.8 27.45 24.05 27.9 25.25 28.1 25.4 28.1 25.5 28.1 25.6 28.9 26.75 Q29.3 26.75 29.3 27.05 L29.3 27.1 30.3 27.4 Q35.0 27.4 35.0 23.1 35.0 19.4 31.2 19.3 29.6 19.25 28.7 19.95 L28.55 20.0 28.45 20.1 M27.5 21.05 L27.75 20.6 28.1 20.1 27.65 19.9 27.05 19.8 27.5 21.05 M27.0 22.4 L26.05 22.7 26.85 23.2 Q26.85 22.8 27.0 22.4 M29.4 22.0 Q30.0 20.95 31.15 20.95 32.7 20.95 33.2 22.15 33.5 22.75 33.45 23.45 33.45 25.8 31.25 25.8 29.95 25.8 29.4 24.75 29.0 24.05 29.0 23.3 29.0 22.65 29.4 22.0 M32.2 17.3 L31.35 18.5 32.65 18.75 32.55 18.55 Q32.2 17.75 32.2 17.3 M34.5 20.05 L34.65 19.65 35.05 18.9 35.05 18.85 Q34.4 19.0 34.05 19.3 L33.85 19.4 34.5 20.05 M35.4 21.4 L35.9 20.75 35.95 20.65 35.05 20.8 35.4 21.4 M30.7 23.85 L31.35 24.3 Q32.1 24.3 32.25 23.05 32.25 22.25 31.35 22.25 30.4 22.3 30.4 23.25 L30.7 23.85 M35.7 23.35 L35.75 23.25 36.7 22.7 35.7 22.45 35.7 22.5 35.7 23.35 M39.7 23.85 Q39.85 23.7 40.25 23.7 40.95 23.7 40.95 24.05 40.95 24.4 40.25 24.4 39.65 24.4 39.65 24.0 L39.7 23.85 M19.9 20.75 Q20.3 20.8 20.3 21.15 L20.2 21.7 19.95 21.8 19.65 21.45 19.55 21.05 Q19.55 20.7 19.9 20.75 M17.6 24.25 L17.9 24.5 17.7 24.85 17.25 25.1 Q16.9 25.1 16.9 24.7 L17.1 24.45 Q17.25 24.25 17.6 24.25 M20.2 22.9 Q21.3 22.85 21.3 24.05 21.3 25.3 20.5 25.3 19.7 25.3 19.3 24.85 L19.1 24.4 Q19.1 22.95 20.2 22.9 M17.95 22.8 L17.8 22.45 Q17.8 22.1 18.35 22.2 18.8 22.3 18.8 22.7 18.8 23.15 18.45 23.15 L17.95 22.8 M18.35 26.0 Q18.8 25.75 18.8 26.3 L18.2 27.05 Q17.8 27.05 17.8 26.6 17.8 26.3 18.35 26.0 M20.05 27.05 Q20.05 26.5 20.5 26.15 20.9 25.8 20.9 26.65 20.8 27.5 20.45 27.5 20.2 27.5 20.1 27.3 L20.05 27.05 M14.9 43.95 L14.9 44.85 15.35 44.65 14.95 44.0 14.9 43.95 M13.3 45.4 L13.55 46.5 13.65 46.25 13.85 45.8 13.65 45.7 13.3 45.4 M14.25 44.45 Q14.25 43.8 14.4 43.2 14.7 42.25 15.2 43.0 L15.85 44.1 16.1 44.5 16.4 43.45 Q16.85 42.3 17.15 42.3 L18.0 44.95 18.3 45.1 Q18.6 44.85 19.3 44.5 L20.7 44.45 19.7 47.05 19.7 47.1 20.15 47.05 21.5 47.3 22.2 47.8 21.1 48.6 19.4 49.15 19.3 49.3 19.85 49.9 20.85 51.5 Q20.85 51.9 20.45 51.9 20.0 51.9 18.1 50.65 L17.85 50.75 17.9 51.2 18.05 53.5 17.95 53.75 17.7 53.95 16.4 51.45 14.55 53.4 14.25 53.1 14.35 51.05 13.75 51.3 12.35 51.6 Q12.0 51.6 12.0 51.15 L13.05 49.4 13.2 49.25 11.75 48.8 11.1 48.3 Q11.1 48.0 12.4 47.3 L13.1 47.0 12.7 46.05 12.35 44.85 Q12.35 44.05 13.6 44.65 L14.25 45.0 14.25 44.45 M13.85 48.65 Q14.15 48.55 14.15 49.2 L15.7 50.2 Q17.45 50.5 18.4 49.35 19.0 48.6 19.0 47.95 19.0 46.35 17.8 45.85 L17.75 45.85 17.65 45.8 15.55 45.3 Q14.4 46.05 14.05 46.65 13.8 47.15 13.8 48.1 L13.85 48.65 M13.15 48.1 L13.15 47.95 12.55 48.2 13.25 48.4 13.15 48.1 M18.9 45.6 L19.1 45.85 19.3 46.2 19.75 45.2 19.75 45.15 18.95 45.55 18.9 45.6 M16.7 44.6 L17.2 44.7 17.0 43.75 16.7 44.6 M15.45 47.95 Q15.45 46.6 16.7 46.6 17.9 46.6 17.9 47.75 L17.75 48.45 Q17.4 49.0 16.75 49.0 15.9 49.0 15.6 48.5 L15.45 47.95 M16.1 47.95 Q16.1 48.2 16.65 48.2 17.15 48.2 17.15 47.7 17.15 47.3 16.65 47.45 16.1 47.55 16.1 47.95 M19.6 48.35 L20.4 48.05 20.55 48.0 19.7 47.75 19.6 48.35 M35.8 24.8 L35.55 24.5 35.15 25.65 35.1 25.75 36.4 25.5 36.5 25.45 35.8 24.8 M34.5 26.65 L33.7 27.3 34.15 27.5 Q34.7 27.85 35.0 27.85 L34.7 27.15 34.5 26.65 M32.35 29.25 Q32.5 28.3 32.8 27.7 L31.35 28.0 32.0 28.55 32.35 29.25 M28.0 26.15 L27.3 27.6 27.3 27.65 Q28.1 27.1 28.55 26.9 L28.0 26.15 M27.45 25.1 L27.1 24.35 26.2 25.05 27.45 25.1 M29.6 29.15 L30.2 28.3 30.45 28.0 Q29.75 27.95 29.2 27.5 L29.6 29.1 29.6 29.15 M22.5 27.05 L22.15 26.6 Q22.15 26.05 22.8 26.3 23.45 26.6 23.45 27.05 23.45 27.45 23.1 27.45 L22.5 27.05 M30.3 40.2 Q31.0 38.25 31.45 37.7 L31.7 37.45 Q32.25 37.45 33.25 39.15 34.35 41.2 34.35 41.75 L34.3 41.95 Q37.9 43.3 38.25 47.1 38.5 47.1 39.1 47.4 40.35 48.05 40.3 48.5 L39.3 49.15 38.0 49.7 37.1 51.7 35.25 53.25 33.9 53.7 33.45 55.15 32.55 57.1 32.2 56.75 32.2 56.55 Q31.65 56.0 30.85 54.15 L30.65 54.15 Q28.1 53.9 26.65 52.35 25.35 51.1 25.3 49.65 L25.25 49.4 Q24.35 49.4 23.65 48.8 L23.0 48.2 Q22.95 47.7 24.4 47.2 L25.45 46.9 Q26.15 43.2 29.75 42.0 L30.3 40.2 M30.2 42.6 L30.15 42.65 30.05 42.6 Q27.85 43.25 26.8 45.2 26.3 45.95 26.1 46.85 26.2 46.7 26.45 46.7 26.85 46.35 27.1 46.55 L27.4 45.95 28.15 44.8 Q28.75 44.2 29.6 43.75 L30.55 43.35 30.9 43.25 32.2 43.2 Q33.65 43.2 34.8 44.2 L35.7 45.45 36.25 46.3 36.3 46.25 Q36.5 45.9 37.1 45.9 L37.3 45.9 37.15 45.7 36.25 44.1 Q34.75 41.75 30.25 42.6 L30.2 42.6 M25.85 43.1 L25.5 43.45 Q24.95 43.45 24.45 43.0 L23.75 42.2 23.0 41.55 22.65 40.95 24.3 41.0 25.95 42.65 25.85 43.1 M25.3 48.6 Q25.25 48.2 25.35 47.85 L24.15 48.15 25.15 48.55 25.3 48.6 M29.8 44.1 Q28.65 44.55 28.0 45.75 27.55 46.3 27.45 46.8 L27.5 47.05 27.45 47.4 27.45 47.5 27.5 47.5 27.45 47.95 28.35 48.55 29.3 49.15 29.2 50.55 29.45 51.5 30.15 51.6 30.05 51.7 30.45 51.75 31.9 51.9 Q33.3 51.9 34.3 50.9 L34.1 49.05 Q34.1 48.8 34.45 48.8 L35.55 48.35 35.7 48.15 35.75 47.55 35.8 47.5 35.75 46.95 35.15 45.4 35.15 45.35 35.0 45.3 34.75 44.9 33.65 44.0 33.55 44.2 33.4 44.25 32.95 44.1 Q32.35 44.1 32.1 44.85 L31.85 45.55 31.15 44.85 30.3 44.1 30.0 44.2 29.8 44.1 M26.95 47.25 L26.8 47.15 Q26.3 47.1 26.15 47.7 L26.1 48.2 Q26.15 49.5 27.05 49.55 L27.05 49.45 26.95 48.45 Q26.9 47.9 27.0 47.5 L26.95 47.5 26.95 47.45 26.95 47.25 M27.5 49.1 L27.55 49.25 27.6 49.45 27.8 49.7 27.8 49.8 27.9 50.1 28.5 50.75 28.55 49.3 Q28.15 49.35 27.5 48.8 L27.45 48.75 27.5 49.1 M29.3 47.05 Q29.3 47.45 29.7 47.5 L30.2 47.5 30.35 46.9 Q30.3 46.35 29.8 46.45 29.25 46.45 29.3 47.05 M28.9 47.6 L28.8 47.1 Q28.75 46.0 29.85 45.85 30.9 45.7 30.9 46.9 30.9 48.05 29.95 48.05 29.2 48.0 28.9 47.6 M31.85 38.65 L31.0 40.7 30.55 41.8 31.95 41.55 33.05 41.55 33.35 41.6 32.9 40.9 31.85 38.7 31.85 38.65 M30.9 43.75 L31.55 44.4 31.95 43.95 32.25 43.7 31.95 43.7 30.9 43.75 M33.35 46.6 Q33.0 47.0 33.0 47.4 L33.2 47.65 33.8 47.65 34.1 47.4 34.2 47.1 33.35 46.6 M33.6 48.25 Q32.5 48.2 32.5 47.4 32.5 45.95 33.65 45.95 34.3 45.95 34.8 47.1 34.75 48.2 33.6 48.25 M37.05 46.6 Q36.65 46.55 36.6 46.85 L36.35 47.05 36.3 47.05 36.4 47.55 36.35 48.05 36.35 48.25 36.4 48.35 36.45 48.5 36.85 48.5 37.4 48.05 37.45 47.65 Q37.35 46.55 37.05 46.6 M36.05 49.05 L35.4 50.45 Q34.1 52.3 31.9 52.3 L30.35 52.25 29.5 52.1 29.15 51.85 29.0 51.85 28.45 51.5 28.0 50.9 27.6 50.55 27.6 50.5 27.2 50.1 26.95 50.1 Q26.45 50.1 26.05 49.65 26.4 50.65 27.1 51.55 28.35 53.0 30.8 53.4 L32.1 53.5 Q33.1 53.45 34.75 52.35 L36.45 50.8 37.25 49.0 36.55 49.15 36.05 49.05 M38.2 48.85 L39.25 48.5 38.3 47.95 38.3 48.25 38.2 48.85 M35.0 49.35 Q34.75 49.4 34.75 49.75 L34.8 50.4 34.9 50.3 35.45 49.1 35.0 49.35 M38.5 54.1 L37.8 53.0 Q37.8 52.0 39.25 53.25 L40.6 54.65 40.35 55.05 40.0 55.15 Q39.35 55.15 38.5 54.1 M35.6 52.35 L35.5 52.5 35.65 52.35 35.6 52.35 M30.9 50.1 L30.9 49.95 Q30.85 49.55 31.7 49.35 32.6 49.1 32.6 49.6 L32.1 50.05 31.2 50.25 30.9 50.1 M31.85 54.55 L32.5 55.6 Q32.5 55.4 32.65 55.15 32.95 54.3 33.4 53.85 L32.0 54.05 31.7 54.15 31.55 54.15 31.85 54.55 M24.65 53.75 Q25.8 52.4 25.85 53.6 24.3 55.8 23.95 55.85 23.5 55.8 23.45 55.6 L23.45 55.4 Q23.45 55.0 24.65 53.75 M19.0 49.9 L18.7 50.2 19.3 50.5 19.0 49.9 M17.25 51.45 L17.35 51.45 17.5 50.9 17.0 51.0 17.05 51.05 17.25 51.45 M15.95 51.0 L15.1 50.85 15.05 51.9 15.55 51.35 15.95 51.0 M13.4 50.5 L14.0 50.2 13.75 49.9 13.4 50.4 13.4 50.5 M19.95 57.35 L19.95 57.8 19.85 57.5 19.95 57.35 M49.45 50.2 L49.35 50.35 49.95 50.55 49.55 49.95 49.45 50.2 M45.65 51.35 L45.6 52.15 45.6 52.2 46.15 51.5 45.65 51.35 M47.7 52.15 L48.15 51.2 48.0 51.3 47.5 51.45 47.6 51.7 47.7 52.15 M44.3 50.0 L43.95 50.9 44.65 50.45 44.3 50.0" fill="#d7a200" fill-rule="evenodd" stroke="none"/>
    <path d="M30.4 -5.9 L34.0 -6.4 38.0 -6.05 40.6 -5.05 Q42.55 -4.25 42.55 -3.45 L42.2 -1.05 Q41.65 1.2 40.8 1.6 39.6 2.3 37.4 4.1 35.85 5.15 33.7 5.45 L33.05 5.3 29.2 4.4 Q26.95 3.1 26.0 2.9 L25.35 2.85 24.5 2.2 Q23.95 1.65 23.3 0.05 22.7 -1.5 22.7 -2.4 L22.75 -2.65 22.55 -3.15 25.05 -5.25 Q26.8 -6.5 27.35 -6.0 L27.55 -6.05 30.4 -5.9 M45.6 7.45 Q45.6 7.9 44.2 10.4 42.7 13.15 41.95 13.15 39.95 13.15 37.25 10.3 35.9 8.9 34.9 7.45 L34.95 7.15 35.0 7.0 Q35.25 6.2 36.5 5.65 37.6 5.05 38.75 4.95 39.65 4.8 40.1 5.25 L41.15 6.15 45.0 6.95 Q45.6 7.0 45.6 7.45 M24.9 5.4 L25.4 5.2 27.45 6.35 Q29.15 7.25 30.65 7.65 L28.75 10.15 Q26.05 13.45 24.0 13.45 22.75 13.45 21.0 10.7 L21.3 10.1 Q20.4 9.75 19.95 7.55 19.95 6.7 21.55 6.5 23.8 6.2 24.9 5.4" fill="#ff9319" fill-rule="evenodd" stroke="none"/>
    <path d="M45.6 7.45 Q45.6 7.9 44.2 10.4 42.7 13.15 41.95 13.15 39.95 13.15 37.25 10.3 35.9 8.9 34.9 7.45 L34.95 7.15 35.0 7.0 Q35.25 6.2 36.5 5.65 37.6 5.05 38.75 4.95 39.65 4.8 40.1 5.25 L41.15 6.15 45.0 6.95 Q45.6 7.0 45.6 7.45 M24.9 5.4 Q23.8 6.2 21.55 6.5 19.95 6.7 19.95 7.55 20.4 9.75 21.3 10.1 L21.0 10.7 Q22.75 13.45 24.0 13.45 26.05 13.45 28.75 10.15 L30.65 7.65 Q29.15 7.25 27.45 6.35 L25.4 5.2 24.9 5.4" fill="none" stroke="#985a10" stroke-linecap="round" stroke-linejoin="round" stroke-width="2.0"/>
    <path d="M30.4 -5.9 L34.0 -6.4 38.0 -6.05 40.6 -5.05 Q42.55 -4.25 42.55 -3.45 L42.2 -1.05 Q41.65 1.2 40.8 1.6 39.6 2.3 37.4 4.1 35.85 5.15 33.7 5.45 L33.05 5.3 29.2 4.4 Q26.95 3.1 26.0 2.9 L25.35 2.85 24.5 2.2 Q23.95 1.65 23.3 0.05 22.7 -1.5 22.7 -2.4 L22.75 -2.65 22.55 -3.15 25.05 -5.25 Q26.8 -6.5 27.35 -6.0 L27.55 -6.05 30.4 -5.9" fill="#ffc922" fill-rule="evenodd" stroke="none"/>
    <path d="M45.6 7.45 Q45.6 7.9 44.2 10.4 42.7 13.15 41.95 13.15 39.95 13.15 37.25 10.3 35.9 8.9 34.9 7.45 L34.95 7.15 35.0 7.0 Q35.25 6.2 36.5 5.65 37.6 5.05 38.75 4.95 39.65 4.8 40.1 5.25 L41.15 6.15 45.0 6.95 Q45.6 7.0 45.6 7.45 M24.9 5.4 L25.4 5.2 27.45 6.35 Q29.15 7.25 30.65 7.65 L28.75 10.15 Q26.05 13.45 24.0 13.45 22.75 13.45 21.0 10.7 L21.3 10.1 Q20.4 9.75 19.95 7.55 19.95 6.7 21.55 6.5 23.8 6.2 24.9 5.4" fill="#ff9319" fill-rule="evenodd" stroke="none"/>
    <path d="M18.2 -6.5 L18.45 -6.05 Q19.0 -6.45 19.65 -6.45 21.7 -6.45 23.8 -3.95 25.5 -1.9 25.5 -1.2 25.5 -0.1 24.95 0.55 24.4 1.2 22.45 2.15 22.15 2.35 21.5 3.9 20.5 5.45 18.25 5.45 16.55 5.45 16.25 4.7 L16.3 3.7 Q14.85 3.5 14.35 2.7 14.1 2.25 14.1 1.45 L14.5 -0.15 Q13.7 -1.3 13.7 -1.7 L14.35 -4.25 Q15.45 -6.6 17.2 -6.6 L18.2 -6.5 M17.45 -2.6 L19.5 -2.95 Q19.55 -2.7 19.55 -3.1 19.55 -4.65 17.65 -2.75 L17.45 -2.6 M40.35 -4.95 Q42.15 -7.75 45.45 -6.35 46.05 -6.9 46.7 -6.9 48.35 -6.9 49.3 -4.55 L49.95 -2.2 49.7 0.9 Q49.7 2.25 47.55 3.9 45.65 5.4 44.7 5.4 43.3 5.4 42.25 3.95 L41.0 2.35 Q39.1 1.7 39.1 -1.0 39.1 -3.05 40.35 -4.95 M44.4 -3.05 L44.3 -2.65 44.3 -2.25 45.1 -2.2 Q45.55 -2.2 45.9 -2.5 L45.15 -3.5 44.4 -3.05" fill="#ff9319" fill-rule="evenodd" stroke="none"/>
    <path d="M18.2 -6.5 L18.45 -6.05 Q19.0 -6.45 19.65 -6.45 21.7 -6.45 23.8 -3.95 25.5 -1.9 25.5 -1.2 25.5 -0.1 24.95 0.55 24.4 1.2 22.45 2.15 22.15 2.35 21.5 3.9 20.5 5.45 18.25 5.45 16.55 5.45 16.25 4.7 L16.3 3.7 Q14.85 3.5 14.35 2.7 14.1 2.25 14.1 1.45 L14.5 -0.15 Q13.7 -1.3 13.7 -1.7 L14.35 -4.25 Q15.45 -6.6 17.2 -6.6 L18.2 -6.5 M17.45 -2.6 L19.5 -2.95 Q19.55 -2.7 19.55 -3.1 19.55 -4.65 17.65 -2.75 L17.45 -2.6 M40.35 -4.95 Q42.15 -7.75 45.45 -6.35 46.05 -6.9 46.7 -6.9 48.35 -6.9 49.3 -4.55 L49.95 -2.2 49.7 0.9 Q49.7 2.25 47.55 3.9 45.65 5.4 44.7 5.4 43.3 5.4 42.25 3.95 L41.0 2.35 Q39.1 1.7 39.1 -1.0 39.1 -3.05 40.35 -4.95 M44.4 -3.05 L44.3 -2.65 44.3 -2.25 45.1 -2.2 Q45.55 -2.2 45.9 -2.5 L45.15 -3.5 44.4 -3.05" fill="none" stroke="#985a10" stroke-linecap="round" stroke-linejoin="round" stroke-width="2.0"/>
    <path d="M18.2 -6.5 L18.45 -6.05 Q19.0 -6.45 19.65 -6.45 21.7 -6.45 23.8 -3.95 25.5 -1.9 25.5 -1.2 25.5 -0.1 24.95 0.55 24.4 1.2 22.45 2.15 22.15 2.35 21.5 3.9 20.5 5.45 18.25 5.45 16.55 5.45 16.25 4.7 L16.3 3.7 Q14.85 3.5 14.35 2.7 14.1 2.25 14.1 1.45 L14.5 -0.15 Q13.7 -1.3 13.7 -1.7 L14.35 -4.25 Q15.45 -6.6 17.2 -6.6 L18.2 -6.5 M19.55 -3.1 Q19.55 -4.65 17.65 -2.75 L17.45 -2.6 19.5 -2.95 Q19.55 -2.7 19.55 -3.1 M40.35 -4.95 Q42.15 -7.75 45.45 -6.35 46.05 -6.9 46.7 -6.9 48.35 -6.9 49.3 -4.55 L49.95 -2.2 49.7 0.9 Q49.7 2.25 47.55 3.9 45.65 5.4 44.7 5.4 43.3 5.4 42.25 3.95 L41.0 2.35 Q39.1 1.7 39.1 -1.0 39.1 -3.05 40.35 -4.95 M44.4 -3.05 L44.3 -2.65 44.3 -2.25 45.1 -2.2 Q45.55 -2.2 45.9 -2.5 L45.15 -3.5 44.4 -3.05" fill="#ff9319" fill-rule="evenodd" stroke="none"/>
    <path d="M43.05 2.85 Q43.05 5.65 38.7 7.1 34.3 8.5 34.3 7.6 L33.75 7.65 33.6 7.6 27.3 7.6 Q24.25 7.65 22.35 6.05 20.85 4.8 20.85 3.45 20.85 1.25 21.85 0.45 23.6 -0.9 28.55 1.0 L30.65 2.65 32.0 4.1 32.1 4.3 Q32.15 3.1 33.9 1.45 36.25 -0.75 39.85 -0.75 41.9 -0.75 42.7 0.95 43.05 1.8 43.05 2.85" fill="#ffc922" fill-rule="evenodd" stroke="none"/>
    <path d="M43.05 2.85 Q43.05 5.65 38.7 7.1 34.3 8.5 34.3 7.6 L33.75 7.65 33.6 7.6 27.3 7.6 Q24.25 7.65 22.35 6.05 20.85 4.8 20.85 3.45 20.85 1.25 21.85 0.45 23.6 -0.9 28.55 1.0 L30.65 2.65 32.0 4.1 32.1 4.3 Q32.15 3.1 33.9 1.45 36.25 -0.75 39.85 -0.75 41.9 -0.75 42.7 0.95 43.05 1.8 43.05 2.85 Z" fill="none" stroke="#985a10" stroke-linecap="round" stroke-linejoin="round" stroke-width="2.0"/>
    <path d="M43.05 2.85 Q43.05 5.65 38.7 7.1 34.3 8.5 34.3 7.6 L33.75 7.65 33.6 7.6 27.3 7.6 Q24.25 7.65 22.35 6.05 20.85 4.8 20.85 3.45 20.85 1.25 21.85 0.45 23.6 -0.9 28.55 1.0 L30.65 2.65 32.0 4.1 32.1 4.3 Q32.15 3.1 33.9 1.45 36.25 -0.75 39.85 -0.75 41.9 -0.75 42.7 0.95 43.05 1.8 43.05 2.85" fill="#ffc922" fill-rule="evenodd" stroke="none"/>
    <path d="M39.6 -34.5 Q45.45 -32.15 48.9 -25.65 L50.15 -22.9 Q51.1 -20.35 51.45 -17.65 51.95 -13.95 51.15 -12.3 50.6 -11.05 46.95 -9.75 45.95 -8.65 44.6 -8.25 L42.2 -8.3 Q40.8 -5.65 38.35 -4.75 36.1 -3.9 32.8 -3.65 28.45 -3.35 25.55 -4.7 23.6 -5.65 22.3 -7.45 L21.5 -7.0 Q19.9 -6.35 18.2 -7.2 17.1 -7.75 16.4 -8.75 12.85 -9.75 12.6 -10.9 11.45 -17.2 12.75 -22.35 13.4 -24.9 14.65 -27.15 17.55 -32.25 23.1 -34.35 26.8 -35.75 31.7 -35.85 36.1 -35.9 39.6 -34.5" fill="#ff9319" fill-rule="evenodd" stroke="none"/>
    <path d="M39.6 -34.5 Q45.45 -32.15 48.9 -25.65 L50.15 -22.9 Q51.1 -20.35 51.45 -17.65 51.95 -13.95 51.15 -12.3 50.6 -11.05 46.95 -9.75 45.95 -8.65 44.6 -8.25 L42.2 -8.3 Q40.8 -5.65 38.35 -4.75 36.1 -3.9 32.8 -3.65 28.45 -3.35 25.55 -4.7 23.6 -5.65 22.3 -7.45 L21.5 -7.0 Q19.9 -6.35 18.2 -7.2 17.1 -7.75 16.4 -8.75 12.85 -9.75 12.6 -10.9 11.45 -17.2 12.75 -22.35 13.4 -24.9 14.65 -27.15 17.55 -32.25 23.1 -34.35 26.8 -35.75 31.7 -35.85 36.1 -35.9 39.6 -34.5 Z" fill="none" stroke="#985a10" stroke-linecap="round" stroke-linejoin="round" stroke-width="2.0"/>
    <path d="M23.1 -34.35 Q26.8 -35.75 31.7 -35.85 36.1 -35.9 39.6 -34.5 L34.3 -15.25 50.15 -22.9 Q51.1 -20.35 51.45 -17.65 51.95 -13.95 51.15 -12.3 50.45 -10.75 44.9 -9.05 L39.45 -7.65 22.85 -7.65 17.9 -8.45 Q12.9 -9.5 12.6 -10.9 11.45 -17.2 12.75 -22.35 L29.25 -15.1 23.1 -34.35" fill="#ff9319" fill-rule="evenodd" stroke="none"/>
    <path d="M39.6 -34.5 Q45.45 -32.15 48.9 -25.65 L50.15 -22.9 34.3 -15.25 39.6 -34.5 M12.75 -22.35 Q13.4 -24.9 14.65 -27.15 17.55 -32.25 23.1 -34.35 L29.25 -15.1 12.75 -22.35" fill="#ffc922" fill-rule="evenodd" stroke="none"/>
    <path d="M17.8 -15.95 L21.0 -15.75 Q22.65 -14.95 23.45 -13.1 24.25 -11.25 23.65 -9.45 23.05 -7.65 21.5 -7.0 19.9 -6.35 18.2 -7.2 16.55 -8.05 15.8 -9.9 15.0 -11.75 15.6 -13.5 16.15 -15.25 17.8 -15.95 M47.45 -10.5 Q46.4 -8.75 44.6 -8.25 42.8 -7.75 41.35 -8.65 39.9 -9.6 39.65 -11.45 39.4 -13.25 40.5 -14.95 41.55 -16.65 43.35 -17.2 45.15 -17.7 46.65 -16.8 48.05 -15.85 48.3 -14.0 48.55 -12.15 47.45 -10.5" fill="#ffc922" fill-rule="evenodd" stroke="none"/>
    <path d="M17.8 -15.95 L21.0 -15.75 Q22.65 -14.95 23.45 -13.1 24.25 -11.25 23.65 -9.45 23.05 -7.65 21.5 -7.0 19.9 -6.35 18.2 -7.2 16.55 -8.05 15.8 -9.9 15.0 -11.75 15.6 -13.5 16.15 -15.25 17.8 -15.95 M47.45 -10.5 Q46.4 -8.75 44.6 -8.25 42.8 -7.75 41.35 -8.65 39.9 -9.6 39.65 -11.45 39.4 -13.25 40.5 -14.95 41.55 -16.65 43.35 -17.2 45.15 -17.7 46.65 -16.8 48.05 -15.85 48.3 -14.0 48.55 -12.15 47.45 -10.5" fill="none" stroke="#985a10" stroke-linecap="round" stroke-linejoin="round" stroke-width="1.5"/>
    <path d="M17.8 -15.95 L21.0 -15.75 Q22.65 -14.95 23.45 -13.1 24.25 -11.25 23.65 -9.45 23.05 -7.65 21.5 -7.0 19.9 -6.35 18.2 -7.2 16.55 -8.05 15.8 -9.9 15.0 -11.75 15.6 -13.5 16.15 -15.25 17.8 -15.95 M17.75 -11.05 L18.25 -9.55 Q18.95 -8.05 20.0 -8.05 21.15 -8.05 21.15 -9.35 L20.6 -10.95 20.1 -12.25 Q20.1 -14.2 18.9 -13.5 17.75 -12.85 17.75 -11.05 M43.35 -17.2 Q45.15 -17.7 46.65 -16.8 48.05 -15.85 48.3 -14.0 48.55 -12.15 47.45 -10.5 46.4 -8.75 44.6 -8.25 42.8 -7.75 41.35 -8.65 39.9 -9.6 39.65 -11.45 39.4 -13.25 40.5 -14.95 41.55 -16.65 43.35 -17.2 M46.0 -12.5 Q44.95 -16.65 43.25 -13.7 42.65 -12.6 42.65 -10.7 L42.75 -10.15 Q42.9 -9.65 43.6 -9.65 44.9 -9.65 45.55 -10.8 L46.0 -12.5" fill="#ffc922" fill-rule="evenodd" stroke="none"/>
    <path d="M17.75 -11.05 Q17.75 -12.85 18.9 -13.5 20.1 -14.2 20.1 -12.25 L20.6 -10.95 21.15 -9.35 Q21.15 -8.05 20.0 -8.05 18.95 -8.05 18.25 -9.55 L17.75 -11.05 M46.0 -12.5 L45.55 -10.8 Q44.9 -9.65 43.6 -9.65 42.9 -9.65 42.75 -10.15 L42.65 -10.7 Q42.65 -12.6 43.25 -13.7 44.95 -16.65 46.0 -12.5" fill="#ff9319" fill-rule="evenodd" stroke="none"/>
    <path d="M19.7 -14.8 Q18.7 -22.25 22.2 -25.45 26.0 -29.0 31.65 -29.35 37.05 -29.75 40.8 -27.15 44.65 -24.45 44.0 -15.65 43.3 -6.6 38.35 -4.75 36.1 -3.9 32.8 -3.65 28.45 -3.35 25.55 -4.7 20.7 -7.05 19.7 -14.8" fill="#ffc922" fill-rule="evenodd" stroke="none"/>
    <path d="M19.7 -14.8 Q18.7 -22.25 22.2 -25.45 26.0 -29.0 31.65 -29.35 37.05 -29.75 40.8 -27.15 44.65 -24.45 44.0 -15.65 43.3 -6.6 38.35 -4.75 36.1 -3.9 32.8 -3.65 28.45 -3.35 25.55 -4.7 20.7 -7.05 19.7 -14.8 Z" fill="none" stroke="#985a10" stroke-linecap="round" stroke-linejoin="round" stroke-width="1.5"/>
    <path d="M32.8 -3.65 Q28.45 -3.35 25.55 -4.7 20.7 -7.05 19.7 -14.8 18.7 -22.25 22.2 -25.45 26.0 -29.0 31.65 -29.35 37.05 -29.75 40.8 -27.15 44.65 -24.45 44.0 -15.65 43.3 -6.6 38.35 -4.75 36.1 -3.9 32.8 -3.65" fill="#ffc922" fill-rule="evenodd" stroke="none"/>
    <path d="M33.5 -24.5 Q34.9 -25.25 36.9 -25.25 40.65 -25.25 42.1 -22.35 42.85 -20.85 42.85 -19.0 42.85 -16.75 42.25 -15.55 41.25 -13.55 38.3 -12.9 L38.15 -12.75 38.6 -12.05 38.8 -11.5 Q38.8 -9.15 32.45 -8.65 L28.55 -8.65 Q27.0 -8.9 26.3 -9.7 25.7 -10.25 25.7 -10.85 L25.7 -11.4 26.3 -12.15 Q22.3 -13.9 21.3 -15.65 20.8 -16.55 20.8 -19.2 20.8 -21.25 21.35 -22.5 22.55 -25.35 26.25 -25.35 29.35 -25.35 30.4 -24.5 31.0 -23.4 31.65 -23.05 L33.5 -24.5" fill="#ff9319" fill-rule="evenodd" stroke="none"/>
    <path d="M34.35 -12.4 Q34.35 -11.7 33.7 -11.5 L31.2 -11.35 29.5 -11.65 29.3 -12.2 Q29.3 -12.75 31.85 -13.2 34.35 -13.65 34.35 -12.4" fill="#985a10" fill-rule="evenodd" stroke="none"/>
    <path d="M35.6 -16.15 Q34.6 -16.95 34.6 -18.15 34.6 -19.3 35.6 -20.2 36.7 -21.0 38.2 -21.0 39.7 -21.0 40.75 -20.2 41.8 -19.3 41.8 -18.15 41.8 -16.95 40.75 -16.15 39.7 -15.25 38.2 -15.25 36.7 -15.25 35.6 -16.15 M29.0 -19.8 Q30.1 -18.9 30.1 -17.75 30.1 -16.6 29.0 -15.75 28.0 -14.85 26.45 -14.85 24.95 -14.85 23.9 -15.75 22.85 -16.6 22.85 -17.75 22.85 -18.9 23.9 -19.8 24.95 -20.65 26.45 -20.65 28.0 -20.65 29.0 -19.8" fill="#ffffff" fill-rule="evenodd" stroke="none"/>
    <path d="M15.4 -0.5 L14.2 0.35 14.0 0.2 13.95 -0.15 Q13.95 -2.15 16.85 -2.1 19.8 -2.05 19.8 0.5 L19.75 0.55 20.0 0.8 Q20.95 1.9 20.95 2.95 L20.75 3.4 20.35 3.7 Q19.85 3.7 19.35 2.4 L19.0 1.2 15.55 3.95 Q15.1 3.95 15.1 3.5 15.1 2.85 16.85 1.7 18.6 0.6 18.6 0.35 L17.9 -0.6 17.0 -1.3 Q16.45 -1.3 15.4 -0.5 M45.1 -2.2 L47.95 -2.25 Q50.1 -1.5 50.1 -0.95 L49.9 -0.45 49.55 -0.3 Q47.3 -1.55 46.3 -1.55 45.65 -1.55 45.25 -0.65 L44.85 0.45 46.75 1.7 47.9 2.75 Q48.35 3.05 48.35 3.6 48.35 4.25 47.8 4.25 47.2 4.25 46.9 3.7 L46.75 3.35 45.15 2.2 44.45 1.6 Q43.85 2.55 43.4 2.55 L42.95 2.4 42.9 2.0 Q42.9 1.7 43.45 1.15 L43.75 0.9 43.7 0.85 Q43.7 0.55 44.4 -0.8 L45.1 -2.2 M43.8 11.75 Q43.05 11.75 42.25 10.9 L41.6 10.05 Q41.6 9.2 43.05 9.95 44.55 10.75 44.55 11.15 44.55 11.75 43.8 11.75 M33.4 4.4 Q35.15 6.65 35.15 7.55 35.15 7.95 34.75 7.95 34.3 7.95 31.65 3.45 31.65 2.15 33.4 4.4 M21.25 10.75 L20.8 10.25 Q20.8 9.9 21.8 9.4 22.7 8.9 22.7 9.65 L22.15 10.25 21.25 10.75" fill="#985a10" fill-rule="evenodd" stroke="none"/>
    <path d="M30.85 -33.95 L29.9 -33.95 26.75 -33.25 Q23.15 -32.75 20.05 -31.25 17.75 -30.1 16.65 -28.9 L15.5 -28.1 14.95 -27.65 Q17.85 -32.35 23.1 -34.35 26.8 -35.75 31.7 -35.85 36.1 -35.9 39.6 -34.5 45.45 -32.15 48.9 -25.65 L50.15 -22.9 Q51.1 -20.35 51.45 -17.65 51.95 -13.95 51.15 -12.3 L50.05 -11.2 50.0 -12.0 Q50.0 -19.8 45.75 -26.05 40.4 -33.95 30.85 -33.95 M43.35 -17.0 Q43.35 -20.75 42.5 -23.05 41.25 -26.55 37.95 -28.05 41.75 -28.0 43.25 -23.5 44.15 -20.85 44.15 -16.95 L43.95 -14.65 Q43.9 -12.85 43.0 -10.3 41.9 -7.2 40.5 -6.5 L40.1 -6.5 Q41.6 -7.95 42.4 -10.1 43.1 -11.7 43.4 -15.05 L43.3 -16.0 43.35 -17.0 M48.2 -13.25 L48.2 -12.3 Q48.05 -11.65 47.55 -11.7 47.15 -12.3 47.05 -14.1 46.65 -15.75 44.7 -16.5 46.3 -17.5 47.35 -15.8 48.2 -14.5 48.2 -13.25 M49.7 -1.85 L48.75 -4.05 Q48.15 -5.6 46.05 -5.7 L45.9 -6.05 47.95 -6.1 Q49.95 -4.55 49.95 -2.6 L49.7 -1.85 M40.75 1.25 Q39.3 0.1 36.75 0.9 L36.2 0.4 Q36.2 -0.6 39.6 -0.45 42.95 -0.35 42.95 2.8 42.95 4.85 40.5 6.15 40.2 6.15 40.2 5.75 40.2 5.15 40.95 4.25 41.7 3.4 41.7 2.75 41.7 2.05 40.75 1.25 M29.95 3.65 L27.9 2.2 Q26.15 0.75 24.95 0.75 L22.75 1.1 21.75 1.55 Q21.6 1.5 21.6 1.15 21.6 0.65 22.6 0.3 L25.05 -0.15 Q30.6 2.2 30.6 3.15 30.6 3.65 29.95 3.65" fill="#ffffff" fill-opacity="0.6" fill-rule="evenodd" stroke="none"/>
  </g>
</svg>
