<?xml version="1.0" encoding="UTF-8" standalone="no"?>
<svg xmlns:xlink="http://www.w3.org/1999/xlink" height="401.4px" width="463.5px" xmlns="http://www.w3.org/2000/svg">
  <g transform="matrix(1.0, 0.0, 0.0, 1.0, -172.0, -112.1)">
    <path d="M635.5 279.7 L179.4 279.7 179.4 211.25 635.5 211.25 635.5 279.7" fill="#bd8d33" fill-rule="evenodd" stroke="none"/>
    <path d="M635.5 356.7 L179.4 356.7 179.4 288.25 635.5 288.25 635.5 356.7" fill="#bd8d33" fill-rule="evenodd" stroke="none"/>
    <path d="M635.5 431.7 L179.4 431.7 179.4 363.25 635.5 363.25 635.5 431.7" fill="#bd8d33" fill-rule="evenodd" stroke="none"/>
    <path d="M635.5 508.7 L179.4 508.7 179.4 440.25 635.5 440.25 635.5 508.7" fill="#bd8d33" fill-rule="evenodd" stroke="none"/>
    <path d="M635.5 203.55 L179.4 203.55 179.4 112.1 635.5 112.1 635.5 203.55" fill="#bd8d33" fill-rule="evenodd" stroke="none"/>
    <path d="M176.0 121.4 L238.0 121.4 Q242.0 121.4 242.0 125.4 L242.0 187.4 Q242.0 191.4 238.0 191.4 L176.0 191.4 Q172.0 191.4 172.0 187.4 L172.0 125.4 Q172.0 121.4 176.0 121.4" fill="#926d30" fill-rule="evenodd" stroke="none"/>
    <path d="M176.0 214.0 L238.0 214.0 Q242.0 214.0 242.0 218.0 L242.0 280.0 Q242.0 284.0 238.0 284.0 L176.0 284.0 Q172.0 284.0 172.0 280.0 L172.0 218.0 Q172.0 214.0 176.0 214.0" fill="#926d30" fill-rule="evenodd" stroke="none"/>
    <path d="M176.0 290.5 L238.0 290.5 Q242.0 290.5 242.0 294.5 L242.0 356.5 Q242.0 360.5 238.0 360.5 L176.0 360.5 Q172.0 360.5 172.0 356.5 L172.0 294.5 Q172.0 290.5 176.0 290.5" fill="#926d30" fill-rule="evenodd" stroke="none"/>
    <path d="M176.0 365.5 L238.0 365.5 Q242.0 365.5 242.0 369.5 L242.0 431.5 Q242.0 435.5 238.0 435.5 L176.0 435.5 Q172.0 435.5 172.0 431.5 L172.0 369.5 Q172.0 365.5 176.0 365.5" fill="#926d30" fill-rule="evenodd" stroke="none"/>
    <path d="M176.0 443.5 L238.0 443.5 Q242.0 443.5 242.0 447.5 L242.0 509.5 Q242.0 513.5 238.0 513.5 L176.0 513.5 Q172.0 513.5 172.0 509.5 L172.0 447.5 Q172.0 443.5 176.0 443.5" fill="#926d30" fill-rule="evenodd" stroke="none"/>
  </g>
</svg>
