<?xml version="1.0" encoding="UTF-8" standalone="no"?>
<svg xmlns:xlink="http://www.w3.org/1999/xlink" height="185.55px" width="48.75px" xmlns="http://www.w3.org/2000/svg">
  <g transform="matrix(1.0, 0.0, 0.0, 1.0, 15.0, -6.35)">
    <path d="M33.15 12.35 Q35.2 20.25 30.1 29.6 25.0 39.0 27.05 46.9 28.05 50.85 30.1 52.9 L-11.85 52.9 Q-9.85 48.85 -8.85 43.85 -6.9 33.75 -11.85 28.8 -16.25 24.4 -14.5 14.95 -13.6 10.2 -11.85 6.35 L30.1 6.35 Q32.15 8.4 33.15 12.35" fill="#ffd900" fill-rule="evenodd" stroke="none"/>
    <path d="M33.15 58.65 Q35.2 66.55 30.1 75.9 25.0 85.3 27.05 93.2 28.05 97.15 30.1 99.2 L-11.85 99.2 Q-9.85 95.15 -8.85 90.15 -6.9 80.05 -11.85 75.1 -16.25 70.7 -14.5 61.25 -13.6 56.5 -11.85 52.65 L30.1 52.65 Q32.15 54.7 33.15 58.65" fill="#ffd900" fill-rule="evenodd" stroke="none"/>
    <path d="M30.1 145.5 L-11.85 145.5 Q-9.85 141.45 -8.85 136.45 -6.9 126.35 -11.85 121.4 -16.25 117.0 -14.5 107.55 -13.6 102.8 -11.85 98.95 L30.1 98.95 Q32.15 101.0 33.15 104.95 35.2 112.85 30.1 122.2 25.0 131.6 27.05 139.5 28.05 143.45 30.1 145.5" fill="#ffd900" fill-rule="evenodd" stroke="none"/>
    <path d="M30.1 191.9 L-11.85 191.9 Q-9.85 187.85 -8.85 182.85 -6.9 172.75 -11.85 167.8 -16.25 163.4 -14.5 153.95 -13.6 149.2 -11.85 145.35 L30.1 145.35 Q32.15 147.4 33.15 151.35 35.2 159.25 30.1 168.6 25.0 178.0 27.05 185.9 28.05 189.85 30.1 191.9" fill="#ffd900" fill-rule="evenodd" stroke="none"/>
  </g>
</svg>
