<?xml version="1.0" encoding="UTF-8" standalone="no"?>
<svg xmlns:xlink="http://www.w3.org/1999/xlink" height="56.85px" width="72.2px" xmlns="http://www.w3.org/2000/svg">
  <g transform="matrix(1.0, 0.0, 0.0, 1.0, 13.1, 8.6)">
    <path d="M23.0 -7.1 Q33.05 -7.1 41.1 -3.55 L47.5 0.1 Q52.85 4.0 55.4 8.75 57.45 12.6 57.6 17.1 L57.6 17.7 Q57.6 21.15 56.5 24.25 L54.65 28.05 54.5 29.2 54.45 29.8 Q54.15 31.95 53.1 33.85 L51.75 35.65 Q49.75 38.1 47.15 38.55 L46.45 38.6 Q44.0 38.7 42.4 37.05 L39.95 39.9 Q33.1 46.75 23.4 46.75 13.7 46.75 6.85 39.9 5.35 38.4 4.2 36.75 2.65 38.2 0.45 38.15 L-0.25 38.1 Q-2.7 37.65 -4.6 35.35 L-5.9 33.6 Q-6.85 31.9 -7.1 30.05 -9.45 27.2 -10.55 24.0 L-11.4 20.5 -11.6 18.3 -11.6 18.2 -11.6 18.1 -11.6 17.7 Q-11.6 11.2 -7.6 5.9 -5.25 2.8 -1.5 0.1 2.45 -2.7 7.1 -4.4 14.25 -7.1 23.0 -7.1 M0.1 21.15 L-0.1 21.45 0.1 21.55 0.1 21.15" fill="#665200" fill-rule="evenodd" stroke="none"/>
    <path d="M23.0 -7.1 Q33.05 -7.1 41.1 -3.55 L47.5 0.1 Q52.85 4.0 55.4 8.75 57.45 12.6 57.6 17.1 L57.6 17.7 Q57.6 21.15 56.5 24.25 L54.65 28.05 54.5 29.2 54.45 29.8 Q54.15 31.95 53.1 33.85 L51.75 35.65 Q49.75 38.1 47.15 38.55 L46.45 38.6 Q44.0 38.7 42.4 37.05 L39.95 39.9 Q33.1 46.75 23.4 46.75 13.7 46.75 6.85 39.9 5.35 38.4 4.2 36.75 2.65 38.2 0.45 38.15 L-0.25 38.1 Q-2.7 37.65 -4.6 35.35 L-5.9 33.6 Q-6.85 31.9 -7.1 30.05 -9.45 27.2 -10.55 24.0 L-11.4 20.5 -11.6 18.3 -11.6 18.2 -11.6 18.1 -11.6 17.7 Q-11.6 11.2 -7.6 5.9 -5.25 2.8 -1.5 0.1 2.45 -2.7 7.1 -4.4 14.25 -7.1 23.0 -7.1 Z" fill="none" stroke="#7d6400" stroke-linecap="round" stroke-linejoin="round" stroke-width="3.0"/>
    <path d="M7.1 -4.4 Q14.25 -7.1 23.0 -7.1 33.05 -7.1 41.1 -3.55 L30.5 10.1 Q27.0 9.2 23.1 9.2 19.35 9.2 15.95 10.05 L7.1 -4.4 M55.4 8.75 Q57.6 12.9 57.6 17.7 57.6 21.15 56.5 24.25 L48.25 24.75 Q47.35 22.9 46.15 21.2 L42.9 17.3 42.1 16.55 55.4 8.75 M5.15 15.7 Q4.2 16.45 3.35 17.3 1.3 19.35 -0.2 21.55 L-1.65 23.9 -10.55 24.0 Q-11.6 21.0 -11.6 17.7 -11.6 11.2 -7.6 5.9 L5.15 15.7" fill="#ffac00" fill-rule="evenodd" stroke="none"/>
    <path d="M41.1 -3.55 L47.5 0.1 Q52.85 4.0 55.4 8.75 L42.1 16.55 Q36.9 11.75 30.5 10.1 L41.1 -3.55 M56.5 24.25 Q54.85 28.85 50.7 32.75 50.1 28.5 48.25 24.75 L56.5 24.25 M15.95 10.05 Q9.95 11.55 5.15 15.7 L-7.6 5.9 Q-5.25 2.8 -1.5 0.1 2.45 -2.7 7.1 -4.4 L15.95 10.05 M-1.65 23.9 Q-3.85 28.0 -4.55 32.75 -8.9 28.75 -10.55 24.0 L-1.65 23.9" fill="#ffc600" fill-rule="evenodd" stroke="none"/>
    <path d="M49.55 20.85 L50.1 20.95 Q52.65 21.45 53.75 24.1 54.65 25.7 54.65 27.65 L54.5 29.2 54.45 29.8 Q54.15 31.95 53.1 33.85 L51.75 35.65 Q49.75 38.1 47.15 38.55 L46.45 38.6 Q43.2 38.75 41.4 35.75 L40.55 34.0 Q39.85 31.35 40.75 28.3 41.95 24.2 44.8 22.2 47.2 20.45 49.55 20.85" fill="#ffcc00" fill-rule="evenodd" stroke="none"/>
    <path d="M51.05 31.7 L51.1 32.15 51.05 32.55 50.8 33.7 50.55 34.3 49.7 35.5 Q48.45 36.95 46.3 37.3 L45.8 37.4 44.9 37.4 Q43.0 37.3 41.6 36.0 L40.75 35.0 40.35 33.85 40.35 33.6 40.3 33.2 40.4 32.05 Q40.95 29.95 42.8 28.8 L43.35 28.55 Q44.3 28.05 45.15 27.9 L45.5 27.9 46.1 27.8 46.5 27.9 Q48.5 27.8 49.6 29.2 50.7 29.75 50.85 30.9 51.15 31.2 51.05 31.7" fill="#ffac00" fill-rule="evenodd" stroke="none"/>
    <path d="M0.45 38.15 L-0.25 38.1 Q-2.7 37.65 -4.6 35.35 L-5.9 33.6 Q-6.9 31.8 -7.15 29.8 L-7.2 29.2 -7.35 27.75 Q-7.35 25.9 -6.5 24.35 -5.45 21.85 -3.05 21.4 L-2.5 21.3 Q-0.3 20.9 2.0 22.6 4.7 24.5 5.8 28.35 6.7 31.25 6.05 33.8 L5.2 35.4 Q3.5 38.25 0.45 38.15" fill="#ffcc00" fill-rule="evenodd" stroke="none"/>
    <path d="M3.35 28.55 L3.9 28.85 Q5.65 29.9 6.15 31.95 L6.25 33.0 6.2 33.4 6.2 33.6 5.8 34.75 5.05 35.7 Q3.7 36.9 1.9 36.95 L1.05 36.95 0.55 36.9 Q-1.45 36.55 -2.65 35.15 L-3.5 34.05 -3.7 33.5 Q-4.05 32.9 -3.9 32.4 L-4.0 32.0 -3.9 31.6 Q-4.05 31.1 -3.75 30.8 -3.6 29.75 -2.6 29.2 -1.5 27.9 0.4 27.95 L0.8 27.9 1.35 27.95 1.65 27.95 3.35 28.55" fill="#ffac00" fill-rule="evenodd" stroke="none"/>
    <path d="M46.75 23.35 Q46.75 33.05 39.95 39.9 33.1 46.75 23.4 46.75 13.7 46.75 6.85 39.9 0.0 33.05 0.0 23.35 L0.05 21.9 Q0.55 13.1 6.85 6.8 13.7 0.0 23.4 0.0 33.1 0.0 39.95 6.8 45.9 12.75 46.65 20.9 L46.75 23.35" fill="#ffcc00" fill-rule="evenodd" stroke="none"/>
    <path d="M43.05 36.6 L39.95 39.9 Q33.1 46.75 23.4 46.75 13.7 46.75 6.85 39.9 3.9 36.95 2.25 33.5 2.5 28.25 3.15 26.2 5.2 19.9 11.4 20.55 17.25 21.15 21.1 26.15 23.0 28.65 23.75 31.05 24.4 28.75 26.35 26.25 30.25 21.25 36.65 20.2 42.95 19.2 44.65 24.15 45.75 27.35 44.85 32.85 44.55 34.65 43.05 36.6" fill="#ffac00" fill-rule="evenodd" stroke="none"/>
    <path d="M13.05 41.55 Q9.9 41.1 7.9 38.9 5.85 36.65 6.1 33.85 6.45 31.05 8.85 29.45 11.3 27.8 14.45 28.15 17.65 28.6 19.7 30.9 21.75 33.15 21.4 35.85 21.15 38.7 18.75 40.35 16.3 41.95 13.05 41.55 M35.1 40.85 Q31.95 41.4 29.45 39.85 27.0 38.25 26.65 35.5 26.25 32.8 28.25 30.55 30.2 28.25 33.35 27.7 36.45 27.15 38.95 28.75 41.35 30.3 41.75 33.05 42.1 35.75 40.2 38.05 38.2 40.35 35.1 40.85" fill="#ffcc00" fill-rule="evenodd" stroke="none"/>
    <path d="M8.9 38.45 Q7.15 36.55 7.35 34.15 7.65 31.8 9.65 30.45 11.75 29.1 14.4 29.35 17.1 29.7 18.85 31.65 20.55 33.6 20.3 35.85 20.05 38.25 18.0 39.65 15.95 41.0 13.2 40.65 10.55 40.3 8.9 38.45 M35.05 40.15 Q32.3 40.65 30.05 39.25 27.95 37.9 27.6 35.45 27.25 33.05 29.0 31.1 30.7 29.1 33.5 28.6 36.2 28.1 38.45 29.5 40.5 30.9 40.9 33.3 41.2 35.65 39.55 37.7 37.8 39.75 35.05 40.15" fill="#ffffff" fill-rule="evenodd" stroke="none"/>
    <path d="M20.0 44.35 Q24.9 40.5 28.85 44.35" fill="none" stroke="#ca8800" stroke-linecap="round" stroke-linejoin="round" stroke-width="1.6"/>
    <path d="M7.1 -4.4 Q14.25 -7.1 23.0 -7.1 33.05 -7.1 41.1 -3.55 L30.5 10.1 Q27.0 9.2 23.1 9.2 19.35 9.2 15.95 10.05 L7.1 -4.4 M55.4 8.75 Q57.45 12.6 57.6 17.1 L50.7 19.65 Q48.8 20.3 46.35 21.5 L46.15 21.2 42.9 17.3 42.1 16.55 55.4 8.75 M5.15 15.7 Q4.2 16.45 3.35 17.3 1.3 19.35 -0.2 21.55 L-0.35 21.75 Q-0.75 21.35 -1.45 21.35 -2.5 21.35 -3.55 22.0 L-4.65 21.8 -11.25 21.2 -11.6 17.7 Q-11.6 11.2 -7.6 5.9 L5.15 15.7" fill="#ffac00" fill-rule="evenodd" stroke="none"/>
    <path d="M41.1 -3.55 L47.5 0.1 Q52.85 4.0 55.4 8.75 L42.1 16.55 Q36.9 11.75 30.5 10.1 L41.1 -3.55 M15.95 10.05 Q9.95 11.55 5.15 15.7 L-7.6 5.9 Q-5.25 2.8 -1.5 0.1 2.45 -2.7 7.1 -4.4 L15.95 10.05" fill="#ffc600" fill-rule="evenodd" stroke="none"/>
    <path d="M43.0 37.6 Q44.45 38.7 46.45 38.6 L47.15 38.55 Q49.75 38.1 51.75 35.65 L53.1 33.85 Q54.15 31.95 54.45 29.8 L54.5 29.2 54.65 27.65 Q54.65 25.7 53.75 24.1 52.65 21.45 50.1 20.95 L49.55 20.85 Q47.95 20.6 46.3 21.35 M3.4 37.35 Q2.15 38.2 0.45 38.15 L-0.25 38.1 Q-2.7 37.65 -4.6 35.35 L-5.9 33.6 Q-6.9 31.8 -7.15 29.8 L-7.2 29.2 -7.35 27.75 Q-7.35 25.9 -6.5 24.35 -5.45 21.85 -3.05 21.4 L-2.5 21.3 -0.4 21.4" fill="none" stroke="#7d6400" stroke-linecap="round" stroke-linejoin="round" stroke-width="1.0"/>
    <path d="M46.35 21.5 L46.15 21.2 42.9 17.3 42.1 16.55 Q36.9 11.75 30.5 10.1 27.0 9.2 23.1 9.2 19.35 9.2 15.95 10.05 9.95 11.55 5.15 15.7 4.2 16.45 3.35 17.3 1.45 19.2 0.05 21.25" fill="none" stroke="#7d6400" stroke-linecap="round" stroke-linejoin="round" stroke-width="1.3"/>
    <path d="M-7.1 33.85 Q-9.45 31.0 -10.55 27.8 L-11.4 24.3 -11.6 22.1 -11.6 22.0 -11.6 21.9 -11.6 21.5 Q-11.6 15.0 -7.6 9.7 -5.25 6.6 -1.5 3.9 2.45 1.1 7.1 -0.6 14.25 -3.3 23.0 -3.3 33.05 -3.3 41.1 0.25 44.45 1.75 47.5 3.9 52.85 7.8 55.4 12.55 57.45 16.4 57.6 20.9 L57.6 21.5 Q57.6 24.95 56.5 28.05 L54.65 31.85" fill="none" stroke="#7d6400" stroke-linecap="round" stroke-linejoin="round" stroke-width="1.0"/>
  </g>
</svg>
