<?xml version="1.0" encoding="UTF-8" standalone="no"?>
<svg xmlns:xlink="http://www.w3.org/1999/xlink" height="97.3px" width="61.9px" xmlns="http://www.w3.org/2000/svg">
  <g transform="matrix(1.0, 0.0, 0.0, 1.0, -0.9, 34.4)">
    <path d="M60.75 61.9 L3.45 61.9 2.55 13.4 61.65 13.4 60.75 61.9" fill="#c3c3c3" fill-rule="evenodd" stroke="none"/>
    <path d="M60.75 61.9 L3.45 61.9 2.55 13.4 61.65 13.4 60.75 61.9 Z" fill="none" stroke="#333333" stroke-linecap="round" stroke-linejoin="round" stroke-width="2.0"/>
    <path d="M3.45 52.8 L60.75 52.8 60.75 61.9 3.45 61.9 3.45 52.8" fill="#c3c3c3" fill-rule="evenodd" stroke="none"/>
    <path d="M61.65 13.4 L60.75 59.0 3.45 59.0 2.55 13.4 61.65 13.4" fill="#dadada" fill-rule="evenodd" stroke="none"/>
    <path d="M60.55 -3.35 L57.85 49.25 6.65 49.25 3.6 -3.2 60.55 -3.35" fill="#000000" fill-rule="evenodd" stroke="none"/>
    <path d="M60.55 -3.35 L57.85 49.25 6.65 49.25 3.6 -3.2 60.55 -3.35 Z" fill="none" stroke="#333333" stroke-linecap="round" stroke-linejoin="round" stroke-width="2.0"/>
    <path d="M6.45 45.05 L3.6 -3.2 60.55 -3.35 58.1 45.05 6.45 45.05" fill="#c96134" fill-rule="evenodd" stroke="none"/>
    <path d="M58.1 45.05 L57.85 49.25 6.65 49.25 6.45 45.05 58.1 45.05" fill="#cccccc" fill-rule="evenodd" stroke="none"/>
    <path d="M17.2 55.8 L17.2 46.35 49.4 46.35 49.4 55.8 17.2 55.8" fill="#c3c3c3" fill-rule="evenodd" stroke="none"/>
    <path d="M49.35 48.7 L17.35 48.7 17.35 45.15 49.35 45.15 49.35 48.7 M17.35 51.05 L49.35 51.05 49.35 53.75 17.35 53.75 17.35 51.05" fill="#dadada" fill-rule="evenodd" stroke="none"/>
    <path d="M6.9 11.9 L6.35 1.4 12.6 1.4 13.15 11.9 6.9 11.9" fill="#ffffff" fill-rule="evenodd" stroke="none"/>
    <path d="M7.5 11.15 L7.05 2.15 12.0 2.15 12.45 11.15 7.5 11.15" fill="#333333" fill-rule="evenodd" stroke="none"/>
    <path d="M9.45 6.55 L9.15 1.55 9.9 1.55 10.2 6.55 12.8 6.55 12.8 7.2 6.75 7.2 6.75 6.55 9.45 6.55" fill="#ffffff" fill-rule="evenodd" stroke="none"/>
    <path d="M58.3 1.6 L57.5 11.85 51.15 11.85 51.95 1.6 58.3 1.6" fill="#ffffff" fill-rule="evenodd" stroke="none"/>
    <path d="M57.55 2.3 L56.9 11.1 51.9 11.1 52.55 2.3 57.55 2.3" fill="#333333" fill-rule="evenodd" stroke="none"/>
    <path d="M55.3 1.75 L54.95 6.6 57.65 6.6 57.65 7.25 51.6 7.25 51.6 6.6 54.25 6.6 54.65 1.75 55.3 1.75" fill="#ffffff" fill-rule="evenodd" stroke="none"/>
    <path d="M16.65 1.4 L22.9 1.4 23.45 11.9 17.2 11.9 16.65 1.4" fill="#ffffff" fill-rule="evenodd" stroke="none"/>
    <path d="M17.35 2.15 L22.3 2.15 22.75 11.15 17.8 11.15 17.35 2.15" fill="#333333" fill-rule="evenodd" stroke="none"/>
    <path d="M20.2 1.55 L20.5 6.55 23.1 6.55 23.1 7.2 17.05 7.2 17.05 6.55 19.75 6.55 19.45 1.55 20.2 1.55" fill="#ffffff" fill-rule="evenodd" stroke="none"/>
    <path d="M41.9 1.6 L48.25 1.6 47.45 11.85 41.1 11.85 41.9 1.6" fill="#ffffff" fill-rule="evenodd" stroke="none"/>
    <path d="M42.5 2.3 L47.5 2.3 46.85 11.1 41.85 11.1 42.5 2.3" fill="#333333" fill-rule="evenodd" stroke="none"/>
    <path d="M44.6 1.75 L45.25 1.75 44.9 6.6 47.6 6.6 47.6 7.25 41.55 7.25 41.55 6.6 44.2 6.6 44.6 1.75" fill="#ffffff" fill-rule="evenodd" stroke="none"/>
    <path d="M48.3 46.6 L18.05 46.6 18.05 28.2 48.3 28.2 48.3 46.6" fill="#c96134" fill-rule="evenodd" stroke="none"/>
    <path d="M24.2 32.2 Q28.55 31.05 32.85 31.05 37.1 31.05 41.1 32.2 L39.95 47.1 25.35 47.1 24.2 32.2" fill="#ffffff" fill-rule="evenodd" stroke="none"/>
    <path d="M39.15 34.0 L38.2 47.05 27.1 47.05 26.4 34.0 39.15 34.0" fill="#000000" fill-rule="evenodd" stroke="none"/>
    <path d="M60.35 -0.3 L60.2 3.75 58.0 3.8 40.45 3.8 32.55 3.55 31.3 3.35 31.25 3.75 Q31.25 5.35 37.15 7.45 L42.0 9.7 46.15 11.65 46.9 11.55 53.4 15.35 57.75 17.75 Q57.65 19.45 57.8 20.35 L57.6 25.85 52.85 27.2 Q50.2 27.95 50.15 29.25 L50.35 29.95 50.75 30.45 Q49.85 30.9 49.9 32.4 L50.15 35.95 Q49.85 37.9 50.0 41.8 L49.85 47.6 49.65 49.45 42.1 49.45 43.15 50.7 Q43.1 51.5 42.2 51.5 L41.35 51.2 41.5 53.55 41.5 54.35 41.3 54.8 41.4 54.95 41.65 55.4 41.6 55.7 41.2 55.8 Q40.6 55.8 40.5 54.95 L40.5 54.75 Q40.15 53.75 39.85 50.2 L39.85 50.05 38.05 48.1 36.15 46.5 Q34.75 45.25 34.75 44.65 34.75 43.95 35.1 43.8 L34.9 43.5 36.6 43.55 37.0 43.8 37.05 43.3 Q37.05 40.55 36.3 36.5 35.65 35.65 35.15 33.1 L34.6 30.1 Q32.95 29.9 29.9 30.6 27.5 31.0 26.0 31.55 L22.15 32.1 Q20.3 32.3 20.15 33.4 19.75 33.75 19.8 34.25 19.8 35.45 20.8 35.7 20.5 36.1 20.5 36.55 L20.8 37.3 Q21.05 37.7 21.6 37.95 21.05 38.4 21.0 38.75 20.7 40.25 20.75 42.6 L21.4 47.05 21.65 47.95 Q20.9 48.05 20.9 49.05 L20.95 49.45 14.15 49.45 14.35 50.25 Q14.35 51.0 13.5 51.0 12.9 51.0 12.25 49.45 L12.1 49.45 12.0 48.85 11.55 47.65 10.05 42.1 8.55 37.45 7.7 34.8 5.85 35.1 4.3 11.95 Q4.75 11.7 5.25 11.5 L7.9 9.7 Q10.45 7.55 13.85 5.75 L16.35 4.55 16.2 4.5 15.3 4.5 10.2 4.75 3.8 4.85 3.4 -0.8 60.35 -0.3" fill="#000000" fill-opacity="0.3019608" fill-rule="evenodd" stroke="none"/>
    <path d="M55.15 32.55 L52.7 32.85 52.65 34.8 52.6 34.8 52.0 50.9 53.55 51.25 53.4 56.6 53.35 56.65 53.35 56.7 Q53.35 57.25 52.05 57.75 L48.55 58.3 47.85 58.35 47.6 58.35 44.25 58.1 44.2 58.1 44.0 58.05 43.45 57.95 43.35 57.95 43.35 57.9 Q41.2 57.5 41.15 56.5 L41.2 56.3 41.35 51.25 41.45 51.25 43.1 50.9 43.8 32.8 41.9 32.55 41.9 30.8 22.75 30.85 22.75 32.75 20.85 33.0 21.0 35.15 20.95 35.15 21.9 51.0 23.5 51.3 23.9 56.6 Q23.75 57.1 22.25 57.65 L18.95 58.2 16.0 58.0 15.6 57.9 15.2 57.9 14.25 57.75 14.2 57.75 14.05 57.7 13.9 57.7 13.75 57.65 13.5 57.6 13.3 57.55 13.2 57.5 13.1 57.45 13.0 57.4 Q11.6 56.95 11.6 56.5 L11.7 56.4 11.3 51.3 11.75 51.2 13.0 51.0 11.95 33.05 9.5 32.75 9.5 30.85 5.6 30.85 6.05 30.6 6.05 17.45 31.8 2.65 31.8 2.55 31.9 2.6 32.0 2.7 58.5 17.45 58.5 30.55 58.85 30.75 55.15 30.75 55.15 32.55 M14.3 51.9 L14.2 51.9 14.25 51.95 14.3 51.9 M41.45 50.3 L41.35 50.35 41.35 50.3 41.45 50.3" fill="#333333" fill-rule="evenodd" stroke="none"/>
    <path d="M55.15 32.55 L55.15 30.75 58.85 30.75 58.5 30.55 58.5 17.45 32.0 2.7 31.9 2.6 31.8 2.55 31.8 2.65 6.05 17.45 6.05 30.6 5.6 30.85 9.5 30.85 9.5 32.75 11.95 33.05 13.0 51.0 11.75 51.2 11.3 51.3 11.7 56.4 11.6 56.5 Q11.6 56.95 13.0 57.4 L13.1 57.45 13.2 57.5 13.3 57.55 13.5 57.6 13.75 57.65 13.9 57.7 14.05 57.7 14.2 57.75 14.25 57.75 15.2 57.9 15.6 57.9 16.0 58.0 18.95 58.2 22.25 57.65 Q23.75 57.1 23.9 56.6 L23.5 51.3 21.9 51.0 20.95 35.15 21.0 35.15 20.85 33.0 22.75 32.75 22.75 30.85 41.9 30.8 41.9 32.55 43.8 32.8 43.1 50.9 41.45 51.25 41.35 51.25 41.2 56.3 41.15 56.5 Q41.2 57.5 43.35 57.9 L43.35 57.95 43.45 57.95 44.0 58.05 44.2 58.1 44.25 58.1 47.6 58.35 47.85 58.35 48.55 58.3 52.05 57.75 Q53.35 57.25 53.35 56.7 L53.35 56.65 53.4 56.6 53.55 51.25 52.0 50.9 52.6 34.8 52.65 34.8 52.7 32.85 55.15 32.55 Z" fill="none" stroke="#333333" stroke-linecap="round" stroke-linejoin="round" stroke-width="2.0"/>
    <path d="M52.6 34.8 L52.0 50.9 53.55 51.25 53.4 56.6 53.35 56.65 53.35 56.7 Q53.35 57.25 52.05 57.75 L48.55 58.3 47.85 58.35 47.6 58.35 44.25 58.1 44.25 57.9 44.25 57.8 44.25 57.5 44.25 57.15 44.3 57.15 Q44.45 54.85 44.2 53.0 L44.1 52.45 45.95 51.45 45.65 49.3 46.05 42.7 46.4 35.85 46.4 35.15 46.4 35.0 Q48.4 34.15 51.5 34.5 L52.6 34.8 M41.15 56.5 L41.2 56.3 41.2 56.5 41.15 56.5 M16.0 58.0 L15.6 57.05 Q14.9 53.9 14.9 53.2 14.85 52.95 15.1 52.7 L15.5 52.4 15.65 52.0 15.6 51.8 15.15 42.2 14.7 37.95 14.5 36.05 14.5 35.35 Q16.5 34.45 19.8 34.85 L20.95 35.15 21.9 51.0 23.5 51.3 23.9 56.6 Q23.75 57.1 22.25 57.65 L18.95 58.2 16.0 58.0 M13.75 57.65 L13.8 57.65 13.9 57.7 13.75 57.65 M41.45 50.3 L41.35 50.35 41.35 50.3 41.45 50.3" fill="#ffffff" fill-rule="evenodd" stroke="none"/>
    <path d="M41.2 56.3 L41.35 51.25 41.45 51.25 43.1 50.9 43.8 32.25 52.7 32.25 52.65 34.8 52.6 34.8 51.5 34.5 Q48.4 34.15 46.4 35.0 L46.4 35.15 46.4 35.85 46.05 42.7 45.65 49.3 45.95 51.45 44.1 52.45 44.2 53.0 Q44.45 54.85 44.3 57.15 L44.25 57.15 44.25 57.5 44.25 57.8 44.25 57.9 44.25 58.1 44.2 58.1 44.0 58.05 43.45 57.95 43.35 57.95 43.35 57.9 Q41.2 57.5 41.15 56.5 L41.2 56.5 41.2 56.3 M20.95 35.15 L19.8 34.85 Q16.5 34.45 14.5 35.35 L14.5 36.05 14.7 37.95 15.15 42.2 15.6 51.8 15.65 52.0 15.5 52.4 15.1 52.7 Q14.85 52.95 14.9 53.2 14.9 53.9 15.6 57.05 L16.0 58.0 15.6 57.9 15.2 57.9 14.25 57.75 14.2 57.75 14.05 57.7 13.9 57.7 13.8 57.65 13.75 57.65 13.5 57.6 13.3 57.55 13.2 57.5 13.1 57.45 13.0 57.4 Q11.6 56.95 11.6 56.5 L11.7 56.4 11.3 51.3 11.75 51.2 13.0 51.0 11.9 32.5 20.8 32.5 21.0 35.15 20.95 35.15 M14.25 51.95 L14.3 51.9 14.2 51.9 14.25 51.95" fill="#cccccc" fill-rule="evenodd" stroke="none"/>
    <path d="M41.9 32.55 L41.9 30.25 55.15 30.25 55.15 32.55 Q48.55 33.45 41.9 32.55 M9.5 32.75 L9.5 30.45 22.75 30.45 22.75 32.75 Q16.15 33.65 9.5 32.75" fill="#dadada" fill-rule="evenodd" stroke="none"/>
    <path d="M31.8 2.65 L31.8 2.55 31.9 2.6 32.0 2.7 58.5 17.45 58.5 30.7 58.4 30.6 32.0 14.25 31.9 14.15 31.8 2.65" fill="#6a6a6a" fill-rule="evenodd" stroke="none"/>
    <path d="M31.8 2.65 L31.9 14.15 32.0 14.25 6.05 30.7 6.05 17.45 31.8 2.65" fill="#4f4f4f" fill-rule="evenodd" stroke="none"/>
    <path d="M5.6 30.85 L32.05 14.2 58.85 30.75 5.6 30.85" fill="#ebebeb" fill-rule="evenodd" stroke="none"/>
    <path d="M16.05 28.15 Q24.15 23.1 32.2 18.0 L48.5 28.15 16.05 28.15" fill="#c96134" fill-rule="evenodd" stroke="none"/>
    <path d="M41.2 27.45 Q40.25 28.9 38.6 30.1 35.85 31.95 32.2 31.95 28.65 31.95 25.9 30.1 24.25 28.9 23.4 27.45 22.05 25.8 21.85 23.65 21.2 19.95 24.2 17.05 27.4 14.0 32.2 14.0 37.25 14.0 40.3 17.05 43.25 19.95 42.8 23.65 42.55 25.7 41.2 27.45 Z" fill="none" stroke="#454545" stroke-linecap="round" stroke-linejoin="round" stroke-width="1.5"/>
    <path d="M25.4 29.25 Q22.2 26.95 21.85 23.65 21.2 19.95 24.2 17.05 27.4 14.0 32.2 14.0 37.25 14.0 40.3 17.05 43.25 19.95 42.8 23.65 42.3 26.95 39.1 29.25 36.15 31.35 32.2 31.35 28.35 31.35 25.4 29.25" fill="#ffffff" fill-rule="evenodd" stroke="none"/>
    <path d="M25.9 30.1 Q22.95 27.9 22.55 24.85 21.95 21.35 24.75 18.75 27.65 15.95 32.2 15.95 36.9 15.95 39.75 18.75 42.45 21.35 42.05 24.85 41.55 27.9 38.6 30.1 35.85 31.95 32.2 31.95 28.65 31.95 25.9 30.1" fill="#ebebeb" fill-rule="evenodd" stroke="none"/>
    <path d="M27.4 23.9 L25.65 23.0 25.55 22.85 25.45 22.65 25.6 22.45 31.45 18.0 31.65 17.95 31.8 18.0 38.9 21.05 39.1 21.2 39.1 21.4 39.05 21.55 36.05 24.2 33.4 26.6 33.2 26.65 33.05 26.65 29.3 24.8 27.85 24.05 28.5 23.9 28.65 23.8 33.15 26.0 38.25 21.4 31.7 18.6 26.3 22.65 27.95 23.5 Q27.65 23.65 27.4 23.9" fill="#ebebeb" fill-rule="evenodd" stroke="none"/>
    <path d="M27.4 23.9 Q27.65 23.65 27.95 23.5 L26.3 22.65 31.7 18.6 38.25 21.4 33.15 26.0 28.65 23.8 28.5 23.9 27.85 24.05 27.75 24.05 27.8 24.7 27.85 24.7 27.95 24.85 28.0 24.9 28.1 25.2 27.8 25.7 27.75 25.85 27.75 26.75 27.8 28.3 27.85 28.85 27.8 29.6 27.6 29.4 27.45 29.4 Q26.95 28.95 27.15 28.0 L27.3 26.4 27.4 25.85 27.3 25.7 26.95 25.35 Q26.8 25.05 27.15 24.8 L27.3 24.65 27.3 24.6 27.4 24.05 27.3 24.05 27.3 23.9 27.4 23.9 M29.3 24.8 L33.05 26.65 33.2 26.65 33.4 26.6 36.05 24.2 36.25 25.35 Q34.2 26.05 33.05 28.25 31.35 26.6 29.25 26.05 L29.3 24.8" fill="#4f4f4f" fill-rule="evenodd" stroke="none"/>
    <path d="M1.9 -1.05 L1.9 -29.35 61.8 -29.35 61.8 -1.05 1.9 -1.05" fill="#666666" fill-rule="evenodd" stroke="none"/>
    <path d="M1.9 -1.05 L61.8 -1.05 61.8 -29.35 1.9 -29.35 1.9 -1.05 Z" fill="none" stroke="#333333" stroke-linecap="round" stroke-linejoin="round" stroke-width="2.0"/>
    <path d="M1.9 -28.3 L1.9 -29.35 61.8 -29.35 61.8 -29.05 53.25 -20.4 52.25 -20.4 10.8 -20.4 11.1 -20.95 1.9 -28.3" fill="#666666" fill-rule="evenodd" stroke="none"/>
    <path d="M2.3 -1.05 L1.9 -1.05 1.9 -28.3 11.1 -20.95 10.8 -20.4 2.3 -1.05" fill="#4f4f4f" fill-rule="evenodd" stroke="none"/>
    <path d="M61.8 -2.05 L61.8 -1.05 2.3 -1.05 10.8 -20.4 52.25 -20.4 52.65 -19.8 61.8 -2.05" fill="#585858" fill-rule="evenodd" stroke="none"/>
    <path d="M61.8 -29.05 L61.8 -2.05 52.65 -19.8 52.25 -20.4 53.25 -20.4 61.8 -29.05" fill="#6a6a6a" fill-rule="evenodd" stroke="none"/>
    <path d="M34.45 -3.65 L33.5 -13.7 45.8 -22.1 58.35 -14.75 57.0 -3.85 34.45 -3.65" fill="#c96134" fill-rule="evenodd" stroke="none"/>
    <path d="M34.45 -3.65 L57.0 -3.85 58.35 -14.75 45.8 -22.1 33.5 -13.7 34.45 -3.65 Z" fill="none" stroke="#333333" stroke-linecap="round" stroke-linejoin="round" stroke-width="1.0"/>
    <path d="M49.8 -15.5 L49.1 -5.75 42.25 -5.75 42.35 -15.5 49.8 -15.5 M46.5 -14.7 L46.4 -10.45 48.65 -10.45 48.95 -14.7 46.5 -14.7 M48.6 -9.85 L42.95 -9.85 42.95 -6.35 48.4 -6.35 48.6 -9.85 M45.6 -14.7 L43.05 -14.7 43.0 -10.45 45.5 -10.45 45.6 -14.7" fill="#ffffff" fill-rule="evenodd" stroke="none"/>
    <path d="M46.5 -14.7 L48.95 -14.7 48.65 -10.45 46.4 -10.45 46.5 -14.7 M45.6 -14.7 L45.5 -10.45 43.0 -10.45 43.05 -14.7 45.6 -14.7 M48.6 -9.85 L48.4 -6.35 42.95 -6.35 42.95 -9.85 48.6 -9.85" fill="#333333" fill-rule="evenodd" stroke="none"/>
    <path d="M34.1 -7.6 L33.5 -13.7 45.8 -22.1 58.35 -14.75 57.6 -8.75 Q51.6 -11.85 45.55 -15.0 L34.1 -7.6" fill="#000000" fill-opacity="0.29803923" fill-rule="evenodd" stroke="none"/>
    <path d="M46.0 -19.25 L46.0 -19.15 32.35 -11.0 32.35 -27.8 Q32.55 -27.65 39.1 -30.8 L45.55 -33.85 46.0 -19.25" fill="#4f4f4f" fill-rule="evenodd" stroke="none"/>
    <path d="M46.0 -19.25 L45.55 -33.85 45.7 -33.9 58.95 -27.8 59.25 -11.15 46.0 -19.25" fill="#6a6a6a" fill-rule="evenodd" stroke="none"/>
    <path d="M45.55 -33.85 L39.1 -30.8 Q32.55 -27.65 32.35 -27.8 L32.35 -11.0 46.0 -19.15 46.0 -19.25 M45.55 -33.85 L45.7 -33.9 58.95 -27.8 59.25 -11.15 46.0 -19.25" fill="none" stroke="#333333" stroke-linecap="round" stroke-linejoin="round" stroke-width="1.0"/>
    <path d="M30.0 -3.65 L7.45 -3.85 6.1 -14.75 18.65 -22.1 30.95 -13.7 30.0 -3.65" fill="#c96134" fill-rule="evenodd" stroke="none"/>
    <path d="M30.0 -3.65 L7.45 -3.85 6.1 -14.75 18.65 -22.1 30.95 -13.7 30.0 -3.65 Z" fill="none" stroke="#333333" stroke-linecap="round" stroke-linejoin="round" stroke-width="1.0"/>
    <path d="M15.35 -5.75 L14.65 -15.5 22.1 -15.5 22.2 -5.75 15.35 -5.75 M18.95 -10.45 L21.45 -10.45 21.4 -14.7 18.85 -14.7 18.95 -10.45 M16.05 -6.35 L21.5 -6.35 21.5 -9.85 15.85 -9.85 16.05 -6.35 M15.8 -10.45 L18.05 -10.45 17.95 -14.7 15.5 -14.7 15.8 -10.45" fill="#ffffff" fill-rule="evenodd" stroke="none"/>
    <path d="M16.05 -6.35 L15.85 -9.85 21.5 -9.85 21.5 -6.35 16.05 -6.35 M18.95 -10.45 L18.85 -14.7 21.4 -14.7 21.45 -10.45 18.95 -10.45 M15.8 -10.45 L15.5 -14.7 17.95 -14.7 18.05 -10.45 15.8 -10.45" fill="#333333" fill-rule="evenodd" stroke="none"/>
    <path d="M18.65 -22.1 L30.95 -13.7 30.35 -7.6 18.9 -15.0 6.85 -8.75 6.1 -14.75 18.65 -22.1" fill="#000000" fill-opacity="0.29803923" fill-rule="evenodd" stroke="none"/>
    <path d="M18.9 -33.85 L25.35 -30.8 Q31.9 -27.65 32.1 -27.8 L32.1 -11.0 18.45 -19.2 18.45 -19.25 18.9 -33.85" fill="#6a6a6a" fill-rule="evenodd" stroke="none"/>
    <path d="M18.45 -19.25 L5.2 -11.15 5.5 -27.8 18.75 -33.9 18.9 -33.85 18.45 -19.25" fill="#4f4f4f" fill-rule="evenodd" stroke="none"/>
    <path d="M18.9 -33.85 L25.35 -30.8 Q31.9 -27.65 32.1 -27.8 L32.1 -11.0 18.45 -19.2 18.45 -19.25 5.2 -11.15 5.5 -27.8 18.75 -33.9 18.9 -33.85 Z" fill="none" stroke="#333333" stroke-linecap="round" stroke-linejoin="round" stroke-width="1.0"/>
  </g>
</svg>
