<?xml version="1.0" encoding="UTF-8" standalone="no"?>
<svg xmlns:xlink="http://www.w3.org/1999/xlink" height="59.3px" width="68.15px" xmlns="http://www.w3.org/2000/svg">
  <g transform="matrix(1.0, 0.0, 0.0, 1.0, 11.6, 25.6)">
    <path d="M29.5 -25.35 L29.45 -25.0 39.6 -23.3 39.25 -22.75 38.9 -22.8 38.0 -17.95 34.75 -18.25 37.75 -17.05 36.1 -9.35 32.9 -9.05 35.95 -8.35 34.9 -3.8 32.8 -3.7 34.65 -2.9 34.55 -2.4 34.3 -1.0 34.55 -0.95 34.35 -0.3 25.3 -1.5 25.25 -1.5 24.95 0.35 24.95 0.4 25.75 0.95 Q27.1 2.1 27.1 3.75 L27.05 4.5 56.55 8.35 56.3 10.2 55.85 10.15 53.95 18.95 53.25 18.65 53.3 18.35 47.75 17.55 48.1 14.75 46.75 17.35 37.85 15.9 37.6 13.1 36.75 15.75 31.55 14.85 31.4 13.05 30.5 14.65 28.25 14.35 28.2 14.55 27.5 14.35 28.55 8.5 28.9 6.5 28.85 6.5 28.55 6.45 28.2 6.4 26.25 6.15 25.75 6.65 Q24.4 7.8 22.5 7.8 L22.0 7.8 17.55 33.7 15.45 33.45 15.55 33.1 15.5 33.1 14.45 32.9 14.1 32.85 13.6 32.75 5.35 31.4 5.7 30.85 6.05 30.9 6.95 26.05 10.2 26.35 7.2 25.15 8.85 17.45 12.05 17.15 9.0 16.45 10.05 11.9 12.15 11.8 10.3 11.0 10.7 9.1 10.4 9.05 10.6 8.4 19.65 9.6 19.7 9.6 20.1 7.25 19.2 6.65 Q17.85 5.45 17.85 3.75 L17.85 3.6 -11.6 -0.25 -11.35 -2.1 -10.9 -2.05 -9.0 -10.85 -8.3 -10.55 -8.35 -10.25 -2.8 -9.45 -3.15 -6.65 -1.8 -9.25 7.1 -7.8 7.35 -5.0 8.2 -7.65 13.4 -6.75 13.55 -4.95 14.45 -6.55 16.7 -6.2 16.75 -6.45 17.45 -6.25 16.1 1.6 18.35 1.95 Q18.7 1.4 19.2 0.95 20.55 -0.25 22.5 -0.25 L23.05 -0.2 27.4 -25.6 29.5 -25.35" fill="#000000" fill-opacity="0.21960784" fill-rule="evenodd" stroke="none"/>
  </g>
</svg>
