<?xml version="1.0" encoding="UTF-8" standalone="no"?>
<svg xmlns:xlink="http://www.w3.org/1999/xlink" height="351.25px" width="335.25px" xmlns="http://www.w3.org/2000/svg">
  <g transform="matrix(1.0, 0.0, 0.0, 1.0, -2.4, -1.0)">
    <path d="M72.9 224.0 L77.8 223.5 83.1 223.05 180.6 223.05 180.6 223.75 190.05 223.75 191.35 223.65 211.0 223.55 211.0 223.05 230.65 223.05 230.65 223.75 239.25 223.75 243.3 223.6 246.9 223.4 270.05 223.3 272.45 223.15 275.0 223.1 289.7 223.15 289.7 223.75 293.95 223.75 296.85 223.55 305.95 223.3 305.95 224.15 307.55 224.35 309.4 224.35 309.4 228.65 308.6 228.6 308.45 231.85 Q308.4 233.6 309.4 234.8 L309.45 237.6 309.4 257.6 Q308.95 259.25 308.95 260.25 L309.4 263.0 308.6 263.0 308.6 277.15 308.95 277.15 309.05 280.95 Q309.15 282.05 309.4 283.0 L309.4 289.4 Q308.9 291.0 308.3 294.9 307.75 299.0 307.75 301.25 307.75 302.3 308.55 305.1 L309.4 308.9 309.4 319.35 309.1 321.55 308.1 327.15 308.1 331.8 309.4 331.8 309.4 337.25 Q308.7 338.95 308.05 342.4 307.25 346.75 307.25 349.25 L307.3 350.15 259.4 350.15 259.4 349.65 246.6 350.15 222.95 350.15 222.95 349.65 218.3 349.5 218.25 350.0 217.05 350.0 217.1 350.15 191.65 350.15 190.95 349.85 190.95 347.6 190.5 347.6 190.5 346.75 185.8 346.75 185.5 346.9 Q185.1 347.1 184.95 347.25 L184.95 348.55 184.5 348.5 184.25 348.9 183.65 349.35 183.65 349.65 Q177.45 349.5 176.65 349.65 L175.05 350.0 175.05 350.15 133.35 350.15 133.15 350.05 132.75 349.85 129.3 349.75 129.3 348.2 124.65 348.2 124.7 349.2 122.05 349.2 Q121.4 349.5 120.2 350.15 L9.15 350.15 8.75 349.85 8.75 348.4 Q7.4 347.25 6.9 345.75 L6.9 336.55 7.4 336.55 7.4 320.15 6.9 318.45 6.9 310.35 7.4 305.85 7.4 298.6 7.85 298.6 7.85 292.9 Q7.4 292.3 7.4 291.05 L6.9 291.05 6.9 290.1 8.3 290.1 8.3 287.95 Q7.85 287.1 7.55 285.75 L7.4 284.05 7.5 282.6 7.85 280.6 7.85 265.5 6.9 265.5 6.9 264.65 7.85 264.65 7.85 255.35 6.9 251.9 6.9 246.05 7.4 246.05 Q7.4 245.35 7.85 244.75 L7.85 237.4 Q7.9 236.35 8.3 235.8 L8.3 228.6 Q7.95 227.35 7.9 224.8 8.9 223.75 9.95 223.05 L13.4 223.05 13.4 223.5 25.8 223.55 30.9 223.25 33.55 223.05 36.6 223.05 36.6 223.5 43.85 223.5 55.75 223.65 63.9 223.8 72.9 224.0" fill="#000000" fill-opacity="0.3019608" fill-rule="evenodd" stroke="none"/>
    <path d="M74.3 222.65 L79.2 222.15 84.5 221.75 182.0 221.75 182.0 222.4 191.5 222.5 192.75 222.35 212.35 222.3 212.35 221.75 232.1 221.75 232.1 222.4 240.65 222.5 244.7 222.3 248.35 222.05 271.4 222.0 273.85 221.85 276.4 221.8 291.15 221.85 291.15 222.4 295.35 222.5 298.3 222.3 307.35 222.05 307.35 222.9 309.0 223.05 310.8 223.05 310.8 227.35 310.0 227.35 309.85 230.5 Q309.8 232.3 310.8 233.5 L310.8 236.3 310.8 256.3 Q310.35 257.95 310.35 258.9 L310.8 261.65 310.0 261.65 310.0 275.85 310.35 275.85 310.4 279.65 310.8 281.65 310.8 288.1 Q310.3 289.75 309.7 293.6 309.1 297.7 309.1 299.95 309.1 301.0 309.95 303.8 310.75 306.4 310.8 307.6 L310.8 318.1 310.55 320.25 309.55 325.75 309.55 330.5 310.8 330.55 310.8 336.0 Q310.15 337.65 309.5 341.1 308.65 345.45 308.65 347.9 L308.7 348.85 260.8 348.85 260.8 348.35 248.0 348.85 224.4 348.85 224.4 348.35 219.65 348.2 219.65 348.75 218.4 348.7 218.5 348.85 193.05 348.85 192.35 348.5 192.35 346.25 191.9 346.25 191.9 345.45 187.2 345.45 186.9 345.6 186.4 345.95 186.4 347.25 185.95 347.25 185.65 347.65 185.05 348.0 185.05 348.35 Q178.8 348.2 178.1 348.35 L176.5 348.7 176.5 348.85 134.75 348.85 134.6 348.75 134.2 348.5 130.75 348.4 130.75 346.85 126.05 346.85 126.05 347.85 123.5 347.85 121.55 348.85 10.55 348.85 10.1 348.5 10.1 347.1 Q8.85 346.0 8.3 344.5 L8.3 335.2 8.85 335.2 8.85 318.85 Q8.5 318.2 8.3 317.2 L8.3 309.05 8.85 304.5 8.85 297.2 9.2 297.2 9.2 291.6 Q8.85 291.0 8.85 289.8 L8.3 289.8 8.3 288.85 9.7 288.85 9.7 286.6 Q9.2 285.8 9.0 284.45 L8.85 282.75 8.95 281.3 9.2 279.25 9.2 264.15 8.3 264.15 8.3 263.3 9.2 263.3 9.2 254.05 8.3 250.55 8.3 244.75 8.85 244.75 Q8.85 244.05 9.2 243.45 L9.2 236.05 Q9.25 235.0 9.7 234.45 L9.7 227.35 Q9.35 226.0 9.25 223.5 L11.3 221.75 14.8 221.75 14.8 222.15 27.25 222.3 32.35 221.95 35.0 221.75 37.95 221.75 37.95 222.15 45.25 222.15 57.2 222.35 65.3 222.55 74.3 222.65" fill="#b0892f" fill-rule="evenodd" stroke="none"/>
    <path d="M115.25 220.4 Q115.25 219.95 115.5 219.95 L115.8 219.95 Q116.65 220.5 116.95 221.45 L117.45 223.1 116.85 223.5 Q116.1 222.95 115.65 221.95 L115.25 220.4 M107.6 220.05 Q107.6 218.85 108.45 218.7 L109.9 223.2 109.3 223.8 Q109.05 223.65 108.3 222.0 L107.6 220.05 M57.85 219.7 L58.0 219.55 58.55 219.55 Q59.3 220.15 59.3 221.6 59.2 223.25 59.55 223.65 L59.15 223.8 58.45 223.8 Q57.85 221.6 57.85 220.25 L57.85 219.7 M46.35 220.45 L46.5 220.75 46.5 221.3 46.2 223.5 45.55 223.6 45.35 223.4 45.35 222.85 45.6 221.6 45.85 220.45 46.35 220.45 M56.35 223.8 L57.05 223.8 56.4 223.95 56.35 223.8 M23.3 220.9 Q23.3 222.55 22.9 224.15 L22.6 224.3 22.15 224.55 21.4 224.1 21.3 223.45 Q21.3 219.35 22.5 218.6 L23.1 219.8 23.3 220.9 M12.1 231.45 L11.65 231.8 10.6 232.0 8.35 231.9 6.55 231.55 Q8.5 230.2 11.8 230.95 L12.1 231.45 M11.0 248.55 L11.1 249.05 Q11.1 249.45 9.35 249.85 L5.8 250.2 5.15 250.15 5.15 250.0 Q5.0 250.4 5.0 249.7 5.0 249.2 6.6 248.8 L10.9 248.6 11.0 248.55 M5.15 265.75 L5.15 265.7 Q5.0 266.0 5.0 265.35 5.0 265.0 7.9 263.95 10.8 262.95 11.75 263.0 L11.85 263.1 11.9 263.55 Q11.9 264.65 5.8 265.8 L5.15 265.75 M10.05 298.6 L9.8 299.15 8.55 299.3 7.1 299.5 6.3 299.45 Q6.15 299.4 6.15 298.95 6.15 298.4 7.5 298.15 L9.8 298.1 10.05 298.6 M9.65 302.9 L9.8 303.35 8.85 304.0 6.0 304.0 4.7 303.7 Q6.4 302.1 7.15 302.1 L9.65 302.9 M5.7 319.3 Q8.95 317.8 10.2 318.1 L10.3 318.1 10.35 318.6 6.7 320.05 4.05 320.05 5.7 319.3 M15.5 346.0 L15.6 346.65 Q15.6 347.45 15.0 349.1 L14.05 351.55 13.5 351.75 12.9 351.65 12.8 351.1 Q12.8 350.55 13.55 348.4 14.45 346.15 14.95 345.75 L15.5 346.0 M2.4 337.2 Q2.7 336.8 4.05 336.15 L6.7 336.15 3.1 337.55 2.4 337.2 M36.9 346.5 Q38.25 347.1 38.9 349.3 L39.2 350.7 39.25 351.5 39.2 352.0 39.1 352.1 38.6 352.25 Q37.75 351.45 37.35 349.65 L36.7 346.7 36.9 346.5 M72.15 346.55 L72.7 346.3 Q73.55 346.85 73.9 348.35 74.3 350.0 74.75 350.6 L74.55 351.0 73.75 351.2 Q73.05 351.2 72.0 347.25 72.0 346.7 72.15 346.55 M66.95 352.0 L66.45 351.8 66.35 351.2 66.25 348.0 Q66.25 346.15 67.1 345.65 L67.45 348.65 67.6 351.55 66.95 352.0 M101.8 346.65 L102.6 346.65 103.0 348.65 103.65 350.7 103.45 351.1 102.65 351.3 101.95 351.2 101.95 351.1 101.45 348.9 101.1 347.1 Q101.1 346.7 101.45 346.65 L101.8 346.65 M83.45 350.9 L83.05 350.7 82.95 350.15 Q82.95 349.25 83.45 347.45 84.0 345.75 84.35 345.65 84.7 346.15 84.7 347.3 L84.6 349.25 Q84.3 350.35 83.45 350.9 M295.75 221.2 L296.85 220.15 297.4 220.25 Q297.6 220.35 297.6 220.8 297.6 221.35 297.0 222.35 L296.1 223.7 295.65 223.8 295.3 223.15 295.2 222.4 Q295.2 221.9 295.75 221.2 M306.65 231.35 L310.6 230.85 312.8 230.45 313.0 230.9 312.0 231.55 309.5 231.9 306.75 231.55 306.65 231.35 M312.6 233.75 L312.4 234.15 311.65 234.25 309.4 234.1 307.6 233.7 310.05 233.4 Q311.5 233.2 312.45 233.4 L312.6 233.75 M254.55 221.2 L254.6 220.6 254.65 220.5 255.0 220.5 255.7 221.7 256.2 222.85 256.1 223.15 255.7 223.5 Q255.25 223.2 254.95 222.5 254.55 221.8 254.55 221.2 M313.95 254.85 L313.75 255.25 313.0 255.45 310.95 255.15 308.65 254.7 Q308.45 255.05 308.45 254.3 308.45 252.65 313.95 254.85 M306.4 282.45 L306.5 281.95 306.6 282.0 310.55 281.9 311.3 281.9 312.45 282.05 312.6 282.45 Q312.35 282.8 311.95 282.85 L306.5 282.85 306.4 282.45 M312.15 285.65 L312.3 286.1 312.3 286.6 312.0 286.75 308.75 286.75 306.75 286.3 Q307.4 285.9 308.3 285.75 L311.65 285.55 312.15 285.65 M242.3 222.7 Q241.75 221.25 241.75 220.9 241.75 220.5 242.1 220.35 L242.5 220.35 Q243.8 221.2 244.3 223.8 L242.8 223.8 242.3 222.7 M211.6 221.7 L212.35 223.2 212.25 223.6 211.95 223.6 Q211.15 223.2 210.9 222.2 L210.35 220.6 210.5 220.4 Q210.9 220.5 211.6 221.7 M242.15 223.8 L242.05 224.3 241.3 224.5 240.7 223.8 242.15 223.8 M165.2 223.8 Q165.05 223.65 165.05 223.0 165.05 222.55 166.05 220.75 167.05 218.95 167.35 218.7 L167.85 218.95 168.05 219.55 Q168.05 220.35 165.8 223.8 L165.2 223.8 M210.9 348.5 L211.15 350.2 211.05 350.7 210.9 350.75 Q211.3 350.95 210.45 350.95 209.5 350.95 209.35 350.2 L209.35 349.45 209.25 348.2 Q209.25 346.85 210.3 346.5 L210.9 348.5 M314.7 309.95 Q314.3 310.55 313.15 310.55 L310.1 310.35 307.45 310.05 Q309.5 308.85 311.5 308.85 L314.55 309.55 314.7 309.95 M310.25 341.05 Q309.15 340.6 308.85 340.35 309.55 339.45 310.9 339.9 311.9 340.3 312.65 341.05 312.6 341.65 311.95 341.85 L310.25 341.05 M270.45 346.0 L270.55 346.5 270.2 347.7 269.95 348.95 269.7 349.75 269.45 350.45 268.75 350.55 268.05 350.45 Q267.9 350.75 267.9 350.05 267.9 349.25 268.4 348.0 269.05 346.3 270.15 345.95 L270.45 346.0 M245.7 350.7 L245.35 350.15 Q245.2 350.0 245.2 349.4 245.2 348.7 245.5 347.8 245.8 346.7 246.3 346.3 247.1 346.85 247.1 348.0 L246.5 349.4 245.7 350.7 M296.5 351.5 Q295.7 351.2 295.55 350.6 L295.5 349.75 Q295.45 348.8 295.55 347.9 295.8 346.15 296.7 345.75 297.05 346.15 297.25 347.45 L297.25 351.0 296.5 351.5" fill="#72591f" fill-rule="evenodd" stroke="none"/>
    <path d="M337.65 10.75 L337.5 12.55 337.5 20.8 337.6 22.15 337.5 22.3 337.5 23.2 337.6 23.6 337.5 23.85 337.5 23.9 Q337.5 24.4 337.0 24.55 L334.2 27.75 Q333.35 28.7 330.6 29.1 L323.7 29.45 316.2 29.2 312.95 28.75 312.4 28.7 310.55 29.1 308.05 29.35 307.85 29.45 Q307.85 29.75 307.2 29.65 L306.7 29.6 306.7 29.8 Q306.35 30.65 305.45 30.65 304.8 30.65 303.7 29.45 L303.65 29.45 296.15 29.2 292.9 28.75 291.45 28.65 Q287.8 29.25 287.8 29.45 287.8 29.75 287.15 29.65 L286.65 29.6 286.65 29.8 Q286.3 30.65 285.4 30.65 284.25 30.65 281.8 27.05 L279.95 24.1 279.65 24.05 Q278.6 23.85 278.6 23.05 L278.25 16.85 Q277.6 11.75 277.6 9.45 277.6 9.05 279.65 7.4 280.4 6.75 280.9 6.6 L281.35 6.15 281.3 6.1 Q280.85 5.5 280.85 5.15 280.85 4.4 283.35 4.05 L285.1 4.0 Q286.5 3.45 286.75 1.85 L289.45 1.75 309.1 1.0 310.4 1.75 329.15 1.0 Q331.2 2.05 333.0 3.5 L333.65 4.1 334.1 4.2 Q336.05 4.85 336.85 5.5 337.65 3.35 337.65 10.75" fill="#069bfc" fill-rule="evenodd" stroke="none"/>
    <path d="M321.0 210.3 L142.6 213.05 143.3 47.8 326.15 47.25 321.15 210.3 321.0 210.3" fill="#b0892f" fill-rule="evenodd" stroke="none"/>
  </g>
</svg>
