<?xml version="1.0" encoding="UTF-8" standalone="no"?>
<svg xmlns:xlink="http://www.w3.org/1999/xlink" height="140.95px" width="255.8px" xmlns="http://www.w3.org/2000/svg">
  <g transform="matrix(1.0, 0.0, 0.0, 1.0, 127.9, 70.5)">
    <path d="M123.4 24.3 Q123.9 39.85 88.1 52.0 52.25 64.2 1.15 65.75 -50.0 67.35 -86.4 57.45 -122.9 47.5 -123.4 31.95 -123.75 19.2 -99.75 8.75 -98.4 -15.45 -78.45 -35.6 -52.85 -61.4 -11.6 -65.35 29.7 -69.35 62.45 -49.2 95.15 -29.1 100.3 3.25 123.05 12.05 123.4 24.3" fill="#416409" fill-rule="evenodd" stroke="none"/>
    <path d="M123.4 24.3 Q123.9 39.85 88.1 52.0 52.25 64.2 1.15 65.75 -50.0 67.35 -86.4 57.45 -122.9 47.5 -123.4 31.95 -123.75 19.2 -99.75 8.75 -98.4 -15.45 -78.45 -35.6 -52.85 -61.4 -11.6 -65.35 29.7 -69.35 62.45 -49.2 95.15 -29.1 100.3 3.25 123.05 12.05 123.4 24.3 Z" fill="none" stroke="#416409" stroke-linecap="round" stroke-linejoin="round" stroke-width="9.0"/>
    <path d="M88.1 52.0 Q52.25 64.2 1.15 65.75 -50.0 67.35 -86.4 57.45 -122.9 47.5 -123.4 31.95 -123.85 16.4 -88.05 4.25 -52.3 -7.95 -1.15 -9.55 49.95 -11.1 86.45 -1.2 122.95 8.75 123.4 24.3 123.9 39.85 88.1 52.0" fill="#7cb421" fill-rule="evenodd" stroke="none"/>
    <path d="M99.45 28.55 Q92.35 31.95 77.4 35.15 47.95 41.5 2.75 43.1 -42.45 44.7 -73.35 39.25 -89.85 36.35 -96.6 32.95 -98.4 26.5 -99.0 22.65 -104.05 -9.75 -78.45 -35.6 -52.85 -61.4 -11.6 -65.35 29.7 -69.35 62.45 -49.2 95.25 -29.05 100.3 3.45 102.35 16.55 99.45 28.55" fill="#7cb421" fill-rule="evenodd" stroke="none"/>
    <path d="M49.85 20.9 L38.95 31.0 9.15 5.05 -19.2 31.45 -30.6 21.55 8.55 -15.0 8.6 -14.95 49.85 20.9" fill="#ffcc33" fill-rule="evenodd" stroke="none"/>
    <path d="M96.65 22.7 Q99.45 11.05 97.45 -1.6 95.65 -13.25 90.2 -23.25 98.05 -11.15 100.3 3.45 102.35 16.55 99.45 28.55 92.35 31.95 77.4 35.15 47.95 41.5 2.75 43.1 -42.45 44.7 -73.35 39.25 -89.85 36.35 -96.6 32.95 -98.4 26.5 -99.0 22.65 -103.4 -5.45 -84.65 -28.65 -99.35 -7.85 -95.5 17.0 -94.9 20.7 -93.15 26.95 -86.65 30.25 -70.65 33.05 -40.75 38.35 3.0 36.8 46.8 35.25 75.3 29.1 89.75 25.95 96.65 22.7" fill="#719d17" fill-rule="evenodd" stroke="none"/>
    <path d="M-38.95 -53.7 Q-22.85 -61.25 -0.1 -61.5 22.8 -61.65 38.9 -54.45 55.15 -47.15 55.3 -36.6 55.35 -26.2 39.25 -18.65 23.2 -11.05 0.4 -10.85 -22.35 -10.65 -38.6 -17.9 -54.8 -25.15 -54.95 -35.65 -55.0 -46.15 -38.95 -53.7" fill="#ffcc33" fill-opacity="0.3019608" fill-rule="evenodd" stroke="none"/>
    <path d="M79.6 -16.65 Q76.8 -13.05 72.25 -12.5 67.75 -11.95 64.15 -14.75 60.55 -17.55 60.0 -22.05 59.45 -26.55 62.25 -30.2 65.05 -33.8 69.55 -34.35 74.1 -34.9 77.7 -32.1 81.3 -29.25 81.85 -24.75 82.4 -20.25 79.6 -16.65" fill="#ffcc33" fill-opacity="0.3019608" fill-rule="evenodd" stroke="none"/>
  </g>
</svg>
