<?xml version="1.0" encoding="UTF-8" standalone="no"?>
<svg xmlns:xlink="http://www.w3.org/1999/xlink" height="289.75px" width="341.8px" xmlns="http://www.w3.org/2000/svg">
  <g transform="matrix(1.0, 0.0, 0.0, 1.0, 179.25, 132.1)">
    <path d="M30.0 -47.1 Q41.75 -52.45 54.6 -56.5 106.2 -72.7 128.85 -47.75 160.05 -13.8 157.9 24.45 157.2 38.35 152.05 49.9 147.7 59.65 142.9 62.85 141.6 61.55 142.65 47.25 142.25 43.0 141.15 39.15 L146.45 34.5 140.05 35.9 Q136.6 27.1 128.7 20.65 126.85 18.95 120.75 17.3 L126.6 7.25 112.75 15.4 111.6 15.1 116.35 7.05 104.7 13.8 95.95 12.4 100.35 19.85 Q107.5 32.6 112.0 46.7 L102.6 51.85 113.7 52.45 Q117.7 66.45 119.2 81.7 L111.4 87.9 119.75 91.15 Q120.1 93.95 120.05 96.5 L113.85 97.2 120.1 99.4 120.15 102.1 Q119.9 138.2 112.1 152.2 109.5 157.0 87.65 137.85 80.45 131.5 73.45 124.6 L84.2 115.0 68.1 118.95 Q55.5 105.75 44.25 90.35 L40.4 84.95 45.5 76.35 35.85 78.45 33.05 73.8 39.4 68.75 31.2 70.85 Q5.15 27.5 11.2 -4.4 -11.75 18.2 -61.65 21.15 L-64.55 13.2 -65.15 21.3 -70.5 21.6 -74.3 12.5 -78.45 21.6 -85.05 21.45 Q-104.15 20.9 -122.2 18.0 L-128.05 2.45 -129.9 16.8 Q-139.5 14.9 -148.8 12.6 -177.0 5.4 -174.55 0.55 -167.35 -13.9 -137.75 -34.4 L-135.45 -35.95 -130.15 -32.05 -133.05 -37.55 Q-131.0 -39.0 -128.5 -40.3 L-121.05 -35.35 -120.4 -45.2 Q-106.95 -52.6 -93.15 -57.25 L-86.45 -48.45 -87.45 -59.05 Q-77.05 -62.2 -66.35 -63.7 L-69.85 -66.45 -72.9 -79.9 -75.7 -70.75 -76.7 -71.4 -80.25 -87.5 -83.75 -76.1 Q-89.25 -79.5 -91.8 -79.75 -102.15 -81.2 -111.2 -77.65 L-114.7 -83.45 -114.45 -76.15 -121.6 -71.65 Q-131.65 -60.85 -133.55 -60.95 -134.5 -66.85 -130.2 -76.95 -125.05 -88.9 -115.1 -99.1 -87.8 -127.45 -40.3 -127.6 -5.7 -128.0 18.1 -77.7 25.35 -62.45 30.0 -47.1" fill="#416409" fill-rule="evenodd" stroke="none"/>
    <path d="M30.0 -47.1 Q41.75 -52.45 54.6 -56.5 106.2 -72.7 128.85 -47.75 160.05 -13.8 157.9 24.45 157.2 38.35 152.05 49.9 147.7 59.65 142.9 62.85 141.6 61.55 142.65 47.25 142.25 43.0 141.15 39.15 L146.45 34.5 140.05 35.9 Q136.6 27.1 128.7 20.65 126.85 18.95 120.75 17.3 L126.6 7.25 112.75 15.4 111.6 15.1 116.35 7.05 104.7 13.8 95.95 12.4 100.35 19.85 Q107.5 32.6 112.0 46.7 L102.6 51.85 113.7 52.45 Q117.7 66.45 119.2 81.7 L111.4 87.9 119.75 91.15 Q120.1 93.95 120.05 96.5 L113.85 97.2 120.1 99.4 120.15 102.1 Q119.9 138.2 112.1 152.2 109.5 157.0 87.65 137.85 80.45 131.5 73.45 124.6 L84.2 115.0 68.1 118.95 Q55.5 105.75 44.25 90.35 L40.4 84.95 45.5 76.35 35.85 78.45 33.05 73.8 39.4 68.75 31.2 70.85 Q5.15 27.5 11.2 -4.4 -11.75 18.2 -61.65 21.15 L-64.55 13.2 -65.15 21.3 -70.5 21.6 -74.3 12.5 -78.45 21.6 -85.05 21.45 Q-104.15 20.9 -122.2 18.0 L-128.05 2.45 -129.9 16.8 Q-139.5 14.9 -148.8 12.6 -177.0 5.4 -174.55 0.55 -167.35 -13.9 -137.75 -34.4 L-135.45 -35.95 -130.15 -32.05 -133.05 -37.55 Q-131.0 -39.0 -128.5 -40.3 L-121.05 -35.35 -120.4 -45.2 Q-106.95 -52.6 -93.15 -57.25 L-86.45 -48.45 -87.45 -59.05 Q-77.05 -62.2 -66.35 -63.7 L-69.85 -66.45 -72.9 -79.9 -75.7 -70.75 -76.7 -71.4 -80.25 -87.5 -83.75 -76.1 Q-89.25 -79.5 -91.8 -79.75 -102.15 -81.2 -111.2 -77.65 L-114.7 -83.45 -114.45 -76.15 -121.6 -71.65 Q-131.65 -60.85 -133.55 -60.95 -134.5 -66.85 -130.2 -76.95 -125.05 -88.9 -115.1 -99.1 -87.8 -127.45 -40.3 -127.6 -5.7 -128.0 18.1 -77.7 25.35 -62.45 30.0 -47.1 Z" fill="none" stroke="#416409" stroke-linecap="round" stroke-linejoin="round" stroke-width="9.0"/>
    <path d="M7.7 -35.2 L36.25 5.1 73.6 9.25 85.2 2.55 80.7 10.2 104.7 13.8 116.35 7.05 111.6 15.1 112.75 15.4 126.6 7.25 120.75 17.3 Q126.85 18.95 128.7 20.65 136.6 27.1 140.05 35.9 L146.45 34.5 141.15 39.15 Q142.25 43.0 142.65 47.25 141.6 61.55 142.9 62.85 147.7 59.65 152.05 49.9 157.2 38.35 157.9 24.45 160.05 -13.8 128.85 -47.75 106.2 -72.7 54.6 -56.5 28.9 -48.4 7.7 -35.2" fill="#719d17" fill-rule="evenodd" stroke="none"/>
    <path d="M12.7 -27.8 Q33.6 -31.9 56.7 -33.25 115.3 -36.85 131.2 -15.25 147.1 6.35 150.55 33.85 151.75 42.05 151.5 49.7 L151.6 49.55 Q156.8 38.05 157.5 24.1 159.75 -14.05 128.4 -48.2 105.75 -73.05 54.2 -56.85 28.45 -48.7 7.25 -35.65 L12.7 -27.8" fill="#7cb421" fill-rule="evenodd" stroke="none"/>
    <path d="M34.85 -27.5 L-15.55 -20.85 -44.75 -46.15 -47.75 -59.55 -50.4 -50.8 Q-61.65 -60.1 -69.85 -66.45 L-72.9 -79.9 -75.7 -70.75 -76.7 -71.4 -80.25 -87.5 -83.75 -76.1 Q-89.25 -79.5 -91.8 -79.75 -102.15 -81.2 -111.2 -77.65 L-114.7 -83.45 -114.45 -76.15 -121.6 -71.65 Q-131.65 -60.85 -133.55 -60.95 -134.5 -66.85 -130.2 -76.95 -125.05 -88.9 -115.1 -99.1 -87.8 -127.45 -40.3 -127.6 -5.7 -128.0 18.1 -77.7 29.95 -52.75 34.85 -27.5" fill="#719d17" fill-rule="evenodd" stroke="none"/>
    <path d="M25.3 -26.3 Q13.75 -44.95 -1.35 -63.25 -39.55 -109.95 -66.95 -106.85 -94.35 -103.8 -117.45 -87.2 -124.5 -82.35 -130.15 -76.85 L-130.05 -77.0 Q-125.0 -88.95 -114.95 -99.2 -87.8 -127.6 -40.2 -127.8 -5.6 -128.05 18.15 -77.9 30.0 -52.8 35.0 -27.7 L25.3 -26.3" fill="#7cb421" fill-rule="evenodd" stroke="none"/>
    <path d="M27.55 -32.35 Q13.55 16.7 -61.65 21.15 L-64.55 13.2 -65.15 21.3 -70.5 21.6 -74.3 12.5 -78.45 21.6 -85.05 21.45 Q-104.15 20.9 -122.2 18.0 L-128.05 2.45 -129.9 16.8 Q-139.5 14.9 -148.8 12.6 -177.0 5.4 -174.55 0.55 -167.35 -13.9 -137.75 -34.4 L-135.45 -35.95 -130.15 -32.05 -133.05 -37.55 Q-131.0 -39.0 -128.5 -40.3 L-121.05 -35.35 -120.4 -45.2 Q-106.95 -52.6 -93.15 -57.25 L-86.45 -48.45 -87.45 -59.05 Q-73.3 -63.3 -58.7 -64.65 -19.75 -68.35 7.9 -50.85 21.55 -41.9 27.55 -32.35" fill="#7cb421" fill-rule="evenodd" stroke="none"/>
    <path d="M25.6 -26.3 Q8.85 17.0 -61.65 21.1 L-64.55 13.2 -65.15 21.3 -70.55 21.45 -74.3 12.5 -78.35 21.45 -77.75 21.45 -85.1 21.35 Q-104.2 20.75 -122.2 18.0 L-128.05 2.45 -129.9 16.8 Q-139.5 14.9 -148.8 12.6 -175.0 5.9 -174.6 1.2 -164.55 -4.15 -151.3 -10.2 -97.1 -34.65 -44.4 -38.95 -1.8 -42.6 27.55 -32.35 26.4 -28.3 24.9 -24.55 L25.6 -26.3" fill="#719d17" fill-rule="evenodd" stroke="none"/>
    <path d="M24.9 -33.0 Q-7.65 6.25 31.2 70.85 L39.4 68.75 33.05 73.8 35.85 78.45 45.5 76.35 40.4 84.95 44.25 90.35 Q55.5 105.75 68.1 118.95 L84.2 115.0 73.45 124.6 Q80.45 131.5 87.65 137.85 109.5 157.0 112.1 152.2 119.9 138.2 120.15 102.1 L120.1 99.4 113.85 97.2 120.05 96.5 Q120.1 93.95 119.75 91.15 L111.4 87.9 119.2 81.7 Q117.7 66.45 113.7 52.45 L102.6 51.85 112.0 46.7 Q107.5 32.6 100.35 19.85 81.35 -14.4 51.25 -27.25 36.15 -33.45 24.9 -33.0" fill="#7cb421" fill-rule="evenodd" stroke="none"/>
    <path d="M24.9 -32.95 L24.45 -33.3 Q49.75 -14.85 71.05 22.65 97.3 68.5 107.8 127.05 110.3 141.35 111.6 152.7 108.0 155.65 87.65 137.85 80.45 131.5 73.45 124.6 L84.2 115.0 68.1 118.95 Q55.65 105.7 44.4 90.35 L40.5 84.8 41.75 82.65 41.5 83.05 45.5 76.35 36.0 78.4 33.05 73.8 39.4 68.75 31.25 70.85 Q-5.15 10.55 20.85 -27.7 L20.4 -27.0 23.05 -30.65 22.85 -30.4 24.9 -32.95" fill="#719d17" fill-rule="evenodd" stroke="none"/>
  </g>
</svg>
