<?xml version="1.0" encoding="UTF-8" standalone="no"?>
<svg xmlns:xlink="http://www.w3.org/1999/xlink" height="133.75px" width="132.9px" xmlns="http://www.w3.org/2000/svg">
  <g transform="matrix(1.0, 0.0, 0.0, 1.0, 82.5, 42.85)">
    <path d="M-15.55 57.6 L-15.55 59.6 -15.5 59.6 -15.55 59.75 Q-15.55 60.4 -13.2 60.85 L-7.45 61.3 -1.7 60.85 Q0.7 60.4 0.7 59.75 L0.65 59.6 0.7 59.6 0.7 57.5 0.7 59.6 0.65 59.6 0.7 59.75 Q0.7 60.4 -1.7 60.85 L-7.45 61.3 -13.2 60.85 Q-15.55 60.4 -15.55 59.75 L-15.5 59.6 -15.55 59.6 -15.55 57.6 -15.55 57.1 -21.15 58.45 -32.55 49.5 -15.55 42.7 -15.55 40.25 -9.3 40.25 9.6 32.7 7.5 47.05 0.7 50.8 0.7 57.5 3.5 57.95 Q7.9 58.85 7.9 60.1 L7.9 60.15 Q7.75 61.3 3.5 62.15 L-7.2 63.05 -17.9 62.15 Q-22.15 61.3 -22.3 60.15 -22.15 61.3 -17.9 62.15 L-7.2 63.05 3.5 62.15 Q7.75 61.3 7.9 60.15 7.8 63.45 6.4 66.25 L11.1 71.05 12.1 72.05 18.7 78.65 18.8 78.75 Q19.3 79.3 18.7 80.7 17.95 82.25 16.4 83.8 14.9 85.3 13.4 86.0 L11.4 86.15 11.3 86.05 7.3 82.05 4.95 79.7 -1.25 73.5 Q1.3 72.35 3.5 70.2 5.3 68.35 6.4 66.25 5.3 68.35 3.5 70.2 1.3 72.35 -1.25 73.5 L-1.95 73.75 -1.95 81.85 -2.0 81.85 -1.95 82.0 Q-1.95 82.75 -3.5 83.3 L-7.25 83.85 -10.95 83.3 Q-12.45 82.75 -12.45 82.0 L-12.45 81.85 -12.45 76.15 -12.45 73.75 -14.0 73.1 -20.6 79.7 -22.9 82.05 -26.9 86.05 -27.05 86.15 -29.05 86.0 Q-30.5 85.3 -32.05 83.8 -33.6 82.25 -34.3 80.7 -34.95 79.3 -34.45 78.75 L-34.3 78.65 -27.7 72.05 -26.7 71.05 -21.2 65.4 Q-22.25 62.95 -22.3 60.15 L-22.3 60.1 Q-22.3 58.85 -17.9 57.95 L-15.55 57.6 M-12.45 73.75 Q-10.05 74.65 -7.25 74.65 -4.4 74.65 -1.95 73.75 -4.4 74.65 -7.25 74.65 -10.05 74.65 -12.45 73.75 M-21.2 65.4 L-20.15 64.3 -20.05 64.2 -18.05 64.35 Q-16.5 65.1 -15.0 66.6 -13.5 68.1 -12.75 69.65 -12.1 71.1 -12.6 71.65 L-12.75 71.7 -12.7 71.75 -14.0 73.1 -12.7 71.75 -12.75 71.7 -12.6 71.65 Q-12.1 71.1 -12.75 69.65 -13.5 68.1 -15.0 66.6 -16.5 65.1 -18.05 64.35 L-20.05 64.2 -20.15 64.3 -21.2 65.4" fill="#000000" fill-rule="evenodd" stroke="none"/>
    <path d="M0.7 57.5 L0.7 59.6 0.65 59.6 0.7 59.75 Q0.7 60.4 -1.7 60.85 L-7.45 61.3 -13.2 60.85 Q-15.55 60.4 -15.55 59.75 L-15.5 59.6 -15.55 59.6 -15.55 57.6 -17.9 57.95 Q-22.3 58.85 -22.3 60.1 L-22.3 60.15 Q-22.15 61.3 -17.9 62.15 L-7.2 63.05 3.5 62.15 Q7.75 61.3 7.9 60.15 L7.9 60.1 Q7.9 58.85 3.5 57.95 L0.7 57.5 0.7 50.8 7.5 47.05 9.6 32.7 -9.3 40.25 -15.55 40.25 -15.55 42.7 -32.55 49.5 -21.15 58.45 -15.55 57.1 -15.55 57.6 M-1.25 73.5 L4.95 79.7 7.3 82.05 11.3 86.05 11.4 86.15 13.4 86.0 Q14.9 85.3 16.4 83.8 17.95 82.25 18.7 80.7 19.3 79.3 18.8 78.75 L18.7 78.65 12.1 72.05 11.1 71.05 6.4 66.25 Q5.3 68.35 3.5 70.2 1.3 72.35 -1.25 73.5 L-1.95 73.75 -1.95 81.85 -2.0 81.85 -1.95 82.0 Q-1.95 82.75 -3.5 83.3 L-7.25 83.85 -10.95 83.3 Q-12.45 82.75 -12.45 82.0 L-12.45 81.85 -12.45 76.15 -12.45 73.75 -14.0 73.1 -20.6 79.7 -22.9 82.05 -26.9 86.05 -27.05 86.15 -29.05 86.0 Q-30.5 85.3 -32.05 83.8 -33.6 82.25 -34.3 80.7 -34.95 79.3 -34.45 78.75 L-34.3 78.65 -27.7 72.05 -26.7 71.05 -21.2 65.4 Q-22.25 62.95 -22.3 60.15 M6.4 66.25 Q7.8 63.45 7.9 60.15 M-14.0 73.1 L-12.7 71.75 -12.75 71.7 -12.6 71.65 Q-12.1 71.1 -12.75 69.65 -13.5 68.1 -15.0 66.6 -16.5 65.1 -18.05 64.35 L-20.05 64.2 -20.15 64.3 -21.2 65.4 M-1.95 73.75 Q-4.4 74.65 -7.25 74.65 -10.05 74.65 -12.45 73.75" fill="none" stroke="#000000" stroke-linecap="round" stroke-linejoin="round" stroke-width="9.0"/>
    <path d="M-10.9 60.2 Q-12.4 60.75 -12.4 61.5 L-12.35 61.7 -12.4 61.7 -12.45 72.9 -12.45 76.15 -12.45 81.8 -12.45 82.0 Q-12.45 82.75 -10.95 83.3 L-7.25 83.85 -3.5 83.3 Q-2.0 82.75 -2.0 82.0 L-2.05 81.8 -2.0 81.8 -2.0 72.5 -2.0 71.05 -1.9 61.7 -1.9 61.5 Q-1.9 60.75 -3.45 60.2 -5.0 59.65 -7.15 59.65 -9.3 59.65 -10.9 60.2" fill="#1c1c1c" fill-rule="evenodd" stroke="none"/>
    <path d="M-2.9 69.65 Q-3.55 71.1 -3.05 71.6 L-2.85 71.7 -2.9 71.75 4.95 79.7 7.3 82.05 11.3 86.05 11.4 86.15 13.4 86.05 Q14.85 85.3 16.4 83.75 17.95 82.2 18.7 80.75 19.35 79.3 18.8 78.75 L18.7 78.65 12.1 72.05 11.1 71.05 4.5 64.35 4.35 64.2 Q3.85 63.7 2.35 64.4 0.85 65.1 -0.65 66.6 -2.2 68.15 -2.9 69.65" fill="#1c1c1c" fill-rule="evenodd" stroke="none"/>
    <path d="M3.45 70.2 Q-0.95 74.6 -7.25 74.6 -13.5 74.6 -17.95 70.2 -22.15 66.0 -22.35 60.15 L7.9 60.15 Q7.65 66.0 3.45 70.2" fill="#434343" fill-rule="evenodd" stroke="none"/>
    <path d="M-7.2 57.1 L3.5 57.95 Q7.95 58.85 7.95 60.05 7.95 61.3 3.5 62.15 L-7.2 63.05 -17.9 62.15 Q-22.3 61.3 -22.3 60.05 -22.3 58.85 -17.9 57.95 L-7.2 57.1" fill="#1c1c1c" fill-rule="evenodd" stroke="none"/>
    <path d="M0.65 59.75 Q0.65 60.35 -1.75 60.85 L-7.45 61.3 -13.25 60.85 Q-15.6 60.35 -15.6 59.75 L-15.55 59.6 -15.6 59.6 -15.6 40.25 0.65 40.25 0.65 59.6 0.6 59.6 0.65 59.75" fill="#434343" fill-rule="evenodd" stroke="none"/>
    <path d="M0.7 40.25 L0.7 53.8 Q-7.1 57.7 -15.45 60.05 L-15.55 59.75 -15.5 59.6 -15.55 59.6 -15.55 45.7 -1.75 40.25 0.7 40.25" fill="#1c1c1c" fill-rule="evenodd" stroke="none"/>
    <path d="M7.45 47.05 Q-5.85 55.15 -21.2 58.45 L-32.55 49.5 9.6 32.7 7.45 47.05" fill="#434343" fill-rule="evenodd" stroke="none"/>
    <path d="M-12.75 69.65 Q-12.1 71.1 -12.6 71.6 L-12.8 71.7 -12.75 71.75 -20.6 79.7 -22.95 82.05 -26.95 86.05 -27.05 86.15 -29.05 86.05 Q-30.5 85.3 -32.05 83.75 -33.6 82.2 -34.35 80.75 -35.0 79.3 -34.45 78.75 L-34.35 78.65 -27.75 72.05 -26.75 71.05 -20.15 64.35 -20.0 64.2 Q-19.5 63.7 -18.0 64.4 -16.5 65.1 -15.0 66.6 -13.45 68.15 -12.75 69.65" fill="#1c1c1c" fill-rule="evenodd" stroke="none"/>
    <path d="M-5.65 -37.2 Q0.25 -39.55 6.05 -37.05 11.75 -34.55 14.1 -28.7 L30.1 11.45 Q32.45 17.35 29.95 23.15 27.45 28.95 21.55 31.3 L-41.1 56.25 Q-47.0 58.6 -52.8 56.05 -58.5 53.55 -60.85 47.65 L-76.85 7.5 Q-79.2 1.65 -76.7 -4.15 -74.2 -9.9 -68.3 -12.25 L-5.65 -37.2" fill="#416409" fill-rule="evenodd" stroke="none"/>
    <path d="M-5.65 -37.2 L-68.3 -12.25 Q-74.2 -9.9 -76.7 -4.15 -79.2 1.65 -76.85 7.5 L-60.85 47.65 Q-58.5 53.55 -52.8 56.05 -47.0 58.6 -41.1 56.25 L21.55 31.3 Q27.45 28.95 29.95 23.15 32.45 17.35 30.1 11.45 L14.1 -28.7 Q11.75 -34.55 6.05 -37.05 0.25 -39.55 -5.65 -37.2 Z" fill="none" stroke="#416409" stroke-linecap="round" stroke-linejoin="round" stroke-width="9.0"/>
    <path d="M35.8 8.15 L14.95 19.2 Q6.35 22.25 -2.15 18.6 -11.0 14.8 -14.55 5.85 -18.15 -3.1 -14.3 -12.0 -10.65 -20.5 -2.25 -24.05 L20.3 -30.4 21.0 -30.7 Q27.35 -33.25 34.1 -29.35 40.85 -25.45 44.05 -17.5 47.2 -9.45 44.95 -2.05 42.7 5.4 36.35 7.95 L35.8 8.15 Q29.7 10.3 23.25 6.6 16.5 2.75 13.35 -5.3 10.15 -13.25 12.4 -20.7 14.5 -27.8 20.3 -30.4 14.5 -27.8 12.4 -20.7 10.15 -13.25 13.35 -5.3 16.5 2.75 23.25 6.6 29.7 10.3 35.8 8.15" fill="#000000" fill-rule="evenodd" stroke="none"/>
    <path d="M35.8 8.15 L14.95 19.2 Q6.35 22.25 -2.15 18.6 -11.0 14.8 -14.55 5.85 -18.15 -3.1 -14.3 -12.0 -10.65 -20.5 -2.25 -24.05 L20.3 -30.4 21.0 -30.7 Q27.35 -33.25 34.1 -29.35 40.85 -25.45 44.05 -17.5 47.2 -9.45 44.95 -2.05 42.7 5.4 36.35 7.95 L35.8 8.15 Q29.7 10.3 23.25 6.6 16.5 2.75 13.35 -5.3 10.15 -13.25 12.4 -20.7 14.5 -27.8 20.3 -30.4" fill="none" stroke="#000000" stroke-linecap="round" stroke-linejoin="round" stroke-width="9.0"/>
    <path d="M-5.65 -37.2 Q0.25 -39.55 6.05 -37.05 11.75 -34.55 14.1 -28.7 L30.1 11.45 Q32.45 17.35 29.95 23.15 27.45 28.95 21.55 31.3 L-41.1 56.25 Q-47.0 58.6 -52.8 56.05 -58.5 53.55 -60.85 47.65 L-76.85 7.5 Q-79.2 1.65 -76.7 -4.15 -74.2 -9.9 -68.3 -12.25 L-5.65 -37.2" fill="#3f9306" fill-rule="evenodd" stroke="none"/>
    <path d="M-5.3 -37.35 Q0.4 -39.45 6.05 -37.05 11.75 -34.55 14.1 -28.7 L30.1 11.45 Q32.45 17.35 29.95 23.15 27.5 28.75 21.9 31.15 L-18.8 47.35 Q-24.65 49.7 -30.45 47.2 -36.2 44.7 -38.55 38.8 L-54.55 -1.35 Q-56.9 -7.2 -54.35 -13.0 -51.85 -18.8 -46.0 -21.15 L-5.3 -37.35" fill="#7cb421" fill-rule="evenodd" stroke="none"/>
    <path d="M-5.3 -37.35 L-3.45 -37.9 -2.55 -35.6 Q-2.15 -34.6 -2.55 -33.6 -3.0 -32.65 -4.0 -32.25 L-15.65 -27.6 Q-16.65 -27.2 -17.6 -27.6 -18.6 -28.05 -19.0 -29.05 L-19.95 -31.5 -5.3 -37.35" fill="#f73600" fill-rule="evenodd" stroke="none"/>
    <path d="M-18.75 -24.2 L-7.5 -28.7 -6.7 -26.8 Q-0.9 -26.8 4.75 -24.3 16.0 -19.45 20.55 -8.1 25.05 3.25 20.2 14.5 17.75 20.2 13.6 24.2 L14.35 26.15 3.1 30.65 Q-7.8 34.6 -18.6 29.95 -29.8 25.1 -34.3 13.75 -38.85 2.4 -34.05 -8.85 -29.35 -19.65 -18.7 -24.2 L-18.75 -24.2" fill="#434343" fill-rule="evenodd" stroke="none"/>
    <path d="M-7.5 -28.75 Q3.85 -33.3 15.1 -28.5 26.3 -23.65 30.85 -12.3 35.35 -0.9 30.55 10.3 25.7 21.55 14.35 26.1 3.0 30.6 -8.3 25.75 -19.5 20.95 -24.0 9.55 -28.55 -1.8 -23.75 -13.05 -18.85 -24.25 -7.5 -28.75" fill="#1c1c1c" fill-rule="evenodd" stroke="none"/>
    <path d="M-2.25 -24.05 L20.45 -30.4 35.8 8.25 14.95 19.2 Q6.35 22.35 -2.15 18.65 -11.0 14.85 -14.55 5.85 -18.15 -3.1 -14.3 -11.95 -10.65 -20.4 -2.25 -24.05" fill="#434343" fill-rule="evenodd" stroke="none"/>
    <path d="M34.1 -29.35 Q40.85 -25.5 44.05 -17.5 47.2 -9.5 44.95 -2.05 42.7 5.4 36.35 7.95 30.0 10.5 23.25 6.55 16.5 2.7 13.35 -5.3 10.15 -13.3 12.4 -20.75 14.65 -28.15 21.0 -30.7 27.35 -33.25 34.1 -29.35" fill="#1c1c1c" fill-rule="evenodd" stroke="none"/>
    <path d="M32.5 -22.7 Q36.25 -20.15 38.2 -15.2 40.2 -10.3 39.2 -5.85 38.25 -1.4 34.95 -0.1 31.65 1.2 27.9 -1.35 24.2 -3.9 22.2 -8.8 20.25 -13.75 21.2 -18.2 22.2 -22.6 25.5 -23.9 28.8 -25.2 32.5 -22.7" fill="#000000" fill-rule="evenodd" stroke="none"/>
  </g>
</svg>
