<?xml version="1.0" encoding="UTF-8" standalone="no"?>
<svg xmlns:xlink="http://www.w3.org/1999/xlink" height="42.55px" width="25.65px" xmlns="http://www.w3.org/2000/svg">
  <g transform="matrix(1.0, 0.0, 0.0, 1.0, -9.1, 1.95)">
    <path d="M26.95 -1.1 L27.5 -1.1 28.0 -0.65 27.9 0.0 27.1 2.0 31.55 3.95 32.4 2.0 32.9 1.6 33.5 1.55 33.95 2.1 33.9 2.7 17.45 39.35 17.0 39.85 16.35 39.75 15.9 39.35 15.9 38.65 16.5 37.4 12.05 35.45 11.5 36.65 11.05 37.1 10.35 37.1 9.9 36.65 Q9.8 36.3 9.95 36.0 L26.45 -0.7 Q26.6 -1.0 26.95 -1.1 M29.9 7.6 L30.95 5.2 26.5 3.3 25.45 5.65 29.9 7.6 M28.2 11.25 L29.3 8.85 24.9 6.9 23.8 9.3 28.2 11.25 M24.0 20.75 L19.55 18.8 18.15 21.9 22.6 23.9 24.0 20.75 M27.65 12.5 L23.25 10.6 22.0 13.3 26.4 15.25 27.65 12.5 M25.85 16.55 L21.4 14.6 20.1 17.5 24.55 19.45 25.85 16.55 M15.7 27.35 L14.4 30.2 18.85 32.15 20.1 29.3 15.7 27.35 M12.6 34.2 L17.05 36.2 18.3 33.4 13.85 31.45 12.6 34.2 M22.0 25.05 L17.55 23.15 16.3 26.1 20.7 28.05 22.0 25.05" fill="#bd813e" fill-rule="evenodd" stroke="none"/>
    <path d="M26.95 -1.1 L27.5 -1.1 28.0 -0.65 27.9 0.0 27.1 2.0 31.55 3.95 32.4 2.0 32.9 1.6 33.5 1.55 33.95 2.1 33.9 2.7 17.45 39.35 17.0 39.85 16.35 39.75 15.9 39.35 15.9 38.65 16.5 37.4 12.05 35.45 11.5 36.65 11.05 37.1 10.35 37.1 9.9 36.65 Q9.8 36.3 9.95 36.0 L26.45 -0.7 Q26.6 -1.0 26.95 -1.1 M29.9 7.6 L30.95 5.2 26.5 3.3 25.45 5.65 29.9 7.6 M28.2 11.25 L29.3 8.85 24.9 6.9 23.8 9.3 28.2 11.25 M24.0 20.75 L19.55 18.8 18.15 21.9 22.6 23.9 24.0 20.75 M27.65 12.5 L23.25 10.6 22.0 13.3 26.4 15.25 27.65 12.5 M25.85 16.55 L21.4 14.6 20.1 17.5 24.55 19.45 25.85 16.55 M15.7 27.35 L14.4 30.2 18.85 32.15 20.1 29.3 15.7 27.35 M12.6 34.2 L17.05 36.2 18.3 33.4 13.85 31.45 12.6 34.2 M22.0 25.05 L17.55 23.15 16.3 26.1 20.7 28.05 22.0 25.05" fill="none" stroke="#50361b" stroke-linecap="butt" stroke-linejoin="round" stroke-width="1.5"/>
    <path d="M28.0 -0.65 L27.9 0.0 11.5 36.65 11.05 37.1 10.35 37.1 9.9 36.65 Q9.8 36.3 9.95 36.0 L26.45 -0.7 Q26.6 -1.0 26.95 -1.1 L27.5 -1.1 28.0 -0.65" fill="#a37036" fill-rule="evenodd" stroke="none"/>
    <path d="M30.5 8.65 L30.1 9.05 29.6 9.0 24.65 6.75 24.25 6.4 Q24.1 6.15 24.25 5.85 L24.65 5.45 25.2 5.5 30.15 7.75 30.55 8.1 30.5 8.65 M32.15 4.5 L32.2 5.05 31.8 5.35 31.25 5.35 26.25 3.15 25.9 2.75 25.9 2.25 26.3 1.85 26.9 1.85 31.85 4.1 32.15 4.5 M23.0 9.15 L23.55 9.15 28.5 11.35 28.85 11.75 28.85 12.25 28.45 12.65 27.95 12.65 23.0 10.45 22.6 10.05 Q22.45 9.8 22.6 9.5 L23.0 9.15 M26.65 16.7 L26.15 16.7 21.2 14.45 20.75 14.05 20.8 13.55 21.2 13.15 21.75 13.15 26.7 15.4 27.05 15.8 27.05 16.35 26.65 16.7 M23.25 24.35 L23.25 24.85 22.85 25.25 22.3 25.2 17.35 23.0 16.95 22.65 Q16.85 22.4 17.0 22.1 L17.4 21.75 17.95 21.8 22.9 24.0 23.25 24.35 M25.15 20.0 L25.15 20.5 24.8 20.9 24.3 20.9 19.3 18.65 18.9 18.25 Q18.75 18.0 18.9 17.7 19.05 17.45 19.3 17.35 19.55 17.2 19.85 17.35 L24.85 19.6 25.15 20.0 M16.05 25.95 L21.0 28.2 21.3 28.55 21.3 29.1 20.9 29.5 20.4 29.45 15.45 27.2 15.05 26.85 15.05 26.3 15.45 25.9 16.05 25.95 M14.2 30.05 L19.15 32.3 19.5 32.65 19.5 33.2 19.1 33.6 18.6 33.55 13.6 31.3 13.2 30.95 Q13.1 30.7 13.25 30.4 L13.65 30.0 14.2 30.05 M12.35 34.1 L17.3 36.3 17.7 36.65 17.65 37.2 17.25 37.6 16.75 37.55 11.8 35.35 11.4 35.0 11.4 34.45 11.8 34.0 12.35 34.1" fill="#bd813e" fill-rule="evenodd" stroke="none"/>
    <path d="M33.95 2.1 L33.9 2.7 17.45 39.35 17.0 39.85 16.35 39.75 15.9 39.35 15.9 38.65 32.4 2.0 32.9 1.6 33.5 1.55 33.95 2.1" fill="#c89357" fill-rule="evenodd" stroke="none"/>
  </g>
</svg>
