<?xml version="1.0" encoding="UTF-8" standalone="no"?>
<svg xmlns:xlink="http://www.w3.org/1999/xlink" height="29.8px" width="37.9px" xmlns="http://www.w3.org/2000/svg">
  <g transform="matrix(1.0, 0.0, 0.0, 1.0, 1.5, 3.05)">
    <path d="M34.9 5.4 L32.6 20.6 19.1 25.25 19.05 25.25 18.0 24.75 1.9 17.0 0.0 1.65 0.35 1.8 16.45 -1.55 34.9 5.4" fill="#000000" fill-rule="evenodd" stroke="none"/>
    <path d="M34.9 5.4 L16.45 -1.55 0.35 1.8 0.0 1.65 1.9 17.0 18.0 24.75 19.05 25.25 19.1 25.25 32.6 20.6 34.9 5.4 Z" fill="none" stroke="#432e16" stroke-linecap="round" stroke-linejoin="round" stroke-width="3.0"/>
    <path d="M18.55 8.95 L19.1 25.25 1.9 17.0 0.0 1.65 18.55 8.95" fill="#a87337" fill-rule="evenodd" stroke="none"/>
    <path d="M19.05 25.25 L18.4 8.75 34.7 6.55 32.6 20.6 19.05 25.25" fill="#8d602e" fill-rule="evenodd" stroke="none"/>
    <path d="M1.3 5.5 L18.65 12.65 M1.9 13.8 L18.8 21.05 M1.45 9.0 L18.65 17.05" fill="none" stroke="#875b2c" stroke-linecap="round" stroke-linejoin="round" stroke-width="1.0"/>
    <path d="M18.65 12.65 L33.1 8.95 M18.8 21.05 L32.35 16.75 M18.65 17.05 L33.1 12.75" fill="none" stroke="#644420" stroke-linecap="round" stroke-linejoin="round" stroke-width="1.0"/>
    <path d="M18.55 8.95 L19.1 25.25 1.9 17.0 0.0 1.65 18.55 8.95 M3.0 15.25 L16.8 21.75 16.65 10.35 1.95 4.3 3.0 15.25" fill="#f4b800" fill-rule="evenodd" stroke="none"/>
    <path d="M19.05 25.25 L18.4 8.75 34.9 5.4 32.6 20.6 19.05 25.25 M20.4 22.25 L31.8 18.45 32.9 7.75 20.15 10.4 20.4 22.25" fill="#dda600" fill-rule="evenodd" stroke="none"/>
    <path d="M0.1 1.8 L16.35 -1.55 34.9 5.4 18.25 9.5 0.1 1.8" fill="#ffd042" fill-rule="evenodd" stroke="none"/>
    <path d="M4.15 1.95 L16.25 -0.55 30.85 4.85 17.95 7.7 4.15 1.95" fill="#8d602e" fill-rule="evenodd" stroke="none"/>
  </g>
</svg>
