<?xml version="1.0" encoding="UTF-8" standalone="no"?>
<svg xmlns:xlink="http://www.w3.org/1999/xlink" height="24.15px" width="39.7px" xmlns="http://www.w3.org/2000/svg">
  <g transform="matrix(1.0, 0.0, 0.0, 1.0, -16.45, -9.9)">
    <path d="M43.55 13.0 L43.25 12.85 43.75 13.0 43.55 13.0 43.9 13.15 43.85 13.95 43.45 14.85 42.45 15.4 41.4 15.35 35.75 13.25 22.25 14.25 20.25 12.8 19.15 12.9 17.05 13.15 16.45 12.75 Q16.5 12.55 16.7 12.5 L16.5 12.05 Q16.55 11.55 18.0 11.55 L18.3 11.55 36.15 10.2 36.8 10.3 40.65 11.7 40.65 11.4 Q40.7 10.85 41.1 10.45 41.55 10.05 42.1 9.95 L42.95 10.0 44.15 10.0 44.8 10.1 49.85 12.05 Q50.35 12.2 50.55 12.7 L50.75 13.55 50.45 15.3 54.5 16.8 54.65 16.75 55.45 17.0 56.0 17.6 56.15 18.35 55.15 22.7 Q53.8 26.85 51.95 29.2 L51.9 29.25 Q49.95 31.95 47.45 33.2 L47.4 33.2 45.0 33.95 44.55 34.0 44.2 34.05 42.65 34.05 Q42.0 34.0 41.55 33.55 41.15 33.1 41.2 32.5 41.3 31.9 41.85 31.45 42.4 31.0 43.05 31.05 L44.25 31.05 44.35 31.05 44.6 31.0 46.0 30.6 Q47.8 29.65 49.2 27.7 L49.2 27.65 Q50.8 25.65 51.9 22.1 L52.6 19.45 47.85 17.7 47.15 17.1 Q46.85 16.65 46.95 16.15 L47.2 14.4 43.9 13.15 43.95 11.45 42.3 12.35 42.9 12.55 42.15 12.95 42.25 13.0 43.55 13.0" fill="#432e16" fill-rule="evenodd" stroke="none"/>
    <path d="M36.1 11.7 L54.1 18.3 36.2 19.8 16.45 13.05 36.1 11.7" fill="#ffcc33" fill-rule="evenodd" stroke="none"/>
    <path d="M36.45 12.6 L36.3 14.1 35.7 16.9 35.3 18.3 34.75 18.05 34.7 18.05 34.6 18.0 34.35 17.95 20.75 13.35 35.75 12.7 36.45 12.6" fill="#684722" fill-rule="evenodd" stroke="none"/>
    <path d="M35.3 18.3 L35.7 16.9 36.3 14.1 36.45 12.6 36.5 12.6 50.3 17.7 36.65 18.75 35.3 18.3" fill="url(#gradient0)" fill-rule="evenodd" stroke="none"/>
    <path d="M52.0 23.5 L51.6 24.35 38.35 24.85 38.15 23.95 52.0 23.5 M49.85 28.2 L49.75 28.35 49.3 28.9 39.6 29.0 39.35 28.35 49.6 28.15 49.85 28.2" fill="#644420" fill-rule="evenodd" stroke="none"/>
    <path d="M52.0 23.5 L38.15 23.95 37.8 21.2 52.7 20.0 52.0 23.35 52.0 23.5 M38.35 24.85 L51.6 24.35 Q50.95 26.6 49.85 28.2 L49.6 28.15 39.35 28.35 38.8 27.05 38.35 24.85 M49.3 28.9 Q48.15 30.35 46.5 31.15 44.85 32.0 43.1 31.8 L42.8 31.8 Q41.9 31.5 40.9 30.65 L40.25 30.05 39.6 29.0 49.3 28.9" fill="#8d602e" fill-rule="evenodd" stroke="none"/>
    <path d="M51.6 24.35 L52.0 23.5 52.0 23.35 52.7 20.0 37.8 21.2 38.15 23.95 38.35 24.85 38.8 27.05 39.35 28.35 39.6 29.0 40.25 30.05 40.9 30.65 Q41.9 31.5 42.8 31.8 L43.1 31.8 Q44.85 32.0 46.5 31.15 48.15 30.35 49.3 28.9 L49.75 28.35 49.85 28.2 Q50.95 26.6 51.6 24.35 M53.5 22.4 Q52.3 26.25 50.55 28.45 48.9 30.8 46.75 31.9 L44.7 32.45 44.25 32.55 42.7 32.55 42.5 32.35 Q41.25 32.15 40.25 31.3 L39.45 30.5 Q38.3 28.95 37.65 26.95 36.9 24.55 36.15 19.8 L54.45 18.25 53.5 22.4" fill="#dda600" fill-rule="evenodd" stroke="none"/>
    <path d="M42.3 11.45 L43.95 11.5 49.1 13.45 48.6 16.55 47.0 16.25 42.3 11.45" fill="#f4b800" fill-rule="evenodd" stroke="none"/>
    <path d="M47.65 13.65 L47.45 16.5 42.1 14.3 42.3 11.4 47.65 13.65" fill="#ffcc33" fill-rule="evenodd" stroke="none"/>
  </g>
  <defs>
    <linearGradient gradientTransform="matrix(-0.0021, 0.0081, -0.004, -6.0E-4, 42.2, 21.3)" gradientUnits="userSpaceOnUse" id="gradient0" spreadMethod="pad" x1="-819.2" x2="819.2">
      <stop offset="0.0" stop-color="#8d602e"/>
      <stop offset="1.0" stop-color="#644420"/>
    </linearGradient>
  </defs>
</svg>
