<?xml version="1.0" encoding="UTF-8" standalone="no"?>
<svg xmlns:xlink="http://www.w3.org/1999/xlink" height="188.15px" width="292.2px" xmlns="http://www.w3.org/2000/svg">
  <g transform="matrix(1.0, 0.0, 0.0, 1.0, 146.1, 78.05)">
    <path d="M75.45 7.15 Q95.2 7.0 111.75 15.65 130.85 25.7 136.1 42.75 L85.15 50.6 85.1 50.05 Q69.35 47.1 48.85 47.65 16.6 48.55 -23.55 58.15 -64.0 67.85 -92.85 81.55 -111.4 90.35 -124.2 100.1 -130.55 82.7 -133.6 65.6 -139.2 33.5 -132.2 5.85 -125.0 -22.5 -101.6 -41.25 -82.05 -57.1 -52.75 -64.1 -23.6 -71.05 1.1 -65.8 30.55 -59.7 49.75 -37.65 66.15 -18.95 75.45 7.15" fill="#ffcc00" fill-rule="evenodd" stroke="none"/>
    <path d="M75.45 7.15 Q95.2 7.0 111.75 15.65 130.85 25.7 136.1 42.75 L85.15 50.6 85.1 50.05 Q69.35 47.1 48.85 47.65 16.6 48.55 -23.55 58.15 -64.0 67.85 -92.85 81.55 -111.4 90.35 -124.2 100.1 -130.55 82.7 -133.6 65.6 -139.2 33.5 -132.2 5.85 -125.0 -22.5 -101.6 -41.25 -82.05 -57.1 -52.75 -64.1 -23.6 -71.05 1.1 -65.8 30.55 -59.7 49.75 -37.65 66.15 -18.95 75.45 7.15 Z" fill="none" stroke="#8a6800" stroke-linecap="round" stroke-linejoin="round" stroke-width="20.0"/>
    <path d="M85.25 50.05 Q69.45 47.1 48.85 47.65 16.6 48.55 -23.55 58.15 -64.0 67.85 -92.85 81.55 -111.4 90.35 -124.2 100.1 -130.55 82.7 -133.6 65.6 -139.2 33.5 -132.2 5.85 -125.0 -22.5 -101.6 -41.25 -82.05 -57.1 -52.75 -64.1 -23.6 -71.05 1.1 -65.8 30.55 -59.7 49.75 -37.65 68.55 -16.2 78.05 15.0 83.1 31.65 85.25 50.05" fill="#ffcc00" fill-rule="evenodd" stroke="none"/>
    <path d="M55.85 -20.95 Q65.0 -5.0 70.65 15.0 75.25 31.35 77.3 49.4 L77.2 48.85 52.2 47.6 53.0 47.6 43.55 47.65 Q13.6 48.55 -23.7 58.15 L-25.65 58.65 Q-64.75 68.2 -92.85 81.55 -107.45 88.45 -118.45 96.0 L-118.25 96.65 Q-123.3 81.0 -125.85 65.6 -130.85 34.65 -124.95 7.8 -116.6 -13.65 -98.7 -29.1 -79.2 -46.1 -49.9 -53.65 -20.8 -61.15 3.9 -55.5 33.3 -48.9 52.55 -25.15 L55.85 -20.95" fill="#eab000" fill-rule="evenodd" stroke="none"/>
    <path d="M85.15 50.6 Q83.0 32.6 78.05 16.3 L75.0 7.15 Q95.0 6.9 111.75 15.65 130.85 25.7 136.1 42.75 L85.15 50.6" fill="#ffcc00" fill-rule="evenodd" stroke="none"/>
    <path d="M54.45 -12.4 Q63.3 3.55 68.75 23.55 72.0 35.55 73.95 48.45 L52.2 47.6 53.0 47.6 43.55 47.65 Q13.6 48.55 -23.7 58.15 L-25.65 58.65 Q-64.75 68.2 -92.85 81.55 -106.2 87.9 -116.55 94.7 -119.2 84.35 -120.85 74.15 -125.7 43.2 -120.0 16.35 -111.95 -5.1 -94.65 -20.55 -75.85 -37.55 -47.6 -45.1 -19.5 -52.6 4.35 -46.95 32.7 -40.35 51.3 -16.6 L54.45 -12.4" fill="#ffcc00" fill-rule="evenodd" stroke="none"/>
  </g>
</svg>
