<?xml version="1.0" encoding="UTF-8" standalone="no"?>
<svg xmlns:xlink="http://www.w3.org/1999/xlink" height="125.85px" width="104.5px" xmlns="http://www.w3.org/2000/svg">
  <g transform="matrix(1.0, 0.0, 0.0, 1.0, 57.95, 57.05)">
    <path d="M5.1 -3.55 L-14.85 -3.75 Q-14.9 -5.1 -15.1 -6.25 L-15.15 -5.15 -15.2 10.15 -15.25 10.15 -15.3 16.9 -15.25 16.9 -15.3 33.8 -15.25 33.8 -15.3 50.7 Q-15.2 55.3 -11.85 57.5 -9.5 60.75 -5.05 61.3 -0.45 61.2 2.4 58.05 5.0 55.45 5.0 50.9 L5.0 33.8 5.05 33.8 5.1 16.2 5.05 16.2 5.1 10.15 5.05 10.15 5.1 -3.55" fill="#70570f" fill-rule="evenodd" stroke="none"/>
    <path d="M5.1 -3.55 L5.4 -3.55 Q5.1 -14.75 10.95 -17.1 15.3 -18.6 20.0 -16.65 L20.1 -14.65 Q19.75 -10.85 22.3 -8.2 23.9 -4.5 27.95 -4.7 31.75 -4.35 34.35 -6.95 36.4 -9.65 37.1 -12.1 L39.05 -39.0 Q38.8 -43.0 37.8 -46.55 34.65 -49.35 31.45 -49.55 28.05 -49.15 25.55 -47.2 22.1 -44.2 22.1 -41.6 L21.55 -34.55 Q3.5 -47.9 -19.65 -39.65 -45.0 -32.7 -50.45 -7.4 L-41.5 -14.15 Q-31.45 -19.95 -24.85 -17.55 -16.5 -14.75 -15.1 -6.25 -14.9 -5.1 -14.85 -3.75 L5.1 -3.55" fill="#aaa7a7" fill-rule="evenodd" stroke="none"/>
    <path d="M-15.1 -6.25 Q-16.5 -14.75 -24.85 -17.55 -31.45 -19.95 -41.5 -14.15 L-50.45 -7.4 Q-45.0 -32.7 -19.65 -39.65 3.5 -47.9 21.55 -34.55 L22.1 -41.6 Q22.1 -44.2 25.55 -47.2 28.05 -49.15 31.45 -49.55 34.65 -49.35 37.8 -46.55 38.8 -43.0 39.05 -39.0 L37.1 -12.1 Q36.4 -9.65 34.35 -6.95 31.75 -4.35 27.95 -4.7 23.9 -4.5 22.3 -8.2 19.75 -10.85 20.1 -14.65 L20.0 -16.65 Q15.3 -18.6 10.95 -17.1 5.1 -14.75 5.4 -3.55 L5.1 -3.55 -14.85 -3.75 Q-14.9 -5.1 -15.1 -6.25 L-15.15 -5.15 -15.2 10.15 -15.25 10.15 -15.3 16.9 -15.25 16.9 -15.3 33.8 -15.25 33.8 -15.3 50.7 Q-15.2 55.3 -11.85 57.5 -9.5 60.75 -5.05 61.3 -0.45 61.2 2.4 58.05 5.0 55.45 5.0 50.9 L5.0 33.8 5.05 33.8 5.1 16.2 5.05 16.2 5.1 10.15 5.05 10.15 5.1 -3.55" fill="none" stroke="#000000" stroke-linecap="round" stroke-linejoin="round" stroke-width="15.0"/>
    <path d="M2.6 -12.8 Q0.05 -15.45 -4.55 -15.4 -9.0 -15.9 -11.65 -13.35 -15.2 -9.7 -15.15 -5.15 L-15.2 10.15 -15.25 10.15 -15.3 16.9 -15.25 16.9 -15.3 33.8 -15.25 33.8 -15.3 50.7 Q-15.2 55.3 -11.85 57.5 -9.5 60.75 -5.05 61.3 -0.45 61.2 2.4 58.05 5.0 55.45 5.0 50.9 L5.0 33.8 5.05 33.8 5.1 16.2 5.05 16.2 5.1 10.15 5.05 10.15 5.1 -4.95 Q5.0 -9.55 2.6 -12.8" fill="#70570f" fill-rule="evenodd" stroke="none"/>
    <path d="M39.05 -39.0 Q38.8 -42.95 37.8 -46.5 34.65 -49.35 31.4 -49.55 28.05 -49.1 25.55 -47.2 22.15 -44.15 22.1 -41.6 L21.5 -34.55 Q3.55 -47.85 -19.6 -39.7 -45.0 -32.7 -50.5 -7.4 L-41.5 -14.15 Q-31.45 -19.9 -24.9 -17.5 -15.25 -14.3 -14.8 -3.75 L5.4 -3.55 Q5.1 -14.75 10.95 -17.1 15.3 -18.55 20.0 -16.65 20.25 -15.25 20.1 -14.65 19.75 -10.85 22.35 -8.15 23.95 -4.45 27.95 -4.75 31.75 -4.35 34.4 -6.9 36.45 -9.65 37.1 -12.1 L39.05 -39.0" fill="#aaa7a7" fill-rule="evenodd" stroke="none"/>
  </g>
</svg>
