<?xml version="1.0" encoding="UTF-8" standalone="no"?>
<svg xmlns:xlink="http://www.w3.org/1999/xlink" height="90.8px" width="79.9px" xmlns="http://www.w3.org/2000/svg">
  <g transform="matrix(1.0, 0.0, 0.0, 1.0, 40.55, 45.7)">
    <path d="M36.35 27.7 Q36.2 32.75 30.9 35.9 24.35 39.8 8.35 42.1 L-0.7 41.95 -13.65 39.3 Q-21.55 37.55 -29.75 37.1 -33.45 36.85 -35.05 35.4 -35.7 34.8 -36.3 33.1 L-37.15 30.9 -37.55 28.5 Q-37.35 21.0 -29.55 15.4 -19.0 7.7 2.55 7.15 17.15 7.3 27.7 15.6 31.8 18.75 34.2 22.35 36.4 25.6 36.35 27.7" fill="#ffffff" fill-rule="evenodd" stroke="none"/>
    <path d="M36.35 27.7 Q36.2 32.75 30.9 35.9 24.35 39.8 8.35 42.1 L-0.7 41.95 -13.65 39.3 Q-21.55 37.55 -29.75 37.1 -33.45 36.85 -35.05 35.4 -35.7 34.8 -36.3 33.1 L-37.15 30.9 -37.55 28.5 Q-37.35 21.0 -29.55 15.4 -19.0 7.7 2.55 7.15 17.15 7.3 27.7 15.6 31.8 18.75 34.2 22.35 36.4 25.6 36.35 27.7 Z" fill="none" stroke="#91e7ff" stroke-linecap="round" stroke-linejoin="round" stroke-width="6.0"/>
    <path d="M36.35 27.7 Q36.2 32.75 30.9 35.9 24.35 39.8 8.35 42.1 L-0.7 41.95 -13.65 39.3 Q-21.55 37.55 -29.75 37.1 -33.45 36.85 -35.05 35.4 -35.7 34.8 -36.3 33.1 L-37.15 30.9 -37.55 28.5 Q-37.35 21.0 -29.55 15.4 -19.0 7.7 2.55 7.15 17.15 7.3 27.7 15.6 31.8 18.75 34.2 22.35 36.4 25.6 36.35 27.7" fill="#ffffff" fill-rule="evenodd" stroke="none"/>
    <path d="M27.85 3.75 L25.7 20.15 17.75 31.85 4.5 36.55 -16.0 32.25 -29.4 12.1 -30.45 -9.25 -11.05 -40.1 0.55 -42.7 15.2 -20.6 25.85 -11.6 27.85 3.75" fill="#91e7ff" fill-rule="evenodd" stroke="none"/>
    <path d="M27.85 3.75 L25.7 20.15 17.75 31.85 4.5 36.55 -16.0 32.25 -29.4 12.1 -30.45 -9.25 -11.05 -40.1 0.55 -42.7 15.2 -20.6 25.85 -11.6 27.85 3.75 Z" fill="none" stroke="#31d3ff" stroke-linecap="round" stroke-linejoin="round" stroke-width="6.0"/>
    <path d="M-21.1 -38.45 L-19.85 -37.15 -18.6 -38.4 -18.05 -38.65 -17.55 -38.45 -17.35 -37.9 -17.55 -37.4 -18.8 -36.1 -17.55 -34.85 -17.35 -34.35 -17.55 -33.8 Q-17.75 -33.6 -18.1 -33.6 L-18.6 -33.8 -19.85 -35.05 -21.1 -33.8 Q-21.3 -33.6 -21.6 -33.6 L-22.15 -33.8 -22.35 -34.35 -22.15 -34.85 -20.9 -36.1 -22.15 -37.4 -22.4 -37.9 -22.15 -38.45 -21.65 -38.65 -21.1 -38.45" fill="#ffffff" fill-rule="evenodd" stroke="none"/>
    <path d="M-21.1 -38.45 L-21.65 -38.65 -22.15 -38.45 -22.4 -37.9 -22.15 -37.4 -20.9 -36.1 -22.15 -34.85 -22.35 -34.35 -22.15 -33.8 -21.6 -33.6 Q-21.3 -33.6 -21.1 -33.8 L-19.85 -35.05 -18.6 -33.8 -18.1 -33.6 Q-17.75 -33.6 -17.55 -33.8 L-17.35 -34.35 -17.55 -34.85 -18.8 -36.1 -17.55 -37.4 -17.35 -37.9 -17.55 -38.45 -18.05 -38.65 -18.6 -38.4 -19.85 -37.15 -21.1 -38.45 Z" fill="none" stroke="#91e7ff" stroke-linecap="round" stroke-linejoin="round" stroke-width="6.0"/>
    <path d="M32.3 -26.45 Q32.85 -26.45 33.25 -26.05 33.65 -25.65 33.65 -25.05 33.65 -24.5 33.25 -24.1 32.85 -23.7 32.3 -23.7 L30.9 -23.7 31.9 -22.7 Q32.3 -22.3 32.3 -21.75 32.3 -21.15 31.9 -20.75 31.45 -20.35 30.9 -20.35 30.35 -20.35 29.95 -20.75 L28.95 -21.7 28.95 -20.35 Q28.95 -19.8 28.55 -19.4 28.15 -19.0 27.6 -19.0 27.0 -19.0 26.6 -19.4 26.2 -19.8 26.2 -20.35 L26.2 -21.7 25.25 -20.75 Q24.85 -20.35 24.3 -20.35 23.7 -20.35 23.3 -20.75 22.9 -21.15 22.9 -21.7 22.9 -22.3 23.3 -22.7 L24.3 -23.7 22.9 -23.7 Q22.3 -23.7 21.9 -24.1 21.5 -24.5 21.5 -25.05 21.5 -25.65 21.9 -26.05 22.3 -26.45 22.9 -26.45 L24.25 -26.45 23.3 -27.4 Q22.85 -27.85 22.85 -28.4 22.85 -28.95 23.3 -29.35 23.65 -29.8 24.25 -29.8 24.8 -29.8 25.2 -29.35 L26.2 -28.4 26.2 -29.75 Q26.2 -30.35 26.6 -30.7 L27.6 -31.15 Q28.15 -31.15 28.55 -30.7 28.95 -30.35 28.95 -29.75 L28.95 -28.4 29.95 -29.35 Q30.35 -29.75 30.9 -29.75 31.5 -29.75 31.9 -29.35 32.3 -28.95 32.3 -28.4 32.3 -27.8 31.9 -27.4 L30.95 -26.45 32.3 -26.45" fill="#ffffff" fill-rule="evenodd" stroke="none"/>
    <path d="M32.3 -26.45 L30.95 -26.45 31.9 -27.4 Q32.3 -27.8 32.3 -28.4 32.3 -28.95 31.9 -29.35 31.5 -29.75 30.9 -29.75 30.35 -29.75 29.95 -29.35 L28.95 -28.4 28.95 -29.75 Q28.95 -30.35 28.55 -30.7 28.15 -31.15 27.6 -31.15 L26.6 -30.7 Q26.2 -30.35 26.2 -29.75 L26.2 -28.4 25.2 -29.35 Q24.8 -29.8 24.25 -29.8 23.65 -29.8 23.3 -29.35 22.85 -28.95 22.85 -28.4 22.85 -27.85 23.3 -27.4 L24.25 -26.45 22.9 -26.45 Q22.3 -26.45 21.9 -26.05 21.5 -25.65 21.5 -25.05 21.5 -24.5 21.9 -24.1 22.3 -23.7 22.9 -23.7 L24.3 -23.7 23.3 -22.7 Q22.9 -22.3 22.9 -21.7 22.9 -21.15 23.3 -20.75 23.7 -20.35 24.3 -20.35 24.85 -20.35 25.25 -20.75 L26.2 -21.7 26.2 -20.35 Q26.2 -19.8 26.6 -19.4 27.0 -19.0 27.6 -19.0 28.15 -19.0 28.55 -19.4 28.95 -19.8 28.95 -20.35 L28.95 -21.7 29.95 -20.75 Q30.35 -20.35 30.9 -20.35 31.45 -20.35 31.9 -20.75 32.3 -21.15 32.3 -21.75 32.3 -22.3 31.9 -22.7 L30.9 -23.7 32.3 -23.7 Q32.85 -23.7 33.25 -24.1 33.65 -24.5 33.65 -25.05 33.65 -25.65 33.25 -26.05 32.85 -26.45 32.3 -26.45 Z" fill="none" stroke="#91e7ff" stroke-linecap="round" stroke-linejoin="round" stroke-width="6.0"/>
    <path d="M27.85 3.75 L25.7 20.15 17.75 31.85 4.5 36.55 -16.0 32.25 -29.4 12.1 -30.45 -9.25 -11.05 -40.1 0.55 -42.7 15.2 -20.6 25.85 -11.6 27.85 3.75" fill="#91e7ff" fill-rule="evenodd" stroke="none"/>
    <path d="M27.95 3.7 L25.8 20.1 17.85 31.8 4.5 36.55 3.95 36.45 -0.5 20.45 7.15 -15.05 0.55 -23.2 -1.8 -42.15 0.55 -42.7 15.25 -20.65 25.85 -11.65 27.95 3.7" fill="#62deff" fill-rule="evenodd" stroke="none"/>
    <path d="M17.85 31.8 L4.5 36.55 -16.0 32.25 -29.3 12.1 0.85 25.1 Q13.65 20.2 26.4 15.25 L25.8 20.1 17.85 31.8" fill="#62deff" fill-rule="evenodd" stroke="none"/>
    <path d="M25.8 20.1 L17.85 31.8 4.5 36.55 3.95 36.45 0.8 25.05 0.85 25.1 Q13.65 20.2 26.4 15.25 L25.8 20.1" fill="#31d3ff" fill-rule="evenodd" stroke="none"/>
    <path d="M-21.1 -38.45 L-19.85 -37.15 -18.6 -38.4 -18.05 -38.65 -17.55 -38.45 -17.35 -37.9 -17.55 -37.4 -18.8 -36.1 -17.55 -34.85 -17.35 -34.35 -17.55 -33.8 Q-17.75 -33.6 -18.1 -33.6 L-18.6 -33.8 -19.85 -35.05 -21.1 -33.8 Q-21.3 -33.6 -21.6 -33.6 L-22.15 -33.8 -22.35 -34.35 -22.15 -34.85 -20.9 -36.1 -22.15 -37.4 -22.4 -37.9 -22.15 -38.45 -21.65 -38.65 -21.1 -38.45" fill="#ffffff" fill-rule="evenodd" stroke="none"/>
    <path d="M32.3 -26.45 Q32.85 -26.45 33.25 -26.05 33.65 -25.65 33.65 -25.05 33.65 -24.5 33.25 -24.1 32.85 -23.7 32.3 -23.7 L30.9 -23.7 31.9 -22.7 Q32.3 -22.3 32.3 -21.75 32.3 -21.15 31.9 -20.75 31.45 -20.35 30.9 -20.35 30.35 -20.35 29.95 -20.75 L28.95 -21.7 28.95 -20.35 Q28.95 -19.8 28.55 -19.4 28.15 -19.0 27.6 -19.0 27.0 -19.0 26.6 -19.4 26.2 -19.8 26.2 -20.35 L26.2 -21.7 25.25 -20.75 Q24.85 -20.35 24.3 -20.35 23.7 -20.35 23.3 -20.75 22.9 -21.15 22.9 -21.7 22.9 -22.3 23.3 -22.7 L24.3 -23.7 22.9 -23.7 Q22.3 -23.7 21.9 -24.1 21.5 -24.5 21.5 -25.05 21.5 -25.65 21.9 -26.05 22.3 -26.45 22.9 -26.45 L24.25 -26.45 23.3 -27.4 Q22.85 -27.85 22.85 -28.4 22.85 -28.95 23.3 -29.35 23.65 -29.8 24.25 -29.8 24.8 -29.8 25.2 -29.35 L26.2 -28.4 26.2 -29.75 Q26.2 -30.35 26.6 -30.7 L27.6 -31.15 Q28.15 -31.15 28.55 -30.7 28.95 -30.35 28.95 -29.75 L28.95 -28.4 29.95 -29.35 Q30.35 -29.75 30.9 -29.75 31.5 -29.75 31.9 -29.35 32.3 -28.95 32.3 -28.4 32.3 -27.8 31.9 -27.4 L30.95 -26.45 32.3 -26.45" fill="#ffffff" fill-rule="evenodd" stroke="none"/>
    <path d="M-28.15 -3.25 L-27.45 -2.95 Q-27.15 -2.65 -27.15 -2.25 -27.15 -1.85 -27.45 -1.55 -27.75 -1.25 -28.15 -1.25 L-29.15 -1.25 -28.45 -0.55 Q-28.15 -0.25 -28.15 0.15 -28.15 0.55 -28.45 0.85 -28.75 1.15 -29.15 1.15 L-29.85 0.85 -30.55 0.15 -30.55 1.15 Q-30.55 1.55 -30.8 1.85 L-31.55 2.15 Q-31.95 2.15 -32.2 1.85 L-32.5 1.15 -32.5 0.15 -33.2 0.85 Q-33.5 1.15 -33.9 1.15 L-34.6 0.85 -34.9 0.15 -34.6 -0.55 -33.9 -1.25 -34.9 -1.25 Q-35.3 -1.25 -35.6 -1.55 L-35.9 -2.25 -35.6 -2.95 -34.9 -3.25 -33.95 -3.25 -34.6 -3.9 -34.9 -4.6 -34.6 -5.3 Q-34.35 -5.6 -33.95 -5.6 -33.5 -5.6 -33.2 -5.3 L-32.5 -4.6 -32.5 -5.6 -32.2 -6.3 Q-31.95 -6.6 -31.55 -6.6 L-30.8 -6.3 Q-30.55 -6.0 -30.55 -5.6 L-30.55 -4.6 -29.85 -5.3 -29.15 -5.6 Q-28.75 -5.6 -28.45 -5.3 -28.15 -5.0 -28.15 -4.6 -28.15 -4.2 -28.45 -3.9 L-29.15 -3.25 -28.15 -3.25" fill="#ffffff" fill-rule="evenodd" stroke="none"/>
    <path d="M-28.15 -3.25 L-29.15 -3.25 -28.45 -3.9 Q-28.15 -4.2 -28.15 -4.6 -28.15 -5.0 -28.45 -5.3 -28.75 -5.6 -29.15 -5.6 L-29.85 -5.3 -30.55 -4.6 -30.55 -5.6 Q-30.55 -6.0 -30.8 -6.3 L-31.55 -6.6 Q-31.95 -6.6 -32.2 -6.3 L-32.5 -5.6 -32.5 -4.6 -33.2 -5.3 Q-33.5 -5.6 -33.95 -5.6 -34.35 -5.6 -34.6 -5.3 L-34.9 -4.6 -34.6 -3.9 -33.95 -3.25 -34.9 -3.25 -35.6 -2.95 -35.9 -2.25 -35.6 -1.55 Q-35.3 -1.25 -34.9 -1.25 L-33.9 -1.25 -34.6 -0.55 -34.9 0.15 -34.6 0.85 -33.9 1.15 Q-33.5 1.15 -33.2 0.85 L-32.5 0.15 -32.5 1.15 -32.2 1.85 Q-31.95 2.15 -31.55 2.15 L-30.8 1.85 Q-30.55 1.55 -30.55 1.15 L-30.55 0.15 -29.85 0.85 -29.15 1.15 Q-28.75 1.15 -28.45 0.85 -28.15 0.55 -28.15 0.15 -28.15 -0.25 -28.45 -0.55 L-29.15 -1.25 -28.15 -1.25 Q-27.75 -1.25 -27.45 -1.55 -27.15 -1.85 -27.15 -2.25 -27.15 -2.65 -27.45 -2.95 L-28.15 -3.25 Z" fill="none" stroke="#91e7ff" stroke-linecap="round" stroke-linejoin="round" stroke-width="6.0"/>
    <path d="M-28.15 -3.25 L-27.45 -2.95 Q-27.15 -2.65 -27.15 -2.25 -27.15 -1.85 -27.45 -1.55 -27.75 -1.25 -28.15 -1.25 L-29.15 -1.25 -28.45 -0.55 Q-28.15 -0.25 -28.15 0.15 -28.15 0.55 -28.45 0.85 -28.75 1.15 -29.15 1.15 L-29.85 0.85 -30.55 0.15 -30.55 1.15 Q-30.55 1.55 -30.8 1.85 L-31.55 2.15 Q-31.95 2.15 -32.2 1.85 L-32.5 1.15 -32.5 0.15 -33.2 0.85 Q-33.5 1.15 -33.9 1.15 L-34.6 0.85 -34.9 0.15 -34.6 -0.55 -33.9 -1.25 -34.9 -1.25 Q-35.3 -1.25 -35.6 -1.55 L-35.9 -2.25 -35.6 -2.95 -34.9 -3.25 -33.95 -3.25 -34.6 -3.9 -34.9 -4.6 -34.6 -5.3 Q-34.35 -5.6 -33.95 -5.6 -33.5 -5.6 -33.2 -5.3 L-32.5 -4.6 -32.5 -5.6 -32.2 -6.3 Q-31.95 -6.6 -31.55 -6.6 L-30.8 -6.3 Q-30.55 -6.0 -30.55 -5.6 L-30.55 -4.6 -29.85 -5.3 -29.15 -5.6 Q-28.75 -5.6 -28.45 -5.3 -28.15 -5.0 -28.15 -4.6 -28.15 -4.2 -28.45 -3.9 L-29.15 -3.25 -28.15 -3.25" fill="#ffffff" fill-rule="evenodd" stroke="none"/>
    <path d="M25.75 8.05 L27.45 9.75 29.1 8.05 Q29.4 7.75 29.85 7.75 L30.5 8.05 30.8 8.75 30.55 9.45 28.85 11.15 30.5 12.8 30.8 13.5 30.5 14.2 Q30.2 14.5 29.8 14.5 L29.1 14.2 27.45 12.55 25.75 14.2 25.05 14.5 Q24.65 14.5 24.35 14.2 24.05 13.95 24.05 13.55 24.05 13.1 24.35 12.8 L26.05 11.15 24.35 9.45 Q24.05 9.15 24.05 8.7 24.05 8.3 24.35 8.05 24.65 7.75 25.05 7.75 25.45 7.75 25.75 8.05" fill="#ffffff" fill-rule="evenodd" stroke="none"/>
    <path d="M25.75 8.05 Q25.45 7.75 25.05 7.75 24.65 7.75 24.35 8.05 24.05 8.3 24.05 8.7 24.05 9.15 24.35 9.45 L26.05 11.15 24.35 12.8 Q24.05 13.1 24.05 13.55 24.05 13.95 24.35 14.2 24.65 14.5 25.05 14.5 L25.75 14.2 27.45 12.55 29.1 14.2 29.8 14.5 Q30.2 14.5 30.5 14.2 L30.8 13.5 30.5 12.8 28.85 11.15 30.55 9.45 30.8 8.75 30.5 8.05 29.85 7.75 Q29.4 7.75 29.1 8.05 L27.45 9.75 25.75 8.05 Z" fill="none" stroke="#91e7ff" stroke-linecap="round" stroke-linejoin="round" stroke-width="6.0"/>
    <path d="M25.75 8.05 L27.45 9.75 29.1 8.05 Q29.4 7.75 29.85 7.75 L30.5 8.05 30.8 8.75 30.55 9.45 28.85 11.15 30.5 12.8 30.8 13.5 30.5 14.2 Q30.2 14.5 29.8 14.5 L29.1 14.2 27.45 12.55 25.75 14.2 25.05 14.5 Q24.65 14.5 24.35 14.2 24.05 13.95 24.05 13.55 24.05 13.1 24.35 12.8 L26.05 11.15 24.35 9.45 Q24.05 9.15 24.05 8.7 24.05 8.3 24.35 8.05 24.65 7.75 25.05 7.75 25.45 7.75 25.75 8.05" fill="#ffffff" fill-rule="evenodd" stroke="none"/>
    <path d="M-22.1 -30.95 Q-21.65 -30.95 -21.35 -30.6 -21.05 -30.3 -21.05 -29.9 -21.05 -29.45 -21.35 -29.15 -21.65 -28.8 -22.1 -28.8 L-23.15 -28.8 -22.4 -28.05 Q-22.1 -27.75 -22.1 -27.35 -22.1 -26.9 -22.4 -26.6 -22.7 -26.3 -23.15 -26.3 -23.6 -26.3 -23.9 -26.6 L-24.65 -27.3 -24.65 -26.3 Q-24.65 -25.85 -24.95 -25.55 -25.25 -25.25 -25.7 -25.25 -26.1 -25.25 -26.45 -25.55 -26.75 -25.85 -26.75 -26.3 L-26.75 -27.3 -27.5 -26.55 Q-27.8 -26.25 -28.2 -26.25 -28.65 -26.25 -28.95 -26.55 -29.3 -26.85 -29.3 -27.3 L-29.0 -28.05 -28.2 -28.8 -29.3 -28.8 Q-29.7 -28.8 -30.0 -29.15 -30.35 -29.45 -30.35 -29.9 L-30.0 -30.6 Q-29.7 -30.95 -29.3 -30.95 L-28.25 -30.95 -29.0 -31.65 -29.3 -32.4 -29.0 -33.15 -28.25 -33.5 Q-27.8 -33.5 -27.5 -33.15 L-26.75 -32.4 -26.75 -33.45 -26.45 -34.2 -25.7 -34.5 Q-25.25 -34.5 -24.95 -34.2 -24.65 -33.9 -24.65 -33.45 L-24.65 -32.4 -23.9 -33.15 -23.15 -33.45 -22.4 -33.15 Q-22.1 -32.85 -22.1 -32.4 -22.1 -31.95 -22.4 -31.65 L-23.15 -30.95 -22.1 -30.95" fill="#ffffff" fill-rule="evenodd" stroke="none"/>
    <path d="M-22.1 -30.95 L-23.15 -30.95 -22.4 -31.65 Q-22.1 -31.95 -22.1 -32.4 -22.1 -32.85 -22.4 -33.15 L-23.15 -33.45 -23.9 -33.15 -24.65 -32.4 -24.65 -33.45 Q-24.65 -33.9 -24.95 -34.2 -25.25 -34.5 -25.7 -34.5 L-26.45 -34.2 -26.75 -33.45 -26.75 -32.4 -27.5 -33.15 Q-27.8 -33.5 -28.25 -33.5 L-29.0 -33.15 -29.3 -32.4 -29.0 -31.65 -28.25 -30.95 -29.3 -30.95 Q-29.7 -30.95 -30.0 -30.6 L-30.35 -29.9 Q-30.35 -29.45 -30.0 -29.15 -29.7 -28.8 -29.3 -28.8 L-28.2 -28.8 -29.0 -28.05 -29.3 -27.3 Q-29.3 -26.85 -28.95 -26.55 -28.65 -26.25 -28.2 -26.25 -27.8 -26.25 -27.5 -26.55 L-26.75 -27.3 -26.75 -26.3 Q-26.75 -25.85 -26.45 -25.55 -26.1 -25.25 -25.7 -25.25 -25.25 -25.25 -24.95 -25.55 -24.65 -25.85 -24.65 -26.3 L-24.65 -27.3 -23.9 -26.6 Q-23.6 -26.3 -23.15 -26.3 -22.7 -26.3 -22.4 -26.6 -22.1 -26.9 -22.1 -27.35 -22.1 -27.75 -22.4 -28.05 L-23.15 -28.8 -22.1 -28.8 Q-21.65 -28.8 -21.35 -29.15 -21.05 -29.45 -21.05 -29.9 -21.05 -30.3 -21.35 -30.6 -21.65 -30.95 -22.1 -30.95 Z" fill="none" stroke="#91e7ff" stroke-linecap="round" stroke-linejoin="round" stroke-width="6.0"/>
    <path d="M-22.1 -30.95 Q-21.65 -30.95 -21.35 -30.6 -21.05 -30.3 -21.05 -29.9 -21.05 -29.45 -21.35 -29.15 -21.65 -28.8 -22.1 -28.8 L-23.15 -28.8 -22.4 -28.05 Q-22.1 -27.75 -22.1 -27.35 -22.1 -26.9 -22.4 -26.6 -22.7 -26.3 -23.15 -26.3 -23.6 -26.3 -23.9 -26.6 L-24.65 -27.3 -24.65 -26.3 Q-24.65 -25.85 -24.95 -25.55 -25.25 -25.25 -25.7 -25.25 -26.1 -25.25 -26.45 -25.55 -26.75 -25.85 -26.75 -26.3 L-26.75 -27.3 -27.5 -26.55 Q-27.8 -26.25 -28.2 -26.25 -28.65 -26.25 -28.95 -26.55 -29.3 -26.85 -29.3 -27.3 L-29.0 -28.05 -28.2 -28.8 -29.3 -28.8 Q-29.7 -28.8 -30.0 -29.15 -30.35 -29.45 -30.35 -29.9 L-30.0 -30.6 Q-29.7 -30.95 -29.3 -30.95 L-28.25 -30.95 -29.0 -31.65 -29.3 -32.4 -29.0 -33.15 -28.25 -33.5 Q-27.8 -33.5 -27.5 -33.15 L-26.75 -32.4 -26.75 -33.45 -26.45 -34.2 -25.7 -34.5 Q-25.25 -34.5 -24.95 -34.2 -24.65 -33.9 -24.65 -33.45 L-24.65 -32.4 -23.9 -33.15 -23.15 -33.45 -22.4 -33.15 Q-22.1 -32.85 -22.1 -32.4 -22.1 -31.95 -22.4 -31.65 L-23.15 -30.95 -22.1 -30.95" fill="#ffffff" fill-rule="evenodd" stroke="none"/>
    <path d="M21.15 6.0 L22.4 7.3 23.65 6.05 Q23.85 5.8 24.2 5.8 L24.7 6.0 24.9 6.55 24.7 7.05 23.45 8.35 24.7 9.6 24.9 10.1 24.7 10.65 24.15 10.85 Q23.85 10.85 23.65 10.65 L22.4 9.4 21.15 10.65 20.65 10.85 20.1 10.65 19.9 10.1 20.1 9.6 21.35 8.35 20.1 7.05 19.85 6.55 20.1 6.0 Q20.3 5.8 20.6 5.8 L21.15 6.0" fill="#ffffff" fill-rule="evenodd" stroke="none"/>
    <path d="M21.15 6.0 L20.6 5.8 Q20.3 5.8 20.1 6.0 L19.85 6.55 20.1 7.05 21.35 8.35 20.1 9.6 19.9 10.1 20.1 10.65 20.65 10.85 21.15 10.65 22.4 9.4 23.65 10.65 Q23.85 10.85 24.15 10.85 L24.7 10.65 24.9 10.1 24.7 9.6 23.45 8.35 24.7 7.05 24.9 6.55 24.7 6.0 24.2 5.8 Q23.85 5.8 23.65 6.05 L22.4 7.3 21.15 6.0 Z" fill="none" stroke="#91e7ff" stroke-linecap="round" stroke-linejoin="round" stroke-width="6.0"/>
    <path d="M21.15 6.0 L22.4 7.3 23.65 6.05 Q23.85 5.8 24.2 5.8 L24.7 6.0 24.9 6.55 24.7 7.05 23.45 8.35 24.7 9.6 24.9 10.1 24.7 10.65 24.15 10.85 Q23.85 10.85 23.65 10.65 L22.4 9.4 21.15 10.65 20.65 10.85 20.1 10.65 19.9 10.1 20.1 9.6 21.35 8.35 20.1 7.05 19.85 6.55 20.1 6.0 Q20.3 5.8 20.6 5.8 L21.15 6.0" fill="#ffffff" fill-rule="evenodd" stroke="none"/>
    <path d="M8.95 23.45 L9.1 23.45 10.5 23.15 14.1 22.3 20.15 21.65 Q26.15 22.8 29.85 25.95 L29.85 26.0 30.15 26.25 Q30.75 28.3 30.7 30.2 30.65 32.15 29.65 34.0 L27.85 36.45 Q21.1 39.75 8.3 42.0 L-0.75 41.8 -13.7 38.8 Q-21.6 36.8 -29.8 36.3 L-30.05 36.3 Q-34.25 33.9 -35.45 30.75 L-35.6 29.05 -35.1 26.5 -34.95 25.75 -33.8 23.85 Q-30.4 19.3 -23.35 19.5 L-17.7 20.6 -14.55 21.95 -14.25 22.1 Q-10.9 23.4 -4.0 23.8 L3.6 24.0 4.5 23.85 8.95 23.45" fill="#ffffff" fill-rule="evenodd" stroke="none"/>
    <path d="M-10.55 19.45 L-8.85 21.15 -7.2 19.45 -6.45 19.15 Q-6.1 19.15 -5.8 19.45 -5.5 19.7 -5.5 20.15 L-5.75 20.85 -7.45 22.55 -5.8 24.2 Q-5.5 24.5 -5.5 24.9 -5.5 25.3 -5.8 25.6 -6.1 25.9 -6.5 25.9 L-7.2 25.6 -8.85 23.95 -10.55 25.6 -11.25 25.9 Q-11.65 25.9 -11.95 25.6 L-12.25 24.95 -11.95 24.2 -10.25 22.55 -11.95 20.85 -12.25 20.1 -11.95 19.45 Q-11.65 19.15 -11.25 19.15 -10.85 19.15 -10.55 19.45" fill="#ffffff" fill-rule="evenodd" stroke="none"/>
    <path d="M-10.55 19.45 Q-10.85 19.15 -11.25 19.15 -11.65 19.15 -11.95 19.45 L-12.25 20.1 -11.95 20.85 -10.25 22.55 -11.95 24.2 -12.25 24.95 -11.95 25.6 Q-11.65 25.9 -11.25 25.9 L-10.55 25.6 -8.85 23.95 -7.2 25.6 -6.5 25.9 Q-6.1 25.9 -5.8 25.6 -5.5 25.3 -5.5 24.9 -5.5 24.5 -5.8 24.2 L-7.45 22.55 -5.75 20.85 -5.5 20.15 Q-5.5 19.7 -5.8 19.45 -6.1 19.15 -6.45 19.15 L-7.2 19.45 -8.85 21.15 -10.55 19.45 Z" fill="none" stroke="#91e7ff" stroke-linecap="round" stroke-linejoin="round" stroke-width="6.0"/>
    <path d="M-10.55 19.45 L-8.85 21.15 -7.2 19.45 -6.45 19.15 Q-6.1 19.15 -5.8 19.45 -5.5 19.7 -5.5 20.15 L-5.75 20.85 -7.45 22.55 -5.8 24.2 Q-5.5 24.5 -5.5 24.9 -5.5 25.3 -5.8 25.6 -6.1 25.9 -6.5 25.9 L-7.2 25.6 -8.85 23.95 -10.55 25.6 -11.25 25.9 Q-11.65 25.9 -11.95 25.6 L-12.25 24.95 -11.95 24.2 -10.25 22.55 -11.95 20.85 -12.25 20.1 -11.95 19.45 Q-11.65 19.15 -11.25 19.15 -10.85 19.15 -10.55 19.45" fill="#ffffff" fill-rule="evenodd" stroke="none"/>
  </g>
</svg>
