<?xml version="1.0" encoding="UTF-8" standalone="no"?>
<svg xmlns:xlink="http://www.w3.org/1999/xlink" height="55.45px" width="45.3px" xmlns="http://www.w3.org/2000/svg">
  <g transform="matrix(1.0, 0.0, 0.0, 1.0, 22.65, 24.0)">
    <path d="M-4.95 -15.8 L5.6 -14.8 8.7 -14.05 8.7 -14.3 5.2 -15.3 -4.7 -16.05 0.85 -20.7 21.05 -19.2 7.45 -9.25 4.15 -7.0 7.45 -9.25 7.45 -0.05 7.45 1.9 7.0 2.15 4.75 1.65 4.75 2.55 4.45 2.55 4.25 1.6 4.0 -0.7 4.15 -7.0 2.7 -5.9 -17.35 -5.55 -12.2 -9.8 -9.95 -9.65 -5.0 -9.85 -0.35 -9.95 0.2 -9.2 1.75 -8.95 Q6.0 -10.1 6.85 -10.65 L3.45 -10.35 0.75 -9.5 Q0.35 -9.5 0.05 -9.8 L-0.3 -10.2 -9.3 -10.2 -12.05 -9.95 -8.65 -12.75 0.25 -12.65 Q1.3 -11.85 1.4 -11.3 L3.05 -11.45 4.45 -11.9 4.3 -12.0 2.5 -12.75 0.3 -12.95 -8.35 -13.0 -4.95 -15.8 M13.8 -17.5 L10.4 -17.15 8.35 -17.25 10.15 -16.95 12.55 -16.7 Q13.4 -16.7 14.2 -17.3 14.95 -17.9 16.45 -17.75 L14.75 -18.0 13.8 -17.5 M5.3 -4.05 L5.9 -1.4 5.8 -0.9 5.85 -0.85 6.15 -0.95 6.25 -0.95 6.25 -1.4 6.0 -2.75 Q5.65 -3.85 5.65 -4.15 L5.85 -6.5 Q5.3 -6.2 5.3 -4.05 M3.15 -18.4 Q3.15 -17.9 3.3 -17.75 3.9 -18.15 4.6 -18.1 L3.15 -18.4 M7.45 17.85 L7.45 21.25 -19.25 29.85 Q-19.15 28.5 -19.3 27.5 L-19.2 16.8 Q-19.2 8.55 -19.55 4.3 L-19.55 -7.9 -19.85 -8.65 -18.55 -8.75 -19.3 -8.1 -17.35 -5.55 -17.35 7.0 -17.6 5.85 -17.35 7.9 -17.35 25.25 2.7 19.25 2.7 18.75 7.2 17.7 7.45 17.85 M0.55 21.7 Q1.65 20.8 3.2 20.85 4.75 20.9 5.85 19.95 L2.5 20.7 Q0.05 21.2 0.05 21.55 0.05 22.3 0.55 21.7 M-14.55 -7.3 Q-14.85 -7.25 -15.0 -6.65 L-7.15 -7.2 -5.35 -7.5 -3.65 -7.7 -6.85 -7.8 -14.55 -7.3 M-19.0 -2.25 L-18.45 -5.3 Q-19.3 -5.0 -19.3 -2.4 -19.3 1.1 -18.6 2.4 L-18.7 2.4 -18.7 15.15 Q-18.35 16.8 -18.1 19.85 L-17.65 19.7 -18.1 17.3 -18.35 14.9 -18.35 3.7 -18.1 4.45 Q-17.65 4.3 -17.65 4.1 L-17.8 3.7 -18.35 3.7 -18.35 2.6 -18.45 2.4 -18.5 2.4 Q-19.0 0.3 -19.0 -2.25 M-0.55 22.25 L-0.6 22.15 -11.35 24.6 Q-18.1 26.0 -18.1 26.85 -18.1 27.55 -17.6 26.95 -15.0 25.8 -10.25 24.8 -4.5 23.55 -0.55 22.25 M-18.45 23.05 L-18.7 23.1 Q-18.7 23.95 -19.0 24.25 L-19.0 26.6 -18.5 26.7 -18.5 25.85 -18.35 24.85 -18.45 23.05" fill="#7b5930" fill-rule="evenodd" stroke="none"/>
    <path d="M13.8 -17.5 L14.75 -18.0 16.45 -17.75 Q14.95 -17.9 14.2 -17.3 13.4 -16.7 12.55 -16.7 L10.15 -16.95 8.35 -17.25 10.4 -17.15 13.8 -17.5 M-4.7 -16.05 L5.2 -15.3 8.7 -14.3 8.7 -14.05 5.6 -14.8 -4.95 -15.8 -5.45 -15.85 -5.35 -16.1 -4.7 -16.05 M-8.35 -13.0 L0.3 -12.95 2.5 -12.75 4.3 -12.0 4.45 -11.9 3.05 -11.45 1.4 -11.3 Q1.3 -11.85 0.25 -12.65 L-8.65 -12.75 -9.2 -12.75 -9.0 -13.0 -8.35 -13.0 M-12.05 -9.95 L-9.3 -10.2 -0.3 -10.2 0.05 -9.8 Q0.35 -9.5 0.75 -9.5 L3.45 -10.35 6.85 -10.65 Q6.0 -10.1 1.75 -8.95 L0.2 -9.2 -0.35 -9.95 -5.0 -9.85 -9.95 -9.65 -12.2 -9.8 -12.55 -9.95 -12.05 -9.95 M3.15 -18.4 L4.6 -18.1 Q3.9 -18.15 3.3 -17.75 3.15 -17.9 3.15 -18.4 M5.3 -4.05 Q5.3 -6.2 5.85 -6.5 L5.65 -4.15 Q5.65 -3.85 6.0 -2.75 L6.25 -1.4 6.25 -0.95 6.15 -0.95 5.85 -0.85 5.8 -0.9 5.9 -1.4 5.3 -4.05 M-19.25 29.85 L-19.35 30.65 -19.6 30.65 -19.6 30.0 -19.6 28.75 -19.7 28.55 -19.7 5.1 -19.95 4.3 -19.95 -7.65 -20.1 -7.8 -20.25 -8.3 -20.25 -8.55 -20.25 -9.3 -19.95 -9.3 -19.85 -8.65 -19.55 -7.9 -19.55 4.3 Q-19.2 8.55 -19.2 16.8 L-19.3 27.5 Q-19.15 28.5 -19.25 29.85 M-17.35 7.9 L-17.6 5.85 -17.35 7.0 -16.6 9.7 -16.55 9.95 -16.6 9.95 -17.15 9.95 -17.35 7.9 M0.55 21.7 Q0.05 22.3 0.05 21.55 0.05 21.2 2.5 20.7 L5.85 19.95 Q4.75 20.9 3.2 20.85 1.65 20.8 0.55 21.7 M-14.55 -7.3 L-6.85 -7.8 -3.65 -7.7 -5.35 -7.5 -7.15 -7.2 -15.0 -6.65 Q-14.85 -7.25 -14.55 -7.3 M-19.0 -2.25 Q-19.0 0.3 -18.5 2.4 L-18.45 2.4 -18.35 2.6 -18.35 3.7 -17.8 3.7 -17.65 4.1 Q-17.65 4.3 -18.1 4.45 L-18.35 3.7 -18.35 14.9 -18.1 17.3 -17.65 19.7 -18.1 19.85 Q-18.35 16.8 -18.7 15.15 L-18.7 2.4 -18.6 2.4 Q-19.3 1.1 -19.3 -2.4 -19.3 -5.0 -18.45 -5.3 L-19.0 -2.25 M-18.45 23.05 L-18.35 24.85 -18.5 25.85 -18.5 26.7 -19.0 26.6 -19.0 24.25 Q-18.7 23.95 -18.7 23.1 L-18.45 23.05 M-0.55 22.25 Q-4.5 23.55 -10.25 24.8 -15.0 25.8 -17.6 26.95 -18.1 27.55 -18.1 26.85 -18.1 26.0 -11.35 24.6 L-0.6 22.15 -0.55 22.25" fill="#412709" fill-rule="evenodd" stroke="none"/>
    <path d="M21.05 -19.2 L0.85 -20.7 -1.3 -23.25 18.5 -22.25 21.05 -19.2" fill="#8e6737" fill-rule="evenodd" stroke="none"/>
    <path d="M-4.95 -15.8 L-8.35 -13.0 -9.0 -13.0 -9.2 -12.75 -8.65 -12.75 -12.05 -9.95 -12.55 -9.95 -12.2 -9.8 -17.35 -5.55 -19.3 -8.1 -18.55 -8.75 -1.3 -23.25 0.85 -20.7 -4.7 -16.05 -5.35 -16.1 -5.45 -15.85 -4.95 -15.8 M2.7 -5.9 L4.15 -7.0 4.0 -0.7 4.25 1.6 2.7 1.3 2.7 -5.9 M-19.6 30.0 L-21.9 30.7 -21.9 -8.55 Q-21.2 -8.15 -20.25 -8.55 L-20.25 -8.3 -20.1 -7.8 -19.95 -7.65 -19.95 4.3 -19.7 5.1 -19.7 28.55 -19.6 28.75 -19.6 30.0" fill="#4a361c" fill-rule="evenodd" stroke="none"/>
    <path d="M12.1 1.05 Q13.65 1.1 15.6 1.65 L15.95 1.7 Q15.1 1.9 14.35 2.4 L13.55 2.95 9.4 1.25 12.1 1.05 M6.25 3.05 L5.25 4.6 2.7 3.8 -3.1 2.2 -9.85 0.5 -10.45 0.3 -16.6 -0.9 -16.6 -2.3 -10.45 -1.45 -9.85 -1.35 -8.4 -1.0 2.7 1.3 4.25 1.6 4.45 2.55 4.75 2.55 4.75 1.65 7.0 2.15 6.25 3.05" fill="#1a1c23" fill-rule="evenodd" stroke="none"/>
    <path d="M15.3 17.85 Q11.25 19.0 7.45 17.85 L7.2 17.7 Q2.3 11.7 4.5 6.1 2.3 11.7 7.2 17.7 L2.7 18.75 -8.55 21.2 -9.85 21.45 -10.25 21.5 -16.6 22.35 -16.6 9.95 -16.55 9.95 -16.6 9.7 -16.6 0.75 -10.45 2.05 -9.85 2.2 -3.1 3.9 2.7 5.55 4.5 6.1 5.25 4.6 6.25 3.05 12.4 4.2 Q10.55 6.6 10.55 9.85 10.55 12.75 12.0 15.0 L12.5 15.7 13.3 16.55 Q14.2 17.45 15.3 17.85 M16.15 4.1 Q17.55 4.2 18.55 5.75 19.7 7.4 19.7 9.8 19.7 12.2 18.55 13.95 17.45 15.65 15.85 15.65 14.55 15.65 13.55 14.45 L13.15 13.95 12.85 13.45 Q12.0 11.85 12.0 9.8 12.0 7.4 13.15 5.75 L14.2 4.6 Q14.95 4.05 15.85 4.05 L16.15 4.1" fill="#0f1015" fill-rule="evenodd" stroke="none"/>
    <path d="M15.95 1.7 L16.0 1.75 Q18.3 2.2 20.05 4.15 22.15 6.4 22.15 9.65 L22.1 10.25 Q21.95 13.1 20.05 15.2 18.55 16.85 16.65 17.45 L16.6 17.45 15.3 17.85 Q14.2 17.45 13.3 16.55 L12.5 15.7 12.0 15.0 Q10.55 12.75 10.55 9.85 10.55 6.6 12.4 4.2 L6.25 3.05 7.0 2.15 7.45 1.9 8.0 1.65 9.4 1.25 13.55 2.95 14.35 2.4 Q15.1 1.9 15.95 1.7 M16.15 4.1 L15.85 4.05 Q14.95 4.05 14.2 4.6 L13.15 5.75 Q12.0 7.4 12.0 9.8 12.0 11.85 12.85 13.45 L13.15 13.95 13.55 14.45 Q14.55 15.65 15.85 15.65 17.45 15.65 18.55 13.95 19.7 12.2 19.7 9.8 19.7 7.4 18.55 5.75 17.55 4.2 16.15 4.1 M-16.6 -0.9 L-10.45 0.3 -9.85 0.5 -3.1 2.2 2.7 3.8 5.25 4.6 4.5 6.1 2.7 5.55 -3.1 3.9 -9.85 2.2 -10.45 2.05 -16.6 0.75 -16.6 -0.9" fill="#7e7f8c" fill-rule="evenodd" stroke="none"/>
    <path d="M-17.35 -5.55 L2.7 -5.9 2.7 1.3 -8.4 -1.0 -9.85 -1.35 -10.45 -1.45 -16.6 -2.3 -16.6 -0.9 -16.6 0.75 -16.6 9.7 -17.35 7.0 -17.35 -5.55 M2.7 18.75 L2.7 19.25 -17.35 25.25 -17.35 7.9 -17.15 9.95 -16.6 9.95 -16.6 22.35 -10.25 21.5 -9.85 21.45 -8.55 21.2 2.7 18.75" fill="#000000" fill-rule="evenodd" stroke="none"/>
    <path d="M2.7 -5.9 L4.15 -7.0 7.45 -9.25 21.05 -19.2 M7.45 -9.25 L7.45 -0.05 12.1 1.05 M7.45 17.85 L7.45 21.25 -19.25 29.85 M-19.6 30.0 L-21.9 30.7 -21.9 -8.55 Q-21.2 -8.15 -20.25 -8.55 M-19.85 -8.65 L-18.55 -8.75 -1.3 -23.25 18.5 -22.25 21.05 -19.2 M7.45 1.9 L7.45 -0.05 M2.7 18.75 L2.7 19.25 -17.35 25.25 M-17.35 -5.55 L-19.3 -8.1 -18.55 -8.75" fill="none" stroke="#412709" stroke-linecap="round" stroke-linejoin="round" stroke-width="1.5"/>
    <path d="M12.1 1.05 Q13.65 1.1 15.6 1.65 L15.95 1.7 16.0 1.75 Q18.3 2.2 20.05 4.15 22.15 6.4 22.15 9.65 L22.1 10.25 Q21.95 13.1 20.05 15.2 18.55 16.85 16.65 17.45 L16.6 17.45 15.3 17.85 Q11.25 19.0 7.45 17.85 M7.0 2.15 L7.45 1.9 8.0 1.65 9.4 1.25 12.1 1.05 M5.25 4.6 L6.25 3.05 7.0 2.15 4.75 1.65 M4.25 1.6 L2.7 1.3 -8.4 -1.0 -9.85 -1.35 -10.45 -1.45 -16.6 -2.3 M5.25 4.6 L4.5 6.1 Q2.3 11.7 7.2 17.7 L7.45 17.85 M7.2 17.7 L2.7 18.75 -8.55 21.2 -9.85 21.45 -10.25 21.5 -16.6 22.35" fill="none" stroke="#000000" stroke-linecap="round" stroke-linejoin="round" stroke-width="1.0"/>
  </g>
</svg>
