<?xml version="1.0" encoding="UTF-8" standalone="no"?>
<svg xmlns:xlink="http://www.w3.org/1999/xlink" height="39.75px" width="39.6px" xmlns="http://www.w3.org/2000/svg">
  <g transform="matrix(1.0, 0.0, 0.0, 1.0, 31.1, 22.05)">
    <path d="M8.5 10.35 Q8.5 12.85 8.1 14.55 L7.3 16.4 Q6.6 17.15 5.35 17.4 L0.5 17.7 -4.25 17.4 Q-5.5 17.15 -6.2 16.4 -6.7 15.9 -7.0 14.55 -7.45 12.85 -7.4 10.35 L-7.35 10.35 Q-7.45 2.25 -6.5 -5.8 -4.6 -22.05 0.5 -22.05 5.65 -22.05 7.6 -5.8 8.55 2.25 8.5 10.35" fill="#1c1c1c" fill-rule="evenodd" stroke="none"/>
    <path d="M1.7 -0.65 L-18.1 -4.55 -27.85 -5.85 Q-29.25 -5.3 -29.85 -2.0 -30.5 1.15 -29.55 2.1 -28.7 3.0 -0.2 9.1 L0.05 9.15 2.15 -0.6 1.7 -0.65 Z" fill="none" stroke="#1c1c1c" stroke-linecap="round" stroke-linejoin="round" stroke-width="2.0"/>
    <path d="M-27.85 -5.85 Q-29.25 -5.3 -29.85 -2.0 -30.5 1.15 -29.55 2.1 -28.7 3.0 -0.2 9.1 L0.05 9.15 2.15 -0.6 1.7 -0.65 -18.1 -4.55 -27.85 -5.85" fill="#383838" fill-rule="evenodd" stroke="none"/>
    <path d="M-29.85 -2.0 Q-30.3 0.2 -29.95 1.4 L0.0 8.15 0.25 8.2 2.15 -0.6 1.7 -0.65 -18.1 -4.55 -27.85 -5.85 Q-29.2 -5.25 -29.85 -2.0" fill="#5f5f5f" fill-rule="evenodd" stroke="none"/>
    <path d="M-26.2 -4.55 Q-24.8 -5.3 -23.15 -4.95 -21.55 -4.6 -20.55 -3.35 -19.6 -2.1 -19.95 -0.65 -20.25 0.8 -21.6 1.55 -23.0 2.35 -24.6 2.0 -26.25 1.65 -27.25 0.35 -28.2 -0.9 -27.9 -2.35 -27.55 -3.8 -26.2 -4.55" fill="#339fff" fill-rule="evenodd" stroke="none"/>
    <path d="M-25.2 -3.25 L-23.45 -3.45 Q-22.5 -3.25 -21.95 -2.55 -21.4 -1.85 -21.55 -1.0 -21.75 -0.15 -22.55 0.3 L-24.3 0.55 Q-25.25 0.35 -25.8 -0.4 -26.35 -1.1 -26.15 -1.95 -26.0 -2.8 -25.2 -3.25" fill="#f73600" fill-rule="evenodd" stroke="none"/>
  </g>
</svg>
