<?xml version="1.0" encoding="UTF-8" standalone="no"?>
<svg xmlns:xlink="http://www.w3.org/1999/xlink" height="56.75px" width="47.85px" xmlns="http://www.w3.org/2000/svg">
  <g transform="matrix(1.0, 0.0, 0.0, 1.0, -6.15, -2.15)">
    <path d="M17.95 14.25 L36.15 42.75 43.65 42.75 46.55 47.3 39.05 47.3 46.45 58.9 39.7 58.9 32.3 47.3 8.75 47.3 6.15 43.2 13.45 14.25 17.95 14.25 M9.9 42.75 L29.4 42.75 15.55 21.05 9.9 42.75" fill="#000000" fill-opacity="0.14901961" fill-rule="evenodd" stroke="none"/>
    <path d="M46.5 2.15 L46.5 38.4 54.0 38.4 54.0 44.2 46.5 44.2 46.5 58.9 39.75 58.9 39.75 44.2 16.2 44.2 16.2 38.95 42.0 2.15 46.5 2.15 M39.75 38.4 L39.75 10.8 20.25 38.4 39.75 38.4" fill="#000000" fill-rule="evenodd" stroke="none"/>
  </g>
</svg>
