<?xml version="1.0" encoding="UTF-8" standalone="no"?>
<svg xmlns:xlink="http://www.w3.org/1999/xlink" height="75.2px" width="49.7px" xmlns="http://www.w3.org/2000/svg">
  <g transform="matrix(1.0, 0.0, 0.0, 1.0, 0.4, 14.35)">
    <path d="M47.0 2.8 Q47.55 2.75 47.55 3.2 L47.55 3.35 47.65 3.45 47.95 3.5 48.0 3.65 Q48.65 3.65 48.65 4.45 48.75 5.45 47.95 5.45 L47.9 5.45 47.85 5.9 Q48.4 5.9 48.4 6.4 L48.25 6.8 47.9 7.0 47.95 7.6 Q48.35 7.75 48.35 8.15 L48.35 8.2 Q48.75 8.1 48.75 8.5 48.75 8.95 48.35 9.0 L48.05 8.85 48.1 9.2 Q48.2 9.05 48.45 9.0 48.95 9.0 48.95 9.45 L48.8 9.8 48.35 10.05 48.1 9.95 48.05 10.45 Q48.6 10.3 48.6 10.9 L48.4 11.6 48.3 11.75 Q48.65 11.7 48.65 12.1 L48.5 12.35 48.2 12.5 Q47.9 12.5 47.8 12.25 L47.8 12.15 47.6 13.75 47.7 14.5 Q47.8 14.2 48.15 14.25 48.65 14.3 48.65 14.8 48.65 15.3 48.2 15.3 L48.0 15.3 48.2 15.75 48.55 15.65 Q49.3 15.65 49.3 16.6 49.3 17.7 48.35 17.7 L48.2 17.7 47.9 18.3 47.8 18.55 47.95 19.0 Q47.95 20.05 47.25 20.05 L47.25 20.15 47.45 20.1 Q48.05 20.05 48.05 20.6 48.05 20.95 47.45 21.25 L47.5 21.5 47.3 21.95 47.35 21.95 47.55 22.25 47.5 22.45 47.65 22.95 Q48.2 23.2 48.2 23.85 48.2 24.75 47.25 24.75 L47.0 24.7 47.0 24.75 47.1 25.05 46.9 25.45 46.5 25.6 46.1 25.45 45.8 25.65 45.75 25.65 45.75 25.95 Q45.75 26.3 45.25 26.3 L44.8 26.0 44.8 25.85 44.5 25.9 44.25 26.25 43.65 26.45 Q43.15 26.45 42.85 26.05 L42.7 25.65 42.6 25.65 42.6 25.85 Q42.6 26.7 41.7 26.7 41.2 26.7 41.05 26.45 L40.85 26.5 Q40.85 26.85 40.4 26.85 39.95 26.85 39.9 26.6 L39.85 26.6 39.8 26.75 39.95 26.85 39.55 27.2 39.2 27.15 39.2 27.1 38.75 27.3 38.45 27.25 38.25 27.65 38.0 27.9 38.05 27.95 38.1 28.1 38.0 28.25 38.15 28.25 Q38.95 28.4 38.95 29.1 38.95 29.75 38.15 29.75 L37.7 29.7 37.65 29.9 37.3 30.0 Q37.05 30.0 36.95 29.75 L36.95 29.7 36.75 30.05 36.1 30.4 35.9 30.4 35.65 30.5 35.1 30.75 35.0 30.75 34.9 30.75 34.55 30.7 34.5 30.4 34.55 30.15 34.65 30.15 34.7 29.95 34.65 29.95 34.25 30.0 33.9 29.95 33.85 29.7 33.95 29.55 33.9 29.45 34.0 28.75 33.95 28.75 33.75 29.2 33.85 29.55 33.8 29.95 Q34.55 30.4 34.55 31.1 L34.55 31.25 35.05 31.35 35.1 31.6 35.05 31.9 34.65 31.95 34.1 31.9 34.05 31.7 34.0 31.7 Q33.65 31.7 33.2 30.75 L33.05 31.05 33.2 31.3 33.05 31.7 32.85 31.8 Q32.55 31.8 32.45 31.6 L32.4 31.35 32.45 31.25 Q32.0 31.15 31.95 30.65 L31.55 30.2 31.4 30.2 31.3 30.2 31.15 30.75 Q30.85 31.75 30.35 31.75 29.35 31.75 28.9 31.2 L28.65 30.5 Q28.65 30.1 29.3 30.1 L29.1 29.35 28.95 29.05 28.65 29.1 Q28.45 29.1 28.2 28.75 L28.0 28.4 28.0 28.35 27.6 28.15 Q27.25 27.95 27.25 27.65 L27.3 27.4 26.8 27.6 26.45 27.55 26.35 27.35 Q25.9 27.35 25.9 26.9 25.9 26.6 26.1 26.6 L25.85 26.6 25.8 26.6 25.3 26.85 Q24.75 26.85 24.45 25.75 L24.15 25.8 24.05 25.8 23.65 25.95 23.2 25.7 23.15 25.45 23.15 25.35 22.65 25.35 Q23.05 25.45 23.05 25.85 23.05 26.35 22.5 26.35 22.05 26.35 21.95 26.05 L21.95 26.0 21.8 26.0 21.55 26.0 21.55 26.1 21.5 26.25 21.25 26.3 21.0 26.2 20.95 26.05 21.05 25.85 Q20.75 25.65 20.75 25.3 L20.1 25.3 Q20.4 25.35 20.4 25.75 20.4 26.2 20.0 26.2 19.65 26.2 19.55 26.0 L19.5 25.75 Q19.5 25.3 19.95 25.3 L19.2 25.3 18.7 25.05 Q18.7 25.45 18.25 25.45 17.7 25.45 17.7 25.05 17.7 24.75 17.85 24.65 L17.5 24.35 17.45 24.1 Q17.45 23.75 17.85 23.65 L17.8 23.35 17.35 22.95 17.3 22.5 Q17.3 22.0 17.9 21.9 L17.9 21.35 17.75 21.35 Q17.2 21.35 17.1 21.1 L17.1 20.85 Q17.1 20.35 17.7 20.3 L17.5 20.3 17.4 20.3 17.3 20.4 16.75 20.6 16.6 20.6 16.6 20.7 16.3 20.9 16.0 20.55 Q16.0 20.45 16.35 20.4 L16.3 20.4 16.25 20.15 Q16.25 19.75 16.85 19.65 L17.0 19.65 17.1 19.4 16.7 19.55 16.35 19.45 16.3 19.2 16.35 18.85 Q16.95 18.85 17.1 19.35 L17.2 19.3 17.15 19.2 17.1 18.95 17.2 18.65 16.95 18.35 16.9 18.15 17.1 17.75 17.1 17.45 Q17.1 17.0 17.6 16.95 L17.6 16.6 17.6 16.15 17.2 15.8 17.15 15.55 Q17.15 15.15 17.6 15.1 L17.6 14.35 17.7 13.5 17.45 13.25 17.45 13.15 17.2 12.95 17.15 12.65 Q17.15 12.1 17.85 12.1 L18.0 12.1 18.0 12.0 18.0 10.85 17.95 10.8 17.9 10.85 17.5 11.0 17.1 10.95 17.05 10.65 17.1 10.35 17.8 10.55 17.8 10.35 18.0 10.0 18.0 9.15 17.65 8.85 17.45 8.45 Q17.45 7.85 18.0 7.65 L18.0 7.05 18.25 6.2 18.05 6.2 17.85 6.15 17.8 6.2 17.5 6.3 Q17.0 6.3 17.0 5.85 L17.05 5.55 Q17.7 5.35 17.85 5.75 L18.15 5.75 18.1 5.65 18.3 5.4 18.3 5.15 17.85 4.85 17.8 4.6 Q17.8 4.15 18.15 4.1 L18.1 3.8 18.3 2.9 18.05 2.7 18.0 2.4 Q18.0 1.8 18.7 1.75 L18.9 1.75 18.95 1.8 Q19.15 1.45 20.0 1.6 L20.9 1.8 21.3 1.7 21.85 1.8 22.3 1.6 22.85 1.75 23.45 1.9 23.5 2.0 24.75 2.0 25.65 1.9 25.7 2.0 26.35 2.1 Q26.45 1.6 27.15 1.4 27.95 1.25 27.95 1.85 L27.8 2.25 28.15 2.3 28.35 2.3 Q28.35 1.75 29.4 1.65 30.35 1.55 30.4 2.2 L32.15 2.1 31.9 1.7 Q31.9 1.05 32.75 1.25 33.6 1.35 33.6 2.0 L33.95 1.75 35.1 1.65 35.15 1.8 35.15 1.9 35.85 1.85 Q35.85 1.6 36.15 1.5 36.5 1.4 36.8 1.85 L37.45 1.95 Q37.5 1.65 37.9 1.75 38.25 1.85 38.35 2.05 L39.75 2.25 Q39.75 1.75 40.45 1.85 41.15 2.05 41.15 2.4 L41.15 2.45 42.1 2.55 Q42.15 2.0 43.15 2.1 44.15 2.15 44.2 2.8 L44.75 2.8 Q44.8 2.5 45.45 2.5 46.25 2.5 46.15 2.95 L46.55 3.0 Q46.65 2.8 47.0 2.8 M48.1 14.1 L47.7 13.95 47.7 13.45 Q47.9 13.15 48.25 13.2 48.55 13.25 48.55 13.65 L48.1 14.1 M16.4 3.5 Q16.4 3.0 17.2 3.25 L17.25 3.35 17.5 3.3 Q18.0 3.25 18.0 3.7 L17.85 4.0 17.6 4.15 Q17.1 4.15 17.0 3.85 L16.8 3.85 16.45 3.8 16.4 3.5 M17.7 9.2 Q17.7 9.7 17.25 9.7 L16.9 9.55 16.85 9.2 Q16.85 8.75 17.3 8.8 17.7 8.8 17.7 9.2 M16.9 15.4 L16.5 15.15 16.45 14.75 16.9 14.7 17.25 15.1 16.9 15.4 M15.65 19.2 Q15.85 19.0 16.2 19.2 L16.3 19.45 16.2 19.75 15.9 19.8 15.55 19.45 15.65 19.2 M17.05 24.0 Q17.45 24.0 17.45 24.55 L17.4 24.9 17.05 25.0 Q16.65 25.0 16.6 24.8 L16.6 24.55 Q16.6 24.0 17.05 24.0 M39.1 26.25 L39.2 26.25 39.2 26.2 39.1 26.25 M39.6 27.75 Q39.7 27.55 40.1 27.6 40.7 27.65 40.7 28.1 40.7 28.65 40.15 28.65 L39.8 28.6 39.45 28.7 Q39.0 28.7 38.95 28.45 L38.95 28.2 Q38.95 27.8 39.4 27.75 L39.6 27.75 M37.0 29.25 L37.0 29.35 Q37.1 29.2 37.3 29.2 L37.35 29.2 37.3 29.0 37.35 28.65 37.15 28.65 37.1 28.65 37.0 29.25 M37.5 30.85 L37.55 31.15 37.5 31.45 37.2 31.5 36.85 31.15 36.9 30.85 37.5 30.85 M38.9 30.05 Q39.25 30.15 39.25 30.55 L38.9 30.95 38.7 30.95 Q38.35 30.95 38.25 30.75 L38.2 30.6 Q38.2 29.95 38.75 30.0 L38.9 30.05 M40.05 30.85 L39.65 30.8 39.6 30.55 Q39.6 30.0 40.1 30.1 L40.45 30.15 40.55 30.4 40.3 30.75 40.1 30.85 40.05 30.85 M32.95 27.65 L32.8 27.7 32.8 27.75 32.95 27.75 32.95 27.65 M35.35 25.75 L35.35 25.65 35.15 25.65 35.35 25.75 M30.65 28.75 L30.75 28.85 30.7 28.7 30.65 28.75 M35.15 31.1 L35.25 30.8 Q35.45 30.65 35.8 30.8 L35.9 31.1 35.9 31.25 36.0 31.25 36.35 31.55 36.0 31.8 35.65 31.6 35.7 31.4 35.55 31.4 35.55 31.5 35.15 31.6 35.1 31.2 35.25 31.2 35.15 31.1 M35.35 32.8 L35.9 32.8 36.0 32.85 36.0 33.05 35.6 33.2 35.35 33.05 35.35 32.8 M32.3 31.8 L32.15 32.05 32.3 32.1 Q32.9 32.3 32.9 32.7 32.9 33.2 32.5 33.2 L31.8 32.8 31.65 32.4 Q31.35 32.3 31.35 32.0 31.35 31.7 31.5 31.65 L32.2 31.65 32.3 31.8 M30.45 33.65 Q30.45 33.5 31.0 33.3 31.5 33.05 31.5 33.5 L31.25 33.9 30.9 34.05 Q30.55 34.05 30.45 33.85 L30.45 33.65 M38.15 33.35 L37.95 33.35 37.65 32.95 Q37.65 32.8 37.95 32.6 L38.3 32.95 38.15 33.35 M36.6 32.8 Q36.6 32.35 37.4 32.6 L37.5 32.85 37.1 33.2 36.65 33.15 36.6 32.8 M37.4 34.5 L37.0 34.55 36.9 34.3 36.95 34.1 37.2 34.05 37.5 34.3 37.4 34.5 M36.85 35.4 L36.6 35.15 36.85 34.9 37.15 35.05 37.2 35.2 Q37.1 35.4 36.85 35.4 M28.95 26.35 L28.9 26.25 28.85 26.3 28.9 26.35 28.95 26.35 M29.05 25.85 L29.2 25.8 29.05 25.75 29.05 25.85 M26.6 25.95 L26.6 26.05 26.7 25.95 26.6 25.95 M25.95 27.8 L25.65 28.0 25.4 28.05 25.05 28.0 25.0 27.7 Q25.0 27.25 26.05 27.35 L26.15 27.65 25.95 27.8 M27.7 28.65 L28.4 29.1 28.3 29.3 27.9 29.45 27.55 29.3 27.25 29.35 26.9 29.3 26.85 29.0 26.9 28.65 27.7 28.65 M26.05 28.95 L25.65 28.7 25.6 28.45 Q25.6 28.0 26.1 28.0 26.55 28.0 26.55 28.45 26.55 28.95 26.05 28.95 M27.6 30.0 L27.75 29.9 28.3 29.45 Q28.85 29.15 28.85 29.65 L28.65 30.2 28.15 30.6 27.85 30.55 27.65 30.55 27.4 30.5 27.3 30.25 Q27.3 30.15 27.6 30.0 M23.6 26.6 Q24.5 26.6 24.5 26.9 24.5 27.35 24.1 27.35 23.55 27.35 23.55 26.9 L23.6 26.6 M20.75 26.2 L20.95 26.5 20.55 26.8 20.25 26.5 20.3 26.2 20.75 26.2 M28.45 31.3 Q29.05 31.3 29.05 31.85 29.05 32.35 28.45 32.35 28.0 32.35 27.9 32.05 L27.85 31.8 Q27.85 31.3 28.45 31.3 M28.65 33.45 L29.1 33.45 29.25 33.75 29.2 33.9 28.9 34.05 28.6 33.75 28.65 33.45 M33.5 49.0 Q33.8 48.85 34.25 49.0 L34.35 49.15 34.4 49.55 34.4 49.65 34.5 49.65 34.8 50.1 34.2 50.7 33.7 50.25 33.35 50.55 32.9 50.3 33.4 49.85 33.25 49.75 32.7 49.9 Q32.1 49.9 31.95 49.55 L31.9 49.15 Q31.9 48.3 32.7 48.3 33.45 48.3 33.5 49.0 M38.25 51.5 L37.55 50.75 Q37.55 50.45 37.8 50.25 38.15 49.95 38.8 50.25 L38.95 50.75 38.85 51.35 38.25 51.5 M36.05 50.15 L35.8 50.65 35.35 50.5 35.3 50.25 35.05 50.1 35.25 49.9 35.35 49.95 35.5 49.75 35.7 49.75 36.05 50.15 M37.6 55.3 L38.05 55.75 37.6 56.3 37.3 56.15 37.2 55.7 Q37.2 55.4 37.4 55.35 L37.6 55.3 M36.0 54.6 L35.9 54.7 Q36.85 54.75 36.85 55.5 36.85 56.25 35.5 56.25 34.5 56.25 34.2 55.85 L34.15 55.5 34.25 55.2 34.2 55.2 34.05 55.25 33.45 54.65 33.65 54.2 33.6 54.15 33.35 54.25 32.7 53.65 32.8 53.0 Q33.45 52.7 33.9 53.15 34.1 52.95 34.45 52.85 L34.05 52.45 34.15 52.0 35.2 52.0 35.35 52.45 35.15 52.7 35.25 52.65 Q36.9 52.3 36.9 53.4 L36.0 54.6 M31.95 52.95 Q32.45 52.95 32.6 53.2 L32.1 53.45 31.95 52.95 M32.85 55.95 Q33.4 56.1 33.4 56.75 L33.25 57.15 34.0 57.85 33.85 58.3 Q33.75 58.6 33.1 58.6 L33.0 58.6 32.95 58.75 33.8 58.85 33.9 58.95 34.2 58.9 34.65 59.3 34.5 59.75 34.2 59.85 33.9 59.8 33.2 60.0 32.6 59.9 32.5 59.65 Q32.5 60.45 31.75 60.45 L31.15 60.3 Q31.05 60.35 31.05 59.85 L31.05 59.75 31.0 60.0 Q30.85 60.25 30.35 60.25 L29.8 60.1 Q29.55 60.75 28.6 60.75 27.25 60.75 26.3 60.05 L26.25 59.8 Q26.65 59.15 28.25 58.75 29.1 58.5 29.55 58.75 29.65 58.25 30.15 58.25 30.25 58.1 30.45 58.05 L30.75 58.0 30.55 57.8 30.55 57.75 30.35 57.85 29.9 57.6 Q29.9 57.2 30.35 57.0 30.4 56.4 31.15 56.15 L31.05 55.85 30.55 56.2 30.2 56.1 30.1 55.7 30.15 55.55 29.7 55.1 29.75 54.7 30.7 54.7 30.85 55.35 31.0 55.6 31.1 55.2 31.35 55.15 31.4 55.05 31.05 54.75 Q31.05 54.4 31.45 54.3 31.85 54.15 32.05 54.3 L32.1 54.5 32.2 54.4 32.55 54.35 32.6 54.4 32.7 54.35 33.2 54.75 33.0 55.2 32.7 55.3 32.55 55.3 32.2 55.2 32.15 55.25 32.4 55.7 32.4 55.9 32.85 55.95 32.7 55.35 34.1 55.5 32.85 55.95 M34.55 57.65 Q34.55 57.25 35.25 56.95 L36.45 56.85 36.55 57.0 36.6 57.4 Q36.6 58.35 35.25 58.25 L34.55 57.65 M32.55 59.05 L32.45 59.05 32.4 59.15 32.5 59.55 32.5 59.4 32.6 59.05 32.55 59.05 M31.2 59.15 L31.05 59.1 31.0 59.35 31.1 59.5 Q31.15 59.25 31.35 59.15 L31.3 59.1 31.2 59.15 M33.75 60.25 L33.7 60.7 33.35 60.85 32.9 60.6 Q33.25 60.05 33.65 60.05 L33.7 59.95 33.75 60.25 M40.0 55.75 L40.05 55.4 40.65 55.45 40.75 55.8 40.65 55.95 41.35 55.95 41.5 56.35 41.3 56.65 Q42.0 56.9 42.0 57.6 L41.95 57.95 42.4 58.0 42.7 58.5 42.6 58.85 42.3 59.0 42.3 59.1 Q42.3 60.0 41.45 60.0 L40.7 59.55 40.65 59.35 40.15 59.55 39.75 59.3 40.15 58.7 40.6 58.9 40.7 58.7 40.55 58.45 40.55 58.4 40.35 58.0 40.3 57.85 39.65 57.95 39.25 57.85 39.1 57.75 39.05 57.35 Q39.05 56.95 39.85 56.65 L40.4 56.55 40.35 56.3 40.4 56.1 40.1 56.1 40.0 55.75 M39.4 56.0 L39.45 56.3 39.35 56.75 38.9 56.9 38.5 56.85 38.3 56.65 38.25 56.4 Q38.95 55.8 39.3 55.95 L39.4 56.0 M39.15 57.95 L39.3 58.3 38.9 58.7 38.45 58.45 39.15 57.95 M37.6 58.15 L37.25 58.45 36.95 58.45 36.85 58.1 36.9 57.75 37.5 57.8 37.6 58.15 M28.95 55.95 L29.1 56.75 29.05 57.15 28.65 57.3 Q28.1 57.3 27.95 56.9 L27.9 56.45 Q27.9 56.05 28.15 55.95 L28.95 55.95 M44.45 59.65 L43.8 59.9 43.1 59.65 43.0 59.15 Q43.0 58.65 43.45 58.45 43.95 58.2 44.55 59.15 L44.45 59.65" fill="#d3ab56" fill-rule="evenodd" stroke="none"/>
    <path d="M8.05 -14.0 L8.15 -14.1 8.2 -14.1 Q9.15 -13.45 9.1 -12.35 L9.05 -10.3 8.95 -8.4 8.9 -7.0 9.4 -8.45 10.15 -10.15 11.3 -11.8 Q11.65 -12.3 12.25 -12.4 12.65 -11.75 12.55 -10.85 L11.95 -9.2 11.25 -7.5 10.8 -6.4 12.1 -8.0 13.6 -9.8 Q14.65 -10.95 16.45 -11.15 16.55 -10.4 15.95 -9.75 L14.85 -8.3 13.7 -6.85 13.25 -6.3 15.0 -7.45 17.6 -8.8 18.75 -8.85 Q19.3 -8.15 18.6 -7.6 L16.85 -6.3 15.0 -4.9 16.65 -5.6 19.05 -6.3 19.55 -6.3 Q19.65 -5.65 19.0 -5.05 18.0 -4.3 16.8 -3.85 L14.8 -3.05 16.9 -3.7 19.75 -3.75 Q19.6 -3.15 18.75 -2.7 17.45 -1.95 15.7 -1.65 L14.5 -1.4 16.45 -1.05 Q17.35 -0.85 17.9 -0.25 L18.0 0.0 14.05 -0.1 12.7 -0.35 13.25 0.3 13.6 1.15 13.8 1.9 13.85 2.4 Q12.75 2.4 11.9 1.7 L10.7 0.4 10.05 -0.5 9.65 0.45 9.05 1.6 8.2 2.65 7.5 2.7 7.3 2.0 7.55 1.15 7.9 0.35 8.1 -0.35 7.3 0.4 6.05 1.45 Q5.35 1.8 4.75 2.25 L4.7 2.25 4.65 2.3 4.35 2.3 4.25 2.25 4.1 2.05 4.15 1.9 4.15 1.7 4.2 1.5 4.25 1.3 4.85 0.7 5.55 -0.15 6.25 -1.0 6.45 -1.2 4.75 -0.3 2.25 0.85 1.45 0.95 Q1.15 0.4 1.85 0.0 L3.55 -1.1 5.2 -1.8 1.05 -1.4 Q0.65 -1.4 0.65 -1.7 0.55 -1.95 0.95 -2.0 L1.95 -2.3 2.55 -2.5 1.25 -2.75 0.55 -3.0 0.5 -3.05 0.5 -3.4 2.1 -3.25 Q2.7 -3.1 3.0 -3.25 L1.75 -4.3 0.65 -5.5 -0.15 -6.6 -0.15 -6.9 -0.15 -7.0 -0.05 -7.0 0.05 -7.0 0.3 -7.0 1.4 -6.1 2.65 -5.05 3.8 -3.9 2.6 -5.7 1.5 -7.75 0.7 -9.8 Q0.55 -10.3 0.7 -10.85 1.6 -10.3 2.2 -9.3 L3.3 -7.45 4.4 -5.6 4.8 -5.05 4.1 -7.15 3.45 -9.45 3.15 -11.75 Q3.05 -12.55 3.25 -13.35 4.35 -12.65 4.7 -11.4 L5.35 -9.15 6.1 -6.8 6.55 -5.55 6.55 -7.7 Q6.5 -8.85 6.7 -10.0 L7.2 -12.35 7.95 -14.0 8.05 -14.0 M14.7 -4.65 L14.6 -4.6 14.5 -4.55 14.65 -4.6 14.7 -4.65 14.75 -4.75 14.8 -4.8 14.75 -4.8 14.7 -4.65" fill="#00a629" fill-rule="evenodd" stroke="none"/>
    <path d="M8.05 -14.0 L8.15 -14.1 8.2 -14.1 Q9.15 -13.45 9.1 -12.35 L9.05 -10.3 8.95 -8.4 8.9 -7.0 9.4 -8.45 10.15 -10.15 11.3 -11.8 Q11.65 -12.3 12.25 -12.4 12.65 -11.75 12.55 -10.85 L11.95 -9.2 11.25 -7.5 10.8 -6.4 12.1 -8.0 13.6 -9.8 Q14.65 -10.95 16.45 -11.15 16.55 -10.4 15.95 -9.75 L14.85 -8.3 13.7 -6.85 13.25 -6.3 15.0 -7.45 17.6 -8.8 18.75 -8.85 Q19.3 -8.15 18.6 -7.6 L16.85 -6.3 15.0 -4.9 16.65 -5.6 19.05 -6.3 19.55 -6.3 Q19.65 -5.65 19.0 -5.05 18.0 -4.3 16.8 -3.85 L14.8 -3.05 16.9 -3.7 19.75 -3.75 Q19.6 -3.15 18.75 -2.7 17.45 -1.95 15.7 -1.65 L14.5 -1.4 16.45 -1.05 Q17.35 -0.85 17.9 -0.25 L18.0 0.0 14.05 -0.1 12.7 -0.35 13.25 0.3 13.6 1.15 13.8 1.9 13.85 2.4 Q12.75 2.4 11.9 1.7 L10.7 0.4 10.05 -0.5 9.65 0.45 9.05 1.6 8.2 2.65 7.5 2.7 7.3 2.0 7.55 1.15 7.9 0.35 8.1 -0.35 7.3 0.4 6.05 1.45 Q5.35 1.8 4.75 2.25 L4.7 2.25 4.65 2.3 4.35 2.3 4.25 2.25 4.1 2.05 4.15 1.9 4.15 1.7 4.2 1.5 4.25 1.3 4.85 0.7 5.55 -0.15 6.25 -1.0 6.45 -1.2 4.75 -0.3 2.25 0.85 1.45 0.95 Q1.15 0.4 1.85 0.0 L3.55 -1.1 5.2 -1.8 1.05 -1.4 Q0.65 -1.4 0.65 -1.7 0.55 -1.95 0.95 -2.0 L1.95 -2.3 2.55 -2.5 1.25 -2.75 0.55 -3.0 0.5 -3.05 0.5 -3.4 2.1 -3.25 Q2.7 -3.1 3.0 -3.25 L1.75 -4.3 0.65 -5.5 -0.15 -6.6 -0.15 -6.9 -0.15 -7.0 -0.05 -7.0 0.05 -7.0 0.3 -7.0 1.4 -6.1 2.65 -5.05 3.8 -3.9 2.6 -5.7 1.5 -7.75 0.7 -9.8 Q0.55 -10.3 0.7 -10.85 1.6 -10.3 2.2 -9.3 L3.3 -7.45 4.4 -5.6 4.8 -5.05 4.1 -7.15 3.45 -9.45 3.15 -11.75 Q3.05 -12.55 3.25 -13.35 4.35 -12.65 4.7 -11.4 L5.35 -9.15 6.1 -6.8 6.55 -5.55 6.55 -7.7 Q6.5 -8.85 6.7 -10.0 L7.2 -12.35 7.95 -14.0 8.05 -14.0 M14.7 -4.65 L14.6 -4.6 14.5 -4.55 14.65 -4.6 14.7 -4.65 14.75 -4.8 14.8 -4.8 14.75 -4.75 14.7 -4.65" fill="none" stroke="#008822" stroke-linecap="round" stroke-linejoin="round" stroke-width="0.5"/>
  </g>
</svg>
