<?xml version="1.0" encoding="UTF-8" standalone="no"?>
<svg xmlns:xlink="http://www.w3.org/1999/xlink" height="26.5px" width="33.65px" xmlns="http://www.w3.org/2000/svg">
  <g transform="matrix(1.0, 0.0, 0.0, 1.0, 0.0, -1.95)">
    <path d="M33.65 28.45 L23.7 28.4 14.95 28.35 6.4 28.25 0.0 28.2 0.65 1.95 32.9 1.95 33.65 28.45" fill="#674621" fill-rule="evenodd" stroke="none"/>
    <path d="M33.0 1.95 L33.65 28.45 25.7 28.4 25.45 1.95 33.0 1.95 M15.05 1.95 L14.75 28.35 7.55 28.25 7.45 1.95 15.05 1.95 M6.05 1.95 L6.15 28.25 0.0 28.2 0.7 1.95 6.05 1.95 M24.2 28.4 L16.1 28.35 16.45 1.95 23.8 1.95 24.2 28.4" fill="#8d602e" fill-rule="evenodd" stroke="none"/>
  </g>
</svg>
