<?xml version="1.0" encoding="UTF-8" standalone="no"?>
<svg xmlns:xlink="http://www.w3.org/1999/xlink" height="71.2px" width="74.4px" xmlns="http://www.w3.org/2000/svg">
  <g transform="matrix(1.0, 0.0, 0.0, 1.0, 2.5, 2.5)">
    <path d="M69.4 14.35 L65.05 18.95 69.15 25.75 68.95 49.4 67.4 53.15 68.9 55.75 68.9 65.5 3.1 66.2 0.0 55.1 4.8 50.9 0.95 46.6 0.7 26.8 3.6 20.3 0.5 13.4 0.45 0.0 68.6 0.2 69.4 14.35 Z" fill="none" stroke="#35220d" stroke-linecap="round" stroke-linejoin="round" stroke-width="5.0"/>
    <path d="M69.4 14.35 L65.05 18.95 69.15 25.75 68.95 49.4 67.4 53.15 68.9 55.75 68.9 65.5 3.1 66.2 0.0 55.1 4.8 50.9 0.95 46.6 0.7 26.8 3.6 20.3 0.5 13.4 0.45 0.0 68.6 0.2 69.4 14.35" fill="#5d3c16" fill-rule="evenodd" stroke="none"/>
    <path d="M67.15 16.75 L67.15 16.35 66.35 2.7 2.25 2.5 0.45 2.5 0.45 0.0 2.2 0.0 68.6 0.2 69.4 14.0 69.4 14.35 67.15 16.75 M66.65 63.3 L66.65 58.25 65.15 55.65 66.7 51.9 66.9 28.25 62.8 21.45 65.1 19.05 69.15 25.75 68.95 49.4 67.4 53.15 68.9 55.75 68.9 63.3 66.65 63.3" fill="#895721" fill-rule="evenodd" stroke="none"/>
    <path d="M2.25 2.5 L66.35 2.7 67.15 16.35 67.15 16.75 65.05 18.95 65.1 19.05 62.8 21.45 66.9 28.25 66.7 51.9 65.15 55.65 66.65 58.25 66.65 63.3 4.85 63.95 1.9 53.45 2.3 53.1 4.8 50.9 4.45 50.5 6.55 48.65 2.7 44.35 2.45 24.55 5.35 18.05 2.25 11.15 2.25 2.5" fill="#5d3c16" fill-rule="evenodd" stroke="none"/>
    <path d="M0.45 2.5 L2.25 2.5 2.25 11.15 5.35 18.05 2.45 24.55 2.7 44.35 6.55 48.65 4.45 50.5 0.95 46.6 0.7 26.8 3.6 20.3 0.5 13.4 0.45 2.5 M1.9 53.45 L4.85 63.95 66.65 63.3 68.9 63.3 68.9 65.5 66.65 65.55 3.1 66.2 0.15 55.55 0.0 55.1 1.9 53.45" fill="#513313" fill-rule="evenodd" stroke="none"/>
  </g>
</svg>
