<?xml version="1.0" encoding="UTF-8" standalone="no"?>
<svg xmlns:xlink="http://www.w3.org/1999/xlink" height="96.75px" width="62.95px" xmlns="http://www.w3.org/2000/svg">
  <g transform="matrix(1.0, 0.0, 0.0, 1.0, 13.5, -109.35)">
    <path d="M-0.2 167.4 L-8.2 139.95 Q-10.35 132.7 -6.8 126.1 -3.1 119.5 4.15 117.4 L13.6 114.6 Q20.85 112.5 27.4 116.15 34.05 119.8 36.2 127.05 L44.2 154.5 Q46.3 161.75 42.65 168.35 39.05 174.95 31.8 177.05 L22.35 179.85 Q15.1 181.95 8.45 178.3 1.9 174.65 -0.2 167.4" fill="#ffffff" fill-rule="evenodd" stroke="none"/>
    <path d="M-0.2 167.4 Q1.9 174.65 8.45 178.3 15.1 181.95 22.35 179.85 L31.8 177.05 Q39.05 174.95 42.65 168.35 46.3 161.75 44.2 154.5 L36.2 127.05 Q34.05 119.8 27.4 116.15 20.85 112.5 13.6 114.6 L4.15 117.4 Q-3.1 119.5 -6.8 126.1 -10.35 132.7 -8.2 139.95 L-0.2 167.4 Z" fill="none" stroke="#000000" stroke-linecap="round" stroke-linejoin="round" stroke-width="9.0"/>
    <path d="M25.55 151.8 L35.8 186.95 38.4 186.2 Q40.2 185.7 41.85 186.9 43.5 188.0 44.15 190.15 44.8 192.3 43.95 194.2 43.2 196.05 41.4 196.55 L24.7 201.4 Q22.95 201.95 21.3 200.8 19.65 199.65 19.0 197.5 18.35 195.35 19.2 193.5 19.95 191.6 21.7 191.05 L24.35 190.3 14.1 155.15 25.55 151.8" fill="#ffffff" fill-rule="evenodd" stroke="none"/>
    <path d="M25.55 151.8 L35.8 186.95 38.4 186.2 Q40.2 185.7 41.85 186.9 43.5 188.0 44.15 190.15 44.8 192.3 43.95 194.2 43.2 196.05 41.4 196.55 L24.7 201.4 Q22.95 201.95 21.3 200.8 19.65 199.65 19.0 197.5 18.35 195.35 19.2 193.5 19.95 191.6 21.7 191.05 L24.35 190.3 14.1 155.15 25.55 151.8 Z" fill="none" stroke="#000000" stroke-linecap="round" stroke-linejoin="round" stroke-width="9.0"/>
    <path d="M25.55 151.8 L36.2 188.35 24.75 191.7 14.1 155.15 25.55 151.8" fill="#1c1c1c" fill-rule="evenodd" stroke="none"/>
    <path d="M4.15 117.4 L13.6 114.6 Q20.85 112.5 27.4 116.15 34.05 119.8 36.2 127.05 L44.2 154.5 Q46.3 161.75 42.65 168.35 39.05 174.95 31.8 177.05 L22.35 179.85 Q15.1 181.95 8.45 178.3 1.9 174.65 -0.2 167.4 L-8.2 139.95 Q-10.35 132.7 -6.8 126.1 -3.1 119.5 4.15 117.4" fill="#ff912c" fill-rule="evenodd" stroke="none"/>
    <path d="M32.1 126.75 Q30.35 120.85 24.9 117.9 19.55 114.95 13.65 116.7 L5.95 118.9 Q0.05 120.65 -2.95 126.0 -5.9 131.4 -4.15 137.3 L2.35 159.7 Q4.1 165.6 9.45 168.55 14.9 171.55 20.8 169.8 L28.5 167.55 Q34.4 165.8 37.3 160.45 40.35 155.1 38.6 149.2 L32.1 126.75 M27.4 116.1 Q34.05 119.8 36.15 127.05 L44.15 154.5 Q46.25 161.75 42.65 168.3 39.0 174.95 31.8 177.1 L22.3 179.85 Q15.05 181.9 8.5 178.25 1.9 174.7 -0.2 167.45 L-8.25 139.95 Q-10.35 132.7 -6.75 126.05 -3.15 119.5 4.1 117.45 L13.6 114.7 Q20.85 112.55 27.4 116.1" fill="#d27620" fill-rule="evenodd" stroke="none"/>
    <path d="M44.55 155.8 Q46.0 162.3 42.65 168.35 39.05 174.95 31.8 177.05 L22.35 179.85 Q15.1 181.95 8.45 178.3 2.5 175.0 0.2 168.7 L44.55 155.8" fill="#434343" fill-rule="evenodd" stroke="none"/>
    <path d="M25.05 129.85 L37.15 130.3 38.35 134.45 38.75 134.45 26.3 134.0 25.05 129.85 M24.25 127.05 L23.05 122.9 34.65 123.3 Q35.6 125.05 36.2 127.05 L36.3 127.5 36.7 127.5 24.25 127.05 M28.25 140.8 L27.05 136.65 39.1 137.1 40.35 141.25 40.75 141.25 28.25 140.8" fill="#955010" fill-rule="evenodd" stroke="none"/>
    <path d="M-4.2 153.75 L-5.4 149.6 3.5 143.5 4.7 147.65 -4.6 154.1 -4.2 153.75 M1.45 136.55 L2.7 140.7 -6.6 147.1 -6.2 146.8 -7.4 142.65 1.45 136.55 M-0.5 129.75 L0.7 133.9 -8.6 140.3 -8.2 140.0 -8.2 139.95 Q-8.85 137.7 -8.95 135.65 L-0.5 129.75" fill="#955010" fill-rule="evenodd" stroke="none"/>
    <path d="M21.7 191.2 L38.4 186.35 Q40.15 185.8 41.85 186.95 43.5 188.15 44.15 190.25 44.75 192.4 43.95 194.3 43.15 196.15 41.4 196.7 L24.7 201.55 Q22.95 202.05 21.25 200.9 19.55 199.75 18.95 197.6 18.3 195.5 19.15 193.55 19.95 191.7 21.7 191.2" fill="#434343" fill-rule="evenodd" stroke="none"/>
    <path d="M4.15 117.4 L13.6 114.6 Q19.2 113.0 24.4 114.8 21.2 120.15 15.1 121.95 L6.75 124.35 Q0.5 126.2 -5.2 123.15 L-4.85 123.3 Q-1.45 119.0 4.15 117.4" fill="#955010" fill-rule="evenodd" stroke="none"/>
    <path d="M2.8 117.85 L4.85 124.85 2.5 125.05 0.65 118.75 2.8 117.85 M18.0 120.85 L16.05 114.15 18.35 113.9 20.05 119.6 18.0 120.85 M8.35 116.15 L10.55 115.5 12.6 122.65 10.4 123.3 8.35 116.15" fill="#ff912c" fill-rule="evenodd" stroke="none"/>
    <path d="M32.25 188.0 L36.15 186.85 39.15 197.2 35.25 198.35 32.25 188.0 M38.4 186.2 L40.15 186.15 42.95 195.65 Q42.3 196.3 41.4 196.55 L41.15 196.65 38.15 186.3 38.4 186.2" fill="#ffffff" fill-opacity="0.49803922" fill-rule="evenodd" stroke="none"/>
    <path d="M38.75 156.9 L38.6 157.55 44.5 155.8 Q45.95 162.35 42.65 168.3 39.0 174.95 31.8 177.1 L22.3 179.85 Q15.05 181.9 8.5 178.25 2.5 175.0 0.25 168.7 L6.85 166.8 Q8.0 167.8 9.45 168.55 14.9 171.55 20.8 169.8 L28.5 167.55 Q34.4 165.8 37.3 160.45 38.3 158.7 38.75 156.9" fill="#2e2e2e" fill-rule="evenodd" stroke="none"/>
  </g>
</svg>
