<?xml version="1.0" encoding="UTF-8" standalone="no"?>
<svg xmlns:xlink="http://www.w3.org/1999/xlink" height="41.05px" width="31.2px" xmlns="http://www.w3.org/2000/svg">
  <g transform="matrix(1.0, 0.0, 0.0, 1.0, 14.95, 20.35)">
    <path d="M-2.1 -16.35 L2.9 -15.7 10.55 -14.4 Q13.15 -13.8 11.8 -8.55 10.5 -3.35 8.1 -3.9 6.15 -4.35 0.8 -6.15 L-4.05 -7.85 -2.1 -16.35" fill="#bf7926" fill-rule="evenodd" stroke="none"/>
    <path d="M-2.1 -16.35 L2.9 -15.7 10.55 -14.4 Q13.15 -13.8 11.8 -8.55 10.5 -3.35 8.1 -3.9 6.15 -4.35 0.8 -6.15 L-4.05 -7.85 -2.1 -16.35 Z" fill="none" stroke="#3c190a" stroke-linecap="round" stroke-linejoin="round" stroke-width="8.0"/>
    <path d="M-3.35 -5.3 L1.65 -4.65 9.3 -3.35 Q11.9 -2.75 10.55 2.5 9.25 7.7 6.85 7.15 L-0.45 4.9 -5.3 3.2 -3.35 -5.3" fill="#bf7926" fill-rule="evenodd" stroke="none"/>
    <path d="M-3.35 -5.3 L1.65 -4.65 9.3 -3.35 Q11.9 -2.75 10.55 2.5 9.25 7.7 6.85 7.15 L-0.45 4.9 -5.3 3.2 -3.35 -5.3 Z" fill="none" stroke="#3c190a" stroke-linecap="round" stroke-linejoin="round" stroke-width="8.0"/>
    <path d="M-2.1 -16.35 L2.9 -15.7 10.55 -14.4 Q13.15 -13.8 11.8 -8.55 10.5 -3.35 8.1 -3.9 6.15 -4.35 0.8 -6.15 L-4.05 -7.85 -2.1 -16.35" fill="#bf7926" fill-rule="evenodd" stroke="none"/>
    <path d="M-9.0 4.2 L-4.0 4.85 3.65 6.15 Q6.25 6.75 4.9 12.0 3.6 17.2 1.2 16.65 L-6.1 14.4 -10.95 12.7 -9.0 4.2" fill="#bf7926" fill-rule="evenodd" stroke="none"/>
    <path d="M-9.0 4.2 L-4.0 4.85 3.65 6.15 Q6.25 6.75 4.9 12.0 3.6 17.2 1.2 16.65 L-6.1 14.4 -10.95 12.7 -9.0 4.2 Z" fill="none" stroke="#3c190a" stroke-linecap="round" stroke-linejoin="round" stroke-width="8.0"/>
    <path d="M-9.0 4.2 L-4.0 4.85 3.65 6.15 Q6.25 6.75 4.9 12.0 3.6 17.2 1.2 16.65 L-6.1 14.4 -10.95 12.7 -9.0 4.2" fill="#bf7926" fill-rule="evenodd" stroke="none"/>
    <path d="M-3.35 -5.3 L1.65 -4.65 9.3 -3.35 Q11.9 -2.75 10.55 2.5 9.25 7.7 6.85 7.15 L-0.45 4.9 -5.3 3.2 -3.35 -5.3" fill="#bf7926" fill-rule="evenodd" stroke="none"/>
  </g>
</svg>
