<?xml version="1.0" encoding="UTF-8" standalone="no"?>
<svg xmlns:xlink="http://www.w3.org/1999/xlink" height="18.8px" width="21.1px" xmlns="http://www.w3.org/2000/svg">
  <g transform="matrix(1.0, 0.0, 0.0, 1.0, -3.0, -106.55)">
    <path d="M12.9 108.05 L14.45 108.1 14.9 108.4 14.95 108.55 15.0 109.1 14.95 109.7 15.0 109.75 15.3 110.5 15.3 110.8 15.3 111.4 15.3 111.5 15.3 111.6 15.5 111.75 15.7 111.9 Q16.6 112.35 16.55 113.4 L16.3 114.4 15.95 114.85 15.1 115.55 15.0 115.65 14.9 115.9 14.75 116.7 14.7 117.4 14.05 118.6 13.55 118.9 12.05 119.05 11.85 119.0 11.7 118.85 11.5 118.65 11.6 118.65 11.4 118.6 10.55 118.85 10.2 118.85 10.1 119.0 9.75 119.45 9.6 119.65 9.4 119.65 8.25 119.7 8.05 119.65 7.95 119.55 7.65 119.05 7.55 118.4 7.55 118.2 6.9 117.8 6.7 117.65 6.7 117.5 6.6 117.5 Q5.4 118.05 4.45 117.3 L4.15 116.9 4.2 116.8 4.3 116.15 4.7 115.4 4.8 115.2 4.8 115.3 5.0 115.3 5.0 115.25 5.1 115.25 4.95 115.15 4.8 115.05 4.8 114.95 4.8 114.9 4.8 114.35 4.8 114.3 4.9 113.75 4.05 113.0 Q3.3 112.0 4.3 111.05 4.8 110.5 5.65 110.15 L7.15 109.9 6.95 109.6 6.85 108.9 6.85 108.25 6.95 108.15 Q7.05 108.05 7.1 108.05 L7.25 107.9 7.35 107.8 7.6 107.7 8.6 107.75 8.8 107.75 8.9 107.9 9.0 108.0 Q9.1 107.65 9.35 107.45 L9.6 107.3 10.6 107.35 10.9 107.45 11.1 107.6 11.25 107.8 11.45 108.15 11.5 108.3 12.05 108.35 12.45 108.5 12.55 108.4 12.75 108.15 12.9 108.05 M14.05 111.05 L14.0 111.1 14.0 111.2 14.05 111.5 14.05 111.0 14.05 111.05 M5.9 111.9 L5.85 111.9 5.75 111.95 5.75 112.05 5.8 112.0 5.9 111.9 M6.9 115.8 L6.9 115.7 6.85 115.7 6.9 115.8 M5.15 115.3 L5.1 115.25 5.1 115.3 5.15 115.3 M5.65 115.5 L5.75 115.5 5.55 115.45 5.65 115.5" fill="#158901" fill-rule="evenodd" stroke="none"/>
    <path d="M12.9 108.05 L14.45 108.1 14.9 108.4 14.95 108.55 15.0 109.1 14.95 109.7 15.0 109.75 15.3 110.5 15.3 110.8 15.3 111.4 15.3 111.5 15.3 111.6 15.5 111.75 15.7 111.9 Q16.6 112.35 16.55 113.4 L16.3 114.4 15.95 114.85 15.1 115.55 15.0 115.65 14.9 115.9 14.75 116.7 14.7 117.4 14.05 118.6 13.55 118.9 12.05 119.05 11.85 119.0 11.7 118.85 11.5 118.65 11.6 118.65 11.4 118.6 10.55 118.85 10.2 118.85 10.1 119.0 9.75 119.45 9.6 119.65 9.4 119.65 8.25 119.7 8.05 119.65 7.95 119.55 7.65 119.05 7.55 118.4 7.55 118.2 6.9 117.8 6.7 117.65 6.7 117.5 6.6 117.5 Q5.4 118.05 4.45 117.3 L4.15 116.9 4.2 116.8 4.3 116.15 4.7 115.4 4.8 115.2 4.8 115.3 5.0 115.3 5.0 115.25 5.1 115.25 4.95 115.15 4.8 115.05 4.8 114.95 4.8 114.9 4.8 114.35 4.8 114.3 4.9 113.75 4.05 113.0 Q3.3 112.0 4.3 111.05 4.8 110.5 5.65 110.15 L7.15 109.9 6.95 109.6 6.85 108.9 6.85 108.25 6.95 108.15 Q7.05 108.05 7.1 108.05 L7.25 107.9 7.35 107.8 7.6 107.7 8.6 107.75 8.8 107.75 8.9 107.9 9.0 108.0 Q9.1 107.65 9.35 107.45 L9.6 107.3 10.6 107.35 10.9 107.45 11.1 107.6 11.25 107.8 11.45 108.15 11.5 108.3 12.05 108.35 12.45 108.5 12.55 108.4 12.75 108.15 12.9 108.05 Z" fill="none" stroke="#137601" stroke-linecap="round" stroke-linejoin="round" stroke-width="1.5"/>
    <path d="M12.45 108.5 L12.55 108.4 12.75 108.15 12.9 108.05 14.45 108.1 14.9 108.4 14.95 108.55 15.0 109.1 14.95 109.7 14.85 109.5 14.8 109.5 14.55 109.45 13.35 109.3 13.35 109.4 13.25 109.25 13.2 109.1 13.15 109.0 13.05 108.85 12.95 108.75 12.85 108.65 12.65 108.6 12.55 108.55 12.45 108.5 M15.3 111.6 L15.5 111.75 15.7 111.9 Q16.6 112.35 16.55 113.4 L16.3 114.4 15.95 114.85 15.1 115.55 15.0 115.65 14.9 115.9 14.75 116.7 14.7 117.4 14.05 118.6 13.55 118.9 12.05 119.05 11.85 119.0 11.7 118.85 11.5 118.65 11.6 118.65 11.4 118.6 10.55 118.85 10.2 118.85 10.1 119.0 9.75 119.45 9.6 119.65 9.4 119.65 8.25 119.7 8.05 119.65 7.95 119.55 7.65 119.05 7.55 118.4 7.55 118.2 6.9 117.8 6.7 117.65 6.7 117.5 6.6 117.5 Q5.4 118.05 4.45 117.3 L4.15 116.9 4.2 116.8 4.3 116.15 4.7 115.4 4.8 115.2 4.8 115.3 5.0 115.3 5.0 115.25 5.1 115.25 5.1 115.3 5.15 115.3 5.35 115.35 5.55 115.45 5.65 115.5 5.75 115.5 6.05 115.5 6.45 115.55 6.85 115.7 6.9 115.8 6.95 115.85 6.95 116.05 6.95 116.15 6.95 116.3 7.0 116.35 7.05 116.5 7.2 116.55 7.65 116.85 8.35 116.95 8.7 116.95 9.1 116.7 9.4 116.6 9.75 117.0 9.8 117.1 9.9 117.1 10.0 117.1 10.5 117.5 12.0 117.4 12.1 117.2 12.2 116.95 12.35 116.6 12.4 116.3 12.45 116.15 13.45 115.9 14.35 115.45 14.6 114.95 14.65 114.9 14.75 114.65 14.95 114.05 14.85 113.7 14.75 113.65 14.65 113.6 14.55 113.25 14.75 112.7 14.95 112.25 15.0 111.75 15.0 111.7 15.1 111.65 15.25 111.6 15.3 111.6 M4.9 113.75 L4.05 113.0 Q3.3 112.0 4.3 111.05 4.8 110.5 5.65 110.15 L7.15 109.9 6.95 109.6 6.85 108.9 6.85 108.25 6.95 108.15 Q7.05 108.05 7.1 108.05 L7.25 107.9 7.35 107.8 7.6 107.7 8.6 107.75 8.8 107.75 8.9 107.9 9.0 108.0 Q9.1 107.65 9.35 107.45 L9.6 107.3 10.6 107.35 10.9 107.45 11.1 107.6 11.25 107.8 11.45 108.15 11.5 108.3 11.45 108.25 11.25 108.2 10.6 108.15 10.6 108.2 10.3 108.3 10.05 108.45 10.0 108.45 9.75 108.7 9.7 108.75 9.65 108.85 9.6 108.85 9.5 108.75 9.6 108.75 9.6 108.7 9.65 108.6 9.6 108.55 9.1 108.25 8.75 108.15 8.05 108.15 7.9 108.15 7.65 108.35 Q7.35 108.55 7.35 108.85 L7.25 109.2 7.15 109.5 7.15 109.65 7.15 109.7 7.15 109.85 7.15 109.9 6.25 110.1 5.95 110.2 5.8 110.3 5.8 110.4 5.75 110.8 5.75 111.0 5.75 111.1 5.85 111.1 5.95 111.3 5.95 111.5 5.95 111.7 5.95 111.8 5.9 111.9 5.85 111.9 5.75 111.95 5.75 112.05 5.3 112.65 5.2 112.8 5.1 113.0 4.95 113.45 4.95 113.5 4.9 113.75" fill="#158901" fill-rule="evenodd" stroke="none"/>
    <path d="M12.55 108.55 L12.65 108.6 12.85 108.65 12.95 108.75 13.05 108.85 13.15 109.0 13.2 109.1 13.25 109.25 13.35 109.4 13.35 109.5 13.35 109.55 13.35 109.75 13.35 109.85 13.45 109.95 13.65 110.1 13.75 110.25 13.9 110.35 13.95 110.5 14.0 110.6 14.05 110.95 14.05 111.0 14.05 111.05 14.0 111.1 14.0 111.2 14.05 111.5 14.05 111.6 14.0 111.6 14.0 111.7 13.9 111.85 13.5 112.35 12.85 112.75 12.85 112.9 12.8 113.0 12.6 113.65 Q12.2 114.15 11.6 114.3 10.9 114.45 10.4 114.0 L10.25 114.05 10.1 114.1 9.6 114.45 8.25 114.5 8.1 114.4 8.05 114.25 8.05 113.9 8.05 113.75 8.05 113.65 8.05 113.5 8.05 113.4 8.0 113.25 7.95 113.2 7.45 113.05 6.95 112.65 6.75 112.45 6.75 112.35 6.75 112.1 6.75 112.0 6.75 111.2 6.8 111.1 6.95 110.95 7.05 110.8 7.2 110.7 7.45 110.55 7.55 110.45 7.55 110.35 7.55 110.2 7.55 110.1 7.55 109.7 7.65 109.6 7.75 109.45 7.9 109.3 8.05 109.2 8.15 109.1 8.35 108.85 8.45 108.85 8.6 108.8 9.45 108.95 9.6 109.0 9.6 108.95 9.65 108.85 9.7 108.75 9.75 108.7 10.0 108.45 10.05 108.45 10.3 108.3 10.6 108.2 10.6 108.15 11.25 108.2 11.45 108.25 11.5 108.3 11.55 108.35 11.6 108.5 11.6 108.55 12.55 108.55" fill="#1ec001" fill-rule="evenodd" stroke="none"/>
    <path d="M14.95 109.7 L15.0 109.75 15.3 110.5 15.3 110.8 15.3 111.4 15.3 111.5 15.3 111.6 15.25 111.6 15.1 111.65 15.0 111.7 15.0 111.75 14.95 112.25 14.75 112.7 14.55 113.25 14.65 113.6 14.75 113.65 14.85 113.7 14.95 114.05 14.75 114.65 14.65 114.9 14.6 114.95 14.35 115.45 13.45 115.9 12.45 116.15 12.4 116.3 12.35 116.6 12.2 116.95 12.1 117.2 12.0 117.4 10.5 117.5 10.0 117.1 9.9 117.1 9.8 117.1 9.75 117.0 9.4 116.6 9.1 116.7 8.7 116.95 8.35 116.95 7.65 116.85 7.2 116.55 7.05 116.5 7.0 116.35 6.95 116.3 6.95 116.15 6.95 116.05 6.95 115.85 6.9 115.8 6.9 115.7 6.85 115.7 6.45 115.55 6.05 115.5 5.75 115.5 5.55 115.45 5.35 115.35 5.15 115.3 5.1 115.25 4.95 115.15 4.8 115.05 4.8 114.95 4.8 114.9 4.8 114.35 4.8 114.3 4.9 113.75 4.95 113.5 4.95 113.45 5.1 113.0 5.2 112.8 5.3 112.65 5.75 112.05 5.8 112.0 5.9 111.9 5.95 111.8 5.95 111.7 5.95 111.5 5.95 111.3 5.85 111.1 5.75 111.1 5.75 111.0 5.75 110.8 5.8 110.4 5.8 110.3 5.95 110.2 6.25 110.1 7.15 109.9 7.15 109.85 7.15 109.7 7.15 109.65 7.15 109.5 7.25 109.2 7.35 108.85 Q7.35 108.55 7.65 108.35 L7.9 108.15 8.05 108.15 8.75 108.15 9.1 108.25 9.6 108.55 9.65 108.6 9.6 108.7 9.6 108.75 9.5 108.75 9.6 108.85 9.65 108.85 9.6 108.95 9.6 109.0 9.45 108.95 8.6 108.8 8.45 108.85 8.35 108.85 8.15 109.1 8.05 109.2 7.9 109.3 7.75 109.45 7.65 109.6 7.55 109.7 7.55 110.1 7.55 110.2 7.55 110.35 7.55 110.45 7.45 110.55 7.2 110.7 7.05 110.8 6.95 110.95 6.8 111.1 6.75 111.2 6.75 112.0 6.75 112.1 6.75 112.35 6.75 112.45 6.95 112.65 7.45 113.05 7.95 113.2 8.0 113.25 8.05 113.4 8.05 113.5 8.05 113.65 8.05 113.75 8.05 113.9 8.05 114.25 8.1 114.4 8.25 114.5 9.6 114.45 10.1 114.1 10.25 114.05 10.4 114.0 Q10.9 114.45 11.6 114.3 12.2 114.15 12.6 113.65 L12.8 113.0 12.85 112.9 12.85 112.75 13.5 112.35 13.9 111.85 14.0 111.7 14.0 111.6 14.05 111.6 14.05 111.5 14.05 111.0 14.05 110.95 14.0 110.6 13.95 110.5 13.9 110.35 13.75 110.25 13.65 110.1 13.45 109.95 13.35 109.85 13.35 109.75 13.35 109.55 13.35 109.5 13.35 109.4 13.35 109.3 14.55 109.45 14.8 109.5 14.85 109.5 14.95 109.7 M11.5 108.3 L12.05 108.35 12.45 108.5 12.55 108.55 11.6 108.55 11.6 108.5 11.55 108.35 11.5 108.3" fill="#1ba901" fill-rule="evenodd" stroke="none"/>
    <path d="M22.05 115.95 L22.1 116.05 22.15 116.45 22.1 116.95 22.15 116.95 22.35 117.55 22.35 117.75 22.35 118.25 22.35 118.4 22.55 118.5 22.7 118.6 Q23.35 118.95 23.35 119.75 L23.15 120.5 22.85 120.85 22.2 121.4 22.15 121.5 22.05 121.65 21.95 122.3 21.9 122.8 21.4 123.75 21.05 123.95 19.9 124.1 19.75 124.05 19.6 123.95 19.45 123.8 19.55 123.8 19.4 123.75 18.75 123.95 18.45 123.95 18.4 124.05 18.1 124.4 18.0 124.55 17.85 124.55 16.95 124.6 16.8 124.55 16.75 124.45 16.5 124.1 Q16.4 123.85 16.45 123.6 L16.45 123.45 15.95 123.15 15.8 123.0 15.8 122.9 15.7 122.9 14.05 122.75 13.85 122.45 13.85 122.35 13.95 121.85 14.25 121.3 14.35 121.15 14.35 121.2 14.55 121.2 14.45 121.1 14.35 121.0 14.35 120.9 14.35 120.5 14.35 120.45 14.4 120.05 13.75 119.45 Q13.2 118.7 13.95 117.95 14.35 117.55 15.0 117.25 L16.15 117.1 16.0 116.85 15.9 116.3 15.9 115.8 16.0 115.75 16.1 115.65 16.2 115.55 16.3 115.45 16.5 115.4 17.25 115.45 17.4 115.45 17.45 115.55 17.55 115.6 17.8 115.2 18.0 115.1 18.75 115.15 19.0 115.2 19.15 115.3 19.25 115.45 19.4 115.75 19.45 115.85 19.9 115.9 20.2 116.0 20.25 115.95 20.4 115.75 20.55 115.65 21.7 115.7 22.05 115.95 M21.4 118.05 L21.4 118.3 21.4 117.9 21.4 118.05 M15.05 118.75 L15.1 118.7 15.2 118.6 15.15 118.6 15.05 118.65 15.05 118.75 M15.95 121.6 L15.95 121.5 15.9 121.5 15.95 121.6" fill="#158901" fill-rule="evenodd" stroke="none"/>
    <path d="M22.05 115.95 L22.1 116.05 22.15 116.45 22.1 116.95 22.15 116.95 22.35 117.55 22.35 117.75 22.35 118.25 22.35 118.4 22.55 118.5 22.7 118.6 Q23.35 118.95 23.35 119.75 L23.15 120.5 22.85 120.85 22.2 121.4 22.15 121.5 22.05 121.65 21.95 122.3 21.9 122.8 21.4 123.75 21.05 123.95 19.9 124.1 19.75 124.05 19.6 123.95 19.45 123.8 19.55 123.8 19.4 123.75 18.75 123.95 18.45 123.95 18.4 124.05 18.1 124.4 18.0 124.55 17.85 124.55 16.95 124.6 16.8 124.55 16.75 124.45 16.5 124.1 Q16.4 123.85 16.45 123.6 L16.45 123.45 15.95 123.15 15.8 123.0 15.8 122.9 15.7 122.9 14.05 122.75 13.85 122.45 13.85 122.35 13.95 121.85 14.25 121.3 14.35 121.15 14.35 121.2 14.55 121.2 14.45 121.1 14.35 121.0 14.35 120.9 14.35 120.5 14.35 120.45 14.4 120.05 13.75 119.45 Q13.2 118.7 13.95 117.95 14.35 117.55 15.0 117.25 L16.15 117.1 16.0 116.85 15.9 116.3 15.9 115.8 16.0 115.75 16.1 115.65 16.2 115.55 16.3 115.45 16.5 115.4 17.25 115.45 17.4 115.45 17.45 115.55 17.55 115.6 17.8 115.2 18.0 115.1 18.75 115.15 19.0 115.2 19.15 115.3 19.25 115.45 19.4 115.75 19.45 115.85 19.9 115.9 20.2 116.0 20.25 115.95 20.4 115.75 20.55 115.65 21.7 115.7 22.05 115.95 Z" fill="none" stroke="#137601" stroke-linecap="round" stroke-linejoin="round" stroke-width="1.5"/>
    <path d="M20.2 116.0 L20.25 115.95 20.4 115.75 20.55 115.65 21.7 115.7 22.05 115.95 22.1 116.05 22.15 116.45 22.1 116.95 22.05 116.75 22.0 116.75 21.8 116.75 20.9 116.6 20.9 116.7 20.8 116.6 20.75 116.45 20.75 116.4 20.65 116.3 20.55 116.2 20.5 116.1 20.35 116.1 20.25 116.05 20.2 116.0 M22.35 118.4 L22.55 118.5 22.7 118.6 Q23.35 118.95 23.35 119.75 L23.15 120.5 22.85 120.85 22.2 121.4 22.15 121.5 22.05 121.65 21.95 122.3 21.9 122.8 21.4 123.75 21.05 123.95 19.9 124.1 19.75 124.05 19.6 123.95 19.45 123.8 19.55 123.8 19.4 123.75 18.75 123.95 18.45 123.95 18.4 124.05 18.1 124.4 18.0 124.55 17.85 124.55 16.95 124.6 16.8 124.55 16.75 124.45 16.5 124.1 Q16.4 123.85 16.45 123.6 L16.45 123.45 15.95 123.15 15.8 123.0 15.8 122.9 15.7 122.9 14.05 122.75 13.85 122.45 13.85 122.35 13.95 121.85 14.25 121.3 14.35 121.15 14.35 121.2 14.55 121.2 14.6 121.2 14.75 121.25 14.9 121.35 15.05 121.35 15.3 121.35 15.6 121.4 15.9 121.5 15.95 121.6 16.0 121.65 16.0 121.8 16.0 121.85 16.0 122.0 16.05 122.15 16.15 122.15 16.5 122.4 17.05 122.5 17.3 122.5 17.65 122.3 17.85 122.2 18.1 122.5 18.15 122.6 18.3 122.6 18.7 122.9 19.85 122.8 19.9 122.65 20.0 122.5 20.1 122.2 20.15 122.0 20.2 121.85 20.95 121.65 21.65 121.35 21.85 120.95 21.85 120.9 21.95 120.7 22.1 120.25 22.05 120.0 21.95 119.95 21.85 119.9 21.8 119.65 21.95 119.2 22.1 118.9 22.15 118.5 22.15 118.45 22.2 118.4 22.35 118.4 M14.4 120.05 L13.75 119.45 Q13.2 118.7 13.95 117.95 14.35 117.55 15.0 117.25 L16.15 117.1 16.0 116.85 15.9 116.3 15.9 115.8 16.0 115.75 16.1 115.65 16.2 115.55 16.3 115.45 16.5 115.4 17.25 115.45 17.4 115.45 17.45 115.55 17.55 115.6 17.8 115.2 18.0 115.1 18.75 115.15 19.0 115.2 19.15 115.3 19.25 115.45 19.4 115.75 19.45 115.85 19.4 115.8 19.25 115.8 18.75 115.75 18.75 115.8 18.55 115.85 18.35 115.95 18.3 115.95 18.1 116.15 18.1 116.2 18.05 116.3 18.0 116.3 17.95 116.2 18.0 116.2 18.0 116.15 18.05 116.1 18.0 116.05 17.65 115.8 17.35 115.75 16.8 115.75 16.7 115.75 16.5 115.9 16.3 116.3 16.2 116.55 16.15 116.75 16.15 116.9 16.15 116.95 16.15 117.05 16.15 117.1 15.45 117.25 15.2 117.3 15.1 117.4 15.1 117.45 15.05 117.75 15.05 117.9 15.05 118.0 15.15 118.0 15.2 118.15 15.2 118.3 15.2 118.45 15.2 118.55 15.2 118.6 15.15 118.6 15.05 118.65 15.05 118.75 14.7 119.2 14.65 119.3 14.55 119.45 14.45 119.8 14.45 119.85 14.4 120.05" fill="#158901" fill-rule="evenodd" stroke="none"/>
    <path d="M22.1 116.95 L22.15 116.95 22.35 117.55 22.35 117.75 22.35 118.25 22.35 118.4 22.2 118.4 22.15 118.45 22.15 118.5 22.1 118.9 21.95 119.2 21.8 119.65 21.85 119.9 21.95 119.95 22.05 120.0 22.1 120.25 21.95 120.7 21.85 120.9 21.85 120.95 21.65 121.35 20.95 121.65 20.2 121.85 20.15 122.0 20.1 122.2 20.0 122.5 19.9 122.65 19.85 122.8 18.7 122.9 18.3 122.6 18.15 122.6 18.1 122.5 17.85 122.2 17.65 122.3 17.3 122.5 17.05 122.5 16.5 122.4 16.15 122.15 16.05 122.15 16.0 122.0 16.0 121.85 16.0 121.8 16.0 121.65 15.95 121.6 15.95 121.5 15.9 121.5 15.6 121.4 15.3 121.35 15.05 121.35 14.9 121.35 14.75 121.25 14.6 121.2 14.55 121.2 14.45 121.1 14.35 121.0 14.35 120.9 14.35 120.5 14.35 120.45 14.4 120.05 14.45 119.85 14.45 119.8 14.55 119.45 14.65 119.3 14.7 119.2 15.05 118.75 15.1 118.7 15.2 118.6 15.2 118.55 15.2 118.45 15.2 118.3 15.2 118.15 15.15 118.0 15.05 118.0 15.05 117.9 15.05 117.75 15.1 117.45 15.1 117.4 15.2 117.3 15.45 117.25 16.15 117.1 16.15 117.05 16.15 116.95 16.15 116.9 16.15 116.75 16.2 116.55 16.3 116.3 16.5 115.9 16.7 115.75 16.8 115.75 17.35 115.75 17.65 115.8 18.0 116.05 18.05 116.1 18.0 116.15 18.0 116.2 17.95 116.2 18.0 116.3 18.0 116.4 17.9 116.35 17.25 116.25 17.15 116.3 17.05 116.3 16.9 116.45 16.8 116.55 16.7 116.6 16.6 116.75 16.5 116.85 16.45 116.95 16.45 117.4 16.45 117.5 16.35 117.6 16.15 117.7 16.05 117.75 16.0 117.9 15.85 118.0 15.85 118.95 15.85 119.05 16.0 119.2 16.35 119.5 16.75 119.6 16.8 119.65 16.8 119.75 16.8 119.85 16.8 119.95 16.8 120.05 16.8 120.15 16.8 120.4 16.85 120.5 16.95 120.6 18.0 120.55 18.4 120.3 18.5 120.25 18.6 120.2 19.55 120.45 20.3 119.95 20.45 119.45 20.5 119.4 20.5 119.25 21.0 118.95 21.3 118.55 21.4 118.45 21.4 118.3 21.4 117.9 21.4 117.6 21.35 117.55 21.3 117.4 21.2 117.35 21.1 117.25 20.95 117.1 20.9 117.05 20.9 116.95 20.9 116.8 20.9 116.7 20.9 116.6 21.8 116.75 22.0 116.75 22.05 116.75 22.1 116.95 M19.45 115.85 L19.9 115.9 20.2 116.0 20.25 116.05 19.55 116.05 19.55 116.0 19.5 115.9 19.45 115.85" fill="#1ba901" fill-rule="evenodd" stroke="none"/>
    <path d="M20.25 116.05 L20.35 116.1 20.5 116.1 20.55 116.2 20.65 116.3 20.75 116.4 20.75 116.45 20.8 116.6 20.9 116.7 20.9 116.8 20.9 116.95 20.9 117.05 20.95 117.1 21.1 117.25 21.2 117.35 21.3 117.4 21.35 117.55 21.4 117.6 21.4 117.9 21.4 118.05 21.4 118.3 21.4 118.45 21.3 118.55 21.0 118.95 20.5 119.25 20.5 119.4 20.45 119.45 20.3 119.95 19.55 120.45 18.6 120.2 18.5 120.25 18.4 120.3 18.0 120.55 16.95 120.6 16.85 120.5 16.8 120.4 16.8 120.15 16.8 120.05 16.8 119.95 16.8 119.85 16.8 119.75 16.8 119.65 16.75 119.6 16.35 119.5 16.0 119.2 15.85 119.05 15.85 118.95 15.85 118.0 16.0 117.9 16.05 117.75 16.15 117.7 16.35 117.6 16.45 117.5 16.45 117.4 16.45 116.95 16.5 116.85 16.6 116.75 16.7 116.6 16.8 116.55 16.9 116.45 17.05 116.3 17.15 116.3 17.25 116.25 17.9 116.35 18.0 116.4 18.0 116.3 18.05 116.3 18.1 116.2 18.1 116.15 18.3 115.95 18.35 115.95 18.55 115.85 18.75 115.8 18.75 115.75 19.25 115.8 19.4 115.8 19.45 115.85 19.5 115.9 19.55 116.0 19.55 116.05 20.25 116.05" fill="#1ec001" fill-rule="evenodd" stroke="none"/>
  </g>
</svg>
