<?xml version="1.0" encoding="UTF-8" standalone="no"?>
<svg xmlns:xlink="http://www.w3.org/1999/xlink" height="19.8px" width="18.35px" xmlns="http://www.w3.org/2000/svg">
  <g transform="matrix(1.0, 0.0, 0.0, 1.0, 10.4, 9.9)">
    <path d="M5.15 4.05 L5.1 4.4 5.6 3.75 5.5 2.9 5.15 4.05 M5.3 -9.15 L5.8 -8.9 5.95 -8.7 5.85 -7.1 7.2 5.25 7.05 5.5 6.55 5.75 Q6.1 5.8 5.8 5.45 L4.95 6.55 4.8 8.7 4.55 8.9 4.05 9.15 Q3.6 9.1 3.35 8.65 L3.45 7.35 -7.9 7.35 -8.25 8.6 Q-8.65 9.0 -9.05 8.9 L-9.55 8.55 -9.65 8.25 -5.35 -8.6 -5.15 -8.8 -4.55 -8.85 Q-4.05 -8.75 -3.95 -8.25 L4.5 -8.25 4.5 -8.75 Q4.75 -9.2 5.3 -9.15 M-4.2 -7.15 L-4.2 -7.25 -4.2 -7.15 M-5.1 2.0 L-4.5 -5.9 -7.35 5.2 Q-5.95 3.65 -5.1 2.0" fill="#6d5033" fill-rule="evenodd" stroke="none"/>
    <path d="M5.3 -9.15 Q4.75 -9.2 4.5 -8.75 L4.5 -8.25 -3.95 -8.25 Q-4.05 -8.75 -4.55 -8.85 L-5.15 -8.8 -5.35 -8.6 -9.65 8.25 -9.55 8.55 -9.05 8.9 Q-8.65 9.0 -8.25 8.6 L-7.9 7.35 3.45 7.35 3.35 8.65 Q3.6 9.1 4.05 9.15 L4.55 8.9 4.8 8.7 4.95 6.55 5.8 5.45 Q6.1 5.8 6.55 5.75 L7.05 5.5 7.2 5.25 5.85 -7.1 5.95 -8.7 5.8 -8.9 5.3 -9.15 M5.15 4.05 L5.5 2.9 5.6 3.75 5.1 4.4 5.15 4.05 M-4.2 -7.15 L-4.2 -7.25 -4.2 -7.15 M-5.1 2.0 L-4.5 -5.9 -7.35 5.2 Q-5.95 3.65 -5.1 2.0" fill="none" stroke="#6d5033" stroke-linecap="round" stroke-linejoin="round" stroke-width="1.5"/>
    <path d="M4.3 -7.75 L5.8 -7.75 7.2 5.25 7.05 5.5 6.55 5.75 Q6.1 5.8 5.75 5.4 L4.3 -7.75" fill="#d29458" fill-rule="evenodd" stroke="none"/>
    <path d="M-4.45 -7.15 L-3.0 -7.15 -3.8 4.15 Q-4.15 4.55 -4.6 4.55 L-5.1 4.3 -5.25 4.05 -4.45 -7.15" fill="#d29458" fill-rule="evenodd" stroke="none"/>
    <path d="M-4.25 -8.25 L4.9 -8.25 Q7.3 2.25 3.75 6.45 L-8.6 6.45 Q-5.8 3.8 -4.6 0.95 -4.0 -0.8 -4.05 -4.7 L-4.25 -8.25" fill="#98612c" fill-rule="evenodd" stroke="none"/>
    <path d="M4.35 7.35 L4.35 5.35 6.35 2.7 6.3 4.75 4.35 7.35" fill="#eec36f" fill-rule="evenodd" stroke="none"/>
    <path d="M-2.35 -8.25 L2.8 -8.25 Q4.15 2.25 2.15 6.45 L-4.75 6.45 Q-3.2 3.8 -2.55 0.95 -2.2 -0.8 -2.2 -4.7 L-2.35 -8.25" fill="#6d5033" fill-rule="evenodd" stroke="none"/>
    <path d="M4.7 5.9 L4.7 7.35 -8.9 7.35 -8.9 5.9 4.7 5.9" fill="#d29458" fill-rule="evenodd" stroke="none"/>
    <path d="M-4.55 -8.85 Q-4.05 -8.75 -3.95 -8.25 L-8.25 8.6 Q-8.65 9.0 -9.05 8.9 L-9.55 8.55 -9.65 8.25 -5.35 -8.6 -5.15 -8.8 -4.55 -8.85" fill="#eec36f" fill-rule="evenodd" stroke="none"/>
    <path d="M-4.05 -4.35 L5.65 -4.35 Q6.3 0.95 5.1 4.2 L-6.55 4.2 Q-5.3 2.6 -4.6 0.95 -4.05 -0.7 -4.05 -4.35" fill="url(#gradient0)" fill-rule="evenodd" stroke="none"/>
    <path d="M5.3 -9.15 Q4.75 -9.2 4.5 -8.75 L3.35 8.65 Q3.6 9.1 4.05 9.15 L4.55 8.9 4.8 8.7 5.95 -8.7 5.8 -8.9 5.3 -9.15" fill="#eec36f" fill-rule="evenodd" stroke="none"/>
  </g>
  <defs>
    <linearGradient gradientTransform="matrix(5.0E-4, -0.0029, 0.0089, 0.0, 0.95, -2.3)" gradientUnits="userSpaceOnUse" id="gradient0" spreadMethod="reflect" x1="-819.2" x2="819.2">
      <stop offset="0.0" stop-color="#000000" stop-opacity="0.4"/>
      <stop offset="0.6509803921568628" stop-color="#000000" stop-opacity="0.2"/>
      <stop offset="1.0" stop-color="#000000" stop-opacity="0.0"/>
    </linearGradient>
  </defs>
</svg>
