<?xml version="1.0" encoding="UTF-8" standalone="no"?>
<svg xmlns:xlink="http://www.w3.org/1999/xlink" height="120.25px" width="388.95px" xmlns="http://www.w3.org/2000/svg">
  <g transform="matrix(1.0, 0.0, 0.0, 1.0, -126.95, -56.85)">
    <path d="M510.2 66.85 L512.5 66.85 512.5 70.5 511.5 70.45 Q511.7 71.25 511.3 73.2 511.25 74.7 512.5 75.65 L512.55 78.05 512.5 95.0 Q511.9 96.35 511.9 97.25 L512.5 99.5 511.5 99.5 511.5 111.55 511.9 111.55 Q511.9 113.85 512.05 114.7 L512.5 116.4 512.5 121.85 Q511.85 123.25 511.2 126.5 510.4 130.0 510.4 131.85 510.4 132.8 511.45 135.15 512.45 137.4 512.5 138.35 L512.5 147.25 512.15 149.05 510.9 153.8 510.9 157.75 512.5 157.8 512.5 162.35 Q511.65 163.8 510.85 166.7 509.8 170.4 509.8 172.45 L509.85 173.25 449.2 173.25 449.2 172.8 Q440.75 172.95 432.95 173.25 L403.0 173.25 403.0 172.8 397.1 172.7 397.05 173.1 395.5 173.1 395.6 173.25 363.35 173.25 362.45 172.95 362.45 171.05 361.9 171.05 361.9 170.4 355.95 170.35 355.55 170.55 354.9 170.8 354.9 171.85 354.3 171.85 354.0 172.25 353.25 172.6 353.25 172.8 Q345.3 172.7 344.35 172.85 L342.35 173.1 342.35 173.25 289.55 173.25 289.3 173.15 288.75 173.0 284.45 172.9 284.45 171.55 278.45 171.55 278.45 172.4 275.2 172.4 272.85 173.25 132.15 173.25 131.6 172.95 131.6 171.75 Q130.05 170.85 129.35 169.55 L129.35 161.75 130.05 161.75 130.05 147.85 Q129.55 147.3 129.35 146.45 L129.35 139.65 Q129.65 137.2 130.05 135.8 L130.05 129.6 130.5 129.6 130.5 124.85 Q130.05 124.35 130.05 123.3 L129.35 123.3 129.35 122.55 131.1 122.55 131.1 120.55 Q130.5 119.95 130.25 118.75 L130.05 117.35 130.1 116.1 130.5 114.45 130.5 101.65 129.35 101.65 129.35 100.9 130.5 100.9 130.5 93.05 129.35 90.1 129.35 85.25 130.05 85.25 Q130.05 84.55 130.5 84.1 L130.5 77.9 Q130.55 76.95 131.1 76.5 L131.1 70.45 Q130.7 69.35 130.55 67.25 131.8 66.4 133.15 65.75 L137.5 65.75 137.5 66.15 153.3 66.2 159.75 65.95 163.05 65.75 166.85 65.75 166.85 66.15 176.15 66.15 191.2 66.25 201.55 66.45 212.9 66.55 219.1 66.1 225.85 65.75 349.4 65.75 349.4 66.35 361.35 66.4 362.95 66.25 387.8 66.2 387.8 65.75 412.75 65.75 412.75 66.35 423.65 66.4 428.75 66.25 433.4 66.05 462.65 66.05 465.7 65.9 469.0 65.8 487.55 65.85 487.55 66.35 493.0 66.4 496.65 66.2 508.15 66.05 508.15 66.75 510.2 66.85" fill="#000000" fill-opacity="0.3019608" fill-rule="evenodd" stroke="none"/>
    <path d="M514.35 64.45 L514.35 68.15 513.35 68.1 Q513.55 68.9 513.15 70.85 513.1 72.35 514.35 73.3 L514.45 75.65 514.35 92.6 Q513.75 94.0 513.75 94.9 L514.35 97.15 513.35 97.15 513.35 109.2 513.75 109.2 Q513.75 111.5 513.9 112.3 514.05 113.3 514.35 114.05 L514.35 119.5 Q513.7 120.85 512.95 124.15 512.25 127.65 512.25 129.5 512.25 130.45 513.3 132.8 514.3 135.0 514.35 136.0 L514.35 144.9 514.05 146.65 512.7 151.45 512.7 155.4 514.35 155.45 514.35 159.95 Q513.5 161.45 512.7 164.35 511.65 168.05 511.65 170.1 L511.7 170.9 451.05 170.9 451.05 170.45 Q442.65 170.6 434.8 170.9 L404.9 170.9 404.9 170.45 398.95 170.35 398.9 170.75 397.3 170.75 397.45 170.9 365.2 170.9 364.25 170.6 364.25 168.65 363.75 168.65 363.75 168.05 357.85 168.0 357.35 168.2 356.7 168.4 356.7 169.5 356.15 169.5 355.85 169.85 355.1 170.25 355.1 170.45 Q347.15 170.35 346.2 170.5 L344.25 170.75 344.25 170.9 291.35 170.9 291.15 170.8 290.6 170.65 286.25 170.55 286.25 169.2 280.3 169.2 280.3 170.05 277.05 170.05 274.7 170.9 134.0 170.9 133.5 170.6 133.5 169.4 Q131.8 168.45 131.15 167.2 L131.15 159.4 131.8 159.4 131.8 145.5 Q131.4 144.95 131.15 144.1 L131.15 137.3 131.8 133.4 131.8 127.25 132.35 127.25 132.35 122.5 Q131.8 122.0 131.8 120.95 L131.15 120.95 131.15 120.15 132.9 120.15 132.9 118.2 Q132.35 117.6 132.0 116.4 L131.8 114.95 131.95 113.75 132.35 112.05 132.35 99.3 131.15 99.3 131.15 98.5 132.35 98.55 132.35 90.7 131.15 87.75 131.15 82.9 131.8 82.9 Q131.8 82.2 132.35 81.7 L132.35 75.5 Q132.4 74.6 132.9 74.15 L132.9 68.1 Q132.5 66.95 132.4 64.85 133.7 64.05 135.0 63.4 L139.4 63.4 139.4 63.8 155.2 63.85 161.6 63.6 164.95 63.4 168.7 63.4 168.7 63.8 177.95 63.8 193.05 63.9 203.35 64.05 214.75 64.15 220.95 63.75 227.7 63.4 351.2 63.4 351.2 64.0 363.15 64.05 364.8 63.9 389.7 63.85 389.7 63.4 414.55 63.4 414.55 64.0 425.45 64.05 430.6 63.9 435.2 63.7 464.45 63.65 467.5 63.55 470.85 63.45 489.4 63.5 489.4 64.0 494.8 64.05 498.5 63.85 510.0 63.65 510.0 64.35 512.05 64.45 514.35 64.45" fill="#3cadc6" fill-rule="evenodd" stroke="none"/>
    <path d="M494.75 60.9 L494.95 61.9 Q494.95 63.15 492.5 68.5 L491.8 68.5 491.7 67.2 Q491.7 66.45 492.75 63.65 493.85 60.9 494.25 60.6 L494.75 60.9 M511.7 78.2 L508.7 77.75 508.6 77.35 512.9 76.55 515.35 76.0 515.55 76.7 514.5 77.7 511.7 78.2 M514.05 81.8 L511.6 81.55 Q509.9 81.3 509.7 81.05 L512.3 80.5 Q513.9 80.3 514.95 80.5 L515.15 81.15 514.9 81.7 514.05 81.8 M515.9 103.95 L515.75 104.55 Q515.5 104.9 514.9 104.9 L512.65 104.35 510.1 103.65 Q509.9 104.2 509.9 103.15 509.9 100.6 515.9 103.95 M513.0 128.85 L514.25 129.0 514.45 129.65 513.7 130.3 507.8 130.3 Q507.65 130.25 507.65 129.6 L507.75 128.9 507.85 128.95 512.15 128.8 513.0 128.85 M509.7 134.7 L513.35 134.5 513.9 134.6 Q514.1 134.6 514.1 135.35 L514.05 136.0 513.8 136.25 510.2 136.25 Q508.2 135.9 508.05 135.55 508.75 134.95 509.7 134.7 M511.15 159.85 L509.6 158.75 Q510.4 157.35 511.9 158.05 513.0 158.65 513.8 159.85 513.75 160.75 513.05 161.05 L511.15 159.85 M492.4 169.1 L492.4 174.5 491.6 175.25 Q490.7 174.8 490.5 173.9 L490.45 172.55 Q490.35 171.05 490.5 169.75 490.8 167.05 491.8 166.45 492.15 167.1 492.4 169.1 M406.4 63.4 L406.3 63.95 405.85 64.45 Q405.4 64.05 405.05 62.9 404.6 61.75 404.6 60.85 L404.7 60.0 404.7 59.9 405.1 59.9 405.85 61.65 406.4 63.4 M450.1 60.3 Q450.3 60.45 450.3 61.15 L449.65 63.45 448.65 65.65 448.15 65.75 447.8 64.8 447.7 63.6 Q447.7 62.85 448.3 61.65 448.85 60.6 449.5 60.05 L450.1 60.3 M357.6 61.65 Q358.4 63.4 358.4 64.05 L358.3 64.6 357.95 64.55 Q357.1 64.05 356.8 62.5 L356.2 60.0 356.4 59.65 Q356.8 59.9 357.6 61.65 M390.95 59.65 L391.45 59.55 Q392.85 60.9 393.35 64.9 L393.35 64.95 391.75 64.95 391.2 63.3 390.55 60.5 Q390.55 59.8 390.95 59.65 M389.45 64.95 L391.05 64.95 390.9 65.7 Q390.75 66.0 390.15 66.0 389.85 66.0 389.45 64.95 M388.05 167.25 Q388.45 168.0 388.45 169.75 L388.3 172.7 Q388.0 174.35 387.05 175.2 L386.65 175.0 Q386.5 174.8 386.5 174.1 386.5 172.7 387.05 170.05 387.7 167.45 388.05 167.25 M369.55 171.8 L369.75 176.3 369.05 176.95 368.5 176.7 Q368.35 176.5 368.35 175.75 L368.2 170.9 Q368.25 168.0 369.2 167.25 L369.55 171.8 M376.6 171.3 Q377.1 173.9 377.55 174.85 L377.35 175.45 376.5 175.75 Q375.7 175.75 374.55 169.6 L374.75 168.6 Q374.85 168.4 375.35 168.25 376.2 169.05 376.6 171.3 M406.45 169.45 Q406.45 168.75 406.75 168.7 L407.1 168.65 408.05 168.65 408.45 171.75 409.2 175.0 408.95 175.55 Q408.7 175.9 408.1 175.9 L407.35 175.8 407.3 175.65 406.75 172.2 406.45 169.45 M451.4 175.15 L450.6 175.9 Q449.7 175.5 449.5 174.55 L449.45 173.2 Q449.35 171.75 449.5 170.4 449.8 167.7 450.8 167.1 L451.4 169.8 451.4 175.15 M243.85 61.5 Q243.75 64.05 244.1 64.7 L243.7 64.95 242.9 64.95 Q242.25 61.6 242.25 59.45 L242.25 58.6 242.4 58.35 243.0 58.35 Q243.9 59.25 243.85 61.5 M279.8 63.8 L279.0 60.75 Q279.0 58.95 279.9 58.6 L281.55 65.65 Q281.3 66.35 280.85 66.55 280.6 66.4 279.8 63.8 M316.7 59.25 Q316.9 59.5 316.9 60.25 316.9 61.5 314.45 66.85 L313.75 66.85 313.65 65.55 Q313.65 64.85 314.7 62.05 315.8 59.25 316.2 58.95 L316.7 59.25 M312.15 66.85 L312.1 66.9 311.45 66.9 311.45 66.85 312.15 66.85 M289.15 66.05 Q288.35 65.2 287.85 63.7 287.4 62.4 287.4 61.3 287.4 60.7 287.7 60.6 L288.0 60.6 Q288.95 61.4 289.25 62.9 L289.8 65.4 289.15 66.05 M202.25 64.3 Q202.25 58.1 203.55 56.85 204.0 57.5 204.2 58.8 L204.4 60.45 Q204.4 63.0 204.0 65.45 L203.7 65.65 203.15 66.05 202.4 65.35 Q202.25 65.1 202.25 64.3 M229.9 61.1 L229.5 64.45 228.75 64.55 228.6 64.25 228.55 63.4 228.85 61.6 229.1 59.75 229.7 59.75 229.85 60.15 229.9 61.1 M241.4 64.95 L240.65 65.15 240.6 64.95 241.4 64.95 M235.35 168.6 L235.55 168.25 Q237.05 169.05 237.75 172.6 L238.1 174.7 238.15 175.9 238.1 176.7 238.0 176.85 237.45 177.1 Q236.5 175.85 236.05 173.15 L235.35 168.6 M211.55 172.3 L210.55 176.05 Q210.35 176.3 209.95 176.35 L209.3 176.2 209.2 175.3 Q209.2 174.4 210.0 171.2 210.95 167.7 211.55 167.1 212.0 167.3 212.1 167.45 L212.25 168.45 Q212.25 169.8 211.55 172.3 M321.6 171.3 Q322.1 173.9 322.55 174.85 L322.35 175.45 321.5 175.75 Q320.7 175.75 319.55 169.6 L319.75 168.6 320.35 168.25 Q321.2 169.05 321.6 171.3 M314.2 167.25 L314.55 171.8 314.75 176.3 314.05 176.95 313.5 176.7 Q313.35 176.5 313.35 175.75 L313.2 170.9 Q313.25 168.0 314.2 167.25 M154.5 65.45 L154.2 65.65 153.65 66.05 152.9 65.35 Q152.75 65.1 152.75 64.3 152.75 58.1 154.05 56.85 154.5 57.5 154.7 58.8 L154.9 60.45 Q154.9 63.0 154.5 65.45 M130.15 72.1 Q132.35 69.9 135.95 71.15 L136.25 71.9 135.75 72.45 Q135.3 72.75 134.65 72.75 L132.2 72.55 130.15 72.1 M134.95 98.25 L135.05 98.2 135.2 99.0 Q135.2 99.7 133.2 100.25 L129.35 100.75 128.7 100.7 128.7 100.55 Q128.5 101.1 128.5 100.05 128.5 99.2 130.2 98.65 L134.95 98.25 M135.85 120.5 L136.0 120.65 136.05 121.35 Q136.05 123.1 129.35 124.85 L128.7 124.75 128.7 124.6 Q128.5 125.2 128.5 124.1 128.5 123.65 131.65 122.05 134.85 120.4 135.85 120.5 M158.85 167.2 L159.05 166.85 Q160.55 167.7 161.25 171.2 L161.6 173.35 161.65 174.55 161.6 175.35 161.5 175.5 160.95 175.75 Q160.0 174.45 159.55 171.8 L158.85 167.2 M132.55 151.3 L131.15 151.45 129.5 151.85 128.7 151.8 Q128.5 151.7 128.5 150.95 128.5 150.15 130.0 149.75 L132.55 149.7 132.75 150.4 132.55 151.3 M132.55 157.75 L131.5 158.8 128.35 158.8 126.95 158.25 Q128.85 155.85 129.6 155.8 130.2 155.8 132.35 157.05 L132.55 157.75 M138.35 168.85 L138.5 168.8 138.55 169.55 130.65 174.1 129.85 173.55 Q130.35 172.7 133.5 170.65 137.0 168.4 138.35 168.85" fill="#246c7b" fill-rule="evenodd" stroke="none"/>
  </g>
</svg>
