<?xml version="1.0" encoding="UTF-8" standalone="no"?>
<svg xmlns:xlink="http://www.w3.org/1999/xlink" height="206.2px" width="259.0px" xmlns="http://www.w3.org/2000/svg">
  <g transform="matrix(1.0, 0.0, 0.0, 1.0, 138.45, 130.15)">
    <path d="M71.8 42.25 L68.9 39.65 67.75 38.4 Q64.6 45.75 61.45 50.5 57.2 56.9 39.4 61.25 23.3 65.15 1.15 66.3 -20.45 67.45 -38.3 65.5 -57.3 63.4 -64.0 58.5 -70.2 53.95 -76.85 43.0 -78.15 45.6 -80.0 47.95 L-82.9 51.25 Q-91.75 60.15 -103.4 60.2 -114.85 60.2 -122.0 51.7 -128.95 43.4 -127.85 31.8 -126.85 20.45 -118.65 12.2 -110.5 3.95 -99.65 3.35 L-98.7 3.3 -93.4 3.7 Q-104.6 -35.9 -95.95 -67.35 L-98.9 -67.65 Q-104.9 -68.6 -112.55 -71.95 -120.25 -75.3 -125.05 -79.1 -129.85 -82.85 -129.0 -84.85 -128.15 -86.8 -122.05 -85.9 -116.05 -84.95 -108.35 -81.6 L-106.2 -80.6 Q-108.7 -84.55 -111.2 -89.25 -116.85 -99.85 -119.4 -108.1 -121.85 -116.3 -119.8 -117.45 -117.75 -118.55 -112.3 -111.9 -106.75 -105.25 -101.1 -94.65 -95.45 -84.1 -92.95 -75.85 L-92.9 -75.65 Q-85.5 -90.55 -65.3 -102.3 -42.1 -115.8 -12.3 -119.6 18.6 -123.55 41.85 -114.95 67.8 -105.35 75.45 -82.5 87.05 -47.85 79.5 -3.3 L77.9 5.25 Q80.4 4.5 83.2 4.35 L86.65 4.35 Q96.8 4.9 104.05 11.8 111.4 18.7 111.25 27.95 111.1 37.15 103.5 43.0 95.95 48.65 85.75 47.75 77.7 46.85 71.8 42.25 L71.45 43.1 71.8 42.25" fill="#000000" fill-rule="evenodd" stroke="none"/>
    <path d="M71.8 42.25 Q77.7 46.85 85.75 47.75 95.95 48.65 103.5 43.0 111.1 37.15 111.25 27.95 111.4 18.7 104.05 11.8 96.8 4.9 86.65 4.35 L83.2 4.35 Q80.4 4.5 77.9 5.25 L79.5 -3.3 Q87.05 -47.85 75.45 -82.5 67.8 -105.35 41.85 -114.95 18.6 -123.55 -12.3 -119.6 -42.1 -115.8 -65.3 -102.3 -85.5 -90.55 -92.9 -75.65 L-92.95 -75.85 Q-95.45 -84.1 -101.1 -94.65 -106.75 -105.25 -112.3 -111.9 -117.75 -118.55 -119.8 -117.45 -121.85 -116.3 -119.4 -108.1 -116.85 -99.85 -111.2 -89.25 -108.7 -84.55 -106.2 -80.6 L-108.35 -81.6 Q-116.05 -84.95 -122.05 -85.9 -128.15 -86.8 -129.0 -84.85 -129.85 -82.85 -125.05 -79.1 -120.25 -75.3 -112.55 -71.95 -104.9 -68.6 -98.9 -67.65 L-95.95 -67.35 Q-104.6 -35.9 -93.4 3.7 L-98.7 3.3 -99.65 3.35 Q-110.5 3.95 -118.65 12.2 -126.85 20.45 -127.85 31.8 -128.95 43.4 -122.0 51.7 -114.85 60.2 -103.4 60.2 -91.75 60.15 -82.9 51.25 L-80.0 47.95 Q-78.15 45.6 -76.85 43.0 -70.2 53.95 -64.0 58.5 -57.3 63.4 -38.3 65.5 -20.45 67.45 1.15 66.3 23.3 65.15 39.4 61.25 57.2 56.9 61.45 50.5 64.6 45.75 67.75 38.4 L68.9 39.65 71.8 42.25 Z" fill="none" stroke="#3c190a" stroke-linecap="square" stroke-linejoin="miter" stroke-miterlimit="3.0" stroke-width="14.0"/>
  </g>
</svg>
