<?xml version="1.0" encoding="UTF-8" standalone="no"?>
<svg xmlns:xlink="http://www.w3.org/1999/xlink" height="28.7px" width="22.9px" xmlns="http://www.w3.org/2000/svg">
  <g transform="matrix(1.0, 0.0, 0.0, 1.0, -26.05, -24.3)">
    <path d="M33.25 40.2 L33.25 40.35 34.8 45.05 35.2 45.05 35.6 45.05 Q36.6 45.05 38.3 44.15 40.05 43.25 41.1 43.25 L41.0 43.1 40.6 42.5 40.25 41.95 37.45 39.15 36.75 38.45 34.7 39.05 Q33.25 39.65 33.25 40.2 M28.55 38.8 L28.75 37.3 Q29.0 36.35 29.7 35.25 L30.95 33.4 32.5 30.8 Q33.4 29.6 34.8 29.15 L36.0 28.75 38.1 28.15 41.4 27.2 41.6 27.15 42.55 26.8 42.75 26.8 Q43.2 26.8 44.3 28.2 45.3 29.55 45.3 29.9 L45.3 30.1 45.25 30.3 44.25 31.0 42.75 32.05 40.25 33.8 38.9 34.7 37.5 35.55 43.7 35.55 Q44.0 35.55 44.7 37.65 L45.85 42.1 46.45 45.5 46.45 45.9 46.45 46.2 45.25 47.0 44.4 47.4 43.0 48.1 41.6 48.8 40.65 49.25 40.0 49.6 37.9 50.45 37.75 50.5 37.55 50.5 Q36.65 50.5 35.35 49.9 L33.25 48.9 32.75 48.7 30.55 47.75 29.75 47.35 29.55 46.8 29.4 46.2 Q28.55 41.45 28.55 38.8" fill="#333333" fill-rule="evenodd" stroke="none"/>
    <path d="M28.55 38.8 Q28.55 41.45 29.4 46.2 L29.55 46.8 29.75 47.35 30.55 47.75 32.75 48.7 33.25 48.9 35.35 49.9 Q36.65 50.5 37.55 50.5 L37.75 50.5 37.9 50.45 40.0 49.6 40.65 49.25 41.6 48.8 43.0 48.1 44.4 47.4 45.25 47.0 46.45 46.2 46.45 45.9 46.45 45.5 45.85 42.1 44.7 37.65 Q44.0 35.55 43.7 35.55 L37.5 35.55 38.9 34.7 40.25 33.8 42.75 32.05 44.25 31.0 45.25 30.3 45.3 30.1 45.3 29.9 Q45.3 29.55 44.3 28.2 43.2 26.8 42.75 26.8 L42.55 26.8 41.6 27.15 41.4 27.2 38.1 28.15 36.0 28.75 34.8 29.15 Q33.4 29.6 32.5 30.8 L30.95 33.4 29.7 35.25 Q29.0 36.35 28.75 37.3 L28.55 38.8 M33.25 40.2 Q33.25 39.65 34.7 39.05 L36.75 38.45 37.45 39.15 40.25 41.95 40.6 42.5 41.0 43.1 41.1 43.25 Q40.05 43.25 38.3 44.15 36.6 45.05 35.6 45.05 L35.2 45.05 34.8 45.05 33.25 40.35 33.25 40.2" fill="none" stroke="#5c3d66" stroke-linecap="round" stroke-linejoin="round" stroke-width="5.0"/>
    <path d="M33.25 40.2 L33.25 40.35 34.8 45.05 35.2 45.05 35.6 45.05 Q36.6 45.05 38.3 44.15 40.05 43.25 41.1 43.25 L41.0 43.1 40.6 42.5 40.25 41.95 37.45 39.15 36.75 38.45 34.7 39.05 Q33.25 39.65 33.25 40.2 M28.55 38.8 L28.75 37.3 Q29.0 36.35 29.7 35.25 L30.95 33.4 32.5 30.8 Q33.4 29.6 34.8 29.15 L36.0 28.75 38.1 28.15 41.4 27.2 41.6 27.15 42.55 26.8 42.75 26.8 Q43.2 26.8 44.3 28.2 45.3 29.55 45.3 29.9 L45.3 30.1 45.25 30.3 44.25 31.0 42.75 32.05 40.25 33.8 38.9 34.7 37.5 35.55 43.7 35.55 Q44.0 35.55 44.7 37.65 L45.85 42.1 46.45 45.5 46.45 45.9 46.45 46.2 45.25 47.0 44.4 47.4 43.0 48.1 41.6 48.8 40.65 49.25 40.0 49.6 37.9 50.45 37.75 50.5 37.55 50.5 Q36.65 50.5 35.35 49.9 L33.25 48.9 32.75 48.7 30.55 47.75 29.75 47.35 29.55 46.8 29.4 46.2 Q28.55 41.45 28.55 38.8" fill="#ffffff" fill-rule="evenodd" stroke="none"/>
  </g>
</svg>
