<?xml version="1.0" encoding="UTF-8" standalone="no"?>
<svg xmlns:xlink="http://www.w3.org/1999/xlink" height="28.8px" width="39.0px" xmlns="http://www.w3.org/2000/svg">
  <g transform="matrix(1.0, 0.0, 0.0, 1.0, -17.9, -24.25)">
    <path d="M22.75 49.7 L22.75 49.35 22.75 48.9 22.75 48.45 22.75 48.1 Q22.75 45.0 23.25 41.85 L24.3 35.7 24.7 34.95 24.7 34.55 24.6 34.35 21.2 34.35 21.05 33.85 20.9 33.4 20.8 33.05 20.55 31.65 Q20.4 31.15 20.4 30.4 L20.4 30.0 20.5 29.8 21.2 29.55 26.8 27.65 28.2 27.2 30.5 26.75 30.5 50.55 30.15 50.55 28.95 50.5 28.55 50.45 27.4 50.35 22.75 49.7 M39.6 41.8 L39.6 42.3 Q39.55 42.65 40.05 43.1 L40.5 43.5 42.7 45.4 42.95 45.6 43.1 45.8 43.75 46.25 44.25 46.6 44.5 46.6 44.75 46.35 45.45 44.65 48.15 39.6 48.15 39.4 Q48.15 36.65 46.35 35.45 45.55 34.9 44.2 34.45 L41.95 33.8 41.55 33.8 41.4 33.95 41.15 34.2 40.15 37.95 Q39.6 40.15 39.6 41.8 M33.4 41.95 L33.4 41.55 34.15 39.4 34.95 37.3 35.75 34.9 37.3 30.7 37.7 29.9 38.4 29.55 39.25 29.15 40.4 28.75 43.9 27.6 45.05 27.2 45.25 27.15 45.45 27.15 Q46.25 27.15 47.35 28.4 L48.3 29.35 50.8 32.25 53.55 35.35 54.25 36.2 54.4 37.3 54.4 37.65 54.35 38.05 53.95 39.25 52.4 44.25 52.2 45.05 51.85 46.4 51.25 48.55 50.85 49.3 49.7 49.5 48.55 49.7 47.65 49.75 38.85 50.45 37.4 48.3 34.8 44.1 33.4 41.95" fill="#ffffff" fill-rule="evenodd" stroke="none"/>
    <path d="M33.4 41.95 L34.8 44.1 37.4 48.3 38.85 50.45 47.65 49.75 48.55 49.7 49.7 49.5 50.85 49.3 51.25 48.55 51.85 46.4 52.2 45.05 52.4 44.25 53.95 39.25 54.35 38.05 54.4 37.65 54.4 37.3 54.25 36.2 53.55 35.35 50.8 32.25 48.3 29.35 47.35 28.4 Q46.25 27.15 45.45 27.15 L45.25 27.15 45.05 27.2 43.9 27.6 40.4 28.75 39.25 29.15 38.4 29.55 37.7 29.9 37.3 30.7 35.75 34.9 34.95 37.3 34.15 39.4 33.4 41.55 33.4 41.95 M39.6 41.8 Q39.6 40.15 40.15 37.95 L41.15 34.2 41.4 33.95 41.55 33.8 41.95 33.8 44.2 34.45 Q45.55 34.9 46.35 35.45 48.15 36.65 48.15 39.4 L48.15 39.6 45.45 44.65 44.75 46.35 44.5 46.6 44.25 46.6 43.75 46.25 43.1 45.8 42.95 45.6 42.7 45.4 40.5 43.5 40.05 43.1 Q39.55 42.65 39.6 42.3 L39.6 41.8 M22.75 49.7 L27.4 50.35 28.55 50.45 28.95 50.5 30.15 50.55 30.5 50.55 30.5 26.75 28.2 27.2 26.8 27.65 21.2 29.55 20.5 29.8 20.4 30.0 20.4 30.4 Q20.4 31.15 20.55 31.65 L20.8 33.05 20.9 33.4 21.05 33.85 21.2 34.35 24.6 34.35 24.7 34.55 24.7 34.95 24.3 35.7 23.25 41.85 Q22.75 45.0 22.75 48.1 L22.75 48.45 22.75 48.9 22.75 49.35 22.75 49.7" fill="none" stroke="#7c5d00" stroke-linecap="round" stroke-linejoin="round" stroke-width="5.0"/>
    <path d="M22.75 49.7 L22.75 49.35 22.75 48.9 22.75 48.45 22.75 48.1 Q22.75 45.0 23.25 41.85 L24.3 35.7 24.7 34.95 24.7 34.55 24.6 34.35 21.2 34.35 21.05 33.85 20.9 33.4 20.8 33.05 20.55 31.65 Q20.4 31.15 20.4 30.4 L20.4 30.0 20.5 29.8 21.2 29.55 26.8 27.65 28.2 27.2 30.5 26.75 30.5 50.55 30.15 50.55 28.95 50.5 28.55 50.45 27.4 50.35 22.75 49.7 M39.6 41.8 L39.6 42.3 Q39.55 42.65 40.05 43.1 L40.5 43.5 42.7 45.4 42.95 45.6 43.1 45.8 43.75 46.25 44.25 46.6 44.5 46.6 44.75 46.35 45.45 44.65 48.15 39.6 48.15 39.4 Q48.15 36.65 46.35 35.45 45.55 34.9 44.2 34.45 L41.95 33.8 41.55 33.8 41.4 33.95 41.15 34.2 40.15 37.95 Q39.6 40.15 39.6 41.8 M33.4 41.95 L33.4 41.55 34.15 39.4 34.95 37.3 35.75 34.9 37.3 30.7 37.7 29.9 38.4 29.55 39.25 29.15 40.4 28.75 43.9 27.6 45.05 27.2 45.25 27.15 45.45 27.15 Q46.25 27.15 47.35 28.4 L48.3 29.35 50.8 32.25 53.55 35.35 54.25 36.2 54.4 37.3 54.4 37.65 54.35 38.05 53.95 39.25 52.4 44.25 52.2 45.05 51.85 46.4 51.25 48.55 50.85 49.3 49.7 49.5 48.55 49.7 47.65 49.75 38.85 50.45 37.4 48.3 34.8 44.1 33.4 41.95" fill="#ffffff" fill-rule="evenodd" stroke="none"/>
  </g>
</svg>
