<?xml version="1.0" encoding="UTF-8" standalone="no"?>
<svg xmlns:xlink="http://www.w3.org/1999/xlink" height="24.95px" width="53.8px" xmlns="http://www.w3.org/2000/svg">
  <g transform="matrix(1.0, 0.0, 0.0, 1.0, 24.75, 0.4)">
    <path d="M-14.9 0.5 L-15.2 0.6 -15.4 0.6 Q-14.25 0.1 -13.0 0.1 L-12.2 0.15 -11.8 0.2 -11.15 0.35 Q-9.85 0.7 -8.8 1.7 L-8.45 2.05 -8.2 2.35 Q-7.8 2.8 -7.55 3.4 L-7.35 3.95 -7.2 4.35 -7.65 3.9 -8.2 3.3 -8.65 2.85 Q-10.9 0.95 -13.25 0.65 L-14.7 0.55 -14.6 0.35 -14.9 0.5 M6.55 2.75 L7.35 2.4 7.7 2.25 7.75 2.35 8.5 3.25 7.35 3.8 6.65 2.85 6.55 2.75 M9.55 1.05 L9.7 0.85 9.75 0.75 9.95 0.6 10.0 0.5 10.05 0.25 10.35 0.25 10.75 0.5 10.55 0.6 10.6 0.6 11.2 0.7 Q12.35 1.1 13.4 2.0 L13.7 2.35 13.95 2.6 14.55 3.65 14.7 4.2 14.8 4.55 14.45 4.15 13.95 3.55 13.5 3.1 Q11.6 1.45 9.55 1.05 M16.75 9.95 L22.0 9.45 Q20.65 9.65 19.45 10.7 L15.05 10.75 14.45 10.8 13.8 11.5 13.55 11.8 10.5 12.0 10.5 11.8 10.55 11.1 10.0 11.1 10.0 11.05 9.8 10.05 9.8 9.95 9.35 8.0 10.5 8.0 10.6 10.05 10.6 10.15 10.6 10.3 10.6 10.95 10.6 11.0 10.55 11.1 10.6 11.0 13.8 10.65 14.45 10.8 13.8 10.65 15.05 10.25 15.5 10.05 16.75 9.95 M18.55 11.7 L17.95 12.7 13.05 12.65 12.65 13.6 10.15 13.65 10.45 12.7 13.05 12.65 13.55 11.8 18.55 11.7 M10.3 7.1 L9.1 7.25 8.6 6.05 8.15 4.95 7.9 4.65 7.65 4.2 8.85 3.75 9.9 5.8 10.3 7.1 M15.05 10.25 L15.05 10.75 15.05 10.25 M-11.3 11.2 L-9.5 11.1 -7.65 10.45 -5.25 10.3 -0.65 9.85 Q-2.15 10.05 -3.35 11.1 L-8.8 11.2 -9.5 11.95 -9.75 12.25 -20.0 12.8 Q-18.45 11.75 -16.5 11.65 L-16.35 11.65 -16.1 11.6 -11.3 11.2 M-9.5 11.1 L-8.8 11.2 -9.5 11.1 M-4.3 12.15 L-4.35 12.25 -4.95 13.2 -10.3 13.2 -9.75 12.25 -4.3 12.15" fill="#ffffff" fill-rule="evenodd" stroke="none"/>
    <path d="M-15.2 0.6 L-16.15 0.95 -15.4 0.6 -15.2 0.6 M-8.2 2.35 L-8.05 2.2 Q-5.55 3.15 -2.7 3.3 L-2.45 3.3 -1.75 3.4 -0.35 3.45 -0.3 3.45 2.6 3.4 2.7 3.4 3.0 3.4 3.65 3.35 4.3 3.25 4.75 3.15 5.05 3.1 5.45 3.05 6.1 2.85 6.55 2.75 6.65 2.85 7.35 3.8 8.5 3.25 8.85 3.75 8.5 3.25 7.75 2.35 7.7 2.25 9.55 1.05 Q11.6 1.45 13.5 3.1 L13.95 3.55 14.45 4.15 14.8 4.55 15.0 5.7 15.0 5.95 14.75 7.25 14.65 7.65 14.45 8.05 14.25 8.4 13.7 9.15 13.4 9.45 12.9 9.95 11.95 10.5 11.05 10.35 10.6 10.3 10.6 10.15 10.6 10.05 10.5 8.0 9.35 8.0 9.8 9.95 9.8 10.05 10.0 11.05 10.0 11.1 4.65 11.4 4.1 11.5 Q3.35 10.65 2.45 10.25 L2.0 10.05 0.1 9.75 0.0 9.75 -0.5 9.85 -0.65 9.85 -5.25 10.3 -6.15 9.55 -7.85 8.4 -7.65 8.0 -7.4 7.55 -7.05 5.75 -7.05 5.55 Q-7.05 4.95 -7.2 4.35 L-7.35 3.95 -7.55 3.4 Q-7.8 2.8 -8.2 2.35 M10.3 7.1 L10.5 8.0 10.3 7.1 9.9 5.8 8.85 3.75 7.65 4.2 7.9 4.65 8.15 4.95 8.6 6.05 9.1 7.25 10.3 7.1 M-14.7 0.55 L-13.25 0.65 Q-10.9 0.95 -8.65 2.85 L-8.2 3.3 -7.65 3.9 -7.2 4.35 Q-7.05 4.95 -7.05 5.55 L-7.05 5.75 -7.4 7.55 -7.65 8.0 -7.85 8.4 -8.8 9.45 -9.25 9.95 -10.3 10.55 -11.35 10.35 Q-18.8 9.1 -14.7 0.55" fill="#555c72" fill-rule="evenodd" stroke="none"/>
    <path d="M-5.25 10.3 L-7.65 10.45 -9.5 11.1 -11.3 11.2 -11.35 10.85 -10.3 10.55 -9.25 9.95 -6.15 9.55 -5.25 10.3" fill="#5a6267" fill-rule="evenodd" stroke="none"/>
    <path d="M26.25 14.7 Q26.0 13.55 25.3 12.7 24.2 11.4 22.65 11.45 L22.55 11.45 22.25 11.5 Q21.2 11.55 20.4 12.3 L19.95 12.8 19.8 13.0 19.4 13.7 Q19.1 14.25 18.95 14.9 18.85 15.5 18.9 16.15 18.9 18.05 19.95 19.3 L20.3 19.8 Q21.0 20.35 21.8 20.5 L22.65 20.6 Q24.2 20.5 25.3 19.15 26.35 17.8 26.4 15.95 L26.25 14.7 M22.0 9.45 L22.5 9.45 22.65 9.45 Q24.9 9.4 26.5 11.25 28.0 13.15 28.05 15.85 28.0 18.6 26.5 20.5 24.9 22.55 22.65 22.65 L21.45 22.55 19.3 21.45 18.75 20.8 Q17.15 18.95 17.2 16.2 17.15 14.2 17.95 12.7 L18.55 11.7 18.75 11.4 19.45 10.7 Q20.65 9.65 22.0 9.45 M3.5 22.25 Q2.0 23.45 0.1 23.55 L-1.15 23.45 Q-2.25 23.2 -3.2 22.5 L-3.45 22.3 -3.9 21.9 -4.1 21.65 -4.2 21.5 -5.05 20.3 Q-5.75 18.7 -5.75 16.9 L-5.65 15.1 -5.45 14.45 -4.95 13.2 -4.35 12.25 -4.3 12.15 -4.1 11.85 -3.95 11.75 -3.6 11.35 -3.35 11.1 Q-2.15 10.05 -0.65 9.85 L-0.5 9.85 0.0 9.75 0.1 9.75 2.0 10.05 2.45 10.25 Q3.35 10.65 4.1 11.5 L4.3 11.7 4.65 12.0 4.75 12.3 5.15 12.85 5.25 13.05 5.55 13.75 5.8 14.4 5.8 14.7 6.0 16.5 6.0 16.85 5.8 18.65 5.65 19.05 5.1 20.3 5.05 20.35 4.85 20.7 4.6 21.05 4.45 21.15 4.3 21.4 3.6 22.1 3.5 22.25 M4.1 15.3 L4.0 15.1 3.9 14.85 3.5 13.8 3.45 13.65 3.1 13.3 3.05 13.2 3.0 13.1 Q1.8 11.8 0.1 11.85 L0.05 11.9 -0.3 11.9 Q-1.45 12.0 -2.25 12.8 L-2.75 13.3 -2.9 13.5 -3.4 14.25 -3.85 15.55 -3.9 16.35 -3.95 16.8 -3.95 16.9 -3.95 16.95 Q-3.95 18.05 -3.6 18.8 L-3.4 19.25 -2.75 20.1 -2.65 20.35 -2.35 20.55 -0.8 21.4 -0.2 21.45 0.1 21.45 1.1 21.3 Q1.15 21.2 1.3 21.2 L1.8 21.0 2.0 20.85 3.05 19.9 3.1 19.85 3.5 19.2 3.55 19.15 3.7 18.8 Q4.2 17.8 4.2 16.55 L4.2 16.25 4.1 15.3" fill="#8d75b7" fill-rule="evenodd" stroke="none"/>
    <path d="M7.7 22.1 L6.5 22.1 6.5 21.55 6.6 21.55 7.7 21.4 7.7 22.1 M3.6 22.25 L3.5 22.25 3.6 22.1 3.6 22.25 M-22.25 15.75 L-23.4 14.5 -23.75 13.45 Q-23.75 11.1 -21.5 8.65 -20.2 7.25 -18.9 6.55 L-18.15 8.45 -19.6 9.45 Q-20.0 9.65 -20.25 10.0 L-20.6 10.6 Q-21.2 11.55 -21.15 12.5 L-21.15 12.8 -21.15 13.4 -20.85 13.65 -21.5 14.4 -22.25 15.75 M14.75 7.25 Q15.55 7.3 16.1 8.2 L16.35 8.7 16.75 9.95 15.5 10.05 15.05 10.25 14.65 9.6 Q14.15 9.2 13.7 9.15 L14.25 8.4 14.45 8.05 14.65 7.65 14.75 7.25 M16.1 8.2 Q15.35 9.3 14.65 9.6 15.35 9.3 16.1 8.2 M6.25 13.0 L7.7 12.95 7.7 14.6 7.3 14.6 6.4 14.5 6.25 14.5 6.25 13.0 M7.7 14.9 L7.7 16.5 6.75 16.55 6.35 16.55 6.3 14.8 7.3 14.9 7.7 14.9 M6.35 16.9 L6.75 16.9 7.7 16.8 7.7 18.95 7.3 18.95 6.45 18.85 6.35 16.9 M7.7 21.0 L6.6 21.25 6.5 21.3 6.45 19.2 7.3 19.2 7.7 19.2 7.7 21.0 M-22.3 10.1 L-21.35 10.1 -20.6 10.6 -21.35 10.1 -22.3 10.1 M-21.15 12.8 Q-21.75 12.8 -22.4 13.2 -23.05 13.45 -23.35 13.75 L-23.05 13.85 -23.35 13.75 Q-23.05 13.45 -22.4 13.2 -21.75 12.8 -21.15 12.8 M-19.6 9.45 Q-19.85 8.5 -20.65 8.55 -19.85 8.5 -19.6 9.45" fill="#666600" fill-rule="evenodd" stroke="none"/>
    <path d="M18.95 14.9 Q19.1 14.25 19.4 13.7 L19.8 13.0 19.95 12.8 20.4 12.3 Q21.2 11.55 22.25 11.5 L22.55 11.45 22.65 11.45 Q24.2 11.4 25.3 12.7 26.0 13.55 26.25 14.7 L18.95 14.9 M-3.85 15.55 L-3.4 14.25 -2.9 13.5 -2.75 13.3 -2.25 12.8 Q-1.45 12.0 -0.3 11.9 L0.05 11.9 0.1 11.85 Q1.8 11.8 3.0 13.1 L3.05 13.2 3.1 13.3 3.45 13.65 3.5 13.8 3.9 14.85 4.0 15.1 4.1 15.3 -3.85 15.55" fill="#604787" fill-rule="evenodd" stroke="none"/>
    <path d="M26.25 14.7 L26.4 15.95 Q26.35 17.8 25.3 19.15 24.2 20.5 22.65 20.6 L21.8 20.5 Q21.0 20.35 20.3 19.8 L19.95 19.3 Q18.9 18.05 18.9 16.15 18.85 15.5 18.95 14.9 L26.25 14.7 M19.45 10.7 L18.75 11.4 18.55 11.7 13.55 11.8 13.8 11.5 14.45 10.8 15.05 10.75 19.45 10.7 M17.95 12.7 Q17.15 14.2 17.2 16.2 17.15 18.95 18.75 20.8 L19.3 21.45 14.05 21.4 13.8 21.0 13.35 20.35 Q12.15 18.65 12.15 16.35 12.15 14.85 12.65 13.6 L13.05 12.65 17.95 12.7 M4.1 15.3 L4.2 16.25 4.2 16.55 Q4.2 17.8 3.7 18.8 L3.55 19.15 3.5 19.2 3.1 19.85 3.05 19.9 2.0 20.85 1.8 21.0 1.3 21.2 Q1.15 21.2 1.1 21.3 L0.1 21.45 -0.2 21.45 -0.8 21.4 -2.35 20.55 -2.65 20.35 -2.75 20.1 -3.4 19.25 -3.6 18.8 Q-3.95 18.05 -3.95 16.95 L-3.95 16.9 -3.95 16.8 -3.9 16.35 -3.85 15.55 4.1 15.3 M-9.75 12.25 L-9.5 11.95 -8.8 11.2 -3.35 11.1 -3.6 11.35 -3.95 11.75 -4.1 11.85 -4.3 12.15 -9.75 12.25 M-10.3 13.2 L-4.95 13.2 -5.45 14.45 -5.65 15.1 -5.75 16.9 Q-5.75 18.7 -5.05 20.3 L-4.2 21.5 -4.1 21.65 -3.9 21.9 -3.45 22.3 -9.15 22.25 -9.5 21.9 -10.0 21.2 Q-11.3 19.5 -11.3 16.95 -11.3 15.4 -10.75 14.1 L-10.6 13.65 -10.3 13.2" fill="#7b5eaa" fill-rule="evenodd" stroke="none"/>
    <path d="M21.45 22.55 L15.45 22.35 14.7 21.95 14.05 21.4 19.3 21.45 21.45 22.55 M-1.15 23.45 L-7.7 23.3 -8.5 22.85 -9.15 22.25 -3.45 22.3 -3.2 22.5 Q-2.25 23.2 -1.15 23.45" fill="#6f539d" fill-rule="evenodd" stroke="none"/>
    <path d="M-18.9 6.55 L-18.95 5.7 Q-18.95 3.3 -17.2 1.7 -16.8 1.35 -15.1 0.6 L-14.9 0.5 -14.6 0.35 -14.7 0.55 Q-18.8 9.1 -11.35 10.35 L-10.3 10.55 -11.35 10.85 -13.0 11.1 Q-15.4 11.1 -17.2 9.55 L-18.15 8.45 -18.9 6.55 M10.6 10.95 L10.6 10.3 11.05 10.35 11.95 10.5 11.05 10.85 10.6 10.95 M-6.15 9.55 L-9.25 9.95 -8.8 9.45 -7.85 8.4 -6.15 9.55" fill="#3f434f" fill-rule="evenodd" stroke="none"/>
    <path d="M10.0 11.1 L10.55 11.1 10.5 11.8 10.5 12.0 10.45 12.65 10.45 12.7 10.15 13.65 10.1 13.75 Q9.55 15.35 8.6 16.85 L8.6 16.5 9.0 15.95 8.85 15.75 8.6 16.05 8.6 14.6 9.0 14.2 8.95 14.1 Q8.9 14.1 8.6 14.25 L8.6 12.95 7.7 12.95 6.25 13.0 5.25 13.05 5.15 12.85 4.75 12.3 4.65 12.0 4.3 11.7 4.1 11.5 4.65 11.4 10.0 11.1" fill="#32353f" fill-rule="evenodd" stroke="none"/>
    <path d="M-20.75 21.05 Q-22.4 19.55 -22.4 17.35 L-22.25 15.75 -21.5 14.4 -10.75 14.1 Q-11.3 15.4 -11.3 16.95 -11.3 19.5 -10.0 21.2 L-20.75 21.05 M10.5 12.0 L13.55 11.8 13.05 12.65 10.45 12.7 10.45 12.65 10.5 12.0 M8.6 16.85 Q9.55 15.35 10.1 13.75 L10.15 13.65 12.65 13.6 Q12.15 14.85 12.15 16.35 12.15 18.65 13.35 20.35 L8.7 20.35 8.65 20.25 8.6 20.1 8.6 16.85" fill="#707585" fill-rule="evenodd" stroke="none"/>
    <path d="M8.6 14.25 Q8.9 14.1 8.95 14.1 L9.0 14.2 8.6 14.6 8.3 14.7 7.7 14.9 7.3 14.9 6.3 14.8 6.15 14.75 5.8 14.7 5.8 14.4 6.25 14.5 6.4 14.5 7.3 14.6 7.7 14.6 8.5 14.35 8.6 14.25 M8.6 16.05 L8.85 15.75 9.0 15.95 8.6 16.5 8.45 16.5 7.7 16.8 6.75 16.9 6.35 16.9 6.0 16.85 6.0 16.5 6.35 16.55 6.75 16.55 7.7 16.5 8.35 16.15 8.6 16.05 M6.45 18.85 L7.3 18.95 7.7 18.95 8.35 18.7 8.5 18.45 8.55 18.9 7.7 19.2 7.3 19.2 6.45 19.2 6.0 19.1 5.65 19.05 5.8 18.65 6.15 18.8 6.45 18.85 M4.85 20.7 L5.05 20.7 5.2 20.75 5.3 20.8 5.3 20.9 5.5 21.0 6.5 21.3 6.6 21.25 7.7 21.0 7.95 20.75 8.3 20.35 8.5 20.0 8.6 20.1 8.6 20.55 8.6 20.1 8.65 20.25 8.7 20.35 8.65 20.45 8.6 20.55 8.55 20.6 8.15 21.1 Q7.85 21.2 7.7 21.4 L6.6 21.55 6.5 21.55 5.45 21.45 5.05 21.1 4.9 21.1 4.75 21.15 4.45 21.15 4.6 21.05 4.85 20.7" fill="#3a3a00" fill-rule="evenodd" stroke="none"/>
    <path d="M14.7 21.95 L8.6 21.8 8.6 20.55 8.65 20.45 8.7 20.35 13.35 20.35 13.8 21.0 14.05 21.4 14.7 21.95 M-8.5 22.85 L-16.35 22.65 -17.15 22.65 Q-19.15 22.5 -20.65 21.15 L-20.75 21.05 -10.0 21.2 -9.5 21.9 -9.15 22.25 -8.5 22.85" fill="#636876" fill-rule="evenodd" stroke="none"/>
    <path d="M6.5 22.1 L5.05 22.15 5.05 21.1 5.45 21.45 6.5 21.55 6.5 22.1 M5.25 13.05 L6.25 13.0 6.25 14.5 5.8 14.4 5.55 13.75 5.25 13.05 M5.8 14.7 L6.15 14.75 6.3 14.8 6.35 16.55 6.0 16.5 5.8 14.7 M6.0 16.85 L6.35 16.9 6.45 18.85 6.15 18.8 5.8 18.65 6.0 16.85 M5.05 20.7 L5.05 20.35 5.1 20.3 5.65 19.05 6.0 19.1 6.45 19.2 6.5 21.3 5.5 21.0 5.3 20.9 5.3 20.8 5.2 20.75 5.05 20.7" fill="#535300" fill-rule="evenodd" stroke="none"/>
    <path d="M8.6 21.8 L8.6 22.0 8.6 22.05 7.7 22.1 7.7 21.4 Q7.85 21.2 8.15 21.1 L8.55 20.6 8.6 20.55 8.6 21.8 M5.05 22.15 L3.6 22.25 3.6 22.1 4.3 21.4 4.45 21.15 4.75 21.15 4.9 21.1 5.05 21.1 5.05 22.15 M7.7 12.95 L8.6 12.95 8.6 14.25 8.5 14.35 7.7 14.6 7.7 12.95 M8.6 14.6 L8.6 16.05 8.35 16.15 7.7 16.5 7.7 14.9 8.3 14.7 8.6 14.6 M8.6 16.5 L8.6 16.85 8.6 20.1 8.5 20.0 8.3 20.35 7.95 20.75 7.7 21.0 7.7 19.2 8.55 18.9 8.5 18.45 8.35 18.7 7.7 18.95 7.7 16.8 8.45 16.5 8.6 16.5 M5.05 20.7 L4.85 20.7 5.05 20.35 5.05 20.7" fill="#848400" fill-rule="evenodd" stroke="none"/>
    <path d="M-18.9 6.55 L-18.95 5.7 Q-18.95 3.3 -17.2 1.7 -16.8 1.35 -15.1 0.6 L-14.9 0.5 -15.2 0.6 -16.15 0.95 M-8.2 2.35 L-8.05 2.2 M10.75 0.5 L10.55 0.6 10.6 0.6 11.2 0.7 Q12.35 1.1 13.4 2.0 L13.7 2.35 13.95 2.6 14.55 3.65 14.7 4.2 14.8 4.55 15.0 5.7 15.0 5.95 14.75 7.25 14.65 7.65 14.45 8.05 14.25 8.4 13.7 9.15 M10.5 8.0 L10.3 7.1 9.9 5.8 8.85 3.75 8.5 3.25 7.75 2.35 7.7 2.25 M10.6 10.3 L10.6 10.15 10.6 10.05 10.5 8.0 M10.55 11.1 L10.6 11.0 10.6 10.95 10.6 10.3 M11.95 10.5 L12.9 9.95 13.4 9.45 13.7 9.15 M10.55 11.1 L10.5 11.8 10.5 12.0 M11.95 10.5 L11.05 10.85 10.6 10.95 M5.25 13.05 L6.25 13.0 7.7 12.95 8.6 12.95 M8.6 16.85 Q9.55 15.35 10.1 13.75 L10.15 13.65 10.45 12.7 10.45 12.65 10.5 12.0 M-7.2 4.35 L-7.35 3.95 -7.55 3.4 Q-7.8 2.8 -8.2 2.35 M-7.85 8.4 L-7.65 8.0 -7.4 7.55 -7.05 5.75 -7.05 5.55 Q-7.05 4.95 -7.2 4.35 M-9.25 9.95 L-10.3 10.55 -11.35 10.85 -11.3 11.2 M-9.25 9.95 L-8.8 9.45 -7.85 8.4 M-14.6 0.35 L-14.9 0.5 M-18.15 8.45 L-18.9 6.55 M-11.35 10.85 L-13.0 11.1 Q-15.4 11.1 -17.2 9.55 L-18.15 8.45" fill="none" stroke="#333333" stroke-linecap="round" stroke-linejoin="round" stroke-width="1.5"/>
    <path d="M22.0 9.45 L22.5 9.45 22.65 9.45 Q24.9 9.4 26.5 11.25 28.0 13.15 28.05 15.85 28.0 18.6 26.5 20.5 24.9 22.55 22.65 22.65 L21.45 22.55 15.45 22.35 14.7 21.95 8.6 21.8 M3.5 22.25 Q2.0 23.45 0.1 23.55 L-1.15 23.45 -7.7 23.3 -8.5 22.85 -16.35 22.65 -17.15 22.65 Q-19.15 22.5 -20.65 21.15 L-20.75 21.05 Q-22.4 19.55 -22.4 17.35 L-22.25 15.75 M16.75 9.95 L22.0 9.45 M13.8 10.65 L10.6 11.0 M15.05 10.25 L13.8 10.65 M15.05 10.25 L15.5 10.05 16.75 9.95 M-0.65 9.85 L-0.5 9.85 0.0 9.75 0.1 9.75 2.0 10.05 2.45 10.25 Q3.35 10.65 4.1 11.5 L4.3 11.7 4.65 12.0 4.75 12.3 5.15 12.85 5.25 13.05 5.55 13.75 5.8 14.4 5.8 14.7 6.0 16.5 6.0 16.85 5.8 18.65 5.65 19.05 5.1 20.3 5.05 20.35 4.85 20.7 4.6 21.05 4.45 21.15 4.3 21.4 3.6 22.1 3.5 22.25 M-11.3 11.2 L-9.5 11.1 -7.65 10.45 -5.25 10.3 M-11.3 11.2 L-16.1 11.6 -16.35 11.65 -16.5 11.65 Q-18.45 11.75 -20.0 12.8 M-0.65 9.85 L-5.25 10.3 M-20.85 13.65 L-20.75 13.4 -20.65 13.35 -20.0 12.8 M-21.5 14.4 L-22.25 15.75 M-21.5 14.4 L-20.85 13.65" fill="none" stroke="#1e2027" stroke-linecap="round" stroke-linejoin="round" stroke-width="2.0"/>
    <path d="M-22.25 15.75 L-23.4 14.5 -23.75 13.45 Q-23.75 11.1 -21.5 8.65 -20.2 7.25 -18.9 6.55 M14.75 7.25 Q15.55 7.3 16.1 8.2 L16.35 8.7 16.75 9.95 M13.7 9.15 Q14.15 9.2 14.65 9.6 15.35 9.3 16.1 8.2 M15.05 10.75 L15.05 10.25 M14.65 9.6 L15.05 10.25 M-18.15 8.45 L-19.6 9.45 Q-20.0 9.65 -20.25 10.0 L-20.6 10.6 Q-21.2 11.55 -21.15 12.5 L-21.15 12.8 -21.15 13.4 -20.85 13.65 -20.25 14.05 M-20.6 10.6 L-21.35 10.1 -22.3 10.1 M-23.05 13.85 L-23.35 13.75 Q-23.05 13.45 -22.4 13.2 -21.75 12.8 -21.15 12.8 M-20.65 8.55 Q-19.85 8.5 -19.6 9.45" fill="none" stroke="#3a3a00" stroke-linecap="round" stroke-linejoin="round" stroke-width="2.0"/>
    <path d="M14.45 10.8 L13.8 10.65 M-8.8 11.2 L-9.5 11.1" fill="none" stroke="#1e2027" stroke-linecap="round" stroke-linejoin="round" stroke-width="1.0"/>
    <path d="M8.6 21.8 L8.6 22.0 M8.6 12.95 L8.6 14.25 M8.6 14.6 L8.6 16.05 M8.6 16.5 L8.6 16.85 M5.05 20.7 L5.05 20.35 M8.6 20.55 L8.6 20.1 8.6 16.85 M5.05 21.1 L5.05 22.15 M8.6 20.55 L8.6 21.8" fill="none" stroke="#3a3a00" stroke-linecap="round" stroke-linejoin="round" stroke-width="1.5"/>
  </g>
</svg>
