<?xml version="1.0" encoding="UTF-8" standalone="no"?>
<svg xmlns:xlink="http://www.w3.org/1999/xlink" height="53.95px" width="78.7px" xmlns="http://www.w3.org/2000/svg">
  <g transform="matrix(1.0, 0.0, 0.0, 1.0, 35.7, 25.4)">
    <path d="M21.5 -0.9 Q22.35 -1.85 23.6 -1.95 24.9 -2.05 25.85 -1.15 26.8 -0.3 26.85 1.0 26.95 2.25 26.1 3.2 20.85 9.1 13.45 5.65 L13.5 5.65 Q6.6 2.45 6.4 -3.5 6.05 -9.45 9.4 -14.45 L9.35 -14.45 Q13.8 -21.3 22.25 -20.25 36.85 -18.6 37.95 -2.35 38.55 6.35 32.7 13.35 24.9 22.8 6.9 23.5 -10.0 24.15 -22.0 11.05 -27.9 4.6 -30.45 -2.05 -30.95 -3.2 -30.4 -4.4 -29.9 -5.55 -28.75 -6.0 L-26.35 -5.95 Q-25.2 -5.45 -24.7 -4.25 -22.5 1.35 -17.45 6.9 -7.45 17.8 6.7 17.35 21.4 16.8 28.0 9.35 32.2 4.35 31.8 -1.95 31.05 -12.8 21.45 -14.1 16.9 -14.7 14.5 -11.05 12.35 -7.8 12.6 -3.9 12.95 -1.4 16.05 0.05 19.2 1.5 21.5 -0.9" fill="#135627" fill-rule="evenodd" stroke="none"/>
    <path d="M21.5 -0.9 Q19.2 1.5 16.05 0.05 12.95 -1.4 12.6 -3.9 12.35 -7.8 14.5 -11.05 16.9 -14.7 21.45 -14.1 31.05 -12.8 31.8 -1.95 32.2 4.35 28.0 9.35 21.4 16.8 6.7 17.35 -7.45 17.8 -17.45 6.9 -22.5 1.35 -24.7 -4.25 -25.2 -5.45 -26.35 -5.95 L-28.75 -6.0 Q-29.9 -5.55 -30.4 -4.4 -30.95 -3.2 -30.45 -2.05 -27.9 4.6 -22.0 11.05 -10.0 24.15 6.9 23.5 24.9 22.8 32.7 13.35 38.55 6.35 37.95 -2.35 36.85 -18.6 22.25 -20.25 13.8 -21.3 9.35 -14.45 L9.4 -14.45 Q6.05 -9.45 6.4 -3.5 6.6 2.45 13.5 5.65 L13.45 5.65 Q20.85 9.1 26.1 3.2 26.95 2.25 26.85 1.0 26.8 -0.3 25.85 -1.15 24.9 -2.05 23.6 -1.95 22.35 -1.85 21.5 -0.9 Z" fill="none" stroke="#135627" stroke-linecap="round" stroke-linejoin="round" stroke-width="10.0"/>
    <path d="M-27.6 -3.15 Q-25.2 3.0 -19.75 8.95 -8.75 20.95 6.8 20.4 23.15 19.8 30.35 11.3 35.4 5.35 34.9 -2.2 33.95 -15.7 21.85 -17.2 15.35 -18.0 11.95 -12.75 9.2 -8.6 9.5 -3.7 9.75 0.5 14.75 2.85 20.05 5.3 23.8 1.15" fill="none" stroke="#248a43" stroke-linecap="round" stroke-linejoin="round" stroke-width="8.0"/>
  </g>
</svg>
