<?xml version="1.0" encoding="UTF-8" standalone="no"?>
<svg xmlns:xlink="http://www.w3.org/1999/xlink" height="187.6px" width="182.2px" xmlns="http://www.w3.org/2000/svg">
  <g transform="matrix(1.0, 0.0, 0.0, 1.0, 85.5, 192.1)">
    <path d="M-78.45 -153.75 Q-90.05 -119.1 -82.5 -74.55 -79.55 -57.2 -74.15 -41.85 -69.35 -28.1 -64.45 -20.75 -60.2 -14.35 -42.4 -10.0 -26.3 -6.1 -4.15 -4.95 17.45 -3.8 35.3 -5.75 54.3 -7.85 61.0 -12.75 68.1 -17.95 75.75 -31.45 83.7 -45.45 89.1 -63.05 102.4 -106.4 92.5 -140.25 86.9 -159.25 62.3 -173.55 39.1 -187.05 9.3 -190.85 -21.6 -194.8 -44.85 -186.2 -70.8 -176.6 -78.45 -153.75" fill="#70381f" fill-rule="evenodd" stroke="none"/>
  </g>
</svg>
