<?xml version="1.0" encoding="UTF-8" standalone="no"?>
<svg xmlns:xlink="http://www.w3.org/1999/xlink" height="186.0px" width="223.75px" xmlns="http://www.w3.org/2000/svg">
  <g transform="matrix(1.0, 0.0, 0.0, 1.0, 105.85, 210.9)">
    <path d="M61.65 -200.7 Q39.55 -209.2 10.8 -210.6 -17.05 -212.1 -39.8 -206.15 -63.35 -200.3 -71.55 -188.35 -80.85 -174.65 -86.05 -155.55 -87.95 -148.05 -89.4 -139.5 L-92.15 -119.85 Q-93.2 -110.6 -94.85 -107.25 -98.2 -99.8 -101.8 -88.45 L-104.1 -79.65 -104.75 -76.35 -105.4 -72.15 -105.85 -67.45 Q-103.05 -58.4 -93.45 -48.9 L-87.4 -44.0 -81.05 -39.2 Q-75.05 -34.4 -51.2 -30.7 -29.15 -27.1 -0.05 -25.7 29.35 -24.2 52.45 -25.55 77.85 -27.05 86.55 -31.45 L96.45 -36.8 Q109.05 -44.55 116.2 -53.15 117.55 -56.0 117.75 -59.0 L117.85 -62.25 117.85 -63.35 117.8 -64.05 117.7 -65.2 Q117.8 -66.0 117.55 -66.6 117.15 -71.05 115.55 -76.15 115.5 -77.05 109.55 -92.5 108.35 -96.0 108.6 -104.95 109.05 -120.5 108.9 -124.0 108.85 -129.75 108.05 -135.15 107.9 -137.65 107.35 -140.1 L106.6 -144.45 Q103.2 -161.95 94.15 -177.2 85.75 -191.8 61.65 -200.7" fill="#203301" fill-rule="evenodd" stroke="none"/>
  </g>
</svg>
