<?xml version="1.0" encoding="UTF-8" standalone="no"?>
<svg xmlns:xlink="http://www.w3.org/1999/xlink" height="25.8px" width="7.25px" xmlns="http://www.w3.org/2000/svg">
  <g transform="matrix(1.0, 0.0, 0.0, 1.0, 3.9, 12.4)">
    <path d="M1.25 -12.4 Q2.15 -12.4 2.8 -11.75 3.35 -11.2 3.35 -10.3 L3.35 11.3 Q3.35 12.2 2.8 12.8 2.15 13.4 1.25 13.4 L-1.8 13.4 Q-2.7 13.4 -3.25 12.8 -3.9 12.2 -3.9 11.3 L-3.9 -10.3 Q-3.9 -11.2 -3.25 -11.75 -2.7 -12.4 -1.8 -12.4 L1.25 -12.4" fill="#423200" fill-rule="evenodd" stroke="none"/>
    <path d="M1.2 10.75 L-1.7 10.75 -1.7 -9.8 1.2 -9.8 1.2 10.75" fill="#ce9b00" fill-rule="evenodd" stroke="none"/>
  </g>
</svg>
