<?xml version="1.0" encoding="UTF-8" standalone="no"?>
<svg xmlns:xlink="http://www.w3.org/1999/xlink" height="271.65px" width="408.1px" xmlns="http://www.w3.org/2000/svg">
  <g transform="matrix(1.0, 0.0, 0.0, 1.0, -206.6, -153.25)">
    <path d="M521.4 168.9 L526.25 168.45 556.45 168.4 559.65 168.0 563.05 167.8 582.2 167.95 582.2 169.15 587.9 169.25 591.6 168.85 603.55 168.4 603.55 170.0 Q605.35 170.05 605.65 170.45 L608.05 170.45 608.05 178.85 607.05 178.8 606.8 185.1 Q606.75 188.75 608.05 190.95 L608.15 196.6 608.05 236.25 Q607.4 239.4 607.4 241.55 L608.05 246.75 607.05 246.75 607.05 275.05 607.4 275.05 607.6 282.5 608.05 286.45 608.05 299.35 Q607.35 302.5 606.7 310.1 605.85 318.35 605.85 322.8 605.85 324.95 606.95 330.35 607.95 335.6 608.05 337.95 L608.05 358.8 607.75 362.85 606.35 374.15 606.35 383.45 608.05 383.5 608.05 394.25 Q607.15 397.6 606.35 404.5 605.2 413.1 605.2 417.95 L605.3 419.7 542.5 419.7 542.5 418.65 525.75 419.7 494.8 419.7 494.8 418.65 488.65 418.55 488.6 419.5 487.0 419.5 487.05 419.7 453.8 419.7 452.8 419.0 452.8 414.6 452.25 414.6 452.25 413.1 446.1 412.95 445.7 413.4 445.05 414.0 445.05 416.55 444.45 416.55 444.05 417.25 443.3 418.15 443.3 418.65 Q435.1 418.55 434.15 418.7 434.3 419.25 432.05 419.5 L432.05 419.7 377.45 419.7 377.15 419.6 376.6 419.15 372.1 418.75 372.1 415.9 365.95 415.9 365.95 417.85 362.55 417.85 360.15 419.7 214.65 419.7 Q214.25 419.5 214.1 419.0 L214.1 416.3 Q212.4 414.05 211.7 411.1 L211.7 392.7 212.4 392.7 212.4 360.2 Q212.0 358.95 211.7 356.85 L211.7 341.05 Q212.0 335.25 212.4 331.9 L212.4 317.45 212.95 317.45 212.95 306.35 Q212.4 305.05 212.4 302.65 L211.7 302.65 211.7 300.8 213.5 300.8 213.5 296.25 Q212.95 294.8 212.65 291.95 L212.4 288.8 212.5 285.75 212.95 281.8 212.95 251.8 211.7 251.8 211.7 250.1 212.95 250.25 212.95 231.8 211.7 224.8 211.7 213.3 212.4 213.3 Q212.4 211.9 212.95 210.6 L212.95 196.3 Q213.0 194.05 213.5 193.0 L213.5 178.8 Q213.15 176.1 213.0 171.2 214.25 169.25 215.65 167.75 L220.15 167.75 220.15 168.8 236.45 168.85 243.15 168.2 246.55 167.75 250.6 167.75 250.6 168.8 Q254.7 168.55 260.1 168.8 L275.7 168.9 286.35 169.3 298.1 169.55 304.5 168.55 311.55 167.75 439.3 167.75 439.3 169.15 451.7 169.25 453.35 168.9 479.1 168.85 479.1 167.75 504.9 167.75 504.9 169.15 516.1 169.25 521.4 168.9" fill="#000000" fill-opacity="0.3019608" fill-rule="evenodd" stroke="none"/>
    <path d="M506.55 164.5 L517.8 164.7 523.15 164.35 527.9 164.0 558.2 163.8 561.4 163.55 564.8 163.35 583.95 163.5 583.95 164.5 589.55 164.7 593.35 164.3 605.25 163.8 605.25 165.45 607.4 165.75 609.85 165.75 609.85 174.45 608.75 174.35 Q608.95 176.3 608.55 180.6 608.5 184.35 609.85 186.55 L609.9 192.1 609.85 232.0 Q609.2 235.3 609.2 237.35 L609.85 242.8 608.75 242.8 608.75 271.05 609.2 271.05 609.3 278.5 Q609.45 280.85 609.85 282.6 L609.85 295.4 Q609.2 298.55 608.4 306.45 607.65 314.6 607.65 318.95 607.65 321.3 608.7 326.75 609.8 331.85 609.85 334.25 L609.85 355.25 609.45 359.4 608.15 370.7 608.15 380.0 609.85 380.05 609.85 390.8 Q608.9 394.2 608.15 401.2 606.95 409.8 606.95 414.55 606.95 415.65 607.1 416.55 L544.35 416.55 544.35 415.55 527.5 416.55 496.55 416.55 496.55 415.55 490.4 415.25 490.35 416.3 488.7 416.3 488.8 416.55 455.5 416.55 454.5 415.75 454.5 411.35 453.95 411.35 453.95 409.8 447.85 409.65 447.4 410.1 446.7 410.7 446.7 413.3 446.15 413.3 445.8 414.15 445.05 414.95 445.05 415.55 Q436.85 415.25 435.9 415.6 436.0 416.0 433.8 416.3 L433.8 416.55 379.1 416.55 378.85 416.4 378.35 415.9 373.75 415.65 373.75 412.55 367.7 412.55 367.7 414.5 364.35 414.5 361.8 416.55 216.3 416.55 215.75 415.75 215.75 413.0 Q214.1 410.8 213.35 407.85 L213.35 389.4 214.1 389.4 214.1 356.75 Q213.6 355.35 213.35 353.4 L213.35 337.25 Q213.7 331.45 214.1 328.15 L214.1 313.65 214.65 313.65 214.65 302.45 Q214.1 301.3 214.1 298.85 L213.35 298.85 213.35 297.0 215.15 297.0 215.15 292.35 Q214.65 291.0 214.2 288.1 L214.1 284.7 214.15 281.7 214.65 277.85 214.65 247.75 213.35 247.75 213.35 246.05 214.65 246.1 214.65 227.45 213.35 220.6 213.35 209.1 214.1 209.1 Q214.1 207.55 214.65 206.4 L214.65 191.75 Q214.7 189.6 215.15 188.6 L215.15 174.35 Q214.75 171.6 214.7 166.75 215.95 164.7 217.35 163.2 L221.85 163.2 221.85 164.15 238.2 164.3 244.9 163.7 248.3 163.2 252.25 163.2 252.25 164.15 261.75 164.15 277.4 164.35 288.0 164.8 299.85 164.95 306.2 164.05 313.25 163.2 441.0 163.2 441.0 164.5 453.35 164.7 455.1 164.35 480.85 164.3 480.85 163.2 506.55 163.2 506.55 164.5" fill="#ce9d46" fill-rule="evenodd" stroke="none"/>
    <path d="M524.6 157.9 L525.15 157.9 526.2 160.7 526.95 163.5 Q526.95 165.05 526.8 164.3 L526.2 165.0 Q525.55 164.45 525.05 162.75 524.45 160.8 524.45 159.45 524.45 158.45 524.6 158.05 L524.6 157.9 M509.05 165.8 L509.05 165.9 506.8 165.9 506.0 163.3 Q505.15 159.6 505.15 158.95 505.15 157.8 505.75 157.5 L506.4 157.45 Q508.3 159.5 509.05 165.8 M503.7 165.9 L505.85 165.9 505.7 167.15 Q505.45 167.5 504.6 167.5 504.15 167.5 503.7 165.9 M586.9 158.7 Q587.25 158.85 587.25 160.0 587.25 161.1 586.3 163.55 L584.85 166.95 584.25 167.25 583.75 165.65 583.65 163.8 Q583.65 162.5 584.5 160.75 585.25 159.1 586.1 158.3 L586.9 158.7 M604.7 185.35 Q607.5 185.05 610.55 184.0 L613.9 183.15 614.25 184.25 612.75 185.9 Q611.5 186.6 608.9 186.6 L604.8 185.95 604.7 185.35 M612.15 192.2 L608.8 191.85 606.2 191.05 Q607.35 190.5 609.8 190.2 612.0 189.95 613.4 190.2 L613.7 191.15 613.35 192.05 612.15 192.2 M352.0 159.25 Q352.0 156.5 353.3 155.9 L355.5 166.95 Q355.25 168.1 354.55 168.35 354.2 168.15 353.15 164.1 352.0 160.2 352.0 159.25 M363.95 159.1 L364.4 159.1 Q365.7 160.35 366.1 162.75 L366.85 166.6 Q366.45 167.5 365.95 167.6 364.9 166.3 364.15 163.95 363.55 161.85 363.55 160.3 363.55 159.2 363.95 159.1 M404.1 158.55 Q404.1 160.55 400.7 168.95 L399.75 168.95 399.55 166.8 Q399.55 165.75 401.05 161.3 402.55 157.05 403.15 156.5 L403.8 157.05 Q404.1 157.3 404.1 158.55 M396.6 168.95 L397.55 168.95 397.5 169.0 396.6 169.0 396.6 168.95 M458.8 162.1 L458.0 158.05 458.35 157.6 Q458.8 157.9 460.0 160.7 461.0 163.5 461.0 164.45 L460.85 165.35 460.35 165.3 Q459.2 164.45 458.8 162.1 M614.55 227.9 Q614.1 228.4 613.35 228.4 L610.3 227.5 606.75 226.45 Q606.5 227.3 606.5 225.6 606.5 221.7 614.7 226.9 L614.55 227.9 M603.95 276.35 Q604.95 275.4 606.2 275.0 L611.2 274.7 612.0 274.85 Q612.2 274.9 612.2 276.0 L612.15 277.05 611.9 277.45 606.9 277.45 Q604.15 276.95 603.95 276.35 M603.55 265.85 L603.6 265.9 609.55 265.8 610.65 265.85 612.45 266.0 612.7 267.1 Q612.25 268.0 611.7 268.15 L603.55 268.15 Q603.4 268.1 603.4 267.05 603.4 265.9 603.55 265.85 M611.9 370.2 Q611.75 371.6 610.8 372.05 L608.2 370.2 606.1 368.4 Q607.15 366.2 609.2 367.4 610.65 368.25 611.9 370.2 M211.7 177.85 Q209.2 177.4 208.95 177.05 212.0 173.65 216.9 175.6 L217.35 176.75 216.55 177.6 Q215.95 178.1 215.1 178.1 L211.7 177.85 M282.85 164.8 L282.8 163.5 Q282.8 162.7 283.15 160.65 L283.55 157.7 284.4 157.7 284.55 158.45 284.6 159.85 284.1 165.0 283.0 165.3 282.85 164.8 M247.95 167.55 L246.9 166.55 Q246.65 166.15 246.65 164.85 246.65 155.3 248.5 153.25 249.1 154.15 249.3 156.25 L249.6 158.85 Q249.6 162.9 249.1 166.65 L248.7 167.0 247.95 167.55 M304.1 165.5 L303.6 165.9 302.45 165.9 Q301.6 160.65 301.6 157.25 L301.6 155.9 301.8 155.55 302.65 155.55 Q303.85 156.9 303.8 160.55 303.7 164.5 304.1 165.5 M299.45 166.2 L299.25 165.9 300.5 165.9 299.45 166.2 M209.0 218.6 Q211.55 217.75 215.55 218.0 L215.65 217.9 Q215.85 218.1 215.85 219.2 215.85 220.2 213.15 221.15 L207.8 221.9 206.95 221.75 206.95 221.65 Q206.6 222.4 206.6 220.75 206.6 219.55 209.0 218.6 M216.95 254.1 Q216.95 256.85 207.8 259.6 207.0 259.6 206.95 259.4 L206.95 259.2 Q206.6 260.05 206.6 258.4 206.6 257.7 211.0 255.2 215.4 252.6 216.75 252.75 216.75 253.0 216.95 253.05 L216.95 254.1 M216.8 356.9 L217.1 357.9 216.8 359.35 214.85 359.7 212.65 360.2 211.5 360.15 Q211.25 360.0 211.25 358.9 211.25 357.5 213.3 356.95 215.4 356.35 216.8 356.9 M209.1 370.3 Q211.7 366.5 212.75 366.45 213.55 366.45 216.5 368.4 L216.8 369.45 Q216.25 370.75 215.4 371.1 L211.05 371.1 Q209.55 370.85 209.1 370.3 M292.3 411.0 Q294.45 412.25 295.45 417.85 L295.85 421.2 295.9 423.05 295.85 424.25 295.7 424.5 295.0 424.9 Q293.7 422.9 293.05 418.65 292.6 413.75 292.15 411.6 L292.3 411.0 M259.45 409.3 L260.25 409.8 Q260.45 410.2 260.45 411.35 260.45 413.45 259.45 417.3 L258.05 423.25 Q257.75 423.65 257.25 423.65 L256.3 423.5 256.25 421.95 Q256.25 420.65 257.3 415.65 258.65 410.1 259.45 409.3 M220.3 408.1 L214.35 412.1 209.5 415.2 208.35 414.35 Q208.8 413.6 210.55 412.1 L213.35 409.8 Q215.7 408.1 217.35 407.4 219.05 406.6 220.05 406.9 L220.25 406.8 220.3 407.4 220.3 408.1 M586.0 418.7 Q585.9 416.5 586.1 414.4 586.45 410.1 587.9 409.3 588.35 410.3 588.7 413.45 L588.7 421.85 Q588.05 422.9 587.6 423.05 586.4 422.25 586.1 420.85 L586.0 418.7 M527.35 411.8 L527.85 411.75 529.2 411.75 Q529.25 413.45 529.75 416.5 L530.7 421.6 530.45 422.45 Q530.1 423.0 529.25 423.0 L528.2 422.9 528.2 422.65 527.35 417.15 527.0 412.95 Q527.0 411.8 527.35 411.8 M502.1 418.0 Q501.65 420.55 500.35 421.9 L499.8 421.6 Q499.55 421.3 499.55 420.2 499.55 418.0 500.35 413.75 501.3 409.7 501.65 409.5 502.3 410.6 502.3 413.4 L502.1 418.0 M487.0 422.15 Q486.65 422.75 485.85 422.75 484.8 422.75 483.25 413.2 483.25 412.0 483.4 411.6 483.6 411.25 484.25 411.0 485.45 412.25 486.0 415.75 486.65 419.9 487.4 421.4 L487.0 422.15 M475.8 409.5 Q476.25 412.25 476.35 416.6 L476.65 423.65 Q476.25 424.45 475.65 424.65 L474.9 424.2 Q474.7 423.9 474.7 422.75 L474.5 415.2 Q474.55 410.6 475.8 409.5 M407.65 413.2 Q407.65 412.0 408.0 411.6 408.1 411.25 408.8 411.0 410.05 412.25 410.5 415.75 411.2 419.9 411.85 421.4 L411.55 422.15 Q411.2 422.75 410.35 422.75 409.3 422.75 407.65 413.2 M400.35 409.5 L400.9 416.6 401.1 423.65 Q400.7 424.45 400.15 424.65 L399.35 424.2 399.15 422.75 399.0 415.2 Q399.05 410.6 400.35 409.5" fill="#a88335" fill-rule="evenodd" stroke="none"/>
  </g>
</svg>
