<?xml version="1.0" encoding="UTF-8" standalone="no"?>
<svg xmlns:xlink="http://www.w3.org/1999/xlink" height="30.0px" width="30.0px" xmlns="http://www.w3.org/2000/svg">
  <g transform="matrix(1.0, 0.0, 0.0, 1.0, 2.5, 2.5)">
    <path d="M24.4 8.55 L24.7 10.0 25.0 12.5 Q25.0 17.7 21.3 21.35 L18.9 20.2 19.15 23.15 Q16.25 25.0 12.5 25.0 7.3 25.0 3.6 21.35 0.0 17.7 0.0 12.5 L0.05 11.1 Q0.1 10.55 1.3 9.95 L2.45 9.4 Q1.05 7.3 1.4 6.65 2.25 5.1 3.6 3.7 7.3 0.0 12.5 0.0 17.65 0.0 21.3 3.7 21.1 5.75 21.55 7.5 L24.4 8.55 Z" fill="none" stroke="#013558" stroke-linecap="round" stroke-linejoin="round" stroke-width="5.0"/>
  </g>
</svg>
