<?xml version="1.0" encoding="UTF-8" standalone="no"?>
<svg xmlns:xlink="http://www.w3.org/1999/xlink" height="20.6px" width="6.0px" xmlns="http://www.w3.org/2000/svg">
  <g transform="matrix(1.0, 0.0, 0.0, 1.0, 2.4, 25.6)">
    <path d="M1.5 -25.55 Q2.2 -25.55 2.75 -24.5 L2.75 -24.35 3.0 -23.95 2.4 -22.45 2.05 -21.1 Q1.6 -18.9 1.7 -16.35 L1.75 -15.8 Q1.9 -12.95 2.45 -10.45 L2.5 -10.2 3.0 -8.1 3.2 -7.9 3.35 -7.7 3.6 -7.85 Q2.8 -5.1 1.6 -5.0 L1.35 -5.05 1.15 -5.1 0.7 -5.2 0.5 -5.35 0.4 -5.55 0.3 -5.6 -0.05 -5.9 -0.45 -6.4 -0.45 -6.5 Q-1.8 -8.75 -2.05 -11.7 L-2.15 -12.45 Q-2.55 -14.35 -2.35 -16.4 L-2.35 -16.45 -2.25 -17.2 -2.25 -17.4 Q-2.0 -20.75 -0.75 -23.6 L-0.25 -24.5 Q0.25 -25.4 0.95 -25.6 L1.1 -25.6 1.2 -25.6 1.3 -25.6 1.4 -25.55 1.5 -25.55" fill="#ffcc00" fill-rule="evenodd" stroke="none"/>
  </g>
</svg>
