<?xml version="1.0" encoding="UTF-8" standalone="no"?>
<svg xmlns:xlink="http://www.w3.org/1999/xlink" height="9.75px" width="40.5px" xmlns="http://www.w3.org/2000/svg">
  <g transform="matrix(1.0, 0.0, 0.0, 1.0, -11.65, 18.55)">
    <path d="M13.2 -13.0 Q12.55 -13.3 12.1 -14.2 11.8 -14.85 11.65 -15.55 11.65 -17.4 13.55 -17.45 14.75 -17.5 15.2 -17.05 L15.4 -17.05 Q16.2 -17.0 16.45 -16.5 L16.85 -16.6 Q17.75 -16.6 17.75 -15.6 17.75 -15.2 17.4 -14.95 L17.4 -14.7 Q17.4 -14.05 16.85 -13.5 16.2 -12.85 15.25 -12.85 L14.4 -13.1 14.4 -13.0 14.4 -12.8 14.5 -12.75 14.65 -12.2 14.55 -11.7 Q14.5 -11.45 14.0 -11.45 13.35 -11.45 13.35 -12.15 L13.4 -12.45 13.2 -13.0 M18.95 -15.3 Q19.95 -15.5 20.35 -14.95 L20.4 -15.0 Q20.7 -15.65 21.95 -15.7 22.9 -15.75 23.35 -15.25 L23.25 -15.85 Q23.25 -17.55 24.85 -17.6 L25.7 -17.45 Q25.8 -18.85 27.5 -18.45 29.3 -18.05 29.3 -16.5 29.3 -15.8 28.25 -14.6 27.3 -13.55 26.65 -13.35 L26.45 -12.7 Q26.15 -12.0 25.6 -12.0 24.85 -12.0 24.6 -12.85 L24.55 -13.55 24.65 -14.3 Q23.9 -14.45 23.6 -14.8 L23.65 -14.15 23.55 -13.6 23.55 -13.5 23.35 -13.0 23.2 -12.8 23.05 -12.55 Q22.35 -11.2 21.55 -11.2 L20.55 -11.45 20.5 -11.4 20.25 -11.25 20.15 -11.3 20.1 -10.8 Q20.0 -10.55 19.5 -10.55 L19.1 -10.6 18.9 -10.8 18.85 -11.4 Q18.85 -12.0 19.25 -12.15 17.35 -12.25 17.35 -13.7 17.35 -15.05 18.95 -15.3 M19.7 -9.8 L19.6 -9.9 19.45 -10.2 19.95 -10.1 19.7 -9.8 M33.6 -16.7 Q35.5 -16.8 35.5 -15.35 35.5 -14.75 34.8 -14.2 34.1 -13.65 33.25 -13.65 L32.85 -13.7 32.85 -13.25 32.8 -12.7 32.8 -12.6 33.05 -12.25 32.7 -11.85 Q32.2 -12.05 32.15 -12.5 31.85 -12.55 31.75 -12.9 L31.75 -13.3 31.8 -13.65 31.4 -13.6 Q30.1 -13.6 29.7 -14.45 L29.55 -15.3 Q29.55 -16.8 31.55 -17.1 32.85 -17.3 33.35 -16.65 L33.6 -16.7 M39.4 -14.15 Q41.3 -14.0 41.3 -12.4 41.3 -10.2 38.5 -10.0 L38.5 -9.9 Q38.5 -9.45 37.8 -8.9 L37.7 -9.0 37.65 -8.95 37.2 -8.8 Q36.65 -9.25 36.65 -9.4 36.65 -9.75 36.8 -9.95 35.9 -9.95 35.6 -10.7 L35.5 -11.5 Q35.5 -13.35 37.25 -13.3 L37.55 -13.25 Q37.85 -14.25 39.4 -14.15 M26.7 -10.95 L26.2 -10.8 25.6 -11.35 Q25.6 -12.0 26.1 -12.05 26.6 -12.1 26.8 -11.4 L26.7 -10.95 M52.15 -14.35 L51.75 -13.0 Q51.35 -12.1 50.75 -11.8 L50.55 -11.25 50.6 -10.95 Q50.6 -10.25 50.0 -10.25 49.5 -10.25 49.45 -10.5 L49.4 -11.0 49.5 -11.55 49.6 -11.6 49.6 -11.8 49.6 -11.9 48.8 -11.65 Q47.95 -11.65 47.35 -12.3 46.8 -12.85 46.8 -13.5 L46.8 -13.75 Q46.5 -14.0 46.5 -14.4 L46.55 -14.85 Q46.3 -14.45 45.65 -14.45 L45.6 -14.45 45.6 -14.3 Q45.6 -13.55 44.9 -13.55 44.4 -13.55 44.25 -13.95 L44.2 -14.3 44.2 -14.45 43.95 -14.5 43.7 -14.45 43.45 -14.45 43.45 -14.3 43.35 -13.85 Q43.4 -13.6 42.9 -13.6 42.45 -13.6 42.35 -13.95 L42.3 -14.3 Q41.55 -14.4 41.05 -14.9 40.6 -15.35 40.6 -15.95 40.6 -18.0 42.25 -18.1 43.0 -18.1 43.4 -17.6 L44.1 -17.75 Q45.05 -17.8 45.45 -17.35 46.75 -17.25 46.75 -15.9 L46.7 -15.1 Q46.9 -15.4 47.35 -15.4 L47.7 -15.3 Q47.95 -15.8 48.7 -15.85 L48.85 -15.85 Q49.3 -16.3 50.4 -16.25 52.15 -16.2 52.15 -14.35 M42.5 -11.8 L42.4 -12.2 Q42.4 -12.7 43.15 -12.55 L43.35 -12.25 42.9 -11.75 42.5 -11.8" fill="#ffffff" fill-rule="evenodd" stroke="none"/>
  </g>
</svg>
