<?xml version="1.0" encoding="UTF-8" standalone="no"?>
<svg xmlns:xlink="http://www.w3.org/1999/xlink" height="33.1px" width="37.2px" xmlns="http://www.w3.org/2000/svg">
  <g transform="matrix(1.0, 0.0, 0.0, 1.0, 1.55, -31.15)">
    <path d="M-0.1 63.7 L-0.05 63.25 -0.1 55.7 -0.1 47.15 -0.05 38.55 -0.05 32.65 0.0 32.6 0.1 32.5 0.2 32.5 0.25 32.7 0.25 32.65 0.4 32.5 1.15 32.95 0.95 33.3 0.7 33.8 Q1.35 33.4 1.9 33.45 L3.2 34.3 3.2 34.35 2.4 35.3 1.35 35.75 2.1 36.2 Q2.65 36.65 2.1 36.9 L1.35 37.0 1.2 36.95 1.3 37.4 1.35 37.5 1.45 37.6 1.45 37.75 1.4 37.9 1.4 37.95 1.45 37.9 1.95 37.7 2.25 37.7 2.35 37.7 2.4 37.75 2.55 37.95 2.55 38.25 2.4 38.55 2.15 38.8 2.25 38.8 2.75 38.85 2.8 38.9 2.9 39.0 2.95 39.2 2.9 39.4 2.75 39.6 Q3.5 39.4 3.5 40.1 L3.15 40.65 2.15 41.2 2.2 41.4 2.4 41.35 2.65 41.65 2.65 41.7 2.7 41.65 3.1 41.5 3.3 41.5 3.4 41.5 3.5 41.55 3.6 41.65 3.6 41.7 3.65 41.9 3.55 42.2 3.45 42.45 3.3 42.7 3.35 42.7 3.65 42.65 4.2 42.65 4.25 42.7 4.3 42.75 4.4 42.95 4.45 43.15 4.35 43.4 4.35 43.45 Q5.35 43.4 5.6 44.2 5.85 44.55 5.55 44.9 5.25 45.2 4.85 45.3 L4.65 45.35 4.75 45.4 5.15 45.65 5.35 46.15 5.15 46.55 5.65 47.05 Q5.8 47.55 5.45 47.85 L4.65 48.2 4.85 48.7 4.9 48.6 5.1 48.4 5.25 48.25 5.55 48.1 5.65 48.1 5.85 48.1 6.0 48.25 6.1 48.4 6.1 48.6 7.35 48.35 Q7.6 48.3 7.75 48.6 L7.8 48.95 7.45 49.6 Q7.95 49.75 7.7 50.25 L7.35 50.65 6.9 50.85 6.95 50.85 Q7.75 50.7 7.9 51.35 L7.65 51.7 6.65 52.05 6.75 52.25 6.75 52.2 7.15 52.0 7.2 52.0 7.3 52.0 7.35 52.05 7.35 52.1 7.4 52.15 7.4 52.2 7.4 52.3 7.4 52.4 7.55 52.45 7.65 52.45 7.8 52.8 7.65 53.05 7.5 53.25 7.85 53.7 7.9 53.35 Q8.0 53.05 8.25 52.95 8.65 52.95 8.7 53.35 L8.75 53.6 8.85 52.95 Q8.95 52.55 9.2 52.3 L9.35 52.25 Q9.65 52.2 9.8 52.5 L9.95 52.95 10.0 53.5 10.0 53.9 10.3 53.45 10.8 52.8 Q11.25 52.35 11.8 52.3 L11.95 52.55 11.95 52.85 11.9 53.25 11.8 53.6 11.8 53.7 11.9 53.7 12.25 53.55 12.85 53.55 13.1 53.95 12.9 54.45 12.5 55.0 12.25 55.3 12.65 55.45 13.05 55.75 13.1 56.1 13.1 56.15 12.05 56.8 12.0 56.85 12.15 56.8 12.55 56.75 Q13.0 56.65 13.3 56.95 13.65 57.3 13.3 57.6 L13.65 57.7 14.05 57.75 13.9 57.2 13.8 56.4 13.65 56.0 13.55 55.05 13.6 54.35 Q13.8 53.85 14.35 53.95 14.75 54.05 14.95 54.5 L15.2 55.0 Q15.2 54.55 15.35 54.1 L15.6 53.2 16.7 53.75 16.8 53.8 16.9 53.85 16.85 54.0 16.75 54.8 17.25 54.1 18.75 55.05 18.65 55.2 18.05 56.25 18.15 56.25 18.65 56.15 18.8 56.2 18.75 56.85 18.6 57.1 18.7 57.3 18.8 57.45 18.85 57.55 19.5 57.5 Q19.85 57.5 20.0 57.85 L20.1 58.05 20.1 58.2 20.15 58.35 20.5 58.75 20.6 59.15 20.7 59.2 20.65 58.25 Q20.6 57.8 20.8 57.3 L21.15 56.55 21.25 56.45 21.3 56.4 21.35 56.4 21.45 56.4 21.45 56.35 21.5 56.35 21.65 56.4 21.9 56.8 22.0 57.35 22.05 57.95 22.05 58.55 22.05 58.6 22.4 58.3 22.75 57.7 Q23.0 57.35 23.4 57.3 L23.7 57.4 23.7 57.6 23.75 57.9 23.75 58.15 23.75 58.25 23.75 58.45 23.75 58.75 24.15 58.5 Q24.5 58.25 24.9 58.1 L25.2 58.1 25.5 58.25 Q25.75 58.9 25.35 59.45 L24.3 60.75 24.5 60.85 24.8 60.95 24.95 60.8 25.95 60.25 26.55 60.15 26.7 60.2 26.8 60.25 26.85 60.3 26.9 60.5 26.85 60.8 26.7 61.1 26.5 61.4 26.45 61.5 26.65 61.55 26.85 61.55 27.0 61.55 27.2 61.75 27.2 61.7 27.2 61.2 27.2 60.35 27.4 59.55 27.5 59.45 28.2 59.95 28.3 60.3 28.4 60.65 28.4 60.75 28.6 60.5 28.75 60.35 30.8 62.0 30.65 62.1 30.15 62.65 30.25 62.7 30.25 62.65 30.5 62.35 30.7 62.2 30.8 62.15 30.95 62.1 33.05 64.15 31.8 64.15 19.85 64.15 0.4 64.1 0.35 64.25 0.25 64.25 0.1 64.25 0.0 64.2 -0.05 64.1 -0.1 63.75 -0.1 63.7 19.85 63.7 19.85 64.15 19.85 63.7 -0.1 63.7 M19.05 58.2 L19.0 58.25 19.05 58.3 19.05 58.2" fill="#00ccff" fill-rule="evenodd" stroke="none"/>
    <path d="M0.6 32.6 L2.85 34.05 Q5.05 36.3 5.35 39.95 5.55 42.6 6.15 45.15 L10.05 50.35 Q11.75 52.35 14.45 53.15 L16.55 53.85 Q18.0 54.15 19.3 54.85 L23.9 56.9 Q26.3 57.85 28.15 59.6 L28.85 60.4 28.95 60.5 Q30.1 61.4 29.05 62.55 L28.5 62.9 28.05 62.75 27.85 62.65 27.7 62.5 27.6 62.35 27.6 62.3 Q26.6 62.25 25.6 61.65 L24.4 61.3 Q22.65 60.85 21.05 60.0 L19.3 59.25 19.1 59.65 18.55 60.2 15.05 59.55 Q11.85 58.6 9.25 56.8 8.1 56.0 8.2 54.6 L7.85 54.3 7.45 54.0 7.05 53.65 6.75 53.4 6.45 53.1 6.3 53.2 6.15 53.3 5.9 53.45 5.5 53.6 Q4.2 53.25 4.1 51.8 L3.8 49.25 3.1 46.5 2.2 43.7 2.15 43.65 2.05 43.6 1.6 43.5 1.35 43.35 1.15 43.2 1.05 43.05 0.95 42.15 0.8 40.95 0.6 39.25 0.5 37.55 0.6 36.35 0.7 36.2 0.85 36.05 1.1 35.9 1.65 35.7 1.65 35.6 1.55 35.35 1.3 34.85 0.9 34.4 0.35 33.8 0.15 33.2 0.15 33.05 0.2 32.9 0.35 32.7 0.45 32.65 0.55 32.6 0.6 32.6" fill="#00ccff" fill-rule="evenodd" stroke="none"/>
    <path d="M10.9 51.5 Q9.9 51.15 10.5 50.5 11.35 49.55 12.9 49.15 15.2 49.35 15.8 50.7 16.0 51.1 15.35 51.35 L13.45 51.75 10.9 51.5" fill="url(#gradient0)" fill-rule="evenodd" stroke="none"/>
    <path d="M23.5 55.85 L21.6 56.25 19.05 56.0 Q18.05 55.65 18.65 55.0 19.5 54.05 21.05 53.65 23.35 53.85 23.95 55.2 24.15 55.6 23.5 55.85" fill="url(#gradient1)" fill-rule="evenodd" stroke="none"/>
    <path d="M8.55 39.8 L6.65 40.2 4.1 39.95 Q3.1 39.6 3.7 38.95 4.55 38.0 6.1 37.6 8.4 37.8 9.0 39.15 9.2 39.55 8.55 39.8" fill="url(#gradient2)" fill-rule="evenodd" stroke="none"/>
    <path d="M3.3 33.75 L0.75 33.5 Q-0.25 33.15 0.35 32.5 1.2 31.55 2.75 31.15 5.05 31.35 5.65 32.7 5.85 33.1 5.2 33.35 L3.3 33.75" fill="url(#gradient3)" fill-rule="evenodd" stroke="none"/>
    <path d="M6.4 35.65 L3.85 35.4 Q2.85 35.05 3.45 34.4 4.3 33.45 5.85 33.05 8.15 33.25 8.75 34.6 8.95 35.0 8.3 35.25 L6.4 35.65" fill="url(#gradient4)" fill-rule="evenodd" stroke="none"/>
    <path d="M6.15 42.35 L3.6 42.1 Q2.6 41.75 3.2 41.1 4.05 40.15 5.6 39.75 7.9 39.95 8.5 41.3 8.7 41.7 8.05 41.95 L6.15 42.35" fill="url(#gradient5)" fill-rule="evenodd" stroke="none"/>
    <path d="M2.75 37.6 Q1.75 37.25 2.35 36.6 3.2 35.65 4.75 35.25 7.05 35.45 7.65 36.8 7.85 37.2 7.2 37.45 L5.3 37.85 2.75 37.6" fill="url(#gradient6)" fill-rule="evenodd" stroke="none"/>
    <path d="M8.15 45.3 L5.6 45.05 Q4.6 44.7 5.2 44.05 6.05 43.1 7.6 42.7 9.9 42.9 10.5 44.25 10.7 44.65 10.05 44.9 L8.15 45.3" fill="url(#gradient7)" fill-rule="evenodd" stroke="none"/>
    <path d="M5.55 47.95 Q4.55 47.6 5.15 46.95 6.0 46.0 7.55 45.6 9.85 45.8 10.45 47.15 10.65 47.55 10.0 47.8 L8.1 48.2 5.55 47.95" fill="url(#gradient8)" fill-rule="evenodd" stroke="none"/>
    <path d="M29.9 60.6 L27.35 60.35 Q26.35 60.0 26.95 59.35 27.8 58.4 29.35 58.0 31.65 58.2 32.25 59.55 32.45 59.95 31.8 60.2 L29.9 60.6" fill="url(#gradient9)" fill-rule="evenodd" stroke="none"/>
    <path d="M10.95 55.0 L8.4 54.75 Q7.4 54.4 8.0 53.75 8.85 52.8 10.4 52.4 12.7 52.6 13.3 53.95 13.5 54.35 12.85 54.6 L10.95 55.0" fill="url(#gradient10)" fill-rule="evenodd" stroke="none"/>
    <path d="M25.4 57.8 L22.85 57.55 Q21.85 57.2 22.45 56.55 23.3 55.6 24.85 55.2 27.15 55.4 27.75 56.75 27.95 57.15 27.3 57.4 L25.4 57.8" fill="url(#gradient11)" fill-rule="evenodd" stroke="none"/>
    <path d="M5.85 51.25 Q4.85 50.9 5.45 50.25 6.3 49.3 7.85 48.9 10.15 49.1 10.75 50.45 10.95 50.85 10.3 51.1 L8.4 51.5 5.85 51.25" fill="url(#gradient12)" fill-rule="evenodd" stroke="none"/>
    <path d="M14.25 53.35 Q15.1 52.4 16.65 52.0 18.95 52.2 19.55 53.55 19.75 53.95 19.1 54.2 L17.2 54.6 14.65 54.35 Q13.65 54.0 14.25 53.35" fill="url(#gradient13)" fill-rule="evenodd" stroke="none"/>
    <path d="M5.75 55.45 L3.2 55.2 Q2.2 54.85 2.8 54.2 3.65 53.25 5.2 52.85 7.5 53.05 8.1 54.4 8.3 54.8 7.65 55.05 L5.75 55.45" fill="url(#gradient14)" fill-rule="evenodd" stroke="none"/>
    <path d="M1.65 36.0 L-0.9 35.75 Q-1.9 35.4 -1.3 34.75 -0.45 33.8 1.1 33.4 3.4 33.6 4.0 34.95 4.2 35.35 3.55 35.6 L1.65 36.0" fill="url(#gradient15)" fill-rule="evenodd" stroke="none"/>
    <path d="M18.7 50.95 Q17.7 50.6 18.3 49.95 19.15 49.0 20.7 48.6 23.0 48.8 23.6 50.15 23.8 50.55 23.15 50.8 L21.25 51.2 18.7 50.95" fill="url(#gradient16)" fill-rule="evenodd" stroke="none"/>
    <path d="M20.5 60.15 Q19.5 59.8 20.1 59.15 20.95 58.2 22.5 57.8 24.8 58.0 25.4 59.35 25.6 59.75 24.95 60.0 L23.05 60.4 20.5 60.15" fill="url(#gradient17)" fill-rule="evenodd" stroke="none"/>
    <path d="M13.55 45.35 L11.0 45.1 Q10.0 44.75 10.6 44.1 11.45 43.15 13.0 42.75 15.3 42.95 15.9 44.3 16.1 44.7 15.45 44.95 L13.55 45.35" fill="url(#gradient18)" fill-rule="evenodd" stroke="none"/>
    <path d="M28.8 62.8 L26.25 62.55 Q25.25 62.2 25.85 61.55 26.7 60.6 28.25 60.2 30.55 60.4 31.15 61.75 31.35 62.15 30.7 62.4 L28.8 62.8" fill="url(#gradient19)" fill-rule="evenodd" stroke="none"/>
    <path d="M33.25 64.05 L30.7 63.8 Q29.7 63.45 30.3 62.8 31.15 61.85 32.7 61.45 35.0 61.65 35.6 63.0 35.8 63.4 35.15 63.65 L33.25 64.05" fill="url(#gradient20)" fill-rule="evenodd" stroke="none"/>
    <path d="M17.3 59.3 Q19.6 59.5 20.2 60.85 20.4 61.25 19.75 61.5 L17.85 61.9 15.3 61.65 Q14.3 61.3 14.9 60.65 15.75 59.7 17.3 59.3" fill="url(#gradient21)" fill-rule="evenodd" stroke="none"/>
  </g>
  <defs>
    <linearGradient gradientTransform="matrix(0.0028, -0.0021, 0.002, 0.001, 12.2, 51.0)" gradientUnits="userSpaceOnUse" id="gradient0" spreadMethod="pad" x1="-819.2" x2="819.2">
      <stop offset="0.0" stop-color="#666666"/>
      <stop offset="1.0" stop-color="#cccccc"/>
    </linearGradient>
    <linearGradient gradientTransform="matrix(0.0028, -0.0021, 0.002, 0.001, 20.35, 55.5)" gradientUnits="userSpaceOnUse" id="gradient1" spreadMethod="pad" x1="-819.2" x2="819.2">
      <stop offset="0.0" stop-color="#666666"/>
      <stop offset="1.0" stop-color="#cccccc"/>
    </linearGradient>
    <linearGradient gradientTransform="matrix(0.0028, -0.0021, 0.002, 0.001, 5.4, 39.45)" gradientUnits="userSpaceOnUse" id="gradient2" spreadMethod="pad" x1="-819.2" x2="819.2">
      <stop offset="0.0" stop-color="#666666"/>
      <stop offset="1.0" stop-color="#cccccc"/>
    </linearGradient>
    <linearGradient gradientTransform="matrix(0.0028, -0.0021, 0.002, 0.001, 2.05, 33.0)" gradientUnits="userSpaceOnUse" id="gradient3" spreadMethod="pad" x1="-819.2" x2="819.2">
      <stop offset="0.0" stop-color="#666666"/>
      <stop offset="1.0" stop-color="#cccccc"/>
    </linearGradient>
    <linearGradient gradientTransform="matrix(0.0028, -0.0021, 0.002, 0.001, 5.15, 34.9)" gradientUnits="userSpaceOnUse" id="gradient4" spreadMethod="pad" x1="-819.2" x2="819.2">
      <stop offset="0.0" stop-color="#666666"/>
      <stop offset="1.0" stop-color="#cccccc"/>
    </linearGradient>
    <linearGradient gradientTransform="matrix(0.0028, -0.0021, 0.002, 0.001, 4.9, 41.6)" gradientUnits="userSpaceOnUse" id="gradient5" spreadMethod="pad" x1="-819.2" x2="819.2">
      <stop offset="0.0" stop-color="#666666"/>
      <stop offset="1.0" stop-color="#cccccc"/>
    </linearGradient>
    <linearGradient gradientTransform="matrix(0.0028, -0.0021, 0.002, 0.001, 4.05, 37.1)" gradientUnits="userSpaceOnUse" id="gradient6" spreadMethod="pad" x1="-819.2" x2="819.2">
      <stop offset="0.0" stop-color="#666666"/>
      <stop offset="1.0" stop-color="#cccccc"/>
    </linearGradient>
    <linearGradient gradientTransform="matrix(0.0028, -0.0021, 0.002, 0.001, 6.9, 44.55)" gradientUnits="userSpaceOnUse" id="gradient7" spreadMethod="pad" x1="-819.2" x2="819.2">
      <stop offset="0.0" stop-color="#666666"/>
      <stop offset="1.0" stop-color="#cccccc"/>
    </linearGradient>
    <linearGradient gradientTransform="matrix(0.0028, -0.0021, 0.002, 0.001, 6.85, 47.45)" gradientUnits="userSpaceOnUse" id="gradient8" spreadMethod="pad" x1="-819.2" x2="819.2">
      <stop offset="0.0" stop-color="#666666"/>
      <stop offset="1.0" stop-color="#cccccc"/>
    </linearGradient>
    <linearGradient gradientTransform="matrix(0.0028, -0.0021, 0.002, 0.001, 28.65, 59.85)" gradientUnits="userSpaceOnUse" id="gradient9" spreadMethod="pad" x1="-819.2" x2="819.2">
      <stop offset="0.0" stop-color="#666666"/>
      <stop offset="1.0" stop-color="#cccccc"/>
    </linearGradient>
    <linearGradient gradientTransform="matrix(0.0028, -0.0021, 0.002, 0.001, 9.7, 54.25)" gradientUnits="userSpaceOnUse" id="gradient10" spreadMethod="pad" x1="-819.2" x2="819.2">
      <stop offset="0.0" stop-color="#666666"/>
      <stop offset="1.0" stop-color="#cccccc"/>
    </linearGradient>
    <linearGradient gradientTransform="matrix(0.0028, -0.0021, 0.002, 0.001, 24.15, 57.05)" gradientUnits="userSpaceOnUse" id="gradient11" spreadMethod="pad" x1="-819.2" x2="819.2">
      <stop offset="0.0" stop-color="#666666"/>
      <stop offset="1.0" stop-color="#cccccc"/>
    </linearGradient>
    <linearGradient gradientTransform="matrix(0.0028, -0.0021, 0.002, 0.001, 7.15, 50.75)" gradientUnits="userSpaceOnUse" id="gradient12" spreadMethod="pad" x1="-819.2" x2="819.2">
      <stop offset="0.0" stop-color="#666666"/>
      <stop offset="1.0" stop-color="#cccccc"/>
    </linearGradient>
    <linearGradient gradientTransform="matrix(0.0028, -0.0021, 0.002, 0.001, 15.95, 53.85)" gradientUnits="userSpaceOnUse" id="gradient13" spreadMethod="pad" x1="-819.2" x2="819.2">
      <stop offset="0.0" stop-color="#666666"/>
      <stop offset="1.0" stop-color="#cccccc"/>
    </linearGradient>
    <linearGradient gradientTransform="matrix(0.0028, -0.0021, 0.002, 0.001, 4.5, 54.7)" gradientUnits="userSpaceOnUse" id="gradient14" spreadMethod="pad" x1="-819.2" x2="819.2">
      <stop offset="0.0" stop-color="#666666"/>
      <stop offset="1.0" stop-color="#cccccc"/>
    </linearGradient>
    <linearGradient gradientTransform="matrix(0.0028, -0.0021, 0.002, 0.001, 0.4, 35.25)" gradientUnits="userSpaceOnUse" id="gradient15" spreadMethod="pad" x1="-819.2" x2="819.2">
      <stop offset="0.0" stop-color="#666666"/>
      <stop offset="1.0" stop-color="#cccccc"/>
    </linearGradient>
    <linearGradient gradientTransform="matrix(0.0028, -0.0021, 0.002, 0.001, 20.0, 50.45)" gradientUnits="userSpaceOnUse" id="gradient16" spreadMethod="pad" x1="-819.2" x2="819.2">
      <stop offset="0.0" stop-color="#666666"/>
      <stop offset="1.0" stop-color="#cccccc"/>
    </linearGradient>
    <linearGradient gradientTransform="matrix(0.0028, -0.0021, 0.002, 0.001, 21.8, 59.65)" gradientUnits="userSpaceOnUse" id="gradient17" spreadMethod="pad" x1="-819.2" x2="819.2">
      <stop offset="0.0" stop-color="#666666"/>
      <stop offset="1.0" stop-color="#cccccc"/>
    </linearGradient>
    <linearGradient gradientTransform="matrix(0.0028, -0.0021, 0.002, 0.001, 12.3, 44.6)" gradientUnits="userSpaceOnUse" id="gradient18" spreadMethod="pad" x1="-819.2" x2="819.2">
      <stop offset="0.0" stop-color="#666666"/>
      <stop offset="1.0" stop-color="#cccccc"/>
    </linearGradient>
    <linearGradient gradientTransform="matrix(0.0028, -0.0021, 0.002, 0.001, 27.55, 62.05)" gradientUnits="userSpaceOnUse" id="gradient19" spreadMethod="pad" x1="-819.2" x2="819.2">
      <stop offset="0.0" stop-color="#666666"/>
      <stop offset="1.0" stop-color="#cccccc"/>
    </linearGradient>
    <linearGradient gradientTransform="matrix(0.0028, -0.0021, 0.002, 0.001, 32.0, 63.3)" gradientUnits="userSpaceOnUse" id="gradient20" spreadMethod="pad" x1="-819.2" x2="819.2">
      <stop offset="0.0" stop-color="#666666"/>
      <stop offset="1.0" stop-color="#cccccc"/>
    </linearGradient>
    <linearGradient gradientTransform="matrix(0.0028, -0.0021, 0.002, 0.001, 16.6, 61.15)" gradientUnits="userSpaceOnUse" id="gradient21" spreadMethod="pad" x1="-819.2" x2="819.2">
      <stop offset="0.0" stop-color="#666666"/>
      <stop offset="1.0" stop-color="#cccccc"/>
    </linearGradient>
  </defs>
</svg>
