<?xml version="1.0" encoding="UTF-8" standalone="no"?>
<svg xmlns:xlink="http://www.w3.org/1999/xlink" height="7.65px" width="7.6px" xmlns="http://www.w3.org/2000/svg">
  <g transform="matrix(1.0, 0.0, 0.0, 1.0, -4.5, -14.85)">
    <path d="M9.7 20.85 Q9.65 20.55 9.95 20.3 L10.4 20.1 11.05 20.25 11.25 20.85 11.0 21.4 10.45 21.6 Q10.15 21.6 9.95 21.4 9.65 21.15 9.7 20.85" fill="#00a4a4" fill-rule="evenodd" stroke="none"/>
    <path d="M7.75 15.05 L8.3 14.85 8.85 15.05 9.05 15.6 8.8 16.2 Q8.6 16.4 8.3 16.4 L7.75 16.2 Q7.5 16.0 7.55 15.6 L7.7 15.1 7.75 15.05" fill="#00ffff" fill-rule="evenodd" stroke="none"/>
    <path d="M9.95 17.05 Q9.65 16.8 9.7 16.5 9.65 16.2 9.95 16.0 10.15 15.7 10.45 15.75 10.75 15.7 11.0 16.0 L11.25 16.45 11.25 16.5 11.05 17.1 10.45 17.3 10.4 17.3 9.95 17.05" fill="#00e1e1" fill-rule="evenodd" stroke="none"/>
    <path d="M11.35 17.9 Q11.65 17.9 11.9 18.15 L12.1 18.65 11.9 19.25 11.35 19.45 Q11.0 19.45 10.8 19.25 L10.75 19.25 10.6 18.65 Q10.55 18.3 10.8 18.15 11.0 17.9 11.35 17.9" fill="#00c6c6" fill-rule="evenodd" stroke="none"/>
    <path d="M7.7 21.2 L7.75 21.15 8.3 20.95 8.85 21.15 9.05 21.7 8.8 22.25 8.3 22.5 7.75 22.25 Q7.5 22.1 7.55 21.7 L7.7 21.2" fill="#008a8a" fill-rule="evenodd" stroke="none"/>
    <path d="M5.4 20.75 L5.6 20.3 Q5.8 20.1 6.15 20.05 L6.7 20.25 6.95 20.8 6.7 21.4 6.2 21.6 6.15 21.6 Q5.8 21.6 5.6 21.4 5.35 21.15 5.4 20.75" fill="#006c6c" fill-rule="evenodd" stroke="none"/>
    <path d="M5.25 17.9 L5.8 18.15 6.05 18.65 5.8 19.25 Q5.6 19.45 5.25 19.45 4.9 19.45 4.7 19.25 L4.65 19.25 Q4.5 19.0 4.5 18.65 4.45 18.3 4.7 18.15 4.9 17.9 5.25 17.9" fill="#005353" fill-rule="evenodd" stroke="none"/>
    <path d="M6.75 16.0 Q7.0 16.2 6.9 16.55 L6.7 17.1 6.2 17.3 6.15 17.3 Q5.85 17.35 5.65 17.1 L5.35 16.55 5.35 16.5 Q5.35 16.2 5.6 16.0 5.85 15.7 6.15 15.75 6.5 15.7 6.75 16.0" fill="#004646" fill-rule="evenodd" stroke="none"/>
  </g>
</svg>
