<?xml version="1.0" encoding="UTF-8" standalone="no"?>
<svg xmlns:xlink="http://www.w3.org/1999/xlink" height="7.7px" width="7.7px" xmlns="http://www.w3.org/2000/svg">
  <g transform="matrix(1.0, 0.0, 0.0, 1.0, -4.5, -14.8)">
    <path d="M6.7 15.95 L6.9 16.55 6.7 17.05 6.2 17.25 Q5.85 17.3 5.65 17.0 5.35 16.8 5.4 16.55 L5.4 16.45 Q5.35 16.2 5.6 15.95 5.85 15.7 6.15 15.7 L6.7 15.95" fill="#00ffff" fill-rule="evenodd" stroke="none"/>
    <path d="M5.3 17.85 Q5.65 17.8 5.85 18.1 L6.1 18.65 5.9 19.15 5.85 19.2 5.35 19.4 Q4.95 19.4 4.75 19.2 L4.7 19.15 4.5 18.65 Q4.5 18.25 4.75 18.1 4.95 17.8 5.3 17.85" fill="#004646" fill-rule="evenodd" stroke="none"/>
    <path d="M6.15 21.6 L5.65 21.3 Q5.35 21.1 5.4 20.85 5.35 20.5 5.6 20.25 L6.2 20.05 6.75 20.2 6.95 20.8 6.7 21.35 6.15 21.6" fill="#005353" fill-rule="evenodd" stroke="none"/>
    <path d="M7.8 15.05 Q7.95 14.8 8.35 14.8 L8.85 15.0 9.15 15.6 8.9 16.15 8.85 16.2 8.35 16.3 Q7.95 16.4 7.75 16.1 7.5 15.95 7.6 15.55 7.55 15.2 7.8 15.05" fill="#00e1e1" fill-rule="evenodd" stroke="none"/>
    <path d="M11.35 17.8 L11.95 18.1 12.2 18.65 11.9 19.15 11.45 19.4 10.85 19.2 Q10.6 19.05 10.65 18.6 10.65 18.3 10.8 18.15 11.05 17.8 11.35 17.8" fill="#00a4a4" fill-rule="evenodd" stroke="none"/>
    <path d="M9.7 20.75 Q9.65 20.5 9.9 20.25 10.15 20.0 10.45 20.0 10.8 20.05 11.0 20.25 11.3 20.55 11.2 20.85 L11.0 21.35 Q10.75 21.6 10.5 21.55 10.2 21.65 9.95 21.3 L9.7 20.85 9.7 20.75" fill="#008a8a" fill-rule="evenodd" stroke="none"/>
    <path d="M8.3 20.85 Q8.65 20.9 8.85 21.1 L9.15 21.7 8.9 22.15 8.85 22.2 8.35 22.5 7.7 22.15 7.55 21.7 7.8 21.15 8.3 20.85" fill="#006c6c" fill-rule="evenodd" stroke="none"/>
    <path d="M9.95 17.0 Q9.65 16.8 9.75 16.5 9.7 16.15 9.95 15.9 L10.5 15.75 11.0 15.95 11.25 16.5 11.05 17.0 10.5 17.25 10.45 17.3 9.95 17.0" fill="#00c6c6" fill-rule="evenodd" stroke="none"/>
  </g>
</svg>
