<?xml version="1.0" encoding="UTF-8" standalone="no"?>
<svg xmlns:xlink="http://www.w3.org/1999/xlink" height="73.05px" width="58.95px" xmlns="http://www.w3.org/2000/svg">
  <g transform="matrix(1.0, 0.0, 0.0, 1.0, -2.55, 25.2)">
    <path d="M59.35 23.25 L58.55 29.95 56.55 29.95 56.55 23.25 59.35 23.25 M5.45 29.95 L4.55 23.25 7.55 23.25 Q6.05 24.45 6.05 26.3 6.05 28.6 7.25 29.5 L7.95 29.95 5.45 29.95" fill="#a65435" fill-rule="evenodd" stroke="none"/>
    <path d="M14.3 32.4 L15.45 43.15 14.4 45.85 14.3 45.85 12.8 32.4 14.3 32.4" fill="#989898" fill-rule="evenodd" stroke="none"/>
    <path d="M11.4 -20.25 L11.4 -20.35 11.55 -20.35 11.4 -20.25" fill="#414141" fill-rule="evenodd" stroke="none"/>
    <path d="M11.55 -20.35 L11.4 -20.35 11.4 -20.25 M4.55 23.25 L6.1 -23.2 57.9 -23.2 57.9 -23.05 59.4 20.25 59.5 23.25 59.35 23.25 58.55 29.95 58.4 31.2 58.3 31.85 56.55 45.85 26.6 45.85 26.3 32.4 14.3 32.4 15.45 43.15 14.4 45.85 14.3 45.85 7.5 45.85 5.45 29.95 4.55 23.25 7.55 23.25 M7.95 29.95 L5.45 29.95 M59.35 23.25 L56.55 23.25 M56.55 29.95 L58.55 29.95 M14.3 32.4 L12.8 32.4 14.3 45.85" fill="none" stroke="#3a3a3a" stroke-linecap="round" stroke-linejoin="round" stroke-width="4.0"/>
    <path d="M14.3 32.4 L15.45 43.15 14.4 45.85 14.3 45.85 12.8 32.4 14.3 32.4" fill="#989898" fill-rule="evenodd" stroke="none"/>
    <path d="M19.2 -19.55 L19.2 -14.1 25.75 -14.2 25.75 -19.7 19.1 -19.75 19.1 -19.55 19.2 -19.55 M11.85 -13.6 L11.7 -13.6 11.55 -8.3 18.65 -8.35 18.7 -13.45 11.8 -13.4 11.85 -13.6 M18.7 -19.75 L11.9 -19.8 11.75 -14.05 18.7 -14.1 18.7 -19.75 M11.65 -7.9 L11.55 -7.9 11.4 -2.75 18.65 -2.75 18.65 -7.75 11.65 -7.7 11.65 -7.9 M19.15 -2.75 L25.8 -2.75 25.8 -7.8 19.15 -7.75 19.15 -2.75 M19.2 -13.45 L19.15 -8.35 25.8 -8.4 25.75 -13.55 19.2 -13.45 M10.85 -2.2 L11.4 -20.35 33.4 -20.25 33.4 -2.2 10.85 -2.2 M32.7 -14.25 L32.7 -19.65 26.1 -19.7 26.1 -19.5 26.2 -19.5 26.2 -14.2 32.7 -14.25 M26.25 -2.75 L32.7 -2.75 32.7 -7.85 26.25 -7.8 26.25 -2.75 M26.25 -8.4 L32.7 -8.45 32.7 -13.55 26.2 -13.55 26.25 -8.4 M55.45 7.2 L55.35 1.85 49.0 1.9 49.15 7.3 55.45 7.2 M48.55 7.3 L48.45 1.9 42.05 1.9 42.15 7.45 48.55 7.3 M41.75 18.9 L41.65 13.8 34.75 13.9 34.65 18.9 41.75 18.9 M48.6 7.95 L42.15 8.05 42.2 13.2 48.75 13.15 48.6 7.95 M41.55 7.45 L41.45 1.9 34.9 1.95 34.85 7.6 41.55 7.45 M42.3 18.9 L48.9 18.9 48.8 13.75 42.2 13.8 42.3 18.9 M49.45 18.9 L55.85 18.9 55.7 13.65 49.35 13.75 49.45 18.9 M41.6 13.2 L41.55 8.05 34.85 8.2 34.75 13.3 41.6 13.2 M55.65 13.05 L55.5 7.8 49.15 7.9 49.3 13.15 55.65 13.05 M56.45 19.5 L33.95 19.5 34.3 1.35 55.9 1.25 56.45 19.5" fill="#414141" fill-rule="evenodd" stroke="none"/>
    <path d="M10.85 -2.2 L33.4 -2.2 33.4 -20.25 11.4 -20.35 10.85 -2.2 M4.55 23.25 L6.1 -23.2 57.9 -23.2 57.9 -23.05 59.4 20.25 59.5 23.25 59.35 23.25 4.55 23.25 M56.45 19.5 L55.9 1.25 34.3 1.35 33.95 19.5 56.45 19.5" fill="#a8a8a8" fill-rule="evenodd" stroke="none"/>
    <path d="M59.35 23.25 L58.55 29.95 5.45 29.95 4.55 23.25 59.35 23.25 M55.75 24.75 L36.95 24.65 36.85 28.75 55.25 28.85 55.75 24.75 M7.75 24.75 L8.25 28.85 26.85 28.85 26.75 24.75 7.75 24.75" fill="#727272" fill-rule="evenodd" stroke="none"/>
    <path d="M58.55 29.95 L58.4 31.2 58.3 31.85 56.55 45.85 26.6 45.85 26.3 32.4 14.3 32.4 12.8 32.4 14.3 45.85 7.5 45.85 5.45 29.95 58.55 29.95 M57.1 33.05 L29.55 33.05 29.7 44.15 55.4 44.15 57.1 33.05" fill="#c4c4c4" fill-rule="evenodd" stroke="none"/>
  </g>
</svg>
