<?xml version="1.0" encoding="UTF-8" standalone="no"?>
<svg xmlns:xlink="http://www.w3.org/1999/xlink" height="38.05px" width="62.3px" xmlns="http://www.w3.org/2000/svg">
  <g transform="matrix(1.0, 0.0, 0.0, 1.0, -1.45, -14.4)">
    <path d="M10.25 15.7 Q14.4 14.4 20.3 14.4 26.2 14.4 30.3 15.7 34.45 17.0 34.45 18.85 34.45 20.65 30.3 21.95 26.2 23.25 20.3 23.25 14.4 23.25 10.25 21.95 6.15 20.65 6.15 18.85 6.15 17.0 10.25 15.7" fill="#000000" fill-opacity="0.11372549" fill-rule="evenodd" stroke="none"/>
    <path d="M60.55 16.2 Q63.75 17.25 63.75 18.7 63.75 20.15 60.55 21.2 57.35 22.25 52.8 22.25 48.2 22.25 45.0 21.2 41.8 20.15 41.8 18.7 41.8 17.25 45.0 16.2 48.2 15.2 52.8 15.2 57.35 15.2 60.55 16.2" fill="#000000" fill-opacity="0.11764706" fill-rule="evenodd" stroke="none"/>
    <path d="M21.8 23.35 Q21.8 25.0 18.85 26.15 15.9 27.3 11.65 27.3 7.4 27.3 4.45 26.15 1.45 25.0 1.45 23.35 1.45 21.75 4.45 20.55 7.4 19.4 11.65 19.4 15.9 19.4 18.85 20.55 21.8 21.75 21.8 23.35" fill="#000000" fill-opacity="0.12156863" fill-rule="evenodd" stroke="none"/>
    <path d="M53.1 45.3 Q53.1 48.25 47.15 50.35 41.3 52.45 32.9 52.45 24.5 52.45 18.6 50.35 12.75 48.25 12.75 45.3 12.75 42.35 18.6 40.25 24.5 38.15 32.9 38.15 41.3 38.15 47.15 40.25 53.1 42.35 53.1 45.3" fill="#000000" fill-opacity="0.11372549" fill-rule="evenodd" stroke="none"/>
  </g>
</svg>
