<?xml version="1.0" encoding="UTF-8" standalone="no"?>
<svg xmlns:xlink="http://www.w3.org/1999/xlink" height="7.75px" width="9.75px" xmlns="http://www.w3.org/2000/svg">
  <g transform="matrix(1.0, 0.0, 0.0, 1.0, 4.85, 3.7)">
    <path d="M4.15 1.45 Q4.15 2.2 2.95 2.75 1.7 3.3 0.0 3.3 -1.65 3.3 -2.9 2.75 -4.1 2.2 -4.1 1.45 L-3.75 0.0 -3.45 -1.35 Q-3.45 -2.0 -2.45 -2.5 L0.0 -2.95 2.45 -2.5 Q3.5 -2.0 3.5 -1.35 L3.8 0.0 4.15 1.45" fill="#98612c" fill-rule="evenodd" stroke="none"/>
    <path d="M4.15 1.45 Q4.15 2.2 2.95 2.75 1.7 3.3 0.0 3.3 -1.65 3.3 -2.9 2.75 -4.1 2.2 -4.1 1.45 L-3.75 0.0 -3.45 -1.35 Q-3.45 -2.0 -2.45 -2.5 L0.0 -2.95 2.45 -2.5 Q3.5 -2.0 3.5 -1.35 L3.8 0.0 4.15 1.45 Z" fill="none" stroke="#744416" stroke-linecap="round" stroke-linejoin="round" stroke-width="1.5"/>
    <path d="M4.15 1.45 Q4.15 2.2 2.95 2.75 1.7 3.3 0.0 3.3 -1.65 3.3 -2.9 2.75 -4.1 2.2 -4.1 1.45 L-3.75 0.0 -3.45 -1.35 Q-3.45 -2.0 -2.45 -2.5 L0.0 -2.95 2.45 -2.5 Q3.5 -2.0 3.5 -1.35 L3.8 0.0 4.15 1.45" fill="#98612c" fill-rule="evenodd" stroke="none"/>
    <path d="M3.45 2.5 L3.25 1.75 Q3.25 1.45 3.6 1.45 L4.05 1.8 3.45 2.5 M1.9 -2.7 L1.75 -0.05 1.95 1.25 1.8 2.45 Q1.0 1.35 1.0 -0.05 L1.25 -2.35 1.4 -3.55 1.3 -2.85 1.9 -2.7 M-2.05 -2.65 L-1.45 -2.8 -1.55 -2.1 -1.1 -1.15 Q-0.65 -0.35 -0.65 0.65 -0.65 2.2 -1.0 3.65 L-0.95 3.25 -1.65 3.15 Q-1.4 2.05 -1.4 0.65 -1.4 -0.4 -1.8 -0.9 L-2.15 -1.95 -2.05 -2.65 M-3.25 1.0 L-3.65 1.55 -3.95 1.2 Q-3.95 0.8 -3.6 0.75 -3.25 0.65 -3.25 1.0" fill="#744416" fill-rule="evenodd" stroke="none"/>
    <path d="M3.5 -1.35 Q3.5 -0.7 2.5 -0.25 L0.05 0.2 -2.4 -0.25 Q-3.45 -0.7 -3.45 -1.35 -3.45 -2.0 -2.4 -2.5 L0.05 -2.95 2.5 -2.5 Q3.5 -2.0 3.5 -1.35" fill="#eec36f" fill-rule="evenodd" stroke="none"/>
    <path d="M1.55 -1.4 L1.15 -1.85 0.0 -2.1 -1.05 -1.85 -1.5 -1.4 Q-1.5 -1.1 -1.05 -0.9 L0.0 -0.7 1.15 -0.9 Q1.55 -1.1 1.55 -1.4 M1.8 -2.2 Q2.55 -1.85 2.55 -1.4 2.55 -0.9 1.8 -0.6 1.05 -0.2 0.0 -0.2 L-1.75 -0.6 Q-2.45 -0.9 -2.45 -1.4 -2.45 -1.85 -1.75 -2.2 L0.0 -2.55 1.8 -2.2" fill="#c68507" fill-rule="evenodd" stroke="none"/>
  </g>
</svg>
