<?xml version="1.0" encoding="UTF-8" standalone="no"?>
<svg xmlns:xlink="http://www.w3.org/1999/xlink" height="109.2px" width="41.6px" xmlns="http://www.w3.org/2000/svg">
  <g transform="matrix(1.0, 0.0, 0.0, 1.0, 9.4, 73.85)">
    <path d="M17.95 -26.2 L20.1 -28.95 Q12.05 -45.15 10.45 -73.1 10.65 -50.35 1.6 -27.65 2.45 -26.6 4.05 -25.55 L4.55 -25.15 Q2.35 -13.85 -3.35 -3.6 -2.35 -2.05 -0.2 -0.45 L0.8 0.2 Q-2.45 13.95 -8.65 26.3 -6.9 28.65 -3.35 30.85 3.85 35.25 12.8 34.5 20.3 33.85 26.6 29.3 L31.45 24.75 Q24.9 16.8 20.6 -0.75 L21.1 -1.25 24.25 -5.15 Q20.1 -11.5 17.55 -20.85 L16.55 -25.05 17.95 -26.2 Z" fill="none" stroke="#0e5e00" stroke-linecap="round" stroke-linejoin="round" stroke-width="1.5"/>
    <path d="M2.55 -8.8 L18.45 -11.0 Q23.15 14.6 31.45 24.75 L26.6 29.3 Q20.3 33.85 12.8 34.5 3.85 35.25 -3.35 30.85 -6.9 28.65 -8.65 26.3 -0.5 10.05 2.55 -8.8" fill="url(#gradient0)" fill-rule="evenodd" stroke="none"/>
    <path d="M4.7 -26.35 L4.15 -27.0 4.05 -27.5 4.05 -27.9 4.15 -28.15 4.4 -28.55 4.65 -28.8 4.7 -28.8 5.15 -28.95 Q5.7 -33.1 5.8 -37.35 L14.2 -38.95 Q15.55 -28.0 17.55 -20.85 20.1 -11.5 24.25 -5.15 L21.1 -1.25 Q16.75 2.65 10.45 2.65 6.1 2.65 2.65 1.2 L2.05 1.1 1.75 0.85 -0.2 -0.45 Q-2.35 -2.05 -3.35 -3.6 2.65 -14.35 4.7 -26.35" fill="url(#gradient1)" fill-rule="evenodd" stroke="none"/>
    <path d="M20.1 -28.95 L17.95 -26.2 Q15.0 -23.45 11.15 -23.45 7.3 -23.45 4.05 -25.55 2.45 -26.6 1.6 -27.65 10.65 -50.35 10.45 -73.1 12.05 -45.15 20.1 -28.95" fill="#189a01" fill-rule="evenodd" stroke="none"/>
    <path d="M10.55 -72.45 L10.45 -72.2 10.45 -73.0 10.55 -72.45" fill="#189a01" fill-rule="evenodd" stroke="none"/>
    <path d="M10.45 -72.2 L10.55 -72.45 Q10.8 -67.15 11.45 -62.05 13.7 -41.8 20.1 -28.95 L17.85 -26.05 16.75 -25.15 16.55 -25.05 16.85 -23.6 17.05 -22.95 17.55 -20.85 Q20.1 -11.5 24.25 -5.15 L21.1 -1.25 20.6 -0.75 20.8 0.05 21.1 0.95 21.6 2.9 Q21.45 3.15 21.6 3.3 L21.65 3.3 23.45 9.0 Q26.9 19.15 31.45 24.75 L26.6 29.3 23.05 31.5 21.8 32.15 Q20.35 29.15 19.5 25.9 L16.95 16.7 15.2 10.45 14.7 9.15 14.2 6.55 14.0 5.25 13.9 5.0 13.7 3.3 Q13.6 2.65 13.9 2.4 L14.2 2.15 14.4 2.25 14.5 2.4 14.6 2.25 14.7 2.0 14.75 2.25 Q15.2 1.75 15.85 1.6 17.35 1.35 18.65 0.55 17.25 0.45 16.45 -2.4 15.35 -6.2 14.5 -9.95 L12.55 -17.35 Q11.55 -20.35 11.55 -23.35 L11.55 -23.45 11.55 -23.75 11.75 -24.0 12.05 -23.85 12.7 -23.85 13.0 -23.85 14.25 -24.25 Q15.0 -24.4 15.65 -24.65 13.7 -30.75 12.6 -37.25 11.45 -44.25 10.75 -51.4 10.25 -57.25 10.15 -63.1 L10.25 -64.25 10.45 -72.2 M21.35 20.2 L21.3 20.2 21.3 20.45 21.3 20.6 21.3 20.8 21.35 20.2" fill="#000000" fill-opacity="0.12941177" fill-rule="evenodd" stroke="none"/>
    <path d="M14.6 2.25 L14.5 2.4 14.4 2.25 14.6 2.25 M21.65 3.3 L21.6 3.3 Q21.45 3.15 21.6 2.9 L21.65 3.3 M21.35 20.2 L21.3 20.8 21.3 20.6 21.3 20.45 21.3 20.2 21.35 20.2" fill="url(#gradient2)" fill-rule="evenodd" stroke="none"/>
  </g>
  <defs>
    <linearGradient gradientTransform="matrix(-4.0E-4, 0.0277, -0.0211, -6.0E-4, 11.05, -10.85)" gradientUnits="userSpaceOnUse" id="gradient0" spreadMethod="pad" x1="-819.2" x2="819.2">
      <stop offset="0.0" stop-color="#0a4000"/>
      <stop offset="1.0" stop-color="#158901"/>
    </linearGradient>
    <linearGradient gradientTransform="matrix(-9.0E-4, 0.0222, -0.0192, -0.0015, 11.05, -32.95)" gradientUnits="userSpaceOnUse" id="gradient1" spreadMethod="pad" x1="-819.2" x2="819.2">
      <stop offset="0.0" stop-color="#0a4000"/>
      <stop offset="1.0" stop-color="#169201"/>
    </linearGradient>
    <linearGradient gradientTransform="matrix(-4.0E-4, 0.0277, -0.0211, -6.0E-4, 11.05, -10.85)" gradientUnits="userSpaceOnUse" id="gradient2" spreadMethod="pad" x1="-819.2" x2="819.2">
      <stop offset="0.0" stop-color="#0a4000"/>
      <stop offset="1.0" stop-color="#158901"/>
    </linearGradient>
  </defs>
</svg>
