<?xml version="1.0" encoding="UTF-8" standalone="no"?>
<svg xmlns:xlink="http://www.w3.org/1999/xlink" height="36.1px" width="37.65px" xmlns="http://www.w3.org/2000/svg">
  <g transform="matrix(1.0, 0.0, 0.0, 1.0, 18.8, 18.05)">
    <path d="M16.15 -6.5 Q17.35 -6.4 18.15 -5.45 18.95 -4.55 18.85 -3.35 18.75 -2.15 17.9 -1.35 L11.3 4.75 12.8 14.6 Q12.95 15.75 12.3 16.75 11.65 17.7 10.55 17.95 L8.4 17.7 -0.05 13.25 -8.3 17.7 -10.5 17.95 Q-11.65 17.65 -12.3 16.65 -12.95 15.65 -12.7 14.5 L-10.75 4.85 -17.75 -1.3 Q-18.7 -2.1 -18.8 -3.3 -18.9 -4.5 -18.1 -5.45 -17.35 -6.4 -16.15 -6.5 L-6.75 -7.6 -2.65 -16.3 Q-2.15 -17.4 -1.05 -17.8 L1.1 -17.85 Q2.2 -17.45 2.75 -16.4 L7.2 -7.5 16.15 -6.5" fill="#ffffff" fill-rule="evenodd" stroke="none"/>
  </g>
</svg>
