<?xml version="1.0" encoding="UTF-8" standalone="no"?>
<svg xmlns:xlink="http://www.w3.org/1999/xlink" height="122.0px" width="57.65px" xmlns="http://www.w3.org/2000/svg">
  <g transform="matrix(1.0, 0.0, 0.0, 1.0, -3.35, 18.45)">
    <path d="M59.1 -7.2 Q59.55 -5.05 59.55 -1.5 L59.55 24.8 59.8 25.55 59.8 44.2 Q61.0 56.95 61.0 67.1 60.75 75.2 59.5 82.95 57.75 93.9 54.75 97.05 53.45 100.0 51.85 100.5 L51.75 100.55 52.05 100.8 39.2 103.55 39.15 103.55 21.95 100.3 8.05 94.15 9.15 93.35 Q7.75 92.1 6.5 90.2 5.6 90.1 5.3 85.15 L5.25 79.95 5.75 67.8 Q5.75 59.2 4.05 46.4 L4.05 30.5 4.3 24.4 4.05 18.55 4.05 8.95 Q3.4 6.15 3.4 1.9 L3.45 1.15 3.35 0.2 5.35 -4.2 Q7.3 -8.7 7.25 -10.85 7.05 -18.25 13.85 -18.45 L19.4 -17.9 23.75 -17.55 44.9 -15.35 Q54.6 -14.1 56.35 -12.45 58.35 -10.5 59.1 -7.2" fill="#ffffff" fill-rule="evenodd" stroke="none"/>
  </g>
</svg>
