<?xml version="1.0" encoding="UTF-8" standalone="no"?>
<svg xmlns:xlink="http://www.w3.org/1999/xlink" height="82.0px" width="63.0px" xmlns="http://www.w3.org/2000/svg">
  <g transform="matrix(1.0, 0.0, 0.0, 1.0, 0.0, 15.95)">
    <path d="M3.0 -13.85 L58.45 -13.95 61.0 64.05 2.0 64.05 2.8 -13.65 3.05 -13.65 3.0 -13.85" fill="#000000" fill-rule="evenodd" stroke="none"/>
    <path d="M3.0 -13.85 L58.45 -13.95 61.0 64.05 2.0 64.05 2.8 -13.65 3.05 -13.65 3.0 -13.85 Z" fill="none" stroke="#0e0e0e" stroke-linecap="round" stroke-linejoin="round" stroke-width="4.0"/>
    <path d="M2.0 64.05 L2.8 -13.65 56.85 -13.95 58.45 -13.95 59.5 17.05 61.0 64.05 53.65 5.05 9.4 5.05 2.0 64.05" fill="#741010" fill-rule="evenodd" stroke="none"/>
    <path d="M2.0 64.05 L9.4 5.05 53.65 5.05 61.0 64.05 2.0 64.05" fill="#251813" fill-rule="evenodd" stroke="none"/>
  </g>
</svg>
