<?xml version="1.0" encoding="UTF-8" standalone="no"?>
<svg xmlns:xlink="http://www.w3.org/1999/xlink" height="121.5px" width="54.9px" xmlns="http://www.w3.org/2000/svg">
  <g transform="matrix(1.0, 0.0, 0.0, 1.0, 27.0, 54.9)">
    <path d="M14.7 -49.9 L22.9 -48.25 Q10.75 -18.9 8.9 3.95 7.8 17.4 10.3 26.3 13.6 30.95 16.7 37.0 L19.15 42.15 13.0 47.75 9.7 34.95 Q11.25 46.2 14.15 56.1 L5.65 59.4 Q3.2 55.35 1.95 52.2 0.6 48.8 -0.45 43.8 0.85 54.25 3.85 60.8 L-3.95 61.6 Q-7.45 58.05 -9.3 54.75 -11.35 51.15 -12.95 45.25 -12.2 52.25 -8.75 58.1 L-15.0 58.3 Q-21.8 46.2 -22.0 29.8 -22.2 14.85 -16.95 -1.4 -12.0 -16.75 -3.5 -29.85 5.0 -42.85 14.7 -49.9" fill="#bf7926" fill-rule="evenodd" stroke="none"/>
    <path d="M14.7 -49.9 Q5.0 -42.85 -3.5 -29.85 -12.0 -16.75 -16.95 -1.4 -22.2 14.85 -22.0 29.8 -21.8 46.2 -15.0 58.3 L-8.75 58.1 Q-12.2 52.25 -12.95 45.25 -11.35 51.15 -9.3 54.75 -7.45 58.05 -3.95 61.6 L3.85 60.8 Q0.85 54.25 -0.45 43.8 0.6 48.8 1.95 52.2 3.2 55.35 5.65 59.4 L14.15 56.1 Q11.25 46.2 9.7 34.95 L13.0 47.75 19.15 42.15 16.7 37.0 Q13.6 30.95 10.3 26.3 7.8 17.4 8.9 3.95 10.75 -18.9 22.9 -48.25 L14.7 -49.9 Z" fill="none" stroke="#8c5c16" stroke-linecap="round" stroke-linejoin="round" stroke-width="10.0"/>
    <path d="M14.7 -49.9 L22.9 -48.25 Q10.75 -18.9 8.9 3.95 7.8 17.4 10.3 26.3 13.6 30.95 16.7 37.0 L19.15 42.15 13.0 47.75 9.7 34.95 Q11.25 46.2 14.15 56.1 L5.65 59.4 Q3.2 55.35 1.95 52.2 0.6 48.8 -0.45 43.8 0.85 54.25 3.85 60.8 L-3.95 61.6 Q-7.45 58.05 -9.3 54.75 -11.35 51.15 -12.95 45.25 -12.2 52.25 -8.75 58.1 L-15.0 58.3 Q-21.8 46.2 -22.0 29.8 -22.2 14.85 -16.95 -1.4 -12.0 -16.75 -3.5 -29.85 5.0 -42.85 14.7 -49.9" fill="#c1a856" fill-rule="evenodd" stroke="none"/>
    <path d="M0.85 51.35 Q-4.55 53.15 -9.7 54.0 -10.85 51.85 -11.8 48.95 1.65 47.2 17.25 38.05 L19.15 42.15 17.2 43.95 12.65 46.35 11.35 41.3 10.75 41.6 11.8 46.8 Q6.55 49.35 1.55 51.1 0.75 48.9 0.1 46.1 L-0.1 46.2 0.85 51.35 M10.3 26.3 L11.8 28.5 Q-6.2 37.9 -21.5 37.6 L-21.9 32.25 Q-7.45 32.7 9.7 23.8 L10.3 26.3 M8.6 9.4 Q-7.25 10.15 -19.05 5.85 L-17.6 0.65 Q-6.4 4.95 8.9 4.25 L8.6 9.4 M17.75 -34.65 Q8.8 -34.3 1.15 -36.35 L4.95 -40.95 4.1 -41.15 Q11.3 -39.5 19.7 -40.05 L17.75 -34.65 M13.05 -19.45 Q2.05 -20.7 -6.4 -25.05 L-3.6 -29.65 Q4.3 -25.7 14.5 -24.6 L13.05 -19.45 M-18.95 49.35 L-19.55 49.35 -12.3 49.0 Q-11.75 51.65 -10.7 54.15 L-17.6 54.7 -16.85 54.7 -18.95 49.35" fill="#98741c" fill-rule="evenodd" stroke="none"/>
    <path d="M0.85 51.35 L-0.1 46.2 0.1 46.1 Q0.75 48.9 1.55 51.1 L0.85 51.35" fill="#98741c" fill-rule="evenodd" stroke="none"/>
    <path d="M16.4 -30.75 L17.3 -30.75 Q6.95 -30.85 -1.85 -32.25 5.95 -43.5 14.7 -49.9 L22.9 -48.25 Q19.15 -39.2 16.4 -30.75" fill="#620000" fill-opacity="0.2" fill-rule="evenodd" stroke="none"/>
  </g>
</svg>
