<?xml version="1.0" encoding="UTF-8" standalone="no"?>
<svg xmlns:xlink="http://www.w3.org/1999/xlink" height="20.65px" width="7.1px" xmlns="http://www.w3.org/2000/svg">
  <g transform="matrix(1.0, 0.0, 0.0, 1.0, 2.95, 25.65)">
    <path d="M1.65 -25.55 Q2.4 -25.5 3.05 -24.6 L3.1 -24.45 3.4 -24.05 2.4 -22.65 1.95 -21.35 Q1.25 -19.1 1.3 -16.4 L1.35 -15.85 Q1.45 -12.8 2.2 -10.3 L2.25 -10.05 Q2.95 -8.15 3.5 -7.75 L3.5 -7.7 3.75 -7.7 4.15 -7.85 Q3.2 -5.2 1.85 -5.05 L1.5 -5.0 1.3 -5.05 0.9 -5.15 0.7 -5.3 0.5 -5.4 0.45 -5.45 0.0 -5.65 -0.45 -6.2 -0.55 -6.3 Q-2.2 -8.55 -2.5 -11.55 L-2.6 -12.35 Q-3.1 -14.25 -2.9 -16.4 L-2.9 -16.45 -2.75 -17.2 -2.75 -17.4 Q-2.5 -20.85 -0.9 -23.8 L-0.3 -24.7 Q0.3 -25.45 1.05 -25.65 L1.25 -25.6 1.4 -25.55 1.5 -25.55 1.65 -25.55" fill="#ffcc00" fill-rule="evenodd" stroke="none"/>
  </g>
</svg>
