<?xml version="1.0" encoding="UTF-8" standalone="no"?>
<svg xmlns:xlink="http://www.w3.org/1999/xlink" height="64.0px" width="64.0px" xmlns="http://www.w3.org/2000/svg">
  <g transform="matrix(1.0, 0.0, 0.0, 1.0, 0.0, 0.0)">
    <path d="M0.0 64.0 L0.0 0.0 64.0 0.0 64.0 64.0 0.0 64.0" fill="#999999" fill-opacity="0.0" fill-rule="evenodd" stroke="none"/>
    <path d="M53.35 35.45 L54.8 37.5 56.4 39.6 Q57.05 40.35 58.1 40.25 L58.25 40.1 58.4 39.9 58.5 39.8 58.65 39.75 58.9 39.7 59.35 39.75 59.7 39.8 60.15 40.5 60.4 41.5 60.85 42.65 61.35 43.75 61.55 44.5 61.85 45.7 Q61.9 46.4 62.35 46.95 L63.0 48.05 62.95 48.35 62.85 48.7 62.75 49.2 62.75 49.7 62.55 50.2 Q36.6 53.4 10.6 50.4 8.5 50.15 6.65 49.55 4.6 48.8 3.55 47.0 3.7 46.5 4.2 46.15 L5.25 45.45 6.4 44.6 Q6.95 43.25 8.05 42.15 L10.3 39.8 12.9 36.95 14.85 34.55 15.05 34.3 15.15 34.25 15.4 34.2 15.75 34.15 15.75 34.1 Q17.0 34.9 17.85 36.15 L19.7 38.3 21.75 40.45 22.35 41.2 Q22.55 40.95 22.9 40.8 L23.8 40.3 25.05 39.35 25.25 39.25 Q26.3 39.1 27.2 39.65 L28.85 40.75 Q29.65 41.25 30.55 41.35 L32.5 41.5 33.15 41.15 Q33.6 40.7 34.2 40.6 35.05 40.5 35.7 41.25 L36.45 41.75 36.95 42.25 37.0 42.35 38.35 41.95 39.7 41.55 39.7 41.5 Q40.4 41.5 40.7 42.15 L41.3 43.2 41.65 43.65 43.15 41.8 46.05 38.85 Q47.35 37.6 48.25 36.15 49.3 34.55 51.1 34.3 52.45 34.4 53.35 35.45" fill="url(#gradient0)" fill-rule="evenodd" stroke="none"/>
  </g>
  <defs>
    <linearGradient gradientTransform="matrix(1.0E-4, 0.0166, -0.0236, 1.0E-4, 32.65, 32.05)" gradientUnits="userSpaceOnUse" id="gradient0" spreadMethod="pad" x1="-819.2" x2="819.2">
      <stop offset="0.0" stop-color="#000000"/>
      <stop offset="1.0" stop-color="#999999"/>
    </linearGradient>
  </defs>
</svg>
