<?xml version="1.0" encoding="UTF-8" standalone="no"?>
<svg xmlns:xlink="http://www.w3.org/1999/xlink" height="347.95px" width="463.95px" xmlns="http://www.w3.org/2000/svg">
  <g transform="matrix(1.0, 0.0, 0.0, 1.0, -168.05, -94.05)">
    <path d="M447.65 302.5 Q447.5 302.55 447.5 302.85 447.5 303.8 447.9 305.0 L448.05 305.5 448.45 306.4 449.0 307.05 449.25 307.3 449.35 307.4 449.6 307.55 449.7 307.55 449.75 307.55 449.75 307.8 450.0 307.95 450.7 307.4 451.1 306.7 450.8 306.35 451.0 306.1 451.1 305.8 451.05 305.6 451.45 304.85 451.4 304.75 451.6 304.6 452.0 304.05 452.0 304.0 452.35 303.65 Q452.35 303.1 451.75 303.45 L451.1 304.0 450.7 304.65 450.55 304.9 450.15 305.5 449.8 305.9 449.65 306.15 449.45 306.25 449.45 306.3 448.7 305.5 448.6 304.9 448.45 303.55 448.35 302.9 Q448.2 302.35 447.9 302.35 L447.65 302.45 447.65 302.5 M632.0 442.0 L168.05 442.0 168.05 94.05 632.0 94.05 632.0 442.0" fill="#00ff00" fill-opacity="0.0" fill-rule="evenodd" stroke="none"/>
  </g>
</svg>
