<?xml version="1.0" encoding="UTF-8" standalone="no"?>
<svg xmlns:xlink="http://www.w3.org/1999/xlink" height="9.65px" width="14.45px" xmlns="http://www.w3.org/2000/svg">
  <g transform="matrix(1.0, 0.0, 0.0, 1.0, 5.5, 9.5)">
    <path d="M2.15 -0.75 Q1.5 0.15 -0.55 0.15 -2.3 0.15 -3.7 -0.55 -4.85 -1.1 -4.85 -1.5 -4.85 -2.1 -3.8 -2.7 L-1.4 -3.5 0.9 -3.5 4.2 -3.2 5.45 -2.75 6.3 -2.55 5.65 -2.85 6.4 -3.05 7.4 -2.7 8.0 -2.25 7.8 -1.95 7.9 -1.6 Q7.9 -0.5 5.2 -0.5 L2.5 -0.75 2.15 -0.75" fill="#000000" fill-opacity="0.14901961" fill-rule="evenodd" stroke="none"/>
    <path d="M4.25 -7.15 L5.2 -6.15 6.1 -5.3 Q8.45 -3.5 8.45 -2.9 8.45 -2.4 7.95 -2.4 L7.55 -2.4 6.55 -3.25 6.5 -3.1 Q6.5 -2.5 7.0 -2.1 L7.45 -1.55 7.15 -1.2 6.45 -1.0 Q5.95 -1.0 4.5 -2.2 3.1 -3.45 1.8 -3.45 0.65 -3.45 0.4 -2.85 2.0 -2.8 2.0 -2.35 L1.65 -1.95 0.9 -1.7 Q-1.05 -1.7 -2.5 -2.25 L-4.0 -3.15 Q-4.35 -3.25 -4.45 -4.4 L-4.5 -4.4 Q-5.0 -4.4 -5.0 -5.0 L-4.85 -5.55 -4.35 -5.9 -4.15 -5.85 -3.4 -6.85 Q-2.2 -7.95 0.05 -8.35 L2.1 -8.35 Q2.85 -8.45 4.25 -7.15" fill="#ffffff" fill-rule="evenodd" stroke="none"/>
    <path d="M4.25 -7.15 L5.2 -6.15 6.1 -5.3 Q8.45 -3.5 8.45 -2.9 8.45 -2.4 7.95 -2.4 L7.55 -2.4 6.55 -3.25 6.5 -3.1 Q6.5 -2.5 7.0 -2.1 L7.45 -1.55 7.15 -1.2 6.45 -1.0 Q5.95 -1.0 4.5 -2.2 3.1 -3.45 1.8 -3.45 0.65 -3.45 0.4 -2.85 2.0 -2.8 2.0 -2.35 L1.65 -1.95 0.9 -1.7 Q-1.05 -1.7 -2.5 -2.25 L-4.0 -3.15 Q-4.35 -3.25 -4.45 -4.4 L-4.5 -4.4 Q-5.0 -4.4 -5.0 -5.0 L-4.85 -5.55 -4.35 -5.9 -4.15 -5.85 -3.4 -6.85 Q-2.2 -7.95 0.05 -8.35 L2.1 -8.35 Q2.85 -8.45 4.25 -7.15 Z" fill="none" stroke="#cccccc" stroke-linecap="round" stroke-linejoin="round" stroke-width="1.0"/>
    <path d="M4.25 -7.15 L5.2 -6.15 6.1 -5.3 Q8.45 -3.5 8.45 -2.9 8.45 -2.4 7.95 -2.4 L7.55 -2.4 6.55 -3.25 6.5 -3.1 Q6.5 -2.5 7.0 -2.1 L7.45 -1.55 7.15 -1.2 6.45 -1.0 Q5.95 -1.0 4.5 -2.2 3.1 -3.45 1.8 -3.45 0.65 -3.45 0.4 -2.85 2.0 -2.8 2.0 -2.35 L1.65 -1.95 0.9 -1.7 Q-1.05 -1.7 -2.5 -2.25 L-4.0 -3.15 Q-4.35 -3.25 -4.45 -4.4 L-4.5 -4.4 Q-5.0 -4.4 -5.0 -5.0 L-4.85 -5.55 -4.35 -5.9 -4.15 -5.85 -3.4 -6.85 Q-2.2 -7.95 0.05 -8.35 L2.1 -8.35 Q2.85 -8.45 4.25 -7.15" fill="#ffffff" fill-rule="evenodd" stroke="none"/>
    <path d="M3.45 -4.8 L-0.7 -4.65 -1.5 -5.1 -1.65 -5.15 Q-1.25 -5.5 -0.55 -5.55 L0.75 -5.5 3.0 -5.25 3.45 -5.2 3.6 -4.95 3.6 -4.85 3.45 -4.8" fill="#ffffff" fill-rule="evenodd" stroke="none"/>
    <path d="M3.45 -4.8 L-0.7 -4.65 -1.5 -5.1 -1.65 -5.15 Q-1.25 -5.5 -0.55 -5.55 L0.75 -5.5 3.0 -5.25 3.45 -5.2 3.6 -4.95 3.6 -4.85 3.45 -4.8 Z" fill="none" stroke="#cccccc" stroke-linecap="round" stroke-linejoin="round" stroke-width="1.0"/>
    <path d="M3.45 -4.8 L-0.7 -4.65 -1.5 -5.1 -1.65 -5.15 Q-1.25 -5.5 -0.55 -5.55 L0.75 -5.5 3.0 -5.25 3.45 -5.2 3.6 -4.95 3.6 -4.85 3.45 -4.8" fill="#ffffff" fill-rule="evenodd" stroke="none"/>
    <path d="M2.25 -8.6 L4.2 -7.85 4.5 -7.75 4.6 -7.45 4.6 -7.4 4.65 -7.35 4.5 -7.35 Q3.8 -7.15 0.95 -8.1 L0.3 -8.7 0.2 -8.8 1.2 -8.95 2.25 -8.6" fill="#ffffff" fill-rule="evenodd" stroke="none"/>
    <path d="M2.25 -8.6 L4.2 -7.85 4.5 -7.75 4.6 -7.45 4.6 -7.4 4.65 -7.35 4.5 -7.35 Q3.8 -7.15 0.95 -8.1 L0.3 -8.7 0.2 -8.8 1.2 -8.95 2.25 -8.6 Z" fill="none" stroke="#cccccc" stroke-linecap="round" stroke-linejoin="round" stroke-width="1.0"/>
    <path d="M2.25 -8.6 L4.2 -7.85 4.5 -7.75 4.6 -7.45 4.6 -7.4 4.65 -7.35 4.5 -7.35 Q3.8 -7.15 0.95 -8.1 L0.3 -8.7 0.2 -8.8 1.2 -8.95 2.25 -8.6" fill="#ffffff" fill-rule="evenodd" stroke="none"/>
    <path d="M3.2 -6.65 Q3.65 -7.5 4.4 -7.5 L5.35 -7.25 Q6.1 -6.95 6.65 -6.25 7.5 -5.25 6.9 -4.15 6.15 -2.85 4.7 -3.4 3.85 -3.7 3.35 -4.4 2.5 -5.4 3.2 -6.65 Z" fill="none" stroke="#cccccc" stroke-linecap="round" stroke-linejoin="round" stroke-width="1.0"/>
    <path d="M3.2 -6.65 Q3.65 -7.5 4.4 -7.5 L5.35 -7.25 Q6.1 -6.95 6.65 -6.25 7.5 -5.25 6.9 -4.15 6.15 -2.85 4.7 -3.4 3.85 -3.7 3.35 -4.4 2.5 -5.4 3.2 -6.65" fill="#ffffff" fill-rule="evenodd" stroke="none"/>
    <path d="M4.95 -4.2 L4.7 -4.15 Q4.45 -4.2 4.55 -4.45 L4.8 -4.55 4.95 -4.2 M5.7 -6.05 L5.9 -6.25 6.15 -6.15 6.15 -6.0 6.05 -5.75 5.8 -5.8 5.75 -5.85 5.65 -5.9 5.7 -6.05 M6.7 -4.3 L6.65 -4.05 6.45 -4.1 6.4 -4.25 6.4 -4.5 6.6 -4.45 6.7 -4.3" fill="#000000" fill-rule="evenodd" stroke="none"/>
    <path d="M0.65 -2.75 L0.45 -2.6 Q-0.15 -2.6 -0.15 -3.0 L-0.1 -3.05 -0.45 -3.75 Q-0.8 -4.3 -1.65 -4.45 L-1.65 -4.6 -1.0 -4.65 -0.1 -4.0 0.2 -3.1 0.2 -3.05 0.65 -2.75 M-4.15 -5.4 L-4.3 -3.95 -4.35 -3.9 -4.5 -4.4 -4.25 -5.65 -4.15 -5.4" fill="#cccccc" fill-rule="evenodd" stroke="none"/>
  </g>
</svg>
