<?xml version="1.0" encoding="UTF-8" standalone="no"?>
<svg xmlns:xlink="http://www.w3.org/1999/xlink" height="14.3px" width="7.85px" xmlns="http://www.w3.org/2000/svg">
  <g transform="matrix(1.0, 0.0, 0.0, 1.0, -1.65, 10.1)">
    <path d="M1.9 -1.25 L2.2 -1.45 2.25 -1.55 Q2.65 -2.05 3.5 -2.05 L4.4 -1.7 5.3 -1.2 5.65 -0.85 Q5.65 -1.45 6.0 -0.95 L6.05 -0.9 6.25 -0.7 6.8 0.75 7.1 2.9 Q7.1 4.2 6.3 4.2 L5.4 3.15 5.1 2.8 3.85 3.75 Q3.25 3.75 3.2 3.25 L3.25 2.4 2.95 1.3 Q1.7 1.1 1.65 -0.2 1.65 -0.95 1.9 -1.25" fill="#000000" fill-opacity="0.14901961" fill-rule="evenodd" stroke="none"/>
    <path d="M3.2 -4.95 Q3.8 -6.05 4.95 -6.05 7.1 -6.05 8.25 -3.6 9.0 -1.95 9.0 -0.4 9.0 0.8 8.5 0.8 8.0 0.8 7.65 -0.25 7.25 -1.35 6.7 -1.35 5.85 -1.35 5.45 -0.1 5.0 1.1 4.65 1.1 4.1 1.1 4.0 0.2 L3.95 -1.05 3.65 -1.05 Q3.65 -0.6 3.3 -0.6 2.5 -0.6 2.5 -2.1 L2.7 -3.7 Q2.45 -3.85 2.45 -4.25 2.45 -4.9 2.9 -5.0 L3.2 -4.95" fill="#ffffff" fill-rule="evenodd" stroke="none"/>
    <path d="M3.2 -4.95 Q3.8 -6.05 4.95 -6.05 7.1 -6.05 8.25 -3.6 9.0 -1.95 9.0 -0.4 9.0 0.8 8.5 0.8 8.0 0.8 7.65 -0.25 7.25 -1.35 6.7 -1.35 5.85 -1.35 5.45 -0.1 5.0 1.1 4.65 1.1 4.1 1.1 4.0 0.2 L3.95 -1.05 3.65 -1.05 Q3.65 -0.6 3.3 -0.6 2.5 -0.6 2.5 -2.1 L2.7 -3.7 Q2.45 -3.85 2.45 -4.25 2.45 -4.9 2.9 -5.0 L3.2 -4.95 Z" fill="none" stroke="#cccccc" stroke-linecap="round" stroke-linejoin="round" stroke-width="1.0"/>
    <path d="M3.2 -4.95 Q3.8 -6.05 4.95 -6.05 7.1 -6.05 8.25 -3.6 9.0 -1.95 9.0 -0.4 9.0 0.8 8.5 0.8 8.0 0.8 7.65 -0.25 7.25 -1.35 6.7 -1.35 5.85 -1.35 5.45 -0.1 5.0 1.1 4.65 1.1 4.1 1.1 4.0 0.2 L3.95 -1.05 3.65 -1.05 Q3.65 -0.6 3.3 -0.6 2.5 -0.6 2.5 -2.1 L2.7 -3.7 Q2.45 -3.85 2.45 -4.25 2.45 -4.9 2.9 -5.0 L3.2 -4.95" fill="#ffffff" fill-rule="evenodd" stroke="none"/>
    <path d="M5.0 -1.7 L5.25 -1.7 5.35 -1.6 5.75 -1.95 6.15 -1.85 6.4 -1.05 Q6.4 -0.5 5.9 -0.5 L5.3 -0.9 5.0 -1.4 5.0 -1.7" fill="#ffffff" fill-rule="evenodd" stroke="none"/>
    <path d="M3.65 -9.1 L4.45 -8.25 4.9 -7.0 5.55 -4.85 5.7 -4.5 5.5 -4.25 5.45 -4.25 5.4 -4.15 5.3 -4.35 Q4.7 -4.9 3.55 -8.05 L3.65 -8.95 3.65 -9.1" fill="#ffffff" fill-rule="evenodd" stroke="none"/>
    <path d="M3.65 -9.1 L4.45 -8.25 4.9 -7.0 5.55 -4.85 5.7 -4.5 5.5 -4.25 5.45 -4.25 5.4 -4.15 5.3 -4.35 Q4.7 -4.9 3.55 -8.05 L3.65 -8.95 3.65 -9.1 Z" fill="none" stroke="#cccccc" stroke-linecap="round" stroke-linejoin="round" stroke-width="1.0"/>
    <path d="M3.65 -9.1 L4.45 -8.25 4.9 -7.0 5.55 -4.85 5.7 -4.5 5.5 -4.25 5.45 -4.25 5.4 -4.15 5.3 -4.35 Q4.7 -4.9 3.55 -8.05 L3.65 -8.95 3.65 -9.1" fill="#ffffff" fill-rule="evenodd" stroke="none"/>
    <path d="M6.6 -9.6 L7.15 -8.75 7.35 -7.65 7.5 -5.6 7.6 -5.25 7.35 -5.0 7.3 -5.0 7.25 -4.95 7.15 -5.1 Q6.75 -5.6 6.3 -8.6 L6.6 -9.45 6.6 -9.6" fill="#ffffff" fill-rule="evenodd" stroke="none"/>
    <path d="M6.6 -9.6 L7.15 -8.75 7.35 -7.65 7.5 -5.6 7.6 -5.25 7.35 -5.0 7.3 -5.0 7.25 -4.95 7.15 -5.1 Q6.75 -5.6 6.3 -8.6 L6.6 -9.45 6.6 -9.6 Z" fill="none" stroke="#cccccc" stroke-linecap="round" stroke-linejoin="round" stroke-width="1.0"/>
    <path d="M6.6 -9.6 L7.15 -8.75 7.35 -7.65 7.5 -5.6 7.6 -5.25 7.35 -5.0 7.3 -5.0 7.25 -4.95 7.15 -5.1 Q6.75 -5.6 6.3 -8.6 L6.6 -9.45 6.6 -9.6" fill="#ffffff" fill-rule="evenodd" stroke="none"/>
    <path d="M6.3 -6.1 Q7.2 -6.2 7.7 -5.65 L8.0 -4.8 Q8.25 -4.0 8.15 -3.1 7.8 -1.8 6.55 -1.6 5.1 -1.4 4.65 -2.9 4.35 -3.75 4.55 -4.6 4.85 -5.85 6.3 -6.1 Z" fill="none" stroke="#cccccc" stroke-linecap="round" stroke-linejoin="round" stroke-width="1.0"/>
    <path d="M6.3 -6.1 Q7.2 -6.2 7.7 -5.65 L8.0 -4.8 Q8.25 -4.0 8.15 -3.1 7.8 -1.8 6.55 -1.6 5.1 -1.4 4.65 -2.9 4.35 -3.75 4.55 -4.6 4.85 -5.85 6.3 -6.1" fill="#ffffff" fill-rule="evenodd" stroke="none"/>
    <path d="M5.2 -4.15 Q5.0 -4.1 5.0 -4.25 4.95 -4.5 5.2 -4.6 L5.4 -4.4 5.2 -4.15 M7.5 -4.35 L7.45 -4.3 7.15 -4.2 7.0 -4.4 7.0 -4.45 7.0 -4.6 7.15 -4.65 7.45 -4.6 7.5 -4.35 M6.2 -3.0 L6.4 -3.15 6.45 -3.0 6.4 -2.8 6.2 -2.7 6.1 -2.9 6.2 -3.0" fill="#000000" fill-rule="evenodd" stroke="none"/>
    <path d="M3.3 -4.8 L2.75 -3.35 2.65 -3.35 2.6 -3.5 Q2.6 -4.3 3.25 -4.95 L3.3 -4.8 M3.9 -2.3 L3.45 -0.55 3.35 -1.1 3.25 -1.65 3.4 -1.85 3.6 -2.2 Q3.6 -2.65 3.75 -2.8 L3.9 -2.3 M6.0 -0.45 Q5.65 -0.45 5.65 -0.75 L6.05 -1.15 Q6.45 -1.3 6.45 -0.9 6.45 -0.45 6.0 -0.45" fill="#cccccc" fill-rule="evenodd" stroke="none"/>
  </g>
</svg>
