<?xml version="1.0" encoding="UTF-8" standalone="no"?>
<svg xmlns:xlink="http://www.w3.org/1999/xlink" height="5.35px" width="21.5px" xmlns="http://www.w3.org/2000/svg">
  <g transform="matrix(1.0, 0.0, 0.0, 1.0, 10.65, 2.7)">
    <path d="M8.95 -1.15 Q9.8 -0.4 9.85 0.3 9.95 0.85 9.35 1.35 L4.65 1.25 0.75 0.4 0.65 -0.3 4.5 -1.1 Q8.45 -1.6 8.95 -1.15 M-0.55 -0.4 L-0.45 0.3 -4.25 1.05 -8.75 1.15 Q-9.65 0.4 -9.65 -0.25 -9.7 -0.95 -9.15 -1.45 L-4.45 -1.25 -0.55 -0.4" fill="none" stroke="#303030" stroke-linecap="round" stroke-linejoin="round" stroke-width="2.0"/>
    <path d="M8.95 -1.15 Q9.8 -0.4 9.85 0.3 9.95 0.85 9.35 1.35 L4.65 1.25 0.75 0.4 0.65 -0.3 4.5 -1.1 Q8.45 -1.6 8.95 -1.15 M-0.55 -0.4 L-0.45 0.3 -4.25 1.05 -8.75 1.15 Q-9.65 0.4 -9.65 -0.25 -9.7 -0.95 -9.15 -1.45 L-4.45 -1.25 -0.55 -0.4" fill="#999999" fill-rule="evenodd" stroke="none"/>
  </g>
</svg>
