<?xml version="1.0" encoding="UTF-8" standalone="no"?>
<svg xmlns:xlink="http://www.w3.org/1999/xlink" height="97.05px" width="274.05px" xmlns="http://www.w3.org/2000/svg">
  <g transform="matrix(1.0, 0.0, 0.0, 1.0, -291.5, -394.95)">
    <path d="M296.7 404.65 L298.85 404.35 299.0 404.35 300.15 403.2 303.45 403.2 308.0 402.75 324.15 402.6 329.5 402.45 374.15 402.45 Q375.5 402.45 376.1 403.1 L376.25 403.2 410.0 403.2 410.35 403.9 410.6 404.2 429.5 404.2 Q435.6 404.45 438.0 405.4 L438.8 405.4 439.05 404.65 Q440.6 405.3 443.0 405.3 447.7 405.3 452.7 403.2 L481.55 403.2 484.8 404.7 Q486.4 404.6 489.7 404.8 L495.4 404.8 496.55 404.6 502.9 404.2 503.25 404.1 513.0 404.1 513.45 404.6 513.9 404.2 522.4 404.1 523.5 403.2 555.8 403.2 Q556.2 404.45 556.95 405.65 559.05 409.65 561.45 410.35 L561.45 442.9 561.4 442.95 Q560.4 444.8 560.4 447.95 560.4 451.1 561.05 455.45 L561.45 458.1 561.45 468.45 Q560.7 470.9 560.7 475.75 L560.75 477.45 560.15 483.55 Q559.3 482.8 558.2 482.95 556.65 483.0 555.65 485.05 554.85 486.35 554.6 488.25 552.9 487.45 550.9 487.1 546.8 486.35 544.05 487.85 542.15 488.65 541.45 490.55 L503.05 490.55 Q502.35 489.35 501.2 488.5 L461.7 488.3 448.65 490.55 427.2 490.55 423.95 489.8 415.2 488.0 Q409.55 488.65 406.0 488.05 404.1 488.25 403.15 490.55 L380.8 490.55 379.65 488.8 Q378.75 488.0 377.4 487.6 L369.4 488.8 364.7 488.65 363.65 488.6 Q360.45 489.35 358.95 490.55 L336.7 490.55 Q335.95 488.95 334.45 488.2 L327.9 488.05 325.35 487.9 Q316.9 490.4 315.15 490.55 L315.0 490.55 310.3 489.95 305.55 489.35 Q303.1 489.35 301.8 490.55 L295.95 490.55 Q295.75 486.0 294.75 482.1 L293.8 478.95 293.8 475.3 Q294.3 474.05 294.45 471.95 L294.5 465.0 Q294.5 460.45 294.15 456.45 L293.8 451.65 293.8 435.35 294.25 432.15 293.9 418.85 293.8 415.7 293.8 414.2 293.9 413.95 293.9 413.45 Q293.9 411.35 294.5 410.3 294.7 409.9 295.05 409.65 L295.75 407.3 296.7 404.65" fill="#000000" fill-opacity="0.4" fill-rule="evenodd" stroke="none"/>
    <path d="M305.25 400.25 L309.75 399.85 325.9 399.75 331.35 399.55 375.9 399.55 Q377.3 399.55 377.9 400.15 L378.0 400.25 411.8 400.25 412.1 401.05 412.4 401.35 431.3 401.35 Q437.4 401.5 439.8 402.5 L440.55 402.5 440.85 401.7 Q442.4 402.4 444.85 402.4 449.45 402.4 454.55 400.25 L483.4 400.25 486.55 401.75 Q488.25 401.65 491.45 401.85 L497.25 401.85 498.35 401.65 504.75 401.35 505.0 401.2 514.8 401.2 515.2 401.65 515.75 401.35 524.15 401.2 525.25 400.25 557.55 400.25 558.7 402.75 Q560.85 406.7 563.3 407.45 L563.3 440.0 563.25 440.05 Q562.2 441.9 562.2 445.05 562.2 448.2 562.8 452.55 L563.3 455.15 563.3 465.55 Q562.5 468.0 562.5 472.9 L562.55 474.55 561.95 480.65 Q561.05 479.85 559.95 480.0 558.5 480.05 557.4 482.15 556.65 483.4 556.4 485.35 554.7 484.5 552.65 484.25 548.6 483.4 545.85 484.9 543.95 485.75 543.3 487.6 L504.85 487.6 Q504.1 486.4 502.95 485.6 L463.5 485.4 450.4 487.6 429.0 487.6 425.7 486.9 416.95 485.1 Q411.35 485.75 407.8 485.2 405.9 485.35 405.0 487.6 L382.6 487.6 381.45 485.9 Q380.5 485.1 379.2 484.65 L371.25 485.9 366.5 485.75 365.45 485.7 Q362.25 486.4 360.7 487.6 L338.45 487.6 Q337.75 486.0 336.25 485.3 L329.65 485.2 327.1 484.95 Q318.7 487.5 316.9 487.6 L316.85 487.6 312.1 487.1 307.3 486.4 Q304.85 486.4 303.55 487.6 L297.75 487.6 Q297.55 483.05 296.55 479.25 L295.6 476.1 295.6 472.35 Q296.05 471.15 296.25 469.0 L296.3 462.1 Q296.3 457.55 295.9 453.5 L295.6 448.7 295.6 432.45 Q296.0 430.9 296.0 429.25 L295.7 415.9 295.6 412.75 295.6 411.25 295.7 411.0 295.7 410.55 Q295.7 408.45 296.3 407.4 L296.9 406.7 297.6 404.4 298.45 401.7 300.65 401.45 300.75 401.45 301.95 400.25 305.25 400.25" fill="#71b632" fill-rule="evenodd" stroke="none"/>
    <path d="M311.4 395.45 L311.45 397.3 311.45 399.35 Q311.2 401.45 310.5 402.15 309.85 401.45 309.55 399.3 L309.45 397.25 309.55 395.15 Q311.0 394.6 311.4 395.45 M295.55 413.75 Q293.65 413.15 293.25 412.4 294.2 410.9 296.15 411.1 298.2 411.25 298.75 413.25 L298.45 413.85 Q298.25 414.2 297.75 414.2 L295.55 413.75 M294.25 439.8 L291.5 439.1 Q293.1 437.4 295.6 437.3 L298.2 437.65 298.35 437.75 298.4 438.45 Q298.4 440.0 296.65 440.0 L294.25 439.8 M298.75 467.45 L298.85 468.35 Q298.85 470.25 293.65 471.1 L292.45 470.9 292.3 470.75 Q292.15 470.55 292.15 469.9 292.15 469.6 295.0 468.35 297.9 467.05 298.6 467.15 L298.75 467.45 M311.45 489.2 L311.1 486.65 Q311.1 481.65 312.5 485.4 L314.2 490.95 313.8 491.6 Q313.45 492.0 312.95 492.0 312.05 492.0 311.45 489.2 M565.45 407.95 L565.55 408.8 563.9 410.3 561.95 411.55 561.35 411.45 561.35 411.35 561.05 411.2 560.95 410.55 Q560.95 409.75 562.65 408.7 564.4 407.55 565.35 407.65 L565.45 407.95 M549.85 399.8 Q549.85 397.8 551.0 396.2 552.1 394.6 552.1 397.55 L551.75 400.25 Q551.35 402.35 550.85 402.35 550.0 402.35 549.85 401.15 L549.85 399.8 M565.0 445.2 L565.1 445.4 565.15 446.2 Q565.15 446.75 564.15 446.95 L560.45 447.9 Q560.2 447.8 560.2 446.75 560.2 446.0 561.6 445.4 L565.0 445.2 M564.65 463.7 L565.45 464.85 564.65 466.0 561.8 466.0 Q561.05 465.65 560.1 464.75 L560.5 463.45 564.65 463.7 M544.95 481.55 L545.45 481.3 Q545.9 481.75 546.6 484.35 L547.3 487.4 547.25 488.4 Q547.25 488.85 546.4 488.85 545.7 488.85 545.15 485.75 L544.75 482.5 544.95 481.55 M536.6 489.7 L536.05 490.15 535.65 489.95 Q535.5 489.7 535.5 489.0 L535.75 483.65 536.15 483.65 Q536.45 485.0 536.6 489.7 M446.45 404.95 L446.3 405.35 Q446.45 405.6 445.65 405.6 444.95 405.6 444.85 404.8 L444.85 403.95 445.0 400.6 Q445.25 398.1 445.65 397.65 446.0 398.0 446.3 400.6 L446.55 404.05 446.45 404.95 M409.0 488.85 Q407.95 488.85 407.8 486.65 L407.8 484.3 Q407.8 481.65 408.65 480.65 L409.3 483.65 409.85 487.2 409.8 488.4 Q409.8 488.85 409.0 488.85 M473.8 486.4 L473.45 484.05 Q473.45 482.8 474.25 482.1 474.6 482.45 475.15 484.7 L475.65 487.3 475.55 488.45 475.45 488.6 474.9 488.8 Q474.2 488.8 473.8 486.4 M354.75 401.9 L354.1 402.8 Q353.05 401.55 353.05 399.85 353.05 396.8 353.8 395.9 354.5 396.75 354.7 398.7 L354.75 401.9 M332.05 485.85 L332.05 487.0 Q331.85 487.95 331.15 488.1 330.25 487.0 330.25 485.95 L330.25 483.1 Q330.4 480.6 331.15 479.75 332.05 480.2 332.05 485.85 M398.1 490.7 L397.85 491.2 397.05 491.5 Q396.05 491.5 395.55 487.45 L395.4 483.3 395.45 481.3 Q397.5 481.25 398.05 485.65 398.25 487.85 398.1 490.15 L398.1 490.7" fill="#558925" fill-rule="evenodd" stroke="none"/>
  </g>
</svg>
