<?xml version="1.0" encoding="UTF-8" standalone="no"?>
<svg xmlns:xlink="http://www.w3.org/1999/xlink" height="185.95px" width="258.15px" xmlns="http://www.w3.org/2000/svg">
  <g transform="matrix(1.0, 0.0, 0.0, 1.0, 128.6, 92.7)">
    <path d="M-72.9 -60.9 Q-43.75 -87.25 -1.7 -88.15 40.3 -89.05 70.55 -64.0 100.8 -39.0 101.6 -2.65 101.75 4.75 100.65 11.8 59.15 31.55 3.1 32.75 -56.15 34.0 -100.1 13.9 -101.1 7.95 -101.25 1.7 -102.05 -34.65 -72.9 -60.9" fill="#40444f" fill-rule="evenodd" stroke="none"/>
    <path d="M-72.9 -60.9 Q-43.75 -87.25 -1.7 -88.15 40.3 -89.05 70.55 -64.0 100.8 -39.0 101.6 -2.65 101.75 4.75 100.65 11.8 59.15 31.55 3.1 32.75 -56.15 34.0 -100.1 13.9 -101.1 7.95 -101.25 1.7 -102.05 -34.65 -72.9 -60.9 Z" fill="none" stroke="#416409" stroke-linecap="round" stroke-linejoin="round" stroke-width="9.0"/>
    <path d="M87.45 -29.0 Q124.45 -9.95 125.05 18.15 125.65 46.25 89.5 66.95 53.5 87.6 1.95 88.7 -49.65 89.8 -86.65 70.7 -123.5 51.6 -124.1 23.5 -124.7 -4.6 -88.7 -25.25 -52.55 -45.85 -0.95 -46.95 50.6 -48.05 87.45 -29.0" fill="#191c1e" fill-rule="evenodd" stroke="none"/>
    <path d="M87.45 -29.0 Q124.45 -9.95 125.05 18.15 125.65 46.25 89.5 66.95 53.5 87.6 1.95 88.7 -49.65 89.8 -86.65 70.7 -123.5 51.6 -124.1 23.5 -124.7 -4.6 -88.7 -25.25 -52.55 -45.85 -0.95 -46.95 50.6 -48.05 87.45 -29.0 Z" fill="none" stroke="#416409" stroke-linecap="round" stroke-linejoin="round" stroke-width="9.0"/>
    <path d="M-72.9 -60.9 Q-43.75 -87.25 -1.7 -88.15 40.3 -89.05 70.55 -64.0 100.8 -39.0 101.6 -2.65 101.75 4.75 100.65 11.8 59.15 31.55 3.1 32.75 -56.15 34.0 -100.1 13.9 -101.1 7.95 -101.25 1.7 -102.05 -34.65 -72.9 -60.9" fill="#7cb421" fill-rule="evenodd" stroke="none"/>
    <path d="M60.55 -50.25 L50.5 -42.5 27.3 -66.95 1.05 -46.85 -7.8 -56.2 28.45 -84.05 28.5 -84.05 60.55 -50.25" fill="#ffcc33" fill-rule="evenodd" stroke="none"/>
    <path d="M96.25 -30.0 Q101.25 -17.25 101.6 -2.7 101.75 4.75 100.65 11.8 59.2 31.55 3.1 32.75 -56.15 34.0 -100.1 13.85 -101.1 7.9 -101.2 1.65 -101.55 -12.9 -97.1 -25.8 -92.35 -29.15 -86.65 -32.3 -51.35 -52.05 -0.9 -53.1 49.55 -54.2 85.6 -36.0 91.35 -33.15 96.25 -30.0" fill="#719d17" fill-rule="evenodd" stroke="none"/>
    <path d="M56.3 -46.95 L50.5 -42.55 43.55 -49.8 56.3 -46.95 M10.05 -53.8 L1.0 -46.9 -4.7 -52.95 -0.9 -53.1 9.2 -53.1 10.05 -53.8" fill="#ffbf1e" fill-rule="evenodd" stroke="none"/>
    <path d="M87.45 -29.0 Q124.45 -9.95 125.05 18.15 125.65 46.25 89.5 66.95 53.5 87.6 1.95 88.7 -49.65 89.8 -86.65 70.7 -123.5 51.6 -124.1 23.5 -124.7 -4.6 -88.7 -25.25 -52.55 -45.85 -0.95 -46.95 50.6 -48.05 87.45 -29.0" fill="#7cb421" fill-rule="evenodd" stroke="none"/>
    <path d="M69.25 -9.7 Q98.4 3.6 98.85 23.3 99.25 43.0 70.7 57.5 42.2 72.05 1.45 72.9 -39.3 73.8 -68.45 60.5 -97.55 47.2 -97.95 27.5 -98.4 7.8 -69.9 -6.7 -41.35 -21.2 -0.6 -22.1 40.15 -22.95 69.25 -9.7" fill="#416409" fill-rule="evenodd" stroke="none"/>
    <path d="M52.45 -67.05 Q52.75 -71.3 55.8 -74.25 63.5 -69.85 70.55 -64.0 L73.5 -61.45 73.9 -62.4 Q72.95 -60.0 70.85 -58.05 67.35 -55.0 62.85 -55.25 58.3 -55.6 55.25 -59.05 52.2 -62.5 52.45 -67.05 M34.25 -69.15 Q23.45 -65.2 8.45 -66.1 -6.45 -67.05 -16.75 -72.3 -27.0 -77.6 -26.6 -84.1 L-26.45 -85.15 Q-14.7 -87.9 -1.7 -88.2 24.15 -88.75 45.55 -79.45 44.95 -73.15 34.25 -69.15" fill="#ffcc33" fill-opacity="0.3019608" fill-rule="evenodd" stroke="none"/>
  </g>
</svg>
