<?xml version="1.0" encoding="UTF-8" standalone="no"?>
<svg xmlns:xlink="http://www.w3.org/1999/xlink" height="169.85px" width="250.7px" xmlns="http://www.w3.org/2000/svg">
  <g transform="matrix(1.0, 0.0, 0.0, 1.0, 140.0, 267.1)">
    <path d="M71.05 -227.55 L84.75 -226.95 Q101.75 -224.8 107.65 -216.3 109.05 -214.35 109.8 -212.0 113.9 -199.7 98.8 -184.95 87.2 -173.6 69.55 -166.0 67.15 -158.3 58.5 -149.85 43.35 -135.15 17.9 -126.6 13.55 -125.15 9.4 -124.05 -5.15 -111.4 -28.0 -103.7 -51.5 -95.9 -71.1 -97.55 L-74.4 -97.9 Q-84.65 -99.2 -90.9 -102.8 -95.0 -105.2 -97.35 -108.6 -98.7 -110.6 -99.55 -112.9 -101.45 -118.6 -99.25 -124.75 L-98.65 -126.2 Q-118.1 -129.15 -122.05 -140.95 -123.95 -146.6 -121.75 -152.8 -135.85 -156.45 -139.15 -166.35 -143.25 -178.7 -128.1 -193.4 -118.3 -202.95 -104.15 -209.9 L-104.25 -210.3 Q-108.4 -222.65 -93.25 -237.35 -78.1 -252.1 -52.6 -260.6 -27.1 -269.15 -6.2 -266.45 11.0 -264.3 16.85 -255.65 33.25 -258.95 47.45 -257.15 68.4 -254.5 72.55 -242.2 74.85 -235.25 71.05 -227.55" fill="#416409" fill-rule="evenodd" stroke="none"/>
  </g>
</svg>
