<?xml version="1.0" encoding="UTF-8" standalone="no"?>
<svg xmlns:xlink="http://www.w3.org/1999/xlink" height="140.95px" width="255.8px" xmlns="http://www.w3.org/2000/svg">
  <g transform="matrix(1.0, 0.0, 0.0, 1.0, 127.9, 70.5)">
    <path d="M123.4 24.3 Q123.9 39.85 88.1 52.0 52.25 64.2 1.15 65.75 -50.0 67.35 -86.4 57.45 -122.9 47.5 -123.4 31.95 -123.75 19.2 -99.75 8.75 -98.4 -15.45 -78.45 -35.6 -52.85 -61.4 -11.6 -65.35 29.7 -69.35 62.45 -49.2 95.15 -29.1 100.3 3.25 123.05 12.05 123.4 24.3" fill="#416409" fill-rule="evenodd" stroke="none"/>
    <path d="M123.4 24.3 Q123.9 39.85 88.1 52.0 52.25 64.2 1.15 65.75 -50.0 67.35 -86.4 57.45 -122.9 47.5 -123.4 31.95 -123.75 19.2 -99.75 8.75 -98.4 -15.45 -78.45 -35.6 -52.85 -61.4 -11.6 -65.35 29.7 -69.35 62.45 -49.2 95.15 -29.1 100.3 3.25 123.05 12.05 123.4 24.3 Z" fill="none" stroke="#416409" stroke-linecap="round" stroke-linejoin="round" stroke-width="9.0"/>
    <path d="M88.1 52.0 Q52.25 64.2 1.15 65.75 -50.0 67.35 -86.4 57.45 -122.9 47.5 -123.4 31.95 -123.85 16.4 -88.05 4.25 -52.3 -7.95 -1.15 -9.55 49.95 -11.1 86.45 -1.2 122.95 8.75 123.4 24.3 123.9 39.85 88.1 52.0" fill="#7cb421" fill-rule="evenodd" stroke="none"/>
    <path d="M1.15 65.75 Q-50.0 67.35 -86.4 57.45 -122.9 47.5 -123.4 31.95 -123.85 16.4 -88.05 4.25 L-80.55 1.9 Q-94.3 9.7 -97.8 18.45 L-97.45 18.35 -97.45 18.4 Q-95.2 17.9 -93.35 19.25 -92.2 20.05 -91.9 21.35 L-91.35 21.45 Q-89.35 21.55 -88.1 23.0 L-87.0 24.7 -86.95 25.05 -86.85 25.45 -86.8 25.8 -86.7 26.2 Q-86.75 27.95 -87.9 29.25 -90.45 32.05 -94.4 31.8 L-95.0 32.05 -95.7 32.3 -96.45 32.35 -97.0 32.35 Q-89.55 46.4 -54.05 56.0 -26.85 63.4 7.1 65.55 L1.15 65.75" fill="#f73600" fill-opacity="0.5019608" fill-rule="evenodd" stroke="none"/>
    <path d="M99.45 28.55 Q92.35 31.95 77.4 35.15 47.95 41.5 2.75 43.1 -42.45 44.7 -73.35 39.25 -89.85 36.35 -96.6 32.95 -98.4 26.5 -99.0 22.65 -104.05 -9.75 -78.45 -35.6 -52.85 -61.4 -11.6 -65.35 29.7 -69.35 62.45 -49.2 95.25 -29.05 100.3 3.45 102.35 16.55 99.45 28.55" fill="#7cb421" fill-rule="evenodd" stroke="none"/>
    <path d="M49.85 20.9 L38.95 31.0 9.15 5.05 -19.2 31.45 -30.6 21.55 8.55 -15.0 8.6 -14.95 49.85 20.9" fill="#ffcc33" fill-rule="evenodd" stroke="none"/>
    <path d="M96.65 22.7 Q99.45 11.05 97.45 -1.6 95.65 -13.25 90.2 -23.25 98.05 -11.15 100.3 3.45 102.35 16.55 99.45 28.55 92.35 31.95 77.4 35.15 47.95 41.5 2.75 43.1 -42.45 44.7 -73.35 39.25 -89.85 36.35 -96.6 32.95 -98.4 26.5 -99.0 22.65 -103.4 -5.45 -84.65 -28.65 -99.35 -7.85 -95.5 17.0 -94.9 20.7 -93.15 26.95 -86.65 30.25 -70.65 33.05 -40.75 38.35 3.0 36.8 46.8 35.25 75.3 29.1 89.75 25.95 96.65 22.7" fill="#719d17" fill-rule="evenodd" stroke="none"/>
    <path d="M-11.45 -65.35 Q-38.2 -58.15 -56.75 -39.45 -82.35 -13.6 -77.3 18.8 -76.7 22.65 -74.9 29.1 -68.15 32.5 -51.65 35.4 -20.75 40.85 24.45 39.25 55.2 38.15 78.7 34.9 L77.4 35.15 Q47.95 41.5 2.75 43.1 -42.45 44.7 -73.35 39.25 -89.85 36.35 -96.6 32.95 -98.4 26.5 -99.0 22.65 -104.05 -9.75 -78.45 -35.6 -52.85 -61.4 -11.6 -65.35 L-11.45 -65.35" fill="#f73600" fill-opacity="0.5019608" fill-rule="evenodd" stroke="none"/>
  </g>
</svg>
