<?xml version="1.0" encoding="UTF-8" standalone="no"?>
<svg xmlns:xlink="http://www.w3.org/1999/xlink" height="77.45px" width="59.9px" xmlns="http://www.w3.org/2000/svg">
  <g transform="matrix(1.0, 0.0, 0.0, 1.0, -2.25, 13.45)">
    <path d="M60.9 7.6 L60.95 7.65 61.05 7.8 61.05 7.9 61.0 7.95 60.95 8.1 60.8 8.2 60.45 8.2 60.3 8.2 60.25 8.05 60.3 8.0 60.25 7.9 60.25 7.75 60.3 7.7 60.35 7.6 60.4 7.55 60.5 7.5 60.65 7.5 60.65 7.45 60.8 7.55 60.9 7.6 M60.9 8.5 L61.0 8.65 61.0 8.75 61.0 8.85 60.9 9.0 60.65 9.1 Q60.45 9.15 60.35 8.95 L60.3 8.9 60.3 8.8 60.3 8.75 60.3 8.65 60.3 8.6 60.35 8.55 60.4 8.45 60.5 8.4 60.55 8.4 60.65 8.35 60.8 8.4 60.9 8.5 M3.9 38.2 L4.05 38.2 4.3 38.25 4.45 38.3 4.5 38.25 4.4 38.1 4.3 37.75 4.4 37.4 4.7 37.0 4.85 36.85 4.45 36.45 4.4 35.85 4.6 35.2 4.9 34.9 4.85 33.9 4.8 33.9 4.6 33.95 4.4 33.9 4.35 33.85 4.25 33.75 4.2 33.7 4.15 33.6 4.15 33.55 4.15 33.45 4.2 33.4 4.2 33.3 4.35 33.2 4.5 33.1 4.6 33.05 4.8 33.15 4.85 33.15 4.8 32.15 4.7 32.1 4.65 32.0 4.6 31.95 4.6 31.85 4.6 31.8 4.55 31.65 4.55 31.5 4.55 31.35 4.6 31.35 4.55 31.3 4.5 31.25 4.3 30.65 4.3 30.55 4.4 30.25 3.9 29.85 3.8 29.35 Q3.75 29.05 3.95 28.85 L4.3 28.65 4.15 28.15 3.9 26.7 3.65 26.65 3.45 26.45 3.45 26.35 3.45 26.25 3.45 26.15 3.5 26.1 3.55 26.0 3.65 25.95 3.65 25.8 3.65 25.65 3.65 25.5 3.75 25.35 3.75 24.0 3.7 23.85 3.65 23.8 3.65 23.7 3.65 23.65 3.7 23.6 3.75 23.5 3.8 23.45 3.85 23.3 3.65 23.15 3.55 22.85 3.65 22.55 3.7 22.5 3.75 22.45 3.6 22.4 3.5 22.35 3.4 22.3 3.4 22.2 3.4 22.15 3.4 22.05 3.35 21.9 3.4 21.75 3.45 21.7 3.5 21.6 3.6 21.55 3.75 21.5 3.9 21.55 4.0 21.6 4.1 21.7 4.1 21.75 4.1 21.85 4.15 22.0 4.45 21.45 3.85 21.1 3.75 20.95 3.65 20.95 3.45 20.9 3.35 20.8 3.25 20.65 3.2 20.55 3.15 20.4 3.2 20.3 3.25 20.25 3.35 20.1 3.65 20.0 3.65 19.95 3.85 20.05 3.9 20.05 4.25 19.9 4.7 19.7 4.6 19.05 4.5 19.05 4.4 19.05 4.25 19.1 4.0 19.15 3.9 19.05 3.85 19.0 3.8 18.9 3.8 18.85 3.8 18.75 3.85 18.7 3.85 18.6 3.9 18.55 3.95 18.45 4.0 18.4 4.1 18.35 4.2 18.35 4.2 18.3 4.25 18.25 4.35 18.15 4.5 18.1 4.65 18.15 4.75 17.5 4.65 17.5 4.45 17.4 4.1 17.35 3.95 17.25 3.9 17.15 3.85 17.1 3.85 16.95 3.9 16.8 3.95 16.65 4.05 16.6 4.1 16.55 4.15 16.5 4.25 16.5 4.3 16.45 4.35 16.4 4.5 16.4 4.7 16.45 4.75 16.45 4.75 16.15 4.4 16.3 Q3.9 16.2 3.8 15.7 3.75 15.3 4.05 15.1 L4.2 15.0 4.15 14.95 4.1 14.8 4.1 14.7 4.1 14.65 4.15 14.6 4.3 14.45 4.4 14.45 4.55 14.5 4.65 14.55 4.7 14.65 4.7 14.75 5.1 14.65 4.9 14.4 4.75 14.0 4.6 14.0 4.5 14.0 4.4 14.05 4.25 14.1 3.95 14.0 3.9 13.95 3.9 13.85 3.9 13.8 4.05 13.65 4.25 13.6 4.2 13.55 4.2 13.45 4.3 13.35 4.5 13.45 4.65 13.6 4.75 13.7 4.75 13.6 4.85 12.9 Q4.9 12.65 5.05 12.55 L4.95 12.3 4.75 12.45 4.6 12.45 4.45 12.4 4.4 12.4 4.3 12.4 4.15 12.4 4.05 12.3 4.0 12.25 3.85 12.35 3.55 12.5 3.35 12.4 3.25 12.35 3.15 12.2 3.1 12.05 3.05 11.9 3.1 11.85 3.15 11.8 3.25 11.65 3.55 11.5 3.75 11.55 3.65 11.45 3.6 11.1 3.75 10.8 4.1 10.65 4.05 10.55 4.05 10.35 4.15 10.25 4.25 10.2 4.4 10.15 4.55 10.2 4.65 9.7 4.25 9.75 4.1 9.75 4.05 9.85 3.85 10.05 3.5 10.05 3.4 10.0 3.35 9.9 3.3 9.85 3.3 9.7 3.3 9.55 3.3 9.45 3.4 9.4 3.5 9.35 3.65 9.3 3.65 9.25 3.75 9.3 3.9 9.35 3.9 9.25 4.0 9.1 4.05 9.05 4.15 9.0 4.3 8.95 4.25 8.8 4.2 8.75 4.2 8.65 4.2 8.6 4.25 8.5 4.25 8.45 4.35 8.35 4.45 8.3 4.6 8.25 4.65 8.25 4.6 8.2 4.6 8.15 4.2 8.2 4.1 8.15 4.05 8.05 4.0 8.0 4.0 7.9 4.0 7.8 3.95 7.75 Q3.7 7.75 3.5 7.55 L3.35 7.25 3.4 6.95 3.5 6.85 3.55 6.8 3.65 6.75 3.7 6.75 3.85 6.7 4.05 6.75 4.15 6.85 4.25 6.9 4.3 6.95 4.35 7.1 4.4 7.35 4.35 7.45 4.4 7.45 4.6 7.5 4.7 7.55 Q4.95 7.15 5.5 7.3 L5.55 7.3 5.5 7.25 5.45 7.2 5.45 7.1 5.4 7.05 5.4 6.9 5.45 6.8 5.5 6.75 5.55 6.7 5.65 6.65 5.8 6.6 5.8 6.5 5.85 6.4 5.9 6.35 6.05 6.2 6.3 6.1 6.5 6.15 6.6 6.25 6.7 6.4 6.8 6.5 6.9 6.55 7.05 6.7 7.15 6.85 7.45 6.85 Q7.9 6.85 8.1 7.3 8.25 7.7 8.0 8.0 7.75 8.35 7.35 8.35 L6.85 8.35 7.45 8.5 Q7.8 8.6 7.95 8.9 L8.1 9.5 8.05 9.65 8.05 9.7 9.05 11.25 9.05 11.2 9.65 11.4 10.05 11.65 10.3 11.85 10.55 15.0 Q11.5 18.5 11.1 22.8 10.7 27.0 10.55 31.2 L10.9 39.15 Q11.05 41.15 10.75 42.95 10.95 46.7 11.4 50.45 11.85 54.5 10.1 56.5 L16.75 55.95 21.75 56.05 24.1 56.15 30.65 56.1 Q32.45 56.05 33.35 57.4 33.75 58.0 33.15 58.4 L32.95 58.55 32.95 58.6 Q33.45 58.6 33.65 59.05 L33.65 59.2 Q35.45 58.7 37.0 59.2 L37.8 58.8 37.8 58.75 Q37.7 57.85 38.55 57.45 L39.0 57.25 39.15 57.2 39.2 57.15 41.0 56.35 41.7 56.55 48.25 56.4 51.5 56.0 52.55 55.9 Q53.95 55.5 54.5 56.25 L54.75 55.9 Q53.7 50.6 54.25 45.0 54.8 38.95 54.55 32.65 L53.8 20.65 Q53.4 15.2 56.4 12.35 L56.9 13.1 56.9 12.2 56.5 11.55 56.15 10.85 Q56.05 10.4 56.2 10.0 56.65 9.1 57.7 9.15 L57.7 9.1 58.1 9.4 58.4 9.3 58.6 9.35 58.7 9.4 58.75 9.5 58.9 9.45 59.0 9.45 58.75 9.4 58.65 9.3 58.6 9.15 58.65 9.1 58.7 9.0 58.75 8.95 58.8 8.95 58.9 8.95 58.9 8.9 59.05 9.0 59.1 9.05 59.15 9.1 59.2 9.25 59.25 9.2 59.4 9.15 59.55 9.1 59.7 9.2 59.75 9.25 59.75 9.2 59.9 9.25 59.95 9.35 60.0 9.4 60.0 9.55 60.0 9.7 59.9 9.8 59.95 9.85 60.0 9.95 60.0 10.05 60.0 10.1 60.05 10.1 60.1 10.25 60.15 10.4 60.15 10.5 60.15 10.6 60.1 10.7 60.05 10.75 60.1 10.75 60.25 10.75 60.6 10.9 60.8 11.15 60.75 11.45 60.8 11.5 60.85 11.6 60.9 11.75 60.9 11.95 60.8 12.15 60.65 12.35 60.25 12.25 60.2 12.2 60.35 12.8 60.35 12.75 60.5 12.85 60.6 12.9 60.65 12.95 60.75 13.1 60.75 13.15 60.8 13.3 60.85 13.4 60.85 13.45 60.85 13.55 60.8 13.6 60.8 13.65 60.75 13.75 60.65 13.8 60.75 13.85 60.85 13.9 60.9 13.95 60.95 14.05 61.0 14.1 61.0 14.2 61.05 14.25 61.05 14.35 61.0 14.4 61.0 14.5 60.95 14.55 60.9 14.65 60.8 14.7 60.75 14.75 60.7 14.75 60.6 14.75 60.7 14.95 60.75 14.9 60.95 14.95 61.05 15.05 61.1 15.15 61.15 15.3 61.15 15.4 61.1 15.55 60.95 15.65 60.7 15.7 60.75 15.75 60.85 15.8 60.85 15.9 60.95 16.05 60.95 16.25 60.9 16.5 60.65 16.65 60.6 16.7 60.45 16.7 60.1 16.6 60.05 16.55 59.95 17.0 60.05 16.95 Q60.75 17.1 60.65 17.75 L60.2 18.3 60.25 18.45 60.25 18.5 60.2 18.6 60.1 18.7 60.0 18.8 60.05 19.5 60.15 19.4 60.2 19.35 60.3 19.3 60.45 19.3 60.45 19.25 60.65 19.35 60.75 19.4 60.8 19.45 60.85 19.6 60.9 19.7 60.9 19.75 60.85 19.85 60.85 19.9 60.9 20.05 60.95 20.15 60.95 20.2 60.95 20.3 60.95 20.4 60.85 20.55 60.6 20.75 60.6 20.8 60.6 21.1 60.6 21.4 60.6 21.5 60.65 21.5 60.75 21.55 60.85 21.7 60.9 21.85 60.9 21.9 61.0 21.95 61.1 22.0 61.2 22.1 61.25 22.15 61.25 22.25 61.35 22.3 61.4 22.4 61.45 22.45 61.5 22.55 61.5 22.6 61.5 22.75 61.4 22.9 61.25 23.1 61.1 23.15 61.15 23.2 61.25 23.3 61.3 23.45 61.3 23.55 61.2 23.7 61.1 23.85 61.1 23.9 61.15 24.0 61.15 24.1 61.1 24.25 60.95 24.4 60.85 24.5 60.75 24.5 60.95 24.6 61.05 24.65 61.15 24.7 61.2 24.95 61.25 25.15 61.2 25.25 61.2 25.3 61.1 25.45 61.0 25.55 61.05 25.8 60.95 26.05 60.85 26.25 60.45 26.45 60.45 27.45 60.5 27.35 60.6 27.25 60.7 27.25 60.85 27.2 61.05 27.25 61.15 27.3 61.2 27.4 61.3 27.55 61.3 27.75 61.2 28.05 61.0 28.25 60.85 28.25 60.65 28.2 60.55 28.15 60.5 28.1 60.45 28.0 60.45 27.95 60.35 29.9 60.35 30.2 60.45 30.15 60.55 30.1 60.7 30.15 60.8 30.2 60.85 30.3 60.85 30.45 60.85 30.5 60.8 30.55 60.65 30.7 60.3 30.65 60.3 30.85 60.4 30.9 60.5 30.95 60.55 31.0 60.6 31.1 60.65 31.15 60.65 31.25 60.6 31.4 60.6 31.55 60.65 31.55 60.75 31.6 60.85 31.7 60.9 31.75 60.95 31.9 60.95 32.2 60.8 32.45 61.05 32.65 61.1 32.95 61.0 33.25 60.85 33.35 60.8 33.35 60.55 33.4 60.35 33.35 60.35 33.4 60.3 33.45 60.25 33.55 60.2 33.6 60.2 34.15 60.35 34.1 60.65 34.25 60.85 34.6 60.75 34.95 60.5 35.25 60.2 35.2 60.15 35.2 60.15 35.4 60.2 35.35 60.35 35.3 60.65 35.4 60.75 35.5 60.8 35.45 60.9 35.4 61.05 35.35 61.05 35.3 61.2 35.4 61.25 35.45 61.3 35.5 61.35 35.65 61.35 35.75 61.3 35.8 61.15 35.95 Q60.95 36.1 60.8 35.85 L60.75 35.75 60.75 35.65 60.55 35.75 60.35 35.7 60.2 35.7 60.15 35.6 60.15 35.9 60.15 36.35 60.25 36.3 60.25 36.25 60.5 36.4 60.6 36.7 60.4 36.9 60.3 36.95 60.35 36.95 60.45 37.05 60.55 37.2 60.6 37.35 60.55 37.45 60.3 37.65 60.25 37.7 60.2 37.85 60.15 37.9 60.15 39.2 60.2 39.15 60.35 39.1 60.55 39.25 60.55 39.5 60.35 39.55 60.15 39.5 60.15 39.75 60.2 39.75 60.25 39.95 60.3 40.1 60.45 40.2 60.55 40.4 60.55 40.55 60.45 40.65 60.25 40.75 60.2 40.8 60.2 41.65 60.35 41.7 60.45 41.8 60.55 41.85 60.55 41.9 60.6 42.0 60.6 42.05 60.6 42.15 60.55 42.3 60.5 42.4 60.3 42.55 60.25 42.55 60.3 44.1 60.35 44.15 60.45 44.25 60.55 44.4 60.55 44.5 60.5 44.55 60.45 44.7 60.3 44.9 60.3 45.05 60.35 45.0 60.45 44.95 60.6 45.0 60.65 45.1 60.7 45.15 60.75 45.3 60.7 45.35 60.7 45.45 60.55 45.5 60.35 45.5 60.35 46.15 60.45 46.2 60.5 46.45 60.55 46.5 60.6 46.55 60.65 46.65 60.7 46.7 60.7 46.75 60.7 46.85 60.65 47.0 60.6 47.1 60.4 47.25 60.4 47.3 60.5 47.3 60.65 47.35 60.7 47.4 60.75 47.4 60.85 47.45 60.9 47.55 60.95 47.6 61.0 47.7 61.0 47.6 61.0 47.55 61.1 47.45 61.2 47.4 61.35 47.35 61.55 47.4 61.6 47.45 61.7 47.6 61.7 47.75 61.75 47.85 61.7 47.9 61.6 48.05 61.2 48.1 61.1 48.05 61.0 47.95 61.0 47.85 60.95 47.95 60.9 48.1 60.7 48.25 60.65 48.25 60.75 48.3 60.85 48.35 60.9 48.4 61.0 48.55 61.0 48.65 61.0 48.7 61.0 48.8 60.9 48.9 60.75 49.05 60.55 49.1 60.4 49.1 60.25 49.9 60.45 49.85 60.45 49.8 60.65 49.9 60.75 49.95 60.8 50.0 60.85 50.1 60.9 50.25 60.95 50.4 60.95 50.6 60.8 50.8 60.7 50.9 60.6 50.95 60.55 51.05 60.3 51.25 60.15 51.3 60.15 51.35 60.15 51.65 60.1 51.8 60.25 51.75 60.45 51.8 60.55 51.9 60.6 51.95 60.65 52.0 60.7 52.1 60.7 52.15 60.7 52.25 60.65 52.4 60.6 52.5 60.5 52.6 60.45 52.65 60.1 53.05 60.0 53.1 60.1 54.6 60.1 54.65 60.3 54.75 60.4 54.7 60.55 54.7 60.55 54.65 60.65 54.7 60.8 54.75 60.9 54.8 60.95 54.85 60.95 54.7 61.05 54.55 61.15 54.5 61.25 54.45 61.4 54.5 61.5 54.6 61.55 54.65 61.6 54.8 61.6 54.85 61.55 54.95 61.45 55.1 61.25 55.15 61.05 55.05 61.05 55.1 61.0 55.2 60.8 55.4 60.55 55.45 60.35 55.75 60.15 55.75 60.0 55.7 59.95 55.75 60.05 55.75 60.45 55.95 60.6 56.3 60.5 56.7 60.65 57.1 60.6 57.55 60.4 57.9 60.4 58.0 60.4 58.05 60.45 58.15 60.45 58.3 60.5 58.25 60.65 58.2 60.85 58.25 60.95 58.35 61.0 58.4 61.05 58.5 61.1 58.55 61.1 58.6 61.1 58.7 61.05 58.85 60.95 58.95 60.8 59.1 60.65 59.1 60.3 59.0 60.15 58.8 60.15 58.7 60.05 58.7 59.95 58.85 59.45 59.4 59.65 59.35 59.7 59.4 59.7 59.35 59.9 59.25 60.05 59.2 60.25 59.25 60.4 59.5 60.35 59.7 60.2 59.9 60.05 60.05 60.0 60.15 59.85 60.25 59.35 60.2 59.25 60.1 59.1 60.15 59.0 60.3 58.9 60.4 58.95 60.55 58.85 60.75 58.6 60.8 58.45 60.8 58.4 60.7 58.35 60.65 58.35 60.5 58.45 60.35 58.6 60.3 58.65 60.3 58.5 60.2 58.5 60.1 58.5 60.05 58.5 60.0 58.05 60.15 58.15 60.25 58.3 60.45 58.3 60.6 58.25 60.75 58.1 60.9 57.7 61.0 57.3 60.75 57.25 60.7 57.25 60.6 57.25 60.55 57.25 60.45 57.25 60.4 57.25 60.3 57.3 60.25 57.3 60.2 57.1 60.2 57.1 60.25 Q57.05 60.95 56.35 60.75 L56.25 60.7 56.2 60.75 56.05 60.85 56.0 60.9 55.7 60.85 55.7 60.95 55.6 61.15 55.55 61.2 55.45 61.25 55.25 61.25 55.05 61.15 54.95 61.0 54.95 60.95 55.0 60.8 55.1 60.65 55.35 60.5 55.4 60.55 55.4 60.45 55.4 60.35 55.5 60.2 Q55.55 60.05 55.7 60.05 L55.8 60.0 54.25 59.75 54.1 59.85 53.95 59.85 53.75 59.8 53.65 59.7 53.4 59.65 53.4 59.7 53.4 59.75 53.35 59.9 53.2 60.05 52.85 60.0 52.65 59.9 52.5 59.9 52.25 59.8 52.15 59.7 52.15 59.6 52.1 59.6 52.1 59.75 51.95 59.95 51.8 59.95 51.75 59.95 51.7 60.1 51.55 60.2 51.2 60.2 51.15 60.2 50.95 60.3 51.1 60.35 51.2 60.4 51.3 60.55 51.35 60.7 51.3 60.8 51.2 60.9 50.95 61.0 50.7 60.9 50.6 60.85 50.6 60.75 50.6 60.7 50.6 60.6 50.6 60.55 50.65 60.45 50.7 60.4 50.8 60.35 50.85 60.35 50.7 60.35 50.05 60.4 49.75 60.35 49.55 60.5 49.55 60.55 49.6 60.65 49.65 60.7 49.6 60.8 49.6 60.95 49.45 61.15 49.05 61.15 48.95 61.1 48.9 61.0 48.85 60.9 48.85 60.75 48.85 60.6 48.9 60.5 48.95 60.45 Q48.6 60.35 48.6 60.05 L48.2 60.0 48.05 59.95 47.95 60.15 47.8 60.25 47.7 60.3 47.45 60.15 47.35 59.9 46.6 59.95 46.55 60.1 46.45 60.35 46.2 60.4 Q45.85 60.45 45.65 60.15 L45.6 59.95 44.95 59.95 45.0 60.05 45.0 60.1 45.0 60.2 44.95 60.35 44.9 60.45 44.7 60.6 44.55 60.6 44.4 60.6 44.35 60.6 44.15 60.75 43.65 60.75 43.45 60.5 43.45 60.4 43.4 60.4 43.2 60.35 43.1 60.3 43.05 60.2 43.0 60.15 42.95 60.0 42.95 59.95 42.9 59.95 42.75 60.1 42.35 60.3 42.35 60.35 42.4 60.3 42.6 60.45 42.7 60.4 42.9 60.35 43.1 60.4 43.2 60.45 43.25 60.6 43.35 60.75 43.3 60.8 43.25 60.95 43.1 61.05 42.7 61.1 42.6 61.05 42.55 60.95 42.5 60.9 42.5 60.85 42.5 60.75 42.4 60.75 42.25 60.9 41.9 61.05 41.8 61.05 41.8 61.1 41.75 61.15 41.65 61.3 41.8 61.25 Q42.15 61.3 42.3 61.6 42.45 61.9 42.2 62.15 L42.2 62.2 42.25 62.35 42.4 62.35 42.5 62.45 42.55 62.55 42.6 62.65 42.2 62.6 42.05 62.75 Q41.6 63.3 41.05 63.05 L40.9 63.0 40.4 63.3 Q39.9 63.3 39.9 62.8 39.9 62.6 40.05 62.5 L39.65 62.5 39.7 62.55 39.7 62.85 39.6 63.1 39.6 63.15 39.5 63.2 39.35 63.2 39.05 63.15 39.0 63.15 38.9 63.25 38.8 63.3 38.45 63.3 38.45 63.35 38.3 63.6 38.05 63.7 37.9 63.7 37.8 63.6 37.7 63.5 37.65 63.35 37.65 63.2 37.75 63.05 37.8 63.0 37.9 62.95 38.05 62.9 38.25 62.95 38.25 62.7 37.45 62.85 37.5 62.9 37.55 63.0 37.55 63.15 37.5 63.3 37.4 63.4 37.25 63.45 37.1 63.4 37.05 63.35 36.65 63.6 Q36.15 63.65 36.1 63.2 L36.1 63.0 34.95 63.1 Q35.1 63.3 34.85 63.55 L34.2 63.8 33.65 63.65 33.5 63.65 33.3 63.75 33.0 63.75 32.65 63.9 Q32.15 63.95 32.1 63.45 L32.15 63.3 31.45 63.35 31.45 63.5 31.25 63.7 30.95 63.75 Q30.8 64.1 30.35 64.0 L29.9 63.7 29.85 63.7 29.75 63.7 29.6 63.6 29.55 63.5 29.55 63.45 29.3 63.5 28.85 63.45 28.8 63.3 28.75 63.15 28.75 63.05 28.55 63.0 28.55 63.05 28.4 63.2 28.15 63.25 27.95 63.15 27.9 63.1 27.9 62.95 27.85 62.9 27.8 62.85 27.6 62.55 27.35 62.65 27.1 62.65 27.15 62.7 27.25 62.7 27.35 62.75 27.4 62.8 27.45 63.0 27.4 63.3 Q27.3 63.5 27.05 63.5 26.85 63.5 26.75 63.35 L26.7 63.3 26.7 63.25 26.65 63.15 26.65 63.1 26.6 63.05 26.45 63.0 26.45 62.9 26.25 62.95 25.9 62.95 25.65 62.95 25.55 62.9 Q25.45 63.45 24.9 63.25 L24.5 62.8 24.45 62.4 24.5 62.2 24.55 62.15 24.55 62.1 24.65 62.05 24.75 62.0 24.5 61.9 24.4 61.95 24.25 61.95 24.35 62.15 24.3 62.35 24.2 62.45 24.1 62.5 24.0 62.45 23.9 62.35 23.85 62.2 23.85 62.05 23.85 62.0 23.9 61.95 24.0 61.9 24.1 61.85 24.05 61.8 24.05 61.7 23.9 61.65 23.85 61.6 23.85 61.55 23.8 61.5 23.8 61.3 23.85 61.2 23.9 61.15 23.95 61.1 23.9 60.7 23.8 60.55 23.8 60.6 23.8 60.7 23.75 60.8 23.65 60.85 23.55 60.9 23.5 60.9 23.5 60.95 23.4 61.1 22.9 61.15 22.7 61.05 21.7 60.9 21.6 60.6 21.9 60.25 20.95 60.4 20.95 60.45 20.95 60.6 20.9 60.65 20.8 60.75 20.45 60.8 Q20.15 60.8 19.95 60.6 L18.9 60.6 18.3 60.7 18.35 60.6 18.45 60.6 18.25 60.55 18.2 60.6 18.2 60.65 18.0 60.8 17.35 60.7 17.2 60.5 17.05 60.65 16.35 60.8 16.0 60.8 15.85 60.75 15.7 60.6 15.6 60.45 15.6 60.4 15.55 60.35 14.6 60.3 14.55 60.4 14.45 60.65 14.2 60.8 14.05 60.75 13.85 60.6 13.8 60.4 13.8 60.25 12.4 60.1 12.25 60.3 11.8 60.55 11.65 60.55 11.5 60.85 11.35 61.1 11.0 61.3 10.75 61.15 10.65 60.9 10.65 60.5 10.4 60.55 Q10.15 60.55 10.0 60.35 L9.95 60.3 9.9 60.2 9.85 60.05 9.9 59.9 9.6 59.85 9.6 59.95 9.6 60.05 9.6 60.1 9.55 60.25 9.4 60.4 9.3 60.45 9.15 60.45 9.05 60.5 8.85 60.5 8.65 60.5 8.55 60.4 8.5 60.35 8.25 60.4 7.8 60.45 7.8 60.5 8.0 61.0 8.05 61.4 7.85 61.85 7.8 61.9 7.65 61.95 7.5 61.85 7.4 61.75 7.35 61.6 7.25 61.45 7.1 61.4 6.95 61.4 6.65 61.3 6.5 61.2 6.45 61.1 6.4 61.05 6.35 60.9 6.25 60.65 6.25 60.5 6.25 60.4 6.3 60.35 5.55 60.1 4.9 59.65 4.5 59.75 4.3 59.75 4.2 59.65 4.15 59.6 4.1 59.5 4.1 59.45 4.05 59.3 4.1 59.15 4.1 59.1 4.2 59.0 4.25 58.95 4.35 58.9 4.5 58.85 4.5 58.45 4.6 58.15 4.75 57.85 4.8 57.85 Q4.15 57.7 4.2 56.9 L4.3 55.75 4.25 55.75 4.15 55.75 4.2 56.0 4.05 56.2 3.8 56.2 3.7 56.1 3.7 56.0 3.7 55.8 3.8 55.65 3.95 55.6 4.0 55.65 4.0 55.55 4.0 55.45 4.05 55.4 4.1 55.35 4.25 55.3 4.25 55.25 4.3 55.3 4.3 55.15 4.25 55.15 4.05 55.1 3.95 55.0 3.9 54.95 3.8 54.75 3.65 54.3 3.5 53.85 Q3.45 53.6 3.55 53.4 L3.65 53.3 3.45 53.15 3.4 53.1 3.4 53.0 3.4 52.85 3.4 52.7 3.4 52.6 3.45 52.5 3.5 52.45 3.6 52.35 3.55 52.35 3.25 52.15 3.15 52.0 3.15 51.95 3.2 51.8 3.25 51.65 3.4 51.5 3.55 51.45 3.75 51.5 3.85 51.55 3.9 51.65 3.95 51.8 3.95 51.95 3.95 52.1 3.9 52.2 3.9 52.3 4.05 52.3 4.1 52.35 4.05 51.95 4.05 50.6 4.05 50.45 4.0 50.4 3.9 50.3 3.85 50.15 3.8 49.9 3.8 49.5 3.9 49.35 4.05 49.15 4.2 49.0 3.9 48.65 Q3.65 48.45 3.7 48.2 L3.75 47.9 3.8 47.4 3.9 47.15 3.95 47.1 4.1 47.0 4.3 46.95 4.15 46.85 4.05 46.65 4.05 46.45 4.1 46.35 4.15 46.3 4.25 46.25 4.3 46.25 4.4 46.2 4.6 46.35 4.5 43.4 4.15 43.25 4.15 43.3 4.15 43.35 4.1 43.45 3.95 43.55 3.75 43.6 3.45 43.4 3.45 43.3 3.45 43.15 3.55 43.0 3.65 42.9 3.75 42.9 3.9 42.95 3.95 42.95 3.9 42.9 3.85 42.85 3.8 42.8 3.8 42.7 3.75 42.65 3.75 42.5 3.8 42.4 3.75 42.0 Q3.65 41.4 4.3 41.25 L4.65 41.2 4.65 40.9 4.5 40.9 4.15 40.7 4.15 40.6 4.15 40.5 4.15 40.45 4.2 40.35 4.25 40.3 4.35 40.2 4.5 40.2 4.6 40.2 4.7 40.25 4.75 39.95 4.7 40.0 4.55 40.05 4.2 40.1 4.1 40.0 4.05 39.95 4.05 39.85 4.0 39.8 4.0 39.65 4.05 39.55 4.1 39.5 4.15 39.45 4.25 39.4 4.4 39.35 4.55 39.4 4.65 39.5 4.7 39.55 4.75 39.6 4.8 38.7 4.7 38.7 4.4 38.9 3.9 38.8 3.85 38.7 3.85 38.65 3.85 38.55 3.8 38.5 3.8 38.4 3.8 38.35 3.85 38.25 3.9 38.2 3.65 38.3 3.45 38.15 3.35 38.0 3.3 37.75 3.35 37.55 3.35 37.45 3.4 37.4 3.5 37.3 3.6 37.25 3.75 37.2 3.9 37.25 4.0 37.3 4.05 37.4 4.1 37.55 4.05 37.75 4.0 38.0 3.9 38.2 M61.75 16.1 L61.75 16.25 61.75 16.3 61.7 16.35 61.55 16.5 Q61.35 16.6 61.2 16.4 L61.15 16.25 61.15 16.2 61.15 16.1 61.2 16.05 61.35 15.95 61.45 15.9 61.6 15.95 61.7 16.0 61.75 16.1 M60.9 16.85 L61.05 16.7 61.15 16.65 61.3 16.75 61.4 16.8 61.45 16.85 61.45 17.0 61.5 17.1 61.45 17.15 61.45 17.2 61.65 17.35 61.65 17.55 61.45 17.65 61.25 17.6 61.2 17.55 61.2 17.45 61.2 17.4 61.0 17.3 60.9 17.2 60.85 17.1 60.85 17.05 60.85 16.95 60.9 16.85 M61.55 17.7 L61.55 17.65 61.7 17.75 61.8 17.8 61.85 17.85 61.95 18.0 61.95 18.1 61.9 18.15 61.85 18.3 61.7 18.4 61.35 18.4 61.25 18.35 61.2 18.25 61.2 18.2 61.15 18.1 61.15 17.95 61.2 17.9 61.25 17.85 61.3 17.75 61.4 17.7 61.55 17.7 M59.45 8.2 L59.25 8.05 59.15 7.85 59.2 7.65 59.05 7.75 58.9 7.8 58.75 7.75 58.65 7.7 58.6 7.6 58.55 7.55 58.55 7.45 58.55 7.4 58.6 7.3 58.65 7.25 58.75 7.2 58.9 7.15 59.15 7.25 59.25 7.55 59.25 7.6 59.45 7.5 59.65 7.65 59.7 7.85 59.65 8.05 59.55 8.15 59.45 8.2 59.65 8.25 59.75 8.35 59.8 8.5 59.85 8.6 59.85 8.7 59.8 8.85 59.65 8.95 59.25 9.0 59.15 8.9 59.1 8.85 59.05 8.75 59.05 8.7 59.05 8.6 59.05 8.5 59.0 8.55 58.9 8.7 58.6 8.85 Q58.4 8.85 58.25 8.65 L58.25 8.55 58.25 8.5 58.2 8.45 58.25 8.35 58.25 8.3 58.3 8.2 58.35 8.15 58.45 8.1 58.6 8.05 58.8 8.1 58.9 8.2 58.95 8.25 59.0 8.4 59.05 8.5 59.1 8.4 59.15 8.35 59.25 8.25 59.45 8.2 M59.35 10.55 L59.3 10.5 59.35 10.55 M60.3 15.4 L60.3 15.55 60.35 15.55 60.4 15.6 60.4 15.55 60.35 15.45 60.35 15.4 60.3 15.4 M60.1 19.95 L60.1 20.2 60.15 20.05 60.1 20.0 60.1 19.95 M60.5 20.75 L60.3 20.6 60.2 20.5 60.15 20.4 60.25 21.55 60.3 21.45 60.45 21.45 60.5 21.45 60.5 21.35 60.5 21.05 60.5 20.75 M60.5 23.05 L60.35 23.1 60.35 23.35 60.4 23.2 60.7 23.0 60.75 23.0 60.7 22.95 60.6 23.0 60.5 23.05 M60.4 23.65 L60.4 23.9 60.4 23.8 60.45 23.8 60.4 23.7 60.4 23.65 M60.75 24.5 L60.7 24.5 60.75 24.5 M60.6 24.45 L60.5 24.4 60.4 24.25 60.4 24.7 60.45 24.6 60.55 24.55 60.6 24.45 M60.55 28.85 L60.6 28.85 60.6 29.0 60.5 29.05 60.45 28.95 60.55 28.85 M60.25 32.7 L60.3 32.55 60.25 32.5 60.25 32.7 M60.4 38.15 L60.55 38.1 60.7 38.15 60.8 38.2 60.9 38.35 60.9 38.5 60.9 38.6 60.9 38.65 60.8 38.8 60.4 38.85 60.3 38.8 60.2 38.7 60.2 38.6 60.2 38.5 60.2 38.35 60.2 38.3 60.3 38.2 60.4 38.15 M60.65 40.8 L60.8 40.85 60.9 40.95 60.95 41.0 61.0 41.1 61.05 41.15 61.05 41.25 61.05 41.3 61.0 41.45 60.9 41.6 60.8 41.65 60.65 41.7 60.45 41.6 60.3 41.5 60.25 41.35 60.25 41.2 60.25 41.15 60.3 41.05 60.35 41.0 60.4 40.9 60.45 40.85 60.65 40.8 M62.15 47.05 L62.15 47.15 62.05 47.3 61.8 47.4 61.5 47.25 61.45 47.15 61.45 47.1 61.45 47.0 61.45 46.95 61.45 46.85 61.5 46.8 61.6 46.75 61.7 46.7 61.8 46.65 61.95 46.7 62.05 46.8 62.15 46.9 62.15 47.05 M4.65 6.85 L4.6 6.75 4.6 6.6 4.55 6.5 4.6 6.4 4.65 6.35 4.75 6.25 4.85 6.2 5.0 6.15 5.2 6.2 5.3 6.3 5.4 6.45 5.45 6.6 5.45 6.7 5.4 6.8 5.35 6.85 5.2 6.95 5.0 7.0 4.8 7.0 4.7 6.9 4.65 6.85 M3.35 8.4 L3.45 8.3 3.75 8.15 3.95 8.2 4.05 8.3 4.15 8.4 4.2 8.55 4.15 8.65 4.1 8.75 3.95 8.9 3.55 8.95 3.45 8.85 3.4 8.8 3.35 8.7 3.3 8.65 3.3 8.55 3.3 8.5 3.35 8.4 M5.05 8.75 L5.05 8.8 4.85 9.05 4.75 9.1 4.85 9.2 5.3 8.75 5.05 8.65 5.05 8.75 M4.3 11.5 L3.95 11.7 3.9 11.7 4.0 11.8 4.05 11.9 4.15 11.8 4.25 11.8 4.25 11.75 4.4 11.6 4.3 11.5 M2.25 17.25 L2.25 17.2 2.3 17.15 2.35 17.05 2.4 17.0 2.5 16.95 2.65 16.9 2.8 16.95 2.9 17.05 2.95 17.1 3.05 17.25 3.05 17.3 3.05 17.4 3.0 17.45 3.0 17.55 2.95 17.6 2.85 17.65 2.75 17.7 2.65 17.7 2.45 17.6 2.35 17.5 2.25 17.35 2.25 17.25 M3.4 16.9 L3.35 16.85 3.3 16.8 3.3 16.65 3.35 16.5 3.45 16.4 3.55 16.35 3.75 16.5 3.8 16.75 3.65 16.9 3.4 16.9 M4.05 22.3 L4.0 22.35 4.05 22.35 4.05 22.3 M3.45 32.65 L3.7 32.8 3.8 33.05 3.65 33.25 3.45 33.3 3.3 33.3 3.2 33.2 3.15 33.15 3.15 33.05 3.1 33.0 3.1 32.9 3.15 32.85 3.2 32.8 3.3 32.7 3.45 32.65 M4.2 44.6 L4.1 44.75 3.95 44.8 3.8 44.75 3.7 44.7 3.65 44.55 3.6 44.4 3.6 44.35 3.65 44.25 3.7 44.2 3.8 44.15 3.95 44.05 4.2 44.2 4.25 44.4 4.2 44.6 M3.5 45.6 L3.55 45.7 3.45 45.8 3.4 45.7 3.4 45.6 3.5 45.6 M3.2 45.4 L3.05 45.5 2.7 45.45 2.65 45.3 2.65 45.2 2.65 45.15 2.7 45.05 2.85 44.95 2.95 44.9 3.1 45.0 3.2 45.05 3.25 45.1 3.25 45.25 3.25 45.35 3.2 45.4 M4.65 46.95 L4.55 46.95 4.5 47.0 4.65 47.15 4.65 46.95 M31.0 57.45 L26.5 57.55 27.3 58.4 27.6 59.05 27.7 59.1 30.0 58.35 32.0 57.7 31.0 57.45 M22.65 60.2 L22.7 60.25 22.85 60.3 23.0 60.4 23.0 60.45 23.05 60.5 23.2 60.55 23.2 60.45 23.25 60.3 22.95 60.2 22.65 60.2 M22.6 61.75 L22.6 61.65 22.6 61.6 22.65 61.55 22.7 61.5 22.75 61.45 22.8 61.45 22.9 61.45 23.05 61.5 23.1 61.55 23.15 61.6 23.2 61.65 23.25 61.8 23.25 62.0 23.2 62.2 23.05 62.3 22.95 62.3 22.8 62.3 22.75 62.25 22.7 62.2 22.7 62.15 22.65 62.1 22.65 62.0 22.6 61.85 22.6 61.75 M25.2 61.8 L25.1 61.95 25.25 62.0 25.35 62.05 25.5 62.15 25.55 62.25 25.55 62.3 25.6 62.25 25.8 62.15 25.85 62.2 25.95 62.15 25.9 62.1 25.85 62.0 25.8 62.0 25.55 62.0 25.25 61.9 25.25 61.85 25.2 61.8 M25.1 61.45 L25.15 61.5 25.15 61.45 25.0 61.4 25.1 61.45 M29.85 62.95 L29.8 62.95 29.85 63.05 30.0 63.1 30.1 63.0 29.85 62.95 M10.95 60.05 L11.1 60.0 11.25 60.05 11.3 60.1 11.3 60.0 10.95 60.0 10.95 60.05 M14.4 61.25 L14.55 61.2 14.7 61.3 14.75 61.5 14.65 61.6 14.4 61.65 14.35 61.6 14.3 61.55 14.3 61.35 14.4 61.25 M3.05 55.1 L3.2 55.15 3.3 55.2 3.4 55.35 3.4 55.5 3.4 55.55 3.3 55.7 3.05 55.8 2.8 55.7 2.7 55.6 2.7 55.55 2.7 55.45 2.7 55.4 2.7 55.3 2.75 55.25 2.8 55.2 2.9 55.15 2.95 55.1 3.05 55.1 M4.25 60.0 L4.4 59.95 4.55 60.0 4.65 60.05 4.75 60.2 4.8 60.35 4.8 60.4 4.7 60.55 4.55 60.65 4.25 60.7 4.15 60.65 4.05 60.55 4.05 60.4 4.05 60.3 4.05 60.15 4.15 60.05 4.25 60.0 M4.95 60.95 L4.95 60.85 5.0 60.8 5.05 60.75 5.15 60.65 5.3 60.6 5.4 60.6 5.55 60.65 5.65 60.75 5.75 60.85 5.75 60.95 5.7 61.1 5.4 61.3 Q5.15 61.3 5.0 61.1 L4.95 60.95 M8.85 60.9 L8.85 61.2 8.75 61.45 8.55 61.65 8.45 61.7 8.15 61.5 8.1 61.15 8.25 60.8 8.55 60.7 8.85 60.9 M60.85 54.3 L60.7 54.15 Q60.7 54.0 60.85 54.0 L61.0 54.2 60.85 54.3 M53.45 60.2 L53.5 60.1 53.55 60.05 53.65 60.0 53.8 59.95 53.8 59.9 54.05 60.05 54.1 60.35 53.95 60.55 53.8 60.6 53.65 60.55 53.55 60.5 53.5 60.4 53.45 60.35 53.45 60.25 53.45 60.2 M54.4 60.8 L54.35 60.85 54.25 60.8 Q54.2 60.7 54.3 60.7 L54.4 60.65 54.4 60.8 M59.45 59.4 L59.35 59.5 59.45 59.4 M41.95 60.1 L41.85 59.85 41.65 59.85 41.7 60.15 41.75 60.15 41.9 60.1 41.95 60.1 M43.0 61.75 L43.05 61.7 43.2 61.65 43.4 61.8 43.4 61.75 43.5 61.7 43.55 61.7 43.65 61.7 43.65 61.65 43.85 61.8 44.05 62.1 44.0 62.4 43.85 62.65 43.8 62.65 43.65 62.7 43.45 62.65 43.35 62.55 43.3 62.5 43.3 62.4 43.25 62.35 43.25 62.2 43.25 62.1 43.2 62.1 43.0 62.05 42.95 62.0 42.95 61.9 42.95 61.85 43.0 61.75 M46.7 60.5 L46.75 60.45 46.85 60.4 47.0 60.35 47.0 60.3 47.25 60.45 47.35 60.75 47.15 60.95 47.0 61.0 46.85 60.95 46.75 60.85 46.7 60.8 46.65 60.75 46.65 60.65 46.65 60.6 46.7 60.5 M44.6 63.4 L44.55 63.45 44.5 63.6 44.35 63.7 43.95 63.75 43.85 63.7 43.8 63.6 43.75 63.55 43.75 63.5 43.55 63.3 43.5 63.1 43.6 63.0 43.75 62.9 43.85 62.95 43.95 63.0 44.05 63.05 44.15 63.0 44.35 63.05 44.45 63.1 44.5 63.25 44.6 63.4 M43.1 62.8 L43.3 62.6 43.45 62.8 43.3 63.0 43.1 62.8 M40.8 62.45 L40.65 62.45 40.75 62.5 40.8 62.45" fill="#e9c572" fill-rule="evenodd" stroke="none"/>
    <path d="M56.1 20.8 L55.95 25.65 56.6 29.75 Q56.8 31.8 56.35 34.1 L55.95 34.1 54.75 54.45 54.6 54.45 54.55 55.85 38.25 55.95 38.25 56.6 37.85 58.15 27.25 58.15 26.95 56.6 26.95 55.95 10.35 55.9 10.3 54.5 10.15 54.5 9.1 34.15 8.55 34.15 Q8.15 31.25 8.2 29.55 8.25 28.5 8.65 27.05 L9.1 25.85 8.9 19.45 9.0 19.45 9.5 -12.2 55.55 -12.2 56.05 19.45 56.15 19.45 56.1 20.8" fill="#000000" fill-rule="evenodd" stroke="none"/>
    <path d="M56.1 20.8 L55.95 25.65 56.6 29.75 Q56.8 31.8 56.35 34.1 L55.95 34.1 54.75 54.45 54.6 54.45 54.55 55.85 38.25 55.95 38.25 56.6 37.85 58.15 27.25 58.15 26.95 56.6 26.95 55.95 10.35 55.9 10.3 54.5 10.15 54.5 9.1 34.15 8.55 34.15 Q8.15 31.25 8.2 29.55 8.25 28.5 8.65 27.05 L9.1 25.85 8.9 19.45 9.0 19.45 9.5 -12.2 55.55 -12.2 56.05 19.45 56.15 19.45 56.1 20.8 Z" fill="none" stroke="#604331" stroke-linecap="round" stroke-linejoin="round" stroke-width="2.5"/>
    <path d="M10.15 52.8 L54.85 52.8 54.4 55.95 10.55 55.95 10.15 52.8" fill="#7c563f" fill-rule="evenodd" stroke="none"/>
    <path d="M54.95 -1.0 L54.65 20.8 54.2 53.5 10.2 53.55 10.1 20.8 10.0 -1.3 54.95 -1.0" fill="#a37152" fill-rule="evenodd" stroke="none"/>
    <path d="M37.85 58.15 L27.25 58.15 26.95 56.5 38.25 56.5 37.85 58.15" fill="#7c563f" fill-rule="evenodd" stroke="none"/>
    <path d="M38.25 56.6 L26.95 56.6 26.95 54.75 38.25 54.75 38.25 56.6" fill="#a37152" fill-rule="evenodd" stroke="none"/>
    <path d="M56.1 20.8 L55.15 49.15 9.9 49.15 8.9 19.45 56.15 19.45 56.1 20.8" fill="#7c563f" fill-rule="evenodd" stroke="none"/>
    <path d="M8.95 20.8 L9.5 -12.2 55.55 -12.2 56.05 20.8 8.95 20.8" fill="url(#gradient0)" fill-rule="evenodd" stroke="none"/>
    <path d="M56.05 20.8 L56.05 21.0 8.95 21.0 8.95 20.8 56.05 20.8" fill="url(#gradient1)" fill-rule="evenodd" stroke="none"/>
    <path d="M50.0 18.7 L11.55 18.7 11.95 -6.7 50.0 -6.7 50.0 18.7" fill="#a37152" fill-rule="evenodd" stroke="none"/>
    <path d="M11.95 -6.7 L12.0 -10.0 53.05 -10.0 53.45 18.7 50.0 18.7 50.0 -6.7 11.95 -6.7" fill="#8c6146" fill-rule="evenodd" stroke="none"/>
    <path d="M17.8 -6.65 Q20.4 -6.65 22.2 -5.5 23.3 -4.8 23.75 -3.9 L26.65 -4.35 Q29.25 -4.35 31.05 -3.2 32.9 -2.05 32.9 -0.4 32.9 1.25 31.05 2.4 29.25 3.55 26.65 3.55 24.05 3.55 22.2 2.4 21.1 1.7 20.7 0.85 L17.8 1.25 Q15.2 1.25 13.35 0.1 11.55 -1.05 11.55 -2.7 11.55 -4.35 13.35 -5.5 15.2 -6.65 17.8 -6.65 M49.2 6.4 Q49.2 8.05 47.35 9.2 45.55 10.35 42.95 10.35 40.35 10.35 38.5 9.2 36.7 8.05 36.7 6.4 36.7 4.75 38.5 3.6 40.35 2.45 42.95 2.45 45.55 2.45 47.35 3.6 49.2 4.75 49.2 6.4 M38.0 10.75 Q38.0 12.4 36.15 13.55 34.35 14.7 31.75 14.7 29.15 14.7 27.3 13.55 25.5 12.4 25.5 10.75 25.5 9.1 27.3 7.95 29.15 6.8 31.75 6.8 34.35 6.8 36.15 7.95 38.0 9.1 38.0 10.75" fill="#000000" fill-opacity="0.2" fill-rule="evenodd" stroke="none"/>
  </g>
  <defs>
    <linearGradient gradientTransform="matrix(0.0022, -0.0317, 0.018, 0.0014, 33.05, 13.65)" gradientUnits="userSpaceOnUse" id="gradient0" spreadMethod="pad" x1="-819.2" x2="819.2">
      <stop offset="0.0" stop-color="#b5886c"/>
      <stop offset="1.0" stop-color="#cdae9c"/>
    </linearGradient>
    <linearGradient gradientTransform="matrix(0.0022, -0.0303, 0.018, 0.0014, 33.05, 13.95)" gradientUnits="userSpaceOnUse" id="gradient1" spreadMethod="pad" x1="-819.2" x2="819.2">
      <stop offset="0.0" stop-color="#b5886c"/>
      <stop offset="1.0" stop-color="#cdae9c"/>
    </linearGradient>
  </defs>
</svg>
