<?xml version="1.0" encoding="UTF-8" standalone="no"?>
<svg xmlns:xlink="http://www.w3.org/1999/xlink" height="28.95px" width="246.0px" xmlns="http://www.w3.org/2000/svg">
  <g transform="matrix(1.0, 0.0, 0.0, 1.0, -290.1, -63.2)">
    <path d="M291.65 64.75 Q292.9 63.7 294.45 63.7 296.0 63.7 297.05 64.75 298.3 65.9 298.3 67.45 298.3 69.0 297.05 70.15 296.0 71.3 294.45 71.3 292.9 71.3 291.65 70.15 290.6 69.0 290.6 67.45 290.6 65.9 291.65 64.75" fill="#999999" fill-rule="evenodd" stroke="none"/>
    <path d="M291.65 64.75 Q292.9 63.7 294.45 63.7 296.0 63.7 297.05 64.75 298.3 65.9 298.3 67.45 298.3 69.0 297.05 70.15 296.0 71.3 294.45 71.3 292.9 71.3 291.65 70.15 290.6 69.0 290.6 67.45 290.6 65.9 291.65 64.75 Z" fill="none" stroke="#333333" stroke-linecap="round" stroke-linejoin="round" stroke-width="1.0"/>
    <path d="M527.9 87.8 Q527.9 86.25 528.95 85.1 530.2 84.05 531.75 84.05 533.3 84.05 534.35 85.1 535.6 86.25 535.6 87.8 535.6 89.35 534.35 90.5 533.3 91.65 531.75 91.65 530.2 91.65 528.95 90.5 527.9 89.35 527.9 87.8" fill="#999999" fill-rule="evenodd" stroke="none"/>
    <path d="M527.9 87.8 Q527.9 86.25 528.95 85.1 530.2 84.05 531.75 84.05 533.3 84.05 534.35 85.1 535.6 86.25 535.6 87.8 535.6 89.35 534.35 90.5 533.3 91.65 531.75 91.65 530.2 91.65 528.95 90.5 527.9 89.35 527.9 87.8 Z" fill="none" stroke="#333333" stroke-linecap="round" stroke-linejoin="round" stroke-width="1.0"/>
  </g>
</svg>
