<?xml version="1.0" encoding="UTF-8" standalone="no"?>
<svg xmlns:xlink="http://www.w3.org/1999/xlink" height="37.85px" width="46.5px" xmlns="http://www.w3.org/2000/svg">
  <g transform="matrix(1.0, 0.0, 0.0, 1.0, -8.8, -6.5)">
    <path d="M54.3 8.5 L54.3 43.35 52.45 42.8 50.6 42.3 48.7 42.8 46.9 43.35 46.85 43.35 45.05 42.8 43.2 42.3 42.3 42.45 42.3 27.95 22.3 27.95 22.3 42.6 20.95 42.3 19.05 42.8 Q18.2 43.3 17.25 43.35 L17.2 43.35 15.4 42.8 Q14.5 42.35 13.5 42.3 12.55 42.35 11.65 42.8 L9.8 43.35 9.8 8.5 Q10.8 8.5 11.75 8.0 12.6 7.55 13.5 7.5 L15.3 8.0 Q16.2 8.5 17.2 8.5 L17.25 8.5 19.15 8.0 20.95 7.5 Q21.85 7.55 22.75 8.0 23.6 8.5 24.65 8.5 L24.7 8.5 Q25.65 8.5 26.6 8.0 27.4 7.55 28.35 7.5 29.3 7.55 30.15 8.0 31.05 8.5 32.05 8.5 L32.1 8.5 34.0 8.0 35.75 7.5 37.55 8.0 Q38.45 8.5 39.45 8.5 L39.5 8.5 Q40.5 8.5 41.4 8.0 42.25 7.55 43.2 7.5 L44.95 8.0 46.85 8.5 46.9 8.5 48.8 8.0 50.6 7.5 Q51.55 7.55 52.35 8.0 L54.3 8.5" fill="#2e2d2d" fill-rule="evenodd" stroke="none"/>
    <path d="M54.3 8.5 L52.35 8.0 Q51.55 7.55 50.6 7.5 L48.8 8.0 46.9 8.5 46.85 8.5 44.95 8.0 43.2 7.5 Q42.25 7.55 41.4 8.0 40.5 8.5 39.5 8.5 L39.45 8.5 Q38.45 8.5 37.55 8.0 L35.75 7.5 34.0 8.0 32.1 8.5 32.05 8.5 Q31.05 8.5 30.15 8.0 29.3 7.55 28.35 7.5 27.4 7.55 26.6 8.0 25.65 8.5 24.7 8.5 L24.65 8.5 Q23.6 8.5 22.75 8.0 21.85 7.55 20.95 7.5 L19.15 8.0 17.25 8.5 17.2 8.5 Q16.2 8.5 15.3 8.0 L13.5 7.5 Q12.6 7.55 11.75 8.0 10.8 8.5 9.8 8.5 L9.8 43.35 11.65 42.8 Q12.55 42.35 13.5 42.3 14.5 42.35 15.4 42.8 L17.2 43.35 17.25 43.35 Q18.2 43.3 19.05 42.8 L20.95 42.3 22.3 42.6 22.3 27.95 42.3 27.95 42.3 42.45 43.2 42.3 45.05 42.8 46.85 43.35 46.9 43.35 48.7 42.8 50.6 42.3 52.45 42.8 54.3 43.35 54.3 8.5 Z" fill="none" stroke="#2e2d2d" stroke-linecap="round" stroke-linejoin="round" stroke-width="2.0"/>
  </g>
</svg>
