<?xml version="1.0" encoding="UTF-8" standalone="no"?>
<svg xmlns:xlink="http://www.w3.org/1999/xlink" height="54.6px" width="57.35px" xmlns="http://www.w3.org/2000/svg">
  <g transform="matrix(1.0, 0.0, 0.0, 1.0, 1.2, -8.3)">
    <path d="M50.8 48.4 L53.9 49.45 55.15 53.3 50.4 56.35 46.55 54.2 38.8 53.6 41.85 45.95 44.5 47.4 46.95 40.35 50.8 48.4 Z" fill="none" stroke="#2f87a4" stroke-linecap="round" stroke-linejoin="round" stroke-width="2.0"/>
    <path d="M41.8 46.15 L41.85 45.95 44.5 47.4 46.95 40.35 50.8 48.4 53.9 49.45 55.15 53.3 50.55 56.3 46.35 47.85 44.2 50.3 41.8 46.15" fill="url(#gradient0)" fill-rule="evenodd" stroke="none"/>
    <path d="M50.55 56.3 L50.4 56.35 46.55 54.2 38.8 53.6 41.8 46.15 44.2 50.3 46.35 47.85 50.55 56.3" fill="#85c7dc" fill-rule="evenodd" stroke="none"/>
    <path d="M15.7 17.5 L15.2 30.2 17.5 38.45 22.0 40.2 24.35 47.8 29.45 49.45 33.2 52.95 35.1 49.7 38.05 47.15 40.5 53.85 44.2 53.7 47.4 58.05 42.65 59.35 37.8 58.3 36.25 60.25 26.75 61.9 19.95 59.35 18.95 56.9 17.25 58.2 8.65 58.95 3.8 56.4 7.65 50.75 2.5 51.5 -0.2 48.8 6.35 36.75" fill="none" stroke="#2f87a4" stroke-linecap="round" stroke-linejoin="round" stroke-width="2.0"/>
    <path d="M6.9 50.9 L2.5 51.5 -0.2 49.6 8.4 30.4 11.8 22.2 15.8 13.4 15.2 30.2 17.5 38.45 21.2 39.9 19.75 46.05 19.7 45.95 14.65 52.7 12.85 40.55 6.9 50.9" fill="url(#gradient1)" fill-rule="evenodd" stroke="none"/>
    <path d="M27.9 61.7 L26.75 61.9 19.95 59.35 18.95 56.9 17.25 58.2 8.65 58.95 3.8 56.4 7.65 50.75 6.9 50.9 12.85 40.55 14.65 52.7 19.7 45.95 19.75 46.05 27.9 61.7" fill="#85c7dc" fill-rule="evenodd" stroke="none"/>
    <path d="M21.2 39.9 L22.0 40.2 24.35 47.8 29.45 49.45 33.2 52.95 35.1 49.7 38.05 47.15 40.5 53.85 44.2 53.7 47.4 58.05 42.65 59.35 37.8 58.3 36.25 60.25 27.9 61.7 19.75 46.05 21.2 39.9" fill="url(#gradient2)" fill-rule="evenodd" stroke="none"/>
    <path d="M26.15 17.45 Q25.95 18.95 25.1 19.9 24.3 20.75 23.4 20.65 22.45 20.55 22.1 19.5 L20.55 19.4 Q18.45 19.05 17.05 18.3 15.0 17.15 13.9 15.8 L12.95 14.35 12.3 13.95 Q11.5 13.15 11.6 11.95 11.75 10.85 12.75 9.95 13.65 9.2 14.9 9.3 16.1 9.2 16.85 10.05 17.75 10.95 17.6 12.1 L17.5 12.6 18.85 13.55 Q20.2 14.3 21.95 14.5 L22.75 14.45 22.9 14.4 Q23.65 13.45 24.6 13.6 25.5 13.7 25.95 14.9 26.45 16.05 26.15 17.45" fill="#666666" fill-rule="evenodd" stroke="none"/>
    <path d="M26.15 17.45 Q25.95 18.95 25.1 19.9 24.3 20.75 23.4 20.65 22.45 20.55 22.1 19.5 L20.55 19.4 Q18.45 19.05 17.05 18.3 15.0 17.15 13.9 15.8 L12.95 14.35 12.3 13.95 Q11.5 13.15 11.6 11.95 11.75 10.85 12.75 9.95 13.65 9.2 14.9 9.3 16.1 9.2 16.85 10.05 17.75 10.95 17.6 12.1 L17.5 12.6 18.85 13.55 Q20.2 14.3 21.95 14.5 L22.75 14.45 22.9 14.4 Q23.65 13.45 24.6 13.6 25.5 13.7 25.95 14.9 26.45 16.05 26.15 17.45 Z" fill="none" stroke="#333333" stroke-linecap="round" stroke-linejoin="round" stroke-width="2.0"/>
    <path d="M25.95 14.9 Q26.45 16.05 26.15 17.45 25.95 18.95 25.1 19.9 24.3 20.75 23.4 20.65 22.45 20.55 22.0 19.35 21.6 18.25 21.75 16.75 22.1 15.3 22.9 14.4 23.65 13.45 24.6 13.6 25.5 13.7 25.95 14.9 M11.6 11.95 Q11.75 10.85 12.75 9.95 13.65 9.2 14.9 9.3 16.1 9.2 16.85 10.05 17.75 10.95 17.6 12.1 17.6 13.3 16.5 14.05 15.6 14.85 14.45 14.85 13.1 14.85 12.3 13.95 11.5 13.15 11.6 11.95" fill="#666666" fill-rule="evenodd" stroke="none"/>
    <path d="M23.95 19.2 Q23.45 19.6 22.7 19.6 L20.55 19.4 Q18.45 19.05 17.05 18.3 15.0 17.15 13.9 15.8 L12.8 14.3 Q12.4 13.45 12.5 12.75 12.6 11.95 13.15 11.25 13.8 10.65 14.7 10.5 15.65 10.35 16.45 10.95 L17.15 12.05 Q17.7 12.9 18.85 13.55 20.2 14.3 21.95 14.5 L23.6 14.5 Q24.15 14.45 24.45 14.85 25.0 15.55 24.9 17.15 24.8 18.7 23.95 19.2" fill="#b2b2b2" fill-rule="evenodd" stroke="none"/>
    <path d="M17.05 18.3 L16.45 17.9 Q16.7 15.55 18.05 13.0 L18.85 13.55 19.8 13.95 18.9 19.1 17.05 18.3 M16.75 11.4 L17.15 12.05 17.55 12.6 Q16.3 15.2 15.9 17.6 L13.9 15.8 13.55 15.5 Q14.1 12.9 16.75 11.4 M14.7 10.5 Q15.65 10.35 16.45 10.95 L16.55 10.95 Q13.8 12.3 13.2 14.8 L12.8 14.3 Q12.4 13.45 12.5 12.75 12.6 11.95 13.15 11.25 13.8 10.65 14.7 10.5 M21.95 14.5 L22.5 14.45 Q22.5 17.05 21.6 19.4 L20.55 19.4 19.4 19.15 20.4 14.15 21.95 14.5 M23.1 14.45 L23.6 14.5 Q24.15 14.45 24.45 14.85 25.0 15.55 24.9 17.15 24.8 18.7 23.95 19.2 23.45 19.6 22.7 19.6 L22.15 19.5 Q23.05 17.1 23.1 14.45" fill="#cccccc" fill-rule="evenodd" stroke="none"/>
  </g>
  <defs>
    <linearGradient gradientTransform="matrix(-0.0084, 0.0171, -0.0087, -0.0043, 47.05, 58.35)" gradientUnits="userSpaceOnUse" id="gradient0" spreadMethod="pad" x1="-819.2" x2="819.2">
      <stop offset="0.0" stop-color="#eef1f7"/>
      <stop offset="1.0" stop-color="#95cee1"/>
    </linearGradient>
    <linearGradient gradientTransform="matrix(-0.0168, 0.0262, -0.0249, -0.0159, 20.65, 36.05)" gradientUnits="userSpaceOnUse" id="gradient1" spreadMethod="pad" x1="-819.2" x2="819.2">
      <stop offset="0.0" stop-color="#eef1f7"/>
      <stop offset="1.0" stop-color="#95cee1"/>
    </linearGradient>
    <linearGradient gradientTransform="matrix(-0.0084, 0.0105, -0.0092, -0.0074, 1.75, 36.9)" gradientUnits="userSpaceOnUse" id="gradient2" spreadMethod="pad" x1="-819.2" x2="819.2">
      <stop offset="0.0" stop-color="#eef1f7"/>
      <stop offset="1.0" stop-color="#95cee1"/>
    </linearGradient>
  </defs>
</svg>
