<?xml version="1.0" encoding="UTF-8" standalone="no"?>
<svg xmlns:xlink="http://www.w3.org/1999/xlink" height="57.35px" width="51.8px" xmlns="http://www.w3.org/2000/svg">
  <g transform="matrix(1.0, 0.0, 0.0, 1.0, 36.3, 97.4)">
    <path d="M-12.5 -85.2 Q-6.65 -75.25 0.7 -88.1 -1.65 -77.35 7.05 -78.45 -3.5 -70.6 3.4 -68.05 -7.55 -64.5 -4.45 -55.5 -9.95 -60.95 -13.2 -49.6 -14.95 -60.85 -24.35 -52.65 -16.85 -61.95 -27.7 -63.4 -14.25 -66.0 -19.85 -76.8 -12.95 -72.8 -12.5 -85.2 M-24.6 -80.5 Q-16.3 -64.45 -36.3 -60.6 -20.1 -58.45 -31.25 -44.55 -17.3 -56.85 -14.7 -40.05 -9.9 -56.95 -1.7 -48.8 -6.35 -62.2 10.05 -67.5 -0.3 -71.3 15.5 -82.95 2.45 -81.35 6.0 -97.4 -4.9 -78.2 -13.6 -93.1 -14.35 -74.6 -24.6 -80.5" fill="#ffe843" fill-rule="evenodd" stroke="none"/>
  </g>
</svg>
