<?xml version="1.0" encoding="UTF-8" standalone="no"?>
<svg xmlns:xlink="http://www.w3.org/1999/xlink" height="182.1px" width="341.45px" xmlns="http://www.w3.org/2000/svg">
  <g transform="matrix(1.0, 0.0, 0.0, 1.0, 132.25, 91.0)">
    <path d="M208.85 73.3 L209.2 74.0 208.0 73.1 208.85 73.3" fill="#cc0000" fill-rule="evenodd" stroke="none"/>
    <path d="M40.0 -59.75 Q51.35 -69.6 65.65 -69.6 86.2 -69.6 100.75 -49.3 115.3 -29.0 115.3 -0.25 115.3 28.5 100.75 48.8 86.2 69.15 65.65 69.15 51.75 69.15 40.65 59.9 L34.9 60.15 Q23.15 61.25 14.5 66.05 -4.9 76.8 -11.5 79.65 -27.5 86.6 -41.45 86.6 -77.2 86.6 -102.5 61.3 -127.75 36.05 -127.75 0.35 L-127.75 0.3 -127.75 -0.2 -127.75 -0.25 Q-127.75 -35.95 -102.5 -61.2 -77.2 -86.5 -41.45 -86.5 -27.5 -86.5 -11.5 -79.55 -4.9 -76.7 14.5 -65.95 23.1 -61.15 34.75 -60.05 L40.0 -59.75 Z" fill="none" stroke="#000000" stroke-linecap="round" stroke-linejoin="round" stroke-width="9.0"/>
    <path d="M100.75 48.8 Q86.2 69.15 65.65 69.15 45.1 69.15 30.6 48.8 16.05 28.5 16.05 -0.25 16.05 -29.0 30.6 -49.3 45.1 -69.6 65.65 -69.6 86.2 -69.6 100.75 -49.3 115.3 -29.0 115.3 -0.25 115.3 28.5 100.75 48.8" fill="#1a1c23" fill-rule="evenodd" stroke="none"/>
    <path d="M87.7 45.85 Q75.95 64.9 59.25 64.9 42.6 64.9 30.8 45.85 19.0 26.75 19.0 -0.25 19.0 -27.25 30.8 -46.35 42.6 -65.45 59.25 -65.45 75.95 -65.45 87.7 -46.35 99.5 -27.25 99.5 -0.25 99.5 26.75 87.7 45.85" fill="#000000" fill-rule="evenodd" stroke="none"/>
    <path d="M96.7 -29.7 L97.55 -27.2 M64.4 -60.2 L65.75 -60.2 Q79.2 -59.9 88.8 -45.9 L89.1 -45.4 90.1 -43.9" fill="none" stroke="#ffffff" stroke-linecap="round" stroke-linejoin="round" stroke-opacity="0.6" stroke-width="9.0"/>
    <path d="M59.15 -60.3 L59.15 -60.25 Q71.05 -59.25 79.7 -42.6 88.8 -25.05 88.8 0.05 88.8 25.15 79.7 42.7 71.05 59.4 59.15 60.35 L59.15 60.4 57.65 60.4 54.55 60.15 Q41.4 59.55 34.9 60.15 23.15 61.25 14.5 66.05 -4.9 76.8 -11.5 79.65 -27.5 86.6 -41.45 86.6 -77.2 86.6 -102.5 61.3 -127.75 36.05 -127.75 0.35 L-127.75 0.3 -127.75 -0.2 -127.75 -0.25 Q-127.75 -35.95 -102.5 -61.2 -77.2 -86.5 -41.45 -86.5 -27.5 -86.5 -11.5 -79.55 -4.9 -76.7 14.5 -65.95 23.1 -61.15 34.75 -60.05 41.15 -59.45 54.45 -60.0 L57.65 -60.3 58.7 -60.25 59.15 -60.3" fill="#1a1c23" fill-rule="evenodd" stroke="none"/>
    <path d="M13.1 -64.5 Q15.9 -60.4 17.85 -56.25 24.5 -41.9 19.75 -27.25 12.5 -5.3 -14.8 2.65 -21.7 4.6 -28.55 5.4 -52.15 8.0 -74.95 -2.95 -103.65 -16.8 -109.7 -41.5 -111.0 -46.65 -111.05 -51.4 -107.2 -56.5 -102.5 -61.2 -77.2 -86.5 -41.45 -86.5 -27.5 -86.5 -11.5 -79.55 -5.65 -77.05 10.25 -68.3 L9.8 -68.8 13.1 -64.5 M-17.35 -58.8 Q-12.6 -50.6 -16.45 -42.95 -20.55 -34.7 -31.7 -32.25 -43.35 -29.6 -54.7 -34.75 -65.95 -39.8 -69.5 -49.05 -72.9 -57.8 -67.25 -64.9 -62.0 -71.65 -51.55 -73.25 -41.45 -74.75 -31.75 -70.75 -21.85 -66.6 -17.35 -58.8 M-6.8 -60.75 Q-13.5 -71.65 -27.5 -77.35 -41.15 -83.0 -55.3 -80.95 -70.15 -78.85 -78.05 -69.6 -86.8 -59.4 -82.45 -46.6 -77.65 -32.6 -60.95 -24.95 -43.85 -17.0 -26.4 -21.3 -10.05 -25.3 -4.55 -37.75 0.45 -49.05 -6.8 -60.75" fill="#f73600" fill-rule="evenodd" stroke="none"/>
    <path d="M-22.65 -69.8 Q-32.9 -73.4 -42.15 -73.4 -72.5 -73.4 -93.95 -51.95 L-97.95 -47.65 M-9.3 -63.9 L-10.4 -64.45" fill="none" stroke="#ffffff" stroke-linecap="round" stroke-linejoin="round" stroke-opacity="0.6" stroke-width="9.0"/>
  </g>
</svg>
