<?xml version="1.0" encoding="UTF-8" standalone="no"?>
<svg xmlns:xlink="http://www.w3.org/1999/xlink" height="99.35px" width="102.35px" xmlns="http://www.w3.org/2000/svg">
  <g transform="matrix(1.0, 0.0, 0.0, 1.0, 57.2, -22.8)">
    <path d="M34.0 32.8 Q35.25 50.65 35.15 73.7 35.1 95.05 33.55 112.15 L-45.6 112.15 Q-47.15 95.05 -47.2 73.7 -47.3 50.65 -46.0 32.8 L-7.6 32.8 -4.45 32.8 34.0 32.8" fill="#70381f" fill-rule="evenodd" stroke="none"/>
    <path d="M34.0 32.8 L-4.45 32.8 -7.6 32.8 -46.0 32.8 Q-47.3 50.65 -47.2 73.7 -47.15 95.05 -45.6 112.15 L33.55 112.15 Q35.1 95.05 35.15 73.7 35.25 50.65 34.0 32.8 Z" fill="none" stroke="#00476d" stroke-linecap="round" stroke-linejoin="round" stroke-width="20.0"/>
  </g>
</svg>
