<?xml version="1.0" encoding="UTF-8" standalone="no"?>
<svg xmlns:xlink="http://www.w3.org/1999/xlink" height="12.15px" width="61.6px" xmlns="http://www.w3.org/2000/svg">
  <g transform="matrix(1.0, 0.0, 0.0, 1.0, -0.4, -41.65)">
    <path d="M47.7 47.2 Q51.05 46.9 53.0 46.1 55.65 47.5 61.45 47.9 L60.2 44.95 61.7 44.95 61.7 43.9 62.0 43.9 62.0 41.65 1.95 41.65 1.95 43.9 2.1 43.9 2.1 44.95 3.7 44.95 0.4 48.95 8.45 47.85 6.85 51.45 17.05 50.15 15.45 53.8 Q29.6 52.8 36.55 49.5 41.55 51.05 49.65 51.6 L47.7 47.2 M47.2 45.95 L46.75 44.95 47.65 44.95 47.2 45.95" fill="#000000" fill-opacity="0.2" fill-rule="evenodd" stroke="none"/>
  </g>
</svg>
