<?xml version="1.0" encoding="UTF-8" standalone="no"?>
<svg xmlns:xlink="http://www.w3.org/1999/xlink" height="44.3px" width="45.9px" xmlns="http://www.w3.org/2000/svg">
  <g transform="matrix(1.0, 0.0, 0.0, 1.0, -3.35, -12.85)">
    <path d="M25.55 12.85 L32.7 12.95 32.9 15.1 43.25 14.9 43.5 12.85 48.95 12.85 49.1 19.6 27.05 19.8 25.65 19.8 25.55 12.85" fill="#69463d" fill-rule="evenodd" stroke="none"/>
    <path d="M27.05 19.8 L27.2 28.7 13.1 38.25 13.2 30.35 14.95 28.9 15.05 23.55 25.3 15.25 25.55 12.85 25.65 19.8 27.05 19.8" fill="url(#gradient0)" fill-rule="evenodd" stroke="none"/>
    <path d="M5.6 49.3 L3.35 37.75 14.95 27.05 14.7 36.8 25.4 27.5 25.6 19.5 49.25 19.35 46.25 49.3 5.6 49.3" fill="#f73600" fill-rule="evenodd" stroke="none"/>
    <path d="M46.25 49.3 L45.65 55.3 6.95 56.4 5.6 49.3 46.25 49.3" fill="#ffcc33" fill-rule="evenodd" stroke="none"/>
    <path d="M16.6 56.15 L15.15 38.75 38.2 38.75 36.75 55.5" fill="none" stroke="#333333" stroke-linecap="round" stroke-linejoin="round" stroke-width="2.0"/>
    <path d="M15.15 38.75 L38.2 38.75 36.75 55.45 36.75 55.5 16.6 56.15 15.15 38.75" fill="url(#gradient1)" fill-rule="evenodd" stroke="none"/>
    <path d="M40.55 32.65 L43.35 31.0 44.95 29.35 45.45 28.65 Q46.25 27.15 46.45 25.45 46.75 21.9 44.35 19.3 41.85 16.65 37.8 16.65 35.8 16.65 34.1 17.3 L33.25 17.65 31.25 19.15 Q28.6 21.8 28.65 25.25 28.75 28.65 31.4 30.9 33.9 33.05 37.25 33.15 L37.3 33.15 40.55 32.65 M46.8 29.25 L46.15 29.95 44.5 31.9 Q41.35 34.35 37.25 34.35 33.25 34.3 30.35 31.85 27.35 29.25 27.0 25.25 26.95 21.15 30.05 18.1 31.2 17.0 32.45 16.25 32.8 16.05 33.45 15.8 35.5 14.95 37.8 14.95 42.55 14.95 45.65 18.15 48.4 21.35 48.0 25.45 47.85 27.55 46.8 29.25" fill="#333333" fill-rule="evenodd" stroke="none"/>
    <path d="M45.1 29.3 L43.65 31.0 Q40.9 33.15 37.3 33.15 33.8 33.1 31.25 30.95 28.6 28.65 28.35 25.2 28.3 21.55 31.0 18.9 L33.1 17.25 34.0 16.9 Q35.75 16.15 37.8 16.15 41.95 16.15 44.65 18.95 47.05 21.75 46.75 25.35 46.6 27.15 45.65 28.65 L45.1 29.3 M45.4 25.35 Q45.6 22.25 43.55 20.0 41.3 17.65 37.8 17.65 36.05 17.65 34.55 18.2 L33.8 18.55 Q32.8 19.1 32.05 19.85 29.75 22.15 29.8 25.2 29.85 28.15 32.2 30.1 34.35 32.0 37.3 32.1 L37.35 32.1 40.2 31.65 Q41.55 31.15 42.65 30.2 L44.05 28.75 44.5 28.15 Q45.2 26.85 45.4 25.35" fill="#ffffff" fill-rule="evenodd" stroke="none"/>
    <path d="M45.4 25.35 Q45.2 26.85 44.5 28.15 L44.05 28.75 42.65 30.2 Q41.55 31.15 40.2 31.65 L37.35 32.1 37.3 32.1 Q34.35 32.0 32.2 30.1 29.85 28.15 29.8 25.2 29.75 22.15 32.05 19.85 32.8 19.1 33.8 18.55 L34.55 18.2 Q36.05 17.65 37.8 17.65 41.3 17.65 43.55 20.0 45.6 22.25 45.4 25.35" fill="#f55101" fill-rule="evenodd" stroke="none"/>
    <path d="M32.5 21.25 Q33.25 20.4 34.15 20.1 35.0 19.8 35.35 20.1 L35.6 20.75 35.6 21.5 35.05 22.5 Q42.05 29.6 41.8 29.9 41.45 30.1 33.95 23.5 L32.95 24.15 32.05 24.15 31.5 23.9 Q31.1 23.5 31.45 22.75 31.75 22.0 32.5 21.25 M39.3 20.65 L39.2 21.25 38.75 22.0 Q43.85 27.2 43.65 27.4 43.35 27.55 38.0 22.7 L37.25 23.15 36.6 23.15 36.2 22.95 Q35.95 22.7 36.2 22.2 36.35 21.55 37.0 21.05 L38.15 20.25 Q38.75 20.05 39.05 20.25 L39.3 20.65 M34.8 25.25 L34.7 25.6 34.45 26.1 38.0 29.8 33.9 26.55 33.4 26.8 32.95 26.85 32.7 26.7 Q32.45 26.55 32.65 26.25 32.8 25.85 33.25 25.5 L34.05 24.9 Q34.4 24.7 34.6 24.9 L34.8 25.25" fill="#ffffff" fill-rule="evenodd" stroke="none"/>
  </g>
  <defs>
    <linearGradient gradientTransform="matrix(0.0086, 0.0, 0.0, 0.0264, 20.15, 16.6)" gradientUnits="userSpaceOnUse" id="gradient0" spreadMethod="pad" x1="-819.2" x2="819.2">
      <stop offset="0.0" stop-color="#382521"/>
      <stop offset="1.0" stop-color="#69463d"/>
    </linearGradient>
    <linearGradient gradientTransform="matrix(3.0E-4, 0.0087, -0.0106, 4.0E-4, 26.85, 44.45)" gradientUnits="userSpaceOnUse" id="gradient1" spreadMethod="pad" x1="-819.2" x2="819.2">
      <stop offset="0.0" stop-color="#ff3200"/>
      <stop offset="1.0" stop-color="#ffdc2c"/>
    </linearGradient>
  </defs>
</svg>
