<?xml version="1.0" encoding="UTF-8" standalone="no"?>
<svg xmlns:xlink="http://www.w3.org/1999/xlink" height="14.3px" width="14.55px" xmlns="http://www.w3.org/2000/svg">
  <g transform="matrix(1.0, 0.0, 0.0, 1.0, 0.9, 0.0)">
    <path d="M11.5 3.45 Q11.95 3.05 11.95 3.95 L11.95 4.5 12.2 5.2 12.65 7.3 Q12.65 10.45 10.45 12.0 8.55 13.3 5.45 13.3 3.15 13.3 2.1 12.2 1.35 11.45 1.35 10.45 L1.4 10.05 1.4 9.8 Q1.4 8.6 2.15 6.9 L2.25 6.75 2.25 6.7 2.3 6.6 2.4 6.45 2.8 5.1 2.75 4.9 2.45 4.7 Q1.8 5.25 1.1 5.25 L0.85 5.25 0.7 5.25 0.35 5.15 Q0.05 4.95 0.1 4.65 0.1 4.35 0.7 3.8 L1.4 3.25 1.65 3.25 1.7 3.25 1.7 3.05 Q1.7 1.0 3.45 1.0 L4.5 1.3 Q5.55 1.55 5.5 3.15 L5.4 3.85 5.4 3.9 5.3 4.55 5.5 5.4 5.6 5.55 5.95 5.85 6.85 6.0 Q8.3 6.0 9.4 4.85 L9.3 4.2 9.3 3.85 Q9.35 3.65 9.85 3.65 L10.05 3.8 10.15 3.3 Q10.25 2.8 10.7 2.8 11.05 2.8 11.3 3.6 L11.35 3.65 11.5 3.45" fill="#614014" fill-rule="evenodd" stroke="none"/>
    <path d="M11.5 3.45 Q11.95 3.05 11.95 3.95 L11.95 4.5 12.2 5.2 12.65 7.3 Q12.65 10.45 10.45 12.0 8.55 13.3 5.45 13.3 3.15 13.3 2.1 12.2 1.35 11.45 1.35 10.45 L1.4 10.05 1.4 9.8 Q1.4 8.6 2.15 6.9 L2.25 6.75 2.25 6.7 2.3 6.6 2.4 6.45 2.8 5.1 2.75 4.9 2.45 4.7 Q1.8 5.25 1.1 5.25 L0.85 5.25 0.7 5.25 0.35 5.15 Q0.05 4.95 0.1 4.65 0.1 4.35 0.7 3.8 L1.4 3.25 1.65 3.25 1.7 3.25 1.7 3.05 Q1.7 1.0 3.45 1.0 L4.5 1.3 Q5.55 1.55 5.5 3.15 L5.4 3.85 5.4 3.9 5.3 4.55 5.5 5.4 5.6 5.55 5.95 5.85 6.85 6.0 Q8.3 6.0 9.4 4.85 L9.3 4.2 9.3 3.85 Q9.35 3.65 9.85 3.65 L10.05 3.8 10.15 3.3 Q10.25 2.8 10.7 2.8 11.05 2.8 11.3 3.6 L11.35 3.65 11.5 3.45 Z" fill="none" stroke="#3f2b14" stroke-linecap="round" stroke-linejoin="round" stroke-width="2.0"/>
    <path d="M2.4 6.45 L2.8 5.1 2.75 4.9 1.95 4.1 1.7 3.05 Q1.7 1.0 3.45 1.0 L4.5 1.3 Q5.55 1.55 5.5 3.15 L5.4 3.85 5.4 3.9 5.3 4.55 5.5 5.4 5.35 5.65 Q4.65 6.75 3.35 6.75 L2.55 6.55 2.4 6.45" fill="#2e8300" fill-rule="evenodd" stroke="none"/>
    <path d="M5.6 5.55 L5.95 5.85 6.85 6.0 Q8.3 6.0 9.4 4.85 L9.3 4.2 9.3 3.85 Q9.35 3.65 9.85 3.65 L10.05 3.8 10.15 3.3 Q10.25 2.8 10.7 2.8 11.05 2.8 11.3 3.6 L11.35 3.65 11.5 3.45 Q11.95 3.05 11.95 3.95 L11.95 4.5 12.2 5.2 12.65 7.3 Q12.65 10.45 10.45 12.0 8.55 13.3 5.45 13.3 3.15 13.3 2.1 12.2 1.35 11.45 1.35 10.45 L1.4 10.05 1.4 9.8 Q1.4 8.6 2.15 6.9 L2.25 6.75 2.2 6.9 2.25 6.95 3.4 7.25 Q4.65 7.25 5.5 6.3 L5.9 5.8 5.6 5.55" fill="#614014" fill-rule="evenodd" stroke="none"/>
    <path d="M2.25 6.75 L2.25 6.7 2.3 6.6 2.4 6.45 2.55 6.55 3.35 6.75 Q4.65 6.75 5.35 5.65 L5.5 5.4 5.6 5.55 5.9 5.8 5.5 6.3 Q4.65 7.25 3.4 7.25 L2.25 6.95 2.2 6.9 2.25 6.75" fill="#ffffff" fill-rule="evenodd" stroke="none"/>
    <path d="M1.65 3.25 L2.4 3.1 2.85 3.2 Q3.2 3.2 3.15 3.55 L2.55 4.55 Q1.85 5.25 1.1 5.25 L0.85 5.25 0.7 5.25 0.35 5.15 Q0.05 4.95 0.1 4.65 0.1 4.35 0.7 3.8 L1.4 3.25 1.65 3.25" fill="#ffcc00" fill-rule="evenodd" stroke="none"/>
    <path d="M4.15 2.8 L3.95 2.85 3.75 2.75 3.75 2.5 4.1 2.4 4.2 2.6 4.15 2.8 M2.15 2.4 L2.1 2.3 2.35 2.1 2.55 2.35 2.35 2.55 2.15 2.4" fill="#000000" fill-rule="evenodd" stroke="none"/>
    <path d="M10.4 8.55 L10.1 9.75 Q9.6 10.75 8.55 10.75 7.55 10.75 6.6 9.9 L5.8 8.75 6.0 8.6 6.8 9.35 8.1 10.25 9.05 10.25 9.75 9.45 9.95 8.55 9.8 7.9 9.1 8.5 Q8.75 8.5 8.75 8.05 8.6 8.1 8.55 8.3 L8.3 8.45 8.1 8.3 8.05 8.15 8.3 7.75 Q8.55 7.5 8.8 7.5 9.15 7.5 9.15 7.7 L9.7 7.35 Q10.0 7.15 10.2 7.7 L10.4 8.55" fill="#3f2b14" fill-rule="evenodd" stroke="none"/>
  </g>
</svg>
