<?xml version="1.0" encoding="UTF-8" standalone="no"?>
<svg xmlns:xlink="http://www.w3.org/1999/xlink" height="83.75px" width="70.4px" xmlns="http://www.w3.org/2000/svg">
  <g transform="matrix(1.0, 0.0, 0.0, 1.0, 35.4, -35.25)">
    <path d="M30.75 109.55 L29.85 110.4 28.8 110.55 Q28.45 111.3 27.6 111.25 26.7 111.25 26.2 110.8 25.25 111.85 23.7 111.2 L23.0 110.65 20.9 110.5 20.65 110.45 19.2 109.9 18.65 109.25 Q18.45 108.75 18.75 108.3 L18.85 108.25 18.95 108.15 19.1 108.15 18.95 107.65 Q18.7 106.2 20.3 106.55 L20.3 106.0 Q20.25 105.5 20.5 105.1 20.95 104.45 21.65 104.75 L22.1 105.15 22.2 105.3 22.5 104.95 22.8 104.3 23.4 103.6 23.95 103.4 24.5 103.65 24.8 104.2 24.85 104.85 25.0 105.45 26.25 104.9 Q27.35 104.25 27.8 105.35 L27.9 106.0 27.75 106.45 Q28.25 106.45 29.05 106.95 29.45 107.2 29.4 107.7 L29.35 107.9 30.4 108.4 Q31.1 108.8 30.75 109.55" fill="#499201" fill-rule="evenodd" stroke="none"/>
    <path d="M30.75 109.55 L29.85 110.4 28.8 110.55 Q28.45 111.3 27.6 111.25 26.7 111.25 26.2 110.8 25.25 111.85 23.7 111.2 L23.0 110.65 20.9 110.5 20.65 110.45 19.2 109.9 18.65 109.25 Q18.45 108.75 18.75 108.3 L18.85 108.25 18.95 108.15 19.1 108.15 18.95 107.65 Q18.7 106.2 20.3 106.55 L20.3 106.0 Q20.25 105.5 20.5 105.1 20.95 104.45 21.65 104.75 L22.1 105.15 22.2 105.3 22.5 104.95 22.8 104.3 23.4 103.6 23.95 103.4 24.5 103.65 24.8 104.2 24.85 104.85 25.0 105.45 26.25 104.9 Q27.35 104.25 27.8 105.35 L27.9 106.0 27.75 106.45 Q28.25 106.45 29.05 106.95 29.45 107.2 29.4 107.7 L29.35 107.9 30.4 108.4 Q31.1 108.8 30.75 109.55 Z" fill="none" stroke="#2b5500" stroke-linecap="round" stroke-linejoin="round" stroke-width="1.5"/>
    <path d="M30.75 109.55 L29.85 110.4 28.8 110.55 Q28.45 111.3 27.6 111.25 26.7 111.25 26.2 110.8 25.25 111.85 23.7 111.2 L23.0 110.65 20.9 110.5 20.65 110.45 19.2 109.9 18.65 109.25 Q18.45 108.75 18.75 108.3 L18.85 108.25 18.95 108.15 19.1 108.15 18.95 107.65 Q18.7 106.2 20.3 106.55 L20.3 106.0 Q20.25 105.5 20.5 105.1 20.95 104.45 21.65 104.75 L22.1 105.15 22.2 105.3 22.5 104.95 22.8 104.3 23.4 103.6 23.95 103.4 24.5 103.65 24.8 104.2 24.85 104.85 25.0 105.45 26.25 104.9 Q27.35 104.25 27.8 105.35 L27.9 106.0 27.75 106.45 Q28.25 106.45 29.05 106.95 29.45 107.2 29.4 107.7 L29.35 107.9 30.4 108.4 Q31.1 108.8 30.75 109.55" fill="#499201" fill-rule="evenodd" stroke="none"/>
    <path d="M-27.2 110.4 L-26.6 111.1 -26.3 111.75 -26.0 112.1 -25.9 111.95 -25.45 111.55 Q-24.75 111.25 -24.3 111.9 -24.05 112.3 -24.1 112.8 L-24.1 113.35 Q-22.5 113.0 -22.75 114.45 L-22.9 114.95 -22.75 114.95 -22.65 115.05 -22.55 115.1 Q-22.25 115.55 -22.45 116.05 L-23.0 116.7 -24.45 117.25 -24.7 117.3 -26.8 117.45 -27.5 118.0 Q-29.05 118.65 -30.0 117.6 -30.5 118.05 -31.4 118.05 -32.25 118.1 -32.6 117.35 L-33.65 117.2 Q-34.3 116.95 -34.55 116.35 -34.9 115.6 -34.2 115.2 L-33.15 114.7 -33.2 114.5 Q-33.25 114.0 -32.85 113.75 -32.05 113.25 -31.55 113.25 L-31.7 112.8 -31.6 112.15 Q-31.15 111.05 -30.05 111.7 L-28.8 112.25 -28.65 111.65 -28.6 111.0 -28.3 110.45 Q-28.05 110.25 -27.75 110.2 -27.45 110.2 -27.2 110.4" fill="#499201" fill-rule="evenodd" stroke="none"/>
    <path d="M-27.2 110.4 Q-27.45 110.2 -27.75 110.2 -28.05 110.25 -28.3 110.45 L-28.6 111.0 -28.65 111.65 -28.8 112.25 -30.05 111.7 Q-31.15 111.05 -31.6 112.15 L-31.7 112.8 -31.55 113.25 Q-32.05 113.25 -32.85 113.75 -33.25 114.0 -33.2 114.5 L-33.15 114.7 -34.2 115.2 Q-34.9 115.6 -34.55 116.35 -34.3 116.95 -33.65 117.2 L-32.6 117.35 Q-32.25 118.1 -31.4 118.05 -30.5 118.05 -30.0 117.6 -29.05 118.65 -27.5 118.0 L-26.8 117.45 -24.7 117.3 -24.45 117.25 -23.0 116.7 -22.45 116.05 Q-22.25 115.55 -22.55 115.1 L-22.65 115.05 -22.75 114.95 -22.9 114.95 -22.75 114.45 Q-22.5 113.0 -24.1 113.35 L-24.1 112.8 Q-24.05 112.3 -24.3 111.9 -24.75 111.25 -25.45 111.55 L-25.9 111.95 -26.0 112.1 -26.3 111.75 -26.6 111.1 -27.2 110.4 Z" fill="none" stroke="#2b5500" stroke-linecap="round" stroke-linejoin="round" stroke-width="1.5"/>
    <path d="M-27.2 110.4 L-26.6 111.1 -26.3 111.75 -26.0 112.1 -25.9 111.95 -25.45 111.55 Q-24.75 111.25 -24.3 111.9 -24.05 112.3 -24.1 112.8 L-24.1 113.35 Q-22.5 113.0 -22.75 114.45 L-22.9 114.95 -22.75 114.95 -22.65 115.05 -22.55 115.1 Q-22.25 115.55 -22.45 116.05 L-23.0 116.7 -24.45 117.25 -24.7 117.3 -26.8 117.45 -27.5 118.0 Q-29.05 118.65 -30.0 117.6 -30.5 118.05 -31.4 118.05 -32.25 118.1 -32.6 117.35 L-33.65 117.2 Q-34.3 116.95 -34.55 116.35 -34.9 115.6 -34.2 115.2 L-33.15 114.7 -33.2 114.5 Q-33.25 114.0 -32.85 113.75 -32.05 113.25 -31.55 113.25 L-31.7 112.8 -31.6 112.15 Q-31.15 111.05 -30.05 111.7 L-28.8 112.25 -28.65 111.65 -28.6 111.0 -28.3 110.45 Q-28.05 110.25 -27.75 110.2 -27.45 110.2 -27.2 110.4" fill="#499201" fill-rule="evenodd" stroke="none"/>
    <path d="M29.4 36.2 L30.0 36.9 30.3 37.55 30.6 37.9 30.7 37.75 31.15 37.35 Q31.85 37.05 32.3 37.7 L32.5 38.6 32.5 39.15 Q34.1 38.8 33.85 40.25 L33.7 40.75 33.85 40.75 33.95 40.85 34.05 40.9 Q34.35 41.35 34.15 41.85 L33.6 42.5 32.15 43.05 31.9 43.1 29.8 43.25 29.1 43.8 Q27.55 44.45 26.6 43.4 26.1 43.85 25.2 43.85 24.35 43.9 24.0 43.15 L22.95 43.0 22.05 42.15 Q21.7 41.4 22.4 41.0 L23.45 40.5 23.4 40.3 Q23.35 39.8 23.75 39.55 24.55 39.05 25.05 39.05 L24.9 38.6 25.0 37.95 Q25.45 36.85 26.55 37.5 L27.8 38.05 27.95 37.45 28.0 36.8 28.3 36.25 28.85 36.0 29.4 36.2" fill="#499201" fill-rule="evenodd" stroke="none"/>
    <path d="M29.4 36.2 L28.85 36.0 28.3 36.25 28.0 36.8 27.95 37.45 27.8 38.05 26.55 37.5 Q25.45 36.85 25.0 37.95 L24.9 38.6 25.05 39.05 Q24.55 39.05 23.75 39.55 23.35 39.8 23.4 40.3 L23.45 40.5 22.4 41.0 Q21.7 41.4 22.05 42.15 L22.95 43.0 24.0 43.15 Q24.35 43.9 25.2 43.85 26.1 43.85 26.6 43.4 27.55 44.45 29.1 43.8 L29.8 43.25 31.9 43.1 32.15 43.05 33.6 42.5 34.15 41.85 Q34.35 41.35 34.05 40.9 L33.95 40.85 33.85 40.75 33.7 40.75 33.85 40.25 Q34.1 38.8 32.5 39.15 L32.5 38.6 32.3 37.7 Q31.85 37.05 31.15 37.35 L30.7 37.75 30.6 37.9 30.3 37.55 30.0 36.9 29.4 36.2 Z" fill="none" stroke="#2b5500" stroke-linecap="round" stroke-linejoin="round" stroke-width="1.5"/>
    <path d="M29.4 36.2 L30.0 36.9 30.3 37.55 30.6 37.9 30.7 37.75 31.15 37.35 Q31.85 37.05 32.3 37.7 L32.5 38.6 32.5 39.15 Q34.1 38.8 33.85 40.25 L33.7 40.75 33.85 40.75 33.95 40.85 34.05 40.9 Q34.35 41.35 34.15 41.85 L33.6 42.5 32.15 43.05 31.9 43.1 29.8 43.25 29.1 43.8 Q27.55 44.45 26.6 43.4 26.1 43.85 25.2 43.85 24.35 43.9 24.0 43.15 L22.95 43.0 22.05 42.15 Q21.7 41.4 22.4 41.0 L23.45 40.5 23.4 40.3 Q23.35 39.8 23.75 39.55 24.55 39.05 25.05 39.05 L24.9 38.6 25.0 37.95 Q25.45 36.85 26.55 37.5 L27.8 38.05 27.95 37.45 28.0 36.8 28.3 36.25 28.85 36.0 29.4 36.2" fill="#499201" fill-rule="evenodd" stroke="none"/>
  </g>
</svg>
