<?xml version="1.0" encoding="UTF-8" standalone="no"?>
<svg xmlns:xlink="http://www.w3.org/1999/xlink" height="86.65px" width="63.75px" xmlns="http://www.w3.org/2000/svg">
  <g transform="matrix(1.0, 0.0, 0.0, 1.0, 0.3, 24.75)">
    <path d="M1.5 0.9 L62.5 0.9 62.5 61.9 1.5 61.9 1.5 0.9" fill="#a1a1a1" fill-rule="evenodd" stroke="none"/>
    <path d="M10.65 27.1 L18.15 27.1 18.85 27.2 Q20.3 27.7 20.3 30.35 L20.3 31.2 20.3 37.95 20.8 38.25 20.8 45.7 21.0 46.25 21.0 46.3 21.05 46.65 21.05 47.05 21.05 53.55 21.3 53.15 21.3 54.65 Q21.3 55.85 20.1 55.85 L8.75 55.85 Q7.55 55.85 7.55 54.65 L7.55 53.15 7.8 53.55 7.8 47.05 7.85 46.6 7.9 46.15 8.0 45.9 Q7.75 45.8 7.8 42.0 7.85 38.15 8.1 38.0 L8.6 37.9 8.6 34.05 8.55 30.35 Q8.55 27.85 9.8 27.25 L10.65 27.1 M53.15 27.2 Q54.6 27.7 54.6 30.35 L54.6 31.2 54.6 37.95 Q54.95 38.0 55.1 38.25 L55.1 45.7 55.3 46.25 55.3 46.3 55.35 46.65 55.35 47.05 55.35 53.55 55.6 53.1 55.6 54.65 Q55.6 55.85 54.4 55.85 L43.05 55.85 Q41.85 55.85 41.85 54.65 L41.85 53.1 42.1 53.55 42.1 47.05 42.15 46.6 42.2 46.15 42.3 45.9 Q42.05 45.8 42.1 42.0 42.15 38.15 42.4 38.0 L42.9 37.9 42.9 34.05 42.85 30.35 Q42.85 27.85 44.1 27.25 L44.95 27.1 52.45 27.1 53.15 27.2" fill="#6d6d6d" fill-rule="evenodd" stroke="none"/>
    <path d="M53.15 27.2 L52.45 27.1 44.95 27.1 44.1 27.25 Q42.85 27.85 42.85 30.35 L42.9 34.05 42.9 37.9 42.4 38.0 Q42.15 38.15 42.1 42.0 42.05 45.8 42.3 45.9 L42.2 46.15 42.15 46.6 42.1 47.05 42.1 53.55 41.85 53.1 41.85 54.65 Q41.85 55.85 43.05 55.85 L54.4 55.85 Q55.6 55.85 55.6 54.65 L55.6 53.1 55.35 53.55 55.35 47.05 55.35 46.65 55.3 46.3 55.3 46.25 55.1 45.7 55.1 38.25 Q54.95 38.0 54.6 37.95 L54.6 31.2 54.6 30.35 Q54.6 27.7 53.15 27.2 M10.65 27.1 L9.8 27.25 Q8.55 27.85 8.55 30.35 L8.6 34.05 8.6 37.9 8.1 38.0 Q7.85 38.15 7.8 42.0 7.75 45.8 8.0 45.9 L7.9 46.15 7.85 46.6 7.8 47.05 7.8 53.55 7.55 53.15 7.55 54.65 Q7.55 55.85 8.75 55.85 L20.1 55.85 Q21.3 55.85 21.3 54.65 L21.3 53.15 21.05 53.55 21.05 47.05 21.05 46.65 21.0 46.3 21.0 46.25 20.8 45.7 20.8 38.25 20.3 37.95 20.3 31.2 20.3 30.35 Q20.3 27.7 18.85 27.2 L18.15 27.1 10.65 27.1" fill="none" stroke="#252525" stroke-linecap="round" stroke-linejoin="round" stroke-width="4.0"/>
    <path d="M50.25 37.9 L50.25 28.05 50.35 27.75 50.7 27.65 50.95 27.75 51.05 28.05 51.05 29.05 52.7 29.05 52.7 28.55 52.85 28.2 Q52.9 28.1 53.1 28.1 L53.15 28.1 53.4 28.2 53.55 28.55 53.55 37.9 53.55 40.05 53.4 40.35 53.1 40.5 52.85 40.35 52.7 40.05 52.7 39.4 51.05 39.4 51.05 40.05 50.95 40.35 50.7 40.5 Q50.5 40.5 50.35 40.35 L50.25 40.05 50.25 37.9 M51.05 29.9 L51.05 30.6 52.7 30.6 52.7 29.9 51.05 29.9 M51.05 36.2 L51.05 36.95 52.7 36.95 52.7 36.2 51.05 36.2 M51.05 35.35 L52.7 35.35 52.7 34.65 51.05 34.65 51.05 35.35 M52.7 33.85 L52.7 32.95 51.05 32.95 51.05 33.85 52.7 33.85 M51.05 32.15 L52.7 32.15 52.7 31.45 51.05 31.45 51.05 32.15 M45.05 33.6 L49.35 33.6 49.35 36.2 45.05 36.2 45.05 33.6 M47.2 33.1 L44.6 33.1 44.6 27.85 47.2 27.85 47.2 33.1 M43.15 43.25 L43.7 43.1 44.0 43.15 44.2 43.55 44.0 43.95 43.65 44.1 43.25 43.95 43.1 43.55 43.15 43.25 M52.7 37.9 L52.7 37.75 51.05 37.75 51.05 37.9 51.05 38.6 52.7 38.6 52.7 37.9 M52.85 43.25 Q53.05 43.1 53.35 43.1 L53.65 43.15 53.85 43.55 53.65 43.95 53.3 44.1 52.85 43.95 52.75 43.55 52.85 43.25 M15.95 37.9 L15.95 28.05 16.05 27.75 16.35 27.65 16.65 27.75 16.75 28.05 16.75 29.05 18.35 29.05 18.35 28.55 18.5 28.2 18.8 28.1 18.85 28.1 19.1 28.2 19.25 28.55 19.25 37.9 19.25 40.05 19.1 40.35 18.8 40.5 18.5 40.35 18.35 40.05 18.35 39.4 16.75 39.4 16.75 40.05 16.65 40.35 16.35 40.5 16.05 40.35 15.95 40.05 15.95 37.9 M16.75 29.9 L16.75 30.6 18.35 30.6 18.35 29.9 16.75 29.9 M12.9 27.85 L12.9 33.1 10.25 33.1 10.25 27.85 12.9 27.85 M10.75 36.2 L10.75 33.6 15.05 33.6 15.05 36.2 10.75 36.2 M16.75 34.65 L16.75 35.35 18.35 35.35 18.35 34.65 16.75 34.65 M16.75 36.2 L16.75 36.95 18.35 36.95 18.35 36.2 16.75 36.2 M18.35 33.85 L18.35 32.95 16.75 32.95 16.75 33.85 18.35 33.85 M18.35 32.15 L18.35 31.45 16.75 31.45 16.75 32.15 18.35 32.15 M8.85 43.25 L9.4 43.1 9.7 43.15 9.9 43.55 9.7 43.95 9.3 44.1 8.95 43.95 8.8 43.55 8.85 43.25 M16.75 37.9 L16.75 38.6 18.35 38.6 18.35 37.9 18.35 37.75 16.75 37.75 16.75 37.9 M18.5 43.25 L19.05 43.1 19.3 43.15 19.5 43.55 19.3 43.95 19.0 44.1 18.55 43.95 18.4 43.55 18.5 43.25" fill="#6b6b6b" fill-rule="evenodd" stroke="none"/>
    <path d="M51.05 29.9 L52.7 29.9 52.7 30.6 51.05 30.6 51.05 29.9 M51.05 32.15 L51.05 31.45 52.7 31.45 52.7 32.15 51.05 32.15 M52.7 33.85 L51.05 33.85 51.05 32.95 52.7 32.95 52.7 33.85 M51.05 35.35 L51.05 34.65 52.7 34.65 52.7 35.35 51.05 35.35 M51.05 36.2 L52.7 36.2 52.7 36.95 51.05 36.95 51.05 36.2 M51.05 37.9 L51.05 37.75 52.7 37.75 52.7 37.9 51.05 37.9 M16.75 29.9 L18.35 29.9 18.35 30.6 16.75 30.6 16.75 29.9 M18.35 32.15 L16.75 32.15 16.75 31.45 18.35 31.45 18.35 32.15 M18.35 33.85 L16.75 33.85 16.75 32.95 18.35 32.95 18.35 33.85 M16.75 36.2 L18.35 36.2 18.35 36.95 16.75 36.95 16.75 36.2 M16.75 34.65 L18.35 34.65 18.35 35.35 16.75 35.35 16.75 34.65 M16.75 37.9 L16.75 37.75 18.35 37.75 18.35 37.9 16.75 37.9" fill="#8a8a8a" fill-rule="evenodd" stroke="none"/>
    <path d="M44.1 27.25 L44.1 37.9 43.05 37.9 42.9 37.9 42.9 34.05 42.85 30.35 Q42.85 27.85 44.1 27.25 M53.15 28.1 L53.15 27.2 Q54.6 27.7 54.6 30.35 L54.6 31.2 54.6 37.95 54.1 37.9 53.55 37.9 53.55 28.55 53.4 28.2 53.15 28.1 M9.8 27.25 L9.8 37.9 8.75 37.9 8.6 37.9 8.6 34.05 8.55 30.35 Q8.55 27.85 9.8 27.25 M18.85 28.1 L18.85 27.2 Q20.3 27.7 20.3 30.35 L20.3 31.2 20.3 37.95 19.8 37.9 19.25 37.9 19.25 28.55 19.1 28.2 18.85 28.1" fill="#950000" fill-rule="evenodd" stroke="none"/>
    <path d="M44.1 37.9 L50.25 37.9 50.25 40.05 50.35 40.35 Q50.5 40.5 50.7 40.5 L50.95 40.35 51.05 40.05 51.05 39.4 52.7 39.4 52.7 40.05 52.85 40.35 53.1 40.5 53.4 40.35 53.55 40.05 53.55 37.9 54.1 37.9 54.6 37.95 Q54.95 38.0 55.1 38.25 L55.1 45.7 Q54.85 46.1 54.1 46.1 L43.05 46.1 42.3 45.9 Q42.05 45.8 42.1 42.0 42.15 38.15 42.4 38.0 L42.9 37.9 43.05 37.9 44.1 37.9 M43.15 43.25 L43.05 43.3 42.8 44.0 43.05 44.6 Q43.35 44.9 43.7 44.9 L44.3 44.6 44.6 44.0 44.3 43.3 44.0 43.15 43.7 43.1 43.15 43.25 M45.45 43.75 L45.4 44.1 45.45 44.4 45.7 44.6 45.85 44.4 45.95 44.1 45.85 43.75 45.7 43.65 45.45 43.75 M47.45 44.35 L47.45 44.4 47.4 44.7 47.45 45.0 47.7 45.15 47.85 45.0 48.0 44.7 47.9 44.4 47.85 44.35 47.7 44.2 Q47.6 44.2 47.45 44.35 M49.85 44.35 L49.75 44.2 Q49.6 44.2 49.5 44.35 L49.5 44.4 49.4 44.7 49.5 45.0 49.75 45.15 49.85 45.0 50.0 44.7 49.95 44.4 49.85 44.35 M52.7 37.9 L52.7 38.6 51.05 38.6 51.05 37.9 52.7 37.9 M52.85 43.25 L52.7 43.3 52.45 44.0 Q52.45 44.35 52.7 44.6 52.95 44.9 53.35 44.9 53.7 44.9 53.9 44.6 L54.25 44.0 53.9 43.3 53.65 43.15 53.35 43.1 Q53.05 43.1 52.85 43.25 M51.45 43.65 Q51.3 43.65 51.2 43.75 L51.15 44.1 51.2 44.4 51.45 44.6 51.65 44.4 51.75 44.1 51.65 43.75 51.45 43.65 M9.8 37.9 L15.95 37.9 15.95 40.05 16.05 40.35 16.35 40.5 16.65 40.35 16.75 40.05 16.75 39.4 18.35 39.4 18.35 40.05 18.5 40.35 18.8 40.5 19.1 40.35 19.25 40.05 19.25 37.9 19.8 37.9 20.3 37.95 20.8 38.25 20.8 45.7 Q20.5 46.1 19.8 46.1 L8.75 46.1 Q8.25 46.1 8.0 45.9 7.75 45.8 7.8 42.0 7.85 38.15 8.1 38.0 L8.6 37.9 8.75 37.9 9.8 37.9 M8.85 43.25 L8.75 43.3 8.5 44.0 8.75 44.6 9.4 44.9 10.0 44.6 10.25 44.0 10.0 43.3 9.7 43.15 9.4 43.1 8.85 43.25 M18.35 37.9 L18.35 38.6 16.75 38.6 16.75 37.9 18.35 37.9 M19.3 43.15 L19.05 43.1 18.5 43.25 18.35 43.3 18.15 44.0 18.35 44.6 19.05 44.9 19.6 44.6 19.95 44.0 19.6 43.3 19.3 43.15 M15.4 44.2 L15.2 44.35 15.2 44.4 15.1 44.7 15.2 45.0 15.4 45.15 15.55 45.0 15.7 44.7 15.65 44.4 15.55 44.35 15.4 44.2 M16.85 44.1 L16.9 44.4 17.15 44.6 17.3 44.4 17.4 44.1 17.3 43.75 17.15 43.65 16.9 43.75 16.85 44.1 M11.55 43.75 L11.35 43.65 11.15 43.75 11.1 44.1 11.15 44.4 11.35 44.6 11.55 44.4 11.65 44.1 11.55 43.75 M13.6 44.4 L13.55 44.35 Q13.5 44.2 13.35 44.2 L13.15 44.35 13.15 44.4 13.1 44.7 13.15 45.0 13.35 45.15 13.55 45.0 13.7 44.7 13.6 44.4" fill="#d7d7d7" fill-rule="evenodd" stroke="none"/>
    <path d="M45.45 43.75 L45.7 43.65 45.85 43.75 45.95 44.1 45.85 44.4 45.7 44.6 45.45 44.4 45.4 44.1 45.45 43.75 M49.85 44.35 L49.95 44.4 50.0 44.7 49.85 45.0 49.75 45.15 49.5 45.0 49.4 44.7 49.5 44.4 49.5 44.35 Q49.6 44.2 49.75 44.2 L49.85 44.35 M47.45 44.35 Q47.6 44.2 47.7 44.2 L47.85 44.35 47.9 44.4 48.0 44.7 47.85 45.0 47.7 45.15 47.45 45.0 47.4 44.7 47.45 44.4 47.45 44.35 M51.45 43.65 L51.65 43.75 51.75 44.1 51.65 44.4 51.45 44.6 51.2 44.4 51.15 44.1 51.2 43.75 Q51.3 43.65 51.45 43.65 M13.6 44.4 L13.7 44.7 13.55 45.0 13.35 45.15 13.15 45.0 13.1 44.7 13.15 44.4 13.15 44.35 13.35 44.2 Q13.5 44.2 13.55 44.35 L13.6 44.4 M11.55 43.75 L11.65 44.1 11.55 44.4 11.35 44.6 11.15 44.4 11.1 44.1 11.15 43.75 11.35 43.65 11.55 43.75 M16.85 44.1 L16.9 43.75 17.15 43.65 17.3 43.75 17.4 44.1 17.3 44.4 17.15 44.6 16.9 44.4 16.85 44.1 M15.4 44.2 L15.55 44.35 15.65 44.4 15.7 44.7 15.55 45.0 15.4 45.15 15.2 45.0 15.1 44.7 15.2 44.4 15.2 44.35 15.4 44.2" fill="#707070" fill-rule="evenodd" stroke="none"/>
    <path d="M44.0 43.15 L44.3 43.3 44.6 44.0 44.3 44.6 43.7 44.9 Q43.35 44.9 43.05 44.6 L42.8 44.0 43.05 43.3 43.15 43.25 43.1 43.55 43.25 43.95 43.65 44.1 44.0 43.95 44.2 43.55 44.0 43.15 M53.65 43.15 L53.9 43.3 54.25 44.0 53.9 44.6 Q53.7 44.9 53.35 44.9 52.95 44.9 52.7 44.6 52.45 44.35 52.45 44.0 L52.7 43.3 52.85 43.25 52.75 43.55 52.85 43.95 53.3 44.1 53.65 43.95 53.85 43.55 53.65 43.15 M9.7 43.15 L10.0 43.3 10.25 44.0 10.0 44.6 9.4 44.9 8.75 44.6 8.5 44.0 8.75 43.3 8.85 43.25 8.8 43.55 8.95 43.95 9.3 44.1 9.7 43.95 9.9 43.55 9.7 43.15 M19.3 43.15 L19.6 43.3 19.95 44.0 19.6 44.6 19.05 44.9 18.35 44.6 18.15 44.0 18.35 43.3 18.5 43.25 18.4 43.55 18.55 43.95 19.0 44.1 19.3 43.95 19.5 43.55 19.3 43.15" fill="#8a0000" fill-rule="evenodd" stroke="none"/>
    <path d="M55.1 45.7 L55.3 46.25 55.3 46.3 55.35 46.65 54.8 46.6 49.2 46.6 48.65 46.6 42.4 46.6 42.15 46.6 42.2 46.15 42.3 45.9 43.05 46.1 54.1 46.1 Q54.85 46.1 55.1 45.7 M55.35 53.05 L55.35 53.35 55.3 53.6 54.4 53.85 43.05 53.85 42.2 53.7 42.1 53.3 42.1 53.05 Q42.1 53.6 43.25 53.6 L54.25 53.6 Q55.35 53.6 55.35 53.05 M20.8 45.7 L21.0 46.25 21.0 46.3 21.05 46.65 20.45 46.6 14.9 46.6 14.3 46.6 8.1 46.6 7.85 46.6 7.9 46.15 8.0 45.9 Q8.25 46.1 8.75 46.1 L19.8 46.1 Q20.5 46.1 20.8 45.7 M21.05 53.1 L21.05 53.35 21.0 53.6 20.1 53.85 8.75 53.85 7.9 53.7 7.8 53.3 7.8 53.1 Q7.8 53.6 8.95 53.6 L19.95 53.6 Q21.05 53.6 21.05 53.1 M14.9 52.35 L20.45 52.35 21.05 52.35 Q20.8 53.0 19.95 53.0 L8.95 53.0 Q8.05 53.0 7.85 52.35 L8.1 52.35 14.3 52.35 14.9 52.35 M49.2 52.35 L54.8 52.35 55.35 52.35 Q55.1 53.0 54.25 53.0 L43.25 53.0 Q42.35 53.0 42.15 52.35 L42.4 52.35 48.65 52.35 49.2 52.35" fill="#a80000" fill-rule="evenodd" stroke="none"/>
    <path d="M55.35 52.35 L55.35 53.05 Q55.35 53.6 54.25 53.6 L43.25 53.6 Q42.1 53.6 42.1 53.05 L42.1 52.2 42.15 52.35 Q42.35 53.0 43.25 53.0 L54.25 53.0 Q55.1 53.0 55.35 52.35 M21.05 52.35 L21.05 53.1 Q21.05 53.6 19.95 53.6 L8.95 53.6 Q7.8 53.6 7.8 53.1 L7.8 52.2 7.85 52.35 Q8.05 53.0 8.95 53.0 L19.95 53.0 Q20.8 53.0 21.05 52.35" fill="#8c8c8c" fill-rule="evenodd" stroke="none"/>
    <path d="M48.65 46.6 L49.2 46.6 49.2 52.35 48.65 52.35 48.65 46.6 M14.3 46.6 L14.9 46.6 14.9 52.35 14.3 52.35 14.3 46.6" fill="#d4d4d4" fill-rule="evenodd" stroke="none"/>
    <path d="M55.35 53.55 L55.6 53.1 55.6 54.65 Q55.6 55.85 54.4 55.85 L43.05 55.85 Q41.85 55.85 41.85 54.65 L41.85 53.1 42.1 53.55 42.2 53.7 43.05 53.85 54.4 53.85 55.3 53.6 55.35 53.55 M21.05 53.55 L21.3 53.15 21.3 54.65 Q21.3 55.85 20.1 55.85 L8.75 55.85 Q7.55 55.85 7.55 54.65 L7.55 53.15 7.8 53.55 7.9 53.7 8.75 53.85 20.1 53.85 21.0 53.6 21.05 53.55" fill="#8e8e8e" fill-rule="evenodd" stroke="none"/>
    <path d="M44.1 27.25 L44.95 27.1 52.45 27.1 53.15 27.2 53.15 28.1 53.1 28.1 Q52.9 28.1 52.85 28.2 L52.7 28.55 52.7 29.05 51.05 29.05 51.05 28.05 50.95 27.75 50.7 27.65 50.35 27.75 50.25 28.05 50.25 37.9 44.1 37.9 44.1 27.25 M55.35 53.35 L55.35 53.55 55.3 53.6 55.35 53.35 M42.1 53.55 L42.1 53.3 42.2 53.7 42.1 53.55 M47.2 33.1 L47.2 27.85 44.6 27.85 44.6 33.1 47.2 33.1 M45.05 33.6 L45.05 36.2 49.35 36.2 49.35 33.6 45.05 33.6 M9.8 27.25 L10.65 27.1 18.15 27.1 18.85 27.2 18.85 28.1 18.8 28.1 18.5 28.2 18.35 28.55 18.35 29.05 16.75 29.05 16.75 28.05 16.65 27.75 16.35 27.65 16.05 27.75 15.95 28.05 15.95 37.9 9.8 37.9 9.8 27.25 M21.05 53.35 L21.05 53.55 21.0 53.6 21.05 53.35 M7.8 53.55 L7.8 53.3 7.9 53.7 7.8 53.55 M10.75 36.2 L15.05 36.2 15.05 33.6 10.75 33.6 10.75 36.2 M12.9 27.85 L10.25 27.85 10.25 33.1 12.9 33.1 12.9 27.85" fill="#a3a3a3" fill-rule="evenodd" stroke="none"/>
    <path d="M55.35 46.65 L55.35 47.05 55.35 52.35 54.8 52.35 49.2 52.35 49.2 46.6 54.8 46.6 55.35 46.65 M42.1 52.2 L42.1 47.05 42.15 46.6 42.4 46.6 48.65 46.6 48.65 52.35 42.4 52.35 42.15 52.35 42.1 52.2 M21.05 46.65 L21.05 47.05 21.05 52.35 20.45 52.35 14.9 52.35 14.9 46.6 20.45 46.6 21.05 46.65 M7.8 52.2 L7.8 47.05 7.85 46.6 8.1 46.6 14.3 46.6 14.3 52.35 8.1 52.35 7.85 52.35 7.8 52.2" fill="#20b8ec" fill-rule="evenodd" stroke="none"/>
    <path d="M5.3 43.45 L5.3 44.55 4.75 44.55 Q1.7 44.55 1.7 41.7 L1.7 22.6 1.7 20.95 1.7 20.15 1.7 -5.9 Q1.7 -8.75 4.75 -8.75 L13.2 -8.75 13.2 -11.6 Q13.25 -14.15 14.4 -15.0 L31.5 -22.65 31.55 -22.75 48.75 -15.75 Q49.8 -14.95 49.85 -12.4 L49.85 -8.75 58.35 -8.75 Q61.45 -8.75 61.45 -5.9 L61.45 20.15 61.45 20.9 61.45 22.6 61.45 41.7 Q61.45 44.55 58.35 44.55 L57.4 44.55 57.4 43.45 55.45 43.45 55.45 28.95 41.75 28.95 41.75 43.45 40.2 43.45 40.2 44.55 37.2 44.55 37.2 43.6 25.65 43.6 25.65 44.55 23.05 44.55 23.05 43.45 21.35 43.45 21.1 43.45 21.1 28.95 7.4 28.95 7.4 43.45 5.3 43.45 M31.55 4.1 L31.5 4.05 31.5 4.2 31.55 4.1" fill="#797979" fill-rule="evenodd" stroke="none"/>
    <path d="M57.4 43.45 L57.4 44.55 58.35 44.55 Q61.45 44.55 61.45 41.7 L61.45 22.6 61.45 20.9 61.45 20.15 61.45 -5.9 Q61.45 -8.75 58.35 -8.75 L49.85 -8.75 49.85 -12.4 Q49.8 -14.95 48.75 -15.75 L31.55 -22.75 31.5 -22.65 14.4 -15.0 Q13.25 -14.15 13.2 -11.6 L13.2 -8.75 4.75 -8.75 Q1.7 -8.75 1.7 -5.9 L1.7 20.15 1.7 20.95 1.7 22.6 1.7 41.7 Q1.7 44.55 4.75 44.55 L5.3 44.55 5.3 43.45 M23.05 43.45 L23.05 44.55 25.65 44.55 25.65 43.6 37.2 43.6 37.2 44.55 40.2 44.55 40.2 43.45 M31.55 4.1 L31.5 4.2 31.5 4.05 31.55 4.1" fill="none" stroke="#252525" stroke-linecap="round" stroke-linejoin="round" stroke-width="4.0"/>
    <path d="M13.2 -6.35 L4.75 -6.35 3.45 -6.15 Q4.0 -7.7 6.2 -7.7 L13.2 -7.7 13.2 -6.35 M14.6 21.75 L14.6 11.7 14.95 11.55 31.5 4.2 31.55 4.1 48.25 10.85 48.3 10.9 48.3 21.75 48.3 22.8 58.35 22.8 Q61.35 22.8 61.45 20.15 L61.45 20.9 Q61.35 23.6 58.35 23.6 L48.3 23.6 48.3 25.25 58.35 25.25 Q61.35 25.25 61.45 22.6 L61.45 41.7 Q61.45 44.55 58.35 44.55 L57.4 44.55 57.4 43.45 57.4 27.2 40.2 27.2 40.2 43.45 40.2 44.55 37.2 44.55 37.2 43.6 37.2 43.55 37.2 33.8 37.2 30.35 31.6 30.35 31.55 30.25 31.5 30.25 31.35 30.25 31.35 30.35 25.65 30.35 25.65 33.8 25.65 43.55 25.65 43.6 25.65 44.55 23.05 44.55 23.05 43.45 23.05 27.2 5.3 27.2 5.3 43.45 5.3 44.55 4.75 44.55 Q1.7 44.55 1.7 41.7 L1.7 22.6 Q1.8 25.25 4.75 25.25 L14.6 25.25 14.6 23.65 4.75 23.65 Q1.8 23.65 1.7 20.95 L1.7 20.15 Q1.8 22.8 4.75 22.8 L14.6 22.8 14.6 21.75 M49.85 -6.35 L49.85 -7.7 56.95 -7.7 Q59.15 -7.7 59.75 -6.15 L58.35 -6.35 49.85 -6.35 M41.15 12.35 Q40.95 12.35 40.8 12.5 L40.65 12.85 40.65 19.2 40.8 19.55 41.15 19.7 45.5 19.7 45.85 19.55 46.0 19.2 46.0 12.85 45.85 12.5 Q45.7 12.35 45.5 12.35 L41.15 12.35 M33.7 12.35 Q33.5 12.35 33.35 12.5 L33.2 12.85 33.2 19.2 33.35 19.55 33.7 19.7 38.05 19.7 38.4 19.55 38.55 19.2 38.55 12.85 38.4 12.5 38.05 12.35 33.7 12.35 M25.65 12.35 Q25.45 12.35 25.3 12.5 25.15 12.65 25.15 12.85 L25.15 19.2 25.3 19.55 25.65 19.7 29.95 19.7 30.3 19.55 30.45 19.2 30.45 12.85 30.3 12.5 29.95 12.35 25.65 12.35 M22.25 12.5 L21.9 12.35 17.7 12.35 17.6 12.35 Q17.4 12.35 17.25 12.5 17.1 12.65 17.1 12.85 L17.1 19.2 17.25 19.55 17.6 19.7 17.7 19.7 21.9 19.7 22.25 19.55 22.4 19.2 22.4 12.85 22.25 12.5 M33.6 23.85 Q32.85 23.15 31.7 23.15 30.55 23.15 29.8 23.85 29.05 24.6 29.05 25.65 29.05 26.7 29.8 27.4 30.55 28.1 31.7 28.1 32.85 28.1 33.6 27.4 34.4 26.7 34.4 25.65 34.4 24.6 33.6 23.85" fill="#a85300" fill-rule="evenodd" stroke="none"/>
    <path d="M31.5 -22.65 L31.55 -22.75 48.75 -15.75 Q49.8 -14.95 49.85 -12.4 L49.85 -8.75 49.85 -7.7 49.85 -6.35 49.85 9.05 Q49.85 11.9 48.75 11.1 L48.3 10.9 48.25 10.85 31.55 4.1 31.5 4.05 31.5 -22.65" fill="#696969" fill-rule="evenodd" stroke="none"/>
    <path d="M13.2 -6.35 L13.2 -7.7 13.2 -8.75 13.2 -11.6 Q13.25 -14.15 14.4 -15.0 L31.5 -22.65 31.5 4.05 31.5 4.2 14.95 11.55 14.6 11.7 14.4 11.8 Q13.2 12.65 13.2 9.85 L13.2 -6.35" fill="#464646" fill-rule="evenodd" stroke="none"/>
    <path d="M13.2 -7.7 L6.2 -7.7 Q4.0 -7.7 3.45 -6.15 L3.25 -5.0 3.25 19.05 Q3.25 21.75 6.2 21.75 L14.6 21.75 14.6 22.8 4.75 22.8 Q1.8 22.8 1.7 20.15 L1.7 -5.9 Q1.7 -8.75 4.75 -8.75 L13.2 -8.75 13.2 -7.7 M49.85 -7.7 L49.85 -8.75 58.35 -8.75 Q61.45 -8.75 61.45 -5.9 L61.45 20.15 Q61.35 22.8 58.35 22.8 L48.3 22.8 48.3 21.75 56.95 21.75 Q59.9 21.75 59.9 19.05 L59.9 -5.0 59.75 -6.15 Q59.15 -7.7 56.95 -7.7 L49.85 -7.7" fill="#c46c15" fill-rule="evenodd" stroke="none"/>
    <path d="M61.45 20.9 L61.45 22.6 Q61.35 25.25 58.35 25.25 L48.3 25.25 48.3 23.6 58.35 23.6 Q61.35 23.6 61.45 20.9 M57.4 43.45 L55.45 43.45 55.45 28.95 41.75 28.95 41.75 43.45 40.2 43.45 40.2 27.2 57.4 27.2 57.4 43.45 M23.05 43.45 L21.35 43.45 21.1 43.45 21.1 28.95 7.4 28.95 7.4 43.45 5.3 43.45 5.3 27.2 23.05 27.2 23.05 43.45 M1.7 22.6 L1.7 20.95 Q1.8 23.65 4.75 23.65 L14.6 23.65 14.6 25.25 4.75 25.25 Q1.8 25.25 1.7 22.6" fill="#585858" fill-rule="evenodd" stroke="none"/>
    <path d="M33.6 23.85 Q34.4 24.6 34.4 25.65 34.4 26.7 33.6 27.4 32.85 28.1 31.7 28.1 30.55 28.1 29.8 27.4 29.05 26.7 29.05 25.65 29.05 24.6 29.8 23.85 30.55 23.15 31.7 23.15 32.85 23.15 33.6 23.85" fill="#9a1313" fill-rule="evenodd" stroke="none"/>
    <path d="M37.2 43.55 L31.6 43.55 31.6 30.35 37.2 30.35 37.2 33.8 37.2 43.55 M31.35 43.55 L25.65 43.55 25.65 33.8 25.65 30.35 31.35 30.35 31.35 33.7 31.35 33.8 31.35 43.55 M36.45 32.15 L32.25 32.15 32.25 37.15 36.45 37.15 36.45 32.15 M26.4 32.15 L26.4 37.15 30.6 37.15 30.6 32.15 26.4 32.15" fill="#9f0000" fill-rule="evenodd" stroke="none"/>
    <path d="M45.0 13.35 L45.0 18.7 41.65 18.7 41.65 13.35 45.0 13.35 M29.45 13.35 L29.45 18.7 26.15 18.7 26.15 13.35 29.45 13.35 M21.4 18.7 L18.1 18.7 18.1 13.35 21.4 13.35 21.4 18.7 M34.2 13.35 L37.55 13.35 37.55 18.7 34.2 18.7 34.2 13.35 M36.45 32.15 L36.45 37.15 32.25 37.15 32.25 32.15 36.45 32.15 M26.4 32.15 L30.6 32.15 30.6 37.15 26.4 37.15 26.4 32.15" fill="#76cce9" fill-rule="evenodd" stroke="none"/>
    <path d="M31.6 43.55 L31.55 43.65 31.5 43.75 31.35 43.65 31.35 43.55 31.35 33.8 31.35 33.7 31.35 30.35 31.35 30.25 31.5 30.25 31.55 30.25 31.6 30.35 31.6 43.55" fill="#252525" fill-rule="evenodd" stroke="none"/>
    <path d="M3.45 -6.15 L4.75 -6.35 13.2 -6.35 13.2 9.85 Q13.2 12.65 14.4 11.8 L14.6 11.7 14.6 21.75 6.2 21.75 Q3.25 21.75 3.25 19.05 L3.25 -5.0 3.45 -6.15 M48.3 10.9 L48.75 11.1 Q49.85 11.9 49.85 9.05 L49.85 -6.35 58.35 -6.35 59.75 -6.15 59.9 -5.0 59.9 19.05 Q59.9 21.75 56.95 21.75 L48.3 21.75 48.3 10.9" fill="#c9c9c9" fill-rule="evenodd" stroke="none"/>
    <path d="M41.15 12.35 L45.5 12.35 Q45.7 12.35 45.85 12.5 L46.0 12.85 46.0 19.2 45.85 19.55 45.5 19.7 41.15 19.7 40.8 19.55 40.65 19.2 40.65 12.85 40.8 12.5 Q40.95 12.35 41.15 12.35 M45.0 13.35 L41.65 13.35 41.65 18.7 45.0 18.7 45.0 13.35 M25.65 12.35 L29.95 12.35 30.3 12.5 30.45 12.85 30.45 19.2 30.3 19.55 29.95 19.7 25.65 19.7 25.3 19.55 25.15 19.2 25.15 12.85 Q25.15 12.65 25.3 12.5 25.45 12.35 25.65 12.35 M33.7 12.35 L38.05 12.35 38.4 12.5 38.55 12.85 38.55 19.2 38.4 19.55 38.05 19.7 33.7 19.7 33.35 19.55 33.2 19.2 33.2 12.85 33.35 12.5 Q33.5 12.35 33.7 12.35 M29.45 13.35 L26.15 13.35 26.15 18.7 29.45 18.7 29.45 13.35 M22.25 12.5 L22.4 12.85 22.4 19.2 22.25 19.55 21.9 19.7 17.7 19.7 17.6 19.7 17.25 19.55 17.1 19.2 17.1 12.85 Q17.1 12.65 17.25 12.5 17.4 12.35 17.6 12.35 L17.7 12.35 21.9 12.35 22.25 12.5 M21.4 18.7 L21.4 13.35 18.1 13.35 18.1 18.7 21.4 18.7 M34.2 13.35 L34.2 18.7 37.55 18.7 37.55 13.35 34.2 13.35" fill="#727272" fill-rule="evenodd" stroke="none"/>
    <path d="M50.8 -10.45 L50.8 12.7 49.0 11.9 48.85 20.95 M12.3 -9.75 L12.3 13.25 14.1 12.2 14.1 21.25" fill="none" stroke="#252525" stroke-linecap="round" stroke-linejoin="round" stroke-width="2.0"/>
    <path d="M31.2 25.25 L31.8 25.7 31.6 26.35 31.2 26.35 29.6 27.55 29.0 27.0 31.05 25.9 31.2 25.25" fill="#000000" fill-rule="evenodd" stroke="none"/>
    <path d="M41.4 23.9 L37.0 23.9 37.0 21.95 41.4 21.95 41.4 23.9 M32.35 10.05 L36.4 10.05 36.4 12.0 32.35 12.0 32.35 10.05 M33.4 9.85 L29.35 9.85 29.35 7.9 33.4 7.9 33.4 9.85 M31.8 7.8 L31.8 5.8 35.85 5.8 35.85 7.8 31.8 7.8 M27.1 22.85 L27.1 24.8 22.7 24.8 22.7 22.85 27.1 22.85 M28.7 25.1 L28.7 27.05 24.35 27.05 24.35 25.1 28.7 25.1 M17.1 22.85 L21.45 22.85 21.45 24.8 17.1 24.8 17.1 22.85" fill="#bb5c00" fill-rule="evenodd" stroke="none"/>
    <path d="M44.05 26.1 L40.0 26.1 40.0 24.1 44.05 24.1 44.05 26.1 M42.2 21.95 L46.25 21.95 46.25 23.9 42.2 23.9 42.2 21.95 M30.55 12.1 L26.5 12.1 26.5 10.15 30.55 10.15 30.55 12.1 M34.55 8.05 L38.6 8.05 38.6 10.0 34.55 10.0 34.55 8.05 M24.55 7.9 L28.6 7.9 28.6 9.85 24.55 9.85 24.55 7.9 M24.4 22.6 L20.0 22.6 20.0 20.65 24.4 20.65 24.4 22.6 M34.9 21.55 L34.9 19.6 38.95 19.6 38.95 21.55 34.9 21.55" fill="#984b00" fill-rule="evenodd" stroke="none"/>
    <path d="M48.95 10.65 L31.55 3.35 13.8 11.55" fill="none" stroke="#afafaf" stroke-linecap="round" stroke-linejoin="round" stroke-width="2.0"/>
  </g>
</svg>
