<?xml version="1.0" encoding="UTF-8" standalone="no"?>
<svg xmlns:xlink="http://www.w3.org/1999/xlink" height="266.6px" width="198.3px" xmlns="http://www.w3.org/2000/svg">
  <g transform="matrix(1.0, 0.0, 0.0, 1.0, 99.15, 134.8)">
    <path d="M-13.8 93.2 L-12.45 93.2 -11.55 94.1 Q-12.9 93.65 -13.8 93.2" fill="#cc0000" fill-rule="evenodd" stroke="none"/>
    <path d="M7.3 114.2 L0.7 126.1 Q12.8 129.0 20.7 119.5 L7.3 114.2" fill="#830000" fill-rule="evenodd" stroke="none"/>
    <path d="M7.3 114.2 L20.7 119.5 Q12.8 129.0 0.7 126.1 L7.3 114.2 Z" fill="none" stroke="#620505" stroke-linecap="round" stroke-linejoin="round" stroke-width="10.0"/>
    <path d="M12.1 113.1 Q12.5 114.7 11.05 116.25 9.65 117.75 7.35 118.35 L3.0 118.25 Q1.05 117.6 0.65 116.0 0.25 114.45 1.65 112.85 3.05 111.35 5.4 110.75 L9.7 110.85 Q11.7 111.55 12.1 113.1 Z" fill="none" stroke="#620505" stroke-linecap="round" stroke-linejoin="round" stroke-width="8.0"/>
    <path d="M94.15 -26.35 Q94.15 -2.8 80.5 28.3 69.7 54.05 52.75 77.15 26.85 112.65 3.8 112.65 -19.75 112.65 -48.0 79.8 -69.65 54.5 -79.1 31.4 -94.15 -2.8 -94.15 -26.35 L-94.15 -27.2 Q-93.65 -69.85 -66.85 -99.6 -38.6 -129.8 0.0 -129.8 39.1 -129.8 66.85 -99.6 94.15 -69.85 94.15 -27.2 L94.15 -26.35" fill="#cc0000" fill-rule="evenodd" stroke="none"/>
    <path d="M94.15 -26.35 Q94.15 -2.8 80.5 28.3 69.7 54.05 52.75 77.15 26.85 112.65 3.8 112.65 -19.75 112.65 -48.0 79.8 -69.65 54.5 -79.1 31.4 -94.15 -2.8 -94.15 -26.35 L-94.15 -27.2 Q-93.65 -69.85 -66.85 -99.6 -38.6 -129.8 0.0 -129.8 39.1 -129.8 66.85 -99.6 94.15 -69.85 94.15 -27.2 L94.15 -26.35 Z" fill="none" stroke="#620505" stroke-linecap="round" stroke-linejoin="round" stroke-width="10.0"/>
    <path d="M7.3 114.2 L0.7 126.1 Q12.8 129.0 20.7 119.5 L7.3 114.2" fill="#cc0000" fill-rule="evenodd" stroke="none"/>
    <path d="M7.3 114.2 L0.7 126.1 Q12.8 129.0 20.7 119.5 L7.3 114.2" fill="#000000" fill-opacity="0.3019608" fill-rule="evenodd" stroke="none"/>
    <path d="M94.15 -26.35 Q94.15 -2.8 80.5 28.3 69.7 54.05 52.75 77.15 26.85 112.65 3.8 112.65 -19.75 112.65 -48.0 79.8 -69.65 54.5 -79.1 31.4 -94.15 -2.8 -94.15 -26.35 L-94.15 -27.2 Q-93.65 -69.85 -66.85 -99.6 -38.6 -129.8 0.0 -129.8 39.1 -129.8 66.85 -99.6 94.15 -69.85 94.15 -27.2 L94.15 -26.35" fill="#cc0000" fill-rule="evenodd" stroke="none"/>
    <path d="M75.25 -79.3 Q66.1 -69.0 50.85 -69.6 35.55 -70.25 23.05 -81.35 10.5 -92.45 8.0 -107.5 6.0 -119.9 11.8 -129.05 43.4 -125.15 66.85 -99.6 73.6 -92.25 78.7 -84.05 77.25 -81.55 75.25 -79.3 M84.35 -45.1 Q79.05 -47.25 76.05 -52.8 73.1 -58.35 74.15 -64.0 75.25 -69.65 79.8 -72.1 82.05 -73.3 84.5 -73.35 90.7 -60.0 92.95 -44.7 88.9 -43.15 84.35 -45.1" fill="#ffffff" fill-opacity="0.5019608" fill-rule="evenodd" stroke="none"/>
    <path d="M-75.15 -50.6 Q-74.65 -50.55 -74.25 -49.95 L-74.0 -49.25 Q-74.0 -48.35 -75.4 -44.1 L-76.9 -39.6 -74.35 -46.1 Q-72.85 -49.9 -71.8 -49.95 -71.25 -49.95 -70.85 -49.3 L-70.6 -48.6 -69.9 -49.4 Q-69.35 -49.9 -68.85 -49.75 L-68.4 -49.65 Q-67.8 -49.0 -67.7 -48.55 L-67.6 -47.75 Q-67.6 -46.85 -67.75 -46.15 L-68.3 -44.0 -67.65 -46.0 Q-66.95 -47.7 -65.85 -47.7 -65.05 -47.7 -64.8 -46.8 L-64.65 -45.85 Q-64.65 -45.2 -65.1 -44.1 L-64.0 -46.2 Q-63.4 -47.6 -62.45 -48.45 L-62.0 -48.6 -61.4 -48.45 Q-60.1 -47.4 -60.9 -45.25 -60.45 -46.3 -60.0 -46.45 L-59.5 -46.55 -59.15 -46.45 Q-58.25 -45.65 -58.4 -44.4 L-58.75 -42.45 -58.75 -42.2 -58.1 -43.9 Q-57.5 -45.25 -56.65 -45.25 -55.35 -45.25 -55.35 -43.7 -55.35 -42.95 -55.65 -41.95 L-54.8 -43.3 -54.35 -43.4 -53.95 -43.3 -53.45 -41.95 -53.25 -40.85 Q-53.25 -40.0 -54.5 -33.35 L-56.1 -24.85 -54.55 -32.2 Q-53.05 -38.05 -51.8 -38.05 -50.65 -38.05 -50.55 -36.7 L-50.7 -34.7 -50.65 -34.65 -50.1 -36.7 -49.2 -38.75 -48.75 -38.9 -48.05 -38.75 Q-47.35 -37.95 -47.3 -36.4 L-47.3 -34.1 -46.85 -35.8 Q-46.4 -36.95 -45.4 -37.25 L-45.0 -37.1 Q-44.15 -35.8 -44.35 -33.35 L-44.6 -29.4 -44.0 -31.7 Q-43.4 -33.6 -42.25 -33.6 -40.8 -33.6 -40.75 -31.15 L-41.0 -27.35 Q-40.65 -28.4 -39.8 -28.7 L-39.4 -28.55 Q-38.7 -27.35 -38.65 -25.7 L-38.7 -22.9 -38.7 -19.6 -38.8 -17.25 -38.75 -15.45 -38.7 -15.45 -37.8 -21.9 Q-37.05 -26.25 -35.85 -26.25 -34.5 -26.25 -34.55 -22.5 L-35.0 -16.6 -35.0 -14.45 -34.55 -19.5 Q-34.1 -22.8 -32.9 -22.8 -32.45 -22.8 -32.25 -22.25 L-32.6 -27.75 -32.35 -34.55 Q-32.0 -35.9 -32.0 -38.0 L-31.7 -38.9 Q-31.4 -39.45 -31.4 -39.75 L-31.4 -41.15 -31.2 -41.15 -30.55 -36.65 -30.05 -32.05 -29.85 -27.45 -29.45 -22.95 -28.25 -14.0 Q-27.6 -8.15 -27.6 -4.65 L-27.85 -2.65 -27.8 -2.55 -28.0 -1.85 -28.05 -1.75 -28.3 -0.75 -28.55 -0.6 -28.85 -1.35 -29.0 -1.35 -29.45 -1.45 -30.05 -2.3 -30.25 -3.2 -30.55 -2.6 Q-30.9 -1.95 -31.45 -2.0 L-31.95 -2.15 Q-33.1 -4.2 -33.3 -6.7 L-33.5 -11.1 -33.5 -11.45 -33.75 -6.95 Q-33.9 -4.15 -35.65 -4.35 -37.15 -5.55 -37.3 -7.45 L-37.15 -10.65 -37.05 -16.9 Q-37.35 -12.5 -37.6 -10.35 -38.1 -6.6 -39.6 -5.55 -40.55 -5.5 -40.75 -7.2 L-40.85 -9.4 -40.55 -21.45 -41.2 -15.8 Q-41.55 -12.4 -42.95 -10.15 L-43.3 -9.95 Q-44.35 -10.15 -44.65 -11.25 L-44.7 -12.75 Q-44.7 -14.9 -43.3 -25.95 L-43.35 -25.95 -44.9 -16.4 -45.5 -10.95 Q-46.25 -7.25 -47.8 -7.25 -49.75 -7.25 -49.65 -10.9 L-49.1 -15.1 -49.65 -13.45 Q-50.1 -12.35 -51.15 -12.35 -52.45 -12.35 -52.65 -13.75 L-52.6 -15.35 -53.15 -14.5 Q-53.55 -14.0 -54.15 -14.0 -55.35 -14.0 -55.6 -15.4 L-55.55 -17.0 -56.25 -14.2 Q-57.25 -11.6 -58.65 -11.6 -59.8 -11.6 -60.0 -12.95 L-60.0 -14.5 Q-60.0 -16.4 -59.45 -19.7 L-58.65 -25.0 Q-59.2 -22.95 -59.9 -21.2 -61.15 -17.7 -62.35 -17.7 -63.75 -17.7 -63.85 -19.15 L-63.65 -20.9 -64.25 -20.5 Q-64.65 -20.2 -65.05 -20.2 -66.5 -20.2 -66.5 -21.85 L-66.3 -23.2 Q-67.95 -21.4 -69.1 -19.1 -70.45 -16.3 -72.4 -10.7 -72.85 -9.85 -73.5 -3.5 L-74.15 5.7 Q-74.15 11.4 -73.25 14.95 -72.25 18.9 -69.05 24.7 -66.7 29.05 -62.45 34.0 L-60.45 36.4 Q-58.9 38.0 -57.35 38.6 L-52.5 40.75 Q-50.1 41.65 -46.0 41.65 -43.45 41.65 -39.45 39.75 -37.25 38.8 -35.3 37.55 -33.75 36.55 -32.85 35.1 L-31.65 32.45 Q-30.1 28.6 -29.2 27.1 -27.85 25.1 -27.55 21.95 -27.25 19.05 -27.25 11.6 -27.25 4.75 -26.75 1.15 L-26.45 4.05 Q-26.4 5.85 -25.8 6.95 -25.25 7.95 -25.25 12.6 L-25.45 19.5 Q-25.55 22.35 -25.85 23.4 L-26.1 26.05 -26.45 29.6 Q-26.45 30.8 -28.35 34.5 L-30.6 38.75 Q-31.4 40.25 -33.3 41.4 L-36.5 42.85 -39.95 44.6 Q-43.1 45.9 -46.05 45.9 -51.2 45.9 -53.95 44.85 L-57.9 43.05 Q-59.25 42.6 -61.4 40.95 L-64.1 38.6 -67.8 33.85 -71.4 29.1 Q-74.15 25.05 -75.95 19.85 -77.8 14.5 -77.8 10.05 -77.8 3.15 -77.6 1.25 -77.3 -1.35 -75.6 -9.25 -75.2 -11.05 -73.6 -14.15 L-71.35 -18.95 Q-70.7 -20.85 -69.15 -22.85 L-69.2 -22.95 -69.25 -23.95 -68.4 -28.35 -67.35 -32.1 -67.35 -32.3 -68.9 -28.2 Q-69.85 -25.8 -71.4 -24.45 -72.25 -24.6 -72.45 -25.4 L-72.55 -26.2 -72.35 -27.7 -71.85 -29.15 -71.85 -29.35 -72.5 -28.45 Q-72.85 -28.1 -73.3 -28.1 -74.35 -28.1 -74.65 -29.0 L-74.8 -29.95 -74.1 -33.2 -73.3 -35.95 -73.3 -36.1 -75.45 -31.85 -76.6 -29.7 Q-77.15 -28.45 -77.3 -28.55 L-78.6 -29.0 -79.4 -28.35 Q-80.2 -27.7 -80.55 -27.7 -81.8 -28.2 -81.8 -29.45 L-81.6 -31.2 -82.15 -31.1 -82.65 -31.2 Q-83.05 -31.45 -83.25 -32.15 L-83.45 -33.05 Q-84.6 -33.55 -84.9 -34.15 L-85.0 -35.2 Q-85.0 -37.45 -83.0 -43.2 -81.05 -48.9 -79.95 -49.95 -78.65 -49.95 -77.85 -50.3 L-77.35 -50.2 -76.85 -49.55 -76.7 -48.95 Q-76.7 -48.6 -76.85 -48.25 L-77.1 -47.7 -77.1 -47.65 -76.45 -49.05 -75.6 -50.45 -75.15 -50.6 M-31.8 -16.55 L-31.6 -11.6 -31.5 -14.2 -31.4 -15.15 -31.8 -18.55 -31.8 -16.55 M-32.4 15.05 L-32.6 22.65 -32.5 26.3 Q-32.85 29.5 -35.35 29.5 -37.05 29.5 -37.85 27.2 -38.4 25.65 -38.4 23.85 L-37.75 1.95 Q-37.45 -3.45 -34.1 -1.45 -33.3 -0.5 -33.2 1.25 L-33.1 4.0 -32.45 10.1 -32.4 15.05" fill="#000000" fill-rule="evenodd" stroke="none"/>
    <path d="M52.75 77.15 Q26.85 112.65 3.8 112.65 -19.75 112.65 -48.0 79.8 -67.3 57.2 -76.9 36.4 -69.55 44.1 -60.6 52.05 -23.3 84.9 7.75 84.9 36.15 84.9 67.8 54.05 61.0 65.9 52.75 77.15" fill="#000000" fill-opacity="0.3019608" fill-rule="evenodd" stroke="none"/>
    <path d="M12.1 113.1 Q12.5 114.7 11.05 116.25 9.65 117.75 7.35 118.35 L3.0 118.25 Q1.05 117.6 0.65 116.0 0.25 114.45 1.65 112.85 3.05 111.35 5.4 110.75 L9.7 110.85 Q11.7 111.55 12.1 113.1" fill="#8e0000" fill-rule="evenodd" stroke="none"/>
    <path d="M7.65 -41.3 L8.15 -41.15 Q8.95 -39.55 9.05 -37.2 L9.2 -33.25 9.95 -25.25 10.55 -19.25 10.7 -19.6 11.25 -19.7 12.35 -18.9 13.0 -19.05 13.5 -19.35 14.55 -18.9 14.65 -22.1 Q14.75 -24.0 15.6 -25.45 L16.2 -25.55 17.45 -24.75 17.7 -25.7 Q17.85 -26.4 18.65 -26.4 19.6 -26.4 19.85 -21.2 L20.2 -12.75 20.3 -16.75 19.65 -28.35 19.75 -30.05 Q20.05 -31.1 21.15 -30.9 L21.7 -30.8 Q22.55 -29.5 22.9 -27.9 L23.4 -25.05 Q23.55 -26.4 23.2 -29.05 23.05 -31.4 24.4 -33.1 L25.0 -33.25 25.45 -33.1 Q27.05 -30.1 27.45 -25.4 27.7 -20.2 27.45 -29.5 L28.05 -19.25 27.5 -29.85 Q27.5 -31.4 28.15 -32.1 L29.0 -32.3 29.5 -32.1 Q31.4 -28.85 31.95 -22.65 L32.05 -22.75 32.05 -34.2 32.25 -36.15 Q32.6 -37.45 34.1 -37.65 36.05 -36.1 36.25 -34.0 36.2 -31.55 36.55 -30.3 L36.65 -30.3 37.25 -34.9 Q37.25 -36.6 37.5 -37.4 37.95 -39.05 39.4 -39.05 41.25 -39.05 41.75 -36.6 L42.0 -32.9 42.05 -32.9 42.15 -35.95 42.45 -38.9 42.7 -41.9 Q43.15 -43.7 45.0 -44.15 L45.55 -44.1 46.55 -42.8 46.95 -45.05 Q47.5 -47.0 49.05 -47.0 51.0 -47.0 51.5 -45.1 L51.65 -42.65 51.95 -40.55 52.35 -38.3 52.45 -38.3 52.7 -44.7 Q53.2 -50.45 55.15 -50.45 56.9 -50.45 57.15 -48.65 L57.15 -46.0 57.35 -41.5 57.8 -32.55 57.8 -32.45 58.4 -37.5 58.45 -42.65 58.7 -47.85 58.65 -50.45 Q58.7 -51.95 59.4 -52.95 59.9 -53.65 61.25 -53.95 L63.0 -54.05 Q64.9 -54.2 65.2 -51.75 L65.8 -46.65 Q66.25 -39.55 66.9 -36.35 L67.5 -44.4 67.75 -48.85 Q68.3 -52.1 70.15 -52.1 71.9 -52.1 72.25 -49.65 L72.25 -46.95 71.8 -36.7 Q71.65 -34.25 71.0 -31.6 L70.95 -30.25 Q70.8 -29.3 70.15 -28.85 L68.8 -27.55 Q68.2 -26.8 67.2 -26.8 65.05 -26.8 63.95 -30.85 63.4 -33.0 62.9 -36.55 L62.35 -32.9 61.7 -31.15 60.7 -29.35 60.4 -25.9 Q60.1 -24.6 59.6 -23.8 61.85 -18.65 63.25 -15.9 63.6 -15.3 63.75 -13.9 L64.1 -11.55 65.2 -7.4 65.8 -2.75 65.85 1.0 Q65.4 8.35 65.3 12.2 65.0 18.25 63.0 23.2 61.55 27.1 60.55 28.75 58.7 31.9 55.3 34.4 51.2 37.45 46.45 39.55 41.2 41.8 37.1 42.0 L29.25 42.0 Q20.2 41.55 14.6 31.5 10.15 23.55 10.15 16.05 L10.7 0.65 11.25 0.45 Q12.15 2.3 12.25 5.3 L12.2 10.4 Q12.3 16.2 13.2 20.3 13.7 22.3 15.0 25.25 L17.45 30.4 Q19.05 33.8 23.6 36.35 27.25 38.35 29.5 38.45 L36.65 38.45 Q41.75 38.4 48.85 34.2 55.5 30.25 57.05 27.1 58.7 23.85 60.0 19.7 61.4 15.35 61.4 13.3 L62.2 1.0 Q62.2 -3.25 61.7 -6.05 L59.75 -14.25 Q59.55 -15.3 58.05 -18.1 56.65 -20.65 56.45 -21.95 L56.0 -23.5 Q55.3 -24.3 54.85 -25.9 54.45 -27.55 54.25 -30.2 53.6 -29.75 53.0 -29.75 51.75 -29.75 50.65 -31.75 49.9 -33.15 49.75 -34.35 L49.65 -34.45 49.35 -26.65 Q49.5 -24.65 49.25 -22.95 48.8 -19.7 46.9 -19.7 45.15 -19.7 44.85 -21.85 L44.8 -22.25 44.75 -20.0 Q44.35 -16.4 42.45 -16.4 40.85 -16.4 40.3 -19.5 40.05 -21.05 40.1 -22.9 L39.4 -29.5 39.35 -29.6 Q39.2 -25.95 38.75 -23.6 L38.6 -20.6 Q38.3 -18.7 36.35 -17.95 L35.85 -18.05 Q35.0 -18.45 34.7 -19.45 L34.4 -21.0 33.95 -16.05 Q33.5 -13.1 32.05 -12.8 L31.45 -13.0 Q31.1 -13.1 30.85 -13.65 L30.5 -14.45 30.65 -12.35 30.4 -9.65 Q29.85 -7.25 28.3 -6.85 L27.7 -6.9 Q26.55 -8.0 26.2 -9.9 L25.85 -13.0 25.75 -13.15 25.6 -10.2 Q25.25 -8.75 23.7 -8.05 22.85 -8.45 22.4 -8.9 L22.35 -5.6 Q22.1 -3.7 20.1 -2.5 18.9 -2.9 18.55 -3.55 L18.25 -4.75 17.9 -4.3 Q17.55 -4.0 17.1 -4.1 L16.5 -4.2 15.7 -5.1 Q15.35 -5.85 15.6 -6.3 L15.5 -6.4 Q15.45 -5.5 14.65 -4.8 L13.45 -3.9 13.15 -2.6 Q12.85 -1.7 11.5 -1.6 10.5 -1.9 10.05 -2.45 L9.6 -1.75 8.8 -5.25 8.75 -5.25 Q8.35 -5.9 8.35 -6.65 L8.45 -7.25 8.15 -9.5 7.45 -17.5 6.2 -33.15 Q6.2 -40.55 7.65 -41.3 M24.55 24.75 Q24.55 25.7 24.05 26.4 23.45 27.3 22.15 27.3 20.2 27.3 19.6 25.2 L19.1 22.35 Q18.7 20.7 18.4 17.15 18.0 13.75 17.95 6.85 17.95 4.5 18.45 2.35 19.25 -0.75 20.6 1.5 21.7 4.35 22.4 9.25 L23.65 17.75 24.55 24.75" fill="#000000" fill-rule="evenodd" stroke="none"/>
    <path d="M19.9 65.7 L17.15 64.65 Q18.0 65.5 18.5 66.8 L19.75 70.2 19.75 72.6 Q19.75 76.7 18.7 78.15 L18.5 78.15 18.8 76.2 18.5 74.35 18.35 72.55 Q18.45 71.25 17.5 68.95 L15.0 65.35 13.8 63.65 12.3 63.2 5.4 61.25 Q3.0 60.6 -0.75 60.2 L-0.65 60.35 0.1 62.15 1.05 65.7 2.25 69.3 Q4.95 76.95 7.45 79.85 10.1 82.9 14.2 82.9 16.75 82.9 18.45 82.0 20.6 80.2 21.7 76.35 22.35 74.15 22.6 71.45 L22.7 69.15 22.45 67.75 22.3 67.0 19.9 65.7 M-16.45 56.05 L-6.35 56.05 Q1.5 56.45 6.4 57.8 L14.65 60.05 Q16.9 60.5 22.85 63.15 30.05 66.3 30.05 68.15 L29.7 69.2 Q29.15 69.95 28.2 69.95 L24.45 68.1 24.35 68.05 24.55 69.3 24.75 73.05 Q24.75 76.55 23.1 80.3 20.3 86.65 14.1 86.65 8.75 86.65 5.2 84.25 3.4 83.0 1.6 80.65 0.55 79.25 -0.05 77.1 L-1.0 73.45 -3.0 66.05 -3.75 62.45 Q-3.85 61.8 -4.8 60.6 L-5.5 59.75 -6.85 59.65 -16.15 59.65 -16.85 59.75 -23.5 59.75 -27.8 60.3 Q-29.65 60.35 -31.75 60.95 L-35.15 61.9 -38.1 62.7 -40.7 63.4 -44.35 64.4 Q-46.15 64.85 -47.6 65.55 L-50.2 67.0 -50.7 67.1 -50.8 67.05 -50.8 66.75 Q-50.8 66.05 -48.6 64.5 -47.0 63.35 -46.1 62.95 L-42.75 61.4 Q-40.5 60.3 -39.5 60.0 L-32.05 57.75 Q-28.15 56.6 -23.8 56.2 L-17.1 56.15 -16.45 56.05" fill="#000000" fill-rule="evenodd" stroke="none"/>
    <path d="M-15.0 -26.0 Q-12.8 -22.95 -11.9 -18.6 L-10.85 -11.25 -10.8 -12.7 Q-10.8 -14.9 -12.15 -22.25 -12.15 -24.25 -10.5 -24.25 -9.05 -24.25 -8.5 -22.7 L-8.15 -20.8 -7.25 -17.25 Q-6.8 -12.3 -6.35 -10.0 L-6.15 -13.5 Q-6.15 -16.1 -6.7 -19.15 L-7.25 -22.5 -7.15 -23.55 -5.6 -24.5 Q-3.85 -23.4 -3.05 -20.3 L-2.15 -16.05 -2.15 -16.0 Q-2.05 -16.55 -2.25 -18.2 -2.25 -19.7 -1.1 -20.55 L-0.5 -20.75 Q0.05 -20.8 0.6 -20.35 L1.1 -19.8 2.8 -19.4 Q3.55 -18.55 3.8 -17.3 L4.25 -15.15 5.35 -13.1 Q6.0 -12.25 6.1 -11.4 6.25 -8.55 6.5 -7.15 7.4 -4.25 7.4 -3.25 L7.2 -2.4 Q6.85 -1.8 6.15 -1.85 L5.6 -2.0 5.0 -2.7 4.4 -3.6 4.3 -0.2 Q4.15 2.1 1.0 1.55 1.0 4.4 -0.9 4.4 -2.6 4.4 -3.35 2.0 L-3.85 -0.85 Q-3.8 -0.1 -4.35 0.5 -5.0 1.25 -6.05 1.25 -8.0 1.25 -8.55 -1.1 L-9.05 -0.3 Q-9.65 0.35 -10.5 0.35 L-11.7 -0.05 Q-12.45 -0.5 -12.5 -1.0 -12.5 -0.15 -12.75 0.55 -13.25 1.9 -14.65 1.9 -16.3 1.9 -17.45 -1.55 L-18.25 -5.05 Q-19.2 -4.3 -19.9 -4.05 -20.25 -4.05 -20.8 -4.4 L-21.5 -5.0 -21.55 -3.15 Q-21.65 -1.9 -23.4 -1.25 L-24.0 -1.35 Q-25.3 -3.4 -25.9 -6.65 L-26.6 -11.85 -27.4 -17.25 -27.75 -22.05 Q-27.75 -23.15 -27.15 -23.8 L-26.6 -23.9 Q-25.5 -23.1 -25.25 -21.85 L-25.05 -19.75 -25.0 -19.75 Q-24.85 -20.5 -25.05 -22.15 -25.1 -23.65 -24.25 -24.6 L-23.65 -24.75 -23.1 -24.6 Q-22.55 -24.25 -22.4 -23.7 L-22.25 -22.85 -22.2 -24.05 Q-21.95 -25.0 -20.75 -25.15 -18.9 -23.95 -18.15 -21.55 L-17.25 -17.3 -16.5 -13.4 -15.65 -9.5 -15.65 -9.15 -15.6 -9.8 Q-15.6 -10.55 -16.55 -16.75 L-17.5 -24.15 Q-17.5 -25.15 -17.2 -25.5 -16.7 -26.25 -15.0 -26.0 M-20.1 46.75 L-20.0 46.9 Q-32.2 51.1 -41.4 57.3 -44.6 59.4 -46.6 60.1 -49.55 61.05 -54.5 61.05 -58.1 61.05 -59.1 58.1 L-59.35 55.05 Q-59.35 52.95 -58.55 51.35 -57.1 48.3 -53.3 48.3 -50.45 48.3 -49.1 50.0 -48.4 50.85 -48.3 51.8 -48.3 52.8 -48.75 53.25 -49.25 53.8 -51.1 54.5 L-51.65 54.35 -52.4 53.35 -51.75 52.0 -52.35 51.6 -53.3 51.4 -54.9 51.75 Q-55.55 52.35 -55.95 53.3 -56.35 54.25 -56.35 55.1 L-56.1 57.15 Q-55.8 58.0 -54.8 58.0 -48.5 58.0 -44.6 55.8 -39.95 52.45 -35.5 50.25 -30.7 47.9 -26.8 46.7 -21.1 45.0 -20.1 46.75 M-5.05 83.9 Q-4.25 83.9 -3.75 85.8 L-3.1 88.75 Q-2.85 87.8 -2.1 87.8 -0.95 87.8 -0.55 88.8 L-0.35 90.05 0.25 91.3 0.55 92.2 -0.5 97.65 -0.95 100.1 Q-1.5 101.7 -2.9 102.55 -3.35 102.6 -3.7 102.25 L-4.35 101.6 -5.35 101.6 Q-6.3 101.6 -9.65 93.6 L-12.8 85.6 Q-12.8 84.1 -11.8 84.1 -11.1 84.1 -10.6 85.4 -10.6 84.15 -9.65 84.15 -8.6 84.15 -7.4 87.1 -6.7 88.7 -5.75 91.6 L-5.55 91.6 -6.65 87.85 Q-7.35 85.45 -7.35 84.1 -7.35 82.45 -6.4 83.0 L-5.05 83.9 M37.4 57.0 Q43.8 57.0 45.6 55.45 46.15 54.95 46.15 53.55 L45.45 52.6 Q44.65 51.85 43.8 51.8 L40.75 51.8 40.35 52.75 Q40.05 53.4 39.3 53.5 L38.75 53.3 Q37.75 52.85 37.75 51.2 37.75 48.5 42.25 48.5 46.7 48.5 48.6 51.0 49.55 52.25 49.6 53.55 49.6 55.85 48.6 57.25 47.15 59.3 43.35 60.35 L36.85 60.35 Q33.0 59.95 28.45 57.7 20.95 54.0 19.75 53.55 L15.85 52.35 13.4 51.65 8.1 50.85 Q5.5 50.55 3.15 49.55 L-0.35 47.9 Q0.25 45.4 7.25 47.65 L15.85 48.5 19.6 50.0 Q23.65 51.25 30.15 54.55 35.05 57.0 37.4 57.0" fill="#000000" fill-rule="evenodd" stroke="none"/>
  </g>
</svg>
