<?xml version="1.0" encoding="UTF-8" standalone="no"?>
<svg xmlns:xlink="http://www.w3.org/1999/xlink" height="53.5px" width="68.45px" xmlns="http://www.w3.org/2000/svg">
  <g transform="matrix(1.0, 0.0, 0.0, 1.0, 3.5, 30.35)">
    <path d="M16.95 20.3 Q19.35 20.1 20.9 18.4 23.25 15.95 22.65 12.55 L19.1 7.25 14.8 1.6 Q12.45 -0.9 10.6 -1.3 L7.6 -1.2 Q5.35 -0.55 3.45 1.8 1.6 4.05 1.4 6.6 1.25 7.95 1.7 9.65 2.2 11.4 3.75 12.75 L8.65 16.35 14.25 20.0 16.95 20.3 Z" fill="none" stroke="#530000" stroke-linecap="round" stroke-linejoin="round" stroke-width="2.0"/>
    <path d="M22.15 11.7 L22.05 12.95 Q21.6 15.55 19.45 17.65 17.4 19.7 14.85 20.1 L14.65 20.15 14.25 20.0 13.15 19.4 13.65 19.3 Q16.2 18.85 18.3 16.85 20.4 14.8 20.9 12.1 L20.95 9.85 22.15 11.7 M18.2 6.0 L19.1 7.25 19.85 8.3 Q20.15 9.65 19.9 11.15 19.4 13.75 17.3 15.9 15.2 17.9 12.65 18.35 L11.65 18.45 10.5 17.65 11.5 17.5 Q14.05 17.1 16.1 15.05 18.25 12.95 18.75 10.35 19.1 8.1 18.2 6.0" fill="#6c0000" fill-rule="evenodd" stroke="none"/>
    <path d="M14.65 20.15 L14.85 20.1 Q17.4 19.7 19.45 17.65 21.6 15.55 22.05 12.95 L22.15 11.7 22.65 12.55 Q23.25 15.95 20.9 18.4 19.35 20.1 16.95 20.3 L14.65 20.15 M20.95 9.85 L20.9 12.1 Q20.4 14.8 18.3 16.85 16.2 18.85 13.65 19.3 L13.15 19.4 11.65 18.45 12.65 18.35 Q15.2 17.9 17.3 15.9 19.4 13.75 19.9 11.15 20.15 9.65 19.85 8.3 L20.95 9.85 M6.9 15.1 L9.95 15.3 Q12.5 14.9 14.55 12.85 16.7 10.8 17.2 8.15 17.6 6.0 16.75 4.05 L18.2 6.0 Q19.1 8.1 18.75 10.35 18.25 12.95 16.1 15.05 14.05 17.1 11.5 17.5 L10.5 17.65 8.65 16.35 6.9 15.1" fill="#bf0000" fill-rule="evenodd" stroke="none"/>
    <path d="M6.9 15.1 L3.75 12.75 Q2.8 11.9 2.25 10.9 4.1 12.25 6.5 11.85 9.0 11.4 11.05 9.4 13.2 7.25 13.7 4.65 14.15 2.15 12.95 -0.1 L14.8 1.6 16.75 4.05 Q17.6 6.0 17.2 8.15 16.7 10.8 14.55 12.85 12.5 14.9 9.95 15.3 L6.9 15.1" fill="#eaeaea" fill-rule="evenodd" stroke="none"/>
    <path d="M20.95 9.85 L22.15 11.7 22.65 12.55 Q23.1 14.95 22.0 16.9 L22.0 16.65 Q21.85 15.7 20.35 14.05 L18.25 11.5 16.15 8.85 13.75 6.7 13.4 6.45 13.45 5.8 Q13.7 4.75 13.6 2.85 13.45 0.8 12.5 -0.45 L12.95 -0.1 14.8 1.6 16.75 4.05 18.2 6.0 19.1 7.25 19.85 8.3 20.95 9.85" fill="#000000" fill-opacity="0.2" fill-rule="evenodd" stroke="none"/>
    <path d="M5.1 4.25 L5.2 4.35 4.95 4.45 5.1 4.25 M7.65 7.05 L5.7 7.8 7.25 6.6 7.65 7.05" fill="#ffffff" fill-rule="evenodd" stroke="none"/>
    <path d="M12.6 12.9 L14.45 14.9 17.9 18.55 19.15 19.6 19.25 19.65 17.7 20.2 16.35 19.05 13.2 17.15 7.65 13.05 5.2 11.0 6.65 10.85 9.25 9.95 10.8 11.25 12.6 12.9" fill="#ffffff" fill-opacity="0.4" fill-rule="evenodd" stroke="none"/>
    <path d="M6.5 11.85 Q4.1 12.25 2.25 10.9 L1.7 9.65 Q1.25 7.95 1.4 6.6 1.6 4.05 3.45 1.8 5.35 -0.55 7.6 -1.2 L10.6 -1.3 Q11.7 -1.1 12.95 -0.1 14.15 2.15 13.7 4.65 13.2 7.25 11.05 9.4 9.0 11.4 6.5 11.85" fill="#ffffff" fill-rule="evenodd" stroke="none"/>
    <path d="M6.9 1.55 Q8.3 1.2 9.35 2.05 10.4 2.9 10.4 4.4 10.35 5.95 9.35 7.2 8.3 8.5 6.8 8.85 5.3 9.1 4.25 8.25 3.2 7.4 3.25 5.9 3.2 4.4 4.3 3.15 5.4 1.8 6.9 1.55" fill="#676767" fill-rule="evenodd" stroke="none"/>
    <path d="M13.9 -0.5 Q14.15 -1.65 13.75 -2.25 13.45 -2.75 12.65 -2.75 11.65 -2.75 8.75 0.5 L6.05 3.8 6.4 4.45 10.1 2.4 Q13.75 0.2 13.9 -0.5 M-1.1 11.85 Q-0.1 11.8 2.75 8.55 L5.45 5.3 5.1 4.65 1.45 6.65 Q-2.25 8.8 -2.4 9.6 -2.65 10.75 -2.25 11.3 -1.9 11.85 -1.1 11.85" fill="none" stroke="#303030" stroke-linecap="round" stroke-linejoin="round" stroke-width="2.0"/>
    <path d="M-1.1 11.85 Q-1.9 11.85 -2.25 11.3 -2.65 10.75 -2.4 9.6 -2.25 8.8 1.45 6.65 L5.1 4.65 5.45 5.3 2.75 8.55 Q-0.1 11.8 -1.1 11.85 M13.9 -0.5 Q13.75 0.2 10.1 2.4 L6.4 4.45 6.05 3.8 8.75 0.5 Q11.65 -2.75 12.65 -2.75 13.45 -2.75 13.75 -2.25 14.15 -1.65 13.9 -0.5" fill="#999999" fill-rule="evenodd" stroke="none"/>
    <path d="M5.35 2.15 Q6.9 2.1 7.5 2.5 8.1 3.0 8.3 3.75 8.7 4.75 7.9 6.1 7.15 7.4 5.9 7.6 L4.35 7.45 Q3.7 7.1 3.15 5.8 2.4 4.25 3.0 3.2 3.55 2.2 5.35 2.15" fill="#333333" fill-rule="evenodd" stroke="none"/>
    <path d="M5.35 2.15 Q6.9 2.1 7.5 2.5 8.1 3.0 8.3 3.75 8.7 4.75 7.9 6.1 7.15 7.4 5.9 7.6 L4.35 7.45 Q3.7 7.1 3.15 5.8 2.4 4.25 3.0 3.2 3.55 2.2 5.35 2.15 Z" fill="none" stroke="#1a1a1a" stroke-linecap="butt" stroke-linejoin="round" stroke-width="2.0"/>
    <path d="M5.5 2.1 Q7.05 2.05 7.6 2.5 8.25 2.95 8.4 3.7 8.75 4.8 8.0 6.1 7.25 7.4 6.0 7.6 L4.45 7.4 Q3.85 7.05 3.2 5.8 2.5 4.25 3.1 3.2 3.7 2.15 5.5 2.1" fill="#999999" fill-rule="evenodd" stroke="none"/>
    <path d="M5.1 6.65 Q4.1 6.3 3.7 5.25 3.35 4.3 3.6 3.8 L3.95 3.3 5.0 3.15 5.0 3.25 4.5 3.45 3.85 3.85 Q3.55 4.5 4.45 5.65 L5.1 6.65" fill="#ffffff" fill-rule="evenodd" stroke="none"/>
    <path d="M49.85 -16.35 Q50.55 -15.8 51.0 1.55 63.15 4.7 63.8 5.35 64.45 5.95 62.25 7.5 59.9 9.05 57.5 9.5 56.35 9.65 51.15 8.3 51.3 21.25 50.85 21.8 50.3 22.4 47.4 20.95 L44.55 19.4 42.1 10.45 41.85 5.5 Q41.8 0.25 42.1 -1.55 42.45 -4.0 43.5 -8.05 44.7 -12.4 45.3 -13.25 L47.5 -15.5 Q49.2 -16.75 49.85 -16.35" fill="#530000" fill-rule="evenodd" stroke="none"/>
    <path d="M49.85 -16.35 Q50.55 -15.8 51.0 1.55 63.15 4.7 63.8 5.35 64.45 5.95 62.25 7.5 59.9 9.05 57.5 9.5 56.35 9.65 51.15 8.3 51.3 21.25 50.85 21.8 50.3 22.4 47.4 20.95 L44.55 19.4 42.1 10.45 41.85 5.5 Q41.8 0.25 42.1 -1.55 42.45 -4.0 43.5 -8.05 44.7 -12.4 45.3 -13.25 L47.5 -15.5 Q49.2 -16.75 49.85 -16.35 Z" fill="none" stroke="#530000" stroke-linecap="round" stroke-linejoin="round" stroke-width="2.0"/>
    <path d="M43.5 -8.05 Q44.7 -12.4 45.3 -13.25 L47.5 -15.5 Q49.2 -16.75 49.85 -16.35 50.55 -15.8 51.0 2.7 51.5 21.1 50.85 21.8 50.3 22.4 47.4 20.95 L44.55 19.4 42.1 10.45 41.85 5.5 Q41.8 0.25 42.1 -1.55 42.45 -4.0 43.5 -8.05" fill="#a60000" fill-rule="evenodd" stroke="none"/>
    <path d="M62.25 7.5 Q59.9 9.05 57.5 9.5 56.1 9.8 49.25 7.75 L42.7 5.75 49.75 1.2 Q63.05 4.65 63.8 5.35 64.45 5.95 62.25 7.5" fill="#bf0000" fill-rule="evenodd" stroke="none"/>
    <path d="M15.65 16.5 Q6.15 9.15 2.65 -2.15 L2.1 -4.0 Q-0.05 -12.2 1.65 -18.15 2.45 -20.8 4.0 -23.0 L5.5 -24.75 Q8.1 -27.3 12.2 -28.45 15.4 -29.3 19.55 -29.35 24.55 -29.4 29.05 -28.05 35.3 -26.1 40.5 -21.5 L43.9 -18.15 Q51.1 -10.25 51.9 -0.85 52.3 3.8 51.2 8.2 50.4 11.3 48.9 14.3 L48.3 15.3 Q47.0 17.1 44.35 18.7 42.35 19.9 40.15 20.7 L36.25 21.7 Q24.95 23.75 15.65 16.5 M9.35 -21.55 L9.55 -21.55 9.5 -21.6 9.5 -21.65 9.45 -21.65 9.45 -21.6 9.35 -21.55" fill="#530000" fill-rule="evenodd" stroke="none"/>
    <path d="M15.65 16.5 Q6.15 9.15 2.65 -2.15 L2.1 -4.0 Q-0.05 -12.2 1.65 -18.15 2.45 -20.8 4.0 -23.0 L5.5 -24.75 Q8.1 -27.3 12.2 -28.45 15.4 -29.3 19.55 -29.35 24.55 -29.4 29.05 -28.05 35.3 -26.1 40.5 -21.5 L43.9 -18.15 Q51.1 -10.25 51.9 -0.85 52.3 3.8 51.2 8.2 50.4 11.3 48.9 14.3 L48.3 15.3 Q47.0 17.1 44.35 18.7 42.35 19.9 40.15 20.7 L36.25 21.7 Q24.95 23.75 15.65 16.5 Z" fill="none" stroke="#530000" stroke-linecap="round" stroke-linejoin="round" stroke-width="2.0"/>
    <path d="M21.5 -29.3 Q25.45 -29.1 29.05 -28.05 L22.45 -28.5 21.65 -29.2 21.5 -29.3 M12.2 -28.45 L16.55 -29.2 18.3 -27.8 Q17.25 -27.4 16.15 -26.8 14.35 -28.2 11.85 -28.05 L12.2 -28.45" fill="#5b0000" fill-rule="evenodd" stroke="none"/>
    <path d="M22.45 -28.5 L29.05 -28.05 Q33.7 -26.6 37.8 -23.7 L40.5 -21.5 41.3 -20.8 41.4 -20.7 43.9 -18.15 Q41.7 -19.55 38.45 -21.0 L37.15 -21.55 35.55 -22.2 29.8 -24.15 25.15 -25.05 24.6 -25.1 Q23.9 -27.0 22.45 -28.5 M1.65 -18.15 Q2.45 -20.8 4.0 -23.0 L5.5 -24.75 Q3.35 -22.5 2.7 -19.75 L2.55 -18.85 1.65 -18.15 M16.15 -26.8 Q17.25 -27.4 18.3 -27.8 L18.55 -27.45 Q19.5 -26.15 19.95 -24.6 L17.8 -24.15 Q17.4 -25.6 16.35 -26.65 L16.15 -26.8" fill="#770000" fill-rule="evenodd" stroke="none"/>
    <path d="M21.5 -29.3 L21.65 -29.2 22.45 -28.5 20.3 -28.3 18.3 -27.8 16.55 -29.2 19.55 -29.35 21.5 -29.3 M11.85 -28.05 Q14.35 -28.2 16.15 -26.8 L12.75 -24.55 9.5 -21.65 Q9.85 -25.5 11.85 -28.05" fill="#330000" fill-rule="evenodd" stroke="none"/>
    <path d="M18.3 -27.8 L20.3 -28.3 22.45 -28.5 Q23.9 -27.0 24.6 -25.1 L19.95 -24.6 Q19.5 -26.15 18.55 -27.45 L18.3 -27.8 M9.5 -21.65 L12.75 -24.55 16.15 -26.8 16.35 -26.65 Q17.4 -25.6 17.8 -24.15 L15.35 -23.5 9.5 -21.6 9.5 -21.65 M5.5 -24.75 Q6.6 -24.65 7.4 -24.0 L8.75 -22.6 9.45 -21.65 9.45 -21.6 9.35 -21.55 Q6.45 -21.45 3.7 -19.75 L2.55 -18.85 2.7 -19.75 Q3.35 -22.5 5.5 -24.75" fill="#460000" fill-rule="evenodd" stroke="none"/>
    <path d="M43.9 -18.15 L44.0 -18.05 Q46.5 -15.25 48.25 -12.3 48.8 -9.75 48.65 -6.8 48.45 -3.65 47.5 -0.75 45.15 -4.7 41.6 -7.75 37.2 -11.5 29.95 -15.0 L25.5 -16.95 24.6 -17.3 24.9 -18.6 25.15 -20.6 25.1 -22.9 24.6 -25.1 25.15 -25.05 29.8 -24.15 35.55 -22.2 37.15 -21.55 38.45 -21.0 Q41.7 -19.55 43.9 -18.15 M51.7 -2.5 L51.9 -0.85 Q52.15 1.95 51.85 4.6 L50.8 6.85 49.9 4.25 Q51.3 1.0 51.7 -2.5 M2.65 -2.15 L2.1 -4.0 Q1.45 -6.4 1.2 -8.6 L2.45 -7.2 Q2.3 -4.75 2.65 -2.15 M1.1 -15.35 L1.65 -18.15 2.55 -18.85 Q2.2 -16.15 3.55 -14.25 L3.9 -13.85 Q3.35 -12.75 3.1 -11.75 L2.6 -12.3 Q1.5 -13.65 1.1 -15.35 M17.8 -24.15 L19.95 -24.6 Q20.45 -22.65 20.05 -20.25 L19.8 -19.1 18.7 -19.5 17.7 -19.85 17.95 -21.35 Q18.15 -22.9 17.8 -24.15" fill="#8c0000" fill-rule="evenodd" stroke="none"/>
    <path d="M5.5 -24.75 Q7.35 -26.55 9.95 -27.65 L12.2 -28.45 11.85 -28.05 Q9.85 -25.5 9.5 -21.65 L9.45 -21.65 8.75 -22.6 7.4 -24.0 Q6.6 -24.65 5.5 -24.75" fill="#240000" fill-rule="evenodd" stroke="none"/>
    <path d="M48.25 -12.3 Q50.95 -7.6 51.7 -2.5 51.3 1.0 49.9 4.25 L49.85 4.1 Q48.85 1.55 47.5 -0.75 48.45 -3.65 48.65 -6.8 48.8 -9.75 48.25 -12.3 M51.85 4.6 L51.2 8.2 50.8 6.85 51.85 4.6 M1.2 -8.6 Q0.7 -12.2 1.1 -15.35 1.5 -13.65 2.6 -12.3 L3.1 -11.75 2.9 -11.1 Q2.5 -9.2 2.45 -7.2 L1.2 -8.6 M19.8 -19.1 L20.05 -20.25 Q20.45 -22.65 19.95 -24.6 L24.6 -25.1 25.1 -22.9 25.15 -20.6 24.9 -18.6 24.6 -17.3 23.95 -17.55 23.45 -17.75 19.8 -19.1 M17.8 -24.15 Q18.15 -22.9 17.95 -21.35 L17.7 -19.85 Q12.3 -21.55 9.55 -21.55 L9.5 -21.6 15.35 -23.5 17.8 -24.15 M2.55 -18.85 L3.7 -19.75 Q6.45 -21.45 9.35 -21.55 L9.45 -21.55 9.4 -21.15 Q7.9 -19.85 6.45 -17.95 4.8 -15.75 3.9 -13.85 L3.55 -14.25 Q2.2 -16.15 2.55 -18.85" fill="#560000" fill-rule="evenodd" stroke="none"/>
    <path d="M50.15 11.5 L48.9 14.3 48.3 15.3 47.4 14.85 50.15 11.5 M40.15 20.7 L39.25 20.95 39.85 20.7 40.15 20.7 M30.4 22.1 L26.35 21.6 Q30.3 21.45 34.05 19.95 L36.65 20.4 Q33.6 21.75 30.4 22.1 M18.65 18.55 L17.5 17.85 15.65 16.5 14.7 15.75 Q12.3 13.8 10.35 11.55 8.2 9.2 6.55 6.45 4.05 2.5 2.65 -2.15 2.3 -4.75 2.45 -7.2 4.5 -5.35 7.65 -5.05 L9.0 -4.95 10.15 -5.0 10.8 -2.05 Q11.45 0.6 12.4 2.95 13.6 6.0 15.3 8.45 L16.15 9.7 Q20.4 15.35 27.8 18.15 L22.15 18.85 19.45 18.7 18.65 18.55 M17.7 -19.85 L18.7 -19.5 19.8 -19.1 Q18.9 -15.7 16.25 -13.05 L14.7 -14.9 14.75 -14.95 Q16.3 -16.5 17.15 -18.35 L17.7 -19.85 M19.3 -9.2 L19.85 -9.7 Q22.8 -12.6 24.15 -16.0 L24.6 -17.3 25.5 -16.95 29.95 -15.0 Q37.2 -11.5 41.6 -7.75 45.15 -4.7 47.5 -0.75 45.5 5.55 40.15 10.85 36.4 8.55 33.3 6.1 29.4 3.0 21.05 -7.05 L19.3 -9.2 M9.3 -12.15 L9.4 -10.55 9.5 -9.6 8.75 -9.55 Q5.2 -9.4 3.1 -11.75 3.35 -12.75 3.9 -13.85 5.55 -11.85 8.45 -12.05 L9.3 -12.15 M43.95 13.05 Q47.9 8.95 49.9 4.25 L50.8 6.85 Q48.85 10.6 45.65 13.95 L43.95 13.05" fill="#bf0000" fill-rule="evenodd" stroke="none"/>
    <path d="M51.2 8.2 L50.15 11.5 47.4 14.85 45.65 13.95 Q48.85 10.6 50.8 6.85 L51.2 8.2 M39.25 20.95 L36.25 21.7 30.4 22.1 Q33.6 21.75 36.65 20.4 L39.85 20.7 39.25 20.95 M26.35 21.6 Q23.15 20.95 20.15 19.4 L18.65 18.55 19.45 18.7 22.15 18.85 27.8 18.15 31.7 19.4 34.05 19.95 Q30.3 21.45 26.35 21.6 M19.8 -19.1 L23.45 -17.75 23.95 -17.55 24.6 -17.3 24.15 -16.0 Q22.8 -12.6 19.85 -9.7 L19.3 -9.2 18.7 -9.9 18.3 -10.4 16.85 -12.25 16.25 -13.05 Q18.9 -15.7 19.8 -19.1 M9.55 -21.55 Q12.3 -21.55 17.7 -19.85 L17.15 -18.35 Q16.3 -16.5 14.75 -14.95 L14.7 -14.9 14.15 -15.6 9.55 -21.55 M9.5 -9.6 L9.55 -9.3 10.15 -5.0 9.0 -4.95 7.65 -5.05 Q4.5 -5.35 2.45 -7.2 2.5 -9.2 2.9 -11.1 L3.1 -11.75 Q5.2 -9.4 8.75 -9.55 L9.5 -9.6 M40.15 10.85 Q45.5 5.55 47.5 -0.75 48.85 1.55 49.85 4.1 L49.9 4.25 Q47.9 8.95 43.95 13.05 L43.5 12.8 40.15 10.85 M3.9 -13.85 Q4.8 -15.75 6.45 -17.95 7.9 -19.85 9.4 -21.15 8.9 -17.6 9.3 -12.15 L8.45 -12.05 Q5.55 -11.85 3.9 -13.85" fill="#6c0000" fill-rule="evenodd" stroke="none"/>
    <path d="M16.25 -13.05 L16.85 -12.25 18.3 -10.4 18.7 -9.9 19.3 -9.2 15.75 -6.7 Q13.95 -5.7 12.1 -5.3 L10.15 -5.0 9.55 -9.3 9.5 -9.6 Q11.1 -9.75 12.65 -10.5 L12.95 -10.6 Q14.55 -11.45 16.0 -12.8 L16.25 -13.05 M9.55 -21.55 L14.15 -15.6 14.7 -14.9 Q13.3 -13.6 11.85 -12.9 10.6 -12.3 9.3 -12.15 8.9 -17.6 9.4 -21.15 L9.45 -21.55 9.55 -21.55 M27.8 18.15 Q34.2 16.5 39.95 11.05 L40.15 10.85 43.5 12.8 43.95 13.05 43.15 13.85 Q38.8 18.0 34.05 19.95 L31.7 19.4 27.8 18.15 M45.65 13.95 L47.4 14.85 46.95 15.35 Q43.55 18.8 39.85 20.7 L36.65 20.4 Q41.2 18.4 45.4 14.2 L45.65 13.95" fill="#820000" fill-rule="evenodd" stroke="none"/>
    <path d="M48.3 15.3 Q47.0 17.1 44.35 18.7 42.35 19.9 40.15 20.7 L39.85 20.7 Q43.55 18.8 46.95 15.35 L47.4 14.85 48.3 15.3 M14.7 -14.9 L16.25 -13.05 16.0 -12.8 Q14.55 -11.45 12.95 -10.6 L12.65 -10.5 Q11.1 -9.75 9.5 -9.6 L9.4 -10.55 9.3 -12.15 Q10.6 -12.3 11.85 -12.9 13.3 -13.6 14.7 -14.9 M10.15 -5.0 L12.1 -5.3 Q13.95 -5.7 15.75 -6.7 L19.3 -9.2 21.05 -7.05 Q29.4 3.0 33.3 6.1 36.4 8.55 40.15 10.85 L39.95 11.05 Q34.2 16.5 27.8 18.15 20.4 15.35 16.15 9.7 L15.3 8.45 Q13.6 6.0 12.4 2.95 11.45 0.6 10.8 -2.05 L10.15 -5.0 M45.65 13.95 L45.4 14.2 Q41.2 18.4 36.65 20.4 L34.05 19.95 Q38.8 18.0 43.15 13.85 L43.95 13.05 45.65 13.95" fill="#d50000" fill-rule="evenodd" stroke="none"/>
    <path d="M26.2 -25.0 L26.35 -24.95 27.1 -22.15 27.35 -20.7 27.55 -19.3 27.45 -19.05 Q27.2 -18.9 27.15 -18.9 26.7 -18.9 26.7 -19.15 L26.65 -19.9 Q26.5 -20.3 26.5 -21.0 L26.2 -23.15 25.25 -20.8 24.8 -20.8 Q24.05 -21.9 23.85 -23.2 L23.6 -21.45 23.25 -19.6 Q22.9 -19.6 22.9 -20.2 L23.05 -22.4 23.2 -23.5 Q23.2 -24.15 23.55 -24.6 L23.95 -24.6 24.5 -23.35 24.75 -22.6 25.05 -22.05 25.55 -23.55 Q25.75 -24.7 26.2 -25.0 M35.5 -20.4 L35.5 -19.5 35.6 -19.6 Q35.65 -19.9 35.85 -19.85 L36.15 -20.35 36.5 -20.95 36.65 -21.1 37.05 -21.35 37.15 -21.25 37.25 -21.0 36.7 -19.9 36.3 -19.3 36.25 -19.2 36.45 -18.4 36.8 -17.45 36.85 -16.95 37.15 -16.5 36.85 -16.2 36.15 -17.0 36.05 -17.9 35.75 -18.95 35.6 -18.9 35.5 -18.95 35.5 -18.1 35.55 -17.9 Q35.6 -16.9 35.1 -16.8 34.75 -16.75 34.75 -17.15 34.75 -17.75 34.9 -18.1 L34.9 -20.4 34.9 -21.1 Q34.85 -21.55 35.2 -21.55 L35.4 -21.0 35.5 -20.4 M37.9 -20.8 L39.0 -19.6 39.0 -19.3 38.8 -19.25 Q38.4 -19.25 38.2 -19.7 L38.05 -18.85 39.2 -18.15 39.25 -18.0 39.05 -17.7 38.4 -18.0 37.95 -18.4 37.85 -17.75 39.0 -17.35 39.15 -17.1 Q39.15 -16.85 38.8 -16.85 L37.4 -17.3 37.25 -17.75 Q37.25 -18.45 37.55 -19.3 L37.55 -20.1 Q37.55 -20.65 37.9 -20.8 M40.0 -19.85 L40.15 -19.8 40.3 -18.85 40.75 -18.0 41.5 -19.1 41.6 -19.15 Q41.95 -19.2 41.95 -18.4 L41.5 -16.05 40.75 -14.25 40.65 -14.2 40.35 -14.25 Q40.2 -14.35 40.2 -14.55 L40.95 -16.1 41.35 -17.6 41.35 -17.65 40.8 -17.45 Q40.25 -17.45 39.95 -18.3 L39.8 -19.2 40.0 -19.85 M32.8 -23.05 L33.0 -22.95 Q33.75 -20.45 33.75 -19.5 L33.65 -18.9 33.55 -18.4 33.4 -18.35 33.2 -18.45 32.6 -19.15 31.95 -19.85 31.75 -19.9 31.6 -18.9 31.4 -17.95 31.35 -17.85 31.25 -17.75 31.1 -17.85 31.0 -18.15 Q31.0 -20.2 31.4 -20.8 L31.7 -20.8 32.5 -20.05 33.2 -19.5 33.2 -19.9 32.85 -21.25 32.45 -22.55 Q32.45 -22.95 32.8 -23.05 M29.15 -22.65 L28.9 -21.75 28.75 -20.75 Q28.75 -20.0 29.35 -19.8 L29.5 -19.8 30.3 -20.7 30.6 -21.55 30.55 -21.8 29.85 -22.2 29.65 -22.55 29.15 -22.65 M29.05 -23.3 L30.05 -22.8 Q30.85 -22.55 31.1 -22.2 L31.3 -21.55 Q31.3 -20.35 29.75 -19.1 L29.05 -19.1 Q28.3 -19.6 28.15 -19.95 L28.1 -20.65 28.3 -22.15 Q28.65 -23.2 29.05 -23.3 M30.45 -16.05 L30.55 -14.5 30.4 -12.95 32.0 -12.65 32.55 -12.6 32.75 -12.25 Q32.75 -12.0 32.15 -12.0 L31.25 -12.2 30.1 -12.15 29.9 -12.2 Q29.75 -12.3 29.75 -12.6 L30.1 -14.4 30.1 -15.25 Q30.1 -16.0 30.45 -16.05 M33.45 -14.55 L33.6 -13.95 34.4 -14.0 35.35 -13.45 35.85 -13.0 35.6 -12.7 34.75 -13.1 33.65 -13.35 33.7 -12.25 34.1 -12.3 34.75 -12.05 35.3 -11.8 35.55 -11.35 35.4 -11.1 35.0 -11.1 34.9 -11.3 Q34.6 -11.3 34.2 -11.7 L33.4 -11.9 33.2 -12.0 Q32.95 -12.2 32.95 -12.55 L33.05 -13.2 32.95 -15.0 32.85 -15.0 32.75 -15.2 32.95 -15.4 33.9 -15.55 35.0 -15.05 35.85 -14.55 35.65 -14.25 35.55 -14.2 35.25 -14.25 35.15 -14.45 34.35 -14.8 33.4 -14.95 33.45 -14.55 M25.1 -17.25 Q25.95 -17.1 25.95 -16.05 L25.65 -15.25 Q25.55 -14.85 25.25 -14.8 L26.2 -13.3 26.3 -13.25 26.35 -12.9 26.2 -12.6 26.05 -12.55 25.9 -12.6 Q25.6 -12.7 25.6 -13.0 L25.45 -13.5 24.7 -14.4 24.45 -14.5 24.25 -13.85 24.0 -13.75 23.8 -13.8 Q23.65 -13.85 23.65 -14.15 L24.25 -15.95 24.65 -16.85 24.75 -17.25 24.8 -17.25 25.1 -17.25 M25.25 -16.6 L24.65 -15.15 24.6 -15.05 24.75 -15.05 25.25 -15.65 25.4 -16.1 25.25 -16.6 M27.6 -15.6 L27.35 -13.05 27.4 -12.4 Q28.1 -12.85 28.5 -14.35 L28.65 -15.3 28.6 -15.75 28.85 -16.3 29.0 -16.35 29.15 -16.3 Q29.35 -16.1 29.35 -15.35 29.35 -13.5 28.1 -11.85 L27.45 -11.7 Q26.95 -11.7 26.75 -12.1 L26.7 -12.5 27.05 -15.15 27.05 -15.8 27.2 -16.4 Q27.6 -17.15 27.6 -15.6 M42.95 -17.7 L43.95 -16.55 44.7 -15.5 44.65 -15.3 Q44.5 -15.15 44.35 -15.15 L43.65 -15.2 42.85 -15.0 43.35 -14.1 43.95 -13.25 Q43.95 -13.0 43.65 -13.0 L42.65 -14.05 42.4 -14.55 42.15 -15.0 42.35 -15.5 43.85 -15.75 Q42.6 -17.25 42.6 -17.45 42.6 -17.75 42.95 -17.7" fill="#000000" fill-rule="evenodd" stroke="none"/>
    <path d="M23.45 4.95 L24.4 4.9 Q25.7 5.0 26.7 5.45 L28.0 6.25 Q29.25 7.55 29.4 8.15 L29.7 9.05 29.9 11.05 30.55 11.2 30.65 11.4 30.55 11.6 30.35 11.7 29.95 11.65 29.95 12.1 30.05 12.15 30.9 12.35 Q31.15 12.45 31.5 12.7 L31.9 13.05 31.8 13.25 31.45 13.35 30.15 12.9 29.8 12.8 29.75 12.95 29.5 13.6 29.0 14.2 27.4 15.45 Q26.7 15.75 26.3 16.0 L26.1 16.05 26.2 16.4 26.15 16.75 26.3 17.1 26.2 17.25 26.1 17.3 25.85 17.25 25.7 16.95 25.2 16.25 24.8 16.3 24.9 16.55 25.1 17.3 25.6 18.4 25.7 18.65 25.55 18.95 25.25 18.95 24.75 18.4 24.75 18.3 24.4 17.65 24.15 16.95 23.3 16.3 Q21.1 16.15 20.4 15.5 L18.9 14.35 18.75 14.2 18.3 13.6 18.15 13.6 17.6 13.35 17.4 13.0 17.0 12.5 Q16.8 11.7 17.5 11.7 L17.55 11.7 17.5 11.55 Q17.3 10.7 17.5 10.05 L17.8 9.1 18.05 8.2 Q18.1 7.6 18.6 7.05 18.75 6.7 19.15 6.45 L20.1 5.9 Q20.15 5.75 20.4 5.7 L20.8 5.55 Q21.85 5.0 23.45 4.95 M26.35 0.75 Q26.75 0.8 26.85 1.2 L26.85 1.3 26.75 1.65 26.3 1.8 26.1 1.75 25.85 1.3 25.85 1.25 25.95 0.9 26.35 0.75 M26.75 2.55 Q27.2 2.75 27.25 2.95 L27.2 3.2 27.0 3.35 26.6 3.35 26.5 3.3 26.35 3.0 26.45 2.7 26.75 2.55 M24.0 3.2 L24.15 3.25 24.35 3.7 24.35 3.8 Q24.25 3.85 24.3 4.0 L24.05 4.2 23.5 4.3 22.8 4.15 22.65 3.85 Q22.5 3.15 24.0 3.2 M23.05 6.1 L22.15 6.3 20.05 7.3 Q19.15 7.85 19.0 8.85 L18.95 8.85 Q18.45 9.15 18.55 9.95 L18.45 11.05 18.9 12.35 19.0 12.5 19.2 13.0 19.55 13.55 Q20.8 14.9 21.9 15.25 L24.2 15.5 25.5 15.3 25.7 15.25 27.0 14.5 27.95 13.75 28.3 13.35 28.8 12.15 28.8 11.0 28.55 9.4 28.25 8.3 27.05 6.95 25.95 6.3 25.25 6.15 24.55 6.1 23.05 6.1 M21.5 9.15 L21.35 9.55 21.25 10.35 21.05 11.5 Q21.15 12.2 21.65 12.65 L22.2 13.15 22.7 13.5 23.05 13.55 23.35 13.55 23.2 13.6 23.25 13.6 24.7 13.35 25.3 13.2 25.6 13.05 26.25 12.15 Q26.6 11.1 26.55 10.3 L26.2 9.45 26.2 9.4 25.0 8.35 24.75 8.3 22.8 8.5 21.5 9.15 M22.75 7.15 L23.25 7.15 24.65 7.15 25.5 7.35 27.3 9.0 27.4 9.45 27.6 10.35 Q27.65 11.5 27.2 12.9 L27.0 13.55 26.85 13.75 26.3 14.15 25.4 14.45 25.25 14.5 24.55 14.65 23.15 14.7 22.2 14.6 21.85 14.45 21.3 14.05 20.95 13.8 20.4 13.25 19.8 12.3 19.6 11.6 19.5 10.75 20.0 9.45 Q20.2 8.7 20.8 8.15 21.45 7.5 22.75 7.15 M23.85 9.3 Q24.25 9.25 24.65 9.5 L24.9 9.7 25.3 10.7 25.15 11.6 25.1 11.7 Q24.75 12.3 24.1 12.3 22.15 12.35 22.0 11.15 L22.0 10.8 22.4 10.25 23.15 9.5 23.2 9.45 23.85 9.3 M15.2 11.3 L15.55 11.4 15.65 11.5 Q15.7 11.8 15.35 11.85 L15.05 11.75 14.95 11.6 15.2 11.3 M16.2 12.9 L16.55 12.9 17.05 13.4 16.95 13.6 16.75 13.7 16.05 13.5 15.8 13.25 15.9 13.0 16.2 12.9" fill="#3494d4" fill-rule="evenodd" stroke="none"/>
    <path d="M8.8 -8.15 L10.15 -8.0 11.7 -7.3 Q12.9 -6.9 13.6 -5.95 14.6 -5.3 14.75 -2.8 L14.5 0.1 Q15.45 0.45 15.45 1.0 L15.3 1.7 14.65 2.2 13.45 2.65 12.1 2.8 9.35 3.0 8.2 2.95 7.6 2.85 6.9 2.6 6.8 2.5 6.65 1.15 5.95 0.7 5.25 0.1 4.85 -0.4 4.6 -0.95 Q4.5 -1.0 4.35 -1.75 4.1 -2.55 4.15 -2.8 L4.1 -3.25 Q4.1 -4.55 4.65 -5.35 5.05 -6.25 5.85 -6.7 L6.05 -6.85 5.75 -7.2 5.55 -8.0 5.6 -8.2 6.05 -8.55 6.25 -8.4 6.5 -8.0 6.85 -8.75 7.5 -9.65 7.7 -9.6 7.95 -8.5 7.8 -7.9 8.0 -8.0 8.8 -8.15 M7.35 -8.8 L7.05 -7.6 7.5 -8.45 7.35 -8.8 M6.4 -7.1 L6.5 -7.2 6.05 -7.95 Q6.0 -7.65 6.25 -7.25 L6.4 -7.1 M5.7 -2.15 L5.45 -2.3 4.85 -2.7 5.15 -2.8 5.4 -2.75 5.4 -2.8 5.55 -2.9 5.9 -2.9 6.15 -3.2 7.55 -3.5 Q8.25 -3.5 9.05 -2.9 L9.2 -2.8 9.05 -3.75 Q8.9 -5.4 9.85 -6.1 10.5 -6.75 11.6 -6.35 L10.85 -6.65 9.9 -7.05 9.3 -7.2 7.65 -6.85 6.95 -6.55 6.15 -6.35 5.7 -5.95 Q4.9 -5.4 4.7 -4.3 4.45 -3.35 4.5 -2.7 L4.7 -1.8 5.0 -1.05 5.35 -0.6 5.2 -1.25 Q5.15 -1.7 5.35 -1.9 L5.35 -1.95 4.95 -2.15 4.85 -2.35 4.9 -2.45 4.9 -2.5 5.5 -2.1 5.7 -2.15 5.7 -2.1 5.9 -2.1 5.7 -2.15 M7.2 1.5 L7.25 2.2 7.8 2.35 8.75 2.3 9.65 2.25 10.05 2.2 9.95 1.5 9.95 0.55 10.05 0.6 10.1 0.55 10.65 -0.05 11.9 0.3 12.45 0.7 12.95 1.6 12.9 1.8 Q14.5 1.3 14.4 0.8 L13.9 0.65 13.6 0.1 13.65 -0.2 13.45 0.1 12.95 0.05 12.2 -0.15 12.15 -0.25 Q11.25 -0.6 11.2 -1.3 L11.15 -1.1 11.05 -1.05 10.9 -1.15 10.8 -1.3 10.6 -1.35 10.5 -1.65 10.6 -2.25 Q10.3 -2.4 10.3 -2.75 L10.45 -3.55 Q10.55 -4.3 10.75 -4.45 L10.95 -5.3 11.3 -5.95 11.1 -5.9 Q10.05 -5.95 9.7 -4.85 9.4 -4.25 9.4 -3.7 L9.75 -2.2 9.8 -2.1 9.8 -2.0 9.75 -2.0 9.55 -1.9 Q9.2 -2.0 8.55 -2.55 8.2 -3.0 7.5 -3.05 L7.2 -2.95 6.4 -2.85 6.5 -2.75 7.35 -2.5 9.4 -1.45 9.55 -1.05 9.25 -1.1 8.0 -1.75 9.0 -1.2 9.7 -0.6 9.5 -0.4 9.65 0.15 9.4 1.3 8.9 1.75 7.65 1.65 7.2 1.5 M6.3 -1.4 Q6.1 -1.55 5.65 -1.8 L5.55 -1.5 5.55 -1.05 5.6 -0.45 5.65 -0.25 6.25 0.25 6.2 -0.05 6.2 -0.5 6.3 -0.85 Q6.3 -1.15 6.6 -1.3 L6.3 -1.4 M8.45 -0.7 L8.15 -0.65 Q7.7 -0.75 7.0 -1.15 L6.8 -1.2 Q6.55 -1.0 6.6 -0.65 L6.6 -0.05 Q6.6 0.3 6.75 0.45 L7.05 0.85 7.2 0.9 7.3 0.95 Q9.0 1.35 8.95 0.1 L8.65 -0.45 8.45 -0.7 M8.0 -0.55 Q8.45 -0.5 8.55 0.2 8.55 0.85 8.0 0.75 7.6 0.45 7.4 0.5 L7.3 0.45 7.25 0.05 Q7.15 -0.3 7.35 -0.45 L8.0 -0.55 M12.2 -5.55 L12.05 -4.9 12.3 -4.9 13.2 -4.75 13.55 -4.45 12.7 -5.7 12.55 -5.45 12.3 -5.65 12.2 -5.7 12.15 -5.65 12.2 -5.55 M11.15 -3.95 L11.0 -3.45 11.3 -4.05 11.55 -5.35 11.15 -3.95 M11.6 -2.5 L11.75 -1.45 12.0 -0.95 Q12.05 -0.7 12.9 -0.55 13.35 -0.55 13.9 -2.65 L13.55 -3.55 Q12.7 -4.3 11.85 -4.2 L11.5 -2.5 11.6 -2.5 M13.2 -2.05 L13.15 -1.55 12.75 -1.05 Q11.8 -1.55 11.8 -1.95 11.7 -2.95 12.5 -3.1 13.15 -2.9 13.2 -2.05 M12.5 1.85 L12.4 1.8 12.2 1.45 12.1 1.15 11.7 0.8 Q11.7 1.4 12.05 1.9 L12.5 1.85 M11.5 0.65 L11.0 0.5 10.75 0.6 10.95 0.7 Q10.8 0.95 11.05 1.5 L11.25 2.0 11.75 1.95 Q11.45 1.5 11.45 1.05 11.35 0.65 11.5 0.65 M10.35 1.45 L10.3 1.5 10.5 2.1 10.8 2.1 10.5 0.95 Q10.35 1.1 10.35 1.45" fill="#7ab400" fill-rule="evenodd" stroke="none"/>
    <path d="M55.2 8.75 Q57.6 8.55 59.15 6.85 61.5 4.4 60.9 1.0 L57.35 -4.3 53.05 -9.95 Q50.7 -12.45 48.85 -12.85 L45.85 -12.75 Q43.6 -12.1 41.7 -9.75 39.85 -7.5 39.65 -4.95 39.5 -3.6 39.95 -1.9 40.45 -0.15 42.0 1.2 L46.9 4.8 52.5 8.45 55.2 8.75 Z" fill="none" stroke="#530000" stroke-linecap="round" stroke-linejoin="round" stroke-width="2.0"/>
    <path d="M45.15 3.55 L42.0 1.2 40.5 -0.65 Q42.35 0.7 44.75 0.3 47.25 -0.15 49.3 -2.15 51.45 -4.3 51.95 -6.9 52.4 -9.4 51.2 -11.65 L53.05 -9.95 55.0 -7.5 Q55.85 -5.55 55.45 -3.4 54.95 -0.75 52.8 1.3 50.75 3.35 48.2 3.75 L45.15 3.55" fill="#eaeaea" fill-rule="evenodd" stroke="none"/>
    <path d="M56.45 -5.55 L57.35 -4.3 58.1 -3.25 Q58.4 -1.9 58.15 -0.4 57.65 2.2 55.55 4.35 53.45 6.35 50.9 6.8 L49.9 6.9 48.75 6.1 49.75 5.95 Q52.3 5.55 54.35 3.5 56.5 1.4 57.0 -1.2 57.35 -3.45 56.45 -5.55 M59.2 -1.7 L60.4 0.15 60.3 1.4 Q59.85 4.0 57.7 6.1 55.65 8.15 53.1 8.55 L52.9 8.6 52.5 8.45 51.4 7.85 51.9 7.75 Q54.45 7.3 56.55 5.3 58.65 3.25 59.15 0.55 59.35 -0.6 59.2 -1.7" fill="#6c0000" fill-rule="evenodd" stroke="none"/>
    <path d="M45.15 3.55 L48.2 3.75 Q50.75 3.35 52.8 1.3 54.95 -0.75 55.45 -3.4 55.85 -5.55 55.0 -7.5 L56.45 -5.55 Q57.35 -3.45 57.0 -1.2 56.5 1.4 54.35 3.5 52.3 5.55 49.75 5.95 L48.75 6.1 46.9 4.8 45.15 3.55 M58.1 -3.25 L59.2 -1.7 Q59.35 -0.6 59.15 0.55 58.65 3.25 56.55 5.3 54.45 7.3 51.9 7.75 L51.4 7.85 49.9 6.9 50.9 6.8 Q53.45 6.35 55.55 4.35 57.65 2.2 58.15 -0.4 58.4 -1.9 58.1 -3.25 M60.4 0.15 L60.9 1.0 Q61.5 4.4 59.15 6.85 57.6 8.55 55.2 8.75 L52.9 8.6 53.1 8.55 Q55.65 8.15 57.7 6.1 59.85 4.0 60.3 1.4 L60.4 0.15" fill="#bf0000" fill-rule="evenodd" stroke="none"/>
    <path d="M59.2 -1.7 L60.4 0.15 60.9 1.0 Q61.35 3.4 60.25 5.35 L60.25 5.1 Q60.1 4.15 58.6 2.5 L56.5 -0.05 54.4 -2.7 52.0 -4.85 51.65 -5.1 51.7 -5.75 Q51.95 -6.8 51.85 -8.7 51.7 -10.75 50.75 -12.0 L51.2 -11.65 53.05 -9.95 55.0 -7.5 56.45 -5.55 57.35 -4.3 58.1 -3.25 59.2 -1.7" fill="#000000" fill-opacity="0.2" fill-rule="evenodd" stroke="none"/>
    <path d="M45.9 -4.5 L43.95 -3.75 45.5 -4.95 45.9 -4.5 M43.35 -7.3 L43.45 -7.2 43.2 -7.1 43.35 -7.3" fill="#ffffff" fill-rule="evenodd" stroke="none"/>
    <path d="M50.85 1.35 L52.7 3.35 56.15 7.0 57.4 8.05 57.5 8.1 55.95 8.65 54.6 7.5 51.45 5.6 45.9 1.5 43.45 -0.55 44.9 -0.7 Q46.45 -1.1 47.5 -1.6 L49.05 -0.3 50.85 1.35" fill="#ffffff" fill-opacity="0.4" fill-rule="evenodd" stroke="none"/>
    <path d="M44.75 0.3 Q42.35 0.7 40.5 -0.65 L39.95 -1.9 Q39.5 -3.6 39.65 -4.95 39.85 -7.5 41.7 -9.75 43.6 -12.1 45.85 -12.75 L48.85 -12.85 Q49.95 -12.65 51.2 -11.65 52.4 -9.4 51.95 -6.9 51.45 -4.3 49.3 -2.15 47.25 -0.15 44.75 0.3" fill="#ffffff" fill-rule="evenodd" stroke="none"/>
    <path d="M45.15 -10.0 Q46.55 -10.35 47.6 -9.5 48.65 -8.65 48.65 -7.15 48.6 -5.6 47.6 -4.35 46.55 -3.05 45.05 -2.7 43.55 -2.45 42.5 -3.3 41.45 -4.15 41.5 -5.65 41.45 -7.15 42.55 -8.4 43.65 -9.75 45.15 -10.0" fill="#676767" fill-rule="evenodd" stroke="none"/>
    <path d="M37.15 0.3 Q36.45 0.3 36.05 -0.45 35.75 -1.15 35.85 -1.95 L36.1 -3.2 Q36.3 -3.85 36.85 -4.35 37.25 -4.75 38.4 -4.7 L40.55 -5.0 Q42.2 -5.65 43.35 -6.9 L43.7 -6.25 Q42.9 -4.35 41.55 -3.35 40.95 -2.9 39.9 -2.65 39.1 -2.45 38.75 -1.9 L38.1 -0.4 Q37.75 0.3 37.15 0.3 M52.6 -12.5 Q52.45 -11.9 51.7 -11.75 L50.1 -11.35 Q49.5 -11.15 49.15 -10.35 L48.15 -8.9 Q46.9 -7.75 44.85 -7.35 L44.35 -7.85 Q45.75 -8.7 46.7 -10.15 47.2 -10.9 47.45 -12.25 47.6 -13.35 48.1 -13.7 48.65 -14.15 49.35 -14.2 L50.65 -14.25 52.05 -13.75 Q52.7 -13.2 52.6 -12.5" fill="#999999" fill-rule="evenodd" stroke="none"/>
    <path d="M37.15 0.3 Q37.75 0.3 38.1 -0.4 L38.75 -1.9 Q39.1 -2.45 39.9 -2.65 40.95 -2.9 41.55 -3.35 42.9 -4.35 43.7 -6.25 L43.35 -6.9 Q42.2 -5.65 40.55 -5.0 L38.4 -4.7 Q37.25 -4.75 36.85 -4.35 36.3 -3.85 36.1 -3.2 L35.85 -1.95 Q35.75 -1.15 36.05 -0.45 36.45 0.3 37.15 0.3 M52.6 -12.5 Q52.45 -11.9 51.7 -11.75 L50.1 -11.35 Q49.5 -11.15 49.15 -10.35 L48.15 -8.9 Q46.9 -7.75 44.85 -7.35 L44.35 -7.85 Q45.75 -8.7 46.7 -10.15 47.2 -10.9 47.45 -12.25 47.6 -13.35 48.1 -13.7 48.65 -14.15 49.35 -14.2 L50.65 -14.25 52.05 -13.75 Q52.7 -13.2 52.6 -12.5" fill="none" stroke="#303030" stroke-linecap="round" stroke-linejoin="round" stroke-width="2.0"/>
    <path d="M37.15 0.3 Q36.45 0.3 36.05 -0.45 35.75 -1.15 35.85 -1.95 L36.1 -3.2 Q36.3 -3.85 36.85 -4.35 37.25 -4.75 38.4 -4.7 L40.55 -5.0 Q42.2 -5.65 43.35 -6.9 L43.7 -6.25 Q42.9 -4.35 41.55 -3.35 40.95 -2.9 39.9 -2.65 39.1 -2.45 38.75 -1.9 L38.1 -0.4 Q37.75 0.3 37.15 0.3 M52.6 -12.5 Q52.45 -11.9 51.7 -11.75 L50.1 -11.35 Q49.5 -11.15 49.15 -10.35 L48.15 -8.9 Q46.9 -7.75 44.85 -7.35 L44.35 -7.85 Q45.75 -8.7 46.7 -10.15 47.2 -10.9 47.45 -12.25 47.6 -13.35 48.1 -13.7 48.65 -14.15 49.35 -14.2 L50.65 -14.25 52.05 -13.75 Q52.7 -13.2 52.6 -12.5" fill="#999999" fill-rule="evenodd" stroke="none"/>
    <path d="M43.6 -9.4 L45.75 -9.05 Q46.35 -8.55 46.55 -7.8 46.95 -6.8 46.15 -5.45 45.4 -4.15 44.15 -3.95 L42.6 -4.1 Q41.95 -4.45 41.4 -5.75 40.65 -7.3 41.25 -8.35 41.8 -9.35 43.6 -9.4" fill="#333333" fill-rule="evenodd" stroke="none"/>
    <path d="M43.6 -9.4 L45.75 -9.05 Q46.35 -8.55 46.55 -7.8 46.95 -6.8 46.15 -5.45 45.4 -4.15 44.15 -3.95 L42.6 -4.1 Q41.95 -4.45 41.4 -5.75 40.65 -7.3 41.25 -8.35 41.8 -9.35 43.6 -9.4 Z" fill="none" stroke="#1a1a1a" stroke-linecap="butt" stroke-linejoin="round" stroke-width="2.0"/>
    <path d="M43.75 -9.45 Q45.3 -9.5 45.85 -9.05 46.5 -8.6 46.65 -7.85 47.0 -6.75 46.25 -5.45 45.5 -4.15 44.25 -3.95 L42.7 -4.15 Q42.1 -4.5 41.45 -5.75 40.75 -7.3 41.35 -8.35 41.95 -9.4 43.75 -9.45" fill="#999999" fill-rule="evenodd" stroke="none"/>
    <path d="M43.35 -4.9 Q42.35 -5.25 41.95 -6.3 41.6 -7.25 41.85 -7.75 L42.2 -8.25 43.25 -8.4 43.25 -8.3 42.75 -8.1 42.1 -7.7 Q41.8 -7.05 42.7 -5.9 L43.35 -4.9" fill="#ffffff" fill-rule="evenodd" stroke="none"/>
  </g>
</svg>
