<?xml version="1.0" encoding="UTF-8" standalone="no"?>
<svg xmlns:xlink="http://www.w3.org/1999/xlink" height="266.6px" width="198.3px" xmlns="http://www.w3.org/2000/svg">
  <g transform="matrix(1.0, 0.0, 0.0, 1.0, 99.15, 134.8)">
    <path d="M-13.8 93.2 L-12.45 93.2 -11.55 94.1 Q-12.9 93.65 -13.8 93.2" fill="#cc0000" fill-rule="evenodd" stroke="none"/>
    <path d="M7.3 114.2 L0.7 126.1 Q12.8 129.0 20.7 119.5 L7.3 114.2" fill="#830000" fill-rule="evenodd" stroke="none"/>
    <path d="M7.3 114.2 L20.7 119.5 Q12.8 129.0 0.7 126.1 L7.3 114.2 Z" fill="none" stroke="#5d5d5d" stroke-linecap="round" stroke-linejoin="round" stroke-width="10.0"/>
    <path d="M12.1 113.1 Q12.5 114.7 11.05 116.25 9.65 117.75 7.35 118.35 L3.0 118.25 Q1.05 117.6 0.65 116.0 0.25 114.45 1.65 112.85 3.05 111.35 5.4 110.75 L9.7 110.85 Q11.7 111.55 12.1 113.1 Z" fill="none" stroke="#5d5d5d" stroke-linecap="round" stroke-linejoin="round" stroke-width="8.0"/>
    <path d="M94.15 -26.35 Q94.15 -2.8 80.5 28.3 69.7 54.05 52.75 77.15 26.85 112.65 3.8 112.65 -19.75 112.65 -48.0 79.8 -69.65 54.5 -79.1 31.4 -94.15 -2.8 -94.15 -26.35 L-94.15 -27.2 Q-93.65 -69.85 -66.85 -99.6 -38.6 -129.8 0.0 -129.8 39.1 -129.8 66.85 -99.6 94.15 -69.85 94.15 -27.2 L94.15 -26.35" fill="#cc0000" fill-rule="evenodd" stroke="none"/>
    <path d="M94.15 -26.35 Q94.15 -2.8 80.5 28.3 69.7 54.05 52.75 77.15 26.85 112.65 3.8 112.65 -19.75 112.65 -48.0 79.8 -69.65 54.5 -79.1 31.4 -94.15 -2.8 -94.15 -26.35 L-94.15 -27.2 Q-93.65 -69.85 -66.85 -99.6 -38.6 -129.8 0.0 -129.8 39.1 -129.8 66.85 -99.6 94.15 -69.85 94.15 -27.2 L94.15 -26.35 Z" fill="none" stroke="#5d5d5d" stroke-linecap="round" stroke-linejoin="round" stroke-width="10.0"/>
    <path d="M7.3 114.2 L0.7 126.1 Q12.8 129.0 20.7 119.5 L7.3 114.2" fill="#cc0000" fill-rule="evenodd" stroke="none"/>
    <path d="M7.3 114.2 L0.7 126.1 Q12.8 129.0 20.7 119.5 L7.3 114.2" fill="#979797" fill-opacity="0.9882353" fill-rule="evenodd" stroke="none"/>
    <path d="M94.15 -26.35 Q94.15 -2.8 80.5 28.3 69.7 54.05 52.75 77.15 26.85 112.65 3.8 112.65 -19.75 112.65 -48.0 79.8 -69.65 54.5 -79.1 31.4 -94.15 -2.8 -94.15 -26.35 L-94.15 -27.2 Q-93.65 -69.85 -66.85 -99.6 -38.6 -129.8 0.0 -129.8 39.1 -129.8 66.85 -99.6 94.15 -69.85 94.15 -27.2 L94.15 -26.35" fill="#d9d9d9" fill-rule="evenodd" stroke="none"/>
    <path d="M-8.9 -40.1 Q41.5 -55.6 81.85 -78.65 90.8 -62.1 93.25 -42.4 39.7 -33.5 -8.9 -40.1 M56.7 -6.6 Q-20.65 13.05 -88.65 6.05 -94.15 -12.1 -94.15 -26.35 L-94.15 -27.2 -94.05 -30.7 Q-25.8 -11.05 56.7 -6.6 M79.9 23.3 Q78.5 25.1 71.45 26.9 55.85 30.8 24.0 32.1 -26.95 34.1 -57.35 29.45 L-34.0 23.5 Q-5.0 17.55 21.9 16.85 48.8 16.05 67.2 19.65 76.4 21.5 79.9 23.3 M19.4 -79.65 Q-43.8 -64.25 -87.65 -65.0 -82.65 -79.0 -73.75 -91.15 -50.7 -80.25 19.4 -79.65 M71.2 49.35 L70.3 49.6 Q65.7 58.05 60.35 66.25 29.75 67.8 1.65 61.35 36.85 57.75 71.2 49.35" fill="#3f3f3f" fill-rule="evenodd" stroke="none"/>
    <path d="M52.75 77.15 Q26.85 112.65 3.8 112.65 -19.75 112.65 -48.0 79.8 -67.3 57.2 -76.9 36.4 -69.55 44.1 -60.6 52.05 -23.3 84.9 7.75 84.9 36.15 84.9 67.8 54.05 61.0 65.9 52.75 77.15" fill="#000000" fill-opacity="0.3019608" fill-rule="evenodd" stroke="none"/>
    <path d="M12.1 113.1 Q12.5 114.7 11.05 116.25 9.65 117.75 7.35 118.35 L3.0 118.25 Q1.05 117.6 0.65 116.0 0.25 114.45 1.65 112.85 3.05 111.35 5.4 110.75 L9.7 110.85 Q11.7 111.55 12.1 113.1" fill="#979797" fill-rule="evenodd" stroke="none"/>
    <path d="M30.1 85.2 Q8.15 98.1 -25.85 101.05 -36.2 93.4 -47.2 80.7 L-48.5 80.45 Q-8.55 87.8 30.1 85.2" fill="#191919" fill-rule="evenodd" stroke="none"/>
    <path d="M75.25 -79.3 Q66.1 -69.0 50.85 -69.6 35.55 -70.25 23.05 -81.35 10.5 -92.45 8.0 -107.5 6.0 -119.9 11.8 -129.05 43.4 -125.15 66.85 -99.6 73.6 -92.25 78.7 -84.05 77.25 -81.55 75.25 -79.3 M84.35 -45.1 Q79.05 -47.25 76.05 -52.8 73.1 -58.35 74.15 -64.0 75.25 -69.65 79.8 -72.1 82.05 -73.3 84.5 -73.35 90.7 -60.0 92.95 -44.7 88.9 -43.15 84.35 -45.1" fill="#ffffff" fill-opacity="0.5019608" fill-rule="evenodd" stroke="none"/>
  </g>
</svg>
