<?xml version="1.0" encoding="UTF-8" standalone="no"?>
<svg xmlns:xlink="http://www.w3.org/1999/xlink" height="52.75px" width="170.55px" xmlns="http://www.w3.org/2000/svg">
  <g transform="matrix(1.0, 0.0, 0.0, 1.0, 90.95, 34.85)">
    <path d="M53.2 -24.85 Q60.0 -24.85 64.8 -20.05 69.6 -15.25 69.6 -8.45 69.6 -1.7 64.8 3.1 60.0 7.9 53.2 7.9 46.45 7.9 41.65 3.1 36.85 -1.7 36.85 -8.5 36.85 -15.25 41.65 -20.05 46.45 -24.85 53.2 -24.85 M-64.6 -24.85 Q-57.8 -24.85 -53.0 -20.05 -48.2 -15.25 -48.2 -8.45 -48.2 -1.7 -53.0 3.1 -57.8 7.9 -64.6 7.9 -71.35 7.9 -76.15 3.1 -80.95 -1.7 -80.95 -8.5 -80.95 -15.25 -76.15 -20.05 -71.35 -24.85 -64.6 -24.85" fill="#ffffff" fill-rule="evenodd" stroke="none"/>
    <path d="M53.2 -24.85 Q60.0 -24.85 64.8 -20.05 69.6 -15.25 69.6 -8.45 69.6 -1.7 64.8 3.1 60.0 7.9 53.2 7.9 46.45 7.9 41.65 3.1 36.85 -1.7 36.85 -8.5 36.85 -15.25 41.65 -20.05 46.45 -24.85 53.2 -24.85 M-64.6 -24.85 Q-57.8 -24.85 -53.0 -20.05 -48.2 -15.25 -48.2 -8.45 -48.2 -1.7 -53.0 3.1 -57.8 7.9 -64.6 7.9 -71.35 7.9 -76.15 3.1 -80.95 -1.7 -80.95 -8.5 -80.95 -15.25 -76.15 -20.05 -71.35 -24.85 -64.6 -24.85" fill="none" stroke="#f73600" stroke-linecap="round" stroke-linejoin="round" stroke-width="20.0"/>
    <path d="M53.2 -24.85 Q60.0 -24.85 64.8 -20.05 69.6 -15.25 69.6 -8.45 69.6 -1.7 64.8 3.1 60.0 7.9 53.2 7.9 46.45 7.9 41.65 3.1 36.85 -1.7 36.85 -8.5 36.85 -15.25 41.65 -20.05 46.45 -24.85 53.2 -24.85 M-64.6 -24.85 Q-57.8 -24.85 -53.0 -20.05 -48.2 -15.25 -48.2 -8.45 -48.2 -1.7 -53.0 3.1 -57.8 7.9 -64.6 7.9 -71.35 7.9 -76.15 3.1 -80.95 -1.7 -80.95 -8.5 -80.95 -15.25 -76.15 -20.05 -71.35 -24.85 -64.6 -24.85" fill="#ffffff" fill-rule="evenodd" stroke="none"/>
  </g>
</svg>
