<?xml version="1.0" encoding="UTF-8" standalone="no"?>
<svg xmlns:xlink="http://www.w3.org/1999/xlink" height="164.45px" width="459.9px" xmlns="http://www.w3.org/2000/svg">
  <g transform="matrix(1.0, 0.0, 0.0, 1.0, -145.25, -214.1)">
    <path d="M145.5 284.9 L145.25 284.85 145.35 284.85 145.5 284.9 145.6 284.9 145.7 284.95 145.5 284.9" fill="#875621" fill-opacity="0.7490196" fill-rule="evenodd" stroke="none"/>
    <path d="M467.55 220.65 L467.55 220.1 493.65 220.1 493.65 220.9 505.05 220.9 510.45 220.7 515.25 220.5 545.9 220.4 549.1 220.2 552.5 220.15 572.05 220.15 572.05 220.9 577.7 220.9 581.55 220.65 593.6 220.45 593.6 221.35 595.8 221.65 598.2 221.65 598.2 226.85 597.1 226.8 Q597.35 227.9 596.95 230.65 596.85 232.75 598.2 234.2 L598.25 237.55 598.2 261.65 Q597.55 263.6 597.55 264.85 L598.2 268.0 598.2 268.05 597.1 268.05 597.1 285.2 597.55 285.2 Q597.55 288.5 597.7 289.7 L598.2 292.1 598.2 299.9 Q597.5 301.85 596.7 306.45 595.95 311.5 595.95 314.2 595.95 315.4 597.05 318.8 L598.2 323.35 598.2 335.95 597.8 338.55 596.45 345.25 596.45 350.95 598.2 350.95 598.2 357.5 Q597.3 359.5 596.4 363.65 595.35 368.9 595.35 371.85 L595.45 372.95 531.8 372.95 531.8 372.3 514.85 372.95 483.5 372.95 483.5 372.3 477.2 372.25 477.15 372.8 475.55 372.75 475.6 372.95 441.85 372.95 440.95 372.55 440.95 369.9 440.3 369.9 440.3 368.9 434.1 368.85 433.7 369.1 Q433.2 369.3 433.0 369.5 L433.0 371.05 432.4 371.05 432.05 371.5 431.25 372.0 431.25 372.3 421.95 372.4 419.85 372.75 419.85 372.95 364.5 372.95 364.25 372.9 363.7 372.6 359.1 372.45 359.1 370.65 352.9 370.6 353.0 371.8 349.55 371.8 346.95 372.95 199.55 372.95 199.05 372.55 199.05 370.85 Q197.3 369.55 196.6 367.7 L196.6 356.6 197.3 356.6 197.3 336.9 196.6 334.9 196.6 325.15 197.3 319.65 197.3 310.85 197.85 310.85 197.85 304.1 Q197.3 303.4 197.3 301.9 L196.6 301.9 196.6 300.8 198.45 300.8 198.45 298.1 Q197.85 297.1 197.55 295.45 L197.3 293.45 197.45 291.65 197.85 289.3 197.85 271.15 196.6 271.15 196.6 270.05 197.85 270.1 197.85 258.9 196.6 254.75 196.6 247.75 197.3 247.75 Q197.3 246.85 197.85 246.1 L197.85 237.3 Q197.9 235.95 198.45 235.35 L198.45 226.8 Q198.0 225.2 197.9 222.15 199.25 220.9 200.65 220.1 L205.2 220.1 205.2 220.6 221.75 220.65 228.55 220.35 232.0 220.1 236.0 220.1 236.0 220.6 245.65 220.6 261.45 220.8 272.3 221.0 284.25 221.2 290.75 220.55 297.8 220.1 427.2 220.1 427.2 220.9 467.55 220.65" fill="#000000" fill-opacity="0.3019608" fill-rule="evenodd" stroke="none"/>
    <path d="M469.3 219.65 L469.3 219.0 495.5 219.0 495.5 219.8 506.85 219.9 512.25 219.7 517.1 219.45 547.7 219.4 550.95 219.2 554.35 219.1 573.85 219.1 573.85 219.8 579.5 219.9 583.35 219.65 Q587.75 219.45 595.45 219.4 L595.45 220.35 597.55 220.6 600.05 220.6 600.05 225.8 598.95 225.75 Q599.15 226.9 598.75 229.55 598.7 231.75 600.05 233.2 L600.05 236.5 600.05 260.6 Q599.45 262.55 599.45 263.8 L600.05 267.0 600.05 267.05 598.95 267.05 598.95 284.15 599.45 284.15 599.55 288.65 Q599.65 290.0 600.05 291.1 L600.05 298.8 Q599.4 300.75 598.55 305.45 597.75 310.45 597.75 313.1 597.75 314.45 598.9 317.75 599.9 320.85 600.05 322.3 L600.05 334.95 599.6 337.5 598.35 344.2 598.35 349.95 600.05 349.95 600.05 356.45 Q599.1 358.5 598.25 362.65 597.15 367.9 597.15 370.8 L597.25 372.0 533.6 372.0 533.6 371.3 516.65 372.0 485.35 372.0 485.35 371.3 479.05 371.2 479.0 371.75 477.45 371.75 477.45 372.0 443.65 372.0 442.7 371.5 442.7 368.85 442.15 368.85 442.15 367.9 435.95 367.85 435.5 368.05 Q435.05 368.25 434.85 368.4 L434.85 370.0 434.25 369.95 433.85 370.5 433.1 371.0 433.1 371.3 Q424.75 371.2 423.8 371.4 423.95 371.65 421.75 371.75 L421.75 372.0 366.3 372.0 366.05 371.85 Q365.5 371.65 365.5 371.5 L360.95 371.4 360.95 369.6 354.75 369.6 354.85 370.8 351.35 370.8 Q350.5 371.15 348.85 372.0 L201.4 372.0 200.8 371.5 200.8 369.85 Q199.2 368.45 198.45 366.7 L198.45 355.55 199.2 355.55 199.2 335.8 Q198.7 335.0 198.45 333.85 L198.45 324.1 Q198.75 320.65 199.2 318.6 L199.2 309.85 199.65 309.85 199.65 303.1 Q199.2 302.35 199.2 300.9 L198.45 300.9 198.45 299.75 200.3 299.75 200.3 297.05 Q199.65 296.05 199.35 294.4 L199.2 292.45 199.25 290.6 199.65 288.25 199.65 270.1 198.45 270.1 198.45 269.05 199.65 269.05 199.65 257.85 198.45 253.75 198.45 246.75 199.2 246.75 Q199.2 245.8 199.65 245.1 L199.65 236.25 Q199.7 234.95 200.3 234.35 L200.3 225.75 Q199.85 224.15 199.7 221.15 201.1 219.9 202.45 219.0 L207.05 219.0 207.05 219.6 223.65 219.65 230.35 219.35 233.8 219.0 237.85 219.0 237.85 219.6 247.45 219.6 263.3 219.7 274.15 219.95 286.1 220.15 292.6 219.55 299.6 219.0 429.05 219.0 429.05 219.8 441.55 219.9 443.3 219.7 469.3 219.65" fill="#ce9d46" fill-rule="evenodd" stroke="none"/>
    <path d="M468.7 222.05 Q467.7 221.5 467.35 219.9 L466.6 217.3 466.8 217.0 Q467.35 217.2 468.3 219.05 469.2 220.85 469.2 221.5 L469.15 222.1 468.7 222.05 M406.5 221.1 Q406.5 220.4 407.8 217.45 409.1 214.55 409.6 214.3 L410.2 214.55 410.4 215.6 Q410.4 216.95 407.45 222.45 L406.65 222.45 Q406.5 222.15 406.5 221.1 M403.85 222.55 L403.85 222.45 404.7 222.45 404.65 222.55 403.85 222.55 M332.45 222.4 Q332.1 222.3 331.2 219.65 330.15 216.95 330.15 216.4 330.15 214.55 331.3 214.2 L333.3 221.5 332.45 222.4 M340.4 217.0 Q340.4 216.35 340.75 216.25 L341.05 216.25 Q342.3 217.15 342.6 218.65 L343.25 221.25 342.45 222.0 Q341.55 221.05 340.9 219.4 340.4 218.1 340.4 217.0 M324.65 376.65 L323.65 377.0 322.75 376.9 322.7 376.7 322.0 373.15 321.6 370.3 Q321.6 369.6 322.0 369.6 L322.5 369.55 323.6 369.55 324.05 372.65 324.95 376.05 324.65 376.65 M469.2 376.05 L469.1 376.1 Q469.6 376.35 468.5 376.35 467.3 376.35 467.05 375.3 L467.05 374.1 Q466.75 373.1 466.8 372.0 466.85 369.95 468.25 369.3 L469.05 372.5 469.4 375.25 Q469.4 375.95 469.2 376.05 M580.45 222.3 L579.8 222.4 579.35 221.45 579.3 220.15 Q579.3 219.4 580.0 218.2 580.7 217.1 581.45 216.5 L582.15 216.75 Q582.45 216.9 582.45 217.6 582.45 218.5 581.65 220.0 L580.45 222.3 M602.6 233.15 L602.85 233.85 601.6 234.9 598.2 235.35 594.55 234.9 594.45 234.5 599.65 233.65 602.6 233.15 M601.0 239.2 L598.1 238.85 595.8 238.35 598.95 237.8 Q600.9 237.55 602.15 237.8 L602.35 238.5 602.0 239.0 601.0 239.2 M596.85 271.4 Q596.85 268.75 604.1 272.3 L603.95 272.9 602.9 273.2 600.2 272.65 597.1 271.95 Q596.85 272.55 596.85 271.4 M526.8 222.0 Q526.25 221.5 525.8 220.35 525.3 219.15 525.3 218.2 L525.4 217.3 525.45 217.2 525.9 217.2 526.8 219.05 527.5 220.85 Q527.5 222.05 527.3 221.4 L526.8 222.0 M511.6 222.4 L511.6 222.45 509.75 222.45 509.0 220.75 Q508.25 218.3 508.25 217.9 508.25 217.15 508.7 216.95 L509.3 216.85 Q511.0 218.25 511.6 222.4 M508.85 222.45 L508.65 223.25 507.7 223.5 Q507.4 223.5 506.95 222.45 L508.85 222.45 M514.6 374.85 L513.5 376.9 513.05 376.0 512.95 374.8 Q512.95 373.7 513.25 372.25 513.7 370.55 514.35 369.95 515.35 370.7 515.35 372.55 L514.6 374.85 M546.4 369.35 L546.45 370.05 546.15 372.05 545.7 374.1 545.45 375.35 545.1 376.5 544.1 376.7 543.25 376.5 Q543.0 377.0 543.0 375.9 543.0 374.55 543.7 372.55 544.5 369.9 546.0 369.25 L546.4 369.35 M602.35 324.0 L601.55 324.65 594.3 324.65 Q594.15 324.6 594.15 323.95 L594.25 323.2 594.35 323.25 599.55 323.15 600.55 323.15 602.15 323.3 602.35 324.0 M600.9 328.5 Q602.35 328.5 604.95 329.5 L605.15 330.25 Q604.65 331.1 603.1 331.1 L599.9 330.9 597.25 330.9 Q594.8 330.5 594.55 330.15 595.5 329.5 596.7 329.3 L597.45 329.2 Q599.15 328.4 600.9 328.5 M600.1 359.6 Q601.5 360.15 602.4 361.4 602.35 362.4 601.55 362.7 L599.15 361.4 597.35 360.3 Q598.35 358.9 600.1 359.6 M579.7 372.45 Q580.05 369.6 581.25 369.0 581.7 369.65 581.95 371.8 L581.95 377.35 581.05 378.15 Q579.95 377.75 579.7 376.7 L579.6 375.35 Q579.5 373.8 579.7 372.45 M264.35 215.6 L265.05 215.6 Q266.15 216.5 266.05 218.9 266.0 221.55 266.4 222.2 L265.9 222.45 264.95 222.45 Q264.2 219.0 264.2 216.75 L264.2 215.9 264.35 215.6 M247.65 221.75 L247.6 220.85 247.9 219.0 248.2 217.1 248.95 217.1 249.1 217.45 249.15 218.45 248.7 222.0 247.85 222.05 247.65 221.75 M262.2 222.45 L263.1 222.45 262.25 222.7 262.2 222.45 M217.25 214.1 Q217.75 214.7 218.05 216.0 L218.3 217.75 Q218.3 220.45 217.8 223.0 L217.4 223.25 216.7 223.55 215.85 222.85 215.65 221.8 Q215.65 215.3 217.25 214.1 M203.45 234.7 L202.85 235.2 Q202.25 235.6 201.45 235.6 L198.5 235.35 196.0 234.9 Q198.65 232.65 203.1 233.9 L203.45 234.7 M202.0 262.15 L202.1 262.95 Q202.1 263.65 199.7 264.2 L195.05 264.8 194.25 264.65 194.25 264.55 Q194.0 265.1 194.0 263.95 194.0 263.1 196.1 262.55 L201.9 262.2 202.0 262.15 M195.75 275.15 Q195.5 275.1 195.5 274.3 195.5 273.45 197.4 273.05 L200.5 272.95 200.75 273.75 200.5 274.65 198.7 274.8 196.75 275.2 195.75 275.15 M191.55 310.5 Q190.95 310.3 190.6 309.9 191.1 309.05 195.0 306.95 199.25 304.55 200.85 305.0 L201.0 305.0 201.1 305.75 Q201.1 305.95 191.55 310.5 M195.5 343.05 Q199.3 341.4 200.6 341.55 L200.75 341.7 200.8 342.35 Q200.8 344.2 192.7 346.05 L191.9 345.9 191.9 345.8 Q191.65 346.35 191.65 345.25 191.65 344.75 195.5 343.05 M236.35 369.3 Q238.15 370.2 239.0 373.8 L239.4 376.05 239.5 377.3 239.4 378.1 239.35 378.3 238.65 378.55 Q237.5 377.2 236.95 374.45 L236.1 369.65 236.35 369.3 M208.1 369.6 Q208.1 370.9 207.2 373.6 L206.05 377.45 Q205.8 377.7 205.35 377.8 L204.45 377.55 204.35 376.65 Q204.35 375.75 205.4 372.4 206.55 368.75 207.2 368.15 L207.95 368.45 208.1 369.6 M277.1 377.45 Q276.8 377.95 276.25 378.1 L275.65 377.85 Q275.45 377.65 275.45 376.85 L275.3 371.8 Q275.35 368.85 276.55 368.0 L276.9 372.7 277.1 377.45 M283.2 369.45 L283.95 369.05 Q285.0 369.95 285.4 372.25 286.05 374.95 286.6 375.95 L286.4 376.55 285.3 376.85 Q284.4 376.85 282.95 370.5 282.95 369.65 283.2 369.45 M299.8 370.6 L299.65 373.7 Q299.3 375.4 298.1 376.35 L297.65 376.05 Q297.45 375.9 297.45 375.15 297.45 373.7 298.1 370.9 298.9 368.2 299.4 368.0 299.8 368.85 299.8 370.6" fill="#a88335" fill-rule="evenodd" stroke="none"/>
    <path d="M572.35 300.8 L234.8 301.9 232.15 246.75 574.65 249.3 572.35 300.8" fill="#b68832" fill-rule="evenodd" stroke="none"/>
  </g>
</svg>
