<?xml version="1.0" encoding="UTF-8" standalone="no"?>
<svg xmlns:xlink="http://www.w3.org/1999/xlink" height="94.4px" width="454.85px" xmlns="http://www.w3.org/2000/svg">
  <g transform="matrix(1.0, 0.0, 0.0, 1.0, -215.6, -142.55)">
    <path d="M661.35 151.0 Q664.9 154.85 668.85 155.6 L668.85 187.15 668.75 187.25 Q667.0 188.95 667.0 192.0 667.0 195.15 668.3 199.35 668.4 200.7 668.85 201.85 L668.85 211.95 Q667.65 214.25 667.65 219.05 L667.65 220.65 666.6 226.55 Q665.2 225.8 663.35 225.95 660.9 226.15 659.05 228.0 657.9 229.3 657.45 231.15 654.4 230.35 651.25 230.05 644.2 229.3 639.8 230.8 636.7 231.55 635.5 233.4 L571.35 233.4 Q570.05 232.3 568.05 231.45 L502.1 231.25 480.45 233.4 444.55 233.4 439.1 232.65 424.5 230.85 Q415.05 231.55 409.3 230.9 406.15 231.15 404.45 233.4 L367.1 233.4 Q366.35 232.35 365.2 231.6 363.7 230.85 361.2 230.5 L348.2 231.6 340.15 231.55 338.5 231.5 Q333.0 232.3 330.55 233.4 L293.45 233.4 Q292.15 231.85 289.8 231.1 L278.7 230.9 274.45 230.8 257.35 233.4 257.05 233.4 249.35 232.8 241.35 232.3 Q237.25 232.3 235.05 233.4 L225.35 233.4 Q225.05 229.0 223.35 225.2 L221.7 222.15 221.7 218.55 Q222.45 217.25 222.7 215.3 222.9 214.75 222.9 208.65 222.9 204.25 222.45 200.25 221.8 197.9 221.7 195.6 L221.7 179.9 Q222.45 178.4 222.45 176.75 222.45 172.7 221.7 163.85 L221.7 160.75 221.7 159.3 221.8 159.05 221.7 158.6 Q221.7 156.55 222.9 155.5 223.2 155.15 223.8 154.85 L225.2 152.65 226.55 150.0 230.2 149.75 230.5 149.75 232.5 148.6 238.0 148.6 245.3 148.25 272.4 148.05 Q281.45 148.05 281.45 147.85 L355.85 147.85 Q358.3 147.85 359.25 148.45 L359.4 148.6 415.95 148.6 Q416.05 149.05 416.5 149.35 L416.85 149.7 448.4 149.7 Q458.6 149.8 462.55 150.8 L463.9 150.8 464.4 150.0 Q467.05 150.8 471.1 150.8 478.75 150.8 487.3 148.6 L535.65 148.6 540.7 150.05 Q543.5 149.9 548.9 150.1 L558.6 150.1 560.5 149.9 571.1 149.7 571.65 149.5 587.9 149.5 Q588.55 149.65 588.65 149.9 L589.45 149.7 603.65 149.5 Q604.55 149.15 605.45 148.6 L659.45 148.6 Q659.95 149.8 661.35 151.0" fill="#000000" fill-opacity="0.4" fill-rule="evenodd" stroke="none"/>
    <path d="M660.8 148.9 Q664.4 152.7 668.4 153.4 L668.4 185.0 Q666.65 186.65 666.65 189.85 666.65 192.85 667.75 197.0 L668.4 199.55 668.4 209.55 Q667.0 211.85 667.0 216.6 L667.15 218.15 666.05 224.1 Q664.7 223.35 662.95 223.55 660.4 223.65 658.65 225.55 657.45 226.85 656.9 228.75 L650.75 227.6 Q643.95 226.85 639.45 228.35 636.3 229.15 635.15 230.95 L571.4 230.95 Q570.0 229.9 568.2 228.9 L502.55 228.8 481.05 230.95 445.3 230.95 439.95 230.25 425.45 228.45 Q415.95 229.15 410.2 228.5 407.0 228.75 405.3 230.95 L368.25 230.95 366.25 229.15 Q364.85 228.45 362.55 228.0 L349.4 229.15 341.5 229.15 339.85 229.1 Q334.5 229.9 332.0 230.95 L294.95 230.95 Q293.6 229.45 291.3 228.55 L280.45 228.5 276.15 228.35 259.25 230.95 258.95 230.95 251.0 230.35 243.2 229.9 Q239.2 229.9 236.95 230.95 L227.4 230.95 Q226.95 226.5 225.35 222.85 L223.9 219.75 223.9 216.2 224.8 212.95 224.95 206.25 Q224.95 201.85 224.35 197.95 L223.9 193.35 223.9 177.65 224.35 174.5 223.9 161.6 223.9 158.6 223.9 157.15 224.0 156.95 223.9 156.4 Q223.9 154.45 224.95 153.3 L225.7 152.7 227.1 150.5 228.5 147.9 232.2 147.65 232.35 147.65 234.3 146.55 239.85 146.55 247.3 146.15 274.1 145.9 283.2 145.8 357.25 145.8 Q359.4 145.8 360.35 146.4 L360.75 146.55 416.8 146.55 417.25 147.3 Q417.55 147.35 417.7 147.6 L449.15 147.6 463.3 148.6 464.45 148.6 465.1 147.9 471.8 148.55 Q479.35 148.55 487.8 146.55 L535.8 146.55 540.95 148.05 Q543.7 147.75 549.0 148.15 L558.85 148.15 560.5 147.75 571.0 147.6 571.7 147.35 587.95 147.35 Q588.25 147.4 588.6 147.75 L589.35 147.6 603.55 147.35 Q604.5 147.05 605.25 146.55 L658.9 146.55 660.8 148.9" fill="#3cadc6" fill-rule="evenodd" stroke="none"/>
    <path d="M662.25 160.75 L662.15 160.25 Q662.5 159.05 665.3 157.9 668.05 156.9 670.0 157.3 L670.15 157.5 670.25 158.2 Q670.25 158.6 663.6 161.4 L662.55 161.15 662.25 160.75 M669.45 215.3 L669.55 216.0 Q669.55 216.8 669.25 216.9 L668.05 217.05 664.05 216.95 663.35 216.85 Q663.15 216.8 663.15 216.05 L663.2 215.55 663.45 215.3 669.35 215.4 669.45 215.3 M670.45 202.4 Q670.45 203.0 669.9 203.3 669.1 203.85 666.3 203.85 L664.4 203.6 Q663.35 203.45 663.15 203.15 664.25 201.95 666.25 201.65 L670.25 201.85 670.35 201.65 670.45 202.4 M663.05 230.5 Q662.8 230.8 662.0 230.8 660.7 230.8 658.7 228.0 656.85 225.55 656.85 225.15 656.85 224.45 656.95 224.55 L657.1 224.7 Q657.9 224.3 660.5 226.65 663.1 228.9 663.35 229.95 L663.05 230.5 M510.25 148.3 Q509.5 150.65 508.75 151.15 L507.9 151.1 Q507.65 151.1 507.65 150.4 507.45 148.8 507.8 147.4 508.35 144.6 510.65 144.45 L510.75 144.9 510.9 145.75 510.25 148.3 M643.75 144.15 L644.65 145.35 644.9 146.75 Q644.9 148.55 643.55 149.65 642.9 149.5 642.65 149.2 642.35 148.85 642.35 148.15 642.35 147.45 642.85 145.95 L643.75 144.15 M395.6 147.1 Q395.4 147.85 394.1 148.15 392.9 147.1 392.9 146.05 L393.25 143.05 Q394.95 142.55 395.15 144.25 L395.6 147.1 M453.85 144.05 Q454.7 144.75 454.95 145.85 L455.0 147.7 454.95 149.95 453.85 150.2 Q453.0 149.8 452.8 148.95 L452.75 147.7 452.8 146.05 Q452.95 144.65 453.85 144.05 M457.4 234.3 L457.05 234.9 Q456.65 235.45 456.0 235.45 L454.9 235.35 454.65 235.2 454.1 232.05 453.7 229.45 Q453.7 227.85 454.8 227.6 455.55 228.55 456.35 230.9 L457.4 234.3 M471.55 231.1 L471.55 227.55 471.75 226.75 Q474.0 226.7 474.7 229.3 L474.95 232.2 Q474.95 233.25 474.75 233.0 L474.6 233.2 473.65 233.35 Q471.7 233.35 471.55 231.1 M409.5 236.7 L408.55 236.95 Q407.65 236.55 407.5 235.7 407.35 235.4 407.35 234.3 407.35 232.6 407.5 232.2 407.65 231.45 408.9 229.65 410.05 230.4 410.05 231.85 L409.5 236.7 M373.4 232.75 L373.25 233.35 372.3 233.5 371.35 233.4 371.2 233.35 371.65 226.55 372.3 226.55 372.85 229.5 373.4 232.75 M624.9 229.05 Q625.8 230.3 626.05 232.65 L626.05 234.8 624.9 235.35 624.05 234.1 623.85 233.4 Q623.85 230.25 624.9 229.05 M231.65 143.95 Q231.65 141.35 233.65 143.55 235.75 145.75 235.75 147.45 L235.7 148.15 235.4 148.45 234.25 148.6 Q233.4 148.6 232.4 146.35 L231.65 143.95 M227.15 166.9 Q227.6 167.0 227.6 167.7 227.6 168.35 227.15 168.6 L226.45 168.8 215.95 168.6 215.8 168.5 Q215.6 168.4 215.6 167.75 215.6 167.15 216.95 167.0 L226.45 166.7 227.15 166.9 M218.15 196.15 L217.9 195.0 226.5 194.15 226.7 194.3 226.8 195.05 Q226.8 195.75 224.7 196.25 L221.65 196.8 Q218.7 196.8 218.15 196.15 M243.35 231.45 Q243.0 229.45 243.0 228.55 L243.0 227.85 243.05 227.85 Q245.8 227.6 246.15 229.7 246.3 230.9 245.95 233.65 L244.85 234.55 Q244.0 234.15 243.35 231.45 M227.4 224.3 L227.5 224.1 227.6 224.7 Q227.6 225.8 223.25 226.7 221.95 226.7 221.95 225.25 221.95 224.15 223.7 223.7 225.5 223.15 227.4 224.3" fill="#226573" fill-rule="evenodd" stroke="none"/>
  </g>
</svg>
