<?xml version="1.0" encoding="UTF-8" standalone="no"?>
<svg xmlns:xlink="http://www.w3.org/1999/xlink" height="249.95px" width="423.7px" xmlns="http://www.w3.org/2000/svg">
  <g transform="matrix(1.0, 0.0, 0.0, 1.0, 211.85, 125.0)">
    <path d="M128.0 -83.15 Q204.8 -48.65 205.45 -44.7 L211.85 115.7 85.85 118.5 94.55 62.05 Q49.1 55.25 4.05 57.25 -40.85 59.1 -85.9 69.7 L-74.55 124.9 Q-107.65 125.05 -141.35 124.45 -208.8 123.25 -211.75 119.7 -212.8 117.5 -203.75 45.8 -194.5 -27.6 -190.55 -34.3 -186.6 -41.15 -130.2 -76.0 -75.2 -109.95 -62.0 -114.8 -40.1 -123.2 -11.15 -124.7 16.55 -126.25 39.45 -120.3 52.55 -117.0 128.0 -83.15" fill="#7cb421" fill-rule="evenodd" stroke="none"/>
    <path d="M152.5 56.4 Q192.5 44.0 208.45 29.6 L211.85 115.7 85.85 118.5 94.55 62.05 Q49.1 55.25 4.05 57.25 -40.85 59.1 -85.9 69.7 L-74.55 124.9 Q-107.65 125.05 -141.35 124.45 -208.8 123.25 -211.75 119.7 -212.8 117.5 -203.75 45.8 L-203.15 41.3 Q-187.45 50.1 -169.6 58.55 -118.75 82.55 -96.6 77.3 -97.0 69.8 -93.7 62.9 -89.4 54.05 -58.85 47.35 -28.55 40.75 8.25 40.5 39.45 40.25 69.15 45.2 97.5 49.95 101.45 55.3 104.95 59.95 104.8 66.55 107.1 67.35 120.85 64.6 136.05 61.5 152.5 56.4 M-100.95 14.4 Q-100.8 19.85 -101.15 23.3 L-101.25 13.35 -101.1 8.95 -100.95 14.4" fill="#5a6b00" fill-opacity="0.3019608" fill-rule="evenodd" stroke="none"/>
  </g>
</svg>
