<?xml version="1.0" encoding="UTF-8" standalone="no"?>
<svg xmlns:xlink="http://www.w3.org/1999/xlink" height="63.6px" width="27.75px" xmlns="http://www.w3.org/2000/svg">
  <g transform="matrix(1.0, 0.0, 0.0, 1.0, -73.85, 25.2)">
    <path d="M100.6 -24.2 L99.2 1.65 98.4 1.65 98.4 24.95 96.6 24.95 96.6 1.65 95.65 1.65 95.65 35.7 93.85 35.7 93.85 1.65 91.85 1.65 91.05 37.4 90.1 37.4 90.15 33.8 85.85 33.65 85.9 37.4 84.95 37.4 84.9 33.6 84.75 33.6 84.8 32.25 84.85 32.25 84.2 1.65 81.95 1.65 81.95 35.7 80.15 35.7 80.15 1.65 79.3 1.65 79.3 24.95 77.5 24.95 77.5 1.65 76.05 1.65 74.85 -24.2 100.6 -24.2 M85.4 3.7 L90.65 3.0 90.65 1.65 85.4 1.65 85.4 3.7 M85.45 5.1 L85.5 9.15 90.55 9.55 90.6 4.35 85.45 5.1 M90.5 10.9 L85.5 10.5 85.6 15.45 90.45 15.3 90.5 10.9 M85.7 22.65 L85.75 26.55 90.3 26.15 90.35 22.85 85.7 22.65 M85.6 16.8 L85.65 21.3 90.35 21.5 90.45 16.65 85.6 16.8 M85.75 27.9 L85.85 32.3 90.2 32.45 90.25 27.5 85.75 27.9" fill="#452f16" fill-rule="evenodd" stroke="none"/>
    <path d="M100.6 -24.2 L99.2 1.65 98.4 1.65 98.4 24.95 96.6 24.95 96.6 1.65 95.65 1.65 95.65 35.7 93.85 35.7 93.85 1.65 91.85 1.65 91.05 37.4 90.1 37.4 90.15 33.8 85.85 33.65 85.9 37.4 84.95 37.4 84.9 33.6 84.75 33.6 84.8 32.25 84.85 32.25 84.2 1.65 81.95 1.65 81.95 35.7 80.15 35.7 80.15 1.65 79.3 1.65 79.3 24.95 77.5 24.95 77.5 1.65 76.05 1.65 74.85 -24.2 100.6 -24.2 M85.4 3.7 L90.65 3.0 90.65 1.65 85.4 1.65 85.4 3.7 M85.45 5.1 L85.5 9.15 90.55 9.55 90.6 4.35 85.45 5.1 M90.5 10.9 L85.5 10.5 85.6 15.45 90.45 15.3 90.5 10.9 M85.7 22.65 L85.75 26.55 90.3 26.15 90.35 22.85 85.7 22.65 M85.6 16.8 L85.65 21.3 90.35 21.5 90.45 16.65 85.6 16.8 M85.75 27.9 L85.85 32.3 90.2 32.45 90.25 27.5 85.75 27.9" fill="none" stroke="#452f16" stroke-linecap="round" stroke-linejoin="round" stroke-width="2.0"/>
    <path d="M77.5 6.65 L77.5 -10.2 79.3 -10.2 79.3 6.5 77.5 6.65 M96.6 6.5 L96.6 -10.2 98.4 -10.2 98.4 6.1 96.6 6.5" fill="#4a3217" fill-rule="evenodd" stroke="none"/>
    <path d="M80.15 3.15 L80.15 0.55 81.95 0.55 81.95 3.15 80.15 3.15 M95.65 3.05 L93.85 3.05 93.85 0.55 95.65 0.55 95.65 3.05" fill="#6a4822" fill-rule="evenodd" stroke="none"/>
    <path d="M81.95 3.15 L81.95 35.7 80.15 35.7 80.15 3.15 81.95 3.15 M93.85 3.05 L95.65 3.05 95.65 35.7 93.85 35.7 93.85 3.05" fill="#8d602e" fill-rule="evenodd" stroke="none"/>
    <path d="M77.5 6.65 L79.3 6.5 79.3 24.95 77.5 24.95 77.5 6.65 M98.4 6.1 L98.4 24.95 96.6 24.95 96.6 6.5 98.4 6.1" fill="#644420" fill-rule="evenodd" stroke="none"/>
    <path d="M91.05 0.85 L91.85 0.85 91.8 2.6 91.3 2.7 90.65 2.75 90.65 1.05 91.05 0.85 M85.4 2.8 L85.35 2.8 84.55 3.0 84.4 3.05 84.25 3.0 84.2 2.95 84.15 0.85 85.35 0.85 85.4 2.8" fill="#6d4a23" fill-rule="evenodd" stroke="none"/>
    <path d="M90.65 2.75 L91.3 2.7 91.8 2.6 91.05 37.4 90.1 37.4 90.65 2.75 M84.2 2.95 L84.25 3.0 84.4 3.05 84.55 3.0 85.35 2.8 85.4 2.8 85.9 37.4 84.95 37.4 84.2 2.95" fill="#8d602e" fill-rule="evenodd" stroke="none"/>
    <path d="M91.05 0.85 L90.65 1.05 90.65 0.85 91.05 0.85" fill="#644420" fill-rule="evenodd" stroke="none"/>
    <path d="M90.85 10.9 L84.75 10.45 84.85 9.1 90.95 9.55 90.85 10.9 M90.95 4.3 L84.9 5.15 84.7 3.8 90.75 2.95 90.95 4.3 M90.9 16.6 L84.8 16.8 84.75 15.45 90.85 15.25 90.9 16.6 M84.8 21.25 L90.9 21.5 90.85 22.85 84.75 22.6 84.8 21.25 M84.75 26.6 L90.85 26.1 90.95 27.45 84.85 27.95 84.75 26.6 M84.75 33.6 L84.8 32.25 90.9 32.45 90.85 33.8 84.75 33.6" fill="#8d602e" fill-rule="evenodd" stroke="none"/>
    <path d="M100.6 -24.2 L99.2 1.65 76.05 1.65 74.85 -24.2 100.6 -24.2" fill="#8d602e" fill-rule="evenodd" stroke="none"/>
    <path d="M99.3 -22.9 L98.05 0.35 77.25 0.35 76.15 -22.9 99.3 -22.9" fill="#644420" fill-rule="evenodd" stroke="none"/>
    <path d="M99.3 -22.9 L99.05 -17.6 76.4 -17.6 76.15 -22.9 99.3 -22.9" fill="#4a3217" fill-rule="evenodd" stroke="none"/>
    <path d="M75.8 -3.25 L99.1 -3.25 99.1 1.4 75.8 1.4 75.8 -3.25" fill="#8d602e" fill-rule="evenodd" stroke="none"/>
  </g>
</svg>
