<?xml version="1.0" encoding="UTF-8" standalone="no"?>
<svg xmlns:xlink="http://www.w3.org/1999/xlink" height="42.7px" width="35.8px" xmlns="http://www.w3.org/2000/svg">
  <g transform="matrix(1.0, 0.0, 0.0, 1.0, 17.85, 20.85)">
    <path d="M17.95 -3.1 L17.95 -3.05 Q18.05 0.9 15.45 6.05 L15.5 6.0 Q13.75 9.8 10.95 13.35 L10.9 13.4 Q8.6 16.25 6.35 17.8 L6.35 18.15 Q6.2 19.35 5.45 20.3 4.6 21.25 3.4 21.55 -2.0 22.85 -5.6 18.9 -6.35 18.1 -6.5 17.0 L-9.95 13.95 Q-13.6 10.05 -15.2 6.45 -17.95 0.9 -17.85 -3.05 L-17.85 -3.15 Q-17.7 -10.6 -12.7 -15.6 L-12.6 -15.7 Q-7.25 -20.85 0.05 -20.85 7.45 -20.85 12.65 -15.65 17.95 -10.6 17.95 -3.1 M1.4 16.25 Q4.6 15.7 8.2 11.25 10.8 8.05 12.45 4.45 14.6 0.1 14.6 -3.2 L14.6 -3.35 Q14.6 -9.35 10.3 -13.5 6.05 -17.75 0.0 -17.75 -6.0 -17.75 -10.4 -13.5 -14.5 -9.35 -14.6 -3.35 L-14.6 -3.2 Q-14.6 0.1 -12.25 4.9 -10.8 8.1 -7.45 11.7 -4.4 14.95 -1.65 15.9 L-2.3 16.15 -2.8 16.3 Q-0.7 18.55 2.45 17.9 L1.4 16.25" fill="#041c1e" fill-rule="evenodd" stroke="none"/>
    <path d="M1.4 16.25 L2.45 17.9 Q-0.7 18.55 -2.8 16.3 L-2.3 16.15 -1.65 15.9 0.55 16.3 1.4 16.25 M2.35 14.3 L4.35 13.95 Q2.3 15.55 0.4 15.55 -2.85 15.55 -6.75 11.45 -9.75 8.25 -11.05 5.4 -13.1 1.1 -13.1 -1.85 L-13.1 -1.95 -12.95 -3.8 Q-12.55 -1.0 -10.7 2.7 -9.25 6.05 -5.9 9.65 -1.4 14.3 2.35 14.3" fill="#4bd8e8" fill-rule="evenodd" stroke="none"/>
    <path d="M8.55 -12.55 Q5.35 -15.9 0.85 -15.9 L-0.1 -15.85 Q3.05 -14.8 5.6 -12.15 9.8 -7.7 9.8 -1.35 L9.8 -1.2 Q9.8 1.25 8.8 4.35 L10.15 1.6 Q11.7 -1.85 11.7 -4.45 L11.7 -4.55 Q11.7 -9.3 8.55 -12.55 M-1.65 15.9 Q-4.4 14.95 -7.45 11.7 -10.8 8.1 -12.25 4.9 -14.6 0.1 -14.6 -3.2 L-14.6 -3.35 Q-14.5 -9.35 -10.4 -13.5 -6.0 -17.75 0.0 -17.75 6.05 -17.75 10.3 -13.5 14.6 -9.35 14.6 -3.35 L14.6 -3.2 Q14.6 0.1 12.45 4.45 10.8 8.05 8.2 11.25 4.6 15.7 1.4 16.25 L0.55 16.3 -1.65 15.9 M2.35 14.3 Q-1.4 14.3 -5.9 9.65 -9.25 6.05 -10.7 2.7 -12.55 -1.0 -12.95 -3.8 L-13.1 -1.95 -13.1 -1.85 Q-13.1 1.1 -11.05 5.4 -9.75 8.25 -6.75 11.45 -2.85 15.55 0.4 15.55 2.3 15.55 4.35 13.95 L2.35 14.3" fill="#aaffff" fill-rule="evenodd" stroke="none"/>
    <path d="M8.55 -12.55 Q11.7 -9.3 11.7 -4.55 L11.7 -4.45 Q11.7 -1.85 10.15 1.6 L8.8 4.35 Q9.8 1.25 9.8 -1.2 L9.8 -1.35 Q9.8 -7.7 5.6 -12.15 3.05 -14.8 -0.1 -15.85 L0.85 -15.9 Q5.35 -15.9 8.55 -12.55" fill="#ffffff" fill-rule="evenodd" stroke="none"/>
  </g>
</svg>
