<?xml version="1.0" encoding="UTF-8" standalone="no"?>
<svg xmlns:xlink="http://www.w3.org/1999/xlink" height="67.7px" width="16.85px" xmlns="http://www.w3.org/2000/svg">
  <g transform="matrix(1.0, 0.0, 0.0, 1.0, 1.1, 3.65)">
    <path d="M15.7 -0.1 L15.7 64.05 -0.1 64.05 -0.1 0.05 0.25 -0.1 15.7 -0.1" fill="#7e5629" fill-rule="evenodd" stroke="none"/>
    <path d="M15.75 -0.1 L15.75 62.25 -0.2 62.25 -0.2 -0.1 15.75 -0.1" fill="#9a6832" fill-opacity="0.9882353" fill-rule="evenodd" stroke="none"/>
    <path d="M8.4 0.0 L8.9 0.0 9.55 61.95 9.45 62.15 9.3 62.2 9.1 62.15 9.05 61.95 8.4 0.0 M5.95 0.0 L6.45 0.0 7.1 62.1 7.0 62.3 6.85 62.35 6.65 62.3 6.6 62.1 5.95 0.0 M3.8 0.0 L4.3 0.0 4.4 62.0 4.3 62.2 4.15 62.25 3.95 62.2 3.9 62.0 3.8 0.0 M1.4 0.0 L1.9 0.0 2.0 62.0 1.9 62.2 1.75 62.25 1.55 62.2 1.5 62.0 1.4 0.0 M11.15 0.0 L11.65 0.0 11.95 61.95 11.85 62.15 11.7 62.2 11.5 62.15 11.45 61.95 11.15 0.0 M13.45 0.0 L13.95 0.0 14.25 61.95 14.15 62.15 14.0 62.2 13.8 62.15 13.75 61.95 13.45 0.0" fill="#775228" fill-rule="evenodd" stroke="none"/>
    <path d="M12.35 -2.55 L13.45 5.9 12.35 12.0 12.35 11.95 1.75 11.95 0.7 5.9 0.65 5.9 0.65 5.75 1.45 -2.6 12.3 -2.65 12.3 -2.55 12.35 -2.55" fill="#755026" fill-rule="evenodd" stroke="none"/>
    <path d="M12.35 -2.55 L13.45 5.9 12.35 12.0 12.35 11.95 1.75 11.95 0.7 5.9 0.65 5.9 0.65 5.75 1.45 -2.6 12.3 -2.65 12.3 -2.55 12.35 -2.55 Z" fill="none" stroke="#463017" stroke-linecap="round" stroke-linejoin="round" stroke-width="2.0"/>
    <path d="M12.45 -2.45 L12.5 -2.45 13.6 6.0 12.5 12.1 12.5 12.05 11.55 6.0 12.45 -2.45" fill="#755026" fill-rule="evenodd" stroke="none"/>
    <path d="M0.85 6.0 L0.8 6.0 0.8 5.85 1.6 -2.45 12.45 -2.5 12.45 -2.45 11.55 6.0 0.85 6.0" fill="#a26f35" fill-rule="evenodd" stroke="none"/>
    <path d="M12.5 12.05 L1.9 12.05 0.85 6.0 11.55 6.0 12.5 12.05" fill="#593d1e" fill-rule="evenodd" stroke="none"/>
    <path d="M12.2 1.95 L12.15 2.15 11.95 2.2 1.0 1.95 0.85 1.9 0.75 1.7 0.85 1.55 1.0 1.45 11.95 1.7 12.15 1.8 12.2 1.95 M12.05 4.1 L12.1 4.25 12.05 4.45 11.85 4.5 0.75 4.75 0.6 4.7 0.5 4.5 0.6 4.35 0.75 4.25 11.85 4.0 12.05 4.1 M1.65 -0.45 L1.5 -0.5 1.4 -0.7 1.5 -0.85 1.65 -0.95 12.15 -1.15 12.35 -1.05 12.4 -0.9 12.35 -0.7 12.15 -0.65 1.65 -0.45" fill="#593d1e" fill-rule="evenodd" stroke="none"/>
    <path d="M12.3 15.2 L12.3 15.3 12.35 15.3 13.45 23.75 12.35 29.85 12.35 29.8 1.75 29.8 0.7 23.75 0.65 23.75 0.65 23.6 1.45 15.25 12.3 15.2" fill="#755026" fill-rule="evenodd" stroke="none"/>
    <path d="M12.3 15.2 L12.3 15.3 12.35 15.3 13.45 23.75 12.35 29.85 12.35 29.8 1.75 29.8 0.7 23.75 0.65 23.75 0.65 23.6 1.45 15.25 12.3 15.2 Z" fill="none" stroke="#463017" stroke-linecap="round" stroke-linejoin="round" stroke-width="2.0"/>
    <path d="M0.85 23.85 L0.8 23.85 0.8 23.7 1.6 15.4 12.45 15.35 12.45 15.4 11.55 23.85 0.85 23.85" fill="#a26f35" fill-rule="evenodd" stroke="none"/>
    <path d="M12.45 15.4 L12.5 15.4 13.6 23.85 12.5 29.95 12.5 29.9 11.55 23.85 12.45 15.4" fill="#755026" fill-rule="evenodd" stroke="none"/>
    <path d="M12.5 29.9 L1.9 29.9 0.85 23.85 11.55 23.85 12.5 29.9" fill="#593d1e" fill-rule="evenodd" stroke="none"/>
    <path d="M0.55 21.9 L0.65 21.75 Q0.7 21.65 0.8 21.65 L11.75 21.9 11.95 22.0 12.0 22.15 11.95 22.35 11.75 22.4 0.8 22.15 0.65 22.1 0.55 21.9 M0.95 19.25 Q1.0 19.15 1.1 19.15 L12.05 19.4 12.25 19.5 12.3 19.65 12.25 19.85 12.05 19.9 1.1 19.65 0.95 19.6 0.85 19.4 0.95 19.25 M1.05 16.8 L1.15 16.65 1.3 16.55 12.25 16.8 12.45 16.9 12.5 17.05 12.45 17.25 12.25 17.3 1.3 17.05 1.15 17.0 1.05 16.8" fill="#593d1e" fill-rule="evenodd" stroke="none"/>
    <path d="M12.7 9.9 L11.6 16.0 11.6 15.95 1.0 15.95 -0.05 9.9 -0.1 9.9 -0.1 9.75 0.7 1.4 11.55 1.35 11.55 1.45 11.6 1.45 12.7 9.9" fill="#755026" fill-rule="evenodd" stroke="none"/>
    <path d="M12.7 9.9 L11.6 16.0 11.6 15.95 1.0 15.95 -0.05 9.9 -0.1 9.9 -0.1 9.75 0.7 1.4 11.55 1.35 11.55 1.45 11.6 1.45 12.7 9.9 Z" fill="none" stroke="#463017" stroke-linecap="round" stroke-linejoin="round" stroke-width="2.0"/>
    <path d="M0.1 10.0 L0.05 10.0 0.05 9.85 0.85 1.55 11.7 1.5 11.7 1.55 10.8 10.0 0.1 10.0" fill="#a26f35" fill-rule="evenodd" stroke="none"/>
    <path d="M11.7 1.55 L11.75 1.55 12.85 10.0 11.75 16.1 11.75 16.05 10.8 10.0 11.7 1.55" fill="#755026" fill-rule="evenodd" stroke="none"/>
    <path d="M11.75 16.05 L1.15 16.05 0.1 10.0 10.8 10.0 11.75 16.05" fill="#593d1e" fill-rule="evenodd" stroke="none"/>
    <path d="M10.9 8.15 L11.1 8.25 11.15 8.4 11.1 8.6 10.9 8.65 -0.05 8.4 -0.2 8.35 -0.3 8.15 -0.2 8.0 -0.05 7.9 10.9 8.15 M11.4 5.75 L11.45 5.9 11.4 6.1 11.2 6.15 0.25 5.9 0.1 5.85 0.0 5.65 0.1 5.5 0.25 5.4 11.2 5.65 11.4 5.75 M11.6 3.15 L11.65 3.3 11.6 3.5 11.4 3.55 0.45 3.3 0.3 3.25 0.2 3.05 0.3 2.9 0.45 2.8 11.4 3.05 11.6 3.15" fill="#593d1e" fill-rule="evenodd" stroke="none"/>
    <path d="M6.85 5.3 Q6.6 5.7 6.7 6.15 L7.25 6.7 7.35 6.75 7.9 6.7 8.2 6.4 8.45 6.0 8.5 5.8 8.5 5.7 8.5 5.6 8.35 4.95 8.3 4.8 8.25 4.8 8.05 4.7 7.85 4.55 7.6 4.65 7.45 4.7 7.35 4.75 6.85 5.3 M5.8 3.0 L5.6 2.9 Q5.45 2.95 5.45 3.15 5.5 3.3 5.7 3.25 L5.8 3.0 M7.75 2.85 L7.75 2.9 7.8 3.0 8.05 3.05 8.2 2.85 8.25 2.8 8.3 2.95 8.3 3.0 8.4 3.15 8.45 3.15 8.5 3.25 8.55 3.35 8.6 3.4 8.75 3.75 8.65 3.85 8.65 3.95 8.7 4.15 8.8 4.25 8.8 4.3 8.75 4.3 8.8 4.4 8.8 4.5 8.95 4.55 8.95 4.7 9.0 4.7 9.1 5.05 9.0 5.65 8.95 6.15 8.85 6.4 8.75 7.0 7.75 7.4 8.05 7.9 7.9 7.95 6.95 8.3 6.8 7.7 6.35 7.85 6.55 8.4 5.45 8.8 5.35 8.2 4.3 8.55 2.7 7.0 2.55 6.7 2.25 6.2 2.1 5.65 2.15 5.5 2.1 5.35 2.1 5.25 2.2 5.3 2.35 5.15 2.3 4.9 2.25 4.85 2.3 4.65 2.25 4.6 2.4 4.45 2.5 4.45 2.6 4.25 2.4 4.05 2.45 4.05 2.6 4.0 2.8 3.85 2.75 3.7 2.85 3.6 2.95 3.55 3.05 3.4 Q3.7 2.9 4.7 2.55 L5.75 2.25 5.75 2.35 5.7 2.45 5.6 2.5 5.6 2.65 5.65 2.7 5.65 2.8 5.9 2.8 6.05 2.65 6.15 2.6 6.2 2.5 6.2 2.4 6.55 2.3 6.6 2.3 6.7 2.15 6.75 2.15 6.7 2.2 6.7 2.25 6.75 2.3 6.75 2.4 6.95 2.45 7.15 2.4 7.2 2.25 7.95 2.55 7.9 2.6 7.8 2.65 7.75 2.75 7.75 2.85 M3.95 5.9 L3.8 6.0 3.55 6.25 3.45 6.35 3.35 6.8 Q3.3 7.25 3.75 7.5 L4.4 7.8 4.65 7.65 5.15 7.6 5.2 7.6 5.35 7.4 5.35 6.65 4.7 6.05 3.95 5.9 M6.05 6.65 L6.0 7.25 6.55 7.1 6.05 6.65" fill="#ffffff" fill-opacity="0.4" fill-rule="evenodd" stroke="none"/>
  </g>
</svg>
