<?xml version="1.0" encoding="UTF-8" standalone="no"?>
<svg xmlns:xlink="http://www.w3.org/1999/xlink" height="150.35px" width="159.0px" xmlns="http://www.w3.org/2000/svg">
  <g transform="matrix(1.0, 0.0, 0.0, 1.0, 121.1, 55.15)">
    <path d="M32.85 18.5 Q30.0 27.1 26.9 32.5 23.15 39.05 15.25 43.1 L8.05 45.8 11.35 49.3 Q15.05 54.4 16.9 62.2 18.3 68.0 17.05 73.7 14.75 80.45 9.15 85.45 4.45 89.7 0.25 90.75 -7.55 92.65 -14.05 93.4 L-31.35 94.7 Q-43.3 95.3 -51.4 95.15 -61.25 95.0 -69.6 93.65 -84.6 91.25 -96.8 75.7 -103.8 66.05 -103.35 58.45 -102.9 50.65 -95.3 44.15 -91.55 40.95 -87.85 39.25 -93.95 39.4 -100.8 37.15 -114.4 32.75 -118.6 21.0 -121.45 13.05 -121.05 0.85 -120.55 -13.25 -115.6 -25.1 -109.7 -39.25 -98.4 -46.95 -85.05 -56.0 -65.4 -55.05 -47.45 -54.15 -36.1 -21.55 -30.45 -5.25 -28.4 10.85 -25.0 -8.95 -17.45 -26.15 -2.3 -60.5 18.65 -47.4 40.2 -33.9 37.6 -3.5 36.7 7.1 32.85 18.5" fill="#3d91af" fill-rule="evenodd" stroke="none"/>
  </g>
</svg>
