<?xml version="1.0" encoding="UTF-8" standalone="no"?>
<svg xmlns:xlink="http://www.w3.org/1999/xlink" height="46.9px" width="63.15px" xmlns="http://www.w3.org/2000/svg">
  <g transform="matrix(1.0, 0.0, 0.0, 1.0, 31.35, 23.25)">
    <path d="M-4.4 -13.55 Q-4.15 -13.35 -3.55 -13.3 L-2.0 -13.0 3.35 -12.95 6.1 -12.65 11.35 -12.3 12.8 -12.55 11.7 -12.7 6.15 -12.9 3.35 -13.25 -2.0 -13.3 -4.4 -13.7 -4.4 -16.2 1.9 -15.2 5.85 -14.6 23.0 -11.85 30.8 -10.6 30.8 -1.0 23.65 0.05 Q18.4 0.9 17.85 1.55 L17.9 1.8 24.75 2.15 30.1 2.4 30.8 2.4 30.8 4.0 -4.4 0.7 -4.4 -0.65 2.15 0.35 10.05 1.2 Q13.85 1.2 19.35 -0.85 24.8 -2.95 28.55 -2.95 L29.5 -2.9 30.6 -2.95 30.1 -3.3 27.45 -3.3 Q24.75 -3.3 19.35 -1.2 13.95 0.85 8.65 0.85 L2.65 0.05 -4.3 -0.95 -4.4 -0.9 -4.4 -12.8 -4.35 -12.9 -4.35 -13.0 -4.4 -13.0 -4.4 -13.55 M4.4 -5.6 L9.2 -5.65 10.6 -6.25 9.4 -6.0 -1.6 -6.4 -1.9 -6.65 -4.3 -6.9 -4.35 -6.8 -2.0 -6.5 -1.65 -6.2 -0.1 -6.15 -0.05 -6.0 4.4 -5.6 M7.35 -8.05 L2.15 -8.15 -0.85 -8.35 2.4 -7.8 7.35 -7.75 11.05 -6.9 11.0 -6.45 10.7 -6.25 11.15 -6.4 11.35 -6.6 Q11.35 -7.1 10.75 -7.2 L7.35 -8.05 M9.4 -11.25 L0.55 -11.95 -3.95 -12.65 -4.0 -12.55 0.6 -11.75 9.2 -11.1 27.65 -9.05 27.75 -9.3 20.3 -10.65 12.85 -11.35 9.4 -11.25 M4.9 -1.9 L0.55 -1.95 Q-1.0 -1.95 -2.0 -2.6 L-2.9 -3.5 -3.05 -3.45 Q-2.85 -2.8 -2.1 -2.3 -1.15 -1.6 0.55 -1.6 L5.1 -1.6 8.65 -1.2 Q12.35 -1.2 18.4 -4.3 L23.75 -7.4 24.45 -7.25 26.45 -7.1 26.55 -6.95 29.8 -7.1 26.7 -7.3 Q25.15 -8.4 23.3 -7.8 22.3 -7.45 19.65 -5.6 13.6 -1.45 8.0 -1.45 L4.9 -1.9 M3.4 -9.6 L3.9 -9.5 8.7 -9.4 14.85 -8.35 Q17.0 -7.8 17.35 -7.05 17.2 -6.2 15.6 -5.35 L13.2 -4.0 10.35 -3.95 1.85 -4.4 -1.95 -5.0 -3.8 -5.0 2.35 -4.25 10.5 -3.7 13.15 -3.7 15.8 -5.05 Q17.6 -6.0 17.6 -7.05 17.6 -7.8 15.4 -8.45 L8.8 -9.7 4.0 -9.8 -1.3 -10.15 -4.3 -10.4 -4.35 -10.25 -1.45 -9.95 3.15 -9.7 3.4 -9.6 M30.8 -0.85 L30.8 2.05 24.45 1.7 18.45 1.5 18.85 1.45 30.8 -0.85 M-1.7 -8.4 L-1.55 -8.4 -4.35 -8.45 -1.7 -8.4" fill="#80541e" fill-rule="evenodd" stroke="none"/>
    <path d="M-4.4 -13.7 L-2.0 -13.3 3.35 -13.25 6.15 -12.9 11.7 -12.7 12.8 -12.55 11.35 -12.3 6.1 -12.65 3.35 -12.95 -2.0 -13.0 -3.55 -13.3 Q-4.15 -13.35 -4.4 -13.55 L-4.55 -13.65 -4.4 -13.7 M-4.4 -13.0 L-4.35 -13.0 -4.35 -12.9 -4.4 -12.8 Q-5.35 -12.0 -7.2 -11.8 L-10.6 -11.75 -12.95 -11.9 -4.4 -13.0 M-4.4 -0.9 L-4.3 -0.95 2.65 0.05 8.65 0.85 Q13.95 0.85 19.35 -1.2 24.75 -3.3 27.45 -3.3 L30.1 -3.3 30.6 -2.95 29.5 -2.9 28.55 -2.95 Q24.8 -2.95 19.35 -0.85 13.85 1.2 10.05 1.2 L2.15 0.35 -4.4 -0.65 -4.9 -0.75 -4.9 -0.85 -4.4 -0.9 M30.8 2.4 L30.1 2.4 24.75 2.15 17.9 1.8 17.85 1.55 Q18.4 0.9 23.65 0.05 L30.8 -1.0 30.85 -0.9 30.8 -0.85 18.85 1.45 18.45 1.5 24.45 1.7 30.8 2.05 31.2 2.05 31.35 2.15 30.8 2.4 M3.4 -9.6 L3.15 -9.7 -1.45 -9.95 -4.35 -10.25 -4.3 -10.4 -1.3 -10.15 4.0 -9.8 8.8 -9.7 15.4 -8.45 Q17.6 -7.8 17.6 -7.05 17.6 -6.0 15.8 -5.05 L13.15 -3.7 10.5 -3.7 2.35 -4.25 -3.8 -5.0 -1.95 -5.0 1.85 -4.4 10.35 -3.95 13.2 -4.0 15.6 -5.35 Q17.2 -6.2 17.35 -7.05 17.0 -7.8 14.85 -8.35 L8.7 -9.4 3.9 -9.5 3.4 -9.6 M4.9 -1.9 L8.0 -1.45 Q13.6 -1.45 19.65 -5.6 22.3 -7.45 23.3 -7.8 25.15 -8.4 26.7 -7.3 L29.8 -7.1 26.55 -6.95 26.45 -7.1 24.45 -7.25 23.75 -7.4 18.4 -4.3 Q12.35 -1.2 8.65 -1.2 L5.1 -1.6 0.55 -1.6 Q-1.15 -1.6 -2.1 -2.3 -2.85 -2.8 -3.05 -3.45 L-2.9 -3.5 -2.0 -2.6 Q-1.0 -1.95 0.55 -1.95 L4.9 -1.9 M9.4 -11.25 L12.85 -11.35 20.3 -10.65 27.75 -9.3 27.65 -9.05 9.2 -11.1 0.6 -11.75 -4.0 -12.55 -3.95 -12.65 0.55 -11.95 9.4 -11.25 M7.35 -8.05 L10.75 -7.2 Q11.35 -7.1 11.35 -6.6 L11.15 -6.4 10.7 -6.25 11.0 -6.45 11.05 -6.9 7.35 -7.75 2.4 -7.8 -0.85 -8.35 2.15 -8.15 7.35 -8.05 M4.4 -5.6 L-0.05 -6.0 -0.1 -6.15 -1.65 -6.2 -2.0 -6.5 -4.35 -6.8 -4.3 -6.9 -1.9 -6.65 -1.6 -6.4 9.4 -6.0 10.6 -6.25 9.2 -5.65 4.4 -5.6 M-29.95 -7.8 L-27.4 -8.35 -24.35 -8.75 -15.55 -8.8 -12.9 -8.65 -11.2 -8.0 -9.9 -8.15 Q-9.7 -8.2 -9.25 -8.6 L-8.95 -8.45 Q-8.95 -8.35 -9.7 -8.0 -10.55 -7.65 -10.9 -7.65 -11.8 -7.65 -12.45 -8.15 -13.05 -8.7 -13.8 -8.7 L-15.75 -8.45 -24.65 -8.4 -27.05 -8.15 -29.55 -7.65 -29.95 -7.8 M-30.35 -8.75 Q-28.15 -10.6 -19.2 -12.1 L-4.9 -14.35 -4.75 -14.25 -18.8 -11.8 Q-28.15 -10.2 -30.0 -8.6 L-30.35 -8.75 M-28.45 -3.2 L-23.6 -2.8 -19.1 -3.2 -16.55 -3.55 Q-12.55 -3.7 -11.85 -2.95 -11.2 -2.25 -10.6 -2.25 L-10.05 -2.1 -10.65 -1.6 -13.1 -1.3 -15.65 -1.6 -19.9 -1.95 -22.5 -1.7 -19.4 -2.25 -15.7 -1.95 -14.05 -1.65 -11.25 -1.9 -12.4 -2.75 -15.85 -3.2 -19.5 -2.8 -23.6 -2.45 -26.65 -2.75 -28.45 -3.2 M-29.3 -0.4 L-29.35 -0.8 -29.35 -1.0 Q-29.15 -1.3 -28.75 -1.4 -25.95 -1.3 -24.15 -1.45 L-28.7 -1.0 -29.15 -0.4 -29.3 -0.4 M-29.35 -6.15 L-19.85 -6.7 -19.85 -6.75 -15.05 -6.75 -12.2 -5.65 -7.75 -5.95 -6.45 -6.2 -6.05 -6.15 -6.0 -6.05 Q-7.65 -5.3 -9.4 -5.3 L-13.85 -5.8 -14.85 -6.4 -20.15 -6.4 -28.05 -5.95 -29.3 -6.0 -29.35 -6.15 M-18.5 -11.1 L-17.8 -11.2 -18.15 -11.1 -4.9 -11.2 -4.65 -11.05 -4.6 -10.9 -5.0 -10.75 -5.65 -10.6 -14.95 -10.75 -18.45 -10.95 -18.5 -11.1 M-1.7 -8.4 L-4.35 -8.45 -1.55 -8.4 -1.7 -8.4 M-10.0 -3.85 L-10.05 -4.05 -10.0 -4.25 -9.7 -3.95 -9.25 -3.95 -7.35 -4.1 Q-5.4 -4.15 -4.7 -3.5 L-4.8 -2.95 -5.0 -2.85 -5.05 -3.2 -9.0 -3.55 -10.0 -3.85 M-5.7 -0.3 L-4.95 -0.6 -4.9 -0.45 -5.65 -0.25 -5.7 -0.3 M-9.65 0.6 L-16.15 1.45 -26.2 2.15 -28.4 2.05 -30.3 1.85 -27.6 1.85 -14.85 1.05 -6.6 0.3 -6.45 0.55 Q-6.7 0.9 -7.1 0.9 L-8.3 0.8 -9.65 0.6" fill="#432a0d" fill-rule="evenodd" stroke="none"/>
    <path d="M11.55 -16.6 Q11.6 -17.1 11.05 -17.55 L11.35 -17.8 11.45 -18.25 10.95 -19.4 9.85 -19.9 Q9.05 -20.15 8.65 -19.9 L8.0 -20.4 7.9 -20.45 7.55 -20.45 7.4 -19.75 7.7 -19.8 7.8 -19.7 7.9 -19.5 7.65 -17.35 Q7.6 -16.7 7.3 -16.7 L7.1 -16.8 7.05 -16.0 7.25 -16.0 7.35 -16.0 8.0 -16.1 Q8.4 -15.75 9.15 -15.45 L9.5 -15.45 Q10.3 -15.3 10.8 -15.45 11.55 -15.75 11.55 -16.6 M13.3 -16.7 L13.85 -17.95 14.3 -16.5 13.3 -16.7 M13.25 -18.95 L12.85 -18.9 12.85 -18.45 13.0 -18.45 13.15 -18.35 13.15 -18.3 13.05 -17.95 12.05 -16.0 11.95 -15.85 11.7 -15.85 11.55 -15.85 11.55 -15.15 11.7 -15.1 12.1 -15.1 12.4 -15.3 Q12.6 -14.9 12.95 -14.9 L13.3 -14.9 13.3 -15.5 13.15 -15.5 Q12.85 -15.55 12.9 -15.8 L13.0 -16.05 14.55 -15.8 14.65 -15.4 14.55 -15.3 14.45 -15.3 14.4 -15.4 14.4 -14.75 Q14.5 -14.6 14.7 -14.6 L15.1 -14.65 Q15.4 -14.45 15.65 -14.35 L15.9 -14.35 16.0 -14.35 Q16.25 -14.25 16.4 -14.5 L16.6 -14.25 16.85 -14.25 17.05 -14.25 17.05 -14.85 16.95 -14.8 16.8 -14.9 16.7 -15.15 16.65 -16.45 18.1 -13.95 18.9 -13.85 18.85 -16.4 18.8 -16.75 18.95 -16.8 19.05 -16.75 19.2 -16.75 19.35 -16.7 19.4 -16.6 19.45 -14.85 19.3 -14.25 19.2 -14.35 19.2 -13.8 19.4 -13.7 Q19.6 -13.7 19.75 -13.85 L20.2 -13.55 20.45 -13.6 20.4 -14.15 20.25 -14.15 Q20.1 -14.2 20.1 -14.35 L20.05 -15.1 20.45 -14.85 20.7 -14.55 20.95 -14.05 Q20.95 -13.95 20.85 -14.0 L20.8 -14.05 20.8 -13.55 21.0 -13.4 Q21.2 -13.35 21.3 -13.55 21.45 -13.35 21.75 -13.3 L22.05 -13.3 21.95 -13.9 21.9 -13.85 21.85 -13.85 21.35 -14.45 20.8 -15.2 21.2 -16.0 21.35 -16.15 21.5 -16.1 21.5 -16.65 21.3 -16.7 21.0 -16.6 20.7 -16.95 20.55 -16.95 20.6 -16.45 20.65 -16.4 20.8 -16.2 20.7 -16.05 20.45 -15.45 20.05 -15.7 20.0 -16.4 20.1 -16.6 20.25 -16.45 20.25 -17.0 20.0 -17.15 19.65 -17.05 19.35 -17.25 19.05 -17.25 18.85 -17.4 18.45 -17.25 18.15 -17.65 17.9 -17.65 17.9 -17.1 17.95 -17.1 18.1 -17.1 18.3 -16.65 18.3 -15.05 17.2 -17.1 17.2 -17.2 17.25 -17.25 17.45 -17.25 17.35 -17.75 17.15 -17.9 16.65 -17.8 16.1 -18.2 16.05 -18.2 15.75 -18.2 15.75 -17.65 16.0 -17.65 16.05 -17.55 16.1 -17.3 16.1 -15.4 16.1 -15.1 16.0 -14.95 15.95 -14.95 15.95 -15.05 15.8 -15.1 15.75 -15.1 15.45 -15.3 15.1 -16.6 14.7 -17.8 Q14.7 -18.0 14.85 -17.9 L14.95 -17.8 14.95 -18.35 14.55 -18.65 13.9 -18.5 Q13.65 -18.9 13.25 -18.95 M23.0 -11.85 L5.85 -14.6 5.85 -22.25 22.8 -17.9 23.0 -11.85 M9.4 -17.45 L10.1 -17.25 10.5 -16.65 10.1 -16.15 9.5 -16.2 8.65 -16.6 8.8 -17.75 9.05 -17.65 9.4 -17.45 M10.2 -19.05 L10.5 -18.5 Q10.45 -18.2 10.1 -18.15 L9.55 -18.15 8.85 -18.35 8.9 -19.3 9.65 -19.4 10.2 -19.05" fill="#cd934b" fill-rule="evenodd" stroke="none"/>
    <path d="M13.25 -18.95 Q13.65 -18.9 13.9 -18.5 L14.55 -18.65 14.95 -18.35 14.95 -17.8 14.85 -17.9 Q14.7 -18.0 14.7 -17.8 L15.1 -16.6 15.45 -15.3 15.75 -15.1 15.8 -15.1 15.95 -15.05 15.95 -14.95 16.0 -14.95 16.1 -15.1 16.1 -15.4 16.1 -17.3 16.05 -17.55 16.0 -17.65 15.75 -17.65 15.75 -18.2 16.05 -18.2 16.1 -18.2 16.65 -17.8 17.15 -17.9 17.35 -17.75 17.45 -17.25 17.25 -17.25 17.2 -17.2 17.2 -17.1 18.3 -15.05 18.3 -16.65 18.1 -17.1 17.95 -17.1 17.9 -17.1 17.9 -17.65 18.15 -17.65 18.45 -17.25 18.85 -17.4 19.05 -17.25 19.35 -17.25 19.65 -17.05 20.0 -17.15 20.25 -17.0 20.25 -16.45 20.1 -16.6 20.0 -16.4 20.05 -15.7 20.45 -15.45 20.7 -16.05 20.8 -16.2 20.65 -16.4 20.6 -16.45 20.55 -16.95 20.7 -16.95 21.0 -16.6 21.3 -16.7 21.5 -16.65 21.5 -16.1 21.35 -16.15 21.2 -16.0 20.8 -15.2 21.35 -14.45 21.85 -13.85 21.9 -13.85 21.95 -13.9 22.05 -13.3 21.75 -13.3 Q21.45 -13.35 21.3 -13.55 21.2 -13.35 21.0 -13.4 L20.8 -13.55 20.8 -14.05 20.85 -14.0 Q20.95 -13.95 20.95 -14.05 L20.7 -14.55 20.45 -14.85 20.05 -15.1 20.1 -14.35 Q20.1 -14.2 20.25 -14.15 L20.4 -14.15 20.45 -13.6 20.2 -13.55 19.75 -13.85 Q19.6 -13.7 19.4 -13.7 L19.2 -13.8 19.2 -14.35 19.3 -14.25 19.45 -14.85 19.4 -16.6 19.35 -16.7 19.2 -16.75 19.05 -16.75 18.95 -16.8 18.8 -16.75 18.85 -16.4 18.9 -13.85 18.1 -13.95 16.65 -16.45 16.7 -15.15 16.8 -14.9 16.95 -14.8 17.05 -14.85 17.05 -14.25 16.85 -14.25 16.6 -14.25 16.4 -14.5 Q16.25 -14.25 16.0 -14.35 L15.9 -14.35 15.65 -14.35 Q15.4 -14.45 15.1 -14.65 L14.7 -14.6 Q14.5 -14.6 14.4 -14.75 L14.4 -15.4 14.45 -15.3 14.55 -15.3 14.65 -15.4 14.55 -15.8 13.0 -16.05 12.9 -15.8 Q12.85 -15.55 13.15 -15.5 L13.3 -15.5 13.3 -14.9 12.95 -14.9 Q12.6 -14.9 12.4 -15.3 L12.1 -15.1 11.7 -15.1 11.55 -15.15 11.55 -15.85 11.7 -15.85 11.95 -15.85 12.05 -16.0 13.05 -17.95 13.15 -18.3 13.15 -18.35 13.0 -18.45 12.85 -18.45 12.85 -18.9 13.25 -18.95 M13.3 -16.7 L14.3 -16.5 13.85 -17.95 13.3 -16.7 M11.55 -16.6 Q11.55 -15.75 10.8 -15.45 10.3 -15.3 9.5 -15.45 L9.15 -15.45 Q8.4 -15.75 8.0 -16.1 L7.35 -16.0 7.25 -16.0 7.05 -16.0 7.1 -16.8 7.3 -16.7 Q7.6 -16.7 7.65 -17.35 L7.9 -19.5 7.8 -19.7 7.7 -19.8 7.4 -19.75 7.55 -20.45 7.9 -20.45 8.0 -20.4 8.65 -19.9 Q9.05 -20.15 9.85 -19.9 L10.95 -19.4 11.45 -18.25 11.35 -17.8 11.05 -17.55 Q11.6 -17.1 11.55 -16.6 M10.2 -19.05 L9.65 -19.4 8.9 -19.3 8.85 -18.35 9.55 -18.15 10.1 -18.15 Q10.45 -18.2 10.5 -18.5 L10.2 -19.05 M9.4 -17.45 L9.05 -17.65 8.8 -17.75 8.65 -16.6 9.5 -16.2 10.1 -16.15 10.5 -16.65 10.1 -17.25 9.4 -17.45" fill="#412708" fill-rule="evenodd" stroke="none"/>
    <path d="M-4.4 0.7 L30.8 4.0 30.8 5.3 30.55 5.25 28.85 5.15 28.85 4.95 30.55 5.25 28.85 4.95 -4.15 1.9 -28.45 5.1 -28.45 5.2 -29.1 5.25 -30.35 5.45 -30.35 3.65 -4.4 0.7" fill="#593a15" fill-rule="evenodd" stroke="none"/>
    <path d="M28.85 5.15 L28.85 10.15 20.8 9.6 20.45 9.85 20.45 9.3 10.2 8.1 10.3 8.05 10.1 7.8 7.4 7.65 Q5.0 7.35 4.25 6.7 L2.05 6.7 -1.7 6.15 -2.8 6.05 -4.15 5.95 -4.15 4.0 2.45 4.2 7.7 4.8 16.65 4.85 21.05 5.75 27.9 5.55 27.95 6.05 27.95 6.1 28.3 6.5 Q28.7 6.5 28.7 6.35 L28.45 6.05 28.35 5.55 28.15 5.0 28.05 4.95 26.85 4.95 26.75 4.95 20.95 5.1 16.4 4.3 7.35 4.25 2.1 3.65 -1.7 3.65 -4.15 3.65 -4.15 1.9 28.85 4.95 28.85 5.15 M28.85 10.45 L28.85 13.55 Q27.75 12.85 25.85 12.9 L20.45 13.15 20.45 9.85 20.6 9.95 27.5 10.55 28.85 10.45 M28.85 13.8 L28.85 16.95 28.1 16.85 27.35 16.8 27.35 16.85 20.7 17.2 20.7 17.35 22.8 17.55 28.1 17.3 28.85 17.0 28.85 22.65 20.45 22.65 20.45 20.3 20.45 14.15 20.45 13.3 20.8 13.5 22.9 13.6 26.3 13.25 28.0 13.55 28.75 13.8 28.85 13.8 M9.25 22.65 L-4.15 22.65 -4.15 19.0 Q0.7 18.9 3.9 19.1 L7.55 19.6 9.25 19.6 9.25 20.3 9.25 22.65 M24.85 20.7 L21.2 20.95 21.6 20.95 26.45 21.45 Q27.1 21.85 27.65 21.85 L28.15 21.45 28.0 21.25 24.85 20.7 M-4.15 6.2 L-1.35 6.75 2.05 7.25 2.2 7.25 4.05 7.1 Q4.6 7.7 6.7 8.0 L9.25 8.25 9.25 11.0 8.5 11.0 7.35 10.95 2.4 10.85 -2.75 10.65 -4.15 10.65 -4.15 7.25 -3.95 7.05 -3.95 6.95 -4.15 7.0 -4.15 6.2 M9.25 11.65 L9.25 13.1 9.25 14.75 Q1.85 14.55 1.2 14.7 L-4.15 14.7 -4.15 11.0 -2.0 10.95 2.55 11.4 7.35 11.45 8.5 11.6 9.25 11.65 M-4.15 15.3 L0.95 15.3 Q7.45 15.0 9.2 15.15 L9.25 15.15 9.25 19.0 3.65 18.65 Q1.25 18.5 -4.15 18.5 L-4.15 15.3" fill="#d0a067" fill-rule="evenodd" stroke="none"/>
    <path d="M28.85 10.15 L28.85 10.2 28.95 10.4 28.85 10.45 27.5 10.55 20.6 9.95 20.45 9.85 20.8 9.6 28.85 10.15 M28.85 13.55 L28.9 13.55 28.95 13.65 28.85 13.8 28.75 13.8 28.0 13.55 26.3 13.25 22.9 13.6 20.8 13.5 20.45 13.3 20.25 13.15 20.45 13.15 25.85 12.9 Q27.75 12.85 28.85 13.55 M28.85 16.95 L28.9 16.95 28.85 17.0 28.1 17.3 22.8 17.55 20.7 17.35 20.7 17.2 27.35 16.85 27.35 16.8 28.1 16.85 28.85 16.95 M-28.45 12.4 L-29.05 12.3 -28.45 12.3 -17.2 11.35 -10.85 11.35 Q-5.8 9.95 -4.55 10.75 L-4.15 10.65 -2.75 10.65 2.4 10.85 7.35 10.95 8.5 11.0 9.25 11.0 9.6 10.95 10.3 11.3 10.1 11.65 9.7 11.65 9.25 11.65 8.5 11.6 7.35 11.45 2.55 11.4 -2.0 10.95 -4.15 11.0 -4.55 10.95 -4.65 10.85 -7.85 11.45 -10.95 11.95 -17.55 12.0 -25.25 12.6 -27.1 12.55 -28.45 12.4 M-28.45 7.0 L-28.45 6.8 Q-28.45 6.45 -26.3 6.05 L-22.55 5.45 -15.95 4.7 -4.4 3.7 -4.35 3.7 -4.15 3.65 -1.7 3.65 2.1 3.65 7.35 4.25 16.4 4.3 20.95 5.1 26.75 4.95 26.85 4.95 28.05 4.95 28.15 5.0 28.35 5.55 28.45 6.05 28.7 6.35 Q28.7 6.5 28.3 6.5 L27.95 6.1 27.95 6.05 27.9 5.55 21.05 5.75 16.65 4.85 7.7 4.8 2.45 4.2 -4.15 4.0 -8.35 4.6 -14.6 4.6 -20.2 5.45 -23.5 6.05 -28.15 7.0 Q-28.45 7.25 -28.45 7.0 M-4.15 5.95 L-2.8 6.05 -1.7 6.15 2.05 6.7 4.25 6.7 Q5.0 7.35 7.4 7.65 L10.1 7.8 10.3 8.05 10.2 8.1 9.25 8.25 6.7 8.0 Q4.6 7.7 4.05 7.1 L2.2 7.25 2.05 7.25 -1.35 6.75 -4.15 6.2 -4.75 6.05 -4.15 5.95 M24.85 20.7 L28.0 21.25 28.15 21.45 27.65 21.85 Q27.1 21.85 26.45 21.45 L21.6 20.95 21.2 20.95 24.85 20.7 M-4.15 7.0 L-3.95 6.95 -3.95 7.05 -4.15 7.25 -10.6 8.1 -17.1 8.8 -21.85 9.5 -26.3 10.05 -27.85 10.1 -28.2 10.05 -28.4 9.9 -17.9 8.45 -4.15 7.0 M-4.15 14.7 L1.2 14.7 Q1.85 14.55 9.25 14.75 L10.25 14.75 10.3 14.85 9.25 15.15 9.2 15.15 Q7.45 15.0 0.95 15.3 L-4.15 15.3 -4.3 15.3 -6.0 14.85 -5.25 14.7 -5.4 14.5 -6.45 14.5 -14.55 15.3 -21.9 15.95 -26.45 15.95 -27.4 15.8 Q-27.9 15.7 -28.2 15.2 L-27.9 15.05 -26.65 15.4 -21.6 15.4 -5.2 13.95 -4.9 14.45 -4.95 14.7 -4.3 14.7 -4.15 14.7 M-4.15 18.5 Q1.25 18.5 3.65 18.65 L9.25 19.0 9.6 19.0 9.85 19.35 9.75 19.6 9.25 19.6 7.55 19.6 3.9 19.1 Q0.7 18.9 -4.15 19.0 L-5.25 19.05 -5.4 19.1 -11.25 18.95 -11.95 19.1 -24.7 19.1 -26.7 19.4 -28.35 19.15 Q-28.05 18.8 -27.3 18.55 L-27.45 18.9 -24.4 18.5 -10.95 18.4 -5.8 18.5 -5.8 18.45 -4.15 18.5" fill="#976833" fill-rule="evenodd" stroke="none"/>
    <path d="M20.45 22.65 L9.25 22.65 9.25 20.3 15.0 20.3 20.45 20.3 20.45 22.65 M10.2 8.1 L20.45 9.3 20.45 9.85 20.45 13.15 20.25 13.15 20.45 13.3 20.45 14.15 9.25 13.1 9.25 11.65 9.7 11.65 10.1 11.65 10.3 11.3 9.6 10.95 9.25 11.0 9.25 8.25 10.2 8.1" fill="#472f14" fill-rule="evenodd" stroke="none"/>
    <path d="M5.85 -14.6 L1.9 -15.2 1.9 -20.55 5.85 -22.25 5.85 -14.6 M-4.15 22.65 L-28.45 22.65 -28.45 12.4 -27.1 12.55 -25.25 12.6 -17.55 12.0 -10.95 11.95 -7.85 11.45 -4.65 10.85 -4.55 10.95 -4.15 11.0 -4.15 14.7 -4.3 14.7 -4.95 14.7 -4.9 14.45 -5.2 13.95 -21.6 15.4 -26.65 15.4 -27.9 15.05 -28.2 15.2 Q-27.9 15.7 -27.4 15.8 L-26.45 15.95 -21.9 15.95 -14.55 15.3 -6.45 14.5 -5.4 14.5 -5.25 14.7 -6.0 14.85 -4.3 15.3 -4.15 15.3 -4.15 18.5 -5.8 18.45 -5.8 18.5 -10.95 18.4 -24.4 18.5 -27.45 18.9 -27.3 18.55 Q-28.05 18.8 -28.35 19.15 L-26.7 19.4 -24.7 19.1 -11.95 19.1 -11.25 18.95 -5.4 19.1 -5.25 19.05 -4.15 19.0 -4.15 22.65 M-28.45 12.3 L-28.45 7.0 Q-28.45 7.25 -28.15 7.0 L-23.5 6.05 -20.2 5.45 -14.6 4.6 -8.35 4.6 -4.15 4.0 -4.15 5.95 -4.75 6.05 -4.15 6.2 -4.15 7.0 -17.9 8.45 -28.4 9.9 -28.2 10.05 -27.85 10.1 -26.3 10.05 -21.85 9.5 -17.1 8.8 -10.6 8.1 -4.15 7.25 -4.15 10.65 -4.55 10.75 Q-5.8 9.95 -10.85 11.35 L-17.2 11.35 -28.45 12.3 M-28.45 6.8 L-28.45 5.2 -28.45 5.1 -4.15 1.9 -4.15 3.65 -4.35 3.7 -4.4 3.7 -15.95 4.7 -22.55 5.45 -26.3 6.05 Q-28.45 6.45 -28.45 6.8 M20.45 14.15 L20.45 20.3 15.0 20.3 9.25 20.3 9.25 19.6 9.75 19.6 9.85 19.35 9.6 19.0 9.25 19.0 9.25 15.15 10.3 14.85 10.25 14.75 9.25 14.75 9.25 13.1 20.45 14.15 M10.05 15.0 L9.95 15.35 10.5 15.95 13.15 15.95 Q13.55 15.8 13.55 15.45 L13.45 15.15 13.15 15.05 10.05 15.0 M15.0 20.3 Q15.45 19.65 15.5 18.65 L15.55 17.0 15.5 15.2 Q15.45 14.15 15.0 13.7 14.5 14.4 14.5 17.15 L14.5 18.65 Q14.55 19.95 15.0 20.3 M12.8 18.8 L12.55 18.75 10.75 18.95 Q10.75 19.45 11.15 19.55 L12.55 19.55 Q12.95 19.5 12.95 19.1 L12.8 18.8 M13.5 17.05 Q13.85 17.0 13.85 16.6 L13.75 16.3 13.5 16.25 10.05 16.3 Q10.45 16.4 9.95 16.5 9.95 16.95 10.35 17.05 L13.5 17.05 M10.7 17.8 Q10.95 17.85 10.65 17.95 10.65 18.4 11.0 18.55 L13.3 18.55 13.75 18.1 13.6 17.8 13.3 17.75 10.7 17.8 M19.6 18.25 L19.5 17.95 19.2 17.85 16.95 18.15 Q16.95 18.5 17.2 18.7 L16.6 18.8 16.55 19.3 16.55 19.5 16.65 19.65 16.9 19.7 18.8 19.55 Q19.15 19.5 19.15 19.1 L19.0 18.8 18.8 18.75 19.2 18.75 Q19.6 18.65 19.6 18.25 M17.5 16.55 Q16.95 16.6 16.95 17.0 L17.0 17.5 17.95 17.55 18.7 17.5 19.0 17.05 Q18.1 16.5 17.5 16.55 M16.35 15.8 Q16.35 16.3 16.7 16.4 L18.45 16.4 Q18.85 16.3 18.85 15.95 L18.75 15.65 18.45 15.6 16.35 15.8" fill="#bb7520" fill-rule="evenodd" stroke="none"/>
    <path d="M10.05 15.0 L13.15 15.05 13.45 15.15 13.55 15.45 Q13.55 15.8 13.15 15.95 L10.5 15.95 9.95 15.35 10.05 15.0 M15.0 20.3 Q14.55 19.95 14.5 18.65 L14.5 17.15 Q14.5 14.4 15.0 13.7 15.45 14.15 15.5 15.2 L15.55 17.0 15.5 18.65 Q15.45 19.65 15.0 20.3 M16.35 15.8 L18.45 15.6 18.75 15.65 18.85 15.95 Q18.85 16.3 18.45 16.4 L16.7 16.4 Q16.35 16.3 16.35 15.8 M17.5 16.55 Q18.1 16.5 19.0 17.05 L18.7 17.5 17.95 17.55 17.0 17.5 16.95 17.0 Q16.95 16.6 17.5 16.55 M19.6 18.25 Q19.6 18.65 19.2 18.75 L18.8 18.75 19.0 18.8 19.15 19.1 Q19.15 19.5 18.8 19.55 L16.9 19.7 16.65 19.65 16.55 19.5 16.55 19.3 16.6 18.8 17.2 18.7 Q16.95 18.5 16.95 18.15 L19.2 17.85 19.5 17.95 19.6 18.25 M10.7 17.8 L13.3 17.75 13.6 17.8 13.75 18.1 13.3 18.55 11.0 18.55 Q10.65 18.4 10.65 17.95 10.95 17.85 10.7 17.8 M13.5 17.05 L10.35 17.05 Q9.95 16.95 9.95 16.5 10.45 16.4 10.05 16.3 L13.5 16.25 13.75 16.3 13.85 16.6 Q13.85 17.0 13.5 17.05 M12.8 18.8 L12.95 19.1 Q12.95 19.5 12.55 19.55 L11.15 19.55 Q10.75 19.45 10.75 18.95 L12.55 18.75 12.8 18.8" fill="#8a4d01" fill-rule="evenodd" stroke="none"/>
    <path d="M-4.4 -13.55 L-4.4 -13.0 -12.95 -11.9 -10.6 -11.75 -7.2 -11.8 Q-5.35 -12.0 -4.4 -12.8 L-4.4 -0.9 -4.9 -0.85 -4.9 -0.75 -4.4 -0.65 -4.4 0.7 -30.35 3.65 -30.35 -8.75 -30.35 -10.9 -4.4 -16.2 -4.4 -13.7 -4.55 -13.65 -4.4 -13.55 M-18.5 -11.1 L-18.45 -10.95 -14.95 -10.75 -5.65 -10.6 -5.0 -10.75 -4.6 -10.9 -4.65 -11.05 -4.9 -11.2 -18.15 -11.1 -17.8 -11.2 -18.5 -11.1 M-29.35 -6.15 L-29.3 -6.0 -28.05 -5.95 -20.15 -6.4 -14.85 -6.4 -13.85 -5.8 -9.4 -5.3 Q-7.65 -5.3 -6.0 -6.05 L-6.05 -6.15 -6.45 -6.2 -7.75 -5.95 -12.2 -5.65 -15.05 -6.75 -19.85 -6.75 -19.85 -6.7 -29.35 -6.15 M-29.3 -0.4 L-29.15 -0.4 -28.7 -1.0 -24.15 -1.45 Q-25.95 -1.3 -28.75 -1.4 -29.15 -1.3 -29.35 -1.0 L-29.35 -0.8 -29.3 -0.4 M-28.45 -3.2 L-26.65 -2.75 -23.6 -2.45 -19.5 -2.8 -15.85 -3.2 -12.4 -2.75 -11.25 -1.9 -14.05 -1.65 -15.7 -1.95 -19.4 -2.25 -22.5 -1.7 -19.9 -1.95 -15.65 -1.6 -13.1 -1.3 -10.65 -1.6 -10.05 -2.1 -10.6 -2.25 Q-11.2 -2.25 -11.85 -2.95 -12.55 -3.7 -16.55 -3.55 L-19.1 -3.2 -23.6 -2.8 -28.45 -3.2 M-30.35 -8.75 L-30.0 -8.6 Q-28.15 -10.2 -18.8 -11.8 L-4.75 -14.25 -4.9 -14.35 -19.2 -12.1 Q-28.15 -10.6 -30.35 -8.75 M-29.95 -7.8 L-29.55 -7.65 -27.05 -8.15 -24.65 -8.4 -15.75 -8.45 -13.8 -8.7 Q-13.05 -8.7 -12.45 -8.15 -11.8 -7.65 -10.9 -7.65 -10.55 -7.65 -9.7 -8.0 -8.95 -8.35 -8.95 -8.45 L-9.25 -8.6 Q-9.7 -8.2 -9.9 -8.15 L-11.2 -8.0 -12.9 -8.65 -15.55 -8.8 -24.35 -8.75 -27.4 -8.35 -29.95 -7.8 M-5.7 -0.3 L-5.65 -0.25 -4.9 -0.45 -4.95 -0.6 -5.7 -0.3 M-10.0 -3.85 L-9.0 -3.55 -5.05 -3.2 -5.0 -2.85 -4.8 -2.95 -4.7 -3.5 Q-5.4 -4.15 -7.35 -4.1 L-9.25 -3.95 -9.7 -3.95 -10.0 -4.25 -10.05 -4.05 -10.0 -3.85 M-9.65 0.6 L-8.3 0.8 -7.1 0.9 Q-6.7 0.9 -6.45 0.55 L-6.6 0.3 -14.85 1.05 -27.6 1.85 -30.3 1.85 -28.4 2.05 -26.2 2.15 -16.15 1.45 -9.65 0.6" fill="#5f3c12" fill-rule="evenodd" stroke="none"/>
    <path d="M30.8 4.0 L30.8 2.4 M30.8 -1.0 L30.8 -10.6 23.0 -11.85 5.85 -14.6 1.9 -15.2 -4.4 -16.2 M5.85 -22.25 L1.9 -20.55 1.9 -15.2 M5.85 -22.25 L22.8 -17.9 23.0 -11.85 M30.8 -0.85 L30.8 2.05 M30.8 5.3 L30.8 4.0 M28.85 5.15 L28.85 10.15 28.85 10.2 M28.85 10.45 L28.85 13.55 M28.85 13.8 L28.85 16.95 M28.85 17.0 L28.85 22.65 20.45 22.65 9.25 22.65 -4.15 22.65 -28.45 22.65 -28.45 12.4 M-28.45 12.3 L-28.45 7.0 -28.45 6.8 -28.45 5.2 -28.45 5.1 M-29.1 5.25 L-30.35 5.45 -30.35 3.65 -30.35 -8.75 -30.35 -10.9 -4.4 -16.2 M28.85 4.95 L28.85 5.15 M10.2 8.1 L20.45 9.3 20.45 9.85 20.45 13.15 M20.45 13.3 L20.45 14.15 20.45 20.3 20.45 22.65 M30.55 5.25 L28.85 4.95 M9.25 11.0 L9.25 8.25 M9.25 11.65 L9.25 13.1 20.45 14.15 M9.25 14.75 L9.25 13.1 M9.25 19.0 L9.25 15.15 M9.25 19.6 L9.25 20.3 15.0 20.3 20.45 20.3 M9.25 20.3 L9.25 22.65" fill="none" stroke="#432a0d" stroke-linecap="round" stroke-linejoin="round" stroke-width="2.0"/>
  </g>
</svg>
