<?xml version="1.0" encoding="UTF-8" standalone="no"?>
<svg xmlns:xlink="http://www.w3.org/1999/xlink" height="41.45px" width="16.5px" xmlns="http://www.w3.org/2000/svg">
  <g transform="matrix(1.0, 0.0, 0.0, 1.0, 12.45, 22.6)">
    <path d="M-10.45 12.25 L-10.45 11.85 -10.45 11.65 -9.1 10.15 -7.8 9.1 -7.0 9.0 -6.05 9.0 -3.0 9.2 Q-0.6 9.85 -0.6 10.55 L-0.6 10.8 -0.6 11.0 -1.0 12.05 -1.85 13.6 Q-2.65 15.4 -3.2 16.25 L-3.95 16.85 -5.1 16.85 -7.4 16.75 Q-10.45 16.15 -10.45 12.25 M-9.2 4.5 L-9.4 -1.1 -10.45 -14.6 -10.45 -16.4 Q-10.45 -18.3 -8.65 -19.5 -7.1 -20.6 -5.1 -20.6 -3.95 -20.6 -1.0 -18.9 2.05 -17.0 2.05 -15.85 L2.05 -15.65 2.05 -15.25 -2.55 3.75 -3.5 4.6 Q-4.25 5.0 -4.55 5.0 L-7.8 5.75 -8.45 5.75 -9.2 4.5" fill="#ffff00" fill-rule="evenodd" stroke="none"/>
    <path d="M-9.2 4.5 L-8.45 5.75 -7.8 5.75 -4.55 5.0 Q-4.25 5.0 -3.5 4.6 L-2.55 3.75 2.05 -15.25 2.05 -15.65 2.05 -15.85 Q2.05 -17.0 -1.0 -18.9 -3.95 -20.6 -5.1 -20.6 -7.1 -20.6 -8.65 -19.5 -10.45 -18.3 -10.45 -16.4 L-10.45 -14.6 -9.4 -1.1 -9.2 4.5 M-10.45 12.25 Q-10.45 16.15 -7.4 16.75 L-5.1 16.85 -3.95 16.85 -3.2 16.25 Q-2.65 15.4 -1.85 13.6 L-1.0 12.05 -0.6 11.0 -0.6 10.8 -0.6 10.55 Q-0.6 9.85 -3.0 9.2 L-6.05 9.0 -7.0 9.0 -7.8 9.1 -9.1 10.15 -10.45 11.65 -10.45 11.85 -10.45 12.25" fill="none" stroke="#000000" stroke-linecap="round" stroke-linejoin="round" stroke-width="4.0"/>
  </g>
</svg>
