<?xml version="1.0" encoding="UTF-8" standalone="no"?>
<svg xmlns:xlink="http://www.w3.org/1999/xlink" height="175.1px" width="311.55px" xmlns="http://www.w3.org/2000/svg">
  <g transform="matrix(1.0, 0.0, 0.0, 1.0, 55.9, 95.2)">
    <path d="M37.45 -94.7 Q123.5 -99.55 178.75 -55.3 201.2 -37.3 216.15 -12.9 229.25 8.6 234.55 31.4 197.25 73.3 149.25 66.6 71.0 75.9 26.1 35.65 19.35 6.3 22.7 -27.4 25.7 -58.35 37.45 -94.7" fill="#ff6931" fill-rule="evenodd" stroke="none"/>
    <path d="M48.45 -94.0 Q153.9 -64.6 195.05 60.95 L192.15 62.05 Q150.3 -65.8 41.1 -92.9 95.95 -27.25 131.05 68.1 L127.8 68.25 Q92.7 -26.65 37.9 -91.9 31.15 -0.25 70.5 61.0 L65.8 59.4 Q29.6 0.5 34.55 -85.55 L37.35 -94.7 Q52.2 -95.55 66.2 -94.9 170.05 -79.25 232.95 33.05 L230.8 35.4 Q163.4 -85.5 48.45 -94.0" fill="#c44f24" fill-rule="evenodd" stroke="none"/>
    <path d="M208.8 -24.55 Q179.45 17.8 127.85 39.9 91.8 55.4 56.9 55.8 39.85 48.05 26.1 35.65 24.95 30.7 24.15 25.65 67.6 30.1 113.1 10.6 160.15 -9.55 188.75 -46.65 199.75 -36.35 208.6 -24.2 L208.8 -24.55 M120.1 -84.05 Q105.45 -54.7 73.6 -40.5 48.0 -29.0 23.3 -32.75 26.75 -61.5 37.45 -94.7 83.65 -97.3 120.95 -85.75 L120.1 -84.05" fill="#c40000" fill-rule="evenodd" stroke="none"/>
    <path d="M158.0 -15.7 Q167.0 -2.8 174.8 12.0 L172.3 13.95 Q164.55 -0.9 155.6 -13.8 L158.0 -15.7 M63.55 55.55 Q55.4 41.6 49.55 26.2 L52.75 26.0 Q58.75 41.4 67.05 55.35 L63.55 55.55 M118.25 43.75 Q111.9 28.4 105.0 13.95 L107.9 12.8 Q114.8 27.3 121.1 42.65 L118.25 43.75 M48.5 -94.0 Q81.6 -84.75 108.35 -66.1 L106.3 -63.7 Q77.4 -83.85 41.15 -92.9 60.65 -69.55 77.75 -42.4 L74.85 -41.05 Q57.7 -68.4 37.95 -91.9 35.6 -60.1 38.85 -31.95 L35.8 -31.85 Q32.95 -57.25 34.6 -85.55 L34.6 -85.6 37.45 -94.7 Q52.3 -95.55 66.25 -94.9 93.55 -90.8 118.05 -80.0 L116.45 -77.4 117.0 -77.15 Q85.2 -91.3 48.5 -94.0 M180.7 -37.0 Q191.35 -26.6 201.2 -14.4 L199.2 -12.0 Q189.3 -24.25 178.65 -34.75 L180.7 -37.0" fill="#7e0c0c" fill-rule="evenodd" stroke="none"/>
    <path d="M153.6 -62.75 L153.6 -62.5 Q154.0 -62.35 152.8 -62.35 151.0 -62.35 144.65 -67.05 L132.6 -76.55 Q137.05 -76.55 143.85 -71.2 L153.6 -62.75 M159.2 -63.85 L159.0 -63.15 Q158.75 -62.85 158.0 -62.85 L154.05 -65.2 Q150.2 -67.7 149.65 -68.6 150.85 -70.0 154.8 -67.65 158.55 -65.45 159.2 -63.85 M118.7 -66.8 Q119.45 -64.95 119.45 -62.15 L119.35 -59.1 Q119.1 -58.0 117.75 -55.7 L117.15 -55.7 117.0 -56.25 117.15 -62.05 Q117.3 -65.7 118.7 -66.8 M123.0 -64.65 L123.45 -60.3 Q122.75 -47.9 120.6 -45.55 L120.5 -45.4 Q120.4 -45.35 120.4 -46.1 120.4 -48.6 121.3 -56.2 L122.3 -64.55 123.0 -64.65 M125.7 -56.4 Q126.3 -54.55 126.3 -52.2 126.3 -50.05 125.25 -47.5 L124.9 -47.5 124.8 -47.7 Q124.65 -47.85 124.65 -48.55 L124.9 -52.25 Q125.25 -55.25 125.7 -56.4 M172.75 -53.7 L172.95 -53.7 Q173.3 -53.3 172.15 -53.3 L171.05 -53.9 Q170.0 -54.7 169.6 -55.85 171.8 -55.85 172.75 -53.7 M201.1 0.8 Q201.1 2.0 200.6 1.15 196.4 -3.25 187.7 -13.75 190.85 -14.65 196.25 -7.45 201.1 -1.0 201.1 0.8 M211.95 15.15 L211.75 15.45 210.85 15.75 Q209.3 15.75 209.3 13.9 L209.3 13.15 209.4 13.05 209.8 13.05 209.9 11.95 Q210.5 11.95 211.05 12.45 L212.2 14.1 212.0 14.95 211.95 15.0 211.95 15.15 M216.0 20.55 L216.0 21.3 215.85 21.5 215.35 21.6 Q214.4 19.15 213.2 19.35 213.6 21.0 214.55 22.3 216.1 24.5 217.8 22.95 L218.15 23.4 218.35 24.5 218.25 25.3 216.8 25.55 Q214.95 25.55 213.6 23.55 L212.25 21.0 212.25 18.25 Q213.6 18.15 214.85 19.05 216.0 19.9 216.0 20.55 M196.8 -0.05 Q195.25 -0.7 193.15 -3.05 L189.8 -6.65 190.05 -7.8 190.15 -7.9 193.75 -4.4 Q196.4 -1.65 196.8 -0.05 M130.35 51.35 Q128.15 49.4 125.95 42.0 124.05 35.4 124.05 32.1 L124.15 31.15 124.2 31.1 124.9 31.0 Q130.1 42.75 130.35 51.35 M126.9 55.15 L126.8 56.55 126.55 56.8 Q125.8 53.95 120.95 40.3 116.75 28.5 116.75 26.85 L116.8 25.15 Q119.25 28.25 123.2 40.65 126.9 52.35 126.9 55.15 M185.8 22.55 Q183.4 30.15 176.55 34.95 L175.35 34.5 180.75 28.3 185.8 22.55 M191.6 20.05 Q188.6 31.85 177.5 40.3 176.8 40.2 176.75 39.8 L184.65 29.35 191.6 20.05 M157.05 42.35 L157.8 42.6 Q158.1 42.85 158.1 43.6 L157.85 44.9 157.6 46.15 157.25 46.35 156.55 46.7 155.65 46.05 Q155.5 45.75 155.5 44.9 155.5 43.5 157.05 42.35 M162.6 49.1 Q162.6 51.3 160.85 51.3 159.55 51.3 159.2 50.35 159.05 50.05 159.05 49.25 159.05 46.9 160.85 46.75 162.6 46.6 162.6 49.1 M-45.6 -93.5 Q-45.15 -94.0 -45.15 -92.8 -45.15 -92.2 -48.25 -87.9 -51.85 -82.95 -54.9 -80.9 L-55.65 -80.85 Q-55.9 -80.95 -55.9 -81.7 -55.9 -83.95 -52.05 -88.55 -48.05 -93.3 -45.6 -93.5 M40.65 -77.95 Q41.5 -72.7 41.35 -61.9 41.15 -51.3 42.1 -45.8 L41.85 -45.55 Q40.05 -48.25 39.6 -57.8 39.4 -62.65 39.45 -67.85 L38.9 -72.85 Q38.7 -77.3 40.65 -77.95 M95.65 -82.15 Q96.75 -82.15 97.3 -81.55 97.8 -81.15 97.8 -80.5 97.8 -79.85 95.9 -78.8 L94.0 -79.15 93.85 -79.55 93.65 -80.55 Q93.65 -82.15 95.65 -82.15 M104.85 -77.85 L104.9 -77.5 103.9 -77.35 102.45 -77.25 102.45 -75.8 105.85 -76.2 Q106.35 -76.65 106.35 -75.5 106.35 -75.1 104.7 -74.05 L102.45 -74.15 101.55 -75.65 101.25 -76.5 Q101.25 -78.15 101.9 -78.55 102.7 -79.0 104.85 -77.85 M44.0 -71.3 Q45.3 -67.7 46.3 -59.35 47.3 -51.1 48.9 -47.0 L48.5 -46.05 Q46.1 -48.75 44.35 -58.85 43.05 -66.35 43.05 -69.25 L43.2 -70.4 43.3 -71.3 44.0 -71.3 M53.75 -50.6 L53.5 -49.9 53.05 -49.2 Q51.0 -50.0 50.55 -51.95 L49.6 -55.25 49.7 -56.15 Q51.05 -56.15 52.1 -54.1 53.15 -51.5 53.75 -50.6 M103.9 -10.2 Q103.55 -9.35 103.25 -9.25 96.4 -19.75 86.6 -36.2 L86.75 -36.75 Q91.45 -32.05 96.2 -24.15 L103.9 -10.2 M105.6 -16.2 L105.4 -13.75 104.9 -13.6 101.9 -19.35 Q100.05 -23.2 98.25 -25.75 101.15 -25.9 103.65 -21.6 105.6 -18.05 105.6 -16.2 M50.65 -11.95 L51.2 -11.0 51.5 -9.65 50.65 -7.95 49.0 -6.0 46.85 -6.45 46.75 -6.7 Q46.6 -6.85 46.6 -7.55 46.6 -9.05 47.05 -9.65 47.85 -10.85 50.65 -11.95 M53.05 -3.6 L53.25 -3.4 53.5 -2.55 Q53.5 -1.65 52.65 -0.75 51.9 0.05 51.35 0.05 50.25 0.05 49.95 -0.8 L49.85 -1.8 Q49.85 -2.9 50.8 -3.45 L53.05 -3.6 M76.05 6.0 L75.95 6.2 75.35 6.45 Q74.4 5.75 73.9 4.8 73.35 4.25 70.9 4.25 69.7 4.25 69.6 6.05 69.6 9.95 73.4 9.95 74.15 9.95 74.35 9.25 74.6 8.25 75.2 7.8 L76.0 8.6 76.3 9.75 Q76.3 10.9 75.45 11.75 74.6 12.55 73.55 12.55 70.0 12.55 68.4 10.55 67.35 9.25 67.35 7.85 67.35 3.6 68.3 2.75 70.15 1.05 76.05 6.0 M101.5 55.15 L96.0 63.5 Q91.6 68.55 85.65 68.55 L82.2 68.25 79.4 67.75 79.4 67.1 Q90.25 66.05 95.25 61.5 99.0 56.5 101.5 55.15 M104.2 59.45 L105.0 59.7 105.4 60.1 Q102.3 64.8 100.5 66.6 96.8 70.3 90.9 72.25 L89.7 71.65 Q90.45 70.7 93.85 68.35 L98.25 65.15 Q102.95 60.25 104.2 59.45 M111.35 62.95 L112.05 63.1 Q112.25 63.15 112.25 63.9 112.25 64.6 107.95 68.9 103.15 73.75 100.4 73.75 L99.25 73.6 98.75 73.05 Q100.05 71.3 104.9 67.45 109.6 63.8 111.35 62.95 M116.35 65.85 L116.55 66.1 113.45 70.5 Q111.65 73.05 108.95 74.15 L108.3 74.1 108.2 73.3 Q108.2 72.35 109.5 71.0 L112.05 68.7 113.75 66.85 Q115.0 65.75 116.35 65.85 M29.55 -0.9 Q29.55 -0.65 30.25 -0.3 L29.7 0.6 25.9 0.9 23.85 0.65 22.4 0.2 23.3 -0.65 29.55 -0.9 M39.85 20.8 Q39.1 21.3 38.7 22.05 L31.4 22.55 Q27.2 22.55 19.9 20.3 L10.65 17.4 10.4 17.05 Q13.6 17.05 26.8 18.9 L39.85 20.8 M12.8 11.95 Q18.25 14.45 20.6 15.1 L33.3 15.9 Q34.55 16.3 34.7 16.6 33.9 17.45 32.35 18.0 L28.55 18.5 Q24.05 18.5 18.85 15.9 16.05 14.5 12.4 12.2 L12.8 11.95 M28.55 9.95 Q29.6 10.15 30.2 10.65 L29.4 11.45 26.85 11.85 Q20.75 11.85 17.55 7.65 18.2 7.35 21.35 8.45 25.25 9.8 28.55 9.95" fill="#c44f24" fill-rule="evenodd" stroke="none"/>
    <path d="M183.6 -36.2 Q179.9 -26.2 170.2 -21.8 160.5 -17.35 150.5 -21.05 140.55 -24.7 136.1 -34.35 131.65 -44.05 135.35 -54.05 135.85 -55.5 136.5 -56.75 162.0 -54.4 184.45 -39.05 L183.6 -36.2" fill="#d9a700" fill-rule="evenodd" stroke="none"/>
    <path d="M37.3 -94.7 Q123.4 -99.55 178.7 -55.25 201.15 -37.3 216.1 -12.9 226.9 4.95 232.45 23.65 222.75 9.85 209.7 -2.75 197.0 -15.05 182.5 -24.8 179.5 -20.9 175.0 -17.95 162.1 -9.55 147.4 -15.0 132.65 -20.4 128.3 -35.15 126.0 -43.1 127.85 -50.35 80.75 -64.3 26.85 -55.05 30.7 -74.0 37.3 -94.7" fill="#7e1111" fill-opacity="0.6" fill-rule="evenodd" stroke="none"/>
    <path d="M179.6 -36.8 Q177.1 -30.0 170.5 -26.9 163.85 -23.85 157.05 -26.35 150.25 -28.9 147.2 -35.5 144.2 -42.15 146.7 -48.95 147.9 -52.2 150.1 -54.6 166.0 -50.8 180.7 -41.55 180.5 -39.2 179.6 -36.8" fill="#ffff00" fill-rule="evenodd" stroke="none"/>
    <path d="M165.3 -39.35 Q150.3 -46.75 134.7 -52.05 L135.35 -54.0 136.55 -56.75 Q162.0 -54.4 184.45 -39.05 L183.55 -36.2 Q182.45 -33.25 180.9 -30.8 L165.3 -39.35" fill="#7e1111" fill-opacity="0.6" fill-rule="evenodd" stroke="none"/>
    <path d="M255.65 69.55 Q248.15 77.95 235.55 79.55 225.55 80.8 210.45 77.75 L184.35 71.4 Q169.2 67.65 161.15 67.55 L149.15 66.6 Q70.9 75.9 26.0 35.65 19.3 6.35 22.65 -27.4 L23.0 -31.05 33.05 -30.45 32.9 -31.8 Q32.8 -36.35 35.7 -38.25 38.5 -40.15 42.65 -38.35 46.8 -36.5 49.8 -32.0 51.5 -29.5 52.25 -26.9 60.7 -24.75 68.6 -21.25 84.2 -14.4 100.7 -1.05 109.85 6.35 125.7 20.05 139.0 30.55 149.95 32.8 175.7 38.15 198.4 35.3 220.55 32.55 237.55 22.35 L247.15 46.3 Q254.7 65.35 255.65 69.55 M45.25 -30.25 Q42.2 -31.6 40.1 -30.15 L39.45 -29.65 48.65 -27.8 Q47.1 -29.4 45.25 -30.25 M178.2 0.95 Q176.25 4.7 173.35 6.7 170.5 8.6 168.25 7.45 166.05 6.4 165.8 2.9 165.55 -0.6 167.45 -4.4 169.35 -8.2 172.3 -10.1 175.2 -12.0 177.4 -10.95 179.65 -9.75 179.85 -6.3 180.05 -2.85 178.2 0.95 M209.4 9.0 Q213.15 5.05 217.05 3.5 221.0 1.9 222.8 3.55 224.55 5.2 223.1 9.05 221.75 13.0 218.05 16.85 215.15 19.8 212.05 21.4 L213.35 20.15 Q216.1 17.4 217.1 14.45 218.1 11.7 216.8 10.5 215.5 9.25 212.65 10.45 209.7 11.6 207.1 14.35 204.8 16.75 203.7 19.05 203.75 17.95 204.3 16.55 205.7 12.7 209.4 9.0" fill="#ffc400" fill-opacity="0.4" fill-rule="evenodd" stroke="none"/>
  </g>
</svg>
