<?xml version="1.0" encoding="UTF-8" standalone="no"?>
<svg xmlns:xlink="http://www.w3.org/1999/xlink" height="166.4px" width="488.65px" xmlns="http://www.w3.org/2000/svg">
  <g transform="matrix(1.0, 0.0, 0.0, 1.0, 242.2, 82.7)">
    <path d="M-0.2 -11.15 L0.45 -11.0 0.5 -11.1 Q2.65 -13.65 5.85 -13.95 9.1 -14.25 11.65 -12.15 L11.75 -12.05 Q11.6 -14.05 12.85 -15.6 14.2 -17.2 16.2 -17.4 18.2 -17.55 19.8 -16.3 21.15 -15.1 21.45 -13.4 22.1 -15.25 23.5 -16.85 26.5 -20.55 31.25 -21.0 35.95 -21.45 39.65 -18.4 L41.4 -16.6 Q41.9 -18.1 43.0 -19.45 45.35 -22.2 48.9 -22.55 52.3 -22.9 55.0 -20.8 L55.05 -20.95 Q54.3 -22.85 54.45 -24.9 54.7 -28.3 57.15 -29.95 59.65 -31.65 62.9 -30.55 66.2 -29.5 68.35 -26.25 69.35 -24.8 69.8 -23.25 73.2 -25.3 77.45 -25.75 84.8 -26.4 90.55 -21.7 93.05 -19.7 94.55 -17.2 95.05 -18.4 95.9 -19.55 98.15 -22.65 101.5 -23.65 104.75 -24.6 107.2 -22.9 108.15 -22.2 108.75 -21.2 109.65 -21.7 110.75 -21.85 112.8 -22.05 114.35 -20.75 115.15 -20.1 115.6 -19.25 L115.95 -19.65 Q119.05 -23.45 123.95 -23.95 128.95 -24.4 132.75 -21.25 L133.95 -20.1 134.1 -20.2 Q138.0 -24.1 143.95 -24.7 149.9 -25.25 154.5 -22.15 L155.55 -21.35 Q155.45 -23.2 156.25 -24.9 157.85 -28.25 162.0 -29.2 166.25 -30.1 170.55 -28.05 174.9 -26.0 176.8 -22.2 178.75 -18.35 177.15 -14.95 178.6 -11.6 177.15 -8.55 L176.8 -7.85 Q177.95 -4.65 176.6 -1.8 175.55 0.45 173.3 1.6 172.3 6.05 169.4 13.4 164.75 25.1 164.4 28.25 163.8 33.3 161.7 36.25 159.3 39.55 153.95 41.75 143.95 45.85 111.9 49.05 L57.95 49.15 56.2 49.6 -56.65 49.7 -58.15 50.1 -80.85 50.4 -82.95 51.15 -123.7 51.15 Q-154.15 47.55 -169.8 31.45 -183.05 17.8 -183.05 -1.2 -183.05 -13.35 -172.85 -25.7 L-170.75 -28.05 Q-171.95 -31.55 -169.7 -35.0 -167.45 -38.7 -162.95 -40.3 -158.4 -42.0 -154.35 -40.7 -150.2 -39.4 -148.95 -35.85 -148.3 -34.1 -148.55 -32.2 L-147.45 -32.95 Q-142.6 -35.6 -136.7 -34.5 -130.85 -33.4 -127.3 -29.15 L-127.2 -29.0 -125.85 -30.05 Q-121.8 -32.85 -116.9 -31.95 -112.05 -31.05 -109.25 -26.95 L-109.0 -26.45 -107.65 -27.9 Q-105.95 -29.05 -103.95 -28.7 -102.9 -28.5 -102.0 -27.9 -101.35 -28.8 -100.3 -29.35 -97.7 -30.9 -94.5 -29.65 -91.3 -28.35 -89.35 -25.05 -88.65 -23.8 -88.25 -22.5 -86.45 -24.9 -83.75 -26.7 -77.7 -30.85 -70.4 -29.5 -66.2 -28.7 -63.05 -26.3 -62.45 -27.8 -61.3 -29.2 -58.85 -32.2 -55.5 -32.9 -52.15 -33.7 -49.85 -31.85 -47.5 -29.95 -47.55 -26.5 -47.65 -24.4 -48.6 -22.5 -45.7 -24.35 -42.3 -23.75 -38.75 -23.05 -36.75 -20.05 -35.75 -18.65 -35.35 -17.1 L-33.4 -18.7 Q-29.45 -21.4 -24.8 -20.55 -20.15 -19.65 -17.5 -15.7 -16.25 -13.95 -15.85 -12.05 -15.3 -13.75 -13.85 -14.8 -12.2 -15.9 -10.2 -15.55 -8.2 -15.2 -7.05 -13.55 -5.9 -11.85 -6.3 -9.85 L-6.15 -9.95 Q-3.4 -11.8 -0.2 -11.15" fill="#707070" fill-rule="evenodd" stroke="none"/>
    <path d="M-95.8 -12.9 Q-94.5 -4.1 -98.1 2.9 -101.65 9.8 -108.05 10.75 -114.4 11.65 -119.85 6.05 -125.25 0.45 -126.55 -8.35 -127.85 -17.2 -124.3 -24.15 -120.7 -31.1 -114.35 -32.0 -107.95 -32.95 -102.55 -27.3 -97.1 -21.75 -95.8 -12.9" fill="#7e7e7e" fill-opacity="0.5019608" fill-rule="evenodd" stroke="none"/>
    <path d="M-99.2 -23.05 Q-96.65 -18.65 -95.8 -12.95 -94.95 -7.1 -96.2 -2.1 L-96.6 -2.1 Q-96.95 -2.15 -97.2 -5.2 L-97.35 -7.7 -97.55 -9.6 Q-97.9 -11.8 -98.45 -13.4 -99.2 -15.75 -100.35 -17.4 -100.05 -16.6 -99.7 -14.75 L-98.95 -10.85 Q-98.2 -5.65 -98.6 -3.6 L-98.75 -2.95 Q-99.05 -2.55 -99.55 -2.65 -99.8 -2.7 -100.05 -3.85 L-100.5 -6.8 Q-101.35 -11.85 -103.5 -15.75 L-103.6 -15.8 Q-103.35 -15.35 -103.05 -13.95 L-102.3 -10.85 Q-101.35 -6.5 -101.6 -5.2 L-101.8 -4.55 Q-102.05 -4.1 -102.65 -4.2 -103.1 -4.3 -103.95 -7.4 L-104.7 -9.8 -105.35 -11.7 Q-105.1 -10.6 -105.0 -8.9 -104.9 -7.05 -105.15 -6.0 L-105.2 -5.55 -105.35 -4.9 Q-105.7 -4.0 -106.35 -4.1 L-106.6 -5.25 -107.15 -7.85 Q-108.15 -11.9 -109.2 -13.15 L-108.9 -10.5 -108.8 -7.85 -108.95 -7.2 Q-108.95 -7.2 -109.05 -7.15 L-109.25 -7.1 -109.8 -8.5 -110.2 -9.95 -110.15 -9.95 -109.95 -10.05 -109.65 -9.6 -109.45 -9.05 -109.4 -9.0 -109.4 -9.15 Q-109.25 -9.75 -109.4 -10.7 L-109.8 -12.55 Q-110.1 -13.55 -110.55 -14.25 L-111.6 -15.2 -111.25 -15.6 -110.55 -15.6 Q-109.8 -15.45 -108.8 -14.4 L-108.1 -13.65 -107.7 -13.25 -108.5 -14.45 -109.15 -15.95 -108.9 -16.3 Q-108.65 -16.6 -108.2 -16.5 -106.75 -16.2 -105.15 -14.15 L-103.75 -12.05 -103.75 -12.0 -105.45 -16.65 Q-106.0 -18.6 -107.35 -20.15 L-108.15 -21.05 -108.5 -21.45 -108.2 -21.85 -107.35 -21.95 Q-105.45 -21.55 -103.5 -18.85 -102.4 -17.25 -101.15 -14.6 L-101.85 -16.95 -102.8 -19.4 -104.8 -22.35 -106.2 -24.5 -105.9 -25.0 -105.25 -25.15 Q-104.25 -24.95 -102.2 -22.45 L-99.5 -18.7 Q-99.65 -19.65 -101.1 -22.05 L-102.1 -23.65 -102.45 -24.45 Q-102.25 -25.35 -101.65 -25.2 L-100.2 -24.2 -99.2 -23.05 M-116.3 -1.1 L-117.2 -3.2 -118.55 -6.75 Q-120.3 -11.6 -120.15 -12.3 L-119.85 -12.8 -119.2 -12.95 -116.85 -8.6 Q-114.3 -4.0 -113.0 -2.65 L-113.6 -5.95 Q-113.95 -8.35 -113.75 -9.35 L-113.6 -9.6 -113.45 -9.8 -113.25 -9.8 -112.65 -9.0 -111.8 -8.0 Q-110.55 -6.6 -109.15 -5.75 L-109.85 -7.0 -110.3 -8.15 -109.4 -6.7 -108.5 -5.1 -108.55 -4.95 -108.85 -4.95 Q-111.8 -7.15 -112.85 -8.2 -112.45 -4.9 -111.0 -2.25 L-110.1 -0.75 -109.75 -0.05 Q-109.8 0.4 -110.15 0.5 L-111.05 0.45 Q-112.95 0.1 -114.55 -1.7 L-116.3 -4.3 -116.35 -4.35 Q-114.9 -1.35 -112.25 1.8 L-110.6 3.55 -110.0 4.35 -110.3 4.9 -111.3 5.0 Q-112.75 4.7 -115.85 1.7 L-118.2 -0.75 -119.95 -2.55 Q-118.4 0.45 -114.55 4.9 L-112.15 7.6 -111.2 8.8 -111.5 9.25 -112.35 9.3 Q-113.85 9.0 -116.45 7.25 L-118.2 5.9 -119.25 5.1 -117.4 7.4 -115.65 9.3 -115.75 9.2 Q-117.8 8.05 -119.8 6.0 -122.35 3.4 -123.95 0.1 L-124.0 -0.15 -125.35 -3.7 -126.05 -6.1 -126.5 -8.45 -126.65 -9.85 -126.6 -10.0 Q-126.45 -10.9 -125.75 -10.8 -124.8 -10.6 -123.85 -7.45 L-123.2 -4.8 -122.6 -2.65 -121.75 -0.75 -120.55 1.35 Q-118.9 3.85 -115.45 6.0 -118.15 3.35 -120.05 0.35 -121.7 -2.4 -122.5 -5.0 L-123.15 -6.85 -124.2 -9.75 Q-125.6 -13.85 -125.35 -15.15 -125.15 -16.2 -124.8 -16.15 -124.5 -16.05 -124.1 -15.0 -123.5 -13.7 -122.15 -9.4 -121.0 -5.25 -116.3 -1.1" fill="#000000" fill-opacity="0.5019608" fill-rule="evenodd" stroke="none"/>
    <path d="M-102.75 -65.7 Q-100.9 -67.4 -90.2 -65.7 L-83.0 -64.3 -79.85 -63.6 -103.6 -44.5 Q-104.1 -49.1 -104.25 -54.05 -104.6 -63.95 -102.75 -65.7" fill="#8a8a8a" fill-rule="evenodd" stroke="none"/>
    <path d="M-80.5 -82.05 Q-78.1 -84.15 -56.8 -79.35 L-36.05 -74.1 -75.0 -63.05 Q-77.35 -66.95 -79.2 -71.3 -82.85 -80.0 -80.5 -82.05" fill="#8a8a8a" fill-rule="evenodd" stroke="none"/>
    <path d="M-121.55 -47.4 Q-120.1 -49.05 -109.5 -40.95 -104.2 -36.9 -99.2 -32.5 L-116.1 -13.15 Q-118.05 -21.0 -119.65 -29.25 -122.9 -45.75 -121.55 -47.4" fill="#8a8a8a" fill-rule="evenodd" stroke="none"/>
    <path d="M-82.55 -63.5 L-83.65 -62.25 -84.75 -61.05 Q-85.25 -60.35 -85.25 -59.7 -85.25 -59.4 -86.1 -58.45 L-99.95 -47.35 Q-102.35 -45.95 -103.8 -45.8 L-103.7 -45.85 -104.25 -54.0 -104.25 -58.15 -103.5 -58.1 Q-102.15 -58.1 -98.3 -60.2 L-91.15 -64.25 -88.95 -65.45 -82.95 -64.25 -82.25 -64.1 -82.55 -63.5 M-56.2 -75.55 Q-59.0 -73.7 -63.35 -71.75 -67.75 -69.75 -71.85 -68.5 -75.05 -67.5 -77.3 -67.2 L-79.2 -71.3 -79.6 -72.35 Q-76.5 -72.5 -72.4 -74.85 L-69.3 -76.8 Q-67.7 -77.85 -67.0 -78.1 L-64.35 -78.95 -59.75 -80.0 -56.85 -79.35 -53.2 -78.5 Q-53.25 -77.5 -56.2 -75.55 M-120.85 -38.7 Q-119.0 -35.8 -118.15 -35.8 -116.45 -35.8 -115.2 -37.1 -114.35 -38.0 -113.45 -39.95 L-112.0 -42.75 -109.55 -40.95 -108.4 -40.05 Q-108.9 -38.05 -110.45 -34.3 L-112.1 -30.5 -113.0 -28.1 -113.7 -25.0 -114.8 -20.7 Q-115.8 -17.45 -116.85 -16.15 L-119.7 -29.25 -121.5 -39.75 -120.85 -38.7" fill="#000000" fill-opacity="0.4" fill-rule="evenodd" stroke="none"/>
    <path d="M-117.8 -13.95 L-112.2 -13.5 Q-108.6 -12.75 -104.6 -11.35 -100.45 -10.0 -97.7 -8.5 -94.65 -6.85 -94.3 -5.6 -93.95 -4.4 -99.4 -3.9 -104.2 -3.5 -111.8 -3.85 L-124.85 -4.95 Q-131.05 -5.8 -132.05 -6.75 -133.95 -8.6 -127.8 -11.05 -122.75 -13.15 -117.8 -13.95" fill="#535353" fill-rule="evenodd" stroke="none"/>
    <path d="M-117.65 -10.0 L-117.65 -10.1 -114.95 -32.2 -114.6 -32.95 Q-109.65 -43.45 -98.85 -53.45 -88.95 -62.5 -75.6 -69.85 -63.1 -76.75 -50.35 -80.6 -38.65 -84.15 -26.65 -81.45 -15.8 -79.05 -6.1 -71.95 2.95 -65.3 9.05 -56.05 15.05 -46.9 16.65 -37.85 18.1 -28.8 15.7 -18.6 13.3 -8.35 7.3 0.9 1.0 10.7 -8.15 17.6 -18.15 25.05 -30.3 28.15 -42.85 31.45 -57.25 30.35 -71.4 29.3 -84.1 24.25 -97.25 18.95 -105.85 10.55 -113.5 3.05 -116.55 -5.95 L-117.65 -10.0" fill="#c5c5c5" fill-rule="evenodd" stroke="none"/>
    <path d="M-17.0 -58.75 Q-27.0 -66.75 -41.4 -68.95 -54.35 -70.9 -70.05 -68.05 -76.55 -66.85 -83.25 -64.85 L-83.55 -64.9 -83.75 -65.05 -78.15 -68.45 -70.4 -70.15 Q-54.35 -73.1 -41.05 -71.1 -26.05 -68.85 -15.65 -60.4 -5.35 -52.1 0.2 -38.1 0.5 -41.15 0.05 -45.2 -0.8 -53.0 -4.25 -60.25 -8.35 -68.85 -15.35 -74.65 -19.75 -78.3 -25.0 -80.65 L-25.25 -80.9 -25.25 -81.2 -25.25 -81.15 Q-20.45 -79.95 -15.85 -77.8 L-14.0 -76.35 Q-6.65 -70.2 -2.3 -61.15 1.3 -53.6 2.15 -45.5 2.75 -40.3 2.15 -36.55 3.5 -37.75 4.75 -39.65 L4.8 -39.7 Q6.9 -42.85 8.05 -47.05 9.25 -51.3 9.05 -55.25 L9.05 -55.35 9.15 -55.6 9.4 -55.75 9.25 -55.65 11.2 -52.5 Q11.0 -49.55 10.15 -46.45 8.85 -41.9 6.55 -38.45 5.3 -36.6 3.95 -35.35 11.05 -35.2 16.9 -33.2 L17.25 -33.1 17.1 -33.1 17.15 -30.85 17.0 -30.9 16.25 -31.15 16.2 -31.15 Q10.75 -33.05 4.15 -33.2 7.3 -30.65 9.85 -26.2 L9.85 -26.15 Q12.9 -20.8 14.25 -13.65 L12.9 -9.95 12.75 -10.05 12.6 -10.3 12.55 -10.8 Q11.35 -19.15 7.95 -25.15 5.3 -29.85 1.85 -32.15 3.55 -19.2 -1.75 -6.45 -7.45 7.1 -19.7 16.95 -31.7 26.6 -47.4 30.5 L-56.1 30.35 -56.05 30.15 Q-55.9 30.0 -55.75 29.95 L-49.85 28.85 Q-33.4 25.2 -21.05 15.25 -9.2 5.8 -3.75 -7.3 1.2 -19.2 -0.25 -31.35 L-4.3 -26.9 Q-8.25 -23.15 -13.7 -19.3 -26.15 -10.55 -41.65 -4.65 -59.95 2.3 -78.35 3.45 -97.0 4.65 -114.1 -0.35 L-115.35 -2.85 -115.05 -2.85 Q-97.55 2.5 -78.5 1.3 -60.4 0.15 -42.4 -6.65 -27.2 -12.45 -14.9 -21.05 -9.65 -24.8 -5.8 -28.45 -2.7 -31.4 -1.0 -33.95 -5.55 -37.1 -12.35 -39.25 -19.45 -41.5 -28.6 -42.5 -46.5 -44.45 -66.75 -41.35 -87.25 -38.3 -101.55 -31.3 -108.9 -27.7 -113.5 -23.45 L-116.45 -20.3 -116.0 -24.0 -115.0 -25.0 Q-110.15 -29.45 -102.45 -33.25 -87.95 -40.35 -67.05 -43.5 -46.55 -46.6 -28.35 -44.6 -19.0 -43.6 -11.7 -41.3 -5.9 -39.45 -1.7 -36.95 -6.95 -50.65 -17.0 -58.75" fill="#9f9f9f" fill-rule="evenodd" stroke="none"/>
    <path d="M-53.0 -76.85 L-52.6 -76.35 -52.45 -76.05 Q-52.45 -74.75 -53.25 -73.1 -54.1 -71.45 -55.5 -69.85 -58.95 -66.1 -63.35 -64.85 L-63.75 -65.1 Q-59.45 -67.05 -56.55 -70.85 -54.85 -73.05 -53.0 -76.85 M-54.7 -69.85 L-54.6 -69.85 -54.6 -69.55 Q-54.6 -68.7 -55.8 -67.35 L-57.75 -65.45 -58.15 -65.45 -58.2 -65.4 -58.25 -65.65 -57.0 -67.65 Q-55.6 -69.5 -54.7 -69.85 M-70.65 -65.85 Q-70.8 -65.5 -71.25 -65.5 -71.95 -65.5 -73.1 -66.35 -74.15 -67.1 -74.2 -67.4 -74.05 -67.45 -72.55 -66.75 L-70.65 -65.85 M-67.95 -57.55 L-67.85 -57.4 -67.8 -57.0 Q-67.8 -55.35 -69.35 -52.95 -71.05 -50.25 -73.05 -49.45 L-73.2 -49.45 -73.3 -49.7 -71.9 -51.5 -69.95 -53.7 -68.85 -55.75 -67.95 -57.55 M-69.95 -55.7 L-69.8 -55.45 -71.3 -53.7 -74.6 -50.65 Q-79.85 -46.5 -84.15 -46.5 L-85.6 -46.8 Q-79.5 -48.7 -75.9 -50.7 -72.25 -52.8 -69.95 -55.7 M-67.75 -52.8 L-67.6 -52.65 -67.55 -52.25 Q-67.55 -51.7 -68.45 -50.7 -69.45 -49.65 -70.1 -49.9 -70.05 -50.45 -69.2 -51.4 L-67.75 -52.8 M-67.15 -32.0 Q-67.15 -31.45 -67.8 -30.65 -68.6 -29.65 -69.45 -29.65 L-70.2 -29.75 Q-70.1 -31.05 -69.65 -32.05 L-68.6 -33.25 Q-68.0 -33.6 -67.6 -33.25 -67.15 -32.95 -67.15 -32.0 M-69.55 -30.65 L-69.5 -30.4 -68.7 -30.95 -68.0 -31.7 -67.95 -31.85 Q-68.55 -32.0 -69.05 -31.45 L-69.55 -30.65 M-64.9 -32.9 L-64.8 -32.95 -64.7 -32.65 Q-64.7 -32.3 -66.85 -29.4 -68.95 -26.55 -69.75 -25.75 L-69.8 -25.85 -69.8 -26.2 Q-69.8 -26.8 -67.85 -29.65 -65.75 -32.55 -64.9 -32.9 M-53.95 -14.6 L-53.9 -14.5 -53.9 -14.35 Q-53.9 -13.85 -55.75 -12.35 L-58.1 -10.6 -56.2 -12.7 -53.95 -14.6 M-53.45 -13.35 L-53.4 -13.3 -53.4 -13.15 Q-53.4 -12.65 -56.35 -10.35 -59.1 -8.2 -59.6 -8.05 L-59.7 -8.05 -59.75 -8.2 Q-59.75 -9.0 -56.95 -11.05 L-53.45 -13.35 M-53.5 -10.0 L-53.45 -9.85 -54.75 -8.45 Q-56.15 -7.15 -56.6 -7.15 L-56.9 -7.2 -56.95 -7.25 Q-56.85 -7.85 -55.75 -8.8 -54.55 -9.8 -53.5 -10.0 M-65.9 -29.3 L-65.6 -29.25 -65.55 -28.9 -66.4 -27.05 -67.5 -25.1 -67.85 -25.4 -68.0 -25.7 -67.1 -27.55 -65.9 -29.3 M-64.35 -26.2 L-64.75 -25.2 Q-65.2 -24.3 -65.6 -24.15 L-65.7 -24.2 -65.7 -24.5 -65.5 -25.9 -64.95 -27.35 -64.55 -26.8 -64.35 -26.2 M-75.1 -12.4 L-75.8 -11.4 Q-76.55 -10.55 -76.85 -10.55 -77.5 -10.55 -77.7 -10.9 L-77.7 -11.35 -77.3 -12.2 -76.4 -13.0 -75.5 -13.25 Q-75.1 -13.1 -75.1 -12.4 M-78.2 -12.4 L-78.15 -12.25 -78.05 -11.95 -78.5 -10.9 Q-79.0 -10.0 -79.2 -10.0 -79.7 -10.0 -79.8 -10.55 L-79.85 -11.05 -79.7 -11.9 Q-79.35 -12.35 -78.2 -12.4 M-73.45 -11.2 L-73.05 -10.85 -73.2 -10.55 Q-73.3 -10.45 -73.45 -10.45 L-73.75 -10.5 -73.85 -10.85 -73.7 -11.2 -73.45 -11.2 M-56.7 3.15 L-56.6 3.25 Q-61.25 5.65 -63.8 6.4 L-70.35 7.7 -71.7 7.7 -71.75 7.4 -71.65 7.1 -71.45 7.05 Q-68.2 6.95 -64.1 5.5 L-60.65 4.25 -56.7 3.15 M-64.2 28.4 L-65.1 28.65 -65.9 28.8 Q-67.8 28.8 -71.35 27.3 -73.85 26.25 -74.85 25.6 L-74.85 25.2 Q-73.2 25.5 -69.9 26.55 L-64.2 28.4 M-59.35 28.6 L-59.6 28.7 -60.15 28.8 Q-61.45 28.8 -64.4 27.7 -67.55 26.5 -69.0 25.3 -67.55 25.5 -64.4 26.65 L-59.35 28.6 M-55.65 3.0 L-56.45 4.2 -58.1 5.8 Q-60.6 7.75 -62.85 7.75 L-63.45 7.65 -63.8 7.45 Q-63.55 7.2 -61.7 6.45 -59.65 5.7 -59.05 5.25 L-57.1 3.95 -55.65 3.0 M-54.6 5.35 L-54.35 5.4 -54.25 5.7 Q-54.25 6.25 -55.7 7.05 L-56.0 7.0 -56.1 6.65 -55.5 5.95 -54.6 5.35 M-56.7 27.85 L-56.85 28.05 -57.3 28.15 -58.45 27.95 -60.2 27.6 -60.35 27.4 -60.35 27.0 -58.4 27.25 Q-57.15 27.5 -56.7 27.85 M-24.0 23.65 L-24.45 24.4 Q-24.9 24.85 -25.1 24.85 L-25.65 24.5 -25.75 24.1 Q-25.75 23.35 -24.9 23.1 L-24.3 23.1 Q-24.0 23.25 -24.0 23.65 M-26.3 25.2 Q-26.3 25.9 -27.0 25.9 -27.5 25.9 -27.65 25.6 L-27.7 25.25 -27.45 24.85 -27.0 24.55 Q-26.3 24.4 -26.3 25.2 M-98.8 -46.35 L-98.8 -46.3 Q-98.5 -46.4 -98.15 -46.75 L-97.65 -47.35 Q-98.0 -47.3 -98.35 -46.9 L-98.8 -46.35 M-97.1 -47.6 L-97.7 -46.5 Q-98.35 -45.6 -98.95 -45.6 L-99.45 -45.75 -99.5 -46.0 Q-99.5 -47.1 -98.3 -47.8 L-97.45 -48.1 Q-97.1 -48.0 -97.1 -47.6 M-97.9 -45.6 L-97.75 -45.55 -97.75 -45.4 -98.45 -44.5 Q-99.25 -43.5 -99.95 -43.0 L-100.2 -43.25 -99.15 -44.55 -97.9 -45.6 M-96.4 -45.3 L-96.25 -45.3 -96.2 -45.15 -97.6 -43.65 -99.7 -42.0 -99.7 -42.1 Q-99.7 -42.45 -98.2 -43.8 L-96.4 -45.3 M-108.55 -36.55 L-108.75 -35.95 -109.45 -35.55 Q-109.9 -35.55 -110.05 -35.85 L-110.15 -36.15 Q-110.15 -36.8 -109.35 -37.0 -108.55 -37.2 -108.55 -36.55 M-108.7 -34.8 Q-108.7 -34.65 -108.85 -34.45 L-109.3 -34.1 Q-109.6 -34.1 -109.7 -34.35 L-109.75 -34.65 Q-109.75 -35.15 -109.25 -35.25 -108.7 -35.4 -108.7 -34.8 M-97.7 -41.9 L-98.3 -41.1 Q-98.95 -40.6 -99.35 -40.6 L-99.45 -40.6 -99.5 -40.75 Q-99.5 -41.35 -98.6 -42.05 -97.7 -42.75 -97.7 -41.9 M-97.45 -27.2 Q-97.45 -27.05 -100.5 -25.4 L-104.75 -23.1 -104.9 -23.2 -103.75 -24.55 -101.2 -26.2 Q-99.65 -27.1 -98.65 -27.4 -97.45 -27.75 -97.45 -27.2 M-100.05 -27.85 L-100.0 -27.8 -100.0 -27.7 Q-100.0 -27.2 -101.4 -26.55 L-103.2 -25.65 -103.35 -25.75 -103.4 -25.9 Q-103.4 -26.25 -101.9 -27.05 -100.4 -27.85 -100.05 -27.85 M-101.1 -29.35 L-101.75 -28.8 Q-102.2 -28.55 -102.85 -28.25 L-103.1 -28.45 -103.15 -28.45 -102.1 -29.4 -101.1 -29.35 M-109.65 -12.55 L-109.3 -12.5 -109.05 -12.4 -111.0 -11.4 Q-112.3 -10.75 -112.7 -10.75 L-113.1 -10.8 -113.15 -10.85 -113.15 -11.05 -112.55 -11.4 -111.25 -11.95 -110.15 -12.45 -109.65 -12.55 M-110.6 -12.9 Q-110.8 -12.4 -111.5 -12.05 L-112.7 -11.55 -112.85 -11.55 -112.85 -11.75 -111.8 -12.35 -110.6 -12.9 M-110.05 -10.8 L-110.05 -10.6 -110.2 -10.35 -110.6 -10.25 -110.9 -10.25 -110.95 -10.3 -110.95 -10.45 Q-110.95 -10.85 -110.05 -10.8 M-92.85 -12.5 L-92.75 -12.3 -92.55 -12.1 Q-93.55 -11.55 -95.3 -11.35 L-97.55 -11.15 -97.9 -11.4 Q-97.4 -11.95 -96.05 -12.25 L-92.85 -12.5 M-92.7 -11.15 L-92.5 -11.0 -92.3 -10.8 -94.95 -10.1 -97.75 -9.3 -97.85 -9.2 -97.9 -9.45 Q-97.9 -10.1 -96.0 -10.7 L-92.7 -11.15" fill="#9f9f9f" fill-rule="evenodd" stroke="none"/>
    <path d="M-41.45 7.3 Q-58.95 -11.0 -59.8 -37.7 -60.65 -62.95 -46.2 -81.65 -36.55 -83.7 -26.65 -81.45 -15.8 -79.05 -6.1 -71.95 2.95 -65.3 9.05 -56.05 15.05 -46.9 16.65 -37.85 18.1 -28.8 15.7 -18.6 13.3 -8.35 7.3 0.9 1.0 10.7 -8.15 17.6 -12.25 20.6 -16.65 22.95 -30.35 19.05 -41.45 7.3" fill="#a3a3a3" fill-rule="evenodd" stroke="none"/>
    <path d="M-90.5 21.35 Q-99.45 16.8 -105.85 10.55 -115.2 1.45 -117.65 -10.0 L-117.95 -11.45 Q-118.9 -18.45 -117.25 -25.75 -116.3 -29.35 -114.6 -32.95 -110.55 -41.65 -102.4 -50.0 -108.55 -41.6 -111.0 -31.5 -113.4 -21.6 -111.85 -11.65 -110.35 -1.5 -105.05 6.85 -99.5 15.7 -90.5 21.35" fill="#a3a3a3" fill-rule="evenodd" stroke="none"/>
    <path d="M-98.85 -53.45 L-95.9 -56.0 Q-101.95 -43.1 -102.15 -27.45 -102.55 -0.75 -86.0 18.4 -82.05 22.95 -77.7 26.5 L-84.1 24.25 -88.05 22.5 Q-96.25 16.75 -101.6 8.3 -107.4 -0.9 -109.1 -11.95 -110.7 -22.85 -108.1 -33.6 -105.55 -44.15 -99.35 -52.95 L-98.85 -53.45" fill="#a3a3a3" fill-rule="evenodd" stroke="none"/>
    <path d="M-105.9 -0.1 L-105.65 -0.05 -105.5 -0.25 -105.35 0.05 -97.3 1.3 -97.25 1.0 -97.15 0.85 -96.95 0.9 -96.85 1.15 -96.7 0.95 -96.95 1.25 -96.85 1.2 -96.6 1.75 -96.4 2.2 -95.8 3.5 -96.15 3.5 -96.4 3.3 -96.5 3.1 -96.6 2.85 -96.7 2.65 -105.35 1.3 -105.7 0.4 -105.8 0.2 -106.0 0.35 -105.8 0.15 -105.9 -0.1 M-108.45 1.15 L-114.15 -0.35 -115.35 -2.8 -115.4 -2.8 -115.05 -2.85 Q-112.05 -1.95 -108.95 -1.2 L-109.15 -1.25 -108.2 1.1 -108.45 1.15 M-115.0 -25.0 L-112.2 -27.35 -111.95 -27.4 -111.65 -27.35 -111.85 -27.4 -112.2 -24.6 -113.5 -23.45 Q-116.2 -20.95 -117.85 -18.35 L-118.1 -18.1 -118.25 -18.1 -117.95 -21.85 -115.0 -25.0 M-102.45 -33.25 L-102.45 -33.2 -102.1 -33.4 -101.85 -33.45 -102.05 -31.05 Q-105.95 -29.1 -109.05 -26.95 L-109.35 -26.9 -108.95 -29.6 Q-106.0 -31.5 -102.45 -33.25 M-17.0 -58.75 Q-27.0 -66.75 -41.4 -68.95 L-53.35 -69.75 -53.55 -69.8 -52.5 -71.9 -41.05 -71.1 Q-26.05 -68.85 -15.65 -60.4 -5.35 -52.1 0.2 -38.1 0.5 -41.15 0.05 -45.2 -0.8 -53.0 -4.25 -60.25 -8.35 -68.85 -15.35 -74.65 -19.75 -78.3 -25.0 -80.65 L-25.2 -80.9 -25.25 -81.2 -25.25 -81.15 Q-20.45 -79.95 -15.9 -77.8 L-14.0 -76.35 Q-6.65 -70.2 -2.3 -61.15 1.3 -53.6 2.15 -45.45 2.75 -40.3 2.15 -36.55 3.5 -37.75 4.75 -39.6 L4.8 -39.7 Q6.95 -42.85 8.05 -47.05 9.25 -51.3 9.05 -55.25 L9.05 -55.35 9.2 -55.6 9.25 -55.65 11.2 -52.5 11.2 -52.45 Q11.0 -49.5 10.15 -46.45 8.85 -41.9 6.55 -38.4 L3.95 -35.35 Q11.05 -35.2 16.9 -33.2 L17.25 -33.1 17.1 -33.1 17.15 -30.85 17.0 -30.9 16.25 -31.15 Q10.75 -33.05 4.15 -33.2 7.3 -30.65 9.85 -26.2 L9.85 -26.15 Q12.9 -20.8 14.25 -13.65 L12.9 -9.95 12.75 -10.05 12.65 -10.3 12.55 -10.8 Q11.35 -19.15 7.95 -25.15 5.3 -29.85 1.85 -32.15 3.55 -19.15 -1.75 -6.45 -7.45 7.1 -19.7 16.95 L-24.0 20.15 -26.15 19.1 -26.0 18.9 -21.05 15.25 Q-9.2 5.8 -3.75 -7.3 1.2 -19.2 -0.25 -31.35 L-4.3 -26.9 Q-8.25 -23.15 -13.7 -19.3 -26.1 -10.55 -41.65 -4.65 L-49.0 -2.05 -50.2 -3.95 -50.1 -4.0 Q-46.2 -5.2 -42.4 -6.65 -27.15 -12.45 -14.9 -21.05 -9.65 -24.8 -5.8 -28.45 -2.7 -31.4 -1.0 -33.9 -5.55 -37.1 -12.35 -39.25 -19.45 -41.5 -28.6 -42.45 -43.45 -44.05 -59.85 -42.25 L-59.8 -44.4 Q-43.3 -46.2 -28.35 -44.6 -19.0 -43.6 -11.7 -41.25 -5.9 -39.45 -1.7 -36.9 -6.95 -50.65 -17.0 -58.75" fill="#777777" fill-rule="evenodd" stroke="none"/>
    <path d="M-70.0 -60.65 Q-68.85 -58.25 -71.05 -55.0 -73.2 -51.85 -77.5 -49.75 -81.8 -47.65 -85.7 -47.95 -89.55 -48.15 -90.7 -50.6 -91.9 -53.0 -89.65 -56.2 -87.5 -59.4 -83.2 -61.5 -78.95 -63.55 -75.05 -63.3 -71.15 -63.05 -70.0 -60.65 M-53.65 -77.55 Q-52.6 -75.25 -54.65 -72.25 -56.7 -69.25 -60.7 -67.35 -64.75 -65.35 -68.35 -65.6 -72.0 -65.85 -73.1 -68.1 -73.75 -69.45 -73.3 -71.1 -64.2 -75.85 -55.0 -79.05 -54.1 -78.5 -53.65 -77.55" fill="#9f9f9f" fill-rule="evenodd" stroke="none"/>
    <path d="M-56.9 -77.3 Q-56.15 -75.7 -57.6 -73.55 -59.1 -71.35 -61.95 -69.95 -64.85 -68.55 -67.5 -68.7 -70.1 -68.85 -70.85 -70.5 -71.3 -71.3 -71.1 -72.2 -64.35 -75.6 -57.55 -78.15 L-56.9 -77.3 M-73.4 -60.15 Q-72.65 -58.5 -74.15 -56.35 -75.6 -54.2 -78.5 -52.8 -81.4 -51.35 -84.0 -51.55 -86.6 -51.7 -87.4 -53.3 -88.2 -55.0 -86.7 -57.15 -85.25 -59.3 -82.3 -60.65 -79.45 -62.1 -76.85 -61.9 -74.2 -61.75 -73.4 -60.15" fill="#ffffff" fill-rule="evenodd" stroke="none"/>
    <path d="M-37.2 -79.5 L-37.15 -79.55 -37.05 -79.2 Q-37.05 -78.65 -38.35 -77.7 L-40.35 -76.25 -41.6 -74.8 Q-42.45 -73.8 -43.15 -73.85 L-40.85 -77.0 Q-39.1 -78.95 -37.2 -79.5 M-36.2 -77.55 L-35.95 -77.55 -35.85 -77.2 Q-35.85 -76.9 -36.5 -76.45 L-37.45 -75.85 Q-37.8 -75.9 -37.95 -76.1 L-37.15 -77.0 -36.2 -77.55 M-5.8 -60.35 L-5.85 -60.25 -5.95 -60.15 Q-7.0 -61.45 -8.3 -63.7 L-10.45 -67.45 Q-8.9 -67.25 -7.6 -64.65 L-6.6 -62.4 -5.8 -60.35 M-6.9 -59.3 L-7.0 -58.8 -7.05 -58.7 -7.2 -58.55 -8.05 -59.75 -8.75 -61.05 Q-8.0 -61.3 -7.65 -60.6 L-7.35 -59.9 -6.9 -59.3 M-42.65 -78.7 Q-42.65 -78.15 -43.45 -77.3 -44.25 -76.45 -44.85 -76.45 -45.4 -76.45 -45.55 -76.75 L-45.6 -77.1 -45.1 -78.35 -44.1 -79.2 -43.1 -79.45 Q-42.65 -79.3 -42.65 -78.7 M-40.55 -78.45 Q-40.95 -77.75 -42.25 -76.4 L-44.2 -74.4 -44.3 -74.45 -44.35 -74.75 Q-44.35 -75.45 -42.8 -77.0 -41.3 -78.55 -40.55 -78.45 M-47.3 -66.9 Q-47.3 -66.55 -47.75 -65.75 -48.25 -64.8 -48.7 -64.6 L-50.7 -64.6 -50.95 -64.9 -51.05 -65.35 Q-51.05 -66.7 -49.15 -67.2 L-47.85 -67.35 Q-47.3 -67.25 -47.3 -66.9 M-50.3 -65.5 L-50.3 -65.25 -48.95 -65.3 Q-48.4 -65.5 -48.2 -66.0 L-48.15 -66.6 -48.1 -66.65 -49.2 -66.25 -50.3 -65.5 M-43.65 -50.4 Q-44.05 -50.1 -45.45 -49.8 L-49.0 -49.4 -50.2 -49.5 -50.3 -49.75 Q-49.55 -50.55 -47.15 -50.85 -44.7 -51.1 -43.65 -50.4 M-45.65 -53.5 L-45.25 -53.15 -45.4 -52.75 -45.7 -52.7 -46.3 -52.7 -47.15 -52.8 -47.75 -53.0 -47.35 -53.35 -45.65 -53.5 M-44.85 -48.3 L-41.85 -48.1 Q-41.0 -47.95 -40.65 -47.5 -41.25 -46.95 -42.95 -46.85 L-45.85 -46.8 -52.1 -46.6 -56.05 -46.4 -56.8 -46.5 -57.5 -46.85 Q-55.5 -47.8 -50.35 -48.15 L-44.85 -48.3 M-44.6 -10.45 L-44.35 -10.4 -44.3 -10.1 Q-44.3 -9.75 -45.2 -8.5 -46.2 -7.2 -46.7 -7.05 L-46.75 -7.0 -46.85 -7.25 -46.0 -8.9 -44.6 -10.45 M-42.4 -9.15 Q-43.65 -7.5 -44.25 -7.0 L-44.55 -7.15 -44.7 -7.6 Q-44.7 -8.2 -43.95 -8.8 -43.15 -9.45 -42.4 -9.15 M-47.0 -9.05 L-47.1 -8.2 Q-47.3 -7.6 -47.8 -7.6 -48.25 -7.6 -48.35 -7.95 L-48.4 -8.35 Q-48.4 -9.05 -47.7 -9.45 -47.0 -9.85 -47.0 -9.05 M-6.05 -31.25 L-5.9 -31.2 -5.85 -30.85 Q-5.85 -29.75 -8.85 -27.1 -11.85 -24.45 -13.55 -24.15 L-13.65 -24.3 -9.5 -28.25 -6.05 -31.25 M11.45 -13.35 L11.25 -11.65 10.9 -9.95 10.75 -9.95 10.65 -13.0 Q10.65 -15.0 10.2 -16.25 L10.25 -16.6 Q11.15 -16.05 11.35 -15.2 L11.45 -13.35 M-11.4 -29.35 L-11.25 -29.25 -11.2 -28.95 Q-11.2 -28.65 -12.1 -28.05 -13.05 -27.4 -13.6 -27.45 L-13.65 -27.4 -13.75 -27.65 -12.65 -28.6 -11.4 -29.35 M-24.3 11.1 L-24.2 11.05 -24.1 11.35 Q-24.1 11.75 -26.1 13.75 -28.25 15.9 -29.05 15.9 L-29.8 15.65 -29.85 15.4 -27.35 12.95 Q-25.85 11.55 -24.3 11.1 M-18.9 9.3 L-18.85 9.25 -18.75 9.55 -19.4 10.75 -21.05 12.8 Q-23.55 15.55 -25.0 15.55 L-25.35 15.5 -25.3 15.45 -25.35 15.55 -25.4 15.3 -24.05 14.2 -21.9 12.2 -20.5 10.55 Q-19.7 9.6 -18.9 9.3 M-10.2 16.3 L-10.1 16.75 -10.3 17.0 -10.6 17.15 -10.95 17.05 -11.05 16.7 -10.85 16.35 -10.2 16.3 M-11.05 18.1 L-11.15 18.5 -11.3 18.65 -11.7 18.75 -12.05 18.7 -12.25 18.5 -12.3 18.1 -12.0 17.55 Q-11.6 17.3 -11.05 18.1 M9.5 -12.55 L9.8 -10.8 Q9.8 -8.85 8.75 -5.25 7.55 -1.1 6.3 -0.9 L7.85 -7.05 Q8.75 -10.7 9.5 -12.55 M6.1 -3.7 L6.2 -3.75 6.25 -3.45 Q6.25 -1.2 4.85 -0.05 L4.85 -0.2 4.8 -0.6 5.1 -1.95 Q5.55 -3.35 6.1 -3.7 M-7.4 14.05 L-7.15 14.15 -7.05 14.55 -7.95 15.85 -9.0 17.05 -9.25 16.95 -9.35 16.6 -8.6 15.35 Q-7.8 14.2 -7.4 14.05" fill="#777777" fill-rule="evenodd" stroke="none"/>
    <path d="M-53.9 -14.55 L-53.9 -14.5 -53.85 -14.35 Q-53.85 -13.95 -54.8 -13.1 L-55.1 -13.75 -53.9 -14.55 M-53.45 -13.35 L-53.4 -13.3 -53.4 -13.15 Q-53.4 -12.85 -54.35 -12.0 L-54.6 -12.65 -54.75 -12.55 -53.45 -13.35 M-53.45 -10.0 L-53.45 -9.95 -53.45 -10.0 M-110.05 -35.85 L-110.15 -36.15 Q-110.15 -36.8 -109.35 -37.0 L-109.85 -35.65 -110.05 -35.85 M-102.8 -28.25 L-103.1 -28.4 -103.15 -28.5 -102.15 -29.35 -102.15 -28.55 -102.8 -28.25 M-104.7 -23.1 L-104.9 -23.2 -103.75 -24.5 -102.2 -25.6 -102.15 -24.5 -104.7 -23.1 M-103.15 -25.65 L-103.35 -25.7 -103.4 -25.95 -102.2 -26.85 -102.2 -26.15 -103.15 -25.65 M-112.65 -11.55 L-112.8 -11.55 -112.85 -11.7 -112.0 -12.25 -111.95 -11.85 -112.65 -11.55 M-112.65 -10.75 L-113.05 -10.8 -113.1 -10.85 -113.15 -11.05 -112.55 -11.4 Q-112.4 -11.45 -111.9 -11.65 L-111.8 -11.0 -112.65 -10.75 M-109.05 -12.4 L-109.15 -12.35 -109.2 -12.5 -109.25 -12.5 -109.05 -12.4" fill="#777777" fill-rule="evenodd" stroke="none"/>
    <path d="M-84.8 -17.2 L-84.85 -16.6 Q-84.95 -16.1 -85.25 -16.1 L-85.9 -18.1 -86.35 -20.05 -86.35 -20.35 -86.35 -20.45 -84.65 -20.5 -83.55 -19.7 -83.0 -19.2 -83.95 -18.4 -84.9 -17.9 -84.8 -17.2 M-84.6 -19.15 Q-84.65 -19.3 -85.35 -19.65 L-85.05 -18.85 -84.6 -19.15 M-87.2 -17.5 Q-87.2 -16.95 -87.75 -16.25 -88.6 -15.2 -90.2 -15.2 -91.85 -15.2 -92.35 -16.4 L-92.55 -17.15 -92.55 -17.5 Q-92.55 -18.95 -91.7 -19.55 -90.95 -20.15 -89.85 -19.95 -88.85 -19.8 -88.05 -19.15 -87.2 -18.4 -87.2 -17.5 M-91.5 -17.5 L-91.45 -16.9 -90.85 -16.2 -89.6 -16.2 -88.6 -17.05 Q-88.35 -17.45 -88.35 -17.95 -88.35 -18.2 -88.85 -18.45 L-89.9 -18.85 Q-91.5 -19.05 -91.5 -17.5 M-97.8 -18.85 L-97.9 -18.5 -98.15 -18.35 Q-98.5 -18.35 -98.65 -18.95 L-98.75 -19.45 Q-98.75 -20.05 -98.25 -19.6 -97.8 -19.2 -97.8 -18.85 M-94.5 -15.35 L-94.55 -15.25 -94.55 -15.2 Q-94.7 -15.05 -94.95 -15.05 L-95.0 -15.05 -96.65 -14.5 -100.1 -14.0 -100.15 -14.15 -99.75 -14.35 -99.95 -14.8 -100.0 -15.35 Q-100.0 -16.4 -99.1 -16.95 -98.35 -17.45 -97.25 -17.45 -96.1 -17.45 -95.35 -16.95 -94.45 -16.4 -94.45 -15.55 L-94.5 -15.35 M-97.25 -15.05 L-95.55 -15.45 -95.7 -15.6 Q-96.2 -16.15 -97.75 -16.15 -98.6 -16.15 -99.0 -15.2 L-99.25 -14.5 -97.25 -15.05 M-100.1 -17.1 L-100.2 -16.85 -100.5 -16.65 Q-100.9 -16.65 -101.3 -17.05 L-101.5 -17.45 Q-101.5 -17.8 -100.8 -17.7 -100.1 -17.55 -100.1 -17.1 M-94.6 -18.65 L-94.75 -18.1 Q-94.9 -17.75 -95.2 -17.75 -95.55 -17.75 -95.7 -18.0 L-95.8 -18.25 Q-95.8 -19.0 -95.2 -19.15 -94.6 -19.4 -94.6 -18.65" fill="#9f9f9f" fill-rule="evenodd" stroke="none"/>
    <path d="M-1.15 -41.85 L7.05 -46.35 17.0 -39.15 Q27.25 -31.7 28.6 -30.45 30.25 -28.75 31.3 -26.8 32.5 -24.7 32.3 -23.35 32.05 -22.0 31.25 -20.9 L31.4 -20.7 31.25 -20.9 30.25 -19.75 29.8 -19.4 29.3 -19.05 28.65 -18.7 Q25.5 -17.0 21.6 -17.45 19.75 -17.7 17.35 -19.15 15.1 -20.45 13.45 -22.15 12.2 -23.35 5.4 -32.65 L2.65 -36.5 -1.15 -41.85 M-31.15 -71.8 Q-28.55 -74.75 -24.95 -75.25 -23.3 -75.5 -20.9 -74.35 -18.65 -73.4 -16.95 -71.9 -15.5 -70.6 -8.9 -62.6 L-0.85 -52.15 Q-0.05 -51.0 -0.45 -49.4 -0.75 -47.9 -1.9 -46.55 L-3.3 -45.3 -3.3 -45.2 Q-3.85 -44.85 -4.45 -44.6 L-7.25 -44.4 -7.5 -44.5 -7.95 -44.7 -9.75 -45.55 Q-12.55 -47.0 -17.55 -50.05 L-19.0 -51.0 Q-27.4 -56.15 -29.25 -57.75 -31.0 -59.3 -32.3 -61.25 L-33.0 -62.6 Q-33.65 -64.05 -33.7 -65.25 -33.7 -68.85 -31.15 -71.8" fill="#707070" fill-opacity="0.3019608" fill-rule="evenodd" stroke="none"/>
    <path d="M-0.55 -39.95 L5.2 -47.3 17.2 -44.55 31.25 -41.05 35.15 -38.8 Q37.1 -37.3 37.45 -35.95 37.75 -34.6 37.45 -33.35 L37.65 -33.25 37.45 -33.35 36.95 -31.9 36.7 -31.45 36.3 -30.85 35.9 -30.25 Q33.7 -27.45 29.9 -26.4 L25.3 -26.3 Q22.75 -26.6 20.6 -27.5 18.95 -28.1 9.05 -34.05 L5.0 -36.5 5.05 -36.55 -0.55 -39.95 M-39.85 -55.85 Q-38.65 -59.55 -35.5 -61.4 -34.1 -62.3 -31.4 -62.2 -29.0 -62.2 -26.9 -61.5 -25.0 -60.85 -15.8 -56.0 -7.0 -51.3 -4.3 -49.55 -3.15 -48.85 -2.85 -47.2 -2.55 -45.75 -3.1 -44.0 -3.4 -43.05 -3.85 -42.25 L-3.9 -42.2 -4.7 -41.15 Q-5.85 -40.1 -7.2 -39.9 L-7.45 -39.95 -7.95 -39.95 -9.9 -40.05 -18.9 -41.15 -20.6 -41.4 -32.65 -43.6 Q-34.85 -44.35 -36.85 -45.7 L-38.0 -46.65 Q-39.15 -47.7 -39.65 -48.8 -41.05 -52.15 -39.85 -55.85" fill="#707070" fill-opacity="0.3019608" fill-rule="evenodd" stroke="none"/>
    <path d="M2.85 -40.2 L-0.6 -48.9 7.85 -57.9 Q16.55 -67.1 18.0 -68.2 19.85 -69.7 21.9 -70.5 24.15 -71.4 25.45 -71.0 26.75 -70.6 27.75 -69.7 L27.95 -69.8 27.75 -69.7 28.75 -68.55 29.05 -68.1 29.35 -67.45 29.6 -66.8 Q30.9 -63.5 30.0 -59.65 29.5 -57.85 27.7 -55.65 26.15 -53.6 24.3 -52.2 22.95 -51.1 12.8 -45.55 L8.65 -43.3 8.7 -43.3 2.85 -40.2 M-30.65 -14.25 Q-33.25 -17.15 -33.25 -20.8 -33.35 -22.45 -31.9 -24.75 -30.65 -26.8 -28.95 -28.35 -27.5 -29.65 -18.65 -35.1 L-7.3 -41.8 -4.55 -41.9 Q-3.1 -41.4 -1.95 -40.05 -1.2 -39.3 -0.8 -38.5 L-0.7 -38.45 -0.3 -37.25 Q0.15 -35.7 -0.45 -34.45 L-0.6 -34.25 -0.8 -33.75 -1.9 -32.15 -7.35 -24.95 -8.45 -23.65 Q-14.65 -15.95 -16.45 -14.3 -18.25 -12.8 -20.3 -11.8 L-21.8 -11.25 -24.5 -10.85 Q-28.05 -11.35 -30.65 -14.25" fill="#707070" fill-opacity="0.3019608" fill-rule="evenodd" stroke="none"/>
    <path d="M4.85 -40.5 L-1.75 -47.2 2.55 -58.75 Q6.95 -70.6 7.85 -72.2 8.95 -74.3 10.6 -75.8 12.3 -77.55 13.65 -77.7 L16.25 -77.4 16.4 -77.6 16.25 -77.4 17.6 -76.75 18.05 -76.4 18.55 -76.0 19.1 -75.45 Q21.6 -72.9 22.2 -69.05 22.5 -67.2 21.7 -64.4 21.05 -61.9 19.9 -59.9 19.05 -58.4 11.9 -49.3 L8.95 -45.65 9.0 -45.65 4.85 -40.5 M-15.95 -3.55 Q-19.45 -5.25 -20.85 -8.55 -21.55 -10.1 -21.15 -12.75 -20.8 -15.1 -19.8 -17.15 -19.0 -18.9 -13.0 -27.4 L-5.15 -38.0 Q-4.3 -39.1 -2.65 -39.2 -1.1 -39.25 0.5 -38.55 L2.15 -37.5 2.25 -37.55 3.1 -36.6 Q4.1 -35.3 4.05 -33.95 L4.0 -33.65 4.0 -33.2 3.6 -31.25 1.4 -22.55 0.9 -20.85 Q-1.85 -11.35 -2.85 -9.2 -3.85 -7.05 -5.45 -5.3 L-6.55 -4.2 Q-7.75 -3.2 -8.85 -2.85 -12.35 -1.9 -15.95 -3.55" fill="#707070" fill-opacity="0.3019608" fill-rule="evenodd" stroke="none"/>
    <path d="M-1.7 -81.8 Q1.75 -80.95 4.25 -77.9 5.45 -76.45 6.25 -73.7 6.95 -71.25 7.05 -68.95 L5.7 -55.7 4.3 -44.55 -4.75 -46.85 -7.15 -58.9 Q-9.55 -71.35 -9.6 -73.15 -9.7 -75.55 -9.2 -77.65 -8.6 -80.05 -7.5 -80.9 -5.2 -82.7 -1.7 -81.8" fill="#727272" fill-rule="evenodd" stroke="none"/>
    <path d="M-0.4 -52.4 L-2.8 -64.45 Q-5.2 -76.9 -5.25 -78.75 -5.35 -80.5 -5.05 -82.15 L-5.1 -81.9 -1.65 -81.75 Q1.8 -80.85 4.35 -77.85 5.55 -76.45 6.35 -73.7 7.05 -71.2 7.1 -68.9 7.2 -67.15 5.8 -55.65 L5.25 -51.0 -0.4 -52.4" fill="#8e8e8e" fill-rule="evenodd" stroke="none"/>
    <path d="M13.8 -46.5 Q15.55 -40.3 13.15 -34.95 10.65 -29.5 5.5 -28.05 0.3 -26.6 -4.55 -29.95 -9.5 -33.3 -11.25 -39.5 -12.95 -45.65 -10.5 -51.05 -8.05 -56.45 -2.85 -57.9 2.3 -59.35 7.2 -56.05 12.1 -52.65 13.8 -46.5" fill="#7e7e7e" fill-rule="evenodd" stroke="none"/>
    <path d="M6.1 2.4 Q2.25 2.8 -0.7 0.75 -2.1 -0.25 -3.1 -2.7 -4.05 -4.95 -4.3 -7.2 -4.5 -9.15 -3.8 -19.5 L-2.65 -32.6 Q-2.45 -33.95 -1.05 -34.9 0.2 -35.75 1.95 -36.0 L5.2 -35.65 Q6.8 -35.05 7.45 -33.65 8.75 -30.95 11.5 -21.05 14.1 -11.55 14.35 -9.15 14.6 -6.8 14.15 -4.5 13.65 -1.9 12.45 -0.65 10.0 2.0 6.1 2.4" fill="#7e7e7e" fill-rule="evenodd" stroke="none"/>
    <path d="M10.0 -31.45 Q5.55 -30.2 1.4 -33.05 -2.85 -35.95 -4.3 -41.2 -5.85 -46.5 -3.75 -51.15 -1.65 -55.7 2.8 -57.0 L4.85 -57.35 7.25 -55.95 Q12.15 -52.65 13.9 -46.45 15.6 -40.3 13.2 -34.85 L11.55 -32.05 Q10.8 -31.65 10.0 -31.45" fill="#bbbbbb" fill-rule="evenodd" stroke="none"/>
    <path d="M2.85 0.35 Q1.45 -0.6 0.45 -3.05 -0.45 -5.3 -0.75 -7.55 -0.95 -9.45 -0.2 -19.85 0.45 -29.8 0.95 -32.95 1.15 -34.3 2.45 -35.25 L3.9 -36.0 5.15 -35.65 Q6.8 -35.05 7.45 -33.7 8.75 -30.95 11.45 -21.05 14.05 -11.55 14.3 -9.15 14.55 -6.8 14.1 -4.5 13.6 -1.95 12.45 -0.7 10.5 1.35 7.85 2.1 5.1 1.9 2.85 0.35" fill="#bbbbbb" fill-rule="evenodd" stroke="none"/>
    <path d="M5.55 -72.15 Q6.05 -69.9 5.95 -67.7 5.8 -64.75 4.55 -63.45 4.05 -64.05 3.95 -65.0 L3.8 -66.4 Q2.75 -71.15 0.0 -75.45 L-1.75 -77.9 -2.5 -78.7 Q-2.7 -79.65 -1.6 -79.85 L0.8 -79.6 1.9 -78.4 3.0 -77.25 Q4.9 -75.3 5.55 -72.15 M10.8 -47.2 L10.8 -46.05 Q10.6 -45.2 10.05 -45.1 9.05 -44.9 7.85 -47.35 L6.05 -51.25 Q3.75 -55.75 -1.75 -55.75 L-1.85 -56.0 Q0.2 -57.75 3.75 -56.75 7.05 -55.9 7.9 -54.1 L9.4 -50.8 10.8 -47.2 M0.9 -69.55 L0.85 -68.8 Q0.75 -68.3 0.35 -68.25 -0.35 -68.1 -0.9 -69.4 L-1.3 -70.75 Q-1.6 -72.15 -0.5 -71.55 0.6 -70.95 0.9 -69.55 M6.2 -49.3 L6.0 -48.45 5.5 -48.0 Q5.0 -47.9 3.95 -49.5 L2.9 -51.05 Q2.75 -51.8 3.15 -52.0 L4.2 -51.75 Q5.85 -50.95 6.2 -49.3 M9.75 -23.8 Q10.4 -20.8 8.85 -20.45 7.65 -20.2 6.55 -22.65 L5.4 -26.05 4.4 -28.75 3.4 -32.05 Q3.15 -33.0 3.6 -33.55 4.2 -34.25 5.65 -32.65 L7.4 -29.8 8.65 -26.95 9.75 -23.8" fill="#ffffff" fill-rule="evenodd" stroke="none"/>
    <path d="M-0.25 -74.7 Q-1.6 -73.95 -2.8 -72.25 L-3.95 -70.35 -4.3 -72.4 -3.85 -73.05 Q-2.6 -74.4 -0.25 -74.7 M-0.25 -77.7 L-0.15 -77.5 Q-2.35 -75.95 -3.8 -74.25 L-4.45 -73.3 -4.6 -74.05 -4.7 -74.0 -3.7 -75.15 Q-1.3 -77.75 -0.25 -77.7 M-1.9 -68.7 L-1.8 -68.5 -2.8 -67.9 -3.4 -67.55 -3.6 -68.5 -3.4 -68.65 -1.9 -68.7 M6.4 -63.55 L4.8 -66.6 Q5.3 -67.05 6.7 -64.5 L6.75 -64.35 6.65 -63.1 6.4 -63.55 M2.8 -61.2 L2.95 -61.15 3.0 -60.85 Q3.0 -60.5 2.8 -60.55 L2.55 -60.4 2.3 -60.45 2.25 -60.6 Q2.35 -61.05 2.8 -61.2 M5.4 -60.9 L4.5 -62.2 Q5.15 -62.85 5.85 -61.75 L6.4 -60.8 6.25 -59.9 5.4 -60.9 M1.65 -62.25 L2.0 -62.0 2.1 -61.75 2.05 -61.3 Q2.05 -61.1 1.65 -61.1 L1.4 -61.15 1.3 -61.3 1.25 -61.65 1.45 -62.0 1.65 -62.25 M6.1 -62.35 L5.1 -64.05 Q5.45 -64.15 6.4 -63.0 L6.6 -62.75 6.5 -61.7 6.1 -62.35" fill="#726d6d" fill-rule="evenodd" stroke="none"/>
    <path d="M-118.3 -7.55 L-113.9 -7.95 -107.6 -7.25 -101.75 -5.8 Q-99.1 -4.8 -98.7 -3.8 -98.2 -2.75 -102.4 -1.65 -106.05 -0.6 -112.0 0.2 L-122.35 1.1 -128.3 0.6 Q-130.0 -0.7 -125.65 -3.7 -122.05 -6.2 -118.3 -7.55" fill="#8a8a8a" fill-rule="evenodd" stroke="none"/>
    <path d="M-96.45 -7.75 Q-93.8 -8.7 -86.85 -8.8 L-72.45 -8.15 Q-64.45 -7.4 -58.6 -6.05 -52.1 -4.65 -50.45 -2.9 -48.8 -1.2 -57.4 1.15 -64.9 3.2 -77.65 5.1 -89.95 6.85 -100.15 7.5 L-113.6 7.05 Q-118.25 5.0 -110.4 -0.5 -103.95 -5.1 -96.45 -7.75" fill="#535353" fill-rule="evenodd" stroke="none"/>
    <path d="M-93.65 -1.75 Q-99.65 -3.4 -97.0 -7.6 L-96.5 -7.75 Q-93.85 -8.75 -86.9 -8.8 L-72.5 -8.15 Q-64.45 -7.4 -58.65 -6.1 -54.65 -5.2 -52.45 -4.15 L-61.1 -2.9 -80.45 -1.25 -93.65 -1.75" fill="#8a8a8a" fill-rule="evenodd" stroke="none"/>
    <path d="M-71.2 -3.35 Q-71.2 -3.05 -72.85 -2.25 -73.25 -2.25 -73.4 -2.5 L-73.45 -2.85 Q-73.45 -3.6 -72.3 -3.9 L-71.55 -3.9 Q-71.2 -3.75 -71.2 -3.35 M-66.45 -3.0 Q-66.45 -2.5 -67.0 -2.0 -67.6 -1.5 -68.5 -1.5 -71.05 -1.5 -71.05 -2.1 -71.05 -2.85 -70.35 -3.3 L-68.75 -3.9 -67.2 -3.8 Q-66.45 -3.55 -66.45 -3.0 M-78.3 2.95 Q-78.4 3.5 -79.05 4.0 L-80.35 4.45 -80.8 4.4 -80.95 4.2 Q-80.7 3.95 -79.75 3.45 -78.7 2.9 -78.3 2.95 M-85.85 5.85 L-86.3 5.8 -86.5 5.65 -86.55 5.35 -83.5 4.25 Q-81.0 3.35 -80.5 3.35 -81.15 4.3 -82.9 5.1 -84.6 5.85 -85.85 5.85 M-102.55 0.75 L-105.0 2.8 -107.9 4.8 -110.2 6.9 -110.9 7.6 -112.55 7.35 Q-111.75 6.25 -108.15 3.9 -103.85 1.1 -102.55 0.75 M-100.55 1.4 Q-100.55 2.25 -102.85 3.75 L-105.95 5.65 -106.3 5.4 -103.9 3.15 Q-102.2 1.9 -100.55 1.4 M-99.8 1.95 L-99.7 1.95 Q-99.6 1.95 -99.6 2.25 -99.6 2.6 -100.15 3.05 -100.75 3.55 -101.3 3.6 L-101.55 3.6 -101.65 3.25 Q-101.65 2.9 -100.95 2.45 L-99.8 1.95" fill="#535353" fill-rule="evenodd" stroke="none"/>
    <path d="M-107.9 -4.55 L-108.15 -3.9 -108.8 -3.45 Q-109.25 -3.45 -109.4 -3.75 L-109.45 -4.15 Q-109.45 -4.85 -108.65 -5.05 -107.9 -5.3 -107.9 -4.55 M-115.2 -4.65 L-115.1 -4.4 -121.6 0.35 -121.65 0.4 -121.7 0.1 -121.0 -1.1 -119.25 -2.8 Q-116.7 -4.9 -115.2 -4.65 M-120.45 -2.1 Q-120.8 -1.75 -122.2 -0.95 L-124.4 0.2 -124.5 0.3 -124.6 0.0 -123.0 -1.15 Q-121.25 -2.15 -120.45 -2.1 M-115.35 -1.95 L-115.6 -1.4 Q-115.95 -1.05 -117.0 -1.05 L-117.45 -1.15 Q-117.2 -1.2 -116.4 -1.6 L-115.35 -1.95" fill="#535353" fill-rule="evenodd" stroke="none"/>
    <path d="M-0.95 -43.25 L-0.8 -43.0 Q-2.75 -41.55 -3.8 -39.5 L-4.1 -40.25 -3.05 -41.45 -0.95 -43.25 M0.5 -45.65 L0.65 -45.2 Q-2.0 -44.1 -3.3 -42.35 L-4.25 -40.65 -4.4 -41.2 -4.6 -42.05 -3.65 -43.3 Q-1.4 -46.0 0.5 -45.65 M11.8 -36.95 L11.95 -36.8 12.05 -36.5 11.75 -35.8 11.1 -35.3 10.8 -35.35 10.7 -35.65 11.05 -36.25 11.8 -36.95 M12.65 -39.8 L12.75 -39.8 12.8 -39.55 11.5 -37.55 9.6 -35.35 Q9.4 -35.35 9.35 -35.45 L9.3 -35.7 Q9.3 -36.1 10.25 -37.65 11.4 -39.55 12.65 -39.8 M11.2 -40.85 L11.25 -40.0 Q11.25 -38.6 10.15 -38.6 9.55 -38.6 9.35 -39.0 L9.3 -39.5 Q9.3 -39.9 9.8 -40.55 10.45 -41.35 11.2 -40.85 M9.9 -39.25 L10.0 -39.1 Q10.7 -39.3 10.75 -39.75 L10.7 -40.3 10.2 -39.8 9.9 -39.25 M2.4 -23.1 L2.45 -23.05 2.5 -22.8 2.3 -22.2 1.8 -21.7 1.55 -21.8 1.5 -22.05 1.65 -22.65 Q1.9 -23.05 2.4 -23.1 M4.25 -19.85 L4.0 -19.05 Q3.8 -18.5 3.45 -18.5 L3.3 -18.55 3.9 -20.3 4.15 -20.35 4.25 -19.85 M4.15 -22.35 L3.35 -20.6 Q2.8 -19.6 1.95 -19.35 2.85 -21.75 4.15 -22.35 M3.95 -14.3 L4.05 -14.05 1.55 -12.95 -0.65 -12.15 -0.6 -13.45 0.45 -13.85 Q2.95 -14.7 3.95 -14.3 M4.7 -12.8 L2.6 -12.0 0.45 -10.85 0.25 -10.95 0.15 -11.3 Q0.15 -12.15 2.0 -12.65 L4.7 -12.8 M11.25 -2.45 Q10.9 -2.45 10.8 -2.65 13.3 -5.3 14.4 -8.55 L14.4 -6.75 Q12.85 -2.45 11.25 -2.45 M13.95 -9.45 Q13.3 -7.8 12.75 -7.3 12.55 -7.1 12.55 -7.5 12.55 -8.4 13.15 -10.45 L13.75 -12.15 14.2 -10.05 13.95 -9.45" fill="#7e7e7e" fill-rule="evenodd" stroke="none"/>
    <path d="M6.1 5.55 Q6.05 7.5 5.5 9.4 6.5 7.4 8.1 5.65 12.9 0.25 20.1 -0.15 27.3 -0.55 32.7 4.25 L35.35 7.15 Q36.2 4.85 37.95 2.9 41.6 -1.2 47.05 -1.5 52.35 -1.8 56.35 1.6 55.3 -1.5 55.65 -4.7 56.2 -9.9 60.1 -12.3 63.95 -14.7 68.85 -12.85 73.75 -11.0 76.8 -6.05 78.25 -3.7 78.9 -1.3 84.15 -4.3 90.7 -4.65 101.9 -5.3 110.3 2.15 113.95 5.45 116.15 9.4 117.0 7.55 118.35 5.75 121.95 1.15 127.05 -0.15 132.1 -1.4 135.7 1.4 137.15 2.5 138.0 4.05 139.35 3.3 141.05 3.2 144.15 3.0 146.45 5.05 147.65 6.15 148.3 7.5 L148.8 6.85 Q153.85 1.25 161.3 0.85 168.8 0.4 174.45 5.4 L176.25 7.25 176.5 7.05 Q182.6 1.4 191.7 0.85 200.8 0.35 207.55 5.3 L209.15 6.6 Q209.05 3.8 210.4 1.2 213.05 -3.8 219.5 -5.0 225.9 -6.15 232.35 -2.75 238.85 0.65 241.55 6.6 243.45 10.75 242.75 14.45 L242.75 14.9 243.1 15.6 Q245.15 20.1 244.15 24.1 245.95 28.8 244.3 32.9 L246.45 58.9 30.65 71.05 28.9 83.7 -27.25 74.3 -27.95 74.35 -27.95 74.2 -242.2 38.4 -232.2 -12.85 -181.3 -4.05 -179.7 -7.4 Q-176.25 -12.95 -169.4 -15.45 -162.55 -17.95 -156.3 -16.0 -150.1 -14.0 -148.15 -8.7 -147.15 -5.95 -147.55 -3.2 L-145.8 -4.25 Q-138.5 -8.3 -129.55 -6.6 -120.6 -4.9 -115.25 1.5 L-115.05 1.75 -113.0 0.15 Q-106.8 -4.1 -99.4 -2.7 -92.05 -1.3 -87.8 4.9 L-87.35 5.6 Q-86.55 4.35 -85.2 3.45 -82.7 1.7 -79.65 2.3 -78.0 2.6 -76.7 3.5 -75.65 2.1 -74.05 1.2 -70.15 -1.1 -65.3 0.8 -60.45 2.75 -57.45 7.8 -56.35 9.7 -55.75 11.65 -53.05 8.0 -49.0 5.25 -39.7 -1.05 -28.65 1.05 -22.25 2.25 -17.4 5.9 -16.45 3.6 -14.75 1.45 -11.05 -3.05 -5.95 -4.25 -0.85 -5.4 2.7 -2.55 6.2 0.3 6.1 5.55" fill="#ffffff" fill-rule="evenodd" stroke="none"/>
    <path d="M-70.25 -49.6 L-70.5 -49.4 -70.4 -49.35 Q-70.55 -49.1 -71.25 -49.1 -72.65 -49.1 -80.6 -55.0 -86.55 -49.75 -87.7 -48.35 L-87.85 -48.5 -87.9 -48.9 Q-87.9 -49.55 -86.65 -51.0 L-89.7 -48.3 -90.1 -48.55 -87.35 -52.25 -89.9 -50.15 Q-90.15 -50.25 -90.3 -50.45 -87.95 -53.8 -84.0 -57.3 L-85.65 -58.4 Q-88.05 -60.05 -89.3 -61.2 L-87.5 -62.45 -86.9 -62.2 Q-86.9 -63.05 -83.55 -60.95 L-81.3 -59.5 -81.15 -59.65 Q-75.85 -63.75 -73.05 -64.6 -70.85 -65.85 -69.35 -66.15 L-69.25 -65.85 -72.95 -62.65 -72.9 -62.35 Q-72.9 -61.8 -78.0 -57.3 L-76.35 -56.2 Q-75.05 -55.1 -71.6 -52.65 -68.6 -50.4 -67.7 -48.9 L-67.8 -48.75 -71.5 -51.15 -70.25 -49.6" fill="#000000" fill-rule="evenodd" stroke="none"/>
    <path d="M-70.9 -64.4 L-70.15 -65.9 -72.95 -62.95 -73.1 -63.05 Q-72.65 -64.35 -70.45 -66.95 L-66.95 -71.05 -65.7 -72.35 -69.35 -73.1 -64.7 -75.25 -63.4 -75.1 -63.2 -75.05 -61.75 -76.55 -56.55 -78.55 -58.85 -75.9 -60.1 -74.55 Q-55.5 -73.6 -52.4 -72.2 L-52.75 -71.85 -55.65 -72.4 -52.15 -70.9 -52.45 -70.55 -55.95 -71.25 Q-54.45 -70.75 -54.25 -70.3 L-54.2 -70.05 -54.35 -69.9 -62.65 -71.75 Q-68.55 -64.9 -69.9 -64.4 L-70.7 -64.25 -70.6 -64.35 -70.9 -64.4" fill="#000000" fill-rule="evenodd" stroke="none"/>
  </g>
</svg>
