<?xml version="1.0" encoding="UTF-8" standalone="no"?>
<svg xmlns:xlink="http://www.w3.org/1999/xlink" height="65.4px" width="67.35px" xmlns="http://www.w3.org/2000/svg">
  <g transform="matrix(1.0, 0.0, 0.0, 1.0, 0.45, 1.4)">
    <path d="M64.0 0.0 L64.0 64.0 0.0 64.0 0.0 0.0 64.0 0.0" fill="#55a901" fill-opacity="0.0" fill-rule="evenodd" stroke="none"/>
    <path d="M55.7 28.2 Q55.75 27.6 56.05 27.45 L56.25 28.5 56.35 29.6 56.45 30.65 56.45 30.75 56.5 30.6 56.8 29.8 Q56.9 29.4 57.1 29.25 57.5 29.55 57.3 30.1 L56.95 31.0 56.95 31.05 57.25 30.8 58.0 30.2 Q58.4 29.85 58.95 29.85 L59.0 29.85 59.0 30.05 59.2 29.9 58.75 30.45 58.3 30.8 58.2 30.85 57.9 31.1 57.8 31.2 58.3 31.0 Q58.75 30.65 59.3 30.5 L59.9 30.4 Q60.6 30.6 59.6 31.0 59.05 31.2 58.55 31.55 L57.45 32.0 56.65 31.95 Q56.4 32.3 56.1 32.25 L56.1 32.0 55.85 31.95 55.55 31.6 55.2 30.95 55.1 30.8 55.0 30.45 54.8 30.2 Q54.65 29.9 55.0 29.85 L55.15 29.9 55.2 29.95 55.35 30.05 55.55 30.4 55.7 30.85 55.95 31.25 55.95 30.5 55.95 30.4 55.8 29.25 55.7 28.2 M14.65 19.25 Q15.15 19.9 15.15 20.95 L15.25 22.55 15.45 24.25 15.65 23.95 16.3 23.0 17.05 22.05 17.5 21.7 Q18.1 21.9 17.7 22.5 L17.2 23.3 17.1 23.5 17.5 23.3 17.65 23.35 17.7 23.45 17.75 23.5 17.85 23.7 17.6 24.05 17.05 24.55 16.65 24.85 16.35 24.85 16.3 24.9 15.85 25.45 16.45 25.3 16.65 25.3 16.85 25.35 16.95 25.45 17.05 25.6 17.1 25.65 Q17.0 26.1 16.55 26.15 L14.95 26.1 14.95 26.35 Q14.6 26.5 14.2 26.1 L13.95 25.6 13.75 25.6 12.25 25.15 Q11.8 24.9 12.15 24.65 L12.9 24.85 13.35 24.9 13.1 24.65 Q12.7 24.15 13.0 23.95 L13.05 23.95 13.6 24.65 14.0 25.05 13.85 24.75 13.35 23.55 12.6 22.35 Q12.05 21.65 12.5 21.25 L13.5 22.3 14.2 23.5 14.7 24.45 14.65 23.85 14.55 22.05 14.3 20.35 Q14.25 19.65 14.65 19.25 M35.9 38.65 L36.0 40.05 36.2 41.2 36.2 41.1 36.55 40.75 36.75 40.55 Q37.05 40.7 37.0 41.0 L36.95 41.55 36.95 41.65 37.0 41.6 Q37.05 41.5 37.2 41.5 L37.35 41.55 37.5 41.6 37.55 41.7 37.7 41.85 37.8 42.0 37.85 42.1 37.85 42.2 38.15 41.9 38.45 41.55 38.85 41.4 39.25 41.0 Q39.6 41.2 39.4 41.55 L39.1 42.15 39.35 42.0 39.5 42.1 39.6 42.15 39.65 42.25 39.65 42.45 39.65 42.6 39.65 42.8 39.6 43.0 39.55 43.05 39.45 43.1 39.35 43.15 39.2 43.1 39.1 43.0 39.0 43.1 38.9 43.1 38.8 43.1 38.65 43.05 38.2 43.0 38.15 42.8 37.7 42.9 37.35 42.85 37.3 42.8 37.2 42.65 37.0 42.5 36.95 42.4 36.8 42.55 36.55 42.5 36.4 42.25 36.4 42.0 36.3 42.15 36.3 42.2 36.25 42.2 36.2 42.4 35.85 42.25 35.6 43.0 35.35 42.9 35.3 42.7 35.2 42.55 35.15 42.5 Q34.95 42.4 34.8 42.65 L34.5 43.0 34.05 42.9 34.0 42.7 34.05 42.55 34.15 42.4 34.3 42.2 34.35 42.15 34.5 42.0 34.6 42.1 34.8 41.85 Q34.9 41.55 35.15 41.55 L35.4 41.8 35.5 41.5 35.5 41.25 35.45 39.75 35.35 38.25 Q35.3 37.6 35.6 37.35 35.95 37.9 35.9 38.65 M34.8 39.4 L34.75 39.8 34.6 40.3 34.4 40.8 34.15 41.2 34.3 41.05 34.5 40.8 34.85 40.55 35.15 40.4 Q35.4 40.8 34.95 41.3 L34.3 42.0 33.8 42.8 33.35 43.05 33.05 42.5 32.9 42.65 32.8 42.55 32.7 42.85 Q32.2 43.15 31.9 42.5 L31.45 41.6 30.95 40.75 Q30.55 40.2 31.0 39.85 L31.6 40.55 32.1 41.25 32.45 41.6 32.35 41.4 32.3 40.0 32.2 38.45 Q32.05 37.75 32.45 37.45 L32.65 38.85 32.85 40.2 33.15 41.55 33.2 41.95 33.75 40.85 34.25 40.05 34.8 39.4 M5.8 53.05 L5.75 53.9 5.5 54.55 4.7 55.95 3.95 57.35 3.65 57.8 4.75 56.7 5.85 55.5 Q6.45 54.9 7.05 55.15 6.95 55.7 6.45 56.1 5.85 56.65 5.35 57.35 L4.4 58.35 5.9 57.6 7.6 57.4 5.8 58.8 Q4.85 59.45 3.9 59.75 L3.6 59.85 3.55 59.95 3.4 60.0 2.95 60.1 2.6 60.0 2.45 59.95 2.35 59.85 2.35 59.75 2.25 59.7 0.6 59.65 0.35 59.45 0.35 59.4 0.5 59.25 1.25 59.05 1.55 59.05 0.8 58.55 0.15 58.0 Q-0.65 57.6 -0.35 57.05 L-0.3 57.0 Q0.35 57.0 0.8 57.35 L1.4 57.95 0.9 56.65 0.25 54.95 Q0.0 54.3 0.15 53.9 L0.35 53.6 0.65 53.9 1.2 55.1 1.9 56.65 2.5 57.95 2.5 57.5 2.6 55.7 2.7 53.9 2.7 53.85 Q2.75 53.0 3.05 52.5 3.45 52.95 3.35 53.7 L3.35 53.9 3.3 54.95 3.35 56.3 3.35 57.25 4.0 56.05 4.65 54.7 5.1 53.9 5.3 53.35 Q5.5 52.95 5.8 53.05 M54.8 58.85 L54.35 58.0 Q54.05 57.5 54.4 57.15 L54.45 57.1 55.05 57.75 55.4 58.45 55.75 58.9 55.8 58.15 55.85 57.55 55.7 56.55 Q55.7 55.95 55.95 55.7 56.3 56.05 56.25 56.7 56.2 57.35 56.3 57.9 L56.4 58.55 56.9 57.75 Q57.1 57.3 57.45 57.15 57.95 57.35 57.5 57.95 L56.95 58.95 56.75 59.35 57.4 58.95 58.15 58.55 59.0 58.35 Q59.05 58.85 58.5 59.2 L57.55 59.85 56.7 60.3 Q56.25 60.55 56.1 60.3 L55.75 60.55 55.6 60.3 55.2 59.65 54.8 58.85" fill="#4b9601" fill-rule="evenodd" stroke="none"/>
    <path d="M55.25 27.3 L55.75 27.3 55.9 27.35 59.1 32.2 Q60.85 34.75 62.4 37.45 64.0 40.25 65.05 43.25 65.8 45.5 66.9 47.6 61.8 53.55 55.95 58.8 L51.55 62.25 50.25 62.7 Q41.05 63.4 32.0 63.15 L30.3 62.85 Q28.55 62.25 27.2 61.3 L26.2 60.3 Q24.85 60.35 23.15 59.15 L21.15 57.8 19.0 56.3 16.85 54.8 15.3 53.9 12.9 52.5 6.15 49.2 Q3.65 48.0 2.15 46.55 L2.25 46.55 2.75 46.8 Q2.6 46.05 3.45 44.8 4.95 42.45 5.8 39.75 6.8 36.6 9.15 34.15 11.4 31.9 13.05 29.35 L52.35 27.55 55.25 27.3" fill="#000000" fill-opacity="0.2" fill-rule="evenodd" stroke="none"/>
    <path d="M45.3 4.6 L46.35 4.6 46.35 4.55 46.0 4.15 45.7 4.05 45.05 3.8 44.15 3.25 44.05 2.8 44.05 2.45 43.8 2.2 43.7 2.15 43.7 1.95 43.7 1.65 43.55 1.35 43.45 1.0 43.4 0.85 43.35 0.8 43.35 0.7 Q43.2 0.55 43.0 0.5 L42.6 0.3 42.2 0.1 42.15 -0.15 42.1 -0.4 42.1 -0.45 36.7 -0.65 36.6 -0.5 36.55 -0.4 36.55 -0.3 36.5 -0.25 36.5 -0.15 36.5 -0.05 36.5 0.1 36.45 0.15 36.15 0.4 35.05 0.25 34.85 0.35 33.25 0.85 30.25 1.2 30.35 1.4 30.45 1.9 30.55 2.15 30.55 2.35 30.45 2.6 30.3 2.65 29.85 2.45 29.55 2.05 29.35 1.9 29.0 1.75 28.95 1.4 28.9 1.2 Q28.7 1.3 28.65 1.0 L28.4 0.4 28.4 0.35 26.35 0.15 Q25.4 -0.05 24.6 -0.45 L24.6 -0.65 24.1 -0.5 24.1 -0.4 Q23.85 0.35 23.0 -0.05 L22.55 -0.2 22.45 -0.25 21.8 -0.3 21.6 -0.3 21.35 -0.25 20.3 0.25 Q20.0 1.2 19.25 1.7 18.4 2.25 17.4 2.6 L16.45 3.25 16.25 4.6 16.1 4.6 16.1 9.6 13.7 9.6 Q13.25 9.8 12.95 10.15 12.6 10.45 12.5 10.9 L11.9 11.95 11.15 12.6 10.55 15.55 10.65 15.55 10.65 18.85 9.35 18.85 8.4 19.6 Q8.0 19.8 7.75 20.3 L7.2 21.35 6.4 22.1 5.5 26.1 5.4 26.1 5.4 26.3 5.35 26.55 5.4 26.55 5.4 28.95 4.7 28.95 3.9 29.5 3.8 29.55 1.85 36.6 1.8 36.85 1.7 37.4 1.7 38.45 1.65 38.95 2.05 46.25 24.2 46.15 24.2 56.35 26.7 56.35 26.7 56.15 36.2 56.15 36.2 56.35 38.75 56.35 38.75 46.1 62.3 46.0 62.45 36.5 62.7 36.5 59.65 28.4 59.35 28.3 59.05 28.15 57.6 28.2 57.6 26.1 55.25 20.15 54.6 19.6 54.35 19.25 53.55 19.25 53.55 15.2 53.6 15.2 51.85 10.9 51.8 10.75 51.4 10.25 51.35 10.2 47.95 10.15 47.95 6.95 47.9 6.95 47.65 6.85 47.45 6.6 47.3 6.3 47.1 5.95 47.05 5.75 47.05 5.65 47.15 5.45 47.2 5.4 46.4 5.1 46.35 4.85 46.35 4.6" fill="none" stroke="#5a5029" stroke-linecap="round" stroke-linejoin="round" stroke-width="1.5"/>
    <path d="M44.55 15.05 L45.15 15.05 Q45.5 15.35 46.0 15.45 L45.15 15.3 44.55 15.05 M36.2 11.85 L36.1 11.85 36.2 11.8 36.2 11.85 M38.5 7.85 L38.85 8.2 Q39.45 8.9 39.2 9.9 L39.1 9.95 38.85 10.15 38.55 10.4 38.5 9.65 38.5 8.3 38.5 7.85 M30.9 9.0 L30.8 9.15 30.3 9.0 30.9 9.0 M20.75 5.75 L20.45 5.75 Q20.35 5.55 20.5 5.4 L20.75 5.6 20.75 5.75 M20.45 4.65 L20.35 4.65 20.15 4.65 19.95 4.75 19.95 4.85 19.9 4.95 19.9 4.8 19.8 4.6 20.7 4.6 20.5 4.65 20.45 4.65 M33.3 22.75 L33.5 22.75 33.35 22.8 33.3 22.75 M32.35 15.7 L32.45 15.7 33.8 15.7 32.85 15.85 32.35 15.7 M17.35 15.05 L17.35 15.2 17.3 15.2 17.2 15.05 17.35 15.05 M18.15 15.05 L19.2 15.05 19.1 15.2 18.65 15.45 18.2 15.65 18.2 15.6 18.2 15.5 18.2 15.4 18.2 15.35 18.2 15.25 18.15 15.05 M13.45 26.15 L13.55 26.15 13.7 26.2 13.85 26.1 14.1 26.1 13.35 26.4 12.8 26.7 12.7 26.75 12.65 26.85 12.7 26.9 12.7 27.0 12.7 27.1 12.65 27.1 12.6 27.0 12.6 26.9 12.6 26.85 12.7 26.55 13.1 26.25 13.45 26.15 M8.35 36.85 L8.2 37.0 8.1 37.15 7.95 37.3 7.85 37.4 7.85 37.55 7.75 37.45 Q7.45 37.6 7.6 37.25 L7.75 36.85 7.75 36.8 8.45 36.8 8.35 36.85 M18.55 57.7 L18.65 57.9 18.5 58.25 18.25 58.6 18.05 58.85 18.0 59.05 18.4 59.3 19.2 59.8 Q19.6 59.95 19.8 60.35 L19.85 60.5 19.7 60.7 19.25 60.95 19.2 60.95 18.35 60.9 18.15 60.7 18.05 60.65 17.85 60.65 17.65 60.7 17.4 60.7 17.2 60.6 17.05 60.45 17.0 60.4 16.8 60.1 16.7 60.05 16.8 59.4 Q16.85 59.1 17.05 58.75 17.4 58.25 17.8 58.2 L18.15 57.95 18.4 57.7 18.55 57.7 M59.85 55.6 L59.65 55.5 59.5 55.45 59.35 55.35 59.35 55.25 59.35 55.2 59.35 55.1 59.35 54.95 59.35 54.8 59.35 54.75 59.45 54.65 59.55 54.55 59.6 54.4 59.65 54.3 59.65 54.25 59.65 54.1 60.1 53.75 60.85 53.25 61.3 52.85 61.45 52.8 Q61.8 52.75 61.8 53.0 L61.7 53.5 61.65 53.6 61.5 53.7 61.3 53.9 60.95 54.2 60.9 54.3 60.9 54.5 60.95 54.7 61.1 55.0 61.2 55.25 61.25 55.45 61.3 55.7 61.75 55.85 62.65 56.1 62.85 56.3 63.0 55.85 63.15 55.7 64.0 55.75 64.05 55.8 64.2 55.85 64.25 55.95 64.2 56.05 64.15 56.1 63.95 56.15 63.4 56.35 63.35 56.4 63.25 56.5 63.15 56.6 63.05 56.7 62.95 56.8 62.85 56.8 62.8 56.8 62.6 56.8 62.2 57.05 61.95 57.05 61.9 57.05 Q61.4 57.0 60.7 56.55 L60.15 55.95 60.0 55.7 59.9 55.6 59.85 55.6" fill="#bba96c" fill-rule="evenodd" stroke="none"/>
    <path d="M16.25 4.6 L16.45 3.25 17.4 2.6 Q18.4 2.25 19.25 1.7 20.0 1.2 20.3 0.25 L21.35 -0.25 21.6 -0.3 21.8 -0.3 22.45 -0.25 22.55 -0.2 23.0 -0.05 Q23.85 0.35 24.1 -0.4 L24.1 -0.5 24.6 -0.65 24.6 -0.45 Q25.4 -0.05 26.35 0.15 L28.4 0.35 28.4 0.4 28.65 1.0 Q28.7 1.3 28.9 1.2 L28.95 1.4 29.0 1.75 29.35 1.9 29.55 2.05 29.85 2.45 30.3 2.65 30.45 2.6 30.55 2.35 30.55 2.15 30.45 1.9 30.35 1.4 30.25 1.2 33.25 0.85 34.85 0.35 35.05 0.25 36.15 0.4 36.45 0.15 36.5 0.1 36.5 -0.05 36.5 -0.15 36.5 -0.25 36.55 -0.3 36.55 -0.4 36.6 -0.5 36.7 -0.65 42.1 -0.45 42.1 -0.4 42.15 -0.15 42.2 0.1 42.6 0.3 43.0 0.5 Q43.2 0.55 43.35 0.7 L43.35 0.8 43.4 0.85 43.45 1.0 43.55 1.35 43.7 1.65 43.7 1.95 43.7 2.15 43.8 2.2 44.05 2.45 44.05 2.8 44.15 3.25 45.05 3.8 45.7 4.05 46.0 4.15 46.35 4.55 46.35 4.6 45.3 4.6 45.4 4.65 45.5 4.7 45.55 4.8 45.4 5.0 44.85 5.1 44.65 5.0 44.65 5.1 44.65 5.25 44.65 5.55 44.6 6.0 44.55 6.05 Q44.25 6.4 43.95 6.05 L43.55 5.7 43.35 5.65 Q42.3 5.65 41.45 5.1 L41.35 5.0 41.35 4.85 41.35 4.75 41.35 4.7 41.35 4.6 38.75 4.6 38.75 6.9 Q38.55 7.35 38.5 7.75 L38.85 8.15 38.95 8.25 39.4 8.95 39.4 9.65 39.35 9.9 39.1 10.05 38.65 10.45 38.75 10.6 38.75 13.0 47.95 13.0 47.95 10.15 51.35 10.2 51.4 10.25 51.8 10.75 51.85 10.9 53.55 15.05 52.75 15.05 52.5 15.45 52.45 15.5 50.75 15.4 50.3 15.05 49.8 15.05 49.55 15.3 49.1 15.5 49.15 15.65 49.2 16.05 49.3 16.2 49.3 16.3 49.3 16.45 49.2 16.65 49.2 16.75 49.05 16.8 48.8 16.75 48.45 16.55 48.4 16.4 48.35 16.25 48.45 16.1 48.55 16.05 48.65 16.1 48.8 16.15 48.8 16.1 48.75 16.0 48.4 15.9 48.1 15.65 Q47.8 15.35 47.3 15.4 L46.6 15.5 Q47.15 15.55 47.35 16.05 L47.35 16.15 47.3 16.2 45.65 16.3 45.5 16.2 45.4 16.15 44.4 15.55 42.5 15.05 38.75 15.05 38.75 16.2 40.2 16.25 40.7 16.55 40.75 16.65 40.75 16.7 40.75 16.9 40.75 17.05 40.75 17.15 40.75 17.25 40.75 17.35 40.75 17.45 40.75 17.6 40.65 17.6 40.65 17.5 40.65 17.3 40.65 17.15 40.65 17.05 40.65 17.0 40.65 16.85 40.65 16.75 40.6 16.65 40.6 16.6 40.4 16.55 39.0 16.45 38.75 16.45 38.75 16.7 38.7 16.8 38.5 17.45 38.4 18.1 Q38.4 18.45 38.75 18.55 L38.75 19.2 38.75 19.3 38.7 19.9 38.7 20.1 38.9 19.85 39.4 19.55 39.65 19.3 39.65 19.25 40.45 19.45 40.65 19.6 39.4 19.7 39.05 19.85 38.7 20.15 38.75 20.85 38.75 24.05 53.55 24.05 53.55 19.25 54.35 19.25 54.6 19.6 55.25 20.15 57.6 26.1 52.45 26.1 52.05 26.3 51.95 26.5 51.85 26.7 51.8 26.9 51.75 27.05 51.65 27.3 51.55 27.35 Q51.2 27.2 51.2 26.85 L50.9 26.15 50.9 26.1 38.75 26.1 38.75 28.25 Q38.55 28.65 38.65 29.1 L38.55 30.2 38.1 31.25 38.1 31.7 38.0 32.15 38.2 32.5 38.65 32.55 38.75 32.55 38.75 32.7 38.75 34.75 57.6 34.75 57.6 28.2 59.05 28.15 59.35 28.3 59.65 28.4 62.7 36.5 62.45 36.5 62.45 36.25 59.3 36.35 58.9 36.65 59.05 36.85 59.2 37.05 59.45 37.3 59.55 37.6 59.5 37.7 Q58.9 38.25 58.3 37.35 57.85 36.75 57.1 36.8 55.9 36.95 55.25 36.35 L38.75 36.55 38.75 46.1 38.75 56.35 36.2 56.35 36.2 56.15 36.2 53.5 33.85 53.5 32.75 53.7 29.8 54.0 29.75 53.95 29.75 53.85 29.85 53.5 26.7 53.5 26.7 56.15 26.7 56.35 24.2 56.35 24.2 46.15 24.2 44.8 Q24.6 44.55 24.65 43.95 L24.5 42.2 24.25 40.4 24.2 40.05 24.2 36.65 12.15 36.8 12.15 36.85 12.1 36.95 11.95 37.05 11.85 37.2 11.8 37.3 11.75 37.35 10.4 37.45 8.95 37.65 8.9 37.65 8.2 37.9 7.95 37.9 7.85 37.95 7.45 38.4 7.05 38.9 6.85 38.45 6.95 38.0 7.25 37.6 7.4 37.25 7.4 37.15 7.35 36.85 7.35 36.8 1.8 36.85 1.85 36.6 3.8 29.55 3.9 29.5 4.7 28.95 5.4 28.95 5.4 34.75 24.2 34.75 24.2 33.35 24.35 32.8 24.3 31.25 24.2 30.5 24.2 26.1 19.4 26.1 19.4 26.15 19.45 26.4 19.6 26.75 19.45 27.0 Q19.3 27.2 19.15 27.0 L19.0 26.5 18.9 26.1 16.65 26.1 16.45 26.2 15.35 26.4 Q14.7 26.4 14.1 26.75 L13.1 27.05 13.1 27.2 13.05 27.45 12.95 27.7 12.95 27.9 12.9 28.05 Q12.8 28.2 12.85 28.35 L12.85 28.8 12.65 29.1 12.5 29.1 Q12.3 28.95 12.4 28.75 L12.4 28.5 12.4 28.1 12.25 27.45 12.1 26.6 12.1 26.2 12.25 26.15 12.25 26.1 5.5 26.1 6.4 22.1 7.2 21.35 7.75 20.3 Q8.0 19.8 8.4 19.6 L9.35 18.85 10.65 18.85 10.65 24.05 24.2 24.05 24.2 22.3 24.25 21.65 24.2 21.4 24.2 20.9 24.3 20.85 24.45 20.65 24.5 20.55 24.5 20.45 24.5 20.35 24.5 20.25 24.5 20.2 24.5 20.1 24.5 19.9 24.5 19.8 24.5 19.75 24.45 19.65 24.35 19.55 24.2 19.45 24.2 15.05 20.15 15.05 19.7 15.85 19.05 16.45 18.25 16.85 18.2 17.0 18.2 17.05 18.2 17.15 18.15 17.3 18.1 17.45 18.1 17.8 18.15 19.0 18.0 20.25 Q17.7 20.1 17.75 19.65 L17.85 18.9 17.65 18.25 Q17.5 17.75 17.75 17.5 L17.65 16.9 17.55 16.65 17.3 16.3 17.1 15.85 16.5 15.3 16.25 15.05 11.9 15.05 11.7 15.3 11.3 15.55 Q11.1 15.9 10.75 15.55 L10.85 15.2 10.95 15.05 10.65 15.05 11.15 12.6 11.9 11.95 12.5 10.9 Q12.6 10.45 12.95 10.15 13.25 9.8 13.7 9.6 L16.1 9.6 16.1 13.0 24.2 13.0 24.2 10.9 24.35 10.05 24.3 8.95 24.25 7.85 24.2 7.1 24.2 4.6 21.85 4.6 21.6 4.85 21.45 5.05 21.25 5.25 21.25 5.35 21.25 5.65 21.15 6.0 21.15 6.3 21.15 6.75 21.1 7.1 21.0 7.15 20.75 6.95 20.65 6.75 20.45 6.35 20.35 6.0 20.3 5.95 19.8 5.9 19.45 5.55 19.35 5.25 19.15 4.75 19.1 4.75 18.55 4.6 16.25 4.6 M47.35 2.7 L47.45 2.9 47.4 3.05 47.4 2.95 47.35 2.7 M45.5 -0.4 L45.5 -0.35 45.4 -0.4 45.5 -0.4 M35.7 -0.35 L35.9 -0.65 35.85 -0.45 35.85 -0.35 35.7 -0.35 M32.5 -0.4 L32.65 -0.7 32.7 -0.7 32.7 -0.65 32.55 -0.4 32.45 -0.35 32.5 -0.4 M44.55 15.05 L45.15 15.3 46.0 15.45 Q45.5 15.35 45.15 15.05 L44.55 15.05 M53.55 15.2 L53.55 15.05 53.6 15.2 53.55 15.2 M59.9 37.85 L60.05 37.95 60.1 38.2 60.05 38.35 59.7 38.25 59.6 38.05 59.5 37.75 59.55 37.7 59.8 37.65 59.85 37.75 59.9 37.85 M31.35 9.3 L30.05 9.45 28.65 9.0 26.7 9.0 26.7 11.85 35.75 11.85 36.2 11.7 36.2 9.0 31.4 9.0 31.35 9.3 M30.9 9.0 L30.3 9.0 30.8 9.15 30.9 9.0 M38.5 7.85 L38.5 8.3 38.5 9.65 38.55 10.4 38.85 10.15 39.1 9.95 39.2 9.9 Q39.45 8.9 38.85 8.2 L38.5 7.85 M36.2 11.85 L36.2 11.8 36.1 11.85 36.2 11.85 M36.2 4.55 L26.7 4.55 26.7 7.15 36.2 7.15 36.2 4.55 M20.45 4.65 L20.5 4.65 20.7 4.6 19.8 4.6 19.9 4.8 19.9 4.95 19.95 4.85 19.95 4.75 20.15 4.65 20.35 4.65 20.45 4.65 M20.75 5.75 L20.75 5.6 20.5 5.4 Q20.35 5.55 20.45 5.75 L20.75 5.75 M26.7 15.95 L31.45 15.95 29.7 15.9 29.85 15.7 30.0 15.65 32.45 15.55 32.5 15.55 34.4 15.65 35.05 15.9 35.6 15.95 36.2 15.95 36.2 13.25 32.55 13.25 31.95 13.4 29.1 13.85 30.8 13.25 26.7 13.25 26.7 15.95 M26.7 22.75 L26.7 25.45 36.2 25.45 36.2 22.75 35.2 22.75 34.0 23.15 33.4 23.2 33.3 23.15 33.25 23.0 32.95 22.75 32.9 22.75 32.7 22.8 32.0 22.75 29.7 22.75 29.65 22.8 28.95 22.75 26.7 22.75 M26.7 20.4 L36.2 20.4 36.2 17.6 33.9 17.6 33.8 17.6 26.7 17.6 26.7 20.4 M32.35 15.7 L32.85 15.85 33.8 15.7 32.45 15.7 32.35 15.7 M33.3 22.75 L33.35 22.8 33.5 22.75 33.3 22.75 M18.15 15.05 L18.2 15.25 18.2 15.35 18.2 15.4 18.2 15.5 18.2 15.6 18.2 15.65 18.65 15.45 19.1 15.2 19.2 15.05 18.15 15.05 M17.35 15.05 L17.2 15.05 17.3 15.2 17.35 15.2 17.35 15.05 M10.65 15.55 L10.55 15.55 10.65 15.05 10.65 15.55 M13.45 26.15 L13.1 26.25 12.7 26.55 12.6 26.85 12.6 26.9 12.6 27.0 12.65 27.1 12.7 27.1 12.7 27.0 12.7 26.9 12.65 26.85 12.7 26.75 12.8 26.7 13.35 26.4 14.1 26.1 13.85 26.1 13.7 26.2 13.55 26.15 13.45 26.15 M13.5 30.4 L13.45 30.45 13.05 30.45 Q12.9 30.4 13.05 30.3 L13.15 30.15 13.5 30.4 M17.05 31.95 L17.15 32.3 17.1 32.5 16.8 32.45 16.55 32.25 16.4 31.85 16.4 31.65 16.55 31.6 16.55 31.55 16.75 31.65 16.9 31.75 17.05 31.95 M5.4 26.3 L5.4 26.55 5.35 26.55 5.4 26.3 M8.55 29.35 L8.55 29.55 8.5 29.6 8.4 29.55 8.4 29.4 8.55 29.35 M9.3 31.1 L9.35 31.1 9.3 31.25 9.25 31.3 9.1 31.25 9.1 31.15 9.3 31.1 M8.35 36.85 L8.45 36.8 7.75 36.8 7.75 36.85 7.6 37.25 Q7.45 37.6 7.75 37.45 L7.85 37.55 7.85 37.4 7.95 37.3 8.1 37.15 8.2 37.0 8.35 36.85 M36.2 28.0 L29.9 28.0 29.9 28.05 29.85 28.1 29.3 28.3 29.1 28.35 28.25 28.3 28.25 28.25 28.25 28.15 28.25 28.1 28.35 28.0 26.7 28.0 26.7 30.6 36.2 30.6 36.2 28.0 M33.8 34.0 L33.4 34.15 32.7 34.1 32.65 34.05 32.65 33.95 Q32.6 33.65 32.85 33.65 L33.4 33.65 33.7 33.75 33.85 33.95 33.8 34.0 M31.6 33.85 L31.9 34.05 32.2 34.1 32.55 34.4 32.5 34.55 32.45 34.65 32.35 34.7 32.25 34.75 31.9 34.75 31.8 34.65 31.75 34.6 31.7 34.45 31.35 34.3 31.1 34.2 30.05 34.05 30.0 33.95 29.95 33.85 29.9 33.75 29.25 33.75 Q28.65 33.85 28.6 33.6 L26.7 33.6 26.7 36.55 36.2 36.55 36.2 33.6 30.3 33.6 31.4 33.75 31.6 33.85 M28.7 40.95 L28.8 40.95 28.55 40.6 28.55 40.55 28.6 40.45 28.85 40.4 28.9 40.4 Q29.1 40.75 29.35 40.75 L31.8 40.75 Q32.2 40.8 32.3 41.0 L36.2 41.0 36.2 38.55 26.7 38.55 26.7 41.0 28.55 41.0 28.7 40.95 M26.7 46.7 L36.2 46.7 36.2 43.95 30.65 43.95 30.8 44.05 30.95 44.3 Q30.9 44.55 30.55 44.5 L30.4 44.5 Q29.65 44.5 29.0 43.95 L26.7 43.95 26.7 46.7 M31.2 48.9 L26.7 48.9 26.7 51.9 36.2 51.9 36.2 48.9 32.65 48.9 32.75 48.95 33.3 49.05 33.65 49.25 33.6 49.35 32.6 49.45 Q32.05 49.2 31.5 49.45 31.1 49.7 31.0 49.3 L31.0 49.2 31.1 48.95 31.2 48.9 M18.55 57.7 L18.6 57.65 18.9 57.55 19.35 57.55 19.65 57.8 20.05 58.25 20.45 58.75 20.95 59.3 21.1 59.75 21.1 59.85 21.05 59.95 21.0 60.0 20.95 60.1 20.85 60.25 20.8 60.4 20.75 60.55 19.25 60.95 19.7 60.7 19.85 60.5 19.8 60.35 Q19.6 59.95 19.2 59.8 L18.4 59.3 18.0 59.05 18.05 58.85 18.25 58.6 18.5 58.25 18.65 57.9 18.55 57.7 M18.35 60.9 L17.65 60.7 17.85 60.65 18.05 60.65 18.15 60.7 18.35 60.9 M61.8 53.0 L62.55 53.1 63.6 53.75 Q64.15 54.2 64.15 54.95 L64.05 55.8 64.0 55.75 63.15 55.7 63.0 55.85 62.85 56.3 62.65 56.1 61.75 55.85 61.3 55.7 61.25 55.45 61.2 55.25 61.1 55.0 60.95 54.7 60.9 54.5 60.9 54.3 60.95 54.2 61.3 53.9 61.5 53.7 61.65 53.65 61.7 53.65 61.65 53.6 61.7 53.5 61.8 53.0 M63.95 56.15 L63.9 56.3 63.35 56.55 63.05 56.7 63.15 56.6 63.25 56.5 63.35 56.4 63.4 56.35 63.95 56.15 M62.85 56.8 L62.2 57.05 62.6 56.8 62.8 56.8 62.85 56.8 M61.9 57.05 Q61.2 57.05 60.6 56.55 L59.85 55.6 59.9 55.6 60.0 55.7 60.15 55.95 60.7 56.55 Q61.4 57.0 61.9 57.05" fill="#c9bb9c" fill-rule="evenodd" stroke="none"/>
    <path d="M16.25 4.6 L18.55 4.6 19.1 4.75 19.15 4.75 19.35 5.25 19.45 5.55 19.8 5.9 20.3 5.95 20.35 6.0 20.45 6.35 20.65 6.75 20.75 6.95 21.0 7.15 21.1 7.1 21.15 6.75 21.15 6.3 21.15 6.0 21.25 5.65 21.25 5.35 21.25 5.25 21.45 5.05 21.6 4.85 21.85 4.6 24.2 4.6 24.2 7.1 24.25 7.85 24.3 8.95 24.35 10.05 24.2 10.9 24.2 13.0 16.1 13.0 16.1 9.6 16.1 4.6 16.25 4.6 M10.65 15.05 L10.95 15.05 10.85 15.2 10.75 15.55 Q11.1 15.9 11.3 15.55 L11.7 15.3 11.9 15.05 16.25 15.05 16.5 15.3 17.1 15.85 17.3 16.3 17.55 16.65 17.65 16.9 17.75 17.5 Q17.5 17.75 17.65 18.25 L17.85 18.9 17.75 19.65 Q17.7 20.1 18.0 20.25 L18.15 19.0 18.1 17.8 18.1 17.45 18.15 17.3 18.2 17.15 18.2 17.05 18.2 17.0 18.25 16.85 19.05 16.45 19.7 15.85 20.15 15.05 24.2 15.05 24.2 19.45 24.35 19.55 24.45 19.65 24.5 19.75 24.5 19.8 24.5 19.9 24.5 20.1 24.5 20.2 24.5 20.25 24.5 20.35 24.5 20.45 24.5 20.55 24.45 20.65 24.3 20.85 24.2 20.9 24.2 21.4 24.25 21.65 24.2 22.3 24.2 24.05 10.65 24.05 10.65 18.85 10.65 15.55 10.65 15.05 M5.5 26.1 L12.25 26.1 12.25 26.15 12.1 26.2 12.1 26.6 12.25 27.45 12.4 28.1 12.4 28.5 12.4 28.75 Q12.3 28.95 12.5 29.1 L12.65 29.1 12.85 28.8 12.85 28.35 Q12.8 28.2 12.9 28.05 L12.95 27.9 12.95 27.7 13.05 27.45 13.1 27.2 13.1 27.05 14.1 26.75 Q14.7 26.4 15.35 26.4 L16.45 26.2 16.65 26.1 18.9 26.1 19.0 26.5 19.15 27.0 Q19.3 27.2 19.45 27.0 L19.6 26.75 19.45 26.4 19.4 26.15 19.4 26.1 24.2 26.1 24.2 30.5 24.3 31.25 24.35 32.8 24.2 33.35 24.2 34.75 5.4 34.75 5.4 28.95 5.4 26.55 5.4 26.3 5.4 26.1 5.5 26.1 M1.8 36.85 L7.35 36.8 7.35 36.85 7.4 37.15 7.4 37.25 7.25 37.6 6.95 38.0 6.85 38.45 7.05 38.9 7.45 38.4 7.85 37.95 7.95 37.9 8.2 37.9 8.9 37.65 8.95 37.65 10.4 37.45 11.75 37.35 11.8 37.3 11.85 37.2 11.95 37.05 12.1 36.95 12.15 36.85 12.15 36.8 24.2 36.65 24.2 40.05 24.25 40.4 24.5 42.2 24.65 43.95 Q24.6 44.55 24.2 44.8 L24.2 46.15 2.05 46.25 1.65 38.95 1.7 38.45 1.7 37.4 1.8 36.85 M26.7 56.15 L26.7 53.5 29.85 53.5 29.75 53.85 29.75 53.95 29.8 54.0 32.75 53.7 33.85 53.5 36.2 53.5 36.2 56.15 26.7 56.15 M38.75 46.1 L38.75 36.55 55.25 36.35 Q55.9 36.95 57.1 36.8 57.85 36.75 58.3 37.35 58.9 38.25 59.5 37.7 L59.55 37.6 59.45 37.3 59.2 37.05 59.05 36.85 58.9 36.65 59.3 36.35 62.45 36.25 62.45 36.5 62.3 46.0 38.75 46.1 M57.6 28.2 L57.6 34.75 38.75 34.75 38.75 32.7 38.75 32.55 38.65 32.55 38.2 32.5 38.0 32.15 38.1 31.7 38.1 31.25 38.55 30.2 38.65 29.1 Q38.55 28.65 38.75 28.25 L38.75 26.1 50.9 26.1 50.9 26.15 51.2 26.85 Q51.2 27.2 51.55 27.35 L51.65 27.3 51.75 27.05 51.8 26.9 51.85 26.7 51.95 26.5 52.05 26.3 52.45 26.1 57.6 26.1 57.6 28.2 M53.55 19.25 L53.55 24.05 38.75 24.05 38.75 20.85 38.7 20.15 39.05 19.85 39.4 19.7 40.65 19.6 40.45 19.45 39.65 19.25 39.65 19.3 39.4 19.55 38.9 19.85 38.7 20.1 38.7 19.9 38.75 19.3 38.75 19.2 38.75 18.55 Q38.4 18.45 38.4 18.1 L38.5 17.45 38.7 16.8 38.75 16.7 38.75 16.45 39.0 16.45 40.4 16.55 40.6 16.6 40.6 16.65 40.65 16.75 40.65 16.85 40.65 17.0 40.65 17.05 40.65 17.15 40.65 17.3 40.65 17.5 40.65 17.6 40.75 17.6 40.75 17.45 40.75 17.35 40.75 17.25 40.75 17.15 40.75 17.05 40.75 16.9 40.75 16.7 40.75 16.65 40.7 16.55 40.2 16.25 38.75 16.2 38.75 15.05 42.5 15.05 44.4 15.55 45.4 16.15 45.5 16.2 45.65 16.3 47.3 16.2 47.35 16.15 47.35 16.05 Q47.15 15.55 46.6 15.5 L47.3 15.4 Q47.8 15.35 48.1 15.65 L48.4 15.9 48.75 16.0 48.8 16.1 48.8 16.15 48.65 16.1 48.55 16.05 48.45 16.1 48.35 16.25 48.4 16.4 48.45 16.55 48.8 16.75 49.05 16.8 49.2 16.75 49.2 16.65 49.3 16.45 49.3 16.3 49.3 16.2 49.2 16.05 49.15 15.65 49.1 15.5 49.55 15.3 49.8 15.05 50.3 15.05 50.75 15.4 52.45 15.5 52.5 15.45 52.75 15.05 53.55 15.05 53.55 15.2 53.55 19.25 M47.95 10.15 L47.95 13.0 38.75 13.0 38.75 10.6 38.65 10.45 39.1 10.05 39.35 9.9 39.4 9.65 39.4 8.95 38.95 8.25 38.85 8.15 38.5 7.75 Q38.55 7.35 38.75 6.9 L38.75 4.6 41.35 4.6 41.35 4.7 41.35 4.75 41.35 4.85 41.35 5.0 41.45 5.1 Q42.3 5.65 43.35 5.65 L43.55 5.7 43.95 6.05 Q44.25 6.4 44.55 6.05 L44.6 6.0 44.65 5.55 44.65 5.25 44.65 5.1 44.65 5.0 44.85 5.1 45.4 5.0 45.55 4.8 45.5 4.7 45.4 4.65 45.3 4.6 46.35 4.6 46.35 4.85 46.4 5.1 47.2 5.4 47.15 5.45 47.05 5.65 47.05 5.75 47.1 5.95 47.3 6.3 47.45 6.6 47.65 6.85 47.9 6.95 47.95 6.95 47.95 10.15 M59.9 37.85 L59.85 37.75 59.8 37.65 59.55 37.7 59.5 37.75 59.6 38.05 59.7 38.25 60.05 38.35 60.1 38.2 60.05 37.95 59.9 37.85 M31.35 9.3 L31.4 9.0 36.2 9.0 36.2 11.7 35.75 11.85 26.7 11.85 26.7 9.0 28.65 9.0 30.05 9.45 31.35 9.3 M36.2 4.55 L36.2 7.15 26.7 7.15 26.7 4.55 36.2 4.55 M26.7 20.4 L26.7 17.6 33.8 17.6 33.9 17.6 36.2 17.6 36.2 20.4 26.7 20.4 M26.7 22.75 L28.95 22.75 29.65 22.8 29.7 22.75 32.0 22.75 32.7 22.8 32.9 22.75 32.95 22.75 33.25 23.0 33.3 23.15 33.4 23.2 34.0 23.15 35.2 22.75 36.2 22.75 36.2 25.45 26.7 25.45 26.7 22.75 M26.7 15.95 L26.7 13.25 30.8 13.25 29.1 13.85 31.95 13.4 32.55 13.25 36.2 13.25 36.2 15.95 35.6 15.95 35.05 15.9 34.4 15.65 32.5 15.55 32.45 15.55 30.0 15.65 29.85 15.7 29.7 15.9 31.45 15.95 26.7 15.95 M17.05 31.95 L16.9 31.75 16.75 31.65 16.55 31.55 16.55 31.6 16.4 31.65 16.4 31.85 16.55 32.25 16.8 32.45 17.1 32.5 17.15 32.3 17.05 31.95 M13.5 30.4 L13.15 30.15 13.05 30.3 Q12.9 30.4 13.05 30.45 L13.45 30.45 13.5 30.4 M9.3 31.1 L9.1 31.15 9.1 31.25 9.25 31.3 9.3 31.25 9.35 31.1 9.3 31.1 M8.55 29.35 L8.4 29.4 8.4 29.55 8.5 29.6 8.55 29.55 8.55 29.35 M31.2 48.9 L31.1 48.95 31.0 49.2 31.0 49.3 Q31.1 49.7 31.5 49.45 32.05 49.2 32.6 49.45 L33.6 49.35 33.65 49.25 33.3 49.05 32.75 48.95 32.65 48.9 36.2 48.9 36.2 51.9 26.7 51.9 26.7 48.9 31.2 48.9 M26.7 46.7 L26.7 43.95 29.0 43.95 Q29.65 44.5 30.4 44.5 L30.55 44.5 Q30.9 44.55 30.95 44.3 L30.8 44.05 30.65 43.95 36.2 43.95 36.2 46.7 26.7 46.7 M28.7 40.95 L28.55 41.0 26.7 41.0 26.7 38.55 36.2 38.55 36.2 41.0 32.3 41.0 Q32.2 40.8 31.8 40.75 L29.35 40.75 Q29.1 40.75 28.9 40.4 L28.85 40.4 28.6 40.45 28.55 40.55 28.55 40.6 28.8 40.95 28.7 40.95 M31.6 33.85 L31.4 33.75 30.3 33.6 36.2 33.6 36.2 36.55 26.7 36.55 26.7 33.6 28.6 33.6 Q28.65 33.85 29.25 33.75 L29.9 33.75 29.95 33.85 30.0 33.95 30.05 34.05 31.1 34.2 31.35 34.3 31.7 34.45 31.75 34.6 31.8 34.65 31.9 34.75 32.25 34.75 32.35 34.7 32.45 34.65 32.5 34.55 32.55 34.4 32.2 34.1 31.9 34.05 31.6 33.85 M33.8 34.0 L33.85 33.95 33.7 33.75 33.4 33.65 32.85 33.65 Q32.6 33.65 32.65 33.95 L32.65 34.05 32.7 34.1 33.4 34.15 33.8 34.0 M36.2 28.0 L36.2 30.6 26.7 30.6 26.7 28.0 28.35 28.0 28.25 28.1 28.25 28.15 28.25 28.25 28.25 28.3 29.1 28.35 29.3 28.3 29.85 28.1 29.9 28.05 29.9 28.0 36.2 28.0" fill="#9e8b49" fill-rule="evenodd" stroke="none"/>
    <path d="M41.2 14.3 L41.25 14.7 41.15 15.45 40.95 16.0 40.95 16.05 41.05 17.25 41.3 19.45 41.7 21.55 41.8 23.1 41.9 23.3 42.0 23.35 42.1 23.55 42.2 23.8 42.1 24.5 42.0 25.1 42.0 25.6 41.9 25.95 41.85 26.3 41.85 26.35 42.15 28.6 42.35 30.85 42.6 33.2 42.65 34.4 42.8 34.9 42.65 35.45 42.45 36.05 42.3 36.5 42.65 38.95 43.0 41.55 43.4 44.25 43.4 45.45 43.45 45.65 43.5 45.8 43.6 46.0 43.55 46.05 43.35 46.15 43.45 46.2 43.5 46.25 43.6 46.1 Q43.85 47.45 42.8 48.9 L41.25 51.55 Q40.5 52.85 40.0 54.35 L39.05 56.5 39.1 55.35 Q38.85 54.35 38.9 53.0 L38.95 51.5 38.85 50.4 38.9 48.65 38.9 48.55 38.8 49.45 Q38.35 43.65 38.45 37.3 L38.55 25.05 38.45 12.65 Q38.35 9.35 38.65 6.35 38.4 5.45 38.65 4.7 L38.8 4.75 38.85 4.75 38.85 4.8 38.85 4.95 38.85 5.0 38.85 5.45 39.55 7.8 40.25 10.45 41.0 13.0 41.2 14.3 M41.0 48.9 L41.1 48.8 41.05 48.8 41.0 48.9 M27.5 5.1 L27.75 5.75 28.15 6.25 28.35 6.95 28.1 7.15 28.15 9.6 28.25 9.95 28.55 10.55 28.7 11.2 28.8 11.85 28.7 11.9 28.3 11.95 28.2 12.15 28.25 13.05 28.45 13.6 28.75 14.25 28.95 14.95 28.9 15.6 28.75 15.65 28.35 15.7 28.25 15.7 28.25 17.4 28.45 18.0 28.7 18.85 29.1 19.7 Q29.25 20.15 29.0 20.45 L28.85 20.5 28.45 20.4 28.25 20.15 28.25 23.25 28.3 23.4 28.65 24.1 28.9 24.85 28.95 25.5 Q28.85 25.85 28.65 25.6 L28.25 25.45 28.2 27.75 Q28.6 27.95 28.6 28.35 L28.8 29.15 29.15 29.85 29.2 30.5 29.15 30.55 28.25 30.75 28.2 30.75 28.2 33.3 28.55 34.15 28.85 35.0 29.2 35.85 29.25 36.65 28.8 36.8 28.2 36.65 28.2 37.95 28.45 38.6 28.65 39.25 28.9 39.8 29.0 40.45 28.9 40.7 28.75 40.75 28.25 40.7 28.25 43.7 28.6 44.1 28.75 44.95 28.95 45.7 29.1 46.5 28.95 46.55 28.35 46.55 28.3 46.55 28.3 47.5 28.35 48.75 28.45 49.25 28.65 50.1 28.9 50.95 29.1 51.65 28.85 51.8 28.3 51.85 28.2 53.6 28.45 54.1 Q28.45 54.55 28.6 54.8 L28.85 55.6 29.0 56.4 28.9 56.55 28.4 56.5 28.2 56.45 28.05 56.4 28.0 56.5 27.95 56.65 27.95 56.55 27.8 56.55 27.2 56.5 27.1 56.45 26.85 56.35 26.75 56.6 26.75 56.3 26.7 56.3 26.55 55.6 26.6 55.0 26.6 54.6 26.6 54.25 Q26.55 54.05 26.65 54.0 26.4 48.3 26.45 42.45 L26.55 28.1 26.45 13.8 Q26.35 9.45 26.85 5.25 26.55 4.8 26.9 4.7 L26.9 4.4 27.0 4.4 27.0 4.65 Q27.3 4.75 27.5 5.1 M28.35 45.5 L28.3 45.4 28.3 45.65 28.35 45.5 M28.35 51.0 L28.3 50.95 28.3 51.15 28.35 51.0" fill="#000000" fill-opacity="0.2" fill-rule="evenodd" stroke="none"/>
    <path d="M61.4 24.6 Q61.8 25.45 61.7 26.35 61.55 27.55 60.45 27.95 L58.55 28.4 57.35 28.35 57.25 28.25 57.1 28.2 57.05 28.1 57.0 28.0 56.95 27.9 56.95 27.75 Q56.45 31.2 54.45 34.1 L52.9 36.1 54.6 36.15 55.6 36.7 56.35 37.65 56.65 38.85 56.35 39.75 53.55 39.7 Q52.35 39.0 51.6 37.85 L51.45 37.6 51.35 37.65 Q48.5 40.45 50.25 44.4 50.8 45.55 50.05 46.4 49.3 45.1 48.95 43.7 L48.2 44.0 44.7 43.85 Q43.75 43.2 44.1 42.1 44.3 41.55 44.7 41.25 45.05 41.05 45.3 41.0 L46.5 41.0 47.5 41.4 48.45 41.85 48.8 42.0 Q48.75 40.55 49.15 39.0 L49.65 37.85 49.6 37.85 49.4 37.85 48.55 36.85 Q48.05 36.2 48.05 35.4 L47.95 33.8 Q47.9 32.75 48.75 32.35 49.55 32.45 50.05 33.2 L50.75 34.8 51.0 36.2 51.4 35.9 Q53.55 34.35 54.7 32.15 53.85 32.15 53.15 31.45 52.3 30.55 51.75 29.5 51.15 28.35 51.3 27.1 51.4 26.4 51.85 25.9 L51.95 25.9 52.15 25.85 52.2 25.8 52.35 25.8 52.95 25.9 Q53.3 26.0 53.6 26.25 L54.1 26.8 54.65 27.35 54.8 27.5 54.95 28.05 55.15 28.9 55.5 29.9 55.5 29.95 55.75 28.65 Q56.25 24.85 54.65 21.6 L53.1 19.15 53.05 18.95 53.1 18.85 53.15 18.7 Q53.25 18.6 53.3 18.6 L53.4 18.55 53.55 18.5 Q57.0 21.05 57.05 25.65 L57.75 25.1 Q58.2 24.7 58.85 24.5 L59.15 24.45 61.15 24.5 61.3 24.5 61.4 24.6 M14.9 11.15 Q11.8 13.6 12.7 17.5 13.65 21.35 16.55 23.7 L16.55 23.4 Q16.45 22.5 16.75 21.7 16.95 20.9 17.5 20.3 L18.7 19.3 19.1 19.2 19.75 19.2 19.95 19.25 20.45 20.5 Q20.7 21.65 20.1 22.5 L18.75 23.95 Q18.25 24.4 17.7 24.45 21.25 26.55 20.5 30.95 19.9 34.7 17.7 36.8 19.4 37.35 20.25 39.0 21.25 41.05 19.25 41.7 17.95 42.2 17.3 40.9 16.4 39.3 16.85 37.55 15.2 38.65 12.95 39.1 13.55 39.55 13.75 40.35 14.1 41.45 14.0 42.6 13.8 43.8 12.8 44.25 11.95 44.5 11.4 43.75 L11.3 42.9 11.4 41.6 11.55 40.25 Q11.7 39.7 11.95 39.3 7.55 40.1 4.55 43.3 3.15 44.7 2.95 46.8 2.95 47.1 2.7 46.9 2.4 43.6 4.4 41.65 L3.85 41.3 Q3.3 40.8 3.15 40.1 L3.0 38.6 3.1 37.25 3.45 36.95 Q4.3 36.85 4.95 37.65 L5.75 39.25 5.8 40.6 8.05 39.7 9.85 39.15 Q9.15 39.15 8.65 38.45 8.05 37.65 8.05 36.65 8.0 35.6 8.2 34.75 8.4 34.1 8.9 34.0 9.8 33.8 10.2 34.6 10.6 35.35 10.6 36.15 L10.6 37.9 10.4 39.0 Q13.0 38.2 15.4 37.0 17.2 36.1 18.25 34.65 17.2 34.7 16.25 34.15 15.45 33.7 15.25 32.95 15.1 32.25 15.2 31.55 L15.25 31.25 15.3 31.2 15.7 30.95 15.8 30.85 15.9 30.75 16.25 30.65 16.25 30.6 Q16.95 30.5 17.6 30.95 18.25 31.25 18.75 31.9 L19.2 32.6 19.45 31.35 Q20.25 26.85 16.25 24.55 L14.25 23.15 Q13.4 24.5 11.8 25.05 10.55 25.45 9.9 24.35 9.55 23.55 9.9 22.95 10.55 22.0 11.45 21.75 L13.1 21.75 12.3 20.5 Q10.15 16.45 12.65 12.6 L14.6 9.85 Q14.95 9.3 14.85 8.55 L14.9 8.45 15.05 8.35 15.15 8.3 15.3 8.25 Q16.65 9.75 14.9 11.15" fill="#3f7c01" fill-rule="evenodd" stroke="none"/>
    <path d="M49.3 41.95 L49.65 43.8 49.9 45.25 49.9 44.6 50.1 44.0 50.15 44.0 50.25 44.85 50.25 45.7 50.35 46.5 Q50.5 47.0 50.25 47.3 L49.8 47.0 49.6 46.75 49.55 46.25 49.55 45.85 49.5 45.3 49.35 43.3 48.95 41.3 Q48.8 40.55 48.95 40.05 49.05 41.0 49.3 41.95 M44.45 44.7 L44.6 45.3 44.6 46.1 44.55 46.8 Q44.4 47.25 44.0 46.95 43.95 46.55 44.05 46.25 L44.15 45.7 44.15 45.1 Q44.1 44.8 44.4 44.7 L44.45 44.7 M43.9 44.45 L43.9 45.5 43.9 46.55 Q43.85 47.1 43.45 47.25 43.3 46.75 43.45 46.25 L43.55 45.2 43.5 44.3 Q43.45 43.8 43.75 43.45 L43.9 44.45 M45.3 46.2 L45.55 46.65 45.5 47.0 45.1 46.85 44.9 46.35 44.7 45.8 44.8 45.45 44.95 45.3 45.2 45.8 45.3 46.2 M48.1 45.85 L48.0 46.45 47.85 47.1 Q47.45 47.15 47.55 46.55 L47.8 45.75 47.9 45.0 Q47.95 44.55 48.3 44.5 L48.3 45.1 48.1 45.85 M49.0 46.35 L48.9 46.65 48.85 46.75 Q48.55 46.8 48.55 46.45 L48.6 46.05 48.6 45.65 48.75 45.45 48.85 45.4 48.95 45.7 48.95 46.05 49.0 46.35 M47.75 44.05 L47.7 44.8 47.5 45.55 47.45 46.35 47.35 46.9 47.25 46.25 47.4 45.55 47.5 44.8 47.7 44.05 47.75 44.05 M46.3 45.85 L46.5 46.2 46.7 46.5 46.75 46.95 46.25 46.85 46.05 46.35 45.85 45.8 45.95 45.5 46.1 45.5 46.3 45.85 M50.6 46.2 L50.65 45.55 Q50.65 45.2 50.9 45.2 L51.1 45.75 51.1 46.25 51.15 46.8 51.0 47.3 Q50.55 47.35 50.6 46.8 L50.6 46.2 M60.4 40.1 Q60.6 39.15 60.95 38.55 L60.75 40.75 60.35 43.05 Q60.2 44.1 60.2 45.3 60.15 46.25 59.8 46.75 L59.75 44.55 60.05 42.3 60.4 40.1 M56.4 40.9 L56.65 42.55 56.75 44.1 56.85 45.85 Q56.9 46.55 56.6 46.95 56.25 46.25 56.25 45.3 L56.15 43.7 56.05 41.95 Q56.05 41.2 56.4 40.9 M51.3 40.95 L51.7 42.85 52.25 44.7 52.85 46.55 Q53.25 47.45 52.6 47.65 L52.2 45.85 51.65 44.05 51.15 42.3 Q51.0 41.55 51.3 40.95 M55.0 44.7 L55.1 45.25 55.1 45.8 55.05 46.25 54.95 46.7 54.8 46.8 Q54.55 46.7 54.55 46.25 L54.65 45.7 54.7 45.05 54.8 44.7 55.0 44.7 M54.2 43.95 L54.35 44.85 54.25 45.7 54.25 46.5 Q54.2 47.0 53.8 47.1 L53.5 47.45 Q53.05 47.0 53.05 46.2 L53.0 44.85 52.85 43.45 Q52.75 42.8 53.1 42.5 53.45 43.0 53.45 43.7 L53.55 45.1 53.8 46.2 53.85 45.4 Q53.8 45.0 53.9 44.55 53.95 44.1 54.15 44.0 L54.2 43.95 M58.65 44.65 Q58.9 44.95 58.75 45.2 L58.7 45.75 58.6 46.25 58.35 46.65 Q58.0 46.5 58.15 46.15 L58.2 45.65 58.2 45.05 Q58.35 44.7 58.6 44.65 L58.65 44.65 M59.1 45.45 L59.25 45.7 59.25 45.85 59.25 46.1 59.2 46.25 59.1 46.4 58.95 46.25 58.9 46.0 58.95 45.7 59.0 45.5 59.1 45.45 M57.6 45.1 L57.65 46.1 Q57.75 46.65 57.4 46.85 57.0 46.5 57.05 45.85 L57.2 44.65 57.1 43.6 Q57.05 43.05 57.45 43.0 57.75 43.4 57.65 44.0 L57.6 45.1 M60.3 45.5 L60.75 44.05 61.1 42.6 Q61.25 41.9 61.8 41.7 L61.55 43.0 61.2 44.35 60.9 45.7 60.65 46.75 Q59.9 46.5 60.3 45.5 M61.25 45.1 Q61.3 44.6 61.5 44.25 61.75 43.85 62.05 43.8 62.3 44.1 62.0 44.55 L61.7 45.25 61.5 46.1 61.2 46.65 Q60.75 46.4 60.95 45.85 L61.25 45.1 M62.0 45.7 L62.0 45.15 Q62.0 45.0 62.25 44.95 L62.3 44.95 62.4 45.25 62.4 45.7 62.45 46.1 62.35 46.5 Q61.95 46.65 62.0 46.2 L62.0 45.7 M9.05 41.9 Q9.1 41.1 9.6 40.85 L9.55 42.65 9.25 44.45 9.0 46.25 8.7 47.25 8.7 47.35 8.65 48.1 Q8.7 48.55 8.4 48.7 8.1 48.55 8.1 48.1 L8.15 47.35 8.35 46.75 7.85 47.5 8.05 46.25 8.3 45.0 8.6 43.75 9.0 42.7 9.05 41.9 M6.45 41.05 L6.65 42.3 6.45 43.6 6.45 43.65 6.4 44.5 6.35 44.8 6.35 44.85 6.35 45.9 6.5 45.85 6.7 45.5 6.9 45.25 7.25 45.1 7.3 45.3 7.35 45.5 7.35 45.75 7.35 46.0 7.4 46.1 Q7.55 45.75 7.85 46.0 L8.0 46.5 7.95 46.85 7.8 47.3 7.55 47.4 6.85 47.4 5.9 47.6 5.4 47.5 5.5 47.25 5.4 46.75 5.55 46.1 5.35 46.4 Q5.3 45.7 5.55 44.95 L5.8 43.75 5.8 43.7 5.85 43.45 6.05 41.9 Q6.05 41.2 6.45 41.05 M6.25 42.15 L6.1 43.2 6.05 43.6 6.1 43.6 6.15 43.05 6.25 42.15 M4.55 44.55 L4.6 45.45 4.75 46.2 Q5.0 46.8 4.5 46.65 L4.45 46.5 4.4 46.4 4.4 46.25 4.4 46.2 4.3 46.25 4.25 46.5 4.2 46.75 4.2 46.9 4.15 47.15 Q3.95 46.85 4.15 46.35 L4.2 45.3 4.1 44.45 Q4.05 43.85 4.4 43.75 L4.55 44.55 M8.4 46.2 L8.35 46.55 8.35 46.65 8.5 46.2 8.4 46.2 M8.6 45.45 Q8.55 45.65 8.65 45.7 L8.65 45.55 8.65 45.25 8.6 45.45 M6.95 45.8 L7.0 45.85 6.95 45.75 6.95 45.8 M6.4 46.7 L6.5 46.7 6.5 46.65 6.4 46.7 M7.4 46.7 L7.6 46.65 7.65 46.7 7.65 46.55 7.65 46.35 7.55 46.4 7.45 46.55 7.4 46.7 M6.15 46.75 L6.1 46.0 6.05 46.55 6.05 46.75 6.15 46.75 M15.95 43.1 Q16.25 43.65 16.1 44.3 L15.95 45.4 15.75 46.7 Q15.7 47.35 15.25 47.3 15.15 46.75 15.3 46.15 L15.5 45.0 15.65 43.8 Q15.6 43.25 15.9 43.1 L15.95 43.1 M14.8 40.6 Q14.85 39.7 15.05 39.1 L15.1 41.45 14.95 43.85 14.75 46.15 14.4 47.85 Q14.1 46.75 14.35 45.4 L14.6 43.05 14.8 40.6 M13.6 45.85 L13.6 46.0 13.65 46.45 13.65 47.4 13.7 48.5 13.8 49.35 Q13.35 49.1 13.25 48.4 L13.15 47.35 13.05 46.25 Q13.05 45.85 13.2 45.7 L13.35 45.45 13.45 45.45 13.6 45.85 M12.8 46.05 L12.9 46.8 12.65 47.4 Q12.4 47.15 12.4 46.75 L12.35 46.0 12.3 45.25 Q12.25 45.0 12.45 44.7 L12.55 44.7 12.7 45.3 12.8 46.05 M12.1 45.1 L12.15 46.15 12.4 47.25 12.3 48.0 11.95 46.95 11.8 45.9 11.7 44.85 11.9 44.05 11.9 44.0 12.1 45.1 M18.05 45.15 L18.25 45.4 18.3 45.8 18.4 46.2 18.4 46.65 18.25 46.7 18.25 47.25 18.3 48.15 Q18.45 48.65 18.15 48.95 L17.95 48.05 17.95 46.95 17.85 46.05 Q17.6 45.55 17.95 45.5 L17.9 45.4 Q17.75 45.15 18.0 45.15 L18.05 45.15 M19.3 45.5 Q19.2 45.25 19.4 45.2 L19.45 45.2 19.75 45.5 19.85 46.05 19.95 46.55 19.7 46.95 Q19.4 46.85 19.4 46.55 L19.4 46.05 19.3 45.5 M16.75 44.85 L16.9 45.15 16.9 45.25 17.05 45.1 17.1 45.2 17.2 45.05 17.35 45.0 17.55 45.25 17.55 45.3 17.6 45.25 17.75 46.35 17.7 47.4 17.7 48.5 17.7 49.3 Q17.4 49.05 17.35 48.3 L17.35 47.15 17.35 46.65 17.15 46.5 17.15 47.4 17.2 48.6 17.4 49.4 Q16.85 49.2 16.85 48.25 L16.85 46.95 16.85 46.2 16.8 46.25 16.65 46.4 Q16.4 46.25 16.45 46.0 L16.45 45.55 16.5 45.15 16.55 44.85 16.75 44.85 M22.35 46.15 L22.4 46.15 22.4 46.7 22.15 47.1 22.05 47.6 21.8 47.95 21.6 47.4 21.8 46.85 22.0 46.35 22.35 46.15 M21.9 44.85 L21.4 46.15 Q21.05 46.8 21.1 47.5 21.15 48.15 20.8 48.55 20.4 48.1 20.55 47.3 L20.9 46.0 21.3 44.55 Q21.4 43.9 21.85 43.6 L21.9 43.45 21.9 44.85 M39.3 46.15 L39.35 46.55 39.3 47.0 39.25 47.1 Q38.85 47.25 38.85 46.75 L38.9 46.2 38.9 45.7 Q38.85 45.4 39.1 45.3 L39.2 45.3 39.35 45.75 39.3 46.15 M40.0 45.8 L40.15 46.2 40.15 46.75 40.15 47.15 39.95 47.55 Q39.6 47.45 39.65 47.0 L39.75 46.55 39.75 46.05 39.85 45.85 40.0 45.8 M20.35 60.45 Q20.35 60.1 20.55 60.2 L20.65 60.6 20.65 61.15 20.65 61.65 20.45 62.05 20.35 61.5 20.35 60.95 20.35 60.45 M17.25 59.8 Q17.15 59.35 17.45 59.2 L17.6 59.85 17.8 60.5 18.1 61.1 18.2 61.75 Q18.1 61.9 17.75 61.3 L17.45 60.5 17.25 59.8 M19.2 59.65 L19.3 60.1 19.25 60.7 19.25 61.4 19.15 61.9 Q18.9 61.8 18.9 61.4 L18.9 60.7 18.9 60.1 19.1 59.65 19.2 59.65 M62.4 55.2 L62.45 55.2 62.55 55.85 62.4 56.35 62.15 56.9 62.05 57.4 61.95 57.55 Q61.3 57.55 61.7 56.8 L62.0 56.1 62.15 55.4 62.4 55.2 M63.0 55.35 L63.1 55.95 62.9 56.55 62.85 57.1 Q62.8 57.5 62.4 57.5 L62.4 57.0 62.55 56.4 62.6 55.8 Q62.6 55.5 62.9 55.4 L63.0 55.35 M63.35 56.7 L63.45 57.05 63.5 57.35 63.5 57.4 Q63.35 57.85 63.15 57.5 L63.0 56.9 63.0 56.45 Q62.95 56.1 63.15 56.05 L63.25 56.05 63.4 56.45 63.35 56.7 M61.2 56.4 L61.25 55.7 Q61.2 55.2 61.5 55.2 L61.75 55.9 61.65 56.65 61.5 57.35 61.2 57.85 Q60.95 57.5 61.1 57.1 L61.2 56.4 M60.55 55.7 L60.55 56.45 60.45 57.15 60.25 57.8 60.15 57.1 60.1 56.3 60.1 55.45 Q60.0 55.0 60.35 54.95 L60.55 55.7" fill="#55a901" fill-rule="evenodd" stroke="none"/>
  </g>
</svg>
