<?xml version="1.0" encoding="UTF-8" standalone="no"?>
<svg xmlns:xlink="http://www.w3.org/1999/xlink" height="392.9px" width="319.8px" xmlns="http://www.w3.org/2000/svg">
  <g transform="matrix(1.0, 0.0, 0.0, 1.0, 165.45, 236.65)">
    <path d="M33.3 32.8 L34.15 49.4 Q34.85 69.6 34.25 87.9 L33.95 96.15 40.75 116.95 Q47.2 139.15 45.3 146.25 L22.25 144.8 Q23.3 132.85 14.75 122.35 6.25 112.0 -4.95 111.65 -16.2 112.0 -24.7 122.35 -33.25 132.85 -32.2 144.8 L-55.25 146.25 Q-57.15 139.15 -50.7 116.95 L-43.9 96.15 -44.2 87.9 Q-44.8 69.6 -44.1 49.4 L-43.25 32.8 33.3 32.8" fill="#9e8b49" fill-rule="evenodd" stroke="none"/>
    <path d="M33.3 32.8 L-43.25 32.8 -44.1 49.4 Q-44.8 69.6 -44.2 87.9 L-43.9 96.15 -50.7 116.95 Q-57.15 139.15 -55.25 146.25 L-32.2 144.8 Q-33.25 132.85 -24.7 122.35 -16.2 112.0 -4.95 111.65 6.25 112.0 14.75 122.35 23.3 132.85 22.25 144.8 L45.3 146.25 Q47.2 139.15 40.75 116.95 L33.95 96.15 34.25 87.9 Q34.85 69.6 34.15 49.4 L33.3 32.8 Z" fill="none" stroke="#5a5029" stroke-linecap="round" stroke-linejoin="round" stroke-width="20.0"/>
    <path d="M33.3 32.8 L34.15 49.4 Q34.85 69.6 34.25 87.9 L33.95 96.15 40.75 116.95 Q47.2 139.15 45.3 146.25 L22.25 144.8 Q23.3 132.85 14.75 122.35 6.25 112.0 -4.95 111.65 -16.2 112.0 -24.7 122.35 -33.25 132.85 -32.2 144.8 L-55.25 146.25 Q-57.15 139.15 -50.7 116.95 L-43.9 96.15 -44.2 87.9 Q-44.8 69.6 -44.1 49.4 L-43.25 32.8 33.3 32.8" fill="#9e8b49" fill-rule="evenodd" stroke="none"/>
    <path d="M26.3 69.8 Q23.75 103.1 -5.3 103.2 -34.35 103.35 -36.85 70.0 -38.1 53.0 -33.1 32.75 L22.5 32.75 Q27.55 52.9 26.3 69.8" fill="#bdad89" fill-rule="evenodd" stroke="none"/>
    <path d="M41.45 139.65 L46.05 137.9 45.5 138.1 Q46.05 143.35 45.35 146.2 L38.4 145.9 38.9 145.9 22.25 144.8 Q22.55 141.45 22.1 138.2 L25.95 140.6 32.3 132.25 41.45 139.65" fill="#bdad89" fill-rule="evenodd" stroke="none"/>
    <path d="M-51.55 139.65 L-56.15 137.9 -55.6 138.1 Q-56.15 143.35 -55.45 146.2 L-48.5 145.9 -49.0 145.9 -32.35 144.8 Q-32.65 141.45 -32.2 138.2 L-36.05 140.6 -42.4 132.25 -51.55 139.65" fill="#bdad89" fill-rule="evenodd" stroke="none"/>
    <path d="M95.4 -203.5 Q114.7 -203.3 132.8 -200.55 L137.25 -190.5 104.65 -190.75 140.75 -187.0 144.35 -168.45 140.25 -167.85 139.1 -176.65 113.2 -175.35 Q109.6 -179.25 103.85 -181.95 92.15 -187.1 80.45 -180.85 68.8 -174.55 70.25 -162.75 70.75 -159.05 72.45 -155.25 L74.15 -152.2 73.3 -154.95 Q72.5 -158.5 72.7 -161.8 73.2 -172.5 82.45 -177.95 91.95 -183.55 101.85 -178.2 106.75 -175.65 109.8 -171.75 L136.7 -174.0 139.35 -156.5 96.45 -149.3 Q71.65 -82.8 64.35 -65.55 L24.6 -78.8 Q27.85 -89.0 38.25 -139.1 47.75 -185.2 50.75 -191.45 51.65 -193.2 55.0 -195.75 L61.2 -200.5 Q65.1 -203.8 72.7 -215.55 L79.4 -226.65 98.0 -213.4 91.35 -203.45 95.4 -203.5" fill="#bdad89" fill-rule="evenodd" stroke="none"/>
    <path d="M95.4 -203.5 Q114.7 -203.3 132.8 -200.55 L137.25 -190.5 104.65 -190.75 140.75 -187.0 144.35 -168.45 140.25 -167.85 139.1 -176.65 113.2 -175.35 Q109.6 -179.25 103.85 -181.95 92.15 -187.1 80.45 -180.85 68.8 -174.55 70.25 -162.75 70.75 -159.05 72.45 -155.25 L74.15 -152.2 73.3 -154.95 Q72.5 -158.5 72.7 -161.8 73.2 -172.5 82.45 -177.95 91.95 -183.55 101.85 -178.2 106.75 -175.65 109.8 -171.75 L136.7 -174.0 139.35 -156.5 96.45 -149.3 Q71.65 -82.8 64.35 -65.55 L24.6 -78.8 Q27.85 -89.0 38.25 -139.1 47.75 -185.2 50.75 -191.45 51.65 -193.2 55.0 -195.75 L61.2 -200.5 Q65.1 -203.8 72.7 -215.55 L79.4 -226.65 98.0 -213.4 91.35 -203.45 95.4 -203.5 Z" fill="none" stroke="#5a5029" stroke-linecap="round" stroke-linejoin="round" stroke-width="20.0"/>
    <path d="M95.4 -203.5 Q114.7 -203.3 132.8 -200.55 L137.25 -190.5 104.65 -190.75 140.75 -187.0 144.35 -168.45 140.25 -167.85 139.1 -176.65 113.2 -175.35 Q109.6 -179.25 103.85 -181.95 92.15 -187.1 80.45 -180.85 68.8 -174.55 70.25 -162.75 70.75 -159.05 72.45 -155.25 L74.15 -152.2 73.3 -154.95 Q72.5 -158.5 72.7 -161.8 73.2 -172.5 82.45 -177.95 91.95 -183.55 101.85 -178.2 106.75 -175.65 109.8 -171.75 L136.7 -174.0 139.35 -156.5 96.45 -149.3 Q71.65 -82.8 64.35 -65.55 L24.6 -78.8 Q27.85 -89.0 38.25 -139.1 47.75 -185.2 50.75 -191.45 51.65 -193.2 55.0 -195.75 L61.2 -200.5 Q65.1 -203.8 72.7 -215.55 L79.4 -226.65 98.0 -213.4 91.35 -203.45 95.4 -203.5" fill="#bdad89" fill-rule="evenodd" stroke="none"/>
    <path d="M96.15 -148.5 Q71.6 -82.75 64.35 -65.55 L24.6 -78.8 Q27.85 -89.0 38.25 -139.1 43.75 -165.7 47.0 -179.1 L47.3 -179.05 48.05 -183.0 48.25 -183.6 51.25 -185.6 Q58.0 -189.65 61.65 -189.2 62.9 -182.65 63.25 -173.7 L63.45 -167.8 Q63.6 -154.25 61.55 -146.1 67.75 -150.1 73.9 -152.55 L74.15 -152.2 74.0 -152.6 Q77.9 -154.2 81.75 -155.25 83.5 -145.5 78.65 -134.9 87.35 -144.35 96.15 -148.5" fill="#9e8b49" fill-rule="evenodd" stroke="none"/>
    <path d="M-106.5 -203.5 Q-125.8 -203.3 -143.9 -200.55 L-148.35 -190.5 -115.75 -190.75 -151.85 -187.0 -155.45 -168.45 -151.35 -167.85 -150.2 -176.65 -124.3 -175.35 Q-120.7 -179.25 -114.95 -181.95 -103.25 -187.1 -91.55 -180.85 -79.9 -174.55 -81.35 -162.75 -81.85 -159.05 -83.55 -155.25 L-85.25 -152.2 -84.4 -154.95 Q-83.6 -158.5 -83.8 -161.8 -84.3 -172.5 -93.55 -177.95 -103.05 -183.55 -112.95 -178.2 -117.85 -175.65 -120.9 -171.75 L-147.8 -174.0 -150.45 -156.5 -107.55 -149.3 Q-82.75 -82.8 -75.45 -65.55 L-35.7 -78.8 Q-38.95 -89.0 -49.35 -139.1 -58.85 -185.2 -61.85 -191.45 -62.75 -193.2 -66.1 -195.75 L-72.3 -200.5 Q-76.2 -203.8 -83.8 -215.55 L-90.5 -226.65 -109.1 -213.4 -102.45 -203.45 -106.5 -203.5" fill="#bdad89" fill-rule="evenodd" stroke="none"/>
    <path d="M-106.5 -203.5 Q-125.8 -203.3 -143.9 -200.55 L-148.35 -190.5 -115.75 -190.75 -151.85 -187.0 -155.45 -168.45 -151.35 -167.85 -150.2 -176.65 -124.3 -175.35 Q-120.7 -179.25 -114.95 -181.95 -103.25 -187.1 -91.55 -180.85 -79.9 -174.55 -81.35 -162.75 -81.85 -159.05 -83.55 -155.25 L-85.25 -152.2 -84.4 -154.95 Q-83.6 -158.5 -83.8 -161.8 -84.3 -172.5 -93.55 -177.95 -103.05 -183.55 -112.95 -178.2 -117.85 -175.65 -120.9 -171.75 L-147.8 -174.0 -150.45 -156.5 -107.55 -149.3 Q-82.75 -82.8 -75.45 -65.55 L-35.7 -78.8 Q-38.95 -89.0 -49.35 -139.1 -58.85 -185.2 -61.85 -191.45 -62.75 -193.2 -66.1 -195.75 L-72.3 -200.5 Q-76.2 -203.8 -83.8 -215.55 L-90.5 -226.65 -109.1 -213.4 -102.45 -203.45 -106.5 -203.5 Z" fill="none" stroke="#5a5029" stroke-linecap="round" stroke-linejoin="round" stroke-width="20.0"/>
    <path d="M-106.5 -203.5 Q-125.8 -203.3 -143.9 -200.55 L-148.35 -190.5 -115.75 -190.75 -151.85 -187.0 -155.45 -168.45 -151.35 -167.85 -150.2 -176.65 -124.3 -175.35 Q-120.7 -179.25 -114.95 -181.95 -103.25 -187.1 -91.55 -180.85 -79.9 -174.55 -81.35 -162.75 -81.85 -159.05 -83.55 -155.25 L-85.25 -152.2 -84.4 -154.95 Q-83.6 -158.5 -83.8 -161.8 -84.3 -172.5 -93.55 -177.95 -103.05 -183.55 -112.95 -178.2 -117.85 -175.65 -120.9 -171.75 L-147.8 -174.0 -150.45 -156.5 -107.55 -149.3 Q-82.75 -82.8 -75.45 -65.55 L-35.7 -78.8 Q-38.95 -89.0 -49.35 -139.1 -58.85 -185.2 -61.85 -191.45 -62.75 -193.2 -66.1 -195.75 L-72.3 -200.5 Q-76.2 -203.8 -83.8 -215.55 L-90.5 -226.65 -109.1 -213.4 -102.45 -203.45 -106.5 -203.5" fill="#bdad89" fill-rule="evenodd" stroke="none"/>
    <path d="M-107.25 -148.5 Q-82.7 -82.75 -75.45 -65.55 L-35.7 -78.8 Q-38.95 -89.0 -49.35 -139.1 -54.85 -165.7 -58.1 -179.1 L-58.4 -179.05 -59.15 -183.0 -59.35 -183.6 -62.35 -185.6 Q-69.1 -189.65 -72.75 -189.2 -74.0 -182.65 -74.35 -173.7 L-74.55 -167.8 Q-74.7 -154.25 -72.65 -146.1 -78.85 -150.1 -85.0 -152.55 L-85.25 -152.2 -85.1 -152.6 Q-89.0 -154.2 -92.85 -155.25 -94.6 -145.5 -89.75 -134.9 -98.45 -144.35 -107.25 -148.5" fill="#9e8b49" fill-rule="evenodd" stroke="none"/>
    <path d="M-98.25 -8.05 Q-101.65 -11.2 -105.45 -13.15 -117.7 -19.45 -129.15 -11.75 -141.4 -3.5 -136.5 11.55 -132.6 23.5 -122.1 32.2 -115.45 37.8 -102.5 37.15 L-94.3 36.15 -90.95 35.45 -95.55 -5.3 -98.25 -8.05" fill="#5a5029" fill-rule="evenodd" stroke="none"/>
    <path d="M-98.25 -8.05 Q-101.65 -11.2 -105.45 -13.15 -117.7 -19.45 -129.15 -11.75 -141.4 -3.5 -136.5 11.55 -132.6 23.5 -122.1 32.2 -115.45 37.8 -102.5 37.15 L-94.3 36.15 -90.95 35.45 -95.55 -5.3 -98.25 -8.05 Z" fill="none" stroke="#5a5029" stroke-linecap="round" stroke-linejoin="round" stroke-width="20.0"/>
    <path d="M-98.25 -8.05 Q-101.65 -11.2 -105.45 -13.15 -117.7 -19.45 -129.15 -11.75 -141.4 -3.5 -136.5 11.55 -132.6 23.5 -122.1 32.2 -115.45 37.8 -102.5 37.15 L-94.3 36.15 -90.95 35.45 -95.55 -5.3 -98.25 -8.05" fill="#9e8b49" fill-rule="evenodd" stroke="none"/>
    <path d="M-97.85 3.8 Q-106.7 -0.7 -114.95 4.85 -123.8 10.8 -120.2 21.7 -117.5 30.3 -109.85 36.6 L-109.4 37.05 Q-106.15 37.4 -102.45 37.2 L-94.3 36.2 -90.9 35.5 -94.2 6.2 Q-95.95 4.8 -97.85 3.8" fill="#bdad89" fill-rule="evenodd" stroke="none"/>
    <path d="M92.65 -13.15 Q104.9 -19.45 116.35 -11.75 128.6 -3.5 123.7 11.55 119.8 23.5 109.3 32.2 102.65 37.8 89.7 37.15 L81.5 36.15 78.15 35.45 82.75 -5.3 85.45 -8.05 Q88.85 -11.2 92.65 -13.15" fill="#5a5029" fill-rule="evenodd" stroke="none"/>
    <path d="M92.65 -13.15 Q104.9 -19.45 116.35 -11.75 128.6 -3.5 123.7 11.55 119.8 23.5 109.3 32.2 102.65 37.8 89.7 37.15 L81.5 36.15 78.15 35.45 82.75 -5.3 85.45 -8.05 Q88.85 -11.2 92.65 -13.15 Z" fill="none" stroke="#5a5029" stroke-linecap="round" stroke-linejoin="round" stroke-width="20.0"/>
    <path d="M92.65 -13.15 Q104.9 -19.45 116.35 -11.75 128.6 -3.5 123.7 11.55 119.8 23.5 109.3 32.2 102.65 37.8 89.7 37.15 L81.5 36.15 78.15 35.45 82.75 -5.3 85.45 -8.05 Q88.85 -11.2 92.65 -13.15" fill="#9e8b49" fill-rule="evenodd" stroke="none"/>
    <path d="M85.1 3.8 Q93.95 -0.7 102.2 4.85 111.05 10.8 107.45 21.7 104.75 30.3 97.1 36.6 L96.65 37.05 Q93.4 37.4 89.7 37.2 L81.55 36.2 78.15 35.5 81.45 6.2 85.1 3.8" fill="#bdad89" fill-rule="evenodd" stroke="none"/>
    <path d="M96.75 -65.0 Q98.3 -42.45 92.2 -17.55 87.05 3.35 77.8 21.45 69.55 37.65 62.45 43.55 56.25 48.7 36.35 52.0 L-4.45 53.35 -46.2 52.0 Q-66.15 48.7 -72.35 43.55 -79.45 37.65 -87.7 21.45 -96.95 3.35 -102.1 -17.55 -108.15 -42.45 -106.65 -65.0 -104.8 -91.6 -92.35 -112.2 -79.65 -133.3 -54.3 -143.8 -33.1 -152.6 -4.95 -152.6 23.0 -152.6 44.4 -143.8 69.8 -133.3 82.5 -112.2 94.9 -91.6 96.75 -65.0" fill="#5a5029" fill-rule="evenodd" stroke="none"/>
    <path d="M96.75 -65.0 Q98.3 -42.45 92.2 -17.55 87.05 3.35 77.8 21.45 69.55 37.65 62.45 43.55 56.25 48.7 36.35 52.0 L-4.45 53.35 -46.2 52.0 Q-66.15 48.7 -72.35 43.55 -79.45 37.65 -87.7 21.45 -96.95 3.35 -102.1 -17.55 -108.15 -42.45 -106.65 -65.0 -104.8 -91.6 -92.35 -112.2 -79.65 -133.3 -54.3 -143.8 -33.1 -152.6 -4.95 -152.6 23.0 -152.6 44.4 -143.8 69.8 -133.3 82.5 -112.2 94.9 -91.6 96.75 -65.0 Z" fill="none" stroke="#5a5029" stroke-linecap="round" stroke-linejoin="round" stroke-width="20.0"/>
    <path d="M-87.6 -88.05 L-87.2 -87.8 -87.65 -87.65 Q-94.0 -59.9 -144.1 -60.35 L-147.35 -90.75 Q-112.45 -80.9 -91.95 -86.65 -111.8 -83.9 -130.55 -115.95 L-110.55 -131.0 Q-102.0 -99.55 -87.65 -88.15 L-87.6 -88.15 -87.6 -88.05 -87.65 -88.15 -87.6 -88.05 M-91.95 -86.65 Q-89.8 -86.95 -87.65 -87.65 -89.8 -86.95 -91.95 -86.65" fill="#5a5029" fill-rule="evenodd" stroke="none"/>
    <path d="M-87.6 -88.05 L-87.2 -87.8 -87.65 -87.65 Q-94.0 -59.9 -144.1 -60.35 L-147.35 -90.75 Q-112.45 -80.9 -91.95 -86.65 -111.8 -83.9 -130.55 -115.95 L-110.55 -131.0 Q-102.0 -99.55 -87.65 -88.15 L-87.6 -88.15 -87.6 -88.05 -87.65 -88.15 M-87.65 -87.65 Q-89.8 -86.95 -91.95 -86.65" fill="none" stroke="#5a5029" stroke-linecap="round" stroke-linejoin="round" stroke-width="20.0"/>
    <path d="M-144.05 -60.45 L-147.35 -90.8 Q-108.55 -79.95 -87.55 -88.3 -93.6 -60.05 -144.05 -60.45" fill="#9e8b49" fill-rule="evenodd" stroke="none"/>
    <path d="M-130.55 -116.0 L-110.55 -131.05 Q-101.9 -99.15 -87.2 -87.85 -109.65 -80.25 -130.55 -116.0" fill="#9e8b49" fill-rule="evenodd" stroke="none"/>
    <path d="M96.75 -65.0 Q98.3 -42.45 92.2 -17.55 87.05 3.35 77.8 21.45 69.55 37.65 62.45 43.55 56.25 48.7 36.35 52.0 L-4.45 53.35 -46.2 52.0 Q-66.15 48.7 -72.35 43.55 -79.45 37.65 -87.7 21.45 -96.95 3.35 -102.1 -17.55 -108.15 -42.45 -106.65 -65.0 -104.8 -91.6 -92.35 -112.2 -79.65 -133.3 -54.3 -143.8 -33.1 -152.6 -4.95 -152.6 23.0 -152.6 44.4 -143.8 69.8 -133.3 82.5 -112.2 94.9 -91.6 96.75 -65.0" fill="#9e8b49" fill-rule="evenodd" stroke="none"/>
    <path d="M68.9 -119.7 Q78.25 -113.9 85.2 -107.4 95.1 -88.55 96.75 -65.0 97.75 -50.1 95.45 -34.15 92.85 -30.4 89.55 -26.95 71.55 -8.05 46.45 -12.0 38.65 -13.25 31.0 -16.6 L25.0 -19.75 40.35 14.0 -5.25 14.6 -5.45 14.6 -51.05 14.0 -35.35 -19.75 Q-44.35 -13.95 -57.0 -12.0 -82.25 -8.05 -100.2 -26.95 -102.9 -29.75 -105.1 -32.75 -107.7 -49.45 -106.65 -65.0 -104.95 -89.5 -94.25 -108.9 -87.85 -114.6 -79.6 -119.7 -51.3 -137.2 -24.85 -113.05 -12.65 -101.95 -5.35 -87.9 2.05 -101.95 14.2 -113.05 40.65 -137.2 68.9 -119.7" fill="#bdad89" fill-rule="evenodd" stroke="none"/>
    <path d="M3.5 -44.3 Q7.1 -37.85 7.1 -28.55 7.1 -19.25 3.5 -12.85 -0.05 -6.4 -5.05 -6.4 -10.05 -6.4 -13.6 -12.85 -17.15 -19.25 -17.15 -28.55 -17.15 -37.85 -13.6 -44.3 -10.05 -50.7 -5.05 -50.7 -0.05 -50.7 3.5 -44.3" fill="#5a5029" fill-rule="evenodd" stroke="none"/>
    <path d="M3.5 -44.3 Q7.1 -37.85 7.1 -28.55 7.1 -19.25 3.5 -12.85 -0.05 -6.4 -5.05 -6.4 -10.05 -6.4 -13.6 -12.85 -17.15 -19.25 -17.15 -28.55 -17.15 -37.85 -13.6 -44.3 -10.05 -50.7 -5.05 -50.7 -0.05 -50.7 3.5 -44.3 Z" fill="none" stroke="#9e8b49" stroke-linecap="round" stroke-linejoin="round" stroke-width="15.0"/>
    <path d="M3.5 -12.85 Q-0.05 -6.4 -5.05 -6.4 -10.05 -6.4 -13.6 -12.85 -17.15 -19.25 -17.15 -28.55 -17.15 -37.85 -13.6 -44.3 -10.05 -50.7 -5.05 -50.7 -0.05 -50.7 3.5 -44.3 7.1 -37.85 7.1 -28.55 7.1 -19.25 3.5 -12.85" fill="#5a5029" fill-rule="evenodd" stroke="none"/>
    <path d="M53.2 -89.15 Q60.0 -89.15 64.8 -84.35 69.6 -79.55 69.6 -72.75 69.6 -66.0 64.8 -61.2 60.0 -56.4 53.2 -56.4 46.45 -56.4 41.65 -61.2 36.85 -66.0 36.85 -72.8 36.85 -79.55 41.65 -84.35 46.45 -89.15 53.2 -89.15 M-64.6 -89.15 Q-57.8 -89.15 -53.0 -84.35 -48.2 -79.55 -48.2 -72.75 -48.2 -66.0 -53.0 -61.2 -57.8 -56.4 -64.6 -56.4 -71.35 -56.4 -76.15 -61.2 -80.95 -66.0 -80.95 -72.8 -80.95 -79.55 -76.15 -84.35 -71.35 -89.15 -64.6 -89.15" fill="#5a5029" fill-rule="evenodd" stroke="none"/>
  </g>
</svg>
