<?xml version="1.0" encoding="UTF-8" standalone="no"?>
<svg xmlns:xlink="http://www.w3.org/1999/xlink" height="112.6px" width="56.0px" xmlns="http://www.w3.org/2000/svg">
  <g transform="matrix(1.0, 0.0, 0.0, 1.0, 27.9, 55.05)">
    <path d="M-21.1 40.8 L21.35 40.8 Q25.1 40.8 25.1 44.55 L25.1 50.8 Q25.1 54.55 21.35 54.55 L-21.1 54.55 Q-24.85 54.55 -24.85 50.8 L-24.85 44.55 Q-24.85 40.8 -21.1 40.8" fill="#2d3133" fill-rule="evenodd" stroke="none"/>
    <path d="M-21.1 40.8 L21.35 40.8 Q25.1 40.8 25.1 44.55 L25.1 50.8 Q25.1 54.55 21.35 54.55 L-21.1 54.55 Q-24.85 54.55 -24.85 50.8 L-24.85 44.55 Q-24.85 40.8 -21.1 40.8 Z" fill="none" stroke="#2d3133" stroke-linecap="round" stroke-linejoin="round" stroke-width="6.0"/>
    <path d="M25.1 14.9 L-24.9 14.9 -24.9 -52.05 25.1 -52.05 25.1 14.9" fill="#b63a0b" fill-rule="evenodd" stroke="none"/>
    <path d="M25.1 14.9 L-24.9 14.9 -24.9 -52.05 25.1 -52.05 25.1 14.9 Z" fill="none" stroke="#b63a0b" stroke-linecap="round" stroke-linejoin="round" stroke-width="6.0"/>
    <path d="M25.1 -44.85 L25.1 47.25 -24.85 47.25 -24.85 -44.85 25.1 -44.85" fill="#9c0000" fill-rule="evenodd" stroke="none"/>
    <path d="M25.1 -44.85 L25.1 47.25 -24.85 47.25 -24.85 -44.85 25.1 -44.85 Z" fill="none" stroke="#9c0000" stroke-linecap="round" stroke-linejoin="round" stroke-width="6.0"/>
    <path d="M25.1 -52.05 L25.1 14.9 -24.9 14.9 -24.9 -52.05 25.1 -52.05" fill="#ff9933" fill-rule="evenodd" stroke="none"/>
    <path d="M-21.1 40.8 L21.35 40.8 Q25.1 40.8 25.1 44.55 L25.1 50.8 Q25.1 54.55 21.35 54.55 L-21.1 54.55 Q-24.85 54.55 -24.85 50.8 L-24.85 44.55 Q-24.85 40.8 -21.1 40.8" fill="#999999" fill-rule="evenodd" stroke="none"/>
    <path d="M25.1 -20.75 L25.1 47.25 -24.85 47.25 -24.85 -20.75 25.1 -20.75" fill="#cd0303" fill-rule="evenodd" stroke="none"/>
    <path d="M25.1 -44.85 L25.1 12.45 -24.85 12.45 -24.85 -44.85 25.1 -44.85" fill="#ff0000" fill-rule="evenodd" stroke="none"/>
    <path d="M21.5 17.35 L21.5 47.25 -21.25 47.25 -21.25 17.35 21.5 17.35" fill="#9f0000" fill-rule="evenodd" stroke="none"/>
    <path d="M-2.7 25.15 L-0.6 25.95 -0.5 25.95 Q-1.45 30.1 0.85 34.1 1.9 35.85 3.55 37.6 L9.25 42.3 11.35 43.2 11.25 43.2 Q3.0 43.5 -1.65 40.05 -4.95 37.65 -5.3 34.1 -5.7 30.3 -2.7 25.15" fill="#ffcc33" fill-rule="evenodd" stroke="none"/>
    <path d="M11.25 43.2 L11.6 43.35 10.6 44.1 5.45 44.35 Q-3.65 44.35 -7.3 40.3 L-8.4 38.75 -8.8 37.45 -8.85 37.05 -8.95 36.45 Q-9.1 35.3 -8.75 34.1 L-8.7 33.9 Q-7.7 29.95 -2.8 25.15 L-2.7 25.15 Q-5.7 30.3 -5.3 34.1 -4.95 37.65 -1.65 40.05 3.0 43.5 11.25 43.2 M-1.3 19.5 L5.95 20.7 -0.05 25.55 -2.35 24.7 -1.55 20.7 -1.3 19.5" fill="#cd960d" fill-rule="evenodd" stroke="none"/>
    <path d="M21.5 37.15 L21.5 40.65 -21.25 40.65 -21.25 37.15 21.5 37.15 M21.5 26.4 L21.5 29.9 -21.25 29.9 -21.25 26.4 21.5 26.4" fill="#cd0303" fill-rule="evenodd" stroke="none"/>
    <path d="M-5.35 37.15 L4.85 37.15 5.4 37.6 10.45 40.65 -0.45 40.65 -1.65 40.05 Q-4.05 38.75 -5.35 37.15 M-5.8 29.9 Q-4.95 28.25 -3.4 26.4 L1.25 26.4 Q0.7 28.15 1.15 29.9 L-5.8 29.9" fill="#ffd866" fill-rule="evenodd" stroke="none"/>
    <path d="M-0.45 40.65 L-8.85 40.65 -9.35 40.3 -10.85 38.75 -11.4 37.45 -11.45 37.15 -5.35 37.15 Q-4.05 38.75 -1.65 40.05 L-0.45 40.65 M-5.8 29.9 L-8.95 29.9 Q-7.15 28.2 -4.35 26.4 L-3.4 26.4 Q-4.95 28.25 -5.8 29.9" fill="#e9ae19" fill-rule="evenodd" stroke="none"/>
  </g>
</svg>
