<?xml version="1.0" encoding="UTF-8" standalone="no"?>
<svg xmlns:xlink="http://www.w3.org/1999/xlink" height="16.65px" width="30.7px" xmlns="http://www.w3.org/2000/svg">
  <g transform="matrix(1.0, 0.0, 0.0, 1.0, 3.45, -1.25)">
    <path d="M26.25 14.2 Q26.25 15.35 24.75 16.15 23.25 16.9 21.1 16.9 18.95 16.9 17.45 16.15 15.95 15.35 15.95 14.2 15.95 13.1 17.4 12.35 L17.35 12.1 Q17.0 9.75 15.85 9.0 14.2 7.9 11.35 7.8 8.15 7.7 6.65 9.3 6.1 9.85 5.75 11.5 L5.5 12.85 Q6.55 13.5 6.55 14.35 6.55 15.3 5.2 16.0 3.9 16.7 2.05 16.7 0.2 16.7 -1.15 16.0 -2.45 15.3 -2.45 14.35 -2.45 13.4 -1.15 12.7 L-0.9 12.6 -0.4 10.25 Q0.6 6.3 1.85 5.1 5.15 2.0 12.0 2.3 17.85 2.55 20.75 4.5 22.5 5.7 23.8 9.7 L24.5 12.2 24.75 12.3 Q26.25 13.05 26.25 14.2" fill="#666666" fill-rule="evenodd" stroke="none"/>
    <path d="M26.25 14.2 Q26.25 15.35 24.75 16.15 23.25 16.9 21.1 16.9 18.95 16.9 17.45 16.15 15.95 15.35 15.95 14.2 15.95 13.1 17.4 12.35 L17.35 12.1 Q17.0 9.75 15.85 9.0 14.2 7.9 11.35 7.8 8.15 7.7 6.65 9.3 6.1 9.85 5.75 11.5 L5.5 12.85 Q6.55 13.5 6.55 14.35 6.55 15.3 5.2 16.0 3.9 16.7 2.05 16.7 0.2 16.7 -1.15 16.0 -2.45 15.3 -2.45 14.35 -2.45 13.4 -1.15 12.7 L-0.9 12.6 -0.4 10.25 Q0.6 6.3 1.85 5.1 5.15 2.0 12.0 2.3 17.85 2.55 20.75 4.5 22.5 5.7 23.8 9.7 L24.5 12.2 24.75 12.3 Q26.25 13.05 26.25 14.2 Z" fill="none" stroke="#333333" stroke-linecap="round" stroke-linejoin="round" stroke-width="2.0"/>
    <path d="M26.25 14.2 Q26.25 15.35 24.75 16.15 23.25 16.9 21.1 16.9 18.95 16.9 17.45 16.15 15.95 15.35 15.95 14.2 15.95 13.05 17.45 12.3 18.95 11.5 21.1 11.5 23.25 11.5 24.75 12.3 26.25 13.05 26.25 14.2 M6.55 14.35 Q6.55 15.3 5.2 16.0 3.9 16.7 2.05 16.7 0.2 16.7 -1.15 16.0 -2.45 15.3 -2.45 14.35 -2.45 13.4 -1.15 12.7 0.2 12.0 2.05 12.0 3.9 12.0 5.2 12.7 6.55 13.4 6.55 14.35" fill="#666666" fill-rule="evenodd" stroke="none"/>
    <path d="M23.8 9.7 L24.75 13.5 24.2 14.2 Q23.3 14.9 21.65 15.1 L18.45 14.85 17.45 14.3 17.35 12.1 Q17.0 9.75 15.85 9.0 14.2 7.9 11.35 7.8 8.15 7.7 6.65 9.3 6.1 9.85 5.75 11.5 L5.45 13.1 Q5.7 13.55 5.4 14.0 4.8 14.9 2.25 15.1 -0.5 15.3 -1.15 14.0 L-0.4 10.25 Q0.6 6.3 1.85 5.1 5.15 2.0 12.0 2.3 17.85 2.55 20.75 4.5 22.5 5.7 23.8 9.7" fill="#b2b2b2" fill-rule="evenodd" stroke="none"/>
    <path d="M24.75 13.5 L24.2 14.2 Q23.3 14.9 21.65 15.1 L18.45 14.85 17.45 14.3 17.45 13.0 Q21.35 12.8 24.1 10.65 L24.75 13.5 M23.65 9.75 Q21.1 11.8 17.4 12.0 L17.35 12.0 Q17.1 10.5 16.55 9.7 L16.6 9.7 Q19.4 7.35 20.7 4.45 L20.75 4.5 Q22.5 5.7 23.8 9.6 L23.65 9.75 M19.8 4.0 Q18.6 6.75 15.95 8.9 L15.95 8.95 15.85 9.0 Q14.7 8.25 13.0 7.95 L12.8 2.35 Q17.2 2.65 19.8 3.95 L19.8 4.0 M11.35 7.8 L8.7 8.1 8.6 7.95 Q6.95 5.8 6.45 2.85 L6.45 2.75 11.8 2.3 12.0 7.85 11.35 7.8 M0.75 6.8 Q1.25 5.65 1.85 5.1 3.3 3.75 5.45 3.05 6.0 6.15 7.75 8.5 L6.65 9.3 6.45 9.55 6.3 9.5 Q3.15 9.0 0.9 6.95 L0.75 6.8 M5.75 11.5 L5.65 12.0 5.4 12.1 5.45 12.1 -0.65 11.9 -0.75 11.85 -0.4 10.25 0.35 7.8 Q2.7 9.95 6.05 10.5 L5.75 11.5 M2.25 15.1 Q-0.5 15.3 -1.15 14.0 L-0.95 12.85 5.45 13.1 Q5.7 13.55 5.4 14.0 4.8 14.9 2.25 15.1" fill="#cccccc" fill-rule="evenodd" stroke="none"/>
  </g>
</svg>
