<?xml version="1.0" encoding="UTF-8" standalone="no"?>
<svg xmlns:xlink="http://www.w3.org/1999/xlink" height="179.6px" width="162.05px" xmlns="http://www.w3.org/2000/svg">
  <g transform="matrix(1.0, 0.0, 0.0, 1.0, 81.6, 89.8)">
    <path d="M67.2 -80.35 L68.65 -80.65 73.2 -80.9 73.2 -79.8 74.05 -79.65 74.95 -79.65 74.95 -73.9 74.55 -73.95 74.45 -69.65 Q74.45 -67.25 74.95 -65.75 L74.95 -62.0 74.95 -35.25 74.7 -31.7 74.95 -28.15 74.55 -28.15 74.55 -9.2 74.7 -9.2 74.75 -4.2 74.95 -1.55 74.95 7.05 Q74.7 9.25 74.4 14.4 74.1 19.9 74.1 22.85 L74.5 28.05 74.95 33.05 74.95 47.1 74.8 49.95 74.3 57.45 74.3 63.65 74.95 63.75 74.95 70.9 Q74.6 73.2 74.3 77.75 73.85 83.6 73.85 86.85 L73.9 88.1 49.9 88.1 49.9 87.4 43.45 88.1 31.6 88.1 31.6 87.4 29.25 87.2 29.25 87.85 28.65 87.85 28.7 88.1 15.9 88.1 15.55 87.6 15.55 84.6 15.35 84.6 15.35 83.6 13.0 83.5 12.85 83.85 12.6 84.25 12.6 85.9 12.35 85.9 12.2 86.5 11.9 87.05 11.9 87.4 Q8.8 87.2 8.4 87.45 8.5 87.8 7.6 87.85 L7.6 88.1 -13.3 88.1 -13.4 87.95 -13.6 87.7 -15.3 87.55 -15.3 85.4 -17.7 85.4 -17.7 86.75 -18.95 86.75 -19.9 88.1 -75.55 88.1 -75.8 87.6 -75.8 85.75 Q-76.4 84.3 -76.65 82.25 L-76.65 69.95 -76.4 69.95 -76.4 48.05 -76.65 45.85 -76.65 35.1 -76.4 29.05 -76.4 19.3 -76.2 19.3 -76.2 11.8 -76.4 9.35 -76.65 9.35 -76.65 8.15 -76.0 8.15 -76.0 5.0 -76.3 2.15 -76.4 -0.05 -76.4 -2.0 -76.2 -4.6 -76.2 -24.8 -76.65 -24.8 -76.65 -25.95 -76.2 -25.95 -76.2 -38.35 -76.65 -43.0 -76.65 -50.65 -76.4 -50.65 -76.2 -52.45 -76.2 -62.25 -76.0 -64.45 -76.0 -73.95 -76.2 -79.0 -75.15 -81.4 -73.45 -81.4 -73.45 -80.75 -67.2 -80.65 -64.65 -81.05 Q-63.95 -81.15 -63.35 -81.4 L-61.85 -81.4 -61.85 -80.75 -58.15 -80.75 -52.2 -80.6 -48.1 -80.3 -43.6 -80.1 Q-43.0 -80.1 -41.15 -80.85 L-38.5 -81.4 10.4 -81.4 10.4 -80.45 15.15 -80.35 15.75 -80.6 25.6 -80.65 25.6 -81.4 35.45 -81.4 35.45 -80.45 39.8 -80.35 41.8 -80.6 43.65 -80.9 55.2 -80.9 56.4 -81.15 57.7 -81.3 65.05 -81.2 65.05 -80.45 67.2 -80.35" fill="#000000" fill-opacity="0.3019608" fill-rule="evenodd" stroke="none"/>
    <path d="M67.95 -84.0 L69.4 -84.3 73.95 -84.65 73.95 -83.5 74.75 -83.35 75.65 -83.35 75.65 -77.5 75.25 -77.6 75.2 -73.25 Q75.15 -70.85 75.65 -69.35 L75.7 -65.65 75.65 -38.8 75.45 -35.15 75.65 -31.55 75.25 -31.55 75.25 -12.5 75.45 -12.5 75.5 -7.6 75.65 -4.8 75.65 3.85 Q75.4 5.95 75.1 11.2 L74.85 19.65 75.25 24.9 75.65 29.95 75.65 44.05 75.55 46.85 75.0 54.45 75.0 60.7 75.65 60.75 75.65 67.9 Q75.35 70.25 75.0 74.85 L74.6 83.95 74.6 85.25 50.6 85.25 50.6 84.55 44.2 85.25 32.35 85.25 32.35 84.55 30.0 84.35 30.0 85.0 29.35 85.0 29.4 85.25 16.65 85.25 16.3 84.75 16.3 81.7 16.1 81.7 16.1 80.75 13.75 80.65 13.55 80.95 13.3 81.3 13.3 83.0 13.05 83.0 12.95 83.6 12.65 84.2 12.65 84.55 Q9.5 84.35 9.15 84.6 9.2 84.85 8.35 85.0 L8.35 85.25 -12.55 85.25 -12.65 85.1 -12.85 84.85 -14.6 84.7 -14.6 82.55 -16.95 82.55 -16.95 83.9 -18.25 83.9 -19.15 85.25 -74.85 85.25 -75.05 84.75 -75.05 82.85 Q-75.7 81.35 -75.95 79.4 L-75.95 67.0 -75.7 67.0 -75.7 45.0 -75.95 42.8 -75.95 32.0 -75.7 25.85 -75.7 16.1 -75.5 16.1 -75.5 8.6 -75.7 6.1 -75.95 6.1 -75.95 4.85 -75.25 4.85 -75.25 1.75 -75.6 -1.1 -75.7 -3.4 -75.65 -5.3 -75.5 -7.95 -75.5 -28.15 -75.95 -28.15 -75.95 -29.45 -75.5 -29.35 -75.5 -41.8 -75.95 -46.45 -75.95 -54.15 -75.7 -54.15 -75.5 -56.05 -75.5 -65.85 -75.25 -68.0 -75.25 -77.6 -75.45 -82.75 -74.45 -85.05 -72.7 -85.05 -72.7 -84.4 -66.45 -84.3 -63.9 -84.7 -62.6 -85.05 -61.1 -85.05 -61.1 -84.4 -57.45 -84.4 -51.45 -84.25 -47.4 -84.0 -42.9 -83.85 -40.45 -84.45 -37.75 -85.05 11.1 -85.05 11.1 -84.1 15.85 -84.0 16.5 -84.25 26.35 -84.3 26.35 -85.05 36.2 -85.05 36.2 -84.1 40.5 -84.0 42.55 -84.25 44.35 -84.55 55.9 -84.65 57.15 -84.8 58.45 -84.95 65.8 -84.85 65.8 -84.1 67.95 -84.0" fill="#3cadc6" fill-rule="evenodd" stroke="none"/>
    <path d="M79.0 -74.45 L77.85 -73.7 74.85 -73.3 71.6 -73.65 71.5 -73.95 76.15 -74.6 78.8 -75.0 79.0 -74.45 M46.0 -88.65 Q47.0 -87.95 46.95 -86.2 46.8 -84.25 47.2 -83.75 L46.75 -83.55 45.9 -83.55 Q45.2 -86.15 45.2 -87.8 L45.2 -88.45 45.35 -88.65 46.0 -88.65 M43.4 -83.55 L44.3 -83.55 43.5 -83.4 43.4 -83.55 M77.4 -70.5 L74.75 -70.7 72.7 -71.1 75.5 -71.5 78.35 -71.5 78.55 -71.0 78.3 -70.6 77.4 -70.5 M73.1 -53.6 Q72.9 -53.2 72.9 -54.0 72.9 -55.95 79.4 -53.35 L79.2 -52.9 Q78.95 -52.65 78.3 -52.65 L75.85 -53.05 73.1 -53.6 M31.65 -87.55 L31.8 -87.25 31.85 -86.55 31.45 -83.95 30.6 -83.85 30.45 -84.1 30.4 -84.75 Q30.4 -85.2 30.75 -86.15 L31.0 -87.55 31.65 -87.55 M4.35 -87.05 Q4.35 -85.05 3.9 -83.15 L3.55 -83.0 3.0 -82.7 Q2.3 -83.05 2.15 -83.25 2.0 -83.45 2.0 -84.05 2.0 -88.85 3.4 -89.8 3.9 -89.3 4.1 -88.3 L4.35 -87.05 M70.7 -34.05 L75.35 -34.15 76.25 -34.1 77.6 -34.0 77.8 -33.5 Q77.5 -33.05 77.0 -33.0 L70.65 -33.0 Q70.45 -33.0 70.45 -33.5 70.45 -34.05 70.6 -34.05 L70.7 -34.05 M72.7 -29.6 L76.65 -29.75 77.2 -29.65 77.45 -29.1 77.4 -28.55 77.1 -28.4 73.25 -28.4 Q71.05 -28.65 70.9 -28.9 L72.7 -29.6 M76.3 -9.2 L74.25 -10.1 Q73.0 -10.65 72.6 -10.95 73.45 -12.05 75.05 -11.5 L77.1 -10.1 Q77.05 -9.4 76.3 -9.2 M80.1 2.15 L78.95 2.9 75.95 3.3 72.7 2.95 72.6 2.65 77.2 2.05 79.85 1.6 80.1 2.15 M79.65 5.6 L79.4 6.0 78.45 6.1 75.8 5.9 73.75 5.5 76.6 5.1 Q78.3 4.95 79.45 5.1 L79.65 5.6 M80.45 23.25 L80.3 23.7 79.4 23.95 76.95 23.55 74.2 23.0 Q74.0 23.45 74.0 22.6 74.0 20.65 80.45 23.25 M78.9 43.1 Q78.55 43.55 78.1 43.6 L71.7 43.6 Q71.55 43.6 71.55 43.1 L71.65 42.55 71.75 42.6 76.4 42.45 77.35 42.5 78.7 42.6 78.9 43.1 M72.0 47.7 Q72.75 47.2 73.75 47.05 L77.7 46.85 78.3 46.95 Q78.5 46.95 78.5 47.55 L78.45 48.05 78.2 48.25 74.3 48.25 72.0 47.7 M6.65 81.4 Q7.15 81.55 7.25 81.65 L7.4 82.45 Q7.4 83.45 6.65 85.4 L5.55 88.3 4.9 88.55 4.2 88.45 4.1 87.75 Q4.1 87.05 5.0 84.55 6.0 81.85 6.65 81.4 M34.95 85.65 L35.3 87.25 35.4 88.2 35.3 88.8 35.2 88.95 34.6 89.1 Q33.6 88.15 33.1 86.05 L32.35 82.55 32.55 82.25 Q34.2 82.9 34.95 85.65 M73.65 65.65 Q74.5 64.55 76.15 65.1 77.35 65.55 78.2 66.5 78.15 67.2 77.4 67.4 L75.35 66.5 73.65 65.65 M73.65 85.4 Q74.2 87.4 74.7 88.15 L74.45 88.6 73.55 88.85 Q72.7 88.85 71.45 84.1 L71.65 83.3 72.3 83.05 Q73.25 83.65 73.65 85.4 M65.65 82.25 L66.05 85.8 66.25 89.3 65.5 89.8 64.9 89.6 Q64.75 89.45 64.75 88.85 L64.6 85.1 Q64.65 82.85 65.65 82.25 M-49.35 -88.3 L-49.15 -87.05 Q-49.15 -85.05 -49.55 -83.15 L-49.9 -83.0 -50.5 -82.7 -51.3 -83.25 -51.45 -84.05 Q-51.45 -88.85 -50.05 -89.8 -49.55 -89.3 -49.35 -88.3 M-69.25 -78.15 L-69.8 -77.75 -71.0 -77.5 -73.65 -77.65 -75.85 -78.0 Q-73.5 -79.7 -69.6 -78.75 L-69.25 -78.15 M-77.65 -56.4 Q-77.65 -57.05 -75.8 -57.45 L-70.7 -57.8 -70.55 -57.8 Q-70.4 -57.75 -70.4 -57.2 -70.4 -56.65 -72.55 -56.25 L-76.7 -55.85 -77.45 -55.9 -77.45 -56.0 Q-77.65 -55.6 -77.65 -56.4 M-69.7 -40.55 L-69.55 -40.45 -69.5 -39.9 Q-69.5 -38.55 -76.7 -37.2 L-77.45 -37.3 -77.45 -37.4 Q-77.65 -36.95 -77.65 -37.8 -77.65 -38.15 -74.25 -39.35 -70.8 -40.65 -69.7 -40.55 M-74.8 -16.6 L-76.55 -16.3 -77.45 -16.35 Q-77.65 -16.4 -77.65 -17.0 -77.65 -17.6 -76.0 -17.95 -74.4 -18.25 -73.25 -17.95 L-73.05 -17.45 -73.25 -16.75 -74.8 -16.6 M-74.4 -10.95 L-77.8 -10.95 Q-79.0 -11.1 -79.3 -11.35 -77.25 -13.2 -76.45 -13.25 -75.8 -13.25 -73.5 -12.3 L-73.25 -11.75 Q-73.75 -11.1 -74.4 -10.95 M-75.8 -0.3 L-78.0 -0.65 Q-75.65 -2.35 -71.75 -1.35 L-71.45 -0.8 -71.95 -0.35 -73.15 -0.15 -75.8 -0.3 M-79.8 21.0 Q-79.8 20.35 -77.95 19.9 L-72.85 19.6 -72.75 19.55 Q-72.55 19.65 -72.55 20.2 -72.55 20.7 -74.75 21.15 L-78.9 21.55 -79.6 21.5 -79.6 21.4 Q-79.8 21.8 -79.8 21.0 M-71.85 36.8 L-71.7 36.95 -71.65 37.45 Q-71.65 38.85 -78.9 40.2 L-79.6 40.1 -79.6 40.0 Q-79.8 40.45 -79.8 39.6 -79.8 39.25 -76.4 38.0 -72.95 36.75 -71.85 36.8 M-78.7 61.05 L-79.6 61.05 -79.8 60.4 Q-79.8 59.75 -78.2 59.45 L-75.45 59.4 -75.2 59.95 -75.45 60.65 -76.95 60.75 -78.7 61.05 M-75.45 65.65 L-76.55 66.45 -79.95 66.45 -81.5 66.05 Q-79.4 64.15 -78.6 64.15 -77.95 64.15 -75.65 65.1 L-75.45 65.65 M-72.25 82.7 L-72.2 83.3 Q-72.2 83.45 -80.7 86.8 L-81.6 86.4 Q-81.05 85.7 -77.65 84.15 -73.85 82.4 -72.4 82.75 L-72.25 82.7 M-50.05 81.2 Q-48.45 81.85 -47.65 84.55 L-47.3 86.2 -47.25 87.15 -47.3 87.75 -47.4 87.9 -48.0 88.1 Q-49.0 87.05 -49.5 85.0 -49.9 82.6 -50.25 81.45 L-50.05 81.2" fill="#246c7b" fill-rule="evenodd" stroke="none"/>
    <path d="M17.55 -67.4 Q17.55 -74.95 12.2 -80.25 6.9 -85.6 -0.7 -85.6 -8.2 -85.6 -13.6 -80.25 -18.9 -74.95 -18.9 -67.4 -18.9 -59.75 -13.6 -54.5 -8.2 -49.1 -0.7 -49.1 6.9 -49.1 12.2 -54.5 17.55 -59.75 17.55 -67.4 M14.75 -67.4 Q14.75 -60.95 10.25 -56.45 5.75 -51.9 -0.7 -51.9 -7.05 -51.9 -11.6 -56.45 -16.1 -60.95 -16.1 -67.4 -16.1 -73.8 -11.6 -78.25 -7.05 -82.8 -0.7 -82.8 5.75 -82.8 10.25 -78.25 14.75 -73.8 14.75 -67.4 M20.95 -67.4 Q20.95 -58.35 14.6 -52.1 8.3 -45.7 -0.7 -45.7 -9.65 -45.7 -16.0 -52.1 -22.3 -58.35 -22.3 -67.4 -22.3 -76.35 -16.0 -82.65 -9.65 -89.0 -0.7 -89.0 8.3 -89.0 14.6 -82.65 20.95 -76.35 20.95 -67.4" fill="#ffcc00" fill-rule="evenodd" stroke="none"/>
  </g>
</svg>
