<?xml version="1.0" encoding="UTF-8" standalone="no"?>
<svg xmlns:xlink="http://www.w3.org/1999/xlink" height="30.0px" width="15.95px" xmlns="http://www.w3.org/2000/svg">
  <g transform="matrix(1.0, 0.0, 0.0, 1.0, 7.9, 14.5)">
    <path d="M0.4 -14.45 L1.95 -14.45 Q5.0 -14.9 6.85 -9.0 8.05 -5.1 8.05 0.45 8.05 6.0 6.85 9.95 5.0 15.9 1.95 15.3 L0.45 15.45 -2.3 15.3 -2.4 15.3 Q-5.2 15.3 -6.75 9.95 L-6.75 9.9 Q-7.9 5.95 -7.9 0.45 -7.9 -5.05 -6.75 -9.0 -4.95 -14.85 -1.8 -14.45 L-1.45 -14.35 0.25 -14.45 0.4 -14.45 M4.3 -7.95 Q3.2 -11.4 1.85 -11.4 L0.25 -11.4 -1.5 -11.35 -1.75 -11.4 Q-3.2 -11.4 -4.25 -7.95 -5.25 -4.5 -5.25 0.45 -5.25 5.35 -4.25 8.8 -3.25 12.05 -1.95 12.25 L-1.75 12.3 0.25 12.35 1.85 12.25 Q3.2 12.25 4.3 8.8 5.35 5.35 5.35 0.45 5.35 -4.5 4.3 -7.95" fill="#000000" fill-rule="evenodd" stroke="none"/>
    <path d="M-2.1 -7.7 L-2.15 -8.0 -2.3 -8.0 -2.5 -7.85 -2.5 -7.35 -2.5 -6.45 -3.0 -4.85 -3.15 -2.85 -2.85 -1.05 -2.4 0.4 Q-2.1 1.0 -1.9 1.75 L-1.6 3.0 Q-1.55 3.55 -1.65 4.0 L-1.9 4.45 -2.0 4.45 -2.15 4.2 -2.25 3.7 -2.4 2.95 -2.5 2.3 -2.6 2.3 Q-2.85 2.35 -2.9 3.25 L-3.0 4.9 -2.55 7.15 Q-2.25 8.0 -1.7 7.8 L-1.65 8.85 -1.55 9.2 -1.3 8.95 -1.3 8.5 -1.3 7.45 Q-1.0 7.0 -0.75 6.0 L-0.6 4.7 -0.6 2.65 -0.95 0.55 Q-1.1 -0.5 -1.35 -0.95 L-1.8 -2.1 -2.1 -3.2 -2.0 -4.1 -1.8 -4.6 -1.6 -4.55 -1.4 -4.5 -1.3 -5.6 Q-1.35 -7.25 -2.0 -6.9 L-2.1 -7.7 M-3.75 -6.15 Q-3.0 -8.85 -1.8 -8.85 -0.6 -8.85 0.15 -6.15 1.05 -3.4 1.05 0.45 1.05 4.3 0.15 7.1 -0.6 9.75 -1.8 9.75 -3.0 9.75 -3.75 7.1 -4.55 4.3 -4.55 0.45 -4.55 -3.4 -3.75 -6.15" fill="#ffcc33" fill-rule="evenodd" stroke="none"/>
    <path d="M-1.55 -11.8 L0.25 -11.85 1.9 -11.85 Q3.3 -11.85 4.45 -8.25 5.55 -4.65 5.55 0.45 5.55 5.55 4.45 9.15 3.3 12.75 1.9 12.75 L0.25 12.85 -1.8 12.8 -2.0 12.75 -1.8 12.75 Q-0.3 12.75 0.85 9.15 1.9 5.55 1.9 0.45 1.9 -4.65 0.85 -8.25 -0.15 -11.55 -1.55 -11.8 M-2.1 -7.7 L-2.0 -6.9 Q-1.35 -7.25 -1.3 -5.6 L-1.4 -4.5 -1.6 -4.55 -1.8 -4.6 -2.0 -4.1 -2.1 -3.2 -1.8 -2.1 -1.35 -0.95 Q-1.1 -0.5 -0.95 0.55 L-0.6 2.65 -0.6 4.7 -0.75 6.0 Q-1.0 7.0 -1.3 7.45 L-1.3 8.5 -1.3 8.95 -1.55 9.2 -1.65 8.85 -1.7 7.8 Q-2.25 8.0 -2.55 7.15 L-3.0 4.9 -2.9 3.25 Q-2.85 2.35 -2.6 2.3 L-2.5 2.3 -2.4 2.95 -2.25 3.7 -2.15 4.2 -2.0 4.45 -1.9 4.45 -1.65 4.0 Q-1.55 3.55 -1.6 3.0 L-1.9 1.75 Q-2.1 1.0 -2.4 0.4 L-2.85 -1.05 -3.15 -2.85 -3.0 -4.85 -2.5 -6.45 -2.5 -7.35 -2.5 -7.85 -2.3 -8.0 -2.15 -8.0 -2.1 -7.7" fill="#ce9b00" fill-rule="evenodd" stroke="none"/>
    <path d="M-2.0 12.75 Q-3.4 12.5 -4.4 9.15 -5.45 5.55 -5.45 0.45 -5.45 -4.65 -4.4 -8.25 -3.3 -11.85 -1.8 -11.85 L-1.55 -11.8 Q-0.15 -11.55 0.85 -8.25 1.9 -4.65 1.9 0.45 1.9 5.55 0.85 9.15 -0.3 12.75 -1.8 12.75 L-2.0 12.75 M-3.75 -6.15 Q-4.55 -3.4 -4.55 0.45 -4.55 4.3 -3.75 7.1 -3.0 9.75 -1.8 9.75 -0.6 9.75 0.15 7.1 1.05 4.3 1.05 0.45 1.05 -3.4 0.15 -6.15 -0.6 -8.85 -1.8 -8.85 -3.0 -8.85 -3.75 -6.15" fill="url(#gradient0)" fill-rule="evenodd" stroke="none"/>
  </g>
  <defs>
    <linearGradient gradientTransform="matrix(-0.004, -0.021, -0.0038, 0.0081, -1.25, 4.7)" gradientUnits="userSpaceOnUse" id="gradient0" spreadMethod="pad" x1="-819.2" x2="819.2">
      <stop offset="0.0" stop-color="#ffcc33"/>
      <stop offset="1.0" stop-color="#ffe9a4"/>
    </linearGradient>
  </defs>
</svg>
