<?xml version="1.0" encoding="UTF-8" standalone="no"?>
<svg xmlns:xlink="http://www.w3.org/1999/xlink" height="9.05px" width="25.4px" xmlns="http://www.w3.org/2000/svg">
  <g transform="matrix(1.0, 0.0, 0.0, 1.0, 13.05, 5.4)">
    <path d="M-0.65 1.8 L-0.4 0.35 0.05 -0.35 Q0.65 -0.9 1.1 -0.35 1.55 0.8 1.45 1.2 L1.3 2.05 0.4 2.9 -0.05 2.75 Q-0.7 2.5 -0.65 1.8 M11.3 -3.85 Q11.75 -3.4 11.5 -2.85 L11.25 -2.5 10.15 -2.5 9.55 -2.95 8.9 -4.2 Q8.9 -4.85 9.6 -4.85 L10.3 -4.6 11.3 -3.85 M-12.0 -3.15 L-11.0 -3.9 -10.3 -4.15 Q-9.6 -4.15 -9.6 -3.5 L-10.25 -2.25 -10.85 -1.8 -11.95 -1.8 -12.2 -2.15 Q-12.45 -2.7 -12.0 -3.15" fill="#ff64e3" fill-rule="evenodd" stroke="none"/>
    <path d="M5.5 -0.35 Q5.05 -1.55 5.35 -1.75 L5.8 -1.9 Q7.3 -1.2 7.6 -0.4 7.9 -0.1 7.65 0.05 L7.65 1.05 7.15 1.2 6.8 1.2 Q6.15 1.15 5.5 -0.35 M-6.6 -0.5 L-5.75 -0.8 -4.95 -1.05 -4.65 -0.45 -4.9 0.45 -5.25 1.15 Q-5.95 1.8 -7.1 1.6 L-7.1 1.35 Q-7.3 0.95 -7.1 0.25 L-6.6 -0.5" fill="#51dcff" fill-rule="evenodd" stroke="none"/>
    <path d="M4.7 -2.4 Q6.1 -2.9 7.2 -2.0 7.9 -1.6 8.2 -0.65 8.95 1.2 7.3 1.95 6.3 2.3 5.6 1.3 L4.95 0.05 4.6 -1.15 Q4.35 -1.8 4.7 -2.4 M5.5 -0.35 Q6.15 1.15 6.8 1.2 L7.15 1.2 7.65 1.05 7.65 0.05 Q7.9 -0.1 7.6 -0.4 7.3 -1.2 5.8 -1.9 L5.35 -1.75 Q5.05 -1.55 5.5 -0.35 M-6.6 -0.5 L-7.1 0.25 Q-7.3 0.95 -7.1 1.35 L-7.1 1.6 Q-5.95 1.8 -5.25 1.15 L-4.9 0.45 -4.65 -0.45 -4.95 -1.05 -5.75 -0.8 -6.6 -0.5 M-4.45 -2.2 Q-2.9 -0.15 -4.75 1.7 L-5.85 2.4 -7.35 2.55 -7.85 2.1 Q-8.4 0.8 -8.1 0.1 L-7.4 -0.95 Q-6.75 -1.6 -6.05 -1.8 -5.5 -2.0 -5.2 -2.4 L-4.75 -2.35 Q-4.5 -2.1 -4.45 -2.2" fill="#00b3e0" fill-rule="evenodd" stroke="none"/>
    <path d="M-0.65 1.8 Q-0.7 2.5 -0.05 2.75 L0.4 2.9 1.3 2.05 1.45 1.2 Q1.55 0.8 1.1 -0.35 0.65 -0.9 0.05 -0.35 L-0.4 0.35 -0.65 1.8 M8.35 -4.75 Q9.05 -5.8 10.5 -5.15 L11.65 -4.3 12.3 -3.55 Q12.45 -2.85 11.85 -2.15 11.05 -1.3 10.25 -1.75 L9.2 -2.4 8.35 -3.2 8.25 -3.5 8.25 -4.2 8.35 -4.75 M11.3 -3.85 L10.3 -4.6 9.6 -4.85 Q8.9 -4.85 8.9 -4.2 L9.55 -2.95 10.15 -2.5 11.25 -2.5 11.5 -2.85 Q11.75 -3.4 11.3 -3.85 M1.1 -1.25 Q2.15 -0.55 2.3 0.05 L2.2 1.35 1.85 2.75 Q1.45 3.75 0.15 3.65 -0.9 3.5 -1.25 2.75 -1.45 2.45 -1.3 1.7 L-1.0 0.05 Q-0.25 -1.6 1.1 -1.25 M-12.0 -3.15 Q-12.45 -2.7 -12.2 -2.15 L-11.95 -1.8 -10.85 -1.8 -10.25 -2.25 -9.6 -3.5 Q-9.6 -4.15 -10.3 -4.15 L-11.0 -3.9 -12.0 -3.15 M-9.05 -4.05 L-8.95 -3.5 -8.95 -2.8 -9.05 -2.5 -9.9 -1.7 Q-10.6 -1.15 -10.95 -1.05 -11.75 -0.6 -12.55 -1.45 -13.15 -2.15 -13.0 -2.85 L-12.35 -3.6 -11.2 -4.45 Q-9.75 -5.1 -9.05 -4.05" fill="#de10b9" fill-rule="evenodd" stroke="none"/>
  </g>
</svg>
