<?xml version="1.0" encoding="UTF-8" standalone="no"?>
<svg xmlns:xlink="http://www.w3.org/1999/xlink" height="142.75px" width="145.0px" xmlns="http://www.w3.org/2000/svg">
  <g transform="matrix(1.0, 0.0, 0.0, 1.0, 72.45, 71.35)">
    <path d="M3.0 -71.35 Q18.15 -70.8 27.95 -62.3 36.3 -54.9 35.75 -47.5 50.15 -47.25 58.35 -38.2 64.7 -31.2 64.7 -23.9 64.7 -18.8 63.9 -13.35 L63.15 -7.6 66.4 -4.3 Q69.9 0.2 71.4 6.5 72.55 11.3 72.55 20.7 72.55 22.2 71.2 29.15 L69.75 33.35 Q68.7 35.85 67.2 37.6 61.4 44.6 54.9 48.95 48.45 53.25 43.75 53.25 L35.0 52.45 26.8 51.9 24.9 50.85 Q24.4 50.85 20.8 54.05 15.9 58.45 12.25 61.15 -1.85 71.4 -15.5 71.4 -21.05 71.4 -29.75 67.05 -37.1 63.25 -40.35 60.1 L-44.25 56.4 Q-46.1 54.6 -46.9 53.1 -48.35 50.65 -48.9 46.55 -54.4 49.15 -61.35 43.7 -67.05 39.35 -68.95 34.75 L-71.9 27.5 Q-72.25 26.4 -72.25 22.2 -72.55 18.25 -72.35 17.05 -72.2 16.1 -69.8 10.3 -68.0 6.1 -63.95 2.0 -60.25 -1.3 -60.25 -1.6 L-61.65 -4.75 Q-63.1 -7.9 -63.35 -10.5 L-64.05 -19.15 -63.85 -23.6 Q-63.5 -25.15 -61.8 -28.5 -61.15 -29.7 -57.65 -32.95 -54.7 -35.7 -54.8 -37.55 -55.05 -39.5 -52.65 -42.15 L-48.05 -46.8 -45.45 -48.8 -42.1 -51.4 Q-40.2 -53.1 -36.1 -53.1 L-30.25 -52.65 Q-23.1 -71.3 3.0 -71.35" fill="#ffffff" fill-rule="evenodd" stroke="none"/>
  </g>
</svg>
