<?xml version="1.0" encoding="UTF-8" standalone="no"?>
<svg xmlns:xlink="http://www.w3.org/1999/xlink" height="140.15px" width="136.15px" xmlns="http://www.w3.org/2000/svg">
  <g transform="matrix(1.0, 0.0, 0.0, 1.0, 67.4, 68.25)">
    <path d="M-46.45 39.95 L-53.5 35.75 -58.75 32.0 Q-61.55 29.6 -62.25 27.9 -62.5 27.3 -63.7 25.85 L-65.25 23.75 Q-66.2 21.7 -66.4 19.85 L-67.2 15.3 -67.4 11.95 Q-67.4 5.9 -66.7 3.7 -66.0 1.3 -61.65 -6.4 L-57.95 -11.8 -54.65 -15.6 -48.8 -20.9 -46.8 -22.2 Q-48.05 -23.4 -49.15 -26.4 -50.8 -29.5 -51.3 -31.25 L-52.1 -33.6 Q-52.6 -35.15 -52.55 -36.15 L-52.65 -40.75 Q-52.65 -45.65 -51.55 -48.15 -50.4 -50.85 -45.8 -56.15 -42.05 -60.55 -36.15 -63.8 -31.7 -66.35 -29.0 -67.0 -23.55 -68.35 -21.45 -68.0 L-20.9 -67.85 -18.0 -68.25 Q-3.1 -66.25 6.5 -56.6 14.35 -48.7 14.35 -41.95 L14.35 -41.2 Q17.55 -43.3 20.75 -41.5 23.05 -40.95 25.0 -39.5 L27.75 -37.25 33.5 -37.9 40.35 -38.15 Q49.5 -38.15 55.25 -32.8 57.3 -30.9 59.95 -27.3 L64.65 -21.0 Q66.0 -19.35 66.75 -16.45 L67.65 -11.75 68.3 -7.4 68.75 -2.6 Q68.75 -0.35 68.1 1.55 L67.65 2.65 Q67.15 4.75 65.15 9.1 63.05 13.7 61.85 15.5 59.5 18.75 55.8 21.85 48.5 28.0 41.25 28.0 L38.9 27.9 39.0 29.1 40.35 34.8 Q40.35 40.6 39.85 43.8 39.1 48.4 36.75 53.1 35.95 54.75 33.75 57.6 L30.25 62.25 Q28.85 64.35 24.25 66.75 22.3 68.15 20.4 69.0 16.85 70.65 12.25 70.65 3.25 70.65 -2.0 69.25 -8.25 67.6 -14.8 62.85 -17.95 60.6 -20.0 57.25 -21.6 54.75 -21.9 52.7 L-23.4 53.6 -30.1 55.25 Q-36.85 55.25 -38.75 51.35 -39.4 50.1 -39.4 46.95 L-38.9 43.15 -38.55 41.75 Q-42.8 41.7 -46.45 39.95 M0.8 -31.65 L-1.5 -35.35 -5.9 -41.75 Q-9.25 -45.95 -12.75 -48.1 L-13.1 -48.3 -11.85 -46.4 Q-10.75 -44.4 -10.75 -42.9 -10.75 -41.1 -11.85 -41.1 -13.15 -41.1 -15.0 -49.3 L-14.95 -49.4 Q-19.35 -52.05 -20.5 -52.55 -22.75 -53.55 -26.15 -53.55 -29.0 -53.55 -31.1 -52.75 L-33.75 -51.5 -37.25 -49.0 Q-39.85 -46.95 -40.75 -43.75 L-42.15 -38.75 -43.4 -33.35 -43.0 -29.75 Q-43.0 -28.65 -40.2 -23.35 L-37.4 -18.25 Q-36.6 -15.9 -33.4 -12.5 L-32.25 -11.15 -31.05 -9.9 -29.6 -8.65 Q-29.0 -8.0 -29.0 -7.45 L-29.0 -7.2 -28.2 -6.5 Q-27.3 -5.7 -27.3 -4.85 -27.3 -4.3 -28.3 -3.9 L-31.3 -2.85 Q-34.4 -1.7 -37.05 -1.55 L-41.75 -1.25 Q-44.5 -0.8 -46.55 0.45 L-49.75 2.85 Q-52.15 4.8 -53.05 7.5 -53.65 9.4 -53.65 12.25 -53.65 15.3 -52.75 17.7 -51.8 20.2 -49.5 23.0 L-46.95 25.55 -43.3 27.0 -39.5 27.8 -33.8 28.75 -32.5 29.3 -27.75 29.65 -27.0 29.9 -26.5 30.2 Q-24.35 29.15 -23.3 27.3 -22.3 25.55 -22.3 22.7 L-22.35 22.25 -23.25 20.7 -23.65 20.45 -25.4 19.75 -26.55 18.25 -27.25 16.55 Q-27.25 15.7 -26.5 15.65 -25.7 15.55 -24.55 16.5 -23.85 16.8 -23.55 17.75 L-23.15 19.0 -21.25 21.6 -21.15 21.85 -20.3 23.0 -18.45 25.8 Q-18.0 25.95 -17.5 26.6 L-17.4 26.7 -17.6 26.95 -16.65 27.0 Q-15.8 27.3 -14.85 28.0 -13.85 28.75 -13.55 29.4 L-13.55 29.6 -14.0 29.75 -16.45 28.9 -20.3 28.65 -20.4 28.65 Q-22.7 29.6 -23.3 30.25 L-27.8 34.65 Q-29.8 36.75 -30.9 39.25 -32.0 41.7 -32.0 44.05 L-31.75 46.65 Q-31.1 48.65 -28.65 48.65 -26.95 48.65 -22.55 46.2 L-18.25 43.5 -15.75 40.15 -15.15 38.45 Q-14.9 37.45 -13.75 36.85 -13.0 37.45 -13.0 37.6 -13.0 38.05 -14.1 39.55 L-14.2 39.7 -13.8 40.25 -14.5 43.35 Q-15.25 45.95 -15.25 48.0 -15.25 51.55 -12.8 56.75 -11.1 60.3 -9.5 60.75 L-4.3 62.45 Q-2.25 63.15 -0.25 63.15 9.5 63.15 12.25 53.95 L11.35 54.0 Q9.55 54.0 8.9 51.6 L8.65 49.05 Q8.65 45.5 11.05 41.3 12.85 38.1 16.6 33.75 17.85 32.25 21.2 30.0 L27.0 26.25 32.15 22.65 Q35.55 20.3 37.5 19.4 L33.3 14.7 Q30.15 10.9 30.15 10.4 L30.1 10.4 Q29.9 10.3 29.9 9.65 34.3 7.15 38.7 3.7 47.5 -3.2 47.5 -11.35 47.45 -16.2 45.4 -20.5 41.4 -29.0 31.45 -29.0 25.5 -29.0 20.45 -25.75 L15.5 -22.95 Q15.45 -22.35 14.7 -22.1 17.0 -19.15 17.0 -17.9 L16.9 -16.75 Q16.7 -16.35 16.0 -16.35 14.85 -16.35 14.4 -17.65 L14.0 -19.65 13.05 -21.1 12.5 -22.05 Q10.25 -22.2 8.75 -23.05 7.0 -24.0 5.0 -26.65 L2.95 -29.35 Q2.0 -30.0 0.8 -31.65 M-21.9 27.95 L-21.85 27.95 -21.9 27.95" fill="#a23fde" fill-rule="evenodd" stroke="none"/>
    <path d="M67.3 -5.95 L67.35 0.6 Q67.2 3.75 65.6 7.55 62.9 14.1 57.5 17.5 53.3 20.15 49.2 20.15 44.6 20.15 42.9 16.95 L42.1 13.75 Q42.1 9.85 43.25 6.75 L45.75 1.55 Q49.4 -5.75 49.4 -17.4 49.4 -22.75 43.8 -27.7 L39.95 -31.05 Q38.2 -32.85 38.2 -34.3 38.2 -37.05 42.1 -37.1 46.05 -37.15 51.8 -34.35 58.05 -30.1 61.6 -24.75 65.5 -18.95 66.55 -15.05 67.3 -12.25 67.3 -5.95 M-48.3 -47.6 Q-48.3 -50.05 -45.05 -53.85 -42.1 -57.35 -37.95 -60.2 -33.7 -63.2 -30.9 -63.6 L-30.1 -63.65 -21.05 -64.05 -14.6 -63.35 -8.55 -62.85 -4.3 -61.8 Q0.75 -59.65 4.05 -55.8 6.75 -52.65 7.9 -49.0 8.65 -46.6 10.85 -41.8 12.0 -39.2 12.0 -36.1 L12.0 -35.85 15.05 -38.7 Q19.45 -42.8 22.9 -40.9 25.8 -39.35 25.8 -36.35 25.8 -32.75 20.65 -29.1 16.15 -25.9 13.75 -25.9 8.55 -25.9 8.55 -29.05 L8.75 -31.2 7.95 -31.15 Q4.5 -31.15 2.3 -34.3 1.15 -35.9 0.7 -37.6 0.0 -39.2 -3.4 -44.55 L-5.9 -48.05 Q-7.9 -50.3 -10.85 -51.45 -13.05 -52.3 -16.65 -54.15 -20.45 -55.5 -27.3 -55.5 L-28.5 -55.9 -29.75 -56.35 Q-31.9 -56.35 -37.85 -51.3 L-45.7 -44.9 -47.25 -45.15 Q-48.05 -45.8 -48.15 -46.6 L-48.3 -47.6 M40.15 11.4 Q40.15 12.2 39.8 12.85 39.2 14.0 37.85 14.0 36.45 14.0 35.7 12.65 35.2 11.7 35.2 11.0 35.2 7.2 37.7 6.55 40.15 5.85 40.15 11.4 M38.65 38.2 L38.4 45.2 Q37.8 48.45 35.05 52.55 32.55 56.4 28.15 60.95 23.15 66.05 21.2 66.05 16.7 66.05 15.45 63.05 L15.1 59.85 Q15.1 56.2 17.2 50.5 L16.6 50.5 Q14.3 50.5 13.5 49.2 13.15 48.6 13.15 47.75 13.15 46.05 14.3 43.9 L16.5 40.4 Q18.75 37.0 21.45 37.5 L22.65 37.95 23.15 36.75 Q24.55 33.4 27.45 30.35 31.45 26.1 35.2 26.8 37.75 27.3 38.45 31.75 38.65 33.25 38.65 38.2 M-42.15 -11.8 Q-42.15 -9.7 -44.2 -7.5 L-48.7 -3.4 Q-55.3 2.3 -55.3 7.95 -55.3 19.85 -48.3 27.05 L-43.5 31.45 Q-41.3 33.55 -41.3 35.2 -41.3 36.55 -41.85 37.3 -42.75 38.5 -45.15 38.5 -49.7 38.5 -56.5 32.9 -58.95 30.55 -61.45 26.5 -62.75 24.25 -64.15 20.6 -65.8 16.25 -65.8 14.0 -65.8 7.5 -62.1 0.4 -58.85 -5.85 -53.95 -10.6 -49.3 -15.15 -45.85 -15.75 -42.15 -16.35 -42.15 -11.8 M-33.35 44.8 L-33.65 46.65 -34.0 48.5 Q-34.0 50.85 -31.1 51.8 -27.95 52.85 -27.85 53.2 -28.3 54.4 -30.1 54.8 L-33.25 55.05 Q-35.6 55.05 -36.75 53.0 -37.6 51.55 -37.6 50.1 -37.6 46.05 -35.45 43.8 -34.65 42.9 -34.0 43.15 -33.35 43.35 -33.35 44.8 M-17.35 54.85 Q-15.65 57.3 -11.3 60.75 -7.85 63.45 -4.05 65.8 -4.8 66.9 -5.5 66.9 -8.2 66.9 -13.35 62.15 -18.2 57.65 -18.2 56.25 -18.2 55.3 -17.35 54.85" fill="#c76bff" fill-rule="evenodd" stroke="none"/>
    <path d="M15.8 -7.05 L15.95 -7.0 16.0 -6.8 15.95 -6.5 15.5 -6.35 15.3 -6.65 15.8 -7.05 M13.85 -8.55 L13.95 -8.4 Q13.8 -8.2 13.25 -8.05 L13.05 -8.15 Q12.9 -8.2 12.9 -8.45 L12.95 -8.8 13.85 -8.55 M23.75 -13.55 Q24.65 -13.55 24.95 -13.15 25.4 -12.5 26.35 -12.05 L27.3 -11.1 27.8 -10.15 27.45 -9.4 Q26.95 -8.9 26.0 -8.9 25.05 -8.9 24.6 -10.2 L24.0 -10.8 23.35 -11.4 Q22.5 -11.55 22.3 -11.9 L22.25 -12.45 Q22.25 -13.55 23.75 -13.55 M21.6 -7.45 L20.75 -6.65 20.7 -6.85 20.7 -7.0 20.75 -6.95 21.15 -7.25 21.6 -7.45 M19.6 30.95 L19.95 31.35 19.85 31.45 19.45 31.1 19.6 30.95 M20.8 36.0 L21.05 36.55 21.0 36.6 20.2 35.75 20.2 35.7 20.8 36.0 M23.7 38.3 L23.35 38.8 22.4 39.0 21.6 39.7 21.35 39.6 21.25 39.3 21.55 38.6 21.65 38.2 21.85 37.95 23.25 37.85 Q23.7 37.85 23.7 38.3 M-32.3 23.0 L-32.35 23.4 -32.4 23.5 -32.1 23.7 Q-31.55 24.15 -31.55 24.65 -31.55 25.65 -31.7 26.1 -32.0 27.15 -33.05 27.15 L-33.7 27.1 Q-34.3 26.65 -34.3 25.85 -34.3 24.75 -33.55 23.9 L-33.3 23.7 -33.35 23.65 -33.65 22.75 -33.4 22.35 -32.35 22.55 -32.3 23.0 M-29.45 23.45 L-29.6 23.75 Q-29.65 23.9 -30.05 23.95 L-30.5 24.4 -30.8 24.3 -30.25 23.7 -29.85 23.45 -29.45 23.45" fill="#ca55e9" fill-rule="evenodd" stroke="none"/>
    <path d="M1.35 -12.6 Q1.35 -8.15 -1.55 -4.25 -5.9 1.65 -15.25 1.65 -23.7 1.65 -27.75 -2.85 -29.75 -5.3 -30.15 -6.45 L-30.3 -9.55 Q-30.3 -14.35 -28.75 -17.5 L-27.85 -19.6 -26.4 -21.5 Q-24.7 -22.9 -20.2 -24.55 -17.65 -25.5 -14.75 -24.95 L-9.75 -24.05 Q-7.6 -23.4 -2.4 -20.35 -0.45 -19.2 0.6 -16.5 1.35 -14.5 1.35 -12.6 M10.4 2.25 Q7.1 2.25 6.05 -0.2 L5.6 -2.8 Q5.6 -4.5 6.3 -5.95 7.2 -7.85 9.1 -8.1 10.55 -8.4 12.25 -7.55 12.55 -7.25 14.2 -6.55 15.8 -5.85 16.15 -4.5 L17.85 -5.25 19.25 -5.5 20.9 -5.65 Q26.75 -7.1 29.15 -3.85 30.5 -2.05 30.5 1.05 30.5 3.8 29.5 6.2 27.6 10.55 22.9 10.55 18.0 10.55 15.0 7.25 12.7 4.7 12.7 2.5 L12.8 1.75 Q11.7 2.25 10.4 2.25 M4.95 23.6 L8.6 24.05 11.5 24.8 Q13.55 25.2 15.5 27.1 16.5 28.1 17.4 29.7 18.25 31.25 18.4 32.1 L18.55 32.5 Q18.95 33.5 18.95 34.45 L18.15 36.4 17.25 38.3 Q14.25 41.55 12.4 41.55 L12.25 41.55 Q9.95 42.5 6.75 42.5 -0.85 42.5 -4.4 39.0 -5.9 37.4 -6.15 36.45 L-6.3 34.25 Q-6.3 28.65 -2.25 25.8 0.85 23.6 4.95 23.6 M20.4 12.6 Q23.9 12.6 25.75 16.0 L26.5 17.9 26.6 19.65 26.5 21.6 25.7 23.9 24.45 25.95 Q23.05 27.7 21.55 27.7 17.15 27.7 15.4 25.75 14.4 24.6 14.4 23.1 14.4 18.35 14.8 17.55 15.1 16.45 16.4 14.85 18.3 12.6 20.4 12.6 M-16.1 19.35 Q-15.6 21.0 -15.6 22.75 L-15.5 26.05 Q-15.5 29.35 -17.8 31.2 -19.65 32.65 -21.85 32.65 -25.0 32.65 -26.75 31.2 -28.05 30.1 -29.4 27.4 L-30.2 24.5 -30.75 21.45 Q-30.75 18.45 -29.9 14.75 -29.3 12.75 -28.0 11.6 L-27.4 10.8 Q-26.1 9.7 -23.55 9.7 -21.0 9.7 -18.65 13.15 -16.65 16.0 -16.65 17.45 L-16.65 17.75 Q-16.25 18.5 -16.1 19.35" fill="#ca55e9" fill-rule="evenodd" stroke="none"/>
    <path d="M-19.5 -54.05 L-23.05 -49.9 -23.95 -48.8 Q-26.5 -44.6 -27.25 -42.25 -28.8 -37.6 -28.8 -31.5 -28.8 -28.55 -28.2 -25.05 -27.6 -21.35 -26.75 -19.75 L-25.85 -18.15 Q-24.8 -17.05 -24.8 -16.6 L-24.8 -16.4 -23.35 -14.05 Q-21.25 -10.5 -20.55 -8.35 L-20.75 -8.25 -25.65 -14.1 -27.3 -16.2 -30.4 -17.95 Q-35.05 -20.4 -36.75 -20.4 L-38.75 -19.8 -40.75 -18.75 -42.05 -17.8 Q-43.3 -16.95 -43.75 -16.9 -47.65 -16.25 -48.65 -15.5 L-49.75 -13.6 -51.25 -9.9 Q-51.75 -8.25 -51.75 -6.3 L-51.65 -4.05 -50.65 -1.6 -50.75 -1.5 Q-52.5 -1.95 -53.05 -3.65 -53.25 -4.4 -53.25 -6.3 L-53.2 -9.35 -52.0 -13.35 -51.0 -15.15 -49.5 -16.9 Q-48.9 -17.45 -46.55 -18.45 -44.05 -19.45 -43.5 -19.9 -41.2 -22.3 -39.3 -23.3 -35.8 -25.2 -32.05 -23.0 L-30.2 -21.9 Q-33.05 -29.5 -33.05 -31.7 L-32.5 -38.75 -31.75 -44.75 Q-31.5 -45.95 -30.5 -47.85 L-28.95 -50.4 -27.65 -53.0 Q-25.9 -56.1 -25.25 -56.65 L-20.95 -61.05 Q-18.15 -63.65 -15.2 -64.1 -13.4 -65.25 -11.05 -66.0 -8.8 -66.65 -6.45 -64.9 L-2.5 -62.3 Q-0.35 -61.55 1.1 -59.9 L3.25 -57.25 Q5.75 -54.6 7.2 -47.45 8.4 -41.7 8.4 -36.55 L8.85 -31.0 9.35 -27.25 9.1 -25.25 8.85 -25.15 7.35 -35.2 5.85 -44.25 Q4.15 -52.55 0.0 -57.2 -3.9 -61.5 -8.9 -61.5 -10.55 -61.5 -13.75 -59.9 L-15.5 -58.75 -16.65 -57.2 -17.25 -56.3 -18.2 -55.4 -19.5 -54.05" fill="#cfff4d" fill-rule="evenodd" stroke="none"/>
    <path d="M12.5 -18.25 L9.65 -12.65 Q9.15 -11.6 8.7 -9.75 L8.45 -9.05 9.35 -7.65 10.4 -3.25 Q11.05 -0.4 12.65 1.0 L14.1 2.15 23.25 1.65 24.7 1.25 Q26.0 0.6 26.35 0.5 L29.5 -0.75 Q31.75 -1.65 32.5 -1.75 L34.75 -2.5 36.35 -3.0 37.5 -3.6 Q39.55 -4.55 42.3 -2.35 44.7 -0.4 45.0 1.15 L45.0 1.25 43.2 -0.5 40.55 -0.9 Q37.5 -0.9 35.45 -0.05 L34.2 1.1 Q31.25 3.85 30.25 4.25 28.3 4.95 24.65 5.5 L20.65 5.9 22.25 6.65 Q24.0 7.7 24.0 8.7 L23.55 11.15 Q23.0 12.75 22.85 14.0 22.75 15.0 22.8 17.0 L22.85 19.25 Q22.85 22.55 23.5 30.5 L23.8 34.7 27.35 35.25 Q31.8 35.25 35.7 28.1 38.9 20.7 39.25 20.15 40.3 18.5 42.85 15.75 L45.65 12.5 Q46.6 11.1 47.0 8.6 47.4 5.85 47.75 5.15 48.6 5.6 48.8 7.75 L48.85 10.25 48.35 12.0 47.65 13.75 46.2 15.45 44.25 17.35 Q43.15 18.4 41.7 20.65 L39.75 24.25 Q39.3 25.25 38.7 27.75 L37.6 31.4 Q37.1 32.6 34.65 34.8 L34.0 35.35 34.35 37.1 34.5 41.75 Q34.5 47.5 33.95 49.4 33.15 52.05 29.15 58.0 L25.65 62.75 22.65 66.1 Q14.3 71.9 9.5 71.9 L-2.75 71.05 Q-7.5 70.35 -9.25 69.5 L-12.2 68.0 Q-13.5 67.25 -14.4 66.0 -16.55 63.1 -17.05 61.7 L-17.3 58.3 -17.05 51.55 -17.0 51.25 -18.55 53.65 Q-20.8 57.55 -22.85 59.0 -24.5 60.1 -26.75 60.1 -29.75 60.1 -31.3 57.75 -32.55 55.9 -32.55 53.5 -32.55 49.6 -31.75 47.25 L-31.7 47.15 Q-33.3 48.25 -36.0 49.1 -40.65 50.6 -43.0 50.6 -52.15 50.6 -57.45 44.5 -62.0 39.25 -62.0 31.95 -62.0 22.8 -59.25 17.0 -57.15 12.5 -54.15 9.5 -51.05 6.4 -49.5 5.75 -47.35 4.8 -45.15 4.8 L-46.5 2.75 Q-45.4 2.4 -43.65 3.65 L-41.65 5.4 -40.9 6.0 -38.05 7.65 -36.9 8.45 -35.75 9.0 -31.5 9.65 -25.0 9.65 -22.75 9.1 -21.15 9.25 -21.05 9.35 -21.0 9.45 -19.05 9.85 -18.95 9.9 Q-19.2 8.5 -19.05 5.3 L-19.0 0.6 -18.25 0.35 Q-17.8 0.35 -15.95 2.4 -14.1 4.4 -10.75 4.4 -7.7 4.4 -2.5 0.8 L3.4 -3.75 5.65 -7.95 5.65 -8.25 Q5.65 -9.2 6.5 -11.4 L7.5 -14.35 8.0 -17.3 Q8.3 -19.15 8.75 -20.15 L10.1 -23.15 12.0 -26.0 Q14.15 -28.15 15.5 -29.0 L16.4 -29.5 Q18.2 -31.2 20.25 -32.35 L22.85 -33.2 25.15 -33.75 28.95 -34.55 33.5 -35.1 Q40.25 -34.6 44.25 -27.95 47.4 -22.7 47.4 -17.4 47.4 -15.95 46.15 -13.85 44.85 -11.75 44.85 -11.25 44.85 -10.9 43.95 -9.85 43.0 -8.8 42.35 -8.65 L42.25 -9.0 Q43.75 -10.4 45.25 -14.05 46.75 -17.65 46.75 -19.7 46.75 -22.3 43.85 -27.0 L42.7 -28.85 40.75 -30.5 39.3 -31.1 37.75 -31.6 35.35 -31.9 33.75 -32.25 32.8 -31.8 27.15 -31.5 Q26.85 -31.2 24.05 -29.95 L20.4 -28.1 16.4 -24.35 14.55 -22.3 12.5 -18.25 M10.75 6.4 Q10.5 6.8 10.5 6.15 10.5 5.6 11.4 4.25 L11.8 3.7 11.4 3.4 Q9.25 2.05 8.55 0.05 L7.6 -3.35 7.5 -3.5 Q7.05 -2.15 4.95 -0.6 L0.5 2.25 -3.3 4.8 Q-7.0 7.1 -8.35 7.1 L-13.7 6.7 -17.3 3.75 Q-17.3 8.1 -17.45 10.55 -16.2 11.3 -15.25 12.5 -14.0 14.05 -13.8 15.55 -12.9 17.4 -12.9 23.0 -12.9 24.55 -14.55 29.1 L-16.75 34.65 -16.75 34.75 Q-15.15 34.0 -13.3 33.4 -9.65 32.25 -6.0 32.25 -3.65 32.25 3.4 33.55 L12.35 35.4 Q14.1 35.85 17.65 37.25 L22.35 39.0 21.5 28.8 Q21.1 23.6 21.1 19.15 L21.1 14.25 Q21.1 13.5 21.65 11.8 L22.15 9.4 Q22.15 8.85 20.3 8.05 L16.85 6.75 15.3 6.05 10.75 6.4 M-34.75 28.5 Q-34.75 30.9 -34.35 31.75 -33.15 34.0 -29.0 34.0 -25.4 34.0 -22.9 30.75 L-19.55 25.25 Q-18.6 23.85 -17.25 20.9 -15.55 17.4 -15.55 16.2 -15.55 11.85 -21.05 11.8 -26.7 11.75 -30.5 17.1 L-33.5 23.1 Q-34.75 25.75 -34.75 28.5" fill="#9fc92e" fill-rule="evenodd" stroke="none"/>
    <path d="M3.7 -54.35 L3.6 -53.95 Q2.8 -55.15 0.6 -56.9 L-1.85 -58.75 -3.9 -60.1 Q-5.35 -60.9 -5.95 -60.95 -7.55 -61.05 -8.3 -61.95 -9.1 -62.95 -10.25 -63.15 L-17.55 -59.65 -18.2 -59.85 -18.25 -60.25 Q-18.25 -61.6 -12.55 -63.8 L-7.9 -64.0 Q-7.7 -63.8 -6.35 -63.35 -4.85 -62.85 -4.15 -62.4 -1.5 -60.65 0.85 -58.45 3.7 -55.75 3.7 -54.35 M23.85 -31.8 Q19.6 -27.95 17.05 -26.15 L13.75 -22.8 Q11.8 -20.5 11.35 -20.5 10.9 -20.5 10.75 -20.95 L10.7 -21.45 Q10.7 -22.05 12.55 -24.65 L14.95 -27.6 19.4 -30.95 Q22.35 -32.85 23.85 -31.8 M5.9 -3.2 L5.95 -2.85 Q5.55 1.4 -6.45 5.45 L-7.3 5.15 -7.35 4.9 Q-1.15 1.9 0.0 1.1 L1.75 -0.05 3.05 -1.2 3.9 -2.5 Q4.75 -3.4 5.9 -3.2 M41.75 -1.8 Q41.75 -1.1 40.2 -1.0 37.55 -0.85 35.05 0.1 34.75 0.2 33.3 1.1 L31.55 1.95 31.1 1.8 31.05 1.25 Q31.05 0.9 31.9 0.45 L33.1 -0.3 33.65 -1.0 Q34.2 -1.6 34.95 -1.8 41.75 -3.8 41.75 -1.8 M30.6 50.3 Q30.6 53.85 29.3 57.1 27.85 60.8 24.95 63.35 21.5 66.3 12.8 68.95 5.3 71.25 2.2 71.25 -3.45 71.25 -7.05 68.7 -8.55 67.65 -10.35 65.15 -14.45 59.55 -14.45 58.05 L-14.2 54.45 Q-13.8 52.35 -12.2 50.95 L-8.95 47.25 Q-6.95 45.45 -2.45 45.45 0.05 45.45 3.0 46.65 L8.45 47.15 11.15 47.55 Q13.4 47.55 18.7 46.25 L21.9 44.7 Q23.9 43.95 25.95 44.35 29.35 45.5 30.25 47.2 30.6 47.9 30.6 50.3 M30.6 40.05 Q30.6 40.55 30.2 41.1 29.7 41.75 28.9 41.75 25.75 41.75 24.35 39.95 23.5 38.85 23.5 37.75 23.5 34.45 27.05 36.45 30.6 38.45 30.6 40.05 M-26.4 -18.2 Q-26.4 -17.9 -26.7 -17.6 L-27.3 -17.25 -29.55 -18.55 -34.1 -20.9 -34.45 -21.2 -34.55 -21.65 Q-34.55 -23.55 -30.45 -21.5 -26.4 -19.5 -26.4 -18.2 M-19.5 48.8 Q-19.5 51.1 -21.1 54.4 -23.45 59.35 -27.65 59.35 -29.6 59.35 -30.15 57.45 L-30.3 55.4 -29.85 50.95 Q-29.75 49.85 -28.25 46.55 -27.55 45.05 -26.5 44.3 -24.45 42.85 -21.6 44.3 -20.35 45.8 -19.95 46.75 -19.5 47.65 -19.5 48.8 M-42.2 14.0 Q-42.2 18.5 -43.65 21.05 L-48.9 29.7 Q-49.65 31.05 -49.8 33.5 L-50.1 37.55 -50.4 41.55 Q-51.0 44.8 -53.15 44.8 -55.65 44.8 -58.25 42.2 -60.45 39.95 -60.75 38.3 L-61.35 34.6 -61.4 31.55 -60.85 24.05 Q-60.6 21.5 -59.85 20.35 L-57.2 16.65 Q-56.55 15.5 -54.5 12.9 -52.8 10.75 -50.0 9.5 -45.6 7.5 -43.55 9.95 -42.2 11.55 -42.2 14.0" fill="#cfff4d" fill-rule="evenodd" stroke="none"/>
  </g>
</svg>
