<?xml version="1.0" encoding="UTF-8" standalone="no"?>
<svg xmlns:xlink="http://www.w3.org/1999/xlink" height="123.25px" width="92.35px" xmlns="http://www.w3.org/2000/svg">
  <g transform="matrix(1.0, 0.0, 0.0, 1.0, 4.0, 4.0)">
    <path d="M6.1 3.0 L84.35 3.0 84.35 115.25 6.1 115.25 Q0.0 115.25 0.0 109.1 L0.0 9.1 Q0.0 3.0 6.1 3.0" fill="#70381f" fill-rule="evenodd" stroke="none"/>
    <path d="M6.1 3.0 L84.35 3.0 84.35 115.25 6.1 115.25 Q0.0 115.25 0.0 109.1 L0.0 9.1 Q0.0 3.0 6.1 3.0 Z" fill="none" stroke="#3c190a" stroke-linecap="round" stroke-linejoin="round" stroke-width="8.0"/>
    <path d="M6.1 3.0 L84.3 3.0 84.3 115.25 6.1 115.25 Q0.0 115.25 0.0 109.15 L0.0 9.1 Q0.0 3.0 6.1 3.0" fill="#70381f" fill-rule="evenodd" stroke="none"/>
    <path d="M6.1 14.25 L10.25 14.25 10.25 17.05 6.1 17.05 Q0.2 17.05 0.0 22.8 L0.0 20.35 Q0.0 14.25 6.1 14.25 M6.1 19.85 L10.25 19.85 10.25 22.65 6.1 22.65 Q0.2 22.65 0.0 28.45 L0.0 25.95 Q0.0 19.85 6.1 19.85 M6.1 69.45 L10.25 69.45 10.25 72.25 6.1 72.25 Q0.2 72.25 0.0 78.05 L0.0 75.55 Q0.0 69.45 6.1 69.45 M6.1 75.05 L10.25 75.05 10.25 77.9 6.1 77.9 Q0.2 77.9 0.0 83.65 L0.0 81.2 Q0.0 75.05 6.1 75.05" fill="#ffcf2e" fill-rule="evenodd" stroke="none"/>
    <path d="M11.8 111.15 L9.2 111.15 9.2 3.0 11.8 3.0 11.8 111.15" fill="#5b2c17" fill-rule="evenodd" stroke="none"/>
    <path d="M6.1 89.9 L84.35 89.9 84.35 115.25 6.1 115.25 Q0.2 115.25 0.0 109.5 L0.0 96.05 Q0.0 89.9 6.1 89.9" fill="#5b2c17" fill-rule="evenodd" stroke="none"/>
    <path d="M8.7 93.5 L67.2 93.5 84.35 93.5 84.35 112.65 67.2 112.65 8.7 112.65 Q2.75 112.65 2.55 106.95 L2.55 99.6 Q2.55 93.5 8.7 93.5" fill="#3c190a" fill-rule="evenodd" stroke="none"/>
    <path d="M8.7 93.5 L81.0 93.5 81.75 93.5 81.75 112.65 81.0 112.65 8.7 112.65 Q2.75 112.65 2.55 106.95 L2.55 99.6 Q2.55 93.5 8.7 93.5" fill="#d4bb66" fill-rule="evenodd" stroke="none"/>
    <path d="M37.15 97.35 Q7.4 97.25 7.4 97.05 7.4 96.9 37.15 96.75 L81.75 96.7 81.75 97.5 37.15 97.35 M37.65 107.2 Q7.9 107.1 7.9 106.9 7.9 106.7 37.65 106.6 L81.75 106.55 81.75 107.3 37.65 107.2 M38.7 109.35 L8.9 109.05 38.7 108.75 81.75 108.7 81.75 109.5 38.7 109.35" fill="#bba24e" fill-rule="evenodd" stroke="none"/>
    <path d="M51.65 0.0 L72.7 0.0 72.7 86.75 62.15 78.95 51.65 86.75 51.65 0.0" fill="#eb1414" fill-rule="evenodd" stroke="none"/>
    <path d="M51.65 0.0 L72.7 0.0 72.7 86.75 62.15 78.95 51.65 86.75 51.65 0.0 Z" fill="none" stroke="#3d0505" stroke-linecap="round" stroke-linejoin="round" stroke-width="8.0"/>
    <path d="M51.65 0.0 L72.7 0.0 72.7 86.75 62.15 78.95 51.65 86.75 51.65 0.0" fill="#eb1414" fill-rule="evenodd" stroke="none"/>
    <path d="M72.7 86.75 L62.15 78.95 51.65 86.75 51.65 79.75 62.15 71.95 72.7 79.75 72.7 86.75" fill="#ffcf2e" fill-rule="evenodd" stroke="none"/>
    <path d="M8.65 98.15 L80.0 98.15 80.0 101.45 8.65 101.45 6.25 101.4 6.25 98.25 8.65 98.15" fill="#d4bb66" fill-rule="evenodd" stroke="none"/>
    <path d="M40.1 99.85 L10.35 99.6 Q10.35 99.4 40.1 99.25 L81.75 99.2 81.75 100.0 40.1 99.85" fill="#bba24e" fill-rule="evenodd" stroke="none"/>
  </g>
</svg>
