<?xml version="1.0" encoding="UTF-8" standalone="no"?>
<svg xmlns:xlink="http://www.w3.org/1999/xlink" height="274.6px" width="226.05px" xmlns="http://www.w3.org/2000/svg">
  <g transform="matrix(1.0, 0.0, 0.0, 1.0, -286.65, -170.75)">
    <path d="M494.7 177.25 Q496.3 179.35 498.1 179.8 L498.1 197.75 498.05 197.85 Q497.25 198.8 497.25 200.5 497.25 202.3 497.8 204.7 L498.1 206.1 498.1 211.85 Q497.5 213.2 497.5 215.9 L497.5 216.85 497.05 220.2 Q496.45 219.8 495.65 219.85 494.55 219.9 493.7 221.05 493.1 221.75 492.95 222.8 L490.15 222.2 485.1 222.55 Q483.7 223.0 483.15 224.05 L454.5 224.05 Q453.95 223.45 453.1 223.0 L423.6 222.85 413.95 224.05 397.9 224.05 395.45 223.65 388.9 222.65 Q384.7 223.0 382.15 222.7 380.75 222.8 379.95 224.05 L363.3 224.05 362.4 223.05 Q361.75 222.65 360.65 222.45 L354.85 223.05 351.3 223.0 350.55 223.0 Q348.1 223.45 347.0 224.05 L330.4 224.05 Q329.8 223.2 328.8 222.75 L323.8 222.7 321.9 222.6 314.3 224.05 314.1 224.05 310.7 223.75 307.1 223.45 Q305.3 223.45 304.35 224.05 L300.0 224.05 Q299.85 221.55 299.1 219.4 L298.35 217.7 298.35 215.6 Q298.7 214.95 298.85 213.8 L298.9 210.0 298.7 205.25 298.35 202.6 298.35 193.65 298.7 191.8 298.35 184.5 298.35 182.7 298.35 181.95 298.45 181.75 298.35 181.5 Q298.35 180.35 298.9 179.8 L299.3 179.35 299.9 178.15 300.55 176.65 302.15 176.45 302.3 176.45 303.2 175.85 305.6 175.85 308.85 175.6 321.0 175.5 325.05 175.4 358.25 175.4 Q359.35 175.4 359.75 175.75 L359.85 175.85 385.1 175.85 385.35 176.25 385.55 176.45 399.65 176.45 405.95 177.05 406.55 177.05 406.75 176.65 409.7 177.0 Q413.15 177.0 416.95 175.85 L438.55 175.85 440.85 176.7 Q442.1 176.55 444.5 176.7 L448.8 176.7 449.7 176.55 454.4 176.45 454.6 176.35 461.95 176.35 Q462.15 176.4 462.2 176.55 L462.55 176.45 468.95 176.35 469.75 175.85 493.85 175.85 494.7 177.25" fill="#000000" fill-opacity="0.4" fill-rule="evenodd" stroke="none"/>
    <path d="M497.85 178.2 L497.85 196.2 Q497.1 197.15 497.1 198.95 497.1 200.65 497.6 203.0 L497.85 204.5 497.85 210.15 Q497.25 211.5 497.25 214.2 L497.3 215.05 496.9 218.45 Q496.25 218.0 495.45 218.15 494.3 218.15 493.55 219.25 493.0 220.0 492.8 221.05 L490.05 220.4 Q487.05 220.0 485.0 220.85 483.65 221.3 483.1 222.3 L454.75 222.3 453.35 221.15 424.2 221.1 414.65 222.3 398.7 222.3 396.35 221.9 389.9 220.85 Q385.7 221.3 383.15 220.9 381.7 221.05 381.0 222.3 L364.5 222.3 363.6 221.3 361.95 220.65 356.1 221.3 352.6 221.3 351.85 221.25 Q349.5 221.65 348.35 222.3 L331.95 222.3 Q331.35 221.45 330.3 220.95 L325.45 220.9 323.6 220.85 316.1 222.3 315.9 222.3 312.35 221.95 308.9 221.65 Q307.1 221.65 306.15 222.3 L301.85 222.3 Q301.7 219.8 301.0 217.7 L300.35 215.95 300.35 213.95 300.7 212.1 300.75 208.25 300.55 203.55 300.35 200.9 300.35 192.0 300.55 190.2 300.35 182.85 300.35 181.15 300.35 180.3 300.4 180.2 300.35 179.9 Q300.35 178.75 300.75 178.15 L301.2 177.8 301.75 176.5 302.4 175.05 304.0 174.9 304.1 174.9 Q304.55 174.55 305.0 174.35 L307.45 174.35 310.8 174.1 322.65 173.95 326.7 173.85 359.55 173.85 Q360.55 173.85 361.0 174.2 L361.15 174.35 386.05 174.35 386.3 174.65 386.45 174.85 400.45 174.85 406.7 175.45 407.25 175.45 407.5 175.05 410.5 175.4 Q413.85 175.4 417.6 174.35 L438.95 174.35 441.2 175.15 Q442.45 175.0 444.8 175.15 L449.15 175.15 449.9 175.0 454.65 174.85 454.9 174.8 462.1 174.8 462.45 175.0 462.75 174.85 469.05 174.8 469.8 174.35 493.65 174.35 494.55 175.6 Q496.1 177.8 497.85 178.2" fill="#71b632" fill-rule="evenodd" stroke="none"/>
    <path d="M494.25 192.15 Q494.0 192.05 494.0 191.5 494.0 191.0 497.75 190.4 L502.35 189.95 502.5 190.0 502.65 190.5 Q502.65 191.55 500.15 191.95 L494.5 192.3 494.25 192.15 M339.1 171.0 L342.0 171.1 Q342.35 171.35 342.35 172.25 L341.9 174.2 Q341.45 176.0 340.8 176.4 340.5 176.3 339.6 174.2 338.85 172.2 338.85 171.7 L338.9 171.2 339.1 171.0 M484.65 172.25 Q484.65 173.5 483.5 175.0 L481.4 177.55 480.75 177.75 479.8 177.6 Q479.6 177.5 479.6 177.0 479.6 176.45 481.2 174.2 482.85 171.8 483.7 171.5 L484.4 171.65 484.65 172.25 M456.0 174.15 L456.1 172.55 Q456.35 171.7 457.45 171.45 458.25 171.75 458.95 173.1 L458.95 176.05 458.6 176.3 457.45 176.45 Q456.2 176.45 456.0 175.4 L456.0 174.15 M480.35 224.0 L480.2 224.35 480.1 224.55 479.0 224.65 Q477.75 224.65 477.0 222.85 476.5 221.55 476.5 220.8 L476.6 219.9 476.75 219.2 Q479.8 219.15 480.5 221.25 480.75 222.3 480.5 223.4 L480.35 224.0 M433.25 222.0 Q433.1 221.4 433.3 220.85 433.55 219.7 434.7 219.25 436.3 220.05 436.25 221.4 436.05 223.15 436.5 223.65 L436.45 224.05 Q436.25 224.35 435.3 224.35 433.6 224.35 433.25 223.2 L433.25 222.0 M416.65 221.65 Q416.6 223.75 417.25 224.35 L417.0 224.8 415.75 225.05 414.65 224.95 414.6 224.85 Q414.05 224.15 414.05 222.4 414.05 221.0 414.2 220.55 414.45 219.35 415.45 219.05 416.7 219.75 416.65 221.65 M372.05 224.05 L372.65 219.75 373.75 219.7 374.65 222.9 374.65 225.6 373.45 226.0 Q372.05 225.15 372.05 224.05 M501.7 212.9 Q502.15 213.05 502.15 213.15 502.15 213.65 501.6 213.8 L500.6 213.95 495.35 213.95 Q493.9 213.6 492.25 212.75 492.4 212.05 493.0 211.95 L500.6 212.25 501.7 212.9 M310.8 173.45 L310.85 172.45 Q313.4 172.15 314.0 173.1 314.3 173.4 314.3 174.5 L314.0 176.4 313.85 176.6 312.8 176.75 Q311.65 176.75 310.8 173.45 M314.55 225.35 L313.4 225.6 Q312.2 224.8 312.2 223.95 L312.6 219.35 313.7 219.35 314.3 221.2 314.55 223.0 314.55 225.35 M293.65 211.45 L292.75 210.8 Q293.85 209.95 298.1 209.5 L302.95 209.25 303.25 209.45 303.45 210.1 Q303.45 210.55 301.7 211.15 299.9 211.75 298.2 211.75 L293.65 211.45" fill="#6c833f" fill-rule="evenodd" stroke="none"/>
    <path d="M509.5 367.8 L509.5 397.9 509.45 398.05 Q508.6 399.7 508.6 402.55 508.6 405.55 509.2 409.6 L509.5 412.0 509.5 421.6 Q508.9 423.85 508.9 428.45 L508.9 429.9 508.35 435.6 Q507.7 434.85 506.8 435.05 505.6 435.15 504.7 437.0 504.1 438.2 503.9 439.95 502.4 439.25 500.85 438.9 497.4 438.2 495.25 439.6 493.7 440.35 493.15 442.1 L461.7 442.1 Q461.1 441.05 460.1 440.25 L427.8 440.05 417.2 442.1 399.6 442.1 396.9 441.4 389.75 439.7 Q385.15 440.35 382.35 439.75 380.8 439.95 379.95 442.1 L361.65 442.1 360.7 440.4 Q360.0 439.7 358.8 439.35 L352.4 440.4 348.45 440.35 347.65 440.3 Q344.95 441.05 343.75 442.1 L325.55 442.1 Q324.95 440.65 323.8 439.9 L318.35 439.75 316.25 439.65 Q309.4 442.05 307.9 442.1 L307.75 442.1 304.0 441.55 300.05 441.05 Q298.1 441.05 297.0 442.1 L292.25 442.1 Q292.05 437.9 291.25 434.3 L290.45 431.35 290.45 427.95 290.95 424.8 291.05 418.45 290.8 410.45 290.45 406.0 290.45 391.0 Q290.8 389.55 290.8 387.95 L290.45 375.65 290.45 372.7 290.45 371.35 290.5 371.1 290.45 370.6 Q290.45 368.65 291.05 367.7 L291.5 367.1 292.15 364.95 292.85 362.45 294.6 362.2 294.75 362.2 295.7 361.1 298.4 361.1 302.0 360.75 315.3 360.55 319.7 360.4 356.15 360.4 Q357.35 360.4 357.8 361.0 L357.9 361.1 385.6 361.1 Q385.65 361.5 385.85 361.8 L386.05 362.15 401.5 362.15 Q406.5 362.25 408.4 363.2 L409.05 363.2 409.3 362.45 Q410.6 363.15 412.6 363.15 416.35 363.15 420.55 361.1 L444.2 361.1 446.7 362.5 Q448.1 362.35 450.7 362.55 L455.45 362.55 456.4 362.35 461.6 362.15 461.85 361.95 469.85 361.95 470.15 362.35 470.55 362.15 477.5 361.95 478.4 361.1 504.85 361.1 Q505.15 362.25 505.8 363.4 507.55 367.1 509.5 367.8" fill="#000000" fill-opacity="0.4" fill-rule="evenodd" stroke="none"/>
    <path d="M504.7 358.85 L505.65 361.05 Q507.35 364.7 509.3 365.4 L509.3 395.55 Q508.45 397.2 508.45 400.2 508.45 403.05 508.95 407.05 L509.3 409.5 509.3 419.05 Q508.65 421.25 508.65 425.8 L508.7 427.3 508.2 432.95 Q507.5 432.25 506.65 432.4 505.4 432.45 504.55 434.3 503.95 435.6 503.7 437.35 502.3 436.6 500.7 436.3 497.35 435.6 495.2 437.0 493.65 437.75 493.1 439.45 L462.05 439.45 460.5 437.5 428.45 437.45 418.0 439.45 400.55 439.45 397.95 438.8 Q392.7 437.7 390.9 437.05 386.25 437.75 383.45 437.1 381.9 437.35 381.1 439.45 L363.0 439.45 362.0 437.8 Q361.35 437.05 360.2 436.7 L353.85 437.8 350.0 437.75 349.15 437.7 Q346.55 438.4 345.35 439.45 L327.3 439.45 Q326.65 438.0 325.5 437.2 L320.2 437.1 318.15 437.0 Q311.3 439.3 309.85 439.45 L309.75 439.45 305.85 438.9 302.05 438.4 Q300.1 438.4 299.0 439.45 L294.35 439.45 Q294.15 435.25 293.35 431.7 L292.65 428.8 292.65 425.35 293.1 422.3 293.1 415.85 292.85 407.95 292.65 403.5 292.65 388.5 292.85 385.55 292.65 373.25 292.65 370.35 292.65 368.95 292.65 368.8 292.65 368.2 Q292.65 366.35 293.1 365.3 L293.55 364.7 294.2 362.55 294.9 360.1 296.65 359.9 296.8 359.9 297.7 358.85 300.45 358.85 304.05 358.45 317.1 358.2 321.55 358.15 357.6 358.15 Q358.7 358.15 359.15 358.65 L359.35 358.85 386.65 358.85 386.9 359.55 387.1 359.8 402.45 359.8 Q407.35 359.95 409.3 360.85 L409.9 360.85 410.2 360.1 Q411.45 360.75 413.45 360.75 417.15 360.75 421.25 358.85 L444.65 358.85 447.2 360.25 Q448.5 360.05 451.15 360.3 L455.9 360.3 456.7 360.05 461.85 359.8 462.15 359.6 470.1 359.6 470.4 360.05 470.75 359.8 477.7 359.6 478.5 358.85 504.7 358.85" fill="#3cadc6" fill-rule="evenodd" stroke="none"/>
    <path d="M361.75 359.5 Q361.6 360.15 360.55 360.5 359.65 359.5 359.65 358.5 L359.85 355.6 Q361.2 355.15 361.4 356.75 L361.75 359.5 M408.7 360.05 L408.6 362.15 407.8 362.4 Q407.1 362.05 406.95 361.25 L406.9 360.05 406.95 358.45 Q407.1 357.15 407.8 356.6 408.45 357.2 408.6 358.25 L408.7 360.05 M452.75 357.3 L452.85 358.15 452.3 360.6 Q451.75 362.9 451.15 363.35 L450.45 363.3 Q450.25 363.25 450.25 362.65 450.15 361.1 450.4 359.75 450.85 357.1 452.65 357.0 L452.75 357.3 M507.3 373.1 L506.5 372.9 506.2 372.5 506.1 372.05 Q506.45 370.9 508.65 369.85 510.85 368.85 512.35 369.25 L512.4 369.45 512.5 370.1 Q512.5 370.45 507.3 373.1 M490.5 360.5 L490.9 358.4 491.65 356.7 492.35 357.85 492.45 359.1 Q492.45 360.9 491.45 361.95 L490.75 361.45 Q490.5 361.15 490.5 360.5 M302.55 359.8 L302.5 360.5 302.3 360.75 301.35 360.95 Q300.7 360.95 299.9 358.7 L299.3 356.45 Q299.3 353.95 300.95 356.1 302.55 358.15 302.55 359.8 M295.8 378.4 Q296.1 378.45 296.1 379.1 296.1 379.8 295.8 380.0 L295.25 380.2 286.95 380.0 286.8 379.9 Q286.65 379.85 286.65 379.25 286.65 378.6 287.65 378.45 L295.25 378.2 295.8 378.4 M295.25 404.45 L295.4 404.55 295.5 405.3 Q295.5 405.9 293.85 406.45 L291.45 406.95 Q289.05 406.95 288.65 406.3 288.65 405.55 288.45 405.25 L295.25 404.45 M292.7 435.5 Q291.65 435.5 291.65 434.15 291.65 433.1 293.05 432.65 294.5 432.15 295.95 433.2 L296.05 433.05 296.1 433.65 Q296.1 434.65 292.7 435.5 M310.75 438.4 Q310.9 439.5 310.65 442.2 L309.75 443.0 Q309.05 442.6 308.55 440.05 L308.25 437.3 308.3 436.55 308.35 436.55 Q310.5 436.4 310.75 438.4 M509.4 413.65 L507.9 413.45 506.95 413.05 Q507.8 411.95 509.35 411.6 L512.5 411.75 512.6 411.6 512.7 412.3 Q512.7 412.9 512.3 413.15 L509.4 413.65 M506.85 439.15 L506.0 439.4 Q505.0 439.4 503.4 436.8 L501.95 434.05 Q501.95 433.4 502.05 433.45 L502.15 433.6 Q502.75 433.25 504.8 435.45 506.9 437.6 507.1 438.65 L506.85 439.15 M510.85 426.3 L507.6 426.2 507.1 426.15 Q506.95 426.05 506.95 425.4 L506.95 424.85 507.15 424.65 511.8 424.75 511.9 424.65 511.95 425.3 511.75 426.15 510.85 426.3 M475.85 441.95 Q475.85 438.9 476.7 437.8 477.45 438.95 477.6 441.25 L477.6 443.25 476.7 443.75 476.05 442.55 475.85 441.95 M407.95 440.65 L407.65 438.2 Q407.65 436.65 408.5 436.4 409.15 437.3 409.75 439.5 L410.6 442.8 410.3 443.4 Q410.0 443.9 409.45 443.9 L408.6 443.8 408.4 443.65 407.95 440.65 M424.15 441.7 L423.45 441.9 Q421.9 441.9 421.75 439.75 L421.75 436.35 421.9 435.6 Q423.65 435.55 424.25 437.95 L424.45 440.75 424.3 441.5 424.15 441.7 M373.2 440.45 L372.7 445.1 371.95 445.35 Q371.3 444.95 371.1 444.15 L371.05 442.8 371.1 440.75 Q371.3 440.05 372.25 438.35 373.2 439.05 373.2 440.45 M343.75 438.25 L344.2 441.3 344.1 441.85 343.35 442.0 342.55 441.95 342.45 441.85 342.8 435.4 343.35 435.4 343.75 438.25" fill="#226573" fill-rule="evenodd" stroke="none"/>
  </g>
</svg>
