<?xml version="1.0" encoding="UTF-8" standalone="no"?>
<svg xmlns:xlink="http://www.w3.org/1999/xlink" height="57.95px" width="46.75px" xmlns="http://www.w3.org/2000/svg">
  <g transform="matrix(1.0, 0.0, 0.0, 1.0, 23.4, 29.4)">
    <path d="M-10.65 20.6 Q-10.0 12.25 -12.0 3.95 L-0.45 3.95 0.65 3.95 12.2 3.95 Q10.2 12.25 10.85 20.6 L0.65 20.6 -0.45 20.6 -10.65 20.6" fill="#c2421e" fill-rule="evenodd" stroke="none"/>
    <path d="M-10.65 20.6 Q-10.0 12.25 -12.0 3.95 L-0.45 3.95 0.65 3.95 12.2 3.95 Q10.2 12.25 10.85 20.6 L0.65 20.6 -0.45 20.6 -10.65 20.6 Z" fill="none" stroke="#a15800" stroke-linecap="round" stroke-linejoin="round" stroke-width="4.0"/>
    <path d="M-10.65 20.6 Q-10.0 12.25 -12.0 3.95 L-0.45 3.95 0.65 3.95 12.2 3.95 Q10.2 12.25 10.85 20.6 L0.65 20.6 -0.45 20.6 -10.65 20.6" fill="#ec2b2b" fill-rule="evenodd" stroke="none"/>
    <path d="M-7.45 8.7 L7.55 8.7 7.55 20.35 -7.45 20.35 -7.45 8.7" fill="#3bb7e0" fill-rule="evenodd" stroke="none"/>
    <path d="M-7.45 8.7 L7.55 8.7 7.55 20.35 -7.45 20.35 -7.45 8.7 Z" fill="none" stroke="#1a4e5d" stroke-linecap="round" stroke-linejoin="round" stroke-width="4.0"/>
    <path d="M-7.45 8.7 L7.55 8.7 7.55 20.35 -7.45 20.35 -7.45 8.7" fill="#3bb7e0" fill-rule="evenodd" stroke="none"/>
    <path d="M2.9 13.35 Q2.9 14.6 2.0 15.45 L1.1 16.05 1.1 19.45 -1.25 19.45 -1.25 16.1 -2.2 15.45 Q-3.0 14.6 -3.0 13.35 -3.0 12.15 -2.2 11.25 -1.3 10.4 -0.05 10.4 1.15 10.4 2.0 11.25 2.9 12.15 2.9 13.35" fill="#1a4e5d" fill-rule="evenodd" stroke="none"/>
    <path d="M7.6 8.6 L7.6 20.25 5.35 20.25 5.35 8.6 7.6 8.6 M-7.4 8.6 L-5.15 8.6 -5.15 20.25 -7.4 20.25 -7.4 8.6" fill="#2c90b1" fill-rule="evenodd" stroke="none"/>
    <path d="M-1.25 16.05 L-2.1 15.4 Q-3.0 14.6 -3.0 13.35 L-2.9 12.55 Q-2.7 13.35 -2.1 13.9 L-1.25 14.55 -1.25 16.05 M1.15 19.4 L-1.25 19.4 -1.25 17.85 1.15 17.85 1.15 19.4 M2.95 13.35 Q2.95 14.6 2.05 15.4 L1.15 16.05 1.15 14.55 2.05 13.9 Q2.65 13.35 2.85 12.55 L2.95 13.35" fill="#2c90b1" fill-rule="evenodd" stroke="none"/>
    <path d="M13.65 21.35 Q12.3 24.0 11.15 24.95 10.15 25.75 6.95 26.3 L0.3 26.55 -6.45 26.3 Q-9.75 25.75 -10.7 24.95 -11.9 24.0 -13.2 21.35 L-13.65 20.4 14.15 20.4 13.65 21.35" fill="#799e49" fill-rule="evenodd" stroke="none"/>
    <path d="M13.65 21.35 Q12.3 24.0 11.15 24.95 10.15 25.75 6.95 26.3 L0.3 26.55 -6.45 26.3 Q-9.75 25.75 -10.7 24.95 -11.9 24.0 -13.2 21.35 L-13.65 20.4 14.15 20.4 13.65 21.35 Z" fill="none" stroke="#a15800" stroke-linecap="round" stroke-linejoin="round" stroke-width="4.0"/>
    <path d="M13.65 21.35 Q12.3 24.0 11.15 24.95 10.15 25.75 6.95 26.3 L0.3 26.55 -6.45 26.3 Q-9.75 25.75 -10.7 24.95 -11.9 24.0 -13.2 21.35 L-13.65 20.4 14.15 20.4 13.65 21.35" fill="#ffc812" fill-rule="evenodd" stroke="none"/>
    <path d="M7.9 23.75 L-7.4 23.75 -6.05 20.4 6.55 20.4 7.9 23.75" fill="#ff9310" fill-rule="evenodd" stroke="none"/>
    <path d="M3.45 23.7 L0.6 23.7 0.6 20.4 3.45 20.4 3.45 23.7 M5.75 23.55 L3.75 23.7 4.3 23.65 4.3 20.4 5.35 20.4 Q5.75 21.8 5.75 23.45 L5.75 23.55 M-5.4 23.55 L-5.4 23.45 Q-5.4 21.8 -5.0 20.4 L-3.85 20.4 -3.85 23.65 -5.4 23.55 M-0.25 23.7 L-3.05 23.7 -3.05 20.4 -0.25 20.4 -0.25 23.7" fill="#e2dbcc" fill-rule="evenodd" stroke="none"/>
    <path d="M-7.7 23.6 L1.4 23.2 10.35 23.9 11.9 24.25 11.2 25.0 Q10.15 25.8 6.95 26.35 L0.3 26.6 -6.45 26.35 Q-9.75 25.8 -10.7 25.0 L-11.1 24.55 Q-10.3 24.0 -7.7 23.6" fill="#000000" fill-opacity="0.3019608" fill-rule="evenodd" stroke="none"/>
    <path d="M-16.15 0.7 L-16.05 0.75 Q-16.45 -1.85 -16.3 -4.3 -16.0 -8.6 -13.95 -11.95 -11.95 -15.35 -7.8 -17.1 L-4.85 -17.95 Q-8.55 -19.65 -8.25 -27.0 L-3.35 -27.4 Q-5.1 -21.7 -4.2 -18.25 -4.7 -21.65 0.7 -24.55 L3.1 -21.25 Q-1.6 -20.15 -3.6 -18.2 L0.25 -18.5 Q4.75 -18.5 8.25 -17.1 12.35 -15.35 14.45 -11.95 16.45 -8.6 16.75 -4.3 16.95 -2.0 16.55 0.5 18.3 -0.2 19.9 0.9 21.9 2.3 21.15 4.7 20.5 6.6 18.85 8.05 17.7 9.0 15.6 8.9 L14.25 8.7 14.2 8.7 14.15 8.8 -13.65 8.8 -13.8 8.6 -14.3 8.7 -15.7 8.9 Q-17.75 9.0 -18.9 8.05 -20.55 6.6 -21.2 4.7 -22.0 2.3 -19.95 0.9 -18.1 -0.35 -16.15 0.7" fill="#9e8b49" fill-rule="evenodd" stroke="none"/>
    <path d="M-16.15 0.7 Q-18.1 -0.35 -19.95 0.9 -22.0 2.3 -21.2 4.7 -20.55 6.6 -18.9 8.05 -17.75 9.0 -15.7 8.9 L-14.3 8.7 -13.8 8.6 -13.65 8.8 14.15 8.8 14.2 8.7 14.25 8.7 15.6 8.9 Q17.7 9.0 18.85 8.05 20.5 6.6 21.15 4.7 21.9 2.3 19.9 0.9 18.3 -0.2 16.55 0.5 16.95 -2.0 16.75 -4.3 16.45 -8.6 14.45 -11.95 12.35 -15.35 8.25 -17.1 4.75 -18.5 0.25 -18.5 L-3.6 -18.2 Q-1.6 -20.15 3.1 -21.25 L0.7 -24.55 Q-4.7 -21.65 -4.2 -18.25 -5.1 -21.7 -3.35 -27.4 L-8.25 -27.0 Q-8.55 -19.65 -4.85 -17.95 L-7.8 -17.1 Q-11.95 -15.35 -13.95 -11.95 -16.0 -8.6 -16.3 -4.3 -16.45 -1.85 -16.05 0.75 L-16.15 0.7 Z" fill="none" stroke="#a15800" stroke-linecap="round" stroke-linejoin="round" stroke-width="4.0"/>
    <path d="M-14.95 1.55 L-16.15 0.75 Q-18.1 -0.3 -20.0 0.95 -21.95 2.3 -21.2 4.75 -20.55 6.7 -18.85 8.1 -17.75 9.0 -15.7 8.9 L-14.35 8.75 -13.8 8.6 -14.5 2.0 -14.95 1.55" fill="#ffc812" fill-rule="evenodd" stroke="none"/>
    <path d="M-14.95 3.5 L-17.75 3.65 Q-19.1 4.65 -18.55 6.4 -18.1 7.8 -16.85 8.8 L-16.8 8.9 -15.7 8.9 -14.35 8.75 -13.8 8.65 -14.35 3.9 Q-14.6 3.65 -14.95 3.5" fill="#ff9310" fill-rule="evenodd" stroke="none"/>
    <path d="M16.1 0.75 Q18.05 -0.3 19.95 0.95 21.9 2.3 21.15 4.75 20.5 6.7 18.8 8.1 17.7 9.0 15.65 8.9 L14.3 8.75 13.75 8.6 14.45 2.0 14.9 1.55 Q15.5 1.05 16.1 0.75" fill="#ffc812" fill-rule="evenodd" stroke="none"/>
    <path d="M14.9 3.5 L17.7 3.65 Q19.05 4.65 18.5 6.4 18.05 7.8 16.8 8.8 L16.75 8.9 15.65 8.9 14.3 8.75 13.75 8.65 14.3 3.9 Q14.55 3.65 14.9 3.5" fill="#ff9310" fill-rule="evenodd" stroke="none"/>
    <path d="M-8.2 -27.05 L-3.25 -27.4 Q-5.25 -21.2 -4.0 -17.7 -8.55 -18.8 -8.2 -27.05" fill="#ffc812" fill-rule="evenodd" stroke="none"/>
    <path d="M0.75 -24.55 L3.1 -21.2 Q-2.15 -20.0 -4.05 -17.65 -5.15 -21.35 0.75 -24.55" fill="#ffc812" fill-rule="evenodd" stroke="none"/>
    <path d="M16.75 -4.3 Q17.0 -0.6 16.0 3.4 15.25 6.25 14.15 8.8 L-13.65 8.8 Q-14.85 6.25 -15.55 3.4 -16.5 -0.6 -16.25 -4.3 -15.95 -8.6 -13.95 -11.95 -11.95 -15.35 -7.8 -17.05 -4.35 -18.5 0.25 -18.5 4.75 -18.5 8.25 -17.05 12.35 -15.35 14.45 -11.95 16.45 -8.6 16.75 -4.3" fill="#ffc812" fill-rule="evenodd" stroke="none"/>
    <path d="M12.2 -10.95 L16.05 -8.3 Q16.65 -6.4 16.75 -4.3 17.0 -0.6 16.0 3.4 L15.45 5.4 Q11.95 7.3 8.45 6.65 L5.05 5.25 6.55 8.8 -6.05 8.8 -4.55 5.25 -7.95 6.65 Q-11.5 7.3 -15.0 5.3 L-15.55 3.4 Q-16.5 -0.6 -16.25 -4.3 -16.15 -6.4 -15.55 -8.3 L-11.7 -10.95 Q-7.1 -13.8 -2.85 -9.9 -1.0 -8.1 0.25 -5.95 1.5 -8.1 3.35 -9.9 7.6 -13.8 12.2 -10.95" fill="#ff9310" fill-rule="evenodd" stroke="none"/>
    <path d="M-14.3 -0.85 L-4.65 -0.85 -4.65 1.05 -14.3 1.05 -14.3 -0.85" fill="#a15800" fill-rule="evenodd" stroke="none"/>
    <path d="M4.9 -0.85 L14.55 -0.85 14.55 1.05 4.9 1.05 4.9 -0.85" fill="#a15800" fill-rule="evenodd" stroke="none"/>
    <path d="M4.3 6.55 Q5.0 7.6 5.35 8.8 L4.3 8.8 4.3 6.55 M0.6 4.0 Q2.2 4.15 3.45 5.5 L3.45 8.8 0.6 8.8 0.6 4.0 M-3.05 5.4 Q-1.8 4.15 -0.25 4.0 L-0.25 8.8 -3.05 8.8 -3.05 5.4 M-3.85 8.8 L-5.0 8.8 -3.85 6.45 -3.85 8.8" fill="#e2dbcc" fill-rule="evenodd" stroke="none"/>
    <path d="M5.1 -14.4 Q5.4 -12.85 3.25 -11.35 1.15 -9.8 -2.2 -9.1 -5.6 -8.4 -8.2 -9.0 -10.75 -9.5 -11.05 -11.05 -11.4 -12.6 -9.25 -14.2 -7.1 -15.65 -3.7 -16.35 L2.2 -16.55 Q4.75 -15.95 5.1 -14.4" fill="#ffff99" fill-opacity="0.3019608" fill-rule="evenodd" stroke="none"/>
  </g>
</svg>
