<?xml version="1.0" encoding="UTF-8" standalone="no"?>
<svg xmlns:xlink="http://www.w3.org/1999/xlink" height="30.9px" width="32.05px" xmlns="http://www.w3.org/2000/svg">
  <g transform="matrix(1.0, 0.0, 0.0, 1.0, 15.65, 15.0)">
    <path d="M1.55 12.75 L-1.25 12.75 Q-5.85 12.75 -9.15 9.15 -12.45 5.55 -12.45 0.45 -12.45 -4.65 -9.15 -8.25 -5.85 -11.85 -1.25 -11.85 L1.45 -11.8 Q-2.8 -11.6 -5.85 -8.25 -9.15 -4.65 -9.15 0.45 -9.15 5.55 -5.85 9.15 -2.75 12.55 1.55 12.75 M3.3 -11.75 L3.6 -11.75 5.95 -11.1 3.3 -11.75" fill="#ce9b00" fill-rule="evenodd" stroke="none"/>
    <path d="M5.95 -11.1 Q8.15 -10.2 10.05 -8.25 13.25 -4.65 13.25 0.45 13.25 5.55 10.05 9.15 6.65 12.75 2.05 12.75 L1.55 12.75 Q-2.75 12.55 -5.85 9.15 -9.15 5.55 -9.15 0.45 -9.15 -4.65 -5.85 -8.25 -2.8 -11.6 1.45 -11.8 L2.05 -11.85 3.3 -11.75 5.95 -11.1 M8.1 -6.15 Q5.6 -8.85 2.05 -8.85 -1.5 -8.85 -3.95 -6.15 -6.4 -3.4 -6.4 0.45 -6.4 4.3 -3.95 7.1 -1.5 9.75 2.05 9.75 5.6 9.75 8.1 7.1 10.5 4.3 10.5 0.45 10.5 -3.4 8.1 -6.15" fill="url(#gradient0)" fill-rule="evenodd" stroke="none"/>
    <path d="M0.45 -7.85 L0.2 -7.35 0.35 -6.45 Q-0.75 -5.85 -1.25 -4.85 -1.8 -3.75 -1.6 -2.85 -1.5 -1.9 -0.75 -1.05 L0.65 0.4 2.15 1.75 3.0 3.0 2.85 4.0 2.1 4.45 1.7 4.45 1.35 4.2 0.9 3.7 0.65 2.95 0.35 2.3 -0.05 2.3 Q-0.75 2.35 -1.0 3.25 -1.3 4.05 -1.2 4.9 -0.95 6.4 0.15 7.15 1.15 8.0 2.65 7.8 L2.85 8.85 Q2.9 9.25 3.3 9.2 L3.9 8.95 4.1 8.5 3.95 7.45 Q4.95 7.0 5.6 6.0 L6.15 4.7 Q6.3 3.85 6.05 2.65 5.9 1.6 5.15 0.55 4.5 -0.5 3.75 -0.95 L2.4 -2.1 Q1.75 -2.75 1.65 -3.2 1.55 -3.7 1.75 -4.1 L2.35 -4.6 3.05 -4.55 3.6 -4.5 Q4.15 -4.6 3.95 -5.6 3.75 -7.25 1.95 -6.9 L1.7 -6.9 1.55 -7.7 1.35 -8.0 0.9 -8.0 0.45 -7.85 M8.1 -6.15 Q10.5 -3.4 10.5 0.45 10.5 4.3 8.1 7.1 5.6 9.75 2.05 9.75 -1.5 9.75 -3.95 7.1 -6.4 4.3 -6.4 0.45 -6.4 -3.4 -3.95 -6.15 -1.5 -8.85 2.05 -8.85 5.6 -8.85 8.1 -6.15" fill="#ffdd75" fill-rule="evenodd" stroke="none"/>
    <path d="M0.45 -7.85 L0.9 -8.0 1.35 -8.0 1.55 -7.7 1.7 -6.9 1.95 -6.9 Q3.75 -7.25 3.95 -5.6 4.15 -4.6 3.6 -4.5 L3.05 -4.55 2.35 -4.6 1.75 -4.1 Q1.55 -3.7 1.65 -3.2 1.75 -2.75 2.4 -2.1 L3.75 -0.95 Q4.5 -0.5 5.15 0.55 5.9 1.6 6.05 2.65 6.3 3.85 6.15 4.7 L5.6 6.0 Q4.95 7.0 3.95 7.45 L4.1 8.5 3.9 8.95 3.3 9.2 Q2.9 9.25 2.85 8.85 L2.65 7.8 Q1.15 8.0 0.15 7.15 -0.95 6.4 -1.2 4.9 -1.3 4.05 -1.0 3.25 -0.75 2.35 -0.05 2.3 L0.35 2.3 0.65 2.95 0.9 3.7 1.35 4.2 1.7 4.45 2.1 4.45 2.85 4.0 3.0 3.0 2.15 1.75 0.65 0.4 -0.75 -1.05 Q-1.5 -1.9 -1.6 -2.85 -1.8 -3.75 -1.25 -4.85 -0.75 -5.85 0.35 -6.45 L0.2 -7.35 0.45 -7.85" fill="#eaaf00" fill-rule="evenodd" stroke="none"/>
    <path d="M6.9 -14.1 L7.05 -14.0 Q10.0 -12.95 12.3 -10.3 16.4 -5.9 16.4 0.45 16.4 6.8 12.3 11.3 8.05 15.9 2.1 15.9 L1.6 15.9 -1.35 15.9 Q-7.35 16.0 -11.55 11.3 -15.65 6.8 -15.65 0.45 -15.65 -5.9 -11.55 -10.3 L-11.55 -10.35 Q-7.35 -15.0 -1.35 -15.0 L1.3 -14.9 2.1 -15.0 4.05 -14.8 4.15 -14.8 6.9 -14.1 M1.55 12.75 L2.05 12.75 Q6.65 12.75 10.05 9.15 13.25 5.55 13.25 0.45 13.25 -4.65 10.05 -8.25 8.15 -10.2 5.95 -11.1 L3.6 -11.75 3.3 -11.75 2.05 -11.85 1.45 -11.8 -1.25 -11.85 Q-5.85 -11.85 -9.15 -8.25 -12.45 -4.65 -12.45 0.45 -12.45 5.55 -9.15 9.15 -5.85 12.75 -1.25 12.75 L1.55 12.75" fill="#624900" fill-rule="evenodd" stroke="none"/>
  </g>
  <defs>
    <linearGradient gradientTransform="matrix(0.0123, -0.021, 0.0115, 0.0081, -1.2, 8.6)" gradientUnits="userSpaceOnUse" id="gradient0" spreadMethod="pad" x1="-819.2" x2="819.2">
      <stop offset="0.0" stop-color="#ffcc33"/>
      <stop offset="1.0" stop-color="#fff2cc"/>
    </linearGradient>
  </defs>
</svg>
