<?xml version="1.0" encoding="UTF-8" standalone="no"?>
<svg xmlns:xlink="http://www.w3.org/1999/xlink" height="31.1px" width="11.2px" xmlns="http://www.w3.org/2000/svg">
  <g transform="matrix(1.0, 0.0, 0.0, 1.0, 6.0, 15.05)">
    <path d="M-2.2 -11.75 L-2.15 -11.8 Q-1.85 -12.0 1.5 -11.85 1.9 -11.85 2.2 -8.25 2.55 -4.65 2.55 0.45 2.55 5.55 2.2 9.15 1.9 12.75 1.5 12.75 -1.95 13.0 -2.25 12.75 -1.85 12.4 -1.6 9.15 -1.3 5.55 -1.3 0.45 -1.3 -4.65 -1.6 -8.25 -1.85 -11.25 -2.2 -11.75 M-2.5 -7.35 L-2.5 -7.85 -2.5 -8.0 -2.45 -8.0 -2.45 -7.7 -2.4 -6.9 Q-2.2 -7.25 -2.2 -5.6 L-2.25 -4.5 -2.25 -4.55 -2.3 -4.6 -2.4 -4.1 -2.45 -3.2 -2.3 -2.1 -2.2 -0.95 -2.1 0.55 -2.0 2.65 -2.0 4.7 -2.0 6.0 -2.2 7.45 -2.2 8.5 -2.2 8.95 -2.25 9.2 -2.25 7.8 Q-2.45 8.0 -2.55 7.15 L-2.7 4.9 -2.6 3.25 -2.55 2.3 -2.5 2.3 -2.5 2.95 -2.5 3.7 -2.45 4.2 -2.4 4.45 -2.3 4.45 -2.25 4.0 -2.25 3.0 -2.3 1.75 -2.5 0.4 -2.6 -1.05 -2.7 -2.85 -2.7 -4.85 -2.5 -6.45 -2.5 -7.35" fill="#ce9b00" fill-rule="evenodd" stroke="none"/>
    <path d="M-2.5 -7.35 L-2.5 -6.45 -2.7 -4.85 -2.7 -2.85 -2.6 -1.05 -2.5 0.4 -2.3 1.75 -2.25 3.0 -2.25 4.0 -2.3 4.45 -2.4 4.45 -2.45 4.2 -2.5 3.7 -2.5 2.95 -2.5 2.3 -2.55 2.3 -2.6 3.25 -2.7 4.9 -2.55 7.15 Q-2.45 8.0 -2.25 7.8 L-2.25 9.2 -2.2 8.95 -2.2 8.5 -2.2 7.45 -2.0 6.0 -2.0 4.7 -2.0 2.65 -2.1 0.55 -2.2 -0.95 -2.3 -2.1 -2.45 -3.2 -2.4 -4.1 -2.3 -4.6 -2.25 -4.55 -2.25 -4.5 -2.2 -5.6 Q-2.2 -7.25 -2.4 -6.9 L-2.45 -7.7 -2.45 -8.0 -2.5 -8.0 -2.5 -7.85 -2.5 -7.35 M-2.85 -6.15 Q-2.6 -8.85 -2.3 -8.85 -2.0 -8.85 -1.8 -6.15 -1.55 -3.4 -1.55 0.45 -1.55 4.3 -1.8 7.1 -2.0 9.75 -2.3 9.75 -2.6 9.75 -2.85 7.1 L-3.05 0.45 -2.85 -6.15" fill="#ffcc33" fill-rule="evenodd" stroke="none"/>
    <path d="M-2.25 12.75 L-2.3 12.75 Q-2.75 12.75 -3.0 9.15 L-3.3 0.45 -3.0 -8.25 Q-2.75 -11.85 -2.3 -11.85 L-2.2 -11.75 Q-1.85 -11.25 -1.6 -8.25 -1.3 -4.65 -1.3 0.45 -1.3 5.55 -1.6 9.15 -1.85 12.4 -2.25 12.75 M-2.85 -6.15 L-3.05 0.45 -2.85 7.1 Q-2.6 9.75 -2.3 9.75 -2.0 9.75 -1.8 7.1 -1.55 4.3 -1.55 0.45 -1.55 -3.4 -1.8 -6.15 -2.0 -8.85 -2.3 -8.85 -2.6 -8.85 -2.85 -6.15" fill="url(#gradient0)" fill-rule="evenodd" stroke="none"/>
    <path d="M-2.25 12.75 Q-1.95 13.0 1.5 12.75 1.9 12.75 2.2 9.15 2.55 5.55 2.55 0.45 2.55 -4.65 2.2 -8.25 1.9 -11.85 1.5 -11.85 -1.85 -12.0 -2.15 -11.8 L-2.2 -11.75 -2.3 -11.85 Q-2.75 -11.85 -3.0 -8.25 L-3.3 0.45 -3.0 9.15 Q-2.75 12.75 -2.3 12.75 L-2.25 12.75 M1.6 -15.0 Q4.2 -15.6 4.8 -8.85 5.2 -5.0 5.2 0.45 5.2 5.95 4.8 9.85 4.2 16.5 1.65 15.9 L1.6 15.9 -2.5 16.0 Q-5.15 16.5 -5.6 9.8 -6.0 5.95 -6.0 0.45 -6.0 -4.95 -5.6 -8.85 -5.15 -15.6 -2.45 -15.0 L-1.65 -15.0 1.6 -15.0" fill="#624900" fill-rule="evenodd" stroke="none"/>
  </g>
  <defs>
    <linearGradient gradientTransform="matrix(-0.0011, -0.021, -0.001, 0.0081, -2.15, 4.7)" gradientUnits="userSpaceOnUse" id="gradient0" spreadMethod="pad" x1="-819.2" x2="819.2">
      <stop offset="0.0" stop-color="#ffcc33"/>
      <stop offset="1.0" stop-color="#ffe9a4"/>
    </linearGradient>
  </defs>
</svg>
