<?xml version="1.0" encoding="UTF-8" standalone="no"?>
<svg xmlns:xlink="http://www.w3.org/1999/xlink" height="117.95px" width="850.3px" xmlns="http://www.w3.org/2000/svg">
  <g transform="matrix(1.0, 0.0, 0.0, 1.0, 18.55, 16.0)">
    <path d="M162.15 -1.25 L158.15 -1.45 156.4 1.6 162.15 -1.25 M81.2 -4.7 L80.9 -4.5 63.85 5.85 101.35 8.3 102.15 7.85 102.35 7.75 102.45 7.65 102.65 7.55 103.05 7.4 122.35 -3.15 82.15 -5.2 81.2 -4.7 M805.75 -10.65 L806.45 -10.65 807.8 -10.7 808.9 -10.75 811.3 -10.9 811.2 -10.6 831.7 -10.6 831.7 -10.55 831.75 -10.55 831.4 -10.2 Q831.1 -10.2 831.3 -10.05 L831.15 -9.9 823.1 0.65 823.0 0.65 821.95 1.95 821.8 2.1 821.7 2.4 823.85 4.4 Q822.8 7.05 822.8 12.6 822.8 13.05 823.7 14.9 L824.55 17.0 Q824.55 18.95 818.6 21.0 L805.5 24.8 Q797.35 27.15 792.7 29.6 L789.6 30.05 Q788.25 29.5 786.4 29.5 784.0 29.5 779.55 31.3 L766.85 32.65 764.8 32.9 763.75 33.0 763.4 33.5 Q763.25 33.55 763.4 33.7 L763.25 33.95 761.15 37.25 761.15 37.35 761.0 37.75 756.05 38.55 755.4 38.7 753.25 39.05 753.15 39.05 753.0 39.05 751.65 38.8 750.25 38.5 749.2 38.8 749.2 39.0 748.85 39.2 749.5 39.2 749.65 39.2 749.9 39.25 749.95 39.25 750.55 39.4 750.9 40.8 748.6 41.35 748.2 41.4 748.45 42.6 746.85 43.1 746.25 43.2 745.2 43.35 742.55 43.6 740.1 43.8 737.65 44.0 736.2 44.0 733.05 44.1 732.95 44.1 732.6 44.1 732.0 44.1 730.65 44.05 729.4 43.9 Q729.3 43.8 729.55 43.8 L729.2 43.0 727.9 43.2 Q710.85 45.95 694.55 46.45 L694.3 46.45 Q693.85 46.95 693.5 47.6 L693.3 47.65 693.25 47.95 681.8 49.85 674.1 47.45 678.05 42.15 678.15 42.0 678.65 41.4 676.05 41.75 675.75 42.1 675.65 42.1 672.0 42.65 669.6 42.7 669.15 42.7 666.8 45.2 664.0 45.65 661.0 45.75 660.05 45.8 658.45 45.8 647.8 45.5 644.65 45.3 638.3 44.9 633.65 44.45 630.05 44.0 616.65 48.05 630.2 52.4 Q628.55 52.9 627.15 53.5 L626.8 53.6 622.35 55.15 621.85 55.4 Q621.35 55.45 621.3 55.6 L619.75 56.15 603.75 52.0 587.45 56.9 587.35 56.9 574.2 52.05 574.15 52.0 586.75 47.5 585.4 47.2 577.6 45.1 517.8 39.1 521.9 40.2 521.95 40.2 523.9 40.75 523.85 40.75 525.15 41.15 529.1 42.25 529.05 42.3 529.65 42.45 507.5 47.4 504.5 48.15 501.4 48.75 501.35 48.8 498.9 49.35 496.5 49.2 496.3 49.2 489.55 48.6 490.8 51.15 486.05 52.3 485.2 52.5 484.5 52.65 484.6 52.85 485.15 54.5 Q484.95 54.55 485.05 54.7 L485.2 55.0 485.7 57.1 Q487.55 64.65 485.3 65.5 L480.7 66.45 480.05 66.8 Q476.3 68.05 464.05 68.3 451.85 68.4 449.4 67.15 L448.3 66.3 448.05 66.15 445.1 62.9 444.0 61.65 412.1 68.85 406.45 75.8 406.05 76.0 405.2 77.0 405.1 77.3 417.45 79.55 417.35 79.6 424.9 81.9 332.05 101.95 330.0 101.3 329.75 101.3 266.3 81.65 275.8 79.5 276.7 79.25 289.95 77.4 294.3 76.7 298.05 68.4 276.0 61.3 275.95 61.25 240.05 49.65 237.5 46.15 234.55 46.25 233.6 46.3 230.15 46.5 216.7 42.15 232.1 38.9 233.15 38.7 237.65 37.75 237.7 37.75 244.4 36.75 186.05 41.7 168.4 47.7 166.35 48.35 166.45 48.45 166.25 48.6 166.1 48.8 165.5 48.9 165.1 48.8 162.15 49.8 161.8 50.1 161.7 50.3 161.1 50.45 160.6 50.55 Q163.5 50.85 158.25 52.6 L162.85 52.5 Q170.6 50.9 172.15 51.25 174.0 51.45 163.05 54.35 L163.05 54.65 Q175.35 52.0 176.35 52.7 177.05 53.35 163.85 56.1 L162.8 56.25 162.7 56.4 164.7 56.05 Q178.85 53.8 178.9 55.0 178.9 56.2 165.5 58.1 L162.5 58.5 162.65 58.6 164.45 58.4 Q176.25 57.3 174.3 58.35 172.6 59.3 162.35 60.5 L159.3 85.1 140.2 86.2 138.0 86.3 136.9 86.35 134.9 86.45 134.55 86.45 133.55 86.5 132.35 86.6 130.35 86.75 129.15 86.8 128.0 86.85 123.95 87.05 122.35 87.2 120.6 87.3 120.5 88.2 120.55 88.25 120.3 88.4 118.85 88.9 118.7 88.95 117.3 89.25 117.0 89.25 116.95 89.25 116.8 89.3 116.0 89.45 115.25 89.55 115.2 89.55 114.6 89.55 114.0 89.6 113.85 89.6 113.3 89.6 111.4 89.65 111.1 89.65 110.45 89.55 110.4 89.6 110.1 89.45 Q109.75 89.45 109.85 89.35 L109.85 89.25 109.95 89.25 118.55 61.85 114.85 62.65 Q107.2 64.2 104.55 64.15 102.0 63.85 108.6 62.2 L115.75 60.65 102.85 61.8 94.0 61.35 89.45 60.65 88.55 61.7 81.95 62.3 75.35 62.95 -18.55 71.95 -7.3 59.95 -8.6 60.0 -10.3 60.2 -10.65 60.2 -11.65 59.9 Q-12.2 59.5 -11.7 58.9 L-10.6 57.8 -10.5 57.7 -9.9 57.5 -9.1 57.25 -8.6 57.15 -8.55 57.15 107.65 47.4 Q107.55 46.85 108.45 46.3 110.7 44.4 115.95 43.15 L120.65 42.35 122.3 39.1 87.8 40.55 93.7 20.25 72.4 21.05 68.2 21.2 64.0 21.35 59.15 22.65 50.85 22.8 51.05 22.75 50.7 22.8 48.5 16.15 Q48.15 16.05 48.35 15.85 L48.15 15.25 47.45 15.4 38.45 16.8 38.25 16.8 37.95 16.8 37.65 16.8 37.55 16.75 37.1 16.7 Q36.6 16.65 36.85 16.5 36.55 16.4 36.75 16.35 36.6 16.3 36.85 16.1 36.85 15.95 37.3 15.95 37.0 15.85 37.4 15.8 38.9 14.85 47.3 12.8 L45.95 9.75 45.2 8.9 44.45 8.45 39.6 8.75 34.85 8.6 30.9 8.3 30.95 8.25 31.1 8.2 31.25 8.1 33.3 7.3 35.5 6.4 36.05 6.1 38.1 5.25 38.3 5.15 38.95 4.8 39.95 4.55 Q42.15 3.7 43.95 3.35 L44.25 3.3 44.65 3.25 44.85 3.2 45.7 3.1 48.65 2.85 49.05 2.8 49.05 2.75 49.25 2.8 49.85 2.8 50.5 2.85 51.15 2.9 51.45 2.9 52.25 2.9 52.45 3.0 54.1 3.05 69.15 -5.8 55.95 -6.45 77.5 -16.0 210.6 -10.1 208.7 -6.95 211.25 -7.6 211.55 -7.7 213.35 -9.05 231.65 -8.75 228.15 -6.45 233.5 -3.6 242.95 -8.95 251.85 -8.85 238.05 -1.15 246.45 3.25 279.4 -4.05 286.8 -7.05 296.35 -6.6 288.0 -3.4 293.25 -3.8 295.95 -4.1 297.05 -4.2 298.8 -4.35 299.4 -4.4 301.25 -4.55 301.6 -4.55 301.95 -4.6 307.0 -4.95 308.45 -5.45 311.2 -5.25 316.85 -5.65 316.15 -4.85 322.65 -4.35 312.9 -1.1 305.2 7.95 319.6 7.95 327.65 -1.9 327.95 -1.95 333.3 -2.65 333.45 -2.75 334.05 -2.85 335.05 -2.95 344.95 -4.2 345.5 -4.25 347.55 -4.5 349.25 -4.7 351.75 -4.95 359.4 -5.6 349.15 8.0 440.65 8.05 448.0 -5.6 453.15 -5.05 455.35 -4.8 456.25 -4.7 470.7 -2.6 471.3 -2.6 471.35 -2.55 471.4 -2.55 471.6 -2.5 471.75 -2.45 471.9 -2.4 472.1 -2.35 472.3 -2.35 472.35 -2.35 472.75 -2.3 472.75 -2.25 473.3 -2.2 473.35 -2.15 474.05 -2.05 474.35 -2.0 474.45 -1.95 474.75 -1.85 475.0 -1.85 474.15 -0.1 487.8 -0.25 490.15 -5.6 490.25 -5.6 503.8 -4.55 504.1 -4.5 504.45 -4.5 509.5 -4.05 509.7 -4.05 510.2 -3.95 510.45 -3.95 514.55 -3.5 515.45 -3.4 518.75 -3.1 526.5 -2.05 527.1 -2.0 527.4 -2.0 527.55 -1.95 527.75 -1.9 528.05 -1.9 528.1 -1.9 528.25 -1.85 527.55 -0.75 527.45 -0.5 604.45 -1.35 606.3 -3.55 606.5 -3.65 607.15 -4.35 607.15 -4.5 608.7 -6.35 609.05 -6.7 631.45 -6.85 635.45 -6.85 636.6 -6.85 637.55 -6.85 637.6 -7.0 637.7 -7.25 637.85 -7.35 638.35 -8.1 638.6 -8.45 639.75 -10.35 640.05 -10.65 805.75 -10.65 M168.9 -0.95 L153.2 6.55 152.9 7.3 153.65 7.25 153.75 7.25 154.05 7.25 164.7 4.5 169.25 -0.9 168.9 -0.95 M244.35 14.5 L244.6 14.35 242.9 14.35 239.4 15.7 244.4 14.75 244.3 14.65 244.4 14.55 244.35 14.5 M249.35 4.8 L252.8 6.7 267.55 0.75 249.35 4.8 M244.1 10.1 L244.3 10.1 238.85 7.15 224.0 10.45 240.8 10.55 240.1 10.35 241.1 10.15 242.6 10.05 244.1 10.1 M264.05 10.2 L264.8 9.9 266.9 9.2 270.7 3.45 256.95 8.85 259.25 10.1 259.75 10.05 259.9 10.05 Q261.15 10.05 261.8 11.05 L264.05 10.2 M226.55 0.45 L221.65 -2.2 207.0 7.45 209.9 9.45 210.95 9.4 211.05 9.4 226.55 0.45 M197.25 0.5 L196.7 0.85 198.25 1.8 199.8 0.6 197.25 0.5 M178.9 -0.45 L177.5 1.1 182.7 -0.25 178.9 -0.45 M142.45 0.9 L143.95 -2.05 138.35 -2.35 119.05 8.45 120.2 8.6 120.4 8.65 120.9 8.7 121.65 8.95 122.2 9.05 123.35 9.6 123.4 9.6 123.7 9.55 124.3 9.35 124.85 9.2 124.95 9.2 126.55 8.8 129.85 8.5 129.95 8.45 130.0 8.45 131.95 7.3 Q132.05 7.05 132.4 6.95 L133.35 6.4 134.05 5.95 142.45 0.9 M261.35 16.6 L261.3 16.55 260.8 16.45 259.65 16.9 259.35 17.0 Q258.4 17.7 257.85 17.6 L257.85 17.55 257.65 17.5 235.25 25.1 254.8 23.35 250.55 33.6 250.7 33.55 251.75 31.85 261.95 16.75 261.35 16.6 M220.3 8.8 L221.1 8.8 236.0 5.55 230.8 2.85 220.2 8.8 220.3 8.8 M233.35 14.35 L232.9 14.35 224.55 14.3 211.9 14.25 209.0 21.85 221.4 19.35 233.9 14.35 233.35 14.35 M210.35 23.8 L208.0 24.3 207.7 24.9 210.35 23.8 M203.8 22.85 L206.35 16.55 189.95 25.6 203.8 22.85 M198.65 14.15 L198.65 14.25 198.95 14.15 198.65 14.15 M196.25 14.65 L196.1 14.65 195.45 15.1 196.7 14.75 196.45 14.65 196.25 14.65 M242.9 17.25 L243.0 17.2 227.6 20.3 215.95 24.95 233.2 21.05 243.3 17.45 243.0 17.45 Q242.7 17.35 242.9 17.25 M194.05 4.8 L192.4 3.8 183.55 9.7 187.05 9.75 194.05 4.8 M189.7 29.3 L184.95 29.15 Q184.25 29.35 183.4 29.7 L182.2 29.9 182.1 29.95 189.7 29.3 M191.05 27.7 L189.95 27.9 195.95 28.1 Q196.25 27.7 197.75 27.45 L202.1 26.95 202.85 25.35 191.45 27.65 191.05 27.7 M179.4 15.3 L173.15 15.3 172.85 15.3 172.85 15.15 172.2 14.9 171.8 14.6 168.95 14.05 167.95 14.0 165.85 14.3 165.05 14.45 157.3 22.65 158.6 24.45 170.95 21.25 179.4 15.3 M172.85 9.45 L181.45 3.8 172.85 6.1 170.3 8.8 171.8 9.0 Q172.5 9.05 172.4 9.4 L172.15 9.45 172.85 9.45 M176.35 27.85 L180.3 27.1 201.2 15.05 191.75 17.5 176.95 27.2 176.45 27.5 176.35 27.6 176.0 27.85 176.35 27.85 M98.1 50.05 L97.6 50.7 Q100.05 51.3 101.8 54.15 L103.2 58.6 103.0 54.1 Q103.45 49.5 107.2 49.35 L108.45 49.4 108.45 49.35 108.1 49.15 98.1 50.05 M158.4 44.05 L156.7 44.15 151.95 46.85 153.3 46.8 157.8 45.05 158.4 44.05 M151.25 32.9 L151.2 32.85 151.25 32.8 Q151.25 32.65 151.65 32.6 L149.7 32.55 148.8 34.35 151.6 32.9 151.25 32.9 M152.2 30.15 L152.25 30.1 152.2 30.05 152.3 30.0 153.3 29.7 153.0 29.2 151.9 29.5 Q151.55 29.35 151.55 29.2 L151.15 30.05 152.2 30.15 M138.6 42.7 L140.3 43.2 140.85 42.8 142.5 40.05 139.8 41.4 138.6 42.7 M131.0 41.9 L132.1 41.9 138.6 34.55 133.4 38.05 131.0 41.9 M144.5 36.6 L144.55 36.45 144.25 36.6 144.5 36.6 M147.0 38.5 L147.3 38.2 150.55 35.9 146.7 37.85 146.0 39.15 147.0 38.5 M137.4 31.95 L137.6 32.0 137.55 32.05 Q137.25 32.05 137.35 32.15 L137.05 32.2 135.8 34.25 138.95 32.0 137.4 31.95 M140.2 27.7 Q140.2 27.45 140.75 27.05 140.75 26.8 141.9 26.65 L143.1 26.45 142.55 23.5 139.8 27.75 140.2 27.7 M142.55 29.7 L142.75 29.6 142.4 29.35 141.8 28.95 139.4 29.0 139.6 29.1 Q140.4 29.2 140.7 29.4 L140.8 29.4 140.95 29.45 141.85 29.65 142.55 29.7 M143.2 27.2 L143.2 27.05 Q142.25 27.15 142.1 27.4 L141.4 27.7 142.25 27.65 Q142.45 27.4 143.2 27.2 M146.35 18.7 L147.6 24.0 148.85 22.65 146.35 18.7 M167.75 23.6 L159.45 25.75 160.6 27.6 162.05 27.6 167.75 23.6 M154.25 16.4 L153.6 16.5 153.75 16.9 154.25 16.4 M211.8 27.25 L216.7 26.8 222.05 24.95 211.8 27.25 M200.3 27.85 L198.55 28.15 199.45 28.15 200.3 27.85 M109.35 49.8 Q110.2 50.6 109.0 53.2 L106.05 57.35 110.35 52.9 Q111.6 51.45 113.15 50.6 L109.35 49.8 M94.35 54.55 L93.35 55.9 Q94.85 56.25 96.95 57.3 L101.1 59.85 95.4 55.55 94.35 54.55 M112.85 57.05 L113.25 56.35 111.85 57.7 112.85 57.05 M91.55 58.2 L90.25 59.55 92.75 59.65 96.9 60.1 91.6 58.25 91.55 58.2 M794.45 16.0 L793.1 11.7 788.3 17.4 791.45 17.1 794.45 16.0 M751.0 46.55 L751.15 46.55 751.45 46.55 750.9 46.75 750.95 46.6 751.0 46.55" fill="url(#gradient0)" fill-rule="evenodd" stroke="none"/>
  </g>
  <defs>
    <linearGradient gradientTransform="matrix(-0.0051, -0.0936, 0.1111, -0.0034, 521.6, 30.25)" gradientUnits="userSpaceOnUse" id="gradient0" spreadMethod="pad" x1="-819.2" x2="819.2">
      <stop offset="0.29411764705882354" stop-color="#000000" stop-opacity="0.0"/>
      <stop offset="0.7686274509803922" stop-color="#000000" stop-opacity="0.4"/>
    </linearGradient>
  </defs>
</svg>
