<?xml version="1.0" encoding="UTF-8" standalone="no"?>
<svg xmlns:xlink="http://www.w3.org/1999/xlink" height="143.7px" width="191.1px" xmlns="http://www.w3.org/2000/svg">
  <g transform="matrix(1.0, 0.0, 0.0, 1.0, 95.75, 46.95)">
    <path d="M95.15 -20.25 Q96.15 0.1 92.3 22.95 L92.2 23.6 91.6 26.9 Q88.65 42.45 83.75 56.4 78.7 70.8 73.55 78.5 68.95 86.2 48.85 91.15 L48.8 91.15 Q32.35 95.1 9.75 96.3 -12.25 97.45 -30.45 95.5 -51.1 93.2 -58.3 87.65 -66.05 82.1 -74.3 67.55 -79.75 57.95 -84.05 46.7 L-88.05 35.05 Q-94.85 12.9 -95.75 -6.85 -89.15 -15.25 -77.25 -23.0 -48.4 -41.8 -5.5 -45.95 37.45 -50.05 69.35 -37.05 86.55 -30.05 95.15 -20.25" fill="#00ff05" fill-rule="evenodd" stroke="none"/>
  </g>
</svg>
