<?xml version="1.0" encoding="UTF-8" standalone="no"?>
<svg xmlns:xlink="http://www.w3.org/1999/xlink" height="167.5px" width="122.0px" xmlns="http://www.w3.org/2000/svg">
  <g transform="matrix(1.0, 0.0, 0.0, 1.0, 61.0, 83.75)">
    <path d="M44.45 -81.45 L28.65 -81.45 10.3 -83.0 -19.5 -83.75 -44.85 -82.6 -53.65 -79.9 -56.95 -75.7 -59.55 -65.3 -59.15 -6.9 -61.0 54.15 -60.65 66.05 -58.45 73.35 -52.9 79.5 -16.9 83.75 4.05 82.6 40.75 82.6 51.05 80.3 57.3 77.6 61.0 67.6 61.0 -58.4 58.8 -69.95 56.2 -76.85 44.45 -81.45" fill="#e9b400" fill-rule="evenodd" stroke="none"/>
    <path d="M42.05 -78.4 L27.1 -78.4 9.75 -79.9 -18.35 -80.65 -42.3 -79.5 -50.6 -76.95 -53.75 -72.9 -56.15 -62.9 -55.8 -6.8 -57.55 51.95 -57.2 63.4 -55.1 70.4 -49.9 76.3 -15.9 80.35 3.85 79.25 38.55 79.25 48.3 77.05 54.2 74.45 57.65 64.85 57.65 -56.25 55.55 -67.35 53.15 -74.0 42.05 -78.4" fill="#ffe000" fill-rule="evenodd" stroke="none"/>
    <path d="M49.7 -62.4 L55.6 -67.05 57.7 -56.2 57.7 -55.15 51.65 -51.4 49.7 -62.4 M47.9 -66.95 L38.2 -71.25 42.05 -78.35 52.9 -74.05 47.9 -66.95 M22.65 -70.15 L22.65 -78.75 28.4 -78.4 22.65 -70.15 M-18.6 -71.55 L-38.7 -71.15 -41.75 -79.5 -18.3 -80.65 -16.85 -80.55 -18.6 -71.55 M49.55 57.0 L57.7 46.25 57.7 64.7 49.55 57.0" fill="#ffffff" fill-rule="evenodd" stroke="none"/>
    <path d="M-45.5 -69.9 L-47.3 -67.25 -53.9 -72.15 -53.7 -72.85 -50.6 -76.9 -49.95 -77.1 -45.5 -69.9 M-56.4 -62.4 L-48.85 -57.8 -48.15 -42.4 -56.0 -41.9 -56.15 -62.2 -56.4 -62.4 M-49.7 3.4 L-49.55 15.9 -56.35 10.9 -56.05 1.75 -49.7 3.4 M34.85 71.3 L47.5 66.15 54.4 73.9 54.2 74.45 48.3 77.1 38.6 79.25 37.65 79.25 34.85 71.3 M-50.5 57.4 L-49.1 61.4 -55.35 69.45 -57.15 63.45 -57.25 62.05 -50.5 57.4 M-12.75 70.85 L-4.85 71.7 -7.55 79.9 -16.15 80.35 -12.75 70.85 M-44.55 68.1 L-29.95 71.7 -36.4 77.95 -49.9 76.35 -50.35 75.8 -44.55 68.1" fill="#faff98" fill-rule="evenodd" stroke="none"/>
    <path d="M38.35 -72.7 L24.75 -72.7 8.9 -74.1 -16.8 -74.75 -38.65 -73.75 -46.3 -71.35 -49.15 -67.6 -51.35 -58.3 -51.05 -6.2 -52.6 48.3 -52.3 58.9 -50.4 65.4 -45.65 70.9 -14.55 74.7 3.5 73.65 35.2 73.65 44.1 71.6 49.45 69.2 52.65 60.3 52.65 -52.15 50.75 -62.45 48.5 -68.6 38.35 -72.7" fill="#bdad89" fill-rule="evenodd" stroke="none"/>
    <path d="M-45.95 16.8 L-45.95 -15.8 -39.15 -15.8 -39.15 -23.05 -45.95 -23.05 -45.95 -30.55 -39.15 -30.55 -39.15 -37.75 -45.95 -37.75 -45.95 -45.1 -39.15 -45.1 -39.15 -52.3 -45.95 -52.3 -45.95 -59.8 -39.15 -59.8 -39.15 -67.05 -32.05 -67.05 -32.05 -59.8 -24.95 -59.8 -24.95 -67.05 -17.75 -67.05 -17.75 -59.8 -10.55 -59.8 -10.55 -67.05 -3.6 -67.05 -3.6 -59.8 3.35 -59.8 3.35 -67.05 10.3 -67.05 10.3 -59.8 17.65 -59.8 17.65 -67.05 24.6 -67.05 24.6 -59.8 32.2 -59.8 32.2 -67.05 39.3 -67.05 39.3 -59.8 46.5 -59.8 46.5 -52.3 39.3 -52.3 39.3 -45.1 46.5 -45.1 46.5 -37.75 39.3 -37.75 39.3 -30.55 46.5 -30.55 46.5 -23.05 39.3 -23.05 39.3 -15.8 46.5 -15.8 46.5 16.8 39.3 16.8 39.3 24.0 46.5 24.0 46.5 31.5 39.3 31.5 39.3 38.75 46.5 38.75 46.5 46.1 39.3 46.1 39.3 53.3 46.5 53.3 46.5 60.8 39.3 60.8 39.3 68.0 32.2 68.0 32.2 60.8 24.6 60.8 24.6 68.0 17.65 68.0 17.65 60.8 10.3 60.8 10.3 68.0 3.35 68.0 3.35 60.8 -3.6 60.8 -3.6 68.0 -10.55 68.0 -10.55 60.8 -17.75 60.8 -17.75 68.0 -24.95 68.0 -24.95 60.8 -32.05 60.8 -32.05 68.0 -39.15 68.0 -39.15 60.8 -45.95 60.8 -45.95 53.3 -39.15 53.3 -39.15 46.1 -45.95 46.1 -45.95 38.75 -39.15 38.75 -39.15 31.5 -45.95 31.5 -45.95 24.0 -39.15 24.0 -39.15 16.8 -45.95 16.8 Z" fill="none" stroke="#5a5029" stroke-linecap="round" stroke-linejoin="round" stroke-width="2.0"/>
    <path d="M23.95 41.5 Q21.6 46.0 19.65 47.65 17.95 49.05 12.4 50.0 L0.95 50.4 -10.7 50.0 Q-16.35 49.05 -17.95 47.65 -20.0 46.0 -22.25 41.5 L-23.1 39.85 24.8 39.85 23.95 41.5" fill="#799e49" fill-rule="evenodd" stroke="none"/>
    <path d="M23.95 41.5 Q21.6 46.0 19.65 47.65 17.95 49.05 12.4 50.0 L0.95 50.4 -10.7 50.0 Q-16.35 49.05 -17.95 47.65 -20.0 46.0 -22.25 41.5 L-23.1 39.85 24.8 39.85 23.95 41.5 Z" fill="none" stroke="#385123" stroke-linecap="round" stroke-linejoin="round" stroke-width="4.0"/>
    <path d="M-27.35 -4.3 L-27.15 -4.2 Q-27.9 -8.7 -27.6 -12.9 -27.05 -20.25 -23.6 -26.1 -20.1 -31.9 -12.95 -34.85 -10.6 -35.9 -7.95 -36.4 -14.3 -39.25 -13.75 -51.95 L-5.3 -52.65 Q-8.35 -42.85 -6.8 -36.9 -7.65 -42.75 1.65 -47.75 L5.75 -42.05 Q-2.3 -40.2 -5.8 -36.8 L0.85 -37.35 Q8.6 -37.35 14.65 -34.85 21.7 -31.9 25.3 -26.1 28.75 -20.25 29.3 -12.9 29.6 -8.9 28.95 -4.6 31.95 -5.85 34.7 -3.9 38.15 -1.55 36.85 2.65 35.7 5.95 32.85 8.4 30.9 10.0 27.35 9.8 L25.0 9.5 24.9 9.5 24.8 9.7 -23.1 9.7 -23.3 9.3 -24.2 9.5 -26.55 9.8 Q-30.15 10.0 -32.1 8.4 -34.95 5.95 -36.05 2.65 -37.4 -1.55 -33.9 -3.9 -30.75 -6.05 -27.35 -4.3" fill="#9e8b49" fill-rule="evenodd" stroke="none"/>
    <path d="M-27.35 -4.3 Q-30.75 -6.05 -33.9 -3.9 -37.4 -1.55 -36.05 2.65 -34.95 5.95 -32.1 8.4 -30.15 10.0 -26.55 9.8 L-24.2 9.5 -23.3 9.3 -23.1 9.7 24.8 9.7 24.9 9.5 25.0 9.5 27.35 9.8 Q30.9 10.0 32.85 8.4 35.7 5.95 36.85 2.65 38.15 -1.55 34.7 -3.9 31.95 -5.85 28.95 -4.6 29.6 -8.9 29.3 -12.9 28.75 -20.25 25.3 -26.1 21.7 -31.9 14.65 -34.85 8.6 -37.35 0.85 -37.35 L-5.8 -36.8 Q-2.3 -40.2 5.75 -42.05 L1.65 -47.75 Q-7.65 -42.75 -6.8 -36.9 -8.35 -42.85 -5.3 -52.65 L-13.75 -51.95 Q-14.3 -39.25 -7.95 -36.4 -10.6 -35.9 -12.95 -34.85 -20.1 -31.9 -23.6 -26.1 -27.05 -20.25 -27.6 -12.9 -27.9 -8.7 -27.15 -4.2 L-27.35 -4.3 Z" fill="none" stroke="#385123" stroke-linecap="round" stroke-linejoin="round" stroke-width="4.0"/>
    <path d="M23.95 41.5 Q21.6 46.0 19.65 47.65 17.95 49.05 12.4 50.0 L0.95 50.4 -10.7 50.0 Q-16.35 49.05 -17.95 47.65 -20.0 46.0 -22.25 41.5 L-23.1 39.85 24.8 39.85 23.95 41.5" fill="#799e49" fill-rule="evenodd" stroke="none"/>
    <path d="M14.05 45.6 L-12.35 45.6 -10.0 39.85 11.7 39.85 14.05 45.6" fill="#e05f3b" fill-rule="evenodd" stroke="none"/>
    <path d="M6.35 45.5 L1.45 45.5 1.45 39.85 6.35 39.85 6.35 45.5 M10.35 45.3 L6.9 45.5 7.8 45.4 7.8 39.85 9.65 39.85 Q10.35 42.2 10.35 45.1 L10.35 45.3 M-8.85 45.3 L-8.85 45.1 Q-8.85 42.2 -8.15 39.85 L-6.2 39.85 -6.2 45.4 -8.85 45.3 M0.05 45.5 L-4.8 45.5 -4.8 39.85 0.05 39.85 0.05 45.5" fill="#e2dbcc" fill-rule="evenodd" stroke="none"/>
    <path d="M-25.4 -2.8 L-27.35 -4.25 Q-30.8 -6.0 -34.05 -3.85 -37.45 -1.55 -36.1 2.65 -35.0 6.0 -32.05 8.45 -30.2 10.0 -26.6 9.8 L-24.3 9.55 -23.35 9.35 -24.6 -2.05 -25.4 -2.8" fill="#799e49" fill-rule="evenodd" stroke="none"/>
    <path d="M-25.25 0.45 Q-27.7 -0.8 -30.05 0.75 -32.5 2.4 -31.5 5.45 -30.75 7.85 -28.6 9.65 L-28.5 9.75 -26.55 9.8 -24.25 9.5 -23.3 9.3 -24.25 1.15 -25.25 0.45" fill="#e05f3b" fill-rule="evenodd" stroke="none"/>
    <path d="M28.05 -4.25 Q31.5 -6.0 34.75 -3.85 38.15 -1.55 36.8 2.65 35.7 6.0 32.75 8.45 30.9 10.0 27.3 9.8 L25.0 9.55 24.05 9.35 25.3 -2.05 26.1 -2.8 28.05 -4.25" fill="#799e49" fill-rule="evenodd" stroke="none"/>
    <path d="M25.95 0.45 Q28.4 -0.8 30.75 0.75 33.2 2.4 32.2 5.45 31.45 7.85 29.3 9.65 L29.2 9.75 27.25 9.8 24.95 9.5 24.0 9.3 24.95 1.15 25.95 0.45" fill="#e05f3b" fill-rule="evenodd" stroke="none"/>
    <path d="M-13.8 -51.95 L-5.3 -52.6 Q-8.7 -41.9 -6.55 -35.95 -14.4 -37.9 -13.8 -51.95" fill="#799e49" fill-rule="evenodd" stroke="none"/>
    <path d="M1.65 -47.8 L5.65 -42.05 Q-3.3 -39.95 -6.6 -35.95 -8.55 -42.3 1.65 -47.8" fill="#799e49" fill-rule="evenodd" stroke="none"/>
    <path d="M29.3 -12.9 Q29.7 -6.55 27.95 0.4 26.7 5.3 24.8 9.7 L-23.1 9.7 Q-25.1 5.3 -26.35 0.4 -28.0 -6.55 -27.6 -12.9 -27.05 -20.25 -23.6 -26.1 -20.1 -31.9 -12.95 -34.85 -7.0 -37.35 0.85 -37.35 8.6 -37.35 14.65 -34.85 21.7 -31.9 25.3 -26.1 28.75 -20.25 29.3 -12.9" fill="#799e49" fill-rule="evenodd" stroke="none"/>
    <path d="M21.4 -24.35 L28.05 -19.75 Q29.05 -16.45 29.3 -12.9 29.7 -6.55 27.95 0.4 L27.05 3.8 Q21.0 7.05 14.95 5.95 L9.15 3.6 11.7 9.7 -10.0 9.7 -7.45 3.6 -13.25 5.95 Q-19.4 7.05 -25.45 3.7 L-26.35 0.4 Q-28.0 -6.55 -27.6 -12.9 -27.35 -16.45 -26.35 -19.75 L-19.7 -24.35 Q-11.85 -29.25 -4.45 -22.5 -1.3 -19.45 0.85 -15.75 3.0 -19.45 6.15 -22.5 13.55 -29.25 21.4 -24.35" fill="#e05f3b" fill-rule="evenodd" stroke="none"/>
    <path d="M-24.3 -7.0 L-7.65 -7.0 -7.65 -3.7 -24.3 -3.7 -24.3 -7.0" fill="#3a5616" fill-rule="evenodd" stroke="none"/>
    <path d="M8.75 -7.0 L25.4 -7.0 25.4 -3.7 8.75 -3.7 8.75 -7.0" fill="#3a5616" fill-rule="evenodd" stroke="none"/>
    <path d="M1.45 1.45 Q4.2 1.65 6.35 4.0 L6.35 9.7 1.45 9.7 1.45 1.45 M7.8 5.85 Q9.05 7.55 9.65 9.7 L7.8 9.7 7.8 5.85 M-6.2 9.7 L-8.15 9.7 Q-7.45 7.45 -6.2 5.6 L-6.2 9.7 M-4.8 3.8 Q-2.65 1.65 0.05 1.45 L0.05 9.7 -4.8 9.7 -4.8 3.8" fill="#e2dbcc" fill-rule="evenodd" stroke="none"/>
    <path d="M12.35 29.4 L12.25 30.9 Q12.0 32.0 11.2 32.0 9.75 32.0 9.75 31.1 L10.1 29.75 9.95 28.65 9.75 27.4 9.5 24.65 9.45 24.4 5.85 24.4 Q4.9 24.4 4.4 24.0 4.1 23.55 4.1 23.05 L4.1 22.65 Q4.25 22.25 4.85 22.0 6.15 21.2 9.25 21.15 L9.35 17.45 Q9.35 16.7 9.75 16.15 10.2 15.4 11.0 16.15 11.45 17.4 11.45 18.9 L11.5 21.15 12.6 21.2 14.45 21.15 16.95 21.4 17.3 21.9 17.45 22.55 17.45 23.4 Q17.3 23.75 16.45 23.9 L11.85 24.3 12.35 29.4 M36.15 28.75 L36.25 29.75 Q36.25 30.4 35.9 30.85 35.05 32.1 31.5 32.1 L29.3 31.6 Q27.65 31.0 24.95 31.1 L23.05 31.15 20.1 31.1 Q19.35 30.15 19.35 29.5 19.35 27.8 22.7 22.55 L22.8 22.5 22.85 22.5 23.2 21.8 25.15 18.45 26.3 17.05 26.45 16.45 26.8 15.9 Q26.9 14.65 27.7 15.05 28.3 14.7 29.05 14.65 L29.15 14.8 29.2 15.3 29.05 16.05 30.7 17.95 Q32.3 20.05 33.5 22.3 34.55 24.3 34.65 25.3 36.15 27.9 36.15 28.75 M-19.9 18.15 L-19.95 21.55 -20.15 26.4 -20.3 28.4 -20.55 30.65 -20.4 32.6 Q-20.45 34.35 -21.9 34.35 L-23.55 34.0 -25.15 33.65 -28.55 33.65 -34.15 33.6 -34.9 33.25 -35.15 33.0 -35.35 32.4 -35.35 32.35 -35.35 31.35 -34.65 25.4 -33.75 20.4 -33.75 19.95 -34.9 20.05 -35.0 19.9 -35.1 19.3 Q-35.1 18.15 -33.9 17.45 -31.65 16.15 -24.9 16.3 L-21.15 16.15 Q-19.9 16.2 -19.9 18.15 M-27.25 31.15 L-22.9 31.65 -22.95 25.55 -23.05 20.3 -28.05 26.15 -31.0 30.25 -31.55 30.9 -27.25 31.15 M-25.75 19.65 L-31.75 20.05 -32.4 24.4 -33.0 28.8 -32.5 28.05 -29.3 24.0 -27.5 22.0 -25.25 19.8 -25.05 19.65 -25.75 19.65 M26.55 28.5 Q30.4 28.75 32.05 29.3 L33.5 29.3 31.0 24.5 Q29.4 21.75 27.8 20.2 L27.45 20.95 Q25.65 25.75 23.8 26.25 L23.45 27.0 22.8 28.25 26.55 28.5 M-5.85 25.3 L-5.95 27.05 Q-6.35 28.3 -7.95 28.25 L-8.6 28.05 Q-9.35 27.9 -9.7 26.65 L-9.95 25.0 Q-9.95 23.25 -9.3 22.5 -8.7 21.9 -7.85 22.15 -7.1 22.4 -6.45 23.3 -5.85 24.3 -5.85 25.3 M0.35 25.9 L-0.1 27.55 Q-0.5 29.0 -1.35 30.25 -3.7 34.0 -7.7 34.0 -12.1 34.0 -13.85 32.6 L-14.8 31.5 -15.1 30.65 -16.2 27.3 Q-16.2 23.3 -15.45 20.9 -14.1 16.4 -10.3 16.05 -3.5 15.55 -1.1 19.65 0.35 21.9 0.35 25.9 M-9.55 18.65 L-11.1 18.9 -12.55 20.65 Q-13.45 22.05 -13.45 22.55 L-13.55 24.15 Q-13.55 25.75 -13.2 26.9 -12.2 30.65 -7.75 30.65 -4.5 30.65 -3.2 27.55 L-2.7 25.4 -2.6 24.4 Q-2.6 22.55 -3.95 20.8 -5.95 18.4 -9.55 18.65" fill="#5a5029" fill-rule="evenodd" stroke="none"/>
    <path d="M12.35 29.4 L12.25 30.9 Q12.0 32.0 11.2 32.0 9.75 32.0 9.75 31.1 L10.1 29.75 9.95 28.65 9.75 27.4 9.5 24.65 9.45 24.4 5.85 24.4 Q4.9 24.4 4.4 24.0 4.1 23.55 4.1 23.05 L4.1 22.65 Q4.25 22.25 4.85 22.0 6.15 21.2 9.25 21.15 L9.35 17.45 Q9.35 16.7 9.75 16.15 10.2 15.4 11.0 16.15 11.45 17.4 11.45 18.9 L11.5 21.15 12.6 21.2 14.45 21.15 16.95 21.4 17.3 21.9 17.45 22.55 17.45 23.4 Q17.3 23.75 16.45 23.9 L11.85 24.3 12.35 29.4 M36.15 28.75 L36.25 29.75 Q36.25 30.4 35.9 30.85 35.05 32.1 31.5 32.1 L29.3 31.6 Q27.65 31.0 24.95 31.1 L23.05 31.15 20.1 31.1 Q19.35 30.15 19.35 29.5 19.35 27.8 22.7 22.55 L22.8 22.5 22.85 22.5 23.2 21.8 25.15 18.45 26.3 17.05 26.45 16.45 26.8 15.9 Q26.9 14.65 27.7 15.05 28.3 14.7 29.05 14.65 L29.15 14.8 29.2 15.3 29.05 16.05 30.7 17.95 Q32.3 20.05 33.5 22.3 34.55 24.3 34.65 25.3 36.15 27.9 36.15 28.75 M-19.9 18.15 L-19.95 21.55 -20.15 26.4 -20.3 28.4 -20.55 30.65 -20.4 32.6 Q-20.45 34.35 -21.9 34.35 L-23.55 34.0 -25.15 33.65 -28.55 33.65 -34.15 33.6 -34.9 33.25 -35.15 33.0 -35.35 32.4 -35.35 32.35 -35.35 31.35 -34.65 25.4 -33.75 20.4 -33.75 19.95 -34.9 20.05 -35.0 19.9 -35.1 19.3 Q-35.1 18.15 -33.9 17.45 -31.65 16.15 -24.9 16.3 L-21.15 16.15 Q-19.9 16.2 -19.9 18.15 M-27.25 31.15 L-22.9 31.65 -22.95 25.55 -23.05 20.3 -28.05 26.15 -31.0 30.25 -31.55 30.9 -27.25 31.15 M-25.75 19.65 L-31.75 20.05 -32.4 24.4 -33.0 28.8 -32.5 28.05 -29.3 24.0 -27.5 22.0 -25.25 19.8 -25.05 19.65 -25.75 19.65 M26.55 28.5 Q30.4 28.75 32.05 29.3 L33.5 29.3 31.0 24.5 Q29.4 21.75 27.8 20.2 L27.45 20.95 Q25.65 25.75 23.8 26.25 L23.45 27.0 22.8 28.25 26.55 28.5 M-5.85 25.3 L-5.95 27.05 Q-6.35 28.3 -7.95 28.25 L-8.6 28.05 Q-9.35 27.9 -9.7 26.65 L-9.95 25.0 Q-9.95 23.25 -9.3 22.5 -8.7 21.9 -7.85 22.15 -7.1 22.4 -6.45 23.3 -5.85 24.3 -5.85 25.3 M0.35 25.9 L-0.1 27.55 Q-0.5 29.0 -1.35 30.25 -3.7 34.0 -7.7 34.0 -12.1 34.0 -13.85 32.6 L-14.8 31.5 -15.1 30.65 -16.2 27.3 Q-16.2 23.3 -15.45 20.9 -14.1 16.4 -10.3 16.05 -3.5 15.55 -1.1 19.65 0.35 21.9 0.35 25.9 M-9.55 18.65 L-11.1 18.9 -12.55 20.65 Q-13.45 22.05 -13.45 22.55 L-13.55 24.15 Q-13.55 25.75 -13.2 26.9 -12.2 30.65 -7.75 30.65 -4.5 30.65 -3.2 27.55 L-2.7 25.4 -2.6 24.4 Q-2.6 22.55 -3.95 20.8 -5.95 18.4 -9.55 18.65" fill="none" stroke="#9e8b49" stroke-linecap="round" stroke-linejoin="round" stroke-width="2.0"/>
    <path d="M12.35 29.4 L12.25 30.9 Q12.0 32.0 11.2 32.0 9.75 32.0 9.75 31.1 L10.1 29.75 9.95 28.65 9.75 27.4 9.5 24.65 9.45 24.4 5.85 24.4 Q4.9 24.4 4.4 24.0 4.1 23.55 4.1 23.05 L4.1 22.65 Q4.25 22.25 4.85 22.0 6.15 21.2 9.25 21.15 L9.35 17.45 Q9.35 16.7 9.75 16.15 10.2 15.4 11.0 16.15 11.45 17.4 11.45 18.9 L11.5 21.15 12.6 21.2 14.45 21.15 16.95 21.4 17.3 21.9 17.45 22.55 17.45 23.4 Q17.3 23.75 16.45 23.9 L11.85 24.3 12.35 29.4 M36.15 28.75 L36.25 29.75 Q36.25 30.4 35.9 30.85 35.05 32.1 31.5 32.1 L29.3 31.6 Q27.65 31.0 24.95 31.1 L23.05 31.15 20.1 31.1 Q19.35 30.15 19.35 29.5 19.35 27.8 22.7 22.55 L22.8 22.5 22.85 22.5 23.2 21.8 25.15 18.45 26.3 17.05 26.45 16.45 26.8 15.9 Q26.9 14.65 27.7 15.05 28.3 14.7 29.05 14.65 L29.15 14.8 29.2 15.3 29.05 16.05 30.7 17.95 Q32.3 20.05 33.5 22.3 34.55 24.3 34.65 25.3 36.15 27.9 36.15 28.75 M-19.9 18.15 L-19.95 21.55 -20.15 26.4 -20.3 28.4 -20.55 30.65 -20.4 32.6 Q-20.45 34.35 -21.9 34.35 L-23.55 34.0 -25.15 33.65 -28.55 33.65 -34.15 33.6 -34.9 33.25 -35.15 33.0 -35.35 32.4 -35.35 32.35 -35.35 31.35 -34.65 25.4 -33.75 20.4 -33.75 19.95 -34.9 20.05 -35.0 19.9 -35.1 19.3 Q-35.1 18.15 -33.9 17.45 -31.65 16.15 -24.9 16.3 L-21.15 16.15 Q-19.9 16.2 -19.9 18.15 M-27.25 31.15 L-22.9 31.65 -22.95 25.55 -23.05 20.3 -28.05 26.15 -31.0 30.25 -31.55 30.9 -27.25 31.15 M-25.75 19.65 L-31.75 20.05 -32.4 24.4 -33.0 28.8 -32.5 28.05 -29.3 24.0 -27.5 22.0 -25.25 19.8 -25.05 19.65 -25.75 19.65 M26.55 28.5 Q30.4 28.75 32.05 29.3 L33.5 29.3 31.0 24.5 Q29.4 21.75 27.8 20.2 L27.45 20.95 Q25.65 25.75 23.8 26.25 L23.45 27.0 22.8 28.25 26.55 28.5 M-5.85 25.3 L-5.95 27.05 Q-6.35 28.3 -7.95 28.25 L-8.6 28.05 Q-9.35 27.9 -9.7 26.65 L-9.95 25.0 Q-9.95 23.25 -9.3 22.5 -8.7 21.9 -7.85 22.15 -7.1 22.4 -6.45 23.3 -5.85 24.3 -5.85 25.3 M-9.55 18.65 L-11.1 18.9 -12.55 20.65 Q-13.45 22.05 -13.45 22.55 L-13.55 24.15 Q-13.55 25.75 -13.2 26.9 -12.2 30.65 -7.75 30.65 -4.5 30.65 -3.2 27.55 L-2.7 25.4 -2.6 24.4 Q-2.6 22.55 -3.95 20.8 -5.95 18.4 -9.55 18.65 M0.35 25.9 L-0.1 27.55 Q-0.5 29.0 -1.35 30.25 -3.7 34.0 -7.7 34.0 -12.1 34.0 -13.85 32.6 L-14.8 31.5 -15.1 30.65 -16.2 27.3 Q-16.2 23.3 -15.45 20.9 -14.1 16.4 -10.3 16.05 -3.5 15.55 -1.1 19.65 0.35 21.9 0.35 25.9" fill="#5a5029" fill-rule="evenodd" stroke="none"/>
  </g>
</svg>
