<?xml version="1.0" encoding="UTF-8" standalone="no"?>
<svg xmlns:xlink="http://www.w3.org/1999/xlink" height="137.05px" width="94.45px" xmlns="http://www.w3.org/2000/svg">
  <g transform="matrix(1.0, 0.0, 0.0, 1.0, 46.95, 68.05)">
    <path d="M-45.95 16.8 L-45.95 -15.8 -39.15 -15.8 -39.15 -23.05 -45.95 -23.05 -45.95 -30.55 -39.15 -30.55 -39.15 -37.75 -45.95 -37.75 -45.95 -45.1 -39.15 -45.1 -39.15 -52.3 -45.95 -52.3 -45.95 -59.8 -39.15 -59.8 -39.15 -67.05 -32.05 -67.05 -32.05 -59.8 -24.95 -59.8 -24.95 -67.05 -17.75 -67.05 -17.75 -59.8 -10.55 -59.8 -10.55 -67.05 -3.6 -67.05 -3.6 -59.8 3.35 -59.8 3.35 -67.05 10.3 -67.05 10.3 -59.8 17.65 -59.8 17.65 -67.05 24.6 -67.05 24.6 -59.8 32.2 -59.8 32.2 -67.05 39.3 -67.05 39.3 -59.8 46.5 -59.8 46.5 -52.3 39.3 -52.3 39.3 -45.1 46.5 -45.1 46.5 -37.75 39.3 -37.75 39.3 -30.55 46.5 -30.55 46.5 -23.05 39.3 -23.05 39.3 -15.8 46.5 -15.8 46.5 16.8 39.3 16.8 39.3 24.0 46.5 24.0 46.5 31.5 39.3 31.5 39.3 38.75 46.5 38.75 46.5 46.1 39.3 46.1 39.3 53.3 46.5 53.3 46.5 60.8 39.3 60.8 39.3 68.0 32.2 68.0 32.2 60.8 24.6 60.8 24.6 68.0 17.65 68.0 17.65 60.8 10.3 60.8 10.3 68.0 3.35 68.0 3.35 60.8 -3.6 60.8 -3.6 68.0 -10.55 68.0 -10.55 60.8 -17.75 60.8 -17.75 68.0 -24.95 68.0 -24.95 60.8 -32.05 60.8 -32.05 68.0 -39.15 68.0 -39.15 60.8 -45.95 60.8 -45.95 53.3 -39.15 53.3 -39.15 46.1 -45.95 46.1 -45.95 38.75 -39.15 38.75 -39.15 31.5 -45.95 31.5 -45.95 24.0 -39.15 24.0 -39.15 16.8 -45.95 16.8 Z" fill="none" stroke="#ffffff" stroke-linecap="round" stroke-linejoin="round" stroke-width="2.0"/>
  </g>
</svg>
