<?xml version="1.0" encoding="UTF-8" standalone="no"?>
<svg xmlns:xlink="http://www.w3.org/1999/xlink" height="113.75px" width="145.5px" xmlns="http://www.w3.org/2000/svg">
  <g transform="matrix(1.0, 0.0, 0.0, 1.0, 70.35, 72.25)">
    <path d="M59.6 -54.55 L55.2 -51.65 Q54.85 -51.4 54.85 -49.65 L54.9 -48.0 55.0 -48.15 58.25 -48.25 58.85 -51.35 Q59.15 -53.3 59.65 -54.55 L59.6 -54.55 M65.8 -59.55 Q65.8 -58.25 64.35 -57.35 67.05 -56.95 71.05 -54.25 71.35 -54.0 70.75 -54.0 68.7 -54.0 67.0 -54.75 65.25 -55.5 64.3 -55.5 61.65 -55.5 60.9 -54.4 60.6 -53.9 60.1 -51.0 L60.0 -48.6 Q59.8 -47.05 58.5 -46.75 L55.0 -46.75 54.9 -46.85 55.15 -43.0 55.85 -39.2 56.4 -36.5 Q56.4 -36.1 51.05 -32.45 L43.75 -27.25 41.65 -25.55 43.4 -23.6 45.1 -22.0 46.6 -19.85 Q46.65 -19.6 46.0 -19.6 45.5 -19.6 42.85 -22.5 L40.8 -24.85 37.75 -22.25 Q38.05 -21.7 38.0 -20.55 L37.75 -18.25 Q37.75 -16.9 38.2 -13.1 L38.6 -8.2 38.35 -6.05 37.9 -3.3 Q37.85 -3.1 37.25 -3.1 L37.05 -3.1 36.85 -2.9 30.6 -1.0 22.8 1.15 23.75 2.1 Q25.25 3.95 25.25 4.85 25.25 5.85 21.2 7.45 L14.6 9.9 14.55 9.8 14.5 10.2 Q14.5 11.0 16.8 13.65 19.1 16.35 19.1 17.05 19.1 18.75 9.0 25.1 L8.8 24.9 Q11.55 21.65 17.25 16.85 L14.75 13.65 Q13.0 11.3 13.0 10.1 13.0 9.15 13.5 8.6 L18.2 6.8 23.35 4.9 23.4 4.55 21.95 2.7 20.9 1.5 17.85 2.05 Q16.4 2.4 15.2 3.0 L13.1 3.35 Q9.0 3.35 6.4 -3.5 6.0 -4.6 5.5 -6.95 4.8 -8.9 2.9 -9.85 L-2.55 -8.7 -4.9 -7.7 -4.5 -6.6 Q-3.9 -4.55 -3.9 -3.5 -3.9 -2.55 -4.05 -2.35 -4.55 -1.65 -6.5 -1.5 L-6.85 0.6 Q-7.0 2.1 -8.25 2.1 L-11.75 2.05 -11.5 2.75 Q-9.5 8.05 -9.5 10.1 -9.5 10.8 -13.0 12.75 L-18.25 15.65 Q-19.75 16.65 -23.4 18.55 -26.35 20.25 -26.75 21.3 L-28.35 25.85 -28.3 25.85 Q-24.6 25.0 -23.4 25.8 -22.4 26.15 -22.4 27.8 -22.4 28.3 -22.7 28.9 L-23.5 30.25 Q-23.9 31.0 -23.9 32.5 -23.9 34.6 -23.5 37.0 L-24.0 37.5 -25.4 34.65 -25.5 32.3 Q-25.5 30.85 -24.75 29.15 L-24.0 27.5 Q-24.0 27.1 -24.15 27.05 L-24.65 26.9 -26.5 26.9 -28.75 27.8 -29.05 27.8 Q-30.95 32.25 -32.25 32.25 -33.9 32.25 -39.05 28.9 L-45.3 25.05 Q-47.6 24.35 -47.7 23.5 -47.4 22.5 -47.4 21.8 L-47.15 18.3 Q-47.15 16.9 -47.55 16.25 L-56.1 16.55 -56.55 19.1 -57.05 21.6 -57.25 22.35 -57.3 22.65 -57.35 22.7 -57.95 25.3 Q-58.25 26.0 -60.35 26.0 -65.35 26.0 -66.35 23.6 L-66.35 20.8 -66.1 15.35 -66.2 14.15 Q-66.15 13.3 -65.25 12.75 L-63.7 11.5 Q-62.1 10.4 -60.75 10.4 -60.25 10.4 -59.25 11.15 L-62.35 12.85 Q-64.25 13.7 -64.35 15.75 L-64.4 17.65 -64.25 17.6 -63.35 17.5 Q-60.8 14.35 -59.9 18.0 L-58.95 20.2 -58.65 18.6 Q-58.0 15.15 -57.0 14.55 L-50.5 14.4 -48.6 14.3 Q-45.0 14.3 -45.1 17.55 L-45.45 20.4 Q-45.7 22.15 -45.4 23.05 -43.05 24.3 -39.15 26.6 L-32.65 30.3 -31.25 27.8 -30.0 25.0 Q-29.65 24.3 -29.15 22.05 -28.65 19.95 -28.35 19.55 -27.55 18.55 -19.3 13.9 -11.4 9.5 -11.4 9.0 -11.4 8.2 -13.4 3.2 -15.4 -1.8 -15.4 -2.5 -15.4 -3.45 -12.2 -5.8 L-8.5 -8.25 Q-1.95 -12.0 2.6 -12.0 5.0 -12.0 6.55 -9.65 7.65 -7.95 8.05 -5.55 8.75 -1.6 12.0 1.05 L13.9 1.0 Q14.7 0.2 17.75 -0.25 L21.25 -0.6 25.1 -1.55 28.9 -2.75 35.05 -4.6 Q35.5 -4.85 35.5 -8.0 L35.15 -13.3 34.8 -16.8 32.9 -14.75 Q30.85 -12.8 28.35 -12.8 24.15 -12.8 23.0 -13.85 22.65 -14.2 22.65 -15.25 22.65 -15.8 23.35 -17.65 L24.0 -20.25 23.1 -21.5 Q24.25 -21.5 25.0 -21.1 25.5 -20.55 25.5 -19.45 L25.0 -17.35 24.35 -15.3 24.75 -15.1 28.2 -14.75 Q30.35 -14.75 32.55 -17.1 L34.8 -19.25 Q34.85 -21.6 35.6 -22.55 L41.4 -27.8 49.15 -33.35 Q54.25 -36.75 54.25 -37.0 L53.75 -40.0 Q53.25 -42.85 53.25 -43.55 L53.1 -49.9 Q53.1 -52.6 53.25 -52.8 L56.15 -54.65 64.0 -59.3 64.05 -59.25 64.1 -59.65 61.0 -62.95 Q57.9 -66.2 57.9 -66.95 57.9 -69.1 59.3 -67.65 L61.5 -64.65 64.15 -62.15 Q65.8 -60.65 65.8 -59.55 M-6.65 -6.85 L-13.5 -2.25 -12.35 0.5 -12.25 0.4 -8.85 0.0 -8.85 -0.55 -8.6 -1.75 -7.95 -2.75 Q-7.35 -3.3 -5.9 -3.35 L-5.7 -3.35 Q-5.5 -3.4 -5.5 -3.8 L-5.75 -4.9 -6.0 -6.05 -5.65 -7.35 -6.65 -6.85 M-64.55 23.25 Q-62.35 23.75 -61.8 24.0 L-59.65 24.0 -59.3 22.1 Q-60.25 21.3 -60.65 20.3 -61.05 18.3 -61.6 17.25 L-62.35 17.85 -63.25 18.4 -64.4 18.55 -64.4 18.6 -64.55 23.25" fill="#ffffff" fill-rule="evenodd" stroke="none"/>
    <path d="M59.6 -54.55 L55.2 -51.65 Q54.85 -51.4 54.85 -49.65 L54.9 -48.0 55.0 -48.15 58.25 -48.25 58.85 -51.35 Q59.15 -53.3 59.65 -54.55 L59.6 -54.55 M65.8 -59.55 Q65.8 -58.25 64.35 -57.35 67.05 -56.95 71.05 -54.25 71.35 -54.0 70.75 -54.0 68.7 -54.0 67.0 -54.75 65.25 -55.5 64.3 -55.5 61.65 -55.5 60.9 -54.4 60.6 -53.9 60.1 -51.0 L60.0 -48.6 Q59.8 -47.05 58.5 -46.75 L55.0 -46.75 54.9 -46.85 55.15 -43.0 55.85 -39.2 56.4 -36.5 Q56.4 -36.1 51.05 -32.45 L43.75 -27.25 41.65 -25.55 43.4 -23.6 45.1 -22.0 46.6 -19.85 Q46.65 -19.6 46.0 -19.6 45.5 -19.6 42.85 -22.5 L40.8 -24.85 37.75 -22.25 Q38.05 -21.7 38.0 -20.55 L37.75 -18.25 Q37.75 -16.9 38.2 -13.1 L38.6 -8.2 38.35 -6.05 37.9 -3.3 Q37.85 -3.1 37.25 -3.1 L37.05 -3.1 36.85 -2.9 30.6 -1.0 22.8 1.15 23.75 2.1 Q25.25 3.95 25.25 4.85 25.25 5.85 21.2 7.45 L14.6 9.9 14.55 9.8 14.5 10.2 Q14.5 11.0 16.8 13.65 19.1 16.35 19.1 17.05 19.1 18.75 9.0 25.1 L8.8 24.9 Q11.55 21.65 17.25 16.85 L14.75 13.65 Q13.0 11.3 13.0 10.1 13.0 9.15 13.5 8.6 L18.2 6.8 23.35 4.9 23.4 4.55 21.95 2.7 20.9 1.5 17.85 2.05 Q16.4 2.4 15.2 3.0 L13.1 3.35 Q9.0 3.35 6.4 -3.5 6.0 -4.6 5.5 -6.95 4.8 -8.9 2.9 -9.85 L-2.55 -8.7 -4.9 -7.7 -4.5 -6.6 Q-3.9 -4.55 -3.9 -3.5 -3.9 -2.55 -4.05 -2.35 -4.55 -1.65 -6.5 -1.5 L-6.85 0.6 Q-7.0 2.1 -8.25 2.1 L-11.75 2.05 -11.5 2.75 Q-9.5 8.05 -9.5 10.1 -9.5 10.8 -13.0 12.75 L-18.25 15.65 Q-19.75 16.65 -23.4 18.55 -26.35 20.25 -26.75 21.3 L-28.35 25.85 -28.3 25.85 Q-24.6 25.0 -23.4 25.8 -22.4 26.15 -22.4 27.8 -22.4 28.3 -22.7 28.9 L-23.5 30.25 Q-23.9 31.0 -23.9 32.5 -23.9 34.6 -23.5 37.0 L-24.0 37.5 -25.4 34.65 -25.5 32.3 Q-25.5 30.85 -24.75 29.15 L-24.0 27.5 Q-24.0 27.1 -24.15 27.05 L-24.65 26.9 -26.5 26.9 -28.75 27.8 -29.05 27.8 Q-30.95 32.25 -32.25 32.25 -33.9 32.25 -39.05 28.9 L-45.3 25.05 Q-47.6 24.35 -47.7 23.5 -47.4 22.5 -47.4 21.8 L-47.15 18.3 Q-47.15 16.9 -47.55 16.25 L-56.1 16.55 -56.55 19.1 -57.05 21.6 -57.25 22.35 -57.3 22.65 -57.35 22.7 -57.95 25.3 Q-58.25 26.0 -60.35 26.0 -65.35 26.0 -66.35 23.6 L-66.35 20.8 -66.1 15.35 -66.2 14.15 Q-66.15 13.3 -65.25 12.75 L-63.7 11.5 Q-62.1 10.4 -60.75 10.4 -60.25 10.4 -59.25 11.15 L-62.35 12.85 Q-64.25 13.7 -64.35 15.75 L-64.4 17.65 -64.25 17.6 -63.35 17.5 Q-60.8 14.35 -59.9 18.0 L-58.95 20.2 -58.65 18.6 Q-58.0 15.15 -57.0 14.55 L-50.5 14.4 -48.6 14.3 Q-45.0 14.3 -45.1 17.55 L-45.45 20.4 Q-45.7 22.15 -45.4 23.05 -43.05 24.3 -39.15 26.6 L-32.65 30.3 -31.25 27.8 -30.0 25.0 Q-29.65 24.3 -29.15 22.05 -28.65 19.95 -28.35 19.55 -27.55 18.55 -19.3 13.9 -11.4 9.5 -11.4 9.0 -11.4 8.2 -13.4 3.2 -15.4 -1.8 -15.4 -2.5 -15.4 -3.45 -12.2 -5.8 L-8.5 -8.25 Q-1.95 -12.0 2.6 -12.0 5.0 -12.0 6.55 -9.65 7.65 -7.95 8.05 -5.55 8.75 -1.6 12.0 1.05 L13.9 1.0 Q14.7 0.2 17.75 -0.25 L21.25 -0.6 25.1 -1.55 28.9 -2.75 35.05 -4.6 Q35.5 -4.85 35.5 -8.0 L35.15 -13.3 34.8 -16.8 32.9 -14.75 Q30.85 -12.8 28.35 -12.8 24.15 -12.8 23.0 -13.85 22.65 -14.2 22.65 -15.25 22.65 -15.8 23.35 -17.65 L24.0 -20.25 23.1 -21.5 Q24.25 -21.5 25.0 -21.1 25.5 -20.55 25.5 -19.45 L25.0 -17.35 24.35 -15.3 24.75 -15.1 28.2 -14.75 Q30.35 -14.75 32.55 -17.1 L34.8 -19.25 Q34.85 -21.6 35.6 -22.55 L41.4 -27.8 49.15 -33.35 Q54.25 -36.75 54.25 -37.0 L53.75 -40.0 Q53.25 -42.85 53.25 -43.55 L53.1 -49.9 Q53.1 -52.6 53.25 -52.8 L56.15 -54.65 64.0 -59.3 64.05 -59.25 64.1 -59.65 61.0 -62.95 Q57.9 -66.2 57.9 -66.95 57.9 -69.1 59.3 -67.65 L61.5 -64.65 64.15 -62.15 Q65.8 -60.65 65.8 -59.55 M-6.65 -6.85 L-13.5 -2.25 -12.35 0.5 -12.25 0.4 -8.85 0.0 -8.85 -0.55 -8.6 -1.75 -7.95 -2.75 Q-7.35 -3.3 -5.9 -3.35 L-5.7 -3.35 Q-5.5 -3.4 -5.5 -3.8 L-5.75 -4.9 -6.0 -6.05 -5.65 -7.35 -6.65 -6.85 M-64.55 23.25 Q-62.35 23.75 -61.8 24.0 L-59.65 24.0 -59.3 22.1 Q-60.25 21.3 -60.65 20.3 -61.05 18.3 -61.6 17.25 L-62.35 17.85 -63.25 18.4 -64.4 18.55 -64.4 18.6 -64.55 23.25" fill="none" stroke="#ffe31b" stroke-linecap="round" stroke-linejoin="round" stroke-width="8.0"/>
  </g>
</svg>
