<?xml version="1.0" encoding="UTF-8" standalone="no"?>
<svg xmlns:xlink="http://www.w3.org/1999/xlink" height="52.4px" width="118.85px" xmlns="http://www.w3.org/2000/svg">
  <g transform="matrix(1.0, 0.0, 0.0, 1.0, 64.35, 119.75)">
    <path d="M-11.85 -86.5 L3.5 -87.85 Q4.6 -88.25 4.9 -89.3 L5.0 -90.8 Q5.0 -94.55 3.9 -98.2 2.75 -101.85 2.75 -103.9 2.75 -105.2 3.55 -106.0 4.4 -106.85 6.0 -106.85 8.1 -106.85 9.2 -105.6 10.65 -104.05 12.05 -103.6 L16.45 -102.5 15.75 -104.6 15.0 -106.75 Q14.5 -106.25 12.0 -106.25 11.1 -106.9 10.4 -110.65 9.8 -113.55 9.8 -114.9 9.8 -116.15 10.05 -115.6 L10.55 -115.6 Q11.55 -114.15 12.2 -112.2 L13.05 -109.0 13.05 -108.85 Q13.5 -109.1 14.6 -110.1 15.2 -110.6 16.0 -110.6 17.15 -110.6 17.75 -108.45 L18.3 -105.85 19.55 -103.65 20.45 -101.8 22.0 -101.6 Q25.55 -101.1 26.85 -99.05 27.5 -97.95 27.5 -96.1 27.5 -95.3 25.4 -90.3 23.3 -85.35 23.3 -84.5 23.3 -83.85 27.3 -82.0 31.25 -80.2 32.75 -80.1 L36.15 -83.7 Q34.45 -84.1 34.0 -85.3 33.65 -86.2 34.0 -87.25 34.0 -95.35 35.55 -96.25 36.6 -94.65 36.8 -91.5 L37.0 -87.0 39.05 -86.6 Q42.05 -89.5 43.0 -89.5 45.35 -89.5 50.5 -78.9 50.5 -78.2 49.85 -77.6 49.15 -76.85 48.0 -76.85 46.05 -76.85 44.5 -79.75 L42.5 -83.75 Q41.5 -81.65 37.55 -78.5 33.85 -75.6 33.0 -75.6 27.25 -75.6 21.55 -78.5 16.55 -81.05 16.55 -82.55 16.55 -83.75 18.6 -89.65 L20.8 -95.85 Q13.0 -97.15 8.8 -98.6 L9.7 -93.55 10.0 -89.8 Q10.0 -84.5 7.5 -83.0 L6.3 -83.4 5.1 -83.6 -7.1 -82.25 -17.0 -80.85 Q-18.55 -80.95 -19.0 -82.05 L-19.1 -83.35 -18.75 -84.4 Q-19.5 -85.0 -20.0 -85.0 -21.1 -83.75 -22.8 -82.55 -26.25 -80.1 -29.75 -80.1 L-31.1 -80.35 -31.2 -80.6 -31.35 -81.5 Q-31.35 -83.35 -30.55 -86.95 L-30.4 -87.65 -31.85 -86.75 Q-34.6 -84.75 -35.5 -84.75 -38.95 -84.75 -39.7 -87.95 L-39.75 -92.25 -39.85 -92.6 Q-41.4 -91.9 -55.25 -86.25 L-52.65 -80.65 Q-50.25 -75.35 -50.25 -73.85 -50.25 -71.35 -52.0 -71.35 -53.35 -71.35 -57.0 -79.55 -60.35 -87.2 -60.35 -87.9 -60.35 -89.8 -57.25 -91.25 -52.3 -93.25 -48.6 -95.0 -47.75 -95.35 -42.45 -98.4 -37.25 -101.25 -36.0 -101.25 -32.6 -101.25 -32.6 -97.7 L-33.25 -93.35 -33.1 -92.85 -29.65 -93.75 -25.5 -94.75 -24.5 -95.0 -24.75 -96.85 Q-24.75 -103.8 -23.85 -107.6 -22.05 -115.4 -17.35 -106.25 -14.2 -99.85 -12.9 -96.45 -10.6 -90.5 -11.85 -86.5 M-16.9 -86.8 Q-14.75 -89.1 -14.75 -89.75 L-16.75 -95.4 -19.35 -101.75 -19.05 -97.2 -18.75 -93.6 Q-18.75 -91.85 -19.3 -91.1 -20.75 -89.2 -25.5 -89.0 L-27.85 -88.65 -27.75 -87.9 Q-27.55 -85.9 -28.1 -84.0 L-28.25 -83.6 -26.85 -83.6 Q-26.35 -84.25 -24.85 -84.9 L-22.75 -86.25 -22.1 -87.65 Q-21.5 -88.75 -20.25 -88.75 L-17.05 -86.65 -16.9 -86.8" fill="#ffffff" fill-rule="evenodd" stroke="none"/>
    <path d="M-11.85 -86.5 L3.5 -87.85 Q4.6 -88.25 4.9 -89.3 L5.0 -90.8 Q5.0 -94.55 3.9 -98.2 2.75 -101.85 2.75 -103.9 2.75 -105.2 3.55 -106.0 4.4 -106.85 6.0 -106.85 8.1 -106.85 9.2 -105.6 10.65 -104.05 12.05 -103.6 L16.45 -102.5 15.75 -104.6 15.0 -106.75 Q14.5 -106.25 12.0 -106.25 11.1 -106.9 10.4 -110.65 9.8 -113.55 9.8 -114.9 9.8 -116.15 10.05 -115.6 L10.55 -115.6 Q11.55 -114.15 12.2 -112.2 L13.05 -109.0 13.05 -108.85 Q13.5 -109.1 14.6 -110.1 15.2 -110.6 16.0 -110.6 17.15 -110.6 17.75 -108.45 L18.3 -105.85 19.55 -103.65 20.45 -101.8 22.0 -101.6 Q25.55 -101.1 26.85 -99.05 27.5 -97.95 27.5 -96.1 27.5 -95.3 25.4 -90.3 23.3 -85.35 23.3 -84.5 23.3 -83.85 27.3 -82.0 31.25 -80.2 32.75 -80.1 L36.15 -83.7 Q34.45 -84.1 34.0 -85.3 33.65 -86.2 34.0 -87.25 34.0 -95.35 35.55 -96.25 36.6 -94.65 36.8 -91.5 L37.0 -87.0 39.05 -86.6 Q42.05 -89.5 43.0 -89.5 45.35 -89.5 50.5 -78.9 50.5 -78.2 49.85 -77.6 49.15 -76.85 48.0 -76.85 46.05 -76.85 44.5 -79.75 L42.5 -83.75 Q41.5 -81.65 37.55 -78.5 33.85 -75.6 33.0 -75.6 27.25 -75.6 21.55 -78.5 16.55 -81.05 16.55 -82.55 16.55 -83.75 18.6 -89.65 L20.8 -95.85 Q13.0 -97.15 8.8 -98.6 L9.7 -93.55 10.0 -89.8 Q10.0 -84.5 7.5 -83.0 L6.3 -83.4 5.1 -83.6 -7.1 -82.25 -17.0 -80.85 Q-18.55 -80.95 -19.0 -82.05 L-19.1 -83.35 -18.75 -84.4 Q-19.5 -85.0 -20.0 -85.0 -21.1 -83.75 -22.8 -82.55 -26.25 -80.1 -29.75 -80.1 L-31.1 -80.35 -31.2 -80.6 -31.35 -81.5 Q-31.35 -83.35 -30.55 -86.95 L-30.4 -87.65 -31.85 -86.75 Q-34.6 -84.75 -35.5 -84.75 -38.95 -84.75 -39.7 -87.95 L-39.75 -92.25 -39.85 -92.6 Q-41.4 -91.9 -55.25 -86.25 L-52.65 -80.65 Q-50.25 -75.35 -50.25 -73.85 -50.25 -71.35 -52.0 -71.35 -53.35 -71.35 -57.0 -79.55 -60.35 -87.2 -60.35 -87.9 -60.35 -89.8 -57.25 -91.25 -52.3 -93.25 -48.6 -95.0 -47.75 -95.35 -42.45 -98.4 -37.25 -101.25 -36.0 -101.25 -32.6 -101.25 -32.6 -97.7 L-33.25 -93.35 -33.1 -92.85 -29.65 -93.75 -25.5 -94.75 -24.5 -95.0 -24.75 -96.85 Q-24.75 -103.8 -23.85 -107.6 -22.05 -115.4 -17.35 -106.25 -14.2 -99.85 -12.9 -96.45 -10.6 -90.5 -11.85 -86.5 M-16.9 -86.8 Q-14.75 -89.1 -14.75 -89.75 L-16.75 -95.4 -19.35 -101.75 -19.05 -97.2 -18.75 -93.6 Q-18.75 -91.85 -19.3 -91.1 -20.75 -89.2 -25.5 -89.0 L-27.85 -88.65 -27.75 -87.9 Q-27.55 -85.9 -28.1 -84.0 L-28.25 -83.6 -26.85 -83.6 Q-26.35 -84.25 -24.85 -84.9 L-22.75 -86.25 -22.1 -87.65 Q-21.5 -88.75 -20.25 -88.75 L-17.05 -86.65 -16.9 -86.8" fill="none" stroke="#ffe31b" stroke-linecap="round" stroke-linejoin="round" stroke-width="8.0"/>
  </g>
</svg>
