<?xml version="1.0" encoding="UTF-8" standalone="no"?>
<svg xmlns:xlink="http://www.w3.org/1999/xlink" height="81.05px" width="440.9px" xmlns="http://www.w3.org/2000/svg">
  <g transform="matrix(1.0, 0.0, 0.0, 1.0, -55.6, 1.25)">
    <path d="M488.9 7.05 Q491.2 7.8 491.2 8.5 491.2 9.3 490.3 9.6 L490.4 10.1 490.25 13.1 491.0 16.3 491.25 18.7 490.7 22.9 490.45 23.0 490.4 23.0 490.4 37.8 490.3 37.95 490.0 40.95 490.0 48.75 490.0 49.05 490.0 55.55 Q490.25 57.35 490.8 58.65 489.9 59.65 490.0 61.25 490.15 62.85 489.35 65.45 488.4 68.2 488.4 69.35 488.4 70.05 489.25 70.8 L490.4 71.5 Q489.25 72.2 489.05 73.6 L482.05 75.05 480.0 75.7 471.85 75.7 469.0 75.15 456.95 74.55 444.95 75.4 443.05 75.7 439.45 75.7 437.8 75.1 Q434.75 74.2 430.45 74.05 L423.1 74.5 Q422.05 74.65 421.35 75.0 L421.35 74.95 420.7 74.65 414.95 74.4 393.35 74.25 384.6 75.15 381.7 75.7 345.9 75.7 345.55 75.65 337.6 74.65 322.5 74.65 311.0 75.7 238.2 75.7 Q236.25 74.95 233.05 74.65 L217.4 74.65 209.55 75.35 198.85 74.85 180.7 75.65 180.5 75.7 170.25 75.7 161.15 75.1 144.0 75.65 122.2 74.1 108.6 74.1 106.65 74.25 91.4 74.35 75.8 75.1 74.0 75.65 Q72.1 74.95 69.65 74.8 L67.4 74.65 Q66.3 73.2 64.15 72.1 L65.05 71.0 Q65.95 69.55 65.95 67.85 65.95 66.25 64.75 65.15 67.0 62.65 67.0 56.6 66.45 50.7 66.45 47.8 L66.3 45.45 Q65.95 44.45 64.9 43.75 65.4 43.1 65.4 42.1 65.4 41.15 64.9 40.55 L64.9 29.25 Q64.0 26.5 63.45 23.2 L63.45 10.65 Q63.95 8.95 63.95 7.4 L65.85 6.75 Q68.25 6.6 71.0 5.6 L72.65 5.1 Q74.0 5.8 76.35 5.8 L98.95 5.0 Q100.55 4.75 101.25 4.1 L104.8 4.1 Q106.7 5.55 113.8 5.55 L146.6 5.55 155.75 4.9 Q164.35 4.4 169.5 4.75 L194.45 4.75 203.45 4.1 233.85 4.1 239.25 4.55 309.45 4.55 311.4 4.35 329.8 4.25 332.75 4.1 337.1 4.1 Q337.75 4.55 338.55 4.8 L343.75 4.9 374.05 4.8 Q376.35 4.9 376.45 6.0 L376.45 6.15 377.85 6.0 385.4 6.2 392.8 5.6 421.35 4.7 422.15 4.75 429.95 4.45 430.05 4.1 466.9 4.1 473.45 4.75 475.75 5.15 478.7 4.8 482.05 4.55 Q485.3 4.45 486.05 5.3 486.5 6.3 488.9 7.05" fill="#000000" fill-opacity="0.4" fill-rule="evenodd" stroke="none"/>
    <path d="M74.25 1.95 Q75.6 2.65 77.95 2.65 L100.7 1.85 Q102.25 1.55 102.95 0.9 L106.55 0.9 Q108.5 2.4 115.6 2.4 L148.5 2.4 157.7 1.7 Q166.4 1.25 171.55 1.55 L196.55 1.55 205.65 0.9 236.1 0.9 241.6 1.35 312.05 1.35 314.05 1.15 332.55 1.05 335.5 0.9 339.85 0.9 Q340.5 1.35 341.3 1.65 L346.55 1.7 376.95 1.65 Q379.25 1.7 379.4 2.9 L379.4 3.0 380.8 2.9 Q384.7 2.75 388.35 3.05 L395.8 2.5 424.5 1.5 425.25 1.55 433.1 1.3 433.25 0.9 470.2 0.9 476.8 1.55 479.1 1.95 482.1 1.65 485.5 1.35 Q488.7 1.3 489.5 2.15 489.95 3.15 492.3 3.95 494.65 4.7 494.65 5.4 494.65 6.2 493.75 6.6 L493.85 7.1 493.7 10.15 494.45 13.45 494.7 15.85 494.15 20.15 493.9 20.25 493.85 20.25 493.85 35.4 493.75 35.55 493.45 38.6 493.45 46.3 493.45 46.6 493.45 46.9 493.45 53.55 Q493.7 55.4 494.25 56.75 493.35 57.8 493.45 59.35 493.6 61.05 492.8 63.7 491.85 66.55 491.85 67.65 491.85 68.4 492.75 69.15 L493.85 69.85 Q492.75 70.6 492.5 72.0 488.55 72.6 485.5 73.5 484.25 73.8 483.4 74.2 L475.2 74.2 472.35 73.6 460.3 73.0 448.15 73.8 446.35 74.2 442.7 74.2 Q441.95 73.8 441.0 73.55 437.95 72.65 433.6 72.45 L426.2 72.95 424.5 73.45 424.5 73.4 423.85 73.05 418.1 72.85 396.35 72.7 387.6 73.6 384.7 74.2 348.75 74.2 348.35 74.05 340.35 73.05 325.2 73.05 325.2 73.1 313.6 74.2 240.5 74.2 Q238.55 73.4 235.35 73.05 L219.65 73.05 211.8 73.8 201.05 73.25 182.75 74.15 182.55 74.2 172.25 74.2 163.15 73.55 145.95 74.05 124.05 72.55 110.35 72.55 108.4 72.7 93.1 72.8 77.4 73.55 75.6 74.05 Q73.7 73.4 71.2 73.2 L69.0 73.1 Q67.85 71.6 65.75 70.5 L66.6 69.35 Q67.55 67.9 67.55 66.1 67.55 64.5 66.35 63.4 68.6 60.8 68.6 54.6 68.0 48.55 68.0 45.65 L67.85 43.2 Q67.55 42.15 66.45 41.45 67.0 40.8 67.0 39.8 67.0 38.8 66.45 38.2 L66.45 26.65 Q65.6 23.8 65.05 20.5 L65.05 7.6 65.5 4.3 67.4 3.6 Q69.85 3.45 72.65 2.5 L74.25 1.95" fill="#b7893c" fill-rule="evenodd" stroke="none"/>
    <path d="M210.65 1.9 L210.6 2.95 210.05 3.3 Q209.35 2.9 209.35 1.85 L209.6 -1.25 210.15 -1.25 Q210.65 0.3 210.65 1.9 M203.6 1.3 Q202.9 0.15 202.9 -0.45 202.9 -0.9 203.05 -1.05 L203.45 -1.15 Q204.35 -0.7 204.7 0.35 L205.45 2.2 204.8 2.7 Q204.25 2.5 203.6 1.3 M496.25 28.3 Q494.9 29.8 491.95 29.8 L490.9 29.65 Q490.7 29.95 490.7 29.25 490.7 29.05 491.4 28.75 491.65 28.25 492.65 28.05 L495.35 27.5 495.65 27.85 495.95 27.85 496.25 28.3 M496.5 48.35 Q496.5 48.7 495.55 49.05 L494.45 49.3 492.25 49.3 491.8 49.15 Q491.65 49.1 491.65 48.7 L491.7 48.2 491.7 48.25 496.25 47.8 496.4 47.9 496.5 48.35 M494.9 52.65 L492.25 52.55 489.8 52.3 489.7 52.1 492.55 51.25 Q494.4 50.95 496.2 52.1 L495.55 52.55 494.9 52.65 M480.7 8.65 Q480.4 9.1 479.8 9.2 L479.75 9.1 479.75 9.4 478.85 10.0 478.05 9.15 Q477.9 8.2 478.0 7.05 478.15 4.8 479.2 4.1 L479.65 4.15 479.8 4.65 479.8 5.25 480.05 5.25 480.7 8.65 M436.2 3.5 L436.1 4.55 435.55 4.9 Q434.85 4.5 434.85 3.45 L435.15 0.35 435.7 0.35 Q436.2 1.95 436.2 3.5 M428.55 0.55 L428.95 0.45 Q429.85 0.9 430.2 1.95 L430.95 3.8 Q430.6 4.3 430.3 4.3 429.75 4.1 429.1 2.95 428.4 1.75 428.4 1.15 428.4 0.7 428.55 0.55 M470.75 72.2 L470.9 72.55 Q472.5 75.35 472.5 75.9 472.5 76.65 471.5 77.25 470.75 76.85 469.1 73.9 467.45 71.1 467.45 70.6 L467.7 69.8 Q467.95 69.05 468.45 68.8 L469.2 69.8 469.7 69.75 Q470.2 70.3 470.6 71.75 L470.75 72.2 M477.1 71.35 L477.25 71.7 477.25 73.1 477.15 73.25 477.15 74.95 476.3 75.3 Q475.7 75.05 475.55 74.4 L475.5 73.45 Q475.5 69.55 476.3 69.15 477.0 69.75 477.05 70.8 L477.1 71.35 M370.05 0.7 Q371.2 1.45 371.2 4.35 L371.15 4.75 370.95 5.0 370.35 5.15 Q369.9 5.15 369.55 4.2 L369.3 3.2 Q369.3 1.2 370.05 0.7 M353.7 1.7 L354.1 4.4 354.0 5.05 353.9 5.2 353.3 5.35 Q352.45 5.35 352.25 3.95 L352.25 2.4 352.2 1.1 Q352.35 -0.1 353.0 -0.45 L353.7 1.7 M338.1 74.9 L338.0 74.2 338.15 71.65 338.8 71.65 Q339.05 72.0 339.15 73.4 L339.15 75.1 338.55 75.4 338.1 74.9 M391.3 70.6 Q391.65 71.15 391.7 72.0 L391.9 74.15 391.65 74.4 391.7 75.9 391.65 77.6 Q391.6 77.6 391.45 77.75 L390.8 77.85 Q390.0 77.85 389.85 76.85 L389.85 75.85 Q389.55 74.2 389.55 72.8 389.55 70.1 390.95 69.5 L391.3 70.6 M282.5 3.55 L282.45 3.95 282.3 4.2 281.7 4.35 Q281.25 4.35 280.9 3.4 L280.65 2.4 Q280.65 0.4 281.35 -0.1 282.5 0.65 282.5 3.55 M263.55 0.3 Q263.7 -0.9 264.35 -1.25 L265.0 0.9 265.45 3.6 265.35 4.25 265.25 4.4 264.65 4.55 Q263.8 4.55 263.6 3.15 L263.6 1.6 263.55 0.3 M285.7 71.4 L286.1 72.8 286.3 74.95 286.05 75.25 286.1 76.7 286.05 78.4 Q286.0 78.4 285.85 78.55 L285.2 78.7 Q284.4 78.7 284.2 77.65 L284.2 76.65 283.95 73.6 Q283.95 70.9 285.3 70.3 L285.7 71.4 M167.0 72.95 L167.1 73.4 167.3 73.75 Q168.9 76.55 168.9 77.1 168.9 77.85 167.9 78.45 167.1 78.05 165.45 75.1 163.85 72.3 163.85 71.8 L164.1 71.0 Q164.35 70.25 164.85 70.0 L165.6 71.0 166.1 70.95 Q166.6 71.5 167.0 72.95 M173.65 72.9 L173.65 74.3 173.55 74.45 173.55 76.15 172.7 76.5 Q172.1 76.25 171.95 75.6 L171.9 74.65 Q171.9 70.8 172.7 70.35 173.35 71.0 173.45 72.0 L173.5 72.55 173.65 72.9 M222.75 70.6 Q223.1 71.0 223.45 73.95 L223.55 74.75 223.55 74.95 223.75 78.7 223.7 79.3 222.75 79.65 221.75 78.8 221.95 75.0 221.95 74.75 222.05 73.5 222.1 73.25 Q222.4 71.0 222.75 70.6 M155.85 -1.25 L156.35 0.5 155.8 2.15 Q155.25 3.4 154.7 3.7 L154.15 3.55 Q154.0 3.5 154.0 3.0 154.0 2.35 154.7 0.65 155.5 -1.05 155.85 -1.25 M142.7 2.1 L142.6 2.95 141.95 3.3 Q140.9 2.35 140.9 0.75 140.9 -0.25 141.65 -0.4 142.7 0.7 142.7 2.1 M115.55 72.8 L117.0 74.85 Q118.2 76.45 118.2 76.8 L118.1 77.45 117.85 77.65 Q117.6 77.85 117.15 77.85 115.65 77.85 113.85 74.3 L112.25 70.6 112.35 70.15 112.4 70.15 Q113.65 70.0 114.5 71.05 L115.55 72.8 M73.15 1.8 L73.8 4.4 73.65 4.85 73.1 4.95 Q72.35 4.95 71.9 2.8 L71.55 0.55 71.6 0.15 72.2 -0.65 Q72.8 0.3 73.15 1.8 M66.15 9.0 L65.75 9.4 65.05 9.5 63.2 9.45 57.3 9.55 Q56.3 9.55 55.7 9.15 L55.6 8.6 Q56.3 8.4 56.5 7.8 L65.35 7.5 66.4 8.45 66.15 9.0 M60.1 41.0 Q59.85 40.9 59.85 40.4 59.85 39.6 62.2 39.3 L68.85 38.6 68.95 38.75 69.05 39.25 Q69.05 39.95 67.45 40.2 L66.5 40.45 65.85 40.45 60.9 41.15 60.1 41.0 M69.55 30.05 L69.65 30.5 Q69.65 31.35 65.6 32.7 L60.2 34.4 59.75 34.25 59.65 33.65 Q59.65 33.0 64.2 31.5 L69.45 29.95 69.55 30.05 M76.25 69.55 L76.85 69.5 77.35 72.5 77.4 73.75 77.35 74.7 77.15 79.6 76.4 79.8 75.5 78.95 75.8 75.05 76.0 72.95 76.25 69.55" fill="#7d5e22" fill-rule="evenodd" stroke="none"/>
  </g>
</svg>
