<?xml version="1.0" encoding="UTF-8" standalone="no"?>
<svg xmlns:xlink="http://www.w3.org/1999/xlink" height="54.75px" width="50.9px" xmlns="http://www.w3.org/2000/svg">
  <g transform="matrix(1.0, 0.0, 0.0, 1.0, 50.9, 27.35)">
    <path d="M-50.9 12.4 L-50.9 -27.35 Q-49.35 -25.5 -46.3 -23.3 -40.05 -18.8 -40.05 -18.1 L-41.15 -14.2 Q-42.3 -10.15 -42.3 -8.8 L-40.45 -3.5 Q-38.35 1.7 -36.95 1.7 -35.45 1.7 -20.45 -7.85 -20.0 -6.45 -16.35 -4.9 -12.1 -3.35 -10.7 -2.6 L-13.8 1.65 Q-16.0 4.85 -16.0 6.3 -16.0 8.15 -11.65 10.55 L-9.2 11.7 -6.3 12.1 -0.4 12.9 Q0.0 13.1 0.0 13.85 0.0 19.6 -0.75 22.45 -0.75 23.9 -1.2 27.4 L-30.65 27.4 -40.95 25.1 -47.2 22.4 -50.9 12.4" fill="#ffffff" fill-rule="evenodd" stroke="none"/>
  </g>
</svg>
