<?xml version="1.0" encoding="UTF-8" standalone="no"?>
<svg xmlns:xlink="http://www.w3.org/1999/xlink" height="80.45px" width="68.95px" xmlns="http://www.w3.org/2000/svg">
  <g transform="matrix(1.0, 0.0, 0.0, 1.0, 34.5, 40.2)">
    <path d="M17.95 -30.2 Q-15.6 -17.5 -24.5 26.4 -7.55 32.75 9.75 28.65 7.8 -0.95 24.45 -24.3 17.95 -30.0 17.95 -30.2" fill="#70381f" fill-rule="evenodd" stroke="none"/>
    <path d="M17.95 -30.2 Q-15.6 -17.5 -24.5 26.4 -7.55 32.75 9.75 28.65 7.8 -0.95 24.45 -24.3 17.95 -30.0 17.95 -30.2 Z" fill="none" stroke="#3c190a" stroke-linecap="round" stroke-linejoin="round" stroke-width="20.0"/>
    <path d="M17.95 -30.2 Q-15.6 -17.5 -24.5 26.4 -7.55 32.75 9.75 28.65 7.8 -0.95 24.45 -24.3 17.95 -30.0 17.95 -30.2" fill="#70381f" fill-rule="evenodd" stroke="none"/>
    <path d="M8.65 20.0 L9.55 22.0 9.75 28.65 Q-7.55 32.75 -24.5 26.4 -22.75 17.7 -20.0 10.25 L-16.7 9.05 -15.45 20.4 -0.15 11.85 2.0 27.5 8.65 20.0" fill="#bf7926" fill-rule="evenodd" stroke="none"/>
    <path d="M17.85 -30.2 Q-11.35 -19.15 -21.9 15.55 L-22.35 15.4 Q-6.55 20.65 9.5 19.55 10.3 -4.6 24.35 -24.3 17.85 -30.0 17.85 -30.2" fill="#ffffff" fill-rule="evenodd" stroke="none"/>
  </g>
</svg>
