<?xml version="1.0" encoding="UTF-8" standalone="no"?>
<svg xmlns:xlink="http://www.w3.org/1999/xlink" height="75.1px" width="165.2px" xmlns="http://www.w3.org/2000/svg">
  <g transform="matrix(1.0, 0.0, 0.0, 1.0, 166.3, 176.25)">
    <path d="M-42.2 -162.65 L-33.1 -119.35 Q-56.25 -103.35 -66.8 -105.4 -72.9 -106.55 -80.3 -111.65 -84.5 -114.5 -92.65 -121.6 -100.15 -128.15 -103.65 -130.25 -109.15 -133.75 -112.85 -132.6 -116.5 -131.5 -120.85 -127.2 L-128.8 -118.5 Q-133.7 -113.05 -137.15 -110.55 -139.7 -108.75 -142.25 -107.9 L-142.3 -107.8 Q-135.9 -113.95 -134.4 -120.15 -133.85 -122.6 -133.4 -127.25 L-132.4 -136.95 Q-128.85 -164.55 -114.2 -168.45 -110.2 -169.55 -105.05 -166.55 -101.35 -164.35 -95.7 -159.0 L-86.6 -150.4 Q-81.5 -146.1 -78.05 -145.3 -71.35 -143.8 -56.1 -153.1 -51.35 -155.95 -46.3 -159.55 L-42.2 -162.65" fill="#cd0303" fill-rule="evenodd" stroke="none"/>
    <path d="M-42.2 -162.65 L-33.1 -119.35 Q-56.25 -103.35 -66.8 -105.4 -72.9 -106.55 -80.3 -111.65 -84.5 -114.5 -92.65 -121.6 -100.15 -128.15 -103.65 -130.25 -109.15 -133.75 -112.85 -132.6 -116.5 -131.5 -120.85 -127.2 L-128.8 -118.5 Q-133.7 -113.05 -137.15 -110.55 -139.7 -108.75 -142.25 -107.9 L-142.3 -107.8 Q-135.9 -113.95 -134.4 -120.15 -133.85 -122.6 -133.4 -127.25 L-132.4 -136.95 Q-128.85 -164.55 -114.2 -168.45 -110.2 -169.55 -105.05 -166.55 -101.35 -164.35 -95.7 -159.0 L-86.6 -150.4 Q-81.5 -146.1 -78.05 -145.3 -71.35 -143.8 -56.1 -153.1 -51.35 -155.95 -46.3 -159.55 L-42.2 -162.65 Z" fill="none" stroke="#9f0101" stroke-linecap="round" stroke-linejoin="round" stroke-width="8.0"/>
    <path d="M-69.95 -163.75 Q-64.85 -161.65 -60.5 -161.25 -52.25 -160.5 -38.6 -166.3 -31.75 -169.2 -26.55 -172.25 L-5.1 -141.9 Q-15.95 -131.9 -29.1 -122.3 -55.35 -103.15 -66.85 -105.4 -72.95 -106.6 -80.3 -111.6 -84.5 -114.55 -92.65 -121.55 -100.2 -128.1 -103.7 -130.3 -109.25 -133.7 -112.95 -132.6 -116.45 -131.5 -120.9 -127.2 L-128.8 -118.5 Q-133.7 -113.0 -137.2 -110.55 -142.0 -107.1 -146.6 -107.3 -155.1 -107.55 -159.5 -113.25 -160.9 -115.05 -161.75 -117.2 L-162.3 -118.9 -161.15 -118.2 Q-159.65 -117.5 -157.8 -117.2 -151.95 -116.25 -145.2 -120.1 -141.6 -122.1 -133.95 -130.1 -130.0 -134.25 -118.95 -146.55 -109.1 -157.6 -104.25 -162.45 -96.85 -169.85 -93.6 -171.0 -90.25 -172.15 -86.2 -171.1 -83.3 -170.3 -78.4 -167.85 -71.95 -164.55 -69.95 -163.75" fill="#ff0000" fill-rule="evenodd" stroke="none"/>
    <path d="M-69.95 -163.75 Q-71.95 -164.55 -78.4 -167.85 -83.3 -170.3 -86.2 -171.1 -90.25 -172.15 -93.6 -171.0 -96.85 -169.85 -104.25 -162.45 -109.1 -157.6 -118.95 -146.55 -130.0 -134.25 -133.95 -130.1 -141.6 -122.1 -145.2 -120.1 -151.95 -116.25 -157.8 -117.2 -159.65 -117.5 -161.15 -118.2 L-162.3 -118.9 -161.75 -117.2 Q-160.9 -115.05 -159.5 -113.25 -155.1 -107.55 -146.6 -107.3 -142.0 -107.1 -137.2 -110.55 -133.7 -113.0 -128.8 -118.5 L-120.9 -127.2 Q-116.45 -131.5 -112.95 -132.6 -109.25 -133.7 -103.7 -130.3 -100.2 -128.1 -92.65 -121.55 -84.5 -114.55 -80.3 -111.6 -72.95 -106.6 -66.85 -105.4 -55.35 -103.15 -29.1 -122.3 -15.95 -131.9 -5.1 -141.9 L-26.55 -172.25 Q-31.75 -169.2 -38.6 -166.3 -52.25 -160.5 -60.5 -161.25 -64.85 -161.65 -69.95 -163.75 Z" fill="none" stroke="#9f0101" stroke-linecap="round" stroke-linejoin="round" stroke-width="8.0"/>
    <path d="M-69.95 -163.75 Q-64.85 -161.65 -60.5 -161.25 -52.25 -160.5 -38.6 -166.3 -31.75 -169.2 -26.55 -172.25 L-5.1 -141.9 Q-15.95 -131.9 -29.1 -122.3 -55.35 -103.15 -66.85 -105.4 -72.95 -106.6 -80.3 -111.6 -84.5 -114.55 -92.65 -121.55 -100.2 -128.1 -103.7 -130.3 -109.25 -133.7 -112.95 -132.6 -116.45 -131.5 -120.9 -127.2 L-128.8 -118.5 Q-133.7 -113.0 -137.2 -110.55 -142.0 -107.1 -146.6 -107.3 -155.1 -107.55 -159.5 -113.25 -160.9 -115.05 -161.75 -117.2 L-162.3 -118.9 -161.15 -118.2 Q-159.65 -117.5 -157.8 -117.2 -151.95 -116.25 -145.2 -120.1 -141.6 -122.1 -133.95 -130.1 -130.0 -134.25 -118.95 -146.55 -109.1 -157.6 -104.25 -162.45 -96.85 -169.85 -93.6 -171.0 -90.25 -172.15 -86.2 -171.1 -83.3 -170.3 -78.4 -167.85 -71.95 -164.55 -69.95 -163.75" fill="#ff0000" fill-rule="evenodd" stroke="none"/>
    <path d="M-42.2 -162.65 L-33.1 -119.35 Q-56.25 -103.35 -66.8 -105.4 -72.9 -106.55 -80.3 -111.65 -84.5 -114.5 -92.65 -121.6 -100.15 -128.15 -103.65 -130.25 -109.15 -133.75 -112.85 -132.6 -116.5 -131.5 -120.85 -127.2 L-128.8 -118.5 Q-133.7 -113.05 -137.15 -110.55 -139.7 -108.75 -142.25 -107.9 L-142.3 -107.8 Q-135.9 -113.95 -134.4 -120.15 -133.85 -122.6 -133.4 -127.25 L-132.4 -136.95 Q-128.85 -164.55 -114.2 -168.45 -110.2 -169.55 -105.05 -166.55 -101.35 -164.35 -95.7 -159.0 L-86.6 -150.4 Q-81.5 -146.1 -78.05 -145.3 -71.35 -143.8 -56.1 -153.1 -51.35 -155.95 -46.3 -159.55 L-42.2 -162.65" fill="#cd0303" fill-rule="evenodd" stroke="none"/>
  </g>
</svg>
