<?xml version="1.0" encoding="UTF-8" standalone="no"?>
<svg xmlns:xlink="http://www.w3.org/1999/xlink" height="23.15px" width="45.6px" xmlns="http://www.w3.org/2000/svg">
  <g transform="matrix(1.0, 0.0, 0.0, 1.0, 22.8, 11.55)">
    <path d="M-17.0 -6.55 Q-16.75 -6.5 -16.55 -6.25 -3.7 9.2 16.9 3.75 L17.4 3.8 17.75 4.25 17.7 4.75 17.25 5.1 Q-4.25 10.8 -17.6 -5.4 L-17.8 -5.9 -17.5 -6.35 -17.0 -6.55" fill="#8a1d00" fill-rule="evenodd" stroke="none"/>
    <path d="M-17.0 -6.55 L-17.5 -6.35 -17.8 -5.9 -17.6 -5.4 Q-4.25 10.8 17.25 5.1 L17.7 4.75 17.75 4.25 17.4 3.8 16.9 3.75 Q-3.7 9.2 -16.55 -6.25 -16.75 -6.5 -17.0 -6.55 Z" fill="none" stroke="#a8620f" stroke-linecap="round" stroke-linejoin="round" stroke-width="10.0"/>
    <path d="M-17.0 -6.55 Q-16.75 -6.5 -16.55 -6.25 -3.7 9.2 16.9 3.75 L17.4 3.8 17.75 4.25 17.7 4.75 17.25 5.1 Q-4.25 10.8 -17.6 -5.4 L-17.8 -5.9 -17.5 -6.35 -17.0 -6.55" fill="#8a1d00" fill-rule="evenodd" stroke="none"/>
    <path d="M-17.0 -6.55 L-17.5 -6.35 -17.8 -5.9 -17.6 -5.4 Q-4.25 10.8 17.25 5.1 L17.7 4.75 17.75 4.25 17.4 3.8 16.9 3.75 Q-3.7 9.2 -16.55 -6.25 -16.75 -6.5 -17.0 -6.55 Z" fill="none" stroke="#8a1d00" stroke-linecap="round" stroke-linejoin="round" stroke-width="1.0"/>
  </g>
</svg>
