<?xml version="1.0" encoding="UTF-8" standalone="no"?>
<svg xmlns:xlink="http://www.w3.org/1999/xlink" height="76.2px" width="61.25px" xmlns="http://www.w3.org/2000/svg">
  <g transform="matrix(1.0, 0.0, 0.0, 1.0, -2.25, 12.8)">
    <path d="M10.8 -12.8 L10.8 -12.75 10.9 -12.05 Q10.95 -11.55 11.4 -11.45 L11.5 -11.45 11.55 -11.2 11.6 -10.7 11.7 -10.2 Q11.8 -9.85 12.15 -9.9 L12.25 -9.95 12.35 -10.05 12.4 -9.8 12.65 -9.4 12.8 -9.35 13.05 -9.35 13.2 -9.4 13.35 -9.55 13.45 -9.3 14.2 -7.5 14.85 -5.85 Q15.75 -5.65 16.1 -4.75 L16.9 -3.0 17.9 -1.45 17.95 -1.35 18.3 -1.95 19.65 -4.35 20.5 -6.35 21.25 -7.8 21.25 -7.6 Q21.2 -6.9 21.75 -6.65 21.85 -6.4 22.35 -6.5 L22.65 -7.1 22.8 -6.75 23.35 -5.35 23.9 -3.95 23.95 -3.85 24.65 -4.7 25.4 -6.05 25.7 -6.45 25.85 -6.05 26.25 -5.15 Q26.55 -4.35 27.15 -4.85 L27.3 -5.2 27.65 -3.9 Q27.8 -3.05 28.2 -2.25 28.45 -1.7 28.95 -1.5 L29.8 -3.65 30.9 -6.0 31.5 -7.55 32.15 -8.0 32.8 -9.35 32.95 -9.65 Q33.5 -8.8 33.6 -7.7 33.8 -6.35 34.25 -5.05 L35.2 -2.4 36.1 -0.6 36.5 -1.4 36.95 -2.4 37.35 -3.35 Q37.45 -3.9 37.9 -4.15 L37.95 -4.15 38.0 -4.25 38.4 -5.7 38.4 -5.8 38.45 -5.8 38.7 -5.7 39.1 -5.75 39.4 -6.1 39.85 -6.55 40.1 -6.7 40.15 -6.85 40.25 -7.15 Q41.1 -6.4 41.5 -5.25 41.85 -4.0 42.45 -2.85 L43.3 -1.1 43.75 -1.75 44.8 -3.3 Q45.3 -4.05 45.95 -4.3 L46.0 -4.25 46.1 -4.35 46.15 -4.35 46.35 -4.4 46.4 -4.45 46.7 -4.15 46.85 -4.5 47.05 -4.5 47.2 -4.5 47.35 -4.7 47.55 -5.2 47.8 -5.7 47.85 -5.8 48.4 -4.95 48.4 -4.9 48.5 -5.25 49.2 -7.3 49.35 -7.6 49.5 -7.4 49.7 -6.85 Q49.85 -6.4 50.15 -6.0 50.45 -5.6 50.85 -5.55 50.9 -5.45 51.05 -5.4 L51.25 -5.55 51.5 -5.6 51.65 -5.65 51.95 -6.3 52.0 -6.6 52.5 -5.9 52.7 -5.95 52.9 -6.05 53.0 -6.1 54.05 -3.7 54.3 -3.25 54.95 -2.1 55.0 -2.0 55.25 -1.6 55.6 -0.9 55.8 -0.6 56.15 -0.4 56.25 -0.3 56.5 -0.25 56.75 -0.2 56.85 -0.3 56.85 -0.2 56.85 -0.15 56.9 -0.05 56.95 0.05 Q57.3 0.15 57.5 -0.2 L57.9 -0.95 58.4 -1.7 58.8 -2.35 58.9 -2.2 59.1 -1.95 59.35 -1.85 59.45 -1.8 60.05 -2.45 60.1 -2.45 60.6 -1.7 61.2 -0.5 Q61.55 0.1 62.1 0.25 L63.15 1.55 Q63.5 1.9 63.5 2.4 60.35 7.25 54.0 8.05 L50.55 8.45 Q29.7 10.8 8.7 9.05 6.75 8.9 5.05 8.1 3.4 7.35 2.6 5.7 1.85 4.35 2.8 2.9 L4.15 0.7 Q4.3 -0.35 5.05 -1.4 6.3 -3.3 7.2 -5.35 L9.1 -9.5 10.8 -12.8 M10.9 -11.4 L10.85 -11.45 10.85 -11.4 10.9 -11.4 M40.8 0.35 L40.75 0.4 41.2 0.75 40.9 0.45 40.85 0.35 40.8 0.35 M17.25 2.8 L17.65 4.9 Q18.8 4.65 19.7 3.8 L20.65 2.9 17.25 2.8 M25.1 3.25 L25.65 3.0 24.85 3.0 25.1 3.25 M37.9 2.9 L40.8 2.95 37.9 2.9" fill="url(#gradient0)" fill-rule="evenodd" stroke="none"/>
    <path d="M53.35 35.45 L54.8 37.5 56.4 39.6 Q57.05 40.35 58.1 40.25 L58.25 40.1 58.4 39.9 58.5 39.8 58.65 39.75 58.9 39.7 59.35 39.75 59.7 39.8 60.15 40.5 60.4 41.5 60.85 42.65 61.35 43.75 61.55 44.5 61.85 45.7 Q61.9 46.4 62.35 46.95 L63.0 48.05 62.95 48.35 62.85 48.7 62.75 49.2 62.75 49.7 62.55 50.2 Q36.6 53.4 10.6 50.4 8.5 50.15 6.65 49.55 4.6 48.8 3.55 47.0 3.7 46.5 4.2 46.15 L5.25 45.45 6.4 44.6 Q6.95 43.25 8.05 42.15 L10.3 39.8 12.9 36.95 14.85 34.55 15.05 34.3 15.15 34.25 15.4 34.2 15.75 34.15 15.75 34.1 Q17.0 34.9 17.85 36.15 L19.7 38.3 21.75 40.45 22.35 41.2 Q22.55 40.95 22.9 40.8 L23.8 40.3 25.05 39.35 25.25 39.25 Q26.3 39.1 27.2 39.65 L28.85 40.75 Q29.65 41.25 30.55 41.35 L32.5 41.5 33.15 41.15 Q33.6 40.7 34.2 40.6 35.05 40.5 35.7 41.25 L36.45 41.75 36.95 42.25 37.0 42.35 38.35 41.95 39.7 41.55 39.7 41.5 Q40.4 41.5 40.7 42.15 L41.3 43.2 41.65 43.65 43.15 41.8 46.05 38.85 Q47.35 37.6 48.25 36.15 49.3 34.55 51.1 34.3 52.45 34.4 53.35 35.45" fill="url(#gradient1)" fill-rule="evenodd" stroke="none"/>
    <path d="M31.95 55.65 L33.5 55.2 34.95 54.4 Q35.75 54.0 36.7 54.1 L36.85 54.2 38.0 54.9 38.8 55.25 Q39.1 55.35 39.25 55.55 L39.8 55.0 41.65 53.4 43.3 51.85 Q44.05 50.9 45.15 50.3 L45.15 50.35 45.45 50.4 45.7 50.45 45.8 50.45 45.95 50.65 47.7 52.4 50.0 54.5 52.0 56.25 Q53.0 57.05 53.5 58.05 L54.5 58.7 55.45 59.2 Q55.9 59.45 56.05 59.85 55.1 61.15 53.25 61.7 L49.75 62.35 Q26.55 64.55 3.45 62.2 L3.25 61.85 3.25 61.45 3.15 61.1 3.1 60.85 3.05 60.6 Q3.25 60.15 3.6 59.8 L4.05 58.9 4.35 58.0 Q4.35 57.7 4.5 57.45 L4.95 56.65 5.35 55.8 5.55 55.05 Q5.7 54.7 6.0 54.5 L6.3 54.5 6.7 54.45 6.9 54.5 7.05 54.5 7.15 54.6 7.25 54.75 7.4 54.85 Q8.35 54.95 8.9 54.4 L10.35 52.85 11.65 51.3 Q12.45 50.55 13.65 50.45 15.25 50.65 16.2 51.85 17.0 52.9 18.15 53.8 L20.75 56.0 22.05 57.35 22.4 57.05 22.9 56.25 Q23.2 55.8 23.8 55.8 L25.0 56.1 26.2 56.4 26.25 56.35 26.7 55.95 27.35 55.6 Q27.95 55.05 28.7 55.1 L29.65 55.5 30.2 55.8 31.95 55.65" fill="url(#gradient2)" fill-rule="evenodd" stroke="none"/>
  </g>
  <defs>
    <linearGradient gradientTransform="matrix(0.0, 0.0159, -0.0141, 0.0, 33.3, -10.05)" gradientUnits="userSpaceOnUse" id="gradient0" spreadMethod="pad" x1="-819.2" x2="819.2">
      <stop offset="0.0" stop-color="#000000"/>
      <stop offset="1.0" stop-color="#999999"/>
    </linearGradient>
    <linearGradient gradientTransform="matrix(1.0E-4, 0.0166, -0.0236, 1.0E-4, 32.65, 32.05)" gradientUnits="userSpaceOnUse" id="gradient1" spreadMethod="pad" x1="-819.2" x2="819.2">
      <stop offset="0.0" stop-color="#000000"/>
      <stop offset="1.0" stop-color="#999999"/>
    </linearGradient>
    <linearGradient gradientTransform="matrix(-1.0E-4, 0.0123, 0.021, 1.0E-4, 30.1, 48.8)" gradientUnits="userSpaceOnUse" id="gradient2" spreadMethod="pad" x1="-819.2" x2="819.2">
      <stop offset="0.0" stop-color="#000000"/>
      <stop offset="1.0" stop-color="#999999"/>
    </linearGradient>
  </defs>
</svg>
