<?xml version="1.0" encoding="UTF-8" standalone="no"?>
<svg xmlns:xlink="http://www.w3.org/1999/xlink" height="4.3px" width="23.6px" xmlns="http://www.w3.org/2000/svg">
  <g transform="matrix(1.0, 0.0, 0.0, 1.0, -0.2, -0.55)">
    <path d="M23.2 2.25 L23.2 2.2 23.5 2.35 23.65 2.45 23.75 2.6 23.8 2.9 23.8 3.05 23.75 3.2 23.45 3.45 Q23.05 3.75 22.75 3.3 L22.5 3.65 Q22.05 4.15 21.4 3.9 L21.05 3.45 21.0 3.3 21.0 3.15 21.0 3.0 21.05 2.85 21.15 2.7 21.3 2.55 21.45 2.5 21.0 2.2 20.9 1.95 20.9 1.8 20.95 1.65 21.15 1.35 21.35 1.25 21.8 1.15 21.8 1.1 22.0 1.1 22.35 1.25 22.5 1.35 22.65 1.65 22.7 1.8 22.6 2.1 22.2 2.5 22.5 2.65 22.6 2.8 22.6 2.75 22.6 2.6 22.7 2.45 22.85 2.35 23.2 2.25 M20.5 1.9 L20.7 2.15 20.9 2.6 Q20.9 3.1 20.4 3.15 L19.5 3.25 18.95 3.1 18.6 3.35 Q18.15 3.4 18.05 3.05 L17.25 2.9 17.1 2.8 16.7 3.25 15.45 3.3 15.35 3.25 Q14.45 4.2 12.95 3.95 11.85 3.85 11.05 2.9 L11.0 2.85 10.2 2.95 9.8 2.9 9.55 3.05 7.95 2.95 7.8 2.8 7.6 2.75 7.35 2.85 6.9 3.0 6.9 3.05 7.05 3.35 7.05 3.5 7.0 3.65 6.7 3.95 6.25 4.1 5.8 4.35 4.6 4.5 Q3.8 4.45 3.3 3.8 L3.2 3.4 3.3 3.0 3.15 3.05 2.6 3.3 2.1 3.2 1.6 3.4 Q1.25 3.4 1.05 3.2 L1.0 3.2 0.8 3.2 0.45 3.05 0.35 2.95 0.2 2.65 0.2 2.5 0.25 2.35 0.35 2.2 0.45 2.1 0.55 2.05 0.8 2.05 0.8 2.0 1.0 2.0 1.3 2.15 1.45 2.25 1.6 2.2 1.8 2.25 2.1 2.05 2.4 1.9 2.6 1.9 2.65 1.9 2.75 1.85 2.95 1.8 3.2 1.8 3.2 1.75 3.45 1.85 3.45 1.7 3.6 1.55 3.75 1.4 3.95 1.3 4.2 1.25 4.4 1.25 4.75 1.4 5.0 1.6 5.1 1.5 5.15 1.5 5.2 1.4 5.3 1.25 5.65 1.0 6.2 0.8 6.6 0.85 7.15 1.05 7.3 1.15 7.35 1.2 7.45 0.95 7.6 0.8 7.8 0.7 8.2 0.6 8.2 0.55 8.6 0.7 8.8 0.8 8.9 0.95 8.95 1.1 9.05 1.4 9.05 1.45 9.1 1.35 9.3 1.3 9.6 1.25 9.6 1.2 10.75 1.25 11.25 1.35 11.3 1.25 11.6 1.1 11.8 1.0 12.2 0.95 12.2 0.9 12.6 0.95 13.0 1.05 13.35 1.3 13.6 1.6 13.65 1.7 13.8 1.65 14.3 1.45 Q14.85 1.25 15.4 1.45 L15.45 1.45 15.5 1.35 15.7 1.3 16.0 1.25 16.0 1.2 16.2 1.2 16.5 1.35 16.85 1.6 16.95 1.8 17.0 1.75 17.4 1.6 17.6 1.65 18.05 1.8 18.3 1.95 18.55 2.2 18.6 2.65 18.9 2.9 19.05 2.7 18.95 2.55 18.9 2.45 18.9 2.3 18.95 2.15 19.1 2.0 19.45 1.8 19.8 1.7 19.8 1.65 20.0 1.65 20.35 1.75 20.5 1.9 M9.15 3.35 L9.4 3.25 Q9.9 3.3 9.95 3.8 L9.6 4.45 8.95 4.8 Q8.6 5.0 8.35 4.65 L8.3 4.35 Q8.35 4.1 8.55 3.9 L8.95 3.45 9.15 3.35" fill="#ffffff" fill-rule="evenodd" stroke="none"/>
  </g>
</svg>
