<?xml version="1.0" encoding="UTF-8" standalone="no"?>
<svg xmlns:xlink="http://www.w3.org/1999/xlink" height="28.6px" width="32.4px" xmlns="http://www.w3.org/2000/svg">
  <g transform="matrix(1.0, 0.0, 0.0, 1.0, 3.75, 2.35)">
    <path d="M23.85 12.8 L24.5 13.45 25.05 14.1 25.05 14.15 24.8 14.55 25.1 14.85 25.1 15.9 24.9 18.0 24.25 18.9 Q25.35 20.3 25.35 21.65 L25.3 22.45 Q24.95 22.95 23.05 22.95 L22.95 22.95 Q20.95 22.95 19.25 22.25 L19.2 22.25 18.05 22.55 15.55 22.75 12.8 22.4 12.7 22.35 11.15 23.95 Q9.45 25.35 7.75 25.55 6.35 26.25 5.5 26.25 2.5 26.25 1.1 23.75 L1.2 23.4 1.0 23.35 1.15 23.25 1.25 23.2 Q1.45 22.8 1.85 22.8 L2.3 23.05 2.9 23.0 4.1 23.25 5.3 23.5 5.5 23.5 6.05 23.1 Q8.6 21.2 9.4 21.25 8.35 20.7 8.15 20.2 8.05 19.9 8.3 19.4 8.55 18.85 13.7 16.7 L18.05 14.95 20.4 14.0 20.95 13.8 19.8 12.8 19.75 12.75 Q21.15 10.45 23.65 12.65 L23.85 12.8" fill="#000000" fill-opacity="0.2" fill-rule="evenodd" stroke="none"/>
    <path d="M7.05 -0.5 L6.35 0.45 5.95 1.1 5.75 1.45 Q5.6 1.85 5.6 2.3 L5.6 2.45 5.7 3.1 5.9 3.7 6.05 4.0 Q6.4 4.55 7.1 4.9 L7.55 5.05 7.7 5.1 8.7 5.5 Q10.0 3.95 12.4 3.55 14.2 3.25 15.8 3.55 16.95 3.55 18.45 5.15 L19.0 5.75 19.2 6.05 19.75 5.9 20.45 5.75 21.1 5.4 21.35 5.25 21.7 4.75 21.95 4.05 22.05 3.65 22.2 2.65 22.1 1.75 22.1 1.65 Q21.9 0.7 21.3 -0.15 21.3 -0.95 23.4 0.1 25.35 1.05 25.95 1.75 26.85 2.8 27.1 4.15 L27.15 4.5 27.15 5.15 Q27.15 6.5 25.9 8.55 L25.8 8.75 25.55 9.1 Q24.0 11.2 21.6 11.6 L21.2 11.65 21.2 11.7 21.2 11.9 Q21.2 13.65 20.4 15.2 19.2 17.55 16.55 17.8 L14.4 17.8 10.55 20.15 Q9.7 20.65 9.2 21.05 L9.05 21.2 9.0 21.25 8.7 21.6 8.55 21.9 8.4 22.8 7.6 23.55 7.6 23.45 Q7.6 22.75 6.95 22.7 6.3 22.6 6.3 23.45 L6.3 23.55 5.0 23.55 4.95 23.1 Q4.95 21.55 4.3 21.5 3.65 21.45 3.65 23.1 L3.6 23.45 2.85 23.45 Q2.75 22.55 2.2 22.4 1.5 22.25 1.5 23.4 L1.3 23.35 Q-0.15 23.2 -0.25 21.25 -0.25 20.75 -0.95 20.45 L-1.75 20.15 -2.2 19.45 -2.25 18.85 Q-1.9 16.3 -0.05 16.3 L0.75 16.4 1.25 16.85 4.5 14.1 6.0 12.9 Q5.25 12.6 4.95 11.7 L4.75 10.3 4.75 10.1 Q3.55 9.7 2.75 8.7 L2.4 8.2 2.15 7.8 Q1.25 6.15 1.25 4.55 L1.3 3.8 1.4 3.0 Q1.6 2.15 2.0 1.55 2.7 0.55 4.15 -0.05 L4.1 -0.05 4.4 -0.2 4.7 -0.3 6.75 -0.85 7.05 -0.5" fill="#bcb37a" fill-rule="evenodd" stroke="none"/>
    <path d="M7.05 -0.5 L6.35 0.45 5.95 1.1 5.75 1.45 Q5.6 1.85 5.6 2.3 L5.6 2.45 5.7 3.1 5.9 3.7 6.05 4.0 Q6.4 4.55 7.1 4.9 L7.55 5.05 7.7 5.1 8.7 5.5 Q10.0 3.95 12.4 3.55 14.2 3.25 15.8 3.55 16.95 3.55 18.45 5.15 L19.0 5.75 19.2 6.05 19.75 5.9 20.45 5.75 21.1 5.4 21.35 5.25 21.7 4.75 21.95 4.05 22.05 3.65 22.2 2.65 22.1 1.75 22.1 1.65 Q21.9 0.7 21.3 -0.15 21.3 -0.95 23.4 0.1 25.35 1.05 25.95 1.75 26.85 2.8 27.1 4.15 L27.15 4.5 27.15 5.15 Q27.15 6.5 25.9 8.55 L25.8 8.75 25.55 9.1 Q24.0 11.2 21.6 11.6 L21.2 11.65 21.2 11.7 21.2 11.9 Q21.2 13.65 20.4 15.2 19.2 17.55 16.55 17.8 L14.4 17.8 10.55 20.15 Q9.7 20.65 9.2 21.05 L9.05 21.2 9.0 21.25 8.7 21.6 8.55 21.9 8.4 22.8 7.6 23.55 7.6 23.45 Q7.6 22.75 6.95 22.7 6.3 22.6 6.3 23.45 L6.3 23.55 5.0 23.55 4.95 23.1 Q4.95 21.55 4.3 21.5 3.65 21.45 3.65 23.1 L3.6 23.45 2.85 23.45 Q2.75 22.55 2.2 22.4 1.5 22.25 1.5 23.4 L1.3 23.35 Q-0.15 23.2 -0.25 21.25 -0.25 20.75 -0.95 20.45 L-1.75 20.15 -2.2 19.45 -2.25 18.85 Q-1.9 16.3 -0.05 16.3 L0.75 16.4 1.25 16.85 4.5 14.1 6.0 12.9 Q5.25 12.6 4.95 11.7 L4.75 10.3 4.75 10.1 Q3.55 9.7 2.75 8.7 L2.4 8.2 2.15 7.8 Q1.25 6.15 1.25 4.55 L1.3 3.8 1.4 3.0 Q1.6 2.15 2.0 1.55 2.7 0.55 4.15 -0.05 L4.1 -0.05 4.4 -0.2 4.7 -0.3 6.75 -0.85 7.05 -0.5 Z" fill="none" stroke="#5e582f" stroke-linecap="round" stroke-linejoin="round" stroke-width="3.0"/>
    <path d="M4.15 -0.05 Q5.05 0.3 5.6 1.15 L5.75 1.45 Q5.6 1.85 5.6 2.3 L5.6 2.45 4.9 2.25 3.3 2.25 Q2.25 2.45 1.4 3.0 1.6 2.15 2.0 1.55 2.7 0.55 4.15 -0.05 M5.95 1.1 L5.6 0.55 4.7 -0.3 6.75 -0.85 7.05 -0.5 6.35 0.45 5.95 1.1 M5.7 3.1 L5.9 3.7 5.0 4.1 Q3.6 4.95 3.25 5.9 L2.6 7.45 2.4 8.2 2.15 7.8 Q1.25 6.15 1.25 4.55 L1.3 3.8 Q2.65 2.85 3.3 2.7 L4.85 2.7 5.7 3.1 M6.05 4.0 Q6.4 4.55 7.1 4.9 L6.4 6.3 Q5.75 7.9 5.75 8.4 L5.95 8.9 Q6.1 7.3 7.55 5.05 L7.7 5.1 Q9.8 5.7 9.8 6.85 9.8 9.1 9.25 9.75 8.65 10.4 6.65 10.4 4.15 10.4 2.75 8.7 L3.35 6.55 Q3.4 6.1 4.35 5.1 5.3 4.15 6.05 4.0" fill="#e4e4ba" fill-rule="evenodd" stroke="none"/>
    <path d="M4.15 -0.05 L4.1 -0.05 4.4 -0.2 4.7 -0.3 5.6 0.55 5.95 1.1 5.75 1.45 5.6 1.15 Q5.05 0.3 4.15 -0.05 M5.6 2.45 L5.7 3.1 4.85 2.7 3.3 2.7 Q2.65 2.85 1.3 3.8 L1.4 3.0 Q2.25 2.45 3.3 2.25 L4.9 2.25 5.6 2.45 M5.9 3.7 L6.05 4.0 Q5.3 4.15 4.35 5.1 3.4 6.1 3.35 6.55 L2.75 8.7 2.4 8.2 2.6 7.45 3.25 5.9 Q3.6 4.95 5.0 4.1 L5.9 3.7 M7.1 4.9 L7.55 5.05 Q6.1 7.3 5.95 8.9 L5.75 8.4 Q5.75 7.9 6.4 6.3 L7.1 4.9" fill="#bcb37a" fill-rule="evenodd" stroke="none"/>
    <path d="M5.65 10.35 Q4.0 10.05 2.9 8.85 L2.75 8.7 2.4 8.2 2.15 7.8 1.85 7.15 Q1.3 5.95 1.25 4.8 L1.25 4.75 1.25 4.55 1.3 3.8 1.3 3.75 Q1.5 4.5 2.15 5.35 3.3 6.9 4.75 6.9 5.3 6.9 6.3 5.45 L7.1 4.9 7.55 5.05 7.7 5.1 Q9.55 5.65 9.8 6.6 8.05 10.1 7.5 10.1 L7.2 9.9 7.2 9.65 7.3 9.2 7.3 9.15 6.45 10.4 5.65 10.35 5.65 10.3 5.65 10.35" fill="#000000" fill-opacity="0.2" fill-rule="evenodd" stroke="none"/>
    <path d="M5.65 10.35 L5.65 10.3 5.65 10.35 M6.45 10.4 L7.3 9.15 7.3 9.2 7.2 9.65 7.2 9.9 7.5 10.1 Q8.05 10.1 9.8 6.6 L9.8 6.85 Q9.8 9.1 9.25 9.75 8.65 10.4 6.65 10.4 L6.45 10.4" fill="#bcb37a" fill-rule="evenodd" stroke="none"/>
    <path d="M20.4 15.2 Q19.2 17.55 16.55 17.8 L14.4 17.8 10.55 20.15 Q8.6 21.25 8.55 21.9 L8.4 22.8 7.6 23.55 7.6 23.45 Q7.6 22.75 6.95 22.7 6.3 22.6 6.3 23.45 L6.3 23.55 5.0 23.55 4.95 23.1 Q4.95 21.55 4.3 21.5 3.65 21.45 3.65 23.1 L3.6 23.45 2.85 23.45 Q2.75 22.55 2.2 22.4 1.5 22.25 1.5 23.4 L1.3 23.35 Q-0.15 23.2 -0.25 21.25 -0.25 20.75 -0.95 20.45 L-1.75 20.15 -2.2 19.45 -2.25 18.85 Q-1.9 16.3 -0.05 16.3 L0.75 16.4 1.25 16.85 4.5 14.1 6.0 12.9 Q5.25 12.6 4.95 11.7 L4.75 10.3 Q4.75 7.75 6.75 7.0 L7.9 6.75 Q9.15 4.1 12.4 3.55 14.2 3.25 15.8 3.55 16.95 3.55 18.45 5.15 19.65 6.45 20.3 7.75 21.2 9.5 21.2 11.9 21.2 13.65 20.4 15.2" fill="#f7f7ea" fill-rule="evenodd" stroke="none"/>
    <path d="M20.25 7.65 L20.3 7.75 20.95 9.45 21.2 11.05 21.1 10.3 20.95 10.45 20.95 10.4 21.05 10.05 20.95 9.45 20.7 9.3 20.15 9.25 19.65 10.1 19.45 10.5 19.7 8.35 19.6 7.15 19.65 6.9 20.25 7.65" fill="#ffffff" fill-rule="evenodd" stroke="none"/>
    <path d="M21.2 11.05 L21.2 11.7 21.2 11.9 Q21.2 13.65 20.4 15.2 19.2 17.55 16.55 17.8 L14.4 17.8 10.55 20.15 Q9.7 20.65 9.2 21.05 L9.05 21.2 9.0 21.25 8.7 21.6 8.2 20.1 8.45 19.7 8.65 19.2 Q8.65 17.85 7.7 17.4 L7.2 17.3 7.2 17.25 7.75 17.15 8.0 17.15 8.3 17.3 8.85 17.75 Q9.35 18.15 9.65 18.15 10.6 18.15 11.45 17.2 L11.85 16.7 13.65 15.75 12.65 14.7 Q13.2 15.15 14.65 15.15 15.4 15.15 15.95 14.55 L16.6 14.15 Q17.8 13.3 18.4 11.7 L19.1 8.6 18.95 7.05 18.6 6.25 18.35 5.55 18.55 5.25 19.0 5.75 20.05 7.3 20.25 7.65 19.65 6.9 19.6 7.15 19.7 8.35 19.45 10.5 19.65 10.1 20.15 9.25 20.7 9.3 20.95 9.45 21.05 10.05 20.95 10.4 20.95 10.45 21.1 10.3 21.2 11.05" fill="#cccccc" fill-rule="evenodd" stroke="none"/>
    <path d="M8.7 21.6 L8.55 21.9 8.4 22.8 7.6 23.55 7.6 23.45 Q7.6 22.75 6.95 22.7 6.3 22.6 6.3 23.45 L6.3 23.55 5.0 23.55 4.95 23.1 Q4.95 21.55 4.3 21.5 3.65 21.45 3.65 23.1 L3.6 23.45 2.85 23.45 Q2.75 22.55 2.2 22.4 1.5 22.25 1.5 23.4 L1.3 23.35 Q-0.15 23.2 -0.25 21.25 -0.25 20.75 -0.95 20.45 L-1.75 20.15 -2.2 19.45 -2.25 18.85 Q-1.9 16.3 -0.05 16.3 L0.75 16.4 1.25 16.85 4.5 14.1 6.0 12.9 Q5.25 12.6 4.95 11.7 L4.75 10.3 Q4.75 7.75 6.75 7.0 L7.9 6.75 Q9.15 4.1 12.4 3.55 14.2 3.25 15.8 3.55 16.95 3.55 18.45 5.15 L19.0 5.75 18.55 5.25 18.35 5.55 18.6 6.25 18.95 7.05 19.1 8.6 18.4 11.7 Q17.8 13.3 16.6 14.15 L15.95 14.55 Q16.5 14.0 16.9 12.9 16.9 12.45 16.45 12.3 L16.1 12.3 15.95 12.15 Q15.55 11.85 15.15 12.4 14.95 13.45 13.65 13.45 L13.25 13.45 12.9 13.3 12.8 13.3 12.45 13.1 Q11.8 13.1 11.8 13.8 11.8 14.45 12.6 14.7 L12.65 14.7 13.65 15.75 11.85 16.7 12.1 16.05 11.75 15.45 Q11.4 15.2 10.95 15.65 L10.4 16.5 10.1 16.25 9.05 15.85 7.75 15.85 7.65 15.85 7.6 15.85 6.35 16.15 Q6.1 16.3 6.1 16.7 L6.2 17.05 Q6.35 17.35 6.8 17.35 L7.2 17.3 7.7 17.4 Q8.65 17.85 8.65 19.2 L8.45 19.7 8.2 20.1 8.7 21.6" fill="#f7f7ea" fill-rule="evenodd" stroke="none"/>
    <path d="M13.9 8.85 Q15.3 8.85 15.8 9.95 L16.05 11.2 Q16.05 13.6 14.05 13.6 11.65 13.6 11.65 11.45 11.65 10.65 12.0 10.0 12.55 8.85 13.9 8.85 M7.65 8.25 Q9.45 8.25 10.0 9.05 L10.2 10.15 Q10.2 12.65 8.3 12.65 6.1 12.65 5.95 10.5 5.95 8.25 7.65 8.25" fill="#3f3a1f" fill-rule="evenodd" stroke="none"/>
    <path d="M1.35 18.9 Q1.35 19.95 0.35 19.95 -1.05 19.95 -0.7 18.85 -0.7 17.8 0.35 17.75 1.35 17.75 1.35 18.9 M6.4 20.6 Q5.2 20.6 5.3 19.55 5.3 18.35 6.45 18.35 7.55 18.35 7.55 19.35 7.55 20.6 6.4 20.6" fill="#5e582f" fill-rule="evenodd" stroke="none"/>
    <path d="M21.95 4.05 L22.45 4.45 Q23.35 5.0 24.9 5.05 L26.4 4.8 27.15 4.5 27.15 5.15 Q27.15 6.5 25.9 8.55 L25.8 8.75 25.75 8.7 25.4 8.7 24.7 8.9 Q22.75 8.9 21.85 7.05 L21.35 5.25 21.7 4.75 21.95 4.05 M27.1 4.15 L27.05 4.15 Q26.35 4.7 25.25 4.7 23.6 4.7 22.65 4.15 L22.05 3.65 22.2 2.65 22.1 1.75 22.15 1.95 22.2 1.95 22.8 2.05 Q23.5 2.05 24.1 1.45 L24.6 0.75 24.25 0.55 23.85 1.15 22.9 1.65 22.5 1.65 22.1 1.65 Q21.9 0.7 21.3 -0.15 21.3 -0.95 23.4 0.1 25.35 1.05 25.95 1.75 26.85 2.8 27.1 4.15 M19.75 5.9 L20.45 5.75 21.1 5.4 21.1 5.55 Q21.1 6.35 21.8 7.5 22.85 9.25 24.7 9.25 L25.35 9.15 25.55 9.1 Q24.0 11.2 21.6 11.6 19.3 10.2 19.3 7.9 L19.35 6.75 19.75 5.9 M20.6 11.65 L20.5 11.65 Q18.25 11.65 17.55 10.4 L17.45 10.05 17.25 9.5 17.15 8.7 Q17.15 7.2 17.95 6.7 L18.1 6.55 18.0 6.45 Q18.0 6.3 19.1 6.05 L18.95 6.4 18.9 7.85 19.35 9.85 Q19.85 11.2 20.6 11.65" fill="#e4e4ba" fill-rule="evenodd" stroke="none"/>
    <path d="M27.15 4.5 L26.4 4.8 24.9 5.05 Q23.35 5.0 22.45 4.45 L21.95 4.05 22.05 3.65 22.65 4.15 Q23.6 4.7 25.25 4.7 26.35 4.7 27.05 4.15 L27.1 4.15 27.15 4.5 M21.35 5.25 L21.85 7.05 Q22.75 8.9 24.7 8.9 L25.4 8.7 25.75 8.7 25.8 8.75 25.55 9.1 25.35 9.15 24.7 9.25 Q22.85 9.25 21.8 7.5 21.1 6.35 21.1 5.55 L21.1 5.4 21.35 5.25 M22.1 1.65 L22.5 1.65 22.9 1.65 23.85 1.15 24.25 0.55 24.6 0.75 24.1 1.45 Q23.5 2.05 22.8 2.05 L22.2 1.95 22.15 1.95 22.1 1.75 22.1 1.65 M19.1 6.05 L19.75 5.9 19.35 6.75 19.3 7.9 Q19.3 10.2 21.6 11.6 L20.6 11.65 Q19.85 11.2 19.35 9.85 L18.9 7.85 18.95 6.4 19.1 6.05" fill="#bcb37a" fill-rule="evenodd" stroke="none"/>
    <path d="M25.8 1.6 L25.95 1.75 Q26.85 2.8 27.1 4.15 L27.15 4.5 27.15 5.15 Q27.15 6.5 25.9 8.55 L25.8 8.75 25.55 9.1 Q24.0 11.2 21.6 11.6 L20.6 11.65 20.5 11.65 Q18.45 11.65 17.7 10.6 L18.7 10.8 20.15 10.8 Q24.3 9.9 25.25 6.0 L25.55 4.0 25.5 3.1 25.15 1.25 24.95 0.95 25.55 1.35 25.8 1.55 25.8 1.6" fill="#000000" fill-opacity="0.2" fill-rule="evenodd" stroke="none"/>
  </g>
</svg>
