<?xml version="1.0" encoding="UTF-8" standalone="no"?>
<svg xmlns:xlink="http://www.w3.org/1999/xlink" height="77.55px" width="23.5px" xmlns="http://www.w3.org/2000/svg">
  <g transform="matrix(1.0, 0.0, 0.0, 1.0, 11.75, 38.75)">
    <path d="M7.75 -17.4 L6.3 -18.15 6.1 -16.8 Q5.7 -15.5 4.65 -15.5 3.6 -15.5 2.75 -16.8 L2.15 -18.1 1.55 -16.5 Q0.7 -14.85 -0.6 -14.8 -1.9 -14.75 -2.6 -16.45 L-3.1 -18.15 -4.4 -16.9 Q-5.95 -15.65 -7.0 -15.65 L-7.75 -16.05 -7.0 -15.65 Q-5.95 -15.65 -4.4 -16.9 L-3.1 -18.15 -2.6 -16.45 Q-1.9 -14.75 -0.6 -14.8 0.7 -14.85 1.55 -16.5 L2.15 -18.1 2.75 -16.8 Q3.6 -15.5 4.65 -15.5 5.7 -15.5 6.1 -16.8 L6.3 -18.15 7.75 -17.4 7.75 28.95 Q7.75 31.4 6.05 33.1 4.35 34.8 1.9 34.8 L-1.9 34.8 Q-4.35 34.8 -6.05 33.1 -7.75 31.4 -7.75 28.95 L-7.75 -16.05 -7.75 -19.35 -0.2 -30.1 7.75 -19.35 7.75 -17.4" fill="#4c720e" fill-rule="evenodd" stroke="none"/>
    <path d="M-7.75 -16.05 L-7.0 -15.65 Q-5.95 -15.65 -4.4 -16.9 L-3.1 -18.15 -2.6 -16.45 Q-1.9 -14.75 -0.6 -14.8 0.7 -14.85 1.55 -16.5 L2.15 -18.1 2.75 -16.8 Q3.6 -15.5 4.65 -15.5 5.7 -15.5 6.1 -16.8 L6.3 -18.15 7.75 -17.4 7.75 -19.35 -0.2 -30.1 -7.75 -19.35 -7.75 -16.05 -7.75 28.95 Q-7.75 31.4 -6.05 33.1 -4.35 34.8 -1.9 34.8 L1.9 34.8 Q4.35 34.8 6.05 33.1 7.75 31.4 7.75 28.95 L7.75 -17.4" fill="none" stroke="#4c720e" stroke-linecap="round" stroke-linejoin="round" stroke-width="8.0"/>
    <path d="M-3.0 -34.45 Q-0.15 -35.05 2.65 -34.45 L2.0 -26.4 Q-0.45 -25.15 -2.4 -26.4 L-3.0 -34.45" fill="#1e1e1e" fill-rule="evenodd" stroke="none"/>
    <path d="M-3.0 -34.45 L-2.4 -26.4 Q-0.45 -25.15 2.0 -26.4 L2.65 -34.45 Q-0.15 -35.05 -3.0 -34.45 Z" fill="none" stroke="#1e1e1e" stroke-linecap="round" stroke-linejoin="round" stroke-width="8.0"/>
    <path d="M-7.75 -19.35 L7.75 -19.35 7.75 28.95 Q7.75 31.4 6.05 33.1 4.35 34.8 1.9 34.8 L-1.9 34.8 Q-4.35 34.8 -6.05 33.1 -7.75 31.4 -7.75 28.95 L-7.75 -19.35" fill="#7cb421" fill-rule="evenodd" stroke="none"/>
    <path d="M-0.4 -19.35 L7.75 -19.35 7.75 28.95 Q7.75 31.4 6.05 33.1 4.35 34.8 1.9 34.8 L-0.4 34.8 -0.4 -19.35" fill="#638c21" fill-rule="evenodd" stroke="none"/>
    <path d="M6.3 -18.15 L6.1 -16.8 Q5.7 -15.5 4.65 -15.5 3.6 -15.5 2.75 -16.8 L2.15 -18.1 1.55 -16.5 Q0.7 -14.85 -0.6 -14.8 -1.9 -14.75 -2.6 -16.45 L-3.1 -18.15 -4.4 -16.9 Q-5.95 -15.65 -7.0 -15.65 L-7.75 -16.05 -7.75 -19.35 -0.2 -30.1 7.75 -19.35 7.75 -17.4 6.3 -18.15" fill="#cd9e65" fill-rule="evenodd" stroke="none"/>
    <path d="M6.3 -18.15 L6.1 -16.8 Q5.7 -15.5 4.65 -15.5 3.6 -15.5 2.75 -16.8 L2.15 -18.1 1.55 -16.5 Q0.75 -15.0 -0.4 -14.8 L1.15 -22.1 -0.2 -30.1 7.75 -19.35 7.75 -17.4 6.3 -18.15" fill="#b48348" fill-rule="evenodd" stroke="none"/>
    <path d="M-3.0 -34.45 Q-0.15 -35.05 2.65 -34.45 L2.0 -26.4 Q-0.45 -25.15 -2.4 -26.4 L-3.0 -34.45" fill="#313131" fill-rule="evenodd" stroke="none"/>
    <path d="M7.75 24.2 L7.75 28.95 Q7.75 31.4 6.05 33.1 4.35 34.8 1.9 34.8 L-1.9 34.8 Q-4.35 34.8 -6.05 33.1 -7.75 31.4 -7.75 28.95 L-7.75 24.2 -0.05 26.7 7.75 24.2" fill="#000000" fill-rule="evenodd" stroke="none"/>
  </g>
</svg>
