<?xml version="1.0" encoding="UTF-8" standalone="no"?>
<svg xmlns:xlink="http://www.w3.org/1999/xlink" height="31.9px" width="17.3px" xmlns="http://www.w3.org/2000/svg">
  <g transform="matrix(1.0, 0.0, 0.0, 1.0, -4.45, 2.95)">
    <path d="M20.75 22.85 L20.75 23.1 Q20.6 25.05 18.4 26.4 16.2 27.95 13.0 27.95 10.0 27.95 7.65 26.4 5.55 25.05 5.45 23.1 L5.45 3.1 5.45 2.85 Q5.7 0.9 7.8 -0.45 10.0 -1.95 13.15 -1.95 16.3 -1.95 18.5 -0.45 20.6 0.9 20.75 2.85 L20.75 22.85" fill="#ffffff" fill-rule="evenodd" stroke="none"/>
    <path d="M20.75 22.85 L20.75 23.1 Q20.6 25.05 18.4 26.4 16.2 27.95 13.0 27.95 10.0 27.95 7.65 26.4 5.55 25.05 5.45 23.1 L5.45 3.1 5.45 2.85 Q5.7 0.9 7.8 -0.45 10.0 -1.95 13.15 -1.95 16.3 -1.95 18.5 -0.45 20.6 0.9 20.75 2.85 L20.75 22.85 Z" fill="none" stroke="#191c1e" stroke-linecap="round" stroke-linejoin="round" stroke-width="2.0"/>
    <path d="M20.8 2.7 L20.8 22.95 5.5 22.95 5.5 3.1 5.5 2.7 Q5.7 0.9 7.8 -0.5 10.05 -2.0 13.2 -2.0 16.3 -2.0 18.55 -0.5 20.65 0.9 20.8 2.7" fill="#555c72" fill-rule="evenodd" stroke="none"/>
    <path d="M18.45 26.4 Q16.2 27.9 13.1 27.9 9.95 27.9 7.7 26.4 5.45 24.9 5.45 22.75 5.45 20.65 7.7 19.15 9.95 17.65 13.1 17.65 16.2 17.65 18.45 19.15 20.75 20.65 20.75 22.75 20.75 24.9 18.45 26.4" fill="#3f434f" fill-rule="evenodd" stroke="none"/>
    <path d="M17.05 25.65 Q15.3 26.7 12.9 26.7 10.5 26.7 8.8 25.65 7.05 24.6 7.05 23.1 7.05 21.6 8.8 20.5 10.5 19.45 12.9 19.45 15.3 19.45 17.05 20.5 18.75 21.6 18.75 23.1 18.75 24.6 17.05 25.65" fill="#3f9306" fill-rule="evenodd" stroke="none"/>
    <path d="M18.65 22.3 L17.15 23.8 Q15.35 24.9 13.0 24.9 10.55 24.9 8.9 23.8 7.2 22.85 7.1 21.45 L7.35 22.3 Q7.65 21.3 8.9 20.5 10.55 19.5 13.0 19.5 15.35 19.5 17.15 20.5 18.25 21.3 18.65 22.3" fill="#7cb421" fill-rule="evenodd" stroke="none"/>
  </g>
</svg>
