<?xml version="1.0" encoding="UTF-8" standalone="no"?>
<svg xmlns:xlink="http://www.w3.org/1999/xlink" height="73.2px" width="66.95px" xmlns="http://www.w3.org/2000/svg">
  <g transform="matrix(1.0, 0.0, 0.0, 1.0, 33.45, 36.6)">
    <path d="M-8.95 -23.75 Q3.3 -30.05 14.75 -22.35 27.0 -14.1 22.1 0.95 18.2 12.9 7.7 21.6 1.05 27.2 -11.9 26.55 L-20.1 25.55 -23.45 24.85 -18.85 -15.9 -16.15 -18.65 Q-12.75 -21.8 -8.95 -23.75" fill="#70381f" fill-rule="evenodd" stroke="none"/>
    <path d="M-8.95 -23.75 Q3.3 -30.05 14.75 -22.35 27.0 -14.1 22.1 0.95 18.2 12.9 7.7 21.6 1.05 27.2 -11.9 26.55 L-20.1 25.55 -23.45 24.85 -18.85 -15.9 -16.15 -18.65 Q-12.75 -21.8 -8.95 -23.75 Z" fill="none" stroke="#3c190a" stroke-linecap="round" stroke-linejoin="round" stroke-width="20.0"/>
    <path d="M-8.95 -23.75 Q3.3 -30.05 14.75 -22.35 27.0 -14.1 22.1 0.95 18.2 12.9 7.7 21.6 1.05 27.2 -11.9 26.55 L-20.1 25.55 -23.45 24.85 -18.85 -15.9 -16.15 -18.65 Q-12.75 -21.8 -8.95 -23.75" fill="#70381f" fill-rule="evenodd" stroke="none"/>
    <path d="M-16.5 -6.8 Q-7.65 -11.3 0.6 -5.75 9.45 0.2 5.85 11.1 3.15 19.7 -4.5 26.0 L-4.95 26.45 Q-8.2 26.8 -11.9 26.6 L-20.05 25.6 -23.45 24.9 -20.15 -4.4 -16.5 -6.8" fill="#bf7926" fill-rule="evenodd" stroke="none"/>
  </g>
</svg>
