<?xml version="1.0" encoding="UTF-8" standalone="no"?>
<svg xmlns:xlink="http://www.w3.org/1999/xlink" height="104.3px" width="104.3px" xmlns="http://www.w3.org/2000/svg">
  <g transform="matrix(1.0, 0.0, 0.0, 1.0, 13.15, 11.8)">
    <path d="M39.0 -6.8 L47.0 -6.2 47.0 5.55 Q53.3 6.9 58.65 10.55 L66.95 2.3 Q69.75 4.4 72.35 7.0 75.4 10.05 77.8 13.45 L69.45 21.75 Q72.65 26.8 73.9 32.65 L85.6 32.65 Q86.15 36.35 86.15 40.35 86.15 44.4 85.55 48.2 L73.85 48.2 Q72.55 54.2 69.2 59.4 L77.5 67.7 Q75.2 70.8 72.35 73.65 69.55 76.45 66.5 78.7 L58.25 70.45 Q53.05 73.85 47.0 75.2 L47.0 86.9 39.0 87.5 31.45 86.95 31.45 75.25 Q25.5 74.05 20.35 70.85 L12.1 79.15 Q8.75 76.75 5.65 73.65 3.05 71.05 0.95 68.25 L9.2 60.05 Q5.5 54.6 4.15 48.2 L-7.55 48.2 Q-8.15 44.4 -8.15 40.35 -8.15 36.35 -7.55 32.65 L4.15 32.65 Q5.4 26.4 8.9 21.1 L0.65 12.85 Q2.85 9.8 5.65 7.0 8.55 4.15 11.65 1.85 L19.95 10.15 Q25.25 6.7 31.45 5.45 L31.45 -6.25 39.0 -6.8 M52.75 40.35 Q52.75 34.7 48.75 30.65 44.7 26.6 39.0 26.6 33.35 26.6 29.3 30.65 25.25 34.7 25.25 40.35 25.25 46.05 29.3 50.05 33.35 54.1 39.0 54.1 44.7 54.1 48.75 50.05 52.75 46.05 52.75 40.35" fill="#d3b57c" fill-rule="evenodd" stroke="none"/>
    <path d="M39.0 -6.8 L47.0 -6.2 47.0 5.55 Q53.3 6.9 58.65 10.55 L66.95 2.3 Q69.75 4.4 72.35 7.0 75.4 10.05 77.8 13.45 L69.45 21.75 Q72.65 26.8 73.9 32.65 L85.6 32.65 Q86.15 36.35 86.15 40.35 86.15 44.4 85.55 48.2 L73.85 48.2 Q72.55 54.2 69.2 59.4 L77.5 67.7 Q75.2 70.8 72.35 73.65 69.55 76.45 66.5 78.7 L58.25 70.45 Q53.05 73.85 47.0 75.2 L47.0 86.9 39.0 87.5 31.45 86.95 31.45 75.25 Q25.5 74.05 20.35 70.85 L12.1 79.15 Q8.75 76.75 5.65 73.65 3.05 71.05 0.95 68.25 L9.2 60.05 Q5.5 54.6 4.15 48.2 L-7.55 48.2 Q-8.15 44.4 -8.15 40.35 -8.15 36.35 -7.55 32.65 L4.15 32.65 Q5.4 26.4 8.9 21.1 L0.65 12.85 Q2.85 9.8 5.65 7.0 8.55 4.15 11.65 1.85 L19.95 10.15 Q25.25 6.7 31.45 5.45 L31.45 -6.25 39.0 -6.8 M52.75 40.35 Q52.75 46.05 48.75 50.05 44.7 54.1 39.0 54.1 33.35 54.1 29.3 50.05 25.25 46.05 25.25 40.35 25.25 34.7 29.3 30.65 33.35 26.6 39.0 26.6 44.7 26.6 48.75 30.65 52.75 34.7 52.75 40.35" fill="none" stroke="#1c1206" stroke-linecap="round" stroke-linejoin="round" stroke-width="10.0"/>
    <path d="M39.0 -6.8 L47.0 -6.2 47.0 5.55 Q53.3 6.9 58.65 10.55 L66.95 2.3 Q69.75 4.4 72.35 7.0 75.4 10.05 77.8 13.45 L69.45 21.75 Q72.65 26.8 73.9 32.65 L85.6 32.65 Q86.15 36.35 86.15 40.35 86.15 44.4 85.55 48.2 L73.85 48.2 Q72.55 54.2 69.2 59.4 L77.5 67.7 Q75.2 70.8 72.35 73.65 69.55 76.45 66.5 78.7 L58.25 70.45 Q53.05 73.85 47.0 75.2 L47.0 86.9 39.0 87.5 31.45 86.95 31.45 75.25 Q25.5 74.05 20.35 70.85 L12.1 79.15 Q8.75 76.75 5.65 73.65 3.05 71.05 0.95 68.25 L9.2 60.05 Q5.5 54.6 4.15 48.2 L-7.55 48.2 Q-8.15 44.4 -8.15 40.35 -8.15 36.35 -7.55 32.65 L4.15 32.65 Q5.4 26.4 8.9 21.1 L0.65 12.85 Q2.85 9.8 5.65 7.0 8.55 4.15 11.65 1.85 L19.95 10.15 Q25.25 6.7 31.45 5.45 L31.45 -6.25 39.0 -6.8 M52.75 40.35 Q52.75 34.7 48.75 30.65 44.7 26.6 39.0 26.6 33.35 26.6 29.3 30.65 25.25 34.7 25.25 40.35 25.25 46.05 29.3 50.05 33.35 54.1 39.0 54.1 44.7 54.1 48.75 50.05 52.75 46.05 52.75 40.35" fill="#966125" fill-rule="evenodd" stroke="none"/>
  </g>
</svg>
