<?xml version="1.0" encoding="UTF-8" standalone="no"?>
<svg xmlns:xlink="http://www.w3.org/1999/xlink" height="32.75px" width="150.55px" xmlns="http://www.w3.org/2000/svg">
  <g transform="matrix(1.0, 0.0, 0.0, 1.0, 93.8, 24.85)">
    <path d="M40.35 -24.85 Q47.15 -24.85 51.95 -20.05 56.75 -15.25 56.75 -8.45 56.75 -1.7 51.95 3.1 47.15 7.9 40.35 7.9 33.6 7.9 28.8 3.1 24.0 -1.7 24.0 -8.5 24.0 -15.25 28.8 -20.05 33.6 -24.85 40.35 -24.85 M-77.45 -24.85 Q-70.65 -24.85 -65.85 -20.05 -61.05 -15.25 -61.05 -8.45 -61.05 -1.7 -65.85 3.1 -70.65 7.9 -77.45 7.9 -84.2 7.9 -89.0 3.1 -93.8 -1.7 -93.8 -8.5 -93.8 -15.25 -89.0 -20.05 -84.2 -24.85 -77.45 -24.85" fill="#000000" fill-rule="evenodd" stroke="none"/>
  </g>
</svg>
