<?xml version="1.0" encoding="UTF-8" standalone="no"?>
<svg xmlns:xlink="http://www.w3.org/1999/xlink" height="62.65px" width="62.5px" xmlns="http://www.w3.org/2000/svg">
  <g transform="matrix(1.0, 0.0, 0.0, 1.0, -0.8, -0.5)">
    <path d="M62.25 20.6 L53.2 20.6 53.2 11.55 62.25 11.55 62.25 20.6 M41.5 20.6 L32.45 20.6 32.45 11.55 41.5 11.55 41.5 20.6 M51.75 21.85 L51.75 30.9 42.75 30.9 42.75 21.85 51.75 21.85 M42.75 11.55 L51.75 11.55 51.75 20.6 42.75 20.6 42.75 11.55 M51.75 41.05 L42.75 41.05 42.75 32.0 51.75 32.0 51.75 41.05 M51.75 42.3 L51.75 51.4 42.75 51.4 42.75 42.3 51.75 42.3 M41.5 41.05 L32.45 41.05 32.45 32.0 41.5 32.0 41.5 41.05 M53.25 32.0 L62.3 32.0 62.3 41.05 53.25 41.05 53.25 32.0 M53.25 30.65 L53.25 21.65 62.3 21.65 62.3 30.65 53.25 30.65 M41.5 30.9 L32.45 30.9 32.45 21.85 41.5 21.85 41.5 30.9 M62.3 42.1 L62.3 51.15 53.25 51.15 53.25 42.1 62.3 42.1 M31.15 21.85 L31.15 30.9 22.1 30.9 22.1 21.85 31.15 21.85 M21.05 20.6 L12.05 20.6 12.05 11.55 21.05 11.55 21.05 20.6 M31.15 20.6 L22.1 20.6 22.1 11.55 31.15 11.55 31.15 20.6 M12.05 32.0 L21.05 32.0 21.05 41.05 12.05 41.05 12.05 32.0 M22.1 32.0 L31.15 32.0 31.15 41.05 22.1 41.05 22.1 32.0 M31.15 42.3 L31.15 51.4 22.1 51.4 22.1 42.3 31.15 42.3 M12.05 30.9 L12.05 21.85 21.05 21.85 21.05 30.9 12.05 30.9 M21.05 42.3 L21.05 51.4 12.05 51.4 12.05 42.3 21.05 42.3 M22.1 61.5 L22.1 52.5 31.15 52.5 31.15 61.5 22.1 61.5 M32.45 52.5 L41.5 52.5 41.5 61.5 32.45 61.5 32.45 52.5 M21.05 61.5 L12.05 61.5 12.05 52.5 21.05 52.5 21.05 61.5 M42.75 52.5 L51.75 52.5 51.75 61.5 42.75 61.5 42.75 52.5 M32.45 51.4 L32.45 42.3 41.5 42.3 41.5 51.4 32.45 51.4" fill="none" stroke="#a0a0a0" stroke-linecap="round" stroke-linejoin="round" stroke-width="2.0"/>
    <path d="M62.25 20.6 L53.25 20.6 53.25 11.55 62.25 11.55 62.25 20.6 M42.75 11.55 L51.8 11.55 51.8 20.6 42.75 20.6 42.75 11.55 M41.5 20.6 L32.45 20.6 32.45 11.55 41.5 11.55 41.5 20.6 M51.8 21.85 L51.8 30.9 42.75 30.9 42.75 21.85 51.8 21.85 M51.8 42.3 L51.8 51.4 42.75 51.4 42.75 42.3 51.8 42.3 M41.5 41.05 L32.45 41.05 32.45 32.0 41.5 32.0 41.5 41.05 M53.3 32.0 L62.3 32.0 62.3 41.05 53.3 41.05 53.3 32.0 M51.8 41.05 L42.75 41.05 42.75 32.0 51.8 32.0 51.8 41.05 M53.3 30.65 L53.3 21.65 62.3 21.65 62.3 30.65 53.3 30.65 M41.5 30.9 L32.45 30.9 32.45 21.85 41.5 21.85 41.5 30.9 M62.3 42.1 L62.3 51.15 53.3 51.15 53.3 42.1 62.3 42.1 M21.1 20.6 L12.05 20.6 12.05 11.55 21.1 11.55 21.1 20.6 M31.15 21.85 L31.15 30.9 22.15 30.9 22.15 21.85 31.15 21.85 M31.15 20.6 L22.15 20.6 22.15 11.55 31.15 11.55 31.15 20.6 M12.05 32.0 L21.1 32.0 21.1 41.05 12.05 41.05 12.05 32.0 M31.15 42.3 L31.15 51.4 22.15 51.4 22.15 42.3 31.15 42.3 M22.15 32.0 L31.15 32.0 31.15 41.05 22.15 41.05 22.15 32.0 M12.05 30.9 L12.05 21.85 21.1 21.85 21.1 30.9 12.05 30.9 M21.1 42.3 L21.1 51.4 12.05 51.4 12.05 42.3 21.1 42.3 M22.15 52.5 L31.15 52.5 31.15 61.5 22.15 61.5 22.15 52.5 M32.45 52.5 L41.5 52.5 41.5 61.5 32.45 61.5 32.45 52.5 M21.1 61.5 L12.05 61.5 12.05 52.5 21.1 52.5 21.1 61.5 M42.75 61.5 L42.75 52.5 51.8 52.5 51.8 61.5 42.75 61.5 M32.45 42.3 L41.5 42.3 41.5 51.4 32.45 51.4 32.45 42.3" fill="#ebebeb" fill-rule="evenodd" stroke="none"/>
    <path d="M52.15 10.55 L43.1 10.55 43.1 1.5 52.15 1.5 52.15 10.55 M42.05 10.55 L33.0 10.55 33.0 1.5 42.05 1.5 42.05 10.55 M43.1 20.75 L43.1 11.65 52.15 11.65 52.15 20.75 43.1 20.75 M52.15 22.0 L52.15 31.05 43.1 31.05 43.1 22.0 52.15 22.0 M42.05 20.75 L33.0 20.75 33.0 11.65 42.05 11.65 42.05 20.75 M42.05 41.25 L33.0 41.25 33.0 32.15 42.05 32.15 42.05 41.25 M52.15 32.15 L52.15 41.25 43.1 41.25 43.1 32.15 52.15 32.15 M52.15 42.5 L52.15 51.55 43.1 51.55 43.1 42.5 52.15 42.5 M42.05 31.05 L33.0 31.05 33.0 22.0 42.05 22.0 42.05 31.05 M31.7 10.55 L22.65 10.55 22.65 1.5 31.7 1.5 31.7 10.55 M21.4 10.55 L12.35 10.55 12.35 1.5 21.4 1.5 21.4 10.55 M31.7 11.65 L31.7 20.75 22.65 20.75 22.65 11.65 31.7 11.65 M31.7 22.0 L31.7 31.05 22.65 31.05 22.65 22.0 31.7 22.0 M21.4 20.75 L12.35 20.75 12.35 11.65 21.4 11.65 21.4 20.75 M10.85 22.0 L10.85 31.05 1.8 31.05 1.8 22.0 10.85 22.0 M10.85 20.95 L1.8 20.95 1.8 11.9 10.85 11.9 10.85 20.95 M12.35 32.15 L21.4 32.15 21.4 41.25 12.35 41.25 12.35 32.15 M10.85 32.4 L10.85 41.45 1.8 41.45 1.8 32.4 10.85 32.4 M10.9 42.5 L10.9 51.55 1.85 51.55 1.85 42.5 10.9 42.5 M31.7 42.5 L31.7 51.55 22.65 51.55 22.65 42.5 31.7 42.5 M31.7 41.25 L22.65 41.25 22.65 32.15 31.7 32.15 31.7 41.25 M21.4 42.5 L21.4 51.55 12.35 51.55 12.35 42.5 21.4 42.5 M21.4 22.0 L21.4 31.05 12.35 31.05 12.35 22.0 21.4 22.0 M42.05 42.5 L42.05 51.55 33.0 51.55 33.0 42.5 42.05 42.5" fill="none" stroke="#a0a0a0" stroke-linecap="round" stroke-linejoin="round" stroke-width="2.0"/>
    <path d="M52.15 10.55 L43.1 10.55 43.1 1.5 52.15 1.5 52.15 10.55 M42.05 10.55 L33.0 10.55 33.0 1.5 42.05 1.5 42.05 10.55 M43.1 20.75 L43.1 11.65 52.15 11.65 52.15 20.75 43.1 20.75 M52.15 22.0 L52.15 31.05 43.1 31.05 43.1 22.0 52.15 22.0 M42.05 20.75 L33.0 20.75 33.0 11.65 42.05 11.65 42.05 20.75 M42.05 41.25 L33.0 41.25 33.0 32.15 42.05 32.15 42.05 41.25 M52.15 32.15 L52.15 41.25 43.1 41.25 43.1 32.15 52.15 32.15 M52.15 42.5 L52.15 51.55 43.1 51.55 43.1 42.5 52.15 42.5 M42.05 31.05 L33.0 31.05 33.0 22.0 42.05 22.0 42.05 31.05 M31.7 10.55 L22.65 10.55 22.65 1.5 31.7 1.5 31.7 10.55 M21.4 10.55 L12.35 10.55 12.35 1.5 21.4 1.5 21.4 10.55 M31.7 11.65 L31.7 20.75 22.65 20.75 22.65 11.65 31.7 11.65 M31.7 22.0 L31.7 31.05 22.65 31.05 22.65 22.0 31.7 22.0 M21.4 20.75 L12.35 20.75 12.35 11.65 21.4 11.65 21.4 20.75 M10.85 22.0 L10.85 31.05 1.8 31.05 1.8 22.0 10.85 22.0 M10.85 20.95 L1.8 20.95 1.8 11.9 10.85 11.9 10.85 20.95 M12.35 32.15 L21.4 32.15 21.4 41.25 12.35 41.25 12.35 32.15 M10.85 32.4 L10.85 41.45 1.8 41.45 1.8 32.4 10.85 32.4 M10.9 42.5 L10.9 51.55 1.85 51.55 1.85 42.5 10.9 42.5 M31.7 42.5 L31.7 51.55 22.65 51.55 22.65 42.5 31.7 42.5 M31.7 41.25 L22.65 41.25 22.65 32.15 31.7 32.15 31.7 41.25 M21.4 42.5 L21.4 51.55 12.35 51.55 12.35 42.5 21.4 42.5 M21.4 22.0 L21.4 31.05 12.35 31.05 12.35 22.0 21.4 22.0 M42.05 42.5 L42.05 51.55 33.0 51.55 33.0 42.5 42.05 42.5" fill="#ebebeb" fill-rule="evenodd" stroke="none"/>
    <path d="M17.55 22.2 L17.55 21.9 16.05 21.9 Q10.95 23.5 9.7 24.9 8.7 25.95 8.7 28.85 8.7 29.85 10.05 33.7 L10.8 36.0 Q11.4 37.9 11.4 38.65 11.4 41.15 10.75 42.75 9.7 45.4 9.3 47.25" fill="none" stroke="#4c6062" stroke-linecap="round" stroke-linejoin="round" stroke-width="1.5"/>
    <path d="M10.8 36.0 L10.85 35.9 Q11.95 34.55 14.4 34.05 L16.65 33.85 M6.9 47.2 Q9.2 43.0 9.35 41.1 9.75 37.4 10.8 36.0" fill="none" stroke="#ff1c00" stroke-linecap="round" stroke-linejoin="round" stroke-width="1.5"/>
    <path d="M34.7 46.35 L32.7 46.35 Q28.4 47.05 26.55 50.55 L25.35 53.2 Q24.7 54.6 23.9 55.1 22.6 55.95 19.4 55.85 L14.0 55.7" fill="none" stroke="#ffc400" stroke-linecap="round" stroke-linejoin="round" stroke-width="1.5"/>
    <path d="M11.7 42.65 L17.85 42.6 18.05 54.15 18.05 55.6 1.75 55.6 1.75 42.85 11.7 42.65" fill="#aaaaaa" fill-rule="evenodd" stroke="none"/>
    <path d="M1.75 62.95 L1.75 55.4 18.05 55.4 18.15 62.9 1.75 62.95" fill="#747474" fill-rule="evenodd" stroke="none"/>
    <path d="M11.7 43.05 L17.85 43.0 18.05 53.35 18.05 54.8 18.15 62.3 1.75 62.4 1.75 54.8 1.75 43.25 11.7 43.05 Z" fill="none" stroke="#4c6062" stroke-linecap="round" stroke-linejoin="round" stroke-width="1.5"/>
    <path d="M3.5 37.1 L3.5 35.75 5.6 35.75 5.6 48.6 3.25 48.8 3.5 37.1" fill="#747474" fill-rule="evenodd" stroke="none"/>
    <path d="M9.25 52.75 L7.95 52.8 6.75 52.8 6.55 52.6 3.25 48.8 5.6 48.6 9.25 52.75" fill="#626262" fill-rule="evenodd" stroke="none"/>
    <path d="M3.85 51.15 L2.15 49.45 2.15 37.65 3.5 37.1 3.25 48.8 6.55 52.6 5.4 52.8 3.85 51.15" fill="#333333" fill-rule="evenodd" stroke="none"/>
    <path d="M6.15 47.7 L6.3 38.25 8.65 41.9 8.6 51.05 6.15 47.7" fill="#006bff" fill-rule="evenodd" stroke="none"/>
    <path d="M5.6 35.75 L9.2 41.5 9.25 52.75 5.6 48.6 5.6 35.75 M6.15 47.7 L8.6 51.05 8.65 41.9 6.3 38.25 6.15 47.7" fill="#383838" fill-rule="evenodd" stroke="none"/>
    <path d="M7.95 52.8 L8.05 54.2 3.75 54.15 3.85 51.15 5.4 52.8 6.55 52.6 6.75 52.8 7.95 52.8" fill="#7e7e7e" fill-rule="evenodd" stroke="none"/>
    <path d="M14.7 45.25 L14.7 50.45 11.4 49.95 11.4 44.8 14.7 45.25 M14.5 51.35 L14.5 53.75 11.65 53.3 11.65 50.9 14.5 51.35" fill="#5b5b5b" fill-rule="evenodd" stroke="none"/>
    <path d="M14.7 45.25 L11.4 44.8 11.4 49.95 14.7 50.45 14.7 45.25 M10.05 53.8 L9.95 43.8 15.65 44.55 15.75 54.4 10.05 53.8 M14.5 51.35 L11.65 50.9 11.65 53.3 14.5 53.75 14.5 51.35" fill="#d9d9d9" fill-rule="evenodd" stroke="none"/>
    <path d="M8.05 54.2 L8.0 54.8 3.85 54.75 3.75 54.15 8.05 54.2 M15.75 54.4 L15.35 55.15 10.0 55.0 10.05 53.8 15.75 54.4" fill="#5d5d5d" fill-rule="evenodd" stroke="none"/>
    <path d="M48.9 29.4 L48.9 30.4 Q48.9 36.7 44.0 41.1 39.05 45.6 32.1 45.6 25.1 45.6 20.2 41.1 15.3 36.7 15.3 30.4 L15.35 29.4 Q15.7 23.8 20.2 19.65 25.1 15.2 32.1 15.2 39.05 15.2 44.0 19.65 48.5 23.8 48.9 29.4" fill="#7e7e7e" fill-rule="evenodd" stroke="none"/>
    <path d="M48.9 29.4 L48.9 30.4 Q48.9 36.7 44.0 41.1 39.05 45.6 32.1 45.6 25.1 45.6 20.2 41.1 15.3 36.7 15.3 30.4 L15.35 29.4 Q15.7 23.8 20.2 19.65 25.1 15.2 32.1 15.2 39.05 15.2 44.0 19.65 48.5 23.8 48.9 29.4 Z" fill="none" stroke="#657e80" stroke-linecap="round" stroke-linejoin="round" stroke-width="3.0"/>
    <path d="M35.15 15.45 Q40.15 16.2 44.0 19.65 48.5 23.8 48.9 29.4 L48.9 30.4 Q48.9 36.7 44.0 41.1 39.05 45.6 32.1 45.6 25.1 45.6 20.2 41.1 15.3 36.7 15.3 30.4 L15.35 29.4 Q15.7 23.8 20.2 19.65 24.0 16.2 29.05 15.45 24.7 16.2 21.3 19.2 16.9 23.3 16.9 29.0 16.9 34.7 21.3 38.7 25.8 42.75 32.1 42.75 38.4 42.75 42.85 38.7 47.3 34.7 47.3 29.0 47.3 23.3 42.85 19.2 39.5 16.2 35.15 15.45 M19.8 29.7 L19.75 29.0 Q19.75 24.4 23.35 21.1 27.0 17.8 32.1 17.8 37.2 17.8 40.8 21.1 44.4 24.4 44.4 29.0 L44.4 29.7 Q44.15 25.55 40.8 22.5 37.2 19.2 32.1 19.2 27.0 19.2 23.35 22.5 20.05 25.55 19.8 29.7" fill="#aaaaaa" fill-rule="evenodd" stroke="none"/>
    <path d="M29.05 15.45 L32.1 15.2 35.15 15.45 Q39.5 16.2 42.85 19.2 47.3 23.3 47.3 29.0 47.3 34.7 42.85 38.7 38.4 42.75 32.1 42.75 25.8 42.75 21.3 38.7 16.9 34.7 16.9 29.0 16.9 23.3 21.3 19.2 24.7 16.2 29.05 15.45 M44.4 29.7 L44.4 29.0 Q44.4 24.4 40.8 21.1 37.2 17.8 32.1 17.8 27.0 17.8 23.35 21.1 19.75 24.4 19.75 29.0 L19.8 29.7 Q20.05 33.85 23.35 36.85 27.0 40.15 32.1 40.15 37.2 40.15 40.8 36.85 44.15 33.85 44.4 29.7" fill="#d0d0d0" fill-rule="evenodd" stroke="none"/>
    <path d="M44.4 29.7 Q44.15 33.85 40.8 36.85 37.2 40.15 32.1 40.15 27.0 40.15 23.35 36.85 20.05 33.85 19.8 29.7 20.05 25.55 23.35 22.5 27.0 19.2 32.1 19.2 37.2 19.2 40.8 22.5 44.15 25.55 44.4 29.7" fill="#87fffb" fill-rule="evenodd" stroke="none"/>
  </g>
</svg>
