<?xml version="1.0" encoding="UTF-8" standalone="no"?>
<svg xmlns:xlink="http://www.w3.org/1999/xlink" height="32.7px" width="32.7px" xmlns="http://www.w3.org/2000/svg">
  <g transform="matrix(1.0, 0.0, 0.0, 1.0, -2.55, 15.45)">
    <path d="M18.9 -15.45 Q25.7 -15.45 30.45 -10.7 35.25 -5.9 35.25 0.9 35.25 7.7 30.45 12.45 25.7 17.25 18.9 17.25 12.1 17.25 7.3 12.45 2.55 7.7 2.55 0.9 2.55 -5.9 7.3 -10.7 12.1 -15.45 18.9 -15.45" fill="url(#gradient0)" fill-rule="evenodd" stroke="none"/>
    <path d="M18.9 -15.45 Q25.7 -15.45 30.45 -10.7 35.25 -5.9 35.25 0.9 35.25 7.7 30.45 12.45 25.7 17.25 18.9 17.25 12.1 17.25 7.3 12.45 2.55 7.7 2.55 0.9 2.55 -5.9 7.3 -10.7 12.1 -15.45 18.9 -15.45" fill="url(#gradient1)" fill-rule="evenodd" stroke="none"/>
    <path d="M18.9 -15.45 Q25.7 -15.45 30.45 -10.7 35.25 -5.9 35.25 0.9 35.25 7.7 30.45 12.45 25.7 17.25 18.9 17.25 12.1 17.25 7.3 12.45 2.55 7.7 2.55 0.9 2.55 -5.9 7.3 -10.7 12.1 -15.45 18.9 -15.45" fill="url(#gradient2)" fill-rule="evenodd" stroke="none"/>
  </g>
  <defs>
    <radialGradient cx="0" cy="0" gradientTransform="matrix(0.0192, 0.0, 0.0, 0.0192, 18.9, 0.9)" gradientUnits="userSpaceOnUse" id="gradient0" r="819.2" spreadMethod="pad">
      <stop offset="0.7529411764705882" stop-color="#ffffff" stop-opacity="0.050980393"/>
      <stop offset="0.8901960784313725" stop-color="#ffffff" stop-opacity="0.05882353"/>
      <stop offset="1.0" stop-color="#ffffff" stop-opacity="0.0"/>
    </radialGradient>
    <radialGradient cx="0" cy="0" gradientTransform="matrix(0.0192, 0.0, 0.0, 0.0192, 18.9, 0.9)" gradientUnits="userSpaceOnUse" id="gradient1" r="819.2" spreadMethod="pad">
      <stop offset="0.7529411764705882" stop-color="#ffffff" stop-opacity="0.050980393"/>
      <stop offset="0.8901960784313725" stop-color="#ffffff" stop-opacity="0.05882353"/>
      <stop offset="1.0" stop-color="#ffffff" stop-opacity="0.0"/>
    </radialGradient>
    <radialGradient cx="0" cy="0" gradientTransform="matrix(0.0192, 0.0, 0.0, 0.0192, 18.9, 0.9)" gradientUnits="userSpaceOnUse" id="gradient2" r="819.2" spreadMethod="pad">
      <stop offset="0.7529411764705882" stop-color="#ffffff" stop-opacity="0.050980393"/>
      <stop offset="0.8901960784313725" stop-color="#ffffff" stop-opacity="0.05882353"/>
      <stop offset="1.0" stop-color="#ffffff" stop-opacity="0.0"/>
    </radialGradient>
  </defs>
</svg>
