<?xml version="1.0" encoding="UTF-8" standalone="no"?>
<svg xmlns:xlink="http://www.w3.org/1999/xlink" height="96.05px" width="206.25px" xmlns="http://www.w3.org/2000/svg">
  <g transform="matrix(1.0, 0.0, 0.0, 1.0, 108.55, 52.8)">
    <path d="M53.2 -24.85 Q60.0 -24.85 64.8 -20.05 69.6 -15.25 69.6 -8.45 69.6 -1.7 64.8 3.1 60.0 7.9 53.2 7.9 46.45 7.9 41.65 3.1 36.85 -1.7 36.85 -8.5 36.85 -15.25 41.65 -20.05 46.45 -24.85 53.2 -24.85 M-64.6 -24.85 Q-57.8 -24.85 -53.0 -20.05 -48.2 -15.25 -48.2 -8.45 -48.2 -1.7 -53.0 3.1 -57.8 7.9 -64.6 7.9 -71.35 7.9 -76.15 3.1 -80.95 -1.7 -80.95 -8.5 -80.95 -15.25 -76.15 -20.05 -71.35 -24.85 -64.6 -24.85" fill="#000000" fill-rule="evenodd" stroke="none"/>
    <path d="M-87.25 -31.5 Q-98.55 -20.25 -98.55 -4.8 -98.55 10.7 -87.25 21.9 L-87.25 21.95 Q-79.9 29.35 -70.75 31.9 -65.9 33.25 -60.55 33.25 -51.35 33.25 -43.6 29.25 -38.4 26.5 -33.85 21.95 L-33.8 21.9 Q-22.5 10.7 -22.5 -4.8 -22.5 -20.25 -33.8 -31.5 -38.35 -36.05 -43.6 -38.75 -51.35 -42.8 -60.55 -42.8 -65.9 -42.8 -70.75 -41.45 -79.9 -38.9 -87.25 -31.5 M30.65 -37.6 Q26.6 -35.15 22.95 -31.5 11.65 -20.25 11.65 -4.8 11.65 10.7 22.95 21.9 L22.95 21.95 Q25.05 24.05 27.3 25.75 37.05 33.25 49.65 33.25 65.1 33.25 76.35 21.95 L76.4 21.9 Q87.7 10.7 87.7 -4.8 87.7 -20.25 76.4 -31.5 65.1 -42.8 49.65 -42.8 39.2 -42.8 30.65 -37.6 M15.9 -38.55 Q22.65 -45.35 30.65 -48.9 39.4 -52.8 49.65 -52.8 69.2 -52.8 83.45 -38.55 L83.45 -38.6 Q97.7 -24.35 97.7 -4.8 97.7 14.8 83.45 29.0 69.2 43.25 49.65 43.25 30.1 43.25 15.9 29.0 L15.85 29.0 12.85 25.75 9.95 22.0 Q4.3 14.0 2.5 4.5 L-13.35 4.5 Q-16.0 18.3 -26.75 29.0 -34.4 36.65 -43.6 40.2 -51.5 43.25 -60.55 43.25 L-70.75 42.2 Q-83.95 39.4 -94.3 29.0 L-94.35 29.0 Q-108.55 14.8 -108.55 -4.8 -108.55 -24.35 -94.3 -38.55 -83.95 -48.95 -70.75 -51.75 L-60.55 -52.8 Q-51.5 -52.8 -43.6 -49.75 -34.4 -46.2 -26.75 -38.55 L-26.75 -38.6 Q-12.75 -24.6 -12.5 -5.5 L1.65 -5.5 Q1.85 -20.0 9.95 -31.5 12.55 -35.2 15.9 -38.55" fill="#000000" fill-rule="evenodd" stroke="none"/>
  </g>
</svg>
