<?xml version="1.0" encoding="UTF-8" standalone="no"?>
<svg xmlns:xlink="http://www.w3.org/1999/xlink" height="73.7px" width="156.65px" xmlns="http://www.w3.org/2000/svg">
  <g transform="matrix(1.0, 0.0, 0.0, 1.0, 71.75, 76.45)">
    <path d="M62.55 -75.55 Q62.55 -74.9 62.05 -74.4 61.65 -74.0 61.35 -74.0 60.9 -73.05 60.15 -73.05 L59.8 -73.1 59.6 -72.45 58.75 -71.5 58.35 -71.5 58.25 -71.9 Q58.25 -72.35 58.8 -72.75 L59.5 -73.3 59.35 -73.65 59.25 -74.35 Q59.25 -75.8 60.9 -76.3 62.55 -76.85 62.55 -75.55 M57.25 -70.35 L54.85 -68.6 54.65 -68.75 55.8 -69.8 57.25 -70.35 M2.75 -75.05 L3.15 -75.15 Q3.65 -75.0 3.65 -74.35 L3.5 -74.1 3.15 -73.9 2.75 -74.0 Q2.65 -74.1 2.65 -74.55 L2.75 -75.05 M1.6 -69.85 L1.75 -70.35 2.15 -70.35 2.4 -69.85 2.25 -69.5 1.75 -69.5 1.6 -69.85 M2.5 -66.5 Q2.15 -66.0 1.55 -66.0 0.85 -66.0 0.55 -66.6 L0.4 -67.15 Q0.4 -68.25 1.6 -68.25 2.75 -68.25 2.75 -67.15 L2.5 -66.5 M9.65 -56.25 Q9.65 -57.7 10.9 -57.8 12.15 -57.9 12.15 -56.3 L11.85 -55.35 Q11.45 -54.75 10.8 -54.75 9.85 -54.75 9.65 -55.45 L9.65 -56.25 M21.0 -61.05 Q20.75 -60.8 20.5 -60.8 19.6 -60.8 19.6 -61.65 19.6 -62.5 20.45 -62.5 21.3 -62.5 21.3 -61.65 L21.0 -61.05 M35.75 -59.9 L35.65 -59.25 35.0 -59.0 34.3 -59.75 Q34.3 -60.9 35.6 -60.5 L35.75 -59.9 M34.5 -46.45 Q34.5 -46.1 33.7 -45.25 32.85 -44.4 32.85 -43.9 32.85 -42.9 31.75 -42.9 30.55 -42.9 30.2 -43.75 30.05 -44.15 30.15 -44.65 30.15 -45.5 32.35 -46.85 34.5 -48.2 34.5 -46.45 M29.1 -40.9 L29.05 -41.25 Q29.05 -41.85 29.55 -42.1 L30.6 -42.0 Q30.05 -40.75 29.15 -41.0 L29.1 -40.9 M27.0 -37.5 L26.5 -37.75 Q26.7 -38.05 27.15 -38.05 L27.0 -37.5 M28.75 -25.85 L28.75 -25.9 29.55 -26.8 30.25 -27.65 31.6 -28.75 32.0 -28.6 32.15 -28.1 Q32.15 -27.65 31.45 -27.05 L30.4 -26.35 Q29.7 -25.8 29.15 -25.8 L28.75 -25.85 M39.45 -35.5 Q39.35 -35.55 39.35 -35.95 39.35 -36.8 40.85 -36.65 41.05 -37.0 41.05 -36.35 41.05 -35.9 40.6 -35.7 L39.65 -35.4 39.45 -35.5 M34.9 -32.0 L35.0 -31.75 34.35 -31.3 34.2 -31.2 Q34.0 -31.2 34.0 -31.6 34.0 -32.35 34.9 -32.0 M11.0 -40.7 Q10.65 -40.25 10.05 -40.25 9.3 -40.25 9.0 -40.9 L8.9 -41.4 Q8.9 -42.5 10.1 -42.5 11.25 -42.5 11.25 -41.4 L11.0 -40.7 M4.75 -27.1 L4.5 -26.3 Q4.15 -25.9 3.6 -25.9 2.45 -25.9 2.5 -27.05 2.5 -28.15 3.65 -28.25 4.75 -28.35 4.75 -27.1 M9.35 -30.7 L9.8 -31.4 10.5 -32.25 10.75 -32.2 10.85 -31.75 10.65 -31.05 10.3 -30.4 9.9 -30.25 Q10.25 -30.0 10.25 -29.35 L10.05 -28.7 Q9.7 -28.25 9.05 -28.25 8.35 -28.25 8.1 -28.85 L8.0 -29.35 Q8.0 -30.45 9.15 -30.45 L9.35 -30.45 9.35 -30.7 M10.4 -33.05 Q10.4 -34.4 12.0 -35.45 13.55 -36.45 13.55 -35.0 L12.75 -33.6 12.75 -33.35 Q12.75 -32.3 11.35 -32.0 L11.1 -32.1 10.6 -32.5 10.4 -33.05 M19.2 -25.0 L19.25 -24.55 Q19.25 -24.1 17.8 -22.95 L16.25 -21.8 16.05 -21.85 16.0 -22.25 Q16.0 -22.55 17.05 -23.65 18.25 -24.9 19.0 -25.05 L19.2 -25.0 M19.95 -23.75 Q21.6 -25.05 21.6 -23.4 L20.5 -22.2 Q19.45 -21.35 19.05 -21.35 L18.3 -21.5 18.25 -22.0 Q18.25 -22.4 19.95 -23.75 M15.85 -21.05 L15.1 -20.35 14.0 -19.65 14.0 -19.9 14.75 -20.85 15.5 -21.55 15.75 -21.5 15.85 -21.05 M2.3 -24.55 Q3.75 -25.95 3.75 -24.15 2.8 -21.6 2.0 -21.6 0.9 -21.6 0.85 -22.75 0.85 -23.15 2.3 -24.55 M2.4 -20.0 Q1.4 -15.25 0.25 -15.25 -0.7 -15.25 -0.75 -16.75 -0.75 -18.95 0.85 -20.75 2.4 -22.55 2.4 -20.0 M74.5 -40.05 L74.35 -39.5 73.75 -39.3 73.0 -40.1 73.25 -40.6 74.3 -40.65 74.5 -40.05 M63.05 -36.25 Q61.35 -35.25 60.15 -35.25 L59.35 -34.9 58.75 -34.5 58.35 -34.45 58.25 -34.85 Q58.25 -36.9 61.55 -38.45 64.8 -40.05 64.8 -38.0 64.8 -37.25 63.05 -36.25 M59.5 -49.45 Q59.5 -50.2 60.35 -50.2 61.15 -50.2 61.15 -49.35 61.15 -48.5 60.05 -48.5 59.65 -48.5 59.55 -48.75 L59.5 -49.45 M45.8 -40.5 L44.65 -39.1 43.3 -38.0 Q42.35 -38.0 42.35 -39.3 42.35 -40.2 43.2 -40.75 44.25 -41.4 45.75 -40.75 L45.8 -40.5 M43.0 -32.0 Q42.6 -31.5 42.1 -31.5 41.3 -31.5 41.1 -32.05 41.0 -32.3 41.05 -32.65 41.05 -33.65 42.2 -33.95 43.35 -34.2 43.35 -32.9 43.35 -32.45 43.0 -32.0 M55.4 -32.3 L55.15 -32.5 Q56.4 -33.5 57.0 -33.5 L55.4 -32.3 M51.0 -29.1 L50.55 -29.4 Q51.2 -30.15 51.75 -30.0 L51.0 -29.1 M51.65 -15.85 L50.8 -16.1 50.75 -16.8 Q51.45 -17.85 52.05 -17.7 52.6 -17.55 52.6 -16.8 52.6 -16.05 51.65 -15.85 M84.85 -53.3 Q84.85 -53.0 84.25 -53.0 83.65 -53.0 83.5 -53.45 L83.5 -53.8 Q83.5 -54.3 83.85 -54.55 84.3 -54.85 84.9 -53.8 L84.85 -53.3 M-20.4 -52.25 Q-19.4 -52.35 -19.0 -51.25 L-19.05 -51.0 -19.55 -50.9 -20.35 -51.0 -20.5 -51.75 -20.4 -52.25 M-39.25 -64.15 L-39.65 -64.15 Q-39.85 -64.25 -39.85 -64.65 -39.85 -65.25 -39.8 -64.85 L-39.5 -65.0 -39.05 -64.35 -39.25 -64.15 M-11.95 -68.55 Q-11.65 -68.2 -11.65 -67.9 -11.65 -66.7 -12.35 -66.45 -12.0 -66.15 -12.0 -65.0 -12.0 -64.0 -12.75 -63.65 -13.35 -64.25 -13.35 -65.0 -13.35 -66.1 -13.0 -66.4 -14.1 -66.5 -14.3 -67.45 L-14.3 -68.55 Q-14.3 -70.7 -13.25 -71.0 -12.25 -71.25 -12.25 -69.25 L-11.95 -68.55 M-12.35 -60.4 L-13.0 -60.25 -13.1 -60.25 -13.15 -60.65 -13.0 -61.8 -12.6 -62.65 Q-12.3 -62.0 -12.3 -61.2 L-12.35 -60.4 M-12.7 -58.25 Q-11.55 -58.25 -11.55 -57.15 L-11.8 -56.4 Q-12.15 -56.0 -12.75 -56.0 -13.45 -56.0 -13.75 -56.6 L-13.85 -57.15 Q-13.85 -58.25 -12.7 -58.25 M-12.85 -54.4 L-13.0 -54.5 -13.0 -54.9 Q-13.0 -55.7 -12.65 -55.8 -12.4 -55.3 -12.4 -54.6 L-12.85 -54.4 M-1.05 -55.85 L-1.0 -55.4 -1.0 -55.1 -1.3 -55.0 Q-1.65 -55.1 -1.65 -55.5 L-1.55 -56.0 -1.25 -56.0 -1.05 -55.85 M-41.0 -68.5 L-43.75 -70.9 Q-44.65 -71.65 -44.65 -73.3 -44.65 -74.7 -43.35 -74.55 -42.0 -74.35 -41.8 -72.5 L-41.4 -70.7 Q-40.85 -69.3 -40.85 -68.55 L-41.0 -68.5 M-57.75 -52.95 Q-56.15 -52.95 -56.15 -51.2 L-56.15 -50.85 Q-55.1 -49.8 -54.75 -48.0 L-54.75 -47.75 -53.85 -47.2 -53.0 -46.25 -53.05 -46.15 Q-53.15 -46.05 -53.35 -46.0 -54.4 -46.65 -54.85 -47.5 L-54.8 -47.6 -55.25 -47.55 Q-56.1 -47.55 -57.3 -49.4 L-57.75 -49.35 Q-59.05 -49.35 -59.3 -50.15 L-59.35 -51.0 Q-59.35 -52.95 -57.75 -52.95 M-49.25 -59.1 L-49.8 -58.75 Q-50.2 -58.75 -50.6 -59.55 L-50.5 -60.25 -49.5 -60.3 Q-49.0 -60.05 -49.0 -59.6 L-49.25 -59.1 M-46.15 -38.9 L-47.1 -38.6 Q-48.25 -38.6 -48.05 -39.9 -48.05 -41.25 -46.8 -41.25 -45.6 -41.25 -45.6 -39.85 -45.6 -39.3 -46.15 -38.9 M-51.05 -44.3 L-51.4 -44.0 Q-52.0 -44.05 -52.0 -44.35 L-51.85 -44.8 -51.5 -44.8 -51.05 -44.3 M-57.0 -31.65 Q-58.15 -31.65 -58.0 -32.5 -58.0 -33.4 -57.1 -33.35 -56.25 -33.35 -56.25 -32.4 -56.25 -31.65 -57.0 -31.65 M-41.15 -33.6 Q-41.15 -34.65 -40.0 -34.25 -39.8 -34.3 -39.8 -33.65 L-39.85 -33.2 -39.9 -33.25 -40.5 -33.0 -41.05 -33.1 -41.15 -33.6 M-70.65 -27.2 Q-69.55 -27.25 -69.55 -25.75 -69.55 -25.2 -69.8 -24.6 -70.15 -23.85 -70.75 -23.85 -71.75 -23.85 -71.75 -24.9 -71.75 -27.1 -70.65 -27.2 M-60.85 -18.85 L-61.5 -18.6 -62.0 -18.75 -62.1 -19.25 Q-62.1 -20.4 -60.9 -19.85 -60.75 -19.9 -60.75 -19.3 L-60.8 -18.85 -60.85 -18.85 M-7.1 -37.4 L-7.0 -36.75 -7.15 -36.5 -7.35 -36.45 -7.4 -36.8 -7.35 -37.4 -7.1 -37.4 M-6.75 -44.8 Q-6.25 -44.7 -6.25 -44.1 L-6.35 -43.0 -6.75 -42.75 Q-7.15 -43.3 -7.15 -44.25 L-7.05 -44.75 -6.75 -44.8 M-14.75 -43.55 Q-15.8 -43.55 -15.65 -44.75 -15.65 -45.65 -14.75 -45.7 -13.85 -45.75 -13.85 -44.75 L-14.0 -44.05 Q-14.25 -43.55 -14.75 -43.55 M-20.0 -37.25 L-20.65 -36.85 Q-21.55 -36.85 -21.9 -37.65 L-22.1 -38.25 Q-22.1 -39.3 -20.85 -39.15 -19.65 -38.95 -19.65 -37.8 -19.65 -37.6 -20.0 -37.25 M-19.5 -41.9 L-20.0 -41.8 Q-20.5 -41.8 -20.8 -42.25 L-21.0 -42.8 Q-21.0 -43.45 -20.25 -43.55 -19.5 -43.65 -19.25 -42.75 L-19.35 -42.0 -19.5 -41.9 M-18.15 -27.0 Q-19.15 -27.0 -20.75 -29.8 L-20.6 -31.0 Q-19.8 -30.95 -18.4 -29.7 -17.0 -28.45 -17.0 -27.95 -17.0 -27.0 -18.15 -27.0 M-6.65 -26.6 Q-6.85 -26.0 -7.5 -26.0 -8.35 -26.0 -8.5 -28.4 -8.5 -29.4 -7.55 -29.25 -6.6 -29.1 -6.6 -27.65 L-6.65 -26.6 M-22.0 -44.5 L-22.05 -44.35 -22.5 -44.25 Q-23.75 -44.25 -24.6 -47.15 -24.6 -48.5 -23.25 -47.45 -21.9 -46.4 -21.9 -45.4 L-22.0 -44.5 M-25.8 -37.45 Q-24.7 -36.6 -24.4 -35.85 L-24.65 -35.65 -25.25 -35.5 Q-26.2 -35.5 -27.05 -37.15 -27.05 -38.4 -25.8 -37.45 M-27.85 -38.65 Q-27.9 -38.55 -28.1 -38.5 L-29.8 -39.65 -31.0 -40.55 Q-30.0 -40.4 -27.8 -38.75 L-27.85 -38.65 M-36.3 -39.65 L-36.6 -39.35 Q-37.15 -39.45 -37.55 -39.9 L-37.9 -40.6 Q-37.9 -41.25 -37.5 -41.1 L-36.9 -40.4 -36.3 -39.65 M-35.25 -43.05 Q-34.6 -44.3 -33.45 -43.35 -32.7 -42.75 -32.25 -41.85 -32.25 -41.35 -32.75 -41.35 L-35.25 -43.05 M-24.8 -20.45 Q-23.35 -19.35 -23.35 -18.9 -23.35 -17.9 -24.9 -17.9 -26.0 -17.9 -26.25 -18.7 L-26.25 -19.5 Q-26.25 -21.55 -24.8 -20.45 M-34.55 -19.75 Q-33.8 -19.25 -33.0 -18.25 -33.05 -17.95 -33.4 -17.75 L-34.35 -18.6 -35.0 -19.4 -34.55 -19.75 M-36.6 -21.75 L-36.0 -21.0 -36.1 -20.8 -36.6 -20.75 -37.35 -21.25 -37.8 -21.95 -37.85 -21.85 Q-38.2 -21.3 -38.65 -21.3 -39.75 -21.3 -41.65 -24.35 -41.65 -26.2 -39.6 -24.8 -37.6 -23.4 -37.6 -22.75 L-37.75 -22.05 Q-37.15 -22.2 -36.6 -21.75 M-22.65 -3.15 Q-23.8 -3.15 -24.15 -3.85 L-24.3 -4.65 Q-24.3 -5.6 -22.8 -5.95 -21.3 -6.3 -21.3 -4.9 -21.3 -3.15 -22.65 -3.15 M-18.3 -21.4 Q-18.3 -22.35 -17.15 -22.35 -16.0 -22.35 -16.0 -21.25 -16.0 -19.75 -17.0 -19.75 -17.7 -19.75 -18.3 -21.4 M-15.4 -5.2 L-15.15 -5.55 Q-14.55 -5.5 -13.95 -4.85 -13.4 -4.25 -13.4 -3.9 -13.4 -2.75 -14.3 -2.75 -15.4 -2.75 -15.55 -4.6 L-15.4 -5.2" fill="#000000" fill-rule="evenodd" stroke="none"/>
  </g>
</svg>
