<?xml version="1.0" encoding="UTF-8" standalone="no"?>
<svg xmlns:xlink="http://www.w3.org/1999/xlink" height="84.25px" width="239.25px" xmlns="http://www.w3.org/2000/svg">
  <g transform="matrix(1.0, 0.0, 0.0, 1.0, 114.65, 96.25)">
    <path d="M44.35 -64.25 L44.75 -63.65 44.65 -63.25 44.0 -63.05 44.0 -63.65 44.2 -64.15 44.35 -64.25 M42.0 -50.55 Q42.6 -50.65 42.85 -50.25 L42.55 -50.0 Q42.0 -50.05 42.0 -50.55 M68.75 -66.6 L69.1 -66.3 69.3 -66.0 68.75 -65.4 68.25 -65.5 Q68.15 -65.6 68.15 -66.05 L68.35 -66.5 68.75 -66.6 M27.8 -48.0 L27.65 -47.55 Q27.5 -47.4 27.25 -47.35 L26.85 -47.5 26.75 -48.0 26.95 -48.5 27.25 -48.55 27.8 -48.0 M124.45 -59.75 L124.6 -59.3 124.55 -58.85 Q124.7 -58.65 124.05 -58.65 L123.65 -58.75 123.55 -59.0 123.55 -58.9 123.5 -59.3 123.7 -59.75 124.05 -59.8 124.45 -59.75 M100.7 -96.05 L100.8 -95.6 100.75 -95.15 100.15 -94.85 99.5 -95.35 99.5 -95.7 Q99.5 -96.0 100.5 -96.25 L100.7 -96.05 M90.7 -76.3 L90.65 -76.7 Q90.65 -77.3 90.75 -77.05 L91.3 -77.0 91.5 -76.65 90.85 -76.25 90.7 -76.3 M111.85 -43.85 L111.3 -43.25 111.05 -43.3 111.0 -43.8 111.2 -44.25 111.65 -44.25 111.85 -43.85 M97.1 -12.65 L97.0 -12.25 Q96.75 -12.05 96.3 -12.0 L96.15 -12.1 96.1 -12.5 96.35 -13.05 96.75 -13.25 97.1 -12.65 M-113.15 -68.5 L-113.25 -68.15 -113.75 -68.05 Q-114.2 -68.05 -114.65 -68.8 L-114.55 -69.3 Q-114.05 -69.5 -113.35 -69.3 L-113.15 -68.5 M-55.0 -94.4 Q-54.85 -94.5 -54.85 -93.85 L-54.9 -93.4 -55.0 -93.4 -55.5 -93.15 -56.1 -93.3 -56.25 -93.8 Q-56.25 -94.8 -55.0 -94.4 M-60.8 -63.75 L-60.75 -63.4 Q-60.75 -63.05 -61.25 -62.8 -61.75 -63.15 -61.75 -63.6 L-60.8 -63.75 M-76.6 -71.5 L-76.85 -71.15 -77.4 -71.0 -77.85 -71.1 -78.05 -71.3 -78.15 -72.0 Q-77.6 -72.85 -77.15 -72.65 -76.7 -72.5 -76.6 -71.5" fill="#000000" fill-rule="evenodd" stroke="none"/>
  </g>
</svg>
