<?xml version="1.0" encoding="UTF-8" standalone="no"?>
<svg xmlns:xlink="http://www.w3.org/1999/xlink" height="9.65px" width="8.35px" xmlns="http://www.w3.org/2000/svg">
  <g transform="matrix(1.0, 0.0, 0.0, 1.0, 2.7, 18.9)">
    <path d="M3.9 -17.6 L3.95 -17.6 4.1 -17.45 4.6 -16.85 3.35 -17.15 2.3 -17.1 Q1.55 -16.95 1.05 -16.3 0.45 -15.45 0.45 -14.25 L0.5 -13.45 1.35 -12.5 2.05 -12.5 2.7 -12.95 2.75 -13.35 2.5 -14.05 2.45 -14.0 Q2.45 -12.9 1.9 -12.9 1.3 -12.9 1.35 -13.85 1.35 -14.5 2.2 -15.0 L2.6 -15.6 3.6 -15.8 4.35 -15.95 4.6 -15.55 5.55 -13.9 Q6.0 -12.25 4.65 -11.1 L4.4 -10.7 Q3.35 -9.25 1.3 -9.25 -0.25 -9.25 -1.25 -10.2 -1.75 -10.6 -2.1 -11.3 L-2.4 -12.1 -2.7 -13.45 -2.55 -13.55 Q-2.55 -14.8 -1.85 -15.95 -0.55 -17.9 2.45 -17.9 L3.2 -17.75 3.9 -17.6 M0.4 -18.9 L0.25 -18.85 0.0 -18.8 0.4 -18.9 M1.15 -14.9 L1.1 -14.9 1.1 -15.0 1.15 -14.9" fill="#ff9900" fill-rule="evenodd" stroke="none"/>
  </g>
</svg>
