<?xml version="1.0" encoding="UTF-8" standalone="no"?>
<svg xmlns:xlink="http://www.w3.org/1999/xlink" height="225.95px" width="224.0px" xmlns="http://www.w3.org/2000/svg">
  <g transform="matrix(1.0, 0.0, 0.0, 1.0, 110.55, 131.85)">
    <path d="M103.15 -34.25 Q104.7 -11.7 98.6 13.2 93.45 34.1 84.2 52.2 75.95 68.4 68.85 74.3 62.65 79.45 42.75 82.75 L1.95 84.1 -39.8 82.75 Q-59.75 79.45 -65.95 74.3 -73.05 68.4 -81.3 52.2 -90.55 34.1 -95.7 13.2 -101.75 -11.7 -100.25 -34.25 -98.4 -60.85 -85.95 -81.45 -73.25 -102.55 -47.9 -113.05 -26.7 -121.85 1.45 -121.85 29.4 -121.85 50.8 -113.05 76.2 -102.55 88.9 -81.45 101.3 -60.85 103.15 -34.25" fill="#70381f" fill-rule="evenodd" stroke="none"/>
    <path d="M103.15 -34.25 Q104.7 -11.7 98.6 13.2 93.45 34.1 84.2 52.2 75.95 68.4 68.85 74.3 62.65 79.45 42.75 82.75 L1.95 84.1 -39.8 82.75 Q-59.75 79.45 -65.95 74.3 -73.05 68.4 -81.3 52.2 -90.55 34.1 -95.7 13.2 -101.75 -11.7 -100.25 -34.25 -98.4 -60.85 -85.95 -81.45 -73.25 -102.55 -47.9 -113.05 -26.7 -121.85 1.45 -121.85 29.4 -121.85 50.8 -113.05 76.2 -102.55 88.9 -81.45 101.3 -60.85 103.15 -34.25" fill="#70381f" fill-rule="evenodd" stroke="none"/>
    <path d="M103.15 -34.25 Q104.7 -11.7 98.6 13.2 93.45 34.1 84.2 52.2 75.95 68.4 68.85 74.3 62.65 79.45 42.75 82.75 L1.95 84.1 -39.8 82.75 Q-59.75 79.45 -65.95 74.3 -73.05 68.4 -81.3 52.2 -90.55 34.1 -95.7 13.2 -101.75 -11.7 -100.25 -34.25 -98.4 -60.85 -85.95 -81.45 -73.25 -102.55 -47.9 -113.05 -26.7 -121.85 1.45 -121.85 29.4 -121.85 50.8 -113.05 76.2 -102.55 88.9 -81.45 101.3 -60.85 103.15 -34.25 Z" fill="none" stroke="#3c190a" stroke-linecap="round" stroke-linejoin="round" stroke-width="20.0"/>
  </g>
</svg>
