<?xml version="1.0" encoding="UTF-8" standalone="no"?>
<svg xmlns:xlink="http://www.w3.org/1999/xlink" height="73.2px" width="66.95px" xmlns="http://www.w3.org/2000/svg">
  <g transform="matrix(1.0, 0.0, 0.0, 1.0, 33.5, 36.6)">
    <path d="M8.95 -23.75 Q-3.3 -30.05 -14.75 -22.35 -27.0 -14.1 -22.1 0.95 -18.2 12.9 -7.7 21.6 -1.05 27.2 11.9 26.55 L20.1 25.55 23.45 24.85 18.85 -15.9 16.15 -18.65 Q12.75 -21.8 8.95 -23.75" fill="#70381f" fill-rule="evenodd" stroke="none"/>
    <path d="M8.95 -23.75 Q-3.3 -30.05 -14.75 -22.35 -27.0 -14.1 -22.1 0.95 -18.2 12.9 -7.7 21.6 -1.05 27.2 11.9 26.55 L20.1 25.55 23.45 24.85 18.85 -15.9 16.15 -18.65 Q12.75 -21.8 8.95 -23.75 Z" fill="none" stroke="#3c190a" stroke-linecap="round" stroke-linejoin="round" stroke-width="20.0"/>
    <path d="M8.95 -23.75 Q-3.3 -30.05 -14.75 -22.35 -27.0 -14.1 -22.1 0.95 -18.2 12.9 -7.7 21.6 -1.05 27.2 11.9 26.55 L20.1 25.55 23.45 24.85 18.85 -15.9 16.15 -18.65 Q12.75 -21.8 8.95 -23.75" fill="#70381f" fill-rule="evenodd" stroke="none"/>
  </g>
</svg>
