<?xml version="1.0" encoding="UTF-8" standalone="no"?>
<svg xmlns:xlink="http://www.w3.org/1999/xlink" height="418.1px" width="275.8px" xmlns="http://www.w3.org/2000/svg">
  <g transform="matrix(1.0, 0.0, 0.0, 1.0, 107.75, 207.9)">
    <path d="M107.3 -81.55 L107.3 -79.35 Q107.3 -71.85 106.05 -64.7 104.8 -58.8 102.95 -53.25 L81.8 -75.65 83.05 -77.75 Q85.85 -83.75 87.45 -89.65 89.0 -96.8 89.0 -104.3 L89.0 -105.8 89.0 -107.35 106.75 -90.6 Q107.3 -86.2 107.3 -81.55 M66.8 -117.7 L68.4 -91.15 Q66.25 -88.4 63.4 -85.6 L62.5 -84.65 62.15 -84.3 Q56.5 -78.75 50.05 -75.65 L48.75 -101.45 Q55.35 -104.9 61.25 -110.8 L65.6 -115.4 66.8 -117.7 M-94.75 0.0 L-94.75 0.9 -94.75 5.6 Q-94.45 19.3 -91.0 31.75 -89.15 40.2 -85.35 48.6 -86.0 53.9 -86.0 60.15 L-85.7 67.2 Q-85.7 69.15 -85.35 70.65 L-89.15 99.9 Q-85.35 108.35 -79.8 116.4 L-86.0 147.25 Q-100.0 126.1 -104.95 101.2 L-105.3 99.0 -97.85 75.3 Q-101.5 60.15 -101.5 43.3 -101.5 34.85 -100.65 27.1 -99.1 12.8 -94.75 0.0 M122.25 -32.65 Q122.25 -32.95 122.6 -33.3 124.45 -40.75 125.35 -48.3 125.7 -53.25 125.7 -58.45 L125.7 -62.25 Q125.35 -69.45 124.45 -76.2 L123.25 -82.15 144.05 -57.55 Q145.0 -49.2 145.0 -40.4 147.75 -35.45 149.6 -29.55 L152.5 -15.8 152.7 -10.25 Q154.65 -2.2 156.85 5.6 159.65 15.55 160.8 26.2 160.8 26.75 161.15 27.45 L161.15 27.55 Q161.85 35.25 161.85 43.3 161.85 56.7 159.65 69.4 158.05 77.25 155.6 85.05 155.25 85.6 154.95 86.85 150.65 99.35 143.75 110.55 139.65 116.75 135.0 122.65 129.75 129.5 123.25 136.05 113.8 145.4 103.65 152.9 L102.05 149.1 109.15 141.35 Q121.9 126.45 130.35 113.05 141.55 94.95 144.65 80.05 145.95 70.65 145.95 60.15 L145.95 55.45 Q145.65 54.5 145.95 53.9 L144.65 42.95 Q147.2 35.8 149.05 28.3 L136.55 4.05 Q139.1 -2.8 141.25 -9.95 L141.85 -12.5 122.25 -32.65 M38.55 210.2 L30.15 210.2 Q-6.35 210.2 -35.9 194.0 L-31.25 160.3 Q-20.65 165.95 -9.1 169.4 9.3 176.85 31.7 176.85 L37.55 176.85 38.55 210.2" fill="#8a8a8a" fill-rule="evenodd" stroke="none"/>
    <path d="M89.0 -107.35 L89.0 -105.8 89.0 -104.3 Q89.0 -96.8 87.45 -89.65 85.85 -83.75 83.05 -77.75 L81.8 -75.65 102.95 -53.25 Q104.8 -58.8 106.05 -64.7 107.3 -71.85 107.3 -79.35 L107.3 -81.55 125.7 -62.25 125.7 -58.45 Q125.7 -53.25 125.35 -48.3 124.45 -40.75 122.6 -33.3 122.25 -32.95 122.25 -32.65 121.9 -31.75 121.9 -30.75 118.85 -20.55 113.25 -10.9 110.15 -5.9 106.75 -1.15 87.45 -7.5 64.95 -10.25 46.9 -12.5 26.7 -12.5 L-5.65 -10.9 Q-10.6 -13.4 -15.1 -16.8 -19.95 -20.55 -24.7 -25.2 -31.25 -31.75 -35.9 -39.2 L-54.5 -13.4 Q-59.2 -21.75 -61.75 -30.75 -63.3 -35.45 -64.2 -40.4 L-82.25 -15.25 -81.05 -9.95 Q-79.45 -4.4 -77.25 0.9 -75.15 6.9 -71.95 12.8 -83.25 25.55 -85.35 48.6 -89.15 40.2 -91.0 31.75 -94.45 19.3 -94.75 5.6 L-94.75 0.9 -94.75 0.0 Q-94.75 -4.05 -94.1 -8.05 L-82.55 -63.15 Q-82.25 -66.25 -81.35 -69.1 L-81.05 -70.95 -61.75 -86.5 Q-59.0 -97.15 -53.0 -106.75 L-40.9 -110.45 Q-35.25 -123.55 -24.7 -134.15 -19.95 -138.5 -15.1 -141.95 -26.5 -128.85 -28.4 -111.1 L-45.25 -97.15 -45.85 -94.25 Q-46.75 -88.7 -47.1 -82.75 L-47.1 -81.2 -47.1 -79.35 Q-47.1 -71.85 -45.85 -65.05 L-44.9 -60.35 -24.35 -81.55 Q-27.15 -88.7 -28.05 -96.45 L-16.3 -109.55 -16.6 -111.45 Q-17.2 -114.85 -17.2 -118.55 -17.2 -128.85 -13.45 -137.25 -12.55 -126.4 -6.65 -117.7 L-5.1 -115.4 -1.0 -110.8 Q4.55 -105.25 11.1 -101.8 L9.85 -76.0 Q3.35 -79.05 -2.55 -84.65 L-3.55 -85.6 -5.65 -87.75 -15.1 -66.55 -11.65 -62.9 -9.1 -60.35 Q-4.75 -56.35 -0.1 -53.5 13.3 -45.4 30.15 -45.4 L32.0 -45.4 32.25 -71.55 Q41.65 -71.85 50.05 -75.65 56.5 -78.75 62.15 -84.3 L62.5 -84.65 63.4 -85.6 Q66.25 -88.4 68.4 -91.15 L66.8 -117.7 Q72.8 -126.4 73.7 -136.65 L74.05 -141.6 74.05 -143.15 75.25 -142.55 Q83.3 -132.95 86.75 -121.1 88.65 -114.55 89.0 -107.35 M122.6 -109.25 L107.95 -114.85 Q113.55 -107.35 117.25 -98.95 L103.3 -105.25 Q100.75 -112.05 97.3 -118.3 92.3 -126.6 84.9 -134.15 80.2 -138.85 75.25 -142.55 L74.05 -143.8 74.05 -144.15 Q74.05 -145.7 73.7 -147.25 94.25 -138.85 111.4 -122.0 117.6 -115.75 122.6 -109.25 M161.15 27.55 L161.5 28.3 Q165.55 41.15 167.15 55.1 168.05 63.55 168.05 72.2 168.05 78.55 167.7 84.4 165.2 113.05 152.5 137.0 L143.75 110.55 Q150.65 99.35 154.95 86.85 155.25 85.6 155.6 85.05 158.05 77.25 159.65 69.4 161.85 56.7 161.85 43.3 161.85 35.25 161.15 27.55 M109.5 185.6 Q78.0 208.0 38.55 210.2 L37.55 176.85 31.7 176.85 Q9.3 176.85 -9.1 169.4 -20.65 165.95 -31.25 160.3 L-35.9 194.0 Q-53.0 184.35 -67.65 169.7 -78.25 159.15 -86.0 147.25 L-79.8 116.4 Q-85.35 108.35 -89.15 99.9 L-85.35 70.65 Q-85.05 75.3 -84.15 80.05 -80.15 100.25 -60.5 126.1 L-59.85 126.7 Q-54.25 133.85 -47.65 141.35 -39.9 150.35 -30.95 157.2 -20.95 164.75 -9.1 169.4 9.3 174.95 30.15 174.95 56.85 174.95 79.95 165.65 92.1 159.15 102.05 149.1 L103.65 152.9 109.5 185.6 M-105.3 99.0 Q-107.75 85.95 -107.75 72.2 -107.75 62.25 -106.55 52.9 -105.3 42.7 -102.55 33.35 L-100.65 27.1 Q-101.5 34.85 -101.5 43.3 -101.5 60.15 -97.85 75.3 L-105.3 99.0 M144.65 42.95 Q141.55 24.9 131.9 13.7 L136.55 4.05 149.05 28.3 Q147.2 35.8 144.65 42.95" fill="#9c9c9c" fill-rule="evenodd" stroke="none"/>
    <path d="M107.3 -81.55 Q107.3 -86.2 106.75 -90.6 L89.0 -107.35 Q88.65 -114.55 86.75 -121.1 L97.3 -118.3 Q100.75 -112.05 103.3 -105.25 L117.25 -98.95 Q113.55 -107.35 107.95 -114.85 L122.6 -109.25 Q136.3 -91.15 141.55 -69.65 141.55 -68.75 141.85 -68.15 142.85 -64.7 143.45 -61.0 143.45 -59.5 144.05 -57.55 L123.25 -82.15 124.45 -76.2 Q125.35 -69.45 125.7 -62.25 L107.3 -81.55 M-13.45 -137.25 Q-17.2 -128.85 -17.2 -118.55 -17.2 -114.85 -16.6 -111.45 L-16.3 -109.55 -28.05 -96.45 Q-27.15 -88.7 -24.35 -81.55 L-44.9 -60.35 -45.85 -65.05 Q-47.1 -71.85 -47.1 -79.35 L-47.1 -81.2 -47.1 -82.75 Q-46.75 -88.7 -45.85 -94.25 L-45.25 -97.15 -28.4 -111.1 Q-26.5 -128.85 -15.1 -141.95 L-13.75 -143.15 -13.75 -141.6 -13.45 -137.25 M-53.0 -106.75 Q-59.0 -97.15 -61.75 -86.5 L-81.05 -70.95 Q-73.6 -99.6 -51.1 -122.0 -34.05 -138.85 -13.45 -147.25 L-13.75 -143.8 Q-26.5 -137.25 -37.75 -126.4 -47.1 -117.35 -53.0 -106.75 M-71.95 12.8 Q-75.15 6.9 -77.25 0.9 -79.45 -4.4 -81.05 -9.95 L-82.25 -15.25 -64.2 -40.4 Q-63.3 -35.45 -61.75 -30.75 -59.2 -21.75 -54.5 -13.4 L-35.9 -39.2 Q-31.25 -31.75 -24.7 -25.2 -19.95 -20.55 -15.1 -16.8 -10.6 -13.4 -5.65 -10.9 -28.7 -8.35 -47.1 -2.2 L-53.65 0.0 Q-64.85 4.05 -71.95 12.8 M152.5 137.0 Q142.85 154.45 127.55 169.7 118.85 178.4 109.5 185.6 L103.65 152.9 Q113.8 145.4 123.25 136.05 129.75 129.5 135.0 122.65 139.65 116.75 143.75 110.55 L152.5 137.0" fill="#a8a8a8" fill-rule="evenodd" stroke="none"/>
    <path d="M74.05 -143.15 L74.05 -141.6 73.7 -136.65 Q72.8 -126.4 66.8 -117.7 L65.6 -115.4 61.25 -110.8 Q55.35 -104.9 48.75 -101.45 40.1 -97.7 30.15 -97.7 19.85 -97.7 11.1 -101.8 4.55 -105.25 -1.0 -110.8 L-5.1 -115.4 -6.65 -117.7 Q-12.55 -126.4 -13.45 -137.25 L-13.75 -141.6 -13.75 -143.15 -13.75 -143.8 -13.45 -147.25 Q-11.85 -161.85 -1.0 -172.8 12.05 -185.5 30.15 -185.5 48.45 -185.5 61.25 -172.8 72.1 -161.85 73.7 -147.25 74.05 -145.7 74.05 -144.15 L73.7 -144.15 74.05 -143.8 74.05 -143.15 M58.7 -151.9 Q57.55 -155.0 55.95 -157.2 L55.0 -158.75 Q53.4 -161.25 51.65 -163.1 42.9 -171.85 30.15 -171.85 17.65 -171.85 8.65 -163.1 6.75 -161.25 5.55 -159.05 4.55 -158.45 4.3 -157.2 2.8 -154.7 1.75 -151.9 1.4 -151.55 1.4 -151.25 L1.2 -149.7 Q-0.1 -146.0 -0.1 -141.6 -0.1 -129.15 8.65 -120.1 L9.85 -118.85 Q18.6 -111.45 30.15 -111.45 41.9 -111.45 50.35 -118.85 L51.65 -120.1 Q60.3 -129.15 60.3 -141.6 60.3 -146.0 59.4 -150.05 L58.7 -151.25 58.7 -151.9" fill="#777777" fill-rule="evenodd" stroke="none"/>
    <path d="M50.05 -75.65 Q41.65 -71.85 32.25 -71.55 L30.15 -71.55 Q19.2 -71.55 9.85 -76.0 L11.1 -101.8 Q19.85 -97.7 30.15 -97.7 40.1 -97.7 48.75 -101.45 L50.05 -75.65" fill="#a6a6a6" fill-rule="evenodd" stroke="none"/>
    <path d="M-85.35 48.6 Q-83.25 25.55 -71.95 12.8 -64.85 4.05 -53.65 0.0 L-47.1 -2.2 Q-28.7 -8.35 -5.65 -10.9 L26.7 -12.5 Q46.9 -12.5 64.95 -10.25 87.45 -7.5 106.75 -1.15 110.15 -5.9 113.25 -10.9 118.85 -20.55 121.9 -30.75 121.9 -31.75 122.25 -32.65 L141.85 -12.5 141.25 -9.95 Q139.1 -2.8 136.55 4.05 L131.9 13.7 Q141.55 24.9 144.65 42.95 L145.95 53.9 Q145.65 54.5 145.95 55.45 L145.95 60.15 Q145.95 70.65 144.65 80.05 141.55 94.95 130.35 113.05 121.9 126.45 109.15 141.35 L102.05 149.1 Q92.1 159.15 79.95 165.65 56.85 174.95 30.15 174.95 9.3 174.95 -9.1 169.4 -20.95 164.75 -30.95 157.2 -39.9 150.35 -47.65 141.35 -54.25 133.85 -59.85 126.7 L-60.5 126.1 Q-80.15 100.25 -84.15 80.05 -85.05 75.3 -85.35 70.65 -85.7 69.15 -85.7 67.2 L-86.0 60.15 Q-86.0 53.9 -85.35 48.6 M100.75 10.05 L97.65 9.0 Q67.15 -0.6 27.05 -0.6 -11.3 -0.6 -38.05 8.15 -40.9 9.0 -43.35 10.05 -56.45 15.0 -63.3 26.45 -71.7 39.85 -71.7 62.9 -71.7 67.9 -71.35 72.55 -71.05 76.6 -70.4 80.35 -65.5 103.35 -38.35 134.5 -10.95 165.65 31.35 165.65 73.7 165.65 99.55 134.5 126.05 103.35 130.65 80.35 131.55 74.1 131.9 67.2 L131.9 62.9 Q131.9 40.5 123.25 27.1 115.4 15.0 100.75 10.05" fill="#7e7e7e" fill-rule="evenodd" stroke="none"/>
    <path d="M86.75 -121.1 Q83.3 -132.95 75.25 -142.55 80.2 -138.85 84.9 -134.15 92.3 -126.6 97.3 -118.3 L86.75 -121.1 M32.25 -71.55 L32.0 -45.4 30.15 -45.4 Q13.3 -45.4 -0.1 -53.5 -4.75 -56.35 -9.1 -60.35 L-11.65 -62.9 -15.1 -66.55 -5.65 -87.75 -3.55 -85.6 -2.55 -84.65 Q3.35 -79.05 9.85 -76.0 19.2 -71.55 30.15 -71.55 L32.25 -71.55 M-15.1 -141.95 Q-19.95 -138.5 -24.7 -134.15 -35.25 -123.55 -40.9 -110.45 L-53.0 -106.75 Q-47.1 -117.35 -37.75 -126.4 -26.5 -137.25 -13.75 -143.8 L-15.1 -141.95" fill="#8e8e8e" fill-rule="evenodd" stroke="none"/>
    <path d="M58.7 -151.9 L58.7 -151.25 59.4 -150.05 Q60.3 -146.0 60.3 -141.6 60.3 -129.15 51.65 -120.1 L50.35 -118.85 Q41.9 -111.45 30.15 -111.45 18.6 -111.45 9.85 -118.85 L8.65 -120.1 Q-0.1 -129.15 -0.1 -141.6 -0.1 -146.0 1.2 -149.7 L1.4 -151.25 Q1.4 -151.55 1.75 -151.9 2.8 -154.7 4.3 -157.2 4.55 -158.45 5.55 -159.05 6.75 -161.25 8.65 -163.1 17.65 -171.85 30.15 -171.85 42.9 -171.85 51.65 -163.1 53.4 -161.25 55.0 -158.75 L55.95 -157.2 Q57.55 -155.0 58.7 -151.9" fill="url(#gradient0)" fill-rule="evenodd" stroke="none"/>
    <path d="M89.2 -147.55 Q89.2 -122.65 71.5 -104.9 53.75 -87.15 28.9 -87.15 3.95 -87.15 -13.75 -104.9 -31.5 -122.65 -31.5 -147.55 -31.5 -172.45 -13.75 -190.15 3.95 -207.9 28.9 -207.9 53.75 -207.9 71.5 -190.15 89.2 -172.45 89.2 -147.55" fill="url(#gradient1)" fill-rule="evenodd" stroke="none"/>
  </g>
  <defs>
    <radialGradient cx="0" cy="0" fx="-1251.2" fy="0" gradientTransform="matrix(-3.0E-4, -0.0661, 0.0488, -2.0E-4, 31.7, -130.05)" gradientUnits="userSpaceOnUse" id="gradient0" r="819.2" spreadMethod="pad">
      <stop offset="0.0" stop-color="#00ccff"/>
      <stop offset="0.2980392156862745" stop-color="#1475cb"/>
      <stop offset="0.8392156862745098" stop-color="#4d4d4d"/>
    </radialGradient>
    <radialGradient cx="0" cy="0" gradientTransform="matrix(0.0741, 0.0, 0.0, 0.0741, 28.9, -147.55)" gradientUnits="userSpaceOnUse" id="gradient1" r="819.2" spreadMethod="pad">
      <stop offset="0.44313725490196076" stop-color="#bbbbbb" stop-opacity="0.54901963"/>
      <stop offset="1.0" stop-color="#c2c2c2" stop-opacity="0.0"/>
    </radialGradient>
  </defs>
</svg>
