<?xml version="1.0" encoding="UTF-8" standalone="no"?>
<svg xmlns:xlink="http://www.w3.org/1999/xlink" height="133.85px" width="362.65px" xmlns="http://www.w3.org/2000/svg">
  <g transform="matrix(1.0, 0.0, 0.0, 1.0, -40.2, -13.2)">
    <path d="M380.55 34.15 L383.95 34.0 394.65 33.8 394.65 34.55 396.6 34.65 398.75 34.65 398.75 38.8 397.8 38.75 397.65 41.75 Q397.55 43.45 398.75 44.55 L398.85 47.2 398.75 66.0 Q398.2 67.6 398.2 68.55 L398.75 71.05 397.8 71.05 397.8 84.5 398.2 84.5 398.3 88.0 398.75 89.95 398.75 96.05 Q398.15 97.45 397.45 101.15 396.8 105.0 396.8 107.15 396.8 108.2 397.75 110.8 398.65 113.2 398.75 114.4 L398.95 115.05 397.4 122.35 397.4 126.7 398.95 126.7 398.95 131.85 Q398.1 133.55 397.4 136.75 396.4 140.7 396.4 143.1 L396.45 144.0 340.05 144.0 340.05 143.45 324.9 144.0 297.1 144.0 297.1 143.45 291.55 143.35 291.5 143.9 290.0 143.9 290.15 144.0 260.15 144.0 259.25 143.65 259.25 141.5 258.8 141.5 258.8 140.8 253.3 140.75 252.25 141.3 252.25 142.45 251.8 142.45 251.45 142.9 250.8 143.25 250.8 143.45 Q243.2 143.35 242.55 143.5 L240.6 143.9 240.6 144.0 191.45 144.0 190.75 143.65 186.65 143.55 186.65 142.15 181.2 142.15 181.2 143.05 178.15 143.05 175.9 144.0 45.05 144.0 44.5 143.65 44.5 142.35 Q43.05 141.35 42.4 139.85 L42.4 131.15 43.05 131.15 43.05 115.75 Q42.55 115.0 42.4 114.1 L42.8 111.45 42.8 104.6 43.3 104.6 43.3 99.3 Q42.8 98.8 42.8 97.6 L42.2 97.6 42.2 96.7 43.8 96.7 43.8 94.55 Q43.3 93.85 42.95 92.55 L42.8 90.95 42.9 89.55 43.3 87.7 43.3 73.45 42.2 73.45 42.2 72.65 43.3 72.65 43.3 63.9 42.2 60.6 42.2 55.15 42.8 55.15 Q42.8 54.4 43.3 53.9 L43.3 46.95 Q43.35 46.0 43.8 45.5 L43.8 38.75 Q43.4 37.45 43.35 35.1 44.5 34.15 45.75 33.5 L49.9 33.5 49.9 33.95 64.55 34.0 70.55 33.7 73.6 33.5 77.15 33.5 77.15 33.95 85.7 33.95 99.75 34.0 109.35 34.2 120.0 34.35 125.7 33.9 132.0 33.5 246.95 33.5 246.95 34.1 258.05 34.15 259.6 34.0 282.75 34.0 282.75 33.5 305.9 33.5 305.9 34.1 316.0 34.15 320.8 34.0 325.1 33.9 352.35 33.8 355.15 33.65 358.25 33.55 375.5 33.6 375.5 34.1 380.55 34.15" fill="#000000" fill-opacity="0.4" fill-rule="evenodd" stroke="none"/>
    <path d="M377.5 31.05 L377.5 31.6 382.5 31.65 385.9 31.45 396.65 31.25 396.65 32.0 398.6 32.1 400.75 32.1 400.75 36.3 399.8 36.25 Q399.95 37.1 399.6 39.2 399.55 40.95 400.75 42.0 L400.8 44.65 400.75 63.45 Q400.2 65.05 400.2 66.0 L400.75 68.55 399.8 68.55 399.8 81.95 400.2 81.95 400.3 85.45 Q400.45 86.5 400.75 87.4 L400.75 93.5 Q400.15 94.9 399.45 98.6 398.8 102.5 398.8 104.6 398.8 105.65 399.75 108.25 400.65 110.7 400.75 111.85 L400.95 112.55 399.4 119.8 399.4 124.15 400.95 124.15 400.95 129.3 Q400.05 131.05 399.4 134.2 398.35 138.15 398.35 140.55 L398.45 141.45 342.05 141.45 342.05 140.9 326.9 141.45 299.1 141.45 299.1 140.9 293.55 140.8 293.5 141.35 292.0 141.35 292.15 141.45 262.15 141.45 261.25 141.15 261.25 138.95 260.8 138.95 260.8 138.3 255.25 138.25 254.25 138.75 254.25 139.9 253.8 139.9 253.45 140.35 252.8 140.7 252.8 140.9 Q245.2 140.8 244.5 140.95 L242.6 141.35 242.6 141.45 193.45 141.45 192.75 141.15 188.65 141.05 188.65 139.6 183.2 139.6 183.2 140.5 180.15 140.5 177.9 141.45 47.05 141.45 46.5 141.15 46.5 139.8 Q45.0 138.8 44.4 137.35 L44.4 128.6 45.0 128.6 45.0 113.2 Q44.55 112.5 44.4 111.6 L44.8 108.95 44.8 102.05 45.3 102.05 45.3 96.75 Q44.8 96.25 44.8 95.1 L44.2 95.1 44.2 94.2 45.8 94.2 45.8 92.0 Q45.3 91.35 44.95 90.0 L44.8 88.4 44.9 87.0 45.3 85.15 45.3 70.9 44.2 70.9 44.2 70.1 45.3 70.1 45.3 61.35 44.2 58.05 44.2 52.6 44.8 52.6 Q44.8 51.9 45.3 51.35 L45.3 44.45 Q45.35 43.45 45.8 42.95 L45.8 36.25 Q45.4 34.9 45.35 32.6 L47.7 30.95 51.85 30.95 51.85 31.4 66.5 31.45 72.55 31.15 75.6 30.95 79.15 30.95 79.15 31.4 87.7 31.4 101.75 31.45 111.35 31.7 121.95 31.8 127.7 31.35 134.0 30.95 248.9 30.95 248.9 31.6 260.05 31.65 261.6 31.45 284.75 31.45 284.75 30.95 307.9 30.95 307.9 31.6 318.0 31.65 322.8 31.45 327.05 31.35 354.35 31.25 357.15 31.1 360.25 31.0 377.5 31.05" fill="#ce9d46" fill-rule="evenodd" stroke="none"/>
    <path d="M401.35 47.1 Q400.3 47.65 398.3 47.65 L395.05 47.2 394.95 46.7 399.6 45.8 402.25 45.15 402.5 45.95 401.35 47.1 M360.55 27.7 L360.8 28.65 Q360.8 29.5 360.05 31.2 L358.95 33.7 358.45 33.8 358.05 32.7 358.0 31.3 Q358.0 30.45 358.6 29.25 L359.9 27.45 360.55 27.7 M396.15 50.9 Q397.1 50.4 398.95 50.2 400.7 50.05 401.8 50.2 L402.05 50.95 401.8 51.55 400.85 51.65 398.2 51.4 396.15 50.9 M402.75 77.05 L401.8 77.4 399.35 76.85 396.6 76.0 Q396.4 76.7 396.4 75.45 396.4 72.65 402.85 76.35 L402.75 77.05 M400.1 110.45 L400.7 110.55 Q400.9 110.55 400.9 111.35 L400.85 112.1 400.6 112.35 396.7 112.35 Q394.55 112.05 394.4 111.65 395.15 110.9 396.15 110.7 L400.1 110.45 M401.3 105.0 Q400.95 105.65 400.5 105.75 L394.1 105.75 Q393.95 105.7 393.95 104.95 L394.05 104.1 394.15 104.15 398.85 104.05 399.7 104.1 401.05 104.25 401.3 105.0 M397.4 137.7 Q398.6 138.35 399.5 139.75 399.4 140.75 398.65 141.1 L396.6 139.75 394.95 138.45 Q395.8 136.9 397.4 137.7 M361.3 136.0 Q361.7 136.65 362.0 138.85 L362.0 144.95 361.1 145.8 Q360.15 145.2 359.9 144.2 L359.85 142.7 Q359.75 141.05 359.9 139.6 360.2 136.55 361.3 136.0 M296.6 26.85 L297.15 26.8 Q298.65 28.35 299.2 32.8 L299.2 32.9 297.5 32.9 296.85 31.0 296.15 27.95 Q296.15 27.15 296.6 26.85 M296.7 32.9 L296.55 33.8 295.75 34.0 Q295.35 34.0 295.0 32.9 L296.7 32.9 M311.35 28.3 L311.45 27.3 311.45 27.2 311.9 27.2 312.7 29.2 313.35 31.15 Q313.35 32.3 313.2 31.75 L312.7 32.3 Q312.25 31.85 311.85 30.55 311.35 29.3 311.35 28.3 M260.6 29.2 Q261.35 31.15 261.35 31.85 L261.3 32.55 260.9 32.5 Q259.95 31.85 259.65 30.2 L259.0 27.3 259.3 27.0 Q259.65 27.2 260.6 29.2 M214.15 29.6 Q215.35 26.55 215.8 26.25 L216.35 26.55 Q216.55 26.75 216.55 27.6 216.55 29.05 213.9 35.0 L213.15 35.0 Q213.0 34.65 213.0 33.5 213.0 32.75 214.15 29.6 M211.35 35.05 L210.65 35.05 210.65 35.0 211.4 35.0 211.35 35.05 M175.55 28.15 Q175.55 26.25 176.55 25.75 L178.35 33.7 Q178.1 34.5 177.55 34.65 177.3 34.5 176.4 31.65 175.55 28.75 175.55 28.15 M185.15 31.5 Q184.65 30.05 184.65 28.85 184.65 28.15 184.95 28.05 L185.3 28.05 Q186.35 28.95 186.65 30.55 L187.25 33.35 186.55 34.1 Q185.65 33.15 185.15 31.5 M220.3 137.15 Q221.25 138.05 221.6 140.6 222.15 143.5 222.7 144.55 L222.45 145.2 221.55 145.5 Q220.65 145.5 219.35 138.7 219.35 137.85 219.6 137.6 219.7 137.35 220.3 137.15 M212.8 146.65 L212.7 145.5 212.55 140.15 Q212.6 136.9 213.6 136.1 L214.0 141.15 214.2 146.2 213.5 146.9 212.8 146.65 M291.95 144.75 Q291.8 144.5 291.8 143.7 291.8 142.15 292.4 139.2 293.1 136.25 293.45 136.1 293.9 136.9 293.9 138.85 L293.75 142.15 Q293.4 144.0 292.4 145.0 L291.95 144.75 M313.4 138.55 Q313.4 137.75 313.65 137.75 L314.05 137.7 315.1 137.7 Q315.1 138.85 315.55 141.05 L316.3 144.75 316.05 145.3 Q315.8 145.75 315.1 145.75 L314.3 145.65 314.3 145.4 313.65 141.55 313.4 138.55 M272.35 146.65 L272.15 145.5 272.0 140.15 Q272.05 136.9 273.1 136.1 L273.45 141.15 273.7 146.2 272.95 146.9 272.35 146.65 M279.7 137.15 Q280.65 138.05 281.1 140.6 281.6 143.5 282.15 144.55 L281.9 145.2 Q281.6 145.5 280.95 145.5 280.15 145.5 278.9 138.7 278.9 137.85 279.05 137.6 279.2 137.35 279.7 137.15 M136.0 25.5 L136.65 25.5 Q137.6 26.5 137.55 29.05 137.5 31.9 137.8 32.65 L137.45 32.9 136.55 32.9 Q135.85 29.2 135.85 26.7 L135.85 25.75 136.0 25.5 M134.95 32.9 L134.15 33.1 134.05 32.9 134.95 32.9 M122.45 28.6 L122.05 32.3 121.2 32.5 121.05 32.05 121.0 31.15 Q121.0 30.5 121.35 29.2 L121.65 27.1 122.25 27.1 122.4 27.5 122.45 28.6 M94.9 27.9 Q94.9 30.75 94.5 33.45 94.4 33.45 94.2 33.7 L93.6 34.05 92.75 33.3 Q92.6 33.05 92.6 32.15 92.6 25.25 94.0 23.85 94.5 24.55 94.7 25.95 L94.9 27.9 M48.95 41.25 L47.8 41.55 45.15 41.4 42.95 40.85 Q45.3 38.4 49.2 39.85 L49.55 40.6 48.95 41.25 M41.35 72.6 Q41.1 73.2 41.1 71.95 41.1 71.15 43.0 70.45 L48.15 69.95 48.2 69.95 Q48.4 70.05 48.4 70.9 48.4 71.55 46.25 72.3 L42.1 72.8 41.35 72.75 41.35 72.6 M49.25 95.05 L49.3 95.75 Q49.3 97.7 42.1 99.7 L41.35 99.55 41.35 99.4 Q41.1 100.05 41.1 98.85 41.1 98.3 44.55 96.5 48.0 94.7 49.1 94.8 L49.25 95.05 M46.85 114.85 L45.35 115.05 43.55 115.5 42.7 115.4 Q42.5 115.3 42.5 114.5 42.5 113.8 43.4 113.35 L44.1 113.1 Q45.75 112.7 46.85 113.1 L47.1 113.85 46.85 114.85 M40.8 122.65 Q42.85 119.9 43.7 119.9 44.3 119.9 46.65 121.25 L46.85 122.05 Q46.4 123.0 45.75 123.25 L42.3 123.25 Q41.15 123.05 40.8 122.65 M49.65 136.7 L49.65 137.1 44.95 140.0 41.1 142.2 40.2 141.6 41.9 140.0 Q42.75 139.35 44.15 138.4 46.0 137.1 47.25 136.7 48.65 136.1 49.4 136.3 L49.6 136.3 49.65 136.7 M131.0 142.1 L131.35 144.45 131.4 145.8 131.35 146.65 131.2 146.8 130.7 147.05 Q129.65 145.65 129.1 142.7 L128.4 137.6 128.55 137.15 Q130.25 138.05 131.0 142.1 M100.2 146.05 L100.15 145.05 Q100.15 144.05 100.95 140.5 102.0 136.55 102.65 136.0 L103.25 136.3 103.4 137.4 Q103.4 138.85 102.65 141.7 L101.55 145.9 Q101.35 146.15 100.95 146.2 L100.2 146.05" fill="#a88335" fill-rule="evenodd" stroke="none"/>
    <path d="M369.0 32.4 L368.95 32.45 Q367.8 33.2 367.8 34.45 367.8 35.75 368.5 37.5 L369.0 38.55 369.0 42.75 Q368.15 43.75 368.15 45.7 L368.2 46.35 367.5 48.8 365.4 48.55 Q363.8 48.6 362.65 49.4 361.85 49.9 361.55 50.75 L357.5 50.25 350.15 50.55 Q348.15 50.9 347.4 51.6 L305.9 51.6 Q305.15 51.15 303.85 50.8 L261.3 50.75 247.25 51.6 224.05 51.6 220.55 51.3 211.1 50.6 Q205.0 50.9 201.2 50.6 199.2 50.75 198.15 51.6 L173.95 51.6 172.7 50.9 170.25 50.45 161.7 50.9 156.65 50.9 155.5 50.85 150.4 51.6 126.35 51.6 Q125.55 50.95 124.0 50.7 L116.85 50.6 114.15 50.55 103.15 51.6 102.95 51.6 97.9 51.45 92.8 51.15 88.7 51.6 82.4 51.6 Q82.2 49.8 81.15 48.25 L80.1 46.95 80.1 45.45 Q80.6 45.0 80.75 44.15 L80.85 41.35 Q80.85 39.5 80.5 37.85 L80.1 35.9 80.1 29.4 80.55 28.1 80.2 22.7 80.1 21.45 80.1 20.9 80.25 20.75 80.2 20.5 Q80.2 19.7 80.85 19.3 L81.5 19.0 82.25 18.05 83.2 17.0 85.55 16.9 85.7 16.9 87.0 16.4 90.55 16.4 95.35 16.25 112.85 16.15 118.65 16.1 166.8 16.1 168.9 16.35 169.05 16.4 205.5 16.4 205.9 16.7 206.15 16.8 226.55 16.8 235.75 17.3 236.5 17.3 236.9 17.0 241.15 17.3 251.65 16.4 282.75 16.4 286.2 17.0 291.45 17.05 305.8 16.8 306.15 16.75 316.65 16.75 317.15 16.95 317.65 16.8 326.8 16.75 327.95 16.4 362.85 16.4 364.1 17.4 Q366.35 19.0 369.0 19.3 L369.0 32.4" fill="#3cadc6" fill-rule="evenodd" stroke="none"/>
    <path d="M366.1 42.25 L366.2 41.8 370.55 41.4 371.1 42.05 370.85 42.7 368.15 42.9 366.2 42.8 366.1 42.25 M361.1 19.65 Q361.1 18.7 362.95 15.35 364.7 12.05 364.7 14.65 L363.35 17.35 361.55 20.25 361.1 19.65 M339.7 16.1 Q339.7 13.65 340.3 14.3 340.95 15.0 340.95 17.65 340.95 19.0 340.35 19.0 340.1 19.0 339.85 17.55 L339.7 16.1 M335.15 16.05 L335.25 13.2 Q336.6 13.0 336.6 18.45 336.6 19.25 335.9 19.25 335.5 19.25 335.3 17.65 L335.15 16.05 M361.7 47.25 L362.7 49.5 Q363.5 51.6 363.5 52.05 363.5 52.75 362.95 52.75 362.6 52.75 362.0 50.6 361.45 48.8 361.45 48.45 L361.7 47.25 M359.55 48.6 L360.4 52.4 360.35 52.8 359.9 53.1 Q359.35 53.1 359.0 50.7 L358.65 46.95 Q358.7 45.35 359.55 48.6 M349.75 54.8 L349.45 54.9 Q348.95 54.55 348.85 53.85 L348.8 52.6 Q348.8 48.1 349.35 49.55 349.9 51.1 349.9 53.95 L349.75 54.8 M328.45 51.9 Q329.1 53.85 329.1 54.85 L329.05 55.3 328.6 55.65 Q328.15 55.65 327.85 54.2 L327.75 52.85 Q327.75 50.05 328.45 51.9 M295.75 21.05 L295.65 21.7 Q295.55 21.95 295.15 21.95 294.5 21.95 294.35 20.8 L294.35 19.7 294.55 16.25 Q294.8 13.3 295.5 15.55 L295.75 21.05 M266.2 18.35 L265.9 18.3 265.7 18.05 265.65 17.25 Q265.65 16.4 266.25 15.55 266.85 14.6 266.85 16.6 L266.7 18.05 266.2 18.35 M248.75 18.05 Q248.75 18.8 248.05 18.8 247.65 18.8 247.3 17.15 L247.05 15.55 Q247.05 13.4 247.95 15.15 248.75 16.95 248.75 18.05 M321.3 55.3 Q320.9 55.05 320.85 54.65 L320.8 53.85 320.85 52.55 Q321.0 51.6 321.45 51.45 322.0 51.6 322.0 52.75 321.6 55.1 321.3 55.3 M289.9 53.3 L289.8 53.9 289.3 54.2 Q288.75 54.2 288.35 52.45 L288.05 50.55 Q288.05 49.7 288.7 49.7 289.3 49.7 289.45 50.95 L289.9 53.3 M187.45 15.3 L187.3 16.25 187.1 17.45 186.85 17.7 Q186.55 17.1 186.55 16.35 L186.7 15.55 187.05 14.7 187.35 14.8 187.45 15.3 M201.2 16.65 Q201.2 12.4 201.8 13.65 202.4 14.8 202.4 18.15 202.4 19.65 201.9 19.65 201.55 19.65 201.35 18.05 L201.2 16.65 M182.65 53.55 L182.3 55.75 182.0 55.9 Q181.6 55.4 181.6 54.75 L181.9 53.2 182.25 52.15 Q182.65 52.8 182.65 53.55 M185.0 53.4 L185.1 52.5 Q185.25 51.6 185.5 51.4 L185.8 52.95 186.0 54.85 185.85 55.85 185.55 56.05 Q185.35 56.05 185.15 54.75 L185.0 53.4 M241.75 53.85 Q241.75 50.8 242.2 50.4 L242.9 54.65 242.65 55.25 242.3 55.45 Q241.9 55.45 241.75 54.65 L241.75 53.85 M147.95 17.8 Q147.5 17.6 147.5 15.8 147.5 14.25 147.95 13.75 148.35 14.25 148.35 15.9 148.35 17.25 147.95 17.8 M142.3 16.45 L142.05 14.8 142.15 14.3 Q143.5 14.3 143.45 17.55 L143.4 18.0 Q143.45 18.15 143.1 18.15 142.65 18.15 142.3 16.45 M83.1 14.6 L84.15 16.65 84.95 19.0 84.85 19.3 Q84.8 19.45 84.55 19.45 83.85 19.45 83.25 17.45 L82.7 15.35 Q82.7 14.75 83.1 14.6 M82.6 23.35 L82.45 23.95 82.1 24.05 80.2 23.0 Q79.0 22.15 79.0 21.45 L79.05 20.95 Q80.0 21.25 81.2 21.9 82.6 22.75 82.6 23.35 M98.9 17.4 L98.75 18.25 98.5 18.4 Q98.3 18.25 98.05 16.55 L97.8 14.55 Q97.8 13.8 98.15 13.7 98.4 14.0 98.65 15.6 L98.9 17.4 M95.2 14.4 Q95.3 14.0 95.55 13.7 96.15 14.6 96.3 16.15 L96.45 19.0 95.85 19.6 95.55 19.5 95.45 19.3 95.1 14.8 95.2 14.4 M83.3 47.6 L82.4 49.2 81.35 50.6 80.9 49.85 Q80.9 49.35 81.55 48.25 82.4 46.85 83.3 47.6 M81.2 34.8 L79.95 35.05 Q79.55 34.85 79.55 34.35 79.55 33.75 81.0 33.45 82.4 33.1 82.85 33.65 82.4 34.55 81.2 34.8 M82.8 37.45 Q82.8 38.0 82.5 38.1 L81.5 38.2 80.25 38.1 79.95 37.65 Q80.0 37.05 80.2 36.9 L82.15 36.8 Q82.8 36.8 82.8 37.45 M92.1 50.5 Q92.8 52.5 92.8 54.1 L92.75 54.65 92.3 54.9 Q91.95 54.9 91.65 52.95 L91.35 50.95 Q91.35 48.45 92.1 50.5 M152.6 53.95 Q152.25 53.95 152.0 52.55 L151.95 51.05 Q151.95 50.1 152.35 49.8 153.0 50.9 153.0 53.15 L152.95 53.75 Q153.0 53.95 152.6 53.95 M123.85 52.75 L123.8 53.45 Q123.8 53.75 123.4 53.75 122.85 53.75 122.75 52.6 L122.75 51.4 Q122.75 50.05 123.2 49.5 L123.6 51.05 123.85 52.75" fill="#367583" fill-rule="evenodd" stroke="none"/>
  </g>
</svg>
