<?xml version="1.0" encoding="UTF-8" standalone="no"?>
<svg xmlns:xlink="http://www.w3.org/1999/xlink" height="77.75px" width="59.0px" xmlns="http://www.w3.org/2000/svg">
  <g transform="matrix(1.0, 0.0, 0.0, 1.0, 8.65, 7.5)">
    <path d="M20.9 47.95 L17.65 44.4 14.65 41.6 5.2 35.05 2.35 33.9 -0.65 32.8 -2.0 32.5 -3.35 32.25 -5.85 31.9 -7.85 29.95 -6.4 28.4 -5.6 27.65 2.7 18.8 2.65 18.75 4.1 17.25 5.3 16.2 8.45 16.95 10.9 17.8 Q21.15 21.55 30.45 31.2 39.5 40.6 42.9 50.75 L43.65 53.15 44.4 56.3 43.35 57.3 42.35 58.35 42.35 58.4 41.6 59.1 40.95 59.8 39.6 61.1 31.65 69.15 29.9 67.5 29.6 64.95 29.4 63.95 29.3 63.6 29.2 63.35 29.0 62.45 28.7 61.4 27.7 58.65 Q25.35 53.0 20.9 47.95" fill="#000000" fill-opacity="0.2" fill-rule="evenodd" stroke="none"/>
    <path d="M7.45 15.45 L10.1 16.4 Q21.05 20.5 31.15 30.6 41.3 40.75 45.35 51.65 L46.25 54.25 47.15 57.65 46.4 58.4 45.65 59.15 44.25 60.55 35.55 69.25 33.65 67.35 33.25 64.55 32.5 61.7 Q29.35 51.35 19.85 41.85 10.4 32.4 0.05 29.25 L-2.9 28.55 -5.55 28.15 -7.55 26.15 4.05 14.55 7.45 15.45" fill="#593d1e" fill-rule="evenodd" stroke="none"/>
    <path d="M7.45 15.45 L4.05 14.55 -7.55 26.15 -5.55 28.15 -2.9 28.55 0.05 29.25 Q10.4 32.4 19.85 41.85 29.35 51.35 32.5 61.7 L33.25 64.55 33.65 67.35 35.55 69.25 44.25 60.55 45.65 59.15 46.4 58.4 47.15 57.65 46.25 54.25 45.35 51.65 Q41.3 40.75 31.15 30.6 21.05 20.5 10.1 16.4 L7.45 15.45 Z" fill="none" stroke="#911d0e" stroke-linecap="round" stroke-linejoin="round" stroke-width="2.0"/>
    <path d="M8.25 17.35 L5.6 16.9 3.6 14.9 5.1 13.4 6.3 12.3 9.65 13.15 12.3 14.1 Q23.2 18.1 33.35 28.25 43.5 38.4 47.55 49.35 L48.45 51.95 49.35 55.35 48.2 56.5 46.7 58.0 44.8 56.1 44.4 53.3 43.65 50.45 Q40.45 40.15 30.95 30.65 21.5 21.2 11.25 18.05 L8.25 17.35" fill="#4c730d" fill-rule="evenodd" stroke="none"/>
    <path d="M8.25 17.35 L11.25 18.05 Q21.5 21.2 30.95 30.65 40.45 40.15 43.65 50.45 L44.4 53.3 44.8 56.1 46.7 58.0 48.2 56.5 49.35 55.35 48.45 51.95 47.55 49.35 Q43.5 38.4 33.35 28.25 23.2 18.1 12.3 14.1 L9.65 13.15 6.3 12.3 5.1 13.4 3.6 14.9 5.6 16.9 8.25 17.35 Z" fill="none" stroke="#911d0e" stroke-linecap="round" stroke-linejoin="round" stroke-width="2.0"/>
    <path d="M9.65 13.15 L12.3 14.1 Q23.2 18.1 33.35 28.25 43.5 38.4 47.55 49.35 L48.45 51.95 49.35 55.35 48.2 56.5 46.7 58.0 44.8 56.1 44.4 53.3 43.65 50.45 Q40.45 40.15 30.95 30.65 21.5 21.2 11.25 18.05 L8.25 17.35 5.6 16.9 3.6 14.9 5.1 13.4 6.3 12.3 9.65 13.15" fill="#ff5941" fill-rule="evenodd" stroke="none"/>
    <path d="M4.95 13.75 L8.3 14.6 10.95 15.55 Q21.9 19.6 32.0 29.7 42.15 39.85 46.2 50.8 L47.1 53.4 48.0 56.8 46.9 57.95 46.75 58.1 44.85 56.2 44.45 53.4 43.7 50.55 Q40.5 40.2 31.0 30.7 21.55 21.25 11.25 18.1 L8.25 17.4 5.65 17.0 3.65 15.0 3.8 14.85 4.95 13.75" fill="#c93523" fill-rule="evenodd" stroke="none"/>
    <path d="M7.45 15.45 L10.1 16.4 Q21.05 20.5 31.15 30.6 41.3 40.75 45.35 51.65 L46.25 54.25 47.15 57.65 46.4 58.4 45.65 59.15 44.25 60.55 35.55 69.25 33.65 67.35 33.25 64.55 32.5 61.7 Q29.35 51.35 19.85 41.85 10.4 32.4 0.05 29.25 L-2.9 28.55 -5.55 28.15 -7.55 26.15 4.05 14.55 7.45 15.45" fill="#959595" fill-rule="evenodd" stroke="none"/>
    <path d="M43.8 47.95 L44.45 47.3 38.2 53.5 31.9 59.85 Q28.5 50.5 19.85 41.85 11.2 33.2 1.85 29.85 L13.75 17.95 Q22.75 22.2 31.15 30.6 39.55 39.0 43.8 47.95" fill="#9f9f9f" fill-rule="evenodd" stroke="none"/>
    <path d="M33.7 48.5 L28.85 53.35 Q25.45 47.45 19.85 41.85 14.15 36.15 8.15 32.75 L19.7 21.25 Q25.55 25.0 31.15 30.6 36.65 36.1 40.4 41.85 L33.7 48.5" fill="#b0b0b0" fill-rule="evenodd" stroke="none"/>
    <path d="M-2.95 28.5 L-5.6 28.05 -7.6 26.05 -6.1 24.55 -4.9 23.45 -1.55 24.3 1.1 25.25 Q12.0 29.25 22.15 39.4 32.3 49.55 36.35 60.5 L37.25 63.1 38.15 66.5 37.0 67.65 35.5 69.15 33.6 67.25 33.2 64.45 32.45 61.6 Q29.25 51.3 19.75 41.8 10.3 32.35 0.05 29.2 L-2.95 28.5" fill="#4c730d" fill-rule="evenodd" stroke="none"/>
    <path d="M-2.95 28.5 L0.05 29.2 Q10.3 32.35 19.75 41.8 29.25 51.3 32.45 61.6 L33.2 64.45 33.6 67.25 35.5 69.15 37.0 67.65 38.15 66.5 37.25 63.1 36.35 60.5 Q32.3 49.55 22.15 39.4 12.0 29.25 1.1 25.25 L-1.55 24.3 -4.9 23.45 -6.1 24.55 -7.6 26.05 -5.6 28.05 -2.95 28.5 Z" fill="none" stroke="#911d0e" stroke-linecap="round" stroke-linejoin="round" stroke-width="2.0"/>
    <path d="M-1.55 24.3 L1.1 25.25 Q12.0 29.25 22.15 39.4 32.3 49.55 36.35 60.5 L37.25 63.1 38.15 66.5 37.0 67.65 35.5 69.15 33.6 67.25 33.2 64.45 32.45 61.6 Q29.25 51.3 19.75 41.8 10.3 32.35 0.05 29.2 L-2.95 28.5 -5.6 28.05 -7.6 26.05 -6.1 24.55 -4.9 23.45 -1.55 24.3" fill="#ff5941" fill-rule="evenodd" stroke="none"/>
    <path d="M35.7 69.1 L35.55 69.25 33.65 67.35 33.25 64.55 32.5 61.7 Q29.35 51.35 19.85 41.85 10.4 32.4 0.05 29.25 L-2.9 28.55 -5.55 28.15 -7.55 26.15 -7.4 26.0 -6.2 24.9 -2.85 25.75 -0.2 26.7 Q10.75 30.8 20.85 40.9 31.0 51.05 35.05 61.95 L35.95 64.55 36.85 67.95 35.7 69.1" fill="#c93523" fill-rule="evenodd" stroke="none"/>
    <path d="M0.65 18.1 L-1.9 20.1 Q-2.5 19.8 -3.15 19.55 -3.65 19.05 -3.25 18.6 L-0.7 16.5 0.55 17.05 Q1.5 17.3 0.65 18.1 M-1.45 14.0 L-3.2 15.5 Q-2.55 15.65 -3.25 16.25 L-6.15 18.85 -7.3 19.05 -8.65 20.15 4.2 27.6 7.35 27.25 9.3 25.9 5.3 23.85 Q4.4 23.25 5.1 22.8 L8.3 20.5 9.85 21.35 Q10.15 21.2 10.0 21.35 L12.0 22.1 15.6 21.7 18.4 19.85 1.05 13.25 -1.45 14.0 M0.65 20.6 L3.55 18.4 4.95 19.15 Q6.1 19.3 5.05 20.1 L2.2 22.2 0.75 21.55 Q0.05 21.05 0.65 20.6 M31.55 28.9 L28.75 29.1 26.3 30.95 Q26.95 31.6 26.0 32.45 L21.75 35.7 20.3 35.75 18.1 37.45 Q25.7 42.25 30.1 51.7 L32.95 51.65 35.3 49.75 32.3 46.35 Q31.7 45.3 32.5 44.8 L36.0 42.15 37.3 43.55 37.4 43.55 38.75 45.2 41.95 45.0 44.45 43.2 Q39.2 33.3 31.55 28.9 M28.65 33.65 L29.85 34.95 Q30.65 35.65 29.6 36.5 L26.1 39.25 24.95 37.85 Q24.4 36.9 25.2 36.3 L28.65 33.65 M33.55 39.2 Q34.3 39.85 33.4 40.7 L29.75 43.35 28.55 42.0 Q27.9 41.15 28.7 40.5 L32.25 37.8 33.55 39.2" fill="#000000" fill-opacity="0.3019608" fill-rule="evenodd" stroke="none"/>
    <path d="M-4.8 25.0 L-4.05 24.85 Q3.35 19.65 6.7 4.35 L6.6 3.55 Q6.4 3.2 5.95 3.15 L5.2 3.25 Q4.85 3.45 4.75 3.9 1.65 18.25 -5.2 23.2 L-5.6 23.85 -5.45 24.6 -4.8 25.0" fill="#ff5941" fill-rule="evenodd" stroke="none"/>
    <path d="M-4.8 25.0 L-5.45 24.6 -5.6 23.85 -5.2 23.2 Q1.65 18.25 4.75 3.9 4.85 3.45 5.2 3.25 L5.95 3.15 Q6.4 3.2 6.6 3.55 L6.7 4.35 Q3.35 19.65 -4.05 24.85 L-4.8 25.0 Z" fill="none" stroke="#911d0e" stroke-linecap="round" stroke-linejoin="round" stroke-width="1.0"/>
    <path d="M-5.6 23.85 L-5.45 24.6 -4.8 25.0 -4.05 24.85 Q3.35 19.65 6.7 4.35 L6.6 3.55 Q6.4 3.2 5.95 3.15 L5.2 3.25 Q4.85 3.45 4.75 3.9 1.65 18.25 -5.2 23.2 L-5.6 23.85" fill="#ff5941" fill-rule="evenodd" stroke="none"/>
    <path d="M-1.45 22.6 Q4.0 16.85 6.7 4.35 L6.75 4.1 7.15 4.3 5.25 3.2 5.2 3.25 Q4.85 3.45 4.75 3.9 2.1 16.15 -3.25 21.55 -3.6 23.05 -1.45 22.6" fill="#e73b25" fill-rule="evenodd" stroke="none"/>
    <path d="M1.0 19.45 Q3.05 16.25 4.6 11.85 3.1 12.6 2.9 10.65 1.4 15.1 -0.65 18.3 -0.3 19.95 1.0 19.45" fill="#c93523" fill-rule="evenodd" stroke="none"/>
    <path d="M13.3 -4.45 Q13.3 -3.25 12.45 -2.5 L8.05 1.25 Q7.2 2.0 7.15 0.9 L4.85 2.85 4.85 27.1 6.65 27.7 8.95 25.4 8.95 19.7 Q8.95 18.3 9.85 17.5 L13.35 14.5 13.35 16.8 13.35 16.9 13.35 19.45 15.2 20.0 17.6 18.0 17.6 -5.95 15.75 -6.5 13.3 -4.45 M12.45 4.7 L8.95 7.65 8.95 5.35 Q8.95 3.95 9.85 3.15 L13.35 0.15 13.35 2.45 Q13.35 3.85 12.45 4.7 M13.35 9.65 Q13.35 11.0 12.45 11.85 L8.95 14.8 8.95 12.5 Q8.95 11.1 9.85 10.3 L13.35 7.3 13.35 9.65" fill="#ff5941" fill-rule="evenodd" stroke="none"/>
    <path d="M13.3 -4.45 L15.75 -6.5 17.6 -5.95 17.6 18.0 15.2 20.0 13.35 19.45 13.35 16.9 13.35 16.8 13.35 14.5 9.85 17.5 Q8.95 18.3 8.95 19.7 L8.95 25.4 6.65 27.7 4.85 27.1 4.85 2.85 7.15 0.9 Q7.2 2.0 8.05 1.25 L12.45 -2.5 Q13.3 -3.25 13.3 -4.45 M12.45 4.7 L8.95 7.65 8.95 5.35 Q8.95 3.95 9.85 3.15 L13.35 0.15 13.35 2.45 Q13.35 3.85 12.45 4.7 M13.35 9.65 Q13.35 11.0 12.45 11.85 L8.95 14.8 8.95 12.5 Q8.95 11.1 9.85 10.3 L13.35 7.3 13.35 9.65" fill="none" stroke="#911d0e" stroke-linecap="round" stroke-linejoin="round" stroke-width="2.0"/>
    <path d="M15.75 -6.5 L13.3 -4.45 Q13.3 -3.25 12.45 -2.5 L8.05 1.25 Q7.2 2.0 7.15 0.9 L4.85 2.85 4.85 27.1 6.65 27.7 8.95 25.4 8.95 19.7 Q8.95 18.3 9.85 17.5 L13.35 14.5 13.35 16.8 13.35 16.9 13.35 19.45 15.2 20.0 17.6 18.0 17.6 -5.95 15.75 -6.5 M13.35 9.65 Q13.35 11.0 12.45 11.85 L8.95 14.8 8.95 12.5 Q8.95 11.1 9.85 10.3 L13.35 7.3 13.35 9.65 M12.45 4.7 L8.95 7.65 8.95 5.35 Q8.95 3.95 9.85 3.15 L13.35 0.15 13.35 2.45 Q13.35 3.85 12.45 4.7" fill="#ff5941" fill-rule="evenodd" stroke="none"/>
    <path d="M15.15 10.2 Q15.15 11.55 14.25 12.35 L9.85 16.1 Q8.95 16.95 8.95 15.6 L8.95 12.5 Q8.95 11.1 9.85 10.25 L14.25 6.5 Q15.15 5.7 15.15 7.1 L15.15 10.2 M15.15 3.0 Q15.15 4.4 14.25 5.2 L9.85 8.95 Q8.95 9.8 8.95 8.4 L8.95 5.35 Q8.95 3.95 9.85 3.1 L14.25 -0.65 Q15.15 -1.45 15.15 -0.05 L15.15 3.0 M15.1 -3.9 Q15.05 -2.75 14.25 -2.0 L9.85 1.75 Q8.95 2.5 8.95 1.45 L6.6 3.4 6.6 27.65 8.95 25.4 8.95 19.7 Q8.95 18.3 9.85 17.45 L14.25 13.7 Q15.15 12.9 15.15 14.3 L15.15 17.35 15.15 17.45 15.15 20.0 17.55 17.95 17.55 -6.0 15.1 -3.9" fill="#e73b25" fill-rule="evenodd" stroke="none"/>
    <path d="M9.15 4.45 L8.65 3.85 7.9 3.75 7.3 4.25 Q7.15 4.6 7.25 5.0 15.2 32.55 33.65 29.4 34.05 29.3 34.3 29.0 L34.45 28.25 34.05 27.6 Q33.75 27.35 33.35 27.45 16.5 30.05 9.15 4.45" fill="#ff5941" fill-rule="evenodd" stroke="none"/>
    <path d="M9.15 4.45 L8.65 3.85 7.9 3.75 7.3 4.25 Q7.15 4.6 7.25 5.0 15.2 32.55 33.65 29.4 34.05 29.3 34.3 29.0 L34.45 28.25 34.05 27.6 Q33.75 27.35 33.35 27.45 16.5 30.05 9.15 4.45 M15.3 -2.75 L15.25 -2.0 Q23.2 25.55 41.65 22.4 L42.3 22.0 42.45 21.25 42.05 20.6 Q41.75 20.35 41.35 20.45 24.5 23.05 17.15 -2.55 L16.65 -3.15 15.9 -3.25 15.3 -2.75" fill="#ff5941" fill-rule="evenodd" stroke="none"/>
    <path d="M15.3 -2.75 L15.9 -3.25 16.65 -3.15 17.15 -2.55 Q24.5 23.05 41.35 20.45 41.75 20.35 42.05 20.6 L42.45 21.25 42.3 22.0 41.65 22.4 Q23.2 25.55 15.25 -2.0 L15.3 -2.75 M9.15 4.45 Q16.5 30.05 33.35 27.45 33.75 27.35 34.05 27.6 L34.45 28.25 34.3 29.0 Q34.05 29.3 33.65 29.4 15.2 32.55 7.25 5.0 7.15 4.6 7.3 4.25 L7.9 3.75 8.65 3.85 9.15 4.45" fill="none" stroke="#911d0e" stroke-linecap="round" stroke-linejoin="round" stroke-width="1.0"/>
    <path d="M9.15 4.45 L8.65 3.85 7.9 3.75 7.3 4.25 Q7.15 4.6 7.25 5.0 15.2 32.55 33.65 29.4 34.05 29.3 34.3 29.0 L34.45 28.25 34.05 27.6 Q33.75 27.35 33.35 27.45 16.5 30.05 9.15 4.45" fill="#ff5941" fill-rule="evenodd" stroke="none"/>
    <path d="M26.55 29.4 Q26.65 27.45 28.75 27.6 17.15 26.55 10.8 9.6 9.55 9.05 9.2 10.9 15.45 27.3 26.55 29.4" fill="#e73b25" fill-rule="evenodd" stroke="none"/>
    <path d="M17.15 -2.55 L16.65 -3.15 15.9 -3.25 15.3 -2.75 15.25 -2.0 Q23.2 25.55 41.65 22.4 L42.3 22.0 42.45 21.25 42.05 20.6 Q41.75 20.35 41.35 20.45 24.5 23.05 17.15 -2.55" fill="#ff5941" fill-rule="evenodd" stroke="none"/>
    <path d="M34.55 22.4 Q34.65 20.45 36.75 20.6 25.15 19.55 18.8 2.6 17.55 2.05 17.2 3.9 23.45 20.3 34.55 22.4" fill="#e73b25" fill-rule="evenodd" stroke="none"/>
    <path d="M27.6 19.35 Q27.1 17.5 28.65 17.5 24.7 14.55 21.65 8.95 20.55 8.25 20.05 10.25 23.35 16.25 27.6 19.35" fill="#c93523" fill-rule="evenodd" stroke="none"/>
    <path d="M19.6 26.35 Q19.1 24.5 20.65 24.5 16.7 21.55 13.65 15.95 12.55 15.25 12.05 17.25 15.35 23.25 19.6 26.35" fill="#c93523" fill-rule="evenodd" stroke="none"/>
    <path d="M40.2 20.45 Q40.2 21.65 39.35 22.4 L34.95 26.15 Q34.1 26.9 34.05 25.8 L31.75 27.75 31.75 52.0 33.55 52.6 35.85 50.3 35.85 44.6 Q35.85 43.2 36.75 42.4 L40.25 39.4 40.25 41.7 40.25 41.8 40.25 44.35 42.1 44.9 44.5 42.9 44.5 18.95 42.65 18.4 40.2 20.45 M39.35 29.6 L35.85 32.55 35.85 30.25 Q35.85 28.85 36.75 28.05 L40.25 25.05 40.25 27.35 Q40.25 28.75 39.35 29.6 M40.25 34.55 Q40.25 35.9 39.35 36.75 L35.85 39.7 35.85 37.4 Q35.85 36.0 36.75 35.2 L40.25 32.2 40.25 34.55" fill="#ff5941" fill-rule="evenodd" stroke="none"/>
    <path d="M40.2 20.45 L42.65 18.4 44.5 18.95 44.5 42.9 42.1 44.9 40.25 44.35 40.25 41.8 40.25 41.7 40.25 39.4 36.75 42.4 Q35.85 43.2 35.85 44.6 L35.85 50.3 33.55 52.6 31.75 52.0 31.75 27.75 34.05 25.8 Q34.1 26.9 34.95 26.15 L39.35 22.4 Q40.2 21.65 40.2 20.45 M39.35 29.6 L35.85 32.55 35.85 30.25 Q35.85 28.85 36.75 28.05 L40.25 25.05 40.25 27.35 Q40.25 28.75 39.35 29.6 M40.25 34.55 Q40.25 35.9 39.35 36.75 L35.85 39.7 35.85 37.4 Q35.85 36.0 36.75 35.2 L40.25 32.2 40.25 34.55" fill="none" stroke="#911d0e" stroke-linecap="round" stroke-linejoin="round" stroke-width="2.0"/>
    <path d="M42.65 18.4 L40.2 20.45 Q40.2 21.65 39.35 22.4 L34.95 26.15 Q34.1 26.9 34.05 25.8 L31.75 27.75 31.75 52.0 33.55 52.6 35.85 50.3 35.85 44.6 Q35.85 43.2 36.75 42.4 L40.25 39.4 40.25 41.7 40.25 41.8 40.25 44.35 42.1 44.9 44.5 42.9 44.5 18.95 42.65 18.4 M40.25 34.55 Q40.25 35.9 39.35 36.75 L35.85 39.7 35.85 37.4 Q35.85 36.0 36.75 35.2 L40.25 32.2 40.25 34.55 M39.35 29.6 L35.85 32.55 35.85 30.25 Q35.85 28.85 36.75 28.05 L40.25 25.05 40.25 27.35 Q40.25 28.75 39.35 29.6" fill="#ff5941" fill-rule="evenodd" stroke="none"/>
    <path d="M42.05 35.1 Q42.05 36.45 41.15 37.25 L36.75 41.0 Q35.85 41.85 35.85 40.5 L35.85 37.4 Q35.85 36.0 36.75 35.15 L41.15 31.4 Q42.05 30.6 42.05 32.0 L42.05 35.1 M42.05 27.9 Q42.05 29.3 41.15 30.1 L36.75 33.85 Q35.85 34.7 35.85 33.3 L35.85 30.25 Q35.85 28.85 36.75 28.0 L41.15 24.25 Q42.05 23.45 42.05 24.85 L42.05 27.9 M42.0 21.0 Q41.95 22.15 41.15 22.9 L36.75 26.65 Q35.85 27.4 35.85 26.35 L33.5 28.3 33.5 52.55 35.85 50.3 35.85 44.6 Q35.85 43.2 36.75 42.35 L41.15 38.6 Q42.05 37.8 42.05 39.2 L42.05 42.25 42.05 42.35 42.05 44.9 44.45 42.85 44.45 18.9 42.0 21.0" fill="#e73b25" fill-rule="evenodd" stroke="none"/>
    <path d="M43.45 20.9 Q43.05 20.85 42.75 21.15 42.45 21.4 42.4 21.8 40.9 39.4 47.55 56.1 L48.1 56.7 48.85 56.7 49.4 56.15 Q49.6 55.85 49.4 55.45 42.9 39.1 44.4 21.95 44.45 21.55 44.15 21.25 43.9 20.95 43.45 20.9 M34.85 28.6 Q34.45 28.55 34.15 28.85 33.85 29.1 33.8 29.55 32.3 47.8 38.95 65.15 39.1 65.55 39.5 65.75 L40.25 65.75 40.8 65.2 Q41.0 64.85 40.8 64.45 34.3 47.5 35.8 29.7 35.85 29.25 35.55 28.95 35.3 28.65 34.85 28.6" fill="#911d0e" fill-rule="evenodd" stroke="none"/>
    <path d="M34.85 28.6 Q35.3 28.65 35.55 28.95 35.85 29.25 35.8 29.7 34.3 47.5 40.8 64.45 41.0 64.85 40.8 65.2 L40.25 65.75 39.5 65.75 Q39.1 65.55 38.95 65.15 32.3 47.8 33.8 29.55 33.85 29.1 34.15 28.85 34.45 28.55 34.85 28.6 M43.45 20.9 Q43.9 20.95 44.15 21.25 44.45 21.55 44.4 21.95 42.9 39.1 49.4 55.45 49.6 55.85 49.4 56.15 L48.85 56.7 48.1 56.7 47.55 56.1 Q40.9 39.4 42.4 21.8 42.45 21.4 42.75 21.15 43.05 20.85 43.45 20.9" fill="none" stroke="#911d0e" stroke-linecap="round" stroke-linejoin="round" stroke-width="1.0"/>
    <path d="M44.4 21.95 Q44.45 21.55 44.15 21.25 43.9 20.95 43.45 20.9 43.05 20.85 42.75 21.15 42.45 21.4 42.4 21.8 40.9 39.4 47.55 56.1 L48.1 56.7 48.85 56.7 49.4 56.15 Q49.6 55.85 49.4 55.45 42.9 39.1 44.4 21.95 M35.8 29.7 Q35.85 29.25 35.55 28.95 35.3 28.65 34.85 28.6 34.45 28.55 34.15 28.85 33.85 29.1 33.8 29.55 32.3 47.8 38.95 65.15 39.1 65.55 39.5 65.75 L40.25 65.75 40.8 65.2 Q41.0 64.85 40.8 64.45 34.3 47.5 35.8 29.7" fill="#ff5941" fill-rule="evenodd" stroke="none"/>
    <path d="M33.5 36.45 Q33.55 48.7 37.35 60.55 38.0 58.0 39.0 59.2 35.3 47.25 35.5 34.85 34.35 33.65 33.5 36.45 M42.1 29.5 Q42.35 41.55 46.45 53.2 46.95 50.85 48.05 51.85 44.05 40.05 44.1 27.85 43.1 26.95 42.1 29.5" fill="#e73b25" fill-rule="evenodd" stroke="none"/>
    <path d="M33.75 42.7 Q34.3 49.1 35.9 55.45 36.1 53.6 37.6 54.05 36.1 47.65 35.65 41.15 34.25 40.35 33.75 42.7 M44.85 48.15 Q45.2 45.75 46.5 46.8 44.85 40.5 44.35 34.1 43.15 33.25 42.45 35.6 43.1 41.95 44.85 48.15" fill="#c93523" fill-rule="evenodd" stroke="none"/>
  </g>
</svg>
