<?xml version="1.0" encoding="UTF-8" standalone="no"?>
<svg xmlns:xlink="http://www.w3.org/1999/xlink" height="179.15px" width="334.6px" xmlns="http://www.w3.org/2000/svg">
  <g transform="matrix(1.0, 0.0, 0.0, 1.0, 167.3, 89.55)">
    <path d="M119.55 -61.4 L125.1 -58.6 123.55 -53.55 104.9 -43.65 104.9 -54.35 119.55 -61.4" fill="#70381f" fill-rule="evenodd" stroke="none"/>
    <path d="M119.55 -61.4 L125.1 -58.6 123.55 -53.55 104.9 -43.65 104.9 -54.35 119.55 -61.4 Z" fill="none" stroke="#3c190a" stroke-linecap="round" stroke-linejoin="round" stroke-width="10.0"/>
    <path d="M111.75 -29.05 L106.0 -38.75 114.2 -34.25 Q123.3 -28.7 127.75 -23.75 132.2 -18.8 136.15 -11.9 L139.15 -6.0 Q138.45 -9.2 136.85 -13.35 133.6 -21.6 129.0 -26.4 124.4 -31.2 114.75 -36.45 L106.0 -40.75 98.4 -38.5 88.5 -12.4 Q94.55 -23.15 99.0 -36.75 L104.0 -38.0 108.65 -28.4 Q113.35 -17.45 113.75 -10.65 114.15 -3.85 112.75 3.9 L111.25 10.35 Q112.6 7.95 114.0 4.1 116.85 -3.6 117.15 -10.75 117.45 -17.9 111.75 -29.05 M132.25 -34.4 Q157.85 -13.2 161.3 6.0 165.35 28.25 153.1 42.65 141.65 56.05 118.05 60.5 93.5 65.15 74.65 55.0 53.95 43.8 54.6 20.8 55.15 0.5 72.1 -22.85 80.55 -34.55 88.9 -42.15 107.4 -51.65 107.4 -51.8 L115.05 -47.1 Q124.3 -41.05 132.25 -34.4 M87.7 -39.1 Q73.05 -17.55 66.95 4.15 L88.3 -38.2 87.7 -39.1" fill="#ec2b2b" fill-rule="evenodd" stroke="none"/>
    <path d="M111.75 -29.05 Q117.45 -17.9 117.15 -10.75 116.85 -3.6 114.0 4.1 112.6 7.95 111.25 10.35 L112.75 3.9 Q114.15 -3.85 113.75 -10.65 113.35 -17.45 108.65 -28.4 L104.0 -38.0 99.0 -36.75 Q94.55 -23.15 88.5 -12.4 L98.4 -38.5 106.0 -40.75 114.75 -36.45 Q124.4 -31.2 129.0 -26.4 133.6 -21.6 136.85 -13.35 138.45 -9.2 139.15 -6.0 L136.15 -11.9 Q132.2 -18.8 127.75 -23.75 123.3 -28.7 114.2 -34.25 L106.0 -38.75 111.75 -29.05 M132.25 -34.4 Q157.85 -13.2 161.3 6.0 165.35 28.25 153.1 42.65 141.65 56.05 118.05 60.5 93.5 65.15 74.65 55.0 53.95 43.8 54.6 20.8 55.15 0.5 72.1 -22.85 80.55 -34.55 88.9 -42.15 107.4 -51.65 107.4 -51.8 L115.05 -47.1 Q124.3 -41.05 132.25 -34.4 M87.7 -39.1 Q73.05 -17.55 66.95 4.15 L88.3 -38.2 87.7 -39.1" fill="none" stroke="#741515" stroke-linecap="round" stroke-linejoin="round" stroke-width="10.0"/>
    <path d="M119.55 -61.4 L125.1 -58.6 123.55 -53.55 104.9 -43.65 104.9 -54.35 119.55 -61.4" fill="#70381f" fill-rule="evenodd" stroke="none"/>
    <path d="M122.5 -83.85 Q121.65 -79.5 120.1 -74.55 117.0 -64.65 113.45 -61.6 109.9 -58.55 104.0 -56.35 L98.85 -54.75 93.75 -56.4 Q88.65 -58.1 88.7 -58.25 89.2 -61.55 90.55 -65.85 93.2 -74.4 97.45 -79.35 101.7 -84.3 112.55 -84.55 L122.5 -83.85 M114.35 -76.55 L108.9 -74.65 Q103.0 -72.35 100.6 -70.4 98.25 -68.45 95.3 -64.35 L92.8 -60.65 94.65 -60.8 95.95 -63.1 Q97.85 -66.0 101.15 -68.95 104.45 -71.9 109.7 -74.5 112.35 -75.8 114.35 -76.55" fill="#ec2b2b" fill-rule="evenodd" stroke="none"/>
    <path d="M122.5 -83.85 Q121.65 -79.5 120.1 -74.55 117.0 -64.65 113.45 -61.6 109.9 -58.55 104.0 -56.35 L98.85 -54.75 93.75 -56.4 Q88.65 -58.1 88.7 -58.25 89.2 -61.55 90.55 -65.85 93.2 -74.4 97.45 -79.35 101.7 -84.3 112.55 -84.55 L122.5 -83.85 M114.35 -76.55 Q112.35 -75.8 109.7 -74.5 104.45 -71.9 101.15 -68.95 97.85 -66.0 95.95 -63.1 L94.65 -60.8 92.8 -60.65 95.3 -64.35 Q98.25 -68.45 100.6 -70.4 103.0 -72.35 108.9 -74.65 L114.35 -76.55" fill="none" stroke="#741515" stroke-linecap="round" stroke-linejoin="round" stroke-width="10.0"/>
    <path d="M132.25 -34.4 Q157.85 -13.2 161.3 6.0 165.35 28.25 153.1 42.65 141.65 56.05 118.05 60.5 93.5 65.15 74.65 55.0 53.95 43.8 54.6 20.8 55.15 0.5 72.1 -22.85 80.55 -34.55 88.9 -42.15 107.4 -51.65 107.4 -51.8 L115.05 -47.1 Q124.3 -41.05 132.25 -34.4 M111.75 -29.05 L106.0 -38.75 114.2 -34.25 Q123.3 -28.7 127.75 -23.75 132.2 -18.8 136.15 -11.9 L139.15 -6.0 Q138.45 -9.2 136.85 -13.35 133.6 -21.6 129.0 -26.4 124.4 -31.2 114.75 -36.45 L106.0 -40.75 98.4 -38.5 88.5 -12.4 Q94.55 -23.15 99.0 -36.75 L104.0 -38.0 108.65 -28.4 Q113.35 -17.45 113.75 -10.65 114.15 -3.85 112.75 3.9 L111.25 10.35 Q112.6 7.95 114.0 4.1 116.85 -3.6 117.15 -10.75 117.45 -17.9 111.75 -29.05 M87.7 -39.1 Q73.05 -17.55 66.95 4.15 L88.3 -38.2 87.7 -39.1" fill="#ec2b2b" fill-rule="evenodd" stroke="none"/>
    <path d="M122.5 -83.85 Q121.65 -79.5 120.1 -74.55 117.0 -64.65 113.45 -61.6 109.9 -58.55 104.0 -56.35 L98.85 -54.75 93.75 -56.4 Q88.65 -58.1 88.7 -58.25 89.2 -61.55 90.55 -65.85 93.2 -74.4 97.45 -79.35 101.7 -84.3 112.55 -84.55 L122.5 -83.85 M114.35 -76.55 L108.9 -74.65 Q103.0 -72.35 100.6 -70.4 98.25 -68.45 95.3 -64.35 L92.8 -60.65 94.65 -60.8 95.95 -63.1 Q97.85 -66.0 101.15 -68.95 104.45 -71.9 109.7 -74.5 112.35 -75.8 114.35 -76.55" fill="#ec2b2b" fill-rule="evenodd" stroke="none"/>
    <path d="M83.1 -59.2 L82.35 -65.1 82.1 -68.15 81.7 -64.7 Q81.4 -60.9 81.7 -58.9 82.2 -55.7 84.55 -51.9 L85.0 -53.5 Q83.75 -55.35 83.1 -59.2 M76.15 -80.15 Q78.05 -82.95 79.6 -84.0 L85.15 -78.2 Q90.75 -71.35 91.25 -66.25 91.75 -61.1 91.0 -57.05 90.6 -55.0 90.1 -54.0 L86.1 -47.75 Q81.35 -48.8 77.0 -51.6 68.25 -57.2 70.25 -65.9 72.25 -74.6 76.15 -80.15" fill="#ec2b2b" fill-rule="evenodd" stroke="none"/>
    <path d="M76.15 -80.15 Q72.25 -74.6 70.25 -65.9 68.25 -57.2 77.0 -51.6 81.35 -48.8 86.1 -47.75 L90.1 -54.0 Q90.6 -55.0 91.0 -57.05 91.75 -61.1 91.25 -66.25 90.75 -71.35 85.15 -78.2 L79.6 -84.0 Q78.05 -82.95 76.15 -80.15 M83.1 -59.2 Q83.75 -55.35 85.0 -53.5 L84.55 -51.9 Q82.2 -55.7 81.7 -58.9 81.4 -60.9 81.7 -64.7 L82.1 -68.15 82.35 -65.1 83.1 -59.2" fill="none" stroke="#741515" stroke-linecap="round" stroke-linejoin="round" stroke-width="10.0"/>
    <path d="M83.1 -59.2 L82.35 -65.1 82.1 -68.15 81.7 -64.7 Q81.4 -60.9 81.7 -58.9 82.2 -55.7 84.55 -51.9 L85.0 -53.5 Q83.75 -55.35 83.1 -59.2 M76.15 -80.15 Q78.05 -82.95 79.6 -84.0 L85.15 -78.2 Q90.75 -71.35 91.25 -66.25 91.75 -61.1 91.0 -57.05 90.6 -55.0 90.1 -54.0 L86.1 -47.75 Q81.35 -48.8 77.0 -51.6 68.25 -57.2 70.25 -65.9 72.25 -74.6 76.15 -80.15" fill="#ec2b2b" fill-rule="evenodd" stroke="none"/>
    <path d="M0.0 -9.05 L-86.3 36.75 -92.75 27.0 Q-104.65 31.5 -112.05 41.35 L-106.05 47.2 -109.4 49.0 -108.6 47.7 -113.35 41.85 -115.7 44.15 -114.15 47.4 -123.35 53.6 -122.3 55.85 -153.65 72.45 -162.3 67.15 -160.75 58.5 -130.65 44.05 Q-128.35 48.8 -124.75 52.85 L-115.9 47.3 -117.4 44.45 -117.9 44.95 Q-119.95 42.45 -121.6 39.7 L-120.7 39.25 -117.95 43.45 -110.85 37.35 -111.9 35.05 -111.05 34.6 -110.05 37.0 -108.45 35.35 Q-105.5 32.45 -101.95 30.25 L-4.0 -16.9 0.0 -9.05" fill="#3c190a" fill-rule="evenodd" stroke="none"/>
    <path d="M0.0 -9.05 L-86.3 36.75 -92.75 27.0 Q-104.65 31.5 -112.05 41.35 L-106.05 47.2 -109.4 49.0 -108.6 47.7 -113.35 41.85 -115.7 44.15 -114.15 47.4 -123.35 53.6 -122.3 55.85 -153.65 72.45 -162.3 67.15 -160.75 58.5 -130.65 44.05 Q-128.35 48.8 -124.75 52.85 L-115.9 47.3 -117.4 44.45 -117.9 44.95 Q-119.95 42.45 -121.6 39.7 L-120.7 39.25 -117.95 43.45 -110.85 37.35 -111.9 35.05 -111.05 34.6 -110.05 37.0 -108.45 35.35 Q-105.5 32.45 -101.95 30.25 L-4.0 -16.9 0.0 -9.05 Z" fill="none" stroke="#3c190a" stroke-linecap="round" stroke-linejoin="round" stroke-width="10.0"/>
    <path d="M-32.45 63.25 Q-40.65 73.8 -53.35 79.5 -65.85 85.2 -79.25 84.55 -93.25 84.0 -104.45 76.6 -116.75 68.45 -123.35 53.6 L-114.15 47.4 -115.7 44.15 -113.35 41.85 -108.6 47.7 Q-113.4 54.45 -106.9 61.0 -110.15 54.85 -107.6 48.8 L-102.05 53.95 Q-100.45 50.55 -98.85 48.25 -97.2 45.9 -94.2 42.95 L-99.05 46.25 Q-100.55 47.8 -102.25 50.9 L-112.05 41.35 Q-104.65 31.5 -92.75 27.0 L-85.3 38.3 -88.05 45.35 Q-84.3 60.25 -72.2 61.55 -61.05 62.8 -47.2 52.5 L-32.45 63.25" fill="#3c190a" fill-rule="evenodd" stroke="none"/>
    <path d="M-32.45 63.25 L-47.2 52.5 Q-61.05 62.8 -72.2 61.55 -84.3 60.25 -88.05 45.35 L-85.3 38.3 -92.75 27.0 Q-104.65 31.5 -112.05 41.35 L-102.25 50.9 Q-100.55 47.8 -99.05 46.25 L-94.2 42.95 Q-97.2 45.9 -98.85 48.25 -100.45 50.55 -102.05 53.95 L-107.6 48.8 Q-110.15 54.85 -106.9 61.0 -113.4 54.45 -108.6 47.7 L-113.35 41.85 -115.7 44.15 -114.15 47.4 -123.35 53.6 Q-116.75 68.45 -104.45 76.6 -93.25 84.0 -79.25 84.55 -65.85 85.2 -53.35 79.5 -40.65 73.8 -32.45 63.25 Z" fill="none" stroke="#3c190a" stroke-linecap="round" stroke-linejoin="round" stroke-width="10.0"/>
    <path d="M-123.1 36.95 L-125.15 31.85 -133.1 37.45 Q-130.7 46.15 -124.75 52.85 L-115.9 47.3 -117.4 44.45 -117.9 44.95 Q-120.95 41.2 -123.1 36.95" fill="#bf7926" fill-rule="evenodd" stroke="none"/>
    <path d="M-123.1 36.95 Q-120.95 41.2 -117.9 44.95 L-117.4 44.45 -115.9 47.3 -124.75 52.85 Q-130.7 46.15 -133.1 37.45 L-125.15 31.85 -123.1 36.95 Z" fill="none" stroke="#3c190a" stroke-linecap="round" stroke-linejoin="round" stroke-width="10.0"/>
    <path d="M-100.6 26.6 Q-101.8 22.75 -101.75 20.0 -100.65 24.7 -98.2 27.4 L-95.8 24.95 Q-98.15 18.7 -103.55 13.65 L-114.35 21.3 Q-114.0 25.85 -112.3 31.15 -110.55 36.65 -108.35 40.05 L-98.0 32.7 Q-99.5 30.0 -100.6 26.6" fill="#bf7926" fill-rule="evenodd" stroke="none"/>
    <path d="M-100.6 26.6 Q-101.8 22.75 -101.75 20.0 -100.65 24.7 -98.2 27.4 L-95.8 24.95 Q-98.15 18.7 -103.55 13.65 L-114.35 21.3 Q-114.0 25.85 -112.3 31.15 -110.55 36.65 -108.35 40.05 L-98.0 32.7 Q-99.5 30.0 -100.6 26.6 Z" fill="none" stroke="#3c190a" stroke-linecap="round" stroke-linejoin="round" stroke-width="10.0"/>
    <path d="M-110.85 37.35 Q-112.25 34.65 -113.35 31.0 -115.05 25.7 -115.4 21.15 L-112.3 19.0 -114.1 16.75 -125.9 24.9 Q-125.25 29.55 -123.05 34.6 -121.05 39.35 -117.95 43.45 L-110.85 37.35" fill="#bf7926" fill-rule="evenodd" stroke="none"/>
    <path d="M-110.85 37.35 L-117.95 43.45 Q-121.05 39.35 -123.05 34.6 -125.25 29.55 -125.9 24.9 L-114.1 16.75 -112.3 19.0 -115.4 21.15 Q-115.05 25.7 -113.35 31.0 -112.25 34.65 -110.85 37.35 Z" fill="none" stroke="#3c190a" stroke-linecap="round" stroke-linejoin="round" stroke-width="10.0"/>
    <path d="M-103.55 13.6 L-114.3 21.2 Q-114.0 25.8 -112.3 31.1 -111.25 34.45 -110.05 37.0 L-108.45 35.35 Q-104.55 31.55 -99.75 28.9 L-100.5 26.6 Q-101.8 22.75 -101.75 19.9 -100.6 24.65 -98.15 27.3 L-96.55 26.6 Q-94.85 25.85 -94.85 25.75 -95.95 22.75 -98.45 19.35 -100.65 16.25 -103.55 13.6" fill="#bf7926" fill-rule="evenodd" stroke="none"/>
    <path d="M-32.45 63.25 Q-40.65 73.8 -53.35 79.5 -65.85 85.2 -79.25 84.55 -93.25 84.0 -104.45 76.6 -116.75 68.45 -123.35 53.6 L-114.15 47.4 -115.7 44.15 -113.35 41.85 -108.6 47.7 Q-113.4 54.45 -106.9 61.0 -110.15 54.85 -107.6 48.8 L-102.05 53.95 Q-100.45 50.55 -98.85 48.25 -97.2 45.9 -94.2 42.95 L-99.05 46.25 Q-100.55 47.8 -102.25 50.9 L-112.05 41.35 Q-104.65 31.5 -92.75 27.0 L-85.3 38.3 -88.05 45.35 Q-84.3 60.25 -72.2 61.55 -61.05 62.8 -47.2 52.5 L-32.45 63.25" fill="#bf7926" fill-rule="evenodd" stroke="none"/>
    <path d="M-123.1 36.95 L-125.15 31.85 -133.1 37.45 Q-130.7 46.15 -124.75 52.85 L-115.9 47.3 -117.4 44.45 -117.9 44.95 Q-120.95 41.2 -123.1 36.95" fill="#bf7926" fill-rule="evenodd" stroke="none"/>
    <path d="M-115.4 21.15 L-112.3 19.0 -114.1 16.75 -125.9 24.9 Q-125.25 29.55 -123.05 34.6 -121.05 39.35 -117.95 43.45 L-110.85 37.35 Q-112.25 34.65 -113.35 31.0 -115.05 25.7 -115.4 21.15" fill="#bf7926" fill-rule="evenodd" stroke="none"/>
    <path d="M-47.2 52.5 L-32.45 63.25 -34.1 65.4 -33.45 64.55 -34.3 65.6 Q-38.9 70.85 -44.8 74.8 -48.75 77.5 -53.35 79.5 -65.85 85.2 -79.25 84.55 -93.25 84.0 -104.45 76.6 -111.85 71.7 -117.2 64.4 L-117.0 64.5 Q-117.95 61.1 -117.45 58.0 L-111.65 61.05 Q-107.65 63.5 -105.8 65.45 -105.85 62.95 -105.45 61.2 -105.25 59.2 -104.05 56.0 -99.5 59.5 -97.25 64.6 -97.4 54.7 -94.0 44.5 -91.5 45.75 -90.1 48.5 -89.95 44.85 -86.85 40.2 L-85.45 38.45 -85.55 39.0 -85.65 39.2 -85.7 39.35 -88.05 45.35 -87.95 45.55 -87.7 46.55 -87.7 46.8 -87.5 47.3 Q-83.45 60.35 -72.2 61.55 -61.05 62.8 -47.2 52.5" fill="#70381f" fill-rule="evenodd" stroke="none"/>
    <path d="M0.0 -9.05 L-86.3 36.75 -92.75 27.0 Q-104.65 31.5 -112.05 41.35 L-106.05 47.2 -109.4 49.0 -108.6 47.7 -113.35 41.85 -115.7 44.15 -114.15 47.4 -123.35 53.6 -122.3 55.85 -153.65 72.45 -162.3 67.15 -160.75 58.5 -130.65 44.05 Q-128.35 48.8 -124.75 52.85 L-115.9 47.3 -117.4 44.45 -117.9 44.95 Q-119.95 42.45 -121.6 39.7 L-120.7 39.25 -117.95 43.45 -110.85 37.35 -111.9 35.05 -111.05 34.6 -110.05 37.0 -108.45 35.35 Q-105.5 32.45 -101.95 30.25 L-4.0 -16.9 0.0 -9.05" fill="#70381f" fill-rule="evenodd" stroke="none"/>
    <path d="M98.75 -80.6 Q103.2 -84.35 112.55 -84.55 L113.1 -84.55 113.1 -84.45 Q113.1 -81.7 110.75 -79.8 108.45 -77.85 105.2 -77.85 101.95 -77.85 99.6 -79.8 L98.75 -80.6 M113.45 -61.6 Q110.05 -58.65 104.45 -56.5 103.45 -57.0 102.55 -57.65 99.6 -59.9 99.6 -63.1 99.6 -66.3 102.55 -68.55 105.5 -70.8 109.7 -70.8 113.9 -70.8 116.85 -68.55 L117.65 -67.9 Q115.6 -63.45 113.45 -61.6" fill="#ffffff" fill-rule="evenodd" stroke="none"/>
    <path d="M104.9 -54.35 L104.9 -43.65 37.25 -7.75 30.8 -17.5 Q18.9 -13.0 11.5 -3.15 L17.5 2.7 14.15 4.5 14.95 3.2 10.2 -2.65 7.85 -0.35 9.4 2.9 0.2 9.1 1.25 11.35 -30.1 27.95 -38.75 22.65 -37.2 14.0 -7.1 -0.45 Q-4.8 4.3 -1.2 8.35 L7.65 2.8 6.15 -0.05 5.65 0.45 Q3.6 -2.05 1.95 -4.8 L2.85 -5.25 5.6 -1.05 12.7 -7.15 11.65 -9.45 12.5 -9.9 13.5 -7.5 15.1 -9.15 Q18.05 -12.05 21.6 -14.25 L104.9 -54.35" fill="#70381f" fill-rule="evenodd" stroke="none"/>
    <path d="M104.9 -54.35 L21.6 -14.25 Q18.05 -12.05 15.1 -9.15 L13.5 -7.5 12.5 -9.9 11.65 -9.45 12.7 -7.15 5.6 -1.05 2.85 -5.25 1.95 -4.8 Q3.6 -2.05 5.65 0.45 L6.15 -0.05 7.65 2.8 -1.2 8.35 Q-4.8 4.3 -7.1 -0.45 L-37.2 14.0 -38.75 22.65 -30.1 27.95 1.25 11.35 0.2 9.1 9.4 2.9 7.85 -0.35 10.2 -2.65 14.95 3.2 14.15 4.5 17.5 2.7 11.5 -3.15 Q18.9 -13.0 30.8 -17.5 L37.25 -7.75 104.9 -43.65 104.9 -54.35 Z" fill="none" stroke="#3c190a" stroke-linecap="round" stroke-linejoin="round" stroke-width="10.0"/>
    <path d="M110.05 -42.3 Q105.9 -33.1 94.9 -33.1 91.85 -33.1 89.45 -35.45 L94.7 -38.2 Q94.95 -40.15 93.75 -42.85 92.2 -46.4 89.9 -47.1 L84.45 -44.5 Q83.25 -49.1 85.45 -52.05 88.0 -55.4 91.9 -57.25 L93.05 -57.8 94.05 -58.2 Q96.2 -59.1 98.05 -59.25 L101.95 -59.05 Q103.35 -58.85 104.65 -58.0 107.1 -56.45 109.0 -52.65 112.05 -46.7 110.05 -42.3" fill="#741515" fill-rule="evenodd" stroke="none"/>
    <path d="M110.05 -42.3 Q105.9 -33.1 94.9 -33.1 91.85 -33.1 89.45 -35.45 L94.7 -38.2 Q94.95 -40.15 93.75 -42.85 92.2 -46.4 89.9 -47.1 L84.45 -44.5 Q83.25 -49.1 85.45 -52.05 88.0 -55.4 91.9 -57.25 L93.05 -57.8 94.05 -58.2 Q96.2 -59.1 98.05 -59.25 L101.95 -59.05 Q103.35 -58.85 104.65 -58.0 107.1 -56.45 109.0 -52.65 112.05 -46.7 110.05 -42.3 Z" fill="none" stroke="#741515" stroke-linecap="round" stroke-linejoin="round" stroke-width="10.0"/>
    <path d="M104.9 -54.35 L104.9 -43.65 37.25 -7.75 30.8 -17.5 Q18.9 -13.0 11.5 -3.15 L17.5 2.7 14.15 4.5 14.95 3.2 10.2 -2.65 7.85 -0.35 9.4 2.9 0.2 9.1 1.25 11.35 -30.1 27.95 -38.75 22.65 -37.2 14.0 -7.1 -0.45 Q-4.8 4.3 -1.2 8.35 L7.65 2.8 6.15 -0.05 5.65 0.45 Q3.6 -2.05 1.95 -4.8 L2.85 -5.25 5.6 -1.05 12.7 -7.15 11.65 -9.45 12.5 -9.9 13.5 -7.5 15.1 -9.15 Q18.05 -12.05 21.6 -14.25 L104.9 -54.35" fill="#70381f" fill-rule="evenodd" stroke="none"/>
    <path d="M110.05 -42.3 Q105.9 -33.1 94.9 -33.1 91.85 -33.1 89.45 -35.45 L94.7 -38.2 Q94.95 -40.15 93.75 -42.85 92.2 -46.4 89.9 -47.1 L84.45 -44.5 Q83.25 -49.1 85.45 -52.05 88.0 -55.4 91.9 -57.25 L93.05 -57.8 94.05 -58.2 Q96.2 -59.1 98.05 -59.25 L101.95 -59.05 Q103.35 -58.85 104.65 -58.0 107.1 -56.45 109.0 -52.65 112.05 -46.7 110.05 -42.3" fill="#741515" fill-rule="evenodd" stroke="none"/>
    <path d="M110.05 -42.3 Q105.9 -33.1 94.9 -33.1 91.85 -33.1 89.45 -35.45 L94.7 -38.2 Q94.95 -40.15 93.75 -42.85 92.2 -46.4 89.9 -47.1 L84.45 -44.5 Q83.25 -49.1 85.45 -52.05 88.0 -55.4 91.9 -57.25 96.65 -57.1 100.6 -53.85 105.75 -49.65 105.5 -42.1 107.45 -48.8 103.2 -53.45 99.75 -57.15 94.05 -58.2 96.2 -59.1 98.05 -59.25 L101.95 -59.05 Q103.35 -58.85 104.65 -58.0 107.1 -56.45 109.0 -52.65 112.05 -46.7 110.05 -42.3" fill="#ec2b2b" fill-rule="evenodd" stroke="none"/>
    <path d="M76.15 -80.15 Q78.05 -82.95 79.6 -84.0 L85.15 -78.2 86.6 -76.4 Q85.95 -73.1 83.95 -70.5 81.1 -66.7 77.0 -66.7 73.65 -66.7 71.15 -69.2 73.0 -75.7 76.15 -80.15" fill="#ffffff" fill-rule="evenodd" stroke="none"/>
    <path d="M123.35 -36.0 Q123.7 -38.45 125.05 -40.1 L132.25 -34.4 Q136.25 -31.1 139.7 -27.8 138.85 -26.3 137.3 -25.3 134.45 -23.45 130.85 -24.5 L130.6 -24.55 129.0 -26.4 124.2 -30.55 Q123.0 -33.2 123.35 -36.0 M113.2 -14.7 L113.75 -10.65 Q114.15 -3.85 112.75 3.9 L111.25 10.35 Q112.6 7.95 114.0 4.1 116.85 -3.6 117.15 -10.75 L116.9 -14.8 Q124.75 -14.35 129.55 -8.4 134.8 -1.9 133.45 7.3 132.1 16.5 124.95 22.95 117.85 29.45 109.1 29.45 100.35 29.45 95.1 22.95 89.9 16.5 91.25 7.3 92.6 -1.9 99.7 -8.4 105.85 -13.95 113.2 -14.7 M161.9 10.0 Q164.25 29.55 153.1 42.65 L150.65 45.3 Q147.85 43.9 145.55 41.1 141.05 35.6 141.05 27.75 141.05 19.9 145.55 14.35 150.1 8.85 156.5 8.85 159.4 8.85 161.9 10.0 M88.5 -12.4 L91.15 -17.35 91.35 -15.2 Q91.35 -11.6 89.1 -9.1 86.85 -6.5 83.7 -6.5 80.55 -6.5 78.3 -9.1 76.45 -11.2 76.15 -14.0 L80.8 -23.25 Q82.1 -23.9 83.7 -23.9 86.85 -23.9 89.1 -21.35 90.25 -20.05 90.8 -18.45 L88.5 -12.4 M92.7 61.15 Q83.1 59.55 74.65 55.0 61.75 48.05 57.15 36.5 L59.4 34.05 Q65.9 28.0 75.05 28.0 84.2 28.0 90.65 34.05 97.15 40.15 97.15 48.7 97.15 55.75 92.75 61.15 L92.7 61.15" fill="#ffffff" fill-rule="evenodd" stroke="none"/>
    <path d="M-72.2 61.55 Q-61.05 62.8 -47.2 52.5 L-40.35 57.5 Q-61.95 69.85 -74.05 65.2 -80.35 62.9 -82.75 56.25 -78.65 60.85 -72.2 61.55" fill="#620000" fill-opacity="0.3019608" fill-rule="evenodd" stroke="none"/>
  </g>
</svg>
