<?xml version="1.0" encoding="UTF-8" standalone="no"?>
<svg xmlns:xlink="http://www.w3.org/1999/xlink" height="147.65px" width="106.35px" xmlns="http://www.w3.org/2000/svg">
  <g transform="matrix(1.0, 0.0, 0.0, 1.0, 53.15, 71.95)">
    <path d="M19.25 -28.0 Q20.95 -28.1 21.65 -27.15 23.95 -24.0 19.1 -15.35 15.95 -9.65 12.35 -5.5 L12.3 -5.35 Q10.9 -3.9 6.1 -2.3 L5.0 -1.9 14.7 -2.0 18.95 1.65 Q23.75 6.1 26.7 10.0 30.15 14.55 32.25 22.9 34.3 30.85 34.0 38.0 33.95 39.95 34.75 50.45 35.3 56.7 33.4 59.75 31.0 63.7 22.8 65.95 14.25 68.3 0.15 68.6 -15.25 68.95 -29.5 66.7 -44.9 64.25 -47.25 60.3 -49.25 57.0 -48.75 53.25 L-48.25 50.5 Q-48.0 49.05 -48.1 48.15 L-48.9 44.25 Q-49.3 41.9 -49.1 39.0 -48.9 35.7 -45.3 25.25 -42.0 15.5 -39.4 10.0 -37.45 5.85 -32.3 1.55 -29.75 -0.55 -27.55 -1.85 -27.55 -1.75 -18.7 -1.8 -23.05 -3.15 -24.95 -5.25 L-25.75 -6.15 Q-28.55 -9.65 -31.4 -15.8 -35.35 -24.25 -32.75 -26.25 L-30.35 -26.5 -27.4 -26.3 Q-21.35 -25.75 -17.4 -26.1 -16.45 -26.2 -14.05 -28.2 -11.6 -30.3 -10.65 -30.45 -2.75 -31.9 0.5 -30.1 L2.7 -28.65 Q3.9 -27.9 5.55 -27.9 9.7 -27.85 16.25 -28.15 L19.25 -28.0" fill="#c68738" fill-rule="evenodd" stroke="none"/>
    <path d="M19.25 -28.0 L16.25 -28.15 Q9.7 -27.85 5.55 -27.9 3.9 -27.9 2.7 -28.65 L0.5 -30.1 Q-2.75 -31.9 -10.65 -30.45 -11.6 -30.3 -14.05 -28.2 -16.45 -26.2 -17.4 -26.1 -21.35 -25.75 -27.4 -26.3 L-30.35 -26.5 -32.75 -26.25 Q-35.35 -24.25 -31.4 -15.8 -28.55 -9.65 -25.75 -6.15 L-24.95 -5.25 Q-23.05 -3.15 -18.7 -1.8 -27.55 -1.75 -27.55 -1.85 -29.75 -0.55 -32.3 1.55 -37.45 5.85 -39.4 10.0 -42.0 15.5 -45.3 25.25 -48.9 35.7 -49.1 39.0 -49.3 41.9 -48.9 44.25 L-48.1 48.15 Q-48.0 49.05 -48.25 50.5 L-48.75 53.25 Q-49.25 57.0 -47.25 60.3 -44.9 64.25 -29.5 66.7 -15.25 68.95 0.15 68.6 14.25 68.3 22.8 65.95 31.0 63.7 33.4 59.75 35.3 56.7 34.75 50.45 33.95 39.95 34.0 38.0 34.3 30.85 32.25 22.9 30.15 14.55 26.7 10.0 23.75 6.1 18.95 1.65 L14.7 -2.0 5.0 -1.9 6.1 -2.3 Q10.9 -3.9 12.3 -5.35 L12.35 -5.5 Q15.95 -9.65 19.1 -15.35 23.95 -24.0 21.65 -27.15 20.95 -28.1 19.25 -28.0 Z" fill="none" stroke="#ab7026" stroke-linecap="round" stroke-linejoin="round" stroke-width="8.0"/>
    <path d="M-6.4 -1.85 L14.7 -2.0 18.95 1.65 Q23.75 6.1 26.7 10.0 30.15 14.55 32.25 22.9 34.3 30.85 34.0 38.0 33.95 39.95 34.75 50.45 35.3 56.7 33.4 59.75 31.0 63.7 22.8 65.95 14.25 68.3 0.15 68.6 -15.25 68.95 -29.5 66.7 -44.9 64.25 -47.25 60.3 -49.25 57.0 -48.75 53.25 L-48.25 50.5 Q-48.0 49.05 -48.1 48.15 L-48.9 44.25 Q-49.3 41.9 -49.1 39.0 -48.9 35.7 -45.3 25.25 -42.0 15.5 -39.4 10.0 -37.45 5.85 -32.3 1.55 -29.75 -0.55 -27.55 -1.85 L-6.4 -1.85" fill="#c68738" fill-rule="evenodd" stroke="none"/>
    <path d="M-6.4 -1.85 L14.7 -2.0 18.95 1.65 Q23.75 6.1 26.7 10.0 29.9 14.2 31.95 21.6 L32.0 28.0 Q32.0 34.6 27.75 40.25 23.3 46.15 17.45 46.15 11.75 46.15 3.1 43.25 -5.3 40.45 -10.4 40.6 L-18.3 41.4 -25.95 42.65 Q-34.6 43.9 -37.55 42.0 -41.25 39.6 -43.4 34.6 -45.5 29.8 -45.0 25.4 L-44.9 24.0 Q-41.8 15.1 -39.4 10.0 -37.45 5.85 -32.3 1.55 -29.75 -0.55 -27.55 -1.85 L-6.4 -1.85" fill="#cd934b" fill-rule="evenodd" stroke="none"/>
    <path d="M-5.75 -4.8 L14.15 -5.3 15.95 -4.35 Q17.85 -3.2 18.55 -2.15 20.25 0.4 18.15 3.15 16.0 5.9 10.8 8.65 3.05 12.75 -5.85 12.45 -20.65 12.0 -29.25 6.45 -31.75 4.85 -32.4 3.7 -33.35 1.95 -32.0 -0.55 -30.75 -2.9 -28.1 -3.9 L-25.7 -4.45 Q-25.7 -4.35 -5.75 -4.8" fill="#b1e939" fill-rule="evenodd" stroke="none"/>
    <path d="M-5.75 -4.8 Q-25.7 -4.35 -25.7 -4.45 L-28.1 -3.9 Q-30.75 -2.9 -32.0 -0.55 -33.35 1.95 -32.4 3.7 -31.75 4.85 -29.25 6.45 -20.65 12.0 -5.85 12.45 3.05 12.75 10.8 8.65 16.0 5.9 18.15 3.15 20.25 0.4 18.55 -2.15 17.85 -3.2 15.95 -4.35 L14.15 -5.3 -5.75 -4.8 Z" fill="none" stroke="#9cd425" stroke-linecap="round" stroke-linejoin="round" stroke-width="8.0"/>
    <path d="M-5.75 -4.8 L14.15 -5.3 15.95 -4.35 Q17.85 -3.2 18.55 -2.15 20.25 0.4 18.15 3.15 16.0 5.9 10.8 8.65 3.05 12.75 -5.85 12.45 -20.65 12.0 -29.25 6.45 -31.75 4.85 -32.4 3.7 -33.35 1.95 -32.0 -0.55 -30.75 -2.9 -28.1 -3.9 L-25.7 -4.45 Q-25.7 -4.35 -5.75 -4.8" fill="#b1e939" fill-rule="evenodd" stroke="none"/>
    <path d="M-5.75 -4.8 L14.15 -5.3 15.95 -4.35 Q17.85 -3.2 18.55 -2.15 L18.9 -1.55 18.25 -0.7 Q16.05 1.8 10.75 4.3 2.85 7.95 -6.25 7.7 -21.35 7.3 -30.15 2.3 L-32.5 0.7 -32.0 -0.55 Q-30.75 -2.9 -28.1 -3.9 L-25.7 -4.45 Q-25.7 -4.35 -5.75 -4.8" fill="#a5de2c" fill-rule="evenodd" stroke="none"/>
    <path d="M0.9 -4.95 L2.45 -5.0 Q10.75 3.9 8.4 10.55 L8.65 9.7 7.25 10.3 Q9.5 3.9 0.9 -4.95 M-3.95 -4.85 L-2.6 -4.85 Q3.85 4.35 2.85 11.65 L1.6 11.9 Q2.8 4.55 -3.95 -4.85 -5.65 4.7 -5.35 12.5 L-5.85 12.45 -6.5 12.4 Q-6.8 4.65 -5.1 -4.8 L-3.95 -4.85 M7.45 -5.1 Q12.65 -1.3 13.85 2.35 14.65 4.65 13.85 6.9 L12.0 8.0 Q13.65 5.45 12.75 2.75 11.45 -1.2 5.0 -5.4 L5.5 -5.05 7.45 -5.1 M13.3 -5.25 L13.05 -5.45 Q17.05 -2.65 18.0 0.35 18.45 1.55 18.35 2.85 L18.15 3.15 16.8 4.65 Q17.5 2.65 16.95 0.75 15.85 -2.35 11.3 -5.2 L13.3 -5.25 M-20.8 -4.45 L-18.8 -4.5 Q-24.45 -0.65 -25.7 3.05 -26.65 6.05 -24.45 8.95 L-26.4 8.1 Q-27.75 5.45 -26.75 2.65 -25.65 -0.85 -20.8 -4.45 M-15.7 -4.55 L-14.1 -4.6 Q-22.45 4.15 -20.05 10.5 L-21.45 10.05 Q-23.35 3.75 -15.7 -4.55 M-10.45 -4.7 L-9.15 -4.7 Q-14.3 4.55 -12.75 11.95 L-13.95 11.75 Q-15.35 4.45 -10.45 -4.7 M-30.9 0.95 Q-30.05 -1.75 -26.75 -4.3 L-25.7 -4.45 -24.6 -4.4 Q-28.8 -1.65 -29.85 1.3 -30.65 3.85 -29.0 6.65 L-29.25 6.45 -30.9 5.25 Q-31.65 3.05 -30.9 0.95" fill="#9cd425" fill-rule="evenodd" stroke="none"/>
    <path d="M-11.4 38.1 L-10.85 36.9 Q-11.15 38.3 -10.5 39.2 -10.45 38.45 -10.05 38.15 -10.55 39.45 -9.25 40.45 -9.3 38.9 -8.95 37.4 L-8.9 38.15 -8.5 39.35 -7.4 40.7 Q-6.2 40.2 -5.95 39.25 -5.7 38.4 -6.0 36.9 -5.65 37.15 -5.4 37.75 L-5.15 38.95 Q-4.5 38.45 -4.3 37.15 -4.1 35.85 -4.4 34.45 -3.75 35.75 -3.7 36.6 L-3.65 35.0 Q-3.65 33.25 -3.95 32.5 -3.7 32.4 -3.4 33.55 L-3.2 34.75 Q-3.25 32.05 -3.45 31.3 -3.55 30.8 -3.9 30.6 L-4.2 30.45 -10.2 30.15 Q-11.35 31.9 -11.4 38.1" fill="#b1e939" fill-rule="evenodd" stroke="none"/>
    <path d="M-11.4 38.1 Q-11.35 31.9 -10.2 30.15 L-4.2 30.45 -3.9 30.6 Q-3.55 30.8 -3.45 31.3 -3.25 32.05 -3.2 34.75 L-3.4 33.55 Q-3.7 32.4 -3.95 32.5 -3.65 33.25 -3.65 35.0 L-3.7 36.6 Q-3.75 35.75 -4.4 34.45 -4.1 35.85 -4.3 37.15 -4.5 38.45 -5.15 38.95 L-5.4 37.75 Q-5.65 37.15 -6.0 36.9 -5.7 38.4 -5.95 39.25 -6.2 40.2 -7.4 40.7 L-8.5 39.35 -8.9 38.15 -8.95 37.4 Q-9.3 38.9 -9.25 40.45 -10.55 39.45 -10.05 38.15 -10.45 38.45 -10.5 39.2 -11.15 38.3 -10.85 36.9 L-11.4 38.1 Z" fill="none" stroke="#9cd425" stroke-linecap="round" stroke-linejoin="round" stroke-width="8.0"/>
    <path d="M-9.6 3.05 L-6.15 3.0 -5.05 6.25 Q-3.95 9.95 -3.85 12.55 -3.75 15.45 -4.2 19.75 -3.55 20.4 -2.95 21.65 -2.25 23.05 -2.7 26.2 -3.1 28.8 -3.9 30.45 -4.5 31.8 -5.15 32.2 L-7.3 32.25 Q-8.75 32.0 -9.95 30.95 -11.1 29.95 -11.5 28.45 -12.0 26.75 -11.9 23.4 -11.8 19.85 -11.05 19.25 L-9.7 18.25 -9.15 18.15 Q-8.7 13.5 -8.75 11.8 -8.75 9.65 -9.2 6.1 L-9.6 3.05" fill="#b1e939" fill-rule="evenodd" stroke="none"/>
    <path d="M-9.6 3.05 L-6.15 3.0 -5.05 6.25 Q-3.95 9.95 -3.85 12.55 -3.75 15.45 -4.2 19.75 -3.55 20.4 -2.95 21.65 -2.25 23.05 -2.7 26.2 -3.1 28.8 -3.9 30.45 -4.5 31.8 -5.15 32.2 L-7.3 32.25 Q-8.75 32.0 -9.95 30.95 -11.1 29.95 -11.5 28.45 -12.0 26.75 -11.9 23.4 -11.8 19.85 -11.05 19.25 L-9.7 18.25 -9.15 18.15 Q-8.7 13.5 -8.75 11.8 -8.75 9.65 -9.2 6.1 L-9.6 3.05 Z" fill="none" stroke="#9cd425" stroke-linecap="round" stroke-linejoin="round" stroke-width="6.0"/>
    <path d="M-11.4 38.1 L-10.85 36.9 Q-11.15 38.3 -10.5 39.2 -10.45 38.45 -10.05 38.15 -10.55 39.45 -9.25 40.45 -9.3 38.9 -8.95 37.4 L-8.9 38.15 -8.5 39.35 -7.4 40.7 Q-6.2 40.2 -5.95 39.25 -5.7 38.4 -6.0 36.9 -5.65 37.15 -5.4 37.75 L-5.15 38.95 Q-4.5 38.45 -4.3 37.15 -4.1 35.85 -4.4 34.45 -3.75 35.75 -3.7 36.6 L-3.65 35.0 Q-3.65 33.25 -3.95 32.5 -3.7 32.4 -3.4 33.55 L-3.2 34.75 Q-3.25 32.05 -3.45 31.3 -3.55 30.8 -3.9 30.6 L-4.2 30.45 -10.2 30.15 Q-11.35 31.9 -11.4 38.1" fill="#b1e939" fill-rule="evenodd" stroke="none"/>
    <path d="M-3.9 32.55 L-4.0 30.5 -4.2 30.45 -10.1 30.15 Q-10.55 31.95 -10.55 35.25 L-10.1 34.35 Q-10.35 35.45 -9.8 36.2 L-9.45 35.3 Q-9.9 36.4 -8.8 37.2 L-8.6 34.75 -8.5 35.4 -8.2 36.35 Q-8.0 36.9 -7.3 37.45 -6.35 37.05 -6.1 36.25 -5.95 35.6 -6.2 34.35 -5.85 34.5 -5.7 35.05 L-5.5 36.05 Q-5.0 35.6 -4.8 34.55 -4.6 33.5 -4.85 32.35 -4.3 33.45 -4.3 34.1 L-4.25 32.8 Q-4.25 31.4 -4.5 30.75 -4.3 30.7 -4.05 31.65 L-3.9 32.55 -3.9 32.5 -3.9 32.55" fill="#a5de2c" fill-rule="evenodd" stroke="none"/>
    <path d="M-3.9 32.55 L-3.9 32.5 -3.9 32.55" fill="#a5de2c" fill-rule="evenodd" stroke="none"/>
    <path d="M-4.6 19.45 Q-5.3 18.95 -7.3 18.4 L-9.75 18.2 -11.15 19.15 Q-11.85 19.8 -11.95 23.35 -12.05 26.75 -11.55 28.4 -11.15 29.9 -9.95 30.95 -8.85 31.95 -7.35 32.2 L-5.25 32.1 Q-4.55 31.8 -3.95 30.45 -3.15 28.75 -2.8 26.15 -2.3 23.05 -3.0 21.6 -3.75 20.05 -4.6 19.45" fill="#a5de2c" fill-rule="evenodd" stroke="none"/>
    <path d="M-9.2 27.05 Q-8.05 27.85 -7.1 28.0 -5.35 28.25 -3.45 26.4 L-2.55 24.9 -2.7 26.2 Q-3.1 28.8 -3.9 30.45 L-3.75 30.25 -3.9 30.45 Q-4.5 31.8 -5.15 32.2 L-7.3 32.25 Q-8.75 32.0 -9.95 30.95 -11.1 29.95 -11.5 28.45 -11.95 27.0 -11.9 24.3 L-11.5 24.95 -11.1 25.65 -9.2 27.05" fill="#b1e939" fill-rule="evenodd" stroke="none"/>
    <path d="M-9.2 6.05 Q-8.75 9.6 -8.75 11.75 -8.75 13.55 -9.25 18.55 L-9.55 23.5 Q-9.4 24.2 -8.85 24.85 L-7.7 25.85 -6.35 25.75 -5.3 25.0 Q-4.85 24.55 -4.3 20.05 -3.75 15.55 -3.85 12.5 -3.95 9.9 -5.05 6.2 L-6.15 3.0 -9.65 3.0 -9.2 6.05" fill="#b1e939" fill-rule="evenodd" stroke="none"/>
    <path d="M-9.6 22.55 Q-8.1 24.2 -4.75 23.15 L-4.6 22.2 Q-8.25 23.55 -9.5 21.55 L-9.6 22.55 M-7.15 17.95 Q-5.95 18.25 -4.3 20.25 L-4.3 20.05 -4.2 19.35 Q-5.85 17.4 -7.1 17.2 -8.25 16.85 -9.15 17.8 L-9.25 18.55 -9.3 19.35 Q-8.45 17.65 -7.15 17.95 M-6.7 11.75 Q-7.9 11.1 -8.75 11.95 L-8.75 13.3 Q-8.1 11.9 -6.9 12.45 -5.65 13.15 -3.9 15.75 L-3.9 14.65 Q-5.55 12.35 -6.7 11.75 M-4.55 8.15 Q-5.6 7.2 -6.55 6.9 -7.85 6.5 -9.1 7.15 L-9.0 8.05 Q-7.85 7.3 -6.65 7.65 -5.5 8.1 -4.3 9.35 L-4.55 8.15" fill="#9cd425" fill-rule="evenodd" stroke="none"/>
    <path d="M-10.7 44.25 L-11.3 42.8 Q-11.0 44.45 -11.8 45.4 -11.85 44.5 -12.35 44.05 -11.75 45.7 -13.3 46.55 -13.2 44.8 -13.55 43.0 L-13.7 43.85 -14.15 45.2 Q-14.5 45.85 -15.5 46.5 -16.85 45.65 -17.15 44.45 -17.4 43.45 -16.95 41.75 -17.45 41.95 -17.7 42.65 L-18.05 43.95 Q-18.75 43.2 -18.95 41.7 -19.2 40.15 -18.8 38.55 -19.6 39.95 -19.7 40.95 L-19.7 39.05 -19.25 36.2 Q-19.55 36.05 -19.9 37.35 L-20.2 38.65 -19.8 34.7 -19.25 33.95 -18.9 33.85 -11.85 34.85 Q-10.5 37.1 -10.7 44.25" fill="#b1e939" fill-rule="evenodd" stroke="none"/>
    <path d="M-10.7 44.25 Q-10.5 37.1 -11.85 34.85 L-18.9 33.85 -19.25 33.95 -19.8 34.7 -20.2 38.65 -19.9 37.35 Q-19.55 36.05 -19.25 36.2 L-19.7 39.05 -19.7 40.95 Q-19.6 39.95 -18.8 38.55 -19.2 40.15 -18.95 41.7 -18.75 43.2 -18.05 43.95 L-17.7 42.65 Q-17.45 41.95 -16.95 41.75 -17.4 43.45 -17.15 44.45 -16.85 45.65 -15.5 46.5 -14.5 45.85 -14.15 45.2 L-13.7 43.85 -13.55 43.0 Q-13.2 44.8 -13.3 46.55 -11.75 45.7 -12.35 44.05 -11.85 44.5 -11.8 45.4 -11.0 44.45 -11.3 42.8 L-10.7 44.25 Z" fill="none" stroke="#9cd425" stroke-linecap="round" stroke-linejoin="round" stroke-width="8.0"/>
    <path d="M-11.55 3.15 L-12.15 6.65 -12.9 13.15 -12.6 20.7 -12.0 20.9 -10.4 22.35 Q-9.55 23.2 -9.55 27.35 -9.55 31.3 -10.2 33.15 -10.8 34.8 -12.15 35.75 -13.55 36.65 -15.25 36.65 -17.0 36.65 -17.75 36.15 -18.55 35.6 -19.2 33.9 -20.05 31.8 -20.4 28.65 -20.85 24.95 -20.0 23.4 -19.25 22.1 -18.4 21.55 -18.85 16.35 -18.6 13.0 -18.4 10.0 -17.0 5.9 L-15.6 2.4 -11.55 3.15" fill="#b1e939" fill-rule="evenodd" stroke="none"/>
    <path d="M-11.55 3.15 L-15.6 2.4 -17.0 5.9 Q-18.4 10.0 -18.6 13.0 -18.85 16.35 -18.4 21.55 -19.25 22.1 -20.0 23.4 -20.85 24.95 -20.4 28.65 -20.05 31.8 -19.2 33.9 -18.55 35.6 -17.75 36.15 -17.0 36.65 -15.25 36.65 -13.55 36.65 -12.15 35.75 -10.8 34.8 -10.2 33.15 -9.55 31.3 -9.55 27.35 -9.55 23.2 -10.4 22.35 L-12.0 20.9 -12.6 20.7 -12.9 13.15 -12.15 6.65 -11.55 3.15 Z" fill="none" stroke="#9cd425" stroke-linecap="round" stroke-linejoin="round" stroke-width="6.0"/>
    <path d="M-10.7 44.25 L-11.3 42.8 Q-11.0 44.45 -11.8 45.4 -11.85 44.5 -12.35 44.05 -11.75 45.7 -13.3 46.55 -13.2 44.8 -13.55 43.0 L-13.7 43.85 -14.15 45.2 Q-14.5 45.85 -15.5 46.5 -16.85 45.65 -17.15 44.45 -17.4 43.45 -16.95 41.75 -17.45 41.95 -17.7 42.65 L-18.05 43.95 Q-18.75 43.2 -18.95 41.7 -19.2 40.15 -18.8 38.55 -19.6 39.95 -19.7 40.95 L-19.7 39.05 -19.25 36.2 Q-19.55 36.05 -19.9 37.35 L-20.2 38.65 -19.8 34.7 -19.25 33.95 -18.9 33.85 -11.85 34.85 Q-10.5 37.1 -10.7 44.25" fill="#b1e939" fill-rule="evenodd" stroke="none"/>
    <path d="M-19.3 36.3 L-19.1 33.9 -18.9 33.85 -11.95 34.85 Q-11.5 36.95 -11.6 40.85 L-12.1 39.65 Q-11.85 41.0 -12.45 41.8 -12.55 41.05 -12.9 40.7 -12.45 42.0 -13.7 42.7 -13.6 41.3 -13.9 39.85 L-14.0 40.5 -14.35 41.6 Q-14.65 42.15 -15.5 42.7 -16.6 42.0 -16.85 41.0 L-16.7 38.85 Q-17.05 38.95 -17.3 39.55 L-17.55 40.65 Q-18.15 40.0 -18.3 38.8 -18.5 37.5 -18.2 36.2 -18.85 37.35 -18.9 38.15 L-18.9 36.65 -18.55 34.3 Q-18.75 34.15 -19.05 35.2 L-19.3 36.3 -19.3 36.2 -19.3 36.3" fill="#a5de2c" fill-rule="evenodd" stroke="none"/>
    <path d="M-19.3 36.3 L-19.3 36.2 -19.3 36.3" fill="#a5de2c" fill-rule="evenodd" stroke="none"/>
    <path d="M-18.1 21.25 L-14.9 20.6 -12.05 20.85 -10.45 22.3 Q-9.6 23.15 -9.6 27.3 -9.6 31.25 -10.25 33.1 -10.85 34.75 -12.2 35.7 -13.6 36.65 -15.3 36.65 -17.05 36.65 -17.8 36.1 -18.6 35.55 -19.25 33.85 -20.1 31.8 -20.45 28.65 -20.9 24.9 -20.05 23.4 -19.1 21.8 -18.1 21.25" fill="#a5de2c" fill-rule="evenodd" stroke="none"/>
    <path d="M-12.15 6.6 L-12.85 13.15 -12.55 21.15 Q-12.15 26.45 -12.3 26.95 -12.55 27.75 -13.2 28.4 L-14.65 29.25 -16.1 28.95 -17.35 27.8 Q-17.9 27.2 -18.35 21.9 -18.8 16.45 -18.6 12.95 -18.4 9.95 -17.0 5.85 L-15.6 2.35 -11.5 3.1 -12.15 6.6" fill="#b1e939" fill-rule="evenodd" stroke="none"/>
    <path d="M-12.3 25.9 Q-14.1 27.5 -17.95 25.5 L-18.1 24.45 Q-13.85 26.75 -12.3 24.65 L-12.3 25.9 M-14.95 20.0 Q-16.4 20.1 -18.35 22.1 L-18.35 21.9 -18.45 21.0 Q-16.5 19.15 -14.95 19.1 -13.6 18.95 -12.6 20.3 L-12.55 21.15 -12.45 22.05 Q-13.4 19.95 -14.95 20.0 M-15.25 12.7 Q-13.85 12.2 -12.85 13.4 L-12.85 14.95 Q-13.65 13.15 -15.05 13.55 -16.55 14.05 -18.65 16.75 L-18.7 15.5 Q-16.7 13.15 -15.25 12.7 M-17.7 8.05 Q-16.45 7.15 -15.25 7.05 -13.75 6.85 -12.3 7.85 L-12.45 8.85 Q-13.75 7.8 -15.2 7.95 -16.55 8.15 -18.05 9.4 L-17.7 8.05" fill="#9cd425" fill-rule="evenodd" stroke="none"/>
    <path d="M-6.35 -10.85 L11.55 -11.3 13.15 -10.45 15.5 -8.45 Q17.05 -6.15 15.15 -3.7 13.2 -1.25 8.55 1.25 1.6 4.9 -6.4 4.65 -19.7 4.25 -27.45 -0.75 -29.65 -2.15 -30.25 -3.25 -31.1 -4.8 -29.85 -7.05 -28.75 -9.1 -26.4 -10.0 L-24.25 -10.5 -6.35 -10.85" fill="#b1e939" fill-rule="evenodd" stroke="none"/>
    <path d="M-6.35 -10.85 L-24.25 -10.5 -26.4 -10.0 Q-28.75 -9.1 -29.85 -7.05 -31.1 -4.8 -30.25 -3.25 -29.65 -2.15 -27.45 -0.75 -19.7 4.25 -6.4 4.65 1.6 4.9 8.55 1.25 13.2 -1.25 15.15 -3.7 17.05 -6.15 15.5 -8.45 L13.15 -10.45 11.55 -11.3 -6.35 -10.85 Z" fill="none" stroke="#9cd425" stroke-linecap="round" stroke-linejoin="round" stroke-width="8.0"/>
    <path d="M-6.35 -10.85 L11.55 -11.3 13.15 -10.45 15.5 -8.45 Q17.05 -6.15 15.15 -3.7 13.2 -1.25 8.55 1.25 1.6 4.9 -6.4 4.65 -19.7 4.25 -27.45 -0.75 -29.65 -2.15 -30.25 -3.25 -31.1 -4.8 -29.85 -7.05 -28.75 -9.1 -26.4 -10.0 L-24.25 -10.5 -6.35 -10.85" fill="#b1e939" fill-rule="evenodd" stroke="none"/>
    <path d="M-4.7 -10.85 L-3.5 -10.9 Q2.3 -2.65 1.4 3.95 L0.3 4.15 Q1.35 -2.45 -4.7 -10.85 -6.25 -2.35 -5.95 4.65 L-6.4 4.65 -6.95 4.6 Q-7.25 -2.35 -5.75 -10.85 L-4.7 -10.85 M-0.35 -10.95 L1.05 -11.0 Q8.5 -3.0 6.4 2.95 L6.6 2.2 5.35 2.7 Q7.4 -3.05 -0.35 -10.95 M10.75 -11.25 L10.55 -11.4 Q14.15 -8.9 15.0 -6.2 L15.35 -3.95 15.15 -3.7 13.9 -2.4 Q14.55 -4.15 14.05 -5.85 13.1 -8.65 9.0 -11.2 L10.75 -11.25 M3.8 -11.05 L5.5 -11.1 Q10.2 -7.7 11.3 -4.4 11.95 -2.35 11.3 -0.35 L9.6 0.65 Q11.1 -1.65 10.3 -4.05 9.1 -7.6 3.35 -11.4 L3.8 -11.05 M-19.85 -10.55 L-18.05 -10.6 Q-23.1 -7.1 -24.25 -3.8 -25.1 -1.1 -23.15 1.5 L-24.85 0.7 Q-26.05 -1.65 -25.2 -4.15 -24.2 -7.3 -19.85 -10.55 M-15.25 -10.65 L-13.8 -10.65 Q-21.35 -2.8 -19.2 2.9 L-20.4 2.5 Q-22.1 -3.15 -15.25 -10.65 M-10.55 -10.75 L-9.35 -10.75 Q-14.0 -2.45 -12.6 4.2 L-13.7 4.05 Q-14.95 -2.55 -10.55 -10.75 M-25.15 -10.4 L-24.25 -10.5 -23.25 -10.5 Q-27.0 -8.0 -27.95 -5.35 -28.7 -3.05 -27.2 -0.6 L-27.45 -0.75 -28.9 -1.8 Q-29.6 -3.8 -28.9 -5.7 -28.15 -8.1 -25.15 -10.4" fill="#9cd425" fill-rule="evenodd" stroke="none"/>
    <path d="M-10.65 -30.55 Q-2.8 -31.95 0.45 -30.2 L2.65 -28.7 Q3.9 -27.95 5.5 -27.95 9.65 -27.9 16.2 -28.2 20.85 -28.3 21.6 -27.2 23.95 -24.05 19.1 -15.4 15.9 -9.7 12.35 -5.55 11.15 -4.2 6.05 -3.05 0.95 -1.95 -5.25 -1.6 -20.85 -0.85 -24.95 -5.3 -28.2 -8.85 -31.45 -15.9 -35.4 -24.3 -32.8 -26.3 -32.2 -26.8 -27.45 -26.35 -21.35 -25.8 -17.45 -26.15 -16.5 -26.3 -14.1 -28.3 -11.65 -30.35 -10.65 -30.55" fill="#cd934b" fill-rule="evenodd" stroke="none"/>
    <path d="M-10.25 -27.85 L0.05 -27.55 2.05 -26.25 Q3.2 -25.55 4.7 -25.55 L14.55 -25.8 Q18.85 -25.9 19.55 -24.9 21.7 -22.15 17.25 -14.5 L16.3 -12.9 Q13.75 -8.9 11.05 -5.85 9.95 -4.65 5.15 -3.65 0.5 -2.7 -5.25 -2.4 -19.65 -1.7 -23.45 -5.65 -25.9 -8.25 -28.4 -12.9 L-29.4 -14.95 Q-33.05 -22.35 -30.65 -24.15 -30.1 -24.55 -25.75 -24.15 -20.1 -23.7 -16.5 -24.0 -15.6 -24.1 -13.4 -25.9 -11.15 -27.7 -10.25 -27.85" fill="#ab7026" fill-rule="evenodd" stroke="none"/>
    <path d="M29.3 -39.5 Q12.45 -35.2 10.45 -16.4 -5.75 -6.9 -19.15 -13.9 -23.35 -25.3 -32.8 -29.5 -19.4 -30.15 -35.5 -49.2 -28.65 -42.45 -26.3 -48.3 -24.35 -53.2 -24.05 -71.95 -19.55 -62.8 -10.7 -61.95 -1.5 -61.05 8.45 -69.75 6.35 -53.5 24.05 -58.05 11.85 -41.45 29.3 -39.5" fill="#ffcc33" fill-rule="evenodd" stroke="none"/>
    <path d="M-4.5 -55.05 Q-3.85 -53.85 -3.85 -52.7 -3.85 -49.45 -5.6 -49.45 -6.7 -49.45 -7.5 -50.7 L-8.0 -52.0 Q-8.0 -57.3 -5.9 -56.5 -5.15 -56.2 -4.5 -55.05 M-14.15 -52.4 Q-12.85 -51.35 -12.85 -47.0 L-13.1 -40.95 -13.4 -35.0 -13.65 -30.2 Q-13.65 -28.85 -13.0 -26.95 -12.2 -24.55 -11.15 -24.4 -8.75 -24.55 -8.6 -27.35 -8.8 -30.65 -8.6 -31.75 L-8.35 -35.8 Q-7.95 -38.8 -5.8 -38.8 -4.65 -38.8 -4.15 -38.0 L-3.7 -36.85 -3.7 -29.05 -3.55 -28.0 -3.2 -26.95 -2.1 -25.9 -2.05 -25.9 0.3 -24.8 Q3.25 -23.6 5.55 -23.0 L9.05 -23.5 11.5 -23.95 Q13.9 -23.95 14.85 -21.8 15.25 -20.75 15.25 -19.7 15.25 -17.95 14.2 -16.15 12.85 -13.8 10.35 -13.0 L7.45 -12.0 4.1 -10.6 1.3 -10.15 -2.2 -9.55 -5.3 -9.05 -8.8 -8.55 Q-9.85 -8.55 -10.7 -9.05 L-11.75 -9.65 -14.0 -9.7 Q-16.3 -9.85 -17.25 -10.55 L-19.35 -11.6 Q-20.8 -12.2 -21.35 -12.8 L-23.35 -15.55 -24.8 -17.75 -25.55 -18.9 Q-26.15 -20.1 -26.15 -21.1 L-26.0 -22.2 Q-25.65 -22.8 -24.35 -22.8 L-22.65 -22.6 -21.95 -22.3 -20.85 -22.3 Q-19.8 -23.4 -19.35 -24.75 -19.0 -25.75 -19.0 -27.15 -19.0 -31.0 -20.05 -35.95 -21.15 -40.85 -21.15 -42.8 -21.15 -44.9 -19.85 -47.6 -18.6 -50.25 -17.0 -51.7 -15.25 -53.3 -14.15 -52.4 M-27.0 -42.25 Q-26.25 -41.35 -26.25 -40.15 -26.25 -39.15 -26.85 -37.45 -27.6 -35.25 -28.65 -35.25 -30.15 -35.25 -30.75 -37.1 L-31.0 -39.05 Q-31.0 -43.45 -28.65 -43.2 -27.75 -43.15 -27.0 -42.25 M7.75 -50.5 Q8.85 -47.8 8.85 -43.95 L8.4 -33.8 Q7.65 -24.0 5.95 -24.0 4.75 -24.0 3.8 -28.0 L2.7 -34.1 2.1 -38.95 1.7 -44.3 Q1.7 -49.15 2.8 -51.6 3.8 -53.7 5.3 -53.35 6.7 -53.0 7.75 -50.5 M-6.6 -43.4 Q-6.6 -45.05 -5.65 -45.1 -4.75 -45.15 -4.75 -44.15 L-5.0 -43.2 Q-5.3 -42.6 -5.65 -42.6 -6.4 -42.6 -6.55 -43.0 L-6.6 -43.4 M11.0 -38.05 Q12.15 -37.6 12.15 -35.8 L11.85 -34.75 Q11.55 -33.95 11.1 -33.95 10.3 -33.95 9.95 -35.0 L9.85 -36.0 Q9.85 -38.5 11.0 -38.05" fill="#ffde7b" fill-rule="evenodd" stroke="none"/>
    <path d="M13.75 -24.5 Q19.55 -29.95 21.65 -27.15 23.95 -24.0 19.1 -15.35 15.95 -9.65 12.35 -5.5 11.05 -3.95 6.1 -2.3 0.6 -0.45 -5.15 -0.15 -11.25 0.15 -17.0 -1.3 -22.7 -2.75 -24.95 -5.25 -28.15 -8.75 -31.4 -15.8 -35.35 -24.25 -32.75 -26.25 -31.45 -27.25 -29.45 -26.0 -28.3 -25.35 -25.55 -22.75 -19.75 -17.35 -16.5 -18.05 -13.65 -18.7 -11.8 -21.4 -10.2 -23.75 -6.15 -23.9 -3.55 -24.0 -2.1 -23.0 -1.2 -22.4 -0.15 -20.75 0.9 -19.15 1.75 -18.55 3.2 -17.6 5.65 -17.9 6.9 -17.95 9.3 -20.15 L13.75 -24.5" fill="#c68738" fill-rule="evenodd" stroke="none"/>
    <path d="M13.75 -24.5 Q19.55 -29.95 21.65 -27.15 23.95 -24.0 19.1 -15.35 L17.95 -13.3 16.95 -12.85 Q15.15 -12.5 14.55 -14.5 14.35 -15.35 13.95 -15.45 13.45 -15.7 12.1 -14.85 L9.65 -12.9 7.55 -10.95 Q5.15 -8.95 2.2 -9.15 -0.3 -9.3 -3.75 -12.4 -6.95 -15.3 -9.15 -15.0 -11.35 -14.7 -11.95 -12.35 -12.55 -9.9 -14.4 -9.55 L-18.45 -9.35 Q-19.4 -9.65 -24.6 -12.15 -28.85 -14.2 -33.15 -21.65 L-33.7 -22.8 Q-34.0 -25.3 -32.75 -26.25 -31.45 -27.25 -29.45 -26.05 -28.3 -25.35 -25.55 -22.75 -19.75 -17.35 -16.5 -18.05 -13.65 -18.7 -11.8 -21.4 -10.2 -23.75 -6.15 -23.95 -3.55 -24.0 -2.1 -23.0 -1.2 -22.4 -0.15 -20.75 0.9 -19.15 1.75 -18.55 3.2 -17.6 5.65 -17.9 6.9 -18.0 9.3 -20.15 L13.75 -24.5" fill="#cd934b" fill-rule="evenodd" stroke="none"/>
    <path d="M-20.55 26.05 L-19.9 28.2 Q-19.4 29.85 -18.55 30.25 -17.4 30.8 -15.4 30.8 L-13.3 30.45 -11.4 29.85 Q-10.55 29.6 -10.15 27.8 L-9.6 25.45 -9.55 27.35 Q-9.55 31.3 -10.2 33.15 -10.8 34.8 -12.15 35.75 -13.55 36.65 -15.25 36.65 -17.0 36.65 -17.75 36.15 -18.55 35.6 -19.2 33.9 -20.05 31.8 -20.4 28.65 L-20.55 26.05" fill="#b1e939" fill-rule="evenodd" stroke="none"/>
    <path d="M44.95 62.65 L44.95 62.75 44.95 62.65 M44.95 62.8 L44.95 69.1 44.95 69.15 Q44.85 70.2 40.45 70.9 L29.65 71.7 18.85 70.9 Q14.5 70.2 14.4 69.15 L14.4 62.8 Q14.4 63.85 18.85 64.6 L29.65 65.35 40.45 64.6 Q44.9 63.85 44.95 62.8 M14.4 62.75 L14.4 62.65 14.4 62.75" fill="#e5af0c" fill-rule="evenodd" stroke="none"/>
    <path d="M14.4 62.65 Q14.65 61.65 18.85 60.95 L29.65 60.15 40.45 60.95 Q44.65 61.65 44.95 62.65 L44.95 62.75 44.95 62.8 Q44.9 63.85 40.45 64.6 L29.65 65.35 18.85 64.6 Q14.4 63.85 14.4 62.8 L14.4 62.75 14.4 62.65" fill="#ffcc33" fill-rule="evenodd" stroke="none"/>
    <path d="M14.4 62.65 Q14.65 61.65 18.85 60.95 L29.65 60.15 40.45 60.95 Q44.65 61.65 44.95 62.65 L44.95 62.75 44.95 62.8 44.95 69.1 44.95 69.15 Q44.85 70.2 40.45 70.9 L29.65 71.7 18.85 70.9 Q14.5 70.2 14.4 69.15 L14.4 62.8 14.4 62.75 14.4 62.65 14.4 62.75 M44.95 62.65 L44.95 62.75 M44.95 62.8 Q44.9 63.85 40.45 64.6 L29.65 65.35 18.85 64.6 Q14.4 63.85 14.4 62.8" fill="none" stroke="#cd960d" stroke-linecap="round" stroke-linejoin="round" stroke-width="8.0"/>
    <path d="M49.2 53.05 L49.2 53.15 49.2 53.05 M49.2 53.2 L49.2 59.5 49.2 59.55 Q49.1 60.6 44.7 61.3 L33.9 62.1 23.1 61.3 Q18.75 60.6 18.65 59.55 L18.65 53.2 Q18.65 54.25 23.1 55.0 L33.9 55.75 44.7 55.0 Q49.15 54.25 49.2 53.2 M18.65 53.15 L18.65 53.05 18.65 53.15" fill="#e5af0c" fill-rule="evenodd" stroke="none"/>
    <path d="M18.65 53.05 Q18.9 52.05 23.1 51.35 L33.9 50.55 44.7 51.35 Q48.9 52.05 49.2 53.05 L49.2 53.15 49.2 53.2 Q49.15 54.25 44.7 55.0 L33.9 55.75 23.1 55.0 Q18.65 54.25 18.65 53.2 L18.65 53.15 18.65 53.05" fill="#ffcc33" fill-rule="evenodd" stroke="none"/>
    <path d="M18.65 53.05 Q18.9 52.05 23.1 51.35 L33.9 50.55 44.7 51.35 Q48.9 52.05 49.2 53.05 L49.2 53.15 49.2 53.2 49.2 59.5 49.2 59.55 Q49.1 60.6 44.7 61.3 L33.9 62.1 23.1 61.3 Q18.75 60.6 18.65 59.55 L18.65 53.2 18.65 53.15 18.65 53.05 18.65 53.15 M49.2 53.05 L49.2 53.15 M49.2 53.2 Q49.15 54.25 44.7 55.0 L33.9 55.75 23.1 55.0 Q18.65 54.25 18.65 53.2" fill="none" stroke="#cd960d" stroke-linecap="round" stroke-linejoin="round" stroke-width="8.0"/>
    <path d="M44.05 44.75 L44.05 44.85 44.05 44.75 M44.05 44.9 L44.05 51.2 44.05 51.25 Q43.95 52.3 39.55 53.0 L28.75 53.8 17.95 53.0 Q13.6 52.3 13.5 51.25 L13.5 44.9 Q13.5 45.95 17.95 46.7 L28.75 47.45 39.55 46.7 Q44.0 45.95 44.05 44.9 M13.5 44.85 L13.5 44.75 13.5 44.85" fill="#e5af0c" fill-rule="evenodd" stroke="none"/>
    <path d="M13.5 44.75 Q13.75 43.75 17.95 43.05 L28.75 42.25 39.55 43.05 Q43.75 43.75 44.05 44.75 L44.05 44.85 44.05 44.9 Q44.0 45.95 39.55 46.7 L28.75 47.45 17.95 46.7 Q13.5 45.95 13.5 44.9 L13.5 44.85 13.5 44.75" fill="#ffcc33" fill-rule="evenodd" stroke="none"/>
    <path d="M13.5 44.75 Q13.75 43.75 17.95 43.05 L28.75 42.25 39.55 43.05 Q43.75 43.75 44.05 44.75 L44.05 44.85 44.05 44.9 44.05 51.2 44.05 51.25 Q43.95 52.3 39.55 53.0 L28.75 53.8 17.95 53.0 Q13.6 52.3 13.5 51.25 L13.5 44.9 13.5 44.85 13.5 44.75 13.5 44.85 M44.05 44.75 L44.05 44.85 M44.05 44.9 Q44.0 45.95 39.55 46.7 L28.75 47.45 17.95 46.7 Q13.5 45.95 13.5 44.9" fill="none" stroke="#cd960d" stroke-linecap="round" stroke-linejoin="round" stroke-width="8.0"/>
    <path d="M45.8 36.05 L45.8 36.15 45.8 36.05 M45.8 36.2 L45.8 42.5 45.8 42.55 Q45.7 43.6 41.3 44.3 L30.5 45.1 19.7 44.3 Q15.35 43.6 15.25 42.55 L15.25 36.2 Q15.25 37.25 19.7 38.0 L30.5 38.75 41.3 38.0 Q45.75 37.25 45.8 36.2 M15.25 36.15 L15.25 36.05 15.25 36.15" fill="#e5af0c" fill-rule="evenodd" stroke="none"/>
    <path d="M15.25 36.05 Q15.5 35.05 19.7 34.35 L30.5 33.55 41.3 34.35 Q45.5 35.05 45.8 36.05 L45.8 36.15 45.8 36.2 Q45.75 37.25 41.3 38.0 L30.5 38.75 19.7 38.0 Q15.25 37.25 15.25 36.2 L15.25 36.15 15.25 36.05" fill="#ffcc33" fill-rule="evenodd" stroke="none"/>
    <path d="M15.25 36.05 Q15.5 35.05 19.7 34.35 L30.5 33.55 41.3 34.35 Q45.5 35.05 45.8 36.05 L45.8 36.15 45.8 36.2 45.8 42.5 45.8 42.55 Q45.7 43.6 41.3 44.3 L30.5 45.1 19.7 44.3 Q15.35 43.6 15.25 42.55 L15.25 36.2 15.25 36.15 15.25 36.05 15.25 36.15 M45.8 36.05 L45.8 36.15 M45.8 36.2 Q45.75 37.25 41.3 38.0 L30.5 38.75 19.7 38.0 Q15.25 37.25 15.25 36.2" fill="none" stroke="#cd960d" stroke-linecap="round" stroke-linejoin="round" stroke-width="8.0"/>
    <path d="M43.35 25.9 L43.35 26.0 43.35 25.9 M43.35 26.05 L43.35 32.35 43.35 32.4 Q43.25 33.45 38.85 34.15 L28.05 34.95 17.25 34.15 Q12.9 33.45 12.8 32.4 L12.8 26.05 Q12.8 27.1 17.25 27.85 L28.05 28.6 38.85 27.85 Q43.3 27.1 43.35 26.05 M12.8 26.0 L12.8 25.9 12.8 26.0" fill="#e5af0c" fill-rule="evenodd" stroke="none"/>
    <path d="M12.8 25.9 Q13.05 24.9 17.25 24.2 L28.05 23.4 38.85 24.2 Q43.05 24.9 43.35 25.9 L43.35 26.0 43.35 26.05 Q43.3 27.1 38.85 27.85 L28.05 28.6 17.25 27.85 Q12.8 27.1 12.8 26.05 L12.8 26.0 12.8 25.9" fill="#ffcc33" fill-rule="evenodd" stroke="none"/>
    <path d="M12.8 25.9 Q13.05 24.9 17.25 24.2 L28.05 23.4 38.85 24.2 Q43.05 24.9 43.35 25.9 L43.35 26.0 43.35 26.05 43.35 32.35 43.35 32.4 Q43.25 33.45 38.85 34.15 L28.05 34.95 17.25 34.15 Q12.9 33.45 12.8 32.4 L12.8 26.05 12.8 26.0 12.8 25.9 12.8 26.0 M43.35 25.9 L43.35 26.0 M43.35 26.05 Q43.3 27.1 38.85 27.85 L28.05 28.6 17.25 27.85 Q12.8 27.1 12.8 26.05" fill="none" stroke="#cd960d" stroke-linecap="round" stroke-linejoin="round" stroke-width="8.0"/>
    <path d="M44.9 69.05 Q44.85 70.15 40.4 70.9 L29.6 71.65 18.8 70.9 Q14.4 70.15 14.35 69.05 L14.35 62.6 44.9 62.6 44.9 69.05" fill="#e5af0c" fill-rule="evenodd" stroke="none"/>
    <path d="M39.65 62.6 L39.6 62.95 39.9 67.3 40.25 70.95 39.6 71.05 39.4 68.75 39.05 64.45 Q39.05 62.95 39.6 62.6 L39.65 62.6 M45.0 62.6 L45.0 69.05 45.0 69.1 44.45 69.75 44.35 67.4 44.25 65.3 44.2 67.1 44.4 69.35 44.45 69.75 43.65 70.15 43.4 68.9 43.35 66.9 43.3 64.8 Q43.35 63.3 43.85 62.6 L45.0 62.6 M42.5 62.6 L42.85 65.1 43.3 69.85 43.3 70.25 42.65 70.45 42.25 65.2 42.15 64.15 41.85 70.6 41.5 70.7 41.75 62.6 42.5 62.6 M38.3 62.6 L38.2 63.1 38.35 65.75 38.55 71.55 38.5 71.2 37.9 71.25 37.7 68.35 37.65 65.6 Q37.7 63.4 38.15 62.6 L38.3 62.6 M16.1 62.6 L16.55 62.6 17.05 65.05 17.15 67.9 17.15 70.55 16.5 70.35 16.5 64.85 16.2 63.15 16.1 62.6 M17.5 62.9 L17.9 66.25 17.75 70.7 17.5 70.6 17.2 64.45 17.35 62.9 17.5 62.9 M21.0 63.35 L21.05 63.25 21.3 63.25 22.15 67.15 22.25 70.35 22.25 71.3 21.6 71.25 21.6 71.65 21.6 70.7 21.3 66.15 20.95 63.55 21.0 63.35 M19.4 63.3 L19.5 70.25 19.5 71.0 18.85 70.9 18.85 70.2 19.2 63.3 19.4 63.3 M15.85 62.6 Q16.3 63.9 16.1 66.7 L16.0 70.2 Q14.5 69.7 14.4 69.1 L14.4 62.6 15.85 62.6 M33.25 62.6 L33.55 62.6 33.95 68.25 34.2 72.05 34.15 71.55 33.45 71.6 33.45 71.55 33.15 65.7 33.25 62.45 33.25 62.6 M27.7 64.3 L27.9 69.95 27.9 71.65 27.1 71.65 27.15 70.55 27.55 64.3 27.7 64.3" fill="#ffcc33" fill-rule="evenodd" stroke="none"/>
    <path d="M40.45 60.95 Q44.9 61.7 44.9 62.8 44.9 63.85 40.45 64.6 L29.65 65.4 18.8 64.6 Q14.35 63.85 14.35 62.8 14.35 61.7 18.8 60.95 L29.65 60.15 40.45 60.95" fill="#ffcc33" fill-rule="evenodd" stroke="none"/>
    <path d="M49.2 59.5 Q49.15 60.6 44.7 61.35 L33.9 62.1 23.1 61.35 Q18.7 60.6 18.65 59.5 L18.65 53.05 49.2 53.05 49.2 59.5" fill="#e5af0c" fill-rule="evenodd" stroke="none"/>
    <path d="M46.7 53.05 L47.05 55.55 47.5 60.3 47.5 60.7 46.85 60.9 46.45 55.65 46.35 54.6 46.05 61.05 45.7 61.15 45.95 53.05 46.7 53.05 M49.2 53.05 L49.2 59.5 49.2 59.55 48.65 60.2 48.55 57.85 48.45 55.75 48.4 57.55 48.6 59.8 48.65 60.2 47.85 60.6 47.6 59.35 47.55 57.35 47.5 55.25 Q47.55 53.75 48.05 53.05 L49.2 53.05 M43.85 53.05 L43.8 53.4 44.1 57.75 44.45 61.4 43.8 61.5 43.6 59.2 43.25 54.9 Q43.25 53.4 43.8 53.05 L43.85 53.05 M42.5 53.05 L42.4 53.55 42.55 56.2 42.75 62.0 42.7 61.65 42.1 61.7 41.9 58.8 41.85 56.05 Q41.9 53.85 42.35 53.05 L42.5 53.05 M20.3 53.05 L20.75 53.05 21.25 55.5 21.35 58.35 21.35 61.0 20.7 60.8 20.7 55.3 20.4 53.6 20.3 53.05 M21.7 53.35 L22.1 56.7 21.95 61.15 21.7 61.05 21.4 54.9 21.55 53.35 21.7 53.35 M25.2 53.8 L25.25 53.7 25.5 53.7 26.35 57.6 26.45 60.8 26.45 61.75 25.8 61.7 25.8 62.1 25.8 61.15 25.5 56.6 25.15 54.0 25.2 53.8 M23.6 53.75 L23.7 60.7 23.7 61.45 23.05 61.35 23.05 60.65 23.4 53.75 23.6 53.75 M20.05 53.05 Q20.5 54.35 20.3 57.15 L20.2 60.65 Q18.7 60.15 18.6 59.55 L18.6 53.05 20.05 53.05 M31.9 54.75 L32.1 60.4 32.1 62.1 31.3 62.1 31.35 61.0 31.75 54.75 31.9 54.75 M37.45 53.05 L37.75 53.05 38.15 58.7 38.4 62.5 38.35 62.0 37.65 62.05 37.65 62.0 37.35 56.15 37.45 52.9 37.45 53.05" fill="#ffcc33" fill-rule="evenodd" stroke="none"/>
    <path d="M44.75 51.35 Q49.2 52.1 49.2 53.2 49.2 54.25 44.75 55.0 L33.95 55.8 23.1 55.0 Q18.65 54.25 18.65 53.2 18.65 52.1 23.1 51.35 L33.95 50.55 44.75 51.35" fill="#ffcc33" fill-rule="evenodd" stroke="none"/>
    <path d="M44.05 51.2 Q44.0 52.3 39.55 53.05 L28.75 53.8 17.95 53.05 Q13.55 52.3 13.5 51.2 L13.5 44.75 44.05 44.75 44.05 51.2" fill="#e5af0c" fill-rule="evenodd" stroke="none"/>
    <path d="M38.75 44.7 L38.7 45.05 39.0 49.4 39.35 53.05 38.7 53.15 38.5 50.85 38.15 46.55 Q38.15 45.05 38.7 44.7 L38.75 44.7 M44.1 44.7 L44.1 51.15 44.1 51.2 43.55 51.85 43.45 49.5 43.35 47.4 43.3 49.2 43.5 51.45 43.55 51.85 42.75 52.25 42.5 51.0 42.45 49.0 42.4 46.9 Q42.45 45.4 42.95 44.7 L44.1 44.7 M41.6 44.7 L41.95 47.2 42.4 51.95 42.4 52.35 41.75 52.55 41.35 47.3 41.25 46.25 40.95 52.7 40.6 52.8 40.85 44.7 41.6 44.7 M37.4 44.7 L37.3 45.2 37.45 47.85 37.65 53.65 37.6 53.3 37.0 53.35 36.8 50.45 36.75 47.7 Q36.8 45.5 37.25 44.7 L37.4 44.7 M15.2 44.7 L15.65 44.7 16.15 47.15 16.25 50.0 16.25 52.65 15.6 52.45 15.6 46.95 15.3 45.25 15.2 44.7 M16.6 45.0 L17.0 48.35 16.85 52.8 16.6 52.7 16.3 46.55 16.45 45.0 16.6 45.0 M20.1 45.45 L20.15 45.35 20.4 45.35 21.25 49.25 21.35 52.45 21.35 53.4 20.7 53.35 20.7 53.75 20.7 52.8 20.4 48.25 20.05 45.65 20.1 45.45 M18.5 45.4 L18.6 52.35 18.6 53.1 17.95 53.0 17.95 52.3 18.3 45.4 18.5 45.4 M14.95 44.7 Q15.4 46.0 15.2 48.8 L15.1 52.3 Q13.6 51.8 13.5 51.2 L13.5 44.7 14.95 44.7 M32.35 44.7 L32.65 44.7 33.05 50.35 33.3 54.15 33.25 53.65 32.55 53.7 32.55 53.65 32.25 47.8 32.35 44.55 32.35 44.7 M26.8 46.4 L27.0 52.05 27.0 53.75 26.2 53.75 26.25 52.65 26.65 46.4 26.8 46.4" fill="#ffcc33" fill-rule="evenodd" stroke="none"/>
    <path d="M39.6 43.0 Q44.05 43.75 44.05 44.85 44.05 45.9 39.6 46.65 L28.8 47.45 17.95 46.65 Q13.5 45.9 13.5 44.85 13.5 43.75 17.95 43.0 L28.8 42.2 39.6 43.0" fill="#ffcc33" fill-rule="evenodd" stroke="none"/>
    <path d="M45.8 42.45 Q45.75 43.55 41.3 44.3 L30.5 45.05 19.7 44.3 Q15.3 43.55 15.25 42.45 L15.25 36.0 45.8 36.0 45.8 42.45" fill="#e5af0c" fill-rule="evenodd" stroke="none"/>
    <path d="M43.3 36.0 L43.65 38.5 44.1 43.25 44.1 43.65 43.45 43.85 43.05 38.6 42.95 37.55 42.65 44.0 42.3 44.1 42.55 36.0 43.3 36.0 M45.8 36.0 L45.8 42.45 45.8 42.5 45.25 43.15 45.15 40.8 45.05 38.7 45.0 40.5 45.2 42.75 45.25 43.15 44.45 43.55 44.2 42.3 44.15 40.3 44.1 38.2 Q44.15 36.7 44.65 36.0 L45.8 36.0 M40.45 36.0 L40.4 36.35 40.7 40.7 41.05 44.35 40.4 44.45 40.2 42.15 39.85 37.85 Q39.85 36.35 40.4 36.0 L40.45 36.0 M39.1 36.0 L39.0 36.5 39.15 39.15 39.35 44.95 39.3 44.6 38.7 44.65 38.5 41.75 38.45 39.0 Q38.5 36.8 38.95 36.0 L39.1 36.0 M16.9 36.0 L17.35 36.0 17.85 38.45 17.95 41.3 17.95 43.95 17.3 43.75 17.3 38.25 17.0 36.55 16.9 36.0 M18.3 36.3 L18.7 39.65 18.55 44.1 18.3 44.0 18.0 37.85 18.15 36.3 18.3 36.3 M21.8 36.75 L21.85 36.65 22.1 36.65 22.95 40.55 23.05 43.75 23.05 44.7 22.4 44.65 22.4 45.05 22.4 44.1 22.1 39.55 21.75 36.95 21.8 36.75 M20.2 36.7 L20.3 43.65 20.3 44.4 19.65 44.3 19.65 43.6 20.0 36.7 20.2 36.7 M16.65 36.0 Q17.1 37.3 16.9 40.1 L16.8 43.6 Q15.3 43.1 15.2 42.5 L15.2 36.0 16.65 36.0 M28.5 37.7 L28.7 43.35 28.7 45.05 27.9 45.05 27.95 43.95 28.35 37.7 28.5 37.7 M34.05 36.0 L34.35 36.0 34.75 41.65 35.0 45.45 34.95 44.95 34.25 45.0 34.25 44.95 33.95 39.1 34.05 35.85 34.05 36.0" fill="#ffcc33" fill-rule="evenodd" stroke="none"/>
    <path d="M41.3 34.3 Q45.75 35.05 45.75 36.15 45.75 37.2 41.3 37.95 L30.5 38.75 19.65 37.95 Q15.2 37.2 15.2 36.15 15.2 35.05 19.65 34.3 L30.5 33.5 41.3 34.3" fill="#ffcc33" fill-rule="evenodd" stroke="none"/>
    <path d="M43.35 32.3 Q43.3 33.4 38.85 34.15 L28.05 34.9 17.25 34.15 Q12.85 33.4 12.8 32.3 L12.8 25.85 43.35 25.85 43.35 32.3" fill="#e5af0c" fill-rule="evenodd" stroke="none"/>
    <path d="M38.05 25.85 L38.0 26.2 38.3 30.55 38.65 34.2 38.0 34.3 37.8 32.0 37.45 27.7 Q37.45 26.2 38.0 25.85 L38.05 25.85 M43.4 25.85 L43.4 32.3 43.4 32.35 42.85 33.0 42.75 30.65 42.65 28.55 42.6 30.35 42.8 32.6 42.85 33.0 42.05 33.4 41.8 32.15 41.75 30.15 41.7 28.05 Q41.75 26.55 42.25 25.85 L43.4 25.85 M40.9 25.85 L41.25 28.35 41.7 33.1 41.7 33.5 41.05 33.7 40.65 28.45 40.55 27.4 40.25 33.85 39.9 33.95 40.15 25.85 40.9 25.85 M36.7 25.85 L36.6 26.35 36.75 29.0 36.95 34.8 36.9 34.45 36.3 34.5 36.1 31.6 36.05 28.85 Q36.1 26.65 36.55 25.85 L36.7 25.85 M14.5 25.85 L14.95 25.85 15.45 28.3 15.55 31.15 15.55 33.8 14.9 33.6 14.9 28.1 14.6 26.4 14.5 25.85 M15.9 26.15 L16.3 29.5 16.15 33.95 15.9 33.85 15.6 27.7 15.75 26.15 15.9 26.15 M19.4 26.6 L19.45 26.5 19.7 26.5 20.55 30.4 20.65 33.6 20.65 34.55 20.0 34.5 20.0 34.9 20.0 33.95 19.7 29.4 19.35 26.8 19.4 26.6 M17.8 26.55 L17.9 33.5 17.9 34.25 17.25 34.15 17.25 33.45 17.6 26.55 17.8 26.55 M14.25 25.85 Q14.7 27.15 14.5 29.95 L14.4 33.45 Q12.9 32.95 12.8 32.35 L12.8 25.85 14.25 25.85 M31.65 25.85 L31.95 25.85 32.35 31.5 32.6 35.3 32.55 34.8 31.85 34.85 31.85 34.8 31.55 28.95 31.65 25.7 31.65 25.85 M26.1 27.55 L26.3 33.2 26.3 34.9 25.5 34.9 25.55 33.8 25.95 27.55 26.1 27.55" fill="#ffcc33" fill-rule="evenodd" stroke="none"/>
    <path d="M38.85 24.15 Q43.3 24.9 43.3 26.0 43.3 27.05 38.85 27.8 L28.05 28.6 17.2 27.8 Q12.75 27.05 12.75 26.0 12.75 24.9 17.2 24.15 L28.05 23.35 38.85 24.15" fill="#ffcc33" fill-rule="evenodd" stroke="none"/>
  </g>
</svg>
