<?xml version="1.0" encoding="UTF-8" standalone="no"?>
<svg xmlns:xlink="http://www.w3.org/1999/xlink" height="30.7px" width="76.15px" xmlns="http://www.w3.org/2000/svg">
  <g transform="matrix(1.0, 0.0, 0.0, 1.0, 0.0, 35.6)">
    <path d="M37.35 -28.3 L43.35 -22.9 Q46.55 -20.45 49.1 -20.4 50.8 -20.4 54.75 -23.95 58.7 -27.55 63.4 -27.55 69.0 -27.55 73.1 -19.3 75.2 -15.2 76.15 -11.05 69.25 -7.35 55.35 -5.8 43.15 -4.5 27.55 -5.05 14.05 -5.5 6.45 -7.85 -0.4 -10.0 0.0 -12.65 1.3 -21.55 7.2 -28.25 13.35 -35.2 20.95 -35.6 28.9 -35.95 37.35 -28.3" fill="url(#gradient0)" fill-rule="evenodd" stroke="none"/>
  </g>
  <defs>
    <linearGradient gradientTransform="matrix(-6.0E-4, -0.018, 0.0224, -5.0E-4, 38.1, -24.1)" gradientUnits="userSpaceOnUse" id="gradient0" spreadMethod="pad" x1="-819.2" x2="819.2">
      <stop offset="0.0" stop-color="#87ab32"/>
      <stop offset="1.0" stop-color="#aec96e"/>
      <stop offset="1.0" stop-color="#000000"/>
    </linearGradient>
  </defs>
</svg>
