<?xml version="1.0" encoding="UTF-8" standalone="no"?>
<svg xmlns:xlink="http://www.w3.org/1999/xlink" height="144.65px" width="354.2px" xmlns="http://www.w3.org/2000/svg">
  <g transform="matrix(1.0, 0.0, 0.0, 1.0, -65.1, -41.5)">
    <path d="M377.35 127.25 L377.2 128.6 Q377.15 129.4 378.1 129.9 L378.15 131.1 378.1 139.8 Q377.65 140.55 377.65 141.0 L378.1 142.1 377.35 142.1 377.35 148.35 377.65 148.35 377.75 149.95 378.1 150.8 378.1 153.65 Q377.6 154.3 377.1 156.0 376.5 157.75 376.5 158.75 376.5 159.3 377.3 160.45 L378.1 162.1 378.1 166.7 377.85 167.55 376.9 170.0 376.9 172.05 378.1 172.1 378.1 174.4 Q377.45 175.15 376.85 176.7 376.05 178.55 376.05 179.65 L376.1 180.05 330.4 180.05 330.4 179.75 318.15 180.05 295.6 180.05 295.6 179.75 291.15 179.75 291.1 179.9 289.95 179.9 290.0 180.05 265.7 180.05 265.05 179.85 265.05 178.95 264.6 178.95 264.6 178.55 260.15 178.55 259.85 178.65 259.35 178.75 259.35 179.35 258.9 179.35 258.65 179.5 258.1 179.7 258.1 179.75 251.4 179.8 249.9 179.9 249.9 180.05 210.1 180.05 209.9 180.0 209.5 179.85 206.25 179.8 206.25 179.2 201.75 179.2 201.75 179.6 199.3 179.6 197.5 180.05 91.5 180.05 91.1 179.85 91.1 179.25 Q89.9 178.75 89.4 178.15 L89.4 174.15 89.9 174.15 89.9 166.95 89.4 166.25 89.4 162.8 Q89.6 161.5 89.9 160.8 L89.9 157.6 90.25 157.6 90.25 155.15 Q89.9 154.9 89.9 154.3 L89.4 154.3 89.4 153.95 90.7 153.95 90.7 152.95 90.05 152.05 89.9 151.35 89.95 150.65 90.25 149.8 90.25 143.2 89.4 143.2 89.4 142.85 90.25 142.85 90.25 138.85 89.4 137.35 89.4 134.85 89.9 134.85 Q89.9 134.45 90.25 134.2 L90.25 131.0 Q90.3 130.55 90.7 130.3 L90.7 127.25 Q90.4 126.65 90.3 125.55 L92.25 124.8 95.55 124.8 95.55 125.0 107.45 125.0 112.3 124.9 114.8 124.8 117.65 124.8 117.65 125.0 124.65 125.0 136.0 125.05 143.8 125.15 152.35 125.2 157.0 124.95 162.1 124.8 255.2 124.8 255.2 125.1 264.2 125.15 265.4 125.05 284.15 125.0 284.15 124.8 302.95 124.8 302.95 125.1 311.15 125.15 315.0 125.05 318.5 124.95 340.55 124.95 342.85 124.85 345.3 124.85 359.3 124.85 359.3 125.1 363.4 125.15 366.15 125.0 374.8 124.95 374.8 125.3 376.35 125.35 378.1 125.35 378.1 127.25 377.35 127.25" fill="#000000" fill-opacity="0.3019608" fill-rule="evenodd" stroke="none"/>
    <path d="M364.75 123.4 L367.55 123.35 376.2 123.25 376.2 123.6 377.75 123.65 379.5 123.65 379.5 125.5 378.75 125.5 378.6 126.85 Q378.55 127.65 379.5 128.1 L379.55 129.3 379.5 137.85 Q379.05 138.55 379.05 139.0 L379.5 140.15 378.75 140.15 378.75 146.2 379.05 146.2 379.15 147.8 379.5 148.65 379.5 151.4 Q379.0 152.1 378.45 153.75 377.9 155.5 377.9 156.5 L378.7 158.15 379.5 159.75 379.5 164.2 379.25 165.15 378.25 167.5 378.25 169.5 379.5 169.55 379.5 171.85 Q378.85 172.6 378.25 174.05 377.45 175.95 377.45 176.95 L377.5 177.35 331.8 177.35 331.8 177.15 319.55 177.35 297.0 177.35 297.0 177.15 292.55 177.1 292.5 177.3 291.3 177.3 291.4 177.35 267.1 177.35 266.4 177.2 266.4 176.2 266.0 176.2 266.0 175.95 261.55 175.9 261.2 176.0 260.7 176.1 260.7 176.65 260.3 176.65 260.05 176.85 259.5 177.0 259.5 177.15 252.8 177.15 251.3 177.3 251.3 177.35 211.45 177.35 211.3 177.3 210.9 177.2 207.6 177.2 207.6 176.5 203.15 176.5 203.15 176.9 200.7 176.9 198.9 177.35 92.9 177.35 92.5 177.2 92.5 176.6 Q91.25 176.1 90.75 175.5 L90.75 171.55 91.25 171.55 91.25 164.55 90.75 163.8 90.75 160.4 91.25 158.45 91.25 155.35 91.65 155.35 91.65 152.9 Q91.25 152.65 91.25 152.15 L90.75 152.15 90.75 151.75 92.05 151.75 92.05 150.75 91.4 149.85 91.25 149.15 91.35 148.5 91.65 147.65 91.65 141.2 90.75 141.2 90.75 140.85 91.65 140.85 91.65 136.9 90.75 135.4 90.75 132.95 91.25 132.95 Q91.25 132.6 91.65 132.35 L91.65 129.2 Q91.7 128.75 92.05 128.55 L92.05 125.5 Q91.75 124.9 91.7 123.85 92.65 123.4 93.65 123.1 L96.95 123.1 96.95 123.3 108.85 123.35 113.7 123.2 116.2 123.1 119.05 123.1 119.05 123.3 126.0 123.3 137.4 123.35 145.15 123.45 153.75 123.5 158.4 123.3 163.5 123.1 256.55 123.1 256.55 123.4 285.55 123.35 285.55 123.1 304.3 123.1 304.3 123.4 312.5 123.4 316.4 123.35 319.85 123.25 341.9 123.25 344.2 123.2 346.7 123.15 360.7 123.15 360.7 123.4 364.75 123.4" fill="#ce9d46" fill-rule="evenodd" stroke="none"/>
    <path d="M382.4 134.95 L382.6 135.65 381.55 136.6 378.75 137.05 375.75 136.65 375.65 136.25 379.95 135.5 382.4 134.95 M381.95 140.35 L381.1 140.45 378.65 140.2 376.75 139.75 379.35 139.2 Q380.95 139.05 382.0 139.2 L382.2 139.85 381.95 140.35 M362.1 120.0 L362.7 120.2 Q362.9 120.3 362.9 121.0 L362.25 123.15 361.25 125.2 360.75 125.35 360.4 124.4 360.3 123.3 Q360.3 122.6 360.9 121.5 361.45 120.5 362.1 120.0 M342.7 175.7 L343.65 175.7 344.05 178.6 344.8 181.65 344.55 182.2 343.7 182.5 342.95 182.4 342.9 182.3 342.35 179.0 342.05 176.4 Q342.05 175.8 342.35 175.75 L342.7 175.7 M363.4 176.75 L364.0 179.25 364.0 184.35 363.2 185.05 Q362.3 184.6 362.1 183.75 L362.05 182.5 Q361.95 181.1 362.1 179.85 362.4 177.3 363.4 176.75 M380.85 169.95 Q380.8 170.75 380.1 171.05 L378.2 169.95 376.65 168.9 Q377.45 167.55 378.95 168.2 380.05 168.75 380.85 169.95 M228.8 118.95 L229.3 119.25 Q229.5 119.45 229.5 120.15 229.5 121.3 227.05 126.4 L226.35 126.4 226.25 125.15 Q226.25 124.45 227.3 121.8 228.4 119.25 228.8 118.95 M224.75 126.4 L224.7 126.45 224.05 126.45 224.05 126.4 224.75 126.4 M192.5 118.6 L194.15 125.2 Q193.9 125.9 193.45 126.1 L192.4 123.5 191.6 120.6 Q191.6 118.95 192.5 118.6 M201.85 122.65 L202.4 125.0 201.75 125.65 Q200.95 124.8 200.45 123.4 200.0 122.15 200.0 121.15 200.0 120.55 200.3 120.5 L200.6 120.5 Q201.55 121.25 201.85 122.65 M317.3 119.8 L317.7 119.8 318.45 121.45 319.0 123.1 318.9 123.6 318.45 124.1 Q318.0 123.7 317.65 122.65 317.2 121.55 317.2 120.75 L317.3 119.9 317.3 119.8 M303.15 120.4 Q303.15 119.75 303.55 119.55 L304.05 119.5 Q305.45 120.8 305.95 124.55 L305.95 124.6 304.35 124.6 303.8 123.05 303.15 120.4 M302.05 124.6 L303.65 124.6 303.5 125.3 302.75 125.55 Q302.45 125.55 302.05 124.6 M270.55 124.2 Q269.7 123.7 269.4 122.3 L268.8 119.9 269.0 119.6 Q269.4 119.8 270.2 121.45 271.0 123.1 271.0 123.7 L270.9 124.25 270.55 124.2 M323.65 174.35 Q324.05 175.1 324.05 176.7 L323.9 179.45 Q323.6 181.05 322.65 181.85 L322.25 181.65 Q322.1 181.5 322.1 180.8 322.1 179.45 322.65 177.0 323.3 174.55 323.65 174.35 M310.35 175.6 L310.95 175.3 Q311.8 176.1 312.2 178.2 312.7 180.65 313.15 181.55 L312.95 182.05 312.1 182.35 Q311.3 182.35 310.15 176.6 310.15 175.85 310.35 175.6 M304.8 174.35 L305.15 178.65 305.35 182.9 304.65 183.5 304.1 183.25 Q303.95 183.1 303.95 182.35 L303.8 177.8 Q303.85 175.1 304.8 174.35 M154.85 118.6 L155.0 118.35 155.6 118.35 Q156.5 119.2 156.45 121.3 156.35 123.75 156.7 124.35 L156.3 124.6 155.5 124.6 Q154.85 121.4 154.85 119.4 L154.85 118.6 M142.5 120.95 L142.1 124.1 141.35 124.2 141.2 123.9 141.15 123.1 141.45 121.4 141.7 119.7 142.3 119.7 142.45 120.05 142.5 120.95 M153.25 124.75 L153.2 124.6 154.0 124.6 153.25 124.75 M117.0 120.3 Q117.0 122.75 116.6 125.05 L116.3 125.25 115.75 125.6 115.0 124.95 Q114.85 124.7 114.85 123.95 114.85 118.15 116.15 116.95 L116.8 118.75 117.0 120.3 M93.15 130.4 L93.45 131.1 92.95 131.6 91.85 131.9 89.4 131.75 87.35 131.35 Q89.55 129.25 93.15 130.4 M89.05 163.1 Q89.05 162.35 90.55 161.95 92.05 161.6 93.1 161.95 L93.3 162.6 93.1 163.45 91.7 163.6 90.05 163.95 89.25 163.9 Q89.05 163.8 89.05 163.1 M87.5 170.0 Q89.4 167.7 90.15 167.65 90.75 167.65 92.9 168.9 L93.1 169.5 92.05 170.5 88.9 170.5 87.5 170.0 M99.65 177.3 Q103.15 175.15 104.5 175.55 L104.65 175.5 104.7 176.25 96.8 180.5 96.0 180.0 Q96.5 179.2 99.65 177.3 M124.7 177.1 L124.85 178.0 Q124.85 179.25 124.15 181.65 L123.15 185.15 Q122.95 185.4 122.55 185.45 L121.9 185.3 121.8 184.45 Q121.8 183.6 122.6 180.6 123.55 177.3 124.15 176.75 124.6 176.9 124.7 177.1 M147.95 178.15 L148.15 177.8 Q149.65 178.6 150.35 181.9 L150.7 183.9 150.75 185.05 150.7 185.8 150.6 185.9 150.05 186.15 Q149.1 184.95 148.65 182.45 L147.95 178.15" fill="#a88335" fill-rule="evenodd" stroke="none"/>
    <path d="M413.5 93.35 Q412.5 95.0 412.5 98.35 L412.55 99.45 411.8 103.6 409.2 103.2 Q407.3 103.25 405.95 104.65 404.95 105.5 404.6 106.8 L399.7 106.05 390.85 106.55 Q388.4 107.15 387.45 108.35 L337.5 108.35 Q336.6 107.6 335.1 107.0 L283.8 106.9 266.8 108.35 238.9 108.35 234.65 107.9 223.25 106.65 Q215.95 107.15 211.35 106.7 208.9 106.8 207.65 108.35 L178.55 108.35 Q177.95 107.7 177.0 107.2 175.85 106.65 174.1 106.35 L163.75 107.2 157.65 107.15 156.25 107.05 Q152.1 107.6 150.1 108.35 L121.2 108.35 Q120.25 107.3 118.3 106.75 L109.7 106.7 106.4 106.6 93.15 108.35 92.95 108.35 86.9 108.05 80.75 107.6 Q77.5 107.6 75.75 108.35 L68.25 108.35 Q67.95 105.25 66.65 102.65 L65.45 100.5 65.45 97.95 66.25 95.7 66.3 90.95 Q66.3 87.8 65.9 85.1 L65.45 81.8 65.45 70.75 Q65.95 69.65 65.95 68.55 L65.55 59.4 65.45 57.25 65.45 56.25 65.55 56.1 65.55 55.75 Q65.55 54.3 66.3 53.6 L67.1 53.1 68.0 51.55 69.2 49.7 72.0 49.5 72.2 49.5 73.7 48.75 78.05 48.75 83.85 48.5 104.9 48.35 111.9 48.2 169.85 48.2 172.4 48.6 172.6 48.75 216.5 48.75 216.95 49.25 217.3 49.45 241.85 49.45 252.95 50.25 253.9 50.25 254.35 49.7 259.45 50.2 Q265.5 50.2 272.15 48.75 L309.6 48.75 313.75 49.75 Q315.9 49.65 320.1 49.85 L327.65 49.85 329.1 49.65 337.4 49.45 337.75 49.35 350.45 49.35 351.0 49.65 351.7 49.45 362.7 49.35 364.1 48.75 406.15 48.75 407.65 50.4 Q410.4 53.1 413.5 53.6 L413.5 75.9 413.45 75.95 Q412.1 77.15 412.1 79.3 412.1 81.45 412.95 84.4 L413.5 86.2 413.5 93.35" fill="#000000" fill-opacity="0.4" fill-rule="evenodd" stroke="none"/>
    <path d="M408.55 46.35 L410.05 48.0 Q412.8 50.7 415.9 51.2 L415.9 73.5 415.85 73.55 Q414.5 74.75 414.5 76.9 414.5 79.05 415.35 82.0 L415.9 83.8 415.9 90.95 Q414.9 92.6 414.9 95.95 L414.95 97.05 414.2 101.2 411.6 100.8 Q409.7 100.85 408.35 102.25 407.35 103.1 407.0 104.4 L402.1 103.65 393.25 104.15 Q390.8 104.75 389.85 105.95 L339.9 105.95 Q339.0 105.2 337.5 104.6 L286.2 104.5 269.2 105.95 241.3 105.95 237.05 105.5 225.65 104.25 Q218.35 104.75 213.75 104.3 211.3 104.4 210.05 105.95 L180.95 105.95 179.4 104.8 176.5 103.95 166.15 104.8 160.05 104.75 158.65 104.65 Q154.5 105.2 152.5 105.95 L123.6 105.95 Q122.65 104.9 120.7 104.35 L112.1 104.3 108.8 104.2 95.55 105.95 95.35 105.95 89.3 105.65 83.15 105.2 Q79.9 105.2 78.15 105.95 L70.65 105.95 Q70.35 102.85 69.05 100.25 L67.85 98.1 67.85 95.55 68.65 93.3 68.7 88.55 Q68.7 85.4 68.3 82.7 L67.85 79.4 67.85 68.35 Q68.35 67.25 68.35 66.15 L67.95 57.0 67.85 54.85 67.85 53.85 67.95 53.7 67.95 53.35 Q67.95 51.9 68.7 51.2 L69.5 50.7 70.4 49.15 71.6 47.3 74.4 47.1 74.6 47.1 76.1 46.35 80.45 46.35 86.25 46.1 107.3 45.95 114.3 45.8 172.25 45.8 174.8 46.2 175.0 46.35 218.9 46.35 219.35 46.85 219.7 47.05 244.25 47.05 255.35 47.85 256.3 47.85 256.75 47.3 261.85 47.8 Q267.9 47.8 274.55 46.35 L312.0 46.35 316.15 47.35 Q318.3 47.25 322.5 47.45 L330.05 47.45 331.5 47.25 339.8 47.05 340.15 46.95 352.85 46.95 353.4 47.25 354.1 47.05 365.1 46.95 366.5 46.35 408.55 46.35" fill="#d24814" fill-rule="evenodd" stroke="none"/>
    <path d="M411.1 44.05 Q411.1 44.55 409.4 47.1 L406.65 50.4 Q406.05 50.15 406.05 49.55 406.05 49.25 407.8 45.5 408.4 44.1 409.65 43.05 411.1 41.8 411.1 44.05 M418.8 74.15 Q418.8 75.9 411.35 75.9 410.65 75.9 410.45 75.45 L410.4 74.95 Q410.4 73.4 414.6 73.05 418.8 72.7 418.8 74.15 M412.5 95.4 L412.15 95.3 Q411.6 95.1 411.6 94.45 411.6 93.3 415.45 93.2 419.3 93.05 419.3 94.65 419.3 95.2 418.9 95.5 L418.1 95.8 417.75 95.8 414.9 95.95 412.55 95.8 412.5 95.4 M377.1 47.85 Q377.1 49.55 376.05 49.55 375.3 49.55 374.8 46.45 L374.45 43.4 Q374.45 41.9 374.85 41.55 375.35 41.1 376.55 43.65 L376.85 45.65 377.1 47.85 M381.35 43.95 Q381.85 44.4 382.0 45.65 L382.25 47.55 Q382.25 48.9 381.2 48.9 380.4 48.9 379.95 46.7 L379.65 44.45 Q379.65 41.85 380.95 43.55 L381.15 43.85 381.35 43.95 M327.15 44.0 Q328.3 45.7 328.3 51.05 L328.05 51.75 Q327.75 52.1 327.3 52.1 L326.7 51.75 Q326.15 51.55 326.0 50.6 L326.0 49.5 326.0 48.75 326.0 48.35 Q326.0 42.25 327.15 44.0 M404.65 106.1 L404.4 106.1 Q403.5 106.1 403.2 104.25 L403.05 102.3 Q403.05 97.35 404.25 98.9 405.35 100.4 405.4 104.5 L405.6 105.5 405.55 105.95 404.95 106.2 404.65 106.1 M392.85 102.4 Q393.25 104.8 393.25 106.15 L393.15 107.3 392.8 107.85 392.75 107.95 392.4 108.05 392.15 108.05 Q391.2 108.05 390.8 105.25 L390.6 102.45 Q390.6 101.35 391.7 100.55 392.8 99.7 392.85 102.4 M365.25 103.55 Q365.25 100.8 366.7 102.95 368.15 105.1 368.15 107.35 L367.95 108.25 Q367.65 108.95 367.0 108.95 366.25 108.95 365.65 106.15 L365.25 103.55 M360.5 102.4 Q359.45 109.3 358.05 109.3 357.25 109.3 357.0 108.65 L356.9 108.0 Q356.9 105.85 358.7 102.3 360.5 98.75 360.5 102.4 M406.55 100.45 Q406.55 96.9 408.3 100.05 410.0 103.2 410.0 104.5 410.1 105.9 408.85 105.9 L408.75 105.9 408.6 105.9 408.45 105.8 Q407.55 105.4 407.0 103.15 L406.55 100.45 M294.2 44.6 Q292.9 49.1 292.1 49.1 291.35 49.1 291.15 48.45 L291.1 47.7 Q291.1 46.05 292.65 44.1 294.2 42.15 294.2 44.6 M267.7 44.3 Q267.7 41.45 269.45 44.1 L270.05 44.85 270.95 47.0 Q271.35 48.1 271.35 48.95 271.35 50.45 270.25 50.45 269.45 50.45 268.5 47.35 L267.7 44.3 M213.25 42.95 Q213.25 39.95 214.85 43.1 216.4 46.2 216.4 48.8 216.4 50.15 215.35 50.15 214.9 50.15 214.5 49.4 214.15 49.2 213.95 47.8 L213.9 47.5 213.7 46.45 213.25 42.95 M198.15 44.5 Q197.4 49.35 196.45 49.35 195.75 49.35 195.5 48.85 L195.4 48.25 Q195.4 45.95 196.8 43.8 198.15 41.65 198.15 44.5 M195.7 103.95 L196.15 105.85 196.5 108.3 196.25 109.05 Q195.95 109.5 195.4 109.5 195.15 109.5 194.9 109.2 L194.55 108.6 194.15 107.2 193.8 104.8 193.35 101.85 Q193.35 99.7 194.4 100.55 195.5 101.4 195.7 103.95 M317.9 101.15 Q317.9 97.9 319.75 101.5 321.55 105.15 321.55 106.2 321.55 107.3 320.35 107.3 L320.25 107.3 319.9 107.35 Q319.2 107.35 318.8 105.55 L318.65 104.75 318.5 104.2 317.9 101.15 M263.6 101.65 Q264.85 101.45 264.85 106.95 264.85 109.55 263.5 109.55 262.6 109.55 262.4 108.9 L262.35 108.15 Q262.35 101.8 263.6 101.65 M143.6 49.1 Q142.75 49.1 142.1 46.5 L141.6 43.95 Q141.6 41.15 143.2 43.45 144.75 45.75 144.75 47.9 L144.55 48.6 Q144.25 49.1 143.6 49.1 M149.0 47.2 L149.1 45.15 Q149.15 44.0 149.5 43.55 L150.05 42.9 Q151.1 42.25 151.1 46.0 150.95 48.9 149.95 48.9 149.15 48.9 149.0 48.1 L149.0 47.2 M85.2 43.75 Q85.2 40.85 86.5 43.45 L86.5 43.4 Q87.05 44.1 87.3 45.3 87.9 47.1 87.9 48.75 L87.7 49.35 Q87.4 49.8 86.7 49.8 85.85 49.8 85.45 46.75 L85.2 43.75 M89.2 44.2 L89.3 43.6 Q89.55 41.6 90.2 41.95 91.25 42.45 91.25 47.75 91.25 48.7 90.2 48.7 89.35 48.7 89.15 47.85 L89.15 47.1 89.25 44.5 89.2 44.2 M73.55 48.35 L73.7 48.7 73.55 49.05 73.25 49.2 72.65 48.95 72.6 48.95 Q71.65 48.95 71.0 46.5 L70.5 44.15 Q70.5 40.65 72.05 43.95 L73.6 47.95 73.55 48.35 M72.2 52.85 L71.9 53.7 Q71.55 54.1 70.9 54.1 69.4 54.1 67.1 52.4 L65.1 50.65 Q65.1 48.95 68.65 50.45 72.2 51.9 72.2 52.85 M70.2 78.25 Q70.0 79.3 66.95 79.3 65.75 79.3 65.5 78.95 66.2 77.8 68.1 77.7 L70.05 77.9 70.1 77.85 70.2 78.25 M67.95 89.85 L70.35 89.7 Q71.1 89.7 71.1 90.35 71.1 90.95 70.7 91.05 L69.55 91.15 67.95 91.05 67.6 90.55 Q67.7 89.95 67.95 89.85 M67.2 87.2 Q67.2 86.65 68.9 86.3 L71.15 86.5 Q70.6 87.45 69.2 87.7 L67.6 87.9 Q67.2 87.75 67.2 87.2 M154.3 100.5 Q154.95 99.8 156.15 102.6 L156.5 104.75 156.85 107.2 Q156.7 108.35 155.7 108.35 154.75 108.35 154.2 105.4 L153.8 102.65 Q153.8 101.0 154.3 100.5 M118.9 105.1 Q118.9 99.3 120.1 99.4 121.3 99.45 121.3 105.1 L121.3 106.75 Q121.1 108.0 120.1 108.0 119.1 108.0 118.9 106.6 L118.9 105.1" fill="#96330e" fill-rule="evenodd" stroke="none"/>
  </g>
</svg>
