<?xml version="1.0" encoding="UTF-8" standalone="no"?>
<svg xmlns:xlink="http://www.w3.org/1999/xlink" height="15.85px" width="11.85px" xmlns="http://www.w3.org/2000/svg">
  <g transform="matrix(1.0, 0.0, 0.0, 1.0, 1.0, 1.0)">
    <path d="M3.8 0.0 Q5.8 0.0 7.5 2.05 9.25 4.05 9.7 6.95 10.15 9.8 9.1 11.8 8.0 13.85 6.0 13.85 4.05 13.85 2.35 11.8 0.6 9.8 0.15 6.95 -0.3 4.05 0.75 2.05 1.85 0.0 3.8 0.0" fill="#0f1015" fill-rule="evenodd" stroke="none"/>
    <path d="M3.8 0.0 Q5.8 0.0 7.5 2.05 9.25 4.05 9.7 6.95 10.15 9.8 9.1 11.8 8.0 13.85 6.0 13.85 4.05 13.85 2.35 11.8 0.6 9.8 0.15 6.95 -0.3 4.05 0.75 2.05 1.85 0.0 3.8 0.0 Z" fill="none" stroke="#000000" stroke-linecap="round" stroke-linejoin="round" stroke-width="2.0"/>
    <path d="M3.8 0.0 Q5.8 0.0 7.5 2.05 9.25 4.05 9.7 6.95 10.15 9.8 9.1 11.8 8.0 13.85 6.0 13.85 4.05 13.85 2.35 11.8 0.6 9.8 0.15 6.95 -0.3 4.05 0.75 2.05 1.85 0.0 3.8 0.0" fill="#1a1c23" fill-rule="evenodd" stroke="none"/>
    <path d="M5.9 1.95 Q7.0 1.95 7.95 3.3 9.0 4.7 9.3 6.65 9.6 8.55 9.05 9.95 8.5 11.3 7.4 11.3 6.35 11.3 5.4 9.95 4.35 8.55 4.05 6.65 3.75 4.7 4.3 3.3 4.85 1.95 5.9 1.95" fill="#000000" fill-rule="evenodd" stroke="none"/>
    <path d="M1.55 2.35 Q2.4 0.65 3.9 0.35 2.7 1.95 2.1 4.1 1.05 7.75 2.25 10.9 1.3 9.25 0.95 7.2 0.5 4.35 1.55 2.35" fill="#7e7f8c" fill-rule="evenodd" stroke="none"/>
  </g>
</svg>
