<?xml version="1.0" encoding="UTF-8" standalone="no"?>
<svg xmlns:xlink="http://www.w3.org/1999/xlink" height="22.95px" width="10.65px" xmlns="http://www.w3.org/2000/svg">
  <g transform="matrix(1.0, 0.0, 0.0, 1.0, 0.35, 0.35)">
    <path d="M2.35 17.1 L1.1 16.05 0.0 15.85 0.1 14.25 0.6 14.0 0.6 13.0 1.75 13.0 1.65 12.1 2.65 11.5 2.8 13.35 2.75 13.4 3.0 13.65 3.15 13.25 3.25 13.3 5.05 14.25 4.5 15.15 4.05 15.0 4.3 16.4 Q3.35 17.1 2.35 17.1 M1.75 13.0 L1.85 13.95 2.75 13.4 1.85 13.95 1.75 13.0 M3.0 13.65 L2.65 14.55 4.05 15.0 2.65 14.55 3.0 13.65" fill="#c07714" fill-rule="evenodd" stroke="none"/>
    <path d="M4.3 16.4 L4.65 16.1 6.6 19.6 9.5 18.4 9.95 18.65 9.95 21.05 5.4 22.25 Q2.8 19.25 1.3 16.95 L2.35 17.1 Q3.35 17.1 4.3 16.4" fill="#3f3f3f" fill-rule="evenodd" stroke="none"/>
    <path d="M2.35 17.1 L1.1 16.05 0.0 15.85 0.1 14.25 0.6 14.0 0.6 13.0 1.75 13.0 1.65 12.1 2.65 11.5 2.8 13.35 2.75 13.4 1.85 13.95 1.75 13.0 M3.0 13.65 L3.15 13.25 3.25 13.3 5.05 14.25 4.5 15.15 4.05 15.0 4.3 16.4 4.65 16.1 6.6 19.6 9.5 18.4 9.95 18.65 M9.95 21.05 L5.4 22.25 Q2.8 19.25 1.3 16.95 L2.35 17.1 Q3.35 17.1 4.3 16.4 M4.05 15.0 L2.65 14.55 3.0 13.65" fill="none" stroke="#000000" stroke-linecap="round" stroke-linejoin="round" stroke-width="0.7000000000000001"/>
    <path d="M3.25 13.3 L6.05 0.0" fill="none" stroke="#ffffff" stroke-linecap="round" stroke-linejoin="round" stroke-width="0.7000000000000001"/>
  </g>
</svg>
