<?xml version="1.0" encoding="UTF-8" standalone="no"?>
<svg xmlns:xlink="http://www.w3.org/1999/xlink" height="85.75px" width="50.25px" xmlns="http://www.w3.org/2000/svg">
  <g transform="matrix(1.0, 0.0, 0.0, 1.0, 17.75, 44.25)">
    <path d="M17.9 -10.35 Q18.7 0.35 23.15 10.25 25.4 15.2 27.5 18.0 L9.15 36.5 -5.6 34.55 7.4 23.45 -4.0 31.55 -12.75 29.35 -1.85 22.45 -9.35 26.0 -12.0 23.25 3.4 14.25 Q2.9 6.0 3.8 -10.35 4.35 -20.55 7.2 -30.95 L9.9 -39.25 19.4 -38.25 18.2 -30.75 Q17.1 -21.05 17.9 -10.35" fill="#103561" fill-rule="evenodd" stroke="none"/>
    <path d="M17.9 -10.35 Q18.7 0.35 23.15 10.25 25.4 15.2 27.5 18.0 L9.15 36.5 -5.6 34.55 7.4 23.45 -4.0 31.55 -12.75 29.35 -1.85 22.45 -9.35 26.0 -12.0 23.25 3.4 14.25 Q2.9 6.0 3.8 -10.35 4.35 -20.55 7.2 -30.95 L9.9 -39.25 19.4 -38.25 18.2 -30.75 Q17.1 -21.05 17.9 -10.35 Z" fill="none" stroke="#103561" stroke-linecap="round" stroke-linejoin="round" stroke-width="10.0"/>
    <path d="M17.9 -10.35 Q18.7 0.35 23.15 10.25 25.4 15.2 27.5 18.0 L9.15 36.5 -5.6 34.55 7.4 23.45 -4.0 31.55 -12.75 29.35 -1.85 22.45 -9.35 26.0 -12.0 23.25 3.4 14.25 Q2.9 6.0 3.8 -10.35 4.35 -20.55 7.2 -30.95 L9.9 -39.25 19.4 -38.25 18.2 -30.75 Q17.1 -21.05 17.9 -10.35" fill="#137bf0" fill-rule="evenodd" stroke="none"/>
    <path d="M9.15 36.5 L-5.6 34.55 7.4 23.45 -4.0 31.55 -12.75 29.35 -1.85 22.45 -9.35 26.0 -12.0 23.25 3.4 14.25 Q3.1 9.35 3.3 1.6 12.05 5.8 20.25 2.4 21.4 6.4 23.15 10.25 25.4 15.2 27.5 18.0 L9.15 36.5" fill="#ff0000" fill-rule="evenodd" stroke="none"/>
  </g>
</svg>
