<?xml version="1.0" encoding="UTF-8" standalone="no"?>
<svg xmlns:xlink="http://www.w3.org/1999/xlink" height="24.55px" width="6.3px" xmlns="http://www.w3.org/2000/svg">
  <g transform="matrix(1.0, 0.0, 0.0, 1.0, -2.65, 18.4)">
    <path d="M5.35 -16.55 L4.7 -17.9 Q4.7 -19.05 5.9 -17.5 L7.95 -14.4 Q8.95 -12.45 8.95 -9.9 L8.9 -9.45 8.9 -9.3 Q8.9 -6.75 8.4 -5.0 L6.95 -1.5 6.7 -0.4 6.25 1.05 5.7 2.95 Q5.2 6.15 4.9 6.15 4.55 6.15 4.5 5.65 L4.5 5.15 4.5 5.05 3.1 1.35 Q2.65 -0.25 2.65 -2.35 2.65 -5.05 4.3 -8.25 5.95 -11.45 5.95 -14.3 5.95 -15.3 5.35 -16.55" fill="#ffcc00" fill-rule="evenodd" stroke="none"/>
  </g>
</svg>
