<?xml version="1.0" encoding="UTF-8" standalone="no"?>
<svg xmlns:xlink="http://www.w3.org/1999/xlink" height="42.35px" width="27.75px" xmlns="http://www.w3.org/2000/svg">
  <g transform="matrix(1.0, 0.0, 0.0, 1.0, 10.65, 51.95)">
    <path d="M13.3 -50.7 Q15.7 -49.5 15.9 -46.65 L16.8 -34.15 Q17.35 -27.8 16.9 -21.5 L16.45 -18.65 Q16.2 -15.65 14.75 -13.0 14.05 -11.65 12.9 -11.0 10.95 -8.95 8.2 -10.25 7.6 -10.55 7.3 -11.0 L6.15 -11.35 Q4.0 -11.95 2.45 -10.3 2.15 -10.0 1.85 -10.0 L-1.3 -9.95 Q-2.75 -10.6 -2.75 -11.55 L-3.3 -12.15 -4.4 -13.85 -5.3 -15.8 Q-6.6 -17.6 -7.4 -19.8 -11.55 -31.2 -10.4 -43.7 -9.9 -48.85 -5.2 -50.5 L-1.85 -51.05 5.1 -51.6 Q9.55 -52.65 13.3 -50.7 M-3.65 -15.7 L-3.45 -15.15 -3.55 -15.95 -3.65 -15.7" fill="#ff0000" fill-rule="evenodd" stroke="none"/>
  </g>
</svg>
