<?xml version="1.0" encoding="UTF-8" standalone="no"?>
<svg xmlns:xlink="http://www.w3.org/1999/xlink" height="22.5px" width="17.45px" xmlns="http://www.w3.org/2000/svg">
  <g transform="matrix(1.0, 0.0, 0.0, 1.0, 6.8, 26.55)">
    <path d="M3.2 -25.55 L3.35 -25.55 3.5 -25.55 3.55 -25.55 Q5.35 -25.55 6.9 -24.75 L7.75 -24.15 Q6.1 -24.0 4.8 -23.1 L2.95 -21.35 Q1.3 -19.4 1.0 -16.85 L0.95 -15.75 Q0.95 -12.5 3.05 -10.2 L3.4 -9.85 Q5.2 -7.85 7.7 -7.7 L8.45 -7.75 8.5 -7.75 9.65 -7.6 Q8.1 -5.95 6.2 -5.45 L4.95 -5.2 3.7 -5.05 3.0 -5.1 2.8 -5.2 2.7 -5.2 Q-0.9 -5.7 -3.3 -8.55 L-4.4 -10.15 Q-5.75 -12.45 -5.8 -15.25 L-5.8 -15.55 -5.7 -16.7 Q-5.35 -20.0 -3.1 -22.5 L-1.0 -24.3 Q0.7 -25.4 2.9 -25.55 L3.2 -25.55" fill="#ffcc00" fill-rule="evenodd" stroke="none"/>
    <path d="M3.2 -25.55 L3.35 -25.55 3.5 -25.55 3.55 -25.55 Q5.35 -25.55 6.9 -24.75 L7.75 -24.15 Q6.1 -24.0 4.8 -23.1 L2.95 -21.35 Q1.3 -19.4 1.0 -16.85 L0.95 -15.75 Q0.95 -12.5 3.05 -10.2 L3.4 -9.85 Q5.2 -7.85 7.7 -7.7 L8.45 -7.75 8.5 -7.75 9.65 -7.6 Q8.1 -5.95 6.2 -5.45 L4.95 -5.2 3.7 -5.05 3.0 -5.1 2.8 -5.2 2.7 -5.2 Q-0.9 -5.7 -3.3 -8.55 L-4.4 -10.15 Q-5.75 -12.45 -5.8 -15.25 L-5.8 -15.55 -5.7 -16.7 Q-5.35 -20.0 -3.1 -22.5 L-1.0 -24.3 Q0.7 -25.4 2.9 -25.55 L3.2 -25.55 Z" fill="none" stroke="#333333" stroke-linecap="round" stroke-linejoin="round" stroke-width="2.0"/>
    <path d="M3.2 -25.55 L3.35 -25.55 3.5 -25.55 3.55 -25.55 Q5.35 -25.55 6.9 -24.75 L7.75 -24.15 Q6.1 -24.0 4.8 -23.1 L2.95 -21.35 Q1.3 -19.4 1.0 -16.85 L0.95 -15.75 Q0.95 -12.5 3.05 -10.2 L3.4 -9.85 Q5.2 -7.85 7.7 -7.7 L8.45 -7.75 8.5 -7.75 9.65 -7.6 Q8.1 -5.95 6.2 -5.45 L4.95 -5.2 3.7 -5.05 3.0 -5.1 2.8 -5.2 2.7 -5.2 Q-0.9 -5.7 -3.3 -8.55 L-4.4 -10.15 Q-5.75 -12.45 -5.8 -15.25 L-5.8 -15.55 -5.7 -16.7 Q-5.35 -20.0 -3.1 -22.5 L-1.0 -24.3 Q0.7 -25.4 2.9 -25.55 L3.2 -25.55" fill="#ffcc00" fill-rule="evenodd" stroke="none"/>
  </g>
</svg>
