<?xml version="1.0" encoding="UTF-8" standalone="no"?>
<svg xmlns:xlink="http://www.w3.org/1999/xlink" height="33.95px" width="26.4px" xmlns="http://www.w3.org/2000/svg">
  <g transform="matrix(1.0, 0.0, 0.0, 1.0, 13.2, 18.15)">
    <path d="M8.3 -9.05 Q7.05 -8.5 7.05 -6.85 7.05 -5.35 5.65 -5.75 4.3 -6.15 2.7 -7.9 1.6 -9.05 3.25 -10.2 4.75 -11.25 3.95 -12.1 3.15 -13.0 2.45 -12.6 1.5 -12.1 0.2 -13.05 -1.3 -14.2 -0.5 -17.75 L-0.4 -18.15 0.0 -18.15 Q5.5 -18.15 9.4 -13.95 13.2 -9.75 13.2 -3.8 L13.2 -3.7 Q13.2 -0.35 11.25 4.05 L10.75 5.3 Q9.85 4.9 9.8 4.25 9.65 3.05 8.65 2.15 7.65 1.35 7.45 0.1 7.2 -1.75 8.05 -1.8 8.85 -1.85 10.25 -0.75 11.6 0.35 12.15 -3.15 12.7 -6.7 11.15 -8.15 9.6 -9.55 8.3 -9.05" fill="#db9c00" fill-rule="evenodd" stroke="none"/>
    <path d="M4.55 1.5 Q3.15 3.25 3.3 4.7 3.45 6.45 4.85 5.55 7.0 4.25 8.4 4.75 10.0 5.35 9.15 6.3 8.0 7.4 8.45 7.8 L9.25 8.05 7.4 10.85 Q3.75 15.8 0.55 15.8 -2.25 15.8 -5.6 12.4 -5.55 9.05 -5.0 8.4 -4.2 7.45 -2.65 8.0 -1.2 8.5 -0.65 7.7 -0.05 6.9 -0.45 5.15 -0.85 3.05 -0.5 1.5 0.1 -1.15 1.35 -2.05 2.85 -3.15 4.35 -1.25 5.6 0.2 4.55 1.5" fill="#fff39f" fill-rule="evenodd" stroke="none"/>
    <path d="M-13.2 -3.8 Q-13.2 -6.35 -12.45 -8.55 L-11.6 -8.25 Q-10.55 -7.95 -9.75 -9.15 -8.9 -10.45 -7.3 -10.2 -5.2 -9.85 -3.8 -7.95 -2.65 -6.35 -2.6 -4.7 -2.55 -3.7 -4.65 -2.35 -6.75 -1.05 -6.55 -0.25 -6.4 0.35 -5.15 0.8 -3.8 1.35 -3.2 3.3 -2.25 6.3 -2.15 7.5 -2.0 9.3 -3.05 10.25 -4.25 11.4 -6.8 10.75 L-7.9 10.4 -7.15 10.65 -8.85 8.5 Q-8.55 7.7 -9.75 7.05 L-11.05 4.45 Q-13.2 -0.35 -13.2 -3.7 L-13.2 -3.8" fill="#db9c00" fill-rule="evenodd" stroke="none"/>
    <path d="M5.05 -12.5 Q2.75 -15.2 -0.1 -16.25 L0.75 -16.3 Q4.85 -16.3 7.7 -12.95 10.6 -9.65 10.6 -5.0 L10.6 -4.85 Q10.6 -2.25 9.15 1.15 L7.9 3.9 Q8.85 0.85 8.85 -1.65 L8.85 -1.75 Q8.85 -8.1 5.05 -12.5" fill="#ffffff" fill-rule="evenodd" stroke="none"/>
    <path d="M-1.55 -18.1 Q-1.5 -16.95 -2.5 -15.85 -2.9 -15.45 -4.35 -15.4 -5.45 -15.2 -5.45 -14.2 -5.45 -13.25 -3.9 -13.2 -2.45 -13.2 -2.5 -12.45 -2.7 -10.9 -3.7 -9.5 -5.0 -7.85 -6.25 -8.7 -7.1 -9.35 -7.85 -11.0 -8.4 -12.1 -9.0 -11.9 -9.25 -11.85 -9.35 -10.2 -9.45 -8.55 -10.95 -8.7 L-12.35 -9.1 Q-11.4 -11.8 -9.45 -13.95 -6.05 -17.55 -1.55 -18.1" fill="#fff39f" fill-rule="evenodd" stroke="none"/>
    <path d="M-1.35 -5.0 Q0.45 -6.75 1.5 -6.95 2.65 -7.15 2.65 -5.85 2.6 -4.75 3.75 -5.35 5.15 -6.0 4.55 -4.1 L3.75 -1.9 5.0 -2.5 Q6.2 -3.05 6.55 -1.85 6.8 -0.9 4.8 -0.3 1.8 0.7 -0.1 2.65 -1.25 3.85 -3.9 1.95 -6.4 0.25 -6.5 -1.1 -6.65 -2.4 -5.8 -3.3 -4.85 -4.4 -3.7 -3.85 -2.85 -3.45 -1.35 -5.0" fill="#956a00" fill-rule="evenodd" stroke="none"/>
  </g>
</svg>
