<?xml version="1.0" encoding="UTF-8" standalone="no"?>
<svg xmlns:xlink="http://www.w3.org/1999/xlink" height="54.2px" width="132.45px" xmlns="http://www.w3.org/2000/svg">
  <g transform="matrix(1.0, 0.0, 0.0, 1.0, -4.45, 65.8)">
    <path d="M19.65 -51.2 Q24.7 -53.85 31.0 -55.8 35.25 -57.15 40.05 -58.15 55.9 -61.5 73.3 -60.65 91.5 -59.7 106.4 -54.25 122.7 -48.25 131.9 -37.85 L128.9 -33.45 130.8 -31.05 124.5 -23.9 Q122.35 -26.85 119.95 -29.15 L120.05 -28.75 Q121.6 -23.65 121.9 -19.85 L114.4 -16.6 107.9 -30.25 102.5 -17.7 95.0 -16.7 94.0 -26.6 Q83.95 -30.7 67.75 -34.5 49.9 -38.65 32.55 -39.95 L13.9 -40.6" fill="none" stroke="#3c190a" stroke-linecap="round" stroke-linejoin="round" stroke-width="10.0"/>
    <path d="M114.25 -33.55 L113.55 -37.5 116.7 -40.7 Q125.85 -38.2 130.8 -31.05 L124.5 -23.9 Q119.95 -30.1 114.25 -33.55" fill="#ab601e" fill-rule="evenodd" stroke="none"/>
    <path d="M14.2 -47.95 Q23.95 -54.75 40.05 -58.15 55.9 -61.5 73.3 -60.65 91.5 -59.7 106.4 -54.25 122.7 -48.25 131.9 -37.85 L126.8 -30.35 116.25 -37.85 Q118.4 -34.25 120.05 -28.75 121.6 -23.65 121.9 -19.85 L114.4 -16.6 107.9 -30.25 102.5 -17.7 95.0 -16.7 94.0 -26.6 Q83.95 -30.7 67.75 -34.5 35.3 -42.0 4.45 -40.3 L14.2 -47.95" fill="#bf7926" fill-rule="evenodd" stroke="none"/>
    <path d="M26.0 -54.1 L25.25 -53.8 29.85 -55.45 34.3 -56.75 33.5 -56.55 40.05 -58.15 Q55.9 -61.5 73.3 -60.65 91.5 -59.7 106.4 -54.25 L114.0 -51.0 Q114.9 -48.85 115.0 -46.95 108.95 -46.3 101.85 -48.6 107.95 -43.7 111.0 -36.95 102.1 -37.8 94.15 -41.85 99.65 -36.5 102.35 -29.1 L96.05 -29.95 Q93.15 -30.4 90.0 -31.6 91.35 -30.95 92.35 -29.25 L93.35 -26.85 Q83.45 -30.8 67.75 -34.5 35.3 -42.0 4.45 -40.3 L14.2 -47.95 Q19.3 -51.5 26.0 -54.1" fill="#70381f" fill-rule="evenodd" stroke="none"/>
  </g>
</svg>
