<?xml version="1.0" encoding="UTF-8" standalone="no"?>
<svg xmlns:xlink="http://www.w3.org/1999/xlink" height="64.55px" width="11.25px" xmlns="http://www.w3.org/2000/svg">
  <g transform="matrix(1.0, 0.0, 0.0, 1.0, -0.05, 0.2)">
    <path d="M7.0 5.1 L6.95 5.25 6.8 5.35 6.65 5.35 6.6 5.2 6.55 5.05 6.6 4.85 6.7 4.75 6.75 4.75 6.8 4.7 6.9 4.7 7.05 4.8 7.1 5.0 7.0 5.1 M6.9 5.8 L6.8 6.05 6.7 6.1 6.65 6.1 6.65 6.15 6.55 6.25 6.4 6.1 6.5 5.95 6.5 5.85 6.5 5.75 6.55 5.65 6.6 5.65 6.7 5.6 6.9 5.8 M7.3 5.7 L7.35 5.6 7.4 5.55 7.55 5.5 7.7 5.65 7.7 5.85 7.55 5.95 7.35 5.9 7.3 5.8 7.3 5.7 M8.1 5.3 L8.3 5.35 8.4 5.55 8.3 5.75 8.1 5.8 7.95 5.75 7.9 5.7 7.85 5.6 7.9 5.5 7.95 5.35 8.1 5.3 M2.8 2.55 L2.95 2.75 2.8 2.9 2.6 2.75 2.8 2.55 M1.75 1.25 L1.75 1.2 1.8 1.05 1.85 0.95 2.0 0.9 2.15 1.0 2.2 1.2 2.1 1.4 1.85 1.35 1.75 1.25 M0.25 0.45 L0.45 -0.2 0.7 1.15 0.8 1.15 0.8 1.1 0.95 1.2 1.05 1.25 1.1 1.35 1.15 1.65 1.05 1.95 1.0 2.05 1.1 2.35 1.2 2.35 1.2 2.3 1.35 2.45 1.4 2.65 1.25 2.75 1.35 3.0 1.4 3.05 1.4 3.0 1.45 2.95 1.55 2.9 1.65 2.85 1.85 3.0 1.9 3.15 1.75 3.3 1.65 3.35 1.55 3.4 1.55 3.45 1.75 4.0 1.8 3.95 1.9 3.9 1.9 3.85 2.1 4.0 2.15 4.2 2.0 4.35 1.85 4.4 2.15 5.95 2.2 5.85 2.25 5.8 2.45 5.75 2.65 5.75 2.8 5.8 2.9 5.85 3.0 6.0 3.0 6.05 3.0 6.15 3.0 6.2 3.0 6.3 2.95 6.35 2.95 6.4 2.9 6.45 2.65 6.55 2.6 6.8 2.55 6.85 2.6 6.9 2.65 6.95 2.65 7.05 2.5 7.2 2.2 7.15 2.2 7.5 2.45 7.45 2.55 7.5 2.6 7.45 2.65 7.4 2.7 7.35 2.8 7.35 2.8 7.3 2.95 7.45 3.0 7.65 2.8 7.75 2.75 7.75 2.75 8.0 2.75 8.2 2.7 8.3 2.6 8.35 2.45 8.4 2.2 8.35 2.15 8.35 2.1 8.55 1.9 10.0 2.0 9.95 2.1 10.0 2.15 9.95 2.25 9.9 2.25 10.05 2.2 10.05 2.25 10.1 2.3 10.2 2.25 10.3 2.2 10.35 1.85 10.35 1.7 11.4 1.8 11.35 1.85 11.35 1.9 11.55 1.8 11.6 1.7 11.6 1.65 11.8 1.7 11.75 1.85 11.8 1.95 11.9 2.05 12.0 2.1 12.15 2.1 12.2 2.05 12.25 1.95 12.35 1.7 12.45 1.55 12.4 1.5 12.85 1.55 12.85 1.55 12.8 1.8 12.85 1.95 12.9 2.1 13.0 2.2 13.15 2.2 13.2 2.15 13.25 2.15 13.35 2.05 13.45 1.9 13.6 1.85 13.7 1.85 13.8 1.8 13.9 1.75 13.95 1.7 14.0 1.45 14.05 1.3 14.05 1.25 14.25 1.3 15.45 1.35 15.85 1.45 15.8 1.6 15.9 1.65 16.1 1.55 16.2 1.5 16.25 1.55 16.25 1.65 16.3 1.75 16.45 1.75 16.55 1.7 16.7 1.7 16.75 1.75 16.8 1.8 16.85 1.8 16.95 1.75 17.15 1.6 17.35 1.5 17.4 1.55 17.7 1.65 17.6 1.7 17.6 1.8 17.65 1.9 17.7 1.95 17.75 1.95 17.8 1.95 17.9 1.7 18.05 1.55 17.95 1.55 18.45 1.75 18.3 1.9 18.25 2.05 18.3 2.1 18.35 2.2 18.5 2.25 18.65 2.25 18.7 2.2 18.75 2.15 18.9 2.0 19.1 1.65 19.2 1.55 19.1 1.55 19.05 1.5 19.65 1.65 19.65 1.8 19.7 1.9 19.75 1.95 19.8 2.0 19.9 2.05 20.0 2.05 20.2 2.05 20.45 1.95 20.65 1.9 20.65 1.7 20.7 1.45 20.65 1.35 21.5 1.4 21.45 1.45 21.4 1.55 21.4 1.75 21.5 1.85 21.7 1.85 21.9 1.7 22.1 1.75 22.15 1.8 22.1 1.9 22.15 2.0 22.2 2.05 22.25 2.1 22.35 2.05 22.45 2.0 22.5 1.65 22.5 1.65 22.45 1.55 22.45 1.35 22.55 1.2 22.5 1.15 23.0 1.25 23.0 1.35 23.0 1.5 23.05 1.6 23.1 1.65 23.2 1.75 23.3 1.8 23.45 1.85 23.6 1.85 23.65 1.8 23.7 1.75 23.8 1.65 23.85 1.3 23.85 1.1 23.75 1.15 24.55 1.25 24.5 1.4 24.55 1.6 24.65 1.8 24.8 1.95 25.0 1.95 25.1 1.95 25.2 1.9 25.3 1.85 25.35 1.8 25.45 1.75 25.5 1.85 25.55 1.95 25.65 2.0 25.7 2.05 25.75 2.05 25.85 2.05 25.95 2.05 26.05 2.0 26.1 2.0 26.15 2.05 26.25 2.1 26.3 2.2 26.4 2.2 26.45 2.25 26.5 2.25 26.6 2.25 26.65 2.2 26.7 2.2 26.8 2.2 26.9 2.1 27.05 2.0 27.1 1.9 27.1 1.95 27.2 2.1 27.15 2.2 27.15 2.35 27.2 2.4 27.25 2.45 27.3 2.5 27.5 2.25 27.8 2.15 27.85 2.3 28.2 2.35 28.2 2.4 28.1 2.5 28.05 2.6 28.05 2.65 28.1 2.7 28.15 2.7 28.25 2.7 28.35 2.75 28.4 2.8 28.55 2.75 28.75 2.65 28.75 2.45 28.75 2.55 29.1 2.55 29.05 2.6 29.1 2.8 29.15 2.9 29.2 2.95 29.25 2.9 29.3 2.8 29.35 2.6 29.25 3.0 31.45 3.05 31.75 3.2 31.8 3.4 31.8 3.45 31.9 3.5 31.95 3.5 31.9 3.7 31.7 3.85 31.9 3.7 32.1 3.6 32.1 3.6 32.2 3.55 32.5 3.35 32.75 3.2 32.75 3.05 32.75 3.05 33.05 3.1 33.1 3.2 33.2 3.2 33.35 3.15 33.45 3.1 33.55 3.0 33.55 2.95 33.55 2.95 33.65 3.0 33.6 3.15 33.65 3.15 33.75 2.95 33.75 2.85 34.0 2.9 34.1 2.75 34.35 2.85 34.45 2.95 34.6 2.95 34.65 2.95 34.75 2.95 34.85 2.9 34.9 2.8 34.95 2.55 34.9 2.25 35.7 2.25 35.65 2.4 35.8 2.4 36.0 2.3 36.1 2.35 36.2 2.4 36.4 2.35 36.6 2.3 36.65 2.2 36.7 2.0 36.7 1.9 36.65 1.8 37.0 1.9 37.0 2.0 37.0 2.15 37.05 2.2 37.1 2.25 37.15 2.25 37.3 2.2 37.45 2.15 37.5 2.2 37.55 2.2 37.6 2.1 37.7 1.8 37.85 1.55 37.9 1.5 38.25 1.55 38.4 1.65 38.6 1.7 38.85 1.65 39.15 1.6 39.25 1.3 39.25 1.3 39.55 1.35 39.55 1.5 39.6 1.55 39.65 1.6 39.75 1.6 39.85 1.55 39.95 1.6 39.9 1.7 39.9 1.7 39.85 1.85 40.0 1.9 40.2 1.7 40.3 1.7 40.35 1.7 40.55 1.55 40.65 1.45 40.65 1.3 40.8 1.2 40.85 1.2 41.05 1.2 41.15 1.25 41.1 1.35 41.05 1.5 41.1 1.6 41.15 1.65 41.25 1.65 41.3 1.7 41.35 1.7 41.45 1.75 41.5 1.75 41.55 1.7 41.65 1.8 41.6 1.8 41.55 1.9 41.6 2.0 41.65 2.05 41.7 2.1 41.8 2.1 41.85 2.0 42.0 1.9 42.1 1.8 42.1 1.65 42.1 1.6 42.0 1.55 41.95 1.55 41.8 1.35 41.85 1.2 41.85 1.25 42.7 1.35 42.7 1.5 42.75 1.6 42.8 1.65 42.85 1.7 42.95 1.7 43.05 1.7 43.2 1.65 43.3 1.65 43.35 1.45 43.55 1.4 43.55 1.45 43.95 1.55 43.8 1.65 43.75 1.75 43.8 1.9 43.85 1.95 43.9 2.0 44.05 1.95 44.2 1.9 44.3 1.65 44.3 1.5 44.15 1.6 44.55 1.6 44.5 1.7 44.5 1.85 44.6 1.9 44.8 1.8 44.95 1.7 44.95 2.05 46.0 2.1 46.0 2.25 46.15 2.45 46.35 2.45 46.6 2.3 46.75 2.35 47.0 2.35 47.05 2.4 47.05 2.55 47.0 2.65 46.95 2.8 47.0 2.9 47.1 2.9 47.15 2.95 47.2 2.95 47.3 2.95 47.35 2.9 47.4 2.8 47.55 2.65 47.6 2.5 47.55 2.45 47.55 2.55 47.95 2.5 48.1 2.35 48.25 2.5 48.55 2.5 48.4 2.5 48.15 2.6 47.95 2.7 47.9 2.85 48.05 2.85 48.35 2.8 48.6 2.7 48.9 2.65 48.9 2.7 49.4 2.75 49.4 2.9 49.5 2.95 49.55 2.95 49.6 2.95 49.7 2.8 49.8 2.7 49.85 2.5 50.75 2.05 52.3 2.15 52.35 2.2 52.55 2.1 52.65 1.9 52.65 1.75 53.2 1.8 53.15 2.0 53.25 2.05 53.45 1.8 53.6 1.65 53.5 1.6 53.65 1.7 53.65 1.75 53.85 1.65 53.85 1.55 53.85 1.45 54.0 1.45 54.05 1.5 54.05 1.55 54.2 1.55 54.25 1.4 54.25 1.3 54.7 1.35 54.85 1.35 54.9 1.45 54.85 1.45 54.8 1.6 54.95 1.65 55.15 1.6 55.25 1.7 55.35 1.8 55.5 1.65 55.65 1.4 55.65 1.4 55.7 1.5 55.8 1.55 55.85 1.55 55.8 1.7 56.05 1.55 56.2 1.4 56.2 1.35 56.2 1.7 57.1 1.8 57.05 1.95 57.15 1.95 57.35 1.95 57.4 2.0 57.3 2.1 57.3 2.2 57.25 2.35 57.25 2.55 57.3 2.65 57.35 2.65 57.4 2.7 57.45 2.75 57.55 2.75 57.6 2.75 57.7 2.7 57.8 2.65 57.95 2.55 58.1 2.5 58.15 2.45 58.15 2.35 58.15 2.2 58.1 2.05 58.05 2.1 59.2 1.95 59.45 2.1 59.5 2.1 59.7 1.9 59.8 1.75 59.75 1.45 60.6 1.5 60.6 1.55 60.65 1.6 60.7 1.6 60.8 1.6 60.9 1.55 60.95 1.45 61.0 1.4 60.95 1.4 61.05 1.45 61.05 1.6 61.25 1.45 61.45 1.4 61.45 1.4 61.5 1.55 61.45 1.7 61.45 1.85 61.5 1.9 61.55 1.95 61.65 1.9 61.75 1.65 62.0 1.45 62.05 1.55 62.45 Q1.8 63.55 0.85 64.15 L0.1 64.35 0.05 64.0 0.1 64.0 0.1 0.35 0.25 0.45 M1.95 2.25 L1.95 2.2 2.0 2.15 2.05 2.05 2.1 2.0 2.2 2.0 2.35 2.1 2.4 2.3 2.2 2.4 2.0 2.3 1.95 2.25 M2.2 4.65 L2.35 4.6 2.55 4.75 2.65 4.9 2.55 5.1 2.35 5.25 2.2 5.15 2.1 5.1 2.05 5.0 2.05 4.85 2.05 4.8 2.1 4.7 2.2 4.65 M3.85 4.0 L3.65 4.1 3.45 4.05 3.4 4.0 3.4 3.85 3.5 3.75 3.65 3.6 3.85 3.75 3.85 4.0 M2.65 3.7 L2.5 3.55 2.65 3.4 2.8 3.55 2.65 3.7 M2.85 4.45 L2.7 4.65 2.5 4.5 2.7 4.25 2.85 4.45 M4.35 5.7 L4.2 5.55 4.35 5.4 4.5 5.55 4.35 5.7 M4.25 7.25 Q4.05 7.25 4.05 7.1 4.1 6.95 4.25 6.95 L4.4 7.1 4.25 7.25 M4.6 7.4 L4.45 7.5 4.3 7.35 4.45 7.2 4.6 7.4 M3.1 8.8 L3.15 8.65 3.25 8.55 3.35 8.5 3.55 8.65 3.6 8.8 3.45 9.0 3.35 9.05 3.2 9.0 3.15 8.95 3.1 8.8 M2.3 6.8 L2.25 6.75 2.2 6.65 2.2 6.8 2.3 6.8 M2.25 6.55 L2.2 6.5 2.2 6.65 2.25 6.6 2.25 6.55 M2.35 9.0 L2.45 9.0 2.6 9.1 2.65 9.3 2.45 9.4 2.25 9.3 2.2 9.25 2.2 9.2 2.25 9.1 2.3 9.05 2.35 9.0 M2.1 10.7 L2.25 10.85 2.3 11.0 2.1 11.15 1.95 11.05 1.9 10.95 1.9 10.85 1.95 10.8 2.0 10.75 2.1 10.7 M3.85 9.85 L3.75 9.95 3.55 9.95 3.45 9.85 3.45 9.75 3.45 9.65 3.5 9.6 3.65 9.55 3.65 9.5 3.8 9.65 3.85 9.85 M3.1 10.35 L3.15 10.4 3.15 10.3 3.2 10.25 3.35 10.2 3.55 10.35 3.55 10.55 3.4 10.65 3.3 10.85 3.1 11.0 2.95 10.9 2.85 10.85 2.8 10.7 2.8 10.6 2.8 10.55 2.85 10.45 2.95 10.4 3.1 10.35 M2.8 12.25 L2.9 12.25 3.1 12.35 3.1 12.55 2.9 12.65 2.7 12.55 2.7 12.45 2.7 12.35 2.8 12.25 M3.5 12.35 L3.55 12.5 3.4 12.55 3.35 12.45 3.45 12.35 3.5 12.35 M4.0 12.15 L4.1 11.95 4.2 11.9 4.4 12.15 4.2 12.3 4.0 12.15 M5.65 7.35 L5.8 7.5 5.8 7.7 5.75 7.8 5.55 7.75 5.45 7.7 5.45 7.6 5.45 7.55 5.5 7.5 5.55 7.4 5.65 7.4 5.65 7.35 M6.7 12.3 L6.85 12.45 6.85 12.65 6.7 12.75 6.5 12.65 6.45 12.6 6.45 12.5 6.5 12.4 6.55 12.35 6.7 12.3 M4.55 12.9 L4.7 13.1 4.55 13.3 4.35 13.15 Q4.3 12.9 4.55 12.9 M3.9 13.85 L3.85 13.9 3.75 13.9 3.7 13.8 3.8 13.7 3.85 13.7 3.9 13.85 M3.5 14.25 L3.55 14.2 3.7 14.15 3.75 14.2 3.8 14.25 3.85 14.35 3.85 14.45 3.8 14.55 3.55 14.45 3.5 14.3 3.5 14.25 M1.55 15.15 L1.35 15.0 1.45 14.8 1.6 14.75 1.7 15.0 1.55 15.15 M1.95 16.4 L1.95 16.6 1.9 16.65 1.85 16.6 1.9 16.4 1.95 16.4 M3.8 16.55 L3.6 16.55 3.5 16.45 3.5 16.35 3.5 16.25 3.55 16.2 3.7 16.15 3.85 16.3 3.9 16.45 3.8 16.55 M2.75 16.2 L2.65 16.25 2.5 16.15 Q2.5 16.0 2.65 16.0 L2.65 15.9 Q2.65 15.75 2.8 15.75 L2.9 15.95 2.8 16.05 2.75 16.05 2.75 16.2 M2.9 18.4 L2.75 18.2 Q2.75 18.05 2.9 18.05 L3.05 18.2 2.9 18.4 M4.2 18.45 L4.0 18.25 4.2 18.05 4.35 18.25 4.2 18.45 M3.25 19.15 L3.05 19.0 3.25 18.8 3.4 19.0 3.25 19.15 M3.25 20.9 L3.25 21.05 3.2 21.05 3.1 21.0 3.15 20.9 3.25 20.9 M3.7 21.1 L3.9 20.95 4.0 20.95 4.15 21.05 4.2 21.1 4.2 21.2 4.2 21.25 4.1 21.35 3.7 21.3 3.7 21.1 M2.25 20.6 L2.45 20.35 2.6 20.55 2.45 20.75 Q2.25 20.75 2.25 20.6 M1.4 22.05 L1.3 22.0 1.25 21.95 1.25 22.15 1.35 22.1 1.4 22.05 M2.7 22.2 L2.55 22.4 2.35 22.2 Q2.3 22.0 2.55 22.0 L2.7 22.2 M2.85 24.7 L2.85 24.9 Q2.8 25.05 2.65 25.0 L2.45 24.9 2.45 24.75 2.5 24.65 2.55 24.6 2.65 24.6 2.85 24.7 M6.55 19.15 L6.7 19.35 6.55 19.55 6.35 19.4 Q6.3 19.15 6.55 19.15 M9.4 23.15 L9.45 23.15 9.55 23.1 9.7 23.15 9.8 23.25 9.85 23.35 9.9 23.5 9.85 23.55 9.8 23.7 9.55 23.75 9.3 23.65 9.25 23.6 9.2 23.55 9.2 23.45 9.2 23.4 9.25 23.35 9.25 23.25 9.35 23.2 9.4 23.15 M6.95 25.85 L7.0 25.75 7.05 25.7 7.2 25.65 7.35 25.8 7.35 26.0 7.2 26.1 7.0 26.05 6.95 25.95 6.95 25.85 M5.25 25.5 L5.2 25.55 5.2 25.6 5.1 25.65 4.85 25.65 4.75 25.55 4.7 25.4 4.75 25.35 4.8 25.25 4.85 25.2 4.9 25.2 5.0 25.2 5.0 25.15 5.1 25.25 5.2 25.3 5.25 25.35 5.25 25.5 M5.5 25.35 L5.6 25.65 5.45 25.8 5.25 25.55 5.45 25.35 5.5 25.35 M5.65 27.25 L5.85 27.45 5.85 27.65 Q5.8 27.8 5.65 27.75 L5.5 27.65 5.45 27.6 5.45 27.5 5.45 27.45 5.5 27.4 5.55 27.3 5.65 27.3 5.65 27.25 M6.55 29.6 L6.35 29.45 6.55 29.25 6.7 29.45 6.55 29.6 M2.65 26.15 L2.6 26.2 2.5 26.2 2.45 26.1 2.55 26.0 2.6 26.0 2.65 26.15 M3.5 26.6 L3.45 26.65 3.45 26.75 3.4 26.8 3.25 26.9 3.15 26.9 3.0 26.9 2.75 26.85 2.65 26.75 2.65 26.65 2.65 26.55 2.7 26.4 2.8 26.3 2.9 26.25 3.0 26.3 3.05 26.4 3.1 26.35 3.15 26.3 3.25 26.3 3.35 26.35 3.45 26.4 3.5 26.45 3.5 26.6 M1.95 24.9 L2.1 24.7 2.25 24.9 2.1 25.05 1.95 24.9 M2.1 25.25 L2.25 25.45 2.1 25.6 1.95 25.45 2.1 25.25 M3.45 29.0 L3.25 28.85 3.45 28.6 3.6 28.8 3.45 29.0 M3.35 29.35 L3.2 29.5 3.05 29.35 3.2 29.2 3.35 29.35 M3.3 30.05 L3.35 30.05 3.45 30.0 3.5 29.95 3.55 29.95 3.65 29.9 3.75 29.95 3.85 30.1 3.85 30.2 3.75 30.35 3.65 30.4 3.5 30.35 3.45 30.3 3.3 30.2 3.25 30.1 3.3 30.05 M3.6 30.8 L3.65 30.9 3.65 30.95 3.8 31.0 3.9 31.0 3.95 31.1 3.95 31.2 3.55 31.35 3.35 31.15 3.35 31.1 3.5 31.0 3.4 30.9 Q3.4 30.75 3.55 30.8 L3.6 30.8 M4.3 30.85 L4.45 30.8 4.65 30.9 4.7 30.95 4.85 31.15 4.7 31.3 4.65 31.3 4.45 31.4 4.3 31.35 4.2 31.3 4.15 31.15 4.15 31.05 4.15 30.95 4.2 30.9 4.3 30.85 M4.7 32.7 L4.55 32.85 4.35 32.7 Q4.4 32.55 4.55 32.55 L4.7 32.7 M4.1 34.85 L4.25 35.05 4.1 35.15 3.95 35.0 4.1 34.85 M3.8 35.4 L3.85 35.3 3.9 35.25 4.0 35.25 4.1 35.3 4.25 35.2 4.25 35.15 4.35 35.2 4.45 35.15 4.65 35.2 4.7 35.25 4.8 35.35 4.8 35.4 4.85 35.55 4.85 35.75 4.85 35.95 4.65 36.15 4.6 36.2 4.45 36.2 4.5 36.35 4.35 36.55 4.15 36.35 4.3 36.15 4.2 36.15 4.05 36.1 4.0 36.15 3.9 36.2 3.9 36.25 3.95 36.45 3.95 36.55 3.95 36.6 3.8 36.75 3.6 36.6 3.65 36.55 3.6 36.4 3.65 36.3 3.5 36.25 3.45 36.2 3.45 36.1 3.45 36.0 3.55 35.9 3.65 35.9 3.65 35.85 3.75 35.9 3.75 35.8 3.7 35.8 3.5 35.7 3.45 35.65 3.45 35.6 3.5 35.5 3.55 35.45 3.6 35.4 3.7 35.4 3.7 35.35 3.8 35.45 3.8 35.4 M3.65 34.25 L3.7 34.25 3.75 34.4 3.6 34.4 3.55 34.35 3.65 34.25 M3.2 34.7 L3.25 34.65 3.3 34.6 3.35 34.55 3.45 34.55 3.6 34.6 3.7 34.7 3.7 34.85 3.7 34.9 3.65 35.0 3.55 35.05 3.3 35.0 3.2 34.9 3.2 34.8 3.2 34.7 M2.95 34.1 L3.1 33.95 3.25 34.1 3.1 34.25 2.95 34.1 M3.35 35.5 L3.35 35.6 3.3 35.65 3.4 35.7 3.45 35.9 3.25 36.0 3.05 35.9 3.0 35.85 3.0 35.8 3.05 35.7 3.1 35.65 3.15 35.6 3.2 35.6 3.2 35.45 3.25 35.45 3.35 35.5 M2.85 35.75 L2.8 35.6 Q2.8 35.5 2.95 35.5 L3.0 35.7 2.85 35.75 M2.65 36.0 Q2.65 35.85 2.8 35.85 L2.9 36.05 2.8 36.15 2.65 36.0 M3.0 36.65 L3.15 36.8 3.1 36.9 2.9 36.9 Q2.75 36.8 2.9 36.7 L3.0 36.65 M2.6 36.85 L2.7 36.8 2.7 36.95 2.7 37.0 2.6 37.0 2.6 36.85 M4.7 36.25 L4.75 36.4 4.6 36.4 4.55 36.35 4.65 36.25 4.7 36.25 M4.7 36.75 L4.8 36.7 5.0 36.9 4.9 37.15 4.8 37.2 4.6 37.05 4.6 36.95 4.6 36.85 4.65 36.75 4.7 36.75 M5.3 36.15 L5.45 35.95 5.6 36.15 5.45 36.3 5.3 36.15 M9.1 34.7 L9.25 34.65 9.4 34.8 9.4 35.0 9.25 35.1 9.05 35.0 9.0 34.95 9.0 34.85 9.05 34.75 9.1 34.7 M5.95 40.2 L5.9 40.25 5.8 40.2 5.85 40.1 5.95 40.1 5.95 40.2 M5.65 40.85 L5.85 40.95 5.9 41.0 5.95 41.05 6.0 41.2 6.0 41.45 5.75 41.75 6.0 41.95 6.0 41.9 6.1 41.9 6.25 41.95 6.3 42.0 6.35 42.1 6.35 42.2 6.35 42.3 6.3 42.35 6.6 43.25 6.6 43.35 6.6 43.5 6.6 44.1 6.65 44.1 6.65 44.05 6.75 44.15 6.75 44.1 6.8 44.1 6.9 44.05 7.15 44.15 7.1 44.4 6.9 44.45 6.85 44.5 6.75 44.55 6.5 44.55 5.9 45.2 5.95 45.25 6.0 45.35 6.1 45.3 6.25 45.45 6.1 45.6 5.95 45.5 5.8 45.55 5.6 45.45 5.55 45.4 5.55 45.3 5.6 45.25 5.0 45.25 4.6 45.15 4.6 45.25 4.45 45.4 4.3 45.25 4.3 45.2 4.2 45.2 4.0 45.3 3.95 45.35 3.8 45.45 3.6 45.4 3.55 45.3 3.3 45.2 3.25 45.2 3.1 45.05 3.05 44.9 3.05 44.7 3.05 44.65 3.05 44.5 3.1 44.35 3.2 44.2 3.4 44.05 Q3.05 43.45 3.2 42.85 L2.9 42.55 2.9 42.45 2.9 42.35 2.9 42.3 3.05 42.2 3.25 42.05 3.45 42.0 3.55 42.0 3.6 42.05 3.7 41.95 3.65 41.95 3.3 41.9 3.25 41.75 3.25 41.7 3.25 41.6 3.3 41.55 3.45 41.45 3.55 41.4 3.65 41.45 3.75 41.55 3.8 41.6 3.8 41.75 Q3.8 41.5 4.0 41.5 L4.1 41.55 4.15 41.5 4.2 41.5 4.05 41.3 4.25 41.1 4.4 41.35 4.4 41.4 4.45 41.35 4.45 41.25 4.45 41.15 4.55 41.05 4.65 41.05 4.85 41.15 4.85 41.35 5.15 41.45 5.15 41.4 5.25 41.1 5.5 40.95 5.65 40.85 M5.15 41.0 L5.0 41.15 4.8 41.1 4.7 41.05 4.7 40.95 4.75 40.9 4.8 40.8 4.85 40.75 5.0 40.7 5.15 40.85 5.15 41.0 M6.85 42.75 L7.0 42.7 7.15 42.85 7.2 43.0 7.1 43.1 6.9 43.1 6.8 43.05 6.8 42.95 6.8 42.85 6.85 42.75 M6.6 43.1 L6.6 43.0 6.7 42.95 6.75 43.1 6.6 43.1 M2.8 38.55 L2.65 38.7 2.5 38.55 2.65 38.4 2.75 38.45 2.7 38.3 2.9 38.1 3.1 38.35 2.9 38.5 2.8 38.5 2.8 38.55 M3.7 39.15 L3.9 39.35 3.8 39.6 3.7 39.65 3.5 39.5 3.5 39.4 3.5 39.3 3.55 39.2 3.6 39.2 3.7 39.15 M4.8 40.2 L4.7 40.15 4.75 40.05 4.85 40.0 4.85 40.15 4.8 40.2 M2.2 38.5 L2.4 38.75 2.2 38.9 2.0 38.75 2.1 38.55 2.2 38.5 M1.35 40.1 L1.25 40.05 1.2 40.35 1.25 40.35 1.3 40.4 1.35 40.35 1.4 40.3 1.55 40.25 1.45 40.15 1.45 40.05 1.35 40.1 M2.3 41.25 L2.2 41.35 2.05 41.2 Q2.05 41.05 2.2 41.05 L2.25 41.05 2.3 41.25 M2.15 42.5 L2.2 42.6 2.05 42.65 2.0 42.6 2.1 42.5 2.15 42.5 M2.1 43.1 L2.25 42.95 2.35 43.0 2.5 43.1 2.55 43.2 2.6 43.3 2.7 43.3 2.85 43.45 2.8 43.7 2.55 43.7 2.45 43.5 2.35 43.45 2.1 43.25 2.1 43.1 M4.5 40.7 L4.5 40.9 4.45 40.95 4.4 41.0 4.3 41.0 4.05 41.0 3.95 40.9 3.95 40.75 3.95 40.7 4.0 40.6 4.05 40.6 4.1 40.55 4.2 40.55 4.35 40.6 4.45 40.7 4.5 40.7 M2.65 42.05 L2.7 42.05 2.75 42.2 2.75 42.25 2.6 42.25 2.55 42.15 2.65 42.05 M2.75 44.25 L2.85 44.5 2.7 44.65 2.7 44.7 2.6 44.85 2.45 44.95 2.3 44.8 2.3 44.7 2.3 44.65 2.3 44.55 2.3 44.5 2.35 44.45 2.45 44.45 2.6 44.55 2.65 44.55 2.55 44.35 2.75 44.25 M3.6 44.85 L3.7 44.9 3.7 44.85 3.6 44.85 M3.6 45.5 L3.7 45.7 3.55 45.85 3.35 45.7 3.55 45.5 3.6 45.5 M2.85 45.0 Q2.75 44.9 2.9 44.85 L3.05 45.0 3.0 45.1 2.85 45.0 M2.9 45.6 L2.75 45.45 Q2.75 45.3 2.9 45.3 L3.05 45.45 2.9 45.6 M3.1 45.8 L3.2 45.7 3.25 45.7 3.3 45.85 3.15 45.85 3.1 45.8 M2.85 45.9 L2.85 46.0 2.8 46.1 2.6 46.1 2.5 45.9 2.6 45.75 2.7 45.65 2.75 45.6 2.8 45.7 2.85 45.75 2.85 45.9 M4.85 46.0 L4.75 46.05 4.7 45.9 Q4.7 45.8 4.85 45.8 L4.85 46.0 M2.25 44.45 L2.05 44.3 2.05 44.2 2.05 44.15 2.1 44.1 2.15 44.1 2.25 44.05 2.45 44.2 2.45 44.4 2.25 44.45 M2.3 45.5 L2.35 45.6 2.3 45.7 2.15 45.7 2.15 45.55 2.3 45.5 M3.6 48.05 L3.65 48.0 3.7 48.0 3.8 47.95 3.95 48.1 3.95 48.3 3.8 48.4 3.65 48.3 3.6 48.2 3.6 48.1 3.6 48.05 M5.45 45.95 Q5.3 46.0 5.2 45.85 L5.1 45.85 4.9 45.7 5.1 45.45 5.25 45.65 5.35 45.6 5.6 45.75 5.6 45.8 5.7 45.75 5.85 45.95 5.7 46.15 5.5 46.0 5.5 45.95 5.45 45.95 M6.55 45.5 L6.55 45.55 6.4 45.55 6.35 45.45 6.45 45.35 6.5 45.35 6.55 45.5 M10.0 46.45 L10.05 46.35 10.15 46.25 10.25 46.25 10.4 46.35 10.45 46.55 10.25 46.65 10.05 46.55 10.0 46.5 10.0 46.45 M9.9 47.85 L9.9 47.75 9.95 47.65 10.0 47.65 10.1 47.6 10.3 47.75 10.35 48.0 10.3 48.05 10.35 48.05 10.45 48.1 10.55 48.2 10.55 48.4 10.45 48.55 10.35 48.55 10.25 48.5 10.15 48.45 10.1 48.4 10.05 48.3 10.05 48.2 10.15 48.1 10.0 48.0 9.9 47.95 9.9 47.85 M8.5 48.25 L8.45 48.2 8.5 48.15 8.55 48.05 8.7 47.95 8.9 48.0 9.05 48.2 8.9 48.35 8.7 48.35 8.55 48.35 8.5 48.25 M10.9 47.05 L10.9 46.95 11.0 46.95 11.05 47.05 11.0 47.1 10.9 47.05 M10.5 47.8 L10.65 47.65 10.8 47.8 10.65 47.95 10.5 47.8 M11.3 47.55 L11.1 47.7 10.95 47.55 11.1 47.35 11.3 47.55 M10.55 49.0 L10.75 49.15 10.8 49.3 10.8 49.35 10.9 49.25 10.95 49.25 11.0 49.4 11.0 49.45 10.85 49.45 10.8 49.35 10.8 49.4 10.65 49.5 10.55 49.5 10.45 49.45 10.35 49.4 10.3 49.35 10.3 49.3 10.35 49.15 10.45 49.05 10.55 49.0 M9.1 50.85 L9.25 50.9 9.35 51.0 9.35 51.05 9.4 51.2 9.4 51.25 9.35 51.3 9.2 51.4 8.9 51.35 8.8 51.2 8.8 51.15 8.8 51.05 8.85 51.0 9.0 50.9 9.1 50.85 M6.55 53.35 L6.5 53.45 6.5 53.5 6.35 53.7 6.15 53.5 6.2 53.4 6.15 53.35 6.15 53.25 6.15 53.15 6.2 53.1 6.25 53.05 6.35 53.05 6.35 53.0 6.55 53.15 6.55 53.35 M6.05 54.8 L6.2 54.75 6.35 54.9 6.35 55.1 6.2 55.2 6.0 55.1 5.95 55.05 5.95 54.95 6.0 54.85 6.05 54.8 M3.9 49.75 L3.7 49.55 3.9 49.35 4.05 49.55 3.9 49.75 M3.9 50.95 L3.8 51.05 3.65 50.9 3.8 50.75 3.9 50.95 M3.45 49.8 L3.6 50.0 3.45 50.2 3.25 50.05 3.1 50.15 2.9 50.0 3.0 49.85 3.1 49.85 3.25 50.0 3.45 49.85 3.45 49.8 M3.35 50.5 L3.2 50.65 3.05 50.5 3.2 50.3 3.35 50.5 M3.3 50.95 L3.35 50.9 3.45 50.9 3.45 50.85 3.65 51.05 3.55 51.3 3.45 51.35 3.5 51.35 3.55 51.55 3.45 51.6 3.3 51.5 Q3.3 51.35 3.45 51.35 L3.35 51.3 3.25 51.1 3.25 51.0 3.3 50.95 M3.8 51.65 L3.6 51.5 Q3.55 51.25 3.8 51.25 L3.95 51.45 3.8 51.65 M2.45 51.4 L2.6 51.6 2.45 51.8 Q2.25 51.8 2.25 51.65 L2.45 51.4 M2.25 52.05 L2.35 51.85 2.6 51.95 2.45 52.15 Q2.3 52.2 2.25 52.05 M2.1 52.85 L2.25 52.95 2.3 53.15 2.1 53.25 1.9 53.15 1.8 53.1 1.8 53.05 1.85 53.0 1.9 52.9 2.0 52.85 2.1 52.85 M2.1 54.45 L2.2 54.65 2.1 54.8 1.9 54.8 1.75 54.8 1.75 54.75 1.55 54.8 1.35 54.65 Q1.3 54.4 1.55 54.4 L1.75 54.55 1.75 54.5 1.9 54.4 2.1 54.45 M2.5 54.75 L2.55 54.75 2.65 54.8 2.65 54.85 2.5 54.85 2.5 54.75 M2.9 53.55 L3.1 53.65 3.2 53.8 3.1 54.0 2.9 54.1 2.75 54.1 2.7 54.0 2.7 53.95 2.7 53.8 2.75 53.7 2.9 53.6 2.9 53.55 M3.45 54.35 L3.45 54.3 3.65 54.5 3.65 54.7 Q3.6 54.85 3.45 54.8 L3.25 54.7 3.2 54.65 3.2 54.6 3.25 54.55 3.25 54.45 3.35 54.35 3.45 54.35 M3.1 56.45 L2.9 56.65 2.75 56.4 Q2.75 56.25 2.9 56.25 L3.1 56.45 M3.05 56.7 L3.25 56.6 3.25 56.55 3.4 56.7 3.45 56.95 3.35 57.05 3.1 57.05 3.1 57.1 3.25 57.2 3.2 57.4 3.15 57.55 3.0 57.65 2.8 57.6 2.75 57.5 2.75 57.4 2.8 57.3 2.85 57.25 2.9 57.25 Q2.85 57.1 3.0 57.1 L2.8 56.9 3.0 56.75 3.05 56.75 3.05 56.7 M3.45 57.4 L3.65 57.2 3.85 57.45 3.65 57.6 3.45 57.4 M4.6 57.75 L4.55 57.75 4.45 57.75 Q4.4 57.65 4.5 57.65 L4.6 57.6 4.6 57.75 M4.2 57.95 L4.3 57.9 4.3 58.05 4.25 58.05 4.15 58.0 4.2 57.95 M3.9 57.9 L3.95 57.9 4.0 58.05 3.85 58.05 3.8 58.0 3.9 57.9 M4.85 58.05 L4.9 58.2 4.85 58.25 4.75 58.25 4.7 58.15 4.8 58.05 4.85 58.05 M1.7 56.25 L1.9 56.5 1.7 56.65 1.5 56.45 1.7 56.25 M2.35 58.55 L2.55 58.8 Q2.55 58.95 2.35 58.95 2.15 58.95 2.2 58.75 2.2 58.55 2.35 58.55 M2.25 59.5 L2.05 59.35 2.25 59.2 2.3 59.2 2.4 59.4 2.25 59.5 M1.7 60.2 L1.75 60.35 1.7 60.4 1.55 60.35 1.65 60.25 1.7 60.2 M2.55 60.05 L2.35 59.9 2.55 59.7 2.7 59.9 2.55 60.05 M3.7 59.2 L3.85 59.35 3.7 59.5 3.55 59.35 Q3.55 59.2 3.7 59.2 M2.7 60.7 L2.75 60.85 2.75 60.9 2.6 60.9 2.55 60.8 2.65 60.7 2.7 60.7 M2.85 61.3 L2.75 61.3 2.7 61.25 2.8 61.15 2.85 61.15 2.9 61.25 2.85 61.3 M3.8 61.75 L3.6 61.6 Q3.65 61.45 3.8 61.45 L3.95 61.6 3.8 61.75 M4.35 60.55 L4.15 60.4 4.35 60.15 4.5 60.35 4.35 60.55 M8.9 56.0 L8.75 55.85 Q8.75 55.7 8.9 55.7 L8.95 55.7 9.0 55.8 9.15 55.75 9.25 56.0 Q9.25 56.2 9.05 56.1 L8.95 55.95 8.9 56.0 M9.35 57.05 L9.45 57.0 9.55 57.05 9.65 57.15 9.7 57.2 9.7 57.25 9.65 57.35 9.55 57.45 Q9.35 57.5 9.2 57.35 L9.2 57.15 9.35 57.05 M8.0 56.55 L8.05 56.5 8.1 56.45 8.25 56.35 8.4 56.5 8.45 56.65 8.55 56.8 8.55 56.85 8.45 56.8 8.4 56.75 8.25 56.8 8.05 56.75 8.0 56.7 8.0 56.6 8.0 56.55 M8.65 56.5 Q8.65 56.3 8.8 56.3 L8.95 56.5 8.8 56.65 8.65 56.5 M6.55 56.65 L6.35 56.6 6.3 56.5 6.3 56.4 6.35 56.3 6.4 56.25 6.55 56.2 6.7 56.35 6.7 56.55 6.55 56.65 M6.1 57.1 L6.3 57.25 6.3 57.45 6.1 57.55 5.9 57.5 5.85 57.45 5.85 57.35 5.85 57.3 5.95 57.2 6.1 57.1 M6.6 60.05 L6.6 60.15 6.65 60.25 6.65 60.35 6.6 60.4 6.45 60.5 6.1 60.4 6.0 60.3 6.0 60.2 6.0 60.15 6.15 60.05 6.35 59.95 6.5 60.0 6.6 60.05 M7.6 59.5 L7.55 59.45 7.65 59.35 7.7 59.35 7.75 59.5 7.6 59.5 M7.85 60.55 Q7.75 60.55 7.8 60.4 L7.95 60.35 8.0 60.5 7.85 60.55 M2.9 62.2 L3.0 62.3 3.0 62.5 2.9 62.65 2.8 62.7 2.6 62.55 2.5 62.4 2.5 62.2 2.55 62.2 2.5 62.15 2.7 61.9 2.85 62.1 2.85 62.2 2.9 62.2 M3.0 63.05 L3.1 63.0 3.25 62.95 3.45 63.1 3.55 63.25 3.45 63.45 3.25 63.6 3.1 63.55 3.0 63.45 2.95 63.35 2.95 63.2 2.95 63.15 3.0 63.05 M3.25 64.05 L3.3 64.0 3.35 63.95 3.45 63.95 3.6 64.05 3.65 64.25 3.45 64.35 3.25 64.25 3.2 64.2 3.2 64.15 3.25 64.05 M3.95 64.05 L4.0 64.2 3.85 64.25 3.8 64.15 3.9 64.05 3.95 64.05 M1.95 63.4 L2.0 63.55 2.0 63.6 1.85 63.6 1.8 63.5 1.9 63.4 1.95 63.4 M2.1 63.1 L1.9 62.95 2.1 62.7 2.25 62.9 2.1 63.1 M2.4 63.6 L2.25 63.75 2.05 63.6 2.25 63.45 2.4 63.6" fill="#ecd26f" fill-rule="evenodd" stroke="none"/>
  </g>
</svg>
