<?xml version="1.0" encoding="UTF-8" standalone="no"?>
<svg xmlns:xlink="http://www.w3.org/1999/xlink" height="85.9px" width="64.65px" xmlns="http://www.w3.org/2000/svg">
  <g transform="matrix(1.0, 0.0, 0.0, 1.0, 0.0, 21.9)">
    <path d="M63.1 13.0 Q63.1 13.4 62.7 13.45 62.2 13.5 62.25 13.0 62.25 12.65 62.6 12.6 63.1 12.55 63.1 13.0 M60.8 17.95 L61.2 17.95 61.4 18.0 61.6 18.15 61.8 18.4 61.8 18.55 61.75 18.7 61.55 18.9 61.0 19.1 Q60.6 19.15 60.4 18.8 L60.3 18.55 60.3 18.4 60.35 18.25 60.45 18.1 60.6 18.05 60.8 18.0 60.8 17.95 M50.2 48.05 L50.35 47.8 Q50.45 47.6 50.6 47.6 L50.8 47.65 51.0 47.7 51.3 47.85 51.4 47.95 51.45 48.25 51.2 48.5 Q50.8 48.75 50.35 48.5 50.15 48.35 50.2 48.05 M58.6 41.85 L58.8 41.85 59.05 41.95 59.25 42.15 59.4 42.4 59.4 42.55 59.15 42.75 58.35 42.7 Q58.15 42.55 58.2 42.25 L58.4 42.0 58.6 41.85 M54.6 48.5 Q54.95 48.0 55.55 48.05 L55.8 47.75 56.4 47.55 57.2 47.45 57.4 47.45 57.7 47.6 57.8 47.7 57.95 48.0 57.95 48.05 58.2 48.05 Q58.6 48.1 58.7 48.45 L58.75 48.6 58.7 48.75 Q58.5 49.4 57.8 49.55 L55.4 49.6 55.0 49.5 Q54.5 49.4 54.55 48.9 L54.55 48.75 54.6 48.5 M60.55 45.75 L60.9 45.5 61.2 45.35 61.2 45.3 61.6 45.35 61.9 45.45 62.15 45.65 62.35 45.9 62.35 46.05 62.3 46.2 62.2 46.35 62.1 46.5 61.95 46.65 61.9 46.75 61.8 46.8 61.6 46.85 60.55 46.7 60.3 46.5 60.3 46.35 60.3 46.2 60.35 46.05 60.55 45.75 M5.25 2.8 Q5.1 3.1 4.8 3.0 L4.4 2.8 4.3 2.7 4.3 2.55 4.35 2.4 4.45 2.25 4.6 2.2 4.8 2.15 4.8 2.1 5.2 2.4 Q5.4 2.55 5.25 2.8 M7.5 5.0 L7.6 4.95 7.8 4.95 7.8 4.9 Q8.15 4.9 8.35 5.2 L8.3 5.85 Q8.1 6.1 7.8 6.05 L7.3 5.7 7.3 5.55 7.3 5.4 7.3 5.25 7.4 5.1 7.5 5.0 M1.95 5.65 L1.95 5.5 1.95 5.35 2.0 5.2 2.1 5.05 2.4 4.95 2.6 4.95 2.6 4.9 Q2.95 4.9 3.15 5.2 3.4 5.5 3.15 5.8 2.95 6.1 2.6 6.1 2.2 6.1 2.0 5.8 L1.95 5.65 M3.6 19.9 L3.85 20.15 3.85 20.3 3.85 20.45 3.85 20.6 3.8 20.75 3.7 20.9 3.6 21.0 3.4 21.05 2.6 21.05 Q2.2 21.05 1.95 20.7 L1.75 20.45 1.75 20.3 1.8 20.15 1.95 20.0 2.1 19.9 2.4 19.8 2.4 19.75 3.4 19.8 3.6 19.9 M2.8 42.9 L4.0 42.95 4.25 43.0 4.45 43.15 4.55 43.3 4.65 43.6 4.65 44.05 4.4 44.5 4.3 44.6 4.0 44.7 Q2.85 45.1 2.15 44.35 L2.05 44.2 2.05 44.05 2.05 43.9 2.05 43.75 2.05 43.6 2.1 43.45 2.2 43.3 2.35 43.15 2.5 43.05 2.8 42.95 2.8 42.9 M3.05 46.05 L3.3 46.45 3.0 46.85 2.4 46.85 2.1 46.75 2.0 46.6 1.95 46.45 1.95 46.3 2.15 46.1 2.4 45.95 2.6 45.95 2.6 45.9 3.05 46.05 M2.8 57.1 L3.05 57.35 3.05 57.5 3.05 57.65 2.95 57.8 2.85 57.95 2.7 58.1 2.6 58.2 2.4 58.25 1.8 58.2 0.95 57.9 0.8 57.75 0.8 57.6 0.85 57.45 0.95 57.3 1.3 57.1 1.6 57.0 1.6 56.95 2.6 57.0 2.8 57.1 M5.0 57.85 L5.2 57.8 6.0 57.85 6.2 57.95 6.45 58.2 6.55 58.35 6.55 58.5 6.4 58.8 4.8 58.95 4.45 58.7 4.4 58.6 4.4 58.45 4.45 58.3 4.6 58.1 5.0 57.85 M3.8 61.4 L4.05 61.45 4.25 61.6 4.35 61.75 4.4 61.9 4.45 62.05 4.4 62.35 4.35 62.65 4.2 62.95 4.05 63.05 3.0 63.2 2.0 62.8 1.8 62.6 1.8 62.45 1.85 62.2 2.3 61.75 Q2.55 61.5 2.9 61.45 L3.2 61.35 3.8 61.4 M7.55 62.4 L7.2 62.75 Q6.8 62.75 6.8 62.4 6.85 62.05 7.2 62.0 7.55 62.05 7.55 62.4 M61.25 52.35 L61.3 52.8 61.1 53.2 61.0 53.25 60.8 53.3 60.4 53.25 60.0 53.0 59.9 52.75 59.9 52.6 59.9 52.45 60.0 52.3 60.3 52.05 60.6 51.9 61.0 52.1 61.25 52.35 M52.8 59.0 L53.2 59.05 53.5 59.3 53.65 59.7 53.6 60.15 53.5 60.3 53.4 60.35 53.0 60.4 52.5 60.2 52.3 59.95 52.25 59.8 52.2 59.65 52.2 59.5 52.3 59.35 52.55 59.15 52.8 59.05 52.8 59.0 M50.85 61.2 L50.65 61.65 Q49.65 62.3 48.4 62.2 47.75 62.1 47.6 61.6 L47.55 61.45 47.6 61.3 47.75 61.0 48.3 60.65 48.8 60.35 49.0 60.3 49.8 60.3 50.2 60.4 50.6 60.65 50.85 61.05 50.85 61.2 M59.2 58.7 L59.25 58.85 59.3 59.15 59.3 59.45 59.25 59.6 59.15 59.7 58.8 59.85 57.6 60.1 57.4 60.15 57.05 60.0 56.9 59.95 56.5 59.7 56.4 59.6 56.35 59.45 56.35 59.3 56.4 59.15 56.7 58.85 57.3 58.4 57.6 58.3 58.6 58.35 58.85 58.4 59.05 58.55 59.2 58.7" fill="#aeaeae" fill-rule="evenodd" stroke="none"/>
    <path d="M0.0 64.0 L0.0 0.0 64.0 0.0 64.0 64.0 0.0 64.0" fill="url(#gradient0)" fill-rule="evenodd" stroke="none"/>
    <path d="M63.6 0.55 Q63.8 0.9 63.65 1.3 L63.5 2.1 63.45 2.4 63.55 2.1 63.65 1.7 63.7 1.7 63.75 1.65 63.75 1.6 63.8 1.6 63.8 2.1 63.6 2.65 63.5 3.25 63.4 3.65 Q63.2 3.55 63.25 3.3 L63.2 3.35 Q63.05 3.0 63.2 2.6 L63.35 1.85 63.4 1.1 63.6 0.55 M63.8 2.8 L63.85 2.9 63.9 2.95 63.9 3.0 63.95 3.05 63.85 3.3 63.75 3.5 63.7 3.7 63.7 3.9 63.7 4.05 63.8 4.1 63.85 4.15 63.9 4.2 63.85 4.35 63.8 4.5 63.8 4.6 63.7 4.75 63.6 5.3 63.55 5.45 63.4 5.75 63.3 6.05 63.3 6.15 63.4 6.7 63.35 7.35 63.3 8.0 63.25 8.5 Q63.05 8.25 63.1 7.9 L63.1 7.2 63.1 6.55 63.15 6.3 63.05 6.15 63.0 6.3 62.95 6.65 62.8 6.9 62.8 7.0 62.9 7.8 62.85 8.35 62.6 7.55 62.6 6.95 62.55 7.0 62.5 7.35 62.4 7.55 62.45 7.9 62.45 8.25 62.2 7.85 62.2 7.45 62.15 7.5 62.1 7.8 62.1 7.9 62.15 7.95 62.15 8.0 62.1 8.05 62.05 8.1 61.95 8.1 61.95 8.4 61.85 8.85 Q61.7 8.65 61.7 8.3 L61.65 7.65 61.6 7.85 61.45 8.3 61.4 8.45 61.3 8.75 Q61.15 8.6 61.15 8.3 L61.25 7.75 61.3 7.6 60.95 7.85 60.7 8.3 60.65 8.9 60.55 9.25 60.45 8.85 60.45 8.8 60.1 8.95 Q60.1 8.7 60.25 8.55 L60.5 8.2 60.5 8.15 59.85 8.5 59.8 8.9 59.6 9.2 Q59.45 9.05 59.55 8.7 L59.6 8.65 59.05 8.85 59.0 8.95 59.0 9.1 59.0 9.4 58.85 9.7 58.7 9.45 58.6 9.65 58.4 9.4 58.4 9.1 58.3 9.15 58.25 9.2 58.2 9.2 58.2 9.25 58.2 9.4 58.25 9.55 58.35 9.85 58.1 9.7 58.05 9.8 57.95 9.65 57.95 9.4 57.95 9.3 57.6 9.35 57.45 9.4 57.5 9.65 57.35 9.9 57.3 9.65 57.25 9.45 57.2 9.55 57.2 9.45 56.95 9.55 56.9 9.8 56.85 10.1 56.65 9.8 56.65 9.6 56.35 9.7 Q56.25 9.9 56.3 10.1 L56.3 10.55 56.3 10.9 56.25 10.85 56.25 11.2 56.05 10.9 56.0 10.45 56.0 10.05 56.0 10.0 55.95 9.8 55.85 9.8 55.8 9.85 55.65 10.3 55.5 10.65 Q55.3 10.45 55.4 10.15 L55.5 9.85 53.1 10.1 Q52.0 10.1 51.55 9.15 49.8 5.35 54.05 4.4 L56.75 3.85 59.7 3.85 59.8 3.65 59.85 3.65 59.95 3.85 60.55 3.85 61.0 3.85 62.85 4.1 63.6 4.55 63.6 4.5 63.55 4.4 63.5 4.25 63.55 4.15 63.65 4.0 63.5 3.75 63.5 3.55 63.55 3.25 63.6 3.0 63.65 2.9 63.75 2.85 63.75 2.8 63.8 2.75 63.8 2.8 M64.0 6.8 L63.9 7.2 63.8 7.6 63.65 7.85 63.7 7.5 63.75 7.1 63.75 7.05 63.65 7.65 63.55 8.1 Q63.3 7.95 63.4 7.5 L63.55 6.95 63.65 6.3 63.85 5.9 63.85 6.45 63.85 6.6 63.95 6.45 64.0 6.8 M61.9 7.15 L61.9 7.5 61.95 7.2 62.0 7.05 61.9 7.15 M62.1 10.75 L62.0 10.95 61.85 11.05 61.85 11.0 61.8 10.9 61.8 10.85 61.8 10.75 61.75 10.7 61.75 10.65 61.8 10.55 61.9 10.45 62.05 10.35 62.1 10.3 62.1 10.35 62.15 10.4 62.2 10.45 62.2 10.5 62.25 10.5 62.2 10.65 62.1 10.75 M61.35 10.5 L61.45 10.7 61.4 10.9 61.4 11.15 61.35 11.35 61.2 11.15 61.2 10.9 61.25 10.65 61.35 10.5 M61.0 13.85 L61.05 14.0 61.05 14.15 61.05 14.25 61.05 14.4 61.05 14.5 61.15 14.55 61.25 14.65 61.3 14.75 61.3 14.8 61.2 14.95 61.05 15.0 60.85 14.85 60.8 14.8 60.8 14.75 60.85 14.7 60.85 14.65 60.9 14.6 61.0 14.5 61.0 14.35 61.0 14.2 61.0 14.05 60.95 13.9 61.0 13.85 M58.75 9.0 L58.7 9.0 58.7 9.1 58.7 9.25 58.75 9.0 M57.5 11.4 L57.5 11.7 57.55 12.0 57.35 11.75 57.3 11.35 57.3 10.95 57.4 10.75 57.45 11.05 57.5 11.4 M59.9 10.4 L59.85 10.5 59.85 10.6 59.85 10.75 59.95 10.85 59.95 10.9 60.0 10.95 59.95 11.0 59.95 11.05 59.9 11.15 59.85 11.25 59.8 11.25 59.7 11.15 59.65 11.05 59.6 11.0 59.6 10.95 59.65 10.9 59.7 10.8 59.75 10.8 59.8 10.75 59.8 10.65 59.8 10.55 59.8 10.4 59.85 10.3 59.9 10.4 M60.6 10.75 L60.65 11.1 60.6 11.45 60.4 11.2 60.35 10.75 60.3 10.35 Q60.3 10.15 60.45 10.05 L60.55 10.4 60.6 10.75 M58.4 10.5 L58.5 10.8 58.45 11.1 Q58.35 11.25 58.4 11.45 L58.35 11.7 58.2 11.45 58.25 11.1 58.25 10.75 58.4 10.5 M59.2 10.75 L59.2 10.85 59.25 10.9 59.25 10.95 59.3 11.05 59.15 11.2 59.05 11.3 59.0 11.45 58.95 11.6 58.9 11.5 58.9 11.3 58.95 11.15 58.95 11.05 58.9 10.95 59.0 10.85 59.1 10.75 59.15 10.7 59.2 10.7 59.2 10.75 M44.75 24.45 L45.05 25.1 Q47.85 28.1 52.1 28.55 58.75 29.2 63.0 33.4 L63.0 33.15 63.05 32.7 63.3 32.35 63.25 32.8 63.25 32.85 63.35 32.75 63.45 33.0 Q63.45 32.8 63.6 32.75 L63.65 33.3 63.6 33.5 63.65 33.5 63.75 33.0 Q63.8 32.65 64.0 32.35 L64.45 31.85 64.25 32.5 Q64.05 32.75 64.0 33.1 L63.85 33.55 63.9 33.5 64.0 33.7 64.05 33.5 64.25 33.2 64.15 33.75 64.2 33.7 64.25 33.7 64.25 33.65 64.35 33.65 64.45 33.65 64.45 33.6 64.5 33.55 64.55 33.5 64.55 33.45 64.6 33.45 64.6 33.4 64.65 33.4 64.65 33.45 64.6 33.5 64.6 33.55 64.55 33.6 64.55 33.65 64.5 33.7 64.55 33.75 64.55 33.8 64.6 33.85 64.6 33.95 64.35 34.25 64.1 34.55 64.0 34.75 64.0 35.3 63.95 35.7 Q63.7 35.6 63.75 35.15 L63.75 35.1 63.8 34.85 63.8 34.5 63.75 34.7 63.65 34.95 63.6 35.0 63.5 35.55 63.45 35.35 63.45 35.0 63.5 34.9 63.5 34.8 63.45 34.7 63.35 35.1 63.25 35.45 63.25 35.05 63.3 34.75 63.25 34.8 63.25 34.6 63.2 34.65 63.2 34.75 63.2 35.05 63.2 35.4 63.05 35.65 63.05 35.55 63.0 35.6 62.9 35.7 62.95 35.8 62.95 35.9 62.95 35.95 62.9 36.1 62.75 35.95 62.7 35.75 62.6 35.6 62.55 35.5 62.55 35.4 62.6 35.35 62.6 35.3 62.7 35.25 62.7 35.2 62.7 35.1 62.7 35.0 62.45 35.2 62.45 35.25 62.5 35.55 62.55 35.85 62.45 36.15 62.3 35.8 62.3 35.45 62.3 35.3 62.05 35.5 62.05 35.55 62.05 35.95 62.05 36.3 Q61.9 36.2 61.9 35.95 L61.9 35.6 61.8 35.65 61.75 36.05 61.8 36.4 61.65 36.25 61.6 36.3 61.35 36.1 61.35 36.0 61.15 36.1 61.15 36.25 61.2 36.5 61.15 36.65 61.0 36.4 60.95 36.2 60.8 36.3 60.85 36.6 60.95 36.9 60.65 36.7 60.6 36.4 60.45 36.45 60.4 36.85 60.35 37.15 Q60.2 37.1 60.2 36.85 L60.2 36.6 59.85 36.75 59.85 36.85 59.85 37.25 59.85 37.6 59.85 37.65 59.65 37.35 59.65 37.0 59.65 36.85 59.4 37.0 59.4 37.05 59.55 37.5 59.65 37.9 59.6 37.9 59.5 37.9 59.35 37.8 59.35 37.75 59.2 37.35 59.15 37.1 58.6 37.3 58.7 37.55 58.85 37.9 59.0 38.25 58.7 37.95 58.5 37.55 58.45 37.35 58.25 37.45 58.25 37.6 58.25 37.95 58.15 38.2 58.15 38.25 57.95 38.2 57.95 38.1 57.9 38.0 57.85 37.85 57.85 37.75 57.75 37.65 57.7 37.6 57.25 37.75 57.2 37.95 57.25 38.2 57.3 38.4 57.3 38.5 Q57.05 38.55 57.05 38.35 L57.0 38.05 56.95 37.85 56.6 37.9 56.55 38.1 56.55 38.5 56.55 38.8 Q56.25 38.7 56.3 38.45 L56.3 38.0 56.3 37.95 56.25 37.95 56.15 38.3 56.05 38.65 55.95 39.0 55.85 38.95 55.85 39.0 55.85 39.2 55.8 39.4 55.75 39.25 55.75 39.0 55.7 38.8 55.8 38.6 55.85 38.65 55.9 38.3 56.0 38.0 55.75 38.05 55.75 38.1 55.8 38.15 55.75 38.25 55.7 38.3 55.65 38.35 55.6 38.4 55.6 38.5 55.6 38.6 55.6 38.7 55.6 38.8 55.55 38.9 55.4 38.8 55.4 38.65 55.4 38.45 55.35 38.3 55.3 38.15 54.95 38.2 54.95 38.45 54.95 38.55 55.05 38.5 55.15 38.85 55.15 39.2 55.15 39.55 55.15 39.85 54.95 39.5 54.95 39.1 54.95 39.05 54.75 38.8 54.75 38.45 54.75 38.2 54.5 38.25 54.5 38.5 54.45 38.65 54.45 38.7 54.45 38.8 54.45 39.2 54.5 39.6 54.6 39.95 54.3 39.65 54.2 39.2 53.85 38.95 53.8 38.65 53.75 38.85 53.65 39.2 53.65 39.25 53.8 39.55 53.75 39.9 53.8 40.05 54.25 40.55 54.35 40.75 54.2 40.25 54.05 39.75 Q53.95 39.55 54.15 39.55 L54.35 39.85 54.45 40.25 54.6 40.65 54.65 40.8 54.65 40.75 54.75 40.8 54.85 40.85 54.85 40.9 54.9 40.95 54.9 41.55 55.0 42.35 55.1 43.15 55.05 43.75 54.95 43.75 54.85 43.7 54.8 43.65 54.8 43.6 54.8 43.1 54.75 42.5 54.6 41.85 54.6 42.1 54.6 43.1 54.5 43.8 54.5 44.05 54.35 44.0 Q53.65 44.65 52.7 44.95 L52.65 45.05 52.65 45.1 52.6 45.15 52.45 45.1 52.4 45.1 52.4 45.05 51.95 45.2 52.0 45.2 52.05 45.3 52.1 45.3 52.1 45.35 52.15 45.4 52.1 45.55 52.05 45.7 51.95 45.85 51.9 45.9 51.8 45.75 51.7 45.6 51.65 45.45 51.65 45.35 51.7 45.3 51.75 45.25 51.8 45.25 51.8 45.2 51.6 45.25 51.6 45.5 51.5 45.85 51.45 45.85 51.35 45.8 51.3 45.6 51.3 45.4 51.3 45.35 51.15 45.35 51.15 45.7 51.1 46.15 51.1 46.2 50.9 45.95 50.85 45.5 50.85 45.45 50.7 45.45 50.8 45.85 50.8 46.25 50.45 45.7 50.45 45.5 49.95 45.6 50.05 45.9 50.15 46.35 49.75 45.95 49.65 45.65 49.1 45.7 48.25 45.8 48.3 45.85 48.35 45.95 48.35 46.05 48.45 46.05 48.55 46.1 48.65 46.15 48.65 46.25 48.7 46.35 48.7 46.45 48.8 46.55 48.55 46.55 48.25 46.45 48.2 46.4 48.2 46.25 48.25 46.2 48.3 46.1 48.3 46.0 48.25 45.9 48.2 45.8 47.65 45.9 47.6 45.95 47.6 46.1 47.65 46.2 47.6 46.4 47.5 46.35 47.4 46.25 47.2 46.05 47.15 45.95 46.9 46.0 47.0 46.1 47.1 46.2 47.1 46.3 47.1 46.35 47.05 46.5 46.8 46.5 46.65 46.4 46.65 46.25 46.7 46.2 46.75 46.15 46.8 46.1 46.85 46.05 46.85 46.0 46.45 46.05 46.5 46.05 46.45 46.2 46.35 46.35 46.35 46.45 46.25 46.55 46.1 46.4 46.05 46.25 46.0 46.15 46.0 46.1 45.95 46.3 45.8 46.6 45.55 46.65 45.5 46.55 45.5 46.4 45.55 46.4 45.55 46.3 45.6 46.3 45.6 46.15 45.5 46.2 45.4 46.4 45.2 46.25 43.3 46.55 43.3 46.75 43.35 47.1 43.45 47.45 43.8 48.1 44.15 48.7 44.5 49.3 44.6 49.65 44.65 50.25 44.6 50.8 44.45 51.4 44.85 51.6 47.05 52.2 48.45 52.4 48.45 52.2 48.45 51.6 48.5 50.9 48.6 50.5 48.75 51.1 48.75 51.75 48.75 52.3 48.9 51.75 49.0 51.2 49.0 50.65 49.0 50.6 49.05 50.55 49.15 50.45 49.25 50.4 49.35 50.4 49.4 50.5 49.45 50.55 49.5 50.6 49.5 50.65 49.3 51.1 49.15 51.7 49.05 52.35 49.05 52.5 49.25 51.95 49.45 51.15 Q49.5 50.85 49.7 50.7 49.9 50.95 49.75 51.35 L49.5 52.0 49.35 52.55 49.45 52.6 49.5 52.3 49.6 51.85 49.85 51.55 49.85 51.5 Q50.05 51.65 49.9 51.95 49.75 52.15 49.75 52.45 L49.75 52.65 50.0 52.65 50.0 52.5 49.95 52.15 50.1 51.95 50.25 52.2 50.2 52.55 50.2 52.7 50.65 52.75 50.65 52.7 50.6 52.3 Q50.55 52.05 50.75 52.0 L50.9 52.3 50.85 52.7 50.85 52.75 51.05 52.8 51.2 52.3 51.3 51.5 51.35 50.7 51.65 50.2 51.6 51.05 51.45 51.9 51.25 52.8 51.5 52.85 51.5 52.6 51.75 51.55 52.0 50.4 52.3 49.7 52.25 50.75 51.95 51.85 51.85 52.5 51.85 52.4 52.0 51.75 Q52.05 51.4 52.25 51.3 L52.35 51.9 52.1 52.55 52.0 52.9 52.15 52.95 52.35 52.4 52.6 51.75 52.85 51.35 Q53.05 51.6 52.85 51.95 L52.65 52.5 52.65 52.45 52.7 52.4 52.75 52.35 52.85 52.3 52.85 52.25 52.9 52.2 52.9 52.05 52.95 52.05 52.95 52.35 53.0 52.4 53.05 52.45 53.05 52.5 53.1 52.55 53.15 52.5 53.2 52.45 53.25 52.5 53.3 52.5 53.35 52.6 53.4 52.65 53.45 52.7 53.45 52.75 53.4 52.9 53.3 53.1 53.5 53.15 53.75 52.45 54.0 51.55 54.3 50.95 54.2 51.8 54.2 51.75 54.3 51.65 54.45 51.6 54.5 51.6 54.5 51.65 54.55 51.7 54.6 51.75 54.6 51.8 54.65 51.85 54.65 51.9 54.25 52.5 54.0 53.1 53.9 53.45 53.95 53.5 54.0 53.2 54.2 52.9 Q54.4 53.05 54.25 53.3 L54.15 53.75 54.25 54.0 54.3 54.0 54.35 53.75 Q54.35 53.55 54.5 53.5 L54.55 53.85 54.45 54.1 54.5 54.35 54.55 54.8 54.6 55.25 54.55 55.65 54.4 55.55 54.35 55.65 54.25 55.65 54.2 55.65 54.1 55.6 54.05 55.55 54.0 55.45 54.0 55.5 54.1 55.65 54.15 55.7 54.2 55.8 54.2 55.85 54.15 55.9 54.15 55.95 54.15 56.05 54.15 56.35 54.2 56.7 54.25 57.0 Q54.05 57.1 54.0 56.75 L53.95 56.3 53.95 56.2 53.9 56.4 53.85 56.5 53.8 56.6 53.8 56.65 53.75 56.4 53.75 56.15 53.75 56.0 53.75 55.9 53.65 55.9 53.65 56.0 53.65 56.6 53.55 57.1 Q53.3 57.0 53.35 56.55 L53.35 56.0 53.05 56.3 53.05 56.8 53.1 57.35 Q52.85 57.35 52.85 57.0 L52.8 56.5 52.6 56.65 52.6 57.0 52.6 57.4 52.65 57.7 52.4 57.35 52.4 56.9 52.4 56.75 52.0 57.0 52.0 57.1 52.05 57.4 52.05 57.65 51.9 57.6 52.0 58.05 52.0 58.1 52.05 58.25 52.1 58.35 52.2 58.45 52.25 58.6 52.25 58.65 52.15 58.7 52.1 58.75 52.0 58.8 52.0 58.9 52.0 59.0 51.95 59.05 51.95 59.1 51.95 59.2 51.9 59.2 51.85 59.05 51.8 58.95 51.85 58.8 51.8 58.65 51.75 58.5 51.8 58.45 51.8 58.4 51.85 58.4 Q51.7 58.3 51.7 58.05 L51.7 57.95 51.5 57.65 51.45 57.3 51.35 57.35 51.4 57.65 51.35 57.85 51.35 58.2 51.45 58.5 51.5 58.55 51.45 58.6 51.45 58.7 51.45 58.85 51.45 58.95 51.45 59.1 51.55 59.2 51.6 59.3 51.65 59.4 51.65 59.45 51.55 59.6 51.3 59.6 51.15 59.55 51.15 59.35 51.2 59.3 51.25 59.25 51.35 59.15 51.35 59.0 51.35 58.85 51.35 58.7 51.4 58.6 51.15 58.45 51.1 58.3 51.05 58.0 50.95 57.85 50.9 57.65 50.65 57.8 50.65 57.85 50.65 57.9 50.8 58.05 50.9 58.15 50.95 58.3 50.95 58.35 50.9 58.6 50.85 58.75 50.9 58.9 50.95 59.1 50.9 59.15 50.75 59.05 50.65 58.95 50.65 58.8 50.65 58.7 50.6 58.65 50.5 58.6 50.4 58.55 50.25 59.0 50.1 58.65 50.1 58.15 50.1 58.05 50.05 58.1 50.05 58.4 49.95 58.8 49.7 59.05 49.65 58.95 49.55 59.2 49.4 59.1 49.35 59.3 49.3 59.3 49.3 59.4 49.35 59.55 49.3 59.65 48.95 59.5 48.85 59.9 48.7 59.75 48.65 59.45 48.65 59.15 48.6 58.85 48.6 58.75 48.3 58.9 48.4 59.25 48.5 59.85 48.6 60.35 Q48.25 60.35 48.25 59.95 L48.1 59.3 48.05 59.05 47.85 59.1 47.85 59.5 47.9 60.2 47.8 60.85 Q47.55 60.65 47.55 60.15 L47.55 59.35 47.55 59.25 47.5 59.25 47.45 59.35 47.35 60.2 47.2 60.85 Q46.95 60.6 47.05 60.05 L47.2 59.35 46.85 59.5 46.85 59.6 46.95 60.4 46.9 61.05 46.6 60.25 46.6 59.6 45.85 59.85 46.05 60.3 46.3 60.8 46.5 61.2 Q46.05 61.25 45.95 60.8 L45.8 60.2 45.7 59.9 45.35 60.0 45.4 60.2 45.55 60.8 45.5 61.25 Q45.1 61.15 45.1 60.7 L45.0 60.1 44.7 60.2 44.7 60.55 44.75 61.0 44.75 61.45 44.7 61.45 44.4 61.15 44.35 61.2 Q44.1 61.1 44.1 60.7 L44.1 60.35 43.7 60.45 43.95 60.9 44.15 61.35 Q43.85 61.2 43.65 60.9 L43.4 60.5 42.8 60.65 42.85 61.0 42.8 61.05 42.7 61.05 42.6 61.05 42.55 61.0 42.45 60.75 42.15 60.8 42.15 60.85 42.2 60.95 42.0 60.9 42.05 61.15 42.1 61.55 42.1 61.65 41.85 61.3 41.75 60.85 41.5 60.9 41.5 61.25 41.45 61.5 Q41.25 61.45 41.3 61.2 L41.3 60.95 40.8 61.0 40.8 61.15 40.8 61.55 Q40.55 61.6 40.55 61.2 L40.55 61.05 39.85 61.1 39.75 61.55 Q39.7 61.85 39.45 61.8 L39.45 61.3 39.5 61.15 38.9 61.2 38.8 61.7 38.5 61.9 38.55 61.4 38.65 61.2 38.3 61.25 38.3 61.35 38.25 61.65 38.25 61.7 38.25 61.8 38.3 61.9 38.25 61.95 38.25 62.0 38.15 62.1 38.05 62.1 37.95 62.1 37.85 62.55 Q37.6 62.4 37.65 62.0 L37.6 61.4 37.6 61.3 37.0 61.3 37.05 61.6 37.1 62.05 37.2 62.45 37.15 62.8 Q36.95 62.7 36.9 62.4 L36.85 61.9 36.9 61.45 36.9 61.3 35.05 61.4 34.65 61.45 34.65 61.6 34.6 61.9 34.35 61.65 34.35 61.45 34.1 61.5 34.1 61.6 34.0 61.75 33.85 61.65 33.85 61.5 33.6 61.55 33.4 61.8 33.3 61.6 33.1 61.65 33.0 61.8 32.8 62.05 Q32.6 62.0 32.7 61.75 L32.3 61.85 32.2 62.15 31.95 62.4 Q31.75 62.25 31.9 62.0 L32.0 61.9 30.55 62.05 30.55 62.15 30.5 62.35 30.45 62.1 30.45 62.05 30.15 62.0 30.2 62.1 30.2 62.15 30.15 62.3 29.95 62.4 29.75 62.3 29.75 62.25 29.7 62.2 29.7 62.1 29.75 62.05 29.8 62.0 29.35 62.1 29.5 62.2 29.65 62.35 29.65 62.4 29.6 62.45 29.5 62.5 29.4 62.5 29.35 62.5 29.0 62.3 28.85 62.15 28.5 62.15 28.45 62.15 28.65 62.25 28.7 62.35 28.7 62.4 28.15 62.35 28.0 62.15 27.75 62.15 27.65 62.35 27.5 62.6 27.45 62.55 27.4 62.45 27.35 62.3 27.35 62.2 27.35 62.1 27.0 62.1 27.05 62.3 27.1 62.55 26.8 62.4 26.7 62.1 26.7 62.05 26.4 62.05 26.5 62.2 26.65 62.4 26.7 62.6 26.7 62.65 26.4 62.6 26.2 62.35 26.1 62.05 25.15 62.1 25.2 62.1 25.25 62.15 25.25 62.3 25.2 62.35 25.2 62.4 25.2 62.5 25.2 62.55 25.25 62.65 25.3 62.75 25.3 62.85 25.3 62.9 25.2 62.9 25.1 62.9 25.05 62.85 25.0 62.75 24.95 62.65 24.9 62.5 24.8 62.35 24.75 62.2 24.8 62.1 24.45 62.1 24.5 62.2 24.55 62.25 24.65 62.3 24.65 62.35 24.7 62.55 24.65 62.6 24.7 62.7 24.7 62.85 24.65 63.0 Q24.5 63.05 24.45 62.9 L24.45 62.8 24.3 62.55 24.2 62.5 24.2 62.45 24.25 62.4 24.25 62.3 24.3 62.25 24.4 62.2 24.4 62.1 20.65 62.15 20.75 62.4 20.9 62.75 20.9 63.05 Q20.65 63.05 20.55 62.8 L20.45 62.4 20.4 62.15 19.65 62.1 19.7 62.2 19.85 62.35 20.0 62.6 20.25 62.9 20.45 63.1 20.55 63.3 20.25 63.25 19.95 62.85 19.65 62.55 19.45 62.25 19.4 62.1 18.95 62.1 18.95 62.15 18.95 62.35 18.9 62.6 18.85 62.7 18.75 62.6 18.75 62.35 18.7 62.15 18.7 62.1 18.3 62.1 18.45 62.5 18.45 62.8 18.2 62.6 18.2 62.75 Q18.0 62.9 17.8 62.6 L17.6 62.15 17.6 62.1 17.1 62.05 17.1 62.1 17.45 62.4 17.7 62.7 Q17.35 62.75 17.15 62.5 L16.8 62.1 16.8 62.05 16.65 62.05 13.55 61.7 13.25 61.65 13.3 61.8 13.35 62.1 13.35 62.15 13.0 61.95 12.95 61.85 12.6 61.85 12.3 61.55 12.25 61.5 11.75 61.4 11.85 61.65 11.9 61.7 12.0 61.75 12.0 61.8 12.05 61.85 12.0 61.9 11.85 61.95 11.65 61.95 11.5 61.6 11.45 61.4 11.0 61.35 11.0 61.4 11.15 61.5 11.25 61.65 11.3 61.8 11.3 61.9 10.85 61.8 10.6 61.35 10.6 61.3 10.35 61.3 10.4 61.5 10.4 61.75 10.35 61.8 10.25 61.8 10.15 61.75 10.1 61.7 10.05 61.5 10.0 61.3 9.9 61.3 9.9 61.4 9.9 61.7 9.75 61.95 9.6 61.7 9.6 61.4 9.6 61.3 9.5 61.3 9.45 61.35 9.45 61.4 9.4 61.45 9.35 61.5 9.35 61.55 9.4 61.7 9.45 61.85 9.55 62.0 9.55 62.15 9.35 62.15 9.2 61.95 9.15 61.75 9.1 61.6 9.15 61.55 9.1 61.5 9.05 61.45 9.0 61.4 9.0 61.25 8.05 60.95 7.8 60.95 7.55 60.65 7.5 60.55 7.55 60.55 7.65 60.55 Q7.4 60.5 7.4 60.15 L7.45 59.7 7.4 59.25 6.45 58.55 6.5 58.85 6.65 59.25 6.65 59.6 Q6.35 59.6 6.3 59.25 L6.2 58.8 6.2 58.7 5.95 58.45 5.95 58.15 5.75 58.0 5.75 58.05 5.8 58.25 5.9 58.45 5.85 58.6 5.8 58.6 5.7 58.65 5.55 58.6 5.5 58.75 Q5.2 58.75 4.95 58.4 L4.75 57.85 4.65 57.35 4.65 57.3 4.6 57.25 4.45 57.15 4.45 57.35 4.5 57.75 4.6 58.0 4.65 58.1 4.7 58.45 Q4.45 58.5 4.35 58.15 L4.25 57.7 4.2 57.25 Q4.15 57.1 4.25 57.05 L3.5 56.8 3.25 56.5 2.7 55.7 2.7 55.75 2.6 56.05 2.5 56.05 2.45 55.85 2.45 55.65 2.45 55.4 2.15 55.0 2.1 55.15 2.15 55.65 2.05 56.1 1.9 55.65 1.9 55.45 1.85 55.8 1.8 55.8 1.65 55.85 1.55 55.75 1.4 55.7 1.3 55.65 1.0 55.2 0.65 54.7 0.35 54.25 Q0.2 53.95 0.4 53.85 L0.4 53.8 0.8 54.35 1.15 54.9 1.5 55.4 1.65 55.6 1.6 55.45 1.5 54.9 1.45 54.35 1.45 54.15 1.05 53.75 1.0 53.3 0.95 53.35 0.65 52.95 0.5 52.35 0.3 51.85 Q0.1 51.55 0.35 51.45 L0.65 51.9 0.8 52.45 0.95 52.95 1.05 53.15 1.15 52.9 1.05 52.8 1.0 52.7 0.95 52.55 0.85 52.4 0.85 52.25 0.85 52.05 0.85 51.85 0.9 51.65 0.95 51.65 1.1 51.9 1.1 51.75 Q1.1 51.6 1.25 51.6 L1.4 51.65 1.35 51.5 1.3 51.2 1.35 51.15 1.4 51.1 1.45 51.05 1.55 51.0 1.65 51.05 1.7 51.05 1.65 50.95 1.65 50.9 1.7 50.85 1.7 50.8 1.75 50.75 1.85 50.7 1.9 50.7 2.0 50.75 1.85 50.35 Q1.85 50.15 2.0 50.1 L2.2 50.4 2.25 50.7 2.35 50.85 2.45 50.7 2.35 50.25 2.2 49.7 2.4 49.4 2.55 49.8 2.65 50.25 2.7 50.4 3.0 50.15 3.0 49.75 2.9 49.35 2.85 49.3 2.9 49.25 2.95 49.2 3.0 49.15 3.1 49.1 3.2 49.15 3.3 49.2 3.3 49.25 3.35 49.3 3.3 49.65 3.25 49.95 Q3.95 49.4 4.8 49.0 11.15 46.15 15.0 40.6 17.5 37.1 21.0 34.8 23.0 33.45 24.25 31.2 25.3 29.4 25.55 27.4 L25.45 27.2 24.8 26.6 23.95 26.05 23.85 25.95 23.8 26.05 23.75 26.15 23.75 26.2 23.7 26.3 23.5 26.25 23.4 26.1 23.35 25.95 23.35 25.85 23.4 25.8 23.4 25.75 23.45 25.7 23.5 25.65 23.1 25.35 23.1 25.65 23.0 26.0 Q22.75 26.0 22.8 25.75 L22.8 25.35 22.8 25.1 22.3 24.7 22.05 24.1 22.05 24.0 22.05 23.95 22.0 23.85 21.95 23.7 21.95 23.6 21.9 23.5 21.8 23.35 21.85 23.7 21.65 24.15 21.5 23.65 21.5 23.05 21.5 22.8 21.25 22.7 21.2 23.0 21.1 23.3 21.15 23.65 21.15 24.0 21.15 24.1 20.9 23.85 20.9 23.5 20.85 23.15 20.75 22.75 20.8 22.7 20.8 22.65 20.85 22.6 20.9 22.6 20.7 22.55 20.65 22.7 20.6 22.7 Q20.45 22.75 20.4 22.6 L20.35 22.45 20.2 22.4 20.15 22.55 20.05 22.7 19.95 22.7 19.85 22.65 19.8 22.65 19.8 22.6 19.75 22.5 19.75 22.4 19.75 22.3 19.7 22.3 19.7 22.35 19.7 22.45 19.65 22.55 19.6 22.6 19.65 22.7 19.65 22.8 19.6 22.85 19.55 22.95 19.5 23.0 19.3 23.0 19.2 22.9 19.15 22.85 19.15 22.8 19.1 22.9 18.8 22.5 18.7 22.05 18.25 21.95 18.3 22.2 18.45 22.55 18.65 22.9 18.8 23.15 Q18.55 23.2 18.35 22.9 L18.15 22.45 18.0 22.0 18.0 21.9 17.15 21.75 17.15 21.85 17.1 22.15 16.8 21.8 16.8 21.7 16.55 21.65 16.55 21.9 16.4 22.2 16.25 21.85 16.3 21.6 16.2 21.55 15.95 21.5 15.95 21.65 16.05 21.9 16.05 22.0 15.75 21.9 15.65 21.55 15.65 21.45 14.95 21.3 14.95 21.35 15.25 21.8 15.45 22.25 Q15.05 22.25 14.9 21.85 L14.65 21.3 14.6 21.25 Q12.7 20.8 10.95 20.05 L8.55 19.05 8.6 19.25 8.6 19.3 8.45 19.25 8.3 19.15 8.2 19.0 8.05 18.9 8.05 18.8 7.45 18.55 7.45 18.6 7.65 19.1 7.75 19.45 7.3 19.15 7.25 19.05 7.2 19.05 7.15 19.05 7.05 19.0 6.95 19.0 6.85 18.8 6.75 18.65 6.6 18.4 6.45 18.2 6.4 18.15 6.4 18.05 6.45 18.0 5.85 17.7 5.7 17.6 5.65 17.65 5.5 17.7 5.75 17.95 6.2 18.2 6.5 18.55 6.75 18.9 6.75 18.95 Q6.5 19.0 6.35 18.75 L5.95 18.3 5.55 17.9 5.5 17.7 5.3 17.45 5.15 17.1 5.1 17.05 5.15 17.15 5.15 17.5 4.85 17.1 4.8 16.65 4.65 16.2 Q4.6 16.05 4.7 16.0 L4.65 15.85 4.45 15.05 4.2 14.3 Q4.05 13.95 4.3 13.8 L4.5 14.55 4.7 15.3 4.95 16.0 5.0 16.45 5.05 16.4 5.1 16.0 4.95 15.35 4.8 14.75 4.7 14.2 4.75 14.15 4.75 14.1 4.85 14.05 4.95 14.0 5.05 14.05 5.1 14.1 5.15 14.15 5.2 14.2 5.1 14.7 5.2 15.3 5.2 15.1 Q5.15 14.7 5.35 14.5 L5.55 15.15 6.25 14.55 Q8.85 13.0 11.65 11.85 17.3 9.65 23.15 9.15 L31.95 9.6 Q36.05 10.05 39.7 11.8 43.85 13.8 45.1 18.25 46.0 21.35 44.75 24.45 M60.1 12.95 L60.05 13.05 60.05 13.15 60.05 13.25 60.0 13.35 60.0 13.4 60.05 13.5 60.1 13.5 60.15 13.55 60.15 13.65 60.15 13.75 60.1 13.85 60.1 13.95 60.05 14.0 60.05 14.05 59.95 14.1 59.85 14.15 59.8 14.2 59.8 14.45 59.8 14.7 59.75 14.9 59.5 15.05 Q59.45 14.85 59.55 14.6 L59.6 14.15 59.6 13.8 Q59.6 13.5 59.9 13.4 L59.95 13.3 59.95 13.2 60.0 13.1 60.0 13.0 60.05 12.95 60.1 12.95 M60.65 13.85 L60.5 14.2 60.5 14.6 60.35 14.9 Q60.2 14.85 60.2 14.6 L60.3 14.2 60.35 13.8 60.55 13.5 60.65 13.85 M59.45 13.45 L59.35 14.05 59.4 14.65 59.3 15.1 Q59.05 14.95 59.1 14.55 L59.15 13.9 59.15 13.3 59.35 12.85 59.45 13.45 M58.65 13.35 L58.8 14.05 59.0 14.7 59.05 15.2 Q58.7 15.05 58.6 14.55 L58.45 13.8 58.3 13.1 Q58.2 12.8 58.45 12.7 L58.65 13.35 M60.0 16.6 L60.15 16.8 60.1 17.05 60.05 17.3 59.9 17.55 59.8 17.35 59.9 17.1 59.9 16.8 59.95 16.6 60.0 16.6 M58.85 16.3 L58.9 16.3 58.95 16.35 59.0 16.4 59.0 16.55 59.1 16.8 59.15 17.1 59.15 17.35 59.15 17.4 58.9 17.2 58.8 16.9 58.7 16.5 58.85 16.3 M60.45 39.55 L60.55 39.95 60.6 40.35 60.7 40.7 60.4 40.4 60.3 39.9 60.2 39.45 Q60.15 39.2 60.35 39.15 L60.45 39.55 M58.1 37.55 Q58.0 37.65 58.05 37.8 L58.05 37.9 58.1 37.55 M56.6 39.1 L56.6 39.25 56.6 39.4 56.55 39.5 56.5 39.55 56.5 39.45 56.5 39.3 56.5 39.15 56.5 39.05 56.55 39.0 56.6 39.1 M55.95 41.7 L56.0 41.65 56.05 41.65 56.05 41.55 56.0 41.15 Q56.0 40.95 56.15 40.9 L56.3 41.15 56.25 41.5 56.25 41.6 56.3 41.6 56.35 41.65 56.4 41.7 56.4 41.75 56.35 42.1 56.25 42.45 56.2 42.9 56.15 43.35 56.1 43.4 56.0 43.15 56.0 42.85 56.0 42.5 56.1 42.2 56.0 41.95 55.95 41.85 55.95 41.75 55.95 41.7 M55.7 41.7 L55.75 42.0 55.75 41.9 55.8 41.85 55.8 42.05 55.75 42.2 55.75 42.55 55.65 42.55 55.65 42.6 55.7 42.8 55.8 42.9 55.8 43.05 55.75 43.2 55.65 43.3 55.55 43.4 55.5 43.5 55.45 43.5 55.4 43.35 55.35 43.45 Q55.1 43.35 55.1 42.9 L55.15 42.3 55.15 41.65 Q55.1 41.35 55.3 41.25 L55.45 41.6 55.45 41.05 55.6 40.8 55.75 41.2 55.7 41.7 M56.8 41.2 L56.85 41.3 56.85 41.4 56.85 41.5 56.85 41.6 56.95 41.75 57.0 41.8 57.05 41.9 56.95 42.05 56.7 42.1 56.55 42.0 56.55 41.8 56.6 41.75 56.65 41.75 56.7 41.65 56.75 41.6 56.75 41.55 56.75 41.45 56.75 41.35 56.75 41.25 56.8 41.2 M56.65 42.3 L56.65 42.55 56.7 42.65 56.8 42.75 56.85 42.85 56.8 42.95 56.65 43.15 56.65 43.2 56.6 43.3 56.55 43.3 56.55 43.2 56.55 43.15 56.45 43.0 56.4 42.95 56.35 42.95 56.35 42.9 56.35 42.8 56.45 42.7 56.55 42.6 56.55 42.5 56.55 42.4 56.55 42.3 56.55 42.25 56.6 42.25 56.65 42.3 M57.35 42.45 L57.3 42.8 57.3 43.15 57.25 43.45 Q57.0 43.45 57.05 43.15 L57.1 42.75 57.1 42.35 57.25 42.15 57.35 42.45 M59.0 40.95 L59.2 41.7 59.35 42.45 59.6 43.15 59.6 43.7 Q59.25 43.55 59.15 43.05 L58.95 42.25 58.8 41.45 Q58.75 41.1 59.0 40.95 M60.1 42.9 L60.1 43.0 60.2 43.1 60.25 43.15 60.25 43.0 60.45 42.9 60.5 43.05 60.5 43.25 60.55 43.45 60.45 43.65 60.4 43.65 60.35 43.5 60.35 43.4 60.25 43.45 60.1 43.55 59.95 43.5 59.8 43.6 Q59.6 43.45 59.65 43.15 L59.6 42.6 59.5 42.05 Q59.4 41.8 59.65 41.75 L59.8 42.25 59.85 42.75 59.95 43.15 60.0 43.05 60.05 43.0 60.05 42.9 60.05 42.75 60.05 42.6 60.05 42.45 60.1 42.6 60.1 42.75 60.1 42.9 M53.5 38.25 L53.5 38.35 53.55 38.35 53.6 38.25 53.5 38.25 M53.2 38.3 L53.1 38.3 53.1 38.4 53.2 38.9 53.25 39.25 53.15 39.25 53.1 39.6 53.1 39.75 53.3 39.8 53.5 39.9 53.5 39.8 53.45 39.35 53.45 39.15 53.4 39.1 53.3 39.1 53.3 39.05 53.25 39.0 53.25 38.6 53.2 38.3 M53.95 38.25 L54.0 38.45 54.05 38.4 54.05 38.25 53.95 38.25 M54.2 39.05 L54.15 39.05 54.15 39.0 54.1 38.85 54.2 39.2 54.2 39.05 M52.05 38.25 L52.05 38.35 52.05 38.45 52.05 38.55 52.05 38.65 52.1 38.65 52.15 38.75 52.2 38.8 52.15 38.55 52.15 38.25 52.05 38.25 M52.0 38.55 L52.0 38.45 52.0 38.35 52.0 38.25 51.8 38.25 51.75 38.65 51.75 38.8 51.8 38.75 51.85 38.7 51.9 38.7 52.0 38.65 52.0 38.55 M52.45 38.55 L52.5 38.55 52.5 38.65 52.5 38.75 52.5 38.8 52.5 38.9 52.55 39.05 52.55 39.1 52.55 39.35 52.65 39.55 52.9 39.7 52.9 39.55 52.85 39.15 52.95 38.95 52.95 38.85 52.85 38.3 52.45 38.3 52.45 38.5 52.45 38.55 M51.3 38.2 L51.35 38.4 51.45 38.6 51.45 38.3 51.5 38.25 51.3 38.2 M51.75 38.9 L51.75 39.05 51.8 39.05 51.75 38.9 M54.55 41.25 L54.55 41.3 54.55 41.25 M55.45 42.15 L55.45 41.8 55.45 42.35 55.45 42.7 55.55 42.65 55.6 42.55 Q55.45 42.45 55.45 42.15 M51.9 45.2 L51.8 45.2 51.9 45.2 M62.5 27.35 L62.5 27.4 62.55 27.45 62.55 27.5 62.4 27.95 62.3 28.5 62.2 29.1 62.05 29.7 Q61.8 29.6 61.9 29.35 L62.0 28.85 62.1 28.3 62.2 27.8 62.15 27.75 62.15 27.7 62.1 27.65 62.1 27.6 62.05 27.55 62.05 27.45 62.1 27.4 62.15 27.35 62.3 27.25 62.4 27.3 62.5 27.35 M62.9 27.45 L62.9 27.5 62.85 27.55 62.85 27.65 62.9 27.7 62.95 27.75 62.95 27.8 62.85 28.35 62.65 28.85 62.5 29.4 62.5 29.5 62.55 29.5 62.7 29.2 62.75 28.9 62.85 28.65 62.9 28.35 62.95 28.35 62.9 28.65 62.8 28.9 62.75 29.2 62.65 29.45 62.7 29.55 62.75 29.65 62.8 29.75 62.8 29.8 62.7 29.95 62.6 30.1 62.45 30.2 62.4 30.1 62.4 30.0 62.35 29.9 Q62.15 29.8 62.2 29.55 L62.3 29.1 62.35 28.7 62.5 28.35 62.5 28.15 62.45 27.95 62.55 27.75 62.75 27.6 62.8 27.55 62.8 27.45 62.9 27.45 M61.75 28.6 L61.75 29.15 61.65 29.55 Q61.4 29.4 61.5 29.05 L61.55 28.45 61.55 27.9 Q61.5 27.6 61.7 27.55 L61.75 28.05 61.75 28.6 M63.75 30.6 L63.75 31.0 63.75 31.35 63.55 31.6 63.45 31.2 63.5 30.8 63.5 30.4 63.7 30.2 63.75 30.6 M64.0 34.0 L64.0 34.1 64.0 34.3 64.05 34.15 64.1 33.85 64.0 34.0 M62.75 35.0 L62.75 35.1 62.8 35.2 62.9 35.25 63.0 35.3 63.0 35.0 63.0 34.8 62.75 35.0 M61.55 35.85 L61.6 36.0 61.6 35.8 61.55 35.85 M63.55 34.25 L63.55 34.3 63.55 34.25 M62.35 38.65 L62.35 38.7 62.4 38.75 62.4 38.8 62.3 39.0 62.35 38.95 62.4 38.85 62.45 38.8 62.45 39.05 62.5 39.1 62.55 39.15 62.55 39.2 62.6 39.25 62.6 39.3 62.55 39.35 62.55 39.4 62.5 39.4 62.45 39.45 62.45 39.5 62.35 39.5 62.2 39.75 62.1 40.0 62.0 40.25 61.8 40.45 61.75 40.55 61.8 40.15 61.95 39.85 62.05 39.55 62.1 39.25 62.05 39.3 61.8 39.75 61.6 40.3 61.35 40.8 61.35 40.35 61.55 39.85 61.75 39.35 61.9 38.8 61.95 38.7 62.0 38.65 62.05 38.6 62.15 38.6 62.2 38.55 62.3 38.6 62.35 38.65 M61.55 39.0 L61.5 39.05 61.6 39.15 61.6 39.2 61.65 39.25 61.65 39.4 61.6 39.45 61.55 39.45 61.45 39.55 61.4 39.55 61.35 39.8 61.3 40.0 61.25 40.25 61.15 40.45 61.1 40.5 61.1 40.3 61.1 40.1 61.15 39.85 61.2 39.65 61.25 39.5 61.2 39.45 61.2 39.4 61.15 39.35 61.15 39.25 61.2 39.2 61.2 39.15 61.25 39.1 61.3 39.05 61.4 39.05 61.45 39.0 61.45 38.95 61.5 38.9 61.5 38.8 61.55 38.8 61.55 39.0 M60.9 39.1 L60.95 39.5 61.05 39.9 61.05 40.35 60.95 40.75 60.75 40.35 60.75 39.85 60.8 39.4 60.9 39.1 M62.25 40.0 L62.25 40.1 62.25 40.25 62.25 40.3 62.25 40.4 62.3 40.45 62.35 40.5 62.4 40.55 62.4 40.6 62.45 40.65 62.4 40.75 62.35 40.85 62.25 40.95 62.1 40.95 62.0 40.85 62.0 40.8 61.95 40.75 61.95 40.6 62.0 40.55 62.05 40.5 62.1 40.5 62.1 40.45 62.2 40.45 62.2 40.3 62.2 40.15 62.2 40.0 62.25 39.9 62.25 40.0 M62.7 40.1 L62.7 40.35 62.7 40.6 62.6 40.85 62.55 40.6 62.6 40.35 62.6 40.1 62.65 39.9 62.7 39.85 62.7 40.1 M20.55 23.2 L20.65 23.25 20.65 23.3 20.7 23.35 20.7 23.45 20.65 23.5 20.6 23.55 20.55 23.6 20.55 23.65 20.6 23.7 20.6 23.8 20.6 23.95 20.65 24.1 20.65 24.25 20.45 24.15 20.35 23.9 20.3 23.7 20.2 23.4 20.2 23.35 20.25 23.3 20.3 23.25 20.35 23.1 20.45 23.1 20.55 23.2 M21.2 22.7 L21.25 22.7 21.2 22.7 M21.55 24.65 L21.7 24.9 21.75 25.2 21.95 25.5 22.05 25.85 22.15 25.9 22.25 25.95 22.25 26.05 Q21.9 26.25 21.8 25.8 L21.55 25.35 21.4 24.95 21.5 24.65 21.55 24.65 M7.8 2.15 L7.9 2.55 7.9 2.95 7.9 3.4 7.85 3.75 Q7.7 3.65 7.7 3.35 L7.7 2.9 7.7 2.4 Q7.65 2.15 7.8 2.15 M8.4 2.0 L8.55 2.35 8.6 2.75 8.7 3.1 8.8 3.45 8.4 3.2 8.3 2.7 8.25 2.25 Q8.25 2.05 8.4 2.0 M9.45 1.9 L9.6 2.1 9.7 2.35 9.8 2.6 9.8 2.85 9.6 2.65 9.5 2.4 9.4 2.1 Q9.25 1.95 9.4 1.9 L9.45 1.9 M7.35 2.25 L7.45 2.3 7.45 2.35 7.5 2.45 7.5 2.6 7.45 2.75 7.35 2.9 7.4 3.0 7.5 3.15 7.5 3.35 7.55 3.5 7.55 3.65 7.5 3.65 7.4 3.55 7.35 3.5 7.25 3.35 7.2 3.0 7.05 2.7 7.0 2.45 7.05 2.35 7.1 2.3 7.15 2.25 7.25 2.2 7.35 2.25 M6.5 2.55 L6.7 2.8 6.95 3.1 7.1 3.45 7.25 3.75 6.95 3.55 6.7 3.2 6.5 2.85 6.5 2.55 M2.55 9.0 L2.6 9.15 2.6 9.2 2.55 9.25 2.4 9.1 2.4 8.9 2.4 8.8 2.4 8.7 2.5 8.7 2.55 8.85 2.55 9.0 M5.05 7.45 L5.35 7.8 5.55 8.25 5.8 8.65 6.0 9.15 5.55 8.85 5.25 8.3 4.95 7.8 Q4.8 7.55 5.05 7.45 M1.6 7.65 L1.6 7.75 1.6 7.85 1.6 7.9 1.7 8.0 1.75 8.05 1.75 8.1 1.8 8.1 1.7 8.3 1.65 8.4 1.75 8.3 1.8 8.2 1.85 8.15 1.9 8.25 1.95 8.3 2.0 8.35 2.05 8.45 2.1 8.5 2.05 8.6 2.05 8.65 2.0 8.7 2.0 8.75 2.0 8.85 2.0 8.9 1.95 8.95 1.9 8.9 1.75 8.75 1.65 8.65 1.6 8.65 1.55 8.8 1.45 8.65 1.45 8.5 1.4 8.35 1.35 8.25 1.3 8.15 1.3 8.4 1.35 8.65 1.4 8.9 1.4 9.0 1.15 8.75 1.1 8.45 1.05 8.1 0.95 7.75 0.95 7.65 1.0 7.6 1.15 7.5 1.2 7.45 1.3 7.55 1.35 7.6 1.4 7.65 1.45 7.75 1.45 7.8 1.4 7.85 1.4 7.9 1.35 7.9 1.3 8.0 1.3 8.1 1.4 8.0 1.45 7.95 1.5 7.9 1.55 7.8 1.55 7.7 1.55 7.6 1.55 7.5 1.6 7.45 1.6 7.55 1.6 7.65 M0.55 7.45 L0.65 7.75 0.8 8.1 1.0 8.45 1.15 8.8 1.15 8.85 1.05 8.85 1.0 8.85 1.0 8.8 0.9 8.8 0.75 8.5 0.55 8.1 0.35 7.75 Q0.15 7.5 0.35 7.4 L0.45 7.45 0.55 7.45 M4.45 12.3 L4.55 12.4 4.6 12.45 4.65 12.5 4.65 12.55 4.7 12.6 4.7 12.65 4.65 12.7 4.65 12.75 4.6 12.75 4.55 12.85 4.6 13.0 4.6 13.2 4.6 13.45 4.7 13.75 4.7 13.95 4.5 13.7 4.45 13.35 4.35 13.0 4.2 12.6 4.2 12.5 4.25 12.45 4.35 12.35 4.4 12.3 4.45 12.3 M7.45 6.95 L7.5 7.3 7.55 7.7 7.6 8.0 7.35 7.7 7.25 7.25 7.15 6.85 7.25 6.65 7.45 6.95 M6.65 7.05 L6.7 6.8 6.75 7.1 6.75 7.35 6.75 7.65 6.75 7.95 6.75 8.0 6.9 8.1 6.95 8.2 7.0 8.3 7.0 8.35 6.9 8.5 6.65 8.5 6.5 8.4 6.5 8.2 6.55 8.15 6.6 8.15 6.65 8.05 6.7 7.75 6.7 7.4 6.65 7.05 M6.15 7.45 L6.2 7.9 6.3 8.3 6.35 8.65 6.05 8.3 5.9 7.8 5.8 7.3 Q5.8 7.1 5.95 7.05 L6.15 7.45 M6.95 10.1 L7.0 10.25 7.0 10.4 7.0 10.55 7.0 10.7 7.1 10.75 7.2 10.85 7.25 10.95 7.25 11.0 7.15 11.15 7.0 11.2 6.75 11.05 6.75 10.85 6.8 10.8 6.85 10.8 6.9 10.7 6.95 10.7 6.95 10.55 6.95 10.4 6.9 10.25 6.9 10.1 6.95 10.1 M6.65 10.4 L6.65 10.85 6.65 11.35 6.55 11.65 Q6.25 11.65 6.3 11.3 L6.35 10.8 6.3 10.3 6.5 9.95 6.65 10.4 M6.05 10.35 L6.05 10.9 6.15 11.4 6.2 11.85 6.15 11.85 6.05 11.85 5.95 11.75 5.85 11.65 5.8 11.6 5.8 11.15 5.75 10.7 5.7 10.2 Q5.65 9.95 5.85 9.9 6.05 10.05 6.05 10.35 M5.25 10.5 L5.4 10.9 5.55 11.3 5.7 11.75 5.85 12.05 Q5.6 12.05 5.45 11.65 L5.3 11.2 5.1 10.75 Q5.05 10.55 5.25 10.5 M5.15 12.95 L5.15 13.05 5.15 13.15 5.15 13.25 5.15 13.3 5.3 13.4 5.4 13.55 5.5 13.75 5.5 13.85 5.5 13.9 5.45 13.95 5.35 14.05 5.35 14.15 Q5.25 14.2 5.15 14.05 L5.0 13.85 4.95 13.7 4.9 13.55 4.9 13.5 4.95 13.45 5.0 13.4 5.05 13.35 5.1 13.3 5.1 13.2 5.1 13.1 5.1 13.0 5.1 12.9 5.1 12.85 5.15 12.95 M6.85 18.3 L6.95 18.45 7.0 18.55 7.15 18.75 7.2 18.85 7.15 18.6 7.05 18.35 6.85 18.25 6.85 18.3 M3.55 13.05 L3.7 13.55 3.9 14.0 3.9 14.4 3.85 14.35 3.9 14.55 4.2 15.25 4.45 15.9 4.65 16.5 4.55 16.5 4.6 16.65 4.75 17.05 4.9 17.45 Q4.6 17.45 4.5 17.05 L4.4 16.55 4.2 16.1 4.2 15.95 4.2 15.9 3.9 15.1 3.55 14.35 Q3.45 14.05 3.65 13.95 L3.45 13.45 3.25 13.0 Q3.05 12.7 3.3 12.65 L3.55 13.05 M2.8 13.75 L3.0 14.1 3.15 14.45 2.7 14.05 2.5 13.6 2.3 13.15 Q2.2 13.0 2.4 12.95 L2.6 13.35 2.8 13.75 M2.75 15.4 L2.95 15.8 Q2.6 15.75 2.5 15.35 L2.25 14.85 2.1 14.35 Q2.05 14.1 2.3 14.1 L2.45 14.5 2.55 14.95 2.75 15.4 M3.0 14.5 L3.3 15.0 3.6 15.5 3.85 16.05 4.1 16.5 4.0 16.5 3.9 16.45 3.85 16.4 3.8 16.4 3.55 15.9 3.25 15.35 2.95 14.85 Q2.75 14.6 3.0 14.5 M1.8 15.2 L1.8 15.15 1.85 15.05 1.95 15.2 2.05 15.3 2.2 15.45 2.3 15.65 2.3 15.8 2.2 15.9 2.2 16.0 2.25 16.05 2.3 16.2 2.35 16.25 2.4 16.3 2.45 16.45 2.15 16.3 2.0 16.05 1.75 15.7 1.65 15.5 1.7 15.35 1.8 15.2 M1.65 15.85 L1.75 16.25 1.9 16.65 2.1 16.95 1.8 16.7 1.55 16.2 1.35 15.8 Q1.2 15.55 1.45 15.55 L1.65 15.85 M2.45 17.75 L2.6 18.0 2.7 18.25 2.8 18.5 2.9 18.8 2.7 18.55 2.55 18.25 2.4 17.95 2.4 17.75 2.45 17.75 M3.6 16.3 L3.95 16.8 4.3 17.25 4.6 17.65 4.0 17.25 3.6 16.65 3.3 16.15 Q3.15 15.85 3.4 15.8 L3.6 16.3 M3.55 18.35 L3.65 18.75 3.75 19.1 3.65 19.1 3.65 19.05 3.55 19.0 3.5 18.95 3.45 18.65 3.35 18.25 3.3 17.85 Q3.2 17.65 3.4 17.6 L3.5 18.0 3.55 18.35 M4.25 17.8 L4.25 18.25 4.3 18.7 4.4 19.0 Q4.1 18.95 4.05 18.6 L4.05 18.1 4.0 17.65 Q3.95 17.45 4.15 17.45 L4.25 17.8 M19.4 22.2 L19.4 22.5 19.6 22.25 19.4 22.2 M19.35 22.2 L19.0 22.1 19.15 22.55 19.2 22.7 19.2 22.65 19.25 22.55 19.3 22.5 19.35 22.25 19.35 22.2 M20.05 23.5 L20.1 23.85 20.2 24.15 20.25 24.5 19.9 24.25 19.8 23.85 19.7 23.45 19.85 23.25 20.05 23.5 M19.5 23.85 L19.55 23.95 19.65 24.05 19.7 24.15 19.7 24.2 19.6 24.1 19.55 24.0 19.5 23.9 19.45 23.85 19.5 23.85 M17.1 28.65 L17.0 29.5 16.8 30.4 16.75 30.8 16.9 30.9 17.0 30.45 17.15 29.75 17.35 29.35 17.4 29.95 17.4 30.15 17.45 30.1 17.55 30.0 17.6 29.9 17.65 29.9 17.65 30.0 17.85 29.75 17.9 30.1 17.8 30.5 17.8 30.6 17.8 30.65 17.75 30.9 17.7 31.25 17.55 30.9 17.6 30.8 17.55 30.8 17.5 30.95 17.5 31.05 17.45 31.2 17.45 31.35 Q19.2 33.05 17.0 35.3 15.8 36.55 14.0 36.85 L11.5 37.15 11.5 37.25 11.4 37.35 11.3 37.15 11.0 37.15 11.0 37.5 Q10.75 37.45 10.8 37.15 L10.65 37.15 10.75 37.6 10.65 37.65 10.6 37.6 10.5 37.55 10.45 37.5 10.35 37.6 10.35 37.65 10.3 37.7 10.15 37.65 10.0 37.55 9.95 37.5 9.95 37.45 9.85 37.25 9.8 37.15 9.65 37.15 9.8 37.4 9.95 37.75 9.5 37.5 9.55 37.75 9.25 37.55 9.25 37.2 9.25 37.15 9.15 37.1 9.15 37.15 9.0 37.3 8.85 37.1 8.7 37.05 8.8 37.45 8.9 37.8 8.8 37.8 Q8.55 37.85 8.45 37.5 L8.35 37.05 8.2 37.0 8.2 37.15 8.25 37.2 8.3 37.25 8.35 37.3 8.35 37.4 8.05 37.2 8.0 37.0 7.9 36.95 7.95 37.1 8.15 37.65 8.35 38.0 Q8.05 38.05 7.85 37.55 L7.8 37.4 7.55 37.35 7.45 37.2 7.35 37.15 7.25 37.05 7.2 36.95 7.2 36.85 6.95 36.8 7.0 37.1 7.05 37.45 6.7 37.05 6.7 36.75 6.25 36.65 6.3 36.95 6.45 37.35 6.65 37.6 6.6 37.65 6.4 37.65 6.3 37.65 6.15 37.25 6.0 36.85 5.95 36.6 5.2 36.35 5.2 36.4 5.25 36.5 5.45 36.9 5.65 37.35 6.0 37.65 5.95 37.7 5.8 37.7 5.4 37.3 5.15 36.8 5.05 36.85 Q4.85 36.7 4.9 36.4 L4.95 36.3 4.8 36.25 4.55 36.15 4.6 36.4 4.65 36.75 4.6 37.05 4.4 36.7 4.35 36.4 4.3 36.05 4.35 36.45 4.35 36.8 Q4.15 36.65 4.1 36.3 L4.05 35.95 4.0 36.0 3.8 36.0 3.75 35.95 3.9 36.25 4.0 36.5 3.75 36.25 3.6 35.9 3.55 35.7 3.05 35.4 3.2 35.8 Q2.9 35.9 2.85 35.5 L2.8 35.2 2.35 34.8 2.45 35.1 2.65 35.55 2.85 35.95 2.85 36.0 2.4 35.6 2.15 35.05 1.9 34.55 1.7 34.05 1.75 34.0 1.5 33.3 1.05 32.75 0.8 32.05 0.6 31.45 Q0.45 31.1 0.7 31.0 L0.9 31.6 1.15 32.25 1.35 32.85 1.4 32.95 1.3 32.0 1.15 31.7 1.05 31.4 0.95 31.35 0.85 31.25 0.8 31.2 0.85 31.05 0.9 30.95 0.95 30.9 0.95 30.8 0.95 30.7 1.0 30.8 1.05 30.9 1.15 30.95 1.25 31.0 1.1 30.45 Q1.05 30.1 1.25 30.0 L1.35 30.6 1.45 31.1 1.45 31.05 1.6 30.9 1.4 30.45 Q1.25 30.1 1.45 30.0 L1.7 30.5 1.75 30.7 1.75 30.65 1.55 30.0 1.25 29.5 1.25 29.45 1.3 29.4 1.3 29.35 1.45 29.25 1.5 29.25 1.6 29.3 1.7 29.35 1.7 29.4 1.75 29.45 1.75 29.55 1.7 29.6 1.7 29.65 1.85 30.15 2.0 30.5 2.25 30.35 2.8 29.85 4.05 29.15 6.55 28.5 7.8 28.2 Q12.6 28.05 16.6 30.7 L16.7 30.1 16.8 29.2 17.1 28.65 M16.7 29.0 L16.65 29.55 16.6 30.1 16.4 30.55 16.45 30.0 16.55 29.45 16.6 28.85 16.7 28.5 16.7 29.0 M17.35 30.6 L17.3 30.4 17.25 30.55 17.1 31.05 17.25 31.15 17.3 30.85 17.35 30.6 M0.2 31.85 Q0.0 31.55 0.25 31.45 L0.5 31.9 0.75 32.4 1.0 32.85 1.2 33.35 0.8 32.9 0.5 32.35 0.2 31.85 M1.65 35.3 L1.95 35.6 2.15 35.9 1.75 35.6 1.4 35.2 1.15 34.85 1.1 34.5 1.35 34.9 1.65 35.3 M1.2 37.0 L1.35 37.35 1.5 37.7 1.7 38.0 1.85 38.3 1.5 37.95 1.3 37.6 1.15 37.25 1.15 37.0 1.2 37.0 M2.2 36.9 L2.2 37.4 2.35 37.85 2.45 38.3 2.05 37.95 1.95 37.35 1.85 36.8 1.95 36.45 2.2 36.9 M2.7 37.05 L2.7 37.2 2.75 37.35 2.75 37.5 2.85 37.6 2.95 37.7 3.0 37.75 2.95 37.85 2.9 37.95 2.8 38.05 2.75 38.05 2.65 38.0 2.6 37.95 2.55 37.9 2.5 37.85 2.5 37.75 2.55 37.65 2.65 37.55 2.7 37.5 2.65 37.35 2.65 37.2 2.65 37.05 2.65 37.0 2.7 37.05 M7.65 37.0 L7.65 37.1 7.7 37.15 7.75 37.2 7.7 37.0 7.65 37.0 M9.65 38.6 L9.7 38.65 9.7 38.7 9.75 38.75 9.75 38.85 9.8 38.85 9.9 38.9 10.0 38.95 10.0 39.0 10.05 39.05 10.05 39.1 10.0 39.15 10.0 39.25 10.05 39.3 10.05 39.35 10.1 39.4 10.1 39.5 10.05 39.55 9.95 39.4 9.8 39.3 9.7 39.3 9.55 39.2 9.55 39.05 9.65 38.9 9.65 38.85 9.65 38.75 9.65 38.65 9.65 38.6 M8.85 38.5 L8.85 38.8 8.9 38.85 8.95 38.9 9.05 38.95 9.05 39.0 9.1 39.05 9.1 39.15 9.05 39.2 9.0 39.25 8.95 39.3 9.0 39.45 9.05 39.6 9.05 39.7 9.05 39.8 9.05 39.85 Q8.9 39.85 8.9 39.65 L8.85 39.5 8.75 39.35 8.6 39.1 8.6 39.05 8.65 39.0 8.7 38.95 8.75 38.9 8.8 38.85 8.8 38.55 8.85 38.5 M8.45 39.15 L8.55 39.45 8.7 39.75 8.8 40.05 8.5 39.85 8.35 39.45 8.25 39.1 8.35 38.9 8.45 39.15 M7.65 39.15 L7.85 39.45 8.0 39.75 8.15 40.05 8.3 40.25 8.0 40.0 7.85 39.65 7.65 39.4 7.65 39.15 M9.2 38.8 L9.2 38.7 9.2 38.65 9.3 38.9 9.35 39.1 9.4 39.3 9.5 39.55 9.35 39.5 9.25 39.35 9.2 39.25 9.15 39.15 9.15 39.0 9.2 38.9 9.2 38.8 M5.6 39.8 L5.75 40.25 5.95 40.65 6.0 41.05 5.75 40.7 5.5 40.2 5.3 39.8 Q5.15 39.55 5.35 39.45 L5.6 39.8 M5.15 40.1 L5.2 40.2 5.3 40.35 5.4 40.5 5.4 40.55 5.25 40.55 5.05 40.35 4.9 40.05 4.65 39.85 4.6 39.8 4.6 39.7 4.65 39.65 4.65 39.6 4.7 39.55 4.65 39.5 4.6 39.45 4.6 39.35 4.65 39.35 4.65 39.4 4.7 39.45 4.75 39.5 4.85 39.5 4.95 39.55 5.05 39.6 5.05 39.65 5.1 39.7 5.1 39.8 5.05 39.85 5.05 39.9 5.15 40.05 5.15 40.1 M7.25 41.0 L7.4 41.4 7.55 41.8 7.55 42.15 7.2 41.8 7.15 41.35 7.05 40.9 Q6.95 40.65 7.1 40.6 L7.15 40.6 7.25 41.0 M5.7 41.65 L5.75 41.8 5.8 41.9 5.85 42.05 5.85 42.2 5.9 42.25 5.9 42.3 6.1 42.4 6.15 42.5 6.15 42.55 6.05 42.7 5.9 42.8 5.7 42.65 5.7 42.55 5.7 42.45 5.75 42.35 5.8 42.3 5.8 42.1 5.7 41.95 5.65 41.75 5.7 41.65 M5.35 42.9 L5.1 42.6 4.95 42.2 4.8 41.75 Q4.7 41.55 4.9 41.5 L5.0 41.85 5.1 42.25 5.2 42.55 5.35 42.9 M7.9 40.85 L7.95 40.85 7.95 41.0 7.95 41.15 7.95 41.25 7.95 41.4 7.95 41.5 8.0 41.55 8.15 41.7 8.15 41.75 8.15 41.85 8.1 41.95 8.1 42.05 8.1 42.15 8.15 42.2 8.1 42.25 8.0 42.25 7.9 42.15 7.85 42.1 7.75 41.95 7.7 41.85 7.65 41.85 7.7 41.75 7.75 41.65 7.9 41.55 7.9 41.35 7.9 41.15 7.85 40.95 7.9 40.85 M8.4 41.1 L8.35 41.05 8.4 41.0 8.45 41.05 8.45 41.1 8.45 41.2 8.5 41.25 8.5 41.3 8.6 41.35 8.65 41.4 8.7 41.45 8.75 41.5 8.75 41.6 8.7 41.7 8.65 41.8 8.65 41.85 8.6 41.9 8.45 41.85 8.35 41.7 8.3 41.65 8.25 41.55 8.25 41.5 8.3 41.45 8.3 41.4 8.4 41.35 8.4 41.1 M3.0 38.25 L3.1 38.3 3.1 38.35 3.15 38.4 3.15 38.5 3.1 38.55 3.05 38.6 3.1 38.8 3.2 39.1 3.25 39.4 3.4 39.7 3.45 39.8 3.15 39.55 3.0 39.15 2.75 38.75 2.65 38.4 2.7 38.35 2.75 38.3 2.9 38.2 3.0 38.25 M3.55 38.65 L3.65 38.7 3.75 38.8 3.8 38.85 3.8 38.95 3.75 39.05 3.7 39.1 3.75 39.35 3.75 39.5 3.85 39.75 3.9 39.9 3.9 40.0 3.65 39.8 3.6 39.65 3.55 39.45 3.5 39.2 3.5 39.15 3.4 39.1 3.35 39.05 3.35 39.0 3.3 38.95 3.35 38.8 3.4 38.65 3.4 38.6 3.4 38.5 3.4 38.4 3.45 38.5 3.5 38.55 3.5 38.65 3.55 38.65 M2.85 39.1 L3.05 39.45 3.0 39.8 Q2.8 39.75 2.75 39.5 L2.7 39.45 2.6 39.3 2.5 39.2 2.45 39.05 2.5 39.05 2.55 39.15 2.65 39.2 2.6 39.1 2.4 38.7 Q2.3 38.5 2.45 38.45 L2.5 38.45 2.7 38.8 2.85 39.1 M3.85 38.8 L3.95 38.5 4.2 38.9 4.25 39.35 4.35 39.8 4.45 40.15 4.15 39.85 3.95 39.3 3.85 38.8 M4.05 41.65 L4.3 41.95 4.55 42.25 4.75 42.55 5.0 42.9 4.95 42.95 4.9 42.95 4.85 42.9 4.85 42.85 4.75 42.8 4.7 42.75 4.5 42.45 4.3 42.15 4.05 41.9 Q3.85 41.7 4.0 41.65 L4.05 41.65 M10.3 37.2 L10.35 37.3 10.45 37.35 10.4 37.15 10.3 37.15 10.3 37.2 M10.25 38.15 L10.35 38.45 10.4 38.75 10.5 39.05 10.7 39.25 10.4 39.05 10.25 38.7 10.15 38.35 Q10.1 38.2 10.2 38.15 L10.25 38.15 M22.2 25.05 L22.3 24.95 22.35 24.9 22.35 24.8 22.4 24.8 22.45 25.0 22.6 25.15 22.65 25.35 22.6 25.55 22.55 25.6 22.6 25.7 22.6 25.75 22.65 25.8 22.65 25.9 22.6 25.95 22.4 25.9 22.35 25.75 22.2 25.45 22.1 25.2 22.15 25.15 22.2 25.05 M37.9 61.45 L38.05 61.25 38.0 61.25 37.9 61.25 37.9 61.45 M40.4 61.45 L40.4 61.55 40.35 61.65 40.25 61.75 40.15 61.75 40.0 61.65 39.9 61.55 39.95 61.4 40.0 61.3 40.05 61.2 40.15 61.2 40.15 61.25 40.25 61.25 40.3 61.2 40.35 61.35 40.35 61.4 40.4 61.45 M26.0 62.45 L26.0 62.55 26.05 62.6 26.1 62.8 26.05 62.9 25.95 62.9 25.9 62.9 25.85 62.85 25.75 62.8 25.6 62.65 25.55 62.6 25.5 62.55 25.5 62.45 25.55 62.4 25.55 62.35 25.5 62.25 25.6 62.25 25.65 62.3 25.75 62.25 25.85 62.3 25.95 62.35 26.0 62.45 M24.25 63.25 L24.0 63.1 23.9 62.85 23.85 62.6 23.95 62.4 24.1 62.55 24.15 62.8 24.25 63.0 24.25 63.25 M23.65 62.9 L23.75 63.0 23.9 63.15 24.0 63.3 24.0 63.35 23.8 63.35 23.65 63.2 23.45 63.0 23.45 62.85 23.55 62.8 23.65 62.9 M12.8 61.55 L12.9 61.75 12.95 61.8 12.85 61.6 12.8 61.55 M1.1 51.9 L1.1 52.25 1.1 52.05 1.1 51.9 M1.2 52.55 L1.25 52.6 1.25 52.55 1.2 52.5 1.2 52.55 M2.1 51.15 L2.15 51.1 2.1 51.05 2.1 51.15 M1.75 51.15 L1.8 51.2 1.75 51.3 1.7 51.6 1.7 51.7 1.85 51.45 1.85 51.35 1.75 51.15 M1.4 52.1 L1.4 52.2 1.5 52.05 1.45 51.85 1.4 52.1 M1.8 54.9 L1.9 55.4 1.9 55.1 1.9 54.65 1.75 54.5 1.8 54.9 M3.95 57.05 L3.95 57.3 4.0 57.35 4.05 57.45 4.1 57.45 4.15 57.5 4.15 57.55 4.1 57.85 4.05 57.95 4.05 58.2 4.1 58.4 4.05 58.5 3.85 58.35 3.8 58.15 3.75 57.9 3.7 57.6 3.65 57.55 3.7 57.5 3.7 57.45 3.75 57.4 3.85 57.35 3.9 57.3 3.9 57.05 3.95 57.05 M3.1 56.35 L3.15 56.45 3.2 56.55 3.25 56.65 3.25 56.8 3.25 56.9 Q3.15 56.95 3.15 56.85 L3.15 56.7 3.0 56.5 3.0 56.35 3.1 56.35 M3.2 57.65 Q3.15 57.45 3.3 57.4 L3.45 57.65 3.45 58.0 3.5 58.35 3.55 58.7 Q3.35 58.8 3.3 58.45 L3.2 58.0 3.2 57.65 M2.7 57.45 L2.85 57.75 2.9 58.05 3.05 58.35 3.15 58.65 Q2.9 58.65 2.8 58.4 L2.65 58.0 2.55 57.65 2.65 57.45 2.7 57.45 M2.1 56.45 L2.2 56.65 2.3 56.8 2.3 57.0 2.05 56.85 1.95 56.65 1.85 56.45 1.95 56.35 2.1 56.45 M2.25 57.95 L2.3 58.1 2.4 58.25 2.45 58.4 2.45 58.5 2.35 58.35 2.25 58.2 2.15 58.05 2.15 58.0 2.25 57.95 M4.55 60.0 L4.7 60.3 4.85 60.6 4.9 60.85 4.6 60.7 4.4 60.35 4.25 60.05 Q4.15 59.85 4.35 59.8 L4.55 60.0 M3.85 60.25 L3.95 60.45 3.95 60.7 3.95 60.8 3.8 60.75 3.75 60.7 3.6 60.6 3.6 60.45 3.6 60.25 3.55 60.05 3.6 59.85 3.7 59.8 3.85 60.0 3.85 60.25 M5.25 57.95 L5.3 57.9 5.35 57.85 5.4 57.8 5.05 57.55 5.15 57.95 5.4 58.35 5.45 58.4 5.4 58.3 5.3 58.1 5.25 58.0 5.25 57.95 M5.6 58.75 L5.65 58.75 5.85 58.85 5.95 58.95 6.05 59.05 5.95 59.05 5.85 58.95 5.75 58.85 5.6 58.75 M7.25 59.5 L7.2 59.9 7.25 60.2 7.25 60.45 7.2 60.65 7.15 60.7 6.95 60.55 6.9 60.3 6.9 60.05 Q6.85 59.95 6.95 59.9 L6.95 59.85 6.95 59.45 7.1 59.15 7.25 59.5 M6.8 59.85 L6.85 60.15 6.9 60.45 6.85 60.6 6.65 60.45 6.65 60.15 6.55 59.85 6.6 59.7 6.65 59.65 6.8 59.85 M5.5 60.15 L5.6 60.3 5.65 60.45 5.7 60.6 5.7 60.75 5.55 60.75 5.5 60.55 5.4 60.3 Q5.35 60.15 5.45 60.15 L5.5 60.15 M6.0 60.15 L5.75 59.9 5.55 59.6 5.65 59.4 5.9 59.65 6.15 59.9 6.35 60.15 6.4 60.35 6.25 60.35 6.2 60.6 6.25 60.9 6.15 61.1 6.0 60.9 6.0 60.6 5.95 60.3 6.0 60.15 M7.85 59.75 L7.95 59.8 7.9 59.75 7.85 59.65 7.85 59.75 M7.85 60.45 L7.75 60.45 7.65 60.55 7.75 60.5 7.85 60.5 7.9 60.5 7.95 60.45 7.9 60.35 7.85 60.45 M8.8 61.6 L8.95 61.8 9.1 62.0 9.25 62.2 9.3 62.25 Q9.05 62.4 8.9 62.1 L8.65 61.85 8.5 61.6 8.6 61.5 8.8 61.6 M18.1 62.45 L18.15 62.5 18.05 62.1 17.9 62.1 17.9 62.15 18.1 62.45 M60.9 56.95 L60.7 56.7 60.7 56.45 60.65 56.2 60.7 56.15 60.8 56.15 60.9 56.3 60.95 56.55 61.0 56.75 60.9 56.95 M60.85 60.45 L60.85 60.7 60.65 60.55 60.55 60.35 60.5 60.1 Q60.5 59.95 60.6 59.95 L60.7 60.1 60.75 60.3 60.85 60.45 M56.9 53.3 L56.9 53.7 56.75 54.0 56.6 54.35 56.45 54.7 56.45 54.3 56.6 53.9 56.7 53.55 Q56.7 53.35 56.85 53.3 L56.9 53.3 M56.7 53.0 L56.65 53.35 56.5 53.7 56.35 54.1 56.15 54.35 56.2 54.0 56.3 53.65 56.45 53.25 56.65 53.0 56.7 53.0 M55.8 53.45 Q55.8 53.2 55.95 53.1 L56.1 53.55 56.05 53.95 56.05 54.4 55.85 54.75 55.85 54.3 55.85 53.85 55.8 53.45 M56.65 54.85 L56.7 55.1 56.7 55.35 56.7 55.55 56.65 55.75 Q56.5 55.75 56.5 55.55 L56.55 55.3 56.5 55.0 56.55 54.85 56.65 54.85 M55.8 54.8 L55.8 55.05 55.75 55.35 55.75 55.6 55.65 55.85 55.55 55.55 55.6 55.3 55.65 55.0 55.7 54.8 55.8 54.8 M57.6 54.8 L57.7 55.15 57.75 55.35 57.4 55.15 57.4 54.75 57.35 54.45 57.4 54.25 57.5 54.25 57.6 54.55 57.6 54.8 M54.2 52.05 L54.15 51.95 54.15 51.85 53.9 52.7 53.75 53.3 53.95 52.7 54.2 52.15 54.25 52.1 54.2 52.05 M52.95 52.75 L52.85 52.8 52.85 53.05 53.05 53.05 53.1 53.05 52.95 52.8 52.95 52.75 M52.6 52.7 L52.6 52.55 52.45 53.0 52.65 53.0 52.6 52.7 M54.85 53.75 L54.9 54.1 55.0 54.15 55.0 54.2 55.05 54.25 55.05 54.3 55.1 54.2 55.1 54.15 55.15 54.1 55.25 54.1 55.3 54.05 55.4 54.1 55.45 54.1 55.4 53.8 55.5 53.55 55.55 53.55 55.6 53.9 55.55 54.25 55.6 54.6 55.55 54.9 55.45 54.8 55.35 55.05 55.35 55.45 55.3 55.55 55.15 55.45 55.15 55.25 55.15 55.05 55.15 54.85 55.15 54.75 55.15 54.7 55.1 54.6 55.05 54.45 55.05 54.3 55.0 54.5 54.95 54.8 54.95 55.2 54.85 55.6 54.8 55.65 54.65 55.35 54.65 55.0 54.65 54.65 54.55 54.25 54.6 54.2 54.6 54.15 54.7 54.1 54.7 54.0 54.85 53.75 M53.7 55.6 L53.75 55.7 53.75 55.65 53.8 55.6 53.85 55.6 53.85 55.55 53.95 55.55 53.95 55.45 53.95 55.4 53.9 55.25 53.7 55.6 M55.6 56.25 L55.6 56.55 55.55 56.9 55.45 57.15 55.3 56.8 55.35 56.45 55.4 56.15 55.5 55.95 55.55 55.95 55.6 56.25 M54.7 56.0 L54.8 56.05 54.9 56.1 54.9 56.15 54.95 56.2 54.95 56.35 54.85 56.45 54.8 56.55 54.8 56.6 54.85 56.7 54.9 56.85 54.85 56.9 54.9 57.0 54.9 57.05 54.75 57.0 54.65 56.75 54.6 56.55 54.5 56.35 54.45 56.25 54.45 56.2 54.5 56.15 54.5 56.1 54.65 56.05 54.7 56.0 M52.45 58.3 L52.55 58.15 52.6 58.15 52.65 58.4 52.65 58.65 52.6 58.95 52.5 59.2 52.4 58.9 52.45 58.6 52.45 58.3 M53.1 59.55 L53.15 59.6 53.2 59.65 53.25 59.75 53.3 59.8 53.25 59.9 53.25 59.95 53.2 60.0 53.15 60.0 53.05 60.05 53.0 60.15 53.0 60.2 53.0 60.3 53.0 60.4 52.95 60.5 52.9 60.55 52.8 60.4 52.8 60.2 52.8 60.0 52.8 59.8 52.8 59.7 52.9 59.65 52.95 59.6 52.95 59.55 53.05 59.5 53.05 59.45 53.1 59.45 53.1 59.55 M52.15 59.6 L52.2 59.8 52.25 60.1 52.3 60.35 52.25 60.6 52.05 60.35 52.0 60.05 52.0 59.75 52.05 59.6 52.15 59.6 M51.2 60.15 L51.4 60.55 51.5 60.95 51.05 60.55 50.85 60.05 50.75 59.6 Q50.7 59.4 50.9 59.35 L51.1 59.7 51.2 60.15 M53.55 59.8 L53.6 59.9 53.65 59.95 53.7 60.05 53.75 60.15 53.8 60.2 53.75 60.25 53.7 60.35 53.65 60.45 53.65 60.5 53.6 60.55 53.45 60.5 53.4 60.45 53.4 60.4 53.35 60.3 53.3 60.2 53.35 60.1 53.45 60.0 53.5 59.95 53.5 59.85 53.55 59.8 M60.3 56.05 L60.3 56.15 60.3 56.25 60.3 56.35 60.3 56.45 60.4 56.5 60.45 56.55 60.5 56.6 60.5 56.65 60.45 56.75 60.35 56.95 60.25 57.05 60.25 57.1 60.1 57.05 60.1 56.9 60.05 56.75 60.0 56.7 60.0 56.6 60.05 56.55 60.1 56.5 60.2 56.4 60.2 56.3 60.2 56.2 60.2 56.1 60.2 56.0 60.25 55.95 60.3 56.05 M59.7 55.8 Q59.7 55.6 59.85 55.55 L59.95 55.95 59.9 56.3 59.85 56.75 59.6 56.95 59.6 56.6 59.7 56.2 59.7 55.8 M58.75 55.9 L58.9 55.6 59.1 55.95 59.25 56.35 59.4 56.7 59.45 57.1 59.15 56.8 58.95 56.35 58.75 55.9 M56.2 56.05 L56.25 56.3 56.15 56.5 56.05 56.75 55.95 57.0 Q55.85 57.0 55.9 56.8 L55.95 56.5 56.0 56.25 56.15 56.05 56.2 56.05 M57.9 59.4 L57.9 59.3 57.9 59.25 57.95 59.25 57.95 59.6 58.0 59.6 58.1 59.7 58.15 59.7 58.15 59.75 58.2 59.8 58.05 60.2 58.0 60.4 58.0 60.7 57.9 61.05 57.75 60.8 57.8 60.6 57.8 60.35 57.8 60.15 57.8 60.05 57.7 59.95 57.7 59.75 57.75 59.75 57.8 59.7 57.85 59.6 57.9 59.6 57.9 59.5 57.9 59.4 M57.2 58.9 L57.4 59.35 57.5 59.9 57.65 60.45 57.5 60.9 57.35 60.45 57.25 59.9 57.1 59.35 57.2 58.9 M55.85 59.05 L56.1 59.6 56.4 60.1 56.7 60.6 56.85 61.0 56.3 60.5 56.0 59.9 55.75 59.4 Q55.6 59.15 55.85 59.05 M59.95 60.05 L60.0 60.3 60.05 60.5 60.1 60.75 59.8 60.65 59.7 60.35 59.7 60.05 59.8 59.85 59.95 60.05 M58.7 60.0 L58.65 60.35 58.65 60.7 58.55 60.95 58.35 60.7 58.35 60.3 58.4 59.9 58.55 59.7 58.7 60.0 M59.35 60.25 L59.4 60.35 59.4 60.4 59.35 60.45 59.35 60.5 59.3 60.55 59.25 60.6 59.25 60.65 59.15 60.65 59.15 60.6 59.0 60.5 58.9 60.4 58.9 60.3 58.95 60.25 59.05 60.1 59.1 60.05 59.15 60.05 59.25 60.15 59.3 60.2 59.35 60.25 M44.4 60.25 L44.4 60.45 44.4 60.25 M50.55 57.9 L50.55 57.85 50.45 57.9 50.45 57.95 50.55 57.9 M49.7 58.25 L49.6 58.3 49.65 58.75 49.65 58.85 49.7 58.75 49.7 58.55 49.7 58.3 49.7 58.25 M49.2 59.3 L49.25 59.25 49.2 59.1 49.1 59.2 49.2 59.3 M48.65 61.75 L48.8 61.95 48.9 62.25 49.05 62.55 49.05 62.8 48.75 62.65 48.65 62.3 48.55 62.0 Q48.5 61.85 48.6 61.75 L48.65 61.75 M49.9 61.85 L49.95 62.05 50.05 62.25 50.05 62.5 50.0 62.5 Q49.85 62.55 49.8 62.4 L49.75 62.15 49.65 61.9 49.7 61.7 49.75 61.7 49.9 61.85" fill="#448701" fill-opacity="0.69411767" fill-rule="evenodd" stroke="none"/>
    <path d="M58.15 -9.65 Q63.8 1.45 63.55 4.65 63.4 6.6 55.25 7.85 47.05 9.1 43.35 7.55 39.75 6.05 32.7 4.75 27.65 3.85 27.5 2.7 27.15 0.15 34.25 -10.35 41.95 -21.8 46.9 -21.9 51.85 -22.0 58.15 -9.65" fill="url(#gradient1)" fill-rule="evenodd" stroke="none"/>
    <path d="M39.15 -16.8 L39.6 -17.3 40.8 -18.5 Q42.7 -20.4 44.4 -21.2 45.75 -21.9 46.9 -21.9 48.4 -21.95 50.0 -20.8 L50.05 -20.8 50.65 -20.35 50.75 -20.25 51.75 -19.35 52.55 -18.45 53.45 -17.4 53.35 -17.35 53.35 -17.25 53.25 -17.05 53.2 -17.0 53.1 -16.95 Q52.7 -17.0 52.35 -17.3 L51.9 -16.65 Q51.1 -16.3 50.5 -16.9 L49.6 -17.7 49.3 -18.0 49.1 -18.1 49.35 -16.75 49.3 -15.3 Q49.2 -14.3 48.3 -14.35 47.6 -14.35 47.3 -15.05 L46.8 -16.4 46.65 -15.6 46.45 -14.6 46.15 -13.55 45.95 -13.0 45.7 -11.8 45.6 -11.6 45.55 -11.55 45.45 -11.5 44.9 -11.5 44.7 -11.55 Q44.35 -11.95 44.35 -12.5 L44.35 -13.7 44.4 -14.5 44.6 -15.75 44.75 -16.3 44.9 -16.9 44.35 -16.2 43.6 -15.05 42.95 -14.1 42.25 -13.45 41.35 -13.5 Q41.2 -13.85 41.3 -14.25 L41.55 -15.25 41.8 -16.3 42.0 -16.9 42.35 -18.1 42.4 -18.25 41.75 -17.7 40.45 -16.75 Q39.65 -16.2 38.85 -16.45 L39.15 -16.8" fill="url(#gradient2)" fill-rule="evenodd" stroke="none"/>
    <path d="M11.75 2.15 Q19.45 -9.3 24.4 -9.4 29.35 -9.5 35.65 2.85 41.3 13.95 41.05 17.15 40.9 19.1 32.75 20.35 24.55 21.6 20.85 20.05 17.25 18.55 10.2 17.25 5.15 16.35 5.0 15.2 4.65 12.65 11.75 2.15" fill="url(#gradient3)" fill-rule="evenodd" stroke="none"/>
    <path d="M14.85 -2.15 L15.1 -2.45 15.25 -2.5 15.45 -2.55 14.85 -2.15" fill="url(#gradient4)" fill-rule="evenodd" stroke="none"/>
    <path d="M15.1 -2.45 L17.9 -5.6 Q21.6 -9.35 24.4 -9.4 26.9 -9.45 29.75 -6.35 L32.2 -3.15 31.75 -3.2 31.35 -3.35 30.95 -3.5 30.75 -3.55 30.95 -3.2 31.1 -2.9 31.35 -2.55 31.55 -2.15 31.65 -1.7 31.5 -1.35 Q31.15 -1.05 30.65 -1.15 L30.15 -1.35 Q29.7 -1.5 29.35 -1.75 L28.7 -2.0 28.7 -1.35 28.8 -0.55 29.0 0.4 29.0 1.5 28.95 1.9 28.8 2.85 Q28.15 3.2 27.65 2.55 L26.95 1.7 26.2 0.4 25.9 -0.4 25.7 -1.15 25.5 -0.05 25.15 1.25 24.8 2.5 24.55 3.45 23.95 5.1 23.7 5.4 Q22.9 5.3 22.85 4.35 L22.75 2.9 22.75 1.75 22.8 0.25 23.0 -1.2 23.0 -1.4 22.5 -0.15 21.45 1.6 20.65 2.8 Q20.0 4.0 18.95 4.8 L18.15 4.9 Q17.9 4.4 18.0 3.75 L18.25 2.25 18.55 1.1 18.95 -0.45 19.4 -1.9 19.55 -2.4 18.7 -1.7 17.7 -0.85 16.1 0.4 Q15.65 0.8 15.2 0.4 L15.15 0.0 15.25 -0.4 15.35 -0.75 15.45 -1.15 15.7 -1.65 15.95 -2.05 Q15.55 -2.1 15.0 -1.75 L14.2 -1.15 13.9 -0.9 14.85 -2.15 15.45 -2.55 15.25 -2.5 15.1 -2.45" fill="url(#gradient5)" fill-rule="evenodd" stroke="none"/>
    <path d="M41.8 38.6 Q38.45 37.65 36.55 37.8 33.3 38.05 28.45 35.95 23.45 33.8 23.65 31.85 34.9 -5.45 42.75 -5.2 48.05 -5.05 56.55 13.85 59.8 21.05 61.65 27.0 63.5 33.0 62.5 33.35 59.35 34.4 52.7 35.15 51.8 35.25 51.6 35.7 L51.5 36.7 Q51.2 38.25 47.0 39.05 L41.8 38.6" fill="url(#gradient6)" fill-rule="evenodd" stroke="none"/>
    <path d="M49.0 -0.2 L51.4 3.6 51.95 4.55 52.5 5.55 52.4 5.5 52.3 5.4 52.25 5.4 52.35 5.7 52.4 6.0 52.35 6.3 52.35 6.65 52.35 7.05 52.25 7.35 52.15 7.4 52.1 7.45 51.95 7.45 51.8 7.45 51.6 7.4 51.15 6.85 50.55 6.2 49.9 5.5 49.35 4.8 49.3 4.8 49.6 6.85 50.05 9.2 50.5 11.5 50.8 14.15 Q50.8 14.75 50.4 15.2 49.35 14.75 48.85 13.45 L48.1 11.25 47.3 8.9 46.1 6.45 46.1 6.4 45.8 7.95 45.6 9.75 45.35 11.6 45.05 13.35 44.6 14.5 44.55 14.5 44.4 14.55 44.25 14.55 44.05 14.5 Q43.55 13.85 43.45 13.0 L43.1 11.35 Q42.9 10.5 42.95 9.6 L42.85 7.9 42.65 6.85 Q42.05 8.3 41.7 9.85 L40.9 13.35 39.9 16.9 38.65 20.5 Q38.35 21.2 37.75 20.8 L37.7 17.7 37.9 14.3 38.2 10.65 38.55 7.05 38.65 5.4 37.9 6.45 36.95 8.05 35.9 9.8 Q35.3 10.75 34.35 10.85 L34.2 10.05 34.35 9.0 34.6 7.9 35.0 6.85 35.3 6.05 34.2 7.4 32.85 9.05 31.85 10.75 Q31.5 11.55 30.8 11.75 L30.6 11.9 30.45 11.95 30.55 11.75 30.9 10.9 32.0 8.25 32.25 7.7 Q33.5 4.9 34.7 2.7 39.1 -5.3 42.75 -5.2 45.45 -5.1 49.0 -0.2" fill="url(#gradient7)" fill-rule="evenodd" stroke="none"/>
    <path d="M7.95 32.7 Q5.25 32.75 3.25 31.7 1.55 30.85 1.55 30.1 5.6 19.55 9.65 19.85 12.25 20.05 14.65 25.15 16.75 29.75 16.3 30.7 16.0 31.3 13.5 31.95 L7.95 32.7" fill="url(#gradient8)" fill-rule="evenodd" stroke="none"/>
    <path d="M3.6 25.5 L4.8 25.55 5.0 25.5 5.1 25.45 Q5.2 25.2 5.45 25.1 L5.85 24.8 6.3 24.4 Q6.5 24.2 6.6 24.3 6.4 24.7 6.45 25.2 L6.4 25.95 6.35 26.55 6.35 27.25 Q6.3 27.65 6.65 27.9 L7.25 27.95 7.45 27.95 7.5 27.9 7.85 27.5 8.35 26.55 8.7 25.9 8.95 25.2 9.15 24.55 9.15 24.6 9.25 24.9 9.4 25.2 9.45 25.4 9.55 25.65 9.75 25.85 10.0 25.9 10.6 25.85 10.75 25.75 10.85 25.45 10.85 25.1 10.85 24.7 10.85 24.2 10.85 23.8 10.85 23.4 11.45 23.6 13.1 23.45 13.15 22.5 13.15 22.45 Q13.9 23.55 14.65 25.15 16.75 29.75 16.3 30.7 16.0 31.3 13.5 31.95 L7.95 32.7 Q5.25 32.75 3.25 31.7 1.55 30.85 1.55 30.1 2.55 27.45 3.6 25.5 M10.0 23.85 L10.0 23.95 9.95 24.05 10.0 23.85" fill="url(#gradient9)" fill-rule="evenodd" stroke="none"/>
    <path d="M13.15 22.45 L13.15 22.5 13.1 23.45 11.45 23.6 10.85 23.4 10.85 23.8 10.85 24.2 10.85 24.7 10.85 25.1 10.85 25.45 10.75 25.75 10.6 25.85 10.0 25.9 9.75 25.85 9.55 25.65 9.45 25.4 9.4 25.2 9.25 24.9 9.15 24.6 9.15 24.55 8.95 25.2 8.7 25.9 8.35 26.55 7.85 27.5 7.5 27.9 7.45 27.95 7.25 27.95 6.65 27.9 Q6.3 27.65 6.35 27.25 L6.35 26.55 6.4 25.95 6.45 25.2 Q6.4 24.7 6.6 24.3 6.5 24.2 6.3 24.4 L5.85 24.8 5.45 25.1 Q5.2 25.2 5.1 25.45 L5.0 25.5 4.8 25.55 3.6 25.5 3.85 24.95 Q4.7 23.4 5.6 22.3 7.4 19.95 9.25 19.85 L9.65 19.85 10.3 20.0 Q11.05 20.2 11.85 20.95 L12.25 21.35 12.3 21.4 13.15 22.45 M10.0 23.85 L9.95 24.05 10.0 23.95 10.0 23.85" fill="url(#gradient10)" fill-rule="evenodd" stroke="none"/>
    <path d="M40.2 39.7 Q43.95 44.6 46.7 49.1 49.35 53.4 48.95 53.75 48.2 54.45 43.0 55.7 L35.05 57.15 Q33.65 57.25 30.55 58.6 27.55 59.9 24.1 60.0 18.6 60.2 14.55 59.15 9.65 57.85 9.5 55.2 9.35 53.2 5.05 53.1 1.35 53.05 2.3 51.45 18.6 24.9 24.75 25.65 29.95 26.3 40.2 39.7" fill="url(#gradient11)" fill-rule="evenodd" stroke="none"/>
    <path d="M12.8 35.8 L13.4 35.05 Q20.95 25.2 24.75 25.65 27.05 25.95 30.35 28.7 L33.35 31.6 33.25 31.55 32.85 31.4 31.15 31.45 Q30.3 31.3 29.6 30.8 L29.05 30.75 29.25 31.05 29.5 31.4 29.75 31.8 29.9 32.2 29.9 32.6 29.85 32.9 29.75 33.1 Q29.15 33.45 28.45 33.1 L27.6 32.55 26.95 31.85 26.55 31.4 26.4 32.3 26.15 33.25 25.95 34.25 25.75 35.1 25.6 35.6 25.6 35.8 25.4 36.4 25.15 37.2 25.05 37.25 24.95 37.35 24.75 37.4 24.5 37.4 24.3 37.4 24.0 36.9 23.85 36.3 23.8 35.6 23.7 35.0 23.6 34.25 23.6 33.75 23.55 33.5 23.1 34.75 22.6 36.15 22.0 37.6 21.8 38.1 21.3 39.35 Q20.8 40.65 19.75 40.35 L19.65 39.1 19.7 37.65 19.8 36.2 19.85 35.7 20.1 34.2 20.7 32.4 20.75 31.95 19.8 32.75 18.75 33.85 17.6 35.15 16.5 35.95 16.05 35.95 15.75 35.8 15.7 35.6 15.7 35.35 15.75 34.95 15.9 34.55 16.05 34.15 16.1 33.85 16.25 33.55 Q15.95 33.55 15.4 34.05 L14.2 35.1 13.2 36.0 12.2 36.65 12.8 35.8" fill="url(#gradient12)" fill-rule="evenodd" stroke="none"/>
  </g>
  <defs>
    <radialGradient cx="0" cy="0" gradientTransform="matrix(0.0382, 0.0, 0.0, 0.0382, 32.0, 32.0)" gradientUnits="userSpaceOnUse" id="gradient0" r="819.2" spreadMethod="pad">
      <stop offset="0.0" stop-color="#7e9261"/>
      <stop offset="1.0" stop-color="#7e9261" stop-opacity="0.0"/>
    </radialGradient>
    <linearGradient gradientTransform="matrix(0.0155, -0.0212, 0.0118, 0.0087, 89.75, 32.35)" gradientUnits="userSpaceOnUse" id="gradient1" spreadMethod="pad" x1="-819.2" x2="819.2">
      <stop offset="0.0" stop-color="#666666"/>
      <stop offset="1.0" stop-color="#cccccc"/>
    </linearGradient>
    <linearGradient gradientTransform="matrix(0.0089, 0.0, 0.0, 0.0063, 49.4, -17.35)" gradientUnits="userSpaceOnUse" id="gradient2" spreadMethod="pad" x1="-819.2" x2="819.2">
      <stop offset="0.0" stop-color="#e9def5"/>
      <stop offset="1.0" stop-color="#ffffff"/>
    </linearGradient>
    <linearGradient gradientTransform="matrix(0.0139, -0.0157, 0.0109, 0.0097, 67.8, 44.0)" gradientUnits="userSpaceOnUse" id="gradient3" spreadMethod="pad" x1="-819.2" x2="819.2">
      <stop offset="0.0" stop-color="#666666"/>
      <stop offset="1.0" stop-color="#cccccc"/>
    </linearGradient>
    <linearGradient gradientTransform="matrix(0.0139, -0.0157, 0.0109, 0.0097, 67.8, 44.0)" gradientUnits="userSpaceOnUse" id="gradient4" spreadMethod="pad" x1="-819.2" x2="819.2">
      <stop offset="0.0" stop-color="#666666"/>
      <stop offset="1.0" stop-color="#cccccc"/>
    </linearGradient>
    <linearGradient gradientTransform="matrix(0.0081, -0.003, 0.0031, 0.0085, 26.95, -2.4)" gradientUnits="userSpaceOnUse" id="gradient5" spreadMethod="pad" x1="-819.2" x2="819.2">
      <stop offset="0.0" stop-color="#e9def5"/>
      <stop offset="1.0" stop-color="#ffffff"/>
    </linearGradient>
    <linearGradient gradientTransform="matrix(0.0179, -0.0197, 0.0108, 0.0098, 69.6, 37.15)" gradientUnits="userSpaceOnUse" id="gradient6" spreadMethod="pad" x1="-819.2" x2="819.2">
      <stop offset="0.0" stop-color="#666666"/>
      <stop offset="1.0" stop-color="#cccccc"/>
    </linearGradient>
    <linearGradient gradientTransform="matrix(0.0132, -0.0025, 0.0029, 0.0157, 41.45, 7.85)" gradientUnits="userSpaceOnUse" id="gradient7" spreadMethod="pad" x1="-819.2" x2="819.2">
      <stop offset="0.0" stop-color="#e9def5"/>
      <stop offset="1.0" stop-color="#ffffff"/>
    </linearGradient>
    <linearGradient gradientTransform="matrix(0.0091, -0.0108, 0.0111, 0.0095, 59.0, 66.8)" gradientUnits="userSpaceOnUse" id="gradient8" spreadMethod="pad" x1="-819.2" x2="819.2">
      <stop offset="0.0" stop-color="#666666"/>
      <stop offset="1.0" stop-color="#cccccc"/>
    </linearGradient>
    <linearGradient gradientTransform="matrix(0.0091, -0.0108, 0.0111, 0.0095, 59.0, 66.8)" gradientUnits="userSpaceOnUse" id="gradient9" spreadMethod="pad" x1="-819.2" x2="819.2">
      <stop offset="0.0" stop-color="#666666"/>
      <stop offset="1.0" stop-color="#cccccc"/>
    </linearGradient>
    <linearGradient gradientTransform="matrix(0.0059, 0.0, 0.0, 0.0049, 8.4, 23.9)" gradientUnits="userSpaceOnUse" id="gradient10" spreadMethod="pad" x1="-819.2" x2="819.2">
      <stop offset="0.0" stop-color="#e9def5"/>
      <stop offset="1.0" stop-color="#ffffff"/>
    </linearGradient>
    <linearGradient gradientTransform="matrix(0.0158, -0.0225, 0.0119, 0.0084, 64.15, 64.8)" gradientUnits="userSpaceOnUse" id="gradient11" spreadMethod="pad" x1="-819.2" x2="819.2">
      <stop offset="0.0" stop-color="#666666"/>
      <stop offset="1.0" stop-color="#cccccc"/>
    </linearGradient>
    <linearGradient gradientTransform="matrix(0.0125, -0.0032, 0.0023, 0.0087, 25.85, 32.05)" gradientUnits="userSpaceOnUse" id="gradient12" spreadMethod="pad" x1="-819.2" x2="819.2">
      <stop offset="0.0" stop-color="#e9def5"/>
      <stop offset="1.0" stop-color="#ffffff"/>
    </linearGradient>
  </defs>
</svg>
