<?xml version="1.0" encoding="UTF-8" standalone="no"?>
<svg xmlns:xlink="http://www.w3.org/1999/xlink" height="165.35px" width="293.95px" xmlns="http://www.w3.org/2000/svg">
  <g transform="matrix(1.0, 0.0, 0.0, 1.0, 271.35, -170.9)">
    <path d="M-77.8 229.15 Q-48.3 244.65 -69.3 262.15 -47.4 256.95 -39.9 278.95 -34.2 252.75 -20.4 270.5 -24.95 243.0 -0.85 251.55 -19.55 237.25 2.55 229.95 -25.15 224.75 -17.15 201.65 -29.75 219.9 -45.6 192.35 -36.0 226.0 -67.0 211.2 -50.05 228.85 -77.8 229.15 M-80.9 198.9 Q-34.75 221.05 -49.0 170.9 -25.45 211.9 -6.7 184.8 -18.6 219.1 22.6 226.9 -10.3 237.75 17.55 259.05 -18.35 246.3 -11.55 287.25 -32.15 260.85 -40.55 299.8 -51.75 267.1 -84.3 274.75 -53.1 248.75 -96.95 225.65 -55.65 225.2 -80.9 198.9" fill="#ffe843" fill-rule="evenodd" stroke="none"/>
    <path d="M-31.2 267.25 L-31.3 267.5 Q-32.6 271.2 -35.85 272.75 -39.1 274.35 -42.4 272.85 -44.6 271.95 -46.0 270.0 -47.75 272.0 -50.3 273.3 -53.3 274.7 -56.15 274.55 L-58.6 274.1 -60.95 273.05 Q-62.9 273.9 -64.85 273.8 L-67.5 273.25 Q-71.0 271.9 -72.4 268.35 -73.85 264.75 -72.35 261.0 -71.65 259.15 -70.35 257.8 L-70.0 257.95 Q-67.85 258.9 -66.2 257.75 L-65.8 257.45 -66.25 258.75 Q-67.65 263.45 -65.6 267.3 -63.45 271.2 -59.0 271.95 -54.55 272.75 -50.35 270.05 -46.2 267.35 -44.75 262.65 L-44.25 260.45 -42.75 260.65 Q-43.0 262.85 -42.0 264.7 -40.55 267.25 -37.5 267.75 -34.8 268.15 -32.25 266.8 L-31.55 267.15 -31.2 267.25 -31.55 267.15 -32.25 266.8 -31.4 266.3 Q-28.5 264.35 -27.35 261.15 L-27.05 259.85 Q-23.85 259.85 -20.8 257.8 L-20.6 257.65 Q-20.3 259.9 -21.15 262.05 -22.4 265.35 -25.45 266.75 -28.35 268.2 -31.2 267.25 M-74.55 249.85 L-80.2 249.7 Q-83.15 248.25 -84.55 244.85 -85.85 241.45 -84.85 238.0 L-84.7 237.65 -83.3 238.5 -80.8 238.6 Q-79.25 238.6 -77.85 237.7 -76.45 236.75 -75.7 235.3 L-74.15 235.55 -72.75 235.3 Q-71.7 236.5 -71.0 238.25 -69.65 241.65 -70.7 245.05 L-70.85 245.55 Q-71.75 245.6 -72.6 246.1 -74.3 247.25 -74.55 249.75 L-74.55 249.85 M-86.65 235.45 Q-89.0 233.8 -90.2 230.8 L-90.8 228.75 Q-91.45 225.45 -90.15 222.0 -88.4 217.5 -84.2 215.45 L-83.25 215.0 -82.8 216.7 Q-82.65 218.6 -81.5 220.2 -80.05 222.5 -77.75 223.1 L-78.5 224.0 -80.55 222.9 Q-83.35 221.85 -85.65 223.4 -88.05 224.95 -88.5 228.15 -89.05 231.3 -87.4 234.25 L-86.65 235.45 M-83.3 213.2 Q-84.2 212.4 -84.7 211.05 -85.75 208.5 -84.45 205.7 -83.15 202.9 -80.3 201.5 -77.4 200.1 -74.7 200.95 L-73.75 201.3 -73.2 200.05 Q-71.95 197.85 -69.45 196.65 -67.0 195.4 -64.7 195.95 L-63.65 196.2 Q-65.9 197.8 -66.6 200.55 L-66.65 200.5 Q-70.1 199.5 -73.2 201.55 L-73.9 202.1 Q-76.3 204.05 -77.05 207.3 L-77.15 207.75 Q-79.1 207.35 -80.75 208.4 -82.85 209.7 -83.25 212.7 L-83.3 213.2 M-53.8 198.3 Q-54.15 196.5 -53.2 194.55 -52.05 192.05 -49.4 190.75 -46.8 189.5 -44.35 190.2 -43.5 190.5 -42.75 190.95 -44.8 192.55 -45.25 195.7 -45.65 198.65 -44.35 201.45 L-45.05 201.8 Q-47.65 203.05 -50.15 202.35 -52.15 201.75 -53.1 200.15 L-53.8 198.3 M-37.9 189.9 L-36.95 189.35 Q-33.55 187.7 -30.35 188.7 -27.15 189.65 -25.95 192.65 -24.85 195.5 -26.15 198.55 -28.65 197.7 -30.8 198.9 -31.0 196.8 -32.1 194.65 -33.95 191.35 -36.95 190.2 L-37.9 189.9 M-24.25 199.5 Q-22.2 199.25 -20.05 200.25 -16.75 201.9 -15.3 205.65 -13.8 209.4 -14.95 213.0 -12.5 212.0 -10.0 212.95 -7.4 213.95 -6.3 216.65 -5.15 219.4 -6.3 222.3 -7.4 225.0 -9.85 226.3 -7.55 227.7 -6.45 230.55 -5.1 233.85 -6.1 237.05 -7.15 240.3 -9.9 241.7 -12.65 243.05 -15.55 241.7 L-16.7 241.05 -17.3 239.65 Q-16.5 239.45 -15.65 238.9 -13.95 237.75 -13.3 235.85 -12.65 234.0 -13.45 232.5 L-13.75 232.05 Q-12.4 230.2 -11.7 227.8 L-11.55 227.0 Q-10.65 222.75 -12.65 219.0 -13.95 216.7 -15.95 215.4 -17.4 214.45 -19.35 214.0 L-21.55 213.7 Q-20.15 212.25 -19.8 209.7 -19.35 206.35 -21.1 203.1 -22.4 200.8 -24.25 199.5 M-16.7 241.1 Q-15.1 242.45 -14.2 244.7 -12.95 247.85 -13.75 250.85 -14.5 253.9 -16.85 255.0 L-18.0 255.45 Q-16.5 253.7 -15.65 251.55 -14.25 247.65 -15.95 244.55 L-16.65 243.5 Q-16.4 242.25 -16.7 241.1 M-64.4 254.95 L-64.35 254.6 -64.2 254.7 -64.4 254.95 M-73.75 201.3 L-73.9 202.1 -73.75 201.3 M-14.95 213.0 L-14.95 213.2 -15.95 215.4 -14.95 213.2 -14.95 213.0 M-11.55 227.0 L-10.1 226.45 -9.85 226.3 -10.1 226.45 -11.55 227.0" fill="#696565" fill-rule="evenodd" stroke="none"/>
    <path d="M-70.35 257.8 Q-72.25 256.9 -73.5 254.6 -74.75 252.25 -74.55 249.85 L-74.55 249.75 Q-74.3 247.25 -72.6 246.1 -71.75 245.6 -70.85 245.55 L-70.2 245.6 -70.05 243.35 Q-69.5 239.8 -66.95 238.05 -65.75 238.8 -64.35 239.0 L-60.65 238.9 -60.45 239.25 Q-58.6 242.05 -55.45 242.8 L-54.9 244.4 -56.6 245.45 Q-58.25 246.75 -59.15 248.5 L-60.05 246.85 Q-61.4 244.8 -63.2 243.9 -65.0 243.0 -66.2 243.9 -67.3 244.75 -67.05 246.85 -66.9 249.0 -65.55 251.1 -64.15 253.2 -62.35 254.05 -60.95 254.75 -59.9 254.3 L-59.55 255.45 -59.5 255.5 Q-60.8 257.05 -61.25 259.15 -61.85 262.45 -60.15 265.0 -58.45 267.55 -55.35 268.05 -52.35 268.4 -49.75 266.4 -47.15 264.4 -46.5 261.15 -46.05 258.95 -46.75 257.0 L-45.9 255.9 -45.4 254.9 -45.0 255.6 -44.6 256.2 Q-43.5 257.4 -41.8 257.75 L-40.15 257.8 Q-37.95 257.8 -35.8 256.65 -37.4 258.05 -37.95 259.95 L-37.9 260.05 Q-38.55 262.2 -37.5 263.7 -36.5 265.25 -34.4 265.4 -32.3 265.45 -30.4 263.95 -28.5 262.5 -27.95 260.35 -27.35 258.2 -28.4 256.65 -29.25 255.35 -30.8 255.1 L-31.5 255.0 -33.95 255.5 -33.75 255.35 Q-30.6 252.9 -29.45 249.55 L-29.05 247.9 -28.75 248.4 -28.05 249.25 Q-26.8 250.45 -24.9 250.5 -22.3 250.55 -19.9 248.75 -17.55 246.95 -16.8 244.25 L-16.65 243.5 -15.95 244.55 Q-14.25 247.65 -15.65 251.55 -16.5 253.7 -18.0 255.45 -19.1 256.7 -20.6 257.65 L-20.8 257.8 Q-23.85 259.85 -27.05 259.85 L-27.35 261.15 Q-28.5 264.35 -31.4 266.3 L-32.25 266.8 Q-34.8 268.15 -37.5 267.75 -40.55 267.25 -42.0 264.7 -43.0 262.85 -42.75 260.65 L-44.25 260.45 -44.75 262.65 Q-46.2 267.35 -50.35 270.05 -54.55 272.75 -59.0 271.95 -63.45 271.2 -65.6 267.3 -67.65 263.45 -66.25 258.75 L-65.8 257.45 -66.2 257.75 Q-67.85 258.9 -70.0 257.95 L-70.35 257.8 M-86.55 235.55 L-86.65 235.45 -87.4 234.25 Q-89.05 231.3 -88.5 228.15 -88.05 224.95 -85.65 223.4 -83.35 221.85 -80.55 222.9 L-78.5 224.0 Q-79.55 225.5 -80.15 227.15 -80.9 229.2 -80.7 230.8 -81.95 229.05 -83.7 228.25 -85.5 227.5 -86.75 228.45 -87.95 229.45 -87.85 231.55 -87.8 233.6 -86.55 235.55 M-83.25 215.0 L-83.3 213.2 -83.25 212.7 Q-82.85 209.7 -80.75 208.4 -79.1 207.35 -77.15 207.75 L-77.05 207.3 Q-76.3 204.05 -73.9 202.1 L-73.2 201.55 Q-70.1 199.5 -66.65 200.5 L-66.6 200.55 Q-65.9 197.8 -63.65 196.2 L-63.35 196.0 Q-60.85 194.35 -58.05 195.05 -55.3 195.7 -53.85 198.2 L-53.8 198.3 -53.1 200.15 Q-52.7 201.9 -53.2 203.8 -53.9 206.65 -56.2 208.2 L-56.45 207.5 Q-55.1 206.15 -54.5 204.4 -53.65 201.95 -54.8 200.25 -55.9 198.55 -58.3 198.6 -60.7 198.7 -62.95 200.45 -65.25 202.15 -66.1 204.6 -66.45 205.75 -66.4 206.65 -67.4 205.8 -69.0 205.75 -71.25 205.65 -73.4 207.3 -75.1 208.65 -75.8 210.35 L-76.3 210.2 Q-78.75 209.65 -80.65 211.1 -82.55 212.55 -82.8 215.25 L-82.8 216.7 -83.25 215.0 M-42.75 190.95 L-42.3 190.65 Q-40.35 189.4 -37.9 189.9 L-36.95 190.2 Q-33.95 191.35 -32.1 194.65 -31.0 196.8 -30.8 198.9 -28.65 197.7 -26.15 198.55 L-25.8 198.7 -24.25 199.5 Q-22.4 200.8 -21.1 203.1 -19.35 206.35 -19.8 209.7 -20.15 212.25 -21.55 213.7 L-19.35 214.0 Q-17.4 214.45 -15.95 215.4 -13.95 216.7 -12.65 219.0 -10.65 222.75 -11.55 227.0 L-11.7 227.8 Q-12.4 230.2 -13.75 232.05 L-13.45 232.5 Q-12.65 234.0 -13.3 235.85 -13.95 237.75 -15.65 238.9 -16.5 239.45 -17.3 239.65 L-17.35 239.55 Q-18.7 237.6 -21.3 237.5 L-22.15 237.55 -22.3 237.0 -25.5 236.8 -26.05 236.65 Q-25.4 235.85 -25.15 234.6 L-25.05 233.9 Q-21.35 234.5 -18.15 232.05 -15.0 229.65 -14.3 225.6 -13.55 221.55 -15.75 218.25 -17.9 215.0 -21.7 214.45 L-25.7 214.7 Q-27.0 215.1 -28.15 215.95 -29.65 216.45 -30.9 217.6 -33.25 219.8 -33.45 223.0 L-33.45 223.2 -35.75 223.0 Q-38.9 222.25 -40.55 219.25 L-41.5 216.45 -40.6 216.7 -38.35 216.8 Q-37.4 218.05 -36.15 218.5 -34.65 219.15 -33.6 218.3 -32.55 217.5 -32.65 215.75 -32.65 214.25 -33.5 212.75 L-33.45 212.65 Q-32.0 214.3 -30.0 214.9 L-29.35 215.05 -27.65 215.1 Q-26.6 214.95 -25.7 214.35 L-25.3 214.05 Q-23.3 212.5 -23.05 209.5 -22.9 206.5 -24.65 203.8 -26.5 201.05 -29.15 200.35 -31.8 199.5 -33.85 201.05 -35.2 202.1 -35.7 203.7 -37.05 202.5 -38.8 202.1 -41.4 201.6 -43.5 203.05 L-43.9 202.35 -44.35 201.45 Q-45.65 198.65 -45.25 195.7 -44.8 192.55 -42.75 190.95 M-80.8 238.6 L-80.2 238.3 Q-79.05 237.3 -79.1 235.25 L-79.3 233.7 Q-78.15 234.9 -76.2 235.05 L-75.7 235.3 Q-76.45 236.75 -77.85 237.7 -79.25 238.6 -80.8 238.6 M-67.7 215.55 L-67.15 215.05 -66.45 215.75 -66.7 215.9 -66.85 216.1 -67.7 215.55 M-71.75 249.9 Q-72.55 250.55 -72.45 252.05 -72.4 253.55 -71.4 255.05 -70.4 256.55 -69.15 257.1 L-66.95 257.0 Q-66.1 256.35 -66.2 254.85 -66.3 253.35 -67.3 251.8 -68.3 250.35 -69.55 249.8 L-71.75 249.9 M-64.4 254.95 L-64.2 254.7 -64.35 254.6 -64.4 254.95 M-39.35 242.4 Q-36.9 241.45 -34.4 241.55 -31.35 241.8 -29.65 243.55 L-29.2 243.25 -29.35 243.75 -29.4 243.85 -29.5 244.45 -29.85 243.9 -29.95 243.8 Q-31.5 241.6 -34.7 241.65 -38.0 241.75 -41.15 244.2 -43.2 245.8 -44.4 247.8 -44.5 246.85 -44.95 246.0 L-43.85 245.05 Q-41.7 244.65 -39.85 242.9 L-39.35 242.4 M-32.0 232.05 L-32.1 231.75 Q-34.0 228.45 -33.4 224.6 -33.2 226.6 -31.95 228.25 L-31.05 230.1 -30.65 230.7 -30.9 230.8 -32.0 232.05" fill="#95847e" fill-rule="evenodd" stroke="none"/>
    <path d="M-84.7 237.65 L-86.45 235.7 -86.55 235.55 Q-87.8 233.6 -87.85 231.55 -87.95 229.45 -86.75 228.45 -85.5 227.5 -83.7 228.25 -81.95 229.05 -80.7 230.8 -80.9 229.2 -80.15 227.15 -79.55 225.5 -78.5 224.0 L-77.75 223.1 Q-80.05 222.5 -81.5 220.2 -82.65 218.6 -82.8 216.7 L-82.8 215.25 Q-82.55 212.55 -80.65 211.1 -78.75 209.65 -76.3 210.2 L-75.8 210.35 Q-75.1 208.65 -73.4 207.3 -71.25 205.65 -69.0 205.75 -67.4 205.8 -66.4 206.65 -66.45 205.75 -66.1 204.6 -65.25 202.15 -62.95 200.45 -60.7 198.7 -58.3 198.6 -55.9 198.55 -54.8 200.25 -53.65 201.95 -54.5 204.4 -55.1 206.15 -56.45 207.5 L-56.2 208.2 Q-55.8 209.6 -56.25 211.2 -56.8 213.3 -58.4 214.75 L-59.95 215.05 -61.3 214.5 -62.5 214.35 Q-64.7 214.25 -66.45 215.75 L-67.15 215.05 -67.7 215.55 Q-68.8 215.1 -70.1 215.05 -72.75 215.0 -74.85 216.9 -76.9 218.85 -77.15 221.65 L-77.15 222.55 Q-77.15 224.8 -75.75 226.5 L-75.65 226.6 -76.05 227.0 -76.25 227.15 Q-77.85 228.65 -78.1 230.7 -78.45 232.75 -77.25 234.2 L-76.2 235.05 Q-78.15 234.9 -79.3 233.7 L-79.1 235.25 Q-79.05 237.3 -80.2 238.3 L-80.8 238.6 -83.3 238.5 -84.7 237.65 M-16.7 241.05 L-16.7 241.1 Q-16.4 242.25 -16.65 243.5 L-16.8 244.25 Q-17.55 246.95 -19.9 248.75 -22.3 250.55 -24.9 250.5 -26.8 250.45 -28.05 249.25 L-28.75 248.4 -29.05 247.9 -29.45 249.55 Q-30.6 252.9 -33.75 255.35 L-33.95 255.5 -31.5 255.0 -30.8 255.1 Q-29.25 255.35 -28.4 256.65 -27.35 258.2 -27.95 260.35 -28.5 262.5 -30.4 263.95 -32.3 265.45 -34.4 265.4 -36.5 265.25 -37.5 263.7 -38.55 262.2 -37.9 260.05 L-37.95 259.95 Q-37.4 258.05 -35.8 256.65 -37.95 257.8 -40.15 257.8 L-41.8 257.75 Q-43.5 257.4 -44.6 256.2 L-45.0 255.6 -45.4 254.9 -45.9 255.9 -46.75 257.0 Q-46.05 258.95 -46.5 261.15 -47.15 264.4 -49.75 266.4 -52.35 268.4 -55.35 268.05 -58.45 267.55 -60.15 265.0 -61.85 262.45 -61.25 259.15 -60.8 257.05 -59.5 255.5 L-59.55 255.45 -59.9 254.3 Q-60.95 254.75 -62.35 254.05 -64.15 253.2 -65.55 251.1 -66.9 249.0 -67.05 246.85 -67.3 244.75 -66.2 243.9 -65.0 243.0 -63.2 243.9 -61.4 244.8 -60.05 246.85 L-59.15 248.5 Q-58.25 246.75 -56.6 245.45 L-54.9 244.4 -52.4 243.8 -53.7 244.75 Q-55.55 246.5 -55.8 249.05 -56.1 251.55 -54.55 253.35 -53.1 255.2 -50.75 255.2 -48.35 255.3 -46.5 253.5 -44.65 251.75 -44.4 249.25 L-44.4 247.8 Q-43.2 245.8 -41.15 244.2 -38.0 241.75 -34.7 241.65 -31.5 241.6 -29.95 243.8 L-29.85 243.9 -29.5 244.45 -29.4 243.85 -29.35 243.75 -29.2 243.25 Q-28.4 240.9 -26.25 239.2 -24.3 237.75 -22.15 237.55 L-21.3 237.5 Q-18.7 237.6 -17.35 239.55 L-17.3 239.65 -16.7 241.05 M-71.75 249.9 L-69.55 249.8 Q-68.3 250.35 -67.3 251.8 -66.3 253.35 -66.2 254.85 -66.1 256.35 -66.95 257.0 L-69.15 257.1 Q-70.4 256.55 -71.4 255.05 -72.4 253.55 -72.45 252.05 -72.55 250.55 -71.75 249.9 M-70.6 234.0 L-70.6 233.95 -70.5 233.9 -69.25 232.2 -69.1 233.1 Q-68.7 234.7 -67.6 235.95 -65.65 238.4 -62.6 238.5 -59.5 238.6 -57.2 236.4 -54.85 234.2 -54.55 231.0 -54.35 228.55 -55.4 226.5 L-54.5 225.75 Q-52.85 224.2 -52.55 222.1 -51.0 223.6 -48.8 223.75 -46.45 223.9 -44.6 222.35 -43.0 223.25 -41.9 224.95 -40.55 227.0 -40.35 229.45 -42.1 228.15 -44.4 228.1 -47.75 227.9 -50.25 230.3 -52.8 232.7 -53.1 236.25 -53.35 239.75 -51.2 242.4 L-50.75 242.9 -53.8 243.05 -55.45 242.8 Q-58.6 242.05 -60.45 239.25 L-60.65 238.9 -64.35 239.0 Q-65.75 238.8 -66.95 238.05 -68.75 237.1 -69.95 235.15 L-70.6 234.0 M-42.25 216.2 Q-42.5 214.3 -43.75 212.7 -44.8 211.4 -46.25 210.9 -46.6 209.5 -46.4 208.0 -46.05 205.0 -43.8 203.25 L-43.5 203.05 Q-41.4 201.6 -38.8 202.1 -37.05 202.5 -35.7 203.7 -35.2 202.1 -33.85 201.05 -31.8 199.5 -29.15 200.35 -26.5 201.05 -24.65 203.8 -22.9 206.5 -23.05 209.5 -23.3 212.5 -25.3 214.05 L-25.7 214.35 Q-26.6 214.95 -27.65 215.1 L-29.35 215.05 -30.0 214.9 Q-32.0 214.3 -33.45 212.65 L-33.5 212.75 Q-32.65 214.25 -32.65 215.75 -32.55 217.5 -33.6 218.3 -34.65 219.15 -36.15 218.5 -37.4 218.05 -38.35 216.8 L-40.6 216.7 -41.5 216.45 -42.25 216.2 M-66.1 210.7 Q-66.5 212.15 -65.75 213.0 -65.05 213.85 -63.7 213.65 -62.3 213.35 -61.0 212.15 L-60.25 211.35 Q-59.65 210.5 -59.4 209.6 L-59.35 209.55 Q-58.95 208.05 -59.6 207.2 -60.35 206.35 -61.7 206.65 -63.1 206.85 -64.35 208.1 -65.7 209.25 -66.1 210.7 M-26.05 236.65 L-26.75 237.25 Q-27.95 238.25 -29.5 238.0 -31.05 237.7 -31.9 236.45 -32.75 235.1 -32.5 233.45 L-32.0 232.05 -30.9 230.8 -30.65 230.7 -31.05 230.1 -31.95 228.25 -31.7 228.7 Q-29.7 231.15 -26.65 231.3 -23.65 231.45 -21.35 229.3 -19.05 227.1 -18.85 223.9 -18.6 220.65 -20.6 218.25 -22.6 215.8 -25.6 215.65 L-28.15 215.95 Q-27.0 215.1 -25.7 214.7 L-21.7 214.45 Q-17.9 215.0 -15.75 218.25 -13.55 221.55 -14.3 225.6 -15.0 229.65 -18.15 232.05 -21.35 234.5 -25.05 233.9 L-25.15 234.6 Q-25.4 235.85 -26.05 236.65 M-35.3 257.7 Q-35.55 258.65 -35.0 259.25 -34.55 259.8 -33.65 259.7 -32.75 259.6 -32.0 258.8 -31.15 258.1 -30.95 257.1 -30.75 256.2 -31.2 255.6 -31.7 255.0 -32.6 255.1 -33.5 255.25 -34.3 256.0 -35.15 256.75 -35.3 257.7 M-42.9 250.35 Q-43.55 252.85 -42.25 254.35 -41.05 255.9 -38.65 255.6 -36.25 255.3 -34.25 253.3 -32.15 251.35 -31.55 248.95 -31.0 246.4 -32.25 244.85 -33.5 243.35 -35.85 243.75 -38.2 244.0 -40.25 245.95 -42.35 247.9 -42.9 250.35 M-32.05 233.25 Q-32.1 233.95 -31.7 234.45 -31.3 234.95 -30.7 234.95 -30.0 235.0 -29.55 234.55 -29.05 234.1 -29.0 233.4 -28.9 232.75 -29.3 232.25 -29.75 231.75 -30.35 231.7 -31.05 231.7 -31.5 232.1 -31.95 232.6 -32.05 233.25" fill="#a8a491" fill-rule="evenodd" stroke="none"/>
    <path d="M-75.7 235.3 L-76.2 235.05 -77.25 234.2 Q-78.45 232.75 -78.1 230.7 -77.85 228.65 -76.25 227.15 L-76.05 227.0 -75.65 226.6 -75.75 226.5 Q-77.15 224.8 -77.15 222.55 L-77.15 221.65 Q-76.9 218.85 -74.85 216.9 -72.75 215.0 -70.1 215.05 -68.8 215.1 -67.7 215.55 L-66.85 216.1 -66.7 215.9 -66.45 215.75 Q-64.7 214.25 -62.5 214.35 L-61.3 214.5 -59.95 215.05 -58.4 214.75 -57.85 214.8 Q-55.95 214.85 -54.55 216.05 -54.2 213.75 -52.45 212.1 -50.55 210.3 -48.0 210.5 L-46.25 210.9 Q-44.8 211.4 -43.75 212.7 -42.5 214.3 -42.25 216.2 L-42.2 217.5 Q-42.4 220.25 -44.3 222.1 L-44.6 222.35 Q-46.45 223.9 -48.8 223.75 -51.0 223.6 -52.55 222.1 -52.85 224.2 -54.5 225.75 L-55.4 226.5 Q-54.35 228.55 -54.55 231.0 -54.85 234.2 -57.2 236.4 -59.5 238.6 -62.6 238.5 -65.65 238.4 -67.6 235.95 -68.7 234.7 -69.1 233.1 L-69.25 232.2 -70.5 233.9 -70.6 233.95 -70.6 234.0 Q-71.6 234.95 -72.75 235.3 L-74.15 235.55 -75.7 235.3 M-44.4 247.8 L-44.4 249.25 Q-44.65 251.75 -46.5 253.5 -48.35 255.3 -50.75 255.2 -53.1 255.2 -54.55 253.35 -56.1 251.55 -55.8 249.05 -55.55 246.5 -53.7 244.75 L-52.4 243.8 -50.55 243.15 -50.75 242.9 -51.2 242.4 Q-53.35 239.75 -53.1 236.25 -52.8 232.7 -50.25 230.3 -47.75 227.9 -44.4 228.1 -42.1 228.15 -40.35 229.45 L-38.9 230.85 Q-36.8 233.45 -37.1 237.0 -37.3 240.15 -39.35 242.4 L-39.85 242.9 Q-41.7 244.65 -43.85 245.05 L-45.4 245.2 -44.95 246.0 Q-44.5 246.85 -44.4 247.8 M-66.1 210.7 Q-65.7 209.25 -64.35 208.1 -63.1 206.85 -61.7 206.65 -60.35 206.35 -59.6 207.2 -58.95 208.05 -59.35 209.55 L-59.4 209.6 Q-59.65 210.5 -60.25 211.35 L-61.0 212.15 Q-62.3 213.35 -63.7 213.65 -65.05 213.85 -65.75 213.0 -66.5 212.15 -66.1 210.7 M-33.4 224.6 L-33.45 223.2 -33.45 223.0 Q-33.25 219.8 -30.9 217.6 -29.65 216.45 -28.15 215.95 L-25.6 215.65 Q-22.6 215.8 -20.6 218.25 -18.6 220.65 -18.85 223.9 -19.05 227.1 -21.35 229.3 -23.65 231.45 -26.65 231.3 -29.7 231.15 -31.7 228.7 L-31.95 228.25 Q-33.2 226.6 -33.4 224.6 M-42.9 250.35 Q-42.35 247.9 -40.25 245.95 -38.2 244.0 -35.85 243.75 -33.5 243.35 -32.25 244.85 -31.0 246.4 -31.55 248.95 -32.15 251.35 -34.25 253.3 -36.25 255.3 -38.65 255.6 -41.05 255.9 -42.25 254.35 -43.55 252.85 -42.9 250.35 M-35.3 257.7 Q-35.15 256.75 -34.3 256.0 -33.5 255.25 -32.6 255.1 -31.7 255.0 -31.2 255.6 -30.75 256.2 -30.95 257.1 -31.15 258.1 -32.0 258.8 -32.75 259.6 -33.65 259.7 -34.55 259.8 -35.0 259.25 -35.55 258.65 -35.3 257.7 M-32.05 233.25 Q-31.95 232.6 -31.5 232.1 -31.05 231.7 -30.35 231.7 -29.75 231.75 -29.3 232.25 -28.9 232.75 -29.0 233.4 -29.05 234.1 -29.55 234.55 -30.0 235.0 -30.7 234.95 -31.3 234.95 -31.7 234.45 -32.1 233.95 -32.05 233.25" fill="#ffeea1" fill-rule="evenodd" stroke="none"/>
    <path d="M-73.75 201.3 L-73.2 200.05 Q-71.95 197.85 -69.45 196.65 -67.0 195.4 -64.7 195.95 L-63.65 196.2 M-53.8 198.3 Q-54.15 196.5 -53.2 194.55 -52.05 192.05 -49.4 190.75 -46.8 189.5 -44.35 190.2 -43.5 190.5 -42.75 190.95 M-37.9 189.9 L-36.95 189.35 Q-33.55 187.7 -30.35 188.7 -27.15 189.65 -25.95 192.65 -24.85 195.5 -26.15 198.55 M-24.25 199.5 Q-22.2 199.25 -20.05 200.25 -16.75 201.9 -15.3 205.65 -13.8 209.4 -14.95 213.0 -12.5 212.0 -10.0 212.95 -7.4 213.95 -6.3 216.65 -5.15 219.4 -6.3 222.3 -7.4 225.0 -9.85 226.3 -7.55 227.7 -6.45 230.55 -5.1 233.85 -6.1 237.05 -7.15 240.3 -9.9 241.7 -12.65 243.05 -15.55 241.7 L-16.7 241.05 M-16.7 241.1 Q-15.1 242.45 -14.2 244.7 -12.95 247.85 -13.75 250.85 -14.5 253.9 -16.85 255.0 L-18.0 255.45 M-20.6 257.65 Q-20.3 259.9 -21.15 262.05 -22.4 265.35 -25.45 266.75 -28.35 268.2 -31.2 267.25 L-31.55 267.15 -32.25 266.8 M-73.9 202.1 L-73.75 201.3 M-53.1 200.15 Q-52.15 201.75 -50.15 202.35 -47.65 203.05 -45.05 201.8 L-44.35 201.45 M-9.85 226.3 L-10.1 226.45 -11.55 227.0 M-15.95 215.4 L-14.95 213.2 -14.95 213.0" fill="none" stroke="#a80f06" stroke-linecap="round" stroke-linejoin="round" stroke-opacity="0.0" stroke-width="6.0"/>
    <path d="M-245.9 279.2 Q-233.2 284.55 -235.45 267.05 -230.0 279.0 -222.45 271.7 -227.0 286.75 -218.55 284.25 -226.5 295.45 -217.1 301.8 -226.25 300.5 -221.25 313.6 -230.9 304.1 -233.95 318.65 -233.45 304.45 -244.9 310.75 -233.9 298.8 -246.9 292.5 -237.55 291.35 -245.9 279.2 M-254.05 292.3 Q-234.7 301.7 -251.05 319.6 -234.1 310.15 -234.85 331.3 -230.25 309.65 -215.85 323.8 -223.3 304.3 -209.7 306.2 -223.65 296.75 -211.8 280.05 -224.4 283.8 -217.65 261.45 -228.9 272.3 -237.0 254.5 -233.7 280.5 -252.6 272.55 -240.1 290.65 -254.05 292.3" fill="#ffe843" fill-rule="evenodd" stroke="none"/>
    <path d="M-226.1 282.35 L-226.05 282.2 Q-225.25 279.8 -226.1 277.65 -226.95 275.45 -228.9 274.75 L-231.5 274.6 Q-231.5 272.85 -232.2 271.1 -232.95 269.1 -234.25 267.95 L-235.45 267.1 Q-236.2 266.75 -236.9 266.6 -237.4 265.35 -238.3 264.55 -238.9 264.0 -239.65 263.65 -241.65 262.8 -243.55 263.95 -245.45 265.1 -246.1 267.6 -246.5 268.8 -246.4 270.0 L-246.2 270.1 Q-244.95 270.55 -244.65 271.8 L-244.55 272.15 -244.3 271.3 Q-243.25 268.45 -240.9 267.45 -238.6 266.45 -236.45 268.0 -234.2 269.55 -233.35 272.65 -232.55 275.8 -233.55 278.75 L-234.15 280.05 -233.4 280.6 Q-232.75 279.4 -231.65 278.95 -230.15 278.3 -228.6 279.35 -227.3 280.35 -226.7 282.15 L-226.25 282.3 -226.1 282.35 -226.25 282.3 -226.7 282.15 -226.5 282.75 Q-225.9 284.95 -226.6 287.0 L-226.9 287.75 Q-225.55 289.15 -224.95 291.5 L-224.9 291.65 Q-223.95 290.7 -223.55 289.25 -222.95 287.1 -223.75 285.1 -224.45 283.15 -226.1 282.35 M-251.1 272.1 Q-251.8 270.25 -253.55 269.75 -255.4 269.2 -257.2 270.3 -259.0 271.35 -259.8 273.45 L-259.85 273.7 -258.95 273.9 Q-258.05 274.25 -257.8 274.9 -257.15 275.6 -256.85 276.65 -256.6 277.7 -256.8 278.8 L-256.05 279.35 -255.5 280.05 -253.7 279.4 Q-251.85 278.3 -251.1 276.2 L-251.0 275.85 -251.6 274.8 Q-251.9 273.5 -251.15 272.2 L-251.1 272.1 M-261.45 273.95 Q-263.1 273.75 -264.7 274.7 L-265.65 275.45 Q-267.15 276.8 -267.8 279.05 -268.65 282.0 -267.55 284.8 L-267.3 285.45 -266.5 284.85 Q-265.8 284.0 -264.7 283.7 L-262.0 283.85 -262.05 283.1 -263.35 282.75 Q-264.9 282.05 -265.4 280.3 -265.85 278.5 -264.9 276.75 -264.0 274.95 -262.25 274.25 L-261.45 273.95 M-267.95 286.35 Q-268.7 286.35 -269.35 286.8 -270.7 287.6 -271.15 289.55 -271.65 291.5 -270.85 293.4 -270.1 295.3 -268.65 296.1 L-268.15 296.35 -268.3 297.2 Q-268.55 298.8 -267.9 300.5 -267.25 302.15 -266.1 302.95 L-265.55 303.2 Q-265.95 301.45 -265.3 299.8 -267.2 298.75 -267.8 296.45 L-267.9 295.85 Q-268.25 293.9 -267.4 291.95 L-267.25 291.7 Q-268.3 291.05 -268.6 289.8 -269.0 288.2 -268.1 286.65 L-267.95 286.35 M-260.55 306.45 Q-261.35 307.15 -261.6 308.55 -262.0 310.3 -261.35 312.05 -260.65 313.8 -259.35 314.5 L-258.4 314.85 Q-258.7 313.15 -257.75 311.45 -256.85 309.8 -255.3 308.95 L-255.5 308.5 Q-256.2 306.75 -257.45 306.05 L-259.55 305.85 -260.55 306.45 M-256.65 317.45 L-256.4 318.15 Q-255.55 320.4 -253.85 321.35 -252.05 322.25 -250.5 321.3 -249.0 320.4 -248.45 318.3 -249.85 317.65 -250.35 316.15 -251.2 317.1 -252.4 317.65 L-256.1 317.75 -256.65 317.45 M-247.3 318.65 Q-246.5 319.7 -245.2 320.1 -243.2 320.75 -241.2 319.55 -239.2 318.35 -238.45 316.1 -237.75 317.65 -236.3 318.25 -234.8 318.9 -233.35 318.0 -231.9 317.15 -231.35 315.25 -230.85 313.4 -231.45 311.75 -229.95 312.05 -228.4 311.15 -226.7 310.1 -226.0 308.05 -225.25 306.0 -226.0 304.15 -226.7 302.3 -228.4 301.75 L-229.15 301.55 -229.9 301.95 -229.5 303.05 Q-229.15 304.3 -229.5 305.55 -229.9 306.75 -230.8 307.1 L-231.1 307.2 Q-231.15 308.7 -231.7 310.15 L-231.95 310.7 Q-233.1 313.15 -235.3 314.1 L-238.0 314.45 -240.0 313.7 -241.05 312.85 Q-240.9 314.2 -241.7 315.6 -242.75 317.45 -244.65 318.25 -246.0 318.85 -247.3 318.65 M-229.15 301.5 Q-227.95 301.55 -226.75 300.8 -225.1 299.8 -224.35 298.0 -223.6 296.15 -224.2 294.6 L-224.55 293.9 Q-224.55 295.4 -224.95 296.8 -225.75 299.35 -227.55 300.1 L-228.25 300.3 Q-228.55 301.05 -229.15 301.5 M-244.9 274.15 L-244.85 274.25 -244.8 273.95 -244.95 274.15 -244.9 274.15 M-268.15 296.35 L-267.9 295.85 -268.15 296.35 M-238.45 316.1 L-238.35 315.95 -238.0 314.45 -238.35 315.95 -238.45 316.1 M-231.95 310.7 L-231.5 311.55 -231.45 311.75 -231.5 311.55 -231.95 310.7" fill="#696565" fill-rule="evenodd" stroke="none"/>
    <path d="M-246.4 270.0 Q-247.6 269.65 -248.95 270.25 -250.3 270.85 -251.1 272.1 L-251.15 272.2 Q-251.9 273.5 -251.6 274.8 L-251.0 275.85 -250.7 276.1 -251.45 277.25 Q-252.5 279.2 -252.0 281.2 -251.25 281.35 -250.55 281.9 -249.55 282.5 -248.95 283.55 L-248.7 283.4 Q-246.95 282.85 -245.35 283.85 L-244.5 283.3 -244.9 282.05 Q-245.15 280.7 -244.85 279.45 L-245.85 279.85 -248.3 280.0 Q-249.4 279.65 -249.6 278.7 -249.75 277.8 -248.9 276.8 -248.1 275.85 -246.7 275.45 L-244.3 275.35 Q-243.4 275.6 -243.15 276.25 L-242.55 275.85 Q-242.55 274.5 -241.95 273.3 -241.05 271.4 -239.4 270.9 -237.75 270.4 -236.25 271.5 -234.8 272.6 -234.4 274.75 -234.0 276.85 -234.9 278.7 -235.45 279.95 -236.45 280.65 L-236.5 281.55 -236.65 282.25 -236.2 282.1 -235.85 282.0 Q-234.9 281.9 -234.05 282.4 L-233.3 283.1 Q-232.35 284.1 -231.85 285.6 -232.0 284.2 -231.6 283.0 L-231.55 282.95 Q-231.05 281.65 -230.05 281.4 -229.1 281.05 -228.15 281.9 -227.2 282.75 -226.9 284.3 -226.6 285.85 -227.1 287.15 -227.65 288.45 -228.65 288.8 -229.5 289.05 -230.25 288.5 L-230.6 288.25 -231.5 286.9 -231.4 287.1 Q-230.95 289.65 -231.65 291.8 L-232.05 292.8 -231.75 292.7 -231.15 292.55 Q-230.2 292.5 -229.3 293.35 -228.2 294.4 -227.75 296.35 -227.4 298.25 -228.05 299.9 L-228.25 300.3 -227.55 300.1 Q-225.75 299.35 -224.95 296.8 -224.55 295.4 -224.55 293.9 -224.6 292.8 -224.9 291.65 L-224.95 291.5 Q-225.55 289.15 -226.9 287.75 L-226.6 287.0 Q-225.9 284.95 -226.5 282.75 L-226.7 282.15 Q-227.3 280.35 -228.6 279.35 -230.15 278.3 -231.65 278.95 -232.75 279.4 -233.4 280.6 L-234.15 280.05 -233.55 278.75 Q-232.55 275.8 -233.35 272.65 -234.2 269.55 -236.45 268.0 -238.6 266.45 -240.9 267.45 -243.25 268.45 -244.3 271.3 L-244.55 272.15 -244.65 271.8 Q-244.95 270.55 -246.2 270.1 L-246.4 270.0 M-261.4 273.9 L-261.45 273.95 -262.25 274.25 Q-264.0 274.95 -264.9 276.75 -265.85 278.5 -265.4 280.3 -264.9 282.05 -263.35 282.75 L-262.05 283.1 -261.65 280.85 Q-261.25 279.5 -260.55 278.8 L-262.75 278.75 Q-263.8 278.35 -264.0 277.35 -264.2 276.35 -263.4 275.3 -262.65 274.35 -261.4 273.9 M-267.3 285.45 L-267.95 286.35 -268.1 286.65 Q-269.0 288.2 -268.6 289.8 -268.3 291.05 -267.25 291.7 L-267.4 291.95 Q-268.25 293.9 -267.9 295.85 L-267.8 296.45 Q-267.2 298.75 -265.3 299.8 -265.95 301.45 -265.55 303.2 L-265.5 303.4 Q-265.0 305.4 -263.55 306.25 L-260.55 306.45 -259.55 305.85 Q-258.75 305.15 -258.3 304.0 -257.6 302.3 -258.0 300.55 L-258.4 300.75 Q-258.3 302.0 -258.65 303.15 -259.15 304.75 -260.25 305.05 -261.35 305.4 -262.4 304.3 -263.35 303.25 -263.75 301.45 -264.1 299.6 -263.6 298.0 L-263.0 296.9 Q-263.75 296.85 -264.5 296.2 -265.45 295.25 -265.8 293.55 -266.1 292.15 -265.75 290.95 L-266.0 290.8 Q-267.3 290.05 -267.65 288.5 -267.9 286.95 -267.05 285.55 L-266.5 284.85 -267.3 285.45 M-258.4 314.85 L-258.3 315.2 Q-257.9 316.65 -256.65 317.45 L-256.1 317.75 -252.4 317.65 Q-251.2 317.1 -250.35 316.15 -249.85 317.65 -248.45 318.3 L-248.3 318.4 -247.3 318.65 Q-246.0 318.85 -244.65 318.25 -242.75 317.45 -241.7 315.6 -240.9 314.2 -241.05 312.85 L-240.0 313.7 -238.0 314.45 -235.3 314.1 Q-233.1 313.15 -231.95 310.7 L-231.7 310.15 Q-231.15 308.7 -231.1 307.2 L-230.8 307.1 Q-229.9 306.75 -229.5 305.55 -229.15 304.3 -229.5 303.05 L-229.9 301.95 -230.0 302.0 Q-231.25 302.35 -232.4 301.25 L-232.8 300.9 -233.0 301.05 -234.5 299.8 -234.75 299.65 Q-234.75 300.3 -235.1 301.05 L-235.35 301.4 Q-233.5 302.7 -233.0 305.3 -232.5 307.85 -233.65 310.15 -234.75 312.5 -236.9 313.15 -239.0 313.8 -240.85 312.45 -241.9 311.7 -242.5 310.55 L-243.1 308.9 -243.7 306.9 Q-243.95 304.8 -242.85 303.15 L-242.8 303.05 Q-243.25 302.5 -243.9 302.15 -245.5 301.15 -247.3 301.9 L-248.7 302.85 -248.2 303.1 Q-247.65 303.5 -247.25 304.05 L-245.65 304.15 Q-244.75 304.5 -244.65 305.35 -244.45 306.2 -245.1 307.1 -245.65 307.75 -246.6 308.15 L-246.55 308.2 Q-245.35 308.05 -244.3 308.65 L-243.95 308.85 -243.15 309.55 Q-242.8 310.05 -242.6 310.75 L-242.55 311.05 Q-242.2 312.7 -243.2 314.25 -244.2 315.85 -245.95 316.4 L-249.1 316.15 Q-250.55 315.4 -250.9 313.75 -251.1 312.65 -250.75 311.6 -251.75 311.65 -252.65 311.05 -253.95 310.2 -254.4 308.6 L-254.8 308.7 -255.3 308.95 Q-256.85 309.8 -257.75 311.45 -258.7 313.15 -258.4 314.85 M-257.8 274.9 L-257.7 275.35 Q-257.5 276.35 -258.3 277.35 L-258.9 278.0 Q-258.0 277.9 -257.05 278.7 L-256.8 278.8 Q-256.6 277.7 -256.85 276.65 -257.15 275.6 -257.8 274.9 M-260.4 291.9 L-260.3 292.45 -259.8 292.35 -259.8 292.2 -259.8 292.05 -260.4 291.9 M-249.4 271.95 Q-248.85 271.2 -247.85 270.9 -246.9 270.6 -246.1 270.9 -245.35 271.15 -245.25 271.85 -245.05 272.55 -245.7 273.25 -246.25 273.95 -247.25 274.3 -248.15 274.6 -248.9 274.3 -249.7 274.0 -249.85 273.35 -250.0 272.6 -249.4 271.95 M-244.9 274.15 L-244.95 274.15 -244.8 273.95 -244.85 274.25 -244.9 274.15 M-238.5 291.0 Q-237.75 292.55 -236.65 293.55 -235.25 294.8 -233.85 294.65 L-233.8 295.05 -233.7 294.7 -233.6 294.65 -233.5 294.3 -233.8 294.45 -233.9 294.45 Q-235.35 294.8 -236.7 293.4 -238.15 291.95 -238.6 289.4 -238.95 287.7 -238.7 286.15 -239.15 286.6 -239.65 286.85 L-239.5 287.8 Q-238.7 288.9 -238.55 290.55 L-238.5 291.0 M-239.0 299.3 L-239.2 299.4 Q-241.15 300.25 -242.3 302.4 -241.45 301.45 -240.35 301.15 L-239.25 300.7 -238.9 300.55 -238.95 300.4 -239.0 299.3" fill="#95847e" fill-rule="evenodd" stroke="none"/>
    <path d="M-259.85 273.7 L-261.3 273.9 -261.4 273.9 Q-262.65 274.35 -263.4 275.3 -264.2 276.35 -264.0 277.35 -263.8 278.35 -262.75 278.75 L-260.55 278.8 Q-261.25 279.5 -261.65 280.85 L-262.05 283.1 -262.0 283.85 -264.7 283.7 Q-265.8 284.0 -266.5 284.85 L-267.05 285.55 Q-267.9 286.95 -267.65 288.5 -267.3 290.05 -266.0 290.8 L-265.75 290.95 Q-266.1 292.15 -265.8 293.55 -265.45 295.25 -264.5 296.2 -263.75 296.85 -263.0 296.9 L-263.6 298.0 Q-264.1 299.6 -263.75 301.45 -263.35 303.25 -262.4 304.3 -261.35 305.4 -260.25 305.05 -259.15 304.75 -258.65 303.15 -258.3 302.0 -258.4 300.75 L-258.0 300.55 Q-257.35 300.05 -256.95 299.05 -256.45 297.8 -256.6 296.35 L-257.2 295.5 -257.95 295.25 -258.55 294.8 Q-259.55 293.85 -259.8 292.35 L-260.3 292.45 -260.4 291.9 Q-261.0 291.7 -261.6 291.15 -262.75 290.05 -263.0 288.2 -263.15 286.35 -262.25 284.85 L-261.95 284.4 Q-261.15 283.3 -259.95 283.1 L-259.85 283.05 -259.9 282.75 -259.95 282.55 Q-260.1 281.15 -259.5 280.0 -258.85 278.8 -257.85 278.65 L-257.05 278.7 Q-258.0 277.9 -258.9 278.0 L-258.3 277.35 Q-257.5 276.35 -257.7 275.35 L-257.8 274.9 Q-258.05 274.25 -258.95 273.9 L-259.85 273.7 M-229.15 301.55 L-229.15 301.5 Q-228.55 301.05 -228.25 300.3 L-228.05 299.9 Q-227.4 298.25 -227.75 296.35 -228.2 294.4 -229.3 293.35 -230.2 292.5 -231.15 292.55 L-231.75 292.7 -232.05 292.8 -231.65 291.8 Q-230.95 289.65 -231.4 287.1 L-231.5 286.9 -230.6 288.25 -230.25 288.5 Q-229.5 289.05 -228.65 288.8 -227.65 288.45 -227.1 287.15 -226.6 285.85 -226.9 284.3 -227.2 282.75 -228.15 281.9 -229.1 281.05 -230.05 281.4 -231.05 281.65 -231.55 282.95 L-231.6 283.0 Q-232.0 284.2 -231.85 285.6 -232.35 284.1 -233.3 283.1 L-234.05 282.4 Q-234.9 281.9 -235.85 282.0 L-236.2 282.1 -236.65 282.25 -236.5 281.55 -236.45 280.65 Q-235.45 279.95 -234.9 278.7 -234.0 276.85 -234.4 274.75 -234.8 272.6 -236.25 271.5 -237.75 270.4 -239.4 270.9 -241.05 271.4 -241.95 273.3 -242.55 274.5 -242.55 275.85 L-243.15 276.25 Q-243.4 275.6 -244.3 275.35 L-246.7 275.45 Q-248.1 275.85 -248.9 276.8 -249.75 277.8 -249.6 278.7 -249.4 279.65 -248.3 280.0 L-245.85 279.85 -244.85 279.45 Q-245.15 280.7 -244.9 282.05 L-244.5 283.3 -243.65 284.7 -243.85 283.65 Q-244.05 282.0 -243.25 280.65 -242.45 279.3 -241.15 279.05 -239.9 278.8 -238.85 279.8 -237.75 280.8 -237.6 282.45 -237.45 284.15 -238.25 285.5 L-238.7 286.15 Q-238.95 287.7 -238.6 289.4 -238.15 291.95 -236.7 293.4 -235.35 294.8 -233.9 294.45 L-233.8 294.45 -233.5 294.3 -233.6 294.65 -233.7 294.7 -233.8 295.05 Q-234.25 296.55 -233.95 298.3 -233.65 299.85 -232.8 300.9 L-232.4 301.25 Q-231.25 302.35 -230.0 302.0 L-229.9 301.95 -229.15 301.55 M-249.4 271.95 Q-250.0 272.6 -249.85 273.35 -249.7 274.0 -248.9 274.3 -248.15 274.6 -247.25 274.3 -246.25 273.95 -245.7 273.25 -245.05 272.55 -245.25 271.85 -245.35 271.15 -246.1 270.9 -246.9 270.6 -247.85 270.9 -248.85 271.2 -249.4 271.95 M-255.05 281.6 L-255.05 281.7 -255.1 283.1 -254.75 282.7 Q-254.0 282.1 -253.05 281.95 -251.3 281.6 -249.9 282.85 -248.6 284.15 -248.35 286.25 -248.15 288.35 -249.15 290.05 -249.95 291.35 -251.15 291.9 L-251.0 292.65 Q-250.85 294.1 -251.5 295.3 -250.25 295.25 -249.25 296.1 -248.15 297.05 -247.95 298.6 L-245.8 298.5 Q-244.5 298.05 -243.55 296.95 -244.75 296.85 -245.8 295.9 -247.3 294.55 -247.55 292.25 -247.8 289.95 -246.65 288.1 -245.5 286.25 -243.65 285.9 L-243.25 285.8 Q-243.8 285.05 -244.5 284.4 L-245.35 283.85 Q-246.95 282.85 -248.7 283.4 L-248.95 283.55 Q-249.55 282.5 -250.55 281.9 -251.25 281.35 -252.0 281.2 L-254.35 281.35 -255.05 281.6 M-249.15 302.65 Q-249.9 303.5 -251.0 303.7 L-252.75 303.55 Q-253.4 304.05 -253.85 304.9 -254.8 306.55 -254.45 308.3 L-254.4 308.6 Q-253.95 310.2 -252.65 311.05 -251.75 311.65 -250.75 311.6 -251.1 312.65 -250.9 313.75 -250.55 315.4 -249.1 316.15 L-245.95 316.4 Q-244.2 315.85 -243.2 314.25 -242.2 312.7 -242.55 311.05 L-242.6 310.75 Q-242.8 310.05 -243.15 309.55 L-243.95 308.85 -244.3 308.65 Q-245.35 308.05 -246.55 308.2 L-246.6 308.15 Q-245.65 307.75 -245.1 307.1 -244.45 306.2 -244.65 305.35 -244.75 304.5 -245.65 304.15 L-247.25 304.05 Q-247.65 303.5 -248.2 303.1 L-248.7 302.85 -249.15 302.65 M-261.4 295.05 Q-261.05 294.15 -260.45 294.05 -259.85 293.9 -259.3 294.65 -258.8 295.4 -258.7 296.5 L-258.65 297.25 -258.9 298.5 -258.9 298.55 Q-259.25 299.45 -259.9 299.55 -260.45 299.65 -261.0 298.95 -261.5 298.2 -261.6 297.05 -261.75 295.95 -261.4 295.05 M-234.75 299.65 L-234.85 299.05 Q-235.05 298.0 -235.8 297.5 -236.55 296.9 -237.4 297.2 -238.25 297.45 -238.75 298.4 L-239.0 299.3 -238.95 300.4 -238.9 300.55 -239.25 300.7 -240.35 301.15 -240.05 301.15 Q-238.35 300.8 -237.0 302.0 -235.6 303.25 -235.35 305.3 -235.15 307.35 -236.2 309.05 -237.25 310.7 -239.0 311.05 -240.7 311.4 -242.05 310.15 L-243.1 308.9 -242.5 310.55 Q-241.9 311.7 -240.85 312.45 -239.0 313.8 -236.9 313.15 -234.75 312.5 -233.65 310.15 -232.5 307.85 -233.0 305.3 -233.5 302.7 -235.35 301.4 L-235.1 301.05 Q-234.75 300.3 -234.75 299.65 M-231.25 285.3 Q-231.0 284.7 -230.6 284.6 -230.15 284.55 -229.85 285.0 -229.45 285.45 -229.45 286.15 -229.35 286.85 -229.6 287.45 -229.8 288.0 -230.25 288.1 L-231.0 287.7 -231.4 286.55 Q-231.5 285.85 -231.25 285.3 M-237.15 285.55 Q-236.55 284.05 -235.45 283.9 -234.35 283.65 -233.45 284.85 -232.55 286.0 -232.35 287.9 -232.15 289.75 -232.8 291.25 -233.4 292.65 -234.5 292.9 -235.6 293.1 -236.5 291.9 -237.4 290.75 -237.6 288.9 -237.8 287.0 -237.15 285.55 M-238.55 298.7 L-238.0 298.3 Q-237.65 298.15 -237.35 298.5 L-237.05 299.15 -237.2 299.9 -237.8 300.4 Q-238.1 300.45 -238.45 300.15 L-238.8 299.5 -238.55 298.7" fill="#a8a491" fill-rule="evenodd" stroke="none"/>
    <path d="M-256.8 278.8 L-257.05 278.7 -257.85 278.65 Q-258.85 278.8 -259.5 280.0 -260.1 281.15 -259.95 282.55 L-259.9 282.75 -259.85 283.05 -259.95 283.1 Q-261.15 283.3 -261.95 284.4 L-262.25 284.85 Q-263.15 286.35 -263.0 288.2 -262.75 290.05 -261.6 291.15 -261.0 291.7 -260.4 291.9 L-259.8 292.05 -259.8 292.2 -259.8 292.35 Q-259.55 293.85 -258.55 294.8 L-257.95 295.25 -257.2 295.5 -256.6 296.35 -256.35 296.6 Q-255.55 297.35 -254.5 297.4 -255.2 298.7 -255.0 300.25 -254.85 301.95 -253.7 302.95 L-252.75 303.55 -251.0 303.7 Q-249.9 303.5 -249.15 302.65 L-248.6 302.0 Q-247.75 300.6 -247.9 298.9 L-247.95 298.6 Q-248.15 297.05 -249.25 296.1 -250.25 295.25 -251.5 295.3 -250.85 294.1 -251.0 292.65 L-251.15 291.9 Q-249.95 291.35 -249.15 290.05 -248.15 288.35 -248.35 286.25 -248.6 284.15 -249.9 282.85 -251.3 281.6 -253.05 281.95 -254.0 282.1 -254.75 282.7 L-255.1 283.1 -255.05 281.7 -255.05 281.6 Q-255.2 280.7 -255.5 280.05 L-256.05 279.35 -256.8 278.8 M-238.7 286.15 L-238.25 285.5 Q-237.45 284.15 -237.6 282.45 -237.75 280.8 -238.85 279.8 -239.9 278.8 -241.15 279.05 -242.45 279.3 -243.25 280.65 -244.05 282.0 -243.85 283.65 L-243.65 284.7 -243.05 285.8 -243.25 285.8 -243.65 285.9 Q-245.5 286.25 -246.65 288.1 -247.8 289.95 -247.55 292.25 -247.3 294.55 -245.8 295.9 -244.75 296.85 -243.55 296.95 L-242.45 296.9 Q-240.6 296.55 -239.45 294.65 -238.4 293.05 -238.5 291.0 L-238.55 290.55 Q-238.7 288.9 -239.5 287.8 L-240.1 287.0 -239.65 286.85 Q-239.15 286.6 -238.7 286.15 M-261.4 295.05 Q-261.75 295.95 -261.6 297.05 -261.5 298.2 -261.0 298.95 -260.45 299.65 -259.9 299.55 -259.25 299.45 -258.9 298.55 L-258.9 298.5 -258.65 297.25 -258.7 296.5 Q-258.8 295.4 -259.3 294.65 -259.85 293.9 -260.45 294.05 -261.05 294.15 -261.4 295.05 M-242.3 302.4 L-242.8 303.05 -242.85 303.15 Q-243.95 304.8 -243.7 306.9 L-243.1 308.9 -242.05 310.15 Q-240.7 311.4 -239.0 311.05 -237.25 310.7 -236.2 309.05 -235.15 307.35 -235.35 305.3 -235.6 303.25 -237.0 302.0 -238.35 300.8 -240.05 301.15 L-240.35 301.15 Q-241.45 301.45 -242.3 302.4 M-237.15 285.55 Q-237.8 287.0 -237.6 288.9 -237.4 290.75 -236.5 291.9 -235.6 293.1 -234.5 292.9 -233.4 292.65 -232.8 291.25 -232.15 289.75 -232.35 287.9 -232.55 286.0 -233.45 284.85 -234.35 283.65 -235.45 283.9 -236.55 284.05 -237.15 285.55 M-231.25 285.3 Q-231.5 285.85 -231.4 286.55 L-231.0 287.7 -230.25 288.1 Q-229.8 288.0 -229.6 287.45 -229.35 286.85 -229.45 286.15 -229.45 285.45 -229.85 285.0 -230.15 284.55 -230.6 284.6 -231.0 284.7 -231.25 285.3 M-238.55 298.7 L-238.8 299.5 -238.45 300.15 Q-238.1 300.45 -237.8 300.4 L-237.2 299.9 -237.05 299.15 -237.35 298.5 Q-237.65 298.15 -238.0 298.3 L-238.55 298.7" fill="#ffeea1" fill-rule="evenodd" stroke="none"/>
    <path d="M-268.15 296.35 L-268.3 297.2 Q-268.55 298.8 -267.9 300.5 -267.25 302.15 -266.1 302.95 L-265.55 303.2 M-260.55 306.45 Q-261.35 307.15 -261.6 308.55 -262.0 310.3 -261.35 312.05 -260.65 313.8 -259.35 314.5 L-258.4 314.85 M-256.65 317.45 L-256.4 318.15 Q-255.55 320.4 -253.85 321.35 -252.05 322.25 -250.5 321.3 -249.0 320.4 -248.45 318.3 M-247.3 318.65 Q-246.5 319.7 -245.2 320.1 -243.2 320.75 -241.2 319.55 -239.2 318.35 -238.45 316.1 -237.75 317.65 -236.3 318.25 -234.8 318.9 -233.35 318.0 -231.9 317.15 -231.35 315.25 -230.85 313.4 -231.45 311.75 -229.95 312.05 -228.4 311.15 -226.7 310.1 -226.0 308.05 -225.25 306.0 -226.0 304.15 -226.7 302.3 -228.4 301.75 L-229.15 301.55 M-229.15 301.5 Q-227.95 301.55 -226.75 300.8 -225.1 299.8 -224.35 298.0 -223.6 296.15 -224.2 294.6 L-224.55 293.9 M-224.9 291.65 Q-223.95 290.7 -223.55 289.25 -222.95 287.1 -223.75 285.1 -224.45 283.15 -226.1 282.35 L-226.25 282.3 -226.7 282.15 M-267.9 295.85 L-268.15 296.35 M-259.55 305.85 L-257.45 306.05 Q-256.2 306.75 -255.5 308.5 L-255.3 308.95 M-231.45 311.75 L-231.5 311.55 -231.95 310.7 M-238.0 314.45 L-238.35 315.95 -238.45 316.1" fill="none" stroke="#a80f06" stroke-linecap="round" stroke-linejoin="round" stroke-opacity="0.0" stroke-width="6.0"/>
    <path d="M-180.35 250.15 Q-159.35 259.0 -163.05 230.1 -154.05 249.85 -141.55 237.85 -149.1 262.65 -135.15 258.55 -148.3 277.05 -132.8 287.55 -147.85 285.45 -139.6 307.1 -155.55 291.4 -160.6 315.4 -159.8 291.95 -178.65 302.4 -160.55 282.55 -181.95 272.1 -166.45 270.3 -180.35 250.15 M-193.8 271.85 Q-161.85 287.4 -188.85 316.95 -160.75 301.3 -162.05 336.25 -154.5 300.55 -130.7 323.9 -142.95 291.7 -120.55 294.8 -143.65 279.2 -124.05 251.65 -144.85 257.8 -133.7 220.9 -152.25 238.75 -165.65 209.35 -160.15 252.3 -191.4 239.25 -170.75 269.15 -193.8 271.85" fill="#ffe843" fill-rule="evenodd" stroke="none"/>
    <path d="M-147.55 255.45 L-147.45 255.15 Q-146.2 251.25 -147.6 247.65 -148.95 244.05 -152.2 242.85 L-156.45 242.6 Q-156.55 239.7 -157.6 236.85 -158.9 233.55 -161.05 231.65 L-163.1 230.2 Q-164.25 229.6 -165.35 229.4 -166.3 227.3 -167.75 226.0 -168.75 225.1 -170.0 224.6 -173.3 223.15 -176.35 225.0 -179.5 226.95 -180.7 231.05 -181.25 233.05 -181.2 235.05 L-180.85 235.2 Q-178.75 235.9 -178.2 238.05 L-178.1 238.65 -177.65 237.25 Q-175.9 232.4 -172.1 230.8 -168.3 229.15 -164.65 231.7 -160.95 234.25 -159.55 239.45 -158.2 244.6 -159.95 249.45 L-160.85 251.65 -159.65 252.5 Q-158.6 250.55 -156.75 249.8 -154.2 248.75 -151.7 250.55 -149.6 252.15 -148.55 255.05 L-147.8 255.3 -147.55 255.45 -147.8 255.3 -148.55 255.05 -148.25 256.1 Q-147.25 259.75 -148.4 263.1 L-148.9 264.4 Q-146.65 266.7 -145.65 270.55 L-145.6 270.75 Q-144.05 269.25 -143.4 266.85 -142.4 263.25 -143.7 259.9 -144.9 256.7 -147.55 255.45 M-188.85 238.5 Q-190.1 235.5 -193.0 234.55 -195.95 233.7 -198.95 235.45 -201.95 237.25 -203.2 240.75 L-203.4 241.15 Q-202.55 241.15 -201.8 241.5 -200.45 242.05 -199.95 243.2 -198.85 244.3 -198.4 246.05 -197.95 247.75 -198.25 249.5 -197.65 249.8 -197.05 250.45 L-196.2 251.6 Q-194.7 251.4 -193.2 250.5 -190.2 248.7 -188.9 245.2 L-188.75 244.65 Q-189.4 243.95 -189.7 242.9 -190.25 240.8 -188.95 238.6 L-188.85 238.5 M-206.0 241.55 Q-208.7 241.25 -211.3 242.8 -212.25 243.35 -213.0 244.05 -215.4 246.25 -216.5 249.95 -217.9 254.85 -216.1 259.55 L-215.65 260.6 -214.4 259.55 Q-213.15 258.15 -211.4 257.6 -208.95 256.8 -206.95 257.9 L-206.95 256.7 -209.1 256.1 Q-211.7 254.95 -212.45 252.05 -213.25 249.1 -211.7 246.15 -210.2 243.25 -207.3 241.95 L-206.0 241.55 M-216.75 262.0 Q-217.95 262.05 -219.1 262.75 -221.3 264.1 -222.05 267.3 -222.8 270.5 -221.55 273.7 -220.3 276.85 -217.85 278.15 L-217.0 278.5 -217.35 279.95 Q-217.7 282.6 -216.65 285.4 -215.65 288.15 -213.7 289.4 L-212.8 289.95 Q-213.45 287.0 -212.3 284.25 -212.35 284.15 -212.4 284.2 -215.45 282.55 -216.5 278.75 L-216.65 277.75 Q-217.25 274.45 -215.85 271.3 L-215.65 270.9 Q-217.3 269.8 -217.8 267.75 -218.5 265.15 -217.05 262.5 L-216.75 262.0 M-204.5 295.3 Q-205.8 296.45 -206.25 298.75 -206.95 301.6 -205.85 304.55 -204.75 307.4 -202.5 308.55 L-200.9 309.15 Q-201.45 306.35 -199.9 303.5 -198.45 300.85 -195.85 299.45 L-196.15 298.7 Q-197.25 295.75 -199.45 294.6 -201.25 293.6 -202.9 294.3 L-204.5 295.3 M-198.05 313.45 L-197.65 314.6 Q-196.25 318.35 -193.35 319.85 -190.55 321.4 -187.9 319.8 -185.4 318.3 -184.5 314.85 -186.8 313.7 -187.6 311.25 -189.0 312.8 -191.1 313.75 L-197.2 313.9 -198.05 313.45 M-182.6 315.4 Q-181.3 317.15 -179.15 317.8 -175.8 318.85 -172.55 316.85 -169.25 314.9 -167.9 311.15 -166.75 313.75 -164.5 314.7 -161.95 315.85 -159.6 314.4 -157.15 312.9 -156.25 309.8 -155.45 306.8 -156.4 304.0 -153.95 304.5 -151.45 303.0 -148.6 301.25 -147.4 297.9 -146.25 294.5 -147.4 291.45 -148.55 288.35 -151.45 287.4 L-152.65 287.15 -153.85 287.8 -153.15 289.6 Q-152.6 291.75 -153.25 293.8 -153.85 295.75 -155.35 296.4 L-155.85 296.55 Q-155.95 299.0 -156.85 301.4 L-157.25 302.2 Q-159.1 306.35 -162.75 307.85 -165.05 308.85 -167.25 308.5 -168.85 308.2 -170.5 307.2 L-172.3 305.8 Q-172.05 308.05 -173.35 310.4 -175.05 313.45 -178.2 314.8 -180.5 315.75 -182.6 315.4 M-152.55 287.1 Q-150.6 287.1 -148.65 285.9 -145.9 284.3 -144.7 281.3 -143.45 278.3 -144.45 275.65 L-145.05 274.5 Q-145.0 277.0 -145.7 279.35 -146.95 283.55 -150.0 284.8 L-151.1 285.15 Q-151.7 286.35 -152.55 287.1 M-178.55 241.6 L-178.7 241.95 -178.6 242.0 -178.55 241.6 M-217.0 278.5 L-216.65 277.75 -217.0 278.5 M-167.9 311.15 L-167.85 311.05 Q-167.4 309.75 -167.25 308.5 -167.4 309.75 -167.85 311.05 L-167.9 311.15 M-157.25 302.2 L-156.55 303.7 -156.4 304.0 -156.55 303.7 -157.25 302.2" fill="#696565" fill-rule="evenodd" stroke="none"/>
    <path d="M-181.2 235.05 Q-183.1 234.45 -185.3 235.45 -187.65 236.4 -188.85 238.5 L-188.95 238.6 Q-190.25 240.8 -189.7 242.9 -189.4 243.95 -188.75 244.65 L-188.25 245.1 -189.5 247.05 Q-191.2 250.3 -190.4 253.55 -189.1 253.8 -187.95 254.65 -186.3 255.75 -185.35 257.4 L-184.95 257.25 Q-182.05 256.25 -179.35 257.9 L-178.0 257.05 -178.65 254.9 Q-179.0 252.65 -178.6 250.65 L-180.2 251.35 -184.3 251.45 Q-186.05 250.9 -186.4 249.4 -186.65 247.85 -185.25 246.3 -183.9 244.65 -181.65 243.95 L-177.65 243.85 Q-176.2 244.3 -175.75 245.4 L-174.8 244.7 Q-174.75 242.5 -173.8 240.45 -172.3 237.4 -169.6 236.55 -166.85 235.65 -164.4 237.5 -162.0 239.4 -161.3 242.9 -160.6 246.3 -162.05 249.45 -163.1 251.55 -164.7 252.6 L-164.8 254.1 -165.0 255.3 -164.25 255.05 -163.65 254.85 Q-162.2 254.6 -160.7 255.6 L-159.5 256.65 Q-157.95 258.3 -157.05 260.8 -157.4 258.45 -156.65 256.5 L-156.6 256.45 Q-155.75 254.3 -154.1 253.8 -152.45 253.25 -150.9 254.7 -149.4 256.1 -148.9 258.65 -148.35 261.2 -149.25 263.35 -150.1 265.55 -151.75 266.1 -153.15 266.5 -154.45 265.6 L-154.95 265.15 -156.45 263.0 -156.35 263.3 Q-155.6 267.5 -156.7 271.05 L-157.4 272.65 -156.9 272.5 -155.9 272.35 Q-154.3 272.2 -152.9 273.6 -151.0 275.4 -150.35 278.6 -149.75 281.75 -150.8 284.45 L-151.1 285.15 -150.0 284.8 Q-146.95 283.55 -145.7 279.35 -145.0 277.0 -145.05 274.5 -145.1 272.65 -145.6 270.75 L-145.65 270.55 Q-146.65 266.7 -148.9 264.4 L-148.4 263.1 Q-147.25 259.75 -148.25 256.1 L-148.55 255.05 Q-149.6 252.15 -151.7 250.55 -154.2 248.75 -156.75 249.8 -158.6 250.55 -159.65 252.5 L-160.85 251.65 -159.95 249.45 Q-158.2 244.6 -159.55 239.45 -160.95 234.25 -164.65 231.7 -168.3 229.15 -172.1 230.8 -175.9 232.4 -177.65 237.25 L-178.1 238.65 -178.2 238.05 Q-178.75 235.9 -180.85 235.2 L-181.2 235.05 M-205.9 241.5 L-206.0 241.55 -207.3 241.95 Q-210.2 243.25 -211.7 246.15 -213.25 249.1 -212.45 252.05 -211.7 254.95 -209.1 256.1 L-206.95 256.7 Q-206.8 254.7 -206.3 252.9 -205.6 250.75 -204.5 249.55 -206.45 250.1 -208.1 249.5 -209.9 248.8 -210.25 247.2 -210.55 245.5 -209.25 243.85 -207.95 242.2 -205.9 241.5 M-215.65 260.6 L-216.75 262.0 -217.05 262.5 Q-218.5 265.15 -217.8 267.75 -217.3 269.8 -215.65 270.9 L-215.85 271.3 Q-217.25 274.45 -216.65 277.75 L-216.5 278.75 Q-215.45 282.55 -212.4 284.2 -212.35 284.15 -212.3 284.25 -213.45 287.0 -212.8 289.95 L-212.65 290.3 Q-211.9 293.45 -209.45 294.9 -207.1 296.3 -204.6 295.3 L-204.5 295.3 -202.9 294.3 Q-201.55 293.1 -200.75 291.2 -199.6 288.45 -200.3 285.5 L-200.95 285.85 Q-200.8 287.95 -201.4 289.85 -202.25 292.35 -204.05 292.95 -205.85 293.55 -207.5 291.75 -209.2 290.0 -209.8 287.0 -210.35 283.9 -209.5 281.35 L-208.55 279.45 Q-209.8 279.35 -210.95 278.3 -212.65 276.75 -213.2 273.9 -213.6 271.6 -213.15 269.7 L-213.55 269.4 Q-215.65 268.15 -216.2 265.65 -216.65 263.05 -215.25 260.7 L-214.4 259.55 -215.65 260.6 M-200.9 309.15 L-200.8 309.65 Q-200.15 312.15 -198.05 313.45 L-197.2 313.9 -191.1 313.75 Q-189.0 312.8 -187.6 311.25 -186.8 313.7 -184.5 314.85 L-184.15 315.0 -182.6 315.4 Q-180.5 315.75 -178.2 314.8 -175.05 313.45 -173.35 310.4 -172.05 308.05 -172.3 305.8 L-170.5 307.2 Q-168.85 308.2 -167.25 308.5 -165.05 308.85 -162.75 307.85 -159.1 306.35 -157.25 302.2 L-156.85 301.4 Q-155.95 299.0 -155.85 296.55 L-155.35 296.4 Q-153.85 295.75 -153.25 293.8 -152.6 291.75 -153.15 289.6 L-153.85 287.8 -154.0 287.9 Q-156.1 288.5 -158.0 286.7 L-158.6 286.05 -159.05 286.35 Q-160.05 285.15 -161.45 284.3 -161.65 284.05 -161.9 284.0 -161.95 285.1 -162.45 286.3 L-162.8 286.9 Q-159.8 289.1 -158.95 293.35 -158.15 297.6 -160.05 301.4 -161.9 305.2 -165.4 306.3 -168.85 307.4 -171.9 305.15 -173.65 303.95 -174.65 302.05 L-175.65 299.3 Q-176.5 297.8 -176.65 296.0 -177.0 292.55 -175.25 289.75 L-175.2 289.6 Q-175.9 288.7 -176.95 288.15 -179.65 286.5 -182.55 287.7 -183.9 288.3 -184.95 289.3 -184.5 289.45 -184.15 289.75 -183.15 290.35 -182.5 291.3 L-179.85 291.45 Q-178.4 292.05 -178.2 293.45 -177.9 294.85 -179.0 296.25 -179.9 297.45 -181.4 298.05 L-181.45 298.2 Q-179.4 297.85 -177.6 298.85 L-177.1 299.15 -175.8 300.35 Q-175.15 301.2 -174.9 302.4 L-174.75 302.85 Q-174.2 305.6 -175.85 308.2 -177.55 310.75 -180.35 311.65 -183.25 312.55 -185.6 311.25 -188.0 310.0 -188.55 307.25 -188.85 305.5 -188.35 303.85 -190.0 303.9 -191.5 302.9 -193.65 301.5 -194.3 298.75 L-194.95 299.05 -195.85 299.45 Q-198.45 300.85 -199.9 303.5 -201.45 306.35 -200.9 309.15 M-199.95 243.2 L-199.75 243.85 Q-199.45 245.5 -200.75 247.15 L-201.8 248.25 Q-200.25 248.1 -198.75 249.35 L-198.25 249.5 Q-197.95 247.75 -198.4 246.05 -198.85 244.3 -199.95 243.2 M-204.25 271.25 L-204.1 272.1 -203.25 272.0 -203.3 271.7 -203.3 271.45 -204.25 271.25 M-186.85 240.5 Q-187.05 239.4 -186.05 238.25 -185.15 237.05 -183.55 236.55 L-180.7 236.5 Q-179.4 236.95 -179.15 238.1 -178.95 239.25 -179.95 240.45 -180.9 241.55 -182.45 242.1 -184.1 242.6 -185.3 242.1 -186.6 241.6 -186.85 240.5 M-178.55 241.6 L-178.6 242.0 -178.7 241.95 -178.55 241.6 M-168.1 269.75 Q-166.85 272.35 -164.95 274.0 -162.7 276.0 -160.4 275.8 L-160.3 276.35 -160.1 275.9 -160.0 275.7 -159.75 275.1 -160.4 275.4 -160.5 275.4 Q-162.9 276.05 -165.15 273.7 -167.45 271.25 -168.3 267.1 -168.8 264.25 -168.45 261.8 -169.1 262.45 -169.95 262.9 L-169.7 264.45 Q-168.4 266.3 -168.1 268.95 L-168.1 269.75 M-168.85 283.45 Q-169.0 283.5 -169.15 283.65 -172.45 284.95 -174.3 288.5 -172.95 287.0 -171.15 286.55 -170.3 286.0 -169.35 285.75 L-168.75 285.55 -168.8 285.2 -168.85 283.45" fill="#95847e" fill-rule="evenodd" stroke="none"/>
    <path d="M-203.4 241.15 L-205.75 241.45 -205.9 241.5 Q-207.95 242.2 -209.25 243.85 -210.55 245.5 -210.25 247.2 -209.9 248.8 -208.1 249.5 -206.45 250.1 -204.5 249.55 -205.6 250.75 -206.3 252.9 -206.8 254.7 -206.95 256.7 L-206.95 257.9 Q-208.95 256.8 -211.4 257.6 -213.15 258.15 -214.4 259.55 L-215.25 260.7 Q-216.65 263.05 -216.2 265.65 -215.65 268.15 -213.55 269.4 L-213.15 269.7 Q-213.6 271.6 -213.2 273.9 -212.65 276.75 -210.95 278.3 -209.8 279.35 -208.55 279.45 L-209.5 281.35 Q-210.35 283.9 -209.8 287.0 -209.2 290.0 -207.5 291.75 -205.85 293.55 -204.05 292.95 -202.25 292.35 -201.4 289.85 -200.8 287.95 -200.95 285.85 L-200.3 285.5 Q-199.25 284.65 -198.55 283.05 -197.75 280.9 -198.0 278.6 L-199.0 277.2 -200.3 276.7 -201.2 276.0 Q-202.9 274.5 -203.25 272.0 L-204.1 272.1 -204.25 271.25 Q-205.25 270.85 -206.25 270.0 -208.2 268.1 -208.55 265.1 -208.9 262.05 -207.35 259.55 L-206.9 258.8 Q-205.55 257.0 -203.5 256.65 -203.45 256.55 -203.4 256.6 L-203.45 256.0 -203.5 255.75 Q-203.75 253.4 -202.75 251.5 -201.75 249.65 -200.05 249.35 -199.4 249.15 -198.75 249.35 -200.25 248.1 -201.8 248.25 L-200.75 247.15 Q-199.45 245.5 -199.75 243.85 L-199.95 243.2 Q-200.45 242.05 -201.8 241.5 -202.55 241.15 -203.4 241.15 M-152.65 287.15 L-152.55 287.1 Q-151.7 286.35 -151.1 285.15 L-150.8 284.45 Q-149.75 281.75 -150.35 278.6 -151.0 275.4 -152.9 273.6 -154.3 272.2 -155.9 272.35 L-156.9 272.5 -157.4 272.65 -156.7 271.05 Q-155.6 267.5 -156.35 263.3 L-156.45 263.0 -154.95 265.15 -154.45 265.6 Q-153.15 266.5 -151.75 266.1 -150.1 265.55 -149.25 263.35 -148.35 261.2 -148.9 258.65 -149.4 256.1 -150.9 254.7 -152.45 253.25 -154.1 253.8 -155.75 254.3 -156.6 256.45 L-156.65 256.5 Q-157.4 258.45 -157.05 260.8 -157.95 258.3 -159.5 256.65 L-160.7 255.6 Q-162.2 254.6 -163.65 254.85 L-164.25 255.05 -165.0 255.3 -164.8 254.1 -164.7 252.6 Q-163.1 251.55 -162.05 249.45 -160.6 246.3 -161.3 242.9 -162.0 239.4 -164.4 237.5 -166.85 235.65 -169.6 236.55 -172.3 237.4 -173.8 240.45 -174.75 242.5 -174.8 244.7 L-175.75 245.4 Q-176.2 244.3 -177.65 243.85 L-181.65 243.95 Q-183.9 244.65 -185.25 246.3 -186.65 247.85 -186.4 249.4 -186.05 250.9 -184.3 251.45 L-180.2 251.35 -178.6 250.65 Q-179.0 252.65 -178.65 254.9 L-178.0 257.05 -176.6 259.35 -176.95 257.6 Q-177.2 254.8 -175.9 252.55 -174.6 250.35 -172.5 250.0 -170.35 249.6 -168.6 251.2 -166.85 252.9 -166.6 255.65 -166.3 258.35 -167.6 260.65 L-168.45 261.8 Q-168.8 264.25 -168.3 267.1 -167.45 271.25 -165.15 273.7 -162.9 276.05 -160.5 275.4 L-160.4 275.4 -159.75 275.1 -160.0 275.7 -160.1 275.9 -160.3 276.35 Q-161.1 278.9 -160.55 281.75 -160.0 284.35 -158.6 286.05 L-158.0 286.7 Q-156.1 288.5 -154.0 287.9 L-153.85 287.8 -152.65 287.15 M-186.85 240.5 Q-186.6 241.6 -185.3 242.1 -184.1 242.6 -182.45 242.1 -180.9 241.55 -179.95 240.45 -178.95 239.25 -179.15 238.1 -179.4 236.95 -180.7 236.5 L-183.55 236.55 Q-185.15 237.05 -186.05 238.25 -187.05 239.4 -186.85 240.5 M-195.4 254.2 L-195.45 254.25 -195.4 254.35 Q-195.3 255.55 -195.55 256.65 L-194.9 256.05 Q-193.65 255.05 -192.1 254.8 -189.25 254.2 -187.0 256.3 -184.75 258.4 -184.35 261.85 -183.95 265.35 -185.7 268.15 -187.0 270.25 -188.95 271.2 L-188.75 272.4 Q-188.5 274.85 -189.5 276.85 -187.5 276.75 -185.9 278.2 -184.0 279.7 -183.65 282.3 L-180.15 282.15 Q-177.95 281.4 -176.45 279.55 -178.45 279.4 -180.1 277.8 -182.6 275.55 -183.05 271.8 -183.45 268.05 -181.5 264.95 -179.65 261.85 -176.55 261.3 L-175.95 261.2 Q-176.8 259.9 -177.95 258.9 L-179.35 257.9 Q-182.05 256.25 -184.95 257.25 L-185.35 257.4 Q-186.3 255.75 -187.95 254.65 -189.1 253.8 -190.4 253.55 L-194.25 253.7 -195.4 254.2 M-185.65 289.0 Q-186.9 290.35 -188.75 290.7 L-191.65 290.45 Q-192.7 291.3 -193.4 292.65 -194.95 295.4 -194.4 298.4 L-194.3 298.75 Q-193.65 301.5 -191.5 302.9 -190.0 303.9 -188.35 303.85 -188.85 305.5 -188.55 307.25 -188.0 310.0 -185.6 311.25 -183.25 312.55 -180.35 311.65 -177.55 310.75 -175.85 308.2 -174.2 305.6 -174.75 302.85 L-174.9 302.4 Q-175.15 301.2 -175.8 300.35 L-177.1 299.15 -177.6 298.85 Q-179.4 297.85 -181.45 298.2 L-181.4 298.05 Q-179.9 297.45 -179.0 296.25 -177.9 294.85 -178.2 293.45 -178.4 292.05 -179.85 291.45 L-182.5 291.3 Q-183.15 290.35 -184.15 289.75 -184.5 289.45 -184.95 289.3 L-185.65 289.0 M-205.95 276.35 Q-205.35 274.9 -204.3 274.75 -203.35 274.55 -202.5 275.75 -201.65 276.95 -201.45 278.85 L-201.4 280.05 Q-201.4 281.15 -201.8 282.1 L-201.85 282.15 Q-202.35 283.65 -203.35 283.8 -204.4 284.0 -205.25 282.85 -206.1 281.65 -206.3 279.75 -206.5 277.85 -205.95 276.35 M-161.9 284.0 Q-161.9 283.45 -162.05 283.0 -162.35 281.3 -163.6 280.45 -164.85 279.5 -166.25 279.95 -167.65 280.4 -168.4 281.95 L-168.85 283.45 -168.8 285.2 -168.75 285.55 -169.35 285.75 Q-170.3 286.0 -171.15 286.55 L-170.65 286.4 Q-167.75 285.85 -165.5 287.9 -163.25 289.95 -162.9 293.35 -162.55 296.75 -164.3 299.5 -166.05 302.3 -168.9 302.85 -171.75 303.4 -174.0 301.35 L-175.65 299.3 -174.65 302.05 Q-173.65 303.95 -171.9 305.15 -168.85 307.4 -165.4 306.3 -161.9 305.2 -160.05 301.4 -158.15 297.6 -158.95 293.35 -159.8 289.1 -162.8 286.9 L-162.45 286.3 Q-161.95 285.1 -161.9 284.0 M-156.1 260.25 Q-155.65 259.35 -155.0 259.2 -154.35 259.1 -153.75 259.8 -153.15 260.55 -153.05 261.7 -152.9 262.9 -153.3 263.8 -153.75 264.7 -154.4 264.9 -155.1 265.0 -155.7 264.3 -156.25 263.5 -156.4 262.35 -156.5 261.2 -156.1 260.25 M-165.9 260.75 Q-164.85 258.3 -163.05 258.0 -161.25 257.65 -159.75 259.6 -158.25 261.55 -157.9 264.55 -157.6 267.65 -158.6 270.1 -159.7 272.5 -161.5 272.85 -163.3 273.2 -164.75 271.25 -166.25 269.3 -166.55 266.25 -166.95 263.15 -165.9 260.75 M-168.2 282.45 Q-167.85 281.85 -167.25 281.75 -166.7 281.55 -166.25 282.05 -165.7 282.5 -165.65 283.2 -165.55 283.9 -165.95 284.5 L-166.9 285.25 -167.95 284.9 Q-168.45 284.4 -168.55 283.75 -168.55 283.0 -168.2 282.45" fill="#a8a491" fill-rule="evenodd" stroke="none"/>
    <path d="M-198.25 249.5 L-198.75 249.35 Q-199.4 249.15 -200.05 249.35 -201.75 249.65 -202.75 251.5 -203.75 253.4 -203.5 255.75 L-203.45 256.0 -203.4 256.6 Q-203.45 256.55 -203.5 256.65 -205.55 257.0 -206.9 258.8 L-207.35 259.55 Q-208.9 262.05 -208.55 265.1 -208.2 268.1 -206.25 270.0 -205.25 270.85 -204.25 271.25 L-203.3 271.45 -203.3 271.7 -203.25 272.0 Q-202.9 274.5 -201.2 276.0 L-200.3 276.7 -199.0 277.2 -198.0 278.6 -197.6 278.95 Q-196.25 280.3 -194.5 280.3 -195.65 282.45 -195.35 284.95 -195.1 287.85 -193.1 289.5 L-191.65 290.45 -188.75 290.7 Q-186.9 290.35 -185.65 289.0 L-184.8 287.95 Q-183.3 285.6 -183.6 282.75 L-183.65 282.3 Q-184.0 279.7 -185.9 278.2 -187.5 276.75 -189.5 276.85 -188.5 274.85 -188.75 272.4 L-188.95 271.2 Q-187.0 270.25 -185.7 268.15 -183.95 265.35 -184.35 261.85 -184.75 258.4 -187.0 256.3 -189.25 254.2 -192.1 254.8 -193.65 255.05 -194.9 256.05 L-195.55 256.65 Q-195.3 255.55 -195.4 254.35 L-195.45 254.25 -195.4 254.2 Q-195.55 252.75 -196.2 251.6 L-197.05 250.45 Q-197.65 249.8 -198.25 249.5 M-168.45 261.8 L-167.6 260.65 Q-166.3 258.35 -166.6 255.65 -166.85 252.9 -168.6 251.2 -170.35 249.6 -172.5 250.0 -174.6 250.35 -175.9 252.55 -177.2 254.8 -176.95 257.6 L-176.6 259.35 -175.6 261.2 -175.95 261.2 -176.55 261.3 Q-179.65 261.85 -181.5 264.95 -183.45 268.05 -183.05 271.8 -182.6 275.55 -180.1 277.8 -178.45 279.4 -176.45 279.55 L-174.6 279.5 Q-171.5 278.9 -169.65 275.8 -167.9 273.1 -168.1 269.75 L-168.1 268.95 Q-168.4 266.3 -169.7 264.45 -170.15 263.75 -170.75 263.15 L-169.95 262.9 Q-169.1 262.45 -168.45 261.8 M-205.95 276.35 Q-206.5 277.85 -206.3 279.75 -206.1 281.65 -205.25 282.85 -204.4 284.0 -203.35 283.8 -202.35 283.65 -201.85 282.15 L-201.8 282.1 Q-201.4 281.15 -201.4 280.05 L-201.45 278.85 Q-201.65 276.95 -202.5 275.75 -203.35 274.55 -204.3 274.75 -205.35 274.9 -205.95 276.35 M-174.3 288.5 L-175.2 289.6 -175.25 289.75 Q-177.0 292.55 -176.65 296.0 -176.5 297.8 -175.65 299.3 L-174.0 301.35 Q-171.75 303.4 -168.9 302.85 -166.05 302.3 -164.3 299.5 -162.55 296.75 -162.9 293.35 -163.25 289.95 -165.5 287.9 -167.75 285.85 -170.65 286.4 L-171.15 286.55 Q-172.95 287.0 -174.3 288.5 M-165.9 260.75 Q-166.95 263.15 -166.55 266.25 -166.25 269.3 -164.75 271.25 -163.3 273.2 -161.5 272.85 -159.7 272.5 -158.6 270.1 -157.6 267.65 -157.9 264.55 -158.25 261.55 -159.75 259.6 -161.25 257.65 -163.05 258.0 -164.85 258.3 -165.9 260.75 M-156.1 260.25 Q-156.5 261.2 -156.4 262.35 -156.25 263.5 -155.7 264.3 -155.1 265.0 -154.4 264.9 -153.75 264.7 -153.3 263.8 -152.9 262.9 -153.05 261.7 -153.15 260.55 -153.75 259.8 -154.35 259.1 -155.0 259.2 -155.65 259.35 -156.1 260.25 M-168.2 282.45 Q-168.55 283.0 -168.55 283.75 -168.45 284.4 -167.95 284.9 L-166.9 285.25 -165.95 284.5 Q-165.55 283.9 -165.65 283.2 -165.7 282.5 -166.25 282.05 -166.7 281.55 -167.25 281.75 -167.85 281.85 -168.2 282.45" fill="#ffeea1" fill-rule="evenodd" stroke="none"/>
    <path d="M-217.0 278.5 L-217.35 279.95 Q-217.7 282.6 -216.65 285.4 -215.65 288.15 -213.7 289.4 L-212.8 289.95 M-204.5 295.3 Q-205.8 296.45 -206.25 298.75 -206.95 301.6 -205.85 304.55 -204.75 307.4 -202.5 308.55 L-200.9 309.15 M-198.05 313.45 L-197.65 314.6 Q-196.25 318.35 -193.35 319.85 -190.55 321.4 -187.9 319.8 -185.4 318.3 -184.5 314.85 M-182.6 315.4 Q-181.3 317.15 -179.15 317.8 -175.8 318.85 -172.55 316.85 -169.25 314.9 -167.9 311.15 -166.75 313.75 -164.5 314.7 -161.95 315.85 -159.6 314.4 -157.15 312.9 -156.25 309.8 -155.45 306.8 -156.4 304.0 -153.95 304.5 -151.45 303.0 -148.6 301.25 -147.4 297.9 -146.25 294.5 -147.4 291.45 -148.55 288.35 -151.45 287.4 L-152.65 287.15 M-152.55 287.1 Q-150.6 287.1 -148.65 285.9 -145.9 284.3 -144.7 281.3 -143.45 278.3 -144.45 275.65 L-145.05 274.5 M-145.6 270.75 Q-144.05 269.25 -143.4 266.85 -142.4 263.25 -143.7 259.9 -144.9 256.7 -147.55 255.45 L-147.8 255.3 -148.55 255.05 M-216.65 277.75 L-217.0 278.5 M-202.9 294.3 Q-201.25 293.6 -199.45 294.6 -197.25 295.75 -196.15 298.7 L-195.85 299.45 M-156.4 304.0 L-156.55 303.7 -157.25 302.2 M-167.25 308.5 Q-167.4 309.75 -167.85 311.05 L-167.9 311.15" fill="none" stroke="#a80f06" stroke-linecap="round" stroke-linejoin="round" stroke-opacity="0.0" stroke-width="6.0"/>
  </g>
</svg>
