<?xml version="1.0" encoding="UTF-8" standalone="no"?>
<svg xmlns:xlink="http://www.w3.org/1999/xlink" height="90.3px" width="121.8px" xmlns="http://www.w3.org/2000/svg">
  <g transform="matrix(1.0, 0.0, 0.0, 1.0, 62.85, 45.35)">
    <path d="M25.75 7.6 Q24.8 10.9 23.25 14.0 18.25 23.95 7.4 30.45 L-14.3 29.35 Q-11.85 10.8 -7.6 1.1 -6.2 -2.05 -4.4 -4.75 L25.75 7.6" fill="#c4c4c4" fill-rule="evenodd" stroke="none"/>
    <path d="M25.75 7.6 Q24.8 10.9 23.25 14.0 18.25 23.95 7.4 30.45 L-14.3 29.35 Q-11.85 10.8 -7.6 1.1 -6.2 -2.05 -4.4 -4.75" fill="none" stroke="#666666" stroke-linecap="round" stroke-linejoin="round" stroke-width="8.0"/>
    <path d="M4.2 -13.8 L25.85 -13.85 Q29.3 1.95 23.25 14.0 18.25 23.95 7.4 30.45 L-14.3 29.35 Q-11.85 10.8 -7.6 1.1 -3.55 -8.05 4.2 -13.8" fill="#c4c4c4" fill-rule="evenodd" stroke="none"/>
    <path d="M23.45 -13.3 L32.05 -12.65 34.85 -10.8 38.0 -8.0 Q40.25 -6.2 47.3 -3.4 50.85 -2.0 53.95 -0.9 L48.75 10.45 42.75 7.85 43.15 10.05 Q45.05 20.45 45.5 30.45 L40.55 33.85 37.3 16.3 39.1 36.1 29.45 39.95 28.75 37.8 33.3 36.25 29.95 22.5 Q31.65 20.2 32.5 16.8 34.1 10.0 29.5 4.4 24.9 -1.25 18.7 0.8 16.8 1.4 14.95 2.75 L13.45 3.95 14.9 3.25 Q16.65 2.45 18.45 2.15 24.25 1.35 28.2 5.8 32.1 10.25 30.3 16.1 29.4 19.05 27.7 21.05 L31.65 35.3 22.5 38.5 14.2 16.2 1.45 14.8 Q-13.0 12.6 -21.2 8.35 -29.45 4.1 -44.5 -13.75 L-57.85 -30.85 -46.6 -40.35 -35.2 -30.15 Q-21.9 -19.2 -12.6 -15.65 -4.05 -12.35 12.0 -12.85 L23.45 -13.3" fill="#bf7926" fill-rule="evenodd" stroke="none"/>
    <path d="M23.45 -13.3 L32.05 -12.65 34.85 -10.8 38.0 -8.0 Q40.25 -6.2 47.3 -3.4 50.85 -2.0 53.95 -0.9 L48.75 10.45 42.75 7.85 43.15 10.05 Q45.05 20.45 45.5 30.45 L40.55 33.85 37.3 16.3 39.1 36.1 29.45 39.95 28.75 37.8 33.3 36.25 29.95 22.5 Q31.65 20.2 32.5 16.8 34.1 10.0 29.5 4.4 24.9 -1.25 18.7 0.8 16.8 1.4 14.95 2.75 L13.45 3.95 14.9 3.25 Q16.65 2.45 18.45 2.15 24.25 1.35 28.2 5.8 32.1 10.25 30.3 16.1 29.4 19.05 27.7 21.05 L31.65 35.3 22.5 38.5 14.2 16.2 1.45 14.8 Q-13.0 12.6 -21.2 8.35 -29.45 4.1 -44.5 -13.75 L-57.85 -30.85 -46.6 -40.35 -35.2 -30.15 Q-21.9 -19.2 -12.6 -15.65 -4.05 -12.35 12.0 -12.85 L23.45 -13.3 Z" fill="none" stroke="#3c190a" stroke-linecap="round" stroke-linejoin="round" stroke-width="10.0"/>
    <path d="M23.45 -13.3 L32.05 -12.65 34.85 -10.8 38.0 -8.0 Q40.25 -6.2 47.3 -3.4 50.85 -2.0 53.95 -0.9 L48.75 10.45 42.75 7.85 43.15 10.05 Q45.05 20.45 45.5 30.45 L40.55 33.85 37.3 16.3 39.1 36.1 29.45 39.95 28.75 37.8 33.3 36.25 29.95 22.5 Q31.65 20.2 32.5 16.8 34.1 10.0 29.5 4.4 24.9 -1.25 18.7 0.8 16.8 1.4 14.95 2.75 L13.45 3.95 14.9 3.25 Q16.65 2.45 18.45 2.15 24.25 1.35 28.2 5.8 32.1 10.25 30.3 16.1 29.4 19.05 27.7 21.05 L31.65 35.3 22.5 38.5 14.2 16.2 1.45 14.8 Q-13.0 12.6 -21.2 8.35 -29.45 4.1 -44.5 -13.75 L-57.85 -30.85 -46.6 -40.35 -35.2 -30.15 Q-21.9 -19.2 -12.6 -15.65 -4.05 -12.35 12.0 -12.85 L23.45 -13.3" fill="#bf7926" fill-rule="evenodd" stroke="none"/>
    <path d="M23.45 -13.3 L26.1 -13.3 27.5 -11.85 Q30.35 -8.75 30.5 -6.75 26.05 -5.0 19.25 -3.6 12.0 -2.2 7.35 -2.4 12.0 2.35 14.4 7.35 9.4 9.2 3.15 7.8 9.5 11.6 12.65 16.1 L1.45 14.8 Q-13.0 12.6 -21.2 8.35 -29.45 4.1 -44.5 -13.75 L-57.85 -30.85 -46.6 -40.35 -35.2 -30.15 Q-21.9 -19.2 -12.6 -15.65 -4.05 -12.35 12.0 -12.85 L23.45 -13.3" fill="#70381f" fill-rule="evenodd" stroke="none"/>
    <path d="M-57.85 -30.85 L-46.6 -40.35 -35.2 -30.15 -28.25 -24.7 -37.6 -22.9 -50.2 -21.05 -57.85 -30.85" fill="#620000" fill-opacity="0.2" fill-rule="evenodd" stroke="none"/>
    <path d="M4.2 -13.8 L25.85 -13.85 Q15.75 -2.35 11.65 7.4 7.4 17.35 7.4 30.45 L-14.3 29.35 Q-11.85 10.8 -7.6 1.1 -3.55 -8.05 4.2 -13.8" fill="#ffffff" fill-rule="evenodd" stroke="none"/>
    <path d="M-0.6 23.0 Q-2.1 25.05 -4.35 25.45 -6.5 25.8 -8.25 24.25 -9.9 22.7 -10.1 20.2 -10.25 17.7 -8.75 15.65 -7.25 13.65 -5.0 13.25 -2.8 12.9 -1.1 14.4 0.65 15.95 0.75 18.45 0.9 20.95 -0.6 23.0" fill="#666666" fill-rule="evenodd" stroke="none"/>
    <path d="M-3.25 20.65 Q-4.15 22.0 -5.4 22.25 -6.65 22.5 -7.6 21.6 -8.55 20.65 -8.6 19.1 -8.65 17.6 -7.75 16.25 -6.9 15.0 -5.6 14.75 -4.35 14.45 -3.4 15.4 -2.45 16.35 -2.4 17.85 -2.4 19.4 -3.25 20.65" fill="#c4c4c4" fill-rule="evenodd" stroke="none"/>
  </g>
</svg>
