<?xml version="1.0" encoding="UTF-8" standalone="no"?>
<svg xmlns:xlink="http://www.w3.org/1999/xlink" height="214.8px" width="248.25px" xmlns="http://www.w3.org/2000/svg">
  <g transform="matrix(1.0, 0.0, 0.0, 1.0, 178.4, 94.95)">
    <path d="M-141.4 -38.6 Q-135.8 -57.6 -111.2 -71.9 -88.0 -85.4 -58.2 -89.2 -27.3 -93.15 -4.05 -84.55 21.9 -74.95 29.55 -52.1 41.15 -17.45 33.6 27.1 L32.0 35.65 Q36.05 34.5 40.75 34.75 50.9 35.3 58.15 42.2 65.5 49.1 65.35 58.35 65.2 67.55 57.6 73.4 50.05 79.05 39.85 78.15 29.75 77.0 23.0 70.05 L21.85 68.8 Q18.7 76.15 15.55 80.9 11.3 87.3 -6.5 91.65 -22.6 95.55 -44.75 96.7 -66.35 97.85 -84.2 95.9 -103.2 93.8 -109.9 88.9 -116.1 84.35 -122.75 73.4 -125.0 77.85 -128.8 81.65 -137.65 90.55 -149.3 90.6 -160.75 90.6 -167.9 82.1 -174.85 73.8 -173.75 62.2 -172.75 50.85 -164.55 42.6 -156.4 34.35 -145.55 33.75 L-139.3 34.1 Q-150.8 -6.55 -141.4 -38.6" fill="#23608e" fill-rule="evenodd" stroke="none"/>
    <path d="M-141.4 -38.6 Q-150.8 -6.55 -139.3 34.1 L-145.55 33.75 Q-156.4 34.35 -164.55 42.6 -172.75 50.85 -173.75 62.2 -174.85 73.8 -167.9 82.1 -160.75 90.6 -149.3 90.6 -137.65 90.55 -128.8 81.65 -125.0 77.85 -122.75 73.4 -116.1 84.35 -109.9 88.9 -103.2 93.8 -84.2 95.9 -66.35 97.85 -44.75 96.7 -22.6 95.55 -6.5 91.65 11.3 87.3 15.55 80.9 18.7 76.15 21.85 68.8 L23.0 70.05 Q29.75 77.0 39.85 78.15 50.05 79.05 57.6 73.4 65.2 67.55 65.35 58.35 65.5 49.1 58.15 42.2 50.9 35.3 40.75 34.75 36.05 34.5 32.0 35.65 L33.6 27.1 Q41.15 -17.45 29.55 -52.1 21.9 -74.95 -4.05 -84.55 -27.3 -93.15 -58.2 -89.2 -88.0 -85.4 -111.2 -71.9 -135.8 -57.6 -141.4 -38.6 Z" fill="none" stroke="#23608e" stroke-linecap="round" stroke-linejoin="round" stroke-width="9.0"/>
    <path d="M-145.55 33.75 Q-134.55 33.05 -126.9 40.7 -119.05 48.55 -119.5 60.5 -119.95 72.7 -128.8 81.65 -137.65 90.55 -149.3 90.6 -160.75 90.6 -167.9 82.1 -174.85 73.8 -173.75 62.2 -172.75 50.85 -164.55 42.6 -156.4 34.35 -145.55 33.75" fill="#339fff" fill-rule="evenodd" stroke="none"/>
    <path d="M-138.15 43.15 Q-130.6 42.65 -125.3 47.95 -119.95 53.3 -120.25 61.55 -120.55 69.95 -126.65 76.1 -132.7 82.2 -140.7 82.25 -148.6 82.25 -153.5 76.4 -158.3 70.7 -157.55 62.7 -156.85 54.9 -151.2 49.25 -145.6 43.55 -138.15 43.15" fill="#2579c4" fill-rule="evenodd" stroke="none"/>
    <path d="M40.75 34.75 Q50.9 35.3 58.15 42.2 65.5 49.1 65.35 58.35 65.2 67.55 57.6 73.4 50.05 79.05 39.85 78.15 29.75 77.0 23.0 70.05 16.3 63.2 16.5 54.45 16.5 53.25 16.75 52.15 17.65 44.9 23.7 40.05 30.75 34.2 40.75 34.75" fill="#339fff" fill-rule="evenodd" stroke="none"/>
    <path d="M48.7 46.25 Q54.1 51.3 53.95 58.05 53.85 64.75 48.3 69.05 42.8 73.15 35.4 72.5 28.0 71.6 23.1 66.55 18.2 61.55 18.35 55.2 L18.55 53.55 Q19.2 48.2 23.6 44.65 28.75 40.45 36.05 40.85 43.45 41.2 48.7 46.25" fill="#2579c4" fill-rule="evenodd" stroke="none"/>
    <path d="M37.3 34.75 Q34.3 49.55 29.65 62.95 L25.55 73.5 25.9 72.65 23.0 70.05 Q16.3 63.2 16.5 54.45 16.5 53.25 16.75 52.15 17.65 44.9 23.7 40.05 29.5 35.25 37.3 34.75 M-142.65 40.6 L-144.6 33.7 Q-134.25 33.35 -126.9 40.7 -119.05 48.55 -119.5 60.5 -119.85 70.55 -125.9 78.35 L-128.55 73.9 Q-136.95 59.15 -142.65 40.6" fill="#620000" fill-opacity="0.2" fill-rule="evenodd" stroke="none"/>
    <path d="M29.55 -52.1 Q41.15 -17.45 33.6 27.1 30.65 44.45 25.25 59.8 20.45 73.55 15.55 80.9 11.3 87.3 -6.5 91.65 -22.6 95.55 -44.75 96.7 -66.35 97.85 -84.2 95.9 -103.2 93.8 -109.9 88.9 -117.0 83.7 -124.65 70.2 -132.6 56.2 -138.0 38.6 -151.3 -4.75 -141.4 -38.6 -135.8 -57.6 -111.2 -71.9 -88.0 -85.4 -58.2 -89.2 -27.3 -93.15 -4.05 -84.55 21.9 -74.95 29.55 -52.1" fill="#339fff" fill-rule="evenodd" stroke="none"/>
    <path d="M16.0 -54.6 L16.65 -53.85 M-53.95 -75.9 Q-39.05 -80.7 -23.0 -77.9 -8.1 -75.35 3.0 -67.25" fill="none" stroke="#ffffff" stroke-linecap="round" stroke-linejoin="round" stroke-width="15.0"/>
    <path d="M22.8 51.8 Q19.05 59.8 13.1 66.8 12.25 59.1 8.85 52.5 L13.95 52.8 22.8 51.8 M-71.05 86.65 Q-82.65 81.5 -92.35 71.85 -106.15 58.2 -110.8 40.75 -98.8 52.8 -81.85 52.8 -74.45 52.8 -68.0 50.55 -73.55 60.05 -73.55 71.9 -73.55 79.8 -71.05 86.65 M-92.4 -27.85 L-92.35 -27.9 Q-71.45 -48.5 -41.95 -48.5 -13.0 -48.5 7.6 -28.6 -4.45 -26.7 -13.55 -17.15 -24.95 -5.1 -24.95 11.85 -24.95 21.4 -21.35 29.3 L-30.1 28.5 Q-38.45 28.5 -45.65 31.25 -40.85 22.5 -40.85 11.85 -40.85 -5.1 -52.9 -17.15 -64.9 -29.1 -81.85 -29.1 -87.35 -29.1 -92.4 -27.85" fill="#585858" fill-rule="evenodd" stroke="none"/>
    <path d="M7.6 -28.6 L13.95 -29.1 Q30.05 -29.1 41.4 -17.15 52.8 -5.1 52.8 11.85 52.8 28.75 41.4 40.75 33.35 49.35 22.8 51.8 L13.95 52.8 8.85 52.5 Q12.25 59.1 13.1 66.8 L13.3 71.9 Q13.3 89.95 0.6 102.65 -12.15 115.35 -30.1 115.35 -48.05 115.35 -60.8 102.65 -68.0 95.5 -71.05 86.65 -73.55 79.8 -73.55 71.9 -73.55 60.05 -68.0 50.55 -74.45 52.8 -81.85 52.8 -98.8 52.8 -110.8 40.75 -122.8 28.75 -122.8 11.85 -122.8 -5.1 -110.8 -17.15 -102.75 -25.25 -92.4 -27.85 -87.35 -29.1 -81.85 -29.1 -64.9 -29.1 -52.9 -17.15 -40.85 -5.1 -40.85 11.85 -40.85 22.5 -45.65 31.25 -38.45 28.5 -30.1 28.5 L-21.35 29.3 Q-24.95 21.4 -24.95 11.85 -24.95 -5.1 -13.55 -17.15 -4.45 -26.7 7.6 -28.6" fill="#727272" fill-rule="evenodd" stroke="none"/>
    <path d="M7.6 -28.6 L13.95 -29.1 Q30.05 -29.1 41.4 -17.15 52.8 -5.1 52.8 11.85 52.8 28.75 41.4 40.75 33.35 49.35 22.8 51.8 19.05 59.8 13.1 66.8 L13.3 71.9 Q13.3 89.95 0.6 102.65 -12.15 115.35 -30.1 115.35 -48.05 115.35 -60.8 102.65 -68.0 95.5 -71.05 86.65 -82.65 81.5 -92.35 71.85 -106.15 58.2 -110.8 40.75 -122.8 28.75 -122.8 11.85 -122.8 -5.1 -110.8 -17.15 -102.75 -25.25 -92.4 -27.85 L-92.35 -27.9 Q-71.45 -48.5 -41.95 -48.5 -13.0 -48.5 7.6 -28.6 -4.45 -26.7 -13.55 -17.15 -24.95 -5.1 -24.95 11.85 -24.95 21.4 -21.35 29.3 L-30.1 28.5 Q-38.45 28.5 -45.65 31.25 -40.85 22.5 -40.85 11.85 -40.85 -5.1 -52.9 -17.15 -64.9 -29.1 -81.85 -29.1 -87.35 -29.1 -92.4 -27.85 M22.8 51.8 L13.95 52.8 8.85 52.5 Q12.25 59.1 13.1 66.8 M-71.05 86.65 Q-73.55 79.8 -73.55 71.9 -73.55 60.05 -68.0 50.55 -74.45 52.8 -81.85 52.8 -98.8 52.8 -110.8 40.75" fill="none" stroke="#2e2d2d" stroke-linecap="round" stroke-linejoin="round" stroke-width="9.0"/>
    <path d="M-42.0 -48.5 Q-12.5 -48.5 8.35 -27.85 29.25 -7.15 29.25 22.05 29.25 51.25 8.35 71.9 -12.5 92.6 -42.0 92.6 -71.5 92.6 -92.35 71.9 -113.2 51.25 -113.2 22.05 -113.2 -7.15 -92.35 -27.85 -71.5 -48.5 -42.0 -48.5" fill="#585858" fill-rule="evenodd" stroke="none"/>
    <path d="M13.95 -29.15 Q30.05 -29.15 41.4 -17.15 52.85 -5.1 52.85 11.8 52.85 28.75 41.4 40.75 30.05 52.8 13.95 52.8 -2.1 52.8 -13.55 40.75 -24.9 28.75 -24.9 11.8 -24.9 -5.1 -13.55 -17.15 -2.1 -29.15 13.95 -29.15" fill="#727272" fill-rule="evenodd" stroke="none"/>
    <path d="M19.1 -16.45 Q30.2 -16.45 38.05 -8.2 45.95 0.1 45.95 11.8 45.95 23.5 38.05 31.8 30.2 40.1 19.1 40.1 8.0 40.1 0.1 31.8 -7.75 23.5 -7.75 11.8 -7.75 0.1 0.1 -8.2 8.0 -16.45 19.1 -16.45" fill="#2e2d2d" fill-rule="evenodd" stroke="none"/>
    <path d="M12.75 -15.7 L11.4 -16.0 Q19.3 -14.5 25.3 -8.2 33.15 0.1 33.15 11.8 33.15 23.55 25.3 31.75 19.8 37.6 12.75 39.35 5.7 37.6 0.2 31.75 -7.65 23.55 -7.65 11.8 -7.65 0.1 0.2 -8.2 5.7 -14.0 12.75 -15.7" fill="#9bd919" fill-rule="evenodd" stroke="none"/>
    <path d="M14.6 53.3 L14.4 52.8 13.95 52.8 Q-2.15 52.8 -13.55 40.75 -19.85 34.15 -22.65 26.0 -6.8 27.0 4.8 38.6 11.45 45.2 14.6 53.3" fill="#585858" fill-rule="evenodd" stroke="none"/>
    <path d="M-73.55 71.9 Q-73.55 53.95 -60.8 41.2 -48.1 28.5 -30.1 28.5 -12.15 28.5 0.6 41.2 13.3 53.95 13.3 71.9 13.3 89.9 0.6 102.6 -12.15 115.35 -30.1 115.35 -48.1 115.35 -60.8 102.6 -73.55 89.9 -73.55 71.9" fill="#727272" fill-rule="evenodd" stroke="none"/>
    <path d="M-57.15 75.7 Q-57.15 62.0 -47.45 52.25 -37.7 42.55 -24.0 42.55 -10.25 42.55 -0.55 52.25 9.2 62.0 9.2 75.7 9.2 89.45 -0.55 99.15 -10.25 108.9 -24.0 108.9 -37.7 108.9 -47.45 99.15 -57.15 89.45 -57.15 75.7" fill="#585858" fill-rule="evenodd" stroke="none"/>
    <path d="M-19.25 61.5 Q-21.15 61.5 -22.5 60.15 -23.85 58.85 -23.85 56.95 -23.85 55.05 -22.5 53.7 -21.15 52.4 -19.25 52.4 -17.4 52.4 -16.05 53.7 -14.7 55.05 -14.7 56.95 -14.7 58.85 -16.05 60.15 -17.4 61.5 -19.25 61.5" fill="#2e2d2d" fill-rule="evenodd" stroke="none"/>
    <path d="M-19.25 81.2 Q-21.15 81.2 -22.5 79.85 -23.85 78.55 -23.85 76.65 -23.85 74.75 -22.5 73.4 -21.15 72.1 -19.25 72.1 -17.4 72.1 -16.05 73.4 -14.7 74.75 -14.7 76.65 -14.7 78.55 -16.05 79.85 -17.4 81.2 -19.25 81.2" fill="#2e2d2d" fill-rule="evenodd" stroke="none"/>
    <path d="M-19.25 100.15 Q-21.15 100.15 -22.5 98.8 -23.85 97.5 -23.85 95.6 -23.85 93.7 -22.5 92.35 -21.15 91.05 -19.25 91.05 -17.4 91.05 -16.05 92.35 -14.7 93.7 -14.7 95.6 -14.7 97.5 -16.05 98.8 -17.4 100.15 -19.25 100.15" fill="#2e2d2d" fill-rule="evenodd" stroke="none"/>
    <path d="M-5.6 70.95 Q-7.5 70.95 -8.85 69.6 -10.2 68.3 -10.2 66.4 -10.2 64.5 -8.85 63.15 -7.5 61.85 -5.6 61.85 -3.75 61.85 -2.4 63.15 -1.05 64.5 -1.05 66.4 -1.05 68.3 -2.4 69.6 -3.75 70.95 -5.6 70.95" fill="#2e2d2d" fill-rule="evenodd" stroke="none"/>
    <path d="M-5.6 91.05 Q-7.5 91.05 -8.85 89.7 -10.2 88.4 -10.2 86.5 -10.2 84.6 -8.85 83.25 -7.5 81.95 -5.6 81.95 -3.75 81.95 -2.4 83.25 -1.05 84.6 -1.05 86.5 -1.05 88.4 -2.4 89.7 -3.75 91.05 -5.6 91.05" fill="#2e2d2d" fill-rule="evenodd" stroke="none"/>
    <path d="M-36.35 70.95 Q-38.25 70.95 -39.6 69.6 -40.95 68.3 -40.95 66.4 -40.95 64.5 -39.6 63.15 -38.25 61.85 -36.35 61.85 -34.5 61.85 -33.15 63.15 -31.8 64.5 -31.8 66.4 -31.8 68.3 -33.15 69.6 -34.5 70.95 -36.35 70.95" fill="#2e2d2d" fill-rule="evenodd" stroke="none"/>
    <path d="M-36.35 91.05 Q-38.25 91.05 -39.6 89.7 -40.95 88.4 -40.95 86.5 -40.95 84.6 -39.6 83.25 -38.25 81.95 -36.35 81.95 -34.5 81.95 -33.15 83.25 -31.8 84.6 -31.8 86.5 -31.8 88.4 -33.15 89.7 -34.5 91.05 -36.35 91.05" fill="#2e2d2d" fill-rule="evenodd" stroke="none"/>
    <path d="M-81.85 -29.15 Q-64.9 -29.15 -52.9 -17.15 -40.9 -5.1 -40.9 11.8 -40.9 28.75 -52.9 40.75 -64.9 52.8 -81.85 52.8 -98.8 52.8 -110.85 40.75 -122.8 28.75 -122.8 11.8 -122.8 -5.1 -110.85 -17.15 -98.8 -29.15 -81.85 -29.15" fill="#727272" fill-rule="evenodd" stroke="none"/>
    <path d="M-76.4 -16.45 Q-64.7 -16.45 -56.4 -8.2 -48.1 0.1 -48.1 11.8 -48.1 23.5 -56.4 31.8 -64.7 40.1 -76.4 40.1 -88.1 40.1 -96.4 31.8 -104.65 23.5 -104.65 11.8 -104.65 0.1 -96.4 -8.2 -88.1 -16.45 -76.4 -16.45" fill="#2e2d2d" fill-rule="evenodd" stroke="none"/>
    <path d="M-83.1 -15.7 L-84.55 -16.0 Q-76.25 -14.5 -69.9 -8.2 -61.65 0.1 -61.65 11.8 -61.65 23.55 -69.9 31.75 -75.75 37.6 -83.1 39.35 -90.55 37.6 -96.35 31.75 -104.65 23.55 -104.65 11.8 -104.65 0.1 -96.35 -8.2 -90.55 -14.0 -83.1 -15.7" fill="#9bd919" fill-rule="evenodd" stroke="none"/>
  </g>
</svg>
