<?xml version="1.0" encoding="UTF-8" standalone="no"?>
<svg xmlns:xlink="http://www.w3.org/1999/xlink" height="81.65px" width="64.15px" xmlns="http://www.w3.org/2000/svg">
  <g transform="matrix(1.0, 0.0, 0.0, 1.0, 0.0, 25.35)">
    <path d="M36.6 18.45 L36.65 18.4 36.85 18.35 36.9 18.3 37.65 18.9 38.3 19.45 39.1 19.95 Q39.55 20.2 39.5 20.65 L37.65 20.8 36.75 20.25 36.25 19.65 36.25 19.6 36.25 19.5 36.3 19.45 36.3 19.35 36.45 19.25 36.6 19.15 36.5 19.1 36.45 19.0 36.45 18.9 36.45 18.8 36.45 18.75 36.45 18.65 36.5 18.55 36.6 18.45 M9.1 9.1 L8.8 9.05 8.85 9.0 9.15 9.1 9.1 9.1" fill="#000000" fill-opacity="0.13333334" fill-rule="evenodd" stroke="none"/>
    <path d="M62.15 12.0 L64.05 12.25 64.05 12.45 64.05 13.15 64.05 13.45 63.25 13.55 63.25 13.6 63.25 13.7 62.9 14.1 61.9 14.3 61.6 14.3 60.2 14.4 60.3 14.65 60.7 15.5 61.2 16.05 60.5 16.05 59.5 16.05 59.45 16.0 58.25 14.7 58.05 14.5 57.8 14.5 50.3 14.9 50.3 15.0 50.65 15.75 50.3 15.75 49.4 16.05 48.8 16.4 48.7 16.25 47.85 15.15 47.7 15.0 38.6 14.95 Q37.6 14.95 37.3 14.1 L37.3 14.05 37.15 14.05 36.95 13.95 36.85 13.85 36.75 13.75 36.75 13.65 36.75 13.55 36.85 13.4 36.9 13.35 37.0 13.3 37.15 13.25 37.6 13.2 37.75 13.15 37.8 13.05 37.9 12.95 38.05 12.85 38.1 12.8 39.7 12.65 39.95 12.6 40.2 12.55 40.15 12.5 38.3 12.2 38.05 12.1 37.8 11.9 37.75 11.8 37.75 11.65 37.75 11.55 37.75 11.45 37.8 11.35 37.9 11.2 38.05 11.15 38.1 11.1 38.3 11.1 38.3 11.05 42.2 10.95 48.15 11.1 50.55 11.05 60.45 11.15 60.85 11.25 60.9 11.35 60.95 11.5 61.0 11.6 61.0 11.7 60.95 11.8 61.3 11.9 62.15 12.0 M25.0 10.55 Q25.8 10.55 26.0 11.2 L25.95 11.3 25.7 11.55 23.85 11.8 24.5 12.0 24.8 12.15 24.95 12.6 24.95 12.85 25.05 12.95 25.3 13.1 25.45 13.2 25.6 13.3 25.6 13.35 26.7 13.6 26.8 13.75 26.8 13.85 26.8 13.95 36.2 13.95 36.2 36.0 36.4 35.95 37.05 36.3 37.65 36.65 38.35 37.1 38.55 37.3 38.65 37.35 Q39.2 37.5 39.1 38.0 L39.1 38.05 39.15 38.05 39.25 38.15 39.35 38.25 39.4 38.3 39.45 38.4 39.45 38.45 39.4 38.55 39.35 38.65 39.35 38.75 39.25 38.8 39.2 38.9 39.05 39.0 37.75 38.75 36.9 38.2 36.45 37.9 36.25 37.75 36.2 37.7 36.2 49.7 36.3 49.7 36.75 50.55 37.0 51.6 36.95 52.3 37.0 52.35 38.25 53.05 39.4 53.9 40.2 54.8 40.15 54.9 40.05 55.05 39.75 55.2 39.65 55.2 39.35 55.05 39.25 55.0 39.15 55.0 39.05 55.0 38.95 55.05 38.85 55.15 38.7 55.15 38.9 55.45 38.95 55.5 38.8 55.55 37.85 56.3 36.35 55.65 35.65 55.4 21.35 55.4 21.35 43.15 21.5 43.05 Q23.15 42.25 21.35 41.8 L21.35 39.75 Q20.75 39.5 20.35 39.1 L20.35 38.75 20.3 37.75 20.3 37.55 20.35 37.55 20.5 37.55 20.65 37.55 20.95 37.7 20.95 37.75 21.0 37.85 20.95 37.9 20.95 38.0 20.9 38.1 20.8 38.2 20.95 38.45 21.25 38.7 21.35 38.75 21.35 29.2 21.6 29.05 Q23.3 28.05 21.35 27.7 L21.35 21.3 21.3 21.25 Q20.85 20.95 20.4 20.8 19.95 20.55 19.9 20.1 19.9 19.8 20.25 19.75 20.65 19.75 21.05 20.1 L21.35 20.3 21.35 17.4 Q20.85 17.25 20.45 16.75 L19.65 15.7 18.85 14.65 18.6 14.2 10.45 14.1 11.0 14.7 11.85 15.45 12.15 16.0 10.8 15.95 10.2 16.15 10.05 16.3 9.4 15.8 8.8 15.2 8.4 14.75 7.85 14.0 7.6 14.0 5.35 14.25 4.0 14.5 1.75 14.55 1.6 14.45 1.45 14.15 1.45 14.0 1.5 13.9 1.55 13.8 1.65 13.7 1.75 13.6 1.85 13.6 2.35 13.6 2.3 13.5 2.25 13.45 1.7 13.4 1.45 13.3 1.3 13.2 1.2 13.0 1.2 12.9 1.25 12.65 1.55 12.35 2.9 11.85 2.95 11.75 3.0 11.65 15.75 11.1 19.35 10.7 20.5 10.5 25.0 10.55 M21.2 15.2 L21.35 15.45 21.35 14.45 20.6 14.4 21.2 15.2 M36.25 37.35 L36.2 37.3 36.2 37.4 36.25 37.35" fill="#000000" fill-opacity="0.2509804" fill-rule="evenodd" stroke="none"/>
    <path d="M0.15 12.55 L0.0 12.3 0.0 1.3 64.05 1.3 64.05 12.55 0.15 12.55 M24.05 53.5 L24.05 50.95 38.75 50.95 38.75 53.5 24.05 53.5" fill="#7e5629" fill-rule="evenodd" stroke="none"/>
    <path d="M64.05 12.55 L64.1 12.55 64.1 12.7 64.15 13.55 64.05 13.55 0.1 13.55 0.15 13.0 0.15 12.55 64.05 12.55" fill="#593d1e" fill-rule="evenodd" stroke="none"/>
    <path d="M38.75 53.5 L24.05 53.5" fill="none" stroke="#593d1e" stroke-linecap="round" stroke-linejoin="round" stroke-width="1.0"/>
    <path d="M24.3 51.8 L24.3 8.15 38.45 8.15 38.45 51.8 24.3 51.8" fill="#9a6832" fill-opacity="0.9882353" fill-rule="evenodd" stroke="none"/>
    <path d="M24.3 51.8 L24.3 8.15 38.45 8.15 38.45 51.8" fill="none" stroke="#593d1e" stroke-linecap="round" stroke-linejoin="round" stroke-width="1.0"/>
    <path d="M64.05 -0.05 L64.05 11.7 0.0 11.7 0.0 -0.05 64.05 -0.05" fill="#9a6832" fill-opacity="0.9882353" fill-rule="evenodd" stroke="none"/>
    <path d="M24.65 48.5 L24.65 48.0 37.9 47.85 37.9 48.35 24.65 48.5 M24.65 44.75 L24.65 44.25 37.9 44.25 37.9 44.75 24.65 44.75 M24.65 40.7 L24.65 40.2 37.9 40.3 37.9 40.8 24.65 40.7 M37.9 33.4 L37.9 33.9 24.65 33.55 24.65 33.05 37.9 33.4 M37.9 36.55 L37.9 37.05 24.65 37.05 24.65 36.55 37.9 36.55 M37.9 25.5 L37.9 26.0 24.65 26.0 24.65 25.5 37.9 25.5 M37.9 29.55 L37.9 30.05 24.65 29.85 24.65 29.35 37.9 29.55 M24.65 18.8 L24.65 18.3 37.9 18.3 37.9 18.8 24.65 18.8 M24.65 22.6 L24.65 22.1 37.9 22.0 37.9 22.5 24.65 22.6 M24.65 15.45 L24.65 14.95 37.9 14.95 37.9 15.45 24.65 15.45 M38.2 11.55 L38.4 11.65 38.45 11.8 38.4 12.0 38.2 12.05 24.35 12.15 24.2 12.1 24.1 11.9 24.2 11.75 Q24.25 11.65 24.35 11.65 L38.2 11.55 M64.0 9.5 L63.8 9.55 0.1 9.65 0.1 9.15 63.8 9.05 64.0 9.15 64.05 9.3 64.0 9.5 M63.9 6.35 L64.1 6.45 64.15 6.6 64.1 6.8 63.9 6.85 0.1 7.5 0.1 7.0 63.9 6.35 M64.0 1.75 L63.95 1.95 63.75 2.0 0.1 2.3 0.1 1.8 63.75 1.5 63.95 1.6 64.0 1.75 M63.95 4.0 L64.0 4.15 63.95 4.35 63.75 4.4 0.1 5.05 0.1 4.55 63.75 3.9 63.95 4.0" fill="#775228" fill-rule="evenodd" stroke="none"/>
    <path d="M40.55 -23.9 L40.65 -24.1 40.85 -24.15 41.0 -24.05 Q45.15 -18.95 40.85 14.7 L40.75 14.85 40.6 14.9 40.4 14.8 40.35 14.65 Q44.65 -18.65 40.6 -23.75 L40.55 -23.9" fill="#452f16" fill-rule="evenodd" stroke="none"/>
    <path d="M41.25 -25.1 L42.1 14.05 38.9 13.9 39.85 -25.1 41.25 -25.1" fill="#7e5629" fill-rule="evenodd" stroke="none"/>
    <path d="M41.25 -25.1 L42.1 14.05 38.9 13.9 39.85 -25.1 41.25 -25.1 Z" fill="none" stroke="#593d1e" stroke-linecap="round" stroke-linejoin="round" stroke-width="0.5"/>
  </g>
</svg>
