<?xml version="1.0" encoding="UTF-8" standalone="no"?>
<svg xmlns:xlink="http://www.w3.org/1999/xlink" height="49.75px" width="23.2px" xmlns="http://www.w3.org/2000/svg">
  <g transform="matrix(1.0, 0.0, 0.0, 1.0, -1.6, 12.6)">
    <path d="M17.65 22.8 L11.6 30.2 5.85 37.15 1.9 35.9 3.55 32.65 1.9 29.1 5.6 24.7 1.6 21.0 5.5 12.9 17.2 -12.6 19.4 -8.4 17.8 -4.8 18.65 -2.8 19.85 7.4 15.5 14.25 17.65 22.8" fill="#85c7dc" fill-rule="evenodd" stroke="none"/>
    <path d="M18.65 -2.8 L19.6 -0.6 22.45 3.4 19.85 7.4 18.65 -2.8" fill="url(#gradient0)" fill-rule="evenodd" stroke="none"/>
    <path d="M22.45 3.4 L22.6 3.6 24.8 14.0 17.65 22.8 15.5 14.25 19.85 7.4 22.45 3.4" fill="url(#gradient1)" fill-rule="evenodd" stroke="none"/>
  </g>
  <defs>
    <linearGradient gradientTransform="matrix(0.0, 0.0, 0.0, 0.0, 0.0, 0.0)" gradientUnits="userSpaceOnUse" id="gradient0" spreadMethod="pad" x1="-819.2" x2="819.2">
      <stop offset="0.0" stop-color="#eef1f7"/>
      <stop offset="1.0" stop-color="#95cee1"/>
    </linearGradient>
    <linearGradient gradientTransform="matrix(-0.0084, 0.0105, -0.0092, -0.0074, 20.15, 13.3)" gradientUnits="userSpaceOnUse" id="gradient1" spreadMethod="pad" x1="-819.2" x2="819.2">
      <stop offset="0.0" stop-color="#eef1f7"/>
      <stop offset="1.0" stop-color="#95cee1"/>
    </linearGradient>
  </defs>
</svg>
