<?xml version="1.0" encoding="UTF-8" standalone="no"?>
<svg xmlns:xlink="http://www.w3.org/1999/xlink" height="123.9px" width="63.05px" xmlns="http://www.w3.org/2000/svg">
  <g transform="matrix(1.0, 0.0, 0.0, 1.0, -0.5, 62.3)">
    <path d="M61.2 5.95 L60.95 6.0 60.7 5.95 60.65 5.7 60.75 5.4 60.95 5.3 61.25 5.6 61.2 5.95 M60.9 6.15 L60.95 6.4 60.85 6.65 60.65 6.8 Q60.6 7.35 59.95 7.35 59.55 7.35 59.35 7.05 L59.3 6.95 59.15 6.95 59.0 6.5 59.4 6.15 59.5 6.15 Q59.65 6.0 59.95 6.0 L60.25 6.05 60.8 6.1 60.9 6.15 M61.7 7.8 L61.65 8.1 61.35 8.2 61.1 8.05 Q61.0 8.2 61.0 7.8 L61.1 7.55 61.35 7.5 61.7 7.8 M59.3 10.6 L59.0 10.6 58.55 10.9 58.15 10.85 58.05 10.45 57.9 10.45 Q57.75 10.55 57.75 10.3 L57.55 10.5 57.35 10.75 57.45 10.9 Q57.45 11.4 56.95 11.4 L56.35 11.4 55.95 11.55 56.35 11.8 56.4 12.1 56.15 12.5 55.8 12.7 55.3 12.65 55.25 12.25 54.85 12.05 54.75 12.15 54.6 12.25 54.7 12.35 54.65 12.55 56.2 13.65 57.3 14.25 Q57.65 14.1 57.95 14.25 L57.95 14.15 58.6 14.15 58.7 14.5 58.3 14.75 58.4 14.85 60.1 16.0 60.6 16.8 61.0 17.15 60.55 18.95 60.8 19.3 60.75 19.7 61.1 19.75 61.2 20.05 61.0 20.4 61.2 20.75 Q61.2 20.9 60.6 21.1 L60.65 21.45 Q60.65 21.85 60.25 22.1 L60.25 22.3 60.25 22.4 60.4 22.6 Q60.7 22.7 60.7 23.1 L60.7 23.35 60.8 23.5 60.4 23.9 60.5 24.25 60.5 24.5 60.85 25.0 Q60.95 25.15 60.55 25.15 L60.3 25.05 60.25 24.85 59.85 25.0 Q59.5 25.0 59.35 24.75 L59.35 24.7 58.9 25.15 58.65 25.1 58.5 25.35 58.5 25.45 Q58.3 25.95 57.5 26.0 L57.65 26.15 57.3 26.55 56.9 26.15 57.3 26.0 57.15 25.85 57.1 25.85 56.8 25.75 56.7 25.7 56.4 25.6 56.35 25.35 56.7 24.95 57.3 24.9 57.4 24.95 57.45 25.2 57.5 25.2 57.8 25.15 58.0 24.95 57.9 24.9 57.9 24.7 57.2 24.65 56.5 25.0 56.25 25.45 56.3 25.55 56.35 25.7 56.2 26.1 56.7 26.15 56.75 26.25 56.7 26.55 Q56.7 26.7 56.35 26.7 L55.8 26.45 55.65 26.55 55.3 26.05 55.3 25.9 55.15 25.9 54.85 25.85 54.8 25.6 54.7 25.65 54.65 25.85 54.7 25.85 54.75 26.15 Q54.75 26.55 54.25 26.55 L53.85 26.55 53.8 26.3 Q53.5 27.1 52.75 27.25 L52.65 27.5 52.25 27.75 50.8 28.7 Q51.1 28.7 51.2 29.05 L50.8 29.35 50.5 29.1 50.35 29.25 50.75 29.55 50.8 29.65 50.8 29.8 50.7 30.3 51.0 30.6 50.95 30.45 Q51.1 30.25 51.75 30.45 L51.9 30.7 51.45 31.0 51.35 31.0 51.6 31.25 Q51.65 31.1 51.95 31.1 52.35 31.1 52.75 31.4 L52.65 31.7 52.0 31.8 52.15 32.0 Q52.8 32.15 52.8 32.5 L52.55 32.95 52.55 33.0 53.15 33.25 53.15 33.35 53.5 33.3 Q54.25 33.3 54.25 33.75 L54.15 34.15 53.5 34.2 53.25 34.2 53.3 34.4 53.85 34.45 53.85 35.0 53.4 35.15 53.45 35.45 53.3 35.8 53.45 35.9 53.35 36.25 53.6 36.4 53.6 36.35 54.45 36.4 54.55 36.8 54.4 37.35 54.55 37.35 Q55.1 37.4 56.0 37.95 L55.9 38.2 55.45 38.35 55.65 38.55 56.1 38.45 Q56.7 38.55 56.95 38.9 L57.75 39.5 57.45 39.8 57.75 39.75 Q58.15 39.75 58.15 40.35 L57.9 40.65 57.8 40.6 57.85 40.7 58.0 40.7 58.35 41.15 58.0 41.45 57.9 41.35 57.9 41.4 57.95 41.55 58.0 41.8 57.95 42.05 57.9 42.1 57.85 42.45 57.95 42.5 Q58.6 42.75 58.6 43.1 L58.45 43.5 58.55 43.55 58.6 43.75 58.6 43.85 58.8 43.75 59.05 43.75 59.05 43.7 59.5 43.3 60.1 43.35 60.25 43.65 60.1 44.05 59.7 44.1 59.55 44.1 59.6 44.2 59.55 44.45 59.05 44.6 58.45 44.5 58.35 44.2 58.4 44.1 58.15 44.1 57.9 44.05 57.85 44.0 57.75 44.05 57.65 43.95 57.3 44.4 57.55 44.35 Q57.9 44.15 58.3 44.35 L58.35 44.6 58.3 44.95 57.95 45.05 57.5 44.95 57.15 45.25 57.2 45.45 56.7 45.9 56.45 45.85 56.5 45.9 56.4 46.05 56.75 46.05 56.8 46.4 Q57.95 46.3 58.8 47.95 L59.1 47.9 Q59.55 48.1 59.6 48.65 59.75 49.0 59.1 49.0 L58.7 49.0 58.5 48.8 Q58.35 49.15 58.35 48.5 L58.35 48.4 57.45 48.75 Q56.85 48.75 56.25 47.75 L55.75 46.75 55.8 46.75 55.8 46.55 55.9 46.4 55.7 46.35 55.65 46.15 55.2 46.35 55.1 46.4 54.15 47.1 54.45 47.1 54.55 47.15 54.55 47.05 54.8 46.75 Q55.0 46.6 55.1 46.6 L55.4 46.9 54.9 47.35 55.4 47.85 54.95 48.25 54.8 48.25 54.5 48.65 53.9 48.95 53.15 48.5 53.5 49.0 53.0 49.4 52.15 49.6 50.5 49.55 50.5 49.6 49.8 50.05 49.3 49.95 49.25 49.6 Q49.25 49.15 49.8 49.25 L49.8 49.05 49.15 49.2 Q48.45 49.2 48.45 48.7 L48.0 48.95 47.1 49.4 46.85 49.35 46.75 49.1 45.8 48.95 45.35 49.05 45.1 48.95 44.8 48.65 44.9 48.5 44.65 48.5 44.1 48.4 43.7 48.55 43.3 48.1 Q43.3 47.65 43.65 47.65 L43.15 47.45 42.75 47.3 42.5 47.2 42.6 47.45 43.05 47.5 43.15 47.5 43.25 47.9 42.75 48.5 41.65 48.75 41.25 48.65 41.1 48.4 40.6 48.05 40.9 47.8 40.8 47.65 40.55 47.55 Q40.55 47.25 40.9 47.25 L40.95 47.35 41.0 47.3 41.5 47.3 41.5 47.6 41.55 47.65 41.85 47.55 41.8 47.45 41.85 47.15 42.2 47.1 Q40.75 46.5 40.35 45.95 L40.0 46.05 39.4 46.0 39.3 45.7 Q39.3 45.05 40.35 45.2 L40.4 45.15 40.2 44.9 39.55 45.1 39.45 45.1 39.4 45.3 38.95 45.35 Q38.75 45.35 38.55 45.15 L38.6 44.85 Q38.65 44.7 38.85 44.7 L39.3 44.2 40.25 44.15 Q40.3 43.45 40.75 43.25 41.2 43.05 41.2 43.85 L41.25 43.85 41.75 43.2 41.75 42.95 41.4 43.25 40.9 43.1 40.85 42.7 40.85 42.6 40.25 42.85 40.25 43.0 40.4 43.4 40.25 43.8 39.95 43.9 Q39.4 43.9 39.4 43.45 L39.4 43.35 39.3 43.35 39.3 43.15 38.7 43.25 Q39.1 43.4 39.0 43.8 L38.7 44.05 38.25 43.8 38.15 43.55 38.2 43.4 37.9 43.45 37.9 43.55 37.65 43.95 37.75 44.35 37.7 44.6 37.5 44.8 37.45 45.1 36.95 45.15 36.45 45.1 34.55 45.2 34.1 45.15 Q33.95 45.05 33.95 44.75 L34.3 44.7 34.25 44.6 33.95 44.4 33.95 44.1 34.05 43.8 32.85 43.65 32.7 43.75 32.55 43.8 32.6 44.0 Q32.6 44.5 32.2 44.5 L32.2 44.6 32.2 44.75 32.5 44.75 32.55 44.75 32.75 44.65 33.25 44.45 33.85 44.5 33.95 44.65 33.15 45.0 33.25 45.25 33.15 45.7 33.45 45.9 33.85 46.2 34.25 46.5 34.35 46.4 Q35.55 45.45 36.8 46.0 L36.9 46.1 37.0 46.55 Q36.6 47.6 36.2 48.05 L36.3 48.1 36.3 48.0 37.4 48.1 37.75 48.75 Q37.55 49.1 36.75 49.3 L36.35 49.15 36.25 48.75 35.8 48.75 35.8 48.8 35.45 49.3 34.8 49.5 34.35 49.15 34.8 48.75 33.5 48.75 29.65 49.35 32.25 49.35 32.35 49.65 32.25 50.3 29.35 50.5 29.0 50.3 Q28.85 50.2 28.85 49.8 L28.9 49.5 26.85 49.9 22.9 50.75 22.9 50.8 22.55 51.0 22.4 51.0 22.0 51.1 20.6 51.1 Q20.5 51.25 20.5 50.85 L17.95 50.85 18.0 50.9 15.75 52.0 14.3 52.0 14.3 50.85 13.55 50.85 11.65 49.8 11.6 49.8 11.1 49.9 10.1 49.85 Q10.0 50.15 10.0 49.5 L10.05 49.2 9.6 49.1 9.6 49.3 Q9.6 50.35 7.45 50.35 L6.0 50.1 5.1 49.25 5.2 48.8 5.2 48.55 Q5.2 48.3 5.5 48.25 5.9 48.2 6.05 48.5 L6.05 48.55 6.9 48.6 8.85 48.25 9.1 47.7 8.85 47.7 Q8.85 48.1 8.45 48.1 L8.1 48.0 Q7.95 47.95 7.95 47.7 L8.0 47.4 8.45 47.4 8.4 47.25 8.6 46.55 8.65 46.4 7.3 46.0 Q7.3 45.4 7.85 45.25 L10.3 45.05 10.3 44.9 10.45 45.0 Q10.6 44.9 10.8 44.85 L10.75 44.75 Q10.75 44.25 11.2 44.15 11.5 43.8 11.9 43.8 L12.0 44.05 12.0 43.85 Q12.0 43.5 12.35 43.3 L11.25 43.0 10.1 42.4 9.85 42.45 9.4 42.3 9.35 41.95 9.4 41.9 Q8.4 41.7 8.1 40.8 L7.8 40.55 7.75 40.6 7.3 40.7 6.95 40.45 6.85 40.1 6.9 40.05 7.15 39.6 6.85 39.35 7.0 39.2 7.3 39.0 6.7 39.05 6.4 39.1 6.05 39.05 6.05 38.8 Q6.05 38.5 6.2 38.45 6.45 38.35 6.7 38.6 L6.7 38.5 7.25 38.5 7.45 38.35 7.55 38.4 7.55 38.35 7.45 37.8 7.3 37.7 Q7.15 37.65 7.15 37.3 L7.25 37.3 7.1 37.15 Q6.65 36.65 6.5 35.5 L6.3 35.5 6.35 35.75 6.35 35.85 6.5 36.0 6.6 36.2 6.45 36.45 6.05 36.3 6.05 36.25 5.65 36.3 5.4 36.2 5.35 35.95 5.6 35.6 5.75 35.5 5.35 35.1 Q5.35 34.7 5.75 34.75 L6.0 34.95 6.1 34.85 6.3 34.6 6.35 34.65 5.9 33.25 5.5 32.1 6.15 29.95 5.9 29.8 5.9 29.45 6.0 29.45 5.8 29.3 5.95 29.15 5.9 29.05 Q5.1 29.05 5.05 28.5 L4.95 28.1 Q4.95 27.45 5.75 27.65 L5.85 27.65 5.9 27.95 5.9 28.05 6.6 27.35 6.9 27.05 6.75 26.85 6.7 26.55 6.75 26.15 7.0 26.05 Q7.05 25.7 7.35 25.5 L8.55 25.45 8.55 25.75 8.55 25.85 8.85 25.7 8.8 25.5 Q8.8 25.1 9.15 24.9 L9.1 24.9 8.85 24.9 8.3 24.8 8.25 24.6 7.85 24.15 7.95 23.85 7.8 23.7 7.45 23.8 7.4 23.75 7.35 23.75 7.4 24.05 7.3 24.3 Q7.35 24.45 7.0 24.45 L6.7 24.3 6.6 24.2 6.65 24.0 6.3 24.1 6.1 23.9 5.65 23.9 Q4.8 23.9 4.8 23.35 L4.9 23.0 4.9 22.7 Q4.9 22.45 5.75 22.1 5.4 21.95 5.45 21.5 5.45 20.9 6.25 20.7 5.95 20.65 5.95 20.25 L6.0 19.95 Q6.05 19.8 6.35 19.8 L5.7 18.9 6.0 18.45 6.05 18.35 6.05 18.3 5.35 18.2 5.35 17.9 5.1 17.65 5.05 17.5 5.45 17.25 6.15 17.15 6.3 17.35 6.2 17.55 6.35 17.6 6.55 17.05 6.2 16.65 6.3 16.25 6.7 16.25 6.7 15.95 6.6 15.3 6.05 14.15 7.3 13.0 7.6 12.25 Q7.6 11.15 7.1 10.75 7.6 10.35 8.25 10.0 L8.75 9.7 8.7 9.7 8.8 9.4 8.8 9.1 Q8.8 8.8 9.05 8.7 9.1 8.45 9.3 8.45 L10.1 8.5 10.25 8.9 10.25 9.0 11.1 8.6 11.05 8.6 11.05 8.25 Q11.05 8.0 11.35 7.85 11.75 7.75 11.9 8.3 L12.65 8.0 12.35 7.9 12.3 7.6 12.5 7.15 Q12.75 7.0 13.05 7.35 L13.05 7.3 13.1 7.35 13.4 7.25 13.65 7.55 13.65 7.7 14.0 7.6 14.0 7.5 Q14.0 7.2 14.25 7.15 L14.95 7.1 15.0 7.3 20.6 6.45 20.6 6.4 24.4 6.4 Q27.3 6.5 28.5 7.95 28.85 6.85 29.65 5.85 31.7 3.1 35.5 3.15 L50.65 4.6 Q54.1 5.15 55.95 6.05 L55.95 5.95 56.35 5.7 56.65 5.95 56.55 6.15 56.3 6.25 56.9 6.65 56.9 6.55 Q57.35 6.55 57.75 6.95 L57.8 6.9 57.85 6.8 57.65 6.7 57.6 6.45 Q57.6 6.25 57.75 6.15 L57.9 6.1 58.05 6.5 58.3 6.7 58.35 6.65 58.6 6.95 58.6 7.05 59.0 7.1 59.1 7.1 59.15 7.25 59.05 7.55 58.7 7.65 59.0 7.9 58.85 8.25 58.6 8.4 58.45 8.45 58.35 8.45 58.35 8.65 58.25 8.75 Q58.6 8.8 58.6 9.15 L58.45 9.5 58.45 9.6 58.35 10.0 58.3 10.05 58.5 10.15 58.8 10.15 58.95 10.1 Q59.2 10.05 59.45 10.3 L59.3 10.6 59.55 10.85 59.6 10.85 59.85 11.1 59.85 11.4 59.4 11.4 59.3 11.1 59.2 11.05 59.15 10.85 59.2 10.65 59.3 10.6 M57.5 6.1 L57.6 6.3 57.45 6.55 56.95 6.45 Q56.95 6.15 57.3 5.95 L57.5 6.1 M59.25 8.1 L59.4 7.8 59.55 7.75 Q59.85 7.6 60.05 8.1 L60.1 8.2 59.75 8.5 59.65 8.5 59.4 8.7 59.4 8.75 59.3 9.05 58.9 9.05 58.85 8.9 58.7 8.6 Q58.7 8.3 59.05 8.2 L59.25 8.1 M60.45 9.9 L60.65 10.3 60.4 10.45 60.1 10.3 60.1 10.25 60.05 10.25 59.75 10.3 Q59.55 10.3 59.45 10.15 L59.8 9.9 59.7 9.65 60.15 9.85 60.1 9.9 60.2 10.0 Q60.3 9.9 60.45 9.9 M60.1 9.5 Q59.95 9.45 59.95 9.2 L60.25 9.3 60.1 9.5 M58.75 11.95 Q58.75 11.7 58.95 11.7 L59.4 11.8 59.4 12.0 59.15 12.2 58.9 12.2 59.0 12.25 58.6 12.5 58.35 12.25 58.75 12.15 58.75 11.95 M59.85 12.35 L59.95 12.5 59.75 12.8 59.4 12.65 59.4 12.35 Q59.55 12.15 59.85 12.35 M59.15 14.05 L59.05 14.3 58.7 14.15 58.7 14.05 59.15 14.05 M58.85 24.5 Q58.95 24.4 59.0 24.4 L59.0 24.3 Q58.9 24.3 58.85 24.4 L58.85 24.5 M59.15 23.55 L59.45 23.75 59.75 23.8 59.75 23.85 59.9 23.8 60.05 23.6 59.8 23.55 59.45 23.6 59.2 23.5 59.15 23.55 M59.7 25.95 L59.25 26.15 58.7 25.85 58.7 25.6 Q58.7 25.15 59.25 25.15 59.85 25.15 59.85 25.6 L59.7 25.95 M60.4 25.85 L60.25 26.0 59.85 25.85 60.0 25.6 59.95 25.45 60.4 25.55 60.3 25.55 60.45 25.75 60.4 25.85 60.8 25.75 61.1 25.85 61.2 26.05 61.1 26.15 60.8 26.25 60.4 26.15 60.4 25.85 M57.9 30.9 L57.75 31.2 57.75 31.3 57.45 31.4 57.3 31.3 57.05 31.55 56.55 31.15 56.75 30.85 Q56.8 30.55 57.15 30.5 57.5 30.45 57.9 30.9 M58.6 30.6 L58.9 30.8 59.6 30.6 59.7 31.0 59.5 31.25 59.05 31.45 58.6 31.3 58.6 31.25 58.3 31.15 58.3 30.9 Q58.3 30.65 58.6 30.6 M55.4 25.45 L55.5 25.55 55.75 25.5 55.65 25.45 55.4 25.45 55.4 25.3 55.3 25.35 55.4 25.45 M52.2 28.7 L52.1 28.35 Q52.1 27.7 52.8 27.7 53.15 27.7 53.3 27.9 L53.3 27.8 Q53.9 27.8 54.15 28.05 54.0 28.45 53.6 28.5 L53.45 28.3 53.45 28.35 Q53.45 29.05 52.8 29.05 L52.2 28.7 M53.6 30.75 L53.7 31.2 53.2 31.4 52.9 31.3 52.75 31.2 52.75 31.0 52.9 30.75 Q53.2 30.6 53.6 30.75 M54.6 31.5 L54.3 31.55 53.85 31.4 Q53.9 31.25 54.4 31.05 L54.45 31.1 Q54.5 30.65 55.05 30.95 L55.7 31.3 55.45 31.5 55.95 31.45 56.0 31.75 55.5 32.25 55.1 31.75 55.4 31.5 54.85 31.55 54.6 31.45 54.6 31.5 M52.75 35.0 L52.85 35.0 52.8 34.95 52.75 34.95 52.75 35.0 M55.0 34.4 Q55.4 34.4 55.4 35.0 L55.4 35.3 54.95 35.45 Q54.7 35.45 54.6 35.15 L54.55 34.9 54.25 34.75 54.15 34.45 54.85 34.4 55.0 34.4 M58.3 31.45 L59.0 31.55 59.15 31.75 58.6 32.1 58.45 31.95 Q58.5 32.1 58.15 32.1 L57.9 32.05 57.9 31.95 57.8 31.95 57.75 31.75 57.8 31.55 58.25 31.55 58.3 31.45 M58.15 32.4 L58.0 32.55 57.8 32.5 57.9 32.3 58.15 32.4 M56.95 31.95 Q57.25 31.75 57.6 32.35 L57.5 32.65 57.2 32.85 Q56.75 32.85 56.75 32.4 56.75 32.1 56.95 31.95 M49.7 29.35 L49.6 29.3 49.45 29.35 49.7 29.55 49.7 29.45 49.7 29.35 M41.2 47.0 L40.8 47.1 40.25 47.1 39.8 47.45 39.5 47.35 39.35 47.55 39.4 47.75 39.35 48.05 Q39.3 48.25 38.9 48.25 L38.0 48.05 37.8 47.25 38.75 47.2 38.75 47.15 Q38.75 46.8 39.0 46.7 L39.25 46.6 39.4 46.7 40.2 46.9 40.15 46.85 40.8 46.85 41.2 47.0 M59.75 41.7 L59.4 41.9 59.0 41.85 59.0 41.2 59.7 41.2 59.85 41.55 59.75 41.7 M58.6 41.75 L58.45 41.95 58.3 41.7 58.6 41.75 M53.15 48.5 L53.3 48.2 53.1 48.25 52.85 48.2 52.9 48.4 52.9 48.5 53.15 48.5 M56.25 45.4 L56.05 45.55 56.2 45.6 56.25 45.7 56.2 45.45 56.25 45.4 M57.3 45.75 L57.9 45.75 58.05 46.0 58.0 46.15 57.35 46.2 57.3 45.75 M7.95 9.2 Q7.95 9.35 7.6 9.35 L7.3 9.15 7.3 8.95 7.35 8.7 7.85 8.5 7.95 8.9 7.95 9.2 M7.4 12.3 Q7.4 12.8 6.85 12.9 6.45 12.9 6.45 12.4 6.45 11.9 7.3 12.0 L7.35 12.1 7.4 12.3 M6.2 12.9 L5.75 13.05 5.35 12.65 5.55 12.35 6.2 12.5 6.2 12.9 M5.45 15.6 Q5.45 15.2 6.15 15.35 L6.2 15.6 6.05 16.1 5.9 16.15 Q5.4 16.15 5.45 15.6 M4.4 19.5 Q4.4 19.2 5.05 19.05 L5.15 19.15 5.2 19.35 4.95 19.7 4.7 19.85 4.5 19.8 4.4 19.5 M5.75 19.8 L5.6 20.15 5.4 20.3 Q5.05 20.3 5.05 19.8 5.05 19.6 5.4 19.35 5.75 19.5 5.75 19.8 M15.1 25.15 L15.2 25.2 15.2 25.15 15.1 25.15 M7.05 24.9 Q7.3 24.7 7.7 24.65 L7.75 25.15 7.3 25.45 6.9 25.0 7.05 24.9 M5.65 25.15 L5.4 25.6 5.05 25.35 4.9 25.15 4.95 24.9 5.6 24.9 5.65 25.15 M6.3 25.45 L6.05 25.55 5.9 25.2 6.3 25.45 M5.9 29.95 L5.7 30.4 5.35 30.6 4.8 30.5 4.8 30.45 4.7 30.6 4.4 30.35 Q4.4 30.1 4.7 30.0 L4.8 30.05 Q4.95 29.45 5.8 29.65 L5.9 29.95 M5.5 36.9 L5.2 37.0 5.1 36.75 Q5.4 36.75 5.5 36.9 M6.85 36.95 L7.0 37.1 7.0 37.4 6.7 37.55 6.5 37.45 6.45 37.15 6.45 36.95 6.85 36.95 M5.3 37.65 L5.0 37.6 4.95 37.55 4.9 37.3 Q4.9 36.95 5.75 36.95 L5.9 37.25 5.3 37.65 M7.3 42.15 L7.95 42.15 8.1 42.4 7.6 42.85 Q7.3 42.7 7.3 42.6 L7.3 42.15 M2.0 45.25 Q1.85 45.55 1.3 45.8 L0.75 45.75 Q0.5 45.65 0.5 45.25 0.5 44.85 0.95 44.7 1.45 44.5 1.9 45.05 L2.0 45.25 M9.25 44.5 L9.35 44.5 9.65 44.75 9.35 45.05 9.2 45.0 9.15 44.75 9.25 44.5 M7.75 44.9 Q7.75 44.6 8.1 44.6 L8.4 44.95 8.25 45.15 7.85 45.15 Q7.75 45.2 7.75 44.9 M6.3 46.25 L6.6 46.85 6.25 47.15 5.3 47.05 5.25 46.15 6.3 46.25 M6.75 47.15 Q6.75 46.65 7.3 46.55 7.8 46.85 7.9 47.3 L7.55 47.75 6.75 47.15 M13.4 43.55 L13.4 43.7 13.4 43.75 13.65 43.6 13.4 43.55 M12.0 44.35 L12.15 44.65 12.8 44.2 12.65 44.2 12.0 44.1 12.0 44.35 M10.85 45.55 L10.85 45.65 11.15 45.4 11.1 45.35 10.85 45.5 10.85 45.55 M18.05 44.1 L17.85 44.05 17.7 44.2 18.05 44.1 M35.35 44.5 L35.3 44.75 36.5 44.5 36.6 44.45 36.8 44.45 36.8 44.35 35.3 44.25 35.35 44.5 M34.95 43.8 L35.0 44.05 35.2 44.15 35.2 43.95 35.25 43.8 34.95 43.8 M31.15 44.15 L31.1 44.2 31.25 44.3 31.35 44.25 31.15 44.15 M38.35 45.85 L37.5 45.65 37.7 45.4 38.35 45.3 39.0 45.45 39.1 45.6 38.35 45.85 M28.4 50.75 L28.0 51.05 27.35 50.8 27.35 50.35 28.15 50.3 28.4 50.75 M26.25 50.8 Q26.25 51.3 25.1 52.0 25.0 52.3 25.0 51.7 L25.05 51.6 25.0 51.15 Q25.0 50.75 25.35 50.7 L25.65 50.65 26.0 50.3 26.2 50.4 26.25 50.8 M24.0 50.85 L24.15 51.05 24.05 51.5 23.65 51.65 23.25 51.6 23.15 51.2 23.2 50.75 23.25 50.8 24.0 50.85 M24.9 61.2 L25.75 61.0 26.15 61.1 26.1 61.15 25.1 61.3 24.95 61.25 24.9 61.2 M15.05 50.9 L15.45 50.85 15.05 50.85 15.05 50.9 M10.35 57.9 L11.45 58.15 11.45 58.4 10.95 58.5 10.65 58.45 10.6 58.25 10.35 58.0 10.35 57.9 M11.9 58.25 L12.6 58.4 12.35 58.4 11.9 58.25 M18.6 61.25 L19.25 61.35 19.15 61.6 18.8 61.6 18.45 61.5 18.55 61.3 18.6 61.25 M56.75 50.05 L56.75 50.1 56.65 50.35 56.1 50.2 56.05 50.05 56.1 49.85 56.05 49.9 55.8 49.65 56.05 49.35 56.35 49.6 56.25 49.7 56.7 49.35 56.95 49.8 56.75 50.05 M53.75 49.9 L54.05 50.35 53.75 50.6 53.5 50.5 53.45 50.2 Q53.45 49.9 53.75 49.9 M54.0 49.55 Q54.0 49.0 54.35 49.15 54.8 49.3 54.8 49.9 L54.4 50.05 54.0 49.55 M46.95 50.55 L46.0 50.5 Q45.85 50.4 45.85 50.15 45.85 49.75 46.4 49.7 46.95 49.65 47.1 50.2 L46.95 50.55 M44.45 49.65 L44.05 49.75 43.75 49.65 44.0 49.4 44.45 49.6 44.45 49.65 M45.25 50.2 L45.05 50.3 44.4 50.1 44.4 49.9 45.25 50.05 45.25 50.2" fill="#e9c572" fill-rule="evenodd" stroke="none"/>
    <path d="M46.6 31.25 L16.8 29.0 16.8 3.1 46.6 5.35 46.6 31.25" fill="#000000" fill-opacity="0.29803923" fill-rule="evenodd" stroke="none"/>
    <path d="M59.5 -5.2 Q60.4 -4.85 60.8 -3.95 61.15 -3.0 60.8 -2.1 60.45 -1.2 59.55 -0.85 L57.75 -0.75 Q57.45 -0.85 57.25 -1.05 56.0 1.15 54.35 2.65 52.2 4.65 50.45 4.25 L50.05 4.15 Q48.75 3.7 48.2 2.1 L48.1 1.9 48.05 1.8 47.85 0.7 46.25 -6.9 51.45 -11.9 51.6 -11.85 52.7 -13.1 52.85 -13.25 53.05 -13.45 53.5 -13.8 Q55.75 -15.65 57.5 -15.0 59.4 -14.25 59.65 -10.9 59.9 -8.3 58.95 -5.25 L59.5 -5.2" fill="#cccccc" fill-rule="evenodd" stroke="none"/>
    <path d="M59.5 -5.2 Q60.4 -4.85 60.8 -3.95 61.15 -3.0 60.8 -2.1 60.45 -1.2 59.55 -0.85 L57.75 -0.75 Q57.45 -0.85 57.25 -1.05 56.0 1.15 54.35 2.65 52.2 4.65 50.45 4.25 L50.05 4.15 Q48.75 3.7 48.2 2.1 L48.1 1.9 48.05 1.8 47.85 0.7 46.25 -6.9 51.45 -11.9 51.6 -11.85 52.7 -13.1 52.85 -13.25 53.05 -13.45 53.5 -13.8 Q55.75 -15.65 57.5 -15.0 59.4 -14.25 59.65 -10.9 59.9 -8.3 58.95 -5.25 L59.5 -5.2 Z" fill="none" stroke="#606474" stroke-linecap="round" stroke-linejoin="round" stroke-width="2.5"/>
    <path d="M48.2 2.1 L50.85 -1.2 Q52.2 -3.1 52.9 -4.9 53.5 -6.45 53.65 -7.95 54.0 -11.0 52.05 -11.75 L51.6 -11.85 52.7 -13.1 52.85 -13.25 53.05 -13.45 53.5 -13.8 Q55.75 -15.65 57.5 -15.0 59.4 -14.25 59.65 -10.9 59.95 -7.9 58.7 -4.3 L58.4 -3.6 Q56.85 0.35 54.35 2.65 52.2 4.65 50.45 4.25 L50.05 4.15 Q48.75 3.7 48.2 2.1 M51.6 -11.85 Q50.15 -9.95 49.05 -7.2 47.5 -3.25 47.75 0.1 L47.85 0.7 46.25 -6.9 51.45 -11.9 51.6 -11.85" fill="#969bb4" fill-rule="evenodd" stroke="none"/>
    <path d="M51.6 -11.85 L52.05 -11.75 Q54.0 -11.0 53.65 -7.95 53.5 -6.45 52.9 -4.9 52.2 -3.1 50.85 -1.2 L48.2 2.1 48.1 1.9 48.05 1.8 47.85 0.7 47.75 0.1 Q47.5 -3.25 49.05 -7.2 50.15 -9.95 51.6 -11.85" fill="#71768c" fill-rule="evenodd" stroke="none"/>
    <path d="M60.05 -2.35 L49.85 -4.75 50.25 -5.75 60.05 -2.35" fill="#71768c" fill-rule="evenodd" stroke="none"/>
    <path d="M60.05 -2.35 L50.25 -5.75 50.7 -7.25 60.05 -2.35" fill="#969bb4" fill-rule="evenodd" stroke="none"/>
    <path d="M60.5 -4.15 L59.8 -4.8 Q59.3 -5.0 58.8 -4.8 58.25 -4.55 58.05 -4.05 57.85 -3.55 58.1 -3.05 58.3 -2.55 58.8 -2.35 L59.8 -2.4 60.5 -3.1 Q60.7 -3.6 60.5 -4.15 M56.45 -3.85 Q56.8 -4.75 57.75 -5.2 58.65 -5.55 59.55 -5.2 60.45 -4.85 60.85 -4.0 61.2 -3.05 60.85 -2.15 60.5 -1.25 59.6 -0.85 L57.8 -0.8 Q56.9 -1.15 56.5 -2.05 56.1 -2.95 56.45 -3.85" fill="#71768c" fill-rule="evenodd" stroke="none"/>
    <path d="M60.5 -4.15 Q60.7 -3.6 60.5 -3.1 L59.8 -2.4 58.8 -2.35 Q58.3 -2.55 58.1 -3.05 57.85 -3.55 58.05 -4.05 58.25 -4.55 58.8 -4.8 59.3 -5.0 59.8 -4.8 L60.5 -4.15" fill="#969bb4" fill-rule="evenodd" stroke="none"/>
    <path d="M17.6 -23.8 L18.05 -43.1 49.35 -43.05 48.05 -23.3 43.5 27.7 41.3 27.75 41.4 26.25 23.55 25.9 23.7 27.65 21.5 27.6 17.6 -23.8 M21.3 -10.35 Q31.45 -15.55 41.5 -20.85 L20.6 -20.8 21.3 -10.35 M23.3 20.95 L39.35 13.5 22.8 13.2 23.3 20.95 M22.55 9.7 L40.6 10.15 22.0 -0.1 22.55 9.7 M42.85 7.4 L43.7 -2.6 23.95 -2.6 42.85 7.4 M41.65 23.1 L42.25 15.95 25.7 23.25 41.65 23.1 M43.95 -6.2 L44.85 -18.35 23.55 -6.05 43.95 -6.2" fill="#f55450" fill-rule="evenodd" stroke="none"/>
    <path d="M22.55 9.7 L22.0 -0.1 40.6 10.15 22.55 9.7 M23.3 20.95 L22.8 13.2 39.35 13.5 23.3 20.95 M21.3 -10.35 L20.6 -20.8 41.5 -20.85 Q31.45 -15.55 21.3 -10.35 M42.85 7.4 L23.95 -2.6 43.7 -2.6 42.85 7.4 M41.65 23.1 L25.7 23.25 42.25 15.95 41.65 23.1" fill="#970c09" fill-rule="evenodd" stroke="none"/>
    <path d="M43.95 -6.2 L23.55 -6.05 44.85 -18.35 43.95 -6.2" fill="#6d1800" fill-rule="evenodd" stroke="none"/>
    <path d="M21.3 -10.35 Q31.45 -15.55 41.5 -20.85 L20.6 -20.8 21.3 -10.35 M23.3 20.95 L39.35 13.5 22.8 13.2 23.3 20.95 M22.55 9.7 L40.6 10.15 22.0 -0.1 22.55 9.7 M42.85 7.4 L23.95 -2.6 43.7 -2.6 42.85 7.4 M41.65 23.1 L42.25 15.95 25.7 23.25 41.65 23.1 M43.95 -6.2 L23.55 -6.05 44.85 -18.35 43.95 -6.2" fill="none" stroke="#970c09" stroke-linecap="round" stroke-linejoin="round" stroke-width="2.5"/>
    <path d="M17.6 -23.8 L21.5 27.6 23.7 27.65 23.55 25.9 41.4 26.25 41.3 27.75 43.5 27.7 48.05 -23.3 49.35 -43.05 18.05 -43.1 17.6 -23.8" fill="none" stroke="#6d1800" stroke-linecap="round" stroke-linejoin="round" stroke-width="2.5"/>
    <path d="M41.5 -20.85 L43.3 -20.8 21.5 -7.8 21.3 -10.35 Q31.4 -15.55 41.5 -20.85 M17.6 -23.8 L18.05 -43.1 49.35 -43.1 48.05 -23.3 17.6 -23.8 M42.85 7.4 L42.7 9.15 21.75 -2.65 23.9 -2.6 42.85 7.4 M43.95 -6.2 L43.8 -4.95 21.6 -5.0 23.5 -6.05 43.95 -6.2 M40.55 10.15 L42.55 11.25 22.6 10.9 22.55 9.7 40.55 10.15 M39.35 13.5 L42.4 13.55 23.3 22.35 23.25 20.95 39.35 13.5 M25.65 23.25 L41.6 23.05 41.5 24.5 23.45 24.2 25.65 23.25" fill="#f73600" fill-rule="evenodd" stroke="none"/>
    <path d="M21.3 -10.35 L21.5 -7.8 43.3 -20.8 41.5 -20.85 20.6 -20.8 21.3 -10.35 M17.6 -23.8 L48.05 -23.3 43.5 27.7 41.3 27.7 41.4 26.2 23.55 25.9 23.65 27.6 21.45 27.6 17.6 -23.8 M23.9 -2.6 L21.75 -2.65 42.7 9.15 42.85 7.4 43.65 -2.6 23.9 -2.6 M23.5 -6.05 L21.6 -5.0 43.8 -4.95 43.95 -6.2 44.85 -18.35 23.5 -6.05 M22.55 9.7 L22.6 10.9 42.55 11.25 40.55 10.15 21.95 -0.1 22.55 9.7 M23.25 20.95 L23.3 22.35 42.4 13.55 39.35 13.5 22.75 13.2 23.25 20.95 M25.65 23.25 L23.45 24.2 41.5 24.5 41.6 23.05 42.25 15.95 25.65 23.25" fill="#ad0303" fill-rule="evenodd" stroke="none"/>
    <path d="M21.3 -10.35 L20.6 -20.8 41.5 -20.85 Q31.4 -15.55 21.3 -10.35 M23.9 -2.6 L43.65 -2.6 42.85 7.4 23.9 -2.6 M22.55 9.7 L21.95 -0.1 40.55 10.15 22.55 9.7 M23.25 20.95 L22.75 13.2 39.35 13.5 23.25 20.95 M41.6 23.05 L25.65 23.25 42.25 15.95 41.6 23.05" fill="#6d1800" fill-rule="evenodd" stroke="none"/>
    <path d="M57.05 43.6 L55.0 43.6 55.0 49.1 53.25 49.1 53.25 43.6 5.95 43.6 5.95 49.1 4.35 49.1 4.35 43.6 2.9 43.6 2.9 25.85 57.05 25.85 57.05 43.6" fill="#996600" fill-rule="evenodd" stroke="none"/>
    <path d="M57.05 43.6 L55.0 43.6 55.0 49.1 53.25 49.1 53.25 43.6 5.95 43.6 5.95 49.1 4.35 49.1 4.35 43.6 2.9 43.6 2.9 25.85 57.05 25.85 57.05 43.6 Z" fill="none" stroke="#3e2900" stroke-linecap="round" stroke-linejoin="round" stroke-width="1.0"/>
    <path d="M51.75 -53.9 Q53.0 -54.8 54.55 -54.55 56.05 -54.2 56.75 -52.95 57.5 -51.65 57.1 -50.1 56.75 -48.65 55.45 -47.75 55.15 -47.5 54.7 -47.35 L54.65 -47.35 54.85 -46.95 Q55.9 -44.3 56.3 -41.65 L56.35 -40.35 Q56.8 -35.75 54.75 -33.8 L54.2 -33.4 Q52.35 -32.2 49.85 -32.9 L49.5 -32.95 49.4 -33.05 47.8 -33.8 37.0 -38.7 35.55 -52.9 35.45 -53.4 35.5 -54.3 Q35.45 -58.7 37.95 -60.35 40.6 -62.15 44.9 -59.45 48.4 -57.3 51.2 -53.4 L51.75 -53.9" fill="#969bb4" fill-rule="evenodd" stroke="none"/>
    <path d="M51.75 -53.9 Q53.0 -54.8 54.55 -54.55 56.05 -54.2 56.75 -52.95 57.5 -51.65 57.1 -50.1 56.75 -48.65 55.45 -47.75 55.15 -47.5 54.7 -47.35 L54.65 -47.35 54.85 -46.95 Q55.9 -44.3 56.3 -41.65 L56.35 -40.35 Q56.8 -35.75 54.75 -33.8 L54.2 -33.4 Q52.35 -32.2 49.85 -32.9 L49.5 -32.95 49.4 -33.05 47.8 -33.8 37.0 -38.7 35.55 -52.9 35.45 -53.4 35.5 -54.3 Q35.45 -58.7 37.95 -60.35 40.6 -62.15 44.9 -59.45 48.4 -57.3 51.2 -53.4 L51.75 -53.9 Z" fill="none" stroke="#606474" stroke-linecap="round" stroke-linejoin="round" stroke-width="2.5"/>
    <path d="M36.95 -39.05 L35.55 -52.9 35.45 -53.4 35.5 -54.3 Q35.45 -58.7 37.95 -60.35 40.6 -62.15 44.9 -59.45 48.4 -57.3 51.2 -53.4 L51.75 -53.9 Q53.0 -54.8 54.55 -54.55 56.05 -54.2 56.75 -52.95 57.45 -51.75 57.2 -50.4 L52.75 -50.75 54.7 -47.35 54.65 -47.35 54.85 -46.95 Q55.9 -44.3 56.3 -41.65 L36.95 -39.05" fill="#969bb4" fill-rule="evenodd" stroke="none"/>
    <path d="M36.95 -39.05 L56.3 -41.65 56.35 -40.35 Q56.8 -35.75 54.75 -33.8 L54.2 -33.4 Q52.35 -32.2 49.85 -32.9 L49.5 -32.95 49.4 -33.05 47.8 -33.8 37.0 -38.7 36.95 -39.05 M54.7 -47.35 L52.75 -50.75 57.2 -50.4 57.1 -50.1 Q56.75 -48.65 55.45 -47.75 55.15 -47.5 54.7 -47.35" fill="#71768c" fill-rule="evenodd" stroke="none"/>
    <path d="M2.75 -9.85 Q2.95 -10.8 3.9 -11.35 L4.45 -11.6 Q3.0 -14.7 2.8 -17.55 2.55 -21.1 4.55 -22.25 6.25 -23.3 8.95 -21.65 L9.45 -21.4 9.75 -21.15 9.95 -21.0 11.3 -19.95 11.5 -19.95 17.85 -15.45 17.3 -7.05 17.2 -5.75 17.2 -5.7 17.15 -5.5 Q16.8 -3.65 15.55 -2.9 L15.05 -2.7 Q13.15 -1.95 10.55 -3.8 8.6 -5.15 6.9 -7.3 L6.4 -6.9 Q5.45 -6.35 4.45 -6.7 3.45 -6.95 2.95 -7.85 2.4 -8.75 2.75 -9.85" fill="#cccccc" fill-rule="evenodd" stroke="none"/>
    <path d="M2.75 -9.85 Q2.4 -8.75 2.95 -7.85 3.45 -6.95 4.45 -6.7 5.45 -6.35 6.4 -6.9 L6.9 -7.3 Q8.6 -5.15 10.55 -3.8 13.15 -1.95 15.05 -2.7 L15.55 -2.9 Q16.8 -3.65 17.15 -5.5 L17.2 -5.7 17.2 -5.75 17.3 -7.05 17.85 -15.45 11.5 -19.95 11.3 -19.95 9.95 -21.0 9.75 -21.15 9.45 -21.4 8.95 -21.65 Q6.25 -23.3 4.55 -22.25 2.55 -21.1 2.8 -17.55 3.0 -14.7 4.45 -11.6 L3.9 -11.35 Q2.95 -10.8 2.75 -9.85 Z" fill="none" stroke="#606474" stroke-linecap="round" stroke-linejoin="round" stroke-width="2.5"/>
    <path d="M17.1 -5.4 L13.75 -8.5 Q12.05 -10.35 11.05 -12.15 10.15 -13.75 9.75 -15.3 8.9 -18.5 10.9 -19.65 L11.3 -19.85 9.95 -21.0 9.8 -21.1 9.5 -21.35 9.0 -21.65 Q6.35 -23.2 4.55 -22.2 2.55 -21.05 2.8 -17.45 2.95 -14.1 4.85 -10.5 L5.3 -9.8 Q7.55 -5.75 10.55 -3.75 13.2 -1.95 15.1 -2.65 L15.5 -2.9 Q16.8 -3.65 17.1 -5.4 M11.3 -19.85 Q13.2 -18.0 14.8 -15.25 17.05 -11.2 17.25 -7.65 L17.3 -7.05 17.85 -15.4 11.5 -19.9 11.3 -19.85" fill="#969bb4" fill-rule="evenodd" stroke="none"/>
    <path d="M11.3 -19.85 L10.9 -19.65 Q8.9 -18.5 9.75 -15.3 10.15 -13.75 11.05 -12.15 12.05 -10.35 13.75 -8.5 L17.1 -5.4 17.2 -5.65 17.2 -5.75 17.3 -7.05 17.25 -7.65 Q17.05 -11.2 14.8 -15.25 13.2 -18.0 11.3 -19.85" fill="#71768c" fill-rule="evenodd" stroke="none"/>
    <path d="M13.8 -13.45 L3.65 -8.05 14.3 -12.4 13.8 -13.45" fill="#71768c" fill-rule="evenodd" stroke="none"/>
    <path d="M13.8 -13.45 L13.0 -14.95 3.65 -8.05 13.8 -13.45" fill="#969bb4" fill-rule="evenodd" stroke="none"/>
    <path d="M2.7 -9.65 Q2.75 -10.25 3.3 -10.6 L4.4 -10.75 Q5.0 -10.6 5.3 -10.1 L5.45 -9.1 Q5.3 -8.45 4.85 -8.15 L3.75 -8.0 Q3.15 -8.05 2.85 -8.55 2.55 -9.05 2.7 -9.65 M7.0 -10.3 Q6.45 -11.15 5.45 -11.4 4.35 -11.6 3.45 -11.05 2.6 -10.45 2.35 -9.4 2.1 -8.35 2.65 -7.5 3.2 -6.6 4.25 -6.4 5.3 -6.15 6.15 -6.75 7.05 -7.3 7.35 -8.4 7.55 -9.4 7.0 -10.3" fill="#71768c" fill-rule="evenodd" stroke="none"/>
    <path d="M2.7 -9.65 Q2.55 -9.05 2.85 -8.55 3.15 -8.05 3.75 -8.0 L4.85 -8.15 Q5.3 -8.45 5.45 -9.1 L5.3 -10.1 Q5.0 -10.6 4.4 -10.75 L3.3 -10.6 Q2.75 -10.25 2.7 -9.65" fill="#969bb4" fill-rule="evenodd" stroke="none"/>
    <path d="M2.9 42.25 L2.9 25.85 57.05 25.85 57.05 42.25 2.9 42.25" fill="#996600" fill-rule="evenodd" stroke="none"/>
    <path d="M57.05 42.25 L57.05 43.6 55.0 43.6 55.0 49.1 53.25 49.1 53.25 43.6 5.95 43.6 5.95 49.1 4.35 49.1 4.35 43.6 2.9 43.6 2.9 42.25 57.05 42.25" fill="#5b3e00" fill-rule="evenodd" stroke="none"/>
    <path d="M51.6 27.4 L55.1 27.4" fill="none" stroke="#333333" stroke-linecap="round" stroke-linejoin="round" stroke-width="2.5"/>
    <path d="M55.85 27.4 Q74.35 29.65 45.25 13.3" fill="none" stroke="#333333" stroke-linecap="round" stroke-linejoin="round" stroke-width="1.0"/>
    <path d="M22.0 28.9 L25.5 28.9 M31.4 29.1 L34.7 29.1" fill="none" stroke="#333333" stroke-linecap="round" stroke-linejoin="round" stroke-width="2.5"/>
    <path d="M26.25 28.9 L31.4 29.1" fill="none" stroke="#333333" stroke-linecap="round" stroke-linejoin="round" stroke-width="1.0"/>
    <path d="M22.25 32.5 L25.75 32.5 M32.9 32.55 L34.7 32.55 M31.2 32.75 L32.9 32.55" fill="none" stroke="#333333" stroke-linecap="round" stroke-linejoin="round" stroke-width="2.5"/>
    <path d="M32.9 32.55 Q36.35 31.95 37.05 29.55 M26.5 32.5 L31.2 32.75" fill="none" stroke="#333333" stroke-linecap="round" stroke-linejoin="round" stroke-width="1.0"/>
    <path d="M24.05 38.65 L4.8 38.65 4.8 24.25 24.05 24.25 24.05 38.65" fill="#818181" fill-rule="evenodd" stroke="none"/>
    <path d="M24.05 38.65 L4.8 38.65 4.8 24.25 24.05 24.25 24.05 38.65 Z" fill="none" stroke="#575757" stroke-linecap="round" stroke-linejoin="round" stroke-width="2.5"/>
    <path d="M4.8 31.4 L4.8 24.25 24.05 24.25 24.05 31.4 4.8 31.4" fill="#999999" fill-rule="evenodd" stroke="none"/>
    <path d="M24.05 31.4 L24.05 38.65 4.8 38.65 4.8 31.4 24.05 31.4" fill="#818181" fill-rule="evenodd" stroke="none"/>
    <path d="M9.05 37.85 L9.05 38.0 Q9.05 38.6 8.5 39.0 L7.45 39.35 7.1 39.35 6.0 39.0 Q5.5 38.6 5.5 38.0 L5.5 37.85 6.0 37.0 Q6.5 36.6 7.3 36.6 8.0 36.6 8.5 37.0 L9.05 37.85" fill="#626262" fill-rule="evenodd" stroke="none"/>
    <path d="M5.5 37.85 L5.5 37.55 Q5.5 36.85 6.0 36.3 6.5 35.8 7.3 35.8 8.0 35.8 8.5 36.3 9.05 36.85 9.05 37.55 L9.05 37.85 8.5 37.0 Q8.0 36.6 7.3 36.6 6.5 36.6 6.0 37.0 L5.5 37.85" fill="#737373" fill-rule="evenodd" stroke="none"/>
    <path d="M9.05 37.85 L9.05 38.0 Q9.05 38.6 8.5 39.0 L7.45 39.35 7.1 39.35 6.0 39.0 Q5.5 38.6 5.5 38.0 L5.5 37.85 5.5 37.55 Q5.5 36.85 6.0 36.3 6.5 35.8 7.3 35.8 8.0 35.8 8.5 36.3 9.05 36.85 9.05 37.55 L9.05 37.85 8.5 37.0 Q8.0 36.6 7.3 36.6 6.5 36.6 6.0 37.0 L5.5 37.85" fill="none" stroke="#575757" stroke-linecap="round" stroke-linejoin="round" stroke-width="2.5"/>
    <path d="M19.7 37.85 Q19.8 37.4 20.2 37.0 20.7 36.6 21.5 36.6 22.2 36.6 22.7 37.0 L23.25 37.85 23.25 38.0 Q23.25 38.55 22.7 39.0 L21.65 39.35 21.3 39.35 20.2 39.0 Q19.7 38.55 19.7 38.0 L19.7 37.85" fill="#626262" fill-rule="evenodd" stroke="none"/>
    <path d="M19.7 37.85 L19.7 37.55 Q19.7 36.85 20.2 36.3 20.7 35.8 21.5 35.8 22.2 35.8 22.7 36.3 23.25 36.85 23.25 37.55 L23.25 37.85 22.7 37.0 Q22.2 36.6 21.5 36.6 20.7 36.6 20.2 37.0 19.8 37.4 19.7 37.85" fill="#737373" fill-rule="evenodd" stroke="none"/>
    <path d="M23.25 37.85 L23.25 37.55 Q23.25 36.85 22.7 36.3 22.2 35.8 21.5 35.8 20.7 35.8 20.2 36.3 19.7 36.85 19.7 37.55 L19.7 37.85 Q19.8 37.4 20.2 37.0 20.7 36.6 21.5 36.6 22.2 36.6 22.7 37.0 L23.25 37.85 23.25 38.0 Q23.25 38.55 22.7 39.0 L21.65 39.35 21.3 39.35 20.2 39.0 Q19.7 38.55 19.7 38.0 L19.7 37.85" fill="none" stroke="#575757" stroke-linecap="round" stroke-linejoin="round" stroke-width="2.5"/>
    <path d="M14.45 31.75 Q16.55 31.75 18.0 33.2 19.45 34.65 19.45 36.75 L19.45 36.95 9.45 36.95 9.45 36.75 Q9.45 34.65 10.95 33.2 12.4 31.75 14.45 31.75" fill="#cecece" fill-rule="evenodd" stroke="none"/>
    <path d="M14.45 31.75 Q16.55 31.75 18.0 33.2 19.45 34.65 19.45 36.75 L19.45 36.95 9.45 36.95 9.45 36.75 Q9.45 34.65 10.95 33.2 12.4 31.75 14.45 31.75 Z" fill="none" stroke="#575757" stroke-linecap="round" stroke-linejoin="round" stroke-width="2.5"/>
    <path d="M14.9 36.95 L9.45 36.95 9.45 36.75 Q9.45 34.65 10.95 33.2 12.4 31.75 14.45 31.75 16.55 31.75 18.0 33.2 19.45 34.65 19.45 36.75 L19.45 36.95 16.05 36.95 13.15 34.2 13.95 33.7 11.95 33.6 12.25 35.9 12.6 34.75 14.9 36.95" fill="#cecece" fill-rule="evenodd" stroke="none"/>
    <path d="M16.05 36.95 L14.9 36.95 12.6 34.75 12.25 35.9 11.95 33.6 13.95 33.7 13.15 34.2 16.05 36.95" fill="#333333" fill-rule="evenodd" stroke="none"/>
    <path d="M5.5 37.85 L6.0 37.0 Q6.5 36.6 7.3 36.6 8.0 36.6 8.5 37.0 L9.05 37.85 9.05 38.0 Q9.05 38.6 8.5 39.0 L7.45 39.35 7.1 39.35 6.0 39.0 Q5.5 38.6 5.5 38.0 L5.5 37.85" fill="#626262" fill-rule="evenodd" stroke="none"/>
    <path d="M5.5 37.85 L5.5 37.55 Q5.5 36.85 6.0 36.3 6.5 35.8 7.3 35.8 8.0 35.8 8.5 36.3 9.05 36.85 9.05 37.55 L9.05 37.85 8.5 37.0 Q8.0 36.6 7.3 36.6 6.5 36.6 6.0 37.0 L5.5 37.85" fill="#737373" fill-rule="evenodd" stroke="none"/>
    <path d="M19.7 37.85 Q19.8 37.4 20.2 37.0 20.7 36.6 21.5 36.6 22.2 36.6 22.7 37.0 L23.25 37.85 23.25 38.0 Q23.25 38.55 22.7 39.0 L21.65 39.35 21.3 39.35 20.2 39.0 Q19.7 38.55 19.7 38.0 L19.7 37.85" fill="#626262" fill-rule="evenodd" stroke="none"/>
    <path d="M23.25 37.85 L22.7 37.0 Q22.2 36.6 21.5 36.6 20.7 36.6 20.2 37.0 19.8 37.4 19.7 37.85 L19.7 37.55 Q19.7 36.85 20.2 36.3 20.7 35.8 21.5 35.8 22.2 35.8 22.7 36.3 23.25 36.85 23.25 37.55 L23.25 37.85" fill="#737373" fill-rule="evenodd" stroke="none"/>
    <path d="M51.5 31.65 L55.0 31.65" fill="none" stroke="#333333" stroke-linecap="round" stroke-linejoin="round" stroke-width="2.5"/>
    <path d="M55.75 31.65 Q74.25 33.9 45.15 17.55" fill="none" stroke="#333333" stroke-linecap="round" stroke-linejoin="round" stroke-width="1.0"/>
    <path d="M32.5 18.45 L51.75 18.45 51.75 38.45 32.5 38.45 32.5 18.45" fill="#999999" fill-rule="evenodd" stroke="none"/>
    <path d="M32.5 18.45 L51.75 18.45 51.75 38.45 32.5 38.45 32.5 18.45 Z" fill="none" stroke="#575757" stroke-linecap="round" stroke-linejoin="round" stroke-width="2.5"/>
    <path d="M51.75 27.15 L32.5 27.15 32.5 18.45 51.75 18.45 51.75 27.15" fill="#999999" fill-rule="evenodd" stroke="none"/>
    <path d="M32.5 27.15 L51.75 27.15 51.75 38.45 32.5 38.45 32.5 27.15" fill="#818181" fill-rule="evenodd" stroke="none"/>
    <path d="M34.35 31.1 Q34.45 30.65 34.85 30.25 35.35 29.85 36.15 29.85 36.85 29.85 37.35 30.25 L37.9 31.1 37.9 31.25 Q37.9 31.8 37.35 32.25 L36.3 32.6 35.95 32.6 34.85 32.25 Q34.35 31.8 34.35 31.25 L34.35 31.1" fill="#626262" fill-rule="evenodd" stroke="none"/>
    <path d="M37.9 31.1 L37.35 30.25 Q36.85 29.85 36.15 29.85 35.35 29.85 34.85 30.25 34.45 30.65 34.35 31.1 L34.35 30.8 Q34.35 30.1 34.85 29.55 35.35 29.05 36.15 29.05 36.85 29.05 37.35 29.55 37.9 30.1 37.9 30.8 L37.9 31.1" fill="#737373" fill-rule="evenodd" stroke="none"/>
    <path d="M34.35 31.1 Q34.45 30.65 34.85 30.25 35.35 29.85 36.15 29.85 36.85 29.85 37.35 30.25 L37.9 31.1 37.9 30.8 Q37.9 30.1 37.35 29.55 36.85 29.05 36.15 29.05 35.35 29.05 34.85 29.55 34.35 30.1 34.35 30.8 L34.35 31.1 34.35 31.25 Q34.35 31.8 34.85 32.25 L35.95 32.6 36.3 32.6 37.35 32.25 Q37.9 31.8 37.9 31.25 L37.9 31.1" fill="none" stroke="#575757" stroke-linecap="round" stroke-linejoin="round" stroke-width="2.5"/>
    <path d="M34.35 31.1 Q34.45 30.65 34.85 30.25 35.35 29.85 36.15 29.85 36.85 29.85 37.35 30.25 L37.9 31.1 37.9 31.25 Q37.9 31.8 37.35 32.25 L36.3 32.6 35.95 32.6 34.85 32.25 Q34.35 31.8 34.35 31.25 L34.35 31.1" fill="#626262" fill-rule="evenodd" stroke="none"/>
    <path d="M34.35 31.1 L34.35 30.8 Q34.35 30.1 34.85 29.55 35.35 29.05 36.15 29.05 36.85 29.05 37.35 29.55 37.9 30.1 37.9 30.8 L37.9 31.1 37.35 30.25 Q36.85 29.85 36.15 29.85 35.35 29.85 34.85 30.25 34.45 30.65 34.35 31.1" fill="#737373" fill-rule="evenodd" stroke="none"/>
    <path d="M34.35 37.25 Q34.45 36.8 34.85 36.4 35.35 36.0 36.15 36.0 36.85 36.0 37.35 36.4 L37.9 37.25 37.9 37.4 Q37.9 37.95 37.35 38.4 L36.3 38.75 35.95 38.75 34.85 38.4 Q34.35 37.95 34.35 37.4 L34.35 37.25" fill="#626262" fill-rule="evenodd" stroke="none"/>
    <path d="M34.35 37.25 L34.35 36.95 Q34.35 36.25 34.85 35.7 35.35 35.2 36.15 35.2 36.85 35.2 37.35 35.7 37.9 36.25 37.9 36.95 L37.9 37.25 37.35 36.4 Q36.85 36.0 36.15 36.0 35.35 36.0 34.85 36.4 34.45 36.8 34.35 37.25" fill="#737373" fill-rule="evenodd" stroke="none"/>
    <path d="M37.9 37.25 L37.9 36.95 Q37.9 36.25 37.35 35.7 36.85 35.2 36.15 35.2 35.35 35.2 34.85 35.7 34.35 36.25 34.35 36.95 L34.35 37.25 Q34.45 36.8 34.85 36.4 35.35 36.0 36.15 36.0 36.85 36.0 37.35 36.4 L37.9 37.25 37.9 37.4 Q37.9 37.95 37.35 38.4 L36.3 38.75 35.95 38.75 34.85 38.4 Q34.35 37.95 34.35 37.4 L34.35 37.25" fill="none" stroke="#575757" stroke-linecap="round" stroke-linejoin="round" stroke-width="2.5"/>
    <path d="M34.35 37.25 Q34.45 36.8 34.85 36.4 35.35 36.0 36.15 36.0 36.85 36.0 37.35 36.4 L37.9 37.25 37.9 37.4 Q37.9 37.95 37.35 38.4 L36.3 38.75 35.95 38.75 34.85 38.4 Q34.35 37.95 34.35 37.4 L34.35 37.25" fill="#626262" fill-rule="evenodd" stroke="none"/>
    <path d="M37.9 37.25 L37.35 36.4 Q36.85 36.0 36.15 36.0 35.35 36.0 34.85 36.4 34.45 36.8 34.35 37.25 L34.35 36.95 Q34.35 36.25 34.85 35.7 35.35 35.2 36.15 35.2 36.85 35.2 37.35 35.7 37.9 36.25 37.9 36.95 L37.9 37.25" fill="#737373" fill-rule="evenodd" stroke="none"/>
    <path d="M49.75 28.4 L49.75 37.4 40.75 37.4 40.75 28.4 49.75 28.4" fill="#575757" fill-rule="evenodd" stroke="none"/>
  </g>
</svg>
