<?xml version="1.0" encoding="UTF-8" standalone="no"?>
<svg xmlns:xlink="http://www.w3.org/1999/xlink" height="96.25px" width="43.65px" xmlns="http://www.w3.org/2000/svg">
  <g transform="matrix(1.0, 0.0, 0.0, 1.0, 26.15, 38.0)">
    <path d="M11.0 38.4 L10.7 39.1 10.0 39.4 Q9.6 39.4 9.3 39.1 9.0 38.8 9.0 38.4 L9.0 31.95 Q9.0 31.55 9.3 31.25 9.6 30.95 10.0 30.95 10.4 30.95 10.7 31.25 L11.0 31.95 11.0 38.4 M-19.65 31.95 L-19.35 31.25 Q-19.05 30.95 -18.65 30.95 -18.25 30.95 -17.95 31.25 -17.65 31.55 -17.65 31.95 L-17.65 38.4 Q-17.65 38.8 -17.95 39.1 -18.25 39.4 -18.65 39.4 L-19.35 39.1 -19.65 38.4 -19.65 31.95" fill="#333333" fill-rule="evenodd" stroke="none"/>
    <path d="M11.0 38.4 L11.0 31.95 M-19.65 31.95 L-19.65 38.4" fill="none" stroke="#333333" stroke-linecap="round" stroke-linejoin="round" stroke-width="3.0"/>
    <path d="M-4.9 -35.5 L-5.5 -17.8 -3.15 -17.8 -3.8 -35.5 -4.9 -35.5 M-2.7 6.9 L-2.4 7.35 -2.35 7.3 -2.7 2.2 -2.95 -2.5 -3.05 -2.65 -2.95 -2.75 -3.15 -6.95 -3.2 -7.6 -5.4 -7.6 -5.4 -7.05 -5.65 -2.7 -5.65 -2.65 Q-5.9 2.55 -6.3 7.35 L-6.0 6.9 M-10.3 8.55 L-9.95 8.1 -9.8 7.85 -9.25 2.95 -9.25 2.9 -9.35 2.8 -9.2 2.6 -8.75 -1.9 -8.8 -2.05 -8.7 -2.25 -8.35 -6.6 -8.25 -7.6 -8.25 -11.3 -8.25 -17.4 -0.4 -17.4 -0.4 -11.3 -0.4 -7.6 -0.3 -6.65 0.1 -2.1 0.15 -2.05 0.6 2.65 0.65 2.8 0.65 2.9 1.2 7.95 1.3 8.1 1.6 8.55 M-8.25 -7.6 L-5.4 -7.6 M-5.65 -2.7 L-7.0 -4.7 -8.7 -2.25 -8.75 -1.9 -7.45 0.0 -5.65 -2.65 M-2.95 -2.75 L-2.95 -2.5 -1.25 0.0 0.15 -2.05 0.1 -2.1 -1.65 -4.7 -2.95 -2.75 M-8.35 -6.6 L-7.0 -4.7 -5.4 -7.05 M-3.15 -6.95 L-1.65 -4.7 -0.3 -6.65 M-9.25 2.95 L-9.2 2.6 -7.45 0.0 -5.95 2.2 -7.85 5.0 -6.3 7.35 -6.75 12.85 -6.7 12.95 -6.8 13.05 -7.35 18.8 -7.5 20.1 -1.15 20.1 -1.3 18.75 -1.85 13.15 -2.0 12.95 -1.85 12.85 -2.3 7.4 -2.4 7.35 M-9.95 8.1 L-9.85 8.3 -9.8 7.85 -7.85 5.0 -9.25 2.95 M-2.7 2.2 L-1.25 0.0 0.6 2.65 0.65 2.9 -0.85 5.0 1.2 7.95 1.25 8.25 1.3 8.1 M-0.85 5.0 L-2.35 7.3 -2.3 7.4 -0.3 10.45 1.25 8.25 1.9 13.7 2.0 13.85 1.95 13.95 2.85 19.95 2.9 20.1 3.45 23.6 3.75 25.15 4.8 30.55 5.1 30.9 M-2.7 2.2 L-0.85 5.0 M-3.2 -7.6 L-0.4 -7.6 M-0.4 -11.3 L-8.25 -11.3 M1.9 13.7 L-0.3 10.45 -1.85 12.85 -1.85 13.15 0.3 16.4 1.95 13.95 1.9 13.7 M3.45 23.6 L-0.7 23.6 -0.6 24.0 2.1 27.3 3.75 25.15 M2.85 19.95 L0.3 16.4 -1.3 18.75 M4.8 30.55 L2.1 27.3 0.25 29.85 0.4 30.45 0.45 30.9 3.3 34.05 5.15 32.05 4.8 30.55 M0.4 30.45 L0.4 30.8 0.45 30.9 Q0.9 33.6 1.5 36.1 L3.3 34.05 6.55 37.55 5.15 32.05 M1.5 36.1 L2.0 38.4 6.0 38.4 6.75 38.4 6.55 37.55 M0.75 38.4 L0.75 40.85 2.65 40.85 2.0 38.4 0.75 38.4 -4.3 38.4 -4.3 40.85 0.75 40.85 0.75 43.4 3.35 43.4 2.65 40.85 5.8 40.85 6.0 38.4 M5.8 40.85 L7.45 40.85 6.75 38.4 10.0 38.4 9.25 40.85 8.5 43.4 8.35 43.4 8.5 43.95 Q9.55 46.9 10.75 49.35 L10.9 49.7 Q12.4 52.6 14.0 54.65 L15.0 55.75 M3.35 43.4 L3.4 43.4 5.65 43.4 5.8 40.85 M3.35 43.4 L4.6 47.05 5.05 48.25 6.75 46.1 3.4 43.4 M6.75 46.1 L8.5 43.95 M8.35 43.4 L5.65 43.4 M9.25 40.85 L7.45 40.85 8.35 43.4 M0.25 29.85 L-0.6 24.0 M-6.75 12.85 L-8.35 10.45 -10.55 13.65 -10.6 14.0 -9.0 16.4 -6.8 13.05 -6.75 12.85 M-10.55 13.65 L-10.7 13.85 -10.6 14.0 -11.5 19.95 -9.0 16.4 -7.35 18.8 M-13.8 30.9 L-13.4 30.45 -12.35 25.15 -12.1 23.6 -11.5 20.1 -11.5 19.95 M-12.35 25.15 L-10.8 27.3 -8.0 23.9 -7.95 23.6 -12.1 23.6 M2.9 20.1 L-1.15 20.1 -0.7 23.6 -7.95 23.6 -7.5 20.1 -11.5 20.1 M-17.85 40.85 L-16.1 40.85 -15.35 38.4 -18.65 38.4 -17.85 40.85 -17.1 43.4 -16.95 43.4 -16.1 40.85 -14.4 40.85 -14.55 38.4 -15.35 38.4 -15.15 37.55 -13.8 32.05 -13.4 30.45 -10.8 27.3 -8.9 29.9 -8.0 23.9 M-8.9 29.9 L-9.05 30.65 -9.05 30.8 -10.1 36.15 -10.6 38.4 -9.3 38.4 -4.3 38.4 M-10.1 36.15 L-11.95 34.05 -15.15 37.55 M-13.8 32.05 L-11.95 34.05 -9.05 30.8 M-14.4 40.85 L-11.25 40.85 -10.6 38.4 -14.55 38.4 M-11.85 43.4 L-9.3 43.4 -9.3 40.85 -11.25 40.85 -11.95 43.4 -11.85 43.4 -12.0 43.5 -13.2 47.05 Q-4.55 42.05 4.6 47.05 M-11.95 43.4 L-12.0 43.5 -15.25 46.1 -13.6 48.1 -13.2 47.05 M-23.65 55.75 L-22.6 54.6 Q-21.0 52.55 -19.5 49.65 L-19.35 49.3 Q-18.2 46.9 -17.1 43.9 L-16.95 43.4 -14.25 43.4 -14.4 40.85 M-14.25 43.4 L-11.95 43.4 M-19.35 49.3 L-15.25 46.1 -17.1 43.9 M-9.3 43.4 L-4.3 43.4 -4.3 40.85 -9.3 40.85 -9.3 38.4 M-13.6 48.1 L-14.05 49.15 -14.15 49.35 Q-15.35 52.0 -16.7 53.95 L-18.15 55.75 M-19.5 49.65 L-18.05 51.85 -14.15 49.35 M-22.6 54.6 L-18.05 51.85 -16.7 53.95 M9.5 55.75 L8.15 54.05 Q6.75 52.05 5.5 49.2 L5.05 48.25 M8.15 54.05 L9.55 51.85 5.5 49.2 M9.55 51.85 L10.9 49.7 M14.0 54.65 L9.55 51.85 M10.75 49.35 L6.75 46.1 M-4.3 43.4 L0.75 43.4 M-9.85 8.3 L-8.35 10.45 -6.3 7.35 M-10.55 13.65 L-9.85 8.3" fill="none" stroke="#333333" stroke-linecap="round" stroke-linejoin="round" stroke-width="5.0"/>
    <path d="M-2.95 -2.75 L-2.95 -2.5 -2.7 2.2 -2.35 7.3 -2.3 7.4 -1.85 12.85 -1.85 13.15 M-2.95 -2.75 L-3.15 -6.95 -3.2 -7.6 -5.4 -7.6 -5.4 -7.05 -5.65 -2.7 M-5.65 -2.65 Q-5.9 2.55 -6.3 7.35 M-4.9 -35.5 L-5.5 -17.8 -3.15 -17.8 -3.8 -35.5 -4.9 -35.5 M-0.4 -11.3 L-0.4 -17.4 -8.25 -17.4 -8.25 -11.3 M-0.4 -11.3 L-0.4 -7.6 -0.3 -6.65 0.1 -2.1 M-0.4 -7.6 L-3.2 -7.6 M-8.7 -2.25 L-8.35 -6.6 -8.25 -7.6 -8.25 -11.3 M-8.25 -7.6 L-5.4 -7.6 M-8.75 -1.9 L-8.7 -2.25 M0.65 2.9 L0.6 2.65 0.15 -2.05 M-9.2 2.6 L-9.25 2.9 M-9.2 2.6 L-8.75 -1.9 M-9.85 8.3 L-9.8 7.85 -9.25 2.95 M1.95 13.95 L1.9 13.7 1.25 8.25 1.2 7.95 0.65 2.9 M-10.6 14.0 L-10.55 13.65 -9.85 8.3 M-13.4 30.45 L-12.35 25.15 -12.1 23.6 -11.5 20.1 -11.5 19.95 -10.6 14.0 M-6.8 13.05 L-6.75 12.85 -6.3 7.35 M-7.95 23.6 L-8.0 23.9 -8.9 29.9 -9.05 30.65 M-9.05 30.8 L-10.1 36.15 -10.6 38.4 -9.3 38.4 -4.3 38.4 0.75 38.4 2.0 38.4 1.5 36.1 Q0.9 33.6 0.45 30.9 M0.4 30.45 L0.25 29.85 -0.6 24.0 -0.7 23.6 M-7.95 23.6 L-7.5 20.1 M-6.8 13.05 L-7.35 18.8 -7.5 20.1 M-1.15 20.1 L-1.3 18.75 -1.85 13.15 M-1.15 20.1 L-0.7 23.6 M3.45 23.6 L2.9 20.1 2.85 19.95 1.95 13.95 M-13.4 30.45 L-13.8 32.05 -15.15 37.55 M-11.25 40.85 L-10.6 38.4 -14.55 38.4 -15.35 38.4 -18.65 38.4 -17.85 40.85 -17.1 43.4 -16.95 43.4 -16.1 40.85 -15.35 38.4 -15.15 37.55 M-14.25 43.4 L-11.95 43.4 -11.25 40.85 M-23.65 55.75 L-22.6 54.6 Q-21.0 52.55 -19.5 49.65 L-19.35 49.3 Q-18.2 46.9 -17.1 43.9 L-16.95 43.4 -14.25 43.4 M9.5 55.75 L8.15 54.05 Q6.75 52.05 5.5 49.2 L5.05 48.25 4.6 47.05 Q-4.55 42.05 -13.2 47.05 L-13.6 48.1 -14.05 49.15 M-14.15 49.35 Q-15.35 52.0 -16.7 53.95 L-18.15 55.75 M-11.85 43.4 L-11.95 43.4 -12.0 43.5 -13.2 47.05 M-9.3 43.4 L-4.3 43.4 0.75 43.4 M-18.65 31.95 L-18.65 38.4 M-9.3 43.4 L-11.85 43.4 M4.8 30.55 L3.75 25.15 3.45 23.6 M0.4 30.45 L0.45 30.9 M5.15 32.05 L4.9 30.95 M9.25 40.85 L10.0 38.4 6.75 38.4 7.45 40.85 8.35 43.4 5.65 43.4 3.4 43.4 M9.25 40.85 L8.5 43.4 8.35 43.4 8.5 43.95 Q9.55 46.9 10.75 49.35 L10.9 49.7 Q12.4 52.6 14.0 54.65 L15.0 55.75 M2.0 38.4 L6.0 38.4 6.75 38.4 6.55 37.55 5.15 32.05 M2.65 40.85 L2.0 38.4 M2.65 40.85 L3.35 43.4 3.4 43.4 M4.6 47.05 L3.35 43.4 0.75 43.4 M10.0 31.95 L10.0 38.4" fill="none" stroke="#999999" stroke-linecap="round" stroke-linejoin="round" stroke-width="2.0"/>
    <path d="M-2.95 -2.5 L-1.25 0.0 0.15 -2.05 0.1 -2.1 -1.65 -4.7 -2.95 -2.75 M-2.95 -2.5 L-3.05 -2.65 -2.95 -2.75 M-5.65 -2.7 L-5.65 -2.65 M-6.3 7.35 L-6.0 6.9 M-8.25 -11.3 L-0.4 -11.3 M-5.4 -7.05 L-7.0 -4.7 -5.65 -2.7 M-8.7 -2.25 L-8.8 -2.05 -8.75 -1.9 -7.45 0.0 -5.65 -2.65 M-8.7 -2.25 L-7.0 -4.7 -8.35 -6.6 M-3.15 -6.95 L-1.65 -4.7 -0.3 -6.65 M0.6 2.65 L-1.25 0.0 -2.7 2.2 -0.85 5.0 0.65 2.9 0.65 2.8 0.6 2.65 M-9.25 2.9 L-9.25 2.95 -7.85 5.0 -5.95 2.2 -7.45 0.0 -9.2 2.6 M-9.25 2.9 L-9.35 2.8 -9.2 2.6 M-9.8 7.85 L-9.95 8.1 -9.85 8.3 -8.35 10.45 -6.3 7.35 -7.85 5.0 -9.8 7.85 M-2.3 7.4 L-2.4 7.35 -2.7 6.9 M-2.35 7.3 L-2.4 7.35 M-1.85 12.85 L-0.3 10.45 -2.3 7.4 M-1.85 13.15 L0.3 16.4 1.95 13.95 2.0 13.85 1.9 13.7 -0.3 10.45 1.25 8.25 1.3 8.1 1.6 8.55 M1.2 7.95 L-0.85 5.0 -2.35 7.3 M-10.55 13.65 L-10.7 13.85 -10.6 14.0 -9.0 16.4 -6.8 13.05 -6.7 12.95 -6.75 12.85 -8.35 10.45 -10.55 13.65 M-1.85 13.15 L-2.0 12.95 -1.85 12.85 M-9.05 30.65 L-9.05 30.8 M0.45 30.9 L0.4 30.8 0.4 30.45 M-0.7 23.6 L-7.95 23.6 -12.1 23.6 M-7.5 20.1 L-11.5 20.1 M-7.5 20.1 L-1.15 20.1 M-0.7 23.6 L3.45 23.6 M2.9 20.1 L-1.15 20.1 M-7.35 18.8 L-9.0 16.4 -11.5 19.95 M-9.95 8.1 L-10.3 8.55 M-12.35 25.15 L-10.8 27.3 -8.0 23.9 M-13.8 32.05 L-11.95 34.05 -9.05 30.8 M-13.4 30.45 L-13.8 30.9 M-8.9 29.9 L-10.8 27.3 -13.4 30.45 M-15.15 37.55 L-11.95 34.05 -10.1 36.15 M-14.55 38.4 L-14.4 40.85 -11.25 40.85 -9.3 40.85 -9.3 38.4 M-17.85 40.85 L-16.1 40.85 -14.4 40.85 -14.25 43.4 M-19.35 49.3 L-15.25 46.1 -17.1 43.9 M-14.05 49.15 L-14.15 49.35 -18.05 51.85 -16.7 53.95 M-12.0 43.5 L-11.85 43.4 M-12.0 43.5 L-15.25 46.1 -13.6 48.1 M-4.3 43.4 L-4.3 40.85 -9.3 40.85 -9.3 43.4 M0.75 43.4 L0.75 40.85 -4.3 40.85 -4.3 38.4 M-22.6 54.6 L-18.05 51.85 -19.5 49.65 M1.2 7.95 L1.3 8.1 M2.85 19.95 L0.3 16.4 -1.3 18.75 M3.75 25.15 L2.1 27.3 4.8 30.55 M0.45 30.9 L3.3 34.05 5.15 32.05 M4.9 30.95 L4.8 30.55 M0.25 29.85 L2.1 27.3 -0.6 24.0 M6.55 37.55 L3.3 34.05 1.5 36.1 M7.45 40.85 L9.25 40.85 M6.0 38.4 L5.8 40.85 7.45 40.85 M3.4 43.4 L6.75 46.1 8.5 43.95 M0.75 40.85 L0.75 38.4 M0.75 40.85 L2.65 40.85 M5.65 43.4 L5.8 40.85 2.65 40.85 M5.05 48.25 L6.75 46.1 10.75 49.35 M10.9 49.7 L9.55 51.85 14.0 54.65 M8.15 54.05 L9.55 51.85 5.5 49.2" fill="none" stroke="#999999" stroke-linecap="round" stroke-linejoin="round" stroke-width="1.0"/>
    <path d="M-4.9 -33.2 L-5.5 -17.6 -3.15 -17.6 -3.8 -33.2 -4.9 -33.2 M-23.65 47.2 L-22.6 46.15 Q-21.0 44.4 -19.5 41.8 L-19.35 41.5 -17.1 36.75 -16.95 36.3 -17.1 36.3 -17.85 34.05 -18.65 31.9 -15.35 31.9 -15.15 31.15 -13.8 26.3 -13.4 24.9 -12.35 20.25 -12.1 18.85 -11.5 15.8 -11.5 15.65 -10.6 10.4 -9.0 12.5 -6.8 9.6 -6.75 9.4 -8.35 7.3 -10.55 10.1 -9.85 5.4 -9.85 5.25 -9.8 5.0 -9.25 0.7 -9.25 0.65 -9.2 0.35 -8.75 -3.6 -8.7 -3.9 -8.35 -7.7 -8.25 -8.6 -8.25 -11.85 -8.25 -17.25 -0.4 -17.25 -0.4 -11.85 -0.4 -8.6 -0.3 -7.8 0.1 -3.8 -1.65 -6.05 -2.95 -4.3 -2.95 -4.15 -1.25 -1.9 0.15 -3.7 0.6 0.45 -1.25 -1.9 -2.7 0.0 -2.7 0.05 -0.85 2.5 0.65 0.65 1.2 5.1 -0.85 2.5 -2.35 4.5 -2.3 4.6 -0.3 7.3 1.25 5.35 1.9 10.15 1.95 10.4 2.85 15.65 2.9 15.8 3.45 18.85 3.75 20.25 4.8 25.0 4.9 25.3 5.15 26.3 6.55 31.15 6.75 31.9 10.0 31.9 9.25 34.05 8.5 36.3 8.35 36.3 8.5 36.75 Q9.55 39.4 10.75 41.55 L10.9 41.85 Q12.4 44.4 14.0 46.2 L15.0 47.2 M-0.4 -8.6 L-3.2 -8.6 -3.15 -8.05 -1.65 -6.05 -0.3 -7.8 M-8.25 -8.6 L-5.4 -8.6 -3.2 -8.6 M-5.4 -8.6 L-5.4 -8.15 -5.65 -4.3 -5.65 -4.25 Q-5.9 0.35 -6.3 4.55 L-6.0 4.15 M-5.65 -4.3 L-7.0 -6.05 -8.7 -3.9 M-8.75 -3.6 L-7.45 -1.9 -5.65 -4.25 M-2.7 0.0 L-2.95 -4.15 -3.05 -4.25 -2.95 -4.3 -3.15 -8.05 M-8.35 -7.7 L-7.0 -6.05 -5.4 -8.15 M-8.25 -11.85 L-0.4 -11.85 M-2.7 4.15 L-2.4 4.55 -2.35 4.5 -2.7 0.05 M-6.3 4.55 L-6.75 9.4 -6.7 9.5 -6.8 9.6 -7.35 14.65 -7.5 15.8 -1.15 15.8 -1.3 14.6 -1.85 9.65 -2.0 9.5 -1.85 9.4 -2.3 4.6 -2.4 4.55 M-9.25 0.7 L-7.85 2.5 -5.95 0.0 -7.45 -1.9 -9.2 0.35 M-9.85 5.4 L-8.35 7.3 -6.3 4.55 -7.85 2.5 -9.8 5.0 M1.9 10.15 L-0.3 7.3 -1.85 9.4 -1.85 9.65 0.3 12.5 1.95 10.4 M-12.35 20.25 L-10.8 22.15 -8.0 19.15 -7.95 18.85 -12.1 18.85 M-7.35 14.65 L-9.0 12.5 -11.5 15.65 M-8.0 19.15 L-8.9 24.4 -9.05 25.05 -9.05 25.2 -10.1 29.9 -10.6 31.9 -9.3 31.9 -4.3 31.9 0.75 31.9 2.0 31.9 1.5 29.9 Q0.9 27.7 0.45 25.25 L0.4 25.2 0.4 24.9 0.25 24.35 -0.6 19.2 -0.7 18.85 -7.95 18.85 -7.5 15.8 -11.5 15.8 M-0.7 18.85 L-1.15 15.8 2.9 15.8 M-8.9 24.4 L-10.8 22.15 -13.4 24.9 M-9.3 34.05 L-11.25 34.05 -11.95 36.3 -11.85 36.3 -9.3 36.3 -9.3 34.05 -9.3 31.9 M-9.3 36.3 L-4.3 36.3 -4.3 34.05 -9.3 34.05 M-4.3 31.9 L-4.3 34.05 0.75 34.05 0.75 31.9 M-13.8 26.3 L-11.95 28.1 -9.05 25.2 M-17.85 34.05 L-16.1 34.05 -15.35 31.9 -14.55 31.9 -10.6 31.9 -11.25 34.05 -14.4 34.05 -14.25 36.3 -11.95 36.3 -12.0 36.4 -11.85 36.3 M-14.4 34.05 L-16.1 34.05 -16.95 36.3 -14.25 36.3 M-14.55 31.9 L-14.4 34.05 M-10.1 29.9 L-11.95 28.1 -15.15 31.15 M9.5 47.2 L8.15 45.7 Q6.75 43.9 5.5 41.4 L5.05 40.55 4.6 39.5 Q-4.55 35.1 -13.2 39.5 L-13.6 40.45 -14.05 41.4 -14.15 41.55 Q-15.35 43.85 -16.7 45.6 L-18.15 47.2 M-13.6 40.45 L-15.25 38.7 -19.35 41.5 M-14.15 41.55 L-18.05 43.75 -16.7 45.6 M-22.6 46.15 L-18.05 43.75 -19.5 41.8 M-15.25 38.7 L-17.1 36.75 M-13.2 39.5 L-12.0 36.4 -15.25 38.7 M2.85 15.65 L0.3 12.5 -1.3 14.6 M3.75 20.25 L2.1 22.15 4.8 25.0 M0.25 24.35 L2.1 22.15 -0.6 19.2 M6.55 31.15 L3.3 28.1 1.5 29.9 M0.4 24.9 L0.45 25.25 3.3 28.1 5.15 26.3 M3.35 36.3 L3.4 36.3 5.65 36.3 5.8 34.05 2.65 34.05 3.35 36.3 4.6 39.5 M0.75 34.05 L2.65 34.05 2.0 31.9 6.0 31.9 6.75 31.9 7.45 34.05 9.25 34.05 M0.75 34.05 L0.75 36.3 3.35 36.3 M6.0 31.9 L5.8 34.05 7.45 34.05 8.35 36.3 5.65 36.3 M5.05 40.55 L6.75 38.7 3.4 36.3 M8.15 45.7 L9.55 43.75 5.5 41.4 M6.75 38.7 L8.5 36.75 M10.9 41.85 L9.55 43.75 14.0 46.2 M10.75 41.55 L6.75 38.7 M-0.7 18.85 L3.45 18.85 M-4.3 36.3 L0.75 36.3" fill="none" stroke="#333333" stroke-linecap="round" stroke-linejoin="round" stroke-width="5.0"/>
    <path d="M-4.9 -35.5 L-5.5 -17.8 -3.15 -17.8 -3.8 -35.5 -4.9 -35.5 M-2.7 6.9 L-2.4 7.35 -2.35 7.3 -2.7 2.2 -2.95 -2.5 -3.05 -2.65 -2.95 -2.75 -3.15 -6.95 -3.2 -7.6 -5.4 -7.6 -5.4 -7.05 -5.65 -2.7 -5.65 -2.65 Q-5.9 2.55 -6.3 7.35 L-6.0 6.9 M-10.3 8.55 L-9.95 8.1 -9.8 7.85 -9.25 2.95 -9.25 2.9 -9.35 2.8 -9.2 2.6 -8.75 -1.9 -8.8 -2.05 -8.7 -2.25 -8.35 -6.6 -8.25 -7.6 -8.25 -11.3 -8.25 -17.4 -0.4 -17.4 -0.4 -11.3 -0.4 -7.6 -0.3 -6.65 0.1 -2.1 0.15 -2.05 0.6 2.65 0.65 2.8 0.65 2.9 1.2 7.95 1.3 8.1 1.6 8.55 M-8.25 -7.6 L-5.4 -7.6 M-5.65 -2.7 L-7.0 -4.7 -8.7 -2.25 -8.75 -1.9 -7.45 0.0 -5.65 -2.65 M-2.95 -2.75 L-2.95 -2.5 -1.25 0.0 0.15 -2.05 0.1 -2.1 -1.65 -4.7 -2.95 -2.75 M-8.35 -6.6 L-7.0 -4.7 -5.4 -7.05 M-3.15 -6.95 L-1.65 -4.7 -0.3 -6.65 M-9.25 2.95 L-9.2 2.6 -7.45 0.0 -5.95 2.2 -7.85 5.0 -6.3 7.35 -6.75 12.85 -6.7 12.95 -6.8 13.05 -7.35 18.8 -7.5 20.1 -1.15 20.1 -1.3 18.75 -1.85 13.15 -2.0 12.95 -1.85 12.85 -2.3 7.4 -2.4 7.35 M-9.95 8.1 L-9.85 8.3 -9.8 7.85 -7.85 5.0 -9.25 2.95 M-2.7 2.2 L-1.25 0.0 0.6 2.65 0.65 2.9 -0.85 5.0 1.2 7.95 1.25 8.25 1.3 8.1 M-0.85 5.0 L-2.35 7.3 -2.3 7.4 -0.3 10.45 1.25 8.25 1.9 13.7 2.0 13.85 1.95 13.95 2.85 19.95 2.9 20.1 3.45 23.6 3.75 25.15 4.8 30.55 5.1 30.9 M-2.7 2.2 L-0.85 5.0 M-3.2 -7.6 L-0.4 -7.6 M-0.4 -11.3 L-8.25 -11.3 M1.9 13.7 L-0.3 10.45 -1.85 12.85 -1.85 13.15 0.3 16.4 1.95 13.95 1.9 13.7 M3.45 23.6 L-0.7 23.6 -0.6 24.0 2.1 27.3 3.75 25.15 M2.85 19.95 L0.3 16.4 -1.3 18.75 M4.8 30.55 L2.1 27.3 0.25 29.85 0.4 30.45 0.45 30.9 3.3 34.05 5.15 32.05 4.8 30.55 M0.4 30.45 L0.4 30.8 0.45 30.9 Q0.9 33.6 1.5 36.1 L3.3 34.05 6.55 37.55 5.15 32.05 M1.5 36.1 L2.0 38.4 6.0 38.4 6.75 38.4 6.55 37.55 M0.75 38.4 L0.75 40.85 2.65 40.85 2.0 38.4 0.75 38.4 -4.3 38.4 -4.3 40.85 0.75 40.85 0.75 43.4 3.35 43.4 2.65 40.85 5.8 40.85 6.0 38.4 M5.8 40.85 L7.45 40.85 6.75 38.4 10.0 38.4 9.25 40.85 8.5 43.4 8.35 43.4 8.5 43.95 Q9.55 46.9 10.75 49.35 L10.9 49.7 Q12.4 52.6 14.0 54.65 L15.0 55.75 M3.35 43.4 L3.4 43.4 5.65 43.4 5.8 40.85 M3.35 43.4 L4.6 47.05 5.05 48.25 6.75 46.1 3.4 43.4 M6.75 46.1 L8.5 43.95 M8.35 43.4 L5.65 43.4 M9.25 40.85 L7.45 40.85 8.35 43.4 M0.25 29.85 L-0.6 24.0 M-6.75 12.85 L-8.35 10.45 -10.55 13.65 -10.6 14.0 -9.0 16.4 -6.8 13.05 -6.75 12.85 M-10.55 13.65 L-10.7 13.85 -10.6 14.0 -11.5 19.95 -9.0 16.4 -7.35 18.8 M-13.8 30.9 L-13.4 30.45 -12.35 25.15 -12.1 23.6 -11.5 20.1 -11.5 19.95 M-12.35 25.15 L-10.8 27.3 -8.0 23.9 -7.95 23.6 -12.1 23.6 M2.9 20.1 L-1.15 20.1 -0.7 23.6 -7.95 23.6 -7.5 20.1 -11.5 20.1 M-17.85 40.85 L-16.1 40.85 -15.35 38.4 -18.65 38.4 -17.85 40.85 -17.1 43.4 -16.95 43.4 -16.1 40.85 -14.4 40.85 -14.55 38.4 -15.35 38.4 -15.15 37.55 -13.8 32.05 -13.4 30.45 -10.8 27.3 -8.9 29.9 -8.0 23.9 M-8.9 29.9 L-9.05 30.65 -9.05 30.8 -10.1 36.15 -10.6 38.4 -9.3 38.4 -4.3 38.4 M-10.1 36.15 L-11.95 34.05 -15.15 37.55 M-13.8 32.05 L-11.95 34.05 -9.05 30.8 M-14.4 40.85 L-11.25 40.85 -10.6 38.4 -14.55 38.4 M-11.85 43.4 L-9.3 43.4 -9.3 40.85 -11.25 40.85 -11.95 43.4 -11.85 43.4 -12.0 43.5 -13.2 47.05 Q-4.55 42.05 4.6 47.05 M-11.95 43.4 L-12.0 43.5 -15.25 46.1 -13.6 48.1 -13.2 47.05 M-23.65 55.75 L-22.6 54.6 Q-21.0 52.55 -19.5 49.65 L-19.35 49.3 Q-18.2 46.9 -17.1 43.9 L-16.95 43.4 -14.25 43.4 -14.4 40.85 M-14.25 43.4 L-11.95 43.4 M-19.35 49.3 L-15.25 46.1 -17.1 43.9 M-9.3 43.4 L-4.3 43.4 -4.3 40.85 -9.3 40.85 -9.3 38.4 M-13.6 48.1 L-14.05 49.15 -14.15 49.35 Q-15.35 52.0 -16.7 53.95 L-18.15 55.75 M-19.5 49.65 L-18.05 51.85 -14.15 49.35 M-22.6 54.6 L-18.05 51.85 -16.7 53.95 M9.5 55.75 L8.15 54.05 Q6.75 52.05 5.5 49.2 L5.05 48.25 M8.15 54.05 L9.55 51.85 5.5 49.2 M9.55 51.85 L10.9 49.7 M14.0 54.65 L9.55 51.85 M10.75 49.35 L6.75 46.1 M-4.3 43.4 L0.75 43.4 M-9.85 8.3 L-8.35 10.45 -6.3 7.35 M-10.55 13.65 L-9.85 8.3" fill="none" stroke="#333333" stroke-linecap="round" stroke-linejoin="round" stroke-width="5.0"/>
    <path d="M-4.9 -33.2 L-5.5 -17.6 -3.15 -17.6 -3.8 -33.2 -4.9 -33.2 M-2.95 -4.3 L-3.15 -8.05 -3.2 -8.6 -5.4 -8.6 -5.4 -8.15 -5.65 -4.3 M-5.65 -4.25 Q-5.9 0.35 -6.3 4.55 M-8.25 -11.85 L-8.25 -8.6 -5.4 -8.6 M-8.7 -3.9 L-8.35 -7.7 -8.25 -8.6 M-8.75 -3.6 L-8.7 -3.9 M-2.95 -4.15 L-2.95 -4.3 M-9.25 0.7 L-9.2 0.35 -8.75 -3.6 M-9.85 5.4 L-9.8 5.0 -9.25 0.7 M-2.7 0.05 L-2.7 0.0 -2.95 -4.15 M0.65 0.65 L0.6 0.45 0.15 -3.7 0.1 -3.8 -0.3 -7.8 -0.4 -8.6 -3.2 -8.6 M-2.3 4.6 L-2.35 4.5 -2.7 0.05 M-0.4 -11.85 L-0.4 -17.25 -8.25 -17.25 -8.25 -11.85 M-0.4 -11.85 L-0.4 -8.6 M1.2 5.1 L1.25 5.35 1.9 10.15 M1.95 10.4 L2.85 15.65 2.9 15.8 3.45 18.85 3.75 20.25 4.8 25.0 M1.2 5.1 L0.65 0.65 M1.95 10.4 L1.9 10.15 M-1.85 9.4 L-1.85 9.65 -1.3 14.6 -1.15 15.8 M5.15 26.3 L4.8 25.0 M0.25 24.35 L0.4 24.9 0.45 25.25 Q0.9 27.7 1.5 29.9 M5.15 26.3 L6.55 31.15 6.75 31.9 10.0 31.9 9.25 34.05 8.5 36.3 8.35 36.3 8.5 36.75 Q9.55 39.4 10.75 41.55 L10.9 41.85 Q12.4 44.4 14.0 46.2 L15.0 47.2 M-9.05 25.2 L-10.1 29.9 -10.6 31.9 -9.3 31.9 -4.3 31.9 0.75 31.9 2.0 31.9 1.5 29.9 M2.0 31.9 L6.0 31.9 6.75 31.9 7.45 34.05 8.35 36.3 5.65 36.3 3.4 36.3 M2.65 34.05 L3.35 36.3 3.4 36.3 M0.75 36.3 L3.35 36.3 4.6 39.5 5.05 40.55 M-4.3 36.3 L0.75 36.3 M2.0 31.9 L2.65 34.05 M0.25 24.35 L-0.6 19.2 -0.7 18.85 -1.15 15.8 M-7.95 18.85 L-8.0 19.15 -8.9 24.4 -9.05 25.05 M-10.55 10.1 L-10.6 10.4 -11.5 15.65 M-6.8 9.6 L-6.75 9.4 -6.3 4.55 M-7.35 14.65 L-6.8 9.6 M-13.4 24.9 L-12.35 20.25 -12.1 18.85 -11.5 15.8 -11.5 15.65 M-7.5 15.8 L-7.95 18.85 M-7.35 14.65 L-7.5 15.8 M-16.1 34.05 L-15.35 31.9 -18.65 31.9 -17.85 34.05 -17.1 36.3 -16.95 36.3 -16.1 34.05 M-14.55 31.9 L-15.35 31.9 -15.15 31.15 -13.8 26.3 -13.4 24.9 M-11.25 34.05 L-10.6 31.9 -14.55 31.9 M-11.85 36.3 L-11.95 36.3 -12.0 36.4 -13.2 39.5 Q-4.55 35.1 4.6 39.5 M-11.85 36.3 L-9.3 36.3 -4.3 36.3 M-11.25 34.05 L-11.95 36.3 -14.25 36.3 -16.95 36.3 -17.1 36.75 M-13.2 39.5 L-13.6 40.45 -14.05 41.4 M-14.15 41.55 Q-15.35 43.85 -16.7 45.6 L-18.15 47.2 M-19.35 41.5 L-19.5 41.8 M-23.65 47.2 L-22.6 46.15 Q-21.0 44.4 -19.5 41.8 M5.5 41.4 Q6.75 43.9 8.15 45.7 L9.5 47.2 M-19.35 41.5 L-17.1 36.75 M5.5 41.4 L5.05 40.55 M-10.55 10.1 L-9.85 5.4 M-1.85 9.4 L-2.3 4.6" fill="none" stroke="#666666" stroke-linecap="round" stroke-linejoin="round" stroke-width="2.0"/>
    <path d="M-5.65 -4.3 L-5.65 -4.25 M-6.3 4.55 L-6.0 4.15 M-5.4 -8.15 L-7.0 -6.05 -5.65 -4.3 M-8.7 -3.9 L-8.8 -3.75 -8.75 -3.6 -7.45 -1.9 -5.65 -4.25 M-8.7 -3.9 L-7.0 -6.05 -8.35 -7.7 M-2.95 -4.3 L-3.05 -4.25 -2.95 -4.15 -1.25 -1.9 0.15 -3.7 0.15 -3.75 0.1 -3.8 -1.65 -6.05 -0.3 -7.8 M-2.95 -4.3 L-1.65 -6.05 -3.15 -8.05 M-9.2 0.35 L-9.35 0.55 -9.25 0.65 -9.25 0.7 -7.85 2.5 -5.95 0.0 -7.45 -1.9 -9.2 0.35 M-9.8 5.0 L-9.95 5.25 -9.85 5.4 -8.35 7.3 -6.3 4.55 -7.85 2.5 -9.8 5.0 M-9.95 5.25 L-10.3 5.65 M-2.7 0.0 L-2.7 0.05 -0.85 2.5 0.65 0.65 0.65 0.55 0.6 0.45 -1.25 -1.9 -2.7 0.0 M-2.35 4.5 L-2.4 4.55 -2.3 4.6 -0.3 7.3 1.25 5.35 1.3 5.25 1.2 5.1 -0.85 2.5 -2.35 4.5 M-2.4 4.55 L-2.7 4.15 M-8.25 -11.85 L-0.4 -11.85 M1.9 10.15 L2.0 10.3 1.95 10.4 M4.8 25.0 L5.1 25.25 M1.3 5.25 L1.6 5.65 M1.9 10.15 L-0.3 7.3 -1.85 9.4 -2.0 9.5 -1.85 9.65 0.3 12.5 1.95 10.4 M-0.6 19.2 L2.1 22.15 3.75 20.25 M2.85 15.65 L0.3 12.5 -1.3 14.6 M-1.15 15.8 L2.9 15.8 M4.8 25.0 L2.1 22.15 0.25 24.35 M0.45 25.25 L3.3 28.1 5.15 26.3 M0.4 24.9 L0.4 25.2 0.45 25.25 M1.5 29.9 L3.3 28.1 6.55 31.15 M7.45 34.05 L9.25 34.05 M6.0 31.9 L5.8 34.05 7.45 34.05 M3.4 36.3 L6.75 38.7 8.5 36.75 M5.65 36.3 L5.8 34.05 2.65 34.05 0.75 34.05 0.75 36.3 M5.05 40.55 L6.75 38.7 10.75 41.55 M0.75 31.9 L0.75 34.05 -4.3 34.05 -4.3 36.3 M-0.7 18.85 L-7.95 18.85 -12.1 18.85 M-9.05 25.05 L-9.05 25.2 -11.95 28.1 -10.1 29.9 M-6.75 9.4 L-8.35 7.3 -10.55 10.1 -10.7 10.3 -10.6 10.4 -9.0 12.5 -6.8 9.6 -6.7 9.5 -6.75 9.4 M-11.5 15.65 L-9.0 12.5 -7.35 14.65 M-12.35 20.25 L-10.8 22.15 -8.0 19.15 M-1.15 15.8 L-7.5 15.8 -11.5 15.8 M-17.85 34.05 L-16.1 34.05 -14.4 34.05 -14.55 31.9 M-13.4 24.9 L-13.8 25.25 M-11.95 28.1 L-15.15 31.15 M-13.8 26.3 L-11.95 28.1 M-12.0 36.4 L-11.85 36.3 M-9.3 36.3 L-9.3 34.05 -11.25 34.05 M-17.1 36.75 L-15.25 38.7 -12.0 36.4 M-14.25 36.3 L-14.4 34.05 -11.25 34.05 M-14.05 41.4 L-14.15 41.55 M-13.6 40.45 L-15.25 38.7 -19.35 41.5 M-19.5 41.8 L-18.05 43.75 -14.15 41.55 M-4.3 34.05 L-9.3 34.05 -9.3 31.9 M-4.3 31.9 L-4.3 34.05 M-8.9 24.4 L-10.8 22.15 -13.4 24.9 M-22.6 46.15 L-18.05 43.75 -16.7 45.6 M8.15 45.7 L9.55 43.75 5.5 41.4 M14.0 46.2 L9.55 43.75 10.9 41.85 M-0.7 18.85 L3.45 18.85" fill="none" stroke="#666666" stroke-linecap="round" stroke-linejoin="round" stroke-width="1.0"/>
  </g>
</svg>
