<?xml version="1.0" encoding="UTF-8" standalone="no"?>
<svg xmlns:xlink="http://www.w3.org/1999/xlink" height="64.8px" width="50.1px" xmlns="http://www.w3.org/2000/svg">
  <g transform="matrix(1.0, 0.0, 0.0, 1.0, 24.45, 32.4)">
    <path d="M15.65 -11.7 Q13.85 8.2 10.05 22.4 L-13.0 20.95 Q-12.75 17.85 -13.8 4.4 -14.8 -8.25 -14.3 -10.7 -13.15 -16.3 -11.5 -18.3 -8.1 -22.4 0.75 -22.4 9.2 -22.4 13.3 -17.05 15.3 -14.35 15.65 -11.7" fill="#70381f" fill-rule="evenodd" stroke="none"/>
    <path d="M15.65 -11.7 Q13.85 8.2 10.05 22.4 L-13.0 20.95 Q-12.75 17.85 -13.8 4.4 -14.8 -8.25 -14.3 -10.7 -13.15 -16.3 -11.5 -18.3 -8.1 -22.4 0.75 -22.4 9.2 -22.4 13.3 -17.05 15.3 -14.35 15.65 -11.7 Z" fill="none" stroke="#000000" stroke-linecap="round" stroke-linejoin="round" stroke-width="20.0"/>
    <path d="M15.65 -11.7 Q13.85 8.2 10.05 22.4 L-13.0 20.95 Q-12.75 17.85 -13.8 4.4 -14.8 -8.25 -14.3 -10.7 -13.15 -16.3 -11.5 -18.3 -8.1 -22.4 0.75 -22.4 9.2 -22.4 13.3 -17.05 15.3 -14.35 15.65 -11.7" fill="#70381f" fill-rule="evenodd" stroke="none"/>
    <path d="M10.7 22.4 L-13.0 20.9 Q-12.75 17.85 -13.7 5.35 L-3.55 16.1 2.4 6.85 10.8 15.6 12.55 11.45 10.1 22.35 10.7 22.4" fill="#bf7926" fill-rule="evenodd" stroke="none"/>
    <path d="M13.3 -17.05 Q15.3 -14.35 15.65 -11.7 14.5 0.9 12.6 11.2 -0.6 10.2 -13.5 8.2 L-13.8 4.4 Q-14.8 -8.25 -14.3 -10.7 -13.15 -16.3 -11.5 -18.3 -8.1 -22.4 0.75 -22.4 9.2 -22.4 13.3 -17.05" fill="#40444f" fill-rule="evenodd" stroke="none"/>
  </g>
</svg>
