<?xml version="1.0" encoding="UTF-8" standalone="no"?>
<svg xmlns:xlink="http://www.w3.org/1999/xlink" height="58.7px" width="532.35px" xmlns="http://www.w3.org/2000/svg">
  <g transform="matrix(1.0, 0.0, 0.0, 1.0, -128.9, 58.35)">
    <path d="M564.2 -28.95 L564.25 -28.95 564.2 -28.85 564.2 -28.95 M564.85 -28.3 L564.75 -28.45 564.95 -28.25 564.85 -28.3 M461.0 -28.1 L460.95 -28.1 460.85 -28.25 461.0 -28.1 M460.35 -28.75 L460.3 -28.65 460.3 -28.75 460.35 -28.75 M461.75 -56.85 Q463.3 -54.55 468.75 -52.75 469.2 -52.75 469.2 -53.5 L468.9 -55.7 489.65 -53.55 490.25 -52.8 491.2 -51.85 Q491.6 -51.9 491.7 -52.4 L491.7 -53.0 491.7 -53.4 Q502.65 -52.8 513.55 -53.1 L513.55 -52.85 514.35 -52.75 517.8 -53.05 Q517.65 -52.85 517.65 -52.3 L518.35 -52.3 Q519.35 -52.3 523.35 -53.35 L524.5 -53.65 Q538.95 -54.7 553.3 -57.45 L553.05 -56.45 553.0 -56.5 Q550.0 -50.2 550.0 -49.75 L550.25 -49.0 550.55 -48.3 550.3 -44.75 550.2 -43.85 Q548.45 -33.3 548.95 -23.3 L549.05 -21.45 549.4 -17.35 Q548.9 -16.9 549.0 -15.85 549.0 -15.4 548.45 -14.9 L547.95 -14.4 547.8 -14.1 547.85 -14.05 548.15 -13.8 548.95 -13.25 550.1 -12.5 Q551.2 -6.15 553.3 0.0 541.25 -2.35 529.15 -3.5 L528.4 -5.15 528.35 -5.25 528.05 -6.7 Q527.35 -6.45 527.3 -5.55 L526.7 -4.9 526.1 -3.75 Q505.75 -5.45 485.05 -3.8 L485.05 -4.2 Q485.05 -6.6 484.2 -5.4 483.35 -4.2 483.3 -3.65 470.05 -2.5 456.6 0.0 458.1 -5.75 459.0 -11.45 L459.7 -11.6 Q460.1 -11.75 460.1 -12.05 L459.6 -13.15 459.3 -13.5 Q460.15 -19.75 460.3 -26.0 462.35 -27.2 462.35 -27.6 L462.1 -28.2 461.3 -30.3 Q460.55 -32.05 460.45 -32.8 L460.5 -35.35 Q460.5 -37.0 459.95 -37.9 L459.9 -37.65 Q459.0 -47.75 456.25 -57.85 L461.75 -56.85 M346.35 -28.6 L346.25 -28.75 346.45 -28.55 346.35 -28.6 M345.65 -29.25 L345.7 -29.25 345.65 -29.15 345.65 -29.25 M380.6 -53.9 Q392.8 -53.3 404.9 -53.6 L404.9 -53.35 405.85 -53.25 409.65 -53.55 Q409.5 -53.35 409.5 -52.8 L410.3 -52.8 415.85 -53.85 417.15 -54.15 Q433.25 -55.2 449.2 -57.95 L448.95 -56.95 448.9 -57.0 Q445.5 -50.7 445.5 -50.25 445.5 -49.95 445.85 -49.5 L446.15 -48.8 445.9 -45.25 445.8 -44.35 Q443.3 -30.65 444.9 -17.85 444.35 -17.4 444.45 -16.35 444.45 -15.9 443.8 -15.4 L443.1 -14.6 444.4 -13.75 Q445.25 -13.2 445.7 -13.0 446.9 -6.65 449.2 -0.5 435.8 -2.85 422.3 -4.0 L421.5 -5.65 421.45 -5.75 421.1 -7.2 Q420.35 -6.95 420.3 -6.05 L419.6 -5.4 418.95 -4.25 Q396.25 -5.95 373.25 -4.3 L373.25 -4.7 Q373.25 -7.1 372.25 -5.9 371.3 -4.7 371.25 -4.15 356.45 -3.0 341.55 -0.5 343.2 -6.25 344.2 -11.95 L344.95 -12.1 Q345.45 -12.25 345.45 -12.55 345.45 -12.95 344.85 -13.65 L344.5 -14.0 Q345.5 -20.25 345.65 -26.5 347.95 -27.7 347.95 -28.1 L347.6 -28.7 346.75 -30.8 Q345.9 -32.55 345.8 -33.3 L345.85 -35.85 Q345.85 -37.5 345.25 -38.4 L345.2 -38.15 Q344.2 -48.25 341.1 -58.35 L347.25 -57.35 Q348.95 -55.05 355.05 -53.25 355.55 -53.25 355.55 -54.0 355.55 -55.4 355.2 -56.2 L378.35 -54.05 379.0 -53.3 380.05 -52.35 Q380.5 -52.4 380.6 -52.9 L380.6 -53.5 380.6 -53.9 M241.85 -27.9 L242.0 -27.75 241.95 -27.75 241.85 -27.9 M241.3 -28.4 L241.35 -28.4 241.3 -28.3 241.3 -28.4 M237.25 -57.5 L242.75 -56.5 Q244.3 -54.2 249.75 -52.4 250.2 -52.4 250.2 -53.15 L249.9 -55.35 270.65 -53.2 271.25 -52.45 272.2 -51.5 Q272.6 -51.55 272.7 -52.05 L272.7 -52.65 272.7 -53.05 Q283.65 -52.45 294.55 -52.75 L294.55 -52.5 295.35 -52.4 298.8 -52.7 Q298.65 -52.5 298.65 -51.95 L299.35 -51.95 Q300.35 -51.95 304.35 -53.0 L305.5 -53.3 Q319.95 -54.35 334.3 -57.1 L334.05 -56.1 334.0 -56.15 Q331.0 -49.85 331.0 -49.4 L331.25 -48.65 331.55 -47.95 331.3 -44.4 331.2 -43.5 Q328.95 -29.8 330.4 -17.0 329.9 -16.55 330.0 -15.5 330.0 -15.05 329.45 -14.55 L328.8 -13.75 329.95 -12.9 Q330.75 -12.35 331.1 -12.15 332.2 -5.8 334.3 0.35 322.25 -2.0 310.15 -3.15 L309.4 -4.8 309.35 -4.9 309.05 -6.35 Q308.35 -6.1 308.3 -5.2 L307.7 -4.55 307.1 -3.4 Q286.75 -5.1 266.05 -3.45 L266.05 -3.85 Q266.05 -6.25 265.2 -5.05 264.35 -3.85 264.3 -3.3 251.05 -2.15 237.6 0.35 239.1 -5.4 240.0 -11.1 L240.7 -11.25 Q241.1 -11.4 241.1 -11.7 L240.6 -12.8 240.3 -13.15 Q241.15 -19.4 241.3 -25.65 243.35 -26.85 243.35 -27.25 L243.1 -27.85 242.3 -29.95 Q241.55 -31.7 241.45 -32.45 L241.5 -35.0 Q241.5 -36.65 240.95 -37.55 L240.9 -37.3 Q240.0 -47.4 237.25 -57.5 M134.65 -57.35 Q136.25 -55.05 141.95 -53.25 142.45 -53.25 142.45 -54.0 142.45 -55.4 142.1 -56.2 152.95 -54.7 163.8 -54.05 L164.4 -53.3 165.4 -52.35 Q165.8 -52.4 165.9 -52.9 L165.9 -53.5 165.9 -53.9 Q177.35 -53.3 188.7 -53.6 L188.7 -53.35 189.55 -53.25 193.15 -53.55 Q193.0 -53.35 193.0 -52.8 L193.75 -52.8 198.95 -53.85 200.15 -54.15 Q215.25 -55.2 230.2 -57.95 L229.95 -56.95 229.9 -57.0 Q226.75 -50.7 226.75 -50.25 226.75 -49.95 227.05 -49.5 L227.35 -48.8 227.1 -45.25 227.0 -44.35 Q224.65 -30.65 226.15 -17.85 225.65 -17.4 225.75 -16.35 225.75 -15.9 225.15 -15.4 L224.5 -14.6 225.7 -13.75 226.9 -13.0 Q228.05 -6.65 230.2 -0.5 217.65 -2.85 205.0 -4.0 L204.25 -5.65 204.2 -5.75 203.85 -7.2 Q203.15 -6.95 203.1 -6.05 L202.45 -5.4 201.85 -4.25 Q180.6 -5.95 159.0 -4.3 L159.0 -4.7 Q159.0 -7.1 158.1 -5.9 157.2 -4.7 157.15 -4.15 143.3 -3.0 129.3 -0.5 130.85 -6.25 131.8 -11.95 L132.5 -12.1 132.95 -12.55 132.4 -13.65 132.1 -14.0 132.45 -16.75 132.6 -18.0 132.65 -18.2 132.65 -18.55 133.15 -26.5 Q135.3 -27.7 135.3 -28.1 L135.0 -28.7 134.2 -30.8 Q133.4 -32.55 133.3 -33.3 L133.35 -34.95 133.35 -35.6 133.35 -35.85 133.35 -36.15 Q133.3 -37.6 132.8 -38.4 L132.75 -38.15 Q131.8 -48.25 128.9 -58.35 L134.65 -57.35 M661.25 -57.65 L661.0 -56.65 660.95 -56.7 Q657.8 -50.4 657.8 -49.95 657.8 -49.65 658.1 -49.2 L658.4 -48.5 658.15 -44.95 658.05 -44.05 Q655.7 -30.35 657.2 -17.55 656.7 -17.1 656.8 -16.05 656.8 -15.6 656.2 -15.1 L655.55 -14.3 656.75 -13.45 657.95 -12.7 Q659.1 -6.35 661.25 -0.2 648.7 -2.55 636.05 -3.7 L635.3 -5.35 635.25 -5.45 634.9 -6.9 Q634.2 -6.65 634.15 -5.75 L633.5 -5.1 632.9 -3.95 Q611.65 -5.65 590.05 -4.0 L590.05 -4.4 Q590.05 -6.8 589.15 -5.6 588.25 -4.4 588.2 -3.85 574.35 -2.7 560.35 -0.2 561.9 -5.95 562.85 -11.65 L563.55 -11.8 564.0 -12.25 563.45 -13.35 563.15 -13.7 Q564.05 -19.95 564.2 -26.2 566.35 -27.4 566.35 -27.8 L566.05 -28.4 565.25 -30.5 Q564.45 -32.25 564.35 -33.0 L564.4 -35.55 Q564.4 -37.2 563.85 -38.1 L563.8 -37.85 Q562.85 -47.95 559.95 -58.05 L565.7 -57.05 Q567.3 -54.75 573.0 -52.95 573.5 -52.95 573.5 -53.7 573.5 -55.1 573.15 -55.9 L594.85 -53.75 595.45 -53.0 596.45 -52.05 Q596.85 -52.1 596.95 -52.6 L596.95 -53.2 596.95 -53.6 Q608.4 -53.0 619.75 -53.3 L619.75 -53.05 620.6 -52.95 624.2 -53.25 Q624.05 -53.05 624.05 -52.5 L624.8 -52.5 Q625.85 -52.5 630.0 -53.55 L631.2 -53.85 Q646.3 -54.9 661.25 -57.65" fill="#000000" fill-opacity="0.4" fill-rule="evenodd" stroke="none"/>
  </g>
</svg>
