<?xml version="1.0" encoding="UTF-8" standalone="no"?>
<svg xmlns:xlink="http://www.w3.org/1999/xlink" height="41.35px" width="31.0px" xmlns="http://www.w3.org/2000/svg">
  <g transform="matrix(1.0, 0.0, 0.0, 1.0, 13.75, 22.85)">
    <path d="M11.55 -2.2 L11.3 -2.3 -7.95 -16.7 -7.9 12.1 -6.55 12.65 -6.5 12.65 11.55 -2.2 M17.2 -1.4 L17.05 -0.1 16.3 1.05 -3.95 17.8 Q-4.6 18.35 -5.45 18.45 L-7.0 18.25 -8.4 17.8 -8.9 17.6 -11.75 16.6 -13.15 15.55 Q-13.65 14.9 -13.65 14.0 L-13.75 -18.6 -13.4 -19.85 -12.35 -20.85 -9.35 -22.55 -7.8 -22.85 Q-6.9 -22.8 -6.25 -22.25 L15.7 -5.85 Q16.55 -5.25 16.8 -4.2 L17.2 -1.4" fill="#35220d" fill-rule="evenodd" stroke="none"/>
    <path d="M11.15 -3.2 L12.6 -4.45 12.4 -4.95 14.0 -3.8 14.4 -1.0 14.15 -0.8 -5.85 15.75 -7.65 15.2 -7.95 15.05 -10.75 14.0 -10.75 11.2 Q-10.0 11.4 -9.45 11.75 L-7.95 12.25 -7.65 12.35 11.15 -3.2" fill="#895721" fill-rule="evenodd" stroke="none"/>
    <path d="M12.4 -4.95 L12.6 -4.45 11.15 -3.2 -5.25 -15.3 -8.05 -13.75 -7.95 12.25 -9.45 11.75 Q-10.0 11.4 -10.75 11.2 L-10.85 -18.6 -7.95 -20.15 12.4 -4.95" fill="#603e17" fill-rule="evenodd" stroke="none"/>
    <path d="M-7.95 12.25 L-8.05 -13.75 -5.25 -15.3 11.15 -3.2 -7.65 12.35 -7.95 12.25" fill="#6d461b" fill-rule="evenodd" stroke="none"/>
    <path d="M1.75 -7.25 L4.6 -4.9 Q7.7 -2.65 3.55 1.4 -0.4 5.15 -2.55 5.15 -3.1 5.15 -3.45 4.25 L-4.1 0.3 -4.1 -5.75 -3.45 -6.5 -2.55 -6.6 Q-1.3 -6.6 -0.1 -5.6 1.75 -4.25 2.05 -1.6 L2.05 -0.4 1.1 0.8 0.2 1.0 Q-2.5 1.0 -2.5 -1.8 -2.5 -3.0 -1.85 -3.2 L-1.4 -3.2 -0.75 -3.15 -0.1 -2.5 -0.15 -1.5 -0.95 -1.4 -1.05 -1.5 -1.05 -1.75 -0.4 -1.65 -0.4 -2.5 -1.3 -3.0 Q-2.0 -3.0 -2.15 -2.55 -2.35 -0.1 -0.65 0.6 1.3 0.6 1.65 -0.4 L1.75 -1.6 Q1.75 -4.05 -0.4 -5.45 -1.4 -6.1 -2.55 -6.25 -3.35 -6.25 -3.75 -5.75 L-3.75 0.4 -2.85 3.95 Q-2.8 4.85 -2.55 4.85 -1.3 4.85 1.9 2.2 5.05 -0.4 5.45 -2.05 L5.45 -3.15 Q4.45 -4.85 1.75 -7.25 M-5.6 -11.9 Q-3.55 -11.9 -0.6 -9.3 L0.25 -8.6 Q-3.55 -11.6 -5.25 -11.6 -5.85 -11.6 -6.1 -11.2 L-6.1 4.75 -6.0 4.85 Q-6.15 6.5 -6.25 6.55 L-6.5 4.75 -6.5 -11.35 Q-5.85 -11.9 -5.6 -11.9" fill="#563715" fill-rule="evenodd" stroke="none"/>
    <path d="M15.7 -5.85 Q16.55 -5.25 16.8 -4.2 L17.2 -1.4 17.05 -0.1 16.3 1.05 -3.95 17.8 Q-4.6 18.35 -5.45 18.45 L-7.0 18.25 -8.4 17.8 -8.9 17.6 -11.75 16.6 -13.15 15.55 Q-13.65 14.9 -13.65 14.0 L-13.75 -18.6 -13.4 -19.85 -12.35 -20.85 -9.35 -22.55 -7.8 -22.85 Q-6.9 -22.8 -6.25 -22.25 L15.7 -5.85" fill="#c5ad5a" fill-opacity="0.7019608" fill-rule="evenodd" stroke="none"/>
  </g>
</svg>
