<?xml version="1.0" encoding="UTF-8" standalone="no"?>
<svg xmlns:xlink="http://www.w3.org/1999/xlink" height="61.35px" width="45.75px" xmlns="http://www.w3.org/2000/svg">
  <g transform="matrix(1.0, 0.0, 0.0, 1.0, -1.6, 24.2)">
    <path d="M17.65 22.8 L11.6 30.2 5.85 37.15 1.9 35.9 3.55 32.65 1.9 29.1 5.6 24.7 1.6 21.0 5.5 12.9 17.2 -12.6 19.4 -8.4 17.8 -4.8 18.65 -2.8 19.85 7.4 15.5 14.25 17.65 22.8" fill="#85c7dc" fill-rule="evenodd" stroke="none"/>
    <path d="M18.65 -2.8 L19.6 -0.6 22.45 3.4 19.85 7.4 18.65 -2.8" fill="url(#gradient0)" fill-rule="evenodd" stroke="none"/>
    <path d="M22.45 3.4 L22.6 3.6 24.8 14.0 17.65 22.8 15.5 14.25 19.85 7.4 22.45 3.4" fill="url(#gradient1)" fill-rule="evenodd" stroke="none"/>
    <path d="M17.3 -20.1 L18.05 -23.7 24.35 8.55 19.75 10.75 18.85 -9.85 16.8 -7.0 17.3 -20.1" fill="#e4f3f8" fill-rule="evenodd" stroke="none"/>
    <path d="M17.3 -20.1 L16.8 -7.0 18.85 -9.85 19.75 10.75 15.15 13.0 11.3 6.2 17.3 -20.1" fill="#a4d3e4" fill-rule="evenodd" stroke="none"/>
    <path d="M19.75 10.75 L24.35 8.55 18.05 -23.7 17.3 -20.1 M19.75 10.75 L15.15 13.0 11.3 6.2 17.3 -20.1" fill="none" stroke="#2f87a4" stroke-linecap="round" stroke-linejoin="round" stroke-width="1.0"/>
    <path d="M34.4 -4.5 Q34.2 -5.75 34.9 -6.7 35.65 -7.7 36.75 -7.95 37.9 -8.1 38.8 -7.45 L39.25 -6.9 40.75 -6.05 Q42.1 -5.0 43.45 -3.15 44.3 -1.85 44.8 0.2 L45.05 1.7 Q46.05 2.05 46.3 2.9 46.5 3.8 45.65 4.65 44.85 5.55 43.4 5.9 42.0 6.3 40.8 5.9 39.65 5.55 39.45 4.65 39.2 3.75 40.05 2.9 L40.15 2.8 40.05 2.0 Q39.75 0.3 38.95 -0.95 L37.85 -2.2 37.4 -2.1 Q36.25 -1.85 35.35 -2.6 34.45 -3.3 34.4 -4.5" fill="#666666" fill-rule="evenodd" stroke="none"/>
    <path d="M34.4 -4.5 Q34.45 -3.3 35.35 -2.6 36.25 -1.85 37.4 -2.1 L37.85 -2.2 38.95 -0.95 Q39.75 0.3 40.05 2.0 L40.15 2.8 40.05 2.9 Q39.2 3.75 39.45 4.65 39.65 5.55 40.8 5.9 42.0 6.3 43.4 5.9 44.85 5.55 45.65 4.65 46.5 3.8 46.3 2.9 46.05 2.05 45.05 1.7 L44.8 0.2 Q44.3 -1.85 43.45 -3.15 42.1 -5.0 40.75 -6.05 L39.25 -6.9 38.8 -7.45 Q37.9 -8.1 36.75 -7.95 35.65 -7.7 34.9 -6.7 34.2 -5.75 34.4 -4.5 Z" fill="none" stroke="#333333" stroke-linecap="round" stroke-linejoin="round" stroke-width="2.0"/>
    <path d="M42.3 1.65 Q43.75 1.3 44.9 1.65 46.05 2.0 46.3 2.9 46.5 3.8 45.65 4.65 44.85 5.55 43.4 5.9 42.0 6.3 40.8 5.9 39.65 5.55 39.45 4.65 39.2 3.75 40.05 2.9 40.9 2.05 42.3 1.65 M34.4 -4.5 Q34.2 -5.75 34.9 -6.7 35.65 -7.7 36.75 -7.95 37.9 -8.1 38.8 -7.45 39.7 -6.7 39.85 -5.45 39.95 -4.3 39.25 -3.3 38.55 -2.25 37.4 -2.1 36.25 -1.85 35.35 -2.6 34.45 -3.3 34.4 -4.5" fill="#666666" fill-rule="evenodd" stroke="none"/>
    <path d="M35.6 -4.8 Q35.65 -5.7 36.2 -6.35 36.8 -7.0 37.6 -7.15 L39.2 -6.95 40.75 -6.05 Q42.1 -5.0 43.45 -3.15 44.3 -1.85 44.8 0.2 L45.15 2.35 Q45.25 3.05 44.9 3.55 44.45 4.5 42.95 4.7 L40.65 4.45 Q40.25 4.15 40.2 3.65 L40.05 2.0 Q39.75 0.3 38.95 -0.95 38.2 -2.1 37.3 -2.55 L36.15 -3.1 Q35.5 -3.85 35.6 -4.8" fill="#b2b2b2" fill-rule="evenodd" stroke="none"/>
    <path d="M39.75 -6.65 Q37.3 -5.8 36.2 -3.05 L36.15 -3.1 Q35.5 -3.85 35.6 -4.8 35.65 -5.7 36.2 -6.35 36.8 -7.0 37.6 -7.15 L39.2 -6.95 39.75 -6.65 M38.35 -1.75 Q40.7 -3.2 43.0 -3.7 L43.45 -3.15 44.35 -1.4 39.45 -0.05 38.95 -0.95 38.35 -1.75 M37.3 -2.55 L36.65 -2.8 Q37.85 -5.55 40.4 -6.3 L40.75 -6.05 42.6 -4.2 Q40.3 -3.6 37.85 -2.15 L37.3 -2.55 M42.95 4.7 L40.65 4.45 Q40.25 4.15 40.2 3.65 L40.15 3.1 Q42.75 2.9 45.05 1.8 L45.15 2.35 Q45.25 3.05 44.9 3.55 44.45 4.5 42.95 4.7 M44.95 1.25 Q42.7 2.35 40.05 2.5 L40.05 2.0 39.65 0.5 44.45 -0.9 44.8 0.2 44.95 1.25" fill="#cccccc" fill-rule="evenodd" stroke="none"/>
  </g>
  <defs>
    <linearGradient gradientTransform="matrix(0.0, 0.0, 0.0, 0.0, 0.0, 0.0)" gradientUnits="userSpaceOnUse" id="gradient0" spreadMethod="pad" x1="-819.2" x2="819.2">
      <stop offset="0.0" stop-color="#eef1f7"/>
      <stop offset="1.0" stop-color="#95cee1"/>
    </linearGradient>
    <linearGradient gradientTransform="matrix(-0.0084, 0.0105, -0.0092, -0.0074, 20.15, 13.3)" gradientUnits="userSpaceOnUse" id="gradient1" spreadMethod="pad" x1="-819.2" x2="819.2">
      <stop offset="0.0" stop-color="#eef1f7"/>
      <stop offset="1.0" stop-color="#95cee1"/>
    </linearGradient>
  </defs>
</svg>
