<?xml version="1.0" encoding="UTF-8" standalone="no"?>
<svg xmlns:xlink="http://www.w3.org/1999/xlink" height="14.1px" width="14.0px" xmlns="http://www.w3.org/2000/svg">
  <g transform="matrix(1.0, 0.0, 0.0, 1.0, 0.0, 0.0)">
    <path d="M3.25 4.6 L3.25 4.55 3.25 4.6 M7.45 6.55 L6.95 6.35 6.5 6.55 6.45 6.55 6.25 7.05 6.5 7.55 6.95 7.8 7.45 7.55 7.7 7.05 7.45 6.55 M8.05 5.95 L8.05 6.0 Q8.5 6.4 8.5 7.05 8.5 7.7 8.05 8.15 7.6 8.6 6.95 8.6 6.35 8.6 5.9 8.15 5.45 7.7 5.45 7.05 5.45 6.4 5.9 6.0 L5.9 5.95 Q6.35 5.5 6.95 5.5 7.6 5.5 8.05 5.95 M7.4 2.1 L6.95 1.55 6.9 2.8 6.85 2.95 6.75 3.15 6.5 3.25 5.15 3.7 5.0 3.75 4.75 3.7 3.8 3.35 3.1 3.25 3.95 4.15 4.05 4.3 4.05 4.5 3.95 4.7 3.3 5.95 3.2 6.15 3.0 6.25 Q2.55 6.4 2.1 6.7 1.8 6.85 1.55 7.1 L2.8 7.15 2.85 7.15 3.05 7.3 3.2 7.55 Q3.25 8.3 3.6 8.9 L3.65 9.1 3.6 9.3 Q3.35 9.75 3.25 10.3 L3.15 11.0 4.05 10.15 4.2 10.05 4.45 10.05 4.65 10.1 5.9 10.75 6.05 10.85 6.15 11.05 6.6 12.0 7.05 12.6 Q6.95 11.8 7.1 11.35 L7.1 11.3 7.15 11.15 7.3 10.95 7.5 10.85 8.8 10.45 9.0 10.4 9.2 10.45 10.2 10.8 10.85 10.9 10.05 10.0 9.95 9.85 9.95 9.65 10.0 9.4 10.65 8.2 10.75 8.0 10.95 7.9 11.9 7.45 12.45 7.0 11.25 7.0 11.25 6.95 11.05 6.95 10.85 6.8 10.8 6.6 10.35 5.25 10.3 5.05 10.35 4.85 10.75 3.85 10.85 3.15 9.95 3.95 9.75 4.05 9.55 4.1 9.3 4.0 8.1 3.4 7.95 3.3 7.85 3.1 7.4 2.1 M11.5 1.6 L11.6 1.8 Q11.8 2.95 11.55 4.0 L11.2 5.05 11.55 6.2 13.45 5.95 13.7 6.0 13.9 6.15 14.0 6.35 13.9 6.6 12.35 8.15 11.4 8.65 10.85 9.7 Q11.25 10.25 12.35 10.85 L12.5 11.05 12.55 11.3 12.4 11.5 12.2 11.65 10.0 11.6 9.0 11.3 7.9 11.65 Q7.75 12.35 8.1 13.6 L8.1 13.85 7.95 14.05 7.7 14.1 7.45 14.05 Q6.5 13.35 5.9 12.45 L5.4 11.5 4.4 10.95 Q3.8 11.35 3.15 12.45 L3.0 12.65 2.75 12.65 2.5 12.55 2.4 12.3 Q2.2 11.15 2.4 10.15 L2.75 9.1 2.4 7.95 0.5 8.15 0.25 8.15 0.05 8.0 0.0 7.75 0.05 7.5 1.65 6.0 2.55 5.5 3.15 4.4 Q2.7 3.85 1.65 3.25 L1.5 3.1 1.45 2.85 1.55 2.6 1.8 2.5 Q2.95 2.3 4.0 2.5 L4.95 2.85 6.1 2.45 Q6.25 1.75 5.9 0.55 L5.9 0.3 6.05 0.1 6.3 0.0 6.55 0.1 8.1 1.65 8.05 1.65 8.6 2.65 9.6 3.2 10.8 1.65 11.0 1.5 11.25 1.45 11.5 1.6" fill="#2e2d2d" fill-rule="evenodd" stroke="none"/>
    <path d="M6.4 0.35 L7.85 1.8 Q8.5 2.8 8.5 3.95 L5.7 3.95 Q6.45 3.25 6.6 2.6 6.8 1.85 6.4 0.35" fill="#9f9f9f" fill-rule="evenodd" stroke="none"/>
    <path d="M13.65 6.45 L12.2 7.9 Q11.2 8.55 10.05 8.55 L10.05 5.75 Q10.75 6.5 11.4 6.65 L13.65 6.45" fill="#9f9f9f" fill-rule="evenodd" stroke="none"/>
    <path d="M7.6 13.7 Q6.7 13.05 6.15 12.25 5.5 11.25 5.5 10.1 L8.3 10.1 Q7.55 10.8 7.4 11.45 7.2 12.2 7.6 13.7" fill="#9f9f9f" fill-rule="evenodd" stroke="none"/>
    <path d="M0.35 7.7 Q1.0 6.8 1.8 6.25 2.8 5.6 3.95 5.6 L3.95 8.4 Q3.25 7.65 2.6 7.5 L0.35 7.7" fill="#9f9f9f" fill-rule="evenodd" stroke="none"/>
    <path d="M2.75 12.2 Q2.55 11.1 2.75 10.1 3.0 8.95 3.8 8.15 L5.8 10.15 4.2 10.45 Q3.5 10.85 2.75 12.2" fill="#9f9f9f" fill-rule="evenodd" stroke="none"/>
    <path d="M1.9 3.0 Q3.0 2.8 4.0 3.0 5.15 3.25 5.95 4.05 L3.95 6.05 Q4.0 5.0 3.65 4.45 3.25 3.75 1.9 3.0" fill="#9f9f9f" fill-rule="evenodd" stroke="none"/>
    <path d="M11.2 1.9 Q11.4 3.0 11.2 4.0 10.95 5.15 10.15 5.95 L8.15 3.95 9.75 3.65 Q10.45 3.25 11.2 1.9" fill="#9f9f9f" fill-rule="evenodd" stroke="none"/>
    <path d="M12.15 11.3 Q11.05 11.5 10.05 11.3 8.9 11.05 8.1 10.25 L10.1 8.25 Q10.05 9.3 10.4 9.85 10.8 10.55 12.15 11.3" fill="#9f9f9f" fill-rule="evenodd" stroke="none"/>
    <path d="M6.95 5.95 Q6.45 5.95 6.15 6.3 5.8 6.65 5.8 7.1 5.8 7.55 6.15 7.9 6.45 8.25 6.95 8.25 L7.75 7.9 8.05 7.1 7.75 6.3 Q7.4 5.95 6.95 5.95 M6.95 2.85 Q8.7 2.85 9.95 4.1 11.2 5.35 11.2 7.1 11.2 8.85 9.95 10.1 8.7 11.35 6.95 11.35 5.2 11.35 3.95 10.1 2.7 8.85 2.7 7.1 2.7 5.35 3.95 4.1 5.2 2.85 6.95 2.85" fill="#727272" fill-rule="evenodd" stroke="none"/>
    <path d="M6.85 3.95 Q8.2 3.95 9.15 4.85 10.1 5.8 10.1 7.15 10.1 8.5 9.15 9.45 8.2 10.4 6.85 10.4 5.5 10.4 4.55 9.45 3.65 8.5 3.65 7.15 3.65 5.8 4.55 4.85 5.5 3.95 6.85 3.95 M7.65 6.35 Q7.3 6.05 6.85 6.05 6.4 6.05 6.05 6.35 5.75 6.7 5.75 7.15 5.75 7.65 6.05 7.95 6.4 8.3 6.85 8.3 7.3 8.3 7.65 7.95 8.0 7.65 8.0 7.15 8.0 6.7 7.65 6.35" fill="#9f9f9f" fill-rule="evenodd" stroke="none"/>
    <path d="M6.95 5.75 L6.9 5.8 4.95 3.15 Q5.35 2.9 5.8 2.8 L10.55 9.2 9.95 9.9 9.95 9.95 8.0 7.3 8.1 6.9 Q8.1 6.45 7.75 6.1 7.45 5.75 6.95 5.75 M4.35 3.55 L6.25 6.05 6.15 6.1 Q5.85 6.45 5.85 6.9 5.85 7.35 6.15 7.7 6.5 8.05 6.95 8.05 L7.55 7.85 9.45 10.35 8.1 11.0 3.4 4.6 3.95 3.9 4.35 3.55" fill="#ffffff" fill-opacity="0.7058824" fill-rule="evenodd" stroke="none"/>
    <path d="M6.05 6.15 Q6.45 5.8 6.95 5.8 7.5 5.8 7.85 6.15 8.25 6.55 8.25 7.05 8.25 7.6 7.85 7.95 7.5 8.35 6.95 8.35 6.45 8.35 6.05 7.95 5.7 7.6 5.7 7.05 5.7 6.55 6.05 6.15 M6.95 6.1 Q6.55 6.1 6.25 6.35 6.0 6.65 6.0 7.05 6.0 7.5 6.25 7.75 6.55 8.05 6.95 8.05 L7.65 7.75 7.95 7.05 7.65 6.35 6.95 6.1 M3.85 3.95 Q5.15 2.65 6.95 2.65 8.8 2.65 10.05 3.95 11.35 5.25 11.35 7.05 11.35 8.9 10.05 10.15 8.8 11.45 6.95 11.45 5.15 11.45 3.85 10.15 2.6 8.9 2.6 7.05 2.6 5.25 3.85 3.95 M6.95 2.95 Q5.25 2.95 4.05 4.15 2.85 5.35 2.85 7.05 2.85 8.75 4.05 9.95 5.25 11.15 6.95 11.15 8.7 11.15 9.9 9.95 11.1 8.75 11.1 7.05 11.1 5.35 9.9 4.15 8.7 2.95 6.95 2.95" fill="#2e2d2d" fill-rule="evenodd" stroke="none"/>
  </g>
</svg>
