<?xml version="1.0" encoding="UTF-8" standalone="no"?>
<svg xmlns:xlink="http://www.w3.org/1999/xlink" height="17.25px" width="16.15px" xmlns="http://www.w3.org/2000/svg">
  <g transform="matrix(1.0, 0.0, 0.0, 1.0, -35.35, 0.2)">
    <path d="M50.5 2.2 L50.45 14.45 50.5 14.85 50.45 15.25 Q50.25 16.05 49.3 16.05 L36.35 16.05 36.35 0.8 49.3 0.8 Q50.25 0.8 50.45 1.6 L50.5 1.95 50.5 2.2 M44.55 15.7 L44.8 15.65 44.3 15.65 44.55 15.7 M39.4 15.65 L39.65 15.7 39.9 15.65 39.4 15.65" fill="#6d6d6d" fill-rule="evenodd" stroke="none"/>
    <path d="M50.5 2.2 L50.45 14.45 50.5 14.85 50.45 15.25 Q50.25 16.05 49.3 16.05 L36.35 16.05 36.35 0.8 49.3 0.8 Q50.25 0.8 50.45 1.6 L50.5 1.95 50.5 2.2 M44.55 15.7 L44.3 15.65 44.8 15.65 44.55 15.7 M39.4 15.65 L39.65 15.7 39.9 15.65 39.4 15.65" fill="none" stroke="#3f3f3f" stroke-linecap="round" stroke-linejoin="round" stroke-width="2.0"/>
    <path d="M48.8 15.65 L48.5 15.45 48.3 14.95 48.5 14.4 49.05 14.2 49.55 14.4 49.8 14.95 49.55 15.45 49.3 15.65 49.1 15.65 48.8 15.65 M44.3 15.65 L44.0 15.45 43.8 14.95 44.0 14.4 44.55 14.2 45.05 14.4 45.3 14.95 45.05 15.45 44.8 15.65 44.3 15.65 M39.4 15.65 L39.1 15.45 38.9 14.95 39.1 14.4 39.65 14.2 40.15 14.4 40.4 14.95 40.15 15.45 39.9 15.65 39.4 15.65" fill="#bfbfbf" fill-rule="evenodd" stroke="none"/>
    <path d="M50.45 14.45 L50.5 14.85 50.45 15.25 Q50.25 16.05 49.3 16.05 L36.35 16.05 36.35 15.65 39.4 15.65 39.65 15.7 39.9 15.65 44.3 15.65 44.55 15.7 44.8 15.65 48.8 15.65 49.1 15.65 49.3 15.65 49.55 15.45 49.8 14.95 49.55 14.4 49.05 14.2 36.35 14.15 36.35 13.7 49.3 13.7 Q50.25 13.7 50.45 14.45" fill="#3f3f3f" fill-rule="evenodd" stroke="none"/>
    <path d="M36.35 15.65 L36.35 14.15 49.05 14.2 48.5 14.4 48.3 14.95 48.5 15.45 48.8 15.65 44.8 15.65 45.05 15.45 45.3 14.95 45.05 14.4 44.55 14.2 44.0 14.4 43.8 14.95 44.0 15.45 44.3 15.65 39.9 15.65 40.15 15.45 40.4 14.95 40.15 14.4 39.65 14.2 39.1 14.4 38.9 14.95 39.1 15.45 39.4 15.65 36.35 15.65" fill="#232323" fill-rule="evenodd" stroke="none"/>
    <path d="M36.35 13.7 L36.35 0.8 49.3 0.8 Q50.25 0.8 50.45 1.6 L50.5 1.95 50.5 2.2 50.45 14.45 Q50.25 13.7 49.3 13.7 L36.35 13.7" fill="#a8a8a8" fill-rule="evenodd" stroke="none"/>
  </g>
</svg>
