<?xml version="1.0" encoding="UTF-8" standalone="no"?>
<svg xmlns:xlink="http://www.w3.org/1999/xlink" height="44.25px" width="56.2px" xmlns="http://www.w3.org/2000/svg">
  <g transform="matrix(1.0, 0.0, 0.0, 1.0, -4.7, -5.3)">
    <path d="M26.5 10.5 Q25.15 9.7 23.1 12.45 L18.4 19.55 20.3 16.0 Q22.2 12.7 24.2 10.0 27.6 5.55 29.1 6.4 32.15 8.15 28.9 13.85 L23.1 23.5 24.6 23.5 Q27.15 23.2 28.05 21.65 L28.75 18.1 Q29.2 15.15 30.15 13.65 30.8 12.45 33.5 11.35 36.15 10.4 36.85 9.15 L37.95 6.9 Q38.9 5.3 40.2 5.3 41.15 5.3 42.6 6.15 L44.45 7.5 46.5 7.85 46.6 7.85 46.7 7.85 48.0 7.9 48.0 8.0 48.5 8.05 Q49.95 8.25 50.75 8.6 L50.85 8.65 Q52.3 9.55 51.55 12.45 50.8 15.35 52.1 16.1 L54.05 16.35 Q55.4 16.25 57.2 17.25 58.9 18.25 59.3 20.15 59.65 22.0 58.6 23.8 58.0 24.9 56.0 25.8 54.2 26.65 53.45 27.9 53.1 28.55 52.85 31.45 52.65 34.35 51.6 36.2 L50.75 37.25 Q50.2 37.75 49.45 37.9 48.4 38.1 47.35 37.5 L45.4 36.1 43.7 34.8 41.0 34.85 Q39.65 35.35 38.95 36.1 L37.3 37.8 Q36.2 38.8 35.25 38.95 L31.75 38.75 Q29.4 38.9 28.3 40.75 27.8 41.7 27.5 43.45 27.25 45.25 26.55 46.5 24.95 49.2 23.15 49.5 22.0 49.7 18.6 48.6 L17.0 48.9 14.8 49.45 Q13.3 49.55 10.75 48.1 10.05 47.7 9.8 47.0 L9.35 45.25 7.2 42.1 6.05 40.95 Q5.3 40.4 5.1 39.85 4.25 37.3 5.3 35.55 7.0 32.55 9.7 31.25 12.45 29.85 13.15 28.6 L13.8 27.15 14.3 26.0 Q17.15 21.05 20.65 22.8 21.3 23.15 22.05 23.3 L25.1 18.5 27.25 14.1 Q28.2 11.45 26.5 10.5 M60.65 25.35 L60.8 25.55 Q61.15 26.45 60.15 28.2 L58.85 29.25 57.4 29.15 Q56.75 28.85 57.1 28.05 L57.7 27.0 Q58.75 25.2 59.9 25.2 L60.65 25.35" fill="#339fff" fill-rule="evenodd" stroke="none"/>
    <path d="M13.7 37.65 Q13.45 39.0 14.2 40.15 14.9 41.25 16.2 41.6 17.6 41.85 18.7 41.1 19.85 40.4 20.15 39.05 20.4 37.65 19.7 36.55 18.95 35.4 17.65 35.1 16.25 34.85 15.1 35.6 14.0 36.35 13.7 37.65 M11.75 41.7 Q10.35 39.55 10.85 37.05 11.35 34.55 13.55 33.15 15.7 31.75 18.2 32.3 19.2 32.45 20.05 32.95 L34.1 23.7 Q33.5 21.7 34.0 19.45 34.75 15.7 37.95 13.55 41.2 11.45 44.9 12.3 46.8 12.65 48.25 13.65 L38.2 20.2 42.05 26.05 52.1 19.5 Q52.4 21.2 52.0 23.1 51.25 26.85 48.0 29.0 44.85 31.1 41.05 30.3 38.85 29.8 37.2 28.45 L23.15 37.75 22.95 39.65 Q22.45 42.15 20.3 43.55 18.1 44.95 15.65 44.4 13.1 43.85 11.75 41.7" fill="#ffffff" fill-rule="evenodd" stroke="none"/>
    <path d="M13.7 37.65 Q13.45 39.0 14.2 40.15 14.9 41.25 16.2 41.6 17.6 41.85 18.7 41.1 19.85 40.4 20.15 39.05 20.4 37.65 19.7 36.55 18.95 35.4 17.65 35.1 16.25 34.85 15.1 35.6 14.0 36.35 13.7 37.65 M11.75 41.7 Q13.1 43.85 15.65 44.4 18.1 44.95 20.3 43.55 22.45 42.15 22.95 39.65 L23.15 37.75 37.2 28.45 Q38.85 29.8 41.05 30.3 44.85 31.1 48.0 29.0 51.25 26.85 52.0 23.1 52.4 21.2 52.1 19.5 L42.05 26.05 38.2 20.2 48.25 13.65 Q46.8 12.65 44.9 12.3 41.2 11.45 37.95 13.55 34.75 15.7 34.0 19.45 33.5 21.7 34.1 23.7 L20.05 32.95 Q19.2 32.45 18.2 32.3 15.7 31.75 13.55 33.15 11.35 34.55 10.85 37.05 10.35 39.55 11.75 41.7" fill="none" stroke="#2e2d2d" stroke-linecap="round" stroke-linejoin="round" stroke-width="2.0"/>
    <path d="M13.7 37.65 Q13.45 39.0 14.2 40.15 14.9 41.25 16.2 41.6 17.6 41.85 18.7 41.1 19.85 40.4 20.15 39.05 20.4 37.65 19.7 36.55 18.95 35.4 17.65 35.1 16.25 34.85 15.1 35.6 14.0 36.35 13.7 37.65 M11.75 41.7 Q10.35 39.55 10.85 37.05 11.35 34.55 13.55 33.15 15.7 31.75 18.2 32.3 19.2 32.45 20.05 32.95 L34.1 23.7 Q33.5 21.7 34.0 19.45 34.75 15.7 37.95 13.55 41.2 11.45 44.9 12.3 46.8 12.65 48.25 13.65 L38.2 20.2 42.05 26.05 52.1 19.5 Q52.4 21.2 52.0 23.1 51.25 26.85 48.0 29.0 44.85 31.1 41.05 30.3 38.85 29.8 37.2 28.45 L23.15 37.75 22.95 39.65 Q22.45 42.15 20.3 43.55 18.1 44.95 15.65 44.4 13.1 43.85 11.75 41.7" fill="#727272" fill-rule="evenodd" stroke="none"/>
  </g>
</svg>
