<?xml version="1.0" encoding="UTF-8" standalone="no"?>
<svg xmlns:xlink="http://www.w3.org/1999/xlink" height="22.4px" width="45.3px" xmlns="http://www.w3.org/2000/svg">
  <g transform="matrix(1.0, 0.0, 0.0, 1.0, 0.0, 0.35)">
    <path d="M1.45 5.5 L31.45 5.5 Q28.4 10.8 31.45 16.15 L1.45 16.15 Q-1.4 10.8 1.45 5.5" fill="#000000" fill-rule="evenodd" stroke="none"/>
    <path d="M24.9 5.5 L36.8 5.5 Q39.2 5.5 41.65 6.6 44.95 8.1 44.95 10.65 44.95 13.2 41.55 14.9 38.9 16.15 36.8 16.15 L24.9 16.15 24.9 5.5" fill="#f73600" fill-rule="evenodd" stroke="none"/>
    <path d="M24.9 5.5 L36.8 5.5 Q39.2 5.5 41.65 6.6 44.95 8.1 44.95 10.65 44.95 13.2 41.55 14.9 38.9 16.15 36.8 16.15 L24.9 16.15 24.9 5.5 Z" fill="none" stroke="#6d1800" stroke-linecap="round" stroke-linejoin="round" stroke-width="0.75"/>
    <path d="M25.15 13.25 L36.1 13.25 Q38.05 13.25 40.45 12.05 42.9 10.8 43.45 9.1 L43.6 10.15 Q43.6 12.55 40.45 14.15 38.05 15.3 36.1 15.3 L25.15 15.3 25.15 13.25" fill="#ad0303" fill-rule="evenodd" stroke="none"/>
    <path d="M33.5 16.15 L5.1 16.15 Q2.4 10.8 5.1 5.5 L33.5 5.5 Q32.0 11.0 33.5 16.15" fill="#727272" fill-rule="evenodd" stroke="none"/>
    <path d="M21.45 5.5 L5.1 5.5 5.1 0.0 14.25 1.3 21.45 5.5" fill="#f73600" fill-rule="evenodd" stroke="none"/>
    <path d="M21.45 5.5 L5.1 5.5 5.1 0.0 14.25 1.3 21.45 5.5 Z" fill="none" stroke="#6d1800" stroke-linecap="round" stroke-linejoin="round" stroke-width="0.75"/>
    <path d="M21.45 16.2 L5.1 16.2 5.1 21.7 14.25 20.4 21.45 16.2" fill="#f73600" fill-rule="evenodd" stroke="none"/>
    <path d="M21.45 16.2 L5.1 16.2 5.1 21.7 14.25 20.4 21.45 16.2 Z" fill="none" stroke="#6d1800" stroke-linecap="round" stroke-linejoin="round" stroke-width="0.75"/>
    <path d="M37.65 7.95 L37.05 8.2 36.4 7.95 36.15 7.3 Q36.15 6.9 36.4 6.65 36.65 6.4 37.05 6.4 L37.65 6.65 37.95 7.3 37.65 7.95" fill="#ffffff" fill-opacity="0.7058824" fill-rule="evenodd" stroke="none"/>
    <path d="M19.45 5.5 Q16.75 10.85 19.45 16.15 L14.55 16.15 Q11.85 10.85 14.55 5.5 L19.45 5.5" fill="#f73600" fill-rule="evenodd" stroke="none"/>
    <path d="M4.3 13.65 L33.0 13.65 33.75 15.3 5.05 15.3 4.3 13.65" fill="#585858" fill-rule="evenodd" stroke="none"/>
    <path d="M33.5 5.5 Q32.0 11.0 33.5 16.15 L5.1 16.15 Q2.4 10.8 5.1 5.5 L33.5 5.5 Z" fill="none" stroke="#3c3c3c" stroke-linecap="round" stroke-linejoin="round" stroke-width="0.75"/>
    <path d="M6.6 7.25 L34.7 7.25" fill="none" stroke="#ffffff" stroke-linecap="round" stroke-linejoin="round" stroke-opacity="0.7058824" stroke-width="2.0"/>
    <path d="M13.55 13.6 L18.45 13.6 19.05 15.3 14.15 15.3 13.55 13.6" fill="#ad0303" fill-rule="evenodd" stroke="none"/>
  </g>
</svg>
