<?xml version="1.0" encoding="UTF-8" standalone="no"?>
<svg xmlns:xlink="http://www.w3.org/1999/xlink" height="33.1px" width="18.65px" xmlns="http://www.w3.org/2000/svg">
  <g transform="matrix(1.0, 0.0, 0.0, 1.0, -22.25, 28.45)">
    <path d="M28.95 -27.05 L30.7 -26.9 31.45 -28.45 31.85 -26.75 33.6 -26.5 32.1 -25.6 32.4 -23.85 31.05 -25.05 29.5 -24.2 30.2 -25.85 28.95 -27.05 M33.45 -20.1 L33.45 -19.9 33.25 -19.75 32.6 -19.05 Q30.95 -17.8 30.95 -15.85 30.95 -14.55 31.6 -13.5 32.8 -11.6 35.7 -11.6 L37.2 -11.9 37.2 -11.8 37.2 -11.6 36.25 -10.3 Q35.1 -9.2 33.5 -9.2 30.45 -9.2 28.75 -11.85 27.7 -13.55 27.7 -14.6 27.7 -16.6 28.8 -18.15 30.05 -19.9 32.3 -20.1 L32.95 -20.15 33.35 -20.1 33.45 -20.1 M28.55 -7.05 L27.2 -4.9 28.75 -2.95 26.3 -3.5 24.85 -1.45 24.65 -3.95 22.25 -4.65 24.6 -5.6 24.55 -8.15 26.15 -6.2 28.55 -7.05 M38.95 -3.4 L40.9 -2.6 38.9 -2.0 38.8 0.1 37.55 -1.6 35.55 -1.1 36.8 -2.75 35.7 -4.5 37.65 -3.85 38.95 -5.45 38.95 -3.4 M32.85 1.95 L34.15 3.25 32.3 3.05 31.5 4.65 31.1 2.85 29.3 2.6 30.9 1.7 30.6 -0.05 31.95 1.1 33.6 0.35 32.85 1.95" fill="url(#gradient0)" fill-rule="evenodd" stroke="none"/>
  </g>
  <defs>
    <linearGradient gradientTransform="matrix(-5.0E-4, -0.0245, 0.0202, -4.0E-4, 30.55, -9.85)" gradientUnits="userSpaceOnUse" id="gradient0" spreadMethod="pad" x1="-819.2" x2="819.2">
      <stop offset="0.0" stop-color="#999999"/>
      <stop offset="1.0" stop-color="#ffffff"/>
    </linearGradient>
  </defs>
</svg>
