<?xml version="1.0" encoding="UTF-8" standalone="no"?>
<svg xmlns:xlink="http://www.w3.org/1999/xlink" height="1.65px" width="2.75px" xmlns="http://www.w3.org/2000/svg">
  <g transform="matrix(1.0, 0.0, 0.0, 1.0, -4.75, -4.6)">
    <path d="M5.95 5.15 L6.1 5.1 6.15 5.15 6.25 5.55 6.15 5.4 6.0 5.3 5.85 5.3 5.95 5.15 M6.35 5.7 L6.5 5.75 6.3 5.75 6.3 5.6 6.35 5.7" fill="#ffffff" fill-rule="evenodd" stroke="none"/>
    <path d="M5.95 5.15 L5.85 5.3 6.0 5.3 6.15 5.4 6.25 5.55 6.15 5.15 6.1 5.1 5.95 5.15 M5.5 5.0 L5.5 4.95 Q5.6 4.6 6.1 4.6 6.55 4.6 6.65 5.05 L6.7 5.15 6.95 5.0 7.15 4.95 7.25 5.05 7.45 5.3 7.5 5.45 7.45 5.6 Q6.9 6.3 6.5 6.25 L5.9 6.1 5.5 6.2 4.95 5.9 4.95 5.85 4.8 5.65 4.75 5.5 4.85 5.4 4.9 5.25 5.05 5.15 5.4 5.25 5.5 5.0 M6.35 5.7 L6.3 5.6 6.3 5.75 6.5 5.75 6.35 5.7" fill="#cf96fe" fill-rule="evenodd" stroke="none"/>
    <path d="M6.1 4.85 L6.4 5.1 6.5 5.5 7.05 5.2 7.25 5.45 6.5 6.0 6.05 5.85 5.95 5.55 5.5 5.95 5.15 5.75 5.0 5.55 5.05 5.4 5.5 5.55 5.7 5.05 Q5.8 4.85 6.1 4.85" fill="#ffffff" fill-rule="evenodd" stroke="none"/>
  </g>
</svg>
