<?xml version="1.0" encoding="UTF-8" standalone="no"?>
<svg xmlns:xlink="http://www.w3.org/1999/xlink" height="16.6px" width="16.6px" xmlns="http://www.w3.org/2000/svg">
  <g transform="matrix(1.0, 0.0, 0.0, 1.0, 6.2, 3.55)">
    <path d="M7.95 -1.15 Q10.4 1.3 10.4 4.75 10.4 8.2 7.95 10.6 5.55 13.05 2.1 13.05 -1.35 13.05 -3.8 10.6 -6.2 8.2 -6.2 4.75 -6.2 1.3 -3.8 -1.15 -1.35 -3.55 2.1 -3.55 5.55 -3.55 7.95 -1.15" fill="url(#gradient0)" fill-rule="evenodd" stroke="none"/>
    <path d="M2.5 -0.9 L2.55 -0.85 2.6 -0.8 2.6 -0.4 2.5 0.15 2.55 0.7 2.8 1.15 3.15 1.15 3.45 1.2 3.55 1.35 3.6 1.6 3.6 1.8 3.65 2.05 3.65 2.1 3.7 2.1 4.05 2.2 4.15 2.2 Q4.75 3.15 4.6 4.3 L4.5 5.0 4.55 6.4 Q4.75 7.45 3.7 8.0 L1.75 8.1 Q0.45 7.65 -0.1 6.35 L-0.4 5.05 -0.1 3.25 Q0.25 2.2 1.0 1.55 L1.25 1.75 1.2 2.0 1.25 2.3 1.4 2.45 Q1.7 2.1 1.65 1.6 L1.65 0.6 1.75 0.15 2.15 -0.75 2.4 -0.9 2.5 -0.9" fill="#ffcc00" fill-rule="evenodd" stroke="none"/>
    <path d="M2.3 2.4 L2.35 2.45 2.4 2.5 2.4 2.75 2.3 3.1 2.35 3.45 2.5 3.75 2.7 3.75 2.85 3.75 2.9 3.85 2.95 4.05 2.95 4.15 3.0 4.3 3.0 4.35 3.2 4.4 3.25 4.4 Q3.6 5.0 3.5 5.75 L3.45 6.2 Q3.4 6.65 3.5 7.1 3.6 7.8 3.0 8.15 L1.9 8.2 Q1.15 7.9 0.85 7.05 L0.65 6.25 0.85 5.1 Q1.05 4.4 1.45 4.0 L1.6 4.1 1.6 4.3 1.6 4.5 1.7 4.55 1.85 4.05 1.85 3.4 1.9 3.1 2.1 2.5 2.25 2.4 2.3 2.4" fill="#ffffff" fill-rule="evenodd" stroke="none"/>
  </g>
  <defs>
    <radialGradient cx="0" cy="0" gradientTransform="matrix(0.0074, 0.0, 0.0, 0.0074, 2.1, 4.75)" gradientUnits="userSpaceOnUse" id="gradient0" r="819.2" spreadMethod="pad">
      <stop offset="0.0" stop-color="#ffcc00"/>
      <stop offset="1.0" stop-color="#ffcc00" stop-opacity="0.0"/>
    </radialGradient>
  </defs>
</svg>
