<?xml version="1.0" encoding="UTF-8" standalone="no"?>
<svg xmlns:xlink="http://www.w3.org/1999/xlink" height="43.0px" width="56.9px" xmlns="http://www.w3.org/2000/svg">
  <g transform="matrix(1.0, 0.0, 0.0, 1.0, -3.8, -5.35)">
    <path d="M29.85 19.0 Q29.85 21.15 40.3 11.85 30.2 23.45 31.8 25.5 31.85 25.85 32.4 26.2 34.3 27.25 42.55 28.0 28.9 30.8 35.3 39.7 L29.95 34.2 Q29.0 32.6 28.9 31.65 28.55 29.9 31.4 28.75 L32.15 28.5 30.95 28.3 Q28.5 27.7 28.45 26.6 28.25 25.65 29.7 23.65 30.2 22.7 31.2 21.7 L29.95 22.65 Q29.45 22.85 29.15 23.1 27.6 24.1 27.65 23.3 27.4 22.65 28.15 20.8 L31.95 12.4 Q30.45 15.85 30.1 17.45 29.75 18.45 29.85 19.0" fill="#ff0000" fill-rule="evenodd" stroke="none"/>
    <path d="M37.15 13.9 Q37.9 13.45 38.9 14.25 L39.8 15.1 Q55.4 7.15 59.7 6.35 57.4 8.8 41.05 17.45 L41.25 19.1 Q41.25 20.4 40.55 20.8 L39.35 21.35 39.3 21.4 39.2 21.5 Q38.35 21.8 37.5 21.15 L36.75 20.5 35.75 18.95 Q35.15 17.55 35.1 16.3 35.15 14.95 35.9 14.55 L35.95 14.6 37.05 13.9 37.15 13.9 M39.8 15.1 L38.4 15.8 38.25 16.0 38.05 16.4 Q37.9 16.85 38.15 17.4 L38.3 17.75 38.7 18.2 39.2 18.35 39.5 18.3 39.65 18.2 41.05 17.45 39.65 18.2 39.5 18.3 39.2 18.35 38.7 18.2 38.3 17.75 38.15 17.4 Q37.9 16.85 38.05 16.4 L38.25 16.0 38.4 15.8 39.8 15.1" fill="#666666" fill-rule="evenodd" stroke="none"/>
    <path d="M37.15 13.9 Q37.9 13.45 38.9 14.25 L39.8 15.1 Q55.4 7.15 59.7 6.35 57.4 8.8 41.05 17.45 L41.25 19.1 Q41.25 20.4 40.55 20.8 L39.35 21.35 39.3 21.4 39.2 21.5 Q38.35 21.8 37.5 21.15 L36.75 20.5 35.75 18.95 Q35.15 17.55 35.1 16.3 35.15 14.95 35.9 14.55 L35.95 14.6 37.05 13.9 37.15 13.9 M41.05 17.45 L39.65 18.2 39.5 18.3 39.2 18.35 38.7 18.2 38.3 17.75 38.15 17.4 Q37.9 16.85 38.05 16.4 L38.25 16.0 38.4 15.8 39.8 15.1" fill="none" stroke="#2c2c2c" stroke-linecap="round" stroke-linejoin="round" stroke-width="2.0"/>
    <path d="M40.55 20.8 L39.35 21.35 39.3 21.4 39.2 21.5 Q38.35 21.8 37.5 21.15 L36.75 20.5 38.0 19.7 38.8 20.4 Q39.25 20.85 39.7 20.9 L40.45 20.85 40.55 20.8" fill="#727272" fill-rule="evenodd" stroke="none"/>
    <path d="M36.75 20.5 L35.75 18.95 Q35.15 17.55 35.1 16.3 35.15 14.95 35.9 14.55 L35.95 14.6 37.05 13.9 37.15 13.9 Q37.9 13.45 38.9 14.25 39.9 14.95 40.6 16.4 41.25 17.75 41.25 19.1 41.25 20.4 40.55 20.8 L40.45 20.85 39.7 20.9 Q39.25 20.85 38.8 20.4 L38.0 19.7 36.75 20.5" fill="#a4a4a4" fill-rule="evenodd" stroke="none"/>
    <path d="M59.7 6.35 Q57.3 8.85 39.65 18.2 L39.5 18.3 39.2 18.35 38.7 18.2 38.3 17.75 59.7 6.35" fill="#727272" fill-rule="evenodd" stroke="none"/>
    <path d="M38.3 17.75 L38.15 17.4 Q37.9 16.85 38.05 16.4 L38.25 16.0 38.4 15.8 Q55.25 7.15 59.7 6.35 L38.3 17.75" fill="#a4a4a4" fill-rule="evenodd" stroke="none"/>
    <path d="M35.2 25.6 Q36.1 25.4 36.8 26.35 L37.45 27.45 Q54.6 23.75 59.0 24.15 56.1 25.9 38.05 30.05 L37.8 31.7 Q37.5 32.9 36.7 33.15 L35.4 33.35 35.4 33.4 35.25 33.45 35.2 33.45 Q34.35 33.55 33.7 32.65 L33.15 31.85 32.6 30.15 Q32.3 28.6 32.65 27.4 33.0 26.1 33.8 25.9 L33.9 25.95 35.15 25.6 35.2 25.6 M37.45 27.45 L35.95 27.75 35.75 27.95 35.4 28.2 Q35.15 28.65 35.3 29.2 L35.35 29.6 35.65 30.15 36.05 30.35 36.35 30.45 36.4 30.45 36.5 30.4 38.05 30.05 36.5 30.4 36.4 30.45 36.35 30.45 36.05 30.35 35.65 30.15 35.35 29.6 35.3 29.2 Q35.15 28.65 35.4 28.2 L35.75 27.95 35.95 27.75 37.45 27.45" fill="#666666" fill-rule="evenodd" stroke="none"/>
    <path d="M35.2 25.6 Q36.1 25.4 36.8 26.35 L37.45 27.45 Q54.6 23.75 59.0 24.15 56.1 25.9 38.05 30.05 L37.8 31.7 Q37.5 32.9 36.7 33.15 L35.4 33.35 35.4 33.4 35.25 33.45 35.2 33.45 Q34.35 33.55 33.7 32.65 L33.15 31.85 32.6 30.15 Q32.3 28.6 32.65 27.4 33.0 26.1 33.8 25.9 L33.9 25.95 35.15 25.6 35.2 25.6 M38.05 30.05 L36.5 30.4 36.4 30.45 36.35 30.45 36.05 30.35 35.65 30.15 35.35 29.6 35.3 29.2 Q35.15 28.65 35.4 28.2 L35.75 27.95 35.95 27.75 37.45 27.45" fill="none" stroke="#2c2c2c" stroke-linecap="round" stroke-linejoin="round" stroke-width="2.0"/>
    <path d="M36.7 33.15 L35.4 33.35 35.4 33.4 35.25 33.45 35.2 33.45 Q34.35 33.55 33.7 32.65 L33.15 31.85 34.55 31.45 35.1 32.3 35.9 33.0 36.65 33.15 36.7 33.15" fill="#727272" fill-rule="evenodd" stroke="none"/>
    <path d="M33.15 31.85 L32.6 30.15 Q32.3 28.6 32.65 27.4 33.0 26.1 33.8 25.9 L33.9 25.95 35.15 25.6 35.2 25.6 Q36.1 25.4 36.8 26.35 37.6 27.3 37.95 28.9 38.2 30.4 37.8 31.7 37.5 32.9 36.7 33.15 L36.65 33.15 35.9 33.0 35.1 32.3 34.55 31.45 33.15 31.85" fill="#a4a4a4" fill-rule="evenodd" stroke="none"/>
    <path d="M59.0 24.15 Q56.0 25.95 36.5 30.4 L36.4 30.45 36.35 30.45 36.05 30.35 35.65 30.15 35.35 29.6 59.0 24.15" fill="#727272" fill-rule="evenodd" stroke="none"/>
    <path d="M35.35 29.6 L35.3 29.2 Q35.15 28.65 35.4 28.2 L35.75 27.95 35.95 27.75 Q54.45 23.75 59.0 24.15 L35.35 29.6" fill="#a4a4a4" fill-rule="evenodd" stroke="none"/>
    <path d="M18.0 25.85 L17.55 25.9 17.7 25.85 18.0 25.85" fill="#1c1c1c" fill-rule="evenodd" stroke="none"/>
    <path d="M13.5 24.85 Q14.05 24.55 14.9 24.55 16.8 24.4 18.5 26.2 L18.65 26.5 19.1 26.4 19.1 25.95 Q19.2 24.95 19.55 24.05 19.85 23.15 20.3 22.6 L20.85 22.15 21.9 21.75 Q23.55 21.35 25.1 22.9 26.7 24.5 27.25 27.15 L27.55 28.8 Q27.6 30.35 27.0 31.65 L26.95 31.8 26.35 32.95 Q25.65 33.85 24.55 34.1 22.9 34.25 21.3 32.55 L20.85 32.0 20.5 31.45 20.25 31.5 Q20.2 33.05 19.55 34.25 L19.05 34.95 17.35 36.25 16.65 36.35 13.3 37.25 14.6 43.4 15.25 43.4 15.75 46.05 Q14.3 47.4 12.45 47.35 L11.6 47.25 10.2 46.85 9.45 43.8 10.05 43.75 9.1 38.2 8.6 38.1 Q7.0 37.8 6.0 36.25 L5.2 34.75 Q4.85 33.7 4.8 32.55 4.65 30.5 5.5 29.1 5.95 28.3 6.7 27.9 L6.95 27.8 12.4 25.35 12.7 25.25 13.15 25.0 Q13.3 24.85 13.5 24.85 M16.75 26.95 L17.05 26.85 16.8 26.9 16.75 26.95" fill="#434343" fill-rule="evenodd" stroke="none"/>
    <path d="M13.5 24.85 Q13.3 24.85 13.15 25.0 L12.7 25.25 12.4 25.35 6.95 27.8 6.7 27.9 Q5.95 28.3 5.5 29.1 4.65 30.5 4.8 32.55 4.85 33.7 5.2 34.75 L6.0 36.25 Q7.0 37.8 8.6 38.1 L9.1 38.2 10.05 43.75 9.45 43.8 10.2 46.85 11.6 47.25 12.45 47.35 Q14.3 47.4 15.75 46.05 L15.25 43.4 14.6 43.4 13.3 37.25 16.65 36.35 17.35 36.25 19.05 34.95 19.55 34.25 Q20.2 33.05 20.25 31.5 L20.5 31.45 20.85 32.0 21.3 32.55 Q22.9 34.25 24.55 34.1 25.65 33.85 26.35 32.95 L26.95 31.8 27.0 31.65 Q27.6 30.35 27.55 28.8 L27.25 27.15 Q26.7 24.5 25.1 22.9 23.55 21.35 21.9 21.75 L20.85 22.15 20.3 22.6 Q19.85 23.15 19.55 24.05 19.2 24.95 19.1 25.95 L19.1 26.4 18.65 26.5 18.5 26.2 Q16.8 24.4 14.9 24.55 14.05 24.55 13.5 24.85 M16.75 26.95 L17.05 26.85 16.8 26.9 16.75 26.95" fill="none" stroke="#1e1e1e" stroke-linecap="round" stroke-linejoin="round" stroke-width="2.0"/>
    <path d="M12.4 25.35 Q11.7 25.8 11.2 26.65 10.15 28.2 10.4 30.4 10.4 31.7 10.85 32.8 L5.2 34.75 Q4.85 33.7 4.8 32.55 4.65 30.5 5.5 29.1 5.95 28.3 6.7 27.9 L6.95 27.8 12.4 25.35 M11.05 43.7 L10.2 39.85 12.2 39.1 11.85 37.6 13.3 37.25 14.6 43.4 11.05 43.7" fill="#ff912c" fill-rule="evenodd" stroke="none"/>
    <path d="M12.4 25.35 L12.7 25.25 13.15 25.0 Q13.3 24.85 13.5 24.85 14.05 24.55 14.9 24.55 16.8 24.4 18.5 26.2 L18.65 26.5 17.05 26.85 16.8 26.9 16.75 26.95 Q16.15 27.1 15.9 27.85 15.65 28.65 15.8 29.6 L15.8 29.8 Q16.1 30.8 16.75 31.55 17.4 32.2 17.95 32.15 L18.2 32.15 20.25 31.5 Q20.2 33.05 19.55 34.25 15.55 35.7 10.85 32.8 10.4 31.7 10.4 30.4 10.15 28.2 11.2 26.65 11.7 25.8 12.4 25.35 M20.85 22.15 L21.9 21.75 Q23.55 21.35 25.1 22.9 26.7 24.5 27.25 27.15 L27.55 28.8 Q27.6 30.35 27.0 31.65 L26.95 31.8 26.35 32.95 25.3 33.35 Q23.65 33.55 22.0 31.8 L21.55 31.25 21.25 30.7 20.85 30.05 20.05 27.75 19.85 26.6 19.8 25.65 19.85 25.2 20.25 23.3 20.3 23.15 20.85 22.15 M25.3 30.05 L25.4 30.0 25.45 30.0 Q26.05 29.6 26.15 28.5 26.5 27.45 26.15 26.15 25.75 24.8 25.15 24.05 24.45 23.25 23.85 23.65 23.45 23.75 23.2 24.3 L23.15 24.35 23.0 24.45 Q22.45 24.75 22.25 25.75 22.15 26.2 22.2 26.75 L22.3 27.5 22.4 28.1 22.65 29.3 23.1 29.85 23.25 30.15 Q23.9 30.95 24.65 30.7 L25.3 30.05 M11.05 43.7 L14.6 43.4 15.25 43.4 15.75 46.05 Q14.3 47.4 12.45 47.35 L11.6 47.25 10.4 43.75 11.05 43.7" fill="#434343" fill-rule="evenodd" stroke="none"/>
    <path d="M15.8 29.6 Q15.65 28.65 15.9 27.85 16.15 27.1 16.75 26.95 L17.05 26.85 18.65 26.5 19.1 26.4 19.1 27.35 19.3 28.5 15.8 29.6 M25.3 30.05 L24.65 30.7 Q23.9 30.95 23.25 30.15 L23.1 29.85 22.65 29.3 22.4 28.1 22.3 27.5 22.2 26.75 Q22.15 26.2 22.25 25.75 22.45 24.75 23.0 24.45 L23.15 24.35 23.2 24.3 Q23.75 24.05 24.4 24.8 25.0 25.5 25.45 26.9 25.75 28.2 25.45 29.25 L25.45 29.45 25.3 30.05" fill="#1c1c1c" fill-rule="evenodd" stroke="none"/>
    <path d="M10.85 32.8 Q15.55 35.7 19.55 34.25 L19.05 34.95 17.35 36.25 16.65 36.35 16.2 36.45 15.65 36.5 14.7 36.5 Q13.45 36.3 12.6 35.45 L11.65 34.4 10.85 32.8 M19.1 26.4 L19.1 25.95 Q19.2 24.95 19.55 24.05 19.85 23.15 20.3 22.6 L20.85 22.15 20.3 23.15 20.25 23.3 19.85 25.2 19.8 25.65 19.85 26.6 20.05 27.75 20.85 30.05 21.25 30.7 21.55 31.25 22.0 31.8 Q23.65 33.55 25.3 33.35 L26.35 32.95 Q25.65 33.85 24.55 34.1 22.9 34.25 21.3 32.55 L20.85 32.0 20.5 31.45 20.1 30.75 19.3 28.5 19.1 27.35 19.1 26.4 M23.2 24.3 Q23.45 23.75 23.85 23.65 24.45 23.25 25.15 24.05 25.75 24.8 26.15 26.15 26.5 27.45 26.15 28.5 26.05 29.6 25.45 30.0 L25.4 30.0 25.3 30.05 25.45 29.45 25.45 29.25 Q25.75 28.2 25.45 26.9 25.0 25.5 24.4 24.8 23.75 24.05 23.2 24.3 M10.05 43.75 L10.4 43.75 11.6 47.25 10.2 46.85 9.45 43.8 10.05 43.75" fill="#242424" fill-rule="evenodd" stroke="none"/>
    <path d="M10.05 43.75 L9.1 38.2 8.6 38.1 Q7.0 37.8 6.0 36.25 L5.2 34.75 10.85 32.8 11.65 34.4 12.6 35.45 Q13.45 36.3 14.7 36.5 L15.65 36.5 16.2 36.45 13.3 37.25 11.85 37.6 12.2 39.1 10.2 39.85 11.05 43.7 10.4 43.75 10.05 43.75" fill="#ec7000" fill-rule="evenodd" stroke="none"/>
    <path d="M20.25 31.5 L18.2 32.15 17.95 32.15 Q17.4 32.2 16.75 31.55 16.1 30.8 15.8 29.8 L15.8 29.6 19.3 28.5 20.1 30.75 20.5 31.45 20.25 31.5" fill="#060606" fill-rule="evenodd" stroke="none"/>
  </g>
</svg>
