<?xml version="1.0" encoding="UTF-8" standalone="no"?>
<svg xmlns:xlink="http://www.w3.org/1999/xlink" height="67.0px" width="67.0px" xmlns="http://www.w3.org/2000/svg">
  <g transform="matrix(1.0, 0.0, 0.0, 1.0, 1.5, 1.3)">
    <path d="M64.0 0.2 L64.0 64.2 0.0 64.2 0.0 0.2 64.0 0.2" fill="#9a9a9a" fill-rule="evenodd" stroke="none"/>
    <path d="M64.0 0.2 L64.0 64.2 0.0 64.2 0.0 0.2 64.0 0.2 Z" fill="none" stroke="#2c2c2c" stroke-linecap="round" stroke-linejoin="miter" stroke-miterlimit="3.0" stroke-width="3.0"/>
    <path d="M61.65 1.35 L61.65 60.65 2.35 60.65 2.35 1.35 61.65 1.35" fill="#b6b6b6" fill-rule="evenodd" stroke="none"/>
    <path d="M63.95 0.2 L64.0 0.2 64.0 64.15 61.65 60.65 61.65 1.35 63.95 0.2" fill="#959595" fill-rule="evenodd" stroke="none"/>
    <path d="M0.0 64.2 L0.0 0.35 2.35 1.35 2.35 60.65 0.0 64.2" fill="#515151" fill-rule="evenodd" stroke="none"/>
    <path d="M63.95 0.2 L61.65 1.35 2.35 1.35 0.0 0.35 0.0 0.2 63.95 0.2" fill="#777777" fill-rule="evenodd" stroke="none"/>
    <path d="M61.65 60.65 L64.0 64.15 64.0 64.2 0.0 64.2 2.35 60.65 61.65 60.65" fill="#797979" fill-rule="evenodd" stroke="none"/>
  </g>
</svg>
