<?xml version="1.0" encoding="UTF-8" standalone="no"?>
<svg xmlns:xlink="http://www.w3.org/1999/xlink" height="144.1px" width="137.45px" xmlns="http://www.w3.org/2000/svg">
  <g transform="matrix(1.0, 0.0, 0.0, 1.0, 68.7, 72.05)">
    <path d="M-33.5 0.0 L-51.1 -19.85 -31.0 -30.9 -52.35 -50.45 -24.05 -70.55 67.25 0.0 -24.05 70.55 -52.35 50.5 -30.95 30.95 -51.1 19.85 -33.5 0.0 Z" fill="none" stroke="#000000" stroke-linecap="round" stroke-linejoin="round" stroke-width="3.0"/>
    <path d="M-33.5 0.0 L-51.1 -19.85 -31.0 -30.9 -52.35 -50.45 -24.05 -70.55 67.25 0.0 -24.05 70.55 -52.35 50.5 -30.95 30.95 -51.1 19.85 -33.5 0.0" fill="#1a1c23" fill-rule="evenodd" stroke="none"/>
    <path d="M-66.1 -2.4 L-53.9 -2.9 -53.6 -3.15 Q-48.0 -7.5 -41.35 -11.15 -20.0 -22.85 4.1 -23.65 28.4 -24.45 38.25 -12.95 43.45 -6.8 43.45 0.4 43.45 7.6 38.25 13.75 28.4 25.3 4.1 24.45 -20.0 23.6 -41.35 11.95 -48.0 8.3 -53.6 3.95 L-54.0 3.65 -66.1 3.15 Q-67.2 2.3 -67.2 0.35 -67.15 -1.6 -66.1 -2.4 Z" fill="none" stroke="#000000" stroke-linecap="round" stroke-linejoin="round" stroke-width="3.0"/>
    <path d="M-24.05 -70.55 L67.25 0.0 -24.05 70.55 -25.6 69.45 60.25 0.0 -25.6 -69.45 -24.05 -70.55" fill="#0f1015" fill-rule="evenodd" stroke="none"/>
    <path d="M-57.9 0.4 L-53.6 -3.15 Q-48.0 -7.5 -41.35 -11.15 -20.0 -22.85 4.1 -23.65 28.4 -24.45 38.25 -12.95 43.45 -6.8 43.45 0.4 43.45 7.6 38.25 13.75 28.4 25.3 4.1 24.45 -20.0 23.6 -41.35 11.95 -48.0 8.3 -53.6 3.95 L-57.9 0.4" fill="#1a1c23" fill-rule="evenodd" stroke="none"/>
    <path d="M2.15 -23.6 L4.1 -23.65 Q28.4 -24.45 38.25 -12.95 43.45 -6.8 43.45 0.4 43.45 7.6 38.25 13.75 28.4 25.3 4.1 24.45 L2.3 24.35 Q20.3 23.3 28.45 13.75 33.65 7.6 33.65 0.4 33.65 -6.8 28.45 -12.95 20.25 -22.5 2.15 -23.6" fill="#0f1015" fill-rule="evenodd" stroke="none"/>
    <path d="M-36.7 -2.4 L-36.7 3.15 -50.8 3.6 -66.1 3.15 Q-67.2 2.3 -67.2 0.35 -67.15 -1.6 -66.1 -2.4 -64.65 -3.45 -36.7 -2.4" fill="#31343f" fill-rule="evenodd" stroke="none"/>
    <path d="M22.3 16.0 Q25.35 8.1 25.25 1.05 25.05 -5.95 22.3 -14.4 L32.55 -14.4 Q46.45 0.8 32.55 16.0 L22.3 16.0 Z" fill="none" stroke="#0f1015" stroke-linecap="square" stroke-linejoin="miter" stroke-miterlimit="3.0" stroke-width="3.0"/>
    <path d="M22.3 16.0 Q25.35 8.1 25.25 1.05 25.05 -5.95 22.3 -14.4 L32.55 -14.4 Q46.45 0.8 32.55 16.0 L22.3 16.0" fill="#339fff" fill-rule="evenodd" stroke="none"/>
    <path d="M23.6 12.4 L24.95 6.65 38.55 6.65 Q37.5 9.5 35.5 12.4 L23.6 12.4 M39.0 4.9 L25.1 4.9 25.3 3.15 39.4 3.15 39.0 4.9" fill="#ffffff" fill-opacity="0.49803922" fill-rule="evenodd" stroke="none"/>
    <path d="M-3.5 15.3 Q-16.65 14.0 -16.65 0.95 -16.65 -12.15 -3.5 -13.6 3.05 -14.3 9.6 -12.35 6.7 0.75 9.6 13.85 3.05 15.85 -3.5 15.3" fill="#000000" fill-rule="evenodd" stroke="none"/>
    <path d="M-41.15 40.25 L-9.65 59.4 -13.0 62.0 -44.2 43.05 -41.15 40.25 M-6.5 56.95 L-38.3 37.65 -36.75 36.25 -4.8 55.65 -6.5 56.95" fill="#ff0000" fill-rule="evenodd" stroke="none"/>
    <path d="M-41.15 -40.25 L-9.65 -59.4 -13.0 -62.0 -44.2 -43.05 -41.15 -40.25 M-6.5 -56.95 L-38.3 -37.65 -36.75 -36.25 -4.8 -55.65 -6.5 -56.95" fill="#ff0000" fill-rule="evenodd" stroke="none"/>
    <path d="M-11.65 58.2 L-9.65 59.4 -13.0 62.0 -14.95 60.85 -11.65 58.2 M-6.95 54.35 L-4.8 55.65 -6.5 56.95 -8.6 55.7 -6.95 54.35" fill="#ad0303" fill-rule="evenodd" stroke="none"/>
    <path d="M-6.5 -56.95 L-4.8 -55.65 -6.9 -54.35 -8.55 -55.7 -6.5 -56.95 M-13.0 -62.0 L-9.65 -59.4 -11.65 -58.2 -14.9 -60.85 -13.0 -62.0" fill="#ad0303" fill-rule="evenodd" stroke="none"/>
    <path d="M-66.1 -2.4 L-53.9 -2.9 -53.6 -3.15 Q-48.0 -7.5 -41.35 -11.15 -20.0 -22.85 4.1 -23.65 28.4 -24.45 38.25 -12.95 43.45 -6.8 43.45 0.4 43.45 7.6 38.25 13.75 28.4 25.3 4.1 24.45 -20.0 23.6 -41.35 11.95 -48.0 8.3 -53.6 3.95 L-54.0 3.65 -66.1 3.15 Q-67.2 2.3 -67.2 0.35 -67.15 -1.6 -66.1 -2.4 Z" fill="none" stroke="#000000" stroke-linecap="round" stroke-linejoin="round" stroke-width="3.0"/>
  </g>
</svg>
