<?xml version="1.0" encoding="UTF-8" standalone="no"?>
<svg xmlns:xlink="http://www.w3.org/1999/xlink" height="8.25px" width="32.0px" xmlns="http://www.w3.org/2000/svg">
  <g transform="matrix(1.0, 0.0, 0.0, 1.0, 0.0, 0.0)">
    <path d="M31.7 0.8 L31.75 0.8 31.8 0.85 31.8 0.95 31.75 1.0 31.7 1.0 31.55 1.0 31.5 0.95 31.5 0.85 31.6 0.75 31.65 0.75 31.7 0.8 M31.35 0.8 L30.95 1.3 30.65 1.55 30.65 1.65 30.75 1.7 30.75 1.8 30.65 1.85 30.55 1.85 30.5 1.9 30.3 1.9 30.25 1.85 29.9 1.95 29.65 1.75 29.45 1.95 29.25 2.15 29.15 2.1 29.2 2.15 29.25 2.15 29.3 2.2 29.55 2.55 29.5 2.6 29.45 2.6 29.3 2.6 29.25 2.55 29.2 2.4 29.15 2.4 29.05 2.4 29.0 2.3 29.0 2.25 28.2 2.4 27.5 2.6 27.5 2.65 27.7 2.75 27.8 2.95 27.7 3.15 27.5 3.25 27.3 3.15 27.25 2.9 27.25 2.85 27.05 2.7 26.7 2.8 26.35 2.7 26.45 2.9 26.45 3.0 26.4 3.05 26.3 3.1 26.05 3.1 25.95 3.0 25.95 2.8 26.0 2.75 25.55 2.8 25.55 2.85 25.35 3.1 25.15 2.95 25.1 2.95 25.15 3.05 25.05 3.1 25.0 3.15 25.15 3.25 25.2 3.45 25.0 3.55 24.8 3.45 24.75 3.4 24.75 3.25 24.8 3.2 24.9 3.15 24.85 3.1 24.8 3.0 24.7 3.05 24.7 3.1 24.6 3.2 24.55 3.2 24.5 3.25 24.4 3.2 24.15 3.2 24.05 3.1 24.05 2.95 24.1 2.95 24.1 2.9 24.15 2.85 24.0 2.85 24.0 2.95 23.95 3.05 23.85 3.1 23.7 3.1 23.6 3.0 23.6 2.85 23.65 2.85 23.0 2.75 22.75 2.85 22.75 2.95 Q22.7 3.25 22.4 3.2 22.1 3.1 22.15 2.8 L22.2 2.75 21.65 2.6 21.65 2.65 21.6 2.7 21.55 2.8 21.5 2.9 21.3 2.9 21.25 2.85 21.25 2.8 21.2 2.75 21.2 2.7 21.25 2.65 21.25 2.6 21.3 2.55 21.35 2.55 21.4 2.5 21.3 2.45 20.25 2.2 20.35 2.4 20.25 2.6 20.05 2.7 19.85 2.6 19.75 2.35 19.9 2.2 20.0 2.15 19.3 2.1 19.15 2.1 Q18.85 2.0 18.9 1.75 L18.85 1.75 18.7 1.75 Q18.6 2.05 18.3 1.85 L18.2 1.75 17.7 1.75 17.65 1.75 17.6 1.85 17.5 1.85 17.35 1.8 17.3 1.75 17.3 1.85 17.25 1.95 17.0 2.0 16.9 1.9 16.9 1.75 16.35 1.65 16.35 1.7 16.3 1.75 16.0 2.0 Q15.75 2.0 15.8 1.7 L15.85 1.6 15.65 1.6 15.7 1.65 15.75 1.75 15.7 1.8 15.65 1.9 15.45 2.0 15.3 1.95 15.3 2.0 15.25 2.1 15.2 2.15 15.25 2.25 15.2 2.35 15.1 2.45 15.05 2.45 14.95 2.45 14.75 2.35 14.75 2.3 14.65 2.3 14.55 2.25 14.5 2.2 14.45 2.2 14.45 2.15 14.4 2.1 14.4 2.05 14.4 1.95 14.4 1.8 14.45 1.75 13.8 1.8 13.85 1.85 13.85 1.95 13.8 2.0 13.65 2.1 13.55 2.1 13.55 2.05 13.5 2.0 13.5 1.8 12.6 1.95 12.5 2.0 12.5 2.05 12.6 2.05 12.65 2.1 12.7 2.15 12.7 2.2 12.75 2.25 12.75 2.4 12.65 2.55 12.5 2.6 12.35 2.5 12.25 2.4 12.25 2.3 11.95 2.15 11.6 2.2 11.65 2.25 11.6 2.25 11.6 2.35 11.55 2.4 11.45 2.5 11.45 2.55 11.35 2.55 11.25 2.5 11.2 2.45 11.15 2.4 11.1 2.35 11.05 2.4 11.0 2.4 10.9 2.4 10.8 2.35 10.75 2.35 10.5 2.35 10.5 2.4 10.4 2.5 10.3 2.5 10.15 2.4 9.95 2.4 9.95 2.5 10.0 2.5 10.0 2.7 9.95 2.75 9.95 2.8 10.0 2.8 10.05 2.85 10.05 2.9 10.1 2.95 10.05 3.0 10.05 3.05 10.1 3.1 10.1 3.2 10.05 3.25 9.95 3.25 9.9 3.2 9.9 3.15 9.75 3.1 9.7 3.05 9.65 2.95 9.7 2.9 9.7 2.85 9.65 2.85 9.55 2.75 9.5 2.7 9.5 2.6 9.5 2.55 9.55 2.45 8.8 2.45 8.85 2.6 Q8.9 2.5 9.0 2.5 9.35 2.55 9.3 2.9 L8.95 3.15 8.7 2.95 8.55 2.9 8.35 2.7 8.3 2.7 8.2 2.7 8.0 2.6 7.95 2.5 7.95 2.4 8.0 2.35 7.8 2.35 7.85 2.4 7.85 2.45 7.85 2.55 7.85 2.6 7.8 2.7 7.75 2.75 7.65 2.75 7.55 2.75 7.5 2.7 7.45 2.6 7.45 2.55 7.45 2.45 7.5 2.35 7.55 2.35 7.6 2.3 7.3 2.25 Q7.05 2.45 6.7 2.25 L6.2 2.2 5.6 2.25 5.05 2.2 4.5 1.9 4.25 2.0 4.0 1.75 4.05 1.6 4.0 1.6 4.0 1.55 3.95 1.55 3.85 1.6 3.75 1.6 3.65 1.55 3.55 1.45 3.55 1.35 3.5 1.35 3.3 1.4 3.1 1.4 3.05 1.45 3.0 1.55 2.95 1.6 2.9 1.6 2.8 1.5 2.8 1.35 2.55 1.25 2.55 1.2 2.5 1.2 2.3 1.15 2.25 1.1 2.2 1.1 2.15 1.15 2.1 1.2 2.15 1.3 2.1 1.3 2.05 1.4 1.95 1.4 1.8 1.35 1.75 1.3 1.75 1.25 1.8 1.2 1.8 1.15 1.85 1.1 1.9 1.1 1.85 1.05 1.8 1.05 1.45 0.95 1.25 0.8 1.25 0.75 1.2 0.7 1.2 0.6 1.1 0.6 1.05 0.65 1.0 0.7 0.95 0.75 0.85 0.75 0.85 0.7 0.8 0.65 0.8 0.6 0.75 0.55 0.1 0.45 0.05 0.4 0.0 0.35 Q0.0 0.2 0.15 0.2 L0.95 0.25 0.55 0.0 32.0 0.0 31.35 0.8 M31.6 1.85 L31.65 1.9 31.7 1.9 31.75 1.95 31.75 2.05 31.7 2.1 31.65 2.1 31.5 2.1 31.45 2.05 31.45 1.95 31.55 1.85 31.6 1.85 M31.35 1.65 L31.25 1.55 31.35 1.45 31.45 1.55 31.35 1.65 M31.3 2.25 L31.2 2.35 31.1 2.25 31.2 2.15 31.3 2.25 M30.6 3.05 L30.5 3.0 30.5 2.85 30.6 2.85 30.7 2.9 30.7 3.0 30.6 3.05 M30.75 3.45 L30.7 3.5 30.55 3.6 30.45 3.55 30.4 3.55 30.35 3.45 30.3 3.4 30.3 3.3 30.35 3.25 30.4 3.2 30.55 3.1 30.65 3.15 30.7 3.15 30.75 3.25 30.8 3.3 30.8 3.4 30.75 3.45 M28.2 2.4 L28.3 2.4 28.4 2.4 28.45 2.45 28.5 2.5 28.5 2.55 28.55 2.6 28.55 2.7 28.5 2.75 28.4 2.85 28.2 2.85 28.1 2.75 28.1 2.65 28.1 2.55 28.1 2.5 28.2 2.4 M28.85 2.7 L28.9 2.75 28.95 2.75 29.0 2.8 29.0 2.9 29.0 2.95 28.95 3.0 28.75 3.05 28.7 2.95 28.7 2.8 28.8 2.7 28.85 2.7 M29.7 2.65 L29.8 2.55 29.85 2.55 29.9 2.6 29.95 2.6 30.0 2.65 30.0 2.75 29.95 2.8 29.9 2.8 29.75 2.8 29.7 2.75 29.7 2.65 M27.75 4.15 L27.75 4.3 27.75 4.35 27.7 4.4 27.6 4.45 27.35 4.45 27.3 4.35 27.3 4.2 27.3 4.15 27.3 4.05 27.35 4.05 27.4 4.0 27.5 4.0 27.65 4.05 27.75 4.15 M25.7 4.95 L25.6 4.95 25.45 4.9 25.4 4.85 25.4 4.8 25.45 4.75 25.45 4.7 25.5 4.65 25.55 4.65 25.6 4.6 25.7 4.65 25.75 4.7 25.75 4.75 25.8 4.85 25.75 4.85 25.7 4.95 M25.85 5.35 L25.9 5.4 26.0 5.4 26.0 5.45 26.05 5.5 26.1 5.55 26.05 5.6 25.9 5.75 25.7 5.7 25.7 5.65 25.65 5.6 25.65 5.55 25.7 5.5 25.7 5.45 25.75 5.4 25.8 5.4 25.85 5.35 M26.55 5.7 L26.65 5.8 26.55 5.9 26.45 5.8 26.55 5.7 M29.15 3.75 Q29.1 3.9 28.95 3.85 L28.75 3.8 28.75 3.75 28.75 3.65 28.75 3.6 28.8 3.55 28.85 3.5 28.95 3.45 29.15 3.6 29.15 3.75 M28.5 5.5 L28.65 5.65 28.5 5.85 28.3 5.7 28.5 5.5 M21.75 3.05 L21.85 3.1 21.9 3.1 21.95 3.2 21.95 3.3 21.9 3.35 21.85 3.4 21.65 3.4 21.65 3.35 21.6 3.3 21.6 3.15 21.65 3.15 21.65 3.1 21.7 3.05 21.75 3.05 M21.9 4.25 L21.9 4.15 21.95 4.1 22.05 4.05 22.1 4.1 22.15 4.1 22.2 4.15 22.2 4.25 22.2 4.3 22.1 4.35 21.95 4.35 21.9 4.25 M21.15 3.45 L21.15 3.5 21.2 3.6 21.15 3.6 21.1 3.7 21.0 3.7 20.85 3.65 20.8 3.6 20.8 3.55 20.85 3.5 20.85 3.45 20.9 3.4 20.95 3.4 21.0 3.35 21.1 3.4 21.15 3.45 M22.45 5.1 L22.55 5.1 22.55 5.15 22.6 5.2 22.65 5.25 22.6 5.3 22.45 5.45 22.25 5.35 22.25 5.2 22.3 5.1 22.4 5.1 22.45 5.1 M24.05 3.5 L24.0 3.55 23.85 3.55 23.7 3.5 23.7 3.45 23.55 3.55 23.4 3.45 23.4 3.3 23.45 3.2 23.65 3.2 23.65 3.25 23.75 3.25 24.1 3.25 24.1 3.45 24.05 3.45 24.05 3.5 M25.2 4.25 L25.3 4.35 25.3 4.4 25.3 4.5 25.3 4.55 25.25 4.65 25.2 4.7 25.1 4.7 25.0 4.7 24.95 4.65 24.9 4.55 24.9 4.5 24.9 4.4 24.95 4.3 25.0 4.3 25.05 4.25 25.1 4.25 25.2 4.25 M22.9 4.3 L22.95 4.3 23.05 4.3 23.1 4.4 23.1 4.5 23.05 4.65 22.95 4.65 22.85 4.65 22.8 4.55 22.8 4.45 22.8 4.35 22.9 4.3 M24.0 5.1 L24.05 5.05 24.15 5.1 24.2 5.15 24.2 5.2 24.25 5.3 24.2 5.3 24.15 5.4 24.05 5.4 23.9 5.35 23.85 5.3 23.85 5.25 23.9 5.2 23.9 5.15 23.95 5.1 24.0 5.1 M23.75 5.15 L23.65 5.05 23.75 4.95 23.8 5.05 23.75 5.15 M20.2 1.1 L20.2 1.05 20.0 1.1 20.2 1.1 M18.6 2.2 L18.7 2.15 18.75 2.15 18.85 2.15 18.9 2.25 18.9 2.35 18.85 2.5 18.75 2.5 18.65 2.5 18.6 2.4 18.6 2.3 18.6 2.2 M18.45 2.3 L18.4 2.35 18.3 2.4 18.2 2.35 18.15 2.3 18.15 2.25 18.15 2.15 18.2 2.1 18.25 2.05 18.35 2.05 18.4 2.1 18.45 2.15 18.45 2.3 M18.35 2.7 L18.25 2.8 18.15 2.7 18.25 2.6 18.35 2.7 M17.9 2.8 L17.9 2.95 17.8 3.05 17.6 3.1 17.55 3.05 17.55 3.0 17.5 2.95 17.5 2.9 17.5 2.8 17.6 2.7 17.7 2.65 17.8 2.7 17.85 2.75 17.9 2.8 M19.35 2.7 L19.4 2.75 19.45 2.8 19.4 2.85 19.35 2.9 19.35 2.95 19.25 3.0 19.2 2.95 19.1 2.95 19.1 2.9 19.05 2.85 19.05 2.7 19.1 2.65 19.15 2.6 19.25 2.6 19.35 2.65 19.35 2.7 M15.2 1.7 L15.25 1.65 14.85 1.7 14.9 1.85 14.95 1.85 14.95 1.8 15.0 1.75 15.1 1.75 15.2 1.75 15.2 1.7 M17.4 2.3 L17.45 2.35 17.45 2.4 17.5 2.5 17.45 2.5 17.4 2.6 17.3 2.6 17.15 2.55 17.1 2.5 17.1 2.45 17.15 2.4 17.15 2.35 17.2 2.3 17.25 2.3 17.3 2.25 17.4 2.3 M15.4 3.3 L15.45 3.45 15.45 3.5 15.3 3.65 15.25 3.75 14.95 3.65 14.85 3.5 14.8 3.45 14.8 3.35 14.85 3.3 14.85 3.25 14.95 3.2 15.0 3.2 15.25 3.2 15.3 3.2 15.4 3.3 M15.3 4.3 L15.15 4.35 14.95 4.25 14.9 4.2 14.9 4.15 14.9 4.05 14.95 4.0 15.0 3.95 15.15 3.9 15.2 3.95 15.3 4.3 M16.95 4.8 L16.85 4.7 16.95 4.6 17.05 4.7 16.95 4.8 M19.75 3.45 L19.75 3.5 19.8 3.55 19.8 3.7 19.75 3.75 19.6 3.7 19.55 3.65 19.55 3.5 19.65 3.45 19.75 3.45 M19.85 3.85 L19.9 3.95 19.95 4.05 19.85 4.2 19.8 4.2 19.7 4.2 19.65 4.15 19.6 4.05 19.6 4.0 19.65 3.95 19.7 3.9 19.75 3.85 19.85 3.85 M19.55 5.6 L19.6 5.6 19.65 5.55 19.7 5.5 19.75 5.5 19.8 5.55 19.85 5.55 19.9 5.65 19.9 5.75 19.85 5.8 19.8 5.85 19.65 5.85 19.6 5.8 19.55 5.75 19.55 5.6 M13.85 2.15 L13.9 2.1 13.95 2.05 14.05 2.0 14.1 2.0 14.1 2.05 14.15 2.1 14.15 2.15 14.15 2.3 14.1 2.4 13.9 2.35 13.85 2.3 13.85 2.15 M13.25 2.45 L13.25 2.4 13.3 2.35 13.35 2.35 13.4 2.3 13.5 2.35 13.55 2.4 13.55 2.45 13.6 2.55 13.55 2.55 13.5 2.65 13.4 2.65 13.25 2.6 13.2 2.55 13.2 2.5 13.25 2.45 M14.3 2.4 L14.35 2.45 14.4 2.45 14.45 2.5 14.45 2.6 14.4 2.65 14.35 2.65 14.2 2.65 14.15 2.6 14.15 2.5 14.25 2.4 14.3 2.4 M10.7 2.45 L10.8 2.45 10.85 2.45 10.9 2.5 10.95 2.55 11.0 2.6 11.0 2.7 10.95 2.75 10.95 2.8 10.9 2.8 10.75 2.8 10.75 2.75 10.65 2.65 10.65 2.55 10.7 2.45 M11.3 2.8 L11.4 2.8 11.5 2.8 11.55 2.85 11.6 2.95 11.6 3.05 11.55 3.15 11.3 3.2 11.2 3.1 11.2 2.9 11.25 2.85 11.3 2.8 M11.75 3.8 L11.6 3.9 11.35 3.85 11.25 3.75 11.25 3.6 11.05 3.65 10.85 3.65 11.25 3.6 11.7 3.5 11.75 3.55 11.75 3.6 11.75 3.7 11.75 3.8 M10.35 3.25 L10.35 3.35 10.35 3.45 10.25 3.35 10.35 3.25 M14.0 3.5 L14.0 3.6 13.95 3.75 13.8 3.75 13.65 3.6 13.65 3.4 13.75 3.3 13.8 3.3 13.9 3.3 13.95 3.35 13.95 3.4 14.0 3.5 M13.45 3.7 L13.5 3.85 13.45 3.95 13.35 4.0 13.2 4.0 13.0 3.95 13.0 3.75 13.05 3.7 13.1 3.7 13.2 3.65 13.35 3.65 13.45 3.7 M13.0 4.2 L13.1 4.15 13.2 4.2 13.3 4.25 13.35 4.3 13.35 4.4 13.35 4.45 13.3 4.5 13.15 4.55 13.0 4.45 12.95 4.3 13.0 4.2 M14.0 5.25 L14.15 5.05 14.3 5.25 14.15 5.45 14.0 5.25 M19.1 7.65 L18.95 7.6 18.9 7.55 18.9 7.4 19.0 7.35 19.1 7.35 19.15 7.4 19.2 7.45 19.2 7.6 19.1 7.65 M18.5 6.75 L18.45 6.85 18.35 6.95 18.25 6.9 18.2 6.85 18.2 6.8 18.2 6.7 18.2 6.65 18.25 6.6 18.35 6.6 18.45 6.65 18.5 6.75 M18.05 6.35 L17.95 6.25 18.05 6.15 18.1 6.25 18.05 6.35 M16.0 7.7 L16.0 8.25 15.95 8.15 15.85 8.0 15.85 7.95 15.85 7.85 15.9 7.8 16.0 7.7 M6.8 1.45 L6.85 1.5 6.9 1.5 6.8 1.45 M6.3 2.35 L6.4 2.3 6.5 2.3 6.55 2.35 6.6 2.35 6.65 2.45 6.65 2.55 6.6 2.7 6.55 2.7 6.5 2.7 6.35 2.65 6.35 2.55 6.3 2.5 6.3 2.35 M5.5 2.95 L5.5 2.8 5.6 2.8 5.7 2.85 5.7 2.95 5.6 3.0 5.5 2.95 M7.55 3.05 L7.65 3.1 7.65 3.2 7.6 3.25 7.5 3.25 7.45 3.2 7.45 3.1 7.5 3.05 7.55 3.05 M7.05 3.7 L6.95 3.6 7.05 3.5 7.15 3.6 7.05 3.7 M6.4 3.5 L6.25 3.5 6.25 3.45 6.2 3.4 6.2 3.35 6.25 3.3 6.25 3.25 6.3 3.2 6.45 3.1 6.55 3.15 6.6 3.2 6.6 3.3 6.6 3.45 6.4 3.5 M5.4 4.5 L5.4 4.7 5.2 4.8 5.0 4.7 4.95 4.65 4.95 4.55 5.0 4.45 5.05 4.4 5.2 4.35 5.4 4.5 M5.25 5.75 L5.3 5.7 5.5 5.8 5.6 6.0 5.4 6.15 5.2 6.1 5.1 6.05 5.1 6.0 5.1 5.9 5.1 5.85 5.15 5.8 5.25 5.75 M9.55 3.85 L9.55 3.9 9.5 4.0 9.45 4.1 9.25 4.1 9.2 4.05 9.2 4.0 9.15 3.95 9.15 3.9 9.2 3.85 9.2 3.8 9.25 3.75 9.3 3.75 9.35 3.7 9.45 3.75 9.5 3.8 9.55 3.85 M9.3 4.45 L9.35 4.45 9.4 4.6 9.3 4.7 9.2 4.55 9.3 4.45 M8.55 3.8 L8.6 3.85 8.6 3.95 8.55 4.0 8.5 4.0 8.4 4.0 8.35 3.95 8.35 3.85 8.45 3.75 8.5 3.8 8.55 3.8 M8.7 4.7 L8.75 4.75 8.8 4.75 8.9 4.85 8.9 4.9 8.9 5.0 8.75 5.05 8.45 5.0 8.45 4.75 8.55 4.7 8.6 4.7 8.7 4.7 M3.75 1.8 L3.5 2.05 3.25 1.85 3.2 1.85 3.15 1.95 3.05 1.95 2.9 1.9 2.85 1.85 2.85 1.8 2.9 1.75 2.9 1.7 2.95 1.65 3.0 1.65 3.05 1.6 3.15 1.65 3.2 1.7 3.2 1.75 3.25 1.85 3.25 1.8 Q3.25 1.55 3.5 1.55 L3.75 1.8 M4.15 2.2 L3.9 2.5 Q3.6 2.5 3.6 2.2 3.65 1.9 3.9 1.9 L4.15 2.2 M4.35 2.55 L4.4 2.55 4.55 2.6 4.7 2.75 4.7 2.95 4.55 3.1 4.5 3.15 4.3 3.15 4.1 2.85 4.2 2.65 4.35 2.55 M1.15 1.45 L1.2 1.55 1.2 1.65 1.1 1.7 0.95 1.7 0.9 1.65 0.9 1.45 0.95 1.4 1.1 1.4 1.15 1.45 M1.75 1.7 L1.8 1.8 1.8 1.9 1.75 2.0 1.7 2.05 1.65 2.05 1.55 2.0 1.5 1.9 1.5 1.75 1.55 1.75 1.55 1.7 1.65 1.7 1.75 1.7 M2.0 3.15 L2.15 2.95 2.3 3.15 2.15 3.3 2.0 3.15 M3.95 4.6 L4.0 4.65 4.05 4.75 4.1 4.8 4.1 4.85 4.1 4.95 4.05 5.05 3.9 5.2 3.6 5.1 3.55 5.05 3.5 5.0 3.5 4.9 3.5 4.8 3.55 4.7 3.6 4.65 3.65 4.6 3.7 4.6 3.8 4.55 3.95 4.6 M4.65 3.95 L4.75 3.75 4.9 3.95 4.75 4.1 4.65 3.95 M5.05 7.7 L5.1 7.6 5.15 7.6 5.2 7.75 5.05 7.8 5.05 7.7 M2.1 7.95 L2.3 7.75 2.45 7.95 2.3 8.15 2.1 7.95 M8.4 6.5 L8.4 6.65 8.4 6.7 8.35 6.75 8.25 6.8 8.0 6.8 7.9 6.65 7.9 6.55 7.9 6.5 7.95 6.4 8.0 6.35 8.05 6.35 8.15 6.35 8.15 6.3 8.3 6.35 8.35 6.45 8.4 6.5" fill="#ecd26f" fill-rule="evenodd" stroke="none"/>
  </g>
</svg>
