<?xml version="1.0" encoding="UTF-8" standalone="no"?>
<svg xmlns:xlink="http://www.w3.org/1999/xlink" height="9.4px" width="38.05px" xmlns="http://www.w3.org/2000/svg">
  <g transform="matrix(1.0, 0.0, 0.0, 1.0, -11.9, -44.1)">
    <path d="M20.3 53.25 L18.75 53.4 Q16.35 53.75 14.25 52.75 12.95 52.2 13.6 51.05 L14.0 50.65 Q15.65 49.9 17.45 49.85 L18.45 49.75 Q20.95 49.45 22.75 50.9 L22.8 51.35 Q22.25 53.0 20.3 53.25" fill="#000000" fill-opacity="0.2" fill-rule="evenodd" stroke="none"/>
    <path d="M16.4 44.9 Q19.85 44.55 22.0 47.05 22.45 47.55 22.4 48.3 L22.35 48.6 22.25 48.95 21.75 50.15 21.55 50.35 21.4 50.65 21.0 51.0 20.45 51.2 20.4 51.25 20.35 51.25 20.2 51.3 18.95 51.6 18.6 51.65 17.9 51.7 16.4 51.7 15.2 51.45 15.15 51.5 14.5 51.25 Q12.3 50.2 12.7 48.25 L12.95 47.3 Q13.6 45.9 14.9 45.25 L15.15 45.2 15.3 45.15 15.45 45.1 16.4 44.9" fill="#b5b5b5" fill-rule="evenodd" stroke="none"/>
    <path d="M16.4 44.9 Q19.85 44.55 22.0 47.05 22.45 47.55 22.4 48.3 L22.35 48.6 22.25 48.95 21.75 50.15 21.55 50.35 21.4 50.65 21.0 51.0 20.45 51.2 20.4 51.25 20.35 51.25 20.2 51.3 18.95 51.6 18.6 51.65 17.9 51.7 16.4 51.7 15.2 51.45 15.15 51.5 14.5 51.25 Q12.3 50.2 12.7 48.25 L12.95 47.3 Q13.6 45.9 14.9 45.25 L15.15 45.2 15.3 45.15 15.45 45.1 16.4 44.9 Z" fill="none" stroke="#666666" stroke-linecap="round" stroke-linejoin="round" stroke-width="1.5"/>
    <path d="M22.4 48.3 Q21.1 49.4 19.55 50.0 16.15 51.3 14.5 48.35 14.05 47.5 14.55 46.7 15.2 45.6 16.05 44.95 L16.0 44.95 15.45 45.1 16.4 44.9 Q19.85 44.55 22.0 47.05 22.45 47.55 22.4 48.3 M21.4 50.65 L21.55 50.35 21.75 50.15 21.4 50.65" fill="#cccccc" fill-rule="evenodd" stroke="none"/>
    <path d="M15.45 45.1 L16.0 44.95 16.05 44.95 Q15.2 45.6 14.55 46.7 14.05 47.5 14.5 48.35 16.15 51.3 19.55 50.0 21.1 49.4 22.4 48.3 L22.35 48.6 22.25 48.95 21.75 50.15 21.55 50.35 21.4 50.65 21.0 51.0 20.45 51.2 20.4 51.25 20.35 51.25 20.2 51.3 18.95 51.6 18.6 51.65 17.9 51.7 16.4 51.7 15.2 51.45 15.15 51.5 14.5 51.25 Q12.3 50.2 12.7 48.25 L12.95 47.3 Q13.6 45.9 14.9 45.25 L15.15 45.2 15.3 45.15 15.45 45.1" fill="#b5b5b5" fill-rule="evenodd" stroke="none"/>
    <path d="M47.7 52.75 L46.55 52.9 Q44.8 53.15 43.3 52.4 42.35 51.95 42.8 51.1 L43.1 50.75 Q44.3 50.2 45.6 50.15 L46.35 50.1 Q48.15 49.85 49.45 50.95 L49.5 51.3 Q49.1 52.55 47.7 52.75" fill="#000000" fill-opacity="0.2" fill-rule="evenodd" stroke="none"/>
    <path d="M44.85 46.35 Q47.35 46.1 48.9 48.0 49.25 48.4 49.2 48.95 L49.15 49.2 49.1 49.45 48.75 50.4 48.6 50.55 48.5 50.75 48.2 51.05 47.8 51.2 47.75 51.25 47.7 51.25 47.6 51.25 46.7 51.5 46.45 51.55 45.95 51.6 44.85 51.6 44.0 51.4 43.95 51.4 43.45 51.25 Q41.85 50.45 42.15 48.95 L42.35 48.2 Q42.8 47.15 43.75 46.65 L43.95 46.6 44.05 46.55 44.15 46.5 44.85 46.35" fill="#b5b5b5" fill-rule="evenodd" stroke="none"/>
    <path d="M44.85 46.35 Q47.35 46.1 48.9 48.0 49.25 48.4 49.2 48.95 L49.15 49.2 49.1 49.45 48.75 50.4 48.6 50.55 48.5 50.75 48.2 51.05 47.8 51.2 47.75 51.25 47.7 51.25 47.6 51.25 46.7 51.5 46.45 51.55 45.95 51.6 44.85 51.6 44.0 51.4 43.95 51.4 43.45 51.25 Q41.85 50.45 42.15 48.95 L42.35 48.2 Q42.8 47.15 43.75 46.65 L43.95 46.6 44.05 46.55 44.15 46.5 44.85 46.35 Z" fill="none" stroke="#666666" stroke-linecap="round" stroke-linejoin="round" stroke-width="1.5"/>
    <path d="M49.2 48.95 L47.15 50.25 Q44.65 51.25 43.45 49.0 43.15 48.35 43.5 47.75 44.0 46.9 44.6 46.4 L44.55 46.4 44.15 46.5 44.85 46.35 Q47.35 46.1 48.9 48.0 49.25 48.4 49.2 48.95 M48.5 50.75 L48.6 50.55 48.75 50.4 48.5 50.75" fill="#cccccc" fill-rule="evenodd" stroke="none"/>
    <path d="M44.15 46.5 L44.55 46.4 44.6 46.4 Q44.0 46.9 43.5 47.75 43.15 48.35 43.45 49.0 44.65 51.25 47.15 50.25 L49.2 48.95 49.15 49.2 49.1 49.45 48.75 50.4 48.6 50.55 48.5 50.75 48.2 51.05 47.8 51.2 47.75 51.25 47.7 51.25 47.6 51.25 46.7 51.5 46.45 51.55 45.95 51.6 44.85 51.6 44.0 51.4 43.95 51.4 43.45 51.25 Q41.85 50.45 42.15 48.95 L42.35 48.2 Q42.8 47.15 43.75 46.65 L43.95 46.6 44.05 46.55 44.15 46.5" fill="#b5b5b5" fill-rule="evenodd" stroke="none"/>
  </g>
</svg>
