<?xml version="1.0" encoding="UTF-8" standalone="no"?>
<svg xmlns:xlink="http://www.w3.org/1999/xlink" height="33.4px" width="33.7px" xmlns="http://www.w3.org/2000/svg">
  <g transform="matrix(1.0, 0.0, 0.0, 1.0, 3.65, -3.35)">
    <path d="M28.4 29.35 L28.6 29.35 28.1 31.05 27.65 31.05 26.5 35.75 1.2 35.75 0.05 31.05 -0.45 31.05 -0.85 29.6 -0.9 29.6 -0.9 29.55 -0.95 29.35 -0.9 29.35 -0.9 16.05 28.4 16.05 28.4 29.35" fill="#999999" fill-rule="evenodd" stroke="none"/>
    <path d="M28.4 29.35 L28.6 29.35 28.1 31.05 27.65 31.05 26.5 35.75 1.2 35.75 0.05 31.05 -0.45 31.05 -0.85 29.6 -0.9 29.6 -0.9 29.55 -0.95 29.35 -0.9 29.35 -0.9 16.05 28.4 16.05 28.4 29.35 Z" fill="none" stroke="#333333" stroke-linecap="round" stroke-linejoin="round" stroke-width="2.0"/>
    <path d="M26.5 35.75 L1.2 35.75 -0.05 30.6 27.75 30.6 26.5 35.75" fill="#7a7a7a" fill-rule="evenodd" stroke="none"/>
    <path d="M28.1 31.05 L-0.45 31.05 -0.95 29.35 28.6 29.35 28.1 31.05" fill="#7a7a7a" fill-rule="evenodd" stroke="none"/>
    <path d="M28.4 29.6 L-0.9 29.6 -0.9 16.05 28.4 16.05 28.4 29.6" fill="#999999" fill-rule="evenodd" stroke="none"/>
    <path d="M11.7 11.2 L11.75 12.15 11.55 13.0 Q11.4 15.0 9.45 16.45 7.4 18.05 4.45 18.05 1.5 18.05 -0.6 16.45 -2.65 14.9 -2.65 12.7 L-2.6 12.25 -2.65 11.85 -2.65 10.65 -2.6 10.1 -2.65 9.7 Q-2.65 7.5 -0.6 5.9 1.5 4.35 4.45 4.35 7.4 4.35 9.45 5.9 11.5 7.45 11.55 9.55 L11.6 9.6 11.7 10.3 11.7 11.2" fill="#cccccc" fill-rule="evenodd" stroke="none"/>
    <path d="M11.7 11.2 L11.75 12.15 11.55 13.0 Q11.4 15.0 9.45 16.45 7.4 18.05 4.45 18.05 1.5 18.05 -0.6 16.45 -2.65 14.9 -2.65 12.7 L-2.6 12.25 -2.65 11.85 -2.65 10.65 -2.6 10.1 -2.65 9.7 Q-2.65 7.5 -0.6 5.9 1.5 4.35 4.45 4.35 7.4 4.35 9.45 5.9 11.5 7.45 11.55 9.55 L11.6 9.6 11.7 10.3 11.7 11.2 Z" fill="none" stroke="#333333" stroke-linecap="round" stroke-linejoin="round" stroke-width="2.0"/>
    <path d="M11.7 10.3 L11.7 11.2 11.75 12.15 11.55 13.0 Q11.4 15.0 9.45 16.45 7.4 18.05 4.45 18.05 1.5 18.05 -0.6 16.45 -2.65 14.9 -2.65 12.7 L-2.6 12.25 -2.65 11.85 -2.65 10.65 -2.55 9.75 -2.5 9.65 -2.4 9.6 -2.35 9.55 -2.2 9.55 -2.15 9.55 -2.0 9.6 -1.85 9.7 -1.8 9.75 -1.75 9.85 -1.75 9.9 -1.7 10.0 -0.6 8.9 Q1.5 7.35 4.45 7.35 7.4 7.35 9.45 8.9 L10.45 9.85 10.6 9.6 10.7 9.55 10.75 9.5 10.8 9.45 11.0 9.4 11.2 9.4 11.4 9.45 11.5 9.55 11.6 9.6 11.7 10.3" fill="#a2a2a2" fill-rule="evenodd" stroke="none"/>
    <path d="M4.45 15.05 Q1.5 15.05 -0.6 13.45 -2.65 11.9 -2.65 9.7 -2.65 7.5 -0.6 5.9 1.5 4.35 4.45 4.35 7.4 4.35 9.45 5.9 11.55 7.5 11.55 9.7 11.55 11.9 9.45 13.45 7.4 15.05 4.45 15.05" fill="#cccccc" fill-rule="evenodd" stroke="none"/>
    <path d="M28.9 9.6 L29.0 10.3 29.0 11.2 29.05 12.15 28.85 13.0 Q28.7 15.0 26.75 16.45 24.7 18.05 21.75 18.05 18.8 18.05 16.7 16.45 14.65 14.9 14.65 12.7 L14.7 12.25 14.65 11.85 14.65 10.65 Q14.6 10.35 14.7 10.1 L14.65 9.7 Q14.65 7.5 16.7 5.9 18.8 4.35 21.75 4.35 24.7 4.35 26.75 5.9 28.8 7.45 28.85 9.55 L28.9 9.6" fill="#cccccc" fill-rule="evenodd" stroke="none"/>
    <path d="M28.9 9.6 L29.0 10.3 29.0 11.2 29.05 12.15 28.85 13.0 Q28.7 15.0 26.75 16.45 24.7 18.05 21.75 18.05 18.8 18.05 16.7 16.45 14.65 14.9 14.65 12.7 L14.7 12.25 14.65 11.85 14.65 10.65 Q14.6 10.35 14.7 10.1 L14.65 9.7 Q14.65 7.5 16.7 5.9 18.8 4.35 21.75 4.35 24.7 4.35 26.75 5.9 28.8 7.45 28.85 9.55 L28.9 9.6 Z" fill="none" stroke="#333333" stroke-linecap="round" stroke-linejoin="round" stroke-width="2.0"/>
    <path d="M28.9 9.6 L29.0 10.3 29.0 11.2 29.05 12.15 28.85 13.0 Q28.7 15.0 26.75 16.45 24.7 18.05 21.75 18.05 18.8 18.05 16.7 16.45 14.65 14.9 14.65 12.7 L14.7 12.25 14.65 11.85 14.65 10.65 14.75 9.75 14.8 9.65 14.9 9.6 14.95 9.55 15.1 9.55 15.15 9.55 15.3 9.6 15.45 9.7 15.5 9.75 15.55 9.85 15.55 9.9 15.6 10.0 16.7 8.9 Q18.8 7.35 21.75 7.35 24.7 7.35 26.75 8.9 L27.75 9.85 27.9 9.6 28.0 9.55 28.05 9.5 28.1 9.45 28.3 9.4 28.5 9.4 28.7 9.45 28.8 9.55 28.9 9.6" fill="#a2a2a2" fill-rule="evenodd" stroke="none"/>
    <path d="M26.75 13.45 Q24.7 15.05 21.75 15.05 18.8 15.05 16.7 13.45 14.65 11.9 14.65 9.7 14.65 7.5 16.7 5.9 18.8 4.35 21.75 4.35 24.7 4.35 26.75 5.9 28.85 7.5 28.85 9.7 28.85 11.9 26.75 13.45" fill="#cccccc" fill-rule="evenodd" stroke="none"/>
  </g>
</svg>
