<?xml version="1.0" encoding="UTF-8" standalone="no"?>
<svg xmlns:xlink="http://www.w3.org/1999/xlink" height="80.45px" width="68.95px" xmlns="http://www.w3.org/2000/svg">
  <g transform="matrix(1.0, 0.0, 0.0, 1.0, 34.5, 40.2)">
    <path d="M17.95 -30.2 Q-15.6 -17.5 -24.5 26.4 -7.55 32.75 9.75 28.65 7.8 -0.95 24.45 -24.3 17.95 -30.0 17.95 -30.2" fill="#70381f" fill-rule="evenodd" stroke="none"/>
    <path d="M17.95 -30.2 Q-15.6 -17.5 -24.5 26.4 -7.55 32.75 9.75 28.65 7.8 -0.95 24.45 -24.3 17.95 -30.0 17.95 -30.2 Z" fill="none" stroke="#6b180a" stroke-linecap="round" stroke-linejoin="round" stroke-width="20.0"/>
    <path d="M17.95 -30.2 Q-15.6 -17.5 -24.5 26.4 -7.55 32.75 9.75 28.65 7.8 -0.95 24.45 -24.3 17.95 -30.0 17.95 -30.2" fill="#ed4a2e" fill-rule="evenodd" stroke="none"/>
    <path d="M-13.65 -3.3 L-14.3 -3.6 Q-1.95 1.7 11.35 5.05 8.95 16.3 9.75 28.65 -7.55 32.75 -24.5 26.4 -21.0 9.1 -13.65 -3.3" fill="#666666" fill-rule="evenodd" stroke="none"/>
  </g>
</svg>
