<?xml version="1.0" encoding="UTF-8" standalone="no"?>
<svg xmlns:xlink="http://www.w3.org/1999/xlink" height="34.8px" width="67.9px" xmlns="http://www.w3.org/2000/svg">
  <g transform="matrix(1.0, 0.0, 0.0, 1.0, 34.0, 13.9)">
    <path d="M27.9 13.85 L32.9 19.4 -23.0 19.9 27.9 13.85" fill="#5a7908" fill-rule="evenodd" stroke="none"/>
    <path d="M20.7 5.85 L27.9 13.85 -23.0 19.9 -9.9 10.8 -7.75 14.4 -3.75 11.15 0.25 14.15 4.25 10.15 7.2 6.15 8.5 10.9 12.0 5.9 14.05 8.9 16.75 4.65 18.75 9.65 20.7 5.85" fill="#7faf00" fill-rule="evenodd" stroke="none"/>
    <path d="M-9.9 10.8 L-1.75 5.15 4.25 10.15 0.25 14.15 -3.75 11.15 -7.75 14.4 -9.9 10.8 M7.2 6.15 L13.4 -2.25 20.7 5.85 18.75 9.65 16.75 4.65 14.05 8.9 12.0 5.9 8.5 10.9 7.2 6.15" fill="#d3f59b" fill-rule="evenodd" stroke="none"/>
    <path d="M-33.0 17.9 Q-30.9 12.95 -28.25 8.95 -21.4 -1.35 -10.6 -5.6 -7.9 -6.65 -5.0 -7.35" fill="none" stroke="#333333" stroke-linecap="round" stroke-linejoin="round" stroke-width="2.0"/>
    <path d="M20.7 5.85 L27.9 13.85 32.9 19.4 -23.0 19.9 -9.9 10.8 -1.75 5.15 4.25 10.15 7.2 6.15 13.4 -2.25 20.7 5.85" fill="none" stroke="#2d4307" stroke-linecap="round" stroke-linejoin="round" stroke-width="2.0"/>
    <path d="M3.95 -11.55 L4.2 -11.0 4.2 -11.05 Q4.2 -13.25 2.4 -12.85 L2.35 -12.8 2.8 -12.75 3.95 -11.55 M3.45 -12.95 Q4.35 -12.45 4.6 -11.7 5.05 -10.55 5.15 -9.25 27.35 -8.75 27.45 -7.8 27.4 -6.9 5.25 -6.0 5.1 -4.65 4.6 -3.65 L3.55 -2.35 2.1 -2.0 Q1.05 -1.95 0.4 -3.65 -0.25 -5.3 -0.25 -7.7 -0.3 -10.05 0.4 -11.7 1.05 -13.35 2.1 -13.4 L3.45 -12.95 M0.55 -10.75 L0.65 -10.45 1.0 -11.85 1.6 -12.55 Q0.55 -12.05 0.55 -10.75" fill="#e5e5e5" fill-rule="evenodd" stroke="none"/>
    <path d="M3.45 -12.95 L2.1 -13.4 Q1.05 -13.35 0.4 -11.7 -0.3 -10.05 -0.25 -7.7 -0.25 -5.3 0.4 -3.65 1.05 -1.95 2.1 -2.0 L3.55 -2.35 4.6 -3.65 Q5.1 -4.65 5.25 -6.0 27.4 -6.9 27.45 -7.8 27.35 -8.75 5.15 -9.25 5.05 -10.55 4.6 -11.7 4.35 -12.45 3.45 -12.95 Z" fill="none" stroke="#666666" stroke-linecap="round" stroke-linejoin="round" stroke-width="1.0"/>
  </g>
</svg>
