<?xml version="1.0" encoding="UTF-8" standalone="no"?>
<svg xmlns:xlink="http://www.w3.org/1999/xlink" height="32.05px" width="16.85px" xmlns="http://www.w3.org/2000/svg">
  <g transform="matrix(1.0, 0.0, 0.0, 1.0, -28.55, -22.9)">
    <path d="M36.7 54.95 L35.55 54.9 Q35.1 54.9 35.0 54.6 L33.85 54.75 Q32.6 54.75 32.3 54.35 L32.3 54.2 31.45 54.25 Q30.2 54.25 29.25 53.15 L28.55 52.15 Q28.55 50.3 30.8 50.85 32.85 51.3 33.0 53.05 L34.1 52.95 Q34.95 53.2 35.15 53.65 35.45 53.35 36.15 53.35 37.3 53.35 37.3 54.35 37.3 54.95 36.7 54.95 M40.1 53.2 Q40.1 51.55 42.2 51.05 L43.75 51.25 44.45 51.05 Q45.4 51.05 45.4 51.95 45.3 52.6 44.85 52.6 L44.35 52.4 44.3 52.45 44.3 52.9 Q44.3 53.35 44.0 53.45 L41.15 53.8 Q41.15 54.45 40.8 54.45 40.3 54.45 40.15 53.85 L40.1 53.2" fill="#dfe1e1" fill-rule="evenodd" stroke="none"/>
    <path d="M38.85 29.1 L39.35 31.75 Q39.35 32.6 38.5 34.7 37.65 36.8 37.3 36.8 35.85 36.8 35.85 34.4 L35.8 34.3 35.3 34.85 Q34.85 35.3 34.4 35.3 33.75 35.3 33.65 34.9 L33.65 34.4 Q33.65 33.5 34.2 31.65 L34.9 29.15 35.25 23.95 Q37.45 20.9 38.35 26.55 L38.85 29.1 M37.9 42.6 Q38.35 42.65 38.5 42.85 L39.0 43.45 39.05 43.6 39.35 43.55 Q40.1 43.55 40.1 44.4 40.1 45.1 39.2 45.1 L38.75 44.95 38.6 45.05 Q37.8 45.7 35.95 45.7 34.25 45.7 33.8 45.1 L33.65 44.45 Q33.65 43.9 34.3 43.15 35.0 42.3 35.85 42.0 L36.85 41.85 37.3 42.3 37.9 42.6" fill="#ffffff" fill-rule="evenodd" stroke="none"/>
  </g>
</svg>
