<?xml version="1.0" encoding="UTF-8" standalone="no"?>
<svg xmlns:xlink="http://www.w3.org/1999/xlink" height="64.15px" width="21.75px" xmlns="http://www.w3.org/2000/svg">
  <g transform="matrix(1.0, 0.0, 0.0, 1.0, -42.25, 0.1)">
    <path d="M42.4 -0.1 L63.5 -0.1 63.95 0.05 63.95 64.05 42.4 64.05 42.4 -0.1" fill="#7b8c9b" fill-rule="evenodd" stroke="none"/>
    <path d="M42.25 -0.1 L63.9 -0.1 63.9 62.25 42.25 62.25 42.25 -0.1" fill="#98a5b1" fill-rule="evenodd" stroke="none"/>
    <path d="M62.15 26.15 L62.15 60.6 44.1 60.6 44.1 26.15 62.15 26.15 Z" fill="none" stroke="#143463" stroke-linecap="round" stroke-linejoin="round" stroke-width="2.0"/>
    <path d="M44.1 47.65 L44.1 26.15 62.15 26.15 62.15 47.65 44.1 47.65" fill="#5e92df" fill-rule="evenodd" stroke="none"/>
    <path d="M62.15 47.65 L62.15 60.6 44.1 60.6 44.1 47.65 62.15 47.65" fill="#235baf" fill-rule="evenodd" stroke="none"/>
    <path d="M61.15 59.35 L61.15 60.65 56.9 60.65 56.9 59.35 61.15 59.35 M49.4 59.35 L49.4 60.65 45.2 60.65 45.2 59.35 49.4 59.35" fill="#1a4382" fill-rule="evenodd" stroke="none"/>
    <path d="M50.85 47.75 Q50.85 47.55 51.0 47.4 51.1 47.25 51.3 47.25 L51.65 47.4 51.75 47.75 51.75 60.5 51.65 60.85 51.3 61.0 51.0 60.85 50.85 60.5 50.85 47.75 M54.7 47.4 Q54.85 47.25 55.0 47.25 L55.35 47.4 55.5 47.75 55.5 60.5 55.35 60.85 55.0 61.0 54.7 60.85 54.55 60.5 54.55 47.75 Q54.55 47.55 54.7 47.4" fill="#999999" fill-rule="evenodd" stroke="none"/>
    <path d="M53.0 47.75 L53.0 60.8" fill="none" stroke="#143463" stroke-linecap="round" stroke-linejoin="round" stroke-width="0.5"/>
    <path d="M55.2 56.05 L61.3 56.05 M45.1 56.05 L51.2 56.05" fill="none" stroke="#999999" stroke-linecap="round" stroke-linejoin="round" stroke-width="1.0"/>
    <path d="M44.05 45.75 L44.0 45.7 44.0 45.6 44.0 45.5 44.05 45.5 62.4 45.5 62.4 45.75 44.05 45.75 M44.05 42.75 L44.0 42.7 44.0 42.6 44.0 42.5 44.05 42.5 62.4 42.5 62.4 42.75 44.05 42.75 M44.05 39.75 L44.0 39.7 44.0 39.6 44.0 39.5 44.05 39.5 62.4 39.5 62.4 39.75 44.05 39.75 M44.05 36.75 L44.0 36.7 44.0 36.6 44.0 36.5 44.05 36.5 62.4 36.5 62.4 36.75 44.05 36.75 M44.05 33.75 L44.0 33.7 44.0 33.6 44.0 33.5 44.05 33.5 62.4 33.5 62.4 33.75 44.05 33.75 M44.0 30.7 L44.0 30.6 44.0 30.5 44.05 30.5 62.4 30.5 62.4 30.75 44.05 30.75 44.0 30.7 M44.0 27.7 L44.0 27.6 44.0 27.5 44.05 27.5 62.4 27.5 62.4 27.75 44.05 27.75 44.0 27.7" fill="#3168bb" fill-rule="evenodd" stroke="none"/>
    <path d="M49.15 36.3 L49.3 36.3 49.6 36.3 49.55 36.4 49.9 36.35 49.85 36.25 49.8 36.2 49.8 36.15 49.55 35.65 49.4 35.75 49.3 35.55 49.45 34.8 49.95 32.75 50.3 32.85 50.45 32.7 50.35 32.2 50.25 32.3 50.25 32.25 50.7 31.5 50.9 31.55 50.95 31.35 51.1 31.55 51.1 31.6 51.4 31.6 51.35 31.75 51.45 31.75 51.45 31.95 51.4 32.0 51.4 31.9 51.25 31.85 51.1 31.9 51.1 32.0 51.4 32.0 51.4 32.05 51.65 32.0 51.65 31.9 51.7 31.9 51.75 31.85 51.85 31.85 51.85 31.95 52.0 32.05 52.2 31.95 52.55 31.85 52.5 32.0 52.35 32.35 52.45 32.35 52.4 32.4 52.35 32.6 52.25 32.4 52.2 32.3 52.1 32.35 52.05 32.6 52.15 32.55 52.1 32.75 52.35 32.7 52.35 32.6 52.6 32.6 52.55 32.35 52.7 32.4 53.0 32.3 52.95 32.05 53.05 31.9 53.0 31.8 52.85 31.7 Q52.65 31.65 52.55 31.85 L52.5 31.75 52.35 31.65 52.6 31.65 52.55 31.55 52.4 31.45 52.35 31.45 52.35 31.4 52.3 31.35 52.55 31.3 52.5 31.15 52.35 31.1 52.25 30.95 51.95 30.95 51.85 31.3 51.8 31.25 Q51.7 31.15 51.5 31.35 L51.45 31.3 51.3 31.3 51.35 31.2 51.45 31.1 51.4 30.95 51.6 30.85 51.55 30.75 51.5 30.7 52.05 30.5 52.5 30.75 53.1 30.3 53.55 30.35 53.4 30.35 53.35 30.55 53.65 30.5 53.6 30.35 54.25 30.5 54.55 30.6 54.7 30.7 54.8 30.6 55.15 30.75 55.25 30.85 55.25 30.9 55.3 30.9 55.5 31.0 Q56.75 31.65 58.0 33.15 L58.05 33.5 Q57.75 33.55 57.7 33.75 L57.6 33.8 57.55 34.0 57.9 34.0 57.8 34.6 58.55 34.8 58.15 36.4 57.45 36.1 57.35 36.75 58.05 36.85 57.65 38.6 57.0 38.25 56.6 39.85 53.65 40.75 53.4 40.65 53.0 40.75 52.55 40.75 52.2 40.7 52.1 40.7 51.7 40.35 Q51.5 40.3 51.45 40.55 L51.05 40.4 51.1 40.4 51.05 40.3 51.05 40.25 50.85 40.3 50.85 40.35 50.25 39.9 50.45 39.9 50.45 39.8 50.35 39.75 50.25 39.8 50.2 39.9 50.05 39.7 50.3 39.7 50.1 39.25 50.0 39.3 50.0 39.4 49.7 38.95 49.6 39.05 Q49.15 38.15 49.15 36.85 L49.15 36.3 49.25 35.8 49.4 35.8 Q49.15 35.9 49.2 36.1 L49.15 36.3 M53.05 38.4 L53.15 38.4 53.2 38.45 53.05 38.4 M50.3 39.0 L50.15 39.05 50.15 39.2 50.4 39.15 50.4 39.05 50.3 39.0 M50.25 38.65 L50.1 38.65 50.15 38.7 50.05 38.7 49.9 38.8 49.9 38.9 50.15 38.9 50.15 38.85 50.35 38.85 50.25 38.65 M50.1 37.75 L49.95 37.7 49.9 37.75 49.85 37.9 50.15 37.85 50.1 37.75 M56.3 36.8 L56.5 36.0 55.65 36.15 56.3 36.8 M57.8 33.8 L57.9 33.75 57.95 33.9 57.8 33.8 M53.8 37.0 L53.65 37.1 53.65 37.2 53.6 37.2 53.4 37.35 Q53.3 37.6 53.65 37.7 53.3 37.9 53.3 38.25 L53.1 38.15 52.95 38.3 52.95 38.7 53.0 38.65 53.0 38.7 53.05 38.95 52.9 39.25 52.85 39.45 53.1 39.45 53.35 40.0 Q53.75 40.45 54.4 40.35 L55.5 39.8 56.1 38.75 56.1 37.8 56.15 37.6 55.65 37.2 55.55 37.25 55.5 37.2 55.4 37.05 55.1 36.85 54.9 36.85 54.85 36.8 54.65 36.8 54.6 37.0 54.4 37.1 54.35 37.2 54.1 37.3 53.8 37.0 M53.5 36.55 L53.75 36.55 53.7 36.4 53.75 36.4 53.65 36.2 53.5 36.3 53.45 36.4 53.5 36.55 M51.2 34.25 L51.5 34.35 51.65 34.15 51.65 34.05 51.55 34.0 51.2 34.25 M53.05 33.85 L53.0 33.75 53.0 33.7 52.85 33.75 52.8 33.95 53.05 33.85 M52.5 33.4 L52.35 33.55 52.35 33.65 52.6 33.6 52.5 33.4 M52.05 32.9 L52.0 33.1 52.3 33.05 52.25 32.9 52.2 32.85 52.05 32.9 M51.15 32.65 L51.6 32.65 51.45 32.3 51.15 32.55 51.15 32.65 M51.05 32.2 L50.85 32.2 50.8 32.35 51.05 32.35 50.95 32.5 51.25 32.4 51.2 32.35 51.1 32.3 51.05 32.2 M51.7 31.55 L51.7 31.6 51.55 31.55 51.7 31.55 M52.0 32.4 L51.95 32.35 51.8 32.25 51.7 32.3 51.75 32.45 52.0 32.4 M51.9 31.6 L51.85 31.45 51.95 31.4 52.2 31.4 52.05 31.55 51.95 31.55 51.9 31.6 51.9 31.7 52.15 31.6 52.35 31.6 52.35 31.65 52.2 31.95 52.05 31.65 51.85 31.85 51.8 31.75 51.8 31.7 51.75 31.55 51.9 31.6 M52.3 31.35 L52.2 31.3 52.2 31.4 52.15 31.2 52.2 31.2 52.25 31.15 52.3 31.35 M52.8 31.4 L53.0 31.2 53.0 31.1 52.65 31.1 52.8 31.4 M55.0 31.65 Q54.4 31.9 54.25 32.7 54.1 33.4 54.55 34.15 L54.6 34.15 54.5 34.25 54.7 34.5 54.75 34.5 54.9 34.75 55.05 34.8 55.5 35.0 56.4 34.85 56.65 34.95 56.95 34.8 56.8 34.6 57.15 33.8 Q57.3 33.15 57.05 32.5 L56.15 31.65 Q55.55 31.35 55.0 31.65 M53.2 33.05 L53.3 32.8 52.95 32.45 52.65 32.75 52.6 32.8 52.55 32.8 52.45 32.85 52.4 33.0 52.75 32.95 52.75 32.9 52.8 33.15 53.0 33.05 53.0 33.0 53.2 33.05" fill="#ffffff" fill-opacity="0.7019608" fill-rule="evenodd" stroke="none"/>
    <path d="M63.0 45.0 L44.95 45.0 44.95 10.55 63.0 10.55 63.0 45.0 Z" fill="none" stroke="#143463" stroke-linecap="round" stroke-linejoin="round" stroke-width="2.0"/>
    <path d="M44.95 32.05 L44.95 10.55 63.0 10.55 63.0 32.05 44.95 32.05" fill="#5e92df" fill-rule="evenodd" stroke="none"/>
    <path d="M63.0 32.05 L63.0 45.0 44.95 45.0 44.95 32.05 63.0 32.05" fill="#235baf" fill-rule="evenodd" stroke="none"/>
    <path d="M62.0 45.05 L57.75 45.05 57.75 43.75 62.0 43.75 62.0 45.05 M50.25 45.05 L46.05 45.05 46.05 43.75 50.25 43.75 50.25 45.05" fill="#1a4382" fill-rule="evenodd" stroke="none"/>
    <path d="M52.5 31.8 L52.6 32.15 52.6 44.9 52.5 45.25 52.15 45.4 Q51.95 45.4 51.85 45.25 L51.7 44.9 51.7 32.15 Q51.7 31.95 51.85 31.8 51.95 31.65 52.15 31.65 L52.5 31.8 M55.4 32.15 L55.55 31.8 55.85 31.65 56.2 31.8 56.35 32.15 56.35 44.9 56.2 45.25 55.85 45.4 55.55 45.25 55.4 44.9 55.4 32.15" fill="#999999" fill-rule="evenodd" stroke="none"/>
    <path d="M53.85 32.15 L53.85 45.2" fill="none" stroke="#143463" stroke-linecap="round" stroke-linejoin="round" stroke-width="0.5"/>
    <path d="M56.05 40.45 L62.15 40.45 M45.95 40.45 L52.05 40.45" fill="none" stroke="#999999" stroke-linecap="round" stroke-linejoin="round" stroke-width="1.0"/>
    <path d="M44.9 27.15 L44.85 27.1 44.85 27.0 44.85 26.9 44.9 26.9 63.25 26.9 63.25 27.15 44.9 27.15 M44.85 29.9 L44.9 29.9 63.25 29.9 63.25 30.15 44.9 30.15 44.85 30.1 44.85 30.0 44.85 29.9 M63.25 11.9 L63.25 12.15 44.9 12.15 44.85 12.1 44.85 12.0 44.85 11.9 44.9 11.9 63.25 11.9 M63.25 14.9 L63.25 15.15 44.9 15.15 44.85 15.1 44.85 15.0 44.85 14.9 44.9 14.9 63.25 14.9 M63.25 17.9 L63.25 18.15 44.9 18.15 44.85 18.1 44.85 18.0 44.85 17.9 44.9 17.9 63.25 17.9 M63.25 20.9 L63.25 21.15 44.9 21.15 44.85 21.1 44.85 21.0 44.85 20.9 44.9 20.9 63.25 20.9 M63.25 23.9 L63.25 24.15 44.9 24.15 44.85 24.1 44.85 24.0 44.85 23.9 44.9 23.9 63.25 23.9" fill="#3168bb" fill-rule="evenodd" stroke="none"/>
    <path d="M57.15 21.2 L57.35 20.4 56.5 20.55 57.15 21.2 M53.9 22.8 L54.0 22.8 54.05 22.85 53.9 22.8 M51.15 23.4 L51.0 23.45 51.0 23.6 51.25 23.55 51.25 23.45 51.15 23.4 M51.1 23.05 L50.95 23.05 51.0 23.1 50.9 23.1 50.75 23.2 50.75 23.3 51.0 23.3 51.0 23.25 51.2 23.25 51.1 23.05 M50.95 22.15 L50.8 22.1 50.75 22.15 50.7 22.3 51.0 22.25 50.95 22.15 M54.5 21.6 L54.45 21.6 54.25 21.75 Q54.15 22.0 54.5 22.1 54.15 22.3 54.15 22.65 L53.95 22.55 53.8 22.7 53.8 23.1 53.85 23.05 53.85 23.1 53.9 23.35 53.75 23.65 53.7 23.85 53.95 23.85 54.2 24.4 Q54.6 24.85 55.25 24.75 L56.35 24.2 56.95 23.15 56.95 22.2 57.0 22.0 56.5 21.6 56.4 21.65 56.35 21.6 56.25 21.45 55.95 21.25 55.75 21.25 55.7 21.2 55.5 21.2 55.45 21.4 55.25 21.5 55.2 21.6 Q55.0 21.6 54.95 21.7 L54.65 21.4 54.5 21.5 54.5 21.6 M54.3 20.8 L54.35 20.95 54.6 20.95 54.55 20.8 54.6 20.8 54.5 20.6 54.35 20.7 54.3 20.8 M53.2 18.05 L53.45 18.0 53.35 17.8 53.2 17.95 53.2 18.05 M53.7 18.15 L53.65 18.35 53.9 18.25 53.85 18.15 53.85 18.1 53.7 18.15 M54.05 17.45 L54.15 17.2 53.8 16.85 53.5 17.15 53.45 17.2 53.4 17.2 53.3 17.25 53.25 17.4 53.6 17.35 53.6 17.3 53.65 17.55 53.85 17.45 53.85 17.4 54.05 17.45 M53.85 15.6 L53.85 15.5 53.5 15.5 53.65 15.8 53.85 15.6 M53.15 17.45 L53.1 17.3 53.05 17.25 52.9 17.3 52.85 17.5 53.15 17.45 M52.5 18.55 L52.5 18.45 52.4 18.4 Q52.05 18.4 52.05 18.65 L52.35 18.75 52.5 18.55 M52.8 16.75 L52.65 16.65 52.55 16.7 52.6 16.85 52.85 16.8 52.8 16.75 M52.3 16.7 L52.0 16.95 52.0 17.05 52.45 17.05 52.3 16.7 M52.1 16.8 L52.05 16.75 51.95 16.7 51.9 16.6 51.7 16.6 51.65 16.75 51.9 16.75 51.8 16.9 52.1 16.8 M52.55 15.95 L52.55 16.0 52.4 15.95 52.55 15.95 M52.75 16.0 L52.75 16.1 53.0 16.0 53.2 16.0 53.2 16.05 53.05 16.35 52.9 16.05 52.7 16.25 52.65 16.15 52.65 16.1 52.6 15.95 52.75 16.0 52.7 15.85 52.8 15.8 53.05 15.8 52.9 15.95 52.8 15.95 52.75 16.0 M53.15 15.75 L53.05 15.7 53.05 15.8 53.0 15.6 53.05 15.6 53.1 15.55 53.15 15.75 53.4 15.7 53.35 15.55 53.2 15.5 53.1 15.35 52.8 15.35 52.7 15.7 52.65 15.65 Q52.55 15.55 52.35 15.75 L52.3 15.7 52.15 15.7 52.2 15.6 52.3 15.5 52.25 15.35 52.45 15.25 52.4 15.15 52.35 15.1 Q52.55 14.95 52.9 14.9 L53.35 15.15 53.95 14.7 54.4 14.75 54.25 14.75 54.2 14.95 54.5 14.9 54.45 14.75 55.1 14.9 55.4 15.0 55.55 15.1 55.65 15.0 56.0 15.15 56.1 15.25 56.1 15.3 56.15 15.3 56.35 15.4 Q57.6 16.05 58.85 17.55 L58.9 17.9 Q58.6 17.95 58.55 18.15 L58.45 18.2 58.4 18.4 58.75 18.4 58.65 19.0 59.4 19.2 59.0 20.8 58.3 20.5 58.2 21.15 58.9 21.25 58.5 23.0 57.85 22.65 57.45 24.25 54.5 25.15 54.25 25.05 53.85 25.15 53.4 25.15 53.05 25.1 52.95 25.1 52.55 24.75 Q52.35 24.7 52.3 24.95 L51.9 24.8 51.95 24.8 51.9 24.7 51.9 24.65 51.7 24.7 51.7 24.75 51.1 24.3 51.3 24.3 51.3 24.2 51.2 24.15 51.1 24.2 51.05 24.3 50.9 24.1 51.15 24.1 50.95 23.65 50.85 23.7 50.85 23.8 50.55 23.35 50.45 23.45 Q50.0 22.55 50.0 21.25 L50.0 20.7 50.15 20.7 50.45 20.7 50.4 20.8 50.75 20.75 50.7 20.65 50.65 20.6 50.65 20.55 50.4 20.05 50.25 20.15 50.15 19.95 50.3 19.2 Q50.5 18.0 50.8 17.15 L51.15 17.25 51.3 17.1 51.2 16.6 51.1 16.7 51.1 16.65 51.55 15.9 51.75 15.95 51.8 15.75 51.95 15.95 51.95 16.0 52.25 16.0 52.2 16.15 52.3 16.15 52.3 16.35 52.25 16.4 52.25 16.3 52.1 16.25 51.95 16.3 51.95 16.4 52.25 16.4 52.25 16.45 52.5 16.4 52.5 16.3 52.55 16.3 52.6 16.25 52.7 16.25 52.7 16.35 52.85 16.45 53.05 16.35 53.4 16.25 53.35 16.4 53.2 16.75 53.3 16.75 53.25 16.8 53.2 17.0 53.1 16.8 53.05 16.7 52.95 16.75 52.9 17.0 53.0 16.95 52.95 17.15 53.2 17.1 53.2 17.0 53.45 17.0 53.4 16.75 53.55 16.8 Q53.55 16.7 53.85 16.7 L53.8 16.45 53.9 16.3 53.85 16.2 53.7 16.1 Q53.5 16.05 53.4 16.25 L53.35 16.15 53.2 16.05 53.45 16.05 53.4 15.95 53.25 15.85 53.2 15.85 53.2 15.8 53.15 15.75 M58.65 18.2 L58.75 18.15 58.8 18.3 58.65 18.2 M58.0 18.2 Q58.15 17.55 57.9 16.9 L57.0 16.05 Q56.4 15.75 55.85 16.05 55.25 16.3 55.1 17.1 54.95 17.8 55.4 18.55 L55.45 18.55 55.35 18.65 55.55 18.9 55.6 18.9 55.75 19.15 55.9 19.2 56.35 19.4 57.25 19.25 57.5 19.35 57.8 19.2 57.65 19.0 58.0 18.2 M50.0 20.7 L50.1 20.2 50.25 20.2 50.05 20.5 50.0 20.7" fill="#ffffff" fill-opacity="0.7019608" fill-rule="evenodd" stroke="none"/>
  </g>
</svg>
