<?xml version="1.0" encoding="UTF-8" standalone="no"?>
<svg xmlns:xlink="http://www.w3.org/1999/xlink" height="320.5px" width="459.95px" xmlns="http://www.w3.org/2000/svg">
  <g transform="matrix(1.0, 0.0, 0.0, 1.0, -174.15, -141.15)">
    <path d="M511.45 148.5 L511.45 149.2 524.35 149.25 530.4 149.1 535.9 148.85 570.45 148.85 574.05 148.7 577.95 148.55 599.85 148.6 599.85 149.2 606.3 149.25 610.6 149.05 624.2 148.85 624.2 149.7 626.65 149.8 629.35 149.8 629.35 154.1 628.15 154.05 Q628.4 155.0 627.95 157.3 627.9 159.1 629.35 160.2 L629.4 163.05 629.35 183.05 Q628.65 184.65 628.65 185.75 L629.35 188.4 628.15 188.4 628.15 202.65 628.65 202.65 Q628.65 205.35 628.8 206.35 L629.35 208.35 629.35 214.8 Q628.6 216.45 627.8 220.3 626.85 224.45 626.85 226.6 626.85 227.75 628.1 230.5 629.3 233.15 629.35 234.3 L629.35 244.8 628.95 246.95 627.45 252.55 627.45 257.2 629.35 257.3 629.35 262.65 Q628.35 264.35 627.4 267.8 626.15 272.15 626.15 274.6 L626.2 275.55 554.55 275.55 554.55 275.0 Q544.55 275.2 535.35 275.55 L499.95 275.55 499.95 275.0 493.0 274.9 492.9 275.35 491.1 275.35 491.2 275.55 453.1 275.55 452.05 275.2 452.05 272.95 451.4 272.95 451.4 272.15 444.35 272.1 443.9 272.35 443.1 272.65 443.1 273.9 442.4 273.9 442.05 274.35 441.15 274.75 441.15 275.0 Q431.75 274.9 430.65 275.05 L428.3 275.35 428.3 275.55 365.9 275.55 365.6 275.4 364.95 275.25 359.85 275.15 359.85 273.55 352.75 273.55 352.75 274.55 348.9 274.55 346.15 275.55 179.85 275.55 179.2 275.2 179.2 273.75 Q177.4 272.7 176.55 271.15 L176.55 261.95 177.4 261.95 177.4 245.5 Q176.8 244.85 176.55 243.85 L176.55 235.85 Q176.9 232.95 177.4 231.3 L177.4 223.95 177.9 223.95 177.9 218.35 Q177.4 217.75 177.4 216.5 L176.55 216.5 176.55 215.65 178.65 215.65 178.65 213.25 Q177.9 212.55 177.6 211.15 L177.4 209.5 177.45 208.0 177.9 206.05 177.9 190.95 176.55 190.95 176.55 190.05 177.9 190.05 177.9 180.75 176.55 177.3 176.55 171.55 177.4 171.55 Q177.4 170.7 177.9 170.2 L177.9 162.85 Q178.0 161.75 178.65 161.2 L178.65 154.05 Q178.15 152.75 178.0 150.25 179.45 149.25 181.05 148.5 L186.2 148.5 186.2 148.95 204.85 149.05 212.5 148.75 216.4 148.5 220.9 148.5 220.9 148.95 231.85 148.95 249.65 149.1 261.9 149.35 275.3 149.45 282.6 148.9 290.6 148.5 436.6 148.5 436.6 149.2 450.75 149.25 452.6 149.1 482.0 149.05 482.0 148.5 511.45 148.5" fill="#000000" fill-opacity="0.3019608" fill-rule="evenodd" stroke="none"/>
    <path d="M526.5 146.5 L532.55 146.35 538.0 146.1 572.6 146.05 576.2 145.9 580.15 145.8 602.05 145.85 602.05 146.45 608.45 146.5 612.8 146.25 626.4 146.05 626.4 146.85 628.85 147.0 631.55 147.0 631.55 151.35 630.35 151.3 Q630.6 152.25 630.15 154.55 630.05 156.3 631.55 157.45 L631.65 160.2 631.55 180.25 Q630.85 181.9 630.85 182.95 L631.55 185.6 630.35 185.6 630.35 199.85 630.85 199.85 Q630.85 202.6 631.0 203.55 L631.55 205.6 631.55 212.05 Q630.8 213.65 629.9 217.55 629.05 221.65 629.05 223.85 629.05 225.0 630.3 227.75 631.5 230.35 631.55 231.55 L631.55 242.05 631.2 244.1 629.6 249.8 629.6 254.45 631.55 254.5 631.55 259.85 Q630.55 261.6 629.6 265.05 628.35 269.4 628.35 271.85 L628.4 272.8 556.75 272.8 556.75 272.25 Q546.8 272.45 537.55 272.8 L502.2 272.8 502.2 272.25 495.15 272.15 495.1 272.6 493.2 272.6 493.4 272.8 455.3 272.8 454.15 272.45 454.15 270.1 453.55 270.1 453.55 269.4 446.6 269.35 446.0 269.6 445.25 269.85 445.25 271.15 444.6 271.15 444.25 271.55 443.35 272.0 443.35 272.25 Q433.95 272.15 432.85 272.3 L430.55 272.6 430.55 272.8 368.0 272.8 367.8 272.65 367.15 272.5 362.0 272.35 362.0 270.75 354.95 270.75 354.95 271.8 351.1 271.8 348.35 272.8 182.05 272.8 181.45 272.45 181.45 271.0 Q179.45 269.9 178.7 268.4 L178.7 259.2 179.45 259.2 179.45 242.75 Q179.0 242.1 178.7 241.1 L178.7 233.05 Q179.1 230.1 179.45 228.45 L179.45 221.2 180.1 221.2 180.1 215.6 Q179.45 215.0 179.45 213.75 L178.7 213.75 178.7 212.8 180.75 212.8 180.75 210.5 Q180.1 209.8 179.7 208.35 L179.45 206.65 179.65 205.25 180.1 203.25 180.1 188.15 178.7 188.15 178.7 187.2 180.1 187.3 180.1 178.0 178.7 174.5 178.7 168.8 179.45 168.8 Q179.45 167.95 180.1 167.35 L180.1 160.05 Q180.15 159.0 180.75 158.45 L180.75 151.3 Q180.3 149.95 180.15 147.45 181.7 146.5 183.25 145.75 L188.45 145.75 188.45 146.2 207.1 146.25 214.7 146.0 218.65 145.75 223.05 145.75 223.05 146.2 234.0 146.2 251.85 146.35 264.0 146.5 277.5 146.65 284.8 146.15 292.8 145.75 438.75 145.75 438.75 146.45 452.85 146.5 454.8 146.35 484.25 146.25 484.25 145.75 513.6 145.75 513.6 146.45 526.5 146.5" fill="#9dbc3c" fill-rule="evenodd" stroke="none"/>
    <path d="M532.5 145.45 L531.85 147.75 530.85 149.95 530.35 150.05 530.0 149.1 529.9 147.9 Q529.9 147.15 530.5 145.95 531.05 144.9 531.7 144.35 L532.3 144.6 Q532.5 144.75 532.5 145.45 M486.9 144.2 L487.3 144.2 488.05 145.95 488.6 147.7 488.5 148.25 488.05 148.75 Q487.6 148.35 487.25 147.2 486.8 146.05 486.8 145.15 L486.9 144.3 486.9 144.2 M610.95 145.2 Q611.15 145.45 611.15 146.2 611.15 147.45 608.7 152.8 L608.0 152.8 607.9 151.5 Q607.9 150.75 608.95 147.95 610.05 145.2 610.45 144.9 L610.95 145.2 M633.15 172.8 L633.35 173.45 633.1 174.0 632.25 174.1 629.8 173.85 Q628.1 173.6 627.9 173.35 L630.5 172.8 Q632.1 172.6 633.15 172.8 M632.7 170.0 L629.9 170.5 626.9 170.05 626.8 169.65 631.1 168.85 633.55 168.3 633.75 169.0 632.7 170.0 M634.1 196.25 L633.95 196.85 Q633.7 197.2 633.1 197.2 L630.85 196.65 628.3 195.95 Q628.1 196.5 628.1 195.45 628.1 192.9 634.1 196.25 M399.1 144.55 Q399.1 145.8 396.65 151.15 L395.95 151.15 395.85 149.85 Q395.85 149.15 396.9 146.35 398.0 143.55 398.4 143.25 L398.9 143.55 Q399.1 143.8 399.1 144.55 M369.9 144.9 L370.2 144.9 Q371.15 145.7 371.45 147.2 L372.0 149.7 371.35 150.35 Q370.55 149.5 370.05 148.0 369.6 146.7 369.6 145.6 369.6 145.0 369.9 144.9 M362.1 142.9 L363.75 149.95 363.05 150.85 Q362.8 150.7 362.0 148.1 L361.2 145.05 Q361.2 143.25 362.1 142.9 M324.6 142.65 L325.2 142.65 Q326.1 143.55 326.05 145.8 325.95 148.35 326.3 149.0 L325.9 149.25 325.1 149.25 Q324.45 145.9 324.45 143.75 L324.45 142.9 324.6 142.65 M393.65 151.2 L393.65 151.15 394.35 151.15 394.3 151.2 393.65 151.2 M472.75 144.8 Q472.75 144.1 473.15 143.95 L473.65 143.85 Q475.05 145.2 475.55 149.2 L475.55 149.25 473.95 149.25 473.4 147.6 472.75 144.8 M440.6 148.35 L440.5 148.9 440.15 148.85 Q439.3 148.35 439.0 146.8 L438.4 144.3 438.6 143.95 Q439.0 144.2 439.8 145.95 440.6 147.7 440.6 148.35 M473.1 150.0 L472.35 150.3 Q472.05 150.3 471.65 149.25 L473.25 149.25 473.1 150.0 M470.65 272.05 L470.5 275.0 Q470.2 276.65 469.25 277.5 L468.85 277.3 Q468.7 277.1 468.7 276.4 468.7 275.0 469.25 272.35 469.9 269.75 470.25 269.55 470.65 270.3 470.65 272.05 M457.55 270.55 Q458.4 271.35 458.8 273.6 459.3 276.2 459.75 277.15 L459.55 277.75 Q459.3 278.05 458.7 278.05 457.9 278.05 456.75 271.9 456.75 271.15 456.95 270.9 L457.55 270.55 M450.4 273.2 Q450.45 270.3 451.4 269.55 L451.75 274.1 451.95 278.6 451.25 279.25 450.7 279.0 Q450.55 278.8 450.55 278.05 L450.4 273.2 M401.95 270.9 Q402.05 270.7 402.55 270.55 403.4 271.35 403.8 273.6 404.3 276.2 404.75 277.15 L404.55 277.75 403.7 278.05 Q402.9 278.05 401.75 271.9 401.75 271.15 401.95 270.9 M395.4 273.2 Q395.45 270.3 396.4 269.55 L396.75 274.1 396.95 278.6 396.25 279.25 395.7 279.0 Q395.55 278.8 395.55 278.05 L395.4 273.2 M632.65 221.95 L631.9 222.6 626.0 222.6 Q625.85 222.55 625.85 221.9 L625.95 221.2 626.05 221.25 630.35 221.1 631.2 221.15 632.45 221.3 632.65 221.95 M632.25 228.3 L632.0 228.55 628.4 228.55 Q626.4 228.2 626.25 227.85 626.95 227.25 627.9 227.0 L631.55 226.8 632.1 226.9 Q632.3 226.9 632.3 227.65 L632.25 228.3 M606.7 272.05 Q607.0 269.35 608.0 268.75 L608.6 271.4 608.6 276.8 607.8 277.55 Q606.9 277.1 606.7 276.2 L606.65 274.85 Q606.55 273.35 606.7 272.05 M630.1 260.35 Q631.2 260.95 632.0 262.15 631.95 263.05 631.25 263.35 L629.35 262.15 627.8 261.05 Q628.6 259.65 630.1 260.35 M488.95 271.0 L489.3 270.95 490.25 270.95 490.65 274.05 491.4 277.3 491.15 277.85 Q490.9 278.2 490.3 278.2 L489.55 278.1 489.5 277.95 488.95 274.5 488.65 271.75 Q488.65 271.05 488.95 271.0 M531.7 276.85 L531.65 275.5 Q531.55 274.05 531.7 272.7 532.0 270.0 533.0 269.4 533.35 270.1 533.6 272.1 L533.6 277.45 532.8 278.2 Q531.9 277.8 531.7 276.85 M202.1 144.75 Q202.1 147.3 201.7 149.75 L201.4 149.95 200.85 150.35 200.1 149.65 Q199.95 149.4 199.95 148.6 199.95 142.4 201.25 141.15 L201.9 143.1 202.1 144.75 M182.95 156.75 L181.85 157.05 179.4 156.85 177.35 156.4 Q178.1 155.65 179.05 155.3 180.6 154.7 182.7 155.3 L183.15 155.45 183.45 156.2 182.95 156.75 M175.7 192.35 Q175.7 191.5 177.4 190.95 L182.15 190.55 182.25 190.5 182.4 191.3 Q182.4 192.0 180.4 192.55 L176.55 193.05 175.9 193.0 175.9 192.85 Q175.7 193.4 175.7 192.35 M286.6 144.75 Q286.6 147.3 286.2 149.75 L285.9 149.95 285.35 150.35 284.6 149.65 Q284.45 149.4 284.45 148.6 284.45 142.4 285.75 141.15 286.2 141.8 286.4 143.1 L286.6 144.75 M312.1 145.4 L311.7 148.75 310.95 148.85 310.8 148.55 310.75 147.7 311.05 145.9 311.3 144.05 311.9 144.05 312.05 144.45 312.1 145.4 M322.8 149.25 L323.6 149.25 322.85 149.45 322.8 149.25 M317.75 270.55 Q319.25 271.35 319.95 274.9 L320.3 277.0 320.35 278.2 320.3 279.0 320.2 279.15 319.65 279.4 Q318.7 278.15 318.25 275.45 L317.55 270.9 317.75 270.55 M294.45 270.75 Q294.45 272.1 293.75 274.6 L292.75 278.35 Q292.55 278.6 292.15 278.65 L291.5 278.5 291.4 277.6 Q291.4 276.7 292.2 273.5 293.15 270.0 293.75 269.4 L294.3 269.75 294.45 270.75 M183.25 213.65 Q183.25 215.4 176.55 217.15 L175.9 217.05 175.9 216.9 Q175.7 217.5 175.7 216.4 175.7 215.95 178.85 214.35 182.05 212.7 183.05 212.8 L183.2 212.95 183.25 213.65 M185.7 271.1 L185.75 271.85 177.85 276.4 177.05 275.85 Q177.55 275.0 180.7 272.95 184.2 270.7 185.55 271.15 L185.7 271.1 M179.75 253.6 L178.35 253.75 176.7 254.15 175.9 254.1 Q175.7 254.0 175.7 253.25 175.7 252.45 177.2 252.05 L179.75 252.0 179.95 252.7 179.75 253.6 M179.55 259.35 L179.75 260.05 178.7 261.1 175.55 261.1 Q174.45 260.9 174.15 260.55 176.05 258.15 176.8 258.1 177.4 258.1 179.55 259.35 M206.25 269.15 Q207.75 270.0 208.45 273.5 L208.8 275.65 208.85 276.85 208.8 277.65 208.7 277.8 208.15 278.05 Q207.2 276.75 206.75 274.1 L206.05 269.5 206.25 269.15" fill="#586a21" fill-rule="evenodd" stroke="none"/>
    <path d="M482.0 331.3 L482.0 330.75 511.45 330.75 511.45 331.45 524.35 331.5 530.4 331.35 535.9 331.1 570.45 331.1 574.05 330.95 577.95 330.8 599.85 330.85 599.85 331.45 606.3 331.5 610.6 331.3 624.2 331.1 624.2 331.95 626.65 332.05 629.35 332.05 629.35 336.35 628.15 336.3 Q628.4 337.25 627.95 339.55 627.9 341.35 629.35 342.45 L629.4 345.3 629.35 365.3 Q628.65 366.9 628.65 368.0 L629.35 370.65 628.15 370.65 628.15 384.9 628.65 384.9 Q628.65 387.6 628.8 388.6 L629.35 390.6 629.35 397.05 Q628.6 398.7 627.8 402.55 626.85 406.7 626.85 408.85 626.85 410.0 628.1 412.75 629.3 415.4 629.35 416.55 L629.35 427.05 628.95 429.2 627.45 434.8 627.45 439.45 629.35 439.55 629.35 444.9 Q628.35 446.6 627.4 450.05 626.15 454.4 626.15 456.85 L626.2 457.8 554.55 457.8 554.55 457.25 Q544.55 457.45 535.35 457.8 L499.95 457.8 499.95 457.25 493.0 457.15 492.9 457.6 491.1 457.6 491.2 457.8 453.1 457.8 452.05 457.45 452.05 455.2 451.4 455.2 451.4 454.4 444.35 454.35 443.9 454.6 443.1 454.9 443.1 456.15 442.4 456.15 442.05 456.6 441.15 457.0 441.15 457.25 Q431.75 457.15 430.65 457.3 L428.3 457.6 428.3 457.8 365.9 457.8 365.6 457.65 364.95 457.5 359.85 457.4 359.85 455.8 352.75 455.8 352.75 456.8 348.9 456.8 346.15 457.8 179.85 457.8 179.2 457.45 179.2 456.0 Q177.4 454.95 176.55 453.4 L176.55 444.2 177.4 444.2 177.4 427.75 Q176.8 427.1 176.55 426.1 L176.55 418.1 Q176.9 415.2 177.4 413.55 L177.4 406.2 177.9 406.2 177.9 400.6 Q177.4 400.0 177.4 398.75 L176.55 398.75 176.55 397.9 178.65 397.9 178.65 395.5 Q177.9 394.8 177.6 393.4 L177.4 391.75 177.45 390.25 177.9 388.3 177.9 373.2 176.55 373.2 176.55 372.3 177.9 372.3 177.9 363.0 176.55 359.55 176.55 353.8 177.4 353.8 Q177.4 352.95 177.9 352.45 L177.9 345.1 Q178.0 344.0 178.65 343.45 L178.65 336.3 Q178.15 335.0 178.0 332.5 179.45 331.5 181.05 330.75 L186.2 330.75 186.2 331.2 204.85 331.3 212.5 331.0 216.4 330.75 220.9 330.75 220.9 331.2 231.85 331.2 249.65 331.35 261.9 331.6 275.3 331.7 282.6 331.15 290.6 330.75 436.6 330.75 436.6 331.45 450.75 331.5 452.6 331.35 482.0 331.3" fill="#000000" fill-opacity="0.3019608" fill-rule="evenodd" stroke="none"/>
    <path d="M484.25 328.5 L484.25 328.0 513.6 328.0 513.6 328.7 526.5 328.75 532.55 328.6 538.0 328.35 572.6 328.3 576.2 328.15 580.15 328.05 602.05 328.1 602.05 328.7 608.45 328.75 612.8 328.5 626.4 328.3 626.4 329.1 628.85 329.25 631.55 329.25 631.55 333.6 630.35 333.55 Q630.6 334.5 630.15 336.8 630.05 338.55 631.55 339.7 L631.65 342.45 631.55 362.5 Q630.85 364.15 630.85 365.2 L631.55 367.85 630.35 367.85 630.35 382.1 630.85 382.1 Q630.85 384.85 631.0 385.8 L631.55 387.85 631.55 394.3 Q630.8 395.9 629.9 399.8 629.05 403.9 629.05 406.1 629.05 407.25 630.3 410.0 631.5 412.6 631.55 413.8 L631.55 424.3 631.2 426.35 629.6 432.05 629.6 436.7 631.55 436.75 631.55 442.1 Q630.55 443.85 629.6 447.3 628.35 451.65 628.35 454.1 L628.4 455.05 556.75 455.05 556.75 454.5 Q546.8 454.7 537.55 455.05 L502.2 455.05 502.2 454.5 495.15 454.4 495.1 454.85 493.2 454.85 493.4 455.05 455.3 455.05 454.15 454.7 454.15 452.35 453.55 452.35 453.55 451.65 446.6 451.6 446.0 451.85 445.25 452.1 445.25 453.4 444.6 453.4 444.25 453.8 443.35 454.25 443.35 454.5 Q433.95 454.4 432.85 454.55 L430.55 454.85 430.55 455.05 368.0 455.05 367.8 454.9 367.15 454.75 362.0 454.6 362.0 453.0 354.95 453.0 354.95 454.05 351.1 454.05 348.35 455.05 182.05 455.05 181.45 454.7 181.45 453.25 Q179.45 452.15 178.7 450.65 L178.7 441.45 179.45 441.45 179.45 425.0 Q179.0 424.35 178.7 423.35 L178.7 415.3 Q179.1 412.35 179.45 410.7 L179.45 403.45 180.1 403.45 180.1 397.85 Q179.45 397.25 179.45 396.0 L178.7 396.0 178.7 395.05 180.75 395.05 180.75 392.75 Q180.1 392.05 179.7 390.6 L179.45 388.9 179.65 387.5 180.1 385.5 180.1 370.4 178.7 370.4 178.7 369.45 180.1 369.55 180.1 360.25 178.7 356.75 178.7 351.05 179.45 351.05 Q179.45 350.2 180.1 349.6 L180.1 342.3 Q180.15 341.25 180.75 340.7 L180.75 333.55 Q180.3 332.2 180.15 329.7 181.7 328.75 183.25 328.0 L188.45 328.0 188.45 328.45 207.1 328.5 214.7 328.25 218.65 328.0 223.05 328.0 223.05 328.45 234.0 328.45 251.85 328.6 264.0 328.75 277.5 328.9 284.8 328.4 292.8 328.0 438.75 328.0 438.75 328.7 452.85 328.75 454.8 328.6 484.25 328.5" fill="#f7e06d" fill-rule="evenodd" stroke="none"/>
    <path d="M369.6 327.85 Q369.6 327.25 369.9 327.15 L370.2 327.15 Q371.15 327.95 371.45 329.45 L372.0 331.95 371.35 332.6 Q370.55 331.75 370.05 330.25 369.6 328.95 369.6 327.85 M395.95 333.4 L395.85 332.1 Q395.85 331.4 396.9 328.6 398.0 325.8 398.4 325.5 L398.9 325.8 Q399.1 326.05 399.1 326.8 399.1 328.05 396.65 333.4 L395.95 333.4 M394.35 333.4 L394.3 333.45 393.65 333.45 393.65 333.4 394.35 333.4 M325.1 331.5 Q324.45 328.15 324.45 326.0 L324.45 325.15 324.6 324.9 325.2 324.9 Q326.1 325.8 326.05 328.05 325.95 330.6 326.3 331.25 L325.9 331.5 325.1 331.5 M362.1 325.15 L363.75 332.2 363.05 333.1 Q362.8 332.95 362.0 330.35 L361.2 327.3 Q361.2 325.5 362.1 325.15 M473.15 326.2 L473.65 326.1 Q475.05 327.45 475.55 331.45 L475.55 331.5 473.95 331.5 473.4 329.85 472.75 327.05 Q472.75 326.35 473.15 326.2 M471.65 331.5 L473.25 331.5 473.1 332.25 472.35 332.55 Q472.05 332.55 471.65 331.5 M440.5 331.15 L440.15 331.1 Q439.3 330.6 439.0 329.05 L438.4 326.55 438.6 326.2 Q439.0 326.45 439.8 328.2 440.6 329.95 440.6 330.6 L440.5 331.15 M532.5 327.7 L531.85 330.0 530.85 332.2 530.35 332.3 530.0 331.35 529.9 330.15 Q529.9 329.4 530.5 328.2 531.05 327.15 531.7 326.6 L532.3 326.85 Q532.5 327.0 532.5 327.7 M486.9 326.55 L486.9 326.45 487.3 326.45 488.05 328.2 488.6 329.95 488.5 330.5 488.05 331.0 Q487.6 330.6 487.25 329.45 486.8 328.3 486.8 327.4 L486.9 326.55 M608.7 335.05 L608.0 335.05 607.9 333.75 Q607.9 333.0 608.95 330.2 610.05 327.45 610.45 327.15 L610.95 327.45 Q611.15 327.7 611.15 328.45 611.15 329.7 608.7 335.05 M633.75 351.25 L632.7 352.25 629.9 352.75 626.9 352.3 626.8 351.9 631.1 351.1 633.55 350.55 633.75 351.25 M630.5 355.05 Q632.1 354.85 633.15 355.05 L633.35 355.7 633.1 356.25 632.25 356.35 629.8 356.1 Q628.1 355.85 627.9 355.6 L630.5 355.05 M633.1 379.45 L630.85 378.9 628.3 378.2 Q628.1 378.75 628.1 377.7 628.1 375.15 634.1 378.5 L633.95 379.1 Q633.7 379.45 633.1 379.45 M179.4 339.1 L177.35 338.65 Q178.1 337.9 179.05 337.55 180.6 336.95 182.7 337.55 L183.15 337.7 183.45 338.45 182.95 339.0 181.85 339.3 179.4 339.1 M201.7 332.0 L201.4 332.2 200.85 332.6 200.1 331.9 Q199.95 331.65 199.95 330.85 199.95 324.65 201.25 323.4 L201.9 325.35 202.1 327.0 Q202.1 329.55 201.7 332.0 M175.7 374.6 Q175.7 373.75 177.4 373.2 L182.15 372.8 182.25 372.75 182.4 373.55 Q182.4 374.25 180.4 374.8 L176.55 375.3 175.9 375.25 175.9 375.1 Q175.7 375.65 175.7 374.6 M183.25 395.9 Q183.25 397.65 176.55 399.4 L175.9 399.3 175.9 399.15 Q175.7 399.75 175.7 398.65 175.7 398.2 178.85 396.6 182.05 394.95 183.05 395.05 L183.2 395.2 183.25 395.9 M286.4 325.35 L286.6 327.0 Q286.6 329.55 286.2 332.0 L285.9 332.2 285.35 332.6 284.6 331.9 Q284.45 331.65 284.45 330.85 284.45 324.65 285.75 323.4 286.2 324.05 286.4 325.35 M322.8 331.5 L323.6 331.5 322.85 331.7 322.8 331.5 M312.1 327.65 L311.7 331.0 310.95 331.1 310.8 330.8 310.75 329.95 311.05 328.15 311.3 326.3 311.9 326.3 312.05 326.7 312.1 327.65 M319.95 457.15 L320.3 459.25 320.35 460.45 320.3 461.25 320.2 461.4 319.65 461.65 Q318.7 460.4 318.25 457.7 L317.55 453.15 317.75 452.8 Q319.25 453.6 319.95 457.15 M294.3 452.0 L294.45 453.0 Q294.45 454.35 293.75 456.85 L292.75 460.6 Q292.55 460.85 292.15 460.9 L291.5 460.75 291.4 459.85 Q291.4 458.95 292.2 455.75 293.15 452.25 293.75 451.65 L294.3 452.0 M179.75 435.85 L178.35 436.0 176.7 436.4 175.9 436.35 Q175.7 436.25 175.7 435.5 175.7 434.7 177.2 434.3 L179.75 434.25 179.95 434.95 179.75 435.85 M176.8 440.35 Q177.4 440.35 179.55 441.6 L179.75 442.3 178.7 443.35 175.55 443.35 Q174.45 443.15 174.15 442.8 176.05 440.4 176.8 440.35 M180.7 455.2 Q184.2 452.95 185.55 453.4 L185.7 453.35 185.75 454.1 177.85 458.65 177.05 458.1 Q177.55 457.25 180.7 455.2 M208.45 455.75 L208.8 457.9 208.85 459.1 208.8 459.9 208.7 460.05 208.15 460.3 Q207.2 459.0 206.75 456.35 L206.05 451.75 206.25 451.4 Q207.75 452.25 208.45 455.75 M632.65 404.2 L631.9 404.85 626.0 404.85 Q625.85 404.8 625.85 404.15 L625.95 403.45 626.05 403.5 630.35 403.35 631.2 403.4 632.45 403.55 632.65 404.2 M632.1 409.15 Q632.3 409.15 632.3 409.9 L632.25 410.55 632.0 410.8 628.4 410.8 Q626.4 410.45 626.25 410.1 626.95 409.5 627.9 409.25 L631.55 409.05 632.1 409.15 M632.0 444.4 Q631.95 445.3 631.25 445.6 L629.35 444.4 627.8 443.3 Q628.6 441.9 630.1 442.6 631.2 443.2 632.0 444.4 M606.7 454.3 Q607.0 451.6 608.0 451.0 L608.6 453.65 608.6 459.05 607.8 459.8 Q606.9 459.35 606.7 458.45 L606.65 457.1 Q606.55 455.6 606.7 454.3 M488.65 454.0 Q488.65 453.3 488.95 453.25 L489.3 453.2 490.25 453.2 490.65 456.3 491.4 459.55 491.15 460.1 Q490.9 460.45 490.3 460.45 L489.55 460.35 489.5 460.2 488.95 456.75 488.65 454.0 M531.7 459.1 L531.65 457.75 Q531.55 456.3 531.7 454.95 532.0 452.25 533.0 451.65 533.35 452.35 533.6 454.35 L533.6 459.7 532.8 460.45 Q531.9 460.05 531.7 459.1 M468.85 459.55 Q468.7 459.35 468.7 458.65 468.7 457.25 469.25 454.6 469.9 452.0 470.25 451.8 470.65 452.55 470.65 454.3 L470.5 457.25 Q470.2 458.9 469.25 459.75 L468.85 459.55 M456.95 453.15 L457.55 452.8 Q458.4 453.6 458.8 455.85 459.3 458.45 459.75 459.4 L459.55 460.0 Q459.3 460.3 458.7 460.3 457.9 460.3 456.75 454.15 456.75 453.4 456.95 453.15 M451.75 456.35 L451.95 460.85 451.25 461.5 450.7 461.25 Q450.55 461.05 450.55 460.3 L450.4 455.45 Q450.45 452.55 451.4 451.8 L451.75 456.35 M396.75 456.35 L396.95 460.85 396.25 461.5 395.7 461.25 Q395.55 461.05 395.55 460.3 L395.4 455.45 Q395.45 452.55 396.4 451.8 L396.75 456.35 M402.55 452.8 Q403.4 453.6 403.8 455.85 404.3 458.45 404.75 459.4 L404.55 460.0 403.7 460.3 Q402.9 460.3 401.75 454.15 401.75 453.4 401.95 453.15 402.05 452.95 402.55 452.8" fill="#665918" fill-rule="evenodd" stroke="none"/>
  </g>
</svg>
