<?xml version="1.0" encoding="UTF-8" standalone="no"?>
<svg xmlns:xlink="http://www.w3.org/1999/xlink" height="28.8px" width="20.95px" xmlns="http://www.w3.org/2000/svg">
  <g transform="matrix(1.0, 0.0, 0.0, 1.0, -16.45, -0.05)">
    <path d="M30.5 11.4 L25.6 10.25 24.6 10.25 25.7 14.1 Q26.2 15.75 26.2 16.9 26.2 18.4 24.55 18.55 L23.8 18.5 24.0 18.9 25.5 22.2 24.65 24.45 Q23.75 26.3 23.4 26.3 22.45 26.3 22.25 25.45 L22.2 24.55 Q22.2 23.7 22.8 22.65 L23.4 21.3 22.95 20.15 22.5 18.7 22.5 18.45 20.15 18.3 Q19.95 18.9 20.2 20.75 20.2 21.4 19.3 21.4 L16.55 21.05 Q16.45 21.1 16.45 20.6 L16.55 20.15 19.1 20.0 Q18.45 17.7 19.9 16.65 20.75 16.0 23.05 15.25 L23.0 10.05 Q23.0 9.15 23.15 8.8 23.4 8.1 24.3 8.1 L26.25 8.4 28.85 8.9 29.05 8.85 Q26.3 1.65 26.3 1.1 26.3 0.05 27.1 0.1 L35.0 0.05 35.6 0.6 Q35.6 1.2 34.5 1.45 32.8 1.8 27.8 1.55 L30.65 5.85 Q32.0 7.95 32.0 9.95 32.0 11.4 30.5 11.4 M28.65 23.2 Q30.1 22.95 30.65 20.9 L31.1 17.6 Q31.15 16.45 33.35 15.85 35.55 15.25 35.55 14.8 L35.45 11.35 Q37.1 11.3 37.35 13.5 L37.25 15.75 Q37.25 16.9 35.35 17.4 33.25 17.95 32.7 19.9 L32.5 22.3 Q32.05 23.8 29.25 24.1 L30.25 25.5 30.5 26.7 Q30.5 27.15 29.5 28.0 28.5 28.85 27.9 28.85 27.35 28.85 27.2 28.5 L27.15 28.15 Q27.15 27.95 27.65 27.5 L28.1 26.8 Q27.4 24.55 27.4 24.1 27.4 23.35 28.65 23.2" fill="#ffffff" fill-rule="evenodd" stroke="none"/>
  </g>
</svg>
