<?xml version="1.0" encoding="UTF-8" standalone="no"?>
<svg xmlns:xlink="http://www.w3.org/1999/xlink" height="37.4px" width="31.85px" xmlns="http://www.w3.org/2000/svg">
  <g transform="matrix(1.0, 0.0, 0.0, 1.0, 0.1, 0.05)">
    <path d="M9.3 12.85 L9.3 12.7 9.4 12.45 9.45 12.6 9.3 12.85" fill="#55a901" fill-rule="evenodd" stroke="none"/>
    <path d="M17.0 -0.05 L25.6 0.0 31.05 0.0 31.5 0.0 31.55 0.05 31.65 0.15 31.65 0.25 31.75 0.3 31.75 0.4 31.7 0.5 31.65 0.55 31.65 0.7 Q31.65 1.1 30.75 1.35 L30.45 1.5 30.0 1.75 26.1 3.05 25.15 3.35 23.95 3.65 23.55 3.8 19.95 5.3 17.75 7.2 Q16.0 8.45 12.85 8.45 L11.9 8.45 10.7 8.25 10.45 8.25 10.05 8.15 9.8 8.35 Q7.85 8.75 6.95 10.9 6.4 12.15 6.35 13.65 L7.2 16.35 Q7.65 17.9 7.65 20.05 7.65 21.2 6.95 23.45 6.15 26.05 5.0 26.5 L5.3 28.2 Q5.3 29.75 4.35 32.4 2.95 36.3 0.6 36.3 0.25 36.3 0.2 35.95 L-0.05 37.35 0.0 33.1 0.0 31.85 0.05 0.45 -0.1 0.4 -0.1 0.3 -0.1 0.15 -0.05 0.05 0.05 0.0 0.4 -0.05 0.9 0.0 8.45 -0.05 17.0 -0.05 M20.75 2.2 L20.7 2.2 20.7 2.25 20.75 2.2 M4.6 18.35 L4.55 18.45 4.6 18.4 4.6 18.35 M0.9 32.6 L0.85 32.6 0.8 32.8 0.9 32.6" fill="#effafa" fill-rule="evenodd" stroke="none"/>
  </g>
</svg>
