<?xml version="1.0" encoding="UTF-8" standalone="no"?>
<svg xmlns:xlink="http://www.w3.org/1999/xlink" height="110.75px" width="84.95px" xmlns="http://www.w3.org/2000/svg">
  <g transform="matrix(1.0, 0.0, 0.0, 1.0, 0.0, 0.0)">
    <path d="M74.0 110.75 Q69.45 110.75 66.25 108.2 63.15 105.75 63.05 102.3 L63.05 95.4 Q63.15 98.85 66.25 101.25 69.45 103.8 74.0 103.8 78.55 103.8 81.75 101.25 84.85 98.85 84.95 95.4 L84.95 102.3 Q84.85 105.75 81.75 108.2 78.55 110.75 74.0 110.75 M10.2 84.9 L9.9 84.9 0.0 75.0 0.5 72.5 10.65 81.85 10.65 81.9 10.7 81.9 22.3 81.9 22.3 81.95 30.3 81.95 30.3 81.9 62.95 81.9 63.3 81.9 73.0 72.15 73.3 73.95 73.3 74.85 63.3 84.9 63.25 84.9 27.0 84.9 10.2 84.9 M27.4 45.95 L30.0 45.95 30.0 46.05 29.85 61.65 29.85 61.7 27.25 61.7 27.25 61.65 27.4 46.05 27.4 45.95 M27.55 0.0 L30.15 0.0 30.15 13.45 26.85 16.8 26.85 23.1 30.15 27.35 30.05 38.55 30.05 38.7 27.45 38.7 27.45 38.55 27.55 28.35 24.25 24.1 24.25 15.8 27.55 12.45 27.55 0.0" fill="#ffffff" fill-rule="evenodd" stroke="none"/>
  </g>
</svg>
