<?xml version="1.0" encoding="UTF-8" standalone="no"?>
<svg xmlns:xlink="http://www.w3.org/1999/xlink" height="22.7px" width="14.65px" xmlns="http://www.w3.org/2000/svg">
  <g transform="matrix(1.0, 0.0, 0.0, 1.0, -67.75, 32.0)">
    <path d="M80.95 -30.0 L80.65 -29.15 79.5 -28.95 77.4 -29.45 75.8 -29.25 Q75.1 -29.25 73.4 -30.1 71.75 -31.0 70.4 -31.0 69.65 -31.0 69.3 -29.9 L69.05 -28.65 Q69.05 -27.95 70.6 -26.3 L72.6 -24.3 M72.9 -23.6 L75.25 -22.55 74.75 -21.75 Q74.75 -20.6 75.55 -19.5 L76.0 -18.95 Q76.5 -18.4 77.0 -18.35 L80.1 -17.7 M76.0 -18.95 Q75.75 -18.35 75.75 -16.15 L75.8 -13.4 78.05 -11.75 Q78.95 -11.1 79.8 -10.8 L80.95 -10.5 80.8 -10.8" fill="none" stroke="#ffffff" stroke-linecap="round" stroke-linejoin="miter" stroke-miterlimit="3.0" stroke-width="2.0"/>
  </g>
</svg>
