<?xml version="1.0" encoding="UTF-8" standalone="no"?>
<svg xmlns:xlink="http://www.w3.org/1999/xlink" height="14.05px" width="12.3px" xmlns="http://www.w3.org/2000/svg">
  <g transform="matrix(1.0, 0.0, 0.0, 1.0, -45.75, -13.85)">
    <path d="M48.25 21.15 Q49.75 20.2 51.9 20.2 54.05 20.2 55.55 21.15 57.05 22.15 57.05 23.55 57.05 24.95 55.55 25.9 54.05 26.9 51.9 26.9 49.75 26.9 48.25 25.9 46.75 24.95 46.75 23.55 46.75 22.15 48.25 21.15 Z" fill="none" stroke="#333333" stroke-linecap="round" stroke-linejoin="round" stroke-width="2.0"/>
    <path d="M48.25 21.15 Q49.75 20.2 51.9 20.2 54.05 20.2 55.55 21.15 57.05 22.15 57.05 23.55 57.05 24.95 55.55 25.9 54.05 26.9 51.9 26.9 49.75 26.9 48.25 25.9 46.75 24.95 46.75 23.55 46.75 22.15 48.25 21.15" fill="#bcbcbc" fill-rule="evenodd" stroke="none"/>
    <path d="M49.2 17.6 L49.2 21.4 Q49.2 22.55 50.0 23.35 50.8 24.15 51.95 24.15 53.1 24.15 53.9 23.35 54.7 22.55 54.7 21.4 L54.7 17.6 Q54.7 16.45 53.9 15.65 53.1 14.85 51.95 14.85 50.8 14.85 50.0 15.65 49.2 16.45 49.2 17.6 Z" fill="none" stroke="#ff0000" stroke-linecap="round" stroke-linejoin="round" stroke-width="2.0"/>
    <path d="M49.2 21.4 L49.2 17.6 Q49.2 16.45 50.0 15.65 50.8 14.85 51.95 14.85 53.1 14.85 53.9 15.65 54.7 16.45 54.7 17.6 L54.7 21.4 Q54.7 22.55 53.9 23.35 53.1 24.15 51.95 24.15 50.8 24.15 50.0 23.35 49.2 22.55 49.2 21.4" fill="#ff4848" fill-rule="evenodd" stroke="none"/>
    <path d="M49.85 20.95 L49.85 18.05 Q49.85 17.15 50.5 16.55 51.1 15.95 51.95 15.95 52.85 15.95 53.45 16.55 54.05 17.15 54.05 18.05 L54.05 20.95 Q54.05 21.8 53.45 22.45 52.85 23.05 51.95 23.05 51.1 23.05 50.5 22.45 49.85 21.8 49.85 20.95" fill="#ffaeae" fill-rule="evenodd" stroke="none"/>
    <path d="M51.1 18.55 Q51.1 18.0 51.35 17.7 L51.95 17.25 52.65 17.7 52.85 18.55 52.85 20.45 52.65 21.35 51.95 21.75 51.35 21.35 51.1 20.45 51.1 18.55" fill="#ffffff" fill-rule="evenodd" stroke="none"/>
  </g>
</svg>
