<?xml version="1.0" encoding="UTF-8" standalone="no"?>
<svg xmlns:xlink="http://www.w3.org/1999/xlink" height="31.85px" width="126.4px" xmlns="http://www.w3.org/2000/svg">
  <g transform="matrix(1.0, 0.0, 0.0, 1.0, 105.25, 18.75)">
    <path d="M-15.45 -11.4 Q-9.75 -18.15 -1.15 -18.7 7.5 -19.3 14.0 -13.35 20.5 -7.3 21.1 1.75 L21.05 5.7 Q12.25 3.65 2.0 2.9 -10.25 2.0 -20.6 3.15 -20.75 -5.1 -15.45 -11.4" fill="#bf7926" fill-rule="evenodd" stroke="none"/>
    <path d="M-82.6 -13.45 Q-72.65 -14.1 -65.2 -8.2 -57.75 -2.25 -57.15 6.8 L-57.1 7.75 Q-69.3 5.45 -84.55 7.75 -95.8 9.45 -104.75 13.1 L-105.2 9.9 Q-105.8 0.85 -99.2 -6.0 -92.55 -12.8 -82.6 -13.45" fill="#bf7926" fill-rule="evenodd" stroke="none"/>
  </g>
</svg>
