<?xml version="1.0" encoding="UTF-8" standalone="no"?>
<svg xmlns:xlink="http://www.w3.org/1999/xlink" height="12.15px" width="17.95px" xmlns="http://www.w3.org/2000/svg">
  <g transform="matrix(1.0, 0.0, 0.0, 1.0, -0.2, 0.6)">
    <path d="M12.0 -0.6 L12.15 -0.55 12.3 -0.45 12.4 -0.3 12.5 -0.15 12.5 -0.1 12.5 0.0 12.45 0.05 12.4 0.1 12.35 0.2 12.3 0.25 12.25 0.3 11.9 0.2 11.6 0.1 11.45 -0.15 11.45 -0.25 11.45 -0.35 11.5 -0.4 11.6 -0.5 11.75 -0.55 11.9 -0.6 12.0 -0.6 M15.4 0.3 L15.4 0.25 15.5 0.25 15.6 0.35 15.6 0.5 15.5 0.6 15.3 0.6 15.25 0.55 15.25 0.5 15.25 0.4 15.35 0.35 15.4 0.3 M15.35 4.45 Q14.65 4.3 14.85 3.6 15.0 3.1 15.5 3.05 16.25 3.15 16.15 3.85 16.1 4.6 15.35 4.45 M14.25 0.35 L14.1 0.6 13.85 0.45 Q13.75 0.25 14.0 0.2 14.2 0.15 14.25 0.35 M12.9 0.4 L13.0 0.45 13.1 0.6 13.2 0.75 13.15 0.8 13.15 0.9 13.15 1.0 13.1 1.05 12.95 1.2 12.85 1.25 12.7 1.25 12.6 1.25 12.4 1.2 12.3 1.15 12.25 1.25 Q12.15 1.5 11.85 1.55 11.4 1.65 11.15 1.3 L10.85 1.35 10.25 1.15 10.15 0.8 Q10.2 0.4 10.6 0.2 L10.9 0.15 11.3 0.15 11.6 0.3 11.9 0.4 12.25 0.55 12.25 0.5 12.35 0.4 12.45 0.35 12.6 0.35 12.7 0.35 12.9 0.4 M11.3 2.4 Q11.8 2.3 12.1 2.7 12.4 3.1 12.25 3.55 L11.65 4.15 10.95 4.0 10.25 3.95 Q9.9 3.65 10.05 3.25 10.25 2.75 10.75 2.55 L11.3 2.4 M10.5 4.6 L10.7 4.65 10.8 4.75 10.9 4.8 10.95 4.85 10.95 4.95 11.0 5.1 11.0 5.35 10.85 5.55 10.65 5.7 10.3 5.6 10.1 5.5 9.9 5.2 9.9 5.0 9.95 4.9 10.0 4.85 10.05 4.75 10.25 4.65 10.4 4.6 10.5 4.6 M12.3 6.4 L12.2 6.5 12.1 6.55 11.6 6.6 11.25 6.4 10.8 6.45 10.3 6.7 10.0 6.65 9.95 6.55 9.9 6.5 9.9 6.45 9.9 6.35 9.95 6.3 10.05 6.15 10.2 6.05 10.4 5.95 10.9 5.85 11.0 5.85 11.15 5.9 11.25 5.95 11.3 6.0 11.3 5.95 11.35 5.9 11.45 5.85 11.6 5.8 11.7 5.8 11.9 5.85 12.05 5.95 12.2 6.1 12.3 6.3 12.3 6.4 12.4 6.35 12.6 6.25 12.8 6.2 12.9 6.2 13.05 6.25 13.1 6.35 13.15 6.4 13.2 6.55 13.1 6.7 12.9 6.85 12.25 6.75 12.2 6.7 12.2 6.65 12.2 6.55 12.25 6.5 12.3 6.4 M14.1 4.3 L13.65 4.15 13.45 4.3 13.3 4.3 13.1 4.25 12.95 4.15 12.8 4.05 12.75 3.85 12.75 3.75 12.85 3.5 13.05 3.3 13.3 3.2 13.4 3.2 13.6 3.25 13.7 3.35 13.8 3.45 13.8 3.4 14.0 3.3 14.1 3.3 14.3 3.35 14.4 3.45 14.5 3.6 14.6 3.75 14.55 3.95 14.1 4.3 M13.4 7.95 L13.5 8.0 13.55 8.1 13.45 8.2 13.4 8.3 13.1 8.5 12.8 8.65 12.7 8.65 12.55 8.6 12.45 8.5 12.4 8.45 12.35 8.4 12.35 8.25 12.45 8.1 12.8 7.9 13.1 7.85 13.2 7.85 13.3 7.9 13.4 7.95 M13.45 8.25 L13.6 8.15 13.8 8.2 13.95 8.4 13.8 8.6 13.6 8.65 13.45 8.6 13.4 8.5 13.35 8.45 13.35 8.4 13.45 8.25 M15.15 8.0 L15.25 8.1 15.3 8.25 15.35 8.3 15.3 8.45 15.0 8.65 Q14.8 8.65 14.65 8.5 L14.55 8.4 14.55 8.3 14.55 8.25 14.6 8.15 14.75 8.0 14.9 7.95 15.0 7.95 15.15 8.0 M11.3 7.8 L11.6 7.8 11.8 7.85 11.95 7.95 12.05 8.1 12.1 8.15 12.05 8.2 12.0 8.35 11.95 8.4 12.25 8.45 12.3 8.5 12.25 8.55 11.85 8.5 11.4 8.7 10.95 8.55 10.9 8.55 10.9 8.6 10.75 8.8 10.0 9.05 9.8 8.95 9.1 9.2 8.6 8.9 8.45 9.0 7.9 9.0 7.65 8.85 7.45 8.8 7.15 8.8 6.85 9.25 6.6 9.5 6.8 9.7 6.95 9.95 6.95 10.0 6.9 10.05 6.85 10.25 6.65 10.45 6.05 10.45 5.3 10.8 Q4.3 11.2 3.7 10.45 L3.65 10.5 3.6 10.55 3.5 10.7 3.4 10.85 3.15 11.05 3.0 11.05 2.8 11.0 2.7 10.95 2.6 10.9 2.55 10.8 2.55 10.85 2.35 11.1 2.05 11.25 1.9 11.25 Q1.75 11.5 1.3 11.55 0.4 11.6 0.25 10.9 0.1 10.15 0.8 10.05 1.3 10.0 1.6 10.3 L1.85 10.15 2.0 10.1 2.1 10.1 2.3 10.15 2.4 10.25 2.5 10.4 2.55 10.45 2.5 10.35 2.55 10.15 2.65 10.0 2.75 9.9 2.85 9.85 2.9 9.85 Q2.85 9.6 3.15 9.3 L4.35 8.7 4.8 8.6 5.15 8.65 Q5.3 8.35 5.7 8.25 L5.8 8.2 5.8 8.1 5.9 7.9 6.55 7.4 7.3 7.2 7.9 7.3 8.3 7.7 8.35 7.9 8.55 7.8 8.75 7.75 8.9 7.7 9.1 7.75 9.4 7.95 9.45 8.0 9.45 7.95 9.55 7.9 9.75 7.8 9.9 7.8 10.1 7.8 10.45 7.9 Q10.65 7.95 10.75 8.1 L10.85 8.2 10.9 8.1 10.95 8.05 11.05 7.9 11.15 7.85 11.3 7.8 M18.15 8.35 L18.0 8.6 17.75 8.45 17.9 8.25 18.15 8.35 M16.4 8.2 L16.55 8.3 16.5 8.4 16.35 8.3 Q16.3 8.2 16.4 8.2 M9.15 2.95 L9.25 3.05 9.3 3.1 9.4 3.25 9.4 3.35 9.35 3.4 9.25 3.55 8.85 3.5 8.75 3.3 8.7 3.25 8.7 3.2 8.7 3.1 8.75 3.05 8.85 2.95 9.0 2.9 9.15 2.95 M8.5 4.65 Q9.05 4.6 9.25 5.1 9.45 5.55 9.15 5.95 L9.15 6.0 9.4 5.95 9.6 6.0 9.7 6.05 9.8 6.15 Q10.0 6.5 9.65 6.85 L8.6 6.9 8.5 6.55 8.45 6.55 7.7 6.45 7.6 6.2 7.6 5.65 7.75 5.05 8.3 4.7 8.5 4.65 M9.1 9.3 L9.25 9.3 9.35 9.35 9.55 9.5 9.65 9.75 9.6 9.85 9.35 10.05 8.6 10.0 8.45 9.7 8.45 9.65 8.5 9.55 8.55 9.5 8.6 9.4 8.7 9.35 8.9 9.3 9.1 9.3" fill="#ffffff" fill-rule="evenodd" stroke="none"/>
  </g>
</svg>
