<?xml version="1.0" encoding="UTF-8" standalone="no"?>
<svg xmlns:xlink="http://www.w3.org/1999/xlink" height="90.85px" width="74.25px" xmlns="http://www.w3.org/2000/svg">
  <g transform="matrix(1.0, 0.0, 0.0, 1.0, 10.15, 27.2)">
    <path d="M62.1 17.45 Q62.1 17.85 61.3 17.85 L60.6 17.85 Q60.45 17.8 60.45 17.4 60.45 16.7 62.0 17.25 L62.05 17.2 62.1 17.45 M61.05 21.45 L60.75 21.2 Q60.75 20.9 61.05 20.7 L61.5 21.05 61.05 21.45 M55.8 15.6 Q55.6 15.6 55.35 15.75 L54.8 15.15 Q54.8 14.5 55.35 14.6 55.85 14.65 55.85 15.25 L55.8 15.6 M55.5 19.25 L56.4 19.65 55.65 20.1 54.8 20.3 Q54.35 20.3 54.05 19.95 L53.85 19.55 53.85 19.4 52.4 19.35 52.35 18.9 Q52.35 18.0 54.25 18.5 54.45 18.25 54.95 18.7 L55.35 18.8 55.3 19.0 55.5 19.2 55.5 19.25 M56.55 21.9 L56.55 21.85 Q56.55 21.35 57.3 20.85 56.75 20.75 56.6 20.5 L56.55 20.15 56.75 19.7 57.85 19.65 58.8 19.85 59.25 20.25 59.25 20.35 59.75 20.4 59.85 21.0 59.75 21.3 59.3 21.5 58.8 20.95 58.85 20.7 58.65 20.75 58.65 21.0 58.6 21.25 59.1 21.6 58.95 21.75 59.75 21.75 Q61.05 21.95 61.05 22.45 L60.7 23.0 59.9 23.1 Q58.85 23.1 58.5 22.65 L58.4 22.3 58.45 22.1 57.45 22.7 57.1 22.6 Q56.6 22.65 56.45 22.9 L56.25 23.05 56.15 23.2 57.2 23.15 57.6 23.25 57.7 23.25 57.75 23.55 57.6 23.8 56.7 23.9 55.5 23.65 Q55.5 24.05 52.2 24.75 L51.3 24.45 51.3 24.2 Q52.05 23.25 53.75 22.95 L54.4 22.9 54.3 22.8 54.65 22.45 54.45 22.1 54.55 21.8 54.45 21.6 54.35 21.3 Q54.35 20.6 55.0 20.6 55.65 20.6 55.65 21.15 L55.6 21.55 Q56.2 21.6 56.55 21.9 L56.4 22.3 56.85 22.35 56.85 22.1 56.7 22.1 Q56.55 22.2 56.55 21.9 M59.45 19.0 L59.4 19.4 58.8 19.5 57.45 19.25 58.15 18.55 59.4 18.6 59.45 19.0 M55.8 24.55 L55.65 25.1 55.0 25.2 54.3 25.2 54.2 24.75 Q54.2 24.4 54.85 24.3 55.4 24.15 55.8 24.3 L55.8 24.55 M59.3 24.65 L59.4 24.9 59.25 25.2 58.8 25.2 Q58.65 25.3 58.65 24.9 L58.7 24.6 58.95 24.6 59.3 24.65 M55.5 25.5 L55.55 25.8 55.5 26.1 55.15 26.25 54.6 26.0 Q54.5 26.15 54.5 25.8 54.5 25.5 55.5 25.5 M55.65 34.8 L56.15 38.5 Q56.15 41.2 55.95 41.85 L55.75 42.5 55.7 42.6 54.85 43.8 55.25 44.3 55.2 44.75 54.8 45.0 Q54.25 45.0 54.15 44.6 L54.15 44.35 Q53.6 44.75 52.85 45.0 L52.65 45.15 54.35 46.6 Q54.95 47.2 54.95 47.85 55.0 48.95 55.4 49.4 L55.55 49.6 Q55.65 49.35 55.9 49.35 L56.55 49.85 56.45 50.25 56.0 50.45 55.8 50.3 55.8 50.45 55.8 50.7 55.9 50.7 56.15 50.8 56.15 50.7 Q56.45 50.35 57.05 50.5 L56.9 50.4 57.65 49.8 57.95 50.25 57.45 50.7 57.35 50.65 57.4 50.7 57.45 51.0 57.35 51.3 57.6 51.45 57.65 51.65 57.6 52.05 56.8 52.2 56.25 52.1 56.15 51.9 55.9 51.9 55.8 51.9 55.8 52.1 55.35 52.65 54.8 52.8 54.2 52.8 54.2 52.7 53.85 52.8 53.85 53.1 Q54.3 53.25 54.3 53.9 54.3 54.75 53.4 54.75 52.85 54.75 52.6 54.3 L52.5 53.9 Q52.5 53.55 52.65 53.35 L52.65 53.1 52.7 52.95 52.35 52.95 52.5 53.4 52.35 53.75 52.15 53.95 52.2 54.15 51.9 54.85 51.4 55.25 51.4 55.5 Q51.5 55.35 51.8 55.3 L52.15 55.35 52.8 55.35 52.9 55.5 52.95 55.8 Q52.95 56.4 52.2 56.55 L52.35 56.9 52.05 57.4 51.1 57.45 50.55 57.4 50.2 57.7 50.25 57.7 Q50.75 57.8 50.75 58.35 L50.7 58.7 50.25 58.95 49.7 58.35 49.8 57.95 49.15 58.15 48.45 58.65 48.45 58.85 Q48.45 59.45 47.55 59.45 L47.1 59.4 Q46.95 59.35 46.95 59.0 46.95 58.65 47.3 58.5 L47.8 58.45 47.25 57.9 46.8 57.1 46.8 57.0 45.9 56.3 45.3 56.45 Q44.85 56.45 44.65 56.1 L44.6 55.75 44.65 55.4 44.0 54.95 43.35 55.2 Q43.05 55.2 42.8 54.85 L42.65 54.45 42.7 54.2 40.5 54.3 40.25 54.9 40.5 55.45 40.2 56.05 39.75 56.3 Q39.7 56.95 39.25 57.0 L39.3 57.15 39.75 57.15 39.8 57.6 39.8 57.7 40.05 57.7 Q40.8 57.75 40.8 58.35 L40.7 58.8 40.2 58.95 Q39.3 58.95 39.3 58.2 L39.3 58.15 39.15 58.2 39.15 58.85 39.75 59.1 39.75 59.75 39.15 60.0 Q38.7 60.0 38.65 59.5 L36.5 59.9 Q33.9 59.9 32.75 59.2 31.65 58.5 30.95 58.5 30.45 58.5 30.0 58.15 29.55 57.75 29.15 57.75 L26.05 58.0 25.9 58.15 25.1 58.35 26.25 58.95 25.8 59.4 Q26.15 59.4 26.15 59.95 26.15 60.6 25.2 60.75 L24.75 60.65 24.65 60.25 Q24.65 59.8 25.15 59.55 24.4 59.55 23.95 59.2 L23.7 58.8 Q23.7 58.35 24.1 58.25 L23.8 58.05 23.7 57.7 23.7 57.65 23.45 57.3 23.0 57.35 22.5 56.85 22.55 56.75 21.5 57.0 20.9 56.85 20.85 56.4 20.85 56.35 20.55 56.2 20.55 56.25 20.0 56.4 19.5 56.25 Q19.35 56.1 19.35 55.75 19.35 55.0 20.45 55.35 L20.55 55.55 20.95 55.2 20.7 54.9 20.6 54.9 Q20.0 54.9 19.95 54.3 L19.3 54.5 19.5 55.05 Q19.5 55.7 18.9 55.7 18.45 55.7 18.35 55.4 L18.3 55.1 18.4 54.7 18.25 54.75 17.6 54.95 Q16.95 54.95 16.95 54.35 L17.05 54.05 16.3 54.1 16.55 54.45 16.1 54.9 15.6 54.5 16.05 54.1 15.6 54.15 15.45 54.3 15.6 54.7 Q15.6 55.5 15.05 55.5 14.65 55.5 14.5 55.15 L14.45 54.75 Q14.45 54.3 14.95 54.25 L14.95 54.2 14.45 54.25 13.5 54.35 13.35 54.4 13.2 54.45 12.55 54.45 12.45 54.45 12.4 54.45 11.9 54.45 11.85 54.45 11.35 54.25 11.25 54.15 11.0 54.6 10.55 54.75 9.9 54.45 9.35 54.95 9.9 54.95 9.9 55.65 9.5 55.85 9.1 55.4 8.85 55.4 Q8.6 55.4 8.4 55.2 L8.4 54.85 8.35 54.75 6.65 54.95 Q6.2 54.95 5.95 54.6 L5.9 54.5 5.6 54.6 5.1 54.15 Q5.1 53.45 6.35 53.55 L6.5 53.5 6.35 53.4 6.05 52.65 6.1 52.55 5.4 52.8 5.3 52.8 5.25 53.0 4.95 53.25 4.35 52.85 4.2 52.45 4.25 52.1 4.65 52.2 4.65 51.65 4.85 50.85 4.15 50.55 Q4.0 50.85 3.5 50.85 2.5 50.85 2.7 50.15 L2.25 50.25 1.7 49.7 Q1.7 49.05 2.55 49.35 L2.25 48.2 1.6 48.35 1.05 48.3 1.05 47.8 Q1.05 47.3 1.7 47.3 L1.7 47.1 Q1.7 46.6 2.65 46.65 L2.7 46.65 2.25 46.55 2.15 46.15 Q2.15 45.35 3.3 45.65 L3.4 45.8 3.45 45.95 3.85 45.75 4.05 45.7 Q4.05 45.45 4.2 45.35 L4.05 45.15 Q4.45 44.45 5.4 44.55 L5.45 44.6 5.65 44.45 5.9 44.4 5.35 43.75 4.65 42.6 Q4.3 42.55 4.05 42.3 L4.1 41.95 3.95 41.75 3.85 41.75 Q3.1 41.75 3.0 41.05 3.0 40.6 3.4 40.6 L3.35 40.35 3.15 40.4 Q2.55 40.4 2.55 39.8 2.55 39.35 3.4 39.2 L4.15 39.35 4.25 39.2 4.2 39.2 4.1 38.85 Q4.1 38.4 4.45 38.35 L5.3 38.4 5.35 38.35 5.4 38.4 5.9 38.05 5.7 37.75 5.6 37.4 Q5.6 37.1 6.3 36.8 L6.55 36.7 6.7 36.35 6.3 36.3 Q6.15 36.15 6.15 35.8 6.15 35.4 7.0 35.15 L6.6 35.1 6.6 34.7 Q6.6 34.15 7.0 34.0 L6.75 32.85 Q6.75 30.95 9.1 29.95 12.2 28.55 17.55 30.45 L21.45 30.45 27.6 32.1 Q33.55 33.5 37.15 33.5 L40.1 33.25 42.9 32.25 51.15 31.2 Q52.3 31.2 53.85 32.35 55.5 33.55 55.65 34.8 M55.35 45.55 Q55.85 45.55 56.45 46.05 L56.5 46.0 56.55 46.25 Q56.55 46.6 55.5 46.8 L54.85 46.45 54.8 46.1 Q54.8 45.5 55.35 45.55 M57.45 47.7 L58.5 47.4 Q59.55 47.2 60.05 47.4 L60.15 47.4 60.3 47.6 60.45 47.6 60.15 47.2 Q60.15 46.85 60.55 46.7 L61.9 46.55 62.3 46.25 Q62.85 46.2 63.45 46.95 L63.35 47.3 62.85 47.4 62.5 47.4 61.4 47.7 60.95 47.7 60.9 47.85 61.65 48.7 61.8 48.9 61.35 49.15 61.4 49.65 61.35 50.1 60.5 50.3 59.65 50.2 59.7 50.3 59.7 50.7 58.85 50.85 58.8 50.45 59.05 50.1 59.2 50.0 Q58.95 49.75 59.0 49.4 L59.15 49.35 58.65 49.35 Q57.6 49.35 57.5 48.9 L57.2 48.9 56.7 48.55 56.7 48.8 56.45 49.2 56.1 49.35 55.5 48.9 Q55.5 48.2 56.1 48.2 L56.6 48.4 56.55 48.15 56.6 47.75 57.45 47.75 57.45 47.7 M60.35 49.1 L60.4 49.1 60.35 49.1 M61.9 48.65 L61.85 48.65 61.85 48.6 61.9 48.65 62.1 48.5 62.45 48.0 62.7 48.0 62.8 48.1 62.85 48.35 62.75 48.65 62.3 48.8 61.9 48.65 M7.95 21.45 Q8.1 21.6 7.7 21.6 L7.3 21.45 7.05 21.15 Q7.45 20.65 7.95 20.85 L7.95 21.45 M3.65 34.8 L3.3 35.15 2.85 34.7 2.95 34.5 Q3.1 34.35 3.45 34.5 L3.65 34.8 M4.0 38.1 L3.75 38.45 Q3.45 38.85 3.0 38.75 L2.55 38.3 2.6 38.1 2.55 38.1 2.25 38.25 1.65 37.7 1.65 37.4 2.55 37.4 2.6 37.7 2.6 37.95 2.85 37.5 3.3 37.45 3.3 37.4 Q3.3 37.05 3.95 36.9 4.55 36.75 4.55 37.35 4.55 37.8 4.0 38.1 M1.2 39.95 Q1.35 39.25 1.95 38.95 2.55 38.6 2.55 39.6 2.55 40.2 2.0 40.2 L1.2 39.95 M1.5 40.7 L1.75 40.3 2.6 40.35 2.7 40.7 2.6 41.1 2.0 41.3 1.5 40.7 M2.25 47.8 L2.25 47.7 2.25 47.8 M39.15 61.1 Q39.75 61.1 39.75 61.6 39.75 62.3 39.15 62.3 38.75 62.3 38.65 61.95 L38.55 61.6 Q38.55 61.1 39.15 61.1 M22.5 55.5 L22.3 55.75 22.0 56.0 22.55 56.7 22.65 56.45 23.3 56.55 23.25 56.4 Q23.25 56.05 23.5 55.95 L23.45 55.65 23.5 55.45 23.15 55.3 23.1 55.35 22.65 55.5 22.5 55.5 M23.65 61.55 L24.3 61.85 Q24.15 62.3 23.8 62.3 L23.4 62.25 23.25 61.85 Q23.25 61.5 23.65 61.55 M30.1 62.7 Q30.45 62.55 30.9 62.7 L31.0 62.85 31.05 63.15 Q31.05 63.6 30.5 63.6 L29.9 63.6 Q29.75 63.45 29.75 63.1 29.75 62.8 30.1 62.7 M26.7 62.75 Q26.7 63.3 26.05 63.3 L25.75 63.25 25.7 63.3 25.5 63.3 25.05 62.9 25.1 62.6 25.2 62.6 Q25.3 62.1 26.55 62.3 L26.7 62.75 M33.7 62.9 Q34.05 62.75 34.35 62.9 L34.4 63.2 34.35 63.6 33.5 63.65 33.35 63.2 Q33.35 63.0 33.7 62.9 M18.45 54.35 L18.45 54.6 18.65 54.45 18.45 54.35 M12.2 54.75 Q12.65 54.65 13.05 55.3 L12.9 55.7 12.75 55.75 Q12.7 56.3 12.0 56.3 11.45 56.3 11.3 56.0 L11.25 55.7 Q11.25 55.1 11.85 55.0 L12.2 54.75 M11.25 58.35 L10.95 59.0 10.2 59.3 9.65 59.2 9.55 59.6 9.1 59.7 Q7.65 59.7 7.65 59.0 7.65 58.6 8.0 58.4 L7.65 58.25 7.65 58.0 Q7.75 57.4 8.75 57.75 L8.85 58.05 8.8 58.25 Q9.2 58.3 9.4 58.5 9.6 58.2 10.3 57.95 11.25 57.55 11.25 58.35 M10.4 60.95 L9.85 61.05 9.1 60.9 8.7 60.6 9.35 60.25 10.55 60.45 10.65 60.6 10.4 60.95 M12.15 59.35 Q12.75 59.25 12.8 59.9 L12.75 60.3 12.3 60.5 11.7 60.35 Q11.55 60.35 11.55 60.0 11.55 59.45 12.15 59.35 M9.6 54.0 L9.65 53.8 8.85 53.85 8.9 53.9 9.6 54.0 M9.3 55.0 L9.15 55.05 9.15 55.1 Q9.2 55.0 9.3 55.0 M2.75 49.6 L2.6 49.4 2.7 49.75 2.7 49.95 2.75 49.6 M2.85 52.1 Q2.7 52.05 2.7 51.7 L2.9 51.3 3.8 51.2 3.9 51.35 3.95 51.7 Q3.95 52.2 3.35 52.2 L2.85 52.1 M3.7 54.95 L4.5 55.2 4.55 55.4 Q4.55 56.0 3.1 56.0 L2.45 55.95 2.4 55.45 Q2.4 54.65 3.6 54.95 L3.65 54.9 3.7 54.95 M3.9 56.7 Q3.75 56.7 3.75 56.35 3.75 56.05 4.1 55.95 L4.5 56.3 4.35 56.7 3.9 56.7 M2.85 57.7 L3.0 57.75 3.15 58.25 Q3.15 58.85 2.3 58.85 L1.8 58.8 1.7 58.4 1.95 57.95 Q2.2 57.7 2.6 57.7 L2.25 57.35 Q2.7 57.4 2.7 56.85 L3.15 57.35 2.85 57.7 M5.05 58.05 Q5.75 58.0 5.95 58.35 6.35 57.85 7.25 58.1 L7.4 58.35 Q7.05 58.6 6.4 58.65 L6.0 58.7 Q5.95 59.1 5.4 59.1 3.85 59.1 3.45 58.65 4.05 58.05 5.05 58.05 M2.25 59.4 Q2.25 59.0 2.7 59.0 L3.15 59.4 2.7 59.85 2.3 59.7 2.25 59.4 M6.6 60.15 Q6.25 60.65 5.75 60.65 L5.25 60.6 5.15 60.15 4.65 59.6 Q4.65 59.35 4.9 59.2 L5.55 59.25 5.65 59.4 5.7 59.6 Q6.05 59.7 6.6 60.15 L6.45 60.0 6.45 59.7 Q6.55 59.5 6.9 59.55 L7.35 60.0 6.9 60.45 6.6 60.15 M7.85 57.0 L7.35 56.9 7.25 56.45 Q7.25 56.1 7.5 56.05 L8.25 56.1 8.35 56.15 8.4 56.5 Q8.4 57.0 7.85 57.0 M5.55 56.15 L4.7 56.1 4.65 55.6 Q4.65 54.75 6.95 55.4 L6.85 55.95 5.55 56.15 M55.8 55.65 L55.7 55.75 55.4 55.8 55.05 55.7 54.95 55.7 54.9 55.4 54.95 55.1 55.65 55.1 55.8 55.45 55.8 55.65 M57.15 52.8 L57.3 53.25 56.85 53.6 56.45 53.2 56.55 52.8 57.15 52.8 M59.55 53.3 L59.1 53.55 58.8 53.45 58.65 53.3 58.55 52.8 Q58.55 52.4 58.95 52.4 L59.6 52.85 59.55 53.3 M51.85 52.9 L51.95 52.9 51.6 52.8 51.6 53.0 51.85 52.9 M57.45 61.8 L56.85 61.55 56.85 61.1 Q56.85 60.8 57.15 60.6 L58.05 60.5 58.1 60.95 57.45 61.8 M59.2 61.0 L58.8 61.25 Q58.1 61.25 58.1 60.5 58.1 59.95 58.75 59.95 59.4 59.95 59.4 60.6 L59.2 61.0 M41.3 54.75 L41.5 54.8 Q41.6 54.65 41.9 54.6 42.35 54.55 42.5 55.05 L42.45 55.5 42.0 55.65 41.85 55.65 Q41.7 56.15 41.25 56.15 L40.7 55.8 40.7 55.45 Q40.7 54.75 41.3 54.75 M43.35 57.15 L43.25 57.15 43.1 57.15 42.6 57.05 42.5 56.7 42.7 56.3 Q42.8 55.85 43.35 55.85 44.0 55.85 44.0 56.5 44.0 57.15 43.35 57.15 M43.05 57.9 L42.65 58.05 42.05 57.55 Q42.05 57.3 42.4 57.2 L43.05 57.35 43.05 57.9 M41.15 59.8 L41.25 59.55 41.25 59.45 41.35 59.15 41.4 59.0 42.3 59.1 Q43.05 58.95 43.05 59.65 L42.55 60.15 41.85 60.35 41.2 60.1 41.15 59.8 M44.55 59.5 L44.4 59.1 44.4 58.65 Q45.65 58.5 45.75 59.3 L45.65 59.7 45.15 59.85 Q44.8 59.85 44.55 59.5" fill="#e9c572" fill-rule="evenodd" stroke="none"/>
    <path d="M56.5 3.55 L57.5 3.5 Q54.55 13.8 57.9 20.95 56.4 24.15 55.3 21.6 52.9 12.9 56.5 3.55" fill="#9c8f54" fill-rule="evenodd" stroke="none"/>
    <path d="M56.5 3.55 Q52.9 12.9 55.3 21.6 56.4 24.15 57.9 20.95 54.55 13.8 57.5 3.5 L56.5 3.55 Z" fill="none" stroke="#745300" stroke-linecap="round" stroke-linejoin="round" stroke-width="1.0"/>
    <path d="M56.05 5.3 L55.65 5.1 54.65 4.25 54.3 3.9 54.7 3.2 54.15 3.3 Q54.15 2.85 54.6 2.3 L55.2 1.95 56.5 1.65 56.2 1.5 57.15 1.3 57.95 1.3 Q57.25 2.35 56.65 4.05 L56.05 5.3" fill="#149326" fill-rule="evenodd" stroke="none"/>
    <path d="M57.95 1.3 L58.0 1.35 Q58.2 1.4 58.55 1.8 59.35 2.7 59.35 3.45 L58.7 3.3 58.65 3.3 59.25 3.85 59.15 4.15 Q58.7 4.95 57.45 5.2 L56.3 5.35 56.05 5.3 56.65 4.05 Q57.25 2.35 57.95 1.3" fill="#30b643" fill-rule="evenodd" stroke="none"/>
    <path d="M57.95 1.3 L58.0 1.35 Q58.2 1.4 58.55 1.8 59.35 2.7 59.35 3.45 L58.7 3.3 58.65 3.3 59.25 3.85 59.15 4.15 Q58.7 4.95 57.45 5.2 L56.3 5.35 56.05 5.3 55.65 5.1 54.65 4.25 54.3 3.9 54.7 3.2 54.15 3.3 Q54.15 2.85 54.6 2.3 L55.2 1.95 56.5 1.65 56.2 1.5 57.15 1.3 57.95 1.3 Z" fill="none" stroke="#007424" stroke-linecap="round" stroke-linejoin="round" stroke-width="1.0"/>
    <path d="M48.9 2.7 L48.95 2.65 50.05 2.55 53.2 2.95 52.85 3.3 52.85 3.35 53.85 3.25 54.35 3.4 Q55.9 4.15 56.0 5.15 L55.9 5.85 55.7 6.05 53.6 5.0 Q50.7 3.75 48.9 2.7" fill="#30b643" fill-rule="evenodd" stroke="none"/>
    <path d="M55.7 6.05 L55.4 6.2 53.5 6.45 52.7 6.4 51.5 5.8 51.65 6.2 Q50.65 6.0 49.9 5.45 L49.3 4.75 49.15 3.85 48.8 3.95 48.7 3.2 Q48.65 2.8 48.9 2.7 50.7 3.75 53.6 5.0 L55.7 6.05" fill="#149326" fill-rule="evenodd" stroke="none"/>
    <path d="M48.9 2.7 L48.95 2.65 50.05 2.55 53.2 2.95 52.85 3.3 52.85 3.35 53.85 3.25 54.35 3.4 Q55.9 4.15 56.0 5.15 L55.9 5.85 55.7 6.05 55.4 6.2 53.5 6.45 52.7 6.4 51.5 5.8 51.65 6.2 Q50.65 6.0 49.9 5.45 L49.3 4.75 49.15 3.85 48.8 3.95 48.7 3.2 Q48.65 2.8 48.9 2.7 Z" fill="none" stroke="#007424" stroke-linecap="round" stroke-linejoin="round" stroke-width="1.0"/>
    <path d="M63.55 5.4 L63.6 5.4 63.3 6.1 61.45 7.4 61.0 6.85 60.95 6.75 60.75 7.5 60.2 7.6 Q58.5 7.7 57.1 6.95 L55.95 6.25 55.9 6.1 58.25 5.85 63.55 5.4" fill="#30b643" fill-rule="evenodd" stroke="none"/>
    <path d="M55.9 6.1 L55.7 5.7 56.25 4.65 56.55 4.25 57.95 4.2 57.35 3.85 59.2 3.7 60.35 3.9 61.75 4.6 61.8 4.4 62.85 4.85 63.55 5.4 58.25 5.85 55.9 6.1" fill="#149326" fill-rule="evenodd" stroke="none"/>
    <path d="M63.55 5.4 L63.6 5.4 63.3 6.1 61.45 7.4 61.0 6.85 60.95 6.75 60.75 7.5 60.2 7.6 Q58.5 7.7 57.1 6.95 L55.95 6.25 55.9 6.1 55.7 5.7 56.25 4.65 56.55 4.25 57.95 4.2 57.35 3.85 59.2 3.7 60.35 3.9 61.75 4.6 61.8 4.4 62.85 4.85 63.55 5.4 Z" fill="none" stroke="#007424" stroke-linecap="round" stroke-linejoin="round" stroke-width="1.0"/>
    <path d="M55.35 6.65 L55.6 6.35 57.3 6.55 58.05 6.8 59.2 8.1 59.05 7.35 Q60.0 7.95 60.65 9.05 L61.25 10.3 61.5 11.85 61.8 11.8 62.05 13.0 61.8 13.8 57.4 8.9 55.35 6.65" fill="#149326" fill-rule="evenodd" stroke="none"/>
    <path d="M61.8 13.8 L61.85 13.85 60.85 13.7 Q59.25 13.3 58.0 12.3 L58.25 11.75 57.3 11.7 56.85 11.2 Q55.45 9.65 55.15 8.05 L55.2 6.75 55.35 6.65 57.4 8.9 61.8 13.8" fill="#30b643" fill-rule="evenodd" stroke="none"/>
    <path d="M55.35 6.65 L55.6 6.35 57.3 6.55 58.05 6.8 59.2 8.1 59.05 7.35 Q60.0 7.95 60.65 9.05 L61.25 10.3 61.5 11.85 61.8 11.8 62.05 13.0 61.8 13.8 61.85 13.85 60.85 13.7 Q59.25 13.3 58.0 12.3 L58.25 11.75 57.3 11.7 56.85 11.2 Q55.45 9.65 55.15 8.05 L55.2 6.75 55.35 6.65 Z" fill="none" stroke="#007424" stroke-linecap="round" stroke-linejoin="round" stroke-width="1.0"/>
    <path d="M55.55 6.55 L55.7 6.85 55.4 8.5 55.15 9.15 Q54.45 9.6 53.7 10.2 L54.5 10.15 52.6 11.5 51.3 12.05 49.65 12.1 49.7 12.45 48.5 12.5 Q47.9 12.55 47.8 12.25 L53.15 8.3 55.55 6.55" fill="#149326" fill-rule="evenodd" stroke="none"/>
    <path d="M47.8 12.25 L47.75 12.2 47.95 11.25 Q48.5 9.7 49.6 8.45 L50.15 8.8 50.25 8.85 50.25 7.95 50.8 7.55 Q52.55 6.25 54.15 6.2 L55.45 6.4 55.55 6.55 53.15 8.3 47.8 12.25" fill="#30b643" fill-rule="evenodd" stroke="none"/>
    <path d="M47.8 12.25 L47.75 12.2 47.95 11.25 Q48.5 9.7 49.6 8.45 L50.15 8.8 50.25 8.85 50.25 7.95 50.8 7.55 Q52.55 6.25 54.15 6.2 L55.45 6.4 55.55 6.55 55.7 6.85 55.4 8.5 55.15 9.15 Q54.45 9.6 53.7 10.2 L54.5 10.15 52.6 11.5 51.3 12.05 49.65 12.1 49.7 12.45 48.5 12.5 Q47.9 12.55 47.8 12.25 Z" fill="none" stroke="#007424" stroke-linecap="round" stroke-linejoin="round" stroke-width="1.0"/>
    <path d="M7.75 22.6 Q6.7 13.9 -2.25 5.9 L-1.2 5.35 Q7.75 12.0 10.7 21.65 11.1 24.8 7.75 22.6" fill="#9c8f54" fill-rule="evenodd" stroke="none"/>
    <path d="M7.75 22.6 Q6.7 13.9 -2.25 5.9 L-1.2 5.35 Q7.75 12.0 10.7 21.65 11.1 24.8 7.75 22.6 Z" fill="none" stroke="#745300" stroke-linecap="round" stroke-linejoin="round" stroke-width="1.0"/>
    <path d="M-3.95 4.1 Q-2.6 4.65 -1.05 5.9 L0.15 6.75 0.0 6.85 -1.15 7.45 Q-2.45 8.05 -3.4 7.45 L-3.6 7.25 -3.35 6.35 -3.45 6.4 -3.95 6.9 Q-4.35 6.2 -4.2 4.95 L-3.95 4.05 -3.95 4.1" fill="#30b643" fill-rule="evenodd" stroke="none"/>
    <path d="M-3.95 4.1 L-3.2 3.55 -2.2 3.2 -2.35 3.6 -0.95 3.0 -0.15 3.05 Q0.55 3.2 0.8 3.7 L0.25 3.95 1.05 4.35 0.95 4.95 0.5 6.3 0.15 6.75 -1.05 5.9 Q-2.6 4.65 -3.95 4.1" fill="#149326" fill-rule="evenodd" stroke="none"/>
    <path d="M0.15 6.75 L0.5 6.3 0.95 4.95 1.05 4.35 0.25 3.95 0.8 3.7 Q0.55 3.2 -0.15 3.05 L-0.95 3.0 -2.35 3.6 -2.2 3.2 -3.2 3.55 -3.95 4.1 M0.15 6.75 L0.0 6.85 -1.15 7.45 Q-2.45 8.05 -3.4 7.45 L-3.6 7.25 -3.35 6.35 -3.45 6.4 -3.95 6.9 Q-4.35 6.2 -4.2 4.95 L-3.95 4.05 -3.95 4.1" fill="none" stroke="#007424" stroke-linecap="round" stroke-linejoin="round" stroke-width="1.0"/>
    <path d="M5.4 0.0 Q5.75 -0.05 5.95 0.3 L6.3 1.15 5.85 1.25 6.3 2.2 6.1 3.25 4.95 5.0 4.85 4.5 4.05 5.75 3.25 6.25 1.45 7.2 1.0 7.25 2.35 5.0 5.4 0.0" fill="#149326" fill-rule="evenodd" stroke="none"/>
    <path d="M5.4 0.0 L2.35 5.0 1.0 7.25 0.75 7.2 0.2 6.5 Q-0.3 5.5 0.7 3.9 L1.1 3.4 2.1 2.95 1.55 2.8 Q2.55 1.7 4.25 0.6 L5.35 0.0 5.4 0.0" fill="#30b643" fill-rule="evenodd" stroke="none"/>
    <path d="M1.0 7.25 L1.45 7.2 3.25 6.25 4.05 5.75 4.85 4.5 4.95 5.0 6.1 3.25 6.3 2.2 5.85 1.25 6.3 1.15 5.95 0.3 Q5.75 -0.05 5.4 0.0 M1.0 7.25 L0.75 7.2 0.2 6.5 Q-0.3 5.5 0.7 3.9 L1.1 3.4 2.1 2.95 1.55 2.8 Q2.55 1.7 4.25 0.6 L5.35 0.0 5.4 0.0" fill="none" stroke="#007424" stroke-linecap="round" stroke-linejoin="round" stroke-width="1.0"/>
    <path d="M-8.35 12.9 Q-5.8 11.2 -1.9 9.1 L0.95 7.5 1.1 7.65 0.6 9.0 Q-0.15 10.65 -2.15 11.9 -2.75 12.35 -2.8 12.2 L-3.75 11.9 -3.8 12.0 -3.75 12.65 -7.2 13.1 -8.3 12.9 -8.35 12.9" fill="#30b643" fill-rule="evenodd" stroke="none"/>
    <path d="M-8.35 12.9 Q-8.45 12.65 -8.15 11.95 L-7.5 10.8 -7.25 11.0 -6.5 9.3 -5.35 8.2 -3.1 6.9 -3.45 7.65 -1.85 6.7 -1.05 6.7 0.75 7.1 0.95 7.5 -1.9 9.1 Q-5.8 11.2 -8.35 12.9" fill="#149326" fill-rule="evenodd" stroke="none"/>
    <path d="M0.95 7.5 L0.75 7.1 -1.05 6.7 -1.85 6.7 -3.45 7.65 -3.1 6.9 -5.35 8.2 -6.5 9.3 -7.25 11.0 -7.5 10.8 -8.15 11.95 Q-8.45 12.65 -8.35 12.9 M0.95 7.5 L1.1 7.65 0.6 9.0 Q-0.15 10.65 -2.15 11.9 -2.75 12.35 -2.8 12.2 L-3.75 11.9 -3.8 12.0 -3.75 12.65 -7.2 13.1 -8.3 12.9 -8.35 12.9" fill="none" stroke="#007424" stroke-linecap="round" stroke-linejoin="round" stroke-width="1.0"/>
    <path d="M-0.25 18.15 L-0.85 17.55 -1.3 16.3 -0.95 16.2 -1.75 14.5 -1.85 13.0 Q-1.9 11.6 -1.35 10.45 L-1.05 11.25 -0.75 9.3 -0.15 8.65 1.25 7.5 1.65 7.55 1.15 10.9 Q0.2 15.1 -0.25 18.15" fill="#149326" fill-rule="evenodd" stroke="none"/>
    <path d="M-0.25 18.15 Q0.2 15.1 1.15 10.9 L1.65 7.55 1.9 7.65 2.75 8.75 Q3.35 10.45 3.0 12.8 L2.8 13.45 1.95 14.05 2.0 14.1 2.6 14.45 Q1.95 16.15 0.7 17.5 L-0.15 18.15 -0.25 18.15" fill="#30b643" fill-rule="evenodd" stroke="none"/>
    <path d="M1.65 7.55 L1.25 7.5 -0.15 8.65 -0.75 9.3 -1.05 11.25 -1.35 10.45 Q-1.9 11.6 -1.85 13.0 L-1.75 14.5 -0.95 16.2 -1.3 16.3 -0.85 17.55 -0.25 18.15 M1.65 7.55 L1.9 7.65 2.75 8.75 Q3.35 10.45 3.0 12.8 L2.8 13.45 1.95 14.05 2.0 14.1 2.6 14.45 Q1.95 16.15 0.7 17.5 L-0.15 18.15 -0.25 18.15" fill="none" stroke="#007424" stroke-linecap="round" stroke-linejoin="round" stroke-width="1.0"/>
    <path d="M1.4 7.6 L4.75 7.85 12.25 8.35 Q12.25 8.65 11.65 9.0 11.1 9.3 10.5 9.7 L10.3 9.3 8.7 10.2 7.15 10.5 4.65 10.4 5.35 9.95 3.4 9.85 2.75 9.4 1.5 8.05 1.4 7.6" fill="#149326" fill-rule="evenodd" stroke="none"/>
    <path d="M1.4 7.6 L1.5 7.4 2.55 6.45 Q4.15 5.5 6.5 5.75 L7.25 5.75 7.85 6.65 7.9 6.55 8.2 5.95 Q10.0 6.4 11.45 7.5 L12.2 8.3 12.25 8.35 4.75 7.85 1.4 7.6" fill="#30b643" fill-rule="evenodd" stroke="none"/>
    <path d="M12.25 8.35 L12.2 8.3 11.45 7.5 Q10.0 6.4 8.2 5.95 L7.9 6.55 7.85 6.65 7.25 5.75 6.5 5.75 Q4.15 5.5 2.55 6.45 L1.5 7.4 1.4 7.6 M12.25 8.35 Q12.25 8.65 11.65 9.0 11.1 9.3 10.5 9.7 L10.3 9.3 8.7 10.2 7.15 10.5 4.65 10.4 5.35 9.95 3.4 9.85 2.75 9.4 1.5 8.05 1.4 7.6" fill="none" stroke="#007424" stroke-linecap="round" stroke-linejoin="round" stroke-width="1.0"/>
    <path d="M48.15 -20.9 L48.1 -22.6 Q47.65 -26.2 43.95 -26.2 L18.5 -26.1 Q16.5 -26.1 15.45 -25.1 14.3 -24.0 14.25 -21.95 L14.25 -20.8 14.2 -7.9 14.2 -7.1 14.2 -7.05 14.25 -6.65 Q14.7 -4.1 18.5 -4.0 L43.3 -3.8 Q47.85 -4.3 48.35 -8.45 L48.15 -20.9 48.2 -20.9 Q53.1 -20.9 53.75 -16.1 L54.05 2.7 54.05 2.8 53.25 40.35 53.2 46.35 53.1 47.0 Q52.25 51.8 46.7 52.4 L41.25 52.4 41.25 50.0 22.15 50.0 22.15 52.25 14.85 52.2 Q9.6 52.0 9.2 48.25 L9.1 41.95 8.45 4.5 8.45 3.55 8.55 -15.3 Q8.6 -18.0 10.1 -19.4 11.5 -20.8 14.15 -20.8 L14.25 -20.8 M48.35 -8.45 L48.3 -6.9 M8.45 4.5 Q8.7 8.55 14.2 8.75 L47.3 9.0 Q53.35 8.3 54.05 2.8 M53.25 40.35 Q52.6 45.75 46.7 46.4 L41.25 46.4 41.25 50.0 M9.1 41.95 Q9.4 46.0 14.85 46.2 L22.15 46.25 22.15 36.45 41.25 36.45 41.25 46.4 M22.15 50.0 L22.15 46.25" fill="none" stroke="#313131" stroke-linecap="round" stroke-linejoin="round" stroke-width="2.0"/>
    <path d="M14.25 -20.8 L14.25 -21.95 Q14.3 -24.0 15.45 -25.1 16.5 -26.1 18.5 -26.1 L43.95 -26.2 Q47.65 -26.2 48.1 -22.6 L48.15 -20.9 48.35 -8.5 48.35 -8.45 48.35 -8.5 48.15 -20.9 48.2 -20.9 Q53.1 -20.9 53.75 -16.1 L54.05 2.7 54.05 2.8 Q53.35 8.3 47.3 9.0 L14.2 8.75 Q8.7 8.55 8.45 4.5 L8.45 3.55 8.55 -15.3 Q8.6 -18.0 10.1 -19.4 11.5 -20.8 14.15 -20.8 L14.25 -20.8 14.2 -7.1 14.2 -7.05 14.2 -7.1 14.25 -20.8 M14.25 -6.65 L14.2 -7.05 14.25 -6.3 14.3 -5.1 14.4 -2.6 14.4 -2.15 14.4 -2.05 14.5 -0.65 14.6 2.15 14.65 2.4 Q15.2 4.7 18.75 4.8 L43.05 5.0 Q47.2 4.55 47.95 0.9 L47.95 0.4 48.05 -1.95 48.1 -2.15 48.1 -2.65 48.2 -5.2 48.3 -6.4 48.3 -6.9 48.35 -8.45 Q47.85 -4.3 43.3 -3.8 L18.5 -4.0 Q14.7 -4.1 14.25 -6.65" fill="#84b9cb" fill-rule="evenodd" stroke="none"/>
    <path d="M19.35 -0.7 L19.35 -2.4 24.6 -2.35 24.6 -0.7 19.35 -0.7 M37.45 -0.7 L37.45 -2.25 43.15 -2.2 43.15 -0.7 37.45 -0.7 M47.0 12.95 L47.0 15.5 41.3 15.5 41.3 12.9 47.0 12.95 M21.75 12.75 L21.75 15.5 16.05 15.5 16.05 12.7 21.75 12.75 M47.0 25.1 L47.0 27.45 41.3 27.45 41.3 25.1 47.0 25.1 M21.75 24.95 L21.75 27.45 16.05 27.45 16.05 24.9 21.75 24.95" fill="#d2771e" fill-rule="evenodd" stroke="none"/>
    <path d="M53.95 7.6 L53.8 14.65 Q52.75 19.35 47.2 19.95 L47.0 19.95 47.0 15.5 47.0 12.95 47.35 12.95 Q52.95 12.3 53.95 7.6 M53.7 18.9 L53.55 26.0 Q52.95 31.5 47.0 32.15 L47.0 27.45 47.0 25.1 47.05 25.1 Q53.1 24.45 53.7 18.9 M53.25 40.35 L53.15 44.45 53.1 47.0 Q52.25 51.8 46.7 52.4 L41.25 52.4 41.25 50.0 41.25 46.4 46.7 46.4 Q52.6 45.75 53.25 40.35 M22.15 50.0 L22.15 52.25 14.85 52.2 Q9.6 52.0 9.2 48.25 L9.1 41.95 Q9.4 46.0 14.85 46.2 L22.15 46.25 22.15 50.0 M8.85 27.9 L8.75 20.9 Q9.15 24.7 14.5 24.9 L16.05 24.9 16.05 27.45 16.05 31.95 14.6 31.95 Q9.25 31.75 8.85 27.9 M8.65 16.55 L8.55 9.15 Q9.2 12.55 14.25 12.7 L16.05 12.7 16.05 15.5 16.05 19.75 14.25 19.75 Q9.5 19.6 8.65 16.55 M14.5 -0.65 L14.4 -2.6 14.3 -5.1 Q14.75 -2.5 18.55 -2.4 L19.35 -2.4 19.35 -0.7 19.35 1.8 18.65 1.8 Q15.05 1.7 14.5 -0.65 M48.05 -1.95 Q47.25 1.55 43.15 2.0 L43.15 -0.7 43.15 -2.2 43.3 -2.2 Q47.35 -2.65 48.2 -5.2 L48.1 -2.65 48.05 -1.95 M37.45 1.95 L24.6 1.85 24.6 -0.7 24.6 -2.35 37.45 -2.25 37.45 -0.7 37.45 1.95 M41.3 12.9 L41.3 15.5 41.3 19.95 38.75 19.9 Q38.15 18.8 37.0 17.85 34.65 15.95 31.35 15.95 28.05 15.95 25.7 17.85 24.6 18.75 24.0 19.85 L21.75 19.8 21.75 15.5 21.75 12.75 41.3 12.9 M41.3 25.1 L41.3 27.45 41.3 32.15 21.75 32.0 21.75 27.45 21.75 24.95 23.95 25.0 Q24.55 26.1 25.7 27.05 L26.25 27.45 Q28.4 29.0 31.35 29.0 34.3 29.0 36.5 27.45 L37.0 27.05 Q38.1 26.15 38.7 25.05 L41.3 25.1" fill="#b1b1b1" fill-rule="evenodd" stroke="none"/>
    <path d="M41.25 50.0 L22.15 50.0 22.15 46.25 22.15 36.45 41.25 36.45 41.25 46.4 41.25 50.0" fill="#54737e" fill-rule="evenodd" stroke="none"/>
    <path d="M19.35 1.8 L19.35 -0.7 24.6 -0.7 24.6 1.85 19.35 1.8 M43.15 2.0 L37.45 1.95 37.45 -0.7 43.15 -0.7 43.15 2.0 M47.0 15.5 L47.0 19.95 41.3 19.95 41.3 15.5 47.0 15.5 M21.75 15.5 L21.75 19.8 16.05 19.75 16.05 15.5 21.75 15.5 M47.0 27.45 L47.0 32.15 46.95 32.15 41.3 32.15 41.3 27.45 47.0 27.45 M21.75 27.45 L21.75 32.0 16.05 31.95 16.05 27.45 21.75 27.45" fill="#fc9632" fill-rule="evenodd" stroke="none"/>
    <path d="M14.25 -6.65 Q14.7 -4.1 18.5 -4.0 L43.3 -3.8 Q47.85 -4.3 48.35 -8.45 L48.3 -6.9 48.2 -5.2 Q47.35 -2.65 43.3 -2.2 L43.15 -2.2 37.45 -2.25 24.6 -2.35 19.35 -2.4 18.55 -2.4 Q14.75 -2.5 14.3 -5.1 L14.25 -6.3 14.25 -6.4 14.25 -6.65 M54.05 2.8 L53.95 7.6 Q52.95 12.3 47.35 12.95 L47.0 12.95 41.3 12.9 21.75 12.75 16.05 12.7 14.25 12.7 Q9.2 12.55 8.55 9.15 L8.45 4.5 Q8.7 8.55 14.2 8.75 L47.3 9.0 Q53.35 8.3 54.05 2.8 M53.8 14.65 L53.7 18.9 Q53.1 24.45 47.05 25.1 L47.0 25.1 41.3 25.1 38.7 25.05 38.95 24.6 Q39.35 23.6 39.35 22.45 39.35 21.4 39.0 20.5 L38.75 19.9 41.3 19.95 47.0 19.95 47.2 19.95 Q52.75 19.35 53.8 14.65 M53.55 26.0 L53.25 40.35 Q52.6 45.75 46.7 46.4 L41.25 46.4 41.25 36.45 22.15 36.45 22.15 46.25 14.85 46.2 Q9.4 46.0 9.1 41.95 L8.85 27.9 Q9.25 31.75 14.6 31.95 L16.05 31.95 21.75 32.0 41.3 32.15 46.95 32.15 47.0 32.15 Q52.95 31.5 53.55 26.0 M8.75 20.9 L8.65 16.55 Q9.5 19.6 14.25 19.75 L16.05 19.75 21.75 19.8 24.0 19.85 23.7 20.5 Q23.35 21.4 23.35 22.45 23.35 23.6 23.8 24.6 L23.95 25.0 21.75 24.95 16.05 24.9 14.5 24.9 Q9.15 24.7 8.75 20.9 M14.5 -0.65 Q15.05 1.7 18.65 1.8 L19.35 1.8 24.6 1.85 37.45 1.95 43.15 2.0 Q47.25 1.55 48.05 -1.95 L47.95 0.4 47.95 0.9 Q47.2 4.55 43.05 5.0 L18.75 4.8 Q15.2 4.7 14.65 2.4 L14.6 2.15 14.5 -0.65" fill="#538a9c" fill-rule="evenodd" stroke="none"/>
    <path d="M24.0 19.85 Q24.6 18.75 25.7 17.85 28.05 15.95 31.35 15.95 34.65 15.95 37.0 17.85 38.15 18.8 38.75 19.9 L39.0 20.5 Q39.35 21.4 39.35 22.45 39.35 23.6 38.95 24.6 L38.7 25.05 Q38.1 26.15 37.0 27.05 L36.5 27.45 Q34.3 29.0 31.35 29.0 28.4 29.0 26.25 27.45 L25.7 27.05 Q24.55 26.1 23.95 25.0 L23.8 24.6 Q23.35 23.6 23.35 22.45 23.35 21.4 23.7 20.5 L24.0 19.85" fill="#eeeeee" fill-rule="evenodd" stroke="none"/>
    <path d="M53.1 47.0 L53.15 44.45" fill="none" stroke="#000000" stroke-linecap="round" stroke-linejoin="round" stroke-width="0.1"/>
    <path d="M48.15 -20.9 L48.1 -22.6 Q47.65 -26.2 43.95 -26.2 L18.5 -26.1 Q16.5 -26.1 15.45 -25.1 14.3 -24.0 14.25 -21.95 L14.25 -20.8 14.2 -7.1 14.2 -7.05 14.25 -6.65 M48.35 -8.45 L48.35 -8.5 48.15 -20.9 48.2 -20.9 Q53.1 -20.9 53.75 -16.1 L54.05 2.7 54.05 2.8 53.95 7.6 53.8 14.65 53.7 18.9 53.55 26.0 53.25 40.35 53.15 44.45 53.2 46.35 53.1 47.0 Q52.25 51.8 46.7 52.4 L41.25 52.4 41.25 50.0 22.15 50.0 22.15 52.25 14.85 52.2 Q9.6 52.0 9.2 48.25 L9.1 41.95 8.85 27.9 8.75 20.9 8.65 16.55 8.55 9.15 8.45 4.5 8.45 3.55 8.55 -15.3 Q8.6 -18.0 10.1 -19.4 11.5 -20.8 14.15 -20.8 L14.25 -20.8 M14.4 -2.6 L14.5 -0.65 14.6 2.15 M14.3 -5.1 L14.4 -2.6 M47.95 0.4 L48.05 -1.95 48.1 -2.65 M14.25 -6.3 L14.3 -5.1 M48.3 -6.9 L48.35 -8.45 M48.2 -5.2 L48.3 -6.4 48.3 -6.9 M48.2 -5.2 L48.1 -2.65 M53.25 40.35 Q52.6 45.75 46.7 46.4 L41.25 46.4 41.25 50.0 M22.15 46.25 L22.15 36.45 41.25 36.45 41.25 46.4 M9.1 41.95 Q9.4 46.0 14.85 46.2 L22.15 46.25 22.15 50.0" fill="none" stroke="#313131" stroke-linecap="round" stroke-linejoin="round" stroke-width="1.0"/>
    <path d="M26.05 53.25 L26.05 45.35 37.4 45.35 37.4 53.25 26.05 53.25 M37.4 54.35 L37.4 55.75 26.05 55.75 26.05 54.35 37.4 54.35 M37.4 56.85 L37.4 58.25 26.05 58.25 26.05 56.85 37.4 56.85 M37.4 59.35 L37.4 60.75 26.05 60.75 26.05 59.35 37.4 59.35" fill="#b1b1b1" fill-rule="evenodd" stroke="none"/>
    <path d="M37.4 53.25 L37.4 54.35 26.05 54.35 26.05 53.25 37.4 53.25 M37.4 55.75 L37.4 56.85 26.05 56.85 26.05 55.75 37.4 55.75 M37.4 58.25 L37.4 59.35 26.05 59.35 26.05 58.25 37.4 58.25 M37.4 60.75 L37.4 61.35 26.05 61.35 26.05 60.75 37.4 60.75" fill="#5b5b5b" fill-rule="evenodd" stroke="none"/>
    <path d="M26.05 37.55 L37.4 37.55 37.4 44.35 26.05 44.35 26.05 37.55" fill="#707070" fill-rule="evenodd" stroke="none"/>
    <path d="M37.9 36.55 L38.25 36.7 38.4 37.05 38.4 61.85 38.25 62.2 37.9 62.35 25.55 62.35 25.2 62.2 25.05 61.85 25.05 37.05 Q25.05 36.85 25.2 36.7 25.35 36.55 25.55 36.55 L37.9 36.55 M26.05 37.55 L26.05 44.35 37.4 44.35 37.4 37.55 26.05 37.55 M37.4 53.25 L37.4 45.35 26.05 45.35 26.05 53.25 26.05 54.35 26.05 55.75 26.05 56.85 26.05 58.25 26.05 59.35 26.05 60.75 26.05 61.35 37.4 61.35 37.4 60.75 37.4 59.35 37.4 58.25 37.4 56.85 37.4 55.75 37.4 54.35 37.4 53.25" fill="#313131" fill-rule="evenodd" stroke="none"/>
    <path d="M30.25 16.8 L30.3 16.6 30.45 16.55 30.55 16.55 31.1 16.85 31.2 16.85 31.3 16.9 31.4 17.1 31.5 17.5 31.75 17.75 Q33.7 17.45 35.4 18.45 37.05 19.5 37.5 21.25 38.05 23.35 37.5 24.5 37.05 25.85 35.05 26.8 L34.95 26.8 34.8 26.7 34.65 26.7 34.05 26.35 33.95 26.25 33.85 26.0 33.05 26.85 Q32.0 27.75 29.75 27.55 L29.65 27.5 29.55 27.3 29.45 27.25 29.1 26.6 29.1 26.45 29.2 26.0 Q28.4 26.45 27.65 26.5 26.3 26.75 24.5 25.4 L24.45 25.3 24.4 25.25 24.4 25.05 24.35 24.95 24.4 24.25 24.45 24.2 24.5 24.1 Q25.25 23.25 26.15 22.65 L26.2 22.65 27.6 21.75 Q28.45 21.0 29.05 19.7 L29.95 18.1 30.1 17.65 30.05 17.6 30.0 17.4 30.1 17.3 30.15 17.3 30.25 16.8" fill="#ffdf00" fill-rule="evenodd" stroke="none"/>
    <path d="M30.25 16.8 L30.15 17.3 30.1 17.3 30.0 17.4 30.05 17.6 30.1 17.65 29.95 18.1 29.05 19.7 Q28.45 21.0 27.6 21.75 L26.2 22.65 26.15 22.65 Q25.25 23.25 24.5 24.1 L24.45 24.2 24.4 24.25 24.35 24.95 24.4 25.05 24.4 25.25 24.45 25.3 24.5 25.4 Q26.3 26.75 27.65 26.5 28.4 26.45 29.2 26.0 L29.1 26.45 29.1 26.6 29.45 27.25 29.55 27.3 29.65 27.5 29.75 27.55 Q32.0 27.75 33.05 26.85 L33.85 26.0 33.95 26.25 34.05 26.35 34.65 26.7 34.8 26.7 34.95 26.8 35.05 26.8 Q37.05 25.85 37.5 24.5 38.05 23.35 37.5 21.25 37.05 19.5 35.4 18.45 33.7 17.45 31.75 17.75 L31.5 17.5 31.4 17.1 31.3 16.9 31.2 16.85 31.1 16.85 30.55 16.55 30.45 16.55 30.3 16.6 30.25 16.8 Z" fill="none" stroke="#775b00" stroke-linecap="round" stroke-linejoin="round" stroke-width="1.0"/>
    <path d="M30.0 17.4 L30.1 17.3 30.8 16.9 30.85 16.9 31.05 17.05 31.75 17.75 Q33.7 17.45 35.4 18.45 37.05 19.5 37.5 21.25 38.05 23.35 37.5 24.5 37.05 25.85 35.05 26.8 L34.95 26.8 34.8 26.7 34.65 26.7 34.05 26.35 33.95 26.25 Q33.5 25.1 33.45 24.05 L33.45 24.0 33.3 22.4 Q33.05 21.25 32.15 20.15 31.3 19.05 31.2 18.6 L30.05 17.6 30.0 17.4 M32.45 18.2 L31.95 18.25 31.85 18.2 31.7 18.05 30.85 17.5 30.6 17.65 31.45 18.3 31.5 18.35 31.6 18.35 31.65 18.55 32.4 19.85 Q33.45 21.25 33.8 22.35 L33.85 24.1 34.2 25.95 34.6 26.1 34.7 26.0 35.15 26.2 35.1 26.3 35.3 26.2 Q36.7 25.2 37.15 24.2 37.65 23.15 37.1 21.2 36.7 19.75 35.35 18.9 L35.25 18.95 Q34.1 18.15 32.75 18.2 L32.45 18.2" fill="#775b00" fill-rule="evenodd" stroke="none"/>
    <path d="M35.15 26.2 L34.7 26.0 34.6 26.1 34.2 25.95 33.85 24.1 33.8 22.35 Q33.45 21.25 32.4 19.85 L31.65 18.55 31.6 18.35 31.5 18.35 31.45 18.3 30.6 17.65 30.85 17.5 31.7 18.05 31.85 18.2 31.95 18.25 32.45 18.2 33.35 19.0 Q35.0 20.35 35.4 21.6 35.95 23.35 35.15 26.2" fill="#ffdf00" fill-rule="evenodd" stroke="none"/>
    <path d="M32.45 18.2 L32.75 18.2 Q34.1 18.15 35.25 18.95 L35.35 18.9 Q36.7 19.75 37.1 21.2 37.65 23.15 37.15 24.2 36.7 25.2 35.3 26.2 L35.1 26.3 35.15 26.2 Q35.95 23.35 35.4 21.6 35.0 20.35 33.35 19.0 L32.45 18.2" fill="#d7a500" fill-rule="evenodd" stroke="none"/>
    <path d="M29.8 24.35 L29.8 24.3 30.5 22.85 Q30.9 21.75 30.7 20.35 30.55 18.95 30.7 18.5 L30.2 17.05 30.3 16.9 Q30.35 16.8 30.4 16.85 L31.2 16.85 31.3 16.9 31.4 17.1 31.65 18.1 Q33.45 18.85 34.35 20.6 35.2 22.35 34.7 24.05 34.1 26.15 33.05 26.85 32.0 27.75 29.75 27.55 L29.65 27.5 29.55 27.3 29.45 27.25 29.1 26.6 29.1 26.45 Q29.3 25.3 29.8 24.35 M31.95 18.85 L31.5 18.6 31.45 18.5 31.4 18.3 31.0 17.4 30.7 17.4 31.05 18.4 31.1 18.45 31.15 18.55 31.1 18.7 31.1 20.2 Q31.25 21.95 30.95 23.1 L30.1 24.6 Q29.7 25.5 29.45 26.35 L29.7 26.7 29.85 26.65 30.15 27.05 30.05 27.1 30.25 27.15 Q31.95 27.0 32.9 26.4 33.85 25.75 34.35 23.8 34.75 22.35 34.05 20.95 L34.0 20.9 Q33.4 19.65 32.2 19.0 L31.9 18.8 31.95 18.85" fill="#775b00" fill-rule="evenodd" stroke="none"/>
    <path d="M30.15 27.05 L29.85 26.65 29.7 26.7 29.45 26.35 Q29.7 25.5 30.1 24.6 L30.95 23.1 Q31.25 21.95 31.1 20.2 L31.1 18.7 31.15 18.55 31.1 18.45 31.05 18.4 30.7 17.4 31.0 17.4 31.4 18.3 31.45 18.5 31.5 18.6 31.95 18.85 32.3 20.0 Q33.0 22.0 32.75 23.25 32.35 25.05 30.15 27.05" fill="#ffdf00" fill-rule="evenodd" stroke="none"/>
    <path d="M31.95 18.85 L31.9 18.8 32.2 19.0 Q33.4 19.65 34.0 20.9 L34.05 20.95 Q34.75 22.35 34.35 23.8 33.85 25.75 32.9 26.4 31.95 27.0 30.25 27.15 L30.05 27.1 30.15 27.05 Q32.35 25.05 32.75 23.25 33.0 22.0 32.3 20.0 L31.95 18.85" fill="#d7a500" fill-rule="evenodd" stroke="none"/>
    <path d="M30.85 19.1 L30.6 18.6 30.6 18.5 30.65 18.3 30.8 17.35 30.55 17.2 30.35 18.25 30.35 18.3 30.35 18.45 30.2 18.5 Q29.95 18.7 29.45 19.8 28.7 21.35 27.8 22.15 L26.3 23.05 24.85 24.25 24.85 24.65 25.0 24.65 25.05 25.15 24.95 25.15 25.1 25.25 Q26.65 26.05 27.75 26.05 28.9 25.95 30.35 24.55 31.45 23.5 31.55 21.95 L31.55 21.9 Q31.7 20.55 31.0 19.3 L30.85 19.0 30.85 19.1 M29.95 18.1 L30.25 16.8 30.3 16.6 30.45 16.55 30.55 16.55 31.25 16.95 31.3 17.05 31.3 17.25 31.0 18.25 Q32.15 19.85 32.0 21.8 31.85 23.75 30.5 24.95 28.95 26.45 27.65 26.5 26.3 26.75 24.5 25.4 L24.45 25.3 24.4 25.25 24.4 25.05 24.35 24.95 24.4 24.25 24.45 24.2 24.5 24.1 Q25.25 23.25 26.15 22.65 L26.2 22.65 27.6 21.75 Q28.45 21.0 29.05 19.7 L29.95 18.1" fill="#775b00" fill-rule="evenodd" stroke="none"/>
    <path d="M25.05 25.15 L25.0 24.65 24.85 24.65 24.85 24.25 26.3 23.05 27.8 22.15 Q28.7 21.35 29.45 19.8 29.95 18.7 30.2 18.5 L30.35 18.45 30.35 18.3 30.35 18.25 30.55 17.2 30.8 17.35 30.65 18.3 30.6 18.5 30.6 18.6 30.85 19.1 30.55 20.25 Q30.15 22.3 29.25 23.2 28.0 24.55 25.05 25.15" fill="#ffdf00" fill-rule="evenodd" stroke="none"/>
    <path d="M30.85 19.1 L30.85 19.0 31.0 19.3 Q31.7 20.55 31.55 21.9 L31.55 21.95 Q31.45 23.5 30.35 24.55 28.9 25.95 27.75 26.05 26.65 26.05 25.1 25.25 L24.95 25.15 25.05 25.15 Q28.0 24.55 29.25 23.2 30.15 22.3 30.55 20.25 L30.85 19.1" fill="#d7a500" fill-rule="evenodd" stroke="none"/>
    <path d="M6.25 51.2 Q7.2 40.95 -1.0 29.6 L0.25 29.3 Q8.85 39.1 9.85 50.85 9.5 54.55 6.25 51.2" fill="#9c8f54" fill-rule="evenodd" stroke="none"/>
    <path d="M6.25 51.2 Q7.2 40.95 -1.0 29.6 L0.25 29.3 Q8.85 39.1 9.85 50.85 9.5 54.55 6.25 51.2 Z" fill="none" stroke="#745300" stroke-linecap="round" stroke-linejoin="round" stroke-width="1.0"/>
    <path d="M-0.6 23.05 L0.35 22.9 1.55 23.1 1.2 23.35 2.85 23.5 3.6 24.0 Q4.25 24.5 4.3 25.1 L3.55 25.05 4.15 25.9 3.8 26.45 2.6 27.55 2.05 27.8 1.25 26.35 Q0.3 24.25 -0.6 23.05" fill="#149326" fill-rule="evenodd" stroke="none"/>
    <path d="M-0.6 23.05 Q0.3 24.25 1.25 26.35 L2.05 27.8 1.8 27.85 0.35 27.9 Q-1.2 27.7 -1.9 26.7 L-1.95 26.4 -1.3 25.65 -1.35 25.65 -2.2 25.85 Q-2.2 24.9 -1.35 23.8 L-0.7 23.05 -0.6 23.05" fill="#30b643" fill-rule="evenodd" stroke="none"/>
    <path d="M2.05 27.8 L2.6 27.55 3.8 26.45 4.15 25.9 3.55 25.05 4.3 25.1 Q4.25 24.5 3.6 24.0 L2.85 23.5 1.2 23.35 1.55 23.1 0.35 22.9 -0.6 23.05 M2.05 27.8 L1.8 27.85 0.35 27.9 Q-1.2 27.7 -1.9 26.7 L-1.95 26.4 -1.3 25.65 -1.35 25.65 -2.2 25.85 Q-2.2 24.9 -1.35 23.8 L-0.7 23.05 -0.6 23.05" fill="none" stroke="#007424" stroke-linecap="round" stroke-linejoin="round" stroke-width="1.0"/>
    <path d="M10.8 23.8 Q11.15 23.95 11.1 24.4 L11.05 25.3 10.5 25.25 10.5 26.5 9.75 27.4 Q8.95 28.1 7.75 28.5 L7.85 28.0 Q7.05 28.4 6.4 28.9 L5.4 29.0 3.05 28.95 2.55 28.75 5.15 27.2 Q8.7 25.35 10.8 23.8" fill="#149326" fill-rule="evenodd" stroke="none"/>
    <path d="M10.8 23.8 Q8.7 25.35 5.15 27.2 L2.55 28.75 2.4 28.55 2.2 27.6 Q2.2 26.35 4.05 25.3 L4.65 25.0 5.95 25.05 5.95 25.0 5.5 24.6 Q7.05 23.95 9.3 23.8 L10.75 23.75 10.8 23.8" fill="#30b643" fill-rule="evenodd" stroke="none"/>
    <path d="M2.55 28.75 L3.05 28.95 5.4 29.0 6.4 28.9 Q7.05 28.4 7.85 28.0 L7.75 28.5 Q8.95 28.1 9.75 27.4 L10.5 26.5 10.5 25.25 11.05 25.3 11.1 24.4 Q11.15 23.95 10.8 23.8 M2.55 28.75 L2.4 28.55 2.2 27.6 Q2.2 26.35 4.05 25.3 L4.65 25.0 5.95 25.05 5.95 25.0 5.5 24.6 Q7.05 23.95 9.3 23.8 L10.75 23.75 10.8 23.8" fill="none" stroke="#007424" stroke-linecap="round" stroke-linejoin="round" stroke-width="1.0"/>
    <path d="M-9.65 29.55 L-1.25 29.15 2.45 28.95 2.5 29.25 1.35 30.35 Q-0.3 31.6 -2.95 31.85 L-3.75 31.75 -4.55 30.9 -4.65 31.0 -4.95 31.75 Q-6.85 31.5 -8.65 30.4 L-9.6 29.65 -9.65 29.55" fill="#30b643" fill-rule="evenodd" stroke="none"/>
    <path d="M-9.65 29.55 Q-9.65 29.25 -8.95 28.7 L-7.75 27.9 -7.55 28.2 -5.9 27.0 Q-5.15 26.65 -4.25 26.45 L-1.3 26.35 -2.05 26.85 0.05 26.7 0.9 27.15 2.45 28.5 2.45 28.95 -1.25 29.15 -9.65 29.55" fill="#149326" fill-rule="evenodd" stroke="none"/>
    <path d="M2.45 28.95 L2.45 28.5 0.9 27.15 0.05 26.7 -2.05 26.85 -1.3 26.35 -4.25 26.45 Q-5.15 26.65 -5.9 27.0 L-7.55 28.2 -7.75 27.9 -8.95 28.7 Q-9.65 29.25 -9.65 29.55 M2.45 28.95 L2.5 29.25 1.35 30.35 Q-0.3 31.6 -2.95 31.85 L-3.75 31.75 -4.55 30.9 -4.65 31.0 -4.95 31.75 Q-6.85 31.5 -8.65 30.4 L-9.6 29.65 -9.65 29.55" fill="none" stroke="#007424" stroke-linecap="round" stroke-linejoin="round" stroke-width="1.0"/>
    <path d="M3.15 29.4 L3.3 29.6 3.55 31.2 Q3.4 33.2 1.75 35.35 L1.25 35.95 0.1 36.1 0.05 36.2 0.5 36.8 Q-1.0 38.15 -2.95 38.85 L-4.2 39.1 -4.25 39.05 0.85 32.45 3.15 29.4" fill="#30b643" fill-rule="evenodd" stroke="none"/>
    <path d="M3.15 29.4 L0.85 32.45 -4.25 39.05 Q-4.55 38.9 -4.55 38.1 L-4.35 36.6 -3.95 36.7 -3.9 34.6 -3.15 33.05 Q-2.45 31.6 -1.4 30.7 L-1.45 31.7 -0.2 29.9 0.7 29.5 2.75 29.15 3.15 29.4" fill="#149326" fill-rule="evenodd" stroke="none"/>
    <path d="M-4.25 39.05 L-4.2 39.1 -2.95 38.85 Q-1.0 38.15 0.5 36.8 L0.05 36.2 0.1 36.1 1.25 35.95 1.75 35.35 Q3.4 33.2 3.55 31.2 L3.3 29.6 3.15 29.4 M-4.25 39.05 Q-4.55 38.9 -4.55 38.1 L-4.35 36.6 -3.95 36.7 -3.9 34.6 -3.15 33.05 Q-2.45 31.6 -1.4 30.7 L-1.45 31.7 -0.2 29.9 0.7 29.5 2.75 29.15 3.15 29.4" fill="none" stroke="#007424" stroke-linecap="round" stroke-linejoin="round" stroke-width="1.0"/>
    <path d="M13.3 35.7 L6.1 31.3 2.9 29.3 3.05 29.15 4.55 28.75 Q6.65 28.7 8.9 30.15 L9.7 30.5 9.8 31.65 9.9 31.65 10.55 31.2 Q12.0 32.5 13.0 34.45 L13.3 35.6 13.3 35.7" fill="#30b643" fill-rule="evenodd" stroke="none"/>
    <path d="M13.3 35.7 L12.4 36.0 10.8 36.05 10.9 35.65 8.8 35.7 7.15 35.2 Q5.7 34.7 4.7 33.75 L5.6 33.7 3.7 32.6 3.25 31.75 2.7 29.75 2.9 29.3 6.1 31.3 13.3 35.7" fill="#149326" fill-rule="evenodd" stroke="none"/>
    <path d="M2.9 29.3 L2.7 29.75 3.25 31.75 3.7 32.6 5.6 33.7 4.7 33.75 Q5.7 34.7 7.15 35.2 L8.8 35.7 10.9 35.65 10.8 36.05 12.4 36.0 13.3 35.7 M2.9 29.3 L3.05 29.15 4.55 28.75 Q6.65 28.7 8.9 30.15 L9.7 30.5 9.8 31.65 9.9 31.65 10.55 31.2 Q12.0 32.5 13.0 34.45 L13.3 35.6 13.3 35.7" fill="none" stroke="#007424" stroke-linecap="round" stroke-linejoin="round" stroke-width="1.0"/>
    <path d="M57.65 38.15 L57.45 37.65 57.55 36.05 57.65 35.45 58.6 35.25 58.1 34.8 Q58.5 34.35 59.25 34.45 L60.15 34.7 61.4 35.8 61.3 35.35 62.15 36.05 62.7 36.8 Q61.35 37.0 59.3 37.75 L57.65 38.15" fill="#149326" fill-rule="evenodd" stroke="none"/>
    <path d="M62.7 36.8 L62.8 36.9 62.75 37.8 Q62.5 39.15 61.85 39.8 L61.4 39.0 61.35 38.95 61.45 39.9 61.1 40.1 Q59.9 40.25 58.75 39.3 L57.8 38.3 57.65 38.15 59.3 37.75 Q61.35 37.0 62.7 36.8" fill="#30b643" fill-rule="evenodd" stroke="none"/>
    <path d="M57.65 38.15 L57.45 37.65 57.55 36.05 57.65 35.45 58.6 35.25 58.1 34.8 Q58.5 34.35 59.25 34.45 L60.15 34.7 61.4 35.8 61.3 35.35 62.15 36.05 62.7 36.8 62.8 36.9 62.75 37.8 Q62.5 39.15 61.85 39.8 L61.4 39.0 61.35 38.95 61.45 39.9 61.1 40.1 Q59.9 40.25 58.75 39.3 L57.8 38.3 57.65 38.15 Z" fill="none" stroke="#007424" stroke-linecap="round" stroke-linejoin="round" stroke-width="1.0"/>
    <path d="M54.75 29.55 L54.8 29.5 55.7 30.55 Q57.1 32.15 57.7 33.7 L57.05 33.7 58.0 34.5 58.15 35.15 Q58.6 37.1 57.75 37.95 L57.0 38.45 56.75 38.4 56.05 35.65 54.75 29.55" fill="#30b643" fill-rule="evenodd" stroke="none"/>
    <path d="M56.75 38.4 L56.3 38.2 54.65 36.65 54.15 35.9 53.75 34.3 53.45 34.7 Q52.95 33.65 53.0 32.6 L53.1 31.5 53.85 30.6 53.45 30.35 Q53.7 30.0 54.1 29.75 54.4 29.35 54.75 29.55 L56.05 35.65 56.75 38.4" fill="#149326" fill-rule="evenodd" stroke="none"/>
    <path d="M54.75 29.55 L54.8 29.5 55.7 30.55 Q57.1 32.15 57.7 33.7 L57.05 33.7 58.0 34.5 58.15 35.15 Q58.6 37.1 57.75 37.95 L57.0 38.45 56.75 38.4 56.3 38.2 54.65 36.65 54.15 35.9 53.75 34.3 53.45 34.7 Q52.95 33.65 53.0 32.6 L53.1 31.5 53.85 30.6 53.45 30.35 Q53.7 30.0 54.1 29.75 54.4 29.35 54.75 29.55 Z" fill="none" stroke="#007424" stroke-linecap="round" stroke-linejoin="round" stroke-width="1.0"/>
    <path d="M55.85 38.5 L57.1 39.4 Q48.1 46.1 48.25 56.0 44.7 57.55 44.7 54.0 46.55 43.6 55.85 38.5" fill="#9c8f54" fill-rule="evenodd" stroke="none"/>
    <path d="M55.85 38.5 Q46.55 43.6 44.7 54.0 44.7 57.55 48.25 56.0 48.1 46.1 57.1 39.4 L55.85 38.5 Z" fill="none" stroke="#745300" stroke-linecap="round" stroke-linejoin="round" stroke-width="1.0"/>
    <path d="M56.0 38.1 L57.9 41.15 62.0 48.0 61.95 48.05 60.75 47.65 Q59.0 46.85 57.8 45.4 L58.2 44.75 58.2 44.7 57.1 44.5 56.75 43.9 Q55.45 41.7 55.55 39.8 55.6 38.5 55.9 38.25 L56.0 38.1" fill="#30b643" fill-rule="evenodd" stroke="none"/>
    <path d="M62.0 48.0 L57.9 41.15 56.0 38.1 Q56.25 37.9 56.45 37.85 L58.35 38.45 Q58.8 38.5 59.15 38.85 59.5 39.7 60.2 40.55 L60.2 39.7 Q61.1 40.65 61.55 42.1 L62.05 43.65 62.0 45.65 62.35 45.6 62.35 47.05 62.0 48.0" fill="#149326" fill-rule="evenodd" stroke="none"/>
    <path d="M56.0 38.1 L55.9 38.25 Q55.6 38.5 55.55 39.8 55.45 41.7 56.75 43.9 L57.1 44.5 58.2 44.7 58.2 44.75 57.8 45.4 Q59.0 46.85 60.75 47.65 L61.95 48.05 62.0 48.0 62.35 47.05 62.35 45.6 62.0 45.65 62.05 43.65 61.55 42.1 Q61.1 40.65 60.2 39.7 L60.2 40.55 Q59.5 39.7 59.15 38.85 58.8 38.5 58.35 38.45 L56.45 37.85 Q56.25 37.9 56.0 38.1 Z" fill="none" stroke="#007424" stroke-linecap="round" stroke-linejoin="round" stroke-width="1.0"/>
    <path d="M55.85 38.45 L56.3 38.6 57.4 40.3 57.8 41.15 Q57.55 42.05 57.45 43.15 L58.0 42.55 Q58.05 43.8 57.6 45.25 L56.95 46.75 55.6 48.15 55.9 48.4 55.0 49.55 Q54.5 50.05 54.15 49.95 L55.35 42.05 55.85 38.45" fill="#149326" fill-rule="evenodd" stroke="none"/>
    <path d="M54.15 49.95 L53.45 48.9 Q52.65 47.15 52.55 45.25 L53.35 45.1 53.35 45.0 52.65 44.15 52.7 43.35 Q53.15 40.8 54.4 39.4 L55.65 38.5 55.85 38.45 55.35 42.05 54.15 49.95" fill="#30b643" fill-rule="evenodd" stroke="none"/>
    <path d="M55.85 38.45 L56.3 38.6 57.4 40.3 57.8 41.15 Q57.55 42.05 57.45 43.15 L58.0 42.55 Q58.05 43.8 57.6 45.25 L56.95 46.75 55.6 48.15 55.9 48.4 55.0 49.55 Q54.5 50.05 54.15 49.95 L53.45 48.9 Q52.65 47.15 52.55 45.25 L53.35 45.1 53.35 45.0 52.65 44.15 52.7 43.35 Q53.15 40.8 54.4 39.4 L55.65 38.5 55.85 38.45 Z" fill="none" stroke="#007424" stroke-linecap="round" stroke-linejoin="round" stroke-width="1.0"/>
    <path d="M44.95 35.65 L45.05 35.6 Q45.15 35.45 46.05 35.05 47.95 34.4 49.9 34.55 L49.9 35.3 49.95 35.4 50.85 34.8 51.65 34.95 Q54.1 35.6 55.35 37.05 L56.2 38.35 56.15 38.6 52.65 37.7 44.95 35.65" fill="#30b643" fill-rule="evenodd" stroke="none"/>
    <path d="M56.15 38.6 L56.05 38.95 54.25 39.95 53.35 40.2 Q52.45 39.85 51.35 39.65 L51.95 40.25 Q50.65 40.25 49.3 39.6 L47.85 38.75 46.55 37.25 46.25 37.6 45.35 36.55 Q44.85 36.0 44.95 35.65 L52.65 37.7 56.15 38.6" fill="#149326" fill-rule="evenodd" stroke="none"/>
    <path d="M44.95 35.65 L45.05 35.6 Q45.15 35.45 46.05 35.05 47.95 34.4 49.9 34.55 L49.9 35.3 49.95 35.4 50.85 34.8 51.65 34.95 Q54.1 35.6 55.35 37.05 L56.2 38.35 56.15 38.6 56.05 38.95 54.25 39.95 53.35 40.2 Q52.45 39.85 51.35 39.65 L51.95 40.25 Q50.65 40.25 49.3 39.6 L47.85 38.75 46.55 37.25 46.25 37.6 45.35 36.55 Q44.85 36.0 44.95 35.65 Z" fill="none" stroke="#007424" stroke-linecap="round" stroke-linejoin="round" stroke-width="1.0"/>
  </g>
</svg>
