<?xml version="1.0" encoding="UTF-8" standalone="no"?>
<svg xmlns:xlink="http://www.w3.org/1999/xlink" height="11.9px" width="8.55px" xmlns="http://www.w3.org/2000/svg">
  <g transform="matrix(1.0, 0.0, 0.0, 1.0, 14.5, 1.3)">
    <path d="M-7.95 9.5 Q-9.0 10.6 -10.35 10.6 L-10.95 10.55 -11.05 10.55 Q-11.35 10.55 -11.6 10.35 -12.65 9.9 -13.45 8.75 -14.5 7.2 -14.5 5.8 -14.5 4.9 -13.4 3.8 -11.95 2.3 -9.65 3.1 -8.5 3.15 -7.6 4.65 -6.85 5.95 -6.85 6.85 -6.85 8.35 -7.95 9.5" fill="#000000" fill-opacity="0.14901961" fill-rule="evenodd" stroke="none"/>
    <path d="M-7.65 4.85 L-7.45 5.35 -7.15 5.15 -6.75 4.95 Q-6.45 4.95 -6.45 5.4 L-6.85 6.7 -7.3 7.6 -7.3 7.65 -8.25 8.6 Q-9.2 9.35 -9.65 9.35 -11.75 9.35 -12.9 8.2 -13.7 7.35 -13.7 6.55 L-13.65 6.25 -13.05 6.2 -13.4 3.9 -13.15 2.6 -13.2 2.5 -13.1 2.3 Q-12.85 1.55 -12.5 1.55 L-12.45 1.65 -12.55 2.0 -11.9 1.8 -10.6 1.5 -10.2 1.15 Q-8.8 1.25 -8.15 2.55 -7.65 3.5 -7.65 4.55 L-7.65 4.85" fill="#ffffff" fill-rule="evenodd" stroke="none"/>
    <path d="M-7.65 4.85 L-7.45 5.35 -7.15 5.15 -6.75 4.95 Q-6.45 4.95 -6.45 5.4 L-6.85 6.7 -7.3 7.6 -7.3 7.65 -8.25 8.6 Q-9.2 9.35 -9.65 9.35 -11.75 9.35 -12.9 8.2 -13.7 7.35 -13.7 6.55 L-13.65 6.25 -13.05 6.2 -13.4 3.9 -13.15 2.6 -13.2 2.5 -13.1 2.3 Q-12.85 1.55 -12.5 1.55 L-12.45 1.65 -12.55 2.0 -11.9 1.8 -10.6 1.5 -10.2 1.15 Q-8.8 1.25 -8.15 2.55 -7.65 3.5 -7.65 4.55 L-7.65 4.85 Z" fill="none" stroke="#cccccc" stroke-linecap="round" stroke-linejoin="round" stroke-width="1.0"/>
    <path d="M-7.65 4.85 L-7.45 5.35 -7.15 5.15 -6.75 4.95 Q-6.45 4.95 -6.45 5.4 L-6.85 6.7 -7.3 7.6 -7.3 7.65 -8.25 8.6 Q-9.2 9.35 -9.65 9.35 -11.75 9.35 -12.9 8.2 -13.7 7.35 -13.7 6.55 L-13.65 6.25 -13.05 6.2 -13.4 3.9 -13.15 2.6 -13.2 2.5 -13.1 2.3 Q-12.85 1.55 -12.5 1.55 L-12.45 1.65 -12.55 2.0 -11.9 1.8 -10.6 1.5 -10.2 1.15 Q-8.8 1.25 -8.15 2.55 -7.65 3.5 -7.65 4.55 L-7.65 4.85" fill="#ffffff" fill-rule="evenodd" stroke="none"/>
    <path d="M-7.15 5.4 L-7.0 6.25 -6.9 6.4 -7.95 5.85 -8.85 4.9 -10.15 3.05 -10.4 2.75 -10.35 2.45 -10.3 2.45 -10.3 2.3 -10.1 2.45 Q-9.35 2.8 -7.15 5.4" fill="#ffffff" fill-rule="evenodd" stroke="none"/>
    <path d="M-7.15 5.4 L-7.0 6.25 -6.9 6.4 -7.95 5.85 -8.85 4.9 -10.15 3.05 -10.4 2.75 -10.35 2.45 -10.3 2.45 -10.3 2.3 -10.1 2.45 Q-9.35 2.8 -7.15 5.4 Z" fill="none" stroke="#cccccc" stroke-linecap="round" stroke-linejoin="round" stroke-width="1.0"/>
    <path d="M-7.15 5.4 L-7.0 6.25 -6.9 6.4 -7.95 5.85 -8.85 4.9 -10.15 3.05 -10.4 2.75 -10.35 2.45 -10.3 2.45 -10.3 2.3 -10.1 2.45 Q-9.35 2.8 -7.15 5.4" fill="#ffffff" fill-rule="evenodd" stroke="none"/>
    <path d="M-11.75 3.0 Q-11.4 3.55 -11.4 6.6 L-11.8 7.4 -11.85 7.55 -12.3 6.6 -12.35 5.5 -12.2 3.4 -12.2 3.05 Q-12.05 2.85 -11.95 2.9 L-11.9 2.9 -11.8 2.85 -11.75 3.0" fill="#ffffff" fill-rule="evenodd" stroke="none"/>
    <path d="M-11.75 3.0 Q-11.4 3.55 -11.4 6.6 L-11.8 7.4 -11.85 7.55 -12.3 6.6 -12.35 5.5 -12.2 3.4 -12.2 3.05 Q-12.05 2.85 -11.95 2.9 L-11.9 2.9 -11.8 2.85 -11.75 3.0 Z" fill="none" stroke="#cccccc" stroke-linecap="round" stroke-linejoin="round" stroke-width="1.0"/>
    <path d="M-11.75 3.0 Q-11.4 3.55 -11.4 6.6 L-11.8 7.4 -11.85 7.55 -12.3 6.6 -12.35 5.5 -12.2 3.4 -12.2 3.05 Q-12.05 2.85 -11.95 2.9 L-11.9 2.9 -11.8 2.85 -11.75 3.0" fill="#ffffff" fill-rule="evenodd" stroke="none"/>
    <path d="M-9.45 2.05 Q-9.65 3.35 -11.05 3.65 -12.0 3.85 -12.5 3.3 L-12.9 2.4 Q-13.2 1.65 -13.05 0.75 -12.85 -0.5 -11.6 -0.75 -10.15 -1.05 -9.6 0.4 -9.25 1.25 -9.45 2.05 Z" fill="none" stroke="#cccccc" stroke-linecap="round" stroke-linejoin="round" stroke-width="1.0"/>
    <path d="M-9.45 2.05 Q-9.65 3.35 -11.05 3.65 -12.0 3.85 -12.5 3.3 L-12.9 2.4 Q-13.2 1.65 -13.05 0.75 -12.85 -0.5 -11.6 -0.75 -10.15 -1.05 -9.6 0.4 -9.25 1.25 -9.45 2.05" fill="#ffffff" fill-rule="evenodd" stroke="none"/>
    <path d="M-11.25 0.3 L-11.45 0.4 -11.55 0.3 -11.5 0.05 -11.25 0.0 -11.15 0.1 -11.25 0.3 M-12.4 1.6 L-12.1 1.5 -12.05 1.7 -12.05 1.75 -12.0 1.9 -12.1 2.0 -12.45 1.95 -12.5 1.65 -12.4 1.6 M-10.4 1.65 Q-10.45 1.4 -10.2 1.3 -10.05 1.3 -10.05 1.5 -9.95 1.65 -10.15 1.8 L-10.4 1.65" fill="#000000" fill-rule="evenodd" stroke="none"/>
    <path d="M-8.95 8.1 L-8.75 8.25 Q-8.75 9.25 -9.65 9.25 -10.25 9.25 -10.25 8.65 -10.25 8.0 -9.6 8.0 L-8.95 8.1 M-9.0 8.35 Q-10.0 8.0 -10.0 8.65 L-9.9 8.85 -9.55 9.0 -9.1 8.85 -9.0 8.65 -9.0 8.35 M-12.7 7.4 L-13.0 7.0 -13.2 6.5 -13.15 6.15 Q-12.8 6.3 -12.65 7.3 L-12.7 7.4" fill="#cccccc" fill-rule="evenodd" stroke="none"/>
  </g>
</svg>
