<?xml version="1.0" encoding="UTF-8" standalone="no"?>
<svg xmlns:xlink="http://www.w3.org/1999/xlink" height="171.5px" width="192.9px" xmlns="http://www.w3.org/2000/svg">
  <g transform="matrix(1.0, 0.0, 0.0, 1.0, 70.4, 99.0)">
    <path d="M-70.4 -99.0 L122.5 -99.0 122.5 72.5 -70.4 72.5 -70.4 -99.0 M-46.15 -23.1 Q-47.85 -22.35 -48.0 -21.45 -48.15 -20.45 -46.55 -19.25 -49.15 -20.85 -52.2 -20.35 -55.25 -19.95 -57.35 -17.65 -59.5 -15.35 -59.75 -12.2 -63.75 28.0 -23.85 58.3 -21.3 60.2 -18.15 59.95 -15.0 59.75 -12.65 57.55 2.45 43.1 6.85 23.0 7.5 19.9 6.1 17.05 4.6 14.2 1.7 13.05 -23.0 3.1 -35.3 -19.35 L-36.85 -21.45 Q-38.15 -22.75 -40.0 -23.35 L-46.15 -23.1" fill="#00ff00" fill-rule="evenodd" stroke="none"/>
  </g>
</svg>
