<?xml version="1.0" encoding="UTF-8" standalone="no"?>
<svg xmlns:xlink="http://www.w3.org/1999/xlink" height="97.55px" width="66.0px" xmlns="http://www.w3.org/2000/svg">
  <g transform="matrix(1.0, 0.0, 0.0, 1.0, 0.6, 33.3)">
    <path d="M33.95 9.15 L33.95 6.3 54.55 6.3 54.55 9.15 33.95 9.15" fill="#ffc617" fill-rule="evenodd" stroke="none"/>
    <path d="M59.5 0.65 L59.5 0.7 62.5 4.6 62.5 13.1 30.95 13.15 30.95 4.65 33.9 0.6 34.05 0.65 59.5 0.65" fill="#b08500" fill-rule="evenodd" stroke="none"/>
    <path d="M59.5 0.65 L59.5 0.7 62.5 4.6 62.5 13.1 30.95 13.15 30.95 4.65 33.9 0.6 34.05 0.65 59.5 0.65 Z" fill="none" stroke="#624900" stroke-linecap="round" stroke-linejoin="round" stroke-width="2.0"/>
    <path d="M59.5 0.7 L62.5 4.6 62.5 13.1 59.4 9.15 59.5 9.15 59.5 0.7 M30.95 13.15 L30.95 4.65 33.9 0.6 34.05 0.65 33.95 0.65 33.95 9.15 34.0 9.15 30.95 13.15" fill="#b08500" fill-rule="evenodd" stroke="none"/>
    <path d="M62.5 13.1 L30.95 13.15 34.0 9.15 59.4 9.15 62.5 13.1" fill="#dda600" fill-rule="evenodd" stroke="none"/>
    <path d="M34.05 0.65 L59.5 0.65 59.5 0.7 59.5 9.15 59.4 9.15 34.0 9.15 33.95 9.15 33.95 0.65 34.05 0.65" fill="url(#gradient0)" fill-rule="evenodd" stroke="none"/>
    <path d="M48.8 2.65 Q49.4 3.6 49.4 4.55 49.4 5.4 48.8 6.25 47.75 7.65 45.45 7.65 44.1 7.65 43.35 6.5 42.85 5.7 42.85 5.05 L42.95 4.65 42.85 4.4 43.0 3.6 43.8 2.4 44.55 1.8 Q45.2 1.5 45.75 1.5 L45.95 1.4 46.75 1.45 Q48.0 1.45 48.8 2.65 M48.25 4.8 L48.35 4.4 Q48.35 3.8 47.4 3.15 46.4 2.45 45.8 2.55 44.4 2.7 44.05 3.65 L43.7 4.85 Q43.7 6.7 46.45 6.7 47.25 6.7 48.15 5.6 L48.35 5.1 48.25 4.8" fill="#b08500" fill-rule="evenodd" stroke="none"/>
    <path d="M4.15 8.9 L4.15 6.05 24.75 6.05 24.75 8.9 4.15 8.9" fill="#ffc617" fill-rule="evenodd" stroke="none"/>
    <path d="M29.7 0.4 L29.7 0.45 32.7 4.35 32.7 12.85 1.15 12.9 1.15 4.4 4.1 0.35 4.25 0.4 29.7 0.4" fill="#b08500" fill-rule="evenodd" stroke="none"/>
    <path d="M29.7 0.4 L29.7 0.45 32.7 4.35 32.7 12.85 1.15 12.9 1.15 4.4 4.1 0.35 4.25 0.4 29.7 0.4 Z" fill="none" stroke="#624900" stroke-linecap="round" stroke-linejoin="round" stroke-width="2.0"/>
    <path d="M32.7 12.85 L29.6 8.9 29.7 8.9 29.7 0.45 32.7 4.35 32.7 12.85 M4.2 8.9 L1.15 12.9 1.15 4.4 4.1 0.35 4.25 0.4 4.15 0.4 4.15 8.9 4.2 8.9" fill="#b08500" fill-rule="evenodd" stroke="none"/>
    <path d="M29.6 8.9 L32.7 12.85 1.15 12.9 4.2 8.9 29.6 8.9" fill="#dda600" fill-rule="evenodd" stroke="none"/>
    <path d="M29.7 0.45 L29.7 8.9 29.6 8.9 4.2 8.9 4.15 8.9 4.15 0.4 4.25 0.4 29.7 0.4 29.7 0.45" fill="url(#gradient1)" fill-rule="evenodd" stroke="none"/>
    <path d="M19.0 2.4 Q19.6 3.35 19.6 4.3 19.6 5.15 19.0 6.0 17.95 7.4 15.65 7.4 14.3 7.4 13.55 6.25 13.05 5.45 13.05 4.8 L13.15 4.4 13.05 4.15 13.2 3.35 14.0 2.15 14.75 1.55 Q15.4 1.25 15.95 1.25 L16.15 1.15 16.95 1.2 Q18.2 1.2 19.0 2.4 M18.45 4.55 L18.55 4.15 Q18.55 3.55 17.6 2.9 16.6 2.2 16.0 2.3 14.6 2.45 14.25 3.4 L13.9 4.6 Q13.9 6.45 16.65 6.45 17.45 6.45 18.35 5.35 L18.55 4.85 18.45 4.55" fill="#b08500" fill-rule="evenodd" stroke="none"/>
    <path d="M34.45 -3.85 L34.45 -6.7 55.05 -6.7 55.05 -3.85 34.45 -3.85" fill="#ffc617" fill-rule="evenodd" stroke="none"/>
    <path d="M60.0 -12.35 L60.0 -12.3 63.0 -8.4 63.0 0.1 31.45 0.15 31.45 -8.35 34.4 -12.4 34.55 -12.35 60.0 -12.35" fill="#b08500" fill-rule="evenodd" stroke="none"/>
    <path d="M60.0 -12.35 L60.0 -12.3 63.0 -8.4 63.0 0.1 31.45 0.15 31.45 -8.35 34.4 -12.4 34.55 -12.35 60.0 -12.35 Z" fill="none" stroke="#624900" stroke-linecap="round" stroke-linejoin="round" stroke-width="2.0"/>
    <path d="M31.45 0.15 L31.45 -8.35 34.4 -12.4 34.55 -12.35 34.45 -12.35 34.45 -3.85 34.5 -3.85 31.45 0.15 M60.0 -12.3 L63.0 -8.4 63.0 0.1 59.9 -3.85 60.0 -3.85 60.0 -12.3" fill="#b08500" fill-rule="evenodd" stroke="none"/>
    <path d="M34.5 -3.85 L34.45 -3.85 34.45 -12.35 34.55 -12.35 60.0 -12.35 60.0 -12.3 60.0 -3.85 59.9 -3.85 34.5 -3.85" fill="url(#gradient2)" fill-rule="evenodd" stroke="none"/>
    <path d="M31.45 0.15 L34.5 -3.85 59.9 -3.85 63.0 0.1 31.45 0.15" fill="#dda600" fill-rule="evenodd" stroke="none"/>
    <path d="M48.75 -8.2 L48.85 -8.6 Q48.85 -9.2 47.9 -9.85 46.9 -10.55 46.3 -10.45 44.9 -10.3 44.55 -9.35 L44.2 -8.15 Q44.2 -6.3 46.95 -6.3 47.75 -6.3 48.65 -7.4 L48.85 -7.9 48.75 -8.2 M49.3 -10.35 Q49.9 -9.4 49.9 -8.45 49.9 -7.6 49.3 -6.75 48.25 -5.35 45.95 -5.35 44.6 -5.35 43.85 -6.5 43.35 -7.3 43.35 -7.95 L43.45 -8.35 43.35 -8.6 43.5 -9.4 44.3 -10.6 Q44.4 -10.85 45.05 -11.2 L46.25 -11.5 Q46.4 -11.5 46.45 -11.6 L47.25 -11.55 Q48.5 -11.55 49.3 -10.35" fill="#b08500" fill-rule="evenodd" stroke="none"/>
    <path d="M3.4 -4.1 L3.4 -6.95 24.0 -6.95 24.0 -4.1 3.4 -4.1" fill="#ffc617" fill-rule="evenodd" stroke="none"/>
    <path d="M28.95 -12.6 L28.95 -12.55 31.95 -8.65 31.95 -0.15 0.4 -0.1 0.4 -8.6 3.35 -12.65 3.5 -12.6 28.95 -12.6" fill="#b08500" fill-rule="evenodd" stroke="none"/>
    <path d="M28.95 -12.6 L28.95 -12.55 31.95 -8.65 31.95 -0.15 0.4 -0.1 0.4 -8.6 3.35 -12.65 3.5 -12.6 28.95 -12.6 Z" fill="none" stroke="#624900" stroke-linecap="round" stroke-linejoin="round" stroke-width="2.0"/>
    <path d="M3.45 -4.1 L0.4 -0.1 0.4 -8.6 3.35 -12.65 3.5 -12.6 3.4 -12.6 3.4 -4.1 3.45 -4.1 M31.95 -0.15 L28.85 -4.1 28.95 -4.1 28.95 -12.55 31.95 -8.65 31.95 -0.15" fill="#b08500" fill-rule="evenodd" stroke="none"/>
    <path d="M0.4 -0.1 L3.45 -4.1 28.85 -4.1 31.95 -0.15 0.4 -0.1" fill="#dda600" fill-rule="evenodd" stroke="none"/>
    <path d="M3.45 -4.1 L3.4 -4.1 3.4 -12.6 3.5 -12.6 28.95 -12.6 28.95 -12.55 28.95 -4.1 28.85 -4.1 3.45 -4.1" fill="url(#gradient3)" fill-rule="evenodd" stroke="none"/>
    <path d="M17.7 -8.45 L17.8 -8.85 Q17.8 -9.45 16.85 -10.1 15.85 -10.8 15.25 -10.7 13.85 -10.55 13.5 -9.6 L13.15 -8.4 Q13.15 -6.55 15.9 -6.55 16.7 -6.55 17.6 -7.65 L17.8 -8.15 17.7 -8.45 M18.25 -10.6 Q18.85 -9.65 18.85 -8.7 18.85 -7.85 18.25 -7.0 17.2 -5.6 14.9 -5.6 13.55 -5.6 12.8 -6.75 12.3 -7.55 12.3 -8.2 L12.4 -8.6 12.3 -8.85 12.45 -9.65 13.25 -10.85 Q13.35 -11.1 14.0 -11.45 L15.2 -11.75 15.4 -11.85 16.2 -11.8 Q17.45 -11.8 18.25 -10.6" fill="#b08500" fill-rule="evenodd" stroke="none"/>
    <path d="M9.6 -1.6 L9.6 -2.0 5.7 -2.0 6.15 -2.3 6.15 -16.35 31.9 -32.2 31.9 -32.3 32.0 -32.25 32.1 -32.15 58.6 -16.35 58.6 -2.35 58.95 -2.1 55.25 -2.1 55.25 -1.6 42.0 -1.6 42.0 -2.05 22.85 -2.0 22.85 -1.6 9.6 -1.6" fill="#666666" fill-rule="evenodd" stroke="none"/>
    <path d="M55.25 -1.6 L55.25 -2.1 58.95 -2.1 58.6 -2.35 58.6 -16.35 32.1 -32.15 32.0 -32.25 31.9 -32.3 31.9 -32.2 6.15 -16.35 6.15 -2.3 5.7 -2.0 9.6 -2.0 9.6 -1.6 M22.85 -1.6 L22.85 -2.0 42.0 -2.05 42.0 -1.6" fill="none" stroke="#554001" stroke-linecap="round" stroke-linejoin="round" stroke-width="2.0"/>
    <path d="M31.9 -32.2 L31.9 -32.3 32.0 -32.25 32.1 -32.15 58.6 -16.35 58.6 -2.15 58.5 -2.25 32.1 -19.75 32.0 -19.85 31.9 -32.2" fill="#ffd351" fill-rule="evenodd" stroke="none"/>
    <path d="M32.1 -19.75 L6.15 -2.15 6.15 -16.35 31.9 -32.2 32.0 -19.85 32.1 -19.75" fill="#b88b04" fill-rule="evenodd" stroke="none"/>
    <path d="M5.7 -2.0 L32.15 -19.8 58.95 -2.1 5.7 -2.0" fill="#dda600" fill-rule="evenodd" stroke="none"/>
    <path d="M16.15 -4.9 L32.3 -15.75 48.6 -4.9 16.15 -4.9" fill="#884ad4" fill-rule="evenodd" stroke="none"/>
    <path d="M9.6 13.95 L9.6 13.55 5.7 13.55 6.15 13.25 6.15 -0.8 31.9 -16.65 31.9 -16.75 32.0 -16.7 32.1 -16.6 58.6 -0.8 58.6 13.2 58.95 13.45 55.25 13.45 55.25 13.95 42.0 13.95 42.0 13.5 22.85 13.55 22.85 13.95 9.6 13.95" fill="#666666" fill-rule="evenodd" stroke="none"/>
    <path d="M55.25 13.95 L55.25 13.45 58.95 13.45 58.6 13.2 58.6 -0.8 32.1 -16.6 32.0 -16.7 31.9 -16.75 31.9 -16.65 6.15 -0.8 6.15 13.25 5.7 13.55 9.6 13.55 9.6 13.95 M22.85 13.95 L22.85 13.55 42.0 13.5 42.0 13.95" fill="none" stroke="#554001" stroke-linecap="round" stroke-linejoin="round" stroke-width="2.0"/>
    <path d="M31.9 -16.65 L32.0 -4.3 32.1 -4.2 6.15 13.4 6.15 -0.8 31.9 -16.65" fill="#b88b04" fill-rule="evenodd" stroke="none"/>
    <path d="M31.9 -16.65 L31.9 -16.75 32.0 -16.7 32.1 -16.6 58.6 -0.8 58.6 13.4 58.5 13.3 32.1 -4.2 32.0 -4.3 31.9 -16.65" fill="#ffd351" fill-rule="evenodd" stroke="none"/>
    <path d="M5.7 13.55 L32.15 -4.25 58.95 13.45 5.7 13.55" fill="#dda600" fill-rule="evenodd" stroke="none"/>
    <path d="M16.15 10.65 L32.3 -0.2 48.6 10.65 16.15 10.65" fill="#884ad4" fill-rule="evenodd" stroke="none"/>
    <path d="M31.75 0.0 L31.75 -0.1 31.85 -0.05 31.95 0.05 58.45 15.85 58.45 29.85 58.8 30.1 55.1 30.1 55.1 31.65 52.65 31.95 52.6 34.1 52.55 34.1 51.95 52.6 53.5 53.0 53.35 59.2 53.3 59.25 53.3 59.3 Q53.3 59.9 52.0 60.45 50.55 61.1 48.5 61.1 L47.8 61.15 47.55 61.15 44.2 60.9 44.15 60.9 43.95 60.85 43.4 60.75 43.3 60.75 43.3 60.7 Q41.15 60.2 41.1 59.05 L41.15 59.0 41.3 53.05 41.4 53.0 43.05 52.6 43.75 31.9 41.85 31.65 41.85 30.15 22.7 30.2 22.7 31.85 20.8 32.1 20.95 34.45 20.9 34.45 21.85 52.7 23.45 53.1 23.85 59.2 Q23.7 59.7 22.2 60.35 L18.9 61.0 15.95 60.8 15.55 60.7 15.15 60.65 14.2 60.45 13.75 60.35 13.45 60.3 13.25 60.25 13.15 60.2 13.05 60.15 12.95 60.1 Q11.55 59.55 11.55 59.0 L11.65 58.9 11.25 53.1 11.7 52.95 12.95 52.7 11.9 32.15 9.45 31.85 9.45 30.2 5.55 30.2 6.0 29.9 6.0 15.85 31.75 0.0 M14.2 53.85 L14.25 53.8 14.15 53.8 14.2 53.85" fill="#666666" fill-rule="evenodd" stroke="none"/>
    <path d="M31.75 0.0 L6.0 15.85 6.0 29.9 5.55 30.2 9.45 30.2 9.45 31.85 11.9 32.15 12.95 52.7 11.7 52.95 11.25 53.1 11.65 58.9 11.55 59.0 Q11.55 59.55 12.95 60.1 L13.05 60.15 13.15 60.2 13.25 60.25 13.45 60.3 13.75 60.35 14.2 60.45 15.15 60.65 15.55 60.7 15.95 60.8 18.9 61.0 22.2 60.35 Q23.7 59.7 23.85 59.2 L23.45 53.1 21.85 52.7 20.9 34.45 20.95 34.45 20.8 32.1 22.7 31.85 22.7 30.2 41.85 30.15 41.85 31.65 43.75 31.9 43.05 52.6 41.4 53.0 41.3 53.05 41.15 59.0 41.1 59.05 Q41.15 60.2 43.3 60.7 L43.3 60.75 43.4 60.75 43.95 60.85 44.15 60.9 44.2 60.9 47.55 61.15 47.8 61.15 48.5 61.1 Q50.55 61.1 52.0 60.45 53.3 59.9 53.3 59.3 L53.3 59.25 53.35 59.2 53.5 53.0 51.95 52.6 52.55 34.1 52.6 34.1 52.65 31.95 55.1 31.65 55.1 30.1 58.8 30.1 58.45 29.85 58.45 15.85 31.95 0.05 31.85 -0.05 31.75 -0.1 31.75 0.0 Z" fill="none" stroke="#554001" stroke-linecap="round" stroke-linejoin="round" stroke-width="2.0"/>
    <path d="M52.55 34.1 L51.95 52.6 53.5 53.0 53.35 59.2 53.3 59.25 53.3 59.3 Q53.3 59.9 52.0 60.45 50.55 61.1 48.5 61.1 L47.8 61.15 47.55 61.15 44.2 60.9 44.2 60.7 44.2 60.5 44.2 60.2 44.2 59.75 44.25 59.75 Q44.4 57.15 44.15 55.0 L44.05 54.35 45.9 53.25 45.6 50.8 46.0 43.2 46.35 35.35 46.35 34.45 46.35 34.3 Q48.35 33.35 51.45 33.8 L52.55 34.1 M15.95 60.8 L15.55 59.65 Q14.85 56.05 14.85 55.25 14.8 54.95 15.05 54.7 L15.45 54.3 15.6 53.9 15.55 53.6 15.1 42.6 14.65 37.75 14.45 35.55 14.45 34.75 Q16.45 33.65 19.75 34.15 L20.9 34.45 21.85 52.7 23.45 53.1 23.85 59.2 Q23.7 59.7 22.2 60.35 L18.9 61.0 15.95 60.8" fill="#ffd351" fill-rule="evenodd" stroke="none"/>
    <path d="M41.15 58.8 L41.3 53.05 41.4 53.0 43.05 52.6 43.75 31.15 52.65 31.15 52.6 34.1 52.55 34.1 51.45 33.8 Q48.35 33.35 46.35 34.3 L46.35 34.45 46.35 35.35 46.0 43.2 45.6 50.8 45.9 53.25 44.05 54.35 44.15 55.0 Q44.4 57.15 44.25 59.75 L44.2 59.75 44.2 60.2 44.2 60.5 44.2 60.7 44.2 60.9 44.15 60.9 43.95 60.85 43.4 60.75 43.3 60.75 43.3 60.7 Q41.15 60.2 41.1 59.05 L41.15 59.0 41.15 58.8 M20.9 34.45 L19.75 34.15 Q16.45 33.65 14.45 34.75 L14.45 35.55 14.65 37.75 15.1 42.6 15.55 53.6 15.6 53.9 15.45 54.3 15.05 54.7 Q14.8 54.95 14.85 55.25 14.85 56.05 15.55 59.65 L15.95 60.8 15.55 60.7 15.15 60.65 14.2 60.45 14.15 60.45 14.0 60.4 13.9 60.4 13.75 60.35 13.7 60.35 13.45 60.3 13.25 60.25 13.15 60.2 13.05 60.15 12.95 60.1 Q11.55 59.55 11.55 59.0 L11.65 58.9 11.25 53.1 11.7 52.95 12.95 52.7 11.85 31.45 20.75 31.45 20.95 34.45 20.9 34.45 M14.25 53.8 L14.15 53.8 14.2 53.85 14.25 53.8" fill="#dda600" fill-rule="evenodd" stroke="none"/>
    <path d="M41.1 59.05 L41.1 59.0 41.15 58.8 41.15 59.0 41.1 59.05 M13.7 60.35 L13.75 60.35 13.9 60.4 13.7 60.35 M41.3 51.95 L41.3 51.9 41.4 51.9 41.3 51.95" fill="#ffffff" fill-rule="evenodd" stroke="none"/>
    <path d="M55.1 31.65 Q48.5 32.6 41.85 31.65 L41.85 29.2 55.1 29.2 55.1 31.65 M22.7 31.85 Q16.1 32.8 9.45 31.85 L9.45 29.4 22.7 29.4 22.7 31.85" fill="#ffd351" fill-rule="evenodd" stroke="none"/>
    <path d="M31.75 0.0 L31.75 -0.1 31.85 -0.05 31.95 0.05 58.45 15.85 58.45 30.05 58.35 29.95 31.95 12.45 31.85 12.35 31.75 0.0" fill="#ffd351" fill-rule="evenodd" stroke="none"/>
    <path d="M31.75 0.0 L31.85 12.35 31.95 12.45 6.0 30.05 6.0 15.85 31.75 0.0" fill="#b88b04" fill-rule="evenodd" stroke="none"/>
    <path d="M5.55 30.2 L32.0 12.4 58.8 30.1 5.55 30.2" fill="#dda600" fill-rule="evenodd" stroke="none"/>
    <path d="M16.0 27.3 L32.15 16.45 48.45 27.3 16.0 27.3" fill="#884ad4" fill-rule="evenodd" stroke="none"/>
    <path d="M29.8 50.75 L29.8 59.25 24.85 59.25 24.85 56.4 4.25 56.4 4.25 50.75 29.8 50.75 M61.4 50.75 L61.4 53.9 42.9 53.9 42.9 59.25 35.85 59.25 35.85 50.75 61.4 50.75" fill="#ffc617" fill-rule="evenodd" stroke="none"/>
    <path d="M4.25 59.25 L4.25 56.4 24.85 56.4 24.85 59.25 4.25 59.25" fill="#ffc617" fill-rule="evenodd" stroke="none"/>
    <path d="M29.8 50.75 L29.8 50.8 32.8 54.7 32.8 63.2 1.25 63.25 1.25 54.75 4.2 50.7 4.35 50.75 29.8 50.75" fill="#b08500" fill-rule="evenodd" stroke="none"/>
    <path d="M29.8 50.75 L29.8 50.8 32.8 54.7 32.8 63.2 1.25 63.25 1.25 54.75 4.2 50.7 4.35 50.75 29.8 50.75 Z" fill="none" stroke="#624900" stroke-linecap="round" stroke-linejoin="round" stroke-width="2.0"/>
    <path d="M32.8 63.2 L29.7 59.25 29.8 59.25 29.8 50.8 32.8 54.7 32.8 63.2 M4.3 59.25 L1.25 63.25 1.25 54.75 4.2 50.7 4.35 50.75 4.25 50.75 4.25 59.25 4.3 59.25" fill="#b08500" fill-rule="evenodd" stroke="none"/>
    <path d="M29.7 59.25 L32.8 63.2 1.25 63.25 4.3 59.25 29.7 59.25" fill="#dda600" fill-rule="evenodd" stroke="none"/>
    <path d="M29.8 50.8 L29.8 59.25 29.7 59.25 4.3 59.25 4.25 59.25 4.25 50.75 4.35 50.75 29.8 50.75 29.8 50.8" fill="url(#gradient4)" fill-rule="evenodd" stroke="none"/>
    <path d="M19.1 52.75 Q19.7 53.7 19.7 54.65 19.7 55.5 19.1 56.35 18.05 57.75 15.75 57.75 14.4 57.75 13.65 56.6 13.15 55.8 13.15 55.15 L13.25 54.75 13.15 54.5 13.3 53.7 14.1 52.5 Q14.2 52.25 14.85 51.9 L16.05 51.6 16.25 51.5 17.05 51.55 Q18.3 51.55 19.1 52.75 M18.55 54.9 L18.65 54.5 Q18.65 53.9 17.7 53.25 16.7 52.55 16.1 52.65 14.7 52.8 14.35 53.75 L14.0 54.95 Q14.0 56.8 16.75 56.8 17.55 56.8 18.45 55.7 L18.65 55.2 18.55 54.9" fill="#b08500" fill-rule="evenodd" stroke="none"/>
    <path d="M61.4 59.25 L42.9 59.25 42.9 53.9 61.4 53.9 61.4 59.25" fill="#ffc617" fill-rule="evenodd" stroke="none"/>
    <path d="M61.4 50.75 L61.4 50.8 64.4 54.7 64.4 63.2 32.85 63.25 32.85 54.75 35.8 50.7 35.95 50.75 61.4 50.75" fill="#b08500" fill-rule="evenodd" stroke="none"/>
    <path d="M61.4 50.75 L61.4 50.8 64.4 54.7 64.4 63.2 32.85 63.25 32.85 54.75 35.8 50.7 35.95 50.75 61.4 50.75 Z" fill="none" stroke="#624900" stroke-linecap="round" stroke-linejoin="round" stroke-width="2.0"/>
    <path d="M32.85 63.25 L32.85 54.75 35.8 50.7 35.95 50.75 35.85 50.75 35.85 59.25 35.9 59.25 32.85 63.25 M61.4 50.8 L64.4 54.7 64.4 63.2 61.3 59.25 61.4 59.25 61.4 50.8" fill="#b08500" fill-rule="evenodd" stroke="none"/>
    <path d="M32.85 63.25 L35.9 59.25 61.3 59.25 64.4 63.2 32.85 63.25" fill="#dda600" fill-rule="evenodd" stroke="none"/>
    <path d="M35.9 59.25 L35.85 59.25 35.85 50.75 35.95 50.75 61.4 50.75 61.4 50.8 61.4 59.25 61.3 59.25 35.9 59.25" fill="url(#gradient5)" fill-rule="evenodd" stroke="none"/>
    <path d="M50.7 52.75 Q51.3 53.7 51.3 54.65 51.3 55.5 50.7 56.35 49.65 57.75 47.35 57.75 46.0 57.75 45.25 56.6 44.75 55.8 44.75 55.15 L44.85 54.75 44.75 54.5 44.9 53.7 45.7 52.5 Q45.8 52.25 46.45 51.9 L47.65 51.6 47.85 51.5 48.65 51.55 Q49.9 51.55 50.7 52.75 M50.15 54.9 L50.25 54.5 Q50.25 53.9 49.3 53.25 48.3 52.55 47.7 52.65 46.3 52.8 45.95 53.75 L45.6 54.95 Q45.6 56.8 48.35 56.8 49.15 56.8 50.05 55.7 L50.25 55.2 50.15 54.9" fill="#b08500" fill-rule="evenodd" stroke="none"/>
    <path d="M4.25 53.1 L4.25 50.25 24.85 50.25 24.85 53.1 4.25 53.1" fill="#ffc617" fill-rule="evenodd" stroke="none"/>
    <path d="M29.8 44.6 L29.8 44.65 32.8 48.55 32.8 57.05 1.25 57.1 1.25 48.6 4.2 44.55 4.35 44.6 29.8 44.6" fill="#b08500" fill-rule="evenodd" stroke="none"/>
    <path d="M29.8 44.6 L29.8 44.65 32.8 48.55 32.8 57.05 1.25 57.1 1.25 48.6 4.2 44.55 4.35 44.6 29.8 44.6 Z" fill="none" stroke="#624900" stroke-linecap="round" stroke-linejoin="round" stroke-width="2.0"/>
    <path d="M29.8 44.65 L32.8 48.55 32.8 57.05 29.7 53.1 29.8 53.1 29.8 44.65 M1.25 57.1 L1.25 48.6 4.2 44.55 4.35 44.6 4.25 44.6 4.25 53.1 4.3 53.1 1.25 57.1" fill="#b08500" fill-rule="evenodd" stroke="none"/>
    <path d="M4.35 44.6 L29.8 44.6 29.8 44.65 29.8 53.1 29.7 53.1 4.3 53.1 4.25 53.1 4.25 44.6 4.35 44.6" fill="url(#gradient6)" fill-rule="evenodd" stroke="none"/>
    <path d="M32.8 57.05 L1.25 57.1 4.3 53.1 29.7 53.1 32.8 57.05" fill="#dda600" fill-rule="evenodd" stroke="none"/>
    <path d="M19.1 46.6 Q19.7 47.55 19.7 48.5 19.7 49.35 19.1 50.2 18.05 51.6 15.75 51.6 14.4 51.6 13.65 50.45 13.15 49.65 13.15 49.0 L13.25 48.6 13.15 48.35 13.3 47.55 14.1 46.35 Q14.2 46.1 14.85 45.75 L16.05 45.45 16.25 45.35 17.05 45.4 Q18.3 45.4 19.1 46.6 M18.55 48.75 L18.65 48.35 Q18.65 47.75 17.7 47.1 16.7 46.4 16.1 46.5 14.7 46.65 14.35 47.6 L14.0 48.8 Q14.0 50.65 16.75 50.65 17.55 50.65 18.45 49.55 L18.65 49.05 18.55 48.75" fill="#b08500" fill-rule="evenodd" stroke="none"/>
    <path d="M61.4 53.1 L42.9 53.1 42.9 47.75 61.4 47.75 61.4 53.1" fill="#ffc617" fill-rule="evenodd" stroke="none"/>
    <path d="M61.4 44.6 L61.4 44.65 64.4 48.55 64.4 57.05 32.85 57.1 32.85 48.6 35.8 44.55 35.95 44.6 61.4 44.6" fill="#b08500" fill-rule="evenodd" stroke="none"/>
    <path d="M61.4 44.6 L61.4 44.65 64.4 48.55 64.4 57.05 32.85 57.1 32.85 48.6 35.8 44.55 35.95 44.6 61.4 44.6 Z" fill="none" stroke="#624900" stroke-linecap="round" stroke-linejoin="round" stroke-width="2.0"/>
    <path d="M61.4 44.65 L64.4 48.55 64.4 57.05 61.3 53.1 61.4 53.1 61.4 44.65 M32.85 57.1 L32.85 48.6 35.8 44.55 35.95 44.6 35.85 44.6 35.85 53.1 35.9 53.1 32.85 57.1" fill="#b08500" fill-rule="evenodd" stroke="none"/>
    <path d="M35.95 44.6 L61.4 44.6 61.4 44.65 61.4 53.1 61.3 53.1 35.9 53.1 35.85 53.1 35.85 44.6 35.95 44.6" fill="url(#gradient7)" fill-rule="evenodd" stroke="none"/>
    <path d="M64.4 57.05 L32.85 57.1 35.9 53.1 61.3 53.1 64.4 57.05" fill="#dda600" fill-rule="evenodd" stroke="none"/>
    <path d="M50.7 46.6 Q51.3 47.55 51.3 48.5 51.3 49.35 50.7 50.2 49.65 51.6 47.35 51.6 46.0 51.6 45.25 50.45 44.75 49.65 44.75 49.0 L44.85 48.6 44.75 48.35 44.9 47.55 45.7 46.35 Q45.8 46.1 46.45 45.75 L47.65 45.45 47.85 45.35 48.65 45.4 Q49.9 45.4 50.7 46.6 M50.15 48.75 L50.25 48.35 Q50.25 47.75 49.3 47.1 48.3 46.4 47.7 46.5 46.3 46.65 45.95 47.6 L45.6 48.8 Q45.6 50.65 48.35 50.65 49.15 50.65 50.05 49.55 L50.25 49.05 50.15 48.75" fill="#b08500" fill-rule="evenodd" stroke="none"/>
  </g>
  <defs>
    <linearGradient gradientTransform="matrix(9.0E-4, -0.0044, 0.0051, 0.001, 46.7, 4.9)" gradientUnits="userSpaceOnUse" id="gradient0" spreadMethod="pad" x1="-819.2" x2="819.2">
      <stop offset="0.0" stop-color="#ffc617"/>
      <stop offset="1.0" stop-color="#ffd553"/>
    </linearGradient>
    <linearGradient gradientTransform="matrix(9.0E-4, -0.0044, 0.0051, 0.001, 16.9, 4.65)" gradientUnits="userSpaceOnUse" id="gradient1" spreadMethod="pad" x1="-819.2" x2="819.2">
      <stop offset="0.0" stop-color="#ffc617"/>
      <stop offset="1.0" stop-color="#ffd553"/>
    </linearGradient>
    <linearGradient gradientTransform="matrix(9.0E-4, -0.0044, 0.0051, 0.001, 47.2, -8.1)" gradientUnits="userSpaceOnUse" id="gradient2" spreadMethod="pad" x1="-819.2" x2="819.2">
      <stop offset="0.0" stop-color="#ffc617"/>
      <stop offset="1.0" stop-color="#ffd553"/>
    </linearGradient>
    <linearGradient gradientTransform="matrix(9.0E-4, -0.0044, 0.0051, 0.001, 16.15, -8.35)" gradientUnits="userSpaceOnUse" id="gradient3" spreadMethod="pad" x1="-819.2" x2="819.2">
      <stop offset="0.0" stop-color="#ffc617"/>
      <stop offset="1.0" stop-color="#ffd553"/>
    </linearGradient>
    <linearGradient gradientTransform="matrix(9.0E-4, -0.0044, 0.0051, 0.001, 17.0, 55.0)" gradientUnits="userSpaceOnUse" id="gradient4" spreadMethod="pad" x1="-819.2" x2="819.2">
      <stop offset="0.0" stop-color="#ffc617"/>
      <stop offset="1.0" stop-color="#ffd553"/>
    </linearGradient>
    <linearGradient gradientTransform="matrix(9.0E-4, -0.0044, 0.0051, 0.001, 48.6, 55.0)" gradientUnits="userSpaceOnUse" id="gradient5" spreadMethod="pad" x1="-819.2" x2="819.2">
      <stop offset="0.0" stop-color="#ffc617"/>
      <stop offset="1.0" stop-color="#ffd553"/>
    </linearGradient>
    <linearGradient gradientTransform="matrix(9.0E-4, -0.0044, 0.0051, 0.001, 17.0, 48.85)" gradientUnits="userSpaceOnUse" id="gradient6" spreadMethod="pad" x1="-819.2" x2="819.2">
      <stop offset="0.0" stop-color="#ffc617"/>
      <stop offset="1.0" stop-color="#ffd553"/>
    </linearGradient>
    <linearGradient gradientTransform="matrix(9.0E-4, -0.0044, 0.0051, 0.001, 48.6, 48.85)" gradientUnits="userSpaceOnUse" id="gradient7" spreadMethod="pad" x1="-819.2" x2="819.2">
      <stop offset="0.0" stop-color="#ffc617"/>
      <stop offset="1.0" stop-color="#ffd553"/>
    </linearGradient>
  </defs>
</svg>
