<?xml version="1.0" encoding="UTF-8" standalone="no"?>
<svg xmlns:xlink="http://www.w3.org/1999/xlink" height="36.55px" width="57.95px" xmlns="http://www.w3.org/2000/svg">
  <g transform="matrix(1.0, 0.0, 0.0, 1.0, 38.75, 11.8)">
    <path d="M-19.1 1.65 L-19.1 2.95 -29.8 2.95 -29.8 1.65 -19.1 1.65 M-17.2 9.0 L-17.2 10.25 -31.95 10.25 -31.95 9.0 -17.2 9.0 M6.75 14.0 L6.4 14.8 -32.05 14.8 Q-30.9 18.05 -26.95 19.9 L-26.7 19.9 -30.7 21.25 -38.0 14.0 -38.0 13.7 6.75 14.0 M3.8 19.85 L3.3 20.9 2.45 20.55 1.75 20.2 3.8 19.85 M-14.4 21.15 Q-14.75 21.25 -15.1 21.45 L-16.95 22.15 -19.25 22.9 -25.8 22.9 Q-26.65 22.4 -26.65 21.45 L-26.15 20.2 -26.05 20.05 -14.4 21.15 M-3.35 20.8 L-3.85 21.6 -4.7 22.55 -5.1 22.9 Q-6.5 24.0 -8.2 24.0 -10.25 24.0 -11.6 23.3 L-12.15 22.9 -12.9 21.65 -12.95 21.2 -12.95 21.15 -3.35 20.8" fill="#4e5b72" fill-rule="evenodd" stroke="none"/>
    <path d="M-29.8 1.65 L-29.8 -2.05 -27.65 -2.15 -21.05 -2.15 -19.1 -2.05 -19.1 1.65 -29.8 1.65 M-19.1 2.95 L-17.2 2.95 -17.2 9.0 -31.95 9.0 -31.95 2.95 -29.8 2.95 -19.1 2.95 M-17.2 10.25 L18.45 10.25 18.45 14.0 6.75 14.0 -38.0 13.7 -38.0 10.25 -31.95 10.25 -17.2 10.25 M6.4 14.8 L3.8 19.85 1.75 20.2 -0.45 19.05 -1.8 18.4 -3.25 19.05 -3.2 19.75 -3.35 20.8 -12.95 21.15 -12.7 20.35 -12.6 20.15 -14.4 21.15 -26.05 20.05 -26.7 19.9 -26.95 19.9 Q-30.9 18.05 -32.05 14.8 L6.4 14.8 M-14.4 21.15 L-12.6 20.15 -12.7 20.35 -12.95 21.15 -14.4 21.15 M-26.05 20.05 L-25.65 19.6 -26.7 19.9 -25.65 19.6 -26.05 20.05" fill="#7987a1" fill-rule="evenodd" stroke="none"/>
    <path d="M-22.4 -9.35 Q-22.4 -10.65 -22.55 -11.3 L-19.45 -11.3 -19.45 -9.35 -22.4 -9.35 M-26.15 -11.3 L-26.15 -9.35 -29.15 -9.35 -29.15 -11.3 -26.15 -11.3" fill="#8ab5ff" fill-rule="evenodd" stroke="none"/>
    <path d="M-22.55 -11.3 Q-22.4 -10.65 -22.4 -9.35 L-26.15 -9.35 -26.15 -11.3 -22.55 -11.3" fill="#969bb4" fill-rule="evenodd" stroke="none"/>
    <path d="M-22.4 -9.35 L-19.45 -9.35 -19.45 -8.5 -22.3 -8.5 -22.4 -8.5 -22.4 -9.35 M-29.15 -9.35 L-26.15 -9.35 -26.15 -8.5 -29.15 -8.5 -29.15 -9.35" fill="#6d95d9" fill-rule="evenodd" stroke="none"/>
    <path d="M-23.05 -7.8 L-25.35 -7.8 -24.2 -6.4 -23.05 -7.8 M-22.4 -8.5 L-22.3 -8.5 -20.5 -2.15 -21.05 -2.15 -27.65 -2.15 -26.1 -8.5 -22.4 -8.5 M-22.6 -3.55 L-24.2 -5.65 -25.8 -3.55 -22.6 -3.55 M-23.7 -6.0 L-22.05 -4.1 -22.6 -7.5 -23.7 -6.0 M-26.35 -4.1 L-24.7 -6.0 -25.75 -7.5 -26.35 -4.1" fill="#e42900" fill-rule="evenodd" stroke="none"/>
    <path d="M-26.15 -9.35 L-22.4 -9.35 -22.4 -8.5 -26.1 -8.5 -26.15 -8.5 -26.15 -9.35" fill="#71768c" fill-rule="evenodd" stroke="none"/>
    <path d="M-29.8 1.65 L-29.8 -2.05 -27.65 -2.15 -21.05 -2.15 -19.1 -2.05 -19.1 1.65 -19.1 2.95 -17.2 2.95 -17.2 9.0 -17.2 10.25 -31.95 10.25 -31.95 9.0 -31.95 2.95 -29.8 2.95 -19.1 2.95 M-20.5 -2.15 L-21.05 -2.15 M3.3 20.9 L3.8 21.2 6.75 22.55 Q9.85 23.65 12.8 23.65 L14.3 23.4 M-19.25 22.9 L-16.95 22.15 -15.1 21.45 Q-14.75 21.25 -14.4 21.15 M-26.05 20.05 L-26.15 20.2 -26.65 21.45 Q-26.65 22.4 -25.8 22.9 M-19.25 22.9 L-23.2 23.4 Q-24.95 23.4 -25.8 22.9 M-12.95 21.15 L-12.95 21.2 -12.9 21.65 -12.15 22.9 -11.6 23.3 Q-10.25 24.0 -8.2 24.0 -6.5 24.0 -5.1 22.9 L-4.7 22.55 -3.85 21.6 -3.35 20.8 -3.2 19.75 -3.25 19.05 -1.8 18.4 -0.45 19.05 1.75 20.2 2.45 20.55 3.3 20.9 M-12.95 21.15 L-12.7 20.35 -12.6 20.15 -14.4 21.15 M-29.8 2.95 L-29.8 1.65 M-30.7 21.25 L-26.7 19.9 -25.65 19.6 -26.05 20.05 M-37.95 24.0 Q-36.75 23.4 -31.7 21.6 L-30.7 21.25" fill="none" stroke="#32363e" stroke-linecap="round" stroke-linejoin="round" stroke-width="1.5"/>
    <path d="M-17.2 10.25 L18.45 10.25 18.45 14.0 6.75 14.0 6.4 14.8 3.8 19.85 3.3 20.9 M-31.95 10.25 L-38.0 10.25 -38.0 13.7 -38.0 14.0 -30.7 21.25" fill="none" stroke="#2e3138" stroke-linecap="round" stroke-linejoin="round" stroke-width="1.5"/>
    <path d="M-22.55 -11.3 L-26.15 -11.3 -29.15 -11.3 -29.15 -9.35 -29.15 -8.5 -26.15 -8.5 -26.1 -8.5 -22.4 -8.5 -22.3 -8.5 -19.45 -8.5 -19.45 -9.35 -19.45 -11.3 -22.55 -11.3" fill="none" stroke="#606474" stroke-linecap="round" stroke-linejoin="round" stroke-width="1.0"/>
    <path d="M-27.65 -2.15 L-26.1 -8.5 M-22.3 -8.5 L-20.5 -2.15" fill="none" stroke="#6d1800" stroke-linecap="round" stroke-linejoin="round" stroke-width="1.0"/>
  </g>
</svg>
