<?xml version="1.0" encoding="UTF-8" standalone="no"?>
<svg xmlns:xlink="http://www.w3.org/1999/xlink" height="11.5px" width="16.3px" xmlns="http://www.w3.org/2000/svg">
  <g transform="matrix(1.0, 0.0, 0.0, 1.0, -10.95, 10.4)">
    <path d="M20.1 -9.65 L20.65 -9.6 21.05 -9.45 21.45 -9.05 21.65 -8.5 21.7 -8.4 Q22.1 -8.45 22.55 -8.8 23.65 -9.4 24.35 -8.45 L24.55 -7.7 24.45 -7.0 24.25 -6.45 24.7 -5.85 25.35 -5.65 25.9 -4.8 25.9 -3.8 25.9 -3.05 Q27.7 -0.45 24.15 -0.05 L16.5 0.35 Q15.7 0.35 15.1 -0.2 12.85 0.0 11.85 -1.65 11.55 -2.05 11.9 -2.5 12.35 -3.1 12.9 -3.25 L12.7 -3.65 Q12.1 -4.8 12.35 -6.05 12.7 -7.5 14.45 -6.9 L15.1 -6.65 15.3 -7.2 15.95 -8.25 Q16.5 -8.85 17.35 -8.8 17.9 -8.7 18.25 -8.4 L18.3 -8.4 18.5 -8.6 18.65 -8.8 19.1 -9.25 Q19.45 -9.6 19.9 -9.65 L20.1 -9.65" fill="#499201" fill-rule="evenodd" stroke="none"/>
    <path d="M20.1 -9.65 L20.65 -9.6 21.05 -9.45 21.45 -9.05 21.65 -8.5 21.7 -8.4 Q22.1 -8.45 22.55 -8.8 23.65 -9.4 24.35 -8.45 L24.55 -7.7 24.45 -7.0 24.25 -6.45 24.7 -5.85 25.35 -5.65 25.9 -4.8 25.9 -3.8 25.9 -3.05 Q27.7 -0.45 24.15 -0.05 L16.5 0.35 Q15.7 0.35 15.1 -0.2 12.85 0.0 11.85 -1.65 11.55 -2.05 11.9 -2.5 12.35 -3.1 12.9 -3.25 L12.7 -3.65 Q12.1 -4.8 12.35 -6.05 12.7 -7.5 14.45 -6.9 L15.1 -6.65 15.3 -7.2 15.95 -8.25 Q16.5 -8.85 17.35 -8.8 17.9 -8.7 18.25 -8.4 L18.3 -8.4 18.5 -8.6 18.65 -8.8 19.1 -9.25 Q19.45 -9.6 19.9 -9.65 L20.1 -9.65 Z" fill="none" stroke="#2b5500" stroke-linecap="round" stroke-linejoin="round" stroke-width="1.5"/>
    <path d="M20.1 -9.65 L20.65 -9.6 21.05 -9.45 21.45 -9.05 21.65 -8.5 21.7 -8.4 Q22.1 -8.45 22.55 -8.8 23.65 -9.4 24.35 -8.45 L24.55 -7.7 24.45 -7.0 24.25 -6.45 24.7 -5.85 25.35 -5.65 25.9 -4.8 25.9 -3.8 25.9 -3.05 Q27.7 -0.45 24.15 -0.05 L16.5 0.35 Q15.7 0.35 15.1 -0.2 12.85 0.0 11.85 -1.65 11.55 -2.05 11.9 -2.5 12.35 -3.1 12.9 -3.25 L12.7 -3.65 Q12.1 -4.8 12.35 -6.05 12.7 -7.5 14.45 -6.9 L15.1 -6.65 15.3 -7.2 15.95 -8.25 Q16.5 -8.85 17.35 -8.8 17.9 -8.7 18.25 -8.4 L18.3 -8.4 18.5 -8.6 18.65 -8.8 19.1 -9.25 Q19.45 -9.6 19.9 -9.65 L20.1 -9.65" fill="#499201" fill-rule="evenodd" stroke="none"/>
  </g>
</svg>
