<?xml version="1.0" encoding="UTF-8" standalone="no"?>
<svg xmlns:xlink="http://www.w3.org/1999/xlink" height="76.7px" width="125.55px" xmlns="http://www.w3.org/2000/svg">
  <g transform="matrix(1.0, 0.0, 0.0, 1.0, -0.65, -50.95)">
    <path d="M55.35 92.15 Q55.35 91.15 58.05 90.8 58.75 90.95 59.5 91.6 L60.6 92.65 62.5 94.4 Q64.2 96.05 64.2 96.5 64.2 99.6 63.1 100.7 62.2 101.65 59.75 101.65 59.0 101.65 57.1 96.85 L55.35 92.15 M68.2 119.4 Q69.5 120.0 69.5 120.55 L68.85 122.95 Q68.6 123.8 67.35 124.15 L62.0 124.6 Q61.0 124.6 61.15 123.5 61.15 118.7 65.35 118.75 66.8 118.75 68.2 119.4" fill="#f2b600" fill-rule="evenodd" stroke="none"/>
    <path d="M56.1 86.75 Q56.6 82.85 57.0 82.15 57.45 81.45 60.3 81.2 L64.2 80.95 67.8 81.25 70.55 81.95 Q73.0 82.75 73.15 84.05 L72.9 86.45 73.05 91.1 Q73.05 91.65 70.6 93.05 67.9 94.55 66.1 94.55 65.55 94.55 63.55 92.65 L61.2 90.35 Q59.85 89.3 57.45 88.35 56.1 87.8 56.1 86.75 M74.15 110.75 Q74.15 111.85 73.0 114.45 L71.55 117.5 65.4 117.5 62.9 117.25 Q62.4 116.95 62.4 115.15 L62.25 112.55 Q62.25 111.35 64.15 110.8 66.15 110.25 66.2 109.7 66.0 108.65 66.3 108.05 66.75 106.95 69.35 106.6 L71.9 106.15 Q73.45 106.05 73.65 107.45 L74.15 110.75 M64.8 108.25 L64.65 109.15 Q64.25 109.55 62.2 109.55 60.5 109.55 59.55 107.6 L58.95 105.65 59.0 105.3 58.8 104.8 Q58.8 104.1 60.0 103.9 60.7 103.65 61.9 103.9 64.8 104.55 64.8 108.25 M56.2 118.45 L57.95 120.2 Q59.55 121.8 59.55 122.25 57.75 126.65 56.6 126.65 54.7 126.65 53.25 124.4 L52.2 122.1 52.5 120.4 Q52.5 119.65 53.8 118.4 L56.2 118.45" fill="#ffc311" fill-rule="evenodd" stroke="none"/>
    <path d="M69.95 96.2 Q73.1 94.95 73.7 98.1 74.0 99.65 73.65 101.5 73.65 102.1 70.85 103.9 68.0 105.8 66.8 105.8 65.65 105.8 63.75 101.9 64.9 100.3 65.45 98.6 65.8 97.5 67.45 96.95 L69.95 96.2 M61.65 117.45 L60.35 117.8 Q57.95 117.8 57.35 117.15 L55.95 114.7 Q55.65 114.35 55.1 113.2 54.45 111.85 54.45 111.35 54.45 110.05 57.0 108.35 57.9 107.8 58.65 108.8 L60.0 110.5 Q61.1 111.65 61.8 116.7 L61.65 117.45" fill="#ffcb2d" fill-rule="evenodd" stroke="none"/>
    <path d="M55.35 92.15 Q55.35 91.15 58.05 90.8 58.75 90.95 59.5 91.6 L60.6 92.65 62.5 94.4 Q64.2 96.05 64.2 96.5 64.2 99.6 63.1 100.7 62.2 101.65 59.75 101.65 59.0 101.65 57.1 96.85 L55.35 92.15 M56.1 86.75 Q56.6 82.85 57.0 82.15 57.45 81.45 60.3 81.2 L64.2 80.95 67.8 81.25 70.55 81.95 Q73.0 82.75 73.15 84.05 L72.9 86.45 73.05 91.1 Q73.05 91.65 70.6 93.05 67.9 94.55 66.1 94.55 65.55 94.55 63.55 92.65 L61.2 90.35 Q59.85 89.3 57.45 88.35 56.1 87.8 56.1 86.75 M69.95 96.2 Q73.1 94.95 73.7 98.1 74.0 99.65 73.65 101.5 73.65 102.1 70.85 103.9 68.0 105.8 66.8 105.8 65.65 105.8 63.75 101.9 64.9 100.3 65.45 98.6 65.8 97.5 67.45 96.95 L69.95 96.2 M74.15 110.75 Q74.15 111.85 73.0 114.45 L71.55 117.5 65.4 117.5 62.9 117.25 Q62.4 116.95 62.4 115.15 L62.25 112.55 Q62.25 111.35 64.15 110.8 66.15 110.25 66.2 109.7 66.0 108.65 66.3 108.05 66.75 106.95 69.35 106.6 L71.9 106.15 Q73.45 106.05 73.65 107.45 L74.15 110.75 M64.8 108.25 L64.65 109.15 Q64.25 109.55 62.2 109.55 60.5 109.55 59.55 107.6 L58.95 105.65 59.0 105.3 58.8 104.8 Q58.8 104.1 60.0 103.9 60.7 103.65 61.9 103.9 64.8 104.55 64.8 108.25 M61.65 117.45 L60.35 117.8 Q57.95 117.8 57.35 117.15 L55.95 114.7 Q55.65 114.35 55.1 113.2 54.45 111.85 54.45 111.35 54.45 110.05 57.0 108.35 57.9 107.8 58.65 108.8 L60.0 110.5 Q61.1 111.65 61.8 116.7 L61.65 117.45 M68.2 119.4 Q69.5 120.0 69.5 120.55 L68.85 122.95 Q68.6 123.8 67.35 124.15 L62.0 124.6 Q61.0 124.6 61.15 123.5 61.15 118.7 65.35 118.75 66.8 118.75 68.2 119.4 M56.2 118.45 L57.95 120.2 Q59.55 121.8 59.55 122.25 57.75 126.65 56.6 126.65 54.7 126.65 53.25 124.4 L52.2 122.1 52.5 120.4 Q52.5 119.65 53.8 118.4 L56.2 118.45" fill="none" stroke="#448701" stroke-linecap="round" stroke-linejoin="round" stroke-width="2.0"/>
    <path d="M59.5 91.6 L60.6 92.65 62.5 94.4 Q64.2 96.05 64.2 96.5 64.2 99.6 63.1 100.7 62.2 101.65 59.75 101.65 59.0 101.65 57.1 96.85 L55.35 92.15 Q55.35 91.15 58.05 90.8 58.75 90.95 59.5 91.6 M68.2 119.4 Q69.5 120.0 69.5 120.55 L68.85 122.95 Q68.6 123.8 67.35 124.15 L62.0 124.6 Q61.0 124.6 61.15 123.5 61.15 118.7 65.35 118.75 66.8 118.75 68.2 119.4" fill="#f2b600" fill-rule="evenodd" stroke="none"/>
    <path d="M56.1 86.75 Q56.6 82.85 57.0 82.15 57.45 81.45 60.3 81.2 L64.2 80.95 67.8 81.25 70.55 81.95 Q73.0 82.75 73.15 84.05 L72.9 86.45 73.05 91.1 Q73.05 91.65 70.6 93.05 67.9 94.55 66.1 94.55 65.55 94.55 63.55 92.65 L61.2 90.35 Q59.85 89.3 57.45 88.35 56.1 87.8 56.1 86.75 M74.15 110.75 Q74.15 111.85 73.0 114.45 L71.55 117.5 65.4 117.5 62.9 117.25 Q62.4 116.95 62.4 115.15 L62.25 112.55 Q62.25 111.35 64.15 110.8 66.15 110.25 66.2 109.7 66.0 108.65 66.3 108.05 66.75 106.95 69.35 106.6 L71.9 106.15 Q73.45 106.05 73.65 107.45 L74.15 110.75 M64.8 108.25 L64.65 109.15 Q64.25 109.55 62.2 109.55 60.5 109.55 59.55 107.6 L58.95 105.65 59.0 105.3 58.8 104.8 Q58.8 104.1 60.0 103.9 60.7 103.65 61.9 103.9 64.8 104.55 64.8 108.25 M56.2 118.45 L57.95 120.2 Q59.55 121.8 59.55 122.25 57.75 126.65 56.6 126.65 54.7 126.65 53.25 124.4 L52.2 122.1 52.5 120.4 Q52.5 119.65 53.8 118.4 L56.2 118.45" fill="#ffc311" fill-rule="evenodd" stroke="none"/>
    <path d="M67.45 96.95 L69.95 96.2 Q73.1 94.95 73.7 98.1 74.0 99.65 73.65 101.5 73.65 102.1 70.85 103.9 68.0 105.8 66.8 105.8 65.65 105.8 63.75 101.9 64.9 100.3 65.45 98.6 65.8 97.5 67.45 96.95 M61.65 117.45 L60.35 117.8 Q57.95 117.8 57.35 117.15 L55.95 114.7 Q55.65 114.35 55.1 113.2 54.45 111.85 54.45 111.35 54.45 110.05 57.0 108.35 57.9 107.8 58.65 108.8 L60.0 110.5 Q61.1 111.65 61.8 116.7 L61.65 117.45" fill="#ffcb2d" fill-rule="evenodd" stroke="none"/>
    <path d="M104.8 82.2 Q104.8 79.0 107.95 76.75 111.05 74.55 115.45 74.55 119.85 74.55 122.95 76.75 126.05 79.0 126.05 82.2 126.05 85.35 122.95 87.55 119.85 89.8 115.45 89.8 111.05 89.8 107.95 87.55 104.8 85.35 104.8 82.2" fill="#000000" fill-opacity="0.2" fill-rule="evenodd" stroke="none"/>
    <path d="M115.75 54.35 Q115.95 54.5 115.95 55.0 L115.9 55.75 116.0 55.8 116.2 55.95 116.25 56.0 116.35 56.05 116.4 56.05 116.6 56.35 116.6 56.4 116.75 57.15 116.5 58.2 116.6 58.3 Q118.0 59.75 118.0 60.95 L117.95 61.45 118.15 61.7 Q118.6 62.2 118.65 62.85 L118.7 63.9 118.65 65.7 Q119.4 66.3 119.4 66.95 L119.25 68.35 120.15 69.1 120.4 69.8 120.45 71.25 120.5 71.35 120.45 72.55 120.45 72.65 120.4 72.85 120.5 72.95 Q121.7 74.0 121.7 75.1 L121.6 76.55 121.75 76.65 Q123.2 77.8 123.2 78.85 L122.85 79.95 Q123.2 80.25 123.2 80.65 L122.75 81.7 122.45 82.05 122.0 82.3 121.2 82.45 120.85 82.45 120.85 82.6 120.85 82.8 Q120.85 85.35 118.45 85.35 L118.35 85.35 Q117.25 85.3 116.85 84.9 L116.8 84.8 116.55 85.1 116.35 85.35 Q115.35 86.15 113.95 86.15 112.8 86.15 112.05 85.4 110.8 85.1 110.45 84.3 109.15 84.5 108.5 83.85 108.05 83.45 108.05 82.95 L108.2 81.95 Q107.7 81.7 107.5 81.1 107.35 80.6 107.45 80.0 107.45 78.55 108.15 78.15 L108.65 77.05 108.5 76.4 Q108.5 75.3 109.7 74.75 L110.0 74.6 110.1 74.5 109.85 74.25 Q109.65 73.95 109.65 73.05 109.65 71.5 110.35 71.05 L110.55 69.9 110.55 69.8 Q110.55 68.8 111.45 67.35 L111.75 66.8 111.55 66.1 Q111.55 64.7 112.7 64.2 L112.75 64.2 112.85 63.95 112.95 63.85 112.55 63.35 112.45 62.65 Q112.45 61.25 113.35 60.65 L113.8 59.9 113.75 59.85 113.7 59.2 Q113.7 58.4 114.25 58.1 L114.25 58.0 Q114.0 57.7 114.0 57.15 114.0 55.55 114.75 55.4 L114.7 55.1 Q114.7 54.3 115.1 54.1 L115.25 54.05 Q115.6 53.9 115.75 54.35 M116.85 62.5 L116.8 62.4 116.8 62.45 116.85 62.5 M116.05 67.85 L115.75 68.25 115.8 68.25 116.2 67.65 116.05 67.85 M116.6 71.1 L116.6 71.3 116.65 71.1 116.6 71.1 M118.45 77.1 L118.7 77.3 118.65 77.1 118.65 77.05 118.45 77.1" fill="#099700" fill-rule="evenodd" stroke="none"/>
    <path d="M115.75 54.35 Q115.95 54.5 115.95 55.0 L115.9 55.75 116.0 55.8 116.2 55.95 116.25 56.0 116.35 56.05 116.4 56.05 116.6 56.35 116.6 56.4 116.75 57.15 116.5 58.2 116.6 58.3 Q118.0 59.75 118.0 60.95 L117.95 61.45 118.15 61.7 Q118.6 62.2 118.65 62.85 L118.7 63.9 118.65 65.7 Q119.4 66.3 119.4 66.95 L119.25 68.35 120.15 69.1 120.4 69.8 120.45 71.25 120.5 71.35 120.45 72.55 120.45 72.65 120.4 72.85 120.5 72.95 Q121.7 74.0 121.7 75.1 L121.6 76.55 121.75 76.65 Q123.2 77.8 123.2 78.85 L122.85 79.95 Q123.2 80.25 123.2 80.65 L122.75 81.7 122.45 82.05 122.0 82.3 121.2 82.45 120.85 82.45 120.85 82.6 120.85 82.8 Q120.85 85.35 118.45 85.35 L118.35 85.35 Q117.25 85.3 116.85 84.9 L116.8 84.8 116.55 85.1 116.35 85.35 Q115.35 86.15 113.95 86.15 112.8 86.15 112.05 85.4 110.8 85.1 110.45 84.3 109.15 84.5 108.5 83.85 108.05 83.45 108.05 82.95 L108.2 81.95 Q107.7 81.7 107.5 81.1 107.35 80.6 107.45 80.0 107.45 78.55 108.15 78.15 L108.65 77.05 108.5 76.4 Q108.5 75.3 109.7 74.75 L110.0 74.6 110.1 74.5 109.85 74.25 Q109.65 73.95 109.65 73.05 109.65 71.5 110.35 71.05 L110.55 69.9 110.55 69.8 Q110.55 68.8 111.45 67.35 L111.75 66.8 111.55 66.1 Q111.55 64.7 112.7 64.2 L112.75 64.2 112.85 63.95 112.95 63.85 112.55 63.35 112.45 62.65 Q112.45 61.25 113.35 60.65 L113.8 59.9 113.75 59.85 113.7 59.2 Q113.7 58.4 114.25 58.1 L114.25 58.0 Q114.0 57.7 114.0 57.15 114.0 55.55 114.75 55.4 L114.7 55.1 Q114.7 54.3 115.1 54.1 L115.25 54.05 Q115.6 53.9 115.75 54.35 Z" fill="none" stroke="#045100" stroke-linecap="round" stroke-linejoin="round" stroke-width="2.0"/>
    <path d="M116.35 85.35 Q115.35 86.15 113.95 86.15 112.8 86.15 112.05 85.4 110.8 85.1 110.45 84.3 109.15 84.5 108.5 83.85 108.05 83.45 108.05 82.95 L108.2 81.95 Q107.7 81.7 107.5 81.1 107.35 80.6 107.45 80.0 107.45 78.55 108.15 78.15 L108.65 77.05 108.5 76.4 Q108.5 75.3 109.7 74.75 L110.0 74.6 110.1 74.5 109.85 74.25 Q109.65 73.95 109.65 73.05 109.65 71.5 110.35 71.05 L110.55 69.9 110.55 69.8 Q110.55 68.8 111.45 67.35 L111.75 66.8 111.55 66.1 Q111.55 64.7 112.7 64.2 L112.75 64.2 112.85 63.95 112.95 63.85 112.55 63.35 112.45 62.65 Q112.45 61.25 113.35 60.65 L113.8 59.9 113.75 59.85 113.7 59.2 Q113.7 58.4 114.25 58.1 L114.25 58.0 Q114.0 57.7 114.0 57.15 114.0 55.55 114.75 55.4 L114.7 55.1 Q114.7 54.3 115.1 54.1 L115.6 56.25 115.35 56.85 Q115.05 57.15 115.05 57.55 L115.05 58.3 Q114.35 58.35 114.35 58.9 L114.45 59.2 115.0 59.45 114.95 59.8 115.0 60.1 114.95 60.35 115.0 60.75 Q115.1 61.15 115.45 61.2 L115.65 62.15 115.55 62.85 114.9 62.8 Q114.1 62.95 114.1 63.65 L114.35 64.5 Q114.6 65.15 115.0 65.35 L115.15 65.9 115.35 66.45 114.85 67.45 Q114.3 68.3 114.3 68.95 L114.6 70.25 Q114.65 70.75 115.1 71.05 115.45 71.35 115.45 71.7 L115.15 73.05 115.45 75.35 Q114.9 75.85 114.9 76.6 L115.2 77.4 Q115.65 78.15 116.7 78.15 L117.1 78.15 116.95 78.55 Q116.95 79.0 117.4 79.15 L117.2 79.4 116.95 79.8 116.45 79.8 Q115.65 80.05 115.65 81.15 115.65 81.4 115.95 81.9 L115.75 82.4 115.75 83.5 115.8 84.6 Q115.9 85.05 116.35 85.35 M118.7 77.3 L118.45 77.1 118.65 77.05 118.65 77.1 118.7 77.3 M116.6 71.1 L116.65 71.1 116.6 71.3 116.6 71.1 M116.05 67.85 L116.2 67.65 115.8 68.25 115.75 68.25 116.05 67.85 M116.8 62.45 L116.8 62.4 116.85 62.5 116.8 62.45" fill="#037700" fill-rule="evenodd" stroke="none"/>
    <path d="M115.1 54.1 L115.25 54.05 Q115.6 53.9 115.75 54.35 115.95 54.5 115.95 55.0 L115.9 55.75 116.0 55.8 116.2 55.95 116.25 56.0 116.35 56.05 116.4 56.05 116.6 56.35 116.6 56.4 116.75 57.15 116.5 58.2 116.6 58.3 Q118.0 59.75 118.0 60.95 L117.95 61.45 118.15 61.7 Q118.6 62.2 118.65 62.85 L118.7 63.9 118.65 65.7 Q119.4 66.3 119.4 66.95 L119.25 68.35 120.15 69.1 120.4 69.8 120.45 71.25 120.5 71.35 120.45 72.55 120.45 72.65 120.4 72.85 120.5 72.95 Q121.7 74.0 121.7 75.1 L121.6 76.55 121.75 76.65 Q123.2 77.8 123.2 78.85 L122.85 79.95 Q123.2 80.25 123.2 80.65 L122.75 81.7 122.45 82.05 122.0 82.3 121.2 82.45 120.85 82.45 120.85 82.6 120.85 82.8 Q120.85 85.35 118.45 85.35 L118.35 85.35 Q117.25 85.3 116.85 84.9 L116.8 84.8 116.55 85.1 116.35 85.35 Q115.9 85.05 115.8 84.6 L115.75 83.5 115.75 82.4 115.95 81.9 Q115.65 81.4 115.65 81.15 115.65 80.05 116.45 79.8 L116.95 79.8 117.2 79.4 117.4 79.15 Q116.95 79.0 116.95 78.55 L117.1 78.15 116.7 78.15 Q115.65 78.15 115.2 77.4 L114.9 76.6 Q114.9 75.85 115.45 75.35 L115.15 73.05 115.45 71.7 Q115.45 71.35 115.1 71.05 114.65 70.75 114.6 70.25 L114.3 68.95 Q114.3 68.3 114.85 67.45 L115.35 66.45 115.15 65.9 115.0 65.35 Q114.6 65.15 114.35 64.5 L114.1 63.65 Q114.1 62.95 114.9 62.8 L115.55 62.85 115.65 62.15 115.45 61.2 Q115.1 61.15 115.0 60.75 L114.95 60.35 115.0 60.1 114.95 59.8 115.0 59.45 114.45 59.2 114.35 58.9 Q114.35 58.35 115.05 58.3 L115.05 57.55 Q115.05 57.15 115.35 56.85 L115.6 56.25 115.1 54.1 M116.8 62.45 L116.85 62.5 116.8 62.4 116.8 62.45 M116.05 67.85 L115.75 68.25 115.8 68.25 116.2 67.65 116.05 67.85 M116.6 71.1 L116.6 71.3 116.65 71.1 116.6 71.1 M118.7 77.3 L118.65 77.1 118.65 77.05 118.45 77.1 118.7 77.3" fill="#099700" fill-rule="evenodd" stroke="none"/>
    <path d="M18.8 85.5 Q15.7 87.75 11.3 87.75 6.9 87.75 3.8 85.5 0.65 83.3 0.65 80.15 0.65 76.95 3.8 74.7 6.9 72.5 11.3 72.5 15.7 72.5 18.8 74.7 21.9 76.95 21.9 80.15 21.9 83.3 18.8 85.5" fill="#000000" fill-opacity="0.2" fill-rule="evenodd" stroke="none"/>
    <path d="M11.1 52.0 Q11.45 51.85 11.6 52.3 11.8 52.45 11.8 52.95 L11.75 53.7 11.85 53.75 12.05 53.9 12.1 53.95 12.2 54.0 12.25 54.0 12.45 54.3 12.45 54.35 12.6 55.1 12.35 56.15 12.45 56.25 Q13.85 57.7 13.85 58.9 L13.8 59.4 14.0 59.65 Q14.45 60.15 14.5 60.8 L14.55 61.85 14.5 63.65 Q15.25 64.25 15.25 64.9 L15.1 66.3 16.0 67.05 16.25 67.75 16.3 69.2 16.35 69.3 16.3 70.5 16.3 70.6 16.25 70.8 16.35 70.9 Q17.55 71.95 17.55 73.05 L17.45 74.5 17.6 74.6 Q19.05 75.75 19.05 76.8 L18.7 77.9 19.05 78.6 18.6 79.65 18.3 80.0 17.85 80.25 17.05 80.4 16.7 80.4 16.7 80.55 16.7 80.75 Q16.7 83.3 14.3 83.3 L14.2 83.3 Q13.1 83.25 12.7 82.85 L12.65 82.75 12.4 83.05 12.2 83.3 Q11.2 84.1 9.8 84.1 8.65 84.1 7.9 83.35 6.65 83.05 6.3 82.25 5.0 82.45 4.35 81.8 3.9 81.4 3.9 80.9 3.9 80.45 4.05 79.9 3.55 79.65 3.35 79.05 L3.3 77.95 Q3.3 76.5 4.0 76.1 L4.5 75.0 4.35 74.35 Q4.35 73.25 5.55 72.7 L5.85 72.55 5.95 72.45 5.7 72.2 Q5.5 71.9 5.5 71.0 5.5 69.45 6.2 69.0 L6.4 67.85 6.4 67.75 Q6.4 66.75 7.3 65.3 L7.6 64.75 7.4 64.05 Q7.4 62.65 8.55 62.15 L8.6 62.15 8.7 61.9 8.8 61.8 8.4 61.3 8.3 60.6 Q8.3 59.2 9.2 58.6 L9.65 57.85 9.6 57.8 9.55 57.15 Q9.55 56.35 10.1 56.05 L10.1 55.95 Q9.85 55.65 9.85 55.1 9.85 53.5 10.6 53.35 L10.55 53.05 Q10.55 52.25 10.95 52.05 L11.1 52.0 M12.65 60.4 L12.7 60.45 12.65 60.35 12.65 60.4 M12.05 65.6 L11.9 65.8 11.6 66.2 11.65 66.2 12.05 65.6 M12.45 69.05 L12.45 69.25 12.5 69.05 12.45 69.05 M14.55 75.25 L14.5 75.05 14.5 75.0 14.3 75.05 14.55 75.25" fill="#099700" fill-rule="evenodd" stroke="none"/>
    <path d="M11.1 52.0 Q11.45 51.85 11.6 52.3 11.8 52.45 11.8 52.95 L11.75 53.7 11.85 53.75 12.05 53.9 12.1 53.95 12.2 54.0 12.25 54.0 12.45 54.3 12.45 54.35 12.6 55.1 12.35 56.15 12.45 56.25 Q13.85 57.7 13.85 58.9 L13.8 59.4 14.0 59.65 Q14.45 60.15 14.5 60.8 L14.55 61.85 14.5 63.65 Q15.25 64.25 15.25 64.9 L15.1 66.3 16.0 67.05 16.25 67.75 16.3 69.2 16.35 69.3 16.3 70.5 16.3 70.6 16.25 70.8 16.35 70.9 Q17.55 71.95 17.55 73.05 L17.45 74.5 17.6 74.6 Q19.05 75.75 19.05 76.8 L18.7 77.9 19.05 78.6 18.6 79.65 18.3 80.0 17.85 80.25 17.05 80.4 16.7 80.4 16.7 80.55 16.7 80.75 Q16.7 83.3 14.3 83.3 L14.2 83.3 Q13.1 83.25 12.7 82.85 L12.65 82.75 12.4 83.05 12.2 83.3 Q11.2 84.1 9.8 84.1 8.65 84.1 7.9 83.35 6.65 83.05 6.3 82.25 5.0 82.45 4.35 81.8 3.9 81.4 3.9 80.9 3.9 80.45 4.05 79.9 3.55 79.65 3.35 79.05 L3.3 77.95 Q3.3 76.5 4.0 76.1 L4.5 75.0 4.35 74.35 Q4.35 73.25 5.55 72.7 L5.85 72.55 5.95 72.45 5.7 72.2 Q5.5 71.9 5.5 71.0 5.5 69.45 6.2 69.0 L6.4 67.85 6.4 67.75 Q6.4 66.75 7.3 65.3 L7.6 64.75 7.4 64.05 Q7.4 62.65 8.55 62.15 L8.6 62.15 8.7 61.9 8.8 61.8 8.4 61.3 8.3 60.6 Q8.3 59.2 9.2 58.6 L9.65 57.85 9.6 57.8 9.55 57.15 Q9.55 56.35 10.1 56.05 L10.1 55.95 Q9.85 55.65 9.85 55.1 9.85 53.5 10.6 53.35 L10.55 53.05 Q10.55 52.25 10.95 52.05 L11.1 52.0 Z" fill="none" stroke="#045100" stroke-linecap="round" stroke-linejoin="round" stroke-width="2.0"/>
    <path d="M10.95 52.05 L11.1 52.0 Q11.45 51.85 11.6 52.3 11.8 52.45 11.8 52.95 L11.75 53.7 11.85 53.75 12.05 53.9 12.1 53.95 12.2 54.0 12.25 54.0 12.45 54.3 12.45 54.35 12.6 55.1 12.35 56.15 12.45 56.25 Q13.85 57.7 13.85 58.9 L13.8 59.4 14.0 59.65 Q14.45 60.15 14.5 60.8 L14.55 61.85 14.5 63.65 Q15.25 64.25 15.25 64.9 L15.1 66.3 16.0 67.05 16.25 67.75 16.3 69.2 16.35 69.3 16.3 70.5 16.3 70.6 16.25 70.8 16.35 70.9 Q17.55 71.95 17.55 73.05 L17.45 74.5 17.6 74.6 Q19.05 75.75 19.05 76.8 L18.7 77.9 19.05 78.6 18.6 79.65 18.3 80.0 17.85 80.25 17.05 80.4 16.7 80.4 16.7 80.55 16.7 80.75 Q16.7 83.3 14.3 83.3 L14.2 83.3 Q13.1 83.25 12.7 82.85 L12.65 82.75 12.4 83.05 12.2 83.3 Q11.75 83.0 11.65 82.55 L11.6 81.45 11.6 80.35 11.8 79.85 11.5 79.1 Q11.5 78.0 12.3 77.75 L12.8 77.75 13.05 77.35 13.25 77.1 Q12.8 76.95 12.8 76.5 12.8 76.25 12.95 76.1 L12.55 76.1 Q11.5 76.1 11.05 75.35 L10.75 74.55 Q10.75 73.8 11.3 73.3 L11.0 71.0 11.3 69.65 10.95 69.0 Q10.5 68.7 10.45 68.2 L10.15 66.9 Q10.15 66.25 10.7 65.4 L11.2 64.4 11.0 63.85 10.85 63.3 Q10.45 63.1 10.2 62.45 L9.95 61.6 Q9.95 60.9 10.75 60.75 L11.4 60.8 11.5 60.1 11.3 59.15 Q10.95 59.1 10.85 58.7 L10.8 58.3 10.85 58.05 10.8 57.75 10.85 57.4 Q10.45 57.4 10.3 57.15 L10.2 56.85 Q10.2 56.3 10.9 56.25 L10.9 55.5 Q10.9 55.1 11.2 54.8 L11.45 54.2 10.95 52.05 M12.65 60.4 L12.7 60.45 12.65 60.35 12.65 60.4 M12.05 65.6 L11.9 65.8 11.6 66.2 11.65 66.2 12.05 65.6 M12.5 69.05 L12.45 69.05 12.45 69.25 12.5 69.05 M14.55 75.25 L14.5 75.05 14.5 75.0 14.3 75.05 14.55 75.25" fill="#099700" fill-rule="evenodd" stroke="none"/>
    <path d="M12.2 83.3 Q11.2 84.1 9.8 84.1 8.65 84.1 7.9 83.35 6.65 83.05 6.3 82.25 5.0 82.45 4.35 81.8 3.9 81.4 3.9 80.9 3.9 80.45 4.05 79.9 3.55 79.65 3.35 79.05 L3.3 77.95 Q3.3 76.5 4.0 76.1 L4.5 75.0 4.35 74.35 Q4.35 73.25 5.55 72.7 L5.85 72.55 5.95 72.45 5.7 72.2 Q5.5 71.9 5.5 71.0 5.5 69.45 6.2 69.0 L6.4 67.85 6.4 67.75 Q6.4 66.75 7.3 65.3 L7.6 64.75 7.4 64.05 Q7.4 62.65 8.55 62.15 L8.6 62.15 8.7 61.9 8.8 61.8 8.4 61.3 8.3 60.6 Q8.3 59.2 9.2 58.6 L9.65 57.85 9.6 57.8 9.55 57.15 Q9.55 56.35 10.1 56.05 L10.1 55.95 Q9.85 55.65 9.85 55.1 9.85 53.5 10.6 53.35 L10.55 53.05 Q10.55 52.25 10.95 52.05 L11.45 54.2 11.2 54.8 Q10.9 55.1 10.9 55.5 L10.9 56.25 Q10.2 56.3 10.2 56.85 L10.3 57.15 Q10.45 57.4 10.85 57.4 L10.8 57.75 10.85 58.05 10.8 58.3 10.85 58.7 Q10.95 59.1 11.3 59.15 L11.5 60.1 11.4 60.8 10.75 60.75 Q9.95 60.9 9.95 61.6 L10.2 62.45 Q10.45 63.1 10.85 63.3 L11.0 63.85 11.2 64.4 10.7 65.4 Q10.15 66.25 10.15 66.9 L10.45 68.2 Q10.5 68.7 10.95 69.0 L11.3 69.65 11.0 71.0 11.3 73.3 Q10.75 73.8 10.75 74.55 L11.05 75.35 Q11.5 76.1 12.55 76.1 L12.95 76.1 Q12.8 76.25 12.8 76.5 12.8 76.95 13.25 77.1 L13.05 77.35 12.8 77.75 12.3 77.75 Q11.5 78.0 11.5 79.1 L11.8 79.85 11.6 80.35 11.6 81.45 11.65 82.55 Q11.75 83.0 12.2 83.3 M14.55 75.25 L14.3 75.05 14.5 75.0 14.5 75.05 14.55 75.25 M12.5 69.05 L12.45 69.25 12.45 69.05 12.5 69.05 M12.05 65.6 L11.65 66.2 11.6 66.2 11.9 65.8 12.05 65.6 M12.65 60.4 L12.65 60.35 12.7 60.45 12.65 60.4" fill="#037700" fill-rule="evenodd" stroke="none"/>
    <path d="M115.45 82.45 L115.55 82.35 Q115.65 82.25 115.7 82.25 L115.85 82.1 115.95 82.0 116.2 81.9 117.2 81.95 117.4 81.95 117.5 82.1 117.6 82.2 Q117.7 81.85 117.95 81.65 L118.2 81.5 119.2 81.55 119.5 81.65 119.7 81.8 119.85 82.0 120.05 82.35 120.1 82.5 120.65 82.55 121.05 82.7 121.15 82.6 121.35 82.35 121.5 82.25 123.05 82.3 123.5 82.6 123.55 82.75 123.6 83.3 123.55 83.9 123.6 83.95 123.9 84.7 123.9 85.0 123.9 85.6 123.9 85.7 123.9 85.8 124.1 85.95 124.3 86.1 Q125.2 86.55 125.15 87.6 L124.9 88.6 124.55 89.05 123.7 89.75 123.6 89.85 123.5 90.1 123.35 90.9 123.3 91.6 122.65 92.8 122.15 93.1 120.65 93.25 120.45 93.2 120.3 93.05 120.1 92.85 120.2 92.85 120.0 92.8 119.15 93.05 118.8 93.05 118.7 93.2 118.35 93.65 118.2 93.85 118.0 93.85 116.85 93.9 116.65 93.85 116.55 93.75 116.25 93.25 116.15 92.6 116.15 92.4 115.5 92.0 115.3 91.85 115.3 91.7 115.2 91.7 Q114.0 92.25 113.05 91.5 L112.75 91.1 112.8 91.0 112.9 90.35 113.3 89.6 113.4 89.4 113.4 89.5 113.6 89.5 113.6 89.45 113.7 89.45 113.55 89.35 113.4 89.25 113.4 89.15 113.4 89.1 113.4 88.55 113.4 88.5 113.5 87.95 112.65 87.2 Q111.9 86.2 112.9 85.25 113.4 84.7 114.25 84.35 L115.75 84.1 115.55 83.8 115.45 83.1 115.45 82.45 M114.4 86.2 L114.5 86.1 114.45 86.1 114.35 86.15 114.35 86.25 114.4 86.2 M114.15 89.65 L114.25 89.7 114.35 89.7 114.15 89.65 M113.7 89.45 L113.7 89.5 113.75 89.5 113.7 89.45 M115.45 89.9 L115.5 90.0 115.5 89.9 115.45 89.9 M122.6 85.3 L122.6 85.4 122.65 85.7 122.65 85.2 122.65 85.25 122.6 85.3" fill="#158901" fill-rule="evenodd" stroke="none"/>
    <path d="M115.45 82.45 L115.55 82.35 Q115.65 82.25 115.7 82.25 L115.85 82.1 115.95 82.0 116.2 81.9 117.2 81.95 117.4 81.95 117.5 82.1 117.6 82.2 Q117.7 81.85 117.95 81.65 L118.2 81.5 119.2 81.55 119.5 81.65 119.7 81.8 119.85 82.0 120.05 82.35 120.1 82.5 120.65 82.55 121.05 82.7 121.15 82.6 121.35 82.35 121.5 82.25 123.05 82.3 123.5 82.6 123.55 82.75 123.6 83.3 123.55 83.9 123.6 83.95 123.9 84.7 123.9 85.0 123.9 85.6 123.9 85.7 123.9 85.8 124.1 85.95 124.3 86.1 Q125.2 86.55 125.15 87.6 L124.9 88.6 124.55 89.05 123.7 89.75 123.6 89.85 123.5 90.1 123.35 90.9 123.3 91.6 122.65 92.8 122.15 93.1 120.65 93.25 120.45 93.2 120.3 93.05 120.1 92.85 120.2 92.85 120.0 92.8 119.15 93.05 118.8 93.05 118.7 93.2 118.35 93.65 118.2 93.85 118.0 93.85 116.85 93.9 116.65 93.85 116.55 93.75 116.25 93.25 116.15 92.6 116.15 92.4 115.5 92.0 115.3 91.85 115.3 91.7 115.2 91.7 Q114.0 92.25 113.05 91.5 L112.75 91.1 112.8 91.0 112.9 90.35 113.3 89.6 113.4 89.4 113.4 89.5 113.6 89.5 113.6 89.45 113.7 89.45 113.55 89.35 113.4 89.25 113.4 89.15 113.4 89.1 113.4 88.55 113.4 88.5 113.5 87.95 112.65 87.2 Q111.9 86.2 112.9 85.25 113.4 84.7 114.25 84.35 L115.75 84.1 115.55 83.8 115.45 83.1 115.45 82.45 Z" fill="none" stroke="#137601" stroke-linecap="round" stroke-linejoin="round" stroke-width="1.5"/>
    <path d="M118.25 83.05 L118.2 83.05 118.1 82.95 118.2 82.95 118.2 82.9 118.25 82.8 118.2 82.75 117.7 82.45 117.35 82.35 116.65 82.35 116.5 82.35 116.25 82.55 Q115.95 82.75 115.95 83.05 L115.85 83.4 115.75 83.7 115.75 83.85 115.75 83.9 115.75 84.05 115.75 84.1 114.85 84.3 114.55 84.4 114.4 84.5 114.4 84.6 114.35 85.0 114.35 85.2 114.35 85.3 114.45 85.3 114.55 85.5 114.55 85.7 114.55 85.9 114.55 86.0 114.5 86.1 114.45 86.1 114.35 86.15 114.35 86.25 113.9 86.85 113.8 87.0 113.7 87.2 113.55 87.65 113.55 87.7 113.5 87.95 112.65 87.2 Q111.9 86.2 112.9 85.25 113.4 84.7 114.25 84.35 L115.75 84.1 115.55 83.8 115.45 83.1 115.45 82.45 115.55 82.35 Q115.65 82.25 115.7 82.25 L115.85 82.1 115.95 82.0 116.2 81.9 117.2 81.95 117.4 81.95 117.5 82.1 117.6 82.2 Q117.7 81.85 117.95 81.65 L118.2 81.5 119.2 81.55 119.5 81.65 119.7 81.8 119.85 82.0 120.05 82.35 120.1 82.5 120.05 82.45 119.85 82.4 119.2 82.35 119.2 82.4 118.9 82.5 118.65 82.65 118.6 82.65 118.35 82.9 118.3 82.95 118.25 83.05 M113.75 89.5 L113.95 89.55 114.15 89.65 114.25 89.7 114.35 89.7 114.65 89.7 115.05 89.75 115.45 89.9 115.5 90.0 115.55 90.05 115.55 90.25 115.55 90.35 115.55 90.5 115.6 90.55 115.65 90.7 115.8 90.75 116.25 91.05 116.95 91.15 117.3 91.15 117.7 90.9 118.0 90.8 118.35 91.2 118.4 91.3 118.5 91.3 118.6 91.3 119.1 91.7 120.6 91.6 120.7 91.4 120.8 91.15 120.95 90.8 121.0 90.5 121.05 90.35 122.05 90.1 122.95 89.65 123.2 89.15 123.25 89.1 123.35 88.85 123.55 88.25 123.45 87.9 123.35 87.85 123.25 87.8 123.15 87.45 123.35 86.9 123.55 86.45 123.6 85.95 123.6 85.9 123.7 85.85 123.85 85.8 123.9 85.8 124.1 85.95 124.3 86.1 Q125.2 86.55 125.15 87.6 L124.9 88.6 124.55 89.05 123.7 89.75 123.6 89.85 123.5 90.1 123.35 90.9 123.3 91.6 122.65 92.8 122.15 93.1 120.65 93.25 120.45 93.2 120.3 93.05 120.1 92.85 120.2 92.85 120.0 92.8 119.15 93.05 118.8 93.05 118.7 93.2 118.35 93.65 118.2 93.85 118.0 93.85 116.85 93.9 116.65 93.85 116.55 93.75 116.25 93.25 116.15 92.6 116.15 92.4 115.5 92.0 115.3 91.85 115.3 91.7 115.2 91.7 Q114.0 92.25 113.05 91.5 L112.75 91.1 112.8 91.0 112.9 90.35 113.3 89.6 113.4 89.4 113.4 89.5 113.6 89.5 113.6 89.45 113.7 89.45 113.7 89.5 113.75 89.5 M123.55 83.9 L123.45 83.7 123.4 83.7 123.15 83.65 121.95 83.5 121.95 83.6 121.85 83.45 121.8 83.3 121.75 83.2 121.65 83.05 121.55 82.95 121.45 82.85 121.25 82.8 121.15 82.75 121.05 82.7 121.15 82.6 121.35 82.35 121.5 82.25 123.05 82.3 123.5 82.6 123.55 82.75 123.6 83.3 123.55 83.9" fill="#158901" fill-rule="evenodd" stroke="none"/>
    <path d="M114.5 86.1 L114.55 86.0 114.55 85.9 114.55 85.7 114.55 85.5 114.45 85.3 114.35 85.3 114.35 85.2 114.35 85.0 114.4 84.6 114.4 84.5 114.55 84.4 114.85 84.3 115.75 84.1 115.75 84.05 115.75 83.9 115.75 83.85 115.75 83.7 115.85 83.4 115.95 83.05 Q115.95 82.75 116.25 82.55 L116.5 82.35 116.65 82.35 117.35 82.35 117.7 82.45 118.2 82.75 118.25 82.8 118.2 82.9 118.2 82.95 118.1 82.95 118.2 83.05 118.25 83.05 118.2 83.15 118.2 83.2 118.05 83.15 117.2 83.0 117.05 83.05 116.95 83.05 116.75 83.3 116.65 83.4 116.5 83.5 116.35 83.65 116.25 83.8 116.15 83.9 116.15 84.3 116.15 84.4 116.15 84.55 116.15 84.65 116.05 84.75 115.8 84.9 115.65 85.0 115.55 85.15 115.4 85.3 115.35 85.4 115.35 86.2 115.35 86.3 115.35 86.55 115.35 86.65 115.55 86.85 116.05 87.25 116.55 87.4 116.6 87.45 116.65 87.6 116.65 87.7 116.65 87.85 116.65 87.95 116.65 88.1 116.65 88.45 116.7 88.6 116.85 88.7 118.2 88.65 118.7 88.3 118.85 88.25 119.0 88.2 Q119.5 88.65 120.2 88.5 L121.2 87.85 121.4 87.2 121.45 87.1 121.45 86.95 122.1 86.55 122.5 86.05 122.6 85.9 122.6 85.8 122.65 85.8 122.65 85.7 122.65 85.2 122.65 85.15 122.6 84.8 122.55 84.7 122.5 84.55 122.35 84.45 122.25 84.3 122.05 84.15 121.95 84.05 121.95 83.95 121.95 83.75 121.95 83.7 121.95 83.6 121.95 83.5 123.15 83.65 123.4 83.7 123.45 83.7 123.55 83.9 123.6 83.95 123.9 84.7 123.9 85.0 123.9 85.6 123.9 85.7 123.9 85.8 123.85 85.8 123.7 85.85 123.6 85.9 123.6 85.95 123.55 86.45 123.35 86.9 123.15 87.45 123.25 87.8 123.35 87.85 123.45 87.9 123.55 88.25 123.35 88.85 123.25 89.1 123.2 89.15 122.95 89.65 122.05 90.1 121.05 90.35 121.0 90.5 120.95 90.8 120.8 91.15 120.7 91.4 120.6 91.6 119.1 91.7 118.6 91.3 118.5 91.3 118.4 91.3 118.35 91.2 118.0 90.8 117.7 90.9 117.3 91.15 116.95 91.15 116.25 91.05 115.8 90.75 115.65 90.7 115.6 90.55 115.55 90.5 115.55 90.35 115.55 90.25 115.55 90.05 115.5 90.0 115.5 89.9 115.45 89.9 115.05 89.75 114.65 89.7 114.35 89.7 114.15 89.65 113.95 89.55 113.75 89.5 113.7 89.45 113.55 89.35 113.4 89.25 113.4 89.15 113.4 89.1 113.4 88.55 113.4 88.5 113.5 87.95 113.55 87.7 113.55 87.65 113.7 87.2 113.8 87.0 113.9 86.85 114.35 86.25 114.4 86.2 114.5 86.1 M121.15 82.75 L120.2 82.75 120.2 82.7 120.15 82.55 120.1 82.5 120.65 82.55 121.05 82.7 121.15 82.75" fill="#1ba901" fill-rule="evenodd" stroke="none"/>
    <path d="M121.95 83.6 L121.95 83.7 121.95 83.75 121.95 83.95 121.95 84.05 122.05 84.15 122.25 84.3 122.35 84.45 122.5 84.55 122.55 84.7 122.6 84.8 122.65 85.15 122.65 85.2 122.65 85.25 122.6 85.3 122.6 85.4 122.65 85.7 122.65 85.8 122.6 85.8 122.6 85.9 122.5 86.05 122.1 86.55 121.45 86.95 121.45 87.1 121.4 87.2 121.2 87.85 120.2 88.5 Q119.5 88.65 119.0 88.2 L118.85 88.25 118.7 88.3 118.2 88.65 116.85 88.7 116.7 88.6 116.65 88.45 116.65 88.1 116.65 87.95 116.65 87.85 116.65 87.7 116.65 87.6 116.6 87.45 116.55 87.4 116.05 87.25 115.55 86.85 115.35 86.65 115.35 86.55 115.35 86.3 115.35 86.2 115.35 85.4 115.4 85.3 115.55 85.15 115.65 85.0 115.8 84.9 116.05 84.75 116.15 84.65 116.15 84.55 116.15 84.4 116.15 84.3 116.15 83.9 116.25 83.8 116.35 83.65 116.5 83.5 116.65 83.4 116.75 83.3 116.95 83.05 117.05 83.05 117.2 83.0 118.05 83.15 118.2 83.2 118.2 83.15 118.25 83.05 118.3 82.95 118.35 82.9 118.6 82.65 118.65 82.65 118.9 82.5 119.2 82.4 119.2 82.35 119.85 82.4 120.05 82.45 120.1 82.5 120.15 82.55 120.2 82.7 120.2 82.75 121.15 82.75 121.25 82.8 121.45 82.85 121.55 82.95 121.65 83.05 121.75 83.2 121.8 83.3 121.85 83.45 121.95 83.6" fill="#1ec001" fill-rule="evenodd" stroke="none"/>
    <path d="M39.45 76.85 L40.95 76.6 40.75 76.3 40.65 75.6 40.65 74.95 40.75 74.85 40.9 74.75 41.05 74.6 41.15 74.5 41.4 74.4 42.4 74.45 42.6 74.45 42.7 74.6 42.8 74.7 Q42.9 74.35 43.15 74.15 L43.4 74.0 44.4 74.05 44.7 74.15 44.9 74.3 45.05 74.5 45.25 74.85 45.3 75.0 45.85 75.05 46.25 75.2 46.35 75.1 46.55 74.85 46.7 74.75 48.25 74.8 48.7 75.1 48.75 75.25 48.8 75.8 48.75 76.4 48.8 76.45 49.1 77.2 49.1 77.5 49.1 78.1 49.1 78.2 49.1 78.3 49.3 78.45 49.5 78.6 Q50.4 79.05 50.35 80.1 L50.1 81.1 49.75 81.55 48.9 82.25 48.8 82.35 48.7 82.6 48.55 83.4 48.5 84.1 47.85 85.3 47.35 85.6 45.85 85.75 45.65 85.7 45.5 85.55 45.3 85.35 45.4 85.35 45.2 85.3 44.35 85.55 44.0 85.55 43.9 85.7 43.55 86.15 43.4 86.35 43.2 86.35 42.05 86.4 41.85 86.35 41.75 86.25 41.45 85.75 41.35 85.1 41.35 84.9 40.7 84.5 40.5 84.35 40.5 84.2 40.4 84.2 Q39.2 84.75 38.25 84.0 L37.95 83.6 38.0 83.5 38.1 82.85 38.5 82.1 38.6 81.9 38.6 82.0 38.8 82.0 38.8 81.95 38.9 81.95 38.75 81.85 38.6 81.75 38.6 81.65 38.6 81.6 38.6 81.05 38.6 81.0 38.7 80.45 37.85 79.7 Q37.1 78.7 38.1 77.75 38.6 77.2 39.45 76.85 M39.55 78.75 L39.6 78.7 39.7 78.6 39.65 78.6 39.55 78.65 39.55 78.75 M38.95 82.0 L38.9 81.95 38.9 82.0 38.95 82.0 M39.35 82.15 L39.45 82.2 39.55 82.2 39.35 82.15 M47.8 77.8 L47.8 77.9 47.85 78.2 47.85 77.7 47.85 77.75 47.8 77.8 M40.7 82.4 L40.65 82.4 40.7 82.5 40.7 82.4" fill="#158901" fill-rule="evenodd" stroke="none"/>
    <path d="M39.45 76.85 L40.95 76.6 40.75 76.3 40.65 75.6 40.65 74.95 40.75 74.85 40.9 74.75 41.05 74.6 41.15 74.5 41.4 74.4 42.4 74.45 42.6 74.45 42.7 74.6 42.8 74.7 Q42.9 74.35 43.15 74.15 L43.4 74.0 44.4 74.05 44.7 74.15 44.9 74.3 45.05 74.5 45.25 74.85 45.3 75.0 45.85 75.05 46.25 75.2 46.35 75.1 46.55 74.85 46.7 74.75 48.25 74.8 48.7 75.1 48.75 75.25 48.8 75.8 48.75 76.4 48.8 76.45 49.1 77.2 49.1 77.5 49.1 78.1 49.1 78.2 49.1 78.3 49.3 78.45 49.5 78.6 Q50.4 79.05 50.35 80.1 L50.1 81.1 49.75 81.55 48.9 82.25 48.8 82.35 48.7 82.6 48.55 83.4 48.5 84.1 47.85 85.3 47.35 85.6 45.85 85.75 45.65 85.7 45.5 85.55 45.3 85.35 45.4 85.35 45.2 85.3 44.35 85.55 44.0 85.55 43.9 85.7 43.55 86.15 43.4 86.35 43.2 86.35 42.05 86.4 41.85 86.35 41.75 86.25 41.45 85.75 41.35 85.1 41.35 84.9 40.7 84.5 40.5 84.35 40.5 84.2 40.4 84.2 Q39.2 84.75 38.25 84.0 L37.95 83.6 38.0 83.5 38.1 82.85 38.5 82.1 38.6 81.9 38.6 82.0 38.8 82.0 38.8 81.95 38.9 81.95 38.75 81.85 38.6 81.75 38.6 81.65 38.6 81.6 38.6 81.05 38.6 81.0 38.7 80.45 37.85 79.7 Q37.1 78.7 38.1 77.75 38.6 77.2 39.45 76.85 Z" fill="none" stroke="#137601" stroke-linecap="round" stroke-linejoin="round" stroke-width="1.5"/>
    <path d="M39.7 78.6 L39.75 78.5 39.75 78.4 39.75 78.2 39.75 78.0 39.65 77.8 39.55 77.8 39.55 77.7 39.55 77.5 39.6 77.1 39.6 77.0 39.75 76.9 40.05 76.8 40.95 76.6 40.95 76.55 40.95 76.4 40.95 76.35 40.95 76.2 41.05 75.9 41.15 75.55 Q41.15 75.25 41.45 75.05 L41.7 74.85 41.85 74.85 42.55 74.85 42.9 74.95 43.4 75.25 43.45 75.3 43.4 75.4 43.4 75.45 43.3 75.45 43.4 75.55 43.45 75.55 43.4 75.65 43.4 75.7 43.25 75.65 42.4 75.5 42.25 75.55 42.15 75.55 41.95 75.8 41.85 75.9 41.7 76.0 41.55 76.15 41.45 76.3 41.35 76.4 41.35 76.8 41.35 76.9 41.35 77.05 41.35 77.15 41.25 77.25 41.0 77.4 40.85 77.5 40.75 77.65 40.6 77.8 40.55 77.9 40.55 78.7 40.55 78.8 40.55 79.05 40.55 79.15 40.75 79.35 41.25 79.75 41.75 79.9 41.8 79.95 41.85 80.1 41.85 80.2 41.85 80.35 41.85 80.45 41.85 80.6 41.85 80.95 41.9 81.1 42.05 81.2 43.4 81.15 43.9 80.8 44.05 80.75 44.2 80.7 Q44.7 81.15 45.4 81.0 46.0 80.85 46.4 80.35 L46.6 79.7 46.65 79.6 46.65 79.45 47.3 79.05 47.7 78.55 47.8 78.4 47.8 78.3 47.85 78.3 47.85 78.2 47.85 77.7 47.85 77.65 47.8 77.3 47.75 77.2 47.7 77.05 47.55 76.95 47.45 76.8 47.25 76.65 47.15 76.55 47.15 76.45 47.15 76.25 47.15 76.2 47.15 76.1 47.15 76.0 48.35 76.15 48.6 76.2 48.65 76.2 48.75 76.4 48.8 76.45 49.1 77.2 49.1 77.5 49.1 78.1 49.1 78.2 49.1 78.3 49.05 78.3 48.9 78.35 48.8 78.4 48.8 78.45 48.75 78.95 48.55 79.4 48.35 79.95 48.45 80.3 48.55 80.35 48.65 80.4 48.75 80.75 48.55 81.35 48.45 81.6 48.4 81.65 48.15 82.15 47.25 82.6 46.25 82.85 46.2 83.0 46.15 83.3 46.0 83.65 45.9 83.9 45.8 84.1 44.3 84.2 43.8 83.8 43.7 83.8 43.6 83.8 43.55 83.7 43.2 83.3 42.9 83.4 42.5 83.65 42.15 83.65 41.45 83.55 41.0 83.25 40.85 83.2 40.8 83.05 40.75 83.0 40.75 82.85 40.75 82.75 40.75 82.55 40.7 82.5 40.7 82.4 40.65 82.4 40.25 82.25 39.85 82.2 39.55 82.2 39.35 82.15 39.15 82.05 38.95 82.0 38.9 81.95 38.75 81.85 38.6 81.75 38.6 81.65 38.6 81.6 38.6 81.05 38.6 81.0 38.7 80.45 38.75 80.2 38.75 80.15 38.9 79.7 39.0 79.5 39.1 79.35 39.55 78.75 39.6 78.7 39.7 78.6 M46.35 75.25 L45.4 75.25 45.4 75.2 45.35 75.05 45.3 75.0 45.85 75.05 46.25 75.2 46.35 75.25" fill="#1ba901" fill-rule="evenodd" stroke="none"/>
    <path d="M43.45 75.55 L43.4 75.55 43.3 75.45 43.4 75.45 43.4 75.4 43.45 75.3 43.4 75.25 42.9 74.95 42.55 74.85 41.85 74.85 41.7 74.85 41.45 75.05 Q41.15 75.25 41.15 75.55 L41.05 75.9 40.95 76.2 40.95 76.35 40.95 76.4 40.95 76.55 40.95 76.6 40.05 76.8 39.75 76.9 39.6 77.0 39.6 77.1 39.55 77.5 39.55 77.7 39.55 77.8 39.65 77.8 39.75 78.0 39.75 78.2 39.75 78.4 39.75 78.5 39.7 78.6 39.65 78.6 39.55 78.65 39.55 78.75 39.1 79.35 39.0 79.5 38.9 79.7 38.75 80.15 38.75 80.2 38.7 80.45 37.85 79.7 Q37.1 78.7 38.1 77.75 38.6 77.2 39.45 76.85 L40.95 76.6 40.75 76.3 40.65 75.6 40.65 74.95 40.75 74.85 40.9 74.75 41.05 74.6 41.15 74.5 41.4 74.4 42.4 74.45 42.6 74.45 42.7 74.6 42.8 74.7 Q42.9 74.35 43.15 74.15 L43.4 74.0 44.4 74.05 44.7 74.15 44.9 74.3 45.05 74.5 45.25 74.85 45.3 75.0 45.25 74.95 45.05 74.9 44.4 74.85 44.4 74.9 44.1 75.0 43.85 75.15 43.8 75.15 43.55 75.4 43.5 75.45 43.45 75.55 M38.95 82.0 L39.15 82.05 39.35 82.15 39.45 82.2 39.55 82.2 39.85 82.2 40.25 82.25 40.65 82.4 40.7 82.5 40.75 82.55 40.75 82.75 40.75 82.85 40.75 83.0 40.8 83.05 40.85 83.2 41.0 83.25 41.45 83.55 42.15 83.65 42.5 83.65 42.9 83.4 43.2 83.3 43.55 83.7 43.6 83.8 43.7 83.8 43.8 83.8 44.3 84.2 45.8 84.1 45.9 83.9 46.0 83.65 46.15 83.3 46.2 83.0 46.25 82.85 47.25 82.6 48.15 82.15 48.4 81.65 48.45 81.6 48.55 81.35 48.75 80.75 48.65 80.4 48.55 80.35 48.45 80.3 48.35 79.95 48.55 79.4 48.75 78.95 48.8 78.45 48.8 78.4 48.9 78.35 49.05 78.3 49.1 78.3 49.3 78.45 49.5 78.6 Q50.4 79.05 50.35 80.1 L50.1 81.1 49.75 81.55 48.9 82.25 48.8 82.35 48.7 82.6 48.55 83.4 48.5 84.1 47.85 85.3 47.35 85.6 45.85 85.75 45.65 85.7 45.5 85.55 45.3 85.35 45.4 85.35 45.2 85.3 44.35 85.55 44.0 85.55 43.9 85.7 43.55 86.15 43.4 86.35 43.2 86.35 42.05 86.4 41.85 86.35 41.75 86.25 41.45 85.75 41.35 85.1 41.35 84.9 40.7 84.5 40.5 84.35 40.5 84.2 40.4 84.2 Q39.2 84.75 38.25 84.0 L37.95 83.6 38.0 83.5 38.1 82.85 38.5 82.1 38.6 81.9 38.6 82.0 38.8 82.0 38.8 81.95 38.9 81.95 38.9 82.0 38.95 82.0 M48.75 76.4 L48.65 76.2 48.6 76.2 48.35 76.15 47.15 76.0 47.15 76.1 47.05 75.95 47.0 75.8 46.95 75.7 46.85 75.55 46.75 75.45 46.65 75.35 46.45 75.3 46.35 75.25 46.25 75.2 46.35 75.1 46.55 74.85 46.7 74.75 48.25 74.8 48.7 75.1 48.75 75.25 48.8 75.8 48.75 76.4" fill="#158901" fill-rule="evenodd" stroke="none"/>
    <path d="M47.15 76.1 L47.15 76.2 47.15 76.25 47.15 76.45 47.15 76.55 47.25 76.65 47.45 76.8 47.55 76.95 47.7 77.05 47.75 77.2 47.8 77.3 47.85 77.65 47.85 77.7 47.85 77.75 47.8 77.8 47.8 77.9 47.85 78.2 47.85 78.3 47.8 78.3 47.8 78.4 47.7 78.55 47.3 79.05 46.65 79.45 46.65 79.6 46.6 79.7 46.4 80.35 Q46.0 80.85 45.4 81.0 44.7 81.15 44.2 80.7 L44.05 80.75 43.9 80.8 43.4 81.15 42.05 81.2 41.9 81.1 41.85 80.95 41.85 80.6 41.85 80.45 41.85 80.35 41.85 80.2 41.85 80.1 41.8 79.95 41.75 79.9 41.25 79.75 40.75 79.35 40.55 79.15 40.55 79.05 40.55 78.8 40.55 78.7 40.55 77.9 40.6 77.8 40.75 77.65 40.85 77.5 41.0 77.4 41.25 77.25 41.35 77.15 41.35 77.05 41.35 76.9 41.35 76.8 41.35 76.4 41.45 76.3 41.55 76.15 41.7 76.0 41.85 75.9 41.95 75.8 42.15 75.55 42.25 75.55 42.4 75.5 43.25 75.65 43.4 75.7 43.4 75.65 43.45 75.55 43.5 75.45 43.55 75.4 43.8 75.15 43.85 75.15 44.1 75.0 44.4 74.9 44.4 74.85 45.05 74.9 45.25 74.95 45.3 75.0 45.35 75.05 45.4 75.2 45.4 75.25 46.35 75.25 46.45 75.3 46.65 75.35 46.75 75.45 46.85 75.55 46.95 75.7 47.0 75.8 47.05 75.95 47.15 76.1" fill="#1ec001" fill-rule="evenodd" stroke="none"/>
    <path d="M79.5 103.95 L84.3 102.2 105.7 103.95 107.85 112.5 105.7 117.6 79.5 117.6 79.5 103.95" fill="#000000" fill-opacity="0.2" fill-rule="evenodd" stroke="none"/>
    <path d="M99.35 73.45 Q100.45 74.4 101.0 75.85 101.5 75.45 102.45 75.45 104.4 75.55 104.4 78.75 L104.25 80.0 104.35 80.05 104.55 80.15 Q105.85 80.85 106.4 81.7 L106.45 81.75 106.7 81.95 107.85 82.35 Q110.05 83.25 110.55 84.9 111.1 85.4 111.1 85.65 L111.1 85.8 111.2 86.65 Q111.2 87.5 110.7 87.9 L107.6 89.4 102.9 91.4 102.55 91.95 Q101.9 92.65 100.6 92.65 L99.25 92.4 99.2 92.5 99.5 93.75 99.7 94.7 100.45 96.95 100.5 97.05 100.6 97.0 100.7 97.25 100.6 97.45 101.1 98.85 101.4 99.6 107.3 99.6 107.3 112.05 82.55 112.05 82.55 99.6 89.0 99.6 Q89.45 97.6 90.65 94.3 91.2 92.8 91.7 91.9 L91.65 91.8 91.05 91.1 90.8 91.4 Q90.1 92.15 89.35 92.15 L88.35 91.7 87.7 91.2 87.7 91.35 87.65 91.4 87.5 91.45 87.4 91.25 87.2 91.35 83.45 91.35 Q80.35 91.6 78.95 90.15 78.1 89.25 78.1 88.2 L78.25 87.55 Q78.4 85.85 80.65 84.25 L82.0 83.45 Q82.05 81.9 82.95 81.45 L82.65 82.7 82.55 83.15 82.6 83.1 Q82.7 82.45 83.2 81.7 L83.6 81.2 Q84.15 80.5 84.95 80.25 L84.85 79.65 84.85 79.4 Q84.85 75.7 87.0 75.85 88.05 75.9 88.6 76.3 89.1 74.75 90.3 73.7 92.15 71.95 94.85 71.9 97.5 71.85 99.35 73.45 M89.55 89.25 L87.55 86.7 Q86.65 87.3 86.5 87.45 L86.4 87.35 Q85.25 87.95 83.85 88.0 L86.55 89.4 Q87.35 89.85 87.7 89.95 L87.85 89.75 88.0 89.85 88.2 89.6 Q88.55 89.25 89.35 89.25 L89.55 89.25 M100.75 89.55 L102.0 89.6 Q102.05 88.6 102.7 89.2 L102.75 89.25 104.4 87.75 104.65 87.55 104.85 87.35 105.15 87.1 Q103.9 86.8 103.05 86.0 L102.65 85.55 102.55 85.55 102.5 85.55 102.0 86.0 100.45 88.85 100.15 89.7 100.75 89.55 M92.45 98.5 L91.7 99.6 98.55 99.6 98.35 99.3 97.95 98.6 97.75 98.6 97.65 98.35 97.7 98.2 96.2 95.5 96.1 95.4 94.5 95.7 94.5 95.75 94.4 95.85 94.3 95.75 92.6 98.3 93.0 98.4 92.45 98.5 M104.9 85.9 L104.55 85.85 104.8 85.9 104.9 85.9" fill="#dda600" fill-rule="evenodd" stroke="none"/>
    <path d="M99.35 73.45 Q100.45 74.4 101.0 75.85 101.5 75.45 102.45 75.45 104.4 75.55 104.4 78.75 L104.25 80.0 104.35 80.05 104.55 80.15 Q105.85 80.85 106.4 81.7 L106.45 81.75 106.7 81.95 107.85 82.35 Q110.05 83.25 110.55 84.9 111.1 85.4 111.1 85.65 L111.1 85.8 111.2 86.65 Q111.2 87.5 110.7 87.9 L107.6 89.4 102.9 91.4 102.55 91.95 Q101.9 92.65 100.6 92.65 L99.25 92.4 99.2 92.5 99.5 93.75 99.7 94.7 100.45 96.95 100.5 97.05 100.6 97.0 100.7 97.25 100.6 97.45 101.1 98.85 101.4 99.6 107.3 99.6 107.3 112.05 82.55 112.05 82.55 99.6 89.0 99.6 Q89.45 97.6 90.65 94.3 91.2 92.8 91.7 91.9 L91.65 91.8 91.05 91.1 90.8 91.4 Q90.1 92.15 89.35 92.15 L88.35 91.7 87.7 91.2 87.7 91.35 87.65 91.4 87.5 91.45 87.4 91.25 87.2 91.35 83.45 91.35 Q80.35 91.6 78.95 90.15 78.1 89.25 78.1 88.2 L78.25 87.55 Q78.4 85.85 80.65 84.25 L82.0 83.45 Q82.05 81.9 82.95 81.45 L82.65 82.7 82.55 83.15 82.6 83.1 Q82.7 82.45 83.2 81.7 L83.6 81.2 Q84.15 80.5 84.95 80.25 L84.85 79.65 84.85 79.4 Q84.85 75.7 87.0 75.85 88.05 75.9 88.6 76.3 89.1 74.75 90.3 73.7 92.15 71.95 94.85 71.9 97.5 71.85 99.35 73.45 M89.55 89.25 L87.55 86.7 Q86.65 87.3 86.5 87.45 L86.4 87.35 Q85.25 87.95 83.85 88.0 L86.55 89.4 Q87.35 89.85 87.7 89.95 L87.85 89.75 88.0 89.85 88.2 89.6 Q88.55 89.25 89.35 89.25 L89.55 89.25 M100.75 89.55 L102.0 89.6 Q102.05 88.6 102.7 89.2 L102.75 89.25 104.4 87.75 104.65 87.55 104.85 87.35 105.15 87.1 Q103.9 86.8 103.05 86.0 L102.65 85.55 102.55 85.55 102.5 85.55 102.0 86.0 100.45 88.85 100.15 89.7 100.75 89.55 M92.45 98.5 L91.7 99.6 98.55 99.6 98.35 99.3 97.95 98.6 97.75 98.6 97.65 98.35 97.7 98.2 96.2 95.5 96.1 95.4 94.5 95.7 94.5 95.75 94.4 95.85 94.3 95.75 92.6 98.3 93.0 98.4 92.45 98.5" fill="none" stroke="#322210" stroke-linecap="round" stroke-linejoin="round" stroke-width="2.0"/>
    <path d="M82.55 102.95 L107.3 102.95 107.3 112.05 82.55 112.05 82.55 102.95" fill="#dda600" fill-rule="evenodd" stroke="none"/>
    <path d="M82.55 99.6 L107.3 99.6 107.3 108.65 82.55 108.65 82.55 99.6" fill="#ffc825" fill-rule="evenodd" stroke="none"/>
    <path d="M99.35 73.45 Q100.45 74.4 101.0 75.85 101.5 75.45 102.45 75.45 104.4 75.55 104.4 78.75 L104.25 80.0 104.55 80.15 Q105.85 80.85 106.4 81.7 L106.45 81.75 106.7 81.95 107.85 82.35 Q110.05 83.25 110.55 84.9 111.1 85.4 111.1 85.65 L111.1 85.8 111.2 86.65 Q111.2 87.5 110.7 87.9 L107.6 89.4 102.9 91.4 102.55 91.95 Q101.9 92.65 100.6 92.65 L99.15 92.35 99.15 92.4 99.5 93.75 99.7 94.7 100.45 96.95 101.1 98.85 Q101.95 100.9 102.0 101.65 L103.25 102.55 104.75 103.8 104.75 103.95 104.8 104.0 105.15 104.35 104.8 104.7 104.6 104.75 104.25 104.8 103.8 104.8 102.65 104.9 101.7 104.8 101.5 104.8 101.25 105.1 100.8 105.3 Q98.85 105.3 98.85 104.7 98.85 104.45 99.2 104.4 L100.15 102.85 100.25 102.75 99.75 101.85 98.35 99.3 Q96.6 96.5 96.2 95.5 L96.1 95.4 94.4 95.7 94.35 95.7 90.05 101.7 90.05 101.95 89.75 102.95 90.35 103.6 91.2 104.65 90.8 105.1 90.4 105.45 90.25 105.55 89.45 105.6 87.35 105.25 86.0 105.35 85.05 105.15 85.0 104.9 85.75 104.15 Q86.05 103.6 87.3 102.6 L88.1 102.0 88.65 101.55 88.7 101.5 Q88.8 99.45 90.65 94.3 L91.7 91.85 91.05 91.1 90.8 91.4 Q90.1 92.15 89.35 92.15 L88.35 91.7 87.65 91.15 87.2 91.35 83.45 91.35 Q80.35 91.6 78.95 90.15 78.1 89.25 78.1 88.2 L78.25 87.55 Q78.4 85.85 80.65 84.25 81.8 83.45 82.4 83.3 L82.6 83.1 Q82.7 82.45 83.2 81.7 83.9 80.6 84.95 80.3 L84.85 79.4 Q84.85 75.7 87.0 75.85 88.05 75.9 88.6 76.3 89.1 74.75 90.3 73.7 92.15 71.95 94.85 71.9 97.5 71.85 99.35 73.45 M89.55 89.25 L87.45 86.6 86.95 86.95 Q85.65 87.95 83.85 88.0 L86.55 89.4 87.8 89.95 88.2 89.6 Q88.55 89.25 89.35 89.25 L89.55 89.25 M100.75 89.55 L102.3 89.7 104.4 87.75 105.2 87.1 Q103.9 86.8 103.05 86.0 L102.65 85.55 102.55 85.55 102.25 85.5 100.45 88.85 100.15 89.7 100.75 89.55 M104.8 85.9 L104.9 85.9 104.55 85.85 104.8 85.9" fill="#bb8c00" fill-rule="evenodd" stroke="none"/>
    <path d="M99.35 73.45 Q100.45 74.4 101.0 75.85 101.5 75.45 102.45 75.45 104.4 75.55 104.4 78.75 L104.25 80.0 104.55 80.15 Q105.85 80.85 106.4 81.7 L106.45 81.75 106.7 81.95 107.85 82.35 Q110.05 83.25 110.55 84.9 111.1 85.4 111.1 85.65 L111.1 85.8 111.2 86.65 Q111.2 87.5 110.7 87.9 L107.6 89.4 102.9 91.4 102.55 91.95 Q101.9 92.65 100.6 92.65 L99.15 92.35 99.15 92.4 99.5 93.75 99.7 94.7 100.45 96.95 101.1 98.85 Q101.95 100.9 102.0 101.65 L103.25 102.55 104.75 103.8 104.75 103.95 104.8 104.0 105.15 104.35 104.8 104.7 104.6 104.75 104.25 104.8 103.8 104.8 102.65 104.9 101.7 104.8 101.5 104.8 101.25 105.1 100.8 105.3 Q98.85 105.3 98.85 104.7 98.85 104.45 99.2 104.4 L100.15 102.85 100.25 102.75 99.75 101.85 98.35 99.3 Q96.6 96.5 96.2 95.5 L96.1 95.4 94.4 95.7 94.35 95.7 90.05 101.7 90.05 101.95 89.75 102.95 90.35 103.6 91.2 104.65 90.8 105.1 90.4 105.45 90.25 105.55 89.45 105.6 87.35 105.25 86.0 105.35 85.05 105.15 85.0 104.9 85.75 104.15 Q86.05 103.6 87.3 102.6 L88.1 102.0 88.65 101.55 88.7 101.5 Q88.8 99.45 90.65 94.3 L91.7 91.85 91.05 91.1 90.8 91.4 Q90.1 92.15 89.35 92.15 L88.35 91.7 87.65 91.15 87.2 91.35 83.45 91.35 Q80.35 91.6 78.95 90.15 78.1 89.25 78.1 88.2 L78.25 87.55 Q78.4 85.85 80.65 84.25 81.8 83.45 82.4 83.3 L82.6 83.1 Q82.7 82.45 83.2 81.7 83.9 80.6 84.95 80.3 L84.85 79.4 Q84.85 75.7 87.0 75.85 88.05 75.9 88.6 76.3 89.1 74.75 90.3 73.7 92.15 71.95 94.85 71.9 97.5 71.85 99.35 73.45 M89.55 89.25 L87.45 86.6 86.95 86.95 Q85.65 87.95 83.85 88.0 L86.55 89.4 87.8 89.95 88.2 89.6 Q88.55 89.25 89.35 89.25 L89.55 89.25 M100.75 89.55 L102.3 89.7 104.4 87.75 105.2 87.1 Q103.9 86.8 103.05 86.0 L102.65 85.55 102.55 85.55 102.25 85.5 100.45 88.85 100.15 89.7 100.75 89.55" fill="none" stroke="#bb8c00" stroke-linecap="round" stroke-linejoin="round" stroke-width="1.0"/>
    <path d="M99.6 78.65 Q101.25 78.65 102.45 79.45 L102.85 79.55 Q103.4 79.5 104.55 80.15 105.85 80.85 106.4 81.7 L106.45 81.75 106.7 81.95 107.85 82.35 Q110.05 83.25 110.55 84.9 111.1 85.4 111.1 85.65 L111.1 85.8 111.2 86.65 Q111.2 87.5 110.7 87.9 L107.6 89.4 102.9 91.4 102.55 91.95 Q101.9 92.65 100.6 92.65 L99.15 92.35 99.15 92.4 99.5 93.75 99.7 94.7 100.45 96.95 101.1 98.85 Q101.95 100.9 102.0 101.65 L103.25 102.55 104.75 103.8 104.75 103.95 104.8 104.0 105.15 104.35 104.8 104.7 104.6 104.75 104.25 104.8 103.8 104.8 102.65 104.9 101.7 104.8 101.5 104.8 101.25 105.1 100.8 105.3 Q98.85 105.3 98.85 104.7 98.85 104.45 99.2 104.4 L100.15 102.85 100.25 102.75 99.75 101.85 98.35 99.3 Q96.6 96.5 96.2 95.5 L96.1 95.4 94.4 95.7 94.35 95.7 90.05 101.7 90.05 101.95 89.75 102.95 90.35 103.6 91.2 104.65 90.8 105.1 90.4 105.45 90.25 105.55 89.45 105.6 87.35 105.25 86.0 105.35 85.05 105.15 85.0 104.9 85.75 104.15 Q86.05 103.6 87.3 102.6 L88.1 102.0 88.65 101.55 88.7 101.5 Q88.8 99.45 90.65 94.3 L91.7 91.85 91.05 91.1 90.8 91.4 Q90.1 92.15 89.35 92.15 L88.35 91.7 87.65 91.15 87.2 91.35 83.45 91.35 Q80.35 91.6 78.95 90.15 78.1 89.25 78.1 88.2 L78.25 87.55 Q78.4 85.85 80.65 84.25 81.8 83.45 82.4 83.3 L82.6 83.1 Q82.7 82.45 83.2 81.7 84.15 80.15 85.75 80.15 L85.8 80.15 86.55 79.65 Q87.55 79.05 88.5 78.8 L91.7 78.9 93.2 79.8 97.4 79.25 99.6 78.65 M89.55 89.25 L87.45 86.6 86.95 86.95 Q85.65 87.95 83.85 88.0 L86.55 89.4 87.8 89.95 88.2 89.6 Q88.55 89.25 89.35 89.25 L89.55 89.25 M100.75 89.55 L102.3 89.7 104.4 87.75 105.2 87.1 Q103.9 86.8 103.05 86.0 L102.65 85.55 102.55 85.55 102.25 85.5 100.45 88.85 100.15 89.7 100.75 89.55 M104.8 85.9 L104.9 85.9 104.55 85.85 104.8 85.9" fill="url(#gradient0)" fill-rule="evenodd" stroke="none"/>
    <path d="M91.55 84.7 Q91.0 85.1 91.0 86.5 91.0 87.35 91.6 88.2 92.6 89.65 94.8 89.65 97.05 89.65 98.2 88.0 98.95 86.9 98.95 85.8 L98.75 84.85 98.55 84.3 98.8 84.05 99.35 84.95 99.4 85.75 Q99.4 87.1 98.45 88.4 97.15 90.15 94.85 90.15 92.35 90.15 91.25 88.55 90.6 87.6 90.6 86.5 L90.65 85.4 Q90.8 84.65 91.35 84.6 L91.55 84.7 M82.7 85.65 Q82.15 85.65 82.0 84.8 L81.95 83.9 Q81.95 81.95 82.95 81.45 L82.65 82.7 82.45 83.85 82.45 84.65 82.9 85.55 82.7 85.65 M88.4 85.7 L88.95 86.55 89.7 87.55 Q89.6 87.75 89.25 87.75 88.3 87.75 87.95 87.0 L87.8 86.5 87.7 86.55 86.5 87.45 86.35 87.2 Q86.35 86.95 87.2 86.25 L87.85 85.75 88.0 85.65 88.2 85.5 88.4 85.7 M87.65 91.4 L87.5 91.45 87.25 90.9 87.5 90.25 87.85 89.75 88.1 90.05 87.9 90.6 87.7 91.35 87.65 91.4 M90.4 97.55 Q90.7 97.85 91.65 98.05 L93.0 98.4 91.8 98.6 Q90.55 98.6 90.05 97.85 L89.8 97.0 90.0 96.5 Q90.2 96.6 90.2 96.95 L90.4 97.55 M99.9 91.3 Q99.9 91.65 98.35 92.35 L96.9 92.9 97.6 92.8 Q98.15 92.4 98.85 92.25 L99.4 91.85 99.6 92.0 98.55 92.85 98.05 93.1 Q96.35 94.7 96.45 95.55 L96.35 95.6 96.1 95.0 Q96.1 94.25 96.95 93.4 L96.65 93.4 93.75 93.4 93.45 93.3 93.45 93.35 Q94.55 94.8 94.55 95.4 L94.5 95.75 94.4 95.85 Q94.15 95.65 93.45 94.15 92.9 93.05 91.7 92.6 L91.95 92.4 91.95 92.35 92.0 92.35 91.65 91.8 91.7 91.7 92.95 92.2 95.65 92.6 Q97.1 92.6 98.4 91.85 99.7 91.1 99.85 91.1 L99.9 91.3 M99.8 87.05 Q101.6 85.25 102.55 85.0 L102.6 85.25 Q102.6 85.8 100.05 87.2 L99.8 87.05 M97.65 98.35 L97.7 98.2 97.9 98.15 100.6 97.0 100.7 97.25 Q100.7 97.6 98.45 98.6 L97.75 98.6 97.65 98.35 M106.3 81.85 L106.5 81.8 106.95 82.75 107.1 83.55 Q107.1 84.3 106.6 84.7 L106.45 84.65 106.6 83.95 106.45 83.0 106.25 82.0 106.3 81.85 M104.85 87.35 Q105.35 86.8 105.75 86.8 L105.8 86.95 105.3 87.55 104.6 88.2 104.35 87.95 104.85 87.35 M102.7 89.2 Q103.4 89.8 103.6 91.0 L103.35 91.15 102.0 89.7 Q102.0 88.55 102.7 89.2" fill="#9d7806" fill-rule="evenodd" stroke="none"/>
    <path d="M99.35 73.45 Q100.45 74.4 101.0 75.85 101.5 75.45 102.45 75.45 104.4 75.55 104.4 78.75 L103.95 80.8 Q103.15 82.35 101.3 82.35 L100.45 82.2 Q98.75 85.45 95.15 85.45 91.1 85.45 89.3 82.3 L89.15 82.05 87.8 82.5 Q85.8 82.5 85.15 81.05 84.85 80.4 84.85 79.4 84.85 75.7 87.0 75.85 88.05 75.9 88.6 76.3 89.1 74.75 90.3 73.7 92.15 71.95 94.85 71.9 97.5 71.85 99.35 73.45" fill="#ffc825" fill-rule="evenodd" stroke="none"/>
    <path d="M99.35 73.45 Q100.45 74.4 101.0 75.85 101.5 75.45 102.45 75.45 104.4 75.55 104.4 78.75 L103.95 80.8 Q103.15 82.35 101.3 82.35 L100.45 82.2 Q98.75 85.45 95.15 85.45 91.1 85.45 89.3 82.3 L89.15 82.05 87.8 82.5 Q85.8 82.5 85.15 81.05 84.85 80.4 84.85 79.4 84.85 75.7 87.0 75.85 88.05 75.9 88.6 76.3 89.1 74.75 90.3 73.7 92.15 71.95 94.85 71.9 97.5 71.85 99.35 73.45 Z" fill="none" stroke="#a87e00" stroke-linecap="round" stroke-linejoin="round" stroke-width="1.0"/>
    <path d="M99.35 73.45 Q100.45 74.4 101.0 75.85 101.5 75.45 102.45 75.45 104.4 75.55 104.4 78.75 L103.95 80.8 Q103.15 82.35 101.3 82.35 L100.45 82.2 Q98.75 85.45 95.15 85.45 91.1 85.45 89.3 82.3 L89.15 82.05 87.8 82.5 Q85.8 82.5 85.15 81.05 84.85 80.4 84.85 79.4 84.85 75.7 87.0 75.85 88.05 75.9 88.6 76.3 89.1 74.75 90.3 73.7 92.15 71.95 94.85 71.9 97.5 71.85 99.35 73.45" fill="#ffc825" fill-rule="evenodd" stroke="none"/>
    <path d="M96.35 78.7 L95.2 79.7 95.15 79.65 95.1 79.65 94.25 79.15 93.4 78.45 91.85 78.5 Q90.55 79.3 90.1 80.2 89.8 80.8 89.8 81.85 L90.3 82.8 90.1 83.05 Q89.3 82.5 89.3 81.9 89.3 79.05 91.7 78.1 93.9 77.25 95.15 79.2 95.35 77.95 97.85 77.75 100.6 77.55 100.6 80.75 L100.55 82.1 Q100.35 82.9 99.6 83.6 L99.35 83.45 99.95 81.9 100.15 80.75 Q100.15 78.05 98.4 78.05 97.1 78.05 96.35 78.7 M93.8 80.85 Q93.8 82.25 92.65 82.25 91.95 82.25 91.8 81.65 L91.8 81.0 Q91.8 80.25 92.05 80.2 L92.2 81.15 Q92.15 81.75 92.65 81.75 93.2 81.75 93.3 81.25 L93.35 80.65 93.45 80.55 93.75 80.55 93.8 80.85 M95.0 83.6 L94.95 83.4 Q94.95 82.75 96.55 83.05 L96.6 83.3 Q96.05 83.8 95.5 83.8 95.1 83.8 95.0 83.6 M98.6 80.55 L98.85 81.1 Q98.85 81.75 98.15 82.25 L97.25 82.25 Q96.65 82.1 96.65 81.2 96.65 80.6 97.0 80.45 L97.1 80.9 97.3 81.75 98.05 81.7 98.6 80.55 M88.5 80.15 Q88.5 80.85 88.1 81.2 L87.4 81.2 86.75 80.5 86.7 79.9 Q86.7 78.5 87.6 78.6 88.5 78.65 88.5 80.15 M87.45 79.05 Q87.15 79.4 87.15 79.9 87.15 80.5 87.45 80.7 L87.95 80.7 88.05 80.15 Q88.05 79.3 87.45 79.05 M102.05 80.4 L102.2 80.5 Q102.75 80.15 102.75 79.4 L102.35 78.6 102.05 79.55 102.05 80.4 M103.25 79.35 Q103.25 81.0 102.3 81.0 101.65 81.0 101.5 80.55 L101.45 79.95 Q101.45 78.45 102.35 78.25 103.25 78.05 103.25 79.35" fill="#9d7806" fill-rule="evenodd" stroke="none"/>
    <path d="M94.75 73.25 L96.9 73.2 Q98.4 73.4 99.1 74.3 L100.05 75.7 100.05 76.45 99.85 76.6 99.1 74.8 Q98.4 73.7 94.75 73.35 L94.75 73.25 M99.2 86.45 L99.3 87.0 Q99.3 88.25 96.65 89.1 L96.45 88.85 Q96.45 88.7 97.2 88.4 L98.35 87.85 Q99.1 87.15 99.05 86.45 L99.2 86.45 M86.7 85.0 L86.75 85.05 85.9 85.7 85.1 86.0 Q86.15 84.95 86.7 85.0 M82.75 89.05 Q81.8 88.55 80.7 88.35 L80.65 88.1 Q81.45 87.9 82.8 88.55 84.15 89.25 84.2 89.9 L82.75 89.05 M96.9 92.05 L96.55 90.25 Q97.35 90.25 97.35 91.25 97.35 91.75 96.9 92.05 M98.65 95.1 L98.75 95.1 100.7 98.8 Q102.2 101.85 102.2 102.35 L102.15 102.55 102.1 102.65 Q101.45 101.75 100.3 99.5 98.95 96.75 98.95 95.65 L98.65 95.1 M103.4 77.7 L103.25 77.85 102.9 77.3 Q102.7 76.9 102.05 76.8 L102.0 76.55 102.95 76.6 103.4 77.25 103.4 77.7 M105.6 84.3 L105.4 82.1 Q106.0 81.7 106.0 83.25 L105.8 84.25 105.6 84.3 M109.75 86.35 Q109.75 87.85 106.15 89.5 L105.95 89.35 Q105.95 89.25 107.65 88.25 109.35 87.15 109.35 86.35 L108.9 85.7 108.2 84.8 Q109.75 84.85 109.75 86.35 M103.3 103.55 L103.2 103.7 Q102.55 103.25 101.95 103.05 L101.9 102.8 Q102.25 102.75 102.8 103.1 L103.3 103.55" fill="#ffffff" fill-rule="evenodd" stroke="none"/>
    <path d="M115.75 97.05 L115.85 96.95 Q115.95 96.85 116.0 96.85 L116.15 96.7 116.25 96.6 116.5 96.5 117.5 96.55 117.7 96.55 117.8 96.7 117.9 96.8 Q118.0 96.45 118.25 96.25 L118.5 96.1 119.5 96.15 119.8 96.25 120.0 96.4 120.15 96.6 120.35 96.95 120.4 97.1 120.95 97.15 121.35 97.3 121.45 97.2 121.65 96.95 121.8 96.85 123.35 96.9 123.8 97.2 123.85 97.35 123.9 97.9 123.85 98.5 123.9 98.55 124.2 99.3 124.2 99.6 124.2 100.2 124.2 100.3 124.2 100.4 124.4 100.55 124.6 100.7 Q125.5 101.15 125.45 102.2 L125.2 103.2 124.85 103.65 124.0 104.35 123.9 104.45 123.8 104.7 123.65 105.5 123.6 106.2 Q123.45 106.9 122.95 107.4 122.75 107.65 122.45 107.7 L120.95 107.85 120.75 107.8 120.6 107.65 120.4 107.45 120.5 107.45 120.3 107.4 119.45 107.65 119.1 107.65 119.0 107.8 118.65 108.25 118.5 108.45 118.3 108.45 117.15 108.5 116.95 108.45 116.85 108.35 116.55 107.85 116.45 107.2 116.45 107.0 115.8 106.6 115.6 106.45 115.6 106.3 115.5 106.3 Q114.3 106.85 113.35 106.1 L113.05 105.7 113.1 105.6 113.2 104.95 113.6 104.2 113.7 104.0 113.7 104.1 113.9 104.1 113.9 104.05 114.0 104.05 113.85 103.95 113.7 103.85 113.7 103.75 113.7 103.7 113.7 103.15 113.7 103.1 113.8 102.55 112.95 101.8 Q112.2 100.8 113.2 99.85 113.7 99.3 114.55 98.95 L116.05 98.7 115.85 98.4 115.75 97.7 115.75 97.05 M122.95 99.85 L122.9 99.9 122.9 100.0 122.95 100.3 122.95 99.8 122.95 99.85 M114.75 100.7 L114.65 100.75 114.65 100.85 114.7 100.8 114.8 100.7 114.75 100.7 M114.55 104.3 L114.65 104.3 114.45 104.25 114.55 104.3 M114.0 104.05 L114.0 104.1 114.05 104.1 114.0 104.05 M115.8 104.5 L115.75 104.5 115.8 104.6 115.8 104.5" fill="#158901" fill-rule="evenodd" stroke="none"/>
    <path d="M115.75 97.05 L115.85 96.95 Q115.95 96.85 116.0 96.85 L116.15 96.7 116.25 96.6 116.5 96.5 117.5 96.55 117.7 96.55 117.8 96.7 117.9 96.8 Q118.0 96.45 118.25 96.25 L118.5 96.1 119.5 96.15 119.8 96.25 120.0 96.4 120.15 96.6 120.35 96.95 120.4 97.1 120.95 97.15 121.35 97.3 121.45 97.2 121.65 96.95 121.8 96.85 123.35 96.9 123.8 97.2 123.85 97.35 123.9 97.9 123.85 98.5 123.9 98.55 124.2 99.3 124.2 99.6 124.2 100.2 124.2 100.3 124.2 100.4 124.4 100.55 124.6 100.7 Q125.5 101.15 125.45 102.2 L125.2 103.2 124.85 103.65 124.0 104.35 123.9 104.45 123.8 104.7 123.65 105.5 123.6 106.2 Q123.45 106.9 122.95 107.4 122.75 107.65 122.45 107.7 L120.95 107.85 120.75 107.8 120.6 107.65 120.4 107.45 120.5 107.45 120.3 107.4 119.45 107.65 119.1 107.65 119.0 107.8 118.65 108.25 118.5 108.45 118.3 108.45 117.15 108.5 116.95 108.45 116.85 108.35 116.55 107.85 116.45 107.2 116.45 107.0 115.8 106.6 115.6 106.45 115.6 106.3 115.5 106.3 Q114.3 106.85 113.35 106.1 L113.05 105.7 113.1 105.6 113.2 104.95 113.6 104.2 113.7 104.0 113.7 104.1 113.9 104.1 113.9 104.05 114.0 104.05 113.85 103.95 113.7 103.85 113.7 103.75 113.7 103.7 113.7 103.15 113.7 103.1 113.8 102.55 112.95 101.8 Q112.2 100.8 113.2 99.85 113.7 99.3 114.55 98.95 L116.05 98.7 115.85 98.4 115.75 97.7 115.75 97.05 Z" fill="none" stroke="#137601" stroke-linecap="round" stroke-linejoin="round" stroke-width="1.5"/>
    <path d="M113.8 102.55 L112.95 101.8 Q112.2 100.8 113.2 99.85 113.7 99.3 114.55 98.95 L116.05 98.7 115.85 98.4 115.75 97.7 115.75 97.05 115.85 96.95 Q115.95 96.85 116.0 96.85 L116.15 96.7 116.25 96.6 116.5 96.5 117.5 96.55 117.7 96.55 117.8 96.7 117.9 96.8 Q118.0 96.45 118.25 96.25 L118.5 96.1 119.5 96.15 119.8 96.25 120.0 96.4 120.15 96.6 120.35 96.95 120.4 97.1 120.35 97.05 120.15 97.0 119.5 96.95 119.5 97.0 119.2 97.1 118.95 97.25 118.9 97.25 118.65 97.5 118.6 97.55 118.55 97.65 118.5 97.65 118.4 97.55 118.5 97.55 118.5 97.5 118.55 97.4 118.5 97.35 118.0 97.05 117.65 96.95 116.95 96.95 116.8 96.95 116.55 97.15 Q116.25 97.35 116.25 97.65 L116.15 98.0 116.05 98.3 116.05 98.45 116.05 98.5 116.05 98.65 116.05 98.7 115.15 98.9 114.85 99.0 114.7 99.1 114.7 99.2 114.65 99.6 114.65 99.8 114.65 99.9 114.75 99.9 114.85 100.1 114.85 100.3 114.85 100.5 114.85 100.6 114.8 100.7 114.75 100.7 114.65 100.75 114.65 100.85 114.2 101.45 114.1 101.6 114.0 101.8 113.85 102.25 113.85 102.3 113.8 102.55 M121.35 97.3 L121.45 97.2 121.65 96.95 121.8 96.85 123.35 96.9 123.8 97.2 123.85 97.35 123.9 97.9 123.85 98.5 123.75 98.3 123.7 98.3 123.45 98.25 122.25 98.1 122.25 98.2 122.15 98.05 122.1 97.9 122.05 97.8 121.95 97.65 121.85 97.55 121.75 97.45 121.55 97.4 121.45 97.35 121.35 97.3 M124.2 100.4 L124.4 100.55 124.6 100.7 Q125.5 101.15 125.45 102.2 L125.2 103.2 124.85 103.65 124.0 104.35 123.9 104.45 123.8 104.7 123.65 105.5 123.6 106.2 Q123.45 106.9 122.95 107.4 122.75 107.65 122.45 107.7 L120.95 107.85 120.75 107.8 120.6 107.65 120.4 107.45 120.5 107.45 120.3 107.4 119.45 107.65 119.1 107.65 119.0 107.8 118.65 108.25 118.5 108.45 118.3 108.45 117.15 108.5 116.95 108.45 116.85 108.35 116.55 107.85 116.45 107.2 116.45 107.0 115.8 106.6 115.6 106.45 115.6 106.3 115.5 106.3 Q114.3 106.85 113.35 106.1 L113.05 105.7 113.1 105.6 113.2 104.95 113.6 104.2 113.7 104.0 113.7 104.1 113.9 104.1 113.9 104.05 114.0 104.05 114.0 104.1 114.05 104.1 114.25 104.15 114.45 104.25 114.55 104.3 114.65 104.3 114.95 104.3 115.35 104.35 115.75 104.5 115.8 104.6 115.85 104.65 115.85 104.85 115.85 104.95 115.85 105.1 115.9 105.15 115.95 105.3 116.1 105.35 116.55 105.65 117.25 105.75 117.6 105.75 118.0 105.5 118.3 105.4 118.65 105.8 118.7 105.9 118.8 105.9 118.9 105.9 119.4 106.3 120.9 106.2 121.0 106.0 121.1 105.75 121.25 105.4 121.3 105.1 121.35 104.95 122.35 104.7 123.25 104.25 123.5 103.75 123.55 103.7 123.65 103.45 123.85 102.85 123.75 102.5 123.65 102.45 123.55 102.4 123.45 102.05 123.65 101.5 123.85 101.05 123.9 100.55 123.9 100.5 124.0 100.45 124.15 100.4 124.2 100.4" fill="#158901" fill-rule="evenodd" stroke="none"/>
    <path d="M120.4 97.1 L120.95 97.15 121.35 97.3 121.45 97.35 120.5 97.35 120.5 97.3 120.45 97.15 120.4 97.1 M123.85 98.5 L123.9 98.55 124.2 99.3 124.2 99.6 124.2 100.2 124.2 100.3 124.2 100.4 124.15 100.4 124.0 100.45 123.9 100.5 123.9 100.55 123.85 101.05 123.65 101.5 123.45 102.05 123.55 102.4 123.65 102.45 123.75 102.5 123.85 102.85 123.65 103.45 123.55 103.7 123.5 103.75 123.25 104.25 122.35 104.7 121.35 104.95 121.3 105.1 121.25 105.4 121.1 105.75 121.0 106.0 120.9 106.2 119.4 106.3 118.9 105.9 118.8 105.9 118.7 105.9 118.65 105.8 118.3 105.4 118.0 105.5 117.6 105.75 117.25 105.75 116.55 105.65 116.1 105.35 115.95 105.3 115.9 105.15 115.85 105.1 115.85 104.95 115.85 104.85 115.85 104.65 115.8 104.6 115.8 104.5 115.75 104.5 115.35 104.35 114.95 104.3 114.65 104.3 114.45 104.25 114.25 104.15 114.05 104.1 114.0 104.05 113.85 103.95 113.7 103.85 113.7 103.75 113.7 103.7 113.7 103.15 113.7 103.1 113.8 102.55 113.85 102.3 113.85 102.25 114.0 101.8 114.1 101.6 114.2 101.45 114.65 100.85 114.7 100.8 114.8 100.7 114.85 100.6 114.85 100.5 114.85 100.3 114.85 100.1 114.75 99.9 114.65 99.9 114.65 99.8 114.65 99.6 114.7 99.2 114.7 99.1 114.85 99.0 115.15 98.9 116.05 98.7 116.05 98.65 116.05 98.5 116.05 98.45 116.05 98.3 116.15 98.0 116.25 97.65 Q116.25 97.35 116.55 97.15 L116.8 96.95 116.95 96.95 117.65 96.95 118.0 97.05 118.5 97.35 118.55 97.4 118.5 97.5 118.5 97.55 118.4 97.55 118.5 97.65 118.55 97.65 118.5 97.75 118.5 97.8 118.35 97.75 117.5 97.6 117.35 97.65 117.25 97.65 117.05 97.9 116.95 98.0 116.8 98.1 116.65 98.25 116.55 98.4 116.45 98.5 116.45 98.9 116.45 99.0 116.45 99.15 116.45 99.25 116.35 99.35 116.1 99.5 115.95 99.6 115.85 99.75 115.7 99.9 115.65 100.0 115.65 100.8 115.65 100.9 115.65 101.15 115.65 101.25 115.85 101.45 116.35 101.85 116.85 102.0 116.9 102.05 116.95 102.2 116.95 102.3 116.95 102.45 116.95 102.55 116.95 102.7 116.95 103.05 117.0 103.2 117.15 103.3 118.5 103.25 119.0 102.9 119.15 102.85 119.3 102.8 Q119.8 103.25 120.5 103.1 121.1 102.95 121.5 102.45 L121.7 101.8 121.75 101.7 121.75 101.55 122.4 101.15 122.8 100.65 122.9 100.5 122.9 100.4 122.95 100.4 122.95 100.3 122.95 99.8 122.95 99.75 122.9 99.4 122.85 99.3 122.8 99.15 122.65 99.05 122.55 98.9 122.35 98.75 122.25 98.65 122.25 98.55 122.25 98.35 122.25 98.3 122.25 98.2 122.25 98.1 123.45 98.25 123.7 98.3 123.75 98.3 123.85 98.5" fill="#1ba901" fill-rule="evenodd" stroke="none"/>
    <path d="M118.55 97.65 L118.6 97.55 118.65 97.5 118.9 97.25 118.95 97.25 119.2 97.1 119.5 97.0 119.5 96.95 120.15 97.0 120.35 97.05 120.4 97.1 120.45 97.15 120.5 97.3 120.5 97.35 121.45 97.35 121.55 97.4 121.75 97.45 121.85 97.55 121.95 97.65 122.05 97.8 122.1 97.9 122.15 98.05 122.25 98.2 122.25 98.3 122.25 98.35 122.25 98.55 122.25 98.65 122.35 98.75 122.55 98.9 122.65 99.05 122.8 99.15 122.85 99.3 122.9 99.4 122.95 99.75 122.95 99.8 122.95 99.85 122.9 99.9 122.9 100.0 122.95 100.3 122.95 100.4 122.9 100.4 122.9 100.5 122.8 100.65 122.4 101.15 121.75 101.55 121.75 101.7 121.7 101.8 121.5 102.45 Q121.1 102.95 120.5 103.1 119.8 103.25 119.3 102.8 L119.15 102.85 119.0 102.9 118.5 103.25 117.15 103.3 117.0 103.2 116.95 103.05 116.95 102.7 116.95 102.55 116.95 102.45 116.95 102.3 116.95 102.2 116.9 102.05 116.85 102.0 116.35 101.85 115.85 101.45 115.65 101.25 115.65 101.15 115.65 100.9 115.65 100.8 115.65 100.0 115.7 99.9 115.85 99.75 115.95 99.6 116.1 99.5 116.35 99.35 116.45 99.25 116.45 99.15 116.45 99.0 116.45 98.9 116.45 98.5 116.55 98.4 116.65 98.25 116.8 98.1 116.95 98.0 117.05 97.9 117.25 97.65 117.35 97.65 117.5 97.6 118.35 97.75 118.5 97.8 118.5 97.75 118.55 97.65" fill="#1ec001" fill-rule="evenodd" stroke="none"/>
    <path d="M122.4 107.55 L122.45 108.1 122.4 108.7 122.45 108.75 122.75 109.5 122.75 109.8 122.75 110.4 122.75 110.5 122.75 110.6 122.95 110.75 123.15 110.9 Q124.05 111.35 124.0 112.4 L123.75 113.4 123.4 113.85 122.55 114.55 122.45 114.65 122.35 114.9 122.2 115.7 122.15 116.4 121.5 117.6 121.0 117.9 119.5 118.05 119.3 118.0 119.15 117.85 118.95 117.65 119.05 117.65 118.85 117.6 118.0 117.85 117.65 117.85 117.55 118.0 117.2 118.45 117.05 118.65 116.85 118.65 115.7 118.7 115.5 118.65 115.4 118.55 115.1 118.05 115.0 117.4 115.0 117.2 114.35 116.8 114.15 116.65 114.15 116.5 114.05 116.5 Q112.85 117.05 111.9 116.3 L111.6 115.9 111.65 115.8 111.75 115.15 112.15 114.4 112.25 114.2 112.25 114.3 112.45 114.3 112.45 114.25 112.55 114.25 112.4 114.15 112.25 114.05 112.25 113.95 112.25 113.9 112.25 113.35 112.25 113.3 112.35 112.75 111.5 112.0 Q110.75 111.0 111.75 110.05 112.25 109.5 113.1 109.15 L114.6 108.9 114.4 108.6 114.3 107.9 114.3 107.25 114.4 107.15 114.55 107.05 114.7 106.9 114.8 106.8 115.05 106.7 116.05 106.75 116.25 106.75 116.35 106.9 116.45 107.0 Q116.55 106.65 116.8 106.45 L117.05 106.3 118.05 106.35 118.35 106.45 118.55 106.6 118.7 106.8 118.9 107.15 118.95 107.3 119.5 107.35 119.9 107.5 120.0 107.4 120.2 107.15 120.35 107.05 121.9 107.1 122.35 107.4 122.4 107.55 M121.5 110.0 L121.5 110.05 121.45 110.1 121.45 110.2 121.5 110.5 121.5 110.0 M113.25 111.0 L113.35 110.9 113.3 110.9 113.2 110.95 113.2 111.05 113.25 111.0 M112.55 114.25 L112.55 114.3 112.6 114.3 112.55 114.25 M113.2 114.5 L113.0 114.45 113.1 114.5 113.2 114.5 M114.3 114.7 L114.35 114.8 114.35 114.7 114.3 114.7" fill="#158901" fill-rule="evenodd" stroke="none"/>
    <path d="M122.4 107.55 L122.45 108.1 122.4 108.7 122.45 108.75 122.75 109.5 122.75 109.8 122.75 110.4 122.75 110.5 122.75 110.6 122.95 110.75 123.15 110.9 Q124.05 111.35 124.0 112.4 L123.75 113.4 123.4 113.85 122.55 114.55 122.45 114.65 122.35 114.9 122.2 115.7 122.15 116.4 121.5 117.6 121.0 117.9 119.5 118.05 119.3 118.0 119.15 117.85 118.95 117.65 119.05 117.65 118.85 117.6 118.0 117.85 117.65 117.85 117.55 118.0 117.2 118.45 117.05 118.65 116.85 118.65 115.7 118.7 115.5 118.65 115.4 118.55 115.1 118.05 115.0 117.4 115.0 117.2 114.35 116.8 114.15 116.65 114.15 116.5 114.05 116.5 Q112.85 117.05 111.9 116.3 L111.6 115.9 111.65 115.8 111.75 115.15 112.15 114.4 112.25 114.2 112.25 114.3 112.45 114.3 112.45 114.25 112.55 114.25 112.4 114.15 112.25 114.05 112.25 113.95 112.25 113.9 112.25 113.35 112.25 113.3 112.35 112.75 111.5 112.0 Q110.75 111.0 111.75 110.05 112.25 109.5 113.1 109.15 L114.6 108.9 114.4 108.6 114.3 107.9 114.3 107.25 114.4 107.15 114.55 107.05 114.7 106.9 114.8 106.8 115.05 106.7 116.05 106.75 116.25 106.75 116.35 106.9 116.45 107.0 Q116.55 106.65 116.8 106.45 L117.05 106.3 118.05 106.35 118.35 106.45 118.55 106.6 118.7 106.8 118.9 107.15 118.95 107.3 119.5 107.35 119.9 107.5 120.0 107.4 120.2 107.15 120.35 107.05 121.9 107.1 122.35 107.4 122.4 107.55 Z" fill="none" stroke="#137601" stroke-linecap="round" stroke-linejoin="round" stroke-width="1.5"/>
    <path d="M119.9 107.5 L120.0 107.4 120.2 107.15 120.35 107.05 121.9 107.1 122.35 107.4 122.4 107.55 122.45 108.1 122.4 108.7 122.3 108.5 122.25 108.5 122.0 108.45 120.8 108.3 120.8 108.4 120.7 108.25 120.65 108.1 120.6 108.0 120.5 107.85 120.4 107.75 120.3 107.65 120.1 107.6 120.0 107.55 119.9 107.5 M122.75 110.6 L122.95 110.75 123.15 110.9 Q124.05 111.35 124.0 112.4 L123.75 113.4 123.4 113.85 122.55 114.55 122.45 114.65 122.35 114.9 122.2 115.7 122.15 116.4 121.5 117.6 121.0 117.9 119.5 118.05 119.3 118.0 119.15 117.85 118.95 117.65 119.05 117.65 118.85 117.6 118.0 117.85 117.65 117.85 117.55 118.0 117.2 118.45 117.05 118.65 116.85 118.65 115.7 118.7 115.5 118.65 115.4 118.55 115.1 118.05 115.0 117.4 115.0 117.2 114.35 116.8 114.15 116.65 114.15 116.5 114.05 116.5 Q112.85 117.05 111.9 116.3 L111.6 115.9 111.65 115.8 111.75 115.15 112.15 114.4 112.25 114.2 112.25 114.3 112.45 114.3 112.45 114.25 112.55 114.25 112.55 114.3 112.6 114.3 112.8 114.35 113.0 114.45 113.1 114.5 113.2 114.5 113.5 114.5 113.9 114.55 114.3 114.7 114.35 114.8 114.4 114.85 114.4 115.05 114.4 115.15 114.4 115.3 114.45 115.35 114.5 115.5 114.65 115.55 115.1 115.85 115.8 115.95 116.15 115.95 116.55 115.7 116.85 115.6 117.2 116.0 117.25 116.1 117.35 116.1 117.45 116.1 117.95 116.5 119.45 116.4 119.55 116.2 119.65 115.95 119.8 115.6 119.85 115.3 119.9 115.15 120.9 114.9 121.8 114.45 122.05 113.95 122.1 113.9 122.2 113.65 122.4 113.05 122.3 112.7 122.2 112.65 122.1 112.6 122.0 112.25 122.2 111.7 122.4 111.25 122.45 110.75 122.45 110.7 122.55 110.65 122.7 110.6 122.75 110.6 M112.35 112.75 L111.5 112.0 Q110.75 111.0 111.75 110.05 112.25 109.5 113.1 109.15 L114.6 108.9 114.4 108.6 114.3 107.9 114.3 107.25 114.4 107.15 114.55 107.05 114.7 106.9 114.8 106.8 115.05 106.7 116.05 106.75 116.25 106.75 116.35 106.9 116.45 107.0 Q116.55 106.65 116.8 106.45 L117.05 106.3 118.05 106.35 118.35 106.45 118.55 106.6 118.7 106.8 118.9 107.15 118.95 107.3 118.9 107.25 118.7 107.2 118.05 107.15 118.05 107.2 117.75 107.3 117.5 107.45 117.45 107.45 117.2 107.7 117.15 107.75 117.1 107.85 117.05 107.85 116.95 107.75 117.05 107.75 117.05 107.7 117.1 107.6 117.05 107.55 116.55 107.25 116.2 107.15 115.5 107.15 115.35 107.15 115.1 107.35 Q114.8 107.55 114.8 107.85 L114.7 108.2 114.6 108.5 114.6 108.65 114.6 108.7 114.6 108.85 114.6 108.9 113.7 109.1 113.4 109.2 113.25 109.3 113.25 109.4 113.2 109.8 113.2 110.0 113.2 110.1 113.3 110.1 113.4 110.3 113.4 110.5 113.4 110.7 113.4 110.8 113.35 110.9 113.3 110.9 113.2 110.95 113.2 111.05 112.75 111.65 112.65 111.8 112.55 112.0 112.4 112.45 112.4 112.5 112.35 112.75" fill="#158901" fill-rule="evenodd" stroke="none"/>
    <path d="M122.4 108.7 L122.45 108.75 122.75 109.5 122.75 109.8 122.75 110.4 122.75 110.5 122.75 110.6 122.7 110.6 122.55 110.65 122.45 110.7 122.45 110.75 122.4 111.25 122.2 111.7 122.0 112.25 122.1 112.6 122.2 112.65 122.3 112.7 122.4 113.05 122.2 113.65 122.1 113.9 122.05 113.95 121.8 114.45 120.9 114.9 119.9 115.15 119.85 115.3 119.8 115.6 119.65 115.95 119.55 116.2 119.45 116.4 117.95 116.5 117.45 116.1 117.35 116.1 117.25 116.1 117.2 116.0 116.85 115.6 116.55 115.7 116.15 115.95 115.8 115.95 115.1 115.85 114.65 115.55 114.5 115.5 114.45 115.35 114.4 115.3 114.4 115.15 114.4 115.05 114.4 114.85 114.35 114.8 114.35 114.7 114.3 114.7 113.9 114.55 113.5 114.5 113.2 114.5 113.0 114.45 112.8 114.35 112.6 114.3 112.55 114.25 112.4 114.15 112.25 114.05 112.25 113.95 112.25 113.9 112.25 113.35 112.25 113.3 112.35 112.75 112.4 112.5 112.4 112.45 112.55 112.0 112.65 111.8 112.75 111.65 113.2 111.05 113.25 111.0 113.35 110.9 113.4 110.8 113.4 110.7 113.4 110.5 113.4 110.3 113.3 110.1 113.2 110.1 113.2 110.0 113.2 109.8 113.25 109.4 113.25 109.3 113.4 109.2 113.7 109.1 114.6 108.9 114.6 108.85 114.6 108.7 114.6 108.65 114.6 108.5 114.7 108.2 114.8 107.85 Q114.8 107.55 115.1 107.35 L115.35 107.15 115.5 107.15 116.2 107.15 116.55 107.25 117.05 107.55 117.1 107.6 117.05 107.7 117.05 107.75 116.95 107.75 117.05 107.85 117.1 107.85 117.05 107.95 117.05 108.0 116.9 107.95 116.05 107.8 115.9 107.85 115.8 107.85 115.6 108.1 115.5 108.2 115.35 108.3 115.2 108.45 115.1 108.6 115.0 108.7 115.0 109.1 115.0 109.2 115.0 109.35 115.0 109.45 114.9 109.55 114.65 109.7 114.5 109.8 114.4 109.95 114.25 110.1 114.2 110.2 114.2 111.0 114.2 111.1 114.2 111.35 114.2 111.45 114.4 111.65 114.9 112.05 115.4 112.2 115.45 112.25 115.5 112.4 115.5 112.5 115.5 112.65 115.5 112.75 115.5 112.9 115.5 113.25 115.55 113.4 115.7 113.5 117.05 113.45 117.55 113.1 117.7 113.05 117.85 113.0 Q118.35 113.45 119.05 113.3 119.65 113.15 120.05 112.65 L120.25 112.0 120.3 111.9 120.3 111.75 120.95 111.35 121.35 110.85 121.45 110.7 121.45 110.6 121.5 110.6 121.5 110.5 121.5 110.0 121.5 109.95 121.45 109.6 121.4 109.5 121.35 109.35 121.2 109.25 121.1 109.1 120.9 108.95 120.8 108.85 120.8 108.75 120.8 108.55 120.8 108.5 120.8 108.4 120.8 108.3 122.0 108.45 122.25 108.5 122.3 108.5 122.4 108.7 M118.95 107.3 L119.5 107.35 119.9 107.5 120.0 107.55 119.05 107.55 119.05 107.5 119.0 107.35 118.95 107.3" fill="#1ba901" fill-rule="evenodd" stroke="none"/>
    <path d="M120.0 107.55 L120.1 107.6 120.3 107.65 120.4 107.75 120.5 107.85 120.6 108.0 120.65 108.1 120.7 108.25 120.8 108.4 120.8 108.5 120.8 108.55 120.8 108.75 120.8 108.85 120.9 108.95 121.1 109.1 121.2 109.25 121.35 109.35 121.4 109.5 121.45 109.6 121.5 109.95 121.5 110.0 121.5 110.05 121.45 110.1 121.45 110.2 121.5 110.5 121.5 110.6 121.45 110.6 121.45 110.7 121.35 110.85 120.95 111.35 120.3 111.75 120.3 111.9 120.25 112.0 120.05 112.65 Q119.65 113.15 119.05 113.3 118.35 113.45 117.85 113.0 L117.7 113.05 117.55 113.1 117.05 113.45 115.7 113.5 115.55 113.4 115.5 113.25 115.5 112.9 115.5 112.75 115.5 112.65 115.5 112.5 115.5 112.4 115.45 112.25 115.4 112.2 114.9 112.05 114.4 111.65 114.2 111.45 114.2 111.35 114.2 111.1 114.2 111.0 114.2 110.2 114.25 110.1 114.4 109.95 114.5 109.8 114.65 109.7 114.9 109.55 115.0 109.45 115.0 109.35 115.0 109.2 115.0 109.1 115.0 108.7 115.1 108.6 115.2 108.45 115.35 108.3 115.5 108.2 115.6 108.1 115.8 107.85 115.9 107.85 116.05 107.8 116.9 107.95 117.05 108.0 117.05 107.95 117.1 107.85 117.15 107.75 117.2 107.7 117.45 107.45 117.5 107.45 117.75 107.3 118.05 107.2 118.05 107.15 118.7 107.2 118.9 107.25 118.95 107.3 119.0 107.35 119.05 107.5 119.05 107.55 120.0 107.55" fill="#1ec001" fill-rule="evenodd" stroke="none"/>
    <path d="M108.65 114.95 L108.7 115.05 109.0 114.65 109.15 114.5 109.95 114.55 110.15 114.65 110.3 114.75 110.4 114.9 110.6 115.15 110.6 115.3 111.05 115.3 111.35 115.45 111.4 115.35 111.55 115.15 111.65 115.1 112.85 115.15 113.2 115.35 113.25 115.45 113.25 115.9 113.25 116.35 113.25 116.4 113.5 116.95 113.5 117.15 113.5 117.65 113.5 117.8 113.65 117.9 113.8 118.0 Q114.5 118.35 114.45 119.15 L114.25 119.9 114.0 120.25 113.35 120.75 113.25 120.85 113.2 121.05 113.1 121.65 113.05 122.15 112.55 123.1 112.15 123.3 111.05 123.4 110.9 123.4 110.75 123.25 110.6 123.1 110.55 123.1 109.9 123.25 109.65 123.25 109.55 123.4 109.3 123.75 109.15 123.9 109.0 123.9 108.15 123.9 108.0 123.9 107.9 123.8 107.7 123.4 107.6 122.95 107.6 122.8 107.15 122.5 107.0 122.35 107.0 122.25 106.9 122.25 105.25 122.1 105.05 121.8 105.1 121.7 105.15 121.25 105.45 120.65 105.55 120.5 105.55 120.6 105.7 120.6 105.7 120.55 105.75 120.55 105.65 120.45 105.55 120.4 105.55 120.3 105.55 119.85 105.55 119.8 105.6 119.4 104.95 118.85 Q104.4 118.1 105.15 117.35 L106.2 116.7 107.3 116.5 107.15 116.25 107.1 115.75 107.1 115.25 107.15 115.15 107.3 115.1 107.4 114.95 107.45 114.9 107.65 114.8 108.4 114.85 108.55 114.85 108.65 114.95 M106.3 118.1 L106.35 118.0 106.25 118.05 106.25 118.1 106.3 118.1 M105.75 120.6 L105.8 120.6 105.75 120.55 105.75 120.6 M106.1 120.7 L106.2 120.75 106.25 120.75 106.1 120.7 M107.15 120.95 L107.15 120.9 107.1 120.9 107.15 120.95 M112.55 117.35 L112.5 117.4 112.5 117.5 112.55 117.7 112.55 117.3 112.55 117.35" fill="#158901" fill-rule="evenodd" stroke="none"/>
    <path d="M108.65 114.95 L108.7 115.05 109.0 114.65 109.15 114.5 109.95 114.55 110.15 114.65 110.3 114.75 110.4 114.9 110.6 115.15 110.6 115.3 111.05 115.3 111.35 115.45 111.4 115.35 111.55 115.15 111.65 115.1 112.85 115.15 113.2 115.35 113.25 115.45 113.25 115.9 113.25 116.35 113.25 116.4 113.5 116.95 113.5 117.15 113.5 117.65 113.5 117.8 113.65 117.9 113.8 118.0 Q114.5 118.35 114.45 119.15 L114.25 119.9 114.0 120.25 113.35 120.75 113.25 120.85 113.2 121.05 113.1 121.65 113.05 122.15 112.55 123.1 112.15 123.3 111.05 123.4 110.9 123.4 110.75 123.25 110.6 123.1 110.55 123.1 109.9 123.25 109.65 123.25 109.55 123.4 109.3 123.75 109.15 123.9 109.0 123.9 108.15 123.9 108.0 123.9 107.9 123.8 107.7 123.4 107.6 122.95 107.6 122.8 107.15 122.5 107.0 122.35 107.0 122.25 106.9 122.25 105.25 122.1 105.05 121.8 105.1 121.7 105.15 121.25 105.45 120.65 105.55 120.5 105.55 120.6 105.7 120.6 105.7 120.55 105.75 120.55 105.65 120.45 105.55 120.4 105.55 120.3 105.55 119.85 105.55 119.8 105.6 119.4 104.95 118.85 Q104.4 118.1 105.15 117.35 L106.2 116.7 107.3 116.5 107.15 116.25 107.1 115.75 107.1 115.25 107.15 115.15 107.3 115.1 107.4 114.95 107.45 114.9 107.65 114.8 108.4 114.85 108.55 114.85 108.65 114.95 Z" fill="none" stroke="#137601" stroke-linecap="round" stroke-linejoin="round" stroke-width="1.5"/>
    <path d="M105.6 119.4 L104.95 118.85 Q104.4 118.1 105.15 117.35 L106.2 116.7 107.3 116.5 107.15 116.25 107.1 115.75 107.1 115.25 107.15 115.15 107.3 115.1 107.4 114.95 107.45 114.9 107.65 114.8 108.4 114.85 108.55 114.85 108.65 114.95 108.7 115.05 109.0 114.65 109.15 114.5 109.95 114.55 110.15 114.65 110.3 114.75 110.4 114.9 110.6 115.15 110.6 115.25 110.4 115.2 109.95 115.15 109.95 115.2 109.7 115.3 109.5 115.4 109.3 115.6 109.25 115.6 109.2 115.7 109.15 115.7 109.15 115.6 109.2 115.5 109.15 115.45 Q109.0 115.3 108.8 115.25 L108.55 115.15 108.0 115.15 107.9 115.15 107.7 115.3 107.45 115.7 107.4 115.95 107.3 116.2 107.3 116.35 107.3 116.45 107.3 116.5 106.65 116.65 106.4 116.7 106.3 116.8 106.3 116.85 106.25 117.15 106.25 117.3 106.25 117.4 106.35 117.4 106.4 117.55 106.4 117.7 106.4 117.85 106.4 117.95 106.35 118.0 106.25 118.05 106.25 118.1 105.9 118.55 105.85 118.7 105.75 118.85 105.65 119.2 105.6 119.4 M111.35 115.45 L111.4 115.35 111.55 115.15 111.65 115.1 112.85 115.15 113.2 115.35 113.25 115.45 113.25 115.9 113.25 116.35 113.15 116.2 113.1 116.2 112.95 116.15 112.0 116.05 112.0 116.1 111.95 116.0 111.9 115.9 111.85 115.8 111.8 115.7 111.7 115.6 111.65 115.55 111.5 115.5 111.4 115.45 111.35 115.45 M113.5 117.8 L113.65 117.9 113.8 118.0 Q114.5 118.35 114.45 119.15 L114.25 119.9 114.0 120.25 113.35 120.75 113.25 120.85 113.2 121.05 113.1 121.65 113.05 122.15 112.55 123.1 112.15 123.3 111.05 123.4 110.9 123.4 110.75 123.25 110.6 123.1 110.55 123.1 109.9 123.25 109.65 123.25 109.55 123.4 109.3 123.75 109.15 123.9 109.0 123.9 108.15 123.9 108.0 123.9 107.9 123.8 107.7 123.4 107.6 122.95 107.6 122.8 107.15 122.5 107.0 122.35 107.0 122.25 106.9 122.25 105.25 122.1 105.05 121.8 105.1 121.7 105.15 121.25 105.45 120.65 105.55 120.5 105.55 120.6 105.7 120.6 105.7 120.55 105.75 120.55 105.75 120.6 105.8 120.6 105.95 120.6 106.1 120.7 106.2 120.75 106.25 120.75 106.5 120.75 106.8 120.75 107.1 120.9 107.15 120.95 107.15 121.0 107.15 121.15 107.15 121.35 107.2 121.4 107.25 121.5 107.35 121.55 107.7 121.75 108.25 121.85 108.5 121.85 108.8 121.65 109.0 121.55 109.3 121.85 109.35 121.95 109.4 121.95 109.5 121.95 109.85 122.25 111.0 122.15 111.05 122.0 111.15 121.85 111.25 121.55 111.3 121.35 111.35 121.25 112.1 121.05 112.75 120.7 112.95 120.3 113.0 120.3 113.1 120.1 113.25 119.65 113.15 119.35 113.1 119.35 113.0 119.3 112.95 119.05 Q112.95 118.8 113.1 118.6 L113.25 118.25 113.25 117.9 113.25 117.85 113.35 117.8 113.45 117.8 113.5 117.8" fill="#158901" fill-rule="evenodd" stroke="none"/>
    <path d="M110.65 115.3 L111.05 115.3 111.35 115.45 110.7 115.45 110.65 115.3 M113.25 116.35 L113.25 116.4 113.5 116.95 113.5 117.15 113.5 117.65 113.5 117.8 113.45 117.8 113.35 117.8 113.25 117.85 113.25 117.9 113.25 118.25 113.1 118.6 Q112.95 118.8 112.95 119.05 L113.0 119.3 113.1 119.35 113.15 119.35 113.25 119.65 113.1 120.1 113.0 120.3 112.95 120.3 112.75 120.7 112.1 121.05 111.35 121.25 111.3 121.35 111.25 121.55 111.15 121.85 111.05 122.0 111.0 122.15 109.85 122.25 109.5 121.95 109.4 121.95 109.35 121.95 109.3 121.85 109.0 121.55 108.8 121.65 108.5 121.85 108.25 121.85 107.7 121.75 107.35 121.55 107.25 121.5 107.2 121.4 107.15 121.35 107.15 121.15 107.15 121.0 107.15 120.95 107.15 120.9 107.1 120.9 106.8 120.75 106.5 120.75 106.25 120.75 106.1 120.7 105.95 120.6 105.8 120.6 105.75 120.55 105.65 120.45 105.55 120.4 105.55 120.3 105.55 119.85 105.55 119.8 105.6 119.4 105.65 119.2 105.75 118.85 105.85 118.7 105.9 118.55 106.25 118.1 106.3 118.1 106.35 118.0 106.4 117.95 106.4 117.85 106.4 117.7 106.4 117.55 106.35 117.4 106.25 117.4 106.25 117.3 106.25 117.15 106.3 116.85 106.3 116.8 106.4 116.7 106.65 116.65 107.3 116.5 107.3 116.45 107.3 116.35 107.3 116.2 107.4 115.95 107.45 115.7 107.7 115.3 107.9 115.15 108.0 115.15 108.55 115.15 108.8 115.25 Q109.0 115.3 109.15 115.45 L109.2 115.5 109.15 115.6 109.15 115.7 109.2 115.7 109.15 115.75 109.15 115.8 109.05 115.75 108.4 115.65 108.3 115.7 108.25 115.7 108.1 115.9 108.0 115.95 107.9 116.05 107.75 116.15 107.7 116.25 107.6 116.35 107.6 116.9 107.55 117.0 107.35 117.1 107.25 117.15 107.15 117.3 107.05 117.4 107.0 117.5 107.0 118.4 107.15 118.55 107.55 118.9 107.9 119.0 107.95 119.05 108.0 119.15 108.0 119.2 108.0 119.35 108.0 119.8 108.05 119.9 108.15 120.0 109.15 119.95 109.55 119.65 109.65 119.65 109.8 119.6 110.7 119.8 111.45 119.35 111.6 118.85 111.65 118.75 111.65 118.65 112.15 118.35 112.45 117.95 112.5 117.85 112.5 117.8 112.55 117.8 112.55 117.7 112.55 117.3 112.5 117.0 112.45 116.95 112.45 116.85 112.3 116.75 112.25 116.65 112.1 116.55 112.0 116.45 112.0 116.4 112.0 116.2 112.0 116.1 112.0 116.05 112.95 116.15 113.1 116.2 113.15 116.2 113.25 116.35" fill="#1ba901" fill-rule="evenodd" stroke="none"/>
    <path d="M110.6 115.25 L110.6 115.3 110.65 115.3 110.7 115.45 111.35 115.45 111.4 115.45 111.5 115.5 111.65 115.55 111.7 115.6 111.8 115.7 111.85 115.8 111.9 115.9 111.95 116.0 112.0 116.1 112.0 116.2 112.0 116.4 112.0 116.45 112.1 116.55 112.25 116.65 112.3 116.75 112.45 116.85 112.45 116.95 112.5 117.0 112.55 117.3 112.55 117.35 112.5 117.4 112.5 117.5 112.55 117.7 112.55 117.8 112.5 117.8 112.5 117.85 112.45 117.95 112.15 118.35 111.65 118.65 111.65 118.75 111.6 118.85 111.45 119.35 110.7 119.8 109.8 119.6 109.65 119.65 109.55 119.65 109.15 119.95 108.15 120.0 108.05 119.9 108.0 119.8 108.0 119.35 108.0 119.2 108.0 119.15 107.95 119.05 107.9 119.0 107.55 118.9 107.15 118.55 107.0 118.4 107.0 117.5 107.05 117.4 107.15 117.3 107.25 117.15 107.35 117.1 107.55 117.0 107.6 116.9 107.6 116.35 107.7 116.25 107.75 116.15 107.9 116.05 108.0 115.95 108.1 115.9 108.25 115.7 108.3 115.7 108.4 115.65 109.05 115.75 109.15 115.8 109.15 115.75 109.2 115.7 109.25 115.6 109.3 115.6 109.5 115.4 109.7 115.3 109.95 115.2 109.95 115.15 110.4 115.2 110.6 115.25" fill="#1ec001" fill-rule="evenodd" stroke="none"/>
  </g>
  <defs>
    <linearGradient gradientTransform="matrix(0.0, 0.0052, -0.0165, 1.0E-4, 94.95, 88.2)" gradientUnits="userSpaceOnUse" id="gradient0" spreadMethod="pad" x1="-819.2" x2="819.2">
      <stop offset="0.0" stop-color="#dfa800"/>
      <stop offset="1.0" stop-color="#ffc825"/>
    </linearGradient>
  </defs>
</svg>
