<?xml version="1.0" encoding="UTF-8" standalone="no"?>
<svg xmlns:xlink="http://www.w3.org/1999/xlink" height="16.95px" width="21.4px" xmlns="http://www.w3.org/2000/svg">
  <g transform="matrix(1.0, 0.0, 0.0, 1.0, 28.65, 12.85)">
    <path d="M-20.4 -9.9 Q-21.05 -9.0 -20.7 -7.95 -20.65 -6.75 -19.5 -5.95 -18.5 -5.25 -17.1 -5.3 L-16.95 -5.3 Q-16.1 -5.45 -15.35 -5.95 L-14.75 -6.65 Q-13.8 -7.85 -13.9 -9.0 -14.15 -10.25 -15.4 -11.0 -16.25 -11.75 -17.5 -11.6 L-17.8 -11.6 Q-19.3 -11.25 -20.15 -10.3 L-20.4 -9.9 M-17.3 -4.25 L-18.5 -4.25 -20.2 -5.2 Q-21.65 -6.3 -21.8 -7.85 -22.2 -9.5 -21.0 -10.9 -20.15 -12.1 -18.4 -12.45 L-18.05 -12.55 -17.65 -12.55 Q-16.1 -12.75 -14.7 -11.8 -13.25 -10.8 -12.95 -9.15 -12.8 -7.45 -13.95 -6.0 L-14.35 -5.45 Q-15.45 -4.55 -16.9 -4.4 L-17.1 -4.35 -17.3 -4.25 M-22.25 -4.55 L-22.1 -4.55 -21.7 -4.45 -21.5 -4.55 -21.45 -4.55 -21.15 -4.6 Q-20.0 -4.8 -18.95 -4.2 L-18.75 -4.1 -18.25 -3.8 Q-17.15 -3.05 -16.75 -1.95 -16.7 -3.15 -15.8 -4.1 -14.9 -5.3 -13.25 -5.65 L-13.2 -5.7 -13.15 -5.7 -12.75 -5.75 -12.4 -5.75 Q-10.75 -5.9 -9.25 -4.85 -7.8 -3.8 -7.5 -2.15 -7.35 -0.4 -8.55 1.0 -9.75 2.4 -11.6 2.65 L-11.85 2.65 -12.05 2.65 Q-13.8 2.65 -14.95 1.8 -16.1 1.0 -16.55 -0.1 L-16.5 -1.05 -16.75 -1.95 -16.5 -1.05 -16.55 -0.1 Q-16.7 1.05 -17.35 2.0 L-17.85 2.45 -17.85 2.55 Q-18.95 3.45 -20.4 3.55 L-20.65 3.55 -20.8 3.65 -21.9 3.5 Q-22.9 3.25 -23.55 2.75 -25.0 1.65 -25.25 0.0 -25.5 -1.7 -24.4 -3.05 -23.85 -3.95 -22.65 -4.25 L-22.25 -4.55 M-18.75 1.95 L-18.65 1.8 -18.3 1.35 Q-17.35 0.25 -17.5 -0.95 -17.65 -2.2 -18.9 -3.0 L-19.5 -3.35 Q-20.2 -3.8 -21.05 -3.7 L-21.35 -3.7 Q-22.8 -3.5 -23.5 -2.4 L-23.75 -2.15 Q-24.4 -1.25 -24.15 -0.1 -24.1 1.05 -23.05 1.95 -22.1 2.75 -20.65 2.65 L-20.5 2.65 -18.75 1.95 M-15.2 -3.05 Q-15.8 -2.2 -15.6 -1.15 -15.45 0.05 -14.35 1.0 -13.4 1.7 -11.9 1.75 L-11.75 1.75 -9.9 1.05 -9.85 1.0 -9.45 0.4 Q-8.4 -0.7 -8.55 -1.95 -8.8 -3.3 -9.95 -4.1 -11.0 -4.85 -12.3 -4.65 L-12.6 -4.75 Q-14.1 -4.6 -14.95 -3.5 L-15.2 -3.05" fill="#ffcc33" fill-rule="evenodd" stroke="none"/>
    <path d="M-20.4 -9.9 L-20.15 -10.3 Q-19.3 -11.25 -17.8 -11.6 L-17.5 -11.6 Q-16.25 -11.75 -15.4 -11.0 -14.15 -10.25 -13.9 -9.0 -13.8 -7.85 -14.75 -6.65 L-15.35 -5.95 -14.8 -7.4 -14.8 -8.1 Q-15.0 -9.45 -16.2 -10.1 -17.1 -10.8 -18.4 -10.7 L-18.7 -10.65 -19.25 -10.5 -20.4 -9.9 M-18.4 -12.45 Q-20.15 -12.1 -21.0 -10.9 -22.2 -9.5 -21.8 -7.85 -21.65 -6.3 -20.2 -5.2 L-18.5 -4.25 -17.3 -4.25 -18.7 -4.2 -17.3 -4.25 -17.1 -4.35 -16.9 -4.4 Q-15.45 -4.55 -14.35 -5.45 L-13.25 -5.65 Q-14.9 -5.3 -15.8 -4.1 -16.7 -3.15 -16.75 -1.95 -17.15 -3.05 -18.25 -3.8 L-18.75 -4.1 -18.7 -4.2 -18.95 -4.2 Q-20.0 -4.8 -21.15 -4.6 L-21.45 -4.55 -21.5 -4.55 -21.7 -4.45 -22.1 -4.55 -22.25 -4.55 -22.9 -4.35 -22.25 -4.55 -22.65 -4.25 Q-23.85 -3.95 -24.4 -3.05 -25.5 -1.7 -25.25 0.0 -25.0 1.65 -23.55 2.75 -22.9 3.25 -21.9 3.5 L-20.8 3.65 -24.75 3.85 Q-25.95 3.7 -26.75 3.05 -28.25 1.95 -28.35 0.4 -28.65 -1.3 -27.55 -2.65 -26.6 -4.1 -24.75 -4.15 L-22.9 -4.35 -23.45 -4.8 Q-24.95 -5.75 -25.15 -7.4 -25.3 -9.05 -24.2 -10.35 -23.2 -11.75 -21.25 -12.0 L-18.4 -12.45 M-23.75 -2.15 L-23.5 -2.4 Q-22.8 -3.5 -21.35 -3.7 L-21.05 -3.7 Q-20.2 -3.8 -19.5 -3.35 L-18.9 -3.0 Q-17.65 -2.2 -17.5 -0.95 -17.35 0.25 -18.3 1.35 L-18.65 1.8 -18.75 1.95 -18.7 1.8 -18.3 0.7 -18.3 0.0 Q-18.45 -1.4 -19.6 -2.15 L-19.95 -2.35 Q-20.8 -2.9 -21.8 -2.85 L-22.15 -2.7 -22.75 -2.65 -23.75 -2.15 M-15.2 -3.05 L-14.95 -3.5 Q-14.1 -4.6 -12.6 -4.75 L-12.3 -4.65 Q-11.0 -4.85 -9.95 -4.1 -8.8 -3.3 -8.55 -1.95 -8.4 -0.7 -9.45 0.4 L-9.85 1.0 -9.35 -0.3 -9.45 -1.05 Q-9.65 -2.45 -10.85 -3.25 -11.85 -3.95 -13.15 -3.9 L-13.45 -3.8 -14.05 -3.75 -15.2 -3.05 M-16.55 -0.1 Q-16.1 1.0 -14.95 1.8 -13.8 2.65 -12.05 2.65 L-16.2 2.85 -17.85 2.45 -17.35 2.0 Q-16.7 1.05 -16.55 -0.1" fill="#cd960d" fill-rule="evenodd" stroke="none"/>
    <path d="M-15.35 -5.95 Q-16.1 -5.45 -16.95 -5.3 L-17.1 -5.3 Q-18.5 -5.25 -19.5 -5.95 -20.65 -6.75 -20.7 -7.95 -21.05 -9.0 -20.4 -9.9 L-19.25 -10.5 -18.7 -10.65 -18.4 -10.7 Q-17.1 -10.8 -16.2 -10.1 -15.0 -9.45 -14.8 -8.1 L-14.8 -7.4 -15.35 -5.95 M-23.75 -2.15 L-22.75 -2.65 -22.15 -2.7 -21.8 -2.85 Q-20.8 -2.9 -19.95 -2.35 L-19.6 -2.15 Q-18.45 -1.4 -18.3 0.0 L-18.3 0.7 -18.7 1.8 -18.75 1.95 -20.5 2.65 -20.65 2.65 Q-22.1 2.75 -23.05 1.95 -24.1 1.05 -24.15 -0.1 -24.4 -1.25 -23.75 -2.15 M-9.85 1.0 L-9.9 1.05 -11.75 1.75 -11.9 1.75 Q-13.4 1.7 -14.35 1.0 -15.45 0.05 -15.6 -1.15 -15.8 -2.2 -15.2 -3.05 L-14.05 -3.75 -13.45 -3.8 -13.15 -3.9 Q-11.85 -3.95 -10.85 -3.25 -9.65 -2.45 -9.45 -1.05 L-9.35 -0.3 -9.85 1.0" fill="#c711e9" fill-rule="evenodd" stroke="none"/>
    <path d="M-18.4 -12.45 L-21.25 -12.0 Q-23.2 -11.75 -24.2 -10.35 -25.3 -9.05 -25.15 -7.4 -24.95 -5.75 -23.45 -4.8 L-22.9 -4.35 -22.25 -4.55 -22.1 -4.55 -21.7 -4.45 -21.5 -4.55 -21.45 -4.55 -21.15 -4.6 Q-20.0 -4.8 -18.95 -4.2 L-18.7 -4.2 -17.3 -4.25 -17.1 -4.35 -16.9 -4.4 Q-15.45 -4.55 -14.35 -5.45 L-13.95 -6.0 Q-12.8 -7.45 -12.95 -9.15 -13.25 -10.8 -14.7 -11.8 -16.1 -12.75 -17.65 -12.55 L-18.05 -12.55 -18.4 -12.45 M-20.8 3.65 L-24.75 3.85 Q-25.95 3.7 -26.75 3.05 -28.25 1.95 -28.35 0.4 -28.65 -1.3 -27.55 -2.65 -26.6 -4.1 -24.75 -4.15 L-22.9 -4.35 M-18.75 -4.1 L-18.25 -3.8 Q-17.15 -3.05 -16.75 -1.95 L-16.5 -1.05 -16.55 -0.1 Q-16.7 1.05 -17.35 2.0 L-17.85 2.45 -17.85 2.55 Q-18.95 3.45 -20.4 3.55 L-20.65 3.55 -20.8 3.65 M-13.25 -5.65 L-14.35 -5.45 M-18.75 -4.1 L-18.7 -4.2 M-18.95 -4.2 L-18.75 -4.1 M-12.05 2.65 L-11.85 2.65 -11.6 2.65 Q-9.75 2.4 -8.55 1.0 -7.35 -0.4 -7.5 -2.15 -7.8 -3.8 -9.25 -4.85 -10.75 -5.9 -12.4 -5.75 L-12.75 -5.75 -13.15 -5.7 -13.2 -5.7 -13.25 -5.65 M-12.05 2.65 L-16.2 2.85 -17.85 2.45" fill="none" stroke="#856301" stroke-linecap="round" stroke-linejoin="round" stroke-width="0.5"/>
  </g>
</svg>
