<?xml version="1.0" encoding="UTF-8" standalone="no"?>
<svg xmlns:xlink="http://www.w3.org/1999/xlink" height="18.75px" width="86.5px" xmlns="http://www.w3.org/2000/svg">
  <g transform="matrix(1.0, 0.0, 0.0, 1.0, -112.4, -0.65)">
    <path d="M191.6 1.15 Q198.4 1.15 198.4 6.15 L198.4 13.9 Q198.4 18.9 191.6 18.9 L119.75 18.9 Q112.9 18.9 112.9 13.9 L112.9 6.15 Q112.9 1.15 119.75 1.15 L191.6 1.15" fill="url(#gradient0)" fill-rule="evenodd" stroke="none"/>
    <path d="M191.6 1.15 L119.75 1.15 Q112.9 1.15 112.9 6.15 L112.9 13.9 Q112.9 18.9 119.75 18.9 L191.6 18.9 Q198.4 18.9 198.4 13.9 L198.4 6.15 Q198.4 1.15 191.6 1.15 Z" fill="none" stroke="#b43b0a" stroke-linecap="round" stroke-linejoin="round" stroke-width="1.0"/>
  </g>
  <defs>
    <linearGradient gradientTransform="matrix(1.0E-4, 0.0104, -0.0148, 1.0E-4, 159.85, 10.0)" gradientUnits="userSpaceOnUse" id="gradient0" spreadMethod="pad" x1="-819.2" x2="819.2">
      <stop offset="0.0" stop-color="#ff6523"/>
      <stop offset="1.0" stop-color="#d24814"/>
    </linearGradient>
  </defs>
</svg>
