<?xml version="1.0" encoding="UTF-8" standalone="no"?>
<svg xmlns:xlink="http://www.w3.org/1999/xlink" height="37.85px" width="68.75px" xmlns="http://www.w3.org/2000/svg">
  <g transform="matrix(1.0, 0.0, 0.0, 1.0, 34.0, 16.95)">
    <path d="M-9.9 10.8 L-1.75 5.15 4.25 10.15 0.25 14.15 -3.75 11.15 -7.75 14.4 -9.9 10.8 M7.2 6.15 L13.4 -2.25 20.7 5.85 18.75 9.65 16.75 4.65 14.05 8.9 12.0 5.9 8.5 10.9 7.2 6.15" fill="#d3f59b" fill-rule="evenodd" stroke="none"/>
    <path d="M20.7 5.85 L27.9 13.85 -23.0 19.9 -9.9 10.8 -7.75 14.4 -3.75 11.15 0.25 14.15 4.25 10.15 7.2 6.15 8.5 10.9 12.0 5.9 14.05 8.9 16.75 4.65 18.75 9.65 20.7 5.85" fill="#7faf00" fill-rule="evenodd" stroke="none"/>
    <path d="M27.9 13.85 L32.9 19.4 -23.0 19.9 27.9 13.85" fill="#5a7908" fill-rule="evenodd" stroke="none"/>
    <path d="M-33.0 17.9 Q-30.9 12.95 -28.25 8.95 -21.4 -1.35 -10.6 -5.6 -7.9 -6.65 -5.0 -7.35" fill="none" stroke="#333333" stroke-linecap="round" stroke-linejoin="round" stroke-width="2.0"/>
    <path d="M20.7 5.85 L27.9 13.85 32.9 19.4 -23.0 19.9 -9.9 10.8 -1.75 5.15 4.25 10.15 7.2 6.15 13.4 -2.25 20.7 5.85" fill="none" stroke="#2d4307" stroke-linecap="round" stroke-linejoin="round" stroke-width="2.0"/>
    <path d="M-0.05 -13.15 L-0.05 -13.45 0.0 -13.9 Q0.05 -15.35 0.85 -15.7 L2.05 -15.95 3.45 -15.8 4.55 -15.35 Q4.6 -15.3 4.8 -15.2 L4.85 -14.75 5.7 -11.6 6.15 -6.95 5.3 -3.75 5.25 -3.5 5.05 -3.35 4.55 -3.05 3.9 -2.85 3.95 -2.85 4.55 -3.05 3.95 -2.85 3.9 -2.85 3.85 -2.85 3.9 -2.8 3.95 -2.75 3.65 -2.8 3.6 -2.8 1.4 -2.85 0.65 -3.45 Q0.2 -4.35 0.25 -5.9 L0.2 -6.95 0.25 -7.65 0.25 -8.0 0.05 -10.4 0.05 -10.85 0.0 -11.0 -0.15 -12.4 -0.05 -11.7 0.05 -11.05 -0.05 -13.15 M0.0 -11.0 L-0.05 -11.7 0.0 -11.0 M3.35 -14.15 Q2.05 -15.55 1.55 -13.8 L1.5 -12.7 Q1.65 -11.4 2.6 -11.15 3.3 -10.95 3.9 -11.35 L4.4 -12.05 Q4.6 -12.7 3.35 -14.15 M3.65 -2.8 L3.9 -2.8 3.65 -2.8" fill="#ffcc33" fill-rule="evenodd" stroke="none"/>
    <path d="M3.35 -14.15 Q4.6 -12.7 4.4 -12.05 L3.9 -11.35 Q3.3 -10.95 2.6 -11.15 1.65 -11.4 1.5 -12.7 L1.55 -13.8 Q2.05 -15.55 3.35 -14.15" fill="#ffff99" fill-rule="evenodd" stroke="none"/>
    <path d="M5.7 -11.6 L8.55 -10.85 Q9.1 -11.05 11.25 -12.35 13.8 -14.0 15.2 -14.05 20.75 -14.25 21.85 -12.35 L33.75 -11.7 30.5 -10.7 22.25 -8.25 Q22.0 -8.55 21.6 -8.0 L21.25 -7.4 21.05 -7.15 21.0 -7.05 20.9 -7.0 19.6 -6.1 19.35 -6.0 19.05 -5.85 15.65 -5.35 15.55 -5.3 Q14.2 -5.3 11.6 -6.65 10.2 -7.45 8.7 -8.05 L6.15 -6.95 5.7 -11.6 M10.7 -9.55 Q10.8 -8.95 11.55 -8.75 20.45 -10.05 20.6 -10.55 21.2 -12.9 16.25 -12.55 11.2 -12.15 10.7 -10.25 L10.7 -9.55" fill="#999999" fill-rule="evenodd" stroke="none"/>
    <path d="M10.7 -9.55 L10.7 -10.25 Q11.2 -12.15 16.25 -12.55 21.2 -12.9 20.6 -10.55 20.45 -10.05 11.55 -8.75 10.8 -8.95 10.7 -9.55" fill="#ffffff" fill-rule="evenodd" stroke="none"/>
    <path d="M-0.05 -13.15 L-0.05 -13.45 0.0 -13.9 Q0.05 -15.35 0.85 -15.7 L2.05 -15.95 3.45 -15.8 4.55 -15.35 Q4.6 -15.3 4.8 -15.2 L4.85 -14.75 5.7 -11.6 M6.15 -6.95 L5.3 -3.75 5.25 -3.5 5.05 -3.35 4.55 -3.05 3.95 -2.85 3.9 -2.85 3.9 -2.8 3.65 -2.8 3.6 -2.8 1.4 -2.85 0.65 -3.45 Q0.2 -4.35 0.25 -5.9 L0.2 -6.95 0.25 -7.65 M0.25 -8.0 L0.05 -10.4 0.05 -10.85 0.0 -11.0 M-0.05 -11.7 L-0.05 -12.4 -0.05 -13.15 M-0.05 -11.7 L0.0 -11.0" fill="none" stroke="#856301" stroke-linecap="round" stroke-linejoin="round" stroke-width="2.0"/>
    <path d="M5.7 -11.6 L8.55 -10.85 Q9.1 -11.05 11.25 -12.35 13.8 -14.0 15.2 -14.05 20.75 -14.25 21.85 -12.35 L33.75 -11.7 30.5 -10.7 22.25 -8.25 22.15 -8.15 21.6 -7.7 21.55 -7.6 21.05 -7.15 21.0 -7.05 20.9 -7.0 19.6 -6.1 19.35 -6.0 19.05 -5.85 15.65 -5.35 15.55 -5.3 Q14.2 -5.3 11.6 -6.65 10.2 -7.45 8.7 -8.05 L6.15 -6.95 M21.25 -7.4 L21.55 -7.6 M21.05 -7.15 L21.25 -7.4" fill="none" stroke="#333333" stroke-linecap="round" stroke-linejoin="round" stroke-width="2.0"/>
  </g>
</svg>
