<?xml version="1.0" encoding="UTF-8" standalone="no"?>
<svg xmlns:xlink="http://www.w3.org/1999/xlink" height="262.65px" width="437.1px" xmlns="http://www.w3.org/2000/svg">
  <g transform="matrix(1.0, 0.0, 0.0, 1.0, -12.65, -19.35)">
    <path d="M421.05 34.8 L425.05 34.4 437.8 34.0 437.8 35.55 Q439.75 35.6 440.05 35.95 L442.65 35.95 442.65 44.1 441.55 44.05 Q441.7 45.8 441.3 50.15 441.25 53.65 442.65 55.8 L442.75 61.25 442.65 99.6 Q441.95 102.65 441.95 104.7 L442.65 109.75 441.55 109.75 441.55 137.1 441.95 137.1 442.15 144.3 442.65 148.1 442.65 160.6 Q441.9 163.65 441.2 171.0 440.3 178.95 440.3 183.25 440.3 185.35 441.45 190.55 442.55 195.65 442.65 197.9 L442.65 218.1 442.3 222.0 440.85 232.9 440.85 241.9 442.65 241.95 442.65 252.35 Q441.7 255.6 440.85 262.25 439.6 270.6 439.6 275.25 L439.7 276.95 372.45 276.95 372.45 275.95 354.5 276.95 321.35 276.95 321.35 275.95 314.75 275.85 314.7 276.75 313.0 276.75 313.05 276.95 277.4 276.95 276.35 276.3 276.35 272.05 275.75 272.05 275.75 270.6 269.2 270.45 268.75 270.85 Q268.2 271.1 268.05 271.45 L268.05 273.9 267.4 273.9 267.0 274.6 266.2 275.45 266.2 275.95 Q257.4 275.85 256.4 276.0 256.55 276.5 254.15 276.75 L254.15 276.95 195.65 276.95 195.3 276.85 194.75 276.45 189.9 276.05 189.9 273.3 183.35 273.3 183.35 275.15 179.7 275.15 177.1 276.95 21.25 276.95 20.65 276.3 20.65 273.65 Q18.85 271.5 18.1 268.65 L18.1 250.85 18.85 250.85 18.85 219.45 Q18.4 218.2 18.1 216.2 L18.1 200.9 Q18.45 195.3 18.85 192.05 L18.85 178.1 19.45 178.1 19.45 167.35 Q18.85 166.1 18.85 163.8 L18.1 163.8 18.1 162.0 20.05 162.0 20.05 157.6 Q19.45 156.2 19.1 153.45 L18.85 150.4 18.95 147.45 19.45 143.65 19.45 114.6 18.1 114.6 18.1 113.0 19.45 113.1 19.45 95.3 18.1 88.5 18.1 77.4 18.85 77.4 Q18.85 76.05 19.45 74.8 L19.45 60.95 Q19.5 58.8 20.05 57.75 L20.05 44.05 Q19.65 41.45 19.5 36.7 20.85 34.8 22.35 33.35 L27.15 33.35 27.15 34.35 44.6 34.4 51.8 33.8 55.45 33.35 59.75 33.35 59.75 34.35 Q64.15 34.15 69.95 34.35 L86.65 34.45 98.05 34.85 110.65 35.1 117.5 34.15 125.05 33.35 261.9 33.35 261.9 34.7 275.15 34.8 276.95 34.45 304.5 34.4 304.5 33.35 332.15 33.35 332.15 34.7 344.15 34.8 349.85 34.45 355.0 34.05 387.35 34.0 390.8 33.6 394.45 33.4 414.95 33.55 414.95 34.7 421.05 34.8" fill="#000000" fill-opacity="0.3019608" fill-rule="evenodd" stroke="none"/>
    <path d="M416.85 30.2 L422.85 30.4 426.9 30.0 439.65 29.55 439.65 31.15 441.95 31.4 444.55 31.4 444.55 39.85 443.4 39.75 Q443.6 41.6 443.2 45.8 443.1 49.4 444.55 51.55 L444.65 56.9 444.55 95.5 Q443.9 98.65 443.9 100.65 L444.55 105.9 443.4 105.9 443.4 133.25 443.9 133.25 444.0 140.45 Q444.15 142.7 444.55 144.4 L444.55 156.8 Q443.85 159.8 443.0 167.45 442.2 175.35 442.2 179.55 442.2 181.8 443.35 187.1 444.5 192.0 444.55 194.35 L444.55 214.65 444.15 218.65 442.75 229.6 442.75 238.55 444.55 238.6 444.55 249.0 Q443.55 252.3 442.75 259.05 441.45 267.4 441.45 272.0 441.45 273.05 441.6 273.9 L374.4 273.9 374.4 272.95 356.35 273.9 323.2 273.9 323.2 272.95 316.6 272.65 316.55 273.65 314.8 273.65 314.9 273.9 279.25 273.9 278.15 273.15 278.15 268.9 277.6 268.9 277.6 267.4 271.05 267.25 270.55 267.7 Q270.05 268.0 269.8 268.25 L269.8 270.75 269.25 270.75 268.85 271.6 268.05 272.35 268.05 272.95 Q259.25 272.65 258.25 273.0 258.35 273.4 256.0 273.65 L256.0 273.9 197.4 273.9 197.15 273.75 196.6 273.3 191.7 273.05 191.7 270.05 185.2 270.05 185.2 271.95 181.6 271.95 178.9 273.9 23.05 273.9 22.45 273.15 22.45 270.5 Q20.65 268.35 19.85 265.5 L19.85 247.65 20.65 247.65 20.65 216.1 19.85 212.85 19.85 197.25 20.65 188.45 20.65 174.4 21.25 174.4 21.25 163.6 Q20.65 162.5 20.65 160.1 L19.85 160.1 19.85 158.3 21.8 158.3 21.8 153.85 Q21.25 152.5 20.8 149.7 L20.65 146.45 20.75 143.55 21.25 139.8 21.25 110.7 19.85 110.7 19.85 109.05 21.25 109.1 21.25 91.1 19.85 84.45 19.85 73.35 20.65 73.35 Q20.65 71.85 21.25 70.75 L21.25 56.55 Q21.3 54.5 21.8 53.5 L21.8 39.75 Q21.35 37.1 21.3 32.4 22.65 30.4 24.15 28.95 L29.0 28.95 29.0 29.9 46.5 30.0 53.65 29.45 57.3 28.95 61.55 28.95 61.55 29.9 71.7 29.9 88.5 30.05 99.85 30.5 112.5 30.65 119.3 29.8 126.85 28.95 263.7 28.95 263.7 30.2 276.95 30.4 278.8 30.05 306.4 30.0 306.4 28.95 333.9 28.95 333.9 30.2 345.95 30.4 351.7 30.05 356.8 29.75 389.25 29.55 392.65 29.3 396.3 29.1 416.85 29.25 416.85 30.2" fill="#ce9d46" fill-rule="evenodd" stroke="none"/>
    <path d="M449.3 49.3 L447.7 50.9 Q446.35 51.6 443.55 51.6 L439.15 50.95 439.05 50.35 Q442.05 50.1 445.3 49.05 L448.9 48.25 449.3 49.3 M420.0 24.6 Q420.35 24.75 420.35 25.85 420.35 26.95 419.35 29.3 L417.8 32.6 417.15 32.85 Q416.7 32.05 416.6 31.35 L416.5 29.55 Q416.5 28.3 417.4 26.6 418.2 25.0 419.15 24.2 L420.0 24.6 M441.25 90.1 Q441.0 90.95 441.0 89.3 441.0 85.5 449.75 90.55 L449.6 91.5 Q449.15 92.0 448.3 92.0 L445.05 91.15 441.25 90.1 M440.65 55.9 Q441.9 55.35 444.5 55.05 446.85 54.8 448.35 55.05 L448.7 56.0 448.3 56.85 447.05 57.0 443.45 56.65 440.65 55.9 M353.25 23.85 L353.85 23.85 354.95 26.55 355.75 29.25 Q355.75 30.75 355.6 30.0 L354.95 30.7 Q354.3 30.15 353.75 28.5 353.1 26.65 353.1 25.35 353.1 24.35 353.25 24.0 L353.25 23.85 M333.05 23.45 L333.75 23.4 Q335.8 25.4 336.6 31.45 L336.6 31.55 334.2 31.55 333.35 29.05 Q332.45 25.5 332.45 24.85 332.45 23.75 333.05 23.45 M331.85 33.1 Q331.35 33.1 330.85 31.55 L333.15 31.55 333.0 32.8 Q332.75 33.1 331.85 33.1 M446.85 136.9 L447.1 138.0 447.05 139.05 446.75 139.4 441.4 139.4 Q438.45 138.95 438.25 138.35 439.3 137.45 440.65 137.05 L446.0 136.75 446.85 136.9 M447.65 129.4 Q447.15 130.3 446.55 130.45 L437.85 130.45 Q437.65 130.4 437.65 129.35 437.65 128.25 437.8 128.2 L437.9 128.25 444.25 128.15 445.45 128.2 447.35 128.35 447.65 129.4 M445.6 230.9 L442.8 229.1 440.55 227.35 Q441.7 225.25 443.9 226.4 445.45 227.2 446.75 229.1 446.6 230.45 445.6 230.9 M421.9 270.9 L421.9 279.05 420.75 280.2 Q419.45 279.4 419.15 278.05 L419.05 276.0 Q418.9 273.85 419.15 271.85 419.5 267.7 421.05 266.9 421.55 267.85 421.9 270.9 M356.2 269.3 L356.75 269.25 358.2 269.25 Q358.25 270.9 358.8 273.85 L359.8 278.8 359.5 279.6 Q359.15 280.15 358.25 280.15 L357.1 280.05 357.1 279.8 356.2 274.5 355.85 270.45 Q355.85 269.3 356.2 269.3 M328.7 267.1 Q329.35 268.15 329.35 270.85 L329.15 275.3 Q328.65 277.8 327.3 279.1 L326.7 278.8 Q326.45 278.5 326.45 277.45 326.45 275.3 327.3 271.2 328.3 267.3 328.7 267.1 M284.45 31.0 Q283.2 30.15 282.8 27.9 L281.9 24.0 282.3 23.55 Q282.8 23.85 284.05 26.55 285.15 29.25 285.15 30.15 L285.0 31.05 284.45 31.0 M223.85 23.0 Q224.2 23.25 224.2 24.45 224.2 26.4 220.55 34.5 L219.55 34.5 Q219.3 33.95 219.3 32.45 219.3 31.4 220.9 27.1 222.55 23.0 223.15 22.5 L223.85 23.0 M217.15 34.5 L217.1 34.55 216.15 34.55 216.15 34.5 217.15 34.5 M168.4 25.15 Q168.4 22.5 169.75 21.9 L172.15 32.6 Q171.85 33.7 171.1 33.95 170.75 33.75 169.6 29.85 168.4 26.05 168.4 25.15 M181.65 25.0 Q183.05 26.2 183.5 28.5 L184.3 32.25 183.35 33.2 Q182.2 31.95 181.4 29.7 180.75 27.65 180.75 26.15 180.75 25.1 181.2 25.0 L181.65 25.0 M115.5 21.55 Q116.8 22.85 116.75 26.4 116.65 30.2 117.05 31.2 L116.55 31.55 115.3 31.55 Q114.4 26.5 114.4 23.2 L114.4 21.9 114.6 21.55 115.5 21.55 M96.15 24.35 L96.2 25.7 Q96.2 27.3 95.65 30.7 L94.5 31.0 94.3 30.5 94.25 29.25 94.65 26.5 95.05 23.65 95.95 23.65 96.15 24.35 M112.1 31.85 L111.9 31.55 113.2 31.55 112.1 31.85 M55.8 32.2 Q55.55 31.8 55.55 30.55 55.55 21.3 57.5 19.35 58.15 20.2 58.4 22.25 L58.7 24.75 Q58.7 28.65 58.15 32.3 L57.75 32.65 56.95 33.15 Q55.95 32.55 55.8 32.2 M23.65 40.95 L24.15 42.05 23.3 42.9 Q22.65 43.35 21.75 43.35 L18.1 43.1 Q15.45 42.7 15.15 42.35 18.4 39.05 23.65 40.95 M15.2 82.5 L22.2 81.95 22.35 81.85 Q22.55 82.05 22.55 83.1 22.55 84.05 19.65 85.0 L13.95 85.7 13.0 85.55 13.0 85.45 Q12.65 86.2 12.65 84.6 12.65 83.45 15.2 82.5 M12.65 121.0 Q12.65 120.35 17.35 117.9 22.05 115.4 23.5 115.55 L23.7 115.85 23.75 116.85 Q23.75 119.5 13.95 122.15 L13.0 121.95 13.0 121.8 Q12.65 122.6 12.65 121.0 M104.45 268.55 Q106.75 269.75 107.8 275.15 L108.25 278.4 108.3 280.2 108.25 281.35 108.1 281.6 107.35 282.0 Q105.95 280.05 105.25 275.95 104.75 271.2 104.25 269.15 L104.45 268.55 M21.5 218.95 L19.1 219.45 17.9 219.4 Q17.6 219.25 17.6 218.15 17.6 216.8 19.8 216.3 22.05 215.7 23.55 216.25 L23.9 217.2 23.55 218.6 21.5 218.95 M19.25 225.45 Q20.1 225.45 23.25 227.35 L23.55 228.35 Q22.95 229.65 22.05 229.95 L17.4 229.95 Q15.8 229.75 15.3 229.2 18.1 225.5 19.25 225.45 M27.05 264.6 L27.25 264.5 27.3 265.05 27.3 265.75 Q27.3 265.95 20.95 269.6 L15.75 272.6 14.5 271.8 Q15.0 271.05 16.85 269.6 L19.85 267.4 Q22.4 265.75 24.15 265.05 26.0 264.3 27.05 264.6 M70.1 267.4 Q70.3 267.75 70.3 268.9 70.3 270.9 69.25 274.65 L67.75 280.4 Q67.45 280.8 66.9 280.8 L65.9 280.65 65.8 279.15 Q65.8 277.9 66.95 273.05 68.4 267.7 69.25 266.9 L70.1 267.4 M310.05 268.55 Q311.3 269.75 311.9 273.15 312.6 277.15 313.4 278.6 L313.0 279.35 Q312.6 279.9 311.75 279.9 310.65 279.9 308.95 270.65 L309.15 269.15 Q309.35 268.8 310.05 268.55 M301.9 280.8 Q301.45 281.55 300.85 281.75 L300.0 281.3 Q299.8 281.0 299.8 279.9 L299.6 272.6 Q299.65 268.15 301.0 267.1 301.45 269.75 301.55 273.95 L301.9 280.8 M229.2 268.55 Q230.55 269.75 231.05 273.15 231.8 277.15 232.5 278.6 L232.15 279.35 Q231.8 279.9 230.9 279.9 229.75 279.9 228.0 270.65 228.0 269.5 228.35 269.15 228.45 268.8 229.2 268.55 M220.95 280.8 Q220.55 281.55 219.95 281.75 L219.1 281.3 Q218.9 281.0 218.9 279.9 L218.7 272.6 Q218.8 268.15 220.15 267.1 220.55 269.75 220.75 273.95 L220.95 280.8" fill="#a88335" fill-rule="evenodd" stroke="none"/>
  </g>
</svg>
