<?xml version="1.0" encoding="UTF-8" standalone="no"?>
<svg xmlns:xlink="http://www.w3.org/1999/xlink" height="243.9px" width="250.7px" xmlns="http://www.w3.org/2000/svg">
  <g transform="matrix(1.0, 0.0, 0.0, 1.0, 125.35, 121.95)">
    <path d="M86.9 -24.95 Q88.45 -2.55 82.45 22.2 77.3 42.95 68.1 60.95 59.9 77.0 52.85 82.9 46.7 88.0 26.95 91.3 L-13.55 92.6 -55.05 91.3 Q-74.85 88.0 -81.0 82.9 -88.05 77.0 -96.25 60.95 -105.45 42.95 -110.55 22.2 -116.6 -2.55 -115.05 -24.95 -113.25 -51.3 -100.9 -71.8 -88.25 -92.75 -63.1 -103.15 -42.05 -111.95 -14.05 -111.95 13.7 -111.95 34.95 -103.15 60.15 -92.75 72.75 -71.8 85.1 -51.3 86.9 -24.95" fill="#6b180a" fill-rule="evenodd" stroke="none"/>
    <path d="M86.9 -24.95 Q88.45 -2.55 82.45 22.2 77.3 42.95 68.1 60.95 59.9 77.0 52.85 82.9 46.7 88.0 26.95 91.3 L-13.55 92.6 -55.05 91.3 Q-74.85 88.0 -81.0 82.9 -88.05 77.0 -96.25 60.95 -105.45 42.95 -110.55 22.2 -116.6 -2.55 -115.05 -24.95 -113.25 -51.3 -100.9 -71.8 -88.25 -92.75 -63.1 -103.15 -42.05 -111.95 -14.05 -111.95 13.7 -111.95 34.95 -103.15 60.15 -92.75 72.75 -71.8 85.1 -51.3 86.9 -24.95 Z" fill="none" stroke="#6b180a" stroke-linecap="round" stroke-linejoin="round" stroke-width="20.0"/>
    <path d="M112.1 43.3 Q116.2 46.7 115.1 57.3 113.85 69.3 106.6 83.6 99.4 97.8 90.35 105.9 82.45 113.0 77.3 111.75 L73.85 110.2 Q60.15 103.25 55.6 88.2 51.05 73.2 58.3 58.9 65.5 44.7 80.35 39.6 95.1 34.45 108.8 41.4 L112.1 43.3" fill="#666666" fill-rule="evenodd" stroke="none"/>
    <path d="M112.1 43.3 L108.8 41.4 Q95.1 34.45 80.35 39.6 65.5 44.7 58.3 58.9 51.05 73.2 55.6 88.2 60.15 103.25 73.85 110.2 L77.3 111.75 Q82.45 113.0 90.35 105.9 99.4 97.8 106.6 83.6 113.85 69.3 115.1 57.3 116.2 46.7 112.1 43.3 Z" fill="none" stroke="#333333" stroke-linecap="round" stroke-linejoin="round" stroke-width="20.0"/>
    <path d="M112.1 43.3 Q116.2 46.7 115.1 57.3 113.85 69.3 106.6 83.6 99.4 97.8 90.35 105.9 82.45 113.0 77.3 111.75 L73.85 110.2 Q60.15 103.25 55.6 88.2 51.05 73.2 58.3 58.9 65.5 44.7 80.35 39.6 95.1 34.45 108.8 41.4 L112.1 43.3" fill="#666666" fill-rule="evenodd" stroke="none"/>
  </g>
</svg>
