<?xml version="1.0" encoding="UTF-8" standalone="no"?>
<svg xmlns:xlink="http://www.w3.org/1999/xlink" height="51.75px" width="23.4px" xmlns="http://www.w3.org/2000/svg">
  <g transform="matrix(1.0, 0.0, 0.0, 1.0, 11.7, 25.85)">
    <path d="M8.25 -20.85 L7.35 -18.95 Q6.35 -17.25 5.65 -16.95 L5.8 -16.55 5.55 -16.1 5.25 -16.0 3.25 -16.3 1.55 -16.65 4.0 -16.0 Q5.5 -15.55 5.5 -15.15 5.5 -14.45 4.3 -14.45 L1.4 -14.55 0.75 -14.7 3.6 -14.05 Q4.35 -13.95 4.35 -13.55 4.35 -13.15 4.05 -13.05 L2.75 -12.95 -0.8 -13.25 -2.25 -13.7 -1.25 -12.95 Q-0.65 -12.55 -0.65 -12.2 -0.65 -11.65 -1.5 -11.65 L-3.7 -12.05 -4.0 -12.15 -2.3 -11.3 Q-0.65 -10.5 -0.5 -9.95 L-0.5 -9.8 Q-0.55 -9.7 -0.7 -9.7 -1.9 -9.7 -3.1 -10.25 L-3.7 -10.2 Q-4.9 -10.2 -5.95 -10.7 L-4.5 -9.25 Q-3.7 -8.5 -3.7 -7.9 -3.7 -7.2 -4.4 -7.25 L-3.6 -6.5 -3.45 -6.05 -3.85 -5.25 -2.0 -4.55 Q-1.5 -4.25 -1.5 -3.85 -1.5 -3.45 -1.65 -3.35 L-3.2 -3.1 Q-5.2 -3.1 -6.85 -3.9 L-9.45 -5.45 Q-9.15 -4.05 -5.45 -3.3 -1.85 -2.55 -1.85 -2.05 -1.85 -1.45 -2.45 -1.35 -2.0 -1.1 -2.0 -0.6 L1.45 -0.7 3.75 -1.1 5.2 -1.75 6.85 -2.2 7.3 -2.15 Q8.65 -3.0 8.65 -1.5 L8.3 -0.45 8.8 -0.7 9.45 -1.0 10.25 -0.3 10.75 0.5 10.1 2.55 9.2 4.75 9.95 3.85 Q10.15 3.45 10.75 3.45 11.2 3.45 11.7 5.45 11.7 6.7 9.5 9.2 7.8 11.1 6.35 11.85 L8.0 11.25 9.05 10.45 Q9.45 9.95 9.8 9.95 10.45 9.95 10.3 10.7 10.3 11.4 9.7 11.8 L7.65 13.2 Q5.5 14.8 2.25 15.5 L4.8 14.8 Q7.1 14.05 7.9 14.05 8.9 14.05 8.95 14.7 8.95 16.15 4.5 17.3 0.8 18.25 -1.2 18.2 L-3.7 18.25 -3.1 18.45 -2.35 18.75 1.5 18.75 6.8 17.8 8.2 17.8 8.6 18.2 Q8.6 18.5 8.0 18.85 L6.8 19.7 9.2 19.45 Q10.3 19.45 10.25 20.15 10.25 21.2 8.05 22.15 5.75 23.15 2.55 23.25 L0.05 23.3 1.2 23.55 3.55 23.75 6.95 23.1 Q8.7 22.4 9.3 22.4 10.15 22.4 10.15 23.25 10.15 23.75 8.8 24.85 7.4 25.95 6.55 25.9 L3.95 25.9 Q-10.05 24.5 -10.05 22.2 L-10.0 21.9 Q-9.95 21.75 -9.7 21.75 -9.5 21.75 -8.55 22.3 L-7.2 23.0 -3.25 23.65 -6.35 22.75 Q-9.1 21.9 -9.1 21.35 L-8.75 20.8 Q-8.2 20.4 -7.35 20.4 L-4.6 21.15 -0.2 21.9 4.3 21.15 4.55 21.05 2.75 21.3 -0.75 21.5 -5.05 20.9 Q-6.1 20.45 -6.1 19.95 -6.1 19.2 -5.55 19.2 L-1.35 20.15 1.3 20.15 6.25 18.85 6.55 18.75 1.05 19.8 -2.05 19.8 Q-6.95 18.35 -6.95 17.55 -6.95 17.0 -6.45 17.05 L-5.55 17.2 -3.1 17.15 Q-4.4 17.0 -5.1 16.55 -5.7 16.1 -5.7 15.6 -5.7 14.7 -3.6 15.05 L-0.3 15.05 2.45 14.45 5.65 13.25 3.1 13.8 Q1.8 13.8 1.95 13.05 1.95 12.85 5.1 11.05 L8.7 8.8 8.7 8.75 Q6.1 10.55 5.25 10.55 4.85 10.55 4.75 10.3 L4.7 10.0 Q4.7 9.65 7.0 7.95 L7.7 7.45 7.65 7.45 Q6.0 8.55 5.3 8.55 4.85 8.55 4.75 8.3 L4.7 8.0 6.45 6.7 Q8.35 5.0 9.1 2.55 6.25 5.4 5.3 5.4 4.75 5.4 4.75 4.95 4.75 4.5 5.9 3.65 6.55 3.2 7.65 2.5 9.15 1.3 9.3 0.05 L6.65 2.45 4.3 4.15 Q3.8 4.15 3.8 3.7 L5.3 1.8 7.4 -0.75 7.45 -0.85 6.55 -0.25 5.9 0.15 4.8 0.8 Q2.75 1.9 2.05 1.9 1.3 1.9 1.3 1.45 1.3 1.3 3.0 0.5 L5.25 -0.6 5.65 -0.85 2.95 0.15 Q-0.4 1.25 -2.1 1.25 -4.45 1.25 -8.05 -0.45 -11.7 -2.15 -11.7 -3.4 -11.7 -4.0 -11.25 -4.0 -8.1 -2.3 -6.4 -1.95 L-3.85 -1.95 -3.7 -2.0 Q-7.25 -2.7 -8.75 -3.5 -10.45 -4.35 -10.45 -5.6 -10.45 -6.3 -9.95 -6.45 L-9.2 -6.45 -7.1 -5.15 Q-5.2 -4.05 -4.3 -4.05 L-3.1 -4.1 Q-5.35 -4.4 -7.65 -5.9 -9.95 -7.35 -9.95 -8.5 L-9.85 -8.75 -9.45 -8.95 -7.55 -7.85 -5.35 -6.5 -5.1 -6.5 Q-10.3 -9.8 -10.3 -10.95 -10.3 -11.55 -9.8 -11.55 L-7.75 -10.2 Q-5.85 -8.7 -5.15 -8.45 L-6.7 -10.15 Q-7.85 -11.65 -7.85 -12.05 -7.85 -13.0 -6.25 -12.5 -7.6 -13.85 -7.6 -14.95 L-7.4 -15.35 -7.0 -15.5 Q-6.5 -15.5 -5.35 -14.55 L-3.85 -13.4 -5.5 -15.05 Q-6.85 -16.45 -6.85 -16.7 -6.85 -17.25 -6.4 -17.25 L-5.75 -17.0 -7.0 -18.7 -6.8 -19.1 -6.35 -19.25 -5.0 -18.45 -5.5 -18.85 -7.7 -20.65 -8.95 -21.8 -8.2 -22.35 -8.35 -23.05 Q-8.35 -24.05 -7.4 -24.85 -6.15 -25.85 -3.85 -25.85 L0.1 -25.2 4.5 -24.45 Q6.15 -24.0 7.25 -22.8 8.25 -21.75 8.25 -20.85 M7.1 -21.1 Q7.15 -21.5 6.3 -22.2 5.4 -23.0 4.4 -23.3 L4.45 -23.25 5.65 -22.1 Q6.3 -21.4 7.1 -21.1 M1.05 -21.85 L0.85 -21.75 1.7 -21.15 Q2.35 -20.85 2.55 -20.85 L3.45 -20.9 Q1.5 -22.05 1.05 -21.85 M0.45 -18.5 L1.3 -18.35 1.6 -18.35 0.45 -18.5 M9.65 5.95 L9.2 6.35 9.6 6.05 9.65 5.95 M0.45 17.0 L0.2 17.0 0.0 17.05 0.45 17.0 4.2 16.35 7.45 15.2 0.45 17.0 M1.8 15.65 L-0.55 16.0 -3.6 15.95 -3.8 15.9 -4.1 15.95 -1.65 16.15 0.6 15.95 1.8 15.65 M8.3 20.65 L8.0 21.1 7.95 21.15 9.1 20.5 8.3 20.65 M7.45 24.05 L6.85 24.3 7.55 24.05 7.45 24.05 M-1.1 -23.35 L-3.55 -23.5 Q-4.55 -23.5 -4.55 -23.15 -4.55 -22.75 -3.8 -22.05 -2.95 -21.2 -2.2 -21.15 L-2.45 -22.2 Q-2.45 -22.6 -1.1 -23.35 M-0.85 -21.9 L-0.95 -21.6 -0.65 -21.45 -0.55 -21.65 -0.6 -21.9 -0.85 -21.9 M-0.3 -21.25 L-0.45 -21.2 -0.3 -21.1 -0.1 -21.05 -0.3 -21.25 M-6.25 -23.85 L-7.05 -23.25 -7.05 -23.05 -5.9 -22.75 -5.95 -23.55 Q-5.9 -24.05 -5.45 -24.25 L-6.25 -23.85" fill="url(#gradient0)" fill-rule="evenodd" stroke="none"/>
  </g>
  <defs>
    <linearGradient gradientTransform="matrix(0.0, -0.009, 0.0345, 0.0, -0.5, -16.35)" gradientUnits="userSpaceOnUse" id="gradient0" spreadMethod="pad" x1="-819.2" x2="819.2">
      <stop offset="0.0" stop-color="#c17731"/>
      <stop offset="1.0" stop-color="#c17731" stop-opacity="0.0"/>
    </linearGradient>
  </defs>
</svg>
