<?xml version="1.0" encoding="UTF-8" standalone="no"?>
<svg xmlns:xlink="http://www.w3.org/1999/xlink" height="15.55px" width="6.3px" xmlns="http://www.w3.org/2000/svg">
  <g transform="matrix(1.0, 0.0, 0.0, 1.0, 0.0, 0.0)">
    <path d="M6.3 3.15 Q6.3 4.45 5.35 5.35 4.45 6.3 3.15 6.3 1.85 6.3 0.9 5.35 0.0 4.45 0.0 3.15 0.0 1.85 0.9 0.9 1.85 0.0 3.15 0.0 4.45 0.0 5.35 0.9 6.3 1.85 6.3 3.15" fill="#dd0000" fill-rule="evenodd" stroke="none"/>
    <path d="M6.3 12.4 Q6.3 13.7 5.35 14.6 4.45 15.55 3.15 15.55 1.85 15.55 0.9 14.6 0.0 13.7 0.0 12.4 0.0 11.1 0.9 10.15 1.85 9.25 3.15 9.25 4.45 9.25 5.35 10.15 6.3 11.1 6.3 12.4" fill="#dd0000" fill-rule="evenodd" stroke="none"/>
  </g>
</svg>
