<?xml version="1.0" encoding="UTF-8" standalone="no"?>
<svg xmlns:xlink="http://www.w3.org/1999/xlink" height="55.05px" width="28.9px" xmlns="http://www.w3.org/2000/svg">
  <g transform="matrix(1.0, 0.0, 0.0, 1.0, -27.25, 1.85)">
    <path d="M53.85 33.1 L54.15 33.2 55.25 34.25 55.65 34.6 55.8 34.9 56.05 35.35 56.1 35.45 56.15 35.85 56.15 36.05 56.15 36.2 56.1 36.45 56.05 36.55 55.95 36.6 55.9 36.7 55.8 36.75 55.75 36.8 55.35 37.05 54.9 37.25 54.35 37.3 54.3 37.25 Q53.95 37.2 53.75 36.8 L53.6 36.65 53.4 36.5 Q52.85 35.8 51.8 35.9 51.0 35.95 50.25 36.35 L49.9 36.55 49.55 36.75 48.9 37.3 53.35 41.5 54.1 42.45 54.5 43.05 54.55 43.05 55.5 44.6 55.55 44.75 55.85 45.2 56.0 46.3 56.05 46.6 56.0 46.95 55.95 47.1 55.95 47.25 55.85 47.3 55.8 47.65 55.75 47.65 55.65 47.8 55.6 47.95 55.0 48.7 54.3 48.95 53.4 48.9 48.5 45.9 48.25 45.7 48.2 45.7 47.75 46.1 47.05 46.95 46.75 47.95 Q46.45 49.4 47.5 49.9 48.9 50.8 48.25 52.2 L48.2 52.25 47.8 52.8 47.0 53.1 46.8 53.2 46.75 53.2 46.6 53.2 Q45.4 53.1 44.55 52.4 42.0 50.35 44.5 46.35 45.35 45.0 46.2 44.5 L46.35 44.35 46.45 44.3 46.35 44.3 46.25 44.2 45.85 43.95 44.3 42.45 43.9 42.15 39.8 38.55 39.65 38.55 37.65 36.85 36.55 35.4 Q35.95 34.9 35.85 34.25 L35.8 34.1 35.8 34.05 35.75 33.9 35.8 33.9 Q35.8 33.0 36.5 31.9 L36.5 31.85 36.9 31.35 37.6 30.65 37.7 30.55 37.8 30.55 37.9 30.35 38.9 30.2 40.45 30.3 40.85 30.55 42.35 31.2 43.1 31.95 43.65 32.45 44.9 33.8 45.4 34.35 46.8 35.6 47.0 35.45 47.05 35.4 47.25 35.1 47.6 34.8 47.6 34.75 48.0 34.45 49.35 33.55 49.5 33.45 49.65 33.4 50.55 32.95 50.65 32.9 50.8 32.85 50.85 32.85 51.45 32.8 51.5 32.75 51.4 32.75 51.95 32.7 52.15 32.7 52.8 32.75 53.0 32.75 53.85 33.1" fill="#000000" fill-opacity="0.2" fill-rule="evenodd" stroke="none"/>
    <path d="M37.85 -1.1 L38.75 -0.95 38.95 -0.9 39.1 -0.85 39.15 -0.9 39.45 -0.65 39.55 -0.65 39.65 -0.55 39.8 -0.4 40.1 -0.1 40.25 0.15 Q40.75 0.65 40.95 1.45 L41.1 2.3 41.15 2.45 41.65 5.0 41.65 5.1 41.95 7.65 Q42.15 12.05 42.0 16.55 L42.9 16.4 43.3 16.3 43.7 16.05 45.0 14.85 Q45.8 13.85 45.7 12.55 L45.65 12.25 45.65 11.95 Q45.55 11.3 45.75 10.85 L45.75 10.75 46.15 10.25 46.65 9.95 47.1 9.8 47.15 9.8 47.25 9.75 47.35 9.75 47.45 9.75 47.55 9.75 47.75 9.95 48.35 10.9 48.5 11.6 48.6 12.1 48.55 14.95 48.5 15.4 48.15 16.65 48.05 16.85 47.65 17.6 47.6 17.65 47.5 17.85 47.1 18.35 47.15 18.25 47.1 18.3 46.65 18.85 46.6 18.9 46.5 19.0 46.4 19.1 45.45 19.6 45.3 19.7 45.15 19.75 43.55 20.3 43.05 20.4 43.0 20.4 42.55 20.4 42.15 20.4 42.1 20.4 41.9 20.4 41.85 23.2 41.9 24.2 42.05 26.85 42.05 27.9 42.0 29.5 41.55 31.75 41.4 32.35 40.45 34.05 39.65 35.0 39.5 35.0 39.45 35.0 39.35 35.1 39.25 35.1 38.2 35.1 37.65 35.0 37.6 35.0 Q36.25 34.65 35.6 33.7 L35.6 33.75 35.5 33.6 35.45 33.5 35.4 33.4 Q35.0 32.6 35.05 31.45 L34.75 28.9 Q34.65 26.95 34.9 25.15 L34.95 25.0 35.1 17.15 35.15 13.2 35.2 12.6 35.2 12.35 35.2 12.25 35.15 12.3 34.95 12.35 32.4 12.3 Q27.8 11.1 28.0 6.4 28.05 4.75 28.85 3.4 L28.95 3.3 28.95 3.25 29.15 3.1 Q29.45 2.65 29.9 2.5 L30.6 2.7 30.65 2.7 Q32.15 3.4 31.8 5.7 31.55 7.3 32.75 8.35 L33.7 9.1 34.85 9.1 35.4 9.1 35.4 9.05 35.45 8.45 36.55 0.4 Q36.7 -0.3 37.15 -0.6 L37.85 -1.1 Z" fill="none" stroke="#2e5a01" stroke-linecap="round" stroke-linejoin="round" stroke-width="1.5"/>
    <path d="M35.4 9.05 L35.45 8.45 36.55 0.4 Q36.7 -0.3 37.15 -0.6 L37.85 -1.1 38.75 -0.95 38.95 -0.9 39.1 -0.85 39.1 -0.8 38.85 -0.7 38.1 0.0 38.2 8.25 38.0 5.55 Q37.8 2.7 38.0 0.05 L37.65 0.4 37.5 0.5 37.4 0.7 37.0 1.7 36.95 1.85 36.85 5.15 Q36.85 6.85 36.35 8.45 L36.1 9.05 36.0 9.1 35.8 9.15 35.45 9.05 35.4 9.05 M43.3 16.3 L43.7 16.05 45.0 14.85 Q45.8 13.85 45.7 12.55 L45.75 10.95 45.75 10.85 45.75 10.75 46.15 10.25 46.65 9.95 Q46.15 10.6 46.2 11.5 46.35 12.75 45.85 13.95 45.45 15.15 44.35 15.9 L43.3 16.3 M47.35 9.75 L47.45 9.75 47.55 9.75 47.5 9.8 47.45 9.85 47.35 9.9 47.3 9.95 47.05 12.75 Q46.85 14.2 45.95 15.5 45.0 16.75 43.6 17.45 42.7 17.9 41.8 17.75 43.1 17.5 44.25 16.8 L45.55 15.65 45.6 15.55 Q46.3 14.85 46.6 13.95 L47.0 12.2 47.0 10.6 Q46.95 10.0 47.35 9.75 M47.9 10.1 L47.9 10.05 48.05 10.2 48.05 10.25 47.8 12.8 Q47.65 14.55 46.8 16.05 46.05 17.6 44.4 18.3 L42.15 19.15 41.9 19.1 41.9 19.05 Q44.95 18.4 46.6 15.9 47.35 14.8 47.55 13.55 L47.8 10.95 47.9 10.1 M48.3 10.75 L48.35 10.9 48.5 11.6 48.6 12.1 48.55 14.95 48.5 15.4 Q48.3 16.35 47.75 17.15 L48.15 16.65 48.05 16.85 47.65 17.6 47.6 17.65 47.5 17.85 47.1 18.35 47.15 18.25 47.1 18.3 46.65 18.85 46.6 18.9 46.55 18.95 46.5 19.0 46.4 19.1 45.45 19.6 45.3 19.7 45.15 19.75 43.55 20.3 43.05 20.4 43.0 20.4 42.55 20.4 42.15 20.4 42.1 20.4 41.95 20.35 41.9 20.25 41.9 20.15 42.0 20.05 42.05 20.05 Q42.9 19.55 44.05 19.4 L44.3 19.4 Q45.75 18.65 46.95 17.35 48.1 16.0 48.25 14.2 L48.25 11.9 48.3 10.75 M39.45 35.0 L39.35 35.1 39.25 35.1 Q39.15 35.0 39.2 34.75 L39.25 34.35 39.25 33.95 39.3 33.8 39.75 26.55 40.0 22.35 39.7 25.2 Q39.6 22.6 39.95 19.85 L40.15 17.35 40.15 16.95 40.15 14.2 39.85 8.7 39.6 6.1 39.6 6.35 39.5 5.5 Q39.05 2.5 39.1 -0.4 L39.15 -0.35 Q39.25 2.3 39.5 4.95 40.0 7.6 40.15 10.4 L40.2 15.95 40.15 17.75 40.15 19.35 39.75 29.8 39.5 33.7 39.35 33.75 39.5 34.1 39.45 34.45 39.35 34.75 39.45 35.0 M37.65 35.0 L37.6 35.0 Q36.25 34.65 35.6 33.7 L35.6 33.75 35.5 33.6 35.45 33.5 35.4 33.4 Q35.0 32.6 35.05 31.45 L34.75 28.9 Q34.65 26.95 34.9 25.15 L34.95 25.0 35.1 17.15 35.15 13.2 35.2 12.6 35.2 12.35 35.2 12.25 35.15 12.3 34.95 12.35 32.4 12.3 Q27.8 11.1 28.0 6.4 28.05 4.75 28.85 3.4 L28.95 3.3 28.95 3.25 29.15 3.1 29.2 3.05 29.25 3.0 29.45 2.8 29.6 2.65 29.7 2.75 Q29.0 4.45 28.8 6.3 28.6 8.3 30.15 9.75 31.85 11.4 34.3 11.25 L36.05 11.15 36.1 9.95 36.05 9.85 35.7 10.1 36.2 9.65 36.1 11.1 36.1 11.15 36.15 11.15 36.45 10.95 36.65 11.1 36.5 8.55 37.05 15.6 Q37.2 19.2 36.8 22.65 L35.9 29.15 36.35 32.0 Q36.75 33.6 37.6 34.95 L37.95 25.3 38.2 21.7 38.1 24.4 38.25 19.7 Q38.25 17.0 38.4 14.45 38.55 11.75 38.3 9.15 38.1 7.3 38.25 5.7 L38.55 10.9 38.65 16.05 38.5 21.35 38.1 24.7 37.95 28.6 37.6 34.95 37.65 35.0 M30.6 2.7 L30.65 2.7 Q30.3 3.85 30.3 5.55 30.25 6.85 30.65 8.0 30.15 6.95 30.1 5.65 30.05 4.45 30.3 3.45 L30.6 2.7 M41.4 32.35 Q41.15 30.4 41.2 28.15 L41.45 19.45 41.45 10.6 Q41.4 6.05 40.55 1.75 L40.4 0.5 Q41.55 4.55 41.6 9.0 L41.65 17.75 41.5 26.6 41.4 32.35 M35.15 10.3 L32.45 10.15 33.2 10.35 35.15 10.3 M36.35 12.2 L35.9 12.7 35.9 12.8 35.9 12.95 36.05 18.8 35.85 25.4 35.85 28.05 35.95 27.45 Q36.75 23.9 36.9 20.2 L36.8 13.25 36.7 11.75 36.35 12.2" fill="#418101" fill-rule="evenodd" stroke="none"/>
    <path d="M35.4 9.05 L35.45 9.05 35.8 9.15 36.0 9.1 36.1 9.05 36.35 8.45 Q36.85 6.85 36.85 5.15 L36.95 1.85 37.0 1.7 37.4 0.7 37.5 0.5 37.65 0.4 38.0 0.05 Q37.8 2.7 38.0 5.55 L38.2 8.25 38.1 0.0 38.85 -0.7 39.1 -0.8 39.1 -0.85 39.15 -0.9 39.45 -0.65 39.55 -0.65 39.65 -0.55 39.8 -0.4 40.1 -0.1 40.25 0.15 Q40.75 0.65 40.95 1.45 L41.1 2.3 41.15 2.45 41.65 5.0 41.65 5.1 41.95 7.65 Q42.15 12.05 42.0 16.55 L42.9 16.4 43.3 16.3 44.35 15.9 Q45.45 15.15 45.85 13.95 46.35 12.75 46.2 11.5 46.15 10.6 46.65 9.95 L47.1 9.8 47.15 9.8 47.25 9.75 47.35 9.75 Q46.95 10.0 47.0 10.6 L47.0 12.2 46.6 13.95 Q46.3 14.85 45.6 15.55 L45.55 15.65 44.25 16.8 Q43.1 17.5 41.8 17.75 42.7 17.9 43.6 17.45 45.0 16.75 45.95 15.5 46.85 14.2 47.05 12.75 L47.3 9.95 47.35 9.9 47.45 9.85 47.5 9.8 47.55 9.75 47.75 9.95 47.9 10.1 47.8 10.95 47.55 13.55 Q47.35 14.8 46.6 15.9 44.95 18.4 41.9 19.05 L41.9 19.1 42.15 19.15 44.4 18.3 Q46.05 17.6 46.8 16.05 47.65 14.55 47.8 12.8 L48.05 10.25 48.3 10.75 48.25 11.9 48.25 14.2 Q48.1 16.0 46.95 17.35 45.75 18.65 44.3 19.4 L44.05 19.4 Q42.9 19.55 42.05 20.05 L42.0 20.05 41.9 20.15 41.9 20.25 41.95 20.35 42.1 20.4 41.9 20.4 41.85 23.2 41.9 24.2 42.05 26.85 42.05 27.9 42.0 29.5 41.55 31.75 41.4 32.35 40.45 34.05 39.65 35.0 39.5 35.0 39.45 35.0 39.35 34.75 39.45 34.45 39.5 34.1 39.35 33.75 39.5 33.7 39.75 29.8 40.15 19.35 40.15 17.75 40.2 15.95 40.15 10.4 Q40.0 7.6 39.5 4.95 39.25 2.3 39.15 -0.35 L39.1 -0.4 Q39.05 2.5 39.5 5.5 L39.6 6.35 39.6 6.1 39.85 8.7 40.15 14.2 40.15 16.95 40.15 17.35 39.95 19.85 Q39.6 22.6 39.7 25.2 L40.0 22.35 39.75 26.55 39.3 33.8 39.25 33.95 39.25 34.35 39.2 34.75 Q39.15 35.0 39.25 35.1 L38.2 35.1 37.65 35.0 37.6 34.95 37.95 28.6 38.1 24.7 38.5 21.35 38.65 16.05 38.55 10.9 38.25 5.7 Q38.1 7.3 38.3 9.15 38.55 11.75 38.4 14.45 38.25 17.0 38.25 19.7 L38.1 24.4 38.2 21.7 37.95 25.3 37.6 34.95 Q36.75 33.6 36.35 32.0 L35.9 29.15 36.8 22.65 Q37.2 19.2 37.05 15.6 L36.5 8.55 36.65 11.1 36.45 10.95 36.15 11.15 36.1 11.15 36.1 11.1 36.2 9.65 35.7 10.1 36.05 9.85 36.1 9.95 36.05 11.15 34.3 11.25 Q31.85 11.4 30.15 9.75 28.6 8.3 28.8 6.3 29.0 4.45 29.7 2.75 L29.6 2.65 29.9 2.5 30.6 2.7 30.3 3.45 Q30.05 4.45 30.1 5.65 30.15 6.95 30.65 8.0 30.25 6.85 30.3 5.55 30.3 3.85 30.65 2.7 32.15 3.4 31.8 5.7 31.55 7.3 32.75 8.35 L33.7 9.1 34.85 9.1 35.4 9.1 35.4 9.05 M45.7 12.55 L45.65 12.25 45.65 11.95 Q45.55 11.3 45.75 10.85 L45.75 10.95 45.7 12.55 M48.5 15.4 L48.15 16.65 47.75 17.15 Q48.3 16.35 48.5 15.4 M36.35 12.2 L36.7 11.75 36.8 13.25 36.9 20.2 Q36.75 23.9 35.95 27.45 L35.85 28.05 35.85 25.4 36.05 18.8 35.9 12.95 35.9 12.8 35.9 12.7 36.35 12.2 M35.15 10.3 L33.2 10.35 32.45 10.15 35.15 10.3 M41.4 32.35 L41.5 26.6 41.65 17.75 41.6 9.0 Q41.55 4.55 40.4 0.5 L40.55 1.75 Q41.4 6.05 41.45 10.6 L41.45 19.45 41.2 28.15 Q41.15 30.4 41.4 32.35" fill="#55a901" fill-rule="evenodd" stroke="none"/>
  </g>
</svg>
