<?xml version="1.0" encoding="UTF-8" standalone="no"?>
<svg xmlns:xlink="http://www.w3.org/1999/xlink" height="53.15px" width="57.55px" xmlns="http://www.w3.org/2000/svg">
  <g transform="matrix(1.0, 0.0, 0.0, 1.0, -3.45, 8.45)">
    <path d="M59.1 29.2 Q57.15 30.25 54.25 30.4 51.35 30.55 49.3 29.65 47.25 28.9 47.2 27.6 47.1 26.25 49.1 25.25 51.05 24.3 53.95 24.15 56.85 24.0 58.9 24.8 60.9 25.6 61.0 26.95 61.05 28.25 59.1 29.2 M18.75 33.4 Q21.35 34.1 21.55 35.45 21.65 36.75 19.15 37.8 17.35 38.6 14.95 39.0 L15.2 39.1 Q17.2 39.9 17.3 41.25 17.35 42.55 15.4 43.5 13.45 44.55 10.55 44.7 7.65 44.85 5.6 43.95 3.55 43.2 3.5 41.9 3.4 40.55 5.4 39.55 L7.0 38.95 6.25 38.75 Q3.55 38.1 3.45 36.8 3.25 35.45 5.85 34.35 8.35 33.3 12.2 33.0 L18.75 33.4" fill="#cfefef" fill-rule="evenodd" stroke="none"/>
    <path d="M43.2 22.25 Q40.7 21.2 40.7 19.7 40.7 18.1 43.2 17.0 45.7 15.95 49.2 15.95 52.75 15.95 55.25 17.0 57.7 18.1 57.7 19.7 57.7 21.2 55.25 22.25 52.75 23.4 49.2 23.4 45.7 23.4 43.2 22.25" fill="#cfefef" fill-rule="evenodd" stroke="none"/>
    <path d="M48.95 -7.7 Q50.5 -7.0 50.75 -5.5 50.6 -3.65 50.75 -2.8 50.85 -1.85 51.45 0.15 L52.0 2.25 Q52.0 2.95 51.3 2.95 L50.45 2.7 49.9 4.55 Q49.4 5.85 48.9 5.85 48.1 5.85 48.05 4.25 L48.15 2.2 48.1 2.1 46.95 3.1 46.5 2.8 46.5 2.45 48.0 -2.7 47.95 -5.25 Q48.05 -6.8 48.95 -7.7" fill="#ffffff" fill-rule="evenodd" stroke="none"/>
    <path d="M48.95 -7.7 Q50.5 -7.0 50.75 -5.5 50.6 -3.65 50.75 -2.8 50.85 -1.85 51.45 0.15 L52.0 2.25 Q52.0 2.95 51.3 2.95 L50.45 2.7 49.9 4.55 Q49.4 5.85 48.9 5.85 48.1 5.85 48.05 4.25 L48.15 2.2 48.1 2.1 46.95 3.1 46.5 2.8 46.5 2.45 48.0 -2.7 47.95 -5.25 Q48.05 -6.8 48.95 -7.7 Z" fill="none" stroke="#9dcbce" stroke-linecap="round" stroke-linejoin="round" stroke-width="1.5"/>
  </g>
</svg>
