<?xml version="1.0" encoding="UTF-8" standalone="no"?>
<svg xmlns:xlink="http://www.w3.org/1999/xlink" height="12.55px" width="12.1px" xmlns="http://www.w3.org/2000/svg">
  <g transform="matrix(1.0, 0.0, 0.0, 1.0, 9.95, -7.55)">
    <path d="M2.15 18.5 Q2.15 19.0 1.35 19.45 0.25 20.1 -0.95 20.1 -2.6 20.1 -4.1 19.0 -4.95 18.75 -6.2 16.85 -6.2 16.55 -5.85 16.55 L-5.25 16.65 -4.4 16.45 Q-4.3 15.9 -3.4 16.05 L-2.4 16.3 -2.3 16.3 -0.1 16.55 Q0.55 16.55 1.4 17.45 L2.15 18.5" fill="#000000" fill-opacity="0.14901961" fill-rule="evenodd" stroke="none"/>
    <path d="M0.9 16.9 L1.45 18.05 Q1.45 18.6 1.0 18.6 0.65 18.6 0.35 18.2 L0.0 17.65 Q-1.7 17.35 -2.25 16.8 L-2.55 16.25 -2.7 16.25 Q-4.35 16.25 -5.95 14.4 L-6.85 13.2 Q-8.0 13.2 -9.45 11.1 L-8.25 11.05 -7.15 11.7 -6.7 11.15 -5.65 10.55 Q-3.85 10.35 -1.9 11.85 L-0.5 13.2 0.3 13.85 Q1.5 15.05 1.5 15.35 1.5 15.75 1.15 15.75 L0.55 15.6 Q0.2 15.6 0.3 15.85 L0.9 16.9" fill="#ffffff" fill-rule="evenodd" stroke="none"/>
    <path d="M0.9 16.9 L1.45 18.05 Q1.45 18.6 1.0 18.6 0.65 18.6 0.35 18.2 L0.0 17.65 Q-1.7 17.35 -2.25 16.8 L-2.55 16.25 -2.7 16.25 Q-4.35 16.25 -5.95 14.4 L-6.85 13.2 Q-8.0 13.2 -9.45 11.1 L-8.25 11.05 -7.15 11.7 -6.7 11.15 -5.65 10.55 Q-3.85 10.35 -1.9 11.85 L-0.5 13.2 0.3 13.85 Q1.5 15.05 1.5 15.35 1.5 15.75 1.15 15.75 L0.55 15.6 Q0.2 15.6 0.3 15.85 L0.9 16.9 Z" fill="none" stroke="#cccccc" stroke-linecap="round" stroke-linejoin="round" stroke-width="1.0"/>
    <path d="M0.3 15.85 L0.9 16.9 1.45 18.05 Q1.45 18.6 1.0 18.6 0.65 18.6 0.35 18.2 L0.0 17.65 Q-1.7 17.35 -2.25 16.8 L-2.55 16.25 -2.7 16.25 Q-4.35 16.25 -5.95 14.4 L-6.85 13.2 Q-8.0 13.2 -9.45 11.1 L-8.25 11.05 -7.15 11.7 -6.7 11.15 -5.65 10.55 Q-3.85 10.35 -1.9 11.85 L-0.5 13.2 0.3 13.85 Q1.5 15.05 1.5 15.35 1.5 15.75 1.15 15.75 L0.55 15.6 Q0.2 15.6 0.3 15.85" fill="#ffffff" fill-rule="evenodd" stroke="none"/>
    <path d="M-5.1 10.15 L-5.05 9.85 -5.05 9.8 -5.1 9.7 -4.85 9.75 Q-4.05 9.85 -1.25 11.75 L-0.8 12.6 -0.7 12.7 -1.9 12.45 -3.0 11.75 -4.75 10.3 -5.1 10.15" fill="#ffffff" fill-rule="evenodd" stroke="none"/>
    <path d="M-5.1 10.15 L-5.05 9.85 -5.05 9.8 -5.1 9.7 -4.85 9.75 Q-4.05 9.85 -1.25 11.75 L-0.8 12.6 -0.7 12.7 -1.9 12.45 -3.0 11.75 -4.75 10.3 -5.1 10.15 Z" fill="none" stroke="#cccccc" stroke-linecap="round" stroke-linejoin="round" stroke-width="1.0"/>
    <path d="M-5.1 10.15 L-5.05 9.85 -5.05 9.8 -5.1 9.7 -4.85 9.75 Q-4.05 9.85 -1.25 11.75 L-0.8 12.6 -0.7 12.7 -1.9 12.45 -3.0 11.75 -4.75 10.3 -5.1 10.15" fill="#ffffff" fill-rule="evenodd" stroke="none"/>
    <path d="M-6.05 11.65 Q-5.4 11.6 -2.7 13.05 L-2.25 13.8 -2.15 13.9 -3.15 13.85 -4.15 13.3 -5.85 12.2 -6.2 12.0 -6.25 11.75 -6.25 11.6 -6.05 11.65" fill="#ffffff" fill-rule="evenodd" stroke="none"/>
    <path d="M-6.05 11.65 Q-5.4 11.6 -2.7 13.05 L-2.25 13.8 -2.15 13.9 -3.15 13.85 -4.15 13.3 -5.85 12.2 -6.2 12.0 -6.25 11.75 -6.25 11.6 -6.05 11.65 Z" fill="none" stroke="#cccccc" stroke-linecap="round" stroke-linejoin="round" stroke-width="1.0"/>
    <path d="M-6.05 11.65 Q-5.4 11.6 -2.7 13.05 L-2.25 13.8 -2.15 13.9 -3.15 13.85 -4.15 13.3 -5.85 12.2 -6.2 12.0 -6.25 11.75 -6.25 11.6 -6.05 11.65" fill="#ffffff" fill-rule="evenodd" stroke="none"/>
    <path d="M-4.4 10.35 Q-4.5 11.3 -5.15 11.65 L-6.1 11.8 -7.75 11.5 Q-8.95 10.95 -8.85 9.7 -8.75 8.2 -7.2 8.05 -6.3 8.0 -5.5 8.4 -4.3 8.95 -4.4 10.35 Z" fill="none" stroke="#cccccc" stroke-linecap="round" stroke-linejoin="round" stroke-width="1.0"/>
    <path d="M-4.4 10.35 Q-4.5 11.3 -5.15 11.65 L-6.1 11.8 -7.75 11.5 Q-8.95 10.95 -8.85 9.7 -8.75 8.2 -7.2 8.05 -6.3 8.0 -5.5 8.4 -4.3 8.95 -4.4 10.35" fill="#ffffff" fill-rule="evenodd" stroke="none"/>
    <path d="M-5.2 8.9 L-4.95 9.1 -5.25 9.3 -5.4 9.0 -5.2 8.9 M-5.95 10.75 L-6.0 10.9 -6.2 11.15 -6.45 11.1 -6.5 11.0 -6.4 10.75 -6.1 10.7 -5.95 10.75 M-7.0 9.75 L-7.15 9.75 -7.35 9.65 -7.3 9.45 -7.05 9.4 -7.0 9.5 -7.0 9.75" fill="#000000" fill-rule="evenodd" stroke="none"/>
    <path d="M0.2 14.9 L0.3 14.85 0.45 15.15 0.25 15.55 -0.3 15.75 Q-0.75 15.75 -0.75 15.15 -0.75 14.75 -0.45 14.8 L-0.4 14.9 -0.5 15.2 -0.05 15.5 0.3 15.3 0.2 15.15 0.2 14.9 M-2.6 15.7 L-2.3 16.45 -2.3 16.7 -2.8 16.2 -2.8 15.7 -2.6 15.7" fill="#cccccc" fill-rule="evenodd" stroke="none"/>
  </g>
</svg>
