<?xml version="1.0" encoding="UTF-8" standalone="no"?>
<svg xmlns:xlink="http://www.w3.org/1999/xlink" height="8.15px" width="8.2px" xmlns="http://www.w3.org/2000/svg">
  <g transform="matrix(1.0, 0.0, 0.0, 1.0, -1.0, -3.05)">
    <path d="M7.3 4.1 Q7.4 3.65 7.85 3.65 L8.25 3.85 8.3 3.9 8.35 3.55 8.35 3.9 8.45 4.05 8.3 4.75 8.25 4.9 8.2 4.85 8.15 4.9 8.25 5.15 8.4 5.6 8.4 5.4 8.5 5.95 8.5 6.2 8.7 6.9 8.45 8.25 Q7.5 9.25 6.95 9.25 L6.7 9.2 6.0 9.5 5.6 10.1 4.8 10.7 Q4.4 10.7 4.4 10.35 4.4 10.15 4.7 9.7 L3.55 9.7 2.7 9.45 2.1 10.05 1.65 10.05 Q1.5 10.0 1.5 9.75 1.5 9.4 1.8 9.2 L2.25 8.85 Q2.0 8.35 2.0 7.5 2.0 6.15 3.0 5.4 3.75 4.75 4.25 4.55 4.4 4.4 5.0 4.2 L5.75 4.0 6.4 4.0 7.1 4.1 7.3 4.15 7.3 4.1" fill="#ffffff" fill-rule="evenodd" stroke="none"/>
    <path d="M7.3 4.1 Q7.4 3.65 7.85 3.65 L8.25 3.85 8.3 3.9 8.35 3.55 8.35 3.9 8.45 4.05 8.3 4.75 8.25 4.9 8.2 4.85 8.15 4.9 8.25 5.15 8.4 5.6 8.4 5.4 8.5 5.95 8.5 6.2 8.7 6.9 8.45 8.25 Q7.5 9.25 6.95 9.25 L6.7 9.2 6.0 9.5 5.6 10.1 4.8 10.7 Q4.4 10.7 4.4 10.35 4.4 10.15 4.7 9.7 L3.55 9.7 2.7 9.45 2.1 10.05 1.65 10.05 Q1.5 10.0 1.5 9.75 1.5 9.4 1.8 9.2 L2.25 8.85 Q2.0 8.35 2.0 7.5 2.0 6.15 3.0 5.4 3.75 4.75 4.25 4.55 4.4 4.4 5.0 4.2 L5.75 4.0 6.4 4.0 7.1 4.1 7.3 4.15 7.3 4.1 Z" fill="none" stroke="#cccccc" stroke-linecap="round" stroke-linejoin="round" stroke-width="1.0"/>
    <path d="M7.3 4.1 Q7.4 3.65 7.85 3.65 L8.25 3.85 8.3 3.9 8.35 3.55 8.35 3.9 8.45 4.05 8.3 4.75 8.25 4.9 8.2 4.85 8.15 4.9 8.25 5.15 8.4 5.6 8.4 5.4 8.5 5.95 8.5 6.2 8.7 6.9 8.45 8.25 Q7.5 9.25 6.95 9.25 L6.7 9.2 6.0 9.5 5.6 10.1 4.8 10.7 Q4.4 10.7 4.4 10.35 4.4 10.15 4.7 9.7 L3.55 9.7 2.7 9.45 2.1 10.05 1.65 10.05 Q1.5 10.0 1.5 9.75 1.5 9.4 1.8 9.2 L2.25 8.85 Q2.0 8.35 2.0 7.5 2.0 6.15 3.0 5.4 3.75 4.75 4.25 4.55 4.4 4.4 5.0 4.2 L5.75 4.0 6.4 4.0 7.1 4.1 7.3 4.15 7.3 4.1" fill="#ffffff" fill-rule="evenodd" stroke="none"/>
  </g>
</svg>
