<?xml version="1.0" encoding="UTF-8" standalone="no"?>
<svg xmlns:xlink="http://www.w3.org/1999/xlink" height="76.5px" width="57.4px" xmlns="http://www.w3.org/2000/svg">
  <g transform="matrix(1.0, 0.0, 0.0, 1.0, -3.55, 17.65)">
    <path d="M34.35 22.2 Q35.9 23.1 35.9 24.0 L35.85 24.3 36.05 24.35 36.35 24.1 Q38.25 23.0 38.45 24.8 L39.75 25.05 Q40.75 23.7 41.5 24.1 42.1 24.45 42.1 25.5 L41.75 26.75 Q41.25 27.45 40.35 27.45 39.55 28.6 35.0 30.25 30.1 32.0 27.8 32.15 L25.65 32.75 Q24.85 33.35 24.1 33.35 L23.9 33.35 23.2 33.8 21.55 34.45 20.0 34.9 19.9 35.05 Q19.95 35.25 19.45 35.25 18.45 35.25 17.6 30.45 L17.0 29.05 15.75 25.4 Q15.75 23.85 16.5 23.75 16.8 23.75 17.1 24.05 17.3 23.1 18.2 23.15 19.45 23.15 19.45 24.4 L18.95 26.05 20.7 27.75 23.7 30.35 Q24.2 30.35 26.1 28.2 L27.7 26.3 28.7 24.75 28.75 24.65 Q29.8 22.7 31.1 21.5 32.55 20.05 32.7 21.8 L34.35 22.2" fill="#b09d71" fill-rule="evenodd" stroke="none"/>
    <path d="M41.3 27.55 Q39.45 28.1 36.2 26.15 L33.25 24.05 33.2 23.7 33.2 23.6 Q33.25 22.8 34.25 21.9 35.1 21.1 36.15 20.7 L37.55 20.65 38.8 21.2 42.6 20.9 Q43.15 20.75 43.3 21.2 L42.75 24.4 Q42.0 27.4 41.3 27.55 M35.2 10.8 Q37.3 11.05 37.5 11.8 L37.85 14.15 Q37.9 16.4 37.15 17.0 36.25 18.0 34.7 20.3 33.5 21.65 31.6 22.5 L30.95 22.55 27.05 22.65 23.7 22.1 23.05 22.3 22.1 21.85 Q21.4 21.55 20.4 20.2 19.4 18.85 19.15 18.05 L19.15 17.75 18.85 17.35 20.6 14.75 Q21.95 13.15 22.6 13.45 22.65 13.35 22.8 13.35 L25.45 12.75 28.75 11.35 Q30.3 10.6 32.55 10.6 L35.2 10.8 M28.2 28.25 Q26.5 32.0 24.55 32.5 23.4 32.85 21.1 30.75 L21.15 30.15 Q20.2 30.0 19.15 28.1 19.0 27.35 20.45 26.7 22.45 25.8 23.3 24.75 L23.7 24.45 26.0 25.0 29.3 25.35 28.2 28.25" fill="#ff9319" fill-rule="evenodd" stroke="none"/>
    <path d="M41.3 27.55 Q39.45 28.1 36.2 26.15 L33.25 24.05 33.2 23.7 33.2 23.6 Q33.25 22.8 34.25 21.9 35.1 21.1 36.15 20.7 L37.55 20.65 38.8 21.2 42.6 20.9 Q43.15 20.75 43.3 21.2 L42.75 24.4 Q42.0 27.4 41.3 27.55 M28.2 28.25 L29.3 25.35 26.0 25.0 23.7 24.45 23.3 24.75 Q22.45 25.8 20.45 26.7 19.0 27.35 19.15 28.1 20.2 30.0 21.15 30.15 L21.1 30.75 Q23.4 32.85 24.55 32.5 26.5 32.0 28.2 28.25" fill="none" stroke="#5a5029" stroke-linecap="round" stroke-linejoin="round" stroke-width="2.0"/>
    <path d="M41.3 27.55 Q39.45 28.1 36.2 26.15 L33.25 24.05 33.2 23.7 33.2 23.6 Q33.25 22.8 34.25 21.9 35.1 21.1 36.15 20.7 L37.55 20.65 38.8 21.2 42.6 20.9 Q43.15 20.75 43.3 21.2 L42.75 24.4 Q42.0 27.4 41.3 27.55 M28.2 28.25 Q26.5 32.0 24.55 32.5 23.4 32.85 21.1 30.75 L21.15 30.15 Q20.2 30.0 19.15 28.1 19.0 27.35 20.45 26.7 22.45 25.8 23.3 24.75 L23.7 24.45 26.0 25.0 29.3 25.35 28.2 28.25" fill="#968254" fill-rule="evenodd" stroke="none"/>
    <path d="M35.2 10.8 Q37.3 11.05 37.5 11.8 L37.85 14.15 Q37.9 16.4 37.15 17.0 36.25 18.0 34.7 20.3 33.5 21.65 31.6 22.5 L30.95 22.55 27.05 22.65 23.7 22.1 23.05 22.3 22.1 21.85 Q21.4 21.55 20.4 20.2 19.4 18.85 19.15 18.05 L19.15 17.75 18.85 17.35 20.6 14.75 Q21.95 13.15 22.6 13.45 22.65 13.35 22.8 13.35 L25.45 12.75 28.75 11.35 Q30.3 10.6 32.55 10.6 L35.2 10.8" fill="#b09d71" fill-rule="evenodd" stroke="none"/>
    <path d="M43.6 8.95 Q44.35 9.9 44.75 11.0 L45.35 14.0 Q45.7 15.3 44.15 17.4 42.75 19.3 41.8 19.55 40.55 19.9 39.15 18.85 L37.65 17.7 Q35.7 17.55 34.95 14.95 34.4 13.05 35.05 11.0 35.95 7.9 39.5 8.35 39.85 7.65 40.5 7.45 42.05 7.0 43.6 8.95 M39.4 12.1 L39.5 12.5 40.25 12.3 40.85 11.8 39.95 11.05 39.35 11.7 39.4 12.1 M22.1 20.2 L20.1 22.4 19.7 24.3 Q19.2 26.0 17.15 26.55 L15.05 26.4 14.8 25.45 Q13.35 25.6 12.7 25.05 12.35 24.65 12.15 23.9 L12.15 22.35 Q11.0 21.5 10.9 21.1 10.75 19.75 10.9 18.55 11.25 16.0 12.9 15.55 L13.85 15.45 14.2 15.75 Q14.65 15.25 15.25 15.05 17.15 14.55 19.8 16.3 21.95 17.75 22.1 18.45 22.4 19.5 22.1 20.2 M16.05 18.2 Q15.65 16.7 14.3 19.05 L14.2 19.25 16.05 18.35 16.05 18.2" fill="#ff9319" fill-rule="evenodd" stroke="none"/>
    <path d="M43.6 8.95 Q44.35 9.9 44.75 11.0 L45.35 14.0 Q45.7 15.3 44.15 17.4 42.75 19.3 41.8 19.55 40.55 19.9 39.15 18.85 L37.65 17.7 Q35.7 17.55 34.95 14.95 34.4 13.05 35.05 11.0 35.95 7.9 39.5 8.35 39.85 7.65 40.5 7.45 42.05 7.0 43.6 8.95 M39.4 12.1 L39.5 12.5 40.25 12.3 40.85 11.8 39.95 11.05 39.35 11.7 39.4 12.1 M22.1 20.2 L20.1 22.4 19.7 24.3 Q19.2 26.0 17.15 26.55 L15.05 26.4 14.8 25.45 Q13.35 25.6 12.7 25.05 12.35 24.65 12.15 23.9 L12.15 22.35 Q11.0 21.5 10.9 21.1 10.75 19.75 10.9 18.55 11.25 16.0 12.9 15.55 L13.85 15.45 14.2 15.75 Q14.65 15.25 15.25 15.05 17.15 14.55 19.8 16.3 21.95 17.75 22.1 18.45 22.4 19.5 22.1 20.2 M16.05 18.2 Q15.65 16.7 14.3 19.05 L14.2 19.25 16.05 18.35 16.05 18.2" fill="none" stroke="#5a5029" stroke-linecap="round" stroke-linejoin="round" stroke-width="2.0"/>
    <path d="M43.6 8.95 Q44.35 9.9 44.75 11.0 L45.35 14.0 Q45.7 15.3 44.15 17.4 42.75 19.3 41.8 19.55 40.55 19.9 39.15 18.85 L37.65 17.7 Q35.7 17.55 34.95 14.95 34.4 13.05 35.05 11.0 35.95 7.9 39.5 8.35 39.85 7.65 40.5 7.45 42.05 7.0 43.6 8.95 M39.4 12.1 L39.5 12.5 40.25 12.3 40.85 11.8 39.95 11.05 39.35 11.7 39.4 12.1 M22.1 20.2 L20.1 22.4 19.7 24.3 Q19.2 26.0 17.15 26.55 L15.05 26.4 14.8 25.45 Q13.35 25.6 12.7 25.05 12.35 24.65 12.15 23.9 L12.15 22.35 Q11.0 21.5 10.9 21.1 10.75 19.75 10.9 18.55 11.25 16.0 12.9 15.55 L13.85 15.45 14.2 15.75 Q14.65 15.25 15.25 15.05 17.15 14.55 19.8 16.3 21.95 17.75 22.1 18.45 22.4 19.5 22.1 20.2 M16.05 18.2 Q15.65 16.7 14.3 19.05 L14.2 19.25 16.05 18.35 16.05 18.2" fill="#968254" fill-rule="evenodd" stroke="none"/>
    <path d="M28.0 20.65 L29.6 21.7 29.75 21.8 Q29.5 20.65 30.7 18.7 32.3 15.95 35.7 15.0 37.6 14.5 38.8 15.9 39.45 16.6 39.7 17.6 40.45 20.15 36.7 22.7 32.9 25.2 32.7 24.35 L32.2 24.55 32.05 24.55 26.15 26.2 21.1 26.05 Q19.35 25.3 19.0 24.0 18.4 21.95 19.15 20.9 20.4 19.2 25.6 19.65 L28.0 20.65" fill="#ffc922" fill-rule="evenodd" stroke="none"/>
    <path d="M28.0 20.65 L29.6 21.7 29.75 21.8 Q29.5 20.65 30.7 18.7 32.3 15.95 35.7 15.0 37.6 14.5 38.8 15.9 39.45 16.6 39.7 17.6 40.45 20.15 36.7 22.7 32.9 25.2 32.7 24.35 L32.2 24.55 32.05 24.55 26.15 26.2 21.1 26.05 Q19.35 25.3 19.0 24.0 18.4 21.95 19.15 20.9 20.4 19.2 25.6 19.65 L28.0 20.65 Z" fill="none" stroke="#5a5029" stroke-linecap="round" stroke-linejoin="round" stroke-width="2.0"/>
    <path d="M28.0 20.65 L29.6 21.7 29.75 21.8 Q29.5 20.65 30.7 18.7 32.3 15.95 35.7 15.0 37.6 14.5 38.8 15.9 39.45 16.6 39.7 17.6 40.45 20.15 36.7 22.7 32.9 25.2 32.7 24.35 L32.2 24.55 32.05 24.55 26.15 26.2 21.1 26.05 Q19.35 25.3 19.0 24.0 18.4 21.95 19.15 20.9 20.4 19.2 25.6 19.65 L28.0 20.65" fill="#b09d71" fill-rule="evenodd" stroke="none"/>
    <path d="M26.55 -16.55 Q32.7 -15.9 37.6 -10.75 L39.5 -8.45 Q41.05 -6.3 42.1 -3.9 43.6 -0.55 43.25 1.2 43.05 2.55 39.95 4.75 39.35 6.0 38.15 6.8 37.0 7.45 35.85 7.35 35.25 10.2 33.2 11.7 31.35 13.1 28.3 14.2 24.3 15.65 21.2 15.1 19.15 14.75 17.45 13.4 L16.85 14.0 Q15.45 15.1 13.7 14.7 12.5 14.55 11.6 13.7 8.0 13.75 7.45 12.7 4.7 7.1 4.55 1.95 4.45 -0.6 5.1 -3.0 6.4 -8.65 11.15 -12.05 14.2 -14.35 18.75 -15.75 22.9 -16.95 26.55 -16.55" fill="#5a5029" fill-rule="evenodd" stroke="none"/>
    <path d="M26.55 -16.55 Q32.7 -15.9 37.6 -10.75 L39.5 -8.45 Q41.05 -6.3 42.1 -3.9 43.6 -0.55 43.25 1.2 43.05 2.55 39.95 4.75 39.35 6.0 38.15 6.8 37.0 7.45 35.85 7.35 35.25 10.2 33.2 11.7 31.35 13.1 28.3 14.2 24.3 15.65 21.2 15.1 19.15 14.75 17.45 13.4 L16.85 14.0 Q15.45 15.1 13.7 14.7 12.5 14.55 11.6 13.7 8.0 13.75 7.45 12.7 4.7 7.1 4.55 1.95 4.45 -0.6 5.1 -3.0 6.4 -8.65 11.15 -12.05 14.2 -14.35 18.75 -15.75 22.9 -16.95 26.55 -16.55 Z" fill="none" stroke="#5a5029" stroke-linecap="round" stroke-linejoin="round" stroke-width="2.0"/>
    <path d="M4.55 1.95 Q4.45 -0.6 5.1 -3.0 6.4 -8.65 11.15 -12.05 L22.0 4.35 4.55 1.95 M26.55 -16.55 Q32.7 -15.9 37.6 -10.75 L39.5 -8.45 26.65 2.9 26.55 -16.55" fill="#b09d71" fill-rule="evenodd" stroke="none"/>
    <path d="M11.15 -12.05 Q14.2 -14.35 18.75 -15.75 22.9 -16.95 26.55 -16.55 L26.65 2.9 39.5 -8.45 Q41.05 -6.3 42.1 -3.9 43.6 -0.55 43.25 1.2 43.0 2.85 38.2 5.9 35.85 7.5 33.5 8.7 18.0 12.9 17.95 13.1 L13.1 13.65 Q8.15 13.95 7.45 12.7 4.7 7.1 4.55 1.95 L22.0 4.35 11.15 -12.05" fill="#968254" fill-rule="evenodd" stroke="none"/>
    <path d="M37.85 -1.75 Q39.4 -1.25 40.15 0.35 40.8 2.05 40.25 3.95 39.75 5.8 38.15 6.8 36.6 7.75 35.0 7.2 33.4 6.75 32.7 5.05 31.95 3.45 32.55 1.55 33.1 -0.3 34.65 -1.3 36.2 -2.25 37.85 -1.75 M13.7 14.7 Q11.95 14.4 10.75 12.8 9.45 11.3 9.55 9.5 9.65 7.7 11.0 6.65 12.25 5.6 14.1 5.95 15.8 6.25 17.1 7.8 18.25 9.3 18.2 11.15 18.15 13.0 16.85 14.0 15.45 15.1 13.7 14.7" fill="#ffc922" fill-rule="evenodd" stroke="none"/>
    <path d="M37.85 -1.75 Q39.4 -1.25 40.15 0.35 40.8 2.05 40.25 3.95 39.75 5.8 38.15 6.8 36.6 7.75 35.0 7.2 33.4 6.75 32.7 5.05 31.95 3.45 32.55 1.55 33.1 -0.3 34.65 -1.3 36.2 -2.25 37.85 -1.75 M13.7 14.7 Q11.95 14.4 10.75 12.8 9.45 11.3 9.55 9.5 9.65 7.7 11.0 6.65 12.25 5.6 14.1 5.95 15.8 6.25 17.1 7.8 18.25 9.3 18.2 11.15 18.15 13.0 16.85 14.0 15.45 15.1 13.7 14.7" fill="none" stroke="#5a5029" stroke-linecap="round" stroke-linejoin="round" stroke-width="1.5"/>
    <path d="M37.85 -1.75 Q39.4 -1.25 40.15 0.35 40.8 2.05 40.25 3.95 39.75 5.8 38.15 6.8 36.6 7.75 35.0 7.2 33.4 6.75 32.7 5.05 31.95 3.45 32.55 1.55 33.1 -0.3 34.65 -1.3 36.2 -2.25 37.85 -1.75 M15.85 11.9 L15.0 10.55 14.15 9.5 Q13.6 7.7 12.65 8.65 11.75 9.55 12.25 11.2 L13.15 12.5 Q14.2 13.75 15.15 13.5 16.2 13.15 15.85 11.9 M38.35 2.4 Q36.3 -1.2 35.45 1.95 35.2 3.2 35.7 5.0 L35.9 5.5 Q36.25 5.9 36.85 5.7 38.1 5.35 38.4 4.1 L38.35 2.4 M18.2 11.15 Q18.15 13.0 16.85 14.0 15.45 15.1 13.7 14.7 11.95 14.4 10.75 12.8 9.45 11.3 9.55 9.5 9.65 7.7 11.0 6.65 12.25 5.6 14.1 5.95 15.8 6.25 17.1 7.8 18.25 9.3 18.2 11.15" fill="#b09d71" fill-rule="evenodd" stroke="none"/>
    <path d="M38.35 2.4 L38.4 4.1 Q38.1 5.35 36.85 5.7 36.25 5.9 35.9 5.5 L35.7 5.0 Q35.2 3.2 35.45 1.95 36.3 -1.2 38.35 2.4 M15.85 11.9 Q16.2 13.15 15.15 13.5 14.2 13.75 13.15 12.5 L12.25 11.2 Q11.75 9.55 12.65 8.65 13.6 7.7 14.15 9.5 L15.0 10.55 15.85 11.9" fill="#968254" fill-rule="evenodd" stroke="none"/>
    <path d="M29.65 -9.9 Q33.9 -8.45 35.7 0.0 37.4 8.65 33.2 11.7 31.35 13.1 28.3 14.2 24.3 15.65 21.2 15.1 16.1 14.2 13.1 7.2 10.2 0.5 12.6 -3.5 15.25 -7.8 20.4 -9.65 L29.65 -9.9" fill="#ffc922" fill-rule="evenodd" stroke="none"/>
    <path d="M29.65 -9.9 Q33.9 -8.45 35.7 0.0 37.4 8.65 33.2 11.7 31.35 13.1 28.3 14.2 24.3 15.65 21.2 15.1 16.1 14.2 13.1 7.2 10.2 0.5 12.6 -3.5 15.25 -7.8 20.4 -9.65 L29.65 -9.9 Z" fill="none" stroke="#5a5029" stroke-linecap="round" stroke-linejoin="round" stroke-width="1.5"/>
    <path d="M29.65 -9.9 Q33.9 -8.45 35.7 0.0 37.4 8.65 33.2 11.7 31.35 13.1 28.3 14.2 24.3 15.65 21.2 15.1 16.1 14.2 13.1 7.2 10.2 0.5 12.6 -3.5 15.25 -7.8 20.4 -9.65 L29.65 -9.9" fill="#b09d71" fill-rule="evenodd" stroke="none"/>
    <path d="M22.1 -3.75 L23.5 -5.5 Q24.6 -6.65 26.45 -7.15 29.95 -8.15 32.05 -5.8 33.2 -4.55 33.7 -2.9 34.3 -0.7 34.0 0.55 33.65 2.65 31.0 4.05 L30.95 4.25 31.55 4.8 31.95 5.25 Q32.55 7.45 26.65 9.55 L23.05 10.6 Q21.5 10.8 20.6 10.25 19.95 9.9 19.75 9.3 L19.6 8.8 Q19.6 8.45 19.95 7.95 15.75 7.35 14.35 5.95 13.7 5.25 13.0 2.75 12.4 0.85 12.6 -0.45 13.0 -3.5 16.45 -4.45 L20.55 -4.7 Q21.4 -3.9 22.1 -3.75" fill="#968254" fill-rule="evenodd" stroke="none"/>
    <path d="M31.35 -3.45 Q32.65 -2.9 32.95 -1.8 33.25 -0.7 32.45 0.35 31.75 1.45 30.3 1.9 L27.65 1.75 Q26.45 1.25 26.15 0.15 25.85 -0.95 26.55 -2.05 27.35 -3.1 28.8 -3.5 L31.35 -3.45 M22.1 1.65 Q22.35 2.75 21.55 3.85 20.85 4.9 19.4 5.35 L16.75 5.2 Q15.55 4.7 15.25 3.6 14.95 2.5 15.7 1.4 16.5 0.35 17.9 0.0 19.3 -0.45 20.5 0.0 21.75 0.55 22.1 1.65 M23.1 7.6 L22.8 7.1 Q22.65 6.6 24.9 5.5 L27.45 5.6 Q27.6 6.25 27.1 6.6 L24.8 7.35 23.1 7.6" fill="#5a5029" fill-rule="evenodd" stroke="none"/>
    <path d="M45.25 12.1 L45.2 12.65 44.95 12.9 41.55 12.65 Q40.95 12.8 40.8 13.7 L40.7 14.85 42.8 15.55 Q43.85 15.9 44.2 16.25 44.7 16.35 44.8 16.85 45.0 17.5 44.5 17.65 43.9 17.75 43.5 17.35 L43.25 17.05 41.5 16.45 40.65 16.0 Q40.35 17.1 39.9 17.25 L39.5 17.2 39.35 16.8 Q39.25 16.55 39.6 15.85 L39.8 15.6 39.75 15.55 39.95 13.75 40.25 12.3 Q40.7 11.4 42.9 11.5 45.1 11.65 45.25 12.1 M42.75 25.7 Q42.05 25.9 41.0 25.35 L40.2 24.75 Q39.95 23.95 41.6 24.25 43.1 24.6 43.2 24.95 43.4 25.55 42.75 25.7 M33.25 24.6 Q32.8 24.7 29.05 21.15 28.75 19.95 31.0 21.6 33.25 23.25 33.5 24.05 33.65 24.5 33.25 24.6 M11.95 22.85 L11.7 22.8 11.55 22.5 Q11.05 20.6 13.8 19.85 16.5 19.15 17.15 21.55 L17.2 21.6 17.45 21.75 Q18.7 22.55 19.0 23.5 L18.9 23.95 18.6 24.35 Q18.1 24.5 17.3 23.45 L16.65 22.4 14.15 25.9 Q13.7 26.05 13.6 25.55 13.4 25.0 14.8 23.45 L16.05 21.65 15.15 20.95 14.15 20.6 Q13.6 20.7 12.85 21.7 L11.95 22.85 M22.35 29.3 L22.0 30.1 21.25 30.75 20.75 30.45 Q20.7 30.1 21.45 29.35 L22.35 29.3" fill="#5a5029" fill-rule="evenodd" stroke="none"/>
    <path d="M5.1 -3.0 Q6.4 -8.65 11.15 -12.05 14.2 -14.35 18.75 -15.75 22.9 -16.95 26.55 -16.55 32.7 -15.9 37.6 -10.75 L39.5 -8.45 Q41.05 -6.3 42.1 -3.9 43.6 -0.55 43.25 1.2 L42.65 2.4 Q42.05 -1.6 38.35 -6.25 33.4 -12.5 26.6 -14.25 15.5 -14.6 9.05 -8.3 6.35 -5.65 5.1 -2.9 L5.1 -3.0 M34.6 -2.25 L34.9 -2.25 35.85 2.45 36.0 6.15 36.0 7.75 Q35.85 9.0 35.1 9.0 L34.9 8.95 34.9 8.9 Q34.75 8.8 34.75 8.35 L35.0 2.9 Q34.6 0.6 34.6 -1.15 L34.6 -2.25 M38.95 -0.95 Q40.45 0.3 40.45 1.1 40.45 1.95 39.85 1.95 L38.6 0.9 36.45 -0.75 Q37.3 -2.3 38.95 -0.95 M35.85 15.65 L38.75 15.7 Q39.45 16.7 39.45 17.7 39.45 18.65 38.85 18.65 L38.15 17.65 Q37.35 16.45 35.85 15.65 M11.9 7.3 L9.95 10.15 9.9 10.15 Q9.8 10.4 9.8 10.0 L10.05 9.15 Q10.05 7.85 11.0 7.0 11.9 6.15 11.9 7.3" fill="#ffffff" fill-opacity="0.3019608" fill-rule="evenodd" stroke="none"/>
    <path d="M59.65 29.5 L59.6 29.1 Q59.1 28.45 58.55 27.2 L58.4 26.85 56.75 26.85 56.6 26.15 Q57.0 26.0 57.9 26.15 L57.5 25.9 56.55 25.1 57.8 25.25 57.6 23.95 57.7 23.45 57.75 23.55 58.95 25.5 59.15 25.55 58.6 24.45 58.25 23.6 57.4 22.65 Q56.75 21.85 56.75 21.15 L56.8 21.0 56.55 20.85 Q57.0 20.3 57.7 20.65 L58.15 20.95 58.2 20.85 57.6 19.2 57.15 17.15 Q57.15 16.7 57.3 16.25 L57.75 16.25 58.2 18.5 58.5 20.4 58.2 20.85 58.95 21.95 58.8 21.25 58.35 18.4 58.5 17.4 58.6 17.55 58.5 16.95 Q58.85 17.0 59.15 17.35 L59.1 18.15 59.75 29.65 59.8 30.05 59.65 29.5" fill="#55a901" fill-rule="evenodd" stroke="none"/>
    <path d="M59.8 30.05 L60.2 33.15 60.2 33.9 60.0 37.2 60.5 38.7 Q60.5 37.9 60.85 37.6 L60.95 37.95 60.6 39.85 60.55 39.7 60.1 40.1 59.5 40.8 58.9 40.1 59.1 39.25 58.85 38.45 58.55 38.55 Q58.35 38.35 57.85 36.95 L57.35 35.25 57.35 35.05 57.45 35.0 57.65 35.0 58.75 37.75 58.6 36.3 Q58.6 34.55 59.25 35.7 L59.2 33.9 59.25 31.4 59.65 29.5 59.8 30.05 M56.7 32.4 Q57.3 33.05 57.3 34.85 L57.2 37.6 57.15 39.5 56.7 39.65 56.75 40.3 Q56.75 41.4 56.1 41.4 L55.95 41.65 55.1 42.85 Q54.45 42.6 54.45 42.0 L54.7 41.25 Q54.0 40.65 54.0 40.3 L54.05 39.85 53.9 40.05 52.55 41.3 52.45 41.25 52.4 41.3 52.3 41.25 51.75 41.45 Q52.35 41.75 52.35 42.45 52.35 43.45 51.7 43.45 50.5 43.45 49.8 42.95 49.2 42.55 49.15 41.9 L49.1 41.95 48.85 41.95 48.75 41.6 48.75 41.4 48.5 41.65 48.5 41.75 48.9 44.1 48.9 44.75 48.5 44.9 47.75 43.0 47.65 43.1 Q47.3 43.4 46.9 43.4 46.35 43.4 46.15 42.85 L46.15 42.8 45.9 42.75 45.75 42.7 45.75 42.65 45.1 43.6 43.5 42.45 43.6 42.2 43.45 41.6 42.9 43.15 42.65 43.05 42.55 42.6 Q42.55 40.4 43.75 39.75 43.95 39.15 44.3 38.5 45.1 36.95 45.1 39.4 L44.75 41.0 44.7 41.25 44.85 41.1 Q46.15 40.15 46.15 41.35 L46.1 41.85 46.15 41.8 46.5 41.55 47.6 40.95 47.75 40.9 Q47.8 36.8 48.2 35.55 L48.5 35.85 48.5 40.6 48.95 40.5 49.75 38.1 Q50.75 35.6 51.3 35.1 L51.65 35.2 51.8 35.55 Q51.8 36.65 50.75 39.0 51.2 38.6 51.75 38.55 L51.85 39.15 51.75 39.5 52.0 39.35 52.35 39.25 52.7 37.5 53.0 36.4 53.45 33.35 53.85 33.35 53.85 33.95 53.85 33.9 53.8 34.4 53.65 35.2 53.3 37.55 53.2 38.15 Q54.3 37.1 54.3 39.1 L54.85 38.45 55.15 38.25 54.8 36.8 54.5 34.85 54.6 33.9 54.75 33.9 55.5 38.25 Q55.7 38.35 55.7 38.95 L55.7 39.2 Q55.85 38.95 56.1 38.95 L56.15 38.95 55.95 37.9 55.95 36.15 56.15 34.55 56.4 32.4 56.7 32.4 M55.35 40.15 L55.25 40.4 55.45 40.25 55.5 39.85 55.35 40.15 M4.35 30.05 L4.95 33.45 5.15 34.45 5.7 35.2 Q5.95 34.75 6.3 34.6 6.6 33.65 6.95 33.35 7.65 34.25 7.65 35.85 L7.45 38.6 7.4 39.2 7.6 40.0 7.75 40.8 Q8.4 39.75 8.7 39.65 L8.7 39.6 8.7 39.65 8.95 39.85 9.0 40.45 Q9.0 42.05 8.3 44.15 L8.3 44.35 8.55 44.3 8.95 46.0 9.45 47.05 Q9.15 46.4 9.2 45.55 L8.85 44.0 Q8.85 42.7 9.75 44.3 10.6 45.85 11.0 47.55 L11.0 47.75 10.75 47.85 10.3 48.25 9.55 47.3 9.5 47.85 9.2 48.05 8.85 48.3 8.8 48.3 8.7 48.5 8.65 48.65 8.0 46.95 7.95 47.0 7.45 46.1 7.1 46.2 7.0 45.0 6.05 42.05 5.8 41.15 5.75 41.2 5.2 39.95 5.4 39.75 5.2 38.95 5.05 39.55 4.15 37.6 4.7 36.6 4.7 36.55 4.5 36.65 Q3.8 33.7 3.8 31.35 L3.95 30.05 4.35 30.05 M10.1 40.65 Q10.85 42.25 11.5 45.1 L11.7 46.0 11.8 46.0 12.65 47.8 12.55 48.05 Q12.8 48.15 12.3 48.15 L12.1 48.1 12.45 50.1 12.15 50.3 11.35 48.0 Q11.2 47.8 11.2 47.4 L10.75 45.4 Q10.05 42.1 10.05 41.5 L10.1 40.65 M15.85 42.7 Q13.95 39.45 13.95 38.35 13.95 38.05 14.15 38.05 L14.3 38.05 Q16.3 40.4 18.6 45.95 L18.4 46.25 17.7 45.5 18.2 47.15 18.0 47.45 Q16.9 46.7 16.6 45.35 L16.0 43.1 16.1 43.15 15.85 42.7 M15.05 45.95 Q15.25 45.45 15.5 45.3 L16.1 46.0 16.4 46.95 16.35 47.35 15.7 47.6 15.2 47.35 15.1 47.55 14.7 47.7 Q14.3 47.7 14.1 47.15 L14.0 47.25 13.6 47.25 13.6 45.9 13.8 45.8 13.8 45.7 Q13.8 45.35 13.95 45.25 14.0 45.2 14.3 45.1 L15.05 45.95 M20.8 45.95 L21.15 46.5 Q21.2 46.75 20.7 46.75 20.15 46.75 20.05 46.4 L20.05 46.3 Q19.8 47.05 18.95 47.0 18.65 46.3 18.65 45.05 L18.7 43.7 Q18.8 42.9 19.3 42.65 19.9 43.15 20.05 43.95 L20.1 45.3 20.1 45.75 20.5 45.35 20.8 45.95 M28.5 40.35 Q28.9 40.7 29.35 43.3 L29.55 42.5 Q29.9 41.9 30.5 43.75 L30.55 43.75 Q30.55 42.5 31.3 42.5 32.05 42.5 32.25 44.6 32.25 45.3 31.4 45.35 31.15 45.35 31.0 45.15 L30.6 44.95 29.9 45.6 29.45 45.0 29.2 45.85 Q29.4 46.0 28.9 46.0 28.65 46.0 27.9 41.9 27.9 40.75 28.5 40.35 M25.9 45.75 L25.8 46.3 Q25.8 46.55 25.3 46.55 L24.6 46.15 24.5 45.7 Q24.5 45.05 24.85 44.95 25.25 44.8 25.9 45.75 M23.9 45.9 Q23.9 46.5 23.3 46.75 22.7 46.35 22.55 45.95 L22.5 45.35 Q22.5 44.4 23.2 44.75 23.9 45.05 23.9 45.9 M28.3 46.65 Q26.3 43.9 25.0 39.5 25.75 40.3 26.9 42.5 L28.6 46.4 28.3 46.65 M38.45 41.45 Q40.0 41.65 40.0 42.4 L39.1 43.45 Q38.2 44.2 37.7 44.2 37.1 44.2 36.95 43.7 L36.95 43.65 Q36.55 43.55 36.45 42.85 L36.45 42.05 36.35 42.35 35.7 44.05 35.35 43.95 35.25 43.55 Q35.25 42.95 35.6 41.9 35.95 40.65 36.5 40.4 36.6 38.6 37.1 38.6 37.7 38.6 37.75 41.5 L38.45 41.45" fill="#448700" fill-rule="evenodd" stroke="none"/>
    <path d="M49.7 46.35 L50.85 51.4 50.75 51.85 50.4 52.05 Q49.25 48.6 49.25 47.4 49.25 46.65 49.7 46.35 M56.1 45.75 L55.8 47.1 Q55.45 48.2 55.1 48.45 54.6 48.15 54.7 47.65 L54.7 47.6 54.35 48.2 53.9 48.65 53.65 48.65 53.6 48.5 53.45 49.15 Q53.05 50.7 52.5 50.7 L52.2 50.65 52.15 50.75 51.4 50.9 51.2 49.9 Q51.2 48.0 52.2 47.75 L52.3 47.9 52.8 46.95 Q53.75 45.35 53.75 47.25 L53.7 47.9 54.85 45.85 Q56.1 43.85 56.1 45.75 M14.95 55.4 L14.5 56.55 13.7 57.75 13.15 57.2 Q13.15 56.8 13.65 56.0 L14.5 54.95 14.8 55.05 14.95 55.4 M11.5 54.15 Q12.25 54.35 12.25 55.65 12.25 57.0 11.3 57.65 L11.15 57.55 10.7 58.05 Q10.3 57.95 10.25 57.6 L10.05 57.65 10.2 58.0 10.1 58.7 9.7 58.85 Q9.35 58.85 8.7 57.15 9.4 56.9 9.9 56.25 L10.4 55.55 10.6 56.2 10.65 56.05 10.75 55.85 10.75 55.65 Q10.75 54.0 11.5 54.15" fill="#55a901" fill-rule="evenodd" stroke="none"/>
  </g>
</svg>
