<?xml version="1.0" encoding="UTF-8" standalone="no"?>
<svg xmlns:xlink="http://www.w3.org/1999/xlink" height="32.0px" width="31.95px" xmlns="http://www.w3.org/2000/svg">
  <g transform="matrix(1.0, 0.0, 0.0, 1.0, 0.75, 1.55)">
    <path d="M14.9 30.45 Q11.15 30.45 8.5 29.15 5.85 27.95 5.85 26.2 5.85 24.45 8.5 23.2 11.15 21.95 14.9 21.95 18.6 21.95 21.25 23.2 23.95 24.45 23.95 26.2 23.95 27.95 21.25 29.15 18.6 30.45 14.9 30.45" fill="#000000" fill-opacity="0.2" fill-rule="evenodd" stroke="none"/>
    <path d="M20.85 13.55 Q20.85 11.2 20.0 12.25 19.85 12.4 19.85 12.7 19.5 12.6 19.35 13.35 L19.0 14.75 Q18.45 15.95 17.05 16.95 L16.6 16.95 Q15.9 17.55 14.95 17.55 L14.35 17.5 14.4 17.8 14.35 17.8 Q13.5 17.6 13.35 17.4 12.85 16.2 12.35 16.45 11.95 16.7 11.95 17.4 11.95 18.05 12.65 18.85 13.4 19.7 14.6 19.95 L14.5 20.95 14.2 21.95 13.95 22.6 13.65 22.85 Q13.3 23.0 12.7 23.55 11.05 25.1 11.05 25.45 L11.15 25.8 Q11.45 26.15 12.4 26.15 L12.85 26.35 15.05 26.8 Q15.8 26.8 16.8 26.3 L17.7 25.55 17.85 24.9 17.7 24.5 17.35 22.55 17.15 21.5 17.15 21.4 17.15 20.9 17.1 20.4 17.1 20.15 17.65 18.8 18.85 17.85 21.25 15.95 22.1 14.0 Q22.35 13.1 22.7 12.95 L22.35 12.5 Q22.05 12.35 21.8 12.8 L21.65 12.8 21.5 12.85 20.9 13.35 20.8 14.2 20.85 13.55 Z" fill="none" stroke="#5c510e" stroke-linecap="round" stroke-linejoin="round" stroke-width="1.5"/>
    <path d="M19.05 14.65 L19.35 13.35 Q19.5 12.6 19.85 12.7 19.85 12.4 20.0 12.25 20.85 11.2 20.85 13.55 L20.8 14.2 20.9 13.35 21.5 12.85 21.65 12.8 21.8 12.8 Q22.05 12.35 22.35 12.5 L22.7 12.95 Q22.35 13.1 22.1 14.0 L21.9 14.55 20.1 14.75 19.05 14.65 M19.65 17.3 L18.85 17.85 17.65 18.8 17.1 20.15 17.1 20.4 17.15 20.9 17.15 21.4 17.15 21.5 17.35 22.55 17.7 24.5 17.85 24.9 17.7 25.55 16.8 26.3 Q15.8 26.8 15.05 26.8 L12.85 26.35 12.4 26.15 Q11.45 26.15 11.15 25.8 L11.05 25.45 Q11.05 25.1 12.7 23.55 13.3 23.0 13.65 22.85 L13.95 22.6 14.2 21.95 14.5 20.95 14.6 20.15 15.45 19.2 16.05 18.15 16.75 17.6 18.25 17.0 19.65 17.3 M12.1 18.05 L11.95 17.4 Q11.95 16.7 12.35 16.45 12.85 16.2 13.35 17.4 L13.55 17.55 12.75 17.75 12.1 18.05 M14.35 17.8 L14.4 17.8 14.35 17.5 14.85 17.55 14.35 17.95 14.35 17.8 M15.05 25.15 L15.05 25.0 14.95 25.15 15.05 25.15" fill="#817114" fill-rule="evenodd" stroke="none"/>
    <path d="M19.05 14.65 L20.1 14.75 21.9 14.55 21.25 15.95 21.25 16.0 20.25 16.85 19.65 17.3 18.25 17.0 16.75 17.6 16.05 18.15 15.45 19.2 14.6 20.15 14.6 19.95 13.45 19.5 13.2 19.35 13.1 19.25 12.95 19.15 12.8 19.0 12.7 18.9 12.65 18.85 12.5 18.65 12.4 18.6 12.1 18.05 12.75 17.75 13.55 17.55 14.35 17.8 14.35 17.95 14.85 17.55 14.95 17.55 15.15 17.55 15.35 17.55 15.95 17.35 16.3 17.2 16.6 16.95 17.05 16.95 17.65 16.5 18.45 15.65 18.5 15.65 18.8 15.15 18.85 15.1 18.85 15.05 18.9 14.95 18.95 14.9 19.0 14.75 19.05 14.65" fill="#695b10" fill-rule="evenodd" stroke="none"/>
    <path d="M15.95 9.25 L15.75 9.15 15.6 9.0 15.6 8.85 15.6 8.8 15.6 8.1 15.6 8.05 15.7 7.35 14.65 6.4 Q13.7 5.15 14.9 3.95 15.6 3.25 16.65 2.8 L18.55 2.5 18.3 2.15 18.15 1.2 18.2 0.4 18.3 0.25 18.5 0.1 18.65 -0.05 18.8 -0.15 19.1 -0.3 20.4 -0.25 20.65 -0.2 20.8 -0.05 20.9 0.1 Q21.05 -0.35 21.35 -0.65 L21.65 -0.8 22.9 -0.7 23.3 -0.6 23.55 -0.4 23.75 -0.15 24.0 0.3 24.05 0.45 24.8 0.55 25.25 0.7 25.35 0.6 25.65 0.25 25.85 0.15 27.75 0.2 28.35 0.6 28.45 0.75 28.5 1.5 28.45 2.25 28.5 2.3 28.85 3.25 28.9 3.65 28.9 4.4 28.9 4.55 28.9 4.65 29.1 4.8 29.4 5.0 Q30.55 5.6 30.45 6.9 L30.1 8.2 29.7 8.75 28.6 9.65 28.5 9.8 28.35 10.05 28.2 11.1 28.1 12.0 Q27.9 12.85 27.25 13.5 L26.65 13.9 24.8 14.05 24.5 14.0 24.3 13.85 24.05 13.6 24.15 13.6 23.95 13.5 22.85 13.8 22.45 13.85 22.3 14.0 21.85 14.6 21.7 14.8 21.45 14.85 19.95 14.9 19.65 14.85 19.55 14.7 19.2 14.05 19.05 13.25 19.1 13.0 18.25 12.5 18.0 12.3 18.0 12.15 18.0 12.1 17.85 12.15 Q16.35 12.8 15.15 11.85 L14.75 11.35 14.8 11.25 14.95 10.4 15.45 9.45 15.6 9.2 15.6 9.35 15.8 9.3 15.8 9.25 15.85 9.25 15.95 9.25 15.95 9.3 16.0 9.3 15.95 9.25 M27.25 3.9 L27.25 3.95 27.2 4.0 27.2 4.1 27.25 4.5 27.25 3.9 M16.8 5.1 L16.8 5.2 16.85 5.15 17.0 5.05 16.95 5.05 16.8 5.1 M18.25 9.95 L18.25 9.85 18.15 9.85 18.25 9.95 M16.65 9.55 L16.75 9.55 16.55 9.5 16.65 9.55" fill="#158901" fill-rule="evenodd" stroke="none"/>
    <path d="M15.95 9.25 L15.75 9.15 15.6 9.0 15.6 8.85 15.6 8.8 15.6 8.1 15.6 8.05 15.7 7.35 14.65 6.4 Q13.7 5.15 14.9 3.95 15.6 3.25 16.65 2.8 L18.55 2.5 18.3 2.15 18.15 1.2 18.2 0.4 18.3 0.25 18.5 0.1 18.65 -0.05 18.8 -0.15 19.1 -0.3 20.4 -0.25 20.65 -0.2 20.8 -0.05 20.9 0.1 Q21.05 -0.35 21.35 -0.65 L21.65 -0.8 22.9 -0.7 23.3 -0.6 23.55 -0.4 23.75 -0.15 24.0 0.3 24.05 0.45 24.8 0.55 25.25 0.7 25.35 0.6 25.65 0.25 25.85 0.15 27.75 0.2 28.35 0.6 28.45 0.75 28.5 1.5 28.45 2.25 28.5 2.3 28.85 3.25 28.9 3.65 28.9 4.4 28.9 4.55 28.9 4.65 29.1 4.8 29.4 5.0 Q30.55 5.6 30.45 6.9 L30.1 8.2 29.7 8.75 28.6 9.65 28.5 9.8 28.35 10.05 28.2 11.1 28.1 12.0 Q27.9 12.85 27.25 13.5 L26.65 13.9 24.8 14.05 24.5 14.0 24.3 13.85 24.05 13.6 24.15 13.6 23.95 13.5 22.85 13.8 22.45 13.85 22.3 14.0 21.85 14.6 21.7 14.8 21.45 14.85 19.95 14.9 19.65 14.85 19.55 14.7 19.2 14.05 19.05 13.25 19.1 13.0 18.25 12.5 18.0 12.3 18.0 12.15 18.0 12.1 17.85 12.15 Q16.35 12.8 15.15 11.85 L14.75 11.35 14.8 11.25 14.95 10.4 15.45 9.45 15.6 9.2 15.6 9.35 15.8 9.3 15.8 9.25 15.85 9.25 15.95 9.25 Z" fill="none" stroke="#137601" stroke-linecap="round" stroke-linejoin="round" stroke-width="1.5"/>
    <path d="M15.7 7.35 L14.65 6.4 Q13.7 5.15 14.9 3.95 15.6 3.25 16.65 2.8 L18.55 2.5 17.45 2.75 17.0 2.85 16.85 3.0 16.85 3.15 16.8 3.65 16.8 3.9 16.8 4.05 16.9 4.05 17.0 4.3 17.05 4.55 17.05 4.75 17.0 4.9 17.0 5.0 17.0 5.05 16.95 5.05 16.8 5.1 16.8 5.2 16.2 5.95 16.1 6.15 15.95 6.4 15.75 6.95 15.75 7.05 15.7 7.35" fill="#158901" fill-rule="evenodd" stroke="none"/>
    <path d="M24.05 0.45 L24.8 0.55 25.25 0.7 25.45 0.8 25.4 0.8 24.15 0.75 24.15 0.7 24.1 0.55 24.05 0.45" fill="#1ba901" fill-rule="evenodd" stroke="none"/>
    <path d="M18.55 2.5 L18.3 2.15 18.15 1.2 18.2 0.4 18.3 0.25 18.5 0.1 18.65 -0.05 18.8 -0.15 19.1 -0.3 20.4 -0.25 20.65 -0.2 20.8 -0.05 20.9 0.1 Q21.05 -0.35 21.35 -0.65 L21.65 -0.8 22.9 -0.7 23.3 -0.6 23.55 -0.4 23.75 -0.15 24.0 0.3 24.05 0.45 24.0 0.4 23.75 0.35 22.9 0.3 22.9 0.35 22.55 0.45 22.2 0.65 21.85 0.95 21.8 1.05 21.7 1.15 21.55 1.0 21.65 1.0 21.65 0.95 21.7 0.85 21.7 0.8 21.05 0.4 20.6 0.25 19.7 0.25 19.5 0.3 19.15 0.55 Q18.8 0.8 18.8 1.15 L18.7 1.65 18.55 1.95 18.55 2.2 18.55 2.25 18.55 2.45 18.55 2.5 M25.25 0.7 L25.35 0.6 25.65 0.25 25.85 0.15 27.75 0.2 28.35 0.6 28.45 0.75 28.5 1.5 28.45 2.25 28.4 2.2 28.25 2.0 27.95 1.95 26.4 1.7 26.4 1.85 26.3 1.7 26.2 1.5 26.15 1.35 26.05 1.15 25.9 1.05 25.75 0.9 25.5 0.85 25.45 0.8 25.25 0.7 M28.9 4.65 L29.1 4.8 29.4 5.0 Q30.55 5.6 30.45 6.9 L30.1 8.2 29.7 8.75 28.6 9.65 28.5 9.8 28.35 10.05 28.2 11.1 28.1 12.0 Q27.9 12.85 27.25 13.5 L26.65 13.9 24.8 14.05 24.5 14.0 24.3 13.85 24.05 13.6 24.15 13.6 23.95 13.5 22.85 13.8 22.45 13.85 22.3 14.0 21.85 14.6 21.7 14.8 21.45 14.85 19.95 14.9 19.65 14.85 19.55 14.7 19.2 14.05 19.05 13.25 19.1 13.0 18.25 12.5 18.0 12.3 18.0 12.15 18.0 12.1 17.85 12.15 Q16.35 12.8 15.15 11.85 L14.75 11.35 14.8 11.25 14.95 10.4 15.45 9.45 15.6 9.2 15.6 9.35 15.8 9.3 15.8 9.25 15.85 9.25 15.95 9.25 15.95 9.3 16.0 9.3 16.25 9.4 16.55 9.5 16.65 9.55 16.75 9.55 17.15 9.55 17.7 9.65 18.15 9.85 18.25 9.95 18.3 10.05 18.3 10.3 18.3 10.4 18.3 10.55 18.35 10.65 18.4 10.85 18.45 10.85 18.6 10.9 19.15 11.3 20.1 11.4 20.5 11.4 21.0 11.1 21.4 11.0 21.85 11.45 21.9 11.6 22.0 11.6 22.2 11.6 22.8 12.1 24.7 12.0 24.85 11.75 24.95 11.4 25.1 10.95 25.2 10.55 25.3 10.4 26.5 10.1 27.65 9.5 27.95 8.9 28.0 8.8 28.05 8.8 28.15 8.5 28.45 7.7 28.3 7.3 28.15 7.25 28.0 7.15 27.9 6.7 Q27.9 6.35 28.15 6.05 L28.4 5.45 28.5 4.8 28.65 4.7 28.8 4.65 28.8 4.6 28.9 4.65" fill="#3a8a00" fill-rule="evenodd" stroke="none"/>
    <path d="M28.45 2.25 L28.5 2.3 28.85 3.25 28.9 3.65 28.9 4.4 28.9 4.55 28.9 4.65 28.8 4.6 28.8 4.65 28.65 4.7 28.5 4.8 28.4 5.45 28.15 6.05 Q27.9 6.35 27.9 6.7 L28.0 7.15 28.15 7.25 28.3 7.3 28.45 7.7 28.15 8.5 28.05 8.8 28.0 8.8 27.95 8.9 27.65 9.5 26.5 10.1 25.3 10.4 25.2 10.55 25.1 10.95 24.95 11.4 24.85 11.75 24.7 12.0 22.8 12.1 22.2 11.6 22.0 11.6 21.9 11.6 21.85 11.45 21.4 11.0 21.0 11.1 20.5 11.4 20.1 11.4 19.15 11.3 18.6 10.9 18.45 10.85 18.4 10.85 18.35 10.65 18.3 10.55 18.3 10.4 18.3 10.3 18.3 10.05 18.25 9.95 18.25 9.85 18.15 9.85 17.7 9.65 17.15 9.55 16.75 9.55 16.55 9.5 16.25 9.4 16.0 9.3 15.95 9.25 15.75 9.15 15.6 9.0 15.6 8.85 15.6 8.8 15.6 8.1 15.6 8.05 15.7 7.35 15.75 7.05 15.75 6.95 15.95 6.4 16.1 6.15 16.2 5.95 16.8 5.2 16.85 5.15 17.0 5.05 17.0 5.0 17.0 4.9 17.05 4.75 17.05 4.55 17.0 4.3 16.9 4.05 16.8 4.05 16.8 3.9 16.8 3.65 16.85 3.15 16.85 3.0 17.0 2.85 17.45 2.75 18.55 2.5 18.55 2.45 18.55 2.25 18.55 2.2 18.55 1.95 18.7 1.65 18.8 1.15 Q18.8 0.8 19.15 0.55 L19.5 0.3 19.7 0.25 20.6 0.25 21.05 0.4 21.7 0.8 21.7 0.85 21.65 0.95 21.65 1.0 21.55 1.0 21.7 1.15 21.65 1.3 21.65 1.35 21.45 1.3 20.4 1.1 20.15 1.15 20.1 1.15 19.8 1.45 19.65 1.6 19.5 1.75 19.35 1.95 19.15 2.1 19.1 2.2 19.1 2.75 19.1 2.85 19.1 3.05 19.1 3.2 18.95 3.3 18.6 3.5 18.45 3.65 18.3 3.8 18.1 4.0 18.05 4.1 18.05 4.8 18.05 4.9 18.05 5.15 18.05 5.25 18.05 5.6 18.05 5.7 18.3 6.0 18.9 6.45 19.55 6.65 19.6 6.75 19.65 6.9 19.65 7.05 19.65 7.2 19.65 7.4 19.65 7.55 19.65 7.65 19.65 7.85 19.65 7.95 19.65 8.0 19.75 8.2 19.9 8.3 21.65 8.25 22.3 7.8 22.5 7.7 22.65 7.7 Q23.25 8.25 24.15 8.05 L25.45 7.2 25.7 6.4 25.75 6.3 25.8 6.1 26.6 5.6 27.1 4.95 27.2 4.75 27.2 4.6 27.25 4.6 27.25 4.5 27.25 3.9 27.25 3.8 27.2 3.4 27.2 3.25 27.1 3.05 26.9 2.95 26.75 2.75 26.5 2.55 26.4 2.45 26.4 2.3 26.4 2.05 26.4 1.95 26.4 1.85 26.4 1.7 27.95 1.95 28.25 2.0 28.4 2.2 28.45 2.25" fill="#51a901" fill-rule="evenodd" stroke="none"/>
    <path d="M21.7 1.15 L21.8 1.05 21.85 0.95 22.2 0.65 22.55 0.45 22.9 0.35 22.9 0.3 23.75 0.35 24.0 0.4 24.05 0.45 24.1 0.55 24.15 0.7 24.15 0.75 25.4 0.8 25.45 0.8 25.5 0.85 25.75 0.9 25.9 1.05 26.05 1.15 26.15 1.35 26.2 1.5 26.3 1.7 26.4 1.85 26.4 1.95 26.4 2.05 26.4 2.3 26.4 2.45 26.5 2.55 26.75 2.75 26.9 2.95 27.1 3.05 27.2 3.25 27.2 3.4 27.25 3.8 27.25 3.9 27.25 3.95 27.2 4.0 27.2 4.1 27.25 4.5 27.25 4.6 27.2 4.6 27.2 4.75 27.1 4.95 26.6 5.6 25.8 6.1 25.75 6.3 25.7 6.4 25.45 7.2 24.15 8.05 Q23.25 8.25 22.65 7.7 L22.5 7.7 22.3 7.8 21.65 8.25 19.9 8.3 19.75 8.2 19.65 8.0 19.65 7.95 19.65 7.85 19.65 7.65 19.65 7.55 19.65 7.4 19.65 7.2 19.65 7.05 19.65 6.9 19.6 6.75 19.55 6.65 18.9 6.45 18.3 6.0 18.05 5.7 18.05 5.6 18.05 5.25 18.05 5.15 18.05 4.9 18.05 4.8 18.05 4.1 18.1 4.0 18.3 3.8 18.45 3.65 18.6 3.5 18.95 3.3 19.1 3.2 19.1 3.05 19.1 2.85 19.1 2.75 19.1 2.2 19.15 2.1 19.35 1.95 19.5 1.75 19.65 1.6 19.8 1.45 20.1 1.15 20.15 1.15 20.4 1.1 21.45 1.3 21.65 1.35 21.65 1.3 21.7 1.15" fill="#7dc001" fill-rule="evenodd" stroke="none"/>
    <path d="M2.0 12.0 L1.8 11.85 1.6 11.65 1.6 11.5 1.6 11.45 1.6 10.6 1.6 10.55 1.7 9.7 0.45 8.6 Q-0.65 7.1 0.8 5.65 1.6 4.8 2.85 4.3 4.0 3.85 5.1 3.95 L4.85 3.5 Q4.6 2.95 4.65 2.4 L4.7 1.45 4.85 1.25 5.05 1.1 5.25 0.9 5.45 0.75 5.8 0.6 7.3 0.65 7.6 0.7 7.8 0.9 7.9 1.05 Q8.1 0.55 8.45 0.2 8.65 0.05 8.8 0.0 L10.3 0.1 10.8 0.25 11.05 0.45 11.3 0.75 11.6 1.3 11.7 1.5 12.55 1.6 13.1 1.8 13.25 1.65 13.6 1.25 13.8 1.15 16.1 1.2 16.8 1.65 16.9 1.85 16.95 2.75 16.9 3.65 16.95 3.7 Q17.4 4.2 17.4 4.85 L17.45 5.3 17.45 6.2 17.45 6.35 17.45 6.4 17.45 6.5 17.7 6.7 18.05 6.9 Q19.4 7.65 19.3 9.2 L18.9 10.7 18.4 11.4 17.1 12.45 17.0 12.6 16.8 12.95 16.6 14.15 16.5 15.25 Q16.25 16.25 15.5 17.05 L14.75 17.5 12.55 17.7 12.2 17.65 12.0 17.45 11.7 17.15 11.8 17.15 11.55 17.05 10.25 17.4 9.75 17.45 9.6 17.65 9.05 18.35 8.85 18.6 8.55 18.65 6.8 18.7 6.45 18.65 6.3 18.45 5.9 17.7 Q5.65 17.3 5.7 16.75 L5.75 16.45 4.75 15.85 4.45 15.6 4.45 15.4 4.45 15.35 4.3 15.4 Q2.5 16.2 1.05 15.1 L0.6 14.5 0.65 14.35 0.85 13.35 Q1.0 12.75 1.4 12.2 L1.6 11.9 1.6 12.1 1.85 12.05 1.85 12.0 1.9 12.0 2.0 12.0 2.05 12.05 2.1 12.05 2.0 12.0 M15.5 5.65 L15.45 5.7 15.45 5.85 15.5 6.3 15.5 5.6 15.5 5.65 M3.2 6.95 L3.05 7.0 3.05 7.15 3.1 7.1 3.25 6.95 3.2 6.95 M4.75 12.7 L4.65 12.7 4.75 12.8 4.75 12.7 M3.0 12.35 L2.75 12.3 2.85 12.35 3.0 12.35" fill="#158901" fill-rule="evenodd" stroke="none"/>
    <path d="M2.0 12.0 L1.8 11.85 1.6 11.65 1.6 11.5 1.6 11.45 1.6 10.6 1.6 10.55 1.7 9.7 0.45 8.6 Q-0.65 7.1 0.8 5.65 1.6 4.8 2.85 4.3 4.0 3.85 5.1 3.95 L4.85 3.5 Q4.6 2.95 4.65 2.4 L4.7 1.45 4.85 1.25 5.05 1.1 5.25 0.9 5.45 0.75 5.8 0.6 7.3 0.65 7.6 0.7 7.8 0.9 7.9 1.05 Q8.1 0.55 8.45 0.2 8.65 0.05 8.8 0.0 L10.3 0.1 10.8 0.25 11.05 0.45 11.3 0.75 11.6 1.3 11.7 1.5 12.55 1.6 13.1 1.8 13.25 1.65 13.6 1.25 13.8 1.15 16.1 1.2 16.8 1.65 16.9 1.85 16.95 2.75 16.9 3.65 16.95 3.7 Q17.4 4.2 17.4 4.85 L17.45 5.3 17.45 6.2 17.45 6.35 17.45 6.4 17.45 6.5 17.7 6.7 18.05 6.9 Q19.4 7.65 19.3 9.2 L18.9 10.7 18.4 11.4 17.1 12.45 17.0 12.6 16.8 12.95 16.6 14.15 16.5 15.25 Q16.25 16.25 15.5 17.05 L14.75 17.5 12.55 17.7 12.2 17.65 12.0 17.45 11.7 17.15 11.8 17.15 11.55 17.05 10.25 17.4 9.75 17.45 9.6 17.65 9.05 18.35 8.85 18.6 8.55 18.65 6.8 18.7 6.45 18.65 6.3 18.45 5.9 17.7 Q5.65 17.3 5.7 16.75 L5.75 16.45 4.75 15.85 4.45 15.6 4.45 15.4 4.45 15.35 4.3 15.4 Q2.5 16.2 1.05 15.1 L0.6 14.5 0.65 14.35 0.85 13.35 Q1.0 12.75 1.4 12.2 L1.6 11.9 1.6 12.1 1.85 12.05 1.85 12.0 1.9 12.0 2.0 12.0 Z" fill="none" stroke="#137601" stroke-linecap="round" stroke-linejoin="round" stroke-width="1.5"/>
    <path d="M11.7 1.5 L12.55 1.6 13.1 1.8 13.4 1.95 13.3 1.9 11.8 1.85 11.8 1.8 11.75 1.6 11.7 1.5" fill="#1ba901" fill-rule="evenodd" stroke="none"/>
    <path d="M13.1 1.8 L13.25 1.65 13.6 1.25 13.8 1.15 16.1 1.2 16.8 1.65 16.9 1.85 16.95 2.75 16.9 3.65 16.85 3.6 16.7 3.35 16.65 3.35 16.3 3.25 14.5 3.0 14.5 3.3 14.5 3.4 14.45 3.3 14.45 3.15 14.35 2.95 14.25 2.75 14.15 2.55 14.05 2.35 13.85 2.2 13.7 2.0 13.4 1.95 13.1 1.8 M17.45 6.5 L17.7 6.7 18.05 6.9 Q19.4 7.65 19.3 9.2 L18.9 10.7 18.4 11.4 17.1 12.45 17.0 12.6 16.8 12.95 16.6 14.15 16.5 15.25 Q16.25 16.25 15.5 17.05 L14.75 17.5 12.55 17.7 12.2 17.65 12.0 17.45 11.7 17.15 11.8 17.15 11.55 17.05 10.25 17.4 9.75 17.45 9.6 17.65 9.05 18.35 8.85 18.6 8.55 18.65 6.8 18.7 6.45 18.65 6.3 18.45 5.9 17.7 Q5.65 17.3 5.7 16.75 L5.75 16.45 4.75 15.85 4.45 15.6 4.45 15.4 4.45 15.35 4.3 15.4 Q2.5 16.2 1.05 15.1 L0.6 14.5 0.65 14.35 0.85 13.35 Q1.0 12.75 1.4 12.2 L1.6 11.9 1.6 12.1 1.85 12.05 1.85 12.0 1.9 12.0 2.0 12.0 2.05 12.05 2.1 12.05 2.4 12.15 2.75 12.3 2.85 12.35 3.0 12.35 3.45 12.35 4.1 12.45 Q4.4 12.5 4.65 12.7 L4.75 12.8 4.8 12.9 4.85 13.2 4.8 13.25 4.8 13.35 4.85 13.55 4.9 13.65 4.95 13.85 5.0 13.9 5.2 13.95 Q5.4 14.35 5.85 14.4 L6.95 14.55 7.45 14.55 8.05 14.2 8.5 14.05 9.05 14.6 9.1 14.75 9.25 14.75 9.45 14.75 10.2 15.35 12.45 15.25 12.6 14.95 12.75 14.55 12.95 14.0 13.05 13.55 13.15 13.35 14.6 13.0 Q15.4 12.8 15.95 12.3 L16.35 11.55 16.4 11.45 16.45 11.45 16.55 11.1 16.9 10.15 16.75 9.65 16.55 9.6 16.4 9.5 16.25 8.95 Q16.25 8.5 16.55 8.15 L16.85 7.45 16.95 6.7 17.0 6.65 Q17.05 6.55 17.15 6.55 L17.35 6.5 17.35 6.45 17.45 6.5 M1.7 9.7 L0.45 8.6 Q-0.65 7.1 0.8 5.65 1.6 4.8 2.85 4.3 4.0 3.85 5.1 3.95 L4.85 3.5 Q4.6 2.95 4.65 2.4 L4.7 1.45 4.85 1.25 5.05 1.1 5.25 0.9 5.45 0.75 5.8 0.6 7.3 0.65 7.6 0.7 7.8 0.9 7.9 1.05 Q8.1 0.55 8.45 0.2 8.65 0.05 8.8 0.0 L10.3 0.1 10.8 0.25 11.05 0.45 11.3 0.75 11.6 1.3 11.7 1.5 11.6 1.45 11.3 1.35 10.3 1.3 10.3 1.35 9.9 1.5 9.5 1.75 9.45 1.75 9.05 2.1 9.0 2.2 8.9 2.3 8.9 2.35 8.85 2.3 8.7 2.15 8.8 2.15 8.8 2.1 8.9 1.95 8.85 1.9 Q8.55 1.55 8.1 1.4 L7.55 1.25 6.5 1.25 6.25 1.3 5.85 1.6 Q5.45 1.9 5.4 2.35 L5.3 2.9 5.15 3.3 5.1 3.55 5.1 3.65 5.1 3.85 5.1 3.95 3.8 4.2 3.3 4.35 3.1 4.55 3.1 4.7 3.05 5.3 3.05 5.6 3.05 5.75 3.15 5.75 3.3 6.05 3.35 6.35 3.35 6.6 3.3 6.8 3.25 6.9 3.25 6.95 3.2 6.95 3.05 7.0 3.05 7.15 2.35 8.05 2.2 8.3 2.05 8.6 1.8 9.25 1.8 9.35 1.7 9.7" fill="#3a8a00" fill-rule="evenodd" stroke="none"/>
    <path d="M16.9 3.65 L16.95 3.7 Q17.4 4.2 17.4 4.85 L17.45 5.3 17.45 6.2 17.45 6.35 17.45 6.4 17.45 6.5 17.35 6.45 17.35 6.5 17.15 6.55 Q17.05 6.55 17.0 6.65 L16.95 6.7 16.85 7.45 16.55 8.15 Q16.25 8.5 16.25 8.95 L16.4 9.5 16.55 9.6 16.75 9.65 16.9 10.15 16.55 11.1 16.45 11.45 16.4 11.45 16.35 11.55 15.95 12.3 Q15.4 12.8 14.6 13.0 L13.15 13.35 13.05 13.55 12.95 14.0 12.75 14.55 12.6 14.95 12.45 15.25 10.2 15.35 9.45 14.75 9.25 14.75 9.1 14.75 9.05 14.6 8.5 14.05 8.05 14.2 7.45 14.55 6.95 14.55 5.85 14.4 Q5.4 14.35 5.2 13.95 L5.0 13.9 4.95 13.85 4.9 13.65 4.85 13.55 4.8 13.35 4.8 13.25 4.85 13.2 4.8 12.9 4.75 12.8 4.75 12.7 4.65 12.7 Q4.4 12.5 4.1 12.45 L3.45 12.35 3.0 12.35 2.75 12.3 2.4 12.15 2.1 12.05 2.0 12.0 1.8 11.85 1.6 11.65 1.6 11.5 1.6 11.45 1.6 10.6 1.6 10.55 1.7 9.7 1.8 9.35 1.8 9.25 2.05 8.6 2.2 8.3 2.35 8.05 3.05 7.15 3.1 7.1 3.25 6.95 3.25 6.9 3.3 6.8 3.35 6.6 3.35 6.35 3.3 6.05 3.15 5.75 3.05 5.75 3.05 5.6 3.05 5.3 3.1 4.7 3.1 4.55 3.3 4.35 3.8 4.2 5.1 3.95 5.1 3.85 5.1 3.65 5.1 3.55 5.15 3.3 5.3 2.9 5.4 2.35 Q5.45 1.9 5.85 1.6 L6.25 1.3 6.5 1.25 7.55 1.25 8.1 1.4 Q8.55 1.55 8.85 1.9 L8.9 1.95 8.8 2.1 8.8 2.15 8.7 2.15 8.85 2.3 8.9 2.35 8.8 2.5 8.8 2.55 8.6 2.5 7.3 2.25 7.05 2.3 6.95 2.35 6.6 2.7 6.45 2.85 6.25 3.05 6.05 3.25 5.85 3.45 5.75 3.6 5.75 4.25 5.75 4.35 5.75 4.45 5.75 4.55 5.75 4.6 5.75 4.75 5.6 4.9 5.2 5.15 5.0 5.3 4.8 5.5 4.6 5.7 4.5 5.85 4.5 6.7 4.5 6.8 4.5 7.1 4.5 7.2 4.5 7.25 4.5 7.35 4.5 7.6 4.5 7.75 4.8 8.1 5.55 8.65 6.3 8.9 6.4 9.0 6.45 9.2 6.45 9.35 6.45 9.55 6.45 9.75 6.45 9.95 6.45 10.05 6.45 10.1 6.45 10.2 6.45 10.3 6.45 10.4 6.45 10.5 6.55 10.7 6.75 10.85 8.8 10.8 9.6 10.25 9.8 10.15 10.0 10.1 Q10.75 10.8 11.8 10.55 12.75 10.35 13.35 9.55 L13.65 8.6 13.7 8.45 13.75 8.25 14.7 7.6 15.3 6.85 15.45 6.6 15.45 6.45 15.5 6.45 15.5 6.4 15.5 6.35 15.5 6.3 15.5 5.6 15.5 5.5 15.45 5.0 15.4 4.8 15.3 4.6 15.1 4.45 14.9 4.25 14.6 4.0 14.5 3.85 14.5 3.7 14.5 3.4 14.5 3.3 14.5 3.0 16.3 3.25 16.65 3.35 16.7 3.35 16.85 3.6 16.9 3.65" fill="#51a901" fill-rule="evenodd" stroke="none"/>
    <path d="M13.4 1.95 L13.7 2.0 13.85 2.2 14.05 2.35 14.15 2.55 14.25 2.75 14.35 2.95 14.45 3.15 14.45 3.3 14.5 3.4 14.5 3.7 14.5 3.85 14.6 4.0 14.9 4.25 15.1 4.45 15.3 4.6 15.4 4.8 15.45 5.0 15.5 5.5 15.5 5.6 15.5 5.65 15.45 5.7 15.45 5.85 15.5 6.3 15.5 6.35 15.5 6.4 15.5 6.45 15.45 6.45 15.45 6.6 15.3 6.85 14.7 7.6 13.75 8.25 13.7 8.45 13.65 8.6 13.35 9.55 Q12.75 10.35 11.8 10.55 10.75 10.8 10.0 10.1 L9.8 10.15 9.6 10.25 8.8 10.8 6.75 10.85 6.55 10.7 6.45 10.5 6.45 10.4 6.45 10.3 6.45 10.2 6.45 10.1 6.45 10.05 6.45 9.95 6.45 9.75 6.45 9.55 6.45 9.35 6.45 9.2 6.4 9.0 6.3 8.9 5.55 8.65 4.8 8.1 4.5 7.75 4.5 7.6 4.5 7.35 4.5 7.25 4.5 7.2 4.5 7.1 4.5 6.8 4.5 6.7 4.5 5.85 4.6 5.7 4.8 5.5 5.0 5.3 5.2 5.15 5.6 4.9 5.75 4.75 5.75 4.6 5.75 4.55 5.75 4.45 5.75 4.35 5.75 4.25 5.75 3.6 5.85 3.45 6.05 3.25 6.25 3.05 6.45 2.85 6.6 2.7 6.95 2.35 7.05 2.3 7.3 2.25 8.6 2.5 8.8 2.55 8.8 2.5 8.9 2.35 8.9 2.3 9.0 2.2 9.05 2.1 9.45 1.75 9.5 1.75 9.9 1.5 10.3 1.35 10.3 1.3 11.3 1.35 11.6 1.45 11.7 1.5 11.75 1.6 11.8 1.8 11.8 1.85 13.3 1.9 13.4 1.95" fill="#7dc001" fill-rule="evenodd" stroke="none"/>
    <path d="M28.0 2.85 L27.95 3.1 27.7 3.2 27.4 2.85 Q27.4 2.45 27.95 2.65 L28.0 2.85 M27.85 2.4 L27.8 2.25 27.85 2.15 28.05 2.3 27.85 2.4 M27.95 1.3 L27.9 1.55 27.85 1.6 27.7 1.65 27.45 1.45 27.4 1.2 27.9 1.2 27.95 1.3 M26.6 5.8 L25.7 6.15 Q24.95 6.15 24.8 5.65 L24.8 5.6 24.7 5.7 24.35 5.4 Q24.35 5.25 24.75 5.2 L24.8 5.3 24.8 5.05 Q24.8 3.75 25.95 3.85 27.1 3.9 27.1 4.8 27.1 5.4 26.6 5.8 M27.55 4.3 L28.05 4.15 28.15 4.3 28.1 4.5 27.85 4.6 27.65 4.55 27.55 4.3 M26.65 3.35 Q26.6 3.5 26.35 3.5 L26.3 3.25 26.6 3.25 26.65 3.35 M23.1 0.1 L23.05 0.35 22.9 0.4 22.7 0.25 23.05 0.05 23.1 0.1 M20.35 1.05 Q20.35 0.35 21.05 0.25 21.7 0.15 21.7 1.05 L21.4 1.45 20.9 1.65 Q20.45 1.65 20.35 1.3 L20.35 1.05 M20.55 2.2 L20.3 2.4 Q20.15 2.35 20.15 2.15 L20.45 2.05 20.55 2.2 M22.7 2.1 L22.5 2.2 22.3 1.95 22.5 1.7 22.7 2.1 M21.75 3.3 L21.7 3.55 21.45 3.65 21.15 3.35 Q21.15 3.1 21.7 3.1 L21.75 3.3 M21.15 5.85 Q21.15 6.6 20.6 6.6 L20.1 6.3 20.05 5.95 Q20.05 5.45 20.6 5.3 21.15 5.2 21.15 5.85 M22.35 6.0 L22.3 6.3 22.05 6.35 21.7 6.1 Q21.7 5.8 22.3 5.85 L22.35 6.0 M23.5 6.05 L23.55 6.15 Q23.5 6.3 23.25 6.3 L23.2 6.05 23.5 6.05 M23.0 4.7 L23.2 4.5 23.4 4.8 23.3 4.9 23.05 4.9 23.0 4.7 M24.4 6.4 L24.25 6.55 24.15 6.5 24.15 6.35 24.4 6.4 M25.1 6.45 Q25.35 6.35 25.5 6.75 L25.2 7.05 24.9 6.75 25.1 6.45 M21.65 7.65 L21.35 7.75 21.1 7.45 21.2 7.2 21.65 7.2 21.7 7.4 21.65 7.65 M20.7 8.35 L20.65 8.7 20.4 8.8 20.1 8.45 20.15 8.15 Q20.25 7.95 20.65 8.15 L20.7 8.35 M20.45 10.25 L20.2 10.4 19.95 10.2 20.2 9.9 20.45 10.1 20.45 10.25 M21.35 11.8 Q21.35 11.35 21.9 11.5 L21.95 11.75 21.9 12.0 21.65 12.15 Q21.4 12.15 21.35 12.0 L21.35 11.8 M20.25 11.6 L20.2 11.35 20.25 11.15 20.8 11.15 20.85 11.35 20.8 11.6 20.6 11.65 20.25 11.6 M25.1 10.7 L25.05 10.85 24.8 10.95 24.55 10.65 24.8 10.4 25.1 10.7 M25.1 9.35 L25.3 9.7 25.1 9.85 24.9 9.6 25.1 9.35 M22.8 9.65 Q22.8 8.85 23.65 8.85 24.25 8.85 24.2 9.55 24.2 10.25 23.5 10.25 22.8 10.25 22.8 9.65 M23.15 11.6 L23.15 11.75 22.9 11.9 22.65 11.7 22.9 11.4 23.15 11.6 M29.85 6.8 L29.65 6.95 29.5 6.75 29.55 6.6 29.8 6.6 29.85 6.8 M28.65 8.2 Q28.65 7.5 29.15 7.45 29.65 7.4 29.65 7.95 29.65 8.65 29.15 8.65 L28.7 8.45 28.65 8.2 M25.6 8.45 L25.85 8.65 25.6 9.0 25.4 8.7 25.6 8.45 M26.25 9.85 L26.0 9.85 25.95 9.6 26.0 9.45 26.3 9.5 26.4 9.6 26.25 9.85 M26.15 12.05 L26.1 11.7 26.2 11.5 26.65 11.45 26.8 11.75 26.75 12.05 26.45 12.15 26.15 12.05 M27.55 11.85 L27.35 12.05 27.15 11.75 27.2 11.6 27.35 11.55 27.55 11.85 M26.65 12.85 L26.9 13.05 26.65 13.35 26.4 13.15 26.65 12.85 M24.35 13.4 L24.3 13.1 Q24.3 12.45 25.0 12.3 25.65 12.1 25.65 12.95 25.65 13.65 24.8 13.65 24.45 13.65 24.35 13.4 M22.4 12.5 L22.6 12.85 22.4 13.05 22.3 13.0 22.05 13.1 21.85 13.05 21.75 12.8 21.8 12.6 22.25 12.65 22.4 12.5 M20.85 13.15 Q20.85 13.8 20.45 13.8 L19.95 13.4 19.9 13.0 Q19.9 12.5 20.4 12.55 20.85 12.6 20.85 13.15 M19.5 1.05 L19.3 1.35 Q18.95 1.25 18.95 1.0 L19.05 0.8 19.45 0.85 19.5 1.05 M18.8 2.35 Q18.8 2.15 19.05 2.15 L19.3 2.35 19.15 2.6 18.9 2.6 18.8 2.35 M20.0 3.0 L19.8 3.2 19.6 2.95 Q19.6 2.75 19.85 2.75 L20.0 3.0 M15.8 2.6 Q16.2 2.6 16.2 3.0 L16.05 3.4 Q15.85 3.6 15.65 3.6 15.4 3.6 15.3 3.3 L15.25 3.0 Q15.25 2.6 15.8 2.6 M15.25 1.75 Q15.25 1.45 15.45 1.4 L15.95 1.75 15.6 2.05 15.3 2.0 15.25 1.75 M16.95 2.6 L16.7 2.75 16.45 2.45 16.7 2.15 16.95 2.6 M13.25 2.55 Q13.7 2.55 13.7 3.0 13.7 3.5 13.2 3.5 L12.8 3.25 12.75 3.0 Q12.75 2.55 13.25 2.55 M11.0 2.8 Q10.6 2.8 10.6 2.45 L10.65 2.25 11.35 2.45 11.0 2.8 M10.65 5.3 Q9.9 5.3 9.7 4.9 L9.65 4.45 Q9.65 3.55 10.65 3.35 11.65 3.2 11.65 4.2 11.65 5.3 10.65 5.3 M13.6 5.8 Q13.6 5.6 14.15 5.55 L14.2 5.8 14.15 6.0 14.1 6.05 13.65 6.05 13.6 5.8 M13.75 8.45 L13.5 8.65 13.25 8.3 Q13.4 8.15 13.65 8.15 L13.75 8.45 M12.25 6.9 Q11.8 6.9 11.8 6.55 11.8 6.15 12.25 6.15 12.65 6.15 12.65 6.5 12.65 6.9 12.25 6.9 M11.3 9.95 Q11.3 9.2 11.9 9.2 12.45 9.2 12.45 9.8 12.45 10.65 11.85 10.65 11.4 10.65 11.3 10.3 L11.3 9.95 M13.35 9.85 L13.05 9.55 13.25 9.25 Q13.5 9.15 13.65 9.55 L13.35 9.85 M14.2 10.1 Q13.85 9.95 13.85 9.7 13.85 9.35 14.2 9.3 14.55 9.25 14.55 9.7 L14.2 10.1 M17.75 8.35 L17.35 8.1 Q17.45 7.7 17.75 7.7 L18.05 8.0 17.75 8.35 M16.85 9.5 L16.6 9.6 16.35 9.3 16.6 9.05 16.9 9.35 16.85 9.5 M18.05 9.35 Q18.05 8.6 18.65 8.6 19.2 8.6 19.2 9.3 19.2 9.9 18.6 9.9 18.3 9.9 18.15 9.65 L18.05 9.35 M9.6 2.1 Q9.15 2.1 9.05 1.8 L9.05 1.45 Q9.05 0.9 9.6 0.8 10.1 0.7 10.1 1.45 10.1 2.1 9.6 2.1 M7.7 2.3 L7.45 2.45 7.2 2.2 7.6 2.0 7.7 2.3 M9.65 2.8 L9.7 3.25 9.3 3.3 9.25 3.05 Q9.25 2.85 9.65 2.8 M6.05 1.6 L6.1 1.85 6.0 2.1 5.85 2.15 5.55 2.1 5.5 1.85 Q5.5 1.65 6.05 1.6 M7.95 3.7 L7.85 3.85 7.6 3.85 7.55 3.6 7.6 3.45 7.75 3.4 7.95 3.7 M3.45 5.5 L3.2 5.8 2.8 5.5 Q2.8 5.3 3.35 5.25 L3.45 5.5 M4.8 5.85 Q4.7 5.95 4.55 6.0 L4.35 5.65 4.4 5.5 4.55 5.45 4.8 5.85 M3.85 7.5 L3.85 7.75 3.6 7.85 3.35 7.55 3.4 7.4 3.6 7.35 3.85 7.5 M1.95 7.45 Q1.35 7.45 1.4 6.75 1.4 6.2 1.95 6.15 2.45 6.05 2.45 6.8 2.45 7.45 1.95 7.45 M2.45 11.85 L2.6 11.8 2.85 12.0 2.7 12.25 2.45 12.25 2.4 12.0 2.45 11.85 M3.45 10.6 L3.3 10.8 3.05 10.8 3.0 10.5 3.05 10.25 3.2 10.25 3.45 10.6 M4.45 12.1 L4.7 12.3 4.7 12.5 4.45 12.6 4.2 12.35 4.45 12.1 M4.5 11.05 L4.45 11.25 4.25 11.35 4.0 11.15 4.25 10.85 4.5 11.05 M8.9 9.0 L8.45 8.75 8.4 8.45 Q8.4 8.15 8.9 8.0 9.2 8.15 9.4 8.4 9.4 8.8 8.9 9.0 M6.65 7.0 L6.65 6.7 Q6.65 6.05 7.3 6.05 7.8 6.05 7.8 6.65 7.8 7.3 7.2 7.3 6.75 7.3 6.65 7.0 M9.05 11.1 Q9.05 11.65 8.5 11.65 8.1 11.65 8.05 11.3 L8.05 11.05 Q8.05 10.45 8.55 10.4 9.05 10.4 9.05 11.1 M9.3 14.7 L9.25 14.3 Q9.25 13.75 9.8 13.6 10.35 13.5 10.35 14.25 10.35 15.05 9.7 15.05 L9.3 14.7 M8.0 15.15 L8.1 15.3 8.0 15.6 7.9 15.65 7.65 15.6 7.6 15.3 Q7.6 15.1 7.85 15.1 L8.0 15.15 M5.9 14.1 Q5.2 14.1 5.2 13.1 5.2 12.35 6.05 12.35 6.65 12.35 6.6 13.15 6.6 14.1 5.9 14.1 M7.25 16.95 Q7.25 16.35 7.8 16.3 8.3 16.25 8.3 16.95 8.3 17.6 7.9 17.6 7.45 17.6 7.3 17.25 L7.25 16.95 M7.0 16.25 L6.95 16.4 6.75 16.5 6.5 16.45 6.45 16.25 6.5 16.1 6.95 16.1 7.0 16.25 M9.05 16.45 L8.8 16.55 8.55 16.25 8.8 15.95 9.1 16.3 9.05 16.45 M9.6 16.75 L9.35 17.05 9.1 16.75 9.35 16.55 9.6 16.75 M15.45 15.45 L15.05 15.1 15.05 14.8 Q15.05 14.15 15.55 14.2 16.0 14.25 16.0 14.95 L15.45 15.45 M14.2 12.95 L13.9 12.65 Q13.9 12.45 14.4 12.4 L14.5 12.65 14.45 12.85 14.2 12.95 M13.05 14.4 L13.0 14.6 12.75 14.7 12.45 14.4 Q12.45 14.05 12.75 14.05 13.05 14.05 13.05 14.4 M11.75 15.2 L11.4 15.5 11.15 15.15 11.65 15.05 11.75 15.2 M12.3 14.1 L12.25 14.25 12.0 14.35 Q11.75 14.3 11.75 14.05 L12.0 13.8 12.3 14.1" fill="#ddee11" fill-rule="evenodd" stroke="none"/>
  </g>
</svg>
