<?xml version="1.0" encoding="UTF-8" standalone="no"?>
<svg xmlns:xlink="http://www.w3.org/1999/xlink" height="51.7px" width="67.1px" xmlns="http://www.w3.org/2000/svg">
  <g transform="matrix(1.0, 0.0, 0.0, 1.0, 3.05, -12.35)">
    <path d="M63.95 63.05 L64.0 63.05 64.0 63.2 64.05 64.05 63.95 64.05 0.0 64.05 0.05 63.5 0.05 63.05 63.95 63.05" fill="#44505b" fill-rule="evenodd" stroke="none"/>
    <path d="M0.05 63.05 L-0.1 62.8 -0.1 51.8 63.95 51.8 63.95 63.05 0.05 63.05" fill="#7b8c9b" fill-rule="evenodd" stroke="none"/>
    <path d="M63.95 62.2 L-0.1 62.2 -0.1 50.45 63.95 50.45 63.95 62.2" fill="#98a5b1" fill-rule="evenodd" stroke="none"/>
    <path d="M38.0 50.4 L38.0 49.7 Q38.15 49.55 38.35 49.55 L63.75 49.55 63.95 49.6 63.95 50.5 63.75 50.55 38.35 50.55 38.0 50.4" fill="#44505b" fill-rule="evenodd" stroke="none"/>
    <path d="M35.25 60.8 L-0.2 60.8 -0.2 38.9 35.25 38.9 35.25 60.8" fill="#da4141" fill-rule="evenodd" stroke="none"/>
    <path d="M35.25 60.8 L-0.2 60.8 -0.2 38.9 35.25 38.9 35.25 60.8 Z" fill="none" stroke="#5a1212" stroke-linecap="round" stroke-linejoin="round" stroke-width="2.0"/>
    <path d="M26.35 60.8 L20.7 60.8 20.7 59.5 26.35 59.5 26.35 60.8 M14.35 60.8 L8.7 60.8 8.7 59.5 14.35 59.5 14.35 60.8" fill="#770000" fill-rule="evenodd" stroke="none"/>
    <path d="M20.7 60.8 L14.35 60.8 14.35 59.5 8.7 59.5 8.7 60.8 -0.2 60.8 -0.2 49.9 35.25 49.9 35.25 60.8 26.35 60.8 26.35 59.5 20.7 59.5 20.7 60.8" fill="#9b0000" fill-rule="evenodd" stroke="none"/>
    <path d="M-0.2 49.9 L-0.2 38.9 35.25 38.9 35.25 49.9 -0.2 49.9" fill="#dd0000" fill-rule="evenodd" stroke="none"/>
    <path d="M9.65 49.9 L9.65 38.7 9.65 38.6 9.75 38.6 9.85 38.6 9.9 38.7 9.9 49.9 9.65 49.9 M6.15 49.9 L6.15 38.75 6.15 38.65 6.25 38.65 6.35 38.65 6.4 38.75 6.4 49.9 6.15 49.9 M2.5 49.9 L2.5 38.7 2.5 38.6 2.6 38.6 2.7 38.6 2.75 38.7 2.75 49.9 2.5 49.9 M13.0 49.9 L13.0 38.7 13.0 38.6 13.1 38.6 13.2 38.6 13.25 38.7 13.25 49.9 13.0 49.9 M16.5 49.9 L16.5 38.75 16.5 38.65 16.6 38.65 16.7 38.65 16.75 38.75 16.75 49.9 16.5 49.9 M27.9 49.9 L27.9 38.45 27.9 38.35 28.0 38.35 28.1 38.35 28.15 38.45 28.15 49.9 27.9 49.9 M20.35 49.9 L20.35 38.55 20.35 38.45 20.45 38.45 20.55 38.45 20.6 38.55 20.6 49.9 20.35 49.9 M24.25 49.9 L24.25 38.55 24.25 38.45 24.35 38.45 24.45 38.45 24.5 38.55 24.5 49.9 24.25 49.9 M31.6 49.9 L31.6 38.75 31.6 38.65 31.7 38.65 31.8 38.65 31.85 38.75 31.85 49.9 31.6 49.9" fill="#9f0000" fill-rule="evenodd" stroke="none"/>
    <path d="M9.65 49.9 L9.9 49.9 9.9 61.05 9.85 61.15 9.75 61.2 9.65 61.15 9.65 61.05 9.65 49.9 M6.15 49.9 L6.4 49.9 6.4 61.05 6.35 61.15 6.25 61.2 6.15 61.15 6.15 61.05 6.15 49.9 M2.5 49.9 L2.75 49.9 2.75 61.0 2.7 61.1 2.6 61.15 2.5 61.1 2.5 61.0 2.5 49.9 M13.0 49.9 L13.25 49.9 13.25 60.9 13.2 61.0 13.1 61.05 13.0 61.0 13.0 60.9 13.0 49.9 M16.5 49.9 L16.75 49.9 16.75 60.65 16.7 60.75 16.6 60.8 16.5 60.75 16.5 60.65 16.5 49.9 M27.9 49.9 L28.15 49.9 28.15 61.05 28.1 61.15 28.0 61.2 27.9 61.15 27.9 61.05 27.9 49.9 M20.35 49.9 L20.6 49.9 20.6 60.5 20.55 60.6 20.45 60.65 20.35 60.6 20.35 60.5 20.35 49.9 M24.25 49.9 L24.5 49.9 24.5 60.8 24.45 60.9 24.35 60.95 24.25 60.9 24.25 60.8 24.25 49.9 M31.6 49.9 L31.85 49.9 31.85 61.5 31.8 61.6 31.7 61.65 31.6 61.6 31.6 61.5 31.6 49.9" fill="#640000" fill-rule="evenodd" stroke="none"/>
    <path d="M14.35 60.8 L8.7 60.8 8.7 59.5 14.35 59.5 14.35 60.8 M26.35 60.8 L20.7 60.8 20.7 59.5 26.35 59.5 26.35 60.8" fill="#770000" fill-rule="evenodd" stroke="none"/>
    <path d="M17.55 57.25 L17.15 57.95 17.95 57.95 17.55 57.25 M16.75 55.9 L16.65 55.8 16.45 55.8 16.5 56.05 16.75 55.9 16.75 56.0 16.85 56.1 17.0 56.0 16.95 55.75 16.75 55.75 16.75 55.9 M20.1 58.75 L20.2 58.65 20.2 58.75 20.1 58.75 M14.9 55.45 L14.95 55.4 14.95 55.45 14.9 55.45 M13.55 53.0 L13.65 52.95 13.7 52.85 13.6 52.75 13.45 52.75 13.55 53.0 M14.7 52.45 L14.8 52.4 14.85 52.3 14.75 52.2 14.6 52.2 14.7 52.45 M13.8 52.45 L13.65 52.45 13.75 52.7 13.8 52.7 13.85 52.9 13.95 52.85 14.0 52.75 13.95 52.6 13.9 52.65 13.9 52.55 13.8 52.45 M19.25 54.5 L19.35 54.45 19.4 54.35 19.3 54.25 19.15 54.25 19.25 54.5 M18.85 53.05 L18.55 52.8 18.55 53.1 18.7 53.2 18.8 53.15 18.85 53.05 M19.4 54.0 L19.5 53.95 19.55 53.85 19.45 53.75 19.3 53.75 19.4 54.0 M19.95 53.35 L19.8 53.35 19.9 53.6 20.0 53.55 20.05 53.45 19.95 53.35 M16.85 55.65 L17.0 55.55 17.0 55.6 17.1 55.55 17.15 55.45 17.05 55.35 16.9 55.35 16.75 55.4 16.85 55.65 M16.15 55.65 L15.95 55.45 Q15.7 55.45 15.7 55.7 L15.15 55.5 15.2 55.4 15.0 55.25 14.9 55.25 14.65 55.3 14.7 55.4 14.65 55.4 14.4 55.45 Q14.25 55.3 14.1 55.3 L13.9 55.3 13.9 55.6 13.5 55.95 Q13.15 56.4 13.4 56.95 13.65 57.45 14.2 57.85 L15.3 58.1 16.15 57.9 16.35 57.9 16.6 57.45 16.55 57.35 16.6 57.25 16.7 57.2 16.8 56.85 16.75 56.75 16.8 56.7 16.85 56.6 16.75 56.5 16.65 56.5 16.5 56.35 16.4 56.25 16.35 56.3 16.2 56.1 16.4 55.8 16.3 55.7 16.15 55.7 16.15 55.65 M20.2 52.4 L20.05 52.45 Q19.95 52.75 20.2 52.85 L20.45 52.6 20.2 52.4 M21.85 56.85 Q22.05 56.3 21.7 55.85 21.35 55.35 20.6 55.4 19.85 55.4 19.3 55.9 L19.3 55.95 19.15 55.9 18.95 56.1 18.95 56.15 18.8 56.35 18.8 56.45 18.65 56.9 18.9 57.65 18.85 57.85 19.05 58.1 19.25 57.95 20.05 58.1 21.2 57.75 21.85 56.85 M20.55 54.1 L20.25 53.9 20.2 53.9 20.2 53.85 20.1 53.75 19.95 53.75 20.05 54.0 20.1 54.0 19.9 54.05 20.0 54.3 20.1 54.25 20.1 54.4 20.25 54.5 20.55 54.1 M20.6 53.55 L20.6 53.65 20.55 53.6 20.35 53.6 20.4 53.85 20.6 53.75 20.6 53.85 20.75 54.1 20.95 54.0 Q21.1 54.0 21.1 54.1 L21.2 54.05 21.25 53.8 20.9 53.55 20.6 53.55 M20.5 53.25 L20.3 53.25 20.35 53.35 20.2 53.35 20.25 53.6 20.5 53.45 20.6 53.35 20.5 53.25 M20.55 52.9 L20.35 52.95 20.45 53.2 20.55 53.15 20.6 53.0 20.55 52.9 M21.1 53.3 L20.95 53.3 21.05 53.55 21.15 53.5 21.2 53.4 21.1 53.3 M21.2 52.6 L21.2 52.7 21.15 52.7 21.15 52.6 21.15 52.55 21.2 52.6 M21.9 53.85 L21.85 53.6 21.6 53.75 21.75 53.95 21.9 53.85 M20.45 52.0 L20.25 52.05 20.3 52.2 20.2 52.2 20.3 52.45 20.4 52.4 20.45 52.3 20.45 52.25 20.5 52.15 20.45 52.0 M20.75 52.5 L20.85 52.45 20.9 52.35 20.8 52.25 20.65 52.25 20.75 52.5 20.7 52.5 20.8 52.75 20.9 52.7 20.9 52.8 20.95 52.85 20.95 52.95 20.85 52.95 20.8 53.15 20.95 53.25 21.15 53.1 20.95 52.95 21.05 52.9 21.1 52.85 21.2 52.8 21.2 52.95 21.1 52.95 21.2 53.2 21.25 53.2 21.25 53.3 21.35 53.35 21.2 53.35 21.3 53.6 21.4 53.55 21.45 53.4 21.45 53.35 21.5 53.3 21.55 53.2 21.35 53.05 21.25 52.95 21.2 52.95 21.4 52.9 21.45 52.95 21.5 53.15 21.65 53.1 21.65 53.15 21.7 53.2 21.55 53.25 21.65 53.5 21.75 53.45 21.8 53.3 21.8 53.25 21.9 53.15 21.85 52.9 21.55 52.9 21.6 52.85 21.45 52.5 21.45 52.4 21.45 52.3 21.55 52.3 21.65 52.4 21.75 52.35 21.9 52.5 22.0 52.45 22.05 52.4 22.35 52.85 Q22.2 52.95 22.2 53.35 L22.7 53.8 22.7 54.2 22.6 54.1 22.45 54.1 22.55 54.35 22.65 54.3 22.7 54.2 22.65 54.95 22.6 55.2 22.55 55.35 22.6 55.45 22.5 55.75 22.45 55.9 22.4 55.9 22.4 55.95 22.35 56.15 20.8 58.7 20.45 58.75 20.2 58.55 20.15 58.5 19.95 58.5 20.0 58.75 19.4 58.75 19.45 59.15 19.45 59.4 17.95 59.4 18.0 58.75 17.4 58.75 17.4 59.4 15.8 59.4 15.95 58.75 14.45 58.75 Q13.35 57.5 12.85 56.3 L12.9 56.1 12.7 55.75 12.5 55.05 12.5 54.9 12.7 54.45 Q12.7 54.3 12.45 54.3 L12.5 53.9 12.5 53.95 12.6 53.9 12.65 53.8 12.55 53.7 12.5 53.7 12.8 53.0 12.85 53.2 12.95 53.15 13.0 53.05 12.9 52.95 12.8 52.95 12.9 52.8 13.0 53.0 13.35 52.75 13.25 52.65 13.15 52.65 13.55 52.25 13.45 52.15 Q14.35 51.45 16.05 51.25 L16.05 51.35 16.15 51.65 16.05 51.65 16.15 51.9 16.25 51.85 16.3 51.8 16.35 51.8 16.75 51.5 16.25 51.25 16.05 51.25 16.6 51.2 16.65 51.4 16.85 51.2 17.6 51.15 19.7 51.3 19.7 51.65 19.9 51.75 20.4 51.55 20.25 51.45 20.3 51.45 21.05 51.7 21.1 51.9 21.3 51.9 21.15 52.15 21.05 52.15 21.05 52.4 20.95 52.4 21.0 52.5 20.9 52.5 20.9 52.55 20.85 52.5 20.75 52.5" fill="#ffffff" fill-opacity="0.7019608" fill-rule="evenodd" stroke="none"/>
    <path d="M33.4 46.8 L-2.05 46.8 -2.05 24.9 33.4 24.9 33.4 46.8" fill="#da4141" fill-rule="evenodd" stroke="none"/>
    <path d="M33.4 46.8 L-2.05 46.8 -2.05 24.9 33.4 24.9 33.4 46.8 Z" fill="none" stroke="#5a1212" stroke-linecap="round" stroke-linejoin="round" stroke-width="2.0"/>
    <path d="M12.5 46.8 L12.5 45.5 6.85 45.5 6.85 46.8 -2.05 46.8 -2.05 35.9 33.4 35.9 33.4 46.8 24.5 46.8 24.5 45.5 18.85 45.5 18.85 46.8 12.5 46.8" fill="#9b0000" fill-rule="evenodd" stroke="none"/>
    <path d="M6.85 46.8 L6.85 45.5 12.5 45.5 12.5 46.8 6.85 46.8 M18.85 46.8 L18.85 45.5 24.5 45.5 24.5 46.8 18.85 46.8" fill="#770000" fill-rule="evenodd" stroke="none"/>
    <path d="M33.4 35.9 L-2.05 35.9 -2.05 24.9 33.4 24.9 33.4 35.9" fill="#dd0000" fill-rule="evenodd" stroke="none"/>
    <path d="M22.4 35.9 L22.4 24.55 22.4 24.45 22.5 24.45 22.6 24.45 22.65 24.55 22.65 35.9 22.4 35.9 M29.75 35.9 L29.75 24.75 29.75 24.65 29.85 24.65 29.95 24.65 30.0 24.75 30.0 35.9 29.75 35.9 M26.05 35.9 L26.05 24.45 26.05 24.35 26.15 24.35 26.25 24.35 26.3 24.45 26.3 35.9 26.05 35.9 M4.3 35.9 L4.3 24.75 4.3 24.65 4.4 24.65 4.5 24.65 4.55 24.75 4.55 35.9 4.3 35.9 M0.65 35.9 L0.65 24.7 0.65 24.6 0.75 24.6 0.85 24.6 0.9 24.7 0.9 35.9 0.65 35.9 M7.8 35.9 L7.8 24.7 7.8 24.6 7.9 24.6 8.0 24.6 8.05 24.7 8.05 35.9 7.8 35.9 M11.15 35.9 L11.15 24.7 11.15 24.6 11.25 24.6 11.35 24.6 11.4 24.7 11.4 35.9 11.15 35.9 M14.65 35.9 L14.65 24.75 14.65 24.65 14.75 24.65 14.85 24.65 14.9 24.75 14.9 35.9 14.65 35.9 M18.5 35.9 L18.5 24.55 18.5 24.45 18.6 24.45 18.7 24.45 18.75 24.55 18.75 35.9 18.5 35.9" fill="#9f0000" fill-rule="evenodd" stroke="none"/>
    <path d="M22.4 35.9 L22.65 35.9 22.65 46.8 22.6 46.9 22.5 46.95 22.4 46.9 22.4 46.8 22.4 35.9 M29.75 35.9 L30.0 35.9 30.0 47.5 29.95 47.6 29.85 47.65 29.75 47.6 29.75 47.5 29.75 35.9 M26.05 35.9 L26.3 35.9 26.3 47.05 26.25 47.15 26.15 47.2 26.05 47.15 26.05 47.05 26.05 35.9 M4.3 35.9 L4.55 35.9 4.55 47.05 4.5 47.15 4.4 47.2 4.3 47.15 4.3 47.05 4.3 35.9 M0.65 35.9 L0.9 35.9 0.9 47.0 0.85 47.1 0.75 47.15 0.65 47.1 0.65 47.0 0.65 35.9 M7.8 35.9 L8.05 35.9 8.05 47.05 8.0 47.15 7.9 47.2 7.8 47.15 7.8 47.05 7.8 35.9 M11.15 35.9 L11.4 35.9 11.4 46.9 11.35 47.0 11.25 47.05 11.15 47.0 11.15 46.9 11.15 35.9 M14.65 35.9 L14.9 35.9 14.9 46.65 14.85 46.75 14.75 46.8 14.65 46.75 14.65 46.65 14.65 35.9 M18.5 35.9 L18.75 35.9 18.75 46.5 18.7 46.6 18.6 46.65 18.5 46.6 18.5 46.5 18.5 35.9" fill="#640000" fill-rule="evenodd" stroke="none"/>
    <path d="M18.85 45.5 L24.5 45.5 24.5 46.8 18.85 46.8 18.85 45.5 M6.85 46.8 L6.85 45.5 12.5 45.5 12.5 46.8 6.85 46.8" fill="#770000" fill-rule="evenodd" stroke="none"/>
    <path d="M15.3 43.95 L16.1 43.95 15.7 43.25 15.3 43.95 M18.35 44.65 L18.35 44.75 18.25 44.75 18.35 44.65 M13.05 41.45 L13.1 41.4 13.1 41.45 13.05 41.45 M14.9 41.9 L14.8 41.8 14.6 41.8 14.65 42.05 14.9 41.9 14.9 42.0 15.0 42.1 15.15 42.0 15.1 41.75 14.9 41.75 14.9 41.9 M12.25 41.3 L12.05 41.3 12.05 41.6 11.65 41.95 Q11.3 42.4 11.55 42.95 L12.35 43.85 13.45 44.1 14.3 43.9 14.5 43.9 14.75 43.45 14.7 43.35 14.75 43.25 14.85 43.2 14.95 42.85 14.9 42.75 14.95 42.7 15.0 42.6 14.9 42.5 14.8 42.5 14.65 42.35 14.55 42.25 14.5 42.3 14.35 42.1 14.55 41.8 14.45 41.7 14.3 41.7 14.3 41.65 14.1 41.45 Q13.85 41.45 13.85 41.7 L13.3 41.5 13.35 41.4 13.15 41.25 13.05 41.25 12.8 41.3 12.85 41.4 12.8 41.4 12.55 41.45 12.25 41.3 M11.8 38.95 L11.85 38.85 11.75 38.75 11.6 38.75 11.7 39.0 11.8 38.95 M11.95 38.45 L11.8 38.45 11.9 38.7 11.95 38.7 12.0 38.9 12.1 38.85 12.15 38.75 12.1 38.6 12.05 38.65 12.05 38.55 11.95 38.45 M12.75 38.2 L12.85 38.45 12.95 38.4 13.0 38.3 12.9 38.2 12.75 38.2 M16.95 42.45 Q16.8 42.65 16.8 42.9 L17.05 43.65 17.0 43.85 17.2 44.1 17.4 43.95 18.2 44.1 19.35 43.75 20.0 42.85 Q20.2 42.3 19.85 41.85 19.5 41.35 18.75 41.4 18.0 41.4 17.45 41.9 L17.45 41.95 17.3 41.9 17.1 42.1 17.1 42.15 16.95 42.35 16.95 42.45 M15.3 41.45 L15.2 41.35 15.05 41.35 14.9 41.4 15.0 41.65 15.15 41.55 15.15 41.6 15.25 41.55 15.3 41.45 M17.55 40.35 L17.45 40.25 17.3 40.25 17.4 40.5 17.5 40.45 17.55 40.35 M17.55 40.0 L17.65 39.95 17.7 39.85 17.6 39.75 17.45 39.75 17.55 40.0 M16.95 39.15 L17.0 39.05 16.7 38.8 16.7 39.1 16.85 39.2 16.95 39.15 M20.0 39.6 L19.75 39.75 19.9 39.95 20.05 39.85 20.0 39.6 M19.25 39.3 L19.1 39.3 19.2 39.55 19.3 39.5 19.35 39.4 19.25 39.3 M18.75 39.65 L18.7 39.6 18.5 39.6 18.55 39.85 18.75 39.75 18.75 39.85 18.9 40.1 19.1 40.0 19.25 40.1 19.35 40.05 19.4 39.8 19.05 39.55 18.75 39.55 18.75 39.65 M18.25 39.75 L18.1 39.75 18.2 40.0 18.25 40.0 18.05 40.05 18.15 40.3 18.25 40.25 18.25 40.4 18.4 40.5 18.7 40.1 18.4 39.9 18.35 39.9 18.35 39.85 18.25 39.75 M18.1 39.35 L17.95 39.35 18.05 39.6 18.15 39.55 18.2 39.45 18.1 39.35 M18.65 39.25 L18.45 39.25 18.5 39.35 18.35 39.35 18.4 39.6 18.65 39.45 18.75 39.35 18.65 39.25 M18.75 39.0 L18.7 38.9 18.5 38.95 18.6 39.2 18.7 39.15 18.75 39.0 M18.65 38.15 L18.6 38.0 18.4 38.05 18.45 38.2 18.35 38.2 18.45 38.45 18.55 38.4 18.6 38.3 18.6 38.25 18.65 38.15 M18.35 38.4 L18.2 38.45 Q18.1 38.75 18.35 38.85 L18.6 38.6 18.35 38.4 M19.3 38.6 L19.3 38.55 19.35 38.6 19.35 38.7 19.3 38.7 19.3 38.6 M18.9 38.5 L19.0 38.45 19.05 38.35 18.95 38.25 18.8 38.25 18.9 38.5 18.85 38.5 18.95 38.75 19.05 38.7 19.05 38.8 19.1 38.85 19.1 38.95 19.0 38.95 18.95 39.15 19.1 39.25 19.3 39.1 19.1 38.95 19.2 38.9 19.25 38.85 19.35 38.8 19.35 38.95 19.25 38.95 19.35 39.2 19.4 39.2 19.4 39.3 19.5 39.35 19.35 39.35 19.45 39.6 19.55 39.55 19.6 39.4 19.6 39.35 19.65 39.3 19.7 39.2 19.5 39.05 19.4 38.95 19.35 38.95 19.55 38.9 19.6 38.95 19.65 39.15 19.8 39.1 19.8 39.15 19.85 39.2 19.7 39.25 19.8 39.5 19.9 39.45 19.95 39.3 19.95 39.25 20.05 39.15 20.0 38.9 19.7 38.9 19.75 38.85 19.6 38.5 19.6 38.4 19.6 38.3 19.7 38.3 19.8 38.4 19.9 38.35 20.05 38.5 20.15 38.45 20.2 38.4 20.5 38.85 Q20.35 38.95 20.35 39.35 L20.85 39.8 20.85 40.2 20.75 40.1 20.6 40.1 20.7 40.35 20.8 40.3 20.85 40.2 20.8 40.95 20.75 41.2 20.7 41.35 20.75 41.45 20.65 41.75 20.6 41.9 20.55 41.9 20.55 41.95 20.5 42.15 18.95 44.7 18.6 44.75 18.35 44.55 18.3 44.5 18.1 44.5 18.15 44.75 17.55 44.75 17.6 45.15 17.6 45.4 16.1 45.4 16.15 44.75 15.55 44.75 15.55 45.4 13.95 45.4 14.1 44.75 12.6 44.75 Q11.5 43.5 11.0 42.3 L11.05 42.1 10.85 41.75 10.65 41.05 10.65 40.9 10.85 40.45 10.6 40.3 10.65 39.9 10.65 39.95 10.75 39.9 10.8 39.8 10.7 39.7 10.65 39.7 10.95 39.0 11.0 39.2 11.1 39.15 11.15 39.05 11.05 38.95 10.95 38.95 11.05 38.8 11.15 39.0 11.5 38.75 11.4 38.65 11.3 38.65 11.7 38.25 11.6 38.15 Q12.5 37.45 14.2 37.25 L14.2 37.35 14.3 37.65 14.2 37.65 14.3 37.9 14.4 37.85 14.45 37.8 14.5 37.8 14.9 37.5 Q14.65 37.25 14.4 37.25 L14.2 37.25 14.75 37.2 14.8 37.4 15.0 37.2 15.75 37.15 17.85 37.3 17.85 37.65 18.05 37.75 18.55 37.55 18.4 37.45 18.45 37.45 19.2 37.7 19.25 37.9 19.45 37.9 19.3 38.15 19.2 38.15 19.2 38.4 19.1 38.4 19.15 38.5 19.05 38.5 19.05 38.55 19.0 38.5 18.9 38.5" fill="#ffffff" fill-opacity="0.7019608" fill-rule="evenodd" stroke="none"/>
    <path d="M28.5 16.3 Q28.5 13.9 31.15 12.75 33.75 11.55 33.75 14.0 L33.7 14.65 33.2 15.6 Q34.5 15.5 35.6 16.75 36.45 17.8 36.45 18.5 36.45 19.2 35.6 20.35 34.4 21.9 32.6 21.9 29.8 21.9 29.8 20.15 L29.9 19.35 30.6 18.35 29.6 17.95 Q28.75 17.7 28.6 17.45 L28.5 16.3 M28.25 20.55 L27.9 20.65 27.55 20.45 27.5 20.2 27.65 19.9 Q27.8 19.7 28.2 19.9 L28.3 20.2 28.25 20.55 M26.45 23.3 L26.35 22.9 Q26.35 21.95 27.5 21.9 28.65 21.85 28.65 22.9 L28.6 23.35 27.7 23.65 Q26.75 23.65 26.45 23.3 M30.15 23.15 Q30.15 22.65 30.65 22.65 31.1 22.65 31.1 23.1 L30.65 23.55 Q30.3 23.55 30.2 23.35 L30.15 23.15 M38.45 57.3 L38.55 56.7 38.95 55.95 Q38.05 55.65 38.05 55.05 38.05 52.4 42.4 53.4 46.75 54.35 46.75 56.4 46.75 57.15 45.85 58.05 44.5 59.35 41.9 59.35 39.8 59.35 38.95 58.4 38.45 57.85 38.45 57.3 M61.6 54.85 L61.35 55.35 Q61.1 55.55 60.9 55.55 60.5 55.55 60.4 55.3 L60.35 55.0 Q60.35 54.5 61.0 54.4 61.6 54.25 61.6 54.85 M58.8 53.15 L58.75 52.9 58.8 52.6 59.45 52.6 59.55 52.9 59.5 53.25 59.15 53.35 58.8 53.15 M53.4 58.7 L53.1 58.8 52.75 58.7 52.7 58.45 52.75 58.15 53.4 58.15 53.5 58.45 53.4 58.7 M53.8 57.2 L52.9 57.5 Q52.65 57.5 51.55 56.0 51.55 55.4 52.85 55.15 54.15 54.9 54.15 56.5 L53.8 57.2 M51.15 58.55 L50.9 58.7 Q50.4 58.7 50.4 58.2 50.4 57.85 50.85 57.75 51.3 57.7 51.3 58.2 L51.15 58.55 M52.4 59.4 L52.05 59.05 52.3 58.8 52.55 59.2 52.4 59.4 M51.15 58.9 L51.45 58.85 51.75 59.25 51.45 59.5 51.1 59.15 51.15 58.9 M56.4 59.25 Q55.95 59.25 55.9 59.05 L55.9 58.8 Q55.9 58.3 56.4 58.35 56.9 58.35 56.9 58.8 56.9 59.25 56.4 59.25" fill="#7a8b9a" fill-rule="evenodd" stroke="none"/>
  </g>
</svg>
