<?xml version="1.0" encoding="UTF-8" standalone="no"?>
<svg xmlns:xlink="http://www.w3.org/1999/xlink" height="37.4px" width="31.85px" xmlns="http://www.w3.org/2000/svg">
  <g transform="matrix(1.0, 0.0, 0.0, 1.0, 0.1, 0.05)">
    <path d="M6.05 18.8 L6.1 18.8 6.9 19.6 6.05 18.8" fill="#55a901" fill-rule="evenodd" stroke="none"/>
    <path d="M6.05 18.8 L6.95 20.0 7.0 21.85 6.95 22.0 5.2 21.95 5.35 22.4 3.4 22.1 3.7 22.45 4.3 22.8 4.7 23.45 4.6 23.75 4.4 23.75 4.1 23.8 3.9 24.95 3.85 25.5 2.55 25.4 1.25 24.35 1.15 24.55 1.05 24.85 1.2 25.0 1.75 26.0 1.85 26.6 3.95 26.75 3.9 26.85 3.85 26.9 3.65 26.95 3.35 26.9 3.05 26.75 2.25 26.65 2.6 26.7 2.6 26.9 2.6 27.05 2.4 27.25 2.45 27.25 2.95 27.25 3.8 27.25 4.6 27.45 4.75 27.7 4.75 27.8 4.7 27.95 4.55 28.1 4.2 28.25 3.85 28.35 3.5 28.45 3.4 28.45 3.65 28.65 4.05 29.0 4.4 29.35 4.45 29.75 4.35 29.9 4.15 29.95 3.95 29.95 3.7 29.95 3.45 29.95 3.4 29.95 3.55 30.25 4.05 30.85 4.1 31.55 3.15 31.6 2.05 30.7 1.5 30.2 1.45 30.3 1.5 30.3 1.8 30.55 1.95 30.75 2.0 30.85 2.05 31.0 2.05 31.45 2.05 31.6 1.95 31.65 1.9 31.7 1.85 31.75 1.75 31.75 1.6 31.75 1.5 31.75 1.45 32.35 1.35 32.4 1.05 32.6 0.85 32.6 0.8 32.8 0.85 32.8 1.7 33.05 2.55 33.35 3.15 34.0 3.1 34.15 3.1 34.3 Q2.75 34.6 2.3 34.5 L1.4 34.15 0.85 33.85 1.15 34.3 1.4 34.8 1.5 35.1 1.5 35.25 1.45 35.35 1.4 35.45 1.05 35.5 0.5 35.1 0.35 34.9 -0.05 37.35 0.0 33.1 0.0 31.85 0.05 0.45 -0.1 0.4 -0.1 0.3 -0.1 0.15 -0.05 0.05 0.05 0.0 0.4 -0.05 0.9 0.0 8.45 -0.05 17.0 -0.05 25.6 0.0 31.05 0.0 31.5 0.0 31.55 0.05 31.65 0.15 31.65 0.25 31.75 0.3 31.75 0.4 31.7 0.5 31.6 0.6 31.55 0.6 31.45 0.6 31.25 0.65 31.15 0.65 31.05 0.75 30.9 0.8 30.7 0.85 30.9 0.95 31.05 1.0 31.25 1.15 31.6 1.5 31.7 1.7 31.65 1.85 31.6 1.9 31.3 2.0 31.05 2.0 30.9 2.0 30.45 1.95 30.05 1.8 30.0 1.75 30.0 1.85 29.95 2.1 29.95 2.25 29.65 2.4 29.25 2.45 28.8 2.4 28.4 2.2 28.35 2.15 28.35 2.4 28.3 2.8 28.05 2.95 27.65 3.0 27.25 2.95 26.9 2.8 26.75 2.15 26.45 1.35 25.9 1.25 25.6 1.4 25.65 1.45 25.65 1.6 25.6 1.75 25.45 1.85 25.2 1.95 24.9 1.9 25.1 2.0 25.65 2.45 25.9 2.95 25.9 3.2 25.85 3.35 25.7 3.45 24.35 2.65 23.85 2.15 23.75 2.2 23.55 2.25 23.1 2.25 Q23.0 3.1 22.35 3.25 L22.1 3.25 21.4 3.0 20.95 2.2 20.7 2.2 20.65 3.0 20.4 3.25 20.15 3.4 20.1 3.35 19.95 3.3 19.75 3.15 19.45 3.05 19.35 3.0 19.25 3.05 19.1 3.05 19.15 3.1 19.6 3.3 19.75 3.4 19.8 3.4 20.15 3.7 20.45 4.25 20.2 4.55 19.75 4.65 19.25 5.1 18.25 4.45 18.25 4.5 18.15 5.35 18.1 5.5 18.0 5.6 17.9 5.65 17.7 5.7 15.4 4.65 15.35 4.65 15.3 4.6 12.7 7.5 Q11.85 8.3 10.75 7.5 L10.3 7.55 10.1 7.4 9.45 6.75 8.75 5.7 8.85 6.0 8.8 6.4 8.6 6.75 8.25 6.85 7.9 6.75 7.85 6.75 Q7.25 6.6 7.8 7.6 8.65 9.15 7.35 10.45 4.0 13.8 6.25 14.25 L6.15 14.35 6.1 14.5 6.0 14.6 5.95 14.6 5.9 14.7 5.95 14.75 6.0 14.85 6.15 14.95 6.25 15.05 6.3 15.15 6.3 15.25 6.25 15.5 6.15 15.65 5.95 15.75 5.8 15.85 5.7 15.9 5.75 16.55 Q5.75 16.9 5.4 17.05 L5.2 17.15 5.05 17.15 4.35 18.05 3.95 18.4 3.55 18.5 3.5 18.6 3.55 18.6 4.45 18.55 4.8 18.3 Q4.95 18.05 5.15 18.15 L5.75 18.4 5.9 18.5 5.95 18.6 6.05 18.8 M28.9 1.65 L28.85 1.6 28.75 1.6 28.9 1.65 M11.25 9.1 L11.85 9.55 12.05 10.15 Q12.05 10.55 11.85 10.55 L11.25 10.1 10.95 9.55 11.05 9.1 11.25 9.1 M8.4 11.3 Q8.4 11.05 8.75 11.05 9.05 11.05 9.05 11.45 L8.8 11.55 8.55 11.5 8.45 11.55 8.35 11.3 8.4 11.3 M8.65 11.6 Q9.0 11.6 9.45 12.6 L9.3 12.85 8.45 12.85 Q8.15 12.7 8.15 12.25 8.15 11.6 8.65 11.6 M2.4 30.05 L2.45 30.1 2.5 30.15 2.55 30.25 2.7 30.35 2.7 30.3 2.6 30.25 2.55 30.2 2.5 30.1 2.4 30.0 2.4 30.05 M2.9 30.5 L2.95 30.65 3.05 30.7 3.05 30.65 2.95 30.55 2.9 30.5" fill="#87ab32" fill-rule="evenodd" stroke="none"/>
  </g>
</svg>
