<?xml version="1.0" encoding="UTF-8" standalone="no"?>
<svg xmlns:xlink="http://www.w3.org/1999/xlink" height="13.9px" width="16.85px" xmlns="http://www.w3.org/2000/svg">
  <g transform="matrix(1.0, 0.0, 0.0, 1.0, 0.0, 0.0)">
    <path d="M1.85 0.4 L2.2 1.2 2.75 12.9 2.45 13.6 1.8 13.9 1.75 13.9 Q1.35 13.9 1.05 13.65 0.7 13.35 0.75 12.95 L0.0 1.2 Q-0.05 0.7 0.3 0.4 0.55 0.05 1.0 0.05 L1.05 0.05 Q1.5 0.05 1.85 0.4" fill="url(#gradient0)" fill-rule="evenodd" stroke="none"/>
    <path d="M5.25 0.4 Q5.45 0.05 6.0 0.05 L6.05 0.05 Q6.45 0.05 6.75 0.4 L7.1 1.15 7.15 12.8 6.9 13.5 6.25 13.75 6.2 13.75 Q5.8 13.75 5.55 13.5 5.25 13.2 5.25 12.85 L4.95 1.2 Q4.9 0.7 5.25 0.4" fill="url(#gradient1)" fill-rule="evenodd" stroke="none"/>
    <path d="M10.9 0.0 L10.95 0.0 Q11.4 0.0 11.7 0.35 L11.95 1.15 11.65 12.65 11.35 13.35 10.7 13.6 10.65 13.6 10.0 13.4 Q9.7 13.1 9.7 12.7 L9.85 1.15 Q9.85 0.65 10.15 0.35 10.45 0.0 10.9 0.0" fill="url(#gradient2)" fill-rule="evenodd" stroke="none"/>
    <path d="M15.9 0.0 L15.95 0.0 Q16.35 0.0 16.65 0.35 L16.85 1.1 16.15 12.55 15.85 13.2 15.15 13.5 15.1 13.5 14.5 13.25 Q14.25 12.95 14.3 12.6 L14.85 1.1 Q14.8 0.6 15.15 0.35 15.45 0.0 15.9 0.0" fill="url(#gradient3)" fill-rule="evenodd" stroke="none"/>
  </g>
  <defs>
    <radialGradient cx="0" cy="0" gradientTransform="matrix(0.0015, -1.0E-4, 4.0E-4, 0.0089, 1.35, 7.0)" gradientUnits="userSpaceOnUse" id="gradient0" r="819.2" spreadMethod="pad">
      <stop offset="0.0" stop-color="#ffffff"/>
      <stop offset="1.0" stop-color="#ffcc33"/>
    </radialGradient>
    <radialGradient cx="0" cy="0" gradientTransform="matrix(0.002, 0.0, 0.0, 0.0088, 6.05, 6.9)" gradientUnits="userSpaceOnUse" id="gradient1" r="819.2" spreadMethod="pad">
      <stop offset="0.0" stop-color="#ffffff"/>
      <stop offset="1.0" stop-color="#ffcc33"/>
    </radialGradient>
    <radialGradient cx="0" cy="0" gradientTransform="matrix(0.0014, 0.0, 0.0, 0.0087, 10.85, 6.8)" gradientUnits="userSpaceOnUse" id="gradient2" r="819.2" spreadMethod="pad">
      <stop offset="0.0" stop-color="#ffffff"/>
      <stop offset="1.0" stop-color="#ffcc33"/>
    </radialGradient>
    <radialGradient cx="0" cy="0" gradientTransform="matrix(0.0013, 0.0, -3.0E-4, 0.0086, 15.6, 6.75)" gradientUnits="userSpaceOnUse" id="gradient3" r="819.2" spreadMethod="pad">
      <stop offset="0.0" stop-color="#ffffff"/>
      <stop offset="1.0" stop-color="#ffcc33"/>
    </radialGradient>
  </defs>
</svg>
