<?xml version="1.0" encoding="UTF-8" standalone="no"?>
<svg xmlns:xlink="http://www.w3.org/1999/xlink" height="376.05px" width="297.8px" xmlns="http://www.w3.org/2000/svg">
  <g transform="matrix(1.0, 0.0, 0.0, 1.0, 149.2, 223.55)">
    <path d="M14.75 -223.5 Q21.2 -222.65 23.65 -213.15 25.35 -206.2 24.6 -197.2 L24.95 -168.0 Q25.15 -150.5 24.9 -139.1 24.7 -135.2 24.35 -133.55 23.6 -130.25 21.5 -130.2 20.3 -130.25 19.4 -132.45 L18.7 -134.85 Q17.3 -134.85 15.5 -130.95 13.65 -127.05 12.9 -127.05 9.75 -127.05 9.35 -142.35 9.35 -159.15 9.0 -162.65 8.6 -166.75 8.0 -182.15 7.55 -196.85 7.65 -199.1 7.9 -210.95 8.2 -213.45 9.7 -224.3 14.75 -223.5 M79.35 -87.55 Q79.85 -90.7 81.4 -94.6 L83.05 -98.55 Q83.85 -104.15 87.95 -102.1 92.0 -99.85 91.05 -93.8 90.05 -89.8 88.6 -86.15 85.6 -79.1 83.0 -79.6 79.75 -80.25 79.3 -83.85 79.0 -85.8 79.35 -87.55 M-103.2 -64.4 Q-104.1 -64.4 -109.0 -67.75 -113.85 -71.15 -118.3 -71.1 -133.7 -71.15 -133.45 -58.3 L-133.45 -57.5 Q-129.95 -64.2 -122.5 -64.8 -113.8 -66.0 -105.85 -53.9 L-98.3 -39.0 Q-95.8 -34.65 -94.5 -28.4 -92.4 -33.8 -90.95 -39.35 L-90.1 -54.3 Q-89.8 -63.75 -88.8 -69.65 -88.5 -72.4 -78.75 -84.75 L-77.35 -86.5 -74.05 -95.95 Q-69.55 -108.85 -69.15 -121.35 -69.1 -123.95 -70.2 -138.45 L-71.25 -152.55 Q-70.95 -167.7 -69.3 -174.45 -65.55 -190.25 -55.0 -189.7 -51.0 -185.9 -49.4 -180.4 -48.65 -177.35 -48.2 -170.95 L-49.25 -136.9 Q-49.15 -134.05 -49.6 -127.1 -49.8 -120.8 -48.45 -116.95 -46.15 -110.4 -42.05 -106.95 L-40.75 -106.7 -35.45 -107.2 Q-34.55 -108.6 -33.25 -112.55 -32.05 -116.1 -32.05 -116.9 -32.0 -117.65 -32.95 -121.35 -33.75 -125.25 -33.6 -126.45 -33.5 -128.85 -31.55 -133.6 -29.55 -138.45 -27.3 -141.0 -21.2 -148.4 -21.3 -130.15 -21.7 -119.3 -20.9 -116.1 -18.45 -104.3 -6.9 -104.3 -2.7 -104.3 5.85 -109.8 L6.85 -110.7 8.85 -113.05 Q13.95 -118.65 21.3 -118.65 26.45 -118.65 30.3 -114.05 32.65 -111.2 36.15 -103.9 39.8 -96.45 41.8 -93.8 45.35 -89.25 50.25 -89.25 53.05 -89.25 54.55 -91.25 55.6 -92.5 55.65 -93.25 L55.15 -96.4 Q54.6 -98.65 54.6 -99.65 55.3 -114.75 58.55 -125.05 61.3 -134.4 65.2 -137.0 68.95 -139.4 71.3 -134.35 73.8 -128.95 73.25 -116.9 72.95 -111.9 69.6 -97.6 66.1 -83.2 66.0 -81.2 66.0 -80.5 67.6 -74.45 69.0 -68.35 68.95 -63.75 68.7 -60.15 65.3 -51.65 61.85 -43.45 61.55 -35.55 61.1 -26.95 64.0 -21.55 64.7 -20.2 67.15 -17.35 69.5 -17.05 71.55 -15.0 L72.65 -16.25 Q82.35 -23.55 87.05 -20.0 90.65 -17.3 89.85 -12.3 89.35 -9.4 88.3 -5.8 L86.8 -1.6 Q84.45 4.4 84.4 4.9 84.2 6.25 85.75 9.4 87.7 13.5 90.95 14.05 L93.55 13.5 Q94.1 12.15 95.0 10.5 97.65 4.85 98.65 -1.0 L99.05 -3.75 Q99.5 -9.85 98.75 -16.4 96.8 -30.3 87.8 -32.1 L79.8 -31.3 Q74.45 -32.35 72.85 -40.35 72.05 -44.45 72.3 -48.35 73.85 -58.3 89.6 -66.55 105.4 -75.0 106.8 -84.05 107.35 -87.4 105.3 -92.5 103.15 -97.65 103.35 -98.9 L103.45 -99.35 Q103.3 -100.85 103.65 -102.75 104.05 -105.5 107.8 -106.2 112.15 -107.0 116.0 -101.9 116.95 -100.3 118.15 -97.0 119.5 -93.45 120.3 -91.85 123.2 -86.15 123.65 -81.7 123.75 -79.1 122.9 -73.45 122.1 -68.35 118.45 -61.85 114.6 -55.4 114.5 -54.65 113.4 -47.7 116.5 -42.35 123.45 -29.6 125.4 -24.9 L125.25 -24.6 Q127.5 -19.9 128.5 -15.05 130.0 -7.55 128.85 2.2 L128.35 4.95 Q127.9 7.35 123.95 17.45 119.8 27.55 119.7 28.45 118.4 36.6 123.7 37.65 127.6 38.4 130.9 24.35 134.2 10.05 140.2 11.2 145.1 12.25 145.0 22.55 L143.9 32.7 Q142.0 43.8 140.6 48.05 137.4 57.45 130.45 64.3 L119.75 74.45 Q111.8 82.05 106.55 88.1 100.05 95.6 96.1 102.4 91.95 109.35 91.15 114.65 90.55 118.3 90.45 124.0 89.9 128.9 86.7 133.65 82.5 139.7 78.15 142.65 73.25 146.0 65.9 147.0 L52.0 147.55 45.85 147.0 Q23.65 142.6 9.75 142.6 1.75 142.6 -4.15 146.2 -12.45 151.25 -16.7 152.5 L-30.35 152.5 -47.3 149.6 -54.05 148.3 -60.45 146.45 -70.25 143.55 -74.0 144.3 Q-85.55 143.05 -107.75 129.55 -125.5 118.75 -131.4 113.1 -135.65 108.45 -137.2 105.35 -138.85 102.05 -138.9 97.8 -139.05 92.4 -134.7 92.4 -131.2 92.4 -125.5 97.55 -120.7 101.95 -117.8 100.25 -114.7 98.35 -121.8 71.95 -131.15 37.65 -132.05 30.9 -137.05 -9.45 -137.45 -31.55 -137.5 -33.7 -136.45 -41.35 L-136.15 -43.0 Q-136.2 -45.25 -135.9 -47.0 -138.55 -48.75 -139.65 -54.05 -140.35 -57.85 -140.3 -62.15 -140.35 -65.35 -136.2 -73.65 -131.7 -82.9 -127.8 -84.15 -112.3 -89.05 -104.15 -82.9 -98.3 -78.4 -98.2 -71.5 -98.15 -64.4 -103.2 -64.4 M49.75 -161.7 Q50.4 -151.4 50.7 -120.65 50.6 -118.55 49.25 -115.45 47.65 -112.2 46.7 -112.15 40.85 -112.2 40.55 -119.2 41.2 -127.75 40.8 -130.15 L38.35 -138.45 Q36.55 -145.1 36.6 -148.25 36.65 -150.75 37.55 -159.55 38.45 -168.25 38.75 -168.75 41.35 -177.7 45.25 -172.5 48.5 -168.6 49.75 -161.7 M148.25 -18.7 Q147.65 -14.05 146.35 -10.2 144.05 -2.55 141.2 -3.15 137.45 -3.9 136.95 -8.55 136.6 -10.85 137.1 -13.2 138.95 -24.3 144.5 -26.35 148.7 -28.05 148.6 -22.35 L148.25 -18.7 M-23.8 -157.15 Q-28.15 -145.6 -39.5 -145.55 -44.25 -145.6 -44.95 -151.15 L-44.75 -156.75 Q-44.6 -164.0 -40.85 -169.95 -37.45 -175.1 -32.7 -177.85 -28.05 -180.5 -24.6 -179.55 -21.2 -178.75 -21.4 -174.25 -21.75 -163.1 -23.8 -157.15 M-80.25 -116.55 Q-83.6 -105.6 -86.1 -105.6 -91.0 -105.6 -91.85 -108.55 -92.1 -108.85 -92.05 -112.75 -91.8 -122.15 -89.4 -129.95 -87.2 -137.2 -84.25 -140.5 -81.15 -143.75 -79.2 -141.3 -77.2 -138.45 -77.3 -129.45 -77.35 -126.3 -80.25 -116.55 M-121.45 -132.55 Q-120.1 -131.0 -120.1 -130.35 -120.05 -127.95 -122.35 -127.95 -123.4 -127.95 -125.4 -129.2 L-127.55 -128.65 Q-130.4 -128.65 -129.75 -131.2 -129.85 -134.45 -125.35 -134.4 -123.1 -134.45 -121.45 -132.55 M-132.85 -118.7 Q-133.0 -125.7 -126.4 -123.0 -119.9 -120.25 -119.85 -115.75 -119.8 -112.35 -122.75 -112.3 -128.05 -112.35 -130.8 -114.75 -132.85 -116.5 -132.85 -118.7 M-100.7 -86.15 Q-101.5 -86.15 -103.9 -87.65 -106.4 -89.45 -107.2 -89.6 -112.7 -90.2 -112.7 -92.55 -112.8 -97.95 -105.65 -96.8 -98.7 -95.6 -98.6 -89.05 -98.55 -86.15 -100.7 -86.15 M-123.6 -94.35 Q-123.55 -92.35 -124.9 -91.0 -126.3 -89.6 -130.9 -87.65 L-134.75 -83.95 Q-139.0 -80.1 -141.65 -80.05 -144.6 -80.05 -145.0 -82.75 L-144.8 -84.55 -144.6 -85.3 Q-142.15 -95.55 -133.05 -97.7 L-130.35 -98.15 Q-128.4 -98.5 -126.7 -97.75 -123.65 -96.8 -123.6 -94.35 M-142.8 -3.35 Q-142.7 2.35 -146.15 2.35 -149.6 2.35 -149.15 -1.9 -149.2 -4.7 -146.0 -6.9 -142.95 -9.2 -142.8 -3.35 M-122.25 3.0 Q-122.15 9.2 -117.9 31.25 L-113.15 54.0 -105.4 37.7 Q-104.35 35.05 -104.45 25.4 -104.7 10.2 -107.3 -2.95 -111.05 -22.05 -118.4 -25.1 -122.55 -14.55 -122.25 3.0 M-138.15 36.1 L-137.3 47.45 Q-137.2 54.0 -137.45 57.65 -137.95 66.75 -140.3 66.8 -144.4 66.75 -147.15 50.45 -148.45 42.25 -149.1 34.1 -149.55 11.25 -143.95 12.8 -138.55 14.1 -138.15 36.1" fill="#a3f025" fill-rule="evenodd" stroke="none"/>
  </g>
</svg>
