<?xml version="1.0" encoding="UTF-8" standalone="no"?>
<svg xmlns:xlink="http://www.w3.org/1999/xlink" height="276.6px" width="290.65px" xmlns="http://www.w3.org/2000/svg">
  <g transform="matrix(1.0, 0.0, 0.0, 1.0, 220.3, 158.1)">
    <path d="M-117.55 43.35 L-116.85 41.1 Q-118.35 31.9 -122.65 22.25 -131.3 3.0 -145.25 0.7 -152.85 -0.55 -158.05 1.9 -161.9 3.7 -164.85 7.9 -167.6 12.5 -168.7 14.0 -170.55 16.55 -172.65 15.6 -176.85 13.75 -180.15 0.25 -181.85 -6.6 -182.7 -12.95 L-196.9 0.1 Q-194.85 9.0 -190.85 17.6 -182.85 34.8 -172.8 33.15 -167.55 32.3 -164.3 28.25 -162.4 25.9 -159.9 20.0 -157.5 14.5 -155.6 12.5 -152.55 9.3 -147.4 9.7 -141.95 10.2 -136.0 15.75 -139.6 14.5 -143.55 15.4 -149.3 16.7 -154.2 22.7 -157.8 27.05 -161.55 35.15 L-167.2 47.5 Q-170.2 53.45 -172.75 54.55 -177.75 56.65 -192.75 39.25 -200.2 30.55 -206.7 21.4 L-214.3 39.55 Q-209.35 46.75 -201.7 53.95 -186.3 68.35 -172.45 68.5 -166.1 68.6 -162.4 62.35 -159.95 58.15 -157.55 48.4 -154.85 37.05 -153.55 33.9 -150.7 27.0 -146.05 26.1 -137.1 24.35 -126.75 33.1 -121.6 37.45 -118.2 42.15 L-118.2 41.9 -117.55 43.35" fill="#ffffff" fill-rule="evenodd" stroke="none"/>
    <path d="M-117.55 43.35 L-116.85 41.1 Q-118.35 31.9 -122.65 22.25 -131.3 3.0 -145.25 0.7 -152.85 -0.55 -158.05 1.9 -161.9 3.7 -164.85 7.9 -167.6 12.5 -168.7 14.0 -170.55 16.55 -172.65 15.6 -176.85 13.75 -180.15 0.25 -181.85 -6.6 -182.7 -12.95 L-196.9 0.1 Q-194.85 9.0 -190.85 17.6 -182.85 34.8 -172.8 33.15 -167.55 32.3 -164.3 28.25 -162.4 25.9 -159.9 20.0 -157.5 14.5 -155.6 12.5 -152.55 9.3 -147.4 9.7 -141.95 10.2 -136.0 15.75 -139.6 14.5 -143.55 15.4 -149.3 16.7 -154.2 22.7 -157.8 27.05 -161.55 35.15 L-167.2 47.5 Q-170.2 53.45 -172.75 54.55 -177.75 56.65 -192.75 39.25 -200.2 30.55 -206.7 21.4 L-214.3 39.55 Q-209.35 46.75 -201.7 53.95 -186.3 68.35 -172.45 68.5 -166.1 68.6 -162.4 62.35 -159.95 58.15 -157.55 48.4 -154.85 37.05 -153.55 33.9 -150.7 27.0 -146.05 26.1 -137.1 24.35 -126.75 33.1 -121.6 37.45 -118.2 42.15 L-118.2 41.9 -117.55 43.35 Z" fill="none" stroke="#602f69" stroke-linecap="square" stroke-linejoin="round" stroke-width="9.0"/>
    <path d="M-206.75 21.35 L-214.35 39.55 Q-209.4 46.7 -201.75 53.85 -186.35 68.25 -172.5 68.5 -166.25 68.55 -162.5 62.3 -160.0 58.1 -157.65 48.4 -154.9 37.0 -153.6 33.85 -150.75 26.9 -146.15 26.05 -137.15 24.35 -126.85 33.05 -121.7 37.4 -118.25 42.1 L-118.35 41.05 -118.45 39.85 Q-120.45 32.75 -124.6 26.15 -132.9 12.9 -143.6 15.35 -149.4 16.7 -154.3 22.6 -157.85 27.0 -161.65 35.1 -165.5 44.0 -167.25 47.5 -170.3 53.4 -172.8 54.5 -177.85 56.6 -192.85 39.2 -200.3 30.45 -206.75 21.35" fill="#8e429c" fill-rule="evenodd" stroke="none"/>
    <path d="M-116.85 41.1 Q-118.35 31.9 -122.65 22.25 -131.3 3.0 -145.25 0.7 -152.85 -0.55 -158.05 1.9 -161.9 3.7 -164.85 7.9 -167.6 12.5 -168.7 14.0 -170.55 16.55 -172.65 15.6 -176.85 13.75 -180.15 0.25 -181.85 -6.6 -182.7 -12.95 L-196.9 0.1 Q-194.85 9.0 -190.85 17.6 -182.85 34.8 -172.8 33.15 -167.55 32.3 -164.3 28.25 -162.4 25.9 -159.9 20.0 -157.5 14.5 -155.6 12.5 -152.55 9.3 -147.4 9.7 -137.8 10.55 -126.75 27.0 -121.15 35.3 -117.55 43.35 L-116.85 41.1" fill="#8e429c" fill-rule="evenodd" stroke="none"/>
    <path d="M-101.0 -112.8 Q-102.55 -109.8 -103.55 -105.25 -105.55 -96.15 -103.05 -88.35 -98.7 -115.65 -80.9 -130.65 -72.0 -138.15 -64.05 -140.2 -66.95 -136.05 -69.45 -127.7 -74.45 -111.0 -72.55 -90.05 -66.95 -128.45 -53.15 -144.6 -46.25 -152.7 -40.55 -153.1 -35.95 -147.1 -30.9 -135.8 -20.75 -113.15 -18.55 -86.7 -15.7 -102.5 -17.55 -117.1 -18.5 -124.4 -20.05 -128.55 -13.2 -123.55 -6.25 -114.65 7.65 -96.8 7.95 -77.25 10.8 -81.55 10.45 -90.05 10.3 -94.3 9.5 -97.75 13.35 -95.35 17.9 -90.6 26.95 -81.05 30.05 -69.5 33.2 -58.0 34.15 -36.6 34.65 -25.9 34.5 -17.55 L-144.25 -10.25 Q-144.6 -19.1 -143.85 -30.9 -142.3 -54.5 -137.0 -69.5 -131.7 -84.5 -115.8 -100.1 -107.85 -107.95 -101.0 -112.8" fill="#ffd138" fill-rule="evenodd" stroke="none"/>
    <path d="M-101.0 -112.8 Q-107.85 -107.95 -115.8 -100.1 -131.7 -84.5 -137.0 -69.5 -142.3 -54.5 -143.85 -30.9 -144.6 -19.1 -144.25 -10.25 L34.5 -17.55 Q34.65 -25.9 34.15 -36.6 33.2 -58.0 30.05 -69.5 26.95 -81.05 17.9 -90.6 13.35 -95.35 9.5 -97.75 10.3 -94.3 10.45 -90.05 10.8 -81.55 7.95 -77.25 7.65 -96.8 -6.25 -114.65 -13.2 -123.55 -20.05 -128.55 -18.5 -124.4 -17.55 -117.1 -15.7 -102.5 -18.55 -86.7 -20.75 -113.15 -30.9 -135.8 -35.95 -147.1 -40.55 -153.1 -46.25 -152.7 -53.15 -144.6 -66.95 -128.45 -72.55 -90.05 -74.45 -111.0 -69.45 -127.7 -66.95 -136.05 -64.05 -140.2 -72.0 -138.15 -80.9 -130.65 -98.7 -115.65 -103.05 -88.35 -105.55 -96.15 -103.55 -105.25 -102.55 -109.8 -101.0 -112.8 M-119.55 76.0 L-129.55 97.0 -116.55 91.0 -120.55 113.5 Q-120.55 113.55 -102.05 102.0 L-100.55 110.5 -78.55 92.0 Q-119.05 76.45 -119.55 76.0 M17.5 76.0 L27.5 97.0 14.5 91.0 18.5 113.5 0.0 102.0 -1.5 110.5 -23.5 92.0 17.5 76.0" fill="none" stroke="#875b11" stroke-linecap="round" stroke-linejoin="round" stroke-width="10.0"/>
    <path d="M-145.55 33.75 L-139.3 34.1 Q-150.8 -6.55 -141.4 -38.6 -135.8 -57.6 -111.2 -71.9 -88.0 -85.4 -58.2 -89.2 -27.3 -93.15 -4.05 -84.55 21.9 -74.95 29.55 -52.1 41.15 -17.45 33.6 27.1 L32.0 35.65 Q36.05 34.5 40.75 34.75 50.9 35.3 58.15 42.2 65.5 49.1 65.35 58.35 65.2 67.55 57.6 73.4 50.05 79.05 39.85 78.15 29.75 77.0 23.0 70.05 L21.85 68.8 Q18.7 76.15 15.55 80.9 11.3 87.3 -6.5 91.65 -22.6 95.55 -44.75 96.7 -66.35 97.85 -84.2 95.9 -103.2 93.8 -109.9 88.9 -116.1 84.35 -122.75 73.4 -125.0 77.85 -128.8 81.65 -137.65 90.55 -149.3 90.6 -160.75 90.6 -167.9 82.1 -174.85 73.8 -173.75 62.2 -172.75 50.85 -164.55 42.6 -156.4 34.35 -145.55 33.75" fill="#ffd138" fill-rule="evenodd" stroke="none"/>
    <path d="M-145.55 33.75 L-139.3 34.1 Q-150.8 -6.55 -141.4 -38.6 -135.8 -57.6 -111.2 -71.9 -88.0 -85.4 -58.2 -89.2 -27.3 -93.15 -4.05 -84.55 21.9 -74.95 29.55 -52.1 41.15 -17.45 33.6 27.1 L32.0 35.65 Q36.05 34.5 40.75 34.75 50.9 35.3 58.15 42.2 65.5 49.1 65.35 58.35 65.2 67.55 57.6 73.4 50.05 79.05 39.85 78.15 29.75 77.0 23.0 70.05 L21.85 68.8 Q18.7 76.15 15.55 80.9 11.3 87.3 -6.5 91.65 -22.6 95.55 -44.75 96.7 -66.35 97.85 -84.2 95.9 -103.2 93.8 -109.9 88.9 -116.1 84.35 -122.75 73.4 -125.0 77.85 -128.8 81.65 -137.65 90.55 -149.3 90.6 -160.75 90.6 -167.9 82.1 -174.85 73.8 -173.75 62.2 -172.75 50.85 -164.55 42.6 -156.4 34.35 -145.55 33.75 Z" fill="none" stroke="#875b11" stroke-linecap="round" stroke-linejoin="round" stroke-width="10.0"/>
    <path d="M-119.55 76.0 Q-119.05 76.45 -78.55 92.0 L-100.55 110.5 -102.05 102.0 Q-120.55 113.55 -120.55 113.5 L-116.55 91.0 -129.55 97.0 -119.55 76.0 M-101.0 -112.8 Q-102.55 -109.8 -103.55 -105.25 -105.55 -96.15 -103.05 -88.35 -98.7 -115.65 -80.9 -130.65 -72.0 -138.15 -64.05 -140.2 -66.95 -136.05 -69.45 -127.7 -74.45 -111.0 -72.55 -90.05 -66.95 -128.45 -53.15 -144.6 -46.25 -152.7 -40.55 -153.1 -35.95 -147.1 -30.9 -135.8 -20.75 -113.15 -18.55 -86.7 -15.7 -102.5 -17.55 -117.1 -18.5 -124.4 -20.05 -128.55 -13.2 -123.55 -6.25 -114.65 7.65 -96.8 7.95 -77.25 10.8 -81.55 10.45 -90.05 10.3 -94.3 9.5 -97.75 13.35 -95.35 17.9 -90.6 26.95 -81.05 30.05 -69.5 33.2 -58.0 34.15 -36.6 34.65 -25.9 34.5 -17.55 L-144.25 -10.25 Q-144.6 -19.1 -143.85 -30.9 -142.3 -54.5 -137.0 -69.5 -131.7 -84.5 -115.8 -100.1 -107.85 -107.95 -101.0 -112.8 M17.5 76.0 L27.5 97.0 14.5 91.0 18.5 113.5 0.0 102.0 -1.5 110.5 -23.5 92.0 17.5 76.0" fill="#ffd138" fill-rule="evenodd" stroke="none"/>
    <path d="M-113.45 94.4 L-116.65 91.65 -116.55 91.0 -117.05 91.25 Q-120.15 88.2 -123.25 83.8 L-119.55 76.0 Q-119.05 76.45 -78.55 92.0 L-89.7 101.4 -88.85 101.55 Q-106.8 99.25 -113.45 94.4 M-3.4 97.3 L-14.5 99.6 -23.5 92.0 17.5 76.0 21.3 83.95 20.05 85.85 Q15.5 92.7 -3.4 97.3" fill="#620000" fill-opacity="0.2" fill-rule="evenodd" stroke="none"/>
    <path d="M-145.55 33.75 Q-134.55 33.05 -126.9 40.7 -119.05 48.55 -119.5 60.5 -119.95 72.7 -128.8 81.65 -137.65 90.55 -149.3 90.6 -160.75 90.6 -167.9 82.1 -174.85 73.8 -173.75 62.2 -172.75 50.85 -164.55 42.6 -156.4 34.35 -145.55 33.75" fill="#ffd138" fill-rule="evenodd" stroke="none"/>
    <path d="M-138.15 43.15 Q-130.6 42.65 -125.3 47.95 -119.95 53.3 -120.25 61.55 -120.55 69.95 -126.65 76.1 -132.7 82.2 -140.7 82.25 -148.6 82.25 -153.5 76.4 -158.3 70.7 -157.55 62.7 -156.85 54.9 -151.2 49.25 -145.6 43.55 -138.15 43.15" fill="#bf7926" fill-rule="evenodd" stroke="none"/>
    <path d="M40.75 34.75 Q50.9 35.3 58.15 42.2 65.5 49.1 65.35 58.35 65.2 67.55 57.6 73.4 50.05 79.05 39.85 78.15 29.75 77.0 23.0 70.05 16.3 63.2 16.5 54.45 16.5 53.25 16.75 52.15 17.65 44.9 23.7 40.05 30.75 34.2 40.75 34.75" fill="#ffd138" fill-rule="evenodd" stroke="none"/>
    <path d="M48.7 46.25 Q54.1 51.3 53.95 58.05 53.85 64.75 48.3 69.05 42.8 73.15 35.4 72.5 28.0 71.6 23.1 66.55 18.2 61.55 18.35 55.2 L18.55 53.55 Q19.2 48.2 23.6 44.65 28.75 40.45 36.05 40.85 43.45 41.2 48.7 46.25" fill="#bf7926" fill-rule="evenodd" stroke="none"/>
    <path d="M37.3 34.75 Q34.3 49.55 29.65 62.95 L25.55 73.5 25.9 72.65 23.0 70.05 Q16.3 63.2 16.5 54.45 16.5 53.25 16.75 52.15 17.65 44.9 23.7 40.05 29.5 35.25 37.3 34.75 M-142.65 40.6 L-144.6 33.7 Q-134.25 33.35 -126.9 40.7 -119.05 48.55 -119.5 60.5 -119.85 70.55 -125.9 78.35 L-128.55 73.9 Q-136.95 59.15 -142.65 40.6" fill="#620000" fill-opacity="0.2" fill-rule="evenodd" stroke="none"/>
    <path d="M29.55 -52.1 Q41.15 -17.45 33.6 27.1 30.65 44.45 25.25 59.8 20.45 73.55 15.55 80.9 11.3 87.3 -6.5 91.65 -22.6 95.55 -44.75 96.7 -66.35 97.85 -84.2 95.9 -103.2 93.8 -109.9 88.9 -117.0 83.7 -124.65 70.2 -132.6 56.2 -138.0 38.6 -151.3 -4.75 -141.4 -38.6 -135.8 -57.6 -111.2 -71.9 -88.0 -85.4 -58.2 -89.2 -27.3 -93.15 -4.05 -84.55 21.9 -74.95 29.55 -52.1" fill="#ffd138" fill-rule="evenodd" stroke="none"/>
    <path d="M-47.05 -6.0 Q-37.0 -38.0 -21.05 -38.9 -3.6 -39.8 8.25 -30.95 18.25 -23.4 23.5 -9.55 27.9 2.05 28.35 15.85 28.65 27.9 26.15 35.65 22.4 47.15 10.35 51.4 4.3 53.65 -1.1 53.5 2.15 55.1 5.5 58.3 12.2 64.7 12.6 72.3 12.95 78.7 8.45 86.55 2.85 89.35 -6.5 91.65 -22.6 95.55 -44.75 96.7 -66.35 97.85 -84.2 95.9 -103.2 93.8 -109.9 88.9 L-113.45 85.8 Q-117.6 78.4 -117.25 72.3 -116.9 64.7 -110.1 58.3 -106.8 55.1 -103.5 53.5 -108.9 53.65 -115.0 51.4 -127.1 47.15 -130.8 35.65 -133.35 27.9 -132.95 15.85 -132.5 2.05 -128.15 -9.55 -122.9 -23.4 -112.85 -30.95 -101.0 -39.8 -83.55 -38.9 -67.65 -38.0 -57.55 -6.0 -55.0 2.1 -53.3 10.3 L-52.3 15.15 -51.35 10.3 Q-49.65 2.1 -47.05 -6.0" fill="#bf7926" fill-rule="evenodd" stroke="none"/>
    <path d="M-68.2 22.25 Q-68.2 31.3 -75.3 37.7 -82.3 44.1 -92.25 44.1 -102.25 44.1 -109.3 37.7 -116.35 31.3 -116.35 22.25 -116.35 13.2 -109.3 6.8 -102.25 0.4 -92.25 0.4 -82.3 0.4 -75.3 6.8 -68.2 13.2 -68.2 22.25" fill="#ffffff" fill-rule="evenodd" stroke="none"/>
    <path d="M-68.2 22.25 Q-68.2 31.3 -75.3 37.7 -82.3 44.1 -92.25 44.1 -102.25 44.1 -109.3 37.7 -116.35 31.3 -116.35 22.25 -116.35 13.2 -109.3 6.8 -102.25 0.4 -92.25 0.4 -82.3 0.4 -75.3 6.8 -68.2 13.2 -68.2 22.25 Z" fill="none" stroke="#a8620f" stroke-linecap="round" stroke-linejoin="round" stroke-width="8.0"/>
    <path d="M-31.55 22.25 Q-31.55 31.3 -25.4 37.7 -19.3 44.1 -10.65 44.1 -2.0 44.1 4.1 37.7 10.2 31.3 10.2 22.25 10.2 13.2 4.1 6.8 -2.0 0.4 -10.65 0.4 -19.3 0.4 -25.4 6.8 -31.55 13.2 -31.55 22.25" fill="#ffffff" fill-rule="evenodd" stroke="none"/>
    <path d="M-31.55 22.25 Q-31.55 31.3 -25.4 37.7 -19.3 44.1 -10.65 44.1 -2.0 44.1 4.1 37.7 10.2 31.3 10.2 22.25 10.2 13.2 4.1 6.8 -2.0 0.4 -10.65 0.4 -19.3 0.4 -25.4 6.8 -31.55 13.2 -31.55 22.25 Z" fill="none" stroke="#a8620f" stroke-linecap="round" stroke-linejoin="round" stroke-width="8.0"/>
    <path d="M-68.2 22.25 Q-68.2 31.3 -75.3 37.7 -82.3 44.1 -92.25 44.1 -102.25 44.1 -109.3 37.7 -116.35 31.3 -116.35 22.25 -116.35 13.2 -109.3 6.8 -102.25 0.4 -92.25 0.4 -82.3 0.4 -75.3 6.8 -68.2 13.2 -68.2 22.25" fill="#ffffff" fill-rule="evenodd" stroke="none"/>
    <path d="M-31.55 22.25 Q-31.55 31.3 -25.4 37.7 -19.3 44.1 -10.65 44.1 -2.0 44.1 4.1 37.7 10.2 31.3 10.2 22.25 10.2 13.2 4.1 6.8 -2.0 0.4 -10.65 0.4 -19.3 0.4 -25.4 6.8 -31.55 13.2 -31.55 22.25" fill="#ffffff" fill-rule="evenodd" stroke="none"/>
    <path d="M-109.3 6.8 Q-102.25 0.4 -92.25 0.4 -82.3 0.4 -75.3 6.8 -68.8 12.65 -68.25 20.8 L-68.8 20.8 Q-80.85 21.25 -96.4 16.55 -105.35 13.8 -112.45 10.25 -111.1 8.45 -109.3 6.8" fill="#bf7926" fill-rule="evenodd" stroke="none"/>
    <path d="M4.1 6.8 Q6.65 9.45 8.15 12.6 2.15 15.45 -5.0 17.35 -19.4 21.2 -31.4 19.5 -30.6 12.2 -25.4 6.8 -19.3 0.4 -10.65 0.4 -2.0 0.4 4.1 6.8" fill="#bf7926" fill-rule="evenodd" stroke="none"/>
    <path d="M35.5 13.6 Q-43.45 -0.5 -143.2 18.3 -147.8 -6.2 -144.15 -27.25 -61.3 -47.2 34.75 -30.85 38.0 -10.15 35.5 13.6" fill="#8e429c" fill-rule="evenodd" stroke="none"/>
  </g>
</svg>
