<?xml version="1.0" encoding="UTF-8" standalone="no"?>
<svg xmlns:xlink="http://www.w3.org/1999/xlink" height="144.2px" width="175.1px" xmlns="http://www.w3.org/2000/svg">
  <g transform="matrix(1.0, 0.0, 0.0, 1.0, 56.15, 68.15)">
    <path d="M35.2 -27.25 Q36.8 -28.05 38.4 -29.1 41.8 -31.3 43.55 -33.45 39.65 -30.55 36.05 -30.05 L35.8 -33.45 Q41.6 -36.75 48.95 -37.15 L52.35 -24.4 Q49.15 -21.1 44.45 -18.1 40.85 -15.75 37.8 -14.55 L37.8 -10.45 24.15 -9.3 Q24.85 -12.75 24.65 -14.95 24.4 -17.05 23.15 -20.65 23.5 -16.4 23.25 -13.6 23.05 -10.8 22.05 -7.15 L29.6 -7.5 Q27.7 -1.2 21.25 1.45 30.45 0.5 31.15 -7.75 L38.45 -9.2 38.85 -5.9 35.55 -4.4 38.6 6.3 Q10.85 46.55 -49.1 32.7 L-51.15 15.0 Q0.05 15.5 16.8 -22.7 L19.25 -29.9 32.15 -33.75 Q33.95 -30.55 35.2 -27.25 37.5 -21.1 37.8 -14.55 37.5 -21.1 35.2 -27.25 M52.4 -27.4 L55.2 -28.0 59.0 -14.2 Q55.55 -11.0 50.6 -8.5 46.0 -6.2 41.05 -5.05 L39.45 -14.25 Q42.25 -15.4 45.45 -17.5 50.15 -20.5 53.35 -23.8 L52.4 -27.4 M36.95 -3.4 L39.95 -4.6 40.0 -3.95 Q44.75 -4.85 49.15 -6.75 51.8 -7.9 54.0 -9.3 L56.5 0.1 Q49.1 5.2 40.2 6.55 L36.95 -3.4" fill="#000000" fill-rule="evenodd" stroke="none"/>
    <path d="M35.2 -27.25 Q36.8 -28.05 38.4 -29.1 41.8 -31.3 43.55 -33.45 39.65 -30.55 36.05 -30.05 L35.8 -33.45 Q41.6 -36.75 48.95 -37.15 L52.35 -24.4 Q49.15 -21.1 44.45 -18.1 40.85 -15.75 37.8 -14.55 L37.8 -10.45 24.15 -9.3 Q24.85 -12.75 24.65 -14.95 24.4 -17.05 23.15 -20.65 23.5 -16.4 23.25 -13.6 23.05 -10.8 22.05 -7.15 L29.6 -7.5 Q27.7 -1.2 21.25 1.45 30.45 0.5 31.15 -7.75 L38.45 -9.2 38.85 -5.9 35.55 -4.4 38.6 6.3 Q10.85 46.55 -49.1 32.7 L-51.15 15.0 Q0.05 15.5 16.8 -22.7 L19.25 -29.9 32.15 -33.75 Q33.95 -30.55 35.2 -27.25 37.5 -21.1 37.8 -14.55 M36.95 -3.4 L40.2 6.55 Q49.1 5.2 56.5 0.1 L54.0 -9.3 Q51.8 -7.9 49.15 -6.75 44.75 -4.85 40.0 -3.95 L39.95 -4.6 36.95 -3.4 M52.4 -27.4 L53.35 -23.8 Q50.15 -20.5 45.45 -17.5 42.25 -15.4 39.45 -14.25 L41.05 -5.05 Q46.0 -6.2 50.6 -8.5 55.55 -11.0 59.0 -14.2 L55.2 -28.0 52.4 -27.4" fill="none" stroke="#000000" stroke-linecap="round" stroke-linejoin="round" stroke-width="10.0"/>
    <path d="M39.1 -13.9 L40.25 -14.75 Q41.35 -9.55 42.95 -4.7 L38.4 -2.6 39.2 5.1 28.15 8.2 Q25.1 3.45 22.95 -1.8 L28.4 -4.75 21.9 -4.8 Q19.9 -10.6 18.95 -17.0 L23.2 -16.55 23.25 -16.55 24.0 -16.7 24.05 -16.75 24.55 -17.1 27.0 -11.3 Q27.15 -10.8 27.7 -10.55 L27.65 -10.55 28.4 -10.3 Q28.9 -10.3 29.35 -10.6 L29.35 -10.65 37.95 -17.45 39.1 -13.9" fill="#ffffff" fill-rule="evenodd" stroke="none"/>
    <path d="M37.1 -29.65 L35.15 -33.25 48.45 -37.0 43.9 -32.35 42.8 -32.8 37.1 -29.65" fill="#ffffff" fill-rule="evenodd" stroke="none"/>
    <path d="M75.2 -50.7 Q71.45 -54.5 66.25 -56.7 L66.3 -56.65 Q57.2 -60.5 50.6 -53.4 46.1 -48.45 43.7 -39.4 41.2 -30.05 41.55 -19.6 41.95 -8.9 45.4 -0.55 L45.4 -0.5 Q48.75 7.75 54.7 11.65 59.2 14.5 63.7 13.1 66.75 12.0 73.25 7.35 81.2 1.6 85.9 1.2 L85.95 1.2 Q94.1 -0.25 102.0 8.5 L101.95 8.5 Q110.6 16.95 102.65 36.8 96.45 52.5 81.25 70.95 L76.9 76.05 Q77.1 69.0 69.55 69.35 L73.55 64.6 Q87.55 47.6 93.35 33.1 98.4 20.5 94.55 15.2 90.8 11.05 87.2 11.1 84.3 11.7 79.1 15.45 70.85 21.4 66.8 22.6 L66.85 22.6 Q58.1 25.6 49.35 20.1 40.85 14.85 36.15 3.25 32.05 -6.6 31.55 -19.2 31.15 -31.25 34.05 -42.0 37.2 -53.75 43.25 -60.15 L43.25 -60.2 Q54.5 -72.4 70.15 -65.9 77.25 -62.9 82.35 -57.7 83.75 -56.2 83.75 -54.15 83.75 -52.1 82.25 -50.6 80.75 -49.2 78.7 -49.2 76.65 -49.2 75.2 -50.7" fill="#3399ff" fill-rule="evenodd" stroke="none"/>
    <path d="M78.75 -64.35 L87.6 -63.35 102.55 -54.3 90.6 -34.65 75.65 -43.7 70.7 -51.1 78.75 -64.35" fill="#3399ff" fill-rule="evenodd" stroke="none"/>
    <path d="M92.4 -60.45 L118.95 -44.35 107.0 -24.7 80.45 -40.8 92.4 -60.45" fill="#dbdbdb" fill-rule="evenodd" stroke="none"/>
    <path d="M108.45 -50.65 L118.9 -44.3 106.95 -24.65 96.5 -31.0 108.45 -50.65" fill="#cdcdcd" fill-rule="evenodd" stroke="none"/>
    <path d="M99.85 -47.55 L101.55 -50.35 106.15 -46.85 98.75 -34.7 93.55 -37.1 95.25 -39.95 87.65 -43.9 92.85 -52.5 99.85 -47.55" fill="#a8a8a8" fill-rule="evenodd" stroke="none"/>
    <path d="M92.95 -39.2 L99.45 -49.95 105.65 -46.2 99.15 -35.45 92.95 -39.2" fill="#dbdbdb" fill-rule="evenodd" stroke="none"/>
    <path d="M106.05 -46.8 L116.5 -40.45 115.4 -38.6 104.95 -44.95 106.05 -46.8 M103.9 -43.25 Q109.15 -40.1 114.35 -36.9 L113.2 -35.05 102.75 -41.4 103.9 -43.25 M112.25 -33.4 L111.1 -31.55 100.65 -37.9 101.8 -39.75 112.25 -33.4 M99.75 -36.45 L110.2 -30.1 109.1 -28.25 98.65 -34.6 99.75 -36.45" fill="#a8a8a8" fill-rule="evenodd" stroke="none"/>
    <path d="M92.95 -39.25 L99.45 -50.0 Q99.95 -49.7 100.4 -49.45 L93.9 -38.7 92.95 -39.25" fill="#cdcdcd" fill-rule="evenodd" stroke="none"/>
    <path d="M86.8 -46.1 L90.55 -52.3 104.4 -43.9 100.65 -37.7 86.8 -46.1" fill="#dbdbdb" fill-rule="evenodd" stroke="none"/>
    <path d="M90.2 -44.0 L93.95 -50.2 94.95 -49.6 91.2 -43.4 90.2 -44.0" fill="#cdcdcd" fill-rule="evenodd" stroke="none"/>
    <path d="M24.45 -21.05 L33.25 -30.2 37.7 -19.55 28.3 -12.15 24.45 -21.05 M23.1 -18.6 L17.25 -19.15 19.2 -30.05 31.9 -33.45 23.45 -23.5 23.1 -18.6" fill="#ffffff" fill-rule="evenodd" stroke="none"/>
    <path d="M42.35 -30.7 L44.9 -30.6 49.2 -35.95 51.4 -25.2 40.55 -17.55 37.1 -27.9 42.35 -30.7" fill="#ffffff" fill-rule="evenodd" stroke="none"/>
    <path d="M45.3 -6.55 L42.15 -15.15 51.65 -22.15 56.55 -13.1 45.3 -6.55 M53.25 -23.5 L52.8 -27.4 55.0 -27.9 58.1 -14.55 53.25 -23.5" fill="#ffffff" fill-rule="evenodd" stroke="none"/>
    <path d="M40.75 -1.75 L53.45 -7.6 55.7 0.3 41.55 6.25 40.75 -1.75" fill="#ffffff" fill-rule="evenodd" stroke="none"/>
    <path d="M18.2 -7.75 Q4.7 2.3 -6.45 15.0 -9.8 14.8 -10.45 10.65 3.45 1.0 14.15 -12.1 18.0 -11.55 18.2 -7.75" fill="#ffffff" fill-rule="evenodd" stroke="none"/>
    <path d="M24.4 7.85 Q10.3 17.1 -1.5 29.25 -4.85 28.8 -5.3 24.65 9.1 15.8 20.6 3.3 24.35 4.0 24.4 7.85" fill="#ffffff" fill-rule="evenodd" stroke="none"/>
    <path d="M-16.5 18.55 Q-29.75 19.3 -42.5 22.85 -44.65 21.2 -43.3 18.2 -30.0 17.95 -17.25 13.95 -14.95 15.95 -16.5 18.55" fill="#ffffff" fill-rule="evenodd" stroke="none"/>
    <path d="M-12.55 28.85 Q-27.55 29.1 -42.2 32.55 -44.55 30.6 -42.8 27.3 -27.8 27.55 -13.2 23.6 -10.7 25.95 -12.55 28.85" fill="#ffffff" fill-rule="evenodd" stroke="none"/>
  </g>
</svg>
