<?xml version="1.0" encoding="UTF-8" standalone="no"?>
<svg xmlns:xlink="http://www.w3.org/1999/xlink" height="62.05px" width="60.8px" xmlns="http://www.w3.org/2000/svg">
  <g transform="matrix(1.0, 0.0, 0.0, 1.0, -1.85, 2.05)">
    <path d="M53.0 9.95 L52.7 11.55 52.4 11.7 52.05 11.55 52.05 11.2 51.9 11.25 Q51.55 11.25 51.2 10.65 L50.95 10.0 51.05 9.8 52.05 10.8 52.2 10.2 Q52.5 9.6 52.85 9.55 L53.0 9.95 M55.2 10.7 Q55.2 11.25 54.75 11.35 L54.4 10.9 Q54.4 10.6 54.9 10.1 55.25 10.2 55.2 10.7 M54.4 9.85 L54.45 10.05 Q54.45 10.65 53.9 10.85 53.6 10.7 53.6 10.35 53.6 9.7 54.3 9.85 L54.4 9.85 M56.45 11.1 L56.1 10.85 55.95 10.6 56.0 10.4 56.75 10.85 56.45 11.1 M49.0 13.2 Q49.65 13.6 50.0 14.8 L49.55 15.1 Q49.15 15.1 48.9 14.4 L48.7 13.65 Q48.7 13.35 49.0 13.2 M48.25 13.45 L48.6 14.05 48.9 14.75 48.65 15.0 Q48.3 15.0 48.1 14.5 L47.95 13.95 48.1 13.7 48.25 13.45 M49.95 14.2 L49.9 14.0 50.15 13.55 Q50.75 13.9 50.75 14.3 L50.7 14.55 50.45 14.6 49.95 14.2 M47.8 13.05 Q47.8 14.3 47.45 14.8 L47.25 14.85 46.8 14.45 46.75 14.3 45.9 15.4 Q45.55 15.4 45.5 15.15 L45.5 15.1 45.45 15.2 45.25 15.3 44.95 14.8 45.35 14.0 46.0 13.35 46.4 13.55 46.45 13.6 46.9 13.5 46.95 13.3 Q47.25 12.65 47.75 12.85 L47.8 13.05 M55.1 31.6 L54.75 32.95 54.5 33.1 Q54.2 32.8 54.2 32.5 54.2 31.45 55.05 31.45 L55.1 31.6 M53.95 31.9 L54.2 32.6 54.15 32.8 53.9 32.9 Q53.55 32.9 53.35 32.4 L53.2 31.75 53.25 31.5 Q53.65 31.45 53.95 31.9 M55.1 32.65 Q55.1 32.3 55.45 31.9 55.85 31.35 56.4 31.5 L56.45 31.75 55.55 33.1 Q55.1 33.1 55.1 32.65 M52.8 33.1 Q52.4 33.1 52.15 32.7 L51.95 32.2 Q51.95 31.75 52.3 31.8 L53.25 32.7 53.05 32.95 52.8 33.1 M57.95 32.5 Q57.95 32.85 57.3 32.85 L56.8 32.4 56.75 32.05 Q56.75 31.65 57.15 31.9 L57.9 32.35 57.95 32.5 M43.3 39.2 L42.65 39.95 Q42.3 40.2 42.3 40.4 L41.75 40.75 Q41.4 40.5 41.4 40.3 L42.05 39.55 Q42.7 39.1 43.25 39.1 L43.3 39.2 M43.65 40.0 L43.8 40.35 43.7 40.45 43.35 40.4 43.3 40.1 43.65 40.0 M41.6 38.65 L41.85 38.95 40.5 40.85 40.25 40.7 40.15 40.7 39.8 40.65 39.8 39.9 40.2 39.3 Q40.4 39.0 40.65 39.0 L40.75 39.05 40.8 39.2 40.8 39.3 41.6 38.65 M34.2 10.05 Q34.25 9.25 35.0 10.0 L36.05 11.05 36.05 10.95 36.05 10.3 36.5 9.6 36.85 10.3 36.7 11.55 36.4 11.7 36.1 11.2 35.75 11.45 Q35.2 11.45 34.75 10.9 L34.2 10.05 M33.5 12.15 L34.2 12.45 33.9 12.7 33.35 12.45 32.75 11.95 33.5 12.15 M37.9 10.0 L37.75 10.9 38.05 10.5 38.65 9.85 38.9 10.2 Q38.35 11.6 38.05 11.6 L37.7 11.55 37.65 11.2 37.6 11.5 37.15 11.6 Q36.8 11.5 36.8 11.05 L37.0 10.3 Q37.3 9.8 37.65 9.75 L37.9 10.0 M39.9 10.35 L40.45 10.95 Q40.3 11.4 39.75 11.4 L39.3 11.1 39.15 10.75 39.25 10.15 39.9 10.35 M19.95 14.85 L19.7 15.05 Q19.05 15.05 19.2 14.25 19.5 14.25 19.95 14.85 M18.55 14.2 L18.15 14.7 17.8 14.3 Q17.8 13.9 18.5 13.45 L18.75 13.8 18.55 14.2 M17.4 13.2 L17.7 13.55 17.45 14.85 17.2 14.95 16.75 14.65 16.75 14.3 16.8 13.75 17.4 13.2 M15.45 13.3 L15.5 12.95 Q15.9 12.9 16.3 13.45 16.65 13.95 16.6 14.35 L16.35 14.45 Q15.9 14.45 15.65 13.9 L15.45 13.3 M11.0 18.1 L11.45 18.75 11.7 19.4 11.65 19.6 11.4 19.8 10.95 19.3 10.7 18.75 10.8 18.4 11.0 18.1 M13.45 18.4 L13.4 18.95 14.0 18.75 14.25 19.05 13.3 20.1 Q12.9 20.1 12.85 19.95 L12.65 20.15 12.4 19.95 12.35 19.95 Q11.9 19.95 11.85 19.65 L11.85 19.15 Q11.85 18.65 12.15 18.45 L12.45 19.1 12.45 19.2 12.6 18.9 13.15 18.25 13.45 18.4 M14.75 19.5 L15.0 19.75 Q15.0 20.25 14.25 20.55 L13.95 20.15 14.15 19.75 14.75 19.5 M15.9 29.2 L15.95 28.85 16.95 29.5 17.6 30.25 17.5 30.55 17.2 30.6 16.3 30.0 15.9 29.2 M20.05 28.75 L19.95 28.95 19.8 29.15 20.1 29.65 20.1 29.35 20.7 28.95 20.85 29.2 20.75 30.05 20.45 30.15 20.1 30.1 20.1 29.95 19.75 30.2 Q19.1 30.2 19.1 29.6 19.1 28.4 19.9 28.5 L20.05 28.75 M17.85 29.45 Q17.85 28.25 18.15 27.75 L18.45 29.45 18.25 30.2 Q17.85 30.0 17.85 29.45 M21.3 30.15 Q21.3 29.8 21.9 29.25 L22.05 29.6 22.0 29.8 22.1 29.95 22.2 30.1 22.0 30.45 21.7 30.6 21.35 30.55 21.3 30.15 M23.7 30.4 Q22.95 30.4 22.95 29.6 23.35 29.5 24.05 30.05 L23.7 30.4 M29.5 47.2 L29.55 46.8 30.2 46.7 30.55 47.5 30.75 48.25 30.7 48.55 30.4 48.6 29.9 48.35 29.65 48.45 Q29.2 48.45 28.6 47.9 28.0 47.35 27.95 47.05 L29.0 47.35 29.65 47.75 29.5 47.2 M39.6 40.0 L39.4 40.85 39.1 41.0 38.85 40.8 38.6 40.85 Q38.0 40.85 37.55 39.65 37.55 38.9 38.2 39.5 L38.3 39.35 38.6 39.1 38.6 39.45 38.35 39.65 38.75 40.2 Q38.8 38.85 39.25 38.6 L39.6 40.0 M37.1 41.1 L37.05 40.7 37.9 40.7 38.0 41.0 37.75 41.25 37.1 41.1 M32.45 47.85 Q32.45 48.25 31.95 48.25 L31.6 48.2 31.55 47.75 Q31.55 47.15 31.9 46.95 L32.45 47.85 M34.05 48.45 L33.75 48.6 33.3 48.1 33.15 47.5 33.2 47.2 Q33.6 47.0 33.9 47.35 L34.1 47.95 34.05 48.45 M28.95 52.5 Q28.55 53.45 28.15 53.55 L27.85 53.2 27.9 52.9 27.7 53.25 27.25 53.7 Q26.75 53.7 26.75 53.2 L27.15 52.65 Q27.6 52.3 27.8 52.3 L27.95 52.65 27.95 52.75 28.65 52.15 28.95 52.5 M25.75 53.55 L25.2 53.3 25.2 52.75 Q25.8 52.75 26.25 53.2 L26.15 53.45 25.75 53.55 M30.1 52.9 L29.5 53.6 29.1 53.15 29.4 52.75 29.95 52.6 30.1 52.9 M19.85 50.7 L19.9 50.7 19.95 50.85 19.7 51.45 Q19.4 51.85 19.05 51.85 18.65 51.85 18.65 51.5 L19.05 50.9 Q19.5 50.55 19.85 50.7 M17.95 51.8 L17.6 51.75 17.6 51.25 18.0 50.85 18.35 51.5 17.95 51.8 M17.5 50.7 L17.4 51.55 17.15 51.65 16.9 51.05 Q16.9 50.5 17.25 50.25 L17.5 50.7 M15.9 50.1 L16.45 51.45 16.35 51.75 Q16.4 51.9 16.15 51.9 15.85 51.9 15.7 51.45 L15.45 51.7 14.9 51.6 14.5 51.0 14.5 50.7 Q14.9 50.7 15.3 51.05 L15.7 51.45 15.65 51.3 15.55 50.7 Q15.55 50.35 15.9 50.1" fill="#a5ec00" fill-rule="evenodd" stroke="none"/>
    <path d="M57.0 3.5 L57.4 4.65 57.55 5.3 Q58.0 4.75 58.5 4.5 L58.85 4.55 59.0 5.0 Q59.0 5.35 57.65 7.5 L57.85 7.5 Q57.85 8.7 56.25 9.35 L55.8 9.2 55.6 8.65 Q55.6 8.25 56.4 7.8 L56.7 7.65 56.4 7.3 56.4 7.2 56.35 7.15 56.25 7.15 55.35 6.85 55.35 6.9 55.25 7.3 Q55.15 7.5 54.75 7.5 53.8 7.5 52.85 6.35 52.1 5.45 52.1 5.15 L52.1 4.8 52.25 4.65 Q52.9 4.65 54.0 5.45 L54.85 6.15 54.6 5.3 54.65 4.75 Q55.35 4.8 56.0 5.5 L56.15 5.7 56.35 4.75 Q56.65 3.7 57.0 3.5 M40.8 10.2 L41.65 10.1 42.1 12.65 42.45 11.55 43.25 9.75 43.55 9.85 43.65 10.25 43.3 12.0 44.5 11.1 44.7 11.25 44.75 11.75 44.15 13.25 43.75 14.05 Q45.0 13.2 45.25 13.25 L45.75 13.75 43.95 14.8 42.0 15.75 41.9 15.4 43.05 14.55 42.6 14.1 42.35 14.75 41.85 14.75 41.75 14.15 41.8 13.75 41.75 13.75 Q40.75 12.35 40.75 10.95 L40.8 10.2 M46.75 14.05 L47.0 14.0 Q47.6 14.55 47.85 15.7 L48.25 14.25 Q48.6 14.9 48.75 16.7 L49.85 15.9 50.1 16.25 49.35 17.6 49.35 17.75 Q50.1 17.15 50.35 17.15 L50.6 17.5 49.5 18.45 48.7 19.1 48.5 19.3 Q47.6 20.25 46.1 20.8 L45.55 21.05 45.15 19.5 45.15 19.45 44.75 19.9 Q43.9 19.55 43.5 18.75 43.95 18.4 44.4 18.6 44.8 18.8 45.1 19.35 L44.95 18.7 43.75 17.9 41.5 16.15 41.5 15.65 Q42.05 15.65 44.45 17.1 L44.85 17.35 45.2 16.8 45.15 16.65 Q45.15 15.9 45.75 15.75 L47.3 18.15 47.45 17.95 47.0 16.75 46.5 14.5 Q46.5 14.15 46.75 14.05 M45.9 18.05 L46.95 18.85 47.1 18.45 46.75 18.5 45.9 17.7 45.8 17.6 45.9 18.05 M41.05 14.0 Q40.15 14.0 39.35 12.7 38.6 11.5 38.6 10.5 L39.95 11.85 41.5 13.75 Q41.65 14.0 41.05 14.0 M40.65 17.25 L40.45 18.0 40.9 18.5 Q40.9 19.0 40.1 19.6 L39.1 20.15 38.55 20.1 38.4 20.0 38.35 20.0 38.15 20.0 Q38.0 20.05 38.0 19.5 L36.3 18.85 34.5 18.0 34.4 17.6 Q34.95 17.55 36.15 18.05 L37.35 18.65 37.25 18.5 37.15 17.75 Q37.15 14.9 37.85 14.4 L38.2 16.6 39.0 15.6 Q39.4 16.35 38.85 17.3 L38.4 18.0 38.55 18.5 38.7 18.25 Q39.55 17.0 40.25 16.75 L40.55 16.85 40.65 17.25 M42.8 20.05 L44.05 21.25 43.5 21.8 Q41.65 20.05 41.35 19.25 41.75 19.3 42.8 20.05 M46.05 19.25 L46.1 20.0 46.65 19.5 46.05 19.25 M58.45 25.5 L58.0 27.2 Q57.6 28.05 57.7 29.05 58.2 28.45 58.95 28.45 L59.05 28.85 58.65 29.95 57.7 30.7 57.25 30.6 Q57.1 30.5 57.1 30.1 57.1 29.75 57.45 29.35 L57.2 29.45 56.7 28.65 56.45 28.7 Q56.05 28.4 55.65 26.85 L55.35 25.1 Q55.35 24.15 55.95 23.8 56.35 24.5 56.6 25.85 L56.8 27.1 57.0 26.45 Q57.45 25.25 57.95 24.95 L58.3 25.05 58.45 25.5 M55.75 29.15 L55.3 29.2 55.0 29.15 55.35 29.7 54.95 30.1 Q54.1 29.85 53.45 28.95 52.85 28.15 52.85 27.6 L52.9 27.2 52.95 27.2 53.25 27.15 53.2 27.0 53.35 26.65 53.95 25.95 Q55.15 27.35 55.8 28.95 L55.75 29.15 M50.9 36.5 L50.4 37.4 49.5 38.0 Q49.35 38.4 49.35 37.85 L49.1 37.7 49.05 37.5 48.75 37.6 48.55 37.55 48.35 37.75 47.9 37.1 47.75 37.15 Q46.75 36.9 46.05 36.0 45.5 35.25 45.5 34.8 45.5 33.95 46.0 33.75 L47.05 34.85 46.9 34.5 46.95 34.15 47.0 34.25 Q47.65 34.45 48.05 35.55 L48.15 35.75 Q48.25 33.55 49.0 33.0 L49.5 35.6 50.0 35.15 50.15 36.25 50.15 36.35 50.5 36.0 50.8 36.1 50.9 36.5 M42.3 45.6 L42.4 46.0 41.75 47.2 41.2 47.9 41.5 47.6 Q41.75 47.35 42.1 47.25 L41.9 48.1 Q41.6 48.6 40.75 48.75 L40.65 48.4 40.95 48.15 40.75 48.25 40.35 48.1 40.25 47.8 39.85 47.85 39.15 47.6 39.0 47.6 38.35 47.35 38.0 47.4 37.65 47.3 37.6 47.35 36.5 48.4 36.25 48.2 35.75 48.3 35.25 48.25 35.0 48.5 34.7 48.3 Q34.6 48.5 34.25 48.5 33.2 48.5 32.05 46.4 L31.15 44.25 31.15 43.85 31.3 43.75 Q32.35 43.8 33.1 45.25 L34.1 47.05 34.1 46.5 Q34.1 45.05 34.75 44.5 L35.35 45.75 35.55 46.65 36.2 46.05 Q35.05 44.75 33.4 42.2 33.4 41.8 33.55 41.65 L34.0 41.5 36.4 44.25 36.4 44.15 Q37.15 43.7 38.15 44.95 L38.85 45.95 39.05 44.45 Q39.2 43.45 39.5 43.25 40.0 43.8 40.15 45.15 40.3 46.45 40.55 47.05 L41.05 46.4 42.0 45.5 42.3 45.6 M31.35 5.15 L31.6 6.25 31.4 7.75 31.6 8.1 31.8 7.55 Q32.1 6.75 32.5 6.5 L32.85 6.55 33.0 7.0 32.95 7.2 33.3 6.7 Q34.0 5.8 34.35 5.65 L34.6 6.0 34.05 7.7 33.95 8.0 35.5 6.5 35.8 6.6 35.9 7.0 34.8 8.65 33.0 10.0 32.8 9.9 32.75 9.45 33.4 8.65 33.0 8.75 32.6 8.6 32.5 8.35 32.0 9.25 31.75 9.15 31.5 9.15 Q31.0 9.15 30.25 8.15 L29.8 7.45 Q29.0 7.2 28.25 6.2 27.5 5.15 27.5 4.75 27.5 4.4 27.75 4.3 L28.0 4.25 29.65 6.25 Q29.8 5.25 30.6 6.5 L30.95 7.05 30.85 6.15 Q30.85 5.3 31.35 5.15 M33.5 12.25 L34.35 12.95 34.65 13.3 Q34.8 11.95 35.55 11.6 L35.9 14.3 35.8 15.35 35.75 15.4 35.8 15.4 35.9 15.55 35.95 15.6 36.9 17.15 36.75 17.35 34.75 15.6 33.15 14.85 Q31.45 13.9 31.1 13.25 31.5 13.15 33.1 13.95 L34.65 14.8 34.55 14.35 34.55 14.05 33.8 13.25 33.4 12.5 33.45 12.15 33.5 12.25 M38.5 13.5 L38.15 13.95 37.25 14.5 36.75 14.15 Q37.25 13.3 38.0 13.0 L38.35 13.05 38.5 13.5 M36.05 13.9 L35.9 13.4 Q35.9 12.9 36.5 12.45 37.1 12.05 37.55 12.1 L37.75 12.5 Q37.2 13.85 36.5 14.05 L36.05 13.9 M11.45 10.05 L11.7 10.05 Q12.2 10.35 12.6 11.25 L13.05 12.45 13.05 12.7 12.6 12.8 Q11.9 12.8 11.45 11.65 L11.2 10.45 Q11.2 10.1 11.45 10.05 M14.1 10.45 Q14.1 9.75 14.95 8.2 15.75 6.65 16.2 6.55 L16.55 6.6 16.7 7.05 Q15.35 10.5 14.7 11.05 L14.25 10.95 Q14.1 10.85 14.1 10.45 M14.5 11.55 Q14.5 11.0 15.7 10.7 L17.55 10.55 17.2 10.95 18.45 11.05 18.55 11.2 16.95 12.05 16.1 12.05 16.05 11.85 15.2 12.05 14.8 12.0 14.6 11.8 Q14.5 12.2 14.5 11.55 M13.55 10.2 Q14.1 12.1 14.55 12.55 L14.5 12.7 14.2 12.9 Q13.7 12.75 12.9 11.45 12.1 10.25 12.1 9.85 L12.2 9.05 Q13.15 8.85 13.55 10.2 M4.95 12.3 L6.75 14.4 6.9 13.0 Q7.15 11.75 7.45 11.55 L8.3 15.9 8.65 13.65 Q9.1 11.55 9.7 11.05 L10.05 11.15 10.2 11.6 9.9 13.95 9.8 14.7 Q10.2 14.25 10.7 14.05 L11.05 14.1 11.2 14.55 10.3 15.85 9.6 16.7 10.2 16.3 10.6 16.8 8.7 18.15 Q8.3 18.5 8.3 17.85 L8.6 17.4 Q8.35 17.05 8.35 16.5 L8.25 16.6 8.2 16.65 8.15 16.9 7.7 17.05 Q7.1 17.05 6.5 16.4 L5.1 15.6 3.2 14.15 Q3.85 13.3 4.9 13.75 L4.45 12.7 Q4.45 12.35 4.7 12.3 L4.95 12.3 M7.55 18.3 L8.7 19.45 8.85 18.95 9.45 18.05 9.85 19.0 9.85 19.1 9.9 19.05 Q11.15 17.8 11.55 17.7 L11.8 18.05 Q11.75 18.7 10.9 19.85 L9.2 21.65 8.75 21.5 8.55 20.95 8.65 20.55 8.55 20.55 Q7.8 20.55 6.75 19.25 5.7 18.05 5.7 17.4 6.45 17.25 7.55 18.3 M3.2 17.95 Q3.8 17.95 5.35 19.0 6.95 20.1 7.35 20.8 L6.95 21.2 Q5.3 20.45 3.2 18.45 L3.2 17.95 M9.95 21.25 L10.8 20.4 Q11.85 19.45 12.95 19.05 L13.35 19.55 12.45 21.05 Q11.8 21.8 10.8 21.8 L10.1 21.8 Q9.95 21.85 9.95 21.25 M19.05 14.6 L19.2 15.05 18.15 17.2 Q17.05 18.9 16.2 19.05 L15.8 18.95 15.7 18.5 16.3 17.2 15.95 17.3 15.45 16.3 15.35 15.6 15.45 14.05 16.35 14.05 16.55 16.85 16.75 16.55 Q17.9 14.85 18.7 14.55 L19.05 14.6 M14.55 14.35 L15.45 16.45 14.95 17.05 Q14.2 16.5 13.65 15.6 13.1 14.65 13.1 13.85 13.1 13.05 13.7 12.8 L14.55 14.35 M11.7 13.95 L12.05 13.95 12.95 15.45 13.7 16.95 13.2 17.55 12.2 16.0 Q11.55 14.75 11.55 14.3 L11.65 13.9 11.7 13.95 M16.35 26.65 L15.65 27.8 15.3 28.15 15.35 28.15 15.5 28.3 15.6 28.75 Q15.6 29.05 14.15 29.75 L14.2 29.8 Q14.45 30.1 13.85 30.1 13.2 30.1 12.2 29.5 L10.3 28.35 10.45 27.95 13.8 29.45 13.4 29.05 13.05 28.3 12.85 28.55 Q12.65 28.4 12.15 27.05 11.6 25.65 11.6 25.25 L11.7 24.95 11.8 24.85 11.85 24.8 12.1 24.75 Q12.7 25.4 12.9 26.35 L13.05 27.0 13.05 26.75 Q13.2 26.3 13.85 25.9 L14.2 26.05 14.35 26.5 14.2 27.75 14.65 27.25 15.85 26.15 16.2 26.25 16.35 26.65 M18.8 32.6 Q19.5 32.25 21.15 33.45 L21.05 32.35 21.1 31.1 21.55 31.1 22.25 33.3 22.5 34.5 22.55 34.55 22.85 32.35 Q23.3 30.25 24.05 30.0 24.45 30.55 24.45 31.1 L24.05 33.6 24.05 33.75 25.3 32.35 25.6 33.25 25.1 34.35 25.95 33.6 26.45 33.6 26.55 33.7 26.6 34.1 25.5 35.4 24.2 36.6 23.8 36.5 23.7 36.05 23.75 35.85 23.6 35.8 23.6 35.85 23.25 36.0 23.2 36.1 23.1 36.0 Q22.45 35.9 21.0 34.65 L18.8 32.95 18.8 32.6 M1.95 27.35 L1.85 27.25 2.0 26.9 2.1 26.95 1.95 27.35 M4.45 46.5 Q5.6 48.25 6.1 48.65 L6.0 48.9 5.55 49.0 Q5.2 49.0 4.2 47.6 L3.1 45.85 Q3.75 45.35 4.45 46.5 M5.0 45.0 L5.95 46.3 6.35 47.1 Q6.35 45.8 7.25 43.75 7.65 44.2 7.75 45.2 L7.75 46.7 7.7 47.5 8.15 46.85 9.25 45.35 9.0 47.3 8.8 47.95 9.25 47.9 9.4 48.25 8.0 49.5 Q7.5 49.85 7.5 49.25 L7.35 49.25 Q7.15 49.3 7.15 48.65 L7.2 48.55 7.0 48.6 6.5 48.2 6.1 48.25 Q5.35 48.25 4.5 45.45 4.5 45.05 4.75 45.0 L5.0 45.0 M22.2 36.1 L21.1 36.25 19.55 35.95 22.05 35.85 22.2 36.1 M30.4 47.15 L28.5 45.5 Q29.3 45.05 30.95 46.35 L33.05 48.25 32.55 48.5 30.4 47.15 M31.1 58.3 Q31.1 58.0 31.45 57.25 31.9 56.3 32.35 56.15 32.75 56.7 32.75 57.25 L32.7 57.4 32.75 57.75 32.3 58.85 31.75 59.75 31.15 59.05 31.3 58.65 31.1 58.3 M30.5 59.6 L30.4 59.5 30.0 59.6 29.4 59.5 29.0 59.6 Q27.6 59.6 26.4 58.85 25.4 58.2 25.4 57.7 L25.5 57.15 25.75 57.0 Q26.2 57.0 27.5 57.65 L27.5 57.6 Q28.15 57.6 29.0 58.2 L29.3 58.4 29.25 57.55 29.25 56.35 Q29.3 55.4 29.75 55.0 L30.2 55.9 Q30.45 55.6 30.9 55.6 L31.1 58.4 31.0 59.35 30.5 59.6 M21.25 55.3 L21.65 56.35 21.65 57.5 21.65 57.7 Q22.05 57.0 22.85 56.4 L23.0 56.4 23.1 56.8 23.05 57.25 23.35 57.3 23.5 57.75 23.25 58.2 23.55 58.1 23.75 58.5 22.7 59.3 22.2 59.65 22.1 59.8 21.75 60.0 21.6 59.8 21.05 60.0 20.95 59.6 20.9 59.55 20.75 59.4 20.85 59.2 20.9 59.1 20.85 58.95 20.45 59.05 20.5 59.25 20.35 59.4 20.05 59.05 Q18.85 59.0 18.25 58.55 L17.1 57.75 19.0 58.1 19.65 58.25 19.55 58.05 19.15 56.9 19.25 56.25 19.6 56.25 20.3 58.45 20.85 58.6 20.8 57.55 20.85 55.35 21.25 55.3 M17.85 54.8 L18.0 55.25 17.95 55.45 18.1 55.45 18.25 55.9 17.75 56.85 16.75 57.75 16.05 57.4 15.75 57.75 15.35 57.65 15.25 57.4 Q15.15 57.6 14.75 57.6 14.0 57.6 12.95 56.3 L11.85 54.65 11.85 53.5 Q12.7 53.3 13.65 54.65 L14.3 55.55 14.15 54.75 14.25 53.0 15.15 53.0 Q15.4 55.65 15.6 56.25 L15.05 56.65 15.35 57.0 16.25 55.85 Q17.2 54.85 17.5 54.75 L17.85 54.8 M10.5 56.15 Q9.35 55.1 9.1 54.35 9.75 54.25 11.05 55.2 L12.9 57.0 Q13.1 57.25 12.5 57.25 11.7 57.25 10.5 56.15 M56.2 53.25 L56.35 54.25 56.45 54.7 56.55 55.75 56.5 56.95 56.6 57.05 56.7 56.6 56.9 55.65 57.35 55.65 57.6 56.3 57.7 56.85 58.1 56.45 59.3 55.6 59.45 55.55 59.6 56.0 59.25 57.35 Q58.8 58.1 58.1 58.1 L57.4 58.0 57.35 57.85 57.2 57.95 57.15 58.1 56.75 58.25 56.1 58.15 55.5 58.55 55.25 58.55 Q54.15 58.4 53.0 57.15 L53.0 56.6 53.35 56.65 54.4 56.9 54.55 56.95 54.45 56.8 54.4 56.75 54.0 56.1 53.75 56.25 53.7 56.25 53.35 56.15 53.25 55.7 Q53.25 55.3 53.85 54.6 54.5 53.75 55.25 53.75 L55.35 54.15 55.35 54.25 54.85 55.3 55.4 55.85 55.4 55.75 Q55.4 54.9 55.55 54.0 55.75 52.95 56.0 52.8 L56.2 53.25 M54.65 50.75 L54.65 50.9 54.6 51.2 54.05 52.5 54.05 52.6 54.5 52.5 54.5 52.6 54.6 52.9 53.75 54.2 52.75 55.15 52.3 54.95 Q52.15 54.85 52.15 54.45 L52.35 53.95 52.25 53.7 51.75 54.25 51.65 54.15 51.5 54.15 51.4 53.95 51.05 53.3 50.75 52.45 50.75 52.4 50.9 50.9 51.35 50.9 51.7 52.2 51.8 51.85 51.8 51.75 51.95 51.25 Q52.35 50.05 53.0 49.75 L53.35 49.85 53.5 50.3 53.35 51.15 Q53.95 50.3 54.25 50.25 L54.55 50.35 54.65 50.75 M51.65 54.5 L50.45 54.35 Q50.0 54.2 49.55 53.85 L49.45 53.8 49.3 53.7 49.1 53.55 48.85 54.0 49.35 54.3 49.0 54.75 48.55 55.35 48.25 55.1 48.0 55.5 47.85 55.25 47.5 55.25 Q47.15 55.25 46.85 54.45 L46.5 54.5 Q46.1 54.5 45.25 53.5 44.35 52.45 44.35 51.75 45.15 51.7 45.9 52.6 L46.55 53.3 46.4 52.3 Q46.4 51.7 46.7 51.25 L46.25 51.25 46.75 50.65 47.1 50.75 47.25 51.25 47.65 52.75 47.85 53.8 47.95 53.75 48.35 52.65 49.0 51.25 50.0 51.25 49.7 52.35 50.05 52.7 50.2 52.85 51.25 54.0 51.65 54.5 M43.55 53.85 L45.75 56.15 45.5 56.5 Q42.2 54.8 41.5 52.6 42.3 52.5 43.55 53.85 M45.5 54.75 L48.0 56.25 47.9 56.4 47.25 56.0 45.5 55.0 45.5 54.75 M44.5 51.25 L43.95 51.25 44.25 50.9 44.5 51.25" fill="#88c200" fill-rule="evenodd" stroke="none"/>
    <path d="M49.85 18.45 L50.15 19.4 Q50.25 18.3 50.5 17.25 51.25 13.9 52.15 13.85 L52.35 14.2 52.2 15.15 51.45 20.15 51.45 20.2 53.9 17.35 54.25 17.9 52.35 21.5 52.85 21.1 Q56.25 18.8 58.0 18.6 L58.05 18.8 Q58.05 19.2 54.7 21.75 L54.0 22.25 Q56.55 21.65 56.55 22.25 56.55 22.55 54.3 23.5 51.95 24.55 50.7 24.55 L50.45 24.55 50.05 24.7 Q49.5 24.7 49.35 24.15 L49.35 24.1 48.5 23.85 Q46.45 23.25 46.45 22.7 46.45 22.25 47.5 22.3 L47.1 21.75 46.0 19.9 Q46.0 18.8 46.95 19.6 L47.95 20.7 48.85 21.3 Q48.55 19.6 48.55 18.55 48.55 17.3 48.9 16.7 49.45 16.0 49.85 18.45 M27.2 18.45 L26.6 21.85 26.5 22.9 29.1 20.35 29.4 20.65 Q29.4 21.2 27.3 23.8 L27.2 24.0 30.5 22.35 30.95 23.1 Q30.95 23.7 28.35 25.1 L28.15 25.3 28.95 25.25 29.45 25.25 33.35 24.05 33.5 24.5 Q33.5 25.1 31.15 26.0 L32.95 26.0 34.0 26.35 34.05 26.55 Q33.35 27.2 32.55 27.2 L26.7 27.3 26.35 27.35 26.25 27.35 26.2 27.35 25.25 27.45 25.05 27.45 24.7 27.8 23.55 27.8 19.5 27.3 Q19.2 27.0 18.45 26.85 18.75 26.55 19.75 26.55 L20.55 26.65 23.65 26.75 23.65 26.65 23.05 26.6 22.8 26.6 Q22.1 26.6 21.25 26.0 L20.25 25.45 20.25 25.3 20.1 25.25 18.75 24.2 Q18.75 22.85 20.75 24.0 L22.1 24.8 22.55 24.95 19.8 21.95 Q19.8 20.15 22.3 22.5 L23.45 23.7 22.3 18.75 Q22.3 16.1 23.95 20.5 L24.15 21.1 24.35 18.8 24.45 18.8 25.0 23.55 25.0 23.75 25.55 20.8 Q26.3 17.75 27.1 18.05 L27.2 18.45 M19.4 41.0 L18.9 44.7 18.9 45.35 19.8 44.1 Q22.2 40.95 22.2 42.45 L20.15 45.95 Q21.75 45.3 23.2 45.05 L23.25 45.3 Q23.25 45.85 21.4 47.0 19.5 48.2 18.35 48.2 L18.15 48.3 18.05 48.3 17.95 48.3 17.45 48.0 17.45 47.95 14.35 47.6 Q13.1 47.3 13.1 47.0 13.1 46.15 15.85 46.35 L14.75 45.35 13.0 43.6 15.0 43.65 16.85 45.35 16.65 44.65 16.05 41.8 16.25 41.55 16.45 41.2 17.35 43.9 17.65 44.9 18.75 39.55 Q19.4 39.85 19.4 41.0" fill="#afa13d" fill-rule="evenodd" stroke="none"/>
    <path d="M5.35 -1.25 L5.4 -1.3 5.45 -1.2 5.8 -1.0 6.35 -0.2 6.65 0.1 7.25 1.95 7.25 2.0 7.2 2.0 7.3 2.55 7.35 3.15 7.25 3.2 7.25 3.35 7.05 4.25 Q6.7 5.0 6.35 5.1 L6.3 5.1 6.25 5.1 6.05 5.25 6.0 5.25 5.7 5.3 5.35 4.85 4.8 4.3 4.65 3.8 Q4.6 3.4 4.85 2.2 L4.95 0.8 Q4.85 -0.05 5.3 -1.15 L5.35 -1.25 5.3 -1.15 Q4.85 -0.05 4.95 0.8 L4.85 2.2 Q4.6 3.4 4.65 3.8 L4.8 4.3 5.35 4.85 5.7 5.3 5.45 5.4 4.0 5.2 Q3.65 5.25 3.2 4.75 2.75 4.3 2.75 4.05 L2.75 3.85 3.05 2.2 Q3.25 1.15 3.5 0.75 3.8 -0.2 5.35 -1.25" fill="#aa6e36" fill-rule="evenodd" stroke="none"/>
    <path d="M5.7 5.3 L6.0 5.25 6.05 5.25 6.25 5.1 6.3 5.1 6.35 5.1 Q6.7 5.0 7.05 4.25 L7.25 3.35 7.25 3.2 7.35 3.15 7.3 2.55 7.2 2.0 7.25 2.0 7.25 1.95 6.65 0.1 6.35 -0.2 5.8 -1.0 5.45 -1.2 5.4 -1.3 5.35 -1.25 5.3 -1.15 Q4.85 -0.05 4.95 0.8 L4.85 2.2 Q4.6 3.4 4.65 3.8 L4.8 4.3 5.35 4.85 5.7 5.3 5.45 5.4 4.0 5.2 Q3.65 5.25 3.2 4.75 2.75 4.3 2.75 4.05 L2.75 3.85 3.05 2.2 Q3.25 1.15 3.5 0.75 3.8 -0.2 5.35 -1.25" fill="none" stroke="#80491d" stroke-linecap="round" stroke-linejoin="round" stroke-width="1.5"/>
    <path d="M5.65 5.35 L5.4 5.4 4.0 5.2 Q3.65 5.25 3.2 4.75 L2.7 4.05 2.75 3.8 3.05 2.2 3.45 0.75 Q3.75 -0.2 5.3 -1.25 L5.3 -1.2 Q4.8 -0.05 4.95 0.75 L4.8 2.2 4.6 3.8 4.8 4.3 5.35 4.85 5.65 5.35" fill="#c47b35" fill-rule="evenodd" stroke="none"/>
    <path d="M5.3 -1.25 L5.4 -1.3 5.4 -1.25 5.8 -1.0 6.35 -0.25 6.6 0.1 Q7.1 0.85 7.2 1.85 L7.2 2.0 7.3 3.1 7.25 3.2 7.25 3.3 7.0 4.3 6.35 5.1 6.25 5.1 6.05 5.2 5.95 5.25 5.65 5.35 5.35 4.85 4.8 4.3 4.6 3.8 4.8 2.2 4.95 0.75 Q4.8 -0.05 5.3 -1.2 L5.3 -1.25" fill="#945727" fill-rule="evenodd" stroke="none"/>
    <path d="M58.2 36.85 L58.3 36.8 58.3 36.9 Q58.55 36.85 58.8 37.1 L59.55 37.65 59.85 37.9 60.7 39.3 60.7 39.35 60.75 39.8 60.85 40.25 60.75 40.3 60.75 40.4 60.4 41.15 59.55 41.75 59.4 41.8 59.1 41.9 59.0 41.9 58.6 41.95 58.2 41.6 Q58.05 41.45 57.5 41.2 L57.25 40.75 57.5 39.55 57.7 38.4 Q57.5 37.8 58.15 36.9 L58.2 36.85 58.15 36.9 Q57.5 37.8 57.7 38.4 L57.5 39.55 57.25 40.75 57.5 41.2 Q58.05 41.45 58.2 41.6 L58.6 41.95 58.3 42.0 56.4 41.85 Q55.95 41.95 55.35 41.5 L54.75 41.0 54.8 40.75 Q54.8 40.5 55.15 39.55 L55.7 38.4 Q56.15 37.65 58.2 36.85" fill="#aa6e36" fill-rule="evenodd" stroke="none"/>
    <path d="M58.6 41.95 L59.0 41.9 59.1 41.9 59.4 41.8 59.55 41.75 60.4 41.15 60.75 40.4 60.75 40.3 60.85 40.25 60.75 39.8 60.7 39.35 60.7 39.3 59.85 37.9 59.55 37.65 58.8 37.1 Q58.55 36.85 58.3 36.9 L58.3 36.8 58.2 36.85 58.15 36.9 Q57.5 37.8 57.7 38.4 L57.5 39.55 57.25 40.75 57.5 41.2 Q58.05 41.45 58.2 41.6 L58.6 41.95 58.3 42.0 56.4 41.85 Q55.95 41.95 55.35 41.5 L54.75 41.0 54.8 40.75 Q54.8 40.5 55.15 39.55 L55.7 38.4 Q56.15 37.65 58.2 36.85" fill="none" stroke="#80491d" stroke-linecap="round" stroke-linejoin="round" stroke-width="1.5"/>
    <path d="M58.65 42.0 L58.3 42.0 56.4 41.85 55.35 41.55 54.7 40.95 54.75 40.8 55.15 39.55 Q55.45 38.7 55.7 38.4 56.1 37.65 58.15 36.85 L58.15 36.9 Q57.5 37.8 57.65 38.45 L57.5 39.55 Q57.2 40.45 57.25 40.75 L57.5 41.2 58.2 41.6 58.65 42.0" fill="#c47b35" fill-rule="evenodd" stroke="none"/>
    <path d="M58.15 36.85 L58.25 36.8 58.3 36.85 58.8 37.05 59.55 37.65 59.85 37.9 Q60.5 38.5 60.65 39.3 L60.7 39.35 60.65 39.4 60.75 39.8 60.8 40.25 60.7 40.3 60.75 40.4 60.4 41.15 59.55 41.8 59.4 41.8 59.1 41.9 59.0 41.9 58.65 42.0 58.2 41.6 57.5 41.2 57.25 40.75 Q57.2 40.45 57.5 39.55 L57.65 38.45 Q57.5 37.8 58.15 36.9 L58.15 36.85" fill="#945727" fill-rule="evenodd" stroke="none"/>
    <path d="M7.2 30.15 L7.2 30.1 7.25 30.1 7.25 30.15 7.5 30.2 7.7 30.45 7.9 30.5 8.15 31.1 8.25 31.3 8.2 31.45 8.25 31.5 8.05 31.75 7.75 32.0 7.7 32.0 7.6 32.1 7.55 32.1 7.4 32.1 7.25 31.95 6.95 31.75 6.85 31.65 6.95 31.15 7.05 30.75 Q6.95 30.5 7.2 30.15 6.95 30.5 7.05 30.75 L6.95 31.15 6.85 31.65 6.95 31.75 7.25 31.95 7.4 32.1 7.25 32.15 6.55 32.1 6.1 31.95 5.85 31.7 5.9 31.65 6.05 31.2 6.3 30.7 Q6.45 30.4 7.2 30.15" fill="#aa6e36" fill-rule="evenodd" stroke="none"/>
    <path d="M7.4 32.1 L7.55 32.1 7.6 32.1 7.7 32.0 7.75 32.0 8.05 31.75 8.25 31.5 8.2 31.45 8.25 31.3 8.15 31.1 7.9 30.5 7.7 30.45 7.5 30.2 7.25 30.15 7.25 30.1 7.2 30.1 7.2 30.15 Q6.95 30.5 7.05 30.75 L6.95 31.15 6.85 31.65 6.95 31.75 7.25 31.95 7.4 32.1 7.25 32.15 6.55 32.1 6.1 31.95 5.85 31.7 5.9 31.65 6.05 31.2 6.3 30.7 Q6.45 30.4 7.2 30.15" fill="none" stroke="#80491d" stroke-linecap="round" stroke-linejoin="round" stroke-width="1.5"/>
    <path d="M7.2 30.2 L7.05 30.75 6.95 31.2 6.9 31.65 6.95 31.8 7.25 32.0 7.4 32.15 7.3 32.15 6.55 32.1 6.15 31.95 5.9 31.75 5.9 31.65 6.05 31.2 6.3 30.75 Q6.45 30.45 7.2 30.2" fill="#c47b35" fill-rule="evenodd" stroke="none"/>
    <path d="M7.4 32.15 L7.25 32.0 6.95 31.8 6.9 31.65 6.95 31.2 7.05 30.75 7.2 30.2 7.2 30.15 7.3 30.15 7.5 30.2 7.75 30.45 7.9 30.55 8.2 31.1 8.25 31.3 8.25 31.5 8.1 31.8 7.75 32.05 7.7 32.05 7.6 32.1 7.55 32.1 7.4 32.15" fill="#945727" fill-rule="evenodd" stroke="none"/>
    <path d="M5.55 32.0 L5.55 31.95 5.6 31.95 5.6 32.0 5.85 32.05 6.05 32.3 6.25 32.35 6.5 32.95 6.6 33.15 6.55 33.3 6.6 33.35 6.4 33.6 6.1 33.85 6.05 33.85 5.95 33.95 5.9 33.95 5.75 33.95 5.6 33.8 5.3 33.6 5.2 33.5 5.3 33.0 5.4 32.6 Q5.3 32.35 5.55 32.0 5.3 32.35 5.4 32.6 L5.3 33.0 5.2 33.5 5.3 33.6 5.6 33.8 5.75 33.95 5.6 34.0 4.9 33.95 4.45 33.8 4.2 33.55 4.25 33.5 4.4 33.05 4.65 32.55 Q4.8 32.25 5.55 32.0" fill="#aa6e36" fill-rule="evenodd" stroke="none"/>
    <path d="M5.75 33.95 L5.9 33.95 5.95 33.95 6.05 33.85 6.1 33.85 6.4 33.6 6.6 33.35 6.55 33.3 6.6 33.15 6.5 32.95 6.25 32.35 6.05 32.3 5.85 32.05 5.6 32.0 5.6 31.95 5.55 31.95 5.55 32.0 Q5.3 32.35 5.4 32.6 L5.3 33.0 5.2 33.5 5.3 33.6 5.6 33.8 5.75 33.95 5.6 34.0 4.9 33.95 4.45 33.8 4.2 33.55 4.25 33.5 4.4 33.05 4.65 32.55 Q4.8 32.25 5.55 32.0" fill="none" stroke="#80491d" stroke-linecap="round" stroke-linejoin="round" stroke-width="1.5"/>
    <path d="M5.75 34.0 L5.65 34.0 4.9 33.95 4.5 33.8 4.25 33.6 4.25 33.5 4.4 33.05 4.65 32.6 Q4.8 32.3 5.55 32.05 L5.4 32.6 5.3 33.05 5.25 33.5 5.3 33.65 5.6 33.85 5.75 34.0" fill="#c47b35" fill-rule="evenodd" stroke="none"/>
    <path d="M5.75 34.0 L5.6 33.85 5.3 33.65 5.25 33.5 5.3 33.05 5.4 32.6 5.55 32.05 5.55 32.0 5.65 32.0 5.85 32.05 6.1 32.3 6.25 32.4 6.55 32.95 6.6 33.15 6.6 33.35 6.45 33.65 6.1 33.9 6.05 33.9 5.95 33.95 5.9 33.95 5.75 34.0" fill="#945727" fill-rule="evenodd" stroke="none"/>
    <path d="M54.15 41.45 L54.35 41.5 54.55 41.65 54.6 41.75 54.9 42.2 54.9 42.3 54.9 42.45 54.85 42.5 54.9 42.5 54.8 42.7 54.55 42.9 54.45 42.9 54.4 42.9 54.3 42.95 54.15 42.85 53.95 42.7 53.85 42.6 53.9 42.25 54.0 41.9 54.1 41.45 54.15 41.45 54.1 41.45 54.0 41.9 53.9 42.25 53.85 42.6 53.95 42.7 54.15 42.85 54.3 42.95 54.2 42.95 53.6 42.9 53.3 42.8 53.1 42.65 53.15 42.6 53.25 42.25 53.4 41.9 Q53.55 41.7 54.15 41.45" fill="#aa6e36" fill-rule="evenodd" stroke="none"/>
    <path d="M54.3 42.95 L54.4 42.9 54.45 42.9 54.55 42.9 54.8 42.7 54.9 42.5 54.85 42.5 54.9 42.45 54.9 42.3 54.9 42.2 54.6 41.75 54.55 41.65 54.35 41.5 54.15 41.45 54.1 41.45 54.0 41.9 53.9 42.25 53.85 42.6 53.95 42.7 54.15 42.85 54.3 42.95 54.2 42.95 53.6 42.9 53.3 42.8 53.1 42.65 53.15 42.6 53.25 42.25 53.4 41.9 Q53.55 41.7 54.15 41.45" fill="none" stroke="#80491d" stroke-linecap="round" stroke-linejoin="round" stroke-width="1.5"/>
    <path d="M54.25 43.0 L54.15 43.0 53.6 42.95 53.3 42.85 53.1 42.7 53.1 42.65 53.25 42.3 53.4 41.95 Q53.5 41.75 54.1 41.5 53.9 41.75 53.95 41.95 L53.9 42.3 53.85 42.65 53.9 42.75 54.15 42.9 54.25 43.0" fill="#c47b35" fill-rule="evenodd" stroke="none"/>
    <path d="M54.25 43.0 L54.15 42.9 53.9 42.75 53.85 42.65 53.9 42.3 53.95 41.95 Q53.9 41.75 54.1 41.5 L54.15 41.5 54.3 41.55 54.5 41.75 54.6 41.8 54.85 42.2 54.85 42.35 54.9 42.5 54.85 42.5 54.85 42.55 54.75 42.75 54.5 42.95 54.4 42.95 54.35 43.0 54.25 43.0" fill="#945727" fill-rule="evenodd" stroke="none"/>
    <path d="M58.1 42.4 L58.3 42.45 58.5 42.6 58.55 42.7 58.85 43.15 58.85 43.25 58.85 43.4 58.8 43.45 58.85 43.45 58.75 43.65 58.5 43.85 58.4 43.85 58.35 43.85 58.25 43.9 58.1 43.8 57.9 43.65 57.8 43.55 57.85 43.2 57.95 42.85 58.05 42.4 58.1 42.4 58.05 42.4 57.95 42.85 57.85 43.2 57.8 43.55 57.9 43.65 58.1 43.8 58.25 43.9 58.15 43.9 57.55 43.85 57.25 43.75 57.05 43.6 57.1 43.55 57.2 43.2 57.35 42.85 Q57.5 42.65 58.1 42.4" fill="#aa6e36" fill-rule="evenodd" stroke="none"/>
    <path d="M58.25 43.9 L58.35 43.85 58.4 43.85 58.5 43.85 58.75 43.65 58.85 43.45 58.8 43.45 58.85 43.4 58.85 43.25 58.85 43.15 58.55 42.7 58.5 42.6 58.3 42.45 58.1 42.4 58.05 42.4 57.95 42.85 57.85 43.2 57.8 43.55 57.9 43.65 58.1 43.8 58.25 43.9 58.15 43.9 57.55 43.85 57.25 43.75 57.05 43.6 57.1 43.55 57.2 43.2 57.35 42.85 Q57.5 42.65 58.1 42.4" fill="none" stroke="#80491d" stroke-linecap="round" stroke-linejoin="round" stroke-width="1.5"/>
    <path d="M58.2 43.95 L58.1 43.95 57.55 43.9 57.25 43.8 57.05 43.65 57.05 43.6 57.2 43.25 57.35 42.9 Q57.45 42.7 58.05 42.45 57.85 42.7 57.9 42.9 L57.85 43.25 57.8 43.6 57.85 43.7 58.1 43.85 58.2 43.95" fill="#c47b35" fill-rule="evenodd" stroke="none"/>
    <path d="M58.2 43.95 L58.1 43.85 57.85 43.7 57.8 43.6 57.85 43.25 57.9 42.9 Q57.85 42.7 58.05 42.45 L58.1 42.45 58.25 42.5 58.45 42.7 58.55 42.75 58.8 43.15 58.8 43.3 58.85 43.45 58.8 43.45 58.8 43.5 58.7 43.7 58.45 43.9 58.35 43.9 58.3 43.95 58.2 43.95" fill="#945727" fill-rule="evenodd" stroke="none"/>
    <path d="M61.15 48.5 L61.35 48.55 61.55 48.7 61.6 48.8 61.9 49.25 61.9 49.35 61.9 49.5 61.85 49.55 61.9 49.55 61.8 49.75 61.55 49.95 61.45 49.95 61.4 49.95 61.3 50.0 61.15 49.9 60.95 49.75 60.85 49.65 60.9 49.3 61.0 48.95 61.1 48.5 61.15 48.5 61.1 48.5 61.0 48.95 60.9 49.3 60.85 49.65 60.95 49.75 61.15 49.9 61.3 50.0 61.2 50.0 60.6 49.95 60.3 49.85 60.1 49.7 60.15 49.65 60.25 49.3 60.4 48.95 61.15 48.5" fill="#aa6e36" fill-rule="evenodd" stroke="none"/>
    <path d="M61.3 50.0 L61.4 49.95 61.45 49.95 61.55 49.95 61.8 49.75 61.9 49.55 61.85 49.55 61.9 49.5 61.9 49.35 61.9 49.25 61.6 48.8 61.55 48.7 61.35 48.55 61.15 48.5 61.1 48.5 61.0 48.95 60.9 49.3 60.85 49.65 60.95 49.75 61.15 49.9 61.3 50.0 61.2 50.0 60.6 49.95 60.3 49.85 60.1 49.7 60.15 49.65 60.25 49.3 60.4 48.95 61.15 48.5" fill="none" stroke="#80491d" stroke-linecap="round" stroke-linejoin="round" stroke-width="1.5"/>
    <path d="M61.25 50.05 L61.15 50.05 60.6 50.0 60.3 49.9 60.1 49.75 60.1 49.7 60.25 49.35 60.4 49.0 Q60.5 48.8 61.1 48.55 L60.95 49.0 60.9 49.35 60.85 49.7 60.9 49.8 61.15 49.95 61.25 50.05" fill="#c47b35" fill-rule="evenodd" stroke="none"/>
    <path d="M61.25 50.05 L61.15 49.95 60.9 49.8 60.85 49.7 60.9 49.35 60.95 49.0 61.1 48.55 61.15 48.55 61.3 48.6 61.5 48.8 61.6 48.85 61.85 49.25 61.85 49.4 61.9 49.55 61.85 49.55 61.85 49.6 61.75 49.8 61.5 50.0 61.4 50.0 61.35 50.05 61.25 50.05" fill="#945727" fill-rule="evenodd" stroke="none"/>
  </g>
</svg>
