<?xml version="1.0" encoding="UTF-8" standalone="no"?>
<svg xmlns:xlink="http://www.w3.org/1999/xlink" height="74.35px" width="179.2px" xmlns="http://www.w3.org/2000/svg">
  <g transform="matrix(1.0, 0.0, 0.0, 1.0, 92.2, 135.4)">
    <path d="M42.0 -121.95 L42.4 -122.3 63.9 -114.35 65.8 -132.5 78.15 -131.7 74.75 -99.75 69.55 -101.65 78.25 -88.7 81.75 -86.8 80.2 -85.75 80.3 -85.7 85.45 -86.2 87.0 -76.7 44.25 -72.6 43.65 -73.7 61.75 -85.95 55.65 -89.3 33.05 -93.7 36.45 -66.55 3.05 -77.0 -2.4 -88.3 -11.9 -61.05 -37.25 -86.3 -49.95 -69.35 -51.45 -71.95 -52.6 -70.05 -65.95 -73.1 -67.0 -65.85 -79.3 -66.95 -76.6 -85.45 -59.25 -81.5 -58.2 -83.25 -69.85 -102.8 -92.2 -87.05 -86.4 -135.4 -74.05 -134.5 -76.95 -110.85 Q-71.35 -114.75 -65.75 -118.75 L-48.7 -90.1 -38.8 -103.35 -17.35 -82.05 -4.9 -118.15 -3.85 -118.25 12.65 -84.3 22.2 -81.35 19.15 -106.25 57.6 -98.75 42.0 -121.95" fill="#a100b4" fill-opacity="0.7019608" fill-rule="evenodd" stroke="none"/>
    <path d="M50.45 -115.85 L50.6 -116.0 67.25 -109.8 69.4 -129.3 74.0 -129.0 71.3 -104.35 60.8 -108.2 73.85 -88.75 70.05 -89.55 75.45 -86.55 68.05 -81.55 82.1 -82.85 82.7 -79.3 54.6 -76.6 54.4 -77.05 68.05 -86.3 57.3 -92.05 28.7 -97.65 31.95 -71.2 6.05 -79.35 -3.1 -98.05 -13.6 -67.65 -37.75 -91.6 -49.55 -75.9 -51.45 -79.0 -54.7 -73.65 -69.3 -76.95 -70.45 -69.15 -75.05 -69.6 -73.25 -81.6 -57.2 -78.0 -53.95 -83.25 -68.6 -107.85 -87.45 -94.5 -82.95 -132.2 -78.35 -131.85 -81.7 -103.4 -67.05 -113.75 -49.05 -83.65 -38.35 -98.05 -15.65 -75.55 -4.0 -109.3 -3.6 -109.25 9.65 -82.0 26.65 -76.75 23.5 -102.35 58.65 -95.55 59.05 -95.4 65.0 -94.25 50.45 -115.85" fill="#ffffff" fill-opacity="0.7019608" fill-rule="evenodd" stroke="none"/>
  </g>
</svg>
