<?xml version="1.0" encoding="UTF-8" standalone="no"?>
<svg xmlns:xlink="http://www.w3.org/1999/xlink" height="460.35px" width="373.0px" xmlns="http://www.w3.org/2000/svg">
  <g transform="matrix(1.0, 0.0, 0.0, 1.0, 178.05, 238.85)">
    <path d="M-134.45 -217.6 L-134.55 -217.55 Q-161.15 -199.3 -170.1 -171.95 -179.0 -144.6 -165.0 -124.15 L53.35 194.8 Q67.35 215.25 96.0 216.85 124.8 218.45 151.4 200.2 L151.5 200.15 Q178.1 181.95 186.95 154.6 195.95 127.25 181.95 106.8 L-36.4 -212.15 Q-50.4 -232.6 -79.15 -234.2 -107.85 -235.8 -134.45 -217.6" fill="#416409" fill-rule="evenodd" stroke="none"/>
    <path d="M-134.45 -217.6 Q-107.85 -235.8 -79.15 -234.2 -50.4 -232.6 -36.4 -212.15 L181.95 106.8 Q195.95 127.25 186.95 154.6 178.1 181.95 151.5 200.15 L151.4 200.2 Q124.8 218.45 96.0 216.85 67.35 215.25 53.35 194.8 L-165.0 -124.15 Q-179.0 -144.6 -170.1 -171.95 -161.15 -199.3 -134.55 -217.55 L-134.45 -217.6 Z" fill="none" stroke="#416409" stroke-linecap="round" stroke-linejoin="round" stroke-width="9.0"/>
    <path d="M151.4 200.2 L151.5 200.15 Q178.1 181.95 186.95 154.6 195.95 127.25 181.95 106.8 L-36.4 -212.15 Q-50.4 -232.6 -79.15 -234.2 -107.85 -235.8 -134.45 -217.6 -134.45 -217.6 -134.55 -217.55 -161.15 -199.3 -170.1 -171.95 -179.0 -144.6 -165.0 -124.15 L53.35 194.8 Q67.35 215.25 96.0 216.85 124.8 218.45 151.4 200.2" fill="#719d17" fill-rule="evenodd" stroke="none"/>
    <path d="M64.4 174.0 Q77.4 193.05 104.05 194.5 130.8 195.95 155.55 179.05 L155.55 179.0 Q180.3 162.1 188.55 136.7 L190.5 129.45 190.45 129.9 Q189.3 117.45 182.05 106.8 L-36.3 -212.2 Q-40.45 -218.25 -45.8 -222.6 -51.85 -224.15 -58.75 -224.55 -85.35 -226.0 -110.1 -209.1 L-110.1 -209.05 Q-134.85 -192.15 -143.25 -166.75 -151.45 -141.3 -138.45 -122.35 L64.4 174.0" fill="#7cb421" fill-rule="evenodd" stroke="none"/>
    <path d="M-76.4 -107.4 Q-57.35 -102.4 -42.35 -112.7 -27.35 -122.95 -25.1 -142.55 -22.85 -162.15 -34.7 -179.45 -46.6 -196.8 -65.65 -201.8 -84.7 -206.8 -99.7 -196.55 -114.7 -186.25 -116.95 -166.65 -119.2 -147.1 -107.3 -129.75 -95.45 -112.45 -76.4 -107.4" fill="#339fff" fill-rule="evenodd" stroke="none"/>
    <path d="M-74.35 -125.4 Q-62.6 -122.3 -53.3 -128.65 -44.05 -135.0 -42.7 -147.1 -41.35 -159.15 -48.65 -169.85 -56.0 -180.55 -67.7 -183.65 -79.45 -186.7 -88.7 -180.35 -98.0 -174.0 -99.35 -161.95 -100.75 -149.9 -93.4 -139.2 -86.1 -128.5 -74.35 -125.4" fill="#f73600" fill-rule="evenodd" stroke="none"/>
    <path d="M109.75 164.6 Q128.8 169.6 143.8 159.3 158.8 149.05 161.05 129.45 163.3 109.85 151.45 92.55 139.55 75.2 120.5 70.2 101.45 65.2 86.45 75.45 71.45 85.75 69.2 105.35 66.95 124.9 78.85 142.25 90.7 159.55 109.75 164.6" fill="#339fff" fill-rule="evenodd" stroke="none"/>
    <path d="M111.8 146.55 Q123.55 149.65 132.85 143.3 142.1 136.95 143.45 124.85 144.8 112.8 137.5 102.1 130.15 91.4 118.45 88.3 106.7 85.25 97.45 91.6 88.15 97.95 86.8 110.0 85.4 122.05 92.75 132.75 100.05 143.45 111.8 146.55" fill="#f73600" fill-rule="evenodd" stroke="none"/>
    <path d="M13.5 -139.2 L10.7 -143.35 -118.1 -55.65 -115.3 -51.5 -115.6 -51.3 14.0 -139.55 13.5 -139.2 M2.8 121.0 L5.6 125.1 134.45 37.4 131.6 33.3 2.8 121.0" fill="#719d17" fill-rule="evenodd" stroke="none"/>
    <path d="M12.15 -119.05 Q12.15 -121.65 10.35 -123.45 8.5 -125.3 5.9 -125.3 3.35 -125.3 1.5 -123.45 -0.35 -121.65 -0.35 -119.05 -0.35 -116.45 1.5 -114.65 3.35 -112.8 5.9 -112.8 8.5 -112.8 10.35 -114.65 12.15 -116.45 12.15 -119.05 M-75.45 -68.5 Q-75.45 -65.9 -73.6 -64.1 -71.75 -62.25 -69.2 -62.25 -66.6 -62.25 -64.75 -64.1 -62.95 -65.9 -62.95 -68.5 -62.95 -71.1 -64.75 -72.9 -66.6 -74.75 -69.2 -74.75 -71.75 -74.75 -73.6 -72.9 -75.45 -71.1 -75.45 -68.5 M33.45 89.0 Q36.05 89.0 37.9 87.15 39.7 85.35 39.7 82.75 39.7 80.15 37.9 78.35 36.05 76.5 33.45 76.5 30.9 76.5 29.05 78.35 27.2 80.15 27.2 82.75 27.2 85.35 29.05 87.15 30.9 89.0 33.45 89.0 M108.55 25.95 Q106.0 25.95 104.15 27.8 102.3 29.6 102.3 32.2 102.3 34.8 104.15 36.6 106.0 38.45 108.55 38.45 111.15 38.45 113.0 36.6 114.8 34.8 114.8 32.2 114.8 29.6 113.0 27.8 111.15 25.95 108.55 25.95" fill="#719d17" fill-rule="evenodd" stroke="none"/>
    <path d="M31.0 -113.7 L42.3 -97.2 -87.0 -10.2 -98.3 -26.7 -98.65 -26.5 31.6 -114.15 31.0 -113.7 M12.15 -141.25 L23.4 -124.75 -105.85 -37.75 -117.15 -54.25 12.8 -141.75 12.15 -141.25 M122.3 19.65 L133.6 36.15 4.3 123.15 -7.0 106.65 122.7 19.35 122.3 19.65 M114.75 8.6 L-14.55 95.6 -25.85 79.1 103.45 -7.9 114.75 8.6" fill="#f73600" fill-rule="evenodd" stroke="none"/>
    <path d="M12.2 -141.3 L12.2 -141.35 12.8 -141.75 12.2 -141.3 M31.05 -113.75 L31.05 -113.8 31.6 -114.15 31.05 -113.75 M4.3 123.15 L-7.0 106.65 10.35 95.0 21.65 111.5 4.3 123.15 M-99.8 -65.95 L-88.5 -49.45 -105.85 -37.75 -117.15 -54.25 -99.8 -65.95 M-98.3 -26.7 L-98.65 -26.5 -80.95 -38.4 -69.65 -21.9 -87.0 -10.2 -98.3 -26.7 M-8.55 67.45 L2.75 83.95 -14.55 95.6 -25.85 79.1 -8.55 67.45" fill="#ad0303" fill-rule="evenodd" stroke="none"/>
    <path d="M-47.7 -114.8 Q-45.1 -114.8 -43.25 -116.65 -41.45 -118.45 -41.45 -121.05 -41.45 -123.65 -43.25 -125.45 -45.1 -127.3 -47.7 -127.3 -50.25 -127.3 -52.1 -125.45 -53.95 -123.65 -53.95 -121.05 -53.95 -118.45 -52.1 -116.65 -50.25 -114.8 -47.7 -114.8 M95.5 86.5 Q98.1 86.5 99.95 84.65 101.75 82.85 101.75 80.25 101.75 77.65 99.95 75.85 98.1 74.0 95.5 74.0 92.95 74.0 91.1 75.85 89.25 77.65 89.25 80.25 89.25 82.85 91.1 84.65 92.95 86.5 95.5 86.5" fill="#0091e0" fill-rule="evenodd" stroke="none"/>
    <path d="M12.1 -141.25 L13.5 -139.2 -115.25 -51.5 -115.8 -52.3 -115.5 -51.8 -117.15 -54.25 12.1 -141.25 M5.65 -112.8 Q3.25 -112.9 1.5 -114.65 -0.35 -116.45 -0.35 -119.05 -0.35 -121.65 1.5 -123.45 3.35 -125.3 5.9 -125.3 8.5 -125.3 10.35 -123.45 12.15 -121.65 12.15 -119.05 L11.85 -116.95 5.65 -112.8 M133.6 36.15 L4.3 123.15 2.85 121.0 2.8 121.0 131.6 33.3 133.6 36.15 M-62.95 -68.5 Q-62.95 -67.4 -63.25 -66.45 L-69.5 -62.25 Q-71.85 -62.35 -73.6 -64.1 -75.45 -65.9 -75.45 -68.5 -75.45 -71.1 -73.6 -72.9 -71.75 -74.75 -69.2 -74.75 -66.6 -74.75 -64.75 -72.9 -62.95 -71.1 -62.95 -68.5 M36.05 77.05 L37.9 78.35 Q39.7 80.15 39.7 82.75 39.7 85.35 37.9 87.15 36.05 89.0 33.45 89.0 30.9 89.0 29.05 87.15 27.5 85.65 27.25 83.6 L36.6 77.35 36.05 77.05 M114.8 32.2 Q114.8 34.8 113.0 36.6 111.15 38.45 108.55 38.45 106.0 38.45 104.15 36.6 102.6 35.1 102.35 33.05 L111.7 26.8 111.15 26.5 Q112.15 26.95 113.0 27.8 114.8 29.6 114.8 32.2" fill="#ad0303" fill-rule="evenodd" stroke="none"/>
    <path d="M-168.8 33.0 Q-177.95 39.25 -173.55 59.6 -169.2 79.85 -153.8 102.3 -138.45 124.75 -121.05 136.25 -103.75 147.7 -94.6 141.45 -85.45 135.2 -89.85 114.85 -94.25 94.5 -109.6 72.05 -125.0 49.6 -142.35 38.2 -159.65 26.75 -168.8 33.0" fill="#f73600" fill-rule="evenodd" stroke="none"/>
    <path d="M-151.85 33.0 Q-147.45 34.8 -142.35 38.2 -125.0 49.6 -109.6 72.05 -94.25 94.5 -89.85 114.85 -88.7 120.15 -88.45 124.5 -92.9 122.65 -98.0 119.25 -115.4 107.75 -130.75 85.3 -146.15 62.85 -150.5 42.6 -151.65 37.3 -151.85 33.0" fill="#ad0303" fill-rule="evenodd" stroke="none"/>
  </g>
</svg>
