<?xml version="1.0" encoding="UTF-8" standalone="no"?>
<svg xmlns:xlink="http://www.w3.org/1999/xlink" height="47.95px" width="46.8px" xmlns="http://www.w3.org/2000/svg">
  <g transform="matrix(1.0, 0.0, 0.0, 1.0, 35.6, -124.4)">
    <path d="M11.2 124.4 L10.1 137.85 2.0 140.35 Q-4.7 142.45 -4.8 143.0 L-4.85 143.95 -4.85 144.05 -4.9 144.25 -4.9 144.35 Q-5.2 148.8 -4.7 156.6 L-4.4 160.7 -4.2 163.8 -4.15 164.15 -13.05 172.35 Q-12.35 168.95 -10.85 165.45 -15.75 169.5 -21.95 172.2 -21.3 168.0 -19.2 163.95 -24.55 168.05 -30.85 170.5 -28.85 166.4 -25.2 163.05 -30.0 165.1 -35.6 166.25 -34.8 164.05 -33.25 162.25 L-28.1 159.45 -26.7 149.15 -26.55 148.45 -26.55 148.25 -25.7 143.2 -25.45 142.05 -25.3 140.9 -25.2 140.75 -25.15 140.35 -24.25 136.5 -23.45 133.85 -23.1 133.2 -23.25 133.5 Q-22.4 132.1 -19.05 130.7 -15.85 129.4 -10.45 128.1 L-9.0 127.75 Q1.15 125.45 11.2 124.4" fill="#70381f" fill-rule="evenodd" stroke="none"/>
  </g>
</svg>
