<?xml version="1.0" encoding="UTF-8" standalone="no"?>
<svg xmlns:xlink="http://www.w3.org/1999/xlink" height="195.6px" width="248.4px" xmlns="http://www.w3.org/2000/svg">
  <g transform="matrix(1.0, 0.0, 0.0, 1.0, 145.55, 118.2)">
    <path d="M-132.2 -110.8 Q-130.15 -111.9 -124.7 -105.25 -119.15 -98.6 -113.5 -88.0 -107.85 -77.45 -105.35 -69.2 L-105.3 -69.0 Q-97.9 -83.9 -77.7 -95.65 -54.5 -109.15 -24.7 -112.95 6.2 -116.9 29.45 -108.3 55.4 -98.7 63.05 -75.85 74.65 -41.2 67.1 3.35 L65.5 11.9 Q69.55 10.75 74.25 11.0 84.4 11.55 91.65 18.45 99.0 25.35 98.85 34.6 98.7 43.8 91.1 49.65 83.55 55.3 73.35 54.4 63.25 53.25 56.5 46.3 L55.35 45.05 Q52.2 52.4 49.05 57.15 44.8 63.55 27.0 67.9 10.9 71.8 -11.25 72.95 -32.85 74.1 -50.7 72.15 -69.7 70.05 -76.4 65.15 -82.6 60.6 -89.25 49.65 -91.5 54.1 -95.3 57.9 -104.15 66.8 -115.8 66.85 -127.25 66.85 -134.4 58.35 -141.35 50.05 -140.25 38.45 -139.25 27.1 -131.05 18.85 -122.9 10.6 -112.05 10.0 L-105.8 10.35 Q-117.0 -29.25 -108.35 -60.7 L-111.3 -61.0 Q-117.3 -61.95 -124.95 -65.3 -132.65 -68.65 -137.45 -72.45 -142.25 -76.2 -141.4 -78.2 -140.55 -80.15 -134.45 -79.25 -128.45 -78.3 -120.75 -74.95 L-118.6 -73.95 Q-121.1 -77.9 -123.6 -82.6 -129.25 -93.2 -131.8 -101.45 -134.25 -109.65 -132.2 -110.8" fill="#70381f" fill-rule="evenodd" stroke="none"/>
    <path d="M-132.2 -110.8 Q-130.15 -111.9 -124.7 -105.25 -119.15 -98.6 -113.5 -88.0 -107.85 -77.45 -105.35 -69.2 L-105.3 -69.0 Q-97.9 -83.9 -77.7 -95.65 -54.5 -109.15 -24.7 -112.95 6.2 -116.9 29.45 -108.3 55.4 -98.7 63.05 -75.85 74.65 -41.2 67.1 3.35 L65.5 11.9 Q69.55 10.75 74.25 11.0 84.4 11.55 91.65 18.45 99.0 25.35 98.85 34.6 98.7 43.8 91.1 49.65 83.55 55.3 73.35 54.4 63.25 53.25 56.5 46.3 L55.35 45.05 Q52.2 52.4 49.05 57.15 44.8 63.55 27.0 67.9 10.9 71.8 -11.25 72.95 -32.85 74.1 -50.7 72.15 -69.7 70.05 -76.4 65.15 -82.6 60.6 -89.25 49.65 -91.5 54.1 -95.3 57.9 -104.15 66.8 -115.8 66.85 -127.25 66.85 -134.4 58.35 -141.35 50.05 -140.25 38.45 -139.25 27.1 -131.05 18.85 -122.9 10.6 -112.05 10.0 L-105.8 10.35 Q-117.0 -29.25 -108.35 -60.7 L-111.3 -61.0 Q-117.3 -61.95 -124.95 -65.3 -132.65 -68.65 -137.45 -72.45 -142.25 -76.2 -141.4 -78.2 -140.55 -80.15 -134.45 -79.25 -128.45 -78.3 -120.75 -74.95 L-118.6 -73.95 Q-121.1 -77.9 -123.6 -82.6 -129.25 -93.2 -131.8 -101.45 -134.25 -109.65 -132.2 -110.8 Z" fill="none" stroke="#3c190a" stroke-linecap="round" stroke-linejoin="round" stroke-width="8.0"/>
    <path d="M-112.05 10.0 Q-101.05 9.3 -93.4 16.95 -85.55 24.8 -86.0 36.75 -86.45 48.95 -95.3 57.9 -104.15 66.8 -115.8 66.85 -127.25 66.85 -134.4 58.35 -141.35 50.05 -140.25 38.45 -139.25 27.1 -131.05 18.85 -122.9 10.6 -112.05 10.0" fill="#70381f" fill-rule="evenodd" stroke="none"/>
    <path d="M-104.65 19.4 Q-97.1 18.9 -91.8 24.2 -86.45 29.55 -86.75 37.8 -87.05 46.2 -93.15 52.35 -99.2 58.45 -107.2 58.5 -115.1 58.5 -120.0 52.65 -124.8 46.95 -124.05 38.95 -123.35 31.15 -117.7 25.5 -112.1 19.8 -104.65 19.4" fill="#bf7926" fill-rule="evenodd" stroke="none"/>
    <path d="M74.25 11.0 Q84.4 11.55 91.65 18.45 99.0 25.35 98.85 34.6 98.7 43.8 91.1 49.65 83.55 55.3 73.35 54.4 63.25 53.25 56.5 46.3 49.8 39.45 50.0 30.7 50.0 29.5 50.25 28.4 51.15 21.15 57.2 16.3 64.25 10.45 74.25 11.0" fill="#70381f" fill-rule="evenodd" stroke="none"/>
    <path d="M82.2 22.5 Q87.6 27.55 87.45 34.3 87.35 41.0 81.8 45.3 76.3 49.4 68.9 48.75 61.5 47.85 56.6 42.8 51.7 37.8 51.85 31.45 L52.05 29.8 Q52.7 24.45 57.1 20.9 62.25 16.7 69.55 17.1 76.95 17.45 82.2 22.5" fill="#bf7926" fill-rule="evenodd" stroke="none"/>
    <path d="M70.8 11.0 Q67.8 25.8 63.15 39.2 L59.05 49.75 59.4 48.9 56.5 46.3 Q49.8 39.45 50.0 30.7 50.0 29.5 50.25 28.4 51.15 21.15 57.2 16.3 63.0 11.5 70.8 11.0 M-109.15 16.85 L-111.1 9.95 Q-100.75 9.6 -93.4 16.95 -85.55 24.8 -86.0 36.75 -86.35 46.8 -92.4 54.6 L-95.05 50.15 Q-103.45 35.4 -109.15 16.85" fill="#620000" fill-opacity="0.2" fill-rule="evenodd" stroke="none"/>
    <path d="M29.45 -108.3 Q55.4 -98.7 63.05 -75.85 74.65 -41.2 67.1 3.35 64.15 20.7 58.75 36.05 53.95 49.8 49.05 57.15 44.8 63.55 27.0 67.9 10.9 71.8 -11.25 72.95 -32.85 74.1 -50.7 72.15 -69.7 70.05 -76.4 65.15 -83.5 59.95 -91.15 46.45 -99.1 32.45 -104.5 14.85 -117.8 -28.5 -107.9 -62.35 -102.3 -81.35 -77.7 -95.65 -54.5 -109.15 -24.7 -112.95 6.2 -116.9 29.45 -108.3" fill="#70381f" fill-rule="evenodd" stroke="none"/>
    <path d="M-131.8 -101.45 Q-134.25 -109.65 -132.2 -110.8 -130.15 -111.9 -124.7 -105.25 -119.15 -98.6 -113.5 -88.0 -107.85 -77.45 -105.35 -69.2 -102.85 -60.95 -104.9 -59.85 -106.95 -58.7 -112.45 -65.4 -117.95 -72.05 -123.6 -82.6 -129.25 -93.2 -131.8 -101.45" fill="#70381f" fill-rule="evenodd" stroke="none"/>
    <path d="M-137.45 -72.45 Q-142.25 -76.2 -141.4 -78.2 -140.55 -80.15 -134.45 -79.25 -128.45 -78.3 -120.75 -74.95 -113.1 -71.6 -108.3 -67.8 -103.5 -64.0 -104.35 -62.05 -105.2 -60.05 -111.3 -61.0 -117.3 -61.95 -124.95 -65.3 -132.65 -68.65 -137.45 -72.45" fill="#70381f" fill-rule="evenodd" stroke="none"/>
  </g>
</svg>
