<?xml version="1.0" encoding="UTF-8" standalone="no"?>
<svg xmlns:xlink="http://www.w3.org/1999/xlink" height="101.45px" width="114.0px" xmlns="http://www.w3.org/2000/svg">
  <g transform="matrix(1.0, 0.0, 0.0, 1.0, 442.0, 662.5)">
    <path d="M-432.25 -646.65 Q-432.9 -647.65 -431.9 -649.35 -430.8 -651.2 -428.75 -652.55 -426.45 -654.05 -424.5 -654.35 -422.7 -653.9 -422.05 -653.1 -422.05 -650.8 -422.2 -650.5 -423.25 -649.05 -425.2 -647.75 L-425.5 -647.55 Q-427.55 -646.25 -429.45 -645.95 L-429.7 -645.95 Q-431.55 -645.7 -432.2 -646.6 L-432.25 -646.65 M-409.1 -656.0 Q-408.0 -657.85 -405.95 -659.2 -403.65 -660.7 -401.7 -661.0 -399.9 -660.55 -399.25 -659.75 -399.25 -657.45 -399.4 -657.15 -400.45 -655.7 -402.4 -654.4 L-402.7 -654.2 Q-404.75 -652.9 -406.65 -652.6 L-406.9 -652.6 Q-408.75 -652.35 -409.4 -653.25 L-409.45 -653.3 Q-410.1 -654.3 -409.1 -656.0 M-405.05 -634.7 Q-403.3 -636.65 -400.5 -638.55 -397.4 -640.6 -395.1 -641.45 -392.75 -641.6 -392.25 -641.0 -391.6 -640.3 -392.6 -639.05 -394.85 -636.65 -397.4 -634.9 -400.7 -632.75 -403.1 -632.0 -405.65 -631.25 -406.25 -632.0 -406.75 -632.8 -405.05 -634.7 M-416.05 -631.5 Q-417.15 -630.3 -418.5 -629.4 -420.15 -628.25 -421.35 -627.95 L-421.45 -627.95 -422.95 -627.85 -423.0 -627.9 Q-423.25 -628.3 -422.4 -629.25 L-420.05 -631.3 -417.4 -632.75 Q-415.45 -632.2 -416.05 -631.5 M-440.3 -630.05 Q-440.8 -630.8 -440.0 -632.2 -439.2 -633.45 -437.65 -634.5 -435.95 -635.65 -434.5 -635.9 -432.05 -634.25 -432.6 -633.3 -433.45 -631.85 -435.0 -630.8 -436.75 -629.7 -438.3 -629.55 -439.7 -629.3 -440.2 -629.95 L-440.3 -630.05 M-405.4 -617.25 Q-404.25 -618.6 -402.5 -619.75 -400.6 -621.0 -399.2 -621.55 -397.0 -620.75 -397.6 -620.0 L-398.0 -619.6 -400.6 -617.45 Q-402.65 -616.1 -404.15 -615.6 L-404.25 -615.6 -406.1 -615.55 -406.1 -615.6 Q-406.45 -616.1 -405.4 -617.25 M-369.8 -631.4 Q-369.15 -630.7 -370.15 -629.45 -372.4 -627.05 -374.95 -625.3 -378.25 -623.15 -380.65 -622.4 -383.2 -621.65 -383.8 -622.4 -384.3 -623.2 -382.6 -625.1 L-378.05 -628.95 Q-374.95 -631.0 -372.65 -631.85 -370.3 -632.0 -369.8 -631.4 M-383.0 -636.5 Q-385.05 -635.15 -386.55 -634.65 L-386.65 -634.65 -388.5 -634.6 -388.5 -634.65 Q-388.85 -635.15 -387.8 -636.3 -386.65 -637.65 -384.9 -638.8 -383.0 -640.05 -381.6 -640.6 -379.4 -639.8 -380.0 -639.05 L-380.4 -638.65 -383.0 -636.5 M-401.7 -597.35 Q-402.05 -597.85 -401.0 -599.0 -399.85 -600.35 -398.1 -601.5 -396.2 -602.75 -394.8 -603.3 -392.6 -602.5 -393.2 -601.75 L-393.6 -601.35 Q-394.65 -600.25 -396.2 -599.2 -398.25 -597.85 -399.75 -597.35 L-399.85 -597.35 -401.7 -597.3 -401.7 -597.35" fill="#ffffff" fill-opacity="0.72156864" fill-rule="evenodd" stroke="none"/>
    <path d="M-432.25 -646.65 Q-432.9 -647.65 -431.9 -649.35 -430.8 -651.2 -428.75 -652.55 -426.45 -654.05 -424.5 -654.35 -422.7 -653.9 -422.05 -653.1 -422.05 -650.8 -422.2 -650.5 -423.25 -649.05 -425.2 -647.75 L-425.5 -647.55 Q-427.55 -646.25 -429.45 -645.95 L-429.7 -645.95 Q-431.55 -645.7 -432.2 -646.6 L-432.25 -646.65 M-409.1 -656.0 Q-408.0 -657.85 -405.95 -659.2 -403.65 -660.7 -401.7 -661.0 -399.9 -660.55 -399.25 -659.75 -399.25 -657.45 -399.4 -657.15 -400.45 -655.7 -402.4 -654.4 L-402.7 -654.2 Q-404.75 -652.9 -406.65 -652.6 L-406.9 -652.6 Q-408.75 -652.35 -409.4 -653.25 L-409.45 -653.3 Q-410.1 -654.3 -409.1 -656.0 M-405.05 -634.7 Q-403.3 -636.65 -400.5 -638.55 -397.4 -640.6 -395.1 -641.45 -392.75 -641.6 -392.25 -641.0 -391.6 -640.3 -392.6 -639.05 -394.85 -636.65 -397.4 -634.9 -400.7 -632.75 -403.1 -632.0 -405.65 -631.25 -406.25 -632.0 -406.75 -632.8 -405.05 -634.7 M-416.05 -631.5 Q-417.15 -630.3 -418.5 -629.4 -420.15 -628.25 -421.35 -627.95 L-421.45 -627.95 -422.95 -627.85 -423.0 -627.9 Q-423.25 -628.3 -422.4 -629.25 L-420.05 -631.3 -417.4 -632.75 Q-415.45 -632.2 -416.05 -631.5 M-440.3 -630.05 Q-440.8 -630.8 -440.0 -632.2 -439.2 -633.45 -437.65 -634.5 -435.95 -635.65 -434.5 -635.9 -432.05 -634.25 -432.6 -633.3 -433.45 -631.85 -435.0 -630.8 -436.75 -629.7 -438.3 -629.55 -439.7 -629.3 -440.2 -629.95 L-440.3 -630.05 M-405.4 -617.25 Q-404.25 -618.6 -402.5 -619.75 -400.6 -621.0 -399.2 -621.55 -397.0 -620.75 -397.6 -620.0 L-398.0 -619.6 -400.6 -617.45 Q-402.65 -616.1 -404.15 -615.6 L-404.25 -615.6 -406.1 -615.55 -406.1 -615.6 Q-406.45 -616.1 -405.4 -617.25 M-369.8 -631.4 Q-369.15 -630.7 -370.15 -629.45 -372.4 -627.05 -374.95 -625.3 -378.25 -623.15 -380.65 -622.4 -383.2 -621.65 -383.8 -622.4 -384.3 -623.2 -382.6 -625.1 L-378.05 -628.95 Q-374.95 -631.0 -372.65 -631.85 -370.3 -632.0 -369.8 -631.4 M-383.0 -636.5 Q-385.05 -635.15 -386.55 -634.65 L-386.65 -634.65 -388.5 -634.6 -388.5 -634.65 Q-388.85 -635.15 -387.8 -636.3 -386.65 -637.65 -384.9 -638.8 -383.0 -640.05 -381.6 -640.6 -379.4 -639.8 -380.0 -639.05 L-380.4 -638.65 -383.0 -636.5 M-401.7 -597.35 Q-402.05 -597.85 -401.0 -599.0 -399.85 -600.35 -398.1 -601.5 -396.2 -602.75 -394.8 -603.3 -392.6 -602.5 -393.2 -601.75 L-393.6 -601.35 Q-394.65 -600.25 -396.2 -599.2 -398.25 -597.85 -399.75 -597.35 L-399.85 -597.35 -401.7 -597.3 -401.7 -597.35" fill="none" stroke="#5fd6ff" stroke-linecap="round" stroke-linejoin="round" stroke-opacity="0.72156864" stroke-width="3.0"/>
    <path d="M-432.25 -646.65 Q-432.9 -647.65 -431.9 -649.35 -430.8 -651.2 -428.75 -652.55 -426.45 -654.05 -424.5 -654.35 -422.7 -653.9 -422.05 -653.1 -422.05 -650.8 -422.2 -650.5 -423.25 -649.05 -425.2 -647.75 L-425.5 -647.55 Q-427.55 -646.25 -429.45 -645.95 L-429.7 -645.95 Q-431.55 -645.7 -432.2 -646.6 L-432.25 -646.65 M-409.1 -656.0 Q-408.0 -657.85 -405.95 -659.2 -403.65 -660.7 -401.7 -661.0 -399.9 -660.55 -399.25 -659.75 -399.25 -657.45 -399.4 -657.15 -400.45 -655.7 -402.4 -654.4 L-402.7 -654.2 Q-404.75 -652.9 -406.65 -652.6 L-406.9 -652.6 Q-408.75 -652.35 -409.4 -653.25 L-409.45 -653.3 Q-410.1 -654.3 -409.1 -656.0 M-405.05 -634.7 Q-403.3 -636.65 -400.5 -638.55 -397.4 -640.6 -395.1 -641.45 -392.75 -641.6 -392.25 -641.0 -391.6 -640.3 -392.6 -639.05 -394.85 -636.65 -397.4 -634.9 -400.7 -632.75 -403.1 -632.0 -405.65 -631.25 -406.25 -632.0 -406.75 -632.8 -405.05 -634.7 M-416.05 -631.5 Q-417.15 -630.3 -418.5 -629.4 -420.15 -628.25 -421.35 -627.95 L-421.45 -627.95 -422.95 -627.85 -423.0 -627.9 Q-423.25 -628.3 -422.4 -629.25 L-420.05 -631.3 -417.4 -632.75 Q-415.45 -632.2 -416.05 -631.5 M-440.3 -630.05 Q-440.8 -630.8 -440.0 -632.2 -439.2 -633.5 -437.55 -634.6 -435.9 -635.7 -434.35 -635.9 -431.8 -634.6 -432.65 -633.25 -433.4 -631.9 -435.05 -630.8 -436.7 -629.7 -438.3 -629.55 -439.8 -629.3 -440.3 -630.05 M-405.4 -617.25 Q-404.25 -618.6 -402.5 -619.75 -400.6 -621.0 -399.2 -621.55 -397.0 -620.75 -397.6 -620.0 L-398.0 -619.6 -400.6 -617.45 Q-402.65 -616.1 -404.15 -615.6 L-404.25 -615.6 -406.1 -615.55 -406.1 -615.6 Q-406.45 -616.1 -405.4 -617.25 M-369.8 -631.4 Q-369.15 -630.7 -370.15 -629.45 -372.4 -627.05 -374.95 -625.3 -378.25 -623.15 -380.65 -622.4 -383.2 -621.65 -383.8 -622.4 -384.3 -623.2 -382.6 -625.1 L-378.05 -628.95 Q-374.95 -631.0 -372.65 -631.85 -370.3 -632.0 -369.8 -631.4 M-383.0 -636.5 Q-385.05 -635.15 -386.55 -634.65 L-386.65 -634.65 -388.5 -634.6 -388.5 -634.65 Q-388.85 -635.15 -387.8 -636.3 -386.65 -637.65 -384.9 -638.8 -383.0 -640.05 -381.6 -640.6 -379.4 -639.8 -380.0 -639.05 L-380.4 -638.65 -383.0 -636.5 M-401.7 -597.35 Q-402.05 -597.85 -401.0 -599.0 -399.85 -600.35 -398.1 -601.5 -396.2 -602.75 -394.8 -603.3 -392.6 -602.5 -393.2 -601.75 L-393.6 -601.35 Q-394.65 -600.25 -396.2 -599.2 -398.25 -597.85 -399.75 -597.35 L-399.85 -597.35 -401.7 -597.3 -401.7 -597.35" fill="#ffffff" fill-opacity="0.72156864" fill-rule="evenodd" stroke="none"/>
    <path d="M-432.25 -646.65 Q-432.9 -647.65 -431.9 -649.35 -430.8 -651.2 -428.75 -652.55 -426.45 -654.05 -424.5 -654.35 -422.7 -653.9 -422.05 -653.1 -422.05 -650.8 -422.2 -650.5 -423.25 -649.05 -425.2 -647.75 L-425.5 -647.55 Q-427.55 -646.25 -429.45 -645.95 L-429.7 -645.95 Q-431.55 -645.7 -432.2 -646.6 L-432.25 -646.65 M-409.1 -656.0 Q-408.0 -657.85 -405.95 -659.2 -403.65 -660.7 -401.7 -661.0 -399.9 -660.55 -399.25 -659.75 -399.25 -657.45 -399.4 -657.15 -400.45 -655.7 -402.4 -654.4 L-402.7 -654.2 Q-404.75 -652.9 -406.65 -652.6 L-406.9 -652.6 Q-408.75 -652.35 -409.4 -653.25 L-409.45 -653.3 Q-410.1 -654.3 -409.1 -656.0 M-405.05 -634.7 Q-403.3 -636.65 -400.5 -638.55 -397.4 -640.6 -395.1 -641.45 -392.75 -641.6 -392.25 -641.0 -391.6 -640.3 -392.6 -639.05 -394.85 -636.65 -397.4 -634.9 -400.7 -632.75 -403.1 -632.0 -405.65 -631.25 -406.25 -632.0 -406.75 -632.8 -405.05 -634.7 M-416.05 -631.5 Q-417.15 -630.3 -418.5 -629.4 -420.15 -628.25 -421.35 -627.95 L-421.45 -627.95 -422.95 -627.85 -423.0 -627.9 Q-423.25 -628.3 -422.4 -629.25 L-420.05 -631.3 -417.4 -632.75 Q-415.45 -632.2 -416.05 -631.5 M-440.3 -630.05 Q-440.8 -630.8 -440.0 -632.2 -439.2 -633.5 -437.55 -634.6 -435.9 -635.7 -434.35 -635.9 -431.8 -634.6 -432.65 -633.25 -433.4 -631.9 -435.05 -630.8 -436.7 -629.7 -438.3 -629.55 -439.8 -629.3 -440.3 -630.05 M-405.4 -617.25 Q-404.25 -618.6 -402.5 -619.75 -400.6 -621.0 -399.2 -621.55 -397.0 -620.75 -397.6 -620.0 L-398.0 -619.6 -400.6 -617.45 Q-402.65 -616.1 -404.15 -615.6 L-404.25 -615.6 -406.1 -615.55 -406.1 -615.6 Q-406.45 -616.1 -405.4 -617.25 M-369.8 -631.4 Q-369.15 -630.7 -370.15 -629.45 -372.4 -627.05 -374.95 -625.3 -378.25 -623.15 -380.65 -622.4 -383.2 -621.65 -383.8 -622.4 -384.3 -623.2 -382.6 -625.1 L-378.05 -628.95 Q-374.95 -631.0 -372.65 -631.85 -370.3 -632.0 -369.8 -631.4 M-383.0 -636.5 Q-385.05 -635.15 -386.55 -634.65 L-386.65 -634.65 -388.5 -634.6 -388.5 -634.65 Q-388.85 -635.15 -387.8 -636.3 -386.65 -637.65 -384.9 -638.8 -383.0 -640.05 -381.6 -640.6 -379.4 -639.8 -380.0 -639.05 L-380.4 -638.65 -383.0 -636.5 M-401.7 -597.35 Q-402.05 -597.85 -401.0 -599.0 -399.85 -600.35 -398.1 -601.5 -396.2 -602.75 -394.8 -603.3 -392.6 -602.5 -393.2 -601.75 L-393.6 -601.35 Q-394.65 -600.25 -396.2 -599.2 -398.25 -597.85 -399.75 -597.35 L-399.85 -597.35 -401.7 -597.3 -401.7 -597.35" fill="none" stroke="#183640" stroke-linecap="round" stroke-linejoin="round" stroke-opacity="0.0" stroke-width="0.75"/>
    <path d="M-365.9 -624.65 Q-363.6 -626.15 -361.65 -626.45 -359.85 -626.0 -359.2 -625.2 -359.2 -622.9 -359.35 -622.6 -360.4 -621.15 -362.35 -619.85 L-362.65 -619.65 Q-364.7 -618.35 -366.6 -618.05 L-366.85 -618.05 Q-368.7 -617.8 -369.35 -618.7 L-369.4 -618.75 Q-370.05 -619.75 -369.05 -621.45 -367.95 -623.3 -365.9 -624.65 M-388.7 -618.0 Q-386.4 -619.5 -384.45 -619.8 -382.65 -619.35 -382.0 -618.55 -382.0 -616.25 -382.15 -615.95 -383.2 -614.5 -385.15 -613.2 L-385.45 -613.0 Q-387.5 -611.7 -389.4 -611.4 L-389.65 -611.4 Q-391.5 -611.15 -392.15 -612.05 L-392.2 -612.1 Q-392.85 -613.1 -391.85 -614.8 -390.75 -616.65 -388.7 -618.0 M-399.95 -597.65 Q-399.15 -598.9 -397.6 -599.95 -395.9 -601.1 -394.45 -601.35 -392.0 -599.7 -392.55 -598.75 -393.4 -597.3 -394.95 -596.25 -396.7 -595.15 -398.25 -595.0 -399.65 -594.75 -400.15 -595.4 L-400.25 -595.5 Q-400.75 -596.25 -399.95 -597.65 M-376.0 -596.95 Q-377.1 -595.75 -378.45 -594.85 -380.1 -593.7 -381.3 -593.4 L-381.4 -593.4 -382.9 -593.3 -382.95 -593.35 Q-383.2 -593.75 -382.35 -594.7 L-380.0 -596.75 Q-378.45 -597.75 -377.35 -598.2 -375.4 -597.65 -376.0 -596.95 M-365.0 -600.15 Q-363.25 -602.1 -360.45 -604.0 -357.35 -606.05 -355.05 -606.9 -352.7 -607.05 -352.2 -606.45 -351.55 -605.75 -352.55 -604.5 -354.8 -602.1 -357.35 -600.35 -360.65 -598.2 -363.05 -597.45 -365.6 -596.7 -366.2 -597.45 -366.7 -598.25 -365.0 -600.15 M-346.6 -600.1 L-348.45 -600.05 -348.45 -600.1 Q-348.8 -600.6 -347.75 -601.75 L-344.85 -604.25 -341.55 -606.05 Q-339.35 -605.25 -339.95 -604.5 L-340.35 -604.1 Q-341.4 -603.0 -342.95 -601.95 -345.0 -600.6 -346.5 -600.1 L-346.6 -600.1 M-332.6 -597.3 Q-330.25 -597.45 -329.75 -596.85 -329.1 -596.15 -330.1 -594.9 -332.35 -592.5 -334.9 -590.75 -338.2 -588.6 -340.6 -587.85 -343.15 -587.1 -343.75 -587.85 -344.25 -588.65 -342.55 -590.55 -340.8 -592.5 -338.0 -594.4 -334.9 -596.45 -332.6 -597.3 M-364.1 -581.05 L-364.2 -581.05 -366.05 -581.0 -366.05 -581.05 Q-366.4 -581.55 -365.35 -582.7 -364.2 -584.05 -362.45 -585.2 L-359.15 -587.0 Q-356.95 -586.2 -357.55 -585.45 L-357.95 -585.05 -360.55 -582.9 Q-362.6 -581.55 -364.1 -581.05 M-353.55 -566.8 L-356.15 -564.65 Q-358.2 -563.3 -359.7 -562.8 L-359.8 -562.8 -361.65 -562.75 -361.65 -562.8 Q-362.0 -563.3 -360.95 -564.45 -359.8 -565.8 -358.05 -566.95 L-354.75 -568.75 Q-352.55 -567.95 -353.15 -567.2 L-353.55 -566.8" fill="#ffffff" fill-opacity="0.72156864" fill-rule="evenodd" stroke="none"/>
    <path d="M-365.9 -624.65 Q-363.6 -626.15 -361.65 -626.45 -359.85 -626.0 -359.2 -625.2 -359.2 -622.9 -359.35 -622.6 -360.4 -621.15 -362.35 -619.85 L-362.65 -619.65 Q-364.7 -618.35 -366.6 -618.05 L-366.85 -618.05 Q-368.7 -617.8 -369.35 -618.7 L-369.4 -618.75 Q-370.05 -619.75 -369.05 -621.45 -367.95 -623.3 -365.9 -624.65 M-388.7 -618.0 Q-386.4 -619.5 -384.45 -619.8 -382.65 -619.35 -382.0 -618.55 -382.0 -616.25 -382.15 -615.95 -383.2 -614.5 -385.15 -613.2 L-385.45 -613.0 Q-387.5 -611.7 -389.4 -611.4 L-389.65 -611.4 Q-391.5 -611.15 -392.15 -612.05 L-392.2 -612.1 Q-392.85 -613.1 -391.85 -614.8 -390.75 -616.65 -388.7 -618.0 M-399.95 -597.65 Q-399.15 -598.9 -397.6 -599.95 -395.9 -601.1 -394.45 -601.35 -392.0 -599.7 -392.55 -598.75 -393.4 -597.3 -394.95 -596.25 -396.7 -595.15 -398.25 -595.0 -399.65 -594.75 -400.15 -595.4 L-400.25 -595.5 Q-400.75 -596.25 -399.95 -597.65 M-376.0 -596.95 Q-377.1 -595.75 -378.45 -594.85 -380.1 -593.7 -381.3 -593.4 L-381.4 -593.4 -382.9 -593.3 -382.95 -593.35 Q-383.2 -593.75 -382.35 -594.7 L-380.0 -596.75 Q-378.45 -597.75 -377.35 -598.2 -375.4 -597.65 -376.0 -596.95 M-365.0 -600.15 Q-363.25 -602.1 -360.45 -604.0 -357.35 -606.05 -355.05 -606.9 -352.7 -607.05 -352.2 -606.45 -351.55 -605.75 -352.55 -604.5 -354.8 -602.1 -357.35 -600.35 -360.65 -598.2 -363.05 -597.45 -365.6 -596.7 -366.2 -597.45 -366.7 -598.25 -365.0 -600.15 M-346.6 -600.1 L-348.45 -600.05 -348.45 -600.1 Q-348.8 -600.6 -347.75 -601.75 L-344.85 -604.25 -341.55 -606.05 Q-339.35 -605.25 -339.95 -604.5 L-340.35 -604.1 Q-341.4 -603.0 -342.95 -601.95 -345.0 -600.6 -346.5 -600.1 L-346.6 -600.1 M-332.6 -597.3 Q-330.25 -597.45 -329.75 -596.85 -329.1 -596.15 -330.1 -594.9 -332.35 -592.5 -334.9 -590.75 -338.2 -588.6 -340.6 -587.85 -343.15 -587.1 -343.75 -587.85 -344.25 -588.65 -342.55 -590.55 -340.8 -592.5 -338.0 -594.4 -334.9 -596.45 -332.6 -597.3 M-364.1 -581.05 L-364.2 -581.05 -366.05 -581.0 -366.05 -581.05 Q-366.4 -581.55 -365.35 -582.7 -364.2 -584.05 -362.45 -585.2 L-359.15 -587.0 Q-356.95 -586.2 -357.55 -585.45 L-357.95 -585.05 -360.55 -582.9 Q-362.6 -581.55 -364.1 -581.05 M-353.55 -566.8 L-356.15 -564.65 Q-358.2 -563.3 -359.7 -562.8 L-359.8 -562.8 -361.65 -562.75 -361.65 -562.8 Q-362.0 -563.3 -360.95 -564.45 -359.8 -565.8 -358.05 -566.95 L-354.75 -568.75 Q-352.55 -567.95 -353.15 -567.2 L-353.55 -566.8" fill="none" stroke="#5fd6ff" stroke-linecap="round" stroke-linejoin="round" stroke-opacity="0.72156864" stroke-width="3.0"/>
    <path d="M-365.9 -624.65 Q-363.6 -626.15 -361.65 -626.45 -359.85 -626.0 -359.2 -625.2 -359.2 -622.9 -359.35 -622.6 -360.4 -621.15 -362.35 -619.85 L-362.65 -619.65 Q-364.7 -618.35 -366.6 -618.05 L-366.85 -618.05 Q-368.7 -617.8 -369.35 -618.7 L-369.4 -618.75 Q-370.05 -619.75 -369.05 -621.45 -367.95 -623.3 -365.9 -624.65 M-388.7 -618.0 Q-386.4 -619.5 -384.45 -619.8 -382.65 -619.35 -382.0 -618.55 -382.0 -616.25 -382.15 -615.95 -383.2 -614.5 -385.15 -613.2 L-385.45 -613.0 Q-387.5 -611.7 -389.4 -611.4 L-389.65 -611.4 Q-391.5 -611.15 -392.15 -612.05 L-392.2 -612.1 Q-392.85 -613.1 -391.85 -614.8 -390.75 -616.65 -388.7 -618.0 M-399.95 -597.65 Q-399.15 -598.95 -397.5 -600.05 -395.85 -601.15 -394.3 -601.35 -391.75 -600.05 -392.6 -598.7 -393.35 -597.35 -395.0 -596.25 -396.65 -595.15 -398.25 -595.0 -399.75 -594.75 -400.25 -595.5 -400.75 -596.25 -399.95 -597.65 M-376.0 -596.95 Q-377.1 -595.75 -378.45 -594.85 -380.1 -593.7 -381.3 -593.4 L-381.4 -593.4 -382.9 -593.3 -382.95 -593.35 Q-383.2 -593.75 -382.35 -594.7 L-380.0 -596.75 Q-378.45 -597.75 -377.35 -598.2 -375.4 -597.65 -376.0 -596.95 M-365.0 -600.15 Q-363.25 -602.1 -360.45 -604.0 -357.35 -606.05 -355.05 -606.9 -352.7 -607.05 -352.2 -606.45 -351.55 -605.75 -352.55 -604.5 -354.8 -602.1 -357.35 -600.35 -360.65 -598.2 -363.05 -597.45 -365.6 -596.7 -366.2 -597.45 -366.7 -598.25 -365.0 -600.15 M-346.6 -600.1 L-348.45 -600.05 -348.45 -600.1 Q-348.8 -600.6 -347.75 -601.75 L-344.85 -604.25 -341.55 -606.05 Q-339.35 -605.25 -339.95 -604.5 L-340.35 -604.1 Q-341.4 -603.0 -342.95 -601.95 -345.0 -600.6 -346.5 -600.1 L-346.6 -600.1 M-332.6 -597.3 Q-330.25 -597.45 -329.75 -596.85 -329.1 -596.15 -330.1 -594.9 -332.35 -592.5 -334.9 -590.75 -338.2 -588.6 -340.6 -587.85 -343.15 -587.1 -343.75 -587.85 -344.25 -588.65 -342.55 -590.55 -340.8 -592.5 -338.0 -594.4 -334.9 -596.45 -332.6 -597.3 M-364.1 -581.05 L-364.2 -581.05 -366.05 -581.0 -366.05 -581.05 Q-366.4 -581.55 -365.35 -582.7 -364.2 -584.05 -362.45 -585.2 L-359.15 -587.0 Q-356.95 -586.2 -357.55 -585.45 L-357.95 -585.05 -360.55 -582.9 Q-362.6 -581.55 -364.1 -581.05 M-353.55 -566.8 L-356.15 -564.65 Q-358.2 -563.3 -359.7 -562.8 L-359.8 -562.8 -361.65 -562.75 -361.65 -562.8 Q-362.0 -563.3 -360.95 -564.45 -359.8 -565.8 -358.05 -566.95 L-354.75 -568.75 Q-352.55 -567.95 -353.15 -567.2 L-353.55 -566.8" fill="#ffffff" fill-opacity="0.72156864" fill-rule="evenodd" stroke="none"/>
    <path d="M-365.9 -624.65 Q-363.6 -626.15 -361.65 -626.45 -359.85 -626.0 -359.2 -625.2 -359.2 -622.9 -359.35 -622.6 -360.4 -621.15 -362.35 -619.85 L-362.65 -619.65 Q-364.7 -618.35 -366.6 -618.05 L-366.85 -618.05 Q-368.7 -617.8 -369.35 -618.7 L-369.4 -618.75 Q-370.05 -619.75 -369.05 -621.45 -367.95 -623.3 -365.9 -624.65 M-388.7 -618.0 Q-386.4 -619.5 -384.45 -619.8 -382.65 -619.35 -382.0 -618.55 -382.0 -616.25 -382.15 -615.95 -383.2 -614.5 -385.15 -613.2 L-385.45 -613.0 Q-387.5 -611.7 -389.4 -611.4 L-389.65 -611.4 Q-391.5 -611.15 -392.15 -612.05 L-392.2 -612.1 Q-392.85 -613.1 -391.85 -614.8 -390.75 -616.65 -388.7 -618.0 M-399.95 -597.65 Q-399.15 -598.95 -397.5 -600.05 -395.85 -601.15 -394.3 -601.35 -391.75 -600.05 -392.6 -598.7 -393.35 -597.35 -395.0 -596.25 -396.65 -595.15 -398.25 -595.0 -399.75 -594.75 -400.25 -595.5 -400.75 -596.25 -399.95 -597.65 M-376.0 -596.95 Q-377.1 -595.75 -378.45 -594.85 -380.1 -593.7 -381.3 -593.4 L-381.4 -593.4 -382.9 -593.3 -382.95 -593.35 Q-383.2 -593.75 -382.35 -594.7 L-380.0 -596.75 Q-378.45 -597.75 -377.35 -598.2 -375.4 -597.65 -376.0 -596.95 M-365.0 -600.15 Q-363.25 -602.1 -360.45 -604.0 -357.35 -606.05 -355.05 -606.9 -352.7 -607.05 -352.2 -606.45 -351.55 -605.75 -352.55 -604.5 -354.8 -602.1 -357.35 -600.35 -360.65 -598.2 -363.05 -597.45 -365.6 -596.7 -366.2 -597.45 -366.7 -598.25 -365.0 -600.15 M-346.6 -600.1 L-348.45 -600.05 -348.45 -600.1 Q-348.8 -600.6 -347.75 -601.75 L-344.85 -604.25 -341.55 -606.05 Q-339.35 -605.25 -339.95 -604.5 L-340.35 -604.1 Q-341.4 -603.0 -342.95 -601.95 -345.0 -600.6 -346.5 -600.1 L-346.6 -600.1 M-332.6 -597.3 Q-330.25 -597.45 -329.75 -596.85 -329.1 -596.15 -330.1 -594.9 -332.35 -592.5 -334.9 -590.75 -338.2 -588.6 -340.6 -587.85 -343.15 -587.1 -343.75 -587.85 -344.25 -588.65 -342.55 -590.55 -340.8 -592.5 -338.0 -594.4 -334.9 -596.45 -332.6 -597.3 M-364.1 -581.05 L-364.2 -581.05 -366.05 -581.0 -366.05 -581.05 Q-366.4 -581.55 -365.35 -582.7 -364.2 -584.05 -362.45 -585.2 L-359.15 -587.0 Q-356.95 -586.2 -357.55 -585.45 L-357.95 -585.05 -360.55 -582.9 Q-362.6 -581.55 -364.1 -581.05 M-353.55 -566.8 L-356.15 -564.65 Q-358.2 -563.3 -359.7 -562.8 L-359.8 -562.8 -361.65 -562.75 -361.65 -562.8 Q-362.0 -563.3 -360.95 -564.45 -359.8 -565.8 -358.05 -566.95 L-354.75 -568.75 Q-352.55 -567.95 -353.15 -567.2 L-353.55 -566.8" fill="none" stroke="#183640" stroke-linecap="round" stroke-linejoin="round" stroke-opacity="0.0" stroke-width="0.75"/>
  </g>
</svg>
