<?xml version="1.0" encoding="UTF-8" standalone="no"?>
<svg xmlns:xlink="http://www.w3.org/1999/xlink" height="101.55px" width="114.6px" xmlns="http://www.w3.org/2000/svg">
  <g transform="matrix(1.0, 0.0, 0.0, 1.0, 458.95, 650.3)">
    <path d="M-421.95 -622.5 Q-420.2 -624.45 -417.15 -626.5 -414.1 -628.5 -411.55 -629.35 L-408.5 -629.4 Q-407.95 -628.6 -409.7 -626.55 -411.45 -624.55 -414.5 -622.55 -417.55 -620.5 -420.1 -619.7 -422.65 -618.9 -423.2 -619.7 -423.7 -620.5 -421.95 -622.5" fill="#ffffff" fill-opacity="0.0" fill-rule="evenodd" stroke="none"/>
    <path d="M-421.95 -622.5 Q-420.2 -624.45 -417.15 -626.5 -414.1 -628.5 -411.55 -629.35 L-408.5 -629.4 Q-407.95 -628.6 -409.7 -626.55 -411.45 -624.55 -414.5 -622.55 -417.55 -620.5 -420.1 -619.7 -422.65 -618.9 -423.2 -619.7 -423.7 -620.5 -421.95 -622.5 Z" fill="none" stroke="#5fd6ff" stroke-linecap="round" stroke-linejoin="round" stroke-opacity="0.0" stroke-width="3.0"/>
    <path d="M-404.7 -624.1 L-401.7 -626.65 Q-399.8 -627.9 -398.2 -628.4 L-396.25 -628.45 Q-395.95 -627.95 -397.05 -626.65 -398.15 -625.4 -400.05 -624.15 -401.95 -622.9 -403.55 -622.35 -405.15 -621.85 -405.45 -622.35 -405.8 -622.85 -404.7 -624.1" fill="#ffffff" fill-opacity="0.0" fill-rule="evenodd" stroke="none"/>
    <path d="M-404.7 -624.1 L-401.7 -626.65 Q-399.8 -627.9 -398.2 -628.4 L-396.25 -628.45 Q-395.95 -627.95 -397.05 -626.65 -398.15 -625.4 -400.05 -624.15 -401.95 -622.9 -403.55 -622.35 -405.15 -621.85 -405.45 -622.35 -405.8 -622.85 -404.7 -624.1 Z" fill="none" stroke="#5fd6ff" stroke-linecap="round" stroke-linejoin="round" stroke-opacity="0.0" stroke-width="3.0"/>
    <path d="M-422.3 -605.05 L-419.3 -607.6 Q-417.4 -608.85 -415.8 -609.35 L-413.85 -609.4 Q-413.55 -608.9 -414.65 -607.6 -415.75 -606.35 -417.65 -605.1 -419.55 -603.85 -421.15 -603.3 -422.75 -602.8 -423.05 -603.3 -423.4 -603.8 -422.3 -605.05" fill="#ffffff" fill-opacity="0.0" fill-rule="evenodd" stroke="none"/>
    <path d="M-422.3 -605.05 L-419.3 -607.6 Q-417.4 -608.85 -415.8 -609.35 L-413.85 -609.4 Q-413.55 -608.9 -414.65 -607.6 -415.75 -606.35 -417.65 -605.1 -419.55 -603.85 -421.15 -603.3 -422.75 -602.8 -423.05 -603.3 -423.4 -603.8 -422.3 -605.05 Z" fill="none" stroke="#5fd6ff" stroke-linecap="round" stroke-linejoin="round" stroke-opacity="0.0" stroke-width="3.0"/>
    <path d="M-426.0 -643.8 Q-424.95 -645.6 -422.75 -647.05 -420.5 -648.5 -418.45 -648.75 -416.4 -649.05 -415.75 -648.05 -415.05 -647.05 -416.15 -645.25 -417.2 -643.5 -419.45 -642.05 -421.65 -640.6 -423.7 -640.3 -425.7 -640.0 -426.4 -641.0 -427.05 -642.0 -426.0 -643.8" fill="#ffffff" fill-opacity="0.0" fill-rule="evenodd" stroke="none"/>
    <path d="M-426.0 -643.8 Q-424.95 -645.6 -422.75 -647.05 -420.5 -648.5 -418.45 -648.75 -416.4 -649.05 -415.75 -648.05 -415.05 -647.05 -416.15 -645.25 -417.2 -643.5 -419.45 -642.05 -421.65 -640.6 -423.7 -640.3 -425.7 -640.0 -426.4 -641.0 -427.05 -642.0 -426.0 -643.8 Z" fill="none" stroke="#5fd6ff" stroke-linecap="round" stroke-linejoin="round" stroke-opacity="0.0" stroke-width="3.0"/>
    <path d="M-439.3 -617.05 L-436.85 -619.1 Q-435.3 -620.15 -434.0 -620.55 L-432.45 -620.6 Q-432.15 -620.2 -433.05 -619.15 -433.95 -618.1 -435.5 -617.05 -437.05 -616.0 -438.35 -615.65 L-439.95 -615.6 Q-440.2 -616.0 -439.3 -617.05" fill="#ffffff" fill-opacity="0.0" fill-rule="evenodd" stroke="none"/>
    <path d="M-439.3 -617.05 L-436.85 -619.1 Q-435.3 -620.15 -434.0 -620.55 L-432.45 -620.6 Q-432.15 -620.2 -433.05 -619.15 -433.95 -618.1 -435.5 -617.05 -437.05 -616.0 -438.35 -615.65 L-439.95 -615.6 Q-440.2 -616.0 -439.3 -617.05 Z" fill="none" stroke="#5fd6ff" stroke-linecap="round" stroke-linejoin="round" stroke-opacity="0.0" stroke-width="3.0"/>
    <path d="M-456.95 -619.9 Q-456.15 -621.2 -454.5 -622.3 -452.85 -623.4 -451.3 -623.6 -449.75 -623.8 -449.25 -623.05 -448.75 -622.3 -449.6 -620.95 -450.35 -619.6 -452.0 -618.5 -453.65 -617.4 -455.25 -617.25 -456.75 -617.0 -457.25 -617.75 -457.75 -618.5 -456.95 -619.9" fill="#ffffff" fill-opacity="0.0" fill-rule="evenodd" stroke="none"/>
    <path d="M-456.95 -619.9 Q-456.15 -621.2 -454.5 -622.3 -452.85 -623.4 -451.3 -623.6 -449.75 -623.8 -449.25 -623.05 -448.75 -622.3 -449.6 -620.95 -450.35 -619.6 -452.0 -618.5 -453.65 -617.4 -455.25 -617.25 -456.75 -617.0 -457.25 -617.75 -457.75 -618.5 -456.95 -619.9 Z" fill="none" stroke="#5fd6ff" stroke-linecap="round" stroke-linejoin="round" stroke-opacity="0.0" stroke-width="3.0"/>
    <path d="M-417.9 -586.8 Q-416.8 -588.1 -414.9 -589.35 -413.0 -590.6 -411.4 -591.1 L-409.45 -591.15 Q-409.15 -590.65 -410.25 -589.35 L-413.25 -586.85 Q-415.15 -585.6 -416.75 -585.05 -418.35 -584.55 -418.65 -585.05 -419.0 -585.55 -417.9 -586.8" fill="#ffffff" fill-opacity="0.0" fill-rule="evenodd" stroke="none"/>
    <path d="M-417.9 -586.8 Q-416.8 -588.1 -414.9 -589.35 -413.0 -590.6 -411.4 -591.1 L-409.45 -591.15 Q-409.15 -590.65 -410.25 -589.35 L-413.25 -586.85 Q-415.15 -585.6 -416.75 -585.05 -418.35 -584.55 -418.65 -585.05 -419.0 -585.55 -417.9 -586.8 Z" fill="none" stroke="#5fd6ff" stroke-linecap="round" stroke-linejoin="round" stroke-opacity="0.0" stroke-width="3.0"/>
    <path d="M-399.5 -612.9 Q-397.75 -614.85 -394.7 -616.9 -391.65 -618.9 -389.1 -619.75 L-386.05 -619.8 Q-385.5 -619.0 -387.25 -616.95 -389.0 -614.95 -392.05 -612.95 -395.1 -610.9 -397.65 -610.1 -400.2 -609.3 -400.75 -610.1 -401.25 -610.9 -399.5 -612.9" fill="#ffffff" fill-opacity="0.0" fill-rule="evenodd" stroke="none"/>
    <path d="M-399.5 -612.9 Q-397.75 -614.85 -394.7 -616.9 -391.65 -618.9 -389.1 -619.75 L-386.05 -619.8 Q-385.5 -619.0 -387.25 -616.95 -389.0 -614.95 -392.05 -612.95 -395.1 -610.9 -397.65 -610.1 -400.2 -609.3 -400.75 -610.1 -401.25 -610.9 -399.5 -612.9 Z" fill="none" stroke="#5fd6ff" stroke-linecap="round" stroke-linejoin="round" stroke-opacity="0.0" stroke-width="3.0"/>
    <path d="M-448.8 -637.15 Q-447.75 -638.95 -445.55 -640.4 -443.3 -641.85 -441.25 -642.1 -439.2 -642.4 -438.55 -641.4 -437.85 -640.4 -438.95 -638.6 -440.0 -636.85 -442.25 -635.4 -444.45 -633.95 -446.5 -633.65 -448.5 -633.35 -449.2 -634.35 -449.85 -635.35 -448.8 -637.15" fill="#ffffff" fill-opacity="0.0" fill-rule="evenodd" stroke="none"/>
    <path d="M-448.8 -637.15 Q-447.75 -638.95 -445.55 -640.4 -443.3 -641.85 -441.25 -642.1 -439.2 -642.4 -438.55 -641.4 -437.85 -640.4 -438.95 -638.6 -440.0 -636.85 -442.25 -635.4 -444.45 -633.95 -446.5 -633.65 -448.5 -633.35 -449.2 -634.35 -449.85 -635.35 -448.8 -637.15 Z" fill="none" stroke="#5fd6ff" stroke-linecap="round" stroke-linejoin="round" stroke-opacity="0.0" stroke-width="3.0"/>
    <path d="M-421.95 -622.5 Q-420.2 -624.45 -417.15 -626.5 -414.1 -628.5 -411.55 -629.35 L-408.5 -629.4 Q-407.95 -628.6 -409.7 -626.55 -411.45 -624.55 -414.5 -622.55 -417.55 -620.5 -420.1 -619.7 -422.65 -618.9 -423.2 -619.7 -423.7 -620.5 -421.95 -622.5" fill="#ffffff" fill-opacity="0.0" fill-rule="evenodd" stroke="none"/>
    <path d="M-421.95 -622.5 Q-420.2 -624.45 -417.15 -626.5 -414.1 -628.5 -411.55 -629.35 L-408.5 -629.4 Q-407.95 -628.6 -409.7 -626.55 -411.45 -624.55 -414.5 -622.55 -417.55 -620.5 -420.1 -619.7 -422.65 -618.9 -423.2 -619.7 -423.7 -620.5 -421.95 -622.5 Z" fill="none" stroke="#5fd6ff" stroke-linecap="round" stroke-linejoin="round" stroke-opacity="0.0" stroke-width="3.0"/>
    <path d="M-404.7 -624.1 L-401.7 -626.65 Q-399.8 -627.9 -398.2 -628.4 L-396.25 -628.45 Q-395.95 -627.95 -397.05 -626.65 -398.15 -625.4 -400.05 -624.15 -401.95 -622.9 -403.55 -622.35 -405.15 -621.85 -405.45 -622.35 -405.8 -622.85 -404.7 -624.1" fill="#ffffff" fill-opacity="0.0" fill-rule="evenodd" stroke="none"/>
    <path d="M-404.7 -624.1 L-401.7 -626.65 Q-399.8 -627.9 -398.2 -628.4 L-396.25 -628.45 Q-395.95 -627.95 -397.05 -626.65 -398.15 -625.4 -400.05 -624.15 -401.95 -622.9 -403.55 -622.35 -405.15 -621.85 -405.45 -622.35 -405.8 -622.85 -404.7 -624.1 Z" fill="none" stroke="#5fd6ff" stroke-linecap="round" stroke-linejoin="round" stroke-opacity="0.0" stroke-width="3.0"/>
    <path d="M-422.3 -605.05 L-419.3 -607.6 Q-417.4 -608.85 -415.8 -609.35 L-413.85 -609.4 Q-413.55 -608.9 -414.65 -607.6 -415.75 -606.35 -417.65 -605.1 -419.55 -603.85 -421.15 -603.3 -422.75 -602.8 -423.05 -603.3 -423.4 -603.8 -422.3 -605.05" fill="#ffffff" fill-opacity="0.0" fill-rule="evenodd" stroke="none"/>
    <path d="M-422.3 -605.05 L-419.3 -607.6 Q-417.4 -608.85 -415.8 -609.35 L-413.85 -609.4 Q-413.55 -608.9 -414.65 -607.6 -415.75 -606.35 -417.65 -605.1 -419.55 -603.85 -421.15 -603.3 -422.75 -602.8 -423.05 -603.3 -423.4 -603.8 -422.3 -605.05 Z" fill="none" stroke="#5fd6ff" stroke-linecap="round" stroke-linejoin="round" stroke-opacity="0.0" stroke-width="3.0"/>
    <path d="M-426.0 -643.8 Q-424.95 -645.6 -422.75 -647.05 -420.5 -648.5 -418.45 -648.75 -416.4 -649.05 -415.75 -648.05 -415.05 -647.05 -416.15 -645.25 -417.2 -643.5 -419.45 -642.05 -421.65 -640.6 -423.7 -640.3 -425.7 -640.0 -426.4 -641.0 -427.05 -642.0 -426.0 -643.8" fill="#ffffff" fill-opacity="0.0" fill-rule="evenodd" stroke="none"/>
    <path d="M-426.0 -643.8 Q-424.95 -645.6 -422.75 -647.05 -420.5 -648.5 -418.45 -648.75 -416.4 -649.05 -415.75 -648.05 -415.05 -647.05 -416.15 -645.25 -417.2 -643.5 -419.45 -642.05 -421.65 -640.6 -423.7 -640.3 -425.7 -640.0 -426.4 -641.0 -427.05 -642.0 -426.0 -643.8 Z" fill="none" stroke="#5fd6ff" stroke-linecap="round" stroke-linejoin="round" stroke-opacity="0.0" stroke-width="3.0"/>
    <path d="M-439.3 -617.05 L-436.85 -619.1 Q-435.3 -620.15 -434.0 -620.55 L-432.45 -620.6 Q-432.15 -620.2 -433.05 -619.15 -433.95 -618.1 -435.5 -617.05 -437.05 -616.0 -438.35 -615.65 L-439.95 -615.6 Q-440.2 -616.0 -439.3 -617.05" fill="#ffffff" fill-opacity="0.0" fill-rule="evenodd" stroke="none"/>
    <path d="M-439.3 -617.05 L-436.85 -619.1 Q-435.3 -620.15 -434.0 -620.55 L-432.45 -620.6 Q-432.15 -620.2 -433.05 -619.15 -433.95 -618.1 -435.5 -617.05 -437.05 -616.0 -438.35 -615.65 L-439.95 -615.6 Q-440.2 -616.0 -439.3 -617.05 Z" fill="none" stroke="#5fd6ff" stroke-linecap="round" stroke-linejoin="round" stroke-opacity="0.0" stroke-width="3.0"/>
    <path d="M-456.95 -619.9 Q-456.15 -621.2 -454.5 -622.3 -452.85 -623.4 -451.3 -623.6 -449.75 -623.8 -449.25 -623.05 -448.75 -622.3 -449.6 -620.95 -450.35 -619.6 -452.0 -618.5 -453.65 -617.4 -455.25 -617.25 -456.75 -617.0 -457.25 -617.75 -457.75 -618.5 -456.95 -619.9" fill="#ffffff" fill-opacity="0.0" fill-rule="evenodd" stroke="none"/>
    <path d="M-456.95 -619.9 Q-456.15 -621.2 -454.5 -622.3 -452.85 -623.4 -451.3 -623.6 -449.75 -623.8 -449.25 -623.05 -448.75 -622.3 -449.6 -620.95 -450.35 -619.6 -452.0 -618.5 -453.65 -617.4 -455.25 -617.25 -456.75 -617.0 -457.25 -617.75 -457.75 -618.5 -456.95 -619.9 Z" fill="none" stroke="#5fd6ff" stroke-linecap="round" stroke-linejoin="round" stroke-opacity="0.0" stroke-width="3.0"/>
    <path d="M-417.9 -586.8 Q-416.8 -588.1 -414.9 -589.35 -413.0 -590.6 -411.4 -591.1 L-409.45 -591.15 Q-409.15 -590.65 -410.25 -589.35 L-413.25 -586.85 Q-415.15 -585.6 -416.75 -585.05 -418.35 -584.55 -418.65 -585.05 -419.0 -585.55 -417.9 -586.8" fill="#ffffff" fill-opacity="0.0" fill-rule="evenodd" stroke="none"/>
    <path d="M-417.9 -586.8 Q-416.8 -588.1 -414.9 -589.35 -413.0 -590.6 -411.4 -591.1 L-409.45 -591.15 Q-409.15 -590.65 -410.25 -589.35 L-413.25 -586.85 Q-415.15 -585.6 -416.75 -585.05 -418.35 -584.55 -418.65 -585.05 -419.0 -585.55 -417.9 -586.8 Z" fill="none" stroke="#5fd6ff" stroke-linecap="round" stroke-linejoin="round" stroke-opacity="0.0" stroke-width="3.0"/>
    <path d="M-399.5 -612.9 Q-397.75 -614.85 -394.7 -616.9 -391.65 -618.9 -389.1 -619.75 L-386.05 -619.8 Q-385.5 -619.0 -387.25 -616.95 -389.0 -614.95 -392.05 -612.95 -395.1 -610.9 -397.65 -610.1 -400.2 -609.3 -400.75 -610.1 -401.25 -610.9 -399.5 -612.9" fill="#ffffff" fill-opacity="0.0" fill-rule="evenodd" stroke="none"/>
    <path d="M-399.5 -612.9 Q-397.75 -614.85 -394.7 -616.9 -391.65 -618.9 -389.1 -619.75 L-386.05 -619.8 Q-385.5 -619.0 -387.25 -616.95 -389.0 -614.95 -392.05 -612.95 -395.1 -610.9 -397.65 -610.1 -400.2 -609.3 -400.75 -610.1 -401.25 -610.9 -399.5 -612.9 Z" fill="none" stroke="#5fd6ff" stroke-linecap="round" stroke-linejoin="round" stroke-opacity="0.0" stroke-width="3.0"/>
    <path d="M-448.8 -637.15 Q-447.75 -638.95 -445.55 -640.4 -443.3 -641.85 -441.25 -642.1 -439.2 -642.4 -438.55 -641.4 -437.85 -640.4 -438.95 -638.6 -440.0 -636.85 -442.25 -635.4 -444.45 -633.95 -446.5 -633.65 -448.5 -633.35 -449.2 -634.35 -449.85 -635.35 -448.8 -637.15" fill="#ffffff" fill-opacity="0.0" fill-rule="evenodd" stroke="none"/>
    <path d="M-448.8 -637.15 Q-447.75 -638.95 -445.55 -640.4 -443.3 -641.85 -441.25 -642.1 -439.2 -642.4 -438.55 -641.4 -437.85 -640.4 -438.95 -638.6 -440.0 -636.85 -442.25 -635.4 -444.45 -633.95 -446.5 -633.65 -448.5 -633.35 -449.2 -634.35 -449.85 -635.35 -448.8 -637.15 Z" fill="none" stroke="#5fd6ff" stroke-linecap="round" stroke-linejoin="round" stroke-opacity="0.0" stroke-width="3.0"/>
    <path d="M-381.9 -587.95 Q-380.15 -589.9 -377.1 -591.95 -374.05 -593.95 -371.5 -594.8 L-368.45 -594.85 Q-367.9 -594.05 -369.65 -592.0 -371.4 -590.0 -374.45 -588.0 -377.5 -585.95 -380.05 -585.15 -382.6 -584.35 -383.15 -585.15 -383.65 -585.95 -381.9 -587.95" fill="#ffffff" fill-opacity="0.0" fill-rule="evenodd" stroke="none"/>
    <path d="M-381.9 -587.95 Q-380.15 -589.9 -377.1 -591.95 -374.05 -593.95 -371.5 -594.8 L-368.45 -594.85 Q-367.9 -594.05 -369.65 -592.0 -371.4 -590.0 -374.45 -588.0 -377.5 -585.95 -380.05 -585.15 -382.6 -584.35 -383.15 -585.15 -383.65 -585.95 -381.9 -587.95 Z" fill="none" stroke="#5fd6ff" stroke-linecap="round" stroke-linejoin="round" stroke-opacity="0.0" stroke-width="3.0"/>
    <path d="M-364.65 -589.55 Q-363.55 -590.85 -361.65 -592.1 -359.75 -593.35 -358.15 -593.85 L-356.2 -593.9 Q-355.9 -593.4 -357.0 -592.1 -358.1 -590.85 -360.0 -589.6 -361.9 -588.35 -363.5 -587.8 -365.1 -587.3 -365.4 -587.8 -365.75 -588.3 -364.65 -589.55" fill="#ffffff" fill-opacity="0.0" fill-rule="evenodd" stroke="none"/>
    <path d="M-364.65 -589.55 Q-363.55 -590.85 -361.65 -592.1 -359.75 -593.35 -358.15 -593.85 L-356.2 -593.9 Q-355.9 -593.4 -357.0 -592.1 -358.1 -590.85 -360.0 -589.6 -361.9 -588.35 -363.5 -587.8 -365.1 -587.3 -365.4 -587.8 -365.75 -588.3 -364.65 -589.55 Z" fill="none" stroke="#5fd6ff" stroke-linecap="round" stroke-linejoin="round" stroke-opacity="0.0" stroke-width="3.0"/>
    <path d="M-382.25 -570.5 Q-381.15 -571.8 -379.25 -573.05 -377.35 -574.3 -375.75 -574.8 L-373.8 -574.85 Q-373.5 -574.35 -374.6 -573.05 -375.7 -571.8 -377.6 -570.55 -379.5 -569.3 -381.1 -568.75 -382.7 -568.25 -383.0 -568.75 -383.35 -569.25 -382.25 -570.5" fill="#ffffff" fill-opacity="0.0" fill-rule="evenodd" stroke="none"/>
    <path d="M-382.25 -570.5 Q-381.15 -571.8 -379.25 -573.05 -377.35 -574.3 -375.75 -574.8 L-373.8 -574.85 Q-373.5 -574.35 -374.6 -573.05 -375.7 -571.8 -377.6 -570.55 -379.5 -569.3 -381.1 -568.75 -382.7 -568.25 -383.0 -568.75 -383.35 -569.25 -382.25 -570.5 Z" fill="none" stroke="#5fd6ff" stroke-linecap="round" stroke-linejoin="round" stroke-opacity="0.0" stroke-width="3.0"/>
    <path d="M-385.95 -609.25 Q-384.9 -611.05 -382.7 -612.5 -380.45 -613.95 -378.4 -614.2 -376.35 -614.5 -375.7 -613.5 -375.0 -612.5 -376.1 -610.7 -377.15 -608.95 -379.4 -607.5 -381.6 -606.05 -383.65 -605.75 -385.65 -605.45 -386.35 -606.45 -387.0 -607.45 -385.95 -609.25" fill="#ffffff" fill-opacity="0.0" fill-rule="evenodd" stroke="none"/>
    <path d="M-385.95 -609.25 Q-384.9 -611.05 -382.7 -612.5 -380.45 -613.95 -378.4 -614.2 -376.35 -614.5 -375.7 -613.5 -375.0 -612.5 -376.1 -610.7 -377.15 -608.95 -379.4 -607.5 -381.6 -606.05 -383.65 -605.75 -385.65 -605.45 -386.35 -606.45 -387.0 -607.45 -385.95 -609.25 Z" fill="none" stroke="#5fd6ff" stroke-linecap="round" stroke-linejoin="round" stroke-opacity="0.0" stroke-width="3.0"/>
    <path d="M-399.25 -582.5 L-396.8 -584.55 Q-395.25 -585.6 -393.95 -586.0 L-392.4 -586.05 Q-392.1 -585.65 -393.0 -584.6 -393.9 -583.55 -395.45 -582.5 -397.0 -581.45 -398.3 -581.1 L-399.9 -581.05 Q-400.15 -581.45 -399.25 -582.5" fill="#ffffff" fill-opacity="0.0" fill-rule="evenodd" stroke="none"/>
    <path d="M-399.25 -582.5 L-396.8 -584.55 Q-395.25 -585.6 -393.95 -586.0 L-392.4 -586.05 Q-392.1 -585.65 -393.0 -584.6 -393.9 -583.55 -395.45 -582.5 -397.0 -581.45 -398.3 -581.1 L-399.9 -581.05 Q-400.15 -581.45 -399.25 -582.5 Z" fill="none" stroke="#5fd6ff" stroke-linecap="round" stroke-linejoin="round" stroke-opacity="0.0" stroke-width="3.0"/>
    <path d="M-416.9 -585.35 Q-416.1 -586.65 -414.45 -587.75 -412.8 -588.85 -411.25 -589.05 -409.7 -589.25 -409.2 -588.5 -408.7 -587.75 -409.55 -586.4 -410.3 -585.05 -411.95 -583.95 -413.6 -582.85 -415.2 -582.7 -416.7 -582.45 -417.2 -583.2 -417.7 -583.95 -416.9 -585.35" fill="#ffffff" fill-opacity="0.0" fill-rule="evenodd" stroke="none"/>
    <path d="M-416.9 -585.35 Q-416.1 -586.65 -414.45 -587.75 -412.8 -588.85 -411.25 -589.05 -409.7 -589.25 -409.2 -588.5 -408.7 -587.75 -409.55 -586.4 -410.3 -585.05 -411.95 -583.95 -413.6 -582.85 -415.2 -582.7 -416.7 -582.45 -417.2 -583.2 -417.7 -583.95 -416.9 -585.35 Z" fill="none" stroke="#5fd6ff" stroke-linecap="round" stroke-linejoin="round" stroke-opacity="0.0" stroke-width="3.0"/>
    <path d="M-377.85 -552.25 Q-376.75 -553.55 -374.85 -554.8 -372.95 -556.05 -371.35 -556.55 L-369.4 -556.6 Q-369.1 -556.1 -370.2 -554.8 -371.3 -553.55 -373.2 -552.3 -375.1 -551.05 -376.7 -550.5 -378.3 -550.0 -378.6 -550.5 -378.95 -551.0 -377.85 -552.25" fill="#ffffff" fill-opacity="0.0" fill-rule="evenodd" stroke="none"/>
    <path d="M-377.85 -552.25 Q-376.75 -553.55 -374.85 -554.8 -372.95 -556.05 -371.35 -556.55 L-369.4 -556.6 Q-369.1 -556.1 -370.2 -554.8 -371.3 -553.55 -373.2 -552.3 -375.1 -551.05 -376.7 -550.5 -378.3 -550.0 -378.6 -550.5 -378.95 -551.0 -377.85 -552.25 Z" fill="none" stroke="#5fd6ff" stroke-linecap="round" stroke-linejoin="round" stroke-opacity="0.0" stroke-width="3.0"/>
    <path d="M-359.45 -578.35 Q-357.7 -580.3 -354.65 -582.35 -351.6 -584.35 -349.05 -585.2 L-346.0 -585.25 Q-345.45 -584.45 -347.2 -582.4 -348.95 -580.4 -352.0 -578.4 -355.05 -576.35 -357.6 -575.55 -360.15 -574.75 -360.7 -575.55 -361.2 -576.35 -359.45 -578.35" fill="#ffffff" fill-opacity="0.0" fill-rule="evenodd" stroke="none"/>
    <path d="M-359.45 -578.35 Q-357.7 -580.3 -354.65 -582.35 -351.6 -584.35 -349.05 -585.2 L-346.0 -585.25 Q-345.45 -584.45 -347.2 -582.4 -348.95 -580.4 -352.0 -578.4 -355.05 -576.35 -357.6 -575.55 -360.15 -574.75 -360.7 -575.55 -361.2 -576.35 -359.45 -578.35 Z" fill="none" stroke="#5fd6ff" stroke-linecap="round" stroke-linejoin="round" stroke-opacity="0.0" stroke-width="3.0"/>
    <path d="M-408.75 -602.6 Q-407.7 -604.4 -405.5 -605.85 -403.25 -607.3 -401.2 -607.55 -399.15 -607.85 -398.5 -606.85 -397.8 -605.85 -398.9 -604.05 -399.95 -602.3 -402.2 -600.85 -404.4 -599.4 -406.45 -599.1 -408.45 -598.8 -409.15 -599.8 -409.8 -600.8 -408.75 -602.6" fill="#ffffff" fill-opacity="0.0" fill-rule="evenodd" stroke="none"/>
    <path d="M-408.75 -602.6 Q-407.7 -604.4 -405.5 -605.85 -403.25 -607.3 -401.2 -607.55 -399.15 -607.85 -398.5 -606.85 -397.8 -605.85 -398.9 -604.05 -399.95 -602.3 -402.2 -600.85 -404.4 -599.4 -406.45 -599.1 -408.45 -598.8 -409.15 -599.8 -409.8 -600.8 -408.75 -602.6 Z" fill="none" stroke="#5fd6ff" stroke-linecap="round" stroke-linejoin="round" stroke-opacity="0.0" stroke-width="3.0"/>
    <path d="M-381.9 -587.95 Q-380.15 -589.9 -377.1 -591.95 -374.05 -593.95 -371.5 -594.8 L-368.45 -594.85 Q-367.9 -594.05 -369.65 -592.0 -371.4 -590.0 -374.45 -588.0 -377.5 -585.95 -380.05 -585.15 -382.6 -584.35 -383.15 -585.15 -383.65 -585.95 -381.9 -587.95" fill="#ffffff" fill-opacity="0.0" fill-rule="evenodd" stroke="none"/>
    <path d="M-381.9 -587.95 Q-380.15 -589.9 -377.1 -591.95 -374.05 -593.95 -371.5 -594.8 L-368.45 -594.85 Q-367.9 -594.05 -369.65 -592.0 -371.4 -590.0 -374.45 -588.0 -377.5 -585.95 -380.05 -585.15 -382.6 -584.35 -383.15 -585.15 -383.65 -585.95 -381.9 -587.95 Z" fill="none" stroke="#5fd6ff" stroke-linecap="round" stroke-linejoin="round" stroke-opacity="0.0" stroke-width="3.0"/>
    <path d="M-364.65 -589.55 Q-363.55 -590.85 -361.65 -592.1 -359.75 -593.35 -358.15 -593.85 L-356.2 -593.9 Q-355.9 -593.4 -357.0 -592.1 -358.1 -590.85 -360.0 -589.6 -361.9 -588.35 -363.5 -587.8 -365.1 -587.3 -365.4 -587.8 -365.75 -588.3 -364.65 -589.55" fill="#ffffff" fill-opacity="0.0" fill-rule="evenodd" stroke="none"/>
    <path d="M-364.65 -589.55 Q-363.55 -590.85 -361.65 -592.1 -359.75 -593.35 -358.15 -593.85 L-356.2 -593.9 Q-355.9 -593.4 -357.0 -592.1 -358.1 -590.85 -360.0 -589.6 -361.9 -588.35 -363.5 -587.8 -365.1 -587.3 -365.4 -587.8 -365.75 -588.3 -364.65 -589.55 Z" fill="none" stroke="#5fd6ff" stroke-linecap="round" stroke-linejoin="round" stroke-opacity="0.0" stroke-width="3.0"/>
    <path d="M-382.25 -570.5 Q-381.15 -571.8 -379.25 -573.05 -377.35 -574.3 -375.75 -574.8 L-373.8 -574.85 Q-373.5 -574.35 -374.6 -573.05 -375.7 -571.8 -377.6 -570.55 -379.5 -569.3 -381.1 -568.75 -382.7 -568.25 -383.0 -568.75 -383.35 -569.25 -382.25 -570.5" fill="#ffffff" fill-opacity="0.0" fill-rule="evenodd" stroke="none"/>
    <path d="M-382.25 -570.5 Q-381.15 -571.8 -379.25 -573.05 -377.35 -574.3 -375.75 -574.8 L-373.8 -574.85 Q-373.5 -574.35 -374.6 -573.05 -375.7 -571.8 -377.6 -570.55 -379.5 -569.3 -381.1 -568.75 -382.7 -568.25 -383.0 -568.75 -383.35 -569.25 -382.25 -570.5 Z" fill="none" stroke="#5fd6ff" stroke-linecap="round" stroke-linejoin="round" stroke-opacity="0.0" stroke-width="3.0"/>
    <path d="M-385.95 -609.25 Q-384.9 -611.05 -382.7 -612.5 -380.45 -613.95 -378.4 -614.2 -376.35 -614.5 -375.7 -613.5 -375.0 -612.5 -376.1 -610.7 -377.15 -608.95 -379.4 -607.5 -381.6 -606.05 -383.65 -605.75 -385.65 -605.45 -386.35 -606.45 -387.0 -607.45 -385.95 -609.25" fill="#ffffff" fill-opacity="0.0" fill-rule="evenodd" stroke="none"/>
    <path d="M-385.95 -609.25 Q-384.9 -611.05 -382.7 -612.5 -380.45 -613.95 -378.4 -614.2 -376.35 -614.5 -375.7 -613.5 -375.0 -612.5 -376.1 -610.7 -377.15 -608.95 -379.4 -607.5 -381.6 -606.05 -383.65 -605.75 -385.65 -605.45 -386.35 -606.45 -387.0 -607.45 -385.95 -609.25 Z" fill="none" stroke="#5fd6ff" stroke-linecap="round" stroke-linejoin="round" stroke-opacity="0.0" stroke-width="3.0"/>
    <path d="M-399.25 -582.5 L-396.8 -584.55 Q-395.25 -585.6 -393.95 -586.0 L-392.4 -586.05 Q-392.1 -585.65 -393.0 -584.6 -393.9 -583.55 -395.45 -582.5 -397.0 -581.45 -398.3 -581.1 L-399.9 -581.05 Q-400.15 -581.45 -399.25 -582.5" fill="#ffffff" fill-opacity="0.0" fill-rule="evenodd" stroke="none"/>
    <path d="M-399.25 -582.5 L-396.8 -584.55 Q-395.25 -585.6 -393.95 -586.0 L-392.4 -586.05 Q-392.1 -585.65 -393.0 -584.6 -393.9 -583.55 -395.45 -582.5 -397.0 -581.45 -398.3 -581.1 L-399.9 -581.05 Q-400.15 -581.45 -399.25 -582.5 Z" fill="none" stroke="#5fd6ff" stroke-linecap="round" stroke-linejoin="round" stroke-opacity="0.0" stroke-width="3.0"/>
    <path d="M-416.9 -585.35 Q-416.1 -586.65 -414.45 -587.75 -412.8 -588.85 -411.25 -589.05 -409.7 -589.25 -409.2 -588.5 -408.7 -587.75 -409.55 -586.4 -410.3 -585.05 -411.95 -583.95 -413.6 -582.85 -415.2 -582.7 -416.7 -582.45 -417.2 -583.2 -417.7 -583.95 -416.9 -585.35" fill="#ffffff" fill-opacity="0.0" fill-rule="evenodd" stroke="none"/>
    <path d="M-416.9 -585.35 Q-416.1 -586.65 -414.45 -587.75 -412.8 -588.85 -411.25 -589.05 -409.7 -589.25 -409.2 -588.5 -408.7 -587.75 -409.55 -586.4 -410.3 -585.05 -411.95 -583.95 -413.6 -582.85 -415.2 -582.7 -416.7 -582.45 -417.2 -583.2 -417.7 -583.95 -416.9 -585.35 Z" fill="none" stroke="#5fd6ff" stroke-linecap="round" stroke-linejoin="round" stroke-opacity="0.0" stroke-width="3.0"/>
    <path d="M-377.85 -552.25 Q-376.75 -553.55 -374.85 -554.8 -372.95 -556.05 -371.35 -556.55 L-369.4 -556.6 Q-369.1 -556.1 -370.2 -554.8 -371.3 -553.55 -373.2 -552.3 -375.1 -551.05 -376.7 -550.5 -378.3 -550.0 -378.6 -550.5 -378.95 -551.0 -377.85 -552.25" fill="#ffffff" fill-opacity="0.0" fill-rule="evenodd" stroke="none"/>
    <path d="M-377.85 -552.25 Q-376.75 -553.55 -374.85 -554.8 -372.95 -556.05 -371.35 -556.55 L-369.4 -556.6 Q-369.1 -556.1 -370.2 -554.8 -371.3 -553.55 -373.2 -552.3 -375.1 -551.05 -376.7 -550.5 -378.3 -550.0 -378.6 -550.5 -378.95 -551.0 -377.85 -552.25 Z" fill="none" stroke="#5fd6ff" stroke-linecap="round" stroke-linejoin="round" stroke-opacity="0.0" stroke-width="3.0"/>
    <path d="M-359.45 -578.35 Q-357.7 -580.3 -354.65 -582.35 -351.6 -584.35 -349.05 -585.2 L-346.0 -585.25 Q-345.45 -584.45 -347.2 -582.4 -348.95 -580.4 -352.0 -578.4 -355.05 -576.35 -357.6 -575.55 -360.15 -574.75 -360.7 -575.55 -361.2 -576.35 -359.45 -578.35" fill="#ffffff" fill-opacity="0.0" fill-rule="evenodd" stroke="none"/>
    <path d="M-359.45 -578.35 Q-357.7 -580.3 -354.65 -582.35 -351.6 -584.35 -349.05 -585.2 L-346.0 -585.25 Q-345.45 -584.45 -347.2 -582.4 -348.95 -580.4 -352.0 -578.4 -355.05 -576.35 -357.6 -575.55 -360.15 -574.75 -360.7 -575.55 -361.2 -576.35 -359.45 -578.35 Z" fill="none" stroke="#5fd6ff" stroke-linecap="round" stroke-linejoin="round" stroke-opacity="0.0" stroke-width="3.0"/>
    <path d="M-408.75 -602.6 Q-407.7 -604.4 -405.5 -605.85 -403.25 -607.3 -401.2 -607.55 -399.15 -607.85 -398.5 -606.85 -397.8 -605.85 -398.9 -604.05 -399.95 -602.3 -402.2 -600.85 -404.4 -599.4 -406.45 -599.1 -408.45 -598.8 -409.15 -599.8 -409.8 -600.8 -408.75 -602.6" fill="#ffffff" fill-opacity="0.0" fill-rule="evenodd" stroke="none"/>
    <path d="M-408.75 -602.6 Q-407.7 -604.4 -405.5 -605.85 -403.25 -607.3 -401.2 -607.55 -399.15 -607.85 -398.5 -606.85 -397.8 -605.85 -398.9 -604.05 -399.95 -602.3 -402.2 -600.85 -404.4 -599.4 -406.45 -599.1 -408.45 -598.8 -409.15 -599.8 -409.8 -600.8 -408.75 -602.6 Z" fill="none" stroke="#5fd6ff" stroke-linecap="round" stroke-linejoin="round" stroke-opacity="0.0" stroke-width="3.0"/>
  </g>
</svg>
