<?xml version="1.0" encoding="UTF-8" standalone="no"?>
<svg xmlns:xlink="http://www.w3.org/1999/xlink" height="31.95px" width="32.0px" xmlns="http://www.w3.org/2000/svg">
  <g transform="matrix(1.0, 0.0, 0.0, 1.0, 16.0, 16.0)">
    <path d="M0.0 -14.5 Q6.0 -14.5 10.25 -10.25 14.5 -6.0 14.5 -0.05 14.5 5.95 10.25 10.2 6.0 14.45 0.0 14.45 -6.0 14.45 -10.25 10.2 -14.5 5.95 -14.5 -0.05 -14.5 -6.0 -10.25 -10.25 -6.0 -14.5 0.0 -14.5" fill="#ffa58c" fill-rule="evenodd" stroke="none"/>
    <path d="M0.0 -14.5 Q6.0 -14.5 10.25 -10.25 14.5 -6.0 14.5 -0.05 14.5 5.95 10.25 10.2 6.0 14.45 0.0 14.45 -6.0 14.45 -10.25 10.2 -14.5 5.95 -14.5 -0.05 -14.5 -6.0 -10.25 -10.25 -6.0 -14.5 0.0 -14.5 Z" fill="none" stroke="#27313f" stroke-linecap="round" stroke-linejoin="round" stroke-width="3.0"/>
    <path d="M10.25 -10.25 Q14.5 -6.0 14.5 -0.05 14.5 5.95 10.25 10.2 6.0 14.45 0.0 14.45 -6.0 14.45 -10.25 10.2 -14.5 5.95 -14.5 -0.05 -14.5 -6.0 -10.25 -10.25 -6.0 -14.5 0.0 -14.5 6.0 -14.5 10.25 -10.25" fill="#3b4758" fill-rule="evenodd" stroke="none"/>
  </g>
</svg>
