<?xml version="1.0" encoding="UTF-8" standalone="no"?>
<svg xmlns:xlink="http://www.w3.org/1999/xlink" height="31.9px" width="40.8px" xmlns="http://www.w3.org/2000/svg">
  <g transform="matrix(1.0, 0.0, 0.0, 1.0, 21.0, -10.7)">
    <path d="M5.05 15.4 Q4.15 13.55 4.55 12.8 L6.9 12.85 9.05 14.0 5.9 10.7 10.2 10.7 19.8 24.3 Q17.4 22.25 15.1 20.9 10.85 18.45 10.2 20.65 9.35 22.95 11.5 28.65 12.75 31.85 14.35 34.9 12.2 31.45 9.25 28.5 4.4 23.35 -0.3 23.35 -5.1 23.35 -8.15 31.6 -9.95 36.6 -10.95 42.6 -10.05 36.15 -9.5 30.5 -8.7 21.35 -9.55 19.55 -10.55 17.8 -15.4 20.9 L-21.0 25.15 -10.6 10.7 -6.65 10.7 -10.2 14.25 -7.6 12.85 Q-5.35 11.8 -4.85 12.4 -4.4 13.0 -4.75 16.05 L-5.3 19.9 Q-4.9 18.0 -4.1 16.4 -2.7 13.65 -0.5 13.65 1.75 13.65 4.05 15.35 L6.4 17.45 5.05 15.4" fill="#f73600" fill-rule="evenodd" stroke="none"/>
  </g>
</svg>
