<?xml version="1.0" encoding="UTF-8" standalone="no"?>
<svg xmlns:xlink="http://www.w3.org/1999/xlink" height="5.95px" width="3.5px" xmlns="http://www.w3.org/2000/svg">
  <g transform="matrix(1.0, 0.0, 0.0, 1.0, 1.75, 2.95)">
    <path d="M1.25 -1.65 L1.25 1.75 0.9 2.25 0.0 2.5 -0.85 2.25 -1.25 1.75 -1.25 -1.65 Q-1.25 -2.0 -0.85 -2.2 L0.0 -2.45 0.9 -2.2 1.25 -1.65" fill="#ffffff" fill-rule="evenodd" stroke="none"/>
    <path d="M1.25 -1.65 L1.25 1.75 0.9 2.25 0.0 2.5 -0.85 2.25 -1.25 1.75 -1.25 -1.65 Q-1.25 -2.0 -0.85 -2.2 L0.0 -2.45 0.9 -2.2 1.25 -1.65 Z" fill="none" stroke="#856301" stroke-linecap="round" stroke-linejoin="round" stroke-width="1.0"/>
    <path d="M1.25 1.75 L-1.25 1.75 -1.25 -1.65 Q-1.25 -2.0 -0.85 -2.2 L0.0 -2.45 0.9 -2.2 1.25 -1.65 1.25 1.75" fill="#ffcc33" fill-rule="evenodd" stroke="none"/>
    <path d="M0.85 2.25 L-0.05 2.5 -0.9 2.25 -1.3 1.7 Q-1.3 1.4 -0.9 1.15 -0.55 0.9 -0.05 0.9 L0.85 1.15 1.2 1.7 0.85 2.25" fill="#cd960d" fill-rule="evenodd" stroke="none"/>
    <path d="M0.95 -2.2 L0.95 1.55 0.75 1.55 0.75 -2.3 0.9 -2.2 0.95 -2.2 M0.65 -2.35 L0.65 1.55 0.25 1.55 0.25 -2.4 0.65 -2.35" fill="#cd960d" fill-rule="evenodd" stroke="none"/>
    <path d="M0.6 2.05 L0.0 2.2 -0.55 2.05 -0.8 1.75 -0.55 1.45 0.0 1.3 0.6 1.45 0.85 1.75 0.6 2.05" fill="#856301" fill-rule="evenodd" stroke="none"/>
  </g>
</svg>
