<?xml version="1.0" encoding="UTF-8" standalone="no"?>
<svg xmlns:xlink="http://www.w3.org/1999/xlink" height="45.1px" width="44.75px" xmlns="http://www.w3.org/2000/svg">
  <g transform="matrix(1.0, 0.0, 0.0, 1.0, -168.65, -238.2)">
    <path d="M205.85 243.5 L206.35 243.85 206.65 244.2 206.8 244.55 206.9 244.95 206.9 245.3 206.75 246.05 Q206.6 246.85 205.85 247.0 L204.15 247.2 203.65 246.8 203.35 246.4 203.2 245.7 203.2 244.95 203.3 244.2 203.65 243.8 Q203.9 243.6 204.2 243.5 L205.0 243.25 205.05 243.2 205.85 243.5 M171.9 246.55 L172.3 246.2 172.65 245.95 172.9 245.85 173.5 245.75 173.5 245.7 174.35 246.0 174.65 246.15 174.65 245.45 174.75 244.7 175.15 244.3 Q175.4 244.1 175.7 244.0 L176.5 243.75 176.5 243.7 177.35 244.0 177.85 244.35 178.1 244.7 178.25 245.05 178.4 245.45 178.35 245.8 178.25 246.55 Q178.1 247.35 177.35 247.5 L175.65 247.7 175.45 247.55 175.65 248.2 175.8 248.95 175.7 249.65 175.5 250.05 175.25 250.4 174.6 250.75 Q173.5 251.15 172.65 250.3 L171.9 249.55 171.75 249.2 171.65 248.8 171.65 248.45 171.65 247.7 171.8 246.95 171.9 246.55 M182.15 243.45 L182.4 243.35 183.0 243.25 183.0 243.2 184.35 243.9 185.2 244.95 Q185.5 245.65 185.45 246.45 185.4 247.3 184.75 247.9 L184.4 248.2 183.5 248.3 Q182.45 248.3 181.9 247.35 L181.3 245.9 Q181.05 245.15 181.3 244.45 L181.4 244.05 181.8 243.7 182.15 243.45 M179.65 246.95 L179.9 246.85 180.5 246.75 180.5 246.7 181.35 247.0 181.85 247.35 182.2 248.1 182.4 248.8 182.25 249.15 181.7 249.9 Q181.25 250.4 180.55 250.25 L179.2 249.75 178.75 249.45 178.7 249.05 178.65 248.7 178.7 248.3 178.75 247.95 178.9 247.55 179.3 247.2 179.65 246.95 M187.75 241.05 L187.9 241.45 187.85 241.8 187.75 242.15 187.5 242.55 187.25 242.9 186.9 243.2 186.65 243.3 186.05 243.35 184.7 243.05 Q184.2 242.8 183.9 242.35 L183.65 241.7 183.7 241.3 183.75 240.95 183.95 240.6 184.7 240.05 185.5 239.75 185.5 239.7 186.0 239.75 186.85 240.0 Q187.15 240.1 187.35 240.35 L187.75 241.05 M191.4 244.3 L191.25 245.05 Q191.1 245.85 190.35 246.0 L188.65 246.2 188.15 245.8 187.85 245.4 187.7 244.7 187.7 243.95 187.75 243.2 188.15 242.8 Q188.4 242.6 188.7 242.5 L189.5 242.25 189.5 242.2 190.35 242.5 Q190.65 242.6 190.85 242.85 L191.1 243.2 191.25 243.55 191.4 243.95 191.4 244.3 M198.15 238.8 L198.7 238.5 199.5 238.25 199.5 238.2 200.5 238.25 Q200.95 238.3 201.35 238.5 L201.85 238.85 202.3 239.55 202.35 239.95 202.2 240.65 Q201.65 241.75 200.45 242.25 199.15 242.8 198.15 241.8 L197.8 241.4 197.7 241.05 197.65 240.7 197.65 240.3 197.65 239.95 197.75 239.2 198.15 238.8 M194.0 246.2 L194.85 246.5 195.35 246.85 195.6 247.2 195.75 247.55 195.9 247.95 195.9 248.3 195.75 249.05 Q195.6 249.85 194.85 250.0 L193.15 250.2 192.65 249.8 192.35 249.4 Q192.2 249.05 192.2 248.7 L192.2 247.95 192.25 247.2 192.65 246.8 Q192.9 246.6 193.2 246.5 L194.0 246.25 194.0 246.2 M185.85 256.5 L186.35 256.85 186.75 257.55 186.9 257.95 186.85 258.3 186.75 258.65 186.5 259.05 186.25 259.4 185.9 259.7 185.65 259.8 185.3 259.9 185.4 260.3 185.25 260.65 184.7 261.4 184.25 261.75 184.35 261.85 184.6 262.2 184.75 262.55 184.9 262.95 184.9 263.05 185.15 262.85 185.7 262.5 186.5 262.25 186.5 262.2 187.35 262.5 187.5 262.6 187.15 262.3 186.85 261.9 186.7 261.2 186.7 260.45 186.75 259.7 187.15 259.35 187.7 259.0 188.5 258.75 188.5 258.7 189.35 259.0 189.85 259.35 190.1 259.7 190.25 260.05 190.4 260.45 190.4 260.8 190.25 261.55 Q190.1 262.35 189.35 262.5 L187.7 262.7 187.85 262.85 188.1 263.2 188.25 263.55 188.4 263.95 188.4 264.3 188.25 265.05 Q188.1 265.85 187.35 266.0 L185.65 266.2 185.15 265.8 184.85 265.4 Q184.7 265.05 184.7 264.7 L184.7 264.35 183.85 265.0 182.15 265.2 181.65 264.8 181.35 264.4 Q181.2 264.05 181.2 263.7 L181.2 262.95 181.25 262.2 181.65 261.85 182.2 261.5 182.5 261.45 182.2 261.25 181.75 260.95 181.7 260.55 181.65 260.2 181.7 259.8 181.75 259.45 181.9 259.05 182.3 258.7 182.65 258.45 182.7 258.4 182.65 258.2 182.7 257.8 182.75 257.45 182.95 257.1 183.7 256.55 Q184.1 256.35 184.5 256.25 L184.5 256.2 185.0 256.25 185.85 256.5 M187.25 268.05 L187.4 268.45 187.35 268.8 187.25 269.2 187.0 269.55 186.75 269.9 186.4 270.2 186.15 270.3 185.55 270.35 184.35 270.2 184.4 270.45 184.35 270.8 184.25 271.2 184.0 271.55 183.75 271.9 183.4 272.2 183.15 272.3 182.55 272.35 182.5 272.35 182.85 272.55 183.55 273.25 Q183.9 273.75 183.9 274.3 L183.5 275.05 Q183.25 275.6 182.65 275.8 L180.25 275.75 180.1 275.7 179.2 275.0 Q178.6 274.35 178.65 273.45 L178.7 273.05 178.8 272.7 179.15 272.35 179.7 272.05 180.5 271.75 180.5 271.7 180.8 271.8 180.4 271.35 180.15 270.7 180.2 270.3 180.25 269.95 180.45 269.6 Q180.75 269.25 181.2 269.05 L182.0 268.75 182.0 268.7 182.5 268.75 182.65 268.8 182.65 268.7 182.7 268.3 182.75 267.95 182.95 267.6 183.7 267.05 184.5 266.75 184.5 266.7 185.5 266.75 186.35 267.0 186.85 267.35 187.25 268.05 M182.25 267.55 Q182.1 268.35 181.35 268.5 L179.65 268.7 179.15 268.3 178.85 267.9 Q178.7 267.55 178.7 267.2 L178.7 266.45 178.75 265.7 179.15 265.35 179.7 265.0 180.5 264.75 180.5 264.7 181.35 265.0 181.85 265.35 182.1 265.7 182.25 266.05 182.4 266.45 182.4 266.8 182.25 267.55 M187.05 269.95 L187.4 269.6 187.9 269.4 188.5 269.25 188.5 269.2 189.35 269.5 189.85 269.85 190.15 270.2 190.25 270.55 190.4 271.3 190.35 272.45 Q190.2 273.2 189.5 273.55 L188.5 273.95 187.65 273.65 187.15 273.3 186.8 272.9 186.65 272.55 186.65 272.2 186.65 271.8 186.65 271.45 186.65 271.05 186.7 270.7 186.75 270.3 187.05 269.95 M174.15 251.5 L175.0 251.25 175.0 251.2 175.85 251.5 176.35 251.85 176.6 252.2 176.75 252.55 176.9 252.95 176.85 253.3 176.75 254.05 Q176.6 254.85 175.85 255.0 L174.15 255.2 173.65 254.8 173.35 254.4 173.15 253.7 173.15 252.95 173.25 252.2 173.65 251.85 174.15 251.5 M172.25 259.2 L171.4 260.2 171.15 260.3 170.55 260.35 169.65 260.15 169.15 259.8 168.75 259.45 168.65 259.05 168.65 258.7 168.65 257.95 168.65 257.2 168.8 256.45 168.9 256.05 169.3 255.7 169.65 255.45 169.9 255.35 170.5 255.25 170.5 255.2 171.35 255.5 171.9 255.8 172.1 256.2 172.3 256.95 172.45 258.05 172.25 259.2 M170.5 262.7 L171.35 263.0 171.85 263.35 172.45 264.1 172.75 264.85 172.8 265.3 Q173.35 264.7 174.15 264.45 L175.0 264.2 175.85 264.5 176.35 264.85 176.6 265.2 176.75 265.55 Q177.05 266.15 176.75 266.7 L176.7 266.8 177.35 267.0 177.85 267.35 178.25 268.05 178.4 268.45 178.35 268.8 178.25 269.2 178.0 269.55 177.75 269.9 177.4 270.2 177.15 270.3 176.5 270.35 174.7 270.05 Q173.9 269.8 173.7 269.05 L173.65 268.7 173.65 268.35 172.7 267.75 172.2 267.05 172.15 266.7 172.2 266.3 171.85 266.6 Q170.75 267.2 169.7 266.6 L168.75 265.95 168.65 265.55 168.65 265.2 168.65 264.8 168.65 264.45 168.65 264.05 168.75 263.7 169.15 263.35 169.65 263.0 170.5 262.75 170.5 262.7 M200.65 273.2 L200.8 273.55 200.9 273.95 200.9 274.3 200.75 275.05 Q200.6 275.85 199.85 276.0 L198.15 276.2 197.65 275.8 197.35 275.4 197.2 274.7 197.2 273.95 197.25 273.2 197.65 272.85 198.2 272.55 199.0 272.25 199.0 272.2 199.85 272.5 200.35 272.85 200.65 273.2 M202.2 275.85 L202.5 275.15 Q203.15 274.3 204.15 273.95 L205.05 273.7 205.85 274.0 206.35 274.35 206.65 274.7 206.8 275.05 Q207.05 275.6 206.8 276.2 206.05 277.65 204.5 277.9 203.45 278.05 202.7 277.25 L202.2 276.55 202.15 276.2 202.2 275.85 M195.5 279.7 L196.35 280.0 196.85 280.35 197.2 281.1 197.4 281.8 197.25 282.2 196.7 282.9 Q196.25 283.4 195.55 283.25 194.85 283.15 194.2 282.75 L193.75 282.45 193.7 282.05 193.65 281.7 193.7 281.3 193.75 280.95 193.9 280.55 194.3 280.2 194.65 279.95 194.9 279.85 195.5 279.75 195.5 279.7 M213.15 257.2 L213.3 257.55 213.4 257.95 213.4 258.3 213.35 258.7 213.3 259.05 213.15 259.45 212.85 259.8 212.4 260.2 211.5 260.4 211.05 260.35 Q210.35 260.15 209.75 259.7 L209.15 259.05 209.15 258.7 209.35 257.95 209.8 257.2 Q210.45 256.3 211.55 256.25 L211.55 256.2 212.4 256.5 212.85 256.85 213.15 257.2 M208.4 252.95 L208.35 253.3 208.25 253.65 208.05 254.05 207.75 254.4 207.4 254.7 207.15 254.75 204.55 254.85 Q203.45 254.8 202.9 253.85 L202.65 253.2 202.7 252.8 202.8 252.45 202.95 252.1 203.7 251.55 204.5 251.25 204.55 251.2 206.5 251.25 207.35 251.55 208.05 252.25 208.4 252.95 M206.5 266.25 L207.35 266.5 207.85 266.85 208.15 267.2 208.3 267.55 208.35 267.95 208.35 268.3 208.0 269.05 Q207.6 269.75 206.85 269.95 L205.15 270.2 204.65 269.8 204.3 269.4 204.2 269.05 204.15 268.3 204.2 267.55 204.3 267.2 204.65 266.85 205.2 266.5 206.0 266.25 206.05 266.2 206.5 266.25" fill="#ffffff" fill-rule="evenodd" stroke="none"/>
  </g>
</svg>
