<?xml version="1.0" encoding="UTF-8" standalone="no"?>
<svg xmlns:xlink="http://www.w3.org/1999/xlink" height="59.4px" width="68.5px" xmlns="http://www.w3.org/2000/svg">
  <g transform="matrix(1.0, 0.0, 0.0, 1.0, 34.25, 29.75)">
    <path d="M-17.15 -27.05 Q-14.6 -28.55 -9.0 -28.8 L-5.95 -29.0 0.75 -28.5 Q3.7 -27.9 5.45 -26.5 8.85 -24.05 10.0 -21.25 L10.7 -19.45 Q4.05 -27.65 -7.0 -28.1 -11.65 -28.25 -17.15 -27.05 M11.05 -0.95 L10.8 -0.85 10.85 -0.85 11.6 -0.7 Q13.15 -0.25 14.45 0.95 L14.85 1.4 15.2 1.7 15.9 3.05 16.15 3.75 16.25 4.25 15.8 3.7 15.2 2.95 14.55 2.4 Q12.1 0.2 9.5 -0.3 L7.1 1.3 6.65 1.45 6.8 -0.4 6.8 -0.5 6.95 -1.35 6.95 -1.45 9.6 -1.9 6.95 -1.45 6.95 -1.35 6.8 -0.5 6.8 -0.4 6.65 1.45 7.1 1.3 7.15 1.4 8.2 2.55 6.7 3.25 5.8 2.05 5.65 1.95 6.65 1.45 5.65 1.95 5.05 2.05 4.2 2.3 3.75 2.4 3.35 2.45 2.8 2.55 1.95 2.65 1.1 2.8 0.7 2.8 -0.4 -0.25 -3.15 0.15 -0.4 -0.25 0.7 2.8 0.55 2.8 -3.15 2.85 -3.25 2.05 -3.3 1.4 -3.25 0.95 -3.15 0.15 -3.15 -0.05 -2.4 -1.45 -1.25 -2.75 -0.5 -3.25 Q1.9 -5.0 4.05 -5.05 L3.85 -0.9 -0.4 -0.25 -1.25 -2.75 -0.4 -0.25 3.85 -0.9 4.05 -5.05 4.5 -5.1 6.0 -4.95 7.1 -4.5 6.95 -1.45 3.85 -0.9 3.75 2.4 3.85 -0.9 6.95 -1.45 7.1 -4.5 8.2 -3.65 8.8 -2.95 9.6 -1.9 9.85 -1.6 10.05 -0.95 9.8 -0.65 9.7 -0.5 9.5 -0.3 9.7 -0.5 9.8 -0.65 10.05 -0.95 10.15 -1.3 10.5 -1.3 11.05 -0.95 M18.75 11.15 L25.5 10.5 Q23.75 10.8 22.2 12.1 L16.55 12.2 15.8 12.25 Q15.25 12.65 14.95 13.2 L14.65 13.5 21.1 13.4 20.3 14.7 14.0 14.65 14.65 13.5 10.75 13.8 10.75 13.5 10.8 12.6 10.05 12.65 10.05 12.55 9.85 11.3 9.85 11.15 9.25 8.65 10.75 8.65 10.85 11.3 10.85 11.4 10.85 11.6 10.85 12.45 10.85 12.5 14.95 12.05 16.6 11.55 Q16.95 11.35 17.15 11.3 L18.75 11.15 M9.8 -0.65 L10.15 -0.7 10.8 -0.85 10.15 -0.7 9.8 -0.65 M10.15 -0.7 L10.05 -0.95 10.15 -0.7 M-22.55 -0.85 L-19.45 -1.5 -18.4 -1.45 -17.9 -1.35 -17.1 -1.2 Q-15.4 -0.7 -14.05 0.55 L-13.65 1.0 -13.3 1.4 -12.45 2.7 -12.2 3.45 -12.0 3.95 -12.55 3.4 -13.3 2.6 -13.85 2.05 Q-16.75 -0.4 -19.8 -0.8 L-22.55 -0.85 M-9.5 11.6 L-3.45 11.0 Q-5.45 11.25 -7.05 12.65 L-14.05 12.8 -14.95 13.75 -15.3 14.15 -28.4 14.85 Q-26.45 13.45 -23.95 13.35 L-23.75 13.35 -23.4 13.3 -17.3 12.8 -14.95 12.6 -14.05 12.8 -14.95 12.6 -12.55 11.8 -9.5 11.6 M-8.3 14.0 L-8.35 14.15 -9.15 15.35 -15.95 15.35 -16.35 15.9 -16.6 16.5 -30.4 16.85 -29.55 15.9 -29.4 15.6 -15.95 15.35 -15.3 14.15 -8.3 14.0 M-28.75 16.4 L-29.55 15.9 -28.75 16.4 M16.6 11.55 L16.55 12.2 16.6 11.55 M14.95 12.05 L15.8 12.25 14.95 12.05 M7.05 3.8 L8.6 3.2 9.95 5.85 10.45 7.5 8.9 7.65 8.3 6.15 7.65 4.75 7.4 4.35 7.05 3.8 M10.3 15.9 L10.65 14.7 14.0 14.65 13.45 15.85 10.3 15.9 M10.8 12.6 L10.85 12.5 10.8 12.6" fill="#ffffff" fill-rule="evenodd" stroke="none"/>
    <path d="M11.4 -15.5 L11.5 -15.0 11.5 -14.65 11.65 -12.45 10.8 -12.55 Q9.5 -12.6 8.6 -11.7 7.95 -11.15 7.75 -10.35 L7.65 -9.6 Q7.65 -8.35 8.6 -7.45 9.5 -6.55 10.8 -6.55 L11.5 -6.55 11.25 -4.5 10.9 -3.1 10.3 -1.35 10.15 -1.3 10.05 -0.95 9.85 -1.6 9.6 -1.9 8.8 -2.95 8.2 -3.65 7.1 -4.5 6.0 -4.95 4.5 -5.1 4.05 -5.05 Q1.9 -5.0 -0.5 -3.25 L-1.25 -2.75 -2.4 -1.45 -3.15 -0.05 -3.15 0.15 -3.25 0.95 -3.3 1.4 -3.25 2.05 -3.15 2.85 -3.2 2.85 -5.0 2.7 -4.3 -4.05 Q-7.1 -2.6 -9.6 -2.6 -12.2 -2.7 -14.2 -4.05 -16.35 -5.6 -16.75 -8.55 -17.2 -11.5 -14.9 -13.6 -12.55 -15.65 -8.8 -16.6 -5.05 -17.65 3.8 -10.25 8.4 -17.65 11.4 -15.5 M-4.2 -6.7 Q-3.3 -7.6 -3.25 -8.8 -3.3 -10.25 -4.2 -11.05 -5.15 -12.0 -6.55 -12.0 -7.9 -12.05 -8.9 -11.15 -9.9 -10.35 -9.9 -8.95 -9.9 -7.75 -8.9 -6.7 -7.9 -5.8 -6.55 -5.8 -5.15 -5.8 -4.2 -6.7" fill="#2d3235" fill-rule="evenodd" stroke="none"/>
    <path d="M11.65 -12.45 L11.8 -11.2 11.8 -10.9 11.65 -11.0 Q11.1 -11.6 10.35 -11.6 9.5 -11.6 9.0 -11.05 8.4 -10.6 8.4 -9.8 8.4 -9.05 9.0 -8.55 9.5 -7.95 10.35 -7.95 11.1 -7.95 11.65 -8.5 L11.7 -8.6 11.6 -7.3 11.6 -7.15 11.5 -6.55 10.8 -6.55 Q9.5 -6.55 8.6 -7.45 7.65 -8.35 7.65 -9.6 L7.75 -10.35 Q7.95 -11.15 8.6 -11.7 9.5 -12.6 10.8 -12.55 L11.65 -12.45 M-4.2 -6.7 Q-5.15 -5.8 -6.55 -5.8 -7.9 -5.8 -8.9 -6.7 -9.9 -7.75 -9.9 -8.95 -9.9 -10.35 -8.9 -11.15 -7.9 -12.05 -6.55 -12.0 -5.15 -12.0 -4.2 -11.05 -3.3 -10.25 -3.25 -8.8 -3.3 -7.6 -4.2 -6.7 M-5.1 -10.25 Q-5.75 -10.8 -6.55 -10.8 -7.4 -10.85 -7.9 -10.25 -8.55 -9.75 -8.55 -8.95 -8.55 -8.25 -7.9 -7.6 -7.4 -7.05 -6.55 -7.05 -5.75 -7.05 -5.1 -7.6 -4.6 -8.2 -4.6 -8.85 -4.6 -9.75 -5.1 -10.25" fill="#8e0101" fill-rule="evenodd" stroke="none"/>
    <path d="M11.7 -8.6 L11.65 -8.5 Q11.1 -7.95 10.35 -7.95 9.5 -7.95 9.0 -8.55 8.4 -9.05 8.4 -9.8 8.4 -10.6 9.0 -11.05 9.5 -11.6 10.35 -11.6 11.1 -11.6 11.65 -11.0 L11.8 -10.9 11.7 -8.6 M-5.1 -10.25 Q-4.6 -9.75 -4.6 -8.85 -4.6 -8.2 -5.1 -7.6 -5.75 -7.05 -6.55 -7.05 -7.4 -7.05 -7.9 -7.6 -8.55 -8.25 -8.55 -8.95 -8.55 -9.75 -7.9 -10.25 -7.4 -10.85 -6.55 -10.8 -5.75 -10.8 -5.1 -10.25" fill="#ff0000" fill-rule="evenodd" stroke="none"/>
    <path d="M1.95 2.65 L2.8 2.55 3.35 2.45 3.75 2.4 4.2 2.3 4.45 2.65 5.8 2.05 6.7 3.25 4.95 4.05 5.25 4.55 5.9 6.55 8.3 6.15 8.9 7.65 6.2 7.9 6.3 8.7 6.35 9.2 6.5 9.75 9.85 11.15 9.85 11.3 10.05 12.55 10.05 12.65 9.45 12.65 6.5 10.55 6.5 11.65 6.5 12.0 6.4 12.8 6.4 12.85 4.1 12.95 4.1 10.5 4.1 10.2 4.1 10.1 3.9 9.25 3.85 8.5 3.45 6.85 2.9 5.05 2.8 4.6 2.6 4.15 2.15 3.0 1.95 2.65 M11.8 -10.9 Q12.2 -9.05 12.2 -9.75 L12.45 -9.5 Q13.65 -8.35 13.65 -6.7 13.65 -5.65 13.05 -4.8 L12.45 -4.05 11.9 -3.55 10.9 -3.1 11.25 -4.5 11.5 -6.55 11.6 -7.15 11.6 -7.3 11.7 -8.6 11.8 -10.9 M-23.15 -10.35 Q-21.9 -5.5 -19.65 -2.85 -20.7 -2.3 -22.05 -2.3 -24.0 -2.3 -25.25 -3.45 -26.55 -4.65 -26.55 -6.45 -26.55 -8.1 -25.25 -9.35 -24.35 -10.05 -23.15 -10.35 M-12.45 2.7 L-13.3 1.4 -13.15 1.2 Q-9.9 2.45 -6.25 2.6 L-5.9 2.6 -5.0 2.7 -3.2 2.85 -3.15 2.85 0.55 2.8 0.7 2.8 1.1 2.9 1.75 4.55 -12.45 2.7 M-0.15 11.3 L-2.6 10.9 -2.8 10.9 -3.4 11.0 -3.45 11.0 -9.5 11.6 -10.7 10.7 3.0 9.3 3.2 10.4 -0.15 11.3 M-12.3 8.05 L-11.8 5.8 2.55 6.8 2.85 8.1 -12.3 8.05" fill="#838c93" fill-rule="evenodd" stroke="none"/>
    <path d="M10.7 -19.45 L11.4 -15.5 Q8.4 -17.65 3.8 -10.25 -5.05 -17.65 -8.8 -16.6 -12.55 -15.65 -14.9 -13.6 -17.2 -11.5 -16.75 -8.55 -16.35 -5.6 -14.2 -4.05 -12.2 -2.7 -9.6 -2.6 -7.1 -2.6 -4.3 -4.05 L-5.0 2.7 -5.9 2.6 -6.25 2.6 Q-9.9 2.45 -13.15 1.2 L-13.65 1.0 -14.05 0.55 Q-15.4 -0.7 -17.1 -1.2 L-18.25 -4.2 -19.9 -9.85 Q-21.6 -17.3 -20.5 -24.55 L-17.4 -26.95 -17.15 -27.05 Q-11.65 -28.25 -7.0 -28.1 4.05 -27.65 10.7 -19.45 M11.8 -11.2 L13.7 -10.35 13.85 -10.25 Q15.25 -9.2 14.7 -6.75 14.2 -4.35 13.15 -2.75 L12.5 -1.9 10.5 -1.3 10.15 -1.3 10.3 -1.35 10.9 -3.1 11.9 -3.55 12.45 -4.05 13.05 -4.8 Q13.65 -5.65 13.65 -6.7 13.65 -8.35 12.45 -9.5 L12.2 -9.75 Q12.2 -9.05 11.8 -10.9 L11.8 -11.2 M16.25 4.25 L16.5 5.7 16.5 6.0 16.2 7.65 16.05 8.2 15.8 8.7 15.5 9.2 14.85 10.1 14.45 10.5 13.8 11.15 12.55 11.85 11.4 11.7 10.85 11.6 10.85 11.4 10.85 11.3 10.75 8.65 10.45 7.5 9.95 5.85 8.6 3.2 8.2 2.55 7.15 1.4 7.1 1.3 9.5 -0.3 Q12.1 0.2 14.55 2.4 L15.2 2.95 15.8 3.7 16.25 4.25 M-23.65 -0.35 L-23.45 -0.4 -22.55 -0.85 -19.8 -0.8 Q-16.75 -0.4 -13.85 2.05 L-13.3 2.6 -12.55 3.4 -12.0 3.95 -12.2 3.45 1.95 5.0 2.45 6.6 2.55 6.8 -11.8 5.8 -11.8 5.5 -12.0 3.95 -11.8 5.5 -11.8 5.8 -12.3 8.05 -12.55 8.65 -12.85 9.15 -12.55 8.65 2.85 8.5 3.0 9.3 -10.7 10.7 -12.85 9.15 -14.05 10.5 -14.65 11.15 -15.95 11.95 -17.35 11.7 Q-27.0 10.05 -23.65 -0.35 M0.7 2.8 L1.1 2.8 1.1 2.9 0.7 2.8 M5.65 1.95 L5.8 2.05 4.45 2.65 4.2 2.3 5.05 2.05 5.65 1.95 M5.25 4.55 L7.05 3.8 7.4 4.35 7.65 4.75 8.3 6.15 5.9 6.55 5.25 4.55 M6.4 12.85 L6.4 12.8 6.5 12.0 6.5 11.65 8.0 12.7 6.4 12.85 M9.85 11.15 L6.5 9.75 6.35 9.2 6.3 8.7 9.25 8.65 9.85 11.15 M0.4 11.55 L3.2 10.75 3.2 13.0 2.5 13.1 Q1.55 12.05 0.4 11.55" fill="#555c72" fill-rule="evenodd" stroke="none"/>
    <path d="M1.1 2.8 L1.95 2.65 2.15 3.0 2.6 4.15 2.8 4.6 2.9 5.05 3.45 6.85 3.85 8.5 3.9 9.25 4.1 10.1 4.1 10.2 4.1 10.5 4.1 12.95 3.2 13.0 3.2 10.75 0.4 11.55 -0.15 11.3 3.2 10.4 3.0 9.3 2.85 8.5 -12.55 8.65 -12.3 8.05 2.85 8.1 2.55 6.8 2.45 6.6 1.95 5.0 -12.2 3.45 -12.45 2.7 1.75 4.55 1.1 2.9 1.1 2.8 M-10.7 10.7 L-9.5 11.6 -12.55 11.8 -14.95 12.6 -17.3 12.8 -17.35 12.35 -15.95 11.95 -14.65 11.15 -10.7 10.7 M10.45 7.5 L10.75 8.65 9.25 8.65 6.3 8.7 6.2 7.9 8.9 7.65 10.45 7.5 M6.7 3.25 L8.2 2.55 8.6 3.2 7.05 3.8 5.25 4.55 4.95 4.05 6.7 3.25 M6.5 11.65 L6.5 10.55 9.45 12.65 8.0 12.7 6.5 11.65" fill="#5a6267" fill-rule="evenodd" stroke="none"/>
    <path d="M4.1 12.95 L6.4 12.85 8.0 12.7 9.45 12.65 10.05 12.65 10.8 12.6 10.75 13.5 10.75 13.8 10.65 14.6 10.65 14.7 10.3 15.9 10.25 16.0 8.3 20.0 8.3 19.55 8.8 18.85 8.6 18.65 8.3 19.0 8.3 17.15 8.8 16.65 8.75 16.5 8.3 16.7 8.3 15.0 7.1 15.0 5.3 15.05 4.0 15.1 3.85 14.9 3.35 14.2 3.2 13.8 2.8 13.4 2.5 13.1 3.2 13.0 4.1 12.95" fill="#32353f" fill-rule="evenodd" stroke="none"/>
    <path d="M25.5 10.5 L26.15 10.5 26.3 10.5 Q29.2 10.45 31.25 12.85 33.2 15.3 33.25 18.75 33.2 22.25 31.25 24.7 29.2 27.35 26.3 27.45 L24.8 27.35 Q23.3 26.95 22.05 25.9 L21.3 25.1 Q19.25 22.75 19.3 19.2 19.25 16.65 20.3 14.7 L21.1 13.4 21.3 13.0 22.2 12.1 Q23.75 10.8 25.5 10.5 M1.75 26.95 Q-0.15 28.55 -2.6 28.65 L-4.25 28.55 Q-5.65 28.2 -6.9 27.3 L-7.2 27.0 -7.8 26.5 -8.0 26.2 -8.2 26.0 -9.25 24.45 Q-10.15 22.4 -10.15 20.05 L-10.0 17.8 -9.8 16.95 -9.15 15.35 -8.35 14.15 -8.3 14.0 -8.0 13.6 -7.85 13.45 -7.4 12.95 -7.05 12.65 Q-5.45 11.25 -3.45 11.0 L-3.4 11.0 -2.8 10.9 -2.6 10.9 -0.15 11.3 0.4 11.55 Q1.55 12.05 2.5 13.1 L2.8 13.4 3.2 13.8 3.35 14.2 3.85 14.9 4.0 15.1 4.4 16.0 4.65 16.85 4.7 17.25 4.95 19.55 4.95 19.6 4.95 20.0 4.65 22.35 4.5 22.85 3.8 24.45 3.75 24.5 3.45 24.95 3.15 25.4 2.95 25.55 2.8 25.85 1.9 26.75 1.75 26.95 M2.5 18.0 L2.4 17.8 2.25 17.45 1.7 16.1 1.65 15.9 1.2 15.45 1.15 15.35 1.1 15.25 Q-0.45 13.5 -2.6 13.6 L-2.65 13.65 -3.15 13.7 Q-4.6 13.8 -5.65 14.85 L-6.3 15.45 -6.5 15.75 -7.1 16.7 -7.75 18.35 -7.8 19.35 -7.85 19.95 -7.85 20.05 -7.85 20.15 Q-7.85 21.55 -7.4 22.55 L-7.1 23.15 -6.3 24.2 -6.2 24.5 -5.8 24.75 Q-4.85 25.55 -3.8 25.85 L-3.0 25.9 -2.6 25.9 -1.35 25.75 -1.1 25.65 -0.45 25.35 -0.15 25.15 1.15 23.9 1.2 23.85 1.75 23.05 1.8 22.95 2.0 22.55 Q2.6 21.25 2.6 19.65 L2.6 19.25 2.5 18.0 M31.0 17.25 Q30.65 15.8 29.75 14.7 28.3 13.0 26.3 13.05 L26.2 13.05 25.8 13.1 Q24.45 13.25 23.4 14.2 L22.85 14.85 22.7 15.05 22.15 15.95 21.6 17.5 21.5 19.15 Q21.5 21.55 22.85 23.2 L23.3 23.8 Q24.2 24.55 25.25 24.7 L26.3 24.85 Q28.3 24.7 29.75 22.95 31.1 21.25 31.15 18.85 L31.0 17.25" fill="#8d75b7" fill-rule="evenodd" stroke="none"/>
    <path d="M5.55 26.75 L3.75 26.8 3.75 25.45 4.25 25.9 5.55 26.1 5.55 26.75 M5.3 17.0 L4.65 16.85 4.4 16.0 4.0 15.1 5.3 15.05 5.3 17.0 M4.7 17.25 L5.1 17.35 5.35 17.4 5.4 19.65 4.95 19.55 4.7 17.25 M4.95 20.0 L5.4 20.1 5.5 22.6 5.1 22.5 4.65 22.35 4.95 20.0 M4.5 22.85 L4.95 22.9 5.5 23.0 5.55 25.75 Q4.7 25.7 4.3 25.35 L4.05 25.25 4.05 25.1 3.9 25.0 3.75 24.95 3.75 24.5 3.8 24.45 4.5 22.85" fill="#535300" fill-rule="evenodd" stroke="none"/>
    <path d="M16.2 7.65 Q17.2 7.8 17.9 8.9 L18.25 9.55 18.75 11.15 17.15 11.3 Q16.95 11.35 16.6 11.55 L16.05 10.75 Q15.4 10.2 14.85 10.1 L15.5 9.2 15.8 8.7 16.05 8.2 16.2 7.65 M7.1 26.75 L5.55 26.75 5.55 26.1 5.75 26.1 7.1 25.85 7.1 26.75 M1.9 26.95 L1.75 26.95 1.9 26.75 1.9 26.95 M-31.3 18.65 Q-32.35 17.95 -32.8 17.0 L-33.25 15.7 Q-33.25 12.6 -30.4 9.5 -28.7 7.7 -27.05 6.8 L-26.1 9.25 Q-27.15 9.7 -27.95 10.5 L-28.75 11.25 -29.2 12.0 Q-30.0 13.25 -29.95 14.45 L-29.95 14.85 -29.9 15.55 -29.55 15.9 -30.4 16.85 -31.3 18.65 M-29.95 14.85 Q-30.7 14.85 -31.55 15.35 L-32.75 16.0 Q-32.55 15.95 -32.35 16.2 -32.55 15.95 -32.75 16.0 L-31.55 15.35 Q-30.7 14.85 -29.95 14.85 M-31.45 11.35 L-30.2 11.35 -29.2 12.0 -30.2 11.35 -31.45 11.35 M-27.95 10.5 Q-28.25 9.3 -29.25 9.35 -28.25 9.3 -27.95 10.5 M17.9 8.9 Q16.95 10.35 16.05 10.75 16.95 10.35 17.9 8.9 M5.3 15.05 L7.1 15.0 7.1 17.15 6.6 17.15 5.45 17.0 5.3 17.0 5.3 15.05 M5.35 17.4 L6.6 17.5 7.1 17.5 7.1 19.55 5.9 19.65 5.4 19.65 5.35 17.4 M5.4 20.1 L5.9 20.1 7.1 19.95 7.1 22.75 6.6 22.75 5.5 22.6 5.4 20.1 M5.5 23.0 L6.6 23.05 7.1 23.05 7.1 25.35 5.75 25.7 5.55 25.75 5.5 23.0" fill="#666600" fill-rule="evenodd" stroke="none"/>
    <path d="M-27.05 6.8 L-27.1 5.7 Q-27.1 2.6 -24.85 0.55 L-23.65 -0.35 Q-27.0 10.05 -17.35 11.7 L-15.95 11.95 -17.35 12.35 -19.45 12.65 Q-22.55 12.65 -24.85 10.6 L-26.1 9.25 -27.05 6.8 M-23.45 -0.4 Q-25.95 -0.65 -26.95 -1.9 -28.15 -3.4 -28.75 -5.85 -29.4 -8.5 -27.55 -9.85 -25.65 -11.35 -23.45 -11.6 L-23.75 -15.25 Q-24.05 -19.45 -22.45 -22.25 L-20.5 -24.55 Q-21.6 -17.3 -19.9 -9.85 L-18.25 -4.2 -17.1 -1.2 -17.9 -1.35 -18.15 -1.6 -18.4 -1.45 -19.45 -1.5 -22.55 -0.85 -23.45 -0.4 M-23.15 -10.35 Q-24.35 -10.05 -25.25 -9.35 -26.55 -8.1 -26.55 -6.45 -26.55 -4.65 -25.25 -3.45 -24.0 -2.3 -22.05 -2.3 -20.7 -2.3 -19.65 -2.85 -21.9 -5.5 -23.15 -10.35 M-14.65 11.15 L-14.05 10.5 -12.85 9.15 -10.7 10.7 -14.65 11.15 M10.85 11.6 L11.4 11.7 12.55 11.85 11.4 12.35 10.85 12.45 10.85 11.6" fill="#3f434f" fill-rule="evenodd" stroke="none"/>
    <path d="M-29.45 25.4 Q-31.55 23.45 -31.55 20.7 L-31.3 18.65 -30.4 16.85 -16.6 16.5 Q-17.3 18.2 -17.3 20.15 -17.3 23.4 -15.65 25.65 L-29.45 25.4 M-28.4 14.85 L-15.3 14.15 -15.95 15.35 -29.4 15.6 -29.25 15.5 -28.4 14.85 M8.3 20.0 L10.25 16.0 10.3 15.9 13.45 15.85 Q12.85 17.45 12.85 19.35 12.85 22.35 14.4 24.55 L8.4 24.5 8.35 24.4 8.3 24.2 8.3 20.0 M10.65 14.7 L10.65 14.6 10.75 13.8 14.65 13.5 14.0 14.65 10.65 14.7" fill="#707585" fill-rule="evenodd" stroke="none"/>
    <path d="M8.3 26.35 L8.3 26.65 8.3 26.7 7.1 26.75 7.1 25.85 7.65 25.45 8.25 24.85 8.3 24.75 8.3 26.35 M3.75 26.8 L1.9 26.95 1.9 26.75 2.8 25.85 2.95 25.55 3.35 25.55 3.5 25.5 3.75 25.45 3.75 26.8 M7.1 15.0 L8.3 15.0 8.3 16.7 8.15 16.8 7.1 17.15 7.1 15.0 M8.3 17.15 L8.3 19.0 7.95 19.15 7.1 19.55 7.1 17.5 7.9 17.25 8.3 17.15 M8.3 19.55 L8.3 20.0 8.3 24.2 8.2 24.1 7.9 24.5 7.45 25.0 7.1 25.35 7.1 23.05 8.25 22.65 8.2 22.05 Q8.0 22.1 7.95 22.4 L7.1 22.75 7.1 19.95 8.05 19.6 8.3 19.55 M3.75 24.5 L3.75 24.95 3.45 24.95 3.75 24.5" fill="#848400" fill-rule="evenodd" stroke="none"/>
    <path d="M-7.05 12.65 L-7.4 12.95 -7.85 13.45 -8.0 13.6 -8.3 14.0 -15.3 14.15 -14.95 13.75 -14.05 12.8 -7.05 12.65 M-9.15 15.35 L-9.8 16.95 -10.0 17.8 -10.15 20.05 Q-10.15 22.4 -9.25 24.45 L-8.2 26.0 -8.0 26.2 -7.8 26.5 -7.2 27.0 -14.5 26.95 -14.95 26.55 -15.65 25.65 Q-17.3 23.4 -17.3 20.15 -17.3 18.2 -16.6 16.5 L-16.35 15.9 -15.95 15.35 -9.15 15.35 M2.5 18.0 L2.6 19.25 2.6 19.65 Q2.6 21.25 2.0 22.55 L1.8 22.95 1.75 23.05 1.2 23.85 1.15 23.9 -0.15 25.15 -0.45 25.35 -1.1 25.65 -1.35 25.75 -2.6 25.9 -3.0 25.9 -3.8 25.85 Q-4.85 25.55 -5.8 24.75 L-6.2 24.5 -6.3 24.2 -7.1 23.15 -7.4 22.55 Q-7.85 21.55 -7.85 20.15 L-7.85 20.05 -7.85 19.95 -7.8 19.35 -7.75 18.35 2.5 18.0 M31.0 17.25 L31.15 18.85 Q31.1 21.25 29.75 22.95 28.3 24.7 26.3 24.85 L25.25 24.7 Q24.2 24.55 23.3 23.8 L22.85 23.2 Q21.5 21.55 21.5 19.15 L21.6 17.5 31.0 17.25 M22.2 12.1 L21.3 13.0 21.1 13.4 14.65 13.5 14.95 13.2 Q15.25 12.65 15.8 12.25 L16.55 12.2 22.2 12.1 M20.3 14.7 Q19.25 16.65 19.3 19.2 19.25 22.75 21.3 25.1 L22.05 25.9 15.3 25.85 14.95 25.35 14.4 24.55 Q12.85 22.35 12.85 19.35 12.85 17.45 13.45 15.85 L14.0 14.65 20.3 14.7" fill="#7b5eaa" fill-rule="evenodd" stroke="none"/>
    <path d="M-7.75 18.35 L-7.1 16.7 -6.5 15.75 -6.3 15.45 -5.65 14.85 Q-4.6 13.8 -3.15 13.7 L-2.65 13.65 -2.6 13.6 Q-0.45 13.5 1.1 15.25 L1.15 15.35 1.2 15.45 1.65 15.9 1.7 16.1 2.25 17.45 2.4 17.8 2.5 18.0 -7.75 18.35 M21.6 17.5 L22.15 15.95 22.7 15.05 22.85 14.85 23.4 14.2 Q24.45 13.25 25.8 13.1 L26.2 13.05 26.3 13.05 Q28.3 13.0 29.75 14.7 30.65 15.8 31.0 17.25 L21.6 17.5" fill="#604787" fill-rule="evenodd" stroke="none"/>
    <path d="M8.3 16.7 L8.75 16.5 8.8 16.65 8.3 17.15 7.9 17.25 7.1 17.5 6.6 17.5 5.35 17.4 5.1 17.35 4.7 17.25 4.65 16.85 5.3 17.0 5.45 17.0 6.6 17.15 7.1 17.15 8.15 16.8 8.3 16.7 M8.3 19.0 L8.6 18.65 8.8 18.85 8.3 19.55 8.05 19.6 7.1 19.95 5.9 20.1 5.4 20.1 4.95 20.0 4.95 19.6 4.95 19.55 5.4 19.65 5.9 19.65 7.1 19.55 7.95 19.15 8.3 19.0 M5.5 23.0 L4.95 22.9 4.5 22.85 4.65 22.35 5.1 22.5 5.5 22.6 6.6 22.75 7.1 22.75 7.95 22.4 Q8.0 22.1 8.2 22.05 L8.25 22.65 7.1 23.05 6.6 23.05 5.5 23.0 M3.75 24.95 L3.9 25.0 4.05 25.1 4.05 25.25 4.3 25.35 Q4.7 25.7 5.55 25.75 L5.75 25.7 7.1 25.35 7.45 25.0 7.9 24.5 8.2 24.1 8.3 24.2 8.35 24.4 8.4 24.5 8.35 24.65 8.3 24.75 8.3 24.2 8.3 24.75 8.25 24.85 7.65 25.45 7.1 25.85 5.75 26.1 5.55 26.1 4.25 25.9 3.75 25.45 3.5 25.5 3.35 25.55 2.95 25.55 3.15 25.4 3.45 24.95 3.75 24.95" fill="#3a3a00" fill-rule="evenodd" stroke="none"/>
    <path d="M24.8 27.35 L17.1 27.1 16.15 26.6 15.3 25.85 22.05 25.9 Q23.3 26.95 24.8 27.35 M-4.25 28.55 L-12.65 28.3 -13.7 27.75 -14.5 26.95 -7.2 27.0 -6.9 27.3 Q-5.65 28.2 -4.25 28.55" fill="#6f539d" fill-rule="evenodd" stroke="none"/>
    <path d="M16.15 26.6 L8.3 26.35 8.3 24.75 8.35 24.65 8.4 24.5 14.4 24.55 14.95 25.35 15.3 25.85 16.15 26.6 M-13.7 27.75 L-23.75 27.5 -24.8 27.5 Q-27.35 27.3 -29.25 25.55 L-29.45 25.4 -15.65 25.65 -14.95 26.55 -14.5 26.95 -13.7 27.75" fill="#636876" fill-rule="evenodd" stroke="none"/>
    <path d="M-17.15 -27.05 Q-14.6 -28.55 -9.0 -28.8 L-5.95 -29.0 0.75 -28.5 Q3.7 -27.9 5.45 -26.5 8.85 -24.05 10.0 -21.25 L10.7 -19.45 11.4 -15.5 11.5 -15.0 11.5 -14.65 11.65 -12.45 11.8 -11.2 13.7 -10.35 13.85 -10.25 Q15.25 -9.2 14.7 -6.75 14.2 -4.35 13.15 -2.75 L12.5 -1.9 Q11.95 -1.35 11.05 -0.95 L10.8 -0.85 10.85 -0.85 11.6 -0.7 Q13.15 -0.25 14.45 0.95 L14.85 1.4 15.2 1.7 15.9 3.05 16.15 3.75 16.25 4.25 16.5 5.7 16.5 6.0 16.2 7.65 M-27.05 6.8 L-27.1 5.7 Q-27.1 2.6 -24.85 0.55 L-23.65 -0.35 -23.45 -0.4 Q-25.95 -0.65 -26.95 -1.9 -28.15 -3.4 -28.75 -5.85 -29.4 -8.5 -27.55 -9.85 -25.65 -11.35 -23.45 -11.6 L-23.75 -15.25 Q-24.05 -19.45 -22.45 -22.25 L-20.5 -24.55 -17.4 -26.95 -17.15 -27.05 M11.8 -10.9 L11.8 -11.2 M-1.25 -2.75 L-0.4 -0.25 3.85 -0.9 4.05 -5.05 Q1.9 -5.0 -0.5 -3.25 L-1.25 -2.75 -2.4 -1.45 -3.15 -0.05 -3.15 0.15 -0.4 -0.25 0.7 2.8 1.1 2.8 1.95 2.65 2.8 2.55 3.35 2.45 3.75 2.4 3.85 -0.9 6.95 -1.45 7.1 -4.5 6.0 -4.95 4.5 -5.1 4.05 -5.05 M9.6 -1.9 L6.95 -1.45 6.95 -1.35 6.8 -0.5 6.8 -0.4 6.65 1.45 7.1 1.3 9.5 -0.3 9.7 -0.5 9.8 -0.65 10.05 -0.95 9.85 -1.6 9.6 -1.9 8.8 -2.95 8.2 -3.65 7.1 -4.5 M10.9 -3.1 L10.3 -1.35 10.15 -1.3 10.5 -1.3 12.5 -1.9 M11.5 -6.55 L11.6 -7.15 11.6 -7.3 11.7 -8.6 11.8 -10.9 M10.9 -3.1 L11.25 -4.5 11.5 -6.55 M10.8 -0.85 L10.15 -0.7 9.8 -0.65 M10.5 -1.3 L11.05 -0.95 M10.05 -0.95 L10.15 -1.3 M10.05 -0.95 L10.15 -0.7 M-23.45 -0.4 L-22.55 -0.85 -19.45 -1.5 -18.4 -1.45 -18.15 -1.6 -17.9 -1.35 -17.1 -1.2 M-17.9 -1.35 L-18.4 -1.45 M-12.0 3.95 L-12.2 3.45 -12.45 2.7 -13.3 1.4 -13.65 1.0 -14.05 0.55 Q-15.4 -0.7 -17.1 -1.2 M-3.15 2.85 L-3.25 2.05 -3.3 1.4 -3.25 0.95 -3.15 0.15 M-3.15 2.85 L-3.2 2.85 -5.0 2.7 -5.9 2.6 -6.25 2.6 Q-9.9 2.45 -13.15 1.2 L-13.3 1.4 M-13.15 1.2 L-13.65 1.0 M-11.8 5.8 L-11.8 5.5 -12.0 3.95 M-15.95 11.95 L-14.65 11.15 -14.05 10.5 -12.85 9.15 -12.55 8.65 -12.3 8.05 -11.8 5.8 M-17.35 12.35 L-15.95 11.95 M-17.35 12.35 L-17.3 12.8 M-17.35 12.35 L-19.45 12.65 Q-22.55 12.65 -24.85 10.6 L-26.1 9.25 -27.05 6.8 M10.45 7.5 L10.75 8.65 10.85 11.3 10.85 11.4 10.85 11.6 10.85 12.45 10.85 12.5 10.8 12.6 M12.55 11.85 L13.8 11.15 14.45 10.5 14.85 10.1 15.5 9.2 15.8 8.7 16.05 8.2 16.2 7.65 M12.55 11.85 L11.4 12.35 10.85 12.45 M5.65 1.95 L6.65 1.45 M8.2 2.55 L7.15 1.4 7.1 1.3 M8.6 3.2 L8.2 2.55 M10.45 7.5 L9.95 5.85 8.6 3.2 M4.2 2.3 L5.05 2.05 5.65 1.95 M3.75 2.4 L4.2 2.3 M0.7 2.8 L0.55 2.8 -3.15 2.85 M5.3 15.05 L7.1 15.0 8.3 15.0 M8.3 20.0 L10.25 16.0 10.3 15.9 10.65 14.7 10.65 14.6 10.75 13.8 10.75 13.5 10.8 12.6 M4.0 15.1 L5.3 15.05" fill="none" stroke="#333333" stroke-linecap="round" stroke-linejoin="round" stroke-width="1.5"/>
    <path d="M18.75 11.15 L25.5 10.5 26.15 10.5 26.3 10.5 Q29.2 10.45 31.25 12.85 33.2 15.3 33.25 18.75 33.2 22.25 31.25 24.7 29.2 27.35 26.3 27.45 L24.8 27.35 17.1 27.1 16.15 26.6 8.3 26.35 M1.75 26.95 Q-0.15 28.55 -2.6 28.65 L-4.25 28.55 -12.65 28.3 -13.7 27.75 -23.75 27.5 -24.8 27.5 Q-27.35 27.3 -29.25 25.55 L-29.45 25.4 Q-31.55 23.45 -31.55 20.7 L-31.3 18.65 M-3.45 11.0 L-3.4 11.0 -2.8 10.9 -2.6 10.9 -0.15 11.3 0.4 11.55 Q1.55 12.05 2.5 13.1 L2.8 13.4 3.2 13.8 3.35 14.2 3.85 14.9 4.0 15.1 4.4 16.0 4.65 16.85 4.7 17.25 4.95 19.55 4.95 19.6 4.95 20.0 4.65 22.35 4.5 22.85 3.8 24.45 3.75 24.5 3.45 24.95 3.15 25.4 2.95 25.55 2.8 25.85 1.9 26.75 1.75 26.95 M-9.5 11.6 L-3.45 11.0 M-14.95 12.6 L-17.3 12.8 -23.4 13.3 -23.75 13.35 -23.95 13.35 Q-26.45 13.45 -28.4 14.85 M-30.4 16.85 L-31.3 18.65 M-29.4 15.6 L-29.55 15.9 -30.4 16.85 M-14.95 12.6 L-12.55 11.8 -9.5 11.6 M-29.4 15.6 L-29.25 15.5 -28.4 14.85 M10.85 12.5 L14.95 12.05 16.6 11.55 Q16.95 11.35 17.15 11.3 L18.75 11.15" fill="none" stroke="#1e2027" stroke-linecap="round" stroke-linejoin="round" stroke-width="2.0"/>
    <path d="M16.2 7.65 Q17.2 7.8 17.9 8.9 L18.25 9.55 18.75 11.15 M-31.3 18.65 Q-32.35 17.95 -32.8 17.0 L-33.25 15.7 Q-33.25 12.6 -30.4 9.5 -28.7 7.7 -27.05 6.8 M-29.55 15.9 L-28.75 16.4 M-26.1 9.25 Q-27.15 9.7 -27.95 10.5 L-28.75 11.25 -29.2 12.0 Q-30.0 13.25 -29.95 14.45 L-29.95 14.85 -29.9 15.55 -29.55 15.9 M-29.25 9.35 Q-28.25 9.3 -27.95 10.5 M-29.2 12.0 L-30.2 11.35 -31.45 11.35 M-32.35 16.2 Q-32.55 15.95 -32.75 16.0 L-31.55 15.35 Q-30.7 14.85 -29.95 14.85 M16.6 11.55 L16.05 10.75 Q15.4 10.2 14.85 10.1 M16.55 12.2 L16.6 11.55 M16.05 10.75 Q16.95 10.35 17.9 8.9" fill="none" stroke="#3a3a00" stroke-linecap="round" stroke-linejoin="round" stroke-width="2.0"/>
    <path d="M-14.05 12.8 L-14.95 12.6 M15.8 12.25 L14.95 12.05" fill="none" stroke="#1e2027" stroke-linecap="round" stroke-linejoin="round" stroke-width="1.0"/>
    <path d="M8.3 26.35 L8.3 26.65 M8.3 15.0 L8.3 16.7 M8.3 17.15 L8.3 19.0 M8.3 19.55 L8.3 20.0 8.3 24.2 8.3 24.75 8.3 26.35 M3.75 24.5 L3.75 24.95 M3.75 25.45 L3.75 26.8" fill="none" stroke="#3a3a00" stroke-linecap="round" stroke-linejoin="round" stroke-width="1.5"/>
  </g>
</svg>
