<?xml version="1.0" encoding="UTF-8" standalone="no"?>
<svg xmlns:xlink="http://www.w3.org/1999/xlink" height="87.4px" width="117.05px" xmlns="http://www.w3.org/2000/svg">
  <g transform="matrix(1.0, 0.0, 0.0, 1.0, 155.05, 5.7)">
    <path d="M-80.3 14.8 L-80.7 14.8 -86.45 14.5 -95.45 15.15 -100.7 16.6 Q-103.15 17.4 -105.7 18.5 L-105.9 18.6 -106.05 18.65 -107.5 19.4 -109.5 20.35 -110.25 20.8 -111.1 21.3 -112.1 21.95 -112.45 22.15 -112.95 22.5 -115.2 24.0 -115.35 24.15 Q-121.25 28.45 -127.65 35.6 L-127.85 35.85 -128.0 36.05 -136.35 45.4 -136.4 45.45 -136.7 45.6 -137.65 46.0 -140.1 46.95 -140.7 47.15 -140.75 47.15 -142.8 47.85 -145.25 43.35 Q-141.55 41.8 -135.75 41.1 -143.6 39.95 -151.3 37.3 -145.35 32.0 -137.95 29.95 -146.9 29.75 -155.05 26.2 -149.15 21.75 -141.45 20.45 -144.65 19.8 -147.95 17.95 L-153.25 14.45 -148.8 11.7 -145.85 11.45 -144.7 10.35 -142.4 8.4 Q-124.5 -6.1 -96.1 -5.65 L-91.1 -5.65 -78.9 -4.65 -78.6 -4.65 Q-74.6 -4.5 -71.95 -1.5 -69.25 1.55 -69.5 5.65 -69.7 9.75 -72.75 12.55 L-75.0 14.15 Q-76.5 15.0 -79.65 14.85 L-80.3 14.8" fill="#70381f" fill-rule="evenodd" stroke="none"/>
    <path d="M-38.0 3.5 Q-42.9 20.4 -43.35 26.55 -43.65 31.4 -41.2 39.75 -39.05 47.15 -40.3 53.35 -42.6 64.35 -47.55 71.65 -54.1 81.45 -63.7 81.7 -75.25 82.1 -87.05 73.45 -94.65 67.85 -98.5 60.95 -97.75 46.7 -92.3 38.3 -85.95 28.5 -78.35 22.15 L-72.05 17.7 Q-74.05 18.55 -76.35 18.65 -80.9 18.85 -82.1 14.85 -83.6 9.9 -79.85 4.3 -76.05 -1.55 -69.75 -2.65 -64.45 -3.65 -58.45 3.5 -55.45 7.0 -53.5 10.75 -49.8 8.3 -45.3 6.15 -41.2 4.2 -38.0 3.5" fill="#bf7926" fill-rule="evenodd" stroke="none"/>
  </g>
</svg>
