<?xml version="1.0" encoding="UTF-8" standalone="no"?>
<svg xmlns:xlink="http://www.w3.org/1999/xlink" height="12.7px" width="14.15px" xmlns="http://www.w3.org/2000/svg">
  <g transform="matrix(1.0, 0.0, 0.0, 1.0, 7.7, -3.45)">
    <path d="M2.95 14.35 Q2.2 15.15 1.15 15.15 0.15 15.15 -0.65 14.35 -1.4 13.6 -1.4 12.5 -1.4 11.4 -0.65 10.6 0.15 9.85 1.15 9.85 2.2 9.85 2.95 10.6 3.7 11.4 3.7 12.5 3.7 13.6 2.95 14.35" fill="#ffffff" fill-rule="evenodd" stroke="none"/>
    <path d="M4.4 10.15 Q5.3 10.15 5.85 10.9 6.45 11.65 6.45 12.75 6.45 13.8 5.85 14.55 5.3 15.3 4.4 15.3 3.55 15.3 2.95 14.55 2.35 13.8 2.35 12.7 2.35 11.65 2.95 10.9 3.55 10.15 4.4 10.15" fill="#ffffff" fill-rule="evenodd" stroke="none"/>
    <path d="M-3.0 15.25 Q-3.8 16.15 -4.95 16.15 -6.1 16.15 -6.9 15.25 -7.7 14.4 -7.7 13.1 -7.7 11.85 -6.9 10.95 -6.1 10.1 -4.95 10.1 -3.8 10.1 -3.0 10.95 -2.2 11.85 -2.2 13.15 -2.2 14.4 -3.0 15.25" fill="#ffffff" fill-rule="evenodd" stroke="none"/>
    <path d="M-1.9 10.85 Q-2.9 12.0 -4.3 12.0 -5.7 12.0 -6.7 10.85 -7.65 9.7 -7.65 8.1 -7.65 6.55 -6.7 5.4 -5.7 4.3 -4.3 4.3 -2.9 4.3 -1.9 5.4 -0.9 6.55 -0.9 8.15 -0.9 9.7 -1.9 10.85" fill="#ffffff" fill-rule="evenodd" stroke="none"/>
    <path d="M3.85 10.25 Q3.0 11.45 1.8 11.45 0.65 11.45 -0.2 10.25 -1.05 9.1 -1.05 7.45 -1.05 5.8 -0.2 4.6 0.65 3.45 1.8 3.45 3.0 3.45 3.85 4.6 4.7 5.8 4.7 7.45 4.7 9.1 3.85 10.25" fill="#ffffff" fill-rule="evenodd" stroke="none"/>
    <path d="M5.85 7.5 Q5.5 8.0 4.95 8.0 4.4 8.0 4.0 7.5 3.65 7.05 3.65 6.35 3.65 5.7 4.0 5.2 4.4 4.75 4.95 4.75 5.5 4.75 5.85 5.2 6.25 5.7 6.25 6.35 6.25 7.05 5.85 7.5" fill="#ffffff" fill-rule="evenodd" stroke="none"/>
  </g>
</svg>
