<?xml version="1.0" encoding="UTF-8" standalone="no"?>
<svg xmlns:xlink="http://www.w3.org/1999/xlink" height="15.6px" width="12.4px" xmlns="http://www.w3.org/2000/svg">
  <g transform="matrix(1.0, 0.0, 0.0, 1.0, 14.4, -3.3)">
    <path d="M-10.65 18.1 Q-11.3 18.9 -12.2 18.9 -13.1 18.9 -13.75 18.1 -14.4 17.3 -14.4 16.15 -14.4 15.0 -13.75 14.2 -13.1 13.4 -12.2 13.4 -11.3 13.4 -10.65 14.2 -10.0 15.0 -10.0 16.15 -10.0 17.3 -10.65 18.1" fill="#ffdb33" fill-rule="evenodd" stroke="none"/>
    <path d="M-2.65 7.2 Q-3.25 7.9 -4.1 7.9 -5.0 7.9 -5.6 7.2 -6.2 6.55 -6.2 5.6 -6.2 4.65 -5.6 3.95 -5.0 3.3 -4.1 3.3 -3.25 3.3 -2.65 3.95 -2.0 4.65 -2.0 5.6 -2.0 6.55 -2.65 7.2" fill="#ffdb33" fill-rule="evenodd" stroke="none"/>
  </g>
</svg>
