<?xml version="1.0" encoding="UTF-8" standalone="no"?>
<svg xmlns:xlink="http://www.w3.org/1999/xlink" height="99.85px" width="128.45px" xmlns="http://www.w3.org/2000/svg">
  <g transform="matrix(1.0, 0.0, 0.0, 1.0, 104.05, 24.1)">
    <path d="M-11.2 28.9 Q-10.4 39.6 -5.95 49.5 -3.7 54.45 -1.6 57.25 L-19.95 75.75 -34.7 73.8 -21.7 62.7 -33.1 70.8 -41.85 68.6 -30.95 61.7 -38.45 65.25 -41.1 62.5 -25.7 53.5 Q-26.2 45.25 -25.3 28.9 -24.75 18.7 -21.9 8.3 L-19.2 0.0 -9.7 1.0 -10.9 8.5 Q-12.0 18.2 -11.2 28.9" fill="#1a1c23" fill-rule="evenodd" stroke="none"/>
    <path d="M21.0 -17.95 L21.25 -17.55 Q24.5 -11.75 24.4 -6.3 L24.4 -3.25 Q-3.95 2.3 -30.8 -4.05 -31.5 -10.25 -30.8 -20.05 -5.05 -14.3 21.0 -17.95" fill="#ff0000" fill-rule="evenodd" stroke="none"/>
    <path d="M-49.25 14.05 L-65.45 15.75 Q-74.05 16.95 -78.0 18.8 -85.75 22.55 -88.9 26.75 -90.55 28.8 -90.55 30.2 L-72.45 44.55 -70.15 42.0 Q-67.1 39.0 -63.3 37.0 -61.6 36.1 -55.35 33.95 L-43.1 29.55 Q-25.95 23.05 -19.95 16.8 -13.7 10.4 -12.75 -1.05 -12.4 -4.7 -12.75 -8.4 L-12.85 -10.15 -12.85 -10.85 -13.1 -11.45 -12.85 -10.15 -13.3 -8.45 Q-14.85 -3.75 -21.75 4.2 -25.5 8.5 -33.4 11.05 -39.35 12.8 -49.25 14.05" fill="#ff0000" fill-rule="evenodd" stroke="none"/>
    <path d="M-81.1 -23.4 Q-87.75 -25.35 -96.6 -22.0 -101.0 -20.35 -104.05 -18.3 L-99.4 5.5 Q-97.45 3.25 -94.1 1.25 -87.3 -2.7 -80.05 -1.4 -76.7 -0.8 -70.5 1.7 L-59.45 6.1 Q-45.25 11.3 -36.0 7.95 -26.3 4.45 -19.05 -3.45 -16.65 -6.1 -15.0 -8.65 -13.65 -10.75 -13.85 -10.85 L-14.95 -9.85 Q-16.4 -8.6 -18.55 -7.45 -25.5 -3.65 -36.75 -1.75 -47.35 0.0 -61.7 -10.25 L-72.25 -18.25 Q-77.9 -22.4 -81.1 -23.4" fill="#ff0000" fill-rule="evenodd" stroke="none"/>
  </g>
</svg>
