<?xml version="1.0" encoding="UTF-8" standalone="no"?>
<svg xmlns:xlink="http://www.w3.org/1999/xlink" height="77.4px" width="120.6px" xmlns="http://www.w3.org/2000/svg">
  <g transform="matrix(1.0, 0.0, 0.0, 1.0, 58.85, 69.85)">
    <path d="M-20.5 -60.1 Q-7.95 -60.1 0.85 -50.35 9.7 -40.6 9.7 -26.8 9.7 -12.95 0.85 -3.25 -7.95 6.55 -20.5 6.55 -33.0 6.55 -41.85 -3.25 -50.7 -12.95 -50.7 -26.8 -50.7 -40.6 -41.85 -50.35 -33.0 -60.1 -20.5 -60.1" fill="#af7c3e" fill-rule="evenodd" stroke="none"/>
    <path d="M-4.95 -20.45 L-5.0 1.0 Q-11.7 7.3 -20.45 7.3 -29.15 7.3 -35.8 1.1 L-35.75 -20.45 -4.95 -20.45" fill="#76a613" fill-rule="evenodd" stroke="none"/>
    <path d="M-20.45 7.3 Q-27.6 7.3 -33.35 3.15 L-33.35 -20.45 -7.3 -20.45 -7.35 3.05 Q-13.2 7.3 -20.45 7.3" fill="#311f0a" fill-rule="evenodd" stroke="none"/>
    <path d="M-20.5 -60.1 Q-7.95 -60.1 0.85 -50.35 9.7 -40.6 9.7 -26.8 9.7 -12.95 0.85 -3.25 -7.95 6.55 -20.5 6.55 -33.0 6.55 -41.85 -3.25 -50.7 -12.95 -50.7 -26.8 -50.7 -40.6 -41.85 -50.35 -33.0 -60.1 -20.5 -60.1 Z" fill="none" stroke="#5d3c16" stroke-linecap="round" stroke-linejoin="round" stroke-width="2.0"/>
    <path d="M24.7 -60.1 Q37.25 -60.1 46.05 -50.35 54.9 -40.6 54.9 -26.8 54.9 -12.95 46.05 -3.25 37.25 6.55 24.7 6.55 12.2 6.55 3.35 -3.25 -5.5 -12.95 -5.5 -26.8 -5.5 -40.6 3.35 -50.35 12.2 -60.1 24.7 -60.1" fill="#af7c3e" fill-rule="evenodd" stroke="none"/>
    <path d="M-9.2 -66.7 Q-10.2 -66.25 -10.5 -65.3 L-14.25 -54.2 -13.15 -65.75 Q-13.1 -66.75 -13.75 -67.5 -14.45 -68.25 -15.55 -68.35 -16.6 -68.45 -17.4 -67.75 -18.25 -67.15 -18.35 -66.15 L-19.4 -54.7 -20.9 -66.0 Q-21.05 -67.0 -21.9 -67.6 -22.75 -68.2 -23.85 -68.1 -24.9 -67.95 -25.6 -67.2 -26.2 -66.4 -26.1 -65.45 L-24.9 -56.65 -29.35 -65.4 Q-29.8 -66.35 -30.85 -66.6 L-32.85 -66.55 Q-33.85 -66.15 -34.2 -65.2 -34.55 -64.3 -34.05 -63.4 L-25.15 -45.8 -37.7 -61.75 Q-38.35 -62.55 -39.4 -62.7 -40.5 -62.85 -41.35 -62.25 -42.25 -61.7 -42.4 -60.7 -42.55 -59.75 -41.9 -58.95 L-36.05 -51.55 -47.7 -58.55 Q-48.6 -59.1 -49.65 -58.9 -50.75 -58.65 -51.3 -57.8 -51.9 -57.0 -51.65 -56.0 -51.45 -55.0 -50.55 -54.55 L-39.85 -48.1 -51.75 -52.25 -53.7 -52.2 Q-54.75 -51.75 -55.1 -50.8 -55.5 -49.9 -55.0 -49.0 -54.65 -48.1 -53.6 -47.75 L-37.5 -42.15 -54.55 -43.75 Q-55.6 -43.85 -56.4 -43.25 -57.25 -42.6 -57.3 -41.6 -57.5 -40.6 -56.75 -39.8 -56.1 -39.05 -55.0 -39.0 L-42.65 -37.8 -53.7 -36.75 Q-54.8 -36.6 -55.45 -35.85 -56.1 -35.05 -55.95 -34.05 -55.9 -33.1 -55.1 -32.4 -54.2 -31.8 -53.1 -31.95 L-36.45 -33.65 -52.0 -28.1 Q-53.05 -27.7 -53.5 -26.8 -53.85 -25.85 -53.5 -24.9 -53.1 -23.95 -52.15 -23.6 L-50.15 -23.55 -34.45 -29.15 -48.0 -20.05 Q-48.85 -19.45 -49.0 -18.5 -49.2 -17.45 -48.5 -16.65 -47.9 -15.85 -46.85 -15.7 -45.8 -15.55 -44.9 -16.15 L-32.3 -24.65 -41.1 -14.6 Q-41.75 -13.85 -41.65 -12.85 -41.55 -11.85 -40.65 -11.25 -39.85 -10.6 -38.75 -10.7 -37.7 -10.8 -37.0 -11.65 L-28.2 -21.75 -34.25 -9.9 Q-34.7 -9.0 -34.35 -8.1 -33.95 -7.15 -32.9 -6.7 L-30.95 -6.65 Q-29.95 -6.95 -29.5 -7.9 L-26.8 -13.15 -28.5 -7.65 Q-28.75 -6.65 -28.25 -5.8 -27.65 -4.95 -26.65 -4.65 -25.6 -4.4 -24.65 -4.9 -23.75 -5.4 -23.45 -6.3 L-22.4 -9.6 -22.1 -5.7 Q-22.05 -4.7 -21.2 -4.05 -20.4 -3.45 -19.3 -3.55 -18.2 -3.6 -17.5 -4.4 -16.85 -5.1 -16.9 -6.1 L-18.2 -21.45 -12.65 -6.95 Q-12.25 -6.05 -11.35 -5.65 L-9.25 -5.55 Q-8.3 -5.85 -7.85 -6.8 L-7.75 -6.9 -7.55 -6.85 -5.55 -7.0 Q-4.55 -7.4 -4.25 -8.4 -3.85 -9.25 -4.35 -10.15 L-9.45 -20.0 -2.4 -11.45 Q-1.65 -10.65 -0.65 -10.55 0.45 -10.4 1.35 -11.05 2.15 -11.6 2.3 -12.6 L2.35 -12.8 2.55 -12.8 Q3.55 -12.75 4.4 -13.4 5.15 -14.05 5.2 -15.1 5.2 -16.05 4.45 -16.8 L0.4 -20.75 6.2 -18.55 Q7.15 -18.2 8.15 -18.55 9.15 -19.0 9.6 -19.9 10.0 -20.75 9.6 -21.7 9.2 -22.65 8.2 -22.95 2.25 -25.2 -3.65 -27.55 L8.9 -25.5 Q10.0 -25.25 10.9 -25.85 11.8 -26.45 12.0 -27.45 12.2 -28.4 11.55 -29.2 11.0 -30.0 9.9 -30.15 L-2.85 -32.25 12.65 -33.5 Q13.75 -33.65 14.45 -34.35 15.15 -35.1 15.05 -36.15 14.95 -37.05 14.1 -37.75 13.3 -38.4 12.2 -38.25 L-0.25 -37.3 11.65 -40.7 Q12.7 -41.05 13.2 -41.9 13.65 -42.8 13.35 -43.75 13.05 -44.7 12.1 -45.15 L10.1 -45.3 -1.35 -42.05 10.6 -49.7 Q11.5 -50.3 11.7 -51.25 11.85 -52.25 11.2 -53.05 10.65 -53.85 9.6 -54.05 8.55 -54.2 7.65 -53.6 L-9.25 -42.85 3.1 -57.9 Q3.7 -58.75 3.55 -59.7 3.4 -60.65 2.5 -61.25 1.7 -61.9 0.6 -61.75 -0.4 -61.55 -1.15 -60.8 L-10.35 -49.5 -5.55 -63.85 Q-5.2 -64.85 -5.65 -65.7 -6.2 -66.55 -7.3 -66.85 L-9.2 -66.7 Z" fill="none" stroke="#79460b" stroke-linecap="round" stroke-linejoin="round" stroke-width="3.0"/>
    <path d="M40.2 1.0 Q33.5 7.3 24.75 7.3 16.05 7.3 9.4 1.1 L9.45 -20.45 40.25 -20.45 40.2 1.0" fill="#76a613" fill-rule="evenodd" stroke="none"/>
    <path d="M24.75 7.3 Q17.6 7.3 11.85 3.15 L11.85 -20.45 37.9 -20.45 37.85 3.05 Q32.0 7.3 24.75 7.3" fill="#311f0a" fill-rule="evenodd" stroke="none"/>
    <path d="M24.7 -60.1 Q37.25 -60.1 46.05 -50.35 54.9 -40.6 54.9 -26.8 54.9 -12.95 46.05 -3.25 37.25 6.55 24.7 6.55 12.2 6.55 3.35 -3.25 -5.5 -12.95 -5.5 -26.8 -5.5 -40.6 3.35 -50.35 12.2 -60.1 24.7 -60.1 Z" fill="none" stroke="#5d3c16" stroke-linecap="round" stroke-linejoin="round" stroke-width="2.0"/>
    <path d="M36.0 -66.7 Q35.0 -66.25 34.7 -65.3 L30.95 -54.2 32.05 -65.75 Q32.1 -66.75 31.45 -67.5 30.75 -68.25 29.65 -68.35 28.6 -68.45 27.8 -67.75 26.95 -67.15 26.85 -66.15 L25.8 -54.7 24.3 -66.0 Q24.15 -67.0 23.3 -67.6 22.45 -68.2 21.35 -68.1 20.3 -67.95 19.6 -67.2 19.0 -66.4 19.1 -65.45 L20.3 -56.65 15.85 -65.4 Q15.4 -66.35 14.35 -66.6 L12.35 -66.55 Q11.35 -66.15 11.0 -65.2 10.65 -64.3 11.15 -63.4 L20.05 -45.8 7.5 -61.75 Q6.85 -62.55 5.8 -62.7 4.7 -62.85 3.85 -62.25 2.95 -61.7 2.8 -60.7 2.65 -59.75 3.3 -58.95 L9.15 -51.55 Q3.3 -55.0 -2.5 -58.55 -3.4 -59.1 -4.45 -58.9 -5.55 -58.65 -6.1 -57.8 -6.7 -57.0 -6.45 -56.0 -6.25 -55.0 -5.35 -54.55 L5.35 -48.1 -6.55 -52.25 -8.5 -52.2 Q-9.55 -51.75 -9.9 -50.8 -10.3 -49.9 -9.8 -49.0 -9.45 -48.1 -8.4 -47.75 L7.7 -42.15 -9.35 -43.75 Q-10.4 -43.85 -11.2 -43.25 -12.05 -42.6 -12.1 -41.6 -12.3 -40.6 -11.55 -39.8 -10.9 -39.05 -9.8 -39.0 L2.55 -37.8 -8.5 -36.75 Q-9.6 -36.6 -10.25 -35.85 -10.9 -35.05 -10.75 -34.05 -10.7 -33.1 -9.9 -32.4 -9.0 -31.8 -7.9 -31.95 L8.75 -33.65 -6.8 -28.1 Q-7.85 -27.7 -8.3 -26.8 -8.65 -25.85 -8.3 -24.9 -7.9 -23.95 -6.95 -23.6 L-4.95 -23.55 10.75 -29.15 -2.8 -20.05 Q-3.65 -19.45 -3.8 -18.5 -4.0 -17.45 -3.3 -16.65 -2.7 -15.85 -1.65 -15.7 -0.6 -15.55 0.3 -16.15 L12.9 -24.65 4.1 -14.6 Q3.45 -13.85 3.55 -12.85 3.65 -11.85 4.55 -11.25 5.35 -10.6 6.45 -10.7 7.5 -10.8 8.2 -11.65 L17.0 -21.75 10.95 -9.9 Q10.5 -9.0 10.85 -8.1 11.25 -7.15 12.3 -6.7 L14.25 -6.65 Q15.25 -6.95 15.7 -7.9 L18.4 -13.15 16.7 -7.65 Q16.45 -6.65 16.95 -5.8 17.55 -4.95 18.55 -4.65 19.6 -4.4 20.55 -4.9 21.45 -5.4 21.75 -6.3 L22.8 -9.6 23.1 -5.7 Q23.15 -4.7 24.0 -4.05 24.8 -3.45 25.9 -3.55 27.0 -3.6 27.7 -4.4 28.35 -5.1 28.3 -6.1 L27.0 -21.45 32.55 -6.95 Q32.95 -6.05 33.85 -5.65 L35.95 -5.55 Q36.9 -5.85 37.35 -6.8 L37.45 -6.9 37.65 -6.85 39.65 -7.0 Q40.65 -7.4 40.95 -8.4 41.35 -9.25 40.85 -10.15 L35.75 -20.0 42.8 -11.45 Q43.55 -10.65 44.55 -10.55 45.65 -10.4 46.55 -11.05 47.35 -11.6 47.5 -12.6 L47.55 -12.8 47.75 -12.8 Q48.75 -12.75 49.6 -13.4 50.35 -14.05 50.4 -15.1 50.4 -16.05 49.65 -16.8 L45.6 -20.75 51.4 -18.55 Q52.35 -18.2 53.35 -18.55 54.35 -19.0 54.8 -19.9 55.2 -20.75 54.8 -21.7 54.4 -22.65 53.4 -22.95 47.45 -25.2 41.55 -27.55 L54.1 -25.5 Q55.2 -25.25 56.1 -25.85 57.0 -26.45 57.2 -27.45 57.4 -28.4 56.75 -29.2 56.2 -30.0 55.1 -30.15 L42.35 -32.25 57.85 -33.5 Q58.95 -33.65 59.65 -34.35 60.35 -35.1 60.25 -36.15 60.15 -37.05 59.3 -37.75 58.5 -38.4 57.4 -38.25 L44.95 -37.3 56.85 -40.7 Q57.9 -41.05 58.4 -41.9 58.85 -42.8 58.55 -43.75 58.25 -44.7 57.3 -45.15 L55.3 -45.3 43.85 -42.05 55.8 -49.7 Q56.7 -50.3 56.9 -51.25 57.05 -52.25 56.4 -53.05 55.85 -53.85 54.8 -54.05 53.75 -54.2 52.85 -53.6 L35.95 -42.85 48.3 -57.9 Q48.9 -58.75 48.75 -59.7 48.6 -60.65 47.7 -61.25 46.9 -61.9 45.8 -61.75 44.8 -61.55 44.05 -60.8 L34.85 -49.5 39.65 -63.85 Q40.0 -64.85 39.55 -65.7 39.0 -66.55 37.9 -66.85 L36.0 -66.7 Z" fill="none" stroke="#79460b" stroke-linecap="round" stroke-linejoin="round" stroke-width="3.0"/>
    <path d="M36.0 -66.7 L37.9 -66.85 Q39.0 -66.55 39.55 -65.7 40.0 -64.85 39.65 -63.85 L34.85 -49.5 44.05 -60.8 Q44.8 -61.55 45.8 -61.75 46.9 -61.9 47.7 -61.25 48.6 -60.65 48.75 -59.7 48.9 -58.75 48.3 -57.9 L35.95 -42.85 52.85 -53.6 Q53.75 -54.2 54.8 -54.05 55.85 -53.85 56.4 -53.05 57.05 -52.25 56.9 -51.25 56.7 -50.3 55.8 -49.7 L43.85 -42.05 55.3 -45.3 57.3 -45.15 Q58.25 -44.7 58.55 -43.75 58.85 -42.8 58.4 -41.9 57.9 -41.05 56.85 -40.7 L44.95 -37.3 57.4 -38.25 Q58.5 -38.4 59.3 -37.75 60.15 -37.05 60.25 -36.15 60.35 -35.1 59.65 -34.35 58.95 -33.65 57.85 -33.5 L42.35 -32.25 55.1 -30.15 Q56.2 -30.0 56.75 -29.2 57.4 -28.4 57.2 -27.45 57.0 -26.45 56.1 -25.85 55.2 -25.25 54.1 -25.5 L41.55 -27.55 53.4 -22.95 Q54.4 -22.65 54.8 -21.7 55.2 -20.75 54.8 -19.9 54.35 -19.0 53.35 -18.55 52.35 -18.2 51.4 -18.55 L45.6 -20.75 49.65 -16.8 Q50.4 -16.05 50.4 -15.1 50.35 -14.05 49.6 -13.4 48.75 -12.75 47.75 -12.8 L47.55 -12.8 47.5 -12.6 Q47.35 -11.6 46.55 -11.05 45.65 -10.4 44.55 -10.55 43.55 -10.65 42.8 -11.45 L35.75 -20.0 40.85 -10.15 Q41.35 -9.25 40.95 -8.4 40.65 -7.4 39.65 -7.0 L37.65 -6.85 37.45 -6.9 37.35 -6.8 Q36.9 -5.85 35.95 -5.55 L33.85 -5.65 Q32.95 -6.05 32.55 -6.95 L27.0 -21.45 28.3 -6.1 Q28.35 -5.1 27.7 -4.4 27.0 -3.6 25.9 -3.55 24.8 -3.45 24.0 -4.05 23.15 -4.7 23.1 -5.7 L22.8 -9.6 21.75 -6.3 Q21.45 -5.4 20.55 -4.9 19.6 -4.4 18.55 -4.65 17.55 -4.95 16.95 -5.8 16.45 -6.65 16.7 -7.65 L18.4 -13.15 15.7 -7.9 Q15.25 -6.95 14.25 -6.65 L12.3 -6.7 Q11.25 -7.15 10.85 -8.1 10.5 -9.0 10.95 -9.9 L17.0 -21.75 8.2 -11.65 Q7.5 -10.8 6.45 -10.7 5.35 -10.6 4.55 -11.25 3.65 -11.85 3.55 -12.85 3.45 -13.85 4.1 -14.6 L12.9 -24.65 0.3 -16.15 Q-0.6 -15.55 -1.65 -15.7 -2.7 -15.85 -3.3 -16.65 -4.0 -17.45 -3.8 -18.5 -3.65 -19.45 -2.8 -20.05 L10.75 -29.15 -4.95 -23.55 -6.95 -23.6 Q-7.9 -23.95 -8.3 -24.9 -8.65 -25.85 -8.3 -26.8 -7.85 -27.7 -6.8 -28.1 L8.75 -33.65 -7.9 -31.95 Q-9.0 -31.8 -9.9 -32.4 -10.7 -33.1 -10.75 -34.05 -10.9 -35.05 -10.25 -35.85 -9.6 -36.6 -8.5 -36.75 L2.55 -37.8 -9.8 -39.0 Q-10.9 -39.05 -11.55 -39.8 -12.3 -40.6 -12.1 -41.6 -12.05 -42.6 -11.2 -43.25 -10.4 -43.85 -9.35 -43.75 L7.7 -42.15 -8.4 -47.75 Q-9.45 -48.1 -9.8 -49.0 -10.3 -49.9 -9.9 -50.8 -9.55 -51.75 -8.5 -52.2 L-6.55 -52.25 5.35 -48.1 -5.35 -54.55 Q-6.25 -55.0 -6.45 -56.0 -6.7 -57.0 -6.1 -57.8 -5.55 -58.65 -4.45 -58.9 -3.4 -59.1 -2.5 -58.55 L9.15 -51.55 3.3 -58.95 Q2.65 -59.75 2.8 -60.7 2.95 -61.7 3.85 -62.25 4.7 -62.85 5.8 -62.7 6.85 -62.55 7.5 -61.75 L20.05 -45.8 11.15 -63.4 Q10.65 -64.3 11.0 -65.2 11.35 -66.15 12.35 -66.55 L14.35 -66.6 Q15.4 -66.35 15.85 -65.4 L20.3 -56.65 19.1 -65.45 Q19.0 -66.4 19.6 -67.2 20.3 -67.95 21.35 -68.1 22.45 -68.2 23.3 -67.6 24.15 -67.0 24.3 -66.0 L25.8 -54.7 26.85 -66.15 Q26.95 -67.15 27.8 -67.75 28.6 -68.45 29.65 -68.35 30.75 -68.25 31.45 -67.5 32.1 -66.75 32.05 -65.75 L30.95 -54.2 34.7 -65.3 Q35.0 -66.25 36.0 -66.7" fill="#cd7c1e" fill-rule="evenodd" stroke="none"/>
    <path d="M47.7 -51.75 L48.4 -51.75 Q49.3 -51.6 49.75 -50.95 50.3 -50.35 50.1 -49.55 49.95 -48.75 49.3 -48.25 L39.75 -42.2 48.85 -44.8 50.45 -44.7 Q51.2 -44.35 51.45 -43.55 51.7 -42.8 51.3 -42.1 50.95 -41.35 50.1 -41.1 L40.6 -38.45 45.3 -38.8 44.95 -38.7 51.2 -39.15 52.05 -38.8 Q52.7 -38.25 52.8 -37.5 52.85 -36.7 52.3 -36.1 51.75 -35.55 50.9 -35.4 L38.55 -34.45 42.9 -33.7 42.3 -33.65 49.5 -32.45 50.0 -32.0 Q50.55 -31.35 50.35 -30.6 50.25 -29.8 49.45 -29.3 48.8 -28.9 47.95 -29.05 L37.95 -30.65 43.05 -28.7 41.55 -28.95 48.25 -26.3 48.4 -26.0 Q48.8 -25.25 48.4 -24.6 48.1 -23.85 47.35 -23.5 46.5 -23.25 45.75 -23.5 L41.15 -25.25 44.4 -22.15 Q45.0 -21.55 45.0 -20.8 44.95 -19.95 44.35 -19.45 43.65 -18.9 42.85 -18.95 L42.7 -18.95 42.7 -18.75 Q42.55 -17.95 41.85 -17.55 41.2 -17.0 40.35 -17.15 39.5 -17.2 38.9 -17.85 L33.35 -24.65 37.4 -16.85 Q37.8 -16.15 37.45 -15.45 37.25 -14.7 36.4 -14.35 L34.85 -14.25 34.65 -14.3 34.6 -14.2 Q34.25 -13.45 33.45 -13.2 L31.8 -13.3 Q31.05 -13.6 30.8 -14.3 L26.35 -25.8 27.4 -13.65 Q27.45 -12.85 26.9 -12.3 26.35 -11.6 25.5 -11.55 24.6 -11.5 23.95 -12.0 23.3 -12.55 23.25 -13.3 L23.05 -16.4 22.2 -13.8 Q22.0 -13.1 21.25 -12.7 L19.65 -12.5 Q18.85 -12.75 18.4 -13.4 L18.15 -13.85 18.4 -14.55 18.1 -14.05 Q18.05 -14.45 18.15 -14.85 L19.55 -19.2 17.35 -15.05 Q17.05 -14.3 16.25 -14.1 15.4 -13.8 14.7 -14.1 13.85 -14.5 13.55 -15.25 13.3 -15.75 13.5 -16.25 L16.95 -23.15 16.8 -22.95 18.4 -26.05 11.4 -18.0 Q10.85 -17.35 10.05 -17.25 9.15 -17.2 8.5 -17.7 7.8 -18.15 7.75 -18.95 7.65 -19.8 8.2 -20.4 L15.15 -28.4 5.1 -21.65 Q4.4 -21.15 3.6 -21.3 2.7 -21.4 2.3 -22.05 1.75 -22.65 1.9 -23.45 2.0 -24.2 2.7 -24.7 L13.5 -31.95 0.95 -27.55 Q0.15 -27.25 -0.6 -27.55 -1.35 -27.85 -1.7 -28.6 -1.95 -29.3 -1.7 -30.1 -1.3 -30.8 -0.5 -31.1 L11.85 -35.55 -1.35 -34.15 Q-2.25 -34.05 -2.95 -34.6 -3.6 -35.1 -3.6 -35.85 -3.8 -36.65 -3.25 -37.3 -2.75 -37.9 -1.85 -38.0 L7.0 -38.85 -2.9 -39.8 Q-3.8 -39.8 -4.25 -40.4 -4.85 -41.0 -4.7 -41.8 -4.7 -42.65 -4.0 -43.15 -3.4 -43.65 -2.5 -43.55 L11.0 -42.3 7.35 -43.55 7.7 -43.55 -2.35 -47.05 -2.9 -47.7 Q-3.3 -48.4 -2.95 -49.15 -2.7 -49.95 -1.85 -50.3 L-0.3 -50.35 9.15 -47.0 4.7 -49.7 5.35 -49.5 0.0 -52.7 -0.25 -53.3 Q-0.45 -54.05 0.05 -54.7 0.5 -55.4 1.35 -55.6 2.25 -55.75 2.95 -55.3 L12.15 -49.8 7.55 -55.6 Q7.0 -56.25 7.15 -57.05 7.25 -57.85 7.95 -58.3 8.65 -58.75 9.5 -58.65 10.35 -58.55 10.85 -57.9 L20.85 -45.2 19.5 -47.9 20.05 -47.2 13.55 -60.05 13.65 -60.6 Q13.9 -61.35 14.75 -61.65 L16.3 -61.7 Q17.15 -61.5 17.5 -60.75 L21.05 -53.8 20.1 -60.8 Q20.05 -61.55 20.5 -62.2 21.05 -62.8 21.9 -62.9 22.75 -63.0 23.45 -62.5 24.05 -62.05 24.25 -61.25 L25.4 -52.3 26.25 -61.35 Q26.3 -62.15 27.0 -62.65 27.7 -63.2 28.5 -63.1 29.35 -63.05 29.9 -62.45 30.45 -61.85 30.4 -61.05 L29.55 -51.9 31.15 -56.65 31.05 -56.3 30.95 -55.6 32.85 -61.3 33.5 -61.8 35.05 -61.9 Q35.9 -61.65 36.35 -61.0 36.7 -60.3 36.4 -59.55 L32.6 -48.1 39.95 -57.15 Q40.5 -57.75 41.35 -57.9 42.2 -58.0 42.8 -57.5 43.55 -57.0 43.65 -56.2 43.8 -55.45 43.3 -54.8 L33.45 -42.85 36.2 -44.55 35.9 -44.25 47.7 -51.75" fill="#d7984e" fill-rule="evenodd" stroke="none"/>
    <path d="M41.9 -50.75 L42.45 -50.75 43.45 -50.15 Q43.85 -49.7 43.7 -49.1 43.6 -48.5 43.1 -48.15 L35.9 -43.55 42.8 -45.5 43.95 -45.45 44.7 -44.55 44.65 -43.45 Q44.35 -42.9 43.7 -42.75 L36.55 -40.7 40.1 -41.0 39.8 -40.9 44.55 -41.25 45.15 -41.0 45.75 -40.0 Q45.8 -39.4 45.35 -38.95 L44.3 -38.4 35.0 -37.7 38.3 -37.15 37.85 -37.1 43.25 -36.2 43.65 -35.85 Q44.05 -35.35 43.9 -34.8 43.8 -34.2 43.25 -33.8 L42.05 -33.6 34.55 -34.85 38.4 -33.35 37.25 -33.55 42.3 -31.55 42.45 -31.35 Q42.75 -30.75 42.45 -30.25 42.2 -29.7 41.6 -29.45 41.0 -29.25 40.45 -29.45 L36.95 -30.75 39.4 -28.4 39.85 -27.4 Q39.8 -26.75 39.35 -26.35 38.85 -26.0 38.25 -26.0 L38.1 -26.0 38.1 -25.85 Q38.0 -25.25 37.5 -24.95 37.0 -24.55 36.35 -24.65 35.75 -24.7 35.25 -25.2 L31.05 -30.3 34.1 -24.4 Q34.4 -23.9 34.15 -23.35 34.0 -22.8 33.4 -22.5 L32.2 -22.45 32.05 -22.5 32.0 -22.4 Q31.75 -21.85 31.15 -21.65 L29.9 -21.7 Q29.35 -21.95 29.15 -22.5 L25.8 -31.2 26.6 -22.0 Q26.6 -21.4 26.2 -20.95 25.8 -20.45 25.15 -20.45 L24.0 -20.75 Q23.5 -21.15 23.45 -21.7 L23.3 -24.1 22.65 -22.1 Q22.5 -21.55 21.9 -21.25 L20.75 -21.1 Q20.1 -21.3 19.8 -21.8 L19.6 -22.15 19.8 -22.65 19.55 -22.3 19.6 -22.9 20.65 -26.2 19.0 -23.05 Q18.75 -22.5 18.15 -22.35 17.5 -22.1 17.0 -22.35 L16.1 -23.2 Q15.95 -23.6 16.05 -23.95 L18.7 -29.15 18.6 -29.0 19.8 -31.35 14.5 -25.3 Q14.1 -24.8 13.45 -24.7 12.8 -24.7 12.3 -25.05 11.8 -25.4 11.75 -26.0 11.65 -26.6 12.05 -27.1 L17.35 -33.1 9.75 -28.05 Q9.25 -27.65 8.6 -27.75 L7.6 -28.35 Q7.2 -28.8 7.35 -29.4 7.4 -29.95 7.95 -30.35 L16.05 -35.8 6.65 -32.45 Q6.0 -32.25 5.45 -32.45 4.85 -32.7 4.6 -33.25 4.4 -33.8 4.6 -34.4 4.9 -34.95 5.5 -35.15 L14.85 -38.5 4.85 -37.5 Q4.2 -37.4 3.65 -37.8 3.15 -38.15 3.15 -38.75 3.05 -39.35 3.45 -39.85 3.85 -40.3 4.5 -40.4 L11.15 -41.0 3.7 -41.75 Q3.05 -41.75 2.7 -42.2 2.2 -42.65 2.35 -43.25 2.35 -43.85 2.9 -44.25 3.35 -44.65 4.0 -44.55 L14.2 -43.6 11.45 -44.55 11.7 -44.55 4.1 -47.2 Q3.85 -47.4 3.7 -47.7 3.4 -48.25 3.65 -48.8 3.85 -49.4 4.5 -49.65 L5.7 -49.7 12.8 -47.2 9.45 -49.2 9.95 -49.05 5.9 -51.45 5.75 -51.9 Q5.55 -52.5 5.95 -53.0 6.25 -53.5 6.9 -53.65 L8.1 -53.45 15.1 -49.25 11.6 -53.65 Q11.15 -54.15 11.3 -54.75 11.35 -55.35 11.9 -55.7 L13.05 -55.95 Q13.7 -55.9 14.1 -55.4 L21.65 -45.8 20.6 -47.85 21.0 -47.35 16.1 -57.0 16.2 -57.45 Q16.4 -58.0 17.0 -58.25 17.65 -58.5 18.2 -58.25 18.85 -58.1 19.1 -57.55 L21.8 -52.3 21.05 -57.6 Q21.0 -58.15 21.4 -58.65 L22.4 -59.2 Q23.1 -59.25 23.6 -58.9 L24.2 -57.95 25.05 -51.15 25.7 -58.0 Q25.75 -58.6 26.3 -59.0 26.8 -59.4 27.4 -59.35 28.05 -59.3 28.45 -58.85 28.9 -58.4 28.85 -57.75 L28.2 -50.85 29.4 -54.45 29.35 -54.2 29.25 -53.65 30.7 -57.95 31.2 -58.35 32.35 -58.4 33.35 -57.75 Q33.6 -57.2 33.4 -56.65 L30.5 -48.0 36.05 -54.8 Q36.45 -55.25 37.1 -55.4 37.75 -55.45 38.2 -55.1 38.8 -54.7 38.85 -54.15 38.95 -53.55 38.55 -53.05 L31.15 -44.0 33.2 -45.3 33.0 -45.1 41.9 -50.75" fill="#deb07a" fill-rule="evenodd" stroke="none"/>
    <path d="M35.4 -30.75 Q30.95 -26.75 24.85 -26.75 18.75 -26.75 14.35 -30.75 10.0 -34.85 10.0 -40.5 10.0 -46.1 14.35 -50.15 18.75 -54.15 24.85 -54.15 30.95 -54.15 35.4 -50.15 39.75 -46.1 39.75 -40.5 39.75 -34.85 35.4 -30.75" fill="#cd7c1e" fill-rule="evenodd" stroke="none"/>
  </g>
</svg>
