<?xml version="1.0" encoding="UTF-8" standalone="no"?>
<svg xmlns:xlink="http://www.w3.org/1999/xlink" height="88.05px" width="182.2px" xmlns="http://www.w3.org/2000/svg">
  <g transform="matrix(1.0, 0.0, 0.0, 1.0, 91.35, 36.05)">
    <path d="M61.15 46.35 Q67.2 46.35 72.45 47.75 67.05 52.0 60.0 52.0 53.35 52.0 48.2 48.2 54.1 46.35 61.15 46.35" fill="#bf7926" fill-rule="evenodd" stroke="none"/>
    <path d="M-20.05 44.2 Q-12.05 44.2 -5.45 46.35 -12.25 52.0 -21.6 52.0 -30.35 52.0 -36.85 47.1 -29.4 44.2 -20.05 44.2" fill="#bf7926" fill-rule="evenodd" stroke="none"/>
    <path d="M62.45 17.25 Q51.3 20.65 41.6 19.75 43.0 17.05 45.25 14.7 51.35 8.3 60.0 8.3 67.4 8.3 72.95 13.0 68.15 15.5 62.45 17.25" fill="#bf7926" fill-rule="evenodd" stroke="none"/>
    <path d="M-21.6 8.3 Q-11.65 8.3 -4.65 14.7 -1.3 17.7 0.45 21.3 -9.3 23.0 -20.55 19.6 -29.2 16.95 -35.45 12.25 L-36.2 12.75 Q-29.9 8.3 -21.6 8.3" fill="#bf7926" fill-rule="evenodd" stroke="none"/>
    <path d="M88.95 -36.05 Q91.65 -19.1 90.5 -0.1 -2.05 7.3 -90.45 2.5 -92.65 -16.6 -89.5 -33.5 L88.95 -36.05" fill="#416409" fill-rule="evenodd" stroke="none"/>
  </g>
</svg>
