<?xml version="1.0" encoding="UTF-8" standalone="no"?>
<svg xmlns:xlink="http://www.w3.org/1999/xlink" height="298.1px" width="304.9px" xmlns="http://www.w3.org/2000/svg">
  <g transform="matrix(1.0, 0.0, 0.0, 1.0, 157.7, 195.05)">
    <path d="M-57.45 -117.7 Q85.15 -28.9 85.5 -28.9 94.25 -46.7 99.0 -69.5 108.6 -115.1 88.75 -140.45 79.0 -152.9 35.35 -173.0 13.5 -183.0 -6.35 -190.55 L17.75 -148.1 Q49.95 -153.05 71.9 -134.0 52.4 -149.3 20.6 -146.7 9.45 -145.85 -1.6 -142.85 -10.2 -140.55 -14.65 -138.25 17.05 -132.25 35.4 -123.6 60.05 -111.95 77.85 -89.4 48.65 -123.9 -19.3 -138.55 -33.25 -127.45 -57.45 -117.7" fill="#62594e" fill-rule="evenodd" stroke="none"/>
    <path d="M-57.45 -117.7 Q85.15 -28.9 85.5 -28.9 94.25 -46.7 99.0 -69.5 108.6 -115.1 88.75 -140.45 79.0 -152.9 35.35 -173.0 13.5 -183.0 -6.35 -190.55 L17.75 -148.1 Q49.95 -153.05 71.9 -134.0 52.4 -149.3 20.6 -146.7 9.45 -145.85 -1.6 -142.85 -10.2 -140.55 -14.65 -138.25 17.05 -132.25 35.4 -123.6 60.05 -111.95 77.85 -89.4 48.65 -123.9 -19.3 -138.55 -33.25 -127.45 -57.45 -117.7 Z" fill="none" stroke="#1c1a17" stroke-linecap="round" stroke-linejoin="round" stroke-width="9.0"/>
    <path d="M-57.45 -117.7 Q85.15 -28.9 85.5 -28.9 94.25 -46.7 99.0 -69.5 108.6 -115.1 88.75 -140.45 79.0 -152.9 35.35 -173.0 13.5 -183.0 -6.35 -190.55 L17.75 -148.1 Q49.95 -153.05 71.9 -134.0 52.4 -149.3 20.6 -146.7 9.45 -145.85 -1.6 -142.85 -10.2 -140.55 -14.65 -138.25 17.05 -132.25 35.4 -123.6 60.05 -111.95 77.85 -89.4 48.65 -123.9 -19.3 -138.55 -33.25 -127.45 -57.45 -117.7" fill="#62594e" fill-rule="evenodd" stroke="none"/>
    <path d="M64.05 -146.25 L67.75 -143.65 Q72.25 -140.2 76.2 -136.15 88.75 -123.2 90.75 -109.15 92.75 -95.1 81.8 -86.1 76.3 -81.55 70.4 -79.9 84.35 -71.05 99.35 -71.05 107.15 -109.9 93.25 -133.85 L93.2 -133.9 Q82.85 -143.4 64.05 -146.25" fill="#ffbf1e" fill-rule="evenodd" stroke="none"/>
    <path d="M23.1 -157.4 Q29.8 -164.95 27.85 -176.2 L27.9 -176.35 Q10.1 -184.3 -6.35 -190.55 L15.5 -151.95 Q19.85 -153.75 23.1 -157.4" fill="#ffbf1e" fill-rule="evenodd" stroke="none"/>
    <path d="M45.25 -126.3 Q46.2 -121.5 50.4 -117.8 54.55 -114.1 59.45 -113.7 64.3 -113.3 67.05 -116.35 69.8 -119.45 68.85 -124.25 67.8 -129.05 63.65 -132.75 59.45 -136.45 54.65 -136.85 49.75 -137.25 47.0 -134.15 44.25 -131.1 45.25 -126.3" fill="#ffbf1e" fill-rule="evenodd" stroke="none"/>
    <path d="M31.8 -131.45 Q-27.4 -151.45 -80.0 -133.4 -132.8 -115.4 -148.15 -69.95 -163.45 -24.5 -132.4 21.8 -101.5 68.05 -42.3 88.05 16.85 108.0 69.65 90.0 122.3 71.95 137.6 26.5 152.95 -18.95 122.05 -65.2 90.95 -111.5 31.8 -131.45" fill="#62594e" fill-rule="evenodd" stroke="none"/>
    <path d="M31.8 -131.45 Q-27.4 -151.45 -80.0 -133.4 -132.8 -115.4 -148.15 -69.95 -163.45 -24.5 -132.4 21.8 -101.5 68.05 -42.3 88.05 16.85 108.0 69.65 90.0 122.3 71.95 137.6 26.5 152.95 -18.95 122.05 -65.2 90.95 -111.5 31.8 -131.45 Z" fill="none" stroke="#1c1a17" stroke-linecap="round" stroke-linejoin="round" stroke-width="9.0"/>
    <path d="M31.8 -131.45 Q-27.4 -151.45 -80.0 -133.4 -132.8 -115.4 -148.15 -69.95 -163.45 -24.5 -132.4 21.8 -101.5 68.05 -42.3 88.05 16.85 108.0 69.65 90.0 122.3 71.95 137.6 26.5 152.95 -18.95 122.05 -65.2 90.95 -111.5 31.8 -131.45" fill="#413c35" fill-rule="evenodd" stroke="none"/>
  </g>
</svg>
