<?xml version="1.0" encoding="UTF-8" standalone="no"?>
<svg xmlns:xlink="http://www.w3.org/1999/xlink" height="41.55px" width="45.5px" xmlns="http://www.w3.org/2000/svg">
  <g transform="matrix(1.0, 0.0, 0.0, 1.0, 23.4, 19.45)">
    <path d="M-16.1 -14.25 Q-13.45 -14.25 -11.65 -12.4 -9.75 -10.55 -9.75 -7.95 -9.75 -5.3 -11.65 -3.5 -13.45 -1.6 -16.1 -1.6 -18.7 -1.6 -20.55 -3.5 -22.4 -5.3 -22.4 -7.95 -22.4 -10.55 -20.55 -12.4 -18.7 -14.25 -16.1 -14.25" fill="#d2f8ff" fill-rule="evenodd" stroke="none"/>
    <path d="M-16.1 -14.25 Q-13.45 -14.25 -11.65 -12.4 -9.75 -10.55 -9.75 -7.95 -9.75 -5.3 -11.65 -3.5 -13.45 -1.6 -16.1 -1.6 -18.7 -1.6 -20.55 -3.5 -22.4 -5.3 -22.4 -7.95 -22.4 -10.55 -20.55 -12.4 -18.7 -14.25 -16.1 -14.25 Z" fill="none" stroke="#8abfc9" stroke-linecap="round" stroke-linejoin="round" stroke-width="2.0"/>
    <path d="M2.4 -18.45 Q4.65 -18.45 6.2 -16.9 7.75 -15.3 7.75 -13.1 7.75 -10.9 6.2 -9.35 4.65 -7.75 2.4 -7.75 0.2 -7.75 -1.4 -9.35 -2.95 -10.9 -2.95 -13.1 -2.95 -15.3 -1.4 -16.9 0.2 -18.45 2.4 -18.45" fill="#d2f8ff" fill-rule="evenodd" stroke="none"/>
    <path d="M2.4 -18.45 Q4.65 -18.45 6.2 -16.9 7.75 -15.3 7.75 -13.1 7.75 -10.9 6.2 -9.35 4.65 -7.75 2.4 -7.75 0.2 -7.75 -1.4 -9.35 -2.95 -10.9 -2.95 -13.1 -2.95 -15.3 -1.4 -16.9 0.2 -18.45 2.4 -18.45 Z" fill="none" stroke="#8abfc9" stroke-linecap="round" stroke-linejoin="round" stroke-width="2.0"/>
    <path d="M13.55 -14.35 Q16.35 -14.35 18.25 -12.4 20.25 -10.4 20.25 -7.65 20.25 -4.85 18.25 -2.9 16.35 -0.95 13.55 -0.95 10.8 -0.95 8.8 -2.9 6.85 -4.85 6.85 -7.65 6.85 -10.4 8.8 -12.4 10.8 -14.35 13.55 -14.35" fill="#d2f8ff" fill-rule="evenodd" stroke="none"/>
    <path d="M13.55 -14.35 Q16.35 -14.35 18.25 -12.4 20.25 -10.4 20.25 -7.65 20.25 -4.85 18.25 -2.9 16.35 -0.95 13.55 -0.95 10.8 -0.95 8.8 -2.9 6.85 -4.85 6.85 -7.65 6.85 -10.4 8.8 -12.4 10.8 -14.35 13.55 -14.35 Z" fill="none" stroke="#8abfc9" stroke-linecap="round" stroke-linejoin="round" stroke-width="2.0"/>
    <path d="M7.8 -11.5 Q10.55 -11.5 12.5 -9.55 14.45 -7.6 14.45 -4.8 14.45 -2.05 12.5 -0.15 10.55 1.85 7.8 1.85 5.05 1.85 3.05 -0.15 1.15 -2.05 1.15 -4.8 1.15 -7.6 3.05 -9.55 5.05 -11.5 7.8 -11.5" fill="#d2f8ff" fill-rule="evenodd" stroke="none"/>
    <path d="M7.8 -11.5 Q10.55 -11.5 12.5 -9.55 14.45 -7.6 14.45 -4.8 14.45 -2.05 12.5 -0.15 10.55 1.85 7.8 1.85 5.05 1.85 3.05 -0.15 1.15 -2.05 1.15 -4.8 1.15 -7.6 3.05 -9.55 5.05 -11.5 7.8 -11.5 Z" fill="none" stroke="#8abfc9" stroke-linecap="round" stroke-linejoin="round" stroke-width="2.0"/>
    <path d="M-16.0 -2.65 Q-13.9 -2.65 -12.4 -1.2 -10.9 0.3 -10.9 2.45 -10.9 4.55 -12.4 6.05 -13.9 7.55 -16.0 7.55 -18.1 7.55 -19.65 6.05 -21.1 4.55 -21.1 2.45 -21.1 0.3 -19.65 -1.2 -18.1 -2.65 -16.0 -2.65" fill="#d2f8ff" fill-rule="evenodd" stroke="none"/>
    <path d="M-16.0 -2.65 Q-13.9 -2.65 -12.4 -1.2 -10.9 0.3 -10.9 2.45 -10.9 4.55 -12.4 6.05 -13.9 7.55 -16.0 7.55 -18.1 7.55 -19.65 6.05 -21.1 4.55 -21.1 2.45 -21.1 0.3 -19.65 -1.2 -18.1 -2.65 -16.0 -2.65 Z" fill="none" stroke="#8abfc9" stroke-linecap="round" stroke-linejoin="round" stroke-width="2.0"/>
    <path d="M-10.85 7.0 Q-8.1 7.0 -6.15 8.95 -4.2 10.9 -4.2 13.7 -4.2 16.45 -6.15 18.35 -8.1 20.35 -10.85 20.35 -13.6 20.35 -15.6 18.35 -17.5 16.45 -17.5 13.7 -17.5 10.9 -15.6 8.95 -13.6 7.0 -10.85 7.0" fill="#d2f8ff" fill-rule="evenodd" stroke="none"/>
    <path d="M-10.85 7.0 Q-8.1 7.0 -6.15 8.95 -4.2 10.9 -4.2 13.7 -4.2 16.45 -6.15 18.35 -8.1 20.35 -10.85 20.35 -13.6 20.35 -15.6 18.35 -17.5 16.45 -17.5 13.7 -17.5 10.9 -15.6 8.95 -13.6 7.0 -10.85 7.0 Z" fill="none" stroke="#8abfc9" stroke-linecap="round" stroke-linejoin="round" stroke-width="2.0"/>
    <path d="M-6.8 -2.8 Q-4.0 -2.8 -2.1 -0.85 -0.1 1.15 -0.1 3.9 -0.1 6.7 -2.1 8.65 -4.0 10.6 -6.8 10.6 -9.55 10.6 -11.55 8.65 -13.5 6.7 -13.5 3.9 -13.5 1.15 -11.55 -0.85 -9.55 -2.8 -6.8 -2.8" fill="#d2f8ff" fill-rule="evenodd" stroke="none"/>
    <path d="M-6.8 -2.8 Q-4.0 -2.8 -2.1 -0.85 -0.1 1.15 -0.1 3.9 -0.1 6.7 -2.1 8.65 -4.0 10.6 -6.8 10.6 -9.55 10.6 -11.55 8.65 -13.5 6.7 -13.5 3.9 -13.5 1.15 -11.55 -0.85 -9.55 -2.8 -6.8 -2.8 Z" fill="none" stroke="#8abfc9" stroke-linecap="round" stroke-linejoin="round" stroke-width="2.0"/>
    <path d="M1.4 4.85 Q4.15 4.85 6.1 6.8 8.05 8.75 8.05 11.55 8.05 14.3 6.1 16.2 4.15 18.2 1.4 18.2 -1.35 18.2 -3.35 16.2 -5.25 14.3 -5.25 11.55 -5.25 8.75 -3.35 6.8 -1.35 4.85 1.4 4.85" fill="#d2f8ff" fill-rule="evenodd" stroke="none"/>
    <path d="M1.4 4.85 Q4.15 4.85 6.1 6.8 8.05 8.75 8.05 11.55 8.05 14.3 6.1 16.2 4.15 18.2 1.4 18.2 -1.35 18.2 -3.35 16.2 -5.25 14.3 -5.25 11.55 -5.25 8.75 -3.35 6.8 -1.35 4.85 1.4 4.85 Z" fill="none" stroke="#8abfc9" stroke-linecap="round" stroke-linejoin="round" stroke-width="2.0"/>
    <path d="M13.85 0.4 Q16.85 0.4 18.95 2.5 21.1 4.65 21.1 7.6 21.1 10.6 18.95 12.7 16.85 14.85 13.85 14.85 10.85 14.85 8.7 12.7 6.6 10.6 6.6 7.6 6.6 4.65 8.7 2.5 10.85 0.4 13.85 0.4" fill="#d2f8ff" fill-rule="evenodd" stroke="none"/>
    <path d="M13.85 0.4 Q16.85 0.4 18.95 2.5 21.1 4.65 21.1 7.6 21.1 10.6 18.95 12.7 16.85 14.85 13.85 14.85 10.85 14.85 8.7 12.7 6.6 10.6 6.6 7.6 6.6 4.65 8.7 2.5 10.85 0.4 13.85 0.4 Z" fill="none" stroke="#8abfc9" stroke-linecap="round" stroke-linejoin="round" stroke-width="2.0"/>
    <path d="M3.7 -4.9 Q6.45 -4.9 8.4 -2.95 10.35 -1.0 10.35 1.8 10.35 4.55 8.4 6.45 6.45 8.45 3.7 8.45 0.95 8.45 -1.05 6.45 -2.95 4.55 -2.95 1.8 -2.95 -1.0 -1.05 -2.95 0.95 -4.9 3.7 -4.9" fill="#d2f8ff" fill-rule="evenodd" stroke="none"/>
    <path d="M3.7 -4.9 Q6.45 -4.9 8.4 -2.95 10.35 -1.0 10.35 1.8 10.35 4.55 8.4 6.45 6.45 8.45 3.7 8.45 0.95 8.45 -1.05 6.45 -2.95 4.55 -2.95 1.8 -2.95 -1.0 -1.05 -2.95 0.95 -4.9 3.7 -4.9 Z" fill="none" stroke="#8abfc9" stroke-linecap="round" stroke-linejoin="round" stroke-width="2.0"/>
    <path d="M10.15 10.15 Q12.45 10.15 14.0 11.75 15.65 13.35 15.65 15.6 15.65 17.9 14.0 19.45 12.45 21.1 10.15 21.1 7.9 21.1 6.3 19.45 4.7 17.9 4.7 15.6 4.7 13.35 6.3 11.75 7.9 10.15 10.15 10.15" fill="#d2f8ff" fill-rule="evenodd" stroke="none"/>
    <path d="M10.15 10.15 Q12.45 10.15 14.0 11.75 15.65 13.35 15.65 15.6 15.65 17.9 14.0 19.45 12.45 21.1 10.15 21.1 7.9 21.1 6.3 19.45 4.7 17.9 4.7 15.6 4.7 13.35 6.3 11.75 7.9 10.15 10.15 10.15 Z" fill="none" stroke="#8abfc9" stroke-linecap="round" stroke-linejoin="round" stroke-width="2.0"/>
    <path d="M-6.0 -15.5 Q-2.45 -15.5 0.05 -13.0 2.65 -10.4 2.65 -6.85 2.65 -3.25 0.05 -0.75 -2.45 1.8 -6.0 1.8 -9.6 1.8 -12.15 -0.75 -14.7 -3.25 -14.7 -6.85 -14.7 -10.4 -12.15 -13.0 -9.6 -15.5 -6.0 -15.5" fill="#d2f8ff" fill-rule="evenodd" stroke="none"/>
    <path d="M-6.0 -15.5 Q-2.45 -15.5 0.05 -13.0 2.65 -10.4 2.65 -6.85 2.65 -3.25 0.05 -0.75 -2.45 1.8 -6.0 1.8 -9.6 1.8 -12.15 -0.75 -14.7 -3.25 -14.7 -6.85 -14.7 -10.4 -12.15 -13.0 -9.6 -15.5 -6.0 -15.5 Z" fill="none" stroke="#8abfc9" stroke-linecap="round" stroke-linejoin="round" stroke-width="2.0"/>
    <path d="M-3.6 -12.7 Q1.8 -9.35 -1.4 -2.95" fill="none" stroke="#ffffff" stroke-linecap="round" stroke-linejoin="round" stroke-width="2.0"/>
    <path d="M-3.35 -0.45 Q-3.65 -0.45 -3.9 -0.7 L-4.1 -1.25 -3.9 -1.8 -3.35 -2.0 -2.8 -1.8 -2.55 -1.25 -2.8 -0.7 Q-3.0 -0.45 -3.35 -0.45" fill="#ffffff" fill-rule="evenodd" stroke="none"/>
    <path d="M5.0 5.9 Q8.5 4.15 7.9 0.1" fill="none" stroke="#ffffff" stroke-linecap="round" stroke-linejoin="round" stroke-width="2.0"/>
    <path d="M7.2 -9.15 Q10.35 -9.3 11.7 -6.2" fill="none" stroke="#ffffff" stroke-linecap="round" stroke-linejoin="round" stroke-width="2.0"/>
    <path d="M13.4 2.95 Q18.05 2.65 18.85 7.8" fill="none" stroke="#ffffff" stroke-linecap="round" stroke-linejoin="round" stroke-width="2.0"/>
    <path d="M16.5 -11.05 Q18.9 -8.95 17.7 -5.85" fill="none" stroke="#ffffff" stroke-linecap="round" stroke-linejoin="round" stroke-width="2.0"/>
    <path d="M11.5 14.05 Q11.2 14.05 10.95 13.8 L10.75 13.3 10.95 12.75 Q11.2 12.5 11.5 12.5 L12.05 12.75 12.3 13.3 12.05 13.8 11.5 14.05" fill="#ffffff" fill-rule="evenodd" stroke="none"/>
    <path d="M12.45 17.95 Q11.8 17.95 11.3 17.45 10.8 16.95 10.8 16.25 10.8 15.6 11.3 15.1 11.8 14.6 12.45 14.6 13.1 14.6 13.65 15.1 14.15 15.6 14.15 16.25 14.15 16.95 13.65 17.45 13.1 17.95 12.45 17.95" fill="#ffffff" fill-rule="evenodd" stroke="none"/>
    <path d="M-2.45 9.55 Q-3.15 14.0 -0.45 15.4" fill="none" stroke="#ffffff" stroke-linecap="round" stroke-linejoin="round" stroke-width="2.0"/>
    <path d="M-10.95 2.45 Q-11.4 5.0 -10.65 6.45" fill="none" stroke="#ffffff" stroke-linecap="round" stroke-linejoin="round" stroke-width="2.0"/>
    <path d="M-9.05 8.8 L-9.6 8.55 -9.8 8.0 -9.6 7.45 -9.05 7.25 -8.5 7.45 -8.25 8.0 -8.5 8.55 -9.05 8.8" fill="#ffffff" fill-rule="evenodd" stroke="none"/>
    <path d="M-14.8 11.6 Q-15.5 16.05 -12.8 17.45" fill="none" stroke="#ffffff" stroke-linecap="round" stroke-linejoin="round" stroke-width="2.0"/>
    <path d="M-17.6 2.9 Q-18.25 2.9 -18.75 2.4 -19.25 1.9 -19.25 1.2 -19.25 0.55 -18.75 0.05 -18.25 -0.45 -17.6 -0.45 -16.95 -0.45 -16.4 0.05 -15.9 0.55 -15.9 1.2 -15.9 1.9 -16.4 2.4 -16.95 2.9 -17.6 2.9" fill="#ffffff" fill-rule="evenodd" stroke="none"/>
    <path d="M-18.7 4.35 L-19.25 4.1 -19.45 3.6 -19.25 3.05 -18.7 2.8 Q-18.4 2.8 -18.15 3.05 -17.9 3.25 -17.9 3.6 L-18.15 4.1 -18.7 4.35" fill="#ffffff" fill-rule="evenodd" stroke="none"/>
    <path d="M-20.05 -6.6 Q-20.35 -9.05 -18.7 -10.8" fill="none" stroke="#ffffff" stroke-linecap="round" stroke-linejoin="round" stroke-width="2.0"/>
    <path d="M-16.65 -11.0 L-17.2 -11.25 -17.4 -11.8 -17.2 -12.35 -16.65 -12.55 -16.1 -12.35 -15.85 -11.8 -16.1 -11.25 Q-16.3 -11.0 -16.65 -11.0" fill="#ffffff" fill-rule="evenodd" stroke="none"/>
    <path d="M4.95 -13.25 Q4.65 -13.25 4.4 -13.5 L4.2 -14.05 4.4 -14.6 4.95 -14.8 5.5 -14.6 5.75 -14.05 5.5 -13.5 Q5.3 -13.25 4.95 -13.25" fill="#ffffff" fill-rule="evenodd" stroke="none"/>
    <path d="M2.55 -13.85 Q1.9 -13.85 1.4 -14.35 0.9 -14.85 0.9 -15.55 0.9 -16.2 1.4 -16.7 1.9 -17.2 2.55 -17.2 3.2 -17.2 3.75 -16.7 4.25 -16.2 4.25 -15.55 4.25 -14.85 3.75 -14.35 3.2 -13.85 2.55 -13.85" fill="#ffffff" fill-rule="evenodd" stroke="none"/>
  </g>
</svg>
