<?xml version="1.0" encoding="UTF-8" standalone="no"?>
<svg xmlns:xlink="http://www.w3.org/1999/xlink" height="54.55px" width="58.85px" xmlns="http://www.w3.org/2000/svg">
  <g transform="matrix(1.0, 0.0, 0.0, 1.0, 29.7, 27.25)">
    <path d="M22.55 -6.6 Q22.65 -5.1 21.05 -2.5 19.2 0.55 18.95 1.8 18.65 3.2 20.4 6.55 22.25 10.1 22.1 12.55 21.95 16.4 18.35 20.5 14.4 24.95 10.15 24.95 7.0 24.95 2.95 22.4 -0.95 19.9 -3.3 20.15 L-9.9 22.0 Q-13.35 23.05 -15.5 21.2 -17.55 19.35 -18.1 16.6 -18.7 13.6 -19.3 13.0 L-24.2 10.05 Q-27.85 7.6 -27.7 3.9 -27.6 0.4 -24.3 -2.65 -20.55 -6.15 -20.15 -7.45 L-18.9 -13.75 Q-18.15 -17.65 -16.15 -19.45 -14.1 -21.2 -11.75 -19.95 L-7.5 -17.75 Q-6.2 -17.5 -4.05 -19.5 -1.65 -21.75 1.95 -21.75 6.3 -21.75 9.65 -19.95 11.8 -18.85 15.4 -15.65 L20.3 -10.9 Q22.4 -8.45 22.55 -6.6" fill="#f3dabd" fill-rule="evenodd" stroke="none"/>
    <path d="M22.55 -6.6 Q22.65 -5.1 21.05 -2.5 19.2 0.55 18.95 1.8 18.65 3.2 20.4 6.55 22.25 10.1 22.1 12.55 21.95 16.4 18.35 20.5 14.4 24.95 10.15 24.95 7.0 24.95 2.95 22.4 -0.95 19.9 -3.3 20.15 L-9.9 22.0 Q-13.35 23.05 -15.5 21.2 -17.55 19.35 -18.1 16.6 -18.7 13.6 -19.3 13.0 L-24.2 10.05 Q-27.85 7.6 -27.7 3.9 -27.6 0.4 -24.3 -2.65 -20.55 -6.15 -20.15 -7.45 L-18.9 -13.75 Q-18.15 -17.65 -16.15 -19.45 -14.1 -21.2 -11.75 -19.95 L-7.5 -17.75 Q-6.2 -17.5 -4.05 -19.5 -1.65 -21.75 1.95 -21.75 6.3 -21.75 9.65 -19.95 11.8 -18.85 15.4 -15.65 L20.3 -10.9 Q22.4 -8.45 22.55 -6.6 Z" fill="none" stroke="#8abfc9" stroke-linecap="round" stroke-linejoin="round" stroke-width="4.0"/>
    <path d="M22.55 -6.6 Q22.65 -5.1 21.05 -2.5 19.2 0.55 18.95 1.8 18.65 3.2 20.4 6.55 22.25 10.1 22.1 12.55 21.95 16.4 18.35 20.5 14.4 24.95 10.15 24.95 7.0 24.95 2.95 22.4 -0.95 19.9 -3.3 20.15 L-9.9 22.0 Q-13.35 23.05 -15.5 21.2 -17.55 19.35 -18.1 16.6 -18.7 13.6 -19.3 13.0 L-24.2 10.05 Q-27.85 7.6 -27.7 3.9 -27.6 0.4 -24.3 -2.65 -20.55 -6.15 -20.15 -7.45 L-18.9 -13.75 Q-18.15 -17.65 -16.15 -19.45 -14.1 -21.2 -11.75 -19.95 L-7.5 -17.75 Q-6.2 -17.5 -4.05 -19.5 -1.65 -21.75 1.95 -21.75 6.3 -21.75 9.65 -19.95 11.8 -18.85 15.4 -15.65 L20.3 -10.9 Q22.4 -8.45 22.55 -6.6" fill="#d2f8ff" fill-rule="evenodd" stroke="none"/>
    <path d="M2.6 26.3 Q1.35 26.3 0.5 25.4 -0.4 24.55 -0.4 23.3 -0.4 22.1 0.5 21.2 1.35 20.35 2.6 20.35 3.8 20.35 4.7 21.2 5.55 22.1 5.55 23.3 5.55 24.55 4.7 25.4 3.8 26.3 2.6 26.3" fill="#d2f8ff" fill-rule="evenodd" stroke="none"/>
    <path d="M2.6 26.3 Q1.35 26.3 0.5 25.4 -0.4 24.55 -0.4 23.3 -0.4 22.1 0.5 21.2 1.35 20.35 2.6 20.35 3.8 20.35 4.7 21.2 5.55 22.1 5.55 23.3 5.55 24.55 4.7 25.4 3.8 26.3 2.6 26.3 Z" fill="none" stroke="#8abfc9" stroke-linecap="round" stroke-linejoin="round" stroke-width="2.0"/>
    <path d="M26.75 10.45 Q26.15 10.45 25.75 10.05 25.35 9.65 25.35 9.05 25.35 8.45 25.75 8.05 26.15 7.65 26.75 7.65 27.35 7.65 27.75 8.05 28.15 8.45 28.15 9.05 28.15 9.65 27.75 10.05 27.35 10.45 26.75 10.45" fill="#d2f8ff" fill-rule="evenodd" stroke="none"/>
    <path d="M26.75 10.45 Q26.15 10.45 25.75 10.05 25.35 9.65 25.35 9.05 25.35 8.45 25.75 8.05 26.15 7.65 26.75 7.65 27.35 7.65 27.75 8.05 28.15 8.45 28.15 9.05 28.15 9.65 27.75 10.05 27.35 10.45 26.75 10.45 Z" fill="none" stroke="#8abfc9" stroke-linecap="round" stroke-linejoin="round" stroke-width="2.0"/>
    <path d="M-14.5 -21.35 Q-15.5 -21.35 -16.25 -22.1 -16.95 -22.8 -16.95 -23.8 -16.95 -24.8 -16.25 -25.55 -15.5 -26.25 -14.5 -26.25 -13.5 -26.25 -12.8 -25.55 -12.05 -24.8 -12.05 -23.8 -12.05 -22.8 -12.8 -22.1 -13.5 -21.35 -14.5 -21.35" fill="#d2f8ff" fill-rule="evenodd" stroke="none"/>
    <path d="M-14.5 -21.35 Q-15.5 -21.35 -16.25 -22.1 -16.95 -22.8 -16.95 -23.8 -16.95 -24.8 -16.25 -25.55 -15.5 -26.25 -14.5 -26.25 -13.5 -26.25 -12.8 -25.55 -12.05 -24.8 -12.05 -23.8 -12.05 -22.8 -12.8 -22.1 -13.5 -21.35 -14.5 -21.35 Z" fill="none" stroke="#8abfc9" stroke-linecap="round" stroke-linejoin="round" stroke-width="2.0"/>
    <path d="M-16.1 -1.6 Q-18.7 -1.6 -20.55 -3.5 -22.4 -5.3 -22.4 -7.95 -22.4 -10.55 -20.55 -12.4 -18.7 -14.25 -16.1 -14.25 -13.45 -14.25 -11.65 -12.4 -9.75 -10.55 -9.75 -7.95 -9.75 -5.3 -11.65 -3.5 -13.45 -1.6 -16.1 -1.6" fill="#d2f8ff" fill-rule="evenodd" stroke="none"/>
    <path d="M-16.1 -1.6 Q-18.7 -1.6 -20.55 -3.5 -22.4 -5.3 -22.4 -7.95 -22.4 -10.55 -20.55 -12.4 -18.7 -14.25 -16.1 -14.25 -13.45 -14.25 -11.65 -12.4 -9.75 -10.55 -9.75 -7.95 -9.75 -5.3 -11.65 -3.5 -13.45 -1.6 -16.1 -1.6 Z" fill="none" stroke="#8abfc9" stroke-linecap="round" stroke-linejoin="round" stroke-width="2.0"/>
    <path d="M2.4 -7.75 Q0.2 -7.75 -1.4 -9.35 -2.95 -10.9 -2.95 -13.1 -2.95 -15.3 -1.4 -16.9 0.2 -18.45 2.4 -18.45 4.65 -18.45 6.2 -16.9 7.75 -15.3 7.75 -13.1 7.75 -10.9 6.2 -9.35 4.65 -7.75 2.4 -7.75" fill="#d2f8ff" fill-rule="evenodd" stroke="none"/>
    <path d="M2.4 -7.75 Q0.2 -7.75 -1.4 -9.35 -2.95 -10.9 -2.95 -13.1 -2.95 -15.3 -1.4 -16.9 0.2 -18.45 2.4 -18.45 4.65 -18.45 6.2 -16.9 7.75 -15.3 7.75 -13.1 7.75 -10.9 6.2 -9.35 4.65 -7.75 2.4 -7.75 Z" fill="none" stroke="#8abfc9" stroke-linecap="round" stroke-linejoin="round" stroke-width="2.0"/>
    <path d="M13.55 -0.95 Q10.8 -0.95 8.8 -2.9 6.85 -4.85 6.85 -7.65 6.85 -10.4 8.8 -12.4 10.8 -14.35 13.55 -14.35 16.35 -14.35 18.25 -12.4 20.25 -10.4 20.25 -7.65 20.25 -4.85 18.25 -2.9 16.35 -0.95 13.55 -0.95" fill="#d2f8ff" fill-rule="evenodd" stroke="none"/>
    <path d="M13.55 -0.95 Q10.8 -0.95 8.8 -2.9 6.85 -4.85 6.85 -7.65 6.85 -10.4 8.8 -12.4 10.8 -14.35 13.55 -14.35 16.35 -14.35 18.25 -12.4 20.25 -10.4 20.25 -7.65 20.25 -4.85 18.25 -2.9 16.35 -0.95 13.55 -0.95 Z" fill="none" stroke="#8abfc9" stroke-linecap="round" stroke-linejoin="round" stroke-width="2.0"/>
    <path d="M7.8 1.85 Q5.05 1.85 3.05 -0.15 1.15 -2.05 1.15 -4.8 1.15 -7.6 3.05 -9.55 5.05 -11.5 7.8 -11.5 10.55 -11.5 12.5 -9.55 14.45 -7.6 14.45 -4.8 14.45 -2.05 12.5 -0.15 10.55 1.85 7.8 1.85" fill="#d2f8ff" fill-rule="evenodd" stroke="none"/>
    <path d="M7.8 1.85 Q5.05 1.85 3.05 -0.15 1.15 -2.05 1.15 -4.8 1.15 -7.6 3.05 -9.55 5.05 -11.5 7.8 -11.5 10.55 -11.5 12.5 -9.55 14.45 -7.6 14.45 -4.8 14.45 -2.05 12.5 -0.15 10.55 1.85 7.8 1.85 Z" fill="none" stroke="#8abfc9" stroke-linecap="round" stroke-linejoin="round" stroke-width="2.0"/>
    <path d="M-6.8 10.6 Q-9.55 10.6 -11.55 8.65 -13.5 6.7 -13.5 3.9 -13.5 1.15 -11.55 -0.85 -9.55 -2.8 -6.8 -2.8 -4.0 -2.8 -2.1 -0.85 -0.1 1.15 -0.1 3.9 -0.1 6.7 -2.1 8.65 -4.0 10.6 -6.8 10.6" fill="#d2f8ff" fill-rule="evenodd" stroke="none"/>
    <path d="M-6.8 10.6 Q-9.55 10.6 -11.55 8.65 -13.5 6.7 -13.5 3.9 -13.5 1.15 -11.55 -0.85 -9.55 -2.8 -6.8 -2.8 -4.0 -2.8 -2.1 -0.85 -0.1 1.15 -0.1 3.9 -0.1 6.7 -2.1 8.65 -4.0 10.6 -6.8 10.6 Z" fill="none" stroke="#8abfc9" stroke-linecap="round" stroke-linejoin="round" stroke-width="2.0"/>
    <path d="M13.85 14.85 Q10.85 14.85 8.7 12.7 6.6 10.6 6.6 7.6 6.6 4.65 8.7 2.5 10.85 0.4 13.85 0.4 16.85 0.4 18.95 2.5 21.1 4.65 21.1 7.6 21.1 10.6 18.95 12.7 16.85 14.85 13.85 14.85" fill="#d2f8ff" fill-rule="evenodd" stroke="none"/>
    <path d="M13.85 14.85 Q10.85 14.85 8.7 12.7 6.6 10.6 6.6 7.6 6.6 4.65 8.7 2.5 10.85 0.4 13.85 0.4 16.85 0.4 18.95 2.5 21.1 4.65 21.1 7.6 21.1 10.6 18.95 12.7 16.85 14.85 13.85 14.85 Z" fill="none" stroke="#8abfc9" stroke-linecap="round" stroke-linejoin="round" stroke-width="2.0"/>
    <path d="M3.7 8.45 Q0.95 8.45 -1.05 6.45 -2.95 4.55 -2.95 1.8 -2.95 -1.0 -1.05 -2.95 0.95 -4.9 3.7 -4.9 6.45 -4.9 8.4 -2.95 10.35 -1.0 10.35 1.8 10.35 4.55 8.4 6.45 6.45 8.45 3.7 8.45" fill="#d2f8ff" fill-rule="evenodd" stroke="none"/>
    <path d="M3.7 8.45 Q0.95 8.45 -1.05 6.45 -2.95 4.55 -2.95 1.8 -2.95 -1.0 -1.05 -2.95 0.95 -4.9 3.7 -4.9 6.45 -4.9 8.4 -2.95 10.35 -1.0 10.35 1.8 10.35 4.55 8.4 6.45 6.45 8.45 3.7 8.45 Z" fill="none" stroke="#8abfc9" stroke-linecap="round" stroke-linejoin="round" stroke-width="2.0"/>
    <path d="M5.0 5.9 Q8.5 4.15 7.9 0.1" fill="none" stroke="#ffffff" stroke-linecap="round" stroke-linejoin="round" stroke-width="2.0"/>
    <path d="M7.2 -9.15 Q10.35 -9.3 11.7 -6.2" fill="none" stroke="#ffffff" stroke-linecap="round" stroke-linejoin="round" stroke-width="2.0"/>
    <path d="M13.4 2.95 Q18.05 2.65 18.85 7.8" fill="none" stroke="#ffffff" stroke-linecap="round" stroke-linejoin="round" stroke-width="2.0"/>
    <path d="M16.5 -11.05 Q18.9 -8.95 17.7 -5.85" fill="none" stroke="#ffffff" stroke-linecap="round" stroke-linejoin="round" stroke-width="2.0"/>
    <path d="M-10.95 2.45 Q-11.4 5.0 -10.65 6.45" fill="none" stroke="#ffffff" stroke-linecap="round" stroke-linejoin="round" stroke-width="2.0"/>
    <path d="M-8.5 8.55 L-9.05 8.8 -9.6 8.55 -9.8 8.0 -9.6 7.45 -9.05 7.25 -8.5 7.45 -8.25 8.0 -8.5 8.55" fill="#ffffff" fill-rule="evenodd" stroke="none"/>
    <path d="M-20.05 -6.6 Q-20.35 -9.05 -18.7 -10.8" fill="none" stroke="#ffffff" stroke-linecap="round" stroke-linejoin="round" stroke-width="2.0"/>
    <path d="M-16.1 -11.25 Q-16.3 -11.0 -16.65 -11.0 L-17.2 -11.25 -17.4 -11.8 -17.2 -12.35 -16.65 -12.55 -16.1 -12.35 -15.85 -11.8 -16.1 -11.25" fill="#ffffff" fill-rule="evenodd" stroke="none"/>
    <path d="M5.5 -13.5 Q5.3 -13.25 4.95 -13.25 4.65 -13.25 4.4 -13.5 L4.2 -14.05 4.4 -14.6 4.95 -14.8 5.5 -14.6 5.75 -14.05 5.5 -13.5" fill="#ffffff" fill-rule="evenodd" stroke="none"/>
    <path d="M3.75 -14.35 Q3.2 -13.85 2.55 -13.85 1.9 -13.85 1.4 -14.35 0.9 -14.85 0.9 -15.55 0.9 -16.2 1.4 -16.7 1.9 -17.2 2.55 -17.2 3.2 -17.2 3.75 -16.7 4.25 -16.2 4.25 -15.55 4.25 -14.85 3.75 -14.35" fill="#ffffff" fill-rule="evenodd" stroke="none"/>
  </g>
</svg>
