<?xml version="1.0" encoding="UTF-8" standalone="no"?>
<svg xmlns:xlink="http://www.w3.org/1999/xlink" height="128.0px" width="133.45px" xmlns="http://www.w3.org/2000/svg">
  <g transform="matrix(1.0, 0.0, 0.0, 1.0, -32.85, 38.1)">
    <path d="M150.6 -35.05 L151.95 -38.1 Q158.95 -35.4 163.0 -28.65 166.95 -22.05 166.2 -14.7 L162.65 -13.85 Q164.0 -20.7 160.25 -27.0 156.65 -33.0 150.6 -35.05" fill="#121212" fill-rule="evenodd" stroke="none"/>
    <path d="M162.65 -13.85 L156.45 -12.25 157.05 -19.5 143.95 -21.15 150.6 -35.05 Q156.65 -33.0 160.25 -27.0 164.0 -20.7 162.65 -13.85" fill="#232222" fill-rule="evenodd" stroke="none"/>
    <path d="M134.55 82.0 Q141.4 82.9 147.45 78.75 153.2 74.75 154.9 68.55 L158.05 69.7 Q155.8 76.9 149.3 81.4 143.0 85.75 135.6 85.5 L134.55 82.0" fill="#121212" fill-rule="evenodd" stroke="none"/>
    <path d="M154.9 68.55 Q153.2 74.75 147.45 78.75 141.4 82.9 134.55 82.0 L132.55 75.95 139.8 76.0 140.55 62.9 154.9 68.55" fill="#232222" fill-rule="evenodd" stroke="none"/>
    <path d="M36.9 68.2 L32.85 69.65 Q35.75 78.9 44.05 84.65 52.15 90.25 61.65 89.9 L63.05 85.45 Q54.2 86.6 46.45 81.2 39.05 76.05 36.9 68.2" fill="#121212" fill-rule="evenodd" stroke="none"/>
    <path d="M63.05 85.45 L65.65 77.65 56.25 77.75 55.3 60.85 36.9 68.2 Q39.05 76.05 46.45 81.2 54.2 86.6 63.05 85.45" fill="#232222" fill-rule="evenodd" stroke="none"/>
    <path d="M112.45 71.85 Q109.15 75.6 103.85 76.2 98.85 76.8 95.0 74.25 L93.8 76.4 Q98.45 79.25 104.1 78.55 109.6 77.9 113.55 74.2 L112.45 71.85" fill="#121212" fill-rule="evenodd" stroke="none"/>
    <path d="M95.0 74.25 Q98.85 76.8 103.85 76.2 109.15 75.6 112.45 71.85 L110.6 67.55 106.75 71.1 100.0 64.35 95.0 74.25" fill="#232222" fill-rule="evenodd" stroke="none"/>
  </g>
</svg>
