<?xml version="1.0" encoding="UTF-8" standalone="no"?>
<svg xmlns:xlink="http://www.w3.org/1999/xlink" height="9.5px" width="76.45px" xmlns="http://www.w3.org/2000/svg">
  <g transform="matrix(1.0, 0.0, 0.0, 1.0, 38.2, 4.75)">
    <path d="M-28.2 0.0 Q-28.2 2.0 -29.65 3.35 -31.1 4.75 -33.2 4.75 -35.25 4.75 -36.7 3.35 -38.2 2.0 -38.2 0.0 -38.2 -1.95 -36.7 -3.35 -35.25 -4.75 -33.2 -4.75 -31.1 -4.75 -29.65 -3.35 -28.2 -1.95 -28.2 0.0" fill="#000000" fill-rule="evenodd" stroke="none"/>
    <path d="M-34.1 -1.8 Q-34.1 -1.25 -34.5 -0.85 -34.95 -0.45 -35.5 -0.45 -36.1 -0.45 -36.55 -0.85 -36.95 -1.25 -36.95 -1.8 -36.95 -2.35 -36.55 -2.75 -36.1 -3.15 -35.5 -3.15 -34.95 -3.15 -34.5 -2.75 -34.1 -2.35 -34.1 -1.8" fill="#ffffff" fill-rule="evenodd" stroke="none"/>
    <path d="M38.25 0.0 Q38.25 2.0 37.0 3.35 35.75 4.75 33.95 4.75 32.15 4.75 30.85 3.35 29.6 2.0 29.6 0.0 29.6 -1.95 30.85 -3.35 32.15 -4.75 33.95 -4.75 35.75 -4.75 37.0 -3.35 38.25 -1.95 38.25 0.0" fill="#000000" fill-rule="evenodd" stroke="none"/>
    <path d="M33.15 -1.8 Q33.15 -1.25 32.8 -0.85 32.45 -0.45 31.9 -0.45 31.4 -0.45 31.05 -0.85 30.65 -1.25 30.65 -1.8 30.65 -2.35 31.05 -2.75 31.4 -3.15 31.9 -3.15 32.45 -3.15 32.8 -2.75 L33.15 -1.8" fill="#ffffff" fill-rule="evenodd" stroke="none"/>
  </g>
</svg>
