<?xml version="1.0" encoding="UTF-8" standalone="no"?>
<svg xmlns:xlink="http://www.w3.org/1999/xlink" height="99.05px" width="47.9px" xmlns="http://www.w3.org/2000/svg">
  <g transform="matrix(1.0, 0.0, 0.0, 1.0, -19.3, 15.0)">
    <path d="M66.7 64.4 Q65.2 58.0 59.6 54.55 54.0 51.1 47.6 52.6 41.15 54.15 37.7 59.7 34.2 65.3 35.75 71.75 37.25 78.15 42.85 81.6 48.45 85.05 54.85 83.55 61.3 82.05 64.8 76.45 68.25 70.9 66.7 64.4" fill="#5f5f5f" fill-rule="evenodd" stroke="none"/>
    <path d="M53.95 60.9 Q58.85 30.7 41.6 8.05 36.45 1.15 29.3 -5.0" fill="none" stroke="#727272" stroke-linecap="round" stroke-linejoin="round" stroke-width="20.0"/>
    <path d="M38.15 67.05 Q39.7 73.45 45.3 77.0 50.9 80.4 57.3 78.85 63.15 77.55 66.5 72.9 L64.85 76.5 Q61.35 82.05 54.95 83.55 48.45 85.1 42.9 81.65 37.3 78.2 35.75 71.7 34.25 65.3 37.75 59.7 L38.45 58.7 Q37.15 62.7 38.15 67.05" fill="#383838" fill-rule="evenodd" stroke="none"/>
    <path d="M28.5 -14.95 Q32.6 -15.3 35.85 -12.6 43.8 -5.7 49.6 2.05 L49.55 2.0 Q69.45 27.95 63.85 62.55 63.15 66.55 59.8 69.0 L58.65 69.75 Q58.35 67.65 58.7 65.45 64.55 29.45 44.2 2.45 L44.2 2.35 Q37.75 -6.0 29.0 -13.6 L27.7 -14.85 28.5 -14.95" fill="#9c9c9c" fill-rule="evenodd" stroke="none"/>
  </g>
</svg>
