<?xml version="1.0" encoding="UTF-8" standalone="no"?>
<svg xmlns:xlink="http://www.w3.org/1999/xlink" height="81.15px" width="182.2px" xmlns="http://www.w3.org/2000/svg">
  <g transform="matrix(1.0, 0.0, 0.0, 1.0, 91.35, 36.05)">
    <path d="M-1.4 21.9 Q-10.3 14.55 -24.1 12.25 -36.7 10.1 -46.85 13.2 -45.2 10.3 -42.45 7.8 -35.4 1.4 -25.4 1.4 -15.45 1.4 -8.45 7.8 -1.9 13.7 -1.4 21.9" fill="#bf7926" fill-rule="evenodd" stroke="none"/>
    <path d="M70.95 7.8 Q77.05 14.2 77.05 23.25 77.05 32.3 70.95 38.7 64.85 45.1 56.2 45.1 47.55 45.1 41.45 38.7 35.3 32.3 35.3 23.25 35.3 14.2 41.45 7.8 47.55 1.4 56.2 1.4 64.85 1.4 70.95 7.8" fill="#bf7926" fill-rule="evenodd" stroke="none"/>
    <path d="M-9.1 39.3 Q-15.95 45.1 -25.4 45.1 -35.4 45.1 -42.45 38.7 L-44.5 36.65 Q-35.55 33.7 -24.55 35.0 -15.9 36.0 -9.1 39.3" fill="#bf7926" fill-rule="evenodd" stroke="none"/>
    <path d="M75.35 21.25 L76.6 22.5 71.4 21.5 Q64.8 20.8 57.45 22.7 50.15 24.6 43.7 28.4 40.45 30.3 38.65 31.85 39.25 29.65 41.7 26.95 46.5 21.45 55.65 18.5 64.8 15.65 71.65 18.75 73.75 19.8 75.35 21.25 M48.8 13.95 L50.6 14.0 51.25 14.25 49.1 15.15 Q46.45 16.5 43.95 19.1 41.4 21.65 39.45 24.85 L38.0 27.5 Q37.9 26.5 38.5 24.8 39.6 21.3 42.7 17.85 45.8 14.4 48.8 13.95" fill="#8e4d00" fill-rule="evenodd" stroke="none"/>
    <path d="M88.95 -36.05 Q91.65 -19.1 90.5 -0.1 -2.05 7.3 -90.45 2.5 -92.65 -16.6 -89.5 -33.5 L88.95 -36.05" fill="#23608e" fill-rule="evenodd" stroke="none"/>
  </g>
</svg>
