<?xml version="1.0" encoding="UTF-8" standalone="no"?>
<svg xmlns:xlink="http://www.w3.org/1999/xlink" height="58.4px" width="77.65px" xmlns="http://www.w3.org/2000/svg">
  <g transform="matrix(1.0, 0.0, 0.0, 1.0, 95.95, -87.3)">
    <path d="M-74.25 111.4 Q-74.8 110.25 -76.0 109.8 L-78.4 110.0 Q-79.45 110.55 -79.9 111.75 -80.3 112.95 -79.75 114.15 -76.3 121.15 -68.3 119.9 L-68.3 119.85 Q-60.8 118.7 -59.0 113.0 -57.0 107.35 -58.9 101.65 L-58.85 101.65 Q-61.3 93.9 -69.7 92.6 -84.2 90.25 -89.7 105.5 -92.6 113.75 -88.85 122.05 -83.95 133.3 -66.85 138.85 -50.7 144.05 -35.6 134.7 -28.2 130.1 -23.95 124.45 -23.15 123.45 -23.3 122.15 -23.5 120.9 -24.5 120.15 -25.55 119.35 -26.8 119.55 -28.05 119.7 -28.85 120.7 -32.5 125.55 -38.85 129.45 -51.45 137.25 -64.95 132.95 -78.95 128.45 -83.3 119.55 -85.95 113.55 -83.85 107.6 -80.2 97.35 -70.6 98.7 -66.05 99.35 -64.75 103.55 -63.6 107.3 -64.85 110.95 -65.85 113.2 -69.25 113.8 -72.7 114.35 -74.25 111.4" fill="#1c1a17" fill-rule="evenodd" stroke="none"/>
    <path d="M-74.25 111.4 Q-72.7 114.35 -69.25 113.8 -65.85 113.2 -64.85 110.95 -63.6 107.3 -64.75 103.55 -66.05 99.35 -70.6 98.7 -80.2 97.35 -83.85 107.6 -85.95 113.55 -83.3 119.55 -78.95 128.45 -64.95 132.95 -51.45 137.25 -38.85 129.45 -32.5 125.55 -28.85 120.7 -28.05 119.7 -26.8 119.55 -25.55 119.35 -24.5 120.15 -23.5 120.9 -23.3 122.15 -23.15 123.45 -23.95 124.45 -28.2 130.1 -35.6 134.7 -50.7 144.05 -66.85 138.85 -83.95 133.3 -88.85 122.05 -92.6 113.75 -89.7 105.5 -84.2 90.25 -69.7 92.6 -61.3 93.9 -58.85 101.65 L-58.9 101.65 Q-57.0 107.35 -59.0 113.0 -60.8 118.7 -68.3 119.85 L-68.3 119.9 Q-76.3 121.15 -79.75 114.15 -80.3 112.95 -79.9 111.75 -79.45 110.55 -78.4 110.0 L-76.0 109.8 Q-74.8 110.25 -74.25 111.4 Z" fill="none" stroke="#1c1a17" stroke-linecap="round" stroke-linejoin="round" stroke-width="10.0"/>
    <path d="M-26.4 122.6 Q-30.35 127.85 -37.25 132.1 -51.1 140.65 -65.9 135.95 -81.45 130.9 -86.05 120.75 -89.3 113.6 -86.75 106.55 -82.25 93.8 -70.15 95.65 -63.7 96.6 -61.85 102.6 -60.3 107.35 -61.95 112.0 -63.35 116.0 -68.75 116.85 -74.55 117.8 -77.0 112.75" fill="none" stroke="#62594e" stroke-linecap="round" stroke-linejoin="round" stroke-width="8.0"/>
  </g>
</svg>
