<?xml version="1.0" encoding="UTF-8" standalone="no"?>
<svg xmlns:xlink="http://www.w3.org/1999/xlink" height="178.05px" width="290.3px" xmlns="http://www.w3.org/2000/svg">
  <g transform="matrix(1.0, 0.0, 0.0, 1.0, 155.2, -77.6)">
    <path d="M-63.2 252.35 Q-42.2 255.65 -12.45 255.65 17.3 255.65 38.35 252.35 59.35 249.05 59.35 244.4 59.35 239.75 38.35 236.45 17.3 233.15 -12.45 233.15 -42.2 233.15 -63.2 236.45 -84.25 239.75 -84.25 244.4 -84.25 249.05 -63.2 252.35" fill="#000000" fill-opacity="0.2" fill-rule="evenodd" stroke="none"/>
    <path d="M-99.35 84.6 Q-115.15 79.7 -129.85 87.15 -139.6 91.8 -145.05 100.7 -149.3 107.4 -149.45 115.8 -149.6 123.95 -145.65 131.35 -140.55 140.6 -130.95 145.45 -116.6 153.45 -100.6 148.95 L-100.25 148.85 Q-91.1 165.9 -95.25 171.6 -98.25 175.7 -104.9 178.25 -108.25 179.45 -117.15 181.55 -124.65 183.3 -127.6 185.0 -132.0 187.45 -131.85 191.9 -131.75 196.2 -125.5 201.75 -121.7 205.1 -112.35 211.4 -103.1 217.5 -100.15 220.15 -95.2 224.6 -96.95 227.45 -100.45 233.15 -113.15 234.7 -123.55 235.9 -131.55 234.2 -134.2 233.6 -134.1 230.9 -134.1 230.25 -132.9 225.3 -132.05 221.7 -133.05 220.1 -134.4 217.85 -139.55 217.95 -149.95 218.25 -153.45 226.15 -156.25 232.35 -154.6 242.8 -154.0 246.9 -137.8 249.35 -123.2 251.55 -102.35 251.6 -81.55 251.7 -66.6 249.6 -50.2 247.3 -49.15 243.3 -46.95 235.15 -55.2 226.35 -63.25 217.75 -70.9 218.4 -76.3 218.9 -76.5 223.75 L-76.7 227.15 Q-77.1 228.65 -78.9 228.8 -83.15 229.1 -90.05 217.05 -97.0 204.9 -94.95 199.95 -94.05 197.7 -90.3 197.1 L-82.05 196.35 Q-69.45 195.0 -63.85 185.95 -57.85 176.3 -83.75 140.15 -74.5 131.7 -74.1 117.4 -73.8 92.8 -99.35 84.6" fill="#a100b4" fill-opacity="0.3019608" fill-rule="evenodd" stroke="none"/>
    <path d="M73.75 82.1 Q64.0 86.75 58.55 95.65 54.3 102.35 54.15 110.75 54.0 118.9 57.95 126.25 63.05 135.55 72.65 140.4 78.25 143.55 84.15 144.75 L86.6 148.75 Q96.95 166.45 92.6 172.25 90.35 175.25 85.25 177.3 L75.65 180.15 Q69.75 181.85 67.05 183.6 63.2 186.1 62.6 190.25 62.0 194.35 65.8 197.15 68.25 199.0 74.35 201.25 80.9 203.65 82.85 204.85 86.5 207.2 85.8 210.4 83.65 219.95 78.7 227.7 72.3 237.75 64.45 237.7 60.6 237.7 58.3 234.7 57.25 233.3 55.1 228.25 53.25 224.0 51.25 222.35 48.3 219.95 43.25 220.8 37.9 221.7 34.1 225.35 30.65 228.65 29.25 233.3 27.85 237.75 28.85 241.55 29.85 245.5 33.0 247.1 39.55 250.35 81.0 250.7 122.6 251.05 130.35 247.85 134.05 246.35 134.9 241.95 135.6 238.0 133.7 233.2 131.75 228.4 128.1 225.2 124.0 221.65 119.25 221.5 112.15 221.3 106.45 226.2 L101.6 230.1 Q98.45 232.05 94.45 232.65 90.25 233.3 90.65 231.3 90.95 229.95 94.25 225.85 L100.05 218.2 Q103.05 213.55 102.85 210.35 102.65 207.1 100.1 204.6 98.5 203.05 94.6 200.8 90.65 198.55 89.35 197.3 87.05 195.15 87.25 192.35 87.45 189.65 91.35 188.05 L100.0 185.55 Q112.95 182.05 114.85 173.65 117.0 164.15 102.2 145.5 L101.3 144.35 103.0 143.9 Q128.8 136.5 129.5 112.3 129.8 87.7 104.25 79.55 88.45 74.65 73.75 82.1" fill="#a100b4" fill-opacity="0.3019608" fill-rule="evenodd" stroke="none"/>
  </g>
</svg>
