<?xml version="1.0" encoding="UTF-8" standalone="no"?>
<svg xmlns:xlink="http://www.w3.org/1999/xlink" height="52.8px" width="52.8px" xmlns="http://www.w3.org/2000/svg">
  <g transform="matrix(1.0, 0.0, 0.0, 1.0, 35.4, 26.45)">
    <path d="M9.65 -18.75 Q17.4 -11.0 17.4 -0.05 17.4 10.9 9.65 18.6 1.95 26.35 -9.0 26.35 -19.95 26.35 -27.7 18.6 -35.4 10.9 -35.4 -0.05 -35.4 -11.0 -27.7 -18.75 -19.95 -26.45 -9.0 -26.45 1.95 -26.45 9.65 -18.75" fill="#5b4e46" fill-rule="evenodd" stroke="none"/>
    <path d="M-14.8 -10.65 Q-15.45 -10.65 -15.95 -11.15 -16.4 -11.6 -16.4 -12.25 -16.4 -12.9 -15.95 -13.4 -15.45 -13.85 -14.8 -13.85 -14.15 -13.85 -13.7 -13.4 -13.2 -12.9 -13.2 -12.25 -13.2 -11.6 -13.7 -11.15 -14.15 -10.65 -14.8 -10.65" fill="#3c342f" fill-rule="evenodd" stroke="none"/>
    <path d="M-22.7 -3.85 L-24.4 -4.15 Q-25.05 -4.45 -25.05 -4.9 -25.05 -5.35 -24.4 -5.65 L-22.7 -5.95 -21.0 -5.65 Q-20.3 -5.35 -20.3 -4.9 -20.3 -4.45 -21.0 -4.15 L-22.7 -3.85" fill="#3c342f" fill-rule="evenodd" stroke="none"/>
    <path d="M-12.55 13.65 Q-13.3 13.65 -13.85 13.1 -14.4 12.55 -14.4 11.75 -14.4 11.0 -13.85 10.45 -13.3 9.9 -12.55 9.9 -11.75 9.9 -11.2 10.45 -10.65 11.0 -10.65 11.75 -10.65 12.55 -11.2 13.1 -11.75 13.65 -12.55 13.65" fill="#3c342f" fill-rule="evenodd" stroke="none"/>
    <path d="M-9.9 13.75 L-10.45 13.5 -10.7 12.9 -10.45 12.35 -9.9 12.1 Q-9.55 12.1 -9.3 12.35 -9.05 12.6 -9.05 12.95 L-9.3 13.5 -9.9 13.75" fill="#3c342f" fill-rule="evenodd" stroke="none"/>
    <path d="M4.3 12.1 L3.55 11.8 Q3.25 11.5 3.25 11.05 3.25 10.6 3.55 10.3 3.9 10.0 4.3 10.0 4.75 10.0 5.05 10.3 L5.35 11.05 5.05 11.8 Q4.75 12.1 4.3 12.1" fill="#3c342f" fill-rule="evenodd" stroke="none"/>
    <path d="M-25.0 7.45 Q-25.65 7.45 -26.15 6.95 -26.65 6.45 -26.65 5.8 -26.65 5.15 -26.15 4.65 -25.65 4.15 -25.0 4.15 -24.35 4.15 -23.85 4.65 -23.35 5.15 -23.35 5.8 -23.35 6.45 -23.85 6.95 -24.35 7.45 -25.0 7.45" fill="#3c342f" fill-rule="evenodd" stroke="none"/>
    <path d="M-19.1 19.5 Q-19.75 19.5 -20.25 19.0 -20.7 18.55 -20.7 17.9 -20.7 17.25 -20.25 16.75 -19.75 16.3 -19.1 16.3 -18.45 16.3 -18.0 16.75 -17.5 17.25 -17.5 17.9 -17.5 18.55 -18.0 19.0 -18.45 19.5 -19.1 19.5" fill="#3c342f" fill-rule="evenodd" stroke="none"/>
    <path d="M-24.0 -15.4 L-24.35 -15.55 -24.45 -15.9 -24.35 -16.25 -24.0 -16.4 -23.6 -16.25 -23.45 -15.9 Q-23.45 -15.65 -23.6 -15.55 -23.75 -15.4 -24.0 -15.4" fill="#3c342f" fill-rule="evenodd" stroke="none"/>
    <path d="M-13.5 -16.5 Q-14.25 -16.5 -14.85 -17.1 -15.4 -17.65 -15.4 -18.45 -15.4 -19.2 -14.85 -19.8 -14.25 -20.35 -13.5 -20.35 -12.7 -20.35 -12.15 -19.8 -11.55 -19.2 -11.55 -18.45 -11.55 -17.65 -12.15 -17.1 -12.7 -16.5 -13.5 -16.5" fill="#3c342f" fill-rule="evenodd" stroke="none"/>
    <path d="M5.4 -14.55 Q4.9 -14.55 4.55 -14.9 4.25 -15.25 4.25 -15.75 4.25 -16.25 4.55 -16.6 4.9 -16.9 5.4 -16.9 5.9 -16.9 6.25 -16.6 L6.6 -15.75 6.25 -14.9 Q5.9 -14.55 5.4 -14.55" fill="#3c342f" fill-rule="evenodd" stroke="none"/>
    <path d="M-2.15 -17.95 Q-2.3 -17.95 -2.45 -18.1 L-2.6 -18.4 -2.45 -18.7 -2.15 -18.8 -1.85 -18.7 -1.7 -18.4 Q-1.7 -18.2 -1.85 -18.1 -2.0 -17.95 -2.15 -17.95" fill="#3c342f" fill-rule="evenodd" stroke="none"/>
    <path d="M4.5 -0.95 Q3.2 -0.95 2.25 -1.9 1.35 -2.8 1.35 -4.15 1.35 -5.45 2.25 -6.4 3.2 -7.35 4.5 -7.35 5.85 -7.35 6.8 -6.4 7.75 -5.45 7.75 -4.15 7.75 -2.8 6.8 -1.9 5.85 -0.95 4.5 -0.95" fill="#3c342f" fill-rule="evenodd" stroke="none"/>
    <path d="M12.9 5.1 L12.55 5.8 11.85 6.1 11.2 5.8 Q10.9 5.5 10.9 5.1 10.9 4.7 11.2 4.4 11.5 4.1 11.85 4.1 12.25 4.1 12.55 4.4 12.9 4.7 12.9 5.1" fill="#3c342f" fill-rule="evenodd" stroke="none"/>
    <path d="M13.35 0.0 L13.55 0.45 13.35 0.9 12.9 1.05 12.45 0.9 Q12.3 0.75 12.3 0.45 12.3 0.15 12.45 0.0 L12.9 -0.15 13.35 0.0" fill="#3c342f" fill-rule="evenodd" stroke="none"/>
    <path d="M-2.7 20.9 Q-3.2 20.9 -3.55 20.5 -3.9 20.15 -3.9 19.65 -3.9 19.15 -3.55 18.8 -3.2 18.45 -2.7 18.45 -2.2 18.45 -1.85 18.8 -1.5 19.15 -1.5 19.65 -1.5 20.15 -1.85 20.5 -2.2 20.9 -2.7 20.9" fill="#3c342f" fill-rule="evenodd" stroke="none"/>
    <path d="M-1.8 10.55 Q-2.25 10.55 -2.55 10.25 L-2.85 9.5 -2.55 8.75 Q-2.25 8.45 -1.8 8.45 -1.35 8.45 -1.05 8.75 -0.75 9.05 -0.75 9.5 -0.75 9.95 -1.05 10.25 -1.35 10.55 -1.8 10.55" fill="#3c342f" fill-rule="evenodd" stroke="none"/>
    <path d="M-22.55 12.5 L-22.85 12.35 -22.95 12.05 -22.85 11.75 -22.55 11.6 Q-22.35 11.6 -22.25 11.75 L-22.1 12.05 -22.25 12.35 Q-22.35 12.5 -22.55 12.5" fill="#3c342f" fill-rule="evenodd" stroke="none"/>
    <path d="M-11.55 20.9 Q-12.2 20.9 -12.65 20.45 L-13.1 19.3 Q-13.1 18.65 -12.65 18.2 -12.2 17.8 -11.55 17.8 -10.85 17.8 -10.45 18.2 -10.0 18.65 -10.0 19.35 -10.0 20.0 -10.45 20.45 -10.85 20.9 -11.55 20.9" fill="#3c342f" fill-rule="evenodd" stroke="none"/>
    <path d="M-7.1 -2.6 Q-8.2 -2.6 -9.0 -3.4 -9.75 -4.15 -9.75 -5.25 -9.75 -6.35 -9.0 -7.15 -8.2 -7.9 -7.1 -7.9 -6.0 -7.9 -5.25 -7.15 -4.45 -6.35 -4.45 -5.25 -4.45 -4.15 -5.25 -3.4 -6.0 -2.6 -7.1 -2.6" fill="#3c342f" fill-rule="evenodd" stroke="none"/>
    <path d="M-14.1 4.3 Q-14.35 4.3 -14.55 4.1 L-14.75 3.65 -14.55 3.2 -14.1 3.0 Q-13.8 3.0 -13.6 3.2 L-13.4 3.65 -13.6 4.1 Q-13.8 4.3 -14.1 4.3" fill="#3c342f" fill-rule="evenodd" stroke="none"/>
    <path d="M-29.25 -2.7 Q-28.6 -2.7 -28.1 -2.2 -27.6 -1.7 -27.6 -1.05 -27.6 -0.4 -28.1 0.1 -28.6 0.6 -29.25 0.6 -29.9 0.6 -30.4 0.1 -30.9 -0.4 -30.9 -1.05 -30.9 -1.7 -30.4 -2.2 -29.9 -2.7 -29.25 -2.7" fill="#3c342f" fill-rule="evenodd" stroke="none"/>
    <path d="M-28.45 -8.6 L-28.65 -8.75 -28.75 -8.95 -28.65 -9.15 -28.45 -9.25 -28.2 -9.15 -28.1 -8.95 -28.2 -8.75 -28.45 -8.6" fill="#3c342f" fill-rule="evenodd" stroke="none"/>
    <path d="M-22.55 -9.25 Q-23.2 -9.25 -23.65 -9.7 -24.05 -10.15 -24.05 -10.85 -24.05 -11.5 -23.65 -11.95 -23.2 -12.35 -22.55 -12.35 -21.85 -12.35 -21.4 -11.95 -20.95 -11.5 -20.95 -10.8 -20.95 -10.15 -21.4 -9.7 -21.85 -9.25 -22.55 -9.25" fill="#3c342f" fill-rule="evenodd" stroke="none"/>
    <path d="M-1.6 19.5 L-1.9 19.4 -2.0 19.1 -1.9 18.85 -1.6 18.75 -1.35 18.85 -1.2 19.1 -1.35 19.4 -1.6 19.5" fill="#3c342f" fill-rule="evenodd" stroke="none"/>
    <path d="M7.5 17.3 Q6.65 17.3 6.0 16.65 5.35 16.0 5.35 15.1 5.35 14.25 6.0 13.6 6.65 13.0 7.5 13.0 8.4 13.0 9.0 13.6 9.65 14.25 9.65 15.15 9.65 16.0 9.0 16.65 8.4 17.3 7.5 17.3" fill="#3c342f" fill-rule="evenodd" stroke="none"/>
    <path d="M11.65 11.4 L11.35 11.25 11.2 10.95 11.35 10.65 11.65 10.5 11.95 10.65 12.1 10.95 11.95 11.25 11.65 11.4" fill="#3c342f" fill-rule="evenodd" stroke="none"/>
    <path d="M-7.85 -20.15 Q-8.4 -20.15 -8.75 -20.5 -9.1 -20.85 -9.1 -21.4 -9.1 -21.95 -8.75 -22.35 -8.4 -22.7 -7.85 -22.7 -7.3 -22.7 -6.95 -22.35 -6.55 -21.95 -6.55 -21.4 -6.55 -20.85 -6.95 -20.5 -7.3 -20.15 -7.85 -20.15" fill="#3c342f" fill-rule="evenodd" stroke="none"/>
    <path d="M-0.65 -19.2 L-1.0 -19.35 -1.15 -19.75 -1.0 -20.1 -0.65 -20.2 -0.3 -20.1 -0.15 -19.7 -0.3 -19.35 Q-0.45 -19.2 -0.65 -19.2" fill="#3c342f" fill-rule="evenodd" stroke="none"/>
  </g>
</svg>
