<?xml version="1.0" encoding="UTF-8" standalone="no"?>
<svg xmlns:xlink="http://www.w3.org/1999/xlink" height="31.35px" width="16.4px" xmlns="http://www.w3.org/2000/svg">
  <g transform="matrix(1.0, 0.0, 0.0, 1.0, -641.15, -74.1)">
    <path d="M653.7 85.55 Q656.55 87.45 656.55 89.2 656.6 90.9 655.8 91.75 655.05 92.55 655.15 93.4 655.25 94.45 656.85 95.9 658.0 97.05 657.3 100.05 656.55 103.55 653.6 104.8 651.65 105.65 649.15 105.4 646.65 105.15 644.05 103.55 640.6 101.45 641.25 98.7 641.9 95.5 645.0 94.15 647.95 92.85 648.1 91.8 648.35 90.2 646.95 87.0 645.4 83.5 645.35 82.65 645.25 81.3 647.4 79.9 649.9 78.3 650.05 77.95 650.6 76.75 650.2 74.1 L651.45 75.65 Q652.65 77.45 652.6 78.6 652.55 79.5 651.5 80.95 650.55 82.3 650.7 83.05 650.8 83.65 653.7 85.55" fill="#ff9933" fill-rule="evenodd" stroke="none"/>
  </g>
</svg>
