<?xml version="1.0" encoding="UTF-8" standalone="no"?>
<svg xmlns:xlink="http://www.w3.org/1999/xlink" height="45.25px" width="8.95px" xmlns="http://www.w3.org/2000/svg">
  <g transform="matrix(1.0, 0.0, 0.0, 1.0, -1.45, -2.65)">
    <path d="M9.4 14.9 L9.4 15.05 Q9.35 15.9 8.35 16.55 7.35 17.2 5.9 17.2 4.55 17.2 3.45 16.55 2.55 15.9 2.45 15.05 L2.45 5.95 2.45 5.85 Q2.6 4.95 3.55 4.35 4.55 3.65 5.95 3.65 7.4 3.65 8.4 4.35 9.35 4.95 9.4 5.85 L9.4 14.9" fill="#ffffff" fill-rule="evenodd" stroke="none"/>
    <path d="M9.4 14.9 L9.4 15.05 Q9.35 15.9 8.35 16.55 7.35 17.2 5.9 17.2 4.55 17.2 3.45 16.55 2.55 15.9 2.45 15.05 L2.45 5.95 2.45 5.85 Q2.6 4.95 3.55 4.35 4.55 3.65 5.95 3.65 7.4 3.65 8.4 4.35 9.35 4.95 9.4 5.85 L9.4 14.9 Z" fill="none" stroke="#191c1e" stroke-linecap="round" stroke-linejoin="round" stroke-width="2.0"/>
    <path d="M9.45 5.75 L9.45 14.95 2.5 14.95 2.5 5.95 2.5 5.75 Q2.55 4.95 3.5 4.3 4.55 3.65 6.0 3.65 7.4 3.65 8.4 4.3 9.35 4.95 9.45 5.75" fill="#555c72" fill-rule="evenodd" stroke="none"/>
    <path d="M8.35 16.5 Q7.35 17.2 5.95 17.2 4.5 17.2 3.5 16.5 2.45 15.85 2.45 14.85 2.45 13.9 3.5 13.25 4.5 12.55 5.95 12.55 7.35 12.55 8.35 13.25 9.4 13.9 9.4 14.85 9.4 15.85 8.35 16.5" fill="#3f434f" fill-rule="evenodd" stroke="none"/>
    <path d="M7.75 16.2 L5.85 16.65 4.0 16.2 Q3.2 15.7 3.2 15.0 3.2 14.35 4.0 13.85 4.8 13.35 5.85 13.35 6.95 13.35 7.75 13.85 8.5 14.35 8.5 15.0 8.5 15.7 7.75 16.2" fill="#3f9306" fill-rule="evenodd" stroke="none"/>
    <path d="M5.8 14.65 L5.8 46.6" fill="none" stroke="#7cb421" stroke-linecap="square" stroke-linejoin="round" stroke-width="2.0"/>
    <path d="M8.45 14.65 L7.8 15.35 Q6.95 15.85 5.9 15.85 4.8 15.85 4.05 15.35 3.3 14.9 3.2 14.3 L3.35 14.65 Q3.45 14.2 4.05 13.85 4.8 13.4 5.9 13.4 6.95 13.4 7.8 13.85 8.3 14.2 8.45 14.65" fill="#7cb421" fill-rule="evenodd" stroke="none"/>
  </g>
</svg>
