<?xml version="1.0" encoding="UTF-8" standalone="no"?>
<svg xmlns:xlink="http://www.w3.org/1999/xlink" height="22.05px" width="23.15px" xmlns="http://www.w3.org/2000/svg">
  <g transform="matrix(1.0, 0.0, 0.0, 1.0, 11.7, 10.5)">
    <path d="M5.2 -1.45 Q3.3 -1.7 1.9 -1.0 6.3 5.3 11.2 11.3 3.65 4.3 -5.15 -1.7 -2.65 -1.6 -1.65 -2.7 -6.55 -5.65 -11.45 -7.15 -7.55 -8.25 -4.3 -10.25 -0.2 -5.3 5.2 -1.45" fill="#ffe527" fill-rule="evenodd" stroke="none"/>
    <path d="M5.2 -1.45 Q-0.2 -5.3 -4.3 -10.25 -7.55 -8.25 -11.45 -7.15 -6.55 -5.65 -1.65 -2.7 -2.65 -1.6 -5.15 -1.7 3.65 4.3 11.2 11.3 6.3 5.3 1.9 -1.0 3.3 -1.7 5.2 -1.45 Z" fill="none" stroke="#8a6e00" stroke-linecap="round" stroke-linejoin="round" stroke-width="0.5"/>
    <path d="M5.3 -2.4 L5.55 -3.35 Q7.1 -9.0 9.1 -8.35 11.35 -7.65 9.15 0.2 8.4 3.1 7.25 5.6 6.25 8.15 5.75 8.35 L2.6 8.0 -3.05 6.45 Q-10.8 3.7 -10.15 1.6 -9.6 -0.2 -3.9 1.55 L-3.3 1.75 -4.6 5.7 -3.5 6.05 -2.2 2.15 0.35 2.9 Q2.45 3.55 3.1 3.2 3.7 2.85 4.35 0.8 L5.0 -1.35 8.85 -0.15 9.1 -1.25 5.3 -2.4" fill="#cc6600" fill-rule="evenodd" stroke="none"/>
    <path d="M-3.3 1.75 L-3.25 1.6 -2.15 1.95 -2.2 2.15 -3.5 6.05 -4.6 5.7 -3.3 1.75 M5.0 -1.35 L4.6 -1.5 4.9 -2.55 5.3 -2.4 9.1 -1.25 8.85 -0.15 5.0 -1.35" fill="#990000" fill-rule="evenodd" stroke="none"/>
    <path d="M5.3 -2.4 L5.55 -3.35 Q7.1 -9.0 9.1 -8.35 11.35 -7.65 9.15 0.2 8.4 3.1 7.25 5.6 6.25 8.15 5.75 8.35 L2.6 8.0 -3.05 6.45 Q-10.8 3.7 -10.15 1.6 -9.6 -0.2 -3.9 1.55 L-3.3 1.75 M-2.2 2.15 L0.35 2.9 Q2.45 3.55 3.1 3.2 3.7 2.85 4.35 0.8 L5.0 -1.35" fill="none" stroke="#530000" stroke-linecap="round" stroke-linejoin="round" stroke-width="0.5"/>
  </g>
</svg>
