<?xml version="1.0" encoding="UTF-8" standalone="no"?>
<svg xmlns:xlink="http://www.w3.org/1999/xlink" height="46.15px" width="37.3px" xmlns="http://www.w3.org/2000/svg">
  <g transform="matrix(1.0, 0.0, 0.0, 1.0, 19.5, 24.1)">
    <path d="M2.45 12.05 Q6.95 12.05 10.7 13.25 L12.05 7.1 Q13.85 -3.75 11.3 -11.4 8.85 -19.1 3.55 -19.1 -1.8 -19.1 -6.9 -11.4 -11.95 -3.75 -13.75 7.1 -14.65 12.5 -14.45 17.05 -6.6 12.05 2.45 12.05" fill="#1d6f8c" fill-rule="evenodd" stroke="none"/>
    <path d="M2.45 12.05 Q-6.6 12.05 -14.45 17.05 -14.65 12.5 -13.75 7.1 -11.95 -3.75 -6.9 -11.4 -1.8 -19.1 3.55 -19.1 8.85 -19.1 11.3 -11.4 13.85 -3.75 12.05 7.1 L10.7 13.25 Q6.95 12.05 2.45 12.05 Z" fill="none" stroke="#1d6f8c" stroke-linecap="round" stroke-linejoin="round" stroke-width="10.0"/>
    <path d="M11.3 -11.4 Q13.85 -3.75 12.05 7.1 L10.7 13.25 Q6.95 12.05 2.45 12.05 -6.6 12.05 -14.45 17.05 -14.65 12.5 -13.75 7.1 -11.95 -3.75 -6.9 -11.4 -1.8 -19.1 3.55 -19.1 8.85 -19.1 11.3 -11.4" fill="#8a1d00" fill-rule="evenodd" stroke="none"/>
    <path d="M2.45 12.05 Q-6.6 12.05 -14.45 17.05 -14.65 12.5 -13.75 7.1 L-12.65 2.0 Q-4.45 6.5 2.7 12.05 L2.45 12.05" fill="#d74533" fill-rule="evenodd" stroke="none"/>
    <path d="M11.3 -11.4 L11.4 -11.1 Q1.85 -9.4 -7.75 -10.05 L-6.9 -11.4 Q-1.8 -19.1 3.55 -19.1 8.85 -19.1 11.3 -11.4" fill="#ffffff" fill-rule="evenodd" stroke="none"/>
  </g>
</svg>
