<?xml version="1.0" encoding="UTF-8" standalone="no"?>
<svg xmlns:xlink="http://www.w3.org/1999/xlink" height="114.15px" width="81.45px" xmlns="http://www.w3.org/2000/svg">
  <g transform="matrix(1.0, 0.0, 0.0, 1.0, -9.45, -83.95)">
    <path d="M23.55 94.55 Q41.5 103.7 50.15 83.95 59.15 99.9 76.7 94.45 77.1 117.8 90.9 121.45 81.2 136.75 85.95 152.25 67.05 153.2 64.1 172.2 52.4 160.7 35.9 172.25 35.4 156.6 14.25 152.25 20.55 137.1 9.45 121.65 29.35 116.95 23.55 94.55" fill="#ed6afc" fill-opacity="0.6" fill-rule="evenodd" stroke="none"/>
    <path d="M81.75 97.2 Q80.2 98.65 78.1 98.6 75.95 98.55 74.45 97.1 73.0 95.5 73.0 93.4 73.05 91.25 74.6 89.85 76.1 88.3 78.25 88.35 80.35 88.4 81.9 89.95 83.3 91.45 83.25 93.6 83.25 95.75 81.75 97.2 M79.5 131.15 Q79.0 151.55 59.4 157.8 47.25 161.6 36.35 154.85 29.05 150.75 25.2 142.95 22.2 136.7 22.3 129.85 22.4 122.75 25.65 117.1 29.8 109.55 37.2 105.65 48.35 99.35 60.35 103.5 79.75 110.4 79.5 131.15 M27.2 178.8 Q25.85 180.15 23.9 180.15 21.95 180.1 20.5 178.7 19.2 177.25 19.25 175.3 19.25 173.3 20.65 172.0 22.1 170.65 24.05 170.7 26.0 170.7 27.35 172.1 28.7 173.45 28.7 175.45 28.65 177.4 27.2 178.8 M59.8 197.4 Q59.05 198.1 58.05 198.1 57.0 198.1 56.25 197.3 55.55 196.55 55.6 195.45 55.6 194.35 56.3 193.6 57.05 192.9 58.1 192.9 59.1 192.9 59.85 193.7 60.55 194.45 60.55 195.6 60.5 196.65 59.8 197.4" fill="#a100b4" fill-opacity="0.7411765" fill-rule="evenodd" stroke="none"/>
  </g>
</svg>
