<?xml version="1.0" encoding="UTF-8" standalone="no"?>
<svg xmlns:xlink="http://www.w3.org/1999/xlink" height="92.45px" width="55.5px" xmlns="http://www.w3.org/2000/svg">
  <g transform="matrix(1.0, 0.0, 0.0, 1.0, 27.75, 50.75)">
    <path d="M22.2 31.4 Q22.2 34.8 17.15 37.8 10.7 41.7 -0.7 41.7 -12.05 41.7 -17.85 37.8 -22.2 34.95 -22.2 31.4 L-22.2 13.1 22.2 13.1 22.2 31.4" fill="#cd960d" fill-rule="evenodd" stroke="none"/>
    <path d="M-25.75 -41.65 L-25.75 26.55 Q-25.75 29.95 -20.75 32.7 -14.0 36.45 -0.8 36.45 12.4 36.45 19.9 32.7 25.75 29.8 25.75 26.55 L25.75 -41.65 25.75 -42.05 25.75 -42.2 25.75 -42.55 25.75 -42.65 Q25.15 -45.1 18.2 -46.8 10.65 -48.75 0.0 -48.75 -10.65 -48.75 -18.2 -46.8 -25.75 -44.95 -25.75 -42.2 L-25.75 -42.05 -25.75 -41.65 Z" fill="none" stroke="#856301" stroke-linecap="round" stroke-linejoin="round" stroke-width="4.0"/>
    <path d="M25.75 -42.45 L25.8 -41.65 25.8 26.6 Q25.8 29.8 19.95 32.7 12.45 36.45 -0.75 36.45 -13.95 36.45 -20.7 32.7 -25.75 29.95 -25.75 26.6 L-25.75 -41.65 -25.7 -42.45 -25.65 -42.65 25.75 -42.65 25.75 -42.45" fill="#ffcc33" fill-rule="evenodd" stroke="none"/>
    <path d="M14.85 11.4 L4.85 11.45 4.95 10.4 Q4.95 8.25 3.45 6.8 2.8 6.15 2.0 5.8 L8.05 -2.1 Q9.4 -1.25 10.6 -0.05 14.85 4.2 14.85 10.4 L14.85 11.4 M3.4 10.4 Q3.4 11.85 2.4 12.85 1.35 13.9 -0.1 13.9 -1.5 13.9 -2.6 12.85 -3.55 11.85 -3.55 10.4 -3.55 9.0 -2.6 7.95 -1.5 6.95 -0.1 6.95 1.35 6.95 2.4 7.95 3.4 9.0 3.4 10.4 M3.25 14.2 L8.25 22.85 Q4.65 25.2 0.1 25.2 -4.65 25.2 -8.3 22.7 L-3.45 14.2 Q-2.0 15.45 -0.1 15.45 1.9 15.45 3.25 14.2 M-8.1 -1.95 L-2.1 5.75 Q-3.0 6.15 -3.65 6.8 -5.1 8.25 -5.1 10.4 L-5.05 11.45 -14.7 11.4 -14.75 10.4 Q-14.75 4.2 -10.4 -0.05 L-8.1 -1.95" fill="#856301" fill-rule="evenodd" stroke="none"/>
    <path d="M16.2 -41.65 L16.15 -42.45 16.15 -42.65 22.8 -42.65 22.8 -42.45 22.8 -41.65 22.8 30.1 22.65 31.1 19.9 32.7 Q16.85 34.25 12.7 35.2 L12.5 35.35 Q16.2 32.85 16.2 30.1 L16.2 -41.65" fill="#ffffff" fill-rule="evenodd" stroke="none"/>
    <path d="M26.8 -20.85 Q26.65 -18.4 20.7 -16.25 12.9 -13.4 -0.7 -13.4 -14.4 -13.4 -21.4 -16.25 -26.45 -18.25 -26.6 -20.75 L-26.6 -22.15 Q-26.45 -19.65 -21.4 -17.6 -14.4 -14.8 -0.7 -14.8 12.9 -14.8 20.7 -17.6 26.65 -19.8 26.8 -22.25 L26.8 -20.85 M20.7 -26.45 Q26.65 -28.65 26.8 -31.1 L26.8 -29.7 Q26.65 -27.25 20.7 -25.1 12.9 -22.25 -0.7 -22.25 -14.4 -22.25 -21.4 -25.1 -26.45 -27.1 -26.6 -29.6 L-26.6 -31.0 Q-26.45 -28.5 -21.4 -26.45 -14.4 -23.65 -0.7 -23.65 12.9 -23.65 20.7 -26.45 M20.7 -30.1 Q26.65 -32.3 26.8 -34.75 L26.8 -33.35 Q26.65 -30.9 20.7 -28.75 12.9 -25.9 -0.7 -25.9 -14.4 -25.9 -21.4 -28.75 -26.45 -30.75 -26.6 -33.25 L-26.6 -34.65 Q-26.45 -32.15 -21.4 -30.1 -14.4 -27.3 -0.7 -27.3 12.9 -27.3 20.7 -30.1 M20.7 -12.6 Q12.9 -9.75 -0.7 -9.75 -14.4 -9.75 -21.4 -12.6 -26.45 -14.6 -26.6 -17.1 L-26.6 -18.5 Q-26.45 -16.0 -21.4 -13.95 -14.4 -11.15 -0.7 -11.15 12.9 -11.15 20.7 -13.95 26.65 -16.15 26.8 -18.6 L26.8 -17.2 Q26.65 -14.75 20.7 -12.6" fill="#856301" fill-rule="evenodd" stroke="none"/>
    <path d="M-25.7 -42.2 Q-25.7 -44.9 -18.2 -46.85 -10.65 -48.75 0.05 -48.75 10.7 -48.75 18.25 -46.85 25.8 -44.9 25.8 -42.2 25.8 -39.5 18.25 -37.6 10.7 -35.7 0.05 -35.7 -10.65 -35.7 -18.2 -37.6 -25.7 -39.5 -25.7 -42.2" fill="#cd960d" fill-rule="evenodd" stroke="none"/>
    <path d="M-18.55 -42.9 Q-18.55 -44.15 -13.1 -45.05 L0.05 -45.95 13.2 -45.05 Q18.65 -44.15 18.65 -42.9 18.65 -41.65 13.2 -40.75 L0.05 -39.85 -13.1 -40.75 Q-18.55 -41.65 -18.55 -42.9" fill="#856301" fill-rule="evenodd" stroke="none"/>
  </g>
</svg>
