<?xml version="1.0" encoding="UTF-8" standalone="no"?>
<svg xmlns:xlink="http://www.w3.org/1999/xlink" height="58.65px" width="32.25px" xmlns="http://www.w3.org/2000/svg">
  <g transform="matrix(1.0, 0.0, 0.0, 1.0, 16.15, 29.3)">
    <path d="M10.0 -26.3 L10.0 11.8 Q11.7 11.95 11.95 12.25 12.65 13.0 13.0 17.8 13.3 22.7 12.85 26.3 L-12.85 26.3 Q-13.3 22.85 -13.1 18.15 -12.9 13.15 -12.1 12.25 -11.85 11.95 -10.45 11.8 L-10.45 -26.3 10.0 -26.3 Z" fill="none" stroke="#1e2027" stroke-linecap="butt" stroke-linejoin="miter" stroke-miterlimit="3.0" stroke-width="6.0"/>
    <path d="M10.0 -26.3 L10.0 15.2 -10.45 15.2 -10.45 -26.3 10.0 -26.3" fill="#707585" fill-rule="evenodd" stroke="none"/>
    <path d="M5.3 -26.3 L5.3 13.35 2.9 13.35 2.9 -26.3 5.3 -26.3 M7.8 -26.3 L7.8 13.35 6.3 13.35 6.3 -26.3 7.8 -26.3" fill="#ffffff" fill-rule="evenodd" stroke="none"/>
    <path d="M-5.95 -13.85 L-10.45 -13.85 -10.45 -17.35 -5.95 -17.35 -5.95 -13.85 M-10.45 -19.6 L-10.45 -23.1 -5.95 -23.1 -5.95 -19.6 -10.45 -19.6 M5.85 -19.6 L5.85 -23.15 10.0 -23.15 10.0 -19.6 5.85 -19.6 M5.85 -13.9 L5.85 -17.4 10.0 -17.4 10.0 -13.9 5.85 -13.9" fill="#1e2027" fill-rule="evenodd" stroke="none"/>
    <path d="M0.0 11.45 Q11.3 11.5 11.95 12.25 12.6 13.0 12.95 17.8 13.3 22.7 12.85 26.3 L-12.85 26.3 Q-13.3 22.85 -13.1 18.15 -12.9 13.15 -12.15 12.25 -11.35 11.35 0.0 11.45" fill="#7b5eaa" fill-rule="evenodd" stroke="none"/>
    <path d="M7.3 11.6 L7.3 26.3 4.9 26.3 4.9 11.5 7.3 11.6 M8.3 26.3 L8.3 11.65 9.8 11.8 9.8 26.3 8.3 26.3" fill="#ffffff" fill-rule="evenodd" stroke="none"/>
    <path d="M-12.85 26.3 Q-13.3 22.85 -13.1 18.15 -12.9 13.15 -12.15 12.25 -11.35 11.35 0.0 11.45 11.3 11.5 11.95 12.25 12.6 13.0 12.95 17.8 13.3 22.7 12.85 26.3 L-12.85 26.3 Z" fill="none" stroke="#513c72" stroke-linecap="butt" stroke-linejoin="miter" stroke-miterlimit="3.0" stroke-width="2.0"/>
  </g>
</svg>
