<?xml version="1.0" encoding="UTF-8" standalone="no"?>
<svg xmlns:xlink="http://www.w3.org/1999/xlink" height="140.2px" width="317.0px" xmlns="http://www.w3.org/2000/svg">
  <g transform="matrix(1.0, 0.0, 0.0, 1.0, 104.25, -15.65)">
    <path d="M49.15 42.6 Q94.05 42.6 125.7 74.3 157.45 106.0 157.45 150.85 L157.45 151.35 -59.1 151.35 -59.1 150.85 Q-59.1 106.0 -27.45 74.3 4.3 42.6 49.15 42.6" fill="#ffffff" fill-rule="evenodd" stroke="none"/>
    <path d="M49.15 42.6 Q94.05 42.6 125.7 74.3 157.45 106.0 157.45 150.85 L157.45 151.35 -59.1 151.35 -59.1 150.85 Q-59.1 106.0 -27.45 74.3 4.3 42.6 49.15 42.6 Z" fill="none" stroke="#121212" stroke-linecap="round" stroke-linejoin="miter" stroke-miterlimit="3.0" stroke-width="9.0"/>
    <path d="M49.15 42.6 Q94.05 42.6 125.7 74.3 157.45 106.0 157.45 150.85 L157.45 151.35 -59.1 151.35 -59.1 150.85 Q-59.1 106.0 -27.45 74.3 4.3 42.6 49.15 42.6" fill="#232222" fill-rule="evenodd" stroke="none"/>
    <path d="M113.4 138.65 L147.75 111.25 208.25 147.4 197.9 151.35 120.5 151.35 113.2 138.8 113.35 138.65 113.4 138.65 M99.45 97.25 L95.15 53.3 158.5 22.25 140.2 99.3 99.45 97.25 M89.85 151.35 L31.85 151.35 27.15 141.95 59.7 117.3 91.2 148.35 89.85 151.35 M-4.85 138.65 L-39.2 111.25 -99.75 147.45 -89.35 151.35 -12.0 151.35 -4.65 138.8 -4.8 138.65 -4.85 138.65 M8.2 51.35 L-55.45 20.15 -36.8 97.35 3.9 95.35 8.2 51.35" fill="none" stroke="#3f3e3e" stroke-linecap="round" stroke-linejoin="round" stroke-width="9.0"/>
    <path d="M-55.45 20.2 L-23.55 35.85 8.2 51.4 3.9 95.35 -36.85 97.4 -55.45 20.2" fill="#696868" fill-rule="evenodd" stroke="none"/>
    <path d="M-55.1 20.35 L-55.25 20.2 3.95 95.15 3.9 95.35 -36.85 97.4 -55.45 20.2 -55.1 20.35" fill="#514e4e" fill-rule="evenodd" stroke="none"/>
    <path d="M158.85 22.15 L126.95 37.8 Q111.05 45.6 95.2 53.35 L99.5 97.3 140.25 99.35 158.85 22.15" fill="#696868" fill-rule="evenodd" stroke="none"/>
    <path d="M158.45 22.3 L158.75 22.1 140.15 99.3 99.4 97.3 99.4 97.1 158.55 22.15 158.45 22.3" fill="#514e4e" fill-rule="evenodd" stroke="none"/>
    <path d="M27.15 141.95 L59.65 117.35 91.15 148.35 89.85 151.35 31.8 151.35 27.15 141.95" fill="#696868" fill-rule="evenodd" stroke="none"/>
    <path d="M59.85 117.5 L60.8 151.35 31.8 151.35 27.15 141.95 59.65 117.35 59.85 117.5" fill="#514e4e" fill-rule="evenodd" stroke="none"/>
    <path d="M197.85 151.35 L120.45 151.35 113.15 138.8 147.7 111.25 178.0 129.4 208.5 147.6 197.85 151.35" fill="#696868" fill-rule="evenodd" stroke="none"/>
    <path d="M208.5 147.6 L197.85 151.35 120.45 151.35 113.15 138.8 113.35 138.65 208.4 147.4 208.2 147.4 208.5 147.6" fill="#514e4e" fill-rule="evenodd" stroke="none"/>
    <path d="M-4.7 138.8 L-12.0 151.35 -89.4 151.35 -100.05 147.6 -69.55 129.4 -39.25 111.25 -4.7 138.8" fill="#696868" fill-rule="evenodd" stroke="none"/>
    <path d="M-4.85 138.65 L-4.7 138.8 -12.0 151.35 -89.4 151.35 -100.05 147.6 -99.75 147.4 -99.95 147.4 -4.85 138.65" fill="#514e4e" fill-rule="evenodd" stroke="none"/>
  </g>
</svg>
