<?xml version="1.0" encoding="UTF-8" standalone="no"?>
<svg xmlns:xlink="http://www.w3.org/1999/xlink" height="8.05px" width="38.9px" xmlns="http://www.w3.org/2000/svg">
  <g transform="matrix(1.0, 0.0, 0.0, 1.0, 17.35, 1.4)">
    <path d="M13.75 5.15 L9.55 5.8 Q7.1 5.8 5.35 5.15 3.6 4.55 3.6 3.7 3.6 2.85 5.35 2.2 L9.55 1.6 Q12.0 1.6 13.75 2.2 15.5 2.85 15.5 3.7 15.5 4.55 13.75 5.15" fill="#ffffff" fill-rule="evenodd" stroke="none"/>
    <path d="M20.3 1.4 L17.4 1.9 14.45 1.4 Q13.25 0.95 13.25 0.25 13.25 -0.45 14.45 -0.95 L17.4 -1.4 20.3 -0.95 Q21.55 -0.45 21.55 0.25 21.55 0.95 20.3 1.4" fill="#ffffff" fill-rule="evenodd" stroke="none"/>
    <path d="M-7.4 4.2 Q-8.75 4.85 -10.7 4.85 -12.65 4.85 -14.0 4.2 -15.35 3.55 -15.35 2.65 -15.35 1.75 -14.0 1.1 -12.65 0.45 -10.7 0.45 -8.75 0.45 -7.4 1.1 -6.05 1.75 -6.05 2.65 -6.05 3.55 -7.4 4.2" fill="#ffffff" fill-rule="evenodd" stroke="none"/>
    <path d="M1.1 6.25 Q0.4 6.65 -0.6 6.65 -1.6 6.65 -2.3 6.25 -3.0 5.9 -3.0 5.4 -3.0 4.9 -2.3 4.5 -1.6 4.15 -0.6 4.15 L1.1 4.5 Q1.8 4.9 1.8 5.4 1.8 5.9 1.1 6.25" fill="#ffffff" fill-rule="evenodd" stroke="none"/>
    <path d="M-5.05 5.9 Q-5.8 6.4 -6.9 6.4 -8.0 6.4 -8.75 5.9 -9.5 5.45 -9.5 4.8 -9.5 4.15 -8.75 3.65 L-6.9 3.2 Q-5.8 3.2 -5.05 3.65 -4.3 4.15 -4.3 4.8 -4.3 5.45 -5.05 5.9" fill="#ffffff" fill-rule="evenodd" stroke="none"/>
    <path d="M-15.25 -0.45 L-16.1 -0.3 -17.0 -0.45 Q-17.35 -0.55 -17.35 -0.75 L-17.0 -1.1 -16.1 -1.2 -15.25 -1.1 -14.85 -0.75 -15.25 -0.45" fill="#ffffff" fill-rule="evenodd" stroke="none"/>
  </g>
</svg>
