<?xml version="1.0" encoding="UTF-8" standalone="no"?>
<svg xmlns:xlink="http://www.w3.org/1999/xlink" height="152.2px" width="163.45px" xmlns="http://www.w3.org/2000/svg">
  <g transform="matrix(1.0, 0.0, 0.0, 1.0, 99.8, -63.85)">
    <path d="M-98.05 197.95 L-84.6 192.25 Q-82.05 193.3 -78.05 193.7 -69.55 194.65 -65.35 192.45 -62.55 191.0 -60.35 186.9 -58.65 183.8 -57.2 182.1 -56.85 187.9 -55.0 192.65 -53.75 196.1 -52.35 197.75 L-75.95 216.05 -92.4 211.75 -76.05 201.0 -90.15 208.55 -99.8 204.8 -86.4 198.55 -95.45 201.5 -98.05 197.95" fill="#ffcc00" fill-rule="evenodd" stroke="none"/>
    <path d="M18.85 192.65 Q20.1 189.4 20.7 185.7 L23.15 187.6 29.35 193.45 Q32.85 196.15 36.65 195.45 40.05 194.9 42.75 193.0 L45.0 190.75 61.9 197.95 59.3 201.5 50.25 198.55 63.65 204.8 54.0 208.55 39.9 201.0 56.25 211.75 39.8 216.05 16.2 197.75 Q17.6 196.1 18.85 192.65" fill="#ffcc00" fill-rule="evenodd" stroke="none"/>
    <path d="M9.95 63.85 Q10.85 73.95 4.15 81.65 -2.85 89.75 -14.15 90.5 -24.0 91.15 -32.05 85.8 -25.6 87.85 -18.1 87.1 -5.4 85.75 2.9 77.05 8.7 71.0 9.95 63.85" fill="#856301" fill-rule="evenodd" stroke="none"/>
  </g>
</svg>
