<?xml version="1.0" encoding="UTF-8" standalone="no"?>
<svg xmlns:xlink="http://www.w3.org/1999/xlink" height="46.65px" width="29.05px" xmlns="http://www.w3.org/2000/svg">
  <g transform="matrix(1.0, 0.0, 0.0, 1.0, 14.25, 12.85)">
    <path d="M9.65 5.45 L11.8 30.8 -11.25 30.8 -9.1 5.45 -7.8 5.15 -6.65 -8.55 Q0.1 -11.15 7.2 -8.55 L8.4 5.15 9.65 5.45" fill="#000000" fill-rule="evenodd" stroke="none"/>
    <path d="M9.65 5.45 L11.8 30.8 -11.25 30.8 -9.1 5.45 -7.8 5.15 -6.65 -8.55 Q0.1 -11.15 7.2 -8.55 L8.4 5.15 9.65 5.45 Z" fill="none" stroke="#000000" stroke-linecap="round" stroke-linejoin="round" stroke-width="6.0"/>
    <path d="M7.2 -8.55 L8.8 10.25 -8.25 10.25 -6.7 -8.55 Q0.1 -11.1 7.2 -8.55" fill="#434343" fill-rule="evenodd" stroke="none"/>
    <path d="M8.1 1.65 L8.85 10.2 -8.25 10.2 -7.5 1.65 Q0.3 -0.1 8.1 1.65" fill="#1c1c1c" fill-rule="evenodd" stroke="none"/>
    <path d="M-0.8 -9.8 L-0.8 10.2 -3.45 10.2 -3.45 -9.5 -0.8 -9.8 M-5.2 -9.05 L-5.2 10.2 -6.05 10.2 -6.05 -8.8 -5.2 -9.05" fill="#1c1c1c" fill-rule="evenodd" stroke="none"/>
    <path d="M11.8 30.85 L-11.25 30.85 -9.1 5.45 Q0.5 3.0 9.65 5.45 L11.8 30.85" fill="#434343" fill-rule="evenodd" stroke="none"/>
    <path d="M-3.75 4.45 L-3.75 30.8 -4.6 30.8 -4.6 4.6 -3.75 4.45 M-2.0 30.8 L-2.0 4.3 0.65 4.2 0.65 30.8 -2.0 30.8" fill="#1c1c1c" fill-rule="evenodd" stroke="none"/>
  </g>
</svg>
