<?xml version="1.0" encoding="UTF-8" standalone="no"?>
<svg xmlns:xlink="http://www.w3.org/1999/xlink" height="125.8px" width="31.25px" xmlns="http://www.w3.org/2000/svg">
  <g transform="matrix(1.0, 0.0, 0.0, 1.0, 15.6, 62.9)">
    <path d="M-11.0 58.35 Q-14.4 54.95 -14.05 -0.95 -13.9 -23.35 -13.1 -40.05 -12.2 -57.95 -11.0 -59.2 -8.55 -61.6 0.8 -61.4 9.95 -61.3 12.0 -59.2 14.0 -57.15 14.15 -0.6 14.3 56.1 12.0 58.35 9.4 60.95 1.15 61.35 -7.6 61.75 -11.0 58.35 Z" fill="none" stroke="#416409" stroke-linecap="round" stroke-linejoin="round" stroke-width="3.0"/>
    <path d="M-11.0 58.35 Q-14.4 54.95 -14.05 -0.95 -13.9 -23.35 -13.1 -40.05 -12.2 -57.95 -11.0 -59.2 -8.55 -61.6 0.8 -61.4 9.95 -61.3 12.0 -59.2 14.0 -57.15 14.15 -0.6 14.3 56.1 12.0 58.35 9.4 60.95 1.15 61.35 -7.6 61.75 -11.0 58.35" fill="#3f9306" fill-rule="evenodd" stroke="none"/>
    <path d="M-11.0 58.35 Q-14.4 54.95 -14.05 -0.95 -13.9 -23.35 -13.1 -40.05 -12.2 -57.95 -11.0 -59.2 -8.55 -61.6 0.8 -61.4 7.25 -61.35 10.2 -60.25 11.25 -46.2 11.35 -0.65 11.45 45.5 10.3 59.55 7.25 61.05 1.15 61.35 -7.6 61.75 -11.0 58.35" fill="#7cb421" fill-rule="evenodd" stroke="none"/>
    <path d="M-7.85 49.6 Q-10.5 46.55 -10.5 42.3 -10.5 38.05 -7.85 35.05 -5.2 32.0 -1.5 32.0 2.2 32.0 4.85 35.05 7.5 38.05 7.5 42.3 7.5 46.55 4.85 49.6 2.2 52.6 -1.5 52.6 -5.2 52.6 -7.85 49.6" fill="#339fff" fill-rule="evenodd" stroke="none"/>
    <path d="M-5.2 46.5 Q-6.7 44.75 -6.7 42.3 -6.7 39.8 -5.2 38.05 -3.65 36.3 -1.5 36.3 0.7 36.3 2.2 38.05 3.75 39.8 3.75 42.3 3.75 44.75 2.2 46.5 0.7 48.25 -1.5 48.25 -3.65 48.25 -5.2 46.5" fill="#f73600" fill-rule="evenodd" stroke="none"/>
    <path d="M-7.85 -49.5 Q-10.5 -46.45 -10.5 -42.2 -10.5 -37.95 -7.85 -34.95 -5.2 -31.9 -1.5 -31.9 2.2 -31.9 4.85 -34.95 7.5 -37.95 7.5 -42.2 7.5 -46.45 4.85 -49.5 2.2 -52.5 -1.5 -52.5 -5.2 -52.5 -7.85 -49.5" fill="#339fff" fill-rule="evenodd" stroke="none"/>
    <path d="M-5.2 -46.4 Q-6.7 -44.65 -6.7 -42.2 -6.7 -39.7 -5.2 -37.95 -3.65 -36.2 -1.5 -36.2 0.7 -36.2 2.2 -37.95 3.75 -39.7 3.75 -42.2 3.75 -44.65 2.2 -46.4 0.7 -48.15 -1.5 -48.15 -3.65 -48.15 -5.2 -46.4" fill="#f73600" fill-rule="evenodd" stroke="none"/>
    <path d="M-13.95 24.35 L14.1 24.35 14.05 28.35 -13.9 28.35 -13.95 24.35 M-14.05 18.65 L14.15 18.65 14.1 20.65 -14.0 20.65 -14.05 18.65" fill="#ad0303" fill-rule="evenodd" stroke="none"/>
    <path d="M-14.05 18.65 L11.35 18.65 11.35 20.65 -14.0 20.65 -14.05 18.65 M-13.95 24.35 L11.3 24.35 11.3 28.35 -13.9 28.35 -13.95 24.35" fill="#ff0000" fill-rule="evenodd" stroke="none"/>
    <path d="M-13.75 -20.1 L14.05 -20.1 14.05 -18.1 -13.8 -18.1 -13.75 -20.1 M-13.65 -23.8 L-13.55 -27.65 13.95 -27.8 14.0 -23.8 -13.65 -23.8" fill="#ad0303" fill-rule="evenodd" stroke="none"/>
    <path d="M11.3 -18.1 L-13.8 -18.1 -13.75 -20.1 11.25 -20.1 11.3 -18.1 M11.2 -27.75 L11.25 -23.8 -13.65 -23.8 -13.55 -27.65 12.2 -27.8 11.2 -27.75" fill="#ff0000" fill-rule="evenodd" stroke="none"/>
  </g>
</svg>
