<?xml version="1.0" encoding="UTF-8" standalone="no"?>
<svg xmlns:xlink="http://www.w3.org/1999/xlink" height="185.5px" width="105.65px" xmlns="http://www.w3.org/2000/svg">
  <g transform="matrix(1.0, 0.0, 0.0, 1.0, 52.8, 92.0)">
    <path d="M6.95 -82.6 Q6.95 -79.35 4.6 -77.0 L2.25 -75.35 2.25 -63.6 -4.75 -63.6 -4.75 -75.65 Q-5.7 -76.2 -6.55 -77.0 -8.85 -79.35 -8.85 -82.6 -8.85 -85.85 -6.55 -88.2 -4.25 -90.5 -0.95 -90.5 2.3 -90.5 4.6 -88.2 6.95 -85.85 6.95 -82.6" fill="#7cb421" fill-rule="evenodd" stroke="none"/>
    <path d="M6.95 -82.6 Q6.95 -79.35 4.6 -77.0 L2.25 -75.35 2.25 -63.6 -4.75 -63.6 -4.75 -75.65 Q-5.7 -76.2 -6.55 -77.0 -8.85 -79.35 -8.85 -82.6 -8.85 -85.85 -6.55 -88.2 -4.25 -90.5 -0.95 -90.5 2.3 -90.5 4.6 -88.2 6.95 -85.85 6.95 -82.6 Z" fill="none" stroke="#416409" stroke-linecap="round" stroke-linejoin="round" stroke-width="3.0"/>
    <path d="M41.95 -44.55 Q51.8 -25.6 49.35 7.6 47.55 31.3 39.8 59.75 35.95 73.95 32.4 83.45 30.65 85.2 25.9 86.95 16.45 90.5 1.8 90.5 -12.85 90.5 -22.15 86.95 -25.05 85.85 -27.1 84.55 L-28.5 83.45 Q-32.45 73.95 -36.95 59.75 -45.9 31.3 -48.65 7.6 -52.55 -25.6 -43.5 -44.55 -32.25 -68.25 -1.3 -68.25 29.7 -68.25 41.95 -44.55 Z" fill="none" stroke="#416409" stroke-linecap="round" stroke-linejoin="round" stroke-width="6.0"/>
    <path d="M41.95 -44.55 Q51.8 -25.6 49.35 7.6 47.55 31.3 39.8 59.75 35.95 73.95 32.4 83.45 30.65 85.2 25.9 86.95 16.45 90.5 1.8 90.5 -12.85 90.5 -22.15 86.95 -25.05 85.85 -27.1 84.55 L-28.5 83.45 Q-32.45 73.95 -36.95 59.75 -45.9 31.3 -48.65 7.6 -52.55 -25.6 -43.5 -44.55 -32.25 -68.25 -1.3 -68.25 29.7 -68.25 41.95 -44.55" fill="#7cb421" fill-rule="evenodd" stroke="none"/>
    <path d="M25.9 86.95 Q16.45 90.5 1.8 90.5 -12.85 90.5 -22.15 86.95 -25.05 85.85 -27.1 84.55 L-28.5 83.45 Q-32.35 74.2 -36.7 60.5 -34.25 62.5 -31.0 64.2 -18.2 70.9 1.75 70.9 21.8 70.9 34.7 64.2 L39.35 61.5 Q35.75 74.55 32.4 83.45 30.65 85.2 25.9 86.95" fill="#ffcc33" fill-rule="evenodd" stroke="none"/>
    <path d="M3.65 -68.1 Q-13.1 -62.3 -20.75 -44.2 -29.8 -22.95 -25.9 14.35 -23.1 40.9 -14.15 72.9 L-9.05 89.85 Q-16.6 89.0 -22.15 86.9 -25.05 85.8 -27.1 84.5 L-28.5 83.4 Q-32.45 73.9 -36.95 59.7 -45.9 31.25 -48.65 7.6 -52.55 -25.6 -43.5 -44.6 -32.25 -68.25 -1.3 -68.25 L3.65 -68.1" fill="#ffffff" fill-opacity="0.49803922" fill-rule="evenodd" stroke="none"/>
    <path d="M0.0 -68.25 L0.55 -68.3 Q-25.05 -65.75 -35.05 -42.5 -44.1 -21.55 -40.2 15.05 -37.4 41.15 -28.5 72.55 L-24.4 86.0 -27.1 84.55 -28.5 83.45 Q-32.45 73.95 -36.95 59.75 -45.9 31.3 -48.65 7.6 L-48.9 5.15 -48.8 6.35 Q-52.05 -23.25 -44.9 -41.4 L-45.25 -40.4 -43.5 -44.55 Q-32.25 -68.25 -1.3 -68.25 L0.0 -68.25" fill="#3f9306" fill-rule="evenodd" stroke="none"/>
    <path d="M-31.0 64.2 L-30.75 64.35 -28.5 72.55 -24.4 86.0 -27.1 84.55 -28.5 83.45 Q-32.35 74.2 -36.7 60.5 -34.25 62.5 -31.0 64.2" fill="#cd960d" fill-rule="evenodd" stroke="none"/>
  </g>
</svg>
