<?xml version="1.0" encoding="UTF-8" standalone="no"?>
<svg xmlns:xlink="http://www.w3.org/1999/xlink" height="144.25px" width="94.8px" xmlns="http://www.w3.org/2000/svg">
  <g transform="matrix(1.0, 0.0, 0.0, 1.0, 47.35, 72.1)">
    <path d="M37.3 -47.85 L42.95 37.45 42.9 37.45 42.95 38.95 Q42.95 50.85 30.4 59.2 17.85 67.65 0.05 67.65 -17.75 67.65 -30.3 59.2 -42.85 50.85 -42.85 38.95 L-42.8 37.45 -42.85 37.45 -37.25 -47.45 -37.25 -48.0 Q-37.25 -56.15 -26.35 -61.9 -15.45 -67.6 0.0 -67.6 15.45 -67.6 26.35 -61.9 37.25 -56.15 37.25 -48.0 L37.25 -47.85 37.3 -47.85" fill="#2e3138" fill-rule="evenodd" stroke="none"/>
    <path d="M37.3 -47.85 L42.95 37.45 42.9 37.45 42.95 38.95 Q42.95 50.85 30.4 59.2 17.85 67.65 0.05 67.65 -17.75 67.65 -30.3 59.2 -42.85 50.85 -42.85 38.95 L-42.8 37.45 -42.85 37.45 -37.25 -47.45 -37.25 -48.0 Q-37.25 -56.15 -26.35 -61.9 -15.45 -67.6 0.0 -67.6 15.45 -67.6 26.35 -61.9 37.25 -56.15 37.25 -48.0 L37.25 -47.85 37.3 -47.85 Z" fill="none" stroke="#2e3138" stroke-linecap="round" stroke-linejoin="round" stroke-width="9.0"/>
    <path d="M37.25 -47.9 L42.9 37.45 42.9 38.95 Q42.9 50.8 30.35 59.2 17.8 67.6 0.05 67.6 -17.8 67.6 -30.35 59.2 -42.9 50.8 -42.9 38.95 L-42.85 37.45 -42.9 37.45 -37.25 -47.9 -37.25 -48.0 Q-37.25 -56.1 -26.4 -61.9 -15.45 -67.6 0.0 -67.6 15.4 -67.6 26.3 -61.9 37.2 -56.1 37.2 -48.0 L37.2 -47.9 37.25 -47.9" fill="#4e5b72" fill-rule="evenodd" stroke="none"/>
    <path d="M-23.8 -63.1 L-30.5 59.15 Q-35.1 56.0 -38.05 52.4 L-32.05 -58.1 Q-29.75 -60.1 -26.4 -61.9 L-23.8 -63.1 M-0.2 -67.6 L-7.45 67.25 Q-17.95 66.05 -26.35 61.6 L-19.55 -64.75 Q-11.05 -67.6 -0.2 -67.6" fill="#ffffff" fill-opacity="0.4" fill-rule="evenodd" stroke="none"/>
  </g>
</svg>
