<?xml version="1.0" encoding="UTF-8" standalone="no"?>
<svg xmlns:xlink="http://www.w3.org/1999/xlink" height="93.0px" width="28.65px" xmlns="http://www.w3.org/2000/svg">
  <g transform="matrix(1.0, 0.0, 0.0, 1.0, 17.6, 11.95)">
    <path d="M4.55 -0.2 Q3.8 15.95 5.0 27.55 6.3 39.95 10.3 51.25 L11.05 81.05 -3.7 79.1 -2.25 65.8 -5.2 75.8 -13.95 73.6 -12.25 63.55 -14.95 70.05 -17.6 67.3 -11.45 52.3 Q-10.6 26.5 -4.95 -1.2 L4.55 -0.2" fill="#bf7926" fill-rule="evenodd" stroke="none"/>
    <path d="M5.0 27.55 Q6.3 39.95 10.3 51.25 L10.45 56.05 6.25 63.05 6.1 60.75 Q5.85 58.5 6.15 57.65 3.85 59.75 1.75 61.1 -0.2 62.4 -3.3 63.95 L-3.15 60.2 Q-3.05 58.2 -2.25 56.5 L-6.65 59.95 Q-8.75 61.35 -11.6 62.6 L-10.35 59.05 Q-9.7 57.25 -8.25 55.8 L-13.8 58.05 -11.45 52.3 Q-10.6 26.5 -4.95 -1.2 L5.15 -11.95 4.55 -0.2 Q3.8 15.95 5.0 27.55 M-13.25 62.8 L-12.85 62.6 -13.3 62.9 -13.25 62.8" fill="#70381f" fill-rule="evenodd" stroke="none"/>
  </g>
</svg>
