<?xml version="1.0" encoding="UTF-8" standalone="no"?>
<svg xmlns:xlink="http://www.w3.org/1999/xlink" height="34.0px" width="44.45px" xmlns="http://www.w3.org/2000/svg">
  <g transform="matrix(1.0, 0.0, 0.0, 1.0, 22.2, 17.0)">
    <path d="M17.75 6.55 L8.85 8.1 7.15 11.85 -5.6 12.5 -8.0 9.85 -15.75 10.2 -17.7 -8.6 -9.25 -9.25 -7.65 6.5 -7.0 -10.25 1.7 -12.5 5.6 3.5 4.95 -10.65 14.2 -11.4 17.75 6.55" fill="#bf7926" fill-rule="evenodd" stroke="none"/>
    <path d="M17.75 6.55 L8.85 8.1 7.15 11.85 -5.6 12.5 -8.0 9.85 -15.75 10.2 -17.7 -8.6 -9.25 -9.25 -7.65 6.5 -7.0 -10.25 1.7 -12.5 5.6 3.5 4.95 -10.65 14.2 -11.4 17.75 6.55 Z" fill="none" stroke="#6d1800" stroke-linecap="round" stroke-linejoin="round" stroke-width="9.0"/>
    <path d="M17.75 6.55 L8.85 8.1 7.15 11.85 -5.6 12.5 -8.0 9.85 -15.75 10.2 -17.7 -8.6 -9.25 -9.25 -7.65 6.5 -7.0 -10.25 1.7 -12.5 5.6 3.5 4.95 -10.65 14.2 -11.4 17.75 6.55" fill="#bf7926" fill-rule="evenodd" stroke="none"/>
  </g>
</svg>
