<?xml version="1.0" encoding="UTF-8" standalone="no"?>
<svg xmlns:xlink="http://www.w3.org/1999/xlink" height="68.15px" width="92.8px" xmlns="http://www.w3.org/2000/svg">
  <g transform="matrix(1.0, 0.0, 0.0, 1.0, 45.5, 18.25)">
    <path d="M-40.65 25.55 Q-42.55 23.6 -42.5 17.6 -42.4 11.75 -40.65 10.0 -39.4 8.75 -33.6 9.05 L-33.25 8.2 Q-30.7 0.4 -25.65 -4.65 -20.4 -9.9 -13.55 -12.6 -6.95 -15.25 0.65 -15.25 8.25 -15.25 14.9 -12.6 21.7 -9.9 26.95 -4.65 32.0 0.4 34.6 8.2 L34.85 9.1 Q41.1 8.7 42.45 10.0 44.2 11.75 44.3 17.6 44.4 23.6 42.45 25.55 41.15 26.85 36.55 26.75 35.3 33.05 29.2 37.25 25.4 39.95 19.9 41.55 18.95 43.5 14.5 44.95 8.8 46.9 0.65 46.9 -7.4 46.9 -13.15 44.95 -17.6 43.5 -18.6 41.55 -24.05 39.95 -27.9 37.25 -33.95 33.05 -35.25 26.75 -39.4 26.8 -40.65 25.55 Z" fill="none" stroke="#856301" stroke-linecap="round" stroke-linejoin="round" stroke-width="6.0"/>
    <path d="M33.8 9.15 L26.9 10.0 26.9 25.55 33.65 26.55 Q40.75 27.2 42.45 25.55 44.35 23.6 44.25 17.6 44.15 11.75 42.45 10.0 41.0 8.6 33.8 9.15" fill="#ffcc33" fill-rule="evenodd" stroke="none"/>
    <path d="M42.8 25.1 L42.8 23.75 Q42.7 17.9 40.95 16.15 39.55 14.75 32.35 15.3 L26.9 15.9 26.9 25.55 33.65 26.55 Q40.75 27.2 42.45 25.55 L42.8 25.1" fill="#cd960d" fill-rule="evenodd" stroke="none"/>
    <path d="M-32.0 9.15 L-25.1 10.0 -25.1 25.55 -31.85 26.55 Q-38.95 27.2 -40.65 25.55 -42.55 23.6 -42.45 17.6 -42.35 11.75 -40.65 10.0 -39.2 8.6 -32.0 9.15" fill="#ffcc33" fill-rule="evenodd" stroke="none"/>
    <path d="M-41.0 25.1 L-41.0 23.75 Q-40.9 17.9 -39.15 16.15 -37.75 14.75 -30.55 15.3 L-25.1 15.9 -25.1 25.55 -31.85 26.55 Q-38.95 27.2 -40.65 25.55 L-41.0 25.1" fill="#cd960d" fill-rule="evenodd" stroke="none"/>
    <path d="M14.95 -12.6 Q21.75 -9.9 27.0 -4.65 32.05 0.4 34.65 8.2 36.95 15.2 36.95 23.2 36.95 31.9 29.25 37.25 19.85 43.85 0.7 43.85 -18.45 43.85 -27.85 37.25 -35.55 31.9 -35.55 23.2 -35.55 15.2 -33.25 8.2 -30.65 0.4 -25.6 -4.65 -20.35 -9.9 -13.55 -12.6 -6.9 -15.25 0.7 -15.25 8.3 -15.25 14.95 -12.6" fill="#ffcc33" fill-rule="evenodd" stroke="none"/>
    <path d="M14.95 -12.6 Q8.3 -15.25 0.7 -15.25 -6.9 -15.25 -13.55 -12.6 -20.35 -9.9 -25.6 -4.65 -30.65 0.4 -33.25 8.2 -35.55 15.2 -35.55 23.2 -35.55 31.9 -27.85 37.25 -18.45 43.85 0.7 43.85 19.85 43.85 29.25 37.25 36.95 31.9 36.95 23.2 36.95 15.2 34.65 8.2 32.05 0.4 27.0 -4.65 21.75 -9.9 14.95 -12.6 Z" fill="none" stroke="#856301" stroke-linecap="round" stroke-linejoin="round" stroke-width="1.0"/>
    <path d="M-9.55 27.25 Q-16.45 24.95 -20.05 25.5 -23.85 26.05 -27.95 28.15 -30.0 29.2 -31.65 30.3 -29.9 32.9 -27.0 35.1 -23.95 37.45 -20.05 39.0 L-18.95 39.4 -18.85 40.4 Q-18.85 43.1 -13.15 44.95 -7.4 46.9 0.7 46.9 8.8 46.9 14.5 44.95 20.2 43.1 20.2 40.4 L20.3 39.35 21.4 39.0 Q29.35 36.1 33.25 29.95 L29.4 27.9 Q25.1 25.9 21.4 25.35 17.75 24.85 10.95 27.2 3.55 29.75 0.7 29.75 -2.0 29.75 -9.55 27.25" fill="#ffcc33" fill-rule="evenodd" stroke="none"/>
    <path d="M-13.4 -7.25 Q-10.75 -10.3 -7.65 -12.55 L-11.4 -11.35 Q-18.2 -8.8 -23.45 -3.8 -28.5 1.05 -31.1 8.45 -33.4 15.15 -33.4 22.75 -33.4 31.05 -25.7 36.15 -21.6 38.85 -15.65 40.4 -23.35 34.3 -23.35 24.45 -23.35 15.3 -21.05 7.35 -18.45 -1.5 -13.4 -7.25" fill="#cd960d" fill-rule="evenodd" stroke="none"/>
    <path d="M18.95 -7.7 L22.4 -4.65 Q27.45 0.4 30.05 8.2 32.35 15.2 32.35 23.2 32.35 31.9 24.65 37.25 L24.55 37.35 Q26.75 32.4 26.75 26.2 26.75 15.5 24.45 6.2 22.45 -1.85 18.95 -7.7" fill="#ffffff" fill-rule="evenodd" stroke="none"/>
    <path d="M-0.35 34.45 Q12.45 34.9 20.1 39.4 L20.35 39.6 20.35 39.65 20.3 40.35 Q20.3 43.1 14.55 44.95 8.85 46.9 0.7 46.9 -7.35 46.9 -13.1 44.95 -18.8 43.1 -18.8 40.35 L-18.95 39.45 -18.7 39.3 Q-10.95 34.95 -0.35 34.45" fill="#ffcc33" fill-rule="evenodd" stroke="none"/>
    <path d="M-8.15 31.6 Q-4.65 32.9 -4.65 34.75 L-4.65 40.95 -28.25 40.95 -28.25 34.75 Q-28.25 32.9 -24.8 31.6 -21.3 30.35 -16.45 30.35 -11.55 30.35 -8.15 31.6" fill="#727272" fill-rule="evenodd" stroke="none"/>
    <path d="M30.1 34.75 L30.1 40.95 6.5 40.95 6.5 34.75 Q6.5 32.9 9.95 31.6 13.45 30.35 18.3 30.35 23.2 30.35 26.6 31.6 30.1 32.9 30.1 34.75" fill="#727272" fill-rule="evenodd" stroke="none"/>
    <path d="M-4.65 34.75 L-4.65 40.95 -4.65 41.05 Q-4.65 42.85 -8.15 44.1 -11.6 45.4 -16.45 45.4 -21.35 45.4 -24.85 44.1 -28.3 42.85 -28.3 41.05 L-28.25 40.65 -28.25 34.75 Q-28.25 32.9 -24.8 31.6 -21.3 30.35 -16.45 30.35 -11.55 30.35 -8.15 31.6 -4.65 32.9 -4.65 34.75 Z" fill="none" stroke="#2e2d2d" stroke-linecap="round" stroke-linejoin="round" stroke-width="2.0"/>
    <path d="M30.1 34.75 L30.1 40.95 30.1 41.05 Q30.1 42.85 26.6 44.1 23.15 45.4 18.3 45.4 13.4 45.4 9.9 44.1 6.45 42.85 6.45 41.05 L6.5 40.65 6.5 34.75 Q6.5 32.9 9.95 31.6 13.45 30.35 18.3 30.35 23.2 30.35 26.6 31.6 30.1 32.9 30.1 34.75 Z" fill="none" stroke="#2e2d2d" stroke-linecap="round" stroke-linejoin="round" stroke-width="2.0"/>
    <path d="M-8.15 44.1 Q-11.6 45.4 -16.45 45.4 -21.35 45.4 -24.85 44.1 -28.3 42.85 -28.3 41.05 -28.3 39.2 -24.85 37.9 -21.35 36.65 -16.45 36.65 -11.6 36.65 -8.15 37.9 -4.65 39.2 -4.65 41.05 -4.65 42.85 -8.15 44.1" fill="#2e2d2d" fill-rule="evenodd" stroke="none"/>
    <path d="M-10.2 43.45 Q-12.85 44.35 -16.6 44.35 -20.35 44.35 -23.05 43.45 -25.7 42.65 -25.7 41.5 -25.7 40.3 -23.05 39.45 -20.35 38.65 -16.6 38.65 -12.85 38.65 -10.2 39.45 -7.45 40.3 -7.45 41.5 -7.45 42.65 -10.2 43.45" fill="#ffffff" fill-rule="evenodd" stroke="none"/>
    <path d="M30.1 41.05 Q30.1 42.85 26.6 44.1 23.15 45.4 18.3 45.4 13.4 45.4 9.9 44.1 6.45 42.85 6.45 41.05 6.45 39.2 9.9 37.9 13.4 36.65 18.3 36.65 23.15 36.65 26.6 37.9 30.1 39.2 30.1 41.05" fill="#2e2d2d" fill-rule="evenodd" stroke="none"/>
    <path d="M27.3 41.5 Q27.3 42.65 24.55 43.45 21.9 44.35 18.15 44.35 14.4 44.35 11.7 43.45 9.05 42.65 9.05 41.5 9.05 40.3 11.7 39.45 14.4 38.65 18.15 38.65 21.9 38.65 24.55 39.45 27.3 40.3 27.3 41.5" fill="#ffffff" fill-rule="evenodd" stroke="none"/>
  </g>
</svg>
