<?xml version="1.0" encoding="UTF-8" standalone="no"?>
<svg xmlns:xlink="http://www.w3.org/1999/xlink" height="91.0px" width="92.8px" xmlns="http://www.w3.org/2000/svg">
  <g transform="matrix(1.0, 0.0, 0.0, 1.0, 46.4, 38.65)">
    <path d="M-41.55 6.45 Q-40.3 5.2 -34.5 5.5 L-34.15 4.65 Q-31.6 -3.15 -26.55 -8.2 -21.3 -13.45 -14.45 -16.15 -7.85 -18.8 -0.25 -18.8 7.35 -18.8 14.0 -16.15 20.8 -13.45 26.05 -8.2 31.1 -3.15 33.7 4.65 L33.95 5.55 Q40.2 5.15 41.55 6.45 43.3 8.2 43.4 14.05 43.5 20.05 41.55 22.0 40.25 23.3 35.65 23.2 34.4 29.5 28.3 33.7 24.5 36.4 19.0 38.0 18.05 39.95 13.6 41.4 7.9 43.35 -0.25 43.35 -8.3 43.35 -14.05 41.4 -18.5 39.95 -19.5 38.0 -24.95 36.4 -28.8 33.7 -34.85 29.5 -36.15 23.2 -40.3 23.25 -41.55 22.0 -43.45 20.05 -43.4 14.05 -43.3 8.2 -41.55 6.45 Z" fill="none" stroke="#3c190a" stroke-linecap="round" stroke-linejoin="round" stroke-width="6.0"/>
    <path d="M32.9 5.6 L26.0 6.45 26.0 22.0 32.75 23.0 Q39.85 23.65 41.55 22.0 43.45 20.05 43.35 14.05 43.25 8.2 41.55 6.45 40.1 5.05 32.9 5.6" fill="#70381f" fill-rule="evenodd" stroke="none"/>
    <path d="M40.05 12.6 Q38.65 11.2 31.45 11.75 L26.0 12.35 26.0 22.0 32.75 23.0 Q39.85 23.65 41.55 22.0 L41.9 21.55 41.9 20.2 Q41.8 14.35 40.05 12.6" fill="#bf7926" fill-rule="evenodd" stroke="none"/>
    <path d="M-32.9 5.6 L-26.0 6.45 -26.0 22.0 -32.75 23.0 Q-39.85 23.65 -41.55 22.0 -43.45 20.05 -43.35 14.05 -43.25 8.2 -41.55 6.45 -40.1 5.05 -32.9 5.6" fill="#70381f" fill-rule="evenodd" stroke="none"/>
    <path d="M-40.05 12.6 Q-38.65 11.2 -31.45 11.75 L-26.0 12.35 -26.0 22.0 -32.75 23.0 Q-39.85 23.65 -41.55 22.0 L-41.9 21.55 -41.9 20.2 Q-41.8 14.35 -40.05 12.6" fill="#bf7926" fill-rule="evenodd" stroke="none"/>
    <path d="M26.1 -8.2 Q31.15 -3.15 33.75 4.65 36.05 11.65 36.05 19.65 36.05 28.35 28.35 33.7 18.95 40.3 -0.2 40.3 -19.35 40.3 -28.75 33.7 -36.45 28.35 -36.45 19.65 -36.45 11.65 -34.15 4.65 -31.55 -3.15 -26.5 -8.2 -21.25 -13.45 -14.45 -16.15 -7.8 -18.8 -0.2 -18.8 7.4 -18.8 14.05 -16.15 20.85 -13.45 26.1 -8.2" fill="#70381f" fill-rule="evenodd" stroke="none"/>
    <path d="M26.1 -8.2 Q20.85 -13.45 14.05 -16.15 7.4 -18.8 -0.2 -18.8 -7.8 -18.8 -14.45 -16.15 -21.25 -13.45 -26.5 -8.2 -31.55 -3.15 -34.15 4.65 -36.45 11.65 -36.45 19.65 -36.45 28.35 -28.75 33.7 -19.35 40.3 -0.2 40.3 18.95 40.3 28.35 33.7 36.05 28.35 36.05 19.65 36.05 11.65 33.75 4.65 31.15 -3.15 26.1 -8.2 Z" fill="none" stroke="#3c190a" stroke-linecap="round" stroke-linejoin="round" stroke-width="1.0"/>
    <path d="M-12.3 -14.9 Q-19.1 -12.35 -24.35 -7.35 -29.4 -2.5 -32.0 4.9 -34.3 11.6 -34.3 19.2 -34.3 27.5 -26.6 32.6 -22.5 35.3 -16.55 36.85 -24.25 30.75 -24.25 20.9 -24.25 11.75 -21.95 3.8 -19.35 -5.05 -14.3 -10.8 -11.65 -13.85 -8.55 -16.1 L-12.3 -14.9" fill="#54230d" fill-rule="evenodd" stroke="none"/>
    <path d="M32.35 26.4 Q28.45 32.55 20.5 35.45 L19.4 35.8 19.3 36.85 Q19.3 39.55 13.6 41.4 7.9 43.35 -0.2 43.35 -8.3 43.35 -14.05 41.4 -19.75 39.55 -19.75 36.85 L-19.85 35.85 -20.95 35.45 Q-24.85 33.9 -27.9 31.55 -30.8 29.35 -32.55 26.75 -30.9 25.65 -28.85 24.6 -24.75 22.5 -20.95 21.95 -17.35 21.4 -10.45 23.7 -2.9 26.2 -0.2 26.2 2.65 26.2 10.05 23.65 16.85 21.3 20.5 21.8 24.2 22.35 28.5 24.35 32.15 26.35 32.35 26.4" fill="#a35d0d" fill-rule="evenodd" stroke="none"/>
    <path d="M17.3 29.8 Q16.45 30.65 16.45 31.9 16.45 33.1 17.3 34.0 18.2 34.85 19.4 34.85 20.65 34.85 21.5 34.0 22.4 33.1 22.4 31.9 22.4 30.65 21.5 29.8 20.65 28.9 19.4 28.9 18.2 28.9 17.3 29.8" fill="#000000" fill-rule="evenodd" stroke="none"/>
    <path d="M-22.0 29.8 Q-22.85 30.65 -22.85 31.9 -22.85 33.1 -22.0 34.0 -21.1 34.85 -19.9 34.85 -18.65 34.85 -17.8 34.0 -16.9 33.1 -16.9 31.9 -16.9 30.65 -17.8 29.8 -18.65 28.9 -19.9 28.9 -21.1 28.9 -22.0 29.8" fill="#000000" fill-rule="evenodd" stroke="none"/>
    <path d="M-1.3 30.9 Q11.5 31.35 19.15 35.85 L19.4 36.05 19.4 36.1 19.35 36.8 Q19.35 39.55 13.6 41.4 7.9 43.35 -0.25 43.35 -8.3 43.35 -14.05 41.4 -19.75 39.55 -19.75 36.8 L-19.9 35.9 -19.65 35.75 Q-11.9 31.4 -1.3 30.9" fill="#bf7926" fill-rule="evenodd" stroke="none"/>
    <path d="M-10.45 35.5 Q-14.25 37.55 -19.55 37.55 -24.9 37.55 -28.65 35.5 -32.45 33.5 -32.45 30.65 -32.45 27.8 -28.65 25.75 -24.9 23.75 -19.6 23.75 -14.25 23.75 -10.45 25.75 -6.65 27.8 -6.65 30.65 -6.65 33.5 -10.45 35.5 Z" fill="none" stroke="#000000" stroke-linecap="round" stroke-linejoin="round" stroke-width="3.0"/>
    <path d="M27.1 35.5 Q23.3 37.55 18.0 37.55 12.65 37.55 8.9 35.5 5.1 33.5 5.1 30.65 5.1 27.8 8.9 25.75 12.65 23.75 17.95 23.75 23.3 23.75 27.1 25.75 30.9 27.8 30.9 30.65 30.9 33.5 27.1 35.5 Z" fill="none" stroke="#000000" stroke-linecap="round" stroke-linejoin="round" stroke-width="3.0"/>
    <path d="M5.1 30.3 Q-0.95 28.6 -6.6 30.3" fill="none" stroke="#000000" stroke-linecap="round" stroke-linejoin="round" stroke-width="3.0"/>
    <path d="M40.35 11.85 Q40.35 27.4 28.45 38.4 16.6 49.35 -0.2 49.35 -16.95 49.35 -28.9 38.4 -40.75 27.4 -40.75 11.85 -40.75 -3.75 -28.9 -14.75 -19.3 -23.55 -6.65 -25.3 L1.65 -35.65 8.85 -24.85 Q19.95 -22.65 28.45 -14.75 40.35 -3.75 40.35 11.85 Z" fill="none" stroke="#1c1a17" stroke-linecap="round" stroke-linejoin="round" stroke-width="6.0"/>
    <path d="M28.45 -14.75 Q40.35 -3.75 40.35 11.85 40.35 27.4 28.45 38.4 16.6 49.35 -0.2 49.35 -16.95 49.35 -28.9 38.4 -40.75 27.4 -40.75 11.85 -40.75 -3.75 -28.9 -14.75 -16.95 -25.75 -0.2 -25.75 16.6 -25.75 28.45 -14.75" fill="#62594e" fill-rule="evenodd" stroke="none"/>
    <path d="M4.8 -25.5 Q-6.55 -22.75 -15.3 -12.5 -27.15 1.5 -27.15 21.3 -27.15 33.25 -22.85 43.05 L-28.9 38.4 Q-40.75 27.4 -40.75 11.85 -40.75 -3.75 -28.9 -14.75 -16.95 -25.75 -0.2 -25.75 L4.8 -25.5" fill="#413c35" fill-rule="evenodd" stroke="none"/>
    <path d="M13.75 -17.25 Q26.45 2.6 29.5 9.75 31.25 13.8 21.55 20.7 11.9 27.5 -1.4 27.55 -14.75 27.55 -23.55 20.75 -32.3 13.95 -30.7 9.75 -27.85 2.35 -12.8 -17.4 L1.65 -35.65 13.75 -17.25" fill="#837a70" fill-rule="evenodd" stroke="none"/>
    <path d="M-5.7 -26.5 Q-17.55 7.3 -20.85 22.6 L-23.55 20.75 Q-32.3 13.95 -30.7 9.75 -27.85 2.35 -12.8 -17.4 L-5.7 -26.5" fill="#62594e" fill-rule="evenodd" stroke="none"/>
    <path d="M-4.4 -2.6 Q-8.8 -1.45 -11.05 2.5 -13.3 6.4 -12.1 10.8 -10.95 15.15 -7.0 17.4 -4.35 18.95 -1.5 18.9 L-2.5 19.25 Q-8.25 20.75 -13.4 17.75 -18.55 14.75 -20.1 9.05 -21.65 3.3 -18.65 -1.85 -15.7 -7.05 -9.9 -8.6 -4.15 -10.15 1.0 -7.15 6.15 -4.15 7.7 1.6 L7.9 2.35 Q6.45 -0.05 3.9 -1.55 -0.05 -3.8 -4.4 -2.6" fill="#ffbf1e" fill-rule="evenodd" stroke="none"/>
    <path d="M-20.1 9.05 Q-21.65 3.3 -18.65 -1.85 -16.25 -6.05 -12.05 -7.85 -16.0 4.25 -18.4 12.95 -19.5 11.2 -20.1 9.05" fill="#cd960d" fill-rule="evenodd" stroke="none"/>
    <path d="M-0.2 -19.5 Q-1.0 -20.3 -1.0 -21.5 -1.0 -22.65 -0.2 -23.45 0.6 -24.25 1.75 -24.25 2.95 -24.25 3.75 -23.45 4.6 -22.65 4.6 -21.5 4.6 -20.3 3.75 -19.5 2.95 -18.65 1.8 -18.65 0.6 -18.65 -0.2 -19.5" fill="#ffbf1e" fill-rule="evenodd" stroke="none"/>
    <path d="M8.05 17.1 Q6.25 15.3 6.25 12.7 6.25 10.15 8.05 8.3 9.85 6.5 12.4 6.5 15.0 6.5 16.8 8.3 18.65 10.15 18.65 12.7 18.65 15.3 16.8 17.1 15.0 18.9 12.45 18.9 9.85 18.9 8.05 17.1" fill="#ffbf1e" fill-rule="evenodd" stroke="none"/>
  </g>
</svg>
