<?xml version="1.0" encoding="UTF-8" standalone="no"?>
<svg xmlns:xlink="http://www.w3.org/1999/xlink" height="40.55px" width="18.9px" xmlns="http://www.w3.org/2000/svg">
  <g transform="matrix(1.0, 0.0, 0.0, 1.0, 9.45, 20.25)">
    <path d="M-7.95 -16.0 Q-7.85 -17.1 -5.65 -17.9 -3.3 -18.75 0.0 -18.75 3.25 -18.75 5.6 -17.9 7.8 -17.1 7.9 -16.0 L7.95 -16.0 7.95 15.7 7.9 15.7 7.9 15.95 Q7.9 17.1 5.6 17.95 3.25 18.8 0.0 18.8 -3.3 18.8 -5.65 17.95 -7.95 17.1 -7.95 15.95 L-7.9 15.7 -7.95 15.7 -7.95 -16.0" fill="#7987a1" fill-rule="evenodd" stroke="none"/>
    <path d="M-7.95 -16.0 L-7.95 15.7 -7.9 15.7 -7.95 15.95 Q-7.95 17.1 -5.65 17.95 -3.3 18.8 0.0 18.8 3.25 18.8 5.6 17.95 7.9 17.1 7.9 15.95 L7.9 15.7 7.95 15.7 7.95 -16.0 7.9 -16.0 Q7.8 -17.1 5.6 -17.9 3.25 -18.75 0.0 -18.75 -3.3 -18.75 -5.65 -17.9 -7.85 -17.1 -7.95 -16.0 Z" fill="none" stroke="#2e3138" stroke-linecap="round" stroke-linejoin="round" stroke-width="3.0"/>
    <path d="M-5.65 17.95 Q-3.3 18.8 0.0 18.8 3.25 18.8 5.6 17.95 7.9 17.1 7.9 15.95 7.9 14.8 5.6 13.95 3.25 13.1 0.0 13.1 -3.3 13.1 -5.65 13.95 -7.95 14.8 -7.95 15.95 -7.95 17.1 -5.65 17.95" fill="#7987a1" fill-rule="evenodd" stroke="none"/>
    <path d="M-7.95 15.7 L7.95 15.7 7.95 -16.0 -7.95 -16.0 -7.95 15.7" fill="#7987a1" fill-rule="evenodd" stroke="none"/>
    <path d="M0.0 -13.05 Q3.25 -13.05 5.6 -13.9 7.9 -14.75 7.9 -15.9 7.9 -17.05 5.6 -17.9 3.25 -18.75 0.0 -18.75 -3.3 -18.75 -5.65 -17.9 -7.95 -17.05 -7.95 -15.9 -7.95 -14.75 -5.65 -13.9 -3.3 -13.05 0.0 -13.05" fill="#7987a1" fill-rule="evenodd" stroke="none"/>
    <path d="M2.2 -18.65 L3.5 -18.45 3.5 18.5 2.2 18.7 2.2 -18.65 M5.6 -17.9 L6.6 -17.45 6.6 17.35 5.6 17.85 4.4 18.3 4.4 -18.25 5.6 -17.9" fill="#ffffff" fill-opacity="0.49803922" fill-rule="evenodd" stroke="none"/>
  </g>
</svg>
