<?xml version="1.0" encoding="UTF-8" standalone="no"?>
<svg xmlns:xlink="http://www.w3.org/1999/xlink" height="12.5px" width="12.1px" xmlns="http://www.w3.org/2000/svg">
  <g transform="matrix(1.0, 0.0, 0.0, 1.0, 5.95, -4.25)">
    <path d="M2.65 15.15 Q1.9 15.95 0.85 15.95 -0.15 15.95 -0.95 15.15 -1.7 14.4 -1.7 13.3 -1.7 12.2 -0.95 11.4 -0.15 10.65 0.85 10.65 1.9 10.65 2.65 11.4 3.4 12.2 3.4 13.3 3.4 14.4 2.65 15.15" fill="#ffffff" fill-rule="evenodd" stroke="none"/>
    <path d="M4.1 10.95 Q5.0 10.95 5.55 11.7 6.15 12.45 6.15 13.55 6.15 14.6 5.55 15.35 5.0 16.1 4.1 16.1 3.25 16.1 2.65 15.35 2.05 14.6 2.05 13.5 2.05 12.45 2.65 11.7 3.25 10.95 4.1 10.95" fill="#ffffff" fill-rule="evenodd" stroke="none"/>
    <path d="M-1.25 15.85 Q-2.05 16.75 -3.2 16.75 -4.35 16.75 -5.15 15.85 -5.95 15.0 -5.95 13.7 -5.95 12.45 -5.15 11.55 -4.35 10.7 -3.2 10.7 -2.05 10.7 -1.25 11.55 -0.45 12.45 -0.45 13.75 -0.45 15.0 -1.25 15.85" fill="#ffffff" fill-rule="evenodd" stroke="none"/>
    <path d="M-0.15 11.45 Q-1.15 12.6 -2.55 12.6 -3.95 12.6 -4.95 11.45 -5.9 10.3 -5.9 8.7 -5.9 7.15 -4.95 6.0 -3.95 4.9 -2.55 4.9 -1.15 4.9 -0.15 6.0 0.85 7.15 0.85 8.75 0.85 10.3 -0.15 11.45" fill="#ffffff" fill-rule="evenodd" stroke="none"/>
    <path d="M3.55 11.05 Q2.7 12.25 1.5 12.25 0.35 12.25 -0.5 11.05 -1.35 9.9 -1.35 8.25 -1.35 6.6 -0.5 5.4 0.35 4.25 1.5 4.25 2.7 4.25 3.55 5.4 4.4 6.6 4.4 8.25 4.4 9.9 3.55 11.05" fill="#ffffff" fill-rule="evenodd" stroke="none"/>
    <path d="M5.55 8.3 L4.65 8.8 Q4.1 8.8 3.7 8.3 3.35 7.85 3.35 7.15 3.35 6.5 3.7 6.0 4.1 5.55 4.65 5.55 5.2 5.55 5.55 6.0 5.95 6.5 5.95 7.15 5.95 7.85 5.55 8.3" fill="#ffffff" fill-rule="evenodd" stroke="none"/>
  </g>
</svg>
