<?xml version="1.0" encoding="UTF-8" standalone="no"?>
<svg xmlns:xlink="http://www.w3.org/1999/xlink" height="86.0px" width="90.1px" xmlns="http://www.w3.org/2000/svg">
  <g transform="matrix(1.0, 0.0, 0.0, 1.0, 44.0, 63.7)">
    <path d="M-36.6 -26.3 Q-33.5 -31.15 -29.0 -31.5 L-18.2 -32.25 -18.4 -35.95 -18.6 -39.1 -18.45 -41.35 -18.15 -42.9 -17.1 -45.85 -15.5 -48.4 -15.4 -48.5 Q-14.1 -50.3 -10.85 -51.7 -5.3 -54.15 2.55 -54.15 10.35 -54.15 15.9 -51.7 19.45 -50.15 20.75 -48.2 L22.15 -45.85 23.2 -42.9 23.5 -41.35 23.65 -39.1 23.45 -35.35 27.1 -35.65 Q29.95 -35.85 32.1 -32.45 33.75 -29.8 34.25 -26.15 37.1 -26.35 39.2 -22.95 41.35 -19.6 41.55 -14.6 41.8 -9.6 40.0 -5.75 38.2 -1.85 35.3 -1.3 L16.75 2.05 16.8 1.9 15.95 3.95 Q19.5 6.1 19.5 9.2 19.5 13.2 7.85 14.7 5.35 16.2 2.55 16.2 L-0.35 15.75 Q-16.65 20.05 -16.65 15.35 -16.65 11.4 -10.95 7.0 L-20.5 8.75 Q-25.0 9.55 -28.45 5.5 -30.85 2.75 -31.75 -1.1 -33.8 -1.9 -35.6 -3.95 -39.15 -8.1 -39.45 -14.7 -39.75 -21.3 -36.6 -26.3" fill="#416409" fill-rule="evenodd" stroke="none"/>
    <path d="M-36.6 -26.3 Q-39.75 -21.3 -39.45 -14.7 -39.15 -8.1 -35.6 -3.95 -33.8 -1.9 -31.75 -1.1 -30.85 2.75 -28.45 5.5 -25.0 9.55 -20.5 8.75 L-10.95 7.0 Q-16.65 11.4 -16.65 15.35 -16.65 20.05 -0.35 15.75 L2.55 16.2 Q5.35 16.2 7.85 14.7 19.5 13.2 19.5 9.2 19.5 6.1 15.95 3.95 L16.8 1.9 16.75 2.05 35.3 -1.3 Q38.2 -1.85 40.0 -5.75 41.8 -9.6 41.55 -14.6 41.35 -19.6 39.2 -22.95 37.1 -26.35 34.25 -26.15 33.75 -29.8 32.1 -32.45 29.95 -35.85 27.1 -35.65 L23.45 -35.35 23.65 -39.1 23.5 -41.35 23.2 -42.9 22.15 -45.85 20.75 -48.2 Q19.45 -50.15 15.9 -51.7 10.35 -54.15 2.55 -54.15 -5.3 -54.15 -10.85 -51.7 -14.1 -50.3 -15.4 -48.5 L-15.5 -48.4 -17.1 -45.85 -18.15 -42.9 -18.45 -41.35 -18.6 -39.1 -18.4 -35.95 -18.2 -32.25 -29.0 -31.5 Q-33.5 -31.15 -36.6 -26.3 Z" fill="none" stroke="#416409" stroke-linecap="round" stroke-linejoin="round" stroke-width="9.0"/>
    <path d="M1.45 -0.05 L1.55 -0.1 1.55 -0.05 Q5.95 0.3 10.35 1.55 19.5 4.15 19.5 9.15 19.5 14.1 1.45 15.2 -16.65 20.25 -16.65 15.3 -16.65 10.3 -7.5 4.6 -3.1 1.85 1.3 0.0 L1.3 -0.05 1.45 -0.05" fill="#416409" fill-rule="evenodd" stroke="none"/>
    <path d="M-36.6 -26.25 Q-33.5 -31.1 -29.0 -31.45 L27.1 -35.6 Q29.95 -35.8 32.1 -32.4 34.2 -29.05 34.45 -24.05 34.65 -19.05 32.9 -15.2 31.05 -11.3 28.2 -10.8 L-27.6 -0.75 Q-32.1 0.1 -35.6 -3.95 -39.15 -8.1 -39.45 -14.7 -39.75 -21.3 -36.6 -26.25" fill="#7cb421" fill-rule="evenodd" stroke="none"/>
    <path d="M-33.9 -22.85 Q-30.95 -27.7 -26.6 -28.0 L27.35 -31.9 Q30.1 -32.1 32.15 -28.65 34.05 -25.55 34.4 -21.05 34.1 -17.9 32.85 -15.25 31.05 -11.35 28.2 -10.8 L-27.6 -0.75 Q-31.35 -0.05 -34.45 -2.8 -36.4 -6.35 -36.6 -11.25 L-36.6 -11.3 Q-36.9 -17.9 -33.9 -22.85" fill="#719d17" fill-rule="evenodd" stroke="none"/>
    <path d="M-18.6 -39.1 L-18.45 -41.35 -18.15 -42.9 -17.1 -45.85 -15.45 -48.5 20.45 -48.5 22.15 -45.85 23.2 -42.9 23.5 -41.35 23.65 -39.1 23.15 -30.5 Q22.25 -20.1 20.5 -11.45 18.05 0.6 14.15 7.55 9.35 16.15 2.55 16.15 -4.25 16.15 -9.1 7.55 -13.0 0.6 -15.45 -11.45 -17.2 -20.1 -18.1 -30.5 L-18.6 -39.1" fill="#3f9306" fill-rule="evenodd" stroke="none"/>
    <path d="M-14.35 -39.1 L-14.25 -41.35 -14.0 -42.9 -13.15 -45.85 -11.85 -48.5 16.85 -48.5 18.15 -45.85 19.0 -42.9 19.25 -41.35 19.35 -39.1 18.95 -30.5 Q18.25 -20.1 16.85 -11.45 14.9 0.6 11.8 7.55 7.95 16.15 2.5 16.15 -2.9 16.15 -6.8 7.55 -9.9 0.6 -11.85 -11.45 -13.25 -20.1 -13.95 -30.5 L-14.35 -39.1" fill="#416409" fill-rule="evenodd" stroke="none"/>
    <path d="M-18.45 -41.35 L-18.15 -42.9 -17.1 -45.85 -15.45 -48.5 20.45 -48.5 22.15 -45.85 23.2 -42.9 23.5 -41.35 23.65 -39.1 23.5 -36.5 23.3 -36.2 23.45 -36.0 23.15 -30.5 22.9 -27.6 Q21.25 -25.75 18.2 -24.15 11.7 -20.8 2.55 -20.8 -6.65 -20.8 -13.1 -24.15 -16.2 -25.75 -17.8 -27.65 L-18.1 -30.5 -18.4 -36.0 -18.4 -35.95 -18.45 -36.5 -18.6 -39.1 -18.45 -41.35" fill="#0091e0" fill-rule="evenodd" stroke="none"/>
    <path d="M-14.2 -41.35 L-13.95 -42.95 -13.1 -45.85 -11.8 -48.5 16.85 -48.5 18.2 -45.85 19.05 -42.95 19.3 -41.35 19.4 -39.1 19.0 -30.5 18.5 -24.35 18.2 -24.15 Q11.7 -20.8 2.55 -20.8 -6.65 -20.8 -13.1 -24.15 L-13.4 -24.35 -13.9 -30.5 -14.3 -39.1 -14.2 -41.35" fill="#006aa3" fill-rule="evenodd" stroke="none"/>
    <path d="M-10.8 -51.75 Q-5.25 -54.2 2.55 -54.2 10.4 -54.2 15.95 -51.75 21.45 -49.35 21.45 -45.9 21.45 -42.45 15.95 -40.0 10.4 -37.6 2.55 -37.6 -5.25 -37.6 -10.8 -40.0 -16.35 -42.45 -16.35 -45.9 -16.35 -49.35 -10.8 -51.75" fill="#3eadea" fill-rule="evenodd" stroke="none"/>
    <path d="M22.65 -25.3 L34.2 -26.15 Q37.05 -26.35 39.2 -22.95 41.35 -19.6 41.55 -14.6 41.8 -9.6 40.0 -5.75 38.2 -1.85 35.3 -1.3 L16.75 2.05 Q18.9 -3.65 20.5 -11.45 21.8 -17.9 22.65 -25.3 M-32.3 -5.2 Q-32.6 -11.85 -29.45 -16.8 -26.4 -21.65 -21.9 -22.0 L-9.45 -22.9 -7.95 -11.45 Q-6.25 -0.9 -3.6 5.7 L-20.5 8.75 Q-25.0 9.55 -28.45 5.5 -32.0 1.4 -32.3 -5.2" fill="#7cb421" fill-rule="evenodd" stroke="none"/>
    <path d="M-29.5 -1.75 L-29.5 -1.8 Q-29.8 -8.4 -26.75 -13.35 -23.8 -18.2 -19.45 -18.5 L-9.05 -19.25 -7.95 -11.45 Q-6.25 -0.9 -3.6 5.7 L-20.5 8.75 Q-24.25 9.45 -27.3 6.7 -29.25 3.15 -29.5 -1.75 M22.2 -21.5 L34.45 -22.4 Q37.2 -22.6 39.3 -19.15 41.15 -16.05 41.5 -11.55 41.2 -8.4 40.0 -5.75 38.2 -1.85 35.3 -1.3 L16.75 2.05 Q18.9 -3.65 20.5 -11.45 L22.2 -21.5" fill="#719d17" fill-rule="evenodd" stroke="none"/>
    <path d="M1.3 -0.05 L1.45 -0.05 1.55 -0.1 1.55 -0.05 Q5.95 0.3 10.35 1.55 19.5 4.15 19.5 9.15 19.5 14.1 1.45 15.2 -16.65 20.25 -16.65 15.3 -16.65 10.3 -7.5 4.6 -3.1 1.85 1.3 0.0 L1.3 -0.05" fill="#719d17" fill-rule="evenodd" stroke="none"/>
    <path d="M-36.6 -26.25 Q-33.5 -31.1 -29.0 -31.45 L27.1 -35.6 Q29.95 -35.8 32.1 -32.4 34.2 -29.05 34.45 -24.05 34.65 -19.05 32.9 -15.2 31.05 -11.3 28.2 -10.8 L-27.6 -0.75 Q-32.1 0.1 -35.6 -3.95 -39.15 -8.1 -39.45 -14.7 -39.75 -21.3 -36.6 -26.25" fill="#7cb421" fill-rule="evenodd" stroke="none"/>
    <path d="M-33.9 -22.85 Q-30.95 -27.7 -26.6 -28.0 L27.35 -31.9 Q30.1 -32.1 32.15 -28.65 34.05 -25.55 34.4 -21.05 34.1 -17.9 32.85 -15.25 31.05 -11.35 28.2 -10.8 L-27.6 -0.75 Q-31.35 -0.05 -34.45 -2.8 -36.4 -6.35 -36.6 -11.25 L-36.6 -11.3 Q-36.9 -17.9 -33.9 -22.85" fill="#719d17" fill-rule="evenodd" stroke="none"/>
    <path d="M-17.1 -45.85 L-15.45 -48.5 20.45 -48.5 22.15 -45.85 23.2 -42.9 23.5 -41.35 23.65 -39.1 23.15 -30.5 Q22.25 -20.1 20.5 -11.45 18.05 0.6 14.15 7.55 9.35 16.15 2.55 16.15 -4.25 16.15 -9.1 7.55 -13.0 0.6 -15.45 -11.45 -17.2 -20.1 -18.1 -30.5 L-18.6 -39.1 -18.45 -41.35 -18.15 -42.9 -17.1 -45.85" fill="#3f9306" fill-rule="evenodd" stroke="none"/>
    <path d="M-15.4 -48.5 L10.15 -48.5 11.4 -45.85 12.15 -42.9 12.4 -41.35 12.5 -39.1 12.1 -30.45 Q11.5 -20.1 10.2 -11.45 8.35 0.6 5.55 7.55 2.8 14.1 -0.75 15.7 L-0.65 15.65 Q-5.45 14.05 -9.1 7.55 -13.0 0.6 -15.45 -11.45 -17.2 -20.1 -18.05 -30.45 L-18.6 -39.1 -18.45 -41.35 -18.15 -42.9 -17.1 -45.85 -15.4 -48.5" fill="#416409" fill-rule="evenodd" stroke="none"/>
    <path d="M-18.6 -39.1 L-18.45 -41.35 -18.15 -42.9 -17.1 -45.85 -15.45 -48.5 20.45 -48.5 22.15 -45.85 23.2 -42.9 23.5 -41.35 23.65 -39.1 23.5 -36.5 23.3 -36.2 23.45 -36.0 23.15 -30.5 22.9 -27.6 Q21.25 -25.75 18.2 -24.15 11.7 -20.8 2.55 -20.8 -6.65 -20.8 -13.1 -24.15 -16.2 -25.75 -17.8 -27.65 L-18.1 -30.5 -18.4 -36.0 -18.4 -35.95 -18.45 -36.5 -18.6 -39.1" fill="#0091e0" fill-rule="evenodd" stroke="none"/>
    <path d="M-15.4 -48.5 L10.15 -48.5 11.4 -45.85 12.15 -42.9 12.4 -41.35 12.5 -39.1 12.1 -30.45 11.45 -21.75 Q7.35 -20.8 2.55 -20.8 -6.65 -20.8 -13.1 -24.15 -16.2 -25.75 -17.8 -27.6 L-17.8 -27.8 -18.05 -30.45 -18.4 -35.95 -18.6 -39.1 -18.45 -41.35 -18.15 -42.9 -17.1 -45.85 -15.4 -48.5" fill="#006aa3" fill-rule="evenodd" stroke="none"/>
    <path d="M-10.8 -51.75 Q-5.25 -54.2 2.55 -54.2 10.4 -54.2 15.95 -51.75 21.45 -49.35 21.45 -45.9 21.45 -42.45 15.95 -40.0 10.4 -37.6 2.55 -37.6 -5.25 -37.6 -10.8 -40.0 -16.35 -42.45 -16.35 -45.9 -16.35 -49.35 -10.8 -51.75" fill="#3eadea" fill-rule="evenodd" stroke="none"/>
    <path d="M22.65 -25.3 L34.2 -26.15 Q37.05 -26.35 39.2 -22.95 41.35 -19.6 41.55 -14.6 41.8 -9.6 40.0 -5.75 38.2 -1.85 35.3 -1.3 L16.75 2.05 Q18.9 -3.65 20.5 -11.45 21.8 -17.9 22.65 -25.3 M-32.3 -5.2 Q-32.6 -11.85 -29.45 -16.8 -26.4 -21.65 -21.9 -22.0 L-9.45 -22.9 -7.95 -11.45 Q-6.25 -0.9 -3.6 5.7 L-20.5 8.75 Q-25.0 9.55 -28.45 5.5 -32.0 1.4 -32.3 -5.2" fill="#7cb421" fill-rule="evenodd" stroke="none"/>
    <path d="M-29.5 -1.75 L-29.5 -1.8 Q-29.8 -8.4 -26.75 -13.35 -23.8 -18.2 -19.45 -18.5 L-9.05 -19.25 -7.95 -11.45 Q-6.25 -0.9 -3.6 5.7 L-20.5 8.75 Q-24.25 9.45 -27.3 6.7 -29.25 3.15 -29.5 -1.75 M22.2 -21.5 L34.45 -22.4 Q37.2 -22.6 39.3 -19.15 41.15 -16.05 41.5 -11.55 41.2 -8.4 40.0 -5.75 38.2 -1.85 35.3 -1.3 L16.75 2.05 Q18.9 -3.65 20.5 -11.45 L22.2 -21.5" fill="#719d17" fill-rule="evenodd" stroke="none"/>
    <path d="M-15.3 -56.5 Q-7.9 -59.2 2.65 -59.2 13.15 -59.2 20.55 -56.5 28.0 -53.8 28.0 -50.0 28.0 -46.15 20.55 -43.45 13.15 -40.75 2.65 -40.75 -7.9 -40.75 -15.3 -43.45 -22.75 -46.15 -22.75 -50.0 -22.75 -53.8 -15.3 -56.5" fill="#9a9a9a" fill-rule="evenodd" stroke="none"/>
    <path d="M-15.3 -56.5 Q-7.9 -59.2 2.65 -59.2 13.15 -59.2 20.55 -56.5 28.0 -53.8 28.0 -50.0 28.0 -46.15 20.55 -43.45 13.15 -40.75 2.65 -40.75 -7.9 -40.75 -15.3 -43.45 -22.75 -46.15 -22.75 -50.0 -22.75 -53.8 -15.3 -56.5 Z" fill="none" stroke="#6b6b6b" stroke-linecap="round" stroke-linejoin="round" stroke-width="9.0"/>
    <path d="M-15.3 -56.5 Q-7.9 -59.2 2.65 -59.2 13.15 -59.2 20.55 -56.5 28.0 -53.8 28.0 -50.0 28.0 -46.15 20.55 -43.45 13.15 -40.75 2.65 -40.75 -7.9 -40.75 -15.3 -43.45 -22.75 -46.15 -22.75 -50.0 -22.75 -53.8 -15.3 -56.5" fill="#9a9a9a" fill-rule="evenodd" stroke="none"/>
    <path d="M8.8 -56.5 L10.75 -56.5 Q11.6 -56.35 11.45 -56.0 11.35 -55.6 10.5 -55.6 L8.75 -55.7 6.95 -55.85 Q6.15 -55.8 6.05 -55.45 5.95 -54.9 7.05 -54.7 L7.8 -54.55 8.1 -54.2 Q8.05 -53.7 6.8 -53.8 L5.55 -54.05 2.05 -53.95 Q-1.5 -53.95 -1.75 -54.65 -1.9 -55.0 -1.25 -55.15 L0.2 -55.35 1.65 -55.5 Q2.25 -55.65 2.1 -56.0 1.95 -56.3 0.8 -56.35 L-1.6 -56.25 -4.05 -56.15 Q-5.2 -56.2 -5.45 -56.6 -5.75 -56.95 -4.55 -57.15 L-1.85 -57.35 0.8 -57.5 Q1.95 -57.6 1.7 -57.95 L-0.65 -58.25 -5.2 -58.05 -9.65 -57.85 -10.5 -57.85 Q-4.65 -59.15 2.6 -59.15 L7.0 -59.05 Q6.4 -58.85 6.45 -58.65 6.55 -58.3 7.4 -58.15 L9.3 -58.1 11.05 -58.05 Q11.8 -57.95 11.7 -57.6 11.6 -57.05 8.8 -57.1 L6.85 -57.1 Q6.0 -57.05 5.95 -56.8 5.9 -56.55 6.8 -56.5 L8.8 -56.5 M7.8 -48.95 L7.05 -48.75 Q5.95 -48.45 6.05 -47.55 6.15 -47.0 6.95 -46.95 L8.75 -47.15 10.5 -47.35 Q11.35 -47.3 11.45 -46.7 11.6 -46.1 10.75 -45.9 L8.8 -45.85 6.8 -45.9 Q5.9 -45.8 5.95 -45.4 6.0 -44.95 6.85 -44.9 L8.8 -44.9 Q11.6 -44.95 11.7 -44.1 11.8 -43.6 11.05 -43.45 L9.3 -43.35 7.4 -43.2 Q6.55 -43.0 6.45 -42.4 6.35 -41.65 9.85 -41.05 L2.6 -40.7 -4.25 -41.05 -4.1 -41.0 -6.45 -41.5 -10.35 -42.3 Q-12.05 -42.8 -11.9 -43.25 -11.7 -43.75 -9.65 -43.7 L-5.2 -43.4 -0.65 -43.1 Q1.45 -43.1 1.7 -43.6 1.95 -44.1 0.8 -44.3 L-1.85 -44.55 -4.55 -44.85 Q-5.75 -45.1 -5.45 -45.75 -5.2 -46.35 -4.05 -46.4 L-1.6 -46.3 0.8 -46.1 Q1.95 -46.15 2.1 -46.7 2.25 -47.25 1.65 -47.45 L0.2 -47.7 -1.25 -48.0 Q-1.9 -48.25 -1.75 -48.85 -1.5 -49.95 2.05 -49.95 L5.55 -49.8 6.8 -50.2 Q8.05 -50.4 8.1 -49.6 8.15 -49.15 7.8 -48.95" fill="#ffffff" fill-rule="evenodd" stroke="none"/>
    <path d="M10.6 -49.4 Q2.8 -45.05 -4.3 -49.4 L-4.35 -50.2 Q-4.35 -54.05 -2.15 -56.75 0.05 -59.45 3.15 -59.45 6.25 -59.45 8.4 -56.75 10.6 -54.05 10.6 -50.2 L10.6 -49.4" fill="#6b6b6b" fill-rule="evenodd" stroke="none"/>
  </g>
</svg>
