<?xml version="1.0" encoding="UTF-8" standalone="no"?>
<svg xmlns:xlink="http://www.w3.org/1999/xlink" height="74.9px" width="79.45px" xmlns="http://www.w3.org/2000/svg">
  <g transform="matrix(1.0, 0.0, 0.0, 1.0, 324.55, 656.3)">
    <path d="M-286.7 -654.3 L-322.55 -633.8 -322.55 -633.7 -322.55 -633.75 -322.15 -633.6 -322.55 -633.7 -322.55 -633.75 -314.4 -596.7 -314.5 -597.1 -314.5 -597.15 -314.4 -596.7 -314.35 -596.7 -314.35 -596.6 -314.3 -596.6 -293.05 -584.05 -292.75 -584.05 -292.75 -584.0 -275.2 -584.8 -270.0 -583.4 -261.45 -588.4 -261.4 -588.45 -256.25 -604.7 -256.0 -604.9 -247.1 -612.1 -250.9 -640.75 -286.45 -654.2 -286.7 -654.3 Z" fill="none" stroke="#3ea7d4" stroke-linecap="round" stroke-linejoin="round" stroke-width="4.0"/>
    <path d="M-266.85 -630.45 Q-264.25 -628.8 -259.45 -627.85 -266.7 -621.95 -260.8 -614.7 L-268.15 -616.0 -268.1 -615.85 -272.0 -612.7 -272.15 -612.6 -274.5 -605.35 -274.6 -605.25 -278.25 -603.1 -278.3 -603.15 -280.4 -603.7 -280.55 -603.75 -288.45 -603.4 -288.45 -603.45 -297.95 -609.0 -297.95 -609.05 -297.95 -609.0 -301.6 -625.4 -301.55 -625.4 -301.6 -625.5 -285.65 -634.6 -285.6 -634.55 -285.55 -634.55 -269.8 -628.6 -266.85 -630.45" fill="#ffffff" fill-rule="evenodd" stroke="none"/>
    <path d="M-285.75 -639.65 L-283.35 -641.95 Q-281.1 -637.2 -269.8 -637.8 -271.0 -633.2 -266.85 -630.45 L-269.8 -628.6 -285.55 -634.55 -285.75 -639.65 M-265.05 -609.3 Q-266.7 -605.55 -266.4 -600.15 L-270.7 -600.3 -274.6 -605.25 -274.5 -605.35 -272.15 -612.6 -272.0 -612.7 -265.05 -609.3" fill="#e7f2ff" fill-rule="evenodd" stroke="none"/>
    <path d="M-260.8 -614.7 L-260.75 -614.65 Q-263.6 -612.6 -265.05 -609.3 L-272.0 -612.7 -268.1 -615.85 -268.15 -616.0 -260.8 -614.7 M-270.7 -600.3 Q-272.2 -598.9 -271.6 -594.2 -274.1 -597.8 -276.2 -598.25 L-278.3 -603.15 -278.25 -603.1 -274.6 -605.25 -270.7 -600.3 M-278.85 -597.45 Q-279.85 -596.65 -280.75 -595.0 -285.05 -599.5 -289.25 -599.9 L-288.45 -603.4 -280.55 -603.75 -280.4 -603.7 -278.85 -597.45 M-302.95 -625.95 Q-302.5 -629.7 -303.85 -634.2 -294.2 -632.4 -285.75 -639.65 L-285.55 -634.55 -285.6 -634.55 -285.65 -634.6 -301.6 -625.5 -301.55 -625.4 -301.6 -625.4 -302.95 -625.95" fill="#cbe2fc" fill-rule="evenodd" stroke="none"/>
    <path d="M-276.2 -598.25 Q-277.6 -598.55 -278.85 -597.45 L-280.4 -603.7 -278.3 -603.15 -276.2 -598.25 M-289.25 -599.9 Q-293.2 -600.25 -297.05 -596.95 -297.75 -604.45 -300.3 -607.2 L-297.95 -609.0 -297.95 -609.05 -297.95 -609.0 -288.45 -603.45 -288.45 -603.4 -289.25 -599.9" fill="#a9ccf5" fill-rule="evenodd" stroke="none"/>
    <path d="M-300.3 -607.2 Q-302.85 -610.0 -307.2 -608.1 -303.85 -614.1 -310.8 -614.9 -303.8 -619.05 -302.95 -625.95 L-301.6 -625.4 -297.95 -609.0 -300.3 -607.2" fill="#8ec2ff" fill-rule="evenodd" stroke="none"/>
    <path d="M-301.6 -625.4 L-301.55 -625.4 -301.6 -625.5 -285.65 -634.6 -285.6 -634.55 -285.55 -634.55 -269.8 -628.6 -268.15 -616.0 -268.1 -615.85 -272.0 -612.7 -272.15 -612.6 -274.5 -605.35 -274.6 -605.25 -278.25 -603.1 -278.3 -603.15 -280.4 -603.7 -280.55 -603.75 -288.45 -603.4 -288.45 -603.45 -297.95 -609.0 -301.6 -625.4" fill="#adbcd2" fill-rule="evenodd" stroke="none"/>
    <path d="M-250.95 -640.75 L-250.95 -640.8 -250.9 -640.75 -247.15 -612.3 -268.15 -616.0 -269.8 -628.6 -250.95 -640.75 M-256.0 -604.9 L-256.25 -604.7 -261.4 -588.45 -274.6 -605.25 -274.5 -605.35 -272.15 -612.6 -272.0 -612.7 -256.0 -604.9" fill="#ffffff" fill-rule="evenodd" stroke="none"/>
    <path d="M-322.15 -633.6 L-322.55 -633.75 -322.55 -633.8 -286.7 -654.3 -286.45 -654.2 -286.25 -654.1 -285.55 -634.55 -285.6 -634.55 -285.65 -634.6 -301.6 -625.5 -301.55 -625.4 -301.6 -625.4 -322.15 -633.6 M-247.15 -612.3 L-247.1 -612.1 -256.0 -604.9 -272.0 -612.7 -268.1 -615.85 -268.15 -616.0 -247.15 -612.3 M-261.4 -588.45 L-261.45 -588.4 -269.9 -583.5 -278.3 -603.15 -278.25 -603.1 -274.6 -605.25 -261.4 -588.45 M-275.85 -584.75 L-292.75 -584.0 -292.75 -584.05 -288.45 -603.4 -280.55 -603.75 -280.4 -603.7 -275.7 -584.8 -275.85 -584.75" fill="#c3e8f7" fill-rule="evenodd" stroke="none"/>
    <path d="M-285.55 -634.55 L-286.25 -654.1 -286.45 -654.2 -250.95 -640.75 -269.8 -628.6 -285.55 -634.55" fill="#d7f3ff" fill-rule="evenodd" stroke="none"/>
    <path d="M-269.9 -583.5 L-270.0 -583.4 -275.2 -584.8 -275.85 -584.75 -275.7 -584.8 -280.4 -603.7 -278.3 -603.15 -269.9 -583.5 M-292.75 -584.05 L-293.05 -584.05 -314.3 -596.6 -314.35 -596.6 -314.35 -596.7 -314.45 -597.15 -314.35 -596.75 -297.95 -609.0 -288.45 -603.45 -288.45 -603.4 -292.75 -584.05" fill="#95e0ff" fill-rule="evenodd" stroke="none"/>
    <path d="M-322.15 -633.6 L-301.6 -625.4 -297.95 -609.0 -314.35 -596.75 -314.45 -597.15 -314.35 -596.7 -314.4 -596.7 -322.55 -633.7 -322.15 -633.6" fill="#6fc6e9" fill-rule="evenodd" stroke="none"/>
  </g>
</svg>
