<?xml version="1.0" encoding="UTF-8" standalone="no"?>
<svg xmlns:xlink="http://www.w3.org/1999/xlink" height="46.35px" width="51.55px" xmlns="http://www.w3.org/2000/svg">
  <g transform="matrix(1.0, 0.0, 0.0, 1.0, 23.95, 26.25)">
    <path d="M-2.05 14.1 L-2.4 14.0 -2.2 14.0 -2.05 14.1" fill="#cc0000" fill-rule="evenodd" stroke="none"/>
    <path d="M12.85 -2.85 Q12.85 0.45 10.9 4.85 9.4 8.45 7.0 11.7 3.65 16.3 0.7 16.7 L1.9 18.9 Q-1.1 19.65 -3.05 17.3 L-1.15 16.6 Q-4.0 15.85 -7.15 12.1 -10.25 8.55 -11.55 5.3 -13.65 0.45 -13.65 -2.85 L-13.65 -2.95 Q-13.6 -8.95 -9.85 -13.15 -5.85 -17.4 -0.4 -17.4 5.1 -17.4 8.95 -13.15 12.85 -8.95 12.85 -2.95 L12.85 -2.85 Z" fill="none" stroke="#620505" stroke-linecap="round" stroke-linejoin="round" stroke-width="2.0"/>
    <path d="M0.2 16.0 L1.85 18.95 Q-1.1 19.7 -3.05 17.35 L0.2 16.0" fill="#830000" fill-rule="evenodd" stroke="none"/>
    <path d="M12.8 -2.85 Q12.8 0.5 10.85 4.85 9.35 8.5 7.0 11.75 3.3 16.75 0.05 16.75 -3.25 16.75 -7.2 12.1 -10.25 8.55 -11.55 5.3 -13.7 0.5 -13.7 -2.85 L-13.7 -2.95 Q-13.65 -8.95 -9.9 -13.15 -5.9 -17.4 -0.45 -17.4 5.05 -17.4 8.95 -13.15 12.8 -8.95 12.8 -2.95 L12.8 -2.85" fill="#cc0000" fill-rule="evenodd" stroke="none"/>
    <path d="M0.4 -15.55 Q4.5 -15.55 7.4 -12.2 10.25 -8.9 10.25 -4.15 L10.25 -4.05 Q10.25 -1.45 8.8 2.0 L7.6 4.75 Q8.55 1.65 8.55 -0.8 L8.55 -0.95 Q8.55 -7.3 4.7 -11.75 2.35 -14.4 -0.5 -15.5 L0.4 -15.55" fill="#ffffff" fill-rule="evenodd" stroke="none"/>
    <path d="M-5.75 10.05 Q-1.7 14.75 1.7 14.75 2.6 14.75 3.55 14.35 1.65 15.95 -0.1 15.95 -3.05 15.95 -6.55 11.85 -9.25 8.65 -10.45 5.8 -12.35 1.5 -12.35 -1.45 L-12.35 -1.55 -12.15 -3.4 Q-11.85 -0.65 -10.15 3.1 -8.8 6.45 -5.75 10.05" fill="#830000" fill-rule="evenodd" stroke="none"/>
    <path d="M-14.5 -7.05 L-17.3 -10.15 -20.2 -7.15 -19.6 -11.3 -23.7 -11.75 -20.15 -13.85 -22.3 -17.3 -18.5 -15.75 -17.1 -19.7 -15.9 -15.8 -12.0 -17.1 -14.3 -13.7 -10.8 -11.45 -14.95 -11.2 -14.5 -7.05" fill="#ffff00" fill-rule="evenodd" stroke="none"/>
    <path d="M-14.5 -7.05 L-17.3 -10.15 -20.2 -7.15 -19.6 -11.3 -23.7 -11.75 -20.15 -13.85 -22.3 -17.3 -18.5 -15.75 -17.1 -19.7 -15.9 -15.8 -12.0 -17.1 -14.3 -13.7 -10.8 -11.45 -14.95 -11.2 -14.5 -7.05 Z" fill="none" stroke="#ff0000" stroke-linecap="round" stroke-linejoin="round" stroke-width="0.5"/>
    <path d="M-15.9 15.9 L-16.8 11.9 -20.8 12.95 -18.2 9.75 -21.55 7.3 -17.4 7.25 -17.5 3.15 -15.0 6.4 -11.8 3.7 -12.75 7.7 -8.7 8.55 -12.4 10.3 -10.5 13.95 -14.25 12.15 -15.9 15.9" fill="#ffff66" fill-rule="evenodd" stroke="none"/>
    <path d="M-15.9 15.9 L-16.8 11.9 -20.8 12.95 -18.2 9.75 -21.55 7.3 -17.4 7.25 -17.5 3.15 -15.0 6.4 -11.8 3.7 -12.75 7.7 -8.7 8.55 -12.4 10.3 -10.5 13.95 -14.25 12.15 -15.9 15.9 Z" fill="none" stroke="#ff0000" stroke-linecap="round" stroke-linejoin="round" stroke-width="0.5"/>
    <path d="M27.35 0.0 L23.45 1.35 24.95 5.15 21.45 3.0 19.35 6.6 18.85 2.5 14.85 3.1 17.8 0.15 14.75 -2.7 18.85 -2.2 19.2 -6.35 21.35 -2.85 24.8 -5.1 23.35 -1.25 27.35 0.0" fill="#ffffcc" fill-rule="evenodd" stroke="none"/>
    <path d="M27.35 0.0 L23.45 1.35 24.95 5.15 21.45 3.0 19.35 6.6 18.85 2.5 14.85 3.1 17.8 0.15 14.75 -2.7 18.85 -2.2 19.2 -6.35 21.35 -2.85 24.8 -5.1 23.35 -1.25 27.35 0.0 Z" fill="none" stroke="#ff0000" stroke-linecap="round" stroke-linejoin="round" stroke-width="0.5"/>
    <path d="M5.0 -12.45 L8.1 -15.25 5.1 -18.15 9.25 -17.55 Q9.4 -19.6 9.7 -21.65 L11.8 -18.1 15.25 -20.25 13.7 -16.45 17.65 -15.05 13.75 -13.85 15.05 -9.95 11.65 -12.25 9.4 -8.75 9.15 -12.9 5.0 -12.45" fill="#ffff66" fill-rule="evenodd" stroke="none"/>
    <path d="M5.0 -12.45 L8.1 -15.25 5.1 -18.15 9.25 -17.55 Q9.4 -19.6 9.7 -21.65 L11.8 -18.1 15.25 -20.25 13.7 -16.45 17.65 -15.05 13.75 -13.85 15.05 -9.95 11.65 -12.25 9.4 -8.75 9.15 -12.9 5.0 -12.45 Z" fill="none" stroke="#ff0000" stroke-linecap="round" stroke-linejoin="round" stroke-width="0.5"/>
    <path d="M1.1 2.05 L-2.35 -0.2 -4.45 3.4 -4.9 -0.7 -8.95 -0.15 -6.05 -3.05 -9.05 -5.85 -5.0 -5.35 -4.65 -9.5 -2.45 -6.0 0.95 -8.3 -0.4 -4.4 3.55 -3.15 -0.35 -1.85 1.1 2.05" fill="#ffff99" fill-rule="evenodd" stroke="none"/>
    <path d="M1.1 2.05 L-2.35 -0.2 -4.45 3.4 -4.9 -0.7 -8.95 -0.15 -6.05 -3.05 -9.05 -5.85 -5.0 -5.35 -4.65 -9.5 -2.45 -6.0 0.95 -8.3 -0.4 -4.4 3.55 -3.15 -0.35 -1.85 1.1 2.05 Z" fill="none" stroke="#ff0000" stroke-linecap="round" stroke-linejoin="round" stroke-width="0.5"/>
    <path d="M4.3 14.5 L2.65 7.0 -4.75 8.95 0.0 2.95 -6.1 -1.6 1.55 -1.65 1.25 -9.2 6.0 -3.2 11.85 -8.2 10.15 -0.8 17.7 0.7 10.8 4.0 14.35 10.8 7.4 7.45 4.3 14.5" fill="#ffcc00" fill-rule="evenodd" stroke="none"/>
    <path d="M4.3 14.5 L2.65 7.0 -4.75 8.95 0.0 2.95 -6.1 -1.6 1.55 -1.65 1.25 -9.2 6.0 -3.2 11.85 -8.2 10.15 -0.8 17.7 0.7 10.8 4.0 14.35 10.8 7.4 7.45 4.3 14.5 Z" fill="none" stroke="#ff0000" stroke-linecap="round" stroke-linejoin="round" stroke-width="0.5"/>
    <path d="M-2.5 -7.1 L-6.7 -11.7 -11.1 -7.25 -10.15 -13.4 -16.25 -14.15 -10.9 -17.25 -14.2 -22.45 -8.45 -20.1 -6.4 -26.0 -4.55 -20.1 1.25 -22.1 -2.25 -17.05 3.0 -13.7 -3.2 -13.3 -2.5 -7.1" fill="#ffcc00" fill-rule="evenodd" stroke="none"/>
    <path d="M-2.5 -7.1 L-6.7 -11.7 -11.1 -7.25 -10.15 -13.4 -16.25 -14.15 -10.9 -17.25 -14.2 -22.45 -8.45 -20.1 -6.4 -26.0 -4.55 -20.1 1.25 -22.1 -2.25 -17.05 3.0 -13.7 -3.2 -13.3 -2.5 -7.1 Z" fill="none" stroke="#ff0000" stroke-linecap="round" stroke-linejoin="round" stroke-width="0.5"/>
    <path d="M0.4 12.0 L-1.75 10.6 -3.05 12.8 -3.3 10.25 -5.85 10.65 -4.0 8.85 -5.9 7.1 -3.4 7.4 -3.15 4.85 -1.8 7.0 0.3 5.6 -0.55 8.0 1.9 8.75 -0.5 9.55 0.4 12.0" fill="#ff6600" fill-rule="evenodd" stroke="none"/>
    <path d="M0.4 12.0 L-1.75 10.6 -3.05 12.8 -3.3 10.25 -5.85 10.65 -4.0 8.85 -5.9 7.1 -3.4 7.4 -3.15 4.85 -1.8 7.0 0.3 5.6 -0.55 8.0 1.9 8.75 -0.5 9.55 0.4 12.0 Z" fill="none" stroke="#ff0000" stroke-linecap="round" stroke-linejoin="round" stroke-width="0.5"/>
    <path d="M16.8 12.9 L14.2 12.1 13.5 14.65 12.5 12.15 10.05 13.25 11.4 10.9 9.0 9.65 11.7 9.3 11.2 6.6 13.15 8.45 14.95 6.4 14.7 9.05 17.4 9.15 15.2 10.75 16.8 12.9" fill="#ffff00" fill-rule="evenodd" stroke="none"/>
    <path d="M16.8 12.9 L14.2 12.1 13.5 14.65 12.5 12.15 10.05 13.25 11.4 10.9 9.0 9.65 11.7 9.3 11.2 6.6 13.15 8.45 14.95 6.4 14.7 9.05 17.4 9.15 15.2 10.75 16.8 12.9 Z" fill="none" stroke="#ff0000" stroke-linecap="round" stroke-linejoin="round" stroke-width="0.5"/>
  </g>
</svg>
