<?xml version="1.0" encoding="UTF-8" standalone="no"?>
<svg xmlns:xlink="http://www.w3.org/1999/xlink" height="193.0px" width="193.0px" xmlns="http://www.w3.org/2000/svg">
  <g transform="matrix(1.0, 0.0, 0.0, 1.0, 96.5, 96.5)">
    <path d="M-54.6 -16.8 Q-53.05 -22.25 -50.3 -27.2 L-63.55 -64.45 -26.5 -50.75 Q-21.75 -53.25 -16.55 -54.8 L0.1 -90.5 16.7 -54.9 Q22.3 -53.25 27.5 -50.4 L64.45 -63.6 50.85 -26.8 Q53.55 -21.9 55.1 -16.5 L90.5 0.05 55.1 16.55 Q53.45 22.35 50.5 27.6 L63.6 64.4 26.9 50.8 Q21.9 53.45 16.55 55.05 L-0.05 90.5 -16.7 54.9 Q-22.3 53.2 -27.3 50.4 L-64.4 63.55 -50.7 26.55 Q-53.2 21.8 -54.75 16.65 L-90.5 -0.1 -54.6 -16.8" fill="#232222" fill-rule="evenodd" stroke="none"/>
    <path d="M-54.6 -16.8 L-90.5 -0.1 -54.75 16.65 Q-53.2 21.8 -50.7 26.55 L-64.4 63.55 -27.3 50.4 Q-22.3 53.2 -16.7 54.9 L-0.05 90.5 16.55 55.05 Q21.9 53.45 26.9 50.8 L63.6 64.4 50.5 27.6 Q53.45 22.35 55.1 16.55 L90.5 0.05 55.1 -16.5 Q53.55 -21.9 50.85 -26.8 L64.45 -63.6 27.5 -50.4 Q22.3 -53.25 16.7 -54.9 L0.1 -90.5 -16.55 -54.8 Q-21.75 -53.25 -26.5 -50.75 L-63.55 -64.45 -50.3 -27.2 Q-53.05 -22.25 -54.6 -16.8 Z" fill="none" stroke="#121212" stroke-linecap="round" stroke-linejoin="round" stroke-width="12.0"/>
    <path d="M0.1 -90.5 L19.3 -49.35 -19.15 -49.35 0.1 -90.5 M-48.3 -21.6 L-63.55 -64.45 -20.95 -48.7 -48.3 -21.6 M21.6 -48.35 L64.45 -63.6 48.7 -21.0 21.6 -48.35 M48.35 21.55 L63.6 64.4 21.0 48.65 48.35 21.55 M49.35 19.25 L49.35 -19.2 90.5 0.05 49.35 19.25 M-19.25 49.3 L19.2 49.3 -0.05 90.5 -19.25 49.3 M-21.55 48.3 L-64.4 63.55 -48.65 20.95 -21.55 48.3 M-90.5 -0.1 L-49.3 -19.3 -49.3 19.15 Q-69.85 9.55 -90.5 -0.1" fill="#232222" fill-rule="evenodd" stroke="none"/>
    <path d="M-40.3 -40.4 Q-23.55 -57.15 0.2 -57.15 23.85 -57.15 40.65 -40.4 57.4 -23.65 57.4 0.05 57.4 23.8 40.65 40.5 23.85 57.25 0.2 57.25 -23.55 57.25 -40.3 40.5 -57.0 23.8 -57.0 0.05 -57.0 -23.65 -40.3 -40.4" fill="#232222" fill-rule="evenodd" stroke="none"/>
    <path d="M-19.95 -46.25 Q-9.85 -51.4 2.35 -51.4 22.75 -51.4 37.2 -37.0 51.65 -22.55 51.65 -2.15 51.65 10.05 46.45 20.15 44.55 -6.15 25.45 -25.25 6.3 -44.4 -19.95 -46.25" fill="#ffffff" fill-rule="evenodd" stroke="none"/>
  </g>
</svg>
