<?xml version="1.0" encoding="UTF-8" standalone="no"?>
<svg xmlns:xlink="http://www.w3.org/1999/xlink" height="100.55px" width="51.15px" xmlns="http://www.w3.org/2000/svg">
  <g transform="matrix(1.0, 0.0, 0.0, 1.0, 27.0, 33.95)">
    <path d="M11.5 -12.85 Q9.55 -4.05 8.9 3.95 7.8 17.4 10.3 26.3 13.6 30.95 16.7 37.0 L19.15 42.15 13.0 47.75 9.7 34.95 Q11.25 46.2 14.15 56.1 L5.65 59.4 Q3.2 55.35 1.95 52.2 0.6 48.8 -0.45 43.8 0.85 54.25 3.85 60.8 L-3.95 61.6 Q-7.45 58.05 -9.3 54.75 -11.35 51.15 -12.95 45.25 -12.2 52.25 -8.75 58.1 L-15.0 58.3 Q-21.8 46.2 -22.0 29.8 -22.2 14.85 -16.95 -1.4 -12.95 -13.85 -6.55 -24.8 L-3.5 -29.85 -3.25 -30.2 11.5 -12.85" fill="#bf7926" fill-rule="evenodd" stroke="none"/>
    <path d="M-6.55 -24.8 Q-12.95 -13.85 -16.95 -1.4 -22.2 14.85 -22.0 29.8 -21.8 46.2 -15.0 58.3 L-8.75 58.1 Q-12.2 52.25 -12.95 45.25 -11.35 51.15 -9.3 54.75 -7.45 58.05 -3.95 61.6 L3.85 60.8 Q0.85 54.25 -0.45 43.8 0.6 48.8 1.95 52.2 3.2 55.35 5.65 59.4 L14.15 56.1 Q11.25 46.2 9.7 34.95 L13.0 47.75 19.15 42.15 16.7 37.0 Q13.6 30.95 10.3 26.3 7.8 17.4 8.9 3.95 9.55 -4.05 11.5 -12.85" fill="none" stroke="#3c190a" stroke-linecap="round" stroke-linejoin="round" stroke-width="10.0"/>
    <path d="M12.7 -18.15 L12.35 -16.7 Q9.7 -5.8 8.9 3.95 7.8 17.4 10.3 26.3 13.6 30.95 16.7 37.0 L19.15 42.15 13.0 47.75 9.7 34.95 Q11.25 46.2 14.15 56.1 L5.65 59.4 Q3.2 55.35 1.95 52.2 0.6 48.8 -0.45 43.8 0.85 54.25 3.85 60.8 L-3.95 61.6 Q-7.45 58.05 -9.3 54.75 -11.35 51.15 -12.95 45.25 -12.2 52.25 -8.75 58.1 L-15.0 58.3 Q-21.8 46.2 -22.0 29.8 -22.2 14.85 -16.95 -1.4 -12.0 -16.75 -3.5 -29.85 L-1.4 -32.95 -0.7 -33.95 12.7 -18.15" fill="#bf7926" fill-rule="evenodd" stroke="none"/>
    <path d="M10.3 26.3 L11.4 27.95 11.4 27.9 11.45 27.95 Q10.15 30.75 8.55 32.6 6.4 29.2 4.75 23.55 4.95 31.55 3.55 39.55 -2.6 34.6 -5.85 27.65 -4.6 36.5 -6.75 45.15 -12.1 40.05 -14.7 32.65 -14.9 40.15 -17.45 45.65 -19.7 43.2 -21.45 40.3 L-21.0 41.0 Q-21.95 35.65 -22.0 29.8 -22.2 14.85 -16.95 -1.4 -12.0 -16.75 -3.5 -29.85 L-0.7 -33.95 12.7 -18.15 Q9.75 -6.45 8.9 3.95 7.8 17.4 10.3 26.3" fill="#70381f" fill-rule="evenodd" stroke="none"/>
  </g>
</svg>
