<?xml version="1.0" encoding="UTF-8" standalone="no"?>
<svg xmlns:xlink="http://www.w3.org/1999/xlink" height="23.1px" width="25.75px" xmlns="http://www.w3.org/2000/svg">
  <g transform="matrix(1.0, 0.0, 0.0, 1.0, 13.8, 11.6)">
    <path d="M4.8 -4.25 L-6.3 -3.65 4.6 -8.0 -6.3 -11.05 11.95 -9.9 9.2 7.2 7.45 -2.0 -2.4 3.8 4.8 -4.25" fill="#ffe527" fill-rule="evenodd" stroke="none"/>
    <path d="M-6.9 -11.15 L-6.6 -11.5 -6.15 -11.6 Q-5.85 -11.55 -5.7 -11.05 -5.5 -10.55 -5.6 -9.85 L-5.9 -8.65 Q-6.1 -8.15 -6.45 -8.2 L-6.85 -8.35 -7.1 -8.75 -7.2 -9.5 -13.8 -10.5 -7.2 -10.45 -6.9 -11.15" fill="#000000" fill-rule="evenodd" stroke="none"/>
    <path d="M-5.75 -5.55 L-5.45 -6.0 -5.05 -6.15 -4.5 -5.7 -4.2 -4.5 Q-4.1 -3.8 -4.3 -3.25 -4.45 -2.8 -4.75 -2.75 L-5.15 -2.8 -5.55 -3.2 -5.75 -3.9 -12.4 -3.7 -5.85 -4.85 -5.75 -5.55" fill="#000000" fill-rule="evenodd" stroke="none"/>
    <path d="M-7.7 0.8 L-7.6 0.3 -7.3 0.0 Q-7.05 -0.15 -6.6 0.2 L-5.85 1.1 -5.4 2.25 Q-5.35 2.8 -5.6 2.9 L-6.05 3.0 -6.55 2.9 -7.05 2.35 Q-12.8 5.5 -12.95 5.3 -13.1 5.05 -7.55 1.5 L-7.7 0.8" fill="#000000" fill-rule="evenodd" stroke="none"/>
    <path d="M-3.5 5.1 L-3.55 4.6 -3.3 4.25 Q-3.1 4.0 -2.6 4.25 L-1.6 4.95 -0.9 5.95 Q-0.7 6.4 -0.9 6.65 L-1.3 6.85 -1.8 6.8 -2.45 6.4 Q-7.2 11.0 -7.45 10.8 -7.6 10.6 -3.15 5.75 L-3.5 5.1" fill="#000000" fill-rule="evenodd" stroke="none"/>
    <path d="M3.7 1.85 L3.6 1.4 3.7 1.1 4.3 1.0 5.25 1.45 6.0 2.15 6.1 2.75 5.75 3.05 5.35 3.05 4.75 2.85 1.15 7.2 Q0.95 7.0 4.05 2.3 L3.7 1.85" fill="#000000" fill-rule="evenodd" stroke="none"/>
    <path d="M0.6 -3.5 L1.35 -2.75 1.75 -1.85 1.65 -1.25 1.25 -1.15 0.9 -1.25 0.4 -1.7 Q-4.35 1.35 -4.55 1.2 -4.6 0.95 -0.1 -2.35 L-0.3 -2.95 -0.25 -3.35 0.05 -3.65 0.6 -3.5" fill="#000000" fill-rule="evenodd" stroke="none"/>
    <path d="M0.25 -8.7 L0.55 -9.0 0.9 -9.15 1.35 -8.7 1.5 -7.65 1.3 -6.65 0.9 -6.25 0.55 -6.3 0.3 -6.65 0.1 -7.25 -5.55 -7.6 0.1 -8.05 0.25 -8.7" fill="#000000" fill-rule="evenodd" stroke="none"/>
    <path d="M6.2 5.75 L6.0 5.35 Q5.95 5.05 6.05 5.0 6.1 4.75 6.6 4.75 L7.65 4.95 8.5 5.45 8.75 6.0 8.55 6.35 8.15 6.45 7.5 6.35 Q5.35 11.6 5.1 11.5 4.9 11.4 6.7 6.1 L6.2 5.75" fill="#000000" fill-rule="evenodd" stroke="none"/>
  </g>
</svg>
