<?xml version="1.0" encoding="UTF-8" standalone="no"?>
<svg xmlns:xlink="http://www.w3.org/1999/xlink" height="74.65px" width="76.5px" xmlns="http://www.w3.org/2000/svg">
  <g transform="matrix(1.0, 0.0, 0.0, 1.0, -58.2, -53.3)">
    <path d="M107.1 65.25 Q106.1 78.3 109.05 83.85 112.0 89.4 123.6 95.65 129.45 98.8 134.7 100.8 L121.85 100.15 Q108.0 99.95 102.95 102.5 97.95 105.05 90.65 116.8 87.0 122.65 84.3 127.95 84.55 122.6 83.75 116.05 82.3 103.0 77.6 97.15 72.85 91.3 65.05 85.25 62.6 83.4 60.15 81.75 L58.2 80.45 61.5 81.0 69.65 81.85 Q82.5 82.5 89.95 78.75 97.3 74.95 103.7 63.8 106.9 58.15 108.6 53.3 107.55 58.7 107.1 65.25" fill="#ff4600" fill-rule="evenodd" stroke="none"/>
  </g>
</svg>
