<?xml version="1.0" encoding="UTF-8" standalone="no"?>
<svg xmlns:xlink="http://www.w3.org/1999/xlink" height="219.1px" width="219.1px" xmlns="http://www.w3.org/2000/svg">
  <g transform="matrix(1.0, 0.0, 0.0, 1.0, 109.75, 110.45)">
    <path d="M-106.75 -0.9 Q-106.75 -45.0 -75.6 -76.25 -44.35 -107.45 -0.2 -107.45 43.9 -107.45 75.1 -76.25 106.35 -45.0 106.35 -0.9 106.35 43.25 75.1 74.4 43.9 105.65 -0.2 105.65 -44.35 105.65 -75.6 74.4 -106.75 43.25 -106.75 -0.9" fill="#727272" fill-rule="evenodd" stroke="none"/>
    <path d="M-106.75 -0.9 Q-106.75 -45.0 -75.6 -76.25 -44.35 -107.45 -0.2 -107.45 L3.8 -107.35 3.1 -107.6 Q26.4 -99.75 45.1 -80.1 76.35 -47.25 76.35 -0.85 76.35 45.55 45.1 78.35 26.8 97.6 4.1 105.6 L-0.2 105.65 Q-44.35 105.65 -75.6 74.4 -106.75 43.25 -106.75 -0.9" fill="#564f4f" fill-rule="evenodd" stroke="none"/>
    <path d="M-106.75 -0.9 Q-106.75 -45.0 -75.6 -76.25 -44.35 -107.45 -0.2 -107.45 43.9 -107.45 75.1 -76.25 106.35 -45.0 106.35 -0.9 106.35 43.25 75.1 74.4 43.9 105.65 -0.2 105.65 -44.35 105.65 -75.6 74.4 -106.75 43.25 -106.75 -0.9 Z" fill="none" stroke="#2e2d2d" stroke-linecap="round" stroke-linejoin="round" stroke-width="6.0"/>
    <path d="M63.8 -65.15 Q90.05 -38.85 90.05 -1.65 90.05 35.55 63.8 61.85 37.5 88.15 0.25 88.15 -36.95 88.15 -63.25 61.85 -89.55 35.55 -89.55 -1.65 -89.55 -38.85 -63.25 -65.15 -36.95 -91.45 0.25 -91.45 37.5 -91.45 63.8 -65.15" fill="#fc65af" fill-rule="evenodd" stroke="none"/>
    <path d="M14.65 -90.4 Q-13.35 -86.25 -34.45 -65.15 -60.75 -38.85 -60.75 -1.65 -60.75 35.55 -34.45 61.85 -13.35 82.9 14.65 87.1 L0.25 88.15 Q-36.95 88.15 -63.25 61.85 -89.55 35.55 -89.55 -1.65 -89.55 -38.85 -63.25 -65.15 -36.95 -91.45 0.25 -91.45 L14.65 -90.4" fill="#b13d78" fill-rule="evenodd" stroke="none"/>
    <path d="M48.0 -72.4 L44.3 -76.35 Q51.35 -71.5 57.7 -65.1 84.0 -38.85 84.0 -1.6 84.0 35.6 57.7 61.9 51.4 68.15 44.55 73.0 L48.0 69.25 Q74.3 39.9 74.3 -1.6 74.3 -43.05 48.0 -72.4" fill="#ffa8d2" fill-rule="evenodd" stroke="none"/>
    <path d="M-91.2 -0.9 Q-91.2 -38.6 -64.55 -65.3 -37.85 -91.95 -0.15 -91.95 37.55 -91.95 64.2 -65.3 90.9 -38.6 90.9 -0.9 90.9 36.8 64.2 63.45 37.55 90.15 -0.15 90.15 -37.85 90.15 -64.55 63.45 -91.2 36.8 -91.2 -0.9 Z" fill="none" stroke="#560b30" stroke-linecap="round" stroke-linejoin="round" stroke-width="6.0"/>
    <path d="M38.65 -29.15 Q37.5 -23.4 34.9 -18.5 38.1 -12.15 38.95 -4.65 L40.4 -4.35 Q47.6 -2.6 61.45 -6.35 55.4 2.0 47.9 7.2 43.0 10.1 37.8 11.8 35.8 18.45 31.45 24.2 L32.05 25.35 Q35.5 31.7 47.9 38.95 38.1 40.65 29.15 38.65 23.65 37.5 19.05 35.2 12.7 38.65 5.2 39.5 L4.6 40.95 Q2.9 48.15 6.65 62.0 -1.75 55.95 -6.9 48.45 -9.8 43.55 -11.25 38.35 -18.45 36.35 -24.25 31.7 L-25.4 32.3 Q-31.75 35.75 -38.95 48.15 -40.65 38.35 -38.65 29.4 -37.5 23.95 -34.9 19.3 -38.65 12.7 -39.5 5.2 -39.8 4.9 -40.1 4.9 -47.3 3.15 -61.15 6.9 -55.1 -1.45 -47.6 -6.65 -43.0 -9.25 -38.35 -10.7 -36.35 -18.2 -31.45 -24.25 -31.45 -24.55 -31.75 -24.85 -35.2 -31.15 -47.6 -38.4 -37.8 -40.1 -28.85 -38.1 -23.65 -36.95 -19.05 -34.65 -12.7 -38.1 -5.2 -38.95 L-4.6 -40.7 Q-2.9 -47.9 -6.65 -61.75 1.75 -55.7 6.95 -48.2 10.1 -43.0 11.55 -37.5 18.2 -35.5 23.95 -31.15 L25.4 -32.05 Q31.75 -35.5 38.95 -47.9 40.7 -38.1 38.65 -29.15 M7.2 7.75 Q10.4 4.6 10.4 0.25 10.4 -4.05 7.2 -7.25 4.05 -10.1 -0.3 -10.1 -4.6 -10.1 -7.5 -7.25 -10.65 -4.05 -10.65 0.25 -10.65 4.6 -7.5 7.75 -4.6 10.65 -0.3 10.65 4.05 10.65 7.2 7.75" fill="#000000" fill-rule="evenodd" stroke="none"/>
  </g>
</svg>
