<?xml version="1.0" encoding="UTF-8" standalone="no"?>
<svg xmlns:xlink="http://www.w3.org/1999/xlink" height="92.85px" width="93.65px" xmlns="http://www.w3.org/2000/svg">
  <g transform="matrix(1.0, 0.0, 0.0, 1.0, 2.05, 2.05)">
    <path d="M29.85 -0.55 L30.4 -0.3 30.6 -0.3 32.3 -0.45 Q32.9 -0.7 33.35 -1.05 35.1 -2.4 37.2 -1.85 L37.95 -1.7 38.4 -1.75 Q39.45 -1.65 39.85 -0.75 L40.05 -0.1 40.6 -0.2 40.95 -0.2 Q41.7 0.5 42.7 0.3 L43.6 -0.1 44.25 -0.55 44.6 -1.05 45.1 -1.1 45.5 -1.4 Q46.5 -1.95 47.7 -2.0 L47.95 -2.05 Q49.0 -2.0 49.7 -1.2 L50.0 -0.7 54.45 -0.75 54.75 -0.55 54.85 -0.6 55.05 -0.6 55.05 -0.65 56.3 -0.45 Q56.85 -0.25 57.0 0.3 57.15 0.9 57.45 1.35 L57.55 1.55 57.9 1.65 58.85 1.7 59.55 1.2 Q60.2 0.85 60.9 0.9 61.7 0.9 62.2 1.55 L62.2 1.6 62.55 1.75 63.55 2.2 64.7 2.4 64.75 2.55 64.95 2.5 Q66.05 2.6 66.6 3.55 L66.85 4.25 67.8 4.25 Q68.05 4.65 68.75 4.75 L70.2 4.9 70.3 4.9 Q71.4 4.9 72.25 5.7 73.3 6.7 72.95 8.1 L72.95 8.2 73.45 8.45 74.9 8.8 75.0 8.85 75.05 8.9 Q75.85 9.05 76.05 10.0 L76.15 11.1 76.45 11.4 Q76.1 12.55 77.0 13.2 L77.25 13.45 77.5 13.3 Q78.05 12.95 78.5 12.95 79.4 13.0 79.95 13.7 80.5 14.3 80.35 15.05 L81.35 16.3 Q81.8 16.95 82.5 17.05 L82.75 17.0 Q84.5 17.5 84.7 19.5 L84.7 20.4 Q85.15 20.8 85.05 21.65 84.85 22.8 83.8 22.7 L84.1 23.6 84.95 24.9 Q85.75 25.9 87.1 26.3 L87.6 26.1 Q88.9 26.1 89.25 27.35 89.5 28.5 88.8 29.4 L88.9 29.8 88.7 30.45 88.55 31.8 Q88.4 32.95 89.2 33.75 L90.1 34.55 90.65 38.45 90.45 38.95 Q91.75 39.6 91.6 41.25 91.45 42.8 90.5 43.95 L90.05 44.35 89.85 46.15 90.25 47.25 Q90.35 48.45 90.7 49.65 91.1 50.9 90.15 51.9 89.5 52.55 89.3 53.5 L89.7 54.95 Q90.0 55.9 89.85 56.9 89.7 58.05 88.9 59.0 L87.4 60.0 87.25 62.35 Q87.0 63.6 86.25 64.05 L86.25 64.1 86.15 64.1 85.5 64.4 84.85 64.95 84.15 66.2 83.75 67.8 83.65 68.75 82.85 69.35 82.8 69.5 82.4 70.2 82.4 70.25 82.35 70.3 81.65 70.85 80.8 71.55 80.8 71.6 80.95 72.75 80.65 73.7 80.35 74.05 Q80.15 75.7 78.5 76.15 L78.05 76.3 76.2 77.45 Q75.4 77.7 74.75 78.15 L73.8 78.4 73.4 78.9 Q72.9 79.3 72.25 79.4 L72.15 79.45 71.7 80.6 Q71.1 81.35 70.5 81.35 70.15 82.8 68.95 83.85 67.0 85.55 65.75 84.65 L65.2 84.8 64.35 85.1 64.05 85.2 62.8 85.8 62.65 85.9 Q62.0 87.75 59.95 88.15 L58.0 88.05 Q57.6 88.15 57.25 88.4 L57.0 88.6 54.3 89.3 53.9 89.1 51.05 90.3 Q49.2 90.75 47.55 90.0 L46.45 89.35 46.4 89.4 45.5 90.3 Q43.9 91.35 42.1 90.25 L41.4 89.7 41.3 89.6 41.1 89.55 40.85 89.7 39.65 89.9 37.9 89.35 37.6 89.1 36.65 88.9 36.45 88.85 35.2 89.45 Q32.55 90.35 31.5 87.7 L31.1 86.65 30.9 86.5 Q30.35 86.55 29.7 86.95 28.75 87.45 28.1 86.6 27.65 86.15 27.7 85.55 L27.65 85.55 Q27.3 86.0 25.9 86.2 24.95 86.3 24.25 85.55 L23.5 84.4 22.4 84.2 Q21.3 83.8 21.1 83.05 L20.6 82.75 Q19.5 82.65 18.95 81.5 18.65 80.9 18.8 80.35 L18.0 80.25 Q15.45 81.75 13.85 79.5 13.2 78.6 13.35 77.55 L13.55 76.8 13.5 76.75 13.4 76.5 Q13.15 76.25 12.9 76.1 L12.75 76.0 12.5 76.05 11.6 75.8 11.0 75.1 10.9 75.05 9.1 74.9 Q8.4 74.5 8.25 73.7 L8.15 72.8 Q8.1 72.2 8.35 71.55 L8.25 71.45 8.15 71.35 7.95 71.1 7.8 70.75 7.75 70.4 7.75 70.2 Q5.7 70.55 4.7 68.95 4.25 68.2 4.2 67.4 4.1 66.35 4.65 65.5 L4.9 65.05 4.35 64.4 4.0 64.1 Q3.65 63.9 3.2 63.85 L3.25 63.55 1.85 62.7 1.35 62.15 Q0.65 61.1 0.65 59.8 0.65 58.45 0.9 57.15 L0.95 56.9 0.05 55.85 Q-0.3 55.2 -0.25 54.4 L0.0 53.45 0.6 52.7 0.15 52.25 -0.2 52.05 -0.7 50.9 Q-1.4 50.35 -1.4 49.5 L-1.3 48.85 -1.35 48.75 -1.9 47.25 Q-2.3 45.7 -1.75 44.25 L-0.95 42.5 Q-0.7 41.85 -0.8 41.35 L-0.7 41.35 -0.55 41.35 -0.65 40.95 Q-0.85 39.8 -0.65 38.65 -0.25 37.2 -0.9 35.75 -1.4 34.4 -0.6 33.15 0.05 32.2 1.15 32.05 L1.85 32.15 1.85 32.1 1.7 31.8 1.7 31.2 Q1.8 30.85 2.1 30.65 L2.3 30.4 2.25 30.3 Q1.55 30.05 1.35 29.3 L1.05 27.8 Q0.85 27.0 1.3 26.3 1.85 25.35 2.7 24.95 L3.5 23.95 Q3.0 22.95 3.5 21.9 4.05 20.6 5.0 19.45 L5.55 19.15 5.55 17.8 Q5.5 17.05 5.75 16.45 6.15 15.55 6.85 14.8 7.6 14.0 8.55 13.8 L9.15 14.05 10.2 13.0 9.8 12.0 Q9.7 11.35 10.2 10.8 10.8 10.15 11.75 10.2 L12.85 10.4 13.9 10.25 Q14.85 10.1 15.35 9.45 15.1 8.35 15.35 7.2 15.7 6.05 16.75 5.65 L17.1 5.55 17.5 5.55 17.6 5.5 Q18.2 5.5 19.0 4.85 L19.2 4.3 19.95 3.6 20.6 3.35 20.85 3.35 21.5 2.95 22.35 3.15 Q23.9 3.7 25.05 2.65 25.05 2.35 25.2 2.1 25.4 1.75 25.8 1.7 L25.8 1.65 25.85 1.65 26.2 1.55 26.7 1.6 26.95 1.5 26.9 1.15 Q26.9 0.55 27.3 0.15 L28.3 -0.4 29.85 -0.55 M82.1 26.1 Q81.6 26.0 81.4 25.5 L79.75 25.25 Q79.2 25.05 79.1 24.45 78.75 23.25 79.85 22.6 L80.25 22.45 80.25 22.35 80.25 21.3 79.85 20.7 Q78.8 20.35 78.95 19.1 L79.0 18.8 78.15 18.5 77.95 18.15 Q76.15 18.65 75.25 17.25 L74.65 15.8 Q74.2 15.6 74.05 15.2 L73.9 14.45 74.0 13.75 73.9 13.7 72.7 13.05 Q70.6 13.35 69.7 11.65 69.4 11.1 69.45 10.4 L69.6 9.75 Q69.1 8.85 68.15 8.4 66.55 9.55 64.95 8.2 63.85 7.25 63.25 6.0 L62.4 5.65 62.3 5.6 Q61.3 6.75 59.6 6.35 57.95 5.95 58.6 4.6 L57.95 4.5 57.7 4.05 Q55.8 5.05 53.75 4.1 53.1 3.8 53.15 3.1 L53.0 2.95 52.95 2.95 52.65 2.85 52.45 2.75 52.35 2.65 52.25 2.4 51.5 2.25 Q50.7 2.95 49.5 3.35 47.15 3.95 45.5 2.35 L45.4 2.25 44.15 2.15 43.95 2.15 Q43.4 2.2 43.1 2.55 L42.9 2.7 42.45 3.0 Q40.95 4.05 39.05 3.3 L38.75 3.2 38.7 3.15 Q38.4 2.65 37.65 2.25 L37.45 2.15 Q36.9 2.15 36.55 2.5 L35.95 3.35 35.7 3.5 35.55 3.75 35.3 4.05 Q34.2 4.5 33.1 4.05 L32.1 4.1 31.85 4.05 Q31.25 4.1 30.7 4.5 L30.0 5.05 29.7 5.0 Q29.2 5.1 28.7 5.35 L28.2 6.25 Q27.35 7.4 26.2 7.2 L26.0 7.4 26.0 7.45 25.25 7.85 25.0 7.85 24.9 7.85 23.45 9.9 Q22.4 10.9 20.95 10.6 L20.2 10.3 19.8 10.3 Q19.15 10.35 19.0 11.0 18.45 13.15 16.25 13.9 15.55 14.15 15.35 14.75 L15.1 14.75 14.7 14.85 Q12.7 15.15 11.65 16.85 11.75 17.65 11.35 18.8 10.45 21.25 8.15 20.8 7.7 21.1 7.6 21.75 L7.5 22.4 7.35 22.55 6.4 24.1 Q6.05 24.9 6.1 25.8 6.15 26.5 6.7 27.05 L6.55 27.35 6.35 27.75 6.3 28.5 Q6.25 29.3 5.75 29.9 L5.6 30.1 Q6.15 30.55 6.4 31.45 6.8 32.75 6.35 34.05 5.9 35.4 4.5 35.45 L3.2 35.75 3.0 36.3 Q3.0 37.2 3.45 37.9 L3.6 38.2 Q5.0 38.75 4.75 40.45 4.5 41.95 3.15 42.7 L2.65 42.9 Q2.7 44.35 4.05 45.1 4.9 45.6 5.0 46.6 5.05 47.95 4.35 48.65 L4.4 48.7 4.75 49.6 4.8 50.65 4.5 51.4 Q4.75 52.45 4.45 53.5 L4.4 53.8 4.55 54.5 Q5.9 55.55 6.1 57.5 6.35 59.5 5.55 60.25 L5.85 60.2 6.5 60.3 7.0 60.8 7.25 61.45 7.35 62.15 7.3 62.25 Q8.2 62.65 8.5 63.6 L8.65 64.35 8.95 64.45 9.65 64.75 10.2 65.55 10.2 65.6 10.3 66.75 Q10.3 67.2 10.6 67.6 L10.85 67.9 Q11.45 67.4 12.25 67.3 13.4 67.4 13.85 68.55 14.2 69.5 13.95 70.45 L14.5 71.0 15.0 71.55 14.95 71.6 14.95 71.7 16.85 72.0 Q17.95 72.65 17.6 73.9 L17.1 74.85 17.1 74.9 Q17.2 75.7 17.7 76.35 18.3 77.05 19.2 77.15 L20.4 77.15 20.5 77.2 20.65 77.3 20.8 77.45 22.65 76.9 Q23.45 76.85 23.85 77.45 L24.45 78.7 25.05 79.95 25.15 80.2 25.95 80.2 26.3 80.55 Q26.95 80.2 27.7 80.1 29.8 79.8 29.95 81.8 L29.95 83.0 31.3 82.85 32.1 82.8 32.8 83.65 Q33.1 84.05 33.65 84.15 L35.3 84.05 36.45 83.95 36.55 84.05 36.55 83.95 Q36.85 83.6 37.35 83.5 L37.75 83.35 38.55 83.45 Q38.95 83.5 39.2 83.8 L39.85 84.4 40.25 84.95 Q42.6 83.85 44.65 85.25 L45.45 86.15 45.55 86.35 46.15 86.2 46.7 86.15 47.55 85.5 Q48.2 84.9 49.0 84.8 L51.75 84.3 52.2 84.4 56.8 85.0 Q57.75 85.3 58.2 84.5 59.45 82.4 61.7 82.0 L63.8 81.25 64.35 80.85 64.75 80.8 64.8 79.95 Q65.1 79.15 65.95 78.7 66.9 78.3 68.0 78.45 L68.2 78.25 68.35 78.15 68.5 78.05 69.0 77.85 69.0 77.8 69.3 77.05 70.5 76.55 71.15 75.9 Q71.6 75.75 71.85 75.1 L73.05 72.95 73.1 72.9 73.1 72.85 Q73.35 71.85 74.15 71.15 74.55 70.8 74.95 70.8 75.8 70.85 76.4 71.45 L76.5 71.55 76.7 71.3 Q77.3 70.0 77.55 68.45 L78.95 68.25 Q79.9 68.15 80.45 67.35 81.25 66.05 81.1 64.65 81.0 63.85 81.3 62.95 L81.35 62.8 Q81.75 62.85 82.0 62.55 81.4 61.6 81.55 60.35 81.8 58.95 82.9 58.3 L82.95 58.2 83.15 58.2 83.5 58.05 83.8 57.95 84.4 57.25 84.75 55.8 84.5 54.4 84.25 53.45 84.95 52.3 85.3 51.55 Q85.3 50.55 84.7 49.55 84.25 48.85 84.8 48.2 85.1 47.85 85.45 47.65 L85.95 46.35 86.05 45.75 85.25 45.2 Q84.35 44.3 84.6 43.05 84.75 42.2 85.45 41.65 L84.6 40.8 Q84.15 40.2 84.2 39.5 84.25 38.95 84.45 38.5 84.9 37.75 85.6 37.25 L85.9 37.15 86.0 36.4 85.2 35.9 Q84.75 35.45 84.75 34.85 84.7 33.7 85.55 33.05 85.2 32.6 84.15 32.3 L83.95 32.1 83.7 31.65 83.65 31.15 83.65 30.85 83.7 30.6 83.75 30.4 84.3 29.8 Q84.65 29.3 84.5 28.65 L84.45 28.5 Q83.75 29.25 82.5 28.75 81.65 28.5 81.65 27.6 81.6 26.7 82.1 26.1" fill="#ffffff" fill-rule="evenodd" stroke="none"/>
  </g>
</svg>
