<?xml version="1.0" encoding="UTF-8" standalone="no"?>
<svg xmlns:xlink="http://www.w3.org/1999/xlink" height="81.95px" width="50.35px" xmlns="http://www.w3.org/2000/svg">
  <g transform="matrix(1.0, 0.0, 0.0, 1.0, 28.85, 19.2)">
    <path d="M-17.0 -1.4 L-12.2 9.2 -13.8 9.9 -1.2 37.8 -18.1 45.4 -15.2 51.8 -23.35 55.5 Q-24.65 51.95 -24.3 47.7 -24.1 44.8 -22.8 40.1 L-21.65 36.0 Q-23.4 18.05 -17.0 -1.4" fill="#bf7926" fill-rule="evenodd" stroke="none"/>
    <path d="M-23.35 55.5 Q-24.65 51.95 -24.3 47.7 -24.1 44.8 -22.8 40.1 L-21.65 36.0 Q-23.4 18.05 -17.0 -1.4" fill="none" stroke="#3c190a" stroke-linecap="round" stroke-linejoin="round" stroke-width="9.0"/>
    <path d="M4.2 -15.25 L13.0 -19.2 Q9.8 -6.9 8.9 3.95 7.8 17.4 10.3 26.3 15.0 29.2 18.7 35.0 20.6 37.9 21.5 40.2 L14.8 46.7 6.95 36.05 Q6.45 41.8 8.65 47.05 10.15 50.65 14.15 56.1 L5.65 59.4 Q-0.4 54.55 -2.8 43.25 -3.65 47.8 -2.35 52.7 -1.15 57.4 1.65 61.05 L-6.0 62.75 Q-9.7 59.0 -11.05 55.95 -12.75 52.1 -12.95 45.25 -14.35 48.25 -14.3 51.85 -14.25 55.1 -13.1 58.2 L-22.2 58.05 Q-24.8 53.5 -24.3 47.7 -24.0 43.65 -21.65 36.0 -23.85 13.25 -13.0 -11.95 L2.55 -18.95 4.2 -15.25" fill="#bf7926" fill-rule="evenodd" stroke="none"/>
    <path d="M4.2 -15.25 L13.0 -19.2 Q10.95 -11.35 9.85 -4.05 L9.8 -3.65 9.75 -3.3 9.55 -2.0 9.5 -1.65 9.45 -1.2 9.4 -0.8 9.35 -0.35 9.3 0.1 9.25 0.8 9.2 1.05 9.15 1.45 9.1 1.95 9.05 2.45 9.0 2.95 9.0 3.15 8.95 3.7 8.9 3.95 Q7.8 17.4 10.3 26.3 L11.7 27.25 Q10.35 30.5 8.55 32.6 6.4 29.2 4.75 23.55 4.95 31.55 3.55 39.55 -2.6 34.6 -5.85 27.65 -4.6 36.5 -6.75 45.15 -12.1 40.05 -14.7 32.65 -14.9 40.15 -17.45 45.65 -19.5 45.45 -23.35 42.3 L-21.65 36.0 Q-23.85 13.25 -13.0 -11.95 L2.55 -18.95 4.2 -15.25" fill="#70381f" fill-rule="evenodd" stroke="none"/>
  </g>
</svg>
