<?xml version="1.0" encoding="UTF-8" standalone="no"?>
<svg xmlns:xlink="http://www.w3.org/1999/xlink" height="214.8px" width="248.25px" xmlns="http://www.w3.org/2000/svg">
  <g transform="matrix(1.0, 0.0, 0.0, 1.0, 178.4, 94.95)">
    <path d="M-141.4 -38.6 Q-135.8 -57.6 -111.2 -71.9 -88.0 -85.4 -58.2 -89.2 -27.3 -93.15 -4.05 -84.55 21.9 -74.95 29.55 -52.1 41.15 -17.45 33.6 27.1 L32.0 35.65 Q36.05 34.5 40.75 34.75 50.9 35.3 58.15 42.2 65.5 49.1 65.35 58.35 65.2 67.55 57.6 73.4 50.05 79.05 39.85 78.15 29.75 77.0 23.0 70.05 L21.85 68.8 Q18.7 76.15 15.55 80.9 11.3 87.3 -6.5 91.65 -22.6 95.55 -44.75 96.7 -66.35 97.85 -84.2 95.9 -103.2 93.8 -109.9 88.9 -116.1 84.35 -122.75 73.4 -125.0 77.85 -128.8 81.65 -137.65 90.55 -149.3 90.6 -160.75 90.6 -167.9 82.1 -174.85 73.8 -173.75 62.2 -172.75 50.85 -164.55 42.6 -156.4 34.35 -145.55 33.75 L-139.3 34.1 Q-150.8 -6.55 -141.4 -38.6" fill="#27313f" fill-rule="evenodd" stroke="none"/>
    <path d="M-141.4 -38.6 Q-150.8 -6.55 -139.3 34.1 L-145.55 33.75 Q-156.4 34.35 -164.55 42.6 -172.75 50.85 -173.75 62.2 -174.85 73.8 -167.9 82.1 -160.75 90.6 -149.3 90.6 -137.65 90.55 -128.8 81.65 -125.0 77.85 -122.75 73.4 -116.1 84.35 -109.9 88.9 -103.2 93.8 -84.2 95.9 -66.35 97.85 -44.75 96.7 -22.6 95.55 -6.5 91.65 11.3 87.3 15.55 80.9 18.7 76.15 21.85 68.8 L23.0 70.05 Q29.75 77.0 39.85 78.15 50.05 79.05 57.6 73.4 65.2 67.55 65.35 58.35 65.5 49.1 58.15 42.2 50.9 35.3 40.75 34.75 36.05 34.5 32.0 35.65 L33.6 27.1 Q41.15 -17.45 29.55 -52.1 21.9 -74.95 -4.05 -84.55 -27.3 -93.15 -58.2 -89.2 -88.0 -85.4 -111.2 -71.9 -135.8 -57.6 -141.4 -38.6 Z" fill="none" stroke="#27313f" stroke-linecap="round" stroke-linejoin="round" stroke-width="9.0"/>
    <path d="M-145.55 33.75 Q-134.55 33.05 -126.9 40.7 -119.05 48.55 -119.5 60.5 -119.95 72.7 -128.8 81.65 -137.65 90.55 -149.3 90.6 -160.75 90.6 -167.9 82.1 -174.85 73.8 -173.75 62.2 -172.75 50.85 -164.55 42.6 -156.4 34.35 -145.55 33.75" fill="#3b4758" fill-rule="evenodd" stroke="none"/>
    <path d="M-138.15 43.15 Q-130.6 42.65 -125.3 47.95 -119.95 53.3 -120.25 61.55 -120.55 69.95 -126.65 76.1 -132.7 82.2 -140.7 82.25 -148.6 82.25 -153.5 76.4 -158.3 70.7 -157.55 62.7 -156.85 54.9 -151.2 49.25 -145.6 43.55 -138.15 43.15" fill="#27313f" fill-rule="evenodd" stroke="none"/>
    <path d="M40.75 34.75 Q50.9 35.3 58.15 42.2 65.5 49.1 65.35 58.35 65.2 67.55 57.6 73.4 50.05 79.05 39.85 78.15 29.75 77.0 23.0 70.05 16.3 63.2 16.5 54.45 16.5 53.25 16.75 52.15 17.65 44.9 23.7 40.05 30.75 34.2 40.75 34.75" fill="#3b4758" fill-rule="evenodd" stroke="none"/>
    <path d="M48.7 46.25 Q54.1 51.3 53.95 58.05 53.85 64.75 48.3 69.05 42.8 73.15 35.4 72.5 28.0 71.6 23.1 66.55 18.2 61.55 18.35 55.2 L18.55 53.55 Q19.2 48.2 23.6 44.65 28.75 40.45 36.05 40.85 43.45 41.2 48.7 46.25" fill="#27313f" fill-rule="evenodd" stroke="none"/>
    <path d="M37.3 34.75 Q34.3 49.55 29.65 62.95 L25.55 73.5 25.9 72.65 23.0 70.05 Q16.3 63.2 16.5 54.45 16.5 53.25 16.75 52.15 17.65 44.9 23.7 40.05 29.5 35.25 37.3 34.75 M-142.65 40.6 L-144.6 33.7 Q-134.25 33.35 -126.9 40.7 -119.05 48.55 -119.5 60.5 -119.85 70.55 -125.9 78.35 L-128.55 73.9 Q-136.95 59.15 -142.65 40.6" fill="#000000" fill-opacity="0.2" fill-rule="evenodd" stroke="none"/>
    <path d="M29.55 -52.1 Q41.15 -17.45 33.6 27.1 30.65 44.45 25.25 59.8 20.45 73.55 15.55 80.9 11.3 87.3 -6.5 91.65 -22.6 95.55 -44.75 96.7 -66.35 97.85 -84.2 95.9 -103.2 93.8 -109.9 88.9 -117.0 83.7 -124.65 70.2 -132.6 56.2 -138.0 38.6 -151.3 -4.75 -141.4 -38.6 -135.8 -57.6 -111.2 -71.9 -88.0 -85.4 -58.2 -89.2 -27.3 -93.15 -4.05 -84.55 21.9 -74.95 29.55 -52.1" fill="#3b4758" fill-rule="evenodd" stroke="none"/>
    <path d="M16.0 -54.6 L16.65 -53.85 M-53.95 -75.9 Q-39.05 -80.7 -23.0 -77.9 -8.1 -75.35 3.0 -67.25" fill="none" stroke="#ffffff" stroke-linecap="round" stroke-linejoin="round" stroke-width="15.0"/>
    <path d="M-2.65 -29.05 L-5.3 -29.15 Q-21.35 -29.15 -32.8 -17.15 -44.15 -5.1 -44.15 11.8 -44.15 21.75 -40.25 30.0 -45.75 28.5 -51.85 28.5 L-58.8 29.0 Q-55.15 21.15 -55.15 11.8 -55.15 -5.1 -67.1 -17.15 -79.15 -29.15 -96.1 -29.15 L-101.0 -28.85 Q-80.5 -48.5 -51.75 -48.5 -23.15 -48.5 -2.65 -29.05 M-119.0 45.85 Q-109.0 52.8 -96.1 52.8 L-90.85 52.5 Q-95.3 61.3 -95.3 71.9 -95.3 75.15 -94.85 78.25 L-102.1 71.9 Q-113.9 60.25 -119.0 45.85 M-8.9 78.45 Q-8.45 75.25 -8.45 71.9 -8.45 61.0 -13.1 52.05 L-5.3 52.8 Q6.2 52.8 15.25 46.7 10.05 60.55 -1.4 71.9 -5.0 75.5 -8.9 78.45" fill="#585858" fill-rule="evenodd" stroke="none"/>
    <path d="M-101.0 -28.85 L-96.1 -29.15 Q-79.15 -29.15 -67.1 -17.15 -55.15 -5.1 -55.15 11.8 -55.15 21.15 -58.8 29.0 L-51.85 28.5 Q-45.75 28.5 -40.25 30.0 -44.15 21.75 -44.15 11.8 -44.15 -5.1 -32.8 -17.15 -21.35 -29.15 -5.3 -29.15 L-2.65 -29.05 Q11.75 -28.15 22.15 -17.15 33.6 -5.1 33.6 11.8 33.6 28.75 22.15 40.75 18.9 44.2 15.25 46.7 6.2 52.8 -5.3 52.8 L-13.1 52.05 Q-8.45 61.0 -8.45 71.9 -8.45 75.25 -8.9 78.45 -10.85 92.3 -21.15 102.6 -33.9 115.35 -51.85 115.35 -69.85 115.35 -82.55 102.6 -93.0 92.2 -94.85 78.25 -95.3 75.15 -95.3 71.9 -95.3 61.3 -90.85 52.5 L-96.1 52.8 Q-109.0 52.8 -119.0 45.85 -122.15 43.65 -125.05 40.75 -137.05 28.75 -137.05 11.8 -137.05 -5.1 -125.05 -17.15 -114.85 -27.35 -101.0 -28.85" fill="#727272" fill-rule="evenodd" stroke="none"/>
    <path d="M-2.65 -29.05 L-5.3 -29.15 Q-21.35 -29.15 -32.8 -17.15 -44.15 -5.1 -44.15 11.8 -44.15 21.75 -40.25 30.0 -45.75 28.5 -51.85 28.5 L-58.8 29.0 Q-55.15 21.15 -55.15 11.8 -55.15 -5.1 -67.1 -17.15 -79.15 -29.15 -96.1 -29.15 L-101.0 -28.85 Q-114.85 -27.35 -125.05 -17.15 -137.05 -5.1 -137.05 11.8 -137.05 28.75 -125.05 40.75 -122.15 43.65 -119.0 45.85 -109.0 52.8 -96.1 52.8 L-90.85 52.5 Q-95.3 61.3 -95.3 71.9 -95.3 75.15 -94.85 78.25 -93.0 92.2 -82.55 102.6 -69.85 115.35 -51.85 115.35 -33.9 115.35 -21.15 102.6 -10.85 92.3 -8.9 78.45 -8.45 75.25 -8.45 71.9 -8.45 61.0 -13.1 52.05 L-5.3 52.8 Q6.2 52.8 15.25 46.7 18.9 44.2 22.15 40.75 33.6 28.75 33.6 11.8 33.6 -5.1 22.15 -17.15 11.75 -28.15 -2.65 -29.05 -23.15 -48.5 -51.75 -48.5 -80.5 -48.5 -101.0 -28.85 M15.25 46.7 Q10.05 60.55 -1.4 71.9 -5.0 75.5 -8.9 78.45 M-94.85 78.25 L-102.1 71.9 Q-113.9 60.25 -119.0 45.85" fill="none" stroke="#2e2d2d" stroke-linecap="round" stroke-linejoin="round" stroke-width="9.0"/>
    <path d="M-51.75 -48.5 Q-22.25 -48.5 -1.4 -27.85 19.5 -7.15 19.5 22.05 19.5 51.25 -1.4 71.9 -22.25 92.6 -51.75 92.6 -81.25 92.6 -102.1 71.9 -122.95 51.25 -122.95 22.05 -122.95 -7.15 -102.1 -27.85 -81.25 -48.5 -51.75 -48.5" fill="#585858" fill-rule="evenodd" stroke="none"/>
    <path d="M-5.3 -29.15 Q10.8 -29.15 22.15 -17.15 33.6 -5.1 33.6 11.8 33.6 28.75 22.15 40.75 10.8 52.8 -5.3 52.8 -21.35 52.8 -32.8 40.75 -44.15 28.75 -44.15 11.8 -44.15 -5.1 -32.8 -17.15 -21.35 -29.15 -5.3 -29.15" fill="#727272" fill-rule="evenodd" stroke="none"/>
    <path d="M-0.15 -16.45 Q10.95 -16.45 18.8 -8.2 26.7 0.1 26.7 11.8 26.7 23.5 18.8 31.8 10.95 40.1 -0.15 40.1 -11.25 40.1 -19.15 31.8 -27.0 23.5 -27.0 11.8 -27.0 0.1 -19.15 -8.2 -11.25 -16.45 -0.15 -16.45" fill="#2e2d2d" fill-rule="evenodd" stroke="none"/>
    <path d="M-6.5 -15.7 L-7.85 -16.0 Q0.05 -14.5 6.05 -8.2 13.9 0.1 13.9 11.8 13.9 23.55 6.05 31.75 0.55 37.6 -6.5 39.35 -13.55 37.6 -19.05 31.75 -26.9 23.55 -26.9 11.8 -26.9 0.1 -19.05 -8.2 -13.55 -14.0 -6.5 -15.7" fill="#9bd919" fill-rule="evenodd" stroke="none"/>
    <path d="M-96.1 -29.15 Q-113.05 -29.15 -125.05 -17.15 -137.05 -5.1 -137.05 11.8 -137.05 28.75 -125.05 40.75 -113.05 52.8 -96.1 52.8 -79.15 52.8 -67.1 40.75 -55.15 28.75 -55.15 11.8 -55.15 -5.1 -67.1 -17.15 -79.15 -29.15 -96.1 -29.15" fill="#727272" fill-rule="evenodd" stroke="none"/>
    <path d="M-101.55 -16.45 Q-113.25 -16.45 -121.55 -8.2 -129.85 0.1 -129.85 11.8 -129.85 23.5 -121.55 31.8 -113.25 40.1 -101.55 40.1 -89.85 40.1 -81.55 31.8 -73.3 23.5 -73.3 11.8 -73.3 0.1 -81.55 -8.2 -89.85 -16.45 -101.55 -16.45" fill="#2e2d2d" fill-rule="evenodd" stroke="none"/>
    <path d="M-94.85 -15.7 L-93.4 -16.0 Q-101.7 -14.5 -108.05 -8.2 -116.3 0.1 -116.3 11.8 -116.3 23.55 -108.05 31.75 -102.2 37.6 -94.85 39.35 -87.4 37.6 -81.6 31.75 -73.3 23.55 -73.3 11.8 -73.3 0.1 -81.6 -8.2 -87.4 -14.0 -94.85 -15.7" fill="#9bd919" fill-rule="evenodd" stroke="none"/>
    <path d="M-56.95 24.25 Q-59.8 33.4 -67.1 40.75 -79.1 52.75 -96.0 52.8 -92.5 44.75 -85.75 38.0 -73.55 25.8 -56.95 24.25 M-32.8 40.75 Q-39.5 33.7 -42.2 24.9 -28.5 27.55 -18.0 38.0 -11.3 44.7 -7.8 52.75 -22.25 51.85 -32.8 40.75" fill="#585858" fill-rule="evenodd" stroke="none"/>
    <path d="M-95.3 71.9 Q-95.3 53.95 -82.55 41.2 -69.85 28.5 -51.85 28.5 -33.9 28.5 -21.15 41.2 -8.45 53.95 -8.45 71.9 -8.45 89.9 -21.15 102.6 -33.9 115.35 -51.85 115.35 -69.85 115.35 -82.55 102.6 -95.3 89.9 -95.3 71.9" fill="#727272" fill-rule="evenodd" stroke="none"/>
    <path d="M-84.9 78.95 Q-84.9 65.25 -75.2 55.5 -65.45 45.8 -51.75 45.8 -38.0 45.8 -28.3 55.5 -18.55 65.25 -18.55 78.95 -18.55 92.7 -28.3 102.4 -38.0 112.15 -51.75 112.15 -65.45 112.15 -75.2 102.4 -84.9 92.7 -84.9 78.95" fill="#585858" fill-rule="evenodd" stroke="none"/>
    <path d="M-46.8 63.4 Q-48.15 64.75 -50.0 64.75 -51.9 64.75 -53.25 63.4 -54.6 62.1 -54.6 60.2 -54.6 58.3 -53.25 56.95 -51.9 55.65 -50.0 55.65 -48.15 55.65 -46.8 56.95 -45.45 58.3 -45.45 60.2 -45.45 62.1 -46.8 63.4 M-46.8 76.65 Q-45.45 78.0 -45.45 79.9 -45.45 81.8 -46.8 83.1 -48.15 84.45 -50.0 84.45 -51.9 84.45 -53.25 83.1 -54.6 81.8 -54.6 79.9 -54.6 78.0 -53.25 76.65 -51.9 75.35 -50.0 75.35 -48.15 75.35 -46.8 76.65 M-33.15 72.85 Q-34.5 74.2 -36.35 74.2 -38.25 74.2 -39.6 72.85 -40.95 71.55 -40.95 69.65 -40.95 67.75 -39.6 66.4 -38.25 65.1 -36.35 65.1 -34.5 65.1 -33.15 66.4 -31.8 67.75 -31.8 69.65 -31.8 71.55 -33.15 72.85 M-63.9 72.85 Q-65.25 74.2 -67.1 74.2 -69.0 74.2 -70.35 72.85 -71.7 71.55 -71.7 69.65 -71.7 67.75 -70.35 66.4 -69.0 65.1 -67.1 65.1 -65.25 65.1 -63.9 66.4 -62.55 67.75 -62.55 69.65 -62.55 71.55 -63.9 72.85 M-63.9 86.5 Q-62.55 87.85 -62.55 89.75 -62.55 91.65 -63.9 92.95 -65.25 94.3 -67.1 94.3 -69.0 94.3 -70.35 92.95 -71.7 91.65 -71.7 89.75 -71.7 87.85 -70.35 86.5 -69.0 85.2 -67.1 85.2 -65.25 85.2 -63.9 86.5 M-54.6 98.85 Q-54.6 96.95 -53.25 95.6 -51.9 94.3 -50.0 94.3 -48.15 94.3 -46.8 95.6 -45.45 96.95 -45.45 98.85 -45.45 100.75 -46.8 102.05 -48.15 103.4 -50.0 103.4 -51.9 103.4 -53.25 102.05 -54.6 100.75 -54.6 98.85 M-31.8 89.75 Q-31.8 91.65 -33.15 92.95 -34.5 94.3 -36.35 94.3 -38.25 94.3 -39.6 92.95 -40.95 91.65 -40.95 89.75 -40.95 87.85 -39.6 86.5 -38.25 85.2 -36.35 85.2 -34.5 85.2 -33.15 86.5 -31.8 87.85 -31.8 89.75" fill="#2e2d2d" fill-rule="evenodd" stroke="none"/>
  </g>
</svg>
