<?xml version="1.0" encoding="UTF-8" standalone="no"?>
<svg xmlns:xlink="http://www.w3.org/1999/xlink" height="22.9px" width="22.9px" xmlns="http://www.w3.org/2000/svg">
  <g transform="matrix(1.0, 0.0, 0.0, 1.0, 11.6, 11.75)">
    <path d="M11.3 -0.3 Q11.3 4.45 7.95 7.8 4.6 11.15 -0.15 11.15 -4.85 11.15 -8.25 7.8 -11.6 4.45 -11.6 -0.3 -11.6 -5.05 -8.25 -8.4 -4.85 -11.75 -0.15 -11.75 4.6 -11.75 7.95 -8.4 11.3 -5.05 11.3 -0.3" fill="#232222" fill-rule="evenodd" stroke="none"/>
    <path d="M-0.4 2.35 L-1.1 3.75 0.3 3.75 -0.4 2.35 M-2.7 -0.3 Q-3.55 -1.2 -4.7 -1.15 -5.8 -1.2 -6.5 -0.3 -7.2 0.5 -6.95 1.65 -6.85 2.7 -6.0 3.45 -5.2 4.1 -4.2 4.1 -3.2 4.1 -2.5 3.45 -1.85 2.7 -1.85 1.65 -1.95 0.5 -2.7 -0.3 M7.3 -1.9 L7.25 -0.5 7.15 0.25 Q6.7 2.6 5.2 5.55 L2.75 5.55 3.1 7.15 0.3 7.15 0.35 5.55 -0.7 5.55 -0.7 7.15 -3.5 7.15 -3.2 5.55 -5.7 5.55 Q-7.3 2.75 -7.7 0.3 L-7.75 -0.5 -7.85 -1.85 Q-7.6 -7.55 -0.25 -7.55 7.05 -7.55 7.3 -1.9 M6.1 -0.3 Q5.4 -1.2 4.3 -1.15 3.15 -1.2 2.3 -0.3 1.5 0.5 1.5 1.65 1.4 2.7 2.1 3.45 2.75 4.1 3.75 4.1 4.8 4.1 5.55 3.45 6.4 2.7 6.55 1.65 6.75 0.5 6.1 -0.3" fill="#ffffff" fill-rule="evenodd" stroke="none"/>
  </g>
</svg>
