<?xml version="1.0" encoding="UTF-8" standalone="no"?>
<svg xmlns:xlink="http://www.w3.org/1999/xlink" height="28.85px" width="8.35px" xmlns="http://www.w3.org/2000/svg">
  <g transform="matrix(1.0, 0.0, 0.0, 1.0, -1.7, -10.55)">
    <path d="M8.1 27.65 Q8.95 28.0 9.05 28.5 L9.05 37.0 9.05 37.1 Q8.95 37.65 8.1 38.0 L5.95 38.4 3.7 38.0 Q2.9 37.65 2.8 37.1 L2.7 37.1 2.7 28.5 2.75 28.5 Q2.8 28.0 3.65 27.65 L5.9 27.25 8.1 27.65" fill="#ffffff" fill-rule="evenodd" stroke="none"/>
    <path d="M8.1 27.65 Q8.95 28.0 9.05 28.5 L9.05 37.0 9.05 37.1 Q8.95 37.65 8.1 38.0 L5.95 38.4 3.7 38.0 Q2.9 37.65 2.8 37.1 L2.7 37.1 2.7 28.5 2.75 28.5 Q2.8 28.0 3.65 27.65 L5.9 27.25 8.1 27.65 Z" fill="none" stroke="#191c1e" stroke-linecap="round" stroke-linejoin="round" stroke-width="2.0"/>
    <path d="M4.0 11.55 L7.75 11.55 7.75 30.85 Q7.75 31.3 7.2 31.65 6.65 32.05 5.85 32.05 5.1 32.05 4.5 31.65 3.95 31.3 3.95 30.85 L4.0 30.6 4.0 11.55" fill="#ffffff" fill-rule="evenodd" stroke="none"/>
    <path d="M4.0 11.55 L4.0 30.6 3.95 30.85 Q3.95 31.3 4.5 31.65 5.1 32.05 5.85 32.05 6.65 32.05 7.2 31.65 7.75 31.3 7.75 30.85 L7.75 11.55 4.0 11.55 Z" fill="none" stroke="#191c1e" stroke-linecap="round" stroke-linejoin="round" stroke-width="2.0"/>
    <path d="M3.95 11.55 L7.75 11.55 7.75 30.85 3.95 30.85 3.95 11.55" fill="#555c72" fill-rule="evenodd" stroke="none"/>
    <path d="M7.2 31.65 Q6.65 32.0 5.85 32.0 L4.5 31.65 Q3.95 31.3 3.95 30.8 3.95 30.3 4.5 29.95 5.05 29.6 5.85 29.6 6.65 29.6 7.2 29.95 7.75 30.3 7.75 30.8 7.75 31.3 7.2 31.65" fill="#3f434f" fill-rule="evenodd" stroke="none"/>
    <path d="M6.75 31.45 L5.85 31.6 4.95 31.45 4.6 31.0 4.95 30.55 5.85 30.35 6.75 30.55 7.1 31.0 6.75 31.45" fill="#000000" fill-rule="evenodd" stroke="none"/>
    <path d="M8.1 27.65 Q8.95 28.0 9.05 28.5 L9.05 37.1 Q8.95 37.65 8.1 38.0 L5.95 38.4 3.7 38.0 Q2.9 37.65 2.8 37.1 L2.7 37.1 2.7 28.5 2.75 28.5 Q2.8 28.0 3.65 27.65 L5.9 27.25 8.1 27.65" fill="#f73600" fill-rule="evenodd" stroke="none"/>
    <path d="M8.1 27.65 Q8.95 28.0 9.05 28.5 L9.05 37.1 Q8.95 37.65 8.1 38.0 L5.95 38.4 3.7 38.0 Q2.9 37.65 2.8 37.1 L2.7 37.1 2.7 28.5 2.75 28.5 Q2.8 28.0 3.65 27.65 L5.9 27.25 8.1 27.65 Z" fill="none" stroke="#191c1e" stroke-linecap="round" stroke-linejoin="round" stroke-width="1.0"/>
    <path d="M2.7 28.5 L9.05 28.5 9.05 37.05 2.7 37.05 2.7 28.5" fill="#555c72" fill-rule="evenodd" stroke="none"/>
    <path d="M9.05 36.95 Q9.05 37.5 8.15 37.95 L5.9 38.35 3.65 37.95 Q2.7 37.5 2.7 36.95 2.7 36.4 3.65 35.95 L5.9 35.55 8.15 35.95 Q9.05 36.4 9.05 36.95" fill="#3f434f" fill-rule="evenodd" stroke="none"/>
    <path d="M7.35 37.75 L5.85 37.95 4.4 37.75 3.8 37.25 Q3.8 36.95 4.4 36.7 L5.85 36.5 7.35 36.7 Q7.95 36.95 7.95 37.25 7.95 37.55 7.35 37.75" fill="#000000" fill-rule="evenodd" stroke="none"/>
    <path d="M8.1 29.6 L5.85 30.0 Q4.55 30.0 3.6 29.6 2.7 29.15 2.7 28.6 2.7 28.05 3.6 27.6 L5.85 27.2 8.1 27.6 Q9.05 28.05 9.05 28.6 9.05 29.15 8.1 29.6" fill="#555c72" fill-rule="evenodd" stroke="none"/>
  </g>
</svg>
