<?xml version="1.0" encoding="UTF-8" standalone="no"?>
<svg xmlns:xlink="http://www.w3.org/1999/xlink" height="52.3px" width="52.5px" xmlns="http://www.w3.org/2000/svg">
  <g transform="matrix(1.0, 0.0, 0.0, 1.0, 26.25, 25.75)">
    <path d="M12.45 -25.0 L9.6 -18.2 M13.2 -4.95 Q18.95 -8.05 24.85 -10.6 M0.55 17.9 L1.25 23.4 M8.45 12.0 L10.75 15.85 11.7 17.4 M5.85 1.05 L7.15 1.15 M15.25 1.4 L21.3 1.4 M11.9 8.5 Q18.6 11.65 25.5 14.45 M-1.95 -22.6 L-1.65 -15.5 M-14.25 -18.5 L-7.45 -9.7 M-17.15 -9.8 Q-14.0 -7.95 -10.95 -5.9 M-20.35 13.9 L-13.55 9.9 M-25.5 1.4 L-14.25 0.5 M-2.9 6.85 L-3.4 7.9 M-8.3 17.45 L-8.7 18.2 Q-10.75 21.95 -12.35 25.8" fill="none" stroke="#ffffff" stroke-linecap="round" stroke-linejoin="round" stroke-width="1.5"/>
  </g>
</svg>
