<?xml version="1.0" encoding="UTF-8" standalone="no"?>
<svg xmlns:xlink="http://www.w3.org/1999/xlink" height="26.5px" width="44.2px" xmlns="http://www.w3.org/2000/svg">
  <g transform="matrix(1.0, 0.0, 0.0, 1.0, -119.35, -62.7)">
    <path d="M121.35 64.7 L125.65 64.7 125.65 66.55 157.25 66.55 157.25 64.7 161.55 64.7 161.55 87.2 157.25 87.2 157.25 85.5 125.65 85.5 125.65 87.2 121.35 87.2 121.35 64.7 Z" fill="none" stroke="#252525" stroke-linecap="round" stroke-linejoin="round" stroke-width="4.0"/>
    <path d="M161.35 85.5 L121.65 85.5 121.65 66.55 161.35 66.55 161.35 85.5" fill="#666666" fill-rule="evenodd" stroke="none"/>
    <path d="M161.35 85.5 L121.65 85.5 121.65 66.55 161.35 66.55 161.35 85.5 Z" fill="none" stroke="#252525" stroke-linecap="round" stroke-linejoin="round" stroke-width="1.0"/>
    <path d="M157.25 87.15 L157.25 64.7 161.5 64.7 161.5 87.15 157.25 87.15" fill="#666666" fill-rule="evenodd" stroke="none"/>
    <path d="M157.25 87.15 L157.25 64.7 161.5 64.7 161.5 87.15 157.25 87.15 Z" fill="none" stroke="#252525" stroke-linecap="round" stroke-linejoin="round" stroke-width="1.0"/>
    <path d="M121.35 87.15 L121.35 64.7 125.6 64.7 125.6 87.15 121.35 87.15" fill="#666666" fill-rule="evenodd" stroke="none"/>
    <path d="M121.35 87.15 L121.35 64.7 125.6 64.7 125.6 87.15 121.35 87.15 Z" fill="none" stroke="#252525" stroke-linecap="round" stroke-linejoin="round" stroke-width="1.0"/>
  </g>
</svg>
