<?xml version="1.0" encoding="UTF-8" standalone="no"?>
<svg xmlns:xlink="http://www.w3.org/1999/xlink" height="41.45px" width="40.35px" xmlns="http://www.w3.org/2000/svg">
  <g transform="matrix(1.0, 0.0, 0.0, 1.0, 20.15, 20.7)">
    <path d="M-5.95 -15.75 Q-3.3 -17.7 0.45 -17.7 4.2 -17.7 6.85 -15.75 L7.8 -14.95 Q10.1 -13.75 11.9 -11.5 14.85 -7.95 14.7 -4.4 L16.35 3.85 Q17.7 10.9 16.95 11.7 15.95 12.75 12.25 12.8 8.5 12.8 7.6 11.75 6.35 10.35 6.3 4.4 0.45 17.3 -1.35 17.7 -2.65 18.05 -5.6 15.95 -8.6 13.9 -9.05 12.45 -9.4 11.45 -5.65 7.1 L-1.8 3.0 Q-11.5 6.75 -13.25 6.55 -14.6 6.35 -16.15 3.55 -17.75 0.65 -16.85 -0.8 -16.1 -2.05 -10.65 -3.7 L-5.2 -5.15 Q-13.4 -7.05 -14.15 -7.95 -14.65 -8.65 -13.9 -11.35 -13.1 -14.05 -12.1 -14.25 L-9.0 -14.1 -7.75 -13.85 -5.95 -15.75 Z" fill="none" stroke="#3c190a" stroke-linecap="round" stroke-linejoin="round" stroke-width="6.0"/>
    <path d="M6.85 -15.75 Q9.55 -13.75 9.55 -11.05 9.55 -8.25 6.85 -6.3 4.2 -4.35 0.5 -4.35 -3.3 -4.35 -5.95 -6.3 -8.6 -8.25 -8.6 -11.05 -8.6 -13.75 -5.95 -15.75 -3.3 -17.7 0.45 -17.7 4.2 -17.7 6.85 -15.75" fill="#70381f" fill-rule="evenodd" stroke="none"/>
    <path d="M11.9 -11.5 Q14.85 -7.95 14.7 -4.4 L16.35 3.85 Q17.7 10.9 16.95 11.7 15.95 12.75 12.25 12.8 8.5 12.8 7.6 11.75 6.35 10.35 6.3 4.4 0.45 17.3 -1.35 17.7 -2.65 18.05 -5.6 15.95 -8.6 13.9 -9.05 12.45 -9.4 11.45 -5.65 7.1 L-1.8 3.0 Q-11.5 6.75 -13.25 6.55 -14.6 6.35 -16.15 3.55 -17.75 0.65 -16.85 -0.8 -16.1 -2.05 -10.65 -3.7 L-5.2 -5.15 Q-13.4 -7.05 -14.15 -7.95 -14.65 -8.65 -13.9 -11.35 -13.1 -14.05 -12.1 -14.25 L-9.0 -14.1 -4.55 -13.45 Q-3.0 -13.35 -0.35 -14.85 2.2 -16.35 3.45 -16.25 8.6 -15.65 11.9 -11.5" fill="#bf7926" fill-rule="evenodd" stroke="none"/>
    <path d="M7.3 -7.55 L4.95 -6.45 Q2.65 -4.95 2.75 -3.0 2.9 -1.05 4.7 1.95 L6.5 4.5 5.35 8.8" fill="none" stroke="#3c190a" stroke-linecap="round" stroke-linejoin="round" stroke-width="1.0"/>
  </g>
</svg>
