<?xml version="1.0" encoding="UTF-8" standalone="no"?>
<svg xmlns:xlink="http://www.w3.org/1999/xlink" height="22.35px" width="124.35px" xmlns="http://www.w3.org/2000/svg">
  <g transform="matrix(1.0, 0.0, 0.0, 1.0, 62.55, 23.1)">
    <path d="M-57.05 -16.7 Q-50.0 -23.1 -40.0 -23.1 -30.05 -23.1 -23.05 -16.7 -15.95 -10.3 -15.95 -1.25 L-15.95 -0.75 Q-25.95 -4.35 -38.1 -6.6 -51.25 -9.05 -62.55 -9.1 -60.8 -13.3 -57.05 -16.7" fill="#bf7926" fill-rule="evenodd" stroke="none"/>
    <path d="M20.75 -2.6 Q21.2 -10.8 26.85 -16.7 32.95 -23.1 41.6 -23.1 50.25 -23.1 56.35 -16.7 60.45 -12.4 61.8 -6.9 52.6 -7.95 41.9 -6.9 30.2 -5.8 20.75 -2.6" fill="#bf7926" fill-rule="evenodd" stroke="none"/>
  </g>
</svg>
