<?xml version="1.0" encoding="UTF-8" standalone="no"?>
<svg xmlns:xlink="http://www.w3.org/1999/xlink" height="107.3px" width="104.2px" xmlns="http://www.w3.org/2000/svg">
  <g transform="matrix(1.0, 0.0, 0.0, 1.0, 55.4, 38.9)">
    <path d="M-4.25 55.35 Q-21.75 55.35 -34.05 41.75 -46.45 28.1 -46.45 8.8 -46.45 -10.55 -34.05 -24.1 -21.75 -37.8 -4.25 -37.8 13.3 -37.8 25.65 -24.1 38.0 -10.55 38.0 8.8 38.0 28.1 25.65 41.75 13.3 55.35 -4.25 55.35" fill="#af7c3e" fill-rule="evenodd" stroke="none"/>
    <path d="M-25.9 -30.15 Q-16.5 -38.9 -4.25 -38.9 7.9 -38.9 17.2 -30.25 L17.1 -0.1 -25.95 -0.1 -25.9 -30.15" fill="#5d3c16" fill-rule="evenodd" stroke="none"/>
    <path d="M-22.55 -32.95 Q-14.4 -38.9 -4.25 -38.9 5.75 -38.9 13.8 -33.1 L13.8 -0.1 -22.6 -0.1 -22.55 -32.95" fill="#311f0a" fill-rule="evenodd" stroke="none"/>
    <path d="M-4.25 55.35 Q-21.75 55.35 -34.05 41.75 -46.45 28.1 -46.45 8.8 -46.45 -10.55 -34.05 -24.1 -21.75 -37.8 -4.25 -37.8 13.3 -37.8 25.65 -24.1 38.0 -10.55 38.0 8.8 38.0 28.1 25.65 41.75 13.3 55.35 -4.25 55.35 Z" fill="none" stroke="#5d3c16" stroke-linecap="round" stroke-linejoin="round" stroke-width="2.0"/>
    <path d="M-20.0 64.6 Q-18.6 63.95 -18.15 62.6 L-12.95 47.15 -14.5 63.25 Q-14.55 64.65 -13.65 65.7 -12.65 66.8 -11.15 66.9 -9.7 67.05 -8.55 66.05 -7.3 65.25 -7.25 63.8 L-5.7 47.85 -3.65 63.6 Q-3.4 65.0 -2.25 65.85 -1.05 66.7 0.5 66.55 1.95 66.35 2.9 65.3 3.75 64.15 3.6 62.85 L1.95 50.5 8.2 62.75 Q8.8 64.1 10.25 64.45 L13.05 64.4 Q14.45 63.8 15.0 62.5 15.45 61.2 14.75 59.95 L2.3 35.4 19.85 57.7 Q20.8 58.8 22.25 59.05 23.75 59.25 25.0 58.4 26.2 57.65 26.45 56.2 26.65 54.9 25.75 53.75 L17.6 43.4 33.85 53.2 Q35.05 53.95 36.6 53.7 38.1 53.35 38.9 52.15 39.7 51.0 39.35 49.6 39.1 48.25 37.8 47.65 L22.85 38.55 39.5 44.4 42.25 44.35 Q43.7 43.7 44.15 42.35 44.75 41.1 44.05 39.8 43.55 38.55 42.1 38.15 L19.55 30.25 43.4 32.5 Q44.9 32.65 46.0 31.8 47.2 30.9 47.25 29.5 47.5 28.05 46.5 27.0 45.6 25.95 44.05 25.9 L26.75 24.2 42.25 22.7 Q43.75 22.5 44.7 21.45 45.6 20.35 45.35 18.9 45.3 17.6 44.15 16.65 42.9 15.85 41.4 16.05 L18.1 18.35 39.85 10.6 Q41.3 10.05 41.95 8.8 42.45 7.45 41.95 6.2 41.4 4.85 40.0 4.35 L37.25 4.3 15.3 12.1 34.2 -0.65 Q35.45 -1.5 35.65 -2.8 35.9 -4.25 35.0 -5.35 34.15 -6.5 32.6 -6.7 31.15 -6.9 29.95 -6.05 L12.3 5.85 24.6 -8.25 Q25.5 -9.3 25.35 -10.7 25.2 -12.1 24.0 -12.95 22.85 -13.85 21.3 -13.75 19.85 -13.6 18.85 -12.4 L6.6 1.75 15.05 -14.8 Q15.65 -16.05 15.15 -17.3 14.6 -18.65 13.15 -19.3 L10.4 -19.35 Q9.05 -18.95 8.4 -17.6 L4.6 -10.3 6.95 -17.95 Q7.35 -19.35 6.65 -20.55 5.8 -21.75 4.35 -22.2 2.9 -22.55 1.6 -21.8 0.3 -21.1 -0.05 -19.85 L-1.5 -15.2 -1.95 -20.7 Q-2.05 -22.1 -3.2 -23.0 -4.35 -23.85 -5.85 -23.7 -7.4 -23.65 -8.4 -22.55 -9.3 -21.55 -9.2 -20.15 L-7.4 1.35 -15.15 -18.95 Q-15.7 -20.2 -17.0 -20.75 L-19.9 -20.9 Q-21.3 -20.5 -21.9 -19.15 L-22.05 -19.0 -22.25 -19.1 -25.1 -18.85 Q-26.45 -18.3 -26.95 -16.9 -27.45 -15.7 -26.8 -14.45 L-19.7 -0.7 -29.55 -12.7 Q-30.5 -13.8 -31.95 -13.95 -33.5 -14.15 -34.7 -13.25 -35.85 -12.45 -36.1 -11.05 L-36.15 -10.8 -36.4 -10.8 Q-37.85 -10.85 -39.0 -9.95 -40.05 -9.0 -40.15 -7.55 -40.15 -6.2 -39.05 -5.15 L-33.4 0.35 -41.5 -2.75 Q-42.9 -3.25 -44.25 -2.75 -45.65 -2.1 -46.25 -0.85 -46.85 0.35 -46.25 1.7 -45.7 3.0 -44.35 3.45 L-27.75 9.85 -45.35 6.95 Q-46.85 6.7 -48.1 7.45 -49.4 8.3 -49.6 9.7 -49.9 11.05 -49.0 12.15 -48.25 13.3 -46.7 13.5 L-28.85 16.45 -50.5 18.15 Q-52.05 18.35 -53.05 19.35 -54.05 20.4 -53.9 21.9 -53.75 23.15 -52.6 24.15 -51.45 25.05 -49.9 24.85 L-32.5 23.5 -49.15 28.2 Q-50.6 28.7 -51.3 29.9 -51.95 31.15 -51.5 32.5 -51.15 33.85 -49.75 34.45 L-47.0 34.7 -31.0 30.1 -47.7 40.8 Q-48.9 41.65 -49.2 43.0 -49.45 44.4 -48.55 45.5 -47.75 46.65 -46.25 46.95 -44.8 47.15 -43.55 46.3 L-19.9 31.25 -37.15 52.3 Q-38.0 53.5 -37.85 54.8 -37.6 56.15 -36.3 57.0 -35.25 57.9 -33.75 57.7 -32.3 57.4 -31.3 56.35 L-18.4 40.55 -25.1 60.6 Q-25.55 62.0 -24.95 63.2 -24.2 64.4 -22.65 64.8 L-20.0 64.6 Z" fill="none" stroke="#79460b" stroke-linecap="round" stroke-linejoin="round" stroke-width="3.0"/>
    <path d="M-33.7 57.65 Q-35.25 57.85 -36.35 56.95 -37.6 56.1 -37.8 54.8 -38.05 53.45 -37.2 52.25 L-19.95 31.25 -43.55 46.25 Q-44.8 47.1 -46.3 46.9 -47.75 46.6 -48.5 45.5 -49.45 44.35 -49.2 42.95 -48.95 41.65 -47.7 40.8 L-30.95 30.1 -47.0 34.65 -49.8 34.45 Q-51.1 33.8 -51.55 32.5 -51.95 31.15 -51.3 29.9 -50.6 28.7 -49.15 28.2 L-32.5 23.45 -49.9 24.8 Q-51.45 25.0 -52.55 24.1 -53.75 23.1 -53.9 21.85 -54.05 20.4 -53.05 19.35 -52.1 18.35 -50.55 18.15 L-28.9 16.4 -46.7 13.45 Q-48.25 13.25 -49.0 12.15 -49.9 11.0 -49.65 9.7 -49.35 8.3 -48.1 7.45 -46.85 6.6 -45.3 6.95 L-27.75 9.85 -44.35 3.4 Q-45.7 3.0 -46.3 1.65 -46.85 0.35 -46.3 -0.85 -45.65 -2.1 -44.25 -2.75 -42.85 -3.25 -41.55 -2.75 L-33.4 0.35 -39.1 -5.2 Q-40.15 -6.25 -40.15 -7.55 -40.05 -9.05 -39.0 -9.95 -37.8 -10.85 -36.45 -10.8 L-36.15 -10.8 -36.1 -11.05 Q-35.85 -12.45 -34.75 -13.25 -33.5 -14.15 -31.95 -13.95 -30.55 -13.8 -29.5 -12.65 L-19.65 -0.7 -26.8 -14.5 Q-27.5 -15.75 -26.9 -16.95 -26.5 -18.35 -25.1 -18.9 L-22.3 -19.1 -22.05 -19.05 -21.9 -19.2 Q-21.25 -20.5 -19.95 -20.9 L-17.0 -20.8 Q-15.75 -20.2 -15.15 -18.95 L-7.4 1.3 -9.25 -20.15 Q-9.3 -21.55 -8.4 -22.55 -7.4 -23.65 -5.9 -23.7 -4.35 -23.85 -3.2 -23.0 -2.05 -22.1 -1.95 -20.7 L-1.55 -15.25 -0.1 -19.9 Q0.35 -21.15 1.6 -21.85 2.95 -22.55 4.4 -22.2 5.8 -21.75 6.65 -20.55 7.35 -19.4 7.0 -18.0 L4.6 -10.3 8.4 -17.65 Q9.0 -18.95 10.4 -19.4 L13.15 -19.3 Q14.6 -18.7 15.15 -17.35 15.65 -16.1 15.0 -14.85 L6.55 1.75 18.85 -12.4 Q19.85 -13.6 21.3 -13.7 22.85 -13.85 23.95 -12.95 25.25 -12.1 25.35 -10.7 25.5 -9.3 24.6 -8.25 L12.3 5.8 29.9 -6.1 Q31.15 -6.95 32.65 -6.75 34.1 -6.5 34.95 -5.4 35.95 -4.3 35.65 -2.8 35.45 -1.5 34.25 -0.65 L15.3 12.05 37.25 4.25 40.05 4.3 Q41.4 4.8 41.95 6.15 42.45 7.45 41.95 8.8 41.3 10.05 39.85 10.6 L18.1 18.35 41.4 16.0 Q42.9 15.8 44.2 16.6 45.3 17.6 45.35 18.9 45.55 20.3 44.65 21.45 43.75 22.5 42.2 22.7 L26.75 24.15 44.05 25.85 Q45.55 25.9 46.5 26.95 47.55 28.1 47.25 29.5 47.2 30.9 46.0 31.8 44.85 32.6 43.4 32.5 L19.55 30.25 42.1 38.1 Q43.55 38.55 44.05 39.8 44.75 41.1 44.2 42.35 43.7 43.65 42.2 44.3 L39.5 44.35 22.85 38.55 37.8 47.6 Q39.05 48.2 39.35 49.6 39.7 51.0 38.85 52.15 38.1 53.3 36.55 53.65 35.1 53.95 33.85 53.2 L17.55 43.4 25.7 53.75 Q26.65 54.85 26.4 56.2 26.2 57.6 24.95 58.35 23.75 59.2 22.25 59.0 20.75 58.75 19.85 57.65 L2.3 35.35 14.75 59.95 Q15.45 61.2 14.95 62.45 14.45 63.8 13.05 64.35 L10.25 64.45 Q8.8 64.1 8.15 62.75 L1.95 50.5 3.65 62.8 Q3.75 64.15 2.95 65.25 1.95 66.3 0.5 66.55 -1.05 66.65 -2.25 65.85 -3.45 65.0 -3.65 63.6 L-5.75 47.8 -7.2 63.8 Q-7.35 65.2 -8.55 66.05 -9.65 67.0 -11.1 66.9 -12.65 66.75 -13.65 65.7 -14.55 64.65 -14.5 63.25 L-12.95 47.1 -18.2 62.6 Q-18.6 63.95 -20.0 64.55 -21.35 65.25 -22.65 64.8 -24.2 64.35 -24.95 63.15 -25.6 62.0 -25.1 60.6 L-18.4 40.5 -31.25 56.3 Q-32.3 57.35 -33.7 57.65" fill="#cd7c1e" fill-rule="evenodd" stroke="none"/>
    <path d="M-36.35 43.65 L-37.35 43.65 Q-38.6 43.45 -39.2 42.55 -39.95 41.7 -39.7 40.6 -39.5 39.5 -38.6 38.8 L-25.2 30.3 -37.95 33.95 -40.2 33.8 Q-41.25 33.35 -41.55 32.2 -41.95 31.15 -41.4 30.15 -40.85 29.2 -39.7 28.8 L-26.45 25.1 -33.0 25.6 -32.45 25.45 -41.25 26.1 -42.4 25.6 Q-43.3 24.8 -43.45 23.75 -43.55 22.65 -42.8 21.8 -42.0 21.0 -40.8 20.8 L-23.55 19.45 -29.65 18.5 -28.8 18.4 -38.9 16.7 -39.55 16.1 Q-40.35 15.15 -40.05 14.1 -39.9 13.0 -38.8 12.3 -37.9 11.7 -36.65 11.95 L-22.7 14.2 -29.9 11.45 -27.75 11.8 -37.15 8.15 -37.35 7.7 Q-37.9 6.65 -37.35 5.75 -36.9 4.7 -35.85 4.2 -34.7 3.85 -33.6 4.2 L-27.2 6.65 -31.7 2.3 Q-32.55 1.45 -32.55 0.4 -32.45 -0.8 -31.65 -1.5 -30.7 -2.2 -29.55 -2.15 L-29.35 -2.15 -29.35 -2.4 Q-29.1 -3.55 -28.2 -4.1 -27.3 -4.9 -26.05 -4.65 -24.9 -4.6 -24.05 -3.7 L-16.3 5.8 -21.95 -5.1 Q-22.45 -6.1 -22.0 -7.05 -21.7 -8.1 -20.55 -8.6 L-18.35 -8.75 -18.1 -8.7 -18.05 -8.85 Q-17.5 -9.9 -16.45 -10.25 L-14.15 -10.1 Q-13.1 -9.65 -12.7 -8.7 L-6.5 7.45 -7.95 -9.6 Q-8.05 -10.75 -7.3 -11.5 -6.5 -12.4 -5.3 -12.5 -4.05 -12.55 -3.15 -11.9 -2.25 -11.15 -2.15 -10.1 L-1.85 -5.75 -0.7 -9.4 Q-0.4 -10.35 0.65 -10.95 L2.85 -11.2 Q4.0 -10.85 4.65 -9.95 L4.95 -9.3 4.65 -8.35 5.0 -9.05 4.95 -7.9 3.05 -1.8 6.1 -7.65 Q6.55 -8.7 7.6 -8.95 8.85 -9.4 9.8 -8.95 10.95 -8.4 11.4 -7.35 11.75 -6.65 11.5 -5.95 L6.6 3.7 6.85 3.4 4.65 7.8 14.4 -3.5 Q15.15 -4.4 16.3 -4.55 17.55 -4.6 18.45 -3.9 19.45 -3.25 19.5 -2.15 19.65 -1.0 18.9 -0.15 L9.15 11.0 23.2 1.6 Q24.15 0.9 25.3 1.1 26.55 1.25 27.15 2.15 27.9 3.0 27.7 4.1 27.55 5.2 26.55 5.9 L11.5 16.0 29.0 9.8 Q30.15 9.4 31.2 9.8 32.25 10.25 32.7 11.3 33.1 12.3 32.7 13.4 32.2 14.4 31.05 14.8 L13.8 21.0 32.25 19.1 Q33.5 18.95 34.5 19.7 35.4 20.4 35.4 21.45 35.65 22.55 34.85 23.5 34.15 24.3 32.95 24.45 L20.6 25.65 34.4 27.0 Q35.65 27.0 36.3 27.85 37.15 28.7 36.9 29.8 36.9 30.95 35.95 31.65 35.1 32.35 33.85 32.2 L14.95 30.45 20.05 32.2 19.6 32.2 33.65 37.15 34.4 38.05 Q34.95 39.05 34.5 40.1 34.1 41.15 32.95 41.65 L30.75 41.7 17.55 37.05 23.8 40.8 22.9 40.5 30.35 45.0 30.65 45.85 Q30.95 46.9 30.3 47.8 29.65 48.8 28.45 49.1 27.25 49.3 26.25 48.65 L13.35 40.95 19.8 49.1 Q20.6 50.0 20.35 51.05 20.2 52.2 19.2 52.8 18.2 53.45 17.05 53.3 15.85 53.15 15.15 52.25 L1.2 34.5 3.1 38.3 2.35 37.35 11.4 55.3 11.25 56.05 Q10.9 57.1 9.75 57.55 L7.55 57.6 Q6.4 57.35 5.85 56.25 L0.9 46.55 2.25 56.35 Q2.35 57.4 1.65 58.3 0.9 59.15 -0.25 59.3 -1.5 59.45 -2.45 58.75 -3.3 58.1 -3.55 56.95 L-5.15 44.45 -6.35 57.1 Q-6.45 58.25 -7.45 58.95 -8.35 59.7 -9.5 59.6 -10.7 59.5 -11.5 58.65 -12.25 57.8 -12.15 56.7 L-10.95 43.9 -13.25 50.55 -13.1 50.1 -12.95 49.1 -15.6 57.05 -16.5 57.75 -18.65 57.9 Q-19.9 57.55 -20.5 56.6 -20.95 55.65 -20.55 54.6 L-15.2 38.6 -25.55 51.2 Q-26.3 52.05 -27.45 52.25 -28.65 52.4 -29.5 51.7 -30.55 51.0 -30.7 49.95 -30.85 48.9 -30.2 47.95 L-16.45 31.2 -20.25 33.6 -19.9 33.2 -36.35 43.65" fill="#d7984e" fill-rule="evenodd" stroke="none"/>
    <path d="M-28.25 42.3 L-29.0 42.3 Q-29.95 42.1 -30.4 41.45 -30.95 40.8 -30.8 39.95 -30.6 39.15 -29.95 38.6 L-19.85 32.2 -29.45 34.95 -31.15 34.85 Q-31.95 34.45 -32.15 33.6 -32.45 32.8 -32.05 32.1 -31.65 31.35 -30.8 31.05 L-20.75 28.25 -25.7 28.6 -25.3 28.5 -31.95 29.0 -32.8 28.6 Q-33.5 28.05 -33.6 27.25 -33.65 26.4 -33.1 25.75 -32.5 25.15 -31.6 25.0 L-18.6 24.0 -23.2 23.25 -22.55 23.2 -30.15 21.95 -30.7 21.45 Q-31.25 20.75 -31.0 19.95 -30.9 19.1 -30.1 18.6 L-28.5 18.3 -17.95 20.0 -23.35 17.95 -21.75 18.2 -28.85 15.45 -29.0 15.15 Q-29.4 14.35 -29.0 13.65 -28.65 12.85 -27.85 12.5 -27.0 12.2 -26.2 12.5 L-21.35 14.35 -24.75 11.05 Q-25.4 10.4 -25.4 9.6 -25.3 8.7 -24.7 8.2 -24.0 7.65 -23.15 7.7 L-22.95 7.7 -22.95 7.5 Q-22.8 6.65 -22.1 6.2 -21.4 5.65 -20.5 5.8 -19.6 5.85 -19.0 6.55 L-13.1 13.7 -17.35 5.45 Q-17.75 4.7 -17.4 4.0 -17.2 3.2 -16.35 2.8 L-14.65 2.7 -14.5 2.75 -14.45 2.65 Q-14.0 1.85 -13.2 1.6 L-11.5 1.7 Q-10.7 2.0 -10.4 2.75 L-5.75 14.9 -6.8 2.05 Q-6.9 1.2 -6.3 0.65 -5.75 -0.05 -4.8 -0.1 -3.9 -0.15 -3.2 0.3 -2.5 0.9 -2.45 1.7 L-2.2 5.0 -1.35 2.25 Q-1.1 1.5 -0.3 1.05 L1.35 0.85 Q2.25 1.1 2.7 1.8 L2.9 2.3 2.7 3.0 2.95 2.5 2.9 3.35 1.5 7.95 3.8 3.55 Q4.15 2.75 4.95 2.55 5.85 2.25 6.6 2.55 7.45 2.95 7.8 3.75 8.05 4.3 7.85 4.85 L4.2 12.1 4.35 11.9 2.7 15.2 10.05 6.7 Q10.65 6.0 11.5 5.9 12.4 5.85 13.1 6.35 13.85 6.85 13.9 7.7 14.05 8.55 13.45 9.2 L6.1 17.65 16.7 10.5 Q17.45 10.0 18.3 10.15 19.2 10.25 19.7 10.95 20.25 11.55 20.1 12.4 19.95 13.2 19.2 13.75 L7.85 21.4 21.05 16.75 Q21.95 16.4 22.75 16.75 23.55 17.05 23.9 17.85 24.2 18.6 23.9 19.45 23.5 20.2 22.6 20.5 L9.6 25.15 23.55 23.75 Q24.45 23.65 25.2 24.15 25.9 24.7 25.9 25.5 26.1 26.35 25.5 27.05 25.0 27.65 24.05 27.8 L14.75 28.7 25.15 29.7 Q26.1 29.7 26.6 30.3 27.25 30.95 27.05 31.8 27.05 32.65 26.3 33.2 25.7 33.7 24.75 33.6 L10.45 32.3 14.35 33.6 14.0 33.6 24.6 37.35 25.15 38.05 Q25.55 38.75 25.2 39.55 24.95 40.35 24.05 40.75 L22.4 40.8 12.4 37.3 17.15 40.1 16.45 39.9 22.1 43.3 22.35 43.9 Q22.55 44.7 22.05 45.4 21.6 46.15 20.65 46.35 19.75 46.5 19.0 46.05 L9.25 40.2 14.15 46.35 Q14.75 47.05 14.55 47.85 14.45 48.7 13.7 49.2 12.95 49.65 12.1 49.55 11.15 49.45 10.65 48.75 L0.1 35.35 1.55 38.25 0.95 37.5 7.8 51.05 7.7 51.6 Q7.4 52.4 6.55 52.75 L4.9 52.8 Q4.0 52.6 3.6 51.8 L-0.15 44.45 0.9 51.85 Q0.95 52.65 0.45 53.3 -0.15 53.95 -1.0 54.05 -1.9 54.15 -2.65 53.65 -3.3 53.15 -3.5 52.3 L-4.7 42.85 -5.6 52.4 Q-5.65 53.25 -6.4 53.8 -7.1 54.4 -7.95 54.3 -8.9 54.25 -9.45 53.6 -10.05 52.95 -10.0 52.1 L-9.05 42.45 -10.8 47.5 -10.7 47.1 -10.55 46.35 -12.6 52.35 -13.25 52.9 -14.9 53.0 Q-15.8 52.75 -16.25 52.05 -16.6 51.3 -16.35 50.5 L-12.3 38.45 -20.05 47.95 Q-20.65 48.6 -21.5 48.75 -22.45 48.85 -23.05 48.35 -23.9 47.8 -24.0 47.0 -24.1 46.2 -23.6 45.5 L-13.2 32.85 -16.1 34.7 -15.8 34.35 -28.25 42.3" fill="#deb07a" fill-rule="evenodd" stroke="none"/>
    <path d="M-19.1 14.35 Q-12.95 8.7 -4.4 8.7 4.15 8.7 10.3 14.35 16.4 20.05 16.4 27.9 16.4 35.8 10.3 41.45 4.15 47.05 -4.4 47.05 -12.95 47.05 -19.1 41.45 -25.2 35.8 -25.2 27.9 -25.2 20.05 -19.1 14.35" fill="#cd7c1e" fill-rule="evenodd" stroke="none"/>
  </g>
</svg>
