<?xml version="1.0" encoding="UTF-8" standalone="no"?>
<svg xmlns:xlink="http://www.w3.org/1999/xlink" height="7.85px" width="31.35px" xmlns="http://www.w3.org/2000/svg">
  <g transform="matrix(1.0, 0.0, 0.0, 1.0, 15.7, 3.45)">
    <path d="M-12.5 -2.45 L12.3 -2.45 12.4 -2.45 Q13.3 -2.4 13.95 -1.6 14.65 -0.7 14.65 0.5 14.65 1.7 13.95 2.55 13.3 3.4 12.3 3.4 L12.05 3.4 -12.5 3.4 Q-13.4 3.3 -14.0 2.5 -14.7 1.7 -14.7 0.5 -14.7 -0.7 -14.0 -1.6 -13.4 -2.4 -12.5 -2.45 Z" fill="none" stroke="#1c1c1c" stroke-linecap="round" stroke-linejoin="round" stroke-width="2.0"/>
    <path d="M-12.5 -2.45 L12.3 -2.45 12.4 -2.45 Q13.3 -2.4 13.95 -1.6 14.65 -0.7 14.65 0.5 14.65 1.7 13.95 2.55 13.3 3.4 12.3 3.4 L12.05 3.4 -12.5 3.4 Q-13.4 3.3 -14.0 2.5 -14.7 1.7 -14.7 0.5 -14.7 -0.7 -14.0 -1.6 -13.4 -2.4 -12.5 -2.45" fill="#9a9a9a" fill-rule="evenodd" stroke="none"/>
    <path d="M13.85 2.7 L-13.8 2.7 -14.0 2.5 Q-14.6 1.8 -14.7 0.8 L14.65 0.8 Q14.55 1.8 13.95 2.55 L13.85 2.7" fill="#6b6b6b" fill-rule="evenodd" stroke="none"/>
    <path d="M11.55 -2.5 Q12.45 0.6 11.45 3.35 L10.5 3.35 Q11.7 0.3 10.4 -3.2 L10.65 -2.5 11.55 -2.5 M8.45 -2.5 Q9.4 0.6 8.35 3.35 L7.45 3.35 Q8.65 0.3 7.3 -3.2 L7.55 -2.5 8.45 -2.5 M-6.8 -2.5 L-6.5 -3.35 Q-7.95 0.25 -6.75 3.35 L-7.65 3.35 Q-8.65 0.6 -7.75 -2.5 L-6.8 -2.5 M-9.9 -2.5 L-9.6 -3.35 Q-11.05 0.25 -9.8 3.35 L-10.75 3.35 Q-11.75 0.6 -10.8 -2.5 L-9.9 -2.5" fill="#383838" fill-rule="evenodd" stroke="none"/>
  </g>
</svg>
