<?xml version="1.0" encoding="UTF-8" standalone="no"?>
<svg xmlns:xlink="http://www.w3.org/1999/xlink" height="31.2px" width="23.2px" xmlns="http://www.w3.org/2000/svg">
  <g transform="matrix(1.0, 0.0, 0.0, 1.0, 11.6, 15.6)">
    <path d="M-1.4 10.5 L-1.3 10.6 -1.55 10.5 -1.4 10.5" fill="#cc0000" fill-rule="evenodd" stroke="none"/>
    <path d="M10.6 -2.95 Q10.6 -0.3 9.05 3.2 7.85 6.1 5.95 8.7 3.25 12.35 0.9 12.7 L1.85 14.45 Q-0.55 15.05 -2.1 13.15 L-0.6 12.6 Q-2.85 12.0 -5.4 9.0 -7.85 6.15 -8.9 3.55 -10.6 -0.3 -10.6 -2.95 L-10.6 -3.05 Q-10.55 -7.85 -7.55 -11.2 -4.35 -14.6 0.0 -14.6 4.4 -14.6 7.5 -11.2 10.6 -7.85 10.6 -3.05 L10.6 -2.95 Z" fill="none" stroke="#5b2e03" stroke-linecap="round" stroke-linejoin="round" stroke-width="2.0"/>
    <path d="M0.55 12.1 L1.85 14.45 Q-0.55 15.05 -2.1 13.15 L0.55 12.1" fill="#7b4a1b" fill-rule="evenodd" stroke="none"/>
    <path d="M10.6 -3.05 L10.6 -2.95 Q10.6 -0.3 9.05 3.2 7.85 6.1 5.95 8.7 3.0 12.7 0.4 12.7 -2.25 12.7 -5.4 9.0 -7.85 6.15 -8.9 3.55 -10.6 -0.3 -10.6 -2.95 L-10.6 -3.05 Q-10.55 -7.85 -7.55 -11.2 -4.35 -14.6 0.0 -14.6 4.4 -14.6 7.5 -11.2 10.6 -7.85 10.6 -3.05" fill="#bd6918" fill-rule="evenodd" stroke="none"/>
    <path d="M0.65 -13.15 Q3.95 -13.15 6.25 -10.45 8.55 -7.8 8.55 -4.05 L8.55 -3.95 Q8.55 -1.85 7.4 0.9 L6.4 3.1 Q7.15 0.65 7.15 -1.35 L7.15 -1.45 Q7.15 -6.55 4.1 -10.1 2.25 -12.25 -0.05 -13.1 L0.65 -13.15" fill="#ffffff" fill-opacity="0.29803923" fill-rule="evenodd" stroke="none"/>
    <path d="M1.7 11.1 L3.2 10.8 Q1.7 12.1 0.3 12.1 -2.05 12.1 -4.85 8.8 -7.05 6.25 -8.0 3.95 -9.5 0.5 -9.5 -1.85 L-9.5 -1.95 -9.35 -3.4 Q-9.1 -1.15 -7.75 1.8 -6.7 4.5 -4.25 7.4 -1.0 11.1 1.7 11.1" fill="#7b4a1b" fill-rule="evenodd" stroke="none"/>
    <path d="M10.6 -3.05 L10.6 -2.95 10.6 -2.7 Q-0.2 0.0 -10.6 -2.6 L-10.6 -2.95 -10.6 -3.05 -10.4 -5.3 -10.35 -5.55 -10.3 -5.65 Q-0.2 -2.95 10.35 -5.75 L10.35 -5.65 10.5 -4.7 10.6 -3.05 M9.85 -7.25 Q-0.2 -4.7 -9.9 -7.1 L-9.15 -8.95 -8.55 -9.85 -8.65 -9.9 Q-0.25 -8.0 8.5 -10.0 L9.05 -9.1 9.85 -7.25 M-7.9 5.5 Q0.05 7.6 7.9 5.6 L7.15 6.95 5.95 8.7 5.6 9.2 Q0.15 10.05 -5.25 9.2 L-5.4 9.0 -7.1 6.8 -7.9 5.5" fill="#ffffff" fill-rule="evenodd" stroke="none"/>
    <path d="M10.6 -3.05 L10.6 -2.95 10.6 -2.7 Q-0.2 0.0 -10.6 -2.6 L-10.6 -2.95 -10.6 -3.05 -10.4 -5.3 -10.35 -5.55 -10.3 -5.65 Q-0.2 -2.95 10.35 -5.75 L10.35 -5.65 10.5 -4.7 10.6 -3.05 M9.85 -7.25 Q-0.2 -4.7 -9.9 -7.1 L-9.15 -8.95 -8.55 -9.85 -8.65 -9.9 Q-0.25 -8.0 8.5 -10.0 L9.05 -9.1 9.85 -7.25 M-7.9 5.5 Q0.05 7.6 7.9 5.6 L7.15 6.95 5.95 8.7 5.6 9.2 Q0.15 10.05 -5.25 9.2 L-5.4 9.0 -7.1 6.8 -7.9 5.5" fill="none" stroke="#5b2e03" stroke-linecap="round" stroke-linejoin="round" stroke-width="1.0"/>
    <path d="M9.85 -7.25 Q-0.2 -4.7 -9.9 -7.1 -9.45 -8.6 -8.55 -9.85 L-8.65 -9.9 Q-0.25 -8.0 8.5 -10.0 9.3 -8.9 9.85 -7.25" fill="#bd6918" fill-rule="evenodd" stroke="none"/>
    <path d="M5.6 9.2 Q0.15 10.05 -5.25 9.2 L-5.4 9.0 Q-6.95 7.2 -7.9 5.5 0.05 7.6 7.9 5.6 L5.95 8.7 5.6 9.2" fill="#bd6918" fill-rule="evenodd" stroke="none"/>
    <path d="M10.6 -2.95 L10.6 -2.7 Q-0.2 0.0 -10.6 -2.6 L-10.6 -2.95 -10.6 -3.05 -10.35 -5.55 Q-0.2 -2.9 10.4 -5.7 L10.35 -5.65 10.6 -3.05 10.6 -2.95" fill="#bd6918" fill-rule="evenodd" stroke="none"/>
    <path d="M7.35 -6.7 Q6.75 -8.2 5.75 -9.45 L7.9 -9.85 Q8.8 -8.6 9.3 -7.1 L7.35 -6.7" fill="#ffffff" fill-opacity="0.29803923" fill-rule="evenodd" stroke="none"/>
    <path d="M9.05 -9.1 Q-0.2 -7.3 -9.15 -8.95 L-8.55 -9.85 -8.65 -9.9 Q-0.25 -8.0 8.5 -10.0 L9.05 -9.1" fill="#db9a5a" fill-rule="evenodd" stroke="none"/>
    <path d="M-1.3 9.6 L-3.65 9.4 -4.2 8.8 -6.35 5.9 -4.55 6.2 -3.6 7.4 -1.3 9.6" fill="#7b4a1b" fill-rule="evenodd" stroke="none"/>
    <path d="M7.15 6.95 L0.45 7.65 -7.1 6.8 -7.9 5.5 Q0.05 7.6 7.9 5.6 L7.15 6.95" fill="#db9a5a" fill-rule="evenodd" stroke="none"/>
    <path d="M9.55 -5.5 L9.5 -5.85 9.65 -4.05 9.65 -3.95 9.55 -2.45 8.25 -2.2 7.8 -5.1 9.55 -5.5" fill="#ffffff" fill-opacity="0.29803923" fill-rule="evenodd" stroke="none"/>
    <path d="M10.5 -4.7 Q-0.15 -2.35 -10.5 -4.5 L-10.3 -5.65 Q-0.2 -2.95 10.35 -5.75 L10.5 -4.7" fill="#db9a5a" fill-rule="evenodd" stroke="none"/>
    <path d="M10.4 -0.9 Q10.05 0.95 9.05 3.2 L8.85 3.7 8.65 4.15 8.4 3.85 Q7.85 3.0 7.85 1.8 L7.85 1.45 7.85 1.1 Q7.85 -0.1 8.4 -0.95 8.95 -1.75 9.8 -1.75 L10.5 -1.55 10.4 -0.9 M4.9 -1.05 Q5.7 -1.05 6.25 -0.25 6.85 0.6 6.85 1.8 L6.85 2.15 6.85 2.5 Q6.85 3.7 6.25 4.55 5.7 5.4 4.9 5.4 4.05 5.4 3.5 4.55 2.95 3.7 2.95 2.5 L2.95 2.15 2.95 1.8 Q2.95 0.6 3.5 -0.25 4.05 -1.05 4.9 -1.05 M1.95 2.15 L1.95 2.5 1.95 2.85 Q1.95 4.05 1.35 4.9 0.8 5.75 0.0 5.75 -0.85 5.75 -1.4 4.9 -1.95 4.05 -1.95 2.85 L-1.95 2.5 -1.95 2.15 Q-1.95 0.95 -1.4 0.1 -0.85 -0.7 0.0 -0.7 0.8 -0.7 1.35 0.1 1.95 0.95 1.95 2.15 M-8.1 -0.95 Q-7.5 -0.1 -7.5 1.1 L-7.5 1.45 -7.5 1.8 Q-7.5 3.0 -8.1 3.85 L-9.0 4.65 -8.55 4.35 -8.9 3.6 -8.9 3.55 -8.95 3.4 -10.1 0.2 -10.45 -1.35 Q-10.05 -1.75 -9.45 -1.75 -8.65 -1.75 -8.1 -0.95 M-4.9 -1.05 Q-4.1 -1.05 -3.55 -0.25 -2.95 0.6 -2.95 1.8 L-2.95 2.15 -2.95 2.5 Q-2.95 3.7 -3.55 4.55 -4.1 5.4 -4.9 5.4 -5.75 5.4 -6.3 4.55 -6.85 3.7 -6.85 2.5 L-6.85 2.15 -6.85 1.8 Q-6.85 0.6 -6.3 -0.25 -5.75 -1.05 -4.9 -1.05" fill="#ffffff" fill-rule="evenodd" stroke="none"/>
    <path d="M10.4 -0.9 Q10.05 0.95 9.05 3.2 L8.85 3.7 8.65 4.15 8.4 3.85 Q7.85 3.0 7.85 1.8 L7.85 1.45 7.85 1.1 Q7.85 -0.1 8.4 -0.95 8.95 -1.75 9.8 -1.75 L10.5 -1.55 10.4 -0.9 M4.9 -1.05 Q5.7 -1.05 6.25 -0.25 6.85 0.6 6.85 1.8 L6.85 2.15 6.85 2.5 Q6.85 3.7 6.25 4.55 5.7 5.4 4.9 5.4 4.05 5.4 3.5 4.55 2.95 3.7 2.95 2.5 L2.95 2.15 2.95 1.8 Q2.95 0.6 3.5 -0.25 4.05 -1.05 4.9 -1.05 M1.95 2.15 L1.95 2.5 1.95 2.85 Q1.95 4.05 1.35 4.9 0.8 5.75 0.0 5.75 -0.85 5.75 -1.4 4.9 -1.95 4.05 -1.95 2.85 L-1.95 2.5 -1.95 2.15 Q-1.95 0.95 -1.4 0.1 -0.85 -0.7 0.0 -0.7 0.8 -0.7 1.35 0.1 1.95 0.95 1.95 2.15 M-8.1 -0.95 Q-7.5 -0.1 -7.5 1.1 L-7.5 1.45 -7.5 1.8 Q-7.5 3.0 -8.1 3.85 L-9.0 4.65 -8.55 4.35 -8.9 3.6 -8.9 3.55 -8.95 3.4 -10.1 0.2 -10.45 -1.35 Q-10.05 -1.75 -9.45 -1.75 -8.65 -1.75 -8.1 -0.95 M-4.9 -1.05 Q-4.1 -1.05 -3.55 -0.25 -2.95 0.6 -2.95 1.8 L-2.95 2.15 -2.95 2.5 Q-2.95 3.7 -3.55 4.55 -4.1 5.4 -4.9 5.4 -5.75 5.4 -6.3 4.55 -6.85 3.7 -6.85 2.5 L-6.85 2.15 -6.85 1.8 Q-6.85 0.6 -6.3 -0.25 -5.75 -1.05 -4.9 -1.05" fill="none" stroke="#5b2e03" stroke-linecap="round" stroke-linejoin="round" stroke-width="1.0"/>
    <path d="M10.5 -1.55 Q10.2 0.6 9.05 3.2 L8.85 3.7 8.4 3.15 Q7.85 2.3 7.85 1.1 7.85 -0.1 8.4 -0.95 8.95 -1.75 9.8 -1.75 L10.5 -1.55 M6.25 -0.25 Q6.85 0.6 6.85 1.8 6.85 3.0 6.25 3.85 5.7 4.7 4.9 4.7 4.05 4.7 3.5 3.85 2.95 3.0 2.95 1.8 2.95 0.6 3.5 -0.25 4.05 -1.05 4.9 -1.05 5.7 -1.05 6.25 -0.25 M1.95 2.15 Q1.95 3.35 1.35 4.2 0.8 5.05 0.0 5.05 -0.85 5.05 -1.4 4.2 -1.95 3.35 -1.95 2.15 -1.95 0.95 -1.4 0.1 -0.85 -0.7 0.0 -0.7 0.8 -0.7 1.35 0.1 1.95 0.95 1.95 2.15 M-9.45 -1.75 Q-8.65 -1.75 -8.1 -0.95 -7.5 -0.1 -7.5 1.1 -7.5 2.3 -8.1 3.15 L-8.75 3.85 -8.9 3.55 Q-10.15 0.75 -10.45 -1.35 -10.05 -1.75 -9.45 -1.75 M-3.55 -0.25 Q-2.95 0.6 -2.95 1.8 -2.95 3.0 -3.55 3.85 -4.1 4.7 -4.9 4.7 -5.75 4.7 -6.3 3.85 -6.85 3.0 -6.85 1.8 -6.85 0.6 -6.3 -0.25 -5.75 -1.05 -4.9 -1.05 -4.1 -1.05 -3.55 -0.25" fill="#db9a5a" fill-rule="evenodd" stroke="none"/>
    <path d="M9.8 -1.05 L10.4 -0.9 Q10.05 0.95 9.05 3.2 L8.65 4.15 8.4 3.85 Q7.85 3.0 7.85 1.8 7.85 0.6 8.4 -0.25 8.95 -1.05 9.8 -1.05 M6.85 2.5 Q6.85 3.7 6.25 4.55 5.7 5.4 4.9 5.4 4.05 5.4 3.5 4.55 2.95 3.7 2.95 2.5 2.95 1.3 3.5 0.45 4.05 -0.35 4.9 -0.35 5.7 -0.35 6.25 0.45 6.85 1.3 6.85 2.5 M1.35 0.8 Q1.95 1.65 1.95 2.85 1.95 4.05 1.35 4.9 0.8 5.75 0.0 5.75 -0.85 5.75 -1.4 4.9 -1.95 4.05 -1.95 2.85 -1.95 1.65 -1.4 0.8 -0.85 0.0 0.0 0.0 0.8 0.0 1.35 0.8 M-9.45 -1.05 Q-8.65 -1.05 -8.1 -0.25 -7.5 0.6 -7.5 1.8 -7.5 3.0 -8.1 3.85 L-8.55 4.35 -8.9 3.55 -10.35 -0.75 -9.45 -1.05 M-2.95 2.5 Q-2.95 3.7 -3.55 4.55 -4.1 5.4 -4.9 5.4 -5.75 5.4 -6.3 4.55 -6.85 3.7 -6.85 2.5 -6.85 1.3 -6.3 0.45 -5.75 -0.35 -4.9 -0.35 -4.1 -0.35 -3.55 0.45 -2.95 1.3 -2.95 2.5" fill="#bd6918" fill-rule="evenodd" stroke="none"/>
    <path d="M-9.45 -1.05 L-9.3 -1.05 -8.2 1.8 -7.65 3.0 -8.1 3.85 -8.35 4.2 -8.45 3.95 Q-9.7 1.1 -9.9 -1.0 L-9.45 -1.05" fill="#7b4a1b" fill-rule="evenodd" stroke="none"/>
    <path d="M3.95 -0.05 L3.9 -0.05 Q1.95 0.55 0.65 1.7 L-0.1 2.3 -0.6 2.65 Q-1.45 3.0 -3.05 1.95 L-3.2 1.8 -3.75 1.4 -3.8 1.4 -4.55 0.7 -5.25 -0.45 -5.35 -0.7 Q-5.45 -1.75 -4.75 -2.5 -3.95 -3.4 -3.05 -2.9 -2.75 -2.75 -2.35 -2.9 -1.8 -3.1 -1.1 -3.9 L-0.35 -4.55 1.2 -5.45 Q2.1 -5.6 2.1 -4.6 L2.1 -4.45 Q2.15 -3.7 3.05 -4.15 4.15 -4.7 3.65 -3.15 L3.05 -1.35 Q3.15 -1.25 4.05 -1.85 5.05 -2.3 5.3 -1.3 5.5 -0.55 3.95 -0.05" fill="#5b2e03" fill-rule="evenodd" stroke="none"/>
    <path d="M-0.6 2.65 L-0.1 2.3 0.65 1.7 Q1.95 0.55 3.9 -0.05 L3.95 -0.05 Q4.2 0.7 3.65 1.4 L3.5 1.6 Q2.5 2.9 2.65 4.0 2.8 5.4 3.9 4.7 5.65 3.65 6.8 4.1 8.1 4.55 7.35 5.3 6.45 6.15 6.8 6.5 L7.5 6.7 7.1 7.3 5.95 9.0 Q4.75 10.7 3.55 11.7 L2.1 12.6 0.4 13.0 -1.65 12.5 -1.35 12.6 -3.15 11.55 -3.2 11.55 -4.6 10.3 -4.55 9.1 Q-3.25 9.2 -2.5 8.55 -2.05 8.15 -1.85 7.45 L-1.8 6.8 Q-0.95 7.0 -0.55 6.45 -0.05 5.8 -0.4 4.4 L-0.6 2.65 M-8.2 -6.95 L-8.9 -6.9 Q-9.5 -6.9 -9.95 -7.2 -9.25 -9.35 -7.65 -11.15 L-7.2 -11.55 Q-4.6 -14.1 -1.25 -14.5 -1.2 -13.55 -2.0 -12.7 -2.35 -12.35 -3.55 -12.35 -4.45 -12.15 -4.45 -11.35 L-4.45 -11.25 Q-4.35 -10.6 -3.2 -10.55 -1.95 -10.55 -2.0 -9.95 -2.2 -8.7 -3.05 -7.5 L-3.65 -6.9 Q-4.35 -6.4 -5.1 -6.9 L-6.05 -8.05 -6.35 -8.75 Q-6.8 -9.65 -7.3 -9.5 L-7.55 -8.05 -7.65 -7.6 Q-7.8 -7.15 -8.2 -6.95" fill="#ffffff" fill-opacity="0.49803922" fill-rule="evenodd" stroke="none"/>
    <path d="M7.65 -11.05 Q10.05 -8.45 10.55 -4.95 L10.7 -2.9 10.7 -2.75 Q10.7 -1.15 10.1 0.85 L9.1 3.45 8.95 3.85 8.7 4.5 Q7.95 4.15 7.9 3.65 7.8 2.7 6.95 1.95 L6.45 1.35 6.0 0.25 Q5.8 -1.2 6.5 -1.3 7.15 -1.3 8.35 -0.4 9.4 0.45 9.8 -2.35 L9.85 -4.85 Q9.65 -5.85 9.0 -6.45 7.75 -7.6 6.7 -7.15 5.65 -6.7 5.65 -5.35 5.65 -4.7 5.35 -4.5 L5.3 -4.45 4.65 -4.45 4.55 -4.5 Q3.5 -4.8 2.15 -6.2 1.25 -7.15 2.55 -8.05 3.85 -8.95 3.2 -9.65 2.5 -10.35 1.95 -10.05 1.15 -9.65 0.15 -10.45 L-0.35 -11.0 Q-0.95 -12.05 -0.5 -14.25 L-0.35 -14.6 0.0 -14.6 Q4.45 -14.6 7.55 -11.15 L7.65 -11.05 M-2.35 -2.9 Q-2.75 -2.75 -3.05 -2.9 -3.95 -3.4 -4.75 -2.5 -5.45 -1.75 -5.35 -0.7 L-5.25 -0.45 -5.35 0.0 Q-5.3 0.4 -4.55 0.7 L-3.8 1.4 -3.75 1.4 -3.2 1.8 -3.05 1.95 -2.65 2.85 Q-1.85 5.3 -1.8 6.3 L-1.8 6.8 -1.85 7.45 Q-2.05 8.15 -2.5 8.55 -3.25 9.2 -4.55 9.1 L-5.6 8.9 -5.8 8.85 -7.2 7.0 -7.2 6.7 Q-7.3 6.3 -7.85 6.0 L-9.0 3.8 Q-9.95 1.75 -10.35 0.1 -10.75 -1.45 -10.75 -2.75 L-10.75 -2.9 -10.4 -5.8 -10.1 -6.75 -9.45 -6.5 Q-8.8 -6.3 -8.2 -6.95 -7.8 -7.15 -7.65 -7.6 -7.0 -8.2 -6.05 -8.05 L-5.1 -6.9 Q-4.35 -6.4 -3.65 -6.9 L-3.15 -6.3 -2.35 -4.75 -2.15 -3.6 Q-2.1 -3.3 -2.35 -2.9" fill="#000000" fill-opacity="0.2509804" fill-rule="evenodd" stroke="none"/>
  </g>
</svg>
