<?xml version="1.0" encoding="UTF-8" standalone="no"?>
<svg xmlns:xlink="http://www.w3.org/1999/xlink" height="11.2px" width="14.7px" xmlns="http://www.w3.org/2000/svg">
  <g transform="matrix(1.0, 0.0, 0.0, 1.0, 7.35, 5.6)">
    <path d="M3.0 0.55 L6.35 2.8 2.1 4.6 -2.4 4.1 -6.35 1.3 -5.1 -4.6 6.0 -3.6 3.0 0.55" fill="#ffffff" fill-rule="evenodd" stroke="none"/>
    <path d="M3.0 0.55 L6.0 -3.6 -5.1 -4.6 -6.35 1.3 -2.4 4.1 2.1 4.6 6.35 2.8 3.0 0.55 Z" fill="none" stroke="#416409" stroke-linecap="round" stroke-linejoin="round" stroke-width="2.0"/>
    <path d="M3.0 0.55 L6.35 2.8 2.1 4.6 -2.4 4.1 -6.35 1.3 -5.1 -4.6 6.0 -3.6 3.0 0.55" fill="#9bd919" fill-rule="evenodd" stroke="none"/>
    <path d="M4.4 -0.55 L3.85 -0.6 3.0 0.55 6.35 2.8 2.1 4.6 -2.4 4.1 -6.35 1.3 -5.45 -2.9 -3.4 -1.25 0.1 0.05 2.6 -0.75 4.4 -0.55" fill="#669f0b" fill-rule="evenodd" stroke="none"/>
  </g>
</svg>
