<?xml version="1.0" encoding="UTF-8" standalone="no"?>
<svg xmlns:xlink="http://www.w3.org/1999/xlink" height="20.55px" width="31.65px" xmlns="http://www.w3.org/2000/svg">
  <g transform="matrix(1.0, 0.0, 0.0, 1.0, 15.8, 10.3)">
    <path d="M-7.25 8.7 Q-8.75 10.2 -10.85 10.25 -12.9 10.15 -14.35 8.7 -15.8 7.2 -15.8 5.15 -15.8 3.05 -14.3 1.6 4.3 -16.75 14.2 -6.75 15.7 -5.4 15.85 -3.35 16.0 -1.25 14.7 0.35 13.3 1.9 11.3 2.05 9.15 2.15 7.6 0.75 3.3 -1.7 -7.25 8.7" fill="#00bdfc" fill-rule="evenodd" stroke="none"/>
    <path d="M13.8 1.15 L13.0 1.25 Q10.6 1.4 8.85 -0.2 4.0 -3.0 -8.05 8.85 L-10.0 10.2 Q-8.45 9.9 -7.35 8.75 3.25 -1.65 7.55 0.8 9.15 2.15 11.2 2.1 12.7 1.95 13.8 1.15" fill="#2579c4" fill-rule="evenodd" stroke="none"/>
    <path d="M-4.7 -6.4 L-3.75 -7.0 Q1.65 -3.1 0.8 2.7 L0.85 2.0 -0.25 2.7 Q0.6 -2.8 -4.7 -6.4 M7.0 0.45 Q10.3 -0.75 11.35 -3.25 12.2 -5.65 11.05 -9.15 L12.35 -8.35 Q13.15 -5.2 12.3 -2.9 11.1 0.25 6.95 1.55 L8.1 1.1 7.6 0.7 7.0 0.45 M5.75 0.25 L4.75 0.35 Q6.05 -6.3 0.8 -9.25 L2.05 -9.65 Q7.0 -6.45 5.75 0.25" fill="#2579c4" fill-rule="evenodd" stroke="none"/>
    <path d="M-9.55 -2.75 L-8.6 -3.5 Q-3.65 -1.5 -2.8 4.65 L-3.75 5.45 Q-4.45 -1.1 -9.95 -2.85 L-9.55 -2.75 M-7.35 8.8 L-8.3 9.55 -8.3 9.7 Q-9.0 4.25 -14.55 1.9 L-14.3 1.6 -13.75 1.05 Q-8.3 3.5 -7.3 8.8 L-7.35 8.8" fill="#2579c4" fill-rule="evenodd" stroke="none"/>
    <path d="M-7.35 8.8 L-7.3 8.8 -7.2 9.45 -7.35 8.8" fill="#2579c4" fill-rule="evenodd" stroke="none"/>
  </g>
</svg>
