<?xml version="1.0" encoding="UTF-8" standalone="no"?>
<svg xmlns:xlink="http://www.w3.org/1999/xlink" height="17.75px" width="32.75px" xmlns="http://www.w3.org/2000/svg">
  <g transform="matrix(1.0, 0.0, 0.0, 1.0, 16.35, 8.9)">
    <path d="M8.5 7.85 Q10.2 9.1 12.25 8.75 14.3 8.4 15.45 6.75 16.65 5.0 16.3 2.95 16.0 0.95 14.25 -0.3 -7.05 -15.4 -15.2 -3.95 -16.5 -2.35 -16.3 -0.35 -16.1 1.75 -14.55 3.1 -12.95 4.4 -10.85 4.25 -8.8 4.0 -7.45 2.4 -3.6 -0.7 8.5 7.85" fill="#00bdfc" fill-rule="evenodd" stroke="none"/>
    <path d="M-13.55 3.75 L-12.75 3.7 Q-10.4 3.5 -8.9 1.65 -4.55 -1.9 9.25 7.85 10.25 8.55 11.35 8.85 9.8 8.8 8.5 7.85 -3.6 -0.7 -7.45 2.4 -8.8 4.0 -10.85 4.25 -12.35 4.35 -13.55 3.75" fill="#2579c4" fill-rule="evenodd" stroke="none"/>
    <path d="M0.95 -7.65 L2.45 -7.05 2.55 -7.05 Q-0.35 -6.55 -1.25 -3.15 -2.15 0.15 -0.5 2.6 L-1.9 2.1 Q-3.0 -0.35 -2.2 -3.4 -1.35 -6.6 0.95 -7.65 M-3.35 -8.7 Q-6.8 -8.0 -7.1 -4.5 -7.4 -1.1 -4.75 1.6 L-6.0 1.7 Q-8.45 -1.15 -8.1 -4.6 -7.85 -7.6 -5.7 -8.9 L-3.35 -8.7 M-11.5 -7.4 Q-13.75 -4.45 -12.75 -0.85 L-12.75 -0.9 Q-11.7 2.85 -7.85 2.85 -8.45 3.4 -9.15 3.8 -12.6 3.2 -13.7 -0.6 -14.5 -3.4 -13.5 -5.9 L-11.5 -7.4" fill="#2579c4" fill-rule="evenodd" stroke="none"/>
    <path d="M0.9 -5.45 L0.9 -5.5 0.95 -5.5 0.9 -5.45 M8.55 -4.0 Q5.75 -3.85 4.45 -0.95 3.15 1.9 4.25 5.05 L2.9 4.3 Q2.15 1.3 3.45 -1.45 4.65 -4.2 7.05 -4.85 L8.55 -4.0 M14.25 -0.3 L14.4 -0.15 Q11.8 -0.2 9.95 2.5 8.15 5.15 8.5 7.85 L7.4 7.1 Q7.35 4.45 9.05 1.95 10.8 -0.6 13.05 -1.15 L14.25 -0.3" fill="#2579c4" fill-rule="evenodd" stroke="none"/>
  </g>
</svg>
