<?xml version="1.0" encoding="UTF-8" standalone="no"?>
<svg xmlns:xlink="http://www.w3.org/1999/xlink" height="19.05px" width="35.5px" xmlns="http://www.w3.org/2000/svg">
  <g transform="matrix(1.0, 0.0, 0.0, 1.0, -21.8, 1.2)">
    <path d="M40.0 -1.15 L39.9 -1.15 41.7 -1.0 Q42.6 -0.8 43.3 -0.25 L56.4 10.6 56.45 10.6 Q57.05 11.2 57.25 11.9 L57.25 12.0 Q57.45 12.75 57.0 13.5 L56.75 14.05 56.7 14.15 56.45 14.6 55.75 15.9 55.7 16.05 Q55.3 16.75 54.4 17.25 L54.35 17.35 52.15 17.8 26.8 17.85 25.0 17.5 24.95 17.5 Q24.05 17.1 23.6 16.55 L22.25 14.9 22.25 14.85 Q21.75 14.15 21.8 13.35 21.9 12.5 22.65 11.85 L22.6 11.85 35.35 0.1 35.4 0.1 Q36.25 -0.75 37.75 -0.9 L37.8 -0.9 40.0 -1.15 M55.15 11.4 L42.05 0.6 41.2 0.15 40.2 0.1 38.0 0.3 Q37.2 0.4 36.7 0.85 L23.95 12.65 Q23.55 13.0 23.5 13.45 23.45 13.9 23.75 14.3 L25.05 15.9 25.8 16.45 26.8 16.6 52.15 16.6 53.4 16.3 54.2 15.6 54.95 14.05 55.1 13.8 55.45 13.05 55.65 12.15 55.15 11.4" fill="#ffffff" fill-rule="evenodd" stroke="none"/>
    <path d="M55.15 11.4 L55.65 12.15 55.45 13.05 55.1 13.8 54.95 14.05 54.2 15.6 53.4 16.3 52.15 16.6 26.8 16.6 25.8 16.45 25.05 15.9 23.75 14.3 Q23.45 13.9 23.5 13.45 23.55 13.0 23.95 12.65 L36.7 0.85 Q37.2 0.4 38.0 0.3 L40.2 0.1 41.2 0.15 42.05 0.6 55.15 11.4 M50.0 15.05 L52.15 15.05 52.95 13.6 53.1 13.35 53.55 12.4 40.6 1.7 40.5 1.6 38.3 1.8 37.4 2.65 25.6 13.6 26.8 15.1 50.0 15.05" fill="#4f0c00" fill-rule="evenodd" stroke="none"/>
    <path d="M37.4 2.65 L38.3 1.8 40.5 1.6 40.6 1.7 53.55 12.4 53.1 13.35 52.95 13.6 52.15 15.05 50.0 15.05 50.4 14.35 50.8 13.6 50.9 13.4 50.8 13.35 39.0 3.6 38.75 3.35 37.8 2.55 37.4 2.65" fill="#ff6523" fill-rule="evenodd" stroke="none"/>
    <path d="M38.75 3.35 L39.0 3.6 50.8 13.35 50.9 13.4 50.8 13.6 30.55 13.6 30.45 13.55 29.55 12.4 29.35 12.1 38.75 3.35 M42.05 9.15 L41.95 8.75 41.0 8.15 40.05 8.15 Q37.95 8.35 36.9 9.3 36.15 10.0 36.15 10.65 L36.2 11.1 Q36.25 11.4 36.75 11.5 L41.55 11.5 44.6 11.1 45.3 10.65 Q45.3 9.45 42.35 7.4 39.2 5.2 37.5 6.85 L34.0 9.6 Q31.95 11.2 31.95 12.3 L32.45 12.75 45.0 12.75 46.35 12.65 45.1 12.5 45.0 12.55 32.55 12.55 Q32.25 12.45 32.25 12.1 32.25 11.1 34.85 9.0 37.25 7.0 38.85 6.4 L39.65 6.4 Q40.9 6.55 43.0 8.3 45.05 9.95 45.05 10.65 L44.35 10.85 41.55 11.3 36.8 11.3 Q36.4 11.05 36.4 10.65 36.5 10.05 37.05 9.45 38.1 8.35 40.05 8.35 L40.95 8.4 Q41.75 8.6 41.75 9.65 41.2 10.6 39.25 10.4 38.95 10.35 38.95 10.0 L39.35 9.55 39.95 9.5 39.95 9.55 39.9 9.85 40.1 9.85 40.2 9.8 40.1 9.4 39.35 9.35 38.8 9.65 38.75 10.05 38.75 10.35 39.85 10.6 Q42.05 10.6 42.05 9.15" fill="#d24814" fill-rule="evenodd" stroke="none"/>
    <path d="M42.05 9.15 Q42.05 10.6 39.85 10.6 L38.75 10.35 38.75 10.05 38.8 9.65 39.35 9.35 40.1 9.4 40.2 9.8 40.1 9.85 39.9 9.85 39.95 9.55 39.95 9.5 39.35 9.55 38.95 10.0 Q38.95 10.35 39.25 10.4 41.2 10.6 41.75 9.65 41.75 8.6 40.95 8.4 L40.05 8.35 Q38.1 8.35 37.05 9.45 36.5 10.05 36.4 10.65 36.4 11.05 36.8 11.3 L41.55 11.3 44.35 10.85 45.05 10.65 Q45.05 9.95 43.0 8.3 40.9 6.55 39.65 6.4 L38.85 6.4 Q37.25 7.0 34.85 9.0 32.25 11.1 32.25 12.1 32.25 12.45 32.55 12.55 L45.0 12.55 45.1 12.5 46.35 12.65 45.0 12.75 32.45 12.75 31.95 12.3 Q31.95 11.2 34.0 9.6 L37.5 6.85 Q39.2 5.2 42.35 7.4 45.3 9.45 45.3 10.65 L44.6 11.1 41.55 11.5 36.75 11.5 Q36.25 11.4 36.2 11.1 L36.15 10.65 Q36.15 10.0 36.9 9.3 37.95 8.35 40.05 8.15 L41.0 8.15 41.95 8.75 42.05 9.15" fill="#9c2f05" fill-rule="evenodd" stroke="none"/>
    <path d="M37.4 2.65 L37.8 2.55 38.75 3.35 29.35 12.1 29.55 12.4 30.45 13.55 30.55 13.6 50.8 13.6 50.4 14.35 50.0 15.05 26.8 15.1 25.6 13.6 37.4 2.65" fill="#b43b0a" fill-rule="evenodd" stroke="none"/>
  </g>
</svg>
