<?xml version="1.0" encoding="UTF-8" standalone="no"?>
<svg xmlns:xlink="http://www.w3.org/1999/xlink" height="19.05px" width="35.5px" xmlns="http://www.w3.org/2000/svg">
  <g transform="matrix(1.0, 0.0, 0.0, 1.0, -21.8, 1.25)">
    <path d="M24.75 -0.75 L26.95 -1.2 52.3 -1.25 54.1 -0.9 54.15 -0.9 55.5 0.05 56.85 1.7 56.85 1.75 Q57.35 2.45 57.3 3.25 57.2 4.1 56.45 4.75 L56.5 4.75 43.75 16.5 43.7 16.5 Q42.85 17.35 41.35 17.5 L41.3 17.5 39.1 17.75 39.2 17.75 37.4 17.6 Q36.5 17.4 35.8 16.85 L22.7 6.0 22.65 6.0 Q22.05 5.4 21.85 4.7 L21.85 4.6 Q21.65 3.85 22.1 3.1 L22.35 2.55 22.4 2.45 22.65 2.0 23.35 0.7 23.4 0.55 Q23.8 -0.15 24.7 -0.65 L24.75 -0.75 M54.05 0.7 L53.3 0.15 52.3 0.0 26.95 0.0 Q26.25 0.0 25.7 0.3 L24.9 1.0 24.15 2.55 24.0 2.8 23.65 3.55 Q23.4 4.0 23.45 4.45 L23.95 5.2 37.05 16.0 37.9 16.45 38.9 16.5 41.1 16.3 Q41.9 16.2 42.4 15.75 L55.15 3.95 55.6 3.15 55.35 2.3 54.05 0.7" fill="#ffffff" fill-rule="evenodd" stroke="none"/>
    <path d="M29.1 1.55 L52.3 1.5 53.5 3.0 41.7 13.95 41.3 14.05 40.35 13.25 49.75 4.5 49.55 4.2 48.65 3.05 48.55 3.0 28.3 3.0 28.7 2.25 29.1 1.55" fill="#ff6523" fill-rule="evenodd" stroke="none"/>
    <path d="M54.05 0.7 L55.35 2.3 55.6 3.15 55.15 3.95 42.4 15.75 Q41.9 16.2 41.1 16.3 L38.9 16.5 37.9 16.45 37.05 16.0 23.95 5.2 23.45 4.45 Q23.4 4.0 23.65 3.55 L24.0 2.8 24.15 2.55 24.9 1.0 25.7 0.3 Q26.25 0.0 26.95 0.0 L52.3 0.0 53.3 0.15 54.05 0.7 M41.7 13.95 L53.5 3.0 52.3 1.5 29.1 1.55 26.95 1.55 26.15 3.0 26.0 3.25 25.55 4.2 38.5 14.9 38.6 15.0 40.8 14.8 41.7 13.95" fill="#4f0c00" fill-rule="evenodd" stroke="none"/>
    <path d="M28.3 3.0 L48.55 3.0 48.65 3.05 49.55 4.2 49.75 4.5 40.35 13.25 40.1 13.0 28.3 3.25 28.2 3.2 28.3 3.0 M46.55 4.05 L46.85 4.5 Q46.85 5.5 44.25 7.6 41.85 9.6 40.25 10.2 L39.45 10.2 Q38.2 10.05 36.1 8.3 34.05 6.65 34.05 5.95 L34.75 5.75 37.55 5.3 42.3 5.3 Q42.7 5.55 42.7 5.95 L42.05 7.15 Q41.0 8.25 39.05 8.25 L38.15 8.2 Q37.35 8.0 37.35 6.95 37.9 6.0 39.85 6.2 L40.15 6.6 39.75 7.05 39.15 7.1 39.15 7.05 39.2 6.75 39.0 6.75 38.9 6.8 39.0 7.2 39.75 7.25 40.3 6.95 40.35 6.55 40.35 6.25 39.25 6.0 Q37.05 6.0 37.05 7.45 L37.15 7.85 38.1 8.45 39.05 8.45 Q41.15 8.25 42.2 7.3 42.95 6.6 42.95 5.95 L42.9 5.5 42.35 5.1 37.55 5.1 34.5 5.5 Q33.8 5.65 33.8 5.95 33.8 7.15 36.75 9.2 39.9 11.4 41.6 9.75 L45.1 7.0 Q47.15 5.4 47.15 4.3 L46.65 3.85 34.1 3.85 32.75 3.95 34.0 4.1 34.1 4.05 46.55 4.05" fill="#d24814" fill-rule="evenodd" stroke="none"/>
    <path d="M46.55 4.05 L34.1 4.05 34.0 4.1 32.75 3.95 34.1 3.85 46.65 3.85 47.15 4.3 Q47.15 5.4 45.1 7.0 L41.6 9.75 Q39.9 11.4 36.75 9.2 33.8 7.15 33.8 5.95 33.8 5.65 34.5 5.5 L37.55 5.1 42.35 5.1 42.9 5.5 42.95 5.95 Q42.95 6.6 42.2 7.3 41.15 8.25 39.05 8.45 L38.1 8.45 37.15 7.85 37.05 7.45 Q37.05 6.0 39.25 6.0 L40.35 6.25 40.35 6.55 40.3 6.95 39.75 7.25 39.0 7.2 38.9 6.8 39.0 6.75 39.2 6.75 39.15 7.05 39.15 7.1 39.75 7.05 40.15 6.6 39.85 6.2 Q37.9 6.0 37.35 6.95 37.35 8.0 38.15 8.2 L39.05 8.25 Q41.0 8.25 42.05 7.15 L42.7 5.95 Q42.7 5.55 42.3 5.3 L37.55 5.3 34.75 5.75 34.05 5.95 Q34.05 6.65 36.1 8.3 38.2 10.05 39.45 10.2 L40.25 10.2 Q41.85 9.6 44.25 7.6 46.85 5.5 46.85 4.5 L46.55 4.05" fill="#9c2f05" fill-rule="evenodd" stroke="none"/>
    <path d="M29.1 1.55 L28.7 2.25 28.3 3.0 28.2 3.2 28.3 3.25 40.1 13.0 40.35 13.25 41.3 14.05 41.7 13.95 40.8 14.8 38.6 15.0 38.5 14.9 25.55 4.2 26.0 3.25 26.15 3.0 26.95 1.55 29.1 1.55" fill="#b43b0a" fill-rule="evenodd" stroke="none"/>
  </g>
</svg>
