<?xml version="1.0" encoding="UTF-8" standalone="no"?>
<svg xmlns:xlink="http://www.w3.org/1999/xlink" height="220.95px" width="254.6px" xmlns="http://www.w3.org/2000/svg">
  <g transform="matrix(1.0, 0.0, 0.0, 1.0, 127.3, 113.55)">
    <path d="M92.55 0.25 Q89.5 -36.9 69.0 -55.85 43.4 -79.5 -8.15 -73.15 -32.85 -70.1 -50.6 -62.85 -49.9 -73.85 -32.6 -78.65 L-49.5 -86.45 Q-64.7 -77.0 -54.45 -64.0 -68.1 -73.6 -68.1 -97.4 L-84.75 -83.4 Q-77.9 -58.4 -57.6 -59.7 -73.8 -51.65 -83.2 -39.5 -100.4 -17.2 -93.45 16.3 -91.6 25.15 -88.35 33.9 -98.75 35.0 -106.7 39.4 -127.95 51.1 -106.5 80.15 -93.1 98.25 -68.6 93.2 -59.95 91.4 -52.65 87.8 -44.7 94.9 -39.15 96.05 -22.8 99.55 30.65 93.9 57.35 91.05 80.8 87.5 83.65 79.1 86.3 67.7 L89.8 67.45 Q110.35 65.2 115.15 47.8 122.85 19.9 102.75 16.15 L93.1 15.6 Q93.15 7.65 92.55 0.25 Z" fill="none" stroke="#3c190a" stroke-linecap="square" stroke-linejoin="miter" stroke-miterlimit="3.0" stroke-width="15.0"/>
    <path d="M-106.7 39.4 Q-96.05 33.55 -81.1 33.5 L-46.85 84.5 Q-56.4 90.65 -68.6 93.2 -93.1 98.25 -106.5 80.15 -127.95 51.1 -106.7 39.4" fill="#70381f" fill-rule="evenodd" stroke="none"/>
    <path d="M-87.3 48.2 Q-79.7 45.9 -70.1 47.75 L-56.45 84.55 Q-63.5 87.25 -71.75 87.35 -88.05 87.4 -93.7 74.1 -102.7 52.85 -87.3 48.2" fill="#bf7926" fill-rule="evenodd" stroke="none"/>
    <path d="M102.75 16.15 Q92.7 14.25 81.1 18.0 L70.2 66.1 Q79.55 68.5 89.8 67.45 110.35 65.2 115.15 47.8 122.85 19.9 102.75 16.15" fill="#70381f" fill-rule="evenodd" stroke="none"/>
    <path d="M96.65 27.75 Q89.3 27.2 81.05 30.6 L76.0 64.6 90.25 64.0 Q104.95 61.0 107.45 48.55 111.35 28.75 96.65 27.75" fill="#bf7926" fill-rule="evenodd" stroke="none"/>
    <path d="M12.4 95.65 L30.65 93.9 Q57.35 91.05 80.8 87.5 84.6 76.3 88.0 59.8 94.75 26.8 92.55 0.25 89.5 -36.9 69.0 -55.85 43.4 -79.5 -8.15 -73.15 -32.85 -70.1 -50.6 -62.85 -49.9 -73.85 -32.6 -78.65 L-49.5 -86.45 Q-64.7 -77.0 -54.45 -64.0 -68.1 -73.6 -68.1 -97.4 L-84.75 -83.4 Q-77.9 -58.4 -57.6 -59.7 -73.8 -51.65 -83.2 -39.5 -100.4 -17.2 -93.45 16.3 L-92.45 20.55" fill="none" stroke="#3c190a" stroke-linecap="square" stroke-linejoin="miter" stroke-miterlimit="3.0" stroke-width="15.0"/>
    <path d="M92.55 0.25 Q94.75 26.8 88.0 59.8 84.6 76.3 80.8 87.5 57.35 91.05 30.65 93.9 -22.8 99.55 -39.15 96.05 -44.7 94.9 -52.7 87.75 -60.8 80.55 -68.75 69.65 -87.75 43.7 -93.45 16.3 -100.4 -17.2 -83.2 -39.5 -73.8 -51.65 -57.6 -59.7 -77.9 -58.4 -84.75 -83.4 L-68.1 -97.4 Q-68.1 -73.6 -54.45 -64.0 -64.7 -77.0 -49.5 -86.45 L-32.6 -78.65 Q-49.9 -73.85 -50.6 -62.85 -32.85 -70.1 -8.15 -73.15 43.4 -79.5 69.0 -55.85 89.5 -36.9 92.55 0.25" fill="#70381f" fill-rule="evenodd" stroke="none"/>
    <path d="M92.15 -3.95 L92.55 0.25 Q94.45 23.3 89.65 51.25 L77.85 55.55 84.0 77.0 Q82.4 82.75 80.8 87.5 57.35 91.05 30.65 93.9 L-10.3 97.15 -8.65 67.0 Q-19.35 69.7 -31.5 69.55 -55.8 69.15 -63.15 54.65 -65.15 50.7 -65.75 43.15 -66.6 32.95 -63.3 23.95 -53.7 -2.6 -12.9 -8.35 1.15 -10.3 19.15 5.45 28.15 13.4 34.35 21.8 L37.5 16.6 Q41.55 10.4 46.1 5.3 60.75 -11.3 75.1 -11.3 84.15 -11.3 92.15 -3.95" fill="#bf7926" fill-rule="evenodd" stroke="none"/>
    <path d="M-10.25 58.65 Q-13.9 63.2 -19.1 63.2 -24.3 63.2 -27.95 58.65 -31.6 54.1 -31.6 47.65 -31.6 41.25 -27.95 36.7 -24.3 32.15 -19.1 32.15 -13.9 32.15 -10.25 36.7 -6.6 41.25 -6.6 47.65 -6.6 54.1 -10.25 58.65" fill="#000000" fill-rule="evenodd" stroke="none"/>
    <path d="M-10.6 50.1 Q-12.35 52.25 -14.85 52.25 -17.35 52.25 -19.1 50.1 -20.85 47.9 -20.85 44.8 -20.85 41.75 -19.1 39.55 -17.35 37.35 -14.85 37.35 -12.35 37.35 -10.6 39.55 -8.85 41.75 -8.85 44.8 -8.85 47.9 -10.6 50.1" fill="#ffffff" fill-rule="evenodd" stroke="none"/>
    <path d="M70.35 47.7 Q73.25 52.25 77.4 52.25 81.55 52.25 84.5 47.7 87.4 43.15 87.4 36.7 87.4 30.3 84.5 25.75 81.55 21.2 77.4 21.2 73.25 21.2 70.35 25.75 67.4 30.3 67.4 36.7 67.4 43.15 70.35 47.7" fill="#000000" fill-rule="evenodd" stroke="none"/>
    <path d="M70.6 39.15 Q72.0 41.3 74.0 41.3 75.95 41.3 77.4 39.15 78.8 36.95 78.8 33.85 78.8 30.8 77.4 28.6 75.95 26.4 74.0 26.4 72.0 26.4 70.6 28.6 69.2 30.8 69.2 33.85 69.2 36.95 70.6 39.15" fill="#ffffff" fill-rule="evenodd" stroke="none"/>
  </g>
</svg>
