<?xml version="1.0" encoding="UTF-8" standalone="no"?>
<svg xmlns:xlink="http://www.w3.org/1999/xlink" height="280.2px" width="280.25px" xmlns="http://www.w3.org/2000/svg">
  <g transform="matrix(1.0, 0.0, 0.0, 1.0, 140.1, 140.1)">
    <path d="M54.95 -127.35 L56.75 -136.85 -53.65 -136.85 -51.7 -127.35 54.95 -127.35 M-50.65 -121.9 L-40.15 -68.0 43.25 -68.0 53.85 -121.9 -50.65 -121.9" fill="#ffc812" fill-rule="evenodd" stroke="none"/>
    <path d="M-51.7 -127.35 L-51.8 -127.35 -50.7 -121.9 -50.65 -121.9 53.85 -121.9 54.95 -127.35 -51.7 -127.35" fill="#e07b00" fill-rule="evenodd" stroke="none"/>
    <path d="M50.9 -106.85 L-47.7 -106.85 -46.65 -101.4 49.85 -101.4 50.9 -106.85" fill="#e07b00" fill-rule="evenodd" stroke="none"/>
    <path d="M-51.7 -127.35 L-51.8 -127.35 -50.7 -121.9 -50.65 -121.9 -40.15 -68.0 43.25 -68.0 54.95 -127.35 56.75 -136.85 -53.65 -136.85 -51.7 -127.35 Z" fill="none" stroke="#854901" stroke-linecap="round" stroke-linejoin="round" stroke-width="3.0"/>
    <path d="M-137.1 -137.1 L0.1 -0.4 137.1 -137.1 M137.1 137.1 L106.05 105.25 0.1 -0.4 -137.1 137.1" fill="none" stroke="#ffc812" stroke-linecap="round" stroke-linejoin="round" stroke-width="3.0"/>
    <path d="M-50.65 121.65 L-40.15 67.75 43.25 67.75 53.85 121.65 -50.65 121.65 M54.95 127.1 L56.75 136.6 -53.65 136.6 -51.7 127.1 54.95 127.1" fill="#ffc812" fill-rule="evenodd" stroke="none"/>
    <path d="M-51.7 127.1 L-51.8 127.1 -50.7 121.65 -50.65 121.65 53.85 121.65 54.95 127.1 -51.7 127.1" fill="#e07b00" fill-rule="evenodd" stroke="none"/>
    <path d="M50.9 106.6 L-47.7 106.6 -46.65 101.15 49.85 101.15 50.9 106.6" fill="#e07b00" fill-rule="evenodd" stroke="none"/>
    <path d="M-51.7 127.1 L-51.8 127.1 -50.7 121.65 -50.65 121.65 -40.15 67.75 43.25 67.75 54.95 127.1 56.75 136.6 -53.65 136.6 -51.7 127.1 Z" fill="none" stroke="#854901" stroke-linecap="round" stroke-linejoin="round" stroke-width="3.0"/>
    <path d="M-137.1 137.1 L-137.1 -137.1 137.15 -137.1 137.15 137.1 -137.1 137.1 Z" fill="none" stroke="#854901" stroke-linecap="round" stroke-linejoin="round" stroke-width="6.0"/>
    <path d="M-75.05 -75.1 L0.1 -0.25 75.1 -75.1 M75.1 75.05 L58.1 57.6 0.1 -0.25 -75.05 75.05" fill="none" stroke="#ffc812" stroke-linecap="round" stroke-linejoin="round" stroke-width="3.0"/>
    <path d="M92.0 92.0 L-92.05 92.0 -92.05 -92.0 92.0 -92.0 92.0 92.0" fill="#ffca25" fill-rule="evenodd" stroke="none"/>
    <path d="M78.1 -78.1 L78.1 78.1 -78.1 78.1 -78.1 -78.1 78.1 -78.1" fill="#ffae12" fill-rule="evenodd" stroke="none"/>
  </g>
</svg>
