<?xml version="1.0" encoding="UTF-8" standalone="no"?>
<svg xmlns:xlink="http://www.w3.org/1999/xlink" height="156.85px" width="66.25px" xmlns="http://www.w3.org/2000/svg">
  <g transform="matrix(1.0, 0.0, 0.0, 1.0, 33.1, 78.4)">
    <path d="M-6.95 76.95 L-6.95 -40.8 7.15 -40.8 7.15 76.95 -6.95 76.95" fill="#cd960d" fill-rule="evenodd" stroke="none"/>
    <path d="M-6.95 76.95 L-6.95 -40.8 7.15 -40.8 7.15 76.95 -6.95 76.95 Z" fill="none" stroke="#856301" stroke-linecap="round" stroke-linejoin="round" stroke-width="3.0"/>
    <path d="M-9.5 9.8 L9.8 9.8 Q11.55 9.8 12.8 8.55 14.05 7.3 14.05 5.55 14.05 3.8 12.8 2.5 11.9 1.6 10.65 1.35 11.9 1.15 12.8 0.15 14.05 -1.05 14.05 -2.8 14.05 -4.6 12.8 -5.85 11.55 -7.1 9.85 -7.1 11.55 -7.1 12.8 -8.35 14.05 -9.6 14.05 -11.35 14.05 -13.1 12.8 -14.4 11.55 -15.6 9.8 -15.6 L-9.5 -15.6 Q-11.25 -15.6 -12.55 -14.4 -13.75 -13.1 -13.75 -11.35 -13.75 -9.6 -12.55 -8.35 -11.25 -7.1 -9.55 -7.1 -11.25 -7.1 -12.55 -5.85 -13.75 -4.6 -13.75 -2.8 -13.75 -1.05 -12.55 0.15 -11.55 1.15 -10.35 1.35 -11.55 1.6 -12.55 2.5 -13.75 3.8 -13.75 5.55 -13.75 7.3 -12.55 8.55 -11.25 9.8 -9.5 9.8 Z" fill="none" stroke="#8e7d59" stroke-linecap="round" stroke-linejoin="round" stroke-width="4.0"/>
    <path d="M-12.55 -14.4 Q-11.25 -15.65 -9.5 -15.65 L9.8 -15.65 Q11.55 -15.65 12.8 -14.4 14.05 -13.15 14.05 -11.35 14.05 -9.6 12.8 -8.4 11.55 -7.1 9.8 -7.1 L-9.5 -7.1 Q-11.25 -7.1 -12.55 -8.4 -13.75 -9.6 -13.75 -11.35 -13.75 -13.15 -12.55 -14.4" fill="#d4bf94" fill-rule="evenodd" stroke="none"/>
    <path d="M-12.55 -14.4 Q-13.75 -13.15 -13.75 -11.35 -13.75 -9.6 -12.55 -8.4 -11.25 -7.1 -9.5 -7.1 L9.8 -7.1 Q11.55 -7.1 12.8 -8.4 14.05 -9.6 14.05 -11.35 14.05 -13.15 12.8 -14.4 11.55 -15.65 9.8 -15.65 L-9.5 -15.65 Q-11.25 -15.65 -12.55 -14.4 Z" fill="none" stroke="#8e7d59" stroke-linecap="round" stroke-linejoin="round" stroke-width="1.0"/>
    <path d="M-22.3 -67.65 Q-13.1 -76.9 0.05 -76.9 13.15 -76.9 22.45 -67.65 31.65 -58.4 31.65 -45.3 31.65 -32.2 22.45 -22.9 13.15 -13.7 0.05 -13.7 -13.1 -13.7 -22.3 -22.9 -31.6 -32.2 -31.6 -45.3 -31.6 -58.4 -22.3 -67.65" fill="#858585" fill-rule="evenodd" stroke="none"/>
    <path d="M-22.3 -67.65 Q-13.1 -76.9 0.05 -76.9 13.15 -76.9 22.45 -67.65 31.65 -58.4 31.65 -45.3 31.65 -32.2 22.45 -22.9 13.15 -13.7 0.05 -13.7 -13.1 -13.7 -22.3 -22.9 -31.6 -32.2 -31.6 -45.3 -31.6 -58.4 -22.3 -67.65 Z" fill="none" stroke="#252525" stroke-linecap="round" stroke-linejoin="round" stroke-width="3.0"/>
    <path d="M-17.2 -62.7 Q-10.2 -69.75 -0.2 -69.75 9.8 -69.75 16.85 -62.7 23.85 -55.65 23.85 -45.7 23.85 -35.7 16.85 -28.65 9.8 -21.6 -0.2 -21.6 -10.2 -21.6 -17.2 -28.65 -24.3 -35.7 -24.3 -45.7 -24.3 -55.65 -17.2 -62.7" fill="#565656" fill-rule="evenodd" stroke="none"/>
    <path d="M-12.55 -5.85 Q-11.25 -7.1 -9.5 -7.1 L9.8 -7.1 Q11.55 -7.1 12.8 -5.85 14.05 -4.6 14.05 -2.8 14.05 -1.05 12.8 0.15 11.55 1.45 9.8 1.45 L-9.5 1.45 Q-11.25 1.45 -12.55 0.15 -13.75 -1.05 -13.75 -2.8 -13.75 -4.6 -12.55 -5.85" fill="#d4bf94" fill-rule="evenodd" stroke="none"/>
    <path d="M-12.55 -5.85 Q-13.75 -4.6 -13.75 -2.8 -13.75 -1.05 -12.55 0.15 -11.25 1.45 -9.5 1.45 L9.8 1.45 Q11.55 1.45 12.8 0.15 14.05 -1.05 14.05 -2.8 14.05 -4.6 12.8 -5.85 11.55 -7.1 9.8 -7.1 L-9.5 -7.1 Q-11.25 -7.1 -12.55 -5.85 Z" fill="none" stroke="#8e7d59" stroke-linecap="round" stroke-linejoin="round" stroke-width="1.0"/>
    <path d="M-12.65 2.5 Q-11.35 1.25 -9.6 1.25 L9.7 1.25 Q11.45 1.25 12.7 2.5 13.95 3.75 13.95 5.55 13.95 7.3 12.7 8.5 11.45 9.8 9.7 9.8 L-9.6 9.8 Q-11.35 9.8 -12.65 8.5 -13.85 7.3 -13.85 5.55 -13.85 3.75 -12.65 2.5" fill="#d4bf94" fill-rule="evenodd" stroke="none"/>
    <path d="M-12.65 2.5 Q-13.85 3.75 -13.85 5.55 -13.85 7.3 -12.65 8.5 -11.35 9.8 -9.6 9.8 L9.7 9.8 Q11.45 9.8 12.7 8.5 13.95 7.3 13.95 5.55 13.95 3.75 12.7 2.5 11.45 1.25 9.7 1.25 L-9.6 1.25 Q-11.35 1.25 -12.65 2.5 Z" fill="none" stroke="#8e7d59" stroke-linecap="round" stroke-linejoin="round" stroke-width="1.0"/>
  </g>
</svg>
