<?xml version="1.0" encoding="UTF-8" standalone="no"?>
<svg xmlns:xlink="http://www.w3.org/1999/xlink" height="19.7px" width="60.35px" xmlns="http://www.w3.org/2000/svg">
  <g transform="matrix(1.0, 0.0, 0.0, 1.0, 31.45, -9.85)">
    <path d="M12.2 12.75 Q9.3 15.65 9.3 19.7 9.3 23.75 12.2 26.65 15.05 29.55 19.1 29.55 23.1 29.55 26.0 26.65 28.9 23.75 28.9 19.7 28.9 15.65 26.0 12.75 23.1 9.85 19.1 9.85 15.05 9.85 12.2 12.75" fill="#584560" fill-rule="evenodd" stroke="none"/>
    <path d="M-28.55 12.75 Q-31.45 15.65 -31.45 19.7 -31.45 23.75 -28.55 26.65 -25.7 29.55 -21.65 29.55 -17.65 29.55 -14.75 26.65 -11.85 23.75 -11.85 19.7 -11.85 15.65 -14.75 12.75 -17.65 9.85 -21.65 9.85 -25.7 9.85 -28.55 12.75" fill="#584560" fill-rule="evenodd" stroke="none"/>
    <path d="M-14.75 17.9 Q-12.6 19.55 -12.05 21.75 -12.6 24.5 -14.75 26.65 -17.65 29.55 -21.65 29.55 -25.7 29.55 -28.55 26.65 -30.7 24.5 -31.25 21.75 -30.7 19.55 -28.55 17.9 -25.7 15.65 -21.65 15.65 -17.65 15.65 -14.75 17.9" fill="#ea0c12" fill-rule="evenodd" stroke="none"/>
    <path d="M26.0 17.9 Q28.15 19.55 28.7 21.75 28.15 24.5 26.0 26.65 23.1 29.55 19.1 29.55 15.05 29.55 12.2 26.65 10.05 24.5 9.5 21.75 10.05 19.55 12.2 17.9 15.05 15.65 19.1 15.65 23.1 15.65 26.0 17.9" fill="#ea0c12" fill-rule="evenodd" stroke="none"/>
  </g>
</svg>
