<?xml version="1.0" encoding="UTF-8" standalone="no"?>
<svg xmlns:xlink="http://www.w3.org/1999/xlink" height="73.2px" width="76.2px" xmlns="http://www.w3.org/2000/svg">
  <g transform="matrix(1.0, 0.0, 0.0, 1.0, 38.1, 36.6)">
    <path d="M22.9 -33.4 Q21.8 -33.4 20.9 -34.7 L20.2 -35.9 Q20.2 -37.2 21.6 -36.1 L23.6 -34.2 23.5 -33.65 Q23.4 -33.4 22.9 -33.4 M24.9 26.8 Q26.3 26.3 26.3 27.55 26.3 28.1 24.5 30.2 24.0 30.2 23.7 29.4 L23.5 28.55 Q23.5 27.35 24.9 26.8" fill="url(#gradient0)" fill-rule="evenodd" stroke="none"/>
    <path d="M10.5 -33.6 Q10.0 -34.45 7.7 -35.05 L5.0 -35.4 5.1 -35.45 8.9 -35.8 Q14.0 -35.8 18.75 -31.3 21.4 -28.8 25.6 -23.5 26.4 -23.8 25.7 -22.7 25.0 -21.7 26.0 -18.85 L27.7 -14.4 Q29.55 -9.7 31.0 -7.95 32.25 -6.4 33.9 -6.4 35.9 -6.4 35.9 -9.1 35.9 -10.7 35.2 -12.1 36.85 -9.0 37.55 -6.1 38.1 -3.65 38.1 0.0 38.1 4.85 36.8 7.85 36.2 9.3 33.55 12.75 L33.7 11.5 33.65 10.8 33.3 10.2 32.7 10.2 32.6 10.6 32.55 10.9 31.95 11.7 29.5 14.8 25.95 18.5 22.7 21.8 Q19.8 25.3 18.75 27.85 18.1 29.5 18.1 31.2 18.1 31.95 18.9 32.45 L20.3 32.8 20.3 33.3 18.25 33.65 16.0 33.8 1.7 33.0 -4.7 33.4 Q-7.5 33.9 -7.5 35.5 L-7.4 35.95 -6.85 36.3 -8.7 36.6 Q-10.6 36.6 -14.0 35.15 -18.15 33.4 -19.1 31.0 -20.1 28.5 -21.6 26.65 -22.95 25.0 -23.7 25.0 L-24.1 25.05 -24.3 25.2 -24.1 26.6 Q-26.8 26.35 -28.25 24.95 -30.0 23.3 -32.7 17.8 -34.9 13.35 -36.25 9.1 -37.15 6.35 -37.1 4.4 -34.8 8.6 -34.1 9.0 -33.1 7.5 -33.1 5.9 -33.1 1.95 -34.1 -1.2 L-35.0 -3.65 -35.5 -4.8 -37.6 -7.8 Q-38.1 -8.85 -38.1 -10.6 -38.1 -12.35 -35.9 -15.05 -32.4 -19.3 -31.5 -20.8 L-28.6 -25.0 Q-28.1 -25.75 -28.1 -27.2 -28.1 -27.65 -28.45 -28.75 L-29.1 -30.35 Q-28.0 -29.5 -27.6 -26.5 -27.2 -23.2 -25.5 -23.2 -24.25 -23.2 -22.7 -24.65 -20.85 -26.35 -19.5 -29.4 -18.25 -32.25 -15.4 -33.55 -13.5 -34.5 -10.5 -34.8 L-11.05 -34.1 -11.1 -33.6 Q-11.1 -32.35 -7.5 -32.0 -5.35 -31.8 1.5 -31.8 L7.35 -32.1 Q9.55 -32.45 10.5 -33.6" fill="url(#gradient1)" fill-rule="evenodd" stroke="none"/>
  </g>
  <defs>
    <radialGradient cx="0" cy="0" gradientTransform="matrix(0.0471, 0.0, 0.0, 0.0471, -0.2, 0.7)" gradientUnits="userSpaceOnUse" id="gradient0" r="819.2" spreadMethod="pad">
      <stop offset="0.4196078431372549" stop-color="#ffffff"/>
      <stop offset="0.7333333333333333" stop-color="#ffff00"/>
      <stop offset="1.0" stop-color="#cc6600"/>
    </radialGradient>
    <radialGradient cx="0" cy="0" gradientTransform="matrix(0.0471, 0.0, 0.0, 0.0471, -0.2, 0.7)" gradientUnits="userSpaceOnUse" id="gradient1" r="819.2" spreadMethod="pad">
      <stop offset="0.11372549019607843" stop-color="#ffffff"/>
      <stop offset="1.0" stop-color="#ffff00"/>
    </radialGradient>
  </defs>
</svg>
