<?xml version="1.0" encoding="UTF-8" standalone="no"?>
<svg xmlns:xlink="http://www.w3.org/1999/xlink" height="77.9px" width="83.95px" xmlns="http://www.w3.org/2000/svg">
  <g transform="matrix(1.0, 0.0, 0.0, 1.0, 42.0, 38.95)">
    <path d="M9.95 -30.7 L10.15 -30.75 13.1 -30.35 14.5 -29.25 14.6 -29.3 16.65 -27.75 19.6 -25.05 21.65 -23.15 26.5 -20.55 Q28.25 -19.75 29.05 -20.35 30.2 -21.15 31.6 -23.45 30.65 -21.6 31.05 -21.05 30.25 -17.75 30.75 -15.2 L31.5 -10.35 31.7 -7.5 Q31.65 -6.85 32.5 -6.35 L33.05 -4.2 Q34.25 -0.55 34.8 0.25 36.3 2.35 38.6 2.0 L41.95 1.05 39.15 3.2 Q37.1 4.85 34.8 10.65 33.45 13.85 31.5 21.25 L31.2 20.95 31.2 20.75 31.15 20.85 30.65 20.25 Q30.7 19.6 30.25 18.9 28.95 17.15 25.95 19.3 23.55 21.05 20.45 24.1 L19.5 25.1 Q17.15 26.65 16.05 27.9 14.85 29.35 15.45 30.15 16.05 31.0 16.6 31.05 L17.7 30.65 15.45 33.75 14.15 35.2 Q11.2 37.35 8.95 37.7 L2.9 38.65 2.95 38.5 Q3.05 38.05 2.4 37.05 L0.65 35.65 -0.7 34.75 -1.6 34.2 -5.2 32.35 Q-7.6 31.2 -9.2 31.25 -10.3 31.3 -11.3 32.05 -13.9 33.85 -11.3 37.5 L-10.05 38.95 -13.2 37.55 Q-13.85 37.2 -13.75 37.1 -13.7 37.0 -15.25 35.85 L-16.9 34.55 Q-19.05 31.55 -19.35 27.7 -19.65 23.85 -21.0 22.0 -22.75 19.55 -29.3 16.95 -36.5 14.05 -41.45 15.05 -41.95 14.35 -42.0 12.45 -42.1 10.65 -41.75 9.6 -41.25 8.2 -40.15 6.65 L-38.3 4.1 Q-36.55 1.4 -35.05 -1.8 -34.3 -3.55 -34.2 -5.7 -33.5 -8.45 -34.25 -9.5 -35.1 -10.7 -36.9 -10.4 -38.2 -10.2 -39.15 -9.55 -40.35 -8.7 -40.75 -7.35 L-41.0 -5.5 Q-41.9 -6.8 -40.9 -8.75 L-38.65 -12.85 Q-35.65 -17.95 -29.9 -22.1 L-21.75 -27.2 Q-16.15 -30.5 -14.75 -31.5 -10.95 -34.2 -9.65 -35.9 -8.35 -37.55 -9.05 -38.55 L-9.4 -38.95 -5.55 -38.6 Q-1.55 -37.95 1.05 -36.45 L5.9 -33.0 Q8.5 -31.15 9.95 -30.7" fill="url(#gradient0)" fill-rule="evenodd" stroke="none"/>
    <path d="M-19.05 -34.05 Q-19.05 -33.4 -19.3 -33.15 -19.6 -32.85 -20.45 -32.85 -21.25 -32.85 -21.45 -33.35 L-21.55 -33.9 Q-21.55 -34.55 -21.15 -35.1 -20.7 -35.85 -19.85 -35.45 -19.75 -35.15 -19.95 -34.5 L-19.45 -34.4 -19.05 -34.05" fill="url(#gradient1)" fill-rule="evenodd" stroke="none"/>
  </g>
  <defs>
    <radialGradient cx="0" cy="0" gradientTransform="matrix(0.0471, 0.0, 0.0, 0.0471, -1.15, -0.95)" gradientUnits="userSpaceOnUse" id="gradient0" r="819.2" spreadMethod="pad">
      <stop offset="0.11372549019607843" stop-color="#ffffff"/>
      <stop offset="1.0" stop-color="#ffff00"/>
    </radialGradient>
    <radialGradient cx="0" cy="0" gradientTransform="matrix(0.0471, 0.0, 0.0, 0.0471, -1.15, -0.95)" gradientUnits="userSpaceOnUse" id="gradient1" r="819.2" spreadMethod="pad">
      <stop offset="0.4196078431372549" stop-color="#ffffff"/>
      <stop offset="0.7333333333333333" stop-color="#ffff00"/>
      <stop offset="1.0" stop-color="#cc6600"/>
    </radialGradient>
  </defs>
</svg>
