<?xml version="1.0" encoding="UTF-8" standalone="no"?>
<svg xmlns:xlink="http://www.w3.org/1999/xlink" height="33.25px" width="86.7px" xmlns="http://www.w3.org/2000/svg">
  <g transform="matrix(1.0, 0.0, 0.0, 1.0, 43.35, 2.15)">
    <path d="M43.35 1.8 Q43.45 7.35 41.85 9.45 L41.65 9.65 41.55 9.75 Q40.25 11.0 35.7 10.95 34.4 17.25 28.35 21.45 24.5 24.15 19.05 25.75 L18.35 26.7 13.6 29.15 Q7.9 31.1 -0.2 31.1 L-0.25 31.1 Q-8.3 31.1 -14.05 29.15 L-14.2 29.1 -14.4 29.05 -14.55 29.0 -14.7 28.95 -14.8 28.9 -14.95 28.85 -15.15 28.8 -15.35 28.7 -15.5 28.65 -15.65 28.55 Q-18.7 27.3 -19.45 25.75 -24.9 24.15 -28.75 21.45 -34.8 17.25 -36.1 10.95 -40.3 10.95 -41.55 9.75 L-41.65 9.65 -41.8 9.45 Q-43.45 7.35 -43.35 1.8 L-43.15 -1.3 -36.5 2.3 -36.0 2.2 -35.95 2.15 -33.95 1.75 -29.9 5.5 Q-17.2 15.9 0.8 15.9 18.8 15.9 31.5 5.5 L35.15 2.2 35.65 2.3 43.05 -2.15 43.35 1.8" fill="#ff0000" fill-opacity="0.0" fill-rule="evenodd" stroke="none"/>
  </g>
</svg>
