<?xml version="1.0" encoding="UTF-8" standalone="no"?>
<svg xmlns:xlink="http://www.w3.org/1999/xlink" height="521.85px" width="590.1px" xmlns="http://www.w3.org/2000/svg">
  <g transform="matrix(1.0, 0.0, 0.0, 1.0, 295.05, 260.9)">
    <path d="M185.3 -228.9 L184.7 -227.5 Q184.1 -226.65 182.55 -226.65 181.4 -226.65 178.35 -229.35 175.55 -231.9 175.55 -232.15 175.55 -233.55 176.6 -234.55 177.7 -235.6 179.15 -235.55 183.05 -235.45 185.3 -228.9 M-132.05 -206.15 Q-162.6 -187.45 -182.0 -169.5 -204.2 -148.95 -209.05 -131.65 -210.9 -124.95 -217.0 -113.15 L-227.05 -94.15 Q-231.75 -84.7 -233.15 -75.1 -234.05 -69.2 -234.05 -57.4 -234.05 -43.15 -233.05 -36.4 L-233.05 19.1 Q-230.35 36.15 -228.9 43.25 -226.0 57.65 -222.3 67.1 L-217.5 78.85 Q-213.6 86.1 -206.55 90.1 -194.0 97.15 -192.55 98.15 L-190.7 99.45 -176.55 99.45 -174.65 99.75 Q-173.55 100.15 -173.55 101.7 -173.55 104.65 -177.35 105.85 L-178.85 108.9 -181.15 113.4 Q-177.25 124.95 -173.25 133.4 -167.15 146.25 -158.55 157.1 -155.6 160.8 -150.0 169.3 -144.35 176.85 -137.55 180.85 -127.85 186.6 -117.3 194.45 -109.8 199.45 -102.55 199.45 -89.5 199.45 -84.8 196.2 L-80.65 192.85 Q-78.3 191.05 -75.25 189.65 -73.1 188.2 -69.65 186.4 -60.25 181.45 -57.05 181.45 L-56.65 181.5 Q-56.3 181.65 -56.3 183.2 -56.3 186.45 -63.5 190.9 L-64.65 191.6 Q-63.2 193.2 -61.7 195.35 -58.1 200.5 -56.45 202.2 -48.8 210.15 -30.3 212.2 L-26.8 212.2 Q-18.05 204.75 -14.0 202.75 L-13.95 202.75 Q-10.05 198.7 -5.55 195.7 -3.1 197.15 -1.35 201.15 L-1.3 201.3 Q-0.7 201.5 -0.05 201.85 L5.05 204.45 Q13.3 208.2 22.95 208.2 29.75 208.2 39.5 206.1 49.2 203.95 52.95 203.95 55.45 203.95 56.7 204.45 L57.2 205.95 56.75 206.65 71.15 203.15 Q94.7 197.8 101.95 195.7 113.05 192.45 121.2 188.45 126.05 186.05 135.7 180.1 139.85 177.55 149.05 172.05 157.2 167.0 162.25 163.05 176.3 151.9 176.05 141.1 181.45 133.8 193.5 128.0 199.9 124.95 208.8 121.6 215.9 118.05 221.6 113.35 227.7 108.3 230.05 103.6 232.45 98.8 236.65 92.2 L243.55 81.1 Q245.05 78.55 249.15 69.85 L246.8 73.85 246.05 73.85 248.45 68.0 247.8 68.85 247.05 68.85 Q249.2 60.35 250.85 56.4 252.7 52.1 255.25 50.8 260.1 37.8 261.45 31.85 262.95 25.4 263.3 17.6 L263.55 -1.15 Q263.55 -18.15 260.3 -28.9 258.9 -33.6 258.65 -42.4 258.4 -52.0 257.55 -55.9 L255.1 -69.7 Q253.45 -78.8 251.55 -83.65 L246.4 -96.6 Q243.05 -105.75 243.05 -110.65 L243.35 -115.4 243.4 -115.75 243.2 -116.3 Q237.9 -131.9 224.55 -141.4 212.4 -150.1 206.15 -154.0 193.95 -161.55 184.55 -164.4 165.9 -170.15 144.9 -175.0 120.65 -180.65 111.45 -180.65 L90.25 -179.8 91.75 -182.1 83.45 -183.15 Q78.45 -183.15 64.6 -177.8 L43.45 -169.65 34.45 -169.65 Q29.8 -175.1 22.25 -188.9 18.65 -195.55 15.35 -200.5 L13.95 -201.9 10.15 -205.7 Q5.9 -209.3 -0.45 -212.15 -20.0 -220.9 -55.05 -220.9 -81.2 -220.9 -107.3 -214.7 -121.85 -211.2 -132.85 -206.8 L-132.05 -206.15 M171.1 -213.4 Q204.6 -197.75 223.55 -184.9 238.45 -174.8 248.75 -159.6 L256.75 -146.7 Q261.65 -138.55 265.05 -133.9 285.15 -106.45 290.8 -82.0 293.2 -71.6 293.9 -58.45 294.3 -50.85 294.3 -32.65 294.3 10.85 285.75 42.2 276.65 75.65 255.3 105.35 253.8 107.45 244.95 122.7 238.25 134.2 232.3 139.85 225.85 146.15 209.95 157.15 190.45 170.65 185.8 174.35 160.25 194.35 125.0 208.75 73.0 229.95 7.45 235.45 L-24.55 235.45 -26.55 234.95 -53.55 234.45 Q-117.85 227.55 -152.2 207.4 -164.3 200.3 -176.1 189.5 -188.35 177.55 -194.55 172.1 -197.9 169.1 -201.5 163.8 -206.95 155.8 -208.3 154.1 L-214.75 145.25 -221.55 136.1 Q-229.0 126.5 -233.95 118.05 -239.2 109.05 -242.3 100.1 -254.4 66.0 -258.65 53.0 -265.0 33.75 -267.85 20.7 -270.85 7.1 -271.9 -7.85 -272.8 -20.6 -272.8 -43.55 -272.8 -63.3 -272.0 -70.05 -270.55 -82.4 -264.55 -99.4 -259.45 -117.1 -256.15 -126.35 -250.35 -142.6 -240.3 -154.9 -224.0 -174.9 -217.55 -182.05 -202.45 -198.8 -187.55 -210.4 -179.5 -216.7 -170.15 -222.4 -164.85 -225.65 -157.4 -229.6 L-158.55 -230.4 Q-155.7 -234.15 -148.3 -237.4 L-135.55 -242.65 Q-119.35 -250.05 -98.65 -251.2 L-82.15 -251.85 Q-72.6 -252.4 -65.55 -253.9 L-28.55 -253.9 Q-11.6 -252.8 0.6 -250.15 11.75 -247.75 37.7 -246.4 48.45 -245.85 69.65 -242.85 L91.7 -239.4 Q101.25 -237.1 126.85 -231.75 148.2 -227.0 150.55 -224.4 150.35 -223.15 149.95 -222.7 158.95 -219.05 171.1 -213.4 M111.55 -260.9 L113.4 -260.7 Q115.35 -260.35 115.8 -259.9 L116.05 -259.15 111.9 -257.55 108.55 -256.4 107.95 -255.9 Q107.3 -255.75 107.3 -257.3 107.3 -258.9 111.55 -260.9 M67.95 -124.9 L94.75 -123.9 Q95.9 -123.6 96.1 -122.75 96.4 -121.75 97.45 -121.15 L101.7 -118.55 Q105.05 -116.5 106.7 -115.65 L110.5 -112.7 110.55 -112.65 Q111.3 -114.95 113.05 -117.8 116.5 -123.25 122.15 -127.9 136.9 -140.1 156.55 -139.15 169.2 -137.1 174.15 -132.3 175.75 -130.8 177.55 -127.95 179.6 -124.7 180.8 -123.4 183.65 -120.1 184.65 -115.25 185.65 -110.55 184.55 -106.15 L184.55 -105.65 190.55 -106.6 196.55 -107.15 Q221.4 -107.15 228.6 -89.15 230.9 -83.3 231.2 -75.7 L231.05 -67.4 Q231.05 -47.5 208.05 -31.4 200.95 -26.45 193.15 -22.95 L194.0 -19.5 Q195.05 -14.4 195.05 -4.65 195.05 6.65 193.0 18.75 190.65 32.9 186.3 41.85 184.75 45.1 182.45 48.8 178.85 58.45 171.55 65.6 L164.55 71.6 164.55 71.7 Q164.55 73.9 161.65 76.65 L157.05 81.1 Q156.35 82.05 155.35 86.1 154.7 88.85 152.55 88.85 149.0 88.85 144.65 85.65 L139.4 81.3 Q130.25 83.2 118.45 84.35 L111.5 85.45 106.2 87.05 104.35 87.85 Q99.1 91.15 95.45 92.85 L84.4 96.85 Q75.85 99.9 74.95 101.1 L74.8 100.3 Q69.55 103.4 65.95 106.6 63.7 108.6 45.85 118.15 28.95 127.15 22.95 133.6 L18.45 134.1 Q13.25 132.7 8.3 127.45 3.15 122.0 -1.8 120.35 -6.3 119.65 -9.3 121.75 -12.65 124.1 -14.55 124.1 L-24.3 123.85 -28.7 113.2 Q-31.65 106.1 -34.05 102.1 -36.15 98.75 -49.65 92.15 -64.0 85.15 -65.8 83.35 -74.1 82.1 -79.45 77.75 -85.2 73.05 -89.55 72.1 -94.75 70.95 -102.25 67.75 -105.85 66.15 -113.25 64.95 L-117.3 67.2 -123.4 70.25 Q-125.15 72.25 -129.05 73.1 L-129.25 72.8 -129.3 71.2 Q-129.3 70.1 -128.15 66.25 -127.05 62.4 -127.05 60.35 L-126.05 59.2 Q-127.3 57.5 -128.35 55.45 -131.45 49.2 -132.55 48.1 -134.45 46.15 -141.05 42.35 -147.55 38.6 -149.8 36.1 -160.1 24.9 -162.15 19.8 -163.55 16.4 -163.55 5.7 -163.55 3.2 -161.2 -8.8 L-158.55 -22.4 Q-160.0 -28.55 -157.35 -36.05 -155.3 -41.8 -150.3 -49.4 -120.4 -94.6 -117.05 -103.4 -111.4 -118.05 -98.4 -130.75 -82.55 -146.35 -62.05 -151.65 -37.9 -157.9 -23.0 -152.0 -17.8 -149.9 -12.6 -145.85 L-4.8 -139.4 Q-2.3 -137.9 1.85 -133.55 5.35 -129.9 8.7 -128.65 10.95 -127.85 12.75 -126.25 L13.1 -126.1 13.7 -126.65 Q20.45 -132.5 28.55 -129.05 31.55 -127.8 33.7 -125.65 L35.15 -123.9 Q42.8 -123.75 53.4 -124.2 L67.95 -124.9 M26.7 -140.65 L27.2 -139.15 26.5 -138.2 25.45 -137.65 24.1 -137.7 Q23.7 -137.8 23.7 -139.3 23.7 -140.85 23.85 -141.05 L23.95 -140.9 25.05 -140.95 26.7 -140.65 M3.5 34.2 Q5.4 35.45 6.6 37.25 L7.85 38.6 Q12.55 43.65 16.45 49.35 23.2 54.95 29.8 57.7 38.85 61.45 57.7 65.1 L65.2 65.1 Q75.4 58.45 80.2 49.0 83.35 42.8 85.2 32.1 87.05 19.85 87.95 15.6 88.15 14.55 90.9 7.2 93.45 0.25 93.45 -0.55 93.45 -2.0 96.6 -5.1 L101.2 -9.9 102.95 -13.4 Q104.35 -16.1 106.45 -18.15 111.85 -23.65 112.95 -26.8 113.45 -28.25 113.45 -33.8 113.45 -54.05 85.2 -73.15 77.4 -78.4 62.95 -82.6 48.45 -86.2 45.2 -87.15 L34.85 -89.05 24.45 -90.65 15.15 -92.9 Q6.85 -94.65 3.7 -93.15 0.3 -91.75 -3.05 -89.5 -7.3 -86.7 -10.3 -85.15 -10.6 -84.8 -10.9 -84.8 -11.4 -84.75 -11.5 -85.6 L-14.6 -82.95 -17.9 -79.45 -20.4 -75.6 Q-24.65 -68.7 -29.75 -64.4 L-34.55 -58.65 -35.55 -59.15 -34.8 -60.85 Q-44.3 -54.85 -51.5 -47.95 -58.7 -41.1 -62.3 -34.65 -65.75 -28.65 -69.0 -20.65 L-74.05 -6.9 Q-75.35 -3.35 -77.05 5.85 -78.8 15.4 -78.8 19.7 -78.8 26.6 -75.55 31.35 -70.3 39.1 -57.55 39.1 -46.5 39.1 -40.15 37.45 -36.1 36.4 -31.85 33.85 -27.4 31.15 -24.3 30.25 -18.7 28.6 -9.05 28.6 -3.5 28.6 2.9 33.85 L3.5 34.2 M121.7 -8.65 L123.45 -6.4 Q123.15 -5.95 121.7 -5.95 L117.7 -5.9 Q106.45 1.85 99.4 15.45 93.2 27.45 93.2 37.2 93.2 39.55 95.2 43.45 97.5 47.95 101.2 51.85 111.2 62.35 125.3 62.35 131.7 62.35 142.65 55.65 151.75 50.05 155.3 46.1 159.85 41.0 161.5 36.4 162.8 32.65 162.8 26.95 162.8 20.6 161.9 19.15 158.75 15.15 154.3 7.1 150.25 -0.35 148.4 -2.9 145.85 -6.4 143.05 -7.65 140.3 -8.9 135.15 -9.0 L121.7 -8.65 M292.55 93.6 Q293.9 94.55 294.45 95.65 295.05 96.75 295.05 98.6 295.05 100.1 294.35 101.65 L293.05 104.35 291.55 104.85 289.55 102.8 Q289.05 102.2 289.05 101.35 289.05 100.2 289.85 97.8 290.95 94.55 292.55 93.6 M178.55 126.6 L178.8 126.85 Q179.05 127.0 179.05 128.45 179.05 130.35 176.6 131.85 174.55 133.1 173.05 133.1 L171.1 132.85 171.05 132.6 170.25 132.15 Q170.05 131.9 170.05 130.35 170.05 128.9 173.2 127.5 176.3 126.1 178.55 126.6 M267.05 142.35 L267.55 142.15 Q268.05 142.3 268.05 143.85 264.7 148.85 261.8 148.6 L261.55 148.95 Q261.3 149.0 261.3 147.45 261.3 146.3 262.95 144.45 264.9 142.25 267.05 142.35 M159.05 96.35 L159.55 96.15 Q160.05 96.3 160.05 97.85 160.05 99.4 159.35 100.0 L158.05 100.85 156.05 100.85 Q155.8 101.1 155.8 98.6 155.8 97.15 156.5 96.6 157.25 96.05 159.05 96.35 M-41.8 70.35 Q-41.8 75.5 -41.35 76.65 -40.4 78.95 -35.05 84.6 L-29.55 84.6 Q-5.5 77.2 1.2 67.2 3.85 63.3 4.45 58.1 L4.7 48.7 4.5 42.35 Q1.6 39.2 -1.3 36.85 -15.85 36.75 -29.5 50.1 -35.0 55.4 -38.45 61.3 -41.8 66.9 -41.8 70.35 M23.95 144.7 L24.7 145.45 24.2 146.7 22.95 146.95 Q20.95 146.45 20.45 145.7 20.85 145.1 21.85 144.85 L23.95 144.7 M7.95 171.45 L8.45 171.25 Q8.95 171.4 8.95 172.95 8.95 173.9 6.9 176.65 L3.45 180.95 Q2.35 180.5 2.1 180.15 1.7 179.55 1.7 177.85 1.7 177.0 3.85 174.55 6.15 171.9 7.95 171.45 M0.45 256.35 Q2.25 256.95 3.2 258.35 L2.3 259.35 0.45 260.95 -10.55 260.95 Q-16.0 259.55 -17.45 258.8 -20.0 257.45 -20.05 254.85 L-18.95 253.4 -17.3 253.85 Q-11.9 255.8 0.45 256.35 M-227.3 -238.15 L-226.3 -236.65 -226.8 -234.4 -227.75 -233.75 Q-228.6 -233.15 -230.05 -233.15 L-232.0 -233.4 -232.05 -233.65 Q-232.5 -233.85 -232.6 -233.95 -232.8 -234.05 -232.8 -235.55 -232.8 -236.75 -231.0 -237.45 -229.5 -238.05 -227.3 -238.15 M-226.05 -209.4 L-225.65 -209.6 Q-225.3 -209.45 -225.3 -207.9 -225.3 -205.85 -231.05 -200.8 L-238.55 -194.4 -240.3 -194.85 -240.55 -196.8 Q-240.55 -201.25 -236.65 -204.95 -232.45 -209.05 -226.05 -209.4 M-92.8 -87.3 Q-92.8 -85.5 -89.4 -79.25 L-86.05 -73.4 -83.9 -70.85 Q-82.3 -68.95 -80.25 -67.7 -73.85 -63.9 -58.55 -63.9 -36.6 -63.9 -29.1 -72.6 L-26.5 -76.95 Q-25.45 -79.8 -25.4 -83.25 L-25.8 -88.8 Q-25.8 -95.5 -34.8 -101.6 -43.75 -107.7 -56.3 -109.65 -74.1 -112.4 -84.9 -101.8 -88.7 -98.05 -91.0 -93.35 -92.8 -89.55 -92.8 -87.3 M-160.05 95.6 L-159.3 96.45 -160.15 97.9 Q-160.85 98.85 -161.55 99.2 -163.3 98.95 -164.05 98.2 -163.5 97.25 -162.35 96.55 -161.2 95.8 -160.05 95.6 M-142.3 86.35 Q-142.3 87.85 -143.05 88.6 L-144.3 88.6 Q-144.8 87.85 -144.8 85.85 L-143.9 85.8 Q-143.1 85.9 -142.3 86.35 M-27.55 130.7 Q-26.0 131.3 -25.55 132.7 L-26.35 134.15 Q-27.0 135.1 -27.55 135.45 L-28.9 134.1 Q-29.55 133.05 -29.55 131.95 L-28.25 131.15 -27.55 130.7 M-41.3 166.45 L-40.8 167.95 -41.8 169.4 Q-43.1 170.9 -44.55 171.45 -46.05 170.95 -46.8 170.2 L-44.75 168.2 Q-43.05 166.9 -41.3 166.45 M-290.05 41.85 Q-290.05 44.85 -290.3 47.1 L-291.15 47.5 -292.55 48.1 Q-294.4 47.05 -294.9 44.95 L-295.05 41.95 Q-295.05 35.95 -292.55 35.95 -290.05 35.9 -290.05 41.85 M-275.55 99.85 L-271.75 104.4 -267.55 109.35 Q-268.3 111.55 -270.3 111.85 L-274.75 107.35 Q-277.3 104.7 -277.3 102.85 L-277.25 101.0 -277.05 100.1 -275.55 99.85 M-58.55 249.6 L-56.3 250.35 -55.8 251.85 -57.0 252.9 -58.55 253.6 -65.55 253.6 -67.3 252.65 -69.8 251.1 Q-68.85 248.9 -68.0 248.65 L-58.55 249.6" fill="#b1deb1" fill-rule="evenodd" stroke="none"/>
  </g>
</svg>
