<?xml version="1.0" encoding="UTF-8" standalone="no"?>
<svg xmlns:xlink="http://www.w3.org/1999/xlink" height="659.95px" width="752.55px" xmlns="http://www.w3.org/2000/svg">
  <g transform="matrix(1.0, 0.0, 0.0, 1.0, 379.75, 334.2)">
    <path d="M-169.2 -329.75 Q-165.7 -328.85 -163.85 -327.7 -144.45 -331.95 -120.1 -333.9 L-73.1 -334.2 -53.1 -332.95 -24.6 -331.3 5.05 -330.55 Q53.75 -330.8 114.2 -314.05 141.35 -306.6 162.15 -297.7 183.8 -288.6 193.75 -280.0 L192.6 -279.75 213.2 -269.8 Q222.3 -263.15 234.2 -256.1 L255.65 -243.3 Q277.1 -229.8 295.6 -211.9 314.35 -193.65 324.9 -175.5 348.05 -136.25 359.8 -102.2 372.8 -64.25 372.8 -30.1 372.8 -10.9 371.6 0.4 370.55 10.6 368.3 19.9 368.05 48.75 343.4 106.35 329.7 138.45 306.05 183.4 300.35 194.2 289.85 207.85 280.2 220.35 274.85 224.65 261.15 235.75 238.5 248.6 L210.8 263.4 Q183.65 277.85 173.8 282.75 151.8 293.55 135.95 298.25 L115.65 305.15 Q103.0 309.45 88.5 312.2 46.2 320.35 -56.85 325.3 L-115.3 325.75 Q-142.1 324.5 -164.2 318.5 -183.9 313.1 -196.4 304.95 -210.6 295.7 -213.65 293.3 -221.9 286.9 -225.4 280.15 L-229.85 277.7 Q-262.95 259.35 -279.0 237.05 -297.35 211.7 -309.0 192.7 -324.35 167.6 -332.2 147.45 L-350.8 102.75 Q-361.8 76.3 -366.75 57.95 -368.9 49.75 -371.2 35.75 L-374.9 13.1 Q-379.75 -11.15 -379.75 -31.55 -379.75 -66.45 -363.75 -112.25 -348.3 -156.4 -325.55 -189.6 -322.45 -194.1 -313.85 -208.95 -306.35 -221.7 -300.8 -229.0 L-286.4 -248.9 Q-277.8 -260.75 -269.35 -268.65 L-249.85 -286.75 Q-238.55 -296.95 -228.75 -303.7 -203.1 -321.75 -169.2 -329.75 M-36.35 297.5 L-37.4 298.75 -36.35 298.75 -36.35 297.5 -36.35 294.4 Q-36.35 289.0 -29.6 287.0 -24.9 285.55 -9.95 284.5 L21.85 281.6 Q43.9 278.75 65.05 272.9 68.85 271.85 76.6 268.45 86.05 264.35 90.3 262.8 108.45 256.25 123.25 259.05 L123.75 260.0 Q124.25 260.65 124.25 263.65 124.25 268.65 113.65 275.6 L121.15 273.45 Q145.85 267.15 170.45 256.15 L179.6 251.9 181.6 251.65 181.4 249.05 Q181.4 247.55 211.5 237.4 L218.4 235.1 239.55 220.7 Q256.8 208.5 267.35 199.9 271.15 193.05 276.6 184.45 291.8 160.5 294.9 151.7 302.95 129.1 307.95 116.7 L306.7 112.45 Q304.5 106.5 300.7 102.85 L300.25 102.45 Q303.1 91.25 307.4 77.55 L316.85 47.55 Q321.6 31.6 322.9 22.6 323.75 16.55 325.95 8.5 327.15 3.9 330.2 -5.65 331.85 -11.4 333.1 -20.2 334.25 -28.5 335.95 -33.95 336.95 -36.8 337.1 -41.05 327.75 -46.2 321.85 -65.35 318.45 -76.5 317.2 -86.6 L317.0 -87.25 Q314.05 -97.9 312.5 -101.35 311.0 -104.5 308.65 -114.35 306.4 -124.3 304.05 -129.05 301.75 -133.6 297.8 -137.0 L290.85 -142.0 Q286.85 -144.75 285.25 -146.8 282.95 -149.75 282.95 -154.0 282.95 -162.7 289.75 -166.85 296.35 -170.75 307.45 -167.6 L305.15 -171.45 Q299.8 -182.15 270.15 -208.05 238.1 -236.0 215.75 -246.85 190.8 -259.05 170.65 -267.1 174.8 -261.8 174.8 -257.0 174.8 -252.5 172.05 -247.25 167.8 -239.1 159.05 -239.1 151.0 -239.1 140.9 -246.8 135.6 -250.9 129.5 -257.0 124.0 -261.6 114.05 -263.4 L96.9 -265.7 84.2 -266.8 72.05 -267.0 Q58.2 -267.7 50.6 -274.3 47.55 -276.9 43.45 -279.15 L37.6 -282.3 Q32.15 -285.55 32.15 -291.15 32.15 -293.65 33.6 -296.15 L29.85 -296.45 -2.55 -296.7 Q-2.0 -294.7 -2.0 -292.5 -2.0 -285.35 -6.25 -279.5 -13.25 -269.8 -28.15 -276.25 L-108.05 -275.75 -142.35 -270.25 Q-171.45 -265.55 -187.45 -260.55 -202.8 -255.75 -217.15 -244.8 -224.3 -239.35 -236.45 -227.55 L-273.95 -190.5 Q-285.35 -179.35 -292.5 -172.7 -294.15 -165.85 -304.9 -141.4 -318.85 -109.7 -320.15 -105.15 -321.55 -100.45 -326.45 -88.1 -330.65 -77.55 -332.15 -70.75 L-333.0 -66.5 Q-327.25 -67.55 -322.7 -63.45 -316.4 -57.7 -316.4 -44.7 -316.4 -42.65 -317.9 -35.1 -319.8 -25.45 -322.55 -17.2 -330.95 7.9 -342.55 7.9 -344.55 7.9 -346.25 7.2 -346.1 14.05 -346.35 18.6 -346.9 26.2 -342.75 39.55 L-336.45 60.45 Q-332.25 78.9 -324.55 101.35 -318.95 118.05 -308.8 144.1 -304.85 154.6 -299.3 164.65 -292.4 177.0 -284.65 185.9 -280.75 190.4 -269.6 205.8 -259.8 219.4 -251.6 227.8 -240.8 239.0 -229.7 248.45 -213.85 262.15 -201.8 268.6 -182.9 278.9 -164.5 284.15 L-168.6 281.1 Q-164.7 272.1 -149.8 278.3 -144.8 280.35 -135.4 285.5 -123.5 292.0 -119.65 293.9 L-63.55 293.9 -55.7 292.5 -47.15 291.85 Q-46.1 291.85 -41.65 294.1 -37.1 296.4 -36.35 297.5 M182.45 251.35 L182.4 251.55 182.45 251.35" fill="#b1deb1" fill-rule="evenodd" stroke="none"/>
    <path d="M-313.25 -165.35 L-303.65 -182.65 Q-298.7 -190.45 -289.05 -201.75 L-272.55 -220.9 Q-267.35 -227.15 -250.3 -239.75 -231.35 -253.7 -225.55 -259.4 -218.7 -266.15 -202.35 -273.85 -191.7 -278.85 -181.75 -281.65 -174.7 -285.8 -153.05 -290.2 -121.9 -296.55 -83.05 -299.15 L39.95 -299.4 71.65 -296.0 Q101.85 -292.7 109.2 -289.65 112.5 -288.25 118.35 -286.7 L130.95 -283.4 132.1 -282.9 Q147.9 -281.9 160.8 -278.75 L180.95 -273.4 198.15 -267.65 Q212.85 -262.45 215.95 -260.15 L236.95 -244.9 Q249.85 -235.1 256.95 -227.65 L256.65 -226.8 Q262.3 -222.5 269.05 -217.55 289.05 -201.75 295.2 -190.15 302.15 -177.2 310.95 -157.7 319.05 -139.75 320.95 -133.9 329.95 -106.75 336.15 -79.9 344.2 -44.85 344.2 -22.55 344.2 -21.3 345.35 -9.6 L346.45 3.35 Q346.45 12.55 343.25 24.75 L343.45 27.6 Q343.45 33.25 335.65 61.1 328.4 86.9 326.7 90.6 322.2 100.55 314.25 121.05 308.2 134.65 300.05 145.65 L300.05 145.6 300.95 132.2 300.75 129.2 301.3 127.05 Q302.3 122.5 302.35 115.95 L302.2 100.7 301.1 85.25 Q300.05 69.85 300.2 62.1 300.35 53.6 298.7 43.0 297.7 36.6 294.95 23.85 292.55 12.75 288.7 4.3 283.8 -6.4 275.95 -14.4 L267.1 -24.1 Q261.6 -29.8 255.7 -33.15 254.55 -33.8 240.45 -42.4 234.55 -45.3 232.1 -46.65 L229.85 -48.15 Q229.1 -46.6 227.95 -45.9 224.6 -48.95 224.65 -55.0 225.3 -61.95 224.95 -65.15 L223.15 -74.5 Q221.8 -80.9 221.95 -84.65 222.35 -92.85 219.1 -103.85 L212.45 -122.9 Q209.35 -131.85 196.65 -144.95 L188.1 -153.85 Q184.15 -158.35 183.45 -161.15 182.45 -164.9 182.4 -170.5 L182.7 -180.65 Q182.7 -182.35 180.6 -189.85 179.15 -194.85 178.7 -197.25 L174.45 -208.4 Q173.2 -211.85 168.55 -219.55 164.0 -227.1 162.7 -230.9 161.0 -236.15 155.65 -242.1 150.65 -247.65 143.7 -252.4 L138.3 -256.45 Q133.25 -260.0 127.2 -262.6 108.6 -270.65 80.95 -270.65 53.95 -270.65 30.95 -259.15 L16.95 -252.95 Q5.8 -247.95 2.95 -245.65 0.65 -243.75 -9.95 -237.35 -21.0 -230.6 -22.3 -229.65 -24.5 -228.0 -29.6 -221.65 -31.5 -219.25 -33.55 -217.75 L-33.55 -217.65 Q-33.65 -216.9 -34.1 -216.15 -35.05 -214.6 -37.05 -214.15 -67.8 -214.25 -85.5 -210.2 -91.2 -208.9 -96.7 -206.85 L-103.55 -204.3 Q-103.55 -203.0 -103.8 -202.65 L-104.05 -202.65 -104.3 -202.15 Q-104.55 -201.65 -106.05 -201.65 L-115.55 -208.25 -129.3 -217.9 Q-136.6 -222.75 -142.6 -225.65 -152.65 -230.55 -164.8 -233.4 L-192.3 -233.4 Q-208.65 -233.9 -227.9 -224.7 -244.3 -216.85 -260.85 -202.9 -275.2 -190.85 -285.7 -177.8 -291.15 -171.05 -293.95 -166.05 L-293.9 -164.15 Q-293.9 -163.0 -297.25 -152.45 -300.65 -141.85 -300.65 -138.65 L-300.65 -125.9 Q-300.65 -123.85 -299.75 -119.25 L-299.15 -115.7 -296.65 -115.9 -296.4 -115.45 Q-296.15 -115.1 -296.15 -113.65 -296.15 -112.2 -300.4 -109.15 L-302.5 -107.7 -302.4 -107.4 Q-312.25 -103.65 -318.5 -89.2 -323.65 -77.4 -323.65 -67.3 -323.65 -64.75 -321.4 -55.5 L-319.15 -46.65 Q-318.25 -42.45 -315.25 -37.6 -311.95 -32.25 -306.65 -27.15 -303.7 -24.25 -296.1 -20.4 -290.8 -17.7 -280.4 -13.15 -275.15 -10.85 -264.35 -9.1 L-244.8 -6.45 Q-233.2 -4.9 -228.25 -3.6 -221.3 -1.8 -221.3 0.85 L-222.3 16.05 -223.3 31.2 Q-223.3 43.9 -223.0 48.95 -222.35 59.3 -220.05 66.1 -218.65 70.35 -215.3 83.2 L-215.05 83.95 -214.9 83.9 Q-214.4 84.05 -214.4 85.5 L-213.3 87.7 -218.2 92.8 -219.05 90.95 -227.0 99.35 Q-240.4 114.95 -244.15 127.35 -244.95 130.25 -247.5 137.75 -249.7 144.7 -250.15 148.35 -250.65 152.75 -250.95 160.45 L-251.15 169.35 Q-251.15 174.85 -248.25 184.1 L-243.15 200.1 Q-241.2 207.3 -233.55 218.1 -227.6 226.45 -224.15 229.6 -218.1 235.2 -206.05 243.7 -194.05 252.1 -187.8 255.2 -183.8 257.15 -177.55 260.4 -170.8 263.05 -156.05 265.2 L-147.45 264.9 -147.15 265.4 -147.05 265.35 Q-144.45 267.55 -141.45 271.85 -138.65 275.85 -137.05 279.35 L-134.95 283.15 -135.05 285.2 Q-135.05 288.6 -133.55 294.6 L-133.2 296.05 -134.35 296.75 -136.45 295.3 -160.75 291.65 Q-179.45 288.85 -184.4 287.2 L-199.55 282.4 Q-205.4 280.6 -214.4 277.2 -223.9 273.75 -240.1 263.9 -258.15 252.95 -258.85 248.0 L-266.25 242.55 Q-278.2 233.25 -282.65 227.7 -287.2 222.2 -291.55 215.25 -295.65 208.75 -298.4 202.95 L-310.35 178.15 Q-316.9 163.75 -319.15 153.45 -321.4 143.25 -325.95 128.8 L-334.05 103.55 Q-344.05 72.25 -345.4 53.85 L-345.4 10.35 Q-345.25 1.2 -345.8 -16.65 L-346.4 -34.3 Q-346.4 -38.6 -343.5 -63.8 -340.5 -89.4 -339.15 -96.15 -336.8 -107.85 -328.9 -126.9 -325.0 -138.65 -322.6 -144.35 -321.9 -148.95 -313.25 -165.35 M295.45 -58.9 Q289.4 -58.9 287.25 -62.85 286.2 -64.75 286.2 -67.4 286.2 -69.15 286.9 -70.0 L291.7 -74.9 279.95 -75.4 Q278.2 -76.9 277.3 -79.85 276.7 -81.7 276.7 -82.65 276.7 -89.95 283.6 -101.35 L288.3 -108.85 Q290.45 -112.3 290.45 -113.4 290.45 -114.5 289.7 -117.8 288.95 -121.1 288.95 -123.15 279.95 -123.0 279.95 -127.4 279.95 -131.3 280.6 -135.6 281.35 -140.8 282.7 -143.9 275.8 -150.75 272.6 -150.8 L268.1 -150.7 Q264.45 -150.8 259.45 -152.15 255.55 -153.2 251.75 -156.8 247.95 -160.4 247.95 -163.05 247.95 -171.6 249.4 -174.65 252.4 -180.85 263.7 -185.9 260.1 -194.2 251.0 -200.0 239.05 -206.45 231.7 -211.4 231.1 -211.8 229.25 -214.85 227.25 -218.1 225.45 -219.65 L217.95 -226.15 Q217.6 -226.5 212.15 -228.6 206.6 -230.75 205.7 -231.4 204.15 -232.65 201.45 -233.35 203.9 -228.15 204.9 -221.9 205.85 -216.2 207.2 -204.15 209.35 -193.2 209.45 -186.9 209.7 -179.5 212.15 -176.85 213.85 -174.9 220.7 -169.65 227.25 -163.6 234.3 -152.45 L244.95 -135.15 245.75 -133.6 Q247.85 -129.9 249.25 -125.35 L251.6 -117.4 Q253.15 -112.9 255.2 -109.65 258.85 -104.0 260.05 -94.7 L261.95 -78.9 Q262.4 -76.45 261.3 -71.45 261.4 -67.0 268.2 -64.15 270.75 -63.1 274.4 -58.85 278.85 -53.75 282.2 -51.4 290.85 -45.35 296.35 -36.45 299.5 -31.3 304.45 -21.05 L304.7 -21.05 304.7 -31.55 Q303.75 -34.55 301.8 -44.35 300.05 -53.1 298.45 -56.9 L298.45 -59.2 295.45 -58.9 M-143.05 -259.9 L-145.55 -259.4 Q-141.2 -256.95 -131.65 -252.2 -122.7 -247.8 -118.55 -245.35 -104.85 -237.3 -103.3 -228.4 -96.65 -229.85 -77.9 -235.45 -58.55 -240.75 -42.05 -242.4 -39.45 -245.35 -33.7 -256.0 -29.25 -264.35 -23.05 -268.4 L-23.05 -269.15 Q-50.95 -274.8 -94.85 -268.65 -108.45 -266.75 -125.05 -263.45 L-143.05 -259.9 M-295.4 5.85 Q-297.8 16.2 -301.95 22.25 -304.55 26.1 -309.35 29.65 -314.0 33.1 -315.4 35.2 -317.9 39.0 -317.9 46.2 -317.9 55.2 -313.95 69.65 L-307.65 91.6 Q-307.2 93.35 -306.85 97.25 -306.15 100.65 -303.65 102.35 L-291.65 111.1 Q-286.3 115.0 -281.0 121.3 -276.55 126.55 -273.15 132.35 L-271.7 119.75 Q-270.45 112.15 -267.65 104.35 -265.9 99.45 -258.5 87.85 -251.65 77.05 -251.65 76.6 -251.65 75.7 -253.85 63.15 -256.15 50.0 -256.4 46.6 -256.85 40.6 -258.2 31.9 L-260.4 17.35 Q-279.25 15.95 -285.85 10.7 L-289.65 7.3 Q-291.7 5.85 -295.4 5.85 M135.55 273.1 Q112.5 280.05 95.7 282.7 L30.75 293.05 Q1.0 297.1 -43.9 299.45 L-70.8 299.45 -70.7 299.15 -71.55 299.35 -75.3 298.6 -75.55 298.15 -75.8 296.35 Q-75.8 295.2 -72.6 293.25 L-69.0 291.3 -68.8 290.45 -67.45 290.45 -64.3 288.7 Q-49.7 280.6 -40.05 270.6 L-25.05 257.0 Q-14.65 247.75 -10.55 241.85 L-0.1 226.55 Q5.95 217.25 8.2 211.1 11.0 203.45 12.45 196.1 L12.85 194.5 12.95 192.85 13.55 192.8 Q14.35 191.4 15.3 192.7 L29.95 191.35 Q36.75 190.15 40.6 188.6 L47.2 185.85 Q52.85 183.9 62.9 178.4 L64.2 177.7 66.15 180.9 68.3 184.1 68.2 184.15 66.35 185.3 68.35 189.2 Q71.0 194.4 73.25 197.9 79.75 208.0 90.7 216.35 100.25 223.55 120.4 230.65 L137.65 236.5 Q148.0 240.05 154.7 242.85 L189.2 243.35 195.05 242.65 197.2 241.3 199.75 241.35 Q202.15 240.6 203.45 240.6 205.95 240.6 206.2 241.1 L206.25 241.3 213.15 240.95 206.3 244.85 Q205.1 247.05 200.15 248.55 L197.4 250.7 Q193.25 253.85 189.95 254.2 189.1 254.3 183.3 256.75 L176.2 259.7 162.8 264.55 Q152.2 268.2 148.45 268.85 L135.55 273.1 M56.5 221.05 Q51.5 225.1 40.95 225.1 L33.25 224.3 29.8 223.75 Q28.35 232.8 14.9 249.45 2.0 265.35 -7.3 272.1 L-8.05 272.85 Q7.9 271.5 15.95 266.95 L22.35 263.4 Q26.5 261.45 32.45 260.35 L70.75 254.25 Q90.4 251.1 95.95 248.35 95.0 245.5 85.4 241.5 74.85 237.15 72.7 234.6 68.4 229.45 61.95 225.35 59.85 224.05 59.15 223.05 58.2 221.75 58.2 219.3 L56.5 221.05" fill="#b1deb1" fill-rule="evenodd" stroke="none"/>
  </g>
</svg>
