<?xml version="1.0" encoding="UTF-8" standalone="no"?>
<svg xmlns:xlink="http://www.w3.org/1999/xlink" height="680.15px" width="767.7px" xmlns="http://www.w3.org/2000/svg">
  <g transform="matrix(1.0, 0.0, 0.0, 1.0, 382.55, 345.0)">
    <path d="M264.15 -251.15 Q286.3 -237.2 305.4 -218.7 L309.2 -214.9 310.55 -216.25 322.3 -200.3 Q330.05 -190.7 335.65 -181.1 359.55 -140.55 371.7 -105.4 385.15 -66.2 385.15 -30.95 385.15 -11.1 383.9 0.55 382.8 11.1 380.5 20.7 380.3 43.45 365.4 83.55 L363.7 92.45 363.5 85.95 359.75 91.45 359.05 91.4 358.2 95.05 357.9 91.3 354.65 90.95 348.3 35.3 Q344.35 3.05 338.75 -19.95 L339.25 -24.05 340.0 -24.05 337.75 -31.9 335.6 -39.45 337.2 -39.45 Q341.85 -35.05 345.3 -27.6 346.1 -31.75 347.1 -34.9 348.1 -37.85 348.25 -42.25 338.6 -47.55 332.5 -67.35 329.0 -78.85 327.7 -89.3 L327.5 -89.95 Q324.45 -100.95 322.85 -104.55 321.3 -107.8 318.9 -117.95 316.55 -128.25 314.15 -133.15 311.75 -137.85 307.65 -141.35 L300.5 -146.5 Q296.35 -149.35 294.7 -151.45 292.35 -154.5 292.35 -158.9 292.35 -167.9 299.35 -172.2 301.35 -173.35 303.7 -173.9 297.5 -184.9 297.5 -187.55 297.5 -188.8 300.0 -195.5 L289.9 -205.1 289.8 -205.0 288.7 -206.2 279.1 -214.75 Q268.7 -223.8 259.35 -231.1 L257.5 -234.05 247.35 -250.1 241.2 -253.85 227.35 -261.45 Q211.4 -270.3 207.05 -278.0 212.0 -277.95 217.9 -276.0 L209.6 -281.6 Q216.85 -283.05 225.1 -278.6 229.45 -276.25 234.45 -272.35 238.0 -268.8 248.4 -262.65 256.45 -257.9 261.4 -252.75 L264.15 -251.15 M-174.65 -340.4 Q-171.05 -339.5 -169.15 -338.3 -149.1 -342.7 -123.95 -344.7 L-75.4 -345.0 -54.75 -343.75 -25.3 -342.0 5.3 -341.25 39.7 -339.5 50.9 -338.85 Q60.85 -339.8 69.65 -336.6 L71.0 -336.05 72.4 -335.75 71.9 -335.7 Q49.7 -331.85 33.75 -322.35 L30.25 -320.1 29.15 -319.95 Q23.45 -316.75 17.95 -314.1 14.75 -312.55 -10.25 -301.35 L-13.9 -301.45 Q-14.85 -301.55 -14.85 -304.65 L-14.5 -306.5 -15.85 -305.95 Q-27.25 -300.8 -33.8 -300.8 -40.25 -300.8 -42.0 -304.1 -42.5 -305.05 -42.5 -308.0 -42.5 -311.05 -31.85 -316.25 -59.5 -308.3 -81.6 -293.25 -87.8 -289.05 -92.7 -284.75 L-110.7 -284.65 Q-124.3 -288.9 -144.55 -290.4 L-145.3 -291.25 Q-147.55 -290.55 -150.7 -290.05 -163.35 -287.9 -205.0 -285.7 -221.05 -284.75 -235.05 -281.8 L-247.75 -279.05 Q-251.5 -279.05 -256.0 -280.25 L-258.85 -281.1 -259.05 -280.85 Q-259.25 -280.8 -259.35 -281.3 L-260.15 -281.65 -260.6 -281.6 -261.1 -280.85 Q-261.5 -280.75 -261.55 -282.55 L-261.6 -282.6 -261.55 -282.6 -261.6 -283.9 Q-261.6 -286.15 -256.05 -291.25 L-253.2 -293.85 -250.1 -296.4 -248.75 -297.85 Q-253.55 -296.65 -257.2 -294.9 L-259.35 -294.7 -257.95 -296.0 Q-246.3 -306.55 -236.15 -313.5 -209.65 -332.15 -174.65 -340.4 M140.5 308.2 L119.55 315.3 Q106.5 319.75 91.5 322.6 68.5 327.0 28.2 330.55 L26.5 331.1 Q13.35 335.15 -14.35 335.15 -67.6 335.15 -77.3 333.05 -80.2 332.45 -81.45 330.95 -82.8 329.3 -85.8 328.5 L-85.4 327.4 Q-87.15 327.25 -88.25 326.65 -66.25 324.9 -35.8 314.5 -26.15 311.2 -9.55 304.8 4.6 299.35 9.2 298.0 26.25 293.05 40.45 288.2 54.05 285.65 67.3 282.0 71.2 280.9 79.2 277.4 L83.1 275.75 100.7 277.5 126.25 277.5 125.55 278.35 125.95 278.35 133.6 278.9 132.45 277.5 156.3 277.5 Q197.95 270.95 213.1 267.4 L221.9 265.15 216.05 268.4 Q217.05 268.75 217.8 269.3 217.5 270.35 216.3 271.55 L212.15 274.95 211.4 275.6 193.5 285.05 191.05 289.6 189.2 291.95 181.35 296.8 180.8 297.05 Q177.6 298.0 173.7 298.0 L168.35 297.55 Q152.7 304.6 140.5 308.2 M-382.55 -82.75 Q-382.55 -96.35 -380.1 -108.3 -377.65 -120.55 -371.55 -136.55 -368.05 -145.8 -365.4 -150.6 L-362.65 -155.05 -361.8 -157.85 Q-357.45 -173.05 -350.75 -183.4 L-348.65 -186.45 Q-344.3 -195.2 -339.7 -201.1 -337.2 -206.45 -334.15 -207.55 L-333.85 -207.35 -333.6 -207.55 -331.8 -211.8 -329.0 -211.65 Q-326.0 -211.65 -321.3 -212.75 -321.35 -211.8 -321.75 -210.05 L-319.95 -209.15 Q-319.25 -208.65 -319.25 -205.5 -319.25 -202.35 -322.25 -197.15 -325.3 -191.9 -326.25 -188.0 L-326.0 -182.15 Q-325.75 -176.05 -325.95 -172.2 -326.4 -165.8 -330.5 -154.5 L-329.75 -153.6 Q-330.6 -145.85 -334.25 -133.7 L-339.15 -129.55 Q-337.65 -128.8 -336.7 -127.85 -341.7 -119.75 -355.1 -104.6 L-377.2 -80.2 -379.25 -79.65 -378.95 -80.85 Q-380.8 -78.15 -382.05 -75.55 -382.55 -76.7 -382.55 -77.6 L-382.3 -80.5 -382.55 -82.75 M-336.7 95.55 L-336.8 98.65 -337.05 98.95 -335.1 104.85 Q-329.3 122.05 -318.85 149.0 -314.75 159.8 -309.0 170.2 L-302.45 180.95 -301.45 183.65 -294.6 201.0 Q-292.7 209.1 -289.75 218.25 -288.15 223.15 -273.4 262.1 L-272.3 264.7 Q-275.05 261.5 -276.35 258.6 -283.05 252.0 -288.05 245.0 -307.0 218.8 -319.05 199.15 -334.9 173.25 -343.0 152.45 L-362.2 106.25 -370.0 86.5 -370.0 85.3 Q-370.0 76.1 -371.75 64.95 -372.3 61.35 -375.4 45.4 -380.15 20.65 -378.45 4.35 -377.5 1.5 -377.75 -2.6 L-375.2 0.1 Q-371.9 4.05 -366.7 12.65 L-360.8 22.0 Q-359.4 25.45 -353.05 32.7 -346.85 39.75 -344.9 45.1 -343.25 49.75 -342.65 57.0 -342.35 61.0 -342.35 67.15 -338.15 66.2 -334.9 63.7 L-334.65 64.05 Q-334.65 65.45 -335.35 66.25 -336.3 67.3 -338.75 67.65 L-339.25 67.2 -342.35 67.65 Q-342.35 72.3 -343.15 75.35 L-339.05 79.2 -338.45 82.7 -336.7 85.3 -336.7 86.85 -336.2 87.65 Q-336.25 88.15 -337.6 88.3 -336.7 94.15 -336.7 95.55 M-126.8 308.5 Q-126.8 313.35 -134.95 317.8 -141.45 321.3 -143.75 321.3 -158.1 321.3 -164.05 311.05 -165.85 307.95 -166.65 304.25 L-167.05 301.6 Q-167.05 293.85 -160.75 292.25 -155.5 290.95 -146.9 294.0 -139.4 296.7 -133.1 301.25 -126.8 305.8 -126.8 308.5" fill="#b1deb1" fill-rule="evenodd" stroke="none"/>
    <path d="M353.45 -30.3 L352.95 -3.65 Q351.95 21.6 349.45 21.6 344.65 21.6 340.5 6.55 337.3 -4.95 336.95 -12.15 336.6 -16.95 333.55 -29.95 331.0 -40.65 331.7 -46.65 332.55 -53.4 329.4 -63.95 327.45 -70.45 322.95 -81.15 L318.85 -88.75 Q316.95 -92.35 316.95 -98.4 316.95 -106.2 314.95 -114.9 313.1 -122.85 309.85 -132.3 306.35 -142.5 302.95 -149.4 L294.75 -165.9 285.2 -183.15 Q279.45 -192.95 274.45 -200.4 L267.5 -208.1 Q262.8 -213.35 262.95 -217.15 263.4 -225.2 257.0 -237.85 250.45 -249.15 250.45 -250.55 250.45 -256.25 255.65 -255.8 260.95 -255.35 265.45 -248.9 267.1 -247.7 271.95 -242.0 L278.45 -234.65 Q285.05 -228.2 290.55 -219.75 293.7 -214.85 298.7 -205.4 305.75 -192.0 313.2 -175.75 L325.95 -146.9 Q338.35 -118.6 345.7 -88.4 348.65 -76.7 350.95 -60.05 353.45 -42.05 353.45 -30.3 M7.95 -312.15 L8.35 -311.5 Q8.7 -311.0 8.7 -309.55 8.7 -306.05 -17.55 -284.4 -21.05 -284.4 -28.55 -286.0 -34.4 -287.25 -37.3 -288.15 L-66.8 -288.15 Q-69.2 -287.1 -80.35 -285.6 L-92.55 -283.9 -100.0 -281.5 Q-105.15 -279.9 -107.55 -279.9 -109.15 -279.9 -112.4 -281.15 L-119.9 -283.9 Q-132.5 -287.9 -150.15 -287.9 -168.0 -287.9 -170.35 -286.5 L-171.35 -285.6 -175.55 -285.15 Q-178.65 -285.15 -180.0 -286.65 -180.8 -287.55 -180.8 -288.55 -180.8 -295.95 -159.85 -300.65 L-138.35 -304.75 Q-123.1 -307.55 -113.55 -309.9 -87.2 -316.3 -50.4 -315.8 -30.15 -315.55 7.95 -312.15 M124.45 284.7 Q124.45 288.55 103.3 294.6 L76.7 301.35 43.1 310.0 19.95 315.85 17.5 315.6 16.95 315.35 16.6 314.5 Q16.2 313.8 16.2 312.35 16.2 309.4 31.95 297.65 44.85 288.0 48.7 285.85 51.65 284.3 69.5 280.0 L90.45 275.1 Q94.8 273.95 98.6 275.25 100.2 275.8 104.45 278.35 111.05 280.25 120.75 281.65 123.0 282.0 123.7 282.5 124.45 283.05 124.45 284.7 M-333.05 -136.4 Q-333.05 -134.4 -334.55 -132.15 L-338.3 -125.9 Q-338.8 -124.9 -339.5 -120.9 -340.65 -117.4 -343.55 -117.4 -347.7 -117.4 -349.25 -121.8 L-350.05 -126.55 Q-350.05 -129.7 -348.45 -132.8 L-344.3 -138.9 Q-339.95 -144.5 -336.25 -142.6 -333.05 -140.95 -333.05 -136.4 M-349.4 42.85 Q-348.05 43.75 -347.15 47.3 -346.15 51.25 -344.4 53.1 -341.55 56.05 -338.1 58.45 L-332.15 62.6 Q-328.35 65.55 -328.0 71.55 -327.8 75.05 -327.9 82.85 -326.9 92.2 -318.8 108.7 -314.75 116.95 -310.9 123.7 L-312.0 135.35 Q-313.1 146.6 -313.15 151.85 -313.3 160.85 -312.65 178.45 -312.65 184.1 -312.9 187.1 L-313.3 187.75 Q-313.85 188.35 -315.4 188.35 -318.6 188.35 -326.6 162.15 -333.8 138.7 -337.4 120.35 -339.05 112.0 -346.6 81.65 -353.4 54.5 -353.4 52.85 -353.4 50.45 -352.5 47.65 -351.4 44.0 -349.4 42.85 M-143.55 304.45 Q-143.55 307.3 -146.05 308.35 -147.9 309.1 -152.05 309.1 -158.3 309.1 -160.3 306.85 L-161.05 305.3 -161.05 304.6 Q-161.05 302.35 -158.3 301.0 -155.85 299.85 -152.3 299.85 -148.75 299.85 -146.3 301.0 -143.55 302.3 -143.55 304.45" fill="#b1deb1" fill-rule="evenodd" stroke="none"/>
  </g>
</svg>
