<?xml version="1.0" encoding="UTF-8" standalone="no"?>
<svg xmlns:xlink="http://www.w3.org/1999/xlink" height="50.8px" width="30.05px" xmlns="http://www.w3.org/2000/svg">
  <g transform="matrix(1.0, 0.0, 0.0, 1.0, 11.5, 20.0)">
    <path d="M4.35 -6.1 Q5.45 -4.95 6.1 -4.95 L7.7 -5.1 Q9.85 -5.1 9.85 -2.95 L9.5 -1.4 Q9.15 -0.6 9.15 0.2 9.15 3.3 10.55 3.75 L11.4 3.8 Q12.2 4.05 12.75 4.75 13.45 5.6 13.45 6.75 13.0 9.4 13.0 10.55 13.0 12.45 13.6 13.05 14.15 13.6 15.8 13.9 L16.25 14.0 Q17.15 14.25 17.7 15.15 18.2 15.95 18.2 16.95 18.2 17.8 17.6 19.1 17.0 20.35 17.0 21.5 17.0 22.4 17.8 23.8 18.55 25.2 18.55 26.0 18.55 27.6 17.9 28.35 17.15 29.15 15.45 29.15 L14.3 29.0 13.25 28.8 Q12.4 28.8 11.9 29.3 L10.9 30.4 10.45 30.7 9.45 30.8 Q7.95 30.8 7.1 29.25 L5.75 26.9 Q5.1 26.3 2.8 25.55 1.3 25.1 1.3 23.5 L1.75 21.0 2.15 18.15 Q2.15 16.75 1.5 16.1 0.85 15.5 -0.65 15.25 L-1.3 15.45 Q-2.9 15.45 -3.3 13.2 -3.75 10.7 -5.55 10.2 L-9.0 9.55 Q-10.8 8.95 -10.8 6.95 -10.8 5.35 -9.55 3.65 L-7.75 0.9 Q-7.45 0.2 -7.4 -0.9 L-7.4 -2.8 Q-7.35 -3.8 -6.8 -4.6 -6.2 -5.45 -5.45 -5.45 -4.85 -5.45 -4.05 -4.95 -3.4 -4.55 -2.55 -4.45 L-2.15 -4.4 -0.95 -4.45 Q-0.1 -4.6 0.55 -5.4 L0.75 -5.65 Q1.9 -7.25 2.85 -7.25 3.25 -7.25 4.35 -6.1" fill="#339fff" fill-rule="evenodd" stroke="none"/>
    <path d="M6.15 -15.65 L6.3 -15.65 6.65 -15.5 6.75 -15.35 6.8 -14.95 6.75 -14.55 6.7 -14.6 6.4 -15.15 5.95 -15.2 5.55 -15.15 5.45 -15.05 5.65 -15.5 6.15 -15.65 M12.4 9.85 Q12.4 6.9 12.7 5.8 13.25 3.8 15.05 3.8 16.7 3.8 16.7 9.6 L16.5 12.9 16.35 14.65 16.3 14.3 16.0 11.9 Q16.0 8.2 14.65 8.2 13.75 8.2 13.4 8.7 13.1 9.15 13.1 10.2 L13.25 11.8 13.5 13.6 13.5 14.2 13.4 14.2 13.4 13.9 13.35 13.75 13.1 13.5 Q12.8 13.2 12.5 13.2 L12.6 12.3 12.4 9.85 M-3.4 -19.4 L-3.4 -19.05 -3.75 -19.3 -4.15 -19.35 -5.1 -19.0 -5.5 -18.45 Q-5.15 -19.8 -4.45 -20.0 L-3.8 -19.8 -3.75 -19.75 -3.4 -19.4 M-11.1 0.1 Q-10.7 -0.3 -10.15 -0.3 -9.75 -0.3 -9.7 0.3 L-9.7 1.05 Q-9.7 1.85 -10.05 3.35 L-10.35 5.1 Q-10.45 4.1 -10.9 3.3 -11.5 2.15 -11.5 1.15 -11.5 0.55 -11.1 0.1" fill="#339fff" fill-rule="evenodd" stroke="none"/>
  </g>
</svg>
