<?xml version="1.0" encoding="UTF-8" standalone="no"?>
<svg xmlns:xlink="http://www.w3.org/1999/xlink" height="140.35px" width="137.85px" xmlns="http://www.w3.org/2000/svg">
  <g transform="matrix(1.0, 0.0, 0.0, 1.0, 60.1, 72.1)">
    <path d="M-27.15 58.9 L-26.15 59.05 -25.75 59.5 Q-24.6 60.9 -24.6 62.6 L-24.6 62.9 Q-24.65 65.1 -25.85 66.5 -27.3 68.25 -30.1 68.25 -31.75 68.25 -33.35 66.75 -35.1 65.1 -35.1 63.05 -35.1 61.9 -34.05 60.75 L-33.85 60.5 Q-32.4 59.0 -29.95 58.8 L-29.2 58.75 -27.15 58.9 M-4.85 54.75 Q-4.2 53.85 -2.35 53.85 L-1.65 53.85 -1.25 54.25 Q-0.4 55.05 -0.05 55.85 L0.25 57.15 Q0.25 58.15 -0.25 59.0 -0.9 60.1 -2.1 60.1 -3.15 60.1 -4.25 59.1 -5.35 58.1 -5.35 57.1 L-5.2 55.7 -4.85 54.75 M-55.05 16.35 L-54.45 16.2 -52.75 16.6 Q-51.65 17.05 -51.0 17.85 -49.6 19.45 -49.6 22.95 -49.6 27.2 -51.25 31.5 -53.1 36.3 -55.55 36.35 L-55.6 36.35 Q-57.2 36.35 -58.6 33.85 -60.1 31.15 -60.1 27.4 -60.1 24.15 -58.75 20.75 L-57.45 18.3 Q-56.4 16.8 -55.05 16.35 M-50.0 7.8 L-50.5 8.55 Q-51.15 9.25 -52.0 9.25 L-53.05 9.05 -54.15 8.5 Q-55.15 7.8 -55.15 7.3 -55.15 6.85 -54.75 6.5 L-54.5 6.35 Q-54.05 6.05 -53.35 6.05 L-53.05 6.0 -53.0 6.0 -52.7 6.05 Q-51.9 6.15 -51.15 6.55 L-50.9 6.75 Q-50.0 7.4 -50.0 7.8 M-53.1 -5.25 Q-52.5 -4.9 -52.5 -4.55 -52.5 -4.1 -53.1 -2.9 -53.8 -1.5 -54.6 -1.4 L-54.75 -1.4 -55.35 -1.75 Q-55.75 -2.2 -55.75 -2.9 L-55.6 -3.75 -55.2 -4.45 -54.3 -5.25 -53.95 -5.4 -53.85 -5.45 -53.1 -5.25 M-55.0 -20.6 Q-54.15 -20.55 -53.5 -20.0 -52.9 -19.5 -52.9 -19.0 -52.9 -17.8 -53.65 -16.6 L-53.9 -16.2 Q-54.55 -15.35 -55.3 -15.35 L-56.25 -15.85 Q-56.9 -16.5 -56.9 -17.55 L-56.6 -18.95 -56.15 -20.25 -55.0 -20.6 M-41.9 -62.85 L-41.75 -62.6 -41.5 -61.25 Q-41.5 -60.1 -41.85 -58.5 -42.3 -56.4 -43.15 -55.25 -44.1 -53.85 -46.4 -51.7 -49.45 -48.85 -51.0 -48.85 -52.05 -48.85 -52.75 -49.6 -53.5 -50.4 -53.5 -51.9 -53.5 -54.55 -51.9 -56.85 -50.35 -59.15 -47.0 -61.5 L-44.25 -63.35 -43.6 -63.65 -43.1 -63.85 Q-42.35 -63.85 -41.9 -62.85 M-4.25 -72.0 L-3.95 -71.95 -3.65 -71.8 -2.65 -70.75 Q-1.9 -69.6 -1.9 -68.9 -1.9 -67.85 -2.75 -66.65 -3.5 -65.6 -4.4 -65.35 L-5.05 -65.25 Q-5.8 -65.25 -6.9 -66.0 -8.25 -66.9 -8.25 -68.0 L-8.25 -68.2 Q-8.15 -69.4 -7.0 -70.85 L-5.55 -72.1 -4.25 -72.0 M27.65 51.0 L28.15 51.2 28.45 51.35 Q29.5 51.95 29.5 52.8 28.4 56.35 25.9 56.35 L24.15 56.1 Q23.0 55.75 23.0 55.2 L22.9 54.05 Q22.95 53.25 23.3 52.5 L23.4 52.2 Q23.85 51.25 24.6 50.8 L27.65 51.0 M66.6 27.7 L67.5 28.95 66.85 30.75 Q65.9 32.4 64.35 32.4 63.4 32.4 62.75 31.9 L62.3 31.35 Q62.0 30.85 62.0 30.2 62.0 29.1 62.5 28.25 62.9 27.6 63.55 27.3 64.05 27.0 64.8 26.95 L65.45 27.05 66.6 27.7 M45.6 48.1 Q45.6 46.15 46.0 44.8 46.15 44.05 46.45 43.5 47.6 41.15 50.45 39.8 L51.6 39.35 Q52.6 39.55 53.15 40.8 L53.5 42.1 Q53.5 44.05 52.35 46.45 50.6 50.1 47.25 50.1 45.6 50.1 45.6 48.1 M73.15 -12.7 L73.2 -12.8 Q74.9 -12.05 76.1 -9.75 77.75 -6.65 77.75 -2.5 77.75 0.55 77.1 1.9 76.25 3.65 73.9 3.65 L72.65 3.5 Q70.5 3.05 68.5 0.9 65.75 -2.0 65.75 -5.6 65.75 -9.15 66.6 -10.85 67.2 -12.0 68.25 -12.6 69.4 -13.25 71.05 -13.25 L71.6 -13.2 73.15 -12.7 M62.75 -28.15 L67.75 -28.35 69.4 -27.15 Q71.0 -25.6 71.0 -23.85 71.0 -22.2 69.15 -21.4 67.65 -20.7 65.2 -20.65 L64.7 -20.65 Q59.15 -20.65 59.15 -23.55 59.15 -24.9 59.95 -26.15 60.75 -27.4 62.05 -27.9 L62.75 -28.15 M62.95 -44.15 Q63.75 -42.7 63.75 -41.05 63.75 -36.15 60.1 -36.1 L60.0 -36.1 Q58.75 -36.1 57.75 -37.0 56.5 -38.1 56.5 -39.95 56.5 -41.65 56.95 -43.0 L57.5 -44.25 Q58.5 -45.9 60.05 -46.0 L60.25 -46.0 61.15 -45.85 Q62.25 -45.3 62.95 -44.15 M0.7 -50.15 L0.95 -49.9 1.1 -49.3 Q1.1 -48.0 0.3 -48.0 -0.1 -48.0 -0.65 -48.5 -1.15 -48.95 -1.15 -49.25 L-0.75 -50.0 -0.3 -50.35 0.7 -50.15 M14.05 -65.05 Q15.1 -67.15 16.5 -68.35 L16.75 -68.55 Q18.05 -69.6 19.75 -69.85 L20.55 -70.35 Q23.15 -70.2 23.9 -68.5 24.25 -67.65 24.25 -64.85 L24.2 -63.4 Q23.95 -61.25 23.0 -59.1 21.1 -54.75 17.45 -54.75 15.2 -54.75 13.9 -55.85 12.5 -57.0 12.5 -59.05 L12.65 -60.75 Q12.95 -62.85 14.05 -65.05 M49.4 -56.7 L48.55 -53.75 48.15 -52.85 Q47.3 -51.3 43.85 -49.45 40.15 -47.5 37.5 -47.5 33.45 -47.5 31.5 -49.35 29.4 -51.3 29.4 -55.6 29.4 -59.4 31.05 -62.3 L32.1 -63.9 Q34.75 -67.3 39.0 -68.1 L41.8 -68.0 43.25 -67.95 Q46.7 -67.75 48.15 -66.5 49.9 -65.0 49.9 -61.05 49.9 -59.2 49.4 -56.7" fill="#a68d70" fill-rule="evenodd" stroke="none"/>
  </g>
</svg>
