<?xml version="1.0" encoding="UTF-8" standalone="no"?>
<svg xmlns:xlink="http://www.w3.org/1999/xlink" height="57.2px" width="66.4px" xmlns="http://www.w3.org/2000/svg">
  <g transform="matrix(1.0, 0.0, 0.0, 1.0, 33.2, 28.6)">
    <path d="M-3.45 -13.15 Q-2.7 -16.85 -0.65 -20.5 3.35 -27.8 9.95 -27.6 16.75 -27.35 19.55 -22.15 21.25 -19.0 21.25 -14.65 21.25 -11.45 19.65 -7.7 17.65 -2.8 14.05 -0.85 10.7 1.0 4.8 -3.4 L-0.4 -8.15 -3.45 -13.15 Z" fill="none" stroke="#416409" stroke-linecap="round" stroke-linejoin="round" stroke-width="2.0"/>
    <path d="M-3.45 -13.15 Q-2.7 -16.85 -0.65 -20.5 3.35 -27.8 9.95 -27.6 16.75 -27.35 19.55 -22.15 21.25 -19.0 21.25 -14.65 21.25 -11.45 19.65 -7.7 17.65 -2.8 14.05 -0.85 10.7 1.0 4.8 -3.4 L-0.4 -8.15 -3.45 -13.15" fill="#7cb421" fill-rule="evenodd" stroke="none"/>
    <path d="M4.55 -20.65 Q15.75 -20.9 19.85 -13.4 L20.95 -11.1 19.7 -7.45 Q17.75 -2.5 14.15 -0.55 10.75 1.3 4.85 -3.05 L-0.35 -7.85 -3.35 -12.9 Q-2.7 -16.3 -0.8 -19.75 1.75 -20.6 4.55 -20.65" fill="#3f9306" fill-rule="evenodd" stroke="none"/>
    <path d="M-2.1 -11.4 Q5.7 -5.6 11.55 3.35 L16.15 2.25 13.45 6.45 15.05 9.4 17.85 7.55 16.15 11.55 Q17.75 14.7 19.15 18.3 L23.7 17.8 20.35 21.55 21.4 24.6 Q27.5 20.25 30.5 13.8 36.55 0.75 21.25 -10.15 16.55 -13.5 6.75 -12.75 L-2.1 -11.4 Z" fill="none" stroke="#416409" stroke-linecap="round" stroke-linejoin="round" stroke-width="2.0"/>
    <path d="M-2.1 -11.4 L6.75 -12.75 Q16.55 -13.5 21.25 -10.15 36.55 0.75 30.5 13.8 27.5 20.25 21.4 24.6 L20.35 21.55 23.7 17.8 19.15 18.3 Q17.75 14.7 16.15 11.55 L17.85 7.55 15.05 9.4 13.45 6.45 16.15 2.25 11.55 3.35 Q5.7 -5.6 -2.1 -11.4" fill="#7cb421" fill-rule="evenodd" stroke="none"/>
    <path d="M10.4 -6.4 Q0.85 -8.1 -9.7 -6.3 L-12.0 -10.4 -13.25 -5.65 -16.5 -4.8 -17.0 -8.1 -18.8 -4.15 -25.8 -1.75 -28.5 -5.4 -29.0 -0.45 Q-30.45 0.15 -31.95 0.9 -32.9 -6.55 -30.2 -13.1 -24.75 -26.45 -6.35 -22.55 -0.7 -21.45 5.35 -13.75 L10.4 -6.4 Z" fill="none" stroke="#416409" stroke-linecap="round" stroke-linejoin="round" stroke-width="2.0"/>
    <path d="M10.4 -6.4 L5.35 -13.75 Q-0.7 -21.45 -6.35 -22.55 -24.75 -26.45 -30.2 -13.1 -32.9 -6.55 -31.95 0.9 -30.45 0.15 -29.0 -0.45 L-28.5 -5.4 -25.8 -1.75 -18.8 -4.15 -17.0 -8.1 -16.5 -4.8 -13.25 -5.65 -12.0 -10.4 -9.7 -6.3 Q0.85 -8.1 10.4 -6.4" fill="#7cb421" fill-rule="evenodd" stroke="none"/>
    <path d="M10.4 -6.4 L5.75 -13.1 Q1.45 -16.2 -2.5 -16.7 -25.7 -19.8 -31.35 -2.85 L-32.1 -0.2 -31.95 0.9 Q-30.45 0.15 -29.0 -0.45 L-28.5 -5.4 -25.8 -1.75 -18.8 -4.15 -17.0 -8.1 -16.5 -4.8 -13.25 -5.65 -12.0 -10.4 -9.7 -6.3 Q0.85 -8.1 10.4 -6.4" fill="#3f9306" fill-rule="evenodd" stroke="none"/>
    <path d="M6.05 -12.6 Q11.25 -11.55 14.25 -8.9 32.35 5.9 23.7 21.6 L22.3 24.0 21.4 24.6 20.35 21.55 23.7 17.8 19.15 18.3 Q17.75 14.7 16.15 11.55 L17.85 7.55 15.05 9.4 13.45 6.45 16.15 2.25 11.55 3.35 Q5.7 -5.6 -2.1 -11.4 L6.05 -12.6" fill="#3f9306" fill-rule="evenodd" stroke="none"/>
    <path d="M6.85 -11.35 Q8.7 -9.8 10.25 -1.45 L7.95 -1.0 10.6 0.25 Q11.8 7.25 10.75 11.75 L6.8 11.8 10.05 13.9 9.15 15.45 Q7.5 18.0 3.85 21.2 L-2.4 20.1 1.75 22.7 Q-1.65 24.85 -6.05 26.15 -9.3 27.1 -12.6 27.45 L-15.2 27.6 -16.0 23.55 -14.55 22.7 -16.3 21.1 -16.6 16.95 Q-16.85 10.7 -15.7 5.75 L-12.2 5.35 -15.25 3.85 Q-14.2 0.3 -12.45 -2.55 L-11.0 -4.55 -7.8 -3.85 -9.3 -6.55 Q-5.5 -10.7 -0.6 -11.9 4.7 -13.15 6.85 -11.35 Z" fill="none" stroke="#416409" stroke-linecap="round" stroke-linejoin="round" stroke-width="2.0"/>
    <path d="M6.85 -11.35 Q8.7 -9.8 10.25 -1.45 L7.95 -1.0 10.6 0.25 Q11.8 7.25 10.75 11.75 L6.8 11.8 10.05 13.9 9.15 15.45 Q7.5 18.0 3.85 21.2 L-2.4 20.1 1.75 22.7 Q-1.65 24.85 -6.05 26.15 -9.3 27.1 -12.6 27.45 L-15.2 27.6 -16.0 23.55 -14.55 22.7 -16.3 21.1 -16.6 16.95 Q-16.85 10.7 -15.7 5.75 L-12.2 5.35 -15.25 3.85 Q-14.2 0.3 -12.45 -2.55 L-11.0 -4.55 -7.8 -3.85 -9.3 -6.55 Q-5.5 -10.7 -0.6 -11.9 4.7 -13.15 6.85 -11.35" fill="#7cb421" fill-rule="evenodd" stroke="none"/>
    <path d="M6.85 -11.35 Q8.7 -9.8 10.25 -1.45 L7.95 -1.0 10.6 0.25 Q11.8 7.25 10.75 11.75 L6.8 11.8 10.05 13.9 9.15 15.45 Q7.5 18.0 3.85 21.2 L-2.4 20.1 1.75 22.7 Q-1.65 24.85 -6.05 26.15 -9.3 27.1 -12.6 27.45 L-15.2 27.6 -15.3 27.2 Q-13.2 18.95 -8.7 9.5 -2.35 -3.8 5.4 -12.1 L6.85 -11.35" fill="#3f9306" fill-rule="evenodd" stroke="none"/>
  </g>
</svg>
