<?xml version="1.0" encoding="UTF-8" standalone="no"?>
<svg xmlns:xlink="http://www.w3.org/1999/xlink" height="109.55px" width="113.65px" xmlns="http://www.w3.org/2000/svg">
  <g transform="matrix(1.0, 0.0, 0.0, 1.0, 47.75, 60.85)">
    <path d="M17.5 -16.25 Q10.75 -16.25 7.5 -18.25 L6.0 -19.55 Q3.8 -16.65 -0.45 -13.6 -5.8 -9.75 -9.2 -8.95 L-7.85 -12.75 Q-4.75 -20.45 0.1 -25.45 -6.35 -26.2 -11.8 -30.65 -16.3 -34.3 -17.0 -36.6 -17.6 -32.25 -21.65 -26.95 -25.6 -21.8 -29.3 -20.65 -28.75 -19.85 -28.15 -18.25 -26.9 -14.95 -26.9 -11.55 L-27.3 -8.65 -27.75 -6.15 -25.45 -7.05 Q-22.0 -8.1 -17.55 -8.1 L-15.95 -7.95 -13.3 -1.9 Q-10.25 5.65 -10.25 15.95 -10.25 19.25 -10.8 22.75 L-11.1 24.4 -11.1 24.45 -7.3 23.55 -2.7 22.85 Q5.65 22.85 10.8 26.05 L13.5 28.35 16.15 24.85 Q19.55 20.75 23.5 17.1 30.65 10.55 36.95 7.9 29.5 3.3 25.75 -3.75 22.65 -9.6 22.65 -15.45 L22.7 -16.8 17.5 -16.25 M4.0 -43.45 Q5.15 -46.25 9.7 -49.5 17.9 -55.35 31.1 -55.35 39.05 -55.35 45.75 -47.55 51.9 -40.4 51.9 -33.8 L51.05 -29.0 53.2 -26.85 Q55.5 -23.65 55.5 -19.85 55.5 -17.3 53.95 -14.15 L53.1 -12.5 Q56.35 -11.2 59.65 -6.25 64.4 0.7 64.4 8.8 64.4 14.2 61.2 17.75 57.95 21.35 50.85 23.75 L50.55 26.05 Q49.35 31.1 43.5 34.6 37.15 38.5 30.65 38.5 28.7 38.5 27.2 37.75 26.4 40.25 22.95 43.05 17.7 47.2 11.05 47.2 7.1 47.2 2.45 45.15 -1.9 43.25 -4.15 40.3 -6.0 41.95 -9.3 43.45 -16.2 46.55 -26.0 46.55 -34.55 46.55 -40.25 41.7 -46.25 36.5 -46.25 27.85 -46.25 18.65 -40.85 12.5 L-38.3 10.15 Q-40.2 9.1 -41.4 7.75 -43.95 4.75 -43.95 -0.3 -43.95 -4.1 -41.7 -7.85 L-40.5 -9.6 -41.3 -10.85 Q-42.3 -12.65 -43.35 -15.4 -45.55 -21.45 -45.55 -26.65 -45.55 -38.1 -38.1 -48.15 -29.8 -59.35 -18.0 -59.35 -10.0 -59.35 -5.75 -52.3 -4.1 -49.5 -1.75 -41.65 L-0.8 -42.4 Q1.1 -43.7 2.6 -43.7 L4.0 -43.45" fill="#a68d70" fill-rule="evenodd" stroke="none"/>
    <path d="M17.5 -16.25 L22.7 -16.8 22.65 -15.45 Q22.65 -9.6 25.75 -3.75 29.5 3.3 36.95 7.9 30.65 10.55 23.5 17.1 19.55 20.75 16.15 24.85 L13.5 28.35 10.8 26.05 Q5.65 22.85 -2.7 22.85 L-7.3 23.55 -11.1 24.45 -11.1 24.4 -10.8 22.75 Q-10.25 19.25 -10.25 15.95 -10.25 5.65 -13.3 -1.9 L-15.95 -7.95 -17.55 -8.1 Q-22.0 -8.1 -25.45 -7.05 L-27.75 -6.15 -27.3 -8.65 -26.9 -11.55 Q-26.9 -14.95 -28.15 -18.25 -28.75 -19.85 -29.3 -20.65 -25.6 -21.8 -21.65 -26.95 -17.6 -32.25 -17.0 -36.6 -16.3 -34.3 -11.8 -30.65 -6.35 -26.2 0.1 -25.45 -4.75 -20.45 -7.85 -12.75 L-9.2 -8.95 Q-5.8 -9.75 -0.45 -13.6 3.8 -16.65 6.0 -19.55 L7.5 -18.25 Q10.75 -16.25 17.5 -16.25 M4.0 -43.45 Q5.15 -46.25 9.7 -49.5 17.9 -55.35 31.1 -55.35 39.05 -55.35 45.75 -47.55 51.9 -40.4 51.9 -33.8 L51.05 -29.0 53.2 -26.85 Q55.5 -23.65 55.5 -19.85 55.5 -17.3 53.95 -14.15 L53.1 -12.5 Q56.35 -11.2 59.65 -6.25 64.4 0.7 64.4 8.8 64.4 14.2 61.2 17.75 57.95 21.35 50.85 23.75 L50.55 26.05 Q49.35 31.1 43.5 34.6 37.15 38.5 30.65 38.5 28.7 38.5 27.2 37.75 26.4 40.25 22.95 43.05 17.7 47.2 11.05 47.2 7.1 47.2 2.45 45.15 -1.9 43.25 -4.15 40.3 -6.0 41.95 -9.3 43.45 -16.2 46.55 -26.0 46.55 -34.55 46.55 -40.25 41.7 -46.25 36.5 -46.25 27.85 -46.25 18.65 -40.85 12.5 L-38.3 10.15 Q-40.2 9.1 -41.4 7.75 -43.95 4.75 -43.95 -0.3 -43.95 -4.1 -41.7 -7.85 L-40.5 -9.6 -41.3 -10.85 Q-42.3 -12.65 -43.35 -15.4 -45.55 -21.45 -45.55 -26.65 -45.55 -38.1 -38.1 -48.15 -29.8 -59.35 -18.0 -59.35 -10.0 -59.35 -5.75 -52.3 -4.1 -49.5 -1.75 -41.65 L-0.8 -42.4 Q1.1 -43.7 2.6 -43.7 L4.0 -43.45" fill="none" stroke="#a68d70" stroke-linecap="round" stroke-linejoin="round" stroke-width="3.0"/>
    <path d="M7.5 -18.25 L6.0 -19.55 Q3.8 -16.65 -0.45 -13.6 -5.8 -9.75 -9.2 -8.95 L-7.85 -12.75 Q-4.75 -20.45 0.1 -25.45 -6.35 -26.2 -11.8 -30.65 -16.3 -34.3 -17.0 -36.6 -17.6 -32.25 -21.65 -26.95 -25.6 -21.8 -29.3 -20.65 -28.75 -19.85 -28.15 -18.25 -26.9 -14.95 -26.9 -11.55 L-27.3 -8.65 -27.75 -6.15 -25.45 -7.05 Q-22.0 -8.1 -17.55 -8.1 L-15.95 -7.95 -13.3 -1.9 Q-10.25 5.65 -10.25 15.95 -10.25 19.25 -10.8 22.75 L-11.1 24.4 -11.1 24.45 -7.3 23.55 -2.7 22.85 Q5.65 22.85 10.8 26.05 L13.5 28.35 16.15 24.85 Q19.55 20.75 23.5 17.1 30.65 10.55 36.95 7.9 29.5 3.3 25.75 -3.75 22.65 -9.6 22.65 -15.45 L22.7 -16.8 17.5 -16.25 Q10.75 -16.25 7.5 -18.25 M4.0 -43.45 Q5.15 -46.25 9.7 -49.5 17.9 -55.35 31.1 -55.35 39.05 -55.35 45.75 -47.55 51.9 -40.4 51.9 -33.8 L51.05 -29.0 53.2 -26.85 Q55.5 -23.65 55.5 -19.85 55.5 -17.3 53.95 -14.15 L53.1 -12.5 Q56.35 -11.2 59.65 -6.25 64.4 0.7 64.4 8.8 64.4 14.2 61.2 17.75 57.95 21.35 50.85 23.75 L50.55 26.05 Q49.35 31.1 43.5 34.6 37.15 38.5 30.65 38.5 28.7 38.5 27.2 37.75 26.4 40.25 22.95 43.05 17.7 47.2 11.05 47.2 7.1 47.2 2.45 45.15 -1.9 43.25 -4.15 40.3 -6.0 41.95 -9.3 43.45 -16.2 46.55 -26.0 46.55 -34.55 46.55 -40.25 41.7 -46.25 36.5 -46.25 27.85 -46.25 18.65 -40.85 12.5 L-38.3 10.15 Q-40.2 9.1 -41.4 7.75 -43.95 4.75 -43.95 -0.3 -43.95 -4.1 -41.7 -7.85 L-40.5 -9.6 -41.3 -10.85 Q-42.3 -12.65 -43.35 -15.4 -45.55 -21.45 -45.55 -26.65 -45.55 -38.1 -38.1 -48.15 -29.8 -59.35 -18.0 -59.35 -10.0 -59.35 -5.75 -52.3 -4.1 -49.5 -1.75 -41.65 L-0.8 -42.4 Q1.1 -43.7 2.6 -43.7 L4.0 -43.45" fill="#f3dabd" fill-rule="evenodd" stroke="none"/>
  </g>
</svg>
