<?xml version="1.0" encoding="UTF-8" standalone="no"?>
<svg xmlns:xlink="http://www.w3.org/1999/xlink" height="150.25px" width="159.3px" xmlns="http://www.w3.org/2000/svg">
  <g transform="matrix(1.0, 0.0, 0.0, 1.0, 72.65, 76.25)">
    <path d="M-30.75 72.35 L-31.3 72.5 -31.4 72.5 -31.75 72.45 -31.9 72.35 -31.9 71.5 -31.15 71.5 -31.0 71.7 -30.9 71.9 Q-30.75 72.15 -30.75 72.35 M-69.4 28.4 L-69.25 28.35 Q-68.5 28.35 -68.5 29.0 -68.5 29.45 -69.15 30.1 L-69.2 30.15 Q-69.9 30.85 -70.6 30.85 L-71.0 30.85 -71.15 30.4 Q-71.15 29.75 -70.6 29.25 L-70.35 29.1 -69.4 28.4 M-68.25 20.1 L-68.25 19.75 -67.95 19.6 -67.65 19.4 -67.65 19.35 -67.0 19.35 -67.0 19.6 -67.65 20.1 -68.25 20.1 M-55.1 -61.65 L-54.9 -61.0 -55.75 -61.0 -55.9 -61.5 -55.4 -61.75 -55.1 -61.65 M-51.9 -65.15 L-51.9 -65.3 -51.8 -65.65 -51.65 -65.75 -51.15 -65.9 -51.0 -65.9 -50.75 -65.65 -50.95 -65.15 Q-51.2 -64.9 -51.45 -64.9 L-51.65 -64.9 -51.9 -65.15 M83.9 -6.4 L84.35 -6.9 84.7 -6.6 84.8 -6.55 Q85.15 -6.45 85.15 -6.15 84.95 -4.9 84.45 -4.9 84.35 -4.9 83.95 -5.15 83.5 -5.45 83.5 -5.7 L83.7 -6.05 83.9 -6.4 M80.95 -12.15 L80.45 -12.65 80.0 -13.4 80.85 -13.9 80.95 -13.9 81.0 -13.85 Q81.3 -13.85 81.45 -13.65 L81.5 -13.6 82.0 -12.9 81.55 -12.45 81.55 -12.4 80.95 -12.15 M39.4 -74.2 L39.5 -74.2 Q40.0 -74.05 40.0 -73.6 L40.0 -73.5 Q39.6 -72.35 39.0 -72.35 38.9 -72.35 38.75 -72.5 L38.6 -72.75 Q38.6 -73.05 38.95 -73.55 L39.05 -73.75 39.4 -74.2 M20.25 -74.55 L20.5 -74.75 Q21.05 -74.65 21.2 -74.35 L21.25 -74.15 21.05 -73.9 20.5 -73.5 20.1 -74.1 20.25 -74.55 M48.85 -71.85 L48.5 -72.0 48.5 -72.75 48.9 -73.55 49.1 -73.75 49.4 -73.85 49.85 -73.75 49.85 -73.1 Q49.25 -71.85 48.85 -71.85" fill="#a68d70" fill-rule="evenodd" stroke="none"/>
    <path d="M48.85 -71.85 Q49.25 -71.85 49.85 -73.1 L49.85 -73.75 49.4 -73.85 49.1 -73.75 48.9 -73.55 48.5 -72.75 48.5 -72.0 48.85 -71.85 M20.25 -74.55 L20.1 -74.1 20.5 -73.5 21.05 -73.9 21.25 -74.15 21.2 -74.35 Q21.05 -74.65 20.5 -74.75 L20.25 -74.55 M39.4 -74.2 L39.05 -73.75 38.95 -73.55 Q38.6 -73.05 38.6 -72.75 L38.75 -72.5 Q38.9 -72.35 39.0 -72.35 39.6 -72.35 40.0 -73.5 L40.0 -73.6 Q40.0 -74.05 39.5 -74.2 L39.4 -74.2 M80.95 -12.15 L81.55 -12.4 81.55 -12.45 82.0 -12.9 81.5 -13.6 81.45 -13.65 Q81.3 -13.85 81.0 -13.85 L80.95 -13.9 80.85 -13.9 80.0 -13.4 80.45 -12.65 80.95 -12.15 M83.9 -6.4 L83.7 -6.05 83.5 -5.7 Q83.5 -5.45 83.95 -5.15 84.35 -4.9 84.45 -4.9 84.95 -4.9 85.15 -6.15 85.15 -6.45 84.8 -6.55 L84.7 -6.6 84.35 -6.9 83.9 -6.4 M-51.9 -65.15 L-51.65 -64.9 -51.45 -64.9 Q-51.2 -64.9 -50.95 -65.15 L-50.75 -65.65 -51.0 -65.9 -51.15 -65.9 -51.65 -65.75 -51.8 -65.65 -51.9 -65.3 -51.9 -65.15 M-55.1 -61.65 L-55.4 -61.75 -55.9 -61.5 -55.75 -61.0 -54.9 -61.0 -55.1 -61.65 M-68.25 20.1 L-67.65 20.1 -67.0 19.6 -67.0 19.35 -67.65 19.35 -67.65 19.4 -67.95 19.6 -68.25 19.75 -68.25 20.1 M-69.4 28.4 L-70.35 29.1 -70.6 29.25 Q-71.15 29.75 -71.15 30.4 L-71.0 30.85 -70.6 30.85 Q-69.9 30.85 -69.2 30.15 L-69.15 30.1 Q-68.5 29.45 -68.5 29.0 -68.5 28.35 -69.25 28.35 L-69.4 28.4 M-30.75 72.35 Q-30.75 72.15 -30.9 71.9 L-31.0 71.7 -31.15 71.5 -31.9 71.5 -31.9 72.35 -31.75 72.45 -31.4 72.5 -31.3 72.5 -30.75 72.35" fill="none" stroke="#a68d70" stroke-linecap="round" stroke-linejoin="round" stroke-width="3.0"/>
    <path d="M-30.75 72.35 L-31.3 72.5 -31.4 72.5 -31.75 72.45 -31.9 72.35 -31.9 71.5 -31.15 71.5 -31.0 71.7 -30.9 71.9 Q-30.75 72.15 -30.75 72.35 M-69.25 28.35 Q-68.5 28.35 -68.5 29.0 -68.5 29.45 -69.15 30.1 L-69.2 30.15 Q-69.9 30.85 -70.6 30.85 L-71.0 30.85 -71.15 30.4 Q-71.15 29.75 -70.6 29.25 L-70.35 29.1 -69.4 28.4 -69.25 28.35 M-67.65 19.4 L-67.65 19.35 -67.0 19.35 -67.0 19.6 -67.65 20.1 -68.25 20.1 -68.25 19.75 -67.95 19.6 -67.65 19.4 M-55.1 -61.65 L-54.9 -61.0 -55.75 -61.0 -55.9 -61.5 -55.4 -61.75 -55.1 -61.65 M-51.9 -65.15 L-51.9 -65.3 -51.8 -65.65 -51.65 -65.75 -51.15 -65.9 -51.0 -65.9 -50.75 -65.65 -50.95 -65.15 Q-51.2 -64.9 -51.45 -64.9 L-51.65 -64.9 -51.9 -65.15 M84.35 -6.9 L84.7 -6.6 84.8 -6.55 Q85.15 -6.45 85.15 -6.15 84.95 -4.9 84.45 -4.9 84.35 -4.9 83.95 -5.15 83.5 -5.45 83.5 -5.7 L83.7 -6.05 83.9 -6.4 84.35 -6.9 M80.0 -13.4 L80.85 -13.9 80.95 -13.9 81.0 -13.85 Q81.3 -13.85 81.45 -13.65 L81.5 -13.6 82.0 -12.9 81.55 -12.45 81.55 -12.4 80.95 -12.15 80.45 -12.65 80.0 -13.4 M39.4 -74.2 L39.5 -74.2 Q40.0 -74.05 40.0 -73.6 L40.0 -73.5 Q39.6 -72.35 39.0 -72.35 38.9 -72.35 38.75 -72.5 L38.6 -72.75 Q38.6 -73.05 38.95 -73.55 L39.05 -73.75 39.4 -74.2 M20.5 -74.75 Q21.05 -74.65 21.2 -74.35 L21.25 -74.15 21.05 -73.9 20.5 -73.5 20.1 -74.1 20.25 -74.55 20.5 -74.75 M49.85 -73.75 L49.85 -73.1 Q49.25 -71.85 48.85 -71.85 L48.5 -72.0 48.5 -72.75 48.9 -73.55 49.1 -73.75 49.4 -73.85 49.85 -73.75" fill="#f3dabd" fill-rule="evenodd" stroke="none"/>
  </g>
</svg>
