<?xml version="1.0" encoding="UTF-8" standalone="no"?>
<svg xmlns:xlink="http://www.w3.org/1999/xlink" height="159.0px" width="159.05px" xmlns="http://www.w3.org/2000/svg">
  <g transform="matrix(1.0, 0.0, 0.0, 1.0, 79.5, 79.5)">
    <path d="M56.2 -56.2 Q79.55 -32.9 79.55 0.0 79.55 32.9 56.2 56.2 32.9 79.5 0.0 79.5 -32.9 79.5 -56.2 56.2 -79.5 32.9 -79.5 0.0 -79.5 -32.9 -56.2 -56.2 -32.9 -79.5 0.0 -79.5 32.9 -79.5 56.2 -56.2 M43.45 -43.45 Q25.45 -61.5 0.0 -61.5 -25.5 -61.5 -43.5 -43.45 -61.55 -25.45 -61.55 0.0 -61.55 25.5 -43.5 43.5 -25.5 61.55 0.0 61.55 25.45 61.55 43.45 43.5 61.55 25.5 61.55 0.0 61.55 -25.45 43.45 -43.45" fill="#b8ebfc" fill-rule="evenodd" stroke="none"/>
  </g>
</svg>
