<?xml version="1.0" encoding="UTF-8" standalone="no"?>
<svg xmlns:xlink="http://www.w3.org/1999/xlink" height="319.9px" width="312.4px" xmlns="http://www.w3.org/2000/svg">
  <g transform="matrix(1.0, 0.0, 0.0, 1.0, 154.3, 157.0)">
    <path d="M-144.85 -39.85 Q-134.8 -49.85 -120.1 -50.4 -105.45 -50.95 -94.75 -41.75 -83.95 -32.55 -83.45 -18.95 -82.9 -5.35 -92.95 4.65 -102.9 14.65 -117.55 15.2 -132.25 15.75 -143.05 6.55 -153.75 -2.65 -154.3 -16.25 -154.8 -29.85 -144.85 -39.85" fill="#3ea7d4" fill-rule="evenodd" stroke="none"/>
    <path d="M-99.4 -112.6 Q-84.2 -113.15 -72.95 -101.1 -61.65 -88.9 -61.0 -71.25 -60.3 -53.55 -70.6 -40.65 -80.9 -27.65 -96.1 -27.1 -111.35 -26.5 -122.55 -38.6 -133.8 -50.7 -134.5 -68.4 -135.15 -86.05 -124.9 -99.05 -114.65 -112.0 -99.4 -112.6" fill="#3ea7d4" fill-rule="evenodd" stroke="none"/>
    <path d="M-57.6 -81.15 Q-67.3 -70.3 -81.6 -69.75 -95.9 -69.2 -106.5 -79.25 -117.0 -89.3 -117.55 -104.0 -118.15 -118.75 -108.45 -129.55 -98.65 -140.3 -84.35 -140.85 -70.05 -141.4 -59.55 -131.45 -48.95 -121.4 -48.35 -106.65 -47.8 -91.95 -57.6 -81.15" fill="#3ea7d4" fill-rule="evenodd" stroke="none"/>
    <path d="M38.95 -107.3 Q29.65 -98.55 16.0 -98.05 2.3 -97.5 -7.7 -105.5 -17.6 -113.3 -18.05 -125.0 -18.5 -136.65 -9.25 -145.35 0.1 -153.95 13.8 -154.5 27.45 -155.0 37.4 -147.15 47.4 -139.2 47.85 -127.55 48.3 -115.85 38.95 -107.3" fill="#3ea7d4" fill-rule="evenodd" stroke="none"/>
    <path d="M113.25 -116.45 Q113.9 -99.0 102.15 -86.25 90.45 -73.4 73.3 -72.7 56.1 -72.05 43.4 -84.0 30.75 -95.75 30.1 -113.2 29.4 -130.65 41.1 -143.55 52.85 -156.3 70.05 -156.95 87.2 -157.65 99.85 -145.8 112.55 -133.9 113.25 -116.45" fill="#3ea7d4" fill-rule="evenodd" stroke="none"/>
    <path d="M128.95 -112.7 Q139.25 -113.1 146.75 -104.95 154.45 -96.8 154.9 -84.85 155.35 -72.95 148.35 -64.25 141.45 -55.55 131.15 -55.15 120.8 -54.75 113.2 -62.85 105.6 -71.05 105.15 -82.95 104.7 -94.9 111.6 -103.55 118.6 -112.3 128.95 -112.7" fill="#3ea7d4" fill-rule="evenodd" stroke="none"/>
    <path d="M124.55 -56.8 Q129.4 -64.3 136.6 -64.6 143.85 -64.85 149.25 -57.75 154.65 -50.6 155.05 -40.2 155.45 -29.75 150.6 -22.25 145.8 -14.7 138.55 -14.45 131.35 -14.15 125.9 -21.3 120.5 -28.4 120.1 -38.85 119.7 -49.25 124.55 -56.8" fill="#3ea7d4" fill-rule="evenodd" stroke="none"/>
    <path d="M124.55 -56.8 Q129.4 -64.3 136.6 -64.6 143.85 -64.85 149.25 -57.75 154.65 -50.6 155.05 -40.2 155.45 -29.75 150.6 -22.25 145.8 -14.7 138.55 -14.45 131.35 -14.15 125.9 -21.3 120.5 -28.4 120.1 -38.85 119.7 -49.25 124.55 -56.8 Z" fill="none" stroke="#a80f06" stroke-linecap="round" stroke-linejoin="round" stroke-opacity="0.0" stroke-width="6.0"/>
    <path d="M139.45 57.35 Q133.3 65.25 124.15 65.6 115.0 65.95 108.25 58.55 101.55 51.2 101.1 40.3 100.7 29.45 106.8 21.5 113.0 13.65 122.15 13.3 131.3 12.95 138.0 20.3 144.8 27.75 145.2 38.6 145.65 49.5 139.45 57.35" fill="#3ea7d4" fill-rule="evenodd" stroke="none"/>
    <path d="M139.45 57.35 Q133.3 65.25 124.15 65.6 115.0 65.95 108.25 58.55 101.55 51.2 101.1 40.3 100.7 29.45 106.8 21.5 113.0 13.65 122.15 13.3 131.3 12.95 138.0 20.3 144.8 27.75 145.2 38.6 145.65 49.5 139.45 57.35 Z" fill="none" stroke="#a80f06" stroke-linecap="round" stroke-linejoin="round" stroke-opacity="0.0" stroke-width="6.0"/>
    <path d="M-98.8 4.75 Q-89.65 13.4 -89.15 26.05 -88.65 38.7 -97.15 47.95 -105.6 57.25 -118.1 57.75 -130.6 58.25 -139.8 49.55 -148.9 41.0 -149.4 28.35 -149.9 15.7 -141.45 6.35 -132.95 -2.85 -120.45 -3.35 -107.95 -3.85 -98.8 4.75" fill="#3ea7d4" fill-rule="evenodd" stroke="none"/>
    <path d="M-98.8 4.75 Q-89.65 13.4 -89.15 26.05 -88.65 38.7 -97.15 47.95 -105.6 57.25 -118.1 57.75 -130.6 58.25 -139.8 49.55 -148.9 41.0 -149.4 28.35 -149.9 15.7 -141.45 6.35 -132.95 -2.85 -120.45 -3.35 -107.95 -3.85 -98.8 4.75 Z" fill="none" stroke="#a80f06" stroke-linecap="round" stroke-linejoin="round" stroke-opacity="0.0" stroke-width="6.0"/>
    <path d="M-71.55 55.25 Q-62.45 61.8 -62.05 71.55 -61.7 81.35 -70.25 88.55 -78.8 95.8 -91.3 96.25 -103.8 96.75 -112.9 90.2 -121.95 83.7 -122.3 73.9 -122.7 64.15 -114.2 56.9 -105.6 49.7 -93.1 49.2 -80.6 48.75 -71.55 55.25" fill="#3ea7d4" fill-rule="evenodd" stroke="none"/>
    <path d="M-71.55 55.25 Q-62.45 61.8 -62.05 71.55 -61.7 81.35 -70.25 88.55 -78.8 95.8 -91.3 96.25 -103.8 96.75 -112.9 90.2 -121.95 83.7 -122.3 73.9 -122.7 64.15 -114.2 56.9 -105.6 49.7 -93.1 49.2 -80.6 48.75 -71.55 55.25 Z" fill="none" stroke="#a80f06" stroke-linecap="round" stroke-linejoin="round" stroke-opacity="0.0" stroke-width="6.0"/>
    <path d="M-87.2 115.35 Q-87.65 103.8 -78.75 95.3 -69.85 86.9 -56.8 86.4 -43.7 85.9 -34.15 93.55 -24.6 101.35 -24.15 112.9 -23.7 124.45 -32.65 132.85 -41.55 141.45 -54.65 141.95 -67.7 142.45 -77.25 134.6 -86.75 126.9 -87.2 115.35" fill="#3ea7d4" fill-rule="evenodd" stroke="none"/>
    <path d="M-87.2 115.35 Q-87.65 103.8 -78.75 95.3 -69.85 86.9 -56.8 86.4 -43.7 85.9 -34.15 93.55 -24.6 101.35 -24.15 112.9 -23.7 124.45 -32.65 132.85 -41.55 141.45 -54.65 141.95 -67.7 142.45 -77.25 134.6 -86.75 126.9 -87.2 115.35 Z" fill="none" stroke="#a80f06" stroke-linecap="round" stroke-linejoin="round" stroke-opacity="0.0" stroke-width="6.0"/>
    <path d="M10.8 151.15 Q3.35 159.4 -7.65 159.8 -18.6 160.25 -26.75 152.6 -34.75 145.0 -35.2 133.75 -35.6 122.5 -28.25 114.25 -20.7 106.05 -9.75 105.6 1.25 105.2 9.3 112.8 17.45 120.45 17.85 131.7 18.3 142.95 10.8 151.15" fill="#3ea7d4" fill-rule="evenodd" stroke="none"/>
    <path d="M10.8 151.15 Q3.35 159.4 -7.65 159.8 -18.6 160.25 -26.75 152.6 -34.75 145.0 -35.2 133.75 -35.6 122.5 -28.25 114.25 -20.7 106.05 -9.75 105.6 1.25 105.2 9.3 112.8 17.45 120.45 17.85 131.7 18.3 142.95 10.8 151.15 Z" fill="none" stroke="#a80f06" stroke-linecap="round" stroke-linejoin="round" stroke-opacity="0.0" stroke-width="6.0"/>
    <path d="M40.9 78.55 Q56.0 77.95 67.0 86.75 78.05 95.65 78.55 108.7 79.05 121.7 68.7 131.3 58.45 141.0 43.35 141.6 28.3 142.15 17.25 133.3 6.2 124.5 5.7 111.5 5.2 98.45 15.55 88.75 25.85 79.1 40.9 78.55" fill="#3ea7d4" fill-rule="evenodd" stroke="none"/>
    <path d="M40.9 78.55 Q56.0 77.95 67.0 86.75 78.05 95.65 78.55 108.7 79.05 121.7 68.7 131.3 58.45 141.0 43.35 141.6 28.3 142.15 17.25 133.3 6.2 124.5 5.7 111.5 5.2 98.45 15.55 88.75 25.85 79.1 40.9 78.55 Z" fill="none" stroke="#a80f06" stroke-linecap="round" stroke-linejoin="round" stroke-opacity="0.0" stroke-width="6.0"/>
    <path d="M121.8 61.35 Q130.7 70.95 131.25 84.95 131.75 98.95 123.65 109.15 115.65 119.35 103.65 119.8 91.65 120.25 82.75 110.75 73.9 101.15 73.4 87.15 72.85 73.15 80.9 62.95 89.05 52.75 101.05 52.3 113.05 51.85 121.8 61.35" fill="#3ea7d4" fill-rule="evenodd" stroke="none"/>
    <path d="M121.8 61.35 Q130.7 70.95 131.25 84.95 131.75 98.95 123.65 109.15 115.65 119.35 103.65 119.8 91.65 120.25 82.75 110.75 73.9 101.15 73.4 87.15 72.85 73.15 80.9 62.95 89.05 52.75 101.05 52.3 113.05 51.85 121.8 61.35 Z" fill="none" stroke="#a80f06" stroke-linecap="round" stroke-linejoin="round" stroke-opacity="0.0" stroke-width="6.0"/>
    <path d="M-121.4 26.85 Q-114.1 13.85 -101.2 11.7 -88.25 9.55 -77.25 19.55 -66.2 29.6 -63.5 45.85 -60.8 62.15 -68.05 75.1 -75.2 88.2 -88.15 90.35 -101.05 92.5 -112.2 82.4 -123.15 72.5 -125.85 56.2 -128.55 39.95 -121.4 26.85" fill="#4dbee5" fill-rule="evenodd" stroke="none"/>
    <path d="M-117.6 -27.85 Q-106.7 -29.65 -97.5 -21.75 -88.2 -13.9 -86.05 -1.0 -83.9 11.95 -90.15 22.4 -96.35 32.9 -107.25 34.7 -118.15 36.5 -127.35 28.6 -136.55 20.7 -138.7 7.75 -140.85 -5.15 -134.7 -15.55 -128.5 -26.05 -117.6 -27.85" fill="#4dbee5" fill-rule="evenodd" stroke="none"/>
    <path d="M-56.85 77.05 Q-50.45 76.0 -45.05 80.7 -39.5 85.45 -38.25 93.15 -36.95 100.9 -40.65 107.05 -44.25 113.3 -50.65 114.35 -57.05 115.4 -62.5 110.7 -67.95 106.05 -69.25 98.3 -70.5 90.6 -66.9 84.35 -63.25 78.1 -56.85 77.05" fill="#4dbee5" fill-rule="evenodd" stroke="none"/>
    <path d="M28.15 84.5 Q31.1 102.15 21.05 116.65 11.1 131.15 -6.0 133.95 -23.15 136.8 -37.35 126.35 -51.4 115.8 -54.35 98.15 -57.25 80.5 -47.35 66.05 -37.35 51.5 -20.2 48.65 -3.1 45.85 11.05 56.35 25.25 66.85 28.15 84.5" fill="#4dbee5" fill-rule="evenodd" stroke="none"/>
    <path d="M89.35 93.45 Q91.05 103.85 82.7 112.8 74.35 121.75 60.75 124.05 47.2 126.3 36.35 120.5 25.55 114.7 23.85 104.3 22.1 93.85 30.45 84.9 38.85 75.95 52.4 73.7 66.0 71.4 76.8 77.2 87.6 83.0 89.35 93.45" fill="#4dbee5" fill-rule="evenodd" stroke="none"/>
    <path d="M122.25 47.35 Q133.25 53.4 135.0 64.05 136.8 74.7 128.3 83.85 119.85 93.1 106.05 95.35 92.2 97.65 81.25 91.7 70.25 85.75 68.45 75.1 66.7 64.45 75.2 55.2 83.65 46.05 97.5 43.75 111.3 41.5 122.25 47.35" fill="#4dbee5" fill-rule="evenodd" stroke="none"/>
    <path d="M-83.8 -40.6 Q-71.2 -42.7 -60.25 -31.75 -49.3 -20.8 -46.35 -3.25 -43.45 14.35 -50.3 28.2 -57.15 42.1 -69.75 44.2 -82.3 46.25 -93.25 35.35 -104.2 24.4 -107.1 6.8 -110.05 -10.75 -103.2 -24.6 -96.35 -38.55 -83.8 -40.6" fill="#4dbee5" fill-rule="evenodd" stroke="none"/>
    <path d="M-44.25 -77.6 Q-41.25 -59.35 -50.7 -44.55 -60.1 -29.6 -76.45 -26.9 -92.85 -24.2 -106.55 -35.25 -120.25 -46.25 -123.25 -64.5 -126.3 -82.8 -116.9 -97.7 -107.5 -112.55 -91.1 -115.25 -74.75 -117.95 -61.05 -107.0 -47.3 -95.9 -44.25 -77.6" fill="#4dbee5" fill-rule="evenodd" stroke="none"/>
    <path d="M-8.55 -113.75 Q-7.3 -106.35 -13.65 -99.95 -19.95 -93.55 -30.2 -91.85 -40.4 -90.15 -48.45 -94.15 -56.5 -98.15 -57.75 -105.55 -58.95 -112.95 -52.65 -119.4 -46.3 -125.75 -36.1 -127.45 -25.85 -129.15 -17.85 -125.2 -9.75 -121.15 -8.55 -113.75" fill="#4dbee5" fill-rule="evenodd" stroke="none"/>
    <path d="M-2.9 -101.1 Q8.6 -94.5 10.55 -82.8 12.5 -71.15 3.7 -61.15 -4.95 -51.2 -19.2 -48.85 -33.45 -46.45 -44.95 -53.1 -56.4 -59.7 -58.35 -71.35 -60.3 -83.05 -51.55 -93.05 -42.85 -102.95 -28.6 -105.35 -14.35 -107.7 -2.9 -101.1" fill="#4dbee5" fill-rule="evenodd" stroke="none"/>
    <path d="M88.4 -131.7 Q90.1 -121.4 82.45 -112.7 74.75 -103.95 62.3 -101.9 49.8 -99.8 39.75 -105.65 29.7 -111.35 28.0 -121.65 26.3 -131.95 33.95 -140.75 41.6 -149.4 54.1 -151.5 66.55 -153.55 76.65 -147.8 86.7 -142.0 88.4 -131.7" fill="#4dbee5" fill-rule="evenodd" stroke="none"/>
    <path d="M126.3 -78.2 Q119.0 -70.35 107.15 -68.4 95.3 -66.4 85.8 -71.45 76.35 -76.55 74.85 -85.65 73.3 -94.8 80.65 -102.65 87.95 -110.5 99.8 -112.5 111.65 -114.45 121.15 -109.4 130.6 -104.35 132.15 -95.2 133.65 -86.1 126.3 -78.2" fill="#4dbee5" fill-rule="evenodd" stroke="none"/>
    <path d="M130.35 -80.65 Q141.95 -72.9 144.2 -59.6 146.4 -46.25 137.9 -35.15 129.45 -24.05 115.25 -21.7 101.0 -19.35 89.4 -27.1 77.85 -34.85 75.65 -48.2 73.4 -61.5 81.85 -72.6 90.35 -83.7 104.6 -86.05 118.8 -88.4 130.35 -80.65" fill="#4dbee5" fill-rule="evenodd" stroke="none"/>
    <path d="M143.7 2.55 Q137.25 11.65 126.35 13.5 115.45 15.3 106.4 8.7 97.45 2.25 95.6 -8.85 93.75 -19.95 100.15 -29.1 106.6 -38.1 117.5 -39.9 128.4 -41.75 137.45 -35.25 146.45 -28.7 148.3 -17.6 150.15 -6.5 143.7 2.55" fill="#4dbee5" fill-rule="evenodd" stroke="none"/>
    <path d="M57.7 39.75 Q67.95 47.1 70.05 59.6 72.15 72.15 64.8 82.5 57.4 92.75 44.9 94.8 32.35 96.9 22.1 89.55 11.8 82.2 9.7 69.65 7.6 57.15 15.0 46.8 22.35 36.55 34.9 34.45 47.4 32.4 57.7 39.75" fill="#4dbee5" fill-rule="evenodd" stroke="none"/>
    <path d="M-99.05 5.75 Q-96.9 14.35 -100.35 21.65 -103.7 28.9 -110.6 30.65 -117.5 32.35 -123.9 27.55 -130.3 22.75 -132.45 14.15 -134.6 5.6 -131.25 -1.7 -127.85 -9.05 -120.95 -10.75 -114.05 -12.5 -107.7 -7.6 -101.2 -2.8 -99.05 5.75" fill="#5fd6ff" fill-rule="evenodd" stroke="none"/>
    <path d="M-82.15 -27.2 Q-72.0 -29.75 -62.25 -21.5 -52.6 -13.25 -49.05 0.95 -45.5 15.15 -50.1 27.05 -54.75 38.9 -64.9 41.45 -75.1 44.0 -84.8 35.75 -94.55 27.45 -98.1 13.25 -101.65 -0.95 -96.95 -12.8 -92.35 -24.65 -82.15 -27.2" fill="#5fd6ff" fill-rule="evenodd" stroke="none"/>
    <path d="M-65.15 43.5 Q-57.0 49.6 -54.35 60.3 -51.65 71.0 -55.95 80.15 -60.15 89.3 -68.85 91.45 -77.6 93.65 -85.7 87.6 -93.7 81.55 -96.4 70.85 -99.05 60.15 -94.9 50.95 -90.55 41.85 -81.8 39.65 -73.1 37.5 -65.15 43.5" fill="#5fd6ff" fill-rule="evenodd" stroke="none"/>
    <path d="M-38.15 70.95 Q-30.5 58.3 -16.15 54.7 -1.8 51.1 10.85 58.65 23.65 66.3 27.25 80.65 30.85 95.0 23.15 107.65 15.6 120.45 1.25 124.05 -13.1 127.65 -25.85 119.95 -38.55 112.4 -42.15 98.05 -45.75 83.7 -38.15 70.95" fill="#5fd6ff" fill-rule="evenodd" stroke="none"/>
    <path d="M-18.85 54.1 Q-17.4 59.9 -20.5 65.0 -23.6 70.2 -29.4 71.65 -35.2 73.1 -40.3 70.0 -45.45 66.9 -46.9 61.1 -48.35 55.3 -45.3 50.2 -42.2 45.05 -36.4 43.6 -30.6 42.15 -25.5 45.2 -20.3 48.3 -18.85 54.1" fill="#5fd6ff" fill-rule="evenodd" stroke="none"/>
    <path d="M74.35 67.4 Q84.4 71.8 86.7 81.05 89.05 90.3 82.25 98.85 75.6 107.4 63.8 110.4 51.95 113.35 41.95 108.95 32.05 104.6 29.7 95.35 27.4 86.1 34.05 77.5 40.8 68.95 52.65 66.0 64.45 63.0 74.35 67.4" fill="#5fd6ff" fill-rule="evenodd" stroke="none"/>
    <path d="M-3.45 -61.6 Q11.7 -65.4 25.5 -55.8 39.4 -46.15 43.8 -28.75 48.15 -11.3 40.45 3.65 32.75 18.7 17.6 22.5 2.4 26.3 -11.4 16.65 -25.25 7.1 -29.6 -10.35 -34.0 -27.75 -26.35 -42.8 -18.65 -57.8 -3.45 -61.6" fill="#5fd6ff" fill-rule="evenodd" stroke="none"/>
    <path d="M-30.2 -55.9 Q-27.2 -43.8 -33.35 -33.2 -39.45 -22.5 -51.15 -19.6 -62.85 -16.65 -73.3 -23.15 -83.7 -29.65 -86.7 -41.75 -89.75 -53.85 -83.65 -64.45 -77.5 -75.1 -65.8 -78.05 -54.1 -80.95 -43.7 -74.5 -33.25 -68.0 -30.2 -55.9" fill="#5fd6ff" fill-rule="evenodd" stroke="none"/>
    <path d="M-70.1 -89.5 Q-59.95 -83.15 -56.95 -71.4 -54.0 -59.6 -60.0 -49.25 -65.85 -38.85 -77.25 -36.0 -88.6 -33.15 -98.75 -39.55 -108.8 -45.85 -111.75 -57.65 -114.75 -69.4 -108.85 -79.8 -102.85 -90.1 -91.5 -92.95 -80.1 -95.8 -70.1 -89.5" fill="#5fd6ff" fill-rule="evenodd" stroke="none"/>
    <path d="M-10.6 -87.85 Q-9.3 -82.75 -15.0 -77.45 -20.6 -72.15 -29.8 -69.8 -39.05 -67.5 -46.55 -69.55 -53.95 -71.55 -55.25 -76.65 -56.55 -81.75 -50.95 -87.05 -45.25 -92.35 -36.0 -94.65 -26.8 -97.0 -19.4 -94.95 -11.9 -92.95 -10.6 -87.85" fill="#5fd6ff" fill-rule="evenodd" stroke="none"/>
    <path d="M66.45 -67.25 Q69.7 -54.15 62.2 -42.4 54.7 -30.6 40.75 -27.1 26.75 -23.6 14.55 -30.45 2.35 -37.25 -0.9 -50.35 -4.2 -63.45 3.3 -75.25 10.85 -87.0 24.85 -90.5 38.8 -94.0 50.95 -87.2 63.15 -80.35 66.45 -67.25" fill="#5fd6ff" fill-rule="evenodd" stroke="none"/>
    <path d="M-22.7 -115.25 Q-21.75 -111.4 -25.65 -107.5 -29.55 -103.65 -36.1 -102.0 -42.65 -100.35 -47.95 -101.9 -53.3 -103.5 -54.25 -107.35 -55.25 -111.2 -51.25 -115.1 -47.35 -119.0 -40.8 -120.65 -34.25 -122.3 -28.95 -120.7 -23.7 -119.1 -22.7 -115.25" fill="#5fd6ff" fill-rule="evenodd" stroke="none"/>
    <path d="M72.55 -141.8 Q73.95 -136.2 68.65 -130.65 63.3 -125.05 54.4 -122.8 45.5 -120.6 38.15 -123.0 30.8 -125.35 29.4 -130.95 28.0 -136.5 33.35 -142.1 38.7 -147.65 47.6 -149.85 56.5 -152.1 63.85 -149.75 71.15 -147.35 72.55 -141.8" fill="#5fd6ff" fill-rule="evenodd" stroke="none"/>
    <path d="M47.3 -123.1 Q57.5 -125.65 67.35 -116.8 77.3 -107.95 81.1 -92.85 84.85 -77.75 80.3 -65.2 75.75 -52.75 65.55 -50.2 55.3 -47.6 45.4 -56.45 35.5 -65.35 31.75 -80.45 27.95 -95.55 32.45 -108.05 37.05 -120.5 47.3 -123.1" fill="#5fd6ff" fill-rule="evenodd" stroke="none"/>
    <path d="M122.95 -98.3 Q125.1 -89.7 119.35 -81.9 113.7 -73.95 103.5 -71.4 93.3 -68.85 84.55 -73.15 75.85 -77.35 73.7 -85.95 71.5 -94.6 77.2 -102.45 82.9 -110.3 93.1 -112.85 103.3 -115.4 112.0 -111.2 120.75 -106.95 122.95 -98.3" fill="#5fd6ff" fill-rule="evenodd" stroke="none"/>
    <path d="M100.65 -85.85 Q108.25 -87.75 115.35 -82.4 122.4 -77.05 124.8 -67.6 127.15 -58.1 123.45 -50.05 119.7 -42.0 112.1 -40.1 104.55 -38.2 97.5 -43.5 90.4 -48.85 88.05 -58.35 85.65 -67.8 89.4 -75.85 93.1 -83.95 100.65 -85.85" fill="#5fd6ff" fill-rule="evenodd" stroke="none"/>
    <path d="M63.45 51.3 Q64.6 56.05 60.25 60.75 55.85 65.4 48.45 67.25 41.05 69.1 34.95 67.1 28.85 65.05 27.7 60.3 26.5 55.6 30.9 50.95 35.3 46.25 42.7 44.4 50.1 42.55 56.2 44.6 62.25 46.6 63.45 51.3" fill="#5fd6ff" fill-rule="evenodd" stroke="none"/>
    <path d="M94.3 42.85 Q96.85 53.0 90.65 62.1 84.6 71.15 73.35 74.0 62.1 76.8 52.3 71.7 42.65 66.55 40.1 56.4 37.6 46.3 43.65 37.25 49.85 28.1 61.1 25.3 72.35 22.45 82.0 27.65 91.8 32.75 94.3 42.85" fill="#5fd6ff" fill-rule="evenodd" stroke="none"/>
    <path d="M123.0 -38.15 Q130.05 -32.15 132.65 -21.85 135.2 -11.55 131.8 -3.0 128.4 5.6 121.05 7.45 113.65 9.3 106.55 3.35 99.45 -2.6 96.9 -12.9 94.3 -23.2 97.75 -31.8 101.15 -40.4 108.55 -42.25 115.9 -44.1 123.0 -38.15" fill="#5fd6ff" fill-rule="evenodd" stroke="none"/>
    <path d="M105.4 -51.75 Q112.95 -46.25 115.4 -36.5 117.85 -26.75 113.8 -18.35 109.85 -9.95 101.65 -7.95 93.5 -5.9 85.95 -11.4 78.5 -16.9 76.05 -26.65 73.6 -36.4 77.55 -44.8 81.65 -53.15 89.8 -55.2 98.0 -57.2 105.4 -51.75" fill="#5fd6ff" fill-rule="evenodd" stroke="none"/>
    <path d="M-26.7 68.75 Q-21.5 58.25 -10.3 54.2 0.9 50.15 11.5 54.95 22.25 59.8 26.2 70.7 30.1 81.6 24.95 92.15 19.85 102.7 8.65 106.75 -2.55 110.8 -13.25 105.95 -23.95 101.1 -27.85 90.2 -31.8 79.3 -26.7 68.75" fill="#ffffff" fill-rule="evenodd" stroke="none"/>
    <path d="M-43.55 -57.55 Q-35.35 -53.4 -32.15 -44.6 -29.0 -35.8 -32.7 -27.45 -36.4 -19.0 -44.8 -16.0 -53.2 -12.95 -61.4 -17.1 -69.6 -21.15 -72.75 -29.95 -75.95 -38.75 -72.25 -47.2 -68.55 -55.55 -60.15 -58.6 -51.75 -61.6 -43.55 -57.55" fill="#ffffff" fill-rule="evenodd" stroke="none"/>
    <path d="M11.95 -14.15 Q16.3 -2.1 10.75 9.5 5.3 21.2 -6.8 25.55 -18.9 29.9 -30.6 24.4 -42.2 19.0 -46.55 6.95 -50.9 -5.05 -45.45 -16.75 -39.9 -28.35 -27.8 -32.7 -15.7 -37.05 -4.1 -31.65 7.6 -26.15 11.95 -14.15" fill="#ffffff" fill-rule="evenodd" stroke="none"/>
    <path d="M52.35 -113.95 Q58.9 -110.25 61.65 -102.7 64.35 -95.2 61.6 -88.2 58.9 -81.15 52.35 -78.8 45.8 -76.45 39.2 -80.1 32.65 -83.8 29.95 -91.3 27.2 -98.85 29.95 -105.85 32.65 -112.85 39.2 -115.2 45.75 -117.55 52.35 -113.95" fill="#ffffff" fill-rule="evenodd" stroke="none"/>
    <path d="M49.25 -87.4 Q53.45 -96.75 62.9 -100.15 72.3 -103.55 81.45 -99.05 90.7 -94.5 94.2 -84.75 97.7 -75.0 93.5 -65.7 89.35 -56.3 79.95 -52.9 70.5 -49.5 61.3 -54.05 52.15 -58.55 48.65 -68.3 45.15 -78.05 49.25 -87.4" fill="#ffffff" fill-rule="evenodd" stroke="none"/>
    <path d="M18.6 -83.1 Q29.75 -87.1 40.45 -82.1 51.2 -77.05 55.2 -65.9 59.25 -54.75 54.15 -44.05 49.15 -33.25 38.0 -29.25 26.85 -25.25 16.1 -30.35 5.4 -35.35 1.35 -46.5 -2.65 -57.65 2.4 -68.4 7.45 -79.1 18.6 -83.1" fill="#ffffff" fill-rule="evenodd" stroke="none"/>
    <path d="M-22.45 50.4 Q-21.6 52.7 -22.65 54.9 -23.7 57.15 -25.95 58.0 L-30.5 57.75 Q-32.75 56.75 -33.6 54.45 -34.4 52.15 -33.35 49.9 -32.3 47.65 -30.0 46.85 L-25.5 47.05 Q-23.25 48.1 -22.45 50.4" fill="#ffffff" fill-rule="evenodd" stroke="none"/>
    <path d="M-112.6 15.15 Q-113.95 11.4 -112.95 8.05 -112.0 4.7 -109.25 3.7 -106.55 2.75 -103.65 4.7 -100.8 6.65 -99.45 10.4 -98.1 14.2 -99.0 17.55 -100.0 20.9 -102.7 21.85 -105.45 22.85 -108.3 20.9 -111.25 18.95 -112.6 15.15" fill="#ffffff" fill-rule="evenodd" stroke="none"/>
    <path d="M-81.95 -15.85 Q-74.85 -18.4 -67.45 -13.25 -59.95 -8.05 -56.4 1.8 -52.85 11.65 -55.35 20.4 -57.7 29.2 -64.8 31.75 -71.85 34.3 -79.4 29.1 -86.85 23.95 -90.4 14.1 -93.95 4.25 -91.5 -4.55 -89.0 -13.3 -81.95 -15.85" fill="#ffffff" fill-rule="evenodd" stroke="none"/>
    <path d="M44.75 -56.55 Q48.65 -64.85 57.2 -67.95 65.75 -71.0 73.95 -67.1 82.2 -63.2 85.35 -54.55 88.45 -45.9 84.55 -37.7 80.75 -29.4 72.2 -26.35 63.65 -23.25 55.35 -27.15 47.15 -31.05 44.05 -39.7 40.9 -48.35 44.75 -56.55" fill="#ffffff" fill-rule="evenodd" stroke="none"/>
    <path d="M65.0 -52.3 Q73.65 -48.25 76.9 -39.25 80.15 -30.25 76.05 -21.65 72.05 -13.05 63.05 -9.8 54.05 -6.55 45.4 -10.6 36.9 -14.65 33.65 -23.65 30.4 -32.65 34.35 -41.25 38.45 -49.85 47.45 -53.1 56.45 -56.35 65.0 -52.3" fill="#ffffff" fill-rule="evenodd" stroke="none"/>
    <path d="M75.85 18.8 Q71.45 27.75 61.9 31.2 52.35 34.65 43.25 30.6 34.2 26.6 30.9 17.4 27.6 8.25 32.0 -0.65 36.45 -9.5 46.0 -12.95 55.55 -16.4 64.6 -12.45 73.75 -8.4 77.05 0.75 80.35 9.95 75.85 18.8" fill="#ffffff" fill-rule="evenodd" stroke="none"/>
    <path d="M89.75 -29.65 Q87.55 -35.7 88.75 -41.0 90.05 -46.2 94.0 -47.65 97.9 -49.05 102.2 -45.85 106.55 -42.55 108.75 -36.5 110.95 -30.45 109.65 -25.2 108.4 -19.95 104.5 -18.55 100.55 -17.1 96.2 -20.35 91.95 -23.6 89.75 -29.65" fill="#ffffff" fill-rule="evenodd" stroke="none"/>
  </g>
</svg>
