<?xml version="1.0" encoding="UTF-8" standalone="no"?>
<svg xmlns:xlink="http://www.w3.org/1999/xlink" height="42.55px" width="86.3px" xmlns="http://www.w3.org/2000/svg">
  <g transform="matrix(1.0, 0.0, 0.0, 1.0, 5.55, 0.05)">
    <path d="M69.75 0.0 L69.65 0.75 69.65 0.65 68.75 4.55 68.75 4.5 68.3 5.35 68.3 5.3 64.9 9.65 64.8 9.8 64.75 9.85 61.65 13.15 59.3 15.45 57.4 17.05 57.1 17.3 54.7 19.15 53.05 20.3 52.5 20.65 51.05 21.65 49.25 22.9 Q47.8 23.8 46.5 24.65 L46.55 24.6 44.4 26.0 43.15 26.8 43.45 26.6 39.9 28.8 40.0 28.75 37.0 30.5 36.9 30.6 36.5 30.8 33.15 29.1 33.1 29.1 29.2 27.05 29.25 27.1 26.05 25.45 25.95 25.4 23.5 24.15 23.55 24.15 19.1 21.8 18.8 21.7 18.5 21.55 18.2 21.4 17.3 20.9 17.1 20.8 16.4 20.4 Q13.1 17.7 9.4 11.4 5.5 4.7 5.5 0.25 L5.5 0.0 69.75 0.0" fill="#000000" fill-rule="evenodd" stroke="none"/>
    <path d="M69.75 0.0 L80.75 0.0 80.75 0.4 80.55 2.2 80.55 2.3 79.3 7.6 77.65 11.1 77.65 11.15 73.6 16.45 72.9 17.25 69.45 20.95 66.75 23.55 66.6 23.65 64.5 25.5 63.2 26.5 61.15 28.05 61.05 28.15 59.5 29.25 58.7 29.8 Q58.0 30.2 57.4 30.65 L56.95 31.0 55.45 31.95 55.2 32.15 52.5 33.85 52.45 33.9 50.4 35.25 50.0 35.5 49.45 35.8 49.2 36.0 45.7 38.15 45.6 38.2 42.55 40.05 42.4 40.1 39.3 41.85 Q38.05 42.5 36.7 42.5 35.3 42.5 34.05 41.85 L33.45 41.55 32.65 41.2 32.6 41.15 28.2 38.95 28.15 38.9 24.15 36.85 24.1 36.8 21.0 35.2 21.05 35.25 Q19.6 34.5 18.4 33.9 L14.05 31.6 14.35 31.75 Q13.75 31.5 13.3 31.25 L13.25 31.2 11.65 30.35 11.85 30.45 9.75 29.2 9.7 29.15 Q5.0 25.65 -0.1 16.95 L-0.1 16.9 Q-5.95 6.8 -5.5 -0.05 L5.5 0.0 5.5 0.25 Q5.5 4.7 9.4 11.4 13.1 17.7 16.4 20.4 L17.1 20.8 17.3 20.9 18.2 21.4 18.5 21.55 18.8 21.7 19.1 21.8 23.55 24.15 23.5 24.15 25.95 25.4 26.05 25.45 29.25 27.1 29.2 27.05 33.1 29.1 33.15 29.1 36.5 30.8 36.9 30.6 37.0 30.5 40.0 28.75 39.9 28.8 43.45 26.6 43.15 26.8 44.4 26.0 46.55 24.6 46.5 24.65 Q47.8 23.8 49.25 22.9 L51.05 21.65 52.5 20.65 53.05 20.3 54.7 19.15 57.1 17.3 57.4 17.05 59.3 15.45 61.65 13.15 64.75 9.85 64.8 9.8 64.9 9.65 68.3 5.3 68.3 5.35 68.75 4.5 68.75 4.55 69.65 0.65 69.65 0.75 69.75 0.0" fill="#5b1e12" fill-rule="evenodd" stroke="none"/>
    <path d="M72.05 0.0 L75.25 0.0 75.1 1.45 74.0 6.05 72.95 8.2 73.0 6.0 Q73.0 3.15 72.05 0.0 M68.9 13.45 L65.55 17.05 Q67.15 13.35 67.15 8.35 67.15 4.0 66.4 0.0 L68.75 0.0 Q69.25 3.8 69.25 8.15 69.25 10.85 68.9 13.45 M60.55 21.55 L57.85 23.65 58.4 20.45 Q59.0 16.4 58.9 12.5 L58.65 4.7 58.25 0.0 63.75 0.0 63.75 2.0 Q63.75 13.45 60.55 21.55 M52.2 27.5 L49.5 29.25 47.35 30.65 47.7 28.2 Q49.55 15.25 49.55 9.6 L49.4 0.0 55.35 0.0 55.8 3.75 Q56.45 9.8 55.35 16.0 54.7 19.45 54.35 23.05 L52.2 27.5 M42.8 33.45 L39.7 35.3 40.0 21.6 40.0 18.5 39.95 1.25 39.85 0.0 49.2 0.0 48.65 3.35 46.9 11.95 Q46.65 13.0 44.55 25.95 43.75 30.8 42.8 33.45" fill="url(#gradient0)" fill-rule="evenodd" stroke="none"/>
    <path d="M72.95 8.2 Q71.7 10.2 69.05 13.25 L68.9 13.45 Q69.25 10.85 69.25 8.15 69.25 3.8 68.75 0.0 L72.05 0.0 Q73.0 3.15 73.0 6.0 L72.95 8.2" fill="url(#gradient1)" fill-rule="evenodd" stroke="none"/>
    <path d="M65.55 17.05 L63.0 19.5 60.65 21.5 60.55 21.55 Q63.75 13.45 63.75 2.0 L63.75 0.0 66.4 0.0 Q67.15 4.0 67.15 8.35 67.15 13.35 65.55 17.05 M57.85 23.65 L56.1 24.85 55.8 25.1 Q54.9 25.65 54.1 26.25 L52.2 27.5 54.35 23.05 Q54.7 19.45 55.35 16.0 56.45 9.8 55.8 3.75 L55.35 0.0 58.25 0.0 58.65 4.7 58.9 12.5 Q59.0 16.4 58.4 20.45 L57.85 23.65 M47.35 30.65 L46.3 31.3 42.8 33.45 Q43.75 30.8 44.55 25.95 46.65 13.0 46.9 11.95 L48.65 3.35 49.2 0.0 49.4 0.0 49.55 9.6 Q49.55 15.25 47.7 28.2 L47.35 30.65 M35.55 36.45 L35.1 36.25 30.65 34.0 26.65 31.95 23.5 30.3 20.95 29.0 16.55 26.7 15.75 26.3 13.9 23.55 Q7.35 13.0 7.35 0.15 L7.35 0.0 10.25 0.0 Q14.55 14.65 20.45 22.3 L27.4 30.9 27.8 31.25 23.65 22.0 Q19.45 12.45 19.45 4.0 19.45 1.95 19.6 0.0 L25.65 0.0 Q26.05 7.3 28.55 16.95 29.6 20.95 33.3 32.4 L33.5 32.4 33.5 25.4 Q32.95 21.85 32.75 16.35 L32.7 11.4 Q32.7 7.3 33.2 3.35 L33.6 0.0 33.7 0.0 Q33.85 3.4 34.9 11.95 36.15 22.1 36.15 26.8 36.15 31.35 35.55 36.45" fill="url(#gradient2)" fill-rule="evenodd" stroke="none"/>
    <path d="M39.7 35.3 L36.65 37.0 35.55 36.45 Q36.15 31.35 36.15 26.8 36.15 22.1 34.9 11.95 33.85 3.4 33.7 0.0 L39.85 0.0 39.95 1.25 40.0 18.5 40.0 21.6 39.7 35.3 M15.75 26.3 L14.45 25.6 13.05 24.8 Q9.05 21.7 4.65 14.15 -0.25 5.7 0.0 0.0 L7.35 0.0 7.35 0.15 Q7.35 13.0 13.9 23.55 L15.75 26.3 M10.25 0.0 L19.6 0.0 Q19.45 1.95 19.45 4.0 19.45 12.45 23.65 22.0 L27.8 31.25 27.4 30.9 20.45 22.3 Q14.55 14.65 10.25 0.0 M25.65 0.0 L33.6 0.0 33.2 3.35 Q32.7 7.3 32.7 11.4 L32.75 16.35 Q32.95 21.85 33.5 25.4 L33.5 32.4 33.3 32.4 Q29.6 20.95 28.55 16.95 26.05 7.3 25.65 0.0" fill="url(#gradient3)" fill-rule="evenodd" stroke="none"/>
  </g>
  <defs>
    <linearGradient gradientTransform="matrix(0.0213, -0.0508, 0.0241, 0.0101, 59.15, -4.15)" gradientUnits="userSpaceOnUse" id="gradient0" spreadMethod="pad" x1="-819.2" x2="819.2">
      <stop offset="0.0" stop-color="#c90000"/>
      <stop offset="0.5568627450980392" stop-color="#ff8c00"/>
      <stop offset="1.0" stop-color="#ffb000"/>
    </linearGradient>
    <linearGradient gradientTransform="matrix(0.0061, -0.0484, 0.026, 0.0033, 52.75, -11.8)" gradientUnits="userSpaceOnUse" id="gradient1" spreadMethod="pad" x1="-819.2" x2="819.2">
      <stop offset="0.0" stop-color="#c94200"/>
      <stop offset="0.3333333333333333" stop-color="#de7b02"/>
      <stop offset="1.0" stop-color="#ffa800"/>
    </linearGradient>
    <linearGradient gradientTransform="matrix(-0.0049, -0.056, 0.0294, -0.0026, 23.0, -6.3)" gradientUnits="userSpaceOnUse" id="gradient2" spreadMethod="pad" x1="-819.2" x2="819.2">
      <stop offset="0.0" stop-color="#c94200"/>
      <stop offset="0.3333333333333333" stop-color="#de7b02"/>
      <stop offset="1.0" stop-color="#ffa800"/>
    </linearGradient>
    <linearGradient gradientTransform="matrix(-0.0049, -0.056, 0.0294, -0.0026, 23.0, -6.3)" gradientUnits="userSpaceOnUse" id="gradient3" spreadMethod="pad" x1="-819.2" x2="819.2">
      <stop offset="0.0" stop-color="#a60700"/>
      <stop offset="0.3333333333333333" stop-color="#ff6100"/>
      <stop offset="1.0" stop-color="#a85c00"/>
    </linearGradient>
  </defs>
</svg>
