<?xml version="1.0" encoding="UTF-8" standalone="no"?>
<svg xmlns:xlink="http://www.w3.org/1999/xlink" height="21.6px" width="81.7px" xmlns="http://www.w3.org/2000/svg">
  <g transform="matrix(1.0, 0.0, 0.0, 1.0, 13.85, -31.65)">
    <path d="M9.4 50.3 Q11.05 47.25 12.35 45.3 14.5 42.2 19.15 39.55 24.2 35.95 31.0 34.65 37.05 34.65 45.75 37.4 L49.9 38.85 Q54.6 40.6 58.4 42.8 63.05 45.45 65.2 47.9 L65.1 48.55 Q49.6 45.75 36.8 46.25 L31.8 46.55 Q19.7 47.45 8.85 51.25 L9.4 50.3 10.9 50.3 Q20.85 47.2 31.8 46.55 20.85 47.2 10.9 50.3 L9.4 50.3" fill="url(#gradient0)" fill-rule="evenodd" stroke="none"/>
    <path d="M-9.75 48.9 L-11.35 49.6 -4.15 42.6 Q-0.35 39.55 4.0 37.55 14.1 32.9 24.15 34.65 33.2 33.1 45.3 36.85 L51.1 39.0 Q57.45 41.55 62.05 44.95 L65.35 47.8 Q65.3 48.45 64.75 49.05 49.15 46.0 36.35 46.35 L31.8 46.55 36.8 46.25 Q49.6 45.75 65.1 48.55 L65.2 47.9 Q63.05 45.45 58.4 42.8 54.6 40.6 49.9 38.85 L45.75 37.4 Q37.05 34.65 31.0 34.65 24.2 35.95 19.15 39.55 14.5 42.2 12.35 45.3 11.05 47.25 9.4 50.3 L6.85 50.75 6.25 50.3 5.4 51.0 Q3.85 49.95 2.0 49.4 -3.8 46.7 -9.75 48.9 -4.25 46.7 1.4 48.55 4.2 48.9 6.25 50.3 4.2 48.9 1.4 48.55 -4.25 46.7 -9.75 48.9" fill="url(#gradient1)" fill-rule="evenodd" stroke="none"/>
    <path d="M31.8 46.55 L36.35 46.35 Q49.15 46.0 64.75 49.05 65.3 48.45 65.35 47.8 L62.05 44.95 Q57.45 41.55 51.1 39.0 L45.3 36.85 Q33.2 33.1 24.15 34.65 14.1 32.9 4.0 37.55 -0.35 39.55 -4.15 42.6 L-11.35 49.6 -9.75 48.9 Q-4.25 46.7 1.4 48.55 4.2 48.9 6.25 50.3 L6.85 50.75 9.4 50.3 10.9 50.3 Q20.85 47.2 31.8 46.55 Z" fill="none" stroke="#5b1e12" stroke-linecap="round" stroke-linejoin="round" stroke-width="5.0"/>
  </g>
  <defs>
    <linearGradient gradientTransform="matrix(0.0169, -0.0109, 0.0161, 0.0122, 27.15, 55.8)" gradientUnits="userSpaceOnUse" id="gradient0" spreadMethod="pad" x1="-819.2" x2="819.2">
      <stop offset="0.0" stop-color="#a60700"/>
      <stop offset="0.3333333333333333" stop-color="#de5602"/>
      <stop offset="1.0" stop-color="#de9900"/>
    </linearGradient>
    <linearGradient gradientTransform="matrix(0.0053, -0.0102, 0.0171, 0.0043, 4.1, 48.85)" gradientUnits="userSpaceOnUse" id="gradient1" spreadMethod="pad" x1="-819.2" x2="819.2">
      <stop offset="0.0" stop-color="#a60700"/>
      <stop offset="0.3333333333333333" stop-color="#de5602"/>
      <stop offset="1.0" stop-color="#de9900"/>
    </linearGradient>
  </defs>
</svg>
