<?xml version="1.0" encoding="UTF-8" standalone="no"?>
<svg xmlns:xlink="http://www.w3.org/1999/xlink" height="21.95px" width="82.25px" xmlns="http://www.w3.org/2000/svg">
  <g transform="matrix(1.0, 0.0, 0.0, 1.0, 13.45, -28.15)">
    <path d="M24.7 31.5 Q34.5 28.65 49.9 35.55 55.9 38.2 60.7 41.5 65.25 44.65 66.3 46.75 50.65 40.7 38.75 38.85 25.4 36.75 12.95 39.15 15.55 35.55 16.8 34.5 18.65 32.9 24.7 31.5" fill="url(#gradient0)" fill-rule="evenodd" stroke="none"/>
    <path d="M24.7 31.5 Q18.65 32.9 16.8 34.5 15.55 35.55 12.95 39.15 10.2 36.55 1.55 40.1 -6.15 43.25 -10.95 47.6 -6.3 38.75 3.2 34.25 13.15 29.55 24.7 31.5" fill="url(#gradient1)" fill-rule="evenodd" stroke="none"/>
    <path d="M12.95 39.15 Q25.4 36.75 38.75 38.85 50.65 40.7 66.3 46.75 65.25 44.65 60.7 41.5 55.9 38.2 49.9 35.55 34.5 28.65 24.7 31.5 M12.95 39.15 Q10.2 36.55 1.55 40.1 -6.15 43.25 -10.95 47.6 -6.3 38.75 3.2 34.25 13.15 29.55 24.7 31.5" fill="none" stroke="#5b1e12" stroke-linecap="round" stroke-linejoin="round" stroke-width="5.0"/>
  </g>
  <defs>
    <linearGradient gradientTransform="matrix(0.0169, -0.0061, 0.0161, 0.0069, 27.05, 50.55)" gradientUnits="userSpaceOnUse" id="gradient0" spreadMethod="pad" x1="-819.2" x2="819.2">
      <stop offset="0.0" stop-color="#a60700"/>
      <stop offset="0.3333333333333333" stop-color="#de5602"/>
      <stop offset="1.0" stop-color="#de9900"/>
    </linearGradient>
    <linearGradient gradientTransform="matrix(0.0053, -0.0058, 0.0171, 0.0025, 4.0, 46.65)" gradientUnits="userSpaceOnUse" id="gradient1" spreadMethod="pad" x1="-819.2" x2="819.2">
      <stop offset="0.0" stop-color="#a60700"/>
      <stop offset="0.3333333333333333" stop-color="#de5602"/>
      <stop offset="1.0" stop-color="#de9900"/>
    </linearGradient>
  </defs>
</svg>
