<?xml version="1.0" encoding="UTF-8" standalone="no"?>
<svg xmlns:xlink="http://www.w3.org/1999/xlink" height="7.75px" width="10.05px" xmlns="http://www.w3.org/2000/svg">
  <g transform="matrix(1.0, 0.0, 0.0, 1.0, 4.95, 3.8)">
    <path d="M5.1 0.05 Q5.1 1.65 3.6 2.8 2.15 3.95 0.1 3.95 -2.0 3.95 -3.45 2.8 -4.95 1.65 -4.95 0.05 -4.95 -1.55 -3.45 -2.7 -2.0 -3.8 0.1 -3.8 2.15 -3.8 3.6 -2.7 5.1 -1.55 5.1 0.05" fill="#ff6200" fill-rule="evenodd" stroke="none"/>
    <path d="M4.15 0.1 Q4.05 1.3 2.95 2.05 1.85 2.75 0.45 2.55 -1.0 2.4 -1.9 1.5 -2.8 0.5 -2.7 -0.7 -2.55 -1.85 -1.45 -2.55 -0.35 -3.3 1.1 -3.15 2.5 -2.95 3.4 -2.0 4.3 -1.05 4.15 0.1" fill="#ffc400" fill-rule="evenodd" stroke="none"/>
  </g>
</svg>
