<?xml version="1.0" encoding="UTF-8" standalone="no"?>
<svg xmlns:xlink="http://www.w3.org/1999/xlink" height="145.65px" width="342.15px" xmlns="http://www.w3.org/2000/svg">
  <g transform="matrix(1.0, 0.0, 0.0, 1.0, 40.0, 105.9)">
    <path d="M253.95 11.5 Q252.75 23.2 218.3 31.5 183.85 39.75 136.3 39.75 88.8 39.75 56.05 31.5 23.3 23.2 24.5 11.5 24.7 9.55 25.85 7.7 3.35 0.35 4.35 -9.4 5.0 -15.65 15.15 -20.95 6.25 -22.45 -1.75 -24.5 L-11.85 -27.35 Q-34.35 -34.7 -33.35 -44.45 -32.5 -52.65 -15.25 -59.2 L-18.45 -60.15 Q-40.95 -67.5 -39.95 -77.25 -38.75 -88.9 -4.25 -97.2 5.2 -99.45 15.75 -101.1 L29.1 -102.9 Q51.4 -105.45 77.7 -105.45 107.35 -105.45 131.25 -102.25 L140.0 -103.35 Q162.35 -105.9 188.65 -105.9 236.2 -105.9 268.95 -97.65 301.7 -89.35 300.5 -77.7 300.4 -76.55 299.9 -75.4 L299.15 -73.8 298.7 -73.1 Q294.8 -67.7 282.75 -63.05 303.05 -55.95 302.1 -46.7 301.9 -44.75 300.75 -42.85 L300.3 -42.15 Q295.1 -35.0 275.85 -29.25 300.0 -21.7 298.95 -11.65 298.75 -9.7 297.6 -7.8 292.0 1.45 263.35 8.3 L253.95 10.35 253.95 11.5" fill="#d9a700" fill-rule="evenodd" stroke="none"/>
  </g>
</svg>
