<?xml version="1.0" encoding="UTF-8" standalone="no"?>
<svg xmlns:xlink="http://www.w3.org/1999/xlink" height="51.9px" width="61.4px" xmlns="http://www.w3.org/2000/svg">
  <g transform="matrix(1.0, 0.0, 0.0, 1.0, -8.0, 50.2)">
    <path d="M48.7 -2.7 L47.95 -2.6 48.1 -2.35 Q47.55 -2.1 46.2 -2.85 43.4 -4.45 34.25 -25.2 16.35 -21.55 12.5 -20.15 L12.35 -20.55 12.65 -21.4 Q13.4 -22.7 17.6 -24.15 L8.45 -22.2 8.0 -23.25 Q12.4 -25.55 17.65 -27.55 L10.2 -26.15 9.65 -27.15 Q18.25 -31.25 30.05 -33.65 L28.0 -37.85 Q24.45 -45.1 23.55 -49.1 L24.45 -50.2 Q25.45 -50.05 26.5 -48.9 L27.25 -49.8 Q28.35 -49.05 29.9 -46.8 L29.95 -46.85 Q30.9 -48.55 35.1 -40.5 L37.9 -35.05 38.45 -35.15 Q53.6 -37.35 60.25 -35.8 66.1 -35.8 69.4 -34.7 L69.25 -33.95 Q65.6 -33.0 58.2 -31.8 L58.0 -31.2 Q57.35 -30.05 42.05 -26.85 L44.05 -22.85 Q45.45 -19.2 49.55 -10.3 52.95 -2.4 53.0 1.55 L52.6 1.7 47.95 -7.25 48.7 -2.7" fill="#000000" fill-rule="evenodd" stroke="none"/>
  </g>
</svg>
