<?xml version="1.0" encoding="UTF-8" standalone="no"?>
<svg xmlns:xlink="http://www.w3.org/1999/xlink" height="123.3px" width="400.8px" xmlns="http://www.w3.org/2000/svg">
  <g transform="matrix(1.0, 0.0, 0.0, 1.0, -154.35, -199.85)">
    <path d="M493.35 211.1 L494.95 210.05 542.0 210.05 543.7 212.95 Q546.8 217.6 550.35 218.5 L550.35 256.85 550.25 257.0 Q548.8 259.15 548.8 262.85 548.8 266.6 549.7 271.7 L550.35 274.9 550.35 287.05 Q549.2 289.9 549.2 295.7 L549.3 297.6 548.45 304.9 Q547.15 304.0 545.6 304.15 543.35 304.2 541.8 306.65 540.75 308.15 540.3 310.45 537.8 309.55 534.9 309.1 528.9 308.15 524.95 309.9 522.2 310.85 521.2 313.15 L465.25 313.15 Q464.2 311.75 462.5 310.65 L405.0 310.5 385.9 313.15 354.7 313.15 349.95 312.2 337.15 310.15 Q329.0 310.85 323.8 310.15 321.1 310.45 319.7 313.15 L287.1 313.15 Q286.35 311.9 285.4 311.0 284.05 310.15 282.1 309.6 L270.5 311.0 263.65 310.85 262.1 310.85 Q257.45 311.75 255.2 313.15 L222.8 313.15 Q221.75 311.25 219.6 310.35 L209.95 310.15 206.25 310.0 191.45 313.15 191.25 313.15 184.35 312.4 177.45 311.75 Q173.8 311.75 171.95 313.15 L163.5 313.15 Q163.15 307.75 161.75 303.15 L160.35 299.45 160.35 295.2 Q161.0 293.65 161.25 291.2 L161.3 282.95 Q161.3 277.65 160.75 272.85 L160.35 267.2 160.35 247.95 Q160.95 246.2 160.95 244.25 L160.45 228.55 160.35 224.8 160.35 223.0 160.45 222.7 160.45 222.15 Q160.45 219.7 161.3 218.45 L162.15 217.6 163.2 214.9 164.55 211.7 167.7 211.3 167.85 211.3 169.55 210.05 174.4 210.05 180.95 209.45 204.55 209.35 212.4 209.2 277.3 209.2 Q279.4 209.2 280.2 209.85 L280.4 210.05 329.65 210.05 Q329.85 210.6 330.15 210.8 L330.5 211.2 358.1 211.2 Q366.95 211.55 370.45 212.65 L371.55 212.65 372.05 211.7 Q374.2 212.5 377.8 212.5 384.5 212.5 391.9 210.05 L433.95 210.05 438.6 211.75 Q441.0 211.6 445.7 211.9 L465.05 211.2 465.5 211.1 479.7 211.1 480.35 211.6 481.05 211.2 493.35 211.1" fill="#000000" fill-opacity="0.4" fill-rule="evenodd" stroke="none"/>
    <path d="M495.2 208.5 Q496.15 208.2 496.75 207.5 L543.9 207.5 Q544.5 208.9 545.6 210.35 548.6 215.1 552.2 215.9 L552.2 254.35 552.15 254.4 Q550.6 256.6 550.6 260.3 550.6 264.0 551.5 269.15 L552.2 272.25 552.2 284.45 Q551.05 287.4 551.05 293.1 L551.1 295.2 550.25 302.3 Q549.0 301.3 547.4 301.55 545.15 301.6 543.65 304.15 542.55 305.55 542.2 307.85 539.7 306.85 536.75 306.5 530.8 305.55 526.8 307.3 524.05 308.35 523.05 310.5 L467.05 310.5 Q466.0 309.15 464.3 308.15 L406.85 308.0 387.8 310.5 356.55 310.5 351.8 309.7 339.0 307.6 Q330.8 308.35 325.65 307.7 322.9 307.85 321.5 310.5 L288.9 310.5 287.2 308.5 Q285.9 307.6 283.95 307.1 L272.35 308.5 265.5 308.35 263.9 308.3 Q259.25 309.15 257.05 310.5 L224.6 310.5 Q223.6 308.65 221.4 307.85 L211.8 307.7 208.05 307.4 Q195.8 310.45 193.25 310.5 L193.1 310.5 186.2 309.9 179.25 309.15 Q175.7 309.15 173.75 310.5 L165.3 310.5 Q165.0 305.1 163.55 300.65 L162.15 296.95 162.15 292.5 Q162.85 291.1 163.1 288.65 L163.15 280.45 Q163.15 275.05 162.65 270.3 L162.15 264.6 162.15 245.5 Q162.75 243.65 162.75 241.6 L162.3 225.9 162.15 222.2 162.15 220.45 162.3 220.2 162.3 219.55 Q162.3 217.15 163.15 215.85 L164.0 215.1 165.05 212.35 166.35 209.2 169.5 208.8 169.7 208.8 171.4 207.5 176.25 207.5 182.8 206.95 206.35 206.9 214.2 206.6 279.2 206.6 Q281.2 206.6 282.05 207.35 L282.25 207.5 331.45 207.5 331.95 208.35 332.3 208.75 359.9 208.75 Q368.8 208.9 372.25 210.15 L373.35 210.15 373.85 209.2 379.6 209.9 Q386.35 209.9 393.75 207.5 L435.75 207.5 440.45 209.2 Q442.85 209.05 447.55 209.35 L466.85 208.75 467.35 208.5 481.55 208.5 482.2 209.05 482.9 208.75 495.2 208.5" fill="#d24814" fill-rule="evenodd" stroke="none"/>
    <path d="M380.5 215.85 L380.15 216.5 Q380.5 216.8 379.35 216.8 378.35 216.8 378.2 215.45 L378.2 214.3 378.45 208.9 Q378.85 204.9 379.35 204.2 379.8 204.75 380.25 208.9 L380.6 214.45 380.5 215.85 M327.45 311.75 Q327.45 307.6 328.65 306.0 L329.6 310.65 330.25 316.35 330.2 318.2 Q330.2 319.0 329.05 319.0 327.75 319.0 327.45 315.45 L327.45 311.75 M419.75 310.55 L420.4 314.7 420.3 316.5 420.2 316.8 Q420.05 317.1 419.35 317.1 418.45 317.1 417.85 313.3 L417.4 309.6 Q417.4 307.6 418.5 306.45 419.05 307.1 419.75 310.55 M548.5 226.0 L548.05 225.7 547.95 224.65 Q547.95 223.45 550.35 221.75 552.65 219.9 553.95 220.05 L554.1 220.5 554.25 221.9 552.0 224.2 549.3 226.3 548.5 226.15 548.5 226.0 M535.8 203.9 L535.35 208.3 Q534.8 211.6 534.05 211.6 532.95 211.6 532.75 209.7 L532.75 207.55 Q532.75 204.5 534.3 201.95 535.8 199.35 535.8 203.9 M553.4 245.0 L548.3 246.5 Q548.0 246.25 548.0 244.55 548.0 243.45 549.9 242.5 552.05 241.45 554.6 242.1 L554.7 242.5 554.75 243.75 Q554.75 244.55 553.4 245.0 M555.15 280.75 L554.0 282.6 550.15 282.6 Q549.15 282.0 547.9 280.6 L548.35 278.6 Q549.25 277.8 554.0 279.05 L555.15 280.75 M528.0 317.25 Q527.05 317.25 526.3 312.3 525.75 308.6 525.75 307.15 525.75 306.0 526.05 305.7 526.1 305.55 526.75 305.3 527.25 305.9 528.3 310.05 L529.2 314.8 529.15 316.4 Q529.15 317.25 528.0 317.25 M502.6 318.85 L502.4 317.4 Q502.4 313.55 502.75 308.95 L503.25 308.95 Q503.7 311.1 503.95 318.55 L503.15 319.25 502.6 318.85 M160.65 225.45 Q163.5 225.75 164.25 229.0 L163.85 229.9 Q163.55 230.5 162.9 230.5 161.85 230.5 159.8 229.7 157.3 228.8 156.75 227.6 157.95 225.25 160.65 225.45 M155.45 294.0 L155.25 292.65 Q155.25 292.15 159.1 290.2 163.05 288.0 164.05 288.3 L164.25 288.8 164.35 290.2 Q164.35 293.2 157.3 294.5 L155.6 294.3 155.45 294.0 M158.0 252.25 L154.35 251.2 Q156.45 248.5 159.9 248.35 162.05 248.25 163.5 248.85 L163.7 249.15 163.8 250.2 Q163.8 252.6 161.35 252.6 L158.0 252.25 M254.75 205.9 L254.85 210.95 253.95 212.35 Q252.5 210.35 252.5 207.6 252.5 202.9 253.5 201.5 254.45 202.8 254.75 205.9 M195.45 206.9 Q195.1 210.2 194.15 211.3 193.3 210.2 192.95 206.75 L192.7 203.5 Q192.7 201.85 192.95 200.2 194.9 199.35 195.4 200.65 L195.5 203.65 195.45 206.9 M222.5 317.75 Q221.25 316.05 221.25 314.4 221.1 311.9 221.25 309.85 221.4 305.9 222.5 304.5 223.75 305.25 223.75 314.15 L223.7 316.05 Q223.45 317.55 222.5 317.75 M197.55 322.1 Q196.3 322.1 195.5 317.75 L195.0 313.7 Q195.0 305.85 196.9 311.75 L199.2 320.5 198.7 321.55 Q198.2 322.1 197.55 322.1 M313.85 322.55 Q313.45 323.15 312.75 323.15 311.35 323.15 310.75 316.7 L310.45 310.15 310.6 307.1 Q313.35 306.85 314.1 313.85 314.4 317.4 314.25 321.0 L314.25 321.9 313.85 322.55" fill="#76290c" fill-rule="evenodd" stroke="none"/>
  </g>
</svg>
