<?xml version="1.0" encoding="UTF-8" standalone="no"?>
<svg xmlns:xlink="http://www.w3.org/1999/xlink" height="40.05px" width="56.1px" xmlns="http://www.w3.org/2000/svg">
  <g transform="matrix(1.0, 0.0, 0.0, 1.0, 23.15, 18.5)">
    <path d="M12.5 -3.3 L12.75 -4.25 13.05 -4.55 13.15 -4.65 13.15 -4.7 18.65 -9.75 19.2 -10.35 20.05 -10.85 20.95 -11.05 Q22.75 -11.05 24.05 -8.65 L24.85 -6.7 25.35 -3.6 25.35 -3.1 25.35 -3.6 28.1 -3.4 Q28.2 -4.05 28.65 -4.6 29.25 -5.1 30.0 -5.1 30.8 -5.1 31.35 -4.6 31.9 -4.0 31.95 -3.25 31.95 -2.45 31.4 -1.85 30.85 -1.4 30.05 -1.4 29.25 -1.4 28.7 -1.85 L28.6 -2.0 Q28.2 -2.45 28.15 -3.0 L28.1 -3.25 28.1 -3.4 28.1 -3.25 25.35 -3.1 25.4 -2.65 Q25.4 0.5 24.2 2.75 L24.15 2.8 12.5 -3.3 M28.5 -3.2 Q28.5 -2.6 28.95 -2.15 29.45 -1.65 30.05 -1.65 30.65 -1.65 31.1 -2.15 L31.25 -2.25 Q30.5 -2.35 30.05 -2.6 29.05 -3.15 29.05 -4.4 L28.9 -4.25 Q28.45 -3.85 28.5 -3.2" fill="#ff9933" fill-rule="evenodd" stroke="none"/>
    <path d="M12.5 -3.3 L24.15 2.8 Q22.95 5.15 21.15 5.15 L20.05 4.9 19.65 4.7 13.1 -1.25 13.05 -1.4 13.0 -1.4 12.95 -1.45 12.85 -1.65 12.55 -2.35 12.5 -2.95 12.5 -3.05 12.5 -3.3 M25.4 -2.65 L25.35 -3.1 28.1 -3.25 28.15 -3.0 25.4 -2.65 M28.5 -3.2 Q28.45 -3.85 28.9 -4.25 L29.05 -4.4 Q29.05 -3.15 30.05 -2.6 30.5 -2.35 31.25 -2.25 L31.1 -2.15 Q30.65 -1.65 30.05 -1.65 29.45 -1.65 28.95 -2.15 28.5 -2.6 28.5 -3.2" fill="#db6a24" fill-rule="evenodd" stroke="none"/>
    <path d="M25.35 -3.6 L24.85 -6.7 24.05 -8.65 Q22.75 -11.05 20.95 -11.05 L20.05 -10.85 19.2 -10.35 18.65 -9.75 13.15 -4.7 13.15 -4.65 13.05 -4.55 12.75 -4.25 12.5 -3.3 12.5 -3.05 12.5 -2.95 12.55 -2.35 12.85 -1.65 12.95 -1.45 13.0 -1.4 13.05 -1.4 13.1 -1.25 19.65 4.7 20.05 4.9 21.15 5.15 Q22.95 5.15 24.15 2.8 L24.2 2.75 Q25.4 0.5 25.4 -2.65 L25.35 -3.1 25.35 -3.6 28.1 -3.4 Q28.2 -4.05 28.65 -4.6 29.25 -5.1 30.0 -5.1 30.8 -5.1 31.35 -4.6 31.9 -4.0 31.95 -3.25 31.95 -2.45 31.4 -1.85 30.85 -1.4 30.05 -1.4 29.25 -1.4 28.7 -1.85 L28.6 -2.0 Q28.2 -2.45 28.15 -3.0 L25.4 -2.65 M13.0 -1.4 L13.1 -1.25 M28.1 -3.4 L28.1 -3.25 28.15 -3.0" fill="none" stroke="#c45017" stroke-linecap="round" stroke-linejoin="round" stroke-width="2.0"/>
    <path d="M5.8 20.55 L2.65 20.55 0.95 -6.3 4.2 -10.45 5.8 20.55 M2.0 -4.05 L2.25 0.4 2.55 -2.05 2.0 -4.05 M3.55 -4.95 L3.25 -2.25 3.8 -0.45 3.55 -4.95 M2.7 -3.95 L3.05 -7.45 2.05 -6.15 2.7 -3.95 M2.7 2.75 L3.65 1.95 3.05 -0.2 2.7 2.75 M2.95 4.75 L3.35 6.3 3.75 4.05 2.95 4.75 M3.9 8.35 L4.3 9.9 4.15 6.35 3.9 8.35 M3.45 12.15 L4.0 11.8 3.65 10.55 3.45 12.15 M3.0 8.2 L2.75 7.4 2.85 8.95 3.0 8.2 M3.9 16.85 L3.45 18.55 3.45 19.4 4.85 19.4 4.8 18.7 3.9 16.85 M3.25 16.3 L3.45 15.75 3.25 15.4 3.25 16.3 M3.25 13.95 L3.65 14.75 4.0 13.55 3.25 13.95 M4.7 16.65 L4.55 14.35 4.2 15.75 4.7 16.65" fill="#ad0303" fill-rule="evenodd" stroke="none"/>
    <path d="M2.7 -3.95 L2.05 -6.15 3.05 -7.45 2.7 -3.95 M3.55 -4.95 L3.8 -0.45 3.25 -2.25 3.55 -4.95 M2.0 -4.05 L2.55 -2.05 2.25 0.4 2.0 -4.05 M6.65 -8.65 L13.15 -8.25 10.05 -4.45 6.65 -8.65 M9.15 -3.4 L6.1 0.3 5.65 -7.85 9.15 -3.4 M13.95 -7.35 L13.65 0.15 10.8 -3.5 13.95 -7.35 M10.95 7.25 L13.5 4.55 13.35 9.7 10.95 7.25 M10.15 8.1 L12.8 11.15 7.45 11.0 10.15 8.1 M10.25 6.45 L7.15 3.25 13.35 3.45 10.25 6.45 M2.7 2.75 L3.05 -0.2 3.65 1.95 2.7 2.75 M3.9 8.35 L4.15 6.35 4.3 9.9 3.9 8.35 M2.95 4.75 L3.75 4.05 3.35 6.3 2.95 4.75 M3.0 8.2 L2.85 8.95 2.75 7.4 3.0 8.2 M3.45 12.15 L3.65 10.55 4.0 11.8 3.45 12.15 M6.6 9.95 L6.3 3.65 9.4 7.25 6.6 9.95 M8.85 17.1 L7.45 18.9 7.05 18.9 6.85 14.15 8.85 17.1 M9.7 15.95 L7.7 12.95 12.05 12.95 9.7 15.95 M3.25 13.95 L4.0 13.55 3.65 14.75 3.25 13.95 M3.25 16.3 L3.25 15.4 3.45 15.75 3.25 16.3 M3.9 16.85 L4.8 18.7 4.85 19.4 3.45 19.4 3.45 18.55 3.9 16.85 M4.7 16.65 L4.2 15.75 4.55 14.35 4.7 16.65 M9.45 18.9 L9.8 18.5 10.05 18.9 9.45 18.9 M13.0 18.9 L11.65 18.9 10.65 17.35 13.2 13.9 13.0 18.9 M7.05 1.15 L9.95 -2.4 12.95 1.45 7.05 1.15" fill="#6d1800" fill-rule="evenodd" stroke="none"/>
    <path d="M4.2 -10.45 L15.4 -9.75 14.3 20.55 5.8 20.55 4.2 -10.45 M10.95 7.25 L13.35 9.7 13.5 4.55 10.95 7.25 M13.95 -7.35 L10.8 -3.5 13.65 0.15 13.95 -7.35 M9.15 -3.4 L5.65 -7.85 6.1 0.3 9.15 -3.4 M6.65 -8.65 L10.05 -4.45 13.15 -8.25 6.65 -8.65 M10.15 8.1 L7.45 11.0 12.8 11.15 10.15 8.1 M10.25 6.45 L13.35 3.45 7.15 3.25 10.25 6.45 M8.85 17.1 L6.85 14.15 7.05 18.9 7.45 18.9 8.85 17.1 M6.6 9.95 L9.4 7.25 6.3 3.65 6.6 9.95 M9.7 15.95 L12.05 12.95 7.7 12.95 9.7 15.95 M7.05 1.15 L12.95 1.45 9.95 -2.4 7.05 1.15 M13.0 18.9 L13.2 13.9 10.65 17.35 11.65 18.9 13.0 18.9 M9.45 18.9 L10.05 18.9 9.8 18.5 9.45 18.9" fill="#f73600" fill-rule="evenodd" stroke="none"/>
    <path d="M5.8 20.55 L2.65 20.55 0.95 -6.3 4.2 -10.45 15.4 -9.75 14.3 20.55 5.8 20.55 Z" fill="none" stroke="#6d1800" stroke-linecap="butt" stroke-linejoin="miter" stroke-miterlimit="3.0" stroke-width="2.0"/>
    <path d="M-19.5 -8.2 L-17.55 -8.5 Q-16.65 -8.75 -16.4 -9.25 -16.15 -9.7 -16.65 -10.2 L-17.75 -11.05 -18.6 -11.95 Q-18.8 -12.5 -18.05 -13.05 -17.35 -13.6 -16.95 -13.55 L-16.25 -13.2 Q-15.8 -12.9 -15.4 -12.85 -14.7 -12.85 -13.65 -13.35 -12.65 -13.9 -11.7 -14.95 L-10.2 -16.7 -8.65 -18.1 Q-7.7 -18.65 -6.45 -18.45 -5.25 -18.25 -4.6 -17.5 -4.1 -16.95 -3.9 -15.95 L-3.55 -14.4 Q-3.3 -13.65 -2.8 -13.45 L-1.85 -13.5 -1.15 -14.0 -0.3 -14.5 1.1 -14.4 Q2.55 -13.95 3.55 -10.55 L4.15 -8.25 4.35 -7.25 3.75 -5.25 3.05 -1.45 Q2.95 -0.75 3.2 0.05 L3.65 1.4 3.85 2.6 3.3 3.7 2.3 4.3 1.45 4.2 0.55 4.15 Q-0.1 4.2 -0.8 4.65 -1.5 5.1 -2.05 6.0 L-2.85 7.55 Q-3.25 8.45 -3.6 8.75 -4.05 9.2 -4.8 9.0 L-5.85 8.35 -6.25 7.45 -6.65 6.7 Q-6.95 6.35 -7.6 6.3 L-8.75 6.6 -9.65 7.25 -10.7 7.6 Q-11.35 7.6 -12.2 7.05 -13.05 6.5 -13.25 5.7 L-13.25 4.3 -13.15 3.05 Q-13.2 2.45 -13.9 2.15 -14.55 1.9 -15.25 2.4 L-16.5 3.6 -17.8 4.75 Q-18.5 5.15 -19.2 4.75 -19.95 4.35 -20.1 3.8 L-20.1 2.75 -19.9 1.55 Q-19.85 0.8 -20.15 0.2 L-21.15 -1.35 -22.3 -3.05 Q-23.6 -5.15 -22.9 -6.55 -22.5 -7.3 -21.5 -7.7 L-19.5 -8.2" fill="#f73600" fill-rule="evenodd" stroke="none"/>
    <path d="M-4.6 -12.05 L1.85 -6.2 1.95 -6.05 2.25 -5.65 2.65 -4.3 2.65 -4.2 2.6 -3.5 -2.5 -0.55 -2.2 -2.7 -2.5 -0.55 -2.75 0.45 -3.55 2.35 -4.35 3.6 -5.15 4.45 -5.15 4.5 -5.3 4.5 -5.3 4.55 -5.35 4.55 -5.75 4.8 -5.8 4.8 -7.05 5.1 Q-9.15 5.1 -10.65 2.35 -12.05 -0.25 -12.15 -3.9 L-2.2 -2.7 -2.15 -3.9 -2.15 -4.2 -2.15 -4.3 -2.25 -5.7 -2.15 -4.3 -2.15 -4.2 -2.15 -3.9 -15.35 -4.55 -15.35 -4.25 Q-15.4 -3.65 -15.9 -3.1 L-15.95 -3.0 Q-16.6 -2.4 -17.55 -2.4 -18.4 -2.4 -19.05 -3.0 -19.75 -3.65 -19.75 -4.55 -19.75 -5.45 -19.15 -6.1 -18.5 -6.75 -17.55 -6.75 -16.65 -6.75 -16.0 -6.1 -15.4 -5.5 -15.35 -4.7 L-12.15 -4.95 -2.25 -5.7 -2.5 -7.2 -2.9 -8.85 -3.75 -10.75 -4.6 -12.05 M-16.3 -3.3 L-16.15 -3.45 Q-18.2 -3.45 -18.7 -5.9 L-18.8 -5.8 Q-19.3 -5.25 -19.3 -4.55 -19.3 -3.8 -18.75 -3.3 -18.2 -2.85 -17.55 -2.85 -16.8 -2.85 -16.3 -3.3 M-15.35 -4.55 L-15.35 -4.7 -15.35 -4.55" fill="#ff9933" fill-rule="evenodd" stroke="none"/>
    <path d="M2.6 -3.5 L2.3 -2.7 2.15 -2.5 2.05 -2.4 1.9 -2.25 -4.35 3.6 -3.55 2.35 -2.75 0.45 -2.5 -0.55 2.6 -3.5 M-12.15 -3.9 L-15.35 -4.25 -15.35 -4.55 -2.15 -3.9 -2.2 -2.7 -12.15 -3.9 M-12.15 -4.95 L-11.95 -7.2 Q-11.65 -9.15 -10.8 -10.75 -9.4 -13.5 -7.35 -13.5 L-6.3 -13.3 -5.3 -12.75 -4.6 -12.05 -3.75 -10.75 -2.9 -8.85 -2.5 -7.2 -2.25 -5.7 -12.15 -4.95 M-16.3 -3.3 Q-16.8 -2.85 -17.55 -2.85 -18.2 -2.85 -18.75 -3.3 -19.3 -3.8 -19.3 -4.55 -19.3 -5.25 -18.8 -5.8 L-18.7 -5.9 Q-18.2 -3.45 -16.15 -3.45 L-16.3 -3.3" fill="#db6a24" fill-rule="evenodd" stroke="none"/>
    <path d="M-4.6 -12.05 L1.85 -6.2 1.95 -6.05 2.25 -5.65 2.65 -4.3 2.65 -4.2 2.6 -3.5 2.3 -2.7 2.15 -2.5 2.05 -2.4 1.9 -2.25 -4.35 3.6 -5.15 4.45 -5.15 4.5 -5.3 4.55 -5.35 4.55 -5.75 4.8 -5.8 4.8 -7.05 5.1 Q-9.15 5.1 -10.65 2.35 -12.05 -0.25 -12.15 -3.9 L-15.35 -4.25 Q-15.4 -3.65 -15.9 -3.1 L-15.95 -3.0 Q-16.6 -2.4 -17.55 -2.4 -18.4 -2.4 -19.05 -3.0 -19.75 -3.65 -19.75 -4.55 -19.75 -5.45 -19.15 -6.1 -18.5 -6.75 -17.55 -6.75 -16.65 -6.75 -16.0 -6.1 -15.4 -5.5 -15.35 -4.7 L-12.15 -4.95 -11.95 -7.2 Q-11.65 -9.15 -10.8 -10.75 -9.4 -13.5 -7.35 -13.5 L-6.3 -13.3 -5.3 -12.75 -4.6 -12.05 -3.75 -10.75 -2.9 -8.85 -2.5 -7.2 -2.25 -5.7 -2.15 -4.3 -2.15 -4.2 -2.15 -3.9 -2.2 -2.7 -2.5 -0.55 -2.75 0.45 -3.55 2.35 -4.35 3.6 M-15.35 -4.7 L-15.35 -4.55 -15.35 -4.25 M-2.25 -5.7 L-12.15 -4.95 M-12.15 -3.9 L-2.2 -2.7 M-5.15 4.5 L-5.3 4.5 -5.3 4.55" fill="none" stroke="#c45017" stroke-linecap="round" stroke-linejoin="round" stroke-width="2.0"/>
  </g>
</svg>
