<?xml version="1.0" encoding="UTF-8" standalone="no"?>
<svg xmlns:xlink="http://www.w3.org/1999/xlink" height="42.85px" width="292.1px" xmlns="http://www.w3.org/2000/svg">
  <g transform="matrix(1.0, 0.0, 0.0, 1.0, -54.0, -7.9)">
    <path d="M337.85 11.1 L339.1 12.1 Q341.35 13.7 344.0 14.0 L344.0 27.1 343.95 27.15 Q342.8 27.9 342.8 29.15 342.8 30.45 343.5 32.2 L344.0 33.25 344.0 37.45 Q343.15 38.45 343.15 40.4 L343.2 41.05 342.5 43.5 340.4 43.25 Q338.8 43.3 337.65 44.1 336.85 44.6 336.55 45.45 L332.5 44.95 325.15 45.25 Q323.15 45.6 322.4 46.3 L280.9 46.3 Q280.15 45.85 278.85 45.5 L236.3 45.45 222.25 46.3 199.05 46.3 195.55 46.0 186.1 45.3 Q180.0 45.6 176.2 45.3 174.2 45.45 173.15 46.3 L148.95 46.3 147.7 45.6 145.25 45.15 136.7 45.6 131.65 45.6 130.5 45.55 125.4 46.3 101.35 46.3 Q100.55 45.65 99.0 45.4 L91.85 45.3 89.15 45.25 78.15 46.3 77.95 46.3 72.9 46.15 67.8 45.85 63.7 46.3 57.4 46.3 Q57.2 44.5 56.15 42.95 L55.1 41.65 55.1 40.15 Q55.6 39.7 55.75 38.85 L55.85 36.05 Q55.85 34.2 55.5 32.55 L55.1 30.6 55.1 24.1 55.55 22.8 55.2 17.4 55.1 16.15 55.1 15.6 55.25 15.45 55.2 15.2 Q55.2 14.4 55.85 14.0 56.05 13.8 56.5 13.7 L57.25 12.75 58.2 11.7 60.55 11.6 60.7 11.6 62.0 11.1 65.55 11.1 70.35 10.95 87.85 10.85 93.65 10.8 141.8 10.8 143.9 11.05 144.05 11.1 180.5 11.1 180.9 11.4 181.15 11.5 201.55 11.5 210.75 12.0 211.5 12.0 211.9 11.7 216.15 12.0 226.65 11.1 257.75 11.1 261.2 11.7 266.45 11.75 280.8 11.5 281.15 11.45 291.65 11.45 292.15 11.65 292.65 11.5 301.8 11.45 302.95 11.1 337.85 11.1" fill="#3cadc6" fill-rule="evenodd" stroke="none"/>
    <path d="M339.7 9.35 L338.35 12.05 336.55 14.95 336.1 14.35 Q336.1 13.4 337.95 10.05 339.7 6.75 339.7 9.35 M341.2 36.5 L345.55 36.1 346.1 36.75 345.85 37.4 343.15 37.6 341.2 37.5 341.1 36.95 341.2 36.5 M334.55 43.3 L335.4 47.1 335.35 47.5 334.9 47.8 Q334.35 47.8 334.0 45.4 L333.65 41.65 Q333.7 40.05 334.55 43.3 M324.35 44.25 Q324.9 45.8 324.9 48.65 L324.75 49.5 324.45 49.6 Q323.95 49.25 323.85 48.55 L323.8 47.3 Q323.8 42.8 324.35 44.25 M336.7 41.95 L337.7 44.2 Q338.5 46.3 338.5 46.75 338.5 47.45 337.95 47.45 337.6 47.45 337.0 45.3 L336.45 43.15 336.7 41.95 M314.7 10.8 Q314.7 8.35 315.3 9.0 315.95 9.7 315.95 12.35 315.95 13.7 315.35 13.7 315.1 13.7 314.85 12.25 L314.7 10.8 M310.15 10.75 L310.25 7.9 Q311.6 7.7 311.6 13.15 311.6 13.95 310.9 13.95 310.5 13.95 310.3 12.35 L310.15 10.75 M295.85 47.25 Q296.0 46.3 296.45 46.15 297.0 46.3 297.0 47.45 296.6 49.8 296.3 50.0 295.9 49.75 295.85 49.35 L295.8 48.55 295.85 47.25 M302.75 47.55 Q302.75 44.75 303.45 46.6 L304.1 49.55 304.05 50.0 303.6 50.35 Q303.15 50.35 302.85 48.9 L302.75 47.55 M269.35 15.5 L269.35 14.4 269.55 10.95 Q269.8 8.0 270.5 10.25 L270.75 15.75 270.65 16.4 Q270.55 16.65 270.15 16.65 269.5 16.65 269.35 15.5 M264.45 45.65 L264.9 48.0 264.8 48.6 Q264.7 48.9 264.3 48.9 263.75 48.9 263.35 47.15 L263.05 45.25 Q263.05 44.4 263.7 44.4 264.3 44.4 264.45 45.65 M240.7 12.75 L240.65 11.95 Q240.65 11.1 241.25 10.25 241.85 9.3 241.85 11.3 L241.7 12.75 Q241.6 13.05 241.2 13.05 L240.9 13.0 240.7 12.75 M222.95 9.85 Q223.75 11.65 223.75 12.75 223.75 13.5 223.05 13.5 222.65 13.5 222.3 11.85 L222.05 10.25 Q222.05 8.1 222.95 9.85 M217.2 45.1 L217.9 49.35 217.65 49.95 217.3 50.15 Q216.9 50.15 216.75 49.35 L216.75 48.55 Q216.75 45.5 217.2 45.1 M177.4 12.85 Q177.4 14.35 176.9 14.35 176.55 14.35 176.35 12.75 L176.2 11.35 Q176.2 7.1 176.8 8.35 177.4 9.5 177.4 12.85 M161.85 12.4 Q161.55 11.8 161.55 11.05 L161.7 10.25 162.05 9.4 162.35 9.5 162.45 10.0 162.3 10.95 162.1 12.15 161.85 12.4 M123.35 10.6 Q123.35 11.95 122.95 12.5 122.5 12.3 122.5 10.5 122.5 8.95 122.95 8.45 123.35 8.95 123.35 10.6 M127.35 44.5 Q128.0 45.6 128.0 47.85 L127.95 48.45 Q128.0 48.65 127.6 48.65 127.25 48.65 127.0 47.25 L126.95 45.75 Q126.95 44.8 127.35 44.5 M157.25 46.85 Q157.65 47.5 157.65 48.25 L157.3 50.45 157.0 50.6 Q156.6 50.1 156.6 49.45 L156.9 47.9 157.25 46.85 M160.8 47.65 L161.0 49.55 160.85 50.55 160.55 50.75 Q160.35 50.75 160.15 49.45 L160.0 48.1 160.1 47.2 Q160.25 46.3 160.5 46.1 L160.8 47.65 M118.45 12.25 L118.4 12.7 Q118.45 12.85 118.1 12.85 117.65 12.85 117.3 11.15 L117.05 9.5 117.15 9.0 Q118.5 9.0 118.45 12.25 M97.75 47.3 L97.75 46.1 Q97.75 44.75 98.2 44.2 L98.6 45.75 98.85 47.45 98.8 48.15 98.4 48.45 Q97.85 48.45 97.75 47.3 M73.9 12.1 L73.75 12.95 73.5 13.1 Q73.3 12.95 73.05 11.25 L72.8 9.25 Q72.8 8.5 73.15 8.4 73.4 8.7 73.65 10.3 L73.9 12.1 M70.2 9.1 Q70.3 8.7 70.55 8.4 71.15 9.3 71.3 10.85 L71.45 13.7 70.85 14.3 70.55 14.2 70.45 14.0 70.1 9.5 70.2 9.1 M57.7 10.05 Q57.7 9.45 58.1 9.3 L59.15 11.35 59.95 13.7 59.85 14.0 Q59.8 14.15 59.55 14.15 58.85 14.15 58.25 12.15 L57.7 10.05 M54.05 15.65 L56.2 16.6 Q57.6 17.45 57.6 18.05 L57.45 18.65 57.1 18.75 55.2 17.7 Q54.0 16.85 54.0 16.15 L54.05 15.65 M54.55 29.05 Q54.55 28.45 56.0 28.15 57.4 27.8 57.85 28.35 57.4 29.25 56.2 29.5 L54.95 29.75 Q54.55 29.55 54.55 29.05 M56.5 32.9 L55.25 32.8 54.95 32.35 Q55.0 31.75 55.2 31.6 L57.15 31.5 Q57.8 31.5 57.8 32.15 L57.5 32.8 56.5 32.9 M55.9 44.55 Q55.9 44.05 56.55 42.95 57.4 41.55 58.3 42.3 L57.4 43.9 56.35 45.3 55.9 44.55 M67.8 48.8 L67.75 49.35 67.3 49.6 Q66.95 49.6 66.65 47.65 L66.35 45.65 Q66.35 43.15 67.1 45.2 67.8 47.2 67.8 48.8" fill="#367583" fill-rule="evenodd" stroke="none"/>
  </g>
</svg>
