<?xml version="1.0" encoding="UTF-8" standalone="no"?>
<svg xmlns:xlink="http://www.w3.org/1999/xlink" height="101.85px" width="49.25px" xmlns="http://www.w3.org/2000/svg">
  <g transform="matrix(1.0, 0.0, 0.0, 1.0, 17.25, 60.85)">
    <path d="M17.9 -10.35 Q18.7 0.35 23.15 10.25 25.4 15.2 27.5 18.0 L9.15 36.5 -5.6 34.55 7.4 23.45 -4.0 31.55 -12.75 29.35 -1.85 22.45 -9.35 26.0 -12.0 23.25 3.4 14.25 Q2.9 6.0 3.8 -10.35 4.35 -20.55 8.45 -34.75 10.5 -41.8 12.45 -46.85 L24.15 -56.35 Q22.3 -49.15 20.55 -39.8 17.1 -21.05 17.9 -10.35" fill="#bf7926" fill-rule="evenodd" stroke="none"/>
    <path d="M17.9 -10.35 Q18.7 0.35 23.15 10.25 25.4 15.2 27.5 18.0 L9.15 36.5 -5.6 34.55 7.4 23.45 -4.0 31.55 -12.75 29.35 -1.85 22.45 -9.35 26.0 -12.0 23.25 3.4 14.25 Q2.9 6.0 3.8 -10.35 4.35 -20.55 8.45 -34.75 10.5 -41.8 12.45 -46.85 L24.15 -56.35 Q22.3 -49.15 20.55 -39.8 17.1 -21.05 17.9 -10.35 Z" fill="none" stroke="#3c190a" stroke-linecap="round" stroke-linejoin="round" stroke-width="9.0"/>
    <path d="M17.9 -10.35 Q18.7 0.35 23.15 10.25 25.4 15.2 27.5 18.0 L9.15 36.5 -5.6 34.55 7.4 23.45 -4.0 31.55 -12.75 29.35 -1.85 22.45 -9.35 26.0 -12.0 23.25 3.4 14.25 Q2.9 6.0 3.8 -10.35 4.35 -20.55 8.45 -34.75 10.5 -41.8 12.45 -46.85 L24.15 -56.35 Q22.3 -49.15 20.55 -39.8 17.1 -21.05 17.9 -10.35" fill="#bf7926" fill-rule="evenodd" stroke="none"/>
    <path d="M8.6 -35.15 Q10.55 -41.95 12.45 -46.85 L24.15 -56.35 Q22.3 -49.15 20.55 -39.8 17.5 -23.3 17.75 -13.0 L17.9 -10.35 Q18.7 0.35 23.15 10.25 25.4 15.2 27.5 18.0 L18.95 26.6 Q19.5 23.1 20.85 19.55 16.1 23.8 10.05 26.8 10.5 22.5 12.45 18.4 7.3 22.7 1.1 25.4 2.9 21.2 6.45 17.7 1.7 19.95 -3.9 21.3 -3.15 19.1 -1.7 17.25 L3.4 14.25 Q2.9 6.0 3.8 -10.35 L4.25 -15.45 Q5.05 -23.15 7.2 -30.95 L8.45 -34.75 8.6 -35.15" fill="#70381f" fill-rule="evenodd" stroke="none"/>
  </g>
</svg>
