<?xml version="1.0" encoding="UTF-8" standalone="no"?>
<svg xmlns:xlink="http://www.w3.org/1999/xlink" height="29.65px" width="30.75px" xmlns="http://www.w3.org/2000/svg">
  <g transform="matrix(1.0, 0.0, 0.0, 1.0, 18.35, 9.25)">
    <path d="M3.45 5.15 Q5.65 5.65 7.2 6.6 6.4 8.7 4.1 9.9 4.45 8.45 3.8 7.3 L3.15 6.25 2.6 5.65 2.0 4.9 3.45 5.15 M10.05 11.55 L10.35 9.3 12.4 11.15 11.8 11.05 10.55 11.25 10.05 11.55 M9.9 3.35 L8.85 -0.35 Q10.3 -0.1 12.3 1.1 L11.8 1.3 Q11.1 1.5 10.7 1.8 10.0 2.2 9.9 3.35 M4.5 -6.4 L4.15 -6.7 2.6 -7.85 Q3.65 -8.5 5.15 -8.8 L4.95 -8.2 Q4.6 -7.45 4.55 -6.8 L4.5 -6.4 M1.95 -1.65 Q2.4 0.35 2.05 2.2 1.4 1.35 0.55 1.05 -0.05 0.75 -1.05 0.6 L-1.8 0.5 Q0.15 -1.15 1.95 -1.65" fill="#ffe693" fill-rule="evenodd" stroke="none"/>
    <path d="M-1.5 -9.2 L-0.9 -9.25 0.5 -8.9 2.6 -7.85 4.15 -6.7 4.5 -6.4 Q7.4 -4.0 8.85 -0.35 L9.9 3.35 Q10.45 6.8 10.35 9.3 L10.05 11.55 9.5 12.9 Q8.2 15.15 5.5 15.2 L4.7 15.15 Q2.65 14.8 1.7 13.55 L1.65 12.05 Q1.65 10.45 2.3 8.75 L3.15 6.25 3.8 7.3 Q4.45 8.45 4.1 9.9 6.4 8.7 7.2 6.6 5.65 5.65 3.45 5.15 L3.6 4.65 Q4.55 0.3 1.75 -4.8 L-0.9 -9.2 -1.5 -9.2" fill="#32ad80" fill-rule="evenodd" stroke="none"/>
    <path d="M-1.5 -9.2 L-0.9 -9.2 1.75 -4.8 Q4.55 0.3 3.6 4.65 L3.45 5.15 2.0 4.9 2.6 5.65 3.15 6.25 2.3 8.75 Q1.65 10.45 1.65 12.05 L1.7 13.55 1.7 13.6 Q1.2 12.95 0.95 12.15 0.5 11.1 0.55 8.0 0.5 6.7 1.0 5.4 L2.05 2.2 Q2.4 0.35 1.95 -1.65 1.55 -3.4 0.55 -5.15 L-1.7 -9.0 -1.6 -9.15 -1.55 -9.2 -1.5 -9.2" fill="#006b5c" fill-rule="evenodd" stroke="none"/>
    <path d="M-15.5 -3.4 Q-14.65 -6.15 -11.7 -6.4 L-11.35 -6.5 -11.2 -6.45 Q-9.75 -6.55 -8.7 -5.65 L-8.25 -5.0 -7.75 -4.25 Q-7.25 -3.25 -6.6 -0.1 -6.35 1.05 -6.45 2.65 L-6.55 2.9 -6.7 4.15 -6.85 5.05 -5.85 5.6 -4.25 5.8 -3.4 5.75 Q-5.2 7.65 -6.7 8.55 -6.25 10.65 -4.75 13.05 L-4.55 13.5 -4.45 13.65 -3.95 14.35 -0.7 18.65 -1.9 18.9 -3.05 18.65 -5.5 17.65 -7.95 19.1 -7.8 18.4 -7.75 16.7 -7.85 16.1 -9.95 14.2 -10.65 14.55 -10.5 13.9 -10.45 13.6 Q-13.15 10.55 -14.45 6.4 L-17.05 5.65 -16.6 5.35 -15.75 4.65 -15.25 3.25 Q-16.3 -1.05 -15.5 -3.4" fill="#ffffff" fill-rule="evenodd" stroke="none"/>
    <path d="M-15.5 -3.4 Q-16.3 -1.05 -15.25 3.25 L-15.75 4.65 -16.6 5.35 -17.05 5.65 -14.45 6.4 Q-13.15 10.55 -10.45 13.6 L-10.5 13.9 -10.65 14.55 -9.95 14.2 -7.85 16.1 -7.75 16.7 -7.8 18.4 -7.95 19.1 -5.5 17.65 -3.05 18.65 -1.9 18.9 -0.7 18.65 -3.95 14.35 -4.45 13.65 -4.55 13.5 -4.75 13.05 Q-6.25 10.65 -6.7 8.55 -5.2 7.65 -3.4 5.75 L-4.25 5.8 -5.85 5.6 -6.85 5.05 -6.7 4.15 -6.55 2.9 -6.45 2.65 Q-6.35 1.05 -6.6 -0.1 -7.25 -3.25 -7.75 -4.25 L-8.25 -5.0 -8.7 -5.65 Q-9.75 -6.55 -11.2 -6.45 L-11.35 -6.5 -11.7 -6.4 Q-14.65 -6.15 -15.5 -3.4 Z" fill="none" stroke="#003f36" stroke-linecap="square" stroke-linejoin="round" stroke-width="2.0"/>
  </g>
</svg>
