<?xml version="1.0" encoding="UTF-8" standalone="no"?>
<svg xmlns:xlink="http://www.w3.org/1999/xlink" height="36.5px" width="54.85px" xmlns="http://www.w3.org/2000/svg">
  <g transform="matrix(1.0, 0.0, 0.0, 1.0, 112.15, 102.65)">
    <path d="M-109.15 -79.15 L-109.15 -89.6 Q-109.15 -96.9 -101.5 -97.45 L-71.65 -99.6 Q-60.3 -100.45 -60.3 -91.1 L-60.3 -77.7 Q-60.3 -68.35 -71.65 -69.2 L-101.5 -71.3 Q-109.15 -71.85 -109.15 -79.15" fill="#cc0000" fill-rule="evenodd" stroke="none"/>
    <path d="M-109.15 -79.15 Q-109.15 -71.85 -101.5 -71.3 L-71.65 -69.2 Q-60.3 -68.35 -60.3 -77.7 L-60.3 -91.1 Q-60.3 -100.45 -71.65 -99.6 L-101.5 -97.45 Q-109.15 -96.9 -109.15 -89.6 L-109.15 -79.15 Z" fill="none" stroke="#9f3f11" stroke-linecap="round" stroke-linejoin="round" stroke-width="6.0"/>
    <path d="M-109.15 -89.6 Q-109.15 -96.9 -101.5 -97.45 L-71.65 -99.6 Q-60.3 -100.45 -60.3 -91.1 L-60.3 -77.7 Q-60.3 -68.35 -71.65 -69.2 L-101.5 -71.3 Q-109.15 -71.85 -109.15 -79.15 L-109.15 -89.6" fill="#95d709" fill-rule="evenodd" stroke="none"/>
    <path d="M-74.7 -100.05 L-74.8 -99.35 -71.65 -99.6 Q-60.3 -100.45 -60.3 -91.1 L-60.3 -77.7 Q-60.3 -68.35 -71.65 -69.2 L-74.6 -69.4 -74.5 -68.7 Q-77.95 -83.85 -74.7 -100.05" fill="#cd571e" fill-rule="evenodd" stroke="none"/>
    <path d="M-108.7 -79.3 L-66.0 -77.2 Q-62.85 -77.05 -60.3 -77.25 -60.55 -68.35 -71.65 -69.2 L-101.5 -71.3 Q-109.15 -71.85 -109.15 -79.15 L-109.15 -79.3 -108.7 -79.3" fill="#78ad09" fill-rule="evenodd" stroke="none"/>
    <path d="M-101.5 -97.45 L-100.85 -97.5 Q-103.25 -84.05 -100.55 -70.55 L-100.75 -71.25 -101.5 -71.3 -102.45 -71.4 Q-104.8 -84.35 -102.6 -97.35 L-101.5 -97.45 M-96.1 -97.8 L-94.3 -97.95 Q-96.9 -84.35 -94.2 -70.8 L-95.95 -70.9 Q-98.55 -84.35 -96.1 -97.8" fill="#cd571e" fill-rule="evenodd" stroke="none"/>
    <path d="M-74.65 -69.4 Q-75.55 -73.5 -75.95 -77.7 L-66.0 -77.2 Q-62.85 -77.05 -60.3 -77.25 -60.55 -68.35 -71.65 -69.2 L-74.65 -69.4" fill="#b8450d" fill-rule="evenodd" stroke="none"/>
    <path d="M-95.95 -70.9 Q-96.7 -74.8 -97.0 -78.7 L-95.3 -78.6 -95.4 -79.75 Q-95.1 -75.3 -94.2 -70.8 L-95.95 -70.9 M-102.45 -71.4 Q-103.15 -75.2 -103.45 -79.0 L-101.7 -78.95 -100.65 -71.25 -101.5 -71.3 -102.45 -71.4" fill="#e99f11" fill-rule="evenodd" stroke="none"/>
    <path d="M-93.9 -92.3 L-93.75 -92.1 Q-94.3 -91.6 -96.15 -91.05 L-98.15 -90.6 -99.0 -90.9 -96.8 -91.75 -93.9 -92.3 M-92.1 -88.25 L-92.0 -88.05 Q-92.3 -87.75 -92.6 -87.75 L-93.0 -87.75 -93.05 -88.1 -92.85 -88.45 -92.1 -88.25 M-90.9 -95.85 Q-91.25 -95.1 -93.2 -94.6 L-97.05 -93.65 Q-97.15 -93.6 -100.0 -92.5 -102.85 -91.35 -103.1 -91.35 -103.7 -91.35 -103.7 -91.85 -103.7 -92.15 -97.55 -94.8 L-93.8 -95.9 -90.9 -95.85 M-62.7 -85.85 L-62.9 -85.95 -63.0 -86.25 Q-63.0 -87.0 -60.8 -88.6 L-60.3 -88.95 -60.3 -87.3 Q-61.7 -86.3 -62.7 -85.85 M-61.8 -89.25 L-65.0 -86.35 -68.55 -83.9 -68.7 -84.0 -65.8 -86.9 -62.4 -89.85 -60.3 -91.55 -60.3 -91.1 -60.3 -90.5 -61.8 -89.25 M-65.3 -93.35 L-65.5 -93.0 Q-65.7 -92.85 -65.85 -92.85 -66.3 -92.85 -66.3 -93.35 -66.3 -93.85 -65.8 -93.85 -65.3 -93.85 -65.3 -93.35 M-66.45 -94.4 Q-66.45 -93.95 -67.1 -93.15 -67.9 -92.15 -68.85 -92.15 -70.1 -92.15 -70.5 -92.75 L-70.65 -93.45 Q-70.65 -94.7 -69.05 -95.55 L-67.0 -95.6 Q-66.45 -95.15 -66.45 -94.4 M-73.95 -92.55 L-73.35 -92.45 -74.1 -91.2 -75.0 -90.0 Q-75.75 -89.4 -77.5 -88.6 L-79.55 -87.9 Q-80.85 -87.9 -80.85 -88.85 -80.85 -89.3 -79.95 -90.15 L-78.3 -91.2 -75.95 -92.3 -73.95 -92.55 M-71.1 -90.75 L-74.4 -87.95 -75.95 -86.25 Q-76.9 -85.35 -77.55 -85.35 -77.95 -85.35 -78.3 -85.75 L-78.6 -86.3 Q-78.6 -87.35 -71.1 -90.75 M-72.15 -83.1 Q-72.3 -82.1 -74.7 -80.25 -76.95 -78.5 -77.45 -78.5 -78.3 -78.5 -78.3 -79.2 -78.3 -79.95 -75.75 -81.25 -72.3 -82.95 -72.15 -83.1 M-65.85 -83.85 L-65.75 -83.45 -68.05 -81.85 Q-69.5 -80.7 -70.65 -80.4 L-70.85 -80.55 -68.55 -82.35 Q-67.05 -83.55 -65.85 -83.85" fill="#95d709" fill-rule="evenodd" stroke="none"/>
  </g>
</svg>
