<?xml version="1.0" encoding="UTF-8" standalone="no"?>
<svg xmlns:xlink="http://www.w3.org/1999/xlink" height="148.55px" width="207.7px" xmlns="http://www.w3.org/2000/svg">
  <g transform="matrix(1.0, 0.0, 0.0, 1.0, 182.65, 73.95)">
    <path d="M-32.9 72.1 Q-111.55 72.25 -151.95 42.55 -166.6 31.85 -174.15 18.35 -179.9 8.45 -180.15 0.55 L-180.15 0.5 -180.15 0.15 -180.15 0.1 Q-179.9 -7.8 -174.15 -17.75 -166.6 -31.2 -151.95 -41.9 -111.55 -71.6 -32.9 -71.45 L-12.0 -69.95 Q1.45 -68.5 4.85 -66.65 9.35 -64.2 13.95 -53.3 19.55 -40.2 21.15 -22.65 22.35 -10.1 22.55 0.15 L22.55 0.5 Q22.35 10.7 21.15 23.3 19.55 40.85 13.95 53.95 9.35 64.85 4.85 67.3 1.45 69.1 -12.0 70.6 L-32.9 72.1" fill="#95d709" fill-rule="evenodd" stroke="none"/>
    <path d="M-32.9 72.1 Q-111.55 72.25 -151.95 42.55 -166.6 31.85 -174.15 18.35 -179.9 8.45 -180.15 0.55 L-180.15 0.5 -180.15 0.15 -180.15 0.1 Q-179.9 -7.8 -174.15 -17.75 -166.6 -31.2 -151.95 -41.9 -111.55 -71.6 -32.9 -71.45 L-12.0 -69.95 Q1.45 -68.5 4.85 -66.65 9.35 -64.2 13.95 -53.3 19.55 -40.2 21.15 -22.65 22.35 -10.1 22.55 0.15 L22.55 0.5 Q22.35 10.7 21.15 23.3 19.55 40.85 13.95 53.95 9.35 64.85 4.85 67.3 1.45 69.1 -12.0 70.6 L-32.9 72.1 Z" fill="none" stroke="#642e14" stroke-linecap="round" stroke-linejoin="round" stroke-width="5.0"/>
    <path d="M-32.9 72.1 Q-111.6 72.25 -151.95 42.55 -166.55 31.85 -174.15 18.35 -179.85 8.45 -180.1 0.55 L-180.1 0.5 -180.1 0.15 -180.1 0.1 Q-179.85 -7.8 -174.15 -17.75 -166.55 -31.2 -151.95 -41.9 -111.6 -71.6 -32.9 -71.45 L-12.0 -69.95 Q1.45 -68.5 4.85 -66.65 9.35 -64.2 14.0 -53.3 19.55 -40.2 21.2 -22.65 22.35 -10.1 22.55 0.15 L22.55 0.5 Q22.35 10.7 21.2 23.3 19.55 40.85 14.0 53.95 9.35 64.85 4.85 67.3 1.45 69.1 -12.0 70.6 L-32.9 72.1" fill="#40580d" fill-rule="evenodd" stroke="none"/>
    <path d="M-12.0 -69.95 Q1.45 -68.5 4.85 -66.65 9.35 -64.2 13.95 -53.3 19.55 -40.2 21.15 -22.65 22.35 -10.1 22.55 0.15 L22.55 0.5 Q22.35 10.7 21.15 23.3 19.55 40.85 13.95 53.95 9.35 64.85 4.85 67.3 1.45 69.1 -12.0 70.6 L-19.5 71.35 Q-17.05 67.65 -14.65 61.85 -8.25 46.85 -6.4 26.65 -5.05 12.3 -4.8 0.5 L-4.8 0.15 Q-5.05 -11.65 -6.4 -26.05 -8.25 -46.2 -14.65 -61.2 -17.05 -67.0 -19.5 -70.7 L-12.0 -69.95" fill="#8a360d" fill-rule="evenodd" stroke="none"/>
    <path d="M12.7 -57.7 Q-84.55 -63.9 -170.0 -24.2 L-166.35 -28.75 Q-83.5 -65.9 10.45 -60.5 L11.9 -57.8 12.7 -57.7 M19.8 -33.15 L20.2 -30.55 Q4.7 -30.55 -10.9 -29.9 L-10.8 -29.85 -12.3 -29.85 -12.5 -29.8 -12.5 -29.85 Q-95.8 -26.5 -179.15 -6.2 L-178.25 -9.15 Q-79.0 -32.95 19.8 -33.15 M-58.9 1.25 L-59.85 1.25 -59.95 1.25 -61.1 1.25 -180.05 1.25 -180.1 0.55 -180.1 0.5 -180.1 0.15 -180.1 0.1 -180.0 -1.35 22.55 -1.35 22.55 0.15 22.55 0.5 22.55 1.25 -58.9 1.25 -58.8 1.45 -59.0 1.4 -58.9 1.25 M-178.3 9.5 L-179.2 6.6 Q-79.45 30.7 20.25 30.9 L19.8 33.45 Q4.85 33.45 -10.15 32.95 L-10.35 32.85 -12.25 33.0 -12.65 32.85 -44.1 30.95 -45.15 31.05 -49.2 30.5 -50.05 30.35 -51.85 30.65 -51.75 30.3 Q-87.9 27.1 -124.05 20.75 L-124.05 20.8 -124.75 20.65 -125.35 20.7 -125.35 20.6 Q-151.85 15.85 -178.3 9.5 M-166.7 29.0 L-170.3 24.45 Q-118.75 48.4 -62.9 55.7 L-63.0 55.5 -60.35 56.0 -60.35 56.05 -60.0 56.1 -60.0 56.0 -58.0 56.15 -58.0 56.3 Q-23.8 60.35 12.05 58.15 L10.6 60.9 Q-83.6 66.2 -166.7 29.0" fill="#202020" fill-rule="evenodd" stroke="none"/>
  </g>
</svg>
