<?xml version="1.0" encoding="UTF-8" standalone="no"?>
<svg xmlns:xlink="http://www.w3.org/1999/xlink" height="97.4px" width="22.4px" xmlns="http://www.w3.org/2000/svg">
  <g transform="matrix(1.0, 0.0, 0.0, 1.0, -0.05, 61.1)">
    <path d="M16.15 -49.15 Q18.45 -41.3 18.45 -30.1 18.45 -18.85 16.15 -10.95 14.05 -3.1 10.9 -3.1 9.3 -3.1 6.65 -15.6 4.05 -28.25 4.05 -37.0 4.05 -45.1 6.65 -51.55 8.95 -57.1 10.9 -57.1 14.05 -57.1 16.15 -49.15 Z" fill="none" stroke="#3c3c3c" stroke-linecap="round" stroke-linejoin="round" stroke-width="8.0"/>
    <path d="M10.9 -57.1 Q14.05 -57.1 16.15 -49.15 18.45 -41.3 18.45 -30.1 18.45 -18.85 16.15 -10.95 14.05 -3.1 10.9 -3.1 9.3 -3.1 6.65 -15.6 4.05 -28.25 4.05 -37.0 4.05 -45.1 6.65 -51.55 8.95 -57.1 10.9 -57.1" fill="#9a9a9a" fill-rule="evenodd" stroke="none"/>
    <path d="M10.9 -57.1 Q14.05 -57.1 16.15 -49.15 18.45 -41.3 18.45 -30.1 18.45 -18.85 16.15 -10.95 14.05 -3.1 10.9 -3.1 9.3 -3.1 6.65 -15.6 4.05 -28.25 4.05 -37.0 4.05 -45.1 6.65 -51.55 8.95 -57.1 10.9 -57.1 Z" fill="none" stroke="#689606" stroke-linecap="round" stroke-linejoin="round" stroke-width="8.0"/>
    <path d="M11.7 27.7 Q12.5 23.1 12.5 16.6 12.5 10.05 11.7 5.45 10.95 0.85 9.9 0.85 9.35 0.85 8.45 8.15 7.55 15.5 7.55 20.6 7.55 25.3 8.45 29.05 9.2 32.3 9.9 32.3 10.95 32.3 11.7 27.7 Z" fill="none" stroke="#3c3c3c" stroke-linecap="round" stroke-linejoin="round" stroke-width="8.0"/>
    <path d="M9.9 32.3 Q10.95 32.3 11.7 27.7 12.5 23.1 12.5 16.6 12.5 10.05 11.7 5.45 10.95 0.85 9.9 0.85 9.35 0.85 8.45 8.15 7.55 15.5 7.55 20.6 7.55 25.3 8.45 29.05 9.2 32.3 9.9 32.3" fill="#9a9a9a" fill-rule="evenodd" stroke="none"/>
    <path d="M16.15 -49.15 Q18.45 -41.3 18.45 -30.1 18.45 -18.85 16.15 -10.95 14.05 -3.1 10.9 -3.1 9.3 -3.1 6.65 -15.6 4.05 -28.25 4.05 -37.0 4.05 -45.1 6.65 -51.55 8.95 -57.1 10.9 -57.1 14.05 -57.1 16.15 -49.15 Z" fill="none" stroke="#3c3c3c" stroke-linecap="round" stroke-linejoin="round" stroke-width="8.0"/>
    <path d="M10.9 -57.1 Q14.05 -57.1 16.15 -49.15 18.45 -41.3 18.45 -30.1 18.45 -18.85 16.15 -10.95 14.05 -3.1 10.9 -3.1 9.3 -3.1 6.65 -15.6 4.05 -28.25 4.05 -37.0 4.05 -45.1 6.65 -51.55 8.95 -57.1 10.9 -57.1" fill="#9a9a9a" fill-rule="evenodd" stroke="none"/>
  </g>
</svg>
