<?xml version="1.0" encoding="UTF-8" standalone="no"?>
<svg xmlns:xlink="http://www.w3.org/1999/xlink" height="132.4px" width="26.05px" xmlns="http://www.w3.org/2000/svg">
  <g transform="matrix(1.0, 0.0, 0.0, 1.0, -1.4, 69.85)">
    <path d="M23.3 -50.2 Q24.15 -43.75 19.65 -43.55 14.85 -43.4 14.65 -34.95 14.15 -26.55 19.15 -24.1 23.35 -22.15 21.25 -18.25 L17.35 -12.2 Q15.3 -3.1 12.8 -3.15 1.2 -11.25 10.15 -15.8 15.45 -18.55 13.05 -21.7 L8.95 -27.3 5.85 -35.95 Q4.2 -40.7 8.3 -42.6 13.9 -45.05 14.75 -48.75 15.6 -52.55 9.6 -54.25 1.1 -56.6 14.4 -65.85 14.9 -65.85 15.05 -61.15 15.45 -56.55 18.5 -56.6 22.5 -56.8 23.3 -50.2" fill="#ffffff" fill-rule="evenodd" stroke="none"/>
    <path d="M23.3 -50.2 Q24.15 -43.75 19.65 -43.55 14.85 -43.4 14.65 -34.95 14.15 -26.55 19.15 -24.1 23.35 -22.15 21.25 -18.25 L17.35 -12.2 Q15.3 -3.1 12.8 -3.15 1.2 -11.25 10.15 -15.8 15.45 -18.55 13.05 -21.7 L8.95 -27.3 5.85 -35.95 Q4.2 -40.7 8.3 -42.6 13.9 -45.05 14.75 -48.75 15.6 -52.55 9.6 -54.25 1.1 -56.6 14.4 -65.85 14.9 -65.85 15.05 -61.15 15.45 -56.55 18.5 -56.6 22.5 -56.8 23.3 -50.2 Z" fill="none" stroke="#3c3c3c" stroke-linecap="round" stroke-linejoin="round" stroke-width="8.0"/>
    <path d="M23.3 -50.2 Q24.15 -43.75 19.65 -43.55 14.85 -43.4 14.65 -34.95 14.15 -26.55 19.15 -24.1 23.35 -22.15 21.25 -18.25 L17.35 -12.2 Q15.3 -3.1 12.8 -3.15 1.2 -11.25 10.15 -15.8 15.45 -18.55 13.05 -21.7 L8.95 -27.3 5.85 -35.95 Q4.2 -40.7 8.3 -42.6 13.9 -45.05 14.75 -48.75 15.6 -52.55 9.6 -54.25 1.1 -56.6 14.4 -65.85 14.9 -65.85 15.05 -61.15 15.45 -56.55 18.5 -56.6 22.5 -56.8 23.3 -50.2" fill="#9a9a9a" fill-rule="evenodd" stroke="none"/>
    <path d="M6.2 46.15 Q5.4 40.95 9.05 40.7 12.9 40.45 12.9 33.7 13.1 26.95 9.05 25.1 5.6 23.65 7.25 20.45 L10.25 15.55 Q11.65 8.15 13.7 8.15 23.2 14.45 16.1 18.25 11.85 20.55 13.9 23.05 L17.3 27.45 19.95 34.35 Q21.35 38.15 18.15 39.75 13.7 41.85 13.1 44.75 12.5 47.85 17.3 49.05 24.2 50.8 13.7 58.55 13.3 58.55 13.1 54.75 12.7 51.05 10.25 51.15 7.05 51.4 6.2 46.15" fill="#ffffff" fill-rule="evenodd" stroke="none"/>
    <path d="M6.2 46.15 Q5.4 40.95 9.05 40.7 12.9 40.45 12.9 33.7 13.1 26.95 9.05 25.1 5.6 23.65 7.25 20.45 L10.25 15.55 Q11.65 8.15 13.7 8.15 23.2 14.45 16.1 18.25 11.85 20.55 13.9 23.05 L17.3 27.45 19.95 34.35 Q21.35 38.15 18.15 39.75 13.7 41.85 13.1 44.75 12.5 47.85 17.3 49.05 24.2 50.8 13.7 58.55 13.3 58.55 13.1 54.75 12.7 51.05 10.25 51.15 7.05 51.4 6.2 46.15 Z" fill="none" stroke="#3c3c3c" stroke-linecap="round" stroke-linejoin="round" stroke-width="8.0"/>
    <path d="M6.2 46.15 Q5.4 40.95 9.05 40.7 12.9 40.45 12.9 33.7 13.1 26.95 9.05 25.1 5.6 23.65 7.25 20.45 L10.25 15.55 Q11.65 8.15 13.7 8.15 23.2 14.45 16.1 18.25 11.85 20.55 13.9 23.05 L17.3 27.45 19.95 34.35 Q21.35 38.15 18.15 39.75 13.7 41.85 13.1 44.75 12.5 47.85 17.3 49.05 24.2 50.8 13.7 58.55 13.3 58.55 13.1 54.75 12.7 51.05 10.25 51.15 7.05 51.4 6.2 46.15" fill="#9a9a9a" fill-rule="evenodd" stroke="none"/>
  </g>
</svg>
