<?xml version="1.0" encoding="UTF-8" standalone="no"?>
<svg xmlns:xlink="http://www.w3.org/1999/xlink" height="211.45px" width="73.65px" xmlns="http://www.w3.org/2000/svg">
  <g transform="matrix(1.0, 0.0, 0.0, 1.0, 45.55, 105.85)">
    <path d="M-31.6 100.15 Q-23.35 96.1 -12.8 88.95 13.4 70.9 25.6 53.0 L-36.35 51.2 Q-38.95 63.25 -40.9 75.75 -44.8 100.65 -41.7 102.75 -39.8 104.1 -31.6 100.15" fill="#3494d4" fill-rule="evenodd" stroke="none"/>
    <path d="M-31.6 100.15 Q-39.8 104.1 -41.7 102.75 -44.8 100.65 -40.9 75.75 -38.95 63.25 -36.35 51.2 L25.6 53.0 Q13.4 70.9 -12.8 88.95 -23.35 96.1 -31.6 100.15 Z" fill="none" stroke="#998425" stroke-linecap="round" stroke-linejoin="round" stroke-width="5.0"/>
    <path d="M-41.7 102.75 Q-39.8 104.1 -31.6 100.15 -23.35 96.1 -12.8 88.95 13.4 70.9 25.6 53.0 L-36.35 51.2 Q-38.95 63.25 -40.9 75.75 -44.8 100.65 -41.7 102.75" fill="#ffdd3f" fill-rule="evenodd" stroke="none"/>
    <path d="M-31.6 -100.4 Q-23.35 -96.35 -12.8 -89.2 13.4 -71.15 25.6 -53.25 L-36.35 -51.45 Q-38.95 -63.5 -40.9 -76.0 -44.8 -100.9 -41.7 -103.0 -39.8 -104.35 -31.6 -100.4" fill="#3494d4" fill-rule="evenodd" stroke="none"/>
    <path d="M-31.6 -100.4 Q-39.8 -104.35 -41.7 -103.0 -44.8 -100.9 -40.9 -76.0 -38.95 -63.5 -36.35 -51.45 L25.6 -53.25 Q13.4 -71.15 -12.8 -89.2 -23.35 -96.35 -31.6 -100.4 Z" fill="none" stroke="#998425" stroke-linecap="round" stroke-linejoin="round" stroke-width="5.0"/>
    <path d="M-41.7 -103.0 Q-39.8 -104.35 -31.6 -100.4 -23.35 -96.35 -12.8 -89.2 13.4 -71.15 25.6 -53.25 L-36.35 -51.45 Q-38.95 -63.5 -40.9 -76.0 -44.8 -100.9 -41.7 -103.0" fill="#ffdd3f" fill-rule="evenodd" stroke="none"/>
  </g>
</svg>
