<?xml version="1.0" encoding="UTF-8" standalone="no"?>
<svg xmlns:xlink="http://www.w3.org/1999/xlink" height="12.45px" width="18.15px" xmlns="http://www.w3.org/2000/svg">
  <g transform="matrix(1.0, 0.0, 0.0, 1.0, 152.65, -36.15)">
    <path d="M-135.3 40.8 Q-136.05 41.6 -137.15 41.6 -138.25 41.6 -139.05 40.8 -139.8 40.05 -139.8 38.9 -139.8 37.75 -139.05 36.95 -138.25 36.15 -137.15 36.15 -136.05 36.15 -135.3 36.95 -134.5 37.75 -134.5 38.9 -134.5 40.05 -135.3 40.8" fill="#6b6b6b" fill-rule="evenodd" stroke="none"/>
    <path d="M-147.55 47.7 Q-148.4 48.6 -149.65 48.6 -150.9 48.6 -151.8 47.7 -152.65 46.85 -152.65 45.6 -152.65 44.4 -151.8 43.5 -150.9 42.65 -149.65 42.65 -148.4 42.65 -147.55 43.5 -146.7 44.4 -146.7 45.6 -146.7 46.85 -147.55 47.7" fill="#6b6b6b" fill-rule="evenodd" stroke="none"/>
  </g>
</svg>
