<?xml version="1.0" encoding="UTF-8" standalone="no"?>
<svg xmlns:xlink="http://www.w3.org/1999/xlink" height="200.9px" width="99.95px" xmlns="http://www.w3.org/2000/svg">
  <g transform="matrix(1.0, 0.0, 0.0, 1.0, 71.85, 95.3)">
    <path d="M-45.1 -77.2 Q-44.0 -80.05 -44.45 -82.05 -45.0 -84.1 -46.9 -84.1 -48.75 -84.1 -50.9 -82.05 -53.05 -80.05 -54.2 -77.2 -55.35 -74.35 -54.8 -72.3 -54.25 -70.25 -52.4 -70.25 -50.5 -70.25 -48.4 -72.3 -46.25 -74.35 -45.1 -77.2 M-53.4 -84.35 Q-53.4 -86.35 -54.3 -87.75 -55.25 -89.15 -56.55 -89.15 -57.85 -89.15 -58.8 -87.75 -59.7 -86.35 -59.7 -84.35 -59.7 -82.35 -58.8 -80.95 -57.85 -79.55 -56.55 -79.55 -55.25 -79.55 -54.3 -80.95 -53.4 -82.35 -53.4 -84.35 M-69.05 -91.75 Q-67.75 -93.55 -58.6 -92.25 -49.4 -90.8 -36.9 -87.05 -30.7 -85.15 -25.0 -83.1 -25.5 -81.35 -24.2 -79.75 -22.25 -77.3 -17.45 -76.7 L-9.85 -76.95 Q2.95 -71.1 12.3 -64.1 L-44.75 -44.05 Q-51.65 -54.8 -58.15 -66.1 -71.1 -88.75 -69.05 -91.75" fill="#ffdd3f" fill-rule="evenodd" stroke="none"/>
    <path d="M-69.05 -91.75 Q-71.1 -88.75 -58.15 -66.1 -51.65 -54.8 -44.75 -44.05 L12.3 -64.1 Q2.95 -71.1 -9.85 -76.95 L-17.45 -76.7 Q-22.25 -77.3 -24.2 -79.75 -25.5 -81.35 -25.0 -83.1 -30.7 -85.15 -36.9 -87.05 -49.4 -90.8 -58.6 -92.25 -67.75 -93.55 -69.05 -91.75 M-53.4 -84.35 Q-53.4 -82.35 -54.3 -80.95 -55.25 -79.55 -56.55 -79.55 -57.85 -79.55 -58.8 -80.95 -59.7 -82.35 -59.7 -84.35 -59.7 -86.35 -58.8 -87.75 -57.85 -89.15 -56.55 -89.15 -55.25 -89.15 -54.3 -87.75 -53.4 -86.35 -53.4 -84.35 M-45.1 -77.2 Q-46.25 -74.35 -48.4 -72.3 -50.5 -70.25 -52.4 -70.25 -54.25 -70.25 -54.8 -72.3 -55.35 -74.35 -54.2 -77.2 -53.05 -80.05 -50.9 -82.05 -48.75 -84.1 -46.9 -84.1 -45.0 -84.1 -44.45 -82.05 -44.0 -80.05 -45.1 -77.2" fill="none" stroke="#998425" stroke-linecap="round" stroke-linejoin="round" stroke-width="5.0"/>
    <path d="M-41.7 102.75 Q-44.8 100.65 -40.9 75.7 -38.95 63.25 -36.35 51.2 L25.6 52.95 Q16.0 67.05 -2.2 81.25 L-3.65 71.75 -6.55 82.75 -10.6 76.4 -14.65 83.9 -26.8 72.9 -23.3 89.1 -35.45 93.15 -33.2 100.9 Q-40.0 103.95 -41.7 102.75" fill="#ffdd3f" fill-rule="evenodd" stroke="none"/>
    <path d="M-41.7 102.75 Q-44.8 100.65 -40.9 75.7 -38.95 63.25 -36.35 51.2 L25.6 52.95 Q16.0 67.05 -2.2 81.25 L-3.65 71.75 -6.55 82.75 -10.6 76.4 -14.65 83.9 -26.8 72.9 -23.3 89.1 -35.45 93.15 -33.2 100.9 Q-40.0 103.95 -41.7 102.75 Z" fill="none" stroke="#998425" stroke-linecap="round" stroke-linejoin="round" stroke-width="5.0"/>
    <path d="M-41.7 102.75 Q-44.8 100.65 -40.9 75.7 -38.95 63.25 -36.35 51.2 L25.6 52.95 Q16.0 67.05 -2.2 81.25 L-3.65 71.75 -6.55 82.75 -10.6 76.4 -14.65 83.9 -26.8 72.9 -23.3 89.1 -29.4 91.1 Q-35.45 93.05 -35.45 93.15 L-33.2 100.9 Q-40.0 103.95 -41.7 102.75" fill="#ffdd3f" fill-rule="evenodd" stroke="none"/>
    <path d="M-45.1 -77.2 Q-44.0 -80.05 -44.45 -82.05 -45.0 -84.1 -46.9 -84.1 -48.75 -84.1 -50.9 -82.05 -53.05 -80.05 -54.2 -77.2 -55.35 -74.35 -54.8 -72.3 -54.25 -70.25 -52.4 -70.25 -50.5 -70.25 -48.4 -72.3 -46.25 -74.35 -45.1 -77.2 M-53.4 -84.35 Q-53.4 -86.35 -54.3 -87.75 -55.25 -89.15 -56.55 -89.15 -57.85 -89.15 -58.8 -87.75 -59.7 -86.35 -59.7 -84.35 -59.7 -82.35 -58.8 -80.95 -57.85 -79.55 -56.55 -79.55 -55.25 -79.55 -54.3 -80.95 -53.4 -82.35 -53.4 -84.35 M-69.05 -91.75 Q-67.75 -93.55 -58.6 -92.25 -49.4 -90.8 -36.9 -87.05 -30.7 -85.15 -25.0 -83.1 -25.5 -81.35 -24.2 -79.75 -22.25 -77.3 -17.45 -76.7 L-9.85 -76.95 Q2.95 -71.1 12.3 -64.1 L-44.75 -44.05 Q-51.65 -54.8 -58.15 -66.1 -71.1 -88.75 -69.05 -91.75" fill="#ffdd3f" fill-rule="evenodd" stroke="none"/>
  </g>
</svg>
