<?xml version="1.0" encoding="UTF-8" standalone="no"?>
<svg xmlns:xlink="http://www.w3.org/1999/xlink" height="116.1px" width="54.85px" xmlns="http://www.w3.org/2000/svg">
  <g transform="matrix(1.0, 0.0, 0.0, 1.0, 129.0, 45.7)">
    <path d="M-126.0 57.4 L-126.0 46.95 Q-126.0 39.65 -118.35 39.1 L-88.5 36.95 Q-77.15 36.1 -77.15 45.45 L-77.15 58.85 Q-77.15 68.2 -88.5 67.35 L-118.35 65.25 Q-126.0 64.7 -126.0 57.4" fill="#cc0000" fill-rule="evenodd" stroke="none"/>
    <path d="M-126.0 57.4 Q-126.0 64.7 -118.35 65.25 L-88.5 67.35 Q-77.15 68.2 -77.15 58.85 L-77.15 45.45 Q-77.15 36.1 -88.5 36.95 L-118.35 39.1 Q-126.0 39.65 -126.0 46.95 L-126.0 57.4 Z" fill="none" stroke="#000000" stroke-linecap="round" stroke-linejoin="round" stroke-width="6.0"/>
    <path d="M-77.15 45.45 L-77.15 58.85 Q-77.15 68.2 -88.5 67.35 L-118.35 65.25 Q-126.0 64.7 -126.0 57.4 L-126.0 46.95 Q-126.0 39.65 -118.35 39.1 L-88.5 36.95 Q-77.15 36.1 -77.15 45.45" fill="#333333" fill-rule="evenodd" stroke="none"/>
    <path d="M-91.65 37.2 L-88.5 36.95 Q-77.15 36.1 -77.15 45.45 L-77.15 58.85 Q-77.15 68.2 -88.5 67.35 L-91.45 67.15 -91.35 67.85 Q-94.8 52.7 -91.55 36.5 L-91.65 37.2" fill="#9bd919" fill-rule="evenodd" stroke="none"/>
    <path d="M-125.55 47.0 L-82.85 44.9 Q-79.7 44.75 -77.15 44.95 -77.4 36.05 -88.5 36.9 L-118.35 39.0 Q-126.0 39.55 -126.0 46.85 L-126.0 47.0 -125.55 47.0" fill="#191919" fill-rule="evenodd" stroke="none"/>
    <path d="M-88.5 36.9 L-91.5 37.1 Q-92.4 41.2 -92.8 45.4 L-82.85 44.9 Q-79.7 44.75 -77.15 44.95 -77.4 36.05 -88.5 36.9" fill="#6c9302" fill-rule="evenodd" stroke="none"/>
    <path d="M-112.95 38.75 L-111.15 38.6 Q-113.75 52.2 -111.05 65.75 L-112.8 65.65 Q-115.4 52.2 -112.95 38.75 M-118.35 39.1 L-117.7 39.05 Q-120.1 52.5 -117.4 66.0 L-117.6 65.3 -118.35 65.25 -119.3 65.15 Q-121.65 52.2 -119.45 39.2 L-118.35 39.1" fill="#9bd919" fill-rule="evenodd" stroke="none"/>
    <path d="M-88.5 -37.2 L-91.5 -37.4 Q-92.4 -41.5 -92.8 -45.7 L-82.85 -45.2 Q-79.7 -45.05 -77.15 -45.25 -77.4 -36.35 -88.5 -37.2" fill="#6c9302" fill-rule="evenodd" stroke="none"/>
  </g>
</svg>
