<?xml version="1.0" encoding="UTF-8" standalone="no"?>
<svg xmlns:xlink="http://www.w3.org/1999/xlink" height="84.9px" width="111.45px" xmlns="http://www.w3.org/2000/svg">
  <g transform="matrix(1.0, 0.0, 0.0, 1.0, 55.75, 24.4)">
    <path d="M-36.1 -6.0 L-35.85 0.95 Q-35.6 3.7 -35.3 3.8 L-23.85 3.8 Q-23.5 3.8 -23.25 0.95 L-23.05 -6.0 -23.25 -12.9 Q-23.5 -15.75 -23.85 -15.75 L-35.3 -15.75 Q-35.6 -15.7 -35.85 -12.9 L-36.1 -6.0" fill="#47566b" fill-rule="evenodd" stroke="none"/>
    <path d="M-36.1 -6.0 L-35.85 0.95 Q-35.6 3.7 -35.3 3.8 L-23.85 3.8 Q-23.5 3.8 -23.25 0.95 L-23.05 -6.0 -23.25 -12.9 Q-23.5 -15.75 -23.85 -15.75 L-35.3 -15.75 Q-35.6 -15.7 -35.85 -12.9 L-36.1 -6.0 Z" fill="none" stroke="#27313f" stroke-linecap="round" stroke-linejoin="round" stroke-width="9.0"/>
    <path d="M36.0 -6.0 L35.75 0.95 Q35.5 3.7 35.2 3.8 L23.75 3.8 Q23.4 3.8 23.15 0.95 L22.95 -6.0 23.15 -12.9 Q23.4 -15.75 23.75 -15.75 L35.2 -15.75 Q35.5 -15.7 35.75 -12.9 L36.0 -6.0" fill="#47566b" fill-rule="evenodd" stroke="none"/>
    <path d="M36.0 -6.0 L35.75 0.95 Q35.5 3.7 35.2 3.8 L23.75 3.8 Q23.4 3.8 23.15 0.95 L22.95 -6.0 23.15 -12.9 Q23.4 -15.75 23.75 -15.75 L35.2 -15.75 Q35.5 -15.7 35.75 -12.9 L36.0 -6.0 Z" fill="none" stroke="#27313f" stroke-linecap="round" stroke-linejoin="round" stroke-width="9.0"/>
    <path d="M-51.25 43.65 L-50.95 52.4 Q-50.65 55.9 -50.25 56.0 L-35.85 56.0 Q-35.4 56.0 -35.1 52.4 -34.8 48.8 -34.8 43.65 -34.8 38.55 -35.1 34.95 -35.4 31.35 -35.85 31.35 L-50.25 31.35 Q-50.65 31.45 -50.95 34.95 L-51.25 43.65" fill="#47566b" fill-rule="evenodd" stroke="none"/>
    <path d="M-51.25 43.65 L-50.95 52.4 Q-50.65 55.9 -50.25 56.0 L-35.85 56.0 Q-35.4 56.0 -35.1 52.4 -34.8 48.8 -34.8 43.65 -34.8 38.55 -35.1 34.95 -35.4 31.35 -35.85 31.35 L-50.25 31.35 Q-50.65 31.45 -50.95 34.95 L-51.25 43.65 Z" fill="none" stroke="#27313f" stroke-linecap="round" stroke-linejoin="round" stroke-width="9.0"/>
    <path d="M51.2 43.65 L50.9 52.4 Q50.6 55.9 50.2 56.0 L35.8 56.0 Q35.35 56.0 35.05 52.4 34.75 48.8 34.75 43.65 34.75 38.55 35.05 34.95 35.35 31.35 35.8 31.35 L50.2 31.35 Q50.6 31.45 50.9 34.95 L51.2 43.65" fill="#47566b" fill-rule="evenodd" stroke="none"/>
    <path d="M51.2 43.65 L50.9 52.4 Q50.6 55.9 50.2 56.0 L35.8 56.0 Q35.35 56.0 35.05 52.4 34.75 48.8 34.75 43.65 34.75 38.55 35.05 34.95 35.35 31.35 35.8 31.35 L50.2 31.35 Q50.6 31.45 50.9 34.95 L51.2 43.65 Z" fill="none" stroke="#27313f" stroke-linecap="round" stroke-linejoin="round" stroke-width="9.0"/>
    <path d="M-39.15 17.35 L-24.4 -19.9 24.35 -19.9 39.1 17.35 35.8 50.75 -35.9 50.75 -39.15 17.35 39.1 17.35 -39.15 17.35" fill="#23608e" fill-rule="evenodd" stroke="none"/>
    <path d="M-39.15 17.35 L-24.4 -19.9 24.35 -19.9 39.1 17.35 35.8 50.75 -35.9 50.75 -39.15 17.35 39.1 17.35" fill="none" stroke="#27313f" stroke-linecap="round" stroke-linejoin="round" stroke-width="9.0"/>
  </g>
</svg>
