<?xml version="1.0" encoding="UTF-8" standalone="no"?>
<svg xmlns:xlink="http://www.w3.org/1999/xlink" height="111.1px" width="78.3px" xmlns="http://www.w3.org/2000/svg">
  <g transform="matrix(1.0, 0.0, 0.0, 1.0, 39.15, 60.4)">
    <path d="M-39.15 17.3 L39.1 17.3 35.8 50.7 -35.9 50.7 -39.15 17.3" fill="#2579c4" fill-rule="evenodd" stroke="none"/>
    <path d="M17.5 -51.45 Q16.75 -52.2 16.75 -53.3 16.75 -54.35 17.5 -55.15 18.25 -55.9 19.35 -55.9 20.4 -55.9 21.15 -55.15 21.9 -54.35 21.9 -53.3 21.9 -52.2 21.15 -51.45 20.4 -50.7 19.35 -50.7 L18.8 -50.75 Q15.55 -35.0 15.95 -19.2 L14.2 -19.2 Q13.8 -34.8 18.4 -50.85 L17.5 -51.45" fill="#27313f" fill-rule="evenodd" stroke="none"/>
    <path d="M17.5 -51.45 Q16.75 -52.2 16.75 -53.3 16.75 -54.35 17.5 -55.15 18.25 -55.9 19.35 -55.9 20.4 -55.9 21.15 -55.15 21.9 -54.35 21.9 -53.3 21.9 -52.2 21.15 -51.45 20.4 -50.7 19.35 -50.7 L18.8 -50.75 Q15.55 -35.0 15.95 -19.2 L14.2 -19.2 Q13.8 -34.8 18.4 -50.85 L17.5 -51.45 Z" fill="none" stroke="#27313f" stroke-linecap="round" stroke-linejoin="round" stroke-width="9.0"/>
    <path d="M24.4 -19.9 L39.15 17.3 -39.15 17.3 -24.35 -19.9 24.4 -19.9" fill="#339fff" fill-rule="evenodd" stroke="none"/>
    <path d="M20.5 -16.95 L32.95 14.4 -33.0 14.4 -20.55 -16.95 20.5 -16.95" fill="#2579c4" fill-rule="evenodd" stroke="none"/>
    <path d="M17.0 -14.3 L27.25 11.65 -27.25 11.65 -17.0 -14.3 17.0 -14.3" fill="#434343" fill-rule="evenodd" stroke="none"/>
    <path d="M27.25 11.7 L-8.2 11.7 -25.45 7.1 -21.7 -2.4 26.8 10.6 27.25 11.7 M23.45 2.1 L-19.0 -9.25 -17.05 -14.25 1.6 -14.25 18.8 -9.6 23.45 2.1" fill="#ffcc33" fill-rule="evenodd" stroke="none"/>
    <path d="M0.75 -14.25 L1.05 11.7 -1.05 11.7 -0.75 -14.25 0.75 -14.25" fill="#000000" fill-rule="evenodd" stroke="none"/>
    <path d="M15.95 -19.25 L14.15 -19.25 Q13.7 -36.8 19.65 -54.95 15.45 -37.1 15.95 -19.25" fill="#434343" fill-rule="evenodd" stroke="none"/>
    <path d="M19.3 -50.7 Q18.25 -50.7 17.45 -51.5 16.75 -52.2 16.75 -53.3 16.75 -54.4 17.45 -55.15 18.25 -55.9 19.3 -55.9 20.4 -55.9 21.15 -55.15 21.9 -54.4 21.9 -53.3 21.9 -52.2 21.15 -51.5 20.4 -50.7 19.3 -50.7" fill="#434343" fill-rule="evenodd" stroke="none"/>
  </g>
</svg>
