<?xml version="1.0" encoding="UTF-8" standalone="no"?>
<svg xmlns:xlink="http://www.w3.org/1999/xlink" height="73.95px" width="143.1px" xmlns="http://www.w3.org/2000/svg">
  <g transform="matrix(1.0, 0.0, 0.0, 1.0, 90.3, 36.95)">
    <path d="M-71.5 -26.95 Q-68.6 -25.95 -65.05 -23.75 -56.15 -18.2 -52.65 -11.2 L-76.4 -3.9 -76.6 -14.7 Q-76.5 -25.75 -75.2 -27.1 L-71.5 -26.95" fill="#3494d4" fill-rule="evenodd" stroke="none"/>
    <path d="M-71.5 -26.95 L-75.2 -27.1 Q-76.5 -25.75 -76.6 -14.7 L-76.4 -3.9 -52.65 -11.2 Q-56.15 -18.2 -65.05 -23.75 -68.6 -25.95 -71.5 -26.95 Z" fill="none" stroke="#004577" stroke-linecap="round" stroke-linejoin="round" stroke-width="3.0"/>
    <path d="M-75.2 -27.1 L-71.5 -26.95 Q-68.6 -25.95 -65.05 -23.75 -56.15 -18.2 -52.65 -11.2 L-76.4 -3.9 -76.6 -14.7 Q-76.5 -25.75 -75.2 -27.1" fill="#3494d4" fill-rule="evenodd" stroke="none"/>
    <path d="M-71.5 26.9 L-75.2 27.05 Q-76.5 25.7 -76.6 14.65 L-76.4 3.85 -52.65 11.15 Q-56.15 18.15 -65.05 23.7 -68.6 25.9 -71.5 26.9" fill="#3494d4" fill-rule="evenodd" stroke="none"/>
    <path d="M-71.5 26.9 L-75.2 27.05 Q-76.5 25.7 -76.6 14.65 L-76.4 3.85 -52.65 11.15 Q-56.15 18.15 -65.05 23.7 -68.6 25.9 -71.5 26.9 Z" fill="none" stroke="#004577" stroke-linecap="round" stroke-linejoin="round" stroke-width="3.0"/>
    <path d="M-75.2 27.05 L-71.5 26.9 Q-68.6 25.9 -65.05 23.7 -56.15 18.15 -52.65 11.15 L-76.4 3.85 -76.6 14.65 Q-76.5 25.7 -75.2 27.05" fill="#3494d4" fill-rule="evenodd" stroke="none"/>
    <path d="M-78.05 -0.05 Q-77.55 -10.15 -42.3 -23.3 -28.1 -28.65 -14.1 -31.9 -0.05 -35.2 8.0 -34.95 22.0 -34.65 31.55 -29.85 37.65 -26.8 41.65 -22.05 45.5 -17.5 47.9 -12.3 50.7 -6.1 50.8 -0.05 L50.8 0.05 Q50.7 6.0 47.9 12.3 45.5 17.5 41.65 22.05 37.65 26.75 31.55 29.8 22.0 34.6 8.0 35.0 -0.05 35.15 -14.1 31.85 -28.1 28.6 -42.3 23.3 -77.55 10.05 -78.05 0.05 L-78.05 -0.05" fill="#3464a8" fill-rule="evenodd" stroke="none"/>
    <path d="M-78.05 -0.05 Q-77.55 -10.15 -42.3 -23.3 -28.1 -28.65 -14.1 -31.9 -0.05 -35.2 8.0 -34.95 22.0 -34.65 31.55 -29.85 37.65 -26.8 41.65 -22.05 45.5 -17.5 47.9 -12.3 50.7 -6.1 50.8 -0.05 L50.8 0.05 Q50.7 6.0 47.9 12.3 45.5 17.5 41.65 22.05 37.65 26.75 31.55 29.8 22.0 34.6 8.0 35.0 -0.05 35.15 -14.1 31.85 -28.1 28.6 -42.3 23.3 -77.55 10.05 -78.05 0.05 L-78.05 -0.05 Z" fill="none" stroke="#004577" stroke-linecap="round" stroke-linejoin="round" stroke-width="4.0"/>
    <path d="M31.55 -29.85 Q37.65 -26.8 41.65 -22.05 45.5 -17.5 47.9 -12.3 50.7 -6.1 50.8 -0.05 L50.8 0.05 Q50.7 6.0 47.9 12.3 45.5 17.5 41.65 22.05 37.65 26.75 31.55 29.8 22.0 34.6 8.0 35.0 -0.05 35.15 -14.1 31.85 -28.1 28.6 -42.3 23.3 -77.55 10.05 -78.05 0.05 L-78.05 -0.05 Q-77.55 -10.15 -42.3 -23.3 -28.1 -28.65 -14.1 -31.9 -0.05 -35.2 8.0 -34.95 22.0 -34.65 31.55 -29.85" fill="#3494d4" fill-rule="evenodd" stroke="none"/>
    <path d="M-4.2 -26.5 Q-15.85 -26.75 -36.25 -22.6 L-37.25 -22.4 Q-26.0 -26.3 -14.85 -28.9 -0.8 -32.2 7.25 -31.95 21.25 -31.65 30.8 -26.85 36.9 -23.8 40.9 -19.05 44.75 -14.5 47.15 -9.3 L48.6 -5.65 44.65 -10.15 Q38.85 -16.1 30.0 -20.0 16.15 -26.05 -4.2 -26.5" fill="#ffffff" fill-opacity="0.4" fill-rule="evenodd" stroke="none"/>
    <path d="M-20.7 -30.25 Q-27.75 0.0 -20.45 30.3 L-29.25 27.75 Q-35.05 0.05 -29.5 -27.7 L-20.7 -30.25 M-42.3 -23.3 L-37.2 -25.15 Q-44.1 0.05 -36.85 25.25 L-42.3 23.3 -46.05 21.85 Q-51.05 0.05 -46.3 -21.75 L-42.3 -23.3" fill="#ffffff" fill-rule="evenodd" stroke="none"/>
    <path d="M-75.1 -0.35 Q-74.8 -6.75 -60.4 -14.4 -68.4 -8.6 -68.65 -3.45 L-68.65 -3.3 Q-68.05 8.5 -26.65 24.0 -9.95 30.25 6.5 34.05 L9.3 34.7 Q1.5 34.55 -11.15 31.55 -25.15 28.3 -39.35 23.0 -74.6 9.75 -75.1 -0.25 L-75.1 -0.35" fill="#065c95" fill-rule="evenodd" stroke="none"/>
    <path d="M-30.2 22.65 L-38.35 19.35 -37.3 23.75 -39.35 23.0 -47.35 19.85 -46.4 20.25 -47.35 15.3 Q-38.75 19.45 -26.65 24.0 L-21.4 25.9 -20.7 29.1 -29.5 26.45 -30.2 22.65" fill="#9acff3" fill-rule="evenodd" stroke="none"/>
    <path d="M47.9 -12.3 Q50.7 -6.1 50.8 -0.05 L50.8 0.05 Q50.7 6.0 47.9 12.3 45.85 16.7 42.8 20.65 46.6 -1.15 42.8 -20.6 45.85 -16.7 47.9 -12.3" fill="#ffffff" fill-rule="evenodd" stroke="none"/>
    <path d="M38.1 -25.55 Q-12.2 -41.4 -78.1 -2.55 L-76.85 -4.5 Q-13.4 -41.35 35.65 -27.35 L38.1 -25.55 M50.8 -0.05 L50.8 0.05 50.8 0.4 -78.75 0.4 -78.8 0.05 -78.8 -0.05 -78.75 -0.6 50.8 -0.6 50.8 -0.05 M49.2 -9.05 Q-13.3 -22.95 -78.65 -1.15 L-78.15 -2.4 Q-13.25 -23.8 48.8 -10.2 L49.2 -9.05 M-78.05 2.65 Q-12.2 41.35 38.05 25.55 L35.55 27.4 Q-13.35 41.25 -76.7 4.6 L-78.05 2.65 M-78.65 1.05 Q-13.0 23.05 49.8 8.85 L49.2 9.0 48.8 10.1 Q-13.3 23.8 -78.25 2.25 L-78.65 1.05" fill="#004577" fill-rule="evenodd" stroke="none"/>
    <path d="M-51.3 0.1 L-70.1 2.15 Q-88.8 3.35 -88.8 -0.85 -88.8 -5.0 -70.0 -3.3 L-51.2 -0.85 -51.3 0.1" fill="#3494d4" fill-rule="evenodd" stroke="none"/>
    <path d="M-51.3 0.1 L-70.1 2.15 Q-88.8 3.35 -88.8 -0.85 -88.8 -5.0 -70.0 -3.3 L-51.2 -0.85 -51.3 0.1 Z" fill="none" stroke="#004577" stroke-linecap="round" stroke-linejoin="round" stroke-width="3.0"/>
    <path d="M-51.3 0.1 L-70.1 2.15 Q-88.8 3.35 -88.8 -0.85 -88.8 -5.0 -70.0 -3.3 L-51.2 -0.85 -51.3 0.1" fill="#3494d4" fill-rule="evenodd" stroke="none"/>
  </g>
</svg>
