<?xml version="1.0" encoding="UTF-8" standalone="no"?>
<svg xmlns:xlink="http://www.w3.org/1999/xlink" height="62.6px" width="12.6px" xmlns="http://www.w3.org/2000/svg">
  <g transform="matrix(1.0, 0.0, 0.0, 1.0, -4.9, 39.55)">
    <path d="M14.5 -32.8 Q16.0 -27.55 16.0 -20.05 16.0 -12.6 14.5 -7.3 13.1 -2.05 11.0 -2.05 9.9 -2.05 8.15 -10.4 6.4 -18.85 6.4 -24.65 6.4 -30.05 8.15 -34.35 9.7 -38.05 11.0 -38.05 13.1 -38.05 14.5 -32.8 Z" fill="none" stroke="#3c3c3c" stroke-linecap="round" stroke-linejoin="round" stroke-width="3.0"/>
    <path d="M11.0 -38.05 Q13.1 -38.05 14.5 -32.8 16.0 -27.55 16.0 -20.05 16.0 -12.6 14.5 -7.3 13.1 -2.05 11.0 -2.05 9.9 -2.05 8.15 -10.4 6.4 -18.85 6.4 -24.65 6.4 -30.05 8.15 -34.35 9.7 -38.05 11.0 -38.05" fill="#9a9a9a" fill-rule="evenodd" stroke="none"/>
    <path d="M11.5 18.45 Q12.05 15.4 12.05 11.05 12.05 6.7 11.5 3.65 11.0 0.6 10.3 0.6 9.95 0.6 9.35 5.4 8.75 10.35 8.75 13.7 8.75 16.85 9.35 19.35 9.85 21.55 10.3 21.55 11.0 21.55 11.5 18.45 Z" fill="none" stroke="#3c3c3c" stroke-linecap="round" stroke-linejoin="round" stroke-width="3.0"/>
    <path d="M10.3 21.55 Q11.0 21.55 11.5 18.45 12.05 15.4 12.05 11.05 12.05 6.7 11.5 3.65 11.0 0.6 10.3 0.6 9.95 0.6 9.35 5.4 8.75 10.35 8.75 13.7 8.75 16.85 9.35 19.35 9.85 21.55 10.3 21.55" fill="#9a9a9a" fill-rule="evenodd" stroke="none"/>
    <path d="M14.5 -32.8 Q16.0 -27.55 16.0 -20.05 16.0 -12.6 14.5 -7.3 13.1 -2.05 11.0 -2.05 9.9 -2.05 8.15 -10.4 6.4 -18.85 6.4 -24.65 6.4 -30.05 8.15 -34.35 9.7 -38.05 11.0 -38.05 13.1 -38.05 14.5 -32.8 Z" fill="none" stroke="#3c3c3c" stroke-linecap="round" stroke-linejoin="round" stroke-width="3.0"/>
    <path d="M11.0 -38.05 Q13.1 -38.05 14.5 -32.8 16.0 -27.55 16.0 -20.05 16.0 -12.6 14.5 -7.3 13.1 -2.05 11.0 -2.05 9.9 -2.05 8.15 -10.4 6.4 -18.85 6.4 -24.65 6.4 -30.05 8.15 -34.35 9.7 -38.05 11.0 -38.05" fill="#9a9a9a" fill-rule="evenodd" stroke="none"/>
  </g>
</svg>
