<?xml version="1.0" encoding="UTF-8" standalone="no"?>
<svg xmlns:xlink="http://www.w3.org/1999/xlink" height="95.2px" width="90.6px" xmlns="http://www.w3.org/2000/svg">
  <g transform="matrix(1.0, 0.0, 0.0, 1.0, 67.75, 65.1)">
    <path d="M-1.45 -36.5 Q2.0 -34.6 4.95 -32.25 12.5 -26.3 16.2 -17.65 17.55 -14.5 18.35 -11.05 20.1 -3.8 18.75 3.1 17.35 10.05 13.2 14.75 5.25 23.85 -14.05 26.0 -31.8 28.0 -47.4 23.35 -54.4 21.2 -58.8 14.75 -62.85 8.8 -63.9 0.55 -64.95 -7.5 -62.95 -15.35 -60.85 -23.5 -56.1 -28.75 -45.9 -40.2 -32.25 -42.65 -17.35 -45.3 -1.45 -36.5" fill="#9cd425" fill-rule="evenodd" stroke="none"/>
    <path d="M-1.45 -36.5 Q-17.35 -45.3 -32.25 -42.65 -45.9 -40.2 -56.1 -28.75 -60.85 -23.5 -62.95 -15.35 -64.95 -7.5 -63.9 0.55 -62.85 8.8 -58.8 14.75 -54.4 21.2 -47.4 23.35 -31.8 28.0 -14.05 26.0 5.25 23.85 13.2 14.75 17.35 10.05 18.75 3.1 20.1 -3.8 18.35 -11.05 17.55 -14.5 16.2 -17.65 12.5 -26.3 4.95 -32.25 2.0 -34.6 -1.45 -36.5 Z" fill="none" stroke="#52720f" stroke-linecap="round" stroke-linejoin="round" stroke-width="7.0"/>
    <path d="M-27.95 -27.3 Q-25.55 -26.0 -20.7 -28.0 -14.5 -30.45 -12.75 -30.6 L-5.05 -29.7 Q0.1 -29.25 5.35 -31.85 11.35 -34.8 12.85 -38.4 14.05 -41.35 12.05 -43.45 11.2 -44.35 8.65 -43.2 6.6 -42.3 5.65 -45.1 4.8 -47.4 7.4 -50.65 9.65 -53.55 7.6 -56.3 4.15 -60.8 -5.0 -61.5 -15.3 -62.35 -22.25 -55.8 -29.25 -49.2 -30.45 -38.7 -31.55 -29.1 -27.95 -27.3" fill="#638717" fill-rule="evenodd" stroke="none"/>
    <path d="M-27.95 -27.3 Q-31.55 -29.1 -30.45 -38.7 -29.25 -49.2 -22.25 -55.8 -15.3 -62.35 -5.0 -61.5 4.15 -60.8 7.6 -56.3 9.65 -53.55 7.4 -50.65 4.8 -47.4 5.65 -45.1 6.6 -42.3 8.65 -43.2 11.2 -44.35 12.05 -43.45 14.05 -41.35 12.85 -38.4 11.35 -34.8 5.35 -31.85 0.1 -29.25 -5.05 -29.7 L-12.75 -30.6 Q-14.5 -30.45 -20.7 -28.0 -25.55 -26.0 -27.95 -27.3 Z" fill="none" stroke="#52720f" stroke-linecap="round" stroke-linejoin="round" stroke-width="7.0"/>
    <path d="M-1.45 -36.5 Q2.0 -34.6 4.95 -32.25 12.5 -26.3 16.2 -17.65 17.55 -14.5 18.35 -11.05 20.1 -3.8 18.75 3.1 17.35 10.05 13.2 14.75 5.25 23.85 -14.05 26.0 -31.8 28.0 -47.4 23.35 -54.4 21.2 -58.8 14.75 -62.85 8.8 -63.9 0.55 -64.95 -7.5 -62.95 -15.35 -60.85 -23.5 -56.1 -28.75 -45.9 -40.2 -32.25 -42.65 -17.35 -45.3 -1.45 -36.5" fill="#9cd425" fill-rule="evenodd" stroke="none"/>
    <path d="M8.95 -27.25 L10.25 -27.2 Q13.95 -22.95 16.2 -17.65 17.55 -14.5 18.35 -11.05 20.1 -3.8 18.75 3.1 17.35 10.05 13.2 14.75 5.25 23.85 -14.05 26.0 L-21.25 26.55 Q-23.25 22.5 -21.85 19.5 -20.45 16.65 -18.95 18.15 -17.15 20.0 -15.45 18.2 -13.65 16.3 -14.35 12.75 -15.05 9.0 -13.3 6.7 -11.8 4.8 -4.3 4.05 2.4 3.4 2.95 -0.2 3.35 -2.35 1.7 -4.9 L-1.95 -9.55 Q-6.8 -15.75 -4.25 -21.25 -1.35 -27.45 8.95 -27.25" fill="#7aa81a" fill-rule="evenodd" stroke="none"/>
    <path d="M-54.9 -11.85 Q-56.15 -15.8 -54.45 -16.95 -51.55 -19.15 -46.55 -17.95 -40.85 -16.7 -36.0 -11.5 -31.15 -6.35 -29.85 -0.8 -28.7 3.45 -29.3 10.15 -29.85 15.55 -35.05 19.1 -39.55 22.15 -46.1 23.2 L-48.4 23.45 -47.4 23.35 Q-54.4 21.2 -58.8 14.75 -62.85 8.8 -63.9 0.55 L-64.25 -5.15 -63.85 -5.1 Q-57.8 -4.25 -55.75 -5.95 -53.5 -7.8 -54.9 -11.85" fill="#638717" fill-rule="evenodd" stroke="none"/>
    <path d="M-31.1 -13.9 Q-27.75 -15.0 -25.2 -12.9 -23.85 -11.85 -20.35 -7.15 -17.95 -3.95 -17.75 -1.05 -17.65 1.3 -18.9 2.8 -19.65 3.6 -22.1 1.7 -24.85 -0.55 -26.05 -0.05 -27.3 0.35 -26.25 2.05 -25.05 4.0 -26.15 5.15 -28.0 7.05 -32.4 4.95 -37.15 2.8 -38.8 -1.9 -40.45 -6.55 -37.7 -9.8 -35.65 -12.45 -31.1 -13.9" fill="#7aa81a" fill-rule="evenodd" stroke="none"/>
    <path d="M-41.5 -32.8 Q-44.0 -29.8 -47.15 -28.75 L-56.4 -28.4 -56.1 -28.75 Q-45.9 -40.2 -32.25 -42.65 -24.3 -44.1 -16.0 -42.25 L-16.1 -42.0 Q-18.75 -36.4 -22.9 -35.4 -26.05 -34.65 -29.1 -36.75 -31.85 -38.65 -35.45 -37.25 -38.9 -35.95 -41.5 -32.8" fill="#638717" fill-rule="evenodd" stroke="none"/>
    <path d="M-30.05 -44.3 Q-34.85 -40.45 -36.05 -35.0 -37.3 -29.65 -34.25 -25.85 -31.2 -22.1 -25.65 -22.1 -20.15 -22.2 -15.35 -26.05 -10.6 -29.9 -9.35 -35.25 -8.15 -40.7 -11.2 -44.45 -14.25 -48.25 -19.75 -48.15 -25.3 -48.15 -30.05 -44.3" fill="#431756" fill-rule="evenodd" stroke="none"/>
    <path d="M-30.05 -44.3 Q-34.85 -40.45 -36.05 -35.0 -37.3 -29.65 -34.25 -25.85 -31.2 -22.1 -25.65 -22.1 -20.15 -22.2 -15.35 -26.05 -10.6 -29.9 -9.35 -35.25 -8.15 -40.7 -11.2 -44.45 -14.25 -48.25 -19.75 -48.15 -25.3 -48.15 -30.05 -44.3 Z" fill="none" stroke="#431756" stroke-linecap="round" stroke-linejoin="round" stroke-width="7.0"/>
    <path d="M-30.05 -44.3 Q-34.85 -40.45 -36.05 -35.0 -37.3 -29.65 -34.25 -25.85 -31.2 -22.1 -25.65 -22.1 -20.15 -22.2 -15.35 -26.05 -10.6 -29.9 -9.35 -35.25 -8.15 -40.7 -11.2 -44.45 -14.25 -48.25 -19.75 -48.15 -25.3 -48.15 -30.05 -44.3" fill="#6d457e" fill-rule="evenodd" stroke="none"/>
    <path d="M-22.4 -34.55 L-22.2 -34.35 Q-15.2 -31.0 -15.35 -26.4 L-15.4 -25.95 -15.35 -26.0 -14.45 -26.8 -14.4 -26.4 Q-14.15 -31.5 -21.75 -35.2 L-22.15 -35.2 -22.45 -34.95 -22.4 -34.55 M-24.55 -35.8 L-24.75 -36.05 -25.15 -36.15 -25.8 -35.9 -25.8 -35.95 -25.85 -35.9 Q-32.35 -34.1 -36.4 -31.15 L-36.2 -30.05 Q-33.4 -32.25 -29.3 -33.8 L-29.2 -33.55 -28.8 -32.9 Q-30.0 -28.95 -33.85 -25.35 L-33.15 -24.7 Q-29.5 -28.1 -28.1 -31.9 -25.2 -27.05 -28.25 -21.75 L-27.95 -22.25 -26.9 -22.15 Q-24.05 -27.85 -27.75 -33.05 L-27.45 -34.4 -27.45 -34.45 -25.85 -34.95 Q-19.8 -30.25 -20.85 -25.8 -21.3 -24.1 -22.8 -22.4 L-21.2 -22.8 Q-20.25 -24.1 -19.9 -25.55 -18.65 -30.35 -24.75 -35.3 L-24.6 -35.4 -24.55 -35.8 M-24.55 -39.2 Q-24.7 -39.4 -24.9 -39.4 -31.4 -39.8 -35.5 -36.9 L-36.0 -35.3 -36.65 -34.75 Q-32.45 -38.9 -25.0 -38.4 L-24.6 -38.55 -24.45 -38.85 -24.55 -39.2 M-22.2 -37.6 L-21.85 -37.4 -21.5 -37.6 -21.35 -37.9 -21.5 -38.3 Q-26.55 -43.55 -31.4 -43.1 L-32.5 -41.95 -31.7 -42.1 Q-27.05 -42.65 -22.2 -37.6" fill="#592e6b" fill-rule="evenodd" stroke="none"/>
    <path d="M8.05 -30.25 L7.1 -30.4 9.15 -28.45 Q9.3 -26.7 7.85 -25.15 5.5 -22.8 -0.3 -22.3 -5.35 -21.85 -9.4 -23.9 L-15.4 -27.05 -22.6 -27.55 Q-27.15 -27.45 -28.7 -29.2 -31.1 -31.85 -27.1 -39.3 L-24.55 -43.25 Q-13.3 -43.05 -1.45 -36.5 1.55 -34.85 4.15 -32.85 4.05 -30.35 6.05 -30.45 L8.05 -30.25" fill="#000000" fill-opacity="0.2" fill-rule="evenodd" stroke="none"/>
    <path d="M-27.95 -27.3 Q-25.55 -26.0 -20.7 -28.0 -14.5 -30.45 -12.75 -30.6 L-5.05 -29.7 Q0.1 -29.25 5.35 -31.85 11.35 -34.8 12.85 -38.4 14.05 -41.35 12.05 -43.45 11.2 -44.35 8.65 -43.2 6.6 -42.3 5.65 -45.1 4.8 -47.4 7.4 -50.65 9.65 -53.55 7.6 -56.3 4.15 -60.8 -5.0 -61.5 -15.3 -62.35 -22.25 -55.8 -29.25 -49.2 -30.45 -38.7 -31.55 -29.1 -27.95 -27.3" fill="#638717" fill-rule="evenodd" stroke="none"/>
    <path d="M-10.7 -58.75 Q-5.15 -58.75 -1.25 -54.7 2.7 -50.65 2.7 -44.75 2.7 -38.9 -1.25 -34.85 -5.15 -30.75 -10.7 -30.75 -16.2 -30.75 -20.15 -34.85 -24.1 -38.9 -24.1 -44.8 -24.1 -50.65 -20.15 -54.7 -16.2 -58.75 -10.7 -58.75" fill="#000000" fill-opacity="0.2" fill-rule="evenodd" stroke="none"/>
    <path d="M-5.1 -61.45 Q-15.45 -62.3 -22.4 -55.75 -29.3 -49.15 -30.55 -38.65 -31.7 -29.05 -28.05 -27.2 -25.65 -25.95 -20.85 -27.95 -14.65 -30.4 -12.9 -30.5 L-11.85 -30.4 Q-8.55 -32.85 -7.55 -34.1 -3.35 -39.15 -1.9 -41.85 0.6 -46.45 -2.5 -47.8 -4.05 -48.4 -6.55 -47.35 L-11.05 -44.95 Q-16.85 -41.95 -19.25 -45.6 -20.7 -47.8 -18.15 -49.35 -16.3 -50.45 -11.45 -51.85 L-3.9 -54.0 Q-0.3 -55.4 -0.2 -57.2 -0.1 -59.05 -1.55 -60.95 L-5.1 -61.45" fill="#9cd425" fill-rule="evenodd" stroke="none"/>
    <path d="M-62.95 -15.35 Q-60.85 -23.5 -56.1 -28.75 -53.55 -31.6 -50.8 -33.85 -53.05 -30.05 -54.3 -25.15 -56.3 -17.3 -55.25 -9.25 -54.2 -1.0 -50.15 4.95 -45.75 11.4 -38.75 13.55 -23.15 18.2 -5.4 16.2 8.7 14.65 16.75 9.4 15.3 12.35 13.2 14.75 5.25 23.85 -14.05 26.0 -31.8 28.0 -47.4 23.35 -54.4 21.2 -58.8 14.75 -62.85 8.8 -63.9 0.55 -64.95 -7.5 -62.95 -15.35" fill="#000000" fill-opacity="0.2" fill-rule="evenodd" stroke="none"/>
  </g>
</svg>
