<?xml version="1.0" encoding="UTF-8" standalone="no"?>
<svg xmlns:xlink="http://www.w3.org/1999/xlink" height="82.85px" width="82.6px" xmlns="http://www.w3.org/2000/svg">
  <g transform="matrix(1.0, 0.0, 0.0, 1.0, 1.1, 31.95)">
    <path d="M55.55 -27.45 L59.9 -25.7 65.2 -26.0 70.8 -17.25 Q76.5 -7.5 76.85 -2.4 77.75 9.95 73.75 21.75 67.3 40.7 50.1 45.55 33.4 50.25 16.75 29.3 8.4 18.8 3.4 7.35 L8.35 -3.3 Q14.0 2.8 23.9 9.4 32.25 14.9 41.05 19.2 41.05 20.7 39.5 23.25 L36.9 27.1 Q40.75 25.0 42.75 21.05 44.75 17.15 45.6 10.25 L42.65 6.8 Q39.7 2.85 39.7 0.25 39.7 -2.35 40.4 -4.65 L41.05 -6.4 36.35 -9.05 38.1 -4.45 Q36.05 0.6 38.9 3.45 L32.15 4.9 25.05 -9.45 39.3 -26.85 47.65 -25.35 55.55 -27.45" fill="#6d1800" fill-rule="evenodd" stroke="none"/>
    <path d="M55.55 -27.45 L59.9 -25.7 65.2 -26.0 70.8 -17.25 Q76.5 -7.5 76.85 -2.4 77.75 9.95 73.75 21.75 67.3 40.7 50.1 45.55 33.4 50.25 16.75 29.3 8.4 18.8 3.4 7.35 L8.35 -3.3 Q14.0 2.8 23.9 9.4 32.25 14.9 41.05 19.2 41.05 20.7 39.5 23.25 L36.9 27.1 Q40.75 25.0 42.75 21.05 44.75 17.15 45.6 10.25 L42.65 6.8 Q39.7 2.85 39.7 0.25 39.7 -2.35 40.4 -4.65 L41.05 -6.4 36.35 -9.05 38.1 -4.45 Q36.05 0.6 38.9 3.45 L32.15 4.9 25.05 -9.45 39.3 -26.85 47.65 -25.35 55.55 -27.45 Z" fill="none" stroke="#6d1800" stroke-linecap="round" stroke-linejoin="round" stroke-width="9.0"/>
    <path d="M55.55 -27.45 L59.9 -25.7 65.2 -26.0 70.8 -17.25 Q76.5 -7.5 76.85 -2.4 77.75 9.95 73.75 21.75 67.3 40.7 50.1 45.55 33.4 50.25 16.75 29.3 8.4 18.8 3.4 7.35 L8.35 -3.3 Q14.0 2.8 23.9 9.4 32.25 14.9 41.05 19.2 41.05 20.7 39.5 23.25 L36.9 27.1 Q40.75 25.0 42.75 21.05 44.75 17.15 45.6 10.25 L42.65 6.8 Q39.7 2.85 39.7 0.25 39.7 -2.35 40.4 -4.65 L41.05 -6.4 36.35 -9.05 38.1 -4.45 Q36.05 0.6 38.9 3.45 L32.15 4.9 25.05 -9.45 39.3 -26.85 47.65 -25.35 55.55 -27.45" fill="#bf7926" fill-rule="evenodd" stroke="none"/>
    <path d="M76.85 -2.4 Q77.75 9.95 73.75 21.75 67.3 40.7 50.1 45.55 33.4 50.25 16.75 29.3 8.4 18.8 3.4 7.35 L8.35 -3.3 Q14.0 2.8 23.9 9.4 32.2 14.9 41.05 19.2 41.05 20.7 39.5 23.25 L36.9 27.1 Q40.75 25.0 42.75 21.05 44.7 17.15 45.6 10.25 L42.65 6.8 Q39.7 2.85 39.7 0.25 39.7 -2.35 40.35 -4.65 L41.05 -6.4 37.9 -8.15 Q40.95 -10.9 44.0 -9.75 43.2 -11.4 42.55 -13.75 41.2 -18.35 41.75 -21.55 48.7 -20.2 51.85 -16.6 53.95 -22.7 56.8 -24.55 62.25 -21.25 64.1 -17.2 64.4 -20.2 67.1 -23.25 L70.8 -17.25 Q76.5 -7.5 76.85 -2.4 M38.0 -4.15 L37.9 -4.85 38.05 -4.45 38.0 -4.15 M38.6 3.5 L38.55 3.05 38.9 3.45 38.6 3.5" fill="#70381f" fill-rule="evenodd" stroke="none"/>
    <path d="M76.85 -2.4 Q77.75 9.95 73.75 21.75 67.3 40.7 50.1 45.55 33.4 50.25 16.75 29.3 8.4 18.8 3.4 7.35 L8.35 -3.3 Q14.0 2.8 23.9 9.4 32.2 14.9 41.05 19.2 41.05 20.7 39.5 23.25 L36.9 27.1 Q40.75 25.0 42.75 21.05 44.7 17.15 45.6 10.25 L42.65 6.8 Q39.7 2.85 39.7 0.25 L39.8 -1.45 Q56.6 -17.6 73.8 -11.7 76.6 -5.95 76.85 -2.4" fill="#f73600" fill-rule="evenodd" stroke="none"/>
  </g>
</svg>
