<?xml version="1.0" encoding="UTF-8" standalone="no"?>
<svg xmlns:xlink="http://www.w3.org/1999/xlink" height="13.5px" width="7.5px" xmlns="http://www.w3.org/2000/svg">
  <g transform="matrix(1.0, 0.0, 0.0, 1.0, 0.5, 0.5)">
    <path d="M3.45 1.2 L4.55 3.8 Q6.0 7.3 6.0 8.45 6.0 9.95 5.35 10.9 L5.35 10.95 Q4.6 12.0 3.25 12.0 1.8 12.0 1.1 11.0 L1.1 11.05 Q0.5 10.15 0.5 8.7 0.5 7.5 2.2 3.8 L3.45 1.2" fill="#80edf5" fill-rule="evenodd" stroke="none"/>
    <path d="M3.05 -0.2 L3.3 -0.45 3.65 -0.45 3.9 -0.3 4.0 0.0 5.45 3.4 5.5 3.4 Q7.05 7.2 7.0 8.45 7.0 10.3 6.2 11.5 5.2 13.0 3.25 13.0 1.3 13.0 0.3 11.6 -0.5 10.45 -0.5 8.7 -0.5 7.4 1.3 3.4 L3.05 -0.2 M3.45 1.2 L2.2 3.8 Q0.5 7.5 0.5 8.7 0.5 10.15 1.1 11.05 L1.1 11.0 Q1.8 12.0 3.25 12.0 4.6 12.0 5.35 10.95 L5.35 10.9 Q6.0 9.95 6.0 8.45 6.0 7.3 4.55 3.8 L3.45 1.2" fill="#009dff" fill-rule="evenodd" stroke="none"/>
  </g>
</svg>
