<?xml version="1.0" encoding="UTF-8" standalone="no"?>
<svg xmlns:xlink="http://www.w3.org/1999/xlink" height="9.4px" width="11.7px" xmlns="http://www.w3.org/2000/svg">
  <g transform="matrix(1.0, 0.0, 0.0, 1.0, 11.75, -67.15)">
    <path d="M-11.55 73.25 Q-11.8 73.15 -11.7 72.85 -11.65 72.55 -11.35 72.65 -11.15 72.75 -11.2 73.05 L-11.55 73.25 M-9.35 67.7 L-9.55 67.35 Q-9.45 67.1 -9.2 67.2 -8.95 67.25 -9.05 67.5 L-9.35 67.7 M-0.45 71.95 L-0.7 71.55 Q-0.65 71.35 -0.3 71.4 0.05 71.35 -0.1 71.7 L-0.45 71.95 M-5.0 76.45 L-5.1 76.5 -5.25 76.55 -5.35 76.35 Q-5.25 76.05 -5.0 76.25 L-5.0 76.45" fill="#a7d1d4" fill-rule="evenodd" stroke="none"/>
  </g>
</svg>
