<?xml version="1.0" encoding="UTF-8" standalone="no"?>
<svg xmlns:xlink="http://www.w3.org/1999/xlink" height="17.35px" width="20.15px" xmlns="http://www.w3.org/2000/svg">
  <g transform="matrix(1.0, 0.0, 0.0, 1.0, 1.3, 1.3)">
    <path d="M2.6 9.25 Q2.05 8.85 1.55 8.7 0.4 8.4 0.05 9.0 L0.1 9.7 Q2.25 13.5 3.9 14.55 4.7 15.0 5.15 14.3 5.6 13.5 5.2 12.65 4.85 11.75 4.95 11.55 5.05 11.3 5.35 11.35 17.95 0.65 17.55 0.05 17.1 -0.5 3.8 9.4 L3.8 9.45 Q3.6 9.85 3.1 9.6 L2.6 9.25 Z" fill="none" stroke="#831d1d" stroke-linecap="square" stroke-linejoin="miter" stroke-miterlimit="3.0" stroke-width="2.0"/>
    <path d="M3.8 9.45 L3.8 9.4 Q17.1 -0.5 17.55 0.05 17.95 0.65 5.35 11.35 5.05 11.3 4.95 11.55 4.85 11.75 5.2 12.65 5.6 13.5 5.15 14.3 4.7 15.0 3.9 14.55 2.25 13.5 0.1 9.7 L0.05 9.0 Q0.4 8.4 1.55 8.7 2.05 8.85 2.6 9.25 L3.1 9.6 Q3.6 9.85 3.8 9.45" fill="url(#gradient0)" fill-rule="evenodd" stroke="none"/>
  </g>
  <defs>
    <linearGradient gradientTransform="matrix(-0.006, 0.0102, -0.0056, -0.0033, 8.15, 5.7)" gradientUnits="userSpaceOnUse" id="gradient0" spreadMethod="pad" x1="-819.2" x2="819.2">
      <stop offset="0.21568627450980393" stop-color="#ffffff"/>
      <stop offset="0.6039215686274509" stop-color="#ffcc00"/>
      <stop offset="0.8274509803921568" stop-color="#ff0000"/>
      <stop offset="1.0" stop-color="#000000"/>
    </linearGradient>
  </defs>
</svg>
