<?xml version="1.0" encoding="UTF-8" standalone="no"?>
<svg xmlns:xlink="http://www.w3.org/1999/xlink" height="292.85px" width="282.5px" xmlns="http://www.w3.org/2000/svg">
  <g transform="matrix(1.0, 0.0, 0.0, 1.0, 159.25, 169.7)">
    <path d="M-16.05 -127.5 Q-95.45 20.55 -95.75 20.7 -112.25 9.7 -127.7 -7.7 -158.8 -42.5 -154.15 -74.35 -151.9 -90.05 -124.0 -129.2 -110.1 -148.75 -96.65 -165.2 L-96.35 -116.4 Q-126.8 -104.65 -136.35 -77.2 -127.05 -100.1 -98.2 -113.75 -88.1 -118.55 -77.0 -121.5 -68.45 -123.75 -63.45 -123.95 -87.85 -102.95 -99.5 -86.35 -115.1 -63.95 -119.3 -35.55 -111.15 -79.95 -59.5 -126.55 -41.9 -123.85 -16.05 -127.5" fill="#00476d" fill-rule="evenodd" stroke="none"/>
    <path d="M-16.05 -127.5 Q-95.45 20.55 -95.75 20.7 -112.25 9.7 -127.7 -7.7 -158.8 -42.5 -154.15 -74.35 -151.9 -90.05 -124.0 -129.2 -110.1 -148.75 -96.65 -165.2 L-96.35 -116.4 Q-126.8 -104.65 -136.35 -77.2 -127.05 -100.1 -98.2 -113.75 -88.1 -118.55 -77.0 -121.5 -68.45 -123.75 -63.45 -123.95 -87.85 -102.95 -99.5 -86.35 -115.1 -63.95 -119.3 -35.55 -111.15 -79.95 -59.5 -126.55 -41.9 -123.85 -16.05 -127.5 Z" fill="none" stroke="#00476d" stroke-linecap="round" stroke-linejoin="round" stroke-width="9.0"/>
    <path d="M-16.05 -127.5 Q-95.45 20.55 -95.75 20.7 -112.25 9.7 -127.7 -7.7 -158.8 -42.5 -154.15 -74.35 -151.9 -90.05 -124.0 -129.2 -110.1 -148.75 -96.65 -165.2 L-96.35 -116.4 Q-126.8 -104.65 -136.35 -77.2 -127.05 -100.1 -98.2 -113.75 -88.1 -118.55 -77.0 -121.5 -68.45 -123.75 -63.45 -123.95 -87.85 -102.95 -99.5 -86.35 -115.1 -63.95 -119.3 -35.55 -111.15 -79.95 -59.5 -126.55 -41.9 -123.85 -16.05 -127.5" fill="#0091e0" fill-rule="evenodd" stroke="none"/>
    <path d="M-135.65 -91.75 L-137.5 -87.6 Q-139.7 -82.4 -141.1 -76.9 -145.6 -59.45 -140.3 -46.25 -135.05 -33.0 -121.05 -30.7 -114.05 -29.55 -108.1 -31.05 -115.75 -16.4 -128.8 -8.9 -154.9 -38.7 -154.8 -66.4 L-154.75 -66.45 Q-150.55 -79.9 -135.65 -91.75" fill="#ffbf1e" fill-rule="evenodd" stroke="none"/>
    <path d="M-105.65 -121.75 Q-115.25 -124.95 -119.2 -135.7 L-119.3 -135.8 Q-107.8 -151.6 -96.65 -165.2 L-96.4 -120.8 Q-101.05 -120.2 -105.65 -121.75" fill="#ffbf1e" fill-rule="evenodd" stroke="none"/>
    <path d="M-109.45 -83.85 Q-107.9 -79.2 -109.65 -73.9 -111.45 -68.6 -115.45 -65.85 -119.45 -63.0 -123.35 -64.3 -127.3 -65.65 -128.85 -70.3 -130.4 -74.95 -128.6 -80.25 -126.85 -85.55 -122.85 -88.3 -118.8 -91.15 -114.85 -89.8 -110.95 -88.5 -109.45 -83.85" fill="#ffbf1e" fill-rule="evenodd" stroke="none"/>
    <path d="M-100.35 -94.85 Q-59.0 -141.65 -4.35 -152.3 50.35 -162.9 86.3 -131.15 122.25 -99.4 118.35 -43.85 114.6 11.75 73.25 58.55 31.9 105.35 -22.85 115.95 -77.45 126.6 -113.4 94.85 -149.35 63.1 -145.55 7.5 -141.7 -48.05 -100.35 -94.85" fill="#62594e" fill-rule="evenodd" stroke="none"/>
    <path d="M-100.35 -94.85 Q-59.0 -141.65 -4.35 -152.3 50.35 -162.9 86.3 -131.15 122.25 -99.4 118.35 -43.85 114.6 11.75 73.25 58.55 31.9 105.35 -22.85 115.95 -77.45 126.6 -113.4 94.85 -149.35 63.1 -145.55 7.5 -141.7 -48.05 -100.35 -94.85 Z" fill="none" stroke="#00476d" stroke-linecap="round" stroke-linejoin="round" stroke-width="9.0"/>
    <path d="M-100.35 -94.85 Q-59.0 -141.65 -4.35 -152.3 50.35 -162.9 86.3 -131.15 122.25 -99.4 118.35 -43.85 114.6 11.75 73.25 58.55 31.9 105.35 -22.85 115.95 -77.45 126.6 -113.4 94.85 -149.35 63.1 -145.55 7.5 -141.7 -48.05 -100.35 -94.85" fill="#0070ad" fill-rule="evenodd" stroke="none"/>
  </g>
</svg>
