<?xml version="1.0" encoding="UTF-8" standalone="no"?>
<svg xmlns:xlink="http://www.w3.org/1999/xlink" height="23.6px" width="24.45px" xmlns="http://www.w3.org/2000/svg">
  <g transform="matrix(1.0, 0.0, 0.0, 1.0, 12.2, 11.8)">
    <path d="M12.25 0.95 Q12.25 4.2 10.9 6.9 L5.5 8.15 5.75 10.6 3.6 11.25 3.4 8.85 2.15 8.85 2.0 11.65 Q0.35 11.9 -1.3 11.7 L-1.45 8.85 -2.75 8.85 -2.9 11.45 -5.5 10.6 -5.2 8.2 Q-8.05 7.8 -10.8 6.9 -12.2 4.2 -12.2 0.95 -12.2 -4.3 -8.65 -8.1 -5.05 -11.8 0.0 -11.8 5.1 -11.8 8.65 -8.1 12.25 -4.3 12.25 0.95 M0.1 5.65 L0.25 5.4 0.4 5.65 Q0.75 6.35 1.1 6.25 L1.55 5.4 1.45 3.7 0.9 2.1 0.3 1.55 0.2 1.55 -0.35 2.1 -0.95 3.7 -1.05 5.4 -0.6 6.25 Q-0.25 6.35 0.1 5.65 M10.85 0.2 Q10.85 -2.1 9.75 -3.7 8.65 -5.25 7.15 -5.25 5.6 -5.25 4.55 -3.7 3.45 -2.1 3.45 0.2 3.45 2.45 4.55 4.05 5.6 5.65 7.15 5.65 8.65 5.65 9.75 4.05 10.85 2.45 10.85 0.2 M-3.4 0.2 Q-3.4 -2.1 -4.5 -3.7 -5.6 -5.25 -7.1 -5.25 -8.6 -5.25 -9.65 -3.7 -10.8 -2.1 -10.8 0.2 -10.8 2.45 -9.65 4.05 -8.6 5.65 -7.1 5.65 -5.6 5.65 -4.5 4.05 -3.4 2.45 -3.4 0.2" fill="#b3cd27" fill-rule="evenodd" stroke="none"/>
  </g>
</svg>
