<?xml version="1.0" encoding="UTF-8" standalone="no"?>
<svg xmlns:xlink="http://www.w3.org/1999/xlink" height="25.4px" width="25.4px" xmlns="http://www.w3.org/2000/svg">
  <g transform="matrix(1.0, 0.0, 0.0, 1.0, 2.3, 2.15)">
    <path d="M12.3 1.4 L10.45 1.4 10.45 3.6 14.85 6.1 18.0 2.95 M2.8 3.0 L5.9 6.1 10.35 3.55 10.45 3.6 10.45 10.5 14.85 6.1 16.4 7.0 16.4 10.6 19.35 10.6 19.35 8.7 M10.4 10.6 L10.35 10.6 10.4 10.6 10.45 10.6 10.45 10.5 10.4 10.6 5.9 6.1 4.35 7.0 4.35 10.6 10.35 10.6 6.05 14.95 10.35 17.45 10.45 17.4 10.45 10.65 10.4 10.6 M10.45 10.65 L10.45 10.6 16.4 10.6 16.4 13.95 14.75 14.95 18.05 18.25 M1.25 8.7 L1.25 10.6 4.35 10.6 4.35 13.95 6.05 14.95 2.75 18.2 M14.75 14.95 L10.45 17.4 10.45 19.5 12.3 19.5 M10.45 22.25 L10.45 19.5 8.55 19.5 M14.75 14.95 L10.45 10.65 M10.45 1.4 L8.55 1.4 M1.25 12.45 L1.25 10.6 -1.3 10.6 M19.35 12.45 L19.35 10.6 22.1 10.6 M10.45 1.4 L10.45 -1.15" fill="none" stroke="#ffffff" stroke-linecap="round" stroke-linejoin="round" stroke-width="2.0"/>
  </g>
</svg>
