<?xml version="1.0" encoding="UTF-8" standalone="no"?>
<svg xmlns:xlink="http://www.w3.org/1999/xlink" height="625.75px" width="637.05px" xmlns="http://www.w3.org/2000/svg">
  <g transform="matrix(1.0, 0.0, 0.0, 1.0, 318.3, 312.25)">
    <path d="M309.25 -11.05 Q110.45 -18.6 274.2 -166.3 12.4 -96.25 41.05 -302.85 -61.0 -159.3 -227.75 -240.25 -116.4 -66.6 -297.1 -91.1 -117.6 35.95 -308.8 116.0 -118.15 95.75 -209.65 252.45 -15.5 135.3 64.35 304.2 38.95 139.15 281.4 204.15 L294.7 211.65 Q39.9 141.8 66.25 313.5 -16.05 139.4 -216.2 260.15 -121.8 98.6 -318.3 119.45 -121.2 37.05 -306.35 -93.95 -120.0 -68.75 -234.75 -247.7 -62.95 -164.25 42.3 -312.25 12.8 -99.25 282.65 -171.55 113.8 -19.2 318.75 -11.5 97.0 56.55 216.8 159.75 L213.3 157.5 Q91.5 55.7 309.25 -11.05" fill="#f7734f" fill-rule="evenodd" stroke="none"/>
    <path d="M-167.05 -62.85 Q-158.3 -71.55 -145.55 -72.05 -132.75 -72.55 -123.5 -64.55 -114.1 -56.55 -113.65 -44.75 -113.2 -32.9 -121.95 -24.2 -130.55 -15.5 -143.35 -15.0 -156.1 -14.5 -165.5 -22.5 -174.8 -30.55 -175.25 -42.4 -175.7 -54.2 -167.05 -62.85" fill="#583030" fill-rule="evenodd" stroke="none"/>
    <path d="M-127.5 -126.2 Q-114.25 -126.7 -104.5 -116.15 -94.75 -105.65 -94.15 -90.25 -93.55 -74.85 -102.45 -63.6 -111.4 -52.3 -124.65 -51.8 -137.85 -51.3 -147.65 -61.85 -157.45 -72.35 -158.05 -87.75 -158.65 -103.15 -149.7 -114.4 -140.7 -125.7 -127.5 -126.2" fill="#583030" fill-rule="evenodd" stroke="none"/>
    <path d="M-91.15 -98.85 Q-99.6 -89.4 -112.05 -88.95 -124.5 -88.45 -133.7 -97.2 -142.8 -105.9 -143.3 -118.7 -143.8 -131.5 -135.4 -140.95 -126.9 -150.3 -114.45 -150.8 -102.0 -151.25 -92.85 -142.6 -83.65 -133.85 -83.15 -121.05 -82.65 -108.25 -91.15 -98.85" fill="#583030" fill-rule="evenodd" stroke="none"/>
    <path d="M137.55 -136.5 Q138.15 -121.3 127.9 -110.15 117.75 -98.95 102.75 -98.35 87.75 -97.8 76.65 -108.15 65.65 -118.5 65.05 -133.7 64.45 -148.95 74.65 -160.15 84.9 -171.3 99.9 -171.85 114.9 -172.45 125.9 -162.15 136.95 -151.75 137.55 -136.5" fill="#583030" fill-rule="evenodd" stroke="none"/>
    <path d="M151.25 -133.3 Q160.25 -133.65 166.85 -126.5 173.55 -119.4 173.95 -109.0 174.35 -98.6 168.2 -91.0 162.2 -83.4 153.2 -83.05 144.2 -82.7 137.5 -89.8 130.95 -96.9 130.55 -107.3 130.15 -117.7 136.15 -125.3 142.25 -132.95 151.25 -133.3" fill="#583030" fill-rule="evenodd" stroke="none"/>
    <path d="M147.45 -84.5 Q151.65 -91.0 157.95 -91.25 164.25 -91.5 169.0 -85.35 173.7 -79.05 174.05 -70.0 174.4 -60.9 170.2 -54.4 165.95 -47.75 159.65 -47.5 153.35 -47.25 148.65 -53.55 143.9 -59.7 143.55 -68.8 143.2 -77.85 147.45 -84.5" fill="#583030" fill-rule="evenodd" stroke="none"/>
    <path d="M147.45 -84.5 Q151.65 -91.0 157.95 -91.25 164.25 -91.5 169.0 -85.35 173.7 -79.05 174.05 -70.0 174.4 -60.9 170.2 -54.4 165.95 -47.75 159.65 -47.5 153.35 -47.25 148.65 -53.55 143.9 -59.7 143.55 -68.8 143.2 -77.85 147.45 -84.5 Z" fill="none" stroke="#a80f06" stroke-linecap="round" stroke-linejoin="round" stroke-opacity="0.0" stroke-width="6.0"/>
    <path d="M10.9 167.8 Q4.4 174.95 -5.15 175.35 -14.7 175.7 -21.75 169.1 -28.75 162.45 -29.15 152.65 -29.55 142.85 -23.05 135.7 -16.5 128.5 -6.95 128.15 2.6 127.75 9.6 134.4 16.65 141.05 17.05 150.85 17.45 160.65 10.9 167.8" fill="#583030" fill-rule="evenodd" stroke="none"/>
    <path d="M10.9 167.8 Q4.4 174.95 -5.15 175.35 -14.7 175.7 -21.75 169.1 -28.75 162.45 -29.15 152.65 -29.55 142.85 -23.05 135.7 -16.5 128.5 -6.95 128.15 2.6 127.75 9.6 134.4 16.65 141.05 17.05 150.85 17.45 160.65 10.9 167.8 Z" fill="none" stroke="#a80f06" stroke-linecap="round" stroke-linejoin="round" stroke-opacity="0.0" stroke-width="6.0"/>
    <path d="M37.1 104.55 Q50.2 104.05 59.85 111.7 69.45 119.4 69.9 130.75 70.3 142.1 61.35 150.45 52.35 158.95 39.25 159.45 26.15 159.95 16.55 152.2 6.9 144.55 6.5 133.2 6.05 121.85 15.05 113.45 24.0 105.05 37.1 104.55" fill="#583030" fill-rule="evenodd" stroke="none"/>
    <path d="M37.1 104.55 Q50.2 104.05 59.85 111.7 69.45 119.4 69.9 130.75 70.3 142.1 61.35 150.45 52.35 158.95 39.25 159.45 26.15 159.95 16.55 152.2 6.9 144.55 6.5 133.2 6.05 121.85 15.05 113.45 24.0 105.05 37.1 104.55 Z" fill="none" stroke="#a80f06" stroke-linecap="round" stroke-linejoin="round" stroke-opacity="0.0" stroke-width="6.0"/>
    <path d="M107.5 89.6 Q115.2 97.9 115.7 110.1 116.15 122.3 109.1 131.2 102.1 140.05 91.65 140.45 81.2 140.9 73.5 132.55 65.85 124.25 65.4 112.05 64.9 99.85 71.9 90.95 78.95 82.15 89.4 81.7 99.85 81.3 107.5 89.6" fill="#583030" fill-rule="evenodd" stroke="none"/>
    <path d="M107.5 89.6 Q115.2 97.9 115.7 110.1 116.15 122.3 109.1 131.2 102.1 140.05 91.65 140.45 81.2 140.9 73.5 132.55 65.85 124.25 65.4 112.05 64.9 99.85 71.9 90.95 78.95 82.15 89.4 81.7 99.85 81.3 107.5 89.6 Z" fill="none" stroke="#a80f06" stroke-linecap="round" stroke-linejoin="round" stroke-opacity="0.0" stroke-width="6.0"/>
    <path d="M-143.3 -52.45 Q-133.85 -54.0 -125.85 -47.15 -117.8 -40.3 -115.95 -29.1 -114.1 -17.85 -119.45 -8.7 -124.85 0.35 -134.3 1.9 -143.8 3.5 -151.8 -3.35 -159.85 -10.25 -161.7 -21.5 -163.55 -32.7 -158.2 -41.8 -152.8 -50.85 -143.3 -52.45" fill="#913f3f" fill-rule="evenodd" stroke="none"/>
    <path d="M-47.95 103.3 Q-42.4 102.35 -37.7 106.4 -32.95 110.55 -31.8 117.3 -30.7 124.0 -33.85 129.4 -37.05 134.8 -42.6 135.75 -48.2 136.65 -52.9 132.55 -57.65 128.5 -58.75 121.8 -59.9 115.05 -56.75 109.55 -53.55 104.2 -47.95 103.3" fill="#913f3f" fill-rule="evenodd" stroke="none"/>
    <path d="M26.0 109.75 Q28.55 125.1 19.85 137.7 11.15 150.35 -3.75 152.85 -18.65 155.3 -30.95 146.15 -43.25 137.05 -45.8 121.7 -48.35 106.3 -39.65 93.7 -30.95 81.05 -16.05 78.6 -1.15 76.1 11.15 85.25 23.45 94.35 26.0 109.75" fill="#913f3f" fill-rule="evenodd" stroke="none"/>
    <path d="M79.3 117.5 Q80.8 126.6 73.45 134.4 66.2 142.2 54.4 144.15 42.55 146.15 33.15 141.1 23.8 136.05 22.3 126.95 20.75 117.9 28.0 110.1 35.3 102.3 47.15 100.3 58.95 98.35 68.3 103.4 77.75 108.45 79.3 117.5" fill="#913f3f" fill-rule="evenodd" stroke="none"/>
    <path d="M107.9 77.45 Q117.5 82.65 119.05 91.95 120.55 101.25 113.15 109.2 105.8 117.2 93.75 119.2 81.75 121.2 72.15 116.0 62.6 110.85 61.1 101.55 59.55 92.25 66.9 84.25 74.3 76.3 86.3 74.3 98.35 72.3 107.9 77.45" fill="#913f3f" fill-rule="evenodd" stroke="none"/>
    <path d="M-113.95 -63.55 Q-103.0 -65.35 -93.5 -55.85 -83.95 -46.3 -81.4 -31.05 -78.85 -15.75 -84.8 -3.7 -90.8 8.4 -101.75 10.2 -112.7 12.05 -122.2 2.5 -131.7 -7.0 -134.25 -22.3 -136.8 -37.55 -130.9 -49.65 -124.9 -61.7 -113.95 -63.55" fill="#913f3f" fill-rule="evenodd" stroke="none"/>
    <path d="M-79.6 -95.8 Q-77.0 -79.9 -85.15 -67.0 -93.35 -54.0 -107.6 -51.65 -121.8 -49.3 -133.75 -58.9 -145.7 -68.5 -148.3 -84.4 -150.95 -100.25 -142.8 -113.2 -134.55 -126.15 -120.35 -128.5 -106.1 -130.85 -94.2 -121.3 -82.25 -111.65 -79.6 -95.8" fill="#913f3f" fill-rule="evenodd" stroke="none"/>
    <path d="M-48.5 -127.2 Q-47.45 -120.75 -52.95 -115.2 -58.45 -109.65 -67.35 -108.15 -76.25 -106.7 -83.25 -110.2 -90.25 -113.65 -91.3 -120.1 -92.4 -126.5 -86.9 -132.15 -81.4 -137.7 -72.5 -139.15 -63.6 -140.65 -56.6 -137.15 -49.6 -133.6 -48.5 -127.2" fill="#913f3f" fill-rule="evenodd" stroke="none"/>
    <path d="M-43.6 -116.15 Q-33.6 -110.4 -31.9 -100.25 -30.2 -90.1 -37.85 -81.45 -45.4 -72.8 -57.75 -70.7 -70.15 -68.65 -80.15 -74.4 -90.1 -80.15 -91.8 -90.3 -93.5 -100.45 -85.9 -109.1 -78.3 -117.8 -65.9 -119.85 -53.55 -121.95 -43.6 -116.15" fill="#913f3f" fill-rule="evenodd" stroke="none"/>
    <path d="M115.9 -149.8 Q117.4 -140.85 110.7 -133.25 104.05 -125.65 93.15 -123.85 82.25 -122.05 73.5 -127.1 64.7 -132.1 63.2 -141.05 61.7 -150.05 68.4 -157.7 75.05 -165.3 85.95 -167.1 96.85 -168.9 105.6 -163.85 114.4 -158.8 115.9 -149.8" fill="#913f3f" fill-rule="evenodd" stroke="none"/>
    <path d="M149.0 -103.15 Q142.6 -96.3 132.25 -94.6 121.9 -92.85 113.7 -97.3 105.4 -101.75 104.05 -109.7 102.75 -117.7 109.15 -124.5 115.55 -131.35 125.9 -133.1 136.25 -134.8 144.45 -130.35 152.75 -126.0 154.05 -118.0 155.4 -110.05 149.0 -103.15" fill="#913f3f" fill-rule="evenodd" stroke="none"/>
    <path d="M152.5 -105.3 Q162.65 -98.55 164.6 -86.9 166.55 -75.25 159.1 -65.6 151.75 -55.9 139.35 -53.85 126.95 -51.8 116.8 -58.6 106.75 -65.3 104.8 -76.95 102.85 -88.6 110.2 -98.3 117.65 -107.9 130.05 -109.95 142.45 -112.0 152.5 -105.3" fill="#913f3f" fill-rule="evenodd" stroke="none"/>
    <path d="M164.15 -32.7 Q158.55 -24.75 149.05 -23.15 139.5 -21.6 131.65 -27.3 123.75 -32.95 122.15 -42.65 120.55 -52.3 126.15 -60.25 131.75 -68.2 141.3 -69.75 150.8 -71.35 158.65 -65.65 166.55 -59.95 168.15 -50.3 169.75 -40.6 164.15 -32.7" fill="#913f3f" fill-rule="evenodd" stroke="none"/>
    <path d="M51.7 70.8 Q60.7 77.2 62.5 88.15 64.3 99.05 57.9 108.0 51.45 116.95 40.55 118.75 29.65 120.55 20.7 114.2 11.75 107.75 9.95 96.85 8.15 85.9 14.5 77.0 20.95 68.0 31.85 66.2 42.75 64.4 51.7 70.8" fill="#913f3f" fill-rule="evenodd" stroke="none"/>
    <path d="M-112.55 -51.85 Q-103.7 -54.1 -95.25 -46.9 -86.85 -39.7 -83.75 -27.35 -80.65 -15.0 -84.65 -4.7 -88.7 5.6 -97.55 7.85 -106.4 10.05 -114.85 2.85 -123.3 -4.3 -126.4 -16.65 -129.5 -29.0 -125.45 -39.35 -121.4 -49.65 -112.55 -51.85" fill="#c69090" fill-rule="evenodd" stroke="none"/>
    <path d="M-31.7 98.0 Q-25.05 86.95 -12.6 83.85 -0.1 80.7 10.95 87.3 22.05 93.95 25.2 106.4 28.3 118.9 21.65 129.95 15.05 141.05 2.55 144.2 -9.9 147.3 -21.0 140.65 -32.05 134.05 -35.15 121.55 -38.3 109.1 -31.7 98.0" fill="#c69090" fill-rule="evenodd" stroke="none"/>
    <path d="M-14.9 83.3 Q-13.65 88.3 -16.35 92.8 -19.05 97.3 -24.1 98.6 -29.1 99.85 -33.6 97.15 -38.1 94.45 -39.35 89.45 -40.65 84.4 -37.95 79.9 -35.25 75.4 -30.25 74.15 -25.2 72.85 -20.7 75.55 -16.2 78.25 -14.9 83.3" fill="#c69090" fill-rule="evenodd" stroke="none"/>
    <path d="M66.25 94.9 Q74.95 98.7 77.0 106.75 79.0 114.75 73.1 122.25 67.3 129.7 57.0 132.3 46.75 134.9 38.0 131.05 29.35 127.2 27.35 119.2 25.3 111.15 31.15 103.7 37.05 96.25 47.3 93.65 57.6 91.05 66.25 94.9" fill="#c69090" fill-rule="evenodd" stroke="none"/>
    <path d="M-44.1 -81.8 Q-30.9 -85.15 -18.9 -76.8 -6.85 -68.4 -3.05 -53.25 0.75 -38.05 -5.9 -25.05 -12.55 -12.0 -25.75 -8.65 -38.95 -5.35 -51.05 -13.75 -63.1 -22.05 -66.9 -37.25 -70.7 -52.4 -64.05 -65.5 -57.3 -78.5 -44.1 -81.8" fill="#c69090" fill-rule="evenodd" stroke="none"/>
    <path d="M-67.4 -76.9 Q-64.75 -66.35 -70.1 -57.05 -75.35 -47.85 -85.55 -45.3 -95.75 -42.7 -104.85 -48.35 -113.85 -54.0 -116.5 -64.55 -119.1 -75.05 -113.85 -84.3 -108.5 -93.55 -98.3 -96.15 -88.1 -98.7 -79.1 -93.0 -70.0 -87.4 -67.4 -76.9" fill="#c69090" fill-rule="evenodd" stroke="none"/>
    <path d="M-102.0 -106.1 Q-93.15 -100.55 -90.6 -90.3 -88.0 -80.05 -93.2 -71.1 -98.35 -62.05 -108.25 -59.6 -118.1 -57.1 -126.9 -62.65 -135.65 -68.1 -138.25 -78.35 -140.8 -88.6 -135.7 -97.65 -130.5 -106.6 -120.65 -109.1 -110.75 -111.55 -102.0 -106.1" fill="#c69090" fill-rule="evenodd" stroke="none"/>
    <path d="M-50.3 -104.65 Q-49.15 -100.2 -54.15 -95.6 -59.0 -91.0 -67.05 -89.0 -75.05 -86.95 -81.6 -88.75 -88.0 -90.45 -89.15 -94.9 -90.25 -99.35 -85.4 -104.0 -80.45 -108.6 -72.45 -110.65 -64.4 -112.65 -57.95 -110.85 -51.4 -109.1 -50.3 -104.65" fill="#c69090" fill-rule="evenodd" stroke="none"/>
    <path d="M96.75 -93.65 Q99.6 -82.2 93.05 -71.9 86.5 -61.65 74.3 -58.6 62.15 -55.55 51.45 -61.5 40.8 -67.45 37.95 -78.9 35.1 -90.3 41.65 -100.55 48.25 -110.85 60.4 -113.9 72.6 -116.95 83.25 -110.95 93.9 -105.05 96.75 -93.65" fill="#c69090" fill-rule="evenodd" stroke="none"/>
    <path d="M79.95 -142.3 Q88.9 -144.55 97.5 -136.8 106.2 -129.1 109.5 -115.9 112.8 -102.7 108.8 -91.8 104.9 -80.9 95.95 -78.65 87.05 -76.4 78.35 -84.15 69.75 -91.9 66.45 -105.1 63.15 -118.3 67.05 -129.15 71.05 -140.05 79.95 -142.3" fill="#c69090" fill-rule="evenodd" stroke="none"/>
    <path d="M146.0 -120.65 Q147.9 -113.15 142.9 -106.35 137.95 -99.45 129.05 -97.25 120.2 -95.0 112.55 -98.7 104.95 -102.4 103.05 -109.9 101.15 -117.45 106.15 -124.3 111.1 -131.15 119.95 -133.4 128.85 -135.6 136.5 -131.95 144.1 -128.2 146.0 -120.65" fill="#c69090" fill-rule="evenodd" stroke="none"/>
    <path d="M126.65 -109.8 Q133.25 -111.5 139.4 -106.8 145.55 -102.15 147.65 -93.9 149.7 -85.65 146.45 -78.6 143.25 -71.6 136.65 -69.9 130.0 -68.25 123.8 -72.95 117.65 -77.6 115.6 -85.85 113.5 -94.1 116.75 -101.15 120.0 -108.15 126.65 -109.8" fill="#c69090" fill-rule="evenodd" stroke="none"/>
    <path d="M146.1 -68.2 Q152.25 -62.95 154.5 -53.95 156.75 -45.0 153.8 -37.5 150.8 -30.0 144.35 -28.4 137.9 -26.8 131.75 -32.0 125.55 -37.2 123.3 -46.15 121.05 -55.15 124.05 -62.7 127.0 -70.15 133.45 -71.75 139.9 -73.35 146.1 -68.2" fill="#c69090" fill-rule="evenodd" stroke="none"/>
    <path d="M130.75 -80.05 Q137.35 -75.3 139.5 -66.75 141.6 -58.25 138.05 -50.9 134.6 -43.6 127.45 -41.85 120.35 -40.05 113.8 -44.85 107.25 -49.65 105.15 -58.15 103.0 -66.7 106.5 -74.0 110.0 -81.3 117.1 -83.1 124.25 -84.85 130.75 -80.05" fill="#c69090" fill-rule="evenodd" stroke="none"/>
    <path d="M11.55 84.0 Q20.9 88.3 24.3 97.75 27.75 107.25 23.25 116.35 18.8 125.6 9.05 129.1 -0.75 132.65 -10.05 128.35 -19.3 124.2 -22.75 114.7 -26.15 105.25 -21.75 96.0 -17.25 86.9 -7.45 83.35 2.3 79.85 11.55 84.0" fill="#ff9c9c" fill-rule="evenodd" stroke="none"/>
    <path d="M-69.05 -67.05 Q-66.3 -59.4 -69.55 -52.1 -72.75 -44.8 -80.05 -42.15 -87.35 -39.55 -94.5 -43.1 -101.6 -46.65 -104.35 -54.3 -107.1 -62.0 -103.95 -69.3 -100.7 -76.6 -93.4 -79.2 -86.1 -81.85 -79.0 -78.3 -71.8 -74.75 -69.05 -67.05" fill="#ff9c9c" fill-rule="evenodd" stroke="none"/>
    <path d="M-30.65 -40.5 Q-26.85 -30.05 -31.7 -19.95 -36.45 -9.85 -46.95 -6.05 -57.5 -2.25 -67.7 -7.0 -77.75 -11.7 -81.55 -22.15 -85.3 -32.65 -80.6 -42.8 -75.8 -52.9 -65.25 -56.7 -54.75 -60.5 -44.6 -55.75 -34.4 -51.0 -30.65 -40.5" fill="#ff9c9c" fill-rule="evenodd" stroke="none"/>
    <path d="M72.95 -135.45 Q78.65 -137.5 84.4 -134.3 90.15 -131.1 92.55 -124.55 94.9 -118.0 92.5 -111.85 90.1 -105.7 84.4 -103.65 78.7 -101.6 72.95 -104.8 67.2 -108.0 64.85 -114.55 62.45 -121.1 64.85 -127.25 67.25 -133.4 72.95 -135.45" fill="#ff9c9c" fill-rule="evenodd" stroke="none"/>
    <path d="M81.2 -94.45 Q78.15 -103.0 81.75 -111.15 85.45 -119.35 93.65 -122.3 101.85 -125.25 109.85 -121.3 117.95 -117.35 121.0 -108.8 124.05 -100.3 120.35 -92.2 116.75 -84.0 108.55 -81.05 100.35 -78.1 92.25 -82.05 84.25 -85.95 81.2 -94.45" fill="#ff9c9c" fill-rule="evenodd" stroke="none"/>
    <path d="M55.0 -107.45 Q64.7 -110.95 74.0 -106.6 83.45 -102.2 86.95 -92.45 90.45 -82.75 86.0 -73.4 81.65 -63.95 71.95 -60.45 62.2 -56.95 52.8 -61.4 43.45 -65.8 39.95 -75.5 36.45 -85.25 40.8 -94.6 45.25 -103.95 55.0 -107.45" fill="#ff9c9c" fill-rule="evenodd" stroke="none"/>
    <path d="M-120.7 -32.2 Q-118.5 -39.8 -112.35 -42.0 -106.2 -44.25 -99.75 -39.75 -93.2 -35.25 -90.1 -26.65 -87.0 -18.1 -89.2 -10.5 -91.3 -2.85 -97.45 -0.6 -103.6 1.6 -110.15 -2.95 -116.55 -7.45 -119.65 -16.0 -122.75 -24.6 -120.7 -32.2" fill="#ff9c9c" fill-rule="evenodd" stroke="none"/>
    <path d="M88.7 -94.15 Q96.15 -96.85 103.3 -93.45 110.5 -90.05 113.2 -82.55 115.95 -75.0 112.55 -67.8 109.2 -60.6 101.75 -57.9 94.25 -55.2 87.05 -58.6 79.95 -62.0 77.2 -69.55 74.5 -77.05 77.8 -84.25 81.2 -91.45 88.7 -94.15" fill="#ff9c9c" fill-rule="evenodd" stroke="none"/>
    <path d="M80.2 -81.25 Q88.05 -84.05 95.5 -80.55 103.05 -77.0 105.9 -69.15 108.7 -61.3 105.15 -53.8 101.65 -46.25 93.8 -43.45 85.95 -40.6 78.4 -44.15 70.9 -47.65 68.1 -55.5 65.25 -63.35 68.75 -70.9 72.35 -78.4 80.2 -81.25" fill="#ff9c9c" fill-rule="evenodd" stroke="none"/>
  </g>
</svg>
