<?xml version="1.0" encoding="UTF-8" standalone="no"?>
<svg xmlns:xlink="http://www.w3.org/1999/xlink" height="90.3px" width="103.3px" xmlns="http://www.w3.org/2000/svg">
  <g transform="matrix(1.0, 0.0, 0.0, 1.0, 4.5, 9.15)">
    <path d="M6.05 -4.65 L16.55 4.75 Q28.8 14.8 37.35 18.1 45.2 21.15 60.0 20.65 L70.55 20.25 72.1 20.25 74.35 20.3 Q80.05 21.4 84.35 30.3 88.75 39.2 89.25 50.85 89.8 62.5 86.1 70.0 82.4 77.55 76.75 76.5 67.8 75.9 50.8 71.15 29.15 65.05 20.4 57.85 12.0 50.95 3.0 26.85 L0.0 18.5 3.3 17.7 -0.65 1.0 6.05 -4.65" fill="#00476d" fill-rule="evenodd" stroke="none"/>
    <path d="M6.05 -4.65 L16.55 4.75 Q28.8 14.8 37.35 18.1 45.2 21.15 60.0 20.65 L70.55 20.25 72.1 20.25 74.35 20.3 Q80.05 21.4 84.35 30.3 88.75 39.2 89.25 50.85 89.8 62.5 86.1 70.0 82.4 77.55 76.75 76.5 67.8 75.9 50.8 71.15 29.15 65.05 20.4 57.85 12.0 50.95 3.0 26.85 L0.0 18.5" fill="none" stroke="#00476d" stroke-linecap="round" stroke-linejoin="round" stroke-width="9.0"/>
    <path d="M84.35 30.3 Q88.75 39.2 89.25 50.85 89.8 62.5 86.1 70.0 82.4 77.55 76.75 76.5 71.1 75.45 66.7 66.45 62.4 57.55 61.9 45.9 61.35 34.3 65.05 26.75 68.7 19.3 74.35 20.3 80.05 21.4 84.35 30.3" fill="#856301" fill-rule="evenodd" stroke="none"/>
    <path d="M-4.35 4.1 L6.05 -4.65 16.55 4.75 22.95 9.75 14.3 11.4 2.7 13.1 -4.35 4.1" fill="#620000" fill-opacity="0.2" fill-rule="evenodd" stroke="none"/>
    <path d="M72.1 20.25 Q67.95 20.85 65.05 26.75 61.35 34.3 61.9 45.9 62.4 57.55 66.7 66.45 71.1 75.45 76.75 76.5 67.8 75.9 50.8 71.15 29.15 65.05 20.4 57.85 12.0 50.95 3.0 26.85 -1.5 14.85 -4.35 4.1 L6.05 -4.65 16.55 4.75 Q28.8 14.8 37.35 18.1 45.2 21.15 60.0 20.65 L70.55 20.25 72.1 20.25" fill="#0091e0" fill-rule="evenodd" stroke="none"/>
    <path d="M72.1 20.25 Q67.95 20.85 65.05 26.75 61.35 34.3 61.9 45.9 62.4 57.55 66.7 66.45 71.1 75.45 76.75 76.5 67.8 75.9 50.8 71.15 42.85 68.9 36.6 66.5 L36.1 64.25 Q34.0 53.2 36.9 40.3 39.7 27.4 45.95 20.2 L46.0 20.15 60.0 20.65 70.55 20.25 72.1 20.25" fill="#ffbf1e" fill-rule="evenodd" stroke="none"/>
    <path d="M75.45 21.6 Q78.15 21.8 80.0 21.55 83.9 21.1 87.35 19.2 L90.1 17.45 94.3 26.65 Q91.55 29.75 88.95 31.25 86.6 32.65 82.75 33.65 L82.35 42.6 Q81.0 52.0 76.4 54.55 71.1 57.45 70.05 58.9 69.15 60.15 68.15 65.75 L59.95 61.55 Q61.15 54.1 67.2 51.15 68.85 53.8 70.85 54.7 65.1 48.15 63.45 35.95 L66.7 32.45 Q59.2 37.1 56.4 45.65 L45.4 41.75 Q46.55 38.3 48.85 34.3 53.45 26.3 59.2 23.65 64.7 21.15 70.75 21.3 L75.45 21.6 M53.35 45.45 L56.7 46.75 Q59.0 40.65 62.55 37.05 63.6 44.4 66.7 49.7 L61.3 54.85 Q59.1 57.55 57.75 62.45 L50.0 57.65 Q49.75 54.15 50.5 51.45 51.25 48.85 53.35 45.45" fill="#bf7926" fill-rule="evenodd" stroke="none"/>
    <path d="M75.45 21.6 Q78.15 21.8 80.0 21.55 83.9 21.1 87.35 19.2 L90.1 17.45 94.3 26.65 Q91.55 29.75 88.95 31.25 86.6 32.65 82.75 33.65 L82.35 42.6 Q81.0 52.0 76.4 54.55 71.1 57.45 70.05 58.9 69.15 60.15 68.15 65.75 L59.95 61.55 Q61.15 54.1 67.2 51.15 68.85 53.8 70.85 54.7 65.1 48.15 63.45 35.95 L66.7 32.45 Q59.2 37.1 56.4 45.65 L45.4 41.75 Q46.55 38.3 48.85 34.3 53.45 26.3 59.2 23.65 64.7 21.15 70.75 21.3 L75.45 21.6 M53.35 45.45 L56.7 46.75 Q59.0 40.65 62.55 37.05 63.6 44.4 66.7 49.7 L61.3 54.85 Q59.1 57.55 57.75 62.45 L50.0 57.65 Q49.75 54.15 50.5 51.45 51.25 48.85 53.35 45.45" fill="none" stroke="#3c190a" stroke-linecap="round" stroke-linejoin="round" stroke-width="9.0"/>
    <path d="M80.0 21.55 Q83.9 21.1 87.35 19.2 L90.1 17.45 94.3 26.65 Q91.55 29.75 88.95 31.25 86.6 32.65 82.75 33.65 L82.35 42.6 Q81.0 52.0 76.4 54.55 71.1 57.45 70.05 58.9 69.15 60.15 68.15 65.75 L59.95 61.55 Q61.15 54.1 67.2 51.15 68.85 53.8 70.85 54.7 65.1 48.15 63.45 35.95 L66.7 32.45 Q59.2 37.1 56.4 45.65 L45.4 41.75 Q46.55 38.3 48.85 34.3 53.45 26.3 59.2 23.65 64.7 21.15 70.75 21.3 L75.45 21.6 Q78.15 21.8 80.0 21.55 M53.35 45.45 L56.7 46.75 Q59.0 40.65 62.55 37.05 63.6 44.4 66.7 49.7 L61.3 54.85 Q59.1 57.55 57.75 62.45 L50.0 57.65 Q49.75 54.15 50.5 51.45 51.25 48.85 53.35 45.45" fill="#bf7926" fill-rule="evenodd" stroke="none"/>
    <path d="M82.25 43.35 Q80.0 42.1 78.0 39.85 80.3 36.95 82.7 35.55 L82.35 42.6 82.25 43.35 M81.05 50.85 Q78.55 50.35 76.05 48.65 78.6 45.25 82.2 43.65 81.45 47.85 80.05 50.6 L81.05 50.85" fill="#70381f" fill-rule="evenodd" stroke="none"/>
  </g>
</svg>
