<?xml version="1.0" encoding="UTF-8" standalone="no"?>
<svg xmlns:xlink="http://www.w3.org/1999/xlink" height="95.7px" width="92.2px" xmlns="http://www.w3.org/2000/svg">
  <g transform="matrix(1.0, 0.0, 0.0, 1.0, 34.7, 68.35)">
    <path d="M26.1 -65.8 Q27.95 -63.95 29.25 -61.4 32.5 -54.95 28.25 -50.95 L28.2 -50.9 Q26.3 -48.95 23.25 -48.05 L23.2 -48.0 18.6 -47.15 15.0 -46.35 Q13.45 -45.75 12.45 -44.55 L12.4 -44.5 Q11.1 -42.6 12.6 -39.7 L12.6 -39.65 Q13.3 -38.35 14.4 -37.05 L15.55 -35.7 Q16.45 -34.65 16.35 -33.2 16.25 -31.75 15.2 -30.8 14.1 -29.9 12.65 -30.0 11.25 -30.1 10.3 -31.15 L9.15 -32.5 9.1 -32.6 Q7.55 -34.45 6.5 -36.35 L6.45 -36.4 Q2.5 -44.05 7.15 -49.0 L7.2 -49.05 Q9.3 -51.6 12.5 -52.85 L17.6 -54.0 21.3 -54.7 21.35 -54.7 Q22.5 -55.05 23.25 -55.75 23.85 -56.7 23.05 -58.25 L23.05 -58.3 21.15 -60.9 Q20.15 -61.9 20.15 -63.35 20.15 -64.8 21.15 -65.8 22.2 -66.85 23.6 -66.85 25.05 -66.85 26.1 -65.8" fill="#70381f" fill-rule="evenodd" stroke="none"/>
    <path d="M26.1 -65.8 Q25.05 -66.85 23.6 -66.85 22.2 -66.85 21.15 -65.8 20.15 -64.8 20.15 -63.35 20.15 -61.9 21.15 -60.9 L23.05 -58.3 23.05 -58.25 Q23.85 -56.7 23.25 -55.75 22.5 -55.05 21.35 -54.7 L21.3 -54.7 17.6 -54.0 12.5 -52.85 Q9.3 -51.6 7.2 -49.05 L7.15 -49.0 Q2.5 -44.05 6.45 -36.4 L6.5 -36.35 Q7.55 -34.45 9.1 -32.6 L9.15 -32.5 10.3 -31.15 Q11.25 -30.1 12.65 -30.0 14.1 -29.9 15.2 -30.8 16.25 -31.75 16.35 -33.2 16.45 -34.65 15.55 -35.7 L14.4 -37.05 Q13.3 -38.35 12.6 -39.65 L12.6 -39.7 Q11.1 -42.6 12.4 -44.5 L12.45 -44.55 Q13.45 -45.75 15.0 -46.35 L18.6 -47.15 23.2 -48.0 23.25 -48.05 Q26.3 -48.95 28.2 -50.9 L28.25 -50.95 Q32.5 -54.95 29.25 -61.4 27.95 -63.95 26.1 -65.8 Z" fill="none" stroke="#3c190a" stroke-linecap="round" stroke-linejoin="round" stroke-width="3.0"/>
    <path d="M42.25 -39.7 Q48.3 -34.9 51.85 -25.85 55.0 -17.75 55.0 -9.9 55.0 4.5 42.25 14.65 29.45 24.85 11.45 24.85 -6.6 24.85 -19.4 14.65 -32.2 4.5 -32.2 -9.9 -32.2 -17.75 -29.0 -25.85 -25.45 -34.9 -19.4 -39.7 -6.6 -49.85 11.45 -49.85 29.4 -49.85 42.25 -39.7 Z" fill="none" stroke="#666666" stroke-linecap="round" stroke-linejoin="miter" stroke-miterlimit="3.0" stroke-width="5.0"/>
    <path d="M42.25 -39.7 Q48.3 -34.9 51.85 -25.85 55.0 -17.75 55.0 -9.9 55.0 4.5 42.25 14.65 29.45 24.85 11.45 24.85 -6.6 24.85 -19.4 14.65 -32.2 4.5 -32.2 -9.9 -32.2 -17.75 -29.0 -25.85 -25.45 -34.9 -19.4 -39.7 -6.6 -49.85 11.45 -49.85 29.4 -49.85 42.25 -39.7" fill="#cccccc" fill-rule="evenodd" stroke="none"/>
    <path d="M55.0 -9.9 Q55.0 2.5 45.6 11.75 L12.15 -7.55 -22.35 12.1 Q-31.8 3.1 -32.15 -8.9 -30.95 -12.95 -29.2 -16.9 -16.6 -45.25 12.95 -45.25 41.95 -45.25 53.55 -15.8 L54.95 -11.95 55.0 -9.9" fill="#8c8c8c" fill-rule="evenodd" stroke="none"/>
    <path d="M42.25 -39.7 Q48.3 -34.9 51.85 -25.85 55.0 -17.75 55.0 -9.9 55.0 4.5 42.25 14.65 29.45 24.85 11.45 24.85 -6.6 24.85 -19.4 14.65 -32.2 4.5 -32.2 -9.9 -32.2 -17.75 -29.0 -25.85 -25.45 -34.9 -19.4 -39.7 -6.6 -49.85 11.45 -49.85 29.4 -49.85 42.25 -39.7 Z" fill="none" stroke="#666666" stroke-linecap="round" stroke-linejoin="miter" stroke-miterlimit="3.0" stroke-width="0.8"/>
  </g>
</svg>
