<?xml version="1.0" encoding="UTF-8" standalone="no"?>
<svg xmlns:xlink="http://www.w3.org/1999/xlink" height="3.4px" width="16.6px" xmlns="http://www.w3.org/2000/svg">
  <g transform="matrix(1.0, 0.0, 0.0, 1.0, 8.3, 4.25)">
    <path d="M4.95 -1.5 L3.15 -1.2 1.35 -1.5 Q0.6 -1.75 0.6 -2.1 0.6 -2.5 1.35 -2.75 L3.15 -3.0 4.95 -2.75 Q5.7 -2.5 5.7 -2.1 5.7 -1.75 4.95 -1.5" fill="#ffffff" fill-rule="evenodd" stroke="none"/>
    <path d="M7.75 -3.1 L6.5 -2.85 5.25 -3.1 Q4.75 -3.25 4.75 -3.55 4.75 -3.85 5.25 -4.1 L6.5 -4.25 7.75 -4.1 8.3 -3.55 Q8.3 -3.25 7.75 -3.1" fill="#ffffff" fill-rule="evenodd" stroke="none"/>
    <path d="M-4.05 -1.9 L-5.45 -1.65 -6.9 -1.9 Q-7.45 -2.2 -7.45 -2.6 L-6.9 -3.25 -5.45 -3.5 -4.05 -3.25 Q-3.5 -2.95 -3.5 -2.6 -3.5 -2.2 -4.05 -1.9" fill="#ffffff" fill-rule="evenodd" stroke="none"/>
    <path d="M-0.4 -1.0 L-1.15 -0.85 -1.85 -1.0 -2.15 -1.35 -1.85 -1.75 -1.15 -1.9 -0.4 -1.75 -0.1 -1.35 -0.4 -1.0" fill="#ffffff" fill-rule="evenodd" stroke="none"/>
    <path d="M-3.05 -1.2 Q-3.4 -0.95 -3.85 -0.95 L-4.65 -1.2 -4.95 -1.65 -4.65 -2.15 -3.85 -2.35 -3.05 -2.15 Q-2.75 -1.9 -2.75 -1.65 -2.75 -1.35 -3.05 -1.2" fill="#ffffff" fill-rule="evenodd" stroke="none"/>
    <path d="M-7.4 -3.9 L-7.8 -3.85 -8.15 -3.9 -8.3 -4.05 -8.15 -4.2 -7.8 -4.2 -7.4 -4.2 -7.25 -4.05 -7.4 -3.9" fill="#ffffff" fill-rule="evenodd" stroke="none"/>
  </g>
</svg>
