<?xml version="1.0" encoding="UTF-8" standalone="no"?>
<svg xmlns:xlink="http://www.w3.org/1999/xlink" height="4.35px" width="16.2px" xmlns="http://www.w3.org/2000/svg">
  <g transform="matrix(1.0, 0.0, 0.0, 1.0, 8.35, 4.8)">
    <path d="M7.1 -2.5 L5.3 -2.2 3.5 -2.5 Q2.75 -2.75 2.75 -3.1 2.75 -3.5 3.5 -3.75 L5.3 -4.0 7.1 -3.75 Q7.85 -3.5 7.85 -3.1 7.85 -2.75 7.1 -2.5" fill="#ffffff" fill-rule="evenodd" stroke="none"/>
    <path d="M-1.65 -0.7 L-3.05 -0.45 -4.5 -0.7 Q-5.05 -1.0 -5.05 -1.4 L-4.5 -2.05 -3.05 -2.3 -1.65 -2.05 Q-1.1 -1.75 -1.1 -1.4 -1.1 -1.0 -1.65 -0.7" fill="#ffffff" fill-rule="evenodd" stroke="none"/>
    <path d="M3.7 -2.05 L2.95 -1.9 2.25 -2.05 Q1.95 -2.2 1.95 -2.4 L2.25 -2.8 2.95 -2.95 3.7 -2.8 4.0 -2.4 3.7 -2.05" fill="#ffffff" fill-rule="evenodd" stroke="none"/>
    <path d="M0.75 -0.8 L-0.05 -0.55 -0.85 -0.8 Q-1.15 -0.95 -1.15 -1.25 L-0.85 -1.75 -0.05 -1.95 0.75 -1.75 1.05 -1.25 0.75 -0.8" fill="#ffffff" fill-rule="evenodd" stroke="none"/>
    <path d="M-5.8 -3.95 L-6.85 -3.8 -7.9 -3.95 -8.35 -4.3 -7.9 -4.65 -6.85 -4.8 -5.8 -4.65 -5.35 -4.3 -5.8 -3.95" fill="#ffffff" fill-rule="evenodd" stroke="none"/>
    <path d="M-8.1 -2.95 L-7.95 -3.1 -7.6 -3.1 -7.2 -3.1 -7.05 -2.95 -7.2 -2.8 -7.6 -2.75 -7.95 -2.8 -8.1 -2.95" fill="#ffffff" fill-rule="evenodd" stroke="none"/>
  </g>
</svg>
