<?xml version="1.0" encoding="UTF-8" standalone="no"?>
<svg xmlns:xlink="http://www.w3.org/1999/xlink" height="92.4px" width="92.8px" xmlns="http://www.w3.org/2000/svg">
  <g transform="matrix(1.0, 0.0, 0.0, 1.0, 46.4, 54.65)">
    <path d="M35.55 2.6 Q35.55 11.95 21.5 11.85 13.9 11.75 0.05 9.7 -4.9 9.7 -21.85 11.85 -36.25 11.95 -36.25 2.6 -36.25 -18.1 -31.55 -30.1 -23.2 -51.65 -0.35 -51.65 22.5 -51.65 30.85 -30.1 35.55 -18.1 35.55 2.6 Z" fill="none" stroke="#416409" stroke-linecap="round" stroke-linejoin="round" stroke-width="6.0"/>
    <path d="M35.55 2.6 Q35.55 11.95 21.5 11.85 13.9 11.75 0.05 9.7 -4.9 9.7 -21.85 11.85 -36.25 11.95 -36.25 2.6 -36.25 -18.1 -31.55 -30.1 -23.2 -51.65 -0.35 -51.65 22.5 -51.65 30.85 -30.1 35.55 -18.1 35.55 2.6" fill="#7cb421" fill-rule="evenodd" stroke="none"/>
    <path d="M-0.35 -42.3 Q22.5 -42.3 30.85 -18.75 34.15 -9.35 35.1 4.8 33.2 11.95 21.5 11.85 13.9 11.7 0.1 9.45 -4.9 9.45 -21.85 11.85 -33.85 11.95 -35.85 4.8 -34.9 -9.35 -31.55 -18.75 -23.2 -42.3 -0.35 -42.3" fill="#3f9306" fill-rule="evenodd" stroke="none"/>
    <path d="M14.35 -26.9 L-15.6 -26.8 -18.75 -37.85 -0.7 -48.05 17.45 -37.8 14.35 -26.9" fill="#ffcc00" fill-rule="evenodd" stroke="none"/>
    <path d="M15.55 -38.85 L17.45 -37.8 17.3 -37.15 14.35 -26.9 -15.6 -26.8 -18.75 -37.85 -17.5 -38.55 -15.9 -39.45 -16.95 -39.0 Q-9.8 -42.3 -0.35 -42.3 7.1 -42.3 13.2 -40.2 L15.55 -38.85" fill="#cd960d" fill-rule="evenodd" stroke="none"/>
    <path d="M15.55 -38.85 L13.2 -40.2 13.1 -40.25 14.8 -39.65 15.55 -38.85" fill="#cd960d" fill-rule="evenodd" stroke="none"/>
    <path d="M6.85 -31.15 L-0.65 -30.65 Q-10.6 -30.65 -9.3 -34.2 -8.65 -35.85 -5.55 -36.55 -10.7 -37.0 -9.65 -38.95 -8.8 -40.55 -3.05 -40.85 L-3.0 -40.85 2.15 -40.9 2.9 -40.9 8.15 -31.15 6.85 -31.15 M2.0 -37.6 L1.05 -40.4 -2.45 -40.3 Q-6.55 -40.1 -6.9 -38.95 -7.4 -37.45 -2.5 -37.4 L2.0 -37.6 M-0.75 -32.0 L3.9 -32.2 2.45 -36.35 -1.1 -36.3 Q-5.75 -36.0 -6.05 -34.2 -6.45 -32.05 -0.75 -32.0" fill="#ff0000" fill-rule="evenodd" stroke="none"/>
    <path d="M6.85 -31.15 L-0.65 -30.65 Q-10.6 -30.65 -9.3 -34.2 -8.65 -35.85 -5.55 -36.55 -10.7 -37.0 -9.65 -38.95 -8.8 -40.55 -3.05 -40.85 L-3.0 -40.85 2.15 -40.9 2.9 -40.9 8.15 -31.15 6.85 -31.15 M-0.75 -32.0 Q-6.45 -32.05 -6.05 -34.2 -5.75 -36.0 -1.1 -36.3 L2.45 -36.35 3.9 -32.2 -0.75 -32.0 M2.0 -37.6 L-2.5 -37.4 Q-7.4 -37.45 -6.9 -38.95 -6.55 -40.1 -2.45 -40.3 L1.05 -40.4 2.0 -37.6" fill="none" stroke="#ff0000" stroke-linecap="butt" stroke-linejoin="miter" stroke-miterlimit="3.0" stroke-width="1.0"/>
    <path d="M14.35 -26.9 L-15.6 -26.8 -18.75 -37.85 -0.7 -48.05 17.45 -37.8 14.35 -26.9 Z" fill="none" stroke="#856301" stroke-linecap="butt" stroke-linejoin="miter" stroke-miterlimit="3.0" stroke-width="2.0"/>
    <path d="M-41.55 13.4 Q-43.45 11.45 -43.4 5.45 -43.3 -0.4 -41.55 -2.15 -40.3 -3.4 -34.5 -3.1 L-34.15 -3.95 Q-31.6 -11.75 -26.55 -16.8 -21.3 -22.05 -14.45 -24.75 -7.85 -27.4 -0.25 -27.4 7.35 -27.4 14.0 -24.75 20.8 -22.05 26.05 -16.8 31.1 -11.75 33.7 -3.95 L33.95 -3.05 Q40.2 -3.45 41.55 -2.15 43.3 -0.4 43.4 5.45 43.5 11.45 41.55 13.4 40.25 14.7 35.65 14.6 34.4 20.9 28.3 25.1 24.5 27.8 19.0 29.4 18.05 31.35 13.6 32.8 7.9 34.75 -0.25 34.75 -8.3 34.75 -14.05 32.8 -18.5 31.35 -19.5 29.4 -24.95 27.8 -28.8 25.1 -34.85 20.9 -36.15 14.6 -40.3 14.65 -41.55 13.4 Z" fill="none" stroke="#102c4d" stroke-linecap="round" stroke-linejoin="round" stroke-width="6.0"/>
    <path d="M32.9 -3.0 L26.0 -2.15 26.0 13.4 32.75 14.4 Q39.85 15.05 41.55 13.4 43.45 11.45 43.35 5.45 43.25 -0.4 41.55 -2.15 40.1 -3.55 32.9 -3.0" fill="#137bf0" fill-rule="evenodd" stroke="none"/>
    <path d="M41.9 11.6 Q41.8 5.75 40.05 4.0 38.65 2.6 31.45 3.15 L26.0 3.75 26.0 13.4 32.75 14.4 Q39.85 15.05 41.55 13.4 L41.9 12.95 41.9 11.6" fill="#bf7926" fill-rule="evenodd" stroke="none"/>
    <path d="M-32.9 -3.0 L-26.0 -2.15 -26.0 13.4 -32.75 14.4 Q-39.85 15.05 -41.55 13.4 -43.45 11.45 -43.35 5.45 -43.25 -0.4 -41.55 -2.15 -40.1 -3.55 -32.9 -3.0" fill="#137bf0" fill-rule="evenodd" stroke="none"/>
    <path d="M-41.9 11.6 Q-41.8 5.75 -40.05 4.0 -38.65 2.6 -31.45 3.15 L-26.0 3.75 -26.0 13.4 -32.75 14.4 Q-39.85 15.05 -41.55 13.4 L-41.9 12.95 -41.9 11.6" fill="#bf7926" fill-rule="evenodd" stroke="none"/>
    <path d="M-34.15 -3.95 Q-36.45 3.05 -36.45 11.05 -36.45 19.75 -28.75 25.1 -19.35 31.7 -0.2 31.7 18.95 31.7 28.35 25.1 36.05 19.75 36.05 11.05 36.05 3.05 33.75 -3.95 31.15 -11.75 26.1 -16.8 20.85 -22.05 14.05 -24.75 7.4 -27.4 -0.2 -27.4 -7.8 -27.4 -14.45 -24.75 -21.25 -22.05 -26.5 -16.8 -31.55 -11.75 -34.15 -3.95" fill="#137bf0" fill-rule="evenodd" stroke="none"/>
    <path d="M-34.15 -3.95 Q-36.45 3.05 -36.45 11.05 -36.45 19.75 -28.75 25.1 -19.35 31.7 -0.2 31.7 18.95 31.7 28.35 25.1 36.05 19.75 36.05 11.05 36.05 3.05 33.75 -3.95 31.15 -11.75 26.1 -16.8 20.85 -22.05 14.05 -24.75 7.4 -27.4 -0.2 -27.4 -7.8 -27.4 -14.45 -24.75 -21.25 -22.05 -26.5 -16.8 -31.55 -11.75 -34.15 -3.95 Z" fill="none" stroke="#102c4d" stroke-linecap="round" stroke-linejoin="round" stroke-width="1.0"/>
    <path d="M-14.3 -19.4 Q-11.65 -22.45 -8.55 -24.7 L-12.3 -23.5 Q-19.1 -20.95 -24.35 -15.95 -29.4 -11.1 -32.0 -3.7 -34.3 3.0 -34.3 10.6 -34.3 18.9 -26.6 24.0 -22.5 26.7 -16.55 28.25 -24.25 22.15 -24.25 12.3 -24.25 3.15 -21.95 -4.8 -19.35 -13.65 -14.3 -19.4" fill="#0d5eb8" fill-rule="evenodd" stroke="none"/>
    <path d="M18.25 -20.95 L21.7 -17.9 Q26.75 -12.85 29.35 -5.05 31.65 1.95 31.65 9.95 31.65 18.65 23.95 24.0 L23.85 24.1 Q26.05 19.15 26.05 12.95 26.05 2.25 23.75 -7.05 21.75 -15.1 18.25 -20.95" fill="#ffffff" fill-rule="evenodd" stroke="none"/>
    <path d="M32.35 17.8 Q28.45 23.95 20.5 26.85 L19.4 27.2 19.3 28.25 Q19.3 30.95 13.6 32.8 7.9 34.75 -0.2 34.75 -8.3 34.75 -14.05 32.8 -19.75 30.95 -19.75 28.25 L-19.85 27.25 -20.95 26.85 Q-24.85 25.3 -27.9 22.95 -30.8 20.75 -32.55 18.15 -30.9 17.05 -28.85 16.0 -24.75 13.9 -20.95 13.35 -17.35 12.8 -10.45 15.1 -2.9 17.6 -0.2 17.6 2.65 17.6 10.05 15.05 16.85 12.7 20.5 13.2 24.2 13.75 28.5 15.75 32.15 17.75 32.35 17.8" fill="#a35d0d" fill-rule="evenodd" stroke="none"/>
    <path d="M21.5 21.2 Q20.65 20.3 19.4 20.3 18.2 20.3 17.3 21.2 16.45 22.05 16.45 23.3 16.45 24.5 17.3 25.4 18.2 26.25 19.4 26.25 20.65 26.25 21.5 25.4 22.4 24.5 22.4 23.3 22.4 22.05 21.5 21.2" fill="#000000" fill-rule="evenodd" stroke="none"/>
    <path d="M-17.8 21.2 Q-18.65 20.3 -19.9 20.3 -21.1 20.3 -22.0 21.2 -22.85 22.05 -22.85 23.3 -22.85 24.5 -22.0 25.4 -21.1 26.25 -19.9 26.25 -18.65 26.25 -17.8 25.4 -16.9 24.5 -16.9 23.3 -16.9 22.05 -17.8 21.2" fill="#000000" fill-rule="evenodd" stroke="none"/>
    <path d="M-19.65 27.15 Q-11.9 22.8 -1.3 22.3 11.5 22.75 19.15 27.25 L19.4 27.45 19.4 27.5 19.35 28.2 Q19.35 30.95 13.6 32.8 7.9 34.75 -0.25 34.75 -8.3 34.75 -14.05 32.8 -19.75 30.95 -19.75 28.2 L-19.9 27.3 -19.65 27.15" fill="#bf7926" fill-rule="evenodd" stroke="none"/>
    <path d="M-4.9 17.4 L-4.9 23.6 -28.5 23.6 -28.5 17.4 Q-28.5 15.55 -25.05 14.25 -21.55 13.0 -16.7 13.0 -11.8 13.0 -8.4 14.25 -4.9 15.55 -4.9 17.4" fill="#727272" fill-rule="evenodd" stroke="none"/>
    <path d="M-4.9 17.4 L-4.9 23.6 -4.9 23.7 Q-4.9 25.5 -8.4 26.75 -11.85 28.05 -16.7 28.05 -21.6 28.05 -25.1 26.75 -28.55 25.5 -28.55 23.7 L-28.5 23.3 -28.5 17.4 Q-28.5 15.55 -25.05 14.25 -21.55 13.0 -16.7 13.0 -11.8 13.0 -8.4 14.25 -4.9 15.55 -4.9 17.4 Z" fill="none" stroke="#2e2d2d" stroke-linecap="round" stroke-linejoin="round" stroke-width="2.0"/>
    <path d="M-4.9 23.7 Q-4.9 25.5 -8.4 26.75 -11.85 28.05 -16.7 28.05 -21.6 28.05 -25.1 26.75 -28.55 25.5 -28.55 23.7 -28.55 21.85 -25.1 20.55 -21.6 19.3 -16.7 19.3 -11.85 19.3 -8.4 20.55 -4.9 21.85 -4.9 23.7" fill="#2e2d2d" fill-rule="evenodd" stroke="none"/>
    <path d="M-10.45 26.1 Q-13.1 27.0 -16.85 27.0 -20.6 27.0 -23.3 26.1 -25.95 25.3 -25.95 24.15 -25.95 22.95 -23.3 22.1 -20.6 21.3 -16.85 21.3 -13.1 21.3 -10.45 22.1 -7.7 22.95 -7.7 24.15 -7.7 25.3 -10.45 26.1" fill="#a8e500" fill-rule="evenodd" stroke="none"/>
    <path d="M28.8 18.1 L28.8 24.3 5.2 24.3 5.2 18.1 Q5.2 16.25 8.65 14.95 12.15 13.7 17.0 13.7 21.9 13.7 25.3 14.95 28.8 16.25 28.8 18.1" fill="#727272" fill-rule="evenodd" stroke="none"/>
    <path d="M28.8 18.1 L28.8 24.3 28.8 24.4 Q28.8 26.2 25.3 27.45 21.85 28.75 17.0 28.75 12.1 28.75 8.6 27.45 5.15 26.2 5.15 24.4 L5.2 24.0 5.2 18.1 Q5.2 16.25 8.65 14.95 12.15 13.7 17.0 13.7 21.9 13.7 25.3 14.95 28.8 16.25 28.8 18.1 Z" fill="none" stroke="#2e2d2d" stroke-linecap="round" stroke-linejoin="round" stroke-width="2.0"/>
    <path d="M28.8 24.4 Q28.8 26.2 25.3 27.45 21.85 28.75 17.0 28.75 12.1 28.75 8.6 27.45 5.15 26.2 5.15 24.4 5.15 22.55 8.6 21.25 12.1 20.0 17.0 20.0 21.85 20.0 25.3 21.25 28.8 22.55 28.8 24.4" fill="#2e2d2d" fill-rule="evenodd" stroke="none"/>
    <path d="M23.25 26.8 Q20.6 27.7 16.85 27.7 13.1 27.7 10.4 26.8 7.75 26.0 7.75 24.85 7.75 23.65 10.4 22.8 13.1 22.0 16.85 22.0 20.6 22.0 23.25 22.8 26.0 23.65 26.0 24.85 26.0 26.0 23.25 26.8" fill="#a8e500" fill-rule="evenodd" stroke="none"/>
  </g>
</svg>
