<?xml version="1.0" encoding="UTF-8" standalone="no"?>
<svg xmlns:xlink="http://www.w3.org/1999/xlink" height="43.15px" width="69.45px" xmlns="http://www.w3.org/2000/svg">
  <g transform="matrix(1.0, 0.0, 0.0, 1.0, 34.75, 21.55)">
    <path d="M33.7 16.9 L20.5 20.6 5.55 8.45 10.3 1.4 26.85 4.2 33.7 16.9" fill="#0091e0" fill-rule="evenodd" stroke="none"/>
    <path d="M21.9 20.2 L20.4 20.55 5.5 8.45 10.25 1.35 26.8 4.25 27.6 5.75 20.5 12.75 21.9 20.2" fill="#0070ad" fill-rule="evenodd" stroke="none"/>
    <path d="M33.7 16.9 L26.85 4.2 10.3 1.4 5.55 8.45 20.5 20.6 33.7 16.9 Z" fill="none" stroke="#00476d" stroke-linecap="round" stroke-linejoin="round" stroke-width="2.0"/>
    <path d="M12.15 15.85 L2.5 7.2 3.7 5.65 -33.25 -15.7 Q-35.05 -20.0 -30.45 -20.55 L7.1 1.15 8.6 -0.85 20.9 1.45 Q17.0 2.95 13.3 4.6 L11.3 7.55 12.15 15.85" fill="#70381f" fill-rule="evenodd" stroke="none"/>
    <path d="M12.15 15.85 L11.3 7.55 13.3 4.6 Q17.0 2.95 20.9 1.45 L8.6 -0.85 7.1 1.15 -30.45 -20.55 Q-35.05 -20.0 -33.25 -15.7 L3.7 5.65 2.5 7.2 12.15 15.85 Z" fill="none" stroke="#3c190a" stroke-linecap="round" stroke-linejoin="round" stroke-width="2.0"/>
  </g>
</svg>
