<?xml version="1.0" encoding="UTF-8" standalone="no"?>
<svg xmlns:xlink="http://www.w3.org/1999/xlink" height="305.55px" width="491.4px" xmlns="http://www.w3.org/2000/svg">
  <g transform="matrix(1.0, 0.0, 0.0, 1.0, 323.1, 260.15)">
    <path d="M72.8 -9.5 Q50.75 -7.35 17.4 -5.95 -49.2 -2.95 -105.25 -6.2 -145.9 -8.55 -177.85 -14.0 L-177.85 -113.65 Q-158.15 -116.65 -133.9 -128.95 -139.25 -151.6 -125.05 -179.5 -118.0 -193.5 -109.85 -202.95 -61.4 -214.85 -4.25 -223.75 28.75 -228.9 50.7 -231.15 L72.8 -9.5" fill="#383838" fill-rule="evenodd" stroke="none"/>
    <path d="M-177.85 -113.65 L-176.65 -113.85 Q-157.4 -117.0 -133.9 -128.95 -138.8 -149.6 -127.35 -174.65 L-123.85 -174.85 -118.25 -175.2 -121.05 -175.1 -115.55 -175.4 -112.8 -175.55 -52.6 -178.6 -23.2 -40.4 -88.65 -37.6 -83.6 -37.9 -93.95 -37.5 -157.8 -35.35 -177.85 -34.7 -177.85 -113.65" fill="#5f5f5f" fill-rule="evenodd" stroke="none"/>
    <path d="M-72.75 -211.35 Q-40.25 -218.2 -4.35 -223.75 L25.9 -228.2 21.45 -227.65 50.65 -231.15 72.75 -9.5 43.7 -7.1 47.9 -7.4 17.35 -5.9 Q-18.9 -4.3 -52.0 -4.55 -67.5 -10.6 -81.15 -28.7 -103.7 -58.45 -108.2 -103.4 -112.65 -148.3 -96.4 -182.0 -86.65 -202.3 -72.75 -211.35" fill="#ad0303" fill-rule="evenodd" stroke="none"/>
    <path d="M5.55 -191.05 L9.45 -191.5 37.7 -194.55 51.75 -48.35 21.0 -45.55 23.4 -45.85 18.55 -45.45 -11.45 -43.3 -88.05 -38.95 Q-104.4 -65.9 -108.15 -103.4 L-108.6 -107.9 Q-111.6 -147.0 -98.5 -177.4 L-67.25 -181.75 -25.2 -187.15 4.25 -190.8 6.9 -191.15 5.55 -191.05" fill="#f73600" fill-rule="evenodd" stroke="none"/>
    <path d="M2.2 -74.75 Q2.2 -71.9 0.1 -69.85 -1.9 -67.75 -4.8 -67.75 -7.7 -67.75 -9.8 -69.85 -11.85 -71.9 -11.85 -74.75 -11.85 -77.65 -9.8 -79.75 -7.7 -81.8 -4.8 -81.8 -1.9 -81.8 0.1 -79.75 2.2 -77.65 2.2 -74.75 M-49.9 -106.75 Q-47.8 -104.65 -47.8 -101.75 -47.8 -98.9 -49.9 -96.85 -51.9 -94.75 -54.8 -94.75 -57.7 -94.75 -59.8 -96.85 -61.85 -98.9 -61.85 -101.75 -61.85 -104.65 -59.8 -106.75 -57.7 -108.8 -54.8 -108.8 -51.9 -108.8 -49.9 -106.75 M-90.3 -69.75 Q-88.2 -71.8 -85.3 -71.8 -82.4 -71.8 -80.4 -69.75 -78.3 -67.65 -78.3 -64.75 -78.3 -61.9 -80.4 -59.85 -82.4 -57.75 -85.3 -57.75 -88.2 -57.75 -90.3 -59.85 -92.35 -61.9 -92.35 -64.75 -92.35 -67.65 -90.3 -69.75" fill="#ad0303" fill-rule="evenodd" stroke="none"/>
    <path d="M-268.45 -99.75 Q-266.35 -97.65 -266.35 -94.75 -266.35 -91.9 -268.45 -89.85 -270.45 -87.75 -273.35 -87.75 -276.25 -87.75 -278.35 -89.85 -280.4 -91.9 -280.4 -94.75 -280.4 -97.65 -278.35 -99.75 -276.25 -101.8 -273.35 -101.8 -270.45 -101.8 -268.45 -99.75 M-231.4 -54.75 Q-231.4 -57.65 -229.35 -59.75 -227.25 -61.8 -224.35 -61.8 -221.45 -61.8 -219.45 -59.75 -217.35 -57.65 -217.35 -54.75 -217.35 -51.9 -219.45 -49.85 -221.45 -47.75 -224.35 -47.75 -227.25 -47.75 -229.35 -49.85 -231.4 -51.9 -231.4 -54.75 M-139.3 -85.75 Q-142.2 -85.75 -144.3 -87.85 -146.35 -89.9 -146.35 -92.75 -146.35 -95.65 -144.3 -97.75 -142.2 -99.8 -139.3 -99.8 -136.4 -99.8 -134.4 -97.75 -132.3 -95.65 -132.3 -92.75 -132.3 -89.9 -134.4 -87.85 -136.4 -85.75 -139.3 -85.75" fill="#1c1c1c" fill-rule="evenodd" stroke="none"/>
    <path d="M63.15 -106.35 L63.65 -101.4 Q-106.85 -72.6 -202.4 -73.05 -260.55 -73.3 -291.4 -84.45 L-291.5 -85.1 -291.75 -89.95 Q-261.95 -78.35 -202.4 -78.05 -106.85 -77.6 64.1 -106.55 L63.15 -106.35" fill="#1c1c1c" fill-rule="evenodd" stroke="none"/>
    <path d="M46.25 -103.55 L46.2 -104.25 46.85 -97.8 46.75 -98.6 Q-38.35 -84.65 -103.95 -78.3 L-105.15 -83.65 -105.05 -83.2 Q-39.3 -89.55 46.25 -103.55" fill="#ad0303" fill-rule="evenodd" stroke="none"/>
    <path d="M100.35 -203.2 Q121.25 -172.5 125.85 -126.6 130.4 -80.7 115.95 -46.5 101.5 -12.2 76.45 -9.7 51.4 -7.2 30.45 -37.95 9.5 -68.65 4.95 -114.55 0.35 -160.45 14.85 -194.65 29.3 -228.85 54.35 -231.35 79.4 -233.85 100.35 -203.2" fill="#ff6200" fill-rule="evenodd" stroke="none"/>
    <path d="M-318.9 -73.6 Q-313.05 -79.4 -301.35 -83.85 -285.55 -89.8 -269.3 -89.7 -247.7 -89.55 -245.75 -80.05 -243.75 -70.55 -263.55 -61.95 -278.4 -55.4 -295.3 -54.6 -307.8 -54.0 -315.5 -57.15 -322.0 -59.7 -322.95 -64.15 -323.85 -68.6 -318.9 -73.6" fill="#383838" fill-rule="evenodd" stroke="none"/>
    <path d="M92.5 -173.95 Q104.6 -154.2 107.5 -124.85 110.4 -95.55 102.5 -73.8 94.5 -52.05 80.3 -50.6 66.05 -49.2 53.95 -68.95 41.85 -88.7 38.95 -118.0 36.05 -147.35 43.95 -169.1 51.95 -190.85 66.2 -192.25 80.4 -193.7 92.5 -173.95" fill="#f73600" fill-rule="evenodd" stroke="none"/>
    <path d="M54.05 -186.3 Q59.2 -181.8 64.0 -173.95 76.1 -154.2 79.0 -124.85 81.9 -95.55 74.0 -73.8 69.8 -62.4 63.95 -56.55 58.75 -61.1 53.95 -68.95 41.85 -88.7 38.95 -118.0 36.05 -147.35 43.95 -169.1 48.15 -180.5 54.05 -186.3" fill="#ad0303" fill-rule="evenodd" stroke="none"/>
    <path d="M144.75 -255.65 Q152.45 -255.85 158.1 -250.45 163.65 -245.1 163.8 -237.35 163.95 -229.6 158.6 -224.0 153.2 -218.45 145.45 -218.25 L-165.0 -212.25 -158.9 24.25 -211.1 28.4 -217.25 -211.25 -257.55 -210.5 Q-265.25 -210.4 -270.85 -215.75 -276.45 -221.15 -276.55 -228.8 -276.75 -236.55 -271.35 -242.15 -265.95 -247.75 -258.25 -247.9 L-141.5 -250.15 -140.9 -250.15 144.75 -255.65" fill="#1c1c1c" fill-rule="evenodd" stroke="none"/>
    <path d="M144.75 -255.65 L-140.9 -250.15 -141.5 -250.15 -258.25 -247.9 Q-265.95 -247.75 -271.35 -242.15 -276.75 -236.55 -276.55 -228.8 -276.45 -221.15 -270.85 -215.75 -265.25 -210.4 -257.55 -210.5 L-217.25 -211.25 -211.1 28.4 -158.9 24.25 -165.0 -212.25 145.45 -218.25 Q153.2 -218.45 158.6 -224.0 163.95 -229.6 163.8 -237.35 163.65 -245.1 158.1 -250.45 152.45 -255.85 144.75 -255.65 Z" fill="none" stroke="#1c1c1c" stroke-linecap="round" stroke-linejoin="round" stroke-width="9.0"/>
    <path d="M-165.35 -225.7 L-158.9 24.25 -211.1 28.4 -217.55 -221.55 -165.35 -225.7" fill="#9a9a9a" fill-rule="evenodd" stroke="none"/>
    <path d="M158.1 -250.45 Q163.65 -245.1 163.8 -237.35 163.95 -229.6 158.6 -224.0 153.2 -218.45 145.45 -218.25 L-257.55 -210.5 Q-265.25 -210.4 -270.85 -215.75 -276.45 -221.15 -276.55 -228.8 -276.75 -236.55 -271.35 -242.15 -265.95 -247.75 -258.25 -247.9 L144.75 -255.65 Q152.45 -255.85 158.1 -250.45" fill="#5f5f5f" fill-rule="evenodd" stroke="none"/>
    <path d="M-128.25 -244.95 Q-122.6 -239.55 -122.45 -231.85 -122.3 -224.15 -127.7 -218.55 -133.05 -212.95 -140.8 -212.75 L-257.55 -210.5 Q-265.25 -210.4 -270.85 -215.75 -276.45 -221.15 -276.55 -228.8 -276.75 -236.55 -271.35 -242.15 -265.95 -247.75 -258.25 -247.9 L-141.5 -250.15 Q-133.85 -250.35 -128.25 -244.95" fill="#383838" fill-rule="evenodd" stroke="none"/>
    <path d="M-129.1 -1.4 Q-123.0 3.4 -122.1 11.1 -121.25 18.75 -126.05 24.85 -130.85 30.9 -138.55 31.85 L-254.55 45.25 Q-262.2 46.1 -268.3 41.25 -274.35 36.45 -275.25 28.75 -276.15 21.1 -271.3 15.0 -266.5 8.95 -258.85 8.05 L-142.85 -5.3 Q-135.15 -6.2 -129.1 -1.4" fill="#383838" fill-rule="evenodd" stroke="none"/>
    <path d="M105.75 -254.75 L121.35 -255.05 Q126.95 -254.1 131.3 -249.9 137.1 -244.3 137.25 -236.3 137.45 -228.25 131.85 -222.45 128.75 -219.25 124.95 -217.7 L106.9 -217.35 Q111.3 -218.85 114.8 -222.45 120.4 -228.25 120.2 -236.3 120.05 -244.3 114.25 -249.9 110.45 -253.55 105.75 -254.75 M63.25 -254.0 L78.85 -254.3 Q84.45 -253.35 88.8 -249.15 94.6 -243.55 94.75 -235.55 94.95 -227.5 89.35 -221.7 86.25 -218.5 82.45 -216.95 L64.4 -216.6 Q68.8 -218.1 72.3 -221.7 77.9 -227.5 77.7 -235.55 77.55 -243.55 71.75 -249.15 67.95 -252.8 63.25 -254.0" fill="#f73600" fill-rule="evenodd" stroke="none"/>
    <path d="M-64.25 -251.5 L-48.65 -251.8 Q-43.05 -250.85 -38.7 -246.65 -32.9 -241.05 -32.75 -233.05 -32.55 -225.0 -38.15 -219.2 -41.25 -216.0 -45.05 -214.45 L-63.1 -214.1 Q-58.7 -215.6 -55.2 -219.2 -49.6 -225.0 -49.8 -233.05 -49.95 -241.05 -55.75 -246.65 -59.55 -250.3 -64.25 -251.5 M-106.75 -250.75 L-91.15 -251.05 Q-85.55 -250.1 -81.2 -245.9 -75.4 -240.3 -75.25 -232.3 -75.05 -224.25 -80.65 -218.45 -83.75 -215.25 -87.55 -213.7 L-105.6 -213.35 Q-101.2 -214.85 -97.7 -218.45 -92.1 -224.25 -92.3 -232.3 -92.45 -240.3 -98.25 -245.9 -102.05 -249.55 -106.75 -250.75" fill="#f73600" fill-rule="evenodd" stroke="none"/>
  </g>
</svg>
