<?xml version="1.0" encoding="UTF-8" standalone="no"?>
<svg xmlns:xlink="http://www.w3.org/1999/xlink" height="51.15px" width="55.3px" xmlns="http://www.w3.org/2000/svg">
  <g transform="matrix(1.0, 0.0, 0.0, 1.0, 27.85, 25.55)">
    <path d="M-2.8 -24.8 L9.6 -21.2 9.6 -16.4 7.3 -17.0 7.3 -19.4 -0.2 -21.6 -0.25 -18.8 -0.75 -18.85 -2.8 -19.4 -2.8 -24.8" fill="#f0b720" fill-rule="evenodd" stroke="none"/>
    <path d="M-2.8 -19.4 L-0.75 -18.85 7.3 -17.0 9.6 -16.4 26.7 -12.4 26.7 20.7 -17.0 24.85 -17.0 -22.75 -2.8 -19.4" fill="#666666" fill-rule="evenodd" stroke="none"/>
    <path d="M-17.0 24.85 L-27.1 21.75 -27.1 -19.15 -17.0 -22.75 -17.0 24.85" fill="#484848" fill-rule="evenodd" stroke="none"/>
    <path d="M-2.8 -24.8 L-2.8 -19.4 M-0.25 -18.8 L-0.2 -21.6 7.3 -19.4 7.3 -17.0" fill="none" stroke="#cd960d" stroke-linecap="round" stroke-linejoin="round" stroke-width="1.5"/>
    <path d="M9.6 -16.4 L9.6 -21.2 -2.8 -24.8" fill="none" stroke="#f4ca59" stroke-linecap="round" stroke-linejoin="round" stroke-width="1.5"/>
    <path d="M-2.8 -19.4 L-0.75 -18.85 7.3 -17.0 9.6 -16.4 26.7 -12.4 26.7 20.7 -17.0 24.85 -27.1 21.75 -27.1 -19.15 -17.0 -22.75 -2.8 -19.4" fill="none" stroke="#333333" stroke-linecap="round" stroke-linejoin="round" stroke-width="1.5"/>
    <path d="M17.0 4.45 Q11.55 6.15 7.7 1.6 L7.55 1.45 6.9 -0.45 Q5.3 -6.4 7.0 -10.25 L7.15 -10.35 Q6.7 -6.45 10.25 -1.7 L15.25 3.4 17.0 4.45 M2.85 2.4 L2.9 2.35 3.0 -0.1 Q3.65 -6.45 6.25 -9.95 L6.4 -10.0 6.6 -10.05 Q5.05 -6.35 6.55 -0.25 L9.65 7.8 11.2 10.05 11.0 9.95 Q4.7 9.25 2.95 2.45 L2.85 2.4 M5.6 -10.7 L6.05 -10.0 Q3.4 -6.5 2.7 0.1 L2.45 10.15 Q2.65 12.1 3.0 13.75 L2.95 13.7 Q-2.3 9.6 -1.3 1.65 -0.4 -5.3 5.6 -10.7" fill="#ffcc33" fill-rule="evenodd" stroke="none"/>
    <path d="M5.8 -10.8 L7.45 -12.9 9.25 -11.7 6.3 -10.15 5.8 -10.8 M17.0 4.45 L17.2 4.55 17.0 6.15 Q13.5 8.15 10.35 7.85 8.75 5.1 7.55 1.45 L7.7 1.6 Q11.55 6.15 17.0 4.45 M11.0 9.95 L11.4 10.4 10.6 12.3 Q5.95 12.45 3.1 10.45 2.6 6.65 2.85 2.4 L2.95 2.45 Q4.7 9.25 11.0 9.95 M2.95 13.7 L3.1 14.25 1.65 15.85 Q-0.45 14.55 -1.85 13.05 -6.55 7.9 -3.75 0.15 -3.0 -2.0 -1.85 -3.8 L0.2 -6.35 Q2.35 -8.75 5.6 -10.75 L5.6 -10.7 Q-0.4 -5.3 -1.3 1.65 -2.3 9.6 2.95 13.7" fill="#cd960d" fill-rule="evenodd" stroke="none"/>
    <path d="M7.2 -13.0 L7.25 -13.0 7.45 -13.0 7.55 -12.95 9.4 -11.85 9.5 -11.7 9.4 -11.55 9.35 -11.4 7.4 -10.55 Q6.95 -6.65 10.45 -2.15 13.9 2.25 17.05 3.9 L17.2 4.0 17.5 4.25 17.65 4.6 17.65 4.95 17.45 6.45 17.45 6.6 17.35 6.7 17.25 6.8 Q13.9 8.6 11.0 8.7 L11.45 9.4 11.7 9.85 11.8 10.15 11.9 10.5 11.75 11.05 10.95 12.9 10.7 13.15 10.55 13.15 Q6.2 13.6 3.3 11.8 L3.5 13.05 3.65 13.45 3.7 14.15 3.55 14.7 3.2 15.2 1.75 16.9 Q1.55 16.85 1.35 17.05 L1.2 17.05 Q-1.0 15.8 -2.45 14.1 -7.35 8.6 -4.2 0.25 -3.4 -1.9 -2.2 -3.7 -1.3 -5.3 0.0 -6.45 2.3 -8.9 5.55 -10.9 L7.2 -13.0 M9.25 -11.7 L7.45 -12.9 5.8 -10.8 6.3 -10.15 9.25 -11.7 M17.0 6.15 L17.2 4.55 17.0 4.45 15.25 3.4 10.25 -1.7 Q6.7 -6.45 7.15 -10.35 L7.0 -10.25 Q5.3 -6.4 6.9 -0.45 L7.55 1.45 Q8.75 5.1 10.35 7.85 13.5 8.15 17.0 6.15 M11.0 9.95 L11.2 10.05 9.65 7.8 6.55 -0.25 Q5.05 -6.35 6.6 -10.05 L6.4 -10.0 6.25 -9.95 Q3.65 -6.45 3.0 -0.1 L2.9 2.35 2.85 2.4 Q2.6 6.65 3.1 10.45 5.95 12.45 10.6 12.3 L11.4 10.4 11.0 9.95 M5.6 -10.7 L5.6 -10.75 Q2.35 -8.75 0.2 -6.35 L-1.85 -3.8 Q-3.0 -2.0 -3.75 0.15 -6.55 7.9 -1.85 13.05 -0.45 14.55 1.65 15.85 L3.1 14.25 2.95 13.7 3.0 13.75 Q2.65 12.1 2.45 10.15 L2.7 0.1 Q3.4 -6.5 6.05 -10.0 L5.6 -10.7" fill="#856301" fill-rule="evenodd" stroke="none"/>
    <path d="M7.2 -13.0 L5.55 -10.9 Q2.3 -8.9 0.0 -6.45 -1.3 -5.3 -2.2 -3.7 -3.4 -1.9 -4.2 0.25 -7.35 8.6 -2.45 14.1 -1.0 15.8 1.2 17.05 L1.35 17.05 Q1.55 16.85 1.75 16.9 L3.2 15.2 3.55 14.7 3.7 14.15 3.65 13.45 3.5 13.05 3.3 11.8 Q6.2 13.6 10.55 13.15 L10.7 13.15 10.95 12.9 11.75 11.05 M11.0 8.7 Q13.9 8.6 17.25 6.8 L17.35 6.7 17.45 6.6 17.45 6.45 17.65 4.95 17.65 4.6 17.5 4.25 17.2 4.0 17.05 3.9 Q13.9 2.25 10.45 -2.15 6.95 -6.65 7.4 -10.55 L9.35 -11.4 9.4 -11.55 9.5 -11.7 9.4 -11.85 7.55 -12.95 M5.8 -10.8 L7.45 -12.9 9.25 -11.7 M17.0 6.15 L17.2 4.55 17.0 4.45 15.25 3.4 10.25 -1.7 Q6.7 -6.45 7.15 -10.35 M11.0 9.95 L11.4 10.4 10.6 12.3" fill="none" stroke="#544006" stroke-linecap="round" stroke-linejoin="round" stroke-width="0.5"/>
  </g>
</svg>
