<?xml version="1.0" encoding="UTF-8" standalone="no"?>
<svg xmlns:xlink="http://www.w3.org/1999/xlink" height="514.85px" width="186.1px" xmlns="http://www.w3.org/2000/svg">
  <g transform="matrix(1.0, 0.0, 0.0, 1.0, 79.25, 254.35)">
    <path d="M27.7 -249.7 L27.8 -249.7 Q60.0 -247.9 81.8 -229.1 103.65 -210.35 102.25 -185.65 L80.95 200.35 Q79.6 225.05 55.95 241.3 32.1 257.6 -0.05 255.8 L-0.15 255.8 Q-32.35 254.05 -54.1 235.25 -76.0 216.5 -74.65 191.8 -63.9 -1.2 -53.3 -194.15 -52.0 -218.9 -28.2 -235.2 -4.5 -251.45 27.7 -249.7" fill="#416409" fill-rule="evenodd" stroke="none"/>
    <path d="M27.7 -249.7 Q-4.5 -251.45 -28.2 -235.2 -52.0 -218.9 -53.3 -194.15 -63.9 -1.2 -74.65 191.8 -76.0 216.5 -54.1 235.25 -32.35 254.05 -0.15 255.8 L-0.05 255.8 Q32.1 257.6 55.95 241.3 79.6 225.05 80.95 200.35 L102.25 -185.65 Q103.65 -210.35 81.8 -229.1 60.0 -247.9 27.8 -249.7 L27.7 -249.7 Z" fill="none" stroke="#1c1c1c" stroke-linecap="round" stroke-linejoin="round" stroke-width="9.0"/>
    <path d="M0.1 255.65 L0.0 255.65 Q-32.2 253.85 -54.0 235.05 -75.8 216.35 -74.45 191.6 L-53.2 -194.3 Q-51.85 -219.05 -28.05 -235.35 -4.35 -251.6 27.85 -249.8 L27.95 -249.8 Q60.15 -248.0 82.0 -229.25 103.75 -210.45 102.4 -185.7 L81.15 200.2 Q79.8 224.95 56.05 241.15 32.3 257.45 0.1 255.65" fill="#383838" fill-rule="evenodd" stroke="none"/>
    <path d="M60.95 188.15 Q59.7 211.15 37.65 226.25 15.5 241.4 -14.4 239.75 L-14.45 239.75 Q-44.35 238.1 -64.6 220.6 L-70.05 215.5 -69.7 215.85 Q-75.25 204.6 -74.55 191.7 L-53.25 -194.25 Q-52.85 -201.55 -50.55 -208.15 -46.2 -212.6 -40.5 -216.5 -18.45 -231.55 11.45 -229.9 L11.5 -229.9 Q41.4 -228.25 61.75 -210.85 82.0 -193.4 80.7 -170.45 L60.95 188.15" fill="#5f5f5f" fill-rule="evenodd" stroke="none"/>
    <path d="M35.15 -125.5 Q21.5 -111.35 3.3 -112.35 -14.85 -113.35 -26.95 -128.9 -38.95 -144.5 -37.8 -165.45 -36.65 -186.45 -23.0 -200.6 -9.25 -214.75 8.9 -213.75 27.1 -212.75 39.1 -197.2 51.2 -181.6 50.05 -160.6 48.9 -139.65 35.15 -125.5" fill="#339fff" fill-rule="evenodd" stroke="none"/>
    <path d="M24.15 -139.8 Q15.7 -131.05 4.5 -131.7 -6.7 -132.3 -14.15 -141.9 -21.6 -151.55 -20.9 -164.5 -20.2 -177.4 -11.75 -186.15 -3.25 -194.85 7.95 -194.25 19.15 -193.6 26.55 -184.05 33.95 -174.4 33.25 -161.5 32.55 -148.55 24.15 -139.8" fill="#f73600" fill-rule="evenodd" stroke="none"/>
    <path d="M17.05 203.5 Q3.4 217.65 -14.8 216.65 -32.95 215.65 -45.05 200.1 -57.05 184.5 -55.9 163.55 -54.75 142.55 -41.1 128.4 -27.35 114.25 -9.2 115.25 9.0 116.25 21.0 131.8 33.1 147.4 31.95 168.4 30.8 189.35 17.05 203.5" fill="#339fff" fill-rule="evenodd" stroke="none"/>
    <path d="M6.05 189.25 Q-2.4 198.0 -13.6 197.35 -24.8 196.75 -32.25 187.15 -39.7 177.5 -39.0 164.55 -38.3 151.65 -29.85 142.9 -21.35 134.2 -10.15 134.8 1.05 135.45 8.45 145.0 15.85 154.65 15.15 167.55 14.45 180.5 6.05 189.25" fill="#f73600" fill-rule="evenodd" stroke="none"/>
    <path d="M-57.85 -111.05 L97.75 -102.9 97.5 -97.9 97.85 -97.85 -58.7 -106.1 -58.1 -106.05 -57.85 -111.05 M86.0 110.85 L85.7 115.8 -69.95 107.65 -69.65 102.65 86.0 110.85" fill="#383838" fill-rule="evenodd" stroke="none"/>
    <path d="M-47.2 -94.25 Q-46.6 -96.8 -44.35 -98.15 -42.2 -99.45 -39.65 -98.8 -37.15 -98.25 -35.8 -96.05 -34.45 -93.8 -35.1 -91.3 -35.75 -88.75 -37.9 -87.45 -40.15 -86.1 -42.65 -86.75 -45.15 -87.3 -46.5 -89.55 -47.85 -91.75 -47.2 -94.25 M55.3 -87.0 Q54.7 -84.5 52.5 -83.2 50.3 -81.85 47.75 -82.4 45.3 -83.05 43.95 -85.25 42.6 -87.5 43.2 -89.95 43.85 -92.5 46.05 -93.85 48.25 -95.15 50.75 -94.55 53.3 -93.95 54.65 -91.7 56.0 -89.5 55.3 -87.0 M38.45 100.1 Q35.95 99.55 34.6 97.3 33.25 95.1 33.9 92.6 34.45 90.05 36.7 88.7 38.85 87.4 41.45 88.0 43.95 88.6 45.3 90.8 46.65 93.05 46.0 95.5 45.35 98.1 43.2 99.4 40.95 100.75 38.45 100.1 M-55.8 93.05 Q-57.15 90.8 -56.6 88.3 -55.95 85.8 -53.75 84.45 -51.55 83.1 -49.0 83.7 -46.5 84.3 -45.15 86.55 -43.8 88.75 -44.4 91.25 -45.05 93.8 -47.25 95.15 -49.45 96.5 -52.0 95.85 -54.45 95.25 -55.8 93.05" fill="#383838" fill-rule="evenodd" stroke="none"/>
    <path d="M-59.85 -75.15 L-60.95 -55.2 94.7 -47.85 95.8 -67.85 96.2 -67.85 -60.6 -75.25 -59.85 -75.15 M-59.1 -88.55 L96.5 -81.25 97.6 -101.2 -58.85 -108.6 -58.05 -108.5 -59.1 -88.55 M88.7 60.2 L-66.95 52.85 -68.05 72.8 87.6 80.15 88.7 60.2 M-69.9 106.15 L85.75 113.5 86.9 93.5 -69.25 86.15 -68.75 86.15 -69.9 106.15" fill="#f73600" fill-rule="evenodd" stroke="none"/>
    <path d="M-59.95 -75.25 L-60.6 -75.25 -59.95 -75.2 -59.95 -75.25 M-58.1 -108.5 L-58.15 -108.55 -58.85 -108.6 -58.1 -108.5 M85.75 113.5 L86.9 93.5 66.0 92.55 64.9 112.55 85.75 113.5 M76.75 -102.2 L75.6 -82.25 96.5 -81.25 97.6 -101.2 76.75 -102.2 M96.2 -67.85 L74.9 -68.9 73.8 -48.9 94.7 -47.85 95.8 -67.85 96.2 -67.85 M88.7 60.2 L67.9 59.15 66.8 79.2 87.6 80.15 88.7 60.2" fill="#ad0303" fill-rule="evenodd" stroke="none"/>
    <path d="M0.4 -127.65 Q2.6 -128.95 5.15 -128.3 7.65 -127.7 9.0 -125.5 10.35 -123.3 9.7 -120.8 9.05 -118.25 6.85 -116.95 4.65 -115.6 2.1 -116.25 -0.35 -116.85 -1.7 -119.05 -3.05 -121.25 -2.45 -123.75 -1.8 -126.3 0.4 -127.65 M-15.95 130.2 Q-18.4 129.55 -19.75 127.3 -21.1 125.1 -20.5 122.65 -19.9 120.05 -17.65 118.7 -15.5 117.4 -12.9 118.05 -10.45 118.65 -9.1 120.85 -7.75 123.1 -8.35 125.6 -9.0 128.1 -11.15 129.4 -13.4 130.75 -15.95 130.2" fill="#0091e0" fill-rule="evenodd" stroke="none"/>
    <path d="M-35.15 -91.3 Q-34.5 -93.8 -35.85 -96.05 -37.2 -98.25 -39.7 -98.8 -42.2 -99.45 -44.4 -98.15 -46.6 -96.8 -47.25 -94.25 -47.9 -91.75 -46.55 -89.55 L-45.2 -87.9 -37.75 -87.55 Q-35.75 -88.9 -35.15 -91.3 M45.25 -83.65 L52.7 -83.35 Q54.7 -84.6 55.3 -87.0 55.95 -89.5 54.6 -91.7 53.25 -93.95 50.75 -94.55 48.2 -95.15 46.0 -93.85 43.8 -92.5 43.15 -90.0 42.55 -87.5 43.9 -85.25 44.45 -84.35 45.25 -83.65 M-58.0 -108.55 L-58.15 -106.05 97.45 -97.85 97.5 -98.8 97.5 -98.25 97.6 -101.2 -58.0 -108.55 M-69.9 106.15 L85.75 113.5 85.9 110.9 85.95 110.85 -69.65 102.65 -69.9 106.15 M43.15 99.4 Q45.35 98.05 45.95 95.5 46.5 93.45 45.65 91.6 L34.4 91.1 34.75 90.55 Q34.1 91.4 33.85 92.6 33.2 95.1 34.55 97.3 35.9 99.55 38.4 100.1 40.95 100.75 43.15 99.4 M-52.0 95.85 Q-49.5 96.5 -47.25 95.15 -45.1 93.8 -44.45 91.25 -43.95 89.15 -44.75 87.25 L-56.0 86.75 -55.7 86.25 Q-56.3 87.15 -56.6 88.3 -57.2 90.8 -55.85 93.05 -54.5 95.25 -52.0 95.85" fill="#ad0303" fill-rule="evenodd" stroke="none"/>
  </g>
</svg>
