<?xml version="1.0" encoding="UTF-8" standalone="no"?>
<svg xmlns:xlink="http://www.w3.org/1999/xlink" height="56.8px" width="24.55px" xmlns="http://www.w3.org/2000/svg">
  <g transform="matrix(1.0, 0.0, 0.0, 1.0, 12.45, 32.4)">
    <path d="M-4.25 -9.8 L2.85 -9.8 -0.8 -32.4 -4.25 -9.8" fill="#000000" fill-rule="evenodd" stroke="none"/>
    <path d="M-6.15 23.4 L-3.2 23.2 -2.2 23.05 -0.85 12.75 -10.15 14.85 -11.1 17.25 Q-11.8 19.9 -11.05 21.65 -10.35 23.35 -6.15 23.4" fill="#ffcc33" fill-rule="evenodd" stroke="none"/>
    <path d="M-6.15 23.4 L-3.2 23.2 -2.2 23.05 -0.85 12.75 -10.15 14.85 -11.1 17.25 Q-11.8 19.9 -11.05 21.65 -10.35 23.35 -6.15 23.4 Z" fill="none" stroke="#856301" stroke-linecap="round" stroke-linejoin="round" stroke-width="2.0"/>
    <path d="M5.85 23.35 L2.8 23.15 1.85 23.0 0.55 12.7 9.85 14.8 Q10.4 15.8 10.75 17.2 11.5 19.85 10.7 21.6 9.95 23.3 5.85 23.35" fill="#ffcc33" fill-rule="evenodd" stroke="none"/>
    <path d="M5.85 23.35 L2.8 23.15 1.85 23.0 0.55 12.7 9.85 14.8 Q10.4 15.8 10.75 17.2 11.5 19.85 10.7 21.6 9.95 23.3 5.85 23.35 Z" fill="none" stroke="#856301" stroke-linecap="round" stroke-linejoin="round" stroke-width="2.0"/>
    <path d="M1.05 6.25 L-1.25 6.25 -3.1 23.85 2.85 23.85 1.05 6.25" fill="#000000" fill-rule="evenodd" stroke="none"/>
    <path d="M3.8 0.75 Q6.4 -4.35 6.4 -7.05 6.4 -20.0 -0.15 -20.0 -6.7 -20.0 -6.7 -7.05 -6.7 -4.35 -4.15 0.75 -1.5 5.95 -0.15 5.95 1.15 5.95 3.8 0.75" fill="#333333" fill-rule="evenodd" stroke="none"/>
    <path d="M3.8 0.75 Q6.4 -4.35 6.4 -7.05 6.4 -20.0 -0.15 -20.0 -6.7 -20.0 -6.7 -7.05 -6.7 -4.35 -4.15 0.75 -1.5 5.95 -0.15 5.95 1.15 5.95 3.8 0.75 Z" fill="none" stroke="#000000" stroke-linecap="round" stroke-linejoin="round" stroke-width="2.0"/>
    <path d="M-4.25 -9.8 L2.85 -9.8 -0.8 -32.4 -4.25 -9.8" fill="#000000" fill-rule="evenodd" stroke="none"/>
    <path d="M-6.15 23.4 L-3.2 23.2 -2.2 23.05 -0.85 12.75 -10.15 14.85 -11.1 17.25 Q-11.8 19.9 -11.05 21.65 -10.35 23.35 -6.15 23.4" fill="#ffcc33" fill-rule="evenodd" stroke="none"/>
    <path d="M-6.15 23.4 L-3.2 23.2 -2.2 23.05 -0.85 12.75 -10.15 14.85 -11.1 17.25 Q-11.8 19.9 -11.05 21.65 -10.35 23.35 -6.15 23.4 Z" fill="none" stroke="#856301" stroke-linecap="round" stroke-linejoin="round" stroke-width="2.0"/>
    <path d="M5.85 23.35 L2.8 23.15 1.85 23.0 0.55 12.7 9.85 14.8 Q10.4 15.8 10.75 17.2 11.5 19.85 10.7 21.6 9.95 23.3 5.85 23.35" fill="#ffcc33" fill-rule="evenodd" stroke="none"/>
    <path d="M5.85 23.35 L2.8 23.15 1.85 23.0 0.55 12.7 9.85 14.8 Q10.4 15.8 10.75 17.2 11.5 19.85 10.7 21.6 9.95 23.3 5.85 23.35 Z" fill="none" stroke="#856301" stroke-linecap="round" stroke-linejoin="round" stroke-width="2.0"/>
    <path d="M1.05 6.25 L-1.25 6.25 -3.1 23.85 2.85 23.85 1.05 6.25" fill="#000000" fill-rule="evenodd" stroke="none"/>
    <path d="M3.8 0.75 Q6.4 -4.35 6.4 -7.05 6.4 -20.0 -0.15 -20.0 -6.7 -20.0 -6.7 -7.05 -6.7 -4.35 -4.15 0.75 -1.5 5.95 -0.15 5.95 1.15 5.95 3.8 0.75" fill="#333333" fill-rule="evenodd" stroke="none"/>
    <path d="M3.8 0.75 Q6.4 -4.35 6.4 -7.05 6.4 -20.0 -0.15 -20.0 -6.7 -20.0 -6.7 -7.05 -6.7 -4.35 -4.15 0.75 -1.5 5.95 -0.15 5.95 1.15 5.95 3.8 0.75 Z" fill="none" stroke="#000000" stroke-linecap="round" stroke-linejoin="round" stroke-width="2.0"/>
    <path d="M-4.25 -9.8 L2.85 -9.8 -0.8 -32.4 -4.25 -9.8" fill="#000000" fill-rule="evenodd" stroke="none"/>
    <path d="M-6.15 23.4 L-3.2 23.2 -2.2 23.05 -0.85 12.75 -10.15 14.85 -11.1 17.25 Q-11.8 19.9 -11.05 21.65 -10.35 23.35 -6.15 23.4" fill="#ffcc33" fill-rule="evenodd" stroke="none"/>
    <path d="M-6.15 23.4 L-3.2 23.2 -2.2 23.05 -0.85 12.75 -10.15 14.85 -11.1 17.25 Q-11.8 19.9 -11.05 21.65 -10.35 23.35 -6.15 23.4 Z" fill="none" stroke="#856301" stroke-linecap="round" stroke-linejoin="round" stroke-width="2.0"/>
    <path d="M5.85 23.35 L2.8 23.15 1.85 23.0 0.55 12.7 9.85 14.8 Q10.4 15.8 10.75 17.2 11.5 19.85 10.7 21.6 9.95 23.3 5.85 23.35" fill="#ffcc33" fill-rule="evenodd" stroke="none"/>
    <path d="M5.85 23.35 L2.8 23.15 1.85 23.0 0.55 12.7 9.85 14.8 Q10.4 15.8 10.75 17.2 11.5 19.85 10.7 21.6 9.95 23.3 5.85 23.35 Z" fill="none" stroke="#856301" stroke-linecap="round" stroke-linejoin="round" stroke-width="2.0"/>
    <path d="M1.05 6.25 L-1.25 6.25 -3.1 23.85 2.85 23.85 1.05 6.25" fill="#000000" fill-rule="evenodd" stroke="none"/>
    <path d="M3.8 0.75 Q6.4 -4.35 6.4 -7.05 6.4 -20.0 -0.15 -20.0 -6.7 -20.0 -6.7 -7.05 -6.7 -4.35 -4.15 0.75 -1.5 5.95 -0.15 5.95 1.15 5.95 3.8 0.75" fill="#333333" fill-rule="evenodd" stroke="none"/>
    <path d="M3.8 0.75 Q6.4 -4.35 6.4 -7.05 6.4 -20.0 -0.15 -20.0 -6.7 -20.0 -6.7 -7.05 -6.7 -4.35 -4.15 0.75 -1.5 5.95 -0.15 5.95 1.15 5.95 3.8 0.75 Z" fill="none" stroke="#000000" stroke-linecap="round" stroke-linejoin="round" stroke-width="2.0"/>
    <path d="M-4.25 -9.8 L2.85 -9.8 -0.8 -32.4 -4.25 -9.8" fill="#000000" fill-rule="evenodd" stroke="none"/>
    <path d="M-6.15 23.4 L-3.2 23.2 -2.2 23.05 -0.85 12.75 -10.15 14.85 -11.1 17.25 Q-11.8 19.9 -11.05 21.65 -10.35 23.35 -6.15 23.4" fill="#ffcc33" fill-rule="evenodd" stroke="none"/>
    <path d="M-6.15 23.4 L-3.2 23.2 -2.2 23.05 -0.85 12.75 -10.15 14.85 -11.1 17.25 Q-11.8 19.9 -11.05 21.65 -10.35 23.35 -6.15 23.4 Z" fill="none" stroke="#856301" stroke-linecap="round" stroke-linejoin="round" stroke-width="2.0"/>
    <path d="M5.85 23.35 L2.8 23.15 1.85 23.0 0.55 12.7 9.85 14.8 Q10.4 15.8 10.75 17.2 11.5 19.85 10.7 21.6 9.95 23.3 5.85 23.35" fill="#ffcc33" fill-rule="evenodd" stroke="none"/>
    <path d="M5.85 23.35 L2.8 23.15 1.85 23.0 0.55 12.7 9.85 14.8 Q10.4 15.8 10.75 17.2 11.5 19.85 10.7 21.6 9.95 23.3 5.85 23.35 Z" fill="none" stroke="#856301" stroke-linecap="round" stroke-linejoin="round" stroke-width="2.0"/>
    <path d="M1.05 6.25 L-1.25 6.25 -3.1 23.85 2.85 23.85 1.05 6.25" fill="#000000" fill-rule="evenodd" stroke="none"/>
    <path d="M3.8 0.75 Q6.4 -4.35 6.4 -7.05 6.4 -20.0 -0.15 -20.0 -6.7 -20.0 -6.7 -7.05 -6.7 -4.35 -4.15 0.75 -1.5 5.95 -0.15 5.95 1.15 5.95 3.8 0.75" fill="#333333" fill-rule="evenodd" stroke="none"/>
    <path d="M3.8 0.75 Q6.4 -4.35 6.4 -7.05 6.4 -20.0 -0.15 -20.0 -6.7 -20.0 -6.7 -7.05 -6.7 -4.35 -4.15 0.75 -1.5 5.95 -0.15 5.95 1.15 5.95 3.8 0.75 Z" fill="none" stroke="#000000" stroke-linecap="round" stroke-linejoin="round" stroke-width="2.0"/>
    <path d="M-4.25 -9.8 L2.85 -9.8 -0.8 -32.4 -4.25 -9.8" fill="#000000" fill-rule="evenodd" stroke="none"/>
    <path d="M-6.15 23.4 L-3.2 23.2 -2.2 23.05 -0.85 12.75 -10.15 14.85 -11.1 17.25 Q-11.8 19.9 -11.05 21.65 -10.35 23.35 -6.15 23.4" fill="#ffcc33" fill-rule="evenodd" stroke="none"/>
    <path d="M-6.15 23.4 L-3.2 23.2 -2.2 23.05 -0.85 12.75 -10.15 14.85 -11.1 17.25 Q-11.8 19.9 -11.05 21.65 -10.35 23.35 -6.15 23.4 Z" fill="none" stroke="#856301" stroke-linecap="round" stroke-linejoin="round" stroke-width="2.0"/>
    <path d="M5.85 23.35 L2.8 23.15 1.85 23.0 0.55 12.7 9.85 14.8 Q10.4 15.8 10.75 17.2 11.5 19.85 10.7 21.6 9.95 23.3 5.85 23.35" fill="#ffcc33" fill-rule="evenodd" stroke="none"/>
    <path d="M5.85 23.35 L2.8 23.15 1.85 23.0 0.55 12.7 9.85 14.8 Q10.4 15.8 10.75 17.2 11.5 19.85 10.7 21.6 9.95 23.3 5.85 23.35 Z" fill="none" stroke="#856301" stroke-linecap="round" stroke-linejoin="round" stroke-width="2.0"/>
    <path d="M1.05 6.25 L-1.25 6.25 -3.1 23.85 2.85 23.85 1.05 6.25" fill="#000000" fill-rule="evenodd" stroke="none"/>
    <path d="M3.8 0.75 Q6.4 -4.35 6.4 -7.05 6.4 -20.0 -0.15 -20.0 -6.7 -20.0 -6.7 -7.05 -6.7 -4.35 -4.15 0.75 -1.5 5.95 -0.15 5.95 1.15 5.95 3.8 0.75" fill="#333333" fill-rule="evenodd" stroke="none"/>
    <path d="M3.8 0.75 Q6.4 -4.35 6.4 -7.05 6.4 -20.0 -0.15 -20.0 -6.7 -20.0 -6.7 -7.05 -6.7 -4.35 -4.15 0.75 -1.5 5.95 -0.15 5.95 1.15 5.95 3.8 0.75 Z" fill="none" stroke="#000000" stroke-linecap="round" stroke-linejoin="round" stroke-width="2.0"/>
    <path d="M-4.25 -9.8 L2.85 -9.8 -0.8 -32.4 -4.25 -9.8" fill="#000000" fill-rule="evenodd" stroke="none"/>
    <path d="M-6.15 23.4 L-3.2 23.2 -2.2 23.05 -0.85 12.75 -10.15 14.85 -11.1 17.25 Q-11.8 19.9 -11.05 21.65 -10.35 23.35 -6.15 23.4" fill="#ffcc33" fill-rule="evenodd" stroke="none"/>
    <path d="M-6.15 23.4 L-3.2 23.2 -2.2 23.05 -0.85 12.75 -10.15 14.85 -11.1 17.25 Q-11.8 19.9 -11.05 21.65 -10.35 23.35 -6.15 23.4 Z" fill="none" stroke="#856301" stroke-linecap="round" stroke-linejoin="round" stroke-width="2.0"/>
    <path d="M5.85 23.35 L2.8 23.15 1.85 23.0 0.55 12.7 9.85 14.8 Q10.4 15.8 10.75 17.2 11.5 19.85 10.7 21.6 9.95 23.3 5.85 23.35" fill="#ffcc33" fill-rule="evenodd" stroke="none"/>
    <path d="M5.85 23.35 L2.8 23.15 1.85 23.0 0.55 12.7 9.85 14.8 Q10.4 15.8 10.75 17.2 11.5 19.85 10.7 21.6 9.95 23.3 5.85 23.35 Z" fill="none" stroke="#856301" stroke-linecap="round" stroke-linejoin="round" stroke-width="2.0"/>
    <path d="M1.05 6.25 L-1.25 6.25 -3.1 23.85 2.85 23.85 1.05 6.25" fill="#000000" fill-rule="evenodd" stroke="none"/>
    <path d="M3.8 0.75 Q6.4 -4.35 6.4 -7.05 6.4 -20.0 -0.15 -20.0 -6.7 -20.0 -6.7 -7.05 -6.7 -4.35 -4.15 0.75 -1.5 5.95 -0.15 5.95 1.15 5.95 3.8 0.75" fill="#333333" fill-rule="evenodd" stroke="none"/>
    <path d="M3.8 0.75 Q6.4 -4.35 6.4 -7.05 6.4 -20.0 -0.15 -20.0 -6.7 -20.0 -6.7 -7.05 -6.7 -4.35 -4.15 0.75 -1.5 5.95 -0.15 5.95 1.15 5.95 3.8 0.75 Z" fill="none" stroke="#000000" stroke-linecap="round" stroke-linejoin="round" stroke-width="2.0"/>
    <path d="M-4.25 -9.8 L2.85 -9.8 -0.8 -32.4 -4.25 -9.8" fill="#000000" fill-rule="evenodd" stroke="none"/>
    <path d="M-6.15 23.4 L-3.2 23.2 -2.2 23.05 -0.85 12.75 -10.15 14.85 -11.1 17.25 Q-11.8 19.9 -11.05 21.65 -10.35 23.35 -6.15 23.4" fill="#ffcc33" fill-rule="evenodd" stroke="none"/>
    <path d="M-6.15 23.4 L-3.2 23.2 -2.2 23.05 -0.85 12.75 -10.15 14.85 -11.1 17.25 Q-11.8 19.9 -11.05 21.65 -10.35 23.35 -6.15 23.4 Z" fill="none" stroke="#856301" stroke-linecap="round" stroke-linejoin="round" stroke-width="2.0"/>
    <path d="M5.85 23.35 L2.8 23.15 1.85 23.0 0.55 12.7 9.85 14.8 Q10.4 15.8 10.75 17.2 11.5 19.85 10.7 21.6 9.95 23.3 5.85 23.35" fill="#ffcc33" fill-rule="evenodd" stroke="none"/>
    <path d="M5.85 23.35 L2.8 23.15 1.85 23.0 0.55 12.7 9.85 14.8 Q10.4 15.8 10.75 17.2 11.5 19.85 10.7 21.6 9.95 23.3 5.85 23.35 Z" fill="none" stroke="#856301" stroke-linecap="round" stroke-linejoin="round" stroke-width="2.0"/>
    <path d="M1.05 6.25 L-1.25 6.25 -3.1 23.85 2.85 23.85 1.05 6.25" fill="#000000" fill-rule="evenodd" stroke="none"/>
    <path d="M3.8 0.75 Q6.4 -4.35 6.4 -7.05 6.4 -20.0 -0.15 -20.0 -6.7 -20.0 -6.7 -7.05 -6.7 -4.35 -4.15 0.75 -1.5 5.95 -0.15 5.95 1.15 5.95 3.8 0.75" fill="#333333" fill-rule="evenodd" stroke="none"/>
    <path d="M3.8 0.75 Q6.4 -4.35 6.4 -7.05 6.4 -20.0 -0.15 -20.0 -6.7 -20.0 -6.7 -7.05 -6.7 -4.35 -4.15 0.75 -1.5 5.95 -0.15 5.95 1.15 5.95 3.8 0.75 Z" fill="none" stroke="#000000" stroke-linecap="round" stroke-linejoin="round" stroke-width="2.0"/>
    <path d="M-4.25 -9.8 L2.85 -9.8 -0.8 -32.4 -4.25 -9.8" fill="#000000" fill-rule="evenodd" stroke="none"/>
    <path d="M-6.15 23.4 L-3.2 23.2 -2.2 23.05 -0.85 12.75 -10.15 14.85 -11.1 17.25 Q-11.8 19.9 -11.05 21.65 -10.35 23.35 -6.15 23.4" fill="#ffcc33" fill-rule="evenodd" stroke="none"/>
    <path d="M-6.15 23.4 L-3.2 23.2 -2.2 23.05 -0.85 12.75 -10.15 14.85 -11.1 17.25 Q-11.8 19.9 -11.05 21.65 -10.35 23.35 -6.15 23.4 Z" fill="none" stroke="#856301" stroke-linecap="round" stroke-linejoin="round" stroke-width="2.0"/>
    <path d="M5.85 23.35 L2.8 23.15 1.85 23.0 0.55 12.7 9.85 14.8 Q10.4 15.8 10.75 17.2 11.5 19.85 10.7 21.6 9.95 23.3 5.85 23.35" fill="#ffcc33" fill-rule="evenodd" stroke="none"/>
    <path d="M5.85 23.35 L2.8 23.15 1.85 23.0 0.55 12.7 9.85 14.8 Q10.4 15.8 10.75 17.2 11.5 19.85 10.7 21.6 9.95 23.3 5.85 23.35 Z" fill="none" stroke="#856301" stroke-linecap="round" stroke-linejoin="round" stroke-width="2.0"/>
    <path d="M1.05 6.25 L-1.25 6.25 -3.1 23.85 2.85 23.85 1.05 6.25" fill="#000000" fill-rule="evenodd" stroke="none"/>
    <path d="M3.8 0.75 Q6.4 -4.35 6.4 -7.05 6.4 -20.0 -0.15 -20.0 -6.7 -20.0 -6.7 -7.05 -6.7 -4.35 -4.15 0.75 -1.5 5.95 -0.15 5.95 1.15 5.95 3.8 0.75" fill="#333333" fill-rule="evenodd" stroke="none"/>
    <path d="M3.8 0.75 Q6.4 -4.35 6.4 -7.05 6.4 -20.0 -0.15 -20.0 -6.7 -20.0 -6.7 -7.05 -6.7 -4.35 -4.15 0.75 -1.5 5.95 -0.15 5.95 1.15 5.95 3.8 0.75 Z" fill="none" stroke="#000000" stroke-linecap="round" stroke-linejoin="round" stroke-width="2.0"/>
  </g>
</svg>
