<?xml version="1.0" encoding="UTF-8" standalone="no"?>
<svg xmlns:xlink="http://www.w3.org/1999/xlink" height="576.05px" width="389.25px" xmlns="http://www.w3.org/2000/svg">
  <g transform="matrix(1.0, 0.0, 0.0, 1.0, 253.1, 399.45)">
    <path d="M-14.4 -154.9 Q1.85 -146.75 1.85 -135.25 1.85 -123.75 -14.4 -115.6 -30.6 -107.45 -53.5 -107.45 -76.35 -107.45 -92.6 -115.6 -108.8 -123.75 -108.8 -135.25 -108.8 -146.75 -92.6 -154.9 -76.35 -163.05 -53.5 -163.05 -30.6 -163.05 -14.4 -154.9" fill="#679112" fill-rule="evenodd" stroke="none"/>
    <path d="M-14.4 -154.9 Q1.85 -146.75 1.85 -135.25 1.85 -123.75 -14.4 -115.6 -30.6 -107.45 -53.5 -107.45 -76.35 -107.45 -92.6 -115.6 -108.8 -123.75 -108.8 -135.25 -108.8 -146.75 -92.6 -154.9 -76.35 -163.05 -53.5 -163.05 -30.6 -163.05 -14.4 -154.9 Z" fill="none" stroke="#5d3c16" stroke-linecap="round" stroke-linejoin="round" stroke-width="9.0"/>
    <path d="M53.55 93.65 L53.55 -29.6 59.2 -29.6 59.2 -40.35 59.2 -29.6 53.55 -29.6 53.55 93.65 Q45.25 86.6 24.45 80.95 -1.55 73.85 -35.65 72.1 L-35.65 135.3 Q-50.85 135.85 -59.2 135.85 -108.25 135.85 -142.9 126.45 -177.35 117.1 -177.55 103.85 L-177.55 103.7 -177.55 -54.5 59.2 -54.5 59.2 -40.35 71.3 -40.35 71.3 103.25 71.65 103.25 59.2 103.8 59.15 103.8 59.2 103.8 59.2 103.85 59.15 103.85 59.15 103.8 54.45 103.85 53.55 103.85 53.55 93.65 M53.55 -29.6 L-35.65 -29.6 -35.65 72.1 -35.65 -29.6 53.55 -29.6" fill="#5d3c16" fill-rule="evenodd" stroke="none"/>
    <path d="M59.2 -40.35 L59.2 -29.6 53.55 -29.6 53.55 93.65 53.55 103.85 54.45 103.85 59.15 103.8 59.2 103.8 71.65 103.25 71.3 103.25 71.3 -40.35 59.2 -40.35 59.2 -54.5 -177.55 -54.5 -177.55 103.7 -177.55 103.85 Q-177.35 117.1 -142.9 126.45 -108.25 135.85 -59.2 135.85 -50.85 135.85 -35.65 135.3 L-35.65 72.1 -35.65 -29.6 53.55 -29.6 M59.2 103.8 L59.2 103.85 59.15 103.85 59.15 103.8 M53.55 93.65 Q45.25 86.6 24.45 80.95 -1.55 73.85 -35.65 72.1" fill="none" stroke="#5d3c16" stroke-linecap="round" stroke-linejoin="round" stroke-width="9.0"/>
    <path d="M87.7 -62.4 Q87.0 -61.3 85.75 -60.6 117.4 -26.85 108.9 -21.1 104.0 -17.75 91.1 -27.45 104.5 -0.55 94.45 3.75 83.0 8.7 60.1 -25.05 72.35 20.15 58.55 22.65 48.45 24.45 37.9 1.65 44.0 33.9 29.2 36.75 14.3 39.6 0.75 8.2 4.95 47.6 -11.6 49.05 -31.15 50.7 -41.3 -3.5 -44.15 45.35 -62.55 46.05 -80.1 46.75 -81.1 3.05 -90.0 37.8 -105.7 36.75 -120.5 35.75 -119.4 3.95 -132.45 28.05 -145.5 25.1 -160.95 21.7 -152.0 -13.75 -168.15 12.3 -180.9 8.05 -193.0 4.1 -184.2 -21.85 -201.35 -6.3 -207.95 -10.6 -216.85 -16.3 -189.9 -46.9 L-191.8 -48.35 Q-200.45 -57.9 -159.05 -84.85 -160.2 -85.35 -160.95 -86.25 -167.5 -94.45 -124.05 -117.25 -105.8 -126.8 -86.55 -135.35 L-80.1 -141.2 -73.5 -136.8 -71.3 -136.1 -71.2 -136.55 -47.55 -136.2 Q-47.4 -135.15 -47.4 -134.1 L-35.4 -136.2 -34.1 -133.5 -21.8 -138.55 -19.15 -135.15 -14.4 -139.1 -3.7 -131.4 Q10.45 -124.9 23.9 -117.6 58.95 -98.7 56.5 -90.15 93.85 -71.4 87.7 -62.4" fill="#ffffff" fill-rule="evenodd" stroke="none"/>
    <path d="M87.7 -62.4 Q93.85 -71.4 56.5 -90.15 58.95 -98.7 23.9 -117.6 10.45 -124.9 -3.7 -131.4 L-14.4 -139.1 -19.15 -135.15 -21.8 -138.55 -34.1 -133.5 -35.4 -136.2 -47.4 -134.1 Q-47.4 -135.15 -47.55 -136.2 L-71.2 -136.55 -71.3 -136.1 -73.5 -136.8 -80.1 -141.2 -86.55 -135.35 Q-105.8 -126.8 -124.05 -117.25 -167.5 -94.45 -160.95 -86.25 -160.2 -85.35 -159.05 -84.85 -200.45 -57.9 -191.8 -48.35 L-189.9 -46.9 Q-216.85 -16.3 -207.95 -10.6 -201.35 -6.3 -184.2 -21.85 -193.0 4.1 -180.9 8.05 -168.15 12.3 -152.0 -13.75 -160.95 21.7 -145.5 25.1 -132.45 28.05 -119.4 3.95 -120.5 35.75 -105.7 36.75 -90.0 37.8 -81.1 3.05 -80.1 46.75 -62.55 46.05 -44.15 45.35 -41.3 -3.5 -31.15 50.7 -11.6 49.05 4.95 47.6 0.75 8.2 14.3 39.6 29.2 36.75 44.0 33.9 37.9 1.65 48.45 24.45 58.55 22.65 72.35 20.15 60.1 -25.05 83.0 8.7 94.45 3.75 104.5 -0.55 91.1 -27.45 104.0 -17.75 108.9 -21.1 117.4 -26.85 85.75 -60.6 87.0 -61.3 87.7 -62.4 Z" fill="none" stroke="#5d3c16" stroke-linecap="round" stroke-linejoin="round" stroke-width="9.0"/>
    <path d="M-96.3 -194.85 Q-94.65 -198.55 -88.05 -198.45 -80.8 -198.35 -75.4 -194.05 -74.25 -201.35 -67.45 -205.0 -56.95 -210.55 -51.95 -196.9 -50.25 -204.6 -42.5 -207.45 -31.7 -211.45 -27.85 -198.4 -24.4 -201.55 -19.3 -202.85 -7.9 -205.65 -8.45 -193.2 -2.8 -197.35 3.7 -197.6 16.55 -198.1 5.15 -181.5 13.0 -179.2 -0.5 -159.85 -8.7 -148.2 -19.8 -136.25 L-23.4 -136.65 -28.2 -131.35 -36.95 -133.15 Q-39.45 -129.5 -42.3 -125.95 L-51.55 -128.75 -52.9 -126.65 -64.5 -128.5 -65.05 -132.85 -75.65 -133.6 -77.15 -136.75 -84.35 -135.5 Q-96.15 -146.85 -105.05 -158.05 -122.8 -180.4 -107.9 -179.85 L-107.7 -179.85 Q-121.75 -200.9 -107.65 -199.5 -101.55 -198.9 -96.3 -194.85" fill="#ffffff" fill-rule="evenodd" stroke="none"/>
    <path d="M-96.3 -194.85 Q-94.65 -198.55 -88.05 -198.45 -80.8 -198.35 -75.4 -194.05 -74.25 -201.35 -67.45 -205.0 -56.95 -210.55 -51.95 -196.9 -50.25 -204.6 -42.5 -207.45 -31.7 -211.45 -27.85 -198.4 -24.4 -201.55 -19.3 -202.85 -7.9 -205.65 -8.45 -193.2 -2.8 -197.35 3.7 -197.6 16.55 -198.1 5.15 -181.5 13.0 -179.2 -0.5 -159.85 -8.7 -148.2 -19.8 -136.25 L-23.4 -136.65 -28.2 -131.35 -36.95 -133.15 Q-39.45 -129.5 -42.3 -125.95 L-51.55 -128.75 -52.9 -126.65 -64.5 -128.5 -65.05 -132.85 -75.65 -133.6 -77.15 -136.75 -84.35 -135.5 Q-96.15 -146.85 -105.05 -158.05 -122.8 -180.4 -107.9 -179.85 L-107.7 -179.85 Q-121.75 -200.9 -107.65 -199.5 -101.55 -198.9 -96.3 -194.85 Z" fill="none" stroke="#5d3c16" stroke-linecap="round" stroke-linejoin="round" stroke-width="9.0"/>
    <path d="M-14.4 -154.9 Q1.85 -146.75 1.85 -135.25 1.85 -123.75 -14.4 -115.6 -30.6 -107.45 -53.5 -107.45 -76.35 -107.45 -92.6 -115.6 -108.8 -123.75 -108.8 -135.25 -108.8 -146.75 -92.6 -154.9 -76.35 -163.05 -53.5 -163.05 -30.6 -163.05 -14.4 -154.9" fill="#679112" fill-rule="evenodd" stroke="none"/>
    <path d="M114.25 123.25 L112.0 119.05 115.15 114.65 125.2 114.45 131.65 120.2 129.3 132.6 124.2 135.65 118.1 121.4 114.25 123.25 118.1 121.4 124.2 135.65 129.65 148.35 124.7 154.3 110.35 153.35 107.45 150.35 113.5 157.75 111.9 166.1 81.15 172.1 78.85 161.6 71.95 166.75 58.2 166.05 53.95 160.4 55.8 157.35 41.65 156.6 31.05 146.7 34.6 135.4 28.8 132.5 25.55 120.25 31.65 114.15 41.7 113.6 45.1 117.75 41.8 125.2 51.35 120.95 63.0 145.65 67.45 138.4 77.9 144.45 80.0 155.1 89.45 142.2 101.9 144.65 101.75 144.4 106.6 126.95 114.25 123.25 M63.0 145.65 L55.8 157.35 63.0 145.65 M80.0 155.1 L78.0 157.75 78.85 161.6 78.0 157.75 80.0 155.1 M107.45 150.35 L102.9 144.8 101.9 144.65 102.9 144.8 107.45 150.35 M34.6 135.4 L37.15 127.25 Q39.45 126.2 41.8 125.2 39.45 126.2 37.15 127.25 L34.6 135.4" fill="#50505f" fill-rule="evenodd" stroke="none"/>
    <path d="M124.2 135.65 L129.3 132.6 131.65 120.2 125.2 114.45 115.15 114.65 112.0 119.05 114.25 123.25 118.1 121.4 124.2 135.65 129.65 148.35 124.7 154.3 110.35 153.35 107.45 150.35 113.5 157.75 111.9 166.1 81.15 172.1 78.85 161.6 71.95 166.75 58.2 166.05 53.95 160.4 55.8 157.35 41.65 156.6 31.05 146.7 34.6 135.4 28.8 132.5 25.55 120.25 31.65 114.15 41.7 113.6 45.1 117.75 41.8 125.2 51.35 120.95 63.0 145.65 67.45 138.4 77.9 144.45 80.0 155.1 89.45 142.2 101.9 144.65 101.75 144.4 106.6 126.95 114.25 123.25 M41.8 125.2 Q39.45 126.2 37.15 127.25 L34.6 135.4 M101.9 144.65 L102.9 144.8 107.45 150.35 M78.85 161.6 L78.0 157.75 80.0 155.1 M55.8 157.35 L63.0 145.65" fill="none" stroke="#50505f" stroke-linecap="round" stroke-linejoin="round" stroke-width="9.0"/>
    <path d="M-35.6 -29.65 L59.2 -29.65 59.2 103.85 59.15 103.85 59.15 103.7 Q59.15 90.35 24.5 80.95 -1.55 73.85 -35.6 72.1 L-35.6 -29.65" fill="#5d3c16" fill-rule="evenodd" stroke="none"/>
    <path d="M71.25 -40.35 L71.25 103.25 71.6 103.25 54.45 103.85 53.55 103.85 53.55 -40.35 71.25 -40.35" fill="#76a613" fill-rule="evenodd" stroke="none"/>
    <path d="M71.3 -40.35 L71.3 103.25 71.65 103.25 66.3 103.55 66.3 -40.35 71.3 -40.35" fill="#96cd25" fill-rule="evenodd" stroke="none"/>
    <path d="M59.2 -29.6 L-35.65 -29.6 -35.65 135.3 Q-50.85 135.85 -59.2 135.85 -108.25 135.85 -142.9 126.45 -177.35 117.1 -177.55 103.85 L-177.55 103.7 -177.55 -54.5 59.2 -54.5 59.2 -29.6" fill="#af7c3e" fill-rule="evenodd" stroke="none"/>
    <path d="M-164.4 104.6 L-164.4 108.95 -164.85 109.0 Q-172.0 108.9 -177.55 103.2 L-177.55 96.05 Q-172.2 104.15 -164.7 104.6 L-164.4 104.6 M-165.3 45.45 Q-164.45 45.45 -163.7 46.0 -163.0 46.6 -162.9 47.5 -162.85 48.4 -163.4 49.15 -164.05 49.85 -164.9 49.95 -173.6 50.7 -177.55 48.55 L-177.55 41.95 -177.45 42.0 Q-176.6 42.45 -176.35 43.35 -174.95 46.35 -165.3 45.45 M-144.05 90.2 Q-143.15 89.95 -142.35 90.45 -141.6 90.9 -141.4 91.8 -141.15 92.7 -141.65 93.5 -142.15 94.3 -143.05 94.5 -160.6 98.5 -167.05 86.7 -167.5 85.9 -167.25 85.0 -167.0 84.1 -166.2 83.65 L-164.5 83.5 Q-163.65 83.7 -163.2 84.5 -157.95 93.35 -144.05 90.2 M-87.0 102.85 L-86.5 103.1 Q-71.9 113.35 -50.7 109.05 -49.8 108.9 -49.05 109.4 -48.25 109.9 -48.1 110.8 -47.9 111.65 -48.4 112.45 -48.9 113.25 -49.8 113.45 -71.65 117.85 -87.0 108.15 L-87.0 102.85 M-116.35 76.1 Q-116.6 75.2 -116.1 74.45 -115.6 73.65 -114.7 73.45 -113.85 73.2 -113.1 73.7 -102.95 79.75 -87.65 78.2 -86.7 78.1 -86.0 78.7 -85.3 79.25 -85.2 80.15 -85.1 81.1 -85.65 81.8 -86.25 82.5 -87.2 82.65 -104.15 84.4 -115.4 77.5 -116.15 77.0 -116.35 76.1 M-143.35 49.6 Q-143.95 48.9 -143.9 48.0 -143.9 47.05 -143.2 46.45 -142.55 45.85 -141.6 45.85 -140.75 45.85 -140.05 46.6 -133.65 53.25 -115.35 52.95 L-115.35 57.4 Q-136.2 57.75 -143.35 49.6 M-55.3 53.75 L-53.65 53.95 Q-52.8 54.4 -52.55 55.25 -52.35 56.15 -52.75 56.95 -53.2 57.75 -54.1 58.0 -72.6 63.35 -88.1 54.85 -88.9 54.4 -89.15 53.55 -89.4 52.65 -88.95 51.85 -88.6 51.05 -87.7 50.8 L-85.95 50.95 Q-72.05 58.5 -55.3 53.75" fill="#8e6129" fill-rule="evenodd" stroke="none"/>
    <path d="M-89.3 1.3 Q-89.3 0.4 -88.6 -0.25 -88.0 -0.9 -87.05 -0.9 -86.15 -0.9 -85.45 -0.25 -84.85 0.4 -84.85 1.3 L-84.85 135.1 -89.3 134.8 -89.3 1.3 M-167.35 1.3 Q-167.35 0.4 -166.7 -0.25 -166.05 -0.9 -165.1 -0.9 -164.2 -0.9 -163.5 -0.25 -162.9 0.4 -162.9 1.3 L-162.9 119.25 -167.35 116.9 -167.35 1.3 M-144.3 1.3 Q-144.3 0.4 -143.65 -0.25 -143.0 -0.9 -142.05 -0.9 -141.15 -0.9 -140.45 -0.25 -139.85 0.4 -139.85 1.3 L-139.85 127.2 -142.85 126.35 -144.3 125.95 -144.3 1.3 M-117.3 1.3 Q-117.3 0.4 -116.65 -0.25 -116.0 -0.9 -115.1 -0.9 -114.15 -0.9 -113.5 -0.25 -112.85 0.4 -112.85 1.3 L-112.85 132.4 -117.3 131.75 -117.3 1.3" fill="#8e6129" fill-rule="evenodd" stroke="none"/>
    <path d="M-35.6 -8.35 L-35.6 135.25 -35.1 135.25 Q-46.7 135.85 -59.2 135.85 L-60.45 135.85 -60.45 -8.35 -35.6 -8.35" fill="#af7c3e" fill-rule="evenodd" stroke="none"/>
    <path d="M-35.65 -8.3 L-35.65 135.3 Q-50.85 135.85 -59.2 135.85 L-60.5 135.85 -60.5 -8.3 -35.65 -8.3" fill="#76a613" fill-rule="evenodd" stroke="none"/>
    <path d="M-51.85 -8.3 L-51.85 135.8 -59.2 135.85 -60.5 135.85 -60.5 -8.3 -51.85 -8.3" fill="#96cd25" fill-rule="evenodd" stroke="none"/>
    <path d="M68.95 -44.9 Q68.95 -26.65 34.3 -13.75 -0.35 -0.85 -49.4 -0.85 -98.4 -0.85 -133.05 -13.75 -167.75 -26.65 -167.75 -44.9 -167.75 -63.1 -133.05 -76.0 -98.4 -88.9 -49.4 -88.9 -0.35 -88.9 34.3 -76.0 68.95 -63.1 68.95 -44.9" fill="#ff8c02" fill-rule="evenodd" stroke="none"/>
    <path d="M39.45 -105.3 Q60.55 -86.6 79.75 -66.9 118.05 -27.45 108.85 -21.2 103.9 -17.85 91.0 -27.55 104.4 -0.7 94.45 3.6 82.9 8.55 60.05 -25.1 72.35 20.05 58.5 22.55 48.4 24.4 37.85 1.5 43.95 33.75 29.1 36.6 14.25 39.5 0.7 8.05 4.9 47.5 -11.65 48.95 -31.2 50.65 -41.35 -3.6 -44.25 45.25 -62.65 46.0 -80.15 46.65 -81.15 2.95 -90.1 37.65 -105.7 36.6 -120.55 35.65 -119.4 3.9 -132.45 27.9 -145.6 24.95 -161.0 21.55 -152.1 -13.85 -168.2 12.15 -180.95 7.95 -193.05 4.0 -184.25 -21.95 -201.45 -6.4 -208.05 -10.7 -217.7 -16.85 -185.0 -52.55 -169.2 -69.85 -151.4 -86.15 L-145.35 -95.55 -123.25 -88.05 -119.4 -95.6 -89.85 -88.75 -90.45 -85.4 -71.3 -83.95 -71.45 -76.55 -43.9 -77.4 -43.3 -71.45 -21.6 -73.45 -22.4 -78.6 7.45 -84.75 Q13.3 -72.15 18.45 -59.45 14.6 -75.25 11.7 -91.25 L27.3 -94.3 26.0 -95.9 39.45 -105.3" fill="#cd7c1e" fill-rule="evenodd" stroke="none"/>
    <path d="M41.2 -69.7 Q60.25 -47.7 51.55 -41.1 43.65 -35.1 23.6 -49.7 32.35 -25.3 19.3 -20.4 3.5 -14.45 -17.4 -47.4 -14.3 -11.25 -31.1 -10.15 -49.2 -8.9 -57.6 -50.7 -66.35 -22.75 -82.55 -24.45 -96.75 -25.95 -96.45 -47.85 -115.4 -12.7 -130.65 -17.75 -145.2 -22.5 -131.75 -55.8 -159.9 -29.2 -170.9 -36.9 -175.9 -40.45 -173.25 -48.35 -187.25 -43.3 -191.85 -48.35 -201.0 -58.45 -153.9 -88.1 -137.35 -98.55 -119.85 -108.05 L-106.75 -118.85 -100.2 -114.1 -97.15 -118.75 -80.9 -113.15 -79.5 -116.9 -63.8 -115.1 -63.8 -117.85 -33.3 -120.15 -33.1 -119.55 -30.3 -120.6 -22.4 -126.75 -13.35 -119.7 Q12.35 -110.3 36.8 -99.4 95.2 -73.5 87.65 -62.4 81.45 -53.35 41.2 -69.7" fill="#d7984e" fill-rule="evenodd" stroke="none"/>
    <path d="M-96.3 -194.85 Q-94.65 -198.55 -88.05 -198.45 -80.8 -198.35 -75.4 -194.05 -74.25 -201.35 -67.45 -205.0 -56.95 -210.55 -51.95 -196.9 -50.25 -204.6 -42.5 -207.45 -31.7 -211.45 -27.85 -198.4 -24.4 -201.55 -19.3 -202.85 -7.9 -205.65 -8.45 -193.2 -2.8 -197.35 3.7 -197.6 18.6 -198.2 0.85 -175.8 -8.0 -164.6 -19.85 -153.3 L-22.3 -153.7 -33.15 -153.25 -34.0 -156.7 -39.1 -156.0 Q-44.25 -164.1 -47.75 -172.8 -47.25 -164.85 -47.65 -156.5 L-58.75 -153.4 -61.0 -156.4 -60.95 -153.55 -72.2 -151.5 -77.6 -157.8 -77.15 -155.15 -86.9 -154.0 Q-98.0 -165.95 -106.15 -177.65 -122.5 -201.0 -107.65 -199.5 -101.55 -198.9 -96.3 -194.85" fill="#cd7c1e" fill-rule="evenodd" stroke="none"/>
    <path d="M-27.45 -188.8 Q-18.8 -190.75 -19.25 -182.05 -14.9 -185.0 -10.0 -185.2 1.25 -185.55 -12.15 -169.9 -18.85 -162.05 -27.85 -154.2 L-29.9 -154.5 -37.9 -154.15 -38.55 -156.55 -42.4 -156.1 Q-46.35 -161.7 -48.95 -167.85 -48.6 -162.3 -48.85 -156.4 L-57.3 -154.25 -59.0 -156.3 -58.9 -154.35 -67.45 -152.9 -71.55 -157.4 -71.2 -155.45 -78.6 -154.65 Q-87.0 -162.95 -93.15 -171.2 -105.5 -187.45 -94.25 -186.45 -89.6 -186.0 -85.65 -183.15 -84.45 -185.8 -79.4 -185.75 -73.95 -185.7 -69.85 -182.7 -69.0 -187.75 -63.85 -190.3 -55.95 -194.15 -52.1 -184.7 -50.85 -190.05 -45.0 -192.0 -36.8 -194.85 -33.9 -185.7 -31.3 -187.95 -27.45 -188.8" fill="#a35f10" fill-rule="evenodd" stroke="none"/>
    <path d="M55.75 -88.75 Q52.5 -84.6 41.35 -87.85 44.0 -81.85 40.3 -78.9 32.3 -72.35 8.85 -91.6 21.3 -66.55 10.45 -62.2 -1.05 -57.55 -17.85 -83.8 -16.25 -66.75 -27.1 -64.95 -39.55 -62.85 -48.05 -84.05 -51.95 -51.4 -66.0 -51.5 -79.05 -51.55 -78.95 -79.6 -92.95 -53.15 -105.65 -57.05 -116.0 -60.2 -110.8 -79.45 -125.3 -67.3 -131.8 -71.5 -138.9 -76.15 -125.5 -94.15 -155.6 -79.55 -160.95 -86.25 -167.5 -94.45 -124.05 -117.25 -105.8 -126.8 -86.55 -135.35 L-80.1 -141.2 -73.5 -136.8 -71.3 -136.1 -71.2 -136.55 -47.55 -136.2 Q-47.4 -135.15 -47.4 -134.1 L-35.4 -136.2 -34.1 -133.5 -21.8 -138.55 -19.15 -135.15 -14.4 -139.1 -3.7 -131.4 Q10.45 -124.9 23.9 -117.6 62.15 -97.0 55.75 -88.75" fill="#deb07a" fill-rule="evenodd" stroke="none"/>
    <path d="M-71.35 -136.2 L-71.3 -136.6 -47.6 -136.25 -47.45 -134.15 -35.5 -136.3 -34.2 -133.5 -21.9 -138.55 -19.25 -135.15 -14.5 -139.15 -3.75 -131.45 Q3.2 -128.25 10.0 -124.85 5.75 -115.65 -8.7 -108.7 -28.9 -98.9 -57.2 -99.4 -85.5 -99.85 -105.4 -110.3 -114.0 -114.8 -118.85 -120.0 -103.15 -128.1 -86.65 -135.4 L-80.1 -141.25 -73.55 -136.85 -71.35 -136.2" fill="#d7984e" fill-rule="evenodd" stroke="none"/>
    <path d="M-156.25 32.0 Q-157.0 33.55 -158.05 33.55 -159.15 33.55 -159.9 32.0 -160.65 30.5 -160.65 28.35 -160.65 26.2 -159.9 24.65 -159.15 23.1 -158.05 23.1 -157.0 23.1 -156.25 24.65 -155.45 26.2 -155.45 28.35 -155.45 30.5 -156.25 32.0 M-174.6 55.9 Q-173.75 55.9 -173.15 56.7 -172.55 57.5 -172.55 58.65 -172.55 59.8 -173.15 60.65 -173.75 61.45 -174.6 61.45 -175.45 61.45 -176.05 60.65 -176.6 59.8 -176.6 58.65 -176.6 57.5 -176.05 56.7 -175.45 55.9 -174.6 55.9 M-123.3 68.85 Q-122.75 68.85 -122.4 70.85 -122.0 72.9 -122.0 75.75 -122.0 78.6 -122.4 80.6 -122.75 82.65 -123.3 82.65 -123.8 82.65 -124.2 80.6 -124.6 78.6 -124.6 75.75 -124.6 72.9 -124.2 70.85 -123.8 68.85 -123.3 68.85 M-153.7 73.2 Q-153.15 72.6 -152.25 72.6 -151.4 72.6 -150.85 73.2 -150.25 73.9 -150.25 74.8 -150.25 75.75 -150.85 76.35 -151.4 77.05 -152.25 77.05 -153.15 77.05 -153.7 76.35 -154.3 75.75 -154.3 74.8 -154.3 73.9 -153.7 73.2 M-98.95 96.55 Q-98.95 94.65 -98.1 93.25 -97.2 91.9 -95.95 91.9 -94.75 91.9 -93.9 93.25 -93.0 94.65 -93.0 96.55 -93.0 98.5 -93.9 99.8 -94.75 101.2 -95.95 101.2 -97.2 101.2 -98.1 99.8 -98.95 98.5 -98.95 96.55 M-79.6 69.45 Q-78.85 68.15 -77.75 68.15 -76.65 68.15 -75.9 69.45 -75.1 70.85 -75.1 72.75 -75.1 74.7 -75.9 76.05 -76.65 77.4 -77.75 77.4 -78.85 77.4 -79.6 76.05 -80.4 74.7 -80.4 72.75 -80.4 70.85 -79.6 69.45" fill="#8e6129" fill-rule="evenodd" stroke="none"/>
    <path d="M45.1 117.8 L41.7 113.65 31.7 114.15 25.6 120.3 28.8 132.5 36.8 136.5 45.1 117.8" fill="#77778c" fill-rule="evenodd" stroke="none"/>
    <path d="M112.05 119.1 L115.15 114.7 125.15 114.55 131.65 120.25 129.3 132.65 121.6 137.2 112.05 119.1" fill="#77778c" fill-rule="evenodd" stroke="none"/>
    <path d="M127.15 116.2 L126.15 121.25 118.45 125.8 113.65 116.75 115.15 114.65 125.2 114.45 127.15 116.2" fill="#9898af" fill-rule="evenodd" stroke="none"/>
    <path d="M39.55 124.8 L31.65 120.8 30.1 115.15 30.25 115.55 31.65 114.15 41.7 113.6 43.55 115.9 39.55 124.8" fill="#9898af" fill-rule="evenodd" stroke="none"/>
    <path d="M120.6 125.9 Q118.25 139.75 101.2 148.9 87.05 156.5 75.9 156.0 62.55 155.4 52.45 148.65 37.55 138.65 36.85 118.1 36.45 106.55 59.6 93.9 80.05 82.45 75.3 76.2 71.5 71.2 60.25 69.05 51.0 67.4 49.6 58.2 48.2 48.8 64.15 39.75 80.6 30.3 80.45 26.05 80.25 20.45 74.25 12.0 L70.95 7.05 Q69.9 4.85 71.1 4.05 72.45 3.2 75.6 5.15 78.55 7.0 81.85 10.55 89.85 19.15 90.05 25.7 90.2 30.0 82.7 36.05 75.85 41.9 77.3 47.4 78.55 52.5 96.4 65.2 113.55 77.45 114.15 82.85 114.55 87.75 109.95 92.15 106.05 96.4 107.95 102.1 109.4 106.15 116.5 113.6 121.85 119.05 120.6 125.9" fill="#ff9933" fill-rule="evenodd" stroke="none"/>
    <path d="M89.4 93.85 Q89.2 95.9 85.3 98.75 81.75 101.6 82.15 104.2 82.45 106.65 90.25 112.7 97.7 118.6 97.7 121.15 97.65 123.5 95.25 125.65 93.15 127.65 93.75 130.4 94.2 132.3 97.15 135.9 99.4 138.45 98.45 141.8 96.65 148.4 88.0 152.75 80.9 156.4 75.65 156.2 69.35 155.9 64.9 152.65 58.35 147.85 59.1 138.0 59.55 132.5 71.25 126.5 81.55 121.0 79.6 118.0 78.1 115.55 72.85 114.55 68.6 113.75 68.35 109.35 68.25 104.9 76.3 100.5 84.6 96.05 84.8 94.0 85.05 90.8 83.3 86.85 L81.5 83.45 85.65 87.0 Q89.6 91.05 89.4 93.85" fill="#db6a24" fill-rule="evenodd" stroke="none"/>
    <path d="M65.55 151.0 L59.35 157.65 41.65 156.65 31.05 146.75 37.15 127.25 51.35 121.0 65.55 151.0" fill="#77778c" fill-rule="evenodd" stroke="none"/>
    <path d="M53.95 160.35 L58.2 166.05 71.9 166.75 80.95 160.0 77.9 144.45 67.45 138.4 53.95 160.35" fill="#77778c" fill-rule="evenodd" stroke="none"/>
    <path d="M129.7 148.35 L124.7 154.3 110.35 153.35 101.75 144.4 106.6 127.0 118.1 121.4 129.7 148.35" fill="#77778c" fill-rule="evenodd" stroke="none"/>
    <path d="M111.95 166.15 L113.5 157.75 102.9 144.8 89.4 142.25 77.95 157.75 81.15 172.1 111.95 166.15" fill="#77778c" fill-rule="evenodd" stroke="none"/>
    <path d="M37.8 136.8 L41.4 125.35 51.35 120.95 63.95 147.55 48.4 146.7 37.8 136.8" fill="#9898af" fill-rule="evenodd" stroke="none"/>
    <path d="M77.9 144.45 L79.55 152.8 76.55 155.05 62.8 154.35 59.8 150.35 59.95 150.6 67.45 138.4 77.9 144.45" fill="#9898af" fill-rule="evenodd" stroke="none"/>
    <path d="M118.1 121.4 L120.45 126.8 118.6 144.4 111.35 147.2 102.6 141.5 106.6 126.95 118.1 121.4" fill="#9898af" fill-rule="evenodd" stroke="none"/>
    <path d="M102.9 144.8 L110.7 154.3 82.55 159.75 81.2 153.4 89.45 142.2 102.9 144.8" fill="#9898af" fill-rule="evenodd" stroke="none"/>
    <path d="M-57.1 -372.85 L13.7 -365.65 -11.55 -152.45 -49.8 -133.7 -91.7 -152.45 -120.6 -361.85 -57.1 -372.85" fill="#7a301b" fill-rule="evenodd" stroke="none"/>
    <path d="M-57.1 -372.85 L13.7 -365.65 -11.55 -152.45 -49.8 -133.7 -91.7 -152.45 -120.6 -361.85 -57.1 -372.85 Z" fill="none" stroke="#7a301b" stroke-linecap="round" stroke-linejoin="round" stroke-width="9.0"/>
    <path d="M123.2 -320.35 Q123.3 -325.95 119.4 -329.9 115.5 -333.85 109.9 -333.85 104.3 -333.85 100.25 -329.9 96.65 -326.3 96.25 -321.4 L77.4 -322.9 Q77.0 -344.7 68.8 -360.3 60.2 -376.7 48.0 -376.7 40.9 -376.7 35.05 -371.2 L-11.0 -334.45 -11.05 -334.35 Q-12.65 -333.3 -13.95 -330.85 -16.2 -326.55 -16.2 -320.5 -16.2 -314.5 -13.95 -310.2 -12.65 -307.65 -11.0 -306.65 L37.05 -268.3 36.8 -268.5 Q41.95 -264.5 48.0 -264.5 60.2 -264.5 68.8 -280.95 76.65 -295.85 77.35 -316.4 L96.2 -318.7 Q96.65 -314.6 99.3 -311.5 L100.0 -310.75 Q103.9 -306.8 109.5 -306.8 115.15 -306.8 119.15 -310.75 123.15 -314.75 123.2 -320.35" fill="#606474" fill-rule="evenodd" stroke="none"/>
    <path d="M123.2 -320.35 Q123.15 -314.75 119.15 -310.75 115.15 -306.8 109.5 -306.8 103.9 -306.8 100.0 -310.75 L99.3 -311.5 Q96.65 -314.6 96.2 -318.7 L77.35 -316.4 Q76.65 -295.85 68.8 -280.95 60.2 -264.5 48.0 -264.5 41.95 -264.5 36.8 -268.5 L37.05 -268.3 -11.0 -306.65 Q-12.65 -307.65 -13.95 -310.2 -16.2 -314.5 -16.2 -320.5 -16.2 -326.55 -13.95 -330.85 -12.65 -333.3 -11.05 -334.35 L-11.0 -334.45 35.05 -371.2 Q40.9 -376.7 48.0 -376.7 60.2 -376.7 68.8 -360.3 77.0 -344.7 77.4 -322.9 L96.25 -321.4 Q96.65 -326.3 100.25 -329.9 104.3 -333.85 109.9 -333.85 115.5 -333.85 119.4 -329.9 123.3 -325.95 123.2 -320.35 Z" fill="none" stroke="#606474" stroke-linecap="round" stroke-linejoin="round" stroke-width="9.0"/>
    <path d="M-248.6 -325.7 Q-248.7 -332.55 -243.9 -337.45 -239.15 -342.3 -232.25 -342.3 -225.35 -342.3 -220.4 -337.45 -215.95 -333.05 -215.45 -327.0 L-192.35 -328.8 Q-191.85 -355.6 -181.8 -374.8 -171.2 -394.95 -156.2 -394.95 -147.55 -394.95 -140.3 -388.15 L-83.75 -343.0 -83.7 -342.9 Q-81.75 -341.6 -80.15 -338.6 -77.4 -333.35 -77.4 -325.95 -77.4 -318.5 -80.15 -313.25 -81.8 -310.15 -83.75 -308.9 L-142.8 -261.8 -142.5 -262.05 Q-148.85 -257.1 -156.2 -257.1 -171.2 -257.1 -181.8 -277.3 -191.4 -295.65 -192.25 -320.85 L-215.4 -323.65 Q-215.95 -318.65 -219.2 -314.85 L-220.05 -313.95 Q-224.9 -309.1 -231.75 -309.1 -238.7 -309.1 -243.6 -313.95 -248.5 -318.8 -248.6 -325.7" fill="#606474" fill-rule="evenodd" stroke="none"/>
    <path d="M-248.6 -325.7 Q-248.5 -318.8 -243.6 -313.95 -238.7 -309.1 -231.75 -309.1 -224.9 -309.1 -220.05 -313.95 L-219.2 -314.85 Q-215.95 -318.65 -215.4 -323.65 L-192.25 -320.85 Q-191.4 -295.65 -181.8 -277.3 -171.2 -257.1 -156.2 -257.1 -148.85 -257.1 -142.5 -262.05 L-142.8 -261.8 -83.75 -308.9 Q-81.8 -310.15 -80.15 -313.25 -77.4 -318.5 -77.4 -325.95 -77.4 -333.35 -80.15 -338.6 -81.75 -341.6 -83.7 -342.9 L-83.75 -343.0 -140.3 -388.15 Q-147.55 -394.95 -156.2 -394.95 -171.2 -394.95 -181.8 -374.8 -191.85 -355.6 -192.35 -328.8 L-215.45 -327.0 Q-215.95 -333.05 -220.4 -337.45 -225.35 -342.3 -232.25 -342.3 -239.15 -342.3 -243.9 -337.45 -248.7 -332.55 -248.6 -325.7 Z" fill="none" stroke="#606474" stroke-linecap="round" stroke-linejoin="round" stroke-width="9.0"/>
    <path d="M86.95 -322.05 L96.2 -321.35 Q96.6 -326.25 100.2 -329.85 104.25 -333.8 109.85 -333.8 115.45 -333.8 119.35 -329.85 123.25 -325.9 123.15 -320.3 123.1 -314.7 119.1 -310.7 115.1 -306.75 109.45 -306.75 103.85 -306.75 99.95 -310.7 L99.25 -311.45 Q96.6 -314.55 96.15 -318.65 L96.1 -320.3 86.95 -319.8 86.95 -320.55 86.95 -322.05 M117.4 -312.85 Q112.75 -313.75 109.6 -315.65 102.8 -319.65 102.85 -328.1 L102.15 -327.4 Q98.95 -324.3 98.95 -319.8 98.95 -315.3 102.15 -312.1 105.3 -308.9 109.75 -308.85 114.25 -308.75 117.45 -311.9 L118.2 -312.7 117.4 -312.85" fill="#969bb4" fill-rule="evenodd" stroke="none"/>
    <path d="M96.15 -318.65 L19.05 -309.25 18.55 -316.35 18.5 -320.55 18.7 -327.45 86.95 -322.05 86.95 -320.55 86.95 -319.8 96.1 -320.3 96.15 -318.65 M117.4 -312.85 L118.2 -312.7 117.45 -311.9 Q114.25 -308.75 109.75 -308.85 105.3 -308.9 102.15 -312.1 98.95 -315.3 98.95 -319.8 98.95 -324.3 102.15 -327.4 L102.85 -328.1 Q102.8 -319.65 109.6 -315.65 112.75 -313.75 117.4 -312.85" fill="#71768c" fill-rule="evenodd" stroke="none"/>
    <path d="M47.95 -376.7 Q60.15 -376.7 68.75 -360.25 77.4 -343.8 77.4 -320.55 77.4 -297.3 68.75 -280.9 60.15 -264.45 47.95 -264.45 41.95 -264.45 36.8 -268.45 L37.0 -268.25 -11.05 -306.6 Q-12.7 -307.6 -14.0 -310.15 -16.25 -314.45 -16.25 -320.5 -16.25 -326.55 -14.0 -330.8 -12.7 -333.25 -11.1 -334.3 L-11.05 -334.4 35.0 -371.15 Q40.9 -376.7 47.95 -376.7" fill="#969bb4" fill-rule="evenodd" stroke="none"/>
    <path d="M36.8 -268.45 L37.0 -268.25 -11.05 -306.6 Q-12.3 -307.35 -13.35 -309.0 L-14.0 -310.15 Q-16.25 -314.45 -16.25 -320.5 L-16.25 -320.85 -15.9 -324.8 72.65 -289.85 Q71.0 -285.15 68.75 -280.9 64.95 -273.55 60.4 -269.5 54.7 -264.45 47.95 -264.45 41.95 -264.45 36.8 -268.45" fill="#71768c" fill-rule="evenodd" stroke="none"/>
    <path d="M-57.1 -372.85 L13.7 -365.65 -11.55 -152.45 -49.8 -133.7 -91.7 -152.45 -120.6 -361.85 -57.1 -372.85" fill="#f73600" fill-rule="evenodd" stroke="none"/>
    <path d="M-57.1 -372.85 L-49.8 -133.7 -91.7 -152.45 -120.6 -361.85 -57.1 -372.85" fill="#ad0303" fill-rule="evenodd" stroke="none"/>
    <path d="M6.45 -344.35 L2.35 -311.25 -12.9 -327.15 6.45 -344.35 M-0.9 -284.95 L-5.75 -245.55 -17.15 -261.6 -0.9 -284.95 M-46.15 -349.9 L-25.3 -328.05 -47.4 -309.1 -48.65 -352.95 -46.15 -349.9 M-109.0 -353.95 L-67.15 -360.45 -87.2 -333.6 -109.0 -353.95 M-19.05 -321.6 L-1.55 -303.3 -41.4 -301.6 -19.05 -321.6 M-37.2 -290.35 L-2.75 -292.65 -21.0 -267.05 -37.2 -290.35 M-86.3 -320.1 L-67.8 -301.1 -101.25 -299.65 -86.3 -320.1 M-92.95 -228.45 L-79.8 -247.5 -65.85 -226.25 -92.95 -228.45 M-92.5 -326.45 L-106.5 -307.65 -111.55 -346.05 -92.5 -326.45 M-81.3 -264.35 L-96.5 -287.65 -66.7 -287.65 -81.3 -264.35 M-97.4 -238.5 L-103.2 -282.85 -85.95 -256.8 -97.4 -238.5 M-76.5 -188.8 L-92.15 -216.65 -66.05 -213.35 -76.5 -188.8 M-79.5 -181.75 L-87.35 -163.2 -93.4 -208.85 -79.5 -181.75 M-39.6 -229.15 L-22.95 -253.2 -9.65 -235.8 -39.6 -229.15 M-38.7 -215.75 L-12.1 -223.9 -26.85 -190.25 -38.7 -215.75 M-45.15 -233.25 L-46.65 -284.35 -27.05 -258.6 -45.15 -233.25 M-60.95 -274.95 L-59.85 -231.5 -74.85 -254.55 -60.95 -274.95 M-80.75 -327.6 L-63.05 -351.4 -61.85 -310.0 -80.75 -327.6 M-27.3 -173.85 L-19.7 -158.15 -37.7 -148.85 -27.3 -173.85 M-71.4 -179.6 L-59.1 -203.9 -57.65 -155.1 -71.4 -179.6 M-42.85 -154.0 L-44.4 -208.6 -30.85 -181.1 -42.85 -154.0 M-19.0 -333.45 L-42.8 -358.2 4.4 -353.5 -19.0 -333.45 M-15.6 -165.75 L-23.5 -182.95 -9.2 -217.15 -15.6 -165.75 M-83.15 -156.35 L-74.8 -172.8 -61.5 -146.8 -83.15 -156.35" fill="#6d1800" fill-rule="evenodd" stroke="none"/>
    <path d="M-131.85 -375.5 Q-136.3 -384.1 -141.45 -389.1 L-83.75 -343.0 -83.65 -342.9 Q-81.7 -341.6 -80.1 -338.6 -77.35 -333.35 -77.35 -325.95 -77.35 -318.5 -80.1 -313.25 -81.75 -310.15 -83.75 -308.9 L-142.75 -261.8 Q-136.8 -266.9 -131.85 -276.6 -121.25 -297.05 -121.25 -326.0 -121.25 -355.0 -131.85 -375.5" fill="#969bb4" fill-rule="evenodd" stroke="none"/>
    <path d="M-181.8 -374.8 Q-171.2 -394.95 -156.2 -394.95 -141.25 -394.95 -130.65 -374.8 -120.05 -354.55 -120.05 -326.0 -120.05 -297.5 -130.65 -277.3 -141.25 -257.1 -156.2 -257.1 -171.2 -257.1 -181.8 -277.3 -192.35 -297.5 -192.35 -326.0 -192.35 -354.55 -181.8 -374.8" fill="#71768c" fill-rule="evenodd" stroke="none"/>
    <path d="M-192.35 -326.2 L-120.05 -326.2 -120.05 -326.0 Q-120.05 -297.5 -130.65 -277.3 -141.25 -257.1 -156.2 -257.1 -171.2 -257.1 -181.8 -277.3 -192.35 -297.5 -192.35 -326.0 L-192.35 -326.2" fill="#969bb4" fill-rule="evenodd" stroke="none"/>
    <path d="M-215.4 -323.65 Q-215.95 -318.65 -219.2 -314.85 L-220.05 -313.95 Q-224.9 -309.1 -231.75 -309.1 -238.7 -309.1 -243.6 -313.95 -248.5 -318.8 -248.6 -325.7 -248.7 -332.55 -243.9 -337.45 -239.15 -342.3 -232.25 -342.3 -225.35 -342.3 -220.4 -337.45 -215.95 -333.05 -215.45 -327.0 L-120.3 -334.5 Q-120.05 -330.35 -120.05 -326.0 L-120.15 -320.85 -215.4 -325.7 -215.4 -323.65 M-240.5 -336.05 L-241.55 -335.1 Q-245.35 -331.2 -245.3 -325.7 -245.2 -320.2 -241.25 -316.3 -237.35 -312.4 -231.8 -312.4 -226.3 -312.4 -222.45 -316.3 L-221.65 -317.2 Q-237.25 -317.1 -240.5 -336.05" fill="#969bb4" fill-rule="evenodd" stroke="none"/>
    <path d="M-215.4 -323.65 L-215.4 -325.7 -120.15 -320.85 Q-120.3 -316.4 -120.75 -312.15 L-215.4 -323.65 M-240.5 -336.05 Q-237.25 -317.1 -221.65 -317.2 L-222.45 -316.3 Q-226.3 -312.4 -231.8 -312.4 -237.35 -312.4 -241.25 -316.3 -245.2 -320.2 -245.3 -325.7 -245.35 -331.2 -241.55 -335.1 L-240.5 -336.05" fill="#71768c" fill-rule="evenodd" stroke="none"/>
    <path d="M-80.15 -313.25 Q-81.8 -310.15 -83.75 -308.9 L-142.8 -261.8 Q-136.85 -266.9 -131.9 -276.6 -124.25 -291.3 -122.1 -310.45 L-77.55 -322.25 Q-78.1 -317.15 -80.15 -313.25" fill="#71768c" fill-rule="evenodd" stroke="none"/>
    <path d="M0.95 -181.75 Q15.8 -183.2 -0.55 -159.85 -8.7 -148.2 -19.8 -136.25 L-23.4 -136.65 -28.2 -131.35 -36.95 -133.15 Q-39.45 -129.5 -42.3 -125.95 L-51.55 -128.75 -52.9 -126.65 -64.5 -128.5 -65.05 -132.85 -75.65 -133.6 -77.15 -136.75 -84.35 -135.5 Q-96.15 -146.85 -105.05 -158.05 -122.8 -180.4 -107.9 -179.85 -96.45 -179.35 -87.55 -166.9 -91.3 -186.45 -77.35 -182.7 -67.2 -179.95 -63.45 -169.6 -59.45 -182.2 -48.8 -178.0 -46.65 -177.15 -45.0 -175.9 -40.25 -181.45 -32.95 -177.35 -28.95 -175.1 -26.9 -171.6 -20.7 -178.1 -11.75 -178.0 L-9.4 -177.8 Q-4.6 -181.2 0.95 -181.75" fill="#d7984e" fill-rule="evenodd" stroke="none"/>
    <path d="M-14.4 -141.8 Q-8.35 -144.85 -4.55 -148.35 1.8 -142.45 1.8 -135.25 1.8 -123.75 -14.4 -115.6 -30.6 -107.4 -53.5 -107.4 -76.4 -107.4 -92.65 -115.6 -108.8 -123.75 -108.8 -135.25 -108.8 -142.45 -102.45 -148.35 -98.65 -144.85 -92.65 -141.8 -76.4 -133.6 -53.5 -133.6 -30.6 -133.6 -14.4 -141.8" fill="#76a613" fill-rule="evenodd" stroke="none"/>
    <path d="M-90.9 94.5 L-87.95 101.5 -87.4 101.2 Q-76.75 95.95 -61.65 95.95 -46.5 95.95 -35.75 101.2 -27.5 105.25 -25.65 110.7 L-25.55 110.9 -21.15 121.35 Q-20.6 122.35 -20.35 123.45 -19.85 125.05 -19.85 126.75 L-20.0 129.0 -20.35 130.1 Q-21.4 133.5 -24.6 136.45 L-24.6 136.5 -28.65 152.05 Q-29.05 158.45 -38.3 163.0 -47.95 167.75 -61.65 167.75 -75.3 167.75 -84.95 163.0 -91.65 159.7 -93.7 155.5 L-93.85 154.7 -97.9 139.2 Q-99.8 140.75 -102.55 142.1 -111.3 146.45 -123.85 146.45 -136.3 146.45 -145.1 142.1 -151.2 139.05 -153.05 135.25 L-153.25 134.5 -157.6 117.85 Q-160.55 115.15 -161.5 112.1 L-161.9 110.1 -162.0 109.0 Q-162.0 106.95 -161.2 105.1 L-161.05 104.8 -156.55 94.05 -156.35 93.55 -156.2 93.35 Q-154.2 89.05 -147.4 85.65 -137.65 80.9 -123.85 80.9 -110.0 80.9 -100.2 85.65 -92.65 89.4 -91.0 94.35 L-90.9 94.5 M-157.6 117.85 L-157.55 117.9 Q-154.95 120.25 -150.8 122.2 L-148.5 123.3 -148.0 123.5 Q-137.75 127.8 -123.85 127.8 -112.3 127.8 -103.25 124.85 L-103.4 126.75 -103.35 127.95 -102.9 130.15 Q-101.85 133.5 -98.6 136.5 L-98.55 136.5 -96.65 138.05 Q-94.3 139.75 -91.15 141.25 L-88.65 142.45 -88.15 142.65 Q-76.85 147.35 -61.65 147.35 -46.4 147.35 -35.15 142.65 L-34.6 142.45 -32.05 141.25 Q-27.55 139.05 -24.65 136.55 L-24.6 136.5 -24.65 136.55 Q-27.55 139.05 -32.05 141.25 L-34.6 142.45 -35.15 142.65 Q-46.4 147.35 -61.65 147.35 -76.85 147.35 -88.15 142.65 L-88.65 142.45 -91.15 141.25 Q-94.3 139.75 -96.65 138.05 L-98.55 136.5 -98.6 136.5 Q-101.85 133.5 -102.9 130.15 L-103.35 127.95 -103.4 126.75 -103.25 124.85 Q-112.3 127.8 -123.85 127.8 -137.75 127.8 -148.0 123.5 L-148.5 123.3 -150.8 122.2 Q-154.95 120.25 -157.55 117.9 L-157.6 117.85" fill="#a62209" fill-rule="evenodd" stroke="none"/>
    <path d="M-90.9 94.5 L-87.95 101.5 -87.4 101.2 Q-76.75 95.95 -61.65 95.95 -46.5 95.95 -35.75 101.2 -27.5 105.25 -25.65 110.7 L-25.55 110.9 -21.15 121.35 Q-20.6 122.35 -20.35 123.45 -19.85 125.05 -19.85 126.75 L-20.0 129.0 -20.35 130.1 Q-21.4 133.5 -24.6 136.45 L-24.6 136.5 -28.65 152.05 Q-29.05 158.45 -38.3 163.0 -47.95 167.75 -61.65 167.75 -75.3 167.75 -84.95 163.0 -91.65 159.7 -93.7 155.5 L-93.85 154.7 -97.9 139.2 Q-99.8 140.75 -102.55 142.1 -111.3 146.45 -123.85 146.45 -136.3 146.45 -145.1 142.1 -151.2 139.05 -153.05 135.25 L-153.25 134.5 -157.6 117.85 Q-160.55 115.15 -161.5 112.1 L-161.9 110.1 -162.0 109.0 Q-162.0 106.95 -161.2 105.1 L-161.05 104.8 -156.55 94.05 -156.35 93.55 -156.2 93.35 Q-154.2 89.05 -147.4 85.65 -137.65 80.9 -123.85 80.9 -110.0 80.9 -100.2 85.65 -92.65 89.4 -91.0 94.35 L-90.9 94.5 M-24.6 136.5 L-24.65 136.55 Q-27.55 139.05 -32.05 141.25 L-34.6 142.45 -35.15 142.65 Q-46.4 147.35 -61.65 147.35 -76.85 147.35 -88.15 142.65 L-88.65 142.45 -91.15 141.25 Q-94.3 139.75 -96.65 138.05 L-98.55 136.5 -98.6 136.5 Q-101.85 133.5 -102.9 130.15 L-103.35 127.95 -103.4 126.75 -103.25 124.85 Q-112.3 127.8 -123.85 127.8 -137.75 127.8 -148.0 123.5 L-148.5 123.3 -150.8 122.2 Q-154.95 120.25 -157.55 117.9 L-157.6 117.85" fill="none" stroke="#a62209" stroke-linecap="round" stroke-linejoin="round" stroke-width="9.0"/>
    <path d="M-103.4 126.75 L-103.35 127.95 -102.9 130.15 Q-101.85 133.5 -98.6 136.5 L-98.55 136.5 -96.65 138.05 Q-94.3 139.75 -91.15 141.25 L-88.65 142.45 -88.15 142.65 Q-76.85 147.35 -61.65 147.35 -46.4 147.35 -35.15 142.65 L-34.6 142.45 -32.05 141.25 Q-27.55 139.05 -24.65 136.55 L-24.6 136.5 -28.65 152.05 Q-29.05 158.45 -38.3 163.0 -47.95 167.75 -61.65 167.75 -75.3 167.75 -84.95 163.0 -91.65 159.7 -93.7 155.5 L-93.85 154.7 -97.9 139.2 Q-99.8 140.75 -102.55 142.1 -111.3 146.45 -123.85 146.45 -136.3 146.45 -145.1 142.1 -151.2 139.05 -153.05 135.25 L-153.25 134.5 -157.6 117.85 -157.55 117.9 Q-154.95 120.25 -150.8 122.2 L-148.5 123.3 -148.0 123.5 Q-137.75 127.8 -123.85 127.8 -112.3 127.8 -103.25 124.85 L-103.4 126.75" fill="#f73600" fill-rule="evenodd" stroke="none"/>
    <path d="M-90.9 94.5 L-87.95 101.5 -87.4 101.2 Q-76.75 95.95 -61.65 95.95 -46.5 95.95 -35.75 101.2 -27.5 105.25 -25.65 110.7 L-25.55 110.9 -21.15 121.35 Q-20.6 122.35 -20.35 123.45 -19.85 125.05 -19.85 126.75 L-20.0 129.0 -20.35 130.1 Q-21.4 133.5 -24.6 136.45 L-24.6 136.5 -24.65 136.55 Q-27.55 139.05 -32.05 141.25 L-34.6 142.45 -35.15 142.65 Q-46.4 147.35 -61.65 147.35 -76.85 147.35 -88.15 142.65 L-88.65 142.45 -91.15 141.25 Q-94.3 139.75 -96.65 138.05 L-98.55 136.5 -98.6 136.5 Q-101.85 133.5 -102.9 130.15 L-103.35 127.95 -103.4 126.75 -103.25 124.85 Q-112.3 127.8 -123.85 127.8 -137.75 127.8 -148.0 123.5 L-148.5 123.3 -150.8 122.2 Q-154.95 120.25 -157.55 117.9 L-157.6 117.85 Q-160.55 115.15 -161.5 112.1 L-161.9 110.1 -162.0 109.0 Q-162.0 106.95 -161.2 105.1 L-161.05 104.8 -156.55 94.05 -156.35 93.55 -156.2 93.35 Q-154.2 89.05 -147.4 85.65 -137.65 80.9 -123.85 80.9 -110.0 80.9 -100.2 85.65 -92.65 89.4 -91.0 94.35 L-90.9 94.5" fill="#f0e0c0" fill-rule="evenodd" stroke="none"/>
    <path d="M-102.7 110.0 L-102.25 109.8 -100.2 108.85 Q-94.4 105.95 -92.05 102.35 -91.3 101.2 -90.9 99.95 L-90.75 99.5 -90.65 99.05 -90.5 97.3 Q-90.5 95.85 -90.9 94.5 L-87.95 101.5 Q-94.95 105.1 -97.1 109.65 L-97.25 109.8 -97.45 110.4 Q-98.1 112.05 -98.1 113.95 L-98.05 115.0 -97.8 116.35 -97.65 116.85 Q-97.25 118.25 -96.4 119.5 L-95.0 121.3 -91.65 124.15 -87.4 126.6 -85.2 127.6 -84.7 127.85 Q-74.9 131.9 -61.65 131.9 -48.3 131.9 -38.5 127.85 L-38.0 127.6 -35.75 126.6 Q-29.4 123.45 -26.8 119.5 -26.0 118.25 -25.55 116.85 L-25.4 116.35 -25.3 115.85 -25.1 113.95 Q-25.1 112.35 -25.55 110.9 L-21.15 121.35 Q-20.6 122.35 -20.35 123.45 -19.85 125.05 -19.85 126.75 L-20.0 129.0 -20.35 130.1 Q-21.4 133.5 -24.6 136.45 L-24.6 136.5 -24.65 136.55 Q-27.55 139.05 -32.05 141.25 L-34.6 142.45 -35.15 142.65 Q-46.4 147.35 -61.65 147.35 -76.85 147.35 -88.15 142.65 L-88.65 142.45 -91.15 141.25 Q-94.3 139.75 -96.65 138.05 L-98.55 136.5 -98.6 136.5 Q-101.85 133.5 -102.9 130.15 L-103.35 127.95 -103.4 126.75 -103.25 124.85 Q-112.3 127.8 -123.85 127.8 -137.75 127.8 -148.0 123.5 L-148.5 123.3 -150.8 122.2 Q-154.95 120.25 -157.55 117.9 L-157.6 117.85 Q-160.55 115.15 -161.5 112.1 L-161.9 110.1 -162.0 109.0 Q-162.0 106.95 -161.2 105.1 L-161.05 104.8 -156.55 94.05 Q-157.1 95.6 -157.1 97.3 L-157.05 98.25 -156.85 99.5 -156.7 100.0 -155.55 102.35 Q-153.25 105.95 -147.4 108.85 L-145.35 109.8 -144.9 110.0 Q-135.9 113.7 -123.85 113.7 -111.7 113.7 -102.7 110.0" fill="#d4b882" fill-rule="evenodd" stroke="none"/>
  </g>
</svg>
