<?xml version="1.0" encoding="UTF-8" standalone="no"?>
<svg xmlns:xlink="http://www.w3.org/1999/xlink" height="88.7px" width="85.35px" xmlns="http://www.w3.org/2000/svg">
  <g transform="matrix(1.0, 0.0, 0.0, 1.0, 73.0, 30.95)">
    <path d="M-52.95 -26.0 L-49.15 -21.65 -31.2 -7.9 Q-12.05 4.25 -0.2 2.1 L-0.15 2.95 Q-9.85 9.75 -30.4 3.7 L-36.65 1.4 -37.35 1.15 Q-52.6 -10.55 -52.95 -26.0 M-60.85 -8.65 L-61.2 -9.05 Q-58.15 -6.65 -54.65 -4.75 L-30.75 4.95 Q-10.0 10.7 -0.25 4.25 L-0.05 5.1 0.05 5.75 Q-6.95 16.15 -26.45 18.4 L-33.5 18.9 -33.7 18.95 -34.05 18.7 Q-54.55 11.55 -60.85 -8.65 M-64.15 17.95 L-64.3 17.8 -54.9 20.05 -26.5 19.85 Q-6.3 17.35 0.7 6.55 L0.85 6.7 3.85 8.3 Q-2.8 34.6 -25.5 37.0 -48.55 39.4 -64.15 17.95" fill="#ffcc33" fill-rule="evenodd" stroke="none"/>
    <path d="M-36.65 1.4 Q-47.55 -2.1 -55.55 -6.95 -58.45 -15.9 -56.5 -25.45 L-53.3 -26.45 -52.95 -26.0 Q-52.6 -10.55 -37.35 1.15 L-36.65 1.4 M-60.85 -8.65 Q-54.55 11.55 -34.05 18.7 L-33.7 18.95 Q-45.65 19.65 -55.95 17.55 -63.35 7.5 -65.65 -6.95 L-62.15 -9.6 -60.85 -8.65 M-64.15 17.95 Q-48.55 39.4 -25.5 37.0 -2.8 34.6 3.85 8.3 L3.9 8.45 Q3.8 22.0 -0.45 31.9 -2.45 37.25 -5.7 41.1 -9.95 46.8 -16.1 49.7 -38.65 60.9 -58.75 37.0 -64.0 30.8 -68.5 22.45 L-65.55 17.5 Q-64.5 17.75 -64.15 17.95 M4.05 7.4 L0.75 5.55 0.2 -5.75 7.85 0.95 4.05 7.4" fill="#cd960d" fill-rule="evenodd" stroke="none"/>
    <path d="M-52.95 -26.0 L-49.15 -21.65 -31.2 -7.9 Q-12.05 4.25 -0.2 2.1 L-0.15 2.95 Q-9.85 9.75 -30.4 3.7 L-36.65 1.4 Q-47.55 -2.1 -55.55 -6.95 -58.45 -15.9 -56.5 -25.45 L-53.3 -26.45 -52.95 -26.0 Q-52.6 -10.55 -37.35 1.15 L-36.65 1.4 M-33.7 18.95 L-33.5 18.9 -26.45 18.4 Q-6.95 16.15 0.05 5.75 L-0.05 5.1 -0.25 4.25 Q-10.0 10.7 -30.75 4.95 L-54.65 -4.75 Q-58.15 -6.65 -61.2 -9.05 L-60.85 -8.65 Q-54.55 11.55 -34.05 18.7 L-33.7 18.95 Q-45.65 19.65 -55.95 17.55 -63.35 7.5 -65.65 -6.95 L-62.15 -9.6 -60.85 -8.65 M3.85 8.3 L0.85 6.7 0.7 6.55 Q-6.3 17.35 -26.5 19.85 L-54.9 20.05 -64.3 17.8 -64.15 17.95 Q-48.55 39.4 -25.5 37.0 -2.8 34.6 3.85 8.3 L3.9 8.45 Q3.8 22.0 -0.45 31.9 -2.45 37.25 -5.7 41.1 -9.95 46.8 -16.1 49.7 -38.65 60.9 -58.75 37.0 -64.0 30.8 -68.5 22.45 L-65.55 17.5 Q-64.5 17.75 -64.15 17.95 M4.05 7.4 L7.85 0.95 0.2 -5.75 0.75 5.55 4.05 7.4" fill="none" stroke="#856301" stroke-linecap="round" stroke-linejoin="round" stroke-width="9.0"/>
    <path d="M-33.7 18.95 L-34.05 18.7 Q-54.55 11.55 -60.85 -8.65 L-61.2 -9.05 Q-58.15 -6.65 -54.65 -4.75 L-30.75 4.95 Q-10.0 10.7 -0.25 4.25 L-0.05 5.1 0.05 5.75 Q-6.95 16.15 -26.45 18.4 L-33.5 18.9 -33.7 18.95 M-52.95 -26.0 L-49.15 -21.65 -31.2 -7.9 Q-12.05 4.25 -0.2 2.1 L-0.15 2.95 Q-9.85 9.75 -30.4 3.7 L-36.65 1.4 -37.35 1.15 Q-52.6 -10.55 -52.95 -26.0 M3.85 8.3 Q-2.8 34.6 -25.5 37.0 -48.55 39.4 -64.15 17.95 L-64.3 17.8 -54.9 20.05 -26.5 19.85 Q-6.3 17.35 0.7 6.55 L0.85 6.7 3.85 8.3" fill="#ffcc33" fill-rule="evenodd" stroke="none"/>
    <path d="M-33.7 18.95 Q-45.65 19.65 -55.95 17.55 -63.35 7.5 -65.65 -6.95 L-62.15 -9.6 -60.85 -8.65 Q-54.55 11.55 -34.05 18.7 L-33.7 18.95 M-36.65 1.4 Q-47.55 -2.1 -55.55 -6.95 -58.45 -15.9 -56.5 -25.45 L-53.3 -26.45 -52.95 -26.0 Q-52.6 -10.55 -37.35 1.15 L-36.65 1.4 M3.85 8.3 L3.9 8.45 Q3.8 22.0 -0.45 31.9 -2.45 37.25 -5.7 41.1 -9.95 46.8 -16.1 49.7 -38.65 60.9 -58.75 37.0 -64.0 30.8 -68.5 22.45 L-65.55 17.5 Q-64.5 17.75 -64.15 17.95 -48.55 39.4 -25.5 37.0 -2.8 34.6 3.85 8.3 M4.05 7.4 L0.75 5.55 0.2 -5.75 7.85 0.95 4.05 7.4" fill="#cd960d" fill-rule="evenodd" stroke="none"/>
  </g>
</svg>
