<?xml version="1.0" encoding="UTF-8" standalone="no"?>
<svg xmlns:xlink="http://www.w3.org/1999/xlink" height="23.15px" width="19.55px" xmlns="http://www.w3.org/2000/svg">
  <g transform="matrix(1.0, 0.0, 0.0, 1.0, 10.3, 9.3)">
    <path d="M-6.4 3.25 L-6.55 3.5 -6.05 4.1 Q-5.5 4.45 -5.5 5.05 -5.5 5.55 -6.15 5.55 -7.45 5.55 -10.05 4.05 L-10.3 3.7 Q-10.3 3.2 -9.55 3.05 L-8.75 2.95 -8.35 3.0 Q-7.95 3.0 -7.95 2.65 L-2.5 -9.3 -6.4 3.25" fill="url(#gradient0)" fill-rule="evenodd" stroke="none"/>
    <path d="M5.6 4.9 L5.9 4.75 5.75 4.0 Q5.45 3.45 5.75 2.9 L6.55 2.8 Q7.7 3.45 9.2 6.05 L9.25 6.5 8.25 6.65 Q7.9 6.6 7.5 6.35 L7.2 6.1 6.65 6.2 -4.0 13.85 5.6 4.9" fill="url(#gradient1)" fill-rule="evenodd" stroke="none"/>
  </g>
  <defs>
    <linearGradient gradientTransform="matrix(0.0, 0.008, -0.0044, 0.0, -6.7, -1.0)" gradientUnits="userSpaceOnUse" id="gradient0" spreadMethod="pad" x1="-819.2" x2="819.2">
      <stop offset="0.0" stop-color="#ffffff"/>
      <stop offset="0.09019607843137255" stop-color="#ffcc00"/>
      <stop offset="0.4745098039215686" stop-color="#ff0000"/>
      <stop offset="0.7686274509803922" stop-color="#000000"/>
      <stop offset="1.0" stop-color="#000000"/>
    </linearGradient>
    <linearGradient gradientTransform="matrix(0.004, -0.0069, 0.0038, 0.0022, 3.8, 8.75)" gradientUnits="userSpaceOnUse" id="gradient1" spreadMethod="pad" x1="-819.2" x2="819.2">
      <stop offset="0.0" stop-color="#ffffff"/>
      <stop offset="0.09019607843137255" stop-color="#ffcc00"/>
      <stop offset="0.4745098039215686" stop-color="#ff0000"/>
      <stop offset="0.7686274509803922" stop-color="#000000"/>
      <stop offset="1.0" stop-color="#000000"/>
    </linearGradient>
  </defs>
</svg>
