<?xml version="1.0" encoding="UTF-8" standalone="no"?>
<svg xmlns:xlink="http://www.w3.org/1999/xlink" height="13.25px" width="16.85px" xmlns="http://www.w3.org/2000/svg">
  <g transform="matrix(1.0, 0.0, 0.0, 1.0, -0.8, -1.0)">
    <path d="M0.8 12.3 L1.0 12.3 3.35 12.5 Q5.85 12.9 9.0 13.85 11.55 14.65 14.55 13.85 L16.9 12.85 Q16.4 10.7 16.9 7.15 17.35 3.95 17.2 1.7 L14.8 2.35 9.1 1.95 4.0 1.1 0.9 1.0 Q1.95 3.5 1.6 7.8 1.1 12.15 0.8 12.3" fill="#9b5ce9" fill-rule="evenodd" stroke="none">
      <animate attributeName="fill" dur="2s" repeatCount="indefinite" values="#9b5ce9;#9b5cea"/>
      <animate attributeName="fill-opacity" dur="2s" repeatCount="indefinite" values="1.0;1.0"/>
      <animate attributeName="d" dur="2s" repeatCount="indefinite" values="M0.8 12.3 L1.0 12.3 3.35 12.5 Q5.85 12.9 9.0 13.85 11.55 14.65 14.55 13.85 L16.9 12.85 Q16.4 10.7 16.9 7.15 17.35 3.95 17.2 1.7 L14.8 2.35 9.1 1.95 4.0 1.1 0.9 1.0 Q1.95 3.5 1.6 7.8 1.1 12.15 0.8 12.3;M0.8 12.3 L0.8 12.3 3.2 13.05 Q6.15 13.35 9.1 13.6 11.95 13.2 14.75 12.85 L16.9 12.2 Q17.6 9.1 17.65 6.15 17.65 3.65 16.7 1.25 L14.25 1.3 8.5 1.9 3.5 1.65 1.0 1.3 Q1.95 3.75 1.6 8.0 1.1 12.1 0.8 12.3"/>
    </path>
    <path d="M0.8 12.3 Q1.1 12.15 1.6 7.8 1.95 3.5 0.9 1.0 L4.0 1.1 9.1 1.95 14.8 2.35 17.2 1.7 Q17.35 3.95 16.9 7.15 16.4 10.7 16.9 12.85 L14.55 13.85 Q11.55 14.65 9.0 13.85 5.85 12.9 3.35 12.5 L1.0 12.3 0.8 12.3" fill="none" stroke="#000000" stroke-linecap="round" stroke-linejoin="round" stroke-opacity="0.0" stroke-width="1.0">
      <animate attributeName="stroke" dur="2s" repeatCount="indefinite" values="#000000;#000001"/>
      <animate attributeName="stroke-width" dur="2s" repeatCount="indefinite" values="0.0;0.0"/>
      <animate attributeName="fill-opacity" dur="2s" repeatCount="indefinite" values="0.0;0.0"/>
      <animate attributeName="d" dur="2s" repeatCount="indefinite" values="M0.8 12.3 Q1.1 12.15 1.6 7.8 1.95 3.5 0.9 1.0 L4.0 1.1 9.1 1.95 14.8 2.35 17.2 1.7 Q17.35 3.95 16.9 7.15 16.4 10.7 16.9 12.85 L14.55 13.85 Q11.55 14.65 9.0 13.85 5.85 12.9 3.35 12.5 L1.0 12.3 0.8 12.3;M0.8 12.3 Q1.1 12.1 1.6 8.0 1.95 3.75 1.0 1.3 L3.5 1.65 8.5 1.9 14.25 1.3 16.7 1.25 Q17.65 3.65 17.65 6.15 17.6 9.1 16.9 12.2 L14.75 12.85 Q11.95 13.2 9.1 13.6 6.15 13.35 3.2 13.05 L0.8 12.3 0.8 12.3"/>
    </path>
  </g>
</svg>
