<?xml version="1.0" encoding="UTF-8" standalone="no"?>
<svg xmlns:xlink="http://www.w3.org/1999/xlink" height="127.1px" width="125.95px" xmlns="http://www.w3.org/2000/svg">
  <g transform="matrix(1.0, 0.0, 0.0, 1.0, 65.85, 64.7)">
    <path d="M-62.9 21.5 L-62.75 22.05 Q-61.9 25.1 -56.3 27.75 L-56.2 27.75 Q-49.85 30.75 -48.8 33.1 L-48.75 33.2 Q-47.9 37.05 -47.1 40.85 L-46.9 41.65 Q-45.9 46.5 -43.55 47.7 L-41.0 48.15 Q-37.65 47.85 -34.3 47.6 L-31.8 47.3 Q-26.75 47.5 -21.75 47.7 L-21.35 47.8 Q-19.2 48.5 -16.5 50.65 -14.7 52.2 -12.95 53.75 L-12.65 53.95 Q-10.75 55.75 -8.75 56.8 -6.15 58.15 -3.35 58.3 L-3.05 58.3 Q2.15 58.45 6.6 55.15 L10.75 52.55 Q13.45 51.15 15.95 50.8 L17.45 50.65 Q19.6 50.5 22.55 50.7 26.95 51.15 31.35 51.6 L33.45 51.85 Q40.35 52.6 42.7 51.15 L43.65 50.35 Q45.45 48.35 45.65 43.65 45.75 41.25 46.0 39.35 46.5 35.55 47.65 33.55 48.85 31.5 51.35 29.3 52.75 28.05 55.7 25.75 58.05 23.7 59.15 21.5 60.35 19.15 60.0 16.7 59.75 14.95 58.25 11.6 57.25 9.55 56.25 7.55 55.0 5.1 54.75 2.65 54.5 0.3 55.15 -2.1 55.85 -4.7 56.5 -7.3 57.75 -12.2 58.3 -16.2 59.25 -22.75 58.5 -26.85 57.95 -29.8 56.55 -31.5 53.65 -34.95 46.35 -35.7 L45.45 -35.8 Q37.75 -36.7 33.95 -39.35 L32.35 -40.75 Q29.45 -43.75 26.25 -50.65 L25.95 -51.25 Q22.7 -57.95 18.5 -58.35 L17.6 -58.4 Q13.6 -58.4 10.0 -54.45 L9.9 -54.35 Q6.7 -50.95 4.55 -50.05 L3.25 -49.7 Q1.45 -49.55 -2.35 -52.1 -4.05 -53.35 -5.7 -54.6 -7.1 -55.6 -8.45 -56.55 -12.55 -59.05 -15.2 -58.1 L-15.4 -58.0 Q-18.3 -56.95 -21.0 -54.8 L-22.8 -53.6 Q-24.45 -52.7 -26.5 -52.25 L-29.9 -51.95 Q-32.3 -52.0 -34.65 -52.0 L-35.45 -52.0 Q-38.45 -52.05 -40.1 -51.25 L-41.6 -49.95 Q-42.45 -48.6 -42.15 -45.5 L-41.85 -43.4 Q-41.35 -40.65 -41.65 -38.85 -41.85 -37.65 -42.4 -36.9 -43.15 -35.85 -44.95 -34.5 L-48.55 -32.2 -50.65 -30.8 Q-53.25 -28.95 -54.15 -27.0 -55.3 -24.6 -54.55 -17.1 L-54.45 -16.2 Q-53.6 -8.1 -53.85 -2.85 L-54.05 -0.35 -54.55 2.45 Q-55.1 4.6 -56.1 6.85 -57.35 9.65 -59.3 12.6 L-60.4 14.35 Q-63.25 19.05 -62.9 21.5" fill="#b1e939" fill-rule="evenodd" stroke="none">
      <animate attributeName="fill" dur="2s" repeatCount="indefinite" values="#b1e939;#b1e93a"/>
      <animate attributeName="fill-opacity" dur="2s" repeatCount="indefinite" values="1.0;1.0"/>
      <animate attributeName="d" dur="2s" repeatCount="indefinite" values="M-62.9 21.5 L-62.75 22.05 Q-61.9 25.1 -56.3 27.75 L-56.2 27.75 Q-49.85 30.75 -48.8 33.1 L-48.75 33.2 Q-47.9 37.05 -47.1 40.85 L-46.9 41.65 Q-45.9 46.5 -43.55 47.7 L-41.0 48.15 Q-37.65 47.85 -34.3 47.6 L-31.8 47.3 Q-26.75 47.5 -21.75 47.7 L-21.35 47.8 Q-19.2 48.5 -16.5 50.65 -14.7 52.2 -12.95 53.75 L-12.65 53.95 Q-10.75 55.75 -8.75 56.8 -6.15 58.15 -3.35 58.3 L-3.05 58.3 Q2.15 58.45 6.6 55.15 L10.75 52.55 Q13.45 51.15 15.95 50.8 L17.45 50.65 Q19.6 50.5 22.55 50.7 26.95 51.15 31.35 51.6 L33.45 51.85 Q40.35 52.6 42.7 51.15 L43.65 50.35 Q45.45 48.35 45.65 43.65 45.75 41.25 46.0 39.35 46.5 35.55 47.65 33.55 48.85 31.5 51.35 29.3 52.75 28.05 55.7 25.75 58.05 23.7 59.15 21.5 60.35 19.15 60.0 16.7 59.75 14.95 58.25 11.6 57.25 9.55 56.25 7.55 55.0 5.1 54.75 2.65 54.5 0.3 55.15 -2.1 55.85 -4.7 56.5 -7.3 57.75 -12.2 58.3 -16.2 59.25 -22.75 58.5 -26.85 57.95 -29.8 56.55 -31.5 53.65 -34.95 46.35 -35.7 L45.45 -35.8 Q37.75 -36.7 33.95 -39.35 L32.35 -40.75 Q29.45 -43.75 26.25 -50.65 L25.95 -51.25 Q22.7 -57.95 18.5 -58.35 L17.6 -58.4 Q13.6 -58.4 10.0 -54.45 L9.9 -54.35 Q6.7 -50.95 4.55 -50.05 L3.25 -49.7 Q1.45 -49.55 -2.35 -52.1 -4.05 -53.35 -5.7 -54.6 -7.1 -55.6 -8.45 -56.55 -12.55 -59.05 -15.2 -58.1 L-15.4 -58.0 Q-18.3 -56.95 -21.0 -54.8 L-22.8 -53.6 Q-24.45 -52.7 -26.5 -52.25 L-29.9 -51.95 Q-32.3 -52.0 -34.65 -52.0 L-35.45 -52.0 Q-38.45 -52.05 -40.1 -51.25 L-41.6 -49.95 Q-42.45 -48.6 -42.15 -45.5 L-41.85 -43.4 Q-41.35 -40.65 -41.65 -38.85 -41.85 -37.65 -42.4 -36.9 -43.15 -35.85 -44.95 -34.5 L-48.55 -32.2 -50.65 -30.8 Q-53.25 -28.95 -54.15 -27.0 -55.3 -24.6 -54.55 -17.1 L-54.45 -16.2 Q-53.6 -8.1 -53.85 -2.85 L-54.05 -0.35 -54.55 2.45 Q-55.1 4.6 -56.1 6.85 -57.35 9.65 -59.3 12.6 L-60.4 14.35 Q-63.25 19.05 -62.9 21.5;M-65.85 12.65 L-65.85 12.65 Q-65.8 15.9 -59.9 18.65 L-59.8 18.65 Q-52.5 22.15 -51.75 23.0 L-51.65 23.15 Q-50.8 24.35 -48.9 30.3 L-48.6 31.15 Q-47.3 34.8 -45.05 37.2 L-43.05 39.0 Q-40.2 41.05 -36.95 42.1 L-34.5 42.7 Q-28.1 44.0 -24.7 45.3 L-24.4 45.4 Q-21.35 46.6 -20.0 49.25 -19.25 50.7 -18.55 53.95 L-18.45 54.35 Q-17.8 57.7 -16.95 59.15 -15.5 61.5 -12.4 62.2 L-12.2 62.2 Q-8.45 63.05 -2.4 60.3 L1.75 58.1 Q4.15 56.7 6.55 55.35 L8.2 54.5 Q11.5 53.0 13.4 53.5 15.9 54.2 21.45 56.7 L23.25 57.55 Q28.7 59.4 32.15 57.35 L33.2 56.65 Q35.4 54.85 36.25 50.5 36.5 48.4 36.7 46.35 36.85 43.05 37.3 40.6 38.0 36.85 39.4 35.05 41.25 33.1 43.05 31.2 44.9 29.3 46.75 27.4 48.35 25.45 49.9 23.5 51.45 21.2 52.25 18.75 52.9 16.7 52.65 14.3 52.45 11.95 51.35 9.35 50.35 6.85 49.9 4.7 49.25 1.75 49.6 -0.65 50.0 -3.2 52.5 -8.85 54.7 -14.0 56.9 -19.1 57.75 -21.45 58.55 -23.75 60.9 -31.95 58.15 -35.25 L57.5 -35.9 Q53.85 -38.9 46.45 -38.9 L44.25 -38.85 Q35.2 -38.3 31.9 -39.45 L31.25 -39.7 Q27.65 -41.4 25.4 -47.8 L25.1 -48.6 Q23.05 -55.2 20.45 -56.1 L20.35 -56.1 Q17.0 -57.1 13.65 -56.95 L12.45 -56.85 Q8.85 -56.6 5.9 -56.7 3.7 -56.7 1.8 -58.05 0.6 -58.9 -0.45 -60.3 -3.35 -64.05 -6.1 -64.6 L-6.3 -64.6 Q-9.4 -65.05 -12.75 -63.25 L-14.65 -62.1 Q-16.25 -60.75 -17.85 -59.45 L-20.95 -57.0 Q-22.35 -55.85 -25.45 -55.2 L-26.15 -55.05 Q-28.4 -54.4 -30.05 -52.5 L-31.25 -50.9 Q-32.2 -49.15 -32.9 -46.45 L-33.65 -44.4 Q-34.65 -41.95 -36.05 -40.55 -36.6 -40.0 -37.6 -39.45 -38.8 -38.8 -40.55 -38.1 L-44.75 -36.55 -47.1 -35.7 Q-49.7 -34.65 -51.8 -33.35 -56.9 -30.3 -59.1 -25.95 L-59.5 -25.05 Q-62.1 -19.3 -61.1 -12.4 L-60.75 -9.8 -60.3 -6.95 Q-59.9 -4.05 -60.3 -2.15 -60.75 0.1 -62.6 3.75 L-63.55 5.5 Q-65.85 9.65 -65.85 12.65"/>
    </path>
    <path d="M-62.9 21.5 Q-63.25 19.05 -60.4 14.35 L-59.3 12.6 Q-57.35 9.65 -56.1 6.85 -55.1 4.6 -54.55 2.45 L-54.05 -0.35 -53.85 -2.85 Q-53.6 -8.1 -54.45 -16.2 L-54.55 -17.1 Q-55.3 -24.6 -54.15 -27.0 -53.25 -28.95 -50.65 -30.8 L-48.55 -32.2 -44.95 -34.5 Q-43.15 -35.85 -42.4 -36.9 -41.85 -37.65 -41.65 -38.85 -41.35 -40.65 -41.85 -43.4 L-42.15 -45.5 Q-42.45 -48.6 -41.6 -49.95 L-40.1 -51.25 Q-38.45 -52.05 -35.45 -52.0 L-34.65 -52.0 Q-32.3 -52.0 -29.9 -51.95 L-26.5 -52.25 Q-24.45 -52.7 -22.8 -53.6 L-21.0 -54.8 Q-18.3 -56.95 -15.4 -58.0 L-15.2 -58.1 Q-12.55 -59.05 -8.45 -56.55 -7.1 -55.6 -5.7 -54.6 -4.05 -53.35 -2.35 -52.1 1.45 -49.55 3.25 -49.7 L4.55 -50.05 Q6.7 -50.95 9.9 -54.35 L10.0 -54.45 Q13.6 -58.4 17.6 -58.4 L18.5 -58.35 Q22.7 -57.95 25.95 -51.25 L26.25 -50.65 Q29.45 -43.75 32.35 -40.75 L33.95 -39.35 Q37.75 -36.7 45.45 -35.8 L46.35 -35.7 Q53.65 -34.95 56.55 -31.5 57.95 -29.8 58.5 -26.85 59.25 -22.75 58.3 -16.2 57.75 -12.2 56.5 -7.3 55.85 -4.7 55.15 -2.1 54.5 0.3 54.75 2.65 55.0 5.1 56.25 7.55 57.25 9.55 58.25 11.6 59.75 14.95 60.0 16.7 60.35 19.15 59.15 21.5 58.05 23.7 55.7 25.75 52.75 28.05 51.35 29.3 48.85 31.5 47.65 33.55 46.5 35.55 46.0 39.35 45.75 41.25 45.65 43.65 45.45 48.35 43.65 50.35 L42.7 51.15 Q40.35 52.6 33.45 51.85 L31.35 51.6 Q26.95 51.15 22.55 50.7 19.6 50.5 17.45 50.65 L15.95 50.8 Q13.45 51.15 10.75 52.55 L6.6 55.15 Q2.15 58.45 -3.05 58.3 L-3.35 58.3 Q-6.15 58.15 -8.75 56.8 -10.75 55.75 -12.65 53.95 L-12.95 53.75 Q-14.7 52.2 -16.5 50.65 -19.2 48.5 -21.35 47.8 L-21.75 47.7 Q-26.75 47.5 -31.8 47.3 L-34.3 47.6 Q-37.65 47.85 -41.0 48.15 L-43.55 47.7 Q-45.9 46.5 -46.9 41.65 L-47.1 40.85 Q-47.9 37.05 -48.75 33.2 L-48.8 33.1 Q-49.85 30.75 -56.2 27.75 L-56.3 27.75 Q-61.9 25.1 -62.75 22.05 L-62.9 21.5" fill="none" stroke="#000000" stroke-linecap="round" stroke-linejoin="round" stroke-opacity="0.0" stroke-width="1.0">
      <animate attributeName="stroke" dur="2s" repeatCount="indefinite" values="#000000;#000001"/>
      <animate attributeName="stroke-width" dur="2s" repeatCount="indefinite" values="0.0;0.0"/>
      <animate attributeName="fill-opacity" dur="2s" repeatCount="indefinite" values="0.0;0.0"/>
      <animate attributeName="d" dur="2s" repeatCount="indefinite" values="M-62.9 21.5 Q-63.25 19.05 -60.4 14.35 L-59.3 12.6 Q-57.35 9.65 -56.1 6.85 -55.1 4.6 -54.55 2.45 L-54.05 -0.35 -53.85 -2.85 Q-53.6 -8.1 -54.45 -16.2 L-54.55 -17.1 Q-55.3 -24.6 -54.15 -27.0 -53.25 -28.95 -50.65 -30.8 L-48.55 -32.2 -44.95 -34.5 Q-43.15 -35.85 -42.4 -36.9 -41.85 -37.65 -41.65 -38.85 -41.35 -40.65 -41.85 -43.4 L-42.15 -45.5 Q-42.45 -48.6 -41.6 -49.95 L-40.1 -51.25 Q-38.45 -52.05 -35.45 -52.0 L-34.65 -52.0 Q-32.3 -52.0 -29.9 -51.95 L-26.5 -52.25 Q-24.45 -52.7 -22.8 -53.6 L-21.0 -54.8 Q-18.3 -56.95 -15.4 -58.0 L-15.2 -58.1 Q-12.55 -59.05 -8.45 -56.55 -7.1 -55.6 -5.7 -54.6 -4.05 -53.35 -2.35 -52.1 1.45 -49.55 3.25 -49.7 L4.55 -50.05 Q6.7 -50.95 9.9 -54.35 L10.0 -54.45 Q13.6 -58.4 17.6 -58.4 L18.5 -58.35 Q22.7 -57.95 25.95 -51.25 L26.25 -50.65 Q29.45 -43.75 32.35 -40.75 L33.95 -39.35 Q37.75 -36.7 45.45 -35.8 L46.35 -35.7 Q53.65 -34.95 56.55 -31.5 57.95 -29.8 58.5 -26.85 59.25 -22.75 58.3 -16.2 57.75 -12.2 56.5 -7.3 55.85 -4.7 55.15 -2.1 54.5 0.3 54.75 2.65 55.0 5.1 56.25 7.55 57.25 9.55 58.25 11.6 59.75 14.95 60.0 16.7 60.35 19.15 59.15 21.5 58.05 23.7 55.7 25.75 52.75 28.05 51.35 29.3 48.85 31.5 47.65 33.55 46.5 35.55 46.0 39.35 45.75 41.25 45.65 43.65 45.45 48.35 43.65 50.35 L42.7 51.15 Q40.35 52.6 33.45 51.85 L31.35 51.6 Q26.95 51.15 22.55 50.7 19.6 50.5 17.45 50.65 L15.95 50.8 Q13.45 51.15 10.75 52.55 L6.6 55.15 Q2.15 58.45 -3.05 58.3 L-3.35 58.3 Q-6.15 58.15 -8.75 56.8 -10.75 55.75 -12.65 53.95 L-12.95 53.75 Q-14.7 52.2 -16.5 50.65 -19.2 48.5 -21.35 47.8 L-21.75 47.7 Q-26.75 47.5 -31.8 47.3 L-34.3 47.6 Q-37.65 47.85 -41.0 48.15 L-43.55 47.7 Q-45.9 46.5 -46.9 41.65 L-47.1 40.85 Q-47.9 37.05 -48.75 33.2 L-48.8 33.1 Q-49.85 30.75 -56.2 27.75 L-56.3 27.75 Q-61.9 25.1 -62.75 22.05 L-62.9 21.5;M-65.85 12.65 Q-65.85 9.65 -63.55 5.5 L-62.6 3.75 Q-60.75 0.1 -60.3 -2.15 -59.9 -4.05 -60.3 -6.95 L-60.75 -9.8 -61.1 -12.4 Q-62.1 -19.3 -59.5 -25.05 L-59.1 -25.95 Q-56.9 -30.3 -51.8 -33.35 -49.7 -34.65 -47.1 -35.7 L-44.75 -36.55 -40.55 -38.1 Q-38.8 -38.8 -37.6 -39.45 -36.6 -40.0 -36.05 -40.55 -34.65 -41.95 -33.65 -44.4 L-32.9 -46.45 Q-32.2 -49.15 -31.25 -50.9 L-30.05 -52.5 Q-28.4 -54.4 -26.15 -55.05 L-25.45 -55.2 Q-22.35 -55.85 -20.95 -57.0 L-17.85 -59.45 Q-16.25 -60.75 -14.65 -62.1 L-12.75 -63.25 Q-9.4 -65.05 -6.3 -64.6 L-6.1 -64.6 Q-3.35 -64.05 -0.45 -60.3 0.6 -58.9 1.8 -58.05 3.7 -56.7 5.9 -56.7 8.85 -56.6 12.45 -56.85 L13.65 -56.95 Q17.0 -57.1 20.35 -56.1 L20.45 -56.1 Q23.05 -55.2 25.1 -48.6 L25.4 -47.8 Q27.65 -41.4 31.25 -39.7 L31.9 -39.45 Q35.2 -38.3 44.25 -38.85 L46.45 -38.9 Q53.85 -38.9 57.5 -35.9 L58.15 -35.25 Q60.9 -31.95 58.55 -23.75 57.75 -21.45 56.9 -19.1 54.7 -14.0 52.5 -8.85 50.0 -3.2 49.6 -0.65 49.25 1.75 49.9 4.7 50.35 6.85 51.35 9.35 52.45 11.95 52.65 14.3 52.9 16.7 52.25 18.75 51.45 21.2 49.9 23.5 48.35 25.45 46.75 27.4 44.9 29.3 43.05 31.2 41.25 33.1 39.4 35.05 38.0 36.85 37.3 40.6 36.85 43.05 36.7 46.35 36.5 48.4 36.25 50.5 35.4 54.85 33.2 56.65 L32.15 57.35 Q28.7 59.4 23.25 57.55 L21.45 56.7 Q15.9 54.2 13.4 53.5 11.5 53.0 8.2 54.5 L6.55 55.35 Q4.15 56.7 1.75 58.1 L-2.4 60.3 Q-8.45 63.05 -12.2 62.2 L-12.4 62.2 Q-15.5 61.5 -16.95 59.15 -17.8 57.7 -18.45 54.35 L-18.55 53.95 Q-19.25 50.7 -20.0 49.25 -21.35 46.6 -24.4 45.4 L-24.7 45.3 Q-28.1 44.0 -34.5 42.7 L-36.95 42.1 Q-40.2 41.05 -43.05 39.0 L-45.05 37.2 Q-47.3 34.8 -48.6 31.15 L-48.9 30.3 Q-50.8 24.35 -51.65 23.15 L-51.75 23.0 Q-52.5 22.15 -59.8 18.65 L-59.9 18.65 Q-65.8 15.9 -65.85 12.65 L-65.85 12.65"/>
    </path>
  </g>
</svg>
