<?xml version="1.0" encoding="UTF-8" standalone="no"?>
<svg xmlns:xlink="http://www.w3.org/1999/xlink" height="34.55px" width="9.45px" xmlns="http://www.w3.org/2000/svg">
  <g transform="matrix(1.0, 0.0, 0.0, 1.0, 45.3, 23.45)">
    <path d="M-42.55 5.75 L-42.5 9.0 Q-42.25 11.1 -41.0 11.1 -40.35 11.1 -39.45 2.95 -38.65 -4.1 -38.6 -6.45 -38.55 -12.95 -39.1 -15.05 -39.6 -16.8 -40.4 -14.4 -41.2 -12.0 -41.8 -6.85 -42.45 -1.05 -42.55 5.75" fill="#b1e939" fill-rule="evenodd" stroke="none">
      <animate attributeName="fill" dur="2s" repeatCount="indefinite" values="#b1e939;#b1e93a"/>
      <animate attributeName="fill-opacity" dur="2s" repeatCount="indefinite" values="1.0;0.0"/>
      <animate attributeName="d" dur="2s" repeatCount="indefinite" values="M-42.55 5.75 L-42.5 9.0 Q-42.25 11.1 -41.0 11.1 -40.35 11.1 -39.45 2.95 -38.65 -4.1 -38.6 -6.45 -38.55 -12.95 -39.1 -15.05 -39.6 -16.8 -40.4 -14.4 -41.2 -12.0 -41.8 -6.85 -42.45 -1.05 -42.55 5.75;M-45.3 -10.05 L-45.25 -8.05 Q-44.65 -6.75 -41.55 -6.75 -40.0 -6.75 -37.85 -11.8 -35.9 -16.2 -35.85 -17.65 -35.7 -21.7 -36.95 -23.0 -38.2 -24.1 -40.15 -22.6 -42.05 -21.1 -43.5 -17.9 -45.05 -14.3 -45.3 -10.05"/>
    </path>
    <path d="M-42.55 5.75 Q-42.45 -1.05 -41.8 -6.85 -41.2 -12.0 -40.4 -14.4 -39.6 -16.8 -39.1 -15.05 -38.55 -12.95 -38.6 -6.45 -38.65 -4.1 -39.45 2.95 -40.35 11.1 -41.0 11.1 -42.25 11.1 -42.5 9.0 L-42.55 5.75" fill="none" stroke="#000000" stroke-linecap="round" stroke-linejoin="round" stroke-opacity="0.0" stroke-width="1.0">
      <animate attributeName="stroke" dur="2s" repeatCount="indefinite" values="#000000;#000001"/>
      <animate attributeName="stroke-width" dur="2s" repeatCount="indefinite" values="0.0;0.0"/>
      <animate attributeName="fill-opacity" dur="2s" repeatCount="indefinite" values="0.0;0.0"/>
      <animate attributeName="d" dur="2s" repeatCount="indefinite" values="M-42.55 5.75 Q-42.45 -1.05 -41.8 -6.85 -41.2 -12.0 -40.4 -14.4 -39.6 -16.8 -39.1 -15.05 -38.55 -12.95 -38.6 -6.45 -38.65 -4.1 -39.45 2.95 -40.35 11.1 -41.0 11.1 -42.25 11.1 -42.5 9.0 L-42.55 5.75;M-45.3 -10.05 Q-45.05 -14.3 -43.5 -17.9 -42.05 -21.1 -40.15 -22.6 -38.2 -24.1 -36.95 -23.0 -35.7 -21.7 -35.85 -17.65 -35.9 -16.2 -37.85 -11.8 -40.0 -6.75 -41.55 -6.75 -44.65 -6.75 -45.25 -8.05 L-45.3 -10.05"/>
    </path>
  </g>
</svg>
