<?xml version="1.0" encoding="UTF-8" standalone="no"?>
<svg xmlns:xlink="http://www.w3.org/1999/xlink" height="67.35px" width="111.1px" xmlns="http://www.w3.org/2000/svg">
  <g transform="matrix(1.0, 0.0, 0.0, 1.0, 67.45, 109.75)">
    <path d="M-67.45 -60.05 L-60.6 -42.4 Q-43.2 -70.15 -20.55 -86.35 1.7 -71.3 21.7 -44.55 L27.65 -62.5 Q16.45 -76.35 3.65 -88.8 -9.65 -101.8 -21.15 -109.75 -33.3 -101.5 -45.85 -88.0 -58.3 -74.6 -67.45 -60.05" fill="#ffcc33" fill-rule="evenodd" stroke="none">
      <animate attributeName="fill" dur="2s" repeatCount="indefinite" values="#ffcc33;#ffcc34"/>
      <animate attributeName="fill-opacity" dur="2s" repeatCount="indefinite" values="1.0;1.0"/>
      <animate attributeName="d" dur="2s" repeatCount="indefinite" values="M-67.45 -60.05 L-60.6 -42.4 Q-43.2 -70.15 -20.55 -86.35 1.7 -71.3 21.7 -44.55 L27.65 -62.5 Q16.45 -76.35 3.65 -88.8 -9.65 -101.8 -21.15 -109.75 -33.3 -101.5 -45.85 -88.0 -58.3 -74.6 -67.45 -60.05;M-51.45 -60.05 L-44.6 -42.4 Q-27.2 -70.15 -4.55 -86.35 17.7 -71.3 37.7 -44.55 L43.65 -62.5 Q32.45 -76.35 19.65 -88.8 6.35 -101.8 -5.15 -109.75 -17.3 -101.5 -29.85 -88.0 -42.3 -74.6 -51.45 -60.05"/>
    </path>
    <path d="M-67.45 -60.05 Q-58.3 -74.6 -45.85 -88.0 -33.3 -101.5 -21.15 -109.75 -9.65 -101.8 3.65 -88.8 16.45 -76.35 27.65 -62.5 L21.7 -44.55 Q1.7 -71.3 -20.55 -86.35 -43.2 -70.15 -60.6 -42.4 L-67.45 -60.05" fill="none" stroke="#000000" stroke-linecap="round" stroke-linejoin="round" stroke-opacity="0.0" stroke-width="1.0">
      <animate attributeName="stroke" dur="2s" repeatCount="indefinite" values="#000000;#000001"/>
      <animate attributeName="stroke-width" dur="2s" repeatCount="indefinite" values="0.0;0.0"/>
      <animate attributeName="fill-opacity" dur="2s" repeatCount="indefinite" values="0.0;0.0"/>
      <animate attributeName="d" dur="2s" repeatCount="indefinite" values="M-67.45 -60.05 Q-58.3 -74.6 -45.85 -88.0 -33.3 -101.5 -21.15 -109.75 -9.65 -101.8 3.65 -88.8 16.45 -76.35 27.65 -62.5 L21.7 -44.55 Q1.7 -71.3 -20.55 -86.35 -43.2 -70.15 -60.6 -42.4 L-67.45 -60.05;M-51.45 -60.05 Q-42.3 -74.6 -29.85 -88.0 -17.3 -101.5 -5.15 -109.75 6.35 -101.8 19.65 -88.8 32.45 -76.35 43.65 -62.5 L37.7 -44.55 Q17.7 -71.3 -4.55 -86.35 -27.2 -70.15 -44.6 -42.4 L-51.45 -60.05"/>
    </path>
  </g>
</svg>
