<?xml version="1.0" encoding="UTF-8" standalone="no"?>
<svg xmlns:xlink="http://www.w3.org/1999/xlink" height="77.75px" width="89.2px" xmlns="http://www.w3.org/2000/svg">
  <g transform="matrix(1.0, 0.0, 0.0, 1.0, 360.95, 668.95)">
    <path d="M-343.8 -636.45 Q-343.3 -635.7 -341.8 -635.95 -340.2 -636.1 -338.55 -637.2 -336.9 -638.3 -336.15 -639.65 -335.3 -641.0 -337.85 -642.3 -339.4 -642.1 -341.05 -641.0 -342.7 -639.9 -343.5 -638.6 -344.3 -637.2 -343.8 -636.45 M-335.75 -653.05 L-335.65 -652.95 Q-335.0 -652.1 -333.2 -652.35 L-333.05 -652.35 Q-331.05 -652.65 -329.0 -654.0 L-328.8 -654.1 -328.6 -654.3 Q-326.5 -655.65 -325.5 -657.3 -324.4 -659.1 -325.1 -660.1 L-328.0 -660.8 Q-329.95 -660.5 -332.1 -659.1 -334.3 -657.65 -335.35 -655.85 -336.4 -654.05 -335.75 -653.05 M-326.5 -634.3 L-326.25 -634.15 Q-325.85 -634.0 -324.9 -634.35 L-324.5 -634.45 Q-323.35 -634.85 -322.05 -635.75 L-321.45 -636.15 Q-320.3 -637.0 -319.2 -638.4 -318.8 -639.0 -320.55 -639.25 -322.0 -638.5 -323.4 -637.8 L-325.85 -635.75 Q-326.75 -634.7 -326.5 -634.3 M-312.95 -659.7 L-312.85 -659.6 Q-312.2 -658.75 -310.4 -659.0 L-310.25 -659.0 Q-308.25 -659.3 -306.2 -660.65 L-306.0 -660.75 -305.8 -660.95 Q-303.7 -662.3 -302.7 -663.95 -301.6 -665.75 -302.3 -666.75 L-305.2 -667.45 Q-307.15 -667.15 -309.3 -665.75 -311.5 -664.3 -312.55 -662.5 -313.6 -660.7 -312.95 -659.7 M-309.75 -638.4 Q-309.2 -637.6 -306.65 -638.4 -304.1 -639.2 -301.05 -641.25 -298.0 -643.25 -296.25 -645.25 -294.5 -647.3 -298.1 -648.05 -300.65 -647.2 -303.7 -645.2 -306.75 -643.15 -308.5 -641.2 -310.25 -639.2 -309.75 -638.4 M-309.6 -622.0 L-309.5 -621.9 -309.5 -621.9 -307.7 -622.0 -307.4 -622.1 Q-305.95 -622.65 -304.2 -623.8 L-303.6 -624.2 Q-302.1 -625.25 -301.1 -626.4 L-300.55 -627.15 Q-300.2 -627.8 -302.35 -628.05 -303.9 -627.55 -305.85 -626.3 L-308.85 -623.75 Q-309.95 -622.5 -309.6 -622.0 M-305.2 -603.75 L-305.1 -603.65 -305.1 -603.65 -303.3 -603.75 -303.0 -603.85 Q-301.55 -604.4 -299.8 -605.55 L-299.2 -605.95 Q-297.7 -607.0 -296.7 -608.15 L-296.15 -608.9 Q-295.8 -609.55 -297.95 -609.8 -299.5 -609.3 -301.45 -608.05 L-304.45 -605.5 Q-305.55 -604.25 -305.2 -603.75 M-292.0 -641.05 L-291.9 -640.95 -291.9 -640.95 -290.1 -641.05 -289.8 -641.15 Q-288.35 -641.7 -286.6 -642.85 L-286.0 -643.25 Q-284.5 -644.3 -283.5 -645.45 L-282.95 -646.2 Q-282.6 -646.85 -284.75 -647.1 -286.3 -646.6 -288.25 -645.35 -289.75 -644.05 -291.25 -642.8 -292.35 -641.55 -292.0 -641.05 M-287.3 -628.8 Q-286.75 -628.0 -284.2 -628.8 -281.65 -629.6 -278.6 -631.65 -275.55 -633.65 -273.8 -635.65 -272.05 -637.7 -275.65 -638.45 -278.2 -637.6 -281.25 -635.6 -284.3 -633.55 -286.05 -631.6 -287.8 -629.6 -287.3 -628.8" fill="#ffffff" fill-opacity="0.29803923" fill-rule="evenodd" stroke="none">
      <animate attributeName="fill" dur="2s" repeatCount="indefinite" values="#ffffff;#ffffff"/>
      <animate attributeName="fill-opacity" dur="2s" repeatCount="indefinite" values="0.29803923;1.0"/>
      <animate attributeName="d" dur="2s" repeatCount="indefinite" values="M-343.8 -636.45 Q-343.3 -635.7 -341.8 -635.95 -340.2 -636.1 -338.55 -637.2 -336.9 -638.3 -336.15 -639.65 -335.3 -641.0 -337.85 -642.3 -339.4 -642.1 -341.05 -641.0 -342.7 -639.9 -343.5 -638.6 -344.3 -637.2 -343.8 -636.45 M-335.75 -653.05 L-335.65 -652.95 Q-335.0 -652.1 -333.2 -652.35 L-333.05 -652.35 Q-331.05 -652.65 -329.0 -654.0 L-328.8 -654.1 -328.6 -654.3 Q-326.5 -655.65 -325.5 -657.3 -324.4 -659.1 -325.1 -660.1 L-328.0 -660.8 Q-329.95 -660.5 -332.1 -659.1 -334.3 -657.65 -335.35 -655.85 -336.4 -654.05 -335.75 -653.05 M-326.5 -634.3 L-326.25 -634.15 Q-325.85 -634.0 -324.9 -634.35 L-324.5 -634.45 Q-323.35 -634.85 -322.05 -635.75 L-321.45 -636.15 Q-320.3 -637.0 -319.2 -638.4 -318.8 -639.0 -320.55 -639.25 -322.0 -638.5 -323.4 -637.8 L-325.85 -635.75 Q-326.75 -634.7 -326.5 -634.3 M-312.95 -659.7 L-312.85 -659.6 Q-312.2 -658.75 -310.4 -659.0 L-310.25 -659.0 Q-308.25 -659.3 -306.2 -660.65 L-306.0 -660.75 -305.8 -660.95 Q-303.7 -662.3 -302.7 -663.95 -301.6 -665.75 -302.3 -666.75 L-305.2 -667.45 Q-307.15 -667.15 -309.3 -665.75 -311.5 -664.3 -312.55 -662.5 -313.6 -660.7 -312.95 -659.7 M-309.75 -638.4 Q-309.2 -637.6 -306.65 -638.4 -304.1 -639.2 -301.05 -641.25 -298.0 -643.25 -296.25 -645.25 -294.5 -647.3 -298.1 -648.05 -300.65 -647.2 -303.7 -645.2 -306.75 -643.15 -308.5 -641.2 -310.25 -639.2 -309.75 -638.4 M-309.6 -622.0 L-309.5 -621.9 -309.5 -621.9 -307.7 -622.0 -307.4 -622.1 Q-305.95 -622.65 -304.2 -623.8 L-303.6 -624.2 Q-302.1 -625.25 -301.1 -626.4 L-300.55 -627.15 Q-300.2 -627.8 -302.35 -628.05 -303.9 -627.55 -305.85 -626.3 L-308.85 -623.75 Q-309.95 -622.5 -309.6 -622.0 M-305.2 -603.75 L-305.1 -603.65 -305.1 -603.65 -303.3 -603.75 -303.0 -603.85 Q-301.55 -604.4 -299.8 -605.55 L-299.2 -605.95 Q-297.7 -607.0 -296.7 -608.15 L-296.15 -608.9 Q-295.8 -609.55 -297.95 -609.8 -299.5 -609.3 -301.45 -608.05 L-304.45 -605.5 Q-305.55 -604.25 -305.2 -603.75 M-292.0 -641.05 L-291.9 -640.95 -291.9 -640.95 -290.1 -641.05 -289.8 -641.15 Q-288.35 -641.7 -286.6 -642.85 L-286.0 -643.25 Q-284.5 -644.3 -283.5 -645.45 L-282.95 -646.2 Q-282.6 -646.85 -284.75 -647.1 -286.3 -646.6 -288.25 -645.35 -289.75 -644.05 -291.25 -642.8 -292.35 -641.55 -292.0 -641.05 M-287.3 -628.8 Q-286.75 -628.0 -284.2 -628.8 -281.65 -629.6 -278.6 -631.65 -275.55 -633.65 -273.8 -635.65 -272.05 -637.7 -275.65 -638.45 -278.2 -637.6 -281.25 -635.6 -284.3 -633.55 -286.05 -631.6 -287.8 -629.6 -287.3 -628.8;M-360.75 -624.15 Q-360.25 -623.4 -358.75 -623.65 -357.15 -623.8 -355.5 -624.9 -353.85 -626.0 -353.1 -627.35 -352.25 -628.7 -354.8 -630.0 -356.35 -629.8 -358.0 -628.7 -359.65 -627.6 -360.45 -626.3 -361.25 -624.9 -360.75 -624.15 M-352.7 -640.75 L-352.6 -640.7 Q-351.9 -639.8 -350.05 -640.05 L-349.8 -640.05 Q-347.9 -640.45 -345.85 -641.75 L-345.65 -641.85 -345.5 -641.95 Q-343.5 -643.3 -342.55 -644.85 -342.4 -646.15 -342.25 -647.45 L-344.85 -648.5 Q-346.8 -648.25 -349.1 -646.75 -351.2 -645.35 -352.3 -643.55 -353.35 -641.75 -352.7 -640.75 M-343.45 -622.0 L-343.35 -621.9 Q-342.65 -622.0 -341.95 -622.05 L-341.7 -622.05 Q-340.7 -622.4 -339.4 -623.2 L-338.85 -623.6 Q-337.75 -624.35 -336.35 -625.75 -336.0 -626.2 -338.0 -626.8 -339.05 -626.4 -340.6 -625.4 L-342.8 -623.45 Q-343.7 -622.4 -343.45 -622.0 M-329.9 -647.4 L-329.8 -647.35 Q-329.1 -646.45 -327.25 -646.7 L-327.0 -646.7 Q-325.1 -647.1 -323.05 -648.4 L-322.85 -648.5 -322.7 -648.6 Q-320.7 -649.95 -319.75 -651.5 -319.6 -652.8 -319.45 -654.1 L-322.05 -655.15 Q-324.0 -654.9 -326.3 -653.4 -328.4 -652.0 -329.5 -650.2 -330.55 -648.4 -329.9 -647.4 M-326.7 -626.1 Q-325.05 -626.15 -323.45 -626.2 -321.05 -626.95 -317.65 -629.15 -315.0 -630.95 -312.8 -633.45 -311.75 -634.85 -315.25 -635.7 -317.6 -634.85 -320.75 -632.8 -323.65 -630.85 -325.45 -628.9 -327.2 -626.9 -326.7 -626.1 M-326.55 -609.7 L-326.55 -609.7 -326.5 -609.65 -324.65 -609.7 -324.5 -609.8 Q-323.2 -610.25 -321.55 -611.3 L-320.95 -611.65 Q-319.45 -612.65 -318.25 -613.9 L-317.85 -614.35 Q-317.55 -614.75 -319.85 -615.6 -321.15 -615.1 -323.0 -613.85 L-325.8 -611.45 Q-326.9 -610.2 -326.55 -609.7 M-322.15 -591.45 L-322.15 -591.45 -322.1 -591.4 -320.25 -591.45 -320.1 -591.55 Q-318.8 -592.0 -317.15 -593.05 L-316.55 -593.4 Q-315.05 -594.4 -313.85 -595.65 L-313.45 -596.1 Q-313.15 -596.5 -315.45 -597.35 -316.75 -596.85 -318.6 -595.6 L-321.4 -593.2 Q-322.5 -591.95 -322.15 -591.45 M-308.95 -628.75 L-308.95 -628.75 -308.9 -628.7 -307.05 -628.75 -306.9 -628.85 Q-305.6 -629.3 -303.95 -630.35 L-303.35 -630.7 Q-301.85 -631.7 -300.65 -632.95 L-300.25 -633.4 Q-299.95 -633.8 -302.25 -634.65 -303.85 -633.75 -305.4 -632.9 -307.1 -631.75 -308.2 -630.5 -309.3 -629.25 -308.95 -628.75 M-304.25 -616.5 Q-302.6 -616.55 -301.0 -616.6 -298.6 -617.35 -295.2 -619.55 -292.55 -621.35 -290.35 -623.85 -289.3 -625.25 -292.8 -626.1 -295.15 -625.25 -298.3 -623.2 -301.2 -621.25 -303.0 -619.3 -304.75 -617.3 -304.25 -616.5"/>
    </path>
    <path d="M-343.8 -636.45 Q-344.3 -637.2 -343.5 -638.6 -342.7 -639.9 -341.05 -641.0 -339.4 -642.1 -337.85 -642.3 -335.3 -641.0 -336.15 -639.65 -336.9 -638.3 -338.55 -637.2 -340.2 -636.1 -341.8 -635.95 -343.3 -635.7 -343.8 -636.45 -344.3 -637.2 -343.5 -638.6 -342.7 -639.9 -341.05 -641.0 -339.4 -642.1 -337.85 -642.3 -335.3 -641.0 -336.15 -639.65 -336.9 -638.3 -338.55 -637.2 -340.2 -636.1 -341.8 -635.95 -343.3 -635.7 -343.8 -636.45 M-335.75 -653.05 Q-336.4 -654.05 -335.35 -655.85 -334.3 -657.65 -332.1 -659.1 -329.95 -660.5 -328.0 -660.8 L-325.1 -660.1 Q-324.4 -659.1 -325.5 -657.3 -326.5 -655.65 -328.6 -654.3 L-328.8 -654.1 -329.0 -654.0 Q-331.05 -652.65 -333.05 -652.35 L-333.2 -652.35 Q-335.0 -652.1 -335.65 -652.95 L-335.75 -653.05 Q-336.4 -654.05 -335.35 -655.85 -334.3 -657.65 -332.1 -659.1 -329.95 -660.5 -328.0 -660.8 L-325.1 -660.1 Q-324.4 -659.1 -325.5 -657.3 -326.5 -655.65 -328.6 -654.3 L-328.8 -654.1 -329.0 -654.0 Q-331.05 -652.65 -333.05 -652.35 L-333.2 -652.35 Q-335.0 -652.1 -335.65 -652.95 L-335.75 -653.05 M-326.5 -634.3 Q-326.75 -634.7 -325.85 -635.75 L-323.4 -637.8 Q-322.0 -638.5 -320.55 -639.25 -318.8 -639.0 -319.2 -638.4 -320.3 -637.0 -321.45 -636.15 L-322.05 -635.75 Q-323.35 -634.85 -324.5 -634.45 L-324.9 -634.35 Q-325.85 -634.0 -326.25 -634.15 L-326.5 -634.3 Q-326.75 -634.7 -325.85 -635.75 L-323.4 -637.8 Q-322.0 -638.5 -320.55 -639.25 -318.8 -639.0 -319.2 -638.4 -320.3 -637.0 -321.45 -636.15 L-322.05 -635.75 Q-323.35 -634.85 -324.5 -634.45 L-324.9 -634.35 Q-325.85 -634.0 -326.25 -634.15 L-326.5 -634.3 M-312.95 -659.7 Q-313.6 -660.7 -312.55 -662.5 -311.5 -664.3 -309.3 -665.75 -307.15 -667.15 -305.2 -667.45 L-302.3 -666.75 Q-301.6 -665.75 -302.7 -663.95 -303.7 -662.3 -305.8 -660.95 L-306.0 -660.75 -306.2 -660.65 Q-308.25 -659.3 -310.25 -659.0 L-310.4 -659.0 Q-312.2 -658.75 -312.85 -659.6 L-312.95 -659.7 Q-313.6 -660.7 -312.55 -662.5 -311.5 -664.3 -309.3 -665.75 -307.15 -667.15 -305.2 -667.45 L-302.3 -666.75 Q-301.6 -665.75 -302.7 -663.95 -303.7 -662.3 -305.8 -660.95 L-306.0 -660.75 -306.2 -660.65 Q-308.25 -659.3 -310.25 -659.0 L-310.4 -659.0 Q-312.2 -658.75 -312.85 -659.6 L-312.95 -659.7 M-309.75 -638.4 Q-310.25 -639.2 -308.5 -641.2 -306.75 -643.15 -303.7 -645.2 -300.65 -647.2 -298.1 -648.05 -294.5 -647.3 -296.25 -645.25 -298.0 -643.25 -301.05 -641.25 -304.1 -639.2 -306.65 -638.4 -309.2 -637.6 -309.75 -638.4 -310.25 -639.2 -308.5 -641.2 -306.75 -643.15 -303.7 -645.2 -300.65 -647.2 -298.1 -648.05 -294.5 -647.3 -296.25 -645.25 -298.0 -643.25 -301.05 -641.25 -304.1 -639.2 -306.65 -638.4 -309.2 -637.6 -309.75 -638.4 M-309.6 -622.0 Q-309.95 -622.5 -308.85 -623.75 L-305.85 -626.3 Q-303.9 -627.55 -302.35 -628.05 -300.2 -627.8 -300.55 -627.15 L-301.1 -626.4 Q-302.1 -625.25 -303.6 -624.2 L-304.2 -623.8 Q-305.95 -622.65 -307.4 -622.1 L-307.7 -622.0 -309.5 -621.9 -309.5 -621.9 M-309.6 -622.0 Q-309.95 -622.5 -308.85 -623.75 L-305.85 -626.3 Q-303.9 -627.55 -302.35 -628.05 -300.2 -627.8 -300.55 -627.15 L-301.1 -626.4 Q-302.1 -625.25 -303.6 -624.2 L-304.2 -623.8 Q-305.95 -622.65 -307.4 -622.1 L-307.7 -622.0 -309.5 -621.9 -309.5 -621.9 -309.6 -622.0 M-305.2 -603.75 Q-305.55 -604.25 -304.45 -605.5 L-301.45 -608.05 Q-299.5 -609.3 -297.95 -609.8 -295.8 -609.55 -296.15 -608.9 L-296.7 -608.15 Q-297.7 -607.0 -299.2 -605.95 L-299.8 -605.55 Q-301.55 -604.4 -303.0 -603.85 L-303.3 -603.75 -305.1 -603.65 -305.1 -603.65 M-305.2 -603.75 Q-305.55 -604.25 -304.45 -605.5 L-301.45 -608.05 Q-299.5 -609.3 -297.95 -609.8 -295.8 -609.55 -296.15 -608.9 L-296.7 -608.15 Q-297.7 -607.0 -299.2 -605.95 L-299.8 -605.55 Q-301.55 -604.4 -303.0 -603.85 L-303.3 -603.75 -305.1 -603.65 -305.1 -603.65 -305.2 -603.75 M-292.0 -641.05 Q-292.35 -641.55 -291.25 -642.8 -289.75 -644.05 -288.25 -645.35 -286.3 -646.6 -284.75 -647.1 -282.6 -646.85 -282.95 -646.2 L-283.5 -645.45 Q-284.5 -644.3 -286.0 -643.25 L-286.6 -642.85 Q-288.35 -641.7 -289.8 -641.15 L-290.1 -641.05 -291.9 -640.95 -291.9 -640.95 M-292.0 -641.05 Q-292.35 -641.55 -291.25 -642.8 -289.75 -644.05 -288.25 -645.35 -286.3 -646.6 -284.75 -647.1 -282.6 -646.85 -282.95 -646.2 L-283.5 -645.45 Q-284.5 -644.3 -286.0 -643.25 L-286.6 -642.85 Q-288.35 -641.7 -289.8 -641.15 L-290.1 -641.05 -291.9 -640.95 -291.9 -640.95 -292.0 -641.05 M-287.3 -628.8 Q-287.8 -629.6 -286.05 -631.6 -284.3 -633.55 -281.25 -635.6 -278.2 -637.6 -275.65 -638.45 -272.05 -637.7 -273.8 -635.65 -275.55 -633.65 -278.6 -631.65 -281.65 -629.6 -284.2 -628.8 -286.75 -628.0 -287.3 -628.8 -287.8 -629.6 -286.05 -631.6 -284.3 -633.55 -281.25 -635.6 -278.2 -637.6 -275.65 -638.45 -272.05 -637.7 -273.8 -635.65 -275.55 -633.65 -278.6 -631.65 -281.65 -629.6 -284.2 -628.8 -286.75 -628.0 -287.3 -628.8" fill="none" stroke="#5fd6ff" stroke-linecap="round" stroke-linejoin="round" stroke-opacity="0.29803923" stroke-width="3.0">
      <animate attributeName="stroke" dur="2s" repeatCount="indefinite" values="#5fd6ff;#000001"/>
      <animate attributeName="stroke-width" dur="2s" repeatCount="indefinite" values="3.0;0.0"/>
      <animate attributeName="fill-opacity" dur="2s" repeatCount="indefinite" values="0.29803923;0.0"/>
      <animate attributeName="d" dur="2s" repeatCount="indefinite" values="M-343.8 -636.45 Q-344.3 -637.2 -343.5 -638.6 -342.7 -639.9 -341.05 -641.0 -339.4 -642.1 -337.85 -642.3 -335.3 -641.0 -336.15 -639.65 -336.9 -638.3 -338.55 -637.2 -340.2 -636.1 -341.8 -635.95 -343.3 -635.7 -343.8 -636.45 -344.3 -637.2 -343.5 -638.6 -342.7 -639.9 -341.05 -641.0 -339.4 -642.1 -337.85 -642.3 -335.3 -641.0 -336.15 -639.65 -336.9 -638.3 -338.55 -637.2 -340.2 -636.1 -341.8 -635.95 -343.3 -635.7 -343.8 -636.45 M-335.75 -653.05 Q-336.4 -654.05 -335.35 -655.85 -334.3 -657.65 -332.1 -659.1 -329.95 -660.5 -328.0 -660.8 L-325.1 -660.1 Q-324.4 -659.1 -325.5 -657.3 -326.5 -655.65 -328.6 -654.3 L-328.8 -654.1 -329.0 -654.0 Q-331.05 -652.65 -333.05 -652.35 L-333.2 -652.35 Q-335.0 -652.1 -335.65 -652.95 L-335.75 -653.05 Q-336.4 -654.05 -335.35 -655.85 -334.3 -657.65 -332.1 -659.1 -329.95 -660.5 -328.0 -660.8 L-325.1 -660.1 Q-324.4 -659.1 -325.5 -657.3 -326.5 -655.65 -328.6 -654.3 L-328.8 -654.1 -329.0 -654.0 Q-331.05 -652.65 -333.05 -652.35 L-333.2 -652.35 Q-335.0 -652.1 -335.65 -652.95 L-335.75 -653.05 M-326.5 -634.3 Q-326.75 -634.7 -325.85 -635.75 L-323.4 -637.8 Q-322.0 -638.5 -320.55 -639.25 -318.8 -639.0 -319.2 -638.4 -320.3 -637.0 -321.45 -636.15 L-322.05 -635.75 Q-323.35 -634.85 -324.5 -634.45 L-324.9 -634.35 Q-325.85 -634.0 -326.25 -634.15 L-326.5 -634.3 Q-326.75 -634.7 -325.85 -635.75 L-323.4 -637.8 Q-322.0 -638.5 -320.55 -639.25 -318.8 -639.0 -319.2 -638.4 -320.3 -637.0 -321.45 -636.15 L-322.05 -635.75 Q-323.35 -634.85 -324.5 -634.45 L-324.9 -634.35 Q-325.85 -634.0 -326.25 -634.15 L-326.5 -634.3 M-312.95 -659.7 Q-313.6 -660.7 -312.55 -662.5 -311.5 -664.3 -309.3 -665.75 -307.15 -667.15 -305.2 -667.45 L-302.3 -666.75 Q-301.6 -665.75 -302.7 -663.95 -303.7 -662.3 -305.8 -660.95 L-306.0 -660.75 -306.2 -660.65 Q-308.25 -659.3 -310.25 -659.0 L-310.4 -659.0 Q-312.2 -658.75 -312.85 -659.6 L-312.95 -659.7 Q-313.6 -660.7 -312.55 -662.5 -311.5 -664.3 -309.3 -665.75 -307.15 -667.15 -305.2 -667.45 L-302.3 -666.75 Q-301.6 -665.75 -302.7 -663.95 -303.7 -662.3 -305.8 -660.95 L-306.0 -660.75 -306.2 -660.65 Q-308.25 -659.3 -310.25 -659.0 L-310.4 -659.0 Q-312.2 -658.75 -312.85 -659.6 L-312.95 -659.7 M-309.75 -638.4 Q-310.25 -639.2 -308.5 -641.2 -306.75 -643.15 -303.7 -645.2 -300.65 -647.2 -298.1 -648.05 -294.5 -647.3 -296.25 -645.25 -298.0 -643.25 -301.05 -641.25 -304.1 -639.2 -306.65 -638.4 -309.2 -637.6 -309.75 -638.4 -310.25 -639.2 -308.5 -641.2 -306.75 -643.15 -303.7 -645.2 -300.65 -647.2 -298.1 -648.05 -294.5 -647.3 -296.25 -645.25 -298.0 -643.25 -301.05 -641.25 -304.1 -639.2 -306.65 -638.4 -309.2 -637.6 -309.75 -638.4 M-309.6 -622.0 Q-309.95 -622.5 -308.85 -623.75 L-305.85 -626.3 Q-303.9 -627.55 -302.35 -628.05 -300.2 -627.8 -300.55 -627.15 L-301.1 -626.4 Q-302.1 -625.25 -303.6 -624.2 L-304.2 -623.8 Q-305.95 -622.65 -307.4 -622.1 L-307.7 -622.0 -309.5 -621.9 -309.5 -621.9 M-309.6 -622.0 Q-309.95 -622.5 -308.85 -623.75 L-305.85 -626.3 Q-303.9 -627.55 -302.35 -628.05 -300.2 -627.8 -300.55 -627.15 L-301.1 -626.4 Q-302.1 -625.25 -303.6 -624.2 L-304.2 -623.8 Q-305.95 -622.65 -307.4 -622.1 L-307.7 -622.0 -309.5 -621.9 -309.5 -621.9 -309.6 -622.0 M-305.2 -603.75 Q-305.55 -604.25 -304.45 -605.5 L-301.45 -608.05 Q-299.5 -609.3 -297.95 -609.8 -295.8 -609.55 -296.15 -608.9 L-296.7 -608.15 Q-297.7 -607.0 -299.2 -605.95 L-299.8 -605.55 Q-301.55 -604.4 -303.0 -603.85 L-303.3 -603.75 -305.1 -603.65 -305.1 -603.65 M-305.2 -603.75 Q-305.55 -604.25 -304.45 -605.5 L-301.45 -608.05 Q-299.5 -609.3 -297.95 -609.8 -295.8 -609.55 -296.15 -608.9 L-296.7 -608.15 Q-297.7 -607.0 -299.2 -605.95 L-299.8 -605.55 Q-301.55 -604.4 -303.0 -603.85 L-303.3 -603.75 -305.1 -603.65 -305.1 -603.65 -305.2 -603.75 M-292.0 -641.05 Q-292.35 -641.55 -291.25 -642.8 -289.75 -644.05 -288.25 -645.35 -286.3 -646.6 -284.75 -647.1 -282.6 -646.85 -282.95 -646.2 L-283.5 -645.45 Q-284.5 -644.3 -286.0 -643.25 L-286.6 -642.85 Q-288.35 -641.7 -289.8 -641.15 L-290.1 -641.05 -291.9 -640.95 -291.9 -640.95 M-292.0 -641.05 Q-292.35 -641.55 -291.25 -642.8 -289.75 -644.05 -288.25 -645.35 -286.3 -646.6 -284.75 -647.1 -282.6 -646.85 -282.95 -646.2 L-283.5 -645.45 Q-284.5 -644.3 -286.0 -643.25 L-286.6 -642.85 Q-288.35 -641.7 -289.8 -641.15 L-290.1 -641.05 -291.9 -640.95 -291.9 -640.95 -292.0 -641.05 M-287.3 -628.8 Q-287.8 -629.6 -286.05 -631.6 -284.3 -633.55 -281.25 -635.6 -278.2 -637.6 -275.65 -638.45 -272.05 -637.7 -273.8 -635.65 -275.55 -633.65 -278.6 -631.65 -281.65 -629.6 -284.2 -628.8 -286.75 -628.0 -287.3 -628.8 -287.8 -629.6 -286.05 -631.6 -284.3 -633.55 -281.25 -635.6 -278.2 -637.6 -275.65 -638.45 -272.05 -637.7 -273.8 -635.65 -275.55 -633.65 -278.6 -631.65 -281.65 -629.6 -284.2 -628.8 -286.75 -628.0 -287.3 -628.8;M-360.75 -624.15 Q-361.25 -624.9 -360.45 -626.3 -359.65 -627.6 -358.0 -628.7 -356.35 -629.8 -354.8 -630.0 -352.25 -628.7 -353.1 -627.35 -353.85 -626.0 -355.5 -624.9 -357.15 -623.8 -358.75 -623.65 -360.25 -623.4 -360.75 -624.15 -361.25 -624.9 -360.45 -626.3 -359.65 -627.6 -358.0 -628.7 -356.35 -629.8 -354.8 -630.0 -352.25 -628.7 -353.1 -627.35 -353.85 -626.0 -355.5 -624.9 -357.15 -623.8 -358.75 -623.65 -360.25 -623.4 -360.75 -624.15 M-352.7 -640.75 Q-353.35 -641.75 -352.3 -643.55 -351.2 -645.35 -349.1 -646.75 -346.8 -648.25 -344.85 -648.5 L-342.25 -647.45 Q-342.4 -646.15 -342.55 -644.85 -343.5 -643.3 -345.5 -641.95 L-345.65 -641.85 -345.85 -641.75 Q-347.9 -640.45 -349.8 -640.05 L-350.05 -640.05 Q-351.9 -639.8 -352.6 -640.7 L-352.7 -640.75 Q-353.35 -641.75 -352.3 -643.55 -351.2 -645.35 -349.1 -646.75 -346.8 -648.25 -344.85 -648.5 L-342.25 -647.45 Q-342.4 -646.15 -342.55 -644.85 -343.5 -643.3 -345.5 -641.95 L-345.65 -641.85 -345.85 -641.75 Q-347.9 -640.45 -349.8 -640.05 L-350.05 -640.05 Q-351.9 -639.8 -352.6 -640.7 L-352.7 -640.75 M-343.45 -622.0 Q-343.7 -622.4 -342.8 -623.45 L-340.6 -625.4 Q-339.05 -626.4 -338.0 -626.8 -336.0 -626.2 -336.35 -625.75 -337.75 -624.35 -338.85 -623.6 L-339.4 -623.2 Q-340.7 -622.4 -341.7 -622.05 L-341.95 -622.05 Q-342.65 -622.0 -343.35 -621.9 L-343.45 -622.0 Q-343.7 -622.4 -342.8 -623.45 L-340.6 -625.4 Q-339.05 -626.4 -338.0 -626.8 -336.0 -626.2 -336.35 -625.75 -337.75 -624.35 -338.85 -623.6 L-339.4 -623.2 Q-340.7 -622.4 -341.7 -622.05 L-341.95 -622.05 Q-342.65 -622.0 -343.35 -621.9 L-343.45 -622.0 M-329.9 -647.4 Q-330.55 -648.4 -329.5 -650.2 -328.4 -652.0 -326.3 -653.4 -324.0 -654.9 -322.05 -655.15 L-319.45 -654.1 Q-319.6 -652.8 -319.75 -651.5 -320.7 -649.95 -322.7 -648.6 L-322.85 -648.5 -323.05 -648.4 Q-325.1 -647.1 -327.0 -646.7 L-327.25 -646.7 Q-329.1 -646.45 -329.8 -647.35 L-329.9 -647.4 Q-330.55 -648.4 -329.5 -650.2 -328.4 -652.0 -326.3 -653.4 -324.0 -654.9 -322.05 -655.15 L-319.45 -654.1 Q-319.6 -652.8 -319.75 -651.5 -320.7 -649.95 -322.7 -648.6 L-322.85 -648.5 -323.05 -648.4 Q-325.1 -647.1 -327.0 -646.7 L-327.25 -646.7 Q-329.1 -646.45 -329.8 -647.35 L-329.9 -647.4 M-326.7 -626.1 Q-327.2 -626.9 -325.45 -628.9 -323.65 -630.85 -320.75 -632.8 -317.6 -634.85 -315.25 -635.7 -311.75 -634.85 -312.8 -633.45 -315.0 -630.95 -317.65 -629.15 -321.05 -626.95 -323.45 -626.2 -325.05 -626.15 -326.7 -626.1 -327.2 -626.9 -325.45 -628.9 -323.65 -630.85 -320.75 -632.8 -317.6 -634.85 -315.25 -635.7 -311.75 -634.85 -312.8 -633.45 -315.0 -630.95 -317.65 -629.15 -321.05 -626.95 -323.45 -626.2 -325.05 -626.15 -326.7 -626.1 M-326.55 -609.7 Q-326.9 -610.2 -325.8 -611.45 L-323.0 -613.85 Q-321.15 -615.1 -319.85 -615.6 -317.55 -614.75 -317.85 -614.35 L-318.25 -613.9 Q-319.45 -612.65 -320.95 -611.65 L-321.55 -611.3 Q-323.2 -610.25 -324.5 -609.8 L-324.65 -609.7 -326.5 -609.65 -326.55 -609.7 M-326.55 -609.7 Q-326.9 -610.2 -325.8 -611.45 L-323.0 -613.85 Q-321.15 -615.1 -319.85 -615.6 -317.55 -614.75 -317.85 -614.35 L-318.25 -613.9 Q-319.45 -612.65 -320.95 -611.65 L-321.55 -611.3 Q-323.2 -610.25 -324.5 -609.8 L-324.65 -609.7 -326.5 -609.65 -326.55 -609.7 -326.55 -609.7 M-322.15 -591.45 Q-322.5 -591.95 -321.4 -593.2 L-318.6 -595.6 Q-316.75 -596.85 -315.45 -597.35 -313.15 -596.5 -313.45 -596.1 L-313.85 -595.65 Q-315.05 -594.4 -316.55 -593.4 L-317.15 -593.05 Q-318.8 -592.0 -320.1 -591.55 L-320.25 -591.45 -322.1 -591.4 -322.15 -591.45 M-322.15 -591.45 Q-322.5 -591.95 -321.4 -593.2 L-318.6 -595.6 Q-316.75 -596.85 -315.45 -597.35 -313.15 -596.5 -313.45 -596.1 L-313.85 -595.65 Q-315.05 -594.4 -316.55 -593.4 L-317.15 -593.05 Q-318.8 -592.0 -320.1 -591.55 L-320.25 -591.45 -322.1 -591.4 -322.15 -591.45 -322.15 -591.45 M-308.95 -628.75 Q-309.3 -629.25 -308.2 -630.5 -307.1 -631.75 -305.4 -632.9 -303.85 -633.75 -302.25 -634.65 -299.95 -633.8 -300.25 -633.4 L-300.65 -632.95 Q-301.85 -631.7 -303.35 -630.7 L-303.95 -630.35 Q-305.6 -629.3 -306.9 -628.85 L-307.05 -628.75 -308.9 -628.7 -308.95 -628.75 M-308.95 -628.75 Q-309.3 -629.25 -308.2 -630.5 -307.1 -631.75 -305.4 -632.9 -303.85 -633.75 -302.25 -634.65 -299.95 -633.8 -300.25 -633.4 L-300.65 -632.95 Q-301.85 -631.7 -303.35 -630.7 L-303.95 -630.35 Q-305.6 -629.3 -306.9 -628.85 L-307.05 -628.75 -308.9 -628.7 -308.95 -628.75 -308.95 -628.75 M-304.25 -616.5 Q-304.75 -617.3 -303.0 -619.3 -301.2 -621.25 -298.3 -623.2 -295.15 -625.25 -292.8 -626.1 -289.3 -625.25 -290.35 -623.85 -292.55 -621.35 -295.2 -619.55 -298.6 -617.35 -301.0 -616.6 -302.6 -616.55 -304.25 -616.5 -304.75 -617.3 -303.0 -619.3 -301.2 -621.25 -298.3 -623.2 -295.15 -625.25 -292.8 -626.1 -289.3 -625.25 -290.35 -623.85 -292.55 -621.35 -295.2 -619.55 -298.6 -617.35 -301.0 -616.6 -302.6 -616.55 -304.25 -616.5"/>
    </path>
  </g>
</svg>
