<?xml version="1.0" encoding="UTF-8" standalone="no"?>
<svg xmlns:xlink="http://www.w3.org/1999/xlink" height="42.0px" width="42.0px" xmlns="http://www.w3.org/2000/svg">
  <g transform="matrix(1.0, 0.0, 0.0, 1.0, 21.0, -0.6)">
    <path d="M-21.0 22.2 Q-20.8 30.5 -14.85 36.45 L-11.75 39.05 -16.25 22.2 -21.0 22.2 M-9.2 22.2 L-3.8 42.3 0.0 42.6 2.55 42.45 -2.85 22.2 -9.2 22.2 M4.25 22.2 L9.15 40.6 Q12.2 39.1 14.8 36.5 L11.0 22.2 4.25 22.2 M18.1 22.2 L19.85 28.75 Q20.9 25.65 21.0 22.2 L18.1 22.2" fill="#626262" fill-rule="evenodd" stroke="none">
      <animate attributeName="fill" dur="2s" repeatCount="indefinite" values="#626262;#626263"/>
      <animate attributeName="fill-opacity" dur="2s" repeatCount="indefinite" values="1.0;1.0"/>
      <animate attributeName="d" dur="2s" repeatCount="indefinite" values="M-21.0 22.2 Q-20.8 30.5 -14.85 36.45 L-11.75 39.05 -16.25 22.2 -21.0 22.2 M-9.2 22.2 L-3.8 42.3 0.0 42.6 2.55 42.45 -2.85 22.2 -9.2 22.2 M4.25 22.2 L9.15 40.6 Q12.2 39.1 14.8 36.5 L11.0 22.2 4.25 22.2 M18.1 22.2 L19.85 28.75 Q20.9 25.65 21.0 22.2 L18.1 22.2;M-21.0 0.6 Q-20.8 8.9 -14.85 14.85 L-11.75 17.45 -16.25 0.6 -21.0 0.6 M-9.2 0.6 L-3.8 20.7 0.0 21.0 2.55 20.85 -2.85 0.6 -9.2 0.6 M4.25 0.6 L9.15 19.0 Q12.2 17.5 14.8 14.9 L11.0 0.6 4.25 0.6 M18.1 0.6 L19.85 7.15 Q20.9 4.05 21.0 0.6 L18.1 0.6"/>
    </path>
    <path d="M-16.25 22.2 L-11.75 39.05 Q-9.05 40.9 -3.8 42.3 L-9.2 22.2 -16.25 22.2 M-2.85 22.2 L2.55 42.45 3.2 42.4 Q5.35 42.05 9.15 40.6 L4.25 22.2 -2.85 22.2 M11.0 22.2 Q12.9 29.35 15.35 35.95 17.25 33.9 18.55 31.65 L19.85 28.75 18.1 22.2 11.0 22.2" fill="#ffcc00" fill-rule="evenodd" stroke="none">
      <animate attributeName="fill" dur="2s" repeatCount="indefinite" values="#ffcc00;#ffcc01"/>
      <animate attributeName="fill-opacity" dur="2s" repeatCount="indefinite" values="1.0;1.0"/>
      <animate attributeName="d" dur="2s" repeatCount="indefinite" values="M-16.25 22.2 L-11.75 39.05 Q-9.05 40.9 -3.8 42.3 L-9.2 22.2 -16.25 22.2 M-2.85 22.2 L2.55 42.45 3.2 42.4 Q5.35 42.05 9.15 40.6 L4.25 22.2 -2.85 22.2 M11.0 22.2 Q12.9 29.35 15.35 35.95 17.25 33.9 18.55 31.65 L19.85 28.75 18.1 22.2 11.0 22.2;M-16.25 0.6 L-11.75 17.45 Q-9.05 19.3 -3.8 20.7 L-9.2 0.6 -16.25 0.6 M-2.85 0.6 L2.55 20.85 3.2 20.8 Q5.35 20.45 9.15 19.0 L4.25 0.6 -2.85 0.6 M11.0 0.6 Q12.9 7.75 15.35 14.35 17.25 12.3 18.55 10.05 L19.85 7.15 18.1 0.6 11.0 0.6"/>
    </path>
    <path d="M-21.0 22.2 L-16.25 22.2 -11.75 39.05 -14.85 36.45 Q-20.8 30.5 -21.0 22.2 M-16.25 22.2 L-9.2 22.2 -3.8 42.3 Q-9.05 40.9 -11.75 39.05 L-16.25 22.2 M-9.2 22.2 L-2.85 22.2 2.55 42.45 0.0 42.6 -3.8 42.3 -9.2 22.2 M-2.85 22.2 L4.25 22.2 9.15 40.6 Q5.35 42.05 3.2 42.4 L2.55 42.45 -2.85 22.2 M4.25 22.2 L11.0 22.2 14.8 36.5 Q12.2 39.1 9.15 40.6 L4.25 22.2 M11.0 22.2 L18.1 22.2 19.85 28.75 18.55 31.65 Q17.25 33.9 15.35 35.95 12.9 29.35 11.0 22.2 M18.1 22.2 L21.0 22.2 Q20.9 25.65 19.85 28.75 L18.1 22.2" fill="none" stroke="#000000" stroke-linecap="round" stroke-linejoin="round" stroke-opacity="0.0" stroke-width="1.0">
      <animate attributeName="stroke" dur="2s" repeatCount="indefinite" values="#000000;#000001"/>
      <animate attributeName="stroke-width" dur="2s" repeatCount="indefinite" values="0.0;0.0"/>
      <animate attributeName="fill-opacity" dur="2s" repeatCount="indefinite" values="0.0;0.0"/>
      <animate attributeName="d" dur="2s" repeatCount="indefinite" values="M-21.0 22.2 L-16.25 22.2 -11.75 39.05 -14.85 36.45 Q-20.8 30.5 -21.0 22.2 M-16.25 22.2 L-9.2 22.2 -3.8 42.3 Q-9.05 40.9 -11.75 39.05 L-16.25 22.2 M-9.2 22.2 L-2.85 22.2 2.55 42.45 0.0 42.6 -3.8 42.3 -9.2 22.2 M-2.85 22.2 L4.25 22.2 9.15 40.6 Q5.35 42.05 3.2 42.4 L2.55 42.45 -2.85 22.2 M4.25 22.2 L11.0 22.2 14.8 36.5 Q12.2 39.1 9.15 40.6 L4.25 22.2 M11.0 22.2 L18.1 22.2 19.85 28.75 18.55 31.65 Q17.25 33.9 15.35 35.95 12.9 29.35 11.0 22.2 M18.1 22.2 L21.0 22.2 Q20.9 25.65 19.85 28.75 L18.1 22.2;M-21.0 0.6 L-16.25 0.6 -11.75 17.45 -14.85 14.85 Q-20.8 8.9 -21.0 0.6 M-16.25 0.6 L-9.2 0.6 -3.8 20.7 Q-9.05 19.3 -11.75 17.45 L-16.25 0.6 M-9.2 0.6 L-2.85 0.6 2.55 20.85 0.0 21.0 -3.8 20.7 -9.2 0.6 M-2.85 0.6 L4.25 0.6 9.15 19.0 Q5.35 20.45 3.2 20.8 L2.55 20.85 -2.85 0.6 M4.25 0.6 L11.0 0.6 14.8 14.9 Q12.2 17.5 9.15 19.0 L4.25 0.6 M11.0 0.6 L18.1 0.6 19.85 7.15 18.55 10.05 Q17.25 12.3 15.35 14.35 12.9 7.75 11.0 0.6 M18.1 0.6 L21.0 0.6 Q20.9 4.05 19.85 7.15 L18.1 0.6"/>
    </path>
  </g>
</svg>
