<?xml version="1.0" encoding="UTF-8" standalone="no"?>
<svg xmlns:xlink="http://www.w3.org/1999/xlink" height="16.6px" width="136.25px" xmlns="http://www.w3.org/2000/svg">
  <g transform="matrix(1.0, 0.0, 0.0, 1.0, 97.5, -58.45)">
    <path d="M-97.5 70.9 L-97.5 71.7 -97.5 72.4 -97.2 73.2 -96.7 73.95 -95.7 74.8 -93.85 75.05 Q-93.0 75.05 -92.2 74.65 -90.85 73.95 -90.45 72.5 -90.05 70.75 -91.45 69.55 -92.6 68.7 -93.85 68.05 L-93.95 68.15 -95.7 68.75 Q-96.25 68.9 -96.7 69.4 L-97.2 70.1 Q-97.35 70.5 -97.5 70.9" fill="#999999" fill-rule="evenodd" stroke="none">
      <animate attributeName="fill" dur="2s" repeatCount="indefinite" values="#999999;#99999a"/>
      <animate attributeName="fill-opacity" dur="2s" repeatCount="indefinite" values="1.0;1.0"/>
      <animate attributeName="d" dur="2s" repeatCount="indefinite" values="M-97.5 70.9 L-97.5 71.7 -97.5 72.4 -97.2 73.2 -96.7 73.95 -95.7 74.8 -93.85 75.05 Q-93.0 75.05 -92.2 74.65 -90.85 73.95 -90.45 72.5 -90.05 70.75 -91.45 69.55 -92.6 68.7 -93.85 68.05 L-93.95 68.15 -95.7 68.75 Q-96.25 68.9 -96.7 69.4 L-97.2 70.1 Q-97.35 70.5 -97.5 70.9;M34.6 60.15 L34.6 60.6 34.6 61.05 34.75 61.5 35.05 61.95 35.65 62.45 36.7 62.6 Q37.2 62.45 37.7 62.35 38.5 61.95 38.7 61.1 38.95 60.05 38.15 59.35 37.4 58.9 36.7 58.45 L36.65 58.55 35.65 58.9 Q35.3 58.95 35.05 59.25 L34.75 59.7 Q34.6 59.9 34.6 60.15"/>
    </path>
    <path d="M-97.5 70.9 Q-97.35 70.5 -97.2 70.1 L-96.7 69.4 Q-96.25 68.9 -95.7 68.75 L-93.95 68.15 -93.85 68.05 Q-92.6 68.7 -91.45 69.55 -90.05 70.75 -90.45 72.5 -90.85 73.95 -92.2 74.65 -93.0 75.05 -93.85 75.05 L-95.7 74.8 -96.7 73.95 -97.2 73.2 -97.5 72.4 -97.5 71.7 -97.5 70.9" fill="none" stroke="#000000" stroke-linecap="round" stroke-linejoin="round" stroke-opacity="0.0" stroke-width="1.0">
      <animate attributeName="stroke" dur="2s" repeatCount="indefinite" values="#000000;#000001"/>
      <animate attributeName="stroke-width" dur="2s" repeatCount="indefinite" values="0.0;0.0"/>
      <animate attributeName="fill-opacity" dur="2s" repeatCount="indefinite" values="0.0;0.0"/>
      <animate attributeName="d" dur="2s" repeatCount="indefinite" values="M-97.5 70.9 Q-97.35 70.5 -97.2 70.1 L-96.7 69.4 Q-96.25 68.9 -95.7 68.75 L-93.95 68.15 -93.85 68.05 Q-92.6 68.7 -91.45 69.55 -90.05 70.75 -90.45 72.5 -90.85 73.95 -92.2 74.65 -93.0 75.05 -93.85 75.05 L-95.7 74.8 -96.7 73.95 -97.2 73.2 -97.5 72.4 -97.5 71.7 -97.5 70.9;M34.6 60.15 Q34.6 59.9 34.75 59.7 L35.05 59.25 Q35.3 58.95 35.65 58.9 L36.65 58.55 36.7 58.45 Q37.4 58.9 38.15 59.35 38.95 60.05 38.7 61.1 38.5 61.95 37.7 62.35 37.2 62.45 36.7 62.6 L35.65 62.45 35.05 61.95 34.75 61.5 34.6 61.05 34.6 60.6 34.6 60.15"/>
    </path>
  </g>
</svg>
