<?xml version="1.0" encoding="UTF-8" standalone="no"?>
<svg xmlns:xlink="http://www.w3.org/1999/xlink" height="49.35px" width="695.5px" xmlns="http://www.w3.org/2000/svg">
  <g transform="matrix(1.0, 0.0, 0.0, 1.0, 347.75, 24.65)">
    <path d="M-116.0 -19.45 L-116.0 19.55 Q-86.5 29.9 -58.0 19.55 -29.0 12.1 0.0 19.55 29.5 29.9 58.0 19.55 86.9 12.15 115.75 19.5 L115.75 19.55 Q145.25 29.9 173.75 19.55 202.75 12.1 231.75 19.55 261.25 29.9 289.75 19.55 318.75 12.1 347.75 19.55 L347.75 -19.45 Q319.25 -29.8 289.75 -19.45 260.75 -12.0 231.75 -19.45 203.25 -29.8 173.75 -19.45 144.85 -12.05 116.0 -19.35 L116.0 -19.45 Q87.5 -29.8 58.0 -19.45 29.0 -12.0 0.0 -19.45 -28.5 -29.8 -58.0 -19.45 -87.0 -12.0 -116.0 -19.45" fill="#00ff17" fill-rule="evenodd" stroke="none">
      <animate attributeName="fill" dur="2s" repeatCount="indefinite" values="#00ff17;#00ff18"/>
      <animate attributeName="fill-opacity" dur="2s" repeatCount="indefinite" values="1.0;1.0"/>
      <animate attributeName="d" dur="2s" repeatCount="indefinite" values="M-116.0 -19.45 L-116.0 19.55 Q-86.5 29.9 -58.0 19.55 -29.0 12.1 0.0 19.55 29.5 29.9 58.0 19.55 86.9 12.15 115.75 19.5 L115.75 19.55 Q145.25 29.9 173.75 19.55 202.75 12.1 231.75 19.55 261.25 29.9 289.75 19.55 318.75 12.1 347.75 19.55 L347.75 -19.45 Q319.25 -29.8 289.75 -19.45 260.75 -12.0 231.75 -19.45 203.25 -29.8 173.75 -19.45 144.85 -12.05 116.0 -19.35 L116.0 -19.45 Q87.5 -29.8 58.0 -19.45 29.0 -12.0 0.0 -19.45 -28.5 -29.8 -58.0 -19.45 -87.0 -12.0 -116.0 -19.45;M-347.75 -19.45 L-347.75 19.55 Q-318.25 29.9 -289.75 19.55 -260.75 12.1 -231.75 19.55 -202.25 29.9 -173.75 19.55 -144.85 12.15 -116.0 19.5 L-116.0 19.55 Q-86.5 29.9 -58.0 19.55 -29.0 12.1 0.0 19.55 29.5 29.9 58.0 19.55 87.0 12.1 116.0 19.55 L116.0 -19.45 Q87.5 -29.8 58.0 -19.45 29.0 -12.0 0.0 -19.45 -28.5 -29.8 -58.0 -19.45 -86.9 -12.05 -115.75 -19.35 L-115.75 -19.45 Q-144.25 -29.8 -173.75 -19.45 -202.75 -12.0 -231.75 -19.45 -260.25 -29.8 -289.75 -19.45 -318.75 -12.0 -347.75 -19.45"/>
    </path>
    <path d="M-116.0 -19.45 Q-87.0 -12.0 -58.0 -19.45 -28.5 -29.8 0.0 -19.45 29.0 -12.0 58.0 -19.45 87.5 -29.8 116.0 -19.45 L116.0 -19.35 Q144.85 -12.05 173.75 -19.45 203.25 -29.8 231.75 -19.45 260.75 -12.0 289.75 -19.45 319.25 -29.8 347.75 -19.45 L347.75 19.55 Q318.75 12.1 289.75 19.55 261.25 29.9 231.75 19.55 202.75 12.1 173.75 19.55 145.25 29.9 115.75 19.55 L115.75 19.5 Q86.9 12.15 58.0 19.55 29.5 29.9 0.0 19.55 -29.0 12.1 -58.0 19.55 -86.5 29.9 -116.0 19.55 L-116.0 -19.45" fill="none" stroke="#000000" stroke-linecap="round" stroke-linejoin="round" stroke-opacity="0.0" stroke-width="1.0">
      <animate attributeName="stroke" dur="2s" repeatCount="indefinite" values="#000000;#000001"/>
      <animate attributeName="stroke-width" dur="2s" repeatCount="indefinite" values="0.0;0.0"/>
      <animate attributeName="fill-opacity" dur="2s" repeatCount="indefinite" values="0.0;0.0"/>
      <animate attributeName="d" dur="2s" repeatCount="indefinite" values="M-116.0 -19.45 Q-87.0 -12.0 -58.0 -19.45 -28.5 -29.8 0.0 -19.45 29.0 -12.0 58.0 -19.45 87.5 -29.8 116.0 -19.45 L116.0 -19.35 Q144.85 -12.05 173.75 -19.45 203.25 -29.8 231.75 -19.45 260.75 -12.0 289.75 -19.45 319.25 -29.8 347.75 -19.45 L347.75 19.55 Q318.75 12.1 289.75 19.55 261.25 29.9 231.75 19.55 202.75 12.1 173.75 19.55 145.25 29.9 115.75 19.55 L115.75 19.5 Q86.9 12.15 58.0 19.55 29.5 29.9 0.0 19.55 -29.0 12.1 -58.0 19.55 -86.5 29.9 -116.0 19.55 L-116.0 -19.45;M-347.75 -19.45 Q-318.75 -12.0 -289.75 -19.45 -260.25 -29.8 -231.75 -19.45 -202.75 -12.0 -173.75 -19.45 -144.25 -29.8 -115.75 -19.45 L-115.75 -19.35 Q-86.9 -12.05 -58.0 -19.45 -28.5 -29.8 0.0 -19.45 29.0 -12.0 58.0 -19.45 87.5 -29.8 116.0 -19.45 L116.0 19.55 Q87.0 12.1 58.0 19.55 29.5 29.9 0.0 19.55 -29.0 12.1 -58.0 19.55 -86.5 29.9 -116.0 19.55 L-116.0 19.5 Q-144.85 12.15 -173.75 19.55 -202.25 29.9 -231.75 19.55 -260.75 12.1 -289.75 19.55 -318.25 29.9 -347.75 19.55 L-347.75 -19.45"/>
    </path>
  </g>
</svg>
