<?xml version="1.0" encoding="UTF-8" standalone="no"?>
<svg xmlns:xlink="http://www.w3.org/1999/xlink" height="25.85px" width="18.45px" xmlns="http://www.w3.org/2000/svg">
  <g transform="matrix(1.0, 0.0, 0.0, 1.0, 4.05, 8.65)">
    <path d="M-2.05 -5.1 L-2.05 -5.1 -0.5 -3.0 0.0 -2.25 0.7 -1.05 1.35 0.65 -0.75 1.95 -1.5 2.5 -2.0 3.0 -1.35 3.0 -0.05 3.15 0.1 3.15 Q0.9 3.3 1.45 4.05 L1.3 4.65 0.8 6.15 0.55 6.85 Q0.15 7.95 0.15 8.9 L0.15 9.1 0.2 10.6 Q0.3 12.05 0.55 12.65 L1.25 13.85 1.55 14.15 Q2.5 15.0 4.1 15.15 L6.5 15.0 7.6 14.55 8.5 13.8 9.05 13.05 9.65 11.75 10.25 11.45 10.35 11.45 11.7 11.2 12.4 11.2 11.9 10.8 10.05 9.6 9.95 7.05 9.75 5.5 9.5 3.9 9.8 3.0 10.25 2.35 10.4 2.25 11.65 1.55 12.3 1.3 9.95 0.7 8.35 0.5 Q7.0 -2.15 4.5 -3.85 L4.3 -3.95 3.75 -4.65 3.9 -5.4 4.15 -6.05 4.35 -6.65 2.55 -5.55 -0.15 -5.5 Q-1.7 -5.65 -2.05 -5.1" fill="#32ad80" fill-rule="evenodd" stroke="none">
      <animate attributeName="fill" dur="2s" repeatCount="indefinite" values="#32ad80;#32ad81"/>
      <animate attributeName="fill-opacity" dur="2s" repeatCount="indefinite" values="1.0;1.0"/>
      <animate attributeName="d" dur="2s" repeatCount="indefinite" values="M-2.05 -5.1 L-2.05 -5.1 -0.5 -3.0 0.0 -2.25 0.7 -1.05 1.35 0.65 -0.75 1.95 -1.5 2.5 -2.0 3.0 -1.35 3.0 -0.05 3.15 0.1 3.15 Q0.9 3.3 1.45 4.05 L1.3 4.65 0.8 6.15 0.55 6.85 Q0.15 7.95 0.15 8.9 L0.15 9.1 0.2 10.6 Q0.3 12.05 0.55 12.65 L1.25 13.85 1.55 14.15 Q2.5 15.0 4.1 15.15 L6.5 15.0 7.6 14.55 8.5 13.8 9.05 13.05 9.65 11.75 10.25 11.45 10.35 11.45 11.7 11.2 12.4 11.2 11.9 10.8 10.05 9.6 9.95 7.05 9.75 5.5 9.5 3.9 9.8 3.0 10.25 2.35 10.4 2.25 11.65 1.55 12.3 1.3 9.95 0.7 8.35 0.5 Q7.0 -2.15 4.5 -3.85 L4.3 -3.95 3.75 -4.65 3.9 -5.4 4.15 -6.05 4.35 -6.65 2.55 -5.55 -0.15 -5.5 Q-1.7 -5.65 -2.05 -5.1;M3.3 10.5 L3.4 10.6 3.95 11.05 4.2 11.35 4.35 11.65 3.95 11.8 3.3 12.1 3.55 12.1 3.85 12.1 4.0 12.1 4.4 12.3 4.4 12.3 Q4.3 12.55 4.2 12.75 L4.1 12.85 4.0 13.25 4.0 13.45 Q4.05 13.7 4.1 13.95 L4.15 14.0 4.35 14.2 Q4.65 14.35 4.95 14.45 L5.15 14.45 5.25 14.45 Q5.7 14.4 6.15 14.4 L6.8 14.05 6.95 13.8 7.15 13.7 7.35 13.7 7.6 13.65 7.8 13.65 7.85 13.65 7.55 13.55 7.3 13.45 7.1 13.35 7.1 12.9 6.9 12.25 7.2 11.95 7.45 11.85 7.6 11.8 7.8 11.75 7.7 11.75 7.4 11.65 7.15 11.65 6.55 11.6 6.35 11.4 Q5.7 11.0 5.1 10.65 L5.1 10.6 5.2 10.45 5.25 10.35 5.3 10.2 5.1 10.3 4.55 10.5 3.75 10.45 Q3.5 10.5 3.3 10.5"/>
    </path>
    <path d="M-2.05 -5.1 Q-1.7 -5.65 -0.15 -5.5 L2.55 -5.55 4.35 -6.65 4.15 -6.05 3.9 -5.4 3.75 -4.65 4.3 -3.95 4.5 -3.85 Q7.0 -2.15 8.35 0.5 L9.95 0.7 12.3 1.3 11.65 1.55 10.4 2.25 10.25 2.35 9.8 3.0 9.5 3.9 9.75 5.5 9.95 7.05 10.05 9.6 11.9 10.8 12.4 11.2 11.7 11.2 10.35 11.45 10.25 11.45 9.65 11.75 9.05 13.05 8.5 13.8 7.6 14.55 6.5 15.0 4.1 15.15 Q2.5 15.0 1.55 14.15 L1.25 13.85 0.55 12.65 Q0.3 12.05 0.2 10.6 L0.15 9.1 0.15 8.9 Q0.15 7.95 0.55 6.85 L0.8 6.15 1.3 4.65 1.45 4.05 Q0.9 3.3 0.1 3.15 L-0.05 3.15 -1.35 3.0 -2.0 3.0 -1.5 2.5 -0.75 1.95 1.35 0.65 0.7 -1.05 0.0 -2.25 -0.5 -3.0 -2.05 -5.1 Q-1.7 -5.65 -0.15 -5.5 L2.55 -5.55 4.35 -6.65 4.15 -6.05 3.9 -5.4 3.75 -4.65 4.3 -3.95 4.5 -3.85 Q7.0 -2.15 8.35 0.5 L9.95 0.7 12.3 1.3 11.65 1.55 10.4 2.25 10.25 2.35 9.8 3.0 9.5 3.9 9.75 5.5 9.95 7.05 10.05 9.6 11.9 10.8 12.4 11.2 11.7 11.2 10.35 11.45 10.25 11.45 9.65 11.75 9.05 13.05 8.5 13.8 7.6 14.55 6.5 15.0 4.1 15.15 Q2.5 15.0 1.55 14.15 L1.25 13.85 0.55 12.65 Q0.3 12.05 0.2 10.6 L0.15 9.1 0.15 8.9 Q0.15 7.95 0.55 6.85 L0.8 6.15 1.3 4.65 1.45 4.05 Q0.9 3.3 0.1 3.15 L-0.05 3.15 -1.35 3.0 -2.0 3.0 -1.5 2.5 -0.75 1.95 1.35 0.65 0.7 -1.05 0.0 -2.25 -0.5 -3.0 -2.05 -5.1 -2.05 -5.1" fill="none" stroke="#003f36" stroke-linecap="square" stroke-linejoin="round" stroke-width="2.0">
      <animate attributeName="stroke" dur="2s" repeatCount="indefinite" values="#003f36;#003f37"/>
      <animate attributeName="stroke-width" dur="2s" repeatCount="indefinite" values="2.0;2.0"/>
      <animate attributeName="fill-opacity" dur="2s" repeatCount="indefinite" values="1.0;1.0"/>
      <animate attributeName="d" dur="2s" repeatCount="indefinite" values="M-2.05 -5.1 Q-1.7 -5.65 -0.15 -5.5 L2.55 -5.55 4.35 -6.65 4.15 -6.05 3.9 -5.4 3.75 -4.65 4.3 -3.95 4.5 -3.85 Q7.0 -2.15 8.35 0.5 L9.95 0.7 12.3 1.3 11.65 1.55 10.4 2.25 10.25 2.35 9.8 3.0 9.5 3.9 9.75 5.5 9.95 7.05 10.05 9.6 11.9 10.8 12.4 11.2 11.7 11.2 10.35 11.45 10.25 11.45 9.65 11.75 9.05 13.05 8.5 13.8 7.6 14.55 6.5 15.0 4.1 15.15 Q2.5 15.0 1.55 14.15 L1.25 13.85 0.55 12.65 Q0.3 12.05 0.2 10.6 L0.15 9.1 0.15 8.9 Q0.15 7.95 0.55 6.85 L0.8 6.15 1.3 4.65 1.45 4.05 Q0.9 3.3 0.1 3.15 L-0.05 3.15 -1.35 3.0 -2.0 3.0 -1.5 2.5 -0.75 1.95 1.35 0.65 0.7 -1.05 0.0 -2.25 -0.5 -3.0 -2.05 -5.1 Q-1.7 -5.65 -0.15 -5.5 L2.55 -5.55 4.35 -6.65 4.15 -6.05 3.9 -5.4 3.75 -4.65 4.3 -3.95 4.5 -3.85 Q7.0 -2.15 8.35 0.5 L9.95 0.7 12.3 1.3 11.65 1.55 10.4 2.25 10.25 2.35 9.8 3.0 9.5 3.9 9.75 5.5 9.95 7.05 10.05 9.6 11.9 10.8 12.4 11.2 11.7 11.2 10.35 11.45 10.25 11.45 9.65 11.75 9.05 13.05 8.5 13.8 7.6 14.55 6.5 15.0 4.1 15.15 Q2.5 15.0 1.55 14.15 L1.25 13.85 0.55 12.65 Q0.3 12.05 0.2 10.6 L0.15 9.1 0.15 8.9 Q0.15 7.95 0.55 6.85 L0.8 6.15 1.3 4.65 1.45 4.05 Q0.9 3.3 0.1 3.15 L-0.05 3.15 -1.35 3.0 -2.0 3.0 -1.5 2.5 -0.75 1.95 1.35 0.65 0.7 -1.05 0.0 -2.25 -0.5 -3.0 -2.05 -5.1 -2.05 -5.1;M3.3 10.5 Q3.5 10.5 3.75 10.45 L4.55 10.5 5.1 10.3 5.3 10.2 5.25 10.35 5.2 10.45 5.1 10.6 5.1 10.65 Q5.7 11.0 6.35 11.4 L6.55 11.6 7.15 11.65 7.4 11.65 7.7 11.75 7.8 11.75 7.6 11.8 7.45 11.85 7.2 11.95 6.9 12.25 7.1 12.9 7.1 13.35 7.3 13.45 7.55 13.55 7.85 13.65 7.8 13.65 7.6 13.65 7.35 13.7 7.15 13.7 6.95 13.8 6.8 14.05 6.15 14.4 Q5.7 14.4 5.25 14.45 L5.15 14.45 4.95 14.45 Q4.65 14.35 4.35 14.2 L4.15 14.0 4.1 13.95 Q4.05 13.7 4.0 13.45 L4.0 13.25 4.1 12.85 4.2 12.75 Q4.3 12.55 4.4 12.3 L4.4 12.3 4.0 12.1 3.85 12.1 3.55 12.1 3.3 12.1 3.95 11.8 4.35 11.65 4.2 11.35 3.95 11.05 3.4 10.6 Q3.5 10.5 3.75 10.45 L4.55 10.5 5.1 10.3 5.3 10.2 5.25 10.35 5.2 10.45 5.1 10.6 5.1 10.65 Q5.7 11.0 6.35 11.4 L6.55 11.6 7.15 11.65 7.4 11.65 7.7 11.75 7.8 11.75 7.6 11.8 7.45 11.85 7.2 11.95 6.9 12.25 7.1 12.9 7.1 13.35 7.3 13.45 7.55 13.55 7.85 13.65 7.8 13.65 7.6 13.65 7.35 13.7 7.15 13.7 6.95 13.8 6.8 14.05 6.15 14.4 Q5.7 14.4 5.25 14.45 L5.15 14.45 4.95 14.45 Q4.65 14.35 4.35 14.2 L4.15 14.0 4.1 13.95 Q4.05 13.7 4.0 13.45 L4.0 13.25 4.1 12.85 4.2 12.75 Q4.3 12.55 4.4 12.3 L4.4 12.3 4.0 12.1 3.85 12.1 3.55 12.1 3.3 12.1 3.95 11.8 4.35 11.65 4.2 11.35 3.95 11.05 3.4 10.6 3.3 10.5"/>
    </path>
  </g>
</svg>
