<?xml version="1.0" encoding="UTF-8" standalone="no"?>
<svg xmlns:xlink="http://www.w3.org/1999/xlink" height="21.95px" width="43.9px" xmlns="http://www.w3.org/2000/svg">
  <g transform="matrix(1.0, 0.0, 0.0, 1.0, 151.7, -37.5)">
    <path d="M-118.35 54.15 Q-118.35 56.35 -116.85 57.85 -115.25 59.45 -113.1 59.45 -110.9 59.45 -109.35 57.85 -107.8 56.35 -107.8 54.2 -107.8 52.0 -109.35 50.4 -110.9 48.9 -113.1 48.9 -115.25 48.9 -116.85 50.4 -118.35 52.0 -118.35 54.15" fill="#6b6b6b" fill-rule="evenodd" stroke="none">
      <animate attributeName="fill" dur="2s" repeatCount="indefinite" values="#6b6b6b;#6b6b6c"/>
      <animate attributeName="fill-opacity" dur="2s" repeatCount="indefinite" values="1.0;1.0"/>
      <animate attributeName="d" dur="2s" repeatCount="indefinite" values="M-118.35 54.15 Q-118.35 56.35 -116.85 57.85 -115.25 59.45 -113.1 59.45 -110.9 59.45 -109.35 57.85 -107.8 56.35 -107.8 54.2 -107.8 52.0 -109.35 50.4 -110.9 48.9 -113.1 48.9 -115.25 48.9 -116.85 50.4 -118.35 52.0 -118.35 54.15;M-151.7 39.85 Q-151.7 40.85 -151.05 41.55 -150.3 42.3 -149.35 42.3 -148.3 42.3 -147.65 41.55 -146.9 40.85 -146.9 39.9 -146.9 38.9 -147.65 38.15 -148.3 37.5 -149.35 37.5 -150.3 37.5 -151.05 38.15 -151.7 38.9 -151.7 39.85"/>
    </path>
    <path d="M-118.35 54.15 Q-118.35 52.0 -116.85 50.4 -115.25 48.9 -113.1 48.9 -110.9 48.9 -109.35 50.4 -107.8 52.0 -107.8 54.2 -107.8 56.35 -109.35 57.85 -110.9 59.45 -113.1 59.45 -115.25 59.45 -116.85 57.85 -118.35 56.35 -118.35 54.15" fill="none" stroke="#000000" stroke-linecap="round" stroke-linejoin="round" stroke-opacity="0.0" stroke-width="1.0">
      <animate attributeName="stroke" dur="2s" repeatCount="indefinite" values="#000000;#000001"/>
      <animate attributeName="stroke-width" dur="2s" repeatCount="indefinite" values="0.0;0.0"/>
      <animate attributeName="fill-opacity" dur="2s" repeatCount="indefinite" values="0.0;0.0"/>
      <animate attributeName="d" dur="2s" repeatCount="indefinite" values="M-118.35 54.15 Q-118.35 52.0 -116.85 50.4 -115.25 48.9 -113.1 48.9 -110.9 48.9 -109.35 50.4 -107.8 52.0 -107.8 54.2 -107.8 56.35 -109.35 57.85 -110.9 59.45 -113.1 59.45 -115.25 59.45 -116.85 57.85 -118.35 56.35 -118.35 54.15;M-151.7 39.85 Q-151.7 38.9 -151.05 38.15 -150.3 37.5 -149.35 37.5 -148.3 37.5 -147.65 38.15 -146.9 38.9 -146.9 39.9 -146.9 40.85 -147.65 41.55 -148.3 42.3 -149.35 42.3 -150.3 42.3 -151.05 41.55 -151.7 40.85 -151.7 39.85"/>
    </path>
  </g>
</svg>
