<?xml version="1.0" encoding="UTF-8" standalone="no"?>
<svg xmlns:xlink="http://www.w3.org/1999/xlink" height="18.65px" width="59.75px" xmlns="http://www.w3.org/2000/svg">
  <g transform="matrix(1.0, 0.0, 0.0, 1.0, 164.35, -27.9)">
    <path d="M-118.7 39.45 Q-118.7 42.4 -116.65 44.45 -114.55 46.55 -111.6 46.55 -108.7 46.55 -106.65 44.45 -104.6 42.4 -104.6 39.45 -104.6 36.6 -106.65 34.5 -108.7 32.45 -111.6 32.45 -114.55 32.45 -116.65 34.5 -118.7 36.6 -118.7 39.45" fill="#6b6b6b" fill-rule="evenodd" stroke="none">
      <animate attributeName="fill" dur="2s" repeatCount="indefinite" values="#6b6b6b;#6b6b6c"/>
      <animate attributeName="fill-opacity" dur="2s" repeatCount="indefinite" values="1.0;1.0"/>
      <animate attributeName="d" dur="2s" repeatCount="indefinite" values="M-118.7 39.45 Q-118.7 42.4 -116.65 44.45 -114.55 46.55 -111.6 46.55 -108.7 46.55 -106.65 44.45 -104.6 42.4 -104.6 39.45 -104.6 36.6 -106.65 34.5 -108.7 32.45 -111.6 32.45 -114.55 32.45 -116.65 34.5 -118.7 36.6 -118.7 39.45;M-164.35 31.7 Q-164.35 33.3 -163.2 34.4 -162.1 35.55 -160.5 35.55 -158.9 35.55 -157.75 34.4 -156.65 33.3 -156.65 31.7 -156.65 30.1 -157.75 29.0 -158.9 27.9 -160.5 27.9 -162.1 27.9 -163.2 29.0 -164.35 30.1 -164.35 31.7"/>
    </path>
    <path d="M-118.7 39.45 Q-118.7 36.6 -116.65 34.5 -114.55 32.45 -111.6 32.45 -108.7 32.45 -106.65 34.5 -104.6 36.6 -104.6 39.45 -104.6 42.4 -106.65 44.45 -108.7 46.55 -111.6 46.55 -114.55 46.55 -116.65 44.45 -118.7 42.4 -118.7 39.45" fill="none" stroke="#000000" stroke-linecap="round" stroke-linejoin="round" stroke-opacity="0.0" stroke-width="1.0">
      <animate attributeName="stroke" dur="2s" repeatCount="indefinite" values="#000000;#000001"/>
      <animate attributeName="stroke-width" dur="2s" repeatCount="indefinite" values="0.0;0.0"/>
      <animate attributeName="fill-opacity" dur="2s" repeatCount="indefinite" values="0.0;0.0"/>
      <animate attributeName="d" dur="2s" repeatCount="indefinite" values="M-118.7 39.45 Q-118.7 36.6 -116.65 34.5 -114.55 32.45 -111.6 32.45 -108.7 32.45 -106.65 34.5 -104.6 36.6 -104.6 39.45 -104.6 42.4 -106.65 44.45 -108.7 46.55 -111.6 46.55 -114.55 46.55 -116.65 44.45 -118.7 42.4 -118.7 39.45;M-164.35 31.7 Q-164.35 30.1 -163.2 29.0 -162.1 27.9 -160.5 27.9 -158.9 27.9 -157.75 29.0 -156.65 30.1 -156.65 31.7 -156.65 33.3 -157.75 34.4 -158.9 35.55 -160.5 35.55 -162.1 35.55 -163.2 34.4 -164.35 33.3 -164.35 31.7"/>
    </path>
  </g>
</svg>
