<?xml version="1.0" encoding="UTF-8" standalone="no"?>
<svg xmlns:xlink="http://www.w3.org/1999/xlink" height="9.9px" width="43.0px" xmlns="http://www.w3.org/2000/svg">
  <g transform="matrix(1.0, 0.0, 0.0, 1.0, 175.6, 60.6)">
    <path d="M-142.35 -55.75 Q-142.35 -53.75 -140.9 -52.3 -139.45 -50.9 -137.5 -50.9 -135.5 -50.9 -134.05 -52.3 -132.6 -53.75 -132.6 -55.75 -132.6 -57.75 -134.05 -59.15 -135.5 -60.6 -137.5 -60.6 -139.45 -60.6 -140.9 -59.15 -142.35 -57.75 -142.35 -55.75" fill="#6b6b6b" fill-rule="evenodd" stroke="none">
      <animate attributeName="fill" dur="2s" repeatCount="indefinite" values="#6b6b6b;#6b6b6c"/>
      <animate attributeName="fill-opacity" dur="2s" repeatCount="indefinite" values="1.0;1.0"/>
      <animate attributeName="d" dur="2s" repeatCount="indefinite" values="M-142.35 -55.75 Q-142.35 -53.75 -140.9 -52.3 -139.45 -50.9 -137.5 -50.9 -135.5 -50.9 -134.05 -52.3 -132.6 -53.75 -132.6 -55.75 -132.6 -57.75 -134.05 -59.15 -135.5 -60.6 -137.5 -60.6 -139.45 -60.6 -140.9 -59.15 -142.35 -57.75 -142.35 -55.75;M-175.6 -53.3 Q-175.6 -52.25 -174.85 -51.5 -174.1 -50.7 -173.0 -50.7 -171.95 -50.7 -171.15 -51.5 -170.4 -52.25 -170.4 -53.3 -170.4 -54.4 -171.15 -55.15 -171.95 -55.95 -173.0 -55.95 -174.1 -55.95 -174.85 -55.15 -175.6 -54.4 -175.6 -53.3"/>
    </path>
    <path d="M-142.35 -55.75 Q-142.35 -57.75 -140.9 -59.15 -139.45 -60.6 -137.5 -60.6 -135.5 -60.6 -134.05 -59.15 -132.6 -57.75 -132.6 -55.75 -132.6 -53.75 -134.05 -52.3 -135.5 -50.9 -137.5 -50.9 -139.45 -50.9 -140.9 -52.3 -142.35 -53.75 -142.35 -55.75" fill="none" stroke="#000000" stroke-linecap="round" stroke-linejoin="round" stroke-opacity="0.0" stroke-width="1.0">
      <animate attributeName="stroke" dur="2s" repeatCount="indefinite" values="#000000;#000001"/>
      <animate attributeName="stroke-width" dur="2s" repeatCount="indefinite" values="0.0;0.0"/>
      <animate attributeName="fill-opacity" dur="2s" repeatCount="indefinite" values="0.0;0.0"/>
      <animate attributeName="d" dur="2s" repeatCount="indefinite" values="M-142.35 -55.75 Q-142.35 -57.75 -140.9 -59.15 -139.45 -60.6 -137.5 -60.6 -135.5 -60.6 -134.05 -59.15 -132.6 -57.75 -132.6 -55.75 -132.6 -53.75 -134.05 -52.3 -135.5 -50.9 -137.5 -50.9 -139.45 -50.9 -140.9 -52.3 -142.35 -53.75 -142.35 -55.75;M-175.6 -53.3 Q-175.6 -54.4 -174.85 -55.15 -174.1 -55.95 -173.0 -55.95 -171.95 -55.95 -171.15 -55.15 -170.4 -54.4 -170.4 -53.3 -170.4 -52.25 -171.15 -51.5 -171.95 -50.7 -173.0 -50.7 -174.1 -50.7 -174.85 -51.5 -175.6 -52.25 -175.6 -53.3"/>
    </path>
  </g>
</svg>
