<?xml version="1.0" encoding="UTF-8" standalone="no"?>
<svg xmlns:xlink="http://www.w3.org/1999/xlink" height="10.0px" width="45.0px" xmlns="http://www.w3.org/2000/svg">
  <g transform="matrix(1.0, 0.0, 0.0, 1.0, 125.6, 11.3)">
    <path d="M-90.6 -6.3 Q-90.6 -4.2 -89.15 -2.8 -87.65 -1.3 -85.6 -1.3 -83.5 -1.3 -82.05 -2.8 -80.6 -4.2 -80.6 -6.3 -80.6 -8.4 -82.05 -9.85 -83.5 -11.3 -85.6 -11.3 -87.65 -11.3 -89.15 -9.85 -90.6 -8.4 -90.6 -6.3" fill="#6b6b6b" fill-rule="evenodd" stroke="none">
      <animate attributeName="fill" dur="2s" repeatCount="indefinite" values="#6b6b6b;#6b6b6c"/>
      <animate attributeName="fill-opacity" dur="2s" repeatCount="indefinite" values="1.0;1.0"/>
      <animate attributeName="d" dur="2s" repeatCount="indefinite" values="M-90.6 -6.3 Q-90.6 -4.2 -89.15 -2.8 -87.65 -1.3 -85.6 -1.3 -83.5 -1.3 -82.05 -2.8 -80.6 -4.2 -80.6 -6.3 -80.6 -8.4 -82.05 -9.85 -83.5 -11.3 -85.6 -11.3 -87.65 -11.3 -89.15 -9.85 -90.6 -8.4 -90.6 -6.3;M-125.6 -3.3 Q-125.6 -2.55 -125.1 -2.0 -124.6 -1.5 -123.85 -1.5 -123.1 -1.5 -122.6 -2.0 -122.05 -2.55 -122.05 -3.3 -122.05 -4.0 -122.6 -4.55 -123.1 -5.05 -123.85 -5.05 -124.6 -5.05 -125.1 -4.55 -125.6 -4.0 -125.6 -3.3"/>
    </path>
    <path d="M-90.6 -6.3 Q-90.6 -8.4 -89.15 -9.85 -87.65 -11.3 -85.6 -11.3 -83.5 -11.3 -82.05 -9.85 -80.6 -8.4 -80.6 -6.3 -80.6 -4.2 -82.05 -2.8 -83.5 -1.3 -85.6 -1.3 -87.65 -1.3 -89.15 -2.8 -90.6 -4.2 -90.6 -6.3" fill="none" stroke="#000000" stroke-linecap="round" stroke-linejoin="round" stroke-opacity="0.0" stroke-width="1.0">
      <animate attributeName="stroke" dur="2s" repeatCount="indefinite" values="#000000;#000001"/>
      <animate attributeName="stroke-width" dur="2s" repeatCount="indefinite" values="0.0;0.0"/>
      <animate attributeName="fill-opacity" dur="2s" repeatCount="indefinite" values="0.0;0.0"/>
      <animate attributeName="d" dur="2s" repeatCount="indefinite" values="M-90.6 -6.3 Q-90.6 -8.4 -89.15 -9.85 -87.65 -11.3 -85.6 -11.3 -83.5 -11.3 -82.05 -9.85 -80.6 -8.4 -80.6 -6.3 -80.6 -4.2 -82.05 -2.8 -83.5 -1.3 -85.6 -1.3 -87.65 -1.3 -89.15 -2.8 -90.6 -4.2 -90.6 -6.3;M-125.6 -3.3 Q-125.6 -4.0 -125.1 -4.55 -124.6 -5.05 -123.85 -5.05 -123.1 -5.05 -122.6 -4.55 -122.05 -4.0 -122.05 -3.3 -122.05 -2.55 -122.6 -2.0 -123.1 -1.5 -123.85 -1.5 -124.6 -1.5 -125.1 -2.0 -125.6 -2.55 -125.6 -3.3"/>
    </path>
  </g>
</svg>
