<?xml version="1.0" encoding="UTF-8" standalone="no"?>
<svg xmlns:xlink="http://www.w3.org/1999/xlink" height="268.5px" width="137.05px" xmlns="http://www.w3.org/2000/svg">
  <g transform="matrix(1.0, 0.0, 0.0, 1.0, 29.5, 134.25)">
    <path d="M-29.5 122.85 Q-21.65 134.25 -12.35 134.25 5.0 134.25 17.25 94.9 29.55 55.6 29.55 0.0 29.55 -55.6 17.25 -94.95 5.0 -134.25 -12.35 -134.25 -21.6 -134.25 -27.35 -123.1 -10.0 -123.1 2.25 -87.1 14.55 -51.0 14.55 -0.05 14.55 50.9 2.25 86.9 -10.0 123.0 -27.35 123.0 L-29.5 122.85" fill="#70e2ff" fill-rule="evenodd" stroke="none">
      <animate attributeName="fill" dur="2s" repeatCount="indefinite" values="#70e2ff;#70e2ff"/>
      <animate attributeName="fill-opacity" dur="2s" repeatCount="indefinite" values="1.0;1.0"/>
      <animate attributeName="d" dur="2s" repeatCount="indefinite" values="M-29.5 122.85 Q-21.65 134.25 -12.35 134.25 5.0 134.25 17.25 94.9 29.55 55.6 29.55 0.0 29.55 -55.6 17.25 -94.95 5.0 -134.25 -12.35 -134.25 -21.6 -134.25 -27.35 -123.1 -10.0 -123.1 2.25 -87.1 14.55 -51.0 14.55 -0.05 14.55 50.9 2.25 86.9 -10.0 123.0 -27.35 123.0 L-29.5 122.85;M48.5 122.85 Q56.35 134.25 65.65 134.25 83.0 134.25 95.25 94.9 107.55 55.6 107.55 0.0 107.55 -55.6 95.25 -94.95 83.0 -134.25 65.65 -134.25 56.4 -134.25 50.65 -123.1 68.0 -123.1 80.25 -87.1 92.55 -51.0 92.55 -0.05 92.55 50.9 80.25 86.9 68.0 123.0 50.65 123.0 L48.5 122.85"/>
    </path>
    <path d="M-29.5 122.85 L-27.35 123.0 Q-10.0 123.0 2.25 86.9 14.55 50.9 14.55 -0.05 14.55 -51.0 2.25 -87.1 -10.0 -123.1 -27.35 -123.1 -21.6 -134.25 -12.35 -134.25 5.0 -134.25 17.25 -94.95 29.55 -55.6 29.55 0.0 29.55 55.6 17.25 94.9 5.0 134.25 -12.35 134.25 -21.65 134.25 -29.5 122.85" fill="none" stroke="#000000" stroke-linecap="round" stroke-linejoin="round" stroke-opacity="0.0" stroke-width="1.0">
      <animate attributeName="stroke" dur="2s" repeatCount="indefinite" values="#000000;#000001"/>
      <animate attributeName="stroke-width" dur="2s" repeatCount="indefinite" values="0.0;0.0"/>
      <animate attributeName="fill-opacity" dur="2s" repeatCount="indefinite" values="0.0;0.0"/>
      <animate attributeName="d" dur="2s" repeatCount="indefinite" values="M-29.5 122.85 L-27.35 123.0 Q-10.0 123.0 2.25 86.9 14.55 50.9 14.55 -0.05 14.55 -51.0 2.25 -87.1 -10.0 -123.1 -27.35 -123.1 -21.6 -134.25 -12.35 -134.25 5.0 -134.25 17.25 -94.95 29.55 -55.6 29.55 0.0 29.55 55.6 17.25 94.9 5.0 134.25 -12.35 134.25 -21.65 134.25 -29.5 122.85;M48.5 122.85 L50.65 123.0 Q68.0 123.0 80.25 86.9 92.55 50.9 92.55 -0.05 92.55 -51.0 80.25 -87.1 68.0 -123.1 50.65 -123.1 56.4 -134.25 65.65 -134.25 83.0 -134.25 95.25 -94.95 107.55 -55.6 107.55 0.0 107.55 55.6 95.25 94.9 83.0 134.25 65.65 134.25 56.35 134.25 48.5 122.85"/>
    </path>
  </g>
</svg>
