<?xml version="1.0" encoding="UTF-8" standalone="no"?>
<svg xmlns:xlink="http://www.w3.org/1999/xlink" height="17.2px" width="17.2px" xmlns="http://www.w3.org/2000/svg">
  <g transform="matrix(1.0, 0.0, 0.0, 1.0, 8.3, 69.0)">
    <path d="M-8.3 -60.4 Q-8.3 -56.8 -5.8 -54.3 -3.3 -51.8 0.3 -51.8 3.9 -51.8 6.4 -54.3 8.9 -56.8 8.9 -60.4 8.9 -64.0 6.4 -66.5 3.9 -69.0 0.3 -69.0 -3.3 -69.0 -5.8 -66.5 -8.3 -64.0 -8.3 -60.4" fill="#f73600" fill-rule="evenodd" stroke="none">
      <animate attributeName="fill" dur="2s" repeatCount="indefinite" values="#f73600;#f73601"/>
      <animate attributeName="fill-opacity" dur="2s" repeatCount="indefinite" values="1.0;0.0"/>
      <animate attributeName="d" dur="2s" repeatCount="indefinite" values="M-8.3 -60.4 Q-8.3 -56.8 -5.8 -54.3 -3.3 -51.8 0.3 -51.8 3.9 -51.8 6.4 -54.3 8.9 -56.8 8.9 -60.4 8.9 -64.0 6.4 -66.5 3.9 -69.0 0.3 -69.0 -3.3 -69.0 -5.8 -66.5 -8.3 -64.0 -8.3 -60.4;M-8.3 -60.4 Q-8.3 -56.8 -5.8 -54.3 -3.3 -51.8 0.3 -51.8 3.9 -51.8 6.4 -54.3 8.9 -56.8 8.9 -60.4 8.9 -64.0 6.4 -66.5 3.9 -69.0 0.3 -69.0 -3.3 -69.0 -5.8 -66.5 -8.3 -64.0 -8.3 -60.4"/>
    </path>
    <path d="M-8.3 -60.4 Q-8.3 -64.0 -5.8 -66.5 -3.3 -69.0 0.3 -69.0 3.9 -69.0 6.4 -66.5 8.9 -64.0 8.9 -60.4 8.9 -56.8 6.4 -54.3 3.9 -51.8 0.3 -51.8 -3.3 -51.8 -5.8 -54.3 -8.3 -56.8 -8.3 -60.4" fill="none" stroke="#000000" stroke-linecap="round" stroke-linejoin="round" stroke-opacity="0.0" stroke-width="1.0">
      <animate attributeName="stroke" dur="2s" repeatCount="indefinite" values="#000000;#000001"/>
      <animate attributeName="stroke-width" dur="2s" repeatCount="indefinite" values="0.0;0.0"/>
      <animate attributeName="fill-opacity" dur="2s" repeatCount="indefinite" values="0.0;0.0"/>
      <animate attributeName="d" dur="2s" repeatCount="indefinite" values="M-8.3 -60.4 Q-8.3 -64.0 -5.8 -66.5 -3.3 -69.0 0.3 -69.0 3.9 -69.0 6.4 -66.5 8.9 -64.0 8.9 -60.4 8.9 -56.8 6.4 -54.3 3.9 -51.8 0.3 -51.8 -3.3 -51.8 -5.8 -54.3 -8.3 -56.8 -8.3 -60.4;M-8.3 -60.4 Q-8.3 -64.0 -5.8 -66.5 -3.3 -69.0 0.3 -69.0 3.9 -69.0 6.4 -66.5 8.9 -64.0 8.9 -60.4 8.9 -56.8 6.4 -54.3 3.9 -51.8 0.3 -51.8 -3.3 -51.8 -5.8 -54.3 -8.3 -56.8 -8.3 -60.4"/>
    </path>
  </g>
</svg>
