<?xml version="1.0" encoding="UTF-8" standalone="no"?>
<svg xmlns:xlink="http://www.w3.org/1999/xlink" height="13.6px" width="37.45px" xmlns="http://www.w3.org/2000/svg">
  <g transform="matrix(1.0, 0.0, 0.0, 1.0, 108.75, -129.15)">
    <path d="M-108.75 130.95 L-108.75 131.45 -108.7 131.9 -108.55 132.4 -108.2 132.85 -107.6 133.4 -106.45 133.55 -105.35 133.3 Q-104.55 132.85 -104.3 131.95 -104.0 130.85 -104.9 130.1 -105.6 129.55 -106.45 129.15 L-106.45 129.2 -107.55 129.55 -108.2 130.0 -108.55 130.45 -108.75 130.95" fill="#999999" fill-rule="evenodd" stroke="none">
      <animate attributeName="fill" dur="2s" repeatCount="indefinite" values="#999999;#99999a"/>
      <animate attributeName="fill-opacity" dur="2s" repeatCount="indefinite" values="1.0;1.0"/>
      <animate attributeName="d" dur="2s" repeatCount="indefinite" values="M-108.75 130.95 L-108.75 131.45 -108.7 131.9 -108.55 132.4 -108.2 132.85 -107.6 133.4 -106.45 133.55 -105.35 133.3 Q-104.55 132.85 -104.3 131.95 -104.0 130.85 -104.9 130.1 -105.6 129.55 -106.45 129.15 L-106.45 129.2 -107.55 129.55 -108.2 130.0 -108.55 130.45 -108.75 130.95;M-77.15 139.55 L-77.15 140.15 -77.15 140.75 -76.9 141.35 -76.45 141.9 -75.7 142.6 -74.2 142.75 -72.75 142.45 Q-71.7 141.9 -71.4 140.8 -71.0 139.45 -72.15 138.5 -73.05 137.85 -74.2 137.35 L-74.2 137.4 -75.6 137.85 -76.45 138.4 -76.9 138.95 -77.15 139.55"/>
    </path>
    <path d="M-108.75 130.95 L-108.55 130.45 -108.2 130.0 -107.55 129.55 -106.45 129.2 -106.45 129.15 Q-105.6 129.55 -104.9 130.1 -104.0 130.85 -104.3 131.95 -104.55 132.85 -105.35 133.3 L-106.45 133.55 -107.6 133.4 -108.2 132.85 -108.55 132.4 -108.7 131.9 -108.75 131.45 -108.75 130.95" fill="none" stroke="#000000" stroke-linecap="round" stroke-linejoin="round" stroke-opacity="0.0" stroke-width="1.0">
      <animate attributeName="stroke" dur="2s" repeatCount="indefinite" values="#000000;#000001"/>
      <animate attributeName="stroke-width" dur="2s" repeatCount="indefinite" values="0.0;0.0"/>
      <animate attributeName="fill-opacity" dur="2s" repeatCount="indefinite" values="0.0;0.0"/>
      <animate attributeName="d" dur="2s" repeatCount="indefinite" values="M-108.75 130.95 L-108.55 130.45 -108.2 130.0 -107.55 129.55 -106.45 129.2 -106.45 129.15 Q-105.6 129.55 -104.9 130.1 -104.0 130.85 -104.3 131.95 -104.55 132.85 -105.35 133.3 L-106.45 133.55 -107.6 133.4 -108.2 132.85 -108.55 132.4 -108.7 131.9 -108.75 131.45 -108.75 130.95;M-77.15 139.55 L-76.9 138.95 -76.45 138.4 -75.6 137.85 -74.2 137.4 -74.2 137.35 Q-73.05 137.85 -72.15 138.5 -71.0 139.45 -71.4 140.8 -71.7 141.9 -72.75 142.45 L-74.2 142.75 -75.7 142.6 -76.45 141.9 -76.9 141.35 -77.15 140.75 -77.15 140.15 -77.15 139.55"/>
    </path>
  </g>
</svg>
