<?xml version="1.0" encoding="UTF-8" standalone="no"?>
<svg xmlns:xlink="http://www.w3.org/1999/xlink" height="38.85px" width="108.8px" xmlns="http://www.w3.org/2000/svg">
  <g transform="matrix(1.0, 0.0, 0.0, 1.0, 53.4, -16.25)">
    <path d="M19.6 35.65 Q19.6 43.7 24.8 49.35 30.1 55.1 37.5 55.1 44.9 55.1 50.1 49.35 55.4 43.7 55.4 35.65 55.4 27.65 50.1 21.9 44.9 16.25 37.5 16.25 30.1 16.25 24.8 21.9 19.6 27.65 19.6 35.65 M-53.4 35.65 Q-53.4 43.7 -48.2 49.35 -42.9 55.1 -35.5 55.1 -28.1 55.1 -22.9 49.35 -17.6 43.7 -17.6 35.65 -17.6 27.65 -22.9 21.9 -28.1 16.25 -35.5 16.25 -42.9 16.25 -48.2 21.9 -53.4 27.65 -53.4 35.65" fill="#fffc19" fill-rule="evenodd" stroke="none">
      <animate attributeName="fill" dur="2s" repeatCount="indefinite" values="#fffc19;#fffc1a"/>
      <animate attributeName="fill-opacity" dur="2s" repeatCount="indefinite" values="1.0;0.0"/>
      <animate attributeName="d" dur="2s" repeatCount="indefinite" values="M19.6 35.65 Q19.6 43.7 24.8 49.35 30.1 55.1 37.5 55.1 44.9 55.1 50.1 49.35 55.4 43.7 55.4 35.65 55.4 27.65 50.1 21.9 44.9 16.25 37.5 16.25 30.1 16.25 24.8 21.9 19.6 27.65 19.6 35.65 M-53.4 35.65 Q-53.4 43.7 -48.2 49.35 -42.9 55.1 -35.5 55.1 -28.1 55.1 -22.9 49.35 -17.6 43.7 -17.6 35.65 -17.6 27.65 -22.9 21.9 -28.1 16.25 -35.5 16.25 -42.9 16.25 -48.2 21.9 -53.4 27.65 -53.4 35.65;M19.6 35.65 Q19.6 43.7 24.8 49.35 30.1 55.1 37.5 55.1 44.9 55.1 50.1 49.35 55.4 43.7 55.4 35.65 55.4 27.65 50.1 21.9 44.9 16.25 37.5 16.25 30.1 16.25 24.8 21.9 19.6 27.65 19.6 35.65 M-53.4 35.65 Q-53.4 43.7 -48.2 49.35 -42.9 55.1 -35.5 55.1 -28.1 55.1 -22.9 49.35 -17.6 43.7 -17.6 35.65 -17.6 27.65 -22.9 21.9 -28.1 16.25 -35.5 16.25 -42.9 16.25 -48.2 21.9 -53.4 27.65 -53.4 35.65"/>
    </path>
    <path d="M-53.4 35.65 Q-53.4 27.65 -48.2 21.9 -42.9 16.25 -35.5 16.25 -28.1 16.25 -22.9 21.9 -17.6 27.65 -17.6 35.65 -17.6 43.7 -22.9 49.35 -28.1 55.1 -35.5 55.1 -42.9 55.1 -48.2 49.35 -53.4 43.7 -53.4 35.65 M19.6 35.65 Q19.6 27.65 24.8 21.9 30.1 16.25 37.5 16.25 44.9 16.25 50.1 21.9 55.4 27.65 55.4 35.65 55.4 43.7 50.1 49.35 44.9 55.1 37.5 55.1 30.1 55.1 24.8 49.35 19.6 43.7 19.6 35.65" fill="none" stroke="#000000" stroke-linecap="round" stroke-linejoin="round" stroke-opacity="0.0" stroke-width="1.0">
      <animate attributeName="stroke" dur="2s" repeatCount="indefinite" values="#000000;#000001"/>
      <animate attributeName="stroke-width" dur="2s" repeatCount="indefinite" values="0.0;0.0"/>
      <animate attributeName="fill-opacity" dur="2s" repeatCount="indefinite" values="0.0;0.0"/>
      <animate attributeName="d" dur="2s" repeatCount="indefinite" values="M-53.4 35.65 Q-53.4 27.65 -48.2 21.9 -42.9 16.25 -35.5 16.25 -28.1 16.25 -22.9 21.9 -17.6 27.65 -17.6 35.65 -17.6 43.7 -22.9 49.35 -28.1 55.1 -35.5 55.1 -42.9 55.1 -48.2 49.35 -53.4 43.7 -53.4 35.65 M19.6 35.65 Q19.6 27.65 24.8 21.9 30.1 16.25 37.5 16.25 44.9 16.25 50.1 21.9 55.4 27.65 55.4 35.65 55.4 43.7 50.1 49.35 44.9 55.1 37.5 55.1 30.1 55.1 24.8 49.35 19.6 43.7 19.6 35.65;M-53.4 35.65 Q-53.4 27.65 -48.2 21.9 -42.9 16.25 -35.5 16.25 -28.1 16.25 -22.9 21.9 -17.6 27.65 -17.6 35.65 -17.6 43.7 -22.9 49.35 -28.1 55.1 -35.5 55.1 -42.9 55.1 -48.2 49.35 -53.4 43.7 -53.4 35.65 M19.6 35.65 Q19.6 27.65 24.8 21.9 30.1 16.25 37.5 16.25 44.9 16.25 50.1 21.9 55.4 27.65 55.4 35.65 55.4 43.7 50.1 49.35 44.9 55.1 37.5 55.1 30.1 55.1 24.8 49.35 19.6 43.7 19.6 35.65"/>
    </path>
  </g>
</svg>
