<?xml version="1.0" encoding="UTF-8" standalone="no"?>
<svg xmlns:xlink="http://www.w3.org/1999/xlink" height="19.1px" width="19.25px" xmlns="http://www.w3.org/2000/svg">
  <g transform="matrix(1.0, 0.0, 0.0, 1.0, -2.35, 14.9)">
    <path d="M2.5 -8.7 L3.4 -8.1 Q4.6 -7.3 6.25 -6.85 L10.15 -5.85 Q13.1 -4.85 14.95 -2.05 14.95 -2.95 14.3 -3.7 16.55 -3.6 17.9 -2.35 L15.8 -0.6 16.2 0.2 17.6 3.55 18.05 2.75 18.8 0.85 19.05 -0.8 19.1 -1.35 Q19.35 -5.85 16.25 -9.4 L15.3 -10.4 14.15 -11.5 Q10.3 -14.85 7.35 -14.9 4.45 -14.95 2.9 -11.85 2.1 -10.15 2.5 -8.7" fill="#32ad80" fill-rule="evenodd" stroke="none">
      <animate attributeName="fill" dur="2s" repeatCount="indefinite" values="#32ad80;#32ad81"/>
      <animate attributeName="fill-opacity" dur="2s" repeatCount="indefinite" values="1.0;1.0"/>
      <animate attributeName="d" dur="2s" repeatCount="indefinite" values="M2.5 -8.7 L3.4 -8.1 Q4.6 -7.3 6.25 -6.85 L10.15 -5.85 Q13.1 -4.85 14.95 -2.05 14.95 -2.95 14.3 -3.7 16.55 -3.6 17.9 -2.35 L15.8 -0.6 16.2 0.2 17.6 3.55 18.05 2.75 18.8 0.85 19.05 -0.8 19.1 -1.35 Q19.35 -5.85 16.25 -9.4 L15.3 -10.4 14.15 -11.5 Q10.3 -14.85 7.35 -14.9 4.45 -14.95 2.9 -11.85 2.1 -10.15 2.5 -8.7;M5.25 -11.55 L5.4 -11.4 Q5.65 -11.25 5.85 -11.15 L6.5 -10.95 Q6.9 -10.55 7.25 -10.15 7.2 -10.35 7.15 -10.5 7.5 -10.45 7.7 -10.2 L7.4 -9.85 7.45 -9.65 7.65 -8.95 7.75 -9.1 7.85 -9.5 7.9 -9.85 7.9 -10.0 Q7.95 -10.95 7.45 -11.7 L7.3 -11.9 7.1 -12.15 Q6.5 -12.85 6.05 -12.85 5.55 -12.85 5.3 -12.2 5.25 -11.85 5.25 -11.55"/>
    </path>
    <path d="M2.45 -8.75 Q2.65 -8.05 3.15 -7.4 L3.65 -6.85 5.95 -5.2 6.85 -4.65 7.95 -4.3 9.1 -4.0 10.0 -3.8 10.9 -3.55 11.45 -3.35 12.05 -3.0 12.55 -2.7 13.8 -1.6 14.6 -0.55 14.95 -2.05 13.85 -3.5 Q12.25 -5.15 10.15 -5.85 L8.9 -6.25 5.75 -7.0 Q4.4 -7.4 2.5 -8.7 L2.45 -8.75 M14.9 -0.1 L14.9 -0.1 15.5 1.0 15.6 1.2 15.85 1.8 15.95 2.0 16.1 2.5 16.7 4.2 Q17.15 4.2 17.4 3.05 L15.7 -0.5 14.9 -0.1" fill="#006b5c" fill-rule="evenodd" stroke="none">
      <animate attributeName="fill" dur="2s" repeatCount="indefinite" values="#006b5c;#006b5d"/>
      <animate attributeName="fill-opacity" dur="2s" repeatCount="indefinite" values="1.0;1.0"/>
      <animate attributeName="d" dur="2s" repeatCount="indefinite" values="M2.45 -8.75 Q2.65 -8.05 3.15 -7.4 L3.65 -6.85 5.95 -5.2 6.85 -4.65 7.95 -4.3 9.1 -4.0 10.0 -3.8 10.9 -3.55 11.45 -3.35 12.05 -3.0 12.55 -2.7 13.8 -1.6 14.6 -0.55 14.95 -2.05 13.85 -3.5 Q12.25 -5.15 10.15 -5.85 L8.9 -6.25 5.75 -7.0 Q4.4 -7.4 2.5 -8.7 L2.45 -8.75 M14.9 -0.1 L14.9 -0.1 15.5 1.0 15.6 1.2 15.85 1.8 15.95 2.0 16.1 2.5 16.7 4.2 Q17.15 4.2 17.4 3.05 L15.7 -0.5 14.9 -0.1;M5.25 -11.55 Q5.3 -11.45 5.3 -11.35 L5.35 -11.25 5.65 -10.9 5.8 -10.8 5.95 -10.65 6.1 -10.6 6.35 -10.5 6.45 -10.5 6.45 -10.5 6.6 -10.45 6.7 -10.4 6.85 -10.25 7.1 -10.0 7.2 -9.8 7.25 -10.15 Q7.0 -10.5 6.8 -10.8 L6.5 -10.95 5.85 -11.15 Q5.55 -11.35 5.25 -11.55 L5.25 -11.55 M7.25 -9.7 L7.25 -9.65 7.3 -9.5 7.35 -9.5 7.4 -9.3 7.4 -9.3 7.45 -9.2 7.55 -8.8 Q7.6 -8.9 7.65 -8.95 L7.4 -9.85 7.25 -9.7"/>
    </path>
    <path d="M7.6 -12.55 L7.6 -12.25 7.5 -10.6 7.7 -9.65 7.85 -9.15 8.05 -8.75 9.25 -9.6 10.7 -10.9 Q11.05 -11.25 10.7 -11.5 L8.25 -11.9 7.6 -12.55" fill="#32ad80" fill-rule="evenodd" stroke="none">
      <animate attributeName="fill" dur="2s" repeatCount="indefinite" values="#32ad80;#006b5d"/>
      <animate attributeName="fill-opacity" dur="2s" repeatCount="indefinite" values="1.0;1.0"/>
      <animate attributeName="d" dur="2s" repeatCount="indefinite" values="M7.6 -12.55 L7.6 -12.25 7.5 -10.6 7.7 -9.65 7.85 -9.15 8.05 -8.75 9.25 -9.6 10.7 -10.9 Q11.05 -11.25 10.7 -11.5 L8.25 -11.9 7.6 -12.55;M7.25 -9.7 L7.25 -9.7 7.35 -9.5 7.4 -9.3 7.45 -9.2 7.45 -9.1 7.55 -8.8 7.65 -8.95 Q7.6 -9.1 7.55 -9.25 L7.4 -9.85 7.25 -9.7"/>
    </path>
    <path d="M14.3 -3.7 Q14.95 -2.95 14.95 -1.85 L14.55 -0.4 14.35 0.2 14.9 -0.1 17.9 -2.35 Q16.55 -3.6 14.3 -3.7 M14.15 -11.5 L14.25 -11.4 15.1 -10.6 15.3 -10.4 15.85 -9.8 16.25 -9.4 16.7 -10.45 17.2 -11.95 17.4 -12.55 14.9 -11.4 14.15 -11.5 M8.85 -1.2 L8.85 -1.2 9.25 -1.75 9.35 -2.05 9.45 -2.15 9.9 -3.05 10.0 -3.8 10.9 -3.55 12.55 -2.7 Q11.6 -2.1 9.55 -1.4 L8.85 -1.2 M7.6 -12.55 L7.6 -12.25 7.5 -10.6 7.7 -9.65 7.85 -9.15 8.05 -8.75 9.25 -9.6 10.7 -10.9 Q11.05 -11.25 10.7 -11.5 L8.25 -11.9 7.6 -12.55 M18.8 0.85 L19.3 0.65 20.1 0.35 20.2 0.25 20.7 -0.05 20.9 -0.15 21.6 -0.55 21.2 -0.65 20.9 -0.65 Q20.4 -0.75 19.1 -1.35 L18.9 0.25 18.8 0.85" fill="#ffe693" fill-rule="evenodd" stroke="none">
      <animate attributeName="fill" dur="2s" repeatCount="indefinite" values="#ffe693;#006b5d"/>
      <animate attributeName="fill-opacity" dur="2s" repeatCount="indefinite" values="1.0;1.0"/>
      <animate attributeName="d" dur="2s" repeatCount="indefinite" values="M14.3 -3.7 Q14.95 -2.95 14.95 -1.85 L14.55 -0.4 14.35 0.2 14.9 -0.1 17.9 -2.35 Q16.55 -3.6 14.3 -3.7 M14.15 -11.5 L14.25 -11.4 15.1 -10.6 15.3 -10.4 15.85 -9.8 16.25 -9.4 16.7 -10.45 17.2 -11.95 17.4 -12.55 14.9 -11.4 14.15 -11.5 M8.85 -1.2 L8.85 -1.2 9.25 -1.75 9.35 -2.05 9.45 -2.15 9.9 -3.05 10.0 -3.8 10.9 -3.55 12.55 -2.7 Q11.6 -2.1 9.55 -1.4 L8.85 -1.2 M7.6 -12.55 L7.6 -12.25 7.5 -10.6 7.7 -9.65 7.85 -9.15 8.05 -8.75 9.25 -9.6 10.7 -10.9 Q11.05 -11.25 10.7 -11.5 L8.25 -11.9 7.6 -12.55 M18.8 0.85 L19.3 0.65 20.1 0.35 20.2 0.25 20.7 -0.05 20.9 -0.15 21.6 -0.55 21.2 -0.65 20.9 -0.65 Q20.4 -0.75 19.1 -1.35 L18.9 0.25 18.8 0.85;M7.25 -9.7 Q7.3 -9.6 7.35 -9.5 L7.45 -9.2 7.55 -8.8 7.65 -8.95 7.4 -9.85 Q7.3 -9.75 7.25 -9.7 M7.25 -9.7 L7.25 -9.7 7.3 -9.5 7.35 -9.4 7.4 -9.3 7.45 -9.1 7.55 -8.8 7.65 -8.95 7.65 -9.05 7.4 -9.85 7.25 -9.7 M7.25 -9.7 L7.25 -9.65 7.3 -9.5 7.3 -9.5 7.35 -9.5 7.45 -9.2 7.55 -9.0 7.55 -8.8 7.65 -8.95 Q7.5 -9.4 7.4 -9.85 L7.25 -9.7 M7.25 -9.7 L7.25 -9.7 7.35 -9.5 7.4 -9.3 7.45 -9.2 7.45 -9.1 7.55 -8.8 7.65 -8.95 Q7.6 -9.1 7.55 -9.25 L7.4 -9.85 7.25 -9.7 M7.25 -9.7 L7.25 -9.7 7.3 -9.5 7.35 -9.5 7.4 -9.3 7.45 -9.2 7.55 -8.9 7.55 -8.8 7.55 -8.8 Q7.6 -9.0 7.65 -9.15 L7.4 -9.85 7.25 -9.7"/>
    </path>
    <path d="M2.5 -8.7 Q2.1 -10.15 2.9 -11.85 4.45 -14.95 7.35 -14.9 10.3 -14.85 14.15 -11.5 L15.3 -10.4 16.25 -9.4 Q19.35 -5.85 19.1 -1.35 L19.05 -0.8 18.8 0.85 18.05 2.75 17.6 3.55 16.2 0.2 15.8 -0.6 17.9 -2.35 Q16.55 -3.6 14.3 -3.7 14.95 -2.95 14.95 -2.05 13.1 -4.85 10.15 -5.85 L6.25 -6.85 Q4.6 -7.3 3.4 -8.1 L2.5 -8.7 M2.45 -8.75 L2.5 -8.7 Q4.4 -7.4 5.75 -7.0 L8.9 -6.25 10.15 -5.85 Q12.25 -5.15 13.85 -3.5 L14.95 -2.05 14.6 -0.55 13.8 -1.6 12.55 -2.7 12.05 -3.0 11.45 -3.35 10.9 -3.55 10.0 -3.8 9.1 -4.0 7.95 -4.3 6.85 -4.65 5.95 -5.2 3.65 -6.85 3.15 -7.4 Q2.65 -8.05 2.45 -8.75 M7.6 -12.55 L8.25 -11.9 10.7 -11.5 Q11.05 -11.25 10.7 -10.9 L9.25 -9.6 8.05 -8.75 7.85 -9.15 7.7 -9.65 7.5 -10.6 7.6 -12.25 7.6 -12.55 8.25 -11.9 10.7 -11.5 Q11.05 -11.25 10.7 -10.9 L9.25 -9.6 8.05 -8.75 7.85 -9.15 7.7 -9.65 7.5 -10.6 7.6 -12.25 7.6 -12.55 M8.85 -1.2 L9.55 -1.4 Q11.6 -2.1 12.55 -2.7 L10.9 -3.55 10.0 -3.8 9.9 -3.05 9.45 -2.15 9.35 -2.05 9.25 -1.75 8.85 -1.2 8.85 -1.2 M14.15 -11.5 L14.9 -11.4 17.4 -12.55 17.2 -11.95 16.7 -10.45 16.25 -9.4 15.85 -9.8 15.3 -10.4 15.1 -10.6 14.25 -11.4 14.15 -11.5 M14.3 -3.7 Q16.55 -3.6 17.9 -2.35 L14.9 -0.1 14.35 0.2 14.55 -0.4 14.95 -1.85 Q14.95 -2.95 14.3 -3.7 M14.9 -0.1 L15.7 -0.5 17.4 3.05 Q17.15 4.2 16.7 4.2 L16.1 2.5 15.95 2.0 15.85 1.8 15.6 1.2 15.5 1.0 14.9 -0.1 14.9 -0.1 M18.8 0.85 L18.9 0.25 19.1 -1.35 Q20.4 -0.75 20.9 -0.65 L21.2 -0.65 21.6 -0.55 20.9 -0.15 20.7 -0.05 20.2 0.25 20.1 0.35 19.3 0.65 18.8 0.85" fill="none" stroke="#000000" stroke-linecap="round" stroke-linejoin="round" stroke-opacity="0.0" stroke-width="1.0">
      <animate attributeName="stroke" dur="2s" repeatCount="indefinite" values="#000000;#000001"/>
      <animate attributeName="stroke-width" dur="2s" repeatCount="indefinite" values="0.0;0.0"/>
      <animate attributeName="fill-opacity" dur="2s" repeatCount="indefinite" values="0.0;0.0"/>
      <animate attributeName="d" dur="2s" repeatCount="indefinite" values="M2.5 -8.7 Q2.1 -10.15 2.9 -11.85 4.45 -14.95 7.35 -14.9 10.3 -14.85 14.15 -11.5 L15.3 -10.4 16.25 -9.4 Q19.35 -5.85 19.1 -1.35 L19.05 -0.8 18.8 0.85 18.05 2.75 17.6 3.55 16.2 0.2 15.8 -0.6 17.9 -2.35 Q16.55 -3.6 14.3 -3.7 14.95 -2.95 14.95 -2.05 13.1 -4.85 10.15 -5.85 L6.25 -6.85 Q4.6 -7.3 3.4 -8.1 L2.5 -8.7 M2.45 -8.75 L2.5 -8.7 Q4.4 -7.4 5.75 -7.0 L8.9 -6.25 10.15 -5.85 Q12.25 -5.15 13.85 -3.5 L14.95 -2.05 14.6 -0.55 13.8 -1.6 12.55 -2.7 12.05 -3.0 11.45 -3.35 10.9 -3.55 10.0 -3.8 9.1 -4.0 7.95 -4.3 6.85 -4.65 5.95 -5.2 3.65 -6.85 3.15 -7.4 Q2.65 -8.05 2.45 -8.75 M7.6 -12.55 L8.25 -11.9 10.7 -11.5 Q11.05 -11.25 10.7 -10.9 L9.25 -9.6 8.05 -8.75 7.85 -9.15 7.7 -9.65 7.5 -10.6 7.6 -12.25 7.6 -12.55 8.25 -11.9 10.7 -11.5 Q11.05 -11.25 10.7 -10.9 L9.25 -9.6 8.05 -8.75 7.85 -9.15 7.7 -9.65 7.5 -10.6 7.6 -12.25 7.6 -12.55 M8.85 -1.2 L9.55 -1.4 Q11.6 -2.1 12.55 -2.7 L10.9 -3.55 10.0 -3.8 9.9 -3.05 9.45 -2.15 9.35 -2.05 9.25 -1.75 8.85 -1.2 8.85 -1.2 M14.15 -11.5 L14.9 -11.4 17.4 -12.55 17.2 -11.95 16.7 -10.45 16.25 -9.4 15.85 -9.8 15.3 -10.4 15.1 -10.6 14.25 -11.4 14.15 -11.5 M14.3 -3.7 Q16.55 -3.6 17.9 -2.35 L14.9 -0.1 14.35 0.2 14.55 -0.4 14.95 -1.85 Q14.95 -2.95 14.3 -3.7 M14.9 -0.1 L15.7 -0.5 17.4 3.05 Q17.15 4.2 16.7 4.2 L16.1 2.5 15.95 2.0 15.85 1.8 15.6 1.2 15.5 1.0 14.9 -0.1 14.9 -0.1 M18.8 0.85 L18.9 0.25 19.1 -1.35 Q20.4 -0.75 20.9 -0.65 L21.2 -0.65 21.6 -0.55 20.9 -0.15 20.7 -0.05 20.2 0.25 20.1 0.35 19.3 0.65 18.8 0.85;M5.25 -11.55 Q5.25 -11.85 5.3 -12.2 5.55 -12.85 6.05 -12.85 6.5 -12.85 7.1 -12.15 L7.3 -11.9 7.45 -11.7 Q7.95 -10.95 7.9 -10.0 L7.9 -9.85 7.85 -9.5 7.75 -9.1 7.65 -8.95 7.45 -9.65 7.4 -9.85 7.7 -10.2 Q7.5 -10.45 7.15 -10.5 7.2 -10.35 7.25 -10.15 6.9 -10.55 6.5 -10.95 L5.85 -11.15 Q5.65 -11.25 5.4 -11.4 L5.25 -11.55 M5.25 -11.55 L5.25 -11.55 Q5.55 -11.35 5.85 -11.15 L6.5 -10.95 6.8 -10.8 Q7.0 -10.5 7.25 -10.15 L7.2 -9.8 7.1 -10.0 6.85 -10.25 6.7 -10.4 6.6 -10.45 6.45 -10.5 6.45 -10.5 6.35 -10.5 6.1 -10.6 5.95 -10.65 5.8 -10.8 5.65 -10.9 5.35 -11.25 5.3 -11.35 Q5.3 -11.45 5.25 -11.55 M7.25 -9.7 L7.4 -9.85 7.55 -9.25 Q7.6 -9.1 7.65 -8.95 L7.55 -8.8 7.45 -9.1 7.45 -9.2 7.4 -9.3 7.35 -9.5 7.25 -9.7 7.25 -9.7 7.4 -9.85 7.55 -9.25 Q7.6 -9.1 7.65 -8.95 L7.55 -8.8 7.45 -9.1 7.45 -9.2 7.4 -9.3 7.35 -9.5 7.25 -9.7 7.25 -9.7 M7.25 -9.7 L7.4 -9.85 Q7.5 -9.4 7.65 -8.95 L7.55 -8.8 7.55 -9.0 7.45 -9.2 7.35 -9.5 7.3 -9.5 7.3 -9.5 7.25 -9.65 7.25 -9.7 M7.25 -9.7 L7.4 -9.85 7.65 -9.05 7.65 -8.95 7.55 -8.8 7.45 -9.1 7.4 -9.3 7.35 -9.4 7.3 -9.5 7.25 -9.7 7.25 -9.7 M7.25 -9.7 Q7.3 -9.75 7.4 -9.85 L7.65 -8.95 7.55 -8.8 7.45 -9.2 7.35 -9.5 Q7.3 -9.6 7.25 -9.7 M7.25 -9.7 L7.4 -9.85 7.65 -8.95 Q7.6 -8.9 7.55 -8.8 L7.45 -9.2 7.4 -9.3 7.4 -9.3 7.35 -9.5 7.3 -9.5 7.25 -9.65 7.25 -9.7 M7.25 -9.7 L7.4 -9.85 7.65 -9.15 Q7.6 -9.0 7.55 -8.8 L7.55 -8.8 7.55 -8.9 7.45 -9.2 7.4 -9.3 7.35 -9.5 7.3 -9.5 7.25 -9.7 7.25 -9.7"/>
    </path>
  </g>
</svg>
