<?xml version="1.0" encoding="UTF-8" standalone="no"?>
<svg xmlns:xlink="http://www.w3.org/1999/xlink" height="10.0px" width="45.45px" xmlns="http://www.w3.org/2000/svg">
  <g transform="matrix(1.0, 0.0, 0.0, 1.0, 126.05, 0.0)">
    <path d="M-90.6 5.0 Q-90.6 7.05 -89.15 8.5 -87.65 10.0 -85.6 10.0 -83.55 10.0 -82.1 8.5 -80.6 7.05 -80.6 5.0 -80.6 2.95 -82.1 1.45 -83.55 0.0 -85.6 0.0 -87.65 0.0 -89.15 1.45 -90.6 2.95 -90.6 5.0" fill="#6b6b6b" fill-rule="evenodd" stroke="none">
      <animate attributeName="fill" dur="2s" repeatCount="indefinite" values="#6b6b6b;#6b6b6c"/>
      <animate attributeName="fill-opacity" dur="2s" repeatCount="indefinite" values="1.0;1.0"/>
      <animate attributeName="d" dur="2s" repeatCount="indefinite" values="M-90.6 5.0 Q-90.6 7.05 -89.15 8.5 -87.65 10.0 -85.6 10.0 -83.55 10.0 -82.1 8.5 -80.6 7.05 -80.6 5.0 -80.6 2.95 -82.1 1.45 -83.55 0.0 -85.6 0.0 -87.65 0.0 -89.15 1.45 -90.6 2.95 -90.6 5.0;M-126.05 3.45 Q-126.05 4.4 -125.35 5.15 -124.6 5.85 -123.6 5.85 -122.65 5.85 -121.9 5.15 -121.2 4.4 -121.2 3.45 -121.2 2.45 -121.9 1.7 -122.65 1.0 -123.6 1.0 -124.6 1.0 -125.35 1.7 -126.05 2.45 -126.05 3.45"/>
    </path>
    <path d="M-90.6 5.0 Q-90.6 2.95 -89.15 1.45 -87.65 0.0 -85.6 0.0 -83.55 0.0 -82.1 1.45 -80.6 2.95 -80.6 5.0 -80.6 7.05 -82.1 8.5 -83.55 10.0 -85.6 10.0 -87.65 10.0 -89.15 8.5 -90.6 7.05 -90.6 5.0" fill="none" stroke="#000000" stroke-linecap="round" stroke-linejoin="round" stroke-opacity="0.0" stroke-width="1.0">
      <animate attributeName="stroke" dur="2s" repeatCount="indefinite" values="#000000;#000001"/>
      <animate attributeName="stroke-width" dur="2s" repeatCount="indefinite" values="0.0;0.0"/>
      <animate attributeName="fill-opacity" dur="2s" repeatCount="indefinite" values="0.0;0.0"/>
      <animate attributeName="d" dur="2s" repeatCount="indefinite" values="M-90.6 5.0 Q-90.6 2.95 -89.15 1.45 -87.65 0.0 -85.6 0.0 -83.55 0.0 -82.1 1.45 -80.6 2.95 -80.6 5.0 -80.6 7.05 -82.1 8.5 -83.55 10.0 -85.6 10.0 -87.65 10.0 -89.15 8.5 -90.6 7.05 -90.6 5.0;M-126.05 3.45 Q-126.05 2.45 -125.35 1.7 -124.6 1.0 -123.6 1.0 -122.65 1.0 -121.9 1.7 -121.2 2.45 -121.2 3.45 -121.2 4.4 -121.9 5.15 -122.65 5.85 -123.6 5.85 -124.6 5.85 -125.35 5.15 -126.05 4.4 -126.05 3.45"/>
    </path>
  </g>
</svg>
