<?xml version="1.0" encoding="UTF-8" standalone="no"?>
<svg xmlns:xlink="http://www.w3.org/1999/xlink" height="261.85px" width="124.05px" xmlns="http://www.w3.org/2000/svg">
  <g transform="matrix(1.0, 0.0, 0.0, 1.0, 60.65, 132.65)">
    <path d="M-60.65 0.5 Q-60.65 6.75 -57.2 11.1 L-54.35 13.85 Q-57.7 18.75 -57.7 25.4 -57.7 32.7 -53.55 37.9 L-52.3 39.35 Q-52.65 41.25 -52.65 43.4 L-52.5 45.95 Q-53.7 46.85 -54.75 48.1 -58.2 52.6 -58.2 58.9 -58.2 65.15 -54.75 69.5 -51.25 73.9 -46.3 74.0 -46.05 80.6 -42.2 85.4 -38.85 89.65 -34.35 90.45 -35.05 93.15 -35.05 96.15 -35.05 103.45 -30.9 108.65 -27.45 113.05 -22.75 113.75 L-21.35 115.85 Q-18.85 119.0 -15.65 119.95 -14.7 122.1 -13.2 123.95 -9.05 129.2 -3.15 129.2 2.7 129.2 6.75 124.1 10.25 128.45 15.25 128.45 20.25 128.45 23.7 123.95 27.3 119.6 27.3 113.35 L27.15 110.6 29.3 110.85 Q34.5 110.85 38.05 105.75 41.75 100.75 41.75 93.75 L41.7 91.95 43.5 89.75 45.25 87.05 Q49.7 87.05 52.7 82.7 55.9 78.5 55.9 72.35 55.9 66.25 52.7 61.9 51.45 60.2 50.0 59.2 L51.4 57.45 Q55.1 52.45 55.1 45.05 57.2 43.75 58.9 41.3 62.6 36.3 62.6 29.3 62.6 22.2 58.9 17.15 57.3 14.9 55.3 13.65 57.75 12.4 59.7 9.6 63.4 4.6 63.4 -2.4 63.4 -9.5 59.7 -14.55 58.2 -16.6 56.45 -17.8 59.5 -21.95 59.5 -27.95 59.5 -34.05 56.3 -38.4 54.8 -40.45 52.95 -41.5 52.95 -43.45 52.6 -45.2 54.6 -49.3 54.6 -54.45 54.6 -61.55 50.9 -66.6 48.75 -69.6 45.95 -70.8 45.15 -72.9 43.85 -74.7 42.25 -76.9 40.25 -77.95 42.25 -82.05 42.25 -87.2 42.25 -94.3 38.55 -99.35 35.0 -104.3 29.8 -104.3 L26.55 -103.75 Q25.65 -106.7 23.7 -109.1 22.0 -111.2 19.95 -112.25 19.5 -117.45 16.4 -121.35 12.95 -125.6 7.95 -125.6 L4.75 -125.1 2.95 -127.9 Q-0.5 -132.15 -5.5 -132.15 L-8.9 -131.6 Q-11.25 -132.65 -13.9 -132.65 -19.8 -132.65 -23.95 -127.55 -26.9 -123.75 -27.75 -118.9 -31.9 -118.4 -34.95 -114.75 -38.4 -110.25 -38.4 -103.95 L-38.1 -100.4 -39.15 -99.3 Q-41.2 -96.6 -42.05 -93.3 -46.75 -93.1 -50.15 -89.05 -53.6 -84.55 -53.6 -78.25 -53.6 -74.35 -52.25 -71.2 -54.4 -69.95 -56.2 -67.75 -60.35 -62.45 -60.35 -55.05 -60.35 -48.65 -57.15 -43.85 L-57.3 -41.25 -57.15 -38.85 Q-59.1 -34.8 -59.1 -29.75 -59.1 -22.45 -54.95 -17.25 -54.15 -16.2 -53.35 -13.45 -55.45 -12.4 -57.2 -10.3 -60.65 -5.8 -60.65 0.5" fill="#ffffff" fill-rule="evenodd" stroke="none">
      <animate attributeName="fill" dur="2s" repeatCount="indefinite" values="#ffffff;#ffffff"/>
      <animate attributeName="fill-opacity" dur="2s" repeatCount="indefinite" values="1.0;0.09019608"/>
      <animate attributeName="d" dur="2s" repeatCount="indefinite" values="M-60.65 0.5 Q-60.65 6.75 -57.2 11.1 L-54.35 13.85 Q-57.7 18.75 -57.7 25.4 -57.7 32.7 -53.55 37.9 L-52.3 39.35 Q-52.65 41.25 -52.65 43.4 L-52.5 45.95 Q-53.7 46.85 -54.75 48.1 -58.2 52.6 -58.2 58.9 -58.2 65.15 -54.75 69.5 -51.25 73.9 -46.3 74.0 -46.05 80.6 -42.2 85.4 -38.85 89.65 -34.35 90.45 -35.05 93.15 -35.05 96.15 -35.05 103.45 -30.9 108.65 -27.45 113.05 -22.75 113.75 L-21.35 115.85 Q-18.85 119.0 -15.65 119.95 -14.7 122.1 -13.2 123.95 -9.05 129.2 -3.15 129.2 2.7 129.2 6.75 124.1 10.25 128.45 15.25 128.45 20.25 128.45 23.7 123.95 27.3 119.6 27.3 113.35 L27.15 110.6 29.3 110.85 Q34.5 110.85 38.05 105.75 41.75 100.75 41.75 93.75 L41.7 91.95 43.5 89.75 45.25 87.05 Q49.7 87.05 52.7 82.7 55.9 78.5 55.9 72.35 55.9 66.25 52.7 61.9 51.45 60.2 50.0 59.2 L51.4 57.45 Q55.1 52.45 55.1 45.05 57.2 43.75 58.9 41.3 62.6 36.3 62.6 29.3 62.6 22.2 58.9 17.15 57.3 14.9 55.3 13.65 57.75 12.4 59.7 9.6 63.4 4.6 63.4 -2.4 63.4 -9.5 59.7 -14.55 58.2 -16.6 56.45 -17.8 59.5 -21.95 59.5 -27.95 59.5 -34.05 56.3 -38.4 54.8 -40.45 52.95 -41.5 52.95 -43.45 52.6 -45.2 54.6 -49.3 54.6 -54.45 54.6 -61.55 50.9 -66.6 48.75 -69.6 45.95 -70.8 45.15 -72.9 43.85 -74.7 42.25 -76.9 40.25 -77.95 42.25 -82.05 42.25 -87.2 42.25 -94.3 38.55 -99.35 35.0 -104.3 29.8 -104.3 L26.55 -103.75 Q25.65 -106.7 23.7 -109.1 22.0 -111.2 19.95 -112.25 19.5 -117.45 16.4 -121.35 12.95 -125.6 7.95 -125.6 L4.75 -125.1 2.95 -127.9 Q-0.5 -132.15 -5.5 -132.15 L-8.9 -131.6 Q-11.25 -132.65 -13.9 -132.65 -19.8 -132.65 -23.95 -127.55 -26.9 -123.75 -27.75 -118.9 -31.9 -118.4 -34.95 -114.75 -38.4 -110.25 -38.4 -103.95 L-38.1 -100.4 -39.15 -99.3 Q-41.2 -96.6 -42.05 -93.3 -46.75 -93.1 -50.15 -89.05 -53.6 -84.55 -53.6 -78.25 -53.6 -74.35 -52.25 -71.2 -54.4 -69.95 -56.2 -67.75 -60.35 -62.45 -60.35 -55.05 -60.35 -48.65 -57.15 -43.85 L-57.3 -41.25 -57.15 -38.85 Q-59.1 -34.8 -59.1 -29.75 -59.1 -22.45 -54.95 -17.25 -54.15 -16.2 -53.35 -13.45 -55.45 -12.4 -57.2 -10.3 -60.65 -5.8 -60.65 0.5;M-60.65 0.5 Q-60.65 6.75 -57.2 11.1 L-54.35 13.85 Q-57.7 18.75 -57.7 25.4 -57.7 32.7 -53.55 37.9 L-52.3 39.35 Q-52.65 41.25 -52.65 43.4 L-52.5 45.95 Q-53.7 46.85 -54.75 48.1 -58.2 52.6 -58.2 58.9 -58.2 65.15 -54.75 69.5 -51.25 73.9 -46.3 74.0 -46.05 80.6 -42.2 85.4 -38.85 89.65 -34.35 90.45 -35.05 93.15 -35.05 96.15 -35.05 103.45 -30.9 108.65 -27.45 113.05 -22.75 113.75 L-21.35 115.85 Q-18.85 119.0 -15.65 119.95 -14.7 122.1 -13.2 123.95 -9.05 129.2 -3.15 129.2 2.7 129.2 6.75 124.1 10.25 128.45 15.25 128.45 20.25 128.45 23.7 123.95 27.3 119.6 27.3 113.35 L27.15 110.6 29.3 110.85 Q34.5 110.85 38.05 105.75 41.75 100.75 41.75 93.75 L41.7 91.95 43.5 89.75 45.25 87.05 Q49.7 87.05 52.7 82.7 55.9 78.5 55.9 72.35 55.9 66.25 52.7 61.9 51.45 60.2 50.0 59.2 L51.4 57.45 Q55.1 52.45 55.1 45.05 57.2 43.75 58.9 41.3 62.6 36.3 62.6 29.3 62.6 22.2 58.9 17.15 57.3 14.9 55.3 13.65 57.75 12.4 59.7 9.6 63.4 4.6 63.4 -2.4 63.4 -9.5 59.7 -14.55 58.2 -16.6 56.45 -17.8 59.5 -21.95 59.5 -27.95 59.5 -34.05 56.3 -38.4 54.8 -40.45 52.95 -41.5 52.95 -43.45 52.6 -45.2 54.6 -49.3 54.6 -54.45 54.6 -61.55 50.9 -66.6 48.75 -69.6 45.95 -70.8 45.15 -72.9 43.85 -74.7 42.25 -76.9 40.25 -77.95 42.25 -82.05 42.25 -87.2 42.25 -94.3 38.55 -99.35 35.0 -104.3 29.8 -104.3 L26.55 -103.75 Q25.65 -106.7 23.7 -109.1 22.0 -111.2 19.95 -112.25 19.5 -117.45 16.4 -121.35 12.95 -125.6 7.95 -125.6 L4.75 -125.1 2.95 -127.9 Q-0.5 -132.15 -5.5 -132.15 L-8.9 -131.6 Q-11.25 -132.65 -13.9 -132.65 -19.8 -132.65 -23.95 -127.55 -26.9 -123.75 -27.75 -118.9 -31.9 -118.4 -34.95 -114.75 -38.4 -110.25 -38.4 -103.95 L-38.1 -100.4 -39.15 -99.3 Q-41.2 -96.6 -42.05 -93.3 -46.75 -93.1 -50.15 -89.05 -53.6 -84.55 -53.6 -78.25 -53.6 -74.35 -52.25 -71.2 -54.4 -69.95 -56.2 -67.75 -60.35 -62.45 -60.35 -55.05 -60.35 -48.65 -57.15 -43.85 L-57.3 -41.25 -57.15 -38.85 Q-59.1 -34.8 -59.1 -29.75 -59.1 -22.45 -54.95 -17.25 -54.15 -16.2 -53.35 -13.45 -55.45 -12.4 -57.2 -10.3 -60.65 -5.8 -60.65 0.5"/>
    </path>
    <path d="M-60.65 0.5 Q-60.65 -5.8 -57.2 -10.3 -55.45 -12.4 -53.35 -13.45 -54.15 -16.2 -54.95 -17.25 -59.1 -22.45 -59.1 -29.75 -59.1 -34.8 -57.15 -38.85 L-57.3 -41.25 -57.15 -43.85 Q-60.35 -48.65 -60.35 -55.05 -60.35 -62.45 -56.2 -67.75 -54.4 -69.95 -52.25 -71.2 -53.6 -74.35 -53.6 -78.25 -53.6 -84.55 -50.15 -89.05 -46.75 -93.1 -42.05 -93.3 -41.2 -96.6 -39.15 -99.3 L-38.1 -100.4 -38.4 -103.95 Q-38.4 -110.25 -34.95 -114.75 -31.9 -118.4 -27.75 -118.9 -26.9 -123.75 -23.95 -127.55 -19.8 -132.65 -13.9 -132.65 -11.25 -132.65 -8.9 -131.6 L-5.5 -132.15 Q-0.5 -132.15 2.95 -127.9 L4.75 -125.1 7.95 -125.6 Q12.95 -125.6 16.4 -121.35 19.5 -117.45 19.95 -112.25 22.0 -111.2 23.7 -109.1 25.65 -106.7 26.55 -103.75 L29.8 -104.3 Q35.0 -104.3 38.55 -99.35 42.25 -94.3 42.25 -87.2 42.25 -82.05 40.25 -77.95 42.25 -76.9 43.85 -74.7 45.15 -72.9 45.95 -70.8 48.75 -69.6 50.9 -66.6 54.6 -61.55 54.6 -54.45 54.6 -49.3 52.6 -45.2 52.95 -43.45 52.95 -41.5 54.8 -40.45 56.3 -38.4 59.5 -34.05 59.5 -27.95 59.5 -21.95 56.45 -17.8 58.2 -16.6 59.7 -14.55 63.4 -9.5 63.4 -2.4 63.4 4.6 59.7 9.6 57.75 12.4 55.3 13.65 57.3 14.9 58.9 17.15 62.6 22.2 62.6 29.3 62.6 36.3 58.9 41.3 57.2 43.75 55.1 45.05 55.1 52.45 51.4 57.45 L50.0 59.2 Q51.45 60.2 52.7 61.9 55.9 66.25 55.9 72.35 55.9 78.5 52.7 82.7 49.7 87.05 45.25 87.05 L43.5 89.75 41.7 91.95 41.75 93.75 Q41.75 100.75 38.05 105.75 34.5 110.85 29.3 110.85 L27.15 110.6 27.3 113.35 Q27.3 119.6 23.7 123.95 20.25 128.45 15.25 128.45 10.25 128.45 6.75 124.1 2.7 129.2 -3.15 129.2 -9.05 129.2 -13.2 123.95 -14.7 122.1 -15.65 119.95 -18.85 119.0 -21.35 115.85 L-22.75 113.75 Q-27.45 113.05 -30.9 108.65 -35.05 103.45 -35.05 96.15 -35.05 93.15 -34.35 90.45 -38.85 89.65 -42.2 85.4 -46.05 80.6 -46.3 74.0 -51.25 73.9 -54.75 69.5 -58.2 65.15 -58.2 58.9 -58.2 52.6 -54.75 48.1 -53.7 46.85 -52.5 45.95 L-52.65 43.4 Q-52.65 41.25 -52.3 39.35 L-53.55 37.9 Q-57.7 32.7 -57.7 25.4 -57.7 18.75 -54.35 13.85 L-57.2 11.1 Q-60.65 6.75 -60.65 0.5" fill="none" stroke="#000000" stroke-linecap="round" stroke-linejoin="round" stroke-opacity="0.0" stroke-width="1.0">
      <animate attributeName="stroke" dur="2s" repeatCount="indefinite" values="#000000;#000001"/>
      <animate attributeName="stroke-width" dur="2s" repeatCount="indefinite" values="0.0;0.0"/>
      <animate attributeName="fill-opacity" dur="2s" repeatCount="indefinite" values="0.0;0.0"/>
      <animate attributeName="d" dur="2s" repeatCount="indefinite" values="M-60.65 0.5 Q-60.65 -5.8 -57.2 -10.3 -55.45 -12.4 -53.35 -13.45 -54.15 -16.2 -54.95 -17.25 -59.1 -22.45 -59.1 -29.75 -59.1 -34.8 -57.15 -38.85 L-57.3 -41.25 -57.15 -43.85 Q-60.35 -48.65 -60.35 -55.05 -60.35 -62.45 -56.2 -67.75 -54.4 -69.95 -52.25 -71.2 -53.6 -74.35 -53.6 -78.25 -53.6 -84.55 -50.15 -89.05 -46.75 -93.1 -42.05 -93.3 -41.2 -96.6 -39.15 -99.3 L-38.1 -100.4 -38.4 -103.95 Q-38.4 -110.25 -34.95 -114.75 -31.9 -118.4 -27.75 -118.9 -26.9 -123.75 -23.95 -127.55 -19.8 -132.65 -13.9 -132.65 -11.25 -132.65 -8.9 -131.6 L-5.5 -132.15 Q-0.5 -132.15 2.95 -127.9 L4.75 -125.1 7.95 -125.6 Q12.95 -125.6 16.4 -121.35 19.5 -117.45 19.95 -112.25 22.0 -111.2 23.7 -109.1 25.65 -106.7 26.55 -103.75 L29.8 -104.3 Q35.0 -104.3 38.55 -99.35 42.25 -94.3 42.25 -87.2 42.25 -82.05 40.25 -77.95 42.25 -76.9 43.85 -74.7 45.15 -72.9 45.95 -70.8 48.75 -69.6 50.9 -66.6 54.6 -61.55 54.6 -54.45 54.6 -49.3 52.6 -45.2 52.95 -43.45 52.95 -41.5 54.8 -40.45 56.3 -38.4 59.5 -34.05 59.5 -27.95 59.5 -21.95 56.45 -17.8 58.2 -16.6 59.7 -14.55 63.4 -9.5 63.4 -2.4 63.4 4.6 59.7 9.6 57.75 12.4 55.3 13.65 57.3 14.9 58.9 17.15 62.6 22.2 62.6 29.3 62.6 36.3 58.9 41.3 57.2 43.75 55.1 45.05 55.1 52.45 51.4 57.45 L50.0 59.2 Q51.45 60.2 52.7 61.9 55.9 66.25 55.9 72.35 55.9 78.5 52.7 82.7 49.7 87.05 45.25 87.05 L43.5 89.75 41.7 91.95 41.75 93.75 Q41.75 100.75 38.05 105.75 34.5 110.85 29.3 110.85 L27.15 110.6 27.3 113.35 Q27.3 119.6 23.7 123.95 20.25 128.45 15.25 128.45 10.25 128.45 6.75 124.1 2.7 129.2 -3.15 129.2 -9.05 129.2 -13.2 123.95 -14.7 122.1 -15.65 119.95 -18.85 119.0 -21.35 115.85 L-22.75 113.75 Q-27.45 113.05 -30.9 108.65 -35.05 103.45 -35.05 96.15 -35.05 93.15 -34.35 90.45 -38.85 89.65 -42.2 85.4 -46.05 80.6 -46.3 74.0 -51.25 73.9 -54.75 69.5 -58.2 65.15 -58.2 58.9 -58.2 52.6 -54.75 48.1 -53.7 46.85 -52.5 45.95 L-52.65 43.4 Q-52.65 41.25 -52.3 39.35 L-53.55 37.9 Q-57.7 32.7 -57.7 25.4 -57.7 18.75 -54.35 13.85 L-57.2 11.1 Q-60.65 6.75 -60.65 0.5;M-60.65 0.5 Q-60.65 -5.8 -57.2 -10.3 -55.45 -12.4 -53.35 -13.45 -54.15 -16.2 -54.95 -17.25 -59.1 -22.45 -59.1 -29.75 -59.1 -34.8 -57.15 -38.85 L-57.3 -41.25 -57.15 -43.85 Q-60.35 -48.65 -60.35 -55.05 -60.35 -62.45 -56.2 -67.75 -54.4 -69.95 -52.25 -71.2 -53.6 -74.35 -53.6 -78.25 -53.6 -84.55 -50.15 -89.05 -46.75 -93.1 -42.05 -93.3 -41.2 -96.6 -39.15 -99.3 L-38.1 -100.4 -38.4 -103.95 Q-38.4 -110.25 -34.95 -114.75 -31.9 -118.4 -27.75 -118.9 -26.9 -123.75 -23.95 -127.55 -19.8 -132.65 -13.9 -132.65 -11.25 -132.65 -8.9 -131.6 L-5.5 -132.15 Q-0.5 -132.15 2.95 -127.9 L4.75 -125.1 7.95 -125.6 Q12.95 -125.6 16.4 -121.35 19.5 -117.45 19.95 -112.25 22.0 -111.2 23.7 -109.1 25.65 -106.7 26.55 -103.75 L29.8 -104.3 Q35.0 -104.3 38.55 -99.35 42.25 -94.3 42.25 -87.2 42.25 -82.05 40.25 -77.95 42.25 -76.9 43.85 -74.7 45.15 -72.9 45.95 -70.8 48.75 -69.6 50.9 -66.6 54.6 -61.55 54.6 -54.45 54.6 -49.3 52.6 -45.2 52.95 -43.45 52.95 -41.5 54.8 -40.45 56.3 -38.4 59.5 -34.05 59.5 -27.95 59.5 -21.95 56.45 -17.8 58.2 -16.6 59.7 -14.55 63.4 -9.5 63.4 -2.4 63.4 4.6 59.7 9.6 57.75 12.4 55.3 13.65 57.3 14.9 58.9 17.15 62.6 22.2 62.6 29.3 62.6 36.3 58.9 41.3 57.2 43.75 55.1 45.05 55.1 52.45 51.4 57.45 L50.0 59.2 Q51.45 60.2 52.7 61.9 55.9 66.25 55.9 72.35 55.9 78.5 52.7 82.7 49.7 87.05 45.25 87.05 L43.5 89.75 41.7 91.95 41.75 93.75 Q41.75 100.75 38.05 105.75 34.5 110.85 29.3 110.85 L27.15 110.6 27.3 113.35 Q27.3 119.6 23.7 123.95 20.25 128.45 15.25 128.45 10.25 128.45 6.75 124.1 2.7 129.2 -3.15 129.2 -9.05 129.2 -13.2 123.95 -14.7 122.1 -15.65 119.95 -18.85 119.0 -21.35 115.85 L-22.75 113.75 Q-27.45 113.05 -30.9 108.65 -35.05 103.45 -35.05 96.15 -35.05 93.15 -34.35 90.45 -38.85 89.65 -42.2 85.4 -46.05 80.6 -46.3 74.0 -51.25 73.9 -54.75 69.5 -58.2 65.15 -58.2 58.9 -58.2 52.6 -54.75 48.1 -53.7 46.85 -52.5 45.95 L-52.65 43.4 Q-52.65 41.25 -52.3 39.35 L-53.55 37.9 Q-57.7 32.7 -57.7 25.4 -57.7 18.75 -54.35 13.85 L-57.2 11.1 Q-60.65 6.75 -60.65 0.5"/>
    </path>
  </g>
</svg>
