<?xml version="1.0" encoding="UTF-8" standalone="no"?>
<svg xmlns:xlink="http://www.w3.org/1999/xlink" height="39.2px" width="106.55px" xmlns="http://www.w3.org/2000/svg">
  <g transform="matrix(1.0, 0.0, 0.0, 1.0, 145.95, -64.0)">
    <path d="M-145.95 66.65 Q-145.85 67.8 -145.15 68.85 -144.3 70.25 -142.85 70.8 L-139.35 70.95 Q-139.05 70.8 -138.75 70.65 L-138.6 70.25 Q-138.2 69.7 -138.2 69.0 -138.2 68.25 -138.6 67.7 -139.0 67.15 -139.0 66.5 L-139.05 65.7 -139.2 65.25 -139.3 64.85 -139.75 64.5 Q-140.2 64.35 -140.6 64.2 L-142.2 64.05 -142.75 64.0 -143.45 64.2 -144.55 64.75 -145.35 65.45 -145.65 65.8 -145.9 66.25 -145.95 66.65" fill="#999999" fill-rule="evenodd" stroke="none">
      <animate attributeName="fill" dur="2s" repeatCount="indefinite" values="#999999;#99999a"/>
      <animate attributeName="fill-opacity" dur="2s" repeatCount="indefinite" values="1.0;1.0"/>
      <animate attributeName="d" dur="2s" repeatCount="indefinite" values="M-145.95 66.65 Q-145.85 67.8 -145.15 68.85 -144.3 70.25 -142.85 70.8 L-139.35 70.95 Q-139.05 70.8 -138.75 70.65 L-138.6 70.25 Q-138.2 69.7 -138.2 69.0 -138.2 68.25 -138.6 67.7 -139.0 67.15 -139.0 66.5 L-139.05 65.7 -139.2 65.25 -139.3 64.85 -139.75 64.5 Q-140.2 64.35 -140.6 64.2 L-142.2 64.05 -142.75 64.0 -143.45 64.2 -144.55 64.75 -145.35 65.45 -145.65 65.8 -145.9 66.25 -145.95 66.65;M-52.8 95.3 Q-52.6 97.3 -51.45 99.1 -49.95 101.5 -47.4 102.5 L-41.4 102.75 Q-40.85 102.6 -40.35 102.2 L-40.05 101.55 Q-39.4 100.6 -39.4 99.35 -39.4 98.1 -40.05 97.15 -40.75 96.15 -40.8 95.05 L-40.9 93.65 -41.1 92.9 -41.3 92.2 -42.1 91.6 Q-42.75 91.25 -43.5 91.1 L-46.35 90.8 -47.3 90.75 -48.45 91.1 -50.35 92.05 -51.75 93.2 -52.3 93.85 -52.7 94.6 -52.8 95.3"/>
    </path>
    <path d="M-145.95 66.65 L-145.9 66.25 -145.65 65.8 -145.35 65.45 -144.55 64.75 -143.45 64.2 -142.75 64.0 -142.2 64.05 -140.6 64.2 Q-140.2 64.35 -139.75 64.5 L-139.3 64.85 -139.2 65.25 -139.05 65.7 -139.0 66.5 Q-139.0 67.15 -138.6 67.7 -138.2 68.25 -138.2 69.0 -138.2 69.7 -138.6 70.25 L-138.75 70.65 Q-139.05 70.8 -139.35 70.95 L-142.85 70.8 Q-144.3 70.25 -145.15 68.85 -145.85 67.8 -145.95 66.65" fill="none" stroke="#000000" stroke-linecap="round" stroke-linejoin="round" stroke-opacity="0.0" stroke-width="1.0">
      <animate attributeName="stroke" dur="2s" repeatCount="indefinite" values="#000000;#000001"/>
      <animate attributeName="stroke-width" dur="2s" repeatCount="indefinite" values="0.0;0.0"/>
      <animate attributeName="fill-opacity" dur="2s" repeatCount="indefinite" values="0.0;0.0"/>
      <animate attributeName="d" dur="2s" repeatCount="indefinite" values="M-145.95 66.65 L-145.9 66.25 -145.65 65.8 -145.35 65.45 -144.55 64.75 -143.45 64.2 -142.75 64.0 -142.2 64.05 -140.6 64.2 Q-140.2 64.35 -139.75 64.5 L-139.3 64.85 -139.2 65.25 -139.05 65.7 -139.0 66.5 Q-139.0 67.15 -138.6 67.7 -138.2 68.25 -138.2 69.0 -138.2 69.7 -138.6 70.25 L-138.75 70.65 Q-139.05 70.8 -139.35 70.95 L-142.85 70.8 Q-144.3 70.25 -145.15 68.85 -145.85 67.8 -145.95 66.65;M-52.8 95.3 L-52.7 94.6 -52.3 93.85 -51.75 93.2 -50.35 92.05 -48.45 91.1 -47.3 90.75 -46.35 90.8 -43.5 91.1 Q-42.75 91.25 -42.1 91.6 L-41.3 92.2 -41.1 92.9 -40.9 93.65 -40.8 95.05 Q-40.75 96.15 -40.05 97.15 -39.4 98.1 -39.4 99.35 -39.4 100.6 -40.05 101.55 L-40.35 102.2 Q-40.85 102.6 -41.4 102.75 L-47.4 102.5 Q-49.95 101.5 -51.45 99.1 -52.6 97.3 -52.8 95.3"/>
    </path>
  </g>
</svg>
