<?xml version="1.0" encoding="UTF-8" standalone="no"?>
<svg xmlns:xlink="http://www.w3.org/1999/xlink" height="63.1px" width="121.8px" xmlns="http://www.w3.org/2000/svg">
  <g transform="matrix(1.0, 0.0, 0.0, 1.0, 52.8, -40.1)">
    <path d="M-52.8 95.3 Q-52.6 97.3 -51.45 99.1 -49.95 101.5 -47.4 102.5 L-41.4 102.75 Q-40.85 102.6 -40.35 102.2 L-40.05 101.55 Q-39.4 100.6 -39.4 99.35 -39.4 98.1 -40.05 97.15 -40.75 96.15 -40.8 95.05 L-40.9 93.65 -41.1 92.9 -41.3 92.2 -42.1 91.6 Q-42.75 91.25 -43.5 91.1 L-46.35 90.8 -47.3 90.75 -48.45 91.1 Q-49.4 91.6 -50.35 92.05 L-51.75 93.2 -52.3 93.85 -52.7 94.6 -52.8 95.3" fill="#999999" fill-rule="evenodd" stroke="none">
      <animate attributeName="fill" dur="2s" repeatCount="indefinite" values="#999999;#99999a"/>
      <animate attributeName="fill-opacity" dur="2s" repeatCount="indefinite" values="1.0;1.0"/>
      <animate attributeName="d" dur="2s" repeatCount="indefinite" values="M-52.8 95.3 Q-52.6 97.3 -51.45 99.1 -49.95 101.5 -47.4 102.5 L-41.4 102.75 Q-40.85 102.6 -40.35 102.2 L-40.05 101.55 Q-39.4 100.6 -39.4 99.35 -39.4 98.1 -40.05 97.15 -40.75 96.15 -40.8 95.05 L-40.9 93.65 -41.1 92.9 -41.3 92.2 -42.1 91.6 Q-42.75 91.25 -43.5 91.1 L-46.35 90.8 -47.3 90.75 -48.45 91.1 Q-49.4 91.6 -50.35 92.05 L-51.75 93.2 -52.3 93.85 -52.7 94.6 -52.8 95.3;M62.35 42.4 Q62.45 43.4 63.0 44.3 63.75 45.45 65.05 45.95 L68.0 46.1 Q68.3 45.95 68.55 45.8 L68.7 45.5 Q68.85 44.95 69.0 44.4 68.85 43.85 68.7 43.3 68.35 42.8 68.3 42.25 L68.25 41.55 68.15 41.2 68.05 40.85 67.65 40.55 Q67.3 40.4 66.95 40.3 L65.55 40.15 65.1 40.1 64.5 40.3 Q64.0 40.45 63.55 40.75 L62.85 41.35 62.6 41.65 62.4 42.05 62.35 42.4"/>
    </path>
    <path d="M-52.8 95.3 L-52.7 94.6 -52.3 93.85 -51.75 93.2 -50.35 92.05 Q-49.4 91.6 -48.45 91.1 L-47.3 90.75 -46.35 90.8 -43.5 91.1 Q-42.75 91.25 -42.1 91.6 L-41.3 92.2 -41.1 92.9 -40.9 93.65 -40.8 95.05 Q-40.75 96.15 -40.05 97.15 -39.4 98.1 -39.4 99.35 -39.4 100.6 -40.05 101.55 L-40.35 102.2 Q-40.85 102.6 -41.4 102.75 L-47.4 102.5 Q-49.95 101.5 -51.45 99.1 -52.6 97.3 -52.8 95.3" fill="none" stroke="#000000" stroke-linecap="round" stroke-linejoin="round" stroke-opacity="0.0" stroke-width="1.0">
      <animate attributeName="stroke" dur="2s" repeatCount="indefinite" values="#000000;#000001"/>
      <animate attributeName="stroke-width" dur="2s" repeatCount="indefinite" values="0.0;0.0"/>
      <animate attributeName="fill-opacity" dur="2s" repeatCount="indefinite" values="0.0;0.0"/>
      <animate attributeName="d" dur="2s" repeatCount="indefinite" values="M-52.8 95.3 L-52.7 94.6 -52.3 93.85 -51.75 93.2 -50.35 92.05 Q-49.4 91.6 -48.45 91.1 L-47.3 90.75 -46.35 90.8 -43.5 91.1 Q-42.75 91.25 -42.1 91.6 L-41.3 92.2 -41.1 92.9 -40.9 93.65 -40.8 95.05 Q-40.75 96.15 -40.05 97.15 -39.4 98.1 -39.4 99.35 -39.4 100.6 -40.05 101.55 L-40.35 102.2 Q-40.85 102.6 -41.4 102.75 L-47.4 102.5 Q-49.95 101.5 -51.45 99.1 -52.6 97.3 -52.8 95.3;M62.35 42.4 L62.4 42.05 62.6 41.65 62.85 41.35 63.55 40.75 Q64.0 40.45 64.5 40.3 L65.1 40.1 65.55 40.15 66.95 40.3 Q67.3 40.4 67.65 40.55 L68.05 40.85 68.15 41.2 68.25 41.55 68.3 42.25 Q68.35 42.8 68.7 43.3 68.85 43.85 69.0 44.4 68.85 44.95 68.7 45.5 L68.55 45.8 Q68.3 45.95 68.0 46.1 L65.05 45.95 Q63.75 45.45 63.0 44.3 62.45 43.4 62.35 42.4"/>
    </path>
  </g>
</svg>
